<!-- Generated by IcoMoon.io -->
<svg version="1.1" xmlns="http://www.w3.org/2000/svg" width="32" height="32" viewBox="0 0 32 32">
<title>alerta-del-bus</title>
<path d="M21.333 1.333c0 0-0.001 0-0.001 0-3.187 0-6.001 1.598-7.685 4.035l-0.020 0.031 0.027-0.040c-0.533-0.027-1.093-0.027-1.653-0.027-5.893 0-10.667 0.667-10.667 5.333v13.333c0 1.173 0.52 2.227 1.333 2.96v2.373c0 0.736 0.597 1.333 1.333 1.333v0h1.333c0.736 0 1.333-0.597 1.333-1.333v0-1.333h10.667v1.333c0 0.736 0.597 1.333 1.333 1.333v0h1.333c0.736 0 1.333-0.597 1.333-1.333v0-2.373c0.813-0.733 1.333-1.787 1.333-2.96v-4.107c4.515-0.707 7.928-4.568 7.928-9.227 0-5.129-4.138-9.292-9.258-9.333h-0.004zM6 25.333c-1.105 0-2-0.895-2-2s0.895-2 2-2v0c1.105 0 2 0.895 2 2s-0.895 2-2 2v0zM4 17.333v-6.667h8c0 2.613 1.080 4.973 2.813 6.667h-10.813zM18 25.333c-1.105 0-2-0.895-2-2s0.895-2 2-2v0c1.105 0 2 0.895 2 2s-0.895 2-2 2v0zM21.333 17.333c-3.682 0-6.667-2.985-6.667-6.667s2.985-6.667 6.667-6.667v0c3.682 0 6.667 2.985 6.667 6.667s-2.985 6.667-6.667 6.667v0zM20 5.333h2.667v6.667h-2.667zM20 13.333h2.667v2.667h-2.667z"></path>
</svg>
