<!-- Generated by IcoMoon.io -->
<svg version="1.1" xmlns="http://www.w3.org/2000/svg" width="32" height="32" viewBox="0 0 32 32">
<title>american-express</title>
<path fill="#fff" d="M2.442 2.442h27.115v27.115h-27.115z"></path>
<path fill="#0077a6" d="M3.972 26.702h-0.076c0-0.038-0.019-0.096-0.019-0.115s0-0.057-0.057-0.057h-0.115v0.172h-0.058v-0.401h0.172c0.076 0 0.133 0.019 0.133 0.096 0 0.057-0.019 0.076-0.038 0.095 0.019 0.019 0.038 0.038 0.038 0.077v0.076c0 0.019 0 0.019 0.019 0.019v0.038zM3.896 26.416c0-0.057-0.038-0.057-0.057-0.057h-0.133v0.115h0.115c0.038 0 0.076-0.019 0.076-0.057zM4.221 26.492c0-0.229-0.191-0.42-0.439-0.42-0.229 0-0.42 0.191-0.42 0.42 0 0.248 0.191 0.439 0.42 0.439 0.248 0 0.439-0.191 0.439-0.439zM4.163 26.492c0 0.21-0.171 0.363-0.381 0.363s-0.362-0.152-0.362-0.363c0-0.191 0.152-0.363 0.362-0.363s0.381 0.172 0.381 0.363zM27.679 18.781c0 0.573-0.363 0.84-1.012 0.84h-1.24v-0.573h1.24c0.115 0 0.21-0.019 0.249-0.057s0.076-0.096 0.076-0.172c0-0.077-0.038-0.153-0.076-0.191s-0.115-0.057-0.229-0.057c-0.592-0.019-1.336 0.019-1.336-0.821 0-0.382 0.248-0.802 0.916-0.802h1.279v0.573h-1.184c-0.115 0-0.191 0-0.248 0.038-0.057 0.057-0.096 0.115-0.096 0.21s0.057 0.153 0.134 0.191c0.076 0.019 0.152 0.038 0.248 0.038h0.344c0.363 0 0.592 0.076 0.744 0.21 0.115 0.133 0.191 0.306 0.191 0.573v0zM24.987 18.208c-0.152-0.134-0.381-0.21-0.744-0.21h-0.343c-0.096 0-0.172-0.019-0.249-0.038-0.076-0.038-0.133-0.096-0.133-0.191s0.019-0.153 0.096-0.21c0.057-0.038 0.133-0.038 0.248-0.038h1.183v-0.573h-1.279c-0.687 0-0.916 0.42-0.916 0.802 0 0.84 0.744 0.802 1.337 0.821 0.114 0 0.191 0.019 0.229 0.057s0.077 0.115 0.077 0.191c0 0.076-0.038 0.133-0.077 0.172-0.057 0.038-0.133 0.057-0.248 0.057h-1.24v0.573h1.24c0.649 0 1.012-0.267 1.012-0.84 0-0.267-0.077-0.439-0.191-0.573v0zM22.544 19.067h-1.508v-0.534h1.47v-0.534h-1.47v-0.497h1.508v-0.554h-2.138v2.672h2.138v-0.553zM19.719 17.082c-0.21-0.115-0.458-0.134-0.782-0.134h-1.47v2.672h0.649v-0.974h0.687c0.229 0 0.363 0.019 0.458 0.115 0.115 0.133 0.115 0.363 0.115 0.534v0.324h0.629v-0.515c0-0.248-0.019-0.363-0.095-0.496-0.057-0.077-0.172-0.172-0.325-0.229 0.172-0.057 0.458-0.286 0.458-0.706 0-0.305-0.115-0.478-0.325-0.592zM16.093 16.948h-2.043l-0.821 0.878-0.782-0.878h-2.577v2.672h2.539l0.821-0.878 0.783 0.878h1.24v-0.897h0.802c0.554 0 1.108-0.153 1.108-0.897-0.001-0.725-0.573-0.878-1.069-0.878zM19.204 18.056c-0.095 0.038-0.191 0.038-0.305 0.038l-0.782 0.019v-0.611h0.782c0.115 0 0.229 0 0.305 0.057 0.077 0.038 0.134 0.115 0.134 0.229s-0.057 0.21-0.134 0.267zM16.093 18.189h-0.84v-0.687h0.84c0.229 0 0.381 0.096 0.381 0.324 0 0.23-0.152 0.363-0.381 0.363v0zM13.63 18.284l0.992-1.050v2.157l-0.992-1.108zM12.084 19.067h-1.584v-0.534h1.412v-0.534h-1.412v-0.497h1.604l0.706 0.782-0.726 0.783zM25.903 15.021h-0.916l-1.202-2.004v2.004h-1.298l-0.249-0.592h-1.336l-0.248 0.592h-0.744c-0.306 0-0.707-0.076-0.935-0.306-0.21-0.229-0.325-0.534-0.325-1.011 0-0.401 0.057-0.763 0.344-1.050 0.191-0.21 0.534-0.305 0.973-0.305h0.611v0.573h-0.611c-0.229 0-0.363 0.038-0.496 0.152-0.115 0.115-0.172 0.325-0.172 0.611s0.057 0.496 0.172 0.63c0.095 0.095 0.267 0.133 0.439 0.133h0.286l0.916-2.099h0.955l1.069 2.519v-2.519h0.992l1.126 1.851v-1.851h0.649v2.672zM18.326 12.349h-0.649v2.672h0.649v-2.672zM16.971 12.463c-0.21-0.115-0.439-0.115-0.763-0.115h-1.47v2.672h0.63v-0.974h0.687c0.229 0 0.382 0.019 0.477 0.115 0.115 0.133 0.096 0.363 0.096 0.515v0.344h0.649v-0.534c0-0.229-0.019-0.344-0.115-0.478-0.057-0.076-0.172-0.172-0.305-0.229 0.171-0.076 0.458-0.286 0.458-0.706 0-0.305-0.134-0.477-0.344-0.61v0zM14.279 14.467h-1.488v-0.534h1.47v-0.553h-1.47v-0.478h1.488v-0.553h-2.138v2.672h2.138v-0.554zM11.664 12.349h-1.050l-0.783 1.813-0.84-1.813h-1.031v2.519l-1.088-2.519h-0.954l-1.145 2.672h0.687l0.248-0.592h1.336l0.248 0.592h1.298v-2.099l0.935 2.099h0.553l0.936-2.099v2.099h0.649v-2.672zM22.010 13.856l-0.439-1.050-0.439 1.050h0.878zM16.474 13.437c-0.095 0.057-0.191 0.057-0.324 0.057h-0.783v-0.592h0.783c0.115 0 0.248 0 0.324 0.038 0.076 0.057 0.115 0.134 0.115 0.249s-0.038 0.21-0.115 0.248v0zM5.938 13.856l0.439-1.050 0.439 1.050h-0.878zM27.526 3.969h-22.771v9.62l0.782-1.775h1.661l0.229 0.439v-0.439h1.947l0.439 0.954 0.42-0.954h6.204c0.286 0 0.534 0.057 0.725 0.21v-0.21h1.699v0.21c0.286-0.153 0.649-0.21 1.069-0.21h2.462l0.229 0.439v-0.439h1.814l0.267 0.439v-0.439h1.775v3.741h-1.794l-0.344-0.573v0.573h-2.233l-0.249-0.61h-0.553l-0.249 0.61h-1.164c-0.458 0-0.802-0.115-1.030-0.229v0.229h-2.768v-0.859c0-0.115-0.019-0.133-0.096-0.133h-0.095v0.992h-5.345v-0.477l-0.191 0.477h-1.126l-0.191-0.458v0.458h-2.157l-0.229-0.61h-0.554l-0.248 0.61h-1.107v11.281h22.771v-6.853c-0.248 0.115-0.592 0.172-0.935 0.172h-1.661v-0.23c-0.191 0.153-0.534 0.23-0.858 0.23h-5.23v-0.859c0-0.115-0.019-0.115-0.115-0.115h-0.095v0.974h-1.718v-1.012c-0.286 0.133-0.611 0.133-0.897 0.133h-0.191v0.878h-2.099l-0.496-0.573-0.553 0.573h-3.379v-3.741h3.435l0.496 0.573 0.534-0.573h2.31c0.267 0 0.707 0.038 0.897 0.229v-0.229h2.061c0.21 0 0.611 0.038 0.878 0.229v-0.229h3.111v0.229c0.172-0.153 0.497-0.229 0.783-0.229h1.737v0.229c0.191-0.133 0.458-0.229 0.802-0.229h1.183v-12.445z"></path>
</svg>
