<?xml version="1.0" encoding="UTF-8"?>
<!DOCTYPE svg PUBLIC "-//W3C//DTD SVG 1.1//EN" "http://www.w3.org/Graphics/SVG/1.1/DTD/svg11.dtd">
<!-- Creator: CorelDRAW 2017 -->
<svg xmlns="http://www.w3.org/2000/svg" xml:space="preserve" width="7.3658mm" height="7.3658mm" version="1.1" style="shape-rendering:geometricPrecision; text-rendering:geometricPrecision; image-rendering:optimizeQuality; fill-rule:evenodd; clip-rule:evenodd"
viewBox="0 0 736.58 736.58"
 xmlns:xlink="http://www.w3.org/1999/xlink">
 <defs>
  <style type="text/css">
   <![CDATA[
    .fil0 {fill:black}
   ]]>
  </style>
 </defs>
 <g id="Capa_x0020_1">
  <metadata id="CorelCorpID_0Corel-Layer"/>
  <path class="fil0" d="M295.7 9.05c-216.73,49.54 -327.14,240.8 -289.23,430.28 41.89,209.36 246.26,331.13 437.93,288.5 170.19,-37.84 333.31,-210.67 284.19,-430.77 -46.94,-210.39 -243.32,-331.34 -432.89,-288.01zm-166.23 358.95c37.42,33.99 78.81,57.77 119.33,89.89 22.14,17.56 100.85,79.53 118.42,82.96l0.17 -169.78 122.95 86.5c22.11,17.86 98.84,78.71 118.54,83.54l0.02 -352.78c-34.44,12.69 -190.1,148.69 -241.27,170.28l-0.33 -170.02c-30.02,13.11 -87.57,60.94 -118.19,83.49 -22.52,16.59 -110.2,76.67 -119.64,95.92z"/>
 </g>
</svg>
