<?xml version="1.0" encoding="UTF-8"?>
<!DOCTYPE svg PUBLIC "-//W3C//DTD SVG 1.1//EN" "http://www.w3.org/Graphics/SVG/1.1/DTD/svg11.dtd">
<!-- Creator: CorelDRAW 2017 -->
<svg xmlns="http://www.w3.org/2000/svg" xml:space="preserve" width="30.056mm" height="30.056mm" version="1.1" style="shape-rendering:geometricPrecision; text-rendering:geometricPrecision; image-rendering:optimizeQuality; fill-rule:evenodd; clip-rule:evenodd"
viewBox="0 0 3005.6 3005.6"
 xmlns:xlink="http://www.w3.org/1999/xlink">
 <defs>
  <style type="text/css">
   <![CDATA[
    .fil0 {fill:#373435}
   ]]>
  </style>
 </defs>
 <g id="Capa_x0020_1">
  <metadata id="CorelCorpID_0Corel-Layer"/>
  <path class="fil0" d="M162.91 2394.19l0.51 -1790.82 276.62 52.77 0.57 1468.46c204.45,0 390.91,3.62 586.72,40.37 133.46,25.05 238.21,53.21 355.34,111.53 60.29,30.02 67.9,22 69.44,90.71 61.11,-23.9 37.93,-28.03 97.45,-1.42 1.96,-72.06 38.86,-83.06 174.24,-134.46 238.69,-90.64 583.26,-106.73 841.21,-106.73l0.13 -1470.42 276.12 -68.51 0.86 1787.23c-379.78,-88.65 -854.85,-162.06 -1198.58,98.85 -225.28,171.01 -182.01,22.14 -394.02,-74.29 -214.59,-97.62 -495.83,-100.46 -728.97,-73.21 -131.38,15.35 -241.46,53.07 -357.64,69.94zm690.86 -1152.24l0 173.66c0,62.57 8.58,60.03 56.05,77.89l2.2 -346.06c-50.35,18.19 -58.25,27.16 -58.25,94.51zm780.51 -229.35c-97.06,41.9 -45.6,106.41 -5.7,150.06 158.51,173.35 -9.17,306.38 -31.67,341.41 -35.69,55.57 -1.36,139.54 79.17,118.98 77.8,-19.86 179.6,-205.26 164.99,-339.55 -11.41,-104.81 -116.76,-309.77 -206.79,-270.9zm205.75 727.03c164.69,68.97 291.89,-247.77 307.05,-353.9 26.55,-185.78 -95.89,-421.26 -187.3,-487.26 -92.02,-66.45 -194.6,26.48 -90.77,131.27 55.79,56.3 105.29,121.53 126.53,220.66 59.59,278.03 -216.77,330.84 -155.51,489.23zm-871.83 -611.5l-1.02 377.15c79.29,28.17 66.2,13.48 127.08,58.54 81.37,60.22 279.88,229.97 350.17,239.5l3.36 -975.48c-126.62,29.56 -291.36,246.11 -479.59,300.29zm-356.62 -864.66c221.06,-38.73 821.41,356.01 879.66,430.78 77.12,-26.36 141.2,-79.42 206.56,-119.18 61.73,-37.54 616.24,-372.25 695.29,-281.52 24.32,61.99 13.81,1480.16 7.68,1666.02 -312.68,27 -707.89,49.83 -901.76,212.59 -161.51,-93.21 -138.05,-118.19 -384.42,-161.12 -175.16,-30.52 -330.13,-36.62 -509.75,-51.47 -6.61,-200.37 -13.78,-1590.5 6.74,-1696.1zm-611.6 205.26l0 2201.99c83.24,90.03 113.36,41.04 366.29,8.87 234.97,-29.88 614.51,-47 823.43,70.22 85.2,47.8 176.97,158.13 307.33,160.71 295.58,5.86 142.38,-345.08 1131.82,-235.3 67.53,7.49 138.41,19.5 206.9,33.48 103.79,21.18 107.36,25.36 169.88,-38.5l0 -2215.61c-105.96,-113.81 -161.55,-16.43 -440.83,25.93 0.85,-152.13 15.88,-296.09 -108.46,-345.34 -276.3,-109.42 -849.27,321.44 -960.22,371.03 -90.5,-57.51 -176.52,-127.12 -278.45,-187.85 -84.32,-50.25 -207.77,-119.58 -308.46,-159.13 -537.77,-211.3 -447.04,151.4 -473.29,329.76 -78.26,-17.18 -157.12,-29.89 -235.37,-48.95 -116.8,-28.44 -123.16,-52.19 -200.57,28.69z"/>
 </g>
</svg>
