<?xml version="1.0" encoding="UTF-8"?>
<!DOCTYPE svg PUBLIC "-//W3C//DTD SVG 1.1//EN" "http://www.w3.org/Graphics/SVG/1.1/DTD/svg11.dtd">
<!-- Creator: CorelDRAW 2017 -->
<svg xmlns="http://www.w3.org/2000/svg" xml:space="preserve" width="7.3658mm" height="7.3658mm" version="1.1" style="shape-rendering:geometricPrecision; text-rendering:geometricPrecision; image-rendering:optimizeQuality; fill-rule:evenodd; clip-rule:evenodd"
viewBox="0 0 736.58 736.58"
 xmlns:xlink="http://www.w3.org/1999/xlink">
 <defs>
  <style type="text/css">
   <![CDATA[
    .fil0 {fill:none}
    .fil1 {fill:black}
   ]]>
  </style>
 </defs>
 <g id="Capa_x0020_1">
  <metadata id="CorelCorpID_0Corel-Layer"/>
  <rect class="fil0" x="-0" y="-0" width="736.59" height="736.59"/>
  <path class="fil1" d="M247.83 617.38l0 0zm-35.79 -587.19l29.28 0c5.87,0.39 11.73,1 17.57,1.86 26.11,3.81 46.1,11.7 66.9,22.07 59.09,29.47 97.89,87.54 117.69,149.29 3.31,10.35 3.25,6.91 10.55,12.41 5.18,3.89 6.98,5.7 10.72,10.82 23.51,32.14 31.08,108.26 -0.58,137.73 -8.35,7.78 -28.62,13.51 -29.8,14.69 -5.36,5.36 1.13,20.26 -19.09,31.15 -26.88,14.49 -54.21,-5.98 -55.54,-35.44 -0.76,-16.77 -1.35,-31.11 -1.38,-48.88 -0.01,-9.38 -1.48,-13.83 -1.44,-24.4 0.13,-30.53 -21.52,-82.96 -5.55,-107.4 7.78,-11.91 17.84,-16.02 32.78,-16.02 -1.41,-6.06 -10.47,-19.28 -14.07,-24.7 -14.95,-22.5 -35.43,-42.35 -59.58,-55.23 -34.41,-18.36 -77.94,-27.63 -124.68,-16.56 -73.86,17.47 -133.15,81.66 -133.15,172.58 9.68,-0.81 30.52,-8.98 44.77,8.33 12.27,14.91 24.4,62.35 33.55,84.15 6.03,14.37 11.32,26.51 17.82,39.6 5.66,11.38 16.05,26.82 20.53,38.32 3.79,9.7 1.89,14.22 -0.63,23.21 -2.6,9.25 -2.69,14.34 -1.16,24.52 9.63,64.26 -32.83,81.63 -71.35,101.06 -11.79,5.94 -27.7,12.65 -36.71,20.7 -13.58,12.12 -35.86,36.65 -14.28,53.77 35.46,28.12 104.69,-33.89 150.95,-36.19 29.96,-1.5 31.15,4.04 51.67,5.75 -0.24,-10.67 -15.69,-39.89 -6.48,-50.98 6.51,-7.84 111.26,-50.54 129.88,-50.95 10.11,15.1 12.96,37.96 17.22,55.99 7.27,30.75 4.85,36.59 7.17,64.6 12.42,0 12.05,-2.12 19.78,-10.36 3.64,-3.89 3,-3.97 5.61,-8.75 32.48,-59.64 82.68,-5.91 120.97,13.38 37.95,19.1 36.72,-8.5 70.93,-30.98l39.73 -19.12c11.24,-3.74 34.37,-8.85 49.28,-6.56 12.36,1.9 36.62,6.72 34.99,23.24 -1.55,15.71 -14.94,25 -31.41,26.16 -22.2,1.56 -33.88,1.02 -54.74,-1.23 -19.47,-2.11 -42.42,35.95 -70.52,45.31 -19.25,6.41 -32.37,3.61 -48.5,-2.17 -21.48,-7.72 -56.74,-40.37 -74.41,-41.84 -1.42,6.09 -7.46,15.65 -11.04,20.54 -5.24,7.17 -9.03,10.42 -15.99,15.59 -22.29,16.53 -30.34,9.81 -47.59,8.38 -2.67,10.01 -23.66,17.02 -32.96,17.29 -47.47,1.37 -49.1,-50.39 -10.62,-60.9 11.42,-3.12 10.24,-1.76 20.62,-0.9 -1.98,-23.86 -6.62,-46.6 -11.48,-67.47 -11.44,6.05 -23.97,9.9 -36.69,14.97l-35.05 15.17c3.22,6.74 6.95,19.82 8.96,28.36 3.83,16.3 -3.76,19.6 4.12,30.27 20.06,27.18 -10.99,59.8 -40.16,61.97l-6.08 0c-11.09,-0.88 -21.34,-6.69 -27.69,-19.52 -8.87,-17.94 4.26,-29.83 10.62,-39.34 -28.19,-2.35 -31.52,-7.27 -64.11,9.07 -34.81,17.46 -78.68,42.16 -119.28,29.41 -17.34,-5.45 -34.11,-20.3 -40.29,-37.21 -1.48,-4.02 -2.47,-7.93 -3.04,-11.7l0 -15.84c2.47,-15.91 12.15,-29.14 23.1,-39.63 0.22,-0.2 0.54,-0.48 0.75,-0.68 11.13,-10.31 22.48,-17.85 35.79,-25.93 16.82,-10.21 33.83,-16.23 50.29,-27.21 29.83,-19.89 22.09,-25.03 22.09,-52.56 -13.24,-3.09 -22.52,-7.28 -30.14,-18.67 -11.35,2.65 -27.24,5.09 -39.18,0.44 -36.05,-14 -74.07,-95.86 -54.54,-132.97 9.3,-17.68 -6.7,-47.59 1.02,-100.91 4.38,-30.3 11.27,-52.75 24.12,-76.36 14.09,-25.88 32.34,-48.25 54.65,-67.35 34.33,-29.39 78.79,-46.26 124.51,-49.24z"/>
 </g>
</svg>
