<?xml version="1.0" encoding="UTF-8"?>
<!DOCTYPE svg PUBLIC "-//W3C//DTD SVG 1.1//EN" "http://www.w3.org/Graphics/SVG/1.1/DTD/svg11.dtd">
<!-- Creator: CorelDRAW 2017 -->
<svg xmlns="http://www.w3.org/2000/svg" xml:space="preserve" width="7.3658mm" height="7.3658mm" version="1.1" style="shape-rendering:geometricPrecision; text-rendering:geometricPrecision; image-rendering:optimizeQuality; fill-rule:evenodd; clip-rule:evenodd"
viewBox="0 0 736.58 736.58"
 xmlns:xlink="http://www.w3.org/1999/xlink">
 <defs>
  <style type="text/css">
   <![CDATA[
    .fil0 {fill:none}
    .fil1 {fill:black}
   ]]>
  </style>
 </defs>
 <g id="Capa_x0020_1">
  <metadata id="CorelCorpID_0Corel-Layer"/>
  <rect class="fil0" x="-0" y="-0" width="736.59" height="736.59"/>
  <rect class="fil0" x="-0" y="-0" width="736.59" height="736.59"/>
  <path class="fil1" d="M716 440.97c21.94,6.45 33.61,62.8 -14.44,63.65 -107.35,1.92 -134.78,11.54 -129.71,-41.06 2.03,-20.98 9.56,-23.72 31.37,-24.13 18,-0.34 102.34,-1.53 112.78,1.54zm-379.3 155.12c19.73,10 33.31,61.82 -19.82,62.25 -92.02,0.74 -136.01,13.5 -126,-44.12 3.51,-20.16 15.08,-20.95 34.7,-21.06 20.95,-0.12 98.44,-3.49 111.12,2.93zm-190.97 -0.87c15.42,6.06 19.21,23.14 14.74,43.18 -4,17.93 -16.88,19.92 -35.89,19.91 -85.15,-0.01 -134.88,14.85 -123.98,-44.44 3.66,-19.92 15.47,-20.72 36.17,-20.7 21.02,0.01 95.66,-3.19 108.96,2.05zm380.99 0c21.99,8.96 30.17,62.59 -17.53,63.16 -92.7,1.09 -133.92,13.18 -128.42,-40.32 2.14,-20.82 12.28,-24.56 33.63,-24.9 18.57,-0.29 102.12,-2.11 112.32,2.06zm143.16 -13.94c-73.23,-0.01 -97.67,9.59 -98.49,-30.27 -0.85,-40.7 19.07,-34.62 67.02,-34.62 62.2,0 108.08,-11.08 93.39,47.7 -5.86,23.45 -34.49,17.19 -61.92,17.19zm-145.4 -63.86c24.28,6.4 31.68,62.59 -11.82,64.02 -16.6,0.54 -103.27,1.61 -113.83,-1.12 -22.95,-5.96 -33.1,-62.54 12.07,-64.11 16.96,-0.59 103.56,-1.44 113.58,1.21zm193.44 78.52c18.72,9.36 33.46,62.08 -19.88,62.4 -19.68,0.12 -100.58,2.34 -112.47,-2.18 -17.14,-6.52 -31.77,-62.65 21.14,-63.01 20.42,-0.13 98.9,-3.37 111.21,2.79zm-572.08 76.26c17.41,6.93 36.46,62.76 -21.24,62.66 -86.65,-0.18 -132.78,15.18 -124.42,-42.9 2.73,-18.92 12.65,-21.71 33.05,-21.94 19.61,-0.22 101.4,-2.29 112.61,2.18zm-2.52 -231.7c22.85,6.09 34.62,63.75 -15.21,64.15 -17.92,0.15 -102.45,1.88 -113.07,-1.97 -19.49,-7.06 -29.55,-61.89 14.7,-63.28 16.39,-0.51 104.34,-1.35 113.58,1.1zm193.68 232.33c15.35,7.61 18.5,21.51 14.31,42.1 -3.56,17.5 -14.26,19.92 -34.36,19.94 -18.9,0.04 -101.33,2.01 -112.26,-2.05 -16.46,-6.12 -33,-62.51 20.87,-62.8 20.8,-0.12 98.77,-3.49 111.44,2.81zm364.35 -245.15l-97.91 -0.03c-27.22,-0.03 -31.81,-6.48 -31.78,-34.06 0.04,-42.61 32.85,-30.47 126.19,-30.45 26.54,0.02 34.85,2.87 35.33,30.43 0.46,26.62 -5.92,34.11 -31.83,34.11zm-558.05 89.74c22.89,6.12 34.81,63.45 -15.2,64.03 -16.74,0.19 -103.68,1.46 -112.89,-1.98 -19.87,-7.41 -29.51,-61.12 14.52,-63.22 15.64,-0.74 104.56,-1.25 113.57,1.17zm355.24 217.27c-71.67,0 -116.67,11.45 -118.05,-29.89 -1.41,-42.45 23.64,-34.73 83.08,-34.6 55.93,0.13 82.23,-8.02 79.28,37.86 -1.86,29.03 -17.93,26.63 -44.31,26.63zm219.53 -61.88c19.38,9.42 32.34,61.99 -20.04,62.06 -17.21,0.02 -102.73,1.51 -112.38,-2.06 -17.08,-6.31 -31.45,-62.47 21.06,-62.82 20.84,-0.13 98.44,-3.46 111.36,2.82z"/>
 </g>
</svg>
