<?xml version="1.0" encoding="UTF-8"?>
<!DOCTYPE svg PUBLIC "-//W3C//DTD SVG 1.1//EN" "http://www.w3.org/Graphics/SVG/1.1/DTD/svg11.dtd">
<!-- Creator: CorelDRAW 2017 -->
<svg xmlns="http://www.w3.org/2000/svg" xml:space="preserve" width="7.3658mm" height="7.3658mm" version="1.1" style="shape-rendering:geometricPrecision; text-rendering:geometricPrecision; image-rendering:optimizeQuality; fill-rule:evenodd; clip-rule:evenodd"
viewBox="0 0 736.58 736.58"
 xmlns:xlink="http://www.w3.org/1999/xlink">
 <defs>
  <style type="text/css">
   <![CDATA[
    .fil0 {fill:none}
    .fil1 {fill:black}
   ]]>
  </style>
 </defs>
 <g id="Capa_x0020_1">
  <metadata id="CorelCorpID_0Corel-Layer"/>
  <rect class="fil0" x="-0" y="-0" width="736.59" height="736.59"/>
  <rect class="fil0" x="-0" y="-0" width="736.59" height="736.59"/>
  <rect class="fil0" x="-0" y="-0" width="736.59" height="736.59"/>
  <path class="fil1" d="M735.12 401.75c-1.93,-9.66 -5.7,-18.99 -10.41,-26.35 -0.54,-0.86 -0.83,-1.5 -1.49,-2.29 -1.69,-2 0,-0.56 -1.78,-1.63 -2.8,-9.09 -21.33,-22.43 -28,-25.98 -11.33,-6.02 -23.92,-10.21 -39.77,-10.31 4.2,24.46 1.53,38.74 -0.26,64.67l-10.64 156.95c-0.92,13.02 -2.55,18.52 -6.05,28.46 6.34,2.24 23.49,0.21 31.08,-1.65 26.97,-6.64 49.32,-27 58.12,-51.64 5.78,-16.19 6.22,-35.94 7.25,-55.26 0.46,-8.62 4.7,-54.26 3.21,-58.26 1.42,-3.45 -0.61,-13.17 -1.26,-16.71zm-26.56 -17.36c-5.29,3.62 -3.94,5.55 -4.36,12.32 -0.29,4.53 -1.32,26.64 -0.14,29.73 1.65,4.3 6.77,6.89 12.26,3.29 4.45,-2.92 3.6,-19.35 4,-27.52 0.19,-3.9 0.97,-11.05 -0.67,-14.75 -1.76,-3.92 -6.88,-5.96 -11.09,-3.07zm-85.74 -147.05c2.24,5.53 13.9,24.02 19.92,37.8 7.99,18.33 9.85,26.67 15.19,39.85 0.61,1.52 -0.19,-0.18 0.57,1.3 2.09,4.1 8.53,1.73 19.95,5.02 6.19,1.78 11.94,4.51 16.86,5.83 -2.61,-16.99 -14.21,-45.92 -20.81,-61.42 -3.93,-9.25 -8.66,-18.25 -13.19,-26.84 -4.69,-8.87 -10.69,-16.83 -14.77,-24.72 -4.87,2.51 -17.38,18.38 -23.72,23.18zm-600.7 204.48c5.36,-2.75 9.54,-6.3 15.45,-9.22 5.04,-2.5 11.86,-5.22 16.22,-8.12 -1.37,-17.68 -0.47,-50.11 2.69,-68 1.16,-6.61 3.18,-14.64 3.83,-20.73 -2.3,-1.94 -27.2,-12.32 -30.14,-12.42 -9.85,23 -11.5,90.59 -8.05,118.49zm249.64 -374.58c-96.95,25.94 -179.7,93.46 -223.74,172.63 -11.42,20.54 -15.54,28.54 -24.26,50.56 -4.85,12.26 -3,9.73 21.03,19.75l31.47 13.1c14.23,5.81 9.54,4.22 19.95,-19.15 43.36,-97.42 136.28,-168.62 252.74,-176.61 74.25,-5.1 139.16,20.31 182.72,49.37 22.2,14.81 41.03,31.96 58.97,52.15 9.88,11.13 3.99,13.13 40.79,-24.78 19.02,-19.6 21.16,-15.34 2.45,-34.76 -17.4,-18.09 -31.44,-29.95 -50.57,-44.39 -25.59,-19.3 -67.62,-41.01 -100.42,-51.55 -62.82,-20.19 -133.49,-27.09 -211.13,-6.32zm9.14 7.79c-9.48,2.47 -27.73,4.72 -27.54,14.66 0.14,6.7 5.44,9.52 11.59,7.94 5.72,-1.48 11.39,-3.48 17.28,-5.01 23.75,-6.21 49.32,-9.68 73.24,-10.8 78.81,-3.67 128.17,20.43 134.96,20.95 5.96,0.46 9.92,-4.05 9.22,-9.48 -1.01,-7.83 -13.6,-9.99 -23.79,-13.4 -57.23,-19.08 -134.16,-20.69 -194.96,-4.86zm287.12 231.56c-16.17,6.33 -24.19,16.72 -29.35,28.91 -4.44,10.48 -4.75,31.98 -5.55,44.82 -1.91,30.59 -3.43,62.33 -6.28,92.9 -1.42,15.29 -1.87,30.92 -3.09,46.45 -0.95,12.17 -3.79,35.64 -1.47,47.47 9.98,50.71 79.7,56.91 99.28,9.51 5.26,-12.73 4.26,-29.69 5.6,-44.7 2.72,-30.79 4.51,-62.05 6.32,-92.97 1.03,-17.69 7.17,-81.86 4.7,-94.27 -6.09,-30.64 -38.37,-50.58 -70.16,-38.12zm-398.13 360.26c-1.76,-3.14 -5.94,-7.01 -8.65,-10.81 -5.22,-7.31 -16.64,-32.89 -20.88,-41.71 -9.1,-18.93 -18.22,-37.82 -27.01,-56.93 -8.65,-18.86 -18.04,-37.26 -26.73,-56.21 -8.99,-19.63 -21.01,-38.51 -24.48,-61.11 -28.15,9.68 -52.9,31.72 -59.85,60.88 -9.14,38.33 7.73,62.6 23.04,95.25 15.19,32.42 24.51,58.96 50.97,74.03 11.36,6.47 25.54,11.77 42.8,11.71 23.05,-0.1 32.46,-7.51 50.79,-15.1zm-119.3 -171.6c0.15,0.15 0.36,0.34 0.45,0.47l1.21 1.77c0.98,1.8 0.11,0.08 0.96,2.51 2.41,3.9 3.52,8.14 7.03,9.78 5.31,2.46 10.59,-1.61 11.18,-5.6 0.64,-4.31 -14.46,-35.19 -17.58,-37.31 -3.85,-2.61 -9.17,-1.17 -11.45,2.52 -4.52,7.29 6.92,18.27 8.2,25.86zm58.17 -112.99c-28.5,9.79 -45.02,41.17 -29.33,74.23l59.94 126.12c6.66,13.97 13.21,28.42 19.97,41.94 8.81,17.6 11.49,25.93 25.3,34.33 11.09,6.76 26.98,11.12 44.45,5.06 27.68,-9.6 45.06,-41.67 29.1,-73.88 -13.76,-27.78 -27.1,-56.31 -40,-84.12 -13,-28 -27,-56.02 -40.01,-84.05 -8.19,-17.68 -12.31,-26.07 -25.26,-34.28 -10.56,-6.7 -27.14,-11.2 -44.16,-5.35zm12.31 8.41c-13.3,7.93 18.31,30.18 31.43,22.88 13.42,-7.46 -18.08,-30.84 -31.43,-22.88zm475.98 -73.17c-11.77,7.71 13.75,39.34 24.95,31.67 10.38,-7.1 -13.55,-39.13 -24.95,-31.67z"/>
 </g>
</svg>
