<!-- Generated by IcoMoon.io -->
<svg version="1.1" xmlns="http://www.w3.org/2000/svg" width="32" height="32" viewBox="0 0 32 32">
<title>avatar-hombre</title>
<path d="M19.706 25.599h3.874v0.786h-3.874v-0.786zM12.126 19.816c0.798-0.186 1.5-0.95 1.516-1.684 0.152 0.013 0.699 0.33 1.050 0.467 0.289 0.113 0.948 0.263 1.303 0.252 0.67-0.020 1.258-0.192 1.822-0.475 0.178-0.089 0.35-0.228 0.542-0.244 0.012 0.533 0.452 1.156 0.921 1.437 0.204 0.123 0.345 0.153 0.539 0.247-0.071 0.85-1.557 2.039-2.696 2.134l-0.81 2.896c-0.080 0.278-0.25 0.691-0.257 0.979h-0.112c-0.006-0.287-0.177-0.701-0.257-0.979-0.102-0.355-0.171-0.608-0.273-0.963-0.109-0.385-0.513-1.641-0.537-1.933-0.815-0.068-1.83-0.686-2.303-1.346-0.192-0.269-0.29-0.489-0.448-0.787zM15.158 8.024c-0.031 0.374-0.491 0.933-0.562 1.235 0.72 0 1.837-0.41 2.399-0.633 0.362-0.144 0.703-0.299 1.045-0.471 0.671-0.337 0.902-0.519 1.798-0.376 0.326 0.053 0.33 0.053 0.468 0.317 0.456 0.875 0.466 1.561 0.466 2.566 0.001 0.255 0.018 0.521-0.014 0.772-0.022 0.165-0.093 0.491-0.098 0.688l0.147-0.191c0.171-0.24 0.337-0.53 0.584-0.596 0.303 0.632-0.010 1.692-0.675 2.077-0.437 0.253-0.218-0.167-0.649 0.868-0.412 0.99-1.080 1.967-1.893 2.654-2.706 2.291-5.361-0.3-6.439-3.131-0.22-0.578-0.698-0.152-1.104-1.197-0.151-0.388-0.197-0.904-0.021-1.27 0.297 0.079 0.493 0.514 0.73 0.786-0.007-0.35-0.115-0.418-0.112-1.179 0.003-0.81-0.090-1.64 0.462-2.233 0.219-0.234 0.48-0.437 0.829-0.518-0.207 0.431-0.107 1.282 0 1.741 0.437-0.502 0.464-0.594 1.179-1.067 0.3-0.199 1.116-0.762 1.46-0.842zM15.158 8.024v0zM15.888 2.634v0zM15.888 2.634l-1.516-0.17c-0.211 0-0.251 0.042-0.506 0.057-1.29 0.077-2.231 0.642-3.145 1.348-0.255 0.197-0.982 0.92-1.066 1.236 0.265-0.178 0.569-0.337 1.011-0.337-0.165 0.246-0.264 0.357-0.413 0.655-0.349 0.702-0.56 1.805-0.598 2.602-0.033 0.697-0.054 1.323-0.057 2.079-0.002 0.358 0.114 0.681 0.019 0.971-0.169 0.518-0.14 0.288-0.132 0.996 0.009 0.775 0.367 1.416 0.821 1.874 0.008 0.008 0.020 0.019 0.028 0.027l0.379 0.296c0.2 0.151 0.195 0.238 0.314 0.528 0.182 0.442 0.51 1.009 0.771 1.363 0.239 0.326 0.688 0.976 1.003 1.187-0.086 0.18-0.119 0.566-0.208 0.803-0.279 0.743-1.025 0.793-1.989 1.1-1.892 0.603-4.028 1.202-5.206 2.992-0.736 1.118-0.948 2.689-1.074 4.037-0.050 0.537 0.054 0.616 0.862 1.153l1.326 0.751c2.098 0.933 4.19 1.434 6.564 1.634l1.914 0.107c0.604-0.001 0.731 0.061 1.010 0.061l3.835-0.269c2.658-0.35 5.442-1.049 7.525-2.694 0.289-0.228 0.345-0.169 0.323-0.692-0.056-1.326-0.452-3.135-1.080-4.089-0.711-1.081-1.771-1.695-2.912-2.198-1.045-0.461-2-0.676-3.067-1.032-0.157-0.052-0.246-0.096-0.365-0.14-0.142-0.052-0.233-0.069-0.368-0.137-0.258-0.128-0.355-0.292-0.467-0.544-0.116-0.262-0.122-0.632-0.223-0.844 0.525-0.351 1.534-1.952 1.789-2.591 0.196-0.49 0.133-0.35 0.465-0.602 0.893-0.679 1.278-2.083 0.998-2.922-0.177-0.528-0.051-1.086-0.051-2.027 0-2.599-0.683-4.782-2.566-6.193-0.395-0.296-1.429-0.924-2.038-0.938l0.162 0.175c0.155 0.153 0.342 0.34 0.4 0.555-0.949-0.636-2.122-0.786-3.256-0.786 0.104 0.141 0.22 0.125 0.411 0.263 0.162 0.117 0.273 0.202 0.375 0.355z"></path>
</svg>
