<!-- Generated by IcoMoon.io -->
<svg version="1.1" xmlns="http://www.w3.org/2000/svg" width="32" height="32" viewBox="0 0 32 32">
<title>avatar-hombre-circulo</title>
<path d="M16.043 5.432c0.007-0.009 0.015-0.023 0.019-0.031l0.094-0.206c0.052-0.116 0.043-0.115 0.136-0.192 0.111-0.092 0.269-0.164 0.459-0.178 0.104 0.364 0.405 0.655 0.634 0.821 0.68 0.495 1.688 0.208 2.692 1.61 0.763 1.066 0.921 1.999 0.659 3.431-0.239 1.311-0.223 0.519-0.042 1.080 0.166 0.511-0.334 1.952-0.57 2.282-0.257 0.361-0.081 0.065-0.269 0.476-0.276 0.603-0.777 1.156-0.825 1.292-0.149 0.409 0.178 0.152-0.269 1.172-0.333 0.759-0.838 1.568-1.323 2.236-0.1 0.14-0.233 0.274-0.299 0.437 0.675-0.178 0.934 0.035 1.308 0.397 0.316 0.308 0.524 0.621 0.793 1.024 0.186-0.384 0.478-2.861 0.49-3.434 0.17 0.051 0.397 0.215 0.57 0.309 2.849 1.552 3.961 0.512 5.337 4.095 0.659 1.717 0.515 1.415-0.232 2.327-0.13 0.158-0.285 0.299-0.425 0.445-0.522 0.542-0.755 0.738-1.36 1.205-2.086 1.614-4.822 2.573-7.66 2.565-3.687-0.010-7.208-1.691-9.418-4.283-0.474-0.556-0.686-0.649-0.554-1.102s0.261-0.854 0.424-1.276c0.94-2.433 1.543-2.475 3.591-3.235 0.415-0.154 0.819-0.319 1.205-0.492l1.119-0.598c0.002 0.59 0.298 3.137 0.489 3.531 0.151-0.134 0.314-0.509 0.788-0.992 0.339-0.346 0.609-0.566 1.27-0.442-0.066-0.188-0.209-0.306-0.307-0.444l-0.813-1.297c-0.175-0.313-0.317-0.608-0.467-0.941-0.427-0.951-0.111-0.689-0.246-1.121-0.040-0.125-0.398-0.651-0.518-0.889-0.151-0.299-0.269-0.717-0.433-0.971-0.241-0.373-0.689-1.622-0.596-2.17 0.054-0.319 0.207-0.308 0.259-0.443l-0.175-1.878c-0.027-0.994 0.125-1.534 0.578-2.19 0.553-0.799 1.425-1.425 2.326-1.851 0.737-0.349 0.663-0.125 1.021 0.002 0.28-0.172 0.195-0.202 0.538-0.084zM1.75 16.796c0.255 4.004 1.913 7.145 4.573 9.682 4.073 3.884 10.528 5.033 16.090 2.276 1.636-0.81 2.855-1.817 4.055-3.063 2.12-2.201 4.040-6.037 3.786-10.455-0.248-4.315-2.283-7.969-5.547-10.54-0.972-0.764-2.202-1.459-3.397-1.943-1.764-0.713-3.917-1.126-6.077-1.001-2.197 0.127-3.963 0.68-5.652 1.504-1.3 0.635-3.107 1.961-4.052 3.064-0.143 0.167-0.279 0.308-0.432 0.479-0.128 0.143-0.266 0.332-0.402 0.507-2.025 2.618-3.166 6.027-2.945 9.489z"></path>
</svg>
