<!-- Generated by IcoMoon.io -->
<svg version="1.1" xmlns="http://www.w3.org/2000/svg" width="32" height="32" viewBox="0 0 32 32">
<title>avatar-hombres-gay-icon-sombras-siluetas</title>
<path fill="#000" d="M7.625 31.469c0 0.056 0.102 0.107 0.073 0s0.12-0.001-0.022-0.014c-0.060-0.005-0.052-0.082-0.052 0.014z"></path>
<path fill="#0a0519" d="M1.661 13.829c-0.199 1.446-0.542 2.764-0.678 4.325-0.431 4.944 1.388 3.549 1.287 2.473-0.068-0.719-0.044 0.065-0.227-0.788-0.219-1.018 0.177-3.62 0.936-4.32 1.216 1.526-0.371 5.718-0.6 7.739-0.156 1.384-0.28 2.718-0.504 4.088-0.486 2.974-0.909 1.764-1.092 3.050 3.115 1.549 2.443-6.145 3.941-7.442 0.082-0.731 0.298-1.003 0.788-1.668 0.631 0.554 0.513 1.010 0.586 2.16 0.075 1.59-0.081 3.135-0.018 4.75 0.076 1.933 0.293 2.279 1.868 2.78 0.179-0.465 0.211-0.569 0.056-1.078-0.781-1.065-0.417-2.46-0.204-3.809 0.255-1.613 0.133-3.193 0.105-4.821-0.084-2.279-0.869-2.513-0.581-5.102 0.559 0.574 0.636 1.523 0.945 2.562 0.775 2.596-0.384 2.17 0.698 2.827 0.823-0.397 0.598-0.313 0.484-1.659-0.048-0.57-0.101-1.208-0.168-1.775-0.13-1.094-0.505-2.085-0.45-3.157-0.984-1.408 0.866-1.565-2.339-3.35 0.062-0.907 0.273-1.101 0.455-1.762 0.105-0.38 0.117-0.566 0.249-0.937 0.214-0.601 0.097-0.068 0.365-0.78-4.28-1.871-2.772 2.958-2.768 3.178-2.088 0.674-2.264 0.758-3.136 2.515z"></path>
<path fill="#0a0519" d="M9.686 15.275l0.849-1.293c0.637 0.555 1.186 2.655 0.243 3.675-0.474-0.568-1.008-1.437-1.093-2.382zM14.101 10.353c0.321-0.327 0.656-0.537 0.901-0.989 0.437-0.807-0.018-0.723 0.664-1.446l0.817 0.923c-0.17 0.318-1.309 1.807-2.381 1.512zM8.584 14.072c0.045 2.146 0.371 2.818 1.475 4.226 0.586 0.748 0.651 0.73 0.871 1.95 0.127 0.702 0.361 1.524 0.361 2.259l0.187 0.838c0.038 0.259 0.043 0.542 0.090 0.854 0.161 1.070 0.623 2.601 0.356 3.707-0.208 0.862-0.735 0.88-0.165 1.396 1.567 0.933 1.934-2.221 1.775-3.661-0.264-2.373-0.862-2.839-0.592-5.662 0.17 0.11 0.395 0.017 0.818 0.902 0.522 1.090 0.818 4.975 1.377 6.625 0.349 1.029 0.837 1.488 1.050 2.025l1.041 0.255 0.547-0.126c-0.158-1.293-0.838-1.015-1.147-2.71-0.21-1.149-0.245-2.359-0.45-3.578-0.353-3.125-0.895-6.635-0.462-9.789-1.314-1.777 2.101-2.692 2.415-4.76-0.952-1.39-4.79-3.851-5.441-0.18-0.419 2.367-0.25 1.5-2.067 2.573-1.050 0.62-1.078 2.075-2.038 2.857z"></path>
<path fill="#0a0519" d="M23.578 13.204c-0.219 1.841-0.314 2.84 0.41 4.334 0.637 1.315 0.305 2.819 0.224 4.301-0.321 3.060 0.166 6.451-1.585 8.328l1.562-0.11c0.676-4.307 1.627-4.904 2.262-7.33l0.476-1.14c1.017 2.017-0.772 1.18 1.567 2.452 0.29 3.339 0.131 6.213 2.211 6.389 0.128-1.723-1.165-0.61-0.901-3.027 0.183-1.671 0.211-2.841 0.11-4.521-0.034-2.898-1.989-6.552-0.453-9.213 0.594 0.28 0.918 0.73 1.799 0.349 0.246-1.575-0.691-2.017-1.476-2.74-1.608-1.48-0.789-0.875-3.373-0.983-0.269-1.531-0.413-1.664-1.098-2.574-1.236-0.023-1.233 0.114-2.009 0.648 0.145 1.519 1.193 2.049 1.865 2.989-0.823 1.043-1.027 0.305-1.591 1.846z"></path>
<path fill="#0a0519" d="M22.138 18.844c-0.596-0.614-0.677-2.747-0.441-3.504l0.211-0.285c0.315 0.678 0.601 3.169 0.23 3.789zM17.535 19.028c-0.377-0.76-0.082-1.085 0.072-2.134 0.049-0.331 0.051-0.695 0.093-0.992l0.291-0.84c0.486 1.25-0.168 2.809-0.456 3.966zM16.869 20.455c0.648 0.65 1.404 1.298 1.278 2.668l0.72 3.469c0.47 3.096-0.283 2.251-0.3 3.541 1.961 0.472 2.101-2.023 1.869-3.768-0.199-1.495-1.152-3.584-0.371-5.038 1.459 1.334 1.389 5.083 1.858 6.83 0.334 1.244 0.807 1.181 0.907 1.85 0.976 0.063 0.781-0.121 0.619-1.235-0.085-0.582-0.223-1.239-0.282-1.867-0.128-1.361-0.175-2.438-0.434-3.772-0.040-0.786-0.238-1.342-0.094-2.034 0.171-0.825 0.356-0.463 0.424-1.666 0.084-1.47-0.077-3.025 0.1-4.451-0.473-0.708-0.163-1.772-0.597-2.677-0.403-0.838-1.27-0.894-2.133-1.409-0.018-1.936 1.231-3.478-1.298-3.427-1.156 1.57-0.417 1.633-0.243 3.64-1.849 0.989-1.957 0.916-2.117 3.47-0.105 1.673-0.176 4.259 0.092 5.875z"></path>
</svg>
