<!-- Generated by IcoMoon.io -->
<svg version="1.1" xmlns="http://www.w3.org/2000/svg" width="32" height="32" viewBox="0 0 32 32">
<title>avatar-fuera-del-closet</title>
<path d="M15.743 10.422c-4.462 0.995-3.65-2.95-2.476-3.636 2.165-1.265 4.323 0.878 2.476 3.636zM4.775 27.945l11.57 0.029c-0.706-1.738-3.33-7.578-4.303-8.333-0.148 2.366 0.18 3.37-1.153 4.701-3.661 3.654-5.167 1.196-3.296-0.539 3.758-3.485 0.131 1.858 3.102-9.856-3.109 1.201-1.651 4.997-4.441 4.128-0.651-2.064 2.053-5.476 3.949-6.105 1.353-0.449 8.459-0.219 10.406-0.219-0.018-6.419-0.287-2.846 0.726-7.949-2.939-0.234-2.282-0.826-4.133-1.401-1.28-0.397-1.502-0.094-2.412-0.335-1.109-0.294-0.419-0.588-2.138-0.951-1.656 0.342-0.984 0.558-1.854 0.864-1.083 0.38-1.036 0.028-2.365 0.335-1.79 0.413-1.482 1.227-4.457 1.476 1.594 9.047 0.021 15.53 0.799 24.155z"></path>
<path d="M21.478 27.984c2.016 0.852 4.774 3.268 6.547 2.853-0.852-3.979-0.175-16.215-0.237-21.158-0.913-0.621-4.966-3.072-6.057-3.378-0.068 9.699 0.549 2.974 1.921 6.537-1.157 2.141-1.071-0.355-1.943 1.56-0.002 3.335 0.455 10.811-0.23 13.586z"></path>
<path d="M18.684 27.838l1.978 0.144-0.077-14.281-4.77 0.005c-1.384 3.578-1.846 3.737 0.003 7.29 1.062 2.042 2.78 4.788 2.866 6.843z"></path>
</svg>
