<!-- Generated by IcoMoon.io -->
<svg version="1.1" xmlns="http://www.w3.org/2000/svg" width="32" height="32" viewBox="0 0 32 32">
<title>b-google-my-business</title>
<path fill="#e1e1e1" d="M2.819 26.387c0 2.234 0.113 2.848 2.423 2.842h15.708c1.718 0 3.593 0.056 5.18 0 2.006-0.071 3.047 0.052 3.052-2.172 0.003-1.146-0.078-10.206 0.040-10.451-0.383 0.032-0.7 0.209-1.254 0.209-1.053 0-2.139-0.417-2.79-0.845-1.077-0.706-1.189-1.471-1.554-1.998-0.325 1.397-1.906 2.633-3.718 2.633-1.811 0-3.417-1.215-3.718-2.508-0.18 0.132-0.338 0.846-0.536 1.094-0.182 0.229-0.629 0.506-0.88 0.708-0.639 0.515-1.152 0.873-2.302 0.873-1.47 0-1.956-0.026-3.012-0.873-0.325-0.26-0.58-0.454-0.841-0.789-0.301-0.385-0.361-0.748-0.574-1.055-0.232 0.997-2.285 2.766-3.64 2.586l-1.587-0.254 0.005 9.998zM5.431 2.144h1.837c1.183 0.013 2.349 0.042 3.572 0.042h9.441c1.886 0 3.652-0.042 5.514-0.042 2.114 0 3.217 0.108 3.867 1.648 0.254 0.601 2.274 8.282 2.274 8.802v0.46c0 1.796-2.004 2.686-2.102 3.288-0.179 1.088-0.028 4.033-0.028 5.364 0 1.788 0.035 3.61 0.001 5.393-0.033 1.735-0.861 2.757-2.633 2.757h-22.099c-2.606 0-2.883-1.077-2.883-3.636-0.016-2.535 0.042-5.029 0.084-7.566 0.010-0.582-0.003-1.331-0.052-1.913-0.074-0.894-0.226-0.631-0.808-1.114-0.524-0.435-1.354-1.588-1.354-2.49v-0.418c0-1.286 0.655-3.278 0.97-4.379 0.375-1.308 0.69-2.942 1.133-4.217 0.529-1.519 1.333-1.943 3.265-1.979zM16.23 2.813c0 2.761 0.084 5.483 0.084 8.234 0 1.961-0.032 2.16 0.754 3.426 0.499 0.803 1.328 1.507 2.63 1.507 1.582 0 2.42-0.482 3.095-1.668 0.779-1.367 0.731-1.77 0.497-3.641-0.163-1.306-0.355-2.607-0.551-3.921-0.169-1.138-0.494-2.697-0.494-3.937h-6.015zM4.532 15.979c1.12 0 2.288-0.988 2.724-1.705 0.671-1.105 0.562-2.146 0.767-3.663 0.179-1.328 0.386-2.527 0.538-3.892 0.144-1.294 0.431-2.789 0.524-3.897l-3.467-0.050c-2.329 0-2.588 0.514-3.12 2.354-0.421 1.46-0.739 2.908-1.146 4.329-0.356 1.244-1.011 3.169-0.429 4.493 0.616 1.401 1.767 2.032 3.608 2.032z"></path>
<path fill="#e1e1e1" d="M23.457 20.786h-0.209c-1.212 0-2.423 1.257-2.423 2.759 0 2.515 2.836 3.129 4.251 2.163 0.296-0.202 0.679-0.956 0.679-1.369 0-0.382-1.693-0.293-2.089-0.293-0.066-0.589-0.067-0.47 0.005-1.045 0.932-0.107 2.122-0.044 3.087-0.042 0.293 0 0.355 4.138-3.259 4.138-1.845 0-3.635-1.594-3.635-3.386v-0.46c0-1.871 1.784-3.344 3.76-3.344 0.574 0 2.177 0.375 1.829 0.859-0.692 0.962-0.929 0.019-1.996 0.019zM19.237 23.378v0.334c0 1.935 1.995 3.971 3.885 3.971h0.627c1.412 0 2.647-0.9 3.173-1.8 0.324-0.556 0.438-1.171 0.519-1.988 0.093-0.939 0.263-1.563-0.81-1.563-0.601 0-1.837-0.038-2.32 0.018-1.077 0.123-1.315-0.246-1.315 1.153 0 0.561 0.022 0.972 0.477 1.111 0.257 0.078 1.213 0.19 1.487 0.059-0.062 0.743-0.803 0.836-1.504 0.836-1.307 0-2.006-0.826-2.006-2.131 0-0.962 0.912-1.965 1.838-1.965 0.987 0 1.172 0.502 1.755 0.502 0.186 0 1.211-1.023 1.211-1.337 0-0.601-1.538-1.254-2.339-1.254h-0.585c-2.181 0-4.094 1.888-4.094 4.055z"></path>
</svg>
