<!-- Generated by IcoMoon.io -->
<svg version="1.1" xmlns="http://www.w3.org/2000/svg" width="32" height="32" viewBox="0 0 32 32">
<title>b-grindr</title>
<path fill="#e1e1e1" d="M25.384 18.601c-1.692 3.979-7.905 3.481-7.683-0.669 0.105-1.951 2.622-2.41 4.311-2.6 2.442-0.274 4.529 0.549 3.372 3.269zM6.462 18.154c-0.706-2.741 1.533-3.207 3.814-2.808 7.248 1.268 3.479 6.464 0.14 5.904-1.717-0.287-3.602-1.727-3.954-3.096zM26.041 2.064c-6.566 1.185-12.936 0.968-19.473 0.053-2.154-0.302-3.76 0.845-3.825 3.090-0.174 6.054 0.851 12.579 2.639 18.155 0.887 2.764 0.785 2.432 2.979 3.941 5.304 3.65 10.026 3.466 15.36-0.027 2.149-1.407 2.145-1.391 2.941-3.991 1.888-6.16 2.649-11.515 2.611-18.076-0.013-2.242-1.901-3.385-3.233-3.145z"></path>
</svg>
