<!-- Generated by IcoMoon.io -->
<svg version="1.1" xmlns="http://www.w3.org/2000/svg" width="32" height="32" viewBox="0 0 32 32">
<title>b-hornet</title>
<path fill="#e1e1e1" d="M19.020 20.364c0.494-0.521 2.453-2.999 3.004-3.66 0.306-0.368 2.957-3.583 2.993-3.695-0.164-0.105-4.63-0.927-5.257-1.051-0.641-0.127-2.135-0.554-2.677-0.297-0.376 0.178-1.245 1.238-1.572 1.602-0.128 0.144-0.259 0.269-0.384 0.409-0.491 0.552-0.838 0.719-0.567 1.623 0.105 0.349 0.971 3.497 1.13 3.633l2.205 0.972c0.247 0.107 0.892 0.42 1.124 0.464zM27.654 14.77c0.17-0.113 0.688-0.858 0.826-1.067 0.205-0.309 0.247-0.273 0.143-0.698-0.044-0.179-0.127-0.627-0.215-0.748-0.134 0.078-0.172 0.432-0.212 0.576-0.132 0.468-0.488 1.607-0.542 1.938zM14.368 29.89c0.136 0.097 1.68 0.44 2.001 0.515 1.837 0.426 2.735 0.148 4.584-0.101 0.747-0.1 1.516-0.214 2.258-0.302-0.101-0.179-0.955-0.545-1.191-0.664l-3.649-1.835c-0.219-0.112-0.399-0.203-0.598-0.302-0.232-0.115-0.418-0.286-0.649-0.070-0.313 0.293-0.597 0.62-0.903 0.927-0.313 0.314-0.598 0.608-0.915 0.915-0.185 0.18-0.832 0.77-0.94 0.917zM24.193 20.364c0.881-0.027 1.667-0.688 2.015-1.098 0.438-0.517 0.854-1.176 1.133-1.973 0.3-0.856 0.514-1.258 0.104-1.732-0.263-0.304-1.704-2.039-1.867-2.078-0.127 0.080-1.444 1.749-1.716 2.091-0.097 0.123-0.176 0.219-0.277 0.345-0.088 0.11-0.221 0.254-0.292 0.363-0.157 0.242 0.038 0.777 0.105 1.043l0.794 3.040zM13.947 29.534c0.341-0.337 1.754-2.043 2.159-2.491l2.11-2.528-7.686-0.875c-0.335-0.037-0.826-0.12-1.143-0.113 0.070 0.163 0.94 1.276 1.123 1.516 0.384 0.505 0.763 1.007 1.145 1.512 0.235 0.312 2.185 2.938 2.292 2.979zM9.364 22.624c0.339 0.039 8.679 1.109 8.966 1.083 0.059-0.184 0.092-0.728 0.117-0.959 0.034-0.313 0.073-0.625 0.117-0.941 0.119-0.848 0.117-0.677-0.899-1.196-0.499-0.255-0.944-0.48-1.443-0.734-0.476-0.242-0.932-0.534-1.562-0.612-1.457-0.18-2.492 0.529-3.15 1.179-0.391 0.386-0.717 0.712-1.093 1.082-0.153 0.151-1.020 0.977-1.054 1.097zM20.262 11.415c-0.029-0.206-0.345-0.822-0.441-1.036l-1.4-3.053c-0.551-1.179-0.355-0.905-1.527-1.441-1.955-0.893-4.241-1.848-6.23-2.709-0.688-0.297-1.385-0.604-2.071-0.899l-2.107-0.902c0.057 0.18 1.109 1.585 1.301 1.847 0.442 0.606 0.89 1.229 1.331 1.843 0.913 1.271 0.57 1.133 1.854 0.722 0.395-0.127 0.797-0.262 1.194-0.391 0.426-0.139 0.547 0.084 1.030 0.459l5.285 4.173c0.312 0.243 1.58 1.273 1.781 1.388zM3.322 8.587l15.71 2.653c-0.040-0.171-0.14-0.208-0.372-0.391l-4.531-3.58c-0.286-0.224-0.543-0.432-0.829-0.656-0.144-0.113-0.271-0.213-0.405-0.32-0.107-0.085-0.322-0.274-0.432-0.327-0.26-0.124-0.89 0.124-1.168 0.208l-6.87 2.038c-0.194 0.059-1.032 0.242-1.103 0.373z"></path>
</svg>
