<!-- Generated by IcoMoon.io -->
<svg version="1.1" xmlns="http://www.w3.org/2000/svg" width="32" height="32" viewBox="0 0 32 32">
<title>b-scruff</title>
<path fill="#e1e1e1" d="M15.861 12.821l0.26-0.31-0.562-0.050c-0.265 0.165-0.107 0.167-0.108 0.254l0.41 0.107z"></path>
<path fill="#e1e1e1" d="M16.451 13.16l0.002-0.382-0.386 0.021c0.058 0.068 0.095 0.219 0.124 0.244 0.081 0.069-0.046 0.053 0.26 0.117z"></path>
<path fill="#e1e1e1" d="M4.362 24.225l-0.008 0.341c0.711-0.009 0.262-0.119 0.821-0.136l0.253-0.212c-0.239-0.009-0.151-0.010-0.365 0.017-0.042 0.005-0.156 0.038-0.196 0.043-0.358 0.038-0.148 0.050-0.505-0.053z"></path>
<path fill="#e1e1e1" d="M11.688 5.143l0.258-0.044c0.001-0.039 0.003-0.208-0.006-0.236-0.126-0.381-0.001-0.084-0.145-0.29-0.306 0.211-0.18-0.097-0.171 0.254 0.011 0.381 0.206-0.29 0.064 0.316z"></path>
<path fill="#e1e1e1" d="M17 20.002c0.194 0.1 0.392 0.137 0.627 0.22-0.119-0.238-0.165-0.167-0.355-0.333-0.022-0.019-0.097-0.097-0.121-0.128-0.2 0.136-0.058-0.039-0.151 0.241z"></path>
<path fill="#e1e1e1" d="M14.496 4.696l0.085-0.002c0.206-0.653 0.107-0.174-0.108-0.363-0.349 0.259-0.301 0.141 0.023 0.365z"></path>
<path fill="#e1e1e1" d="M15.067 4.634c0.049-0.086 0.127 0.137 0.089-0.236-0.025-0.246-0.015-0.095-0.101-0.21-0.431 0.497-0.187 0.244 0.012 0.446z"></path>
<path fill="#e1e1e1" d="M23.082 3.95l-0.051 0.021-0.401 0.502c0.504-0.206 0.287 0.218 0.452-0.523z"></path>
<path fill="#e1e1e1" d="M18.982 15.221c0.651-0.096 0.294 0.105 0.365-0.306-0.559 0.193-0.214-0.099-0.365 0.306z"></path>
<path fill="#e1e1e1" d="M10.079 4.627l0.127-0.066c0.057-0.134 0.045-0.065 0.038-0.246-0.129 0.068-0.521 0.113-0.164 0.312z"></path>
<path fill="#e1e1e1" d="M20.966 14.382c0-0.685 0.015-0.202-0.251-0.385 0.137 0.322 0.023 0.204 0.251 0.385z"></path>
<path fill="#e1e1e1" d="M3.956 21.326c0.37-0.166 0.505-0.034-0.001-0.311l0.001 0.311z"></path>
<path fill="#e1e1e1" d="M26.346 10.568c0.513 0.34 0.118 0.082 0.275-0.096-0.639-0.101-0.128-0.002-0.275 0.096z"></path>
<path fill="#e1e1e1" d="M28.195 8.651c-0.169-0.35 0.035-0.18-0.287-0.256 0.056 0.317-0.177 0.127 0.287 0.256z"></path>
<path fill="#e1e1e1" d="M12.082 4.315c0.367-0.135 0.203 0.14 0.249-0.224-0.397-0.022-0.117-0.137-0.249 0.224z"></path>
<path fill="#e1e1e1" d="M15.365 17.323l0.385-0.27c-0.262-0.009-0.31-0.085-0.385 0.27z"></path>
<path fill="#e1e1e1" d="M16.453 15.95l0.041-0.318c-0.149 0.029-0.138-0.293-0.153 0.095-0.017 0.43-0.214-0.024 0.113 0.223z"></path>
<path fill="#e1e1e1" d="M18.232 4.278c0.005 0.082 0.272 0.433 0.155 0.021-0.063-0.223-0.164-0.193-0.155-0.021z"></path>
<path fill="#e1e1e1" d="M4.059 26.050c0.283 0.132 0.206 0.089 0.352-0.018-0.189-0.1-0.196-0.134-0.352 0.018z"></path>
<path fill="#e1e1e1" d="M7.357 14.878c0.050 0.37 0.187 0.127 0.153 0.034-0.095-0.254-0.173-0.181-0.153-0.034z"></path>
<path fill="#e1e1e1" d="M24.487 4.278c0.020 0.251 0.229 0.213 0.167 0.018-0.058-0.186-0.176-0.127-0.167-0.018z"></path>
<path fill="#e1e1e1" d="M25.441 19.187l0.185 0.085c0.014-0.003 0.068-0.021 0.082-0.025 0.015-0.005 0.049-0.043 0.076-0.061-0.189-0.118-0.147-0.085-0.342 0z"></path>
<path fill="#e1e1e1" d="M9.494 4.512c0.033 0.017 0.080 0.020 0.095 0.054l-0.095-0.054z"></path>
<path fill="#e1e1e1" d="M6.309 27.020c1.168 0.244 1.239 0.594 2.052 0.211l-1.507-0.317c-0.964-0.147-0.378-0.060-0.545 0.105z"></path>
<path fill="#e1e1e1" d="M16.004 4.683l0.495-0.074c0.372-0.199 0.167 0.041 0.534-0.214-0.188-0.146 0.060-0.037-0.223-0.135-0.356-0.122-0.641-0.082-0.932 0.009l0.126 0.415z"></path>
<path fill="#e1e1e1" d="M22.67 10.102c0.191 0.375-0.017 0.14 0.306 0.344l0.238-0.352c0.003-0.013 0.019-0.046 0.022-0.059s0.010-0.049 0.011-0.060l-0.144-0.16c-0.010 0.002-0.052 0.003-0.065 0.008l-0.368 0.279z"></path>
<path fill="#e1e1e1" d="M15.714 19.323c0.042-0.047 0.349 0.149 0.116-0.423l-0.364-0.388c0.081 0.344 0.138 0.58 0.248 0.81z"></path>
<path fill="#e1e1e1" d="M25.597 9.868c0.006 0.011 0.019 0.016 0.022 0.033 0.003 0.019 0.025 0.030 0.029 0.036 0.006 0.007 0.031 0.037 0.038 0.046l0.096 0.12c0.11 0.144 0.136 0.197 0.221 0.297 0.131-0.256-0.012-0.7-0.407-0.532z"></path>
<path fill="#e1e1e1" d="M15.288 18.582c0.013-0.020 0.034-0.076 0.041-0.060l0.289-0.389c-0.238-0.137-0.129-0.053-0.33-0.242v0.69z"></path>
<path fill="#e1e1e1" d="M27.247 11.267c0.216 0.139-0.351 0.156 0.25 0.105 0.345-0.029 0.119-0.035 0.206-0.105-0.312-0.339-0.102-0.253-0.456 0z"></path>
<path fill="#e1e1e1" d="M24.889 9.403c0.355 0.141 0.328-0.027 0.376-0.192-0.171-0.012-0.23-0.154-0.376 0.192z"></path>
<path fill="#e1e1e1" d="M17.973 4.609l0.078-0.361-0.414 0.271c0.251 0.131-0.049 0.029 0.336 0.090z"></path>
<path fill="#e1e1e1" d="M15.151 17.673c0.011 0.435 0.219 0.176 0.179 0.023-0.038-0.144-0.188-0.364-0.179-0.023z"></path>
<path fill="#e1e1e1" d="M4.848 21.505c0.175-0.461-0.013-0.253-0.043-0.298-0.23 0.292-0.186 0.152 0.043 0.298z"></path>
<path fill="#e1e1e1" d="M25.949 9.123l-0.277-0.194c0.088 0.496 0.004 0.415 0.277 0.194z"></path>
<path fill="#e1e1e1" d="M27.273 4.298c-0.159-0.216 0.041-0.12-0.326-0.242 0.119 0.313-0.092 0.205 0.326 0.242z"></path>
<path fill="#e1e1e1" d="M9.551 8.339c0.537-0.109 0.126 0.093 0.325-0.3-0.344 0.153-0.143 0.076-0.325 0.3z"></path>
<path fill="#e1e1e1" d="M25.062 17.557c-0.020 0.324 0.321-0.076 0.125-0.057-0.267 0.026-0.109-0.207-0.125 0.057z"></path>
<path fill="#e1e1e1" d="M25.497 9.13c-0.033-0.285 0.031-0.163-0.201-0.279 0.106 0.227 0.004 0.135 0.201 0.279z"></path>
<path fill="#e1e1e1" d="M12.082 4.315c-0.21 0.059-0.133-0.108-0.101 0.234 0.317-0.228 0.098 0.104 0.101-0.234z"></path>
<path fill="#e1e1e1" d="M18.113 18.394c-0.2 0.208-0.075 0.141 0.018 0.033 0.14-0.163 0.116-0.172-0.018-0.033z"></path>
<path fill="#e1e1e1" d="M8.958 27.050c0.176 0.22 0.239 0.105 0.041 0.512-0.057-0.059-0.098-0.010-0.172-0.189-0.231-0.553-0.061 0.486-0.021-0.131 0.001-0.019 0.127-0.166 0.152-0.192zM6.309 27.020c-0.018 0.017-0.048 0.038-0.057 0.049l-0.247 0.436c-0.005-0.017-0.021 0.054-0.034 0.071l-0.417-0.035c-0.060-0.606 0.142-0.612 0.755-0.522zM6.309 27.020c0.167-0.166-0.419-0.253 0.545-0.105l1.507 0.317c-0.813 0.383-0.884 0.033-2.052-0.211zM5.97 26.509c-0.306-0.689 0.229-0.661 0.233-0.663 0.31 0.13 0.045-0.143 0.32 0.302-0.089 0.090-0.080 0.227-0.553 0.361zM4.059 26.050c0.156-0.152 0.163-0.118 0.352-0.018-0.147 0.108-0.069 0.15-0.352 0.018zM25.605 24.429c0.033-0.363 0.061-0.564 0.209-0.773 0.672 0.586 0.191 0.775 0.19 0.778l-0.399-0.005zM11.212 24.322c-0.179-0.095-0.464-0.002-0.157-0.692 0.097 0.076 0.416 0.166 0.157 0.692zM4.805 21.207c0.030 0.045 0.218-0.163 0.043 0.298-0.229-0.145-0.273-0.006-0.043-0.298zM3.956 21.326l-0.001-0.311c0.506 0.277 0.371 0.145 0.001 0.311zM25.441 19.187c0.196-0.085 0.153-0.118 0.342 0-0.027 0.018-0.060 0.056-0.076 0.061-0.014 0.003-0.068 0.022-0.082 0.025l-0.185-0.085zM15.83 18.901c0.233 0.572-0.074 0.376-0.116 0.423-0.11-0.23-0.167-0.466-0.248-0.81l0.364 0.388zM19.942 18.905c0.498-0.283 0.261-0.371 0.704-0.502 0.254 0.45-0.111 0.266 0.128 0.661 0.261 0.432 0.255-0.076 0.308 0.59-0.304 0.139-0.059 0.1-0.456-0.018 0.253 0.823 0.171 0.566-0.633 0.203 0.011-0.371-0.002-0.005 0.059-0.22 0.131-0.464-0.006-0.141-0.111-0.714zM18.131 18.427c0.14-0.163 0.116-0.172-0.018-0.033-0.2 0.208-0.075 0.141 0.018 0.033zM15.288 18.582v-0.69c0.201 0.189 0.092 0.105 0.33 0.242l-0.289 0.389c-0.006-0.016-0.027 0.040-0.041 0.060zM15.151 17.673c-0.009-0.341 0.141-0.12 0.179 0.023 0.040 0.152-0.168 0.411-0.179-0.023zM25.062 17.557c0.017-0.264-0.141-0.030 0.125-0.057 0.196-0.019-0.145 0.381-0.125 0.057zM15.365 17.323c0.075-0.355 0.123-0.279 0.385-0.27l-0.385 0.27zM16.453 15.95c-0.326-0.247-0.129 0.207-0.113-0.223 0.015-0.388 0.004-0.066 0.153-0.095l-0.041 0.318zM18.982 15.221c0.151-0.405-0.194-0.113 0.365-0.306-0.071 0.412 0.286 0.21-0.365 0.306zM7.357 14.878c-0.020-0.147 0.058-0.22 0.153 0.034 0.034 0.093-0.103 0.336-0.153-0.034zM20.966 14.382c-0.228-0.18-0.114-0.063-0.251-0.385 0.266 0.183 0.251-0.301 0.251 0.385zM16.067 12.798l0.386-0.021-0.002 0.382c-0.282 0.223-0.147 0.095-0.15 0.549-0.342-0.056-0.226-0.096-0.431 0.135l-0.143-0.478-0.273 0.182c-0.159-0.619-0.302-0.31-0.271-1.016l0.376-0.070 0.562 0.050-0.26 0.31 0.206-0.023zM27.247 11.267c0.354-0.253 0.144-0.339 0.456 0-0.088 0.070 0.139 0.076-0.206 0.105-0.601 0.051-0.033 0.034-0.25-0.105zM26.346 10.568c0.147-0.097-0.364-0.197 0.275-0.096-0.157 0.178 0.238 0.435-0.275 0.096zM25.619 9.901c-0.002-0.017-0.016-0.021-0.022-0.033 0.395-0.168 0.538 0.276 0.407 0.532-0.085-0.1-0.111-0.153-0.221-0.297l-0.096-0.12c-0.007-0.010-0.033-0.039-0.038-0.046-0.005-0.006-0.026-0.017-0.029-0.036zM23.038 9.823c0.013-0.005 0.054-0.006 0.065-0.008l0.144 0.16c-0.002 0.011-0.009 0.048-0.011 0.060s-0.018 0.046-0.022 0.059l-0.238 0.352c-0.322-0.204-0.115 0.031-0.306-0.344l0.368-0.279zM24.889 9.403c0.147-0.346 0.206-0.204 0.376-0.192-0.049 0.165-0.022 0.333-0.376 0.192zM25.949 9.123c-0.273 0.221-0.189 0.302-0.277-0.194l0.277 0.194zM8.771 8.803c0.192 0.401 0.135 0.373-0.121 0.69-0.088-0.241 0.080 0.159-0.048-0.189-0.019-0.054-0.090-0.182-0.096-0.208-0.087-0.416-0.026-0.209 0.265-0.293zM25.497 9.13c-0.197-0.145-0.095-0.053-0.201-0.279 0.232 0.116 0.168-0.005 0.201 0.279zM28.195 8.651c-0.464-0.129-0.231 0.061-0.287-0.256 0.322 0.076 0.118-0.095 0.287 0.256zM9.551 8.339c0.182-0.224-0.019-0.147 0.325-0.3-0.199 0.393 0.212 0.191-0.325 0.3zM16.797 4.997c0.417-0.139 0.23-0.211 0.588-0.458 0.804 0.45 0.708 0.48 0.731 0.904-0.545 0.279-0.491 0.259-0.69-0.073-0.162 0.259-0.128 0.197-0.39 0.381-0.181-0.22-0.175-0.34-0.239-0.755zM11.945 5.099c0.199 0.208 0.305 0.017 0.243 0.713l-0.366 0.148c-0.004 0.002-0.253 0.098-0.268 0.105-0.107-0.431-0.058-0.631 0.133-0.923 0.142-0.606-0.053 0.065-0.064-0.316-0.010-0.35-0.135-0.043 0.171-0.254 0.144 0.206 0.019-0.091 0.145 0.29 0.009 0.027 0.007 0.197 0.006 0.236zM19.709 4.865c-0.32 0.514-0.332-0.275-0.581 0.675l-0.646-0.030c-0.065-1.016 0.218-0.321-0.509-0.901l1.227 0.174c0.191 0.035 0.106 0.080 0.509 0.082zM9.494 4.512c0.033 0.017 0.080 0.020 0.095 0.054l-0.095-0.054zM23.979 4.542l-0.26-0.298c0.401 0.14 0.186-0.211 0.26 0.298zM17.973 4.609c-0.385-0.061-0.085 0.041-0.336-0.090l0.414-0.271-0.078 0.361zM15.067 4.634c-0.199-0.202-0.443 0.052-0.012-0.446 0.086 0.115 0.076-0.037 0.101 0.21 0.038 0.373-0.041 0.149-0.089 0.236zM10.079 4.627c-0.357-0.199 0.036-0.244 0.164-0.312 0.007 0.18 0.019 0.112-0.038 0.246l-0.127 0.066zM24.487 4.278c-0.009-0.109 0.109-0.168 0.167 0.018 0.061 0.195-0.147 0.233-0.167-0.018zM18.232 4.278c-0.009-0.172 0.092-0.202 0.155 0.021 0.117 0.412-0.15 0.061-0.155-0.021zM16.499 4.608l0.257 0.066 0.040 0.322-0.227 0.698c-0.776-0.034-0.158 0.136-0.349-0.331-0.685 0.137-0.19 0.033-0.293 0.184l-0.048 0.165c-0.002-0.014 0.001 0.040-0.053 0.068l-0.040-0.231-0.261 0.282-0.506-0.117c-0.010-0.002-0.039-0.010-0.046-0.011-0.217-0.020 0.096-0.146-0.267 0.181-0.39-0.224-1.609 0.077-2.197-0.073-0.159-0.476-0.080-0.975 0.334-1.19-0.067-0.222-0.045-0.095-0.001-0.183 1.163 0.243 0.763 0.377 1.281 0.613 0.413-0.265 0.187 0.056 0.372-0.355-0.324-0.224-0.372-0.107-0.023-0.365 0.215 0.189 0.314-0.29 0.108 0.363l0.486-0.060 0.105 0.197c0.356-0.116 0.392-0.195 0.832-0.148l-0.126-0.415c0.291-0.091 0.576-0.131 0.932-0.009 0.283 0.098 0.035-0.011 0.223 0.135-0.366 0.254-0.162 0.015-0.534 0.214zM12.082 4.315c-0.003 0.338 0.216 0.006-0.101 0.234-0.031-0.342-0.109-0.175 0.101-0.234zM27.273 4.298c-0.418-0.037-0.207 0.072-0.326-0.242 0.367 0.121 0.168 0.025 0.326 0.242zM12.082 4.315c0.132-0.361-0.148-0.246 0.249-0.224-0.046 0.364 0.118 0.089-0.249 0.224zM17 20.002c0.093-0.279-0.049-0.104 0.151-0.241 0.024 0.030 0.099 0.108 0.121 0.128 0.19 0.166 0.235 0.095 0.355 0.333l-0.004 0.502c0.010 0.534-0.109-0.518 0.121 0.254 0.070 0.233-0.004 0.126-0.069 0.659l-0.203 1.293c0.751 0.182 0.813-0.219 0.928 0.35-0.294 0.108-0.216 0.062-0.411-0.128l0.389 1.924c0.16 0.357 0.123 0.1 0.205 0.584 0.259-0.421-0.076-0.219 0.432-0.222 0.036 0.056 0.214 0.291 0.151 0.486-0.052 0.161-0.187 0.157-0.363 0.255 0.108 0.465-0.023 0.009 0.258 0.511-0.64 0.143-0.244-0.109-0.634 0.372l-0.565-0.395c0.078-0.332 0.076-0.205 0.097-0.264 0.259-0.723-0.006-0.948-0.256-1.706-0.206-0.624-0.32-0.662-0.669-1.423l-0.231-0.357c-0.712 0.259-0.858 0.128-1.395 0.155l-0.39 0.073c-0.405 0.482-0.203 0.439 0.096 0.868 0.266 0.383 0.738 2.885 0.486 3.174-0.27 0.279-0.111-0.051-0.365-0.093-0.258-0.042-0.117-0.016-0.399 0.114 0-0.687-0.297-0.783-0.933-1.164-0.624-0.373-0.325-0.124-0.413-0.649-0.094-0.559-0.247-0.135-0.183-0.612 0.179-1.325-0.477-0.79 0.293-2.002-0.949-0.139-2.056-0.557-2.678-1.089-0.78-0.668-0.95-1.082-1.208-2.363l-5.897 0.030c-0.069 0.468 0.109 0.338-0.010 1.033-0.071 0.415-0.155 0.621 0.15 0.931-0.233 0.786-0.101 2.080-0.093 3.102l0.491 0.137 0.008-0.341c0.249-0.25 0.265-0.38 0.677-0.495 0.18 0.133 0.057-0.013 0.243 0.229 0.196 0.255-0.001 0.001 0.145 0.259l-0.253 0.212c0.965 0.116 0.802-0.060 1.486 0.422-0.050 0.299-0.108 0.512-0.257 0.708-0.602-0.211 0.209-0.301-0.861-0.393-1.975-0.17-1.717 0.503-1.671 2.812l5.635 0.003 0.074-0.903c0.396 0.305 0.042 0.451 0.349 0.903 1.141-0.043 0.612-1.101 1.282-2.168 0.644 0.715 1.252 1.299 2.239 1.851 3.502 1.961 6.47 1.372 9.879 0.108-0.227-0.301-0.17-0.387-0.005-0.767 0.534 0.125 0.261 0.084 0.466 0.462 0.576-0.077 1.563-0.97 1.864-1.292 2.209-2.376 2.023-5.195 0.909-8.010-0.62-1.567-2.57-2.799-4.017-3.674-1.512-0.915-1.758-0.444-1.849-0.822-0.009-0.038-0.032-0.049-0.052-0.071-0.405 0.214-0.412 0.148-0.892 0.306-0.010-0.684 0.107-0.077 0.103-0.752-1.19-0.3-3.078-0.825-4.069-1.338-2.293-1.189-1.336-2.542-0.369-2.869 0.75-0.254 6.772-0.162 6.857 3.638l5.985 0.004-0.033-8.134c-0.368-0.159-0.298 0.005-0.762-0.23 0.121-0.029 0.259-0.045 0.392-0.076l0.272-0.074c0.015-0.034 0.060-0.015 0.088-0.028l-5.136-0.096c-0.166 0.74 0.052 0.317-0.452 0.523l0.401-0.502c-0.101-0.014-0.306 0.003-0.345 0.003l-0.828 0.011c-0.226-0.417-0.942 2.056-0.973 2.169-0.272-0.234-0.326-0.37-0.561-0.739-0.357-0.559-0.334-0.474-0.615-0.55-0.144-0.308-0.442-0.464-0.749-0.645-2.102-1.242-5.31-1.389-7.648-0.884-8.828 1.908-7.080 9.761-4.638 12.12 0.381 0.368 1.017 0.758 1.536 1.142 1.455 1.076 3.38 2.072 5.237 2.513-0.115-1.124-0.467-0.121-0.655-1.264-0.119-0.725 0.023-0.881 0.318-1.339-0.13-0.268-0.265-0.44-0.285-0.578-0.157-1.065 0.992-1.212 1.22-0.401 0.040 0.143 0.126 1.536 0.124 1.713-0.010 0.871-0.353 0.232 0.013 1.246-0.429 0.369-0.35-0.065-0.57 0.582l0.482 0.266c0.121 0.044 0.288 0.084 0.448 0.132 2.111 0.637 1.655 1.015 2.458 0.534z"></path>
<path fill="#e1e1e1" d="M12.843 4.621l0.109 0.348c0.375-0.121 0.312-0.026 0.441-0.316l-0.55-0.033z"></path>
<path fill="#e1e1e1" d="M15.525 5.832l0.261-0.282-0.081-0.377c-0.302 0.178-0.12-0.052-0.385 0.303l0.206 0.357z"></path>
</svg>
