<!-- Generated by IcoMoon.io -->
<svg version="1.1" xmlns="http://www.w3.org/2000/svg" width="32" height="32" viewBox="0 0 32 32">
<title>bailar</title>
<path d="M17.077 10.257c1.258 0 2.278-1.020 2.278-2.278s-1.020-2.278-2.278-2.278-2.278 1.020-2.278 2.278c0 1.258 1.020 2.278 2.278 2.278v0z"></path>
<path d="M23.194 26.658l-3.303-5.29c0 0-3.271-6.074-1.796-8.068 0 0 0 0 0-0.037 0.548 0.383 1.001 0.888 1.321 1.476 0.446 0.806 0.68 1.715 0.68 2.637 0 0.026-0.001 0.054-0.001 0.079 0 0.522 0.423 0.944 0.944 0.944s0.944-0.423 0.944-0.944c0.001-0.013 0.001-0.026 0.001-0.038 0-1.259-0.321-2.497-0.933-3.598-0.975-1.783-2.793-2.948-4.821-3.087l-0.049 0.001c-3.259-0.253-4.216-3.29-4.445-6.086 0.001-0.017 0.002-0.034 0.002-0.051 0-0.32-0.141-0.624-0.384-0.832-0.167-0.132-0.373-0.204-0.586-0.204-0.521 0-0.944 0.423-0.944 0.944 0 0.062 0.006 0.125 0.018 0.186v0.111c0.321 3.933 1.766 6.216 4.111 7.29-0.11 0.245-0.194 0.502-0.247 0.766-0.018 0.264-0.028 0.53-0.028 0.795 0 1.152 0.177 2.299 0.522 3.397 0.029 0.095 0.043 0.194 0.043 0.293 0 0.317-0.146 0.616-0.395 0.811-1.265 0.991-2.251 2.297-2.858 3.785-0.038 0.103-0.057 0.212-0.057 0.322 0 0.016 0.001 0.032 0.001 0.047l0.297 5.247c0.026 0.499 0.438 0.889 0.937 0.889 0 0 0.001 0 0.001 0h0.086c0.488-0.050 0.86-0.462 0.86-0.952 0-0.018-0.001-0.037-0.002-0.054l-0.278-5.013c0.604-1.309 1.568-2.421 2.778-3.204 0.1-0.065 0.217-0.1 0.336-0.1 0.216 0 0.416 0.113 0.528 0.297l1.734 2.833c0 0.031 0.031 0.062 0.044 0.086l3.364 5.408c0.172 0.276 0.476 0.444 0.802 0.444 0.216 0 0.425-0.074 0.594-0.21 0.223-0.188 0.353-0.467 0.353-0.759 0-0.2-0.061-0.396-0.174-0.562v0.001z"></path>
<path d="M10.41 16.084l1.111-2.278 0.056-0.099 0.179-0.364 0.136-0.259-2.525-0.358v0.049c-0.074 0.154-0.173 0.358-0.284 0.574v0l-0.061 0.136-0.914 1.852c-0.161-0.21-0.411-0.333-0.676-0.333-0.005 0-0.010 0-0.015 0-0.432 0-0.79 0.204-0.802 0.487s0.327 0.537 0.759 0.556c0.025 0.002 0.050 0.003 0.076 0.003 0.224 0 0.439-0.085 0.602-0.238v0c0.039-0.049 0.066-0.106 0.081-0.167 0.198-0.389 0.685-1.37 1.062-2.123l2.129 0.309c-0.333 0.673-0.753 1.519-0.969 1.975-0.163-0.213-0.416-0.339-0.685-0.34-0.425 0-0.783 0.198-0.796 0.488s0.327 0.531 0.753 0.549c0.037 0.006 0.075 0.009 0.112 0.009 0.288 0 0.55-0.167 0.672-0.428v0z"></path>
<path d="M25.386 5.17c0 0-0.568 1.055-1.006 0.383-0.673-1.025-1.043 0-1.043 0s0.296 2.568 0.463 3.704c-0.111-0.035-0.226-0.053-0.342-0.053-0.23 0-0.455 0.070-0.645 0.202-0.488 0.302-0.716 0.802-0.519 1.123s0.753 0.34 1.235 0.044c0.344-0.155 0.565-0.496 0.565-0.873 0-0.057-0.005-0.115-0.015-0.171-0.105-0.784-0.407-3.556-0.407-3.556 0.167 0.332 0.506 0.542 0.877 0.542 0.030 0 0.061-0.002 0.092-0.005 0.778-0.198 0.747-1.34 0.747-1.34z"></path>
</svg>
