<?xml version="1.0" encoding="UTF-8"?>
<!DOCTYPE svg PUBLIC "-//W3C//DTD SVG 1.1//EN" "http://www.w3.org/Graphics/SVG/1.1/DTD/svg11.dtd">
<!-- Creator: CorelDRAW 2017 -->
<svg xmlns="http://www.w3.org/2000/svg" xml:space="preserve" width="215.9mm" height="279.4mm" version="1.1" style="shape-rendering:geometricPrecision; text-rendering:geometricPrecision; image-rendering:optimizeQuality; fill-rule:evenodd; clip-rule:evenodd"
viewBox="0 0 21590 27940"
 xmlns:xlink="http://www.w3.org/1999/xlink">
 <defs>
  <style type="text/css">
   <![CDATA[
    .fil18 {fill:#1B180E}
    .fil8 {fill:#2996C9}
    .fil11 {fill:#2C5824}
    .fil4 {fill:#315069}
    .fil15 {fill:#478C52}
    .fil1 {fill:#512856}
    .fil5 {fill:#6C756E}
    .fil2 {fill:#6E7033}
    .fil13 {fill:#78392C}
    .fil10 {fill:#794478}
    .fil17 {fill:#AB7644}
    .fil9 {fill:#AF344C}
    .fil0 {fill:#B3CDAF}
    .fil6 {fill:#D1AE54}
    .fil19 {fill:#DCADC9}
    .fil3 {fill:#E7EBD5}
    .fil12 {fill:#EBD08E}
    .fil7 {fill:#EBDA51}
    .fil14 {fill:#F3F3AC}
    .fil16 {fill:#FEFEFE}
   ]]>
  </style>
 </defs>
 <g id="Capa_x0020_1">
  <metadata id="CorelCorpID_0Corel-Layer"/>
  <g id="_2241150580560">
   <path class="fil0" d="M5848.16 17460.2c5.1,31.65 11.47,36.46 12.74,65.72 1.31,29.9 -20.79,3.11 15.43,43.96l-13.14 30.28 37.47 -27.88 -9.42 -17.93c-19.4,-36.8 -4.63,-22.17 -12.06,-102.43l-3.82 -13.79 -12.29 0c-4.01,36.29 2.19,15.4 -14.91,22.07z"/>
   <path class="fil0" d="M6037.89 17960.7c11.32,32.54 -1.52,33.62 35.46,47.87 22.7,0 18.95,-17.71 25.55,-41.35 -19.54,-3.58 -1.53,2.56 -21.41,-10.46 -10.75,-7.05 -9.03,-7.36 -23,-17.02 2.69,26.99 9.32,20.96 -16.6,20.96z"/>
   <path class="fil0" d="M7802.53 18125.22l22.03 -10.01 -0.93 8.44c22.5,0 17.13,5.35 14.33,-17.58l-26.19 -12.58 -11.65 -5.1 2.41 36.83z"/>
   <path class="fil0" d="M5828.62 17752.14l-1.28 -44.62 37.17 4.68c-14.13,-12.79 17.06,-16.02 -45.29,-15.74 -0.8,4.76 -3.51,21.2 -2.83,24.37 4.46,20.86 7.03,21.99 12.23,31.31z"/>
   <path class="fil1" d="M6348.66 16463c9.45,-51.41 19.82,-31.62 19.91,-87.99l-17.61 -27.59c-28.7,21.31 -26.12,-28.73 -23.25,29.65 -26.03,36.68 -24.09,85.18 -0.27,130.36 13.25,-33.53 -0.56,-25.93 21.22,-44.43z"/>
   <path class="fil1" d="M6546.18 16494.59c9.35,49.09 -6.59,19.4 24.73,41.35l16.31 -59.83 -12.78 -18.91 -32.3 3.56 4.04 33.83z"/>
   <path class="fil2" d="M6933.31 17972.54c20.4,29.97 17.37,67.27 24.17,112.74l119.03 4.71c9.81,-33.29 15.7,-51.13 38.14,-73.38l8.95 -7.06c-40.45,-2.95 -3.28,4.27 -16.04,-21.87l3.43 -9.06c-40.53,20.77 -35.17,38.17 -43.89,86.57l-89.81 -1.18c-2.22,-46.67 4.24,-67.76 -11.87,-95.1l-32.11 3.63z"/>
   <path class="fil2" d="M7488.01 17735.96c33.79,9.45 13.11,-7.78 29.93,16.22 -5.03,67.28 6.48,60.45 39.59,93.96l59.15 -3.89 7.38 -31.32 -76.35 1.91 -0.91 -90.96c-54.26,-4.43 -21.55,14.78 -39.72,-21.62 -7.44,34.21 1.99,15.6 -19.07,35.7z"/>
   <path class="fil3" d="M7490 18260.87c-13.04,-28.7 -28.61,-62.52 13.88,-85.55 54.5,22.58 39.21,66.97 -13.88,85.55zm-30.39 66.72c0,16.16 -3.97,12.06 12.4,11.77 0.02,0.01 26.21,12.51 26.37,12.61 13.9,-11.27 4.36,-13.4 30.97,7.87 2.58,2.07 6.44,4.97 8.74,6.81 2.47,1.99 6.11,5.06 9.27,7.47l9.25 -42.8c-14.84,-6.45 -8.23,-3.94 -27.14,-12.59l-23.51 -1.98c48.65,-26.05 24.6,-35.38 59.49,-59.8l8.45 -33.03c-57.14,5.15 6.65,-29.72 -73.97,-69.73 -31.29,28.79 -42.78,25.21 -35.54,80.23 7.77,59.04 52.57,65.53 -4.78,93.17z"/>
   <path class="fil3" d="M6253.84 18160.06l34.85 69.48c18.6,12.68 31.06,20.34 56.61,37.27 8.74,5.8 19.98,13.17 26.41,16.94 29.27,17.22 26.04,15.06 57.05,2.9l-10.35 -26.55c-12.72,-27.92 1.26,-0.17 -8.93,-16.54l-50.91 -5.79c-8.49,-13.84 -21.81,1.28 -7.64,-50.02 6.73,-24.35 11.07,-22.76 17.85,-53.72 -34.39,21.15 -26.71,31.01 -85.73,56.07 -16.94,-41.67 -0.38,-14.84 -29.21,-30.04z"/>
   <path class="fil3" d="M6256.46 18322.41c32.03,-15 37.36,-26.89 70.88,-26.69 17.34,27.9 13.12,55.62 8.62,97.19l20.7 -29.59c14.3,-19.36 -14.28,-11.04 31.94,-20.4 0.45,4.95 0.41,31.24 0.56,31.73 12.67,43.39 -7.77,16.47 23.69,38.6l-3.42 -92.45c-36.4,-18.65 -155.1,-123.78 -202.94,-60.12l79.9 -3.75c-7.02,57.16 -4.44,13.99 -29.93,65.48z"/>
   <path class="fil3" d="M7825.81 17859.47c16.57,62.57 15.19,60.12 -26.6,94.39l20.82 55.75 14.15 5.32c2.87,0.96 7.09,-0.53 8.62,2.93 1.54,3.48 6.69,2.25 8.73,2.8 19.54,5.14 -7.74,-1.24 27.62,6.42 14.87,-36.49 5.27,-43.49 51.34,-42.36l-23.33 -45.85 -75.47 63.35 20.97 -56.82 -8.57 -139.54c-11.94,14.95 -20.63,-20.26 -18.28,53.61z"/>
   <path class="fil3" d="M6021.14 17891.55l33.35 48.19c13.97,9.66 12.25,9.97 23,17.02 19.88,13.02 1.87,6.88 21.41,10.46l4.36 -0.66c-8.49,-17.56 -5.71,3.76 -6.85,-22.54 -0.19,-4.36 2.12,-26.79 2.6,-31.76 -30.61,-8.53 -78.57,-13.94 -57.31,-56.19 9.31,-18.49 41.46,-40.89 66.45,-43.98 -9.33,-18.62 14.93,-29.53 -73.43,10.32l-13.02 -14.37c-4.48,-5.35 -14.56,-17.98 -19.17,-23.64l18.61 107.15z"/>
   <path class="fil3" d="M7277.16 17726.25c10.61,8.12 14.64,10.81 28.04,19.34 3.48,2.22 18.44,11.09 19.31,11.88 22.4,20.18 -8.75,-18.44 19.1,23.86 15.26,-13.86 4.59,-2.98 15.34,-6.35l33.08 -12.07c-8.76,-59.16 -13.39,-81.19 -54.81,-101.89 -9.5,46.42 -13.56,41.79 12.32,90.22l-38.07 -19.67c-22.5,-8.96 -10.11,-4.3 -34.31,-5.32z"/>
   <path class="fil3" d="M6620.18 17633.12l29.53 28.82c40.85,-28.07 35.67,-47.47 92.73,-72.63 -13.39,-23.21 16.43,-19.3 -15.54,-19.31l-9.34 -12.93c-53.5,14.61 -3.05,5.94 -49.82,34.65 -24.48,15.03 -49.91,8.84 -47.56,41.4z"/>
   <path class="fil3" d="M7988.58 17462.69l-0.25 80.15 -52.58 -1.38c20.59,16.26 -16.03,-3.11 31.69,20.54 2.96,1.45 10.75,4.84 14.01,6.14 2.8,1.11 5.96,2.14 8.65,3.12l21.31 6.83c12.31,-24.82 16.11,-25.45 14.77,-62.13 -1.27,-34.83 -4.65,-45.09 -23.74,-60.52 -10.77,26.03 -0.57,15 -13.86,7.25z"/>
   <path class="fil3" d="M7003.21 17756.74l-3.83 49.06c3.41,1.04 12.12,1.96 13.98,3.03l28.15 33.52 15.59 -33.42 13.87 -46.02c-23.36,-16.57 -28.59,-7.93 -28.69,-7.97l-20.97 -16.78c-15.09,19.54 -3.34,-19.05 -18.1,18.58z"/>
   <path class="fil3" d="M7328.56 18154.36l0.23 64.28c10.72,16.08 -36.21,20.37 24.91,13.67 37.6,-4.13 12.34,-1.16 24.41,-14.26 4.36,-46.02 14.83,-75.74 -49.55,-63.69z"/>
   <path class="fil3" d="M6373.32 18026.08c-18.19,13.09 -20.36,-35.31 -14.36,26.38 3.47,35.7 1.98,13.6 14.51,26.48 3.12,0.85 7.6,-0.29 9.21,3 3.67,7.52 11.34,3.34 17.88,2.62 43.52,-4.84 29.52,-38 19.28,-65l-46.52 6.52z"/>
   <path class="fil3" d="M6678.15 17291.76c-4.03,37.15 -12.84,51.26 -24.92,85.03 1.51,-0.86 3.92,-3.01 4.17,-3.14 0.14,-0.07 2.28,-1.23 2.4,-1.28 21.01,-9.15 -1.51,2.94 -1.9,4.53 31.61,-36.57 31.68,-22.24 50.15,-32.21 -4.85,-36.91 1.41,-36.17 -29.9,-52.93z"/>
   <path class="fil3" d="M6680.19 17423.26l0.84 -5.63c8.96,-21.92 1.41,-15.02 14.9,-32.9l-16.94 24.62c-6.3,14.25 -3.45,2.97 1.2,13.91z"/>
   <path class="fil4" d="M6880.86 18399.09c-13.47,25.2 16.65,12.32 -16.09,19.02 7.81,7.57 -5.25,18.5 -10.73,22.29 -36.11,24.93 -94.83,31.67 -106.47,80.09 25.26,-5.5 41.32,-23.63 67.49,-41.66 30.37,-20.95 45.51,-38.94 68,-32.92 0.06,0.13 36.76,1.95 -7.53,38.83 -25.15,20.96 -74.47,20.34 -105.61,129.76 17.79,-6.18 12.25,-1.16 29.72,-10.29 20.01,-10.48 56.39,-68.46 125.84,-118.67 -6.52,-38.02 1.4,-101.84 -22.79,-130.92 -18.11,21.97 -11.89,9.63 -21.83,44.47z"/>
   <path class="fil4" d="M6933.52 18601.03c23.24,23.03 55.75,41.29 87.58,34.95 -2.58,-57.8 -12.7,-22.17 -63.2,-67.09l-23.69 8.1 -0.69 24.04z"/>
   <path class="fil5" d="M6713.52 18017.38c4.58,80.15 3.17,135.15 -6.5,204.69l10.7 38.77c12.33,5.59 14.08,5.19 30.24,10.58 36.94,12.33 9.26,-3.2 36.84,15.53 37.91,-20.12 112.04,5.57 172.15,5.15 81.48,-0.54 111.96,-7.63 180.23,7.28 16.62,-2.33 11.5,2.15 11.5,-16.63 -25.73,-34.94 -108.34,-10.83 -191.87,-11.92 -89.26,-1.19 -133.07,-18.15 -229.2,-19.7 22.76,-93.01 -0.75,-181.11 2.49,-274l-16.58 40.25z"/>
   <path class="fil5" d="M6371.74 17918.59l25.51 16.45 -2.17 -36.7 45.82 0.21 -51.23 -29.86c-14.13,12.49 -2.46,-4.48 -14.01,24.56 -11.3,28.43 -0.83,-16 -3.92,25.34z"/>
   <path class="fil5" d="M7328.56 18154.36c64.38,-12.05 53.91,17.67 49.55,63.69 4.09,-5.42 16.26,-11.74 15.92,-36.45 -0.27,-19.74 -11.55,-31.65 -17.94,-42.56l-46.85 7.14 -0.68 8.18z"/>
   <path class="fil6" d="M6182.53 17240.37c-21.08,24.71 -7.2,-2.91 -19.13,36.3 -1.19,-2.03 -5.63,-7.55 -10.77,-17.84 11.88,-10.46 10.28,-9.36 29.9,-18.46zm-90.56 109.61c18.08,-12.62 46.72,-27.08 60.71,-40.09l40.79 -7.31c-0.09,-5.87 2.56,-33.39 2.19,-36.22 -4.15,-31.67 0.95,-15.88 -13.13,-25.99 -2.04,-14.78 23.03,-26.28 -26.03,-22.97 -35.71,2.39 -3.77,2.43 -33.33,15.76 -56.44,-99.36 12.28,-79.62 -56.28,-96.37 -30.04,49.88 -2.99,64.54 24.28,113.03 -23.32,15.43 -31.06,18.06 -47.23,35.64 3.72,27.48 -7.04,14.93 9.91,39.58 12.22,17.78 27.54,19.38 38.12,24.94z"/>
   <path class="fil6" d="M7676.61 17772.18c0.65,-23.28 21.92,-19.86 -1.21,-20 22.52,-7.15 12.54,-6.2 19.47,-5.97l1.73 15.89 -19.99 10.08zm-63.44 -112.72c33.68,-2.32 29.97,20.6 30.12,-3.84 22.96,33.35 0.35,20.85 42.94,42.95 -4.88,3.2 -19.24,12.74 -23.31,17.5l-24.19 47.99c-0.33,2.15 0.8,14.59 0.59,12.36 -0.26,-2.83 1.67,10.46 2.14,15.73 3.27,-1.75 8.02,-7.73 9.88,-5.1 1.78,2.51 7,-3.67 9.29,-5.03 2.33,-1.36 13.01,-7.85 15.98,-9.84 13.32,18.95 -46.32,20.28 31.02,14.86 36.48,-50.76 6.56,-39.62 6.17,-88.47 51.24,-49.08 93.11,-23.38 53.52,-91.69 -47.8,3.17 -51.46,25.09 -70.4,56.75 -46.66,-22.53 -5.68,-30.48 -64.02,-38.34l-19.73 34.17z"/>
   <path class="fil6" d="M6280.46 17844.04c-17.49,-54.34 -4.26,-8.34 1.81,-28.24 28.71,-2.13 91.24,7.91 79.95,75.79 -49.33,14.04 -78.37,-37.02 -81.76,-47.55zm91.28 74.55c3.09,-41.34 -7.38,3.09 3.92,-25.34 11.55,-29.04 -0.12,-12.07 14.01,-24.56 -22.46,-61.4 -42.75,-84.09 -128.73,-72.87 -19.15,86.34 37.91,133.46 110.8,122.77z"/>
   <path class="fil6" d="M6012.16 17918.52c-11.26,-35.67 -6.59,-19.47 -19.71,-29.12 -24.49,14.67 1.45,2.64 -32.84,12.26l-33.91 10.11c-13.92,30.73 3.55,73.55 33.95,95.67 46.39,-16.7 41.21,-43.99 52.51,-88.92z"/>
   <path class="fil6" d="M5875.36 17438.13l3.82 13.79 51.24 42.38c63.34,10.06 13.36,1.93 33.43,-9.59 11.23,-32.42 3.3,-53.75 -7.32,-93.41 -38.53,-2.93 -71.3,11.67 -81.17,46.83z"/>
   <path class="fil6" d="M6409.48 18243.56c21.31,-23.74 4.76,4.63 23.85,-30.26 -3.05,-27.38 -0.02,-27.17 -15.45,-49.51 -18.14,-26.28 -16.21,-22.62 -49.1,-29.76 -6.78,30.96 -11.12,29.37 -17.85,53.72 -14.17,51.3 -0.85,36.18 7.64,50.02l50.91 5.79z"/>
   <path class="fil6" d="M6256.46 18322.41c-6.4,45.78 13.89,54.24 46.35,76.64l33.15 -6.14c4.5,-41.57 8.72,-69.29 -8.62,-97.19 -33.52,-0.2 -38.85,11.69 -70.88,26.69z"/>
   <path class="fil6" d="M6099.01 17912.26l27.39 -14.56c1.33,-29.87 -0.86,-64.69 -18.25,-85.61 -24.99,3.09 -57.14,25.49 -66.45,43.98 -21.26,42.25 26.7,47.66 57.31,56.19z"/>
   <path class="fil6" d="M5778.3 17535c45.27,-9.2 67.52,-30.76 48.23,-89.55 -85.9,-9.28 -81.29,28.97 -48.23,89.55z"/>
   <path class="fil6" d="M7799.21 17953.86c41.79,-34.27 43.17,-31.82 26.6,-94.39l-51.85 9.36c-7.55,52.38 -11.35,41.75 25.25,85.03z"/>
   <path class="fil6" d="M8115.13 17612.85c40.85,-40.84 21.75,-88.17 -19.02,-76.64 -33.97,9.61 -49.55,69.36 19.02,76.64z"/>
   <path class="fil6" d="M7879.15 18027.08c9.59,12.09 11.99,50.51 48.76,32.17 34.02,-16.95 17.37,-56.76 2.58,-74.53 -46.07,-1.13 -36.47,5.87 -51.34,42.36z"/>
   <path class="fil6" d="M7935.75 17541.46l52.58 1.38 0.25 -80.15c-25.59,0.3 -36.23,3.9 -52.55,12.88l-0.28 65.89z"/>
   <path class="fil6" d="M7490 18260.87c53.09,-18.58 68.38,-62.97 13.88,-85.55 -42.49,23.03 -26.92,56.85 -13.88,85.55z"/>
   <path class="fil6" d="M7547.36 18374.12c38.73,56.9 61.27,27.97 51.77,-32.13l-42.52 -10.67 -9.25 42.8z"/>
   <path class="fil6" d="M7716.6 16741.24l3.26 -11.84 -28.06 -25.03c-32.01,-22.2 -1.96,-13.69 -48.46,-12.43l73.26 49.3z"/>
   <path class="fil7" d="M7419.96 17175.04l210.05 171.96c34.41,29.79 17.36,-5.8 24.92,41.05 34.76,-28.23 36.54,-4.46 54.88,-52.62 -46.1,-45.39 -294.13,-194.12 -320.86,-220.65 -36.44,-13.6 -10.78,12.87 -29.82,-15.06 17.86,58.73 15.79,41.32 60.83,75.32z"/>
   <path class="fil7" d="M7613.17 17659.46c-23.53,10.47 -49.16,16.5 -66.37,62.42l0.91 90.96 76.35 -1.91c22.15,5.64 18.65,12.07 18.65,-7.62l-1.25 -11.16c-0.47,-5.27 -2.4,-18.56 -2.14,-15.73 0.21,2.23 -0.92,-10.21 -0.59,-12.36l24.19 -47.99c4.07,-4.76 18.43,-14.3 23.31,-17.5 -42.59,-22.1 -19.98,-9.6 -42.94,-42.95 -0.15,24.44 3.56,1.52 -30.12,3.84z"/>
   <path class="fil7" d="M7360.44 17242.47c11.93,1.66 16.73,-0.18 37.61,25.28l99.55 147.43c44.81,-4.73 45.06,-4.62 80.93,-16.96 -23.32,-22.88 -37.26,-42.21 -62.62,-65.62 -23.73,-21.92 -45.65,-39 -62.97,-64.59l-84.38 -82.12 -20.39 14.42 12.27 42.16z"/>
   <path class="fil7" d="M6483.45 18277.29l44.44 1.7c32.33,-21.27 52.98,-25.37 68.46,-63.5l-5.11 -43.94c-34.78,-38.24 -71.39,-32 -101.62,3.7 -49.69,58.72 -21.14,57.21 -6.17,102.04z"/>
   <path class="fil7" d="M7360.06 18037.78c17.97,15.94 17.32,-22.33 16.33,39.32 140.76,77.95 199.88,-116.43 52.71,-93.44 -35.01,5.48 -54.6,36.54 -69.04,54.12z"/>
   <path class="fil7" d="M6091.97 17349.98l-9.45 34.4 57.52 52.48c19.84,-8.87 48.1,-15.2 68.83,-23.38 3.76,-58.36 -4.02,-51.47 -8.65,-96.75l-6.75 -14.15 -40.79 7.31c-13.99,13.01 -42.63,27.47 -60.71,40.09z"/>
   <path class="fil7" d="M6282.27 17815.8c-6.07,19.9 -19.3,-26.1 -1.81,28.24 3.39,10.53 32.43,61.59 81.76,47.55 11.29,-67.88 -51.24,-77.92 -79.95,-75.79z"/>
   <path class="fil7" d="M6182.53 17240.37c-19.62,9.1 -18.02,8 -29.9,18.46 5.14,10.29 9.58,15.81 10.77,17.84 11.93,-39.21 -1.95,-11.59 19.13,-36.3z"/>
   <path class="fil7" d="M7676.61 17772.18l19.99 -10.08 -1.73 -15.89c-6.93,-0.23 3.05,-1.18 -19.47,5.97 23.13,0.14 1.86,-3.28 1.21,20z"/>
   <path class="fil8" d="M6397.25 17935.04c26.9,30.62 51.79,31.88 49.48,80.19 -41.22,-2.65 -33.78,-29.88 -73.41,10.85l46.52 -6.52c10.24,27 24.24,60.16 -19.28,65 -6.54,0.72 -14.21,4.9 -17.88,-2.62 -1.61,-3.29 -6.09,-2.15 -9.21,-3l24.14 24.81c43.27,-13.73 24.57,-10.5 55.33,-40.15 43.5,1.91 172.16,9.05 156.58,83.11 -8.49,40.35 -3.76,12.79 -18.28,24.84l5.11 43.94 110.67 6.58c9.67,-69.54 11.08,-124.54 6.5,-204.69 -58.06,-6.98 -56.81,-28.4 -87.97,-64.39 -21.64,-15.07 13.16,-5.21 -22.63,-9.63 -30.28,-3.73 -4.99,-2.54 -25.17,6.68l-13.9 15.53 -122.95 -67.02 -45.82 -0.21 2.17 36.7z"/>
   <path class="fil8" d="M7194.06 18064.03c-29.51,48.97 -5.03,142.46 -6.73,203.38 9.94,-24.78 4.4,-26.32 41.73,-38.79 42.95,-14.33 31.07,-5.65 71.07,-26.34 15.92,8.42 16.72,7.07 28.66,16.36l-0.23 -64.28 0.68 -8.18 -27.2 4.41c0.44,-48.63 -15.95,-20.33 28.13,-46.21 21.36,-12.53 30.46,-16.92 46.22,-27.28 0.99,-61.65 1.64,-23.38 -16.33,-39.32l-166 26.25z"/>
   <path class="fil8" d="M6784.8 18286.95c13.65,31.15 29.03,28.43 75.03,32.23 35.34,2.92 70.79,4.8 106.15,7.44 75.04,5.6 126.05,20.62 171.2,-27.24 -68.27,-14.91 -98.75,-7.82 -180.23,-7.28 -60.11,0.42 -134.24,-25.27 -172.15,-5.15z"/>
   <path class="fil9" d="M6478.52 16537.89l9.77 -9.86 20.49 27.79 12.16 0c3.9,-38.93 2.75,-30.96 25.24,-61.23l-4.04 -33.83 32.3 -3.56 20.96 -59.28 -5.32 -11.15c18.89,-26.24 64.4,-33.38 99.45,-34.58 52.87,-1.8 67.25,17.51 93.68,40.43 35.56,30.85 108.42,118.05 144.09,135.87 -3.1,-46.57 -13.54,-37.26 -24.17,-84.2 -3.86,-17.03 -4.14,-29.79 -7.96,-46.36l-14.44 -40.11c-24.14,-11.06 -89.76,-96.05 -106.46,-117.29 -80.05,-101.89 -223.35,29.91 -273.37,90.38 -48.39,58.48 -20.98,103.06 -22.38,206.98z"/>
   <path class="fil9" d="M7388.95 17114.78c26.73,26.53 274.76,175.26 320.86,220.65 36.05,13.74 31.63,19.75 66.42,12.92 7,-27.62 10.94,-45.19 4.8,-78.74 -117.37,-72.54 -270.07,-123.01 -372.23,-191.5 -1.61,2.17 -3.95,5.12 -4.82,6.55l-11.93 22c-0.65,-1.69 -2.06,5.42 -3.1,8.12z"/>
   <path class="fil9" d="M6933.52 18601.03l0.69 -24.04 23.69 -8.1 10.25 -39.66 41.98 28.41c64.27,48.21 56.77,55.87 117.86,51.16 -47.38,-88.92 -130.03,-41.84 -132.58,-161.68l-0.69 -59.63c-18.93,-34.94 9.48,-11.29 -33.24,-29.11 -0.76,76.86 7.06,117.77 -36.88,165.67 -56.63,61.74 -84.27,28.05 -64.08,123.33 36.13,-23.32 38.9,-29.17 54.53,-59.56l18.47 13.21z"/>
   <path class="fil9" d="M7452.94 17268.01c17.32,25.59 39.24,42.67 62.97,64.59 25.36,23.41 39.3,42.74 62.62,65.62 36.98,13.96 44.35,16.9 76.4,-10.17 -7.56,-46.85 9.49,-11.26 -24.92,-41.05l-210.05 -171.96 -15.29 33.11c1.15,1.63 3.03,4.73 4.37,6.49 35.51,46.67 50.63,24.07 43.9,53.37z"/>
   <path class="fil9" d="M7334.63 17259.53c20.16,25.33 42.25,70.2 56.74,101.24 14.01,30.04 11.74,37.25 36.42,50.33 1.46,0.77 34.25,9.91 34.49,9.94 60.56,4.84 17.93,1.14 35.32,-5.86l-99.55 -147.43c-20.88,-25.46 -25.68,-23.62 -37.61,-25.28l-25.65 -0.21 -0.16 17.27z"/>
   <path class="fil10" d="M6474.04 16756.88c45.82,105.81 -36.51,171.09 -28.01,286.49 8.15,110.58 44.32,121.84 86.39,168.2 15.02,16.57 27.36,29.94 36.68,49.96l55.73 -2.1c19.92,-46.83 -3.59,-17.71 24.64,-38.44 -38.75,-75.46 -149.39,-189.87 -54.84,-283.21l6.96 -166.63 -12.41 -99.66c-7.14,-21.96 -11.03,-19.8 -18.27,-28.19 -44.74,28.31 -79.47,60.11 -96.87,113.58z"/>
   <path class="fil10" d="M6187.78 17161.82l13.98 4.43c79.72,14.25 105.67,73.52 120.43,168.35 16.96,108.97 36.21,142.71 72.15,228.98 42.62,23.66 57.57,47.85 119.27,48.9 55.52,-11.02 102.48,-23.82 137.08,-59.28 11.78,-12.06 30.47,-34.6 41.03,-57.07 39.86,-84.82 -10.69,-78.5 -10.69,-78.5l-0.84 5.63c-26.31,39.18 -27.19,36.67 -85.89,40.62 -45.89,33.18 -87.15,48.17 -139.79,8.05 -43.52,-33.17 -48.25,-81.87 -64.47,-138.98 -30.9,-108.81 -56,-224.81 -173.73,-233.71 -35.95,17.46 -29.64,9.07 -28.53,62.58z"/>
   <path class="fil10" d="M6259.92 16531.11c-39.98,-29.9 -23.44,-52.81 -5.94,-81.79 29.34,29.38 23.72,50.85 5.94,81.79zm126.07 161.39c56.78,-6.84 36.35,-28.69 57.29,-76.89l57.88 -57.25c1.53,-0.64 5.12,-1.6 7.62,-2.54l-20.49 -27.79 -9.77 9.86 -41.28 -16.48c-0.66,-74.08 9.14,-106.09 -20.72,-170.16l-30.93 17.62c2.91,64.47 10.71,94.66 -29.16,135.86 -9.74,-11 -5.09,4.04 -10.55,-18.52 -2.42,-9.96 1.07,-14.88 2.78,-23.21 -21.78,18.5 -7.97,10.9 -21.22,44.43 -23.82,-45.18 -25.76,-93.68 0.27,-130.36 -2.87,-58.38 -5.45,-8.34 23.25,-29.65l-11.77 -55.51c-76.43,3.42 -146.97,108.4 -130.16,222.35 25.84,175.18 102.21,87.75 176.96,178.24z"/>
   <path class="fil11" d="M6073.35 18008.57c-24.34,86.3 12.16,60.42 31.19,118.94 -17.09,12.42 -27.07,3.62 -42.33,32.18 42.13,50.42 47.47,30.61 79.3,53.61 -2.03,1.68 -5.91,0.71 -6.76,4.1 -4.07,16.4 -19.26,-4.22 -25.02,38.8 45.71,30.14 49.72,6.93 96.76,4.48 47.84,-63.66 166.54,41.47 202.94,60.12l3.42 92.45 17.92 20.43c50.35,2.1 51.75,-7.74 80.66,20.24 -4.46,23.33 -3.72,13.04 -15.29,26.75 -29.71,35.25 -15.5,-6.02 -24.86,43.63 0.05,0.03 18.63,24.67 67.28,17.12 49.09,-7.62 13.41,-14.28 63.17,-29.61 -7.69,42.73 -15.97,32.59 -24.03,81.63 92.25,-3.86 65.71,-21.75 105.84,-74.67 20.96,-27.64 24.66,-16.54 48.33,-37.51 15.64,-13.83 27.8,-35.98 39.45,-53.25 -21.92,-12.66 -45.1,-2.73 -96.87,-9.42 -13.96,-36.6 -14.39,-44.01 -43,-72.14l-2.66 100c-85.43,11.47 -83.26,-21.85 -95.58,-101.43 -8.43,-54.43 14.32,-34.14 -23.89,-45.59l-0.29 75.21c-49.41,-12.12 -66.03,-41.08 -82.49,-78.45l2.22 -9.54c-31.01,12.16 -27.78,14.32 -57.05,-2.9 -6.43,-3.77 -17.67,-11.14 -26.41,-16.94 -25.55,-16.93 -38.01,-24.59 -56.61,-37.27 -59.03,-11.44 -61.86,-49.97 -65.19,-111.73l-37.09 59.44c-65.14,-30.61 -30.75,-89.52 -12.75,-150.41l-40.48 14.67 -29.92 -74.95 -4.36 0.66c-6.6,23.64 -2.85,41.35 -25.55,41.35z"/>
   <path class="fil11" d="M8002.44 17455.44c19.09,15.43 22.47,25.69 23.74,60.52 1.34,36.68 -2.46,37.31 -14.77,62.13 -96.98,113.92 -44.11,74.3 -85.23,137.56 7.76,-38.63 20.08,-41.45 26.24,-90.6 -53.98,-0.42 -57.26,22.5 -77.25,69.99 -19.02,45.14 -23.45,60.7 -31.08,110.82l8.57 139.54c27.84,-20.98 50.79,-101.22 78.97,-152.92 14.19,-26.01 22.13,-43.82 37.49,-67.46 19.31,-29.69 23.75,-43.32 40.94,-65.4l17.02 6.82c-3.52,-17 -6,-43.38 -3.01,-64.08 8.06,-55.95 15.52,-1.76 11.47,-65.18 9.8,-76.88 31.81,-277.59 72.33,-329.4l-15.59 -58.13c-44.71,37.65 -40.9,81.68 -44.18,154.13 -46.57,-21.44 -23.74,-35.7 -61.65,-65.7 -17.52,42.43 15,206.24 15.99,217.36z"/>
   <path class="fil11" d="M6994.72 18387.49l0.69 59.63c2.05,-22.35 -3.81,0.37 20.1,-10.58 8.95,10.54 102.51,78.06 119.89,85.66 -10.95,-45.33 -92.09,-83.23 -136.4,-102.46 17.36,-11.01 -6.95,-7.46 21.4,-8.29 8.79,-0.25 21.1,4.34 29,6.98 7.77,-6.58 15.63,-19.2 53.67,-11.46 33.19,6.75 75.64,61.72 174.17,29.96 32.89,-10.6 51.29,-30.18 88.68,-50.65 36.44,-19.95 71.85,-26.72 106.09,-46.92 -16.37,0.29 -12.4,4.39 -12.4,-11.77l-68.42 -13.05c28.75,-19.13 11.6,2.18 25.36,-25.48 -53.37,-8.9 -104.41,0.63 -150.79,18.51 -54.8,21.13 -56.48,55.62 -105.04,74.84l-166 5.08z"/>
   <path class="fil11" d="M5863.19 17600.16c-2.62,67.16 0.89,49.59 12.24,109.14l-10.92 2.9 -37.17 -4.68 1.28 44.62c21.16,20.87 36.78,35.01 55.06,53.66 -24.88,12.11 -29.69,-7.9 -38.97,32.17 23.25,20.23 140.16,50.78 147.74,51.43 13.12,9.65 8.45,-6.55 19.71,29.12l25.73 42.18c25.92,0 19.29,6.03 16.6,-20.96l-33.35 -48.19c-49.36,-39.05 -44.92,-62.04 -39.04,-141.96 -33.48,25.9 -19.05,34.57 -62.06,40.53 -24.58,-48.4 -11.74,-62.52 10.31,-88.41l10.07 -11.53c21.39,-25.33 -2.96,-2.18 19.7,-23.79 0.13,-30.59 5.59,-10.15 -16.36,-21.47 -35.23,8.39 -9.68,1.72 -16.93,-21.01 -1.46,-4.6 -4.35,-35.94 -5.09,-43.3 -17.6,-17.61 10.74,-7.17 -21.08,-8.33l-37.47 27.88z"/>
   <path class="fil11" d="M5841.96 17414.53c9.87,-81.99 11.45,-81.17 38.34,-144.68l-53.93 8.72c-17.95,-120.74 48.5,-68.83 82.88,-114.7 -37.27,11.55 -30.13,-7.89 -40.64,-33.62 9.35,-15.48 1.07,-1.36 26.99,-7.3l25.93 -58.62c-80.9,6.46 -95.63,20.11 -99.58,101.01 -28.45,-11.35 -22.22,-13.91 -43.51,-32.95 -14.55,52.88 -17.41,57.12 3.24,105.05 -2.07,0.88 -5.81,-1.46 -6.7,0.91 -12.01,31.66 -2.04,-20.05 -42.44,9.81 11.61,87.49 26.48,17.86 109.42,166.37z"/>
   <path class="fil11" d="M7573.9 18223.92l-8.45 33.03 24.16 0.91c6.36,-37.86 -9.37,-8.04 31.52,-45.44 68.03,-62.24 35.21,-11.9 112.38,-80.22l35.37 -31.07c17.42,-11.52 3.71,-7.95 31.24,-12.74l11.65 5.1c9.23,-33.34 21.72,-49.16 22.41,-78.56l-14.15 -5.32c-1.47,1.42 -3.94,1.55 -4.66,3.98 -6.82,23.05 -81.03,-4.57 -90.99,74.97 -10.75,20.03 -2.28,10.91 -26.71,29.82l-86.56 72.12c-1.67,-6.16 -0.66,-26.39 6.28,-44.48l91.45 -121.88c7.62,-30.02 10.66,-20.5 -1.21,-45.12 -27.19,15.43 -19.74,14.16 -39.65,55.96 -24.31,51.09 -15.98,21.1 -44.38,51.55 -27.98,30 -38.86,104.19 -49.7,137.39z"/>
   <path class="fil11" d="M8057.23 17686.38c-73.97,56.45 -39.75,67.08 -95.98,157.97 -28.27,45.69 -19.51,9.84 -37.58,66.63 32.68,-14.74 17.78,-4.69 38.48,-23.4l52.38 -86.28c8.74,-15.64 24.12,-37.27 33.57,-50.92l44.51 -62.48c8.17,-25.19 2.79,-2.11 -9.65,-11.45l-25.73 9.93z"/>
   <path class="fil11" d="M7802.53 18125.22c-23.08,22.69 -4.48,6.32 -20.58,24 -52.77,57.92 -105.85,112.96 -192.34,108.64 -5.84,27.34 95.16,7.91 126.6,-14.23 27.19,-19.16 30.8,-29.31 50.3,-46.56l50.48 -49.48 6.64 -23.94 0.93 -8.44 -22.03 10.01z"/>
   <path class="fil12" d="M7187.29 16896.7c52.02,7.97 16.83,-4.53 48.44,16.82 13.1,-14.26 11.74,-6.61 15.77,-28.28 0.06,-0.29 0.9,-22.69 -0.03,-26.24 -0.87,-3.36 -2.59,-6.26 -3.76,-9.36 -1.25,-3.3 -9.94,-16.64 -11.87,-19.64 54.45,20.45 29.71,11.08 63.61,52.78 32.64,40.13 43.72,21.89 27.85,86.63l-26.5 -12.89c11.09,29.29 -9.82,10.92 29.32,32.8l22.91 -69.1c34.52,21.11 51.17,41.86 107.95,48.73 17.16,-22.36 15.36,-22.91 14.14,-59.17 11.09,21.19 47.44,58.65 82.38,64.6 22.49,-36.81 25.42,-50.24 21,-97.44 18.05,15.95 41.35,44.92 65.38,38.79 26.76,-47.17 7.8,-68.16 3.39,-114.58 36.98,19.36 65.59,15.71 96.59,-14.1 -6.41,-30.44 -2.25,-26.17 -27.26,-45.81l20.87 52.82c-70.57,5.04 -49.13,18.96 -89.24,-23.71l-169.38 -121.75c-27.16,-17.17 -18.8,1.96 -28.64,-33.08 -102.81,15.59 -15.56,29.23 -135.67,-7.29 -4.86,-1.48 -9.51,-2.59 -14.36,-3.44 17.33,58.85 -5.62,16.47 31.36,56.64 32.77,35.56 4.07,26.99 43.65,18.43l-12.82 19.68c-37.75,52.95 -56.26,22.3 -137.26,6.92 28.05,70.17 40.21,32.75 63.45,70.65 24.5,39.94 6.43,3.59 5.66,31.38 -30.57,13.99 -57.5,2.04 -101.28,-10.66l19.51 41.84c10.81,19.89 10.14,18.23 20.68,33.17l-45.84 23.86z"/>
   <path class="fil12" d="M6678.15 17291.76c31.31,16.76 25.05,16.02 29.9,52.93 -18.47,9.97 -18.54,-4.36 -50.15,32.21 0.39,-1.59 22.91,-13.68 1.9,-4.53 -0.12,0.05 -2.26,1.21 -2.4,1.28 -0.25,0.13 -2.66,2.28 -4.17,3.14 12.08,-33.77 20.89,-47.88 24.92,-85.03zm-109.05 -30.23c1.42,35.77 0.25,67.96 4.19,104.62 4.91,45.69 16.72,49.07 21.01,97.73 58.7,-3.95 59.58,-1.44 85.89,-40.62 -4.65,-10.94 -7.5,0.34 -1.2,-13.91l16.94 -24.62c-13.49,17.88 -5.94,10.98 -14.9,32.9 0,0 50.55,-6.32 10.69,78.5 -10.56,22.47 -29.25,45.01 -41.03,57.07 -34.6,35.46 -81.56,48.26 -137.08,59.28 11.28,8.03 5.53,7.53 27.39,12.01 28.23,5.79 12.59,2.45 39.81,1.44 32.23,-1.17 17.59,-13.32 39.37,7.19 -2.35,-32.56 23.08,-26.37 47.56,-41.4 46.77,-28.71 -3.68,-20.04 49.82,-34.65 11.35,-45.2 -0.52,0.33 9.63,-27.21l20.17 -66.08c29.59,-77.91 98.69,-41.84 169.38,-37.35 95.49,6.05 28.93,-109.16 84.93,-120.64 -6.4,-42.13 20.42,-20.87 -23.26,-36.12 -9.4,33.38 -8.05,46.67 -16.07,82.51l-21.35 58.85c-9.05,-17.57 -4.95,-1.88 -7.08,-36.17 -0.05,-0.8 1.54,-38.87 1.55,-40.84l-20.48 9.49c-1.94,0.7 -5.7,2.67 -7.49,3.11 -35.19,8.53 9.43,25.41 -12.87,-12.5l-83.21 -60.99c-63.62,4.56 -55.6,-28.01 -94.17,-64.05l-11.72 -9.21c-29.81,-27.48 -22.5,-32.38 -42.74,-63.42l-68.74 -81.12c-11.61,-23.02 -1.99,-82.72 0.59,-117.55 -94.55,93.34 16.09,207.75 54.84,283.21 -28.23,20.73 -4.72,-8.39 -24.64,38.44l-55.73 2.1z"/>
   <path class="fil12" d="M7074.58 17463.64c17.13,61.01 -5,9.4 28.98,20.45 3.47,60.27 28.21,124.03 -6.43,161.25 -33.34,35.81 -77.62,26.38 -93.15,80.51l-0.77 30.89c14.76,-37.63 3.01,0.96 18.1,-18.58l20.97 16.78c0.1,0.04 5.33,-8.6 28.69,7.97l-13.87 46.02c80.83,29.39 91.25,-196.59 220.06,-82.68 24.2,1.02 11.81,-3.64 34.31,5.32l38.07 19.67c-25.88,-48.43 -21.82,-43.8 -12.32,-90.22 -79.05,-32.57 -89.94,-23.37 -112.71,-113.8 -4.56,-16.39 -2.73,-21.95 -7.01,-32.96 -10.64,-27.33 -35.78,-56 -69.68,-59.89 -0.84,-0.1 -3.58,0.47 -4.37,0.37 -22.67,-3.07 -32.21,-18.54 -47.02,-24.22 -13.78,37.1 2.81,16.94 -21.85,33.12z"/>
   <path class="fil12" d="M6385.99 16692.5c37.92,48.67 42.65,44.74 53.52,93.66 2.07,-1.83 4.98,-7.77 5.9,-5.81 3.64,7.77 9.87,-9.18 11.58,-10.62 11.14,-9.3 -1.53,-1.87 17.05,-12.85 17.4,-53.47 52.13,-85.27 96.87,-113.58 7.24,8.39 11.13,6.23 18.27,28.19 7.7,31.23 11.09,58.74 13.95,83.32 13.7,-14.95 28.26,-3.31 18.63,-76.75 -1.36,-10.38 -5.18,-29.4 -7.07,-36.95 -9.99,-40.01 -9.26,-35.54 -32.33,-48.21 -49.59,-27.24 -39.69,-13.35 -61.42,-37.08l-12.16 0c-2.5,0.94 -6.09,1.9 -7.62,2.54l-57.88 57.25c-20.94,48.2 -0.51,70.05 -57.29,76.89z"/>
   <path class="fil12" d="M6286.94 17401.34l62.26 121.32c5.98,18.07 9.44,37.49 14.98,56.08l30.16 -15.16c-35.94,-86.27 -55.19,-120.01 -72.15,-228.98 -14.76,-94.83 -40.71,-154.1 -120.43,-168.35 67.04,50.64 100.36,155.17 97.91,201.88 -1.63,31.28 -0.93,19.01 -12.73,33.21z"/>
   <path class="fil12" d="M6187.78 17161.82c-1.11,-53.51 -7.42,-45.12 28.53,-62.58 -18.48,-66.36 -138.43,-43.99 -161.76,-33.38 2.15,50.01 1.39,30.97 50.29,59.13 33.06,19.05 41.67,32.41 82.94,36.83z"/>
   <path class="fil12" d="M7439.48 16593.52c-11.81,-10.94 -21.05,-24.6 -30,-36.14 40.85,10.13 52.56,20.47 83.67,32.69l9.8 -29.97c0.91,-18.04 -16.28,38.64 0.87,-30.37 -87.19,16.46 -103.19,-0.68 -182.19,-10.73l30.84 36.97c8.93,7.03 13.5,4.75 26.47,13.83 14.57,10.19 21.36,21.79 21.52,21.91 12.84,9.63 -4.11,5.28 11.78,9.04 2.06,0.5 5.83,0.27 7.86,0.31 2.47,0.06 6.94,-2.59 9.11,-2.88 2.55,-0.34 6.88,-3.03 10.27,-4.66z"/>
   <path class="fil12" d="M7289.35 17308.51c11.61,-24.2 13.86,-28.61 32.32,-48.3 -10.32,-15.3 33.67,-43.76 -48.05,25.16 1.52,-19.59 4.63,-20.71 -0.16,-37.4 -13.65,-47.48 2.4,-2.43 -17.24,-23.6 -5.17,94.6 10.85,77.65 33.13,84.14z"/>
   <path class="fil12" d="M6259.92 16531.11c17.78,-30.94 23.4,-52.41 -5.94,-81.79 -17.5,28.98 -34.04,51.89 5.94,81.79z"/>
   <path class="fil12" d="M6963.41 17151.65c18.72,31.34 23.17,58.55 68.26,62.54 -23.98,-48.87 -21.34,-61.99 -56,-64.69 -7.37,-0.56 -11.83,2.08 -12.26,2.15z"/>
   <path class="fil13" d="M6880.73 16357.82l14.44 40.11c3.82,16.57 4.1,29.33 7.96,46.36 10.63,46.94 21.07,37.63 24.17,84.2 -35.67,-17.82 -108.53,-105.02 -144.09,-135.87 -26.43,-22.92 -40.81,-42.23 -93.68,-40.43 -35.05,1.2 -80.56,8.34 -99.45,34.58 61.39,7.74 123.05,23.65 169.95,57.11 -0.95,43.76 -10.23,72.07 -21.25,112.71 -26.54,97.73 -11.45,75.05 -44.33,82.23 3.55,29.16 23.6,17.15 61.75,35.49l18.95 82.57 84.77 -12.78c13.81,55.21 21.26,68.29 57.06,96.74 38.37,-53.38 52.84,-38.24 85.41,-115.68 89.97,-213.9 -25.63,-395.55 -40.44,-533.3 96.53,3.28 284.94,43.86 361.97,77.71 68.12,29.93 103.8,22.54 166.32,48.22 83.49,34.25 100.2,63.36 147.39,67.94 -106.96,-157.06 -284.78,-177.61 -335.08,-201.43 -34.89,-16.53 -128.58,-105.73 -302.87,-94.69 -49.69,3.14 -77.54,6.21 -111.12,39.98 -49.96,50.23 -49.6,11.8 -83.87,78.36 13.6,51.09 59.97,75.63 76.04,149.87z"/>
   <path class="fil13" d="M7368.56 17185.89l84.38 82.12c6.73,-29.3 -8.39,-6.7 -43.9,-53.37 -1.34,-1.76 -3.22,-4.86 -4.37,-6.49l15.29 -33.11c-45.04,-34 -42.97,-16.59 -60.83,-75.32 19.04,27.93 -6.62,1.46 29.82,15.06 1.04,-2.7 2.45,-9.81 3.1,-8.12l11.93 -22c0.87,-1.43 3.21,-4.38 4.82,-6.55 -27.92,-29.68 -67.16,-51.2 -78.68,-88.79 -39.14,-21.88 -18.23,-3.51 -29.32,-32.8l-65.07 -43c-31.61,-21.35 3.58,-8.85 -48.44,-16.82l11.05 50.51 -49.51 5.8c38.89,21.32 98.23,77.36 126.27,105.86 35.97,36.53 75.18,95.19 105.09,120.4l-11.63 6.62z"/>
   <path class="fil14" d="M6963.41 17151.65c0.43,-0.07 4.89,-2.71 12.26,-2.15 34.66,2.7 32.02,15.82 56,64.69 -45.09,-3.99 -49.54,-31.2 -68.26,-62.54zm476.07 -558.13c-3.39,1.63 -7.72,4.32 -10.27,4.66 -2.17,0.29 -6.64,2.94 -9.11,2.88 -2.03,-0.04 -5.8,0.19 -7.86,-0.31 -15.89,-3.76 1.06,0.59 -11.78,-9.04 -0.16,-0.12 -6.95,-11.72 -21.52,-21.91 -12.97,-9.08 -17.54,-6.8 -26.47,-13.83l-30.84 -36.97c79,10.05 95,27.19 182.19,10.73 -17.15,69.01 0.04,12.33 -0.87,30.37l-9.8 29.97c-31.11,-12.22 -42.82,-22.56 -83.67,-32.69 8.95,11.54 18.19,25.2 30,36.14zm-745.03 45.3c7.68,-50.48 14.41,-77.85 2.41,-128.42 -22.83,-11.59 -47.94,-17.99 -81.8,-23.31 -15.75,10.64 -12.57,-17.19 -12.03,10.09 0,-26.09 7.39,-21.07 -15.81,-21.07l-16.31 59.83c-31.32,-21.95 -15.38,7.74 -24.73,-41.35 -22.49,30.27 -21.34,22.3 -25.24,61.23 21.73,23.73 11.83,9.84 61.42,37.08 23.07,12.67 22.34,8.2 32.33,48.21 1.89,7.55 5.71,26.57 7.07,36.95 9.63,73.44 -4.93,61.8 -18.63,76.75 -2.86,-24.58 -6.25,-52.09 -13.95,-83.32l12.41 99.66 33.66 -14.05c61.05,56.23 71.15,179.39 111.82,259.18 37.55,73.66 109.56,123.35 64.34,256.85l83.21 60.99c22.3,37.91 -22.32,21.03 12.87,12.5 1.79,-0.44 5.55,-2.41 7.49,-3.11l20.48 -9.49c-0.01,1.97 -1.6,40.04 -1.55,40.84 2.13,34.29 -1.97,18.6 7.08,36.17l21.35 -58.85c8.02,-35.84 6.67,-49.13 16.07,-82.51 43.68,15.25 16.86,-6.01 23.26,36.12 1.11,1.99 3.15,2.78 3.68,5.76 1.27,7.1 68.88,60.93 69.23,152.09 24.66,-16.18 8.07,3.98 21.85,-33.12 14.81,5.68 24.35,21.15 47.02,24.22 0.79,0.1 3.53,-0.47 4.37,-0.37 33.9,3.89 59.04,32.56 69.68,59.89 4.28,11.01 2.45,16.57 7.01,32.96l58.44 -94.9c28.68,-73.36 -0.45,-67.76 6.4,-143.81 -22.28,-6.49 -38.3,10.46 -33.13,-84.14 19.64,21.17 3.59,-23.88 17.24,23.6 4.79,16.69 1.68,17.81 0.16,37.4 81.72,-68.92 37.73,-40.46 48.05,-25.16l12.96 -0.68 0.16 -17.27 25.65 0.21 -12.27 -42.16 20.39 -14.42 11.63 -6.62c-29.91,-25.21 -69.12,-83.87 -105.09,-120.4 -28.04,-28.5 -87.38,-84.54 -126.27,-105.86l49.51 -5.8 -11.05 -50.51 45.84 -23.86c-10.54,-14.94 -9.87,-13.28 -20.68,-33.17l-19.51 -41.84c43.78,12.7 70.71,24.65 101.28,10.66 0.77,-27.79 18.84,8.56 -5.66,-31.38 -23.24,-37.9 -35.4,-0.48 -63.45,-70.65 81,15.38 99.51,46.03 137.26,-6.92l12.82 -19.68c-39.58,8.56 -10.88,17.13 -43.65,-18.43 -36.98,-40.17 -14.03,2.21 -31.36,-56.64 4.85,0.85 9.5,1.96 14.36,3.44 120.11,36.52 32.86,22.88 135.67,7.29 9.84,35.04 1.48,15.91 28.64,33.08l169.38 121.75c40.11,42.67 18.67,28.75 89.24,23.71l-20.87 -52.82 -73.26 -49.3c46.5,-1.26 16.45,-9.77 48.46,12.43l28.06 25.03c48.95,-0.19 15.13,-64.86 22.37,-96.13 21.79,-94.24 40.08,-62.95 -60.42,-216.31 -13.31,-20.31 -0.9,-7.82 -14.06,-18.72 -19.3,-16.02 -6.79,-7.31 -30.12,-12.51 -47.19,-4.58 -63.9,-33.69 -147.39,-67.94 -62.52,-25.68 -98.2,-18.29 -166.32,-48.22 -77.03,-33.85 -265.44,-74.43 -361.97,-77.71 14.81,137.75 130.41,319.4 40.44,533.3 -32.57,77.44 -47.04,62.3 -85.41,115.68 -35.8,-28.45 -43.25,-41.53 -57.06,-96.74l-84.77 12.78 -18.95 -82.57c-38.15,-18.34 -58.2,-6.33 -61.75,-35.49z"/>
   <path class="fil14" d="M7235.73 16913.52l65.07 43 26.5 12.89c15.87,-64.74 4.79,-46.5 -27.85,-86.63 -33.9,-41.7 -9.16,-32.33 -63.61,-52.78 1.93,3 10.62,16.34 11.87,19.64 1.17,3.1 2.89,6 3.76,9.36 0.93,3.55 0.09,25.95 0.03,26.24 -4.03,21.67 -2.67,14.02 -15.77,28.28z"/>
   <path class="fil15" d="M6624.75 17861.03c-9.59,45.99 -0.71,34.34 -32.4,49.92 -34.88,-16.5 -21.16,-1.41 -32.32,-45.23l21.58 -25.92 43.14 21.23zm-484.71 -424.17c-14.47,188 72.52,196.04 196.64,237.92 5.74,11.88 7.59,19.27 12.61,29.9l11.4 21.68c1.36,1.93 3.32,4.41 4.79,6.21 84.44,103.92 178.75,83.04 192.83,94.62 23.48,19.28 -12.96,11.4 -4.06,60.35 9.24,50.82 22.82,7.38 23.5,62.5 20.18,-9.22 -5.11,-10.41 25.17,-6.68 35.79,4.42 0.99,-5.44 22.63,9.63 -14.1,-52.74 -0.13,-29.48 2.82,-65.42l-3.62 -26.54c-11.31,-36.08 -16.6,-27.73 -47.27,-44.59l68.45 -20.48c14.81,40.25 21.85,42.77 52.51,65.21 23.44,17.15 58.86,40.97 74.71,43.68 81.6,13.96 128.94,-6.09 203.82,-27.15l-11.55 91.21c16.11,27.34 9.65,48.43 11.87,95.1l89.81 1.18c8.72,-48.4 3.36,-65.8 43.89,-86.57 48.72,-57.58 23.28,-2.21 107.94,-49.61 19.07,-10.68 29.52,-11.5 52.02,-15.27 9.44,9.82 14.76,16.78 31.19,29.14l42.92 23.09c84.79,24.83 272.48,23.79 271.62,-123.72l-59.15 3.89c-33.11,-33.51 -44.62,-26.68 -39.59,-93.96 -16.82,-24 3.86,-6.77 -29.93,-16.22l-50.11 27.47c-23.21,4.46 19.49,-11.55 -6.03,-0.52 -8,52.83 -28.93,83.25 -81.21,79.06l-7.05 -60.64c-27.85,-42.3 3.3,-3.68 -19.1,-23.86 -0.87,-0.79 -15.83,-9.66 -19.31,-11.88 -13.4,-8.53 -17.43,-11.22 -28.04,-19.34 -128.81,-113.91 -139.23,112.07 -220.06,82.68l-15.59 33.42 -28.15 -33.52c-1.86,-1.07 -10.57,-1.99 -13.98,-3.03l3.83 -49.06 0.77 -30.89c-33.41,-5.95 -45.02,-15.33 -68.47,-38.29 -48.3,-47.32 -82.78,-91.87 -193.07,-98.25 -57.06,25.16 -51.88,44.56 -92.73,72.63l-29.53 -28.82c-21.78,-20.51 -7.14,-8.36 -39.37,-7.19 -27.22,1.01 -11.58,4.35 -39.81,-1.44 -21.86,-4.48 -16.11,-3.98 -27.39,-12.01 -61.7,-1.05 -76.65,-25.24 -119.27,-48.9l-30.16 15.16c-5.54,-18.59 -9,-38.01 -14.98,-56.08l-62.26 -121.32c-38.97,-39.23 -14.03,-18.19 -68.81,-35.22l-17.91 -49.39c4.63,45.28 12.41,38.39 8.65,96.75 -20.73,8.18 -48.99,14.51 -68.83,23.38z"/>
   <path class="fil15" d="M7049.4 18418.43c240.87,196.96 267.19,102.17 407.74,49.01 -39,-35.82 -26.01,-14.78 -66.3,-32.53 54.25,-32.99 68.79,-38.11 107.54,-82.94 -0.16,-0.1 -26.35,-12.6 -26.37,-12.61 -34.24,20.2 -69.65,26.97 -106.09,46.92 -37.39,20.47 -55.79,40.05 -88.68,50.65 -98.53,31.76 -140.98,-23.21 -174.17,-29.96 -38.04,-7.74 -45.9,4.88 -53.67,11.46z"/>
   <path class="fil15" d="M6426.54 18296.19c16.46,37.37 33.08,66.33 82.49,78.45l0.29 -75.21c38.21,11.45 15.46,-8.84 23.89,45.59 12.32,79.58 10.15,112.9 95.58,101.43l2.66 -100c28.61,28.13 29.04,35.54 43,72.14 51.77,6.69 74.95,-3.24 96.87,9.42l93.45 -9.9c32.74,-6.7 2.62,6.18 16.09,-19.02 -216.42,9.94 -189.91,-88.47 -287.64,-112.79l-1.54 77.16c-30.1,-51.12 -12.13,-56.55 -63.79,-84.47l-44.44 -1.7 10.36 51.38c-39.11,-19.55 -14.09,-20.75 -67.27,-32.48z"/>
   <path class="fil15" d="M8035.54 17537.18c35.51,-22.15 95.87,-86.93 118.55,-121.85 48.25,-74.29 14.85,-103.93 1.67,-187.91l-36.01 15.46 -11.88 -35.1c-40.52,51.81 -62.53,252.52 -72.33,329.4z"/>
   <path class="fil15" d="M7852.66 17945.4l-20.97 56.82 75.47 -63.35c137.3,-74.38 149.04,-70.79 185.45,-250.97l-44.51 62.48c-9.45,13.65 -24.83,35.28 -33.57,50.92l-52.38 86.28c-20.7,18.71 -5.8,8.66 -38.48,23.4 18.07,-56.79 9.31,-20.94 37.58,-66.63 56.23,-90.89 22.01,-101.52 95.98,-157.97 -46.87,5.42 -19.07,9.19 -30.15,-19.94l-17.02 -6.82c-17.19,22.08 -21.63,35.71 -40.94,65.4 -15.36,23.64 -23.3,41.45 -37.49,67.46 -28.18,51.7 -51.13,131.94 -78.97,152.92z"/>
   <path class="fil15" d="M5841.96 17414.53l6.2 45.67c17.1,-6.67 10.9,14.22 14.91,-22.07 0.61,-145.42 92.16,-164.45 41.98,-200.64l-21.35 -7.94c32.26,-20.88 39.31,-25.44 48.21,-77.9l-36.15 1.72 -0.16 -30.42c-25.92,5.94 -17.64,-8.18 -26.99,7.3 10.51,25.73 3.37,45.17 40.64,33.62 -34.38,45.87 -100.83,-6.04 -82.88,114.7l53.93 -8.72c-26.89,63.51 -28.47,62.69 -38.34,144.68z"/>
   <path class="fil15" d="M7589.61 18257.86c86.49,4.32 139.57,-50.72 192.34,-108.64 16.1,-17.68 -2.5,-1.31 20.58,-24l-2.41 -36.83c-27.53,4.79 -13.82,1.22 -31.24,12.74l-35.37 31.07c-77.17,68.32 -44.35,17.98 -112.38,80.22 -40.89,37.4 -25.16,7.58 -31.52,45.44z"/>
   <path class="fil15" d="M5943.76 17644.92c21.95,11.32 16.49,-9.12 16.36,21.47 -22.66,21.61 1.69,-1.54 -19.7,23.79l-10.07 11.53c-22.05,25.89 -34.89,40.01 -10.31,88.41 43.01,-5.96 28.58,-14.63 62.06,-40.53 -5.88,79.92 -10.32,102.91 39.04,141.96l-18.61 -107.15 -4.19 -74.08c-50.49,1.57 8.73,30.2 -37.6,9.69 15.63,-47.15 22.34,-58.35 0.1,-108.05 -20.44,21.5 -14.83,24.57 -17.08,32.96z"/>
   <path class="fil15" d="M7589.61 18257.86l-24.16 -0.91c-34.89,24.42 -10.84,33.75 -59.49,59.8l23.51 1.98c23.42,-31.91 36.9,-31.63 70.26,-33.14 148.56,-6.71 184.72,36.17 217.26,-138l-50.48 49.48c-19.5,17.25 -23.11,27.4 -50.3,46.56 -31.44,22.14 -132.44,41.57 -126.6,14.23z"/>
   <path class="fil15" d="M6288.69 18229.54l-34.85 -69.48 -21.34 -75.44c-13.13,-5.07 2.33,-10.49 -19.02,-2.19l-13.39 8.27c-1.58,0.96 -4.36,4.22 -6.72,6.12 3.59,-76.57 -12.24,-61.98 -19.71,-69.98 -18,60.89 -52.39,119.8 12.75,150.41l37.09 -59.44c3.33,61.76 6.16,100.29 65.19,111.73z"/>
   <path class="fil15" d="M7724.38 18088.56c-26.52,-18.12 -9.55,6.7 -15.68,-25.92 -1.94,-10.32 -0.15,-28.59 0.14,-38.5l-91.45 121.88c-6.94,18.09 -7.95,38.32 -6.28,44.48l86.56 -72.12c24.43,-18.91 15.96,-9.79 26.71,-29.82z"/>
   <path class="fil16" d="M6717.56 17557.07l9.34 12.93c31.97,0.01 2.15,-3.9 15.54,19.31 110.29,6.38 144.77,50.93 193.07,98.25 23.45,22.96 35.06,32.34 68.47,38.29 15.53,-54.13 59.81,-44.7 93.15,-80.51 34.64,-37.22 9.9,-100.98 6.43,-161.25 -33.98,-11.05 -11.85,40.56 -28.98,-20.45 -0.35,-91.16 -67.96,-144.99 -69.23,-152.09 -0.53,-2.98 -2.57,-3.77 -3.68,-5.76 -56,11.48 10.56,126.69 -84.93,120.64 -70.69,-4.49 -139.79,-40.56 -169.38,37.35l-20.17 66.08c-10.15,27.54 1.72,-17.99 -9.63,27.21z"/>
   <path class="fil16" d="M6601.59 16771.15l-6.96 166.63c-2.58,34.83 -12.2,94.53 -0.59,117.55l68.74 81.12c20.24,31.04 12.93,35.94 42.74,63.42l11.72 9.21c38.57,36.04 30.55,68.61 94.17,64.05 45.22,-133.5 -26.79,-183.19 -64.34,-256.85 -40.67,-79.79 -50.77,-202.95 -111.82,-259.18l-33.66 14.05z"/>
   <path class="fil16" d="M6624.75 17861.03l3.62 26.54c-2.95,35.94 -16.92,12.68 -2.82,65.42 31.16,35.99 29.91,57.41 87.97,64.39l16.58 -40.25c26.68,-45.54 45.41,-15.08 81.67,-5.7 36.24,9.38 81.91,1 121.54,1.11l32.11 -3.63 11.55 -91.21c-74.88,21.06 -122.22,41.11 -203.82,27.15 -15.85,-2.71 -51.27,-26.53 -74.71,-43.68 -30.66,-22.44 -37.7,-24.96 -52.51,-65.21l-68.45 20.48c30.67,16.86 35.96,8.51 47.27,44.59z"/>
   <path class="fil16" d="M6624.75 17861.03l-43.14 -21.23 -21.58 25.92c11.16,43.82 -2.56,28.73 32.32,45.23 31.69,-15.58 22.81,-3.93 32.4,-49.92z"/>
   <path class="fil16" d="M6574.44 16457.2l12.78 18.91c23.2,0 15.81,-5.02 15.81,21.07 -0.54,-27.28 -3.72,0.55 12.03,-10.09l-19.66 -89.17 -20.96 59.28z"/>
   <path class="fil17" d="M6730.1 17977.13c-3.24,92.89 20.27,180.99 -2.49,274 96.13,1.55 139.94,18.51 229.2,19.7 83.53,1.09 166.14,-23.02 191.87,11.92 34.18,-0.94 16.75,6.53 38.65,-15.34 1.7,-60.92 -22.78,-154.41 6.73,-203.38 5.47,-97.16 -10.08,-86.74 -86.5,-76.35 12.76,26.14 -24.41,18.92 16.04,21.87l-8.95 7.06c-22.44,22.25 -28.33,40.09 -38.14,73.38l-119.03 -4.71c-6.8,-45.47 -3.77,-82.77 -24.17,-112.74 -39.63,-0.11 -85.3,8.27 -121.54,-1.11 -36.26,-9.38 -54.99,-39.84 -81.67,5.7z"/>
   <path class="fil18" d="M6615.06 16487.09c33.86,5.32 58.97,11.72 81.8,23.31 12,50.57 5.27,77.94 -2.41,128.42 32.88,-7.18 17.79,15.5 44.33,-82.23 11.02,-40.64 20.3,-68.95 21.25,-112.71 -46.9,-33.46 -108.56,-49.37 -169.95,-57.11l5.32 11.15 19.66 89.17z"/>
   <path class="fil19" d="M6348.66 16463c-1.71,8.33 -5.2,13.25 -2.78,23.21 5.46,22.56 0.81,7.52 10.55,18.52 39.87,-41.2 32.07,-71.39 29.16,-135.86l-17.02 6.14c-0.09,56.37 -10.46,36.58 -19.91,87.99z"/>
  </g>
 </g>
</svg>
