<?xml version="1.0" encoding="UTF-8"?>
<!DOCTYPE svg PUBLIC "-//W3C//DTD SVG 1.1//EN" "http://www.w3.org/Graphics/SVG/1.1/DTD/svg11.dtd">
<!-- Creator: CorelDRAW 2017 -->
<svg xmlns="http://www.w3.org/2000/svg" xml:space="preserve" width="22.1826mm" height="12.0226mm" version="1.1" style="shape-rendering:geometricPrecision; text-rendering:geometricPrecision; image-rendering:optimizeQuality; fill-rule:evenodd; clip-rule:evenodd"
viewBox="0 0 2218.26 1202.26"
 xmlns:xlink="http://www.w3.org/1999/xlink">
 <defs>
  <style type="text/css">
   <![CDATA[
    .fil3 {fill:#F9C62C}
    .fil1 {fill:#F1F1F0}
    .fil0 {fill:#C8CCD1}
    .fil2 {fill:#245B79}
   ]]>
  </style>
 </defs>
 <g id="Capa_x0020_1">
  <metadata id="CorelCorpID_0Corel-Layer"/>
  <g id="_2093486092800">
   <path class="fil0" d="M311.18 860.31c1.95,35.68 39.07,34.6 73.28,34.06l1409.82 0.22c46.23,0.17 96.93,9.67 111.21,-24.45 4.44,-10.61 0.63,-7.24 -0.22,-19.18 -1.49,-20.99 -0.32,-31.73 -14.76,-40.26 6.27,-14.18 8.23,-10.25 6.01,-42.33 -1.47,-21.27 -7.67,-17.64 -13.54,-33.07l-45.91 -189.42c-1.76,-6.58 -5.35,-12.67 -6.41,-18.05 -1.82,-9.28 1.48,-12.39 -3.65,-19.28l0.34 23.35c-8.43,-15.44 2.38,-21.49 -23.12,-24.03 2.03,95.82 82.3,305.77 80.87,355.52 -94.24,8.47 -205.65,4.89 -301.28,1.54 -54.88,-1.92 -48.85,22.31 -88.14,6.94 -19.35,-7.58 -525.24,-5.15 -617.18,-5.46 -33.6,-0.11 -69.81,1.05 -103,-0.04 -25.06,-0.83 -32.82,-4 -46.24,5.54 -3.08,2.19 -4.98,3.99 -9.68,3.54 -14.97,-1.43 3.84,-9.73 -29.05,-7.88 -53.93,3.02 -271.72,-7.56 -298.61,0.57 -19.19,5.8 -16.15,11.04 -44.05,7.55 -8.86,-1.1 -23.44,-3.98 -30.7,-9.59l-5.99 -5.79z"/>
   <path class="fil0" d="M311.18 860.31c5.34,-6.51 27.86,10.57 32.65,-19.58 4.18,-26.28 -1.76,-24.32 8.18,-52.92l23.75 -99.37c15.27,-65.34 29.34,-133.39 48.42,-195.79 112.5,-4.61 231.22,-2.99 344.61,-3.16 115.67,-0.17 231.38,0.03 347.05,0.89 115.71,0.85 231.43,0.78 347.14,1.27 21.52,0.09 283.35,2.43 298.4,-0.26 7.05,-1.26 11.41,-2.25 11.39,-10.09 -0.02,-5.94 -5.99,-4.54 3.6,-10.85l2.23 9.23c4.34,-1.04 8.16,-1.55 12.11,-4.4 9.05,-6.53 -0.28,1.14 1.33,-4.39l12.58 0.37c-17.09,-14.82 -79.6,-9.13 -106.62,-9.14 -269.48,-0.05 -538.86,-2.69 -808.3,-0.92 -50.08,0.32 -446.65,-1.24 -460.04,3.35 -20.11,6.89 -24.86,5.27 -33.95,24.28 -11.17,23.35 -1.03,23.42 -11.24,46.98 -8.62,19.88 -38.24,154.86 -45.33,185.53 -7.31,31.58 -14.41,23.07 -17.1,41.11 -1.88,12.64 0.46,37.73 -0.6,41.04 -2.17,6.7 0.72,0.42 -2.78,4.2l-4.6 2.92c-0.38,9.47 -1.63,18.62 -3.14,27.86 -2.7,16.58 -4.76,17.9 0.26,21.84z"/>
   <path class="fil1" d="M311.18 860.31l5.99 5.79c7.26,5.61 21.84,8.49 30.7,9.59 27.9,3.49 24.86,-1.75 44.05,-7.55 26.89,-8.13 244.68,2.45 298.61,-0.57 32.89,-1.85 14.08,6.45 29.05,7.88 4.7,0.45 6.6,-1.35 9.68,-3.54 13.42,-9.54 21.18,-6.37 46.24,-5.54 33.19,1.09 69.4,-0.07 103,0.04 91.94,0.31 597.83,-2.12 617.18,5.46 39.29,15.37 33.26,-8.86 88.14,-6.94 95.63,3.35 207.04,6.93 301.28,-1.54 1.43,-49.75 -78.84,-259.7 -80.87,-355.52 25.5,2.54 14.69,8.59 23.12,24.03l-0.34 -23.35c1.77,-16.34 -9.95,-36.09 -22.39,-37.29l-12.58 -0.37c-1.61,5.53 7.72,-2.14 -1.33,4.39 -3.95,2.85 -7.77,3.36 -12.11,4.4l-2.23 -9.23c-9.59,6.31 -3.62,4.91 -3.6,10.85 0.02,7.84 -4.34,8.83 -11.39,10.09 -15.05,2.69 -276.88,0.35 -298.4,0.26 -115.71,-0.49 -231.43,-0.42 -347.14,-1.27 -115.67,-0.86 -231.38,-1.06 -347.05,-0.89 -113.39,0.17 -232.11,-1.45 -344.61,3.16 -19.08,62.4 -33.15,130.45 -48.42,195.79l-23.75 99.37c-9.94,28.6 -4,26.64 -8.18,52.92 -4.79,30.15 -27.31,13.07 -32.65,19.58z"/>
   <path class="fil1" d="M1982.53 1207.17l234.93 0 0 -92.47c-14.75,26.53 -15.98,47.15 -65.03,54.27 -36.5,5.3 -76.09,-1.59 -111.15,3.2l-0.07 33.16c-16.02,0 -46.69,-4.67 -58.68,1.84z"/>
   <path class="fil1" d="M0.79 1207.17l234.93 0c-11.99,-6.51 -42.66,-1.84 -58.65,-1.84l-0.24 -33.16c-46.78,-6.41 -118.62,10.19 -154.2,-20.52 -10.24,-8.84 -14.19,-23.19 -21.84,-36.95l0 92.47z"/>
   <path class="fil2" d="M311.18 860.31c-5.02,-3.94 -2.96,-5.26 -0.26,-21.84 1.51,-9.24 2.76,-18.39 3.14,-27.86l4.6 -2.92c3.5,-3.78 0.61,2.5 2.78,-4.2 1.06,-3.31 -1.28,-28.4 0.6,-41.04 2.69,-18.04 9.79,-9.53 17.1,-41.11 7.09,-30.67 36.71,-165.65 45.33,-185.53 10.21,-23.56 0.07,-23.63 11.24,-46.98 9.09,-19.01 13.84,-17.39 33.95,-24.28 13.39,-4.59 409.96,-3.03 460.04,-3.35 269.44,-1.77 538.82,0.87 808.3,0.92 27.02,0.01 89.53,-5.68 106.62,9.14 12.44,1.2 24.16,20.95 22.39,37.29 5.13,6.89 1.83,10 3.65,19.28 1.06,5.38 4.65,11.47 6.41,18.05l45.91 189.42c5.87,15.43 12.07,11.8 13.54,33.07 2.22,32.08 0.26,28.15 -6.01,42.33 14.44,8.53 13.27,19.27 14.76,40.26 0.85,11.94 4.66,8.57 0.22,19.18 -14.28,34.12 -64.98,24.62 -111.21,24.45l-1409.82 -0.22c-34.21,0.54 -71.33,1.62 -73.28,-34.06zm698.98 -589.29l-2.88 67.98 -650.48 0.33c-18.88,-0.04 -36.88,1.32 -55.98,1.31 -22.79,-0.01 -28.02,-2.45 -47.32,5.87 -35.25,15.17 -24.81,8.65 -31.26,22.5 -5.22,11.22 -12.9,20.52 -17.96,35.87 -4.74,14.38 -8.28,30.75 -12.01,43.71 -42.53,147.63 -93.55,309.51 -138.65,457.08 -8.86,28.97 -17.84,55.11 -27.78,82.27 -5.56,15.18 -18.49,72.89 -25.05,81.8l0 44.96c7.65,13.76 11.6,28.11 21.84,36.95 35.58,30.71 107.42,14.11 154.2,20.52l0.24 33.16c15.99,0 46.66,-4.67 58.65,1.84l188.24 0c1.17,-9.67 2.01,-17.95 6.13,-27.36 0.81,-1.86 1.31,-2.93 2.27,-4.62 1.61,-2.83 1.58,-2.74 2.95,-4.43 116.39,-0.09 1343.51,-2.55 1347.63,0 0.38,0.46 0.88,0.62 1.03,1.46l10.32 34.95 188.24 0c11.99,-6.51 42.66,-1.84 58.68,-1.84l0.07 -33.16c35.06,-4.79 74.65,2.1 111.15,-3.2 49.05,-7.12 50.28,-27.74 65.03,-54.27l0 -44.96c-6.85,-9.29 -19.49,-67.12 -25.68,-83.42 -10.07,-26.52 -18.87,-53.44 -27.66,-82.38 -16.72,-54.97 -35,-111.2 -50.51,-166.52 -15.56,-55.5 -34.6,-110.71 -50.47,-166.68 -8.22,-29 -17.9,-55.64 -25.85,-84.05l-23.87 -83.46c-5.55,-16.16 -12.91,-24.04 -18.69,-37.44 -5.3,-12.28 -5.4,-8.43 -33.08,-20.67 -15.42,-6.82 -29.5,-4.5 -48.7,-4.48 -19.05,0.03 -32.79,-1.72 -51.49,-1.66l-651.57 0 -2.03 -96.96c-13.71,-3.47 -187.2,-4.22 -193.77,0.51 -4.08,4.54 -2.43,3.69 -3.02,12.2 -0.37,5.26 -0.65,11 -0.91,16.29z"/>
   <path class="fil3" d="M1010.16 271.02c0.26,-5.29 0.54,-11.03 0.91,-16.29 0.59,-8.51 -1.06,-7.66 3.02,-12.2 6.57,-4.73 180.06,-3.98 193.77,-0.51 15.14,-0.34 37.24,-1.7 51.46,-3l156.56 3.08c70.15,0 140.31,0 210.47,0l212.72 -1.87c171.77,-0.22 161.2,-94.74 246.33,-215.95 8.46,-12.04 13.35,-6.22 13.35,-27.36l-756.83 -0.08c-15.43,-0.01 -19.79,3.69 -35.72,3.64l-317.98 -0.08c-27.41,0 -53.14,-1.8 -80.61,-1.8 -18.8,0 -60.92,4.24 -73.3,-3.51l-721.6 0c1.68,29.26 24.67,108.81 43.95,128.58 7.3,7.48 14.54,13.62 21.31,21.21 3.73,4.18 4.13,6.12 8.72,11.47l53.93 55.2 0.73 -7.45c39.16,11.65 26.2,38 164.71,38 66.89,-0.01 136.97,1.78 201.47,1.69l302.32 -1.65c32.81,0.08 68.43,-4.1 98.6,-5.17 0.21,10.65 -1.37,25.89 1.71,34.05z"/>
  </g>
 </g>
</svg>
