<!-- Generated by IcoMoon.io -->
<svg version="1.1" xmlns="http://www.w3.org/2000/svg" width="32" height="32" viewBox="0 0 32 32">
<title>boleto-avion</title>
<path d="M2.526 10.343c0-0.853 0.429-1.306 1.272-1.306h24.39c1.457 0 1.305 1.268 1.267 2.521-4.126 1.074-4.046 7.818 0.001 8.868 0.025 1.219 0.206 2.536-1.268 2.536h-24.39c-0.873 0-1.272-0.488-1.272-1.32v-11.301zM3.194 7.932c-0.851 0.212-1.392 0.662-1.675 1.395-0.281 0.727-0.172 1.996-0.172 2.851l-0.001 9.121c-0.002 1.065 0.163 1.69 0.793 2.231 0.736 0.633 1.266 0.593 2.462 0.593h21.291c1.744 0 3.896 0.398 4.591-1.506 0.156-0.43 0.263-2.343 0.128-2.839-0.178-0.657-0.852-0.146-1.957-1.068-1.735-1.448-1.398-5.306 0.952-5.977 1.143-0.326 1.029 0.026 1.031-1.989 0.002-1.1-0.143-1.673-0.756-2.267-0.622-0.601-1.34-0.615-2.44-0.615h-21.291c-0.721 0-2.363-0.078-2.956 0.069z"></path>
<path d="M14.308 15.703l-0.018 0.138 0.13-0.017c0.327-0.133 0.823-0.432 1.145-0.605 1.045-0.561 2.798-1.299 3.028-2.195 0.152-0.593-0.237-1.003-0.684-1.069-0.431-0.064-1.118 0.137-1.435 0.273-0.749 0.322-1.542 0.796-2.272 1.175-1.531 0.793-2.958 1.523-4.561 2.376-2.964 1.577-1.882 1.196-3.847 0.944-0.53-0.068-1.131-0.053-1.417 0.274-0.046 0.4 0.335 0.603 0.556 0.817l2.138 1.969c0.223-0.026 2.171-1.119 2.475-1.287 0.298-0.165 1.058-0.443 1.14-0.756 0.058-0.224 0.072-0.58 0.106-0.813 0.104-0.7 0.031-0.606 0.354-0.56 0.173 0.298-0.364 3.004-0.368 3.634 0.611-0.122 0.892-0.516 1.151-0.957l1.506-2.571c0.249-0.439 0.553-1.132 0.839-1.109 0.116 0.16 0.132 0.145 0.037 0.341z"></path>
<path d="M7.993 14.3c0.128 0.154 1.649 1.046 1.818 1.027 0.097-0.011 1.755-0.931 1.893-1.027-0.246-0.153-1.495-0.168-1.894-0.204-0.691-0.062-1.397-0.222-1.817 0.204z"></path>
<path d="M22.42 19.406c0.085 0.352 0.733 0.498 0.781-0.111 0.016-0.206 0.018-1.267-0.025-1.423-0.121-0.445-0.702-0.36-0.765 0.104-0.020 0.145-0.018 1.315 0.009 1.431z"></path>
<path d="M22.411 21.987c0.064 0.455 0.683 0.467 0.775 0.051 0.031-0.14 0.030-1.263 0.009-1.427-0.066-0.494-0.678-0.491-0.774-0.037-0.030 0.14-0.032 1.254-0.010 1.413z"></path>
<path d="M22.404 12.924c0 0.585-0.151 1.731 0.589 1.413 0.317-0.136 0.207-0.885 0.207-1.471 0-0.819-0.797-0.829-0.797 0.057z"></path>
<path d="M22.404 10.227c0 0.705-0.137 1.48 0.391 1.498 0.549 0.019 0.406-0.707 0.406-1.498 0-0.851-0.797-0.785-0.797 0z"></path>
<path d="M22.661 15.018c-0.365 0.142-0.255 0.712-0.257 1.176-0.002 0.415-0.007 0.989 0.521 0.825 0.393-0.122 0.274-0.71 0.277-1.169 0.002-0.434 0.008-1.043-0.541-0.831z"></path>
<path d="M14.42 15.824l-0.13 0.017 0.018-0.138c-0.103 0.103-0.014-0.065-0.096 0.113-0.034 0.075-0.021 0.073-0.033 0.14 0.092-0.017 0.055 0.014 0.133-0.034 0.092-0.056 0.046-0.031 0.107-0.098z"></path>
</svg>
