<?xml version="1.0" encoding="UTF-8"?>
<!DOCTYPE svg PUBLIC "-//W3C//DTD SVG 1.1//EN" "http://www.w3.org/Graphics/SVG/1.1/DTD/svg11.dtd">
<!-- Creator: CorelDRAW 2017 -->
<svg xmlns="http://www.w3.org/2000/svg" xml:space="preserve" width="11.5992mm" height="10.7526mm" version="1.1" style="shape-rendering:geometricPrecision; text-rendering:geometricPrecision; image-rendering:optimizeQuality; fill-rule:evenodd; clip-rule:evenodd"
viewBox="0 0 1159.92 1075.26"
 xmlns:xlink="http://www.w3.org/1999/xlink">
 <defs>
  <style type="text/css">
   <![CDATA[
    .fil0 {fill:#3D3D3F}
   ]]>
  </style>
 </defs>
 <g id="Capa_x0020_1">
  <metadata id="CorelCorpID_0Corel-Layer"/>
  <path class="fil0" d="M426.63 1040.49c-45.94,-57.89 -92.13,-139.57 -44.64,-243.94 103.62,-227.72 464.88,-110.5 398.37,145.36 -14.05,54.11 -29.28,66.37 -54.1,101.11l-299.63 -2.53zm-323.96 -468.99c5.06,31.87 -14.73,4.81 45.01,64.96 35.97,36.21 151.45,132.69 196.47,115.15 -17.94,-19.76 -91.72,-54.25 -125.38,-77.81 -42.86,-30.01 -73.25,-82.33 -116.1,-102.3 11.84,-33.04 -56.72,-120.37 -73.79,-123.59 -76.81,-14.51 31.99,102.31 46.27,123.46l27.52 0.13zm650.69 -234.32c51.89,-13.05 346.4,-205.17 383.31,118.66 13.09,114.82 -13.3,192.04 -78.18,242.31 -42.01,32.56 -103.2,66.98 -160.66,82.93 -46.46,12.89 -45.65,1.01 -63.33,25.48 14.57,5.09 354.59,-37.74 321.46,-350.42 -34.19,-322.71 -346.41,-177.26 -385.74,-145.53 -16.83,13.59 -12.22,4.17 -16.86,26.57zm-307.28 675.33l266.06 -0.7c17.61,-29 39.23,-58.89 38.78,-103.73 -131.79,-41.68 -127.82,24.54 -248.85,-13.38 -155.65,-48.79 -115.21,63.61 -55.99,117.81zm105.77 -925.3l-84.51 2.39c0.26,57.99 27.5,63.13 68.06,84.11 -2.39,154.28 14.74,167.15 -20.94,221.96 -9.42,14.49 -0.85,5.49 -13.02,22.24 -17.27,-25.91 -43.28,-72.3 -84.9,-73.93 -21.97,-0.85 -0.27,-6.96 -16.53,4.06 -2.08,21.05 5.09,8.43 9.89,23.03 23.76,72.34 11.72,35.1 41.64,52.54 36.07,21.02 14.53,0.35 15.43,26.84 1.25,36.52 33.47,122.03 18.19,193.94 -7.62,35.89 -164.81,71.08 -152.66,259.58 3.67,57.06 33.38,114.39 60.53,145.25 34.21,38.9 122.11,23.4 179.18,21.84 80.4,-2.21 226.57,44.35 243.38,-165.13 15.3,-190.65 -146.17,-228.63 -154.43,-261.54 0,-24.14 0,-48.26 -0.18,-72.4 -0.06,-7.94 -0.6,-29.43 0.05,-36.05l10.54 -36.22c7.45,-19.83 3.54,21.94 8.25,-27.56 2.67,-28.26 -4.55,-21.44 -1.26,-33.61 7,-25.92 20.98,-13.41 48.55,-26.54 10.1,-28.63 -0.27,-14.84 6,-35.46 6.77,-22.19 13.02,-3.59 12.6,-29.44l-11.14 -2.63c-54.18,2.56 -61.26,42.19 -90.29,69.39l-10.67 -19.39c-13.35,-18.5 -18.45,-14.65 -22.54,-38.99l-0.45 -180.54c36.93,-21.79 68.39,-28.43 67,-85.31l-80.33 -0.86 -1.81 -87.53 -37.4 -1.41 -6.23 87.37z"/>
 </g>
</svg>
