<!-- Generated by IcoMoon.io -->
<svg version="1.1" xmlns="http://www.w3.org/2000/svg" width="32" height="32" viewBox="0 0 32 32">
<title>bus-de-lado-one</title>
<path d="M23.152 15.068l-0.307 0.006-1.264-0.005c-0.941 0.036-1.964 0.014-2.918 0.006-0.722-0.006-0.425-0.438-1.004-0.478-0.458-0.031-1.047 0-1.519 0-1.951 0-3.946 0.040-5.889 0l-0.661-0.007c-0.46 0.023-1.266-0.124-1.554 0.158-0.44 0.43-0.245 0.326-1.393 0.326-1.13 0-2.042-0.026-2.903 0.53-0.757 0.489-3.043-0.596-3.063 1.235-0.001 0.128 0.011 0.285 0.003 0.409-0.019 0.342-0.045 0.099-0.133 0.314-0.069 0.172-0.044 1.484-0.004 1.701 0.198 0.236 0.373 0.27 0.585 0 0.065-0.334 0.030-0.994 0.030-1.364-0.001-0.497-0.114-0.324-0.159-0.559-0.014-0.073-0.009-0.607 0.003-0.69 0.052-0.373 0.352-0.592 0.74-0.607 0.42-0.016 0.984-0.017 1.401 0.007-0.154 0.307-0.803 0.752-1.178 2.328-0.254 1.066-0.321 2.099-0.335 3.259-0.007 0.591-0.080 3.139 0.094 3.504 0.215 0.45 0.586 0.559 1.231 0.558 0.617-0.001 1.234-0.001 1.851-0.001 0.054-2.688 3.998-2.779 4.127-0.025 0.382 0.079 10.156 0.026 11.046 0.026 0.846 0 3.011 0.098 3.671-0.039 0.157-0.362 0.062-0.791 0.622-1.398 1.128-1.223 3.51-0.598 3.557 1.436 0.547 0.004 2.138 0.090 2.505-0.122 0.663-0.381 0.517-1.167 0.56-2.019 0.098-1.921 0.609-7.824-1.767-8.441-0.337-0.088-4.449-0.048-5.123-0.041l-0.85-0.006zM2.693 23.063c0.020-1.366 0.069-3.325 0.367-4.607 0.279-1.197 1.149-2.422 2.597-2.299 0.085 1.557 0.006 3.342 0.006 4.923 0.001 2.13-1.105 2.055-2.969 1.982zM9.11 16.148l1.827-0.009 0.015 5.218c-2.707 0.192-3.762 1.61-4.49 0.459-0.302-0.479-0.161-2.074-0.161-2.755 0.001-0.918-0.054-2.011 0.009-2.909l2.799-0.005zM16.632 20.278l0.003 0.105 0.018 0.944-5.080 0.002 0.021-5.183 5.032-0.006 0.006 4.138zM26.297 21.356l-0.008-5.212c0.491-0.017 0.987-0.005 1.468-0.005 0.404 0 1.062-0.106 1.321 0.137 0.479 0.451 0.702 1.516 0.417 2.298-0.384 1.058-1.034 1.285-1.835 1.858l-0.455 0.299c-0.31 0.21-0.62 0.395-0.908 0.625zM22.995 16.141l2.645-0.001 0.018 5.229-4.538-0.014-0.001-5.228 1.201 0.014h0.676zM20.425 16.118l0.025 8.616h-3.154l0.021-8.603 3.108-0.013z"></path>
<path d="M25.428 23.988c-2.276 0.451-1.586 3.872 0.676 3.423 2.243-0.444 1.599-3.874-0.676-3.423zM25.426 24.649c1.386-0.467 2.063 1.664 0.684 2.106-1.392 0.447-2.088-1.632-0.684-2.106zM25.547 25.117c-0.841 0.361-0.297 1.453 0.45 1.173 0.767-0.286 0.324-1.506-0.45-1.173z"></path>
<path d="M6.501 23.997c-2.265 0.494-1.523 3.915 0.759 3.403 2.191-0.491 1.521-3.9-0.759-3.403zM6.53 24.647c1.389-0.47 2.059 1.661 0.687 2.107-1.43 0.465-2.045-1.648-0.687-2.107zM6.654 25.116c-0.846 0.358-0.289 1.455 0.45 1.173 0.762-0.29 0.325-1.501-0.45-1.173z"></path>
</svg>
