<!-- Generated by IcoMoon.io -->
<svg version="1.1" xmlns="http://www.w3.org/2000/svg" width="32" height="32" viewBox="0 0 32 32">
<title>bus-horario</title>
<path d="M22 5.312v5.688l3.812 2.251-1 1.625-4.812-2.875v-6.688h2zM21.312 17.312q2.751 0 4.719-1.937t1.969-4.688-1.969-4.719-4.719-1.969-4.688 1.969-1.937 4.719 1.937 4.688 4.688 1.937zM18 25.312q0.875 0 1.437-0.593t0.563-1.407-0.563-1.407-1.437-0.593-1.437 0.593-0.563 1.407 0.563 1.407 1.437 0.593zM4 17.312h10.812q-2.812-2.688-2.812-6.625h-8v6.625zM6 25.312q0.875 0 1.437-0.593t0.563-1.407-0.563-1.407-1.437-0.593-1.437 0.593-0.563 1.407 0.563 1.407 1.437 0.593zM21.312 1.312q3.875 0 6.625 2.751t2.751 6.625q0 3.5-2.312 6.093t-5.688 3.093v4.125q0 1.688-1.375 2.937v2.375q0 0.563-0.375 0.969t-0.937 0.407h-1.312q-0.563 0-0.969-0.407t-0.407-0.969v-1.312h-10.625v1.312q0 0.563-0.407 0.969t-0.969 0.407h-1.312q-0.563 0-0.937-0.407t-0.375-0.969v-2.375q-1.375-1.251-1.375-2.937v-13.312q0-3.188 2.751-4.281t7.937-1.093q0.251 0 0.812 0.031t0.812 0.031q2.812-4.063 7.688-4.063z"></path>
</svg>
