<!-- Generated by IcoMoon.io -->
<svg version="1.1" xmlns="http://www.w3.org/2000/svg" width="32" height="32" viewBox="0 0 32 32">
<title>bus-de-lado</title>
<path d="M23.34 9.55l-0.307 0.006-1.264-0.005c-0.941 0.036-1.964 0.014-2.918 0.006-0.722-0.006-0.425-0.438-1.004-0.478-0.458-0.031-1.046 0-1.519 0-1.95 0-3.945 0.040-5.887-0.001l-0.661-0.007c-0.46 0.023-1.266-0.124-1.554 0.158-0.44 0.43-0.245 0.326-1.393 0.326-1.13 0-2.042-0.026-2.903 0.529-0.757 0.489-3.042-0.595-3.063 1.234-0.001 0.128 0.011 0.285 0.003 0.409-0.019 0.342-0.045 0.098-0.133 0.315-0.069 0.171-0.044 1.484-0.004 1.701 0.198 0.237 0.373 0.271 0.585 0 0.065-0.334 0.030-0.993 0.030-1.364 0-0.497-0.114-0.324-0.159-0.559-0.014-0.073-0.008-0.607 0.003-0.69 0.052-0.372 0.352-0.591 0.74-0.607 0.42-0.017 0.984-0.017 1.401 0.007-0.154 0.306-0.803 0.752-1.178 2.327-0.254 1.066-0.321 2.099-0.335 3.258-0.007 0.591-0.080 3.139 0.094 3.503 0.214 0.449 0.586 0.559 1.231 0.558 0.617-0.001 1.234-0.001 1.851-0.001 0.055-2.687 3.997-2.778 4.126-0.025 0.382 0.079 10.155 0.026 11.044 0.026 0.846 0 3.010 0.098 3.67-0.039 0.158-0.362 0.062-0.791 0.622-1.398 1.128-1.223 3.509-0.598 3.557 1.435 0.547 0.004 2.137 0.090 2.504-0.122 0.663-0.381 0.517-1.167 0.56-2.019 0.098-1.921 0.608-7.822-1.767-8.439-0.337-0.088-4.448-0.047-5.122-0.040l-0.85-0.006zM2.885 17.543c0.020-1.366 0.069-3.325 0.367-4.606 0.279-1.197 1.149-2.421 2.596-2.298 0.085 1.556 0.006 3.341 0.006 4.922 0 2.13-1.105 2.055-2.969 1.982zM9.3 10.629l1.827-0.008 0.015 5.216c-2.706 0.193-3.761 1.609-4.489 0.458-0.302-0.479-0.16-2.074-0.16-2.754 0-0.918-0.054-2.010 0.009-2.908l2.798-0.005zM16.82 14.759l0.003 0.105 0.018 0.944-5.079 0.002 0.021-5.182 5.031-0.006 0.005 4.137zM26.484 15.837l-0.008-5.211c0.491-0.017 0.987-0.005 1.467-0.005 0.403 0 1.062-0.106 1.32 0.137 0.479 0.451 0.701 1.515 0.417 2.297-0.384 1.057-1.033 1.284-1.834 1.857l-0.455 0.299c-0.309 0.21-0.62 0.396-0.908 0.626zM23.183 10.622l2.644-0.001 0.018 5.228-4.538-0.015-0.001-5.226 1.201 0.014h0.676zM20.613 10.6l0.025 8.614h-3.153l0.021-8.601 3.107-0.013z"></path>
<path d="M25.615 18.467c-2.276 0.451-1.586 3.872 0.676 3.423 2.242-0.444 1.598-3.873-0.676-3.423zM25.613 19.129c1.386-0.467 2.062 1.663 0.684 2.105-1.392 0.447-2.088-1.632-0.684-2.105zM25.734 19.597c-0.841 0.361-0.297 1.452 0.45 1.173 0.767-0.287 0.324-1.505-0.45-1.173z"></path>
<path d="M6.692 18.478c-2.264 0.493-1.523 3.914 0.759 3.402 2.191-0.491 1.521-3.899-0.759-3.402zM6.721 19.127c1.388-0.469 2.059 1.66 0.687 2.107-1.429 0.465-2.044-1.647-0.687-2.107zM6.846 19.596c-0.846 0.358-0.289 1.454 0.449 1.173 0.762-0.29 0.325-1.501-0.449-1.173z"></path>
</svg>
