<!-- Generated by IcoMoon.io -->
<svg version="1.1" xmlns="http://www.w3.org/2000/svg" width="32" height="32" viewBox="0 0 32 32">
<title>bus</title>
<path d="M24 14.688v-6.688h-16v6.688h16zM22 22.688q0.875 0 1.437-0.593t0.563-1.407-0.563-1.407-1.437-0.593-1.437 0.593-0.563 1.407 0.563 1.407 1.437 0.593zM10 22.688q0.875 0 1.437-0.593t0.563-1.407-0.563-1.407-1.437-0.593-1.437 0.593-0.563 1.407 0.563 1.407 1.437 0.593zM5.312 21.312v-13.312q0-3.188 2.751-4.251t7.937-1.063 7.937 1.063 2.751 4.251v13.312q0 1.751-1.375 3v2.375q0 0.563-0.375 0.937t-0.937 0.375h-1.312q-0.563 0-0.969-0.375t-0.407-0.937v-1.375h-10.625v1.375q0 0.563-0.407 0.937t-0.969 0.375h-1.312q-0.563 0-0.937-0.375t-0.375-0.937v-2.375q-1.375-1.251-1.375-3z"></path>
</svg>
