<?xml version="1.0" encoding="UTF-8"?>
<!DOCTYPE svg PUBLIC "-//W3C//DTD SVG 1.1//EN" "http://www.w3.org/Graphics/SVG/1.1/DTD/svg11.dtd">
<!-- Creator: CorelDRAW 2017 -->
<svg xmlns="http://www.w3.org/2000/svg" xml:space="preserve" width="7.3658mm" height="7.3658mm" version="1.1" style="shape-rendering:geometricPrecision; text-rendering:geometricPrecision; image-rendering:optimizeQuality; fill-rule:evenodd; clip-rule:evenodd"
viewBox="0 0 736.58 736.58"
 xmlns:xlink="http://www.w3.org/1999/xlink">
 <defs>
  <style type="text/css">
   <![CDATA[
    .fil0 {fill:none}
    .fil1 {fill:black}
   ]]>
  </style>
 </defs>
 <g id="Capa_x0020_1">
  <metadata id="CorelCorpID_0Corel-Layer"/>
  <rect class="fil0" x="-0" y="-0" width="736.59" height="736.59"/>
  <rect class="fil0" x="-0" y="-0" width="736.59" height="736.59"/>
  <path class="fil1" d="M210.1 155.73l-16.29 0.31c-6.37,-23.91 -14.9,-35.3 -43.7,-34.96 -19.05,0.22 -31.62,3.36 -40.36,19.21 -2.69,4.87 -3.3,10.96 -5.75,14.53 -3.31,1.92 -21.32,3.44 -27.06,5.16 -23.69,7.11 -42.83,21.15 -56.92,40.2 -24.49,33.1 -19.59,64.35 -19.65,111.33 -0.05,43.6 0,87.2 0.04,130.8 0.04,48.89 -0.93,74.94 26.29,104.66 24.5,26.75 45.62,35.52 95.12,35.85 43.53,0.29 87.13,0.14 130.67,0.07l48.61 -0.08c12.94,0.28 12.53,13.16 44.15,37.7 56.8,44.1 133.89,59.72 204.96,37.56 75.1,-23.4 106.75,-74.67 115.25,-80.21 3.21,-2.11 6.84,-3.03 10.89,-5.18 4.02,-2.14 6.62,-3.55 10.3,-5.93 7.54,-4.9 12.53,-9.31 18.46,-15.25 28.49,-28.51 30.79,-48.91 30.87,-99.75 0.06,-43.61 0.14,-87.2 0.08,-130.8 -0.05,-44.76 5.07,-81.78 -15.65,-115.02 -13.9,-22.28 -43.72,-47.5 -81.27,-49.31 -43.21,-2.07 -87.45,1.15 -130.42,-0.68 -2.91,-18.16 3.05,-34.97 -4.2,-53.59 -5.25,-13.46 -15.99,-23.9 -29.83,-29.48 -16.56,-6.68 -90.8,-3.67 -114.42,-3.67 -22.74,0 -99.61,-2.64 -114.91,3.2 -44.65,17.06 -32.47,59.5 -35.26,83.33zm259.46 94.63c-53.01,5.38 -99.19,25.82 -132.06,63.98 -30.01,34.85 -54.11,80.2 -49.71,145.56 6.84,101.44 99.15,189.08 211.17,179.41 139.14,-12.01 223.78,-158.4 158.36,-285.33 -21.79,-42.29 -59.36,-74.61 -103.88,-91.46 -24.58,-9.31 -54.82,-15.11 -83.88,-12.16zm-2.44 26.35c-57.74,7.91 -82.64,26.84 -111.54,57.08 -25.28,26.46 -46.56,74.98 -41.49,126.16 8.73,88.26 85,162.62 185.97,153.15 86.78,-8.14 162.33,-85.95 153.04,-183.67 -9.07,-95.35 -98.28,-164.73 -185.98,-152.72zm-222.13 -86.05c-38.26,2.89 -139.59,-6.12 -166.8,5.76 -56.27,24.58 -41.42,79.33 -43.01,130.49 7.91,-2.72 15.79,-12.97 38.7,-20.31 30.09,-9.64 128.56,-2.98 172.71,-5.23 16.54,-20.14 12.53,-21.48 38.22,-42.48 32.97,-26.96 79,-42.12 123.84,-37.54 12.53,1.29 22.28,5.1 36.45,3.75 12.74,-1.21 22.73,-3.54 36.39,-3.62 67.02,-0.41 128.15,29.23 168.56,73.71 9.63,10.61 10.1,9.75 24.02,16.37 4.42,2.11 9.18,4.56 13.35,6.9 5.47,3.08 8.28,6.61 13.6,8.28 -0.55,-22.41 2.73,-69.35 -3.17,-87.49 -19.29,-59.26 -80.56,-48.52 -132.82,-48.46 -29.97,0.03 -61.2,0.98 -91.02,-0.02 -6.52,-28.01 10.66,-79.76 -13.37,-86.16 -9.14,-2.43 -124.42,-0.8 -150.22,-0.78 -11.75,0.01 -41.1,-1.39 -50.83,0.44 -16.29,3.07 -14.14,19.46 -14.23,35.98 -0.07,13.67 1.59,38.17 -0.37,50.41zm85.93 263.87c4.67,-1.16 10.53,-7.37 14.82,-10.58 5.2,-3.89 10.44,-7.34 16.01,-10.92 75.02,-48.22 170.32,-45.7 243.93,3.64 6.21,4.16 28.04,22.09 30.21,22.71 2.58,-52.4 -13.73,-88.96 -39.74,-116.97 -95.42,-102.74 -270.52,-36.11 -265.23,112.12zm-71.21 13.84c-6.72,-179.45 125.97,-218.87 136.92,-230.83 -114.5,-2.28 -193.49,115.49 -142.78,222.27 1.99,4.2 2.56,5.86 5.86,8.56zm58.85 -328.61c-26.51,6.15 -26.84,42.19 -2.3,49.94 6.33,1.99 77.59,2.35 84.5,0.59 25.7,-6.54 25.95,-41.32 2.45,-49.81 -7.82,-2.83 -75.28,-2.89 -84.65,-0.72z"/>
 </g>
</svg>
