<?xml version="1.0" encoding="UTF-8"?>
<!DOCTYPE svg PUBLIC "-//W3C//DTD SVG 1.1//EN" "http://www.w3.org/Graphics/SVG/1.1/DTD/svg11.dtd">
<!-- Creator: CorelDRAW 2017 -->
<svg xmlns="http://www.w3.org/2000/svg" xml:space="preserve" width="32.1732mm" height="5.4186mm" version="1.1" style="shape-rendering:geometricPrecision; text-rendering:geometricPrecision; image-rendering:optimizeQuality; fill-rule:evenodd; clip-rule:evenodd"
viewBox="0 0 3217.32 541.86"
 xmlns:xlink="http://www.w3.org/1999/xlink">
 <defs>
  <style type="text/css">
   <![CDATA[
    .fil2 {fill:#ED3237}
    .fil0 {fill:#373435;fill-rule:nonzero}
    .fil1 {fill:#ED3237;fill-rule:nonzero}
   ]]>
  </style>
 </defs>
 <g id="Capa_x0020_1">
  <metadata id="CorelCorpID_0Corel-Layer"/>
  <g id="_2189101339952">
   <path class="fil0" d="M324.69 128.31c-17.5,-11.01 -34.99,-19.2 -52.41,-24.66 -17.41,-5.38 -35.5,-8.11 -54.2,-8.11 -29.02,0 -52.32,8.11 -69.91,24.24 -17.58,16.13 -26.37,37.47 -26.37,64.02 0,26.63 8.79,48.14 26.37,64.44 17.59,16.31 40.89,24.5 69.91,24.5 18.18,0 36.02,-2.82 53.43,-8.36 17.42,-5.55 35.17,-14.09 53.18,-25.36l2.99 94.67c-20.14,10.49 -41.14,18.35 -62.99,23.47 -21.86,5.21 -45.16,7.77 -70,7.77 -26.97,0 -52.07,-4.35 -75.11,-13.15 -23.13,-8.7 -43.79,-21.59 -62.15,-38.58 -18.86,-17.5 -32.86,-36.96 -42.08,-58.3 -9.3,-21.34 -13.91,-44.9 -13.91,-70.76 0,-26.04 4.69,-49.76 14,-71.28 9.3,-21.51 23.3,-40.97 41.99,-58.47 18.7,-17.32 39.78,-30.21 63.34,-38.58 23.65,-8.28 50.62,-12.46 80.92,-12.46 21,0 41.66,2.39 61.89,7.17 20.23,4.69 40.63,12.03 61.11,21.85l0 95.94zm1517.75 230.47l0 -349.8 255.65 0 0 76.31 -135.3 0 0 60.95 130.09 0 0 73.24 -130.09 0 0 62.99 139.82 0 0 76.31 -260.17 0zm-1379.69 -36.13c-1.14,-5.46 -1.94,-10.64 -2.51,-15.54 -0.56,-4.95 -0.85,-9.79 -0.85,-14.56 0,-1.03 0.06,-2.4 0.17,-4.16 0.12,-1.82 0.17,-3.13 0.17,-4.04l-19 7.34 -1.54 0.68c-15.88,6.15 -23.85,13.95 -23.85,23.39 0,5.35 1.54,9.62 4.67,12.75 3.13,3.13 7.34,4.67 12.69,4.67 4.1,0 8.25,-0.69 12.35,-2 4.1,-1.36 10.02,-4.21 17.7,-8.53zm9.33 22.87c-10.53,5.69 -20.89,9.85 -31.02,12.58 -10.07,2.73 -20.36,4.1 -30.78,4.1 -16.79,0 -29.82,-3.76 -39.09,-11.27 -9.28,-7.51 -13.89,-18.1 -13.89,-31.75 0,-10.93 3.53,-20.26 10.58,-28.11 7.06,-7.86 17.19,-13.72 30.39,-17.59 3.87,-1.14 9.68,-2.67 17.36,-4.67 21.05,-5.46 35.91,-10.64 44.44,-15.53 0.12,-0.68 0.23,-1.37 0.29,-1.99 0.05,-0.68 0.05,-1.77 0.05,-3.19 0,-7.06 -2.1,-12.06 -6.31,-15.14 -4.21,-3.07 -11.21,-4.61 -21,-4.61 -11.78,0 -23.28,2.23 -34.49,6.6 -11.21,4.44 -22.3,11.1 -33.34,20.04l0 -51.96c13.03,-9.16 26.46,-16.1 40.4,-20.71 13.94,-4.61 28.4,-6.89 43.42,-6.89 26.29,0 46.21,5.75 59.7,17.25 13.48,11.49 20.25,28.39 20.25,50.76l0 50.13c0,7.8 1.43,12.86 4.21,15.25 2.79,2.45 8.31,3.76 16.62,3.93l-12.58 47.4c-3.58,0.68 -6.77,1.19 -9.61,1.54 -2.85,0.34 -5.24,0.51 -7.23,0.51 -12.58,0 -22.54,-1.26 -29.88,-3.82 -7.34,-2.56 -13.48,-6.88 -18.49,-12.86zm320.26 13.26l0 -102.66c0,-7.74 -1.48,-13.37 -4.49,-16.78 -3.01,-3.47 -7.91,-5.18 -14.68,-5.18 -6.15,0 -11.5,1.48 -15.99,4.49 -4.5,3.02 -8.14,7.57 -10.93,13.66l0 106.47 -63.16 0 0 -102.66c0,-7.74 -1.48,-13.37 -4.5,-16.78 -3.02,-3.47 -7.85,-5.18 -14.63,-5.18 -6.14,0 -11.38,1.48 -15.76,4.44 -4.38,2.9 -8.08,7.51 -11.21,13.71l0 106.47 -69.99 0 0 -180.27 69.99 0 0 21.56c8.54,-8.54 17.3,-14.79 26.24,-18.72 8.93,-3.93 18.83,-5.92 29.7,-5.92 12.92,0 23.56,2.51 31.98,7.51 8.48,5.01 15.31,12.87 20.49,23.62 9.05,-10.75 18.49,-18.61 28.45,-23.62 9.96,-5 21.11,-7.51 33.46,-7.51 19.29,0 33.81,5.41 43.65,16.28 9.84,10.81 14.8,26.8 14.8,47.97l0 119.1 -73.42 0zm283.68 -31.24c-12.12,11.78 -25.26,20.49 -39.43,26.18 -14.17,5.63 -29.94,8.48 -47.29,8.48 -29.08,0 -52.87,-8.76 -71.36,-26.29 -18.44,-17.47 -27.66,-40.12 -27.66,-67.95 0,-26.86 8.82,-49.05 26.52,-66.41 17.64,-17.41 40.29,-26.12 67.83,-26.12 27.43,0 49.34,8.54 65.61,25.55 16.28,17.02 24.42,39.89 24.42,68.74 0,2.45 0,4.27 -0.06,5.47 -0.06,1.25 -0.17,2.33 -0.28,3.35l-114.1 0.18c1.71,12.86 6.72,22.81 15.02,29.87 8.37,7.06 19.3,10.59 32.89,10.59 8.43,0 16.68,-1.54 24.64,-4.67 8.03,-3.13 17.53,-8.59 28.57,-16.5l14.68 29.53zm-117.45 -71.53l51.56 0c0,-0.79 0.05,-1.76 0.17,-2.96 0.11,-1.14 0.17,-1.99 0.17,-2.56 0,-10.64 -2.28,-18.78 -6.77,-24.52 -4.5,-5.7 -10.87,-8.54 -19.07,-8.54 -8.71,0 -15.19,2.84 -19.57,8.48 -4.33,5.63 -6.49,14.05 -6.49,25.21l0 4.89zm144.82 102.77l0 -180.27 64.54 0 0 45.75c7.45,-15.99 16.1,-28 26,-36.08 9.9,-8.03 21,-12.07 33.35,-12.07 6.43,0 13.09,1.08 19.86,3.31 6.77,2.21 13.6,5.4 20.49,9.61l-32.16 70.45c-5.23,-4.32 -10.01,-7.51 -14.28,-9.44 -4.27,-1.94 -8.54,-2.91 -12.75,-2.91 -8.02,0 -14.85,3.02 -20.6,9.11 -5.74,6.03 -10.07,14.96 -13.09,26.74l0 75.8 -71.36 0zm187.11 -222.9c0,-6.88 2.39,-12.69 7.23,-17.47 4.78,-4.78 10.59,-7.17 17.47,-7.17 7.06,0 12.92,2.33 17.7,7.06 4.72,4.72 7.11,10.58 7.11,17.58 0,7.06 -2.39,12.92 -7.22,17.7 -4.79,4.78 -10.65,7.17 -17.59,7.17 -7,0 -12.8,-2.39 -17.58,-7.17 -4.73,-4.78 -7.12,-10.64 -7.12,-17.7zm-10.58 222.9l0 -180.27 71.02 0 0 180.27 -71.02 0zm104.54 0l0 -180.27 71.02 0 0 21.56c8.53,-8.54 17.41,-14.79 26.57,-18.72 9.16,-3.93 19.41,-5.92 30.73,-5.92 19.8,0 34.77,5.46 44.9,16.33 10.18,10.93 15.25,26.86 15.25,47.92l0 119.1 -71.02 0 0 -102.66c0,-7.74 -1.48,-13.37 -4.49,-16.78 -3.02,-3.47 -7.86,-5.18 -14.63,-5.18 -6.15,0 -11.44,1.48 -15.93,4.49 -4.5,3.02 -8.25,7.57 -11.38,13.66l0 106.47 -71.02 0zm284.42 -90.14c0,10.82 2.89,19.47 8.65,26.01 5.8,6.54 13.25,9.84 22.47,9.84 9.11,0 16.51,-3.3 22.2,-9.84 5.63,-6.54 8.47,-15.19 8.47,-26.01 0,-10.64 -2.78,-19.23 -8.42,-25.77 -5.58,-6.49 -13.03,-9.73 -22.25,-9.73 -9.33,0 -16.84,3.24 -22.53,9.73 -5.75,6.54 -8.59,15.13 -8.59,25.77zm-72.39 0c0,-28 9.45,-50.53 28.28,-67.6 18.84,-17.07 43.93,-25.61 75.29,-25.61 31.3,0 56.39,8.54 75.17,25.61 18.78,17.07 28.17,39.6 28.17,67.6 0,28 -9.45,50.54 -28.34,67.61 -18.89,17.07 -43.93,25.61 -75,25.61 -31.24,0 -56.34,-8.54 -75.23,-25.61 -18.89,-17.07 -28.34,-39.61 -28.34,-67.61zm539.15 90.14l0 -233.2 71.02 0 0 233.2 -71.02 0zm283.12 -31.24c-12.13,11.78 -25.27,20.49 -39.44,26.18 -14.17,5.63 -29.94,8.48 -47.29,8.48 -29.08,0 -52.87,-8.76 -71.36,-26.29 -18.44,-17.47 -27.66,-40.12 -27.66,-67.95 0,-26.86 8.82,-49.05 26.52,-66.41 17.64,-17.41 40.29,-26.12 67.83,-26.12 27.43,0 49.34,8.54 65.61,25.55 16.28,17.02 24.42,39.89 24.42,68.74 0,2.45 0,4.27 -0.06,5.47 -0.05,1.25 -0.17,2.33 -0.28,3.35l-114.1 0.18c1.71,12.86 6.72,22.81 15.02,29.87 8.37,7.06 19.3,10.59 32.89,10.59 8.43,0 16.68,-1.54 24.64,-4.67 8.03,-3.13 17.53,-8.59 28.57,-16.5l14.69 29.53zm-117.46 -71.53l51.56 0c0,-0.79 0.05,-1.76 0.17,-2.96 0.11,-1.14 0.17,-1.99 0.17,-2.56 0,-10.64 -2.28,-18.78 -6.77,-24.52 -4.5,-5.7 -10.87,-8.54 -19.07,-8.54 -8.7,0 -15.19,2.84 -19.57,8.48 -4.33,5.63 -6.49,14.05 -6.49,25.21l0 4.89zm242.42 66.64c-1.14,-5.46 -1.94,-10.64 -2.5,-15.54 -0.57,-4.95 -0.86,-9.79 -0.86,-14.56 0,-1.03 0.06,-2.4 0.17,-4.16 0.12,-1.82 0.17,-3.13 0.17,-4.04l-19 7.34 -1.54 0.68c-15.88,6.15 -23.84,13.95 -23.84,23.39 0,5.35 1.53,9.62 4.66,12.75 3.13,3.13 7.35,4.67 12.69,4.67 4.1,0 8.25,-0.69 12.35,-2 4.1,-1.36 10.02,-4.21 17.7,-8.53zm9.33 22.87c-10.53,5.69 -20.88,9.85 -31.01,12.58 -10.07,2.73 -20.37,4.1 -30.79,4.1 -16.79,0 -29.82,-3.76 -39.09,-11.27 -9.28,-7.51 -13.89,-18.1 -13.89,-31.75 0,-10.93 3.53,-20.26 10.59,-28.11 7.05,-7.86 17.18,-13.72 30.39,-17.59 3.86,-1.14 9.67,-2.67 17.35,-4.67 21.06,-5.46 35.91,-10.64 44.44,-15.53 0.12,-0.68 0.23,-1.37 0.29,-1.99 0.06,-0.68 0.06,-1.77 0.06,-3.19 0,-7.06 -2.11,-12.06 -6.32,-15.14 -4.21,-3.07 -11.21,-4.61 -21,-4.61 -11.78,0 -23.27,2.23 -34.49,6.6 -11.21,4.44 -22.3,11.1 -33.34,20.04l0 -51.96c13.03,-9.16 26.46,-16.1 40.4,-20.71 13.94,-4.61 28.4,-6.89 43.42,-6.89 26.29,0 46.21,5.75 59.7,17.25 13.48,11.49 20.25,28.39 20.25,50.76l0 50.13c0,7.8 1.43,12.86 4.21,15.25 2.79,2.45 8.32,3.76 16.62,3.93l-12.58 47.4c-3.58,0.68 -6.77,1.19 -9.61,1.54 -2.85,0.34 -5.24,0.51 -7.23,0.51 -12.57,0 -22.53,-1.26 -29.87,-3.82 -7.34,-2.56 -13.49,-6.88 -18.5,-12.86zm81.95 13.26l0 -5.52 79.66 -122.52 -73.52 0 0 -52.23 181.65 0 0 8.19 -76.14 118.48 76.14 0 0 53.6 -187.79 0zm310.36 -36.13c-1.14,-5.46 -1.94,-10.64 -2.5,-15.54 -0.57,-4.95 -0.86,-9.79 -0.86,-14.56 0,-1.03 0.06,-2.4 0.17,-4.16 0.12,-1.82 0.17,-3.13 0.17,-4.04l-19 7.34 -1.54 0.68c-15.88,6.15 -23.84,13.95 -23.84,23.39 0,5.35 1.53,9.62 4.66,12.75 3.13,3.13 7.35,4.67 12.69,4.67 4.1,0 8.25,-0.69 12.35,-2 4.1,-1.36 10.02,-4.21 17.7,-8.53zm9.33 22.87c-10.53,5.69 -20.88,9.85 -31.01,12.58 -10.07,2.73 -20.37,4.1 -30.79,4.1 -16.79,0 -29.82,-3.76 -39.09,-11.27 -9.28,-7.51 -13.89,-18.1 -13.89,-31.75 0,-10.93 3.53,-20.26 10.59,-28.11 7.05,-7.86 17.18,-13.72 30.39,-17.59 3.86,-1.14 9.67,-2.67 17.35,-4.67 21.06,-5.46 35.91,-10.64 44.44,-15.53 0.12,-0.68 0.23,-1.37 0.29,-1.99 0.06,-0.68 0.06,-1.77 0.06,-3.19 0,-7.06 -2.11,-12.06 -6.32,-15.14 -4.21,-3.07 -11.21,-4.61 -21,-4.61 -11.78,0 -23.27,2.23 -34.49,6.6 -11.21,4.44 -22.3,11.1 -33.34,20.04l0 -51.96c13.03,-9.16 26.46,-16.1 40.4,-20.71 13.94,-4.61 28.4,-6.89 43.42,-6.89 26.29,0 46.21,5.75 59.7,17.25 13.48,11.49 20.25,28.39 20.25,50.76l0 50.13c0,7.8 1.43,12.86 4.21,15.25 2.79,2.45 8.32,3.76 16.62,3.93l-12.57 47.4c-3.59,0.68 -6.78,1.19 -9.62,1.54 -2.85,0.34 -5.24,0.51 -7.23,0.51 -12.57,0 -22.53,-1.26 -29.87,-3.82 -7.34,-2.56 -13.49,-6.88 -18.5,-12.86zm96.97 13.26l0 -180.27 64.53 0 0 45.75c7.46,-15.99 16.11,-28 26.01,-36.08 9.9,-8.03 20.99,-12.07 33.34,-12.07 6.44,0 13.09,1.08 19.86,3.31 6.77,2.21 13.6,5.4 20.49,9.61l-32.15 70.45c-5.24,-4.32 -10.02,-7.51 -14.29,-9.44 -4.26,-1.94 -8.53,-2.91 -12.74,-2.91 -8.02,0 -14.86,3.02 -20.6,9.11 -5.75,6.03 -10.08,14.96 -13.09,26.74l0 75.8 -71.36 0z"/>
   <path class="fil1" d="M1835.48 522.76l0 -1.98 70.16 -103.05 -68.27 0 0 -32.66 142.66 0 0 2.25 -68.37 100.97 68.37 0 0 34.47 -144.55 0zm215.45 -21.33c-0.67,-3.23 -1.14,-6.29 -1.48,-9.17 -0.34,-2.93 -0.51,-5.79 -0.51,-8.6 0,-0.61 0.04,-1.42 0.11,-2.46 0.06,-1.07 0.1,-1.85 0.1,-2.38l-11.23 4.33 -0.9 0.4c-9.38,3.63 -14.08,8.24 -14.08,13.81 0,3.16 0.91,5.68 2.76,7.53 1.84,1.85 4.33,2.76 7.49,2.76 2.42,0 4.87,-0.41 7.29,-1.18 2.42,-0.81 5.91,-2.49 10.45,-5.04zm5.51 13.51c-6.22,3.36 -12.33,5.81 -18.32,7.42 -5.94,1.61 -12.02,2.42 -18.17,2.42 -9.91,0 -17.61,-2.22 -23.08,-6.65 -5.48,-4.44 -8.2,-10.69 -8.2,-18.75 0,-6.45 2.08,-11.96 6.25,-16.6 4.16,-4.64 10.14,-8.1 17.94,-10.38 2.28,-0.67 5.71,-1.58 10.25,-2.76 12.43,-3.22 21.2,-6.28 26.24,-9.17 0.07,-0.41 0.14,-0.81 0.17,-1.18 0.03,-0.4 0.03,-1.04 0.03,-1.88 0,-4.17 -1.24,-7.12 -3.73,-8.94 -2.48,-1.81 -6.62,-2.72 -12.4,-2.72 -6.95,0 -13.74,1.31 -20.36,3.9 -6.62,2.62 -13.17,6.55 -19.69,11.83l0 -30.68c7.69,-5.41 15.63,-9.51 23.86,-12.23 8.23,-2.72 16.77,-4.07 25.63,-4.07 15.53,0 27.29,3.4 35.25,10.19 7.96,6.78 11.96,16.76 11.96,29.97l0 29.6c0,4.6 0.84,7.59 2.49,9.01 1.65,1.44 4.91,2.21 9.81,2.31l-7.42 27.99c-2.12,0.4 -4,0.71 -5.68,0.91 -1.68,0.2 -3.1,0.3 -4.27,0.3 -7.43,0 -13.31,-0.74 -17.64,-2.25 -4.34,-1.51 -7.96,-4.06 -10.92,-7.59zm146.36 3.82c-6.04,2.06 -11.92,3.57 -17.67,4.54 -5.74,0.98 -11.32,1.48 -16.77,1.48 -18.24,0 -32.96,-5.07 -44.15,-15.26 -11.19,-10.17 -16.76,-23.51 -16.76,-39.98 0,-16.53 5.54,-29.84 16.6,-39.91 11.05,-10.09 25.73,-15.13 44.11,-15.13 5.58,0 11.16,0.51 16.73,1.48 5.58,0.98 11.3,2.45 17.14,4.44l0 35.45c-5.91,-2.56 -10.72,-4.31 -14.38,-5.28 -3.66,-0.94 -7.19,-1.41 -10.62,-1.41 -8.06,0 -14.54,1.88 -19.45,5.65 -4.94,3.79 -7.39,8.7 -7.39,14.71 0,6.18 2.45,11.12 7.39,14.92 4.91,3.76 11.39,5.64 19.45,5.64 3.3,0 7.13,-0.5 11.56,-1.51 4.43,-1.04 9.17,-2.52 14.21,-4.5l0 34.67zm74.93 -17.33c-0.67,-3.23 -1.14,-6.29 -1.48,-9.17 -0.33,-2.93 -0.5,-5.79 -0.5,-8.6 0,-0.61 0.03,-1.42 0.1,-2.46 0.07,-1.07 0.1,-1.85 0.1,-2.38l-11.22 4.33 -0.91 0.4c-9.37,3.63 -14.08,8.24 -14.08,13.81 0,3.16 0.91,5.68 2.76,7.53 1.85,1.85 4.33,2.76 7.49,2.76 2.42,0 4.87,-0.41 7.29,-1.18 2.42,-0.81 5.91,-2.49 10.45,-5.04zm5.51 13.51c-6.21,3.36 -12.33,5.81 -18.31,7.42 -5.95,1.61 -12.03,2.42 -18.18,2.42 -9.91,0 -17.6,-2.22 -23.08,-6.65 -5.48,-4.44 -8.2,-10.69 -8.2,-18.75 0,-6.45 2.08,-11.96 6.25,-16.6 4.17,-4.64 10.15,-8.1 17.94,-10.38 2.29,-0.67 5.71,-1.58 10.25,-2.76 12.43,-3.22 21.2,-6.28 26.24,-9.17 0.07,-0.41 0.14,-0.81 0.17,-1.18 0.03,-0.4 0.03,-1.04 0.03,-1.88 0,-4.17 -1.24,-7.12 -3.73,-8.94 -2.48,-1.81 -6.62,-2.72 -12.39,-2.72 -6.96,0 -13.75,1.31 -20.37,3.9 -6.62,2.62 -13.17,6.55 -19.69,11.83l0 -30.68c7.7,-5.41 15.63,-9.51 23.86,-12.23 8.23,-2.72 16.77,-4.07 25.64,-4.07 15.52,0 27.28,3.4 35.25,10.19 7.96,6.78 11.96,16.76 11.96,29.97l0 29.6c0,4.6 0.84,7.59 2.48,9.01 1.65,1.44 4.91,2.21 9.81,2.31l-7.42 27.99c-2.12,0.4 -4,0.71 -5.68,0.91 -1.68,0.2 -3.09,0.3 -4.27,0.3 -7.42,0 -13.3,-0.74 -17.64,-2.25 -4.33,-1.51 -7.96,-4.06 -10.92,-7.59zm141.33 -1.58c-5.18,4 -10.76,6.92 -16.67,8.7 -5.95,1.81 -12.87,2.72 -20.8,2.72 -13.2,0 -23.18,-3.02 -29.97,-9.11 -6.79,-6.08 -10.18,-15.01 -10.18,-26.78l0 -45.76 -18.35 0 0 -12.7 50.03 -45.36 10.46 0 0 31.25 33.23 0 0 26.81 -33.23 0 0 31.89c0,5.17 0.94,8.8 2.78,10.82 1.89,2.05 5.11,3.05 9.71,3.05 3.6,0 7.33,-0.63 11.23,-1.88 3.9,-1.24 7.82,-3.09 11.76,-5.61l0 31.96zm120.96 -9.04c-7.16,6.95 -14.92,12.09 -23.29,15.45 -8.36,3.33 -17.67,5.01 -27.92,5.01 -17.17,0 -31.21,-5.17 -42.13,-15.52 -10.89,-10.32 -16.33,-23.69 -16.33,-40.12 0,-15.86 5.2,-28.97 15.65,-39.21 10.42,-10.29 23.8,-15.43 40.06,-15.43 16.19,0 29.13,5.04 38.74,15.09 9.61,10.05 14.41,23.55 14.41,40.59 0,1.45 0,2.52 -0.03,3.22 -0.03,0.75 -0.1,1.38 -0.17,1.99l-67.37 0.1c1.01,7.59 3.97,13.47 8.87,17.64 4.94,4.16 11.39,6.25 19.42,6.25 4.97,0 9.85,-0.91 14.55,-2.76 4.74,-1.85 10.35,-5.07 16.87,-9.74l8.67 17.44zm-69.35 -42.24l30.44 0c0,-0.47 0.03,-1.04 0.1,-1.75 0.07,-0.67 0.1,-1.17 0.1,-1.51 0,-6.28 -1.34,-11.08 -4,-14.48 -2.65,-3.36 -6.42,-5.04 -11.25,-5.04 -5.15,0 -8.97,1.68 -11.56,5.01 -2.56,3.33 -3.83,8.3 -3.83,14.88l0 2.89zm174.62 56.68c-6.05,2.06 -11.93,3.57 -17.67,4.54 -5.75,0.98 -11.32,1.48 -16.77,1.48 -18.25,0 -32.96,-5.07 -44.15,-15.26 -11.19,-10.17 -16.77,-23.51 -16.77,-39.98 0,-16.53 5.55,-29.84 16.6,-39.91 11.06,-10.09 25.74,-15.13 44.12,-15.13 5.58,0 11.15,0.51 16.73,1.48 5.58,0.98 11.29,2.45 17.14,4.44l0 35.45c-5.92,-2.56 -10.72,-4.31 -14.38,-5.28 -3.67,-0.94 -7.19,-1.41 -10.62,-1.41 -8.06,0 -14.55,1.88 -19.46,5.65 -4.94,3.79 -7.39,8.7 -7.39,14.71 0,6.18 2.45,11.12 7.39,14.92 4.91,3.76 11.4,5.64 19.46,5.64 3.29,0 7.12,-0.5 11.56,-1.51 4.43,-1.04 9.17,-2.52 14.21,-4.5l0 34.67zm74.93 -17.33c-0.68,-3.23 -1.14,-6.29 -1.48,-9.17 -0.34,-2.93 -0.51,-5.79 -0.51,-8.6 0,-0.61 0.04,-1.42 0.1,-2.46 0.07,-1.07 0.11,-1.85 0.11,-2.38l-11.23 4.33 -0.9 0.4c-9.38,3.63 -14.08,8.24 -14.08,13.81 0,3.16 0.9,5.68 2.76,7.53 1.84,1.85 4.33,2.76 7.49,2.76 2.42,0 4.87,-0.41 7.29,-1.18 2.42,-0.81 5.91,-2.49 10.45,-5.04zm5.51 13.51c-6.22,3.36 -12.33,5.81 -18.32,7.42 -5.94,1.61 -12.02,2.42 -18.17,2.42 -9.91,0 -17.61,-2.22 -23.08,-6.65 -5.48,-4.44 -8.2,-10.69 -8.2,-18.75 0,-6.45 2.08,-11.96 6.25,-16.6 4.16,-4.64 10.14,-8.1 17.94,-10.38 2.28,-0.67 5.71,-1.58 10.25,-2.76 12.43,-3.22 21.2,-6.28 26.24,-9.17 0.07,-0.41 0.13,-0.81 0.17,-1.18 0.03,-0.4 0.03,-1.04 0.03,-1.88 0,-4.17 -1.24,-7.12 -3.73,-8.94 -2.49,-1.81 -6.62,-2.72 -12.4,-2.72 -6.95,0 -13.74,1.31 -20.36,3.9 -6.62,2.62 -13.17,6.55 -19.69,11.83l0 -30.68c7.69,-5.41 15.63,-9.51 23.86,-12.23 8.23,-2.72 16.76,-4.07 25.63,-4.07 15.53,0 27.29,3.4 35.25,10.19 7.96,6.78 11.96,16.76 11.96,29.97l0 29.6c0,4.6 0.84,7.59 2.49,9.01 1.65,1.44 4.91,2.21 9.81,2.31l-7.43 27.99c-2.11,0.4 -4,0.71 -5.67,0.91 -1.68,0.2 -3.1,0.3 -4.27,0.3 -7.43,0 -13.31,-0.74 -17.64,-2.25 -4.34,-1.51 -7.96,-4.06 -10.92,-7.59zm54.84 -1.01l0 -30.27c7.29,5.54 13.37,9.4 18.21,11.62 4.87,2.18 9.57,3.29 14.11,3.29 3.46,0 6.25,-0.7 8.33,-2.12 2.05,-1.41 3.09,-3.35 3.09,-5.77 0,-3.56 -5.21,-7.53 -15.59,-11.93 -3.32,-1.38 -5.94,-2.52 -7.76,-3.36 -6.79,-3.03 -11.86,-7.03 -15.29,-12.06 -3.39,-5.01 -5.1,-10.99 -5.1,-17.95 0,-9.51 3.73,-17.03 11.22,-22.58 7.46,-5.54 17.71,-8.3 30.71,-8.3 7.12,0 13.91,0.71 20.26,2.12 6.35,1.41 12.43,3.53 18.21,6.35l0 27.82c-6.18,-3.32 -11.49,-5.84 -15.92,-7.53 -4.47,-1.71 -8,-2.55 -10.62,-2.55 -3.8,0 -6.62,0.57 -8.43,1.71 -1.79,1.15 -2.69,2.86 -2.69,5.15 0,3.15 4.77,6.78 14.28,10.92 2.28,0.97 4.1,1.74 5.41,2.35 8.1,3.53 14.14,7.86 18.1,12.94 3.97,5.1 5.95,11.08 5.95,18.01 0,10.34 -3.76,18.44 -11.25,24.26 -7.53,5.81 -18.05,8.73 -31.55,8.73 -8.61,0 -16.47,-0.87 -23.66,-2.65 -7.19,-1.79 -13.84,-4.51 -20.02,-8.2z"/>
   <polygon class="fil2" points="1835.73,8.98 1890.18,8.98 1890.18,358.78 1835.73,358.78 "/>
   <path class="fil0" d="M1715.59 489.56c0,9.1 -2.19,16.36 -6.56,21.77 -4.38,5.41 -9.92,8.12 -16.62,8.12 -2.71,0 -5.12,-0.32 -7.22,-0.94 -2.1,-0.62 -4.26,-1.58 -6.45,-2.88l0 22.89 -9.24 0 0 -74.9 9.24 0 0 5.74c2.29,-2.06 4.85,-3.78 7.65,-5.17 2.81,-1.39 5.87,-2.08 9.17,-2.08 6.31,0 11.21,2.48 14.74,7.45 3.54,4.97 5.29,11.63 5.29,20zm-9.54 0.98c0,-6.24 -1,-11.07 -2.99,-14.52 -2.01,-3.45 -5.26,-5.17 -9.76,-5.17 -2.61,0 -5.15,0.58 -7.6,1.74 -2.44,1.15 -4.77,2.64 -6.96,4.48l0 31c2.43,1.18 4.5,1.99 6.23,2.41 1.72,0.41 3.7,0.63 5.92,0.63 4.8,0 8.52,-1.74 11.18,-5.24 2.66,-3.5 3.98,-8.6 3.98,-15.33zm64.03 0.45c0,9.23 -2.23,16.32 -6.66,21.34 -4.45,5.01 -10.36,7.51 -17.74,7.51 -7.62,0 -13.6,-2.59 -17.96,-7.76 -4.36,-5.17 -6.54,-12.2 -6.54,-21.09 0,-9.13 2.24,-16.23 6.74,-21.28 4.49,-5.07 10.41,-7.6 17.76,-7.6 7.38,0 13.29,2.53 17.74,7.57 4.43,5.05 6.66,12.14 6.66,21.31zm-9.54 0c0,-7.04 -1.29,-12.27 -3.86,-15.71 -2.58,-3.43 -6.25,-5.13 -11,-5.13 -4.79,0 -8.49,1.7 -11.08,5.13 -2.59,3.44 -3.88,8.67 -3.88,15.71 0,6.84 1.29,12.01 3.88,15.53 2.59,3.54 6.29,5.3 11.08,5.3 4.72,0 8.38,-1.73 10.97,-5.19 2.6,-3.47 3.89,-8.67 3.89,-15.64zm48 -17.43l-0.49 0c-0.69,-0.18 -1.42,-0.28 -2.18,-0.34 -0.77,-0.05 -1.69,-0.06 -2.77,-0.06 -2.48,0 -4.94,0.53 -7.4,1.6 -2.44,1.09 -4.76,2.68 -6.94,4.81l0 38.77 -9.24 0 0 -54.72 9.24 0 0 8.13c3.36,-2.98 6.29,-5.07 8.78,-6.29 2.49,-1.22 4.92,-1.84 7.28,-1.84 0.94,0 1.65,0.02 2.13,0.07 0.46,0.05 1,0.13 1.59,0.23l0 9.64z"/>
  </g>
 </g>
</svg>
