<!-- Generated by IcoMoon.io -->
<svg version="1.1" xmlns="http://www.w3.org/2000/svg" width="32" height="32" viewBox="0 0 32 32">
<title>cancelacion-libre</title>
<path d="M14.947 26.667h-8.28v-13.333h18.667v5.84l2.667-2.667v-8.507c0-1.467-1.2-2.667-2.667-2.667h-1.333v-2.667h-2.667v2.667h-10.667v-2.667h-2.667v2.667h-1.333c-1.48 0-2.653 1.2-2.653 2.667l-0.013 18.667c0 1.467 1.187 2.667 2.667 2.667h10.947l-2.667-2.667zM22.053 30l-4.72-4.72 1.88-1.88 2.827 2.827 5.653-5.653 1.88 1.88-7.52 7.547zM13.88 18.667l2.12 2.12-1.88 1.88-2.12-2.12-2.12 2.12-1.88-1.88 2.12-2.12-2.12-2.12 1.88-1.88 2.12 2.12 2.12-2.12 1.88 1.88-2.12 2.12z"></path>
</svg>
