<!-- Generated by IcoMoon.io -->
<svg version="1.1" xmlns="http://www.w3.org/2000/svg" width="32" height="32" viewBox="0 0 32 32">
<title>candado-de-seguridad-cerrado</title>
<path d="M17.1 21.759c0.218 0.797 0.741 1.881 0.947 2.666 0.113 0.431 0.050 0.561 0.108 0.907-0.296 0.107-4.118 0.063-4.135 0.058-0.519-0.159 0.84-3.222 0.933-3.686-0.935-0.294-1.796-1.449-1.461-2.727 0.714-2.712 4.47-2.465 5.050-0.062 0.486 2.010-0.956 2.443-1.442 2.843zM20.702 10.854l-0.022 2.077c-2.32-0.116-6.357-0.020-8.903-0.021l-0.395-0.062c-0.021-1.598-0.185-3.007 0.354-4.433 0.066-0.174 0.109-0.282 0.188-0.427 0.344-0.628 0.698-0.99 1.211-1.422 0.18-0.152 0.14-0.137 0.348-0.262 1.515-0.906 3.296-0.986 4.787-0.168 1.772 0.972 2.431 2.623 2.431 4.718zM8.198 12.906c-0.828 0.033-1.652-0.118-2.287 0.339-0.424 0.304-0.896 0.933-0.896 1.7v12.658c0 1.167 0.945 1.963 2.136 1.963h17.752c0.58 0 0.984-0.132 1.323-0.411 0.888-0.731 0.75-1.731 0.755-4.947v-8.722c-0.009-2.572-1.223-2.579-3.126-2.579-0.267-2.41 0.687-5.080-2.283-8.138-4.124-4.248-11.679-2.551-13.191 3.92-0.329 1.409 0.015 2.877-0.183 4.218z"></path>
</svg>
