<?xml version="1.0" encoding="UTF-8"?>
<!DOCTYPE svg PUBLIC "-//W3C//DTD SVG 1.1//EN" "http://www.w3.org/Graphics/SVG/1.1/DTD/svg11.dtd">
<!-- Creator: CorelDRAW 2017 -->
<svg xmlns="http://www.w3.org/2000/svg" xml:space="preserve" width="7.3658mm" height="7.3658mm" version="1.1" style="shape-rendering:geometricPrecision; text-rendering:geometricPrecision; image-rendering:optimizeQuality; fill-rule:evenodd; clip-rule:evenodd"
viewBox="0 0 736.58 736.58"
 xmlns:xlink="http://www.w3.org/1999/xlink">
 <defs>
  <style type="text/css">
   <![CDATA[
    .fil0 {fill:none}
    .fil1 {fill:black}
   ]]>
  </style>
 </defs>
 <g id="Capa_x0020_1">
  <metadata id="CorelCorpID_0Corel-Layer"/>
  <rect class="fil0" x="-0" y="-0" width="736.59" height="736.59"/>
  <path class="fil1" d="M527 1.4c-56.88,7.37 -85.46,26.5 -121.76,62.36 -107.75,106.43 -214.58,216.3 -322.41,322.4 -14.41,14.18 -31.78,29.86 -44.75,46.95 -27.18,35.83 -44.13,86.75 -35.67,143.85 13.64,92 99.33,170.42 207.56,158.4 54.98,-6.1 86.65,-28.33 121.19,-62.42 107.76,-106.37 214.58,-216.3 322.41,-322.41 14.4,-14.17 31.79,-29.85 44.75,-46.94 60.3,-79.55 48.15,-195.95 -31.2,-260.81 -32.25,-26.37 -83.95,-48.66 -140.12,-41.38zm-168.46 414.44c-7.41,-3.73 -34.3,-32.13 -36.26,-36.32 -2.34,-0.82 -0.04,0.4 -2.51,-1.34 -9.58,-6.8 -77.1,-80.63 -86.15,-84.12 -11.83,9.36 -26.23,25.68 -37.43,36.88 -12.68,12.69 -24.19,24.29 -36.96,36.96 -25.07,24.92 -48.98,48.95 -73.96,73.94 -57.19,57.21 -58.73,152.37 -0.78,210.22 57.92,57.84 151.33,57.09 209.46,-0.05l148.58 -149.08c-2.52,-6.27 -60.5,-62.05 -74.02,-75.73 -3.49,-3.53 -8.5,-7.37 -9.97,-11.36zm32.08 114.74c-35.52,-2.02 -124.43,-0.26 -165.87,-0.26 -23.51,0 -154.02,-1.62 -165.64,0.82 -5.5,18.42 2.19,51 8.73,66.63 23.63,56.54 85.02,93.28 151.88,77.45 45.2,-10.7 68.73,-40.84 92.23,-64.38 13.4,-13.43 25.74,-25.79 39.19,-39.18 7.59,-7.56 36.09,-34.19 39.48,-41.08zm-120.19 -273.15c2.32,5.15 14.25,16.73 19.39,19.65 7.09,-3.68 33.17,-31.7 40.83,-39.47 21.33,-21.63 104.71,-106.27 122.15,-120.38 120.15,-97.19 202.99,-7.51 232.1,3.38 -6.41,-14.17 -30.94,-34.17 -44.29,-43.91 -16.35,-11.92 -36.2,-22.35 -59.25,-28.13 -55.31,-13.9 -101.94,8.06 -134.05,33.6 -20.07,15.97 -68.03,65.78 -89.17,86.84 -14.94,14.89 -28.71,28.7 -43.62,43.6l-44.09 44.82zm51.85 122.09l0 0z"/>
 </g>
</svg>
