<?xml version="1.0" encoding="UTF-8"?>
<!DOCTYPE svg PUBLIC "-//W3C//DTD SVG 1.1//EN" "http://www.w3.org/Graphics/SVG/1.1/DTD/svg11.dtd">
<!-- Creator: CorelDRAW 2017 -->
<svg xmlns="http://www.w3.org/2000/svg" xml:space="preserve" width="9.2286mm" height="8.0432mm" version="1.1" style="shape-rendering:geometricPrecision; text-rendering:geometricPrecision; image-rendering:optimizeQuality; fill-rule:evenodd; clip-rule:evenodd"
viewBox="0 0 922.86 804.32"
 xmlns:xlink="http://www.w3.org/1999/xlink">
 <defs>
  <style type="text/css">
   <![CDATA[
    .fil0 {fill:none}
    .fil1 {fill:#ED1E26}
   ]]>
  </style>
 </defs>
 <g id="Capa_x0020_1">
  <metadata id="CorelCorpID_0Corel-Layer"/>
  <rect class="fil0" y="-0" width="922.86" height="804.33"/>
  <path class="fil1" d="M405.56 723.61c9.45,3.49 34.62,17.04 30.77,25.13 -7.24,15.2 2.03,2.42 -16.18,11.31 -9.84,-43.73 -30.08,-2.79 -16.58,-33.33 0.26,-0.57 2.14,-1.88 1.99,-3.11zm-8.68 -38.86c3.47,-19.16 -6.05,0.52 19.26,-26.67 5.47,-5.87 5.37,-6.55 11.08,-10.86l-5.43 -1.91c-11.24,-5.18 -7.52,-0.92 -8.1,-9.94 7.91,4.27 -3.75,9.33 29.7,-3.46 6.43,-2.46 10.3,-3.76 17.47,-6.93 -1.44,1.63 -6.98,8.04 -8.61,10.41 -26.45,38.11 -6.8,15.97 -43.45,39.51 -14.33,9.23 2.12,6.33 -11.92,9.85zm61.24 -79.04c6.97,1.75 6.36,-0.01 12.82,3.76 9.37,5.46 4.77,3.41 9.44,8.18 -19.11,10.03 -18.35,10.21 -22.26,-11.94zm71.75 47.1l-10.87 -17.21 22.03 -4.08 -1.4 -14.83c17.81,-2.26 35.94,-14.29 50.42,-24.15 22.2,-15.12 3.76,-33.66 44.37,-34.7 -17,29.98 -23.67,23.7 -35.47,40.27 -6.66,9.34 0.84,3.88 -10.83,13.87 -6.97,5.98 -7.45,4 -13.6,9.96 -6.54,6.34 -3.45,6.11 -10.76,13.66 -7.8,8.09 -20.15,12.8 -33.89,17.21zm-315.23 -116.96c-6.79,-0.49 -6.8,0.39 -11.53,-1.13 -10.57,-3.41 -5.01,-1 -12.47,-5.81 0.06,-0.1 3.04,-29.19 24,6.94zm142.94 -71.77c-25.07,24.02 -46.18,48.73 -71.63,76.21 -3.31,3.57 -6.31,6.49 -9.18,10.17 -9.86,12.66 -7.28,15.06 -18.59,21.32 -14.23,7.88 -33.97,-2.33 -39.44,-15.06l-4.1 -20.87c0.37,0.33 5.25,3.89 11.83,7.65 0.72,-1.02 1.23,-4.3 1.34,-3.5 0,0 4.94,-8.04 -1.34,-14.2 30.93,18.98 48,-33.21 72.65,-44.6 3.92,-8.39 6.93,-17.39 11.12,-25.18l19.94 3.09c1.2,-11.61 -4.9,-7.63 11.99,-14.96l27.25 -4.3c-4.28,-8.93 -6.05,-11.55 -7.41,-12.4 14.64,5.58 9.83,2.18 32.1,-0.77 -9.13,21.93 6.07,2.67 -36.53,37.4zm178.7 -6.51c-6.22,17.9 -40.11,34.7 -58.07,51.79l-94.41 81.36c-26.52,23.05 4.45,3.97 -27.4,21.42 -19.71,10.8 -36.96,60.37 -61.31,14.41 68.56,-44.32 21.01,-25.09 50.76,-59.56 15.62,-18.09 -7.23,7.04 4.91,-5.15l5.28 -4.85c1.06,-1.02 4.28,-3.86 5.31,-4.89 0.75,-0.77 1.75,-1.81 2.47,-2.58 0.72,-0.77 1.64,-1.89 2.34,-2.66l25.54 -23.89c18.98,-10.37 16.45,-7.14 29.01,-9l37.42 -19.36c-11,-6.68 -17.69,17.11 -21.11,-5.14 14.06,-10.43 16.85,-3.1 36.31,-5.57 7.54,-17.02 12.97,-29.22 27.72,-34.92 6.26,-15.81 11.22,-16.83 25.9,-21.54l21.1 3.6 13.64 -12.68c-0.33,-0.7 -1.14,-2.39 -1.55,-3.27l-3.65 -6.53c-4.31,-10.14 -4.18,-13.46 -4.19,-21.77 15.28,2.54 -1.94,-4.78 8.66,4.46 27.44,23.98 -15.72,-3.67 8.09,8.3 3.65,-0.71 7.84,-2.25 15.88,-1.42 33.23,3.45 -26.54,-8.26 9.23,1.34 9.88,2.64 7.45,2.9 13.2,6.19 -14.76,14.45 -1.64,1.7 -17.33,10.92 -24.56,14.43 -26.16,31.33 -53.75,40.99zm-363.05 -49.58c-8.7,-10.35 -8.01,-15.94 -9.14,-26.98 13.97,-3.49 13.67,-7.5 26.37,-18.69 0.01,20.6 1.3,16.05 10.75,32.36 -23.56,-2.21 -9.82,1.09 -22.97,-5.03 -1.41,19.6 6.25,4.39 -5.01,18.34zm477.62 -41.7c-3.37,5.82 0.1,11.7 -26.94,13.68l-1.48 -13.69c10.28,-3.92 15.35,-0.99 28.42,0.01zm-470.81 91.21l10.57 -12.4 -20.77 -14.79c5.04,-6.01 -12.28,-9.68 12.54,-7.71 9.19,0.73 5.57,3.54 7.39,7.68 15.24,-10.12 2.89,11.07 14.21,-18.06l18.17 8.03c12.15,-7.2 9.18,-3.64 14.77,-15.29l-10.48 -5.49c-2.45,-9.48 8.42,8.6 -2.24,-10.1 -3.38,-5.92 -5.51,-5.58 -10.83,-13.72l21.82 4.57 5.82 -23.83c20.79,7.1 19.19,-17.54 19.35,22.05 6.63,-3.33 1.95,8.53 7.34,-7.15l2.34 -13.52c24.47,12.3 -0.44,6.26 24.03,9.07 4.72,-8.23 9.36,-11.16 15.03,-15.88 -24.24,-15.71 -8.11,-12.12 -37.09,-2.12 6.85,-7.22 1.53,0 11.24,-7.08 0.74,-0.54 2.02,-1.34 2.78,-1.96l10.57 -10.68c0.6,-0.66 1.6,-2.12 2.48,-3.11l8.39 12.19c0.64,0.8 1.69,1.81 2.36,2.65 8.01,10.09 3.51,-6.57 10.33,15.51 -9.07,15.84 -92.47,90.99 -117.34,123.89 -13.21,17.49 -6.63,14.31 -24.75,13.92 -16.4,-18.16 -10.72,-18.35 1.97,-36.67zm-55.22 -131.58c7.53,13.44 9.18,9.65 -4.84,15.09 -4,-11.69 -5.09,-7.74 4.84,-15.09zm526.03 40.37c-2.17,-13.5 -0.42,-12.09 7.81,-19.41 0,-0.01 23.02,-7.1 13.65,-38.55 15.17,-0.04 12.12,-3.84 14.93,8.05 0.38,1.59 -3.78,12.41 6.73,18l-21.43 18.31c-17.89,13.34 -1.02,9.66 -21.69,13.6zm13.75 35.27l16.06 -13.12c8.07,-5.71 2.13,-6.84 10.86,-2.52 -24.61,-3.18 -28.41,4.55 -40.9,-8.91 43.58,-9.23 8.11,-7.18 45.37,-24.17 0.08,0.55 -0.2,0.93 -0.21,1.64l2.69 16.7 27.62 0.67c8.43,-3.96 14.86,-1.41 22.63,-10.82 5.48,-6.63 6.32,-21.24 10.04,-34.9 9.11,-4.44 37.84,-10.43 48.23,-29.36 12.82,-23.39 -14.93,-17.65 19.24,-24.86 -3.15,24.09 -7.62,6.5 -13.58,35.83 -1.94,9.55 -0.52,11.07 -3.67,21.3 -0.24,0.81 -7.3,15.53 -7.88,16.57 -9.67,17.54 -32.12,44.69 -35.13,67.1 -8.99,-17.58 -4.36,-7.16 -11.89,-13.04 -11,7.84 -12.32,6.38 -22.66,11.94 -6.39,3.44 -3.69,1.86 -9.09,5.5 -5.08,3.42 -3.69,3.33 -11.45,8.52 -32.66,21.85 -44.38,23.86 -70.9,35.78 -59.89,26.93 -7.68,3.22 -45.37,13.92 -18.73,5.31 1.62,6.07 -13.17,1.76l-5.65 -2.62c44.64,-25.08 1.36,-10.13 34.67,-18.81l17.32 -11c18.91,-16.21 18.22,-8.9 33.95,-18.59 -12.73,-6.84 -21.95,-1.1 -37.13,4.69l14.65 -19.24c13.85,-12.87 3.85,-9.15 25.35,-9.96zm62.27 -131.76c21.45,-6.64 14.53,-11.3 25.32,3.47 -5.02,5.04 -6.98,4.9 -9.85,8.95l-3.51 8.12c-0.14,0.46 0.13,1.87 0,2.3 -4.39,15.52 -9.14,11.81 -28.29,14.4 8.86,-24.2 -16.02,-11.9 20.01,-19.69l-2.46 -10.53c-0.19,-1.02 -0.56,-5.52 -1.22,-7.02zm-266.76 -12.01c1.01,-1.27 3.13,-3.84 3.87,-4.49 8.19,-7.31 -2.05,1.16 9.35,-7.63 0.01,0.02 11.11,5.84 14.47,28.69 -13.45,8.33 -25.16,20.8 -41.98,29.66l-25.73 16.22 -11.83 -12.21c-3.78,-2.75 -7.95,-3.98 -11.81,-5.9 7.05,-12.54 5.47,-3.05 13.05,-8.91 16.57,-12.81 7.84,-3.69 0.1,-15.54 15.08,-1.58 6.29,0.71 15.33,-3.66 3.49,3.85 -4.29,10.04 21.39,8.42l-2.09 -23.29 15.88 -1.36zm-141.65 83.76c10.52,-20.46 -6.3,-10.18 26.47,-19.37l-28 -19.46c-5.54,28.92 -3.45,15.7 -18.72,6.84 7.11,-10.68 -1.78,-2.13 10.65,-11.99 4.87,-3.86 10.08,-6.14 14.42,-9.14 13.12,3.78 13.08,5.29 24.2,12.47 3.28,-9.38 6.13,-14.73 7.95,-26.03 38.02,-0.94 3.88,-11.07 54.95,-16.92l-23 18.15c-0.24,0.3 -0.58,1.55 -0.77,1.86l-35.32 43.2c-18.49,19.15 4.98,15.95 -32.83,20.39zm21.12 -84.65c-5.16,11.53 -1.14,5.43 -9.7,13.06 -0.77,0.69 -2.03,1.4 -2.84,2.06 -0.81,0.65 -2.05,1.39 -2.86,1.99l-6.02 4.13c-0.68,0.47 -2.07,1.5 -3.13,2.22 -15.19,1.08 -19.03,5.28 -27.21,17.37 -8.29,5.17 -5.19,2.32 -10.51,5.52 -12.66,7.59 -1.95,-2.72 -11.8,8.14 -5.33,12.74 -1.38,6.54 -10.42,10.38l8.55 7.07c5.75,5.38 -0.16,-2.3 6.78,7.18l-16.55 -0.17 -12.76 5.48c3.49,6.8 2.48,16.19 4.04,5.2 -4.96,-0.43 8.04,-4.94 -12.27,0.49 -19.12,5.11 -4.02,44.33 -40.27,19.46l2.11 -8.11 -6.3 -14.66 -22.97 24.07c-3.37,2.92 -6.29,6.13 -9.5,10.5 -9.95,13.54 -21.74,30.91 -30.91,45.23 -38.62,-35.17 -7.17,-44.66 11.73,-64.81 9.92,-10.59 4.71,-10.77 30.61,-18.53 -18.73,-8.49 -13.82,4.58 -15.36,-10.23 38.19,-5.97 -0.01,11.56 44.76,-18.96l24.85 -21.93c12.02,3.26 5.15,-1.99 6.17,5.77l39.1 6.33c-0.21,-4.71 -3.15,-17.17 -3.15,-17.44 0,-0.88 -0.08,-2.42 0.04,-3.27 1.08,-8.56 7.86,-10.03 20.57,-34.04l2.72 -5.02c0.21,-0.36 1.05,-1.53 1.2,-1.79 0.14,-0.23 0.78,-1.02 1.12,-1.57l12.54 12.24c11.2,-7.75 4.18,-3.61 4.09,-17.89 -0.01,-2.03 -0.66,-2.73 -0.78,-4.18l13.21 -0.23c5.01,-11.81 2.54,-6.77 3.39,-12.86 1.81,-13.01 -7.72,-12.27 43.5,-36.18 14.99,-13.08 7.34,-11.84 22.12,-33.28l8.91 -11.7 35.54 41.25c20.22,11.82 -11.74,-15.98 12.57,4.91 -11.97,6.4 -16.8,6.05 -29.12,18.42l-21.99 22.16c-7.53,5.87 -0.73,1.47 -9.01,5.99l-44.79 30.23zm-91.55 -48.44c-13.88,17.98 23.95,9.37 -6.74,17.91 -14.97,4.16 -17.9,-11.25 -23.03,16.58 -2.31,-18.03 6.07,5.93 7.19,9.89l-4.99 -0.07c-0.23,0.09 -1.57,0.48 -1.81,0.62l-16.38 -7.58c-22.84,17.69 5.34,10.77 -30.62,19.83 0.24,44.29 11.04,34.34 1.58,47.78 -24.16,-12.28 -1.56,-44.05 -31.79,-24.67l-6.65 4.94c-1.11,0.47 -6.45,-1.36 -15.16,3.49l24.56 -35.76c13.18,-3.06 8.25,-0.17 11.77,0.54 0.19,0.04 4.39,17.13 15.14,-8.16l8.26 -12.6c6.31,-5.14 4.16,-3.16 5.02,-3.78l7.12 -5.07c14.34,-13.91 6.07,-12.66 20.09,-17.83 5.34,-1.98 19.85,0.24 15,-7.82 -4.92,-8.17 -15.6,13.4 -6.39,-6.58 5.94,-12.87 -3.09,-3.53 14.16,-5.09l0.8 -12.45c17.91,-3.43 17.06,1.2 22.3,-7.13 19.46,-30.93 15.1,-20.34 10.8,-32.53 26.77,-2.87 31.94,1.62 36.12,-24.38l22.86 0.82c-0.3,-1.1 -1.31,-2.44 -1.55,-3.05l-3.11 -18.28c1.52,-5.93 9.26,-17.4 11.05,-20.28l36.68 29.1c6.25,4.57 -1.82,2.13 11.56,7.92 -1.08,0.63 -2.67,1.21 -3.41,1.56l-25.09 14c-0.91,0.54 -2.15,1.22 -3.07,1.76l-58.25 40.15c-18.54,15.35 11.9,7.51 -44.02,36.22zm429.83 -14.72c7.81,-6.2 2.5,-6 9.05,-6l-7.21 -7.94c-4.66,-11.34 -4.03,1.61 2.97,-8.36l25.46 0.23c-5.75,-24.36 -3.22,-7.22 3.12,-13.53l34.07 -32.86c13.06,-13 13.01,-5.32 18.46,-21.53l6.96 -12.08c-8.87,0.27 -9.41,2.53 -14.59,-4.03 -7.72,-9.78 -2.36,-9.04 -3.01,-11.54l1.5 -18.33c-18.67,-3.67 -34.91,10.59 -47.44,24.08l-39.16 38.07c5.99,14.44 1.28,-1.77 22.39,5.77 -13.36,17.09 -5.58,11.12 -31.62,18.69 -3.91,21.48 0.57,7.29 -9.58,19.7l10.17 12.73c-23.07,11.45 1.65,7.66 -35.99,9.72 -6.41,0.34 -10.23,0.2 -18.41,2.2l-1.3 -4.9c-6.95,7.62 -1.64,4.35 -14.18,9.13l8.21 7.23c-0.14,-1.29 -2.16,-1.25 -3.37,-1.55 0.89,1.69 2.4,3.4 3.02,4.83 11.89,27.58 7.5,9.9 1.96,18.72 -14.98,-9.42 12.12,-3.76 -10.28,1.74 -8.7,2.14 0.04,4 -18.92,3.36l9.66 -21.83c-16.93,2.92 -2.09,-6.7 -18.57,5.9 -50.46,25.25 -31.16,43.15 -76.49,39.36 5.73,-9.17 5.43,-7.74 8.06,-11.64l8.51 -12.66c8.75,-10.2 10.68,-8.94 24.89,-13.06 -1.41,-13.05 4.9,-11.97 -11.32,-16.5 41.12,-25.52 -8.83,40.02 40.28,-32.59 0.6,-0.9 1.29,-2.19 1.94,-3.04 10.1,-13.04 8.5,-10.71 27.25,-13.52l-5.43 -6.86c5.78,-8.1 -6.67,-6.61 5.45,-6.35 -5.9,0 -13.95,0.73 -19.38,-1.2 -18.8,-6.68 -2.42,7.65 -12.6,-10.09 -9.02,13.11 -21.98,20.73 -30.57,30.87 -10.93,12.91 -16.95,23.87 -34.55,30.44 -10.16,13.67 6.35,3.73 -13.89,11.4 -12.72,4.83 -4.83,1.07 -19.38,1.95 0.91,-1.86 2.28,-3.85 3.12,-5.36 0.75,-1.32 2.05,-3.21 2.83,-4.68l3.39 -6.34c7.39,-23.79 -2.95,22.22 -1.65,-10.6l-1.07 -25.51c14.28,2.02 15.54,4.01 26.64,4.08 3.1,-9.9 4.14,-19.52 18.09,-31.13 7.91,-6.57 2.03,-2.3 7.7,-2.88 29.69,-3.02 20.69,-12.48 47.44,-20.96 -7.64,-5.42 -13.52,-3.62 -15.32,-10.45 14.19,-3.22 12.17,4.7 35.23,-12.9 21.72,-16.58 12.37,-8.69 38.05,-11.78 20.94,-2.53 5.87,-1.88 20.31,-7.73 14.57,-5.91 93.35,-10.51 114.29,-4.68 12.87,3.58 1.16,-0.03 10.4,4.48 38.11,18.6 33.51,14.86 50.77,51.39 14.44,30.6 2.79,16.19 33.42,29.46 -21,6.82 -2.59,18.86 -14.97,37.87 -16.36,25.14 -35.19,35.47 -54.08,47.23 -16.07,10 -9.79,10.13 -18.71,17.11 -9.23,7.23 -23.17,9.09 -44.94,27.79 -45.4,39 -19.02,5.23 -59.32,43.8l-20.91 12.95c-0.88,0.48 -2.1,1.2 -2.97,1.69 -32.92,18.16 -71.31,49.27 -91.98,51.98l17.82 -19.33c7.96,-11.6 7.1,-10.78 6.09,-28.92 19.4,3.01 8.71,2.46 24.81,5.57l10.7 -55.6c36.9,-2.4 0.26,-1.94 28.34,11.52 7.9,-13.69 13.5,-24.27 10.38,-46.56l22.86 3.26c12.81,-71.07 3.59,-1.11 15.97,-35.91 3.26,-9.16 5.86,2.61 1.13,-12.99zm-553.06 -172.15c-2.56,16.5 1.71,10.98 -9.7,19.29l12.58 6.76c22.97,-7.6 63.29,-29.91 86.76,-21.58 -14.07,19.09 -40.42,24.34 -51.01,43.74l24.32 2.1 4.84 18.18c1.34,-0.83 2.96,-1.89 4.05,-2.46l17.55 -7.78 26.8 -47.89c30.35,5.04 27.23,6.61 47.71,16.95l4.1 1.5c14.99,3.66 2.45,-11.6 20.39,10.18 -7.83,7.38 -23.28,17.43 -32.89,24.79l-51.54 37.02c-25.13,15.9 -1.9,9.26 -19.8,18.63 -10.62,5.56 -7.2,4.82 -20.31,7.63 -13.29,23.84 -24.32,19.11 -38.52,41.51 -9.72,15.34 4.54,3.82 -10.78,13.56 -5.92,-13.39 -16.02,-46.82 15.87,-37.7 -0.8,-1.3 -2.14,-2.8 -2.7,-3.69 -4.18,-6.63 -7.5,-8.29 -5.86,-15.35 3.29,-14.13 29.33,-22.59 45.41,-29.63l-5.58 -4.15 -11 -3.82c-6.25,-2.24 -0.46,-0.24 -8.54,-3.07 -9.85,13.36 -20.35,29.71 -33.03,42.46 -16.13,16.18 -29.25,21.61 -17.5,46.36 -20.41,-7.03 -16.2,-4.67 -27,11.73 -7.54,11.44 -13.04,15.62 -18.67,27.12 10.66,5.94 11.41,-7.91 8.91,6.84 14.39,-18.48 7.89,-18.32 25.8,-27.4 6.66,10.18 9.35,-3.79 5.96,15.02 -2.98,16.47 2.96,4.83 -11,10.11l11.21 2.01c5.85,21.72 -4.54,2.84 12.1,11.85 8.4,-27.07 10.66,-10.43 -0.72,-37.17l17.54 12.95c6.57,30 -17.54,32.61 -48.06,75.68 -14.95,21.09 4.03,10.55 -26.52,17.67 2.44,-13.9 1.24,-10.92 9.71,-23.6l0.91 -9.86c-1.24,-0.84 -3,-1.99 -4.35,-2.93l3.94 -15 -20.54 -11.69c-1.11,-0.39 -2.47,-0.63 -3.62,-0.95l-24.85 -8c7.86,-12.93 -0.34,-1.59 10.35,-12.6 9.3,-9.58 -1.21,5.17 9.07,-9.18 8.54,-15.89 6.08,-3.79 10.5,-19.28l-24.21 0c6.85,-15.37 3.94,-8.87 10.13,-19.17l6.42 -10.39c-8.29,-10.58 -8.7,-9.22 -21.39,-14.81l11.88 -24.62c-8.85,-6.01 -0.98,-4.49 -11.17,0.33 -9.79,4.63 7.09,0.64 -16.19,7.71 4,3.82 9.31,8.99 13.7,13.39 -16.39,8.61 -12.5,13.4 -13.25,19.42 -2.8,22.35 -6.77,10.06 -2.99,41.69l1.52 11.02c3.57,24.67 -0.29,0.86 8.1,23.2 10.78,28.71 -6.74,36.87 7.09,72.27 5.16,13.2 1.82,-6 5.51,14.26l-6.84 45.22c7.63,2.63 8.46,4.9 12.27,7.31 32.95,20.78 22.99,18.86 43.59,13.03 2.79,16.73 -18.22,-4.21 2.57,16.51 11.78,17.64 -3.01,14.41 23.78,12.52 -4.83,5.57 -4.83,7.59 -1.61,16.56l23.46 6.79 -11.96 13.01c6.97,15.6 9.47,12.62 11.98,19.7 3.68,10.37 -2.79,3.46 0.21,13.8 6.33,21.83 4.68,-8.65 17.39,37.98l25.25 14.48c0.68,9 -5.44,8.65 32.52,18.13 15.38,3.85 -1.56,5.62 17.95,-1.18 -8.9,24.96 -7.7,24.51 9.79,33l-12.72 9.13 31.59 36.92c0.3,0.21 8.79,4.8 9.54,5.23 70.24,39.87 -27.56,1.46 44.68,54.09 15.87,11.57 16.65,21.34 36.43,31.83 34.66,18.37 5.75,5.44 29.92,27.62 21.26,19.49 49.2,34.32 75.97,19.86l48.15 -30.24c39.42,-43.16 28.6,-16.99 59.81,-42.06 23.23,-18.66 -19.27,-8.81 59.41,-22.9 -7.39,-27.21 -13.97,-10.3 -17.4,-39.73 23.44,-1.75 30.68,-27.41 63.78,-50.45 -1.45,-2.82 -4.43,-10.56 -7.84,-15.91l8.35 -3.51c0.31,-0.1 13.98,-3.9 14.57,-4.06 0.37,-0.45 7.74,-8.62 8.08,-8.95l43.74 -53.46c14.83,-18.57 50.91,-44.2 76.86,-49.95 -1.69,-20.19 3.46,-30.28 -12.5,-47.55l47.18 -76.21c6.31,-18.79 22.87,-17.97 20.22,-43.7 -3.75,-36.41 13.88,-14.42 19.71,-47.16 5.42,-30.35 4.05,-21.58 16.18,-33.31l9.69 -9.75c11.89,-16.88 10.05,-23.63 1.34,-34.57 -29.8,-37.51 -13.67,-23.01 -33.55,-66.39l-9.2 -18.08c-26.38,-52.57 -31.14,-43.01 -64.63,-67.68 -33.39,-24.6 -112.42,-21.05 -128.16,-15.37 -25.63,9.28 17.43,-16.59 -9.38,9.09l-2.95 3.2c-13.97,8.45 -1.46,1.23 -10.8,-0.28 -25.42,-4.13 -41.94,8.77 -69.69,19.78 -15.35,6.08 -19.46,9.89 -31.67,17.07 -39.84,23.41 -72.79,55.82 -107.85,91.39l-28.95 -33.93c-11.06,-12.42 -18.75,-21.42 -31.15,-32.09 -67.08,-57.66 -88.68,-65.17 -165.16,-79.55 -21.37,-4.01 -18.55,-7.49 -39.49,4.58 -23.76,13.7 -16.83,-1.25 -49.9,9.03z"/>
 </g>
</svg>
