<!-- Generated by IcoMoon.io -->
<svg version="1.1" xmlns="http://www.w3.org/2000/svg" width="32" height="32" viewBox="0 0 32 32">
<title>carrito-de-compras</title>
<path d="M22.688 24q1.063 0 1.844 0.812t0.781 1.875-0.781 1.844-1.844 0.781-1.875-0.781-0.812-1.844 0.812-1.875 1.875-0.812zM1.312 2.688h4.375l1.251 2.625h19.751q0.563 0 0.937 0.407t0.375 0.969q0 0.063-0.188 0.625l-4.751 8.625q-0.751 1.375-2.312 1.375h-9.937l-1.188 2.188-0.063 0.188q0 0.312 0.312 0.312h15.437v2.688h-16q-1.063 0-1.844-0.812t-0.781-1.875q0-0.625 0.312-1.251l1.812-3.312-4.812-10.125h-2.688v-2.625zM9.312 24q1.063 0 1.875 0.812t0.812 1.875-0.812 1.844-1.875 0.781-1.844-0.781-0.781-1.844 0.781-1.875 1.844-0.812z"></path>
</svg>
