<?xml version="1.0" encoding="UTF-8"?>
<!DOCTYPE svg PUBLIC "-//W3C//DTD SVG 1.1//EN" "http://www.w3.org/Graphics/SVG/1.1/DTD/svg11.dtd">
<!-- Creator: CorelDRAW 2017 -->
<svg xmlns="http://www.w3.org/2000/svg" xml:space="preserve" width="44.197mm" height="13mm" version="1.1" style="shape-rendering:geometricPrecision; text-rendering:geometricPrecision; image-rendering:optimizeQuality; fill-rule:evenodd; clip-rule:evenodd"
viewBox="0 0 4419.7 1300"
 xmlns:xlink="http://www.w3.org/1999/xlink">
 <defs>
  <style type="text/css">
   <![CDATA[
    .fil1 {fill:black}
    .fil0 {fill:#1A3886}
    .fil2 {fill:#26156A}
    .fil3 {fill:#96989A;fill-rule:nonzero}
    .fil4 {fill:#005784;fill-rule:nonzero}
    .fil5 {fill:#1A96D4;fill-rule:nonzero}
   ]]>
  </style>
 </defs>
 <g id="Capa_x0020_1">
  <metadata id="CorelCorpID_0Corel-Layer"/>
  <g id="_2093459531936">
   <path class="fil0" d="M443.63 131.54c-1.21,21.37 0.8,29.29 -2.31,58.23 -6.17,57.41 -32.83,147.99 -59.07,196.62 -4.68,-5.48 -11.53,-19.17 -15.62,-26.19l-97.11 -188.35 -1.16 -2.99c-5.16,-14.84 -19.87,-73.8 -19.94,-81.32 -1.54,3.16 -3.48,8.72 -6.22,10.79 -14.54,34.14 -30.62,67.39 -45.49,101.5 -7.23,16.58 -12.15,36.04 -14.72,52.62 -2.71,17.51 -1.9,29.9 -2.37,46.59 -0.93,2.82 -0.37,1.06 -0.31,3.56 0.36,14.78 5.17,29.77 9.08,43.77l15.7 46.55c1.55,5.03 3.28,10.04 4.84,15.07 1.68,5.45 3.09,12.07 6.15,15.08 -0.55,3.9 0.06,5.53 2.15,10.87 1.64,4.17 2.36,5.13 3.78,9.78l12.04 35.76c0.26,0.88 0.46,1.62 0.78,2.53l24.21 64.75c3.14,7.68 1.39,5.39 2.96,10.16l4.53 21.9c0.64,5.83 -0.76,8.35 1.36,12.45 -4.78,4.11 -7.4,10.19 -10.85,15.59 -3.43,5.38 -7.69,10.38 -10.44,17.26 -2.33,0.89 -60.87,87.47 -62.92,90.18 -11.05,14.59 -21.5,30.16 -31.69,44.57l-64.34 89.14c-16.02,23.18 -31.47,43.08 -47.91,68.16 -5.6,8.54 -10.19,16.22 -15.64,24.88 -10.92,17.36 -18.36,33.33 -12.73,54.61 2,4.29 3.46,10.06 5.13,15.01l27.23 60.55c2.8,5.06 4.52,9.98 7.36,14.87 9.39,16.18 20.79,40.02 31.71,57.58 13.43,21.6 32.65,57.53 34.09,84.21l0.23 6.63c0.21,1.81 0.45,2.45 0.54,2.72 7.39,-9.31 21.69,-41.44 28.37,-54.16 18.45,-35.11 197.74,-380.9 199.81,-390.64 2.94,-1.83 5.3,-7.23 6.21,-11.36 5.29,-4.93 7.48,-18.37 13.49,-22.79 1.92,2.5 6.51,11.45 7.68,13.9 9.48,19.92 34.96,62.66 47.39,84.03 3.23,5.56 5.38,9.98 9.61,14.63 0.8,5.25 37.41,61.9 43.5,71.59 24.67,39.23 67.03,101.75 95.45,140.98 9.18,12.67 42.02,58.26 57.81,65.62 6.95,-5.23 55.12,-85.04 63.36,-98.99 22.13,-37.47 42.24,-73.54 57.22,-116.32 1.8,-7.04 1.19,-5.48 -3.83,-9.99 -3.39,-3.03 -5.31,-5.47 -8.3,-8.72 -16.18,-17.61 -29.97,-33.46 -44.48,-52.79l-20.07 -26.41c-3.5,-4.91 -30.69,-43.65 -34.49,-44.84 -1.1,-5.48 -3.07,-6.4 -6.85,-12.23l-16.04 -23.44c-2.98,-4.34 -5.49,-7.39 -8.2,-11.63l-31.22 -45.93 -80.08 -125.25c-8.47,-13.87 -16.65,-27.79 -25.35,-41.07l29.58 -73.17c25.74,-65.7 67.82,-150.74 66.65,-217.15 -0.76,-43.96 -15.87,-77.57 -41.04,-107.94 -10.84,-13.07 -76.34,-79.8 -90.25,-84.83l-1.87 -0.17c7.82,13.33 12.79,62.93 12.91,83.38z"/>
   <path class="fil1" d="M351.05 781.07c-0.91,4.13 -3.27,9.53 -6.21,11.36 -2.07,9.74 -181.36,355.53 -199.81,390.64 -6.68,12.72 -20.98,44.85 -28.37,54.16 -0.09,-0.27 -0.33,-0.91 -0.54,-2.72l-0.23 -6.63c-1.44,-26.68 -20.66,-62.61 -34.09,-84.21 -10.92,-17.56 -22.32,-41.4 -31.71,-57.58 -2.84,-4.89 -4.56,-9.81 -7.36,-14.87l-27.23 -60.55c-1.67,-4.95 -3.13,-10.72 -5.13,-15.01 -14.56,38.26 -13.54,49.56 1.61,81.69l3.49 7.05c1.31,2.61 0.04,0.35 1.67,3.08l32.35 60.15c0.12,0.22 0.28,0.55 0.39,0.78l2.85 6.38c0.11,0.23 0.26,0.56 0.36,0.8 0.1,0.23 0.25,0.56 0.36,0.79l12.13 28.06c1.44,4.43 1.92,5.55 3.67,9.84l5.53 15.71c0.71,2.03 1.12,3.2 1.66,5 1.16,3.94 1.98,6.95 3.14,11.03 3.35,11.79 7.71,30.68 13.31,41.89 17.84,35.73 38.82,-9.67 47.38,-25.19 13.69,-24.84 23.88,-49.05 37.6,-74.07 4.55,-8.29 9.17,-16.69 12.73,-24.97l101.22 -198.94c3.96,-7.28 7.98,-16.95 12.59,-25.27 13.28,-23.99 24.33,-50.61 38.37,-74.49 4.64,-7.88 7.89,-14.02 14.6,-18.65 11.81,-8.14 22.15,-3.82 29.65,7.15l7.43 11.98c0.12,0.23 0.29,0.55 0.41,0.78l84.62 148.68c1.74,3.02 3.44,6.16 5.38,9.08 0.74,1.12 0.77,1.01 1.57,2.17l95.22 144.88c8.1,10.59 14.39,18.74 29.44,23.15 23.89,7 40.76,-28.48 51.37,-45.53l19.69 -32.9c16.45,-30.25 47.41,-80.64 58.16,-111.61 2.63,-7.6 4.2,-18.97 3.78,-25.63l-1.25 -10.92c0.45,-5.41 4.15,-8.99 3.71,-13.89 -14.98,42.78 -35.09,78.85 -57.22,116.32 -8.24,13.95 -56.41,93.76 -63.36,98.99 -15.79,-7.36 -48.63,-52.95 -57.81,-65.62 -28.42,-39.23 -70.78,-101.75 -95.45,-140.98 -6.09,-9.69 -42.7,-66.34 -43.5,-71.59 -4.23,-4.65 -6.38,-9.07 -9.61,-14.63 -12.43,-21.37 -37.91,-64.11 -47.39,-84.03 -1.17,-2.45 -5.76,-11.4 -7.68,-13.9 -6.01,4.42 -8.2,17.86 -13.49,22.79z"/>
   <path class="fil2" d="M242.2 98.33c2.74,-2.07 4.68,-7.63 6.22,-10.79 0.07,7.52 14.78,66.48 19.94,81.32l1.16 2.99c3.01,-8.3 14.65,-20.75 21.01,-23.42 4.51,-2.58 7.84,-6.15 12.4,-8.82 29.27,-17.16 61.68,-21.35 95.61,-17.31 5.76,0.69 12.91,1.2 18.5,2.81 7.19,-0.5 19.37,2.98 26.59,6.43 -0.12,-20.45 -5.09,-70.05 -12.91,-83.38l1.87 0.17c-5.86,-11.72 -45.18,-21.58 -58.16,-22.5 -18.15,-1.28 -37.94,2.55 -51.6,6.63 -17.7,5.27 -30.83,9.73 -45.94,19.24 -17.28,10.87 -26.14,23.48 -34.69,46.63z"/>
   <path class="fil1" d="M179.62 299.04c0.47,-16.69 -0.34,-29.08 2.37,-46.59 2.57,-16.58 7.49,-36.04 14.72,-52.62 14.87,-34.11 30.95,-67.36 45.49,-101.5 8.55,-23.15 17.41,-35.76 34.69,-46.63 15.11,-9.51 28.24,-13.97 45.94,-19.24 13.66,-4.08 33.45,-7.91 51.6,-6.63 12.98,0.92 52.3,10.78 58.16,22.5 13.91,5.03 79.41,71.76 90.25,84.83 25.17,30.37 40.28,63.98 41.04,107.94 1.17,66.41 -40.91,151.45 -66.65,217.15l-29.58 73.17c8.7,13.28 16.88,27.2 25.35,41.07l80.08 125.25c-1.02,-7.93 -17.95,-30.99 -23.51,-40.55l-17.77 -30.32c-0.79,-1.31 -1.19,-1.88 -1.84,-3l-11.65 -19.67c-0.12,-0.22 -0.29,-0.54 -0.41,-0.77 -4.08,-7.48 -10.34,-15.08 -12.73,-23 -7.26,-24.15 -10.9,-37.73 -8.63,-64.09 0.29,-3.36 1.08,-5.23 1.95,-9.49 5.23,-25.7 17.56,-51.63 26.91,-76.2 7.55,-19.85 28.4,-69.72 32.72,-86.47 11.09,-43.13 26.57,-65.09 21.19,-117.67 -3.38,-33.08 -15.26,-66.85 -37.04,-92.5 -2.78,-3.29 -2.52,-3.94 -4.66,-6.53l-5.59 -6.11c-3.85,-4.57 -7.51,-8.3 -11.96,-12.81l-38.56 -37.27c-9.28,-8.59 -18.59,-17.52 -30.05,-22.89 -16.46,-7.71 -18.71,-6.49 -34.9,-17.84 -13.71,-9.61 -20.83,-10.9 -36.72,-11.83 -5.11,-0.29 -7.69,1.55 -12.48,2.06 -1.63,0.18 -3.19,0.07 -4.72,0.15l-24.81 4.43c-0.36,0.09 -1.38,0.33 -1.73,0.42l-26.33 7.45c-1.77,0.59 -2.58,0.66 -4.25,1.2 -0.35,0.11 -1.32,0.45 -1.66,0.58l-1.62 0.71c-0.24,0.1 -0.56,0.27 -0.81,0.37l-6.31 1.1c-0.17,-0.01 -0.53,-0.08 -0.7,-0.09l-6.48 0.71c-0.27,0.05 -0.64,0.1 -0.91,0.16l-12.15 2.84c-15.25,3.18 -24.73,17.7 -31.97,31.16 -9.47,17.62 -23.53,33.65 -30.72,53.11 -3.21,8.69 -5.86,11.69 -9.06,20.34 -3.15,8.51 -5.84,12.06 -8.65,19.14 -11.16,28.09 -19.75,70.93 -19.18,99.61l2.01 26.84c0.44,3.35 0.12,5.38 2.32,8.02z"/>
   <path class="fil1" d="M417.04 125.11c3.84,1.46 4.52,1.7 6.58,3.74 21.05,20.82 -0.72,140.22 -10.78,170.43 -2.4,7.2 -14.29,57.93 -36.05,41.11 -6.39,-4.94 -11.31,-11.45 -14.88,-18.26 -0.58,-1.1 -1.02,-1.89 -1.69,-3.08l-47.67 -93.47c-4.77,-10.7 -25.08,-49.81 -25.11,-60.53 0,-1.21 0.25,-7.17 0.33,-7.81 0.41,-3.4 1.49,-5.48 2.76,-8.81 -6.36,2.67 -18,15.12 -21.01,23.42l97.11 188.35c4.09,7.02 10.94,20.71 15.62,26.19 26.24,-48.63 52.9,-139.21 59.07,-196.62 3.11,-28.94 1.1,-36.86 2.31,-58.23 -7.22,-3.45 -19.4,-6.93 -26.59,-6.43z"/>
   <path class="fil3" d="M841.5 644.2c4.3,-2.53 10.8,-4.93 19.51,-7.2 8.71,-2.27 17.48,-3.41 26.31,-3.41 12.63,0 23.8,1.83 33.52,5.49 9.72,3.66 15.97,9.41 18.74,17.23 4.55,13.13 9.47,28.4 14.77,45.82 5.3,17.42 10.6,35.41 15.91,53.97 5.3,18.55 10.47,36.85 15.52,54.9 5.05,18.06 9.47,34.02 13.25,47.91 -3.02,3.53 -7.57,6.37 -13.63,8.52 -6.06,2.14 -13.25,3.22 -21.58,3.22 -6.06,0 -11.17,-0.51 -15.34,-1.52 -4.16,-1.01 -7.57,-2.52 -10.22,-4.54 -2.65,-2.02 -4.8,-4.67 -6.44,-7.95 -1.64,-3.29 -3.09,-7.07 -4.36,-11.36l-6.81 -26.13 -68.54 0c-2.02,7.57 -4.04,15.4 -6.06,23.47 -2.02,8.08 -4.04,15.91 -6.06,23.48 -3.54,1.26 -7.26,2.34 -11.17,3.22 -3.91,0.89 -8.65,1.33 -14.2,1.33 -12.88,0 -22.41,-2.21 -28.59,-6.63 -6.19,-4.42 -9.28,-10.54 -9.28,-18.37 0,-3.53 0.5,-7.06 1.51,-10.6 1.01,-3.53 2.15,-7.7 3.41,-12.5 1.77,-6.81 4.23,-15.27 7.39,-25.37 3.15,-10.1 6.62,-21.01 10.41,-32.75 3.79,-11.74 7.83,-23.8 12.12,-36.17 4.29,-12.37 8.33,-24.04 12.12,-35.02 3.78,-10.99 7.25,-20.77 10.41,-29.35 3.16,-8.59 5.62,-15.15 7.38,-19.69zm45.45 48.85c-3.54,10.6 -7.51,22.4 -11.93,35.4 -4.42,13 -8.4,26.19 -11.93,39.57l46.96 0c-3.54,-13.63 -7.14,-26.94 -10.8,-39.95 -3.66,-13 -7,-24.67 -10.03,-35.02l-2.27 0zm127.99 58.69c0,-19.69 3.1,-37.11 9.28,-52.26 6.19,-15.14 14.64,-27.83 25.37,-38.05 10.73,-10.23 23.35,-17.99 37.87,-23.29 14.52,-5.3 30.23,-7.96 47.15,-7.96 16.91,0 32.63,2.66 47.14,7.96 14.52,5.3 27.2,13.06 38.06,23.29 10.86,10.22 19.38,22.91 25.56,38.05 6.19,15.15 9.28,32.57 9.28,52.26 0,24.74 -4.55,45.76 -13.63,63.05 -9.09,17.29 -21.46,30.86 -37.11,40.71 3.78,1.77 8.26,3.66 13.44,5.68 5.17,2.02 10.6,4.04 16.28,6.06 5.68,2.02 11.55,3.97 17.61,5.87 6.06,1.89 11.74,3.6 17.04,5.11 0.25,1.52 0.38,2.84 0.38,3.98 0,1.13 0,2.21 0,3.22 0,14.39 -3.72,24.86 -11.17,31.43 -7.45,6.56 -17.23,9.84 -29.35,9.84 -11.61,0 -23.6,-3.22 -35.97,-9.65 -12.37,-6.44 -25,-15.72 -37.87,-27.84l-16.66 -15.52 -3.03 0c-17.17,0 -33.07,-2.72 -47.72,-8.15 -14.64,-5.42 -27.26,-13.31 -37.86,-23.66 -10.61,-10.35 -18.94,-23.1 -25,-38.25 -6.06,-15.15 -9.09,-32.44 -9.09,-51.88zm68.17 0c0,22.97 4.67,40.14 14.01,51.5 9.34,11.36 21.83,17.04 37.49,17.04 15.9,0 28.52,-5.68 37.86,-17.04 9.35,-11.36 14.02,-28.53 14.02,-51.5 0,-22.72 -4.61,-39.76 -13.83,-51.12 -9.21,-11.36 -21.77,-17.04 -37.67,-17.04 -15.66,0 -28.22,5.62 -37.68,16.85 -9.47,11.23 -14.2,28.34 -14.2,51.31zm413.52 30.3c0,13.63 -2.34,26.06 -7.01,37.3 -4.67,11.23 -11.42,20.82 -20.26,28.78 -8.84,7.95 -19.56,14.07 -32.19,18.36 -12.62,4.29 -26.88,6.44 -42.79,6.44 -15.9,0 -30.17,-2.15 -42.79,-6.44 -12.62,-4.29 -23.35,-10.41 -32.19,-18.36 -8.83,-7.96 -15.59,-17.55 -20.26,-28.78 -4.67,-11.24 -7,-23.67 -7,-37.3l0 -144.66c2.78,-0.5 7.19,-1.2 13.25,-2.08 6.06,-0.89 11.87,-1.33 17.42,-1.33 5.81,0 10.92,0.44 15.34,1.33 4.42,0.88 8.14,2.46 11.17,4.73 3.03,2.27 5.3,5.43 6.82,9.47 1.51,4.04 2.27,9.34 2.27,15.9l0 115.5c0,12.12 3.34,21.58 10.03,28.4 6.69,6.82 15.34,10.22 25.94,10.22 10.86,0 19.57,-3.4 26.13,-10.22 6.56,-6.82 9.85,-16.28 9.85,-28.4l0 -143.52c2.77,-0.5 7.19,-1.2 13.25,-2.08 6.06,-0.89 11.87,-1.33 17.42,-1.33 5.81,0 10.92,0.44 15.34,1.33 4.41,0.88 8.14,2.46 11.17,4.73 3.03,2.27 5.3,5.43 6.81,9.47 1.52,4.04 2.28,9.34 2.28,15.9l0 116.64zm106.78 -237.44c12.37,1.01 21.21,3.98 26.51,8.9 5.3,4.93 7.95,10.67 7.95,17.23 0,7.32 -2.08,13.13 -6.25,17.42 -4.16,4.29 -10.66,8.21 -19.5,11.74l-51.88 20.45c-7.32,-1.52 -13.19,-4.54 -17.61,-9.09 -4.42,-4.54 -6.63,-9.59 -6.63,-15.15 0,-3.53 0.95,-6.94 2.84,-10.22 1.9,-3.28 4.86,-5.93 8.9,-7.95l55.67 -33.33zm7.57 320.75c-2.77,0.75 -7.13,1.51 -13.06,2.27 -5.93,0.75 -11.8,1.13 -17.61,1.13 -5.81,0 -10.92,-0.44 -15.34,-1.32 -4.41,-0.89 -8.14,-2.46 -11.17,-4.74 -3.03,-2.27 -5.3,-5.42 -6.81,-9.46 -1.52,-4.04 -2.28,-9.34 -2.28,-15.91l0 -199.94c2.78,-0.5 7.2,-1.2 13.26,-2.08 6.06,-0.89 11.86,-1.33 17.42,-1.33 5.8,0 10.92,0.44 15.33,1.33 4.42,0.88 8.15,2.46 11.17,4.73 3.03,2.27 5.31,5.43 6.82,9.47 1.52,4.04 2.27,9.34 2.27,15.9l0 199.95zm332.87 -6.44c-3.53,3.53 -8.65,6.25 -15.34,8.14 -6.69,1.89 -14.7,2.84 -24.04,2.84 -9.34,0 -18.18,-1.39 -26.51,-4.17 -8.33,-2.77 -15.15,-9.46 -20.45,-20.07l-37.49 -76.49c-3.79,-7.83 -7.19,-15.21 -10.22,-22.15 -3.03,-6.94 -6.31,-14.96 -9.85,-24.05l-2.27 0.38c1.01,13.63 1.58,27.52 1.7,41.66 0.13,14.13 0.19,28.02 0.19,41.65l0 58.7c-2.77,0.75 -7,1.51 -12.68,2.27 -5.68,0.75 -11.3,1.13 -16.85,1.13 -5.56,0 -10.48,-0.38 -14.77,-1.13 -4.29,-0.76 -7.83,-2.27 -10.61,-4.55 -2.77,-2.27 -4.92,-5.36 -6.43,-9.27 -1.52,-3.92 -2.28,-9.03 -2.28,-15.34l0 -189.34c3.54,-5.05 8.97,-8.84 16.29,-11.36 7.32,-2.53 15.14,-3.79 23.48,-3.79 9.34,0 18.24,1.45 26.69,4.36 8.46,2.9 15.21,9.53 20.26,19.88l37.87 76.49c3.79,7.83 7.19,15.21 10.22,22.15 3.03,6.95 6.32,14.96 9.85,24.05l1.89 -0.38c-1.01,-13.63 -1.64,-27.26 -1.89,-40.9 -0.25,-13.63 -0.38,-27.26 -0.38,-40.89l0 -61.35c2.78,-0.76 7.01,-1.51 12.69,-2.27 5.68,-0.76 11.29,-1.14 16.85,-1.14 11.11,0 19.56,1.96 25.37,5.87 5.81,3.91 8.71,12.06 8.71,24.43l0 194.64zm98.07 -214.71c4.3,-2.53 10.8,-4.93 19.51,-7.2 8.71,-2.27 17.48,-3.41 26.31,-3.41 12.63,0 23.8,1.83 33.52,5.49 9.72,3.66 15.97,9.41 18.74,17.23 4.55,13.13 9.47,28.4 14.77,45.82 5.3,17.42 10.6,35.41 15.91,53.97 5.3,18.55 10.47,36.85 15.52,54.9 5.05,18.06 9.47,34.02 13.25,47.91 -3.02,3.53 -7.57,6.37 -13.63,8.52 -6.06,2.14 -13.25,3.22 -21.58,3.22 -6.06,0 -11.17,-0.51 -15.34,-1.52 -4.16,-1.01 -7.57,-2.52 -10.22,-4.54 -2.65,-2.02 -4.8,-4.67 -6.44,-7.95 -1.64,-3.29 -3.09,-7.07 -4.36,-11.36l-6.81 -26.13 -68.54 0c-2.02,7.57 -4.04,15.4 -6.06,23.47 -2.02,8.08 -4.04,15.91 -6.06,23.48 -3.54,1.26 -7.26,2.34 -11.17,3.22 -3.91,0.89 -8.65,1.33 -14.2,1.33 -12.88,0 -22.41,-2.21 -28.59,-6.63 -6.19,-4.42 -9.28,-10.54 -9.28,-18.37 0,-3.53 0.5,-7.06 1.51,-10.6 1.01,-3.53 2.15,-7.7 3.41,-12.5 1.77,-6.81 4.23,-15.27 7.39,-25.37 3.15,-10.1 6.62,-21.01 10.41,-32.75 3.79,-11.74 7.83,-23.8 12.12,-36.17 4.29,-12.37 8.33,-24.04 12.12,-35.02 3.78,-10.99 7.25,-20.77 10.41,-29.35 3.16,-8.59 5.62,-15.15 7.38,-19.69zm45.45 48.85c-3.54,10.6 -7.51,22.4 -11.93,35.4 -4.42,13 -8.4,26.19 -11.93,39.57l46.96 0c-3.54,-13.63 -7.14,-26.94 -10.8,-39.95 -3.66,-13 -7,-24.67 -10.03,-35.02l-2.27 0zm209.02 124.58c2.78,0.51 6.19,0.95 10.23,1.33 4.04,0.38 7.82,0.56 11.36,0.56 8.58,0 16.47,-1.26 23.67,-3.78 7.19,-2.53 13.38,-6.44 18.55,-11.74 5.18,-5.3 9.22,-12.18 12.12,-20.64 2.9,-8.46 4.35,-18.62 4.35,-30.48 0,-22.72 -5.3,-39.83 -15.9,-51.31 -10.6,-11.49 -24.74,-17.23 -42.41,-17.23 -3.54,0 -7.13,0.12 -10.79,0.37 -3.66,0.26 -7.39,0.64 -11.18,1.14l0 131.78zm21.21 55.29c-4.29,0 -9.21,-0.13 -14.77,-0.38 -5.55,-0.25 -11.3,-0.76 -17.23,-1.51 -5.93,-0.76 -11.86,-1.71 -17.8,-2.84 -5.93,-1.14 -11.42,-2.72 -16.47,-4.74 -13.88,-5.3 -20.83,-14.51 -20.83,-27.64l0 -176.85c0,-5.3 1.46,-9.4 4.36,-12.3 2.9,-2.91 6.88,-5.24 11.93,-7.01 10.85,-3.53 22.34,-5.87 34.46,-7 12.12,-1.14 22.97,-1.71 32.56,-1.71 19.7,0 37.56,2.4 53.59,7.2 16.03,4.79 29.79,12.18 41.27,22.15 11.49,9.97 20.39,22.53 26.7,37.68 6.31,15.15 9.47,33.07 9.47,53.77 0,20.2 -3.03,37.81 -9.09,52.83 -6.06,15.02 -14.71,27.64 -25.94,37.87 -11.23,10.22 -24.68,17.86 -40.33,22.91 -15.65,5.04 -32.95,7.57 -51.88,7.57zm231.37 -7.57c-2.77,0.75 -7.13,1.51 -13.06,2.27 -5.93,0.75 -11.8,1.13 -17.61,1.13 -5.81,0 -10.92,-0.44 -15.34,-1.32 -4.41,-0.89 -8.14,-2.46 -11.17,-4.74 -3.03,-2.27 -5.3,-5.42 -6.81,-9.46 -1.52,-4.04 -2.28,-9.34 -2.28,-15.91l0 -199.94c2.78,-0.5 7.2,-1.2 13.26,-2.08 6.06,-0.89 11.86,-1.33 17.42,-1.33 5.8,0 10.92,0.44 15.33,1.33 4.42,0.88 8.15,2.46 11.17,4.73 3.03,2.27 5.31,5.43 6.82,9.47 1.52,4.04 2.27,9.34 2.27,15.9l0 199.95zm49.23 -192.75c0,-10.86 3.16,-19.44 9.47,-25.75 6.31,-6.31 14.9,-9.47 25.75,-9.47l124.97 0c1.76,2.78 3.34,6.44 4.73,10.98 1.39,4.55 2.08,9.34 2.08,14.39 0,9.59 -2.08,16.41 -6.25,20.45 -4.16,4.04 -9.65,6.06 -16.47,6.06l-79.9 0 0 35.22 85.2 0c1.77,2.77 3.35,6.37 4.74,10.79 1.38,4.42 2.08,9.15 2.08,14.2 0,9.59 -2.02,16.41 -6.06,20.45 -4.04,4.04 -9.47,6.06 -16.28,6.06l-69.68 0 0 39.76 97.32 0c1.77,2.78 3.35,6.44 4.73,10.98 1.39,4.54 2.09,9.34 2.09,14.39 0,9.59 -2.09,16.47 -6.25,20.64 -4.17,4.16 -9.66,6.25 -16.47,6.25l-110.58 0c-10.85,0 -19.44,-3.16 -25.75,-9.47 -6.31,-6.31 -9.47,-14.9 -9.47,-25.75l0 -160.18zm348.4 103c-11.11,-3.79 -21.21,-7.64 -30.3,-11.55 -9.09,-3.91 -16.91,-8.65 -23.48,-14.2 -6.56,-5.56 -11.67,-12.18 -15.33,-19.88 -3.66,-7.7 -5.49,-17.11 -5.49,-28.21 0,-21.46 8.27,-38.63 24.8,-51.5 16.54,-12.88 39.7,-19.32 69.49,-19.32 10.85,0 20.95,0.76 30.29,2.27 9.34,1.52 17.36,3.85 24.05,7.01 6.69,3.16 11.93,7.19 15.71,12.12 3.79,4.92 5.68,10.66 5.68,17.23 0,6.56 -1.51,12.18 -4.54,16.85 -3.03,4.67 -6.69,8.65 -10.98,11.93 -5.56,-3.54 -13,-6.63 -22.34,-9.28 -9.34,-2.65 -19.57,-3.98 -30.68,-3.98 -11.36,0 -19.69,1.58 -24.99,4.74 -5.3,3.15 -7.95,7.13 -7.95,11.93 0,3.78 1.64,6.87 4.92,9.27 3.28,2.4 8.21,4.61 14.77,6.63l20.07 6.44c23.73,7.57 41.97,17.23 54.72,28.97 12.75,11.74 19.12,27.7 19.12,47.9 0,21.46 -8.45,38.81 -25.37,52.07 -16.91,13.25 -41.78,19.88 -74.6,19.88 -11.61,0 -22.4,-0.95 -32.38,-2.84 -9.97,-1.89 -18.68,-4.67 -26.13,-8.33 -7.44,-3.66 -13.25,-8.21 -17.41,-13.63 -4.17,-5.43 -6.25,-11.68 -6.25,-18.75 0,-7.32 2.14,-13.57 6.43,-18.74 4.3,-5.18 8.97,-9.16 14.02,-11.93 7.06,5.55 15.71,10.35 25.94,14.39 10.22,4.04 21.39,6.06 33.51,6.06 12.37,0 21.08,-1.9 26.13,-5.68 5.05,-3.79 7.57,-8.21 7.57,-13.26 0,-5.05 -2.02,-8.9 -6.06,-11.55 -4.04,-2.65 -9.72,-5.24 -17.04,-7.76l-15.9 -5.3zm143.51 -103c0,-10.86 3.16,-19.44 9.47,-25.75 6.31,-6.31 14.9,-9.47 25.75,-9.47l124.97 0c1.76,2.78 3.34,6.44 4.73,10.98 1.39,4.55 2.08,9.34 2.08,14.39 0,9.59 -2.08,16.41 -6.25,20.45 -4.16,4.04 -9.65,6.06 -16.47,6.06l-79.9 0 0 35.22 85.2 0c1.77,2.77 3.35,6.37 4.74,10.79 1.38,4.42 2.08,9.15 2.08,14.2 0,9.59 -2.02,16.41 -6.06,20.45 -4.04,4.04 -9.47,6.06 -16.28,6.06l-69.68 0 0 39.76 97.32 0c1.77,2.78 3.35,6.44 4.73,10.98 1.39,4.54 2.09,9.34 2.09,14.39 0,9.59 -2.09,16.47 -6.25,20.64 -4.17,4.16 -9.66,6.25 -16.47,6.25l-110.58 0c-10.85,0 -19.44,-3.16 -25.75,-9.47 -6.31,-6.31 -9.47,-14.9 -9.47,-25.75l0 -160.18zm349.15 120.04l0 72.71c-2.77,0.75 -7.13,1.51 -13.06,2.27 -5.93,0.75 -11.8,1.13 -17.61,1.13 -5.8,0 -10.92,-0.44 -15.34,-1.32 -4.41,-0.89 -8.07,-2.46 -10.98,-4.74 -2.9,-2.27 -5.11,-5.42 -6.62,-9.46 -1.52,-4.04 -2.28,-9.34 -2.28,-15.91l0 -178.36c0,-5.3 1.46,-9.4 4.36,-12.3 2.9,-2.91 6.88,-5.24 11.93,-7.01 8.58,-3.03 18.55,-5.24 29.91,-6.62 11.36,-1.39 23.48,-2.09 36.36,-2.09 34.84,0 61.09,7.32 78.76,21.97 17.67,14.64 26.51,34.46 26.51,59.45 0,15.65 -4.04,29.03 -12.12,40.14 -8.08,11.11 -17.67,19.69 -28.78,25.75 9.09,12.37 18.05,23.98 26.89,34.84 8.83,10.85 15.78,20.7 20.83,29.53 -2.53,8.84 -7.14,15.59 -13.83,20.26 -6.69,4.67 -14.2,7.01 -22.53,7.01 -5.55,0 -10.35,-0.63 -14.39,-1.89 -4.04,-1.27 -7.57,-3.03 -10.6,-5.31 -3.03,-2.27 -5.81,-5.04 -8.33,-8.33 -2.53,-3.28 -4.92,-6.81 -7.2,-10.6l-31.81 -51.12 -20.07 0zm23.86 -50.37c9.59,0 17.17,-2.46 22.72,-7.38 5.56,-4.92 8.33,-12.18 8.33,-21.77 0,-9.6 -3.09,-16.86 -9.27,-21.78 -6.19,-4.92 -15.97,-7.38 -29.35,-7.38 -3.79,0 -6.82,0.12 -9.09,0.38 -2.27,0.25 -4.8,0.63 -7.57,1.13l0 56.8 24.23 0zm207.14 123.08c-2.77,0.75 -7.13,1.51 -13.06,2.27 -5.93,0.75 -11.8,1.13 -17.61,1.13 -5.81,0 -10.92,-0.44 -15.34,-1.32 -4.41,-0.89 -8.14,-2.46 -11.17,-4.74 -3.03,-2.27 -5.3,-5.42 -6.81,-9.46 -1.52,-4.04 -2.28,-9.34 -2.28,-15.91l0 -199.94c2.78,-0.5 7.2,-1.2 13.26,-2.08 6.06,-0.89 11.86,-1.33 17.42,-1.33 5.8,0 10.92,0.44 15.33,1.33 4.42,0.88 8.15,2.46 11.17,4.73 3.03,2.27 5.31,5.43 6.82,9.47 1.52,4.04 2.27,9.34 2.27,15.9l0 199.95zm257.13 -6.44c-3.53,3.53 -8.65,6.25 -15.34,8.14 -6.69,1.89 -14.7,2.84 -24.04,2.84 -9.34,0 -18.18,-1.39 -26.51,-4.17 -8.33,-2.77 -15.15,-9.46 -20.45,-20.07l-37.49 -76.49c-3.79,-7.83 -7.19,-15.21 -10.22,-22.15 -3.03,-6.94 -6.31,-14.96 -9.85,-24.05l-2.27 0.38c1.01,13.63 1.58,27.52 1.7,41.66 0.13,14.13 0.19,28.02 0.19,41.65l0 58.7c-2.77,0.75 -7,1.51 -12.68,2.27 -5.68,0.75 -11.3,1.13 -16.85,1.13 -5.56,0 -10.48,-0.38 -14.77,-1.13 -4.29,-0.76 -7.83,-2.27 -10.61,-4.55 -2.77,-2.27 -4.92,-5.36 -6.43,-9.27 -1.52,-3.92 -2.28,-9.03 -2.28,-15.34l0 -189.34c3.54,-5.05 8.97,-8.84 16.29,-11.36 7.32,-2.53 15.14,-3.79 23.48,-3.79 9.34,0 18.24,1.45 26.69,4.36 8.46,2.9 15.21,9.53 20.26,19.88l37.87 76.49c3.79,7.83 7.19,15.21 10.22,22.15 3.03,6.95 6.32,14.96 9.85,24.05l1.89 -0.38c-1.01,-13.63 -1.64,-27.26 -1.89,-40.9 -0.25,-13.63 -0.38,-27.26 -0.38,-40.89l0 -61.35c2.78,-0.76 7.01,-1.51 12.69,-2.27 5.68,-0.76 11.29,-1.14 16.85,-1.14 11.11,0 19.56,1.96 25.37,5.87 5.81,3.91 8.71,12.06 8.71,24.43l0 194.64zm115.11 -41.28c2.78,0.51 6.19,0.95 10.23,1.33 4.04,0.38 7.82,0.56 11.36,0.56 8.58,0 16.47,-1.26 23.67,-3.78 7.19,-2.53 13.38,-6.44 18.55,-11.74 5.18,-5.3 9.22,-12.18 12.12,-20.64 2.9,-8.46 4.35,-18.62 4.35,-30.48 0,-22.72 -5.3,-39.83 -15.9,-51.31 -10.6,-11.49 -24.74,-17.23 -42.41,-17.23 -3.54,0 -7.13,0.12 -10.79,0.37 -3.66,0.26 -7.39,0.64 -11.18,1.14l0 131.78zm21.21 55.29c-4.29,0 -9.21,-0.13 -14.77,-0.38 -5.55,-0.25 -11.3,-0.76 -17.23,-1.51 -5.93,-0.76 -11.86,-1.71 -17.8,-2.84 -5.93,-1.14 -11.42,-2.72 -16.47,-4.74 -13.88,-5.3 -20.83,-14.51 -20.83,-27.64l0 -176.85c0,-5.3 1.46,-9.4 4.36,-12.3 2.9,-2.91 6.88,-5.24 11.93,-7.01 10.85,-3.53 22.34,-5.87 34.46,-7 12.12,-1.14 22.97,-1.71 32.56,-1.71 19.7,0 37.56,2.4 53.59,7.2 16.03,4.79 29.79,12.18 41.27,22.15 11.49,9.97 20.39,22.53 26.7,37.68 6.31,15.15 9.47,33.07 9.47,53.77 0,20.2 -3.03,37.81 -9.09,52.83 -6.06,15.02 -14.71,27.64 -25.94,37.87 -11.23,10.22 -24.68,17.86 -40.33,22.91 -15.65,5.04 -32.95,7.57 -51.88,7.57zm165.1 -200.32c0,-10.86 3.16,-19.44 9.47,-25.75 6.31,-6.31 14.9,-9.47 25.75,-9.47l124.97 0c1.76,2.78 3.34,6.44 4.73,10.98 1.39,4.55 2.08,9.34 2.08,14.39 0,9.59 -2.08,16.41 -6.25,20.45 -4.16,4.04 -9.65,6.06 -16.47,6.06l-79.9 0 0 35.22 85.2 0c1.77,2.77 3.35,6.37 4.74,10.79 1.38,4.42 2.08,9.15 2.08,14.2 0,9.59 -2.02,16.41 -6.06,20.45 -4.04,4.04 -9.47,6.06 -16.28,6.06l-69.68 0 0 39.76 97.32 0c1.77,2.78 3.35,6.44 4.73,10.98 1.39,4.54 2.09,9.34 2.09,14.39 0,9.59 -2.09,16.47 -6.25,20.64 -4.17,4.16 -9.66,6.25 -16.47,6.25l-110.58 0c-10.85,0 -19.44,-3.16 -25.75,-9.47 -6.31,-6.31 -9.47,-14.9 -9.47,-25.75l0 -160.18z"/>
   <path class="fil4" d="M1088.17 453.84c0,12.05 -2.14,21 -6.42,26.83 -4.28,5.83 -11.08,11.47 -20.41,16.91 -5.45,3.11 -12.25,6.13 -20.42,9.04 -8.16,2.92 -17.11,5.45 -26.83,7.58 -9.72,2.14 -19.92,3.8 -30.62,4.96 -10.69,1.17 -21.29,1.75 -31.78,1.75 -28,0 -54.25,-3.79 -78.74,-11.37 -24.5,-7.58 -45.79,-19.05 -63.87,-34.41 -18.08,-15.36 -32.37,-34.51 -42.87,-57.45 -10.5,-22.94 -15.75,-49.58 -15.75,-79.91 0,-31.88 5.74,-59.68 17.21,-83.4 11.47,-23.72 26.63,-43.46 45.49,-59.2 18.86,-15.75 40.44,-27.51 64.74,-35.29 24.31,-7.78 49.29,-11.66 74.95,-11.66 36.94,0 66.2,5.92 87.78,17.78 21.58,11.86 32.37,27.32 32.37,46.37 0,10.11 -2.53,18.86 -7.58,26.25 -5.06,7.39 -10.89,13.22 -17.5,17.5 -9.72,-5.84 -21.87,-11.57 -36.45,-17.21 -14.58,-5.64 -31.01,-8.46 -49.29,-8.46 -32.66,0 -58.61,9.34 -77.86,28 -19.25,18.66 -28.87,44.52 -28.87,77.57 0,17.89 2.62,33.34 7.87,46.37 5.25,13.03 12.35,23.72 21.29,32.08 8.94,8.36 19.25,14.58 30.91,18.66 11.67,4.09 24.11,6.13 37.33,6.13 8.56,0 16.14,-0.78 22.75,-2.34 6.61,-1.55 11.66,-3.3 15.16,-5.25l0 -54.82 -62.4 0c-2.34,-4.28 -4.57,-9.92 -6.71,-16.92 -2.14,-6.99 -3.21,-14.38 -3.21,-22.16 0,-14 3.21,-24.11 9.62,-30.33 6.42,-6.22 14.68,-9.33 24.79,-9.33l98.57 0c11.67,0 20.71,3.21 27.12,9.62 6.42,6.42 9.63,15.46 9.63,27.13l0 118.98zm59.49 -221.64c3.89,-1.16 10.01,-2.33 18.37,-3.5 8.36,-1.16 17.01,-1.75 25.96,-1.75 8.55,0 16.23,0.59 23.03,1.75 6.81,1.17 12.54,3.5 17.21,7 4.67,3.5 8.26,8.27 10.79,14.29 2.53,6.03 3.79,13.9 3.79,23.62l0 125.4c0,15.94 3.89,27.32 11.67,34.12 7.77,6.81 19.05,10.21 33.83,10.21 8.94,0 16.23,-0.78 21.87,-2.33 5.63,-1.56 10.01,-3.11 13.12,-4.67l0 -204.14c3.89,-1.16 10.01,-2.33 18.37,-3.5 8.36,-1.16 17.01,-1.75 25.96,-1.75 8.55,0 16.23,0.59 23.04,1.75 6.8,1.17 12.54,3.5 17.2,7 4.67,3.5 8.26,8.27 10.79,14.29 2.53,6.03 3.79,13.9 3.79,23.62l0 177.31c0,19.44 -8.16,34.02 -24.49,43.75 -13.61,8.55 -29.85,15.06 -48.71,19.53 -18.85,4.48 -39.36,6.71 -61.53,6.71 -21,0 -40.34,-2.33 -58.03,-7 -17.69,-4.66 -32.96,-11.86 -45.79,-21.58 -12.83,-9.72 -22.74,-22.26 -29.74,-37.62 -7,-15.36 -10.5,-33.92 -10.5,-55.7l0 -166.81zm337.12 -82.82c0,-14.77 4.95,-27.22 14.87,-37.33 9.91,-10.11 23.04,-15.16 39.37,-15.16 16.33,0 29.45,5.05 39.37,15.16 9.91,10.11 14.87,22.56 14.87,37.33 0,14.78 -4.96,27.22 -14.87,37.33 -9.92,10.11 -23.04,15.16 -39.37,15.16 -16.33,0 -29.46,-5.05 -39.37,-15.16 -9.92,-10.11 -14.87,-22.55 -14.87,-37.33zm103.81 361.62c-4.27,0.77 -10.59,1.84 -18.95,3.2 -8.36,1.37 -16.82,2.05 -25.37,2.05 -8.56,0 -16.24,-0.59 -23.04,-1.75 -6.81,-1.17 -12.54,-3.5 -17.21,-7 -4.66,-3.5 -8.26,-8.27 -10.79,-14.29 -2.52,-6.03 -3.79,-13.9 -3.79,-23.62l0 -237.39c4.28,-0.77 10.6,-1.84 18.96,-3.2 8.36,-1.37 16.81,-2.05 25.37,-2.05 8.55,0 16.23,0.59 23.04,1.75 6.8,1.17 12.54,3.5 17.2,7 4.67,3.5 8.27,8.27 10.79,14.29 2.53,6.03 3.79,13.9 3.79,23.62l0 237.39zm163.9 0c-4.28,0.77 -10.59,1.84 -18.95,3.2 -8.36,1.37 -16.82,2.05 -25.38,2.05 -8.55,0 -16.23,-0.59 -23.03,-1.75 -6.81,-1.17 -12.54,-3.5 -17.21,-7 -4.67,-3.5 -8.26,-8.27 -10.79,-14.29 -2.53,-6.03 -3.79,-13.9 -3.79,-23.62l0 -338.29c4.28,-0.78 10.59,-1.85 18.95,-3.21 8.36,-1.36 16.82,-2.04 25.38,-2.04 8.55,0 16.23,0.58 23.03,1.75 6.81,1.17 12.54,3.5 17.21,7 4.67,3.5 8.26,8.26 10.79,14.29 2.53,6.03 3.79,13.9 3.79,23.62l0 338.29zm163.31 0c-4.28,0.77 -10.59,1.84 -18.95,3.2 -8.36,1.37 -16.82,2.05 -25.38,2.05 -8.55,0 -16.23,-0.59 -23.03,-1.75 -6.81,-1.17 -12.54,-3.5 -17.21,-7 -4.67,-3.5 -8.26,-8.27 -10.79,-14.29 -2.53,-6.03 -3.79,-13.9 -3.79,-23.62l0 -338.29c4.28,-0.78 10.59,-1.85 18.95,-3.21 8.36,-1.36 16.82,-2.04 25.38,-2.04 8.55,0 16.23,0.58 23.03,1.75 6.81,1.17 12.54,3.5 17.21,7 4.67,3.5 8.26,8.26 10.79,14.29 2.53,6.03 3.79,13.9 3.79,23.62l0 338.29zm183.73 -62.41c6.61,0 13.9,-0.68 21.87,-2.04 7.97,-1.36 13.9,-3.21 17.79,-5.54l0 -46.66 -42 3.5c-10.89,0.77 -19.83,3.11 -26.83,7 -7,3.88 -10.5,9.72 -10.5,17.49 0,7.78 3.02,14.1 9.04,18.96 6.03,4.86 16.24,7.29 30.63,7.29zm-4.67 -229.22c21,0 40.15,2.14 57.45,6.42 17.3,4.27 32.08,10.79 44.33,19.54 12.24,8.75 21.67,19.83 28.28,33.24 6.61,13.42 9.92,29.26 9.92,47.54l0 130.64c0,10.11 -2.82,18.38 -8.46,24.79 -5.64,6.42 -12.34,11.96 -20.12,16.63 -25.27,15.16 -60.85,22.74 -106.73,22.74 -20.61,0 -39.18,-1.94 -55.71,-5.83 -16.52,-3.89 -30.71,-9.72 -42.57,-17.5 -11.86,-7.77 -21,-17.69 -27.42,-29.74 -6.41,-12.06 -9.62,-26.06 -9.62,-42 0,-26.83 7.97,-47.44 23.91,-61.82 15.95,-14.39 40.64,-23.33 74.08,-26.83l76.4 -8.17 0 -4.08c0,-11.28 -4.95,-19.34 -14.87,-24.2 -9.92,-4.87 -24.2,-7.3 -42.87,-7.3 -14.77,0 -29.16,1.56 -43.16,4.67 -14,3.11 -26.63,7 -37.91,11.67 -5.06,-3.5 -9.33,-8.85 -12.83,-16.04 -3.5,-7.2 -5.25,-14.68 -5.25,-22.46 0,-10.11 2.43,-18.18 7.29,-24.2 4.86,-6.03 12.34,-11.18 22.45,-15.46 11.28,-4.28 24.6,-7.39 39.96,-9.33 15.36,-1.95 29.84,-2.92 43.45,-2.92zm198.31 -69.99c0,-14.77 4.95,-27.22 14.87,-37.33 9.91,-10.11 23.04,-15.16 39.37,-15.16 16.33,0 29.45,5.05 39.37,15.16 9.91,10.11 14.87,22.56 14.87,37.33 0,14.78 -4.96,27.22 -14.87,37.33 -9.92,10.11 -23.04,15.16 -39.37,15.16 -16.33,0 -29.46,-5.05 -39.37,-15.16 -9.92,-10.11 -14.87,-22.55 -14.87,-37.33zm103.81 361.62c-4.27,0.77 -10.59,1.84 -18.95,3.2 -8.36,1.37 -16.82,2.05 -25.37,2.05 -8.56,0 -16.24,-0.59 -23.04,-1.75 -6.81,-1.17 -12.54,-3.5 -17.21,-7 -4.66,-3.5 -8.26,-8.27 -10.79,-14.29 -2.52,-6.03 -3.79,-13.9 -3.79,-23.62l0 -237.39c4.28,-0.77 10.6,-1.84 18.96,-3.2 8.36,-1.37 16.81,-2.05 25.37,-2.05 8.55,0 16.23,0.59 23.04,1.75 6.8,1.17 12.54,3.5 17.2,7 4.67,3.5 8.27,8.27 10.79,14.29 2.53,6.03 3.79,13.9 3.79,23.62l0 237.39zm242.64 -179.06c0,-12.05 -3.4,-20.9 -10.21,-26.54 -6.8,-5.64 -16.04,-8.46 -27.7,-8.46 -7.78,0 -15.46,0.98 -23.04,2.92 -7.58,1.94 -14.09,4.86 -19.54,8.75l0 202.39c-3.89,1.16 -10.01,2.33 -18.37,3.5 -8.36,1.16 -17.01,1.75 -25.96,1.75 -8.55,0 -16.23,-0.59 -23.03,-1.75 -6.81,-1.17 -12.54,-3.5 -17.21,-7 -4.67,-3.5 -8.26,-8.27 -10.79,-14.29 -2.53,-6.03 -3.79,-13.9 -3.79,-23.62l0 -174.98c0,-10.5 2.23,-19.05 6.71,-25.66 4.47,-6.61 10.59,-12.64 18.37,-18.08 13.22,-9.33 29.84,-16.92 49.87,-22.75 20.02,-5.83 42.28,-8.75 66.78,-8.75 43.94,0 77.77,9.63 101.48,28.87 23.72,19.25 35.58,45.98 35.58,80.2l0 182.56c-3.89,1.16 -10.01,2.33 -18.37,3.5 -8.36,1.16 -17.01,1.75 -25.95,1.75 -8.56,0 -16.24,-0.59 -23.04,-1.75 -6.81,-1.17 -12.54,-3.5 -17.21,-7 -4.66,-3.5 -8.26,-8.27 -10.79,-14.29 -2.53,-6.03 -3.79,-13.9 -3.79,-23.62l0 -137.65zm158.64 71.16c-2.72,-4.28 -5.25,-9.92 -7.58,-16.92 -2.34,-7 -3.5,-14.39 -3.5,-22.16 0,-14.39 3.3,-24.79 9.91,-31.21 6.61,-6.41 15.17,-9.62 25.67,-9.62l124.81 0c2.33,4.28 4.76,9.92 7.29,16.91 2.53,7 3.79,14.39 3.79,22.17 0,14.38 -3.3,24.79 -9.91,31.2 -6.61,6.42 -15.17,9.63 -25.67,9.63l-124.81 0zm314.95 35.57c5.45,1.56 12.45,2.63 21,3.21 8.56,0.58 16.72,0.88 24.5,0.88 15.55,0 28.48,-3.21 38.78,-9.63 10.31,-6.41 15.46,-16.43 15.46,-30.03 0,-12.84 -4.28,-21.97 -12.83,-27.42 -8.56,-5.44 -21.58,-8.16 -39.08,-8.16l-47.83 0 0 71.15zm0 -142.31l42.58 0c16.72,0 28.87,-3.11 36.45,-9.33 7.59,-6.22 11.38,-15.36 11.38,-27.41 0,-10.5 -4.38,-18.86 -13.13,-25.08 -8.74,-6.23 -21.87,-9.34 -39.36,-9.34 -5.84,0 -12.54,0.2 -20.13,0.59 -7.58,0.39 -13.51,0.97 -17.79,1.75l0 68.82zm37.92 224.55c-6.62,0 -14.39,-0.19 -23.33,-0.58 -8.95,-0.39 -18.18,-1.17 -27.71,-2.33 -9.53,-1.17 -18.95,-2.63 -28.29,-4.38 -9.33,-1.75 -17.88,-4.18 -25.66,-7.29 -21.39,-8.16 -32.08,-22.36 -32.08,-42.58l0 -272.37c0,-8.17 2.24,-14.49 6.71,-18.96 4.47,-4.47 10.59,-8.07 18.37,-10.79 13.22,-4.67 29.75,-8.07 49.58,-10.21 19.83,-2.14 40.24,-3.2 61.24,-3.2 49.77,0 88.07,8.36 114.9,25.07 26.83,16.72 40.24,42.58 40.24,77.58 0,17.49 -5.05,32.56 -15.16,45.2 -10.11,12.64 -23.72,21.87 -40.83,27.7 19.44,5.45 35.68,15.36 48.7,29.75 13.03,14.39 19.54,32.47 19.54,54.24 0,38.5 -14.29,66.98 -42.87,85.45 -28.58,18.47 -69.7,27.7 -123.35,27.7zm337.7 -72.32c6.61,0 13.9,-0.68 21.87,-2.04 7.97,-1.36 13.9,-3.21 17.79,-5.54l0 -46.66 -42 3.5c-10.89,0.77 -19.83,3.11 -26.83,7 -7,3.88 -10.5,9.72 -10.5,17.49 0,7.78 3.02,14.1 9.04,18.96 6.03,4.86 16.24,7.29 30.63,7.29zm-4.67 -229.22c21,0 40.15,2.14 57.45,6.42 17.3,4.27 32.08,10.79 44.33,19.54 12.24,8.75 21.67,19.83 28.28,33.24 6.61,13.42 9.92,29.26 9.92,47.54l0 130.64c0,10.11 -2.82,18.38 -8.46,24.79 -5.64,6.42 -12.34,11.96 -20.12,16.63 -25.27,15.16 -60.85,22.74 -106.73,22.74 -20.61,0 -39.18,-1.94 -55.71,-5.83 -16.52,-3.89 -30.71,-9.72 -42.57,-17.5 -11.86,-7.77 -21,-17.69 -27.42,-29.74 -6.41,-12.06 -9.62,-26.06 -9.62,-42 0,-26.83 7.97,-47.44 23.91,-61.82 15.95,-14.39 40.64,-23.33 74.08,-26.83l76.4 -8.17 0 -4.08c0,-11.28 -4.95,-19.34 -14.87,-24.2 -9.92,-4.87 -24.2,-7.3 -42.87,-7.3 -14.77,0 -29.16,1.56 -43.16,4.67 -14,3.11 -26.63,7 -37.91,11.67 -5.06,-3.5 -9.33,-8.85 -12.83,-16.04 -3.5,-7.2 -5.25,-14.68 -5.25,-22.46 0,-10.11 2.43,-18.18 7.29,-24.2 4.86,-6.03 12.34,-11.18 22.45,-15.46 11.28,-4.28 24.6,-7.39 39.96,-9.33 15.36,-1.95 29.84,-2.92 43.45,-2.92zm299.79 291.63c-3.89,1.16 -10.01,2.33 -18.37,3.5 -8.36,1.16 -17.01,1.75 -25.96,1.75 -8.55,0 -16.23,-0.59 -23.03,-1.75 -6.81,-1.17 -12.54,-3.5 -17.21,-7 -4.67,-3.5 -8.26,-8.27 -10.79,-14.29 -2.53,-6.03 -3.79,-13.9 -3.79,-23.62l0 -174.98c0,-8.94 1.65,-16.62 4.96,-23.04 3.3,-6.41 8.06,-12.15 14.29,-17.2 6.22,-5.06 13.9,-9.63 23.03,-13.71 9.14,-4.08 18.96,-7.68 29.46,-10.79 10.5,-3.11 21.38,-5.54 32.66,-7.29 11.28,-1.75 22.55,-2.63 33.83,-2.63 18.66,0 33.44,3.6 44.33,10.8 10.88,7.19 16.33,18.95 16.33,35.28 0,5.45 -0.78,10.79 -2.34,16.04 -1.55,5.25 -3.5,10.01 -5.83,14.29 -8.16,0 -16.52,0.39 -25.08,1.17 -8.55,0.77 -16.91,1.94 -25.08,3.5 -8.16,1.55 -15.84,3.2 -23.04,4.95 -7.19,1.75 -13.31,3.8 -18.37,6.13l0 198.89zm233.88 0c-3.89,1.16 -10.01,2.33 -18.37,3.5 -8.36,1.16 -17.01,1.75 -25.96,1.75 -8.55,0 -16.23,-0.59 -23.03,-1.75 -6.81,-1.17 -12.54,-3.5 -17.21,-7 -4.67,-3.5 -8.26,-8.27 -10.79,-14.29 -2.53,-6.03 -3.79,-13.9 -3.79,-23.62l0 -174.98c0,-8.94 1.65,-16.62 4.96,-23.04 3.3,-6.41 8.06,-12.15 14.29,-17.2 6.22,-5.06 13.9,-9.63 23.03,-13.71 9.14,-4.08 18.96,-7.68 29.46,-10.79 10.5,-3.11 21.38,-5.54 32.66,-7.29 11.28,-1.75 22.55,-2.63 33.83,-2.63 18.66,0 33.44,3.6 44.33,10.8 10.88,7.19 16.33,18.95 16.33,35.28 0,5.45 -0.78,10.79 -2.34,16.04 -1.55,5.25 -3.5,10.01 -5.83,14.29 -8.16,0 -16.52,0.39 -25.08,1.17 -8.55,0.77 -16.91,1.94 -25.08,3.5 -8.16,1.55 -15.84,3.2 -23.04,4.95 -7.19,1.75 -13.31,3.8 -18.37,6.13l0 198.89zm279.37 9.91c-22.94,0 -44.23,-3.21 -63.86,-9.62 -19.64,-6.42 -36.75,-16.04 -51.33,-28.87 -14.58,-12.83 -26.05,-28.97 -34.41,-48.41 -8.36,-19.44 -12.54,-42.19 -12.54,-68.24 0,-25.67 4.18,-47.73 12.54,-66.2 8.36,-18.47 19.35,-33.64 32.95,-45.49 13.61,-11.86 29.17,-20.61 46.66,-26.25 17.5,-5.64 35.39,-8.46 53.66,-8.46 20.61,0 39.37,3.11 56.29,9.33 16.91,6.23 31.49,14.78 43.74,25.67 12.25,10.88 21.78,23.91 28.58,39.07 6.8,15.17 10.21,31.69 10.21,49.58 0,13.22 -3.7,23.33 -11.08,30.33 -7.39,7 -17.7,11.47 -30.92,13.41l-144.06 21.58c4.28,12.84 13.03,22.46 26.25,28.88 13.22,6.41 28.38,9.62 45.49,9.62 15.94,0 31.01,-2.04 45.2,-6.12 14.19,-4.09 25.76,-8.85 34.71,-14.29 6.22,3.88 11.47,9.33 15.74,16.33 4.28,7 6.42,14.38 6.42,22.16 0,17.5 -8.17,30.52 -24.5,39.08 -12.44,6.61 -26.44,11.08 -41.99,13.41 -15.56,2.34 -30.14,3.5 -43.75,3.5zm-16.33 -229.22c-9.33,0 -17.4,1.56 -24.2,4.67 -6.81,3.11 -12.35,7.1 -16.62,11.96 -4.28,4.86 -7.49,10.3 -9.63,16.33 -2.14,6.03 -3.4,12.15 -3.79,18.37l99.74 -16.33c-1.17,-7.78 -5.45,-15.55 -12.83,-23.33 -7.39,-7.78 -18.28,-11.67 -32.67,-11.67zm10.5 -214.05c20.22,0 34.9,3.89 44.04,11.67 9.13,7.77 13.7,17.11 13.7,27.99 0,10.11 -2.72,18.57 -8.16,25.37 -5.45,6.81 -14.39,13.52 -26.83,20.13l-75.24 39.66c-11.67,-1.17 -21.58,-5.84 -29.75,-14 -8.16,-8.17 -12.24,-16.91 -12.24,-26.25 0,-4.66 1.16,-9.33 3.49,-13.99 2.34,-4.67 6.23,-8.95 11.67,-12.84l79.32 -57.74z"/>
   <path class="fil5" d="M841.5 644.2c4.3,-2.53 10.8,-4.93 19.51,-7.2 8.71,-2.27 17.48,-3.41 26.31,-3.41 12.63,0 23.8,1.83 33.52,5.49 9.72,3.66 15.97,9.41 18.74,17.23 4.55,13.13 9.47,28.4 14.77,45.82 5.3,17.42 10.6,35.41 15.91,53.97 5.3,18.55 10.47,36.85 15.52,54.9 5.05,18.06 9.47,34.02 13.25,47.91 -3.02,3.53 -7.57,6.37 -13.63,8.52 -6.06,2.14 -13.25,3.22 -21.58,3.22 -6.06,0 -11.17,-0.51 -15.34,-1.52 -4.16,-1.01 -7.57,-2.52 -10.22,-4.54 -2.65,-2.02 -4.8,-4.67 -6.44,-7.95 -1.64,-3.29 -3.09,-7.07 -4.36,-11.36l-6.81 -26.13 -68.54 0c-2.02,7.57 -4.04,15.4 -6.06,23.47 -2.02,8.08 -4.04,15.91 -6.06,23.48 -3.54,1.26 -7.26,2.34 -11.17,3.22 -3.91,0.89 -8.65,1.33 -14.2,1.33 -12.88,0 -22.41,-2.21 -28.59,-6.63 -6.19,-4.42 -9.28,-10.54 -9.28,-18.37 0,-3.53 0.5,-7.06 1.51,-10.6 1.01,-3.53 2.15,-7.7 3.41,-12.5 1.77,-6.81 4.23,-15.27 7.39,-25.37 3.15,-10.1 6.62,-21.01 10.41,-32.75 3.79,-11.74 7.83,-23.8 12.12,-36.17 4.29,-12.37 8.33,-24.04 12.12,-35.02 3.78,-10.99 7.25,-20.77 10.41,-29.35 3.16,-8.59 5.62,-15.15 7.38,-19.69zm45.45 48.85c-3.54,10.6 -7.51,22.4 -11.93,35.4 -4.42,13 -8.4,26.19 -11.93,39.57l46.96 0c-3.54,-13.63 -7.14,-26.94 -10.8,-39.95 -3.66,-13 -7,-24.67 -10.03,-35.02l-2.27 0zm127.99 58.69c0,-19.69 3.1,-37.11 9.28,-52.26 6.19,-15.14 14.64,-27.83 25.37,-38.05 10.73,-10.23 23.35,-17.99 37.87,-23.29 14.52,-5.3 30.23,-7.96 47.15,-7.96 16.91,0 32.63,2.66 47.14,7.96 14.52,5.3 27.2,13.06 38.06,23.29 10.86,10.22 19.38,22.91 25.56,38.05 6.19,15.15 9.28,32.57 9.28,52.26 0,24.74 -4.55,45.76 -13.63,63.05 -9.09,17.29 -21.46,30.86 -37.11,40.71 3.78,1.77 8.26,3.66 13.44,5.68 5.17,2.02 10.6,4.04 16.28,6.06 5.68,2.02 11.55,3.97 17.61,5.87 6.06,1.89 11.74,3.6 17.04,5.11 0.25,1.52 0.38,2.84 0.38,3.98 0,1.13 0,2.21 0,3.22 0,14.39 -3.72,24.86 -11.17,31.43 -7.45,6.56 -17.23,9.84 -29.35,9.84 -11.61,0 -23.6,-3.22 -35.97,-9.65 -12.37,-6.44 -25,-15.72 -37.87,-27.84l-16.66 -15.52 -3.03 0c-17.17,0 -33.07,-2.72 -47.72,-8.15 -14.64,-5.42 -27.26,-13.31 -37.86,-23.66 -10.61,-10.35 -18.94,-23.1 -25,-38.25 -6.06,-15.15 -9.09,-32.44 -9.09,-51.88zm68.17 0c0,22.97 4.67,40.14 14.01,51.5 9.34,11.36 21.83,17.04 37.49,17.04 15.9,0 28.52,-5.68 37.86,-17.04 9.35,-11.36 14.02,-28.53 14.02,-51.5 0,-22.72 -4.61,-39.76 -13.83,-51.12 -9.21,-11.36 -21.77,-17.04 -37.67,-17.04 -15.66,0 -28.22,5.62 -37.68,16.85 -9.47,11.23 -14.2,28.34 -14.2,51.31zm413.52 30.3c0,13.63 -2.34,26.06 -7.01,37.3 -4.67,11.23 -11.42,20.82 -20.26,28.78 -8.84,7.95 -19.56,14.07 -32.19,18.36 -12.62,4.29 -26.88,6.44 -42.79,6.44 -15.9,0 -30.17,-2.15 -42.79,-6.44 -12.62,-4.29 -23.35,-10.41 -32.19,-18.36 -8.83,-7.96 -15.59,-17.55 -20.26,-28.78 -4.67,-11.24 -7,-23.67 -7,-37.3l0 -144.66c2.78,-0.5 7.19,-1.2 13.25,-2.08 6.06,-0.89 11.87,-1.33 17.42,-1.33 5.81,0 10.92,0.44 15.34,1.33 4.42,0.88 8.14,2.46 11.17,4.73 3.03,2.27 5.3,5.43 6.82,9.47 1.51,4.04 2.27,9.34 2.27,15.9l0 115.5c0,12.12 3.34,21.58 10.03,28.4 6.69,6.82 15.34,10.22 25.94,10.22 10.86,0 19.57,-3.4 26.13,-10.22 6.56,-6.82 9.85,-16.28 9.85,-28.4l0 -143.52c2.77,-0.5 7.19,-1.2 13.25,-2.08 6.06,-0.89 11.87,-1.33 17.42,-1.33 5.81,0 10.92,0.44 15.34,1.33 4.41,0.88 8.14,2.46 11.17,4.73 3.03,2.27 5.3,5.43 6.81,9.47 1.52,4.04 2.28,9.34 2.28,15.9l0 116.64zm106.78 -237.44c12.37,1.01 21.21,3.98 26.51,8.9 5.3,4.93 7.95,10.67 7.95,17.23 0,7.32 -2.08,13.13 -6.25,17.42 -4.16,4.29 -10.66,8.21 -19.5,11.74l-51.88 20.45c-7.32,-1.52 -13.19,-4.54 -17.61,-9.09 -4.42,-4.54 -6.63,-9.59 -6.63,-15.15 0,-3.53 0.95,-6.94 2.84,-10.22 1.9,-3.28 4.86,-5.93 8.9,-7.95l55.67 -33.33zm7.57 320.75c-2.77,0.75 -7.13,1.51 -13.06,2.27 -5.93,0.75 -11.8,1.13 -17.61,1.13 -5.81,0 -10.92,-0.44 -15.34,-1.32 -4.41,-0.89 -8.14,-2.46 -11.17,-4.74 -3.03,-2.27 -5.3,-5.42 -6.81,-9.46 -1.52,-4.04 -2.28,-9.34 -2.28,-15.91l0 -199.94c2.78,-0.5 7.2,-1.2 13.26,-2.08 6.06,-0.89 11.86,-1.33 17.42,-1.33 5.8,0 10.92,0.44 15.33,1.33 4.42,0.88 8.15,2.46 11.17,4.73 3.03,2.27 5.31,5.43 6.82,9.47 1.52,4.04 2.27,9.34 2.27,15.9l0 199.95zm332.87 -6.44c-3.53,3.53 -8.65,6.25 -15.34,8.14 -6.69,1.89 -14.7,2.84 -24.04,2.84 -9.34,0 -18.18,-1.39 -26.51,-4.17 -8.33,-2.77 -15.15,-9.46 -20.45,-20.07l-37.49 -76.49c-3.79,-7.83 -7.19,-15.21 -10.22,-22.15 -3.03,-6.94 -6.31,-14.96 -9.85,-24.05l-2.27 0.38c1.01,13.63 1.58,27.52 1.7,41.66 0.13,14.13 0.19,28.02 0.19,41.65l0 58.7c-2.77,0.75 -7,1.51 -12.68,2.27 -5.68,0.75 -11.3,1.13 -16.85,1.13 -5.56,0 -10.48,-0.38 -14.77,-1.13 -4.29,-0.76 -7.83,-2.27 -10.61,-4.55 -2.77,-2.27 -4.92,-5.36 -6.43,-9.27 -1.52,-3.92 -2.28,-9.03 -2.28,-15.34l0 -189.34c3.54,-5.05 8.97,-8.84 16.29,-11.36 7.32,-2.53 15.14,-3.79 23.48,-3.79 9.34,0 18.24,1.45 26.69,4.36 8.46,2.9 15.21,9.53 20.26,19.88l37.87 76.49c3.79,7.83 7.19,15.21 10.22,22.15 3.03,6.95 6.32,14.96 9.85,24.05l1.89 -0.38c-1.01,-13.63 -1.64,-27.26 -1.89,-40.9 -0.25,-13.63 -0.38,-27.26 -0.38,-40.89l0 -61.35c2.78,-0.76 7.01,-1.51 12.69,-2.27 5.68,-0.76 11.29,-1.14 16.85,-1.14 11.11,0 19.56,1.96 25.37,5.87 5.81,3.91 8.71,12.06 8.71,24.43l0 194.64zm98.07 -214.71c4.3,-2.53 10.8,-4.93 19.51,-7.2 8.71,-2.27 17.48,-3.41 26.31,-3.41 12.63,0 23.8,1.83 33.52,5.49 9.72,3.66 15.97,9.41 18.74,17.23 4.55,13.13 9.47,28.4 14.77,45.82 5.3,17.42 10.6,35.41 15.91,53.97 5.3,18.55 10.47,36.85 15.52,54.9 5.05,18.06 9.47,34.02 13.25,47.91 -3.02,3.53 -7.57,6.37 -13.63,8.52 -6.06,2.14 -13.25,3.22 -21.58,3.22 -6.06,0 -11.17,-0.51 -15.34,-1.52 -4.16,-1.01 -7.57,-2.52 -10.22,-4.54 -2.65,-2.02 -4.8,-4.67 -6.44,-7.95 -1.64,-3.29 -3.09,-7.07 -4.36,-11.36l-6.81 -26.13 -68.54 0c-2.02,7.57 -4.04,15.4 -6.06,23.47 -2.02,8.08 -4.04,15.91 -6.06,23.48 -3.54,1.26 -7.26,2.34 -11.17,3.22 -3.91,0.89 -8.65,1.33 -14.2,1.33 -12.88,0 -22.41,-2.21 -28.59,-6.63 -6.19,-4.42 -9.28,-10.54 -9.28,-18.37 0,-3.53 0.5,-7.06 1.51,-10.6 1.01,-3.53 2.15,-7.7 3.41,-12.5 1.77,-6.81 4.23,-15.27 7.39,-25.37 3.15,-10.1 6.62,-21.01 10.41,-32.75 3.79,-11.74 7.83,-23.8 12.12,-36.17 4.29,-12.37 8.33,-24.04 12.12,-35.02 3.78,-10.99 7.25,-20.77 10.41,-29.35 3.16,-8.59 5.62,-15.15 7.38,-19.69zm45.45 48.85c-3.54,10.6 -7.51,22.4 -11.93,35.4 -4.42,13 -8.4,26.19 -11.93,39.57l46.96 0c-3.54,-13.63 -7.14,-26.94 -10.8,-39.95 -3.66,-13 -7,-24.67 -10.03,-35.02l-2.27 0zm209.02 124.58c2.78,0.51 6.19,0.95 10.23,1.33 4.04,0.38 7.82,0.56 11.36,0.56 8.58,0 16.47,-1.26 23.67,-3.78 7.19,-2.53 13.38,-6.44 18.55,-11.74 5.18,-5.3 9.22,-12.18 12.12,-20.64 2.9,-8.46 4.35,-18.62 4.35,-30.48 0,-22.72 -5.3,-39.83 -15.9,-51.31 -10.6,-11.49 -24.74,-17.23 -42.41,-17.23 -3.54,0 -7.13,0.12 -10.79,0.37 -3.66,0.26 -7.39,0.64 -11.18,1.14l0 131.78zm21.21 55.29c-4.29,0 -9.21,-0.13 -14.77,-0.38 -5.55,-0.25 -11.3,-0.76 -17.23,-1.51 -5.93,-0.76 -11.86,-1.71 -17.8,-2.84 -5.93,-1.14 -11.42,-2.72 -16.47,-4.74 -13.88,-5.3 -20.83,-14.51 -20.83,-27.64l0 -176.85c0,-5.3 1.46,-9.4 4.36,-12.3 2.9,-2.91 6.88,-5.24 11.93,-7.01 10.85,-3.53 22.34,-5.87 34.46,-7 12.12,-1.14 22.97,-1.71 32.56,-1.71 19.7,0 37.56,2.4 53.59,7.2 16.03,4.79 29.79,12.18 41.27,22.15 11.49,9.97 20.39,22.53 26.7,37.68 6.31,15.15 9.47,33.07 9.47,53.77 0,20.2 -3.03,37.81 -9.09,52.83 -6.06,15.02 -14.71,27.64 -25.94,37.87 -11.23,10.22 -24.68,17.86 -40.33,22.91 -15.65,5.04 -32.95,7.57 -51.88,7.57zm231.37 -7.57c-2.77,0.75 -7.13,1.51 -13.06,2.27 -5.93,0.75 -11.8,1.13 -17.61,1.13 -5.81,0 -10.92,-0.44 -15.34,-1.32 -4.41,-0.89 -8.14,-2.46 -11.17,-4.74 -3.03,-2.27 -5.3,-5.42 -6.81,-9.46 -1.52,-4.04 -2.28,-9.34 -2.28,-15.91l0 -199.94c2.78,-0.5 7.2,-1.2 13.26,-2.08 6.06,-0.89 11.86,-1.33 17.42,-1.33 5.8,0 10.92,0.44 15.33,1.33 4.42,0.88 8.15,2.46 11.17,4.73 3.03,2.27 5.31,5.43 6.82,9.47 1.52,4.04 2.27,9.34 2.27,15.9l0 199.95zm49.23 -192.75c0,-10.86 3.16,-19.44 9.47,-25.75 6.31,-6.31 14.9,-9.47 25.75,-9.47l124.97 0c1.76,2.78 3.34,6.44 4.73,10.98 1.39,4.55 2.08,9.34 2.08,14.39 0,9.59 -2.08,16.41 -6.25,20.45 -4.16,4.04 -9.65,6.06 -16.47,6.06l-79.9 0 0 35.22 85.2 0c1.77,2.77 3.35,6.37 4.74,10.79 1.38,4.42 2.08,9.15 2.08,14.2 0,9.59 -2.02,16.41 -6.06,20.45 -4.04,4.04 -9.47,6.06 -16.28,6.06l-69.68 0 0 39.76 97.32 0c1.77,2.78 3.35,6.44 4.73,10.98 1.39,4.54 2.09,9.34 2.09,14.39 0,9.59 -2.09,16.47 -6.25,20.64 -4.17,4.16 -9.66,6.25 -16.47,6.25l-110.58 0c-10.85,0 -19.44,-3.16 -25.75,-9.47 -6.31,-6.31 -9.47,-14.9 -9.47,-25.75l0 -160.18zm348.4 103c-11.11,-3.79 -21.21,-7.64 -30.3,-11.55 -9.09,-3.91 -16.91,-8.65 -23.48,-14.2 -6.56,-5.56 -11.67,-12.18 -15.33,-19.88 -3.66,-7.7 -5.49,-17.11 -5.49,-28.21 0,-21.46 8.27,-38.63 24.8,-51.5 16.54,-12.88 39.7,-19.32 69.49,-19.32 10.85,0 20.95,0.76 30.29,2.27 9.34,1.52 17.36,3.85 24.05,7.01 6.69,3.16 11.93,7.19 15.71,12.12 3.79,4.92 5.68,10.66 5.68,17.23 0,6.56 -1.51,12.18 -4.54,16.85 -3.03,4.67 -6.69,8.65 -10.98,11.93 -5.56,-3.54 -13,-6.63 -22.34,-9.28 -9.34,-2.65 -19.57,-3.98 -30.68,-3.98 -11.36,0 -19.69,1.58 -24.99,4.74 -5.3,3.15 -7.95,7.13 -7.95,11.93 0,3.78 1.64,6.87 4.92,9.27 3.28,2.4 8.21,4.61 14.77,6.63l20.07 6.44c23.73,7.57 41.97,17.23 54.72,28.97 12.75,11.74 19.12,27.7 19.12,47.9 0,21.46 -8.45,38.81 -25.37,52.07 -16.91,13.25 -41.78,19.88 -74.6,19.88 -11.61,0 -22.4,-0.95 -32.38,-2.84 -9.97,-1.89 -18.68,-4.67 -26.13,-8.33 -7.44,-3.66 -13.25,-8.21 -17.41,-13.63 -4.17,-5.43 -6.25,-11.68 -6.25,-18.75 0,-7.32 2.14,-13.57 6.43,-18.74 4.3,-5.18 8.97,-9.16 14.02,-11.93 7.06,5.55 15.71,10.35 25.94,14.39 10.22,4.04 21.39,6.06 33.51,6.06 12.37,0 21.08,-1.9 26.13,-5.68 5.05,-3.79 7.57,-8.21 7.57,-13.26 0,-5.05 -2.02,-8.9 -6.06,-11.55 -4.04,-2.65 -9.72,-5.24 -17.04,-7.76l-15.9 -5.3zm143.51 -103c0,-10.86 3.16,-19.44 9.47,-25.75 6.31,-6.31 14.9,-9.47 25.75,-9.47l124.97 0c1.76,2.78 3.34,6.44 4.73,10.98 1.39,4.55 2.08,9.34 2.08,14.39 0,9.59 -2.08,16.41 -6.25,20.45 -4.16,4.04 -9.65,6.06 -16.47,6.06l-79.9 0 0 35.22 85.2 0c1.77,2.77 3.35,6.37 4.74,10.79 1.38,4.42 2.08,9.15 2.08,14.2 0,9.59 -2.02,16.41 -6.06,20.45 -4.04,4.04 -9.47,6.06 -16.28,6.06l-69.68 0 0 39.76 97.32 0c1.77,2.78 3.35,6.44 4.73,10.98 1.39,4.54 2.09,9.34 2.09,14.39 0,9.59 -2.09,16.47 -6.25,20.64 -4.17,4.16 -9.66,6.25 -16.47,6.25l-110.58 0c-10.85,0 -19.44,-3.16 -25.75,-9.47 -6.31,-6.31 -9.47,-14.9 -9.47,-25.75l0 -160.18zm349.15 120.04l0 72.71c-2.77,0.75 -7.13,1.51 -13.06,2.27 -5.93,0.75 -11.8,1.13 -17.61,1.13 -5.8,0 -10.92,-0.44 -15.34,-1.32 -4.41,-0.89 -8.07,-2.46 -10.98,-4.74 -2.9,-2.27 -5.11,-5.42 -6.62,-9.46 -1.52,-4.04 -2.28,-9.34 -2.28,-15.91l0 -178.36c0,-5.3 1.46,-9.4 4.36,-12.3 2.9,-2.91 6.88,-5.24 11.93,-7.01 8.58,-3.03 18.55,-5.24 29.91,-6.62 11.36,-1.39 23.48,-2.09 36.36,-2.09 34.84,0 61.09,7.32 78.76,21.97 17.67,14.64 26.51,34.46 26.51,59.45 0,15.65 -4.04,29.03 -12.12,40.14 -8.08,11.11 -17.67,19.69 -28.78,25.75 9.09,12.37 18.05,23.98 26.89,34.84 8.83,10.85 15.78,20.7 20.83,29.53 -2.53,8.84 -7.14,15.59 -13.83,20.26 -6.69,4.67 -14.2,7.01 -22.53,7.01 -5.55,0 -10.35,-0.63 -14.39,-1.89 -4.04,-1.27 -7.57,-3.03 -10.6,-5.31 -3.03,-2.27 -5.81,-5.04 -8.33,-8.33 -2.53,-3.28 -4.92,-6.81 -7.2,-10.6l-31.81 -51.12 -20.07 0zm23.86 -50.37c9.59,0 17.17,-2.46 22.72,-7.38 5.56,-4.92 8.33,-12.18 8.33,-21.77 0,-9.6 -3.09,-16.86 -9.27,-21.78 -6.19,-4.92 -15.97,-7.38 -29.35,-7.38 -3.79,0 -6.82,0.12 -9.09,0.38 -2.27,0.25 -4.8,0.63 -7.57,1.13l0 56.8 24.23 0zm207.14 123.08c-2.77,0.75 -7.13,1.51 -13.06,2.27 -5.93,0.75 -11.8,1.13 -17.61,1.13 -5.81,0 -10.92,-0.44 -15.34,-1.32 -4.41,-0.89 -8.14,-2.46 -11.17,-4.74 -3.03,-2.27 -5.3,-5.42 -6.81,-9.46 -1.52,-4.04 -2.28,-9.34 -2.28,-15.91l0 -199.94c2.78,-0.5 7.2,-1.2 13.26,-2.08 6.06,-0.89 11.86,-1.33 17.42,-1.33 5.8,0 10.92,0.44 15.33,1.33 4.42,0.88 8.15,2.46 11.17,4.73 3.03,2.27 5.31,5.43 6.82,9.47 1.52,4.04 2.27,9.34 2.27,15.9l0 199.95zm257.13 -6.44c-3.53,3.53 -8.65,6.25 -15.34,8.14 -6.69,1.89 -14.7,2.84 -24.04,2.84 -9.34,0 -18.18,-1.39 -26.51,-4.17 -8.33,-2.77 -15.15,-9.46 -20.45,-20.07l-37.49 -76.49c-3.79,-7.83 -7.19,-15.21 -10.22,-22.15 -3.03,-6.94 -6.31,-14.96 -9.85,-24.05l-2.27 0.38c1.01,13.63 1.58,27.52 1.7,41.66 0.13,14.13 0.19,28.02 0.19,41.65l0 58.7c-2.77,0.75 -7,1.51 -12.68,2.27 -5.68,0.75 -11.3,1.13 -16.85,1.13 -5.56,0 -10.48,-0.38 -14.77,-1.13 -4.29,-0.76 -7.83,-2.27 -10.61,-4.55 -2.77,-2.27 -4.92,-5.36 -6.43,-9.27 -1.52,-3.92 -2.28,-9.03 -2.28,-15.34l0 -189.34c3.54,-5.05 8.97,-8.84 16.29,-11.36 7.32,-2.53 15.14,-3.79 23.48,-3.79 9.34,0 18.24,1.45 26.69,4.36 8.46,2.9 15.21,9.53 20.26,19.88l37.87 76.49c3.79,7.83 7.19,15.21 10.22,22.15 3.03,6.95 6.32,14.96 9.85,24.05l1.89 -0.38c-1.01,-13.63 -1.64,-27.26 -1.89,-40.9 -0.25,-13.63 -0.38,-27.26 -0.38,-40.89l0 -61.35c2.78,-0.76 7.01,-1.51 12.69,-2.27 5.68,-0.76 11.29,-1.14 16.85,-1.14 11.11,0 19.56,1.96 25.37,5.87 5.81,3.91 8.71,12.06 8.71,24.43l0 194.64zm115.11 -41.28c2.78,0.51 6.19,0.95 10.23,1.33 4.04,0.38 7.82,0.56 11.36,0.56 8.58,0 16.47,-1.26 23.67,-3.78 7.19,-2.53 13.38,-6.44 18.55,-11.74 5.18,-5.3 9.22,-12.18 12.12,-20.64 2.9,-8.46 4.35,-18.62 4.35,-30.48 0,-22.72 -5.3,-39.83 -15.9,-51.31 -10.6,-11.49 -24.74,-17.23 -42.41,-17.23 -3.54,0 -7.13,0.12 -10.79,0.37 -3.66,0.26 -7.39,0.64 -11.18,1.14l0 131.78zm21.21 55.29c-4.29,0 -9.21,-0.13 -14.77,-0.38 -5.55,-0.25 -11.3,-0.76 -17.23,-1.51 -5.93,-0.76 -11.86,-1.71 -17.8,-2.84 -5.93,-1.14 -11.42,-2.72 -16.47,-4.74 -13.88,-5.3 -20.83,-14.51 -20.83,-27.64l0 -176.85c0,-5.3 1.46,-9.4 4.36,-12.3 2.9,-2.91 6.88,-5.24 11.93,-7.01 10.85,-3.53 22.34,-5.87 34.46,-7 12.12,-1.14 22.97,-1.71 32.56,-1.71 19.7,0 37.56,2.4 53.59,7.2 16.03,4.79 29.79,12.18 41.27,22.15 11.49,9.97 20.39,22.53 26.7,37.68 6.31,15.15 9.47,33.07 9.47,53.77 0,20.2 -3.03,37.81 -9.09,52.83 -6.06,15.02 -14.71,27.64 -25.94,37.87 -11.23,10.22 -24.68,17.86 -40.33,22.91 -15.65,5.04 -32.95,7.57 -51.88,7.57zm165.1 -200.32c0,-10.86 3.16,-19.44 9.47,-25.75 6.31,-6.31 14.9,-9.47 25.75,-9.47l124.97 0c1.76,2.78 3.34,6.44 4.73,10.98 1.39,4.55 2.08,9.34 2.08,14.39 0,9.59 -2.08,16.41 -6.25,20.45 -4.16,4.04 -9.65,6.06 -16.47,6.06l-79.9 0 0 35.22 85.2 0c1.77,2.77 3.35,6.37 4.74,10.79 1.38,4.42 2.08,9.15 2.08,14.2 0,9.59 -2.02,16.41 -6.06,20.45 -4.04,4.04 -9.47,6.06 -16.28,6.06l-69.68 0 0 39.76 97.32 0c1.77,2.78 3.35,6.44 4.73,10.98 1.39,4.54 2.09,9.34 2.09,14.39 0,9.59 -2.09,16.47 -6.25,20.64 -4.17,4.16 -9.66,6.25 -16.47,6.25l-110.58 0c-10.85,0 -19.44,-3.16 -25.75,-9.47 -6.31,-6.31 -9.47,-14.9 -9.47,-25.75l0 -160.18z"/>
  </g>
 </g>
</svg>
