<!-- Generated by IcoMoon.io -->
<svg version="1.1" xmlns="http://www.w3.org/2000/svg" width="32" height="32" viewBox="0 0 32 32">
<title>cdmx-angel-de-la-independencia-one</title>
<path fill="#7e7e7e" d="M15.099 3.884l0.121 0.162c0.048-0.061 0.092-0.076 0.090-0.222-0.005-0.32-0.027-0.158-0.106-0.213l0.023 0.319-0.128-0.046z"></path>
<path fill="#7e7e7e" d="M14.371 5.16c0.054-0.081-0.009 0.080 0.075-0.114 0.060-0.138 0.033-0.089 0.053-0.19l-0.447-0.109c0.133 0.148 0.141 0.112 0.372 0.134l-0.053 0.278z"></path>
<path fill="#7e7e7e" d="M14.986 3.443l-0.025-0.275c0.090-0.015 0.044 0.011 0.125-0.027 0.133-0.063 0.073-0.043 0.119-0.077l-0.275 0.064c-0.014 0.084-0.036 0.060-0.021 0.156 0.046 0.308-0.020 0.044 0.077 0.159z"></path>
<path fill="#7e7e7e" d="M11.161 0.923l0.009-0.257 0.15 0.025v-0.073h-0.195c-0.022 0.092-0.031 0.074-0.016 0.165 0.034 0.214 0.010 0.069 0.053 0.14z"></path>
<path fill="#000" d="M11.161 0.923c0.018 0.691-0.146 0.758 0.321 1.165 0.114 0.099 0.376 0.252 0.432 0.329 0.090 0.124 0.102 0.316 0.229 0.478 0.109 0.139 0.282 0.234 0.437 0.324 0.263 0.154 0.202 0.082 0.317 0.392 0.211 0.569 0.446 0.342 0.807 0.665 0.125 0.196 0.052 0.464 0.348 0.472l0.447 0.109c-0.021 0.101 0.007 0.052-0.053 0.19-0.084 0.194-0.021 0.033-0.075 0.114-0.031 0.377 0.162 0.459 0.486 0.512 0.044 0.366 0.042 0.44 0.434 0.427 0.014 0.172 0.046 0.284 0.098 0.424l0.384-0.080c0.16 0.291 0.169 0.148 0.436 0.176 0.4 0.041 0.179 0.468 0.073 0.643-0.259 0.427-0.155 0.167-0.447 0.421-0.063 0.444 0.139 0.297 0.177 0.602 0.029 0.231-0.090 0.418-0.215 0.507s-0.714 0.543-0.725 0.684c0.073 0.269 0.259 0.34 0.399 0.636 0.221 0.471 0.229 0.238 0.535 0.495 0.261 0.219 0.065 0.493 0.224 0.805 0.187 0.368 1.091 0.424 0.239 1.092-0.295 0.231-0.239 0.297-0.231 0.721-0.276 0.266-0.347 0.29-0.342 0.83-0.295 0.194-0.614 0.825-0.695 1.252-0.051 0.268 0.153 1.082 0.033 1.901l-0.831 0.239c-0.061 0.492-0.014 1.286-0.014 1.811 0 0.959-0.060 0.755 0.373 1.448 0.441 0.706 0.35 0.492 0.35 1.487l0.001 9.185h4.472v-9.185c0-0.949-0.087-0.789 0.334-1.455 0.429-0.679 0.39-0.513 0.39-1.48 0-0.604 0.008-1.213-0.006-1.81l-0.827-0.255c-0.054-0.338-0.072-1.098 0.028-1.444 0.133-0.459 0.017-0.316-0.058-0.685-0.065-0.317-0.191-0.473-0.391-0.77l-1.107-1.173c-0.357-0.377-0.101-0.362-0.040-0.762 0.062-0.403-0.035-0.59 0.157-0.975 0.225-0.45 0.203-0.354 0.219-0.925 0.477 0.212 0.46 0.516 0.58 1.101 0.166-0.044 0.164-0.022 0.251-0.211 0.036-0.077 0.065-0.184 0.058-0.286-0.014-0.22-0.149-0.308-0.192-0.554 0.279-0.283 0.727-0.376 0.695-1.027-0.025-0.521-0.409-0.735-0.715-0.958-0.895-0.655-0.46-0.466-0.691-0.998-0.123-0.283-0.541-0.786-0.372-1.189 0.345 0.298 0.224 0.518 0.87 0.561 0.876 0.060 0.59-0.038 0.963 0.455 0.183-0.075 0.219-0.255 0.254-0.466 0.035-0.206-0.005-0.362-0.196-0.389-0.479-0.067 0.13 0.411-1.034 0.001-0.312-0.11-0.479-0.451-0.6-0.763-0.102-0.265 0.022-0.269 0.050-0.502 0.021-0.176-0.006-0.484-0.003-0.679 0.159-0.103 0.221-0.12 0.326-0.317 0.207-0.389 0.153-0.143 0.308-0.343 0.131-0.169 0.033-0.313 0.18-0.47 0.101-0.108 0.262-0.104 0.384-0.214 0.157-0.144 0.101-0.293 0.175-0.49 0.058-0.152 0.135-0.124 0.233-0.419 0.132-0.401 0.143-0.153 0.68-0.55 0.024-0.293-0.115-0.212 0.033-0.46 0.085-0.143 0.174-0.179 0.208-0.406-0.302 0.026-1.666 0.731-2.021 0.927-0.423 0.233-0.476 0.345-0.655 0.809-0.136 0.352-0.296 0.669-0.413 0.995-0.337-0.153-0.156-0.43-0.506-0.456-0.278-0.020-0.309 0.201-0.488 0.389-0.544 0.573 0.238 0.792 0.008 1.254-0.191 0.219-1.194-0.161-0.974-1.248 0.192-0.096 0.591-0.060 0.626-0.343 0.058-0.474-0.673-0.177-1.101-0.147-0.046 0.034 0.014 0.014-0.119 0.077-0.081 0.038-0.034 0.012-0.125 0.027l0.025 0.275c0.046 0.162 0.025 0.124 0.218 0.168 0.079 0.056 0.101-0.107 0.106 0.213 0.002 0.145-0.042 0.161-0.090 0.222l-0.121-0.162c-0.123-0.275-0.558-0.791-0.761-1.011-0.294-0.318-0.576-0.531-0.923-0.817-0.368-0.302-1.629-1.192-2.096-1.366l-0.15-0.025-0.009 0.257z"></path>
</svg>
