<!-- Generated by IcoMoon.io -->
<svg version="1.1" xmlns="http://www.w3.org/2000/svg" width="32" height="32" viewBox="0 0 32 32">
<title>cdmx-palacio-nacional</title>
<path fill="#d8e2e4" d="M4.253 21.497c0.742 0.044 0.761-0.357 0.448-0.972-0.656-0.257-0.624 0.447-0.448 0.972z"></path>
<path fill="#d8e2e4" d="M3.493 20.561l-0.056 0.915 0.614-0.014-0.064-0.933c-0.41-0.147-0.2-0.172-0.494 0.032z"></path>
<path fill="#d8e2e4" d="M2.703 20.541l-0.031 0.928 0.542 0.072-0.089-1.051z"></path>
<path fill="#d8e2e4" d="M29.428 20.546l-0.036 0.937 0.492 0.001-0.017-0.997z"></path>
<path fill="#d8e2e4" d="M28.35 21.453l-0.079-0.915-0.403 0.010-0.092 0.913z"></path>
<path fill="#d8e2e4" d="M28.643 20.544l-0.031 0.945 0.47 0.003-0.029-0.96z"></path>
<path fill="#d8e2e4" d="M3.797 28.282c0.057-0.096 0.145 0.166 0.137-0.388-0.011-0.678-0.032-0.23-0.137-0.424-0.12 0.163-0.207-0.326-0.184 0.423 0.022 0.704 0.051 0.226 0.184 0.388z"></path>
<path fill="#d8e2e4" d="M3.41 28.267c0.058-0.089 0.152 0.145 0.143-0.373-0.011-0.67-0.014-0.19-0.143-0.406-0.129 0.159-0.214-0.343-0.188 0.406 0.023 0.686 0.057 0.226 0.188 0.373z"></path>
<path fill="#d8e2e4" d="M22.39 28.231c0.050-0.050 0.222 0.113 0.193-0.461-0.037-0.734-0.049-0.226-0.193-0.395-0.139 0.305-0.174 0.542 0 0.856z"></path>
<path fill="#d8e2e4" d="M29.073 28.352c0.415-0.222 0.153-0.357 0.289-0.856-0.553 0.198-0.148-0.178-0.296 0.268-0.049 0.149-0.003 0.434 0.006 0.588z"></path>
<path fill="#d8e2e4" d="M28.651 28.132l0.232 0.222c0.004-0.079 0.042-0.38 0.029-0.462-0.060-0.375-0.028-0.209-0.195-0.398-0.147 0.321-0.111 0.179-0.066 0.637z"></path>
<path fill="#d8e2e4" d="M16.82 28.146c0.505 0.092 0.142 0.067 0.282-0.123l-0.012-0.517-0.225-0.057-0.045 0.696z"></path>
<path fill="#d8e2e4" d="M29.311 27.396l-0.045-0.231c-0.927-0.102-0.412-0.149-0.561 0.212l0.605 0.018z"></path>
<path fill="#d8e2e4" d="M18.692 27.12c0.114 0.107-0.224 0.139 0.233 0.153 0.655 0.021 0.181-0.009 0.346-0.153-0.276-0.155-0.25-0.193-0.579 0z"></path>
<path fill="#d8e2e4" d="M8.473 28.171l-0.057-0.563-0.13-0.108-0.087 0.523c0.125 0.182-0.197 0.139 0.274 0.147z"></path>
<path fill="#d8e2e4" d="M7.948 27.208l0.369-0.042 0.001-0.114-0.463-0.002z"></path>
<path fill="#d8e2e4" d="M15.663 27.135l-0.376-0.122-0.054 0.136z"></path>
<path fill="#89898e" d="M10.629 27.216l-0.088 1.219c-0.365 0.162-0.259 0.084-0.672 0.133-0.564 0.066-0.262 0.22-0.496-0.068-0.397-0.236-0.091-1.582-0.010-1.991l1.267-0.072-0.002 0.78zM8.416 27.608c0.328-0.36 0.052-0.113 0.433-0.287 0.017 0.711 0.159 1.004-0.277 1.341-0.207-0.322-0.144 0.007-0.1-0.491-0.471-0.008-0.149 0.035-0.274-0.147l0.087-0.523 0.13 0.108zM5.485 26.217c0.152-0.127-0.043-0.088 0.257-0.154 0.439-0.097 0.965-0.073 1.265 0.162-0.32 0.23-0.202 0.17-0.755 0.179-0.815 0.013-0.647-0.086-0.767-0.187zM5.667 24.642c0.136 0.356 0.219 0.954-0.062 1.329-0.103-0.132-0.097-0.014-0.16-0.277-0.129-0.538-0.026-0.813 0.222-1.053zM7.543 26.087l0.056-1.034 0.923-0.211c0.033 0.023 0.068 0.045 0.1 0.066l0.211 0.146c0 0.049 0.013 0.525 0.012 0.526-0.089 0.412-0.085 0.283-0.27 0.506-0.002-1.349 0.033-0.431-0.258-0.645l-0.044 0.641c0 0-0.048-0.423-0.343-0.641-0.003 1.176 0.086 0.304-0.387 0.645zM9.092 26.084l0.023-1.289c0.491-0.23 0.563-0.246 0.945-0.12l0.679 0.25c-0.031 1.582 0.017 0.819-0.227 0.983-0.431-0.164 0.231 0.365-0.17-0.216l-0.217-0.282-0.122 0.576c-0.038-1.26 0.078-0.292-0.265-0.561-0.003 1.224 0.081 0.292-0.387 0.663 0-0.057-0.017-0.759-0.010-0.794 0.056-0.326 0.019-0.264 0.421-0.547-0.42 0.101-0.262-0.154-0.286 0.421-0.039 0.957 0.107 0.525-0.384 0.917zM9.267 24.409c0.104-0.57 0.537-0.392 1.282-0.357l0.066 0.444c-0.467 0.031-0.997 0.109-1.348-0.088zM7.432 24.409c0.085-0.447 0.042-0.364 0.623-0.385 0.685-0.025 0.673-0.069 0.758 0.385-0.347 0.18-1.023 0.17-1.381 0zM7.012 24.409c-0.377 0.183-1.009 0.109-1.49 0.094-0.023-0.589-0.023-0.446 0.592-0.462 1.238-0.032 0.844 0.113 0.898 0.368zM8.882 23.91l-1.368-0.065-0.422-0.003c-0.492 0.149-1.102 0.115-1.566-0.006l-0.265-0.024 0.114 0.309-0.116 2.133 0.009 0.299 0.255-0.019c0.448-0.149 0.992-0.151 1.451-0.003 0.213-0.323 0.242 0.363 0.097-0.266-0.108-0.471 0.071 0.008-0.171-0.263 0.203-0.18 0.025-0.020-0.226 0.084 0.033-0.522 0.009-0.48-0.165-0.681-0.337 0.335 0.069 0.015-0.258 0.036-0.672 0.253 0.545-0.559-0.247 0.391l-0.269 0.254c0-1.377-0.088-0.873 0.61-1.548 0.382 0.391 0.396 0.141 0.68 0.665-0.136-0.401-0.011-0.706 0.070-1.216l0.345 0.503c0.184 0.424 0.44 0.915 0.067 1.508-0.020 0.032-0.107 0.121-0.132 0.155 0.446-0.318 1.083-0.319 1.49 0.061l-0.042-1.684c0.171-1.14-0.034-0.261 0.356-0.631 0.060 2.357 0.258 2.085-0.309 2.578-0.027 0.023-0.066 0.054-0.098 0.082l0.053 0.503c-0.071 0.014-0.124 0.011-0.145 0.050l-0.36-0.061-0.001 0.114-0.369 0.042c-0.227 0.401-0.171 0.219-0.169 0.816 0.351 0.619 0.117-0.092 0.62 0.522-0.057 0.274 0.082 0.282-0.065 0.125l0.615 0.115c0.386 0.182 0.114 0.184 0.445 0.547 0.44-0.451 0.613-0.218 1.128-0.134 0.432-0.162-0.263 0.247 0.123-0.195 0.282-0.322-0.005-0.237 0.562-0.234l-0.143-0.165-0.001-1.122c-0.399 0.263-0.2 0.333-0.193 1.175-0.002-0.352 0.056-0.687-0.022-1.020-0.12-0.515-0.403-0.505-0.086-1.085l-0.009-2.401c0.277-0.065-0.047 0.005 0.208-0.021 0.338-0.034-0.053 0.046 0.284-0.033v-0.242l-0.141 0.003-0.425 0.030-1.373 0.006c-0.434-0.238-0.247-1.299-0.099-1.455-0.065 1.579 0.041 1.398-0.326 1.47z"></path>
<path fill="#89898e" d="M13.267 28.247l0.643 0.049c0.063-0.307 0.093-0.329 0.073-0.665-0.026-0.425-0.1-0.505-0.243-0.698l-0.388 0.014c-0.171 0.406-0.172 0.806-0.085 1.299z"></path>
<path fill="#89898e" d="M24.095 28.258l0.622 0.024c0.066-0.304 0.091-0.312 0.076-0.651l-0.208-0.692-0.388 0.005c-0.142 0.29-0.111 0.096-0.151 0.558-0.029 0.334-0.007 0.441 0.049 0.756z"></path>
<path fill="#89898e" d="M15.546 28.232l-0.018-0.724 0.145-0.001-0.010-0.372-0.43 0.014 0.054-0.136c-0.344 0.131-0.175-0.187-0.257 0.488-0.030 0.25 0.013 0.496 0.056 0.731l0.46 0.001z"></path>
<path fill="#89898e" d="M11.11 23.669l0.59 0.002-0.033-0.887-0.492-0.016c-0.073 0.611-0.158 0.245-0.065 0.901z"></path>
<path fill="#89898e" d="M9.478 29.454c-0.269 0.248-0.091-0.177-0.238 0.375-0.161 0.602 0.239 0.695-0.148 1.199-0.585-0.375 0.178-0.979-0.349-1.609l0.091 1.71 0.523-0.024 0.121-1.65z"></path>
<path fill="#89898e" d="M14.815 29.416c-0.408 0.635 0.006 1-0.301 1.613-0.316-0.146-0.175 0.074-0.276-0.287-0.088-0.314 0.21-1.020-0.211-1.305l0.127 1.672 0.54 0.002 0.12-1.696z"></path>
<path fill="#89898e" d="M23.898 29.438c-0.223 0.244-0.086-0.174-0.193 0.39-0.18 0.956 0.367 0.899-0.281 1.202l-0.084-0.187c-0.074-0.328-0.005 0.113-0.035-0.23l-0.032-0.905c-0.061-0.263-0.041-0.124-0.152-0.295l0.176 1.73 0.494-0.060 0.107-1.646z"></path>
<path fill="#89898e" d="M14.717 23.038l0.557 0.209-0.363 0.406 0.394 0.003-0.027-0.854c-0.394-0.087-0.413-0.211-0.561 0.236z"></path>
<path fill="#89898e" d="M7.491 23.086l0.598 0.008c-0.118-0.527 0.094-0.287-0.507-0.379-0.108 0.184-0.044-0.032-0.091 0.371z"></path>
<path fill="#89898e" d="M10.098 23.087l0.57 0.072-0.073-0.375c-0.417-0.066-0.392-0.157-0.497 0.304z"></path>
<path fill="#89898e" d="M26.229 23.038l0.562 0.135-0.088-0.434c-0.5 0.050-0.344-0.14-0.474 0.299z"></path>
<path fill="#89898e" d="M12.987 22.989l0.482 0.244-0.033-0.438c-0.526-0.112-0.201-0.093-0.502 0.075l0.054 0.119z"></path>
<path fill="#89898e" d="M9.421 23.125l0.463-0.056-0.060-0.307-0.345-0.027z"></path>
<path fill="#89898e" d="M25.076 21.201l0.259 0.070-0.049-0.359c-0.264 0.147-0.123 0.002-0.21 0.289z"></path>
<path fill="#89898e" d="M23.317 21.256l0.25-0.058c-0.017-0.53 0.032-0.152-0.144-0.271l-0.107 0.33z"></path>
<path fill="#89898e" d="M29.251 19.062l0.216 0.4 0.283-0.464c-0.271 0.134-0.186-0.158-0.221 0.34-0.030-0.038-0.099-0.124-0.112-0.090-0.013 0.029-0.032-0.019-0.166-0.186z"></path>
<path fill="#89898e" d="M10.789 21.234l0.229-0.016-0.058-0.291z"></path>
<path fill="#463a2e" d="M27.779 23.764l0.712-0.092 0.065-0.95 0.765-0.005c-0.352 0.964 0.211 1.035 0.801 1.046l-2.343 0.001zM30.081 22.472l0.066 0.943c-0.005-0.032-0.022-0.118-0.029-0.099-0.107 0.285 0.027-0.148-0.239-0.442l-0.318 0.582c0.018-0.123 0.102-0.502 0.105-0.612l-0.050-0.383c-0.007-0.035-0.034-0.079-0.051-0.119l0.515 0.128zM28.215 23.39c-0.393-0.212-0.245 0.298-0.144-0.53l-0.243 0.238c-0.020 0.030-0.058 0.077-0.078 0.109l-0.005-0.736c0.065-0.002 0.203 0.001 0.229-0.005 0.268-0.058 0.16-0.022 0.29-0.123-0.226 0.474-0.124 0.257-0.048 1.046zM27.779 23.764l-0.036 0.536c0.526 0.226 1.299 0.132 1.888 0.117 0.897-0.023 0.487-0.175 0.649 0.145l0.137-0.105-0.025-0.327 0.592 0.112 0.275-0.123c-0.3-0.161-0.372-0.163-0.526-0.908-0.157-0.759 0.117-0.966-0.061-1.075-0.078-0.009-0.365 0.026-0.417 0.004-0.514-0.221 0.078 0.259-0.373-0.298l-2.162-0.014-0.549 0.516v1.657l0.61-0.236z"></path>
<path fill="#463a2e" d="M10.763 26.552l0.011-0.722c0.606 0.009 0.48 0.047 0.614-0.162l0.156-0.355c0.090 0.107 0.525 0.396 0.13 0.515 0-1.014-0.051-0.152 0.257-0.515l0.37 0.533c0.139 0.113 0.139-0.115 0.381 0.4 0.010 0.021 0.014 0.067 0.026 0.099-0.079-0.854 0.531-0.385-0.003-1.637l-0.119-0.299 0.891 0.070c-0.112 0.929 0.112 0.241-0.392 0.704l0.041 0.776c0.070-0.373-0.036-0.722 0.39-0.646 0.622 0.227 0.427-0.454 0.479 0.58 0.801-0.145 0.401-0.179 0.431 0.436 0.303-0.197 0.032-0.182-0.005-0.619-0.012-0.14 0-0.502 0.003-0.659 0.006-0.261 0.007-0.401 0.030-0.659 0.025-0.272-0.081-0.364 0.056-0.113-1.3-0.604-1.018-0.041-1.971-0.225 0.001 0.001 0.399 0.941-0.201 0.941-0.48 0.001-0.156-0.030-0.409-0.199 0.162-0.321 0.329-0.298 0.513-0.517-0.301-0.334-0.726-0.241-1.2-0.183-0.337 0.080 0.054-0.001-0.284 0.033-0.255 0.026 0.068-0.045-0.208 0.021l0.009 2.401z"></path>
<path fill="#463a2e" d="M25.911 25.946l0.095-0.527c0.056 0.084 0.067 0.070 0.128 0.272 0.015 0.050 0.005 0.148 0.002 0.226l0.133-0.007c-0.001-0.192-0.011-0.136 0.028-0.323l0.097-0.18c0.065 0.119 0.034-0.030 0.111 0.29 0.029 0.121 0.003 0.111-0.003 0.24l0.925 0.396c0.216-0.432 0.133-0.533 0.133-1.019 0-0.717 0.154-0.829-0.133-1.292-0.414 0.474-0.045 0.049-0.205 0.411l-0.206 0.363c-0.244 0.232 0.025 0.178-0.375 0.176-0.392-0.002-0.133-0.018-0.376-0.18 0.37-0.367-0.089-0.042 0.501-0.306 0.286-0.128 0.114 0.076 0.379-0.206-0.451-0.401-1.114-0.43-1.569-0.009 0.269 1.038-0.088 0.407 0.007 1.559-0.188-0.346-0.003-0.547 0.166-0.774 0.002 0.099-0.011 0.397 0.008 0.514 0.077 0.481 0.057 0.243 0.153 0.377z"></path>
<path fill="#463a2e" d="M22.297 25.937l0.093-0.527c0.062 0.092 0.066 0.053 0.13 0.282 0.042 0.153 0.003 0.094-0.008 0.24 0.045-1.145-0.055-0.237 0.266-0.619 0.040 0.048 0.484-0.254 0.196 0.613l0.101-0.869c0.064 0.158 0.020 0.019 0.121 0.379l0.384 0.903c-0.1-0.613 0.021-1.313-0.157-1.929l1.674 0.060c-0.011-0.091-0.028-0.167-0.036-0.153l-0.218-0.544-0.905 0.027c-0.259 0.422 0.357 0.358-0.387 0.345-0.259 0.405 0.068 0.092-0.065 0.521-0.077 0.246-0.050 0.163-0.162 0.275l-0.233 0.158c-0.041 0.030-0.094 0.054-0.139 0.085l-0.396-0.259c-0.278-0.033-0.119 0.151-0.555-0.127 0.266 0.155 0.167-0.013-0.258 0.128 0-1.041-0.074-0.115 0.386-0.483l-0.052-0.285 1.134 0.038-0.004-0.432h-1.258c-0.23 0.493 0.342 0.337-0.293 0.387 0.035 0.505 0.064 1.656-0.021 2.188l0.235-0.509 0.423 0.108z"></path>
<path fill="#463a2e" d="M27.813 28.451v-0.555c0.042-0.009 0.141-0.048 0.155-0.055l0.136 0.056c0.452 0.199 0.365-0.36 0.344 0.515l0.202-0.279c-0.044-0.459-0.081-0.317 0.066-0.637 0.167 0.189 0.135 0.023 0.195 0.398 0.013 0.082-0.025 0.383-0.029 0.462l0.19-0.002c-0.010-0.155-0.056-0.439-0.006-0.588 0.148-0.446-0.257-0.070 0.296-0.268l-0.052-0.1-0.605-0.018c-0.013-0.043-0.029-0.097-0.042-0.128-0.013-0.032-0.041-0.097-0.054-0.128l-0.151 0.514c-0.468-0.377-0.386 0.565-0.386-0.645l-0.259-0.001c-0.125 0.939-0.092 0.262-0.424 0.507l0.274-1.105c-0.363 0.12-0.43-0.134-0.481 0.468-0.005 0.055 0.051 0.476 0.060 0.569 0.037 0.365 0.142 0.772 0.131 1.246-0.015 0.636-0.502 1.827 0.053 2.39 0.217-0.395 0.151-0.824 0.113-1.362-0.125-1.782 0.076-1.156 0.274-1.252z"></path>
<path fill="#463a2e" d="M18.692 25.949c0.014-0.574-0.083-0.426 0.182-0.491l0.54-0.167 0.006 0.675c0.277-0.14-0.022-0.275 0.361 0.003 0.58 0.419-0.162 0.238 0.157 0.248-0.208-0.471 0.035-1.581-0.129-2.109 0.078 0.2 0.133-0.263 0.068 0.207-0.058 0.408-0.050 0.254-0.198 0.48-0.018-0.040-0.040-0.144-0.042-0.123-0.002 0.018-0.024-0.088-0.027-0.117l0.001-0.312c-0.153-0.489-1.062-0.259-1.344 0.035l0.637 0.387c-0.018 0.044-0.049 0.057-0.065 0.125-0.015 0.064-0.050 0.084-0.070 0.111-0.063 0.080-0.38 0.195-0.297 0.663 0.125 0.701 0.006 0.19 0.221 0.383z"></path>
<path fill="#463a2e" d="M14.683 24.28l0.6 0.387c-0.147 0.402-0.112 0.282-0.377 0.517l0.044 0.723c0.062-0.292-0.056-0.178 0.211-0.58 0.009 0.010 0.557-0.015 0.151 0.561-0.034-1.003-0.014-0.257 0.237-0.562 0.034 0.039 0.078 0.048 0.094 0.124 0.013 0.063 0.124 0.191 0.142 0.217 0.208 0.31-0.175 0.103 0.151 0.163 0.074-0.555-0.267-0.813 0.128-0.905-0.002 0.001-0.124 0.517-0.903-0.258 0.694-0.365 0.598 0.031 0.884-0.387-0.151-0.198 0.195-0.271-0.624-0.282-0.533-0.007-0.476-0.025-0.738 0.282z"></path>
<path fill="#463a2e" d="M24.090 25.976c0.003-0.189-0.002-0.201 0.028-0.383 0.004-0.025 0.032-0.044 0.036-0.096 0.003-0.049 0.030-0.057 0.044-0.085 0.108 0.174 0.158-0.036 0.117 0.487l0.136 0.017c-0.010-0.237-0.028-0.104 0.022-0.327l0.196 0.356c0.372 0.020 0.25-0.548 0.249-0.862l0.078 0.357c0.075 0.352-0.025 0.108 0.115 0.385 0.013 0.026 0.041 0.055 0.056 0.079 0.014 0.025 0.041 0.059 0.054 0.082 0.013 0.022 0.035 0.062 0.047 0.081 0.162 0.272-0.089 0.152 0.093 0.149-0.209-0.367-0.107-1.537 0.007-2.118-0.288 0.687 0.214 0.602-0.787 1.151-0.272 0.149-0.451-0.052-0.653-0.159-0.254 0.748 0.064 0.799 0.162 0.886z"></path>
<path fill="#463a2e" d="M9.605 27.519c-0.16 0.174-0.107-0.027-0.243 0.308-0.069 0.169-0.038 0.153-0.037 0.333 0.001 0.145 0.052 0.297 0.049 0.34 0.234 0.289-0.068 0.135 0.496 0.068 0.413-0.049 0.306 0.029 0.672-0.133l0.088-1.219-0.41-0.218 0.11 1.238c-0.463 0.069-0.395 0.109-0.732-0.084l0.009-0.635z"></path>
<path fill="#463a2e" d="M20.494 25.93l0.039-0.515c0.207 0.102 0.168 0.364 0.166 0.555l0.175-0.015c-0.009-0.135-0.032-0.137-0.007-0.254 0.070-0.333 0.045-0.181 0.104-0.297l0.112 0.535 0.308-0.119-0.011-0.957c-0.015 0.029 0.403 0.185-0.266 0.148-0.397-0.022-0.142-0.024-0.4-0.141l-0.421 0.312c0.035 0.471-0.062 0.494 0.203 0.746z"></path>
<path fill="#463a2e" d="M16.246 24.15l-0.001 2.189c0.003-0.025 0.026-0.092 0.028-0.077 0.002 0.016 0.027-0.064 0.030-0.085 0.082-0.714-0.148-1.071 0.084-1.967l0.125 0.134c0.014 0.010 0.048 0.045 0.066 0.056 0.113 0.063 0.188 0.093 0.383 0.11 0.302 0.027 0.612-0.015 0.891-0.102-0.112-0.405-0.142-0.385-0.75-0.35-0.54 0.032-0.597 0.209-0.856 0.092z"></path>
<path fill="#463a2e" d="M4.298 23.376l0.533 0.040 0.102-0.995c-0.076-0.049-0.088-0.109-0.352-0.133-0.037-0.003-0.46 0.022-0.483 0.023 0.402 0.36 0.107 0.442 0.2 1.065z"></path>
<path fill="#463a2e" d="M16.557 29.363l-0.042 0.088c0.442-0.134 0.857-0.183 1.357-0.034l-0.043-0.077-0.341-0.119c0.034-0.019 0.089-0.104 0.105-0.076l0.281-0.337-1.363-0.096 0.404 0.493-0.357 0.157z"></path>
<path fill="#463a2e" d="M16.857 25.964l0.065-0.474c0.003-0.052 0.031-0.060 0.046-0.091l0.131 0.526 0.135-0.002c-0.007-0.12-0.037-0.11-0.003-0.229 0.064-0.222 0.054-0.163 0.125-0.271l0.094 0.497c0.257-0.309 0.239-0.447 0.106-0.866-0.001 0.016-0.017 0.022-0.021 0.042l-0.179 0.216c-0.923-0.054-0.343 0.1-0.763-0.371 0.116 0.926-0.037 0.732 0.265 1.023z"></path>
<path fill="#463a2e" d="M29.362 25.993v0.19l0.069-0.035c-0.128-0.843-0.090-0.184 0.19-0.447 0.518 0.559 0.246 0.498 0.575 0.516l-0.009-0.903-0.436 0.258c0.083-0.089 0.070-0.026 0.114-0.26-0.214 0.001-0.113-0.040-0.143 0.258-0.466-0.306-0.114 0.086-0.304-0.404h-0.113l0.057 0.827z"></path>
<path fill="#463a2e" d="M5.485 26.217c0.121 0.1-0.048 0.2 0.767 0.187 0.553-0.009 0.435 0.051 0.755-0.179-0.3-0.234-0.826-0.258-1.265-0.162-0.3 0.066-0.105 0.027-0.257 0.154z"></path>
<path fill="#463a2e" d="M5.667 24.642c-0.248 0.24-0.352 0.514-0.222 1.053 0.063 0.262 0.057 0.144 0.16 0.277 0.281-0.375 0.198-0.973 0.062-1.329z"></path>
<path fill="#463a2e" d="M25.061 29.893l0.004 0.419 0.507 0.165 0.049-0.903c-0.393 0.171-0.095 0.014-0.336 0.157-0.249 0.147-0.026 0.010-0.224 0.162z"></path>
<path fill="#bababe" d="M9.605 27.519l-0.009 0.635c0.338 0.193 0.269 0.152 0.732 0.084l-0.11-1.238-0.482 0.014c-0.279 0.679 0.279-0.141-0.132 0.506z"></path>
<path fill="#bababe" d="M3.41 26.050l0.226-0.657c0.005-0.018 0.012-0.057 0.022-0.084-0.060 0.446-0.096 0.389 0.139 0.748 0.019-0.026 0.427 0.057 0.178-0.879-0.074-0.276-0.066-0.172-0.178-0.342l-0.514 0.224c-0.296 1.014 0.109 0.964 0.127 0.99z"></path>
<path fill="#bababe" d="M28.54 26.010l0.364 0.049c-0.001-0.024-0.018-0.487-0.018-0.487 0.032-0.286 0.053-0.235 0.090-0.323 0.177 0.789-0.2 0.537 0.387 0.744l-0.057-0.827c-0.137-0.455-0.16-0.33-0.7-0.266l-0.065 1.11z"></path>
<path fill="#bababe" d="M6.040 28.221l0.59 0.029 0.015-1.258-0.597 0.023z"></path>
<path fill="#bababe" d="M11.677 28.273c0.151-0.129 0.068-0.132 0.315-0.12l-0.003-0.724 0.096-0.431-0.541-0.004-0.097 1.158 0.23 0.121z"></path>
<path fill="#bababe" d="M7.056 23.682l-0.023-0.916c-0.515 0.015-0.255 0.037-0.439 0.118l-0.030 0.707 0.493 0.092z"></path>
<path fill="#bababe" d="M5.778 23.619l0.523-0.056c0.017-0.665 0.105-0.734-0.462-0.807l-0.061 0.862z"></path>
<path fill="#bababe" d="M12.414 23.615c-0.030-0.346-0.090-0.623-0.182-0.853l-0.293 0.064-0.055 0.81 0.53-0.021z"></path>
<path fill="#bababe" d="M17.735 23.641l-0.018-0.768c-0.177-0.112 0.295-0.124-0.372-0.103l-0.048 0.813 0.438 0.058z"></path>
<path fill="#bababe" d="M22.026 23.64c0.556-0.065 0.261-0.049 0.454-0.138l-0.083-0.682-0.266-0.032c-0.205 0.577-0.203 0.289-0.105 0.852z"></path>
<path fill="#bababe" d="M20.97 28.255c0.117-0.222 0.151 0.314 0.163-0.487 0.010-0.585-0.121-0.356-0.163-0.424-0.125 0.15-0.192-0.298-0.218 0.425-0.030 0.855 0.073 0.282 0.218 0.486z"></path>
<path fill="#bababe" d="M19.163 28.251c0-0.001 0.266 0.049 0.144-0.604-0.108-0.576 0.014-0.046-0.144-0.31-0.192 0.218-0.189-0.352-0.234 0.432-0.034 0.577 0.168 0.422 0.234 0.482z"></path>
<path fill="#bababe" d="M16.025 23.606c0.002-0.552 0.1-0.449-0.388-0.502 0.025-0.021 0.070-0.085 0.076-0.062 0.005 0.021 0.054-0.053 0.060-0.065 0.088-0.187 0.059 0.106 0.044-0.204l-0.231-0.006-0.072 0.864 0.511-0.024z"></path>
<path fill="#bababe" d="M8.089 23.094l-0.598-0.008 0.025 0.542 0.543-0.006z"></path>
<path fill="#bababe" d="M14.233 23.612l0.005-0.501-0.572-0.099 0.053 0.628z"></path>
<path fill="#bababe" d="M20.219 23.63l0.452-0.128-0.111-0.737-0.333 0.090z"></path>
<path fill="#bababe" d="M22.778 28.243c0.106-0.205 0.142 0.285 0.155-0.475 0.010-0.578-0.106-0.336-0.155-0.417-0.127 0.152-0.187-0.307-0.212 0.417-0.029 0.855 0.066 0.271 0.212 0.475z"></path>
<path fill="#bababe" d="M21.319 23.63l-0.090-0.833c-0.433-0.017-0.341 0.262-0.322 0.796l0.412 0.037z"></path>
<path fill="#bababe" d="M8.83 23.619l-0.004-0.543-0.549-0.028 0.053 0.578z"></path>
<path fill="#bababe" d="M26.79 23.172l-0.562-0.135 0.018 0.602c0.653-0.057 0.518 0.139 0.543-0.468z"></path>
<path fill="#bababe" d="M18.775 28.242c0.085-0.071 0.191 0.209 0.241-0.352 0.067-0.758-0.212-0.512-0.241-0.542-0.15 0.315-0.205 0.55 0 0.893z"></path>
<path fill="#bababe" d="M16.573 23.666l0.373-0.102c0.020-0.044 0.064-0.042 0.124-0.063l-0.364-0.735c-0.214 0.533-0.257 0.348-0.132 0.9z"></path>
<path fill="#bababe" d="M25.497 23.64l0.484-0.035 0.045-0.485-0.546-0.081z"></path>
<path fill="#bababe" d="M10.668 23.159l-0.57-0.072 0.021 0.545c0.677-0.038 0.517 0.157 0.55-0.474z"></path>
<path fill="#bababe" d="M24.929 23.646l0.087-0.397c-0.043-0.024-0.088-0.102-0.102-0.074-0.064 0.125-0.005-0.245-0.413-0.187l-0.006 0.613 0.435 0.046z"></path>
<path fill="#bababe" d="M20.583 28.243c0.043-0.038 0.261 0.128 0.225-0.475-0.048-0.791-0.057-0.229-0.225-0.415-0.164 0.316-0.215 0.545 0 0.889z"></path>
<path fill="#bababe" d="M9.362 23.615l0.507 0.024 0.015-0.57-0.463 0.056z"></path>
<path fill="#bababe" d="M13.004 23.627l0.443-0.022 0.021-0.372-0.482-0.244z"></path>
<path fill="#bababe" d="M22.776 23.656l0.436-0.072-0.175-0.522c-0.392 0.156-0.404-0.355-0.261 0.594z"></path>
<path fill="#bababe" d="M17.51 28.157l-0.061-0.683-0.25 0.033-0.018 0.517c0.178 0.233-0.28 0.314 0.329 0.133z"></path>
<path fill="#bababe" d="M3.237 27.249c0.167 0.101 0.004 0.138 0.309 0.144 0.632 0.013 0.187-0.008 0.381-0.144-0.187-0.173 0.316-0.166-0.274-0.184-0.817-0.025-0.205 0.014-0.416 0.184z"></path>
<path fill="#bababe" d="M14.911 23.653l0.363-0.406-0.557-0.209c-0.002 0.121-0.016 0.226 0.015 0.312 0.12 0.33-0.097 0.119 0.178 0.304z"></path>
<path fill="#bababe" d="M26.493 27.922l0.021-0.475-0.277 0.010c-0.004 0.184-0.044 0.291-0.005 0.447 0.063 0.254 0.096 0.234 0.162 0.337l0.1-0.319z"></path>
<path fill="#bababe" d="M22.281 27.12c0.157 0.162-0.272 0.169 0.256 0.186 0.686 0.022 0.236-0.059 0.368-0.186-0.337-0.203-0.28-0.22-0.624 0z"></path>
<path fill="#bababe" d="M20.474 27.12c0.073 0.073-0.247 0.199 0.354 0.184 0.586-0.015 0.054 0.023 0.271-0.184-0.312-0.188-0.265-0.223-0.625 0z"></path>
<path fill="#bababe" d="M26.050 28.259l0.14-0.747-0.283-0.028-0.021 0.669z"></path>
<path fill="#bababe" d="M23.724 23.602l0.205 0.049 0.096-0.586c-0.377 0.219-0.253-0.183-0.301 0.537z"></path>
<path fill="#bababe" d="M15.546 28.232l0.176-0.049-0.049-0.677-0.145 0.001z"></path>
<path fill="#bababe" d="M25.902 27.158l0.621 0.056-0.091-0.235-0.427 0.018z"></path>
<path fill="#bababe" d="M24.090 25.976l0.225-0.076c0.041-0.523-0.009-0.313-0.117-0.487-0.014 0.028-0.041 0.036-0.044 0.085-0.004 0.052-0.032 0.071-0.036 0.096-0.030 0.182-0.025 0.194-0.028 0.383z"></path>
<path fill="#bababe" d="M26.269 25.91l0.233 0.027c0.007-0.129 0.032-0.119 0.003-0.24-0.077-0.32-0.046-0.171-0.111-0.29l-0.097 0.18c-0.040 0.187-0.029 0.131-0.028 0.323z"></path>
<path fill="#bababe" d="M18.692 25.949c0.289 0.061 0.184-0.21 0.182-0.491-0.265 0.065-0.168-0.083-0.182 0.491z"></path>
<path fill="#bababe" d="M20.494 25.93l0.204 0.040c0.003-0.191 0.041-0.453-0.166-0.555l-0.039 0.515z"></path>
<path fill="#bababe" d="M22.297 25.937l0.215-0.005c0.011-0.146 0.050-0.087 0.008-0.24-0.064-0.229-0.068-0.19-0.13-0.282l-0.093 0.527z"></path>
<path fill="#bababe" d="M20.873 25.955l0.208-0.015-0.112-0.535c-0.059 0.116-0.034-0.037-0.104 0.297-0.025 0.116-0.002 0.119 0.007 0.254z"></path>
<path fill="#bababe" d="M25.911 25.946l0.224-0.029c0.003-0.077 0.014-0.176-0.002-0.226-0.061-0.202-0.072-0.188-0.128-0.272l-0.095 0.527z"></path>
<path fill="#bababe" d="M16.857 25.964l0.242-0.038-0.131-0.526c-0.015 0.031-0.043 0.040-0.046 0.091l-0.065 0.474z"></path>
<path fill="#bababe" d="M17.233 25.923l0.216-0.003-0.094-0.497c-0.072 0.108-0.062 0.050-0.125 0.271-0.034 0.119-0.003 0.109 0.003 0.229z"></path>
<path fill="#bababe" d="M24.451 25.916l0.218 0.029-0.196-0.356c-0.050 0.223-0.032 0.090-0.022 0.327z"></path>
<path fill="#19171c" d="M1.899 21.827l0.418 0.062 0.002-2.137c0.531-0.074 2.218-0.18 2.712 0.097l0.101 2.070 22.313 0.025 0.023-2.209 2.715-0.030 0.105 2.258 0.373-0.104 0.027-2.018c-0.177-0.173 0.299-0.222-0.939-0.148-0.945 0.057-2.211-0.125-2.845 0.065l0.14 0.112-0.019 1.652-1.627 0.009-0.065-0.262-0.259-0.070-0.022 0.309-1.442 0.020-0.045-0.333-0.25 0.058-1.443 0.277-0.206-0.58-0.197 0.598-1.4-0.014-0.204-0.564-0.168 0.541-1.432 0.027-0.2-0.56-0.189 0.557-1.403 0.003-0.194-0.577-0.191 0.565-1.415 0.011-0.201-0.565-0.188 0.553-1.321 0.013-0.29-0.478-0.197 0.471h-1.399l-0.061-0.316-0.229 0.016-0.061 0.293-1.378 0.011-0.212-0.571-0.196 0.569-1.413 0.006-0.2-0.526-0.18 0.521-1.602-0.009-0.069-1.784-3.591 0.012 0.014 2.071z"></path>
<path fill="#19171c" d="M19.35 29.32l0.306 0.133c0.059 1.537-0.15 1.335 0.282 1.616 0.35-0.242 0.167 0.275 0.249-0.449 0.077-0.682-0.324-1.366 0.656-1.356 1.006 0.010 0.529 0.903 0.709 1.799l0.36-0.034c0.13-1.285-0.243-1.729 0.608-1.765 0.192-0.008 0.53-0.010 0.602 0.149 0.111 0.171 0.091 0.032 0.152 0.295l0.032 0.905c0.030 0.342-0.040-0.098 0.035 0.23l0.084 0.187c0.648-0.303 0.101-0.246 0.281-1.202 0.107-0.564-0.030-0.146 0.193-0.39 0.16-0.195 0.515-0.219 0.817-0.141 0.41 0.106 0.337 0.2 0.346 0.597 0.199-0.152-0.024-0.015 0.224-0.162 0.242-0.143-0.057 0.014 0.336-0.157l-0.026-0.088c-0.392-0.464-0.012 0.037-0.236-0.671l-0.258 0.539c-0.797-0.259-0.673-0.16-1.42-0.037l-0.078-0.535c-0.172 0.203-0.037 0.005-0.183 0.274-0.035 0.066-0.053 0.143-0.125 0.281-0.658-0.195-0.813-0.131-1.421-0.008l-0.515-0.014c-0.194-0.237-0.353 0.171 0.066-0.449l-0.953-0.059c-0.307 0.070-0.073 0.003-0.214 0.121l0.968-0.048c-0.233 0.361-0.668 0.168-0.902 0.51-0.507-0.41-0.166 0.069-0.386-0.554l-0.107 0.514-0.481-0.031z"></path>
<path fill="#19171c" d="M12.347 29.458c0.143 1.747-0.216 1.413 0.359 1.603 0.212-0.344 0.163-0.17 0.163-0.845-0.001-1.641 1.159-0.779 1.159-0.778 0.42 0.285 0.123 0.99 0.211 1.305 0.101 0.361-0.040 0.141 0.276 0.287 0.306-0.613-0.108-0.978 0.301-1.613 0.286-0.221 1.047-0.27 1.169 0.191 0.053 0.2-0.010 0.677 0.002 0.883 0.057 0.954-0.089 0.386 0.336 0.576 0.357-0.272 0.309-0.813 0.192-1.614l0.042-0.088-0.235-0.531c-0.224 0.205-0.020-0.195-0.258 0.507-1.023-0.254-0.227-0.325-1.42-0.006-0.196-0.511-0.014-0.265-0.328-0.557l-0.023 0.551c-0.952-0.167-0.184-0.358-1.456 0.007-0.016-0.030-0.031-0.114-0.039-0.093-0.068 0.183 0.024-0.045-0.199-0.321-0.011-0.014-0.044-0.042-0.068-0.060-0.011 0.317-0.053 0.402-0.183 0.598z"></path>
<path fill="#19171c" d="M4.253 21.497c-0.175-0.525-0.208-1.229 0.448-0.972 0.313 0.614 0.294 1.016-0.448 0.972zM2.703 20.541l0.421-0.050 0.368 0.070c0.294-0.204 0.084-0.179 0.494-0.032l0.064 0.933-0.614 0.014-0.223 0.066-0.542-0.072c-0.117 0.125-0.153-0.18-0.161 0.466l2.377-0.016-0.018-1.863c-0.486-0.295-1.723-0.186-2.312-0.102-0.064 0.434-0.067 0.345 0.145 0.588z"></path>
<path fill="#19171c" d="M27.868 20.549l0.403-0.010 0.372 0.006 0.41-0.012 0.375 0.014 0.439-0.059 0.017 0.997-0.492-0.001-0.31 0.009-0.47-0.003-0.262-0.036c-0.248 0.179 0.391 0.133-0.281 0.134-0.298 0-0.127-0.005-0.436-0.093l0.085 0.333 2.162 0.014c0.346-0.023 0.174-1.616 0.124-1.928-0.681-0.036-1.81-0.17-2.338 0.105-0.085 0.872-0.005 0.338 0.202 0.53z"></path>
<path fill="#19171c" d="M6.048 27.014l0.597-0.023-0.015 1.258-0.59-0.029 0.008-1.207zM6.973 26.532c-0.459-0.148-1.003-0.147-1.451 0.003l0.005 2.030c0.505 0.076 0.983 0.108 1.45-0.086l-0.004-1.947z"></path>
<path fill="#19171c" d="M26.050 28.259l-0.164-0.105 0.021-0.669-0.005-0.326 0.104-0.16 0.427-0.018 0.091 0.235-0.010 0.233-0.021 0.475c0.632-0.105 0.61-0.109 0.552-1.469-0.532 0.025-1.041-0.065-1.464 0.15-0.058 0.695-0.104 1.573 0.164 2.010l1.165-0.064 0.18-0.584-1.041 0.294z"></path>
<path fill="#19171c" d="M22.39 27.376c0.144 0.169 0.156-0.34 0.193 0.395 0.029 0.574-0.143 0.411-0.193 0.461-0.174-0.314-0.139-0.551 0-0.856zM22.778 27.35c0.049 0.081 0.164-0.16 0.155 0.417-0.013 0.76-0.049 0.27-0.155 0.475-0.147-0.204-0.242 0.38-0.212-0.475 0.025-0.724 0.085-0.266 0.212-0.417zM22.281 27.12c0.344-0.22 0.286-0.203 0.624 0-0.132 0.127 0.318 0.208-0.368 0.186-0.528-0.017-0.099-0.025-0.256-0.186zM21.924 28.596l1.337-0.019 0.040-2.077-1.325-0.033-0.052 2.128z"></path>
<path fill="#19171c" d="M19.163 27.337c0.158 0.263 0.037-0.266 0.144 0.31 0.122 0.653-0.144 0.604-0.144 0.604-0.066-0.060-0.268 0.095-0.234-0.482 0.045-0.784 0.042-0.214 0.234-0.432zM18.775 27.349c0.029 0.030 0.308-0.216 0.241 0.542-0.050 0.561-0.156 0.281-0.241 0.352-0.205-0.343-0.15-0.578 0-0.893zM18.692 27.12c0.329-0.193 0.303-0.155 0.579 0-0.165 0.144 0.309 0.175-0.346 0.153-0.458-0.015-0.119-0.046-0.233-0.153zM18.409 28.54l1.234 0.023 0.029-2.040c-0.538-0.084-0.888-0.127-1.357 0.074-0.030 0.597-0.16 1.432 0.095 1.943z"></path>
<path fill="#19171c" d="M15.287 27.013l0.376 0.122 0.010 0.372 0.049 0.677-0.176 0.049-0.46-0.001c-0.043-0.235-0.086-0.481-0.056-0.731 0.081-0.675-0.087-0.357 0.257-0.488zM14.802 28.54c1.619 0.483 1.32-0.728 1.195-2.010-0.469-0.1-0.863-0.126-1.282 0.068-0.007 0.602-0.136 1.43 0.087 1.942z"></path>
<path fill="#19171c" d="M20.583 27.354c0.168 0.186 0.178-0.376 0.225 0.415 0.036 0.602-0.182 0.436-0.225 0.475-0.215-0.345-0.164-0.574 0-0.889zM20.97 27.343c0.042 0.068 0.173-0.161 0.163 0.424-0.013 0.801-0.046 0.266-0.163 0.487-0.145-0.204-0.247 0.369-0.218-0.486 0.025-0.724 0.092-0.275 0.218-0.425zM20.474 27.12c0.36-0.223 0.313-0.188 0.625 0-0.218 0.207 0.314 0.169-0.271 0.184-0.601 0.015-0.281-0.111-0.354-0.184zM20.324 28.598c1.382-0.011 1.139 0.282 1.12-2.073l-1.303-0.070c-0.009 0.708-0.125 1.692 0.183 2.143z"></path>
<path fill="#19171c" d="M24.047 27.502c0.041-0.462 0.009-0.268 0.151-0.558l0.388-0.005 0.208 0.692c0.015 0.339-0.010 0.348-0.076 0.651l-0.622-0.024c-0.056-0.316-0.078-0.423-0.049-0.756zM23.721 28.435c0.337 0.184 0.945 0.198 1.353 0.087l0.022-1.996c-0.548-0.086-0.883-0.114-1.384 0.070l0.009 1.839z"></path>
<path fill="#19171c" d="M5.838 22.757c0.568 0.073 0.479 0.142 0.462 0.807l-0.523 0.056 0.061-0.862zM5.526 23.836c0.464 0.121 1.074 0.156 1.566 0.006l-0.036-0.16-0.493-0.092 0.030-0.707c0.184-0.081-0.076-0.102 0.439-0.118 0.421-0.844-0.836-0.653-1.428-0.582l-0.078 1.652z"></path>
<path fill="#19171c" d="M26.229 23.038c0.129-0.439-0.026-0.249 0.474-0.299l0.088 0.434c-0.025 0.607 0.109 0.411-0.543 0.468l-0.018-0.602zM26.026 23.119l-0.045 0.485-0.484 0.035c-0.080 0.34-0.34 0.255 1.569 0.268l-0.032-1.77c-1.611 0.049-1.377-0.214-1.611 0.334 0.211 0.361-0.083 0.133 0.547 0.293l0.056 0.354z"></path>
<path fill="#19171c" d="M16.865 27.451c-0.202-0.805-0.055-0.363 0.103-0.569l0.388 0.001c0.149 0.208 0.254-0.448 0.094 0.592l0.061 0.683c-0.236 0.199 0.373 0.15-0.293 0.159-0.816 0.011-0.167 0.050-0.397-0.169l0.045-0.696zM16.503 28.603l1.327-0.030 0.033-2.071-1.315-0.037-0.045 2.138z"></path>
<path fill="#19171c" d="M13.351 26.947l0.388-0.014c0.143 0.192 0.217 0.272 0.243 0.698 0.020 0.337-0.010 0.358-0.073 0.665l-0.643-0.049c-0.088-0.494-0.086-0.893 0.085-1.299zM12.89 28.448c0.336 0.186 0.892 0.194 1.322 0.054l0.023-1.955c-0.515-0.114-0.863-0.137-1.355 0.032-0.030 0.751 0.037 0.483 0.156 0.997 0.143 0.624-0.097 0.324-0.146 0.871z"></path>
<path fill="#19171c" d="M2.879 30.935c0.006-0.444-0.132-1.364 0.197-1.58 0.164-0.108 0.657-0.116 0.837-0.045 0.269 0.107 0.265 0.183 0.245 0.519l0.081 0.167c0.026 0.135 0.036 0.199 0.041 0.342 0.006 0.199-0.019 0.45-0.033 0.649l0.577-0.030 0.022-1.126c-0.837-0.299-0.363 0.129-0.663-0.593l-1.276-0.052c-0.3 0.631-0.024 0.379-0.639 0.645l0.005 1.118 0.605-0.014z"></path>
<path fill="#19171c" d="M11.064 27.482l0.001 1.122 0.542-0.042c0.131-0.148 0.044-0.172 0.070-0.289l-0.23-0.121 0.097-1.158 0.541 0.004-0.096 0.431 0.132 0.342c0.041 0.183-0.023 0.064 0.031 0.238 0.097 0.307 0.002 0.096 0.167 0.288 0.1-0.19 0.092-0.060 0.12-0.39 0.015-0.174-0.006-0.535-0.006-0.724-0.459-0.454-0.447-0.664-1.325-0.712l-0.044 1.012z"></path>
<path fill="#19171c" d="M3.167 23.591l-0.767 0.172c0.348 0.212 2.102 0.234 2.498 0l-0.751-0.19-0.027-0.987-0.934 0.014-0.018 0.991z"></path>
<path fill="#19171c" d="M16.706 22.767l0.364 0.735c-0.060 0.021-0.104 0.019-0.124 0.063l-0.373 0.102-0.083 0.125 1.342 0.1c0.066-0.511 0.032-0.084-0.097-0.251l-0.438-0.058 0.048-0.813c0.667-0.021 0.195-0.009 0.372 0.103 0.066-0.095 0.369 0.132 0.038-0.716l-1.216 0.023c-0.157 0.945-0.030 0.378 0.167 0.587z"></path>
<path fill="#19171c" d="M8.399 28.546c-0.503-0.614-0.269 0.097-0.62-0.522-0.002-0.597-0.058-0.415 0.169-0.816l-0.093-0.157 0.463 0.002 0.36 0.061c0.021-0.039 0.074-0.036 0.145-0.050l-0.053-0.503c-0.482-0.136-0.836-0.139-1.305 0.017-0.021 0.613-0.152 1.402 0.076 1.965l0.857 0.003z"></path>
<path fill="#19171c" d="M10.098 23.087c0.105-0.46 0.080-0.369 0.497-0.304l0.073 0.375c-0.033 0.631 0.128 0.435-0.55 0.474l-0.021-0.545zM9.479 22.735l0.345 0.027 0.060 0.307-0.015 0.57-0.507-0.024-0.054 0.28 1.373-0.006-0.015-1.67c-0.326-0.082-1.175-0.258-1.376 0.124-0.082 0.799-0.060 0.159 0.19 0.392z"></path>
<path fill="#19171c" d="M31.081 28.595l-0.044-1.955c-0.252-0.197 0.080-0.077-0.272-0.153-0.053-0.011-0.376-0.026-0.424-0.029l0.086 2.157 0.653-0.020z"></path>
<path fill="#19171c" d="M20.228 22.855l0.333-0.090 0.111 0.737-0.452 0.128c-0.17 0.131-0.179-0.255-0.123 0.238l1.339 0.009-0.116-0.246-0.412-0.037c-0.019-0.534-0.111-0.813 0.322-0.796 0.206-0.225 0.34 0.456 0.173-0.584l-1.215-0.069c-0.202 0.51-0.22 0.372 0.041 0.71z"></path>
<path fill="#19171c" d="M7.491 23.086c0.047-0.403-0.017-0.187 0.091-0.371 0.601 0.092 0.389-0.148 0.507 0.379l-0.030 0.528-0.543 0.006-0.025-0.542zM7.514 23.846l1.368 0.065-0.052-0.291-0.5 0.007-0.053-0.578 0.409-0.377c0.474-0.235-0.023 0.21 0.212-0.199-0.053-0.125 0.312-0.683-1.357-0.259l-0.028 1.633z"></path>
<path fill="#19171c" d="M14.717 23.038c0.147-0.447 0.167-0.323 0.561-0.236l0.027 0.854-0.394-0.003c-0.275-0.184-0.058 0.026-0.178-0.304-0.031-0.085-0.018-0.191-0.015-0.312zM16.025 23.606l-0.511 0.024 0.072-0.864 0.231 0.006c0.305-0.24 0.338 0.376 0.234-0.416-0.062-0.478-1.255-0.139-1.258-0.137-0.167 0.379-0.035 1.147-0.029 1.672 1.451 0.009 1.223 0.091 1.262-0.286z"></path>
<path fill="#19171c" d="M12.933 22.87c0.301-0.168-0.023-0.187 0.502-0.075l0.033 0.438-0.021 0.372-0.443 0.022c-0.142 0.118-0.206-0.21-0.105 0.164 0.355 0.128 0.319 0.111 0.719 0.12 1 0.023 0.601 0.122 0.616-0.299l-0.513 0.029-0.053-0.628 0.638-0.412-0.069-0.39-1.28-0.044-0.023 0.702z"></path>
<path fill="#19171c" d="M11.175 22.767l0.492 0.016 0.033 0.887-0.59-0.002-0.005 0.19 0.141-0.003 1.073 0.044c0.252-0.188 0.070 0.033 0.095-0.283l-0.53 0.021 0.055-0.81 0.293-0.064c0.316-0.231 0.305 0.385 0.251-0.42-0.279-0.303-0.929-0.242-1.331-0.129l0.022 0.554z"></path>
<path fill="#19171c" d="M1.469 26.718c0.327 0.821-0.254 1.876 0.392 1.881 0.611 0.005 0.144-0.782 0.344-2.091l-0.658 0.036-0.078 0.174z"></path>
<path fill="#19171c" d="M3.797 27.47c0.105 0.194 0.126-0.254 0.137 0.424 0.009 0.554-0.080 0.292-0.137 0.388-0.133-0.162-0.162 0.316-0.184-0.388-0.023-0.75 0.064-0.261 0.184-0.423zM3.41 27.488c0.129 0.216 0.132-0.264 0.143 0.406 0.009 0.518-0.085 0.284-0.143 0.373-0.131-0.147-0.164 0.313-0.188-0.373-0.026-0.749 0.058-0.247 0.188-0.406zM3.237 27.249c0.211-0.171-0.401-0.21 0.416-0.184 0.589 0.019 0.086 0.011 0.274 0.184-0.195 0.136 0.25 0.157-0.381 0.144-0.305-0.006-0.141-0.043-0.309-0.144zM2.993 28.564l1.345 0.019c-0.348-0.48-0.148-0.773-0.179-1.684l-1.104-0.001c0.005 0.552 0.030 1.228-0.062 1.666z"></path>
<path fill="#19171c" d="M31.055 30.981l-0.012-2.034c-0.162-0.124 0.142-0.184-0.518-0.122l-0.030 2.173 0.56-0.017z"></path>
<path fill="#19171c" d="M23.929 23.651l-0.205-0.049c-0.035 0.369-0.117 0.186 0.216 0.197l0.905-0.027c0.482 0.019 0.097-0.116 0.085-0.125l-0.435-0.046 0.006-0.613c-0.010-0.427 0.014-0.199 0.243-0.255 0.48-0.117 0.203 0.026 0.308 0.118 0.006-0.508 0.14-0.647-0.338-0.711-0.302-0.040-0.715-0.022-0.987 0.074l-0.089 0.385c0.328 0.128 0.934 0.306 0.689 0.906-0.294 0.301 0.090 0.117-0.398 0.146z"></path>
<path fill="#19171c" d="M1.508 30.866l0.546 0.111 0.044-2.197-0.553 0.099z"></path>
<path fill="#19171c" d="M9.373 28.5c0.003-0.043-0.048-0.195-0.049-0.34-0.001-0.18-0.032-0.164 0.037-0.333 0.137-0.334 0.083-0.134 0.243-0.308 0.411-0.647-0.147 0.173 0.132-0.506l0.482-0.014 0.41 0.218 0.002-0.78-1.267 0.072c-0.081 0.409-0.388 1.755 0.010 1.991z"></path>
<path fill="#19171c" d="M30.416 24.457l0.020 1.854 0.418-0.018c0.208-0.612 0.088-1.392 0.128-2.051l-0.592-0.112 0.025 0.327z"></path>
<path fill="#19171c" d="M22.132 22.788l0.266 0.032 0.083 0.682c-0.193 0.089 0.102 0.073-0.454 0.138-0.15 0.085-0.198-0.001-0.074 0.124h1.258l0.001-0.18-0.436 0.072c-0.231-0.162-0.123 0.339-0.184-0.41-0.009-0.115 0.056-0.496 0.058-0.515 0.708-0.081 0.372-0.074 0.618 0.181l-0.056-0.746c-0.49-0.031-1.051-0.135-1.323 0.177-0.069 0.889-0.058 0.167 0.243 0.445z"></path>
<path fill="#19171c" d="M18.255 22.782c0.169-0.099-0.384-0.263 0.263-0.089 0.461 0.124 0.386 0.22 0.386 0.811-0.042 0.028-0.1 0.017-0.127 0.078-0.088 0.203-0.053 0.055-0.513 0.18 0.46 0.253 1.176 0.143 1.398 0l-0.619-0.084 0.009-0.836c0.125-0.068 0.044-0.125 0.364-0.137l0.163 0.034c0.013 0.002 0.038 0.029 0.058 0.041l-0.026-0.604-1.242-0.021-0.114 0.626z"></path>
<path fill="#19171c" d="M3.797 24.836c0.112 0.17 0.104 0.066 0.178 0.342 0.25 0.936-0.159 0.853-0.178 0.879-0.235-0.359-0.199-0.302-0.139-0.748-0.010 0.027-0.018 0.065-0.022 0.084l-0.226 0.657c-0.018-0.025-0.423 0.025-0.127-0.99l0.514-0.224zM3.035 26.274l1.151 0.003-0.035-1.685-1.073-0.018-0.043 1.7z"></path>
<path fill="#19171c" d="M1.731 26.282l0.363 0.009 0.078-2.184-0.633-0.023c0.23 0.868 0.024 1.438 0.191 2.198z"></path>
<path fill="#19171c" d="M8.742 29.418c0.526 0.63-0.236 1.235 0.349 1.609 0.388-0.504-0.013-0.597 0.148-1.199 0.147-0.552-0.031-0.127 0.238-0.375 0.117-0.271 0.541-0.18 0.919-0.197l0.124-0.058c-0.515-0.084-0.688-0.317-1.128 0.134-0.331-0.364-0.059-0.366-0.445-0.547l0.026 0.429-0.232 0.204z"></path>
<path fill="#19171c" d="M17.828 29.34l0.043 0.077 0.026 1.439c0.13 0.364-0.080 0.030 0.233 0.214 0.451-0.316 0.167-0.185 0.277-1.628l0.238-0.095-0.443 0.029-0.071-0.533c-0.33 0.598 0.162 0.233-0.302 0.496z"></path>
<path fill="#19171c" d="M27.779 23.764l2.343-0.001c-0.59-0.011-1.153-0.082-0.801-1.046l-0.765 0.005-0.065 0.95-0.712 0.092z"></path>
<path fill="#19171c" d="M28.462 29.349c0.3-0.048 0.953-0.218 1.1 0.104 0.482-0.317-0.755-0.357-0.986-0.264-0.374 0.152-0.196 0.221-0.357 0.387-0.239 0.246-0.218 0.14-0.508 0.256l0.005 1.079 0.482 0.077 0.011-1.165c0.17-0.76-0.023-0.166 0.254-0.474z"></path>
<path fill="#19171c" d="M6.898 29.447c0.285 0.521 0.092 1.046 0.151 1.289 0.082 0.334-0.051 0.129 0.234 0.253 0.309-0.495-0.073-0.896 0.267-1.53-0.262-0.326-0.19-0.21-0.191-0.675-0.3 0.257-0.076 0.014-0.283 0.368-0.090 0.155 0.035 0.065-0.178 0.294z"></path>
<path fill="#19171c" d="M29.722 30.993l0.579 0.008 0.011-1.247-0.588-0.117z"></path>
<path fill="#19171c" d="M27.716 29.466c0.625 0.001 0.195-0.546 1.26-0.569 1.168-0.025 0.661 0.427 1.297 0.625l-0.029-0.73-2.444 0.019-0.084 0.655z"></path>
<path fill="#19171c" d="M4.701 28.597c0.044-0.072 0.095-0.046 0.137-0.309 0.018-0.107 0.011-0.401 0.010-0.522-0.003-0.303-0.004-0.542-0.040-0.841-0.524-0.008-0.463 0.010-0.453 0.71 0.017 1.199 0.27 0.916 0.346 0.962z"></path>
<path fill="#19171c" d="M27.814 26.251c0.588-0.061 0.409-1.146 0.295-1.627l-0.35-0.010c-0.078 0.463-0.155 1.272 0.056 1.637z"></path>
<path fill="#19171c" d="M30.009 28.601c0.392-0.323 0.174-1.543 0.129-1.668l-0.318-0.022c-0.205 0.629-0.206 1.366 0.189 1.691z"></path>
<path fill="#19171c" d="M4.701 26.269c0.277-0.357 0.176-1.2 0.089-1.661-0.509-0.006-0.439 0.057-0.432 0.702 0.005 0.429 0.003 0.865 0.342 0.959z"></path>
<path fill="#19171c" d="M29.266 27.165l0.045 0.231 0.052 0.1c-0.136 0.499 0.125 0.634-0.289 0.856l-0.19 0.002-0.232-0.222-0.202 0.279c-0.337 0.391-0.069 0.077 0.010 0.2l1.142-0.017-0.084-1.604-0.541-0.067 0.29 0.241z"></path>
<path fill="#19171c" d="M2.506 26.294c0.308-0.16 0.302-0.476 0.316-0.854 0.023-0.634 0.115-0.829-0.388-0.848-0.116 0.479-0.186 1.309 0.072 1.702z"></path>
<path fill="#19171c" d="M2.506 28.61c0.347-0.227-0.066 0.246 0.164-0.132 0.18-0.297 0.149-0.498 0.154-0.842 0.011-0.714 0.099-0.731-0.412-0.687-0.093 0.527-0.138 1.227 0.094 1.661z"></path>
<path fill="#19171c" d="M5.522 24.503c0.481 0.015 1.113 0.089 1.49-0.094-0.054-0.254 0.34-0.399-0.898-0.368-0.615 0.016-0.615-0.127-0.592 0.462z"></path>
<path fill="#19171c" d="M5.218 30.969c0.186-0.397 0.181-1.74 0-2.145-0.358 0.165-0.219 0.379-0.206 1.533 0.012 1.008-0.067 0.371 0.206 0.612z"></path>
<path fill="#19171c" d="M2.286 29.498c0.57-0.092 0.167-0.596 1.252-0.606 1.138-0.011 0.667 0.535 1.278 0.594l-0.021-0.626-2.418-0.058-0.091 0.696z"></path>
<path fill="#19171c" d="M5.258 26.254l0.116-2.133-0.369 0.011-0.002 2.046z"></path>
<path fill="#19171c" d="M2.45 24.28c0.281 0.17 2.006 0.159 2.326 0-0.273-0.282-1.116-0.218-1.766-0.198-0.64 0.020-0.375-0.033-0.561 0.198z"></path>
<path fill="#19171c" d="M29.431 26.148l-0.069 0.035c-0.021 0-0.495 0.007-0.513 0.003-0.38-0.097-0.12 0.007-0.31-0.176l0.065-1.11c0.54-0.064 0.563-0.19 0.7 0.266h0.113l0.141-0.503-1.149-0.083-0.048 1.644c0.314-0.044 0.834-0.049 1.131 0.061l-0.061-0.137z"></path>
<path fill="#19171c" d="M8.055 24.024c-0.581 0.021-0.538-0.062-0.623 0.385 0.358 0.17 1.034 0.18 1.381 0-0.084-0.454-0.073-0.409-0.758-0.385z"></path>
<path fill="#19171c" d="M10.549 24.052c-0.745-0.035-1.178-0.213-1.282 0.357 0.35 0.196 0.881 0.119 1.348 0.088l-0.066-0.444z"></path>
<path fill="#19171c" d="M2.635 22.937c0.127 0.205 0.095 0.149 0 0.341-0.004-0.008-0.31 0.018 0-0.341zM2.364 22.304l0.040 1.073 0.495 0.026c0.222-0.633-0.131-0.551 0.188-1.073l-0.723-0.026z"></path>
<path fill="#19171c" d="M1.865 23.34c-0.144 0.644-0.201 0.503 0.254 0.529 0.042-0.184 0.031-0.476 0.034-0.747 0.005-0.586-0.026-0.591 0.211-0.817-0.116-0.212-0.215-0.128-0.474-0.121l0.021-0.040-0.045 1.197z"></path>
<path fill="#19171c" d="M5.267 26.554l-0.267-0.040c0.068 1.111-0.189 1.886 0.218 2.063l0.050-2.023z"></path>
<path fill="#19171c" d="M8.416 27.608l0.057 0.563c-0.044 0.498-0.108 0.168 0.1 0.491 0.435-0.337 0.293-0.631 0.277-1.341-0.381 0.175-0.105-0.072-0.433 0.287z"></path>
<path fill="#19171c" d="M20.155 24.28c0.148 0.298 1.106 0.315 1.278 0-0.195-0.217 0.020-0.199-0.589-0.206-0.462-0.005-0.466-0.048-0.689 0.206z"></path>
<path fill="#19171c" d="M2.452 26.604l2.323 0.057c-0.336-0.287-2.013-0.316-2.323-0.057z"></path>
<path fill="#19171c" d="M29.566 22.344c0.017 0.040 0.044 0.083 0.051 0.119l0.050 0.383c-0.003 0.11-0.087 0.489-0.105 0.612l0.318-0.582c0.266 0.294 0.132 0.727 0.239 0.442 0.007-0.019 0.025 0.066 0.029 0.099l-0.066-0.943-0.515-0.128z"></path>
<path fill="#19171c" d="M29.865 25.312c-0.044 0.234-0.031 0.171-0.114 0.26l0.436-0.258 0.092-0.752-0.483 0.065 0.069 0.686z"></path>
<path fill="#19171c" d="M25.573 30.477l-0.507-0.165c0.001 0.072-0.005 0.384 0.008 0.428 0.108 0.358-0.012 0.155 0.287 0.318 0.265-0.193 0.254 0.054 0.212-0.581z"></path>
<path fill="#19171c" d="M22.132 24.442l1.1 0.009-0.017-0.255-1.134-0.038z"></path>
<path fill="#19171c" d="M10.59 30.41l0.18 0.657c0.341-0.175 0.235 0.099 0.329-0.876-0.388 0.127-0.184 0.025-0.509 0.219z"></path>
<path fill="#19171c" d="M28.215 23.39c-0.076-0.789-0.178-0.573 0.048-1.046-0.13 0.1-0.022 0.065-0.29 0.123-0.026 0.006-0.164 0.003-0.229 0.005l0.005 0.736c0.019-0.032 0.058-0.080 0.078-0.109l0.243-0.238c-0.101 0.828-0.25 0.317 0.144 0.53z"></path>
<path fill="#19171c" d="M5.261 23.812l0.016-1.634-0.268 0.034c0.185 0.409 0.142 1.008 0.099 1.552 0.14 0.179-0.062 0.071 0.153 0.049z"></path>
<path fill="#19171c" d="M27.813 28.451c0.505 0.192 0.121 0.033 0.254-0.039l0.038-0.516-0.136-0.056c-0.014 0.007-0.113 0.046-0.155 0.055v0.555z"></path>
<path fill="#19171c" d="M12.382 26.861c-0.020-0.506 0.151-0.296-0.349-0.363l0.349 0.363z"></path>
<path fill="#67676d" d="M29.724 29.637l0.588 0.117-0.011 1.247-0.579-0.008 0.002-1.357zM5.218 28.825c0.181 0.404 0.186 1.748 0 2.145-0.273-0.241-0.194 0.397-0.206-0.612-0.013-1.154-0.152-1.368 0.206-1.533zM27.801 28.812l2.444-0.019 0.029 0.73c-0.636-0.198-0.129-0.651-1.297-0.625-1.065 0.023-0.635 0.569-1.26 0.569l0.084-0.655zM2.377 28.802l2.418 0.058 0.021 0.626c-0.611-0.060-0.14-0.605-1.278-0.594-1.086 0.011-0.683 0.515-1.252 0.606l0.091-0.696zM30.009 28.601c-0.395-0.325-0.394-1.062-0.189-1.691l0.318 0.022c0.045 0.125 0.263 1.345-0.129 1.668zM23.712 26.596c0.501-0.184 0.836-0.157 1.384-0.070l-0.022 1.996c-0.408 0.111-1.017 0.097-1.353-0.087l-0.009-1.839zM20.324 28.598c-0.308-0.451-0.191-1.435-0.183-2.143l1.303 0.070c0.019 2.355 0.262 2.062-1.12 2.073zM5.267 26.554l-0.050 2.023c-0.407-0.176-0.15-0.952-0.218-2.063l0.267 0.040zM2.993 28.564c0.092-0.438 0.068-1.114 0.062-1.666l1.104 0.001c0.031 0.912-0.168 1.204 0.179 1.684l-1.345-0.019zM21.976 26.468l1.325 0.033-0.040 2.077-1.337 0.019 0.052-2.128zM18.409 28.54c-0.254-0.511-0.125-1.346-0.095-1.943 0.469-0.202 0.819-0.159 1.357-0.074l-0.029 2.040-1.234-0.023zM16.549 26.465l1.315 0.037-0.033 2.071-1.327 0.030 0.045-2.138zM14.802 28.54c-0.223-0.512-0.094-1.34-0.087-1.942 0.419-0.194 0.813-0.168 1.282-0.068 0.125 1.282 0.424 2.493-1.195 2.010zM4.355 27.634c-0.010-0.7-0.071-0.718 0.453-0.71 0.036 0.299 0.037 0.538 0.040 0.841 0.001 0.121 0.008 0.416-0.010 0.522-0.042 0.262-0.094 0.237-0.137 0.309-0.076-0.046-0.329 0.236-0.346-0.962zM2.506 28.61c-0.232-0.435-0.187-1.134-0.094-1.661 0.511-0.044 0.423-0.027 0.412 0.687-0.005 0.344 0.026 0.545-0.154 0.842-0.23 0.379 0.183-0.095-0.164 0.132zM12.88 26.58c0.492-0.169 0.84-0.146 1.355-0.032l-0.023 1.955c-0.43 0.14-0.986 0.131-1.322-0.054 0.049-0.547 0.289-0.247 0.146-0.871-0.119-0.514-0.186-0.246-0.156-0.997zM26.050 28.259l1.041-0.294-0.18 0.584-1.165 0.064c-0.268-0.436-0.222-1.315-0.164-2.010 0.423-0.215 0.932-0.125 1.464-0.15 0.058 1.36 0.081 1.364-0.552 1.469l-0.1 0.319c-0.066-0.103-0.099-0.083-0.162-0.337-0.038-0.156 0.001-0.263 0.005-0.447l0.277-0.010 0.010-0.233-0.621-0.056 0.005 0.326 0.283 0.028-0.14 0.747zM28.449 28.411c0.021-0.875 0.108-0.316-0.344-0.515l-0.038 0.516c-0.132 0.072 0.251 0.231-0.254 0.039-0.198 0.096-0.4-0.53-0.274 1.252 0.038 0.538 0.104 0.967-0.113 1.362-0.555-0.564-0.068-1.755-0.053-2.39 0.011-0.474-0.093-0.881-0.131-1.246-0.009-0.093-0.065-0.514-0.060-0.569 0.051-0.602 0.119-0.348 0.481-0.468l-0.274 1.105c0.333-0.245 0.299 0.432 0.424-0.507l0.259 0.001c0 1.211-0.082 0.268 0.386 0.645l0.151-0.514c0.013 0.031 0.041 0.097 0.054 0.128s0.029 0.085 0.042 0.128c0.148-0.362-0.366-0.314 0.561-0.212l-0.29-0.241 0.541 0.067 0.084 1.604-1.142 0.017c-0.079-0.123-0.347 0.19-0.010-0.2zM2.452 26.604c0.31-0.259 1.987-0.23 2.323 0.057l-2.323-0.057zM12.033 26.499c0.499 0.067 0.329-0.143 0.349 0.363l-0.349-0.363zM3.078 24.574l1.073 0.018 0.035 1.685-1.151-0.003 0.043-1.7zM27.814 26.251c-0.211-0.365-0.134-1.173-0.056-1.637l0.35 0.010c0.114 0.481 0.293 1.566-0.295 1.627zM21.082 25.94l-0.208 0.015-0.175 0.015-0.204-0.040c-0.265-0.253-0.168-0.275-0.203-0.746l0.421-0.312c0.258 0.117 0.003 0.119 0.4 0.141 0.668 0.037 0.25-0.119 0.266-0.148l0.011 0.957-0.308 0.119zM17.449 25.92l-0.35 0.006-0.242 0.038c-0.302-0.291-0.149-0.097-0.265-1.023 0.42 0.47-0.16 0.316 0.763 0.371l0.179-0.216c0.004-0.021 0.020-0.026 0.021-0.042 0.133 0.42 0.151 0.558-0.106 0.866zM4.701 26.269c-0.34-0.093-0.338-0.53-0.342-0.959-0.007-0.645-0.077-0.708 0.432-0.702 0.087 0.46 0.188 1.303-0.089 1.661zM2.506 26.294c-0.258-0.393-0.188-1.223-0.072-1.702 0.502 0.018 0.411 0.214 0.388 0.848-0.014 0.378-0.009 0.694-0.316 0.854zM24.669 25.946l-0.218-0.029-0.136-0.017-0.225 0.076c-0.097-0.087-0.416-0.137-0.162-0.886 0.202 0.107 0.381 0.308 0.653 0.159 1-0.548 0.499-0.464 0.787-1.151-0.114 0.581-0.216 1.751-0.007 2.118-0.182 0.003 0.069 0.123-0.093-0.149-0.011-0.019-0.034-0.060-0.047-0.081-0.013-0.023-0.040-0.057-0.054-0.082-0.014-0.024-0.042-0.053-0.056-0.079-0.14-0.278-0.040-0.033-0.115-0.385l-0.078-0.357c0.001 0.314 0.123 0.882-0.249 0.862zM29.418 25.166c0.19 0.49-0.162 0.097 0.304 0.404 0.030-0.298-0.070-0.257 0.143-0.258l-0.069-0.686 0.483-0.065-0.092 0.752 0.009 0.903c-0.329-0.018-0.057 0.043-0.575-0.516-0.28 0.263-0.318-0.396-0.19 0.447l0.061 0.137c-0.297-0.111-0.817-0.105-1.131-0.061l0.048-1.644 1.149 0.083-0.141 0.503zM26.501 25.937l-0.233-0.027-0.133 0.007-0.224 0.029c-0.096-0.135-0.077 0.104-0.153-0.377-0.019-0.117-0.006-0.415-0.008-0.514-0.168 0.227-0.354 0.428-0.166 0.774-0.096-1.152 0.261-0.521-0.007-1.559 0.454-0.421 1.117-0.392 1.569 0.009-0.265 0.281-0.093 0.078-0.379 0.206-0.59 0.264-0.131-0.061-0.501 0.306 0.243 0.162-0.015 0.178 0.376 0.18 0.399 0.002 0.131 0.056 0.375-0.176l0.206-0.363c0.16-0.362-0.209 0.063 0.205-0.411 0.287 0.463 0.133 0.575 0.133 1.292-0.001 0.487 0.082 0.588-0.133 1.019l-0.925-0.396zM21.433 24.28c-0.172 0.315-1.13 0.298-1.278 0 0.223-0.253 0.227-0.211 0.689-0.206 0.609 0.006 0.395-0.011 0.589 0.206zM18.874 25.458c0.003 0.281 0.108 0.552-0.182 0.491-0.215-0.192-0.096 0.318-0.221-0.383-0.083-0.468 0.234-0.583 0.297-0.663 0.021-0.026 0.055-0.047 0.070-0.111 0.017-0.068 0.047-0.082 0.065-0.125l-0.637-0.387c0.282-0.295 1.191-0.525 1.344-0.035l-0.001 0.312c0.003 0.029 0.025 0.135 0.027 0.117 0.002-0.021 0.024 0.084 0.042 0.123 0.148-0.227 0.14-0.072 0.198-0.48 0.066-0.47 0.010-0.007-0.068-0.207 0.165 0.528-0.078 1.638 0.129 2.109-0.319-0.010 0.423 0.171-0.157-0.248-0.384-0.278-0.084-0.143-0.361-0.003l-0.006-0.675-0.54 0.167zM15.283 24.667l-0.6-0.387c0.262-0.308 0.206-0.289 0.738-0.282 0.819 0.011 0.473 0.085 0.624 0.282-0.286 0.418-0.191 0.022-0.884 0.387 0.779 0.774 0.901 0.258 0.903 0.258-0.395 0.092-0.054 0.35-0.128 0.905-0.326-0.060 0.057 0.147-0.151-0.163-0.018-0.026-0.129-0.154-0.142-0.217-0.015-0.076-0.060-0.085-0.094-0.124-0.251 0.305-0.271-0.441-0.237 0.562 0.406-0.576-0.141-0.551-0.151-0.561-0.267 0.401-0.149 0.287-0.211 0.58l-0.044-0.723c0.265-0.235 0.231-0.115 0.377-0.517zM1.731 26.282c-0.167-0.761 0.039-1.33-0.191-2.198l0.633 0.023-0.078 2.184-0.363-0.009zM2.45 24.28c0.186-0.231-0.079-0.178 0.561-0.198 0.65-0.020 1.493-0.084 1.766 0.198-0.32 0.159-2.046 0.17-2.326 0zM16.246 24.15c0.259 0.117 0.316-0.060 0.856-0.092 0.608-0.035 0.639-0.056 0.75 0.35-0.279 0.087-0.589 0.129-0.891 0.102-0.195-0.017-0.27-0.047-0.383-0.11-0.018-0.010-0.052-0.046-0.066-0.056l-0.125-0.134c-0.232 0.896-0.002 1.252-0.084 1.967-0.002 0.021-0.027 0.101-0.030 0.085-0.002-0.015-0.025 0.052-0.028 0.077l0.001-2.189zM3.185 22.6l0.934-0.014 0.027 0.987 0.751 0.19c-0.396 0.234-2.15 0.212-2.498 0l0.767-0.172 0.018-0.991zM25.497 23.64l-0.017-0.602 0.546 0.081-0.056-0.354c-0.631-0.16-0.337 0.068-0.547-0.293 0.235-0.549 0-0.286 1.611-0.334l0.032 1.77c-1.909-0.013-1.649 0.072-1.569-0.268zM22.776 23.656c-0.144-0.949-0.131-0.438 0.261-0.594l0.175 0.522-0.001 0.18 0.004 0.432 0.017 0.255-1.1-0.009c-0.46 0.368-0.386-0.558-0.386 0.483 0.425-0.141 0.524 0.026 0.258-0.128 0.436 0.278 0.277 0.095 0.555 0.127l0.396 0.259c0.045-0.031 0.098-0.055 0.139-0.085l0.233-0.158c0.111-0.112 0.085-0.029 0.162-0.275 0.133-0.429-0.194-0.115 0.065-0.521 0.744 0.013 0.128 0.077 0.387-0.345-0.333-0.011-0.251 0.172-0.216-0.197 0.048-0.72-0.076-0.318 0.301-0.537l-0.096 0.586c0.488-0.029 0.104 0.155 0.398-0.146 0.245-0.6-0.361-0.778-0.689-0.906l0.089-0.385c0.272-0.097 0.686-0.115 0.987-0.074 0.478 0.064 0.344 0.203 0.338 0.711-0.105-0.092 0.172-0.235-0.308-0.118-0.229 0.056-0.254-0.172-0.243 0.255 0.408-0.057 0.35 0.313 0.413 0.187 0.014-0.029 0.060 0.050 0.102 0.074l-0.087 0.397c0.012 0.010 0.397 0.144-0.085 0.125l0.218 0.544c0.008-0.014 0.025 0.062 0.036 0.153l-1.674-0.060c0.178 0.616 0.057 1.317 0.157 1.929l-0.384-0.903c-0.101-0.36-0.057-0.22-0.121-0.379l-0.101 0.869c0.287-0.866-0.156-0.565-0.196-0.613-0.321 0.382-0.22-0.526-0.266 0.619l-0.215 0.005-0.423-0.108-0.235 0.509c0.085-0.533 0.056-1.684 0.021-2.188 0.635-0.050 0.063 0.107 0.293-0.387-0.124-0.125-0.076-0.039 0.074-0.124-0.097-0.563-0.1-0.275 0.105-0.852-0.301-0.278-0.312 0.444-0.243-0.445 0.271-0.312 0.833-0.208 1.323-0.177l0.056 0.746c-0.246-0.255 0.090-0.262-0.618-0.181-0.002 0.019-0.067 0.4-0.058 0.515 0.061 0.749-0.047 0.249 0.184 0.41zM21.319 23.63l0.116 0.246-1.339-0.009c-0.057-0.493-0.048-0.107 0.123-0.238l0.009-0.775c-0.261-0.338-0.243-0.2-0.041-0.71l1.215 0.069c0.167 1.040 0.033 0.359-0.173 0.584l0.090 0.833zM18.904 23.505c0-0.592 0.075-0.688-0.386-0.811-0.647-0.174-0.094-0.010-0.263 0.089l0.114-0.626 1.242 0.021 0.026 0.604c-0.020-0.013-0.045-0.039-0.058-0.041l-0.163-0.034c-0.32 0.012-0.238 0.069-0.364 0.137l-0.009 0.836 0.619 0.084c-0.223 0.143-0.939 0.253-1.398 0 0.46-0.125 0.425 0.023 0.513-0.18 0.027-0.061 0.085-0.050 0.127-0.078zM17.717 22.873l0.018 0.768c0.129 0.167 0.164-0.26 0.097 0.251l-1.342-0.1 0.083-0.125c-0.124-0.552-0.082-0.366 0.132-0.9-0.196-0.209-0.324 0.358-0.167-0.587l1.216-0.023c0.331 0.849 0.028 0.621-0.038 0.716zM16.025 23.606c-0.038 0.377 0.19 0.296-1.262 0.286-0.006-0.525-0.138-1.294 0.029-1.672 0.002-0.002 1.195-0.341 1.258 0.137 0.104 0.792 0.072 0.176-0.234 0.416 0.015 0.31 0.045 0.017-0.044 0.204-0.006 0.012-0.055 0.085-0.060 0.065-0.006-0.022-0.050 0.041-0.076 0.062 0.487 0.053 0.39-0.050 0.388 0.502zM13.666 23.013l0.572 0.099-0.005 0.501c-0.014 0.421 0.385 0.323-0.616 0.299-0.4-0.009-0.364 0.008-0.719-0.12-0.101-0.375-0.037-0.046 0.105-0.164l-0.017-0.638-0.054-0.119 0.023-0.702 1.28 0.044 0.069 0.39-0.638 0.412zM4.298 23.376c-0.093-0.623 0.202-0.705-0.2-1.065 0.023-0.001 0.446-0.026 0.483-0.023 0.265 0.024 0.276 0.084 0.352 0.133l-0.102 0.995-0.533-0.040zM2.364 22.304l0.723 0.026c-0.319 0.522 0.034 0.44-0.188 1.073l-0.495-0.026-0.040-1.073zM5.261 23.812c-0.215 0.022-0.013 0.13-0.153-0.049 0.043-0.544 0.086-1.142-0.099-1.552l0.268-0.034-0.016 1.634zM2.672 21.47l0.031-0.928c-0.212-0.243-0.209-0.155-0.145-0.588 0.59-0.083 1.826-0.192 2.312 0.102l0.018 1.863-2.377 0.016c0.007-0.645 0.044-0.341 0.161-0.466zM1.899 21.827l-0.009 0.356c0.259-0.007 0.358-0.090 0.474 0.121-0.238 0.226-0.207 0.231-0.211 0.817-0.002 0.271 0.009 0.563-0.034 0.747-0.455-0.026-0.398 0.115-0.254-0.529-0.521 0.485 0.186 0.278-0.586 0.761 0.338 0.424 0.29 0.927 0.255 1.736l0.012 0.707 0.658-0.036c-0.2 1.309 0.267 2.096-0.344 2.091-0.646-0.005-0.065-1.060-0.392-1.881-0.024 0.448-0.014 0.865-0.018 1.311-0.005 0.539-0.145 0.754 0.093 0.848l0.553-0.099-0.044 2.197-0.546-0.111c0.185 0.308-0.033 0.161 0.349 0.246 0.006 0.001 0.376 0.004 0.393 0.003 0.481-0.011 0.461 0.111 0.629-0.179l-0.605 0.014-0.005-1.118c0.614-0.266 0.338-0.015 0.639-0.645l1.277 0.052c0.3 0.723-0.174 0.294 0.663 0.593l-0.022 1.126-0.577 0.030c0.013-0.2 0.039-0.45 0.033-0.649-0.005-0.143-0.015-0.207-0.041-0.342l-0.081-0.167 0.057 1.274 1.431-0.065c0.165-1.315-0.427-1.979 1.251-1.592 0.213-0.23 0.088-0.139 0.178-0.294 0.207-0.355-0.017-0.111 0.283-0.368 0.002 0.466-0.070 0.349 0.191 0.675 0.607-0.167 0.555-0.205 1.192-0.041l0.232-0.204-0.026-0.429-0.615-0.115c0.147 0.157 0.008 0.149 0.065-0.125l-0.857-0.003c-0.229-0.563-0.097-1.352-0.076-1.965 0.468-0.156 0.823-0.153 1.305-0.017 0.032-0.028 0.071-0.059 0.098-0.082 0.568-0.493 0.369-0.22 0.309-2.578-0.39 0.37-0.185-0.509-0.356 0.631l0.042 1.684c-0.407-0.38-1.045-0.38-1.49-0.061 0.026-0.034 0.112-0.124 0.132-0.155 0.373-0.593 0.117-1.084-0.067-1.508l-0.345-0.503c-0.081 0.51-0.206 0.814-0.070 1.216-0.285-0.525-0.298-0.274-0.68-0.665-0.698 0.675-0.61 0.171-0.61 1.548l0.269-0.254c0.793-0.95-0.425-0.137 0.247-0.391 0.327-0.021-0.078 0.299 0.258-0.036 0.174 0.201 0.198 0.159 0.165 0.681 0.251-0.104 0.429-0.264 0.226-0.084 0.242 0.271 0.063-0.207 0.171 0.263 0.144 0.629 0.116-0.057-0.097 0.266l0.004 1.947c-0.467 0.194-0.945 0.162-1.45 0.086l-0.005-2.030-0.255 0.019-0.009-0.299-0.255-0.076 0.002-2.046 0.369-0.011-0.114-0.309 0.265 0.024 0.078-1.652c0.592-0.071 1.85-0.262 1.428 0.582l0.023 0.916 0.036 0.16 0.422 0.003 0.028-1.633c1.668-0.424 1.303 0.134 1.357 0.259-0.235 0.409 0.261-0.036-0.212 0.199l-0.409 0.377 0.549 0.028 0.004 0.543 0.052 0.291c0.367-0.071 0.261 0.109 0.326-1.47-0.148 0.156-0.335 1.217 0.099 1.455l0.054-0.28 0.060-0.491 0.058-0.389c-0.249-0.233-0.272 0.407-0.19-0.392 0.201-0.381 1.050-0.206 1.376-0.124l0.015 1.67 0.425-0.030 0.005-0.19c-0.093-0.656-0.008-0.29 0.065-0.901l-0.022-0.554c0.402-0.112 1.051-0.174 1.331 0.129 0.054 0.805 0.065 0.189-0.251 0.42 0.092 0.23 0.152 0.507 0.182 0.853-0.025 0.317 0.158 0.095-0.095 0.283l-1.073-0.044v0.242c0.474-0.058 0.899-0.152 1.2 0.183-0.184 0.219-0.351 0.196-0.513 0.517 0.254 0.169-0.071 0.199 0.409 0.199 0.6 0 0.202-0.94 0.201-0.941 0.953 0.184 0.671-0.379 1.971 0.225-0.137-0.251-0.031-0.159-0.056 0.113-0.023 0.258-0.024 0.398-0.030 0.659-0.003 0.156-0.015 0.518-0.003 0.659 0.037 0.436 0.308 0.422 0.005 0.619-0.030-0.615 0.37-0.581-0.431-0.436-0.053-1.033 0.143-0.353-0.479-0.58-0.425-0.076-0.32 0.273-0.39 0.646l-0.041-0.776c0.504-0.463 0.28 0.225 0.392-0.704l-0.891-0.070 0.119 0.299c0.534 1.251-0.076 0.783 0.003 1.637-0.012-0.032-0.017-0.078-0.026-0.099-0.243-0.515-0.243-0.287-0.381-0.4l-0.37-0.533c-0.308 0.364-0.257-0.499-0.257 0.515 0.395-0.12-0.040-0.409-0.13-0.515l-0.156 0.355c-0.134 0.209-0.009 0.171-0.614 0.162l-0.011 0.722c-0.317 0.58-0.034 0.57 0.086 1.085 0.078 0.333 0.020 0.668 0.022 1.020-0.007-0.842-0.206-0.911 0.193-1.175l0.044-1.012c0.879 0.048 0.866 0.258 1.325 0.712 0 0.19 0.021 0.551 0.006 0.724-0.028 0.33-0.019 0.2-0.12 0.39-0.165-0.192-0.070 0.019-0.167-0.288-0.054-0.174 0.010-0.055-0.031-0.238l-0.132-0.342 0.003 0.724c-0.247-0.012-0.164-0.009-0.315 0.12-0.027 0.117 0.061 0.141-0.070 0.289l-0.542 0.042 0.143 0.165c-0.568-0.003-0.28-0.088-0.562 0.234-0.386 0.442 0.309 0.033-0.123 0.195l-0.124 0.058c0.152 0.354 0.192 0.709 0.193 1.153 0.324-0.194 0.121-0.092 0.509-0.219 0.008-0.427-0.072-0.473 0.145-0.811 0.434-0.149 0.69-0.022 1.104 0.079 0.13-0.196 0.172-0.281 0.183-0.598 0.024 0.018 0.056 0.045 0.068 0.060 0.223 0.276 0.131 0.503 0.199 0.321 0.007-0.021 0.023 0.064 0.039 0.093 1.271-0.365 0.504-0.175 1.456-0.007l0.023-0.551c0.314 0.293 0.132 0.046 0.328 0.557 1.193-0.319 0.397-0.248 1.42 0.006 0.238-0.702 0.034-0.302 0.258-0.507l0.235 0.531 0.357-0.157-0.404-0.493 1.363 0.096-0.281 0.337c-0.017-0.027-0.072 0.057-0.105 0.076l0.341 0.119c0.463-0.263-0.028 0.102 0.302-0.496l0.071 0.533 0.443-0.029 0.706-0.028 0.481 0.031 0.107-0.514c0.22 0.623-0.121 0.144 0.386 0.554 0.234-0.342 0.669-0.149 0.902-0.51l-0.968 0.048c0.14-0.118-0.093-0.052 0.214-0.121l0.953 0.059c-0.419 0.62-0.26 0.212-0.066 0.449l0.515 0.014c0.608-0.123 0.763-0.187 1.421 0.008 0.073-0.138 0.090-0.215 0.125-0.281 0.147-0.27 0.011-0.071 0.183-0.274l0.078 0.535c0.747-0.123 0.623-0.222 1.42 0.037l0.258-0.539c0.224 0.708-0.156 0.207 0.236 0.671 1.703-0.469 1.078 0.281 1.266 1.508 0.373 0.134 1.045 0.172 1.509 0.038l0.090-1.683c-0.277 0.308-0.084-0.286-0.254 0.474l-0.011 1.165-0.482-0.077-0.005-1.079c0.29-0.116 0.269-0.010 0.508-0.256 0.161-0.166-0.017-0.235 0.357-0.387 0.231-0.093 1.467-0.053 0.986 0.264l0.111 1.615c0.288 0.040 0.438 0.044 0.727 0.043l0.655-0.13-0.56 0.017 0.030-2.173c0.66-0.062 0.356-0.002 0.518 0.122 0.012-0.011 0.366-0.126 0.038-0.352l-0.653 0.020-0.086-2.157c0.049 0.002 0.371 0.017 0.424 0.029 0.352 0.077 0.020-0.044 0.272 0.153l0.039-0.424c-0.045-0.708 0.027-1.4-0.095-1.974-0.041 0.659 0.080 1.439-0.128 2.051l-0.418 0.018-0.020-1.854-0.137 0.105c-0.162-0.32 0.248-0.168-0.649-0.145-0.589 0.015-1.361 0.109-1.888-0.117l0.036-0.536-0.61 0.236v-1.657l0.549-0.516-0.085-0.333c0.309 0.089 0.138 0.093 0.436 0.093 0.672-0.001 0.033 0.045 0.281-0.134l-0.574 0.009 0.092-0.913c-0.207-0.192-0.287 0.341-0.202-0.53 0.529-0.275 1.657-0.141 2.338-0.105 0.050 0.312 0.222 1.904-0.124 1.928 0.451 0.557-0.141 0.077 0.373 0.298 0.052 0.022 0.338-0.013 0.417-0.004l-0.007-0.275-0.373 0.104-0.105-2.258-2.715 0.030-0.023 2.209-22.313-0.025-0.101-2.070c-0.494-0.278-2.18-0.172-2.712-0.097l-0.002 2.137-0.418-0.062z"></path>
<path fill="#67676d" d="M1.885 19.756l3.591-0.012c0.295-0.17 0.153 0.045 0.052-0.495-0.008-0.041-0.042-0.384-0.057-0.424-0.234-0.606 0.018-0.115-0.295-0.357-0.133 0.483 0.126 0.242-0.216 0.82-0.559 0.104-0.556-0.080-0.82-0.1-0.348-0.026 0.066-0.009-0.208 0.041-0.518 0.095-0.417-0.12-0.708-0.031-0.031 0.010-0.22 0.136-0.258 0.156-0.039-0.458 0.029-0.21-0.202-0.35-0.19 0.302-0.117 0.183-0.258 0.296-0.315-0.795 0.109-0.483-0.418-0.834-0.092 0.238-0.331 1.071-0.203 1.29z"></path>
<path fill="#67676d" d="M26.906 19.76c0.634-0.19 1.9-0.009 2.845-0.065 1.238-0.074 0.762-0.025 0.939 0.148 0.384 0 0.090 0.015-0.069-0.683-0.122-0.539 0.092-0.293-0.225-0.675l-0.387 0.818c-0.233-0.499-0.011-0.186-0.259-0.304l-0.283 0.464-0.216-0.4-1.313 0.242c-0.768 0.019-0.14-0.258-0.641-0.82-0.141 0.132-0.11-0.004-0.196 0.254l-0.195 1.022z"></path>
<path fill="#67676d" d="M9.35 26.087c0.468-0.371 0.384 0.561 0.387-0.663 0.344 0.269 0.227-0.699 0.265 0.561l0.122-0.576 0.217 0.282c0.401 0.581-0.261 0.053 0.17 0.216 0.245-0.164 0.196 0.599 0.227-0.983l-0.679-0.25c-0.381-0.126-0.454-0.11-0.945 0.12l-0.023 1.289c0.491-0.393 0.345 0.040 0.384-0.917 0.023-0.576-0.134-0.321 0.286-0.421-0.402 0.283-0.366 0.222-0.421 0.547-0.006 0.034 0.010 0.736 0.010 0.794z"></path>
<path fill="#67676d" d="M8.316 25.442c0.291 0.214 0.256-0.704 0.258 0.645 0.184-0.222 0.181-0.094 0.27-0.506 0.001-0.002-0.012-0.478-0.012-0.526l-0.211-0.146c-0.031-0.022-0.066-0.043-0.1-0.066l-0.923 0.211-0.056 1.034c0.473-0.341 0.383 0.531 0.387-0.645 0.295 0.218 0.343 0.641 0.343 0.641l0.044-0.641z"></path>
<path fill="#67676d" d="M16.865 27.451l0.225 0.057 0.012 0.517c-0.14 0.19 0.223 0.214-0.282 0.123 0.231 0.22-0.418 0.18 0.397 0.169 0.667-0.009 0.057 0.040 0.293-0.159-0.609 0.182-0.151 0.1-0.329-0.133l0.018-0.517 0.25-0.033c0.16-1.039 0.056-0.383-0.094-0.592l-0.388-0.001c-0.158 0.207-0.305-0.236-0.103 0.569z"></path>
<path fill="#67676d" d="M7.551 29.46c-0.34 0.634 0.042 1.034-0.267 1.53-0.285-0.124-0.152 0.081-0.234-0.253-0.059-0.243 0.134-0.768-0.151-1.289l0.078 1.639 0.524-0.034 0.050-1.593z"></path>
<path fill="#67676d" d="M29.082 21.493l0.31-0.009 0.036-0.937-0.375-0.014z"></path>
<path fill="#67676d" d="M28.35 21.453l0.262 0.036 0.031-0.945-0.372-0.006z"></path>
<path fill="#67676d" d="M3.213 21.542l0.223-0.066 0.056-0.915-0.368-0.070z"></path>
<path fill="#67676d" d="M28.54 26.010c0.19 0.183-0.070 0.080 0.31 0.176 0.017 0.004 0.491-0.003 0.513-0.003v-0.19c-0.586-0.207-0.21 0.045-0.387-0.744-0.037 0.088-0.058 0.037-0.090 0.323 0 0 0.017 0.463 0.018 0.487l-0.364-0.049z"></path>
<path fill="#67676d" d="M2.635 22.937c-0.31 0.358-0.004 0.333 0 0.341 0.095-0.191 0.127-0.136 0-0.341z"></path>
</svg>
