<!-- Generated by IcoMoon.io -->
<svg version="1.1" xmlns="http://www.w3.org/2000/svg" width="32" height="32" viewBox="0 0 32 32">
<title>cdmx-bellas-artes</title>
<path d="M16.551 24.399l0.278-0.026-0.027-1.022-0.264 0.072z"></path>
<path d="M17.208 23.32l-0.199 0.046c0.061 0.439-0.116 0.642 0.054 1.031 0.137-0.127 0.153 0.135 0.163-0.43 0.003-0.202-0.044-0.32-0.018-0.647z"></path>
<path d="M14.193 24.316l0.198 0.041 0.064-0.404c-0.272-0.309 0.143-0.131-0.296-0.068l0.034 0.43z"></path>
<path d="M14.577 24.852l0.308-0.042-0.020-0.131-0.208-0.082z"></path>
<path d="M16.568 24.768c0.267-0.033 0.145 0.029 0.261-0.089-0.142-0.144 0.174-0.162-0.281-0.088l0.019 0.177z"></path>
<path d="M14.447 24.846l-0.074-0.257-0.183 0.089-0.030 0.123z"></path>
<path d="M16.989 24.679c0.001 0.022 0.058 0.018 0.065 0.018 0.005 0.001 0.049 0.008 0.054 0.007 0.003-0.001 0.035-0.008 0.037-0.009 0.162-0.057-0.166-0.285-0.156-0.017z"></path>
<path d="M19.263 27.344c0.238 0.68 0.23 2.549 0.11 3.431-0.001-0.147-0.163-0.068-0.162-1.496 0-0.644-0.040-1.298 0.052-1.934zM12.064 30.791l0.056-3.308c-0.001-0.006-0.013-0.027-0.019-0.041l0.077 2.693c-0.006 0.198-0.118 0.643-0.113 0.656zM11.393 31.11c0.533 0.004 0.411-0.034 0.948-0.116 0.016-0.416 0.152-0.001 0.149-1.715-0.001-0.533 0.093-1.751-0.029-2.169l0.123-0.010c-0.013 0.038-0.034 0.050-0.037 0.114l0.037 3.809 0.46 0.027c-0.412-1.13-0.381-2.818-0.066-3.992l0.935-0.1c0.287 1.027 0.31 2.734 0.111 3.794l0.199 0.407 0.464-0.090-0.529 0.027c0.506-1.334 0.159-2.965 0.162-3.883 0.001-0.439-0.080 0.005 0.080-0.315 0.226 0.151 0.117-0.006 0.194 0.309l0.076 0.217c0.025-0.030 0.060-0.117 0.072-0.093 0.106 0.21 0.020-0.082 0.263-0.365l1.452 0.015c0.424 0.579 0.283 1.066 0.283 1.932 0 1.317 0.127 1.041-0.272 2.125 0.524 0.094 0.537 0.108 1.078-0.006-0.336-0.78-0.348-3.455 0.001-4.060l0.924 0.039c0.278 1.069 0.342 3.003-0.076 4.022l0.488 0.114c0.625-0.182 0.346-0.132 0.963 0.009 0.283-0.227 0.079 0.051 0.192-0.315-0.082-0.207-0.215-3.185 0.050-3.382-0.36-0.979-0.095-0.106 0.121-0.46l-0.054-0.502c-0.177 0.021-0.127 0.056-0.127-0.133-0.27 0.333-0.165 0.624-0.255 0.406-0.007-0.017-0.030 0.050-0.048 0.073-1.854-0.399-4.403 0.031-6.299-0.172l-1.811 0.128c0.048-0.456 0.052-0.198-0.097-0.475 0.059 0.585-0.065 0.382 0.218 0.531l-0.29 0.576c0 0.002 0.048 0.452 0.050 0.51l-0.104 3.165z"></path>
<path d="M8.863 27.576l0.027 2.799c-0.021 0.577-0.151 0.51 0.184 0.791 0.317-0.153 0.154-0.021 0.302-0.354 0.146-0.656 0.194-2.723-0.036-3.256-0.088-0.449-0.027-0.231-0.145-0.427-0.431 0.179-0.28-0.161-0.333 0.447z"></path>
<path d="M22.026 21.692c0.005 0.008 0.482 0.021 0 0.77-0.257-0.308-0.233 0.426-0.205-0.445 0.012-0.382 0.064-0.147 0.205-0.325zM21.71 25.494c0.326-0.163 0.115-1.151 0.149-1.673 0.041-0.62-0.029-0.239 0.166-0.438 0.223 0.216 0.184-0.432 0.168 1.053-0.005 0.427-0.135 0.936 0.191 1.092 0.154-0.625 0.074-1.293 0.092-1.939 0.009-0.332 0.024-0.633 0.020-0.968-0.001-0.049-0.002-0.487-0.003-0.494-0.061-0.559-0.108-0.427-0.226-0.549l-0.532 0.031-0.008 0.769c0.549 0.385 0.582-0.077 0.584 0.726l-0.522 0.242-0.081 2.148z"></path>
<path d="M14.159 23.886c0.439-0.064 0.023-0.242 0.296 0.068l-0.064 0.404-0.198-0.041-0.002 0.362 0.183-0.089 0.074 0.257 0.13 0.006 0.080-0.255 0.208 0.082-0.002-0.362c-0.319 0-0.198 0.188-0.28-0.364 0.183-0.207-0.281-0.338 0.32-0.096l0.057-0.553-0.844 0.005 0.044 0.578z"></path>
<path d="M26.49 21.604c0.033 0.483 0.086 0.491-0.107 0.844-0.112-0.084-0.326 0.258-0.121-0.901-0.272 0.133-0.329 0.323-0.121 0.964l0.363 0.041c0.061-0.124 0.131 0.048 0.152-0.417 0.017-0.383-0.111-0.445-0.166-0.53z"></path>
<path d="M16.803 22.415c-0.119-0.513-0.135-0.35 0.101-0.759l-0.443-0.023-0.018 0.877c0.305-0.033 0.224-0.001 0.36-0.094z"></path>
<path d="M27.098 27.203c0.222 0.446 0.525 0.853 0.535 1.587 0.011 0.779-0.071 1.586 0.074 2.349l0.332-0.045c0.111-0.555-0.157-1.113-0.152-1.937 0.004-0.763 0.016-1.419-0.068-2.178l-0.285 0.079c0.084-0.155 0.369-0.888 0.059-0.94-0.455-0.048-2.143-0.355-2.392 0.058l1.827-0.019c-0.255 0.205-0.301 0.175-0.364 0.531 0.397 0.001 0.358-0.062 0.619-0.222l-0.186 0.736z"></path>
<path d="M9.644 22.14c-0.010 0.38-0.086 0.19-0.207 0.355-0.254-0.304-0.259 0.434-0.231-0.482 0.013-0.422 0.064-0.149 0.231-0.355 0.22 0.3 0.232-0.448 0.207 0.481zM8.627 25.48l0.293-0.006c0.079-0.655 0.035-1.343 0.033-2.006-0.001-0.657-0.084-1.541 0.128-1.965l0.093 1.834 0.453-0.034-0.269-0.163c-0.023-0.011-0.119-0.028-0.159-0.034l0.034-0.484c1.045-0.004 0.239 0.033 0.566-0.242v-0.605c-0.341-0.289 0.468-0.241-0.484-0.241v-0.174l-0.604-0.065c-0.229 0.612-0.198 3.468-0.085 4.186z"></path>
<path d="M11.979 25.4l-0.357-0.001-0.095 0.518-0.123 0.231 0.115 0.18c0.149 0.277 0.145 0.018 0.097 0.475l1.811-0.128c0.211-0.048 0.337-0.245 0.507-0.466 0.046-0.636 0.021-0.5-0.14-0.912l-1.246 0.051-0.215 0.097c0.47 0.101 0.372 0.056 0.856-0.004 0.243 0.249 0.338 0.242 0.4 0.552-0.307 0.451-0.219 0.167-0.76 0.286-0.407 0.089-0.562 0.324-0.892 0.526 0.462-0.91 0.061-0.673 0.041-1.404z"></path>
<path d="M29.705 26.13l0.468-0.018c-0.178-1.293-0.171-3.39 0.163-4.514-0.795 0.049-0.594-0.239-0.572 1.993 0.009 0.835 0.079 1.72-0.060 2.54z"></path>
<path d="M8.689 21.182l3.533-0.014c0.203-0.159 0.061 0.059 0.097-0.216l-3.366 0.006c-0.391 0.081-0.096-0.089-0.265 0.224z"></path>
<path d="M28.066 27.040c0.395-0.403 1.379-0.432 0.619-1.422-0.022 0.021-0.053 0.048-0.066 0.062l-0.115 0.14c-0.301 0.415-0.361 0.688-0.438 1.22z"></path>
<path d="M14.687 31.070c-0.196-0.809-0.408-3.049-0.094-3.861-0.076-0.316 0.032-0.158-0.194-0.309-0.16 0.32-0.078-0.124-0.080 0.315-0.002 0.918 0.345 2.549-0.162 3.883l0.529-0.027z"></path>
<path d="M27.35 25.355l0.046 0.534 0.718 0.090 0.273-0.433-0.187-0.283c-0.423 0.058-0.431 0.055-0.609 0.405-0.117-0.58 0.013-0.135-0.24-0.312z"></path>
<path d="M11.621 25.399l-0.029-0.168c-0.199-0.128-0.1-0.424-0.080-0.673l0.842-0.126-0.010-0.318c-0.681 0.036-0.377 0.104-0.948-0.040l-0.037 1.237 0.263 0.088z"></path>
<path d="M19.106 21.048h3.602c-0.267-0.153-2.641-0.154-3.229-0.101-0.407 0.037-0.128-0.014-0.373 0.101z"></path>
<path d="M8.689 30.198l0.068 0.647 0.061-3.301c-0.174-0.158-0.296 0.010-0.171-0.212l0.042 2.867z"></path>
<path d="M20.038 30.844c0.001-0.587-0.168-3.133 0.23-3.354l0.050 3.414c0.213-0.263 0.172 0.54 0.176-0.415 0.001-0.732 0.132-2.594-0.117-3.147 0.251-0.157 0.115-0.167 0.398-0.002-0.147 0.344-0.305 3.065 0.051 3.555 0.084-1.020-0.226-2.883 0.231-3.622 0.439-0.026 0.543-0.069 0.88 0.069 0.291 0.558 0.19 2.872 0.083 3.631l0.109-0.070c0.121-0.653 0.127-3.102-0.060-3.724 0.482 0.052 0.19-0.034 0.682 0.163 0.034-0.042 0.105-0.094 0.112-0.119 0.048-0.153-0.232-0.216-0.233-0.217l-2.422-0.003c-0.216 0.354-0.48-0.519-0.121 0.46-0.265 0.198-0.132 3.175-0.050 3.382z"></path>
<path d="M15.121 15.235l-0.246-0.015c-0.19 0.207 0.267 0.095-0.245 0.16-0.421 0.053-0.021-0.010-0.496-0.235-1.147-0.542-0.163-0.142-0.954-0.806 0.208 0.445 0.207 0.099 0.089 0.617l-0.672 0.235c-0.063 0.467-0.121 0.199 0.034 0.594l0.198 0.299c-0.379 0.957 0.326-0.027-1.053 1.546l-0.491 0.856-0.082 0.43-2.421-0.002c-0.019 0.236-0.058 0.152 0.010 0.38l0.187 0.422c-0.427 0.522-0.329-0.028-0.387 1.049l3.721 0.009 0.3-1.572c0.369-1.026 0.689-1.408 1.381-1.835 1.462-0.901 3.508-0.523 4.447 0.977 0.484 0.773 0.499 1.514 0.684 2.439l3.703-0.013c0.066-1.228-0.308-0.637-0.377-1.087 0.13-0.55 0.206 0.099 0.216-0.694-0.344-0.135-0.794-0.092-1.249-0.086-0.163 0.002-0.478 0.027-0.613 0.022-0.691-0.030-0.398 0.022-0.576-0.298-0.090-0.136-0.193-0.34-0.265-0.483-0.163-0.329-0.13-0.22-0.179-0.513-0.478-0.237-0.35-0.323-0.712-0.648-0.561-0.505-0.19-0.139-0.482-0.899l0.202-0.325c0.132-0.314 0.077-0.204 0.035-0.535l-0.759-0.364 0.184-0.537c-0.447 0.369-0.274 0.46-0.486 0.652-0.423 0.383-0.042-0.16-0.828 0.428-0.512-0.101-0.289 0.071-0.444-0.332-0.026 0.024-0.060 0.057-0.079 0.073s-0.059 0.053-0.080 0.069l-0.245 0.175c-0.455-0.054-0.789 0.085-0.973-0.154z"></path>
<path d="M11.365 14.754c-0.132 0.706-0.098 0.237 0.13 0.391 0.537-0.554 0.517-0.458 0.848-0.030l0.754-0.361-0.241-0.718c0.775 0.107 0.486 0.229 0.894 0.645 0.432 0.44 0.39-0.076 0.889 0.496 0.327-0.483-0.048-0.2 0.367-0.4 0.226 0.115 0.484 0.569 0.968 0.395 0.396-0.317 0.062-0.21 0.484-0.408l0.331 0.315c0.015 0.018 0.039 0.058 0.060 0.086 0.336-0.535 0.436-0.049 0.845-0.504 0.287-0.32 0.239-0.561 0.831-0.625 0.018 0.607-0.097 0.321-0.175 0.79 0.442 0.131 0.453 0.135 0.825 0.332 0.051-0.164 0.088-0.607 0.525-0.242l0.269 0.236c0.232-0.211 0.078 0.054 0.099-0.368-0.242-0.276-0.307-0.568-0.584-0.879-0.247-0.278-0.48-0.521-0.803-0.77-0.831-0.64-1.469-0.503-2.327-0.909l-1.335 0.062c-1.003 0.314-1.399 0.215-2.241 0.841-0.386 0.287-0.493 0.386-0.807 0.766-0.258 0.313-0.378 0.617-0.604 0.857z"></path>
<path d="M12.645 19.421l-0.127 1.261c0.052 0.018 0.097 0.006 0.116 0.045 0.030 0.066 0.414 0.033 0.634 0.209l0.462 0.057c0.103-0.632 0.155-1.146 0.504-1.561 0.628-0.748 1.932-1.093 2.9-0.029 0.389 0.427 0.448 0.948 0.57 1.594 0.569-0.059 0.318-0.223 1.144-0.219 0.195-3.221-2.974-4.528-4.873-3.178-0.927 0.659-0.813 1.324-1.329 1.821z"></path>
<path d="M20.694 15.323c-1.009 0.011-0.739 0.103-1.199-0.3-1.144 1.284-0.529 1.603 0.334 2.462l0.044-0.86 0.794-0.067 0.050 1.827-0.442 0.241 2.347 0.089 0.073-0.816c0.066-0.016 0.107-0.078 0.124-0.051l0.755-0.273 0.149-0.123c-1.549-0.747-1.171-0.369-2.113-0.708l-0.072-1.928-0.556-0.019c-0.251 0.472-0.047 0.4-0.288 0.526z"></path>
<path d="M13.427 26.674c1.896 0.203 4.445-0.227 6.299 0.172 0.018-0.023 0.041-0.090 0.048-0.073 0.090 0.218-0.015-0.073 0.255-0.406 0.031-0.22-0.117-0.546-0.172-0.952-0.84 0.037-2.081-0.128-3.036-0.138-1.008-0.011-2.021-0.005-3.027 0.019 0.161 0.412 0.186 0.277 0.14 0.912-0.17 0.221-0.296 0.418-0.507 0.466z"></path>
<path d="M7.765 17.405c0.357 0.463 0.177 0.249 0.913 0.396l0.124 0.867 2.176 0.028c-0.036-0.303 0.046-0.129-0.267-0.311-0.017-0.425-0.128-1.409 0.124-1.675 0.044-0.076-0.282-0.129 0.297-0.192 0.277-0.030 0.321 0.095 0.374 0.127 0.013 0.029 0.033 0.065 0.040 0.087l0.066 0.717c0.942-0.963 1.194-1.107 0.668-2.031l-0.277-0.416c-0.408 0.446-0.32 0.336-1.233 0.314-0.301-0.102 0.029 0.164-0.135-0.106-0.269-0.444-0.037-0.431-0.669-0.4-0.21 0.626-0.138 1.313-0.151 2.003-0.807 0.088-1.453 0.37-2.049 0.592z"></path>
<path d="M22.975 21.652c0.078 0.66 0.024 1.701 0.024 2.421 0 0.41 0.032 0.941 0.005 1.335-0.035 0.527-0.183 0.404-0.127 0.976 0.25 0.253 0.212 0.153 0.206 0.959-0.008 0.933 0.206 2.363-0.207 2.864l0.011 0.844 1.026 0.009c0.064-0.543 0.091-0.548 0.203-0.912 0.055-0.582 0.085-3.439-0.119-3.774-0.35-0.577-0.61 0.802-0.608-2.663 0.002-2.687 0.338-2.658-0.397-2.668l-0.020 0.609z"></path>
<path d="M7.477 30.61l0.049 0.438 0.995-0.005 0.026-0.86c-0.21-0.555-0.144-2.986-0.043-3.76 0.078-0.594-0.056-0.443-0.101-0.908-0.069-0.706-0.003-1.784-0.004-2.531-0.001-2.217 0.377-1.901-0.434-1.94 0.026 0.971 0.092 1.896 0.093 2.908 0.002 1.439 0.229 2.045-0.594 2.351-0.214 1.441-0.313 2.872 0.014 4.305z"></path>
<path d="M22.685 19.639c0.441 0.379 0.297 0.505 0.392 1.134 0.834 0.256 1.737-0.047 2.576-0.070 0.903-0.025 1.641 0.188 2.626 0.185 0.040-0.237 0.024-0.578 0.108-0.751 0.192-0.397 0.261 0.039 0.379-0.503-1.020-0.054-2.079-0.315-2.987-0.261-0.553 0.033-0.868 0.23-1.447 0.251-0.544 0.019-1.094-0.008-1.647 0.015z"></path>
<path d="M2.689 19.643c0.103 0.562 0.073 0.069 0.316 0.449 0.141 0.222 0.084 0.453 0.159 0.785 0.913-0.010 1.722-0.206 2.524-0.188 0.908 0.020 1.681 0.161 2.694 0.152-0.001-0.535-0.045-0.952 0.386-1.184-0.515-0.042-1-0.010-1.511-0.021-0.625-0.013-0.923-0.192-1.463-0.243-0.976-0.090-2.019 0.211-3.104 0.25z"></path>
<path d="M26.262 21.546l0.228 0.058c0.055 0.085 0.182 0.147 0.166 0.53-0.021 0.465-0.090 0.294-0.152 0.417l-0.363-0.041c-0.208-0.641-0.151-0.83 0.121-0.964zM24.992 21.436l0.818-0.007-0.017 1.019-0.814 0.002 0.014-1.014zM25.051 25.408l-0.040-2.101 0.752 0.015 0.028 2.026 0.291-0.002c0.164-0.612 0.021-1.309 0.062-1.647 0.080-0.661-0.1-0.18 0.239-0.439 0.222 0.183 0.236-0.136 0.219 0.933-0.007 0.428-0.039 0.748 0.076 1.152l0.411 0.018 0.038-4.335c-2.351-0.344-2.429-0.214-2.42 0.74 0.012 1.13 0.003 2.263 0.004 3.393 0.093 0.484-0.109 0.136 0.34 0.245z"></path>
<path d="M4.959 22.482c-0.308-0.475-0.257-0.87 0.371-0.955l0.017 0.489c0.022 0.476-0.025 0.313-0.147 0.471l-0.242-0.005zM5.63 21.439l0.837-0.028v1.025l-0.852 0.011 0.014-1.008zM4.898 25.315l-0.070-1.987 0.416-0.056c0.167 0.389 0.114 0.558 0.107 1.045-0.002 0.146-0.013 0.353-0.007 0.492l0.1 0.492c0.164-0.185 0.136-0.017 0.187-0.373 0.008-0.057-0.009-0.518-0.011-0.612-0.009-0.429-0.054-0.659 0.099-0.981l0.703-0.039 0.016 2.098 0.289-0.009c-0.007-0.729-0.006-1.444-0.004-2.158 0.001-0.364-0.006-0.727-0.006-1.090 0-0.187 0.023-0.446 0.014-0.616-0.034-0.681 0.014-0.249-0.139-0.432-0.484-0.413-1.64-0.132-2.277-0.056l-0.015 4.352 0.598-0.071z"></path>
<path d="M2.463 21.315c0.176 0.421 0.124 0.59 0.12 1.065-0.003 0.363-0.001 0.726-0.002 1.089-0.001 1.996 0.194 1.964-0.422 2.677l0.166 0.316 0.010 4.568 0.753 0.019c0.312-1.232 0.609-3.785-0.035-4.959-0.62-1.13-0.298-3.827-0.184-5.024l-0.383 0.054-0.023 0.195z"></path>
<path d="M3.431 31.064l0.249-0.052c0.272-1.078-0.212-2.287 0.338-3.393 0.19-0.382 0.476-0.657 1.088-0.732 0.679-0.085 0.99 0.125 1.404 0.533 0.432 0.9 0.557 2.393 0.328 3.579l0.474 0.060c-0.027-0.802-0.23-0.6-0.263-1.29l0.175-3.536c-1.332-0.216-2.397-0.257-3.765-0.021-0.034 0.409 0.119 0.578 0.126 1.126l0.002 2.654c-0.064 0.463-0.287 0.463-0.156 1.073z"></path>
<path d="M28.685 25.618c0.761 0.99-0.223 1.019-0.619 1.422-0.078 0.695-0.027 1.416-0.030 2.117-0.005 0.935 0.151 1.149 0.294 1.985l0.777-0.108c0.104-1.161-0.182-3.848 0.093-4.676 0.034-0.42-0.162-0.572-0.388-0.832 0.003-0.798 0.044-1.603 0.042-2.421l0.086-1.731c-0.001-0.458 0.119-0.18-0.258-0.312-0.107 0.14-0.115-0.043-0.102 0.309 0.001 0.028 0.016 0.062 0.019 0.092l0.084 4.154z"></path>
<path d="M13.985 20.927l3.426 0.069c0.365-2.496-3.508-2.905-3.426-0.069z"></path>
<path d="M3.87 18.981c1.087 0.007 1.974-0.022 3.099 0.025l0.017-1.44c-1.684-1.347-2.956-0.137-3.036 0.093l-0.080 1.323z"></path>
<path d="M24.481 17.509l0.012 1.419c0.327 0.094 2.441 0.062 3.006 0.089l-0.025-1.478c-0.491-0.259-0.712-0.602-1.451-0.627-0.87-0.029-1.037 0.324-1.542 0.597z"></path>
<path d="M4.167 25.421l-0.069-4.324-0.957-0.018c-0.162 0.622-0.285 3.947-0.080 4.434l0.203 0.424 0.577 0.003c0.022-0.048 0.052-0.127 0.062-0.107 0.102 0.206 0.096-0.147 0.113-0.174 0.014-0.022 0.036-0.062 0.050-0.084 0.013-0.021 0.040-0.061 0.050-0.078s0.032-0.052 0.050-0.076z"></path>
<path d="M29.225 26.468l0.052 4.602 1.074-0.006 0.037-3.603c-0.005-0.805-0.055-0.508 0.242-1.072-0.501-0.057-1.007-0.035-1.405 0.079z"></path>
<path d="M2.142 26.5c-0.312-0.111-0.82-0.14-1.3-0.135 0.336 0.904 0.206 0.833 0.206 2.187 0 0.83 0 1.66 0.002 2.49l1.105-0.001-0.013-4.541z"></path>
<path d="M27.35 25.355c0.253 0.177 0.123-0.267 0.24 0.312 0.179-0.35 0.186-0.346 0.609-0.405l0.187 0.283c0.195-0.51 0.103-1.527 0.101-2.198-0.002-1.043 0.038-1.317-0.193-2.275l-0.945-0.004v4.287z"></path>
<path d="M14.19 24.678l0.002-0.362-0.034-0.43-0.044-0.578 0.844-0.005-0.057 0.553-0.040 0.46 0.002 0.362 0.020 0.131-0.308 0.042-0.13-0.006-0.287-0.044 0.030-0.123zM16.571 24.985l-0.003-0.217-0.019-0.177 0.002-0.192-0.013-0.976 0.264-0.072 0.207 0.015 0.199-0.046c0.099 0.148 0.087-0.031 0.149 0.382 0.022 0.147 0.007 0.345 0.002 0.491-0.014 0.317-0.034 0.535-0.031 0.861 0.115-0.195 0.055 0.332 0.119-0.366l-0.001-1.729c-0.832 0.012-2.791-0.136-3.454 0.092v1.948l0.459-0.077c0.445-0.030 1.243 0.436 2.12 0.064z"></path>
<path d="M7.137 25.977l0.484 0.034c0.496-0.909 0.172-3.801 0.121-4.96l-0.814 0.010c-0.019 1.185-0.169 4.105 0.209 4.916z"></path>
<path d="M20.62 21.642l0.903 0.019-0.020 0.789-0.881-0.001-0.002-0.807zM20.269 25.498l0.382-0.013 0.022-2.173 0.754-0.001-0.003 1.972c0.145 0.304-0.176 0.157 0.287 0.21l0.081-2.148 0.522-0.242c-0.002-0.803-0.035-0.341-0.584-0.726l0.008-0.769 0.532-0.031-0.088-0.235-1.784 0.008c-0.288 1.064-0.281 2.95-0.127 4.146z"></path>
<path d="M23.561 22.499l0.133 3.508 0.632-0.006c0.328-0.901 0.193-4.113 0.193-4.898l-0.847-0.082-0.111 1.477z"></path>
<path d="M9.66 27.556c0.23 0.533 0.182 2.6 0.036 3.256l0.164 0.238 0.865-0.001 0.141-0.252c0.136-0.954 0.159-2.755-0.141-3.519-0.808-0.013-0.66-0.099-1.066 0.278z"></path>
<path d="M24.832 27.911c-0.245 0.751-0.219 2.291-0.108 3.142l0.395-0.005c0.187-1.541-0.392-2.46 0.589-3.368 0.762-0.053 1.165 0.089 1.233 0.771 0.32 0.4-0.044 1.643 0.164 2.399l0.125 0.205c0.218-0.126 0.275 0.082 0.262-0.808-0.013-0.834 0.291-3.358-1.59-3.162-0.577 0.060-0.823 0.446-1.070 0.824z"></path>
<path d="M4.428 31.060c-0.1-0.81-0.294-2.927 0.471-3.359 2.038-0.28 1.163 1.91 1.443 3.333l0.368-0.003c0.216-1.576-0.046-2.437-0.225-3.488-2.793-1.66-2.505 1.294-2.542 3.505l0.485 0.012z"></path>
<path d="M9.909 21.629l0.921-0.014-0.005 0.823-0.916 0.041-0.001-0.85zM9.627 23.303c0.051 0.287 0.041 0.659 0.037 1.013-0.001 0.119-0.015 0.391-0.007 0.492l0.171 0.519c0.097-0.342 0.135-0.593 0.131-1.011l0.003-0.722c0.062-0.387 0.022-0.117 0.097-0.274l0.702-0.007 0.013 2.156 0.4-0.018c0.203-0.861 0.096-3.3-0.14-4.137l-1.717 0.044v0.174c0.952 0 0.143-0.048 0.484 0.241v0.605c-0.327 0.275 0.479 0.238-0.566 0.242l-0.034 0.484c0.040 0.006 0.136 0.023 0.159 0.034l0.269 0.163z"></path>
<path d="M16.803 22.415c-0.136 0.093-0.055 0.061-0.36 0.094l0.018-0.877 0.443 0.023c0.577-0.001 0.399 0.111 0.514-0.448l-3.405 0.005c0.225 0.853 0.112 0.2 0.944 0.562l0.021 0.605c-0.044 0.010-0.093-0.013-0.113 0.025-0.049 0.089-0.4-0.126-0.891 0.217 0.489 0.322 2.878 0.147 3.478 0.162l-0.128-0.273c-0.377-0.116-0.129-0.072-0.522-0.095z"></path>
<path d="M1.98 19.974c-0.192-0.173-0.143 0.286-0.2-0.379 0.146-0.109 0.011-0.096 0.276-0.155 0.025-0.006 2.916-0.037 1.935-0.179l-0.278-1.642c-0.526-0.036-0.98 0.231-1.141 0.699-1.332 0.087-1.135 0.579-1.321 1.718 0.451 0.064 0.36 0.089 0.729-0.061z"></path>
<path d="M19.856 25.415l0.188-0.064c-0.034-1.161-0.11-2.974 0.099-3.976l-1.002-0.033-0.056 3.848c0.94 0.062 0.691 0.155 0.771 0.224z"></path>
<path d="M24.162 30.308c-0.032 0.325-0.153 0.399 0.042 0.746l0.312-0.013c0.082-0.723-0.136-2.669 0.196-3.095l0.082-0.424c0.968-0.609 0.96-1.008 2.303-0.319l0.186-0.736c-0.261 0.16-0.222 0.223-0.619 0.222 0.064-0.357 0.109-0.326 0.364-0.531l-1.827 0.019-1.017 0.025c0.114 1.080 0.19 0.152 0.187 2.109-0.001 0.364-0.005 0.725 0.002 1.089 0.021 0.95-0.013 0.751-0.211 0.909z"></path>
<path d="M27.105 19.232c0.817 0.345 1.577 0.136 2.537 0.242l-0.081 0.585h0.584l0.002-0.464c-0.326-1.711-0.508-0.852-1.228-1.332-0.001-0.001-0.324-0.683-1.186-0.689-0.025 0.411 0.008 0.802-0.013 1.184-0.032 0.568-0.072 0.505-0.614 0.474z"></path>
<path d="M11.396 24.074c0.571 0.143 0.267 0.076 0.948 0.040l0.010-2.796-1.077 0.009c0.061 0.776 0.031 1.96 0.119 2.748z"></path>
<path d="M29.717 26.136c-0.216-1.173-0.047-3.308-0.064-4.62l0.583 0.003c-0.104-0.288 0.298-0.14-0.33-0.218-0.258-0.032-0.391 0.014-0.711-0.041-0.34 0.868-0.067 3.016-0.131 4.145 0.15 0.248 0.286 0.559 0.653 0.731z"></path>
<path d="M2.299 21.29l-1.090-0.033c0.292 0.259-0.030 0.070 0.606 0.237l-0.001 4.65 0.263-0.342c0.144-0.198 0.172-0.23 0.305-0.397 0.002-1.071 0.125-3.223-0.084-4.115z"></path>
<path d="M23.717 17.6l-0.133 0.299c-0.424 0.034-0.937-0.249-0.653 1.525 0.349 0.014 0.687 0.006 1.035 0.011 0.762 0.010 0.409 0.077 0.96-0.089 0.679-0.206 1.404-0.191 2.18-0.114-0.83-0.237-1.897 0.062-2.732-0.041l-0.090-1.654c-0.256 0.015-0.425 0.043-0.566 0.064z"></path>
<path d="M6.895 19.221l-2.521-0.037c2.358-0.061 2.29 0.431 4.124 0.215l0.027-1.378c-0.629-0.27-0.635 0.19-0.978-0.55l-0.4 0.111-0.036 1.529c-0.144 0.101-0.014 0.038-0.216 0.109z"></path>
<path d="M15.162 10.615l-0.048 1.328 1.219-0.030-0.147-1.235c-0.015-0.010-0.059-0.037-0.076-0.048l-0.158-0.113c-0.186-1.342 0.051-0.744 0.222-1.667-0.507 0.166-0.39 0.207-0.907-0.007 0.144 1.075 0.426-0.139 0.189 1.805l-0.296-0.033z"></path>
<path d="M13.26 25.161l0.489-0.080 0.056-3.862-0.576-0.087c0.111 1.091-0.222 2.811 0.031 4.028z"></path>
<path d="M17.723 25.118l0.458-0.010 0.003-3.504c-0.007-0.040-0.033-0.158-0.043-0.195-0.080-0.276-0.080-0.203-0.109-0.261-0.413 0.114-0.448 0.010-0.419 0.561 0.053 1.013-0.066 2.741 0.111 3.408z"></path>
<path d="M18.473 25.12l0.391 0.033 0.021-4.185-0.501 0.024z"></path>
<path d="M22.783 25.666l-2.694 0.009c0.019 0.164 0.054 0.365 0.109 0.467 0.132 0.247 0.008 0.104 0.254 0.21l2.191 0.007 0.14-0.693z"></path>
<path d="M22.557 25.506l0.306-0.101 0.067-3.771c-0.39-0.345-0.032-0.281-0.478-0.251 0.084 1.227-0.042 2.891 0.104 4.123z"></path>
<path d="M13.070 21.611l0.053-0.594-0.54-0.022c0.013 0.911-0.246 3.181 0.336 3.714 0.055-0.537 0.038-1.062 0.038-1.603 0-0.28-0.010-0.576-0.006-0.853 0.002-0.095 0.003-0.269 0.015-0.357 0.059-0.414 0.044-0.162 0.104-0.284z"></path>
<path d="M29.196 21.192l0.94-0.040c0.294-0.247 0.605-0.519 0.694-0.916l-0.521-0.005-1.177 0.057 0.065 0.904z"></path>
<path d="M2.272 20.926l0.039-0.483-0.235-0.19-1.458-0.017c0.141 0.66 0.299 0.365 0.568 0.911l0.988-0.002 0.098-0.219z"></path>
<path d="M20.209 27.002l2.422 0.003 0.077-0.375c-0.119-0.116 0.056-0.054-0.211-0.111l-1.077-0.010c-0.422 0.001-0.847-0.003-1.266-0.010l0.054 0.502z"></path>
<path d="M1.106 21.704l0.021 0.030c0.734 0.992-0.152 3.233 0.322 4.416 0.125-0.152 0.129-0.044 0.173-0.374l-0.032-4.116-0.484 0.045z"></path>
<path d="M11.253 27.492c-0.188 0.334-0.172 3.024 0 3.365 0.126-0.166 0.169 0.342 0.158-0.852-0.005-0.578 0.158-2.136-0.158-2.513z"></path>
<path d="M5.71 25.476l-1.425 0.083-0.035 0.304 2.048 0.057c0.933 0.019 0.258 0.048 0.539-0.152-0.371-0.192-0.222-0.113-0.673-0.167l-0.453-0.125z"></path>
<path d="M25.793 25.538l-0.506-0.050-0.696 0.28c0.195 0.198-0.104 0.077 0.229 0.157l2.396-0.157c-0.219-0.379-0.98-0.229-1.423-0.23z"></path>
<path d="M11.592 25.231l0.759-0.035 0.003-0.763-0.842 0.126c-0.019 0.249-0.119 0.545 0.080 0.673z"></path>
<path d="M28.524 20.321c-0.004 0.494-0.088 0.305 0.159 0.569 0.545-0.207 0.038-0.105 0.329-0.61 0.155-0.267 0.304 0.026 0.414-0.658-0.663 0.043-0.164-0.163-0.659 0.413l-0.243 0.286z"></path>
<path d="M2.022 19.812l0.069 0.326 0.329 0.056c0.239 0.586-0.149 0.522 0.36 0.682l0.141-0.551c-0.216-0.239-0.178-0.141-0.366-0.379-0.329-0.415 0.116-0.277-0.502-0.298l-0.032 0.163z"></path>
<path d="M27.819 26.979l0.173-0.767-0.399-0.094c0.31 0.052 0.025 0.785-0.059 0.94l0.285-0.079z"></path>
<path d="M0.969 22.23c0.163-0.070 0.179 0.131 0.093-0.189-0.018-0.033 0.038-0.237-0.226-0.163-0.43 0.121 0.053-0.322-0.214 0.223l0.346 0.128z"></path>
<path d="M12.512 25.086c0.405 0.179-0.049 0.135 0.509 0.093l0.048-3.568c-0.060 0.122-0.045-0.13-0.104 0.284-0.013 0.089-0.014 0.262-0.015 0.357-0.005 0.277 0.006 0.573 0.006 0.853 0 0.541 0.017 1.066-0.038 1.603-0.582-0.533-0.322-2.803-0.336-3.714l0.54 0.022-0.538-0.103c-0.248 0.49-0.212 3.557-0.072 4.173z"></path>
<path d="M10.447 26.281l-0.771 0.008c-0.214-0.055-0.179-0.082-0.285-0.157 0.050-0.232-0.198-0.588 1.152-0.386l-0.096 0.535zM8.725 25.754l0.546-0.070-0.196 0.615c-0.385-0.136-0.24-0.054-0.349-0.4l0.041 0.467 2.366-0.090c0.185-0.449 0.095-0.206 0.292-0.349l-0.171-0.254c-0.695-0.023-2.024-0.144-2.63 0.023l0.102 0.058z"></path>
<path d="M16.989 24.679c-0.010-0.267 0.318-0.040 0.156 0.017-0.002 0.001-0.033 0.008-0.037 0.009-0.005 0.001-0.049-0.007-0.054-0.007-0.007 0-0.064 0.004-0.065-0.018zM16.551 24.399l-0.002 0.192c0.455-0.074 0.139-0.056 0.281 0.088-0.116 0.117 0.006 0.056-0.261 0.089l0.003 0.217c0.278 0.026 0.545-0.003 0.756 0.070-0.003-0.326 0.017-0.544 0.031-0.861 0.006-0.146 0.020-0.345-0.002-0.491-0.062-0.413-0.050-0.234-0.149-0.382-0.026 0.328 0.021 0.446 0.018 0.647-0.010 0.565-0.025 0.303-0.163 0.43-0.17-0.389 0.006-0.592-0.054-1.031l-0.207-0.015 0.027 1.022-0.278 0.026z"></path>
<path d="M0.969 22.23l0.087 3.809c0.259 0.234 0.050 0.070 0.137-0.028 0.001-0.686-0.001-1.372 0.002-2.058 0.002-0.452 0.165-1.581-0.133-1.912 0.085 0.32 0.069 0.119-0.093 0.189z"></path>
<path d="M10.944 27.003c-0.598 0.029-1.072 0.128-1.423-0.146 0.258-0.361-0.246-0.109 0.278-0.294 0.577-0.204 0.962 0.22 1.145 0.44zM8.673 26.577c0.149-0.009 0.254-0.035 0.405-0.009 0.323 0.056 0.163 0.061 0.305 0.168-0.194 0.334 0.151 0.23-0.552 0.293-0.186-0.263-0.148 0.384-0.159-0.452zM8.673 26.577l-0.022 0.488 2.69-0.050-0.035-0.47c-0.838 0.046-1.989-0.216-2.633 0.033z"></path>
<path d="M5.718 23.334c-0.153 0.322-0.108 0.552-0.099 0.981 0.002 0.095 0.019 0.555 0.011 0.612-0.051 0.356-0.023 0.188-0.187 0.373l-0.1-0.492c-0.005-0.139 0.006-0.346 0.007-0.492 0.007-0.486 0.060-0.655-0.107-1.045 0.001 0.43 0.005 0.86 0 1.289-0.007 0.592-0.156 0.729 0.321 0.84 0.317-0.445 0.153-1.459 0.154-2.066z"></path>
<path d="M10.058 23.32c-0.075 0.157-0.036-0.113-0.097 0.274l-0.003 0.722c0.004 0.418-0.034 0.669-0.131 1.011l-0.171-0.519c-0.008-0.101 0.006-0.373 0.007-0.492 0.004-0.354 0.014-0.726-0.037-1.013l-0.005 2.219c0.591-0.061 0.437-0.196 0.436-0.963 0-0.413-0.002-0.826-0.001-1.239z"></path>
<path d="M14.876 15.221l0.246 0.015-0.089-0.191z"></path>
</svg>
