<!-- Generated by IcoMoon.io -->
<svg version="1.1" xmlns="http://www.w3.org/2000/svg" width="32" height="32" viewBox="0 0 32 32">
<title>cdmx-hemiciclo-a-juarez</title>
<path d="M29.596 23.42l0.538 0.004 1.015-0.013c-0.566-0.326-0.286 0.064-0.598-0.46-0.448-0.532 0.12 0.081-0.326-0.306l-0.172-0.753c0.581-0.937-0.903-0.759-1.537-0.656-0.001 0.504 0.078 0.893 0.178 1.193 0.215 0.34 0.133-0.372 0.144 0.458 0.001 0.062-0.052 0.243-0.066 0.512l0.824 0.022zM16.821 20.010l0.255-0.679-0.493 0.117c-0.025-0.017-0.066-0.135-0.080-0.104-0.174 0.405 0.011-0.199-0.392-0.527l-0.139 0.653-0.944 0.608c-0.319-0.547-0.392-0.628-1.211-0.833 0.581 1.24 0.556 1.346 1.059 1.566-0.46 1.626 0.305 1.448-0.616 2.693 0.073 0.334 0.113 0.45 0.219 0.738-0.296 0.524 0.094 0.041-0.255 0.335-0.268 0.873-0.148 0.226 0.15 0.465l2.952 0.004 0.494-0.167c-0.361-0.704-0.285-0.488-0.139-1.376-0.413-0.685-0.463-0.783-0.454-1.853 0.010-1.141-0.346-0.742-0.408-1.642zM3.659 26.316l0.337 0.348c-0.005 0.881 0.183 2.225-0.139 2.909-0.412-0.56-0.216-2.554-0.199-3.257zM5.026 29.964c-0.301-0.988-0.375-2.735 0.042-3.663 0.667-0.076 0.458-0.037 0.927 0.413l0.004 3.255-0.973-0.004zM5.703 23.953c-0.321 0.329 0.095 0.396 0.406 0.389 0.284-0.006 0.327-0.069 0.404-0.1 0.052-0.919 0.051-0.224-0.178-0.476-0.479 0.364-0.12 0.295-0.632 0.187zM3.841 23.364l-0.136 0.043c0.385 0.438 0.596 0.472 1.26 0.656 0.275-0.256 0.097 0.096 0.111-0.329l-0.428-0.559c-0.275 0.091-0.408 0.352-0.806 0.189zM1.196 24.011l0.017 0.686 1.364-0.073c0.696-0.163 0.251-0.083 0.466-0.197l-0.012-0.554-1.835 0.137zM30.831 24.095c-0.387-0.407 0.35-0.062-0.32-0.258l-1.616 0.037-0.019 0.738 1.553 0.042 0.31-0.456c0.017-0.023 0.060-0.069 0.091-0.103zM5.734 24.734l-2.393-0.926 0.015 0.805c0.714 0.39 1.583 0.648 2.434 0.655 0.333 0.3 0.097 0.176 0.774 0.267 2.341 0.252 5.049 0.676 7.393 0.496-0.116-0.836-0.501-0.619-1.421-0.636-1.798-0.034-4.423-0.25-6.11-0.606l-0.691-0.055zM17.826 25.303l-3.735-0.007c0.36 1.073 0.281 0.794 1.574 0.787 0.665-0.003 1.282 0.031 1.931-0.055l0.23-0.725zM6.882 24.196c-0.048 0.939 5.834 0.947 6.755 0.899l0.102-0.219c0.109-1.101-0.166-0.333-0.526-0.157l-1.504 0.050c-0.578-0.109-0.125 0.032-0.654-0.467-0.357 0.355-0.139 0.39-1.279 0.318-0.531-0.033-0.606 0.005-0.858-0.241l-0.261-0.352c-0.671 0.534 0.072 0.402-0.889 0.355-0.87-0.042-0.439-0.167-0.884-0.186zM0.852 23.234c0.232 0.282-0.022 0.152 0.425 0.241 0.176 0.035 0.549 0.013 0.739 0.001 0.376-0.026 0.779-0.073 1.106-0.154-0.079-0.633-0.297-0.615 0.177-1.183l0.080-0.852-1.616-0.080c0.176 0.979 0.336 1.168 0.046 1.395-0.469 0.366-0.301 0.039-0.53 0.669l-0.427-0.037zM0.943 29.732l-0.135 1.487 2.327 0.016-0.096-6.387-1.705 0.204-0.037 4.357-0.355 0.323zM18.196 24.881l2.944 0.212c-0.052 0.025-0.119 0.018-0.153 0.090-0.118 0.25-1.578 0.211-1.825 0.213-0.991 0.007-1.049-0.165-1.199 0.629 2.383 0.245 8.928-0.306 10.638-1.414l0.019-0.805c-2.445 0.86-4.374 1.393-7.336 1.457 0.049-0.035 0.113-0.151 0.146-0.104l0.69-0.222c1.533-0.238 3.855-0.34 5.574-1.072 1.038-0.442 0.373-0.282 0.278-0.36-0.643-0.258-0.007-0.122-0.682-0.306-0.592 1.447-1.808 0.496-1.845 0.479-0.208 0.365-0.018 0.504-1.086 0.656-1.233 0.175-0.283 0.166-1.128-0.301-0.751 1.168-0.64 0.171-1.845 0.695l-0.492-0.479c-0.46 0.581-0.94 0.737-1.935 0.541-0.931-0.184 0.196 0.033-0.71-0.366l-0.054 0.459zM31.158 31.191l0.012-1.229-0.5-0.558-0.021-4.384-1.734-0.149-0.132 6.353 2.375-0.033zM14.266 26.98c-0.070 0.786-0.019 1.474-0.035 2.251-0.022 1.059-0.326 0.885-0.23 1.933l3.903 0.064c-0.037-1.050-0.301-1.187-0.299-2.372 0.001-0.791 0.133-1.745-0.090-2.461-0.649-0.072-1.365-0.029-2.039-0.035-0.86-0.007-1.223-0.199-1.208 0.62zM11.373 30.166c-0.060-1.009-0.222-2.329 0.128-3.255 2.351-1.073 1.869 1.653 1.792 3.236l-1.921 0.019zM8.903 26.891c0.405-0.299 1.029-0.432 1.483-0.121 0.544 0.372 0.312 2.656 0.289 3.376l-1.785-0.070 0.013-3.185zM6.81 26.654c1.913-0.94 1.499 2.031 1.369 3.389-1.373 0.156-1.484 0.213-1.477-0.99 0.004-0.763-0.112-1.7 0.108-2.399zM13.834 31.178l0.014-4.053 0.007-0.733c-1.904-0.156-3.793-0.123-5.729-0.333-1.91-0.208-3.053-0.585-4.807-0.98l0.081 6.145 10.433-0.045zM23.736 26.764c0.693-0.412 1.464-0.589 1.512 0.6 0.032 0.77 0.056 1.943-0.096 2.672l-1.391 0.067-0.026-3.339zM21.268 30.092c-0.045-1.116-0.249-2.476 0.332-3.413 1.159-0.133 1.467-0.184 1.481 1.058 0.008 0.779 0.025 1.586-0.069 2.369l-1.744-0.015zM18.641 30.114c-0.064-1.673-0.61-4.095 1.782-3.233 0.336 0.696 0.177 2.223 0.151 3.25l-1.933-0.017zM25.971 26.605c0.862-0.543 1.129-0.564 1.118 0.766-0.007 0.842 0.027 1.697-0.053 2.54l-1.103 0.104 0.037-3.41zM18.063 26.406c-0.044 0.156 0.090 3.974 0.073 4.824l10.415-0.077 0.045-6.074c-0.812 0.146-1.575 0.446-2.444 0.606-3.587 0.661-5.895 0.382-8.089 0.72z"></path>
</svg>
