<!-- Generated by IcoMoon.io -->
<svg version="1.1" xmlns="http://www.w3.org/2000/svg" width="32" height="32" viewBox="0 0 32 32">
<title>celular-en-mano-tomar-foto</title>
<path fill="#3e4095" d="M24.011 22.832l0.336-1.776c0.205-1.703 0.32-3.068-0.44-4.644-0.767-1.589-0.203-3.738-0.708-4.716-0.252-0.488-0.943-0.723-1.496-0.418-0.433 0.239-0.8 0.728-1.1 1.088-0.013-2.287 0.009-4.574 0-6.86-0.002-0.542-0.219-0.915-0.541-1.175-0.405-0.328-0.762-0.312-1.401-0.312h-6.861c-1.243-0.002-1.645 0.683-1.645 1.829l0.009 6.862 1.101 0.941 0.009-7.099 8.198-0.004 0.012 13.986-8.037 0.004c0.075 0.171 0.101 0.153 0.169 0.282 0.278 0.529-0.072 1.207-0.454 1.488-0.216 0.159-0.387 0.177-0.558 0.285 0.447 0.398 0.691 0.414 1.423 0.414 1.104-0.001 6.956 0.045 7.39-0.026 0.231-0.038 0.482-0.155 0.625-0.282 0.723-0.647 0.56-1.128 0.56-2.253-0.001-0.233 0.028-1.725 0.001-1.795 0.167 2.17 0.887 4.866-1.677 4.865-2.312-0.001-4.621 0.001-6.933 0.001 0.073 0.509 1.010 1.622 1.384 2.023 1.035 1.113 1.953 2.496 2.097 4.116 0.043 0.482-0.021 0.953 0.011 1.39l8.965 0.002c0-0.065-0.388-1.222-0.468-1.631-0.053-0.271-0.146-0.592-0.196-0.866-0.056-0.301-0.079-0.644-0.124-0.941-0.234-1.527 0.224-3.809 0.183-4.009 0.006-0.009 0.010-0.035 0.012-0.030s0.009-0.023 0.011-0.030l0.143-0.707zM15.248 21.069c-0.274 0.057-0.361 0.111-0.511 0.301-0.424 0.535 0.009 1.423 0.845 1.267 0.937-0.174 0.742-1.788-0.334-1.568zM14.227 5.687l2.35-0.001c0.286 0 0.326-0.109 0.25-0.354-0.319-0.117-1.387-0.049-1.804-0.049-0.209 0-0.774-0.027-0.943 0.005-0.235 0.046-0.338 0.398 0.147 0.398zM14.744 21.567c0.345-0.029 0.587-0.058 0.723 0.251 0.059 0.132 0.055 0.304-0.008 0.428-0.104 0.208-0.206 0.121-0.171 0.273 0.549 0.062 0.987-0.51 0.688-1.022-0.2-0.342-0.709-0.452-1.009-0.198-0.078 0.066-0.174 0.192-0.223 0.269zM14.744 21.567c-0.055 0.217-0.065 0.461 0.061 0.649 0.093 0.14 0.249 0.282 0.483 0.302-0.035-0.151 0.067-0.064 0.171-0.273 0.063-0.124 0.067-0.296 0.008-0.428-0.136-0.309-0.379-0.28-0.723-0.251z"></path>
<path fill="#3e4095" d="M9.111 12.884c-0.937 0.118-1.155 1.268-0.562 1.829l0.804 0.708c0.102 0.085 0.151 0.129 0.265 0.231 0.17 0.151 0.35 0.305 0.547 0.475 0.376 0.326 0.695 0.747 1.411 0.648 0.514-0.070 0.885-0.559 0.822-1.181-0.057-0.561-0.68-0.96-1.141-1.357l-0.808-0.707c-0.341-0.306-0.68-0.73-1.337-0.647z"></path>
<path fill="#3e4095" d="M8.668 16.197c-0.832 0.444-0.802 1.278-0.172 1.789l1.439 1.253c0.006 0.005 0.014 0.013 0.019 0.018 0.326 0.299 0.755 0.74 1.388 0.503 0.6-0.224 0.968-1.043 0.198-1.746l-1.253-1.098c-0.097-0.078-0.17-0.144-0.263-0.228-0.297-0.266-0.851-0.759-1.356-0.49z"></path>
<path fill="#3e4095" d="M8.843 19.252c-0.365 0.073-0.682 0.377-0.717 0.774-0.047 0.537 0.266 0.677 0.563 0.951 0.262 0.242 0.558 0.479 0.809 0.71 0.254 0.234 0.539 0.559 1.046 0.455 0.344-0.070 0.652-0.401 0.685-0.789 0.041-0.476-0.329-0.716-0.582-0.931-0.277-0.234-0.53-0.483-0.807-0.707-0.269-0.218-0.516-0.558-0.996-0.462z"></path>
<path fill="#3e4095" d="M9.65 12.195c0.009-0.953-0.007-1.908 0.003-2.86 0.003-0.322 0.018-0.371-0.208-0.527-0.856-0.59-2.071 0.014-1.936 1.173 0.049 0.416 0.308 0.656 0.573 0.874 0.071 0.059 0.119 0.115 0.177 0.165l0.588 0.511c0.135 0.123 0.235 0.204 0.385 0.334l0.417 0.329z"></path>
<path fill="#3e4095" d="M18.501 2.072c-0.498-0.238-0.634-0.487-1.206-0.766l-0.425 2.047c1.112 0.093 0.513-0.137 0.988-0.853 0.453 0.211 0.333 0.333 0.908 0.527 0.136-0.375 0.196-0.564 0.467-0.786l0.487 0.747c0.478-0.179 0.499-0.319 0.892-0.529l0.139 0.991 1.002-0.218-0.233 1.026 0.715 0.097c0.419 0.13 0.107 0.023 0.251 0.117-0.231 0.364-0.344 0.356-0.489 0.75l0.775 0.48-0.353 0.335c-0.278 0.21-0.107-0.049-0.42 0.31 0.168 0.338 0.31 0.417 0.501 0.75-0.715 0.565-0.891-0.211-0.918 0.932l2.101-0.357c-0.187-0.423-0.516-0.774-0.767-1.153 0.345-0.241 0.762-0.475 1.157-0.711l-1.164-0.758c0.206-0.403 0.534-0.742 0.778-1.153l-1.342-0.187 0.32-1.37-1.384 0.306-0.178-1.355c-0.352 0.165-0.849 0.563-1.12 0.761l-0.726-1.099-0.4 0.52c-0.134 0.216-0.255 0.44-0.356 0.598z"></path>
</svg>
