<!-- Generated by IcoMoon.io -->
<svg version="1.1" xmlns="http://www.w3.org/2000/svg" width="32" height="32" viewBox="0 0 32 32">
<title>cgt-9vo-aniversario-xiiber-curvas</title>
<path fill="#000" d="M12.589 3.708c0 0.82 0.070 1.352 0.222 2.076l0.392 1.176c0.073 0.167 0.131 0.225 0.172 0.403-0.537 0.283-0.629 0.218-1.28 0.708-1.216 0.916-2.123 2.364-2.123 3.939v0.574c0 1.908 1.381 3.683 2.861 4.404 0.911 0.444 2.186 0.631 3.214 0.452 0.199-0.035 0.334-0.090 0.523-0.106 0 2.787 0.212 3.020-2.882 2.974-0.346-0.005-0.522-0.035-0.522 0.315v3.185c0 0.16 0.048 0.313 0.209 0.313h1.979c1.332-0.049 2.29-0.326 3.611-1.632 0.819-0.809 1.427-2.079 1.427-3.693v-6.369c0-1.392-0.495-2.776-1.374-3.642-0.213-0.21-0.656-0.723-0.93-0.796 0.061-0.082 0.369-0.341 0.484-0.456 1.425-1.421 0.449-1.153 2.518-2.188 0.548-0.274 0.872-0.443 0.872-1.114 0-0.681-1.070-0.982-1.685-1.039s-1.646 0.275-2.208 0.551c-0.667 0.329-0.963 0.775-1.334 1.385-0.206 0.338-0.758 1.532-0.795 1.975h-0.157c0.044-0.531 0.157-1.080 0.157-1.671 0-1.196-0.451-2.728-1.036-3.665-0.252-0.404-0.557-0.624-0.861-0.668h-0.225c-0.645 0.093-1.229 0.988-1.229 2.61z"></path>
<path fill="#2c2b30" d="M13.55 10.352h2.952c3.546 0 6.42 3.535 6.42 7.896v-0.001c0 4.361-2.874 7.896-6.42 7.896h-2.952c-3.546 0-6.42-3.535-6.42-7.896v0.001c0-4.361 2.874-7.896 6.42-7.896z"></path>
<path fill="#3f2e64" d="M13.591 10.751h2.808c3.372 0 6.106 3.269 6.106 7.302s-2.734 7.302-6.106 7.302h-2.808c-3.373 0-6.106-3.269-6.106-7.302s2.734-7.302 6.106-7.302z"></path>
<path fill="#3f2e64" d="M8.346 27.445v1.834h-0.237v-0.363c-0.074 0.123-0.172 0.217-0.294 0.282s-0.26 0.097-0.413 0.097c-0.172 0-0.328-0.039-0.467-0.118s-0.249-0.19-0.328-0.332c-0.079-0.141-0.119-0.303-0.119-0.484s0.040-0.343 0.119-0.484c0.079-0.142 0.188-0.252 0.328-0.33s0.295-0.117 0.467-0.117c0.149 0 0.283 0.030 0.403 0.092 0.12 0.062 0.218 0.152 0.295 0.27v-0.349h0.247zM7.422 29.078c0.128 0 0.243-0.030 0.347-0.089s0.185-0.144 0.243-0.253c0.060-0.109 0.089-0.234 0.089-0.373s-0.030-0.264-0.089-0.373c-0.058-0.109-0.14-0.194-0.243-0.253s-0.219-0.089-0.347-0.089c-0.13 0-0.247 0.029-0.35 0.089s-0.185 0.144-0.244 0.253c-0.060 0.109-0.089 0.233-0.089 0.373s0.030 0.264 0.089 0.373c0.059 0.109 0.14 0.193 0.244 0.253s0.22 0.089 0.35 0.089zM9.811 27.432c0.23 0 0.413 0.067 0.549 0.2s0.204 0.329 0.204 0.584v1.063h-0.247v-1.039c0-0.191-0.048-0.336-0.143-0.435s-0.231-0.151-0.408-0.151c-0.198 0-0.353 0.059-0.469 0.177-0.115 0.117-0.172 0.279-0.172 0.486v0.963h-0.247v-1.834h0.237v0.338c0.067-0.111 0.161-0.198 0.28-0.26 0.12-0.062 0.259-0.092 0.417-0.092zM11.076 27.445h0.247v1.834h-0.247v-1.834zM11.201 27.045c-0.052 0-0.094-0.017-0.129-0.052s-0.053-0.077-0.053-0.125c0-0.046 0.018-0.088 0.053-0.122s0.077-0.053 0.129-0.053c0.051 0 0.095 0.017 0.129 0.051s0.053 0.074 0.053 0.12c0 0.051-0.018 0.094-0.053 0.129s-0.078 0.052-0.129 0.052zM13.394 27.445l-0.816 1.834h-0.255l-0.812-1.834h0.258l0.687 1.562 0.694-1.562h0.244zM14.313 29.078c0.114 0 0.219-0.021 0.316-0.061s0.178-0.1 0.246-0.179l0.139 0.16c-0.081 0.097-0.182 0.172-0.304 0.223-0.12 0.051-0.254 0.077-0.401 0.077-0.188 0-0.355-0.040-0.502-0.12-0.146-0.081-0.26-0.192-0.341-0.333s-0.122-0.302-0.122-0.481c0-0.179 0.039-0.34 0.116-0.481s0.186-0.253 0.323-0.332c0.137-0.079 0.293-0.119 0.467-0.119 0.163 0 0.31 0.037 0.442 0.111 0.131 0.075 0.236 0.179 0.314 0.311s0.119 0.283 0.124 0.454l-1.506 0.293c0.046 0.148 0.131 0.266 0.253 0.35 0.121 0.085 0.267 0.128 0.437 0.128zM14.25 27.645c-0.128 0-0.242 0.030-0.343 0.088-0.101 0.060-0.18 0.142-0.237 0.248s-0.085 0.227-0.085 0.364c0 0.035 0.001 0.061 0.003 0.077l1.294-0.251c-0.028-0.153-0.099-0.28-0.212-0.379s-0.254-0.148-0.419-0.148zM15.711 27.805c0.058-0.124 0.145-0.216 0.26-0.279s0.257-0.094 0.427-0.094v0.241l-0.060-0.004c-0.193 0-0.344 0.059-0.453 0.178s-0.164 0.285-0.164 0.498v0.935h-0.247v-1.834h0.237v0.36zM17.189 29.297c-0.149 0-0.291-0.021-0.427-0.064s-0.242-0.097-0.319-0.162l0.112-0.196c0.077 0.061 0.173 0.11 0.289 0.149 0.116 0.038 0.237 0.057 0.363 0.057 0.167 0 0.291-0.026 0.371-0.078s0.121-0.126 0.121-0.221c0-0.068-0.022-0.121-0.066-0.159-0.044-0.039-0.1-0.068-0.168-0.088s-0.157-0.038-0.269-0.058c-0.148-0.027-0.268-0.056-0.358-0.085s-0.168-0.078-0.232-0.148c-0.064-0.070-0.096-0.167-0.096-0.29 0-0.153 0.064-0.279 0.192-0.376s0.306-0.147 0.534-0.147c0.119 0 0.237 0.015 0.356 0.047s0.216 0.073 0.293 0.124l-0.108 0.199c-0.152-0.105-0.332-0.157-0.541-0.157-0.158 0-0.278 0.028-0.358 0.083-0.080 0.056-0.12 0.129-0.12 0.22 0 0.070 0.022 0.125 0.068 0.168 0.046 0.041 0.102 0.072 0.169 0.092 0.068 0.021 0.161 0.041 0.279 0.061 0.146 0.028 0.264 0.056 0.352 0.084 0.089 0.028 0.164 0.076 0.227 0.144 0.062 0.067 0.094 0.16 0.094 0.278 0 0.16-0.067 0.287-0.2 0.382s-0.319 0.141-0.556 0.141zM19.915 27.445v1.834h-0.237v-0.363c-0.074 0.123-0.172 0.217-0.294 0.282s-0.26 0.097-0.413 0.097c-0.172 0-0.328-0.039-0.468-0.118s-0.248-0.19-0.327-0.332c-0.079-0.141-0.119-0.303-0.119-0.484s0.040-0.343 0.119-0.484c0.079-0.142 0.187-0.252 0.327-0.33s0.296-0.117 0.468-0.117c0.148 0 0.283 0.030 0.402 0.092 0.12 0.062 0.218 0.152 0.295 0.27v-0.349h0.247zM18.992 29.078c0.128 0 0.243-0.030 0.347-0.089s0.185-0.144 0.244-0.253c0.059-0.109 0.089-0.234 0.089-0.373s-0.030-0.264-0.089-0.373c-0.059-0.109-0.141-0.194-0.244-0.253s-0.219-0.089-0.347-0.089c-0.13 0-0.247 0.029-0.35 0.089s-0.185 0.144-0.244 0.253c-0.060 0.109-0.089 0.233-0.089 0.373s0.029 0.264 0.089 0.373c0.059 0.109 0.14 0.193 0.244 0.253s0.22 0.089 0.35 0.089zM20.682 27.805c0.058-0.124 0.145-0.216 0.259-0.279s0.258-0.094 0.427-0.094v0.241l-0.060-0.004c-0.192 0-0.344 0.059-0.452 0.178s-0.164 0.285-0.164 0.498v0.935h-0.247v-1.834h0.237v0.36zM21.654 27.445h0.247v1.834h-0.247v-1.834zM21.78 27.045c-0.052 0-0.095-0.017-0.129-0.052-0.035-0.035-0.053-0.077-0.053-0.125 0-0.046 0.017-0.088 0.053-0.122 0.034-0.035 0.077-0.053 0.129-0.053s0.094 0.017 0.129 0.051c0.035 0.033 0.052 0.074 0.052 0.12 0 0.051-0.017 0.094-0.052 0.129s-0.078 0.052-0.129 0.052zM23.181 29.297c-0.176 0-0.336-0.040-0.478-0.12s-0.253-0.192-0.334-0.333-0.123-0.302-0.123-0.481c0-0.179 0.041-0.34 0.123-0.481s0.192-0.253 0.334-0.332 0.301-0.119 0.478-0.119c0.176 0 0.336 0.040 0.478 0.119s0.253 0.19 0.333 0.332c0.080 0.141 0.121 0.302 0.121 0.481s-0.041 0.34-0.121 0.481-0.191 0.253-0.333 0.333c-0.142 0.080-0.301 0.12-0.478 0.12zM23.181 29.078c0.13 0 0.247-0.030 0.35-0.089s0.184-0.144 0.242-0.253c0.058-0.109 0.087-0.234 0.087-0.373s-0.029-0.264-0.087-0.373c-0.058-0.109-0.139-0.194-0.242-0.253s-0.22-0.089-0.35-0.089-0.247 0.029-0.35 0.089c-0.104 0.059-0.185 0.144-0.244 0.253s-0.089 0.233-0.089 0.373c0 0.139 0.030 0.264 0.089 0.373s0.14 0.193 0.244 0.253c0.103 0.059 0.22 0.089 0.35 0.089z"></path>
<path fill="#201e1e" d="M12.395 29.863c0.062 0 0.117 0.008 0.164 0.023s0.089 0.037 0.123 0.065c0.033 0.027 0.059 0.058 0.077 0.096 0.017 0.037 0.026 0.076 0.026 0.119 0 0.113-0.065 0.222-0.194 0.325l-0.214 0.171h0.391c0.007 0.011 0.013 0.027 0.019 0.045s0.009 0.039 0.009 0.061c0 0.038-0.008 0.066-0.026 0.084s-0.040 0.025-0.068 0.025h-0.565c-0.024-0.017-0.042-0.037-0.056-0.063s-0.020-0.056-0.020-0.090c0-0.037 0.007-0.068 0.022-0.094s0.032-0.045 0.050-0.061l0.225-0.192c0.028-0.023 0.052-0.046 0.069-0.065s0.034-0.036 0.045-0.051c0.012-0.015 0.020-0.029 0.025-0.042 0.005-0.014 0.007-0.026 0.007-0.038 0-0.030-0.013-0.054-0.040-0.072s-0.060-0.026-0.099-0.026c-0.043 0-0.081 0.006-0.116 0.020s-0.063 0.028-0.086 0.043c-0.018-0.013-0.034-0.029-0.045-0.049s-0.018-0.042-0.018-0.068c0-0.057 0.027-0.099 0.080-0.127s0.125-0.041 0.215-0.041zM13.504 30.382c0-0.095-0.014-0.169-0.042-0.221s-0.067-0.078-0.118-0.078-0.090 0.026-0.116 0.078c-0.026 0.052-0.040 0.126-0.040 0.221s0.014 0.169 0.040 0.222 0.065 0.079 0.116 0.079c0.051 0 0.090-0.026 0.118-0.079s0.042-0.127 0.042-0.222zM13.781 30.382c0 0.084-0.010 0.158-0.033 0.223s-0.052 0.12-0.090 0.164c-0.039 0.044-0.085 0.077-0.139 0.1s-0.112 0.034-0.175 0.034c-0.064 0-0.123-0.011-0.177-0.034s-0.1-0.056-0.138-0.1-0.068-0.099-0.089-0.164c-0.021-0.065-0.031-0.139-0.031-0.223s0.010-0.157 0.031-0.222c0.021-0.065 0.051-0.119 0.089-0.163s0.085-0.077 0.138-0.1c0.054-0.023 0.113-0.034 0.177-0.034 0.063 0 0.121 0.011 0.175 0.034s0.1 0.056 0.139 0.1c0.038 0.044 0.068 0.099 0.090 0.163s0.033 0.139 0.033 0.222zM14.075 30.151l-0.163 0.050c-0.016-0.011-0.033-0.026-0.049-0.046s-0.025-0.046-0.025-0.081c0-0.065 0.040-0.111 0.119-0.136l0.183-0.062h0.060c0.047 0 0.084 0.013 0.111 0.041s0.041 0.064 0.041 0.111v0.848c-0.012 0.002-0.030 0.005-0.053 0.009s-0.048 0.005-0.071 0.005c-0.024 0-0.045-0.002-0.064-0.004-0.019-0.003-0.035-0.010-0.048-0.020s-0.023-0.023-0.030-0.040c-0.007-0.017-0.011-0.040-0.011-0.066v-0.608zM14.87 29.863c0.062 0 0.117 0.008 0.164 0.023s0.089 0.037 0.122 0.065c0.034 0.027 0.060 0.058 0.077 0.096s0.026 0.076 0.026 0.119c0 0.113-0.064 0.222-0.193 0.325l-0.214 0.171h0.391c0.007 0.011 0.013 0.027 0.018 0.045 0.006 0.019 0.009 0.039 0.009 0.061 0 0.038-0.009 0.066-0.026 0.084s-0.041 0.025-0.068 0.025h-0.565c-0.024-0.017-0.043-0.037-0.056-0.063s-0.020-0.056-0.020-0.090c0-0.037 0.007-0.068 0.022-0.094s0.032-0.045 0.050-0.061l0.225-0.192c0.028-0.023 0.052-0.046 0.070-0.065s0.034-0.036 0.045-0.051c0.012-0.015 0.019-0.029 0.025-0.042 0.005-0.014 0.007-0.026 0.007-0.038 0-0.030-0.014-0.054-0.040-0.072s-0.059-0.026-0.098-0.026c-0.043 0-0.082 0.006-0.116 0.020s-0.063 0.028-0.086 0.043c-0.019-0.013-0.034-0.029-0.045-0.049s-0.018-0.042-0.018-0.068c0-0.057 0.027-0.099 0.080-0.127s0.125-0.041 0.215-0.041zM15.383 30.574c-0.007-0.011-0.015-0.027-0.021-0.047s-0.010-0.040-0.010-0.062c0-0.040 0.010-0.069 0.027-0.086 0.018-0.018 0.042-0.027 0.072-0.027h0.348c0.007 0.011 0.014 0.027 0.020 0.047 0.007 0.019 0.011 0.040 0.011 0.062 0 0.040-0.009 0.069-0.027 0.086s-0.042 0.027-0.072 0.027h-0.348zM16.27 29.863c0.062 0 0.117 0.008 0.164 0.023s0.089 0.037 0.123 0.065c0.033 0.027 0.059 0.058 0.077 0.096 0.017 0.037 0.026 0.076 0.026 0.119 0 0.113-0.065 0.222-0.194 0.325l-0.214 0.171h0.391c0.007 0.011 0.013 0.027 0.019 0.045s0.009 0.039 0.009 0.061c0 0.038-0.008 0.066-0.026 0.084s-0.040 0.025-0.068 0.025h-0.565c-0.024-0.017-0.042-0.037-0.056-0.063s-0.020-0.056-0.020-0.090c0-0.037 0.007-0.068 0.022-0.094s0.032-0.045 0.050-0.061l0.225-0.192c0.028-0.023 0.052-0.046 0.069-0.065s0.034-0.036 0.045-0.051c0.012-0.015 0.020-0.029 0.025-0.042 0.005-0.014 0.007-0.026 0.007-0.038 0-0.030-0.013-0.054-0.040-0.072s-0.060-0.026-0.099-0.026c-0.043 0-0.081 0.006-0.116 0.020s-0.063 0.028-0.086 0.043c-0.018-0.013-0.034-0.029-0.045-0.049s-0.018-0.042-0.018-0.068c0-0.057 0.027-0.099 0.080-0.127s0.125-0.041 0.215-0.041zM17.379 30.382c0-0.095-0.014-0.169-0.042-0.221s-0.067-0.078-0.118-0.078-0.090 0.026-0.116 0.078c-0.026 0.052-0.040 0.126-0.040 0.221s0.014 0.169 0.040 0.222 0.065 0.079 0.116 0.079c0.051 0 0.090-0.026 0.118-0.079s0.042-0.127 0.042-0.222zM17.657 30.382c0 0.084-0.011 0.158-0.033 0.223s-0.052 0.12-0.090 0.164c-0.039 0.044-0.085 0.077-0.139 0.1s-0.112 0.034-0.175 0.034c-0.064 0-0.123-0.011-0.177-0.034s-0.1-0.056-0.138-0.1-0.068-0.099-0.089-0.164c-0.021-0.065-0.032-0.139-0.032-0.223s0.010-0.157 0.032-0.222c0.021-0.065 0.051-0.119 0.089-0.163s0.085-0.077 0.138-0.1c0.054-0.023 0.113-0.034 0.177-0.034 0.063 0 0.121 0.011 0.175 0.034s0.1 0.056 0.139 0.1c0.038 0.044 0.068 0.099 0.090 0.163s0.033 0.139 0.033 0.222zM18.081 29.863c0.062 0 0.117 0.008 0.164 0.023s0.089 0.037 0.122 0.065c0.034 0.027 0.060 0.058 0.077 0.096s0.026 0.076 0.026 0.119c0 0.113-0.064 0.222-0.193 0.325l-0.214 0.171h0.391c0.007 0.011 0.013 0.027 0.018 0.045 0.006 0.019 0.009 0.039 0.009 0.061 0 0.038-0.009 0.066-0.026 0.084s-0.040 0.025-0.068 0.025h-0.565c-0.024-0.017-0.043-0.037-0.056-0.063s-0.020-0.056-0.020-0.090c0-0.037 0.007-0.068 0.022-0.094s0.032-0.045 0.050-0.061l0.224-0.192c0.028-0.023 0.052-0.046 0.070-0.065s0.034-0.036 0.045-0.051c0.012-0.015 0.019-0.029 0.025-0.042 0.005-0.014 0.007-0.026 0.007-0.038 0-0.030-0.014-0.054-0.040-0.072s-0.059-0.026-0.099-0.026c-0.043 0-0.082 0.006-0.116 0.020s-0.063 0.028-0.086 0.043c-0.018-0.013-0.034-0.029-0.045-0.049s-0.018-0.042-0.018-0.068c0-0.057 0.027-0.099 0.080-0.127s0.125-0.041 0.215-0.041zM18.791 30.151l-0.163 0.050c-0.016-0.011-0.032-0.026-0.049-0.046s-0.025-0.046-0.025-0.081c0-0.065 0.040-0.111 0.119-0.136l0.182-0.062h0.060c0.046 0 0.084 0.013 0.111 0.041s0.041 0.064 0.041 0.111v0.848c-0.012 0.002-0.030 0.005-0.053 0.009s-0.047 0.005-0.070 0.005c-0.024 0-0.046-0.002-0.065-0.004-0.019-0.003-0.035-0.010-0.048-0.020s-0.023-0.023-0.030-0.040c-0.007-0.017-0.011-0.040-0.011-0.066v-0.608z"></path>
<path fill="#000" d="M26.448 16.204c-0.415-0.277-0.403-0.345-0.689 0.043-0.227 0.309-0.38 0.287-0.648 0.712-0.093 0.149-0.061 0.173-0.193 0.278-0.003 0.002-0.077 0.048-0.096 0.061-0.377 0.264-0.316 0.509-0.593 0.662-0.13 0.072-0.133 0.013-0.358 0.27-0.092 0.104-0.213 0.246-0.249 0.379-0.285-0.076-0.269-0.276-0.609-0.034-0.153 0.109-0.282 0.35-0.385 0.505-0.118-0.032-0.345-0.325-0.798 0.196-0.69 0.794-0.667 1.191-0.667 2.156-0.562 0.15-1.511 1.386-1.622 2.138v0.254c0.038 0.199 0.18 0.325 0.471 0.325 0.23 0 0.296-0.371 0.344-0.597 0.186-0.892 0.807-1.241 1.278-1.649 0.336 0.224 0.616 0.522 1.36 0.522 0.61 0 1.376-0.187 0.628-0.836 0.408 0.009 1.126 0.010 1.388-0.337 0.311-0.411 0.251-0.305 0.182-0.603 0.88-0.073 0.907-0.834 1.217-1.031 0.223-0.141 0.53-0.435 0.573-0.719l0.363-0.541c0.484-0.598 0.122-0.431 0.247-0.698 0.101-0.216 0.477-0.434 0.477-0.826 0-0.287-0.388-0.209-0.68-0.209 0.135-0.507 0.549-0.68 0.366-1.463-0.138-0.033-0.1-0.052-0.204-0.052h-0.005c-0.447 0-0.927 0.774-1.099 1.097z"></path>
<path fill="#000" d="M5.551 16.498c0.415-0.277 0.403-0.345 0.689 0.043 0.228 0.309 0.381 0.287 0.648 0.712 0.094 0.149 0.061 0.174 0.193 0.278 0.003 0.002 0.078 0.048 0.096 0.061 0.377 0.264 0.316 0.509 0.593 0.662 0.129 0.072 0.133 0.013 0.358 0.27 0.091 0.104 0.213 0.246 0.249 0.379 0.285-0.076 0.269-0.276 0.608-0.034 0.154 0.109 0.283 0.351 0.386 0.505 0.117-0.032 0.345-0.325 0.798 0.196 0.69 0.794 0.667 1.191 0.667 2.156 0.562 0.149 1.511 1.385 1.622 2.138v0.255c-0.038 0.198-0.18 0.325-0.471 0.325-0.23 0-0.296-0.371-0.344-0.598-0.186-0.892-0.807-1.24-1.278-1.649-0.336 0.225-0.616 0.522-1.361 0.522-0.61 0-1.376-0.186-0.628-0.836-0.408 0.009-1.126 0.010-1.389-0.337-0.31-0.411-0.25-0.305-0.181-0.603-0.88-0.073-0.907-0.834-1.218-1.031-0.222-0.141-0.529-0.435-0.573-0.719l-0.364-0.54c-0.484-0.598-0.121-0.432-0.247-0.699-0.101-0.215-0.477-0.433-0.477-0.826 0-0.286 0.388-0.209 0.68-0.209-0.136-0.507-0.549-0.68-0.367-1.463 0.138-0.033 0.1-0.052 0.204-0.052h0.005c0.447 0 0.927 0.774 1.098 1.097z"></path>
<path fill="#fefefe" d="M26.339 16.856c0.042 0.178 0.011 0.442-0.083 0.6-0.111 0.187 0.028 0.047-0.166 0.153-0.113-0.317-0.291-0.773-0.126-1.079 0.155 0.058 0.112 0.085 0.241 0.157 0.127 0.073 0.016-0.025 0.133 0.169zM27.258 18.16c-0.194 0.314-1.050 0.657-1.42 0.356 0.232-0.379 0.994-0.541 1.317-0.415 0.084 0.033 0.047 0.015 0.103 0.060zM25.471 18.456c-0.348-0.369-0.251-1.246 0.082-1.455 0.258 0.327 0.275 1.161-0.082 1.455zM26.625 17.101c-0.051-0.574 0.372-1.295 0.808-1.482 0.023 0.647-0.375 1.206-0.808 1.482zM24.697 19.297c-0.14-0.291-0.175-0.64-0.113-0.938 0.047-0.227 0.153-0.565 0.353-0.61 0.285 0.665 0.049 1.437-0.241 1.549zM26.639 19.099c-0.106 0.423-1.177 0.547-1.52 0.317 0.101-0.214 0.443-0.34 0.674-0.39 0.298-0.064 0.604-0.044 0.846 0.073zM23.751 20.118c-0.073-0.392-0.119-0.609-0.006-0.975 0.076-0.253 0.24-0.576 0.442-0.661 0.234 0.636-0.007 1.426-0.435 1.636zM25.871 20.065c-0.235 0.365-1.362 0.534-1.657 0.174 0.294-0.349 1.050-0.446 1.484-0.278 0.147 0.057 0.090 0.032 0.173 0.104zM24.876 21.13c-0.317 0.118-0.669 0.242-1.040 0.193-0.314-0.041-0.645-0.131-0.763-0.344 0.572-0.274 1.532-0.317 1.803 0.151zM22.802 20.692c-0.311-0.628 0.061-1.633 0.404-1.698 0.119 0.321 0.128 0.695 0.057 0.994-0.036 0.152-0.105 0.276-0.166 0.403-0.086 0.182-0.096 0.258-0.296 0.302zM23.761 22.046c-0.982 0.281-1.825-0.17-1.818-0.438 0.298-0.153 0.758-0.136 1.063-0.051 0.314 0.085 0.648 0.207 0.754 0.489zM21.553 21.341c-0.068-0.464-0.053-0.822 0.107-1.16 0.095-0.202 0.314-0.628 0.572-0.681 0.325 0.656-0.238 1.64-0.679 1.841zM27.806 17.256c-0.193 0.314-1.050 0.656-1.42 0.355 0.233-0.379 0.994-0.541 1.317-0.415 0.084 0.033 0.047 0.015 0.103 0.060zM21.12 21.735c0.001 0 0.75-0.558 0.925-0.663 0.759-0.459 1.109-0.456 2.114-1.159 0.259-0.181 0.66-0.569 0.871-0.665-0.326 0.657-2.266 1.565-2.852 1.919-0.345 0.209-0.631 0.503-0.893 0.651l-0.159 0.219c-0.773 1.053-0.412 0.936-0.686 1.495-0.234-0.053-0.19-0.099-0.129-0.365 0.041-0.184 0.080-0.289 0.157-0.46 0.129-0.286 0.29-0.555 0.505-0.731l0.148-0.241z"></path>
<path fill="#fefefe" d="M5.661 17.149c-0.042 0.178-0.012 0.442 0.083 0.6 0.111 0.187-0.028 0.047 0.165 0.154 0.112-0.317 0.292-0.774 0.126-1.080-0.155 0.058-0.112 0.085-0.241 0.157-0.127 0.073-0.016-0.025-0.133 0.169zM4.742 18.453c0.193 0.314 1.050 0.657 1.42 0.356-0.232-0.379-0.994-0.542-1.317-0.416-0.084 0.033-0.047 0.015-0.103 0.060zM6.529 18.749c0.348-0.369 0.251-1.246-0.082-1.455-0.258 0.326-0.274 1.16 0.082 1.455zM5.375 17.394c0.051-0.574-0.372-1.295-0.809-1.481-0.022 0.647 0.375 1.205 0.809 1.481zM7.302 19.591c0.14-0.291 0.176-0.64 0.113-0.938-0.047-0.227-0.153-0.564-0.354-0.61-0.284 0.665-0.049 1.437 0.241 1.549zM5.36 19.393c0.106 0.423 1.178 0.547 1.52 0.317-0.101-0.214-0.443-0.34-0.675-0.391-0.298-0.064-0.604-0.044-0.846 0.073zM8.249 20.411c0.074-0.392 0.119-0.609 0.006-0.975-0.076-0.253-0.24-0.575-0.441-0.661-0.234 0.636 0.007 1.426 0.435 1.636zM6.129 20.358c0.235 0.365 1.362 0.534 1.657 0.175-0.294-0.349-1.050-0.447-1.484-0.279-0.148 0.057-0.090 0.032-0.174 0.104zM7.124 21.423c0.317 0.119 0.669 0.242 1.040 0.193 0.314-0.041 0.645-0.131 0.763-0.344-0.572-0.274-1.532-0.317-1.803 0.151zM9.198 20.986c0.311-0.628-0.061-1.634-0.404-1.698-0.12 0.321-0.128 0.695-0.058 0.993 0.037 0.152 0.105 0.277 0.166 0.403 0.086 0.182 0.096 0.258 0.296 0.302zM8.239 22.34c0.982 0.281 1.825-0.171 1.817-0.439-0.297-0.153-0.757-0.136-1.063-0.051-0.314 0.085-0.648 0.207-0.754 0.49zM10.447 21.634c0.067-0.464 0.053-0.822-0.107-1.16-0.096-0.202-0.314-0.628-0.572-0.681-0.325 0.656 0.238 1.64 0.679 1.841zM4.194 17.55c0.194 0.314 1.051 0.656 1.421 0.356-0.232-0.379-0.994-0.542-1.318-0.416-0.083 0.033-0.047 0.015-0.103 0.060zM10.88 22.029c-0.001 0-0.75-0.558-0.925-0.663-0.759-0.459-1.109-0.456-2.113-1.159-0.259-0.18-0.66-0.569-0.871-0.665 0.325 0.657 2.265 1.565 2.852 1.92 0.345 0.208 0.631 0.503 0.894 0.651l0.159 0.219c0.772 1.053 0.412 0.937 0.686 1.496 0.234-0.053 0.19-0.1 0.129-0.365-0.041-0.184-0.080-0.289-0.157-0.46-0.129-0.286-0.29-0.555-0.505-0.732l-0.148-0.241z"></path>
<path fill="#fefefe" d="M16.716 12.282c0 0.468-0.141 0.843-0.423 1.125s-0.657 0.42-1.125 0.42c-0.399 0-0.756-0.138-1.071-0.42-0.318-0.282-0.477-0.657-0.477-1.125 0-0.399 0.159-0.756 0.477-1.074 0.315-0.315 0.672-0.474 1.071-0.474 0.468 0 0.844 0.159 1.125 0.474 0.282 0.318 0.423 0.675 0.423 1.074zM13.463 23.288h1.669c1.314 0.012 2.43-0.444 3.348-1.362 0.921-0.921 1.386-2.043 1.398-3.367v-6.331c-0.012-1.299-0.474-2.413-1.389-3.34-0.912-0.927-2.032-1.389-3.358-1.389-1.299 0-2.416 0.465-3.349 1.398-0.933 0.93-1.392 2.052-1.38 3.366 0 1.311 0.462 2.428 1.389 3.349 0.924 0.921 2.046 1.38 3.358 1.38 0.516 0 1.032-0.087 1.549-0.264v1.83c0 0.468-0.141 0.84-0.423 1.116-0.282 0.273-0.663 0.405-1.143 0.393h-1.669v3.22z"></path>
</svg>
