<?xml version="1.0" encoding="UTF-8"?>
<!DOCTYPE svg PUBLIC "-//W3C//DTD SVG 1.1//EN" "http://www.w3.org/Graphics/SVG/1.1/DTD/svg11.dtd">
<!-- Creator: CorelDRAW 2017 -->
<svg xmlns="http://www.w3.org/2000/svg" xml:space="preserve" width="119.344mm" height="132.31mm" version="1.1" style="shape-rendering:geometricPrecision; text-rendering:geometricPrecision; image-rendering:optimizeQuality; fill-rule:evenodd; clip-rule:evenodd"
viewBox="0 0 11934.4 13231"
 xmlns:xlink="http://www.w3.org/1999/xlink">
 <defs>
  <style type="text/css">
   <![CDATA[
    .fil3 {fill:#774729}
    .fil6 {fill:#D3B08F}
    .fil0 {fill:#DEE2CA}
    .fil2 {fill:#E9563C}
    .fil4 {fill:#F29961}
    .fil7 {fill:#F5F5DA}
    .fil5 {fill:#FCFCFC}
    .fil1 {fill:#FDAF77}
   ]]>
  </style>
 </defs>
 <g id="Capa_x0020_1">
  <metadata id="CorelCorpID_0Corel-Layer"/>
  <g id="_2648257589264">
   <path class="fil0" d="M8707.29 11153.74c-66.39,-109.99 -149.98,-165.62 -235.46,-268.53 -57.46,-69.17 -207.81,-213.9 -249.03,-287.18 99.57,-162.2 236.82,-217.49 336.74,-345.78 19.2,-95.17 3.12,-86.54 -45.28,-149.75 -38.65,-50.48 -65.09,-84.91 -123.24,-111.11 -287.63,19.79 -1031.45,211.85 -1238.88,182.67l-25.89 -184.05c174.98,-87.41 799.13,-152.6 1040.98,-193.31l57.74 -39.52c-223.47,-220.91 -1129,-1412.97 -1207.92,-1457.01 -287.95,6.36 -1588.58,258.09 -2043.03,333.57l-666.73 84.56 -32.96 -183.01 2597.65 -444.76c-35.19,-126.74 -266.62,-407.56 -357.9,-539.37 -98.31,-141.97 -277.82,-435.16 -385.91,-524.85 -361.17,20.91 -1814.53,358.98 -2011.55,308l-28.91 -175.69c124.81,-70.13 1629.99,-304 1892.03,-335.72 -29.57,-115.63 -119.51,-195.83 -173.41,-307.67l-104.7 13.8 -1678.72 270.52 -30.03 -219.21 1737.82 -284.63 38.69 -61.34 -106.13 -61.48 -944.42 -124.27c-142.14,-62.22 -248.37,-130.19 -399.31,-192.8l-429.47 -153.39c108.24,-134.45 235.94,-116.43 400.75,-116.9 148.94,-0.41 299.34,-35.58 451.27,-51.93l906.92 120.01 73.95 -18.66c-22.02,-372.16 568.65,-477.97 857.85,-549.67 471.16,-116.81 1399.19,-326.36 1846.77,-56.49 306.86,185.02 573.12,353.5 851.95,576.15 90.4,72.18 329.19,291.98 405.59,324.25 0,-276.99 -28.32,-479.94 -26.02,-729.85 2.08,-225.52 -47.89,-472.71 -54.23,-686.7l-9.21 -681.65c-17.15,-104.06 -30.5,0.47 -42.84,-140.93 -6.29,-72.04 15.17,-124.41 17.62,-163.01l-97.03 -1793.77c0.15,-118.03 6.39,-254.89 0.14,-370.61l-54.58 -871.59c-6.18,-83.4 -22.9,-95.46 -24.93,-186.76 -337.38,0 -750.87,6.61 -1039.26,45.68 -353.71,47.92 -705.58,13.71 -1077.83,33.57 -149.44,7.97 -321.48,49.36 -475.32,53.92 -177.14,5.25 -382.23,-13.78 -555.18,0.53 -132.49,10.96 -395.19,33.22 -480,38.97 -89.92,6.09 -118.13,-20.43 -204.83,-9.74 -117.25,14.45 -38.77,48.73 -241.06,50.43 -477.34,4.02 -1101.88,6.37 -1570.16,70.49 -174.62,23.91 -378.73,-9.38 -549.64,6.41 -227.9,21.06 10.67,57.17 -198.36,43.57 -85.33,-5.55 -171.06,-21.02 -277.48,-17.33 -126.06,4.37 -121.8,21.42 -237.34,27.63 -94.12,5.06 -197.21,-5.31 -291.33,-0.26 -175.7,9.44 -594.93,61.07 -761.35,44.52 -239.07,-23.76 14.53,29.83 -217.62,35l0 476.31c-107.16,24.97 -358.64,43.14 -476.32,52.93 0,189.41 26.47,292.42 26.47,449.85 -130.8,0 -492.21,82.95 -767.4,105.85l49.44 337.21c0.76,3.55 3.06,10.93 3.81,14.46l9 46.21c0.47,4.48 0.71,12.46 1.05,17.16l25.79 182.64c79.78,335.63 153.43,990.75 230.37,1358.59 56.08,268.08 45.12,361.84 118.35,675.52l434.38 2582.63c13.53,92.22 14.99,83.52 28.75,153.35l188.08 1113.45c26.41,134.64 -10.95,93.9 37.01,303.65 28.22,123.42 43.74,213.57 67.55,330.61l130.63 778.54c27.51,115.19 9.1,166.45 88.37,484.34 27.31,109.51 17.42,249.82 39.73,357.19l184.02 1006.78c16.45,136.52 26.85,236.91 51.84,345.09 22.49,97.36 56,234.66 58.32,338.61 177.92,0 321.36,-45.29 457.31,-73.75 97.68,-20.44 135.91,-15.3 190.57,-28.77l30.67 -9.75c23.21,-5.78 15.54,-5.15 48.44,-9.84l1865.78 -301.79c165.99,-7.37 259.46,-60.57 451.13,-79.34l633.57 -102.01c255.83,-46.33 593.36,-125.14 841.1,-144.9 40.4,-3.23 182.91,-28.07 225.57,-36.27 193.1,-37.13 137.9,-68.62 291.93,-66.54 62.79,0.85 46.22,4.76 112.02,-3.72 146.86,-18.92 308.31,-74.4 439.23,-77.66 268.03,-6.66 196.37,-38.95 420.61,-70.51 108.56,-15.28 117.84,-14.57 223.8,-18.14 127.13,-4.28 43.71,-29.76 196.27,-37.06 84.68,-4.05 181.05,6.3 267,1.7 119.87,-6.43 125.97,-26.59 265.78,-26.59z"/>
   <path class="fil1" d="M5649 5653.61c7.25,3.21 16.71,5.55 22.71,7.07l1367.33 197.45c444.85,41.56 920.24,155.96 1383.27,216.11 2.11,168.64 -68.07,326.75 -56.45,505.07l49.07 49.29c126.88,-306.73 -12.27,-480.43 158.78,-555.44 61.91,101.68 -2.91,261.17 -11.03,330.19 -18.02,153.17 16.8,214.55 -100.94,258.49 112.3,86.74 125.84,393.04 105.43,577.39l-130.35 -9.39 111.47 60.44c-6.18,206.58 -174.66,417.21 -395.47,397.36 -302.43,-27.18 -695.41,-450.25 -889.06,-648.71 -111.6,-114.39 -284.42,-349.27 -362.87,-404.13 33.1,-46.14 -51.64,-51.48 61.33,-31.02 -72.75,-124.84 -34.88,-25.09 -153.12,-117.47l-133.34 -152.38c-81.9,-171.53 -218.06,-313.73 -430.41,-321.2 -372.51,-13.1 -293.47,176.2 -582.09,160.16l106.13 61.48 -38.69 61.34 37.78 174.25 -66.85 59.07 104.7 -13.8c53.9,111.84 143.84,192.04 173.41,307.67 71.35,43.93 116.14,120.36 148.43,203.41 108.09,89.69 287.6,382.88 385.91,524.85 91.28,131.81 322.71,412.63 357.9,539.37 80.01,47.29 129.12,117.69 145.07,209.64 78.92,44.04 984.45,1236.1 1207.92,1457.01l-57.74 39.52c135.95,-0.8 192.27,104.05 223.79,194.69 58.15,26.2 84.59,60.63 123.24,111.11 48.4,63.21 64.48,54.58 45.28,149.75l391.89 -361.67c161.48,-142.51 1131.85,-1019.1 1165.41,-1144.89 -30.68,-250.87 46.47,-499.5 44.94,-767.04 -2.77,-482.6 70.49,-1284.49 -223.17,-1682.8 -82.32,-111.64 -246.52,-302.71 -253.5,-366.66 -76.4,-32.27 -315.19,-252.07 -405.59,-324.25 -278.83,-222.65 -545.09,-391.13 -851.95,-576.15 -447.58,-269.87 -1375.61,-60.32 -1846.77,56.49 -289.2,71.7 -879.87,177.51 -857.85,549.67l-73.95 18.66z"/>
   <path class="fil2" d="M10116.84 8745.69c-33.56,125.79 -1003.93,1002.38 -1165.41,1144.89l-391.89 361.67c-99.92,128.29 -237.17,183.58 -336.74,345.78 41.22,73.28 191.57,218.01 249.03,287.18 85.48,102.91 169.07,158.54 235.46,268.53l799.74 866.09c126.84,131.68 439.87,531.46 597.32,672.86 5.72,5.14 22.41,19.64 27.99,24.93l161.4 209.07 1640.64 0 0 -3122.52 -376.26 -311.75c-36.62,-33.15 -43.88,-40.12 -84.67,-74.1l-342.19 -292.9c-38.24,-30.84 -22.75,-20.4 -41.66,-37.72 -85.21,-78.08 -610.91,-563.96 -690.02,-553.7 -114.25,60.45 -42.54,22.99 -126.77,111.55 -95.5,100.41 -84.23,91.06 -155.97,100.14z"/>
   <path class="fil3" d="M1070.1 2803.75l128.18 831.45 6351.55 -1055.33 -130.89 -830.38c-134.97,-23.64 -4038.75,662.53 -4740.54,779.96 -524.79,87.81 -1097.62,159.08 -1608.3,274.3z"/>
   <path class="fil2" d="M2544.89 6438.57c-1062.48,239.54 -672.45,1726.47 299.14,1525.01 380.87,-78.98 697.94,-443.11 605.15,-924.4 -69.92,-362.71 -458.14,-701.2 -904.29,-600.61z"/>
   <path class="fil2" d="M2786.96 8398.85c-1008.74,328.88 -503.57,1792.48 465.68,1480.35 342.71,-110.36 644.83,-492.57 503.43,-974.79 -98.9,-337.28 -498.02,-659.14 -969.11,-505.56z"/>
   <path class="fil2" d="M2157.02 4462.7c-1042.35,304.66 -549.92,1772.24 404.84,1496.36 342.25,-98.89 673.48,-458.81 541.67,-953.84 -95.27,-357.81 -487.48,-676.69 -946.51,-542.52z"/>
   <path class="fil2" d="M4718.84 6048.62l944.42 124.27c288.62,16.04 209.58,-173.26 582.09,-160.16 212.35,7.47 348.51,149.67 430.41,321.2l1690.1 245.38c-11.62,-178.32 58.56,-336.43 56.45,-505.07 -463.03,-60.15 -938.42,-174.55 -1383.27,-216.11l-1367.33 -197.45c-6,-1.52 -15.46,-3.86 -22.71,-7.07l-906.92 -120.01c-86.73,206.77 -203.01,253.12 -23.24,515.02z"/>
   <path class="fil3" d="M3750.24 4591.16l20.37 179.35c97.49,25.14 3576.1,-541.77 3850.82,-629.2l-16.51 -195.89c-95.99,-18.31 -3746.08,589.65 -3854.68,645.74z"/>
   <path class="fil4" d="M8365.86 6579.31l-1690.1 -245.38 133.34 152.38c118.24,92.38 80.37,-7.37 153.12,117.47 195.6,164.87 1144.21,648.12 1474.6,626.06l130.35 9.39c20.41,-184.35 6.87,-490.65 -105.43,-577.39 117.74,-43.94 82.92,-105.32 100.94,-258.49 8.12,-69.02 72.94,-228.51 11.03,-330.19 -171.05,75.01 -31.9,248.71 -158.78,555.44l-49.07 -49.29z"/>
   <path class="fil0" d="M8436.82 7229.84c-330.39,22.06 -1279,-461.19 -1474.6,-626.06 -112.97,-20.46 -28.23,-15.12 -61.33,31.02 78.45,54.86 251.27,289.74 362.87,404.13 193.65,198.46 586.63,621.53 889.06,648.71 220.81,19.85 389.29,-190.78 395.47,-397.36l-111.47 -60.44z"/>
   <path class="fil3" d="M7017.05 8300.17c-15.95,-91.95 -65.06,-162.35 -145.07,-209.64l-2597.65 444.76 32.96 183.01 666.73 -84.56c454.45,-75.48 1755.08,-327.21 2043.03,-333.57z"/>
   <path class="fil3" d="M6128.17 7026.31c-32.29,-83.05 -77.08,-159.48 -148.43,-203.41 -262.04,31.72 -1767.22,265.59 -1892.03,335.72l28.91 175.69c197.02,50.98 1650.38,-287.09 2011.55,-308z"/>
   <polygon class="fil3" points="4365.84,9085.38 4397.92,9296.07 6459.46,8958.39 6430.35,8746.12 "/>
   <polygon class="fil3" points="5701.63,6529.03 5768.48,6469.96 5730.7,6295.71 3992.88,6580.34 4022.91,6799.55 "/>
   <path class="fil5" d="M2249.69 5275.08c-111.67,-46.9 -216.89,-220.21 -349.4,-78.58 -91.65,140.82 15.59,210.28 103.25,275.65 101.64,75.78 142.71,161.63 298.67,151.32 12.88,-3.61 800.13,-724.03 393.68,-768.51 -140.8,-15.4 -379.93,318.75 -446.2,420.12z"/>
   <path class="fil5" d="M2566.83 7260.7c-149.23,-63.53 -100.72,-163.79 -322.03,-105.62 -63.82,120.57 -74.4,168.74 35.23,262.89 395.38,339.54 333.85,234.36 671.92,-139.76 38.81,-42.94 161.25,-181.42 179.42,-221.04 53.52,-116.67 -24.65,-238.17 -157.44,-208.5 -87.81,19.62 -311.09,334.12 -407.1,412.03z"/>
   <path class="fil5" d="M2910.84 9194.55c-132.74,-28.71 -161.44,-165.19 -297.59,-109.49 -148.55,60.77 -85.78,203.4 -0.08,275.4 394.23,331.18 288.67,256.83 747.43,-244.14 72.26,-78.92 202.75,-216.53 49.03,-313.52 -166.45,-105.01 -265.72,151.63 -498.79,391.75z"/>
   <polygon class="fil3" points="3847.17,5132.05 3869.51,5348.27 5220,5126.44 5209.3,4914.76 "/>
   <path class="fil3" d="M8391.02 9991.39c-31.52,-90.64 -87.84,-195.49 -223.79,-194.69 -241.85,40.71 -866,105.9 -1040.98,193.31l25.89 184.05c207.43,29.18 951.25,-162.88 1238.88,-182.67z"/>
   <path class="fil6" d="M4718.84 6048.62c-179.77,-261.9 -63.49,-308.25 23.24,-515.02 -151.93,16.35 -302.33,51.52 -451.27,51.93 -164.81,0.47 -292.51,-17.55 -400.75,116.9l429.47 153.39c150.94,62.61 257.17,130.58 399.31,192.8z"/>
   <path class="fil7" d="M8711.8 6649.26c121.46,22.17 250.01,61.81 343.54,11.81 73.03,-66.27 91.78,-349.4 66.64,-450.58 -88.51,-47.15 -238.6,-70.89 -336.71,-69.7 -23.82,189.47 -59.15,301.16 -73.47,508.47z"/>
   <path class="fil3" d="M4604.41 12926.69l79.38 0 0 -52.92c-46.39,11.1 -70.91,3.32 -79.38,52.92z"/>
  </g>
 </g>
</svg>
