<!-- Generated by IcoMoon.io -->
<svg version="1.1" xmlns="http://www.w3.org/2000/svg" width="32" height="32" viewBox="0 0 32 32">
<title>clip</title>
<path fill="#fc4c02" d="M27.582 8.316c-0.010-2.154-1.76-3.898-3.917-3.898-0.535 0-1.061 0.102-1.511 0.302l-14.271 6.061c-2.034 0.86-3.465 2.875-3.465 5.219v7.665c0 2.162 1.754 3.917 3.917 3.917 0.549 0 1.070-0.114 1.545-0.318l14.21-6.033c2.048-0.854 3.491-2.877 3.491-5.231v-7.684z"></path>
<path fill="#fff" d="M14.453 19.077c-0.166 0-0.301-0.149-0.301-0.334v-7.049c0-0.184 0.135-0.334 0.301-0.334s0.302 0.15 0.302 0.334v7.049c0 0.184-0.135 0.334-0.302 0.334z"></path>
<path fill="#fff" d="M17.071 18.762v-5.511c0-0.186-0.135-0.338-0.302-0.338s-0.301 0.152-0.301 0.338v5.511c0 0.187 0.135 0.338 0.301 0.338s0.302-0.152 0.302-0.338z"></path>
<path fill="#fff" d="M17.071 11.671v-0.018c0-0.162-0.135-0.293-0.302-0.293s-0.301 0.131-0.301 0.293v0.018c0 0.162 0.135 0.292 0.301 0.292s0.302-0.131 0.302-0.292z"></path>
<path fill="#fff" d="M12.36 18.334c0.133-0.132 0.133-0.346 0-0.478s-0.349-0.132-0.481 0c-0.983 0.974-2.58 0.974-3.563 0s-0.982-2.56 0-3.535c0.475-0.472 1.109-0.732 1.781-0.732s1.305 0.26 1.781 0.732c0.133 0.132 0.349 0.132 0.482 0s0.133-0.346 0-0.478c-0.604-0.6-1.408-0.93-2.263-0.93s-1.658 0.33-2.263 0.93c-1.247 1.238-1.247 3.253 0 4.491 0.624 0.619 1.443 0.928 2.263 0.928s1.639-0.309 2.263-0.928v0zM12.36 18.334v0 0z"></path>
<path fill="#fff" d="M19.462 20.454v-4.373c0-1.375 1.121-2.494 2.499-2.494 1.377 0 2.499 1.119 2.499 2.494s-1.121 2.493-2.499 2.493c-0.795 0-1.333-0.303-1.337-0.305-0.161-0.095-0.368-0.041-0.463 0.12-0.094 0.162-0.040 0.368 0.121 0.462 0.028 0.016 0.691 0.397 1.678 0.397 1.751 0 3.174-1.421 3.174-3.168s-1.424-3.169-3.174-3.169c-1.751 0-3.175 1.421-3.175 3.169v4.373c0 0.186 0.151 0.337 0.338 0.337s0.338-0.151 0.338-0.337z"></path>
</svg>
