<!-- Generated by IcoMoon.io -->
<svg version="1.1" xmlns="http://www.w3.org/2000/svg" width="32" height="32" viewBox="0 0 32 32">
<title>codesandbox</title>
<path fill="#373435" d="M7.926 21.608c-0.421-0.896 0.293-1.346 0.744-0.898 0.371 0.367 0.19 1.361-0.744 0.898zM8.653 20.1c-0.88-0.527-1.64 0.135-1.63 1.059 0.009 0.825 0.841 1.72 1.571 1.023l0.182-0.239 0.211 0.423 0.569-0.013 0.037-3.116-0.61 0.028-0.070 1.013-0.26-0.177zM21.706 20.461c1.254-0.001 0.992 1.23 0.385 1.386-0.778 0.201-1.153-0.748-0.385-1.386zM22.517 20.068c-0.003-0.001-2.304-0.664-1.804 1.484 0.297 1.274 1.646 0.672 1.759 0.669 0.281-0.009 0.053 0.158 0.631 0.093 0.186-0.631 0.353-2.873-0.204-3.208-0.513 0.29-0.229 0.26-0.381 0.962zM3.926 21.383c-0.918-0.269-0.808 0.688-1.845 0.152-0.356-0.568-0.364-0.937 0.065-1.455 1.007-0.349 0.932 0.468 1.773 0.156 0.227-1.213-2.736-1.449-2.83 0.486-0.11 2.255 3.121 1.9 2.836 0.66zM24.64 20.512c0.786-0.365 1.235 0.975 0.521 1.301-0.812 0.371-1.37-0.905-0.521-1.301zM23.704 22.314c0.616 0.071 0.319-0.132 0.699-0.082 0.596 0.078 0.246 0.265 1.12 0.075 0.617-0.387 0.795-1.098 0.503-1.766-0.406-0.927-1.153-0.566-1.761-0.385-0.082-0.637 0.188-0.748-0.329-1.049-0.605 0.342-0.279 3.046-0.232 3.208zM5.841 20.609c0.407 0.521 0.243 1.286-0.393 1.12-0.435-0.113-0.766-1.265 0.393-1.12zM4.929 20.069c-1.498 0.879-0.092 3.084 1.374 2.129 1.291-0.841 0.093-2.991-1.374-2.129zM10.727 20.717c0.449-0.314 0.46-0.357 0.84 0.064-0.153 0.097 0.049 0.147-0.385 0.137-0.797-0.019-0.242-0.025-0.454-0.201zM12.162 21.646c-0.949-0.289-0.91 0.58-1.448-0.169 0.677-0.397 0.799 0.032 1.575-0.242 0.356-1.634-2.003-1.727-2.323-0.501-0.489 1.867 2.197 2.155 2.196 0.912zM16.905 21.693c-1.532 0.751-1.564-1.831 0.074-1.066l-0.074 1.066zM17.602 22.291l0.055-2.265c-0.947-0.022-2.524-0.462-2.511 1.133 0.005 0.524 0.257 1.063 0.809 1.185 0.011 0.002 1.638-0.050 1.648-0.053zM14.256 21.589c-0.604 0.76-0.685-0.2-1.42-0.040-0.285 0.974 1.735 1.167 2.024 0.282 0.501-1.529-1.661-0.813-1.353-1.902 0.71-0.263 0.585 0.282 1.246 0.124 0.167-1.003-1.637-0.968-1.969-0.237-0.539 1.188 1.249 0.955 1.471 1.774zM28 21.679c-1.504 0.839-1.486-1.874 0.076-1.047l-0.076 1.047zM26.901 20.108c-1.488 0.765-0.191 3.085 1.325 2.094 1.122-0.734 0.341-2.95-1.325-2.094zM18.423 22.384c0.656-0.493 0.004-0.9 0.451-1.834l0.77-0.078c0.424 0.991-0.234 1.417 0.441 1.916 0.607-0.417 0.44-1.821-0.085-2.327-0.383-0.133-1.377-0.091-1.779 0.006-0.216 0.524-0.351 1.946 0.203 2.317zM28.939 22.309c0.648 0.136 0.511-0.114 0.937-0.523 0.539 0.327 0.228 0.711 1.037 0.515l-0.614-1.125c0.224-0.668 0.611-0.648 0.609-1.161-0.656-0.149-0.49 0.115-0.936 0.514-0.554-0.326-0.263-0.72-1.028-0.491 0.014 0.482 0.545 0.661 0.543 1.12-0.001 0.491-0.541 0.589-0.547 1.152zM8.653 20.1l0.26 0.177 0.070-1.013 0.61-0.028c-0.384-0.213-0.151-0.18-0.727-0.095-0.078 0.559 0.065 0.586-0.213 0.959zM8.988 22.365l-0.211-0.423-0.182 0.239c0.238 0.122 0.185 0.052 0.393 0.183z"></path>
<path fill="#181818" d="M18.191 15.325l-0.040 1.443c-0.539 0.293-1.095 0.699-1.625 0.756l-0.019-3.24 2.874-1.622 0.065 1.867-1.255 0.797zM12.586 12.711l2.869 1.545 0.031 3.257-1.46-0.73-0.048-1.451-1.372-0.845-0.021-1.777zM14.74 10.903l1.189 0.674 1.349-0.727 1.423 0.879-2.8 1.578-2.708-1.638 1.547-0.766zM12.093 11.726l-0.029 4.473 3.864 2.327c0.787-0.368 3.681-1.864 3.94-2.485l0.001-4.265-3.931-2.22-3.844 2.171z"></path>
</svg>
