<!-- Generated by IcoMoon.io -->
<svg version="1.1" xmlns="http://www.w3.org/2000/svg" width="32" height="32" viewBox="0 0 32 32">
<title>codepen</title>
<path d="M13.806 17.27c-0.048 0.063-0.1 0.062-0.247 0.070l-0.941-0.011-0.009-2.659c0.199-0.019 0.391-0.011 0.58-0.011l0.452 0.009c0.191 0.040 0.053-0.002 0.114 0.055 0.57-0.045 1.063 0.649 1.069 1.253 0.003 0.375-0.091 0.625-0.279 0.863-0.134 0.168-0.416 0.446-0.738 0.431zM15.279 16.507c0.279-1.082-0.345-1.962-1.116-2.244-0.427-0.156-1.135-0.115-1.631-0.113-0.399 0.002-0.43 0.084-0.428 0.471l0.001 2.583c-0.001 0.303-0.048 0.578 0.234 0.634 0.168 0.033 0.649 0.008 0.85 0.009 0.978 0.001 1.822-0.302 2.090-1.34z"></path>
<path d="M8.308 17.993v-0.994c0.065-0.116 0.718-0.531 0.865-0.621 0.178-0.108 0.267 0.028 0.438 0.144 0.146 0.099 0.317 0.195 0.435 0.314-0.089 0.106-0.288 0.22-0.408 0.299-0.167 0.11-0.281 0.186-0.443 0.293-0.238 0.158-0.63 0.454-0.886 0.565zM6.051 16.836c0.115-0.128 0.304-0.23 0.458-0.333 0.353-0.238 0.18-0.277 0.935 0.221 0.435 0.287 0.358 0.156 0.348 1.267l-1.741-1.155zM10.277 15.661l-0.003 0.669c-0.058-0.025-0.46-0.263-0.478-0.341-0.004-0.017-0.014-0.021-0.014-0.021l0.495-0.306zM7.299 15.974c0.18-0.109 0.585-0.429 0.772-0.487l0.728 0.487c-0.096 0.117-0.558 0.408-0.73 0.509-0.16-0.049-0.684-0.405-0.77-0.509zM5.829 15.659c0.136 0.074 0.415 0.226 0.488 0.364l-0.501 0.31 0.013-0.674zM8.322 13.993l1.723 1.162c-0.007 0.008-0.017 0.018-0.021 0.023s-0.016 0.016-0.022 0.022l-0.711 0.476-0.98-0.64 0.012-1.042zM7.788 14.007l-0.009 1.023-0.979 0.633c-0.132-0.068-0.64-0.391-0.744-0.508l1.732-1.148zM5.308 16.917c0.041 0.148 2.054 1.428 2.455 1.701 0.389 0.264 0.529 0.032 0.868-0.196 0.547-0.369 1.101-0.731 1.649-1.096 0.435-0.29 0.526-0.192 0.523-0.86-0.001-0.307 0.040-1.093-0.007-1.343-0.042-0.225-1.341-0.999-1.604-1.175-1.325-0.884-1.061-0.807-1.742-0.356-0.557 0.369-1.102 0.728-1.654 1.090-0.459 0.301-0.5 0.2-0.499 0.882 0.001 0.226-0.029 1.21 0.011 1.353z"></path>
<path d="M2.364 14.218c-0.565 0.048-1.097 0.635-1.264 1.097-0.645 1.784 1.31 3.216 2.785 2.21 0.244-0.166 0.515-0.335 0.18-0.64-0.357-0.011-0.471 0.333-0.968 0.421-1.341 0.237-2.035-1.233-1.306-2.163 0.427-0.546 1.327-0.649 1.934-0.148 0.386 0.318 0.711-0.105 0.302-0.426-0.224-0.176-0.573-0.401-0.952-0.384l-0.711 0.033z"></path>
<path d="M29.141 15.133c-0.218-0.274-0.919-1.427-1.132-0.807-0.043 0.124-0.021 2.008-0.021 2.223 0 0.334-0.136 1.205 0.198 1.276 0.473 0.1 0.317-0.801 0.317-1.153 0.001-0.481-0.017-0.993 0.005-1.471 0.137 0.095 1.138 1.416 1.329 1.655 0.208 0.261 0.947 1.438 1.145 0.822l0.017-2.236c0-0.341 0.136-1.215-0.207-1.274-0.444-0.076-0.31 0.793-0.31 1.152 0 0.467 0.027 1.019-0.010 1.476l-1.331-1.662z"></path>
<path d="M24.658 14.671c0.514-0.007 1.284 0.049 1.761-0.003 0.332-0.036 0.337-0.404 0.109-0.49-0.128-0.049-1.463-0.025-1.708-0.026-0.269-0.001-0.604-0.062-0.676 0.202-0.027 0.103-0.052 3.238 0.034 3.37 0.138 0.211 1.233 0.123 1.583 0.123 0.187 0 0.685 0.026 0.801-0.048 0.211-0.135 0.168-0.449-0.184-0.471-0.539-0.034-1.171 0.007-1.732-0.002l0.004-1.066c0.356-0.007 1.369 0.165 1.349-0.28-0.016-0.362-0.724-0.227-1.355-0.242l0.014-1.066z"></path>
<path d="M18.132 15.784c-0.387-0.084-0.799 0.012-1.19-0.042-0.073-0.151-0.041-0.368-0.041-0.546 0-0.096-0.003-0.194-0.003-0.289 0-0.278 0.032-0.218 0.084-0.24 0.409 0.013 0.833 0.002 1.244 0.003 0.436 0 0.927 0.060 0.665-0.465-0.239-0.081-2.158-0.112-2.345 0-0.2 0.128-0.132 0.518-0.132 0.827 0 0.438-0.038 2.617 0.041 2.72 0.275 0.168 0.873 0.095 1.279 0.095 0.329 0 1.030 0.125 1.197-0.149 0.327-0.62-1.311-0.262-2.002-0.387l0.002-1.034c0.26-0.052 0.687-0.014 0.969-0.018 0.478-0.007 0.487-0.371 0.231-0.475z"></path>
<path d="M20.804 14.671c0.729-0.009 1.737-0.174 1.732 0.648-0.004 0.826-0.992 0.658-1.745 0.648l0.013-1.296zM20.742 17.679l0.029-1.192 1.197-0.022c0.678-0.007 1.248-0.697 1.044-1.465-0.247-0.932-1.186-0.848-1.797-0.848-1.096 0-0.943-0.234-0.943 1.699 0 0.239-0.061 1.764 0.066 1.904 0.144 0.157 0.335 0.088 0.404-0.077z"></path>
</svg>
