<?xml version="1.0" encoding="UTF-8"?>
<!DOCTYPE svg PUBLIC "-//W3C//DTD SVG 1.1//EN" "http://www.w3.org/Graphics/SVG/1.1/DTD/svg11.dtd">
<!-- Creator: CorelDRAW 2017 -->
<svg xmlns="http://www.w3.org/2000/svg" xml:space="preserve" width="7.3658mm" height="7.3658mm" version="1.1" style="shape-rendering:geometricPrecision; text-rendering:geometricPrecision; image-rendering:optimizeQuality; fill-rule:evenodd; clip-rule:evenodd"
viewBox="0 0 736.58 736.58"
 xmlns:xlink="http://www.w3.org/1999/xlink">
 <defs>
  <style type="text/css">
   <![CDATA[
    .fil0 {fill:black}
   ]]>
  </style>
 </defs>
 <g id="Capa_x0020_1">
  <metadata id="CorelCorpID_0Corel-Layer"/>
  <path class="fil0" d="M114.97 29.57c-1.27,4.74 -5.15,8.21 -7.98,12.68 -6.1,11.02 -11.6,23.35 -12.15,38.92l-0.18 4.93 0.03 21.25 -0.2 23.23 0.01 19.38 0.18 23.26 -0.13 20.13 0.09 23.67 -0.04 19.17 -0.02 23.74 0.07 19.9 0.01 22.95 -0.09 19.91 0.06 23.74 -0.89 15.54c0.88,1.64 2.78,16.97 5.74,26.05 3.01,9.25 7.69,14.98 10.93,22.58 3.39,1.69 3.81,2.94 4.77,6.05 0.32,0.21 0.76,0.19 0.9,0.68l16.19 14.94 4.04 1.97c11.27,4.5 16.25,8.19 30.38,10.79 11.44,2.1 26.97,1.66 39,1.4 15.02,-0.34 68.09,-1.69 79.51,0.86 1.07,72.15 2.53,61.64 -30.53,61.95 -68.85,0.64 -62.56,-5.68 -63.4,29.66l0.11 6.5 10.23 0.43 343.21 -0.17c4.8,-47.56 -7.46,-35.02 -58.84,-36.23 -17.18,-0.41 -34.66,5.1 -34.75,-13.89 -0.06,-16.01 0.33,-32.4 0.05,-48.36 16,-3.02 81.95,0.2 109.57,-1.25 14.14,-0.75 19.46,-3.61 31.26,-7.28 2.15,-2.4 10.49,-6.35 13.53,-8.46 22.17,-15.34 30.21,-39.41 31.5,-40.8 7.89,-32.04 4.56,-124.62 4.62,-163.38 0.05,-25.53 1.43,-122.91 -0.01,-146.11 -0.47,-7.64 -2.39,-12.37 -3.5,-19.54 -1.39,-1.92 -3.22,-6.2 -3.27,-10.2l-3.29 -3.99c-9.16,-13.42 -10.13,-17.55 -24.69,-28.41 -6.59,-4.93 -12.5,-8.04 -18.87,-11.01 -6.68,-3.11 -19.9,-4.83 -23.4,-6.75l-392.89 0c-5.94,3.27 -15.81,1.37 -31.72,10.7 -12.43,7.29 -19.61,15.44 -25.15,18.87zm496.35 335.39l-0.68 -5.83c3.15,-4.93 1.13,-18.35 1.15,-25.55 0,-9.09 0.13,-18.15 0.07,-27.24 -0.11,-18.15 -0.04,-36.3 -0.07,-54.45 -0.08,-36.31 0.05,-72.63 0.09,-108.93 0.02,-33.72 5.22,-73.06 -14.94,-93.31 -25.4,-25.5 -48.34,-19.34 -89.19,-19.39 -72.56,-0.1 -145.14,0.09 -217.7,-0.01 -34.4,-0.04 -74.96,-1.94 -108.62,0.08 -30.63,1.85 -53.6,22.91 -56.26,52.58 -2.85,31.68 -0.08,171.44 -0.4,216.62 -0.21,31.48 -4.78,76.83 13.03,95.24 26.04,26.95 41.91,20.89 86.94,21.41 72.47,0.83 145.2,-0.7 217.7,0.02 35.56,0.36 73.34,0.87 108.76,-0.1 34.14,-0.94 55.78,-20.26 60.12,-51.14zm-446.27 -300.2l-5.85 6.5 -3.95 10.44c-2.19,19.79 -1.19,49.66 -0.94,70.78l-0.04 19.08 0.02 110.27 0 19.07c-0.16,18.6 -1.45,50.24 1.59,66.91 0.25,0.45 1.52,2.79 2.14,3.99 0.15,0.28 1.21,2.42 1.26,2.57 1.19,2.71 0.31,-0.05 0.93,2.52 6.99,3.36 6.05,7.34 17.74,9.07 7.55,1.13 18.02,0.36 26.38,0.6 47.49,1.36 110.64,-0.11 159.2,-0.22 51.26,-0.13 108.95,1.38 159.19,0.29 21.64,-0.48 31.19,2.31 48.98,-5.38 0.7,-3.16 2.24,-3.19 4.7,-6.18 2.47,-3.01 2.95,-4.85 4.3,-7.26 2.97,-16.29 1.51,-133.94 1.29,-159.49l0.07 -120.82c-0.68,-6.22 -2.01,-10.75 -5.12,-15.19 -3.75,-5.38 -6.98,-5.88 -10.31,-10.42 -4.68,-0.15 -5.49,-1.46 -11.43,-1.5l-29.75 -0.3 -19.06 0.06 -153.74 -0.03 -19.07 0 -153.73 0.1 -14.8 4.54zm-135.02 581.09l-0.88 0.36c-0.22,0.32 -0.53,0.71 -0.71,0.9l-19.28 16.13 -2.85 5.34c-2.91,7.57 -6.27,12.16 -6.32,21.71 -0.15,37.27 29.77,42.52 36.18,46.31l664.71 0c5.51,-3.34 11.67,-4.42 18.31,-9.05 11.62,-8.11 17.46,-22.17 17.38,-37.26 -0.03,-9.55 -3.4,-14.14 -6.3,-21.71 -2.42,-2.17 -7.36,-7.77 -8.86,-10.43l-14.07 -11.89 -4.5 -2.72c-0.73,-0.71 -1.17,-1.4 -1.68,-2.06 -0.09,-0.12 -0.39,-0.32 -0.45,-0.68 -0.06,-0.36 -0.3,-0.45 -0.44,-0.7 -5.54,-2.44 -4.15,-3.07 -8.89,-6.94 -3.38,-2.74 -5.15,-2.77 -7.5,-7.82 -3.36,-1 -24.98,-19.3 -26.84,-22.66 -25.72,-13.23 -22.04,-32.77 -59.46,-32.8l-276.24 -0.13c-61.17,0.02 -122.57,-0.44 -183.72,0.06 -19.18,0.15 -22.42,3.16 -33.02,12.49l-74.57 63.55zm544.39 -22.87c17.04,0 38.65,3.03 38.35,-14.38 -0.32,-18.89 -24.06,-15.34 -38.35,-15.34 -41.91,0 -26.29,25.39 -19.91,28.46 4.73,2.27 14.48,1.26 19.91,1.26zm-393.67 -2.11l-0.04 0.46c13.6,-6.18 11.46,-24.33 -2.5,-27.21 -7.58,-1.56 -39.53,-1.79 -45.88,1.15 -12.34,5.69 -10.93,25.24 3.08,27.48 6.55,1.05 41.59,1.83 45.34,-1.88zm69.85 2.21c17.01,0 39.12,3.17 43.79,-8.72 10.1,-25.76 -29.65,-20.83 -43.79,-20.84 -11.78,0 -21.02,1.85 -20.72,15.1 0.26,11.78 9.13,14.46 20.72,14.46zm85.27 -17.2l16.99 -0.9 0.12 15.9 -6.66 0.64c3.55,2.82 40.43,2.78 43.94,0l-14.27 -0.73 0.39 -15.66 19.81 -0.02 0.77 11.81c6,-4.77 5.29,-12.95 0.84,-18.09 -4.88,-5.65 -11.5,-5.23 -20.66,-5.44 -18.31,-0.38 -36.63,-4.19 -41.27,12.49zm10.45 15.64l6.66 -0.64 -0.12 -15.9 -16.99 0.9c-1.65,8.34 3.25,14.9 10.45,15.64zm43.94 0c2.95,-0.25 1.9,0.36 4.24,-1.04 5.16,-3.09 1.75,-0.26 2.46,-3.56l-0.77 -11.81 -19.81 0.02 -0.39 15.66 14.27 0.73zm75.31 1.56c16.3,0 36.17,2.8 40.47,-9.48 8.32,-23.74 -23.41,-20.04 -33.67,-20.08 -14.11,0 -28.48,-1.86 -30.74,11.44 -2.75,16.03 10.16,18.12 23.94,18.12zm-372.44 31.38c-10.7,1.32 -17.98,10.49 -11.9,21.53 5.38,9.78 18.42,8.09 30.58,7.9 73.81,-1.08 153.77,0.08 228.58,-0.21 50.77,-0.19 101.62,0.2 152.39,0.25 25.26,0.02 50.99,-0.67 76.2,-0.13 16.8,0.34 61.84,1.99 76.07,-0.48 9.27,-1.62 15.97,-12.43 10.24,-22.11 -5.49,-9.26 -18.68,-7.02 -30.52,-6.99 -25.25,0.05 -51,-0.68 -76.2,-0.14 -102.51,2.19 -201.57,-1.93 -304.78,0.06 -29.89,0.59 -132.04,-2.01 -150.66,0.32z"/>
 </g>
</svg>
