<!-- Generated by IcoMoon.io -->
<svg version="1.1" xmlns="http://www.w3.org/2000/svg" width="32" height="32" viewBox="0 0 32 32">
<title>condon</title>
<path d="M2.586 12.055l-0.001 8.841c-0.001 0.951-0.077 1.946 1.023 1.939 1.075-0.007 0.932-0.912 1.106-1.853l16.365-0.018c3.855-0.002 5.554-0.425 6.372-3.995 1.271-0.042 2.117-0.077 1.81-1.537-0.482-0.266-1.042-0.321-1.768-0.338-1.53-4.777-3.509-3.976-9.15-3.971l-13.472-0.037c-0.033-0.057-0.064-0.205-0.074-0.175s-0.056-0.128-0.069-0.173-0.044-0.121-0.060-0.176c-0.015-0.056-0.032-0.118-0.048-0.18-0.090-0.364-0.086-0.59-0.158-0.891-2.063-0.951-1.88 0.637-1.877 2.563z"></path>
<path d="M19.817 21.863l-13.893-0.010c-1.010 0.702-0.736 2.039-2.476 1.888-2.41-0.21-1.744-4.727-1.744-6.633l0.005-5.262c0.002-1.587-0.082-2.948 1.228-3.421 1.794-0.648 2.156 0.789 2.777 1.705 3.509 0.205 12.728 0.045 16.419 0.053 2.577 0.009 4.349 0.765 5.294 2.263 1.027 1.628-0.116 1.083 1.803 1.987 0.751 0.353 1.415 1.311 0.857 2.419-0.531 1.054-1.604 0.593-2.128 1.66-1.856 3.775-3.969 3.349-8.141 3.352zM0.971 10.792l0.001 10.104c-0.003 1.746 0.328 3.090 1.896 3.487 0.858 0.218 1.575 0.080 2.19-0.352l1.289-1.461 14.103-0.019c3.512 0.006 5.434 0.187 7.456-2.409 0.253-0.324 0.549-1.064 0.77-1.332 0.748-0.905 1.701-0.417 2.176-1.831 0.885-2.634-1.781-3.367-2.038-3.602-0.196-0.18-0.557-0.921-0.8-1.27-2.104-3.016-4.829-2.629-8.406-2.622l-13.442-0.015c-1.539-3.103-5.195-2.394-5.194 1.323z"></path>
</svg>
