<!-- Generated by IcoMoon.io -->
<svg version="1.1" xmlns="http://www.w3.org/2000/svg" width="32" height="32" viewBox="0 0 32 32">
<title>condon-one</title>
<path d="M14.252 4.935c-0.895 0.746-2.461 1.311-3.041 3.439-0.392 1.441-0.337 18.421-0.107 19.77l9.951 0.025c0.203-1.34 0.27-18.153-0.069-19.62-0.509-2.202-2.035-2.771-3.088-3.608-0.035-1.728 0.099-3.401-1.728-3.482-1.985-0.088-1.872 1.715-1.918 3.477z"></path>
<path d="M22.039 29.125c-1.23-0.694-8.703-0.331-10.588-0.331-1.986-0.001-1.863 1.52-0.455 1.689l8.13-0.009c1.846 0.007 3.072 0.523 2.913-1.35z"></path>
</svg>
