<?xml version="1.0" encoding="UTF-8"?>
<!DOCTYPE svg PUBLIC "-//W3C//DTD SVG 1.1//EN" "http://www.w3.org/Graphics/SVG/1.1/DTD/svg11.dtd">
<!-- Creator: CorelDRAW 2017 -->
<svg xmlns="http://www.w3.org/2000/svg" xml:space="preserve" width="18.2878mm" height="7.9586mm" version="1.1" style="shape-rendering:geometricPrecision; text-rendering:geometricPrecision; image-rendering:optimizeQuality; fill-rule:evenodd; clip-rule:evenodd"
viewBox="0 0 1828.78 795.86"
 xmlns:xlink="http://www.w3.org/1999/xlink">
 <defs>
  <style type="text/css">
   <![CDATA[
    .fil0 {fill:#373435}
    .fil1 {fill:#373435;fill-rule:nonzero}
   ]]>
  </style>
 </defs>
 <g id="Capa_x0020_1">
  <metadata id="CorelCorpID_0Corel-Layer"/>
  <path class="fil0" d="M1441.84 698.15l23.19 -0.63c-0.36,11.68 0.03,29.55 -1.14,40.5 -3.62,33.78 2.97,22.16 -22.05,25.72 -13.92,-18.09 -12.11,-48.1 0,-65.59zm-59.66 1.21l37.34 0.25 0.72 61.29 -37.49 3.24 -0.57 -64.78zm-45.76 0.15c4.65,0.26 48.97,-12.97 28.58,60.91 -0.33,1.19 -1.44,3.15 -2.2,4.7 -27.48,-2.36 -17.38,12.6 -25.31,-22.25 -4.14,-18.18 -3.81,-25.78 -1.07,-43.36zm-56.19 2.72c31.49,-1.02 28.06,-8.4 38.3,12.91 6.73,13.99 5.46,34.55 4.35,48.46l-24.41 4.4c-12.7,-16.31 -15.14,-39.35 -18.24,-65.77zm98.7 -63.82l41.06 0.35 0.37 43.06 -39.44 3.28 -1.99 -46.69zm-105.11 3.7l27.11 -1.4c9.39,22.31 10.92,23.38 6.32,47.16 -34.16,2.1 -44.21,-8.16 -33.43,-45.76zm56.05 -1.15l26.4 0.65 8.61 43.24 -28.39 2.55c-0.32,-0.4 -24.62,-10.81 -6.62,-46.44zm46.27 -59.45l42.94 -1.55 0.86 43.1 -43.64 3.94 -0.16 -45.49zm-62.74 4.59l40.22 -5.74 6.65 47.59 -37.01 -0.84 -9.86 -41.01zm158.89 51.17l-6.66 43.98 -28.42 2 -2.34 -43.55 0.81 -15.83 1.16 -44.04 36.65 -2.75c-0.34,18.58 -1.98,36.54 -2.26,46.82l1.06 13.37zm-216.77 -53.2l39.16 1.33 6.07 42.03c-45.28,2.01 -40.18,5.42 -45.23,-43.36zm187.4 -60.28l31.76 -3.39 0.59 39.21c-6.64,4.52 -0.38,5.62 -14.13,6.95 -16.36,1.59 -9.54,0.12 -23.49,-3.55 -4.58,-29.72 -3.9,-24.45 5.27,-39.22zm-67.29 41.64l-2.23 -38.66 42.05 -1.92 3.66 33.79c-7.99,3.22 -5.72,4.57 -17.07,6.43 -8.61,1.41 -17.74,0.5 -26.41,0.36zm-133.12 -33.3l42.26 -2.77 3.41 39.27 -34.08 0.79 -11.59 -37.29zm62.47 -3.07l47.18 -0.33 3.06 36.18 -47.32 3.64 -2.92 -39.49zm-11.46 -55.94l55.96 -1.19 0.64 39.15 -49.63 0.27 -6.97 -38.23zm82.22 -1.38l41.84 -2.22 1.56 33.88 -47.49 4.93c-0.56,-8.61 -1.82,-15.16 -0.88,-21.34 2.61,-17.18 2.76,-10.66 4.97,-15.25zm-143.62 4.48c6.41,-0.73 13.67,-2.54 19.17,-2.01 19.46,1.89 -6.39,-2.62 11.36,1.87 1.54,0.39 3.73,1.8 4.95,2.2 1.22,0.4 3.15,1.74 4.71,2.63l7.44 32.26 -42.15 0.98 -5.48 -37.93zm246.62 23.97c-7.07,3.51 -4.52,5.93 -17.26,7.02 -18.57,1.59 -7.74,0.73 -22.71,-4l-0.3 -32.54 42.62 -5.52 -2.35 35.04zm-107.49 -82.14l43.8 -1.99 0.81 36.41 -45.76 2.09 1.15 -36.51zm68.07 33.12l-1.71 -34.25 44.31 -3.8 0.51 34.56 -43.11 3.49zm-154.38 -28.6l62.27 -2.45 0.86 32.47 -58.36 4.5 -4.77 -34.52zm-51.3 -0.9l27.79 1.48c4.93,21.06 7.46,18.75 1.52,30.72l-31.82 4.98 -5.45 -12.86 -10.33 -17.67 18.29 -6.65zm-54.47 -20.7c4.7,55.42 8.18,-29.57 32.5,84.81l68.21 301.68 198.43 -4.22c5.03,-70.35 9.28,-139.51 14.16,-205.53 1.94,-26.28 20.19,-194.25 20.15,-194.54 -44.37,-12.85 -308.15,0.85 -333.45,17.8z"/>
  <path class="fil0" d="M1606.52 724.12c24.75,-18.88 80.14,-168.8 112.28,-196.55l49.46 177.84 27.73 81.62 7.66 -109.03 20.61 -300.44 -191.03 -2.52 -55.55 332.88 -10.57 86.84c19.75,-14.45 31.11,-45.88 39.41,-70.64z"/>
  <path class="fil0" d="M1298.74 161.58c20.12,17.76 175.96,49.97 211.93,58.74 52.48,12.8 61.78,3.96 82.17,49.69 13.9,31.18 30.81,66.3 39.21,99.28l189.16 -18.75c6.64,-11.25 8.46,9.99 6.78,-26.73 -1.31,-28.69 -75.17,-123.06 -93.72,-175.27l-435.53 13.04z"/>
  <path class="fil0" d="M1613.22 4.28c-88.16,26.87 -52.68,152.67 41.34,122.22 81.65,-26.45 37.54,-146.26 -41.34,-122.22z"/>
  <path class="fil0" d="M1259.94 342.9c14.87,-34.8 34.86,-45.74 50.88,-84.61 61.09,9.5 80.36,14.01 150.44,11.83 -10.75,24.25 -17.7,26.94 -36.03,42.3 -20.01,16.77 -19.11,23.61 -37.69,24.75 -52.9,3.23 -71.4,15.25 -127.6,5.73zm185.49 -106.68l-7.8 5.61 4.89 14.58c-7.45,8.24 13.1,6.95 -16.81,6.92l-30.31 -12.96c-53.79,3.66 -47.74,1.53 -91.05,-12.18 -46.91,98.29 -53.79,70.51 -70.26,103.85 56.42,45.8 117.25,-7.19 168.67,17.52 17.33,-22.15 19.21,-25.68 38.35,-44.56 20,-19.72 28.96,-21.42 41.19,-52l-22.91 -11.4c-15.67,-10 -3.42,2.43 -13.96,-15.38z"/>
  <path class="fil1" d="M50.76 512.01l8.94 2.26c-1.86,7.33 -5.22,12.9 -10.07,16.74 -4.85,3.85 -10.78,5.78 -17.8,5.78 -7.25,0 -13.15,-1.48 -17.7,-4.44 -4.56,-2.95 -8.01,-7.24 -10.38,-12.84 -2.37,-5.62 -3.56,-11.63 -3.56,-18.07 0,-7.01 1.33,-13.13 4.02,-18.36 2.68,-5.22 6.49,-9.2 11.44,-11.91 4.94,-2.72 10.39,-4.07 16.32,-4.07 6.75,0 12.42,1.71 17,5.15 4.6,3.44 7.8,8.26 9.6,14.47l-8.75 2.07c-1.56,-4.89 -3.83,-8.47 -6.8,-10.7 -2.97,-2.24 -6.7,-3.36 -11.21,-3.36 -5.16,0 -9.49,1.24 -12.96,3.72 -3.47,2.48 -5.92,5.82 -7.31,10 -1.42,4.19 -2.12,8.51 -2.12,12.95 0,5.73 0.83,10.73 2.49,15 1.67,4.29 4.26,7.47 7.77,9.59 3.52,2.12 7.32,3.17 11.41,3.17 4.99,0 9.2,-1.44 12.65,-4.31 3.46,-2.89 5.79,-7.16 7.02,-12.84zm17.25 -9.17c0,-11.17 3.01,-19.93 9.02,-26.26 6.02,-6.32 13.77,-9.48 23.28,-9.48 6.23,0 11.83,1.5 16.84,4.46 4.99,2.97 8.81,7.11 11.43,12.43 2.62,5.31 3.94,11.33 3.94,18.07 0,6.82 -1.38,12.95 -4.15,18.33 -2.76,5.4 -6.67,9.48 -11.72,12.24 -5.07,2.78 -10.53,4.16 -16.39,4.16 -6.35,0 -12.02,-1.54 -17.03,-4.6 -4.99,-3.06 -8.78,-7.23 -11.36,-12.54 -2.57,-5.29 -3.86,-10.89 -3.86,-16.81zm9.23 0.16c0,8.11 2.18,14.5 6.54,19.16 4.37,4.66 9.84,7 16.44,7 6.71,0 12.22,-2.35 16.57,-7.06 4.33,-4.71 6.5,-11.4 6.5,-20.06 0,-5.48 -0.93,-10.26 -2.78,-14.34 -1.85,-4.08 -4.57,-7.26 -8.13,-9.5 -3.58,-2.24 -7.58,-3.37 -12.02,-3.37 -6.31,0 -11.74,2.16 -16.29,6.49 -4.56,4.34 -6.83,11.56 -6.83,21.68zm66.66 32.66l0 -67.43 9.16 0 35.38 52.93 0 -52.93 8.57 0 0 67.43 -9.17 0 -35.37 -52.92 0 52.92 -8.57 0zm65.18 -21.66l8.38 -0.75c0.4,3.39 1.32,6.17 2.78,8.35 1.46,2.16 3.72,3.92 6.78,5.27 3.06,1.33 6.51,2.01 10.34,2.01 3.41,0 6.41,-0.5 9.01,-1.52 2.61,-1.02 4.54,-2.42 5.81,-4.19 1.27,-1.78 1.92,-3.71 1.92,-5.78 0,-2.1 -0.62,-3.94 -1.84,-5.52 -1.23,-1.57 -3.25,-2.89 -6.08,-3.97 -1.8,-0.7 -5.8,-1.79 -12,-3.28 -6.2,-1.5 -10.53,-2.89 -13.01,-4.21 -3.22,-1.7 -5.61,-3.8 -7.18,-6.29 -1.58,-2.5 -2.37,-5.31 -2.37,-8.4 0,-3.42 0.98,-6.61 2.91,-9.56 1.93,-2.97 4.74,-5.21 8.46,-6.75 3.7,-1.54 7.83,-2.31 12.37,-2.31 4.99,0 9.4,0.8 13.21,2.42 3.81,1.6 6.75,3.97 8.81,7.11 2.05,3.12 3.15,6.67 3.31,10.63l-8.57 0.66c-0.46,-4.26 -2.01,-7.48 -4.66,-9.64 -2.66,-2.18 -6.58,-3.27 -11.76,-3.27 -5.4,0 -9.34,0.99 -11.8,2.97 -2.47,1.98 -3.71,4.36 -3.71,7.16 0,2.41 0.88,4.41 2.62,5.98 1.73,1.55 6.2,3.17 13.46,4.8 7.25,1.65 12.22,3.08 14.92,4.3 3.91,1.81 6.81,4.08 8.68,6.86 1.87,2.76 2.79,5.95 2.79,9.56 0,3.59 -1.02,6.95 -3.07,10.12 -2.06,3.17 -4.99,5.64 -8.84,7.39 -3.84,1.76 -8.16,2.64 -12.98,2.64 -6.09,0 -11.19,-0.89 -15.3,-2.67 -4.13,-1.77 -7.35,-4.44 -9.68,-8.02 -2.36,-3.56 -3.58,-7.59 -3.71,-12.1zm65.92 21.66l0 -67.43 48.69 0 0 7.91 -39.74 0 0 20.72 37.19 0 0 7.91 -37.19 0 0 22.98 41.34 0 0 7.91 -50.29 0zm62.81 0l0 -67.43 29.88 0c6.01,0 10.58,0.62 13.7,1.82 3.13,1.21 5.62,3.35 7.49,6.41 1.87,3.06 2.79,6.45 2.79,10.15 0,4.79 -1.55,8.82 -4.64,12.1 -3.09,3.28 -7.86,5.36 -14.33,6.25 2.37,1.13 4.16,2.26 5.38,3.36 2.61,2.38 5.07,5.38 7.38,8.98l11.66 18.36 -11.14 0 -8.92 -14.03c-2.59,-4.07 -4.74,-7.16 -6.42,-9.31 -1.69,-2.15 -3.2,-3.64 -4.53,-4.5 -1.32,-0.85 -2.69,-1.45 -4.07,-1.79 -1,-0.21 -2.65,-0.32 -4.96,-0.32l-10.32 0 0 29.95 -8.95 0zm8.95 -37.67l19.14 0c4.08,0 7.25,-0.42 9.55,-1.27 2.29,-0.83 4.03,-2.18 5.21,-4.05 1.19,-1.85 1.79,-3.86 1.79,-6.04 0,-3.19 -1.15,-5.82 -3.46,-7.88 -2.3,-2.06 -5.95,-3.08 -10.92,-3.08l-21.31 0 0 22.32zm76.38 37.67l-26.05 -67.43 9.67 0 17.51 49c1.4,3.93 2.59,7.6 3.53,11.04 1.04,-3.69 2.25,-7.36 3.63,-11.04l18.17 -49 9.11 0 -26.29 67.43 -9.28 0zm43.79 0l0 -67.43 48.69 0 0 7.91 -39.74 0 0 20.72 37.19 0 0 7.91 -37.19 0 0 22.98 41.34 0 0 7.91 -50.29 0zm88.97 0l0 -67.43 48.69 0 0 7.91 -39.74 0 0 20.72 37.19 0 0 7.91 -37.19 0 0 22.98 41.34 0 0 7.91 -50.29 0zm62.24 0l0 -67.43 8.95 0 0 59.52 33.15 0 0 7.91 -42.1 0zm62.83 0l25.86 -67.43 9.81 0 27.45 67.43 -10.15 0 -7.8 -20.43 -28.39 0 -7.32 20.43 -9.46 0zm19.4 -27.69l22.98 0 -7.04 -18.69c-2.11,-5.68 -3.72,-10.37 -4.83,-14.08 -0.93,4.4 -2.17,8.71 -3.72,12.98l-7.39 19.79zm50.61 27.69l0 -67.43 13.37 0 15.95 47.73c1.48,4.44 2.54,7.77 3.22,9.98 0.77,-2.44 1.98,-6.05 3.61,-10.81l16.23 -46.9 11.94 0 0 67.43 -8.57 0 0 -56.41 -19.68 56.41 -8.04 0 -19.46 -57.44 0 57.44 -8.57 0zm78.25 0l0 -67.43 25.3 0c5.15,0 9.28,0.68 12.4,2.04 3.11,1.37 5.54,3.47 7.3,6.31 1.78,2.83 2.65,5.8 2.65,8.9 0,2.88 -0.78,5.59 -2.33,8.13 -1.56,2.55 -3.91,4.6 -7.07,6.17 4.08,1.19 7.22,3.23 9.4,6.12 2.2,2.87 3.3,6.28 3.3,10.2 0,3.17 -0.67,6.11 -2.01,8.82 -1.33,2.72 -2.98,4.81 -4.94,6.28 -1.96,1.46 -4.43,2.58 -7.38,3.33 -2.97,0.75 -6.59,1.13 -10.89,1.13l-25.73 0zm8.95 -39.08l14.58 0c3.96,0 6.8,-0.27 8.51,-0.79 2.27,-0.67 3.98,-1.8 5.13,-3.37 1.15,-1.57 1.73,-3.53 1.73,-5.9 0,-2.25 -0.54,-4.22 -1.62,-5.92 -1.07,-1.71 -2.61,-2.89 -4.6,-3.51 -1.99,-0.63 -5.41,-0.95 -10.25,-0.95l-13.48 0 0 20.44zm0 31.17l16.79 0c2.89,0 4.92,-0.11 6.09,-0.33 2.04,-0.36 3.77,-0.97 5.15,-1.84 1.38,-0.86 2.51,-2.12 3.41,-3.76 0.89,-1.65 1.33,-3.55 1.33,-5.7 0,-2.53 -0.64,-4.71 -1.94,-6.58 -1.29,-1.86 -3.08,-3.17 -5.37,-3.92 -2.28,-0.75 -5.57,-1.13 -9.86,-1.13l-15.6 0 0 23.26zm55.75 7.91l0 -67.43 8.94 0 0 67.43 -8.94 0zm24.84 0l0 -67.43 48.69 0 0 7.91 -39.74 0 0 20.72 37.19 0 0 7.91 -37.19 0 0 22.98 41.34 0 0 7.91 -50.29 0zm62.53 0l0 -67.43 9.16 0 35.38 52.93 0 -52.93 8.57 0 0 67.43 -9.17 0 -35.37 -52.92 0 52.92 -8.57 0zm85.24 0l0 -59.52 -22.22 0 0 -7.91 53.39 0 0 7.91 -22.22 0 0 59.52 -8.95 0zm40.57 0l0 -67.43 48.69 0 0 7.91 -39.74 0 0 20.72 37.19 0 0 7.91 -37.19 0 0 22.98 41.34 0 0 7.91 -50.29 0zm-957.94 105.21l0 -67.43 23.23 0c5.24,0 9.24,0.32 12.01,0.96 3.86,0.9 7.15,2.51 9.88,4.84 3.57,3.01 6.22,6.84 7.98,11.52 1.77,4.67 2.65,10.02 2.65,16.04 0,5.11 -0.6,9.65 -1.79,13.6 -1.19,3.96 -2.73,7.24 -4.6,9.83 -1.88,2.59 -3.92,4.63 -6.15,6.1 -2.21,1.5 -4.9,2.63 -8.04,3.39 -3.15,0.77 -6.76,1.15 -10.84,1.15l-24.33 0zm8.95 -7.91l14.37 0c4.45,0 7.93,-0.41 10.46,-1.24 2.52,-0.83 4.53,-1.99 6.04,-3.5 2.1,-2.12 3.75,-4.98 4.93,-8.55 1.17,-3.58 1.77,-7.91 1.77,-13.02 0,-7.06 -1.16,-12.49 -3.47,-16.29 -2.3,-3.79 -5.11,-6.34 -8.43,-7.62 -2.38,-0.93 -6.23,-1.39 -11.53,-1.39l-14.14 0 0 51.61zm59.25 7.91l0 -67.43 48.69 0 0 7.91 -39.74 0 0 20.72 37.19 0 0 7.91 -37.19 0 0 22.98 41.34 0 0 7.91 -50.29 0zm62.62 0l0 -67.43 25.46 0c4.47,0 7.89,0.22 10.26,0.65 3.31,0.55 6.09,1.6 8.34,3.14 2.24,1.55 4.05,3.72 5.41,6.49 1.37,2.78 2.04,5.84 2.04,9.19 0,5.71 -1.82,10.56 -5.48,14.51 -3.64,3.97 -10.24,5.95 -19.79,5.95l-17.29 0 0 27.5 -8.95 0zm8.95 -35.41l17.42 0c5.77,0 9.86,-1.07 12.29,-3.22 2.41,-2.15 3.62,-5.16 3.62,-9.07 0,-2.81 -0.7,-5.22 -2.13,-7.23 -1.43,-2.01 -3.31,-3.35 -5.64,-3.99 -1.5,-0.39 -4.28,-0.6 -8.31,-0.6l-17.25 0 0 24.11zm51.13 2.59c0,-11.17 3.01,-19.93 9.02,-26.26 6.02,-6.32 13.77,-9.48 23.28,-9.48 6.23,0 11.83,1.5 16.84,4.46 4.99,2.97 8.81,7.11 11.43,12.43 2.62,5.31 3.94,11.33 3.94,18.07 0,6.82 -1.38,12.95 -4.15,18.33 -2.76,5.4 -6.67,9.48 -11.72,12.24 -5.07,2.78 -10.53,4.16 -16.39,4.16 -6.35,0 -12.02,-1.54 -17.03,-4.6 -4.99,-3.06 -8.78,-7.23 -11.36,-12.54 -2.57,-5.29 -3.86,-10.89 -3.86,-16.81zm9.23 0.16c0,8.11 2.18,14.5 6.54,19.16 4.37,4.66 9.84,7 16.44,7 6.71,0 12.22,-2.35 16.57,-7.06 4.33,-4.71 6.5,-11.4 6.5,-20.06 0,-5.48 -0.93,-10.26 -2.78,-14.34 -1.85,-4.08 -4.57,-7.26 -8.13,-9.5 -3.58,-2.24 -7.58,-3.37 -12.02,-3.37 -6.31,0 -11.74,2.16 -16.29,6.49 -4.56,4.34 -6.83,11.56 -6.83,21.68zm63.83 11l8.38 -0.75c0.4,3.39 1.32,6.17 2.78,8.35 1.46,2.16 3.72,3.92 6.78,5.27 3.06,1.33 6.51,2.01 10.34,2.01 3.41,0 6.41,-0.5 9.01,-1.52 2.61,-1.02 4.54,-2.42 5.81,-4.19 1.27,-1.78 1.92,-3.71 1.92,-5.78 0,-2.1 -0.62,-3.94 -1.84,-5.52 -1.23,-1.57 -3.25,-2.89 -6.08,-3.97 -1.8,-0.7 -5.8,-1.79 -12,-3.28 -6.2,-1.5 -10.53,-2.89 -13.01,-4.21 -3.22,-1.7 -5.61,-3.8 -7.18,-6.29 -1.58,-2.5 -2.37,-5.31 -2.37,-8.4 0,-3.42 0.98,-6.61 2.91,-9.56 1.93,-2.97 4.74,-5.21 8.46,-6.75 3.7,-1.54 7.83,-2.31 12.37,-2.31 4.99,0 9.4,0.8 13.21,2.42 3.81,1.6 6.75,3.97 8.81,7.11 2.05,3.12 3.15,6.67 3.31,10.63l-8.57 0.66c-0.46,-4.26 -2.01,-7.48 -4.66,-9.64 -2.66,-2.18 -6.58,-3.27 -11.76,-3.27 -5.4,0 -9.34,0.99 -11.8,2.97 -2.47,1.98 -3.71,4.36 -3.71,7.16 0,2.41 0.88,4.41 2.62,5.98 1.73,1.55 6.2,3.17 13.46,4.8 7.25,1.65 12.22,3.08 14.92,4.3 3.91,1.81 6.81,4.08 8.68,6.86 1.87,2.76 2.79,5.95 2.79,9.56 0,3.59 -1.02,6.95 -3.07,10.12 -2.06,3.17 -4.99,5.64 -8.84,7.39 -3.84,1.76 -8.16,2.64 -12.98,2.64 -6.09,0 -11.19,-0.89 -15.3,-2.67 -4.13,-1.77 -7.35,-4.44 -9.68,-8.02 -2.36,-3.56 -3.58,-7.59 -3.71,-12.1zm67.24 21.66l0 -67.43 8.94 0 0 67.43 -8.94 0zm41.79 0l0 -59.52 -22.22 0 0 -7.91 53.39 0 0 7.91 -22.22 0 0 59.52 -8.95 0zm40.57 0l0 -67.43 48.69 0 0 7.91 -39.74 0 0 20.72 37.19 0 0 7.91 -37.19 0 0 22.98 41.34 0 0 7.91 -50.29 0zm88.4 0l0 -67.43 8.95 0 0 59.52 33.15 0 0 7.91 -42.1 0zm45.36 0l25.86 -67.43 9.81 0 27.45 67.43 -10.15 0 -7.8 -20.43 -28.39 0 -7.32 20.43 -9.46 0zm19.4 -27.69l22.98 0 -7.04 -18.69c-2.11,-5.68 -3.72,-10.37 -4.83,-14.08 -0.93,4.4 -2.17,8.71 -3.72,12.98l-7.39 19.79zm71.39 27.69l0 -67.43 25.3 0c5.15,0 9.28,0.68 12.4,2.04 3.11,1.37 5.54,3.47 7.3,6.31 1.78,2.83 2.65,5.8 2.65,8.9 0,2.88 -0.78,5.59 -2.33,8.13 -1.56,2.55 -3.91,4.6 -7.07,6.17 4.08,1.19 7.22,3.23 9.4,6.12 2.2,2.87 3.3,6.28 3.3,10.2 0,3.17 -0.67,6.11 -2.01,8.82 -1.33,2.72 -2.98,4.81 -4.94,6.28 -1.96,1.46 -4.43,2.58 -7.38,3.33 -2.97,0.75 -6.59,1.13 -10.89,1.13l-25.73 0zm8.95 -39.08l14.58 0c3.96,0 6.8,-0.27 8.51,-0.79 2.27,-0.67 3.98,-1.8 5.13,-3.37 1.15,-1.57 1.73,-3.53 1.73,-5.9 0,-2.25 -0.54,-4.22 -1.62,-5.92 -1.07,-1.71 -2.61,-2.89 -4.6,-3.51 -1.99,-0.63 -5.41,-0.95 -10.25,-0.95l-13.48 0 0 20.44zm0 31.17l16.79 0c2.89,0 4.92,-0.11 6.09,-0.33 2.04,-0.36 3.77,-0.97 5.15,-1.84 1.38,-0.86 2.51,-2.12 3.41,-3.76 0.89,-1.65 1.33,-3.55 1.33,-5.7 0,-2.53 -0.64,-4.71 -1.94,-6.58 -1.29,-1.86 -3.08,-3.17 -5.37,-3.92 -2.28,-0.75 -5.57,-1.13 -9.86,-1.13l-15.6 0 0 23.26zm46.85 7.91l25.86 -67.43 9.81 0 27.45 67.43 -10.15 0 -7.8 -20.43 -28.39 0 -7.32 20.43 -9.46 0zm19.4 -27.69l22.98 0 -7.04 -18.69c-2.11,-5.68 -3.72,-10.37 -4.83,-14.08 -0.93,4.4 -2.17,8.71 -3.72,12.98l-7.39 19.79zm47.88 6.03l8.38 -0.75c0.4,3.39 1.32,6.17 2.78,8.35 1.46,2.16 3.72,3.92 6.78,5.27 3.06,1.33 6.51,2.01 10.34,2.01 3.41,0 6.41,-0.5 9.01,-1.52 2.61,-1.02 4.54,-2.42 5.81,-4.19 1.27,-1.78 1.92,-3.71 1.92,-5.78 0,-2.1 -0.62,-3.94 -1.84,-5.52 -1.23,-1.57 -3.25,-2.89 -6.08,-3.97 -1.8,-0.7 -5.8,-1.79 -12,-3.28 -6.2,-1.5 -10.53,-2.89 -13.01,-4.21 -3.22,-1.7 -5.61,-3.8 -7.18,-6.29 -1.58,-2.5 -2.37,-5.31 -2.37,-8.4 0,-3.42 0.98,-6.61 2.91,-9.56 1.93,-2.97 4.74,-5.21 8.46,-6.75 3.7,-1.54 7.83,-2.31 12.37,-2.31 4.99,0 9.4,0.8 13.21,2.42 3.81,1.6 6.75,3.97 8.81,7.11 2.05,3.12 3.15,6.67 3.31,10.63l-8.57 0.66c-0.46,-4.26 -2.01,-7.48 -4.66,-9.64 -2.66,-2.18 -6.58,-3.27 -11.76,-3.27 -5.4,0 -9.34,0.99 -11.8,2.97 -2.47,1.98 -3.71,4.36 -3.71,7.16 0,2.41 0.88,4.41 2.62,5.98 1.73,1.55 6.2,3.17 13.46,4.8 7.25,1.65 12.22,3.08 14.92,4.3 3.91,1.81 6.81,4.08 8.68,6.86 1.87,2.76 2.79,5.95 2.79,9.56 0,3.59 -1.02,6.95 -3.07,10.12 -2.06,3.17 -4.99,5.64 -8.84,7.39 -3.84,1.76 -8.16,2.64 -12.98,2.64 -6.09,0 -11.19,-0.89 -15.3,-2.67 -4.13,-1.77 -7.35,-4.44 -9.68,-8.02 -2.36,-3.56 -3.58,-7.59 -3.71,-12.1zm109.9 -45.77l8.94 0 0 38.94c0,6.78 -0.77,12.17 -2.29,16.15 -1.54,3.97 -4.3,7.22 -8.29,9.72 -4,2.49 -9.22,3.75 -15.72,3.75 -6.3,0 -11.46,-1.08 -15.46,-3.26 -4.02,-2.19 -6.88,-5.33 -8.59,-9.45 -1.71,-4.13 -2.57,-9.77 -2.57,-16.91l0 -38.94 8.95 0 0 38.93c0,5.85 0.54,10.18 1.63,12.95 1.08,2.77 2.93,4.92 5.59,6.42 2.63,1.5 5.87,2.26 9.68,2.26 6.53,0 11.19,-1.5 13.97,-4.46 2.78,-2.98 4.16,-8.7 4.16,-17.17l0 -38.93zm24.03 67.43l0 -67.43 29.88 0c6.01,0 10.58,0.62 13.7,1.82 3.13,1.21 5.62,3.35 7.49,6.41 1.87,3.06 2.79,6.45 2.79,10.15 0,4.79 -1.55,8.82 -4.64,12.1 -3.09,3.28 -7.86,5.36 -14.33,6.25 2.37,1.13 4.16,2.26 5.38,3.36 2.61,2.38 5.07,5.38 7.38,8.98l11.66 18.36 -11.14 0 -8.92 -14.03c-2.59,-4.07 -4.74,-7.16 -6.42,-9.31 -1.69,-2.15 -3.2,-3.64 -4.53,-4.5 -1.32,-0.85 -2.69,-1.45 -4.07,-1.79 -1,-0.21 -2.65,-0.32 -4.96,-0.32l-10.32 0 0 29.95 -8.95 0zm8.95 -37.67l19.14 0c4.08,0 7.25,-0.42 9.55,-1.27 2.29,-0.83 4.03,-2.18 5.21,-4.05 1.19,-1.85 1.79,-3.86 1.79,-6.04 0,-3.19 -1.15,-5.82 -3.46,-7.88 -2.3,-2.06 -5.95,-3.08 -10.92,-3.08l-21.31 0 0 22.32zm51.48 37.67l25.86 -67.43 9.81 0 27.45 67.43 -10.15 0 -7.8 -20.43 -28.39 0 -7.32 20.43 -9.46 0zm19.4 -27.69l22.98 0 -7.04 -18.69c-2.11,-5.68 -3.72,-10.37 -4.83,-14.08 -0.93,4.4 -2.17,8.71 -3.72,12.98l-7.39 19.79zm-592.61 132.9l0 -67.43 48.69 0 0 7.91 -39.74 0 0 20.72 37.19 0 0 7.91 -37.19 0 0 22.98 41.34 0 0 7.91 -50.29 0zm62.53 0l0 -67.43 9.16 0 35.38 52.93 0 -52.93 8.57 0 0 67.43 -9.17 0 -35.37 -52.92 0 52.92 -8.57 0zm91.34 -21.66l8.38 -0.75c0.4,3.39 1.32,6.17 2.78,8.35 1.46,2.16 3.72,3.92 6.78,5.27 3.06,1.33 6.51,2.01 10.34,2.01 3.41,0 6.41,-0.5 9.01,-1.52 2.61,-1.02 4.54,-2.42 5.81,-4.19 1.27,-1.78 1.92,-3.71 1.92,-5.78 0,-2.1 -0.62,-3.94 -1.84,-5.52 -1.23,-1.57 -3.25,-2.89 -6.08,-3.97 -1.8,-0.7 -5.8,-1.79 -12,-3.28 -6.2,-1.5 -10.53,-2.89 -13.01,-4.21 -3.22,-1.7 -5.61,-3.8 -7.18,-6.29 -1.58,-2.5 -2.37,-5.31 -2.37,-8.4 0,-3.42 0.98,-6.61 2.91,-9.56 1.93,-2.97 4.74,-5.21 8.46,-6.75 3.7,-1.54 7.83,-2.31 12.37,-2.31 4.99,0 9.4,0.8 13.21,2.42 3.81,1.6 6.75,3.97 8.81,7.11 2.05,3.12 3.15,6.67 3.31,10.63l-8.57 0.66c-0.46,-4.26 -2.01,-7.48 -4.66,-9.64 -2.66,-2.18 -6.58,-3.27 -11.76,-3.27 -5.4,0 -9.34,0.99 -11.8,2.97 -2.47,1.98 -3.71,4.36 -3.71,7.16 0,2.41 0.88,4.41 2.62,5.98 1.73,1.55 6.2,3.17 13.46,4.8 7.25,1.65 12.22,3.08 14.92,4.3 3.91,1.81 6.81,4.08 8.68,6.86 1.87,2.76 2.79,5.95 2.79,9.56 0,3.59 -1.02,6.95 -3.07,10.12 -2.06,3.17 -4.99,5.64 -8.84,7.39 -3.84,1.76 -8.16,2.64 -12.98,2.64 -6.09,0 -11.19,-0.89 -15.3,-2.67 -4.13,-1.77 -7.35,-4.44 -9.68,-8.02 -2.36,-3.56 -3.58,-7.59 -3.71,-12.1zm109.9 -45.77l8.94 0 0 38.94c0,6.78 -0.77,12.17 -2.29,16.15 -1.54,3.97 -4.3,7.22 -8.29,9.72 -4,2.49 -9.22,3.75 -15.72,3.75 -6.3,0 -11.46,-1.08 -15.46,-3.26 -4.02,-2.19 -6.88,-5.33 -8.59,-9.45 -1.71,-4.13 -2.57,-9.77 -2.57,-16.91l0 -38.94 8.95 0 0 38.93c0,5.85 0.54,10.18 1.63,12.95 1.08,2.77 2.93,4.92 5.59,6.42 2.63,1.5 5.87,2.26 9.68,2.26 6.53,0 11.19,-1.5 13.97,-4.46 2.78,-2.98 4.16,-8.7 4.16,-17.17l0 -38.93zm49.62 67.43l0 -67.43 8.95 0 0 59.52 33.15 0 0 7.91 -42.1 0zm96.92 -67.43l8.94 0 0 38.94c0,6.78 -0.77,12.17 -2.29,16.15 -1.54,3.97 -4.3,7.22 -8.29,9.72 -4,2.49 -9.22,3.75 -15.72,3.75 -6.3,0 -11.46,-1.08 -15.46,-3.26 -4.02,-2.19 -6.88,-5.33 -8.59,-9.45 -1.71,-4.13 -2.57,-9.77 -2.57,-16.91l0 -38.94 8.95 0 0 38.93c0,5.85 0.54,10.18 1.63,12.95 1.08,2.77 2.93,4.92 5.59,6.42 2.63,1.5 5.87,2.26 9.68,2.26 6.53,0 11.19,-1.5 13.97,-4.46 2.78,-2.98 4.16,-8.7 4.16,-17.17l0 -38.93zm55.39 40.97l0 -7.91 28.53 0 0 24.98c-4.38,3.49 -8.9,6.13 -13.56,7.88 -4.66,1.76 -9.45,2.64 -14.34,2.64 -6.63,0 -12.64,-1.41 -18.05,-4.25 -5.4,-2.83 -9.5,-6.94 -12.25,-12.29 -2.76,-5.37 -4.14,-11.37 -4.14,-17.97 0,-6.56 1.37,-12.68 4.11,-18.38 2.75,-5.68 6.69,-9.91 11.84,-12.65 5.15,-2.76 11.08,-4.15 17.8,-4.15 4.86,0 9.27,0.79 13.21,2.37 3.94,1.59 7.03,3.79 9.26,6.6 2.24,2.82 3.94,6.51 5.1,11.05l-8.05 2.19c-1.02,-3.42 -2.28,-6.12 -3.77,-8.1 -1.5,-1.96 -3.64,-3.53 -6.43,-4.7 -2.78,-1.18 -5.87,-1.78 -9.28,-1.78 -4.06,0 -7.58,0.63 -10.56,1.87 -2.97,1.24 -5.35,2.87 -7.19,4.91 -1.82,2.03 -3.23,4.26 -4.24,6.67 -1.71,4.19 -2.57,8.71 -2.57,13.59 0,6.03 1.04,11.07 3.09,15.13 2.07,4.05 5.09,7.07 9.03,9.03 3.95,1.96 8.14,2.95 12.58,2.95 3.86,0 7.63,-0.75 11.3,-2.24 3.68,-1.51 6.45,-3.1 8.35,-4.81l0 -12.63 -19.77 0zm34.31 26.46l25.86 -67.43 9.81 0 27.45 67.43 -10.15 0 -7.8 -20.43 -28.39 0 -7.32 20.43 -9.46 0zm19.4 -27.69l22.98 0 -7.04 -18.69c-2.11,-5.68 -3.72,-10.37 -4.83,-14.08 -0.93,4.4 -2.17,8.71 -3.72,12.98l-7.39 19.79zm50.99 27.69l0 -67.43 29.88 0c6.01,0 10.58,0.62 13.7,1.82 3.13,1.21 5.62,3.35 7.49,6.41 1.87,3.06 2.79,6.45 2.79,10.15 0,4.79 -1.55,8.82 -4.64,12.1 -3.09,3.28 -7.86,5.36 -14.33,6.25 2.37,1.13 4.16,2.26 5.38,3.36 2.61,2.38 5.07,5.38 7.38,8.98l11.66 18.36 -11.14 0 -8.92 -14.03c-2.59,-4.07 -4.74,-7.16 -6.42,-9.31 -1.69,-2.15 -3.2,-3.64 -4.53,-4.5 -1.32,-0.85 -2.69,-1.45 -4.07,-1.79 -1,-0.21 -2.65,-0.32 -4.96,-0.32l-10.32 0 0 29.95 -8.95 0zm8.95 -37.67l19.14 0c4.08,0 7.25,-0.42 9.55,-1.27 2.29,-0.83 4.03,-2.18 5.21,-4.05 1.19,-1.85 1.79,-3.86 1.79,-6.04 0,-3.19 -1.15,-5.82 -3.46,-7.88 -2.3,-2.06 -5.95,-3.08 -10.92,-3.08l-21.31 0 0 22.32z"/>
 </g>
</svg>
