<?xml version="1.0" encoding="UTF-8"?>
<!DOCTYPE svg PUBLIC "-//W3C//DTD SVG 1.1//EN" "http://www.w3.org/Graphics/SVG/1.1/DTD/svg11.dtd">
<!-- Creator: CorelDRAW 2017 -->
<svg xmlns="http://www.w3.org/2000/svg" xml:space="preserve" width="7.3658mm" height="7.3658mm" version="1.1" style="shape-rendering:geometricPrecision; text-rendering:geometricPrecision; image-rendering:optimizeQuality; fill-rule:evenodd; clip-rule:evenodd"
viewBox="0 0 736.58 736.58"
 xmlns:xlink="http://www.w3.org/1999/xlink">
 <defs>
  <style type="text/css">
   <![CDATA[
    .fil0 {fill:none}
    .fil1 {fill:black}
   ]]>
  </style>
 </defs>
 <g id="Capa_x0020_1">
  <metadata id="CorelCorpID_0Corel-Layer"/>
  <rect class="fil0" x="-0" y="-0" width="736.59" height="736.59"/>
  <path class="fil1" d="M344.14 121.56l-1.9 89.63 52 -1.4 0.07 -170.56c0,-50.5 -42.14,-42.94 -49.66,-21.14 -4.05,11.77 -0.51,85.57 -0.51,103.47zm-187.46 567.15l-0.07 9.14c0,35.55 12.96,44.43 44.47,31.6 9.7,-22.4 6.52,-56.32 6.45,-84.29l-50.97 1.95 0.12 41.6zm423.45 -207.72l-49.67 -0.47c-4.19,39.02 -1.21,93.24 -1.21,135 0,31.9 -14,118.23 24.09,119.59 41.77,1.48 26.68,-80.17 26.79,-110.44 0.17,-47.87 0.05,-95.8 0,-143.68zm-50.88 -437.19l0.15 275.93 50.75 -1.6c-0.05,-47.32 7.17,-298.83 -7.85,-311.13 -33.38,-10.26 -43.05,0.32 -43.05,36.8zm1.01 286.66c-95.3,35.84 -39.65,171.47 50.21,138.93 89.5,-32.41 41.97,-173.59 -50.21,-138.93zm-183.33 -110.21c-97.52,32.18 -45.19,174.37 47.25,140.01 90.25,-33.53 41.93,-169.44 -47.25,-140.01zm46.67 150.79l-49.28 0.63c-5.12,39.58 -1.29,220.48 -1.36,285.01 -0.02,26.34 -9.51,75.87 23.17,78.5 36.01,2.89 27.66,-41.66 27.58,-69.35l-0.11 -294.79zm-236.99 -331.81l-0.55 430.1c0.98,10.71 -1.38,9.04 9.72,18.53l7.27 4.71c-95.49,13.89 -79.34,147.85 9.84,146.45 90.66,-1.43 102.16,-135.58 5.5,-147.01 25.95,-19.4 19.26,14.61 19.28,-68.58l-0.61 -320.16c-0.01,-23.5 6.31,-73.31 -3.67,-89.24 -14.85,-23.73 -46.78,-13.85 -46.78,25.2z"/>
 </g>
</svg>
