<?xml version="1.0" encoding="UTF-8"?>
<!DOCTYPE svg PUBLIC "-//W3C//DTD SVG 1.1//EN" "http://www.w3.org/Graphics/SVG/1.1/DTD/svg11.dtd">
<!-- Creator: CorelDRAW 2017 -->
<svg xmlns="http://www.w3.org/2000/svg" xml:space="preserve" width="7.3658mm" height="7.3658mm" version="1.1" style="shape-rendering:geometricPrecision; text-rendering:geometricPrecision; image-rendering:optimizeQuality; fill-rule:evenodd; clip-rule:evenodd"
viewBox="0 0 736.58 736.58"
 xmlns:xlink="http://www.w3.org/1999/xlink">
 <defs>
  <style type="text/css">
   <![CDATA[
    .fil0 {fill:none}
    .fil1 {fill:black}
   ]]>
  </style>
 </defs>
 <g id="Capa_x0020_1">
  <metadata id="CorelCorpID_0Corel-Layer"/>
  <rect class="fil0" x="-0" y="-0" width="736.59" height="736.59"/>
  <rect class="fil0" x="-0" y="-0" width="736.59" height="736.59"/>
  <path class="fil1" d="M299.83 627.33c1.41,2.87 -4.04,1.23 4.9,3.58 5.42,1.41 6.84,0.92 12.39,1.02 14.39,-3.87 22.85,-11.38 23.73,-28.24 0.89,-17.17 0.02,-36.7 0,-54.12 -0.08,-55.94 2.24,-408.78 -0.71,-423.01 -2.55,-12.36 -14.95,-24.24 -31.23,-21.95 -11.66,1.64 -23.21,16.45 -29.37,22.61 -35.83,35.84 -70.08,70.08 -105.91,105.91 -7.34,7.34 -18.08,22.92 -29.53,24.02 -21.13,2.04 -79.52,-1.51 -108.12,-0.09 -14.84,0.75 -26.45,10.34 -28.3,24.44 -3.39,25.78 -0.32,77.43 -0.32,105.95 0,36.01 -6.9,79.87 17.05,89.59 10.82,4.39 87.37,2.35 104.71,2.23 27.04,-0.19 22.44,1.94 36.55,16.42 20.15,20.68 123.26,125.76 134.16,131.64zm149.2 -276.64c7.06,11.84 2.4,34.76 -3.12,44.58 -13.93,24.78 -56.05,27.93 -41.75,60.73 6.28,14.4 21.19,17.78 40.49,13.24 2.87,-3.63 25.12,-14.49 33.34,-24.68 2.21,-2.74 2.55,-3.83 4.67,-6.09 3.54,-3.79 3.45,-3.26 6.33,-5.27 0.53,-7.07 1.92,-6.47 5.53,-13.23 2.42,-4.53 4.37,-8.67 6.12,-13.27 3.57,-9.35 5.66,-19.4 6.68,-30.07 0.17,-13.12 0.78,-28.45 -4.48,-38.91 -4.95,-20.7 -17.44,-39.54 -29.19,-50.6 -56.5,-53.18 -88.81,0.4 -62.98,24.09 16.25,14.9 31.37,14.7 38.36,39.48zm2.03 -178.66c-24.12,38.75 27.87,47.77 48.42,65.5 52.86,45.6 77.95,109.83 56.16,180.91 -8.76,28.62 -33.37,63.7 -49.55,74.84 -5.63,4.64 -4.85,5.46 -10.97,8.65l-21.62 13.05c-12.61,7.89 -17.39,8.11 -24.11,19.45 -12.61,9.01 -2.7,76.93 82.11,11.16 24.23,-18.79 41.39,-39.54 57.27,-65.91 3.22,-5.36 11.79,-23.41 13.64,-25.23 1.42,-5.1 2.42,-8.83 4,-13.44 0.65,-1.92 0.96,-3.01 1.78,-4.71 2.64,-5.48 0.54,-2.19 3.6,-5.67 -1.74,-20.01 27.28,-84.5 -22.44,-172.75 -21.86,-38.8 -62.47,-79.6 -110.11,-95.94 -14.86,-0.54 -21.04,1.13 -28.18,10.09zm49.84 -107.51c-5.63,3.69 -6.09,4.63 -9.38,12.03 -9.81,27.47 12.32,35.26 30.2,43.56 14.99,6.95 34.03,20.02 46.14,29.56 93.04,73.37 135.48,205.24 85.82,323.52 -27.5,65.49 -67.1,106.31 -124.66,139.14 -8.26,4.71 -18.18,7.45 -24.79,11.98 -16.97,11.64 -22.04,37.47 -1.77,48.97 18.25,10.36 39.29,-5.1 55.08,-13.03 50.72,-25.43 73.98,-60.8 84.49,-63.88 2.37,-6.27 0.86,-3.3 4.78,-5.38 1.13,-6.12 -2.57,0.7 3.02,-7.07 1.44,-2.01 2.61,-2.76 4.1,-4.49 4.7,-5.45 3.15,-6.38 9.41,-9 2.44,-7.85 -0.69,-5.11 7.22,-9.38 2.42,-16.87 56.65,-68.82 59.4,-186.58l0 -6.49 0.53 -27.65 -3.83 -18.9c-0.85,-6.75 -1.75,-12.05 -2.99,-18.39 -10.24,-52.27 -34.4,-102.27 -66.57,-143.19l-38.26 -42.69c-8.48,-2.92 -4.47,-1.3 -11.36,-7.24 -0.26,-0.23 -4.39,-3.74 -4.54,-3.89 -3.46,-3.42 -2.09,-0.48 -2.65,-3.66 -10.98,-5.41 -18.02,-12.2 -29.13,-18.6 -5.11,-2.94 -25.39,-12.85 -27.07,-15.89 -16.53,-4.34 -25.22,-13.65 -43.19,-3.36z"/>
 </g>
</svg>
