<?xml version="1.0" encoding="UTF-8"?>
<!DOCTYPE svg PUBLIC "-//W3C//DTD SVG 1.1//EN" "http://www.w3.org/Graphics/SVG/1.1/DTD/svg11.dtd">
<!-- Creator: CorelDRAW 2017 -->
<svg xmlns="http://www.w3.org/2000/svg" xml:space="preserve" width="29.74mm" height="29.74mm" version="1.1" style="shape-rendering:geometricPrecision; text-rendering:geometricPrecision; image-rendering:optimizeQuality; fill-rule:evenodd; clip-rule:evenodd"
viewBox="0 0 2974 2974"
 xmlns:xlink="http://www.w3.org/1999/xlink">
 <defs>
  <style type="text/css">
   <![CDATA[
    .fil1 {fill:#121212}
    .fil0 {fill:white}
   ]]>
  </style>
 </defs>
 <g id="Capa_x0020_1">
  <metadata id="CorelCorpID_0Corel-Layer"/>
  <g id="_2188888297952">
   <path class="fil0" d="M1087.7 1561.03c-2.71,-99.6 33.2,-88.13 88.84,-150.58 52.91,-59.39 14.72,-92.11 0.67,-173.24 -39.6,-228.83 148.72,-34.66 266.07,-68.85 77.49,-22.57 91.39,-74.88 149.17,-100.14 91.4,-39.96 71.65,47.63 87.73,116.21 47.07,200.76 171.8,99.18 248.27,210.7 -20.27,86 -20.55,45.96 -87.23,94.46 -35.03,25.48 -74.43,62.37 -103.25,91.94l36.36 196.98c-87.3,2.13 -186.69,-57.3 -232.63,-44.68 -59.2,16.25 -145.19,94.99 -180.53,106.71 -43.6,-25.76 -51.49,-44.53 -69.53,-98 -80.18,-237.74 -66.86,-59.49 -203.94,-181.51zm1166.49 78.25c131.32,-16.26 118.43,-97.49 203.32,-164.15 167.71,-26.46 102.6,117.57 267.6,17.76 58.13,-35.16 153.18,-143.61 179.87,-193.71 -57,-66.34 -249.07,-200.75 -323.81,-212.35 -72.75,65.33 -43.47,73.88 -92.78,149.22 -84.73,-5.46 -163.78,-144.71 -290.02,-130.82 -124.1,13.65 -439.67,219.35 -272.99,-57.39 21.16,-35.13 39.37,-100.83 58.18,-142.78 69.99,-156.03 -34.5,-145.74 -81.03,-265.71 65.96,-34.17 129.45,-63.49 180.89,-109.13 -7.74,-99.31 -150.95,-308.33 -181.8,-339.55 -96.46,32.8 -184.47,80.09 -248.37,137.24 -130.85,117.04 49.83,192.5 2.07,264.82 -55.32,83.77 -189.1,-39.05 -211.91,173.26 -6.44,59.88 -4.34,114.33 -12.45,174.96 -12.64,94.51 -1.76,72.98 -69.79,111.46 -107.22,-70.33 -109.94,-338.99 -290.33,-320.41 -29.63,3.05 -54.25,18.22 -89.38,23.08 -171.02,23.63 16.95,-169.08 -83.53,-242.11l-247.29 -30.01c-99.29,5.73 -31.04,-5.22 -61.02,20.92 -28.98,43.81 -38.04,222.61 -22.31,263.76 31.79,83.18 142.27,47.12 195.6,114.82 30.29,101.37 -108.2,140.8 67.43,317.46 35.89,36.08 76.9,71.22 123.34,108.39 49.22,39.39 111.29,40.49 84.85,101.36 -24.2,29.44 -138.46,2.99 -171.16,0.84 -339.65,-22.32 -266.36,-20.13 -370.85,184.52 -141.96,2.58 -52.61,-16.24 -154.48,-77.27 -52.56,23.45 -37.83,14.83 -73.52,50.65 -43.02,43.18 -29.24,24.73 -67.94,56.22 -42.64,34.7 -77.63,89.88 -106.31,141.29 91.91,68.35 159.59,143.9 313.3,153.96 21.9,-33.62 36.7,-70.45 58.91,-106.34 106.69,3.19 65.42,43.04 168.26,76.5 245.12,79.74 383.65,-196.97 537.18,-89.54 -14.49,55.8 -123.06,223.14 -160.76,294.31 -121.41,229.12 82.08,140.15 86.28,288.57 -49.39,43.87 -74.03,16.52 -135.8,61.77 -22.37,155.34 33.18,261.08 87.59,355.67 42.74,-15.19 114.32,-55.12 169.45,-81.45 208.6,-99.59 57.71,-187 50.69,-258.78 81.32,-66.91 213.73,-86.53 241.89,-190.08 13.13,-48.31 20.61,-143.17 18.86,-195.97l-7.87 -149.62c11.28,-70.21 26.43,-48.31 50.86,-44.21 39.53,6.62 20.38,-1.63 66.77,100.48 22.96,50.54 45.38,119.67 69.61,161.97 132.57,231.47 245.79,142.08 295.78,167.91l49.08 57.61 -29.59 112.6c61.65,39.42 63.63,52.6 154.25,72.62 36.96,8.16 164.72,29.61 190.46,-0.66 17.9,-54.04 49.4,-267.11 5.06,-317.72 -47.96,-54.75 -104.55,4.34 -139.56,-46.3 -47.2,-68.24 45.85,-221.13 -55.73,-299.12 -127.6,-97.98 -261.19,-173.21 -259.26,-276 134.9,-11.16 244.74,36.26 334.21,25.18z"/>
   <path class="fil1" d="M1901.62 190.67c30.85,31.22 174.06,240.24 181.8,339.55 -51.44,45.64 -114.93,74.96 -180.89,109.13 46.53,119.97 151.02,109.68 81.03,265.71 -18.81,41.95 -37.02,107.65 -58.18,142.78 -166.68,276.74 148.89,71.04 272.99,57.39 126.24,-13.89 205.29,125.36 290.02,130.82 49.31,-75.34 20.03,-83.89 92.78,-149.22 74.74,11.6 266.81,146.01 323.81,212.35 -26.69,50.1 -121.74,158.55 -179.87,193.71 -165,99.81 -99.89,-44.22 -267.6,-17.76 -84.89,66.66 -72,147.89 -203.32,164.15 -89.47,11.08 -199.31,-36.34 -334.21,-25.18 -1.93,102.79 131.66,178.02 259.26,276 101.58,77.99 8.53,230.88 55.73,299.12 35.01,50.64 91.6,-8.45 139.56,46.3 44.34,50.61 12.84,263.68 -5.06,317.72 -25.74,30.27 -153.5,8.82 -190.46,0.66 -90.62,-20.02 -92.6,-33.2 -154.25,-72.62l29.59 -112.6 -49.08 -57.61c-49.99,-25.83 -163.21,63.56 -295.78,-167.91 -24.23,-42.3 -46.65,-111.43 -69.61,-161.97 -46.39,-102.11 -27.24,-93.86 -66.77,-100.48 -24.43,-4.1 -39.58,-26 -50.86,44.21l7.87 149.62c1.75,52.8 -5.73,147.66 -18.86,195.97 -28.16,103.55 -160.57,123.17 -241.89,190.08 7.02,71.78 157.91,159.19 -50.69,258.78 -55.13,26.33 -126.71,66.26 -169.45,81.45 -54.41,-94.59 -109.96,-200.33 -87.59,-355.67 61.77,-45.25 86.41,-17.9 135.8,-61.77 -4.2,-148.42 -207.69,-59.45 -86.28,-288.57 37.7,-71.17 146.27,-238.51 160.76,-294.31 -153.53,-107.43 -292.06,169.28 -537.18,89.54 -102.84,-33.46 -61.57,-73.31 -168.26,-76.5 -22.21,35.89 -37.01,72.72 -58.91,106.34 -153.71,-10.06 -221.39,-85.61 -313.3,-153.96 28.68,-51.41 63.67,-106.59 106.31,-141.29 38.7,-31.49 24.92,-13.04 67.94,-56.22 35.69,-35.82 20.96,-27.2 73.52,-50.65 101.87,61.03 12.52,79.85 154.48,77.27 104.49,-204.65 31.2,-206.84 370.85,-184.52 32.7,2.15 146.96,28.6 171.16,-0.84 26.44,-60.87 -35.63,-61.97 -84.85,-101.36 -46.44,-37.17 -87.45,-72.31 -123.34,-108.39 -175.63,-176.66 -37.14,-216.09 -67.43,-317.46 -53.33,-67.7 -163.81,-31.64 -195.6,-114.82 -15.73,-41.15 -6.67,-219.95 22.31,-263.76 29.98,-26.14 -38.27,-15.19 61.02,-20.92l247.29 30.01c100.48,73.03 -87.49,265.74 83.53,242.11 35.13,-4.86 59.75,-20.03 89.38,-23.08 180.39,-18.58 183.11,250.08 290.33,320.41 68.03,-38.48 57.15,-16.95 69.79,-111.46 8.11,-60.63 6.01,-115.08 12.45,-174.96 22.81,-212.31 156.59,-89.49 211.91,-173.26 47.76,-72.32 -132.92,-147.78 -2.07,-264.82 63.9,-57.15 151.91,-104.44 248.37,-137.24zm525.92 2440.04c29.42,-63.99 61.05,-233.52 55.73,-321.19 -2.99,-49.28 -13.5,-112.46 -45.08,-138.29 -40.3,-32.97 -83.71,-18.62 -138.27,-50.35 8.89,-160.09 24.22,-169.22 -55.49,-265.08 -141.68,-170.35 -127.68,-57.13 -158.03,-152.62 247.3,82.16 304.37,-36.7 423.33,-148.51 102.65,103.61 207.53,65.44 296.43,-27.27 51.46,-53.67 202.26,-159.36 160.66,-252.82 -23.93,-53.76 -225.83,-201.88 -240.81,-209.78 -140.34,-73.99 -211.36,-66.6 -266.62,67.7 -93.22,-33.63 -92.24,-86.34 -225.25,-100.34 -75.64,-7.95 -178.56,49.53 -256.02,52.66 21.04,-44.98 93.86,-166.02 103.86,-204.04 34.88,-132.48 -41.15,-148.1 -57.73,-226.83 54.52,-32.96 105.96,-37.54 120.64,-112.26 29.55,-150.46 -146.36,-309.04 -195.52,-442.72 -89.94,2.36 -110.24,29.56 -166.73,65.17 -274.04,172.82 -281.18,102.01 -226.38,382.63 -202.3,83.09 -176.73,99.58 -199.1,352.55 -132.18,-144.16 -103.48,-311.53 -367.94,-229.87 -2.05,-153.25 14.26,-213.85 -135.02,-248.92 -60.66,-14.26 -121.42,-9.19 -181.62,-20.48 -56.67,-10.63 -90.47,-29.56 -124.15,11.21 -19.16,23.2 -113.48,368.78 4.03,464.77l119.53 50.65c14.75,-26.75 12.52,212.36 13.2,250.4 70.95,41.04 112.59,86.45 152.2,155.38 -418.19,2.28 -233.15,-27.45 -402.31,168.69 -47.98,-29.09 -76.21,-82.08 -135.34,-57.01 -100.26,42.51 -307.88,281.71 -299.48,320.87 35.06,87.77 164.15,135.94 247.15,187.48 108.75,67.54 211.79,95.25 258.26,-49.09 85.61,28.65 139.57,119.79 272.41,82.52 79.46,-22.29 195.63,-92 261.48,-95.49 -41.68,72.74 -76.56,129.57 -117.36,224.22 -71.27,165.34 -5.58,154.02 37.63,222.41 -20.66,59.28 -1.55,7.98 -48.74,59.17 -13.27,14.39 -30.08,34.46 -39.89,54.15 -41.71,83.75 97.93,382.77 123.53,424.14 136.58,8.03 213,-80.73 308.65,-132.11 100.62,-54.05 138.1,-83.57 96.29,-197.41 -80.52,-219.21 161.46,88.59 207.66,-424.32 70.04,68.74 48.12,241.48 356.58,277.3 -14.71,177.29 -20.05,165.34 140.07,215.08 90.21,28.03 222.41,44.94 323.56,17.65z"/>
   <path class="fil1" d="M1254.38 1209.19c68.74,9.75 139.09,53.69 194.24,42.58 53.13,-10.71 53.81,-48.77 159.36,-73.66 27.09,227.32 72.54,133.08 198.75,232.47 -42.61,86.15 -65.45,36.47 -122.52,91.73 -48.16,46.64 -14.33,90.62 -14.4,174.73 -87.03,-11.02 -85.98,-33.84 -155.07,-47.89 -45.27,60.53 -75.75,62.77 -138.32,109.58 -21.14,-140.06 -23.69,-148.16 -123.06,-189.14l-64.31 -30.93c30.59,-67.23 75.87,-38.67 89.31,-128.06 8.89,-59.18 -27.22,-90.54 -23.98,-181.41zm-166.68 351.84c137.08,122.02 123.76,-56.23 203.94,181.51 18.04,53.47 25.93,72.24 69.53,98 35.34,-11.72 121.33,-90.46 180.53,-106.71 45.94,-12.62 145.33,46.81 232.63,44.68l-36.36 -196.98c28.82,-29.57 68.22,-66.46 103.25,-91.94 66.68,-48.5 66.96,-8.46 87.23,-94.46 -76.47,-111.52 -201.2,-9.94 -248.27,-210.7 -16.08,-68.58 3.67,-156.17 -87.73,-116.21 -57.78,25.26 -71.68,77.57 -149.17,100.14 -117.35,34.19 -305.67,-159.98 -266.07,68.85 14.05,81.13 52.24,113.85 -0.67,173.24 -55.64,62.45 -91.55,50.98 -88.84,150.58z"/>
   <path class="fil0" d="M1254.38 1209.19c-3.24,90.87 32.87,122.23 23.98,181.41 -13.44,89.39 -58.72,60.83 -89.31,128.06l64.31 30.93c99.37,40.98 101.92,49.08 123.06,189.14 62.57,-46.81 93.05,-49.05 138.32,-109.58 69.09,14.05 68.04,36.87 155.07,47.89 0.07,-84.11 -33.76,-128.09 14.4,-174.73 57.07,-55.26 79.91,-5.58 122.52,-91.73 -126.21,-99.39 -171.66,-5.15 -198.75,-232.47 -105.55,24.89 -106.23,62.95 -159.36,73.66 -55.15,11.11 -125.5,-32.83 -194.24,-42.58z"/>
  </g>
 </g>
</svg>
