<!-- Generated by IcoMoon.io -->
<svg version="1.1" xmlns="http://www.w3.org/2000/svg" width="32" height="32" viewBox="0 0 32 32">
<title>corazon</title>
<path d="M22.646 3.725c-2.602 0-4.994 1.196-6.612 3.166-1.618-1.97-4.009-3.166-6.612-3.166-4.713 0-8.582 3.869-8.582 8.582 0 2.181 0.774 4.221 2.251 5.838 0 0.070 0.070 0.070 0.070 0.141l8.511 8.23c1.196 1.196 2.814 1.759 4.361 1.759s3.095-0.563 4.361-1.759l8.441-8.3c0 0 0.070-0.070 0.070-0.141 1.477-1.618 2.251-3.658 2.251-5.838 0.070-4.643-3.799-8.512-8.512-8.512zM27.852 17.302l-8.441 8.23c-1.899 1.829-4.924 1.829-6.823 0l-8.371-8.16c0 0 0-0.070-0.070-0.070-1.266-1.337-1.969-3.095-1.969-4.994 0-4.010 3.236-7.245 7.246-7.245 2.462 0 4.713 1.266 6.049 3.306 0.282 0.352 0.844 0.352 1.126 0 1.337-2.11 3.587-3.306 6.049-3.306 4.010 0 7.245 3.236 7.245 7.245 0 1.829-0.703 3.587-2.040 4.994zM25.32 8.368c-0.141 0.211-0.281 0.281-0.492 0.281-0.070 0-0.211 0-0.281-0.070-0.281-0.211-0.703-0.352-1.055-0.492-0.281-0.070-0.422-0.422-0.352-0.704s0.422-0.422 0.704-0.352c0.422 0.141 0.844 0.352 1.266 0.563 0.281 0.141 0.352 0.492 0.211 0.774zM27.993 12.448c0 0.211-0.070 0.492-0.070 0.704 0 0.281-0.281 0.492-0.563 0.492h-0.070c-0.281-0.070-0.492-0.352-0.492-0.633 0-0.211 0-0.352 0-0.563 0-1.125-0.352-2.18-1.055-2.954-0.211-0.211-0.141-0.562 0.070-0.774s0.563-0.14 0.774 0.070c0.844 1.055 1.337 2.322 1.407 3.658z"></path>
</svg>
