<!-- Generated by IcoMoon.io -->
<svg version="1.1" xmlns="http://www.w3.org/2000/svg" width="32" height="32" viewBox="0 0 32 32">
<title>corazon-rayado</title>
<path d="M11.282 22.506v0zM1.964 10.389c0.046 0.041 0.113 0.069 0.204 0.081 0.574 0.076 0.888-1.207 1.776-1.444l-1.075 1.251c-0.414 0.415-0.844 0.691-0.905 1.421 1.691 1.129 0.47 0.919 1.514 1.162-0.082 0.986-1.195 0.754-0.156 1.786 0.423 0.421 0.397 0.323 0.972 0.19-0.232 0.438-0.534 0.818-0.582 1.394 0.567 0.379 0.77 0.544 1.467 0.070 0.786-0.533 2.47-2.337 3.425-2.975-0.22 0.821-1.65 1.401-2.494 2.741-0.212 0.337-0.152 0.349-0.39 0.657-0.347 0.449-0.577 0.747-0.844 1.25l0.154 0.195c0.166 0.185 0.334 0.374 0.66 0.371 0.521-0.004 0.424-0.314 0.933-0.45-0.141 0.21-0.303 0.394-0.466 0.581 0.703 1.048 1.431 0.463 2.994-0.848l1.987-1.853c0.239-0.22 0.407-0.406 0.639-0.64 0.513-0.516 0.85-0.714 1.396-1.164 0.403-0.332 4.042-3.185 4.399-3.28-0.282 0.42-0.79 0.75-1.231 1.096l-6.375 5.377c-0.726 0.605-1.918 1.612-1.945 2.823-0.848-0.070-0.135-0.593-1.284 0.345-0.258 0.21-0.144 0.051-0.346 0.352 0.399 0.106 0.714 0.819 1.466-0.164 0.281-0.368 0.875-0.877 1.329-0.998-0.373 0.556-1.444 1.284-1.565 1.925-0.064 0.337 0.1 0.4 0.284 0.747 1.578 0 1.076-0.89 2.097-1.162-0.101 0.379-0.336 0.525-0.699 1.279 0.218 0.115 0.592 0.294 0.847 0.33 0.59 0.083 0.549-0.105 1.017-0.214-0.45 0.671-1.165 0.516-1.165 1.743 0.913 0.482 0.593 0.159 1.46 0.282 1.8 0.254 0.621-0.348 3.431-2.491 0.754-0.575 1.471-1.163 2.215-1.742 0.439-0.342 1.914-1.632 2.33-1.743-0.274 0.407-0.456 0.496-0.833 0.796-0.783 0.622-2.811 3.147-4.243 4.249-0.348 0.269-0.532 0.495-0.836 0.793-0.441 0.431-0.612 0.371-0.612 1.133 1.141 0.762 1.125 0.21 1.833-0.495 0.57-0.569 0.945-1.057 1.516-1.625l3.174-2.992c-0.135 0.505-0.567 0.707-0.932 1.394l0.461-0.131c-0.206 0.411-0.345 0.679-0.461 1.176 0.645-0.172 0.097-0.33 0.932-0.348-0.237 0.446-0.778 1.165-1.136 1.539-0.476 0.497-0.746 1.183-1.543 1.249 0.022-0.999 0.408-0.218 0.233-1.046-1.216 0.324-0.925 0.017-1.577 0.635-0.452 0.427-0.854 0.905-0.869 1.573 1.151 0.608 0.9 0.074 1.863 1.511 1.039 0 1.692-0.707 2.296-1.428l0.873-0.988c0.387-0.542 0.034-0.711 0.653-1.207 0.719-0.575 1.314-1.109 2.028-1.696 0.659-0.542 1.748-1.003 1.954-1.885-0.289-0.136-0.415 0.144-0.466-0.465-0.251 0.168-0.342 0.266-0.699 0.349 0.509-0.758 0.35-0.946 0.98-1.463 0.539-0.442 0.367-0.526 1.262-1.413 0.309-0.306 0.667-0.51 0.786-0.959-0.242-0.278-0.223-0.318-0.582-0.349-0.035 0.428-0.037 0.43-0.466 0.465 0.345-0.65 2.402-2.63 3.032-3.484 0.667-0.905 0.32-0.743-0.12-1.397l1.089-0.656c0.016-0.009 0.052-0.025 0.076-0.041-0.218-0.005-0.577-0.050-0.696-0.12-0.349-0.204-0.224-0.044-0.236-0.578 0.411-0.096 0.383-0.116 0.932-0.116 0.155 0.323 0.116 0.225 0.116 0.698 1.060-0.247 0.076-0.454 0.303-1.193 0.173-0.563 0.494-0.64 0.513-1.48-0.527-0.012-0.463-0.116-1.049-0.116-0.102 0.383-0.833 1.565-1.096 1.927-0.584 0.804-0.802 1.012-1.586 1.555-0.85 0.588-0.303 1.068-1.658 1.367-1.199 0.265-1.248 0.858-2.066 1.077 0.897-1.335 2.59-2.398 3.699-3.515l3.64-3.689-0.672-0.724c-0.816 0.443-1.106 0.951-1.821 1.374-0.379 0.224-0.748 0.302-1.020 0.609-0.362 0.407-0.236 0.558-0.913 0.716 0.383 0.57 0.514 0.139 0.699 0.929-0.805 1.199-1.281 0.233-1.442 0.037-0.281-0.342-0.172-0.192-0.655-0.153l3.362-2.921c0.576-0.454 0.715-0.369 0.715-1.378-0.613-0.143-0.318-0.143-0.932 0l-0.134-0.694-1.264 0.112c0.101-0.431 0.192-0.325 0.233-0.813-1.49-0.786-1.246 0.588-2.563 0.697 0.215-0.319 0.701-0.883 0.166-1.098-0.588-0.236-0.873 0.29-1.213 0.518-0.467-1.746-3.147 0.954-4.244 1.808l-1.613 1.298c-0.446 0.375-0.454 0.372-0.317 0.961-1.010 0.533-2.547 2.131-3.378 2.324 0.328-0.489 0.854-0.782 1.163-1.281 0.168-0.272 0.213-0.435 0.421-0.741 0.221-0.324 0.358-0.419 0.396-0.883-0.661 0-1.319 0.213-1.729 0.482-0.408 0.266-0.843 0.791-1.299 0.912 0.331-0.493 0.547-0.457 0.884-0.861 0.303-0.365 0.407-0.719 0.979-0.766 0-1.396-1.195-0.894-1.839-0.092-0.984 1.227-1.12 1.535-1.889 1.022 0.231-0.862 0.848-0.525 1.864-2.44-1.516-0.726-1.378 0.243-2.33 0.464 0.293-0.399 1.307-0.846 0.932-1.627-0.702-0.336-0.937 0.060-1.264 0.482-0.181 0.233-2.661 2.508-3.162 2.772 0.217-0.813 2.652-2.265 2.878-3.079 0.21-0.754-0.53-1.084-1.394-0.089-0.463 0.534-0.858 1.227-1.601 1.424 0.58-0.865 0.663-0.090 1.514-1.859-0.978 0.022-1.327 0.841-2.33 1.511 0.046-0.554 0.147-0.227 0-0.581-0.639 0.426-0.709 0.54-1.199 1.128-0.305 0.365-0.883 0.954-1.247 1.196 0.127 0.239 0.162 0.275 0.233 0.581-0.001 0.001-0.691 0.74-0.932 1.3v0.527zM11.399 22.389v0zM11.515 22.273v0zM11.515 22.273c0.103-0.384 0.315-0.594 0.699-0.696l-0.699 0.696zM9.651 20.646c0.116-0.495 0.14-0.489 0.54-0.739 0.728-0.456 0.355-0.381 0.858-0.423v1.278c-0.251 0.168-0.343 0.266-0.699 0.348-0.179-0.267-0.222-0.234-0.233-0.697-0.283 0.19-0.118 0.13-0.466 0.233zM9.185 19.717v0zM19.436 18.671c0.199-0.297 0.199-0.363 0.582-0.465-0.199 0.296-0.2 0.363-0.582 0.465zM20.135 18.090v0zM20.252 17.973v0zM20.368 17.857v0zM20.368 17.857v0zM6.623 18.090c0.144-0.619 0.851-1.209 1.329-1.579 0.305-0.236 0.5-0.369 0.802-0.595 0.306-0.229 0.547-0.521 0.898-0.614-0.214 0.318-0.399 0.47-0.699 0.698-0.329 0.25-0.483 0.463-0.798 0.714-0.545 0.436-1.050 1.056-1.531 1.377zM12.796 21.227c0-0.451-0.038-0.299 0.253-0.909 0.216-0.451 0.136-0.245 0.623-0.424l2.653-2.235c0.447-0.578-0.128 0.090 0.199-0.614 1.415-0.329 0.704-0.107 1.845-0.948 0.274-0.203 0.622-0.359 0.853-0.543 0.486-0.385 0.125-0.444 0.796-0.601-0.121 0.452-1.27 1.441-1.66 1.831-0.62 0.619-1.156 1.256-1.834 1.772l-1.836 1.654c-0.119 0.11-1.892 2.106-1.892 1.018zM9.651 15.301c0.199-0.296 0.2-0.363 0.582-0.464-0.199 0.296-0.199 0.363-0.582 0.464zM25.493 14.72c-1.18 1.758-2.126 2-2.863 2.954-0.302 0.391-0.512 0.832-1.097 0.881 0.715-1.065 1.802-2.196 2.847-2.97 0.411-0.305 0.612-0.732 1.113-0.865zM10.35 14.72v0zM4.293 14.836v0zM25.493 14.72v0zM10.467 14.604v0zM22.581 14.488v0zM10.699 14.488v0zM10.816 14.371v0zM10.932 14.255v0zM11.049 14.139v0zM11.049 14.139v0zM13.495 16.23c0.229-0.198 0.335-0.342 0.534-0.63l3.261-3.021c0.429-0.335 0.951-0.945 1.564-0.996-0.366 0.69-0.436 0.521-1.25 1.309-0.287 0.279-0.419 0.315-0.703 0.578l-2.856 2.621c-0.287 0.292 0.001 0.267-0.55 0.14zM12.796 11.001v0zM12.913 10.885v0zM17.572 10.885c0.204-0.305 0.059-0.241 0.466-0.349-0.204 0.304-0.059 0.241-0.466 0.349zM18.155 10.42v0zM18.155 10.42v0zM19.785 12.279c-0.045-0.539 0.125-0.203-0.233-0.464l-0.58 0.354c0.16-0.701 0.822-1.124 1.512-1.284-0.084 0.355-0.182 0.447-0.35 0.697 0.971-0.226 0.762-0.817 2.377-1.928 0.343-0.236 0.56-0.412 0.884-0.628-0.16 0.686-0.703 0.623-1.717 1.656-0.365 0.371-0.534 0.497-0.945 0.8-0.391 0.287-0.6 0.565-0.948 0.797zM6.041 8.329v0zM23.979 6.935v0zM24.095 6.818v0zM24.212 6.586v0zM5.924 6.586v0zM24.328 6.47v0zM24.444 6.354v0zM24.444 6.354c0.13-0.176 0.231-0.235 0.424-0.392 0.301-0.245 0.115-0.201 0.509-0.306-0.247 0.369-0.431 0.581-0.932 0.698zM25.493 5.54v0zM25.61 5.424v0zM25.726 5.308v0zM25.842 5.191v0zM23.512 5.075v0z"></path>
<path d="M18.504 21.924c-0.302 0.202-0.592 0.413-0.699 0.814 0.292-0.078 0.208 0.007 0.428-0.27 0.145-0.183 0.215-0.331 0.271-0.543z"></path>
</svg>
