<!-- Generated by IcoMoon.io -->
<svg version="1.1" xmlns="http://www.w3.org/2000/svg" width="32" height="32" viewBox="0 0 32 32">
<title>corazones-love</title>
<path d="M10.691 13.007c0 1.523 0.154 2.631 0.978 3.862-0.333 0.384-1.138 2.263-1.173 2.689-0.181-0.015-0.929-0.417-1.174-0.537l-1.776-0.815c-1.314-0.666-2.779-1.181-3.721-2.39-0.787-1.011-1.369-2.653-0.606-3.778 0.914-1.349 3.243-0.109 3.658 0.676 0.277-0.147 0.579-0.303 0.841-0.479 0.527-0.353 0.339-0.147 0.507-0.812 0.567-2.24 2.915-3.94 4.225-1.984-0.43 0.228-0.945 1.016-1.189 1.451-0.248 0.442-0.571 1.449-0.571 2.118zM1.598 13.419v-0.215c0.028-0.862 0.396-1.635 1.208-2.020 1.666-0.79 3.984 0.418 4.414 0.454 0.066-0.798 0.614-2.159 1.16-2.702 0.882-0.876 1.759-1.111 2.995-1.111 0.761 0 1.557 0.383 1.956 0.978 0.226-0.053 0.356-0.132 0.586-0.196 1.701-0.471 3.649-0.318 5.218 0.307 0.632 0.252 1.266 0.575 1.738 1.049 0.163 0.163 0.292 0.33 0.476 0.453l-0.405 0.523c-0.112 0.149-0.256 0.415-0.377 0.503-0.095-0.409-0.46-0.699-0.745-0.966-0.578-0.541-1.538-0.927-2.33-1.092-3.172-0.659-5.919 0.552-5.919 4.208 0 2.29 1.041 3.7 2.431 5.097 0.415 0.417 0.891 0.775 1.348 1.145l1.048 0.859c1.184 1.101 1.677 1.706 2.338 3.284l0.754 1.739 2.726-3.141c0.432-0.49 0.993-0.994 1.466-1.467 0.416-0.416 1.4-1.395 1.765-1.853 0.317-0.397 0.72-0.759 1.034-1.166 0.426-0.552 0.87-1.062 1.299-1.635 1.865-2.487 2.234-5.917-0.106-8.261l-0.253-0.236c-1.703-1.517-4.197-1.333-5.894 0.045-0.276 0.225-1.074 0.876-1.158 1.189-0.161-0.038-0.589-0.338-0.782-0.44 0.391-0.583 0.866-1.084 1.418-1.515 0.2-0.156 0.331-0.264 0.571-0.407 0.768-0.457 1.755-0.913 2.949-0.913 1.138 0 2.501 0.431 3.488 0.961 0.933 0.501 1.74 1.174 2.267 2.133 0.547 0.995 0.65 1.829 0.65 2.968 0 1.541-0.672 2.92-1.352 4.172l-1.299 1.83c-1.29 1.48-1.538 1.533-2.739 2.736-0.279 0.28-0.529 0.48-0.807 0.758s-0.528 0.479-0.807 0.758c-0.656 0.657-1.732 1.704-2.293 2.4-0.46 0.571-0.967 1.163-1.313 1.816-0.27-0.006-0.615-0.119-0.9-0.175-0.385-0.075-0.652-0.043-0.748-0.328-0.446-1.332-0.478-1.788-1.275-2.978-0.701-1.049-2.358-2.59-3.418-3.475l-1.346-1.343c-0.132-0.15-0.337-0.456-0.477-0.55 0.127 0.543-0.281 0.105-0.728 1.521-0.304 0.964-0.111 1.071-0.56 1.2-0.238 0.068-0.215 0.105-0.375 0.212-0.536-0.466-1.305-0.773-1.923-1.108-0.228-0.123-0.448-0.198-0.669-0.309-1.109-0.56-2.3-1.036-3.406-1.63-0.224-0.12-0.407-0.253-0.605-0.372-0.436-0.262-0.73-0.568-1.085-0.919-0.725-0.716-1.179-1.788-1.21-2.778z"></path>
</svg>
