<?xml version="1.0" encoding="UTF-8"?>
<!DOCTYPE svg PUBLIC "-//W3C//DTD SVG 1.1//EN" "http://www.w3.org/Graphics/SVG/1.1/DTD/svg11.dtd">
<!-- Creator: CorelDRAW 2017 -->
<svg xmlns="http://www.w3.org/2000/svg" xml:space="preserve" width="9.2286mm" height="8.0432mm" version="1.1" style="shape-rendering:geometricPrecision; text-rendering:geometricPrecision; image-rendering:optimizeQuality; fill-rule:evenodd; clip-rule:evenodd"
viewBox="0 0 922.86 804.32"
 xmlns:xlink="http://www.w3.org/1999/xlink">
 <defs>
  <style type="text/css">
   <![CDATA[
    .fil0 {fill:none}
    .fil1 {fill:#ED3237}
   ]]>
  </style>
 </defs>
 <g id="Capa_x0020_1">
  <metadata id="CorelCorpID_0Corel-Layer"/>
  <rect class="fil0" y="-0" width="922.86" height="804.33"/>
  <path class="fil1" d="M549.4 70.43c10.71,3.18 6.39,13.47 5.19,27.25 -11.26,-10.97 -1.86,-0.22 -4.73,-7.89l-3.86 -9.44c-9.27,3.55 7.34,4.98 -17.16,-0.8 7.49,8.73 9.16,10.01 4.3,9.92 -0.61,0.63 -1.31,1.74 -1.65,2.05 -8.4,7.53 -6.64,6.73 -14.53,5.2l-7.76 19.76c-4.19,4.9 -3.57,11.44 -11.87,19.76l35.6 -23.38c7.25,-5.08 6.46,-6.77 9.89,-6.65 10.18,0.37 -0.15,-2.29 5.51,6.14 0.31,0.46 1.27,1.96 1.53,2.36 0.3,0.44 1.01,1.78 1.66,2.54 13.43,-21.63 10.51,-3.67 19.32,-23.79 -0.05,-0.8 -1.9,-10.71 -2.01,-11.73 -1.13,-10.75 -6,18.63 1.13,-10.36l10.54 -4.41 -0.17 -9.85c18.01,-7.66 2.99,-5.84 17.11,1.41l1.2 -14.45 -27.88 0.82c-10.28,9.27 -13.17,11.01 -21.36,25.54zm-10.58 489.64l-3.2 16.57 32.89 -11.47 3.24 -21.82c-1.29,-0.06 -3.05,-0.34 -3.86,-0.25 -0.74,0.08 -2.74,0.02 -3.54,0.15l-4.48 -9.06c-7.6,-0.73 -12.14,-1.95 -17.52,6.42 -4.04,6.29 -0.95,8.77 -3.53,19.46zm-364.28 -479.46c9.06,-0.71 17.77,-0.41 25.23,-3.35 10.79,-4.28 10.79,-8.19 17.09,-15.79l-31.4 -6.59c-5.04,9.94 -7.68,16.26 -10.92,25.73zm345.06 618.78c1.78,-1.65 9.86,-0.4 11.37,-14.2l-1.59 -4.63c-7.19,-1.93 -10.4,12.86 -5.92,-10.99 -25.9,-1.26 -1.93,2.77 -16.29,3.44 -13.16,0.61 -10.11,14.8 -10.06,32.39l6.01 -6.91c18.04,-24.31 -6.18,5.29 5.34,-8.01 5.47,-6.32 2.48,-2.15 12.99,-6.67l-1.85 15.58zm-188.2 -152.42c7.88,1.7 15.12,3.23 20.53,9.43 2.03,2.31 5.27,12.13 6.49,15.52 22.53,-12.61 1.96,-1.65 19.61,-6.95l-16.87 -13.11c-11.1,-13.28 -16.55,-23.1 -29.76,-4.89zm160.54 178.83l5.24 17.82c12.81,-4.17 11.53,8.7 21.99,-26.68 -8.58,1.34 -11.32,0.67 -18.57,3.46 -0.73,0.28 -6.33,4.29 -8.66,5.4zm-315.51 -303.33c-8.46,-13.39 -5.2,-7.85 -8.09,-13.55 -6.82,-13.43 0.57,-6.59 -13.69,-13.3 2.54,16.93 -7.49,2.82 6,12.6 -0.13,0.09 -5.57,4.59 -5.92,5.2 -3.93,6.95 -1.28,1.21 0.48,6.87 10.58,0.71 8.07,0.72 21.22,2.18zm415.03 82.42c3.71,13.72 -5.01,6.28 11.2,11.48 -21.15,8.02 -8.68,3.78 -15.49,9.78 7.08,7.47 3.85,2.72 5.66,14.42 8.58,14.17 -5.09,-15.3 1.35,8.76l3.36 8.47c1.32,-0.54 8.84,-3.24 9.85,-3.83 7.94,-4.69 30.34,-24.36 12.76,-32.11 6.88,-16.98 12.16,5.06 3.1,-19.04l-16.38 9.03c15.85,-25.04 15.91,-9.24 19.79,-20.08l-11.24 -20.65c8.81,-4.48 7.63,-5.35 17.45,-9.05 15.14,-5.72 3.7,7.5 15.63,-8.02 5.88,4.5 0.9,3.5 4.73,11.85l7.12 -29.62c-10.72,2.23 -17.96,5.45 -19.89,4.36l-16.26 14.27c-5.49,4.99 -7.29,7.39 -12.46,12.72 -18.02,18.54 -19.76,9.71 -20.28,37.26zm-126.93 -283.66l17.06 0c0.33,-1.32 2.83,-8.67 2.85,-8.81 3.44,-18.69 -3.29,-5.15 8.87,-21.45l3.6 -5.56c8.1,-12.59 -2.52,-6.39 7.63,-11.31 16.95,-8.22 3.72,12.83 3.71,12.84 18.67,-1.73 10.54,-5.69 20.28,-31.04 0.32,-0.85 1.11,-2.49 1.33,-3.82l-9.63 6.62c-0.63,-1.11 -1.2,-2.73 -1.66,-3.47 -0.43,-0.7 -1.24,-2.36 -1.79,-3.16l-5.76 -6.54c-8.25,-5.64 2.33,0.77 -7.45,-2.41l-5.36 -1.55c-16.01,7.7 -2.37,3.39 -17.43,5.33 1.73,33.03 13.7,40.49 -14.88,50.17 2.17,13.21 3.14,6.25 -1.37,24.16zm253.13 -172.15c18.23,-8.91 6.69,-7.84 25.88,-3.5 0.17,1.42 0.91,5.94 0.12,8.46 -5.1,16.31 -0.23,5.48 -9.77,12.51 1,0.48 2.51,0.09 3,1.44 0.8,2.17 4.73,2.31 6.04,2.93 4.19,1.99 9.28,4.37 13.23,6.3l5.7 -27.91c0.42,-0.87 0.89,-2.18 1.31,-2.97 6.2,-11.73 -2.92,-1.66 5.42,-7.01 -5.11,-7.06 -0.01,-3.32 -9.4,-9.26l-14.18 -7.29c-7.6,-2.81 -7.25,-4.29 -18.25,0.49l-10.67 9.3c0.03,0.92 0.02,1.75 0.08,2.07 2.59,17.01 5.21,-11.68 1.49,14.44zm-151.28 531.89c-9.02,0.38 -7.45,-8.86 -7.5,2.15 -1.04,0.97 -2.53,1.12 -3,3.06 -0.43,1.79 -2.17,2.25 -2.73,2.85 -2.92,3.08 -0.91,3.57 -5.68,6.33 -18.69,10.78 26.2,4.51 -13.69,-0.27l4.65 13.83 -19.62 7.41 14.88 8.57 3.22 25.43 1.66 -17.38c10.58,-3.95 35.54,-44.59 34.97,-52.92 0.81,8.82 1.18,0.66 -7.16,0.94zm-188.35 -16c4.03,9.04 -8.02,5.8 4.48,8.42l-3.76 0.23c-0.47,0.12 -1.98,0.38 -2.48,0.54l-6.19 2.94c-0.56,-1.16 -2.43,1.37 -3.53,2.23 0.08,3.57 -0.88,4.59 0.98,7.17l6.39 13.61 5.4 3.99 4.69 -13.02c10.22,-0.26 11.13,0.39 19.32,3.75 -6.84,-23.08 -11.57,-6.99 -16.24,-33.26l-9.06 3.4zm-118.08 -69.12c-6.42,-9.1 -10.55,-16.25 -18.22,-22.56 -7.66,-6.31 -3.14,-3.5 -9.73,-5.9 -0.67,-0.24 -2.03,-0.39 -2.69,-0.59 -0.65,-0.19 -2.07,-0.26 -2.68,-0.42 -5.81,-1.61 -1.62,0.61 -6.68,-2.21 -2.93,5.22 -12.16,-8.51 -1.37,6.98 6.02,4.42 9.56,-6.97 14.5,25.91l26.87 -1.21zm-120.9 -396.83c34.93,-6.32 13.56,-2.65 34.89,-18.98 -5.8,-13.92 3.14,-4.23 -10.15,-11.45 -6.34,2.85 -11.18,3.94 -16.88,11.65 -5.06,6.86 -2.77,7.75 -7.86,18.78zm431.79 -5.56c0.89,-1.09 1.86,-4.46 2.25,-3.58l6.46 -8.25c7.84,7.44 2.81,-1.3 5.11,12.22 7.57,0 7.33,2.26 4.39,-4.12 0.41,-13.07 -4.41,-6.55 4.17,-14.49 -0.71,-0.46 -1.97,-0.82 -2.35,-0.97l-6.71 -2.35c-11.25,-6.32 0.03,8.21 -3.66,-4.96l-10.54 4.41c-7.13,28.99 -2.26,-0.39 -1.13,10.36 0.11,1.02 1.96,10.93 2.01,11.73zm6.36 468.18c6.13,8.69 -1.93,7.75 8.66,10.08 11.57,2.54 3.73,2.5 10.26,-6.92 -0.24,-0.16 9.34,-16.49 -18.92,-3.16zm108.26 -186.56c-14.05,11.59 -23.59,26.46 -26.77,45.76l7 0.57c-12.55,12.42 -2.63,-0.07 -9.72,15.32l14.45 -7.21c12.49,0.67 18.99,17.84 15.2,27.92 -4.06,10.79 -9.13,3.07 -17.95,11.04 -8.06,7.28 -5.71,5.58 -2.48,14.18 11.43,-2.67 -4.41,4.44 8.29,-4.76l9.18 -7.09c11.36,-6.97 5.07,3.1 18.67,-13.16 11.57,-13.83 12.86,-20.6 29.31,-30.29 -5.61,-19.53 12.12,-19.05 -9.31,-12.89 27.02,-7.73 6.96,0.71 17.51,-17.56 7.19,-12.46 6.46,-11.57 22.27,-12.15 -8.49,-15.3 -9.29,-13.85 0.46,-27.59 -22.55,2.25 -29.47,16.49 -31.6,33.7 -9.78,-2.98 -4.99,5.63 -5.86,-10.09 -5.63,7.82 2.79,1.28 6.3,-17.63 -32.21,-0.36 -5.2,2.29 -25.51,16.87 -10.95,-5.65 -2.87,-2.93 -19.44,-4.94zm91.22 -28.47c18.69,-3.02 24.13,-12.81 26.44,-19.91 5.97,-18.45 -7.26,-11.93 -8.22,-23.9 11.46,-0.3 11.35,6.32 20.46,-5.86l11.99 -28.54c-21.06,-4.7 -22.77,8.53 -25.21,11.1 -18.15,19.11 -15.55,0.03 -15.85,28.11 -9.92,-8.93 -9.62,-7.24 -24.66,-3.25 19.96,8.64 6.59,-2.15 12.66,11.36 -10.14,5.27 -13.3,3.89 -21.74,7.81 13.86,19.26 11.35,9.78 25,0.71 -9.95,17.96 -6.23,5.67 -0.87,22.37zm-150.02 145.16c7.84,-5.83 8.81,-5.64 13.91,-12.8 8.16,-11.46 -1.31,-9.96 12.66,-13.07 -3.83,-8.35 1.15,-7.35 -4.73,-11.85 -11.93,15.52 -0.49,2.3 -15.63,8.02 -9.82,3.7 -8.64,4.57 -17.45,9.05l11.24 20.65zm176.15 -371.81c9.39,31.74 2.39,21.92 5.37,54.08l11.06 -0.35c10.86,9.42 11.1,8.27 24.41,4.01l-1.28 8.77c-2.79,20.35 -4.11,13.83 5.34,17.82 1.6,-12.38 7.55,-11.73 9.19,-14.55 6.77,-11.64 0.08,-8.82 5.67,-20.03 -1.03,-0.78 -2.53,-3.29 -3.07,-2.38 -0.53,0.88 -2.22,-1.82 -2.95,-2.31l-25.6 -12.49c7.13,-4.6 -4.3,0.97 3.94,-1.33 6.46,-1.8 0.61,0.82 6.3,-1.65 -2,-6.83 -1.65,-13.58 -2.09,-22.78 -12.46,-8.57 -10.84,-4.29 -14.34,-15 -5.39,11.72 -4.74,12.43 -21.95,8.19zm-285.85 -23.24c7.89,1.53 6.13,2.33 14.53,-5.2 0.34,-0.31 1.04,-1.42 1.65,-2.05 4.86,0.09 3.19,-1.19 -4.3,-9.92 24.5,5.78 7.89,4.35 17.16,0.8l3.86 9.44c2.87,7.67 -6.53,-3.08 4.73,7.89 1.2,-13.78 5.52,-24.07 -5.19,-27.25 -5.68,-1.13 -12.88,-0.73 -19.2,5.57 -8.71,8.71 -1.72,9 -13.24,20.72zm-342.42 -16.11l-0.6 -0.57c-21.33,16.33 0.04,12.66 -34.89,18.98 -22.01,15.17 -3.77,10.35 -27.09,27.42 -8.49,6.21 -3.85,-0.58 -12.98,12.34l-28.23 58.07c-10.92,24.32 -6.6,20.78 -4.41,41.63 4.33,41.44 -9.82,24.18 8.63,71.67 2.18,5.59 4.7,19.76 5.46,24.23 3.74,22.34 4.41,24.17 15.84,39.89 29.06,39.97 -7.23,16.58 71.72,96.18 51.21,51.63 98.36,64.26 136.77,86.64l69.16 43.02 -6.39 -13.61c-1.86,-2.58 -0.9,-3.6 -0.98,-7.17 1.1,-0.86 2.97,-3.39 3.53,-2.23l6.19 -2.94c0.5,-0.16 2.01,-0.42 2.48,-0.54l3.76 -0.23c-12.5,-2.62 -0.45,0.62 -4.48,-8.42 -17.65,5.3 2.92,-5.66 -19.61,6.95 -1.22,-3.39 -4.46,-13.21 -6.49,-15.52 -5.41,-6.2 -12.65,-7.73 -20.53,-9.43 -10.48,-13.03 15.11,6.07 -10.91,-6.61 -0.6,-0.3 -2.1,-0.82 -3.11,-1.33 0.86,-0.8 2.23,-3.27 2.58,-2.42l8.67 -7.94c-41.39,-9.87 -4.77,-1.26 -39.06,-2.63 2.01,-15.63 -15.22,-6.94 13.98,-10.82 -15.52,-9.1 -27.12,-11.9 -43.6,-19.37l-26.87 1.21c-4.94,-32.88 -8.48,-21.49 -14.5,-25.91 -10.79,-15.49 -1.56,-1.76 1.37,-6.98 12.48,-14.15 -14.46,-8.12 -22.41,-6.07 8.68,-10.28 15.7,-11.57 0.12,-21.23 -9.9,-6.14 -15.26,-2.38 -29.29,-5.99l8.06 -8.41c-13.15,-1.46 -10.64,-1.47 -21.22,-2.18 -1.76,-5.66 -4.41,0.08 -0.48,-6.87 0.35,-0.61 5.79,-5.11 5.92,-5.2 -13.49,-9.78 -3.46,4.33 -6,-12.6l-34.19 -53.57c-0.43,-0.88 -0.96,-2 -1.37,-2.91l-7.71 -22.62c-13.58,-36.65 -20.66,-63.73 -8.51,-108.6 2.43,-8.98 5.13,-15.62 7.61,-22.75 10.32,-29.75 -7.7,-11.53 34.81,-51.06 4.96,-4.6 11.52,-11.04 15.64,-14.51 23.08,-19.43 39.55,-26.75 71.37,-28.22 48.71,-2.26 67.14,1.91 99.7,26.18l47.42 53.72c2.85,6.47 0.15,-0.49 3.31,8.11l1.43 4.14c0.15,0.48 0.53,1.7 0.69,2.19 2.42,7.52 -0.18,1.46 3.14,9.81 5.17,13 4.98,10.81 10.97,18.35 0.57,0.73 1.44,1.65 2.03,2.38 0.59,0.71 1.44,1.65 2.02,2.38l24.77 30.43c10.47,11.93 24.32,57.73 25.71,60.6 5.19,10.72 8.37,7.69 13.54,20.86 10.77,-2.38 4.02,-7.51 19.96,-1.56 21.6,8.06 -1.73,10.12 23.54,-4.66 0.94,-29.55 -9.19,-53.75 -8.03,-73.72l5.75 -63.65c0.01,-0.01 13.24,-21.06 -3.71,-12.84 -10.15,4.92 0.47,-1.28 -7.63,11.31l-3.6 5.56c-12.16,16.3 -5.43,2.76 -8.87,21.45 -0.02,0.14 -2.52,7.49 -2.85,8.81l-17.06 0 -29.74 -34.83c-9.48,-16.08 5.6,-13.24 -21.4,-13.52 15.62,-6.29 10.75,3.49 10.19,-13.95 -12.2,-11.72 -8.63,-7.49 -27.41,-12.05 2.62,-20.18 10.18,-5.61 0.17,-16.91l-15.23 -18.77c-10.22,-13.36 -25.86,-26.54 -43.82,-21.16 0.94,-9.66 2.14,-2.81 5.81,-13.29 -13.86,-2.7 -17.8,-8.46 -31.77,-11.5 -34.74,-7.55 -0.35,17.35 -73.07,-0.46 -19.26,-4.72 -9.31,-6.95 -21.4,-3.32 -6.3,7.6 -6.3,11.51 -17.09,15.79 -7.46,2.94 -16.17,2.64 -25.23,3.35zm510.92 294.47c16.57,2.01 8.49,-0.71 19.44,4.94 20.31,-14.58 -6.7,-17.23 25.51,-16.87 -3.51,18.91 -11.93,25.45 -6.3,17.63 0.87,15.72 -3.92,7.11 5.86,10.09 2.13,-17.21 9.05,-31.45 31.6,-33.7l5.78 -18.92c6.54,16.02 -2.94,12.32 9.33,8.36 -5.36,-16.7 -9.08,-4.41 0.87,-22.37 -13.65,9.07 -11.14,18.55 -25,-0.71 8.44,-3.92 11.6,-2.54 21.74,-7.81 -6.07,-13.51 7.3,-2.72 -12.66,-11.36 15.04,-3.99 14.74,-5.68 24.66,3.25 0.3,-28.08 -2.3,-9 15.85,-28.11 2.44,-2.57 4.15,-15.8 25.21,-11.1l11.09 -3.28 0.71 -31.2c5.55,-14.5 15.14,-8.67 8.56,-29.63 -9.45,-3.99 -8.13,2.53 -5.34,-17.82l1.28 -8.77c-13.31,4.26 -13.55,5.41 -24.41,-4.01 -7.9,21.57 -3.4,5.64 -5.16,30.37l-10.61 0c-4.94,17.21 -11,41.28 -19.15,53.17l-63.98 91.19c-13.98,15.14 -14.11,9.26 -34.88,26.66zm-193.52 350.72c2.33,-1.11 7.93,-5.12 8.66,-5.4 7.25,-2.79 9.99,-2.12 18.57,-3.46 12.08,-25.03 1.46,-7.64 0.43,-17.55l1.85 -15.58c-10.51,4.52 -7.52,0.35 -12.99,6.67 -11.52,13.3 12.7,-16.3 -5.34,8.01l-6.01 6.91c-0.05,-17.59 -3.1,-31.78 10.06,-32.39 14.36,-0.67 -9.61,-4.7 16.29,-3.44 -4.48,23.85 -1.27,9.06 5.92,10.99 -0.72,-26.12 -4.91,-14.01 7.53,-30.23l-3.22 -25.43 -14.88 -8.57 19.62 -7.41 -4.65 -13.83c39.89,4.78 -5,11.05 13.69,0.27 4.77,-2.76 2.76,-3.25 5.68,-6.33 0.56,-0.6 2.3,-1.06 2.73,-2.85 0.47,-1.94 1.96,-2.09 3,-3.06 0.05,-11.01 -1.52,-1.77 7.5,-2.15l2.13 -15.8 -32.89 11.47 3.2 -16.57c-4.97,-5.83 -0.31,-2.14 -9.44,-3.37 -12.34,34.51 10.34,19.96 -5.86,49.67 -13.57,-3.77 -1.99,-9.86 -16.37,-17.27 -5.98,19.57 -9.39,19.23 -17.14,36.29l-7.75 17.98c-4.97,12.65 -3.83,6.24 -4.61,20.04 21.04,0.4 10.17,7.78 19.19,-14.88 -2.07,21.8 -10.71,19.67 -25.4,36.51 1.35,18.16 -2.31,11.69 9.07,27.05l11.43 13.71zm106.7 -681.73l-1.2 14.45c-14.12,-7.25 0.9,-9.07 -17.11,-1.41l0.17 9.85c3.69,13.17 -7.59,-1.36 3.66,4.96l6.71 2.35c0.38,0.15 1.64,0.51 2.35,0.97 -8.58,7.94 -3.76,1.42 -4.17,14.49 15.89,-4.94 22.85,-11.4 41.35,-16.28 21.78,-5.75 31.85,-0.08 36.6,-18.63 18.86,18.44 37.5,3.19 66.89,11.73 9.54,-7.03 4.67,3.8 9.77,-12.51 0.79,-2.52 0.05,-7.04 -0.12,-8.46 -19.19,-4.34 -7.65,-5.41 -25.88,3.5 -16.26,-7.14 -5.61,1.57 -10.23,-10.29 -2.66,-6.83 -0.89,-4.14 -1.59,-8.23 -4.88,-29.06 9.53,15.59 -0.94,-7.45 -40.98,-2.55 -71.08,8.48 -106.26,20.96zm157.52 33.15c11.73,8.51 17.37,11.56 25.71,20.01 5.37,5.42 5.66,6.49 10.09,11.45 7,7.81 5,3.8 10.85,11.28 17.21,4.24 16.56,3.53 21.95,-8.19 3.5,10.71 1.88,6.43 14.34,15 0.44,9.2 0.09,15.95 2.09,22.78l18.62 -1.72c-7.54,-16.1 2.29,-3.98 -11.5,-8.19 3.71,-14.24 17.65,-20.87 -18.54,-63.06 -6.88,-8 -24.87,-11.26 -45.55,-25.69l-4.62 -3.72c-12.52,-9.79 3.3,-6.06 -11.01,-7.84 -8.34,5.35 0.78,-4.72 -5.42,7.01 -0.42,0.79 -0.89,2.1 -1.31,2.97l-5.7 27.91zm-376.84 526.88c23.19,30.93 50.08,35.27 64.65,127.13 2.35,14.8 -3.19,41.79 3.26,56.13 20.55,-10.53 11.29,-117.92 -0.75,-139.45 -0.45,-0.8 -1.14,-1.84 -1.63,-2.6l-9.92 -11.82c-18.58,-19.58 -8.09,-15.95 -18.94,-29.08l-12.66 -9.58c-8.19,-3.36 -9.1,-4.01 -19.32,-3.75l-4.69 13.02zm261.14 -163.46c1.93,1.09 9.17,-2.13 19.89,-4.36l-7.12 29.62c-13.97,3.11 -4.5,1.61 -12.66,13.07 -5.1,7.16 -6.07,6.97 -13.91,12.8 -3.88,10.84 -3.94,-4.96 -19.79,20.08l16.38 -9.03c7.25,1.7 0.23,-4.61 4.26,6l3.9 13.1c22.71,-13.68 8.54,-15.9 12.29,-23.42 5.82,-11.65 12.19,10.64 21.49,-15.84 -3.23,-8.6 -5.58,-6.9 2.48,-14.18 8.82,-7.97 13.89,-0.25 17.95,-11.04 3.79,-10.08 -2.71,-27.25 -15.2,-27.92l-14.45 7.21c7.09,-15.39 -2.83,-2.9 9.72,-15.32l-7 -0.57c-3.79,2.41 -8.14,4.9 -11.97,8.78 -6.3,6.39 -5.12,4.44 -6.26,11.02zm-69.62 -347.18c-8.81,20.12 -5.89,2.16 -19.32,23.79 -0.65,-0.76 -1.36,-2.1 -1.66,-2.54 -0.26,-0.4 -1.22,-1.9 -1.53,-2.36 -5.66,-8.43 4.67,-5.77 -5.51,-6.14 -3.43,-0.12 -2.64,1.57 -9.89,6.65l-35.6 23.38 0.88 5.33 5.36 1.55c9.78,3.18 -0.8,-3.23 7.45,2.41l5.76 6.54c0.55,0.8 1.36,2.46 1.79,3.16 0.46,0.74 1.03,2.36 1.66,3.47l9.63 -6.62 39.56 -44.95c6.9,-6.59 9.28,-6.65 15.24,-13.28 -2.3,-13.52 2.73,-4.78 -5.11,-12.22l-6.46 8.25c-0.39,-0.88 -1.36,2.49 -2.25,3.58zm-10.97 440.73l4.48 9.06c0.8,-0.13 2.8,-0.07 3.54,-0.15 0.81,-0.09 2.57,0.19 3.86,0.25l-3.24 21.82 24.32 -24.6c-1.81,-11.7 1.42,-6.95 -5.66,-14.42 6.81,-6 -5.66,-1.76 15.49,-9.78 -16.21,-5.2 -7.49,2.24 -11.2,-11.48 -12.04,3.84 -4.13,-0.17 -15.9,12.16 -6.35,6.68 -10.83,11.58 -15.69,17.14z"/>
 </g>
</svg>
