<?xml version="1.0" encoding="UTF-8"?>
<!DOCTYPE svg PUBLIC "-//W3C//DTD SVG 1.1//EN" "http://www.w3.org/Graphics/SVG/1.1/DTD/svg11.dtd">
<!-- Creator: CorelDRAW 2017 -->
<svg xmlns="http://www.w3.org/2000/svg" xml:space="preserve" width="20.3198mm" height="13.1232mm" version="1.1" style="shape-rendering:geometricPrecision; text-rendering:geometricPrecision; image-rendering:optimizeQuality; fill-rule:evenodd; clip-rule:evenodd"
viewBox="0 0 2031.98 1312.32"
 xmlns:xlink="http://www.w3.org/1999/xlink">
 <defs>
  <style type="text/css">
   <![CDATA[
    .fil0 {fill:#010101}
   ]]>
  </style>
 </defs>
 <g id="Capa_x0020_1">
  <metadata id="CorelCorpID_0Corel-Layer"/>
  <path class="fil0" d="M1539.37 875.49c4.3,11.79 16.35,22.77 7.24,38.35 -6.52,11.16 -18.72,14.17 -28.99,22.85 -9.16,7.75 -18.02,18.86 -13.71,37.47 8.24,35.62 118.83,37.43 52.79,-125.97 -6.01,6.16 -15.01,17.23 -17.33,27.3zm-287.88 215.6c-9.49,-3.75 -15.01,-13.75 -23.59,-19.78l-2.01 -23.87c9.05,-8.65 16.69,-16.25 25.6,-24.95l21.19 1.78c6.6,6.9 17.45,14.57 21.25,23.16 0.54,6.35 -32.53,39.46 -42.44,43.66zm-1182.97 -130.31c-0.07,-0.17 -6.35,0.6 1.25,-9.11 0.96,-1.22 5.68,-5.5 7.28,-7.04 21.66,-20.97 26.74,3.11 33.62,7.62 9.09,5.95 10.96,3.3 12.26,17.45 -3.11,7.26 -16.17,20.82 -23.92,23.56 -7.52,-10.11 6.72,-13.34 10.41,-21.09 4.11,-8.67 -0.73,-6.9 -0.74,-6.93 -12.82,-9.32 -11.06,11.75 -25,4.1 3.45,-10.21 9.96,-8.74 10.5,-19.97 -11.79,-2.03 -12.21,6.87 -18.26,10.98 -6.13,4.18 -6.09,1.03 -7.4,0.43zm29.37 -33.47c8.75,-22.01 39.84,-35.64 42.85,-3.14 7.44,3.23 13.46,5.73 18.95,10.21l-5.49 7.03 -18.88 -6.68 -7.02 6.51c3.91,8.41 8.73,8.29 10.5,15.7l-3.26 3.77c-8.79,-1.21 -4.32,1.22 -11.41,-6.07l-26.24 -27.33zm1214.82 92.76l-4.91 0.79c14.64,9.33 5.96,10.05 5.47,10.62 -3.31,2.03 4.74,4.01 -4.91,1.92 -4.48,-0.97 -16.87,-16 -23.31,-21.91 -6.91,-6.32 -3.38,-2.04 -11.64,-6.46 -0.26,-13.74 5.41,-4.32 7.46,-16 -0.28,-16.25 -9.37,-30.23 -1.57,-66.89 6.28,-29.48 64.89,-115.79 84.63,-141.46 7.82,-10.17 27.3,-32.37 47.28,-20.1 13.66,8.38 12.91,38.99 17.4,58.07 4.63,19.64 9.94,40.53 14.25,60.51 6.28,29.17 1.68,44.32 -0.49,71.05 28.47,-11.8 20.28,-34.65 58.77,-86.53 10.49,-14.15 21.6,-27.29 31.73,-41.26 11.41,-15.75 17.92,-30.08 28.75,-46.62 8.33,-12.72 33.82,-29.01 48.44,-11.56 4.09,4.89 27.83,102.95 28.07,120.67 0.35,25.39 -4.57,46.66 -6.46,71.11 11.22,-4.43 19.73,-15.5 28.44,-25.19 10.67,-11.86 14.77,-18.58 31.68,-4.19 3.03,19.62 -1.09,20 -8.68,34.22 -10.64,19.93 -57.12,45.16 -78.79,53.09 -22.89,8.39 -48.59,12.62 -75.71,7.74 -5.02,-0.9 -31.29,-6.81 -35.21,-8.84 -17.84,-9.26 -6.81,-41.86 -57.04,-11.36 -12.13,7.36 -20.36,10.8 -34.21,15.35 -44.57,14.67 -62.19,3.11 -89.44,3.23zm-1168.65 -126.28l7.16 6.76c17.59,-14.86 11.43,-17.02 21.96,-11.87 -3.94,11.14 -8.84,9.99 -13.85,19.79 5.52,7.47 8.98,6.73 11.22,16.49l-4.73 4.73 -33.86 -32.36c1.49,-11.45 4.46,-11.92 11.16,-18.45 7.08,-6.89 8.96,-11.58 16.88,-5.08l-15.94 19.99zm944.57 19.39c30.6,-2.68 7.69,1.45 45,-63.7 12.66,-22.1 40.51,-65.27 62.58,-78.73 6.66,-4.07 33.83,-5.23 42.87,-2.94 62.79,15.9 51.06,136.93 -46.99,187.24 -7.37,3.78 -18.27,8.45 -21.12,14.21 -4.46,9.04 4.27,48.58 52.38,0.55 12.81,-12.78 26.63,-23.09 37.62,-0.11 3.76,14.6 -16.93,31.8 -26.6,39.46 -54.76,43.36 -120.63,32.82 -132.93,-16.95 -39.61,6.59 -17.43,19.36 -76.69,28.32 -49.32,7.45 -53.05,-3.37 -72.3,-2.94 -38.41,0.85 -40.63,-58.5 -36.36,-91.52 5.27,-40.64 46.39,-111.61 72.83,-134.13 20.25,-17.24 63,-39.46 94.36,-9.66 14.31,13.6 26.98,27.69 25.8,50.42 -1.62,31.35 -18.61,63.4 -45.95,34.06 -2.25,-25.44 10.33,-29.91 6.47,-52.4 -15.68,-12.34 -22.76,-5.65 -32.05,9.71 -25.21,41.65 -40.95,72.03 -51.09,125.19 -3.44,17.99 -7,35.07 8.15,41.77 26.14,11.55 63.2,-5.63 80.51,-32.81 12.46,-19.56 6.19,-29.94 13.51,-45.04zm-389.55 -25.46l1.27 4.77c14.24,0.42 10.21,2.41 19.93,5.68 9.75,3.28 11.97,-1.86 23.67,-1.67l37.2 -112.24c6.6,-21.53 8.55,-41.86 39.07,-35.46 34.94,7.32 22.31,37.75 20.93,44.88 17.24,-6.02 29.92,-21.43 50.82,-25.74 23.61,-4.86 43.01,7.72 49.85,23.88 8.29,19.6 -4.84,40.26 -11.27,57.13 -20.01,52.5 -43.65,115.5 -57.68,168.47 -4.79,18.12 -15.91,49.71 2.8,57.31 21.81,8.86 32.55,-21.72 42.11,-31.24 8.7,-8.67 40.66,-10.82 16.83,30.93 -25.67,45 -127.07,60.51 -125.85,-31.71 0.55,-40.89 17.21,-86.49 28.66,-122 6.08,-18.84 39.65,-99.93 38.22,-109.79 -14.91,-10.7 -45.54,37.93 -52.67,50.6 -6.09,10.83 -27.39,63.92 -27.47,75.39 3.81,9.37 6.01,9.45 11.11,16.31 3.79,23.15 -22.97,39.33 -37.49,54.16 -3.83,2.74 -10.47,9.93 -14.61,13.94 -10.5,11.58 -18.43,18.56 -28.33,28.35 -5.36,5.31 -8.57,8.8 -13.74,14.63 -21.26,24.01 -52.17,-20.75 -55.51,-26.94 -14.68,-6.32 -22.55,-9.66 -29.03,-21.13 -28.65,0.55 -47.78,13.35 -75.74,2.73 -21.85,-8.3 -36.86,-23.06 -37.96,-51.51 -1.64,-42.39 30.2,-99.58 38.57,-140.55 -4.55,-2.27 -2.07,-0.73 -5.6,-3.01 -0.6,-0.39 -2.12,-1.62 -2.67,-2.02 -4.13,-2.98 -1.79,-1.76 -6.95,-4.65 -7.75,5.53 -31.28,45.05 -37.3,53.72 -12.28,17.66 -27.36,38.32 -37.96,56.13 -12.19,20.51 -68.51,43.63 -92.13,0.64 -5.87,-10.69 -5.97,-24.7 -11.33,-36.59 -43.5,5.61 -41.07,56.53 -65.28,114.45 -8.27,19.77 -36.39,38.56 -52.02,13.16 -13,-21.14 1.71,-50.86 8.13,-71.25 7,-22.26 37.19,-119.97 44.71,-134.09 18.2,-34.18 25.38,-59.95 36.47,-97.71 3.36,-11.43 8.57,-22.13 11.21,-32.64l-1.78 -2.31c-12.62,5.46 -29.07,25.48 -34.14,43.1 -7.63,26.55 -9.38,40.87 -43.05,35.16 -14.37,-22.55 -7.42,-57.12 6.65,-76.24 53.29,-72.41 270.31,-94.21 242.25,44.36 -6.54,32.3 -7.81,45.36 -26.95,74.4 -23.5,35.63 -66.79,67.9 -117.02,85.21 5.4,41.75 31.68,52.07 67.02,8.44 6.85,-8.46 14.1,-15.48 21.13,-23.59 29.2,-33.66 60.13,-51.09 60.87,-116.2 6.67,-8.22 17.51,-16.82 32.58,-17.46 29.57,12.46 1.75,40.57 43.45,61.2 48.62,24.08 25.84,25.3 -8.71,144 -3.22,11.07 -11.34,30.13 -6.65,41.04 5.91,13.75 25.16,9.55 35,1.68 2.48,-21.86 0.3,-32.71 5.55,-55.76 12.47,-54.66 14.77,-48.32 30.02,-92.62 11.55,-33.52 -4.52,-36.85 -7.28,-51.46 12.64,-12.03 61.94,-34.92 80.16,5.08 12.58,27.62 -21.74,70.16 -22.07,96.65zm-29.35 -275.36c1.51,-1.53 1.85,-1.4 3.64,-4.11 4.05,-6.14 17.72,-38.97 24.63,-47.69 6.67,4.11 10.15,16.13 14.58,24.76 4.28,8.36 10.14,19.46 12.67,27.42 17.83,-5.86 54.03,-37.6 66.05,-37.81 -0.69,9.28 -40.43,109.72 -49.59,134.71 -6.04,16.45 -24.99,16.88 -43.7,16.84 -8.77,-0.03 -19.03,-1.03 -26.92,-3.12 -17.71,-4.68 -21.29,-28.17 -32.36,-59.4 -7.04,-19.89 -31.18,-73.76 -32.52,-89.7 15.81,4.1 45.83,29.54 63.52,38.1zm-515.79 120.66c-4.4,8.7 -3.67,7.79 -11.52,12.61 0.78,-2.22 2.08,-7.39 2.55,-8.15 3.41,-5.62 -0.08,-2.29 6.6,-5.05 6.99,-7.06 9.32,-11.9 17.88,-20.39 27.55,-27.34 26.58,-28.83 59.23,-53.81 25.04,-19.16 62.23,-41.7 93.89,-57.02 351.18,-170.04 918.17,-166.97 1252.13,19.43 98.68,55.08 198.71,148.02 182.7,271.2 -4.75,36.52 -27.32,83.68 -46.59,103.36 9.98,-31.82 31.57,-54.01 25.26,-119.15 -10.77,-111.18 -109.47,-183.09 -200.56,-235.1 -57.92,-33.07 -137.99,-61.79 -208.66,-81.06 -300.74,-81.97 -727.58,-70.43 -999.41,58.1 -34.43,16.27 -66.22,32.62 -94.64,51.36 -12.89,8.49 -51.69,36.71 -61.38,47.04 -6.47,6.9 -11.14,11.75 -17.48,16.63zm482.48 -278.35c-3.31,7.34 -2.63,7.95 -11.44,10.59 -2.6,-1.31 -2.21,-0.53 -5.7,-3.27 -5.16,-4.04 -1.19,-1.22 -4.01,-4.27 -190.19,37.46 -464.75,112.24 -565.59,289.99 -18.13,31.97 -30.64,69.67 -30.05,113.66 0.46,34.53 15.67,89.11 31.87,108.23l18.19 -0.74 7.16 12.35 -4.82 11.7 0.98 7.01 2.04 4.98c9.72,-4.43 7.91,-8.62 16.65,-10.7l3.47 3.66c-3.9,12.24 -7.07,5.07 -10.57,16.54 3.81,15.52 71.36,68.78 85.23,78.38 112.41,77.79 218.41,110.06 349.55,144.84 176.66,46.84 422,52.76 604.85,35.38 227.6,-21.64 568.57,-109.15 683.37,-305.4 33.02,-56.45 40.96,-133.91 11.13,-197.73 -7.59,-16.25 -21.13,-41.17 -30.79,-51.09 -25.18,16.4 -40.89,22.03 -70.07,-5.84 -83.53,-79.8 -222.17,-152.12 -332.95,-185.21 -88.54,-26.44 -134.92,-12.22 -136.98,-67.94 -35.18,-10.22 -108.03,-16.52 -147.12,-20.02 -146.73,-13.12 -322.14,-9.09 -464.4,14.9zm615.07 632.08c-9.15,-5.28 -12.1,-12.2 -21.03,-18l-0.28 -22.11c7.97,-5.86 14.15,-12.79 20.74,-20.12l22.13 2.05c6,7.6 15.89,12.32 15.8,23.28 -12.21,7.12 -11.12,-0.54 -23.03,12.23 -10.87,11.65 -4.11,15.9 -14.33,22.67zm0 4.34c9.91,-4.2 42.98,-37.31 42.44,-43.66 -3.8,-8.59 -14.65,-16.26 -21.25,-23.16l-21.19 -1.78c-8.91,8.7 -16.55,16.3 -25.6,24.95l2.01 23.87c8.58,6.03 14.1,16.03 23.59,19.78zm-7.24 -43.88c-1.01,9.07 1.13,12.27 4.48,17.04 16.11,1.08 19.56,-1.45 18.22,-18.19 -7.82,-5.51 -5.81,-5.21 -16.2,-5.82l-6.5 6.97zm6.5 -6.97c10.39,0.61 8.38,0.31 16.2,5.82 1.34,16.74 -2.11,19.27 -18.22,18.19 -3.35,-4.77 -5.49,-7.97 -4.48,-17.04l6.5 -6.97zm0.74 46.51c10.22,-6.77 3.46,-11.02 14.33,-22.67 11.91,-12.77 10.82,-5.11 23.03,-12.23 0.09,-10.96 -9.8,-15.68 -15.8,-23.28l-22.13 -2.05c-6.59,7.33 -12.77,14.26 -20.74,20.12l0.28 22.11c8.93,5.8 11.88,12.72 21.03,18zm-1139.43 -161.79c4.72,-4.64 5.6,-7.66 13.98,-9.65l4.39 7.95 -11.72 10.52 -6.65 -8.82zm12.07 29.68c7.09,7.29 2.62,4.86 11.41,6.07l3.26 -3.77c-1.77,-7.41 -6.59,-7.29 -10.5,-15.7l7.02 -6.51 18.88 6.68 5.49 -7.03c-5.49,-4.48 -11.51,-6.98 -18.95,-10.21 -3.01,-32.5 -34.1,-18.87 -42.85,3.14l26.24 27.33zm-55.61 6.14c1.31,0.6 1.27,3.75 7.4,-0.43 6.05,-4.11 6.47,-13.01 18.26,-10.98 -0.54,11.23 -7.05,9.76 -10.5,19.97 13.94,7.65 12.18,-13.42 25,-4.1 0.01,0.03 4.85,-1.74 0.74,6.93 -3.69,7.75 -17.93,10.98 -10.41,21.09 7.75,-2.74 20.81,-16.3 23.92,-23.56 -1.3,-14.15 -3.17,-11.5 -12.26,-17.45 -6.88,-4.51 -11.96,-28.59 -33.62,-7.62 -1.6,1.54 -6.32,5.82 -7.28,7.04 -7.6,9.71 -1.32,8.94 -1.25,9.11zm91.48 -86.98c-7.92,-6.5 -9.8,-1.81 -16.88,5.08 -6.7,6.53 -9.67,7 -11.16,18.45l33.86 32.36 4.73 -4.73c-2.24,-9.76 -5.7,-9.02 -11.22,-16.49 5.01,-9.8 9.91,-8.65 13.85,-19.79 -10.53,-5.15 -4.37,-2.99 -21.96,11.87l-7.16 -6.76 15.94 -19.99zm-86.99 126.12l-0.98 -7.01 4.82 -11.7 -7.16 -12.35 -18.19 0.74c3.15,8.03 4.07,10.62 9.5,17.59 1.48,1.9 2.99,3.97 5.1,6.59 5.34,6.68 0.41,2.22 6.91,6.14zm2.04 4.98c4.18,6.25 -2.54,-0.83 4.67,6.15 4.47,4.32 0.74,0.45 4.88,3.35 3.5,-11.47 6.67,-4.3 10.57,-16.54l-3.47 -3.66c-8.74,2.08 -6.93,6.27 -16.65,10.7zm37.01 -79.94l6.65 8.82 11.72 -10.52 -4.39 -7.95c-8.38,1.99 -9.26,5.01 -13.98,9.65zm561.97 35.95c2.04,13.11 4.94,18.27 11.44,25.39 13.98,1.21 22.59,-3.63 29.83,-11.05 6.38,-6.55 10.31,-21.59 12.82,-31.44 -10.11,1 -17.21,-7.68 -32.29,-2.19 -15.3,5.58 -12.93,13.46 -21.8,19.29zm17.06 -52.45c-4.85,5.74 -18.27,42.99 -17.06,52.45 8.87,-5.83 6.5,-13.71 21.8,-19.29 15.08,-5.49 22.18,3.19 32.29,2.19 4.74,-10.86 10.6,-24.49 10.9,-36.72 -6.84,-1.19 -9.33,3.4 -19.23,0.92 -7.09,-1.78 -9.75,-5.67 -19.44,-5.97l-7.26 5.11c-0.34,-0.56 -1.33,0.88 -2,1.31zm0 0c0.67,-0.43 1.66,-1.87 2,-1.31l7.26 -5.11c9.69,0.3 12.35,4.19 19.44,5.97 9.9,2.48 12.39,-2.11 19.23,-0.92 4.58,-1.44 3.39,-4.34 4.93,-10.59 -11.7,-0.19 -13.92,4.95 -23.67,1.67 -9.72,-3.27 -5.69,-5.26 -19.93,-5.68l-1.27 -4.77c-3.84,3.82 -1.59,-1.38 -4.75,7.73 -1.55,4.49 -2.19,8.26 -3.24,13.01zm-75.82 -450.74c2.82,3.05 -1.15,0.23 4.01,4.27 3.49,2.74 3.1,1.96 5.7,3.27 8.81,-2.64 8.13,-3.25 11.44,-10.59l-21.15 3.05zm167.66 511.31l-1.8 9.14c15.25,-4.63 25.87,-20.36 7.33,-27.65l-5.53 18.51zm813.19 -415.6c24.74,7.96 70.15,43.62 93.22,58.4l48.11 39.13c6.93,5.46 12.16,11.54 17.44,16.7l-158.77 -114.23zm-313.73 -114.14c-11.52,4.61 -21.98,14.63 -15.98,32.72 4.37,13.16 13.91,15.98 31.18,18.39 119.85,16.73 252.67,79.45 349.49,144.99 27.3,18.48 57.96,43.59 82.66,65.67 7.75,6.93 18.24,18.78 35.6,12.13 10.26,-3.93 19.77,-16.18 14.79,-32.09 -4.64,-14.8 -64.67,-59.09 -78.43,-69.46 -37.35,-28.19 -76.29,-54.2 -120.8,-77.31 -45.39,-23.58 -85.56,-41.6 -137.75,-60.17 -24.3,-8.65 -140.26,-43.07 -160.76,-34.87zm-576.59 592.81l7.21 -2.35 0.27 20.03c-5.15,5.93 -7.77,10.43 -17.64,12.67 -6.75,-2.47 -22.34,-14.21 -24.34,-24.43l-14.37 -0.66c3.34,6.19 34.25,50.95 55.51,26.94 5.17,-5.83 8.38,-9.32 13.74,-14.63 9.9,-9.79 17.83,-16.77 28.33,-28.35 -12.71,0.6 -22.4,-4.14 -27.73,-1.75 -7.08,3.18 -16.37,6.43 -20.98,12.53zm82.66 -81.58c18.54,7.29 7.92,23.02 -7.33,27.65l1.8 -9.14c-5.6,7.24 -11.81,29.21 -13.81,38.35 14.52,-14.83 41.28,-31.01 37.49,-54.16 -5.1,-6.86 -7.3,-6.94 -11.11,-16.31 -2.75,3.04 -1.13,-0.14 -4.18,6.02 -1.19,2.4 -1.64,4.32 -2.86,7.59zm-117.16 87.5c2,10.22 17.59,21.96 24.34,24.43 9.87,-2.24 12.49,-6.74 17.64,-12.67l-0.27 -20.03 -7.21 2.35 -34.5 5.92zm657.3 -47.82c0.42,0.33 -0.41,5.2 14.69,3.26 14.25,-1.83 24.25,-9.58 30.3,-21.39l-0.64 -0.01c-1.37,-14.65 -3.58,-13.46 -12.87,-19.57 -8.45,-5.55 -2.9,-10.22 -13.56,-14.22 -9.35,-3.52 -13.83,1.78 -18.65,6.48 -5,4.87 -10.39,7.87 -11.81,14.58l3.74 3.62c13.57,-4.27 8.39,-12.95 23.38,-14.2 0.54,9.1 0.6,6.25 -4.31,11.87 -1.77,2.03 -10.46,11.04 0.15,11.27 10,0.21 3.16,-12.82 19.21,-7.53 3.8,8.84 0.28,8.65 -14.92,26.25l-14.71 -0.41zm33.2 -65.24c4.17,-5.36 5.58,-8.59 14.32,-9.02 4.44,10.08 -1.05,12.77 -7.26,18.21l-7.06 -9.19zm16.02 37.86c9.11,-11.71 4.64,-50.09 1.04,-58.27 -16.22,0.01 -13.71,4.1 -31.74,18.93 2.8,9.12 0.88,6.83 8.25,13.05 4.79,4.04 4.26,3.61 8.37,8 6.38,6.82 10.28,7.94 14.08,18.29zm-65.11 57.25c-6.59,-6.86 -4.44,-3.13 -10.8,-6.68 -8.9,-4.97 -12.14,-14.61 -16.86,-20.63 -2.87,-3.66 -0.55,-0.97 -4.18,-3.73 -2.05,11.68 -7.72,2.26 -7.46,16 8.26,4.42 4.73,0.14 11.64,6.46 6.44,5.91 18.83,20.94 23.31,21.91 9.65,2.09 1.6,0.11 4.91,-1.92 0.49,-0.57 9.17,-1.29 -5.47,-10.62l4.91 -0.79zm14.14 -29.08c-2.08,-8.91 -2.33,-14.51 -5.78,-20.17l-12.36 -3.46c2.97,15.55 4.82,18.54 18.14,23.63zm34.95 -66.03l7.06 9.19c6.21,-5.44 11.7,-8.13 7.26,-18.21 -8.74,0.43 -10.15,3.66 -14.32,9.02zm-53.09 42.4l12.36 3.46c3.45,5.66 3.7,11.26 5.78,20.17l1.75 -0.79 14.71 0.41c15.2,-17.6 18.72,-17.41 14.92,-26.25 -16.05,-5.29 -9.21,7.74 -19.21,7.53 -10.61,-0.23 -1.92,-9.24 -0.15,-11.27 4.91,-5.62 4.85,-2.77 4.31,-11.87 -14.99,1.25 -9.81,9.93 -23.38,14.2l-3.74 -3.62c1.42,-6.71 6.81,-9.71 11.81,-14.58 4.82,-4.7 9.3,-10 18.65,-6.48 10.66,4 5.11,8.67 13.56,14.22 9.29,6.11 11.5,4.92 12.87,19.57l0.64 0.01c4.45,-3.18 4.94,-3.52 4.23,-9.25 -3.8,-10.35 -7.7,-11.47 -14.08,-18.29 -4.11,-4.39 -3.58,-3.96 -8.37,-8 -7.37,-6.22 -5.45,-3.93 -8.25,-13.05 18.03,-14.83 15.52,-18.92 31.74,-18.93l-16.67 -52.2c-8.55,3.97 -17.92,21.13 -18.08,23.14 5.64,19.16 28.38,29.84 -2.81,49.73 -15.24,9.73 -35.46,18.85 -32.59,42.14zm-129.52 -47.29c36.91,-10.46 78.55,-96.24 65.96,-108.85 -21.62,-21.65 -64.02,100.15 -65.96,108.85zm-790.03 -231.7c-0.08,34.76 2,43.57 -9.23,76.23 -7.77,22.56 -17.39,45.03 -20.08,69.66 16.39,-4.51 35.81,-20.94 45.14,-30.39 29.41,-29.77 74.44,-125.69 -3.55,-138.98 -1.34,3.33 -0.36,3.17 -2.11,5.77l-10.39 6.83 0.22 10.88zm-6.74 -11.8l6.74 11.8 -0.22 -10.88 10.39 -6.83c1.75,-2.6 0.77,-2.44 2.11,-5.77 -3.63,-0.78 -7.34,-1.4 -11.9,-1.64 -2.41,-0.12 -4.87,-0.42 -7.29,-0.1l-7.94 3.07c7.74,-0.01 9.28,-1.28 16.47,2 2.1,3.47 1.01,4.17 -0.67,7.98l-7.69 0.37zm0 0l7.69 -0.37c1.68,-3.81 2.77,-4.51 0.67,-7.98 -7.19,-3.28 -8.73,-2.01 -16.47,-2 -8.44,-1.15 -11.02,0.3 -17.49,3.86l25.6 6.49zm-40.37 6.47c3.43,-3.14 1.93,5.11 3.17,-6.24l-4.95 3.93 1.78 2.31zm1418.91 -64.44c11.38,-23.11 30.86,-47.34 46.14,-68.33 10.85,-14.91 41.8,-53.39 54.54,-63.37 -12.51,22.12 -33.7,44.02 -49.47,66l-51.21 65.7zm-423.25 -239.73c-3.3,10.16 -13.77,44.56 -11.24,48.18 0.54,0.47 1.26,0.54 1.6,1.42 0.99,2.63 15.27,4.31 18.33,4.92 4.27,-12.6 65.45,-67.85 77.24,-80.58 22.2,-23.95 -4.38,-37.78 -33.87,-67.81 -12.7,-12.93 -15.91,-12.34 -19.67,-17.53 -2.09,2.57 -1.7,0.48 -3.3,5.11 -0.15,0.41 -1.27,6.2 -1.42,6.96l-10.01 39.32c-4.75,6.96 -2.82,3.91 -5.25,14.49l-12.41 45.52zm200.76 84.45c4.98,-4.68 16.53,-13.65 21.57,-16.56l33.35 13.9 2.96 29.87 -54.16 -23.51c-3.88,-2.63 -1.81,-1.5 -3.72,-3.7zm63.1 26.24l-2.99 -26.21c7.09,-6.3 25.45,-19.87 34.47,-24.04l25.84 11.57c-7.47,8.45 -19.21,15.46 -28.27,21.76l-24.74 17.62c-2.85,0.74 -2.76,-0.15 -4.31,-0.7zm28.6 -92.14c6.52,-5.89 18.11,-16.88 25.01,-17.58l6.1 66.42 -27.65 -11.99 -3.46 -36.85zm-30.41 -9.39c7.85,1.1 18.81,5.74 24.91,10.62l2.93 36.34c-7.24,5.88 -22.27,17.24 -29.88,21.22l-34.55 -14.78 -3.62 -36.96c7.08,-6.34 23.95,-19.83 33.46,-21.36l6.75 4.92zm-73.96 3.28l28.98 12.21 2.93 38.55 -24.53 18.73 -7.38 -69.49zm31.72 7.79c-8.46,-2.56 -22.03,-7.7 -27.29,-13.51 7.52,-6.51 47.46,-36.48 54.39,-36.6l2.84 27.15 -29.94 22.96zm31.58 -51.81l61.04 26.42c-3.99,7.11 -15.59,14.5 -21.8,18.51 -10.37,-2.29 -29.1,-11.09 -36.69,-16.58l-2.55 -28.35zm201.68 33.42c-6.14,13.67 -40.98,32.4 -64.7,20.47 -26.88,-13.51 -24.76,-51.16 -15.66,-67.8 -0.73,28.93 -5.58,49.75 18.79,61.85 24.1,11.98 46.71,-7.16 61.57,-14.52zm-180.01 -110c0.59,31.89 -3.15,55.07 23.68,65.91 29.06,11.75 54.82,-17.68 63.73,-23.61 -14.15,22.99 -42.25,39 -65.4,30.88 -31.06,-10.9 -25.15,-41.8 -22.01,-73.18zm288.47 -17.06c6.95,1.24 7.06,0.21 9.22,7.47 2.36,7.96 1.62,10.51 -2.19,16.11 -9.95,-4.08 -8.96,-12.82 -7.03,-23.58zm-96.61 -41.72c-10.82,-3.94 -12.7,-16.77 -4.71,-23.6 8.93,5.26 9.79,14.28 4.71,23.6zm-121 -74.26c6.38,1.86 8.3,0.7 9.87,10.56 1,6.23 0,9.36 -1.37,13.75 -10.71,-3.26 -11.95,-10.29 -8.5,-24.31zm-113.18 -34.53c-1.02,-7.24 -0.29,-7.19 1.76,-13.57 5.67,1.09 7.5,2.2 8.97,8.78 3.15,14.12 -2.62,14.82 -2.66,14.88 -6.39,-2.56 -6.89,-1.77 -8.07,-10.09zm-109.93 -21.96c-10.2,-3.99 -11.96,-15.14 -6.38,-24.53 10.45,3.44 9.83,16.13 6.38,24.53zm-88.42 186.29c3.76,5.19 6.97,4.6 19.67,17.53 29.49,30.03 56.07,43.86 33.87,67.81 -11.79,12.73 -72.97,67.98 -77.24,80.58 118.43,29.74 221.92,73.67 318.97,138.91l90.16 66.21 128.08 -164.84c4.75,-5.94 15.35,-17.32 16.82,-24.22l0.94 0.99c-10.35,5 -11.16,12.74 -23.37,16.11 -11.37,-4.06 -2.53,-4.98 -14.47,-6.44 -21.85,0.17 -62.21,7.68 -57.87,-48.55 0.07,-0.92 0.5,-5.02 0.75,-5.9 1.97,-7.04 2.32,-5.02 3.75,-7.21 -0.55,19.71 -1.66,40.26 16.39,52.55 16.31,11.09 40.94,1.9 53.27,-6.22 0,-6.38 -4.14,-3.52 -9.45,-2.67 -14.99,4.76 -31.29,12.3 -42.95,-3.55 -8.87,-12.04 -7.18,-34.88 -3.84,-50.98 6.52,-31.43 22.12,-56.88 36.03,-79.32 25.53,1.77 40.86,2.26 51.92,-16.3 36.46,-61.21 -66.31,-93 -76.12,-31.17 -2.65,16.69 2.37,19.98 5.3,32.94 -11.16,24.65 -25.79,43.95 -40.59,61.08 -49.23,56.99 -103.08,43.89 -70.83,-42.71 7.93,-21.29 23.66,-52.99 36.82,-66.52 19.94,-0.34 31.72,-5.17 41.07,-17.93 9.12,-12.44 9.35,-33.23 0.36,-47.15 -16.92,-26.18 -64.7,-25.29 -74.61,10.43 -9.12,32.84 21.35,26.79 -21.95,88.86 -67.94,97.4 -128.53,52.12 -58.36,-84.17 24.69,-3.36 39.44,-7.68 46.3,-29.07 7.6,-23.66 -5.43,-42.61 -20.14,-50.42 -46.17,-24.54 -83.52,41.08 -47.56,68.37 -3.27,28.17 -50.13,109.88 -87.41,106.31 -42.59,-4.09 -15.4,-106.85 7.52,-144.48 45.62,-7.28 49.79,-62.66 12.29,-79.9 -19.66,-9.03 -40,0.01 -50.36,13.29 -15.21,19.49 -7.68,37.28 2.6,53.85 -2.79,40.2 -39.2,108.96 -67.88,116.17 -28.35,7.13 -34.62,-30.07 -34.77,-54.93 -0.22,-34.59 8.05,-52.22 14.28,-80.71 53.82,-3.54 55.45,-71.1 10.62,-82.45 -41.66,-10.56 -78.26,46.81 -27.19,78.95 -4.49,29.76 -42,140.97 -40.82,156.87zm535.25 146.75c4.43,1.99 15.17,7.74 8.84,14.39 -4.03,4.24 -12.75,1.93 -19.45,1.75l-0.39 -5.74 -23.98 17.49c5.31,-0.85 9.45,-3.71 9.45,2.67l7.8 -3.3 -2.53 5.35c-1.82,10.76 0.31,9.86 -4.77,16.07 -10.28,-2.96 -5.99,-0.89 -9.53,-7.91l-7.26 5.12c11.94,1.46 3.1,2.38 14.47,6.44 12.21,-3.37 13.02,-11.11 23.37,-16.11l-0.94 -0.99 24.26 -30.87 -6.07 1.89c-4.39,-6.07 -7.62,-4.76 -7.78,-12.25 -4.58,2.46 -3.27,1.18 -5.49,6zm14.56 -16.24c6.15,3.29 7.71,4.93 11.42,11.69 2.12,-1.78 2.73,-1.72 4.56,-3.77 6.5,-7.29 0.44,0.07 4.41,-6.52 -6.63,-3.4 -10.17,-4.97 -11.23,-12.96 -5.57,3.86 0.12,-2.79 -5.55,4.67 -5.67,7.46 -0.08,-0.6 -3.61,6.89zm-9.07 10.24c0.16,7.49 3.39,6.18 7.78,12.25l6.07 -1.89c0.68,-0.54 3.97,-3.39 4.02,-3.45 3.22,-4.08 1.58,-1.8 2.62,-5.46 -3.71,-6.76 -5.27,-8.4 -11.42,-11.69l-9.07 10.24zm-16.49 16.4l0.39 5.74c6.7,0.18 15.42,2.49 19.45,-1.75 6.33,-6.65 -4.41,-12.4 -8.84,-14.39 -3.52,2.25 -7.9,7.2 -11,10.4zm-23.56 30.37c3.54,7.02 -0.75,4.95 9.53,7.91 5.08,-6.21 2.95,-5.31 4.77,-16.07 -6.51,3.4 -6.3,5.07 -14.3,8.16zm58.28 -68.57c1.06,7.99 4.6,9.56 11.23,12.96l0.77 -1.35c-1.99,-8.72 0.19,-1.51 -4.78,-9.72 -1.83,-3.02 -2.21,-5.19 -3.99,-7.44 -7.93,4.98 -1.79,-0.11 -3.23,5.55zm7.48 -21.93c-0.89,9.69 -1.36,7.65 -4.25,16.38 1.78,2.25 2.16,4.42 3.99,7.44 4.97,8.21 2.79,1 4.78,9.72 3.37,-2.81 0.52,1.76 5.54,-5.14 3.31,-4.55 2.28,-3.96 4.09,-8.91l3.92 -2.49 6.28 -7.44c3.64,-2.69 2.94,-2.49 9.08,-2.67 1.66,5.07 -0.31,5.38 2.23,10.43l10.07 -1.49c18.06,-0.28 29.14,-19.94 30.08,-41.34l-5.39 -1.57c-1.24,4.36 0.88,10.87 -4.98,10.87l-0.81 1.23c-0.52,0.48 -1.28,0.52 -1.55,1.44 -0.27,0.89 -1.18,1.05 -1.54,1.33 -17.27,13.3 -14.42,20.3 -25.79,14.47 4.35,-13.43 21.36,-17.24 11.49,-25.74 -0.41,-0.36 -0.11,-6.68 -10.05,1.29 -6.88,5.53 -1,5.22 -10.45,7.26 -9.29,-14.48 9.8,-5.99 6.03,-24.38 -10.6,0.91 -9.58,6.79 -16.1,11.1 -0.58,0.38 -2.4,1.49 -3.03,1.69 -10.8,3.45 -1.59,0.43 -5.36,-0.07l-1.11 -4.15c0.08,-0.41 -0.01,-1.42 0.14,-1.9l5.65 -6.62c3.47,-3.23 7.23,-8.01 11.37,-9.99 14.41,-6.86 17.99,3.92 23.11,12.69l8.65 1.74 -0.11 -2.81c-2.01,-5.29 -5.12,-8.12 -9.84,-12.96 -6.28,-6.42 -9.02,-4.26 -8.9,-13.81 -22.95,-0.03 -41.84,12.72 -42.58,32.67 -7.57,2.74 -1.64,18.3 0.3,22.75l5.04 8.98zm64.63 -14.98c-9.99,-2.47 -10.55,-7.94 -8.54,-19.84l-8.65 -1.74c-5.12,-8.77 -8.7,-19.55 -23.11,-12.69 -4.14,1.98 -7.9,6.76 -11.37,9.99l-5.65 6.62c-0.15,0.48 -0.06,1.49 -0.14,1.9l1.11 4.15c3.77,0.5 -5.44,3.52 5.36,0.07 0.63,-0.2 2.45,-1.31 3.03,-1.69 6.52,-4.31 5.5,-10.19 16.1,-11.1 3.77,18.39 -15.32,9.9 -6.03,24.38 9.45,-2.04 3.57,-1.73 10.45,-7.26 9.94,-7.97 9.64,-1.65 10.05,-1.29 9.87,8.5 -7.14,12.31 -11.49,25.74 11.37,5.83 8.52,-1.17 25.79,-14.47 0.36,-0.28 1.27,-0.44 1.54,-1.33 0.27,-0.92 1.03,-0.96 1.55,-1.44zm-8.65 -22.65c11.54,-0.18 10.44,10.68 9.46,21.42 5.86,0 3.74,-6.51 4.98,-10.87l5.39 1.57c-3.41,-23.42 -14.43,-35.31 -38.57,-38.89 -0.12,9.55 2.62,7.39 8.9,13.81 4.72,4.84 7.83,7.67 9.84,12.96zm-37.91 54.63c4.48,0.59 8.53,1.86 12.9,2.32 3.11,0.33 3.85,0.75 7.17,0.21 10.74,-1.73 5.29,-1.84 7.59,-3.7l-10.07 1.49c-2.54,-5.05 -0.57,-5.36 -2.23,-10.43 -6.14,0.18 -5.44,-0.02 -9.08,2.67l-6.28 7.44z"/>
 </g>
</svg>
