<?xml version="1.0" encoding="UTF-8"?>
<!DOCTYPE svg PUBLIC "-//W3C//DTD SVG 1.1//EN" "http://www.w3.org/Graphics/SVG/1.1/DTD/svg11.dtd">
<!-- Creator: CorelDRAW 2017 -->
<svg xmlns="http://www.w3.org/2000/svg" xml:space="preserve" width="215.9mm" height="279.4mm" version="1.1" style="shape-rendering:geometricPrecision; text-rendering:geometricPrecision; image-rendering:optimizeQuality; fill-rule:evenodd; clip-rule:evenodd"
viewBox="0 0 21590 27940"
 xmlns:xlink="http://www.w3.org/1999/xlink">
 <defs>
  <style type="text/css">
   <![CDATA[
    .str0 {stroke:#FEFEFE;stroke-width:7.62;stroke-miterlimit:22.9256}
    .str1 {stroke:#271C24;stroke-width:7.62;stroke-miterlimit:22.9256}
    .fil5 {fill:#373435}
    .fil7 {fill:#373435}
    .fil1 {fill:#271C24}
    .fil6 {fill:#271C24}
    .fil0 {fill:#F1403A}
    .fil4 {fill:#F58F76}
    .fil2 {fill:#FEFEFE;fill-rule:nonzero}
    .fil3 {fill:#E6E7E8;fill-rule:nonzero}
    .fil8 {fill:#271C24;fill-rule:nonzero}
   ]]>
  </style>
 </defs>
 <g id="Capa_x0020_1">
  <metadata id="CorelCorpID_0Corel-Layer"/>
  <rect class="fil0 str0" width="21590" height="27940"/>
  <polygon class="fil1" points="3465.47,23993.08 19299.3,22117.13 19324.51,22270.81 3490.68,24146.76 "/>
  <path class="fil2" d="M8610.31 26681.26l-402.85 0 0 -676.41 152.47 0 0 552.75 250.38 0 0 123.66zm628.75 -292.88c0,203.04 -94.67,304.63 -283.86,304.63 -183.72,0 -275.49,-99.18 -275.49,-297.55l0 -390.61 152.8 0 0 392.39c0,109.48 42.83,164.23 128.32,164.23 83.89,0 125.91,-52.81 125.91,-158.6l0 -398.02 152.32 0 0 383.53zm299.64 292.88l-152.47 0 0 -676.41 152.47 0 0 676.41zm122.53 -25.92l0 -151.03c27.37,23.02 57.16,40.25 89.2,51.68 32.04,11.43 64.41,17.23 97.09,17.23 19.32,0 36.07,-1.77 50.24,-5.15 14.33,-3.54 26.24,-8.21 35.9,-14.49 9.66,-6.12 16.75,-13.37 21.42,-21.58 4.83,-8.37 7.08,-17.39 7.08,-27.21 0,-13.2 -3.7,-24.96 -11.27,-35.26 -7.57,-10.47 -17.87,-20.13 -30.91,-28.82 -13.05,-8.86 -28.5,-17.39 -46.54,-25.44 -17.87,-8.21 -37.19,-16.59 -57.96,-25.12 -52.81,-21.9 -92.26,-48.79 -118.18,-80.67 -25.93,-31.72 -38.81,-70.04 -38.81,-114.96 0,-35.26 6.93,-65.53 21.1,-90.81 14.16,-25.44 33.49,-46.21 57.8,-62.63 24.47,-16.26 52.65,-28.34 84.69,-36.07 32.04,-7.73 66.02,-11.59 101.92,-11.59 35.26,0 66.5,2.25 93.71,6.44 27.05,4.18 52.17,10.79 75.19,19.64l0 141.05c-11.43,-7.89 -23.67,-14.81 -37.03,-20.77 -13.36,-5.96 -27.21,-10.95 -41.38,-14.98 -14.01,-3.86 -28.18,-6.76 -42.19,-8.69 -14,-1.77 -27.21,-2.74 -39.77,-2.74 -17.38,0 -33,1.61 -47.17,4.83 -14.17,3.38 -26.09,8.05 -35.91,14.01 -9.66,5.96 -17.23,13.04 -22.7,21.41 -5.31,8.38 -7.89,17.72 -7.89,28.02 0,11.43 2.9,21.58 8.86,30.43 5.95,9.02 14.49,17.55 25.6,25.6 10.95,7.89 24.31,15.78 40.09,23.51 15.62,7.73 33.49,15.62 53.29,23.83 27.05,11.27 51.21,23.35 72.78,36.07 21.58,12.72 40.09,27.21 55.39,43.15 15.46,16.1 27.21,34.45 35.42,55.06 8.21,20.45 12.24,44.44 12.24,71.82 0,37.83 -7.09,69.39 -21.42,95.15 -14.33,25.6 -33.65,46.37 -58.28,62.15 -24.48,15.94 -52.97,27.38 -85.5,34.3 -32.68,6.92 -66.98,10.3 -103.21,10.3 -37.03,0 -72.29,-3.06 -105.78,-9.33 -33.49,-6.28 -62.64,-15.78 -87.11,-28.34zm1433.96 25.92l-166 0 -48.14 -150.55 -240.55 0 -47.66 150.55 -165.2 0 246.35 -676.41 180.65 0 240.55 676.41zm-249.08 -267.44l-72.62 -227.35c-5.31,-17.07 -9.18,-37.35 -11.43,-60.86l-3.7 0c-1.61,19.8 -5.48,39.45 -11.76,58.93l-73.58 229.28 173.09 0zm942.08 267.44l-153.77 0 -278.87 -425.07c-16.26,-24.8 -27.69,-43.47 -33.97,-56.03l-1.77 0c2.41,23.83 3.7,60.38 3.7,109.32l0 371.78 -143.94 0 0 -676.41 164.23 0 268.4 411.71c12.24,18.67 23.51,37.03 33.98,55.22l1.93 0c-2.58,-15.61 -3.86,-46.69 -3.86,-92.9l0 -374.03 143.94 0 0 676.41zm709.9 -45.24c-66.01,37.99 -148.13,56.99 -246.34,56.99 -108.69,0 -194.51,-30.11 -257.3,-90.32 -62.63,-60.22 -94.03,-143.14 -94.03,-248.77 0,-106.26 34.3,-192.89 102.89,-259.87 68.43,-67.14 159.72,-100.63 273.55,-100.63 71.65,0 134.93,9.98 189.52,29.79l0 142.97c-52.17,-30.27 -115.93,-45.24 -191.45,-45.24 -63.27,0 -114.64,20.45 -154.41,61.51 -39.93,41.05 -59.73,95.8 -59.73,164.39 0,69.39 17.87,123.17 53.45,161.33 35.75,38 83.89,57 144.59,57 36.55,0 65.53,-5.15 86.79,-15.46l0 -132.19 -135.25 0 0 -121.72 287.72 0 0 340.22zm537.3 45.24l-405.74 0 0 -676.41 390.13 0 0 123.98 -237.66 0 0 150.54 221.23 0 0 123.5 -221.23 0 0 154.73 253.27 0 0 123.66zm511.22 0l-402.85 0 0 -676.41 152.47 0 0 552.75 250.38 0 0 123.66z"/>
  <g id="_2093316038064">
   <path class="fil3" d="M1650.22 23467.35c32.37,-3.84 63.18,0.07 92.43,11.71 29.26,11.64 53.64,30.5 73.15,56.59 19.5,26.07 31.51,58.13 36.02,96.16 5.42,45.72 0.16,88.16 -15.78,127.3 -15.94,39.15 -40.15,71.19 -72.62,96.15 -32.46,24.94 -70.03,39.95 -112.67,45.01 -63.2,7.49 -110.34,-7.76 -141.42,-45.76l-16.54 209.86 -120.22 14.25 45.62 -577.51 114.07 -13.52 -3.63 41.86c30.7,-35.43 71.24,-56.13 121.59,-62.1zm-25.13 335.14c23.63,-2.8 44.01,-11.08 61.14,-24.83 17.13,-13.76 29.61,-31.52 37.45,-53.29 7.84,-21.77 10.17,-46.02 7,-72.73 -3.35,-28.27 -14.34,-49.63 -32.99,-64.08 -18.66,-14.47 -42.88,-19.93 -72.68,-16.4 -23.12,2.74 -43.25,10.99 -60.37,24.74 -17.12,13.76 -29.61,31.53 -37.45,53.29 -7.83,21.77 -10.17,46.02 -7.01,72.73 3.35,28.26 14.23,49.64 32.62,64.14 18.4,14.48 42.49,19.96 72.29,16.43zm494.5 -390.79c59.08,-7.01 108.66,3.53 148.72,31.6 40.07,28.08 63.65,72.17 70.78,132.29 1.22,10.28 1.88,18.01 1.98,23.21l-312.91 96.5c15.67,39.83 52.78,56.27 111.36,49.32 21.58,-2.55 41.5,-8.18 59.74,-16.86 18.25,-8.67 33.55,-20.26 45.9,-34.74l59.51 73.44c-20.93,21.24 -45.74,38.25 -74.44,51.03 -28.71,12.78 -59.5,21.12 -92.39,25.02 -42.64,5.06 -80.92,1.91 -114.83,-9.44 -33.91,-11.35 -61.15,-30.13 -81.72,-56.35 -20.56,-26.22 -33.03,-57.82 -37.42,-94.81 -5.42,-45.73 -0.03,-88.18 16.17,-127.36 16.19,-39.17 41.68,-71.38 76.47,-96.6 34.78,-25.23 75.81,-40.65 123.08,-46.25zm5.3 90.81c-32.38,3.84 -57.56,16.73 -75.53,38.66 -17.98,21.93 -28.1,49.7 -30.37,83.31l205.06 -63.39c-5.71,-21.72 -17.36,-37.66 -34.98,-47.82 -17.61,-10.16 -39.01,-13.74 -64.18,-10.76zm415.15 -84.4c15.66,-21.65 35.7,-38.36 60.1,-50.1 24.4,-11.76 53.81,-19.67 88.23,-23.75l-8.42 113.54c-14.51,0.68 -23.82,1.26 -27.93,1.75 -36.47,4.32 -64.57,16.78 -84.28,37.35 -19.7,20.56 -31.15,50.32 -34.34,89.26l-16.32 205.13 -120.23 14.26 33.3 -424.42 114.06 -13.53 -4.17 50.51zm399.34 329.36c-41.61,4.94 -79.13,1.57 -112.56,-10.09 -33.43,-11.68 -60.41,-30.49 -80.94,-56.45 -20.54,-25.96 -32.99,-57.44 -37.38,-94.43 -5.42,-45.73 0.49,-88.12 17.75,-127.15 17.25,-39.05 43.64,-71.35 79.16,-96.93 35.53,-25.57 77.18,-41.19 124.97,-46.86 42.13,-5 79.78,-1.63 112.96,10.06 33.16,11.7 60.02,30.53 80.55,56.49 20.53,25.96 32.99,57.43 37.38,94.43 5.42,45.73 -0.37,88.1 -17.37,127.1 -16.99,39.02 -43.38,71.32 -79.17,96.93 -35.78,25.6 -77.56,41.24 -125.35,46.9zm-4.08 -100.33c23.13,-2.75 43.25,-10.99 60.38,-24.74 17.13,-13.76 29.6,-31.52 37.44,-53.29 7.85,-21.77 10.18,-46.02 7.01,-72.73 -3.35,-28.27 -14.22,-49.65 -32.61,-64.13 -18.39,-14.5 -42.49,-19.98 -72.29,-16.44 -23.63,2.8 -44.02,11.08 -61.14,24.83 -17.13,13.76 -29.61,31.52 -37.45,53.29 -7.84,21.77 -10.18,46.02 -7.01,72.73 3.35,28.26 14.35,49.62 33.01,64.09 18.64,14.45 42.86,19.92 72.66,16.39zm660.73 22.48c-35.95,4.26 -70.47,4.31 -103.53,0.16 -33.06,-4.16 -59.33,-11.6 -78.84,-22.3l35.91 -92.58c19.38,9.69 42.48,16.59 69.28,20.7 26.8,4.12 53.3,4.63 79.51,1.52 27.23,-3.23 47.12,-9.1 59.65,-17.63 12.53,-8.51 18.04,-19.2 16.52,-32.05 -1.22,-10.27 -8.01,-17.02 -20.38,-20.25 -12.36,-3.21 -31.96,-5.85 -58.76,-7.87 -30.47,-2.12 -55.74,-5.38 -75.8,-9.78 -20.06,-4.4 -38.05,-13.33 -53.98,-26.81 -15.93,-13.48 -25.44,-33.32 -28.55,-59.53 -5.42,-45.73 9.48,-83.71 44.71,-113.94 35.23,-30.22 83.94,-49.03 146.11,-56.4 28.77,-3.41 57.14,-3.65 85.1,-0.71 27.97,2.94 52.09,8.67 72.38,17.21l-32.74 92.98c-36.41,-17.05 -78.51,-22.74 -126.29,-17.08 -26.21,3.11 -45.66,9.33 -58.36,18.65 -12.7,9.32 -18.36,19.89 -16.96,31.71 1.28,10.79 8.12,17.92 20.52,21.4 12.4,3.49 32.81,6.41 61.23,8.77 29.95,2.17 54.69,5.36 74.2,9.57 19.52,4.2 37.09,12.92 52.73,26.18 15.64,13.25 24.98,32.72 28.03,58.41 5.48,46.25 -9.68,84.26 -45.49,114.03 -35.8,29.78 -84.54,48.32 -146.2,55.64zm290.76 -461.21l119.47 -14.16 -33.31 424.42 -119.46 14.16 33.3 -424.42zm73.31 -67.31c-20.56,2.44 -38.11,-1.59 -52.64,-12.11 -14.53,-10.53 -22.83,-24.53 -24.9,-41.99 -2.44,-20.56 2.85,-38.51 15.89,-53.86 13.02,-15.35 31.36,-24.43 54.99,-27.23 21.06,-2.5 38.84,1.25 53.31,11.26 14.47,10.01 22.71,23.49 24.72,40.45 2.62,22.09 -2.71,40.83 -16,56.21 -13.28,15.38 -31.74,24.47 -55.37,27.27zm398.4 5.13c46.25,-5.49 84.43,2.36 114.56,23.54 30.12,21.18 47.87,54.37 53.23,99.59 2.01,16.96 2.19,33.87 0.54,50.74l-19.01 235.15 -120.23 14.26 18.38 -227.27c1.02,-8.98 0.93,-18.61 -0.29,-28.88 -2.56,-21.58 -10.42,-37.32 -23.58,-47.23 -13.15,-9.9 -31.56,-13.44 -55.19,-10.64 -30.83,3.65 -55.34,15.54 -73.53,35.67 -18.2,20.15 -28.79,48.36 -31.78,84.66l-16.67 215.34 -120.23 14.26 33.3 -424.42 114.06 -13.53 -3.94 45.81c32.97,-38.3 76.43,-60.66 130.38,-67.05zm742.2 -88.01c32.37,-3.83 63.18,0.08 92.43,11.71 29.26,11.65 53.64,30.51 73.15,56.59 19.5,26.08 31.51,58.14 36.02,96.16 5.42,45.73 0.16,88.17 -15.78,127.31 -15.94,39.14 -40.15,71.19 -72.62,96.14 -32.46,24.95 -70.03,39.96 -112.67,45.01 -32.37,3.84 -61.05,1.51 -86.02,-7 -24.98,-8.49 -45.23,-23.28 -60.75,-44.37l-5.02 63.12 -114.06 13.52 46.25 -585.39 120.23 -14.25 -15.69 197.24c30.11,-31.71 68.29,-50.3 114.53,-55.79zm-25.13 335.15c23.63,-2.81 44.01,-11.08 61.14,-24.84 17.13,-13.75 29.61,-31.51 37.45,-53.29 7.84,-21.76 10.17,-46.01 7,-72.73 -3.35,-28.26 -14.34,-49.62 -32.99,-64.08 -18.66,-14.46 -42.88,-19.93 -72.68,-16.39 -23.12,2.74 -43.25,10.98 -60.37,24.74 -17.13,13.76 -29.61,31.52 -37.45,53.29 -7.83,21.77 -10.17,46.01 -7.01,72.73 3.35,28.26 14.23,49.64 32.62,64.13 18.39,14.49 42.49,19.97 72.29,16.44zm494.49 -390.8c59.09,-7 108.67,3.53 148.73,31.61 40.07,28.08 63.65,72.17 70.78,132.29 1.22,10.28 1.88,18.01 1.98,23.21l-312.91 96.5c15.67,39.82 52.78,56.27 111.36,49.32 21.58,-2.56 41.5,-8.18 59.74,-16.86 18.25,-8.67 33.55,-20.26 45.9,-34.75l59.51 73.45c-20.93,21.24 -45.74,38.25 -74.45,51.03 -28.7,12.78 -59.49,21.12 -92.38,25.02 -42.64,5.06 -80.92,1.91 -114.83,-9.44 -33.91,-11.35 -61.15,-30.14 -81.72,-56.36 -20.56,-26.22 -33.03,-57.82 -37.42,-94.81 -5.42,-45.73 -0.03,-88.18 16.17,-127.36 16.19,-39.17 41.68,-71.37 76.46,-96.59 34.79,-25.23 75.82,-40.65 123.08,-46.26zm5.31 90.82c-32.38,3.84 -57.56,16.72 -75.53,38.65 -17.98,21.93 -28.1,49.71 -30.37,83.32l205.06 -63.39c-5.71,-21.73 -17.36,-37.67 -34.98,-47.82 -17.61,-10.16 -39.01,-13.74 -64.18,-10.76zm423.74 291.29c-35.96,4.27 -70.47,4.32 -103.53,0.16 -33.06,-4.15 -59.34,-11.59 -78.84,-22.3l35.91 -92.57c19.38,9.68 42.47,16.58 69.27,20.7 26.81,4.12 53.31,4.62 79.52,1.52 27.23,-3.23 47.11,-9.11 59.65,-17.63 12.53,-8.52 18.04,-19.2 16.52,-32.05 -1.22,-10.28 -8.01,-17.02 -20.38,-20.25 -12.36,-3.22 -31.96,-5.85 -58.77,-7.88 -30.47,-2.11 -55.74,-5.37 -75.79,-9.77 -20.06,-4.4 -38.06,-13.33 -53.99,-26.81 -15.92,-13.49 -25.44,-33.33 -28.54,-59.53 -5.43,-45.73 9.48,-83.71 44.71,-113.94 35.23,-30.23 83.93,-49.03 146.11,-56.41 28.76,-3.41 57.13,-3.64 85.1,-0.7 27.97,2.94 52.09,8.67 72.37,17.21l-32.73 92.98c-36.42,-17.05 -78.51,-22.75 -126.29,-17.08 -26.21,3.11 -45.66,9.33 -58.36,18.65 -12.7,9.32 -18.36,19.89 -16.96,31.71 1.28,10.78 8.12,17.92 20.51,21.4 12.41,3.49 32.82,6.4 61.23,8.76 29.96,2.18 54.69,5.37 74.2,9.57 19.53,4.2 37.09,12.93 52.73,26.19 15.64,13.25 24.99,32.72 28.04,58.41 5.48,46.25 -9.68,84.26 -45.49,114.03 -35.81,29.77 -84.54,48.32 -146.2,55.63zm474.76 -56.29c-41.62,4.94 -79.14,1.57 -112.57,-10.1 -33.42,-11.67 -60.41,-30.48 -80.94,-56.45 -20.54,-25.95 -32.99,-57.43 -37.37,-94.42 -5.43,-45.73 0.48,-88.12 17.74,-127.16 17.25,-39.04 43.64,-71.34 79.17,-96.92 35.52,-25.57 77.17,-41.2 124.96,-46.86 42.13,-5 79.78,-1.64 112.96,10.06 33.17,11.69 60.02,30.52 80.55,56.48 20.53,25.97 32.99,57.44 37.38,94.44 5.42,45.73 -0.37,88.1 -17.37,127.1 -16.99,39.01 -43.38,71.31 -79.17,96.93 -35.78,25.6 -77.56,41.23 -125.34,46.9zm-4.09 -100.34c23.13,-2.74 43.25,-10.99 60.38,-24.74 17.13,-13.75 29.6,-31.51 37.45,-53.29 7.84,-21.76 10.17,-46.02 7,-72.73 -3.35,-28.26 -14.22,-49.64 -32.61,-64.12 -18.39,-14.5 -42.48,-19.98 -72.29,-16.45 -23.63,2.8 -44.02,11.08 -61.14,24.83 -17.13,13.77 -29.61,31.53 -37.45,53.3 -7.83,21.77 -10.18,46.01 -7.01,72.73 3.35,28.26 14.35,49.62 33.01,64.09 18.64,14.45 42.86,19.92 72.66,16.38zm442.62 48.34c-35.95,4.27 -70.47,4.32 -103.53,0.16 -33.06,-4.15 -59.34,-11.59 -78.84,-22.3l35.91 -92.57c19.38,9.69 42.48,16.58 69.28,20.7 26.8,4.12 53.3,4.62 79.51,1.52 27.23,-3.23 47.11,-9.1 59.65,-17.63 12.53,-8.52 18.04,-19.2 16.52,-32.05 -1.22,-10.28 -8.01,-17.02 -20.38,-20.25 -12.36,-3.22 -31.96,-5.85 -58.76,-7.88 -30.47,-2.11 -55.74,-5.37 -75.8,-9.77 -20.06,-4.4 -38.06,-13.33 -53.98,-26.81 -15.93,-13.49 -25.44,-33.32 -28.55,-59.53 -5.42,-45.73 9.48,-83.71 44.71,-113.94 35.23,-30.23 83.93,-49.03 146.11,-56.4 28.77,-3.42 57.14,-3.65 85.1,-0.71 27.97,2.94 52.09,8.67 72.38,17.21l-32.74 92.98c-36.41,-17.05 -78.51,-22.75 -126.29,-17.08 -26.21,3.11 -45.66,9.33 -58.36,18.65 -12.7,9.32 -18.36,19.89 -16.96,31.71 1.28,10.78 8.12,17.92 20.52,21.4 12.4,3.49 32.81,6.4 61.22,8.76 29.96,2.18 54.7,5.37 74.21,9.57 19.52,4.2 37.09,12.93 52.73,26.19 15.64,13.25 24.98,32.72 28.03,58.41 5.48,46.25 -9.68,84.26 -45.49,114.03 -35.8,29.78 -84.54,48.32 -146.2,55.63zm678.47 -513.42c59.09,-7.01 108.66,3.53 148.73,31.6 40.06,28.08 63.65,72.17 70.77,132.29 1.22,10.28 1.89,18.01 1.98,23.21l-312.9 96.5c15.66,39.83 52.78,56.27 111.36,49.32 21.58,-2.55 41.49,-8.18 59.74,-16.86 18.25,-8.67 33.55,-20.26 45.9,-34.74l59.51 73.44c-20.94,21.24 -45.75,38.25 -74.45,51.03 -28.71,12.78 -59.5,21.12 -92.39,25.02 -42.64,5.06 -80.91,1.91 -114.83,-9.44 -33.91,-11.35 -61.14,-30.13 -81.71,-56.35 -20.56,-26.22 -33.04,-57.82 -37.43,-94.82 -5.42,-45.72 -0.03,-88.17 16.17,-127.35 16.19,-39.17 41.69,-71.38 76.47,-96.6 34.78,-25.23 75.81,-40.65 123.08,-46.25zm5.3 90.81c-32.37,3.84 -57.55,16.73 -75.52,38.65 -17.99,21.93 -28.11,49.71 -30.38,83.32l205.07 -63.39c-5.71,-21.72 -17.37,-37.66 -34.99,-47.82 -17.61,-10.16 -39.01,-13.74 -64.18,-10.76zm545.76 -156.15c46.25,-5.49 84.43,2.36 114.56,23.54 30.12,21.18 47.86,54.37 53.22,99.59 2.02,16.96 2.2,33.86 0.55,50.74l-19.01 235.15 -120.23 14.26 18.38 -227.27c1.02,-8.98 0.92,-18.61 -0.29,-28.89 -2.56,-21.57 -10.42,-37.31 -23.58,-47.22 -13.16,-9.9 -31.56,-13.45 -55.2,-10.64 -30.82,3.65 -55.33,15.54 -73.53,35.67 -18.19,20.15 -28.78,48.36 -31.77,84.66l-16.67 215.34 -120.23 14.26 33.3 -424.42 114.06 -13.53 -3.94 45.8c32.97,-38.29 76.43,-60.65 130.38,-67.04zm624.04 358.99c-38.54,4.57 -69.76,-1.63 -93.65,-18.6 -23.89,-16.96 -37.91,-42.92 -42.05,-77.86 -1.28,-10.79 -1.49,-23.52 -0.63,-38.22l35.42 -439.52 120.23 -14.25 -35.01 436.35c-0.55,4.22 -0.39,9.94 0.46,17.13 1.52,12.84 6.41,22.17 14.66,27.96 8.24,5.8 19.04,7.9 32.4,6.32 13.35,-1.59 24.41,-4.98 33.18,-10.19l-1.46 93.18c-19.77,9.12 -40.95,15.02 -63.55,17.7zm595.21 -167.49c13.87,-1.65 25.19,-5.07 33.95,-10.28l-1.45 93.18c-19.77,9.12 -41.21,15.04 -64.33,17.79 -29.8,3.53 -55.04,0.53 -75.7,-9 -20.67,-9.54 -35.85,-24.41 -45.54,-44.62 -31.18,49.02 -77.35,77.16 -138.49,84.41 -32.37,3.84 -63.06,-0.07 -92.05,-11.75 -29,-11.67 -53.25,-30.54 -72.76,-56.63 -19.5,-26.08 -31.51,-58.14 -36.02,-96.16 -5.42,-45.73 -0.16,-88.16 15.78,-127.31 15.94,-39.14 40.15,-71.19 72.62,-96.14 32.47,-24.96 69.77,-39.93 111.9,-44.93 63.72,-7.55 111.14,7.93 142.28,46.44l4.12 -57.54 120.23 -14.26 -22.06 275.38c-0.54,4.23 -0.38,9.95 0.48,17.14 1.58,13.35 6.48,22.8 14.69,28.35 8.21,5.54 18.99,7.51 32.35,5.93zm-266.36 27.67c23.64,-2.8 44.03,-11.08 61.16,-24.83 17.12,-13.75 29.6,-31.52 37.44,-53.29 7.84,-21.77 10.17,-46.02 7.01,-72.73 -3.35,-28.26 -14.36,-49.63 -33,-64.08 -18.65,-14.47 -42.87,-19.93 -72.67,-16.4 -23.64,2.8 -44.03,11.08 -61.15,24.83 -17.12,13.77 -29.61,31.53 -37.45,53.29 -7.83,21.78 -10.17,46.02 -7.01,72.73 3.35,28.27 14.36,49.63 33.01,64.09 18.64,14.46 42.86,19.93 72.66,16.39zm842.1 -432.01c32.36,-3.83 63.17,0.08 92.43,11.71 29.25,11.65 53.63,30.51 73.14,56.59 19.51,26.08 31.51,58.14 36.02,96.16 5.42,45.73 0.16,88.17 -15.78,127.31 -15.94,39.14 -40.15,71.19 -72.61,96.14 -32.47,24.95 -70.04,39.96 -112.68,45.01 -32.37,3.84 -61.04,1.51 -86.02,-7 -24.97,-8.49 -45.23,-23.28 -60.75,-44.37l-5.02 63.12 -114.06 13.52 46.25 -585.39 120.23 -14.25 -15.68 197.24c30.1,-31.71 68.28,-50.3 114.53,-55.79zm-25.14 335.15c23.64,-2.81 44.01,-11.08 61.14,-24.84 17.13,-13.75 29.61,-31.51 37.45,-53.29 7.84,-21.76 10.17,-46.01 7,-72.73 -3.35,-28.26 -14.34,-49.62 -32.99,-64.08 -18.65,-14.46 -42.88,-19.93 -72.68,-16.39 -23.11,2.74 -43.24,10.98 -60.36,24.74 -17.13,13.76 -29.62,31.52 -37.46,53.29 -7.83,21.77 -10.17,46.01 -7,72.73 3.35,28.26 14.22,49.64 32.61,64.13 18.4,14.49 42.49,19.97 72.29,16.44zm508.9 40.48c-41.62,4.93 -79.14,1.57 -112.56,-10.1 -33.43,-11.67 -60.41,-30.49 -80.94,-56.45 -20.54,-25.95 -33,-57.44 -37.38,-94.43 -5.42,-45.73 0.49,-88.12 17.74,-127.15 17.25,-39.04 43.64,-71.35 79.17,-96.93 35.52,-25.57 77.17,-41.19 124.96,-46.86 42.13,-4.99 79.78,-1.63 112.96,10.06 33.17,11.7 60.02,30.53 80.55,56.49 20.53,25.96 32.99,57.44 37.38,94.44 5.42,45.73 -0.37,88.09 -17.36,127.1 -17,39.01 -43.39,71.31 -79.17,96.92 -35.79,25.6 -77.57,41.24 -125.35,46.91zm-4.08 -100.34c23.12,-2.74 43.24,-10.99 60.37,-24.74 17.13,-13.75 29.61,-31.52 37.45,-53.29 7.84,-21.77 10.17,-46.02 7,-72.73 -3.35,-28.26 -14.22,-49.64 -32.6,-64.13 -18.4,-14.49 -42.49,-19.97 -72.29,-16.44 -23.64,2.8 -44.02,11.08 -61.14,24.83 -17.13,13.76 -29.62,31.53 -37.46,53.29 -7.83,21.78 -10.17,46.02 -7.01,72.73 3.36,28.26 14.36,49.63 33.01,64.09 18.64,14.46 42.86,19.92 72.67,16.39zm510.44 40.3c-42.64,5.05 -80.81,1.77 -114.49,-9.87 -33.68,-11.65 -60.79,-30.44 -81.32,-56.41 -20.54,-25.95 -33,-57.43 -37.38,-94.42 -5.42,-45.73 0.49,-88.12 17.74,-127.16 17.25,-39.04 43.9,-71.37 79.94,-97.01 36.03,-25.63 78.21,-41.32 126.5,-47.05 44.19,-5.24 83.43,-0.63 117.7,13.8 34.27,14.43 61.36,37.4 81.24,68.9l-95.7 62.94c-22.43,-35.37 -55.48,-50.48 -99.15,-45.3 -23.64,2.8 -44.15,11.1 -61.53,24.88 -17.38,13.79 -30.12,31.59 -38.22,53.38 -8.09,21.8 -10.59,45.81 -7.49,72.01 3.35,28.25 14.5,49.73 33.43,64.42 18.94,14.69 43.57,20.24 73.88,16.64 44.18,-5.24 75.9,-27.76 95.15,-67.55l95.22 44.98c-16.32,33.72 -40.8,61.37 -73.4,82.95 -32.62,21.58 -69.98,34.87 -112.12,39.87zm710.06 -181.11c13.87,-1.64 25.18,-5.07 33.95,-10.28l-1.46 93.18c-19.76,9.12 -41.2,15.05 -64.32,17.79 -29.8,3.53 -55.04,0.53 -75.71,-9 -20.66,-9.53 -35.84,-24.41 -45.54,-44.62 -31.17,49.02 -77.34,77.17 -138.48,84.42 -32.37,3.83 -63.06,-0.08 -92.05,-11.76 -29,-11.66 -53.25,-30.54 -72.76,-56.62 -19.51,-26.09 -31.51,-58.15 -36.02,-96.16 -5.42,-45.73 -0.16,-88.17 15.78,-127.31 15.94,-39.14 40.15,-71.2 72.61,-96.14 32.48,-24.96 69.78,-39.94 111.91,-44.93 63.72,-7.56 111.14,7.93 142.28,46.44l4.11 -57.55 120.24 -14.25 -22.06 275.38c-0.54,4.22 -0.38,9.94 0.47,17.13 1.59,13.36 6.48,22.81 14.69,28.35 8.21,5.54 19,7.52 32.36,5.93zm-266.36 27.68c23.64,-2.81 44.02,-11.08 61.15,-24.84 17.12,-13.75 29.61,-31.51 37.45,-53.29 7.84,-21.76 10.17,-46.01 7,-72.73 -3.35,-28.26 -14.35,-49.62 -32.99,-64.08 -18.65,-14.46 -42.88,-19.93 -72.68,-16.39 -23.63,2.8 -44.02,11.08 -61.14,24.83 -17.13,13.76 -29.61,31.52 -37.45,53.29 -7.83,21.77 -10.18,46.02 -7.01,72.73 3.35,28.26 14.35,49.62 33.01,64.09 18.64,14.45 42.86,19.92 72.66,16.39zm842.09 -432.01c32.37,-3.84 63.18,0.07 92.43,11.71 29.26,11.64 53.64,30.5 73.15,56.59 19.5,26.07 31.51,58.13 36.02,96.16 5.42,45.73 0.16,88.16 -15.78,127.3 -15.94,39.15 -40.15,71.19 -72.62,96.15 -32.46,24.95 -70.03,39.95 -112.67,45.01 -63.2,7.49 -110.34,-7.76 -141.42,-45.76l-16.54 209.86 -120.22 14.25 45.62 -577.51 114.07 -13.52 -3.63 41.86c30.7,-35.43 71.24,-56.13 121.59,-62.1zm-25.13 335.14c23.63,-2.8 44.01,-11.08 61.14,-24.83 17.13,-13.75 29.61,-31.52 37.45,-53.29 7.84,-21.77 10.17,-46.02 7,-72.73 -3.35,-28.26 -14.34,-49.63 -32.99,-64.08 -18.66,-14.47 -42.88,-19.93 -72.68,-16.4 -23.12,2.74 -43.25,10.99 -60.37,24.74 -17.12,13.76 -29.61,31.53 -37.45,53.29 -7.83,21.77 -10.17,46.02 -7.01,72.73 3.35,28.26 14.23,49.64 32.62,64.14 18.4,14.48 42.49,19.96 72.29,16.43zm508.9 40.48c-41.62,4.94 -79.14,1.57 -112.57,-10.1 -33.42,-11.67 -60.41,-30.48 -80.94,-56.45 -20.53,-25.95 -32.99,-57.43 -37.37,-94.42 -5.43,-45.73 0.48,-88.12 17.74,-127.16 17.25,-39.04 43.64,-71.34 79.17,-96.92 35.52,-25.57 77.17,-41.2 124.96,-46.86 42.13,-5 79.78,-1.64 112.96,10.06 33.17,11.69 60.02,30.52 80.55,56.49 20.53,25.96 32.99,57.43 37.38,94.43 5.42,45.73 -0.37,88.1 -17.37,127.1 -16.99,39.01 -43.38,71.31 -79.17,96.93 -35.78,25.6 -77.56,41.24 -125.34,46.9zm-4.09 -100.34c23.13,-2.74 43.25,-10.98 60.38,-24.74 17.13,-13.75 29.61,-31.51 37.45,-53.29 7.84,-21.76 10.17,-46.01 7,-72.73 -3.35,-28.26 -14.22,-49.64 -32.61,-64.12 -18.39,-14.5 -42.48,-19.98 -72.29,-16.45 -23.63,2.81 -44.02,11.08 -61.14,24.84 -17.13,13.76 -29.61,31.52 -37.45,53.29 -7.83,21.77 -10.18,46.01 -7.01,72.73 3.35,28.26 14.36,49.62 33.01,64.09 18.64,14.45 42.86,19.92 72.66,16.38zm434.03 -327.35c15.67,-21.65 35.7,-38.36 60.11,-50.1 24.39,-11.76 53.8,-19.68 88.22,-23.76l-8.42 113.54c-14.51,0.69 -23.81,1.27 -27.92,1.76 -36.48,4.32 -64.58,16.77 -84.28,37.35 -19.71,20.56 -31.15,50.32 -34.35,89.25l-16.32 205.14 -120.23 14.26 33.3 -424.43 114.06 -13.52 -4.17 50.51zm636.16 -125.45l-45.64 577.52 -120.22 14.25 14.47 -187.73c-29.72,30.62 -67.96,48.7 -114.71,54.24 -32.37,3.84 -63.06,-0.07 -92.05,-11.75 -29,-11.67 -53.25,-30.54 -72.76,-56.63 -19.5,-26.08 -31.51,-58.14 -36.02,-96.15 -5.42,-45.73 -0.16,-88.17 15.78,-127.32 15.94,-39.14 40.15,-71.19 72.62,-96.14 32.47,-24.95 69.77,-39.93 111.9,-44.92 32.37,-3.84 61.19,-1.4 86.45,7.34 25.26,8.72 45.43,23.91 60.51,45.57l4.84 -64.66 114.83 -13.62zm-346.57 274c3.35,28.26 14.36,49.62 33.01,64.09 18.64,14.45 42.86,19.92 72.66,16.39 23.64,-2.81 44.03,-11.09 61.16,-24.84 17.12,-13.75 29.6,-31.51 37.44,-53.29 7.84,-21.76 10.17,-46.02 7.01,-72.73 -3.35,-28.26 -14.36,-49.62 -33,-64.08 -18.65,-14.46 -42.87,-19.93 -72.67,-16.4 -23.64,2.81 -44.03,11.08 -61.15,24.84 -17.12,13.76 -29.61,31.52 -37.45,53.29 -7.83,21.77 -10.17,46.01 -7.01,72.73zm901.51 -9.98c13.37,-1.58 24.42,-4.98 33.18,-10.19l-1.46 93.18c-19.75,9.12 -40.93,15.02 -63.55,17.7 -30.31,3.59 -56.09,0.4 -77.33,-9.59 -21.25,-9.99 -36.48,-25.37 -45.73,-46.16 -16.26,25.37 -36.95,45.41 -62.03,60.11 -25.09,14.7 -52.54,23.81 -82.34,27.35 -45.22,5.36 -82.78,-2.69 -112.67,-24.15 -29.91,-21.47 -47.5,-54.55 -52.8,-99.26 -2.01,-16.95 -2.2,-33.86 -0.55,-50.74l18.25 -235.06 120.22 -14.25 -17.61 227.17c-0.9,10 -0.73,20.15 0.49,30.42 5.11,43.16 30.79,62 77.04,56.52 30.3,-3.6 54.31,-15.43 71.99,-35.5 17.68,-20.07 28.01,-48.26 31,-84.57l17.44 -215.43 120.23 -14.25 -21.88 276.92c-0.17,7.31 -0.07,12.51 0.29,15.59 3.11,26.21 19.05,37.6 47.82,34.19zm285.95 -369.97c59.08,-7.01 108.66,3.53 148.72,31.61 40.07,28.07 63.65,72.16 70.78,132.28 1.22,10.28 1.88,18.02 1.98,23.21l-312.91 96.51c15.67,39.82 52.79,56.26 111.37,49.32 21.57,-2.56 41.49,-8.19 59.74,-16.87 18.24,-8.66 33.54,-20.26 45.89,-34.74l59.52 73.44c-20.94,21.24 -45.75,38.25 -74.45,51.03 -28.71,12.78 -59.5,21.13 -92.39,25.03 -42.64,5.05 -80.92,1.91 -114.83,-9.45 -33.91,-11.35 -61.14,-30.13 -81.71,-56.35 -20.57,-26.22 -33.04,-57.82 -37.43,-94.81 -5.42,-45.73 -0.03,-88.18 16.17,-127.36 16.19,-39.17 41.68,-71.38 76.47,-96.6 34.78,-25.23 75.81,-40.65 123.08,-46.25zm5.3 90.82c-32.38,3.83 -57.56,16.72 -75.53,38.65 -17.98,21.93 -28.1,49.7 -30.37,83.31l205.06 -63.38c-5.7,-21.73 -17.36,-37.67 -34.98,-47.83 -17.61,-10.15 -39.01,-13.74 -64.18,-10.75zm1042.86 -215.1c45.23,-5.37 82.63,2.58 112.25,23.82 29.61,21.24 47.07,54.2 52.37,98.91 1.95,16.43 2.16,33.61 0.63,51.5l-18.24 235.06 -120.23 14.26 17.71 -226.4c0.83,-10.52 0.61,-21.18 -0.67,-31.96 -2.5,-21.08 -9.91,-36.35 -22.23,-45.82 -12.33,-9.49 -29.28,-12.95 -50.87,-10.39 -58.05,6.89 -90.17,45.86 -96.33,116.93l-17.16 217.74 -120.24 14.26 17.71 -226.4c0.83,-10.52 0.65,-20.92 -0.57,-31.2 -2.5,-21.06 -9.93,-36.46 -22.29,-46.2 -12.35,-9.74 -29.32,-13.33 -50.9,-10.77 -58.06,6.89 -90.37,46.41 -96.92,118.57l-16.58 216.1 -120.23 14.26 33.3 -424.42 114.06 -13.53 -4.13 44.26c32.07,-37.15 73.54,-58.74 124.4,-64.77 28.78,-3.41 55.03,-0.67 78.75,8.25 23.72,8.91 42.54,23.74 56.46,44.49 17.42,-24.47 38.8,-44.06 64.16,-58.79 25.34,-14.73 53.94,-23.99 85.79,-27.76zm463.21 -54.93c59.09,-7 108.66,3.53 148.73,31.61 40.06,28.08 63.65,72.17 70.77,132.29 1.22,10.28 1.89,18.01 1.98,23.21l-312.9 96.5c15.66,39.82 52.78,56.27 111.36,49.32 21.58,-2.56 41.49,-8.18 59.74,-16.86 18.24,-8.67 33.55,-20.26 45.9,-34.75l59.51 73.45c-20.94,21.24 -45.75,38.25 -74.45,51.03 -28.71,12.78 -59.5,21.12 -92.39,25.02 -42.64,5.06 -80.92,1.91 -114.83,-9.44 -33.91,-11.35 -61.14,-30.13 -81.71,-56.35 -20.56,-26.23 -33.04,-57.83 -37.43,-94.82 -5.42,-45.73 -0.03,-88.18 16.17,-127.36 16.19,-39.17 41.69,-71.37 76.47,-96.59 34.78,-25.23 75.81,-40.65 123.08,-46.26zm5.3 90.82c-32.37,3.84 -57.55,16.72 -75.53,38.65 -17.98,21.93 -28.1,49.71 -30.37,83.32l205.07 -63.39c-5.71,-21.73 -17.37,-37.66 -34.99,-47.82 -17.61,-10.16 -39.01,-13.74 -64.18,-10.76z"/>
   <path class="fil3" d="M16813.23 21669.47c59.08,-7.01 108.66,3.53 148.72,31.61 40.07,28.08 63.65,72.17 70.78,132.28 1.22,10.28 1.89,18.02 1.98,23.21l-312.9 96.51c15.66,39.82 52.78,56.26 111.36,49.32 21.58,-2.56 41.49,-8.18 59.74,-16.86 18.24,-8.67 33.55,-20.26 45.9,-34.75l59.51 73.44c-20.94,21.25 -45.75,38.26 -74.45,51.04 -28.71,12.77 -59.5,21.12 -92.39,25.02 -42.64,5.05 -80.92,1.91 -114.83,-9.45 -33.91,-11.34 -61.14,-30.13 -81.71,-56.35 -20.56,-26.22 -33.04,-57.82 -37.43,-94.81 -5.42,-45.73 -0.03,-88.18 16.17,-127.36 16.19,-39.17 41.69,-71.37 76.47,-96.6 34.78,-25.23 75.81,-40.64 123.08,-46.25zm5.3 90.82c-32.38,3.84 -57.55,16.72 -75.53,38.65 -17.98,21.93 -28.1,49.7 -30.37,83.32l205.07 -63.39c-5.71,-21.73 -17.37,-37.67 -34.99,-47.82 -17.61,-10.16 -39.01,-13.75 -64.18,-10.76zm545.76 -156.16c46.24,-5.48 84.42,2.37 114.56,23.55 30.12,21.18 47.86,54.37 53.22,99.58 2.01,16.96 2.2,33.87 0.55,50.74l-19.01 235.15 -120.23 14.26 18.38 -227.26c1.02,-8.99 0.92,-18.61 -0.3,-28.89 -2.55,-21.58 -10.41,-37.31 -23.57,-47.22 -13.16,-9.9 -31.56,-13.45 -55.2,-10.65 -30.82,3.66 -55.33,15.55 -73.53,35.68 -18.19,20.14 -28.78,48.35 -31.77,84.66l-16.67 215.34 -120.23 14.25 33.3 -424.42 114.06 -13.52 -3.94 45.8c32.97,-38.3 76.43,-60.65 130.38,-67.05zm742.95 247.98c13.88,-1.65 25.19,-5.07 33.96,-10.28l-1.46 93.18c-19.76,9.12 -41.2,15.04 -64.32,17.78 -29.8,3.54 -55.04,0.54 -75.71,-8.99 -20.66,-9.54 -35.84,-24.41 -45.54,-44.62 -31.17,49.02 -77.34,77.16 -138.48,84.41 -32.38,3.84 -63.06,-0.08 -92.06,-11.75 -28.99,-11.67 -53.24,-30.54 -72.75,-56.63 -19.51,-26.08 -31.52,-58.14 -36.02,-96.16 -5.43,-45.73 -0.17,-88.16 15.78,-127.31 15.94,-39.14 40.14,-71.19 72.61,-96.14 32.48,-24.96 69.77,-39.93 111.91,-44.93 63.71,-7.55 111.14,7.93 142.28,46.44l4.11 -57.54 120.24 -14.26 -22.06 275.38c-0.55,4.23 -0.38,9.95 0.47,17.14 1.58,13.35 6.48,22.8 14.69,28.34 8.21,5.55 19,7.52 32.35,5.94zm-266.35 27.67c23.63,-2.8 44.02,-11.08 61.15,-24.83 17.12,-13.75 29.61,-31.52 37.45,-53.29 7.84,-21.77 10.17,-46.02 7,-72.73 -3.35,-28.26 -14.35,-49.63 -32.99,-64.08 -18.66,-14.47 -42.88,-19.93 -72.68,-16.4 -23.63,2.8 -44.02,11.08 -61.14,24.83 -17.13,13.76 -29.61,31.53 -37.46,53.29 -7.83,21.78 -10.17,46.02 -7,72.73 3.35,28.27 14.35,49.63 33,64.09 18.65,14.46 42.87,19.92 72.67,16.39zm911.44 -440.23c45.23,-5.36 82.63,2.58 112.25,23.82 29.61,21.24 47.07,54.2 52.37,98.91 1.95,16.44 2.16,33.61 0.63,51.51l-18.24 235.06 -120.23 14.25 17.71 -226.4c0.83,-10.52 0.61,-21.17 -0.67,-31.96 -2.5,-21.07 -9.91,-36.35 -22.23,-45.82 -12.33,-9.48 -29.28,-12.94 -50.87,-10.38 -58.05,6.88 -90.16,45.85 -96.33,116.92l-17.16 217.75 -120.24 14.25 17.71 -226.4c0.83,-10.52 0.65,-20.92 -0.57,-31.2 -2.5,-21.06 -9.93,-36.46 -22.28,-46.19 -12.36,-9.75 -29.33,-13.33 -50.91,-10.77 -58.06,6.88 -90.37,46.4 -96.92,118.56l-16.58 216.11 -120.23 14.25 33.3 -424.42 114.06 -13.52 -4.13 44.25c32.07,-37.14 73.54,-58.74 124.4,-64.77 28.78,-3.41 55.03,-0.66 78.75,8.26 23.72,8.91 42.54,23.73 56.46,44.49 17.42,-24.47 38.8,-44.07 64.16,-58.79 25.34,-14.74 53.94,-23.99 85.79,-27.77zm477.61 376.35c-41.62,4.94 -79.14,1.57 -112.56,-10.09 -33.43,-11.68 -60.41,-30.49 -80.94,-56.46 -20.54,-25.95 -32.99,-57.43 -37.38,-94.42 -5.42,-45.73 0.49,-88.12 17.74,-127.16 17.25,-39.04 43.65,-71.34 79.17,-96.92 35.53,-25.57 77.18,-41.2 124.96,-46.86 42.14,-5 79.78,-1.64 112.96,10.06 33.17,11.69 60.02,30.52 80.55,56.49 20.53,25.96 33,57.43 37.38,94.43 5.43,45.73 -0.37,88.1 -17.36,127.1 -17,39.01 -43.39,71.32 -79.17,96.93 -35.78,25.6 -77.56,41.24 -125.35,46.9zm-4.08 -100.33c23.13,-2.75 43.24,-10.99 60.37,-24.75 17.13,-13.75 29.61,-31.51 37.45,-53.29 7.84,-21.76 10.17,-46.01 7.01,-72.73 -3.36,-28.26 -14.23,-49.64 -32.61,-64.12 -18.4,-14.5 -42.49,-19.98 -72.29,-16.45 -23.64,2.81 -44.02,11.08 -61.14,24.84 -17.13,13.76 -29.62,31.52 -37.46,53.29 -7.83,21.77 -10.17,46.02 -7,72.73 3.35,28.26 14.35,49.62 33,64.09 18.64,14.45 42.87,19.92 72.67,16.39zm434.02 -327.36c15.67,-21.65 35.7,-38.36 60.11,-50.1 24.4,-11.76 53.81,-19.67 88.23,-23.76l-8.42 113.55c-14.51,0.68 -23.82,1.26 -27.93,1.75 -36.47,4.32 -64.57,16.78 -84.28,37.35 -19.7,20.56 -31.15,50.32 -34.35,89.25l-16.32 205.14 -120.22 14.26 33.29 -424.42 114.06 -13.53 -4.17 50.51zm399.35 329.36c-41.62,4.94 -79.13,1.57 -112.56,-10.09 -33.43,-11.68 -60.41,-30.49 -80.94,-56.46 -20.54,-25.95 -32.99,-57.43 -37.38,-94.42 -5.42,-45.73 0.49,-88.12 17.74,-127.15 17.26,-39.05 43.65,-71.35 79.17,-96.93 35.53,-25.57 77.18,-41.19 124.96,-46.86 42.14,-5 79.79,-1.64 112.96,10.06 33.17,11.7 60.02,30.52 80.55,56.49 20.53,25.96 33,57.43 37.38,94.43 5.43,45.73 -0.37,88.1 -17.36,127.1 -17,39.01 -43.39,71.32 -79.17,96.93 -35.78,25.6 -77.56,41.24 -125.35,46.9zm-4.08 -100.33c23.13,-2.75 43.25,-10.99 60.38,-24.74 17.13,-13.76 29.6,-31.52 37.44,-53.29 7.84,-21.77 10.17,-46.02 7.01,-72.74 -3.35,-28.26 -14.23,-49.64 -32.61,-64.12 -18.4,-14.5 -42.49,-19.98 -72.29,-16.44 -23.63,2.8 -44.02,11.08 -61.14,24.83 -17.13,13.76 -29.62,31.52 -37.46,53.29 -7.83,21.77 -10.17,46.02 -7,72.73 3.35,28.26 14.35,49.62 33,64.09 18.65,14.45 42.87,19.92 72.67,16.39z"/>
  </g>
  <g id="_2093316036880">
   <path class="fil4" d="M9019.19 18145.15c-575.88,84.66 -1483.17,50.33 -1790.98,472.03 67.43,455.52 210.51,455.16 656.8,391.63 380.63,-54.19 761.17,-108.8 1141.89,-162.47 921.79,-129.94 6239.62,-830.84 6666.52,-963.2 -20.92,-211.8 -102.89,-947.98 -182.17,-1101.01 -181.11,-349.58 -543.41,-311.98 -937.05,-297.52l-4617.63 209.14c-1374.54,44.78 -1136.43,82.55 -937.38,1451.4z"/>
   <path class="fil4" d="M6360.73 22047.31l813.84 -115.24 -204.44 -1448.64 8089.8 -1154.65 218.03 1424.21 801.3 -104.33 -308.87 -2141.92c-1289.79,73.97 -7094.07,971.81 -8919.94,1232.85l-360.77 -2575.11c-79.72,-562.16 -45.05,-1138.83 -761.47,-840.02 -269.04,431.49 127.86,2098.06 221.52,2762.5 137.72,977 304.67,1983.09 411,2960.35z"/>
   <path class="fil4" d="M7445.34 16860.02c-861.36,443.27 -172.67,1667.05 707.42,1224.76 763.27,-383.59 187.08,-1685.12 -707.42,-1224.76z"/>
   <path class="fil4" d="M8321.39 15491.85c-872.64,293.36 -356.37,1689.33 569.85,1288.43 772.89,-334.53 333.05,-1591.97 -569.85,-1288.43z"/>
   <path class="fil4" d="M7500.5 14959.78c-40.15,-19.58 -72.44,-41.93 -128.88,-51.51 -192.46,-32.66 -282.87,180.34 -194.33,308.7 110.72,160.52 356.51,125.23 407.42,364.01 68.22,-53.56 227.18,-255.89 273.28,-330.39 15.35,-24.82 29.63,-49.39 43.59,-77.22 208.66,-415.88 -197.15,-544.94 -344.53,-386.38 -39.28,42.26 -53.14,100.79 -56.55,172.79zm23.9 61.52c-28.6,-9.45 -131.84,-92.23 -222.25,-24.28 -60.32,45.34 -86.62,135.03 -20.25,210.67 47.16,53.75 114.11,87.37 177.88,123.35 50.46,28.48 91.42,57.71 125.59,103.43 14.62,19.54 18.14,37.6 29.13,54.65 27.5,-34.65 54.54,-64.53 82.44,-101.5 13.62,-18.04 25.44,-33.06 37.6,-52.08 58.22,-91.12 131.25,-181.05 141.84,-308.6 18.4,-221.91 -228.98,-242.29 -309.12,-143.39 -43.16,53.28 -32.01,102.07 -42.86,137.75z"/>
   <path class="fil4" d="M7131.09 16091.34c15.93,-49.21 23.23,-94.1 60.57,-148.85 127.38,-186.73 377.64,-91.03 413.56,85.93 44.91,221.28 -181.97,397.9 -23.74,632.18 -99.47,13.87 -395.9,-16.11 -495.06,-37.52 -33.03,-7.13 -65,-14.96 -99.42,-25.67 -514.44,-160.1 -296.06,-602.19 -45.44,-597.71 66.8,1.19 126.75,36.65 189.53,91.64zm32.1 69.35c15.1,-31.43 29,-184.03 158.3,-204.84 86.26,-13.88 182.19,36.24 191.95,152.36 6.94,82.5 -18.82,165.34 -40.04,247.43 -16.78,64.95 -25.31,122.59 -14.64,187.81 4.56,27.9 16.79,45.35 22.18,68.2 -50.99,-4.9 -97.63,-6.36 -150.87,-12.79 -25.99,-3.14 -48.01,-5.34 -73.64,-10.49 -122.75,-24.64 -256.42,-35.98 -371.29,-129.62 -199.85,-162.92 -18.11,-385.59 128.75,-372.97 79.1,6.8 110.83,55.3 149.3,74.91z"/>
   <path class="fil4" d="M6361.76 15005.36c17.73,-54.78 25.86,-104.74 67.43,-165.68 141.77,-207.84 420.32,-101.31 460.29,95.64 49.99,246.3 -202.53,442.88 -26.42,703.64 -110.71,15.44 -440.65,-17.93 -551.01,-41.76 -36.76,-7.94 -72.35,-16.66 -110.66,-28.58 -572.59,-178.19 -329.53,-670.25 -50.58,-665.26 74.36,1.32 141.08,40.79 210.95,102zm35.74 77.18c16.8,-34.98 32.27,-204.82 176.18,-227.99 96.01,-15.45 202.78,40.34 213.65,169.58 7.73,91.82 -20.94,184.03 -44.56,275.39 -18.69,72.3 -28.17,136.46 -16.3,209.05 5.07,31.05 18.69,50.47 24.69,75.9 -56.75,-5.45 -108.66,-7.07 -167.93,-14.23 -28.92,-3.49 -53.43,-5.95 -81.96,-11.67 -136.63,-27.43 -285.4,-40.06 -413.26,-144.28 -222.43,-181.33 -20.15,-429.17 143.31,-415.12 88.04,7.57 123.35,61.55 166.18,83.37z"/>
  </g>
  <g id="_2093316097456">
   <path class="fil5" d="M11922.93 15182.49c-799.43,326.82 -247.03,1520.29 577.32,1148.29 295.22,-133.2 461.44,-542.7 318.82,-857.85 -158.96,-351.22 -560.1,-427.83 -896.14,-290.44z"/>
   <path class="fil6 str1" d="M13056.96 19716.26c144.12,-136.09 169.35,-549.03 46,-715.8 -158.32,-214.12 -397.07,-258.02 -655.5,-252.15 195.6,137.02 173.86,40.58 396.12,141.73l-142.9 109.37c5.29,229.19 62.6,408.73 307.72,268.45l18.17 -227.25c156.59,425.95 29.97,337.33 30.39,675.65z"/>
   <path class="fil5" d="M11279.51 17855.55l-98.4 497.47c12.62,330.23 -236.61,303.11 -423.21,208.44l265.02 -400.14 206.93 -588.83c3.34,-152.05 70.24,-396.84 205.16,-477.17 80.5,119.06 -57.76,641.35 -155.5,760.23zm-718.41 -69.85c-7.78,190.62 -68.81,197.56 -99.55,352.21 -34.85,175.45 51.18,262.95 110.34,400 -226.78,50.43 -308.07,-40.83 -502.1,49.27 -171,79.42 -184.46,178.69 -310.05,286.67l-458.1 1546.21c-63.69,186.6 -285.16,735.58 98.3,689.47 217.91,-26.22 341.33,-522.54 330.44,-677.47 -20.94,-203.93 210.05,-728.59 253.47,-968.89l148.49 -22.34 684.94 121.43c5.47,134.51 -84.09,269.06 -118.31,414.18 -26.01,110.35 -44.03,224.5 -94.05,313.32 -12.35,21.97 -26.72,42.43 -43.63,60.88 -11.87,186.03 -179.36,669.48 -233.75,877.96 -222.01,851.48 389.96,569.9 401.42,485.83l439.31 -1583.36c176.2,-585.26 -107.2,-373.5 135,-548.97 211.55,87.53 120.21,139.47 15.1,533.86 -144.1,540.56 -431.64,1228.07 -250.33,1572.77 115.04,107.12 330.94,13.38 400.14,-162.61 57.66,-146.74 96.69,-286.73 135.78,-444.72 49.47,-199.95 229.35,-738.13 210.44,-893.24 -4.71,-155.78 52.39,-336.83 97.29,-493.33 113.62,-35.39 529.53,-5.7 633.12,42.42 136.16,263.31 -308.04,1007.09 -126.7,1385.8 261.84,49.23 738.7,-58.17 1019.29,-96.69 292.38,-40.14 739.94,-15.65 936,-240.27l-12.87 -195.44c-125.9,-287.51 -1119.15,106.21 -1394.08,21.51 -138.69,-180.39 152.16,-667.53 90.51,-895.9 -0.42,-338.32 126.2,-249.7 -30.39,-675.65l-18.17 227.25c-245.12,140.28 -302.43,-39.26 -307.72,-268.45l142.9 -109.37c-222.26,-101.15 -200.52,-4.71 -396.12,-141.73l-86.56 -27.57c-18.79,-149.93 299.36,-1344.22 367.71,-1585.67 257.19,-42.96 785.08,18.91 931.03,-82.01 352.44,-243.86 1278.8,-1147.1 1003.99,-1546.46 -318.07,-65.57 -590.37,335.21 -942.6,713.51 -193.72,208.04 -230.92,320.68 -540.46,342.64 -501.36,35.56 -2014.25,-109.23 -2193.34,75.47 -91.82,94.68 -171.18,438.88 -223.74,580.47 -47.27,127.43 -184.79,449.32 -202.39,567.01z"/>
   <path class="fil5" d="M8610.72 18266.56c-799.43,326.81 -247.03,1520.28 577.32,1148.29 295.21,-133.21 461.44,-542.71 318.82,-857.85 -158.96,-351.22 -560.1,-427.83 -896.14,-290.44z"/>
  </g>
  <polygon class="fil4" points="3521.55,24211.92 19355.38,22335.97 19380.59,22489.65 3546.76,24365.6 "/>
  <path class="fil7" d="M2235.85 2401.25l17390.86 0c514.83,0 936.05,421.22 936.05,936.05l0 936.05c0,514.83 -421.22,936.05 -936.05,936.05l-17390.86 0c-514.83,0 -936.05,-421.22 -936.05,-936.05l0 -936.05c0,-514.83 421.22,-936.05 936.05,-936.05z"/>
  <g id="_2093316088368">
   <path class="fil2" d="M3684.06 3067.62c-18.52,0 -33.73,-5.82 -45.64,-17.46 -11.9,-11.64 -17.86,-25.93 -17.86,-42.86 0,-17.46 5.96,-32.14 17.86,-44.04 11.91,-11.91 27.12,-17.86 45.64,-17.86 18.52,0 33.73,5.95 45.63,17.86 11.91,11.9 17.86,26.58 17.86,44.04 0,16.93 -5.95,31.22 -17.86,42.86 -11.9,11.64 -27.11,17.46 -45.63,17.46zm8.73 436.51c-58.73,0 -105.82,-12.44 -141.27,-37.3 -35.45,-24.87 -53.18,-59 -53.18,-102.38 0,-21.17 3.57,-39.95 10.72,-56.35 7.14,-16.41 15.74,-30.16 25.79,-41.27 10.05,-11.11 23.28,-23.81 39.68,-38.1 20.64,-18.52 35.72,-34.26 45.24,-47.22 9.52,-12.96 14.29,-28.7 14.29,-47.22l100.79 0c0,19.57 -3.57,37.03 -10.71,52.38 -7.15,15.34 -15.61,28.44 -25.4,39.28 -9.79,10.85 -22.88,23.42 -39.29,37.7 -19.57,16.93 -33.99,31.48 -43.25,43.65 -9.26,12.17 -13.89,26.19 -13.89,42.07 0,20.1 9,36.64 26.98,49.6 17.99,12.96 42.07,19.44 72.23,19.44 56.08,0 99.2,-20.37 129.36,-61.11l76.19 50c-22.22,30.69 -51.45,54.5 -87.7,71.43 -36.24,16.93 -78.43,25.4 -126.58,25.4zm449.99 -124.6c-43.91,0 -83.33,-9.26 -118.25,-27.78 -34.92,-18.52 -62.17,-44.31 -81.75,-77.38 -19.57,-33.07 -29.36,-70.51 -29.36,-112.3 0,-41.8 9.79,-79.11 29.36,-111.91 19.58,-32.8 46.7,-58.46 81.35,-76.98 34.66,-18.52 74.21,-27.78 118.65,-27.78 41.8,0 78.44,8.46 109.92,25.4 31.49,16.93 55.16,41.27 71.04,73.01l-76.19 44.45c-12.17,-19.58 -27.39,-34.26 -45.64,-44.05 -18.25,-9.79 -38.23,-14.68 -59.92,-14.68 -37.04,0 -67.72,12.03 -92.06,36.11 -24.34,24.07 -36.51,56.21 -36.51,96.43 0,40.21 12.04,72.35 36.11,96.42 24.07,24.08 54.89,36.11 92.46,36.11 21.69,0 41.67,-4.89 59.92,-14.68 18.25,-9.79 33.47,-24.47 45.64,-44.05l76.19 44.45c-16.41,31.75 -40.35,56.22 -71.83,73.41 -31.48,17.2 -67.86,25.8 -109.13,25.8zm676.99 -429.37l0 423.81 -94.45 0 0 -53.97c-15.87,19.05 -35.71,33.73 -59.52,44.05 -23.81,10.32 -49.47,15.48 -76.99,15.48 -56.61,0 -101.19,-15.75 -133.73,-47.23 -32.54,-31.48 -48.81,-78.17 -48.81,-140.08l0 -242.06 99.21 0 0 228.57c0,38.1 8.6,66.54 25.79,85.32 17.2,18.78 41.67,28.17 73.42,28.17 35.45,0 63.62,-10.97 84.52,-32.93 20.9,-21.96 31.35,-53.57 31.35,-94.84l0 -214.29 99.21 0zm544.44 0l0 423.81 -94.44 0 0 -54.76c-16.4,20.1 -36.64,35.18 -60.71,45.24 -24.08,10.05 -50.67,15.08 -79.77,15.08 -41.27,0 -78.17,-9 -110.71,-26.99 -32.54,-17.99 -57.94,-43.38 -76.19,-76.19 -18.25,-32.8 -27.38,-70.9 -27.38,-114.28 0,-43.39 9.13,-81.35 27.38,-113.89 18.25,-32.54 43.65,-57.81 76.19,-75.8 32.54,-17.99 69.44,-26.98 110.71,-26.98 27.52,0 52.78,4.76 75.8,14.28 23.01,9.53 42.99,23.55 59.92,42.07l0 -51.59 99.2 0zm-223.8 344.44c36.5,0 66.66,-12.16 90.47,-36.5 23.81,-24.34 35.72,-56.35 35.72,-96.03 0,-39.69 -11.91,-71.7 -35.72,-96.04 -23.81,-24.33 -53.97,-36.5 -90.47,-36.5 -36.51,0 -66.54,12.17 -90.08,36.5 -23.55,24.34 -35.32,56.35 -35.32,96.04 0,39.68 11.77,71.69 35.32,96.03 23.54,24.34 53.57,36.5 90.08,36.5zm56.34 -511.11l116.67 0 -138.09 108.73 -85.72 0 107.14 -108.73zm538.1 161.91c53.43,0 96.29,15.61 128.57,46.82 32.27,31.22 48.41,77.52 48.41,138.89l0 242.86 -99.21 0 0 -230.16c0,-37.04 -8.73,-64.95 -26.19,-83.73 -17.46,-18.78 -42.33,-28.17 -74.6,-28.17 -36.51,0 -65.34,10.98 -86.51,32.93 -21.16,21.96 -31.74,53.57 -31.74,94.84l0 214.29 -99.21 0 0 -423.81 94.44 0 0 54.76c16.41,-19.57 37.04,-34.39 61.91,-44.44 24.87,-10.05 52.91,-15.08 84.13,-15.08zm541.26 405.55c-11.64,9.53 -25.79,16.67 -42.46,21.43 -16.66,4.76 -34.26,7.15 -52.77,7.15 -46.56,0 -82.54,-12.17 -107.94,-36.51 -25.4,-24.34 -38.1,-59.79 -38.1,-106.35l0 -380.16 99.21 0 0 96.83 113.49 0 0 79.36 -113.49 0 0 201.59c0,20.63 5.16,36.37 15.48,47.22 10.31,10.85 24.73,16.27 43.25,16.27 22.22,0 40.74,-5.82 55.56,-17.46l27.77 70.63zm257.95 28.58c-42.86,0 -81.49,-9.26 -115.88,-27.78 -34.39,-18.52 -61.24,-44.31 -80.55,-77.38 -19.32,-33.07 -28.97,-70.51 -28.97,-112.3 0,-41.8 9.65,-79.11 28.97,-111.91 19.31,-32.8 46.16,-58.46 80.55,-76.98 34.39,-18.52 73.02,-27.78 115.88,-27.78 43.38,0 82.27,9.26 116.66,27.78 34.39,18.52 61.25,44.18 80.56,76.98 19.31,32.8 28.97,70.11 28.97,111.91 0,41.79 -9.66,79.23 -28.97,112.3 -19.31,33.07 -46.17,58.86 -80.56,77.38 -34.39,18.52 -73.28,27.78 -116.66,27.78zm0 -84.93c36.5,0 66.66,-12.16 90.47,-36.5 23.81,-24.34 35.72,-56.35 35.72,-96.03 0,-39.69 -11.91,-71.7 -35.72,-96.04 -23.81,-24.33 -53.97,-36.5 -90.47,-36.5 -36.51,0 -66.54,12.17 -90.08,36.5 -23.55,24.34 -35.32,56.35 -35.32,96.04 0,39.68 11.77,71.69 35.32,96.03 23.54,24.34 53.57,36.5 90.08,36.5zm955.55 -509.52l0 588.89 -95.24 0 0 -54.76c-16.4,20.1 -36.64,35.18 -60.71,45.24 -24.08,10.05 -50.67,15.08 -79.77,15.08 -40.74,0 -77.38,-9 -109.92,-26.99 -32.54,-17.99 -58.07,-43.52 -76.58,-76.59 -18.52,-33.06 -27.78,-71.03 -27.78,-113.88 0,-42.86 9.26,-80.69 27.78,-113.5 18.51,-32.8 44.04,-58.2 76.58,-76.19 32.54,-17.99 69.18,-26.98 109.92,-26.98 28.05,0 53.71,4.76 76.99,14.28 23.28,9.53 43.12,23.81 59.52,42.86l0 -217.46 99.21 0zm-223.81 509.52c23.81,0 45.24,-5.42 64.28,-16.26 19.05,-10.85 34.13,-26.33 45.24,-46.43 11.11,-20.11 16.67,-43.39 16.67,-69.84 0,-26.46 -5.56,-49.74 -16.67,-69.85 -11.11,-20.1 -26.19,-35.58 -45.24,-46.42 -19.04,-10.85 -40.47,-16.27 -64.28,-16.27 -23.81,0 -45.24,5.42 -64.29,16.27 -19.04,10.84 -34.12,26.32 -45.23,46.42 -11.12,20.11 -16.67,43.39 -16.67,69.85 0,26.45 5.55,49.73 16.67,69.84 11.11,20.1 26.19,35.58 45.23,46.43 19.05,10.84 40.48,16.26 64.29,16.26zm764.29 -344.44l0 423.81 -94.45 0 0 -53.97c-15.87,19.05 -35.71,33.73 -59.52,44.05 -23.81,10.32 -49.47,15.48 -76.99,15.48 -56.61,0 -101.19,-15.75 -133.73,-47.23 -32.54,-31.48 -48.81,-78.17 -48.81,-140.08l0 -242.06 99.21 0 0 228.57c0,38.1 8.6,66.54 25.79,85.32 17.2,18.78 41.67,28.17 73.42,28.17 35.45,0 63.62,-10.97 84.52,-32.93 20.9,-21.96 31.35,-53.57 31.35,-94.84l0 -214.29 99.21 0zm224.6 61.91c28.58,-44.45 78.84,-66.67 150.8,-66.67l0 94.44c-8.47,-1.58 -16.14,-2.38 -23.02,-2.38 -38.62,0 -68.78,11.25 -90.47,33.73 -21.7,22.49 -32.54,54.9 -32.54,97.22l0 205.56 -99.21 0 0 -423.81 94.44 0 0 61.91zm645.24 -61.91l0 423.81 -94.44 0 0 -54.76c-16.4,20.1 -36.64,35.18 -60.71,45.24 -24.08,10.05 -50.67,15.08 -79.77,15.08 -41.27,0 -78.17,-9 -110.71,-26.99 -32.54,-17.99 -57.94,-43.38 -76.19,-76.19 -18.25,-32.8 -27.38,-70.9 -27.38,-114.28 0,-43.39 9.13,-81.35 27.38,-113.89 18.25,-32.54 43.65,-57.81 76.19,-75.8 32.54,-17.99 69.44,-26.98 110.71,-26.98 27.52,0 52.78,4.76 75.8,14.28 23.01,9.53 42.99,23.55 59.92,42.07l0 -51.59 99.2 0zm-223.8 344.44c36.5,0 66.66,-12.16 90.47,-36.5 23.81,-24.34 35.72,-56.35 35.72,-96.03 0,-39.69 -11.91,-71.7 -35.72,-96.04 -23.81,-24.33 -53.97,-36.5 -90.47,-36.5 -36.51,0 -66.54,12.17 -90.08,36.5 -23.55,24.34 -35.32,56.35 -35.32,96.04 0,39.68 11.77,71.69 35.32,96.03 23.54,24.34 53.57,36.5 90.08,36.5zm774.6 0.8c46.03,0 84.39,-15.35 115.08,-46.03l52.38 61.11c-18.52,22.75 -42.33,39.95 -71.43,51.59 -29.1,11.64 -61.91,17.46 -98.41,17.46 -46.57,0 -87.57,-9.26 -123.02,-27.78 -35.45,-18.52 -62.83,-44.31 -82.14,-77.38 -19.32,-33.07 -28.97,-70.51 -28.97,-112.3 0,-41.27 9.39,-78.44 28.17,-111.51 18.79,-33.07 44.71,-58.86 77.78,-77.38 33.07,-18.52 70.5,-27.78 112.3,-27.78 39.68,0 75.8,8.6 108.34,25.79 32.54,17.2 58.33,41.8 77.38,73.81 19.04,32.01 28.57,69.45 28.57,112.3l-324.6 63.5c10.05,24.33 26.19,42.85 48.41,55.55 22.22,12.7 48.94,19.05 80.16,19.05zm-18.26 -270.64c-36.51,0 -66,11.91 -88.49,35.72 -22.49,23.81 -33.73,55.82 -33.73,96.03l0 0.79 239.68 -46.03c-6.88,-25.92 -20.76,-46.82 -41.66,-62.7 -20.9,-15.87 -46.17,-23.81 -75.8,-23.81zm449.21 354.77c-43.91,0 -78.17,-12.04 -102.78,-36.12 -24.6,-24.07 -36.9,-58.06 -36.9,-101.98l0 -456.35 99.21 0 0 449.21c0,42.33 19.84,63.49 59.52,63.49 13.23,0 25.13,-2.65 35.71,-7.94l4.77 79.37c-18.52,6.88 -38.36,10.32 -59.53,10.32zm760.32 -429.37l0 423.81 -94.44 0 0 -54.76c-16.4,20.1 -36.64,35.18 -60.71,45.24 -24.08,10.05 -50.67,15.08 -79.77,15.08 -41.27,0 -78.17,-9 -110.71,-26.99 -32.54,-17.99 -57.94,-43.38 -76.19,-76.19 -18.25,-32.8 -27.38,-70.9 -27.38,-114.28 0,-43.39 9.13,-81.35 27.38,-113.89 18.25,-32.54 43.65,-57.81 76.19,-75.8 32.54,-17.99 69.44,-26.98 110.71,-26.98 27.52,0 52.78,4.76 75.8,14.28 23.01,9.53 42.99,23.55 59.92,42.07l0 -51.59 99.2 0zm-223.8 344.44c36.5,0 66.66,-12.16 90.47,-36.5 23.81,-24.34 35.72,-56.35 35.72,-96.03 0,-39.69 -11.91,-71.7 -35.72,-96.04 -23.81,-24.33 -53.97,-36.5 -90.47,-36.5 -36.51,0 -66.54,12.17 -90.08,36.5 -23.55,24.34 -35.32,56.35 -35.32,96.04 0,39.68 11.77,71.69 35.32,96.03 23.54,24.34 53.57,36.5 90.08,36.5zm888.88 -349.2c53.44,0 95.77,15.48 126.98,46.43 31.22,30.95 46.83,77.38 46.83,139.28l0 242.86 -99.21 0 0 -230.16c0,-37.04 -8.2,-64.95 -24.6,-83.73 -16.4,-18.78 -39.95,-28.17 -70.64,-28.17 -33.33,0 -60.05,10.98 -80.15,32.93 -20.11,21.96 -30.16,53.31 -30.16,94.05l0 215.08 -99.21 0 0 -230.16c0,-37.04 -8.2,-64.95 -24.6,-83.73 -16.4,-18.78 -39.95,-28.17 -70.64,-28.17 -33.86,0 -60.71,10.84 -80.55,32.54 -19.84,21.69 -29.76,53.17 -29.76,94.44l0 215.08 -99.21 0 0 -423.81 94.44 0 0 53.97c15.88,-19.05 35.72,-33.6 59.53,-43.65 23.81,-10.05 50.26,-15.08 79.36,-15.08 31.75,0 59.92,5.95 84.53,17.86 24.6,11.9 44.04,29.49 58.33,52.77 17.46,-22.22 39.95,-39.55 67.46,-51.98 27.51,-12.43 57.94,-18.65 91.27,-18.65zm495.24 434.13c-42.86,0 -81.49,-9.26 -115.88,-27.78 -34.39,-18.52 -61.24,-44.31 -80.55,-77.38 -19.32,-33.07 -28.97,-70.51 -28.97,-112.3 0,-41.8 9.65,-79.11 28.97,-111.91 19.31,-32.8 46.16,-58.46 80.55,-76.98 34.39,-18.52 73.02,-27.78 115.88,-27.78 43.38,0 82.27,9.26 116.66,27.78 34.39,18.52 61.25,44.18 80.56,76.98 19.31,32.8 28.97,70.11 28.97,111.91 0,41.79 -9.66,79.23 -28.97,112.3 -19.31,33.07 -46.17,58.86 -80.56,77.38 -34.39,18.52 -73.28,27.78 -116.66,27.78zm0 -84.93c36.5,0 66.66,-12.16 90.47,-36.5 23.81,-24.34 35.72,-56.35 35.72,-96.03 0,-39.69 -11.91,-71.7 -35.72,-96.04 -23.81,-24.33 -53.97,-36.5 -90.47,-36.5 -36.51,0 -66.54,12.17 -90.08,36.5 -23.55,24.34 -35.32,56.35 -35.32,96.04 0,39.68 11.77,71.69 35.32,96.03 23.54,24.34 53.57,36.5 90.08,36.5zm415.86 -282.53c28.58,-44.45 78.84,-66.67 150.8,-66.67l0 94.44c-8.47,-1.58 -16.14,-2.38 -23.02,-2.38 -38.62,0 -68.78,11.25 -90.47,33.73 -21.7,22.49 -32.54,54.9 -32.54,97.22l0 205.56 -99.21 0 0 -423.81 94.44 0 0 61.91zm873.02 -226.99l0 588.89 -95.24 0 0 -54.76c-16.4,20.1 -36.64,35.18 -60.71,45.24 -24.08,10.05 -50.67,15.08 -79.77,15.08 -40.74,0 -77.38,-9 -109.92,-26.99 -32.54,-17.99 -58.07,-43.52 -76.58,-76.59 -18.52,-33.06 -27.78,-71.03 -27.78,-113.88 0,-42.86 9.26,-80.69 27.78,-113.5 18.51,-32.8 44.04,-58.2 76.58,-76.19 32.54,-17.99 69.18,-26.98 109.92,-26.98 28.05,0 53.71,4.76 76.99,14.28 23.28,9.53 43.12,23.81 59.52,42.86l0 -217.46 99.21 0zm-223.81 509.52c23.81,0 45.24,-5.42 64.28,-16.26 19.05,-10.85 34.13,-26.33 45.24,-46.43 11.11,-20.11 16.67,-43.39 16.67,-69.84 0,-26.46 -5.56,-49.74 -16.67,-69.85 -11.11,-20.1 -26.19,-35.58 -45.24,-46.42 -19.04,-10.85 -40.47,-16.27 -64.28,-16.27 -23.81,0 -45.24,5.42 -64.29,16.27 -19.04,10.84 -34.12,26.32 -45.23,46.42 -11.12,20.11 -16.67,43.39 -16.67,69.85 0,26.45 5.55,49.73 16.67,69.84 11.11,20.1 26.19,35.58 45.23,46.43 19.05,10.84 40.48,16.26 64.29,16.26zm555.56 0.8c46.03,0 84.39,-15.35 115.08,-46.03l52.38 61.11c-18.52,22.75 -42.33,39.95 -71.43,51.59 -29.1,11.64 -61.91,17.46 -98.41,17.46 -46.57,0 -87.57,-9.26 -123.02,-27.78 -35.45,-18.52 -62.83,-44.31 -82.14,-77.38 -19.32,-33.07 -28.97,-70.51 -28.97,-112.3 0,-41.27 9.39,-78.44 28.17,-111.51 18.79,-33.07 44.71,-58.86 77.78,-77.38 33.07,-18.52 70.5,-27.78 112.3,-27.78 39.68,0 75.8,8.6 108.34,25.79 32.54,17.2 58.33,41.8 77.38,73.81 19.04,32.01 28.57,69.45 28.57,112.3l-324.6 63.5c10.05,24.33 26.19,42.85 48.41,55.55 22.22,12.7 48.94,19.05 80.16,19.05zm-18.26 -270.64c-36.51,0 -66,11.91 -88.49,35.72 -22.49,23.81 -33.73,55.82 -33.73,96.03l0 0.79 239.68 -46.03c-6.88,-25.92 -20.76,-46.82 -41.66,-62.7 -20.9,-15.87 -46.17,-23.81 -75.8,-23.81zm938.9 -74.6l0 423.81 -94.45 0 0 -53.97c-15.87,19.05 -35.71,33.73 -59.52,44.05 -23.81,10.32 -49.47,15.48 -76.99,15.48 -56.61,0 -101.19,-15.75 -133.73,-47.23 -32.54,-31.48 -48.81,-78.17 -48.81,-140.08l0 -242.06 99.21 0 0 228.57c0,38.1 8.6,66.54 25.79,85.32 17.2,18.78 41.67,28.17 73.42,28.17 35.45,0 63.62,-10.97 84.52,-32.93 20.9,-21.96 31.35,-53.57 31.35,-94.84l0 -214.29 99.21 0zm370.64 -4.76c53.43,0 96.29,15.61 128.57,46.82 32.27,31.22 48.41,77.52 48.41,138.89l0 242.86 -99.21 0 0 -230.16c0,-37.04 -8.73,-64.95 -26.19,-83.73 -17.46,-18.78 -42.33,-28.17 -74.6,-28.17 -36.51,0 -65.34,10.98 -86.51,32.93 -21.16,21.96 -31.74,53.57 -31.74,94.84l0 214.29 -99.21 0 0 -423.81 94.44 0 0 54.76c16.41,-19.57 37.04,-34.39 61.91,-44.44 24.87,-10.05 52.91,-15.08 84.13,-15.08zm721.42 4.76l0 423.81 -94.44 0 0 -54.76c-16.4,20.1 -36.64,35.18 -60.71,45.24 -24.08,10.05 -50.67,15.08 -79.77,15.08 -41.27,0 -78.17,-9 -110.71,-26.99 -32.54,-17.99 -57.94,-43.38 -76.19,-76.19 -18.25,-32.8 -27.38,-70.9 -27.38,-114.28 0,-43.39 9.13,-81.35 27.38,-113.89 18.25,-32.54 43.65,-57.81 76.19,-75.8 32.54,-17.99 69.44,-26.98 110.71,-26.98 27.52,0 52.78,4.76 75.8,14.28 23.01,9.53 42.99,23.55 59.92,42.07l0 -51.59 99.2 0zm-223.8 344.44c36.5,0 66.66,-12.16 90.47,-36.5 23.81,-24.34 35.72,-56.35 35.72,-96.03 0,-39.69 -11.91,-71.7 -35.72,-96.04 -23.81,-24.33 -53.97,-36.5 -90.47,-36.5 -36.51,0 -66.54,12.17 -90.08,36.5 -23.55,24.34 -35.32,56.35 -35.32,96.04 0,39.68 11.77,71.69 35.32,96.03 23.54,24.34 53.57,36.5 90.08,36.5zm807.93 -349.2c41.27,0 78.17,8.99 110.71,26.98 32.54,17.99 58.07,43.39 76.59,76.19 18.52,32.81 27.78,70.64 27.78,113.5 0,42.85 -9.26,80.82 -27.78,113.88 -18.52,33.07 -44.05,58.6 -76.59,76.59 -32.54,17.99 -69.44,26.99 -110.71,26.99 -57.14,0 -102.38,-19.05 -135.71,-57.15l0 205.56 -99.21 0 0 -577.78 94.44 0 0 55.56c16.41,-20.11 36.64,-35.19 60.72,-45.24 24.07,-10.05 50.66,-15.08 79.76,-15.08zm-11.11 349.2c36.51,0 66.53,-12.16 90.08,-36.5 23.54,-24.34 35.32,-56.35 35.32,-96.03 0,-39.69 -11.78,-71.7 -35.32,-96.04 -23.55,-24.33 -53.57,-36.5 -90.08,-36.5 -23.81,0 -45.24,5.42 -64.29,16.27 -19.04,10.84 -34.12,26.32 -45.24,46.42 -11.11,20.11 -16.66,43.39 -16.66,69.85 0,26.45 5.55,49.73 16.66,69.84 11.12,20.1 26.2,35.58 45.24,46.43 19.05,10.84 40.48,16.26 64.29,16.26zm734.91 -344.44l0 423.81 -94.44 0 0 -54.76c-16.4,20.1 -36.64,35.18 -60.71,45.24 -24.08,10.05 -50.67,15.08 -79.77,15.08 -41.27,0 -78.17,-9 -110.71,-26.99 -32.54,-17.99 -57.94,-43.38 -76.19,-76.19 -18.25,-32.8 -27.38,-70.9 -27.38,-114.28 0,-43.39 9.13,-81.35 27.38,-113.89 18.25,-32.54 43.65,-57.81 76.19,-75.8 32.54,-17.99 69.44,-26.98 110.71,-26.98 27.52,0 52.78,4.76 75.8,14.28 23.01,9.53 42.99,23.55 59.92,42.07l0 -51.59 99.2 0zm-223.8 344.44c36.5,0 66.66,-12.16 90.47,-36.5 23.81,-24.34 35.72,-56.35 35.72,-96.03 0,-39.69 -11.91,-71.7 -35.72,-96.04 -23.81,-24.33 -53.97,-36.5 -90.47,-36.5 -36.51,0 -66.54,12.17 -90.08,36.5 -23.55,24.34 -35.32,56.35 -35.32,96.04 0,39.68 11.77,71.69 35.32,96.03 23.54,24.34 53.57,36.5 90.08,36.5zm448.4 -282.53c28.58,-44.45 78.84,-66.67 150.8,-66.67l0 94.44c-8.47,-1.58 -16.14,-2.38 -23.02,-2.38 -38.62,0 -68.78,11.25 -90.47,33.73 -21.7,22.49 -32.54,54.9 -32.54,97.22l0 205.56 -99.21 0 0 -423.81 94.44 0 0 61.91zm432.55 283.33c46.03,0 84.39,-15.35 115.08,-46.03l52.38 61.11c-18.52,22.75 -42.33,39.95 -71.43,51.59 -29.1,11.64 -61.91,17.46 -98.41,17.46 -46.57,0 -87.57,-9.26 -123.02,-27.78 -35.45,-18.52 -62.83,-44.31 -82.14,-77.38 -19.32,-33.07 -28.97,-70.51 -28.97,-112.3 0,-41.27 9.39,-78.44 28.17,-111.51 18.79,-33.07 44.71,-58.86 77.78,-77.38 33.07,-18.52 70.5,-27.78 112.3,-27.78 39.68,0 75.8,8.6 108.34,25.79 32.54,17.2 58.33,41.8 77.38,73.81 19.04,32.01 28.57,69.45 28.57,112.3l-324.6 63.5c10.05,24.33 26.19,42.85 48.41,55.55 22.22,12.7 48.94,19.05 80.16,19.05zm-18.26 -270.64c-36.51,0 -66,11.91 -88.49,35.72 -22.49,23.81 -33.73,55.82 -33.73,96.03l0 0.79 239.68 -46.03c-6.88,-25.92 -20.76,-46.82 -41.66,-62.7 -20.9,-15.87 -46.17,-23.81 -75.8,-23.81zm265.88 508.73c-41.8,0 -73.55,-8.2 -95.24,-24.6l28.57 -73.81c14.82,11.11 34.13,16.67 57.94,16.67 18.52,0 32.67,-5.69 42.46,-17.07 9.79,-11.37 14.68,-28.17 14.68,-50.39l0 -434.13 99.21 0 0 431.75c0,47.09 -12.97,84.12 -38.89,111.11 -25.93,26.98 -62.17,40.47 -108.73,40.47zm97.62 -653.17c-17.99,0 -33.07,-5.69 -45.24,-17.06 -12.17,-11.38 -18.25,-25.53 -18.25,-42.46 0,-16.94 6.08,-31.09 18.25,-42.46 12.17,-11.38 27.25,-17.07 45.24,-17.07 17.99,0 33.07,5.43 45.24,16.27 12.16,10.85 18.25,24.47 18.25,40.87 0,17.47 -5.95,32.15 -17.86,44.05 -11.9,11.91 -27.11,17.86 -45.63,17.86zm594.44 69.84l0 423.81 -94.44 0 0 -54.76c-16.4,20.1 -36.64,35.18 -60.71,45.24 -24.08,10.05 -50.67,15.08 -79.77,15.08 -41.27,0 -78.17,-9 -110.71,-26.99 -32.54,-17.99 -57.94,-43.38 -76.19,-76.19 -18.25,-32.8 -27.38,-70.9 -27.38,-114.28 0,-43.39 9.13,-81.35 27.38,-113.89 18.25,-32.54 43.65,-57.81 76.19,-75.8 32.54,-17.99 69.44,-26.98 110.71,-26.98 27.52,0 52.78,4.76 75.8,14.28 23.01,9.53 42.99,23.55 59.92,42.07l0 -51.59 99.2 0zm-223.8 344.44c36.5,0 66.66,-12.16 90.47,-36.5 23.81,-24.34 35.72,-56.35 35.72,-96.03 0,-39.69 -11.91,-71.7 -35.72,-96.04 -23.81,-24.33 -53.97,-36.5 -90.47,-36.5 -36.51,0 -66.54,12.17 -90.08,36.5 -23.55,24.34 -35.32,56.35 -35.32,96.04 0,39.68 11.77,71.69 35.32,96.03 23.54,24.34 53.57,36.5 90.08,36.5zm-9395.25 246.38l0 588.89 -95.24 0 0 -54.76c-16.4,20.1 -36.64,35.18 -60.71,45.24 -24.08,10.05 -50.67,15.08 -79.77,15.08 -40.74,0 -77.38,-9 -109.92,-26.99 -32.54,-17.99 -58.07,-43.52 -76.58,-76.59 -18.52,-33.06 -27.78,-71.03 -27.78,-113.88 0,-42.86 9.26,-80.69 27.78,-113.5 18.51,-32.8 44.04,-58.2 76.58,-76.19 32.54,-17.99 69.18,-26.98 109.92,-26.98 28.05,0 53.71,4.76 76.99,14.28 23.28,9.53 43.12,23.81 59.52,42.86l0 -217.46 99.21 0zm-223.81 509.52c23.81,0 45.24,-5.42 64.28,-16.26 19.05,-10.85 34.13,-26.33 45.24,-46.43 11.11,-20.11 16.67,-43.39 16.67,-69.84 0,-26.46 -5.56,-49.74 -16.67,-69.85 -11.11,-20.1 -26.19,-35.58 -45.24,-46.42 -19.04,-10.85 -40.47,-16.27 -64.28,-16.27 -23.81,0 -45.24,5.42 -64.29,16.27 -19.04,10.84 -34.12,26.32 -45.23,46.42 -11.12,20.11 -16.67,43.39 -16.67,69.85 0,26.45 5.55,49.73 16.67,69.84 11.11,20.1 26.19,35.58 45.23,46.43 19.05,10.84 40.48,16.26 64.29,16.26zm555.56 0.8c46.03,0 84.39,-15.35 115.08,-46.03l52.38 61.11c-18.52,22.75 -42.33,39.95 -71.43,51.59 -29.1,11.64 -61.91,17.46 -98.41,17.46 -46.57,0 -87.57,-9.26 -123.02,-27.78 -35.45,-18.52 -62.83,-44.31 -82.14,-77.38 -19.32,-33.07 -28.97,-70.51 -28.97,-112.3 0,-41.27 9.39,-78.44 28.17,-111.51 18.79,-33.07 44.71,-58.86 77.78,-77.38 33.07,-18.52 70.5,-27.78 112.3,-27.78 39.68,0 75.8,8.6 108.34,25.79 32.54,17.2 58.33,41.8 77.38,73.81 19.04,32.01 28.57,69.45 28.57,112.3l-324.6 63.5c10.05,24.33 26.19,42.85 48.41,55.55 22.22,12.7 48.94,19.05 80.16,19.05zm-18.26 -270.64c-36.51,0 -66,11.91 -88.49,35.72 -22.49,23.81 -33.73,55.82 -33.73,96.03l0 0.79 239.68 -46.03c-6.88,-25.92 -20.76,-46.82 -41.66,-62.7 -20.9,-15.87 -46.17,-23.81 -75.8,-23.81zm769.06 -79.36c53.43,0 96.29,15.61 128.57,46.82 32.27,31.22 48.41,77.52 48.41,138.89l0 242.86 -99.21 0 0 -230.16c0,-37.04 -8.73,-64.95 -26.19,-83.73 -17.46,-18.78 -42.33,-28.17 -74.6,-28.17 -36.51,0 -65.34,10.98 -86.51,32.93 -21.16,21.96 -31.74,53.57 -31.74,94.84l0 214.29 -99.21 0 0 -588.89 99.21 0 0 214.29c16.4,-17.46 36.64,-30.82 60.71,-40.08 24.07,-9.26 50.93,-13.89 80.56,-13.89zm497.62 434.13c-42.86,0 -81.49,-9.26 -115.88,-27.78 -34.39,-18.52 -61.24,-44.31 -80.55,-77.38 -19.32,-33.07 -28.97,-70.51 -28.97,-112.3 0,-41.8 9.65,-79.11 28.97,-111.91 19.31,-32.8 46.16,-58.46 80.55,-76.98 34.39,-18.52 73.02,-27.78 115.88,-27.78 43.38,0 82.27,9.26 116.66,27.78 34.39,18.52 61.25,44.18 80.56,76.98 19.31,32.8 28.97,70.11 28.97,111.91 0,41.79 -9.66,79.23 -28.97,112.3 -19.31,33.07 -46.17,58.86 -80.56,77.38 -34.39,18.52 -73.28,27.78 -116.66,27.78zm0 -84.93c36.5,0 66.66,-12.16 90.47,-36.5 23.81,-24.34 35.72,-56.35 35.72,-96.03 0,-39.69 -11.91,-71.7 -35.72,-96.04 -23.81,-24.33 -53.97,-36.5 -90.47,-36.5 -36.51,0 -66.54,12.17 -90.08,36.5 -23.55,24.34 -35.32,56.35 -35.32,96.04 0,39.68 11.77,71.69 35.32,96.03 23.54,24.34 53.57,36.5 90.08,36.5zm856.34 -349.2c53.44,0 95.77,15.48 126.98,46.43 31.22,30.95 46.83,77.38 46.83,139.28l0 242.86 -99.21 0 0 -230.16c0,-37.04 -8.2,-64.95 -24.6,-83.73 -16.4,-18.78 -39.95,-28.17 -70.64,-28.17 -33.33,0 -60.05,10.98 -80.15,32.93 -20.11,21.96 -30.16,53.31 -30.16,94.05l0 215.08 -99.21 0 0 -230.16c0,-37.04 -8.2,-64.95 -24.6,-83.73 -16.4,-18.78 -39.95,-28.17 -70.64,-28.17 -33.86,0 -60.71,10.84 -80.55,32.54 -19.84,21.69 -29.76,53.17 -29.76,94.44l0 215.08 -99.21 0 0 -423.81 94.44 0 0 53.97c15.88,-19.05 35.72,-33.6 59.53,-43.65 23.81,-10.05 50.26,-15.08 79.36,-15.08 31.75,0 59.92,5.95 84.53,17.86 24.6,11.9 44.04,29.49 58.33,52.77 17.46,-22.22 39.95,-39.55 67.46,-51.98 27.51,-12.43 57.94,-18.65 91.27,-18.65z"/>
   <path class="fil2" d="M11693.58 3701.3c41.27,0 78.17,8.99 110.71,26.98 32.54,17.99 58.07,43.39 76.59,76.19 18.52,32.81 27.78,70.64 27.78,113.5 0,42.85 -9.26,80.82 -27.78,113.88 -18.52,33.07 -44.05,58.6 -76.59,76.59 -32.54,17.99 -69.44,26.99 -110.71,26.99 -29.1,0 -55.69,-5.03 -79.76,-15.08 -24.08,-10.06 -44.31,-25.14 -60.72,-45.24l0 54.76 -94.44 0 0 -588.89 99.21 0 0 216.67c16.93,-18.52 36.9,-32.54 59.92,-42.07 23.01,-9.52 48.28,-14.28 75.79,-14.28zm-11.11 349.2c36.51,0 66.53,-12.16 90.08,-36.5 23.54,-24.34 35.32,-56.35 35.32,-96.03 0,-39.69 -11.78,-71.7 -35.32,-96.04 -23.55,-24.33 -53.57,-36.5 -90.08,-36.5 -23.81,0 -45.24,5.42 -64.29,16.27 -19.04,10.84 -34.12,26.32 -45.24,46.42 -11.11,20.11 -16.66,43.39 -16.66,69.85 0,26.45 5.55,49.73 16.66,69.84 11.12,20.1 26.2,35.58 45.24,46.43 19.05,10.84 40.48,16.26 64.29,16.26zm415.07 -282.53c28.58,-44.45 78.84,-66.67 150.8,-66.67l0 94.44c-8.47,-1.58 -16.14,-2.38 -23.02,-2.38 -38.62,0 -68.78,11.25 -90.47,33.73 -21.7,22.49 -32.54,54.9 -32.54,97.22l0 205.56 -99.21 0 0 -423.81 94.44 0 0 61.91zm432.55 283.33c46.03,0 84.39,-15.35 115.08,-46.03l52.38 61.11c-18.52,22.75 -42.33,39.95 -71.43,51.59 -29.1,11.64 -61.91,17.46 -98.41,17.46 -46.57,0 -87.57,-9.26 -123.02,-27.78 -35.45,-18.52 -62.83,-44.31 -82.14,-77.38 -19.32,-33.07 -28.97,-70.51 -28.97,-112.3 0,-41.27 9.39,-78.44 28.17,-111.51 18.79,-33.07 44.71,-58.86 77.78,-77.38 33.07,-18.52 70.5,-27.78 112.3,-27.78 39.68,0 75.8,8.6 108.34,25.79 32.54,17.2 58.33,41.8 77.38,73.81 19.04,32.01 28.57,69.45 28.57,112.3l-324.6 63.5c10.05,24.33 26.19,42.85 48.41,55.55 22.22,12.7 48.94,19.05 80.16,19.05zm-18.26 -270.64c-36.51,0 -66,11.91 -88.49,35.72 -22.49,23.81 -33.73,55.82 -33.73,96.03l0 0.79 239.68 -46.03c-6.88,-25.92 -20.76,-46.82 -41.66,-62.7 -20.9,-15.87 -46.17,-23.81 -75.8,-23.81zm440.48 354.77c-34.39,0 -67.99,-4.5 -100.79,-13.5 -32.81,-8.99 -59,-20.37 -78.57,-34.12l38.09 -75.4c19.05,12.7 41.93,22.88 68.65,30.56 26.72,7.67 53.04,11.5 78.97,11.5 59.26,0 88.89,-15.61 88.89,-46.82 0,-14.82 -7.54,-25.13 -22.62,-30.95 -15.08,-5.82 -39.29,-11.38 -72.62,-16.67 -34.92,-5.29 -63.36,-11.38 -85.32,-18.26 -21.95,-6.87 -41,-18.91 -57.14,-36.11 -16.14,-17.19 -24.2,-41.13 -24.2,-71.82 0,-40.21 16.79,-72.36 50.39,-96.43 33.6,-24.07 78.97,-36.11 136.11,-36.11 29.1,0 58.2,3.31 87.3,9.92 29.1,6.61 52.91,15.48 71.43,26.59l-38.09 75.39c-35.98,-21.16 -76.46,-31.74 -121.43,-31.74 -29.1,0 -51.19,4.36 -66.27,13.09 -15.08,8.73 -22.62,20.24 -22.62,34.53 0,15.87 8.07,27.11 24.21,33.73 16.13,6.61 41.13,12.83 75,18.65 33.86,5.29 61.64,11.37 83.33,18.25 21.69,6.88 40.34,18.52 55.95,34.92 15.61,16.4 23.41,39.68 23.41,69.84 0,39.69 -17.19,71.43 -51.58,95.24 -34.39,23.81 -81.22,35.72 -140.48,35.72zm376.99 -189.69c0,-28.57 6.48,-52.25 19.44,-71.03 12.97,-18.78 31.88,-39.28 56.75,-61.51 19.05,-16.93 33.2,-31.61 42.46,-44.04 9.26,-12.44 13.89,-26.59 13.89,-42.46 0,-22.23 -8.99,-40.22 -26.98,-53.97 -17.99,-13.76 -42.07,-20.64 -72.23,-20.64 -57.14,0 -100.26,20.37 -129.36,61.11l-76.99 -50c22.76,-31.21 52.12,-55.15 88.1,-71.82 35.98,-16.67 78.31,-25 126.98,-25 59.26,0 106.49,12.83 141.67,38.49 35.19,25.66 52.78,60.98 52.78,105.95 0,21.7 -3.57,40.74 -10.72,57.15 -7.14,16.4 -15.74,30.29 -25.79,41.66 -10.05,11.38 -23.28,24.47 -39.68,39.29 -20.11,17.99 -35.06,33.86 -44.84,47.62 -9.79,13.75 -14.69,30.16 -14.69,49.2l-100.79 0zm50.79 189.69c-18.51,0 -33.73,-5.96 -45.63,-17.86 -11.91,-11.91 -17.86,-26.59 -17.86,-44.05 0,-17.46 5.95,-32.01 17.86,-43.65 11.9,-11.64 27.12,-17.46 45.63,-17.46 17.99,0 32.94,5.82 44.85,17.46 11.9,11.64 17.85,26.19 17.85,43.65 0,17.46 -5.95,32.14 -17.85,44.05 -11.91,11.9 -26.86,17.86 -44.85,17.86zm-9844.43 443.99c-18.52,0 -33.73,-5.82 -45.64,-17.46 -11.9,-11.64 -17.86,-25.93 -17.86,-42.86 0,-17.46 5.96,-32.14 17.86,-44.04 11.91,-11.91 27.12,-17.86 45.64,-17.86 18.52,0 33.73,5.95 45.63,17.86 11.91,11.9 17.86,26.58 17.86,44.04 0,16.93 -5.95,31.22 -17.86,42.86 -11.9,11.64 -27.11,17.46 -45.63,17.46zm8.73 436.51c-58.73,0 -105.82,-12.44 -141.27,-37.3 -35.45,-24.87 -53.18,-59 -53.18,-102.38 0,-21.17 3.57,-39.95 10.72,-56.35 7.14,-16.41 15.74,-30.16 25.79,-41.27 10.05,-11.11 23.28,-23.81 39.68,-38.1 20.64,-18.52 35.72,-34.26 45.24,-47.22 9.52,-12.96 14.29,-28.7 14.29,-47.22l100.79 0c0,19.57 -3.57,37.03 -10.71,52.38 -7.15,15.34 -15.61,28.44 -25.4,39.28 -9.79,10.85 -22.88,23.42 -39.29,37.7 -19.57,16.93 -33.99,31.48 -43.25,43.65 -9.26,12.17 -13.89,26.19 -13.89,42.07 0,20.1 9,36.64 26.98,49.6 17.99,12.96 42.07,19.44 72.23,19.44 56.08,0 99.2,-20.37 129.36,-61.11l76.19 50c-22.22,30.69 -51.45,54.5 -87.7,71.43 -36.24,16.93 -78.43,25.4 -126.58,25.4zm449.99 -124.6c-43.91,0 -83.33,-9.26 -118.25,-27.78 -34.92,-18.52 -62.17,-44.31 -81.75,-77.38 -19.57,-33.07 -29.36,-70.51 -29.36,-112.3 0,-41.8 9.79,-79.11 29.36,-111.91 19.58,-32.8 46.7,-58.46 81.35,-76.98 34.66,-18.52 74.21,-27.78 118.65,-27.78 41.8,0 78.44,8.46 109.92,25.4 31.49,16.93 55.16,41.27 71.04,73.01l-76.19 44.45c-12.17,-19.58 -27.39,-34.26 -45.64,-44.05 -18.25,-9.79 -38.23,-14.68 -59.92,-14.68 -37.04,0 -67.72,12.03 -92.06,36.11 -24.34,24.07 -36.51,56.21 -36.51,96.43 0,40.21 12.04,72.35 36.11,96.42 24.07,24.08 54.89,36.11 92.46,36.11 21.69,0 41.67,-4.89 59.92,-14.68 18.25,-9.79 33.47,-24.47 45.64,-44.05l76.19 44.45c-16.41,31.75 -40.35,56.22 -71.83,73.41 -31.48,17.2 -67.86,25.8 -109.13,25.8zm450.8 0c-42.86,0 -81.49,-9.26 -115.88,-27.78 -34.39,-18.52 -61.24,-44.31 -80.55,-77.38 -19.32,-33.07 -28.97,-70.51 -28.97,-112.3 0,-41.8 9.65,-79.11 28.97,-111.91 19.31,-32.8 46.16,-58.46 80.55,-76.98 34.39,-18.52 73.02,-27.78 115.88,-27.78 43.38,0 82.27,9.26 116.66,27.78 34.39,18.52 61.25,44.18 80.56,76.98 19.31,32.8 28.97,70.11 28.97,111.91 0,41.79 -9.66,79.23 -28.97,112.3 -19.31,33.07 -46.17,58.86 -80.56,77.38 -34.39,18.52 -73.28,27.78 -116.66,27.78zm0 -84.93c36.5,0 66.66,-12.16 90.47,-36.5 23.81,-24.34 35.72,-56.35 35.72,-96.03 0,-39.69 -11.91,-71.7 -35.72,-96.04 -23.81,-24.33 -53.97,-36.5 -90.47,-36.5 -36.51,0 -66.54,12.17 -90.08,36.5 -23.55,24.34 -35.32,56.35 -35.32,96.04 0,39.68 11.77,71.69 35.32,96.03 23.54,24.34 53.57,36.5 90.08,36.5zm39.68 -511.11l116.66 0 -138.09 108.73 -85.71 0 107.14 -108.73zm816.66 161.91c53.44,0 95.77,15.48 126.98,46.43 31.22,30.95 46.83,77.38 46.83,139.28l0 242.86 -99.21 0 0 -230.16c0,-37.04 -8.2,-64.95 -24.6,-83.73 -16.4,-18.78 -39.95,-28.17 -70.64,-28.17 -33.33,0 -60.05,10.98 -80.15,32.93 -20.11,21.96 -30.16,53.31 -30.16,94.05l0 215.08 -99.21 0 0 -230.16c0,-37.04 -8.2,-64.95 -24.6,-83.73 -16.4,-18.78 -39.95,-28.17 -70.64,-28.17 -33.86,0 -60.71,10.84 -80.55,32.54 -19.84,21.69 -29.76,53.17 -29.76,94.44l0 215.08 -99.21 0 0 -423.81 94.44 0 0 53.97c15.88,-19.05 35.72,-33.6 59.53,-43.65 23.81,-10.05 50.26,-15.08 79.36,-15.08 31.75,0 59.92,5.95 84.53,17.86 24.6,11.9 44.04,29.49 58.33,52.77 17.46,-22.22 39.95,-39.55 67.46,-51.98 27.51,-12.43 57.94,-18.65 91.27,-18.65zm495.24 434.13c-42.86,0 -81.49,-9.26 -115.88,-27.78 -34.39,-18.52 -61.24,-44.31 -80.55,-77.38 -19.32,-33.07 -28.97,-70.51 -28.97,-112.3 0,-41.8 9.65,-79.11 28.97,-111.91 19.31,-32.8 46.16,-58.46 80.55,-76.98 34.39,-18.52 73.02,-27.78 115.88,-27.78 43.38,0 82.27,9.26 116.66,27.78 34.39,18.52 61.25,44.18 80.56,76.98 19.31,32.8 28.97,70.11 28.97,111.91 0,41.79 -9.66,79.23 -28.97,112.3 -19.31,33.07 -46.17,58.86 -80.56,77.38 -34.39,18.52 -73.28,27.78 -116.66,27.78zm0 -84.93c36.5,0 66.66,-12.16 90.47,-36.5 23.81,-24.34 35.72,-56.35 35.72,-96.03 0,-39.69 -11.91,-71.7 -35.72,-96.04 -23.81,-24.33 -53.97,-36.5 -90.47,-36.5 -36.51,0 -66.54,12.17 -90.08,36.5 -23.55,24.34 -35.32,56.35 -35.32,96.04 0,39.68 11.77,71.69 35.32,96.03 23.54,24.34 53.57,36.5 90.08,36.5zm780.95 -349.2c53.43,0 96.29,15.61 128.57,46.82 32.27,31.22 48.41,77.52 48.41,138.89l0 242.86 -99.21 0 0 -230.16c0,-37.04 -8.73,-64.95 -26.19,-83.73 -17.46,-18.78 -42.33,-28.17 -74.6,-28.17 -36.51,0 -65.34,10.98 -86.51,32.93 -21.16,21.96 -31.74,53.57 -31.74,94.84l0 214.29 -99.21 0 0 -588.89 99.21 0 0 214.29c16.4,-17.46 36.64,-30.82 60.71,-40.08 24.07,-9.26 50.93,-13.89 80.56,-13.89zm721.42 4.76l0 423.81 -94.44 0 0 -54.76c-16.4,20.1 -36.64,35.18 -60.71,45.24 -24.08,10.05 -50.67,15.08 -79.77,15.08 -41.27,0 -78.17,-9 -110.71,-26.99 -32.54,-17.99 -57.94,-43.38 -76.19,-76.19 -18.25,-32.8 -27.38,-70.9 -27.38,-114.28 0,-43.39 9.13,-81.35 27.38,-113.89 18.25,-32.54 43.65,-57.81 76.19,-75.8 32.54,-17.99 69.44,-26.98 110.71,-26.98 27.52,0 52.78,4.76 75.8,14.28 23.01,9.53 42.99,23.55 59.92,42.07l0 -51.59 99.2 0zm-223.8 344.44c36.5,0 66.66,-12.16 90.47,-36.5 23.81,-24.34 35.72,-56.35 35.72,-96.03 0,-39.69 -11.91,-71.7 -35.72,-96.04 -23.81,-24.33 -53.97,-36.5 -90.47,-36.5 -36.51,0 -66.54,12.17 -90.08,36.5 -23.55,24.34 -35.32,56.35 -35.32,96.04 0,39.68 11.77,71.69 35.32,96.03 23.54,24.34 53.57,36.5 90.08,36.5zm588.88 -349.2c41.27,0 78.17,8.99 110.71,26.98 32.54,17.99 58.07,43.39 76.59,76.19 18.52,32.81 27.78,70.64 27.78,113.5 0,42.85 -9.26,80.82 -27.78,113.88 -18.52,33.07 -44.05,58.6 -76.59,76.59 -32.54,17.99 -69.44,26.99 -110.71,26.99 -29.1,0 -55.69,-5.03 -79.76,-15.08 -24.08,-10.06 -44.31,-25.14 -60.72,-45.24l0 54.76 -94.44 0 0 -588.89 99.21 0 0 216.67c16.93,-18.52 36.9,-32.54 59.92,-42.07 23.01,-9.52 48.28,-14.28 75.79,-14.28zm-11.11 349.2c36.51,0 66.53,-12.16 90.08,-36.5 23.54,-24.34 35.32,-56.35 35.32,-96.03 0,-39.69 -11.78,-71.7 -35.32,-96.04 -23.55,-24.33 -53.57,-36.5 -90.08,-36.5 -23.81,0 -45.24,5.42 -64.29,16.27 -19.04,10.84 -34.12,26.32 -45.24,46.42 -11.11,20.11 -16.66,43.39 -16.66,69.85 0,26.45 5.55,49.73 16.66,69.84 11.12,20.1 26.2,35.58 45.24,46.43 19.05,10.84 40.48,16.26 64.29,16.26zm460.31 84.93c-43.91,0 -78.17,-12.04 -102.78,-36.12 -24.6,-24.07 -36.9,-58.06 -36.9,-101.98l0 -456.35 99.21 0 0 449.21c0,42.33 19.84,63.49 59.52,63.49 13.23,0 25.13,-2.65 35.71,-7.94l4.77 79.37c-18.52,6.88 -38.36,10.32 -59.53,10.32zm533.33 -429.37l0 423.81 -94.44 0 0 -54.76c-16.4,20.1 -36.64,35.18 -60.71,45.24 -24.08,10.05 -50.67,15.08 -79.77,15.08 -41.27,0 -78.17,-9 -110.71,-26.99 -32.54,-17.99 -57.94,-43.38 -76.19,-76.19 -18.25,-32.8 -27.38,-70.9 -27.38,-114.28 0,-43.39 9.13,-81.35 27.38,-113.89 18.25,-32.54 43.65,-57.81 76.19,-75.8 32.54,-17.99 69.44,-26.98 110.71,-26.98 27.52,0 52.78,4.76 75.8,14.28 23.01,9.53 42.99,23.55 59.92,42.07l0 -51.59 99.2 0zm-223.8 344.44c36.5,0 66.66,-12.16 90.47,-36.5 23.81,-24.34 35.72,-56.35 35.72,-96.03 0,-39.69 -11.91,-71.7 -35.72,-96.04 -23.81,-24.33 -53.97,-36.5 -90.47,-36.5 -36.51,0 -66.54,12.17 -90.08,36.5 -23.55,24.34 -35.32,56.35 -35.32,96.04 0,39.68 11.77,71.69 35.32,96.03 23.54,24.34 53.57,36.5 90.08,36.5zm448.4 -282.53c28.58,-44.45 78.84,-66.67 150.8,-66.67l0 94.44c-8.47,-1.58 -16.14,-2.38 -23.02,-2.38 -38.62,0 -68.78,11.25 -90.47,33.73 -21.7,22.49 -32.54,54.9 -32.54,97.22l0 205.56 -99.21 0 0 -423.81 94.44 0 0 61.91zm873.02 -226.99l0 588.89 -95.24 0 0 -54.76c-16.4,20.1 -36.64,35.18 -60.71,45.24 -24.08,10.05 -50.67,15.08 -79.77,15.08 -40.74,0 -77.38,-9 -109.92,-26.99 -32.54,-17.99 -58.07,-43.52 -76.58,-76.59 -18.52,-33.06 -27.78,-71.03 -27.78,-113.88 0,-42.86 9.26,-80.69 27.78,-113.5 18.51,-32.8 44.04,-58.2 76.58,-76.19 32.54,-17.99 69.18,-26.98 109.92,-26.98 28.05,0 53.71,4.76 76.99,14.28 23.28,9.53 43.12,23.81 59.52,42.86l0 -217.46 99.21 0zm-223.81 509.52c23.81,0 45.24,-5.42 64.28,-16.26 19.05,-10.85 34.13,-26.33 45.24,-46.43 11.11,-20.11 16.67,-43.39 16.67,-69.84 0,-26.46 -5.56,-49.74 -16.67,-69.85 -11.11,-20.1 -26.19,-35.58 -45.24,-46.42 -19.04,-10.85 -40.47,-16.27 -64.28,-16.27 -23.81,0 -45.24,5.42 -64.29,16.27 -19.04,10.84 -34.12,26.32 -45.23,46.42 -11.12,20.11 -16.67,43.39 -16.67,69.85 0,26.45 5.55,49.73 16.67,69.84 11.11,20.1 26.19,35.58 45.23,46.43 19.05,10.84 40.48,16.26 64.29,16.26zm555.56 0.8c46.03,0 84.39,-15.35 115.08,-46.03l52.38 61.11c-18.52,22.75 -42.33,39.95 -71.43,51.59 -29.1,11.64 -61.91,17.46 -98.41,17.46 -46.57,0 -87.57,-9.26 -123.02,-27.78 -35.45,-18.52 -62.83,-44.31 -82.14,-77.38 -19.32,-33.07 -28.97,-70.51 -28.97,-112.3 0,-41.27 9.39,-78.44 28.17,-111.51 18.79,-33.07 44.71,-58.86 77.78,-77.38 33.07,-18.52 70.5,-27.78 112.3,-27.78 39.68,0 75.8,8.6 108.34,25.79 32.54,17.2 58.33,41.8 77.38,73.81 19.04,32.01 28.57,69.45 28.57,112.3l-324.6 63.5c10.05,24.33 26.19,42.85 48.41,55.55 22.22,12.7 48.94,19.05 80.16,19.05zm-18.26 -270.64c-36.51,0 -66,11.91 -88.49,35.72 -22.49,23.81 -33.73,55.82 -33.73,96.03l0 0.79 239.68 -46.03c-6.88,-25.92 -20.76,-46.82 -41.66,-62.7 -20.9,-15.87 -46.17,-23.81 -75.8,-23.81zm659.53 354.77c-34.39,0 -67.99,-4.5 -100.79,-13.5 -32.81,-8.99 -59,-20.37 -78.57,-34.12l38.09 -75.4c19.05,12.7 41.93,22.88 68.65,30.56 26.72,7.67 53.04,11.5 78.97,11.5 59.26,0 88.89,-15.61 88.89,-46.82 0,-14.82 -7.54,-25.13 -22.62,-30.95 -15.08,-5.82 -39.29,-11.38 -72.62,-16.67 -34.92,-5.29 -63.36,-11.38 -85.32,-18.26 -21.95,-6.87 -41,-18.91 -57.14,-36.11 -16.14,-17.19 -24.2,-41.13 -24.2,-71.82 0,-40.21 16.79,-72.36 50.39,-96.43 33.6,-24.07 78.97,-36.11 136.11,-36.11 29.1,0 58.2,3.31 87.3,9.92 29.1,6.61 52.91,15.48 71.43,26.59l-38.09 75.39c-35.98,-21.16 -76.46,-31.74 -121.43,-31.74 -29.1,0 -51.19,4.36 -66.27,13.09 -15.08,8.73 -22.62,20.24 -22.62,34.53 0,15.87 8.07,27.11 24.21,33.73 16.13,6.61 41.13,12.83 75,18.65 33.86,5.29 61.64,11.37 83.33,18.25 21.69,6.88 40.34,18.52 55.95,34.92 15.61,16.4 23.41,39.68 23.41,69.84 0,39.69 -17.19,71.43 -51.58,95.24 -34.39,23.81 -81.22,35.72 -140.48,35.72zm479.37 -84.13c46.03,0 84.39,-15.35 115.08,-46.03l52.38 61.11c-18.52,22.75 -42.33,39.95 -71.43,51.59 -29.1,11.64 -61.91,17.46 -98.41,17.46 -46.57,0 -87.57,-9.26 -123.02,-27.78 -35.45,-18.52 -62.83,-44.31 -82.14,-77.38 -19.32,-33.07 -28.97,-70.51 -28.97,-112.3 0,-41.27 9.39,-78.44 28.17,-111.51 18.79,-33.07 44.71,-58.86 77.78,-77.38 33.07,-18.52 70.5,-27.78 112.3,-27.78 39.68,0 75.8,8.6 108.34,25.79 32.54,17.2 58.33,41.8 77.38,73.81 19.04,32.01 28.57,69.45 28.57,112.3l-324.6 63.5c10.05,24.33 26.19,42.85 48.41,55.55 22.22,12.7 48.94,19.05 80.16,19.05zm-18.26 -270.64c-36.51,0 -66,11.91 -88.49,35.72 -22.49,23.81 -33.73,55.82 -33.73,96.03l0 0.79 239.68 -46.03c-6.88,-25.92 -20.76,-46.82 -41.66,-62.7 -20.9,-15.87 -46.17,-23.81 -75.8,-23.81zm567.46 349.21l-108.73 -146.83 -109.52 146.83 -109.53 0 165.08 -215.08 -157.93 -208.73 110.31 0 103.97 138.89 103.97 -138.89 107.14 0 -158.73 207.14 165.87 216.67 -111.9 0zm361.12 5.56c-42.86,0 -81.49,-9.26 -115.88,-27.78 -34.39,-18.52 -61.24,-44.31 -80.55,-77.38 -19.32,-33.07 -28.97,-70.51 -28.97,-112.3 0,-41.8 9.65,-79.11 28.97,-111.91 19.31,-32.8 46.16,-58.46 80.55,-76.98 34.39,-18.52 73.02,-27.78 115.88,-27.78 43.38,0 82.27,9.26 116.66,27.78 34.39,18.52 61.25,44.18 80.56,76.98 19.31,32.8 28.97,70.11 28.97,111.91 0,41.79 -9.66,79.23 -28.97,112.3 -19.31,33.07 -46.17,58.86 -80.56,77.38 -34.39,18.52 -73.28,27.78 -116.66,27.78zm0 -84.93c36.5,0 66.66,-12.16 90.47,-36.5 23.81,-24.34 35.72,-56.35 35.72,-96.03 0,-39.69 -11.91,-71.7 -35.72,-96.04 -23.81,-24.33 -53.97,-36.5 -90.47,-36.5 -36.51,0 -66.54,12.17 -90.08,36.5 -23.55,24.34 -35.32,56.35 -35.32,96.04 0,39.68 11.77,71.69 35.32,96.03 23.54,24.34 53.57,36.5 90.08,36.5zm734.91 84.93c-43.91,0 -83.33,-9.26 -118.25,-27.78 -34.92,-18.52 -62.17,-44.31 -81.75,-77.38 -19.57,-33.07 -29.36,-70.51 -29.36,-112.3 0,-41.8 9.79,-79.11 29.36,-111.91 19.58,-32.8 46.7,-58.46 81.35,-76.98 34.66,-18.52 74.21,-27.78 118.65,-27.78 41.8,0 78.44,8.46 109.92,25.4 31.49,16.93 55.16,41.27 71.04,73.01l-76.19 44.45c-12.17,-19.58 -27.39,-34.26 -45.64,-44.05 -18.25,-9.79 -38.23,-14.68 -59.92,-14.68 -37.04,0 -67.72,12.03 -92.06,36.11 -24.34,24.07 -36.51,56.21 -36.51,96.43 0,40.21 12.04,72.35 36.11,96.42 24.07,24.08 54.89,36.11 92.46,36.11 21.69,0 41.67,-4.89 59.92,-14.68 18.25,-9.79 33.47,-24.47 45.64,-44.05l76.19 44.45c-16.41,31.75 -40.35,56.22 -71.83,73.41 -31.48,17.2 -67.86,25.8 -109.13,25.8zm450.8 0c-42.86,0 -81.49,-9.26 -115.88,-27.78 -34.39,-18.52 -61.24,-44.31 -80.55,-77.38 -19.32,-33.07 -28.97,-70.51 -28.97,-112.3 0,-41.8 9.65,-79.11 28.97,-111.91 19.31,-32.8 46.16,-58.46 80.55,-76.98 34.39,-18.52 73.02,-27.78 115.88,-27.78 43.38,0 82.27,9.26 116.66,27.78 34.39,18.52 61.25,44.18 80.56,76.98 19.31,32.8 28.97,70.11 28.97,111.91 0,41.79 -9.66,79.23 -28.97,112.3 -19.31,33.07 -46.17,58.86 -80.56,77.38 -34.39,18.52 -73.28,27.78 -116.66,27.78zm0 -84.93c36.5,0 66.66,-12.16 90.47,-36.5 23.81,-24.34 35.72,-56.35 35.72,-96.03 0,-39.69 -11.91,-71.7 -35.72,-96.04 -23.81,-24.33 -53.97,-36.5 -90.47,-36.5 -36.51,0 -66.54,12.17 -90.08,36.5 -23.55,24.34 -35.32,56.35 -35.32,96.04 0,39.68 11.77,71.69 35.32,96.03 23.54,24.34 53.57,36.5 90.08,36.5zm561.9 -349.2c53.43,0 96.29,15.61 128.57,46.82 32.27,31.22 48.41,77.52 48.41,138.89l0 242.86 -99.21 0 0 -230.16c0,-37.04 -8.73,-64.95 -26.19,-83.73 -17.46,-18.78 -42.33,-28.17 -74.6,-28.17 -36.51,0 -65.34,10.98 -86.51,32.93 -21.16,21.96 -31.74,53.57 -31.74,94.84l0 214.29 -99.21 0 0 -423.81 94.44 0 0 54.76c16.41,-19.57 37.04,-34.39 61.91,-44.44 24.87,-10.05 52.91,-15.08 84.13,-15.08zm760.31 405.55c-11.64,9.53 -25.79,16.67 -42.46,21.43 -16.66,4.76 -34.26,7.15 -52.77,7.15 -46.56,0 -82.54,-12.17 -107.94,-36.51 -25.4,-24.34 -38.1,-59.79 -38.1,-106.35l0 -380.16 99.21 0 0 96.83 113.49 0 0 79.36 -113.49 0 0 201.59c0,20.63 5.16,36.37 15.48,47.22 10.31,10.85 24.73,16.27 43.25,16.27 22.22,0 40.74,-5.82 55.56,-17.46l27.77 70.63zm492.07 -400.79l0 423.81 -94.45 0 0 -53.97c-15.87,19.05 -35.71,33.73 -59.52,44.05 -23.81,10.32 -49.47,15.48 -76.99,15.48 -56.61,0 -101.19,-15.75 -133.73,-47.23 -32.54,-31.48 -48.81,-78.17 -48.81,-140.08l0 -242.06 99.21 0 0 228.57c0,38.1 8.6,66.54 25.79,85.32 17.2,18.78 41.67,28.17 73.42,28.17 35.45,0 63.62,-10.97 84.52,-32.93 20.9,-21.96 31.35,-53.57 31.35,-94.84l0 -214.29 99.21 0zm584.13 -4.76c41.27,0 78.17,8.99 110.71,26.98 32.54,17.99 58.07,43.39 76.59,76.19 18.52,32.81 27.78,70.64 27.78,113.5 0,42.85 -9.26,80.82 -27.78,113.88 -18.52,33.07 -44.05,58.6 -76.59,76.59 -32.54,17.99 -69.44,26.99 -110.71,26.99 -57.14,0 -102.38,-19.05 -135.71,-57.15l0 205.56 -99.21 0 0 -577.78 94.44 0 0 55.56c16.41,-20.11 36.64,-35.19 60.72,-45.24 24.07,-10.05 50.66,-15.08 79.76,-15.08zm-11.11 349.2c36.51,0 66.53,-12.16 90.08,-36.5 23.54,-24.34 35.32,-56.35 35.32,-96.03 0,-39.69 -11.78,-71.7 -35.32,-96.04 -23.55,-24.33 -53.57,-36.5 -90.08,-36.5 -23.81,0 -45.24,5.42 -64.29,16.27 -19.04,10.84 -34.12,26.32 -45.24,46.42 -11.11,20.11 -16.66,43.39 -16.66,69.85 0,26.45 5.55,49.73 16.66,69.84 11.12,20.1 26.2,35.58 45.24,46.43 19.05,10.84 40.48,16.26 64.29,16.26zm734.91 -344.44l0 423.81 -94.44 0 0 -54.76c-16.4,20.1 -36.64,35.18 -60.71,45.24 -24.08,10.05 -50.67,15.08 -79.77,15.08 -41.27,0 -78.17,-9 -110.71,-26.99 -32.54,-17.99 -57.94,-43.38 -76.19,-76.19 -18.25,-32.8 -27.38,-70.9 -27.38,-114.28 0,-43.39 9.13,-81.35 27.38,-113.89 18.25,-32.54 43.65,-57.81 76.19,-75.8 32.54,-17.99 69.44,-26.98 110.71,-26.98 27.52,0 52.78,4.76 75.8,14.28 23.01,9.53 42.99,23.55 59.92,42.07l0 -51.59 99.2 0zm-223.8 344.44c36.5,0 66.66,-12.16 90.47,-36.5 23.81,-24.34 35.72,-56.35 35.72,-96.03 0,-39.69 -11.91,-71.7 -35.72,-96.04 -23.81,-24.33 -53.97,-36.5 -90.47,-36.5 -36.51,0 -66.54,12.17 -90.08,36.5 -23.55,24.34 -35.32,56.35 -35.32,96.04 0,39.68 11.77,71.69 35.32,96.03 23.54,24.34 53.57,36.5 90.08,36.5zm448.4 -282.53c28.58,-44.45 78.84,-66.67 150.8,-66.67l0 94.44c-8.47,-1.58 -16.14,-2.38 -23.02,-2.38 -38.62,0 -68.78,11.25 -90.47,33.73 -21.7,22.49 -32.54,54.9 -32.54,97.22l0 205.56 -99.21 0 0 -423.81 94.44 0 0 61.91zm432.55 283.33c46.03,0 84.39,-15.35 115.08,-46.03l52.38 61.11c-18.52,22.75 -42.33,39.95 -71.43,51.59 -29.1,11.64 -61.91,17.46 -98.41,17.46 -46.57,0 -87.57,-9.26 -123.02,-27.78 -35.45,-18.52 -62.83,-44.31 -82.14,-77.38 -19.32,-33.07 -28.97,-70.51 -28.97,-112.3 0,-41.27 9.39,-78.44 28.17,-111.51 18.79,-33.07 44.71,-58.86 77.78,-77.38 33.07,-18.52 70.5,-27.78 112.3,-27.78 39.68,0 75.8,8.6 108.34,25.79 32.54,17.2 58.33,41.8 77.38,73.81 19.04,32.01 28.57,69.45 28.57,112.3l-324.6 63.5c10.05,24.33 26.19,42.85 48.41,55.55 22.22,12.7 48.94,19.05 80.16,19.05zm-18.26 -270.64c-36.51,0 -66,11.91 -88.49,35.72 -22.49,23.81 -33.73,55.82 -33.73,96.03l0 0.79 239.68 -46.03c-6.88,-25.92 -20.76,-46.82 -41.66,-62.7 -20.9,-15.87 -46.17,-23.81 -75.8,-23.81z"/>
   <path class="fil2" d="M17319.76 5045.29c-41.8,0 -73.55,-8.2 -95.24,-24.6l28.57 -73.81c14.82,11.11 34.13,16.67 57.94,16.67 18.52,0 32.67,-5.69 42.46,-17.07 9.79,-11.37 14.68,-28.17 14.68,-50.39l0 -434.13 99.21 0 0 431.75c0,47.09 -12.97,84.12 -38.89,111.11 -25.93,26.98 -62.17,40.47 -108.73,40.47zm97.62 -653.17c-17.99,0 -33.07,-5.69 -45.24,-17.06 -12.17,-11.38 -18.25,-25.53 -18.25,-42.46 0,-16.94 6.08,-31.09 18.25,-42.46 12.17,-11.38 27.25,-17.07 45.24,-17.07 17.99,0 33.07,5.43 45.24,16.27 12.16,10.85 18.25,24.47 18.25,40.87 0,17.47 -5.95,32.15 -17.86,44.05 -11.9,11.91 -27.11,17.86 -45.63,17.86zm594.44 69.84l0 423.81 -94.44 0 0 -54.76c-16.4,20.1 -36.64,35.18 -60.71,45.24 -24.08,10.05 -50.67,15.08 -79.77,15.08 -41.27,0 -78.17,-9 -110.71,-26.99 -32.54,-17.99 -57.94,-43.38 -76.19,-76.19 -18.25,-32.8 -27.38,-70.9 -27.38,-114.28 0,-43.39 9.13,-81.35 27.38,-113.89 18.25,-32.54 43.65,-57.81 76.19,-75.8 32.54,-17.99 69.44,-26.98 110.71,-26.98 27.52,0 52.78,4.76 75.8,14.28 23.01,9.53 42.99,23.55 59.92,42.07l0 -51.59 99.2 0zm-223.8 344.44c36.5,0 66.66,-12.16 90.47,-36.5 23.81,-24.34 35.72,-56.35 35.72,-96.03 0,-39.69 -11.91,-71.7 -35.72,-96.04 -23.81,-24.33 -53.97,-36.5 -90.47,-36.5 -36.51,0 -66.54,12.17 -90.08,36.5 -23.55,24.34 -35.32,56.35 -35.32,96.04 0,39.68 11.77,71.69 35.32,96.03 23.54,24.34 53.57,36.5 90.08,36.5zm480.95 -104.76c0,-28.57 6.48,-52.25 19.44,-71.03 12.97,-18.78 31.88,-39.28 56.75,-61.51 19.05,-16.93 33.2,-31.61 42.46,-44.04 9.26,-12.44 13.89,-26.59 13.89,-42.46 0,-22.23 -8.99,-40.22 -26.98,-53.97 -17.99,-13.76 -42.07,-20.64 -72.23,-20.64 -57.14,0 -100.26,20.37 -129.36,61.11l-76.99 -50c22.76,-31.21 52.12,-55.15 88.1,-71.82 35.98,-16.67 78.31,-25 126.98,-25 59.26,0 106.49,12.83 141.67,38.49 35.19,25.66 52.78,60.98 52.78,105.95 0,21.7 -3.57,40.74 -10.72,57.15 -7.14,16.4 -15.74,30.29 -25.79,41.66 -10.05,11.38 -23.28,24.47 -39.68,39.29 -20.11,17.99 -35.06,33.86 -44.84,47.62 -9.79,13.75 -14.69,30.16 -14.69,49.2l-100.79 0zm50.79 189.69c-18.51,0 -33.73,-5.96 -45.63,-17.86 -11.91,-11.91 -17.86,-26.59 -17.86,-44.05 0,-17.46 5.95,-32.01 17.86,-43.65 11.9,-11.64 27.12,-17.46 45.63,-17.46 17.99,0 32.94,5.82 44.85,17.46 11.9,11.64 17.85,26.19 17.85,43.65 0,17.46 -5.95,32.14 -17.85,44.05 -11.91,11.9 -26.86,17.86 -44.85,17.86z"/>
  </g>
  <path class="fil8" d="M9734.16 8877.35c-117.52,0 -216.85,-24.15 -298.02,-72.45 -81.16,-48.3 -141.91,-112.53 -182.24,-192.7 -40.33,-80.17 -60.5,-168.05 -60.5,-263.66 0,-94.6 21.16,-181.74 63.49,-261.41 42.32,-79.67 105.31,-143.41 188.96,-191.21 83.65,-47.8 184.74,-71.7 303.24,-71.7 62.74,0 121.75,8.47 177.02,25.4 55.27,16.92 102.82,40.33 142.66,70.2l-53.78 138.93c-33.86,-24.9 -73.45,-45.31 -118.76,-61.25 -45.31,-15.93 -94.36,-23.9 -147.14,-23.9 -73.69,0 -137.18,16.43 -190.46,49.3 -53.27,32.86 -93.61,77.92 -120.99,135.18 -27.39,57.27 -41.08,121.25 -41.08,191.96 0,72.7 12.94,137.68 38.84,194.94 25.89,57.26 64.23,102.32 115.02,135.19 50.79,32.86 112.03,49.29 183.74,49.29 57.76,0 111.53,-9.71 161.33,-29.13 49.79,-19.42 93.61,-43.57 131.45,-72.45l50.79 135.94c-42.82,32.86 -94.11,60 -153.86,81.41 -59.75,21.41 -122.99,32.12 -189.71,32.12zm1011.29 1.49c-111.53,0 -206.64,-23.65 -285.31,-70.95 -78.68,-47.31 -138.18,-111.04 -178.51,-191.21 -40.33,-80.17 -60.5,-168.55 -60.5,-265.15 0,-97.59 19.92,-186.23 59.75,-265.89 39.84,-79.67 99.34,-143.16 178.51,-190.46 79.17,-47.31 174.53,-70.96 286.06,-70.96 110.54,0 205.4,23.65 284.57,70.96 79.17,47.3 138.93,110.79 179.26,190.46 40.33,79.66 60.5,167.8 60.5,264.4 0,97.59 -20.17,186.47 -60.5,266.64 -40.33,80.17 -99.84,143.9 -178.51,191.21 -78.67,47.3 -173.78,70.95 -285.32,70.95zm1.5 -149.38c66.72,0 124.23,-16.43 172.53,-49.29 48.3,-32.87 85.15,-77.93 110.54,-135.19 25.4,-57.26 38.09,-122.24 38.09,-194.94 0,-71.7 -12.69,-135.94 -38.09,-192.7 -25.39,-56.77 -62.24,-101.58 -110.54,-134.44 -48.3,-32.87 -105.81,-49.3 -172.53,-49.3 -67.72,0 -125.73,16.43 -174.03,49.3 -48.3,32.86 -84.9,77.67 -109.79,134.44 -24.9,56.76 -37.35,121 -37.35,192.7 0,72.7 12.45,137.68 37.35,194.94 24.89,57.26 61.49,102.32 109.79,135.19 48.3,32.86 106.31,49.29 174.03,49.29zm1638.69 -887.31l0 1015.78 -180.75 1.49 -519.84 -717.02 14.94 342.08 0 373.45 -203.16 0 0 -1015.78 180.75 0 519.85 715.53 -14.94 -361.5 0 -354.03 203.15 0zm1011.3 146.39l-309.21 0 0 869.39 -203.16 0 0 -869.39 -309.22 0 0 -146.39 821.59 0 0 146.39zm560.18 458.6l-165.81 0 0 410.79 -203.16 0 0 -1015.78 373.45 0c256.94,0 385.4,97.59 385.4,292.78 0,143.41 -62.74,235.52 -188.21,276.35l306.22 446.65 -234.52 0 -273.37 -410.79zm-165.81 -144.9l170.29 0c62.74,0 108.8,-12.95 138.18,-38.84 29.38,-25.89 44.07,-65.23 44.07,-118.01 0,-105.56 -60.75,-158.35 -182.25,-158.35l-170.29 0 0 315.2zm1404.18 280.83l-376.44 0 -95.6 274.86 -204.65 0 391.37 -1029.23 194.2 0 392.86 1029.23 -206.14 0 -95.6 -274.86zm-50.79 -143.4l-137.43 -397.35 -138.93 397.35 276.36 0zm-5219.34 1516.6l0 144.9 -655.78 0 0 -1015.78 625.91 0 0 144.89 -422.75 0 0 261.42 362.99 0 0 144.9 -362.99 0 0 319.67 452.62 0zm885.82 0l0 144.9 -655.78 0 0 -1015.78 203.16 0 0 870.88 452.62 0zm1596.88 -870.88l0 1015.78 -198.68 0 0 -312.2 13.44 -389.89 -261.41 415.28 -149.38 0 -264.4 -421.25 16.43 395.86 0 312.2 -198.68 0 0 -1015.78 188.22 0 333.12 521.33 333.12 -521.33 188.22 0zm730.47 1036.69c-143.41,0 -253.45,-37.09 -330.13,-111.28 -76.68,-74.2 -115.02,-175.03 -115.02,-302.5l0 -622.91 203.15 0 0 621.42c0,88.63 20.67,155.1 62,199.42 41.32,44.32 101.32,66.47 180,66.47 77.68,0 137.18,-22.15 178.51,-66.47 41.33,-44.32 61.99,-110.79 61.99,-199.42l0 -621.42 203.16 0 0 619.92c0,128.47 -38.1,230.05 -114.28,304.74 -76.18,74.69 -185.98,112.03 -329.38,112.03zm1097.94 -431.7l-165.81 0 0 410.79 -203.16 0 0 -1015.78 373.45 0c256.94,0 385.4,97.59 385.4,292.78 0,143.41 -62.74,235.52 -188.21,276.35l306.22 446.65 -234.52 0 -273.37 -410.79zm-165.81 -144.9l170.29 0c62.74,0 108.8,-12.95 138.18,-38.84 29.38,-25.89 44.07,-65.23 44.07,-118.01 0,-105.56 -60.75,-158.35 -182.25,-158.35l-170.29 0 0 315.2zm1308.57 576.6c-111.53,0 -206.64,-23.65 -285.31,-70.95 -78.68,-47.31 -138.18,-111.04 -178.51,-191.21 -40.33,-80.17 -60.5,-168.55 -60.5,-265.15 0,-97.59 19.92,-186.23 59.75,-265.89 39.84,-79.67 99.34,-143.16 178.51,-190.46 79.17,-47.31 174.53,-70.96 286.06,-70.96 110.54,0 205.4,23.65 284.57,70.96 79.17,47.3 138.93,110.79 179.26,190.46 40.33,79.66 60.5,167.8 60.5,264.4 0,97.59 -20.17,186.47 -60.5,266.64 -40.33,80.17 -99.84,143.9 -178.51,191.21 -78.67,47.3 -173.78,70.95 -285.32,70.95zm1.5 -149.38c66.72,0 124.23,-16.43 172.53,-49.29 48.3,-32.87 85.15,-77.93 110.54,-135.19 25.4,-57.26 38.09,-122.24 38.09,-194.94 0,-71.7 -12.69,-135.94 -38.09,-192.7 -25.39,-56.77 -62.24,-101.58 -110.54,-134.44 -48.3,-32.87 -105.81,-49.3 -172.53,-49.3 -67.72,0 -125.73,16.43 -174.03,49.3 -48.3,32.86 -84.9,77.67 -109.79,134.44 -24.9,56.76 -37.35,121 -37.35,192.7 0,72.7 12.45,137.68 37.35,194.94 24.89,57.26 61.49,102.32 109.79,135.19 48.3,32.86 106.31,49.29 174.03,49.29zm663.24 303.24c29.88,-21.9 52.04,-50.29 66.48,-85.14 14.44,-34.86 21.66,-73.7 21.66,-116.52 0,-52.78 -10.96,-111.04 -32.87,-174.77l204.65 -28.39c13.95,51.79 20.92,102.08 20.92,150.88 0,149.38 -72.2,261.91 -216.6,337.6l-64.24 -83.66z"/>
  <path class="fil2" d="M14946.92 12014.19c-141.42,0 -258.43,-27.88 -351.05,-83.65l49.3 -141.91c49.79,25.89 98.59,45.06 146.39,57.51 47.8,12.45 98.59,18.67 152.37,18.67 60.75,0 111.54,-12.45 152.37,-37.34 40.83,-24.9 61.24,-60.75 61.24,-107.56 0,-28.88 -9.71,-53.52 -29.13,-73.94 -19.41,-20.41 -43.56,-37.34 -72.44,-50.79 -28.88,-13.44 -68.72,-29.13 -119.51,-47.05 -65.73,-23.9 -118.76,-46.06 -159.09,-66.48 -40.33,-20.41 -74.94,-48.79 -103.82,-85.14 -28.88,-36.35 -43.32,-82.41 -43.32,-138.18 0,-94.61 35.11,-168.05 105.32,-220.34 70.2,-52.28 163.07,-78.42 278.59,-78.42 115.52,0 217.1,26.89 304.73,80.67l-49.29 140.41c-82.66,-47.8 -165.81,-71.7 -249.47,-71.7 -55.76,0 -101.57,11.95 -137.43,35.85 -35.85,23.9 -53.77,57.76 -53.77,101.58 0,25.89 9.21,48.3 27.63,67.22 18.43,18.92 41.33,34.61 68.72,47.06 27.38,12.44 65.97,28.13 115.77,47.05 67.72,24.9 122.49,48.05 164.32,69.46 41.82,21.41 77.67,50.79 107.55,88.14 29.87,37.34 44.81,84.89 44.81,142.65 0,95.61 -36.35,170.55 -109.04,224.82 -72.7,54.28 -173.29,81.41 -301.75,81.41zm1078.52 0c-111.53,0 -206.64,-23.65 -285.31,-70.95 -78.68,-47.31 -138.18,-111.04 -178.51,-191.21 -40.33,-80.17 -60.5,-168.55 -60.5,-265.15 0,-97.59 19.92,-186.23 59.75,-265.89 39.84,-79.67 99.34,-143.16 178.51,-190.46 79.17,-47.31 174.53,-70.96 286.06,-70.96 110.54,0 205.4,23.65 284.57,70.96 79.17,47.3 138.93,110.79 179.26,190.46 40.33,79.66 60.5,167.8 60.5,264.4 0,97.59 -20.17,186.47 -60.5,266.64 -40.33,80.17 -99.84,143.9 -178.51,191.21 -78.67,47.3 -173.78,70.95 -285.32,70.95zm1.5 -149.38c66.72,0 124.23,-16.43 172.53,-49.29 48.3,-32.87 85.15,-77.93 110.54,-135.19 25.4,-57.26 38.09,-122.24 38.09,-194.94 0,-71.7 -12.69,-135.94 -38.09,-192.7 -25.39,-56.77 -62.24,-101.58 -110.54,-134.44 -48.3,-32.87 -105.81,-49.3 -172.53,-49.3 -67.72,0 -125.73,16.43 -174.03,49.3 -48.3,32.86 -84.9,77.67 -109.79,134.44 -24.9,56.76 -37.35,121 -37.35,192.7 0,72.7 12.45,137.68 37.35,194.94 24.89,57.26 61.49,102.32 109.79,135.19 48.3,32.86 106.31,49.29 174.03,49.29zm1293.63 -407.8c74.69,14.93 131.7,45.31 171.04,91.12 39.33,45.81 59,101.58 59,167.3 0,88.64 -34.11,157.1 -102.32,205.4 -68.22,48.3 -167.56,72.45 -298.02,72.45l-373.45 0 0 -1015.78 373.45 0c116.52,0 204.9,21.41 265.15,64.23 60.25,42.82 90.38,106.06 90.38,189.71 0,53.78 -15.94,100.83 -47.8,141.17 -31.87,40.33 -77.68,68.46 -137.43,84.4zm-340.59 -334.62l0 262.91 170.29 0c48.8,0 86.4,-11.2 112.79,-33.61 26.39,-22.4 39.58,-55.52 39.58,-99.33 0,-45.81 -12.94,-78.93 -38.84,-99.34 -25.89,-20.42 -63.73,-30.63 -113.53,-30.63l-170.29 0zm170.29 725.99c63.74,0 112.54,-13.44 146.4,-40.33 33.86,-26.89 50.79,-66.72 50.79,-119.51 0,-105.56 -65.73,-158.34 -197.19,-158.34l-170.29 0 0 318.18 170.29 0zm984.42 -265.89l-165.81 0 0 410.79 -203.16 0 0 -1015.78 373.45 0c256.94,0 385.4,97.59 385.4,292.78 0,143.41 -62.74,235.52 -188.21,276.35l306.22 446.65 -234.52 0 -273.37 -410.79zm-165.81 -144.9l170.29 0c62.74,0 108.8,-12.95 138.18,-38.84 29.38,-25.89 44.07,-65.23 44.07,-118.01 0,-105.56 -60.75,-158.35 -182.25,-158.35l-170.29 0 0 315.2zm1516.21 410.79l0 144.9 -655.78 0 0 -1015.78 625.91 0 0 144.89 -422.75 0 0 261.42 362.99 0 0 144.9 -362.99 0 0 319.67 452.62 0zm-4151.28 1243.24l0 144.9 -655.78 0 0 -1015.78 625.91 0 0 144.89 -422.75 0 0 261.42 362.99 0 0 144.9 -362.99 0 0 319.67 452.62 0zm885.82 0l0 144.9 -655.78 0 0 -1015.78 203.16 0 0 870.88 452.62 0zm936.62 -870.88c260.91,0 391.37,105.56 391.37,316.68 0,105.56 -31.87,184.98 -95.6,238.26 -63.74,53.28 -162.33,79.92 -295.77,79.92l-179.26 0 0 380.92 -203.16 0 0 -1015.78 382.42 0zm0 489.96c63.73,0 111.04,-13.94 141.91,-41.82 30.87,-27.89 46.31,-71.21 46.31,-129.96 0,-115.53 -62.74,-173.29 -188.22,-173.29l-179.26 0 0 345.07 179.26 0zm587.06 -489.96l203.16 0 0 1015.78 -203.16 0 0 -1015.78zm772.3 1036.69c-141.42,0 -258.43,-27.88 -351.05,-83.65l49.3 -141.91c49.79,25.89 98.59,45.06 146.39,57.51 47.8,12.45 98.59,18.67 152.37,18.67 60.75,0 111.54,-12.45 152.37,-37.34 40.83,-24.9 61.24,-60.75 61.24,-107.56 0,-28.88 -9.71,-53.52 -29.13,-73.94 -19.41,-20.41 -43.56,-37.34 -72.44,-50.79 -28.88,-13.44 -68.72,-29.13 -119.51,-47.05 -65.73,-23.9 -118.76,-46.06 -159.09,-66.48 -40.33,-20.41 -74.94,-48.79 -103.82,-85.14 -28.88,-36.35 -43.32,-82.41 -43.32,-138.18 0,-94.61 35.11,-168.05 105.32,-220.34 70.2,-52.28 163.07,-78.42 278.59,-78.42 115.52,0 217.1,26.89 304.73,80.67l-49.29 140.41c-82.66,-47.8 -165.81,-71.7 -249.47,-71.7 -55.76,0 -101.57,11.95 -137.43,35.85 -35.85,23.9 -53.77,57.76 -53.77,101.58 0,25.89 9.21,48.3 27.63,67.22 18.43,18.92 41.33,34.61 68.72,47.06 27.38,12.44 65.97,28.13 115.77,47.05 67.72,24.9 122.49,48.05 164.32,69.46 41.82,21.41 77.67,50.79 107.55,88.14 29.87,37.34 44.81,84.89 44.81,142.65 0,95.61 -36.35,170.55 -109.04,224.82 -72.7,54.28 -173.29,81.41 -301.75,81.41zm1078.52 0c-111.53,0 -206.64,-23.65 -285.31,-70.95 -78.68,-47.31 -138.18,-111.04 -178.51,-191.21 -40.33,-80.17 -60.5,-168.55 -60.5,-265.15 0,-97.59 19.92,-186.23 59.75,-265.89 39.84,-79.67 99.34,-143.16 178.51,-190.46 79.17,-47.31 174.53,-70.96 286.06,-70.96 110.54,0 205.4,23.65 284.57,70.96 79.17,47.3 138.93,110.79 179.26,190.46 40.33,79.66 60.5,167.8 60.5,264.4 0,97.59 -20.17,186.47 -60.5,266.64 -40.33,80.17 -99.84,143.9 -178.51,191.21 -78.67,47.3 -173.78,70.95 -285.32,70.95zm1.5 -149.38c66.72,0 124.23,-16.43 172.53,-49.29 48.3,-32.87 85.15,-77.93 110.54,-135.19 25.4,-57.26 38.09,-122.24 38.09,-194.94 0,-71.7 -12.69,-135.94 -38.09,-192.7 -25.39,-56.77 -62.24,-101.58 -110.54,-134.44 -48.3,-32.87 -105.81,-49.3 -172.53,-49.3 -67.72,0 -125.73,16.43 -174.03,49.3 -48.3,32.86 -84.9,77.67 -109.79,134.44 -24.9,56.76 -37.35,121 -37.35,192.7 0,72.7 12.45,137.68 37.35,194.94 24.89,57.26 61.49,102.32 109.79,135.19 48.3,32.86 106.31,49.29 174.03,49.29z"/>
  <path class="fil2" d="M1697.18 7851.21c227.4,0 421.72,45.48 582.97,136.44 161.24,90.96 282.69,216.02 364.35,375.2 81.66,159.18 122.48,339.03 122.48,539.55 0,204.66 -40.82,387.1 -122.48,547.31 -81.66,160.21 -202.59,285.28 -362.8,375.2 -160.21,89.93 -355.05,134.89 -584.52,134.89l-806.22 0 0 -2108.59 806.22 0zm0 1804.7c204.66,0 363.84,-67.7 477.54,-203.1 113.7,-135.41 170.55,-317.84 170.55,-547.31 0,-225.33 -56.85,-406.73 -170.55,-544.2 -113.7,-137.47 -272.88,-206.21 -477.54,-206.21l-384.5 0 0 1500.82 384.5 0zm2130.4 347.3c-297.69,0 -526.12,-77 -685.29,-231.01 -159.18,-154.01 -238.77,-363.32 -238.77,-627.93l0 -1293.06 421.72 0 0 1289.96c0,183.99 42.89,321.97 128.68,413.97 85.79,91.99 210.35,137.99 373.66,137.99 161.24,0 284.76,-46 370.55,-137.99 85.79,-92 128.69,-229.98 128.69,-413.97l0 -1289.96 421.72 0 0 1286.86c0,266.67 -79.08,477.53 -237.22,632.58 -158.14,155.04 -386.06,232.56 -683.74,232.56zm1978.45 -896.15l-344.19 0 0 852.74 -421.72 0 0 -2108.59 775.22 0c533.34,0 800.02,202.59 800.02,607.77 0,297.68 -130.24,488.9 -390.71,573.66l635.68 927.16 -486.84 0 -567.46 -852.74zm-344.19 -300.78l353.5 0c130.23,0 225.84,-26.88 286.83,-80.63 60.98,-53.74 91.47,-135.4 91.47,-244.96 0,-219.13 -126.1,-328.7 -378.3,-328.7l-353.5 0 0 654.29zm2415.67 1196.93c-231.53,0 -428.95,-49.09 -592.27,-147.29 -163.31,-98.19 -286.83,-230.5 -370.55,-396.91 -83.72,-166.41 -125.59,-349.88 -125.59,-550.4 0,-202.6 41.35,-386.58 124.04,-551.96 82.69,-165.38 206.21,-297.17 370.55,-395.36 164.35,-98.19 362.29,-147.29 593.82,-147.29 229.46,0 426.37,49.1 590.71,147.29 164.35,98.19 288.39,229.98 372.11,395.36 83.72,165.38 125.58,348.33 125.58,548.85 0,202.59 -41.86,387.1 -125.58,553.51 -83.72,166.41 -207.24,298.72 -370.56,396.91 -163.31,98.2 -360.73,147.29 -592.26,147.29zm3.1 -310.08c138.51,0 257.89,-34.11 358.15,-102.33 100.26,-68.22 176.75,-161.77 229.46,-280.63 52.72,-118.87 79.08,-253.76 79.08,-404.67 0,-148.84 -26.36,-282.17 -79.08,-400.01 -52.71,-117.83 -129.2,-210.86 -229.46,-279.08 -100.26,-68.22 -219.64,-102.32 -358.15,-102.32 -140.57,0 -260.99,34.1 -361.25,102.32 -100.26,68.22 -176.23,161.25 -227.92,279.08 -51.68,117.84 -77.52,251.17 -77.52,400.01 0,150.91 25.84,285.8 77.52,404.67 51.69,118.86 127.66,212.41 227.92,280.63 100.26,68.22 220.68,102.33 361.25,102.33z"/>
  <path class="fil8" d="M5785.77 11000.94l0 2108.59 -412.42 0 0 -648.08 27.91 -809.33 -542.66 862.04 -310.08 0 -548.86 -874.44 34.11 821.73 0 648.08 -412.41 0 0 -2108.59 390.71 0 691.49 1082.2 691.5 -1082.2 390.71 0zm1451.29 1538.03l-781.41 0 -198.46 570.56 -424.82 0 812.43 -2136.5 403.11 0 815.53 2136.5 -427.92 0 -198.46 -570.56zm-105.43 -297.68l-285.28 -824.83 -288.38 824.83 573.66 0zm1745.89 908.55c-243.94,0 -450.14,-50.13 -618.63,-150.39 -168.48,-100.26 -294.58,-233.6 -378.3,-400.01 -83.72,-166.42 -125.59,-348.85 -125.59,-547.31 0,-196.39 43.93,-377.27 131.79,-542.65 87.86,-165.38 218.61,-297.68 392.26,-396.91 173.65,-99.23 383.47,-148.84 629.48,-148.84 130.23,0 252.72,17.57 367.45,52.71 114.73,35.15 213.44,83.73 296.13,145.74l-111.63 288.38c-70.28,-51.68 -152.46,-94.06 -246.52,-127.13 -94.06,-33.08 -195.87,-49.61 -305.43,-49.61 -152.98,0 -284.77,34.1 -395.36,102.32 -110.6,68.22 -194.33,161.77 -251.17,280.63 -56.85,118.87 -85.28,251.69 -85.28,398.46 0,150.91 26.88,285.8 80.62,404.67 53.75,118.86 133.34,212.41 238.77,280.63 105.43,68.22 232.57,102.33 381.41,102.33 119.9,0 231.53,-20.16 334.89,-60.47 103.36,-40.31 194.32,-90.44 272.88,-150.39l105.43 282.18c-88.89,68.21 -195.36,124.55 -319.39,168.99 -124.04,44.45 -255.31,66.67 -393.81,66.67zm868.34 -2148.9l421.72 0 0 2108.59 -421.72 0 0 -2108.59zm2440.47 1804.7l0 303.89 -1820.21 0 0 -232.57 1252.75 -1572.14 -1212.44 0 0 -303.88 1736.49 0 0 257.37 -1246.55 1547.33 1289.96 0zm1066.8 347.3c-231.53,0 -428.95,-49.09 -592.27,-147.29 -163.31,-98.19 -286.83,-230.5 -370.55,-396.91 -83.72,-166.41 -125.59,-349.88 -125.59,-550.4 0,-202.6 41.35,-386.58 124.04,-551.96 82.69,-165.38 206.21,-297.17 370.55,-395.36 164.35,-98.19 362.29,-147.29 593.82,-147.29 229.46,0 426.37,49.1 590.71,147.29 164.35,98.19 288.39,229.98 372.11,395.36 83.72,165.38 125.58,348.33 125.58,548.85 0,202.59 -41.86,387.1 -125.58,553.51 -83.72,166.41 -207.24,298.72 -370.56,396.91 -163.31,98.2 -360.73,147.29 -592.26,147.29zm3.1 -310.08c138.51,0 257.89,-34.11 358.15,-102.33 100.26,-68.22 176.75,-161.77 229.46,-280.63 52.72,-118.87 79.08,-253.76 79.08,-404.67 0,-148.84 -26.36,-282.17 -79.08,-400.01 -52.71,-117.83 -129.2,-210.86 -229.46,-279.08 -100.26,-68.22 -219.64,-102.32 -358.15,-102.32 -140.57,0 -260.99,34.1 -361.25,102.32 -100.26,68.22 -176.23,161.25 -227.92,279.08 -51.68,117.84 -77.52,251.17 -77.52,400.01 0,150.91 25.84,285.8 77.52,404.67 51.69,118.86 127.66,212.41 227.92,280.63 100.26,68.22 220.68,102.33 361.25,102.33z"/>
 </g>
</svg>
