<!-- Generated by IcoMoon.io -->
<svg version="1.1" xmlns="http://www.w3.org/2000/svg" width="32" height="32" viewBox="0 0 32 32">
<title>dick-vector</title>
<path fill="#959799" d="M7.361 27.954c0.692 1.467 3.548 2.165 5.343 2.152 1.507-0.011 1.819-0.324 3.043-0.69 0.853-0.256 1.971 0.3 2.897 0.417 3.506 0.445 8.064-1.164 7.087-5.431-0.056-0.243-0.121-0.456-0.199-0.669l-0.352-0.59c0.208 1.153 0.557 1.741 0.147 3.056-0.259 0.829-0.884 1.565-1.443 1.951-1.325 0.913-3.66 1.421-5.598 1.176-0.927-0.117-2.031-0.661-2.865-0.423-1.025 0.294-1.448 0.636-2.713 0.686-2.427 0.096-3.873-0.5-5.346-1.633z"></path>
<path fill="#959799" d="M17.040 20.345c0.984-0.782 1.246-1.408 3.301-1.557 0.013-1.219-0.147-2.778-0.2-4.053l-0.257-3.481c-0.156-0.471 0.092-0.222-0.332-0.301l0.43 7.329c-1.74 0.125-3.088 0.955-3.568 2.101 0.393-0.062 0.425-0.17 0.627-0.037z"></path>
<path fill="#959799" d="M16.381 8.784c0.49 1.209 4.071 1.813 4.262 0.030 0.068-0.633-0.277-2.143-0.405-2.766-0.156-0.76-0.322-1.974-0.909-2.325 0.393 0.67 1.073 3.745 0.95 4.612-0.243 1.7-2.794 0.993-3.898 0.449z"></path>
<path fill="#959799" d="M11.111 9.236c0.233 0.454 0.486 0.632 1.124 0.722 0.555 0.078 1.146 0.002 1.672-0.126 1.717-0.418 1.108-0.976 1.922-1.862l-0.299-0.489c-0.779 0.429-0.089 1.237-1.648 1.747-1.095 0.358-1.775 0.291-2.771 0.008z"></path>
<path fill="#959799" d="M14.273 19.524c-0.31-0.773-1.534-1.098-2.701-1.19l0.053 0.476c1.214 0.095 1.739 0.22 2.648 0.714z"></path>
<path fill="#959799" d="M15.64 4.337c0.009-0.427 0.074-0.813 0.084-1.234 0.013-0.617-0.020-0.852-0.442-1.055 0.223 0.72-0.096 1.435 0.033 2.219l0.325 0.070z"></path>
<path fill="#040404" d="M19.552 10.953c0.423 0.080 0.176-0.17 0.332 0.301l0.257 3.481c0.054 1.275 0.213 2.834 0.2 4.053-2.055 0.149-2.316 0.774-3.301 1.557l-0.283 0.536c1.905-0.345 2.857-1.397 5.11-0.664 1.419 0.462 2.964 1.681 3.313 2.925l0.352 0.59c0.077 0.213 0.143 0.427 0.199 0.669 0.978 4.267-3.581 5.876-7.087 5.431-0.927-0.117-2.044-0.673-2.897-0.417-1.223 0.366-1.536 0.679-3.043 0.69-1.794 0.013-4.65-0.686-5.343-2.152-0.298-0.168-0.702-0.897-0.869-1.378-0.21-0.605-0.295-1.29-0.217-1.98 0.266-2.355 2.525-4.414 4.776-4.647 1.842-0.19 2.659 0.529 4.037 0.689-0.18-0.341-0.585-0.905-0.814-1.115-0.909-0.494-1.434-0.619-2.648-0.714l-0.053-0.476c-0.104-2.381 0.171-4.965 0.3-7.351 0.718-0.216 1.547-0.084 2.289-0.204 0.982-0.159 1.131-0.527 1.765-0.779 0.265 0.274 1.021 0.707 1.475 0.819 0.615 0.151 1.474 0.073 2.152 0.135zM19.329 3.724c0.586 0.351 0.753 1.565 0.909 2.325 0.128 0.623 0.473 2.133 0.405 2.766-0.191 1.783-3.772 1.179-4.262-0.030-0.276-0.396-0.174-0.44-0.552-0.814-0.814 0.886-0.204 1.444-1.922 1.862-0.526 0.128-1.117 0.204-1.672 0.126-0.639-0.090-0.891-0.267-1.124-0.722-0.131-0.707 0.672-3.962 0.965-4.723 0.274-0.714 0.726-1.307 1.217-1.689 0.417-0.324 1.294-0.85 1.989-0.775 0.421 0.204 0.455 0.438 0.442 1.055-0.009 0.421-0.074 0.807-0.084 1.234l0.027 0.424c0.245 0.113 0.525 0.123 0.76-0.163 0.457-0.555 0.178-1.939 0.084-2.563 1.176 0.002 2.67 0.917 2.818 1.688zM10.617 18.716c-0.428 0.364-1.6 0.829-2.169 1.176-0.789 0.482-1.275 0.953-1.754 1.543-0.883 1.087-1.862 3.288-1.192 5.066 0.379 1.007 0.446 1.472 1.040 2.254 1.342 1.765 1.863 1.472 3.070 1.873 0.65 0.216 0.534 0.311 1.342 0.309 0.819-0.002 2.56 0.118 3.215-0.091 3.893-1.243 7.883 1.38 11.172-1.528 1.089-0.964 1.571-3.193 1.165-5.104-0.391-1.835-1.527-3.232-2.613-3.988-2.085-1.453-2.689-0.312-2.946-3.738-0.102-1.356-0.329-5.255 0.042-6.36s0.644-1.314 0.482-2.713c-0.169-1.471-0.798-3.812-1.732-4.848-0.606-0.672-1.105-0.807-2.070-1.228-1.090-0.474-1.646-0.167-2.925-0.059-1.033 0.086-1.715 0.515-2.257 1.025-1.47 1.381-1.234 2.483-1.853 4.741-0.238 0.869-0.718 1.748-0.279 2.67 0.181 0.379 0.448 0.634 0.568 1.086 0.088 0.334-0.27 7.211-0.305 7.914z"></path>
</svg>
