<!-- Generated by IcoMoon.io -->
<svg version="1.1" xmlns="http://www.w3.org/2000/svg" width="32" height="32" viewBox="0 0 32 32">
<title>doble-monitor</title>
<path d="M23.054 19.756c2.974-0.005 5.242-0.020 5.451-0.054 0.756-0.123 1.267-0.596 1.557-1.083 0.4-0.673 0.298-1.487 0.298-2.332v-10.547c0.001-0.877-0.122-1.553-0.586-2.043-0.431-0.455-0.92-0.813-1.827-0.828-5.101-0.086-10.634 0-15.817 0-0.855 0-4.666-0.063-5.202 0.061-1.927 0.446-1.894 2.042-1.894 3.402v4.312h1.262c-0.018-2.483-0.015-5.59 0.158-5.897 0.438-0.777 1.37-0.58 2.393-0.58h17.754c3.035 0 2.474-0.208 2.474 6.417 0 0.877 0.055 5.369-0.019 5.842h-6.002v3.331zM23.054 24.477h1.88c0.709 0.002 1.061-0.332 0.865-0.872-0.185-0.507-0.753-0.413-1.35-0.413-0.456 0-0.925 0.006-1.395 0.011v1.273z"></path>
<path d="M11.742 23.483c0.704-0.294 0.988 0.716 0.417 0.952-0.645 0.264-1.036-0.694-0.417-0.952zM2.692 22.606c-0.085-0.542-0.016-1.778-0.016-2.393 0-1.19-0.102-6.75 0.111-7.127 0.357-0.633 1.117-0.473 1.951-0.473h14.473c2.474 0 2.017-0.17 2.017 5.231 0 0.715 0.045 4.377-0.016 4.762h-18.519zM3.173 11.605c-1.571 0.363-1.544 1.664-1.544 2.773v8.598c0 0.79 0.037 1.197 0.443 1.701 0.299 0.371 0.827 0.624 1.525 0.625 0.439 0.001 16.643 0.059 17.165-0.025 0.616-0.1 1.033-0.486 1.269-0.883 0.326-0.549 0.243-1.212 0.243-1.901v-8.598c0.001-0.715-0.099-1.265-0.478-1.665-0.351-0.371-0.75-0.663-1.49-0.675-4.159-0.071-8.669 0-12.894 0-0.697 0-3.804-0.052-4.24 0.049zM9.389 28.118c-0.968 0.041-2.009 0.006-2.985 0.006-0.486 0-0.976-0.065-1.076 0.404-0.112 0.522 0.33 0.645 0.769 0.643h11.754c0.578 0.002 0.865-0.271 0.705-0.71-0.15-0.413-0.613-0.337-1.1-0.337-0.962 0-1.987 0.034-2.941-0.006l-0.019-2.582-5.104 0.005-0.002 2.577z"></path>
</svg>
