<!-- Generated by IcoMoon.io -->
<svg version="1.1" xmlns="http://www.w3.org/2000/svg" width="32" height="32" viewBox="0 0 32 32">
<title>donaciones</title>
<path d="M7.91 12.559c0.107-0.202 0.368-0.579 0.423-0.785-0.078-0.117-0.164-0.214-0.259-0.345-0.068-0.091-0.058-0.081-0.124-0.178-0.079-0.116-0.013-0.041-0.1-0.141-0.047 0.202-0.095 0.253-0.192 0.412-0.078 0.128-0.114 0.21-0.195 0.348l-2.773 4.955c-0.34 0.656-0.038 0.577 0.818 1.096 0.467 0.282 0.923 0.503 1.389 0.785 1.025 0.62 2.533 1.37 3.562 1.992 1.895 1.146 4.396 2.426 6.385 3.576 0.447 0.259 0.928 0.543 1.392 0.782 2.831 1.462 2.866 2.069 3.415 1.122l3.599-6.423c1.087-1.799 1.021-1.718 0.211-2.166l-6.341-3.56c-0.482-0.263-0.921-0.5-1.393-0.78-0.337-0.2-2.673-1.535-2.873-1.535l-1.509 0.785c-1.441 0.645-2.475 0.35-2.818 0.389-0.138 0.015-0.256 0.066-0.392 0.085-0.852 0.116-1.554-0.058-2.224-0.413zM16.552 31.456h-1.168c-1.081-0.040-2.16-0.191-3.213-0.458-2.799-0.711-4.559-1.849-6.659-3.605-1.63-1.362-3.357-4.084-4.086-6.177-0.755-2.165-0.882-3.428-0.882-5.759 0-2.928 1.266-6.284 2.828-8.402 0.543-0.735 1.042-1.355 1.685-1.998 2.604-2.604 6.547-4.513 10.4-4.513h1.086c2.799 0 6.188 1.185 8.401 2.828 2.594 1.925 4.528 4.253 5.629 7.412 0.754 2.165 0.883 3.428 0.883 5.759 0 2.925-1.264 6.282-2.828 8.402-1.151 1.561-2.137 2.565-3.717 3.708-2.381 1.723-5.344 2.691-8.358 2.803zM14.43 6.462c-0.92 0-1.392 0.373-1.967 0.749l-1.643 1.074c-0.541 0.338-1.865 0.979-2.161 1.461-0.761 1.239 1.152 2.451 2.572 2.451 1.798 0 3.461-1.5 3.915-1.323l3.772 2.148c0.696 0.373 3.372 1.952 3.904 1.952 0.919 0 2.208-0.505 2.947-0.978 0.602-0.385 1.702-1.394 1.702-2.041 0-0.44-1.36-2.265-1.752-2.776-0.116-0.151-0.208-0.281-0.334-0.45-0.462-0.616-2.928-3.354-3.408-3.354-0.693 0-2.702 1.592-3.202 1.622-0.376 0.022-3.414-0.535-4.345-0.535z"></path>
<path d="M15.336 19.985c-0.263 0-0.472-0.1-0.724-0.12 0.074-0.317 0.296-0.596 0.443-0.885 0.126-0.249 0.32-0.669 0.523-0.805 1.188 0.795 0.333 1.811-0.241 1.811zM15.336 16.906c-0.383-0.089-0.785-0.627-0.785-0.966 0-0.257 0.38-0.604 0.785-0.604 0.346 0 0.432 0.096 0.724 0.121-0.092 0.392-0.636 1.067-0.724 1.449zM16.483 14.793c-1.386-0.665-2.717 0.159-2.717 1.026 0 0.474 0.017 0.724 0.412 1.218 0.177 0.22 0.445 0.439 0.675 0.593-0.052 0.222-0.107 0.268-0.215 0.448l-0.474 0.854c-0.109 0.18-0.164 0.227-0.216 0.448-0.267-0.071-0.724-0.536-0.724-0.966 0-0.282 0.116-0.365 0.102-0.538-0.025-0.338-0.888-0.911-0.888 0.719 0 0.762 0.725 1.119 1.027 1.57-0.071 0.133-0.182 0.294-0.182 0.483 0 0.062 0.385 0.864 0.906-0.121 2.030 0.974 3.847-1.231 2.129-2.793-0.19-0.172-0.222-0.114-0.378-0.346 0.157-0.297 0.73-1.212 0.785-1.449 0.454 0.121 0.604 0.732 0.604 1.147 0 0.202-0.321 0.845 0.302 0.845 0.668 0 0.637-1.188 0.243-1.934-0.125-0.236-0.397-0.651-0.666-0.723 0.025-0.296 0.181-0.364 0.181-0.543 0-0.205-0.218-0.423-0.423-0.423-0.298 0-0.38 0.289-0.483 0.483z"></path>
<path d="M17.992 24.090c0.514 0.272 1.017 0.556 1.512 0.842l1.507 0.848c0.308-0.46 0.558-1.004 0.857-1.498 0.143-0.236 0.285-0.503 0.411-0.736 0.143-0.262 0.279-0.513 0.423-0.785-0.69-0.462-1.869-0.589-2.802-0.266-0.453 0.157-0.789 0.36-1.11 0.641-0.403 0.352-0.484 0.486-0.798 0.954z"></path>
<path d="M21.735 18.295c0 0.69 0.273 1.435 0.554 1.861 0.353 0.536 0.703 0.864 1.257 1.158l1.248-2.254c0.133-0.263 0.357-0.515 0.383-0.825-0.182-0.042-0.228-0.078-0.375-0.169l-2.644-1.461c-0.061 0.258-0.196 0.466-0.279 0.748-0.076 0.261-0.144 0.639-0.144 0.943z"></path>
<path d="M5.434 17.027c0.465 0.311 1.003 0.556 1.498 0.857l1.52 0.833c0.113-0.484 0.423-0.551 0.423-1.811 0-1.229-1.014-2.685-1.811-2.898-0.042 0.182-0.078 0.229-0.169 0.375l-1.461 2.644z"></path>
</svg>
