<!-- Generated by IcoMoon.io -->
<svg version="1.1" xmlns="http://www.w3.org/2000/svg" width="32" height="32" viewBox="0 0 32 32">
<title>drag-rupaul</title>
<path fill="#010101" d="M12.297 18.881c0.178 0.416 0.451 0.675 0.543 0.899 0.58 0.194 0.963 0.422 1.746 0.297 0.652-0.104 0.91-0.456 1.247-0.732 0.069-0.115 0.141-0.261 0.208-0.454 0.009-0.495-0.965-2.039-1.841-0.876l-0.218-0.261c-0.624-0.628-1.772 0.415-1.685 1.128z"></path>
<path fill="#010101" d="M15.308 26.356c0.268-0.198 0.886-0.214 1.227-0.322 0.504-0.16 0.724-0.397 1.191-0.129 2.011 1.156 4.82-0.215 5.528 0.892 0.407 0.635 0.49 1.947 0.447 2.811l-19.891 0.005c-0.114-1.048 0.062-2.741 0.733-3.141 0.655-0.389 3.955 0.080 5.105-0.233 0.389-0.106 0.844-0.415 1.006-0.451 0.195-0.044 1.728 0.422 2.267 0.475-0.001 0.068-0.57 2.018 1.187 2.019 0.556 0.001 0.915-0.287 1.116-0.647 0.195-0.35 0.117-1.198 0.086-1.279zM11.97 21.92c0.852 0.336 0.959 0.546 2.138 0.537 1.181-0.009 1.318-0.268 2.13-0.593l0.45 2.805c-0.865 0.266-1.615 0.389-2.58 0.393-1.206 0.006-1.632-0.221-2.634-0.391 0.039-0.775 0.186-2.178 0.497-2.751zM10.203 10.629c1.152-2.161 4.871-2.049 6.415-1.279 0.49 0.245 1.343 0.921 1.315 1.476-0.87 0.051-1.396 0.094-2.003 0.522-0.359 0.253-1.024 0.896-1.132 1.365 0.893-0.268 2.402-0.934 3.528-0.565 0.377 0.229 0.27 1.486 0.278 1.882-0.501-0.175-1.095-0.621-1.661-0.596-0.316 0.015-0.538 0.088-0.822 0.235l-0.667 0.446c1.569 0.771 1.658 0.653 3.155-0.064 0.027 2.551-0.087 3.667-1.45 5.036-1.163 1.169-2.13 2.673-4.069 1.944-0.753-0.283-2.609-2.383-3.079-3.238-0.614-1.117-0.491-2.832-0.468-4.289 0.009-0.556-0.039-1.050 0.258-1.311 0.669-0.589 3.167 0.42 3.538 0.513-0.171-0.75-1.444-1.854-2.534-1.814l-0.636-0.051c-0.145-0.409-0.045-0.073 0.035-0.212zM12.164 7.775l-1.457 0.482c-0.687 0.488-1.63 1.315-1.845 2.239h-0.194c-0.073-0.88-0.486-1.391-0.389-3.302l0.103-0.771c0.006-0.027 0.011-0.054 0.017-0.080l0.074-0.216v-0.194l0.085-0.097 0.011-0.194c0.398-0.742 0.463-1.045 1.092-1.628 0.382-0.355 1.176-0.823 1.725-1.019 0.255-0.132 0.313-0.152 0.68-0.197 0.365-0.242 1.306-0.311 1.85-0.356 0.933-0.076 1.413 0.048 2.131 0.228l0.486 0.129c0.411 0.148 0.562 0.205 0.777 0.513 0.319 0.459 0.103 0.358 0.813 0.45 0.759 0.098 1.587 0.095 2.101 0.382l0.68 0.203c1.113 0.44 1.637 0.948 2.404 1.708 0.364 0.36 0.64 0.68 0.918 1.121 0.216 0.344 0.623 0.937 0.66 1.38 0.236 0.218 0.213 0.301 0.29 0.68 0.617 1.26 0.58 3.318 0.289 4.754l-0.19 0.587v0.194l-0.027 0.097-0.050 0.194c-0.040 0.381-0.089 0.342-0.117 0.68v0.777c0.223 0.468 0.169 0.697 0.619 1.031 0.344 0.256 0.649 0.4 0.994 0.659 0.502 0.376 1.343 1.191 1.398 1.934 0.15 0.219 0.093 0.125 0.098 0.454 0.507 0.803-1.072 2.812-1.165 3.987-0.072 0.889 0.781 2.629 1.165 4.268v0.388c-0.001 0.46 0.002 0.184-0.098 0.292l-3.010-0.001c0-0.672-0.037-0.996-0.096-1.555-0.064-0.611-0.256-0.885-0.293-1.394-0.219-0.21-0.247-0.381-0.408-0.625-0.145-0.222-0.396-0.448-0.526-0.601-0.38 0-0.155 0.028-0.231-0.097l-0.481-0.195-0.781-0.004-0.68-0.007-0.777 0.012-1.36-0.001c-1.089-0.018-1.514-0.309-1.553-1.359l-0.441-2.488c-0.111-0.727 0.049-0.441 1.090-1.719 0.151-0.186 0.298-0.379 0.419-0.552 0.077-0.11 0.119-0.186 0.19-0.296l0.198-0.287 0.168-0.475 0.609 0.078c0.581-0.47 0.726-1.137-0.194-1.352 0-0.906-0.004-1.814 0.001-2.72 0.007-1.31-0.21-1.563-0.313-2.524l-0.175-0.68c-0.121-0.14-0.035-0.004-0.15-0.238-0.171-0.345-0.199-0.515-0.515-0.942-0.544-0.737-0.671-0.632-0.888-0.957-0.651-0.345-0.458-0.329-1.179-0.569l-0.348-0.137c-0.017-0.009-0.049-0.028-0.062-0.035s-0.042-0.022-0.061-0.035l-0.486-0.071-0.68-0.103-2.233-0.022-0.294 0.095c-0.252 0.065-0.117-0.027-0.385 0.098zM12.262 1.27l-1.57 0.485c-0.211 0.23-0.274 0.19-0.568 0.291-0.417 0.361-1.041 0.515-1.804 1.497l-0.53 0.64-0.341 0.777c-0.223 0.497-0.322 0.805-0.421 1.36l-0.057 2.234c0.071 0.395 0.117 1.053 0.218 1.479 0.088 0.373 0.275 1.052 0.41 1.337l0.195 0.777c0.052 0.073 0.046 0.050 0.104 0.187 0.343 0.818 0.382 3.492 0.382 4.28-0.427 0.1-0.58 0.151-0.68 0.583 0.032 0.652 0.222 0.765 0.874 0.768 0.082-0.124 0.019-0.119 0.097 0.009l0.389 0.722c0.27 0.194 0.199 0.147 0.289 0.444l1.381 1.54c0.176 0.358 0.055 0.57-0.018 0.888l-0.096 0.777-0.487 2.137c-0.215 0.321-0.304 0.413-0.777 0.517l-0.68 0.066h-3.69l-0.68 0.109c-1.464 0.853-0.89 0.888-1.456 1.541l-0.093 0.582-0.102 0.097c0 0.451-0.060 1.234-0.124 1.721-0.070 0.529-0.070 1.105-0.070 1.775h27.29l-0.001-0.582-0.040-0.777c0.029-0.321-0.049-0.317-0.057-0.68v-0.291l-1.157-3.604c-0.025-0.344 0.145-0.98 0.38-1.251l0.257-0.68c0.406-0.545 0.445-1.174 0.61-1.457l0.007-0.777c-0.137-0.287-0.097-0.272-0.097-0.68l-0.061-0.133c-0.222-0.573-0.179-0.677-0.549-1.296-1.348-2.253-2.996-1.556-2.387-3.414l0.084-0.207c0.009-0.421 0.137-0.71 0.22-1.14 0.435-2.252 0.036-2.6-0.034-3.911l-0.182-0.777c-0.122-0.242-0.464-1.155-0.49-1.459-0.247-0.219-0.268-0.38-0.453-0.711-0.157-0.283-0.274-0.438-0.384-0.744-0.976-1.061-1.719-2.295-3.572-3.068-0.509-0.212-1.194-0.368-1.612-0.601l-0.68-0.086c-0.215-0.048-0.273-0.082-0.416-0.103-0.197-0.029-0.376-0.007-0.546-0.037-0.323-0.056-0.434-0.236-0.593-0.478l-0.674-0.385-1.462-0.388c-0.655-0.030-1.121-0.084-1.839-0.054-0.581 0.023-1.099 0.151-1.657 0.152z"></path>
<path fill="#010101" d="M12.65 14.089c-0.521-0.648-1.696-0.887-2.739-0.221l-0.23 0.186c-0.009-0.018-0.037 0.036-0.054 0.056 1.13 0.582 1.853 0.818 3.023-0.021z"></path>
<path fill="#010101" d="M14.106 17.766c0 0 0 0 0 0z"></path>
<path fill="#888" d="M10.805 10.892c-0.227-0.14-0.062-0.024-0.293-0.109l-0.24-0.104c-0.019-0.010-0.046-0.033-0.069-0.050-0.080 0.139-0.18-0.198-0.035 0.212l0.636 0.051z"></path>
</svg>
