<?xml version="1.0" encoding="UTF-8"?>
<!DOCTYPE svg PUBLIC "-//W3C//DTD SVG 1.1//EN" "http://www.w3.org/Graphics/SVG/1.1/DTD/svg11.dtd">
<!-- Creator: CorelDRAW 2017 -->
<svg xmlns="http://www.w3.org/2000/svg" xml:space="preserve" width="22.6058mm" height="7.7046mm" version="1.1" style="shape-rendering:geometricPrecision; text-rendering:geometricPrecision; image-rendering:optimizeQuality; fill-rule:evenodd; clip-rule:evenodd"
viewBox="0 0 2260.58 770.46"
 xmlns:xlink="http://www.w3.org/1999/xlink">
 <defs>
  <style type="text/css">
   <![CDATA[
    .fil2 {fill:#FEFEFE}
    .fil0 {fill:#373435}
    .fil3 {fill:#3E4095}
    .fil1 {fill:#FEFEFE}
   ]]>
  </style>
 </defs>
 <g id="Capa_x0020_1">
  <metadata id="CorelCorpID_0Corel-Layer"/>
  <g id="_2093396819120">
   <path class="fil0" d="M1659.84 247.93l15.83 -151.26 -121.98 28.34 -36.53 191.88c-2.24,-21.58 -0.21,17.13 -0.46,-4.56 -0.33,-28.5 19.96,-154.11 16.34,-180.26l-98.96 17.97c-17.24,4.42 -11.79,9.83 -14.04,30.13l-6.03 -23.41 -116.32 11.21 -7.8 23.73c-117.13,-41.8 -99.6,-8.24 -198.16,-12.24 -23.27,-0.94 -49.43,-3.25 -73,-1.82l-2.88 39.15 -22.13 -38.98 -81.14 -6.57 -7.02 53.53c-10.02,3.79 -16.47,-0.67 -28.18,-4.38 -48.87,-15.49 -76.86,3.21 -106.22,5.25 -33.46,-52.87 -126.34,-78.6 -188.62,-37.22 -23.8,15.83 -25.69,26.02 -44.92,43.85l-23.13 -86.41 -117.73 -22.85c-14.15,-4.45 -87.66,-76.03 -176.69,-55.84l-1.16 29.93c-35.41,-19.4 -98.86,-97.07 -216.95,-82.67 -3.4,13.38 27.43,219.25 33.66,241.46l23.21 2.32 44.03 279.69c45.07,-5.57 63.81,-24.61 95.02,-37.43l0.33 31.28 124.32 1.44 6.25 -16.09 13.99 30.33 129.93 -40.43 5.74 25.56c18.42,1.42 57.99,-7.04 78.56,-10.33 50.55,-8.1 36.29,3.7 76.24,8.99 60.94,8.06 101.08,-19.37 128.34,-48.43 53.6,15.74 33.76,22.05 110.83,14.55l-2.53 32.38 127.83 1.07c14.21,-5.2 2.68,-0.23 7.63,-6.04l4.97 -7.25c0.46,-0.67 0.97,-1.92 1.68,-2.73 4.09,12.73 0.67,11.64 12.59,15.62l94.85 -0.05 3.09 -194.5 23.47 189.99c0.83,0.23 1.98,0.78 3.02,1.02 19.13,4.46 75.23,-1.65 93.8,-3.53 33.63,-3.4 74.58,11.8 104.17,6.34 2.22,-7.67 1.78,-11.99 2.99,-19.7l6.89 -18.52c3.41,45.77 -12.43,37.51 120.85,21.27l-1.97 -24.89 15.63 -3.24 -5.31 39.52 165.03 0.67c4.05,30.58 -22.32,71.54 0.48,96.85 9.28,10.29 25.21,15.13 44.7,12.99 27.78,-3.04 18.63,-16.94 46.31,-0.58l37.93 0.61 268.88 0.92 -16.04 -45.19c7.47,-27.17 10.98,-22.23 2.52,-62.86l-34.06 -29.17 135.81 -214.08 -18.48 -88.67 -52.31 -12.37 -98.86 75.18 38.71 -167.09 -79.47 -89.94 -66.68 20.35 -73.48 91.1 5.89 114.25 -56.56 -43.63 -76.54 64.49zm43.61 265.5c-43.14,4.79 -38.92,44.59 -43.63,57.07 -21.49,56.93 35.71,67.59 65.75,36.55 13.17,7.31 10.08,12.1 31.71,16.58l30.25 -5.38c9.63,-0.54 12.39,9.17 51,3.56l31.83 0.78 155.75 0.96 -9.08 -35.15c5.9,-14.3 18.67,-29.59 5.94,-56.1 -9.9,-20.61 -41.39,-16.69 -64.76,-16.74 -23.3,-0.05 -144.66,2.82 -156.11,-2.49l-98.65 0.36zm11.58 89.79c-3.84,1.45 -7.49,2.56 -10.98,3.28 -3.49,0.72 -6.8,1.07 -9.94,1.05 -8.31,-0.05 -14.26,-3.27 -17.93,-9.61 -1.83,-3.18 -3.17,-7.21 -3.92,-12.09 -0.75,-4.88 -0.9,-10.63 -0.58,-17.21 0.32,-6.3 1.03,-11.75 2.25,-16.3 1.22,-4.55 2.93,-8.24 5.07,-11.07 4.26,-5.64 10.82,-8.47 19.75,-8.43 3.25,0.01 6.52,0.35 9.77,1.01 3.25,0.66 6.55,1.66 9.81,2.98 -0.2,4.02 -0.4,8.05 -0.6,12.06 -0.2,4.01 -0.4,8.04 -0.6,12.06 -2.88,-0.55 -5.47,-0.98 -7.67,-1.26 -2.25,-0.28 -4.16,-0.41 -5.8,-0.42 -3.86,-0.02 -6.61,0.86 -8.28,2.62 -1.65,1.77 -2.56,4.79 -2.77,9.07 -0.22,4.43 0.42,7.67 1.98,9.72 1.55,2.03 4.16,3.08 7.78,3.09 1.99,0.01 4.09,-0.19 6.4,-0.62 2.25,-0.42 4.71,-1.06 7.35,-1.88 -0.18,3.66 -0.36,7.33 -0.54,10.98 -0.18,3.65 -0.37,7.3 -0.55,10.97zm29.26 -35.17c1.37,0 2.77,0.02 4.14,0.02 3.18,0.01 5.41,-0.58 6.76,-1.77 1.32,-1.18 2.05,-3.21 2.19,-6.04 0.11,-2.42 -0.36,-4.13 -1.43,-5.12 -1.05,-0.97 -3.15,-1.48 -6.26,-1.49 -1.53,0 -3.11,-0.01 -4.68,-0.02 -0.24,4.81 -0.48,9.62 -0.72,14.42zm-21.76 37.67c0.59,-11.81 1.18,-23.63 1.77,-35.43 0.59,-11.81 1.17,-23.63 1.76,-35.44 11.67,0.05 23.44,0.09 35.14,0.13 6.05,0.02 10.42,1.64 13.07,4.83 2.64,3.19 3.83,8.24 3.49,15.09 -0.34,6.72 -1.82,11.87 -4.39,15.41 -2.6,3.57 -6.27,5.5 -11.01,5.82 2.53,5 5.04,9.99 7.55,14.96 2.5,4.99 5.08,9.97 7.6,14.95 -7.77,-0.05 -15.53,-0.09 -23.29,-0.13 -2.37,-5.49 -4.75,-10.96 -7.06,-16.47 -0.68,-1.64 -1.27,-3.35 -1.83,-5.07 -0.57,-1.73 -1.06,-3.51 -1.52,-5.35 -0.17,0 -0.3,0 -0.44,0 0.05,1.65 0.05,3.4 0.01,5.27 -0.04,1.87 -0.13,4.56 -0.3,8.08 -0.22,4.49 -0.44,8.97 -0.67,13.47 -6.64,-0.04 -13.24,-0.08 -19.88,-0.12zm60.21 0.35c0.59,-11.83 1.18,-23.66 1.77,-35.49 0.58,-11.83 1.18,-23.67 1.76,-35.5 6.81,0.02 13.65,0.04 20.46,0.07 -0.59,11.85 -1.17,23.69 -1.77,35.52 -0.58,11.84 -1.17,23.69 -1.76,35.52 -6.8,-0.04 -13.65,-0.07 -20.46,-0.12zm30.03 -0.89c0.3,-6.05 0.6,-12.1 0.9,-18.15 3.41,0.73 6.54,1.28 9.46,1.64 2.93,0.36 5.59,0.55 7.98,0.56 2.6,0.01 4.36,-0.31 5.35,-0.97 0.96,-0.63 1.5,-1.8 1.58,-3.48 0.15,-2.93 -2.07,-4.5 -6.69,-4.62 -2.01,-0.06 -3.59,-0.11 -4.77,-0.21 -3.04,-0.27 -5.27,-0.76 -6.71,-1.48 -1.42,-0.73 -2.65,-1.81 -3.63,-3.29 -1.18,-1.77 -2,-4.11 -2.53,-7 -0.51,-2.89 -0.64,-6.25 -0.45,-10.11 0.22,-4.46 0.82,-8.27 1.83,-11.44 1.02,-3.18 2.45,-5.72 4.24,-7.62 3.61,-3.8 9.53,-5.7 17.67,-5.67 2.73,0.02 5.8,0.24 9.18,0.63 3.43,0.41 7.47,1.02 12.23,1.88 -0.19,3.6 -0.37,7.22 -0.54,10.81 -0.18,3.6 -0.36,7.21 -0.55,10.81 -3.04,-0.62 -5.72,-1.08 -8.03,-1.36 -2.32,-0.29 -4.37,-0.42 -6.21,-0.43 -4.14,-0.02 -6.86,0.3 -8.09,0.97 -1.23,0.66 -1.92,1.95 -2.01,3.87 -0.07,1.46 0.32,2.53 1.18,3.18 0.82,0.64 2.28,0.97 4.36,0.98 0.92,0 1.89,0.01 2.84,0.01 6.67,0.03 11.2,1.53 13.57,4.53 2.35,2.97 3.35,8.29 2.97,15.94 -0.4,8.22 -2.41,14.15 -5.95,17.76 -3.56,3.64 -9.16,5.43 -16.79,5.39 -2.87,-0.01 -6.17,-0.3 -9.96,-0.82 -3.76,-0.52 -7.86,-1.28 -12.43,-2.31zm62.27 1.44c0.39,-7.91 0.79,-15.81 1.18,-23.71 0.39,-7.9 0.78,-15.81 1.18,-23.72 -4.56,-0.02 -9.11,-0.04 -13.65,-0.07 0.19,-3.95 0.39,-7.91 0.59,-11.86 0.19,-3.96 0.39,-7.93 0.59,-11.9 15.87,0.06 31.81,0.12 47.79,0.18 -0.2,3.97 -0.4,7.95 -0.59,11.91 -0.19,3.96 -0.39,7.93 -0.59,11.89 -4.58,-0.02 -9.14,-0.04 -13.72,-0.06 -0.39,7.91 -0.79,15.83 -1.18,23.74 -0.39,7.9 -0.78,15.82 -1.17,23.72 -6.85,-0.04 -13.65,-0.08 -20.43,-0.12zm31.55 0.18c3.01,-11.86 6.1,-23.73 9.12,-35.59 3.01,-11.86 6.14,-23.74 9.19,-35.63 10.02,0.04 20.05,0.08 30.04,0.12 1.88,11.9 3.77,23.82 5.62,35.72 1.86,11.91 3.78,23.83 5.69,35.74 -7.05,-0.04 -14.06,-0.08 -21.11,-0.13 -0.33,-3.77 -0.66,-7.54 -0.98,-11.33 -4.96,-0.03 -9.89,-0.05 -14.81,-0.08 -0.8,3.77 -1.61,7.54 -2.41,11.31 -6.81,-0.04 -13.58,-0.08 -20.35,-0.13zm36.17 -28.4c-0.72,-5.49 -1.42,-10.99 -2.12,-16.48 -0.35,-2.7 -0.64,-5.33 -0.85,-7.85 -0.21,-2.55 -0.3,-4.93 -0.33,-7.18 -0.2,0 -0.37,0 -0.54,0 -0.34,2.6 -0.75,5.15 -1.2,7.7 -0.45,2.53 -0.99,5.1 -1.59,7.66 -1.26,5.36 -2.48,10.73 -3.7,16.09 3.45,0.02 6.87,0.03 10.33,0.06zm28.18 28.79c0.58,-11.9 1.17,-23.81 1.76,-35.71 0.59,-11.9 1.19,-23.8 1.77,-35.71 6.84,0.02 13.69,0.05 20.57,0.07 -0.41,8.06 -0.81,16.11 -1.2,24.16 -0.41,8.04 -0.81,16.09 -1.2,24.13 6.81,0.04 13.61,0.07 20.46,0.11 -0.19,3.87 -0.39,7.74 -0.58,11.6 -0.18,3.86 -0.38,7.73 -0.57,11.59 -13.72,-0.09 -27.4,-0.16 -41.01,-0.24z"/>
   <path class="fil1" d="M436.44 454.62l7.85 -55.13 36.88 -1.18 17.04 107.15 76.75 -10.01c0.78,-20.83 -59.9,-249.03 -74.65,-308.29 -2.75,-11.01 -1.82,-12.55 -8.25,-18.74 -9.87,-8.91 -63.12,-15.82 -79.92,-16.66 -0.94,27.12 21.66,47.4 23.22,86.16 3.73,92.86 -78.42,100.66 -46.1,154.79 6.65,11.14 14,21.53 21.2,32.57 6.28,9.64 13.03,27.44 25.98,29.34zm-381.28 -222.45l24.02 2.44 43.28 273.41c53.81,-9.94 102.65,-60.01 123.13,-95.65 57.22,-99.58 33.67,-235.28 -62.9,-313.62 -31.51,-25.57 -97.9,-65.25 -154.95,-61.99l27.42 195.41zm168.27 276.21l78.99 5.54 9.1 -89.37c0.85,0.68 1.74,0.83 2,2.12 0.27,1.27 1.37,1.62 1.73,2.12l41.74 90 80.12 -25.45c-4.18,-14.09 -31.2,-52.93 -40.49,-67.67 -8.1,-12.83 -38.55,-58.82 -40.64,-70.52 56.33,-43.67 91.43,-97.31 51.27,-171.89 -23.9,-44.37 -87.42,-101.05 -164.15,-92.77 -5.67,72.1 5.08,51.29 25.9,103.25 14.03,34.99 18.98,71.37 17.18,114.41 -5.6,133.67 -67.9,106.84 -62.75,200.23zm1222.87 -336.23c-4.54,17.17 -14.66,130.65 -13.26,149.41 3.15,42.07 18.55,97.5 24.64,142.16l87.15 -11.12 18.55 -110.54 -74.42 9.95 18.73 -190.09 -61.39 10.23zm-129.55 17.71c-3.22,22.77 -9.46,29.4 -0.54,48.17 25.16,52.94 9.22,100.6 -31.52,134.89 12.81,15.86 27.82,30.19 28.77,62.88 1.15,39.93 -18.2,44.31 -33.96,64.64l43.93 4.82c0.58,-1.32 1.17,-3.74 1.36,-3.24 0.2,0.5 0.98,-2.06 1.23,-2.79l1.88 -5.59c0.26,-0.97 1.73,-10.61 1.85,-11.51l10.52 -75.41 29.94 -1.09 11.6 92.53 51.65 -3.86c6.61,-0.97 2.61,-0.04 8.27,-1.66 6.66,-1.9 4.96,-1.69 7.87,-3.09l-54.99 -306.63 -77.86 6.94zm-193.42 18.72l6.6 98.97 16.84 6.73 15.79 187.06c29.32,10.08 169.67,4.32 134.4,-89.08 -11.19,-29.63 -24.16,-28.12 -38.06,-41.31 71.58,-32.68 66.62,-106.62 38.25,-140.65 -36.18,-43.4 -111.72,-40.22 -173.82,-21.72zm-225.75 297.81l85.84 0.84 9.65 -79.89 40.82 79.19 61.1 -0.25 4.74 -302.32 -59 -2.11 -6.28 109.34 -56.13 -111.03 -46.15 -2.76c-12.06,79.32 -6.61,59.14 10.57,85.14 32.55,49.28 30.46,115.22 -7.08,158.34 -23.33,26.8 -38.45,17.45 -38.08,65.51zm-77.39 -174.02l-49.9 0.95c6.97,13.42 25.57,26.15 34.95,35.85l-19.42 53.06c17.95,-9.76 29.41,-21.73 47.33,-31.32 14.08,5.16 33.88,23.31 47.32,31.07l-12.19 -49.93c13.09,-17.99 25.38,-22.6 34.39,-38.86 -17.4,-0.03 -39.87,4.57 -46.78,-7.47 -7.73,-13.45 -6.12,-29.41 -16.28,-41.54l-19.42 48.19zm-70.23 126.94c-11.88,-17.75 -23.57,-22.98 -35.07,-49.6 -12.57,-29.09 -10.47,-42.59 -10.47,-75.77l-68.03 0.35 -0.57 57.42 42.5 1.76c-1.95,47.38 -100.03,35.32 -80.34,-54.88 4.93,-22.6 23.87,-43.11 43.36,-51.03 38.25,-15.55 51.79,6.18 74.27,14.23 11.22,-15.38 16.58,-27.94 30.67,-40.26 8.53,-7.47 8.01,-4.64 13.83,-13.9 -42.49,-66.52 -155.53,-83.42 -205.07,4 -21.41,37.78 -16.12,41.08 -5.29,84.69 7.06,28.41 14.39,55.4 21.23,83.2 9.73,39.61 10.05,65.71 30.56,76.5 58.97,31.02 131.3,-1.5 148.42,-36.71zm-596.34 -107.37c66.9,-0.51 79.54,-104.1 -17.02,-111.72l17.02 111.72zm171.05 -53.04c19.09,-2.3 28.18,-12.16 30.77,-31.7 2.77,-20.88 -5.91,-31.73 -22.69,-36.36 -8.31,14.98 -7.5,47.25 -8.08,68.06zm126.04 42.88c19.09,-2.3 28.17,-12.16 30.77,-31.7 2.77,-20.89 -5.91,-31.73 -22.69,-36.36 -8.32,14.98 -7.5,47.25 -8.08,68.06zm773.5 -12.71c15.91,-10.78 19.49,-23.7 12.85,-42.26 -7.09,-19.85 -19.76,-25.52 -36.8,-21.97 -0.55,17.13 14.94,45.45 23.95,64.23zm-1.25 118.44c17.33,-8.33 22.76,-20.58 18.92,-39.92 -4.09,-20.67 -15.8,-28.14 -33.18,-27.12 -3.05,16.86 8.1,47.14 14.26,67.04zm119.84 -93.84c19.09,-2.3 28.17,-12.16 30.77,-31.7 2.77,-20.88 -5.91,-31.73 -22.68,-36.36 -8.33,14.98 -7.51,47.24 -8.09,68.06zm200.25 -22.72l34.92 -3.26c-4.19,30.09 -14.6,112.92 -24.53,133.4 -29.47,11.98 -37.32,-6.42 -37.18,39.49l123.29 0.36 25.36 -124 -67.51 9.29 47.68 -257.5c-10.49,1.1 -56.36,10.77 -63.91,14.11 -14.71,6.52 -14.31,41.92 -17.32,59.99 -6.35,38.16 -18.08,90.38 -20.8,128.12z"/>
   <path class="fil2" d="M1834.26 416.83l-1.61 78.85c-5.08,-10.3 -6.03,-29.79 -7.9,-43.24 -2.52,-18.08 -3.09,-25.69 9.51,-35.61zm-49.41 17.87l29.84 1.46 12.58 68.26 -42.42 -69.72zm-3.13 -10.08c2.77,-10.45 10.32,-39.74 15.17,-46.33 14.34,7.9 14.87,28.63 16.79,49.03 -9.97,1.73 -21.58,-1.73 -31.96,-2.7zm125.89 68.2c1.32,-11.23 25.31,-70.32 30.41,-81 3.02,-3 20.56,-2.55 24.82,-2.22 -15.39,33.09 -39.18,50.85 -55.23,83.22zm-11.19 -3.68l4.86 -111.95c6.87,3.43 9.67,7.04 14.29,13.38 4.92,6.74 7.78,9.28 13.74,14.91l-32.89 83.66zm-79.47 -102.28l18.02 8.76 -16.03 27.67 -1.99 -36.43zm131.08 -4.87c6.57,2.73 16.64,8.12 20.09,13.36l-23.93 0.88 3.84 -14.24zm-141.1 -2.45c-4.41,-1.4 0.22,2.7 -4.95,-2.17 -6.66,-6.3 -0.44,0.97 -3.68,-6.55l11.73 -2.35 -3.1 11.07zm125.53 -19.21c2.79,7.21 6.82,9.52 4.99,18.13 -0.81,3.78 -4.62,15.05 -8.05,18.46 -7.77,-6.78 -17.66,-20.45 -23.75,-30.03l26.81 -6.56zm28.92 10.4c-14.97,1.42 -16.9,0.88 -21.17,-11.94l15.89 1.08 5.28 10.86zm-13.37 125.12c-1.47,-28.46 -2.69,-31.24 9.33,-54.33 5.43,-10.42 21.95,-35.83 19.73,-46.34 -5.27,-24.95 -13.86,-14.62 -7.24,-48.29 3.89,-19.78 7.25,-39.27 11.43,-58.81 5.87,2.98 41.6,31.67 46.56,37.88 -2.49,10.41 -74.23,163.33 -79.81,169.89zm-173.64 -82.98c-5.35,-15.02 -11.73,-65.93 -15.13,-85.95 -3.78,-22.35 -8.25,-24.71 4.55,-37.42 7.2,-7.15 18.47,-19.07 28.97,-24.65l-18.39 148.02zm-2.98 64.94c-4.68,-5.81 -83.97,-183.85 -87.15,-195.9 6.42,2.11 51.87,19 54.58,21.45 4.51,4.07 32.16,158.8 32.57,174.45zm191.07 15.09c6.86,-19.49 55.07,-110.77 69.5,-141.38 5.61,-11.92 6.28,-17.26 17.94,-22.9 15.93,-7.71 38.94,-19.96 54.17,-24.7l-131.54 178.05c-1.6,2.06 -2.8,3.61 -4.59,5.6 -0.99,1.1 -2.01,2.12 -3.15,3.25 -0.24,0.24 -1.01,1.4 -1.16,1.05 -0.14,-0.35 -0.76,0.72 -1.17,1.03zm-253.39 -256.18l26.63 12.59 6.41 43.28 -57.34 -19.92 24.3 -35.95zm342.21 78c3.52,-10.73 10.12,-23.13 15.34,-33.8 4.34,-8.85 10.97,-26.39 16.65,-31.46 6.45,7.87 23.83,32.57 27.56,41.42l-59.55 23.84zm-272.9 -53.86c-7.66,5.45 -20.75,19.4 -29.21,21.09l-5.21 -35.94 44.62 5.8c-3.34,5.04 -0.76,2.03 -5.39,5.8 -1.85,1.51 -2.77,1.79 -4.81,3.25zm203.77 16.58c4.47,-7.61 69.38,-64.36 79.29,-72.23 1.95,3.11 7.84,24.84 8.89,29.82 2.71,12.74 -34.41,80.26 -37.43,83.41 -13.2,-9.13 -42.63,-37.21 -50.75,-41zm-236.91 -62.26c4.74,4.09 7.14,4.64 11.33,11.3l-18.66 11.31c-5.01,-1.94 -5.72,-2.6 -9.8,-5.4l-7.8 -6.99 24.93 -10.22zm330.69 21.56l-6.23 -32.62c10.16,2.11 23.19,5.34 30.14,10.5 -5.65,7.35 -12.44,15.17 -23.91,22.12zm-263.82 -118.54l68.3 25.35c-1.64,27.04 -18.47,313.78 -22.93,333.63l-45.37 -358.98zm160.43 -6.06l-50.92 199.81c-14.9,59.37 -7.6,42.39 -26.69,53.17l-12.08 61.72c-0.55,3.31 -2,17.3 -6.05,18.88l18.24 -301.5 77.5 -32.08zm-64.35 -56.39c7.87,2.77 36.12,21.88 45.73,28.21 2.74,1.81 4.49,2.91 7.3,5.03l6.34 5.84 -70.26 31.64 10.89 -70.72zm-93.13 52.01c8.05,-12.95 52.69,-58.15 58.41,-70.45 9.85,3.5 14.33,9.73 22.92,14.59l-14.57 77.28 -66.76 -21.42zm99.5 -76.57c-2.7,4.77 -8.06,10.03 -11.35,15.15 -7.99,-4.2 -11.52,-7.91 -16.56,-13.77l27.91 -1.38zm-102.54 329.6c-5.98,-2.15 -2.75,0.9 -4.83,-5.79l-9.1 -104.86c-2.97,-7.68 -37.8,-34.26 -47.52,-39.89 -11.26,-6.52 -19.41,2.73 -28.99,8.47 -12.5,7.51 -13.24,9.64 -21.41,21.07 -26.14,36.6 -26.44,24.42 -15.79,56.6l53.47 159.31c6.74,19.92 2.04,14.75 18.15,25.88 8.47,5.86 18.69,14.34 28.43,18.26 1.85,-7.33 4.77,-14.39 8.81,-19.33 20.91,27.89 2.54,26.86 38.11,32.49 5.35,-8.62 12.27,-4.17 11.77,-17.55 22.34,6.91 9.76,-1.03 35.92,-7.72 6.43,5.95 8.61,14.31 15.01,21.16 7.75,-1.76 17.01,-4.36 24.44,-6.72 13.49,-4.3 7.41,7.72 14.07,-4.53 3.9,3.76 11.6,11.12 16.72,15.01 11.06,-5.43 45.16,-27.29 52.54,-38.62l60.69 -92.8c16.44,-25.12 32.15,-49.63 48.51,-74.3 13.08,-19.71 7.7,-22.05 4.1,-46.94 -2.5,-17.23 -4.66,-33.62 -7.6,-51.02 -65.46,-18.73 -24.67,-24.2 -122.53,55.6 -16.02,13.06 -15.48,29.13 -24.69,62.33 -1.69,6.07 -2.72,11.22 -4.36,16.98 -2.99,10.53 -3.28,8.14 -14.37,8.36 9.36,-62.56 21.29,-125.88 31.97,-187.79 10.59,-61.35 16.07,-57.82 -4.15,-82.72l-45.25 -58.69c-10.95,0.19 -43.4,1.92 -50.94,7.35l-57.21 64.64c-17.57,19.04 -13.52,15.03 -11.88,46.4l10.7 213.08c-0.14,0.76 4.27,-1.89 -2.79,6.28z"/>
   <path class="fil0" d="M1524.89 691.43l26.99 -76.48 -53.88 -0.11 13.33 38.61c4.52,12.36 8.53,26.3 13.56,37.98zm-776.16 -77l2.92 0.06 14.9 -0.05c-1.51,-2.7 -6.47,-9.33 -8.82,-11.25 -1.66,1.36 -8.11,9.1 -9,11.24zm-36.32 -2.55l18.16 0.1c-1.14,-2.3 -7.27,-10.28 -9.28,-11.51 -2.23,2.51 -7.53,8.61 -8.88,11.41zm73.29 0.07l17.83 -0.01c-2.01,-3.68 -6.26,-9.93 -9.37,-11.22 -1.52,1.39 -8,9.39 -8.46,11.23zm-46.2 -9c1.48,-1.35 8.33,-10.5 8.9,-12.33l-17.79 -0.07c0.79,3.22 7.07,10.36 8.89,12.4zm36.45 -0.1c1.48,-1.21 7.91,-10.41 8.8,-12.2l-18.1 -0.1c0.16,2.11 7.17,10.38 9.3,12.3zm-122.12 1.15c4.92,0.2 12.51,1.37 16.09,-0.93 -2.37,-3.81 -7.74,-11.86 -11.17,-13.45l-4.92 14.38zm-308.59 77.5c10.95,3.37 11.5,-13.04 0.06,-9.57l-0.06 9.57zm732.78 -104.5c0.95,2.01 0.91,1.72 2.96,3.37 3.22,2.61 6.28,6.7 8.96,8 2.71,-1.9 10.51,-8.51 10.86,-11.44l-22.78 0.07zm-28.99 12.03c3.32,-1.06 11.15,-8.61 11.94,-12.08l-23.5 0.07c0.22,1.62 8.38,8.09 11.56,12.01zm-439.8 14.95l18.25 0.12 -7.3 -15.92c-0.63,-0.84 -0.37,-0.52 -0.91,-0.97 -1.79,2.21 -9.13,14.58 -10.04,16.77zm-67.37 1.05l16.86 -0.02c-0.45,-6.07 -2.52,-13.3 -4.61,-18.14 -2.06,2.31 -11.37,15.18 -12.25,18.16zm39.8 -0.06c6.9,-0.13 12.25,0.53 18.97,-0.62 -1.67,-4.34 -7.65,-14.18 -10.02,-17.48 -1.4,1.68 -8.46,15.69 -8.95,18.1zm-24.12 -17.48l3.92 13.69c2.72,-0.68 8.15,-5.03 10.4,-6.65 2.42,-1.72 8.57,-5.79 9.84,-7.83 -7.08,-0.1 -17.66,-0.82 -24.16,0.79zm37.21 -0.23c0.89,3.03 7.97,14.47 9.95,16.49 2,-1.7 10.56,-15.81 10.95,-17.06 -7,-0.08 -14.17,-0.54 -20.9,0.57zm442.14 25.08l27.31 0c-1.73,-3.79 -10.96,-12.34 -14.86,-14.06 -3.73,4.24 -11.63,11.1 -12.45,14.06zm39.68 -0.12l28.67 -0.01c-1.09,-2.19 -5.54,-5.56 -7.32,-7.51 -1.65,-1.83 -5.23,-5.37 -7.98,-6.74 -3.04,1.78 -4.73,4.47 -6.86,6.64 -1.82,1.86 -5.73,4.48 -6.51,7.62zm-223.75 2.57l23.17 0c-1.26,-3.22 -3.65,-6.98 -5.38,-9.83 -0.96,-1.57 -1.66,-2.8 -2.81,-4.48 -0.42,-0.62 -1.08,-1.61 -1.48,-2.15 -1.48,-2.01 -0.34,-1.16 -2.32,-2.11 -1.65,1.9 -10.45,16.07 -11.18,18.57zm91.65 0.01l23.15 0.02c-1.2,-3.88 -9.5,-16.68 -11.92,-19.55 -0.38,0.34 -0.33,0.24 -0.81,0.95 -0.29,0.43 -0.37,0.59 -0.66,1.13 -2.88,5.34 -8.62,14.05 -9.76,17.45zm-316.62 -26.97c7.43,4.31 18.49,14.28 22.39,15.92 1.54,-2.6 5.08,-13.75 5.45,-17.06 -5.62,-0.06 -24.28,-1.15 -27.84,1.14zm624.67 25.36l2.59 0.17 21.26 -0.01 2.3 -0.13 -12.98 -19.74 -13.17 19.71zm-87.98 0.14l25.08 -0.06c0.66,-2.31 -2.9,-6.7 -5.14,-10.12 -2.59,-3.98 -3.85,-6.25 -7.09,-9.11 -1.11,0.94 -12.09,17.33 -12.85,19.29zm-278.47 -2.34c3.57,-7.47 13.5,-16.33 14.71,-19.74l-26.88 -0.03c0.19,2.48 3.68,7.99 5.03,10.28l4.79 7.32c1.4,1.76 0.57,1.18 2.35,2.17zm34.49 -18.8c0.84,1.74 2.35,3.03 3.65,4.72 1.41,1.83 2.61,3.24 4.05,5.05 2.18,2.75 5.66,7.56 8.61,8.97 1.87,-2.67 10.6,-17.58 10.74,-19.7 -8.28,0.01 -19.57,-0.97 -27.05,0.96zm276.87 18.23c2.07,-1.71 15.31,-17.29 16.6,-19.83l-29.87 0.08c1.18,3.12 8.29,13.9 11.02,17.55l2.25 2.2zm49.19 0.03l1.77 -2.08c0.51,-0.77 1.14,-1.9 1.61,-2.63 1.16,-1.84 1.86,-2.93 3.13,-4.77 1.97,-2.86 4.78,-6.64 5.85,-10.39l-29.36 0c1.78,4.16 13.67,17.99 17,19.87zm-352.14 4.14c17.26,0.29 16.4,0.74 32.43,-0.59l-8.29 -10.29c-2.27,-3.1 -6.35,-8.45 -9.29,-9.92 -2.82,7.2 -11.48,12.91 -14.85,20.8zm309.74 -1.41l34.65 0.15c-2.42,-5.13 -13.8,-17.81 -17.76,-20.34l-4.33 5.04c-3.91,4.58 -9.77,10.13 -12.56,15.15zm353.87 -3.66l30.53 0.2c-2.81,-5.09 -12.02,-14.25 -16.65,-19.98l-6.08 -6.3 -7.8 26.08zm-97.18 0.19l30.45 -0.06 -7.79 -26.26c-1.74,0.87 -4.61,4.64 -6.01,6.41l-14.07 16.27c-1.92,2.02 -2.04,0.96 -2.58,3.64zm26.56 -28.03c0.68,3.93 2.62,8.96 3.8,12.83l2.93 9.85c0.64,2 0.31,1.65 1.45,2.8l17.57 -18.75c1.28,-1.27 5,-5.19 5.15,-6.97 -3.36,-0.27 -29.45,-0.41 -30.9,0.24zm43.5 0.15c2.27,3.2 20.72,23.99 23.61,25.36l7.76 -25.69c-5.34,-0.42 -27.54,-0.77 -31.37,0.33zm-760.49 92.36l37.07 -47.64 -17.63 -0.1c-2.13,0.56 -4.8,9.05 -5.62,11.08 -1.68,4.17 -3.2,7.97 -4.85,12.12 -2.78,7 -7.37,17.61 -8.97,24.54zm-171.51 8.66c-0.04,-4.56 -8.68,-30.3 -10.65,-36.67 -3.77,-12.23 -7.36,-24.67 -10.92,-36.95l-11.55 0.02c0.87,4.89 25.66,57.39 30.81,69.23 0.72,1.67 1.93,3.33 2.31,4.37zm455.48 -88.99c1.31,1.86 2.28,1.88 4.2,3.36l7.91 7.27c1.49,1.33 2.47,2.73 3.93,3.81l15.2 -14.85c-1.27,-2.38 -13.05,-13.11 -16.39,-14.8 -1.11,0.52 -14.09,12.97 -14.85,15.21zm-309.54 80.87c-1.67,-7.57 -5.41,-16.73 -7.77,-24.37 -1.23,-3.94 -6.14,-21.97 -8.56,-23.9l-20.25 0c2.07,4.38 34.45,47.08 36.58,48.27zm-302.43 -0.77l-21.91 -48.85 -22.09 0.03c1.2,2.87 40.67,46.26 44,48.82zm24.82 0.1c2.69,-1.36 8.72,-9.26 11.39,-11.81l22.15 -24.6c2.05,-2.3 3.59,-4.15 5.44,-6.09 1.18,-1.26 4.7,-4.87 5.29,-6.43l-22.25 -0.05 -22.02 48.98zm872.72 -38.29l25.75 0.04c-1.36,-2.57 -3.4,-3.95 -5.22,-5.91 -4.63,-5 -35.8,-36.61 -38.39,-38.34l17.86 44.21zm-17.62 48.74c2.32,-1.07 3.91,-3.36 5.68,-4.97l16.56 -16.23c3.41,-3.65 20.5,-20.1 21.67,-22.16l-24.96 -0.1c-1.77,0.52 -8.7,18.5 -9.85,21.27 -2.45,5.89 -7.84,16.72 -9.1,22.19zm102.16 -0.17l-17.66 -43.11 -26.06 -0.07c0.37,1.95 0.52,1.69 1.84,3.03l8.4 8.01c6.58,6.04 28.91,29.71 33.48,32.14zm-97.99 4.91l43.92 -17.67c0,-6.03 0.86,-20.82 -0.47,-25.55 -1.43,-0.46 -8.3,7.76 -10.71,10.09 -4.14,4.01 -7.25,6.96 -11.08,10.78 -3.78,3.79 -20.14,19.16 -21.66,22.35zm49.39 -83.86l0.12 25.23c6.91,-4.44 25.18,-24.37 32.98,-32.22 1.88,-1.89 9.86,-9.47 10.74,-11.27 -5.62,1.39 -16.17,6.42 -22.2,8.95 -5.26,2.2 -17.21,6.37 -21.64,9.31zm-0.23 64.95c1.64,2.49 40.33,18.22 43.77,19.21 -0.26,-2.15 -8.11,-9.27 -10.14,-11.31l-27.28 -27.37c-1.77,-1.77 -3.64,-4.56 -6.17,-5.33l-0.18 24.8zm4.91 -34.53l26.26 -0.09c2.37,-7.14 5.78,-15.18 8.83,-22.17 1.65,-3.77 8.43,-19.28 8.66,-22.47 -1.45,0.72 -19.12,19.06 -21.97,21.94 -4.21,4.23 -19.74,18.95 -21.78,22.79zm-906.5 -42.23c0.42,2.38 13.32,24.11 15.18,25.87l24.49 0.16c-1.23,-3.42 -13.72,-19.35 -17.46,-24.17 -1.77,-2.29 -1.64,-2.6 -5.77,-2.71 -5.23,-0.14 -11.11,0.64 -16.44,0.85zm-78.03 26.03l25.33 -0.01c3.26,-7.24 12.82,-21.09 14.56,-26.37 -5.47,-0.17 -11.05,-0.04 -16.54,-0.08 -5.49,-0.05 -4.31,0.15 -9.58,6.98 -2.59,3.35 -12.98,16.27 -13.77,19.48zm974.37 10.78l0 -25.58c-10.47,-4.18 -35.36,-15.31 -44.25,-17.41 1.77,2.96 32.27,32.76 37.86,38.35 1.85,1.86 3.33,4.29 6.39,4.64zm-759.71 52.69c1.72,-0.59 0.44,0.27 1.63,-1.29 3.6,-4.74 22.76,-46.94 25.85,-53.68 2.56,-5.6 7.5,-13.76 9.15,-18.87l-14.95 -0.01c-4.06,10.55 -7.74,25.76 -11.03,37.26 -1.35,4.68 -11.21,35.04 -10.65,36.59zm889.96 -73.66l48.1 0.29c-1.28,-2.47 -11.43,-13.9 -14.39,-17.07 -1.25,-1.33 -2.19,-2.02 -3.33,-3.33 -1.89,-2.16 -3.77,-5.03 -6.37,-6.73 -2.8,2.15 -3.77,4.09 -6.01,6.48 -2.4,2.56 -3.99,4.43 -6.11,6.66 -3.28,3.45 -9.97,9.81 -11.89,13.7zm-957.47 0.93l39.64 55.18c2.35,3.32 10.78,16.44 13.11,18.01 -1.32,-4.19 -14.21,-30.87 -17.29,-37.52 -6.79,-14.69 -11.75,-23.36 -18.44,-36.7 -3.96,0.06 -14.76,-1.29 -17.02,1.03zm71.35 73.28c2.5,-0.93 5.17,-6.03 6.95,-8.46 9.69,-13.26 42.6,-55.76 47.95,-65.81l-17.89 -0.11 -37.01 74.38zm480.55 -90.38c1.13,2.08 11.26,11.86 14.53,14.86 8.76,8.01 13.06,3.55 29.47,4.11 -1.42,-3.5 -27.37,-32.12 -29.79,-33.52 -2.62,1.98 -12.3,11.57 -14.21,14.55zm-94.05 19.02l25.67 0.07c0.59,-0.19 16.87,-16.01 18.18,-19.09 -2.79,-2.69 -12.04,-12.44 -15.14,-14.11 -1.93,1.22 -1.64,1.67 -3.64,3.79l-18.17 20.08c-2.38,2.5 -6.06,5.37 -6.9,9.26zm-243.88 74.52l13.26 -59.83 -24.22 -0.57c1.24,10.06 3.39,20.52 5.17,30.36 1.73,9.63 3.32,21.05 5.79,30.04zm97.82 -61.33c1.6,2.08 3.45,3.89 5.27,6.17 7.23,9.09 33.9,43.7 38.33,46.33 -0.55,-2.75 -15.03,-49.11 -17.28,-53.96 -5.22,-0.25 -23.04,-0.94 -26.32,1.46zm83.99 -1.39c-2.98,8.86 -15.39,47.69 -16.29,54.49 1.86,-1.43 9.18,-11.41 11.01,-13.65 7.1,-8.65 28.71,-33.8 31.56,-41.73 -9.35,1.46 -17.83,-0.24 -26.28,0.89zm292.5 48.01c3.09,-1.89 43.82,-48.11 45.87,-52.52l-27.76 -0.04c-2.86,4.41 -16.79,45.62 -18.11,52.56zm-65.88 -52.19c1.65,2.8 19.46,22.38 22.54,26.28 3.61,4.58 7.55,8.5 11.31,12.98 2.8,3.33 9.02,10.67 12.56,12.57 -0.76,-4.45 -15.55,-47.2 -17.84,-52.16 -8.89,-0.27 -19.98,-0.59 -28.57,0.33zm-562.13 62.23l-0.79 -72.81 -21.76 -0.08c0.99,6.89 20.32,69.76 22.55,72.89zm4.2 0.49c1.43,-2.46 19.69,-67.64 20.52,-73.27l-21.85 -0.11c-0.9,9.65 -0.1,64.26 1.33,73.38zm-179.05 -63.15c13.6,0.67 37.53,0.16 52.42,0.14 -2.1,-6.58 -13.34,-22.61 -14.72,-26.36l-22.89 -0.04c-1.39,3.34 -5.43,9.41 -7.52,12.99 -2.08,3.56 -5.98,9.63 -7.29,13.27zm1089.39 66.06c-1.24,-5.23 -4.21,-12.31 -6.12,-17.58l-17.88 -51.32c-0.86,-1.65 -0.78,-1.79 -2.73,-1.79l-30.26 0.11c1.65,4.03 53.67,68.06 56.99,70.58zm38.86 -70.61c-1.91,1.47 -11.1,30.07 -12.8,34.75 -2.3,6.25 -11.24,31.02 -12.17,35.99 3.08,-2.24 55.46,-66.99 57.06,-71.09l-32.09 0.35zm-334.6 63.92l19.95 -59.11 -40.5 -0.21c0.32,5.39 18.38,56.97 20.55,59.32zm-311.57 7.18c1.3,-2.29 19.29,-60.46 19.32,-62.08l-38.66 0.01c-0.08,4.37 17.41,59.49 19.34,62.07zm522.28 2.59l0.88 -2.19c0.16,-0.73 0.24,-1.94 0.31,-2.72 0.93,-10.8 0.57,-34.51 0.53,-45.52 -0.02,-6.8 0.46,-48.15 -1.72,-50.84 -1.9,0.74 -2.42,3.48 -3.1,5.25 -0.82,2.11 -1.71,4.38 -2.58,6.5 -2.63,6.4 -15.08,36.04 -15.37,38.65 -0.21,1.95 18.75,47.43 21.05,50.87zm-110.4 -110.45c2.05,2.17 47.47,21.93 50.79,21.59 2.31,-0.23 47.32,-19.39 50.85,-21.41 -8.82,-2.79 -92.04,-1.57 -98.11,-1.56 -1.9,0 -2.72,0.48 -3.53,1.38zm-10.84 24.2l-0.23 66.17c0,4.87 -0.58,17.21 1.84,20.5 2.76,-1.84 9.38,-20.41 11.15,-24.53 1.44,-3.36 10.26,-24.19 10.43,-25.88 0.18,-1.69 -15.17,-37.87 -18.27,-45.02 -0.47,-1.07 -0.78,-1.76 -1.33,-2.92 -0.1,-0.2 -0.8,-1.58 -0.82,-1.62l-1.16 -1.34c-1.95,2.05 -1.47,2.36 -1.48,6.12 -0.02,2.84 -0.13,5.7 -0.13,8.52zm10.98 95.91c4.22,3.36 74.24,1.16 90.22,1.75 4.68,0.17 8.72,1.4 11.17,-2.36 -2.48,-1.76 -49.24,-20.99 -51.23,-20.96 -1.43,0.02 -21.93,8.88 -25.28,10.26 -5.36,2.22 -21.55,8.32 -24.88,11.31zm-263.66 -12.09l-18.12 -67.5 -37.57 -0.18c1.73,3.89 36.69,45.93 40.96,51.25 3.01,3.74 11.47,14.89 14.73,16.43zm21.65 1.8c2.66,-2.16 4.71,-5.41 6.98,-8.29l45.64 -56.36c1.8,-2.1 2.81,-1.96 3.24,-4.61l-37.58 -0.21c-2.88,5.61 -17.71,61.81 -18.28,69.47zm-625.47 -2.93c1.86,-4.93 4.66,-10.02 6.87,-15.02 3.47,-7.86 19.99,-41.47 20.33,-44.93l-55.12 -0.01c0.5,3.25 26.6,58.68 27.92,59.96zm615.07 14.87l21.77 -81.37 -2.81 -0.05 -41.72 0.01c0.33,6.15 20.86,79.17 22.76,81.41z"/>
   <path class="fil0" d="M1799.22 701.88c0.69,-3.28 1.26,-2.93 1.28,-6.93 0.07,-8.43 0.61,-2.24 -1.19,-7.41l-5.1 18.33 0.71 -9.48c0.08,-0.53 0.27,-1.3 0.35,-1.85 0.08,-0.54 0.26,-1.31 0.33,-1.85l0.14 -18.85c5.37,2.67 5.33,4.11 6.7,11.61l0.15 9.6c-0.13,0.52 -0.42,1.29 -0.59,1.78 -0.36,1.04 -2.19,4.12 -2.78,5.05zm368.19 61.18c-4.67,6.67 -15.3,5.54 -22.22,5.53 -14.56,0 -27.25,0.89 -42.16,-3.69l-9.68 -7.2c-14.07,-11.02 -23.37,-27.91 -28.64,-46.78l6.39 -2.1c10.8,22.89 14.78,32.08 33.72,49.21 19.47,7.82 43.98,8.31 63.55,1.28l-0.96 3.75zm-137.4 -108.81c11.72,-25.4 18.95,21.14 36.67,-18.09 2.52,-5.02 3.93,-9.41 6.48,-14.66 13.83,-28.43 44.49,-44.53 69,-48.71 32.04,-5.48 64.45,7.16 86.57,32.82 8.55,9.91 10.11,18.66 11.63,30.57 2.67,20.95 3.87,38.43 2.19,59.53 -1.04,12.94 -3.42,17.72 -12.05,28.73 -15.27,19.51 -35.46,31.7 -59.46,34.5 -8.05,2.24 -14.34,3.62 -19.88,4.33l4.98 5.82c13.67,-0.54 24.3,-1.61 25.63,-1.95 14.79,-3.23 28.1,-10.07 39.34,-19.36l2.66 -2.28c16.93,-15.02 28.75,-35.72 33.21,-57.74 4.25,-20.99 1.68,-45.93 -10.47,-67.9 -17.2,-31.11 -30.92,-33.37 -55.82,-46.99 -1.46,-0.79 -2.25,-1.43 -3.63,-2.04l-8.8 -2.28c-2.05,0.26 -3.25,0.13 -5.29,1.19 -5.71,-9.15 -39.06,1.86 -75.14,17.77 -7.75,4.83 -37.66,46.69 -42.28,55.5 -0.98,1.87 -2.56,2.65 -4.48,2.82l0.6 -2.39 -0.6 2.39c-7.02,0.61 -18.67,-6.88 -23.07,1.04 -0.86,1.55 -1.63,3.63 -2.36,6.02l4.37 1.36zm-174.52 0.49l-0.36 -1.44c-2.71,1.4 -5.84,3.3 -8.64,5.64 -4.5,-7.52 3.7,-3.13 -31.65,-1.22 -41.57,2.24 -13.33,0.28 -32.5,-3.22 -13.61,13.28 -9.73,22.57 -9.23,36.26 0.42,11.77 -0.81,24.57 10.37,33.3 4.87,2.18 52.09,-11.93 71.23,-5.45 8.6,-1.51 10.78,-3.95 18.14,0.35l5.58 -1.15 6.51 -0.75c0.43,0.13 1.21,0.82 1.79,1.27l5.61 -1.34c12.95,-4.07 14.35,-3.83 11.93,0.47l122.73 -9.07 0.51 0.8c1.7,-1.24 21.48,-4.09 23.47,-4.14 8.71,1.89 13.25,4.61 15.41,7.81l4.71 -4.04c-0.04,-0.33 -0.09,-0.67 -0.15,-1.01 -4.38,-7.44 -10.22,-8.71 -16.97,-8.65 -20.25,0.16 -10.93,5.36 -16.49,-1.14 -3.23,2.86 -1.06,2.85 -5.45,3.28 -1.54,0.15 -2.77,0.12 -4.05,0.41l-0.27 2.04 -22.56 3.54 0.76 -2.53 -86.52 3.11c-37.07,-5.1 -10.52,12.84 -61.24,2.71l-5.18 0.05 -12.87 1.8c-3.46,2.6 -2.17,2.78 -3.57,-1.48 -3.56,5.01 -2.36,6.04 -3.99,0.1l-2.68 3.12 -7.71 0.11c-7.06,4.35 0.44,-7.57 -6.09,0.48l-7.59 0.35c-10.01,2.27 -1.81,2.22 -10.83,-3.4 0.72,-3.43 1.31,-3.05 1.34,-7.24 0.07,-8.8 0.64,-2.34 -1.25,-7.73l-5.33 19.14 -4.79 4.44 -6.31 -8.47 -1.79 -3.4 0.83 -3.3c-3.41,-11.73 -5.86,-32.31 2.75,-43.18 37.29,3.75 7.97,2.2 41.61,0.26l7.56 -0.15 6.3 -0.49 8.21 -1.59c2.04,2.68 0.62,2.23 0.83,5 3.36,-2.43 6.17,-2.24 9.65,-2.65 3.54,-0.43 6.01,-0.71 9.53,-0.99 12.38,-0.98 2.93,0.17 8.5,0.63 0.34,0.03 7.9,-1.44 9.06,-1.65l70.8 -2.89c9.05,0.2 5.23,-0.7 11.07,0.14 2.14,0.31 2.48,0.51 4.68,1.07 4.51,-2.88 0.81,-1.77 7.02,-2.58 7.58,-0.98 15.33,-2.59 23.54,-3.58 8.51,-1.03 13.97,-0.14 20.03,0.22l0.31 -1.03 3.75 1.17 0.1 0 1.27 -3.67c-5.5,-1.4 -12.71,-4.47 -15.32,-3.91 -3.3,0.71 -6.23,1.33 -8.74,1.85l-20.43 0.15c-5.25,-0.03 -2.36,-0.17 -7.02,0.64 -9,1.55 -16.5,1.51 -26.7,2.12 -12.35,0.74 -70.72,4.57 -80.41,4.02 -9.04,-1.49 -4.53,-0.15 -12.81,0.68zm272.64 -55.21c12.85,11.01 38.06,9.01 52.52,5.41l3.98 1.17 4.23 -2.03 10.64 -7.28 -4.51 -5.27 -5.92 0.37c-12.84,-11.01 -38.05,-9 -52.52,-5.4l-3.98 -1.17 -4.23 2.02 -10.63 7.28 4.51 5.27 5.91 -0.37zm65.25 -13c5.35,2.48 11.45,3.87 10.48,15.49 -11.17,13.22 -26.73,11.11 -41.1,11.07 -14.94,-0.04 -25.72,3.36 -38.93,-8.19 -5.35,-2.48 -11.45,-3.87 -10.48,-15.48 11.17,-13.22 26.73,-11.11 41.09,-11.07 14.94,0.04 25.72,-3.38 38.94,8.18zm10.44 121.38c8.3,-5.86 6.58,-11.03 14.6,-6.34 -1.4,6.2 -7.28,8.96 -12.15,11.1l-2.45 -4.76zm11.67 15.65l-6.78 -6.75 13.49 -13.77 9.39 2.81c-7.03,9.16 -5.83,9.8 -16.1,17.71zm-53.37 -84.05l8.3 -3.02c-13.54,4.64 -16.94,-2.27 -28.1,3.36 -2.18,-5.13 -0.98,-4.8 -3.66,0.09 -5.59,-3.5 0.45,-4.9 -7.44,-0.05 -6.77,-3.83 1.07,-2.91 -5.26,0.51l-7 -2.78c-4.87,-1.45 -1.15,-0.07 -6.9,-1.59l46.79 -3.43c17.28,5.16 52.22,-5.76 65.52,-13.26 -13.68,27.16 -32.22,20.54 -62.25,20.17zm42.23 6.3c-0.84,0.1 -2.96,0.57 -3.5,0.56 -6.21,-0.17 -1.07,0.95 -7.42,-0.99 11.86,-3.72 13.14,-3.5 10.92,0.43zm-97.65 -5.26c0.65,-3.14 1.19,-2.8 1.23,-6.64 0.06,-8.05 0.57,-2.14 -1.15,-7.07l-4.88 17.53 0.68 -9.07c0.07,-0.51 0.26,-1.25 0.34,-1.77 0.07,-0.52 0.25,-1.25 0.31,-1.77l0.14 -18.04c5.13,2.56 5.1,3.93 6.4,11.11l0.15 9.19c-0.12,0.5 -0.41,1.24 -0.56,1.71 -0.35,0.98 -2.1,3.93 -2.66,4.82zm-9.19 7.89l-5.78 -7.76 -0.4 -7.17 4.21 8.83 2.45 -12.54c0.13,0.57 -0.06,1.04 0.33,1.73 0.39,0.68 0.25,1.38 0.25,1.72l-1.06 15.19zm-6.66 -13.9l-0.76 3.02 0.76 -3.02zm32.72 8.8l-6.95 0.32c0.58,-0.35 1.06,-1.49 1.8,-0.97 0.65,0.46 1.43,-0.49 1.77,-0.46l3.38 1.11zm12.63 -0.53l-7.06 0.09c6.96,-3.72 2.14,-2.78 7.06,-0.09zm21.17 -3.25l-11.79 1.65 11.79 -1.65zm18.21 7.63l-14.56 -0.41c-0.46,0.02 -1.37,0.1 -2.06,0.09 7.88,-1.38 9.87,-3.62 16.62,0.32zm12.71 -0.58c-6.29,2.3 -2.87,1.65 -7.61,-0.47l5.97 -0.69c0.39,0.12 1.11,0.75 1.64,1.16zm-31.62 -24.14c5.46,0.79 8.91,0.94 13.12,2.18 -17.84,3.84 -43.36,-1.53 -53.01,-11.47 9.22,3.05 18.43,6.09 27.64,9.15l12.25 0.14zm-299.54 78.32l8.68 -3.16c-14.16,4.85 -17.7,-2.37 -29.37,3.52 -2.28,-5.38 -1.02,-5.02 -3.82,0.09 -5.85,-3.66 0.48,-5.12 -7.77,-0.06 -7.07,-4 1.11,-3.03 -5.51,0.54l-7.29 -2.91c-5.1,-1.51 -1.21,-0.06 -7.23,-1.67l72.38 -13.68c5.89,-0.65 8.53,-0.72 15.12,-1.39 12.45,-1.27 20.98,-3.76 29.86,-2.36 -14.3,28.38 -33.67,21.47 -65.05,21.08zm40.47 7.16l-3.53 0.13c0.36,-0.07 1.15,-0.19 3.53,-0.13zm-45.42 -7.11l-12.33 1.72 12.33 -1.72zm-22.13 3.4l-7.37 0.09c7.26,-3.89 2.23,-2.9 7.37,-0.09zm-13.2 0.55l-7.26 0.34c0.61,-0.37 1.11,-1.56 1.88,-1.02 0.69,0.49 1.5,-0.51 1.85,-0.48l3.53 1.16zm-34.19 -9.19l-0.79 3.15 0.79 -3.15zm6.95 14.52l-6.02 -8.12 -0.42 -7.48 4.39 9.23 2.56 -13.11c0.14,0.6 -0.06,1.09 0.35,1.81 0.41,0.71 0.26,1.45 0.27,1.8l-1.13 15.87z"/>
   <path class="fil2" d="M2113.22 524.67c41.71,-5.76 -32.8,4.53 0,0z"/>
   <path class="fil3" d="M2155.07 511.42c43.59,-6.02 -34.27,4.73 0,0z"/>
  </g>
 </g>
</svg>
