<?xml version="1.0" encoding="UTF-8"?>
<!DOCTYPE svg PUBLIC "-//W3C//DTD SVG 1.1//EN" "http://www.w3.org/Graphics/SVG/1.1/DTD/svg11.dtd">
<!-- Creator: CorelDRAW 2017 -->
<svg xmlns="http://www.w3.org/2000/svg" xml:space="preserve" width="45.512mm" height="7mm" version="1.1" style="shape-rendering:geometricPrecision; text-rendering:geometricPrecision; image-rendering:optimizeQuality; fill-rule:evenodd; clip-rule:evenodd"
viewBox="0 0 4551.2 700"
 xmlns:xlink="http://www.w3.org/1999/xlink">
 <defs>
  <style type="text/css">
   <![CDATA[
    .fil6 {fill:#1084D9}
    .fil2 {fill:#1B96D9}
    .fil4 {fill:#2CACEC}
    .fil3 {fill:#5AC2EB}
    .fil5 {fill:#84E1FC}
    .fil1 {fill:#1084D9;fill-rule:nonzero}
    .fil0 {fill:#84E1FC;fill-rule:nonzero}
   ]]>
  </style>
 </defs>
 <g id="Capa_x0020_1">
  <metadata id="CorelCorpID_0Corel-Layer"/>
  <g id="_2057336594864">
   <path class="fil0" d="M864.73 643.33l0 -404 200.39 0 0 41.9 -155.8 0 0 130.01 145.59 0 0 40.83 -145.59 0 0 148.82 157.41 0 0 42.44 -202 0zm292.55 -38.68l58.47 0c18.9,0 33.49,-1.88 43.97,-5.73 10.38,-3.85 18.53,-10.12 24.44,-18.63 9.49,-13.79 16.3,-31.07 20.51,-51.66 4.2,-20.59 6.26,-49.52 6.26,-86.76 0,-65.19 -6.8,-108.71 -20.41,-130.55 -13.7,-21.85 -39.13,-32.78 -76.38,-32.78l-56.86 0 0 326.11zm-45.12 38.68l0 -404 114.34 0c45.84,0 79.6,15.31 101.36,45.93 21.67,30.62 32.5,78.17 32.5,142.73 0,45.39 -3.76,82.91 -11.19,112.37 -7.43,29.46 -19.07,52.83 -35.01,70.2 -10.84,11.91 -23.1,20.32 -36.71,25.34 -13.7,4.92 -33.94,7.43 -60.89,7.43l-104.4 0zm296.76 0l0 -404 46.2 0 0 404 -46.2 0zm177.04 0l0 -362.64 -103.15 0 0 -41.36 246.06 0 0 41.36 -96.71 0 0 362.64 -46.2 0zm209.11 -202c0,64.91 6.17,109.77 18.53,134.67 12.36,24.8 33.76,37.24 64.2,37.24 30.8,0 52.29,-12.08 64.47,-36.35 12.18,-24.26 18.27,-69.39 18.27,-135.56 0,-65.99 -6.09,-111.03 -18.27,-135.21 -12.18,-24.08 -33.67,-36.17 -64.47,-36.17 -30.44,0 -51.84,12.35 -64.2,37.16 -12.36,24.71 -18.53,69.48 -18.53,134.22zm-46.74 0c0,-75.22 10.2,-129.3 30.53,-162.25 20.33,-32.95 53.37,-49.42 98.94,-49.42 45.94,0 79.07,16.29 99.21,48.88 20.15,32.69 30.27,86.86 30.27,162.79 0,75.93 -10.03,130.1 -30.18,162.78 -20.06,32.59 -53.19,48.89 -99.3,48.89 -45.4,0 -78.35,-16.65 -98.85,-49.87 -20.42,-33.22 -30.62,-87.13 -30.62,-161.8zm351.02 -16.66l54.8 0c31.69,0 54.89,-6.09 69.66,-18.26 14.77,-12.09 22.21,-31.07 22.21,-56.77 0,-24.62 -6.54,-42.62 -19.7,-53.81 -13.08,-11.2 -34.3,-16.75 -63.49,-16.75l-63.48 0 0 145.59zm-44.05 218.66l0 -404 113.35 0c41.82,0 72.8,8.5 93.12,25.6 20.33,17.02 30.45,43.07 30.45,78.08 0,27.13 -6.09,48.71 -18.36,64.92 -12.26,16.21 -31.16,27.49 -56.68,34.02 22.39,1.88 39.13,9.14 50.32,21.76 11.2,12.54 18,32.06 20.51,58.47 0.81,9.76 1.79,23.37 2.86,40.65 2.78,44.06 9.85,70.92 21.23,80.5l-55.88 0c-5.55,-9.31 -9.13,-31.25 -10.74,-65.81 -0.9,-17.37 -1.7,-31.07 -2.6,-41.19 -2.42,-27.85 -9.67,-46.83 -21.67,-57.13 -12,-10.2 -33.4,-15.31 -64.38,-15.31l-57.48 0 0 179.44 -44.05 0zm297.84 0l0 -404 46.2 0 0 404 -46.2 0zm159.67 -157.41l107.54 0 -53.73 -211.67 -53.81 211.67zm-85.24 157.41l110.13 -404 57.49 0 111.74 404 -45.66 0 -30.62 -116.58 -128.05 0 -29.37 116.58 -45.66 0zm307.42 0l0 -404 45.12 0 0 360.48 161.18 0 0 43.52 -206.3 0z"/>
   <path class="fil1" d="M2979.73 643.33l-46.29 0 83.81 -404 46.2 0 -34.38 167.08 146.13 0 34.38 -167.08 46.74 0 -84.26 404 -46.11 0 40.65 -195.02 -146.22 0 -40.65 195.02zm297.3 0l-47.9 0 84.35 -404 47.27 0 -83.72 404zm139.9 -56.95l34.83 0c26.05,0 44.86,-6.44 56.41,-19.25 11.55,-12.89 17.28,-33.58 17.28,-62.23 0,-16.92 -4.39,-29.1 -13.25,-36.44 -8.78,-7.34 -23.46,-11.02 -43.88,-11.02 -6.36,0 -11.19,0.09 -14.59,0.27 -3.41,0.18 -6.72,0.45 -10.03,0.81l-26.77 127.86zm37.51 -182.66l30.63 0c21.75,0 37.96,-5.64 48.79,-17.01 10.84,-11.37 16.3,-28.56 16.3,-51.4 0,-15.04 -3.49,-25.7 -10.39,-31.87 -6.89,-6.18 -18.62,-9.32 -35.27,-9.32l-27.05 0 -23.01 109.6zm-120.79 239.61l84.35 -404 92.23 0c40.47,0 69.39,7.43 86.85,22.2 17.46,14.78 26.15,38.86 26.15,72.26 0,29.55 -6,53.1 -18,70.74 -12,17.55 -29.28,28.29 -51.94,32.14 15.14,5.55 26.6,15.04 34.48,28.48 7.88,13.34 11.82,29.99 11.82,49.96 0,24.26 -4.03,45.75 -12.09,64.38 -8.06,18.62 -19.61,33.04 -34.65,43.42 -10.84,7.35 -23.91,12.54 -39.31,15.67 -15.4,3.14 -42.98,4.75 -82.65,4.75l-97.24 0zm479.28 -356.73c-14.15,0 -25.61,5.11 -34.47,15.22 -8.87,10.12 -17.02,28.3 -24.54,54.53 -11.91,42.36 -21.58,81.31 -29.1,117.12 -7.52,35.73 -11.28,58.47 -11.28,68.32 0,18 3.85,31.43 11.64,40.38 7.79,8.87 19.61,13.35 35.28,13.35 17.01,0 30.17,-6 39.66,-18.09 9.41,-12.09 18.99,-37.79 28.57,-77.1 9.31,-38.5 16.65,-73.15 22.2,-104.13 5.47,-30.89 8.24,-51.93 8.24,-62.95 0,-15.22 -3.85,-26.77 -11.64,-34.74 -7.79,-7.97 -19.34,-11.91 -34.56,-11.91zm-169.77 257.25c0,-9.94 0.63,-20.95 1.79,-32.86 1.26,-12 3.23,-25.16 5.82,-39.49 5.73,-33.93 11.91,-64.11 18.45,-90.52 6.62,-26.42 12.71,-46.56 18.53,-60.53 13.79,-31.88 30.36,-54.98 49.7,-69.31 19.34,-14.32 43.6,-21.48 72.79,-21.48 40.92,0 71.19,9.04 90.89,27.04 19.6,17.99 29.45,45.66 29.45,83.09 0,7.52 -0.26,15.49 -0.89,23.73 -0.63,8.32 -1.52,17.01 -2.78,26.14 -4.03,29.37 -8.95,57.13 -14.68,83.36 -5.73,26.24 -11.82,48.8 -18.09,67.7 -13.43,39.84 -30.71,68.5 -51.84,85.78 -21.04,17.28 -48.89,25.96 -83.45,25.96 -37.97,0 -66.71,-9.22 -86.32,-27.58 -19.61,-18.35 -29.37,-45.3 -29.37,-81.03zm469.07 -257.25c-14.15,0 -25.61,5.11 -34.47,15.22 -8.87,10.12 -17.02,28.3 -24.54,54.53 -11.91,42.36 -21.58,81.31 -29.1,117.12 -7.52,35.73 -11.28,58.47 -11.28,68.32 0,18 3.85,31.43 11.64,40.38 7.79,8.87 19.61,13.35 35.28,13.35 17.01,0 30.17,-6 39.66,-18.09 9.41,-12.09 18.99,-37.79 28.57,-77.1 9.31,-38.5 16.65,-73.15 22.2,-104.13 5.47,-30.89 8.24,-51.93 8.24,-62.95 0,-15.22 -3.85,-26.77 -11.64,-34.74 -7.79,-7.97 -19.34,-11.91 -34.56,-11.91zm-169.77 257.25c0,-9.94 0.63,-20.95 1.79,-32.86 1.26,-12 3.23,-25.16 5.82,-39.49 5.73,-33.93 11.91,-64.11 18.45,-90.52 6.62,-26.42 12.71,-46.56 18.53,-60.53 13.79,-31.88 30.36,-54.98 49.7,-69.31 19.34,-14.32 43.6,-21.48 72.79,-21.48 40.92,0 71.19,9.04 90.89,27.04 19.6,17.99 29.45,45.66 29.45,83.09 0,7.52 -0.26,15.49 -0.89,23.73 -0.63,8.32 -1.52,17.01 -2.78,26.14 -4.03,29.37 -8.95,57.13 -14.68,83.36 -5.73,26.24 -11.82,48.8 -18.09,67.7 -13.43,39.84 -30.71,68.5 -51.84,85.78 -21.04,17.28 -48.89,25.96 -83.45,25.96 -37.97,0 -66.71,-9.22 -86.32,-27.58 -19.61,-18.35 -29.37,-45.3 -29.37,-81.03zm401.82 -137.44l119.81 -167.08 87.12 0 -143.44 189.64 68.68 214.36 -80.5 0 -45.67 -155.26 -31.69 42.44 -23.11 112.82 -74.13 0 84.34 -404 73.43 0 -34.84 167.08z"/>
  </g>
  <path class="fil2" d="M428.67 219.57c71.63,-12.53 95.12,-37.17 186.87,-29.3l-0.46 -7.99 -0.46 -59.71c-66.09,3.79 -165.3,56.37 -185.95,97z"/>
  <path class="fil2" d="M175.99 188.83c62.38,-2.03 146.51,7.9 192.52,38.1 -15.42,-43.9 -124.74,-97.67 -190.74,-104.92l-1.78 66.82z"/>
  <path class="fil3" d="M90.68 119.71c-19.56,8.77 -1.3,2.5 -15.47,3.51l1.12 81.47c-10.76,45.38 -6.51,283.92 -3.33,342.8 25.64,3.89 43.32,-4.73 71.9,-3.53 21.99,0.93 48.99,7.33 69.92,11.84 -11.14,-12.81 0.56,-6.83 -23.79,-13.45 -6.17,-1.67 -27,-4.64 -33.99,-5.34 -29.96,-2.98 -48.45,1.13 -77.59,5.01 -2.8,-56.4 -7.26,-296.22 3.52,-338.26l94.42 -14.6 -1.4 -0.33 1.78 -66.82c66,7.25 175.32,61.02 190.74,104.92l9.93 -4c-16.42,-47.28 -60.72,-78.02 -78.28,-118.35 -32.33,-10.16 -43.76,-55.11 -121.59,-58.35l-1.53 70.48 -86.36 3z"/>
  <path class="fil3" d="M468.97 131.38l-60.52 99.35c1.69,-0.92 4.31,-4.16 5.1,-2.68 0.74,1.38 3.8,-1.99 4.72,-2.5 1.49,-0.83 9.64,-5.5 10.4,-5.98 20.65,-40.63 119.86,-93.21 185.95,-97l0.46 59.71c11.02,6 82.49,18.44 101.34,21.45l-0.86 -81.09 -29.96 -3.4 -69.89 -2.94 -1.78 -69.69c-85.18,0.32 -115.36,74.16 -144.96,84.77z"/>
  <path class="fil4" d="M416.25 639.49c34.65,-13.1 74.81,-53.04 126.15,-74.39 73.13,-30.41 91.43,-20.78 175.02,-21.95l-1 -339.42c-18.85,-3.01 -90.32,-15.45 -101.34,-21.45l0.46 7.99 -1.33 277.97c-96.25,12.7 -154.91,98.99 -197.96,171.25z"/>
  <path class="fil4" d="M214.82 555.8c62.42,3.54 112.04,64.16 158.24,80.76 -18.41,-38.37 -55.81,-84.73 -79.01,-107.68 -38.72,-38.27 -53.3,-43.32 -116.39,-63.09l-0.27 -276.63 -94.42 14.6c-10.78,42.04 -6.32,281.86 -3.52,338.26 29.14,-3.88 47.63,-7.99 77.59,-5.01 6.99,0.7 27.82,3.67 33.99,5.34 24.35,6.62 12.65,0.64 23.79,13.45z"/>
  <path class="fil5" d="M378.44 222.93c12.78,32.46 7.31,365 4.89,424.92 -15.35,-8.34 -6.96,1.01 -10.27,-11.29 -46.2,-16.6 -95.82,-77.22 -158.24,-80.76 -20.93,-4.51 -47.93,-10.91 -69.92,-11.84 -28.58,-1.2 -46.26,7.42 -71.9,3.53 -3.18,-58.88 -7.43,-297.42 3.33,-342.8l-75.72 27.15 -0.62 421.18c27.42,-4.79 54.49,-19.38 86.21,-27.74 166.14,-43.73 270.61,28.02 303.86,28.49 5.08,-84.19 1.09,-234.22 1.13,-330.12l-0.91 -83.47c-8.69,-34.02 -1.8,-11.14 -11.84,-17.25z"/>
  <path class="fil5" d="M416.25 639.49l1.07 9.01c72.02,-16.26 96.69,-38.17 190.16,-36.66 105.01,1.69 153.19,38.56 184.12,39.98l-0.61 -424.29c-15.82,1.93 -38,-13.44 -65.52,-21.6l-9.05 -2.2 1 339.42c-83.59,1.17 -101.89,-8.46 -175.02,21.95 -51.34,21.35 -91.5,61.29 -126.15,74.39z"/>
  <path class="fil6" d="M373.06 636.56c3.31,12.3 -5.08,2.95 10.27,11.29 2.42,-59.92 7.89,-392.46 -4.89,-424.92l-9.93 4c-46.01,-30.2 -130.14,-40.13 -192.52,-38.1l1.4 0.33 0.27 276.63c63.09,19.77 77.67,24.82 116.39,63.09 23.2,22.95 60.6,69.31 79.01,107.68z"/>
  <path class="fil6" d="M428.67 219.57c-0.76,0.48 -8.91,5.15 -10.4,5.98 -0.92,0.51 -3.98,3.88 -4.72,2.5 -0.79,-1.48 -3.41,1.76 -5.1,2.68l-3.29 420.81 12.16 -3.04 -1.07 -9.01c43.05,-72.26 101.71,-158.55 197.96,-171.25l1.33 -277.97c-91.75,-7.87 -115.24,16.77 -186.87,29.3z"/>
 </g>
</svg>
