<!-- Generated by IcoMoon.io -->
<svg version="1.1" xmlns="http://www.w3.org/2000/svg" width="32" height="32" viewBox="0 0 32 32">
<title>elipsis</title>
<path d="M16 4.374c6.645 0 12.034 5.205 12.034 11.625s-5.388 11.625-12.034 11.625c-6.645 0-12.034-5.205-12.034-11.625s5.388-11.625 12.034-11.625zM15.593 8.466c-2.812 0.614-1.989 4.707 0.885 4.209 0.299-0.053 0.598-0.183 0.756-0.286 2.18-1.42 0.655-4.425-1.642-3.922zM15.521 13.903c-2.813 0.614-1.989 4.706 0.886 4.208 0.299-0.052 0.597-0.182 0.756-0.286 2.178-1.42 0.655-4.424-1.642-3.922zM15.449 19.339c-2.812 0.614-1.989 4.707 0.885 4.209 0.299-0.052 0.597-0.182 0.756-0.286 2.179-1.42 0.655-4.425-1.642-3.923z"></path>
</svg>
