<?xml version="1.0" encoding="UTF-8"?>
<!DOCTYPE svg PUBLIC "-//W3C//DTD SVG 1.1//EN" "http://www.w3.org/Graphics/SVG/1.1/DTD/svg11.dtd">
<!-- Creator: CorelDRAW 2017 -->
<svg xmlns="http://www.w3.org/2000/svg" xml:space="preserve" width="44.7886mm" height="44.7886mm" version="1.1" style="shape-rendering:geometricPrecision; text-rendering:geometricPrecision; image-rendering:optimizeQuality; fill-rule:evenodd; clip-rule:evenodd"
viewBox="0 0 4478.86 4478.86"
 xmlns:xlink="http://www.w3.org/1999/xlink">
 <defs>
  <style type="text/css">
   <![CDATA[
    .str0 {stroke:#3E4095;stroke-width:150;stroke-linecap:round;stroke-linejoin:round;stroke-miterlimit:22.9256}
    .fil0 {fill:none}
    .fil1 {fill:#3E4095;fill-rule:nonzero}
   ]]>
  </style>
 </defs>
 <g id="Capa_x0020_1">
  <metadata id="CorelCorpID_0Corel-Layer"/>
  <g>
   <path class="fil0 str0" d="M3406.63 662.23c751.66,644.49 838.59,1776.78 194.09,2528.47 -644.49,751.67 -1776.78,838.59 -2528.45,194.11 -751.68,-644.52 -838.61,-1776.79 -194.13,-2528.46"/>
  </g>
  <path class="fil1" d="M2470.03 2008.45l0 525.61c0,83.09 -18.79,145.39 -56.39,186.91 -38.08,41.53 -87.53,62.31 -149.34,62.31 -60.31,0 -108.77,-20.78 -145.84,-62.31 -37.11,-41.52 -55.89,-103.82 -55.89,-186.91l0 -629.97c0,-99.86 -3.47,-176.99 -10.37,-231.9 -6.45,-54.87 -24.74,-100.36 -54.91,-135.47 -29.65,-35.11 -77.13,-52.91 -141.89,-52.91 -129.58,0 -214.62,44.5 -255.66,133.51 -41.03,88.51 -61.81,216.1 -61.81,382.23l0 534.51c0,82.11 -18.78,144.41 -55.85,186.42 -37.11,42.02 -86.07,62.8 -146.86,62.8 -59.85,0 -108.81,-20.78 -146.86,-62.8 -38.09,-42.01 -57.36,-104.31 -57.36,-186.42l0 -1131.34c0,-74.18 17.31,-131.05 51.4,-169.59 34.13,-38.59 79.62,-57.86 135.51,-57.86 53.89,0 98.88,18.29 135.47,54.39 36.09,36.09 54.38,86.02 54.38,149.83l0 37.57c68.26,-82.07 141.92,-142.41 220.06,-180.99 78.11,-38.55 165.15,-57.85 261.09,-57.85 99.38,0 184.91,19.79 256.61,59.36 71.2,39.56 130.04,99.37 176.53,179.48 66.76,-81.09 137.96,-140.94 214.6,-180.01 76.14,-39.04 160.7,-58.83 253.17,-58.83 108.28,0 201.24,21.27 279.38,63.81 78.11,42.5 136.49,103.33 175.03,182.46 34.13,71.2 50.95,183.93 50.95,337.72l0 771.85c0,83.09 -18.81,145.39 -56.38,186.91 -37.56,41.53 -87.53,62.31 -149.34,62.31 -59.82,0 -108.77,-20.78 -146.86,-62.8 -38.06,-42.01 -57.33,-104.31 -57.33,-186.42l0 -665.04c0,-85.08 -3.47,-152.82 -10.9,-204.22 -7.42,-50.95 -26.7,-93.95 -58.34,-129.06 -32.13,-34.62 -80.1,-51.93 -144.89,-51.93 -52.39,0 -101.83,15.31 -148.33,46.46 -46.96,30.67 -83.09,72.22 -109.26,124.61 -29.19,66.26 -43.52,184.46 -43.52,353.57z"/>
 </g>
</svg>
