<!-- Generated by IcoMoon.io -->
<svg version="1.1" xmlns="http://www.w3.org/2000/svg" width="32" height="32" viewBox="0 0 32 32">
<title>emoji-molesto</title>
<path d="M9.186 28.989c-0.109-0.098-0.136-0.123-0.287-0.23-2.676-1.884-4.229-2.484-6-5.876-4.9-9.38 2.405-20.058 13.574-20.368 7.178-0.199 10.857 6.115 12.35 12.311 0.93 3.858 0.497 7.29-1.322 10.064-1.313 2.003-2.72 2.554-4.233 3.563-0.407 0.272-0.398 0.413-0.797 0.756-0.492 0.424-1.138 0.783-1.787 1.152 2.845 0.283 3.641 0.289 5.58-1.075 1.154-0.813 2.53-2.020 3.255-3.335 1.786-3.241 2.235-6.873 1.243-11.031-1.151-4.819-3.703-9.272-7.899-11.88-4.745-2.95-11.472-1.267-15.364 1.487-0.662 0.468-1.25 0.998-1.874 1.488-1.251 0.982-3.294 4.010-3.949 5.875-1.356 3.861-1.344 7.446 0.535 10.845 0.669 1.212 1.983 3.057 2.851 3.741 0.81 0.639 3.009 2.189 4.125 2.513z"></path>
<path d="M10.191 26.99c0.45-0.121 0.18 0.021 0.876-0.554 2.299-1.9 2.156-1.567 4.112-0.49 0.479 0.264 1.304 0.364 1.59 0.671-0.038-1.28-1.964-2.663-3.413-2.579-1.246 0.072-3.090 1.77-3.165 2.952z"></path>
<path d="M21.39 19.465c0.475-0.715 0.873-1.333 0.994-2.33 0.101-0.836 0.447-2.528-0.414-2.637-1.259-0.159-1.586 3.306-0.58 4.967z"></path>
<path d="M17.027 14.461l1.822-1.22c1.47-0.978 3.446-1.931 5.069-2.719 0.444-0.215 0.741-0.206 0.812-0.736-0.871-0.342-1.6 0.189-2.298 0.566-0.699 0.377-1.398 0.684-2.056 1.065-1.084 0.626-2.953 1.964-3.35 3.045z"></path>
<path d="M13.471 13.606c-0.406-1.136-1.027-2.457-1.601-3.41-0.311-0.518-0.622-1.022-0.948-1.569-0.29-0.486-0.578-1.27-1.16-1.341-0.496 0.667 0.797 2.478 1.305 3.472 0.57 1.115 1.496 2.216 2.405 2.848z"></path>
<path d="M12.567 19.326c0.317-0.862 0.706-0.881 0.779-2.106 0.046-0.772-0.010-2.225-0.815-2.156-0.668 0.057-0.708 1.535-0.789 2.224-0.147 1.259 0.269 1.455 0.825 2.038z"></path>
</svg>
