<!-- Generated by IcoMoon.io -->
<svg version="1.1" xmlns="http://www.w3.org/2000/svg" width="32" height="32" viewBox="0 0 32 32">
<title>emoji-bien</title>
<path d="M9.186 28.992c-1.472-1.321-4.051-1.824-6.288-6.106-1.679-3.214-2.13-6.298-0.874-10.159 2.047-6.294 7.897-10.027 14.449-10.209 7.178-0.199 10.857 6.115 12.351 12.311 0.929 3.858 0.496 7.29-1.322 10.064-1.313 2.003-2.72 2.554-4.233 3.563-0.694 0.463-0.222 0.566-2.584 1.908 2.846 0.283 3.642 0.289 5.58-1.075 1.154-0.813 2.53-2.020 3.255-3.335 1.787-3.243 2.235-6.873 1.243-11.031-1.482-6.206-5.951-13.087-12.964-13.42-4.010-0.19-7.81 1.265-10.3 3.027-2.521 1.784-4.747 4.299-5.823 7.363-1.356 3.861-1.343 7.446 0.535 10.845 0.669 1.212 1.983 3.057 2.851 3.741 0.81 0.639 3.009 2.189 4.125 2.513z"></path>
<path d="M12.404 24.675c0.775 1.303 0.834 1.437 2.379 2.030 2.509 0.964 4.337-0.476 6.156-1.782 0.307-0.22 1.97-1.822 2.121-2.178-0.395 0.165-3.47 2.269-4.82 2.838-2.065 0.871-3.001-0.132-4.462-0.505-0.551-0.141-0.903-0.214-1.374-0.404z"></path>
<path d="M17.168 11.412c0.048 2.41 2.099 1.486 3.654 0.926 1.893-0.682 3.041-0.665 5.044-0.179-0.599-1.665-3.349-1.232-4.596-0.808-2.328 0.791-3.169 1.924-3.957 0.335l-0.144-0.274z"></path>
<path d="M21.389 19.467c0.475-0.715 0.873-1.333 0.994-2.33 0.101-0.836 0.448-2.528-0.413-2.637-1.26-0.159-1.586 3.306-0.58 4.967z"></path>
<path d="M12.567 19.328c0.316-0.862 0.706-0.881 0.778-2.106 0.046-0.772-0.010-2.225-0.815-2.156-0.668 0.057-0.708 1.535-0.789 2.224-0.147 1.259 0.269 1.455 0.826 2.038z"></path>
<path d="M14.803 11.101c-2.165 0.902-3.448-0.764-4.524-2.191-0.879-1.164-1.884-1.242-0.19 1.268 1.782 2.638 4.165 1.76 4.714 0.923z"></path>
</svg>
