<!-- Generated by IcoMoon.io -->
<svg version="1.1" xmlns="http://www.w3.org/2000/svg" width="32" height="32" viewBox="0 0 32 32">
<title>emoji</title>
<path d="M11.231 20.993l4.077-0.184 0.811 5.363 0.24-2.234c0.095-1.017 0.265-2.052 0.314-3.073l4.060-0.042c0.612 2.961-0.219 8.646-4.705 8.682-2.188 0.017-3.458-1.289-4.127-2.673-0.62-1.281-1.006-4.282-0.67-5.838zM20.808 11.838c-1.63 0.416-2.922 2.375-2.765 2.915 0.001 0.002-0.208 0.668 0.749 0.058 1.118-0.712 2.025-0.999 3.624-0.771 0.968 0.138 1.309 0.476 1.94 0.823 1.806 0.995-0.413-3.825-3.548-3.025zM8.693 12.786c0.33 2.666 4.572 2.291 4.267-0.583-0.301-2.831-4.627-2.322-4.267 0.583zM15.14 13.55c-1.702 5.9-10.008 3.341-8.637-2.212 0.497-2.008 2.788-3.897 5.473-3.188 1.91 0.505 3.94 2.708 3.164 5.4zM10.176 7.358c-6.893 1.131-5.304 10.889 1.177 10.218 2.757-0.286 4.861-2.643 4.582-5.715-0.234-2.571-2.775-4.993-5.759-4.502zM11.805 28.504c-1.383-0.267-3.078-1.393-4.016-2.135-9.841-7.796-4.201-23.634 8.239-23.602 6.8 0.018 11.911 5.065 12.992 10.93 0.672 3.641-0.416 7.327-2.066 9.712-1.427 2.065-4.167 4.538-6.771 5.124 2.044-3.762 0.707-2.819 2.239-4.623 0.573-0.676 2.366-3.474 1.54-4.864-0.688-0.293-14.886-0.271-16.041-0.023-0.325 1.855 0.664 3.875 1.707 4.892 1.541 1.503 0.111 1.502 2.177 4.588zM30.288 17.669c1.072-8.516-5.316-15.028-12.635-15.972-8.45-1.089-15.205 5.498-15.969 12.622-0.914 8.524 5.316 15.356 12.816 16.035 8.472 0.769 14.845-5.192 15.788-12.686z"></path>
</svg>
