<!-- Generated by IcoMoon.io -->
<svg version="1.1" xmlns="http://www.w3.org/2000/svg" width="32" height="32" viewBox="0 0 32 32">
<title>emoji-positivo</title>
<path d="M9.189 28.992c-1.472-1.321-4.052-1.824-6.289-6.106-4.884-9.351 2.361-20.046 13.573-20.367 7.176-0.206 10.86 6.12 12.352 12.311 1.36 5.645-0.034 10.114-4.564 13.057-0.361 0.235-0.631 0.33-0.99 0.57-0.694 0.463-0.222 0.566-2.584 1.908 2.845 0.283 3.641 0.289 5.58-1.075 1.154-0.813 2.531-2.020 3.256-3.335 1.787-3.243 2.235-6.873 1.242-11.031-0.663-2.778-2.451-6.926-4.337-8.85-2.398-2.445-4.767-4.387-8.626-4.571-4.010-0.19-7.81 1.265-10.3 3.027-1.59 1.125-2.195 1.707-3.397 3.197-3.443 4.27-4.587 10.136-1.892 15.011 0.67 1.212 1.983 3.057 2.851 3.741 0.81 0.639 3.008 2.189 4.125 2.513z"></path>
<path d="M15.758 27.174c-1.375 0-2.379-0.275-3.231-1.555 2.424 0.863 4.702 0.141 6.825-0.603-0.348 0.528-0.681 0.729-1.092 1.063-0.604 0.491-1.228 1.096-2.501 1.096zM15.998 28.253c1.528 0 2.397-0.875 3.186-1.489l1.642-1.476c1.323-1.273 0.825-1.239 1.428-1.692 0.338-0.255 0.528-0.261 0.525-0.805-0.325 0-2.291 0.852-2.81 1.043-0.979 0.36-1.928 0.698-3.029 0.93-2.53 0.532-4.434-0.356-6.345-1.199 0.233 1.128 0.945 2.213 1.615 3.082 0.961 1.246 2.212 1.607 3.788 1.607z"></path>
<path d="M26.42 14.209c0.073-0.89-0.734-1.223-1.38-1.591-1.849-1.052-4.198-2.706-6.666-2.572l4.13 1.991c0.776 0.434 3.229 2.17 3.916 2.173z"></path>
<path d="M21.393 19.467c0.475-0.715 0.872-1.333 0.993-2.33 0.101-0.836 0.448-2.528-0.413-2.637-1.26-0.159-1.586 3.306-0.58 4.967z"></path>
<path d="M8.44 12.685c0.799 0.25 2.392-0.959 3.468-1.593 0.843-0.496 1.488-1.181 2.111-1.846 0.289-0.308 0.392-0.521 0.605-0.746-2.752 1.487-2.23 1.054-4.862 2.848-0.27 0.184-0.483 0.334-0.788 0.53-0.294 0.188-0.515 0.281-0.534 0.806z"></path>
<path d="M12.57 19.328c0.317-0.862 0.706-0.881 0.779-2.106 0.046-0.772-0.010-2.225-0.816-2.156-0.667 0.057-0.708 1.535-0.789 2.224-0.147 1.259 0.269 1.455 0.826 2.038z"></path>
</svg>
