<!-- Generated by IcoMoon.io -->
<svg version="1.1" xmlns="http://www.w3.org/2000/svg" width="32" height="32" viewBox="0 0 32 32">
<title>en-bicicleta</title>
<path d="M25.312 27.312q1.937 0 3.312-1.344t1.375-3.281-1.375-3.312-3.312-1.375-3.281 1.375-1.344 3.312 1.344 3.281 3.281 1.344zM25.312 16q2.812 0 4.751 1.937t1.937 4.751-1.937 4.719-4.751 1.907-4.719-1.907-1.907-4.719 1.907-4.751 4.719-1.937zM14.375 14l2.937 3.063v8.251h-2.625v-6.625l-4.312-3.751q-0.751-0.5-0.751-1.875 0-1.125 0.751-1.875l3.751-3.751q0.5-0.751 1.875-0.751 1.188 0 2.125 0.751l2.563 2.563q2 2 4.751 2v2.688q-3.937 0-6.751-2.812l-1.063-1.063zM6.688 27.312q1.937 0 3.281-1.344t1.344-3.281-1.344-3.312-3.281-1.375-3.312 1.375-1.375 3.312 1.375 3.281 3.312 1.344zM6.688 16q2.812 0 4.719 1.937t1.907 4.751-1.907 4.719-4.719 1.907-4.751-1.907-1.937-4.719 1.937-4.751 4.751-1.937zM20.688 7.312q-1.063 0-1.875-0.781t-0.812-1.844 0.812-1.875 1.875-0.812 1.844 0.812 0.781 1.875-0.781 1.844-1.844 0.781z"></path>
</svg>
