<?xml version="1.0" encoding="UTF-8"?>
<!DOCTYPE svg PUBLIC "-//W3C//DTD SVG 1.1//EN" "http://www.w3.org/Graphics/SVG/1.1/DTD/svg11.dtd">
<!-- Creator: CorelDRAW 2017 -->
<svg xmlns="http://www.w3.org/2000/svg" xml:space="preserve" width="12.2766mm" height="26.5852mm" version="1.1" style="shape-rendering:geometricPrecision; text-rendering:geometricPrecision; image-rendering:optimizeQuality; fill-rule:evenodd; clip-rule:evenodd"
viewBox="0 0 1227.66 2658.52"
 xmlns:xlink="http://www.w3.org/1999/xlink">
 <defs>
  <style type="text/css">
   <![CDATA[
    .fil37 {fill:#010A01}
    .fil5 {fill:#010D01}
    .fil7 {fill:#010E05}
    .fil13 {fill:#01190A}
    .fil10 {fill:#01190C}
    .fil18 {fill:#011E15}
    .fil11 {fill:#013129}
    .fil12 {fill:#01342E}
    .fil25 {fill:#032115}
    .fil35 {fill:#04140B}
    .fil23 {fill:#041C13}
    .fil8 {fill:#053631}
    .fil19 {fill:#0A342B}
    .fil30 {fill:#0B1D13}
    .fil26 {fill:#0B241C}
    .fil6 {fill:#0B3B35}
    .fil15 {fill:#0C3E3A}
    .fil38 {fill:#132C24}
    .fil51 {fill:#183427}
    .fil17 {fill:#1B433C}
    .fil45 {fill:#1C3D3A}
    .fil36 {fill:#23433D}
    .fil47 {fill:#253B36}
    .fil43 {fill:#254B4A}
    .fil42 {fill:#284A46}
    .fil14 {fill:#325B5B}
    .fil39 {fill:#335553}
    .fil48 {fill:#36453A}
    .fil1 {fill:#374B47}
    .fil16 {fill:#396265}
    .fil32 {fill:#3B5654}
    .fil4 {fill:#3E6569}
    .fil55 {fill:#464E3B}
    .fil2 {fill:#475A57}
    .fil50 {fill:#484F49}
    .fil33 {fill:#4A625C}
    .fil34 {fill:#545D5F}
    .fil28 {fill:#57645B}
    .fil49 {fill:#596865}
    .fil22 {fill:#69736C}
    .fil53 {fill:#72756C}
    .fil52 {fill:#767B77}
    .fil46 {fill:#76827B}
    .fil31 {fill:#827B7B}
    .fil56 {fill:#878984}
    .fil44 {fill:#A5978D}
    .fil21 {fill:#AB9D93}
    .fil20 {fill:#ADA39C}
    .fil29 {fill:#B4AAA2}
    .fil54 {fill:#BCBAB5}
    .fil24 {fill:#C7BDB4}
    .fil40 {fill:#D3D1CE}
    .fil0 {fill:#E2E1DD}
    .fil27 {fill:#EAEAE6}
    .fil3 {fill:#ECEEEA}
    .fil9 {fill:#F1F1F1}
    .fil41 {fill:#F2F5F2}
   ]]>
  </style>
 </defs>
 <g id="Capa_x0020_1">
  <metadata id="CorelCorpID_0Corel-Layer"/>
  <g id="_2093400396784">
   <path class="fil0" d="M1045.92 636.06l5.83 -37.84c-2.16,-1.73 -8.9,-32.63 -14.3,8.95 -7.46,57.34 -3.43,7.71 8.47,28.89z"/>
   <polygon class="fil0" points="810.87,394.03 820.35,394.03 827.42,384.57 804.68,387.36 "/>
   <path class="fil1" d="M415.4 2605.34l0.83 0.11 10.13 3.87c1.25,0.48 3.69,1.56 5.12,2.08l10.84 4.05c10.9,3.48 44.86,11.42 55.39,26.18l-92.73 4.53c10.54,20.63 73.67,13.04 98.42,13.34l-2.43 -31.28c39.96,12.77 5.9,8.28 39.3,2.89 15.48,-18.91 10.94,-24.86 23.65,-45.9l-19.45 -3.11 -4.85 32c-26.59,11.06 -18.83,10.24 -50.77,-2.95 -17.29,-7.14 -31.36,-7.24 -47.93,-21.79l-59.69 -13.33 34.17 29.31z"/>
   <path class="fil1" d="M519.05 2550.83c-21.04,-3.74 -16.47,-8.01 -13.3,13.21l17.9 3.2 -4.6 -16.41z"/>
   <path class="fil2" d="M422.29 297.23l19.87 14.67 3.14 33.36c9.08,-9.4 14.41,-11.61 6.84,-46.52 -2.71,-12.48 -9.25,-19.88 -12.95,-42.92 61.19,17.85 117.37,37.12 177.59,51.2 9.67,-22.74 -0.65,-9.48 19.54,-24.05 -20.22,-22.35 -19.26,-10.14 -42.44,-29.23 -20.75,2.52 -31.56,0.94 -53.82,-5.15 -10.18,-2.79 -14.55,-3.94 -25.02,-8.96 -13.09,-6.29 -8.57,-4.44 -16.18,-10.72 -63.93,3.49 -72.72,-11.12 -76.57,68.32z"/>
   <path class="fil2" d="M771.03 278.28c14.37,-15.31 8.81,-6.21 17.18,-34.3 3.88,-13.02 6.48,-26.52 10.02,-38.91 6.65,-23.34 20.39,-56.31 29.25,-76.11l1.87 -18.97 -20.2 21.9c-15.46,-20.48 1.18,-7.9 -32.27,-14.12 8.6,27.63 -2.63,65.72 -3.3,82.19 -1.28,30.97 -7.15,35.83 -2.55,78.32z"/>
   <path class="fil3" d="M808.27 56.07c16.91,6.51 14.32,4.06 28.53,14.58l-7.45 39.34 -1.87 18.97 13.36 38.47c2.2,26.15 -22.47,-14.32 0.42,28.58 39.48,4.5 -0.24,-7.7 19.96,2.3l7.5 6.78c-6.09,-43.46 -11.87,-0.59 -4.59,-51.75l3.46 -14.96c0.28,-1.06 0.77,-3.29 1.09,-4.32l26.61 -35.27c6.16,-3.96 7.71,-8.65 26.97,-11.65 50.09,-7.82 41.88,4.93 43.67,43.56l9.43 0c6.71,-38.74 30.81,-25.13 54.67,-45.1 -41.12,-45.62 -147.69,-43.38 -214.52,-49.36l-7.24 19.83z"/>
   <path class="fil4" d="M767.94 774.94l51.91 -180.28 -24.69 -20.09c4.27,7.51 -6.95,9.15 13.91,0.65l-17.95 -12.8c-18.85,16.82 9,15.19 -24.08,13.78 -16.88,-0.71 -9.18,-0.55 -32.65,-11.74 28.6,44.1 -24.91,69.55 16.23,105.42 -0.16,-30.02 5.34,-7.31 -24.34,-16.15 11.73,69.28 -39.72,130.92 -18.96,168.9 16.22,29.68 -3.96,3.91 26.99,25.8 9.1,-45.81 2.65,-41.71 16.62,-59.8 18.54,-24.04 -11.38,-20.9 17.01,-13.69z"/>
   <path class="fil4" d="M182.12 2443.22l-16.25 0.63 52.44 13.12 126.03 23.62 -44.35 -33.38c-1.44,-2.24 -2.77,-5.28 -3.79,-7.03l-28.32 -33.51c48.18,-39.81 4.87,-5.51 21.65,-49.57 -16.62,4.76 -11.84,4.17 -21.6,9.2l-9.65 6.03c-0.29,-1.01 -2.02,1.25 -3.03,1.88 -2.56,23.98 -17.3,73.05 -7.84,58.12 -40.02,9.97 -24.52,-4.01 -65.29,10.89z"/>
   <path class="fil5" d="M224.73 2098.28c25.43,-21.27 19.75,-2.13 26.65,-30.01 6.96,-28.08 4.72,-15.72 -12.08,-30.18 -34.62,11.99 -5.09,-0.6 -32.17,44.27 -12.52,20.75 -11.41,-1.83 -22.89,40.69l-63.39 265.02c-12.3,38.23 -15.62,32.44 -3.33,26.76 11,14.76 21.77,8.11 48.74,8.11l39.26 -61.7c16.58,-31.44 26.76,-99.54 25.26,-138.27 -1.17,-30.55 2.21,-15.33 7.94,-37.4 6.5,-25.07 4.43,-37.02 0.43,-58.14 -5.42,-28.7 7.35,-8.33 -14.42,-29.15z"/>
   <path class="fil5" d="M571.3 727l-7.54 71.82c39.01,-64.53 58.15,43.02 87.07,-104.83 0.84,-4.25 17.15,-70.62 17.52,-75.65 3.24,-44.76 -0.82,-13.28 -9.99,-33.3 -8.19,-17.87 -6.31,-3.44 8.16,-29.08l-34.49 -6.39c-25.58,24.85 -7.31,6.9 -19.09,42.1 -4.65,13.89 -7.98,22.68 -15.41,48.34 -8.49,29.28 -18.9,59.25 -26.23,86.99z"/>
   <path class="fil6" d="M223.87 1432.76c9.76,12.16 -2.87,76.75 -24.55,55.82 -0.24,-0.24 -8.58,-22.33 -9.01,-23.36l-140.18 800.1c11.06,-25.02 52.04,-124.8 55.64,-164.78 0.01,-55.19 81.91,-309.63 104.06,-381.13 17.98,-58.06 35.74,-125.98 52.42,-189.67 14.16,-54.11 51.16,-156.24 53.54,-205.52 -21.49,-3.11 -14.75,-2.23 -35.91,-6.77l-11.99 30.77c-31.1,63.51 -20.31,68.02 -20.32,68 -0.1,-1.1 0.13,5.51 0.3,11.22l-24 5.32z"/>
   <path class="fil6" d="M290.11 2146.93l12.55 -25.76c26.73,-67.5 72.37,-242.43 76.32,-303l-18.11 21.81c-1.52,2.71 -6.08,15.22 -7.25,18.72 -35.51,106.59 -62.34,166.73 -63.51,288.23z"/>
   <path class="fil7" d="M457.19 1497.76c9.59,-33.28 26.13,-73.85 23.22,-109.32 -17.5,-83.69 44.73,-182.83 36.58,-215.91 -12.85,-52.06 -9.01,-8.46 -50.45,-22.26 -1.52,2.21 -3.21,3.01 -3.9,7.02l-120.17 398.92c-8.05,22.3 -3.34,41.22 -17.26,75.96 -10.47,26.11 -38.51,146.83 -38.29,175.99 31.69,2.03 22.03,6.19 47.71,-11.22 57.63,-39.09 51.9,-190.82 67.98,-223.77 21.63,-44.28 -2.13,-57.69 54.58,-75.41z"/>
   <path class="fil7" d="M93.18 2498.6l64.35 19.48c25.62,-5.3 138.15,16.68 166.37,20.86l-0.99 -42.95c-28.95,-5.3 -49.5,-21.67 -87.42,-17.62 -49.32,-0.73 -44.18,-10.06 -79.1,-14.21 -7.65,-0.91 -52.01,-1.09 -56.94,-0.43l-6.27 34.87z"/>
   <path class="fil8" d="M827.77 627.64c-1.29,1.46 -2.98,2.03 -3.41,4.75 -0.42,2.7 -2.67,3.73 -3.23,4.82l-31.38 105.24c-11.54,46.39 -23.45,79.23 -37.54,125.97 -4.34,14.4 -13.82,40.87 -17.67,55.49l-46.68 193.57c-21.28,77.03 -128.44,448.9 -131.28,499.9 -0.5,35.78 3.14,19.5 -7.18,54.39 77.05,-10.98 34.96,-47.7 55.51,-84.35 30.69,-54.76 0.78,45.93 37.61,-91.44l36.13 -113.05c0.67,-1.13 8.24,-15.33 8.35,-15.55 7.21,-14.12 5.93,-4.44 7.39,-17.75 2.7,-24.68 -15.6,-9.81 6.5,-54.23 1.06,-2.13 4.28,-8.52 5.49,-10.67l6.24 -10.6c14.81,-22.71 15.85,-6.77 21.31,-32.28 3.6,-16.78 -14.67,-37.98 -1.08,-85.42 13.26,-46.27 3.33,14.83 22.05,-37.15 15.18,-42.15 16.57,-94.81 54.51,-190.55l22.51 -71.49c11.73,-28.96 14.73,-80 21.62,-114.27 26.51,-16.24 29.41,-12.3 44.24,-32.47 -17.71,-52.48 4.12,26.5 -12.47,-14.3 -11.39,-28.02 17.33,-36.04 27.19,-49.78 0.39,-0.54 1.51,-2.61 1.74,-3.08 0.17,-0.33 0.39,-2.24 0.46,-2.51l-1.8 -3.41c22.34,9.95 42.66,14.17 58.51,24.35 -2.91,24.42 3.26,47.45 3.28,50.06 0.15,15.65 -8.09,29.2 -10.89,46.82 -3.53,22.19 -0.22,40.75 -3.8,61.54l-68.99 232.4c3.68,47.44 -8.69,16.2 17.03,39.31l26.98 -105.92 85.89 -322.65 0.77 -7.6c-19.7,-21.09 -71.14,-31 -93.44,-47.78l-23.12 -0.05c-10.63,2.92 -29.25,8.08 -30.78,8.75 -23.91,10.53 -5.49,17.98 -46.57,10.99z"/>
   <path class="fil8" d="M299.99 2447.21l44.35 33.38 -126.03 -23.62c6.67,7.74 13.99,17.49 17.18,21.4 37.92,-4.05 58.47,12.32 87.42,17.62 18.17,4.54 28.67,3.51 40.78,8.83 32.58,14.31 -10.01,29.16 39,10.32l15.73 -19.2c-15.46,-39.62 7.96,21.31 -9.44,-15.54 -10.31,-21.84 -19,-81.25 -11.06,-96.92 -21.45,7.21 -31.27,3.91 -42.56,8.39 -19.21,7.63 -12.02,5.26 -28.28,26.55 -11.05,5.12 -8.76,1.66 -17.21,-3.63 -1.57,-43.18 6.45,-60.97 6.54,-94.38 -18.61,21.91 -17.89,91.44 -16.42,126.8z"/>
   <path class="fil9" d="M841.26 196.01c0.88,1.69 8.89,23.49 10.51,27.55 -41.99,40.15 -17.8,39.54 -28,69.94 -8.68,25.87 -64.29,62.87 4.54,61.76 -66.19,-11.65 -20,10.45 -19.11,12.09 29.52,12.94 21.56,5.55 40.04,26.64l-11.16 23.44c-2.2,2.5 -5.65,11.46 -16.5,13.62 -29.11,5.81 -29.8,-8.92 -29.96,-9.02l1.9 -11.84c-38.19,-11.19 -4.95,-13.01 -26.69,3.33 -19.96,15 -0.6,49.91 21.15,55.48 1.64,0.42 10.27,-1.2 11.34,-2.01 -37.06,1.09 -15.35,11.24 -16.23,24.35 0.28,0.14 14.21,30.64 51.47,-5.03 15.61,-14.95 26.84,-24.1 39.82,-35.25 16.15,-45.64 34.8,-108.86 48.63,-154.33 16.46,-54.15 33.69,-105.03 42.92,-166.03 -1.79,-38.63 6.42,-51.38 -43.67,-43.56 -19.26,3 -20.81,7.69 -26.97,11.65l-26.61 35.27c-0.32,1.03 -0.81,3.26 -1.09,4.32l-3.46 14.96c-7.28,51.16 -1.5,8.29 4.59,51.75l-7.5 -6.78c-20.2,-10 19.52,2.2 -19.96,-2.3z"/>
   <path class="fil10" d="M224.73 2098.28c21.77,20.82 9,0.45 14.42,29.15 4,21.12 6.07,33.07 -0.43,58.14 -5.73,22.07 -9.11,6.85 -7.94,37.4 1.5,38.73 -8.68,106.83 -25.26,138.27l-39.26 61.7c-26.97,0 -37.74,6.65 -48.74,-8.11 -12.29,5.68 -8.97,11.47 3.33,-26.76l63.39 -265.02c11.48,-42.52 10.37,-19.94 22.89,-40.69 27.08,-44.87 -2.45,-32.28 32.17,-44.27 16.8,14.46 19.04,2.1 12.08,30.18 -6.9,27.88 -1.22,8.74 -26.65,30.01zm275.8 -942.7c-9.38,-26.16 -5.84,-100.01 -3.88,-133.44 2.84,-48.39 17.1,-80.81 59.16,-104.21l6.07 12.75c0.84,1.69 2.11,4.46 2.97,6.12 1.01,1.97 0.39,25.24 6.28,11.15 0.49,-1.15 2.04,3.58 3.31,5.18 -35.73,68.82 -13.65,43.27 -33.01,107.54l-13.25 33.43c-16.21,48.8 -2.18,38.71 -27.65,61.48zm132.67 -614.09l-1.17 8.08 34.49 6.39c-14.47,25.64 -16.35,11.21 -8.16,29.08 9.17,20.02 13.23,-11.46 9.99,33.3 -0.37,5.03 -16.68,71.4 -17.52,75.65 -28.92,147.85 -48.06,40.3 -87.07,104.83l7.54 -71.82c-14.38,12.41 -6.15,1.84 -16.37,22.37 -5.47,10.97 -4.71,14.68 -8.1,24.85 -6.72,20.19 -10.31,20.73 -18.24,43.9l-47.97 196.57c-31.81,106.7 -15.1,75.57 -46.55,84.13 -0.51,-2.39 -0.74,-5.48 -0.82,-7.3 -0.08,-1.77 -0.56,-5.01 -0.6,-7.17 -0.03,-2.08 -0.23,-4.67 -0.18,-6.93 0.05,-1.67 1.87,-16.84 2.29,-19.43l128.93 -498.68 -5.15 -10.37c-22.27,20.94 -23.43,43.81 -33.99,80.68 -6.6,23.03 -16.72,59.09 -24.15,79.1l-184.61 615.5c-2.38,49.28 -39.38,151.41 -53.54,205.52 -16.68,63.69 -34.44,131.61 -52.42,189.67 -22.15,71.5 -104.05,325.94 -104.06,381.13 11.54,-39.55 34.04,-79.48 32.8,-117l101.09 -311.83c16.68,-41.32 24.28,-55.19 38.37,-97.21 9.54,-28.44 10.21,-9.93 13.28,-34.61 7.72,-62.02 88.5,-311.5 109.47,-350.07 -0.78,29.55 -13.27,91.27 -20.84,124.18 -22.45,97.62 -55.17,180.94 -73.46,278.38 -3.22,17.15 -9.35,30.61 -15.98,54.78 -17.88,65.1 -41.11,166.05 -67.05,223.33 -12.77,28.19 -8.12,18.12 -17.16,55.83 -16.4,68.47 -48.19,108.19 -48.19,163.8 -21.6,-7.18 -31.85,-1.92 -16.23,-8.03 0.8,2.62 1.12,5.94 1.25,8.12l-39.82 163.92c-0.56,-1.28 -2.21,4.31 -3.42,6.42l-50.74 158.25c24.43,3.4 13.02,4.67 35.92,12.94 -21.66,26.7 -33.93,22.99 -17.99,74.86l14.44 -6.95 11.67 -1.05 6.27 -34.87c4.93,-0.66 49.29,-0.48 56.94,0.43 34.92,4.15 29.78,13.48 79.1,14.21 -3.19,-3.91 -10.51,-13.66 -17.18,-21.4l-52.44 -13.12 16.25 -0.63c20.25,-37.8 50.79,-84.76 71.7,-136.01 9.67,-23.69 34.38,-135.11 36.29,-160.28 1.17,-121.5 28,-181.64 63.51,-288.23 1.17,-3.5 5.73,-16.01 7.25,-18.72l18.11 -21.81 78.21 -320.41c-56.71,17.72 -32.95,31.13 -54.58,75.41 -16.08,32.95 -10.35,184.68 -67.98,223.77 -25.68,17.41 -16.02,13.25 -47.71,11.22 -0.22,-29.16 27.82,-149.88 38.29,-175.99 13.92,-34.74 9.21,-53.66 17.26,-75.96l120.17 -398.92c0.69,-4.01 2.38,-4.81 3.9,-7.02 41.44,13.8 37.6,-29.8 50.45,22.26 8.15,33.08 -54.08,132.22 -36.58,215.91l61.89 -212.58c17.23,-69.14 36.79,-142.15 54.9,-213.95l105.02 -415.61 -17.88 -14.41c23.84,-17.04 24.85,-23.58 29.17,-51.7 -2.72,-1.29 -24.69,12.31 -8.15,-19.35l5.68 -10.47c11.07,-25.87 -8.17,-67.4 -9.15,-72.25 0.79,-24.57 -14.54,25.24 7.44,-8.39 12.87,-19.71 20.27,-30.18 -17.46,-48.59 -11.7,36.92 -59.61,186.88 -58.67,220.35z"/>
   <path class="fil11" d="M422.3 2133.63c-30.63,25.39 -31.33,98.69 -46.42,141.11 -8.53,24 -11.46,37.59 -19.34,66.57 -7.69,28.34 -21.54,46.46 -29.46,77.11 16.26,-21.29 9.07,-18.92 28.28,-26.55 11.29,-4.48 21.11,-1.18 42.56,-8.39 -7.94,15.67 0.75,75.08 11.06,96.92 17.4,36.85 -6.02,-24.08 9.44,15.54l-15.73 19.2c-12.42,29.41 -8.7,7.19 16.15,21.59 50.86,29.46 71.81,-11.96 86.08,-25.74 2.71,-47.62 206.22,-728.23 239.33,-849.42l20.28 -60.69c13.44,-46.99 20.54,-93.71 39.2,-135.66 -6.18,-2.04 -20.57,-1.29 -28.76,-8.12 14.73,-123.01 31.64,-75.28 36.62,-97.35l-0.12 -174.46c23.47,-5.84 -8.39,4.94 20.04,-4.84 20.42,-7.02 7.45,1.25 20.54,-9.5 -14.33,-28.02 -5.26,-70.44 4.26,-94.34 23.42,-58.76 8.18,-32.27 9.83,-96.82 23.65,4.84 10.34,9.74 4.3,-31.34l-6.24 -27.89c-1.14,1.76 -2.53,2.54 -2.92,5.57 -0.39,3.03 -2.28,4.32 -2.79,5.64 -0.64,1.69 -3.78,9.48 -4.51,11.9l-12.93 105.31 -50.84 25.78c-0.88,110.19 6.01,16.08 7.3,64.55l-12.97 35.74c-0.69,2.19 -2.47,8.3 -2.73,10.27 -1.33,10.1 0.81,8.79 1.27,12.66l-12.11 68.52c-15.53,46.7 -24.23,42.69 -58.12,50.02l-81.63 298.44c-21.63,68.94 -33.12,67.32 -35.89,79.56l0.74 30.45c0.99,44.9 -3.67,28.69 -22.49,58.27 -22.8,35.85 -5.56,23.49 -18.48,71.84 -33.11,123.94 -27.31,31.45 -43.02,100.22 -10.53,46.13 15.36,47.8 -34.21,107.06 -18.42,22.01 2.66,83.35 -31.79,118.84 -8.19,8.43 0.44,2.16 -8.25,5.8 -1.19,0.5 -4.03,0.75 -5.2,1.03l-10.33 -54.4z"/>
   <path class="fil12" d="M556.58 1617.38c-19.58,27.08 -28.53,86.22 -38.82,126.34 -12.67,49.34 -21.14,84.59 -32.25,128.44 -21.49,84.85 -67.14,182.09 -63.21,261.47l10.33 54.4c1.17,-0.28 4.01,-0.53 5.2,-1.03 8.69,-3.64 0.06,2.63 8.25,-5.8 34.45,-35.49 13.37,-96.83 31.79,-118.84 49.57,-59.26 23.68,-60.93 34.21,-107.06 15.71,-68.77 9.91,23.72 43.02,-100.22 12.92,-48.35 -4.32,-35.99 18.48,-71.84 18.82,-29.58 23.48,-13.37 22.49,-58.27l-0.74 -30.45c2.77,-12.24 14.26,-10.62 35.89,-79.56l81.63 -298.44c33.89,-7.33 42.59,-3.32 58.12,-50.02l12.11 -68.52c-0.46,-3.87 -2.6,-2.56 -1.27,-12.66 0.26,-1.97 2.04,-8.08 2.73,-10.27l12.97 -35.74c-1.29,-48.47 -8.18,45.64 -7.3,-64.55l50.84 -25.78 12.93 -105.31c0.73,-2.42 3.87,-10.21 4.51,-11.9 0.51,-1.32 2.4,-2.61 2.79,-5.64 0.39,-3.03 1.78,-3.81 2.92,-5.57l6.24 27.89c6.04,41.08 19.35,36.18 -4.3,31.34 -1.65,64.55 13.59,38.06 -9.83,96.82 -9.52,23.9 -18.59,66.32 -4.26,94.34 -13.09,10.75 -0.12,2.48 -20.54,9.5 -28.43,9.78 3.43,-1 -20.04,4.84l0.12 174.46c-4.98,22.07 -21.89,-25.66 -36.62,97.35 8.19,6.83 22.58,6.08 28.76,8.12l104.31 -373.32c-25.72,-23.11 -13.35,8.13 -17.03,-39.31l68.99 -232.4c3.58,-20.79 0.27,-39.35 3.8,-61.54 2.8,-17.62 11.04,-31.17 10.89,-46.82 -0.02,-2.61 -6.19,-25.64 -3.28,-50.06 -15.85,-10.18 -36.17,-14.4 -58.51,-24.35l1.8 3.41c-0.07,0.27 -0.29,2.18 -0.46,2.51 -0.23,0.47 -1.35,2.54 -1.74,3.08 -9.86,13.74 -38.58,21.76 -27.19,49.78 16.59,40.8 -5.24,-38.18 12.47,14.3 -14.83,20.17 -17.73,16.23 -44.24,32.47 -6.89,34.27 -9.89,85.31 -21.62,114.27l-22.51 71.49c-37.94,95.74 -39.33,148.4 -54.51,190.55 -18.72,51.98 -8.79,-9.12 -22.05,37.15 -13.59,47.44 4.68,68.64 1.08,85.42 -5.46,25.51 -6.5,9.57 -21.31,32.28l-6.24 10.6c-1.21,2.15 -4.43,8.54 -5.49,10.67 -22.1,44.42 -3.8,29.55 -6.5,54.23 -1.46,13.31 -0.18,3.63 -7.39,17.75 -0.11,0.22 -7.68,14.42 -8.35,15.55l-36.13 113.05c-36.83,137.37 -6.92,36.68 -37.61,91.44 -20.55,36.65 21.54,73.37 -55.51,84.35 10.32,-34.89 6.68,-18.61 7.18,-54.39z"/>
   <path class="fil13" d="M908.04 1091.9l-104.31 373.32c-18.66,41.95 -25.76,88.67 -39.2,135.66l-20.28 60.69c-33.11,121.19 -236.62,801.8 -239.33,849.42l14.13 39.84 4.6 16.41 -17.9 -3.2 -22.98 0.51c18.44,55.08 2.86,10.58 -8.12,28.74l-33.73 -3.93c16.57,14.55 30.64,14.65 47.93,21.79 31.94,13.19 24.18,14.01 50.77,2.95l4.85 -32c-2.17,-17.34 0.74,-6.19 -9.47,-30.52l24.09 -7.75c1.78,-0.87 4.7,-3.11 7.08,-4.63 14.42,-39.74 26.86,-101.63 40.49,-145.28 58.03,-185.81 268.02,-966.28 294.36,-1031.88l17.42 -59.14 -6.5 -54.49c0.48,-2.64 1.24,-4.44 1.76,-7.01 0.52,-2.52 1.08,-4.42 1.58,-6.9l27.48 -104.15c66.74,-194.83 34.34,-134.92 18.87,-151.99 -2.27,15.66 9.76,2.67 -26.61,7.62l-26.98 105.92z"/>
   <path class="fil14" d="M480.41 1388.44c2.91,35.47 -13.63,76.04 -23.22,109.32l-78.21 320.41c-3.95,60.57 -49.59,235.5 -76.32,303l-12.55 25.76c-1.91,25.17 -26.62,136.59 -36.29,160.28 -20.91,51.25 -51.45,98.21 -71.7,136.01 40.77,-14.9 25.27,-0.92 65.29,-10.89 -9.46,14.93 5.28,-34.14 7.84,-58.12 1.01,-0.63 2.74,-2.89 3.03,-1.88l9.65 -6.03c9.76,-5.03 4.98,-4.44 21.6,-9.2 -16.78,44.06 26.53,9.76 -21.65,49.57l28.32 33.51c1.02,1.75 2.35,4.79 3.79,7.03 -1.47,-35.36 -2.19,-104.89 16.42,-126.8 -1.64,-35.87 105.92,-373.8 125.2,-441.15 21.44,-74.86 45.6,-140.56 66.34,-217.98 16.74,-62.47 43.74,-155.88 66.93,-212.29 -44.72,11.69 -41,0.72 -43.38,0 -4.45,-22.12 -6.92,-29.36 3.54,-47.7l4.58 -1c-5.02,-18.26 -0.52,-87.42 4.88,-122.59 4.23,-27.62 11.15,-40.72 14.71,-54.56l-5.88 -34.84c0.78,-0.18 3.54,-0.5 4.33,-0.77 23.39,-8.04 -3.77,14.48 8.54,-5.4 0.13,-0.21 4.44,-25.08 5.84,-36.03 18.62,3.27 20.53,6.39 27.69,4.77 -19.18,-21.89 -13.55,-3.8 -11.16,-38.02 2.35,-33.46 21.6,-68.17 34.42,-125.26 5.32,-23.67 8.24,-51.95 14.79,-73.5 30.94,-101.62 23.98,-125.38 55.44,-187.73 0.52,-1.03 3.21,-4.22 3.64,-10.25 2.48,-35.44 -6.61,36.45 -4.48,-20.16l44.76 -129.36c0.92,-1.24 3.56,-2.21 4.25,-5.38 0.69,-3.27 3.09,-3.53 4.47,-5.43l-31.71 -7.78 -11.93 -1.7 -105.02 415.61c-18.11,71.8 -37.67,144.81 -54.9,213.95l-61.89 212.58z"/>
   <path class="fil15" d="M223.87 1432.76l24 -5.32c-0.17,-5.71 -0.4,-12.32 -0.3,-11.22 0.01,0.02 -10.78,-4.49 20.32,-68l11.99 -30.77c21.16,4.54 14.42,3.66 35.91,6.77l184.61 -615.5c-6.59,-45.01 18.43,-136.02 32.95,-192.27 0.06,-0.22 3.63,-2.92 4.85,-18.11 2.5,-31.55 5.4,-12.17 -6.74,-34.19 -22.88,15.07 -34.85,26.26 -19.04,59.69l-29.43 24.66c-5.92,7.58 -17.58,26.19 -23.3,34.12 -27.07,-35.75 -13.24,-81.35 -14.82,-103.43l-41.02 86.47c-31.93,84.48 -20.62,55.26 -37.82,133.44 -0.25,1.15 -0.91,3.48 -1.17,4.55 -0.25,1.01 -1.03,3.25 -1.28,4.22l-21.93 88.51c-0.27,0.61 -1.46,2.67 -1.73,3.18 -5.62,11.08 -7.02,-14.28 -3.27,8.33l-80.3 453.6c-11.09,50.77 -19.22,117.75 -32.48,171.27z"/>
   <path class="fil16" d="M574.88 1448.99l193.06 -674.05c-28.39,-7.21 1.53,-10.35 -17.01,13.69 -13.97,18.09 -7.52,13.99 -16.62,59.8 -30.95,-21.89 -10.77,3.88 -26.99,-25.8 -20.76,-37.98 30.69,-99.62 18.96,-168.9 29.68,8.84 24.18,-13.87 24.34,16.15 -41.14,-35.87 12.37,-61.32 -16.23,-105.42 23.47,11.19 15.77,11.03 32.65,11.74 33.08,1.41 5.23,3.04 24.08,-13.78l-45.26 -6.64c-1.38,1.9 -3.78,2.16 -4.47,5.43 -0.69,3.17 -3.33,4.14 -4.25,5.38l-44.76 129.36c-2.13,56.61 6.96,-15.28 4.48,20.16 -0.43,6.03 -3.12,9.22 -3.64,10.25 -31.46,62.35 -24.5,86.11 -55.44,187.73 -6.55,21.55 -9.47,49.83 -14.79,73.5 -12.82,57.09 -32.07,91.8 -34.42,125.26 -2.39,34.22 -8.02,16.13 11.16,38.02 -7.16,1.62 -9.07,-1.5 -27.69,-4.77 -1.4,10.95 -5.71,35.82 -5.84,36.03 -12.31,19.88 14.85,-2.64 -8.54,5.4 -0.79,0.27 -3.55,0.59 -4.33,0.77l5.88 34.84c-3.56,13.84 -10.48,26.94 -14.71,54.56 -5.4,35.17 -9.9,104.33 -4.88,122.59l-4.58 1c-10.46,18.34 -7.99,25.58 -3.54,47.7 2.38,0.72 -1.34,11.69 43.38,0z"/>
   <path class="fil17" d="M364.77 438.16l-174.46 1027.06c0.43,1.03 8.77,23.12 9.01,23.36 21.68,20.93 34.31,-43.66 24.55,-55.82 13.26,-53.52 21.39,-120.5 32.48,-171.27l80.3 -453.6c-3.75,-22.61 -2.35,2.75 3.27,-8.33 0.27,-0.51 1.46,-2.57 1.73,-3.18l21.93 -88.51c0.25,-0.97 1.03,-3.21 1.28,-4.22 0.26,-1.07 0.92,-3.4 1.17,-4.55 17.2,-78.18 5.89,-48.96 37.82,-133.44l41.02 -86.47c1.58,22.08 -12.25,67.68 14.82,103.43 5.72,-7.93 17.38,-26.54 23.3,-34.12l29.43 -24.66c-15.81,-33.43 -3.84,-44.62 19.04,-59.69 12.14,22.02 9.24,2.64 6.74,34.19 -1.22,15.19 -4.79,17.89 -4.85,18.11 -14.52,56.25 -39.54,147.26 -32.95,192.27 7.43,-20.01 17.55,-56.07 24.15,-79.1 10.56,-36.87 11.72,-59.74 33.99,-80.68 8.87,-32.93 7.75,-72 -0.64,-106.21l-38.11 -6.39c-26.16,3.89 -36.36,10.12 -57.42,18.8 -45.84,18.9 -2.32,-5.67 -34.66,3.78l-51.3 76.73 3.02 -64.63 1.4 -70.3 -11.64 1.64 -4.42 35.8z"/>
   <path class="fil18" d="M767.94 774.94l-193.06 674.05c-23.19,56.41 -50.19,149.82 -66.93,212.29 -20.74,77.42 -44.9,143.12 -66.34,217.98 -19.28,67.35 -126.84,405.28 -125.2,441.15 -0.09,33.41 -8.11,51.2 -6.54,94.38 8.45,5.29 6.16,8.75 17.21,3.63 7.92,-30.65 21.77,-48.77 29.46,-77.11 7.88,-28.98 10.81,-42.57 19.34,-66.57 15.09,-42.42 15.79,-115.72 46.42,-141.11 -3.93,-79.38 41.72,-176.62 63.21,-261.47 11.11,-43.85 19.58,-79.1 32.25,-128.44 10.29,-40.12 19.24,-99.26 38.82,-126.34 2.84,-51 110,-422.87 131.28,-499.9l46.68 -193.57c3.85,-14.62 13.33,-41.09 17.67,-55.49 14.09,-46.74 26,-79.58 37.54,-125.97l31.38 -105.24c0.56,-1.09 2.81,-2.12 3.23,-4.82 0.43,-2.72 2.12,-3.29 3.41,-4.75l2.73 -31.49 -10.65 -1.49 -51.91 180.28z"/>
   <path class="fil19" d="M138.57 1983.54c7.99,5.12 20.48,-9.25 2.76,57.96 -13.12,49.79 -45.57,121.42 -42.32,178.77l0.87 40.28c1.21,-2.11 2.86,-7.7 3.42,-6.42l39.82 -163.92c-0.13,-2.18 -0.45,-5.5 -1.25,-8.12 -15.62,6.11 -5.37,0.85 16.23,8.03 0,-55.61 31.79,-95.33 48.19,-163.8 9.04,-37.71 4.39,-27.64 17.16,-55.83 25.94,-57.28 49.17,-158.23 67.05,-223.33 6.63,-24.17 12.76,-37.63 15.98,-54.78 18.29,-97.44 51.01,-180.76 73.46,-278.38 7.57,-32.91 20.06,-94.63 20.84,-124.18 -20.97,38.57 -101.75,288.05 -109.47,350.07 -3.07,24.68 -3.74,6.17 -13.28,34.61 -14.09,42.02 -21.69,55.89 -38.37,97.21l-101.09 311.83z"/>
   <path class="fil20" d="M988.51 374.02l35.86 -2.1c-11.39,18.22 0.02,-1.39 2.47,-2.12 10.73,-3.2 -2.58,-9.11 17.37,-2.15l8.91 40.78 22.05 1.92c9.61,11.43 1.38,4.55 3.13,20.99 20.27,-8.66 5.92,15.47 29.14,-69.77 22.64,-83.17 89.69,-208.34 41.44,-233.4l-10.98 -1.93c-47.17,5 -41.4,-0.88 -78.96,-8.22 1.86,-1.08 4.36,-32.01 5.35,3.6 0.29,10.25 2.67,-0.95 -2.67,13.29 -2.66,7.1 -16.87,32.12 -17.91,35.46 -23.21,73.48 23.21,23.64 8.75,82.19 -10.69,43.32 -15.3,-9.61 -43.46,89.12 -0.34,1.17 -5.87,14.05 -5.91,14.11l-10.51 13.71c-0.78,0.97 -2.71,3.02 -4.07,4.52z"/>
   <path class="fil21" d="M988.51 374.02c-18.98,25.76 -39.6,85.84 -46.26,112.65 -19.99,80.43 8.97,24.68 -9.84,112.55l-4.17 8.73c22.3,16.78 73.74,26.69 93.44,47.78 21.49,-9.45 4.91,12.78 24.24,-19.67 -11.9,-21.18 -15.93,28.45 -8.47,-28.89 5.4,-41.58 12.14,-10.68 14.3,-8.95l11.67 -9.49c2.48,-25.33 3.61,-60.36 11.57,-80.44l2.1 -23.23c-35.94,26.68 31.03,-1.8 -12.85,4.35 -1.17,0.16 -3.56,0.74 -4.85,0.8l-25.25 -3.4c-1.32,-2.86 -5.13,-1.25 -7.58,-2.2l16.14 -50.04c-1.45,-2.17 -3.97,-4.7 -5.28,-5.79 -1.15,-0.95 -3.78,-3.57 -5.09,-4.55l-12.71 -5.87c-0.35,-1.24 -2.26,0.42 -3.24,-0.02 12,-10.02 10.17,-11.81 36.74,-9.91l-8.91 -40.78c-19.95,-6.96 -6.64,-1.05 -17.37,2.15 -2.45,0.73 -13.86,20.34 -2.47,2.12l-35.86 2.1z"/>
   <path class="fil22" d="M697.71 115.16l-11.03 19.14c-0.72,1.78 -1.38,4.06 -2.04,5.96l-22.39 85.93 -9.6 5.52c-0.3,29.2 0.23,28.96 -16.33,51.26 5.62,28.39 -0.57,1.49 -5.39,20.16 -5.41,20.93 9.46,34.99 -24.12,93.62l-32.01 148.35 50.04 -3.66 8.36 0.05c-0.94,-33.47 46.97,-183.43 58.67,-220.35l32.83 -111.67 46.15 -143.48 -35.21 -3.71c-4.81,50.56 -6.85,20.44 -16.03,13.25l7.3 25.51c0.05,0.5 -1.82,19.27 -2.33,25.87 -1.48,-2.26 -7.59,-9.82 -8.78,-10.45 -5.27,-2.84 2.2,-2.71 -18.09,-1.3z"/>
   <path class="fil23" d="M935.02 985.98c36.37,-4.95 24.34,8.04 26.61,-7.62 15.47,17.07 47.87,-42.84 -18.87,151.99l-27.48 104.15c-0.5,2.48 -1.06,4.38 -1.58,6.9 -0.52,2.57 -1.28,4.37 -1.76,7.01l6.5 54.49 71.47 -267.73 82.4 -307.15 -5.97 -59.22 -45.43 -5.47 -85.89 322.65z"/>
   <path class="fil24" d="M832.06 25.31c-50.53,2.45 -60.55,1.79 -94.03,22.2l40.64 5.78 29.6 2.78 7.24 -19.83c66.83,5.98 173.4,3.74 214.52,49.36 -23.86,19.97 -47.96,6.36 -54.67,45.1 3,11.82 2.63,3.83 14.54,11.71l-101.48 340.66 -13.09 -13.61c-16.6,12.59 -28.22,29.76 -27.24,54.44 1.68,41.71 28.75,18.19 10.34,52.92 12.93,11.98 -1.84,1.46 19.41,13.21 2.1,1.16 9.24,4.04 11.38,5.34 11.46,7.02 8.75,5.6 15.9,12.53l23.12 0.05 4.17 -8.73c-29.18,-14.22 -9.83,7.19 -20.03,-28.75 -1.55,-5.48 -0.74,-14.57 -0.92,-16.76 -9.78,-122.7 45.67,-158.45 78.4,-275.79l37.65 -162.85c11,-30.51 -5.65,9.47 18.45,-22.86l-0.85 -15.17c-7.62,-9.14 0.88,-2.91 -14.5,-11.61l-111.03 -34.41c-13.22,-5.5 11.12,1.68 -10.86,-4.57l-76.66 -1.14z"/>
   <path class="fil25" d="M563.69 559.31l-128.93 498.68c-0.42,2.59 -2.24,17.76 -2.29,19.43 -0.05,2.26 0.15,4.85 0.18,6.93 0.04,2.16 0.52,5.4 0.6,7.17 0.08,1.82 0.31,4.91 0.82,7.3 31.45,-8.56 14.74,22.57 46.55,-84.13l47.97 -196.57c7.93,-23.17 11.52,-23.71 18.24,-43.9 3.39,-10.17 2.63,-13.88 8.1,-24.85 10.22,-20.53 1.99,-9.96 16.37,-22.37 7.33,-27.74 17.74,-57.71 26.23,-86.99 7.43,-25.66 10.76,-34.45 15.41,-48.34 11.78,-35.2 -6.49,-17.25 19.09,-42.1l1.17 -8.08 -8.36 -0.05c-2.17,1.16 -5.06,2.05 -6.91,2.6 -1.86,0.55 -4.74,1.7 -7.04,2.34l-35.57 7.99c-1.49,0.41 -4.92,4.16 -5.97,2.34 -1.02,-1.78 -3.95,1.43 -5.66,2.6z"/>
   <path class="fil26" d="M322.91 2495.99l0.99 42.95c-28.22,-4.18 -140.75,-26.16 -166.37,-20.86 19.23,36.55 44.07,23.85 20.57,37.72l-28.03 8.87c2.34,1.03 6,-0.73 7.44,1.92 1.38,2.56 5.35,1.42 7.29,1.43 28.08,0.08 21.05,-3.22 58.23,-13.92 8.68,25.36 35.8,35.97 68.47,40.33 37.97,5.07 32.44,-3.36 61.14,8.39 34.36,14.07 -8.33,9.95 18.98,10.05l43.78 -7.53 -34.17 -29.31 59.69 13.33 33.73 3.93c10.98,-18.16 26.56,26.34 8.12,-28.74l22.98 -0.51c-3.17,-21.22 -7.74,-16.95 13.3,-13.21l-14.13 -39.84c-14.27,13.78 -35.22,55.2 -86.08,25.74 -24.85,-14.4 -28.57,7.82 -16.15,-21.59 -49.01,18.84 -6.42,3.99 -39,-10.32 -12.11,-5.32 -22.61,-4.29 -40.78,-8.83z"/>
   <path class="fil27" d="M771.03 278.28c0.4,22.52 0.64,46.02 -17.2,62.02 0.19,30.13 -5.58,49.32 -13.29,75.24 -3.76,12.63 -6.61,25.69 -11.69,38.64 -12.57,32.08 -1.61,11.78 -15.34,26.01 -4.32,28.12 -5.33,34.66 -29.17,51.7l17.88 14.41 11.93 1.7 39.42 -43.61c19.99,5.45 55,-37.6 81.97,36.58l4.21 11.17c6.32,23.64 14.03,-7.01 0.77,17.44 5.7,11.32 -8.52,9.63 17.91,7.24 18.41,-34.73 -8.66,-11.21 -10.34,-52.92 -0.98,-24.68 10.64,-41.85 27.24,-54.44l-0.95 -18.4c-12.98,11.15 -24.21,20.3 -39.82,35.25 -37.26,35.67 -51.19,5.17 -51.47,5.03 0.88,-13.11 -20.83,-23.26 16.23,-24.35 -1.07,0.81 -9.7,2.43 -11.34,2.01 -21.75,-5.57 -41.11,-40.48 -21.15,-55.48 21.74,-16.34 -11.5,-14.52 26.69,-3.33l-0.19 -24.67 10.59 -6.83 5.28 -11.34c-0.89,-1.64 -47.08,-23.74 19.11,-12.09 -68.83,1.11 -13.22,-35.89 -4.54,-61.76 10.2,-30.4 -13.99,-29.79 28,-69.94 -1.62,-4.06 -9.63,-25.86 -10.51,-27.55 -22.89,-42.9 1.78,-2.43 -0.42,-28.58l-13.36 -38.47c-8.86,19.8 -22.6,52.77 -29.25,76.11 -3.54,12.39 -6.14,25.89 -10.02,38.91 -8.37,28.09 -2.81,18.99 -17.18,34.3z"/>
   <path class="fil28" d="M1074.99 508.29c-7.96,20.08 -9.09,55.11 -11.57,80.44 17.37,-3.18 7.05,-0.08 29.35,8.23 -27.03,15.19 -31.42,25.55 -26.43,71.84l5.97 59.22 20.03 -5.15c-14.87,-51.31 65.3,-285.54 91.1,-382.4 8.51,-31.95 20.67,-102.92 42.83,-122.52l-3.67 -48.74 -16.36 -9.85c-3.77,18.34 -82,301.58 -120.5,323.9 37.07,31.69 17.43,3.7 26.28,23.57 -12.46,21.66 -5.59,14.21 -12.67,32.64 -8.08,21.03 3.85,21.14 -16.06,16.88 0.76,-2.59 3.14,-7.11 4.45,-11.5 3.02,-10.16 4.77,-11.62 7.18,-29.12 -13.07,-12.05 7.83,-14.18 -19.93,-7.44z"/>
   <path class="fil29" d="M932.41 599.22c18.81,-87.87 -10.15,-32.12 9.84,-112.55 6.66,-26.81 27.28,-86.89 46.26,-112.65 1.36,-1.5 3.29,-3.55 4.07,-4.52l10.51 -13.71c0.04,-0.06 5.57,-12.94 5.91,-14.11 28.16,-98.73 32.77,-45.8 43.46,-89.12 14.46,-58.55 -31.96,-8.71 -8.75,-82.19 1.04,-3.34 15.25,-28.36 17.91,-35.46 5.34,-14.24 2.96,-3.04 2.67,-13.29 -0.99,-35.61 -3.49,-4.68 -5.35,-3.6 37.56,7.34 31.79,13.22 78.96,8.22 -10.58,-4.75 -17.09,-8.71 -25.76,-19.61l-66.18 -14.42c-24.1,32.33 -7.45,-7.65 -18.45,22.86l-37.65 162.85c-32.73,117.34 -88.18,153.09 -78.4,275.79 0.18,2.19 -0.63,11.28 0.92,16.76 10.2,35.94 -9.15,14.53 20.03,28.75z"/>
   <path class="fil30" d="M85.06 2560.73c35.62,27.92 259.1,88.69 319.92,85.43l92.73 -4.53c-10.53,-14.76 -44.49,-22.7 -55.39,-26.18l-10.84 -4.05c-1.43,-0.52 -3.87,-1.6 -5.12,-2.08l-10.13 -3.87c-0.65,0.43 -16.96,11.61 -17.27,11.68 -46.92,10.06 -11.08,5.81 -27.34,-4.26 -27.31,-0.1 15.38,4.02 -18.98,-10.05 -28.7,-11.75 -23.17,-3.32 -61.14,-8.39 -32.67,-4.36 -59.79,-14.97 -68.47,-40.33 -37.18,10.7 -30.15,14 -58.23,13.92 -1.94,-0.01 -5.91,1.13 -7.29,-1.43 -1.44,-2.65 -5.1,-0.89 -7.44,-1.92l-13.38 -30.5c-35.54,-16.53 2.8,-19.7 -43.3,-17.92 -31.88,1.23 -36.45,20.14 -36.58,20.27l28.25 24.21z"/>
   <path class="fil31" d="M1112.14 106.63c8.67,10.9 15.18,14.86 25.76,19.61l10.98 1.93c48.25,25.06 -18.8,150.23 -41.44,233.4 -23.22,85.24 -8.87,61.11 -29.14,69.77l1.56 13.46c0.05,1.81 0.15,4.42 0.14,6.41l-2.91 33.85 -2.1 23.23c27.76,-6.74 6.86,-4.61 19.93,7.44 -2.41,17.5 -4.16,18.96 -7.18,29.12 -1.31,4.39 -3.69,8.91 -4.45,11.5 19.91,4.26 7.98,4.15 16.06,-16.88 7.08,-18.43 0.21,-10.98 12.67,-32.64 -8.85,-19.87 10.79,8.12 -26.28,-23.57 38.5,-22.32 116.73,-305.56 120.5,-323.9 -18.82,-28.23 -55.6,-47.85 -97.62,-56.44l3.52 3.71z"/>
   <path class="fil32" d="M424.28 400.21l-43.45 0.51 -1.4 70.3 38.41 -49.83 34.71 4.55 70.24 -13.86 -7.52 14.54c33.2,-5.2 30.12,-3.34 63.86,-2.7 -6.88,-16.73 -4.64,-15.77 -6.6,-23.09l-9.2 -20.05c-5.16,-5.09 -18.67,-13.19 -20,-14.39 -45.51,-40.84 16.72,-6.67 -11.91,-12.82l18.59 -6.57c-23.79,-18.97 -51.25,-25.95 -83.47,-27.73l-14.35 22.19c-2.82,5.2 -6.07,11.15 -8.3,17.74 -7.71,22.82 -16.08,18.62 1.6,38.91l-21.21 2.3z"/>
   <path class="fil33" d="M688.02 19.76c-8.98,14.24 -25.02,35.68 -33.25,66.53 -6.47,25.31 -10.01,49.55 -17.47,72.3 -1.95,5.96 -10.52,25.16 -11.7,30.56 -6.91,31.72 -12.57,17.13 8.43,32.22 9.45,-22.84 28.02,4.65 28.22,4.82l22.39 -85.93c0.66,-1.9 1.32,-4.18 2.04,-5.96l11.03 -19.14 13.23 -54.4c0.67,-1.98 2.84,-3.15 3.38,-7.28 0.55,-4.27 2.48,-4.97 3.79,-7.23l19.92 1.26c33.48,-20.41 43.5,-19.75 94.03,-22.2 -51.53,-47.46 -84,-22.4 -144.04,-5.55z"/>
   <path class="fil34" d="M105.77 2100.54c-3.6,39.98 -44.58,139.76 -55.64,164.78 -10.92,35.35 -13.83,80.25 -24.4,122.1 -5.11,20.26 -12.17,40.85 -15.88,57.68 -5.38,24.4 -3.2,48.41 -8.45,72.34l24.73 15.72c1.54,0.89 4.39,2.25 6.56,3.44 21.54,-25.89 9.58,-9.23 35.74,-26.58l13.08 -10.37 -14.44 6.95 -35.67 -2.16c9.77,-34.35 11.44,-49.69 8.75,-73.97 -1.76,-15.85 3.57,-35.42 12.1,-65.2 10.98,-38.42 13.88,-116.5 46.76,-145 -3.25,-57.35 29.2,-128.98 42.32,-178.77 17.72,-67.21 5.23,-52.84 -2.76,-57.96 1.24,37.52 -21.26,77.45 -32.8,117z"/>
   <path class="fil35" d="M445.3 345.26l-21.02 54.95 21.21 -2.3c-17.68,-20.29 -9.31,-16.09 -1.6,-38.91 2.23,-6.59 5.48,-12.54 8.3,-17.74l14.35 -22.19c32.22,1.78 59.68,8.76 83.47,27.73 41.67,-0.81 33.59,13.28 40.63,36.67l16.17 13.28c33.58,-58.63 18.71,-72.69 24.12,-93.62 4.82,-18.67 11.01,8.23 5.39,-20.16 -20.19,14.57 -9.87,1.31 -19.54,24.05 -60.22,-14.08 -116.4,-33.35 -177.59,-51.2 3.7,23.04 10.24,30.44 12.95,42.92 7.57,34.91 2.24,37.12 -6.84,46.52z"/>
   <path class="fil36" d="M770.85 65.99l-46.15 143.48c1.81,-2.31 5.91,-7.45 6.97,-5.37l13.32 -10.73c3.73,80.51 -7.38,57.87 3.92,102.59 5.3,20.98 1.31,23.1 4.92,44.34 17.84,-16 17.6,-39.5 17.2,-62.02 -4.6,-42.49 1.27,-47.35 2.55,-78.32 0.67,-16.47 11.9,-54.56 3.3,-82.19 33.45,6.22 16.81,-6.36 32.27,14.12l20.2 -21.9 7.45 -39.34c-14.21,-10.52 -11.62,-8.07 -28.53,-14.58l-29.6 -2.78 -7.82 12.7z"/>
   <path class="fil37" d="M500.53 1155.58c25.47,-22.77 11.44,-12.68 27.65,-61.48l13.25 -33.43c19.36,-64.27 -2.72,-38.72 33.01,-107.54 -1.27,-1.6 -2.82,-6.33 -3.31,-5.18 -5.89,14.09 -5.27,-9.18 -6.28,-11.15 -0.86,-1.66 -2.13,-4.43 -2.97,-6.12l-6.07 -12.75c-42.06,23.4 -56.32,55.82 -59.16,104.21 -1.96,33.43 -5.5,107.28 3.88,133.44z"/>
   <path class="fil38" d="M724.7 209.47l-32.83 111.67c37.73,18.41 30.33,28.88 17.46,48.59 -21.98,33.63 -6.65,-16.18 -7.44,8.39 0.98,4.85 20.22,46.38 9.15,72.25l-5.68 10.47c-16.54,31.66 5.43,18.06 8.15,19.35 13.73,-14.23 2.77,6.07 15.34,-26.01 5.08,-12.95 7.93,-26.01 11.69,-38.64 7.71,-25.92 13.48,-45.11 13.29,-75.24 -3.61,-21.24 0.38,-23.36 -4.92,-44.34 -11.3,-44.72 -0.19,-22.08 -3.92,-102.59l-13.32 10.73c-1.06,-2.08 -5.16,3.06 -6.97,5.37z"/>
   <path class="fil39" d="M452.55 425.74c23.63,3.94 15.74,-0.78 30.26,0.35 3,0.23 12.72,0.68 15.65,1.3 23.32,4.91 3.13,-5.57 21.33,8.95l38.11 6.39c8.39,34.21 9.51,73.28 0.64,106.21l5.15 10.37c1.71,-1.17 4.64,-4.38 5.66,-2.6 1.05,1.82 4.48,-1.93 5.97,-2.34l35.57 -7.99c2.3,-0.64 5.18,-1.79 7.04,-2.34 1.85,-0.55 4.74,-1.44 6.91,-2.6l-50.04 3.66 32.01 -148.35 -16.17 -13.28c-7.04,-23.39 1.04,-37.48 -40.63,-36.67l-18.59 6.57c28.63,6.15 -33.6,-28.02 11.91,12.82 1.33,1.2 14.84,9.3 20,14.39l9.2 20.05c1.96,7.32 -0.28,6.36 6.6,23.09 -33.74,-0.64 -30.66,-2.5 -63.86,2.7l7.52 -14.54 -70.24 13.86z"/>
   <path class="fil40" d="M874.38 451.06l0.95 18.4 13.09 13.61 101.48 -340.66c-11.91,-7.88 -11.54,0.11 -14.54,-11.71l-9.43 0c-9.23,61 -26.46,111.88 -42.92,166.03 -13.83,45.47 -32.48,108.69 -48.63,154.33z"/>
   <path class="fil41" d="M714.15 548l31.71 7.78 45.26 6.64 17.95 12.8 31.45 -5.64c13.26,-24.45 5.55,6.2 -0.77,-17.44l-4.21 -11.17c-26.97,-74.18 -61.98,-31.13 -81.97,-36.58l-39.42 43.61z"/>
   <path class="fil42" d="M67.07 2506.6c-15.94,-51.87 -3.67,-48.16 17.99,-74.86 -22.9,-8.27 -11.49,-9.54 -35.92,-12.94l50.74 -158.25 -0.87 -40.28c-32.88,28.5 -35.78,106.58 -46.76,145 -8.53,29.78 -13.86,49.35 -12.1,65.2 2.69,24.28 1.02,39.62 -8.75,73.97l35.67 2.16z"/>
   <path class="fil43" d="M379.43 471.02l-3.02 64.63 51.3 -76.73c32.34,-9.45 -11.18,15.12 34.66,-3.78 21.06,-8.68 31.26,-14.91 57.42,-18.8 -18.2,-14.52 1.99,-4.04 -21.33,-8.95 -2.93,-0.62 -12.65,-1.07 -15.65,-1.3 -14.52,-1.13 -6.63,3.59 -30.26,-0.35l-34.71 -4.55 -38.41 49.83z"/>
   <path class="fil44" d="M1077.09 485.06l2.91 -33.85c0.01,-1.99 -0.09,-4.6 -0.14,-6.41l-1.56 -13.46c-1.75,-16.44 6.48,-9.56 -3.13,-20.99l-22.05 -1.92c-26.57,-1.9 -24.74,-0.11 -36.74,9.91 0.98,0.44 2.89,-1.22 3.24,0.02l12.71 5.87c1.31,0.98 3.94,3.6 5.09,4.55 1.31,1.09 3.83,3.62 5.28,5.79l-16.14 50.04c2.45,0.95 6.26,-0.66 7.58,2.2l25.25 3.4c1.29,-0.06 3.68,-0.64 4.85,-0.8 43.88,-6.15 -23.09,22.33 12.85,-4.35z"/>
   <path class="fil45" d="M819.85 594.66l10.65 1.49 -2.73 31.49c41.08,6.99 22.66,-0.46 46.57,-10.99 1.53,-0.67 20.15,-5.83 30.78,-8.75 -7.15,-6.93 -4.44,-5.51 -15.9,-12.53 -2.14,-1.3 -9.28,-4.18 -11.38,-5.34 -21.25,-11.75 -6.48,-1.23 -19.41,-13.21 -26.43,2.39 -12.21,4.08 -17.91,-7.24l-31.45 5.64c-20.86,8.5 -9.64,6.86 -13.91,-0.65l24.69 20.09z"/>
   <path class="fil46" d="M697.71 115.16c20.29,-1.41 12.82,-1.54 18.09,1.3 1.19,0.63 7.3,8.19 8.78,10.45 0.51,-6.6 2.38,-25.37 2.33,-25.87l-7.3 -25.51c9.18,7.19 11.22,37.31 16.03,-13.25l35.21 3.71 7.82 -12.7 -40.64 -5.78 -19.92 -1.26c-1.31,2.26 -3.24,2.96 -3.79,7.23 -0.54,4.13 -2.71,5.3 -3.38,7.28l-13.23 54.4z"/>
   <path class="fil47" d="M32.69 2536.6l32.48 22.19 19.89 1.94 -28.25 -24.21c0.13,-0.13 4.7,-19.04 36.58,-20.27 46.1,-1.78 7.76,1.39 43.3,17.92l-1.47 -11.06 22.31 -5.03 -64.35 -19.48 -11.67 1.05 -13.08 10.37c-26.16,17.35 -14.2,0.69 -35.74,26.58z"/>
   <path class="fil48" d="M1051.75 598.22l-5.83 37.84c-19.33,32.45 -2.75,10.22 -24.24,19.67l-0.77 7.6 45.43 5.47c-4.99,-46.29 -0.6,-56.65 26.43,-71.84 -22.3,-8.31 -11.98,-11.41 -29.35,-8.23l-11.67 9.49z"/>
   <path class="fil49" d="M136.69 2534.17l13.38 30.5 28.03 -8.87c23.5,-13.87 -1.34,-1.17 -20.57,-37.72l-22.31 5.03 1.47 11.06z"/>
   <path class="fil50" d="M803.92 378.69l0.76 8.67 22.74 -2.79 -7.07 9.46c-1.46,21.15 -8.06,18.5 7.44,18.5l10.29 4.9 11.16 -23.44c-18.48,-21.09 -10.52,-13.7 -40.04,-26.64l-5.28 11.34z"/>
   <path class="fil51" d="M544.47 2582.1l19.45 3.11 2.25 -46.01c-2.38,1.52 -5.3,3.76 -7.08,4.63l-24.09 7.75c10.21,24.33 7.3,13.18 9.47,30.52z"/>
   <path class="fil52" d="M503.4 2659.5c30.62,-2.51 27.66,-5.56 36.87,-28.39 -33.4,5.39 0.66,9.88 -39.3,-2.89l2.43 31.28z"/>
   <path class="fil53" d="M793.52 410.19l-1.9 11.84c25.44,-6.58 22.09,27.86 19.25,-28l-6.19 -6.67 -0.76 -8.67 -10.59 6.83 0.19 24.67z"/>
   <path class="fil54" d="M791.62 422.03c0.16,0.1 0.85,14.83 29.96,9.02 10.85,-2.16 14.3,-11.12 16.5,-13.62l-10.29 -4.9c-15.5,0 -8.9,2.65 -7.44,-18.5l-9.48 0c2.84,55.86 6.19,21.42 -19.25,28z"/>
   <polygon class="fil55" points="1045.96,92.21 1112.14,106.63 1108.62,102.92 1045.11,77.04 "/>
   <path class="fil56" d="M371.62 2612.87c16.26,10.07 -19.58,14.32 27.34,4.26 0.31,-0.07 16.62,-11.25 17.27,-11.68l-0.83 -0.11 -43.78 7.53z"/>
  </g>
 </g>
</svg>
