<!-- Generated by IcoMoon.io -->
<svg version="1.1" xmlns="http://www.w3.org/2000/svg" width="32" height="32" viewBox="0 0 32 32">
<title>enemigos-digitales</title>
<path d="M6.6 20.716h18.79c0.794 0 1.439-0.644 1.439-1.439v-13.13c0-0.794-0.644-1.438-1.439-1.438h-18.79c-0.789 0.007-1.426 0.649-1.426 1.438v13.13c0 0.79 0.637 1.432 1.426 1.439zM6.396 6.148c0-0.115 0.090-0.209 0.204-0.216h18.79c0.119 0 0.216 0.097 0.216 0.216v11.759h-19.21v-11.759zM28.693 26.525c-0.14 0.442-0.543 0.748-1.006 0.765h-23.37c-0.46-0.015-0.862-0.316-1.006-0.753-0.264-0.627-0.139-1.35 0.321-1.852l2.247-2.16c0.183-0.179 0.429-0.281 0.685-0.284h18.877c0.257 0.003 0.502 0.105 0.686 0.284l2.247 2.16c0.455 0.499 0.58 1.216 0.321 1.84zM19.783 16.691c0.112 0.141 0.014 0.349-0.166 0.349h-7.231c-0.18 0-0.277-0.208-0.165-0.349 0.4-0.506 0.883-0.974 1.453-1.322 0.716 0.391 1.515 0.604 2.331 0.621 0.816-0.008 1.617-0.219 2.331-0.615 0.569 0.345 1.049 0.812 1.447 1.317zM20.437 7.24c-0.215 1.187-0.975 1.704-1.557 1.93-0.689-0.782-1.696-1.279-2.818-1.279-1.146 0-2.173 0.518-2.863 1.329-0.592-0.192-1.469-0.688-1.703-1.98-0.057-0.316-0.501-0.344-0.61-0.043-0.411 1.132-0.577 2.848 1.457 3.932-0.024 0.171-0.041 0.345-0.041 0.524 0 2.074 1.687 3.76 3.761 3.76s3.761-1.687 3.761-3.76c0-0.212-0.022-0.42-0.056-0.623 1.847-1.087 1.678-2.735 1.279-3.833-0.109-0.302-0.553-0.273-0.61 0.042zM16.063 14.796c-1.733 0-3.143-1.41-3.143-3.143s1.411-3.144 3.143-3.144c1.733 0 3.143 1.411 3.143 3.144s-1.41 3.143-3.143 3.143z"></path>
</svg>
