<!-- Generated by IcoMoon.io -->
<svg version="1.1" xmlns="http://www.w3.org/2000/svg" width="32" height="32" viewBox="0 0 32 32">
<title>enjabonarse-las-manos</title>
<path d="M12.16 6.667l-9.573 9.053c-0.8 0.747-1.253 1.8-1.253 2.907v8.040c0 2.213 1.787 4 4 4h18.333c0.92 0 1.667-0.747 1.667-1.667s-0.747-1.667-1.667-1.667h-7.667v-1.333h10.333c0.92 0 1.667-0.747 1.667-1.667s-0.747-1.667-1.667-1.667h-10.333v-1.333h11.667c0.92 0 1.667-0.747 1.667-1.667s-0.747-1.667-1.667-1.667h-11.667v-1.333h9c0.92 0 1.667-0.747 1.667-1.667s-0.747-1.667-1.667-1.667h-13.187c0.853-1.48 1.973-3.44 1.987-3.48 0.12-0.213 0.187-0.44 0.187-0.707 0-0.347-0.12-0.667-0.347-0.933-0.013-0.053-1.48-1.547-1.48-1.547v0zM18.667 8.333c0.547 0 1 0.453 1 1s-0.453 1-1 1-1-0.453-1-1 0.453-1 1-1zM18.667 6.333c-1.653 0-3 1.347-3 3s1.347 3 3 3 3-1.347 3-3-1.347-3-3-3v0zM26.333 7.333c0.373 0 0.667 0.293 0.667 0.667s-0.293 0.667-0.667 0.667-0.667-0.293-0.667-0.667 0.293-0.667 0.667-0.667zM26.333 5.333c-1.467 0-2.667 1.2-2.667 2.667s1.2 2.667 2.667 2.667 2.667-1.2 2.667-2.667-1.2-2.667-2.667-2.667v0zM22 1.333c-1.107 0-2 0.893-2 2s0.893 2 2 2c1.107 0 2-0.893 2-2s-0.893-2-2-2z"></path>
</svg>
