<?xml version="1.0" encoding="UTF-8"?>
<!DOCTYPE svg PUBLIC "-//W3C//DTD SVG 1.1//EN" "http://www.w3.org/Graphics/SVG/1.1/DTD/svg11.dtd">
<!-- Creator: CorelDRAW 2017 -->
<svg xmlns="http://www.w3.org/2000/svg" xml:space="preserve" width="14.5626mm" height="8.8052mm" version="1.1" style="shape-rendering:geometricPrecision; text-rendering:geometricPrecision; image-rendering:optimizeQuality; fill-rule:evenodd; clip-rule:evenodd"
viewBox="0 0 1456.26 880.52"
 xmlns:xlink="http://www.w3.org/1999/xlink">
 <defs>
  <style type="text/css">
   <![CDATA[
    .fil0 {fill:#FE0000}
   ]]>
  </style>
 </defs>
 <g id="Capa_x0020_1">
  <metadata id="CorelCorpID_0Corel-Layer"/>
  <path class="fil0" d="M1207.62 247.8c29.71,-15.16 72.15,-68.57 175.99,-115.13 86.75,-38.9 70.35,2.73 70.44,-116.69 -72.31,19.83 -178.06,126.92 -228.37,186.32 -13.72,16.19 -16.85,16.96 -18.06,45.5zm-955.78 644.57c226.15,0 442.45,-74.36 604.02,-210.19 28.96,-24.35 119.05,-107.7 131.73,-141.71 -46.08,3.11 -37.57,25.7 -94.46,75.22 -194.72,169.45 -406.64,177.14 -653.78,113.22 -121.21,-31.35 -197.73,-79.05 -238.23,-91.26l0.28 226.38c37.02,18.16 200.58,28.34 250.44,28.34zm655.03 -722.56c-43.2,22.29 -6.55,78.07 31.55,56.54 32.41,-18.31 8.98,-77.44 -31.55,-56.54zm-268.05 467.26c5.01,-3.71 1.43,-0.59 6.3,-6.08 8.69,-9.79 9.55,-15.33 26.52,-21.46 17.77,-6.43 38.96,-5.84 58.44,-3.7 37.67,4.14 67.62,17.22 102.12,23.23 -16.28,-33.71 -85.04,-59.57 -126.34,-70.75 -63.39,-17.15 -113.46,-20.34 -176.15,-3.19 -66.12,18.07 -263.34,82.25 -327.93,59.85 -155.97,-54.08 -33.56,-310.7 51.3,-399.84 11.29,-11.86 98.73,-91.05 123.41,-53.08 -3.4,13 -62.35,41.31 -26.28,65.31 49.3,32.8 88.69,-109.89 -26.64,-100.15 -120.03,10.14 -240.61,174.35 -271.16,301.82 -36.77,153.4 71.18,255.25 220.14,224.21 63.64,-13.27 119.13,-33.49 182.97,-47.39 80.75,-17.58 133.84,-11.58 183.3,31.22zm-362.73 -188.14c-6.28,-33.86 16.84,-93.04 31.6,-118.15 12.87,3.9 13.93,12.43 26.3,20.46 10.76,6.98 20.38,7.52 30.21,14.23 -9,35.43 -45.29,98.47 -88.11,83.46zm98.19 -104.65c-34.29,6.79 -71.81,-33.75 -35.98,-60.04 45.34,-33.26 48.3,26.3 35.98,60.04zm869.23 54.43c3.76,-24.97 20.5,-57.55 30.53,-76.29 12.79,-23.9 24.01,-50.77 54.34,-48.53 20.39,58.54 -41.21,116.55 -84.87,124.82zm-497.87 -116.05c2.58,23.14 -30.01,82.98 -39.64,102.1 -68.64,136.29 -90.94,55.99 -35.24,-39.25 14.65,-25.05 40.86,-70.26 74.88,-62.85zm125.59 169.13c-2.48,-45.28 67.59,-166.06 70.24,-193.23l-63.27 -1.27c-13.2,21.62 -14.06,42.95 -55.78,108.22 -15.94,24.93 -51.84,84.31 -78.48,86.76 5.52,-47.06 69.57,-136.25 71.27,-190.61 -18.38,-0.24 -54.06,4.39 -63.35,2.64 -21.55,-4.05 -27.18,-17.56 -62.31,-3.22 -67,27.34 -108.76,130.9 -127.57,155.21 -66.2,85.59 -136.12,77.3 -62.82,-70.96 15.29,-30.95 37.11,-76.54 80.08,-63.73 -6.61,14.73 3.6,0.48 -13.52,10.66 -28.53,16.94 -27.78,41.16 -11.54,50.72 50.79,23.84 80.48,-124.43 -31.76,-89.67 -39.87,12.34 -69.9,47.22 -88.49,78.84 -10.5,17.85 -15.05,20.79 -40.34,15.29 0.55,-30.4 16.17,-61.31 -7.72,-84.01 -23.36,-22.2 -65.14,-10.71 -88.46,4.05 -57.03,36.08 -126.06,162.01 -86.88,219.06 15.41,22.43 55.95,25.83 83.71,9 48.95,-29.69 70.5,-88.86 93.75,-128.61l25.95 -0.48c-10.68,46.88 -30.13,115.39 15.19,136.89 63.83,30.28 116.51,-37.33 130.72,-46.58 6.88,24.82 21,49.39 47.3,52.69 38.89,4.87 47.85,-20.27 63.22,-35.53 14.71,27.65 31.07,52.99 71.6,26.64 13.73,-8.92 49.58,-43.85 54.31,-56.93 4.94,36.62 11.45,79.22 58.66,61.98 51.44,-18.8 107.65,-220.36 157.19,-226.03 0.74,16.47 -30.43,87.32 -37.79,110.21 -9.52,29.62 -32.98,87.15 -36.28,114.9l55.57 -0.25c14.59,-38.4 27.76,-77.98 42.44,-116.68 16.06,-42.36 23.9,-92.87 71.59,-96.25 -0.01,58.32 -38.41,116.98 -51.68,168.16 -19.53,75.37 69.3,51.56 100.86,-19.58 15.32,19.7 -0.02,46.09 37.68,63.77 51.14,24 105.24,-16.93 134.47,-58.67 7.84,-11.18 34.97,-48.36 35.02,-66.64 -31.62,8.56 -53.9,82.33 -103.88,90.27 -45.44,7.21 -23.29,-50.73 -22.89,-51.2 7.11,-8.35 81.97,-17.6 113.41,-70.41 28.86,-48.47 8.41,-114.08 -62.55,-95.06 -103.24,27.68 -126.13,191.44 -162.56,203.44 -10.17,-16.02 19.3,-78.29 24.57,-96.61 54.86,-190.52 -49.98,-82.33 -80.43,-72.31 -9.73,-17.15 -15.16,-68.28 -57.49,-34.74 -43.73,34.65 -115.48,189.68 -140.96,199.86z"/>
  <path class="fil0" d="M701.97 111.46c17.1,13.95 18.19,49.63 -1.01,54.65 -26.17,6.84 -25.5,-35.75 -12.75,-53.75l13.76 -0.9zm-56.94 78.86c-13.37,12.37 -7.74,-2.34 -10.59,15.59 27.7,0.41 22.42,-16.08 22.37,-43.49 -0.02,-16.44 3.83,-48.06 -2.72,-61.31 -15.68,4.11 -5.33,49.19 -9.06,89.21zm-63.63 -88.71l-0.87 61.36c4,23.06 -4.58,7.01 10.59,12.92 0.09,-27.81 -8.36,-60.88 19.09,-64.44 17.29,4.52 7.34,41.2 10.83,54.99 2.27,8.94 1.93,5.08 5.13,9.45 7.1,-12.05 4.97,-24.87 4.65,-41.62 -1.01,-52.96 -23.42,-25.58 -49.42,-32.66zm-77.41 74.28c17.54,2.55 54.58,7.25 63.72,-5.51 -9.07,-12.17 -11.87,-6.45 -51.22,-6.91l0.17 -33.77c41.05,-0.57 38.32,5.36 46.14,-7.18 -8.08,-11.84 -3.7,-5.8 -46.08,-6.84l-0.12 -29.77c15.26,-0.29 36.51,2.73 48.48,-3.28 -1.84,-15.05 -1.81,-10.82 -22.39,-10.65 -12.55,0.1 -25.24,-0.26 -37.56,1.3l-1.14 102.61zm233.21 26.4c0.05,0.03 0.48,9.36 14.06,1.91 4.55,-2.5 5.91,-6.42 8.48,-12.35 3.28,-7.56 7.19,-21 9.73,-30.03l13.96 -46.01c1.17,-6.54 1.14,7.49 0.83,-6 -0.16,-7.24 -0.79,-4.44 -2.5,-8.1 -16.1,11.97 -7.44,28.18 -22.97,51.99 -2.43,-6.68 -5.98,-18.1 -8.68,-27.67 -9.51,-33.71 -3.61,-18.82 -12.23,-24.67 -1.73,3.46 -8.38,-4.45 1.03,24.17 2.92,8.92 5.98,18.19 8.5,26.57 10.67,35.42 6.79,31.31 -2.74,40.89l-7.47 9.3zm-49.66 -99.42c-19.22,9.46 -22.74,27.06 -17.52,50.99 4.02,18.41 20.55,31.71 40.02,20.68 29.03,-16.46 16.27,-90.75 -22.5,-71.67z"/>
 </g>
</svg>
