<?xml version="1.0" encoding="UTF-8"?>
<!DOCTYPE svg PUBLIC "-//W3C//DTD SVG 1.1//EN" "http://www.w3.org/Graphics/SVG/1.1/DTD/svg11.dtd">
<!-- Creator: CorelDRAW 2017 -->
<svg xmlns="http://www.w3.org/2000/svg" xml:space="preserve" width="8.4666mm" height="8.4666mm" version="1.1" style="shape-rendering:geometricPrecision; text-rendering:geometricPrecision; image-rendering:optimizeQuality; fill-rule:evenodd; clip-rule:evenodd"
viewBox="0 0 846.66 846.66"
 xmlns:xlink="http://www.w3.org/1999/xlink">
 <defs>
  <style type="text/css">
   <![CDATA[
    .fil1 {fill:black}
    .fil0 {fill:black}
   ]]>
  </style>
 </defs>
 <g id="Capa_x0020_1">
  <metadata id="CorelCorpID_0Corel-Layer"/>
  <g id="_2579827289264">
   <path class="fil0" d="M597.02 232.54l72.17 0.45 1.56 49.9 38.48 -0.28 1.5 -49.81 96.86 0.44c6.58,59.13 2.73,141.12 2.63,202.99 -0.08,48.08 4.89,36.34 -152.18,36.36 -95.24,0.01 -90.97,6.9 -87,-39.79 31.93,10.01 38.01,24.58 75.82,13.46 12.97,-25.18 13.19,-43.78 -15.3,-57.71 -16.01,-7.83 -45.28,-20.88 -61.51,-25.15 -0.27,-97.92 -13.65,-130.86 26.97,-130.86zm-249.97 30.83c16.45,1.99 33.13,-2.49 46.81,7.22 -10.29,13.72 -12.46,7.99 -54.02,7.79l-153.1 -0.48c-22.39,0.35 -19.89,-3.79 -24.46,10.12 18.03,14.03 142.56,5.52 174.95,4.76l-12.26 55.96c59.31,-0.4 43.93,-4.96 49.05,10.47 -21.27,10.9 -202.53,3.72 -243.51,3.61 1.31,24.49 -5.52,7.83 8.96,13.58l176.16 1.25 -27.84 116.96c20.51,0.72 30.83,-3.38 42.78,7.01 -9.04,13.4 -11.76,7.56 -56.11,7.47l-178.14 0.86c-12.09,4.64 -4.81,-4.02 -9.67,9.1 0.96,0.62 2.57,0.1 3.13,1.4 0.58,1.33 2.43,1.07 3.25,1.27 5.5,1.31 4.02,1.45 11.25,2.09l174.67 -0.09c-2.4,15.4 -6.96,31.05 -10.53,45.8l-15.46 46.9c-29.54,12.04 -114.99,29.04 -134.09,43.39 -34.08,25.6 -20.55,95.83 58.99,72.26 183.97,-54.54 138.44,-19.01 188.7,-168.32 8.27,6.55 49.49,62.69 55.93,73.24 33.73,55.26 3.81,199.38 89.8,176.74 15.37,-4.04 29.37,-19.34 32.48,-33.78 3.9,-18.12 -3.67,-44.22 -7.21,-61.47 -31.36,-153.07 -32.61,-120.67 -102.36,-229.67 -11.75,-18.36 -4.49,-26.33 1.97,-51.27 4.46,-17.24 8.65,-34.58 12.9,-52.42l17.24 -54.37c44.13,107.43 46.73,65.06 88.34,96.76 3.59,68.74 -2.1,58.89 106.75,58.89 45.31,0.01 127.68,8.45 157.89,-9.01 8.19,-37.3 3.86,-118.98 3.86,-163.21 0.01,-85.98 17.05,-95.47 -70.2,-95.26 -52.59,0.13 -114.54,-3.14 -165.85,-0.17 -58.85,3.41 -18.65,93.24 -34.67,135.09 -35.12,-13.57 -32.06,-120.3 -80.37,-142.5 -16.01,-7.36 -70.27,-20.6 -86.98,-16.51 -26.55,6.5 -36.1,37.89 -39.03,68.54z"/>
   <path class="fil0" d="M374.92 126.76c15.65,93.27 163.78,89.82 159.38,-24.73l-159.38 24.73z"/>
   <path class="fil1" d="M373.21 113.49c33.67,-4.81 68.74,-11.2 102.21,-16.99l101.49 -22.07c-12.43,-16.13 -6.21,-4.24 -49.64,-1.23 -9.14,-8.69 -33.76,-54.01 -93.75,-40 -34.04,7.95 -59.57,39.04 -60.31,80.29z"/>
   <path class="fil0" d="M21.16 436.23c5.35,12.75 -14.96,9.43 48.41,9.33l180.05 0.01 -0.08 -14.56c-18.79,-0.02 -212.32,-6.15 -228.38,5.22z"/>
  </g>
 </g>
</svg>
