<!-- Generated by IcoMoon.io -->
<svg version="1.1" xmlns="http://www.w3.org/2000/svg" width="32" height="32" viewBox="0 0 32 32">
<title>entradas</title>
<path d="M29.943 15.733c-0.085-0.219-0.295-0.363-0.53-0.363-0.068 0-0.135 0.012-0.199 0.036-0.163 0.048-0.333 0.072-0.503 0.072-0.988 0-1.79-0.802-1.79-1.79 0-0.706 0.415-1.346 1.059-1.634 0.218-0.085 0.363-0.296 0.363-0.53 0-0.068-0.012-0.135-0.035-0.199l-1.142-2.994c-0.368-0.952-1.283-1.581-2.304-1.581-0.016 0-0.033 0-0.048 0.001 0.124-0.185 0.279-0.348 0.457-0.482 0.148-0.104 0.237-0.274 0.237-0.455 0-0.119-0.038-0.234-0.108-0.329l-1.858-2.587c-0.462-0.657-1.216-1.048-2.019-1.048-0.498 0-0.984 0.15-1.394 0.431l-18.067 12.821c-0.092 0.068-0.179 0.142-0.259 0.222-0.639 0.464-1.018 1.208-1.018 1.998 0 0.287 0.050 0.572 0.148 0.842l1.123 2.994c0.081 0.222 0.292 0.37 0.528 0.37 0.069 0 0.136-0.013 0.2-0.037 0.23-0.103 0.479-0.156 0.731-0.156 0.988 0 1.79 0.802 1.79 1.79 0 0.794-0.525 1.495-1.287 1.718-0.219 0.080-0.365 0.288-0.365 0.522 0 0.068 0.013 0.136 0.037 0.2l1.117 3c0.367 0.953 1.283 1.583 2.305 1.583 0.29 0 0.578-0.051 0.85-0.151l21.672-8.117c0.953-0.367 1.583-1.283 1.583-2.305 0-0.289-0.051-0.578-0.151-0.849l-1.124-2.994zM20.795 3.226c0.226-0.168 0.501-0.259 0.783-0.259 0.424 0 0.822 0.204 1.069 0.549l1.543 2.21c-0.357 0.384-0.602 0.858-0.71 1.37l-17.34 6.5 14.654-10.37zM29.239 20.8l-2.635 0.982-0.617-1.642c-0.082-0.22-0.293-0.366-0.528-0.366-0.311 0-0.564 0.253-0.564 0.564 0 0.068 0.012 0.135 0.036 0.198l0.617 1.648-17.963 6.759c-0.148 0.055-0.304 0.083-0.462 0.083-0.55 0-1.042-0.341-1.236-0.855l-0.945-2.518c0.861-0.531 1.385-1.472 1.385-2.484 0-1.612-1.307-2.919-2.92-2.919-0.16 0-0.32 0.013-0.477 0.040l-0.945-2.519c-0.055-0.148-0.083-0.304-0.083-0.462 0-0.55 0.341-1.042 0.855-1.236l17.963-6.735 2.593 6.907c0.082 0.22 0.291 0.365 0.526 0.365 0.069 0 0.138-0.013 0.202-0.038 0.217-0.081 0.361-0.289 0.361-0.521 0-0.064-0.011-0.129-0.033-0.19l-2.587-6.92 2.63-0.988c0.148-0.055 0.304-0.083 0.462-0.083 0.55 0 1.042 0.341 1.236 0.855l0.945 2.519c-0.861 0.531-1.385 1.472-1.385 2.484 0 1.612 1.308 2.92 2.92 2.92 0.16 0 0.32-0.013 0.477-0.039l0.944 2.518c0.049 0.14 0.074 0.288 0.074 0.436 0 0.547-0.336 1.038-0.845 1.236v0z"></path>
<path d="M24.548 17.93c-0.221 0.086-0.366 0.298-0.366 0.535 0 0.066 0.011 0.131 0.033 0.193l0.080 0.21c0.085 0.218 0.296 0.363 0.53 0.363 0.068 0 0.135-0.012 0.199-0.035 0.219-0.080 0.365-0.289 0.365-0.522 0-0.069-0.013-0.137-0.037-0.2l-0.074-0.21c-0.080-0.222-0.291-0.37-0.528-0.37-0.068 0-0.136 0.013-0.2 0.037v0z"></path>
<path d="M17.622 21.202l-1.34-2.173 1.025-2.339c0.018-0.040 0.027-0.083 0.027-0.127 0-0.071-0.025-0.14-0.071-0.195-0.061-0.072-0.15-0.113-0.244-0.113-0.024 0-0.048 0.003-0.070 0.008l-2.469 0.617-1.908-1.704c-0.056-0.050-0.129-0.078-0.205-0.078-0.040 0-0.079 0.008-0.116 0.023-0.111 0.043-0.185 0.147-0.191 0.265l-0.191 2.543-2.185 1.284c-0.096 0.052-0.155 0.152-0.155 0.261 0 0.008 0 0.015 0.001 0.023 0.006 0.119 0.081 0.222 0.191 0.265l2.365 0.97 0.543 2.469c0.021 0.115 0.108 0.207 0.222 0.235h0.074c0.092-0.001 0.18-0.042 0.241-0.111l1.624-1.908 2.543 0.259c0.005 0 0.010 0.001 0.016 0.001 0.111 0 0.214-0.056 0.274-0.149 0.032-0.049 0.048-0.105 0.048-0.163s-0.017-0.115-0.048-0.164v0z"></path>
</svg>
