<!-- Generated by IcoMoon.io -->
<svg version="1.1" xmlns="http://www.w3.org/2000/svg" width="32" height="32" viewBox="0 0 32 32">
<title>envio-terrestre</title>
<path d="M24.956 20.26c2.039-0.675 2.837 2.38 0.705 3.106-1.991 0.678-2.861-2.392-0.705-3.106zM12.238 20.266c2.043-0.725 2.854 2.362 0.751 3.091-1.973 0.685-2.986-2.298-0.751-3.091zM24.557 11.959c0.339-0.048 1.674-0.063 2.015-0.023 0.403 0.046 1.164 1.077 1.535 1.487 0.852 0.941 1.241 1.014 1.079 1.808l-4.92-0.014 0.291-3.257zM13.28 18.492c-1.325 0-1.42-0.715-1.308-1.916l0.426-4.628c0.071-0.683 1.794-2.018 2.198-2.743 1.147-0.060 3.307-0.015 4.558-0.015 0.366 0 0.557 0.438 0.916 0.933 0.861 1.187 1.144 1.272 1.034 2.229-0.057 0.501-0.097 1-0.141 1.49-0.093 1.016-0.188 1.968-0.292 2.985-0.108 1.066-0.453 1.666-1.586 1.666h-5.805zM9.266 21.789c0.083 0.578-0.012 0.833 0.216 1.394 0.148 0.366 0.354 0.747 0.651 1.021 1.744 1.606 4.361 0.809 5.349-1.155 0.255-0.507 0.239-0.713 0.405-1.266l6.109-0.005c0.082 0.576-0.003 0.873 0.212 1.397 1.020 2.489 4.040 2.235 5.334 0.815 0.205-0.225 0.504-0.594 0.672-0.936 0.226-0.459 0.243-0.787 0.407-1.268 0.573-0.030 1.768 0.125 2.195-0.192 0.242-0.179 0.379-0.49 0.29-0.878-0.099-0.429-0.349-0.431-0.679-0.573-0.053-0.821 0.51-4.771 0.418-5.675-0.089-0.877-0.599-1.239-1.2-1.888-0.19-0.206-0.284-0.352-0.493-0.557-0.321-0.316-0.64-0.7-0.968-1.061-0.826-0.908-1.972-0.684-3.444-0.69-0.026-0.579 0.11-1.524 0.167-2.103 0.097-0.989-0.22-1.182-1.133-1.179-4.428 0.012-9.621-0.128-13.85 0.001-0.8 0.024-0.991 0.47-1.054 1.248l-0.946 10.577c-0.057 0.706-0.165 1.474-0.19 2.172-0.034 0.963 0.746 0.751 1.532 0.802z"></path>
<path d="M13.18 12.427c-0.129 0.488-0.162 1.561-0.215 2.137-0.318 3.477-0.489 3.084 1.085 3.083 0.769-0.001 1.539 0 2.308 0 3.531 0 3.415 0.299 3.547-1.101 0.085-0.904 0.432-3.502 0.348-4.22l-2.012 0.002-0.236 2.26c-0.415-0.048-1.166-0.541-1.489-0.51-0.313 0.029-1.067 0.434-1.495 0.514l0.175-2.241c-0.278-0.004-1.768-0.068-2.015 0.075z"></path>
<path d="M6.286 19.97h-4.686c-1 0-0.933 0.986-0.075 1.032l4.765 0.001c0.948-0.040 0.93-1.033-0.005-1.033z"></path>
<path d="M3.559 19.1h2.937c0.4 0 0.696-0.084 0.707-0.498 0.011-0.405-0.307-0.541-0.707-0.541h-2.902c-0.951 0-0.924 1.038-0.035 1.038z"></path>
<path d="M13.629 11.461l1.77 0.017 0.824-1.629c-1.33-0.174-1.293 0.051-1.65 0.454-0.204 0.23-0.84 0.94-0.944 1.157z"></path>
<path d="M18.228 11.459l1.722 0.019-1.006-1.628-1.236-0.031z"></path>
<path d="M5.307 17.209h1.189c0.913 0 0.943-1.034 0-1.034h-1.189c-0.907 0-0.889 1.034 0 1.034z"></path>
</svg>
