<!-- Generated by IcoMoon.io -->
<svg version="1.1" xmlns="http://www.w3.org/2000/svg" width="32" height="32" viewBox="0 0 32 32">
<title>escribio-autor</title>
<path d="M1.796 22.651v0c0 0 0 0 0 0-0.167 0-0.302 0.135-0.302 0.302 0 0.004 0 0.008 0 0.013 0.007 0.175 0.151 0.314 0.327 0.314 0.002 0 0.004 0 0.006 0 0.147-0.029 0.253-0.159 0.253-0.309s-0.105-0.279-0.253-0.309l-0.031-0.012z"></path>
<path d="M9.907 26.089c-1.537 1.882-3.753 2.401-4.852 1.704-0.607-0.375-1.002-1.017-1.061-1.728h0.228c2.284-0.222 2.994-1.5 3.192-2.037 0.1-0.229 0.152-0.476 0.152-0.727 0-0.408-0.139-0.806-0.393-1.125-0.291-0.283-0.681-0.441-1.087-0.441-0.118 0-0.236 0.013-0.35 0.040-0.927 0.229-1.68 0.905-2.006 1.803-0.223 0.521-0.372 1.073-0.438 1.636-0.485-0.294-0.829-0.774-0.951-1.327v0c-0.038-0.16-0.182-0.273-0.346-0.273-0.196 0-0.356 0.159-0.356 0.356 0 0.028 0.003 0.056 0.010 0.084 0.176 0.867 0.785 1.585 1.611 1.901 0.041 0.988 0.568 1.895 1.408 2.42 0.442 0.263 0.948 0.402 1.463 0.402 0.025 0 0.049-0.001 0.073-0.001 1.673-0.089 3.221-0.915 4.229-2.253 0.050-0.062 0.078-0.139 0.078-0.219 0-0.192-0.155-0.347-0.346-0.347-0.104 0-0.203 0.047-0.269 0.128l0.013 0.006zM4.876 24.281c0.233-0.684 0.791-1.21 1.488-1.402 0.037-0.003 0.074-0.005 0.111-0.005s0.074 0.002 0.111 0.005c0.020-0.002 0.040-0.002 0.060-0.002 0.208 0 0.407 0.080 0.557 0.224 0.127 0.188 0.195 0.411 0.195 0.638 0 0.167-0.037 0.334-0.109 0.486-0.154 0.413-0.71 1.401-2.605 1.586h-0.698c0.002-0.675 0.132-1.344 0.383-1.969l0.506 0.439z"></path>
<path d="M23.87 9.361c-0.063-0.054-0.143-0.084-0.226-0.084-0.104 0-0.202 0.047-0.268 0.127l-7.636 9.025c-0.053 0.063-0.083 0.143-0.083 0.225 0 0.192 0.156 0.348 0.348 0.348 0.102 0 0.199-0.045 0.266-0.123l7.66-9.031c0.048-0.061 0.074-0.136 0.074-0.213 0-0.108-0.050-0.209-0.135-0.274v0z"></path>
<path d="M17.37 19.812l7.661-9.031c0.057-0.066 0.089-0.15 0.089-0.238 0-0.199-0.162-0.361-0.361-0.361-0.104 0-0.203 0.045-0.272 0.123l-7.648 9.056c-0.053 0.062-0.082 0.143-0.082 0.225 0 0.192 0.156 0.348 0.348 0.348 0.102 0 0.199-0.045 0.265-0.123v0z"></path>
<path d="M29.543 4.206l-0.389-0.333c-0.495-0.419-1.122-0.649-1.771-0.649-0.803 0-1.566 0.353-2.087 0.964l-1.167 1.37c-0.078 0.095-0.121 0.213-0.121 0.336 0 0.153 0.067 0.299 0.183 0.399l3.383 2.864-10.364 12.204-2.975-2.524 9.080-10.698 1.852 1.586c0.099 0.105 0.238 0.165 0.383 0.165 0.29 0 0.525-0.235 0.525-0.525 0-0.175-0.088-0.34-0.234-0.437l-2.265-1.926c-0.094-0.078-0.213-0.121-0.336-0.121-0.153 0-0.299 0.067-0.399 0.183l-9.734 11.494c-0.078 0.095-0.121 0.214-0.121 0.336 0 0.153 0.067 0.299 0.183 0.399l3.772 3.198c0.094 0.078 0.213 0.121 0.336 0.121 0.153 0 0.299-0.067 0.398-0.183l11.025-12.994c0.078-0.094 0.121-0.213 0.121-0.336 0-0.153-0.067-0.299-0.183-0.398l-3.37-2.865 0.821-0.969c0.322-0.379 0.795-0.598 1.294-0.598 0.401 0 0.789 0.143 1.095 0.401l0.389 0.333c0.379 0.322 0.598 0.795 0.598 1.294 0 0.401-0.142 0.789-0.401 1.095l-0.099 0.111c-0.105 0.099-0.165 0.238-0.165 0.383 0 0.29 0.235 0.525 0.525 0.525 0.175 0 0.34-0.088 0.437-0.234l0.099-0.111c0.419-0.495 0.649-1.122 0.649-1.771 0-0.803-0.353-1.566-0.964-2.087v0z"></path>
<path d="M14.876 21.75c-0.099-0.105-0.238-0.165-0.383-0.165-0.29 0-0.525 0.235-0.525 0.525 0 0.175 0.088 0.34 0.234 0.437l0.74 0.617-2.185 0.457 0.056-2.63c-0.029-0.266-0.254-0.468-0.521-0.468s-0.493 0.202-0.522 0.468l-0.062 3.087-0.728 0.858c-0.105 0.099-0.165 0.238-0.165 0.383 0 0.289 0.235 0.525 0.525 0.525 0.175 0 0.34-0.088 0.437-0.234l0.728-0.858 3.704-0.747c0.257-0.038 0.447-0.259 0.447-0.519 0-0.157-0.071-0.308-0.194-0.407l-1.586-1.327z"></path>
</svg>
