<?xml version="1.0" encoding="UTF-8"?>
<!DOCTYPE svg PUBLIC "-//W3C//DTD SVG 1.1//EN" "http://www.w3.org/Graphics/SVG/1.1/DTD/svg11.dtd">

<svg xmlns="http://www.w3.org/2000/svg" xml:space="preserve" width="8.9746mm" height="10.4986mm" version="1.1" style="shape-rendering:geometricPrecision; text-rendering:geometricPrecision; image-rendering:optimizeQuality; fill-rule:evenodd; clip-rule:evenodd"
viewBox="0 0 897.46 1049.86"
 xmlns:xlink="http://www.w3.org/1999/xlink">
 <defs>
  <style type="text/css">
   <![CDATA[
    .fil0 {fill:#FEFEFE}
   ]]>
  </style>
 </defs>
 <g id="Capa_x0020_1">
 <metadata id="LuisAngelMaciel_CorelDraw"/>
  <g id="_2000421790640">
   <path class="fil0" d="M229.98 232.92c2.15,2.23 1.66,-1.49 2.28,6l-0.5 222.85c-9.41,3.08 -62.75,1.17 -76.73,1.17l-72.95 -0.12c-2.96,-0.54 -2.4,-0.95 -3.47,-1.62l0.4 -228.49 150.97 0.21zm-187.74 234.89c-5.4,19.07 -21.48,30.05 -40.23,36.72l-0.1 243.97 19.72 -1.89c0.06,32.67 7.19,59.26 26.04,83.93 5.75,7.53 12.57,12.93 18.68,19.51 23.53,13.75 33.03,23.13 66.64,27.79 65.03,9.01 126.67,-23.7 146.56,-86.94 2.05,-6.54 3.32,-12.04 4.45,-18.92 1.87,-11.42 -2.69,-28.6 23.28,-21.65 1.99,7.77 2.07,18.5 4.2,27.79 22.2,97.12 144.96,136.94 220.96,62.9 21.54,-20.98 37.28,-49.11 39.48,-91.74l130.86 -0.19 67.62 130.15 129.82 0.2 -32.14 -37.94c-23.14,-27.97 -59.75,-65.9 -83.6,-94.31l-49.78 -56.73c-9.79,-10.23 -9.2,-7.5 -9.11,-25.57l0 -179.34 87.3 -0.4 0.43 -145.28 -87.3 0 -0.77 122.1 -76.38 -0.06c-1.85,-26.47 -0.22,-119.36 -0.22,-152.89 -0.01,-28.34 -4.43,-17.39 26.39,-48.77 8.17,-8.32 33.45,-31.34 37.96,-38.74l-10.74 -8.79 -39.89 -27.48c-8.51,-6.06 -9.72,-9.92 -23.05,-9.86 -11.2,0.06 -22.41,0.06 -33.62,0.06 -13.23,-0.01 -19.92,-2.16 -28.64,4.29l-57.97 41.78c2.79,5.15 54.7,55.88 63.35,64.52 1.69,5.07 1.6,160.11 0.5,175.91l-128.43 -0.15 -123.17 0.01 0.12 -228.92 22.43 -0.8 -0.19 -56.09c-17.52,-3.39 -304.71,1.99 -317.85,-1.46 -10.41,-2.74 -4.19,-6.64 -16.32,-7.36 -6.18,-0.37 -16.27,-1.14 -20.3,2.02 -4.59,4.16 -3.31,20.85 -0.11,23.15 3.36,2.43 41.83,-1.74 44.91,36.57 1.91,23.75 0.16,55.49 0.16,80.11 0,22.59 2.49,149.07 -1.95,158.79z"/>
   <path class="fil0" d="M486.49 427.95l39.59 -0.01c0.87,-7.67 -2.08,-6.29 -7.91,-10.94 -3.83,-3.06 -6.72,-5.79 -9.38,-11.48l-13.41 -84.88 -76.46 -0.5c-2.02,20.26 -5.92,41.65 -8.9,61.55 -7.2,48.14 -23.76,32.83 -24.54,45.47 7.63,2.64 86.23,0.95 101.01,0.79z"/>
   <path class="fil0" d="M705.56 825.32c0,-30.77 -24.25,-57.05 -54.65,-56.77 -29.32,0.27 -53.87,26.81 -53.74,56.77 0.12,30.11 24.25,56.67 53.74,56.95 30.19,0.29 54.65,-26.27 54.65,-56.95z"/>
  </g>
 </g>
</svg>
