<!-- Generated by IcoMoon.io -->
<svg version="1.1" xmlns="http://www.w3.org/2000/svg" width="32" height="32" viewBox="0 0 32 32">
<title>experiencias</title>
<path d="M26.667 16c0-1.467 1.2-2.667 2.667-2.667v-5.333c0-1.467-1.2-2.667-2.667-2.667h-21.333c-1.467 0-2.653 1.2-2.653 2.667v5.333c1.467 0 2.653 1.2 2.653 2.667s-1.187 2.667-2.667 2.667v5.333c0 1.467 1.2 2.667 2.667 2.667h21.333c1.467 0 2.667-1.2 2.667-2.667v-5.333c-1.467 0-2.667-1.2-2.667-2.667zM20.773 22.4l-4.773-3.067-4.773 3.067 1.44-5.493-4.387-3.587 5.653-0.333 2.067-5.253 2.053 5.267 5.653 0.333-4.387 3.587 1.453 5.48z"></path>
</svg>
