<!-- Generated by IcoMoon.io -->
<svg version="1.1" xmlns="http://www.w3.org/2000/svg" width="32" height="32" viewBox="0 0 32 32">
<title>facebook-azul-letra</title>
<path fill="#848688" d="M21.485 11.121c0.096-0.14 0.089-0.188 0.067-0.397l-4.669-0.015c-0.113-0.479-0.003-2.595 0.001-3.235-0.129 0.22-0.162 2.936-0.057 3.256 0.236 0.096 4.081 0.037 4.687 0.040l-0.029 0.352z"></path>
<path fill="#848688" d="M18.761 6.034c0.454 0.023 2.425 0.056 2.769-0.023l0.017-5.236h-0.057l0.001 5.204-2.729 0.055z"></path>
<path fill="#848688" d="M15.636 0.912c0.096 0.001 0.212 0.002 0.305-0.002 0.172-0.009 0.16-0.011 0.28-0.087-0.234 0.014-0.412 0.002-0.585 0.089z"></path>
<path fill="#3e4095" d="M17.786 0.849c-0.12 0.076-0.108 0.078-0.28 0.087-0.093 0.005-0.209 0.003-0.305 0.002-0.879 0.067-2.001 0.543-2.546 0.976-1.559 1.239-1.898 3.226-1.93 5.246-0.017 1.075 0.093 2.578-0.016 3.586l-3.768 0.018-0.019 5.227 3.802 0.009v15.198h5.686l0.005-15.181 4.152-0.021 0.192-2.085 0.156-1.134 0.136-1.63 0.029-0.352c-0.606-0.003-4.45 0.056-4.687-0.040-0.105-0.32-0.072-3.036 0.057-3.256 0.002-0.533 0.183-0.946 0.505-1.144 0.343-0.212 0.901-0.336 1.373-0.296l2.729-0.055-0.001-5.204h-5.127l-0.142 0.048z"></path>
</svg>
