<!-- Generated by IcoMoon.io -->
<svg version="1.1" xmlns="http://www.w3.org/2000/svg" width="32" height="32" viewBox="0 0 32 32">
<title>faq</title>
<path d="M12.188 21.86c-1.096-0.095-4.923 0.011-6.423-0.013-2.032-0.031-3.421-1.192-4.099-2.358-0.933-1.604-0.657-3.772-0.659-5.784-0.002-1.188-0.073-5.458 0.069-6.312 0.285-1.717 1.54-3.033 2.871-3.579 1.421-0.582 4.305-0.362 6-0.362l16.086-0.002c2.657 0.004 4.846 1.831 4.957 4.621 0.084 2.084 0.007 4.344 0.006 6.447 0 2.349 0.261 3.72-0.975 5.441-0.372 0.518-1.076 1.112-1.804 1.447-0.972 0.448-1.638 0.442-2.765 0.442-1.532 0-5.136-0.075-6.392-0.006-0.267 0.015-0.143-0.025-0.293 0.103l-0.573 0.645c-0.273 0.296-0.466 0.555-0.758 0.868-0.263 0.281-0.492 0.61-0.749 0.877-0.552 0.573-3.441 4.043-3.72 4.253-0.259-0.519-0.543-5.573-0.778-6.729zM13.772 19.81l0.465 4.271c0.365-0.294 0.215-0.226 0.479-0.498l2.776-3.203c0.156-0.19 0.357-0.381 0.471-0.569 1.721-0.081 8.233 0.213 9.313-0.219 1.423-0.569 1.678-1.779 1.677-3.1-0.001-1.587 0-3.174 0-4.762 0-2.513 0.482-4.738-1.314-5.845-0.661-0.407-1.167-0.394-2.013-0.393h-19.047c-0.845 0-1.394-0.030-2.084 0.321-1.923 0.98-1.447 3.407-1.447 5.685 0 1.587 0 3.175 0 4.762 0 0.834-0.063 1.366 0.305 2.064 1.035 1.965 3.288 1.479 5.664 1.479 1.544 0 3.226-0.064 4.754 0.006zM26.202 17.421c-0.924-0.209-1.291-1.12-1.905-0.93-2.335 0.72-5.16-0.048-5.471-2.95-0.54-5.024 4.516-5.183 6.365-3.814 1.28 0.947 1.613 2.948 1.173 4.489-0.264 0.924-0.444 0.903-0.616 1.29 0.189 0.207 0.726 0.526 1.074 0.632l-0.62 1.284zM10.407 16.59l2.814-7.453 2.515 0.010 2.79 7.457-2.406-0.011-0.358-1.222-2.563 0.005c-0.219 0.149-0.362 0.972-0.45 1.23l-2.342-0.015zM5.19 16.594l0.015-7.457 5.678 0.002-0.013 1.595-3.37 0.007v1.306l2.89 0.013-0.024 1.487-2.867 0.011-0.010 3.044-2.299-0.009zM23.069 14.97c-0.191-0.317-0.606-0.345-0.853-0.568 0.070-0.233 0.228-0.584 0.348-0.787 0.747 0.117 0.88 0.521 1.379 0.683 0.409-0.581 0.358-2.085 0.061-2.744-0.593-1.311-3.404-1.333-2.854 2.034 0.168 1.034 0.741 1.551 1.92 1.381zM13.653 13.76l1.588-0.002c-0.036-0.325-0.44-1.511-0.582-1.98-0.073-0.242-0.107-0.487-0.246-0.644-0.151 0.732-0.707 1.954-0.761 2.627z"></path>
</svg>
