<?xml version="1.0" encoding="UTF-8"?>
<!DOCTYPE svg PUBLIC "-//W3C//DTD SVG 1.1//EN" "http://www.w3.org/Graphics/SVG/1.1/DTD/svg11.dtd">
<!-- Creator: CorelDRAW 2017 -->
<svg xmlns="http://www.w3.org/2000/svg" xml:space="preserve" width="7.3658mm" height="7.3658mm" version="1.1" style="shape-rendering:geometricPrecision; text-rendering:geometricPrecision; image-rendering:optimizeQuality; fill-rule:evenodd; clip-rule:evenodd"
viewBox="0 0 736.58 736.58"
 xmlns:xlink="http://www.w3.org/1999/xlink">
 <defs>
  <style type="text/css">
   <![CDATA[
    .fil0 {fill:none}
    .fil1 {fill:black}
   ]]>
  </style>
 </defs>
 <g id="Capa_x0020_1">
  <metadata id="CorelCorpID_0Corel-Layer"/>
  <rect class="fil0" x="-0" y="-0" width="736.59" height="736.59"/>
  <path class="fil1" d="M384.59 732.29c10.04,-6.99 28.16,-4.61 55.35,-24.28 59.41,-42.99 51.97,-128.27 16.91,-174.62 -25.24,-33.37 -61.9,-43.96 -85.32,-79.27 -30.91,-46.62 -26.78,-73.57 -19.29,-133.36 -36.35,70.98 -55.34,138.61 -36.32,225.16 5.63,25.57 19.2,50.02 9.36,74.88 -28.56,6.74 -49.93,-37.37 -51.35,-75.2 -48.59,46.65 -13.65,164.24 35.23,171.97 -29.78,-7.19 -59.21,-37.13 -73.54,-60.46 -55.46,-90.21 -27.06,-265.8 19.54,-328.34 -6.7,37.59 -11.81,68.85 14.18,105.49 6.8,9.59 2.05,5.86 11.46,11.34 -1.17,-70.37 -1.34,-111.94 18.41,-177 13.33,-43.91 41,-102.8 66.11,-130.84 0.02,72.75 -8.24,109.74 36.55,185.45 7.5,12.67 15.44,23.77 23.66,34.26 15.35,19.6 34.05,33.93 48.74,67.03 4.28,9.65 12.74,35.39 16.36,40.77 15.03,-10.95 18.11,-23.97 18.93,-48 23.04,38.25 25.9,140.17 14.46,188.56 -12.08,51.14 -58.49,106.05 -104.81,116.35 6.71,7.15 3.4,2.41 10.45,3.47 64.96,-21.81 112.01,-32.02 158.82,-97.74 38.22,-53.66 56.66,-131.26 38.57,-210.24 -7.73,9.74 -11.47,28.5 -15.96,41.04 -2.64,7.36 -4.98,13.6 -7.42,19.86 -7.04,18.12 -7.56,15.43 -14.11,19.1 -0.85,-42.11 3.85,-70.96 -6.23,-112.35 -5.82,-23.91 -24.54,-67.05 -37.82,-80.11 -1.38,23.75 9.2,60.19 -5.92,75.87 -23.02,11.38 -59.9,-42.44 -70.59,-57.9 -40.28,-58.26 -64.36,-138.21 -55.7,-212.58 5.8,-49.84 20.99,-67.78 32.78,-106.31 -72.95,20.65 -139.43,70.33 -171.33,117.94 -53.67,80.12 -47.64,205.3 -69.61,217.18 -22.23,6.79 -36.33,-29.14 -40.49,-53.54 -16.17,24.05 -22.35,76.59 -25.47,110.12 -4.46,47.74 0.59,83.16 5.72,129.19 -25.81,-7.24 -30.92,-25.51 -42.37,-36.46 8.62,122.92 64.34,189.24 167.08,225.82 16.18,5.76 33.79,10.34 50.99,13.03 20.62,3.23 43.55,1.2 63.99,4.72z"/>
 </g>
</svg>
