<!-- Generated by IcoMoon.io -->
<svg version="1.1" xmlns="http://www.w3.org/2000/svg" width="32" height="32" viewBox="0 0 32 32">
<title>frases-menos-te-quiero-y-mas-tequila</title>
<path d="M8.13 9.079h0.814v2.079h-0.543v-1.528l-0.417 1.528h-0.558l-0.42-1.544v1.544h-0.543v-2.079h0.814l0.427 1.504 0.427-1.504zM9.369 11.158v-2.079h1.562v0.463h-1.004v0.36h0.975v0.4h-0.975v0.392h1.027v0.463h-1.585zM11.334 11.158v-2.079h0.829l0.647 1.544v-1.544h0.532v2.079h-0.829l-0.647-1.558v1.558h-0.532zM14.27 9.949v0.342c0 0.178 0.020 0.29 0.060 0.335s0.124 0.069 0.251 0.069h0.104c0.127 0 0.211-0.023 0.253-0.070 0.041-0.046 0.061-0.158 0.061-0.333v-0.342c0-0.177-0.020-0.289-0.061-0.336s-0.125-0.070-0.253-0.070h-0.104c-0.127 0-0.21 0.023-0.251 0.070s-0.061 0.159-0.061 0.337zM13.701 9.902c0-0.316 0.059-0.536 0.177-0.661s0.325-0.188 0.619-0.188h0.274c0.295 0 0.502 0.063 0.621 0.188s0.178 0.346 0.178 0.661v0.432c0 0.315-0.059 0.535-0.178 0.661s-0.326 0.189-0.621 0.189h-0.274c-0.294 0-0.5-0.062-0.619-0.188s-0.177-0.346-0.177-0.662v-0.432zM15.834 10.514h0.535v0.021c0 0.075 0.020 0.128 0.060 0.157 0.040 0.030 0.111 0.045 0.212 0.045h0.14c0.085 0 0.144-0.011 0.178-0.034s0.051-0.063 0.051-0.121v-0.090c0-0.049-0.014-0.085-0.041-0.106s-0.088-0.038-0.183-0.049l-0.452-0.049c-0.168-0.019-0.291-0.071-0.369-0.159s-0.116-0.216-0.116-0.388v-0.128c0-0.097 0.015-0.183 0.046-0.259 0.030-0.076 0.075-0.139 0.133-0.187 0.050-0.042 0.111-0.072 0.183-0.089s0.179-0.026 0.321-0.026h0.334c0.208 0 0.366 0.042 0.476 0.125s0.165 0.205 0.165 0.364v0.143h-0.535v-0.023c0-0.062-0.015-0.105-0.044-0.13s-0.082-0.036-0.159-0.036h-0.129c-0.089 0-0.149 0.010-0.183 0.031-0.033 0.021-0.049 0.057-0.049 0.108v0.086c0 0.077 0.074 0.123 0.225 0.14v0l0.412 0.046c0.178 0.021 0.311 0.072 0.399 0.155s0.132 0.201 0.132 0.352v0.2c0 0.172-0.053 0.31-0.161 0.413s-0.251 0.155-0.432 0.155h-0.454c-0.243 0-0.42-0.042-0.53-0.126s-0.165-0.217-0.165-0.4v-0.144z"></path>
<path d="M5.506 10.994h0.097l0.042-0.010 0.042 0.029 0.065 0.065 0.074 0.119 0.042 0.135 0.013 0.12-0.087 0.328-0.010 0.055 0.074 0.019 0.157 0.010 0.267 0.032 0.329 0.022 0.342 0.042 0.125 0.055 0.022 0.019-0.009 0.013-0.152 0.042-0.107 0.052h-0.061l-0.033 0.032-0.18 0.010-0.013 0.032-0.029 0.013-0.129 0.009-0.117 0.033-0.286 0.084-0.267 0.097-0.097 0.052-0.135 0.054-0.097 0.149-0.010 0.097-0.032 0.061-0.045 0.097-0.010 0.064-0.010 0.042-0.042 0.074-0.055 0.192-0.010 0.075-0.054 0.158-0.033 0.129-0.009 0.097-0.019 0.029 0.010 0.022 0.010 0.171 0.009 0.019 0.12 0.065 0.105-0.010 0.127-0.065 0.032-0.018h0.032v0.018l-0.032 0.033-0.010 0.074-0.022 0.055-0.033 0.084-0.074 0.065-0.093 0.116-0.129 0.097-0.097 0.031-0.084 0.065-0.222-0.065-0.19-0.105-0.129-0.148-0.065-0.184-0.042-0.297 0.032-0.296 0.158-0.596 0.084-0.267-0.125 0.022-0.319-0.010-0.148-0.073-0.065-0.055-0.022-0.022-0.033-0.084-0.029-0.033 0.029-0.074-0.009-0.042 0.064-0.084 0.125-0.045 0.29-0.126 0.338-0.074 0.18-0.032 0.032-0.010 0.255-0.513 0.192-0.306 0.107-0.12 0.084-0.009zM8.1 12.544h-0.023l-0.145 0.025-0.202 0.084-0.255 0.127-0.257 0.206-0.129 0.129-0.177 0.219 0.129-0.002 0.232-0.084 0.219-0.112 0.174-0.113 0.139-0.129 0.125-0.122 0.171-0.226zM7.971 12.219l0.203-0.065 0.203 0.023 0.051 0.052 0.023 0.074-0.023 0.022 0.033 0.097-0.013 0.133-0.042 0.084-0.010 0.038-0.010 0.031-0.087 0.117-0.010 0.042-0.042 0.054-0.074 0.065-0.045 0.036-0.103 0.103-0.129 0.125-0.116 0.097-0.010 0.033-0.065 0.032h-0.022l-0.065 0.052-0.062 0.032-0.18 0.128-0.086 0.032-0.019 0.030-0.277 0.107-0.129 0.012-0.033 0.094 0.013 0.033 0.032 0.054 0.148 0.084 0.232 0.065 0.254 0.031 0.023 0.023 0.426 0.018 0.319-0.018 0.286-0.045 0.148-0.032h0.023v0.022l-0.162 0.097-0.148 0.073-0.009 0.020-0.065 0.022-0.084 0.010-0.023 0.033-0.139 0.054h-0.051l-0.023 0.033-0.042 0.009-0.055-0.009-0.010 0.009h-0.064l-0.032 0.033-0.137 0.018-0.086 0.013-0.125 0.020-0.077-0.010-0.010 0.010h-0.116l-0.033 0.022-0.042-0.010h-0.064l-0.023-0.012h-0.084l-0.019-0.020h-0.045l-0.074-0.022-0.019-0.010v-0.013l-0.013-0.010h-0.074l-0.022-0.010-0.042 0.010-0.041-0.031-0.085-0.062-0.097-0.097-0.084-0.115-0.087-0.194-0.010-0.074 0.010-0.033-0.029-0.115v-0.023l-0.017-0.029 0.017-0.045v-0.084l0.010-0.097 0.125-0.18 0.148-0.191 0.109-0.097 0.093-0.107 0.074-0.054 0.393-0.287 0.287-0.18 0.425-0.18zM11.88 15.667l-0.112 0.199-0.159 0.319-0.128 0.31-0.042 0.064-0.212 0.351-0.182 0.171-0.096 0.042-0.085-0.032-0.084-0.194-0.064-0.287-0.023-0.319v-0.305l0.042-0.319 0.107-0.629 0.148-0.605 0.045-0.172 0.022-0.029v-0.086l-0.257 0.097-0.159 0.009-0.171-0.054-0.073-0.062-0.117-0.203-0.010-0.177 0.019-0.194 0.094-0.203 0.16-0.2 0.139-0.151 0.139-0.149 0.458-0.373 0.255-0.159 0.222-0.087 0.073-0.009 0.117 0.022 0.022 0.023 0.148-0.172 0.032-0.012v-0.033l0.042-0.029h0.023l0.084 0.019 0.023-0.019 0.097 0.019 0.060 0.033 0.055 0.084-0.010 0.055-0.074 0.148-0.023 0.064-0.032 0.074-0.203 0.477-0.032 0.055-0.010 0.084-0.212 0.49-0.031 0.023-0.033 0.116-0.084 0.084-0.031 0.13-0.032 0.022-0.052 0.075v0.050l-0.055 0.065-0.074 0.191-0.033 0.022-0.073 0.269-0.074 0.093v0.054l-0.023 0.052-0.032 0.097-0.030 0.062-0.054 0.202-0.075 0.214-0.022 0.105-0.033 0.075v0.042l-0.042 0.145-0.035 0.194-0.019 0.132-0.010 0.18-0.007 0.073 0.007 0.097 0.035 0.19 0.042-0.055 0.287-0.666 0.222-0.449 0.35-0.615 0.033 0.074-0.026 0.097-0.036 0.087 0.042 0.097-0.006 0.077 0.017 0.081-0.052 0.123-0.019 0.152zM11.719 12.693l0.097-0.149-0.11 0.029-0.194 0.171-0.17 0.2-0.010 0.023-0.052 0.064-0.084 0.093-0.206 0.309-0.042 0.055-0.11 0.197-0.003 0.116 0.068 0.052 0.102-0.025 0.148-0.132 0.097-0.133 0.107-0.174 0.191-0.334 0.086-0.179 0.084-0.182zM13.133 12.077l0.061-0.035h0.010l0.092 0.022 0.058 0.117v0.153l-0.093 0.374v0.081l-0.057 0.258-0.081 0.492v0.326l0.035 0.045 0.062-0.052 0.071-0.135 0.361-0.853 0.070-0.175 0.187-0.421 0.017-0.055 0.031-0.049 0.055-0.061h0.067l0.085-0.022h0.080l0.142 0.036 0.045 0.070 0.012 0.093v0.013l-0.012 0.104 0.007 0.070-0.014 0.084-0.035 0.159-0.036 0.145-0.045 0.132-0.029 0.122-0.029 0.1-0.026 0.116-0.052 0.29-0.026 0.251 0.017 0.271 0.045 0.229-0.062 0.032-0.055-0.019-0.010 0.042-0.042-0.010-0.025 0.003-0.033-0.030-0.038-0.093-0.025-0.106-0.032-0.116-0.016-0.258-0.116 0.235-0.107 0.129-0.232 0.222-0.187 0.103-0.142 0.026-0.107-0.036-0.116-0.058-0.129-0.153-0.093-0.255-0.023-0.164 0.023-0.364 0.070-0.419 0.165-0.515 0.139-0.351 0.116-0.139zM15.689 11.532l0.042-0.013 0.073 0.045 0.075 0.020 0.022 0.097 0.020 0.009-0.020 0.023v0.125l-0.031 0.139-0.117 0.074-0.119 0.023-0.094-0.023-0.128-0.167-0.010-0.087v-0.084l0.020-0.086 0.054-0.010v-0.031l0.052-0.042h0.033l0.022-0.023 0.107 0.013zM15.402 12.605l0.097-0.042 0.062 0.020 0.032-0.020h0.022l0.085 0.075 0.042 0.022 0.077 0.148 0.010 0.104v0.109l-0.097 0.2-0.149 0.49-0.031 0.31-0.010 0.105 0.062 0.020 0.192-0.010 0.245-0.065-0.045 0.087v0.030l-0.062 0.107-0.045 0.045 0.013 0.031-0.073 0.052h-0.023l-0.018 0.042-0.087 0.031-0.020 0.023-0.194 0.115-0.073 0.055-0.139 0.019-0.020 0.010-0.032-0.019-0.128-0.055-0.159-0.116-0.097-0.116-0.042-0.107-0.042-0.235v-0.286l0.042-0.172 0.127-0.319 0.192-0.328 0.168-0.223 0.119-0.139zM18.115 12.544h-0.023l-0.145 0.025-0.202 0.084-0.255 0.127-0.257 0.206-0.129 0.129-0.177 0.219 0.129-0.002 0.232-0.084 0.219-0.112 0.174-0.113 0.139-0.129 0.125-0.122 0.171-0.226zM17.985 12.219l0.203-0.065 0.203 0.023 0.051 0.052 0.023 0.074-0.023 0.022 0.033 0.097-0.013 0.133-0.042 0.084-0.010 0.038-0.010 0.031-0.087 0.117-0.010 0.042-0.042 0.054-0.074 0.065-0.045 0.036-0.103 0.103-0.129 0.125-0.116 0.097-0.010 0.033-0.065 0.032h-0.022l-0.065 0.052-0.062 0.032-0.18 0.128-0.086 0.032-0.019 0.030-0.277 0.107-0.129 0.012-0.033 0.094 0.013 0.033 0.032 0.054 0.148 0.084 0.232 0.065 0.254 0.031 0.023 0.023 0.425 0.018 0.319-0.018 0.286-0.045 0.148-0.032h0.023v0.022l-0.162 0.097-0.148 0.073-0.009 0.020-0.065 0.022-0.084 0.010-0.023 0.033-0.139 0.054h-0.051l-0.023 0.033-0.042 0.009-0.055-0.009-0.010 0.009h-0.064l-0.032 0.033-0.137 0.018-0.086 0.013-0.125 0.020-0.077-0.010-0.010 0.010h-0.116l-0.033 0.022-0.042-0.010h-0.064l-0.023-0.012h-0.084l-0.019-0.020h-0.045l-0.074-0.022-0.019-0.010v-0.013l-0.013-0.010h-0.074l-0.022-0.010-0.042 0.010-0.041-0.031-0.085-0.062-0.097-0.097-0.084-0.115-0.087-0.194-0.010-0.074 0.010-0.033-0.029-0.115v-0.023l-0.017-0.029 0.017-0.045v-0.084l0.010-0.097 0.125-0.18 0.148-0.191 0.109-0.097 0.093-0.107 0.074-0.054 0.393-0.287 0.287-0.18 0.425-0.18zM19.665 12.16l0.065-0.032h0.097l0.115 0.116v0.139l-0.010 0.075 0.135-0.075 0.194-0.052 0.264 0.010 0.13 0.020 0.222 0.119 0.086 0.075 0.074 0.139 0.010 0.073-0.073 0.074v0.023l-0.088 0.084-0.074-0.010-0.032-0.055-0.075-0.032-0.241-0.052h-0.078l-0.147 0.020-0.172 0.086-0.125 0.106-0.16 0.223-0.107 0.222-0.125 0.468-0.042 0.286-0.013 0.097-0.052 0.235-0.023 0.042-0.105 0.033-0.065 0.050-0.061 0.013-0.054-0.022-0.010-0.042-0.097-0.149-0.019-0.074 0.010-0.032-0.022-0.022-0.020-0.065 0.020-0.065 0.032-0.074 0.010-0.148 0.151-0.638 0.213-0.711 0.149-0.339 0.115-0.139zM22.746 12.583l-0.035-0.039-0.045 0.003-0.062 0.015-0.038 0.033-0.074 0.060-0.085 0.062-0.144 0.17-0.113 0.178-0.097 0.158-0.122 0.232-0.090 0.258-0.006 0.135 0.038 0.065 0.068 0.017 0.087-0.010 0.093-0.026 0.112-0.042 0.152-0.109 0.119-0.139 0.127-0.178 0.084-0.267 0.025-0.164 0.013-0.239-0.006-0.174zM22.516 11.967l0.135-0.074 0.065 0.019 0.105 0.010 0.13 0.023 0.042 0.055 0.042 0.084v0.022l-0.020 0.020 0.030 0.022 0.074 0.107-0.032 0.065 0.054 0.009-0.009 0.033 0.042 0.042 0.010 0.097 0.061 0.147 0.058 0.223 0.010 0.064 0.018 0.084 0.023 0.107-0.023 0.045-0.018 0.093 0.032 0.097-0.013 0.042-0.018 0.129-0.075 0.2v0.086l-0.042 0.052-0.077 0.042-0.020 0.107-0.129 0.129-0.055 0.077-0.141 0.097-0.109 0.080-0.056 0.033v0.022l-0.093 0.074h-0.055l-0.032 0.033-0.032-0.014-0.020 0.022-0.16 0.052-0.075-0.019-0.010 0.032h-0.022l-0.020-0.022-0.064 0.042h-0.18l-0.033-0.020-0.022 0.010-0.197-0.035-0.122-0.072-0.097-0.052-0.074-0.077-0.052-0.061-0.023-0.074-0.018-0.023-0.033-0.054v-0.075l-0.012-0.115-0.030-0.023-0.003-0.077-0.045-0.032-0.007-0.058v-0.065l0.043-0.022-0.010-0.020v-0.032l-0.010-0.139 0.010-0.097 0.105-0.212 0.043-0.125 0.054-0.033 0.020-0.097 0.361-0.499 0.128-0.128 0.084-0.094 0.246-0.212 0.065-0.033 0.057-0.048 0.090-0.039 0.033 0.023 0.054-0.023 0.065 0.045z"></path>
<path d="M14.791 17.191h0.097l0.042-0.010 0.042 0.029 0.065 0.066 0.074 0.12 0.042 0.137 0.013 0.121-0.088 0.331-0.010 0.056 0.076 0.020 0.159 0.010 0.27 0.032 0.332 0.022 0.345 0.042 0.127 0.056 0.022 0.020-0.009 0.013-0.153 0.042-0.108 0.052h-0.061l-0.034 0.032-0.182 0.010-0.013 0.033-0.029 0.013-0.13 0.009-0.118 0.034-0.289 0.084-0.27 0.098-0.098 0.052-0.136 0.054-0.098 0.15-0.010 0.097-0.032 0.062-0.046 0.097-0.010 0.065-0.010 0.042-0.042 0.075-0.056 0.195-0.010 0.076-0.054 0.159-0.033 0.131-0.009 0.097-0.019 0.029 0.010 0.022 0.010 0.174 0.009 0.019 0.121 0.065 0.107-0.010 0.128-0.066 0.033-0.018h0.032v0.018l-0.032 0.034-0.010 0.074-0.022 0.056-0.033 0.084-0.074 0.065-0.094 0.117-0.13 0.097-0.098 0.033-0.084 0.065-0.225-0.065-0.192-0.107-0.13-0.15-0.066-0.186-0.042-0.3 0.032-0.298 0.16-0.602 0.084-0.27-0.127 0.022-0.322-0.010-0.15-0.074-0.065-0.056-0.022-0.022-0.033-0.084-0.029-0.033 0.029-0.074-0.009-0.042 0.065-0.084 0.127-0.046 0.293-0.128 0.342-0.074 0.182-0.033 0.032-0.010 0.258-0.518 0.194-0.309 0.108-0.121 0.085-0.009zM17.41 18.755h-0.023l-0.147 0.026-0.204 0.084-0.258 0.128-0.259 0.208-0.13 0.13-0.179 0.221 0.13-0.002 0.234-0.085 0.221-0.113 0.175-0.115 0.14-0.13 0.127-0.123 0.174-0.228zM17.279 18.427l0.206-0.066 0.205 0.023 0.052 0.052 0.023 0.074-0.023 0.022 0.033 0.097-0.014 0.135-0.042 0.084-0.010 0.039-0.010 0.032-0.088 0.118-0.010 0.042-0.042 0.054-0.074 0.065-0.046 0.035-0.104 0.104-0.13 0.127-0.117 0.098-0.010 0.033-0.065 0.032h-0.022l-0.066 0.053-0.062 0.032-0.182 0.13-0.088 0.032-0.019 0.030-0.28 0.108-0.13 0.013-0.033 0.094 0.013 0.034 0.032 0.054 0.15 0.084 0.234 0.065 0.257 0.033 0.023 0.023 0.43 0.019 0.322-0.019 0.289-0.045 0.15-0.032h0.023v0.022l-0.163 0.098-0.149 0.074-0.009 0.020-0.065 0.022-0.085 0.010-0.023 0.033-0.14 0.054h-0.051l-0.023 0.033-0.042 0.009-0.056-0.009-0.010 0.009h-0.064l-0.032 0.033-0.138 0.019-0.088 0.013-0.127 0.020-0.078-0.010-0.010 0.010h-0.117l-0.033 0.022-0.042-0.010h-0.064l-0.023-0.013h-0.084l-0.020-0.020h-0.046l-0.074-0.022-0.020-0.010v-0.013l-0.012-0.010h-0.076l-0.022-0.010-0.042 0.010-0.042-0.032-0.085-0.062-0.098-0.098-0.084-0.117-0.088-0.195-0.010-0.074 0.010-0.033-0.029-0.117v-0.023l-0.017-0.029 0.017-0.045v-0.085l0.010-0.097 0.127-0.182 0.15-0.192 0.109-0.097 0.094-0.108 0.076-0.054 0.396-0.29 0.29-0.182 0.429-0.182zM19.892 21.908l-0.113 0.201-0.16 0.322-0.13 0.313-0.042 0.065-0.214 0.354-0.183 0.174-0.097 0.042-0.085-0.033-0.085-0.195-0.064-0.29-0.023-0.322v-0.309l0.042-0.322 0.108-0.635 0.15-0.61 0.045-0.174 0.022-0.029v-0.088l-0.26 0.097-0.16 0.009-0.172-0.054-0.074-0.062-0.118-0.206-0.010-0.179 0.020-0.195 0.094-0.204 0.163-0.202 0.14-0.152 0.14-0.15 0.462-0.377 0.258-0.16 0.224-0.088 0.074-0.009 0.118 0.022 0.022 0.023 0.149-0.173 0.033-0.013v-0.033l0.042-0.029h0.023l0.084 0.019 0.023-0.019 0.098 0.019 0.061 0.033 0.056 0.084-0.010 0.056-0.074 0.15-0.023 0.065-0.032 0.074-0.206 0.482-0.032 0.056-0.010 0.084-0.215 0.494-0.032 0.023-0.033 0.116-0.084 0.085-0.033 0.131-0.032 0.022-0.052 0.076v0.051l-0.056 0.066-0.074 0.192-0.033 0.022-0.074 0.271-0.074 0.095v0.054l-0.023 0.052-0.032 0.098-0.030 0.062-0.054 0.204-0.076 0.215-0.022 0.107-0.033 0.076v0.042l-0.042 0.147-0.035 0.195-0.019 0.133-0.010 0.182-0.007 0.074 0.007 0.097 0.035 0.192 0.042-0.056 0.29-0.673 0.224-0.453 0.355-0.621 0.033 0.074-0.027 0.097-0.035 0.088 0.042 0.097-0.007 0.078 0.017 0.082-0.053 0.124-0.019 0.153zM19.73 18.905l0.098-0.15-0.111 0.029-0.195 0.172-0.172 0.202-0.010 0.023-0.052 0.064-0.085 0.095-0.207 0.312-0.042 0.056-0.111 0.199-0.003 0.117 0.069 0.052 0.103-0.026 0.15-0.133 0.097-0.135 0.108-0.175 0.192-0.338 0.088-0.18 0.084-0.184zM21.158 18.283l0.062-0.035h0.010l0.093 0.022 0.059 0.118v0.155l-0.095 0.377v0.081l-0.058 0.261-0.082 0.497v0.329l0.036 0.046 0.062-0.052 0.072-0.137 0.364-0.862 0.071-0.176 0.189-0.425 0.017-0.055 0.032-0.049 0.056-0.062h0.068l0.086-0.022h0.081l0.143 0.035 0.046 0.071 0.012 0.095v0.013l-0.012 0.104 0.007 0.071-0.014 0.085-0.035 0.16-0.037 0.147-0.045 0.133-0.029 0.123-0.029 0.101-0.027 0.118-0.052 0.292-0.025 0.254 0.017 0.273 0.045 0.231-0.062 0.032-0.056-0.019-0.010 0.042-0.042-0.010-0.026 0.003-0.033-0.030-0.039-0.095-0.026-0.107-0.032-0.117-0.017-0.26-0.117 0.238-0.108 0.13-0.234 0.224-0.188 0.105-0.144 0.025-0.108-0.035-0.116-0.059-0.13-0.155-0.095-0.258-0.023-0.166 0.023-0.368 0.071-0.423 0.167-0.521 0.14-0.354 0.117-0.14zM23.739 17.734l0.042-0.014 0.074 0.046 0.076 0.020 0.022 0.097 0.019 0.009-0.019 0.023v0.127l-0.033 0.14-0.117 0.074-0.12 0.023-0.094-0.023-0.13-0.169-0.010-0.088v-0.084l0.020-0.088 0.054-0.010v-0.032l0.052-0.042h0.033l0.022-0.023 0.108 0.014zM23.449 18.816l0.098-0.042 0.062 0.020 0.033-0.020h0.022l0.086 0.076 0.042 0.022 0.078 0.15 0.010 0.104v0.11l-0.098 0.202-0.15 0.494-0.032 0.313-0.010 0.107 0.062 0.020 0.194-0.010 0.248-0.065-0.046 0.088v0.030l-0.062 0.108-0.046 0.046 0.014 0.032-0.074 0.052h-0.023l-0.019 0.042-0.088 0.032-0.020 0.023-0.195 0.116-0.074 0.056-0.14 0.019-0.020 0.010-0.032-0.019-0.13-0.056-0.16-0.118-0.097-0.116-0.042-0.108-0.042-0.238v-0.289l0.042-0.174 0.128-0.322 0.194-0.331 0.17-0.226 0.12-0.14zM25.833 16.51l0.042-0.022 0.076 0.012 0.074 0.095 0.023 0.042v0.097l-0.085 0.248-0.088 0.182-0.022 0.084-0.15 0.28-0.042 0.056-0.052 0.127-0.033 0.045-0.032 0.076-0.131 0.234-0.064 0.13-0.076 0.15-0.042 0.074-0.054 0.108v0.084l-0.052 0.046 0.009 0.029-0.074 0.163v0.022l-0.017 0.084-0.058 0.076 0.009 0.085-0.019 0.022-0.023 0.066-0.019 0.117-0.033 0.191-0.009 0.045v0.076l-0.023 0.032 0.010 0.033v0.062l-0.020 0.032v0.14l0.010 0.042 0.010 0.14 0.056 0.195 0.042 0.095-0.010 0.056 0.052 0.052v0.045l0.117 0.127 0.163 0.033 0.084-0.009 0.032 0.019 0.056 0.032-0.088 0.042v0.033h-0.010l-0.107 0.065-0.033 0.010h-0.084l-0.195-0.074-0.085-0.076-0.097-0.096-0.042-0.062-0.14-0.247-0.010-0.065-0.054-0.192-0.042-0.313v-0.182l0.022-0.224 0.020-0.032-0.020-0.032 0.085-0.453 0.149-0.439 0.023-0.042 0.107-0.299 0.28-0.54 0.042-0.062 0.117-0.228 0.302-0.448 0.169-0.214 0.054-0.076zM27.655 18.706l-0.052-0.010-0.208 0.074-0.297 0.179-0.371 0.274-0.238 0.231-0.182 0.208-0.11 0.244-0.013 0.091 0.077 0.042 0.325-0.263 0.378-0.335 0.445-0.44 0.245-0.296zM27.353 18.381l0.204-0.049h0.085l0.104 0.12 0.013 0.042-0.059 0.15 0.143-0.127h0.020l0.088-0.010 0.127 0.035 0.032 0.033 0.042 0.065 0.020 0.032 0.010 0.163-0.035 0.084 0.019 0.108-0.157 0.393-0.123 0.322v0.030l-0.078 0.14-0.058 0.246-0.014 0.095-0.032 0.010v0.108l-0.032 0.074 0.010 0.065-0.026 0.084-0.010 0.066 0.034 0.032 0.015 0.162 0.042 0.065 0.020 0.053 0.066 0.056 0.074 0.022 0.052 0.014v0.019l-0.085 0.019-0.033 0.033h-0.032l-0.074 0.052-0.013 0.032h-0.032l-0.118-0.012-0.074-0.035-0.16-0.163-0.052-0.117-0.049-0.121v-0.042l-0.029-0.14-0.039-0.28 0.026-0.312 0.037-0.224h-0.020v0.022l-0.153 0.179-0.152 0.147-0.069 0.108-0.065 0.062-0.074 0.074-0.12 0.095-0.209 0.127-0.224 0.081-0.108-0.012-0.204-0.069-0.16-0.078-0.061-0.097-0.042-0.088-0.007-0.149 0.022-0.169 0.049-0.215 0.133-0.243 0.032-0.033 0.121-0.149 0.315-0.283 0.479-0.336 0.4-0.241 0.251-0.123z"></path>
<path d="M12.417 15.301h0.652l0.384 0.832 0.377-0.832h0.647l-0.739 1.401v0.756h-0.579v-0.756l-0.742-1.401zM17.458 15.301h0.845v2.158h-0.564v-1.586l-0.434 1.586h-0.579l-0.436-1.603v1.603h-0.563v-2.158h0.845l0.442 1.561 0.443-1.561zM19.405 16.643h0.472l-0.214-0.894h-0.037l-0.221 0.894zM18.58 17.459l0.621-2.158h0.89l0.606 2.158h-0.62l-0.097-0.377h-0.68l-0.099 0.377h-0.621zM20.061 14.583l-0.453 0.537h-0.206l0.286-0.537h0.373zM20.875 16.791h0.555v0.022c0 0.078 0.021 0.132 0.062 0.163s0.115 0.046 0.22 0.046h0.145c0.088 0 0.149-0.012 0.184-0.035s0.053-0.065 0.053-0.125v-0.094c0-0.051-0.014-0.088-0.042-0.11-0.027-0.022-0.090-0.040-0.189-0.051l-0.47-0.050c-0.175-0.019-0.303-0.074-0.384-0.164s-0.12-0.224-0.12-0.403v-0.133c0-0.1 0.015-0.19 0.048-0.269s0.078-0.143 0.139-0.194c0.052-0.044 0.115-0.074 0.19-0.092s0.186-0.027 0.333-0.027h0.347c0.216 0 0.38 0.044 0.494 0.131s0.171 0.213 0.171 0.377v0.148h-0.555v-0.023c0-0.065-0.015-0.11-0.046-0.135s-0.085-0.037-0.165-0.037h-0.133c-0.092 0-0.155 0.011-0.19 0.033-0.034 0.022-0.052 0.059-0.052 0.112v0.090c0 0.079 0.078 0.128 0.234 0.145v0l0.428 0.048c0.185 0.021 0.322 0.074 0.413 0.162s0.136 0.208 0.136 0.364v0.207c0 0.179-0.056 0.322-0.167 0.429s-0.261 0.162-0.448 0.162h-0.471c-0.252 0-0.435-0.044-0.55-0.131s-0.171-0.226-0.171-0.415v-0.149z"></path>
</svg>
