<?xml version="1.0" encoding="UTF-8"?>
<!DOCTYPE svg PUBLIC "-//W3C//DTD SVG 1.1//EN" "http://www.w3.org/Graphics/SVG/1.1/DTD/svg11.dtd">
<!-- Creator: CorelDRAW 2017 -->
<svg xmlns="http://www.w3.org/2000/svg" xml:space="preserve" width="33.1892mm" height="21.8438mm" version="1.1" style="shape-rendering:geometricPrecision; text-rendering:geometricPrecision; image-rendering:optimizeQuality; fill-rule:evenodd; clip-rule:evenodd"
viewBox="0 0 3318.92 2184.38"
 xmlns:xlink="http://www.w3.org/1999/xlink">
 <defs>
  <style type="text/css">
   <![CDATA[
    .str0 {stroke:#FEFEFE;stroke-width:7.62;stroke-miterlimit:22.9256}
    .fil13 {fill:#FEFEFE}
    .fil9 {fill:#EEECEC}
    .fil6 {fill:#ECE1E1}
    .fil4 {fill:#E8DBE1}
    .fil1 {fill:#E3C9D7}
    .fil3 {fill:#E6DD30}
    .fil12 {fill:#DCD6AE}
    .fil10 {fill:#C4B2B4}
    .fil2 {fill:#AAA8A7}
    .fil11 {fill:#544E52}
    .fil8 {fill:#2E2C2D}
    .fil5 {fill:#2A2B2B}
    .fil7 {fill:#169651}
    .fil0 {fill:#198E4F}
   ]]>
  </style>
 </defs>
 <g id="Capa_x0020_1">
  <metadata id="CorelCorpID_0Corel-Layer"/>
  <g id="_2093312970608">
   <path class="fil0" d="M1001.8 1738.94c18.07,3.68 35.27,5.18 52.1,10.11 15.62,4.57 28.8,12.77 42.9,15.81l-48.11 -60.34c-8.22,-17.39 -4.46,-17.39 -16.21,-25.87 -12.64,14.64 -27.39,41.87 -30.68,60.29z"/>
   <path class="fil0" d="M946.65 1851.93c-11.35,7.54 -18.65,21.46 -24.47,34.24l48.2 7.25c-5.87,-17.13 -15.84,-21.57 -23.73,-41.49z"/>
   <path class="fil1" d="M1162.06 1558.35c42.97,30.57 118.21,75.86 126.03,-11.95 3.14,-35.27 -7.04,-35.13 -35.25,-45.84 -56.46,-21.43 -93.38,-2.93 -90.78,57.79z"/>
   <path class="fil1" d="M947.07 1803.49c1.41,20.66 35.27,42.37 52.58,53.67 15.39,10.05 20.16,10.58 36.19,-0.45 90.19,-62.1 -94.18,-132.3 -88.77,-53.22z"/>
   <path class="fil1" d="M1160.17 1646.25c-15.15,-9.21 -48.61,-29.39 -70.63,-32.3 -34.65,-4.58 -57.97,29.7 -44.38,52.49 0.48,0.8 85.25,95.69 115.01,-20.19z"/>
   <path class="fil1" d="M2415.17 427.36c-6.76,-6.63 5.09,-2.5 -15.16,-7.54l-67.34 -4.18c-21.01,0.21 -79.94,3.88 -59.08,31.07 10.04,13.09 60.25,12.35 79.98,11.97 38.13,-0.75 43.03,-7.77 61.6,-31.32z"/>
   <path class="fil1" d="M911.86 1906.92c-9.44,27.5 8.14,41.77 34.45,44.61 36.31,3.92 42.04,-1.32 47.86,-32.2 -18.45,-14.55 -58.23,-25.84 -82.31,-12.41z"/>
   <path class="fil1" d="M2491.6 647.62c19.93,-5.5 31.47,-13.55 50.9,-20.45 37.47,-13.29 47.68,-5.84 46.53,-32.05 -35.64,-16.77 -99.24,15.6 -97.43,52.5z"/>
   <path class="fil1" d="M1289.32 1299.65c1,-40.33 -29.4,-64.46 -61.57,-78.09 -12.07,23.63 -6.69,33.1 12.06,47.87 12.75,10.05 30.49,25.92 49.51,30.22z"/>
   <path class="fil1" d="M2950.73 990.17c26.4,5.28 55.35,-42.09 60.07,-71.39 -20.9,7.82 -23.07,16.86 -36.96,29.35 -14.29,12.84 -30.56,15.82 -23.11,42.04z"/>
   <path class="fil2" d="M1296.06 1323.57l24.17 14.45c-20.99,11.18 -17.2,-15.95 -40.26,0.62 6.21,11.44 16.49,15.32 32.27,24.01 10.51,5.78 23.05,13.07 34.39,19.41 19.14,10.69 52.25,33.9 71.53,35.84l5.85 -15.69 -18.78 -13.99 17.61 -3.88c-11.1,-7.37 -7.68,-2.71 -13.02,-14.5 3.87,-0.08 13.96,0.49 16.63,0.24 34.6,-3.17 16.06,-29.53 11,-33.02 -17.74,-12.22 -29.81,-6.92 -51.47,-27.37 -44.01,-41.53 -55.07,-37.61 -89.92,13.88z"/>
   <path class="fil3" d="M1454.28 1318.87c58.07,-12.79 154.68,-131.19 169.69,-176.35 -75.47,23.06 -45.73,-29.29 -100.4,-26.31 -21.8,31.68 -19.88,102.62 -43.02,158.54 -9.03,21.83 -16.45,28.19 -26.27,44.12z"/>
   <path class="fil3" d="M1385.2 1286.38c25.64,-44.02 -13.33,-51.79 80.31,-125.85 9.85,-7.79 29.8,-21.88 38.52,-31.4 -10.57,-26.46 -25.71,-15.67 -27.13,-55.81 -26.31,16.42 -57.19,57.48 -73.71,87.01 -23.94,42.8 -36.3,73.38 -17.99,126.05z"/>
   <path class="fil4" d="M1190.3 1588.42c23.22,58.71 223.17,130.24 272.83,131.88 11.9,-15.27 29.12,-63.51 34.05,-85.63 8.99,-40.3 -15.37,-60.23 -43.18,-74.41 -34.07,-17.39 -60.96,-16.27 -96.41,-27.71 -29.82,-9.63 -49.67,-32.66 -83.67,-37.61 33.31,16.06 44.38,50.81 22.08,91.93 -24.15,44.52 -66.79,14.12 -105.7,1.55z"/>
   <path class="fil4" d="M2208.58 585.9c-4.03,26.09 1.29,39.69 9.91,61.36 3.41,8.58 6.09,15.99 8.92,24.24 5.67,16.5 0.44,13.69 13.19,21.37 25.34,3.93 6.08,2.04 21.34,-3.5 27.09,-9.83 10.07,-9.6 16.41,1.19l3.59 -7.3c5.88,-15.57 0.64,-21.52 25.92,-30.47 0.19,1.06 0.9,1.42 1.24,2.97l7.57 9.98c4.33,-17.89 -4.66,-1.46 7.52,-16.88 9.26,-11.71 22.65,-8.05 33.89,-20.34 -15.45,-29.77 -58.7,-57.41 -99.96,-69.17 -26.71,3.08 -33.13,15.58 -49.54,26.55z"/>
   <path class="fil5" d="M911.86 1906.92c24.08,-13.43 63.86,-2.14 82.31,12.41 -5.82,30.88 -11.55,36.12 -47.86,32.2 -26.31,-2.84 -43.89,-17.11 -34.45,-44.61zm34.79 -54.99c7.89,19.92 17.86,24.36 23.73,41.49l-48.2 -7.25c5.82,-12.78 13.12,-26.7 24.47,-34.24zm0.42 -48.44c-5.41,-79.08 178.96,-8.88 88.77,53.22 -16.03,11.03 -20.8,10.5 -36.19,0.45 -17.31,-11.3 -51.17,-33.01 -52.58,-53.67zm74.69 -43.56c91.52,17.51 138.31,66.51 200.28,102.39 38.43,22.26 97.85,41.78 128.43,74.67 16.04,17.24 1.49,41.78 -15.38,69.46 -29.26,47.99 -83.55,63.57 -138.95,22.71l12.26 -20.2c-19.45,-8.76 -38.7,-23.85 -60.65,-35.23 -21.84,-11.31 -45.17,-20.66 -67.19,-32.11 -36.38,-18.91 -96.7,-59.71 -114.52,-84.88 32.07,1.9 33.54,21.28 53.61,20.41 36.96,-1.62 69.81,-54.66 44.82,-84.96 -11,-13.34 -32.09,-15.81 -42.71,-32.26zm-19.96 -20.99c3.29,-18.42 18.04,-45.65 30.68,-60.29 11.75,8.48 7.99,8.48 16.21,25.87l48.11 60.34c-14.1,-3.04 -27.28,-11.24 -42.9,-15.81 -16.83,-4.93 -34.03,-6.43 -52.1,-10.11zm158.37 -92.69c-29.76,115.88 -114.53,20.99 -115.01,20.19 -13.59,-22.79 9.73,-57.07 44.38,-52.49 22.02,2.91 55.48,23.09 70.63,32.3zm-30.23 -35.72c50.25,0.11 68.05,44.93 99.47,62.41 28.13,15.64 86.42,46.1 124.1,49.78l-15.05 -14.5c-4.82,-3.77 -10.33,-7.94 -14.78,-10.43 35.01,6.86 43.13,15.27 61.6,38.71 14.97,19.01 40.88,35.2 39.99,66.78 -1.77,62.9 -51.67,101.39 -113.13,76.62 -70.46,-28.39 -233.08,-136.3 -245.79,-179.78 30.02,8.5 90.58,52.59 106.1,-55.03l-42.51 -34.56zm32.12 -52.18c-2.6,-60.72 34.32,-79.22 90.78,-57.79 28.21,10.71 38.39,10.57 35.25,45.84 -7.82,87.81 -83.06,42.52 -126.03,11.95zm28.24 30.07c38.91,12.57 81.55,42.97 105.7,-1.55 22.3,-41.12 11.23,-75.87 -22.08,-91.93 34,4.95 53.85,27.98 83.67,37.61 35.45,11.44 62.34,10.32 96.41,27.71 27.81,14.18 52.17,34.11 43.18,74.41 -4.93,22.12 -22.15,70.36 -34.05,85.63 -49.66,-1.64 -249.61,-73.17 -272.83,-131.88zm7.31 -243.69c75.61,14.58 144.34,60.14 208.99,87.72l-47 82.02c-52.17,-14 -83.28,-56.51 -149.19,-37.98 -25.11,7.06 -49.82,20.33 -58.33,40.98 -12.21,29.65 6,54.61 12.62,76.86 -97.67,-5.31 -46.8,3.66 -92.53,5.75l125.44 -255.35zm-152.56 7.53c12.7,-6.59 23.42,-16.84 37.12,-25 45.41,21.41 33.13,25.81 98.5,24.03l-31.66 59.28c-21.26,-7.24 -91.06,-44.93 -103.96,-58.31zm364.77 17.58c5.34,11.79 1.92,7.13 13.02,14.5l-17.61 3.88 18.78 13.99 -5.85 15.69c-19.28,-1.94 -52.39,-25.15 -71.53,-35.84 -11.34,-6.34 -23.88,-13.63 -34.39,-19.41 -15.78,-8.69 -26.06,-12.57 -32.27,-24.01 23.06,-16.57 19.27,10.56 40.26,-0.62l-24.17 -14.45c34.85,-51.49 45.91,-55.41 89.92,-13.88 21.66,20.45 33.73,15.15 51.47,27.37 5.06,3.49 23.6,29.85 -11,33.02 -2.67,0.25 -12.76,-0.32 -16.63,-0.24zm-120.5 -70.19c-19.02,-4.3 -36.76,-20.17 -49.51,-30.22 -18.75,-14.77 -24.13,-24.24 -12.06,-47.87 32.17,13.63 62.57,37.76 61.57,78.09zm117.64 -10.46c3.22,-69.46 40.35,-94.66 79.83,-121.01 3.34,24.61 -6.03,60.86 -11.36,84.59 -7.91,35.24 -8.48,49.45 -40.98,58.35 14.15,-30.13 27.67,-29.21 21.15,-74.79 -28.17,5.34 -37.84,30.22 -48.64,52.86zm47.32 29.68c9.82,-15.93 17.24,-22.29 26.27,-44.12 23.14,-55.92 21.22,-126.86 43.02,-158.54 54.67,-2.98 24.93,49.37 100.4,26.31 -15.01,45.16 -111.62,163.56 -169.69,176.35zm-69.08 -32.49c-18.31,-52.67 -5.95,-83.25 17.99,-126.05 16.52,-29.53 47.4,-70.59 73.71,-87.01 1.42,40.14 16.56,29.35 27.13,55.81 -8.72,9.52 -28.67,23.61 -38.52,31.4 -93.64,74.06 -54.67,81.83 -80.31,125.85zm855.4 -593.51c-17.58,24.06 -288.86,160.91 -355.75,195.72 -35.01,18.22 -36.16,19.45 -45.35,61.82 -9.19,42.34 -26.49,83.72 -55.65,110.25 -15.44,14.05 -18.86,18.8 -31.39,21.28 -18.72,27.56 -121.22,58.21 -156,28.89 -36.3,2.64 -97.27,-35.72 -103.78,-55.13 -11.08,-7.13 -6.9,-4.5 -15.62,-15.14 -3.35,-4.08 -7.5,-9.26 -10.79,-13.84 -9.99,-13.89 -11.39,-19.19 -15.69,-36.1 -19.93,-26.71 -21.45,-75.03 -13.32,-110.9 6.11,-26.99 22.77,-76.87 39.81,-90.05 -3.72,-4.43 9.9,-17.73 -14.09,-0.76 -22.97,16.26 -39.46,73.8 -42.15,104.22 -10.4,117.57 66.75,145.3 15.57,201.05 -65.68,71.56 -72.27,70.94 -78.33,169.91 -32.43,4.71 -30.81,5.26 -54.53,12.07 -24.32,-24.05 -30.83,-37.42 -61.33,-58.72 -89.03,-62.16 -76.72,-103.16 -124.07,-116.6 -20.88,-5.93 -35.02,0.88 -50.06,10.11 -17.1,10.5 -20.14,10.84 -38.86,18.93 -14.56,6.29 -22.95,16 -37.19,24.79 -38.66,23.86 -157.63,100.53 -188.41,109.64 -58.14,17.19 -176.68,97.16 -227.15,129.15 -73.62,46.65 -187.27,69.01 -274.79,85.45 -95.19,17.87 -196.23,51.9 -291.22,65.82l5.24 25.91c23.74,19.6 67.66,-3.79 94.41,-10.46 125.06,-31.19 339.84,-71.54 451.16,-128.12 52.15,-26.5 93.52,-61.55 140.03,-91.86 50.52,-32.93 107.18,-44.65 155.78,-76.05 47.88,-30.94 92.25,-60 141.72,-90.12 41.8,-25.45 103.28,-89.73 153.64,-36.57 112.15,118.4 2.92,98.19 78.36,145.36 -36.78,14.05 -25.07,-5.54 -36.9,45 -36.03,8.48 -68.22,9.29 -95.21,-12.52 7.26,-17.03 30.13,-42.98 16.61,-66.45 -14.98,8.54 -14.69,32.63 -21.78,53.79l-27.66 -6.38c5.66,44.17 -14.3,21.89 -45.25,61.39l116.13 64.23c-4.32,21.59 -140.73,307.17 -181.45,341.66 -25.53,21.62 -14.63,26.89 -25.13,61.88 -6.2,20.66 -15.85,44.09 -28.41,59.25 -8.15,-43.83 1.08,-106.55 -34.62,-132.49 0.14,42.82 10.14,83.04 9.18,125.81 -0.9,40.27 -15.17,89.07 -8.67,127.31 17.07,-14.62 12.01,-29.75 24.05,-43.85 27.42,45.65 38.99,55.04 84.88,79.94 40,21.69 62.85,62.19 94.43,72.64 -10.24,-20.18 -55.55,-64.64 -73.22,-77.33 -27.16,-19.51 -65.71,-42.63 -74.08,-78.1 17.43,3.25 39.26,12.93 56.52,7.79 20.98,-6.24 18.83,-24.3 31.56,-38.48 35.42,13.28 81.81,44.6 116.88,64.93 27.6,16 41.39,6.88 46.58,23.19 1.16,3.64 1.75,6.06 3,9.79 8.49,25.44 15.46,23.99 23.29,39.31 13.86,27.09 -25.19,119.81 -144.92,53.6 -73.56,-40.69 -23.82,-39.24 -131.8,-37.47 -95.48,1.56 -291.94,-123.25 -381.54,-128.08 -104.52,-5.65 -184.92,63.08 -271.36,68.49 -7.78,5.14 -13.92,2.63 -26.4,9.56 -0.8,11.01 54.65,26.93 71.98,25.06l69.45 -21.91c20.41,-10.93 78.3,-30.72 103.24,-32.8 33.69,-13.02 77.32,3.86 107.49,12.25 15.13,17.18 45.8,21.54 66.3,34.53 24.67,5.73 82.8,15.52 97.25,29.06l68.38 19.08c35.79,3.8 62.16,7.84 99.35,7.81 57.61,-0.03 47.86,-8.77 80.47,24.27 36.17,36.64 85.47,61.63 157.91,54.63 5.15,-3.28 18.95,-8.18 29.03,-17.38 6.55,-5.98 18.87,-25.48 21.78,-27.25l16.51 -68.43c18.33,-13.02 27.48,-6.31 48.95,-11.1 19.75,-4.41 29.89,-16.34 44.3,-21.61 11.66,-18.06 29.7,-31.84 38.15,-62.09 12.39,-44.37 -14.45,-40.65 -25.98,-67.35 84.59,-9.05 87.74,-44.58 92.53,-118.36 1.89,-29.1 -10.65,-25.11 -17.85,-48.29 38.34,0.45 63.61,0.12 77.93,-28.01 10.5,-20.63 17.96,-70.45 14.74,-95.4 -8.33,-64.6 -83.87,-80.91 -119.38,-104.05 3.8,-21.17 29.94,-68.17 40.79,-88.26 18.49,-34.25 24.4,-57.31 37.98,-93.07l21.14 -5.04 27.8 -19.01c11.15,-22.19 25.03,-24.6 40.48,-40.79l64.42 -92.9c12.22,-19.38 17.88,-38.58 41.33,-42.01 95.14,-13.92 155.3,-61.29 179.33,-142.85 31.03,-105.3 -19.53,-49.85 165.7,-153.17 69.39,-38.7 140.94,-72.34 209.03,-112.06 16.98,13.18 53.31,107.95 65.68,136.81 31.97,74.57 41.55,79.32 3.54,154.06 -26.64,52.38 -40.17,91.16 -46.75,156.42 -7.94,78.76 9.49,113.27 24.16,178.93l3.37 4.83c9.88,22.36 5.98,30.17 19.01,73.37 20.06,66.53 -18.51,172.6 -6.89,258.62 1.95,14.4 34.22,82.75 48.22,142.74 6.1,26.14 12.03,51.26 16.52,78.07 4.27,25.48 -3.37,74.22 6.36,88.29 12.75,-4.15 9.36,9.23 9.13,-45.04 -0.73,-109.9 -63.89,-220.88 -62.98,-317.97 0.52,-55.09 19.43,-70.98 14.17,-177.91 -6.7,-136.33 -114.26,-231.7 13.14,-465.07 37.58,-68.83 -59.91,-218.82 -81.67,-277.05 7.01,-3.98 11.8,-6.07 20.37,-12.01l16.93 -11.26c-6.34,-10.79 10.68,-11.02 -16.41,-1.19 -15.26,5.54 4,7.43 -21.34,3.5z"/>
   <path class="fil5" d="M2760.78 987.28c-8.21,-28.89 9.73,-32.17 25.46,-46.32 15.31,-13.76 17.7,-23.73 40.73,-32.35 -5.2,32.29 -37.1,84.49 -66.19,78.67zm-502.66 -427.93c41.25,11.76 84.51,39.39 99.96,69.18 -11.24,12.28 -24.63,8.62 -33.88,20.33 -12.19,15.42 -3.2,-1.01 -7.54,16.88 16.12,-0.09 7.31,9.23 30.12,2.11 23.28,-7.27 6.7,-8.11 21.37,-20.03 30.44,4.65 73.99,72.86 92.26,109.65 22.04,44.39 43.16,95.21 66.23,136.54 84.98,152.19 155.88,66.4 255.61,26.22 -96.54,81.83 11.43,112.9 35,113.74 69.98,2.46 122.69,-61.35 150.23,-89.08 13.65,13.59 47.01,41.29 70.12,50.93l-11.37 6.97c-62.74,31.31 -66.04,42.59 -84.71,52.09 -23.77,12.09 -81.34,8.29 -121.93,27.05 -64.07,29.63 -140.43,128.18 -142.02,157.17 17.26,3.43 15.58,0.27 25.23,-13.17l54.33 -69.98c16.93,-16.69 23.14,-25.18 44.6,-38.2 118.71,-71.99 103.62,14.09 177.23,-62.78 37.83,-39.49 50.34,-37.22 111.81,-53.6 -20.34,-14.95 -45.66,-12.94 -75.45,-37.03 -27.95,-22.61 -25.02,-43.71 -44.93,-61.81 -19.93,14.65 -20.53,37.45 -73.91,78.31 -23.58,18.05 -71.17,48.76 -107.23,24.17 7.69,-30.75 41.49,-39.76 53.36,-69.78 8.88,-22.46 -3.37,-34.14 4.42,-49.28l89.04 -97.27c15.59,-17.74 40,-42.42 78.8,-38.44 46.09,4.73 125.35,69.73 155,92.66 60.84,47.04 88.32,101.47 104.16,110.87l16.23 5.71c11.33,36.11 -47.86,78.96 -54.86,120.38 -6.58,38.92 -0.74,39.75 -20.51,70.16 -38.17,58.73 -152.16,204.12 -193.49,253.51l-127.59 145.46c-13.09,15.17 -26.24,32.05 -39.18,47.85 -90.54,110.58 -79.23,160.93 -91.81,264.99 16.75,19.97 -2.59,30.6 25.37,31.72 6.79,-9.6 -2.91,-91.92 -0.75,-116.22 13.79,-71.33 52.93,-130.59 89.25,-175.04 21.23,-25.98 39.15,-49.35 60.61,-71.83 21.01,-22.02 39.09,-46.5 62.15,-66.28l92.26 -114.57c47.06,-61.02 94.21,-104.41 132.85,-173.33 17.11,-30.53 25.19,-33.23 29.02,-74.52 5.89,-63.4 54.36,-85.35 66.86,-138.12 -10.21,-23.23 -31.52,-44.52 -47.04,-62.71 -26,-30.48 -23.85,-30.54 -18.46,-78.76 26.23,-234.44 43.61,-212.74 -109.58,-277.51 -51.05,-21.58 -93.63,-44.97 -141.43,-65.76 -49.49,-21.54 -97.32,-42.46 -147.7,-63.4 -62.44,-25.96 -117.01,-14.3 -192.19,-11.45 -66.23,2.51 -140.26,6.84 -207.29,3.93 -61.12,-2.64 -132.72,-21.18 -187.18,3.55 -34.14,29.71 -13.68,82.29 1.91,119 -43.75,1.78 -69.93,-17.8 -85.57,25.78 -11.99,33.4 -28.42,38.33 -59.3,52.54 -52.6,24.21 -103.11,46 -154.41,69.12 -25.86,11.66 -50.83,22.57 -76.65,35.03 -124.31,60.02 -90.65,54.21 -146.35,18.63 -15.84,-10.12 -55.49,-36.18 -78.54,-21.08 93.54,20.61 106.96,69.35 127.9,62.41l268.91 -128.09c37.21,-17.19 100,-50.36 141.11,-58.97 16.4,-10.97 22.83,-23.47 49.54,-26.55zm127.87 61.46l-59.06 -60.63c20.23,1.65 54.56,10.56 71.16,3.27 -51.08,-7.14 -66.46,-5.24 -104.54,-29.6 -8.46,-16.63 -31.36,-28.71 -24.81,-68.52 81.38,-10.42 135.62,41.27 165.79,-49.59 107.32,6.17 259.41,-11.64 358.26,5.04 37.87,6.39 234.35,82.33 260.65,100.45 -38.66,-7.58 -101.33,-37.17 -142.22,-52.86 -68.04,-26.13 -89.66,-8.26 -146.95,16.35 -24.61,10.57 -185.06,87.21 -203.69,86.57 -37.66,-1.28 -33.25,-26.29 -74.84,2l40.44 10.84c-14.78,12.33 -24.98,14.32 -37.57,30.48 -35.19,45.19 7.89,108.21 87.03,99.4 99.49,-11.07 193.17,-74.09 204.27,-77.53 107.46,65.19 35.97,42.28 180.87,96.66 -21.86,28.29 -49.52,20.47 -76.84,61.37 -25.23,37.76 -24.1,49.57 -68.54,72.28 -199.58,101.97 -211.19,141.74 -313.94,-75.96 -35.08,-74.33 -27.03,-76.73 -80.13,-130.9 -29.92,-30.53 -19.8,-31.44 -27.96,-40.59l-7.38 1.47zm105.61 26.81c-1.81,-36.9 61.79,-69.27 97.43,-52.5 1.15,26.21 -9.06,18.76 -46.53,32.05 -19.43,6.9 -30.97,14.95 -50.9,20.45zm102.04 -72.88c18.28,-8.82 54.6,-18.1 76.55,-26.88 24.02,-9.59 45.36,-19.6 69.47,-29.87 50.73,-21.61 92.25,-53.42 152.07,-34.32 61.89,19.76 247.79,107.69 296.51,106.41 -20.22,-21.3 -51.8,-27 -73.39,-44.92 22.86,5.11 67.65,26.39 87.95,37.38 33.57,18.18 53.68,23.19 52.77,70.8 -0.83,42.55 -10.78,192.54 -28.45,218.8 -21.41,-17.5 -125.65,-102.29 -134.18,-120.95 15.65,-7.37 19.94,-10.21 30.82,-24.35 -60.55,4.11 -53.35,-0.57 -105.43,-9.76 -84.73,-14.96 -84.18,-1.42 -170.9,-60.84 -19.14,-13.1 -46.55,-37.81 -67.52,-45.6 -52.27,30.92 -208.55,125.36 -275.69,58.33 13.95,-23.7 33.61,-24.98 66.46,-34.36 41.43,-11.83 30.52,-24.68 22.96,-59.87zm-178.47 -147.38c-18.57,23.54 -23.47,30.57 -61.6,31.32 -19.73,0.38 -69.94,1.12 -79.98,-11.97 -20.86,-27.19 38.07,-30.87 59.08,-31.06l67.34 4.17c20.25,5.04 8.4,0.91 15.16,7.54z"/>
   <path class="fil5" d="M875.08 1695.34c64.1,-5.8 209.57,-140.59 209.32,-186.37l-1.8 -9.07c-12.4,2.66 -57.61,72.4 -94.23,102.3 -22.6,18.45 -106.98,79.16 -113.29,93.14z"/>
   <path class="fil5" d="M472.15 1898.37c0.75,-23.96 -31.16,-59.59 -30.07,-115.61 1.08,-55.91 23.59,-77.78 32.35,-121.96 -36.75,12.33 -55.31,71.6 -56.73,117.77 -1.53,49.44 22.27,111.64 54.45,119.8z"/>
   <path class="fil5" d="M758.08 1720.75c-24.41,-9.71 -79.13,1.19 -114.82,-8.47 -33.54,-9.09 -57.07,-26.55 -95.6,-27.77 17.04,35.61 183.14,87.68 210.42,36.24z"/>
   <path class="fil5" d="M993.14 1396.43c14.69,14.52 31.16,16.9 34.94,39.56 4.29,25.77 -11.8,35.97 -15.65,57.5 23.48,-12.64 49.89,-53.63 18,-89.26 -13.85,-15.47 -7.93,-14.73 -14.51,-35.02 -15.99,4.01 -15.47,11.24 -22.78,27.22z"/>
   <path class="fil6" d="M2586.07 1291.28c-74.08,56.59 -183.58,104.52 -221.95,154.66 -14.56,19.03 -16.94,32.37 -37.55,39.35 7.44,-97.95 142.22,-129.47 185.59,-189.26 18.83,-25.96 41.43,-99.71 48.03,-138.14 14.81,-86.28 -6.67,-151.54 5.05,-168.53 32.47,25.8 35.11,103.01 26.26,154.58 -10.07,58.62 -35.56,90.98 -46.89,135.3 44.82,-14.48 76.13,-62.61 120.2,-64.83l-19.34 24.48c-7.43,7.68 -11.47,11.06 -19.03,18.31 -15.57,14.93 -23.24,20.99 -40.37,34.08zm-269.4 -625.54l-7.57 -9.98c-0.34,-1.55 -1.05,-1.91 -1.24,-2.97 -25.28,8.95 -20.04,14.9 -25.92,30.47l-3.59 7.3 -16.93 11.26c-8.57,5.94 -13.36,8.03 -20.37,12.01 21.76,58.23 119.25,208.22 81.67,277.05 -127.4,233.37 -19.84,328.74 -13.14,465.07 5.26,106.93 -13.65,122.82 -14.17,177.91 -0.91,97.09 62.25,208.07 62.98,317.97 3.98,13.71 1.04,24.74 4.02,37.13l3.93 9.68c30.64,13.69 154.08,2.9 194.14,0.05 70.19,-5 109.2,-10.21 159.69,-42.06l6.77 -5.79c24.75,-18.92 27.58,-50.41 35.88,-89.01 12.58,-104.06 1.27,-154.41 91.81,-264.99 12.94,-15.8 26.09,-32.68 39.18,-47.85l127.59 -145.46c41.33,-49.39 155.32,-194.78 193.49,-253.51 19.77,-30.41 13.93,-31.24 20.51,-70.15 7,-41.43 66.19,-84.28 54.86,-120.39l-16.23 -5.7c-15.84,-9.41 -43.32,-63.84 -104.16,-110.88 -29.65,-22.93 -108.91,-87.93 -155,-92.66 -38.8,-3.98 -63.21,20.7 -78.8,38.44l-89.04 97.27c-7.79,15.14 4.46,26.82 -4.42,49.28 -11.87,30.02 -45.67,39.03 -53.36,69.78 36.06,24.59 83.65,-6.12 107.23,-24.17 53.38,-40.86 53.98,-63.66 73.91,-78.31 19.92,18.1 16.98,39.2 44.93,61.81 29.79,24.09 55.11,22.08 75.45,37.03 -61.47,16.38 -73.98,14.11 -111.81,53.6 -73.61,76.86 -58.52,-9.21 -177.23,62.78 -21.47,13.02 -27.67,21.51 -44.6,38.2l-54.33 69.98c-9.65,13.44 -7.97,16.61 -25.23,13.17 1.59,-28.99 77.95,-127.54 142.02,-157.16 40.58,-18.77 98.16,-14.97 121.93,-27.06 18.67,-9.5 21.97,-20.78 84.71,-52.09l11.37 -6.97c-23.11,-9.64 -56.47,-37.34 -70.12,-50.93 -27.54,27.73 -80.25,91.54 -150.23,89.08 -23.57,-0.84 -131.54,-31.91 -35,-113.74 -99.73,40.18 -170.63,125.97 -255.61,-26.23 -23.07,-41.32 -44.19,-92.14 -66.23,-136.53 -18.27,-36.79 -61.82,-105 -92.26,-109.65 -14.67,11.91 1.91,12.76 -21.37,20.03 -22.81,7.12 -14,-2.2 -30.11,-2.11z"/>
   <path class="fil6" d="M758.08 1720.75c-27.28,51.44 -193.38,-0.63 -210.42,-36.24 38.53,1.22 62.06,18.68 95.6,27.77 35.69,9.66 90.41,-1.24 114.82,8.47zm-285.93 177.62c-32.18,-8.16 -55.98,-70.36 -54.45,-119.8 1.42,-46.17 19.98,-105.44 56.73,-117.77 -8.76,44.18 -31.27,66.05 -32.35,121.96 -1.09,56.02 30.82,91.65 30.07,115.61zm402.93 -203.03c6.31,-13.98 90.69,-74.69 113.29,-93.14 36.62,-29.9 81.83,-99.64 94.23,-102.3l1.8 9.07c0.25,45.78 -145.22,180.57 -209.32,186.37zm155.35 -291.11c31.89,35.63 5.48,76.62 -18,89.26 3.85,-21.53 19.94,-31.73 15.65,-57.5 -3.78,-22.66 -20.25,-25.04 -34.94,-39.56 7.31,-15.98 6.79,-23.21 22.78,-27.22 6.58,20.29 0.66,19.55 14.51,35.02zm-1014.73 166.41l-17.22 2.01c1.27,28.22 18.63,60.2 14.16,89.1 3.34,4.73 0.72,-0.67 4.92,9.21l14.27 51.88c16.65,57.71 38.87,113.06 69.63,162.62 27.59,44.45 101.34,137.42 170.45,136.21 86.44,-5.41 166.84,-74.14 271.36,-68.49 89.6,4.83 286.06,129.64 381.54,128.08 107.98,-1.77 58.24,-3.22 131.8,37.47 119.73,66.21 158.78,-26.51 144.92,-53.6 -7.83,-15.32 -14.8,-13.87 -23.29,-39.31 -1.25,-3.73 -1.84,-6.15 -3,-9.79 -5.19,-16.31 -18.98,-7.19 -46.58,-23.19 -35.07,-20.33 -81.46,-51.65 -116.88,-64.93 -12.73,14.18 -10.58,32.24 -31.56,38.48 -17.26,5.14 -39.09,-4.54 -56.52,-7.79 8.37,35.47 46.92,58.59 74.08,78.1 17.67,12.69 62.98,57.15 73.22,77.33 -31.58,-10.45 -54.43,-50.95 -94.43,-72.64 -45.89,-24.9 -57.46,-34.29 -84.88,-79.94 -12.04,14.1 -6.98,29.23 -24.05,43.85 -6.5,-38.24 7.77,-87.04 8.67,-127.31 0.96,-42.77 -9.04,-82.99 -9.18,-125.81 35.7,25.94 26.47,88.66 34.62,132.49 12.56,-15.16 22.21,-38.59 28.41,-59.25 10.5,-34.99 -0.4,-40.26 25.13,-61.88 40.72,-34.49 177.13,-320.07 181.45,-341.66l-116.13 -64.23c30.95,-39.5 50.91,-17.22 45.25,-61.39l27.66 6.38c7.09,-21.16 6.8,-45.25 21.78,-53.79 13.52,23.47 -9.35,49.42 -16.61,66.45 26.99,21.81 59.18,21 95.21,12.52 11.83,-50.54 0.12,-30.95 36.9,-45 -75.44,-47.17 33.79,-26.96 -78.36,-145.36 -50.36,-53.16 -111.84,11.12 -153.64,36.57 -49.47,30.12 -93.84,59.18 -141.72,90.12 -48.6,31.4 -105.26,43.12 -155.78,76.05 -46.51,30.31 -87.88,65.36 -140.03,91.86 -111.32,56.58 -326.1,96.93 -451.16,128.12 -26.75,6.67 -70.67,30.06 -94.41,10.46z"/>
   <path class="fil6" d="M2593.64 574.74c7.56,35.19 18.47,48.04 -22.96,59.87 -32.85,9.38 -52.51,10.66 -66.46,34.36 67.14,67.03 223.42,-27.41 275.69,-58.33 20.97,7.79 48.38,32.49 67.51,45.6 86.73,59.42 86.18,45.87 170.91,60.84 52.08,9.19 44.88,13.87 105.43,9.76 -10.88,14.14 -15.17,16.98 -30.82,24.35 8.53,18.66 112.77,103.45 134.18,120.95 17.67,-26.26 27.63,-176.25 28.45,-218.8 0.92,-47.61 -19.2,-52.62 -52.77,-70.8 -20.3,-10.99 -65.08,-32.27 -87.95,-37.38 21.59,17.92 53.17,23.62 73.39,44.92 -48.72,1.29 -234.61,-86.65 -296.51,-106.41 -59.82,-19.1 -101.34,12.71 -152.07,34.32 -24.11,10.27 -45.45,20.28 -69.47,29.87 -21.95,8.78 -58.27,18.06 -76.55,26.88z"/>
   <path class="fil6" d="M2293.55 533.85c38.08,24.36 53.46,22.46 104.53,29.6 23.13,3.72 65.2,-5.96 84.26,7.82l3.4 2.01c41.59,-28.28 37.18,-3.27 74.84,-1.99 18.63,0.64 179.08,-76 203.69,-86.57 57.29,-24.61 78.9,-42.48 146.95,-16.35 40.89,15.69 103.56,45.28 142.22,52.86 -26.3,-18.12 -222.78,-94.06 -260.65,-100.45 -98.85,-16.68 -250.94,1.13 -358.26,-5.04 -30.17,90.86 -84.41,39.17 -165.79,49.59 -6.55,39.81 16.35,51.89 24.81,68.52z"/>
   <path class="fil6" d="M1021.76 1759.93c10.62,16.45 31.71,18.92 42.71,32.26 24.99,30.3 -7.86,83.34 -44.82,84.96 -20.07,0.87 -21.54,-18.51 -53.61,-20.41 17.82,25.17 78.14,65.97 114.52,84.88 22.02,11.45 45.35,20.8 67.19,32.11 21.95,11.38 41.2,26.47 60.65,35.23l-12.26 20.2c55.4,40.86 109.69,25.28 138.95,-22.71 16.87,-27.68 31.42,-52.22 15.38,-69.46 -30.58,-32.89 -90,-52.41 -128.43,-74.67 -61.97,-35.88 -108.76,-84.88 -200.28,-102.39z"/>
   <path class="fil6" d="M1172.45 1645.09c-15.52,107.62 -76.08,63.53 -106.1,55.03 12.71,43.48 175.33,151.39 245.79,179.78 61.46,24.77 111.36,-13.72 113.13,-76.62 0.89,-31.58 -25.02,-47.77 -39.99,-66.78 -18.47,-23.44 -26.59,-31.85 -61.6,-38.71 4.45,2.49 9.96,6.66 14.78,10.43l15.05 14.5c-37.68,-3.68 -95.97,-34.14 -124.1,-49.78 -31.42,-17.48 -49.22,-62.3 -99.47,-62.41l42.51 34.56z"/>
   <path class="fil7" d="M1072.17 1600.08c45.73,-2.09 -5.14,-11.06 92.53,-5.75 -6.62,-22.25 -24.83,-47.21 -12.62,-76.86 8.51,-20.65 33.22,-33.92 58.33,-40.98 65.91,-18.53 97.02,23.98 149.19,37.98l47 -82.02c-64.65,-27.58 -133.38,-73.14 -208.99,-87.72l-125.44 255.35z"/>
   <path class="fil8" d="M2326.57 1485.29c20.61,-6.98 22.99,-20.32 37.55,-39.35 38.37,-50.14 147.87,-98.07 221.95,-154.66 17.13,-13.09 24.8,-19.15 40.37,-34.08 7.56,-7.25 11.6,-10.63 19.03,-18.31l19.34 -24.48c-44.07,2.22 -75.38,50.35 -120.2,64.83 11.33,-44.32 36.82,-76.68 46.89,-135.3 8.85,-51.57 6.21,-128.78 -26.26,-154.58 -11.72,16.99 9.76,82.25 -5.05,168.53 -6.6,38.43 -29.2,112.18 -48.03,138.14 -43.37,59.79 -178.15,91.31 -185.59,189.26z"/>
   <path class="fil9" d="M1492.68 1055.7c6.51,19.41 67.48,57.77 103.78,55.13 16.18,-1.13 35.79,4.64 47.83,-3.22 17.41,-11.6 4.94,-12.77 17.89,-27.78 18.2,-21.11 13.93,7.75 19.93,-21.04 -12.83,-10.63 -23.05,-7.87 -36.79,-4.76 -15.87,-37.98 -12.46,-40.32 -59.76,-51.27 -8.38,-1.94 -18.93,-4.11 -27.5,-3.52 -42,2.9 7.97,23.33 -61.92,21.15l-3.46 35.31z"/>
   <path class="fil10" d="M1450.58 990.62c4.3,16.91 5.7,22.21 15.69,36.1 3.29,4.58 7.44,9.76 10.79,13.84 8.72,10.64 4.54,8.01 15.62,15.14l3.46 -35.31c69.89,2.18 19.92,-18.25 61.92,-21.15 8.57,-0.59 19.12,1.58 27.5,3.52 47.3,10.95 43.89,13.29 59.76,51.27 13.74,-3.11 23.96,-5.87 36.79,4.76 -6,28.79 -1.73,-0.07 -19.93,21.04 -12.95,15.01 -0.48,16.18 -17.89,27.78 -12.04,7.86 -31.65,2.09 -47.83,3.22 34.78,29.32 137.28,-1.33 156,-28.89 -14.61,-8.02 -23.8,-20.95 -37.3,-27.43 -35.68,-17.13 -5.32,30.97 -34.85,-9.67 -18.4,-25.33 -48.05,-32.17 -59.49,-64.41 -10.59,5.4 -11.81,10.29 -26.74,9.59 -10.54,-21.8 -12.68,-25.92 5.95,-33.28 -39.79,-5.63 -67.13,10.49 -82.1,32.13l-17.54 -15.81c-14.44,7.07 -34.05,17.05 -49.81,17.56z"/>
   <path class="fil11" d="M1737.76 811.43c8.32,-31.48 10.53,-48.91 -13.78,-67.11 -61.73,-46.23 -125.55,4.01 -66.27,49.64 21.47,16.53 47.09,18.1 80.05,17.47z"/>
   <path class="fil12" d="M1406.96 1289.19c10.8,-22.64 20.47,-47.52 48.64,-52.86 6.52,45.58 -7,44.66 -21.15,74.79 32.5,-8.9 33.07,-23.11 40.98,-58.35 5.33,-23.73 14.7,-59.98 11.36,-84.59 -39.48,26.35 -76.61,51.55 -79.83,121.01z"/>
   <g>
    <path class="fil13 str0" d="M1562.95 167.17c5.44,-28.8 -9.92,-76.31 -32.85,-72.21 42.81,48.68 20.03,52.11 32.85,72.21z"/>
    <path class="fil13 str0" d="M1879.62 178.82c4.13,-15.53 0.5,-41.07 -5.05,-57.88l-4.8 -16.78c-0.43,-0.68 -0.07,-1.16 -0.03,-1.73 24.92,-5.08 67.98,9.46 91.34,39.5 22.73,29.25 25.5,67.84 18.96,91.85 -14.7,-1.02 -23,-11.49 -35.06,-6.83 10.97,9.33 74.26,21.03 82.49,85.38 5.7,44.65 -9.36,66.94 -55.61,99.65 -18.38,-15.48 -24.75,-24.34 -46.43,-34.74 -39.7,-19.05 -31.44,3.94 -43.15,-16.95 22.14,-17.1 26.94,-42.48 11.58,-62.77 -19.41,-25.65 -41.89,-21.33 -61.24,-23.05 46.71,-48.56 38.74,-66.26 48.05,-85.5 46.85,34.57 47.45,62.5 34.16,103.93 16.51,-18.12 17.95,-43.74 13.68,-61.36 -9.81,-40.42 -38.26,-45.71 -48.89,-52.72zm-480.18 353.61c21.01,17.4 24.71,30.36 52.36,44.41 36.43,18.5 75.88,18.87 108.92,-6.68 26.03,-20.13 25.96,-24.16 54.73,-29.84 12.74,-0.64 29.86,1.72 43.92,14.71 33.62,31.06 -12.65,52.29 0.74,86.37 3.1,7.88 8.87,15.71 16.63,20.92 6.52,4.39 15.83,7.26 23.35,5.65 -0.87,-9.39 -5.75,-16.32 1.94,-25.51 17.46,-20.86 49.4,-0.38 77.66,-30.06 -6.26,0.35 -0.98,-0.97 -7.59,3.04 -17.75,10.75 -24.39,14.08 -46.45,13.49 -40.17,-1.07 -35.16,20.55 -38.78,35.13 -48.96,-29.88 -16.65,-54.65 -10.25,-79.69 8.45,-33.04 -33.84,-54.21 -59.94,-53.96 -58.23,0.56 -74.14,85.97 -169.29,33.55 -87.19,-48.03 -65.97,-179.27 12.21,-173.31 23.53,1.79 16.06,12.18 32.24,30.8 22.99,26.48 60.79,38.39 82.67,27.9 -14.06,-5.48 -29.07,-4.66 -45.55,-12.38 -31.38,-14.7 -53.65,-55.56 -48.89,-88.31 2.89,-19.91 13.73,-31.31 17.5,-47.39 -29.1,34.35 -22.63,60.05 -24.35,83.83 -0.04,0.53 -0.19,1.46 -0.23,1.91 -0.04,0.44 -0.16,1.28 -0.27,1.92 -43.96,-20.57 -60.72,18.1 -76.94,28.65 -24.15,15.7 -97.49,-11.41 -115.99,-77.18 -8.7,-30.96 -5.13,-76.59 25.26,-107.76 25.45,-26.1 61.89,-36.55 94.62,-27.46 10.1,2.81 6.77,5.35 14.62,0.96 -1.49,-9.38 -8.3,-17.8 -9.86,-28.18 -10.85,-72.52 103.82,-127.29 156.26,-98.3 -6.5,11.19 -11.51,30.36 -24.24,33.4 -55.85,13.36 -89.86,60.68 -69.6,99.16l0.64 -14.07c-0.48,-39.5 23.58,-65.78 61.99,-76.33 36.69,-10.08 72,-0.11 107.91,36.55 -2.05,-8.51 -10.84,-16.99 -17.54,-22.75 -7.14,-6.14 -14,-10.4 -22.76,-14.38 -21.32,-9.7 -30.93,-6.56 -45.46,-11.13 72.96,-167.66 312.88,-110.01 318.3,48.62 2.99,87.46 -58.24,104.86 -70.67,129.47 8.33,12.06 24.83,-1.84 36.7,-3.32 28.13,-3.5 59.62,13.69 56.06,44.43 -2.75,23.77 -16.91,19.16 -28.79,31.8 9.7,8.4 2.48,-0.99 11.25,6.25 6.97,5.74 2.08,3.54 7.71,11.25 20.44,-3.84 29.85,-2.64 51.15,10.59 51.91,32.24 74.99,98.35 52,152.53 -36.33,85.64 -138.59,94.93 -194.53,41.06 21.02,-11.46 28.61,21.63 72.6,22.43 23.41,0.42 53.28,-5.19 76.72,-28.82 -27.18,8.58 -73.02,47.46 -125.1,-1.25 24.51,-17.06 45.43,-28.64 56.31,-56.88 -14.26,8.91 -23.28,29.87 -51.16,43.49 -38.39,18.76 -77.49,15.38 -110,-12.74 -23,-19.89 -26.56,-35.08 -30.56,-56.88 -8.9,17.45 3.75,44.31 21.59,62.26 18.1,18.21 41.68,26.77 60.64,27.89 25.16,1.47 24.96,18.43 59.88,33.77 67.71,29.73 144.18,-4.02 171.7,-70.7 27.3,-66.14 -6.46,-98.53 -13.85,-124.58 42.08,-24.06 55.79,-45.21 60.86,-84.95 4.24,-33.27 -13.78,-65.08 -49.09,-94.47 1.76,-28.2 16.29,-57.61 -21.22,-104.53 -20.28,-25.37 -48.64,-38.17 -78.4,-43.2l-23.5 0.99c-0.52,0.07 -1.45,0.17 -1.87,0.23 -0.44,0.05 -1.26,0.18 -1.9,0.22 -62.89,-103.89 -181.75,-121.72 -264.65,-58 -16.61,12.76 -24.11,26 -37.18,37.6 -89.95,-29.09 -167.33,29.2 -170.05,93.03 -0.61,14.36 3.58,18.42 4.24,30.02 -33.66,0.35 -59.94,0.53 -89.82,24.41 -56.34,45 -54.93,126.92 -6.24,176.81 13.14,13.46 28.07,22.36 43.79,27.64 19.78,6.66 27,2.89 44.08,5.09 0.46,22.32 -14.55,33.29 -0.73,73.87 3.18,9.33 10.62,18.74 11.54,26.89z"/>
    <path class="fil13 str0" d="M1684.56 650.39c49.5,-6.83 -38.92,5.36 0,0z"/>
    <path class="fil13 str0" d="M1725.44 717.01c-14.6,-12.49 -43.22,-10.21 -59.65,-6.13l-4.51 -1.33 -4.81 2.3 -12.08 8.26 5.9 6.88 26.22 8.41c-7.57,2.31 1.4,1.87 -10.78,1.31 -5.8,-0.27 -5.25,-1.07 -9.96,-2.25 -6.32,-5.48 -17.72,-3.64 -16.33,-20.27 12.69,-15 30.35,-12.6 46.67,-12.56 18.99,0.05 32.06,-4.81 49.72,14.74l-10.39 0.64z"/>
   </g>
  </g>
 </g>
</svg>
