<!-- Generated by IcoMoon.io -->
<svg version="1.1" xmlns="http://www.w3.org/2000/svg" width="32" height="32" viewBox="0 0 32 32">
<title>gato1</title>
<path d="M3.949 14.386c-0.21-1.865 0.386-3.573 1.26-4.657 0.998-1.236 1.846-1.634 3.681-2.386 1.724-0.706 7.314-3.224 8.743-3.395 1.965-0.236 3.374 0.318 4.626 1.271 1.253 0.954 1.652 1.871 2.401 3.671 0.693 1.665 3.218 7.358 3.394 8.733 0.245 1.907-0.34 3.44-1.272 4.636-0.975 1.252-1.83 1.639-3.673 2.398-1.724 0.71-7.313 3.221-8.742 3.396-1.949 0.238-3.413-0.337-4.628-1.268-1.231-0.944-1.658-1.873-2.402-3.67-0.671-1.62-3.241-7.422-3.389-8.728zM1.474 12.613v1.777c0.211 0.462 0.415 1.808 0.741 2.61l2.984 7.218c1.18 2.802 2.196 4.301 4.729 5.476 0.947 0.439 2.021 0.529 2.685 0.832h1.777c0.44-0.201 1.837-0.43 2.613-0.738l7.215-2.988c2.785-1.173 4.329-2.195 5.477-4.727 0.422-0.931 0.53-2.028 0.83-2.687v-1.777c-0.219-0.491-0.408-1.791-0.741-2.61-0.338-0.831-0.647-1.569-0.978-2.381-0.664-1.63-1.328-3.226-2.007-4.837-1.178-2.797-2.199-4.303-4.729-5.476-0.942-0.437-2.025-0.53-2.685-0.831h-1.777c-0.367 0.168-1.027 0.207-1.466 0.329-0.442 0.123-0.841 0.282-1.242 0.443l-7.211 2.992c-1.849 0.78-3.179 1.488-4.146 2.696-1.848 2.308-1.518 3.466-2.071 4.68z"></path>
<path d="M16.994 13.64l1.365 3.352-3.349 1.368-1.368-3.353 3.352-1.367zM12.729 19.329l-3.692 1.494 0.973 2.228 3.695-1.518 1.598 3.71 2.18-0.899-1.529-3.748 3.375-1.33 1.494 3.695 2.228-0.973-1.519-3.698 3.713-1.593-0.911-2.174-3.728 1.518c-0.33-0.787-1.176-2.534-1.334-3.369l3.689-1.5-0.97-2.22-3.696 1.513-1.598-3.707-2.178 0.899 1.526 3.744-3.377 1.331-1.492-3.696-2.227 0.972 1.518 3.697-3.714 1.595 0.913 2.174 3.728-1.518c0.329 0.783 1.178 2.537 1.335 3.371z"></path>
</svg>
