<?xml version="1.0" encoding="UTF-8"?>
<!DOCTYPE svg PUBLIC "-//W3C//DTD SVG 1.1//EN" "http://www.w3.org/Graphics/SVG/1.1/DTD/svg11.dtd">
<!-- Creator: CorelDRAW 2017 -->
<svg xmlns="http://www.w3.org/2000/svg" xml:space="preserve" width="7.3658mm" height="7.3658mm" version="1.1" style="shape-rendering:geometricPrecision; text-rendering:geometricPrecision; image-rendering:optimizeQuality; fill-rule:evenodd; clip-rule:evenodd"
viewBox="0 0 736.58 736.58"
 xmlns:xlink="http://www.w3.org/1999/xlink">
 <defs>
  <style type="text/css">
   <![CDATA[
    .fil0 {fill:none}
    .fil1 {fill:black}
   ]]>
  </style>
 </defs>
 <g id="Capa_x0020_1">
  <metadata id="CorelCorpID_0Corel-Layer"/>
  <rect class="fil0" x="-0" y="-0" width="736.59" height="736.59"/>
  <rect class="fil0" x="-0" y="-0" width="736.59" height="736.59"/>
  <rect class="fil0" x="-0" y="-0" width="736.59" height="736.59"/>
  <path class="fil1" d="M257.37 144.76c-14.62,0.29 -68.03,2.1 -73.74,15.54 33.37,4.74 70.42,2.25 102.54,18.98 -21.56,-2.14 -48.54,-15.12 -90.21,-12.34 16.92,8.72 61.18,17.03 72.53,35.26 -40.62,-15.18 -17.32,-18.66 -95.37,-32.78 -0.89,-6.26 -1,-6.07 -2.33,-11.37 21.14,-10.02 68.64,-24.16 86.58,-13.29zm-67.77 -13.82l-4.86 -15.55c-3.41,-6.01 1.36,-9.05 4.71,-13.82 30.64,-1.88 18.97,28.35 0.15,29.37zm-69.36 597.93c43.69,-230.99 487.96,29.49 469.59,-289.61 -7.64,-132.76 -96.31,-146.07 -187.69,-192.98 -57.51,-29.53 -51.52,-68.35 -68.07,-121.81 -27.26,-88.07 -51.06,-68.6 -81.5,-107.85 58.28,-37.85 96.19,186.02 173.52,218.58 102.43,43.15 183.06,62.22 192,202.22 7.91,123.94 -63.14,201.45 -184.61,209.02 -208.72,13 -135.76,-22.09 -313.24,82.43zm119.25 -295.7c-18.24,-45.02 -85.27,-116.77 -25.45,-158.67 -15.9,37.74 -20.48,46.04 4.39,83.71 41.93,63.53 62.24,93.27 36.21,169.03 -14.03,40.83 -44.45,33.71 -14.44,71.85 -17.77,-3.03 -26.59,-16.57 -19.35,-33.73 7.27,-17.23 19.75,-0.88 25.85,-32.84 7.43,-38.88 7.8,-62.31 -7.21,-99.35zm-21.33 -164.91c5.37,-23.38 8.24,-47.04 -13.04,-62.57 -9.29,-6.78 -18.27,-8.15 -28.18,-12.59 -13.58,-6.08 -14.62,-12.75 -23.08,-18.73 -17.43,2.86 -23.19,10.85 -35.99,15.86 6.06,-5.73 32.49,-20.67 33.5,-22.56l-18.76 0c7.78,-6.99 8.31,-1.78 15.33,-6.5 -8.68,-4.51 -16.01,-3.44 -25.83,-3.38 9.42,-6.58 16.97,-2.5 27.86,-2.74 6.54,-17.48 14.07,-36.4 20.31,-54.61 6.75,-19.7 17.27,-32.99 38.75,-36.56 -17.65,18.3 -21.62,3.57 -32.4,50.32 -5.01,21.73 -24.31,40.28 -6.2,61.76 14.63,17.35 35.67,13.17 50.79,32.1 12.99,16.26 15.91,50.01 -3.06,60.2zm180.24 315.68c61.12,-4.32 93.78,-18.86 110.45,-20.39 -8.31,23.99 -78.97,31.27 -100.8,32.41 -53.12,2.77 -76.65,-4.3 -126.66,5.34 19.44,-17.67 89.34,-15.41 117.01,-17.36zm-127.58 1.91c26.98,-39.46 41,-70.67 42.17,-120.71 0.39,-16.88 -2.97,-34.89 -1.77,-50.6 40.74,73.61 -2.77,164.37 -40.4,171.31zm232.84 -129.91c-31.17,1.62 -53.17,-13.96 -104.17,24.57 -6.73,5.09 -19.17,19.6 -22.42,21.49 1.08,-22.77 22.22,-51.08 43.69,-58.84 19.15,-6.91 70.51,-4.4 82.9,12.78zm-220.65 -381.08c-5.76,-6.66 -11.71,-26.37 -21.12,-38.28 -8.89,-11.25 -26.51,-22.1 -31.21,-28.87 35.08,3.69 55.01,32.78 52.33,67.15zm-65.09 -12.78c4.93,-7.84 10.57,-9.27 11.89,-20.58 1.42,-12.26 -3.08,-17.95 -6.21,-28.35 24.27,8.9 19.12,44.35 -5.68,48.93z"/>
 </g>
</svg>
