<!-- Generated by IcoMoon.io -->
<svg version="1.1" xmlns="http://www.w3.org/2000/svg" width="32" height="32" viewBox="0 0 32 32">
<title>github</title>
<path d="M12.059 27.726c-2.13 0.113-3.943 0.359-4.976-1.241-0.537-0.83-0.907-2.219-1.964-2.896-0.349-0.224-0.811-0.4-0.656-0.859 0.841-0.648 2.172 0.308 2.546 0.703 0.758 0.794 1.526 3.174 4.635 2.225 1.066-0.326 0.17-1.001 1.419-2.206l-0.172-0.092c-0.017-0.006-0.045-0.017-0.064-0.023-1.024-0.3-2.678-0.212-4.44-1.632-1.116-0.9-1.94-2.166-2.273-4.162-0.74-4.454 1.362-5.754 1.402-6.264 0.012-0.168-0.714-2.439 0.259-4.152 1.442-0.066 2.933 0.716 3.865 1.337 0.415 0.278 0.348 0.323 0.883 0.187 1.88-0.483 4.007-0.54 5.921-0.231 1.288 0.209 1.326 0.486 1.971 0.056 0.814-0.542 2.607-1.538 3.902-1.326 0.387 0.793 0.545 1.769 0.482 2.747-0.127 1.945-0.718 0.598 0.364 2.31 0.956 1.512 1.141 3.303 0.794 5.369-0.32 1.897-1.151 3.292-2.284 4.142-2.029 1.523-4.246 1.418-4.684 1.715 0.717 0.831 0.984 1.513 0.993 2.958 0.029 4.672-0.669 5.831 2.506 4.389 4.202-1.908 7.891-5.851 8.97-11.25 1.933-9.666-5.010-17.467-12.988-18.697-9.527-1.47-17.215 5.489-18.14 13.759-0.548 4.901 0.927 8.565 3.743 12.124 0.484 0.61 1.403 1.455 2.034 1.959 0.958 0.763 4.212 2.881 5.395 2.669 0.685-0.122 0.572-0.747 0.565-1.48-0.006-0.713-0.010-1.426-0.011-2.139h0.003z"></path>
</svg>
