<!-- Generated by IcoMoon.io -->
<svg version="1.1" xmlns="http://www.w3.org/2000/svg" width="32" height="32" viewBox="0 0 32 32">
<title>github-x</title>
<path d="M0 14.538c0.574-1.326 0.318-5.447 4.623-9.792 0.993-1.002 2.501-2.201 4.131-3.009 2.971-1.476 4.602-1.244 5.578-1.736h2.814c0.571 0.204 2.223 0.341 3.079 0.58 2.753 0.773 5.064 2.144 6.97 3.979 4.397 4.236 4.273 8.731 4.806 9.878v3.231c-0.659 1.293-0.549 8.477-9.090 12.75-2.736 1.369-4.727 1.224-5.661 1.582h-2.813c-0.632-0.295-2.197-0.443-3.041-0.692-5.164-1.522-9.14-5.541-10.702-10.702-0.274-0.904-0.311-2.178-0.693-2.937v-3.131zM12.168 28.835c-0.003-2.443-0.281-3.881 1.202-5.163-2.406-0.542-4.988-0.751-6.372-3.717-0.566-1.213-0.812-2.817-0.714-4.327 0.119-1.85 0.719-2.574 1.513-3.689-0.324-2.141-0.396-2.013 0.17-4.095 1.544-0.076 2.65 0.559 3.729 1.261 0.768 0.499 1.018 0.167 1.975 0.010 3.887-0.64 5.771 0.582 6.691 0.050 0.934-0.541 2.384-1.582 3.762-1.27 0.363 0.678 0.533 1.745 0.483 2.571-0.023 0.396-0.239 1.142-0.227 1.354 0.019 0.331 0.386 0.66 0.598 0.991 1.627 2.545 1.539 8.57-3.597 10.3-1.522 0.513-2.141 0.322-2.549 0.644 0.585 0.621 0.939 0.929 1.095 1.977 0.13 0.872 0.056 2.127 0.059 3.042 2.135-0.11 5.684-3.105 7.039-5.067 1.762-2.552 2.855-5.95 2.268-9.782-0.948-6.187-6.343-11.373-13.294-11.368-11.518 0.009-16.958 13.138-11.024 21.148 1.545 2.086 4.647 4.821 7.192 5.131z"></path>
</svg>
