<!-- Generated by IcoMoon.io -->
<svg version="1.1" xmlns="http://www.w3.org/2000/svg" width="32" height="32" viewBox="0 0 32 32">
<title>github-d</title>
<path d="M16.009 27.080c0-1.254 1.097-1.424 1.097-0.439v2.631h-1.097v-2.192zM13.597 28.834c0-1.544-0.172-1.702 0.548-2.083 0.755 0.399 0.548 0.651 0.548 2.412-0.786 0-1.097 0.108-1.097-0.329zM18.531 29.053c0-1.249-0.191-1.756 0.439-2.302 0.34 0.079 0.317 0.14 0.657 0.219v1.864c-0.32 0.075-0.748 0.19-1.096 0.219zM3.18 19.187l0.925-0.281c1.133-0.473 2.365-0.453 3.586-0.282 1.137 0.16-0.038 0.234 2.151 2.124 0.844 0.73 3.116 1.618 4.084 1.618-0.261 0.39-0.82 1.165-1.237 1.395-0.582 0.322-1.903 0.25-2.602 0.25-0.421 0-0.94-0.346-1.182-0.572-0.753-0.7-0.688-1.216-1.775-1.734-0.25-0.119-0.787-0.301-1.077-0.203-0.106 0.035-0.262-0.027-0.246 0.253 0.023 0.375 1.080 0.876 1.832 2.291 0.352 0.663 0.326 0.812 0.884 1.308 0.96 0.851 2.060 0.629 3.647 0.629v2.741c-1.141-0.095-3.534-1.581-4.521-2.386-0.869-0.71-2.167-2.038-2.74-2.961-0.62-0.998-1.73-3.023-1.73-4.19zM21.052 28.286c0-1.284 0.076-2.584-0.266-3.57l-1.022-1.829c-0.209-0.235-0.29-0.256-0.466-0.521 1.491 0 3.853-1.187 4.91-2.326 0.27-0.291 0.809-1.115 0.901-1.51 0.127 0 3.838-0.274 3.838 0.329 0 1.215-0.891 2.865-1.489 3.883-1.129 1.922-1.818 2.525-3.579 3.985-0.52 0.431-2.167 1.406-2.827 1.559zM2.96 18.749c-0.007-0.334-0.049-0.4-0.109-0.658 0.862 0 1.172-0.329 2.303-0.329 1.068 0 1.804 0.22 2.741 0.22v0.109c-0.846 0-1.919-0.058-2.738 0.003-0.822 0.062-1.431 0.476-2.196 0.655zM26.096 17.872c1.594 0 0.523-0.374 3.071 0.219-0.302 0.192-0.86-0.018-1.344-0.081-0.559-0.073-1.157-0.028-1.726-0.028v-0.11zM7.675 15.57c0 0.944-0.075 1.074 0.11 1.864-1.002 0-1.594-0.102-2.57-0.141-0.606-0.023-1.824 0.101-2.365 0.36-0.148-1.777-0.235-2.796 0.219-4.714 0.352-1.488 1.114-3.369 2.019-4.559 1.285-1.691 3.336-3.649 5.31-4.448 2.184-0.883 3.195-1.187 5.83-1.187 1.063 0 1.996 0.127 2.851 0.328 1.634 0.387 1.002 0.253 2.461 0.829 2.089 0.824 3.981 2.702 5.341 4.417 0.767 0.967 1.805 3.272 2.059 4.518 0.251 1.233 0.544 3.346 0.227 4.706-0.525-0.044-1.192-0.218-1.755-0.227l-1.973 0.118c0.349-1.496 0.252-1.94-0.218-3.51-0.11-0.367-0.223-0.59-0.417-0.898-0.823-1.3-0.618-0.459-0.369-2.186 0.093-0.645 0.441-3.381-0.641-3.381-1.447 0-2.036 0.45-2.985 1.072-0.499 0.328-0.416 0.443-0.743 0.682-2.526-0.588-1.019-0.548-4.057-0.548-1.817 0-1.776 0.323-2.742 0.548-0.278-0.416-1.13-1.003-1.604-1.246-0.736-0.377-1.387-0.508-2.453-0.508-0.107 0.4-0.285 0.405-0.397 0.921-0.329 1.53 0.277 3.023 0.323 3.414 0.031 0.262-0.488 0.907-0.88 1.618-0.383 0.694-0.581 1.256-0.581 2.159zM-0.001 16.009c0 2.637 0.796 5.732 2.103 7.873 0.676 1.108 0.814 1.355 1.608 2.339 0.881 1.091 2.015 2.053 3.132 2.898 0.742 0.562 1.783 1.031 2.602 1.455 0.828 0.43 1.952 0.733 2.93 1.017 2.837 0.826 7.543 0.36 10.199-1.017 0.477-0.248 0.848-0.381 1.311-0.663 2.787-1.696 4.289-3.16 5.989-5.962 2.487-4.096 2.885-10.3 0.705-14.503-0.424-0.818-0.841-1.749-1.409-2.538-1.541-2.141-3.014-3.421-5.217-4.76-3.125-1.899-7.874-2.697-11.492-1.747-1.865 0.49-3.996 1.33-5.553 2.45-0.218 0.157-0.329 0.276-0.545 0.442-1.959 1.498-2.968 2.722-4.216 4.775-0.311 0.511-0.423 0.908-0.699 1.384-0.438 0.757-0.743 1.994-1.023 2.924-0.212 0.706-0.424 2.694-0.424 3.632z"></path>
</svg>
