<!-- Generated by IcoMoon.io -->
<svg version="1.1" xmlns="http://www.w3.org/2000/svg" width="32" height="32" viewBox="0 0 32 32">
<title>github-g</title>
<path d="M1.984 16.384c0 1.967 0.635 4.216 1.301 5.547 0.79 1.579 1 1.84 2 3.12 0.441 0.564 1.143 1.241 1.7 1.692 0.179 0.144 0.299 0.257 0.493 0.402l1.021 0.707c0.197 0.133 0.322 0.195 0.522 0.31 4.278 2.463 9.831 2.509 14.048-0.039 0.375-0.226 0.656-0.418 1.009-0.654l1.861-1.532c0.654-0.654 1.392-1.66 1.915-2.437 2.5-3.715 2.891-9.379 0.862-13.433-0.209-0.417-0.381-0.732-0.597-1.13-0.21-0.386-0.413-0.663-0.649-1.015l-0.754-0.975c-0.484-0.62-0.802-0.854-1.26-1.299-2.243-2.178-5.915-3.665-9.071-3.665-3.688 0-6.272 0.914-8.979 2.925l-1.344 1.153-1.207 1.417c-0.131 0.176-0.22 0.288-0.35 0.482-1.75 2.637-2.521 4.855-2.521 8.424zM15.677-0.001h0.657c1.089 0.024 2.195 0.166 3.327 0.434 2.988 0.709 4.96 1.885 7.139 3.805 0.863 0.761 0.4 0.356 0.991 0.993 0.825 0.891 1.518 1.8 2.117 2.875 0.265 0.475 0.442 0.793 0.666 1.318 0.412 0.965 0.745 1.835 1.003 2.965 0.256 1.116 0.393 2.179 0.422 3.214v0.821c-0.059 2.085-0.563 4.078-1.444 6.194-0.312 0.749-0.97 1.88-1.445 2.523-0.449 0.607-1.52 1.974-2.058 2.423l-1.947 1.573c-0.374 0.281-0.793 0.536-1.214 0.769-3.547 1.974-7.556 2.607-11.553 1.658-2.753-0.654-4.476-1.66-6.607-3.314-0.245-0.191-0.319-0.303-0.532-0.491-1.229-1.083-2.308-2.432-3.107-3.869-1.346-2.418-2.093-5.067-2.093-7.956 0-5.023 2.416-9.662 6.335-12.673 0.884-0.678 2.062-1.398 3.091-1.837 2.070-0.885 4.132-1.38 6.252-1.426z"></path>
<path d="M17.344 17.984c-1.831 0-3.911 0.169-5.463-0.617-1.818-0.921-1.908-3.402-0.828-4.521 1.050-1.088 2.424-0.69 4.053-0.688 0.384 0 0.464 0.063 0.827 0.069 0.608 0.009 1.031-0.057 1.669-0.064 0.356-0.004 0.407-0.064 0.763-0.069 1.145-0.014 1.751-0.066 2.548 0.786 0.977 1.044 0.89 3.441-0.509 4.39-0.768 0.522-1.792 0.715-3.060 0.715zM9.344 8.128c0 0.276 0.028 0.422 0.060 0.644 0.146 1.046 0.255 0.478-0.445 1.531-0.859 1.293-0.748 3.837-0.255 4.865-1.294 0-1.712 0.075-2.816 0.128-0.513 0.025-0.937 0.051-1.363 0.109l-0.952 0.137c-0.298 0.078-0.081-0.085-0.245 0.139 0.158 0.215 0.486 0.020 1.164-0.053 0.462-0.050 0.969-0.101 1.4-0.136 0.23-0.018 0.463 0.013 0.691-0.013l2.185-0.118c0.044 0.187 0.112 0.296 0.192 0.448-1.067 0-1.967 0.073-2.917 0.219-0.49 0.076-0.892 0.146-1.355 0.245-0.355 0.075-0.928 0.274-1.296 0.305v0.192l2.685-0.515c0.893-0.123 2.011-0.252 3.012-0.252 0.063 0.272 0.547 0.862 0.752 1.040 0.992 0.867 2.589 1.52 4.048 1.52-0.137 0.204-0.544 0.541-0.697 0.967-0.103 0.286-0.018 0.418-0.284 0.548-0.369 0.18-0.972 0.149-1.387 0.149-0.845 0-1.194-0.549-1.572-1.052-0.487-0.648-1.195-1.45-2.14-0.996 0.029 0.349 0.246 0.412 0.494 0.594 1.306 0.964 0.881 2.419 2.703 2.929 0.511 0.143 1.442 0.124 1.987-0.003 0 0.654 0.053 1.553 0 2.177-0.069 0.812-0.914 0.718-0.961 1.28 0.601 0.318 1.364 0.005 1.775-0.337 0.431-0.358 0.403-0.59 0.401-1.327-0.002-0.576 0-1.152 0-1.728-0.001-0.617-0.039-1.145 0.319-1.409 0 0.982 0 1.963 0 2.944 0.001 2.587-0.518 1.675-0.575 2.368 0.666 0.352 1.362-0.294 1.574-0.602 0.526-0.765 0.345-3.739 0.345-4.903h0.257l-0.003 1.091c0.010 0.314 0.058 0.321 0.069 0.637 0.038 1.056-0.456 2.876 0.807 3.608 0.689 0.399 1.436 0.442 0.817-0.37-0.464-0.61-0.347-0.983-0.347-1.829 0-0.982 0-1.963 0-2.944 0.174 0.047 0.119-0.012 0.215 0.169 0.026 0.048 0.088 0.34 0.090 0.357l0.012 1.717c0.001 0.384 0.064 0.464 0.069 0.827 0.008 0.675-0.046 1.052 0.333 1.394 0.342 0.309 1.203 0.699 1.84 0.272-0.282-0.421-0.91-0.559-0.961-1.151-0.103-1.208 0.144-2.825-0.129-4.095-0.186-0.86-0.639-0.998-0.83-1.282 0.832 0 2.384-0.426 2.945-0.703 0.657-0.323 1.612-1.088 1.791-1.857l5.031 0.601c0.556 0.139 0.552 0.239 0.793 0.103-0.189-0.258-0.785-0.331-1.189-0.41-1.466-0.29-2.903-0.486-4.507-0.486 0.162-0.695 0.532-0.4 1.15-0.382 0.54 0.017 1.115-0.054 1.639 0.025l2.971 0.293c-0.189-0.284-0.591-0.252-1.197-0.34-1.454-0.21-2.885-0.236-4.371-0.236 0.243-0.509 0.184-1.275 0.266-1.976 0.142-1.215-0.267-2.514-0.979-3.456-0.632-0.837-0.247-0.24-0.247-1.993 0-0.406-0.182-1.471-0.512-1.471-1.479 0-2.869 1.152-3.008 1.152-0.353 0-1.392-0.256-2.88-0.256-0.641 0-1.204 0.055-1.782 0.138-1.11 0.158-0.795 0.413-1.418-0.011-0.684-0.465-1.738-1.023-2.881-1.023-0.069 0.299-0.179 0.5-0.258 0.829-0.068 0.284-0.126 0.673-0.126 1.026z"></path>
<path d="M12.096 14.784c0 1.365 1.6 1.718 1.6-0.128 0-1.319-1.6-1.439-1.6 0.128z"></path>
<path d="M18.432 14.656c0 1.792 1.6 1.542 1.6 0.128 0-1.568-1.6-1.447-1.6-0.128z"></path>
</svg>
