<!-- Generated by IcoMoon.io -->
<svg version="1.1" xmlns="http://www.w3.org/2000/svg" width="32" height="32" viewBox="0 0 32 32">
<title>google</title>
<path fill="#017dbb" d="M3.587 9.529c0.124 0.359 1.933 1.618 2.302 1.896l2.38 1.811c-0.016-0.321 0.589-1.464 0.794-1.775 2.717-4.144 7.855-5.476 11.951-2.654 1.017 0.701 0.366 1.113 2.809-1.362 0.348-0.352 1.818-1.708 1.977-2.040-0.292-0.536-1.751-1.472-2.351-1.813-0.943-0.535-1.847-0.964-2.961-1.279-4.589-1.296-9.407-0.393-13.105 2.563-1.193 0.954-3.391 3.326-3.795 4.653z"></path>
<path fill="#16b65a" d="M3.607 22.433c0.115 0.523 1.23 2.081 1.585 2.503 0.676 0.803 1.238 1.401 2.078 2.068 4.607 3.656 10.769 4.285 15.892 1.641 1.365-0.704 1.677-1.195 2.467-1.701-0.035-0.25 0.006-0.141-0.186-0.322l-3.152-2.429c-0.407-0.29-0.789-0.758-1.28-0.8-0.734 0.624-2.688 1.159-3.751 1.234-2.974 0.21-5.297-0.724-7.2-2.748-0.426-0.453-0.731-0.87-1.073-1.418l-0.633-1.258c-0.080-0.189-0.089-0.303-0.257-0.36l-2.268 1.819c-0.289 0.235-0.714 0.458-1.179 0.858-0.251 0.216-0.185 0.287-0.499 0.471-0.252 0.148-0.32 0.215-0.546 0.441z"></path>
<path fill="#2b80f7" d="M21.012 23.393c0.491 0.042 0.873 0.51 1.28 0.8l3.152 2.429c0.191 0.182 0.151 0.072 0.186 0.322 0.151-0.199 0.363-0.339 0.564-0.543 0.184-0.186 0.337-0.357 0.541-0.588 1.992-2.264 2.962-5.117 3.225-8.181 0.079-0.919 0.090-3.576-0.237-4.26-0.455-0.199-11.867-0.080-13.367-0.045l-0.018 5.434 7.685 0.009c0.229 1.226-1.685 4.102-3.010 4.624z"></path>
<path fill="#feba11" d="M3.607 22.433c0.226-0.226 0.294-0.293 0.546-0.441 0.314-0.184 0.247-0.255 0.499-0.471 0.465-0.401 0.889-0.624 1.179-0.858l2.268-1.819c0.015-0.97-0.792-2.712-0.003-5.263 0.1-0.323 0.011-0.158 0.174-0.344l-2.38-1.811c-0.368-0.278-2.178-1.537-2.302-1.896-0.48 0.957-0.834 1.711-1.13 2.857-0.778 3.017-0.547 5.838 0.468 8.722 0.198 0.561 0.325 0.924 0.682 1.326z"></path>
</svg>
