<!-- Generated by IcoMoon.io -->
<svg version="1.1" xmlns="http://www.w3.org/2000/svg" width="32" height="32" viewBox="0 0 32 32">
<title>google-my-business</title>
<path fill="#7eacf7" d="M2.938 15.968c1.445 0.347 2.306 0.568 3.572-0.216 0.627-0.388 1.179-0.933 1.468-1.6l0.361-0.745c0.058-1.565 0.419-3.65 0.641-5.233 0.214-1.524 0.35-3.883 0.738-5.217-1.307 0.023-4.908-0.23-5.772 0.266-1.181 0.678-1.362 2.808-1.755 4.215-0.438 1.563-1.529 4.863-1.256 6.015 0.438 1.847 1.825 2.337 1.897 2.491l0.107 0.025z"></path>
<path fill="#7eacf7" d="M16.025 13.121c0.599 1.463 1.349 3.243 3.848 3.159 2.396-0.079 3.058-1.777 3.621-3.331 0.019-1.506-0.368-3.447-0.564-5.036-0.148-1.211-0.668-3.926-0.576-4.949l-6.44-0.005 0.111 10.161z"></path>
<path fill="#4959b7" d="M8.339 13.407c0.465 0.851 0.305 1.286 1.376 2.147 0.821 0.66 1.18 0.898 2.586 0.901 1.424 0.002 1.732-0.304 2.538-0.952 0.498-0.401 0.574-0.266 0.809-0.931 0.215-0.608 0.352-0.64 0.376-1.451l-0.111-10.161-6.195-0.003c-0.388 1.334-0.524 3.693-0.738 5.217-0.222 1.583-0.583 3.668-0.641 5.233z"></path>
<path fill="#4959b7" d="M23.493 12.949c0.019 1.381 0.928 2.485 1.837 2.95 1.016 0.521 2.224 0.799 3.336 0.386 0.312-0.116 0.235-0.035 0.416-0.283 0.806-0.719 2.449-1.778 1.922-3.846-0.393-1.544-0.84-3.185-1.251-4.733-1.236-4.655-0.356-4.658-7.4-4.459-0.092 1.022 0.428 3.738 0.576 4.949 0.195 1.589 0.582 3.529 0.564 5.036z"></path>
<path fill="#4881ec" d="M24.915 24.584l0.21-0.489c-0.645-0.027-1.444 0.118-1.979-0.123-0.107-0.483-0.101-1.012 0.013-1.504 0.643-0.048 1.231-0.031 1.871-0.030l1.383-0.011c0.624 0.132 0.17-0.007 0.404 0.22-0.116 1.124 0.125 3.262-2.215 4.106-2.052 0.74-3.819-0.265-4.644-1.604-1.034-1.677-0.478-3.671 0.786-4.777 1.194-1.044 3.789-1.322 4.873 0.044-0.183 0.369-0.644 0.75-0.93 1.002-0.762-0.219-1.367-0.915-2.606-0.172-0.727 0.436-1.255 1.236-1.090 2.381 0.383 2.66 4.068 1.975 3.926 0.956zM16.025 13.121c-0.024 0.811-0.162 0.843-0.376 1.451-0.235 0.665-0.312 0.53-0.809 0.931-0.806 0.648-1.114 0.954-2.538 0.952-1.405-0.003-1.764-0.241-2.586-0.901-1.071-0.861-0.911-1.296-1.376-2.147l-0.361 0.745c-0.289 0.667-0.841 1.212-1.468 1.6-1.267 0.784-2.127 0.563-3.572 0.216 0.287 3.347-0.194 9.103 0.132 11.678 0.056 1.713 2.817 1.432 3.613 1.43l15.135 0.001c1.671-0.001 3.386 0.041 5.050 0.004 1.866-0.042 2.185-1.241 2.177-2.93-0.008-1.695-0.080-9.058 0.035-10.148-0.18 0.247-0.104 0.167-0.416 0.283-1.112 0.413-2.32 0.135-3.336-0.386-0.908-0.465-1.817-1.57-1.837-2.95-0.563 1.554-1.225 3.252-3.621 3.331-2.499 0.083-3.249-1.697-3.848-3.159z"></path>
</svg>
