<!-- Generated by IcoMoon.io -->
<svg version="1.1" xmlns="http://www.w3.org/2000/svg" width="32" height="32" viewBox="0 0 32 32">
<title>gratis</title>
<path d="M26.899 11.312c-2.537 2.035-1.303 5.355 2.047 5.288 0.283 0.952 1.39 2.67 0.853 3.587-0.283 0.483-2.717 1.476-3.3 1.511-0.4-0.433-0.396-2.189-1.328-1.904-0.848 0.259 0.154 1.759 0.259 2.342-3.577 1.156-7.518 2.799-11.078 4.156-1.837 0.701-3.689 1.386-5.51 2.071-0.873 0.328-2.032 0.963-2.709-0.054-0.149-0.224-1.028-2.522-1.059-2.772 0.891-1.001 1.867-1.681 1.173-3.469-0.631-1.624-1.692-1.742-3.202-1.854-0.68-2.614-2.374-3.309 0.98-4.573 2.15-0.81 16.399-6.265 16.614-6.155 0.219 0.113 1.877 4.816 2.121 5.463 0.121 0.321 0.37 1.104 0.522 1.356 0.298 0.494 1.058 0.315 1.023-0.322-0.016-0.297-1.791-4.903-2.051-5.59-0.641-1.695-0.83-1.27 0.858-1.913 0.877-0.335 2.056-0.997 2.746 0.033 0.164 0.245 1.043 2.567 1.042 2.8zM6.7 13.435c-0.118 0.12-0.292 0.151-0.489 0.175l0.363-0.272c2.335-1.228 6.566-4.609 8.935-6.293 1.487-1.057 2.974-2.125 4.47-3.169 0.817-0.57 1.681-1.323 2.562-0.248 0.215 0.263 1.484 2.002 1.558 2.203-0.666 1.043-0.382 1.227-1.492 1.642l-6.835 2.568c-2.767 1.033-6.353 2.611-9.072 3.394zM24.768 6.811c0.884-1.307 0.892-0.77-0.216-2.312-0.447-0.623-1.134-1.752-1.76-2.135-1.841-1.126-3.71 0.799-5.203 1.854-3.032 2.144-6.062 4.293-9.1 6.429-1.524 1.071-3.041 2.153-4.564 3.226-1.736 1.223-3.672 2.109-2.721 4.589 0.16 0.416 0.927 2.604 1.098 2.801 0.464 0.536 1.849-0.652 2.796 0.793 0.624 0.953 0.246 2.156-0.759 2.609-1.036 0.466-0.192 1.692 0.15 2.609 0.988 2.645 1.691 3.285 4.559 2.208l16.952-6.362c1.527-0.572 4.416-1.2 4.942-2.849 0.339-1.063-0.218-2.114-0.59-3.1-0.742-1.967-0.204-1.653-1.937-1.652-1.094 0.001-1.946-1.013-1.725-2.090 0.322-1.573 1.888-1.018 1.43-2.27-0.327-0.892-0.707-1.945-1.081-2.816-0.679-1.581-1.484-1.101-2.27-1.53zM12.343 18.538c-0.327-3.027 2.886-1.954 3.21 1.304 0.308 3.087-2.868 1.867-3.21-1.304zM12.854 15.655c-3.168 0.769-0.93 7.748 2.167 7.055 3.137-0.702 0.97-7.816-2.167-7.055zM9.475 21.306c1.431-0.149 1.261 1.27 0.522 1.399l-0.522-1.399zM8.387 20.41c-1.46 0.072-1.232-1.184-0.48-1.372l0.48 1.372zM10.265 24.539l0.247-0.179-0.151-0.848c0.668-0.582 1.502-0.955 1.1-2.157-0.413-1.233-1.358-0.967-2.359-1.029l-0.563-1.509 1.334-0.105c0.759-0.915-1.217-0.813-1.583-0.787-0.098-0.055-0.505-0.777-0.77-0.197-0.288 0.628 0.357 0.151-0.49 0.769-0.612 0.448-0.887 1.185-0.588 1.908 0.32 0.773 0.975 0.983 1.756 0.97 0.681-0.011 0.552-0.052 0.785 0.59 0.101 0.278 0.361 0.715 0.301 0.999l-1.827-0.113-0.007 0.118c-0.694 1.197 1.764 0.805 2.146 0.803l0.669 0.766zM19.145 14.856c-0.266-1.458 1.293-1.146 1.503 0.536 0.18 1.437-1.225 0.996-1.503-0.536zM19.286 13.243c-1.711 0.552-0.387 4.155 1.239 3.686 1.634-0.471 0.396-4.214-1.239-3.686zM16.743 14.957c0.751-0.552 1.789 1.719 1.068 2.198-0.8 0.532-1.727-1.715-1.068-2.198zM16.604 14.247c-1.618 0.663-0.239 4.183 1.345 3.649 1.62-0.546 0.27-4.311-1.345-3.649zM20.851 17.27c-0.651 0.206-1.411 0.545-2.061 0.798-0.204 0.080-0.915 0.325-1.042 0.439-0.317 0.283-0.085 0.743 0.437 0.596 0.61-0.172 1.475-0.555 2.099-0.789 1.523-0.572 1.475-1.333 0.567-1.044zM24.428 17.94c-0.699 0.366-0.127 1.518 0.56 1.181 0.64-0.313 0.124-1.539-0.56-1.181zM6.7 13.435c-0.233 0.010-0.090 0.034-0.125-0.097l-0.363 0.272c0.196-0.024 0.371-0.054 0.489-0.175z"></path>
</svg>
