<?xml version="1.0" encoding="UTF-8"?>
<!DOCTYPE svg PUBLIC "-//W3C//DTD SVG 1.1//EN" "http://www.w3.org/Graphics/SVG/1.1/DTD/svg11.dtd">
<!-- Creator: CorelDRAW 2017 -->
<svg xmlns="http://www.w3.org/2000/svg" xml:space="preserve" width="7.3658mm" height="7.3658mm" version="1.1" style="shape-rendering:geometricPrecision; text-rendering:geometricPrecision; image-rendering:optimizeQuality; fill-rule:evenodd; clip-rule:evenodd"
viewBox="0 0 736.58 736.58"
 xmlns:xlink="http://www.w3.org/1999/xlink">
 <defs>
  <style type="text/css">
   <![CDATA[
    .fil0 {fill:none}
    .fil1 {fill:black}
   ]]>
  </style>
 </defs>
 <g id="Capa_x0020_1">
  <metadata id="CorelCorpID_0Corel-Layer"/>
  <rect class="fil0" x="-0" y="-0" width="736.59" height="736.59"/>
  <g>
   <path class="fil1" d="M382.64 23.22c-4.68,9.46 9.59,17.25 14.82,7.14 4.56,-8.83 -9.63,-17.64 -14.82,-7.14zm4.68 60.24c-4.46,10.23 10.73,16.8 15.33,6.01 3.69,-8.66 -10.84,-16.3 -15.33,-6.01zm-34.6 -31.01c-5.38,10.39 9.59,17 14.54,7.26 4.32,-8.49 -9.26,-17.47 -14.54,-7.26zm-3.53 30.36c-4.59,10.87 10.76,15.85 14.86,6.59 3.91,-8.81 -10.41,-17.13 -14.86,-6.59zm35.62 -27.91c-0.35,1.74 -1.44,2.76 0.38,5.78 1.27,2.11 3.32,3.56 5.23,4.15 4.18,1.28 8.72,-1.44 9.91,-5.86 2.53,-9.37 -13.18,-15.67 -15.52,-4.07zm-29.36 -30.18c-0.7,3.77 -0.38,8.1 5.65,9.62 3.29,0.82 8.3,-0.81 9.81,-5.58 3.12,-9.84 -13.24,-15.98 -15.46,-4.04zm-65.96 444.27c2.43,0.03 3.67,-1.46 5.73,1.33 2.17,2.94 -0.01,3.31 -0.9,5.84 -1.69,4.83 2.78,6.55 6.94,5.59 3.87,-8.58 -7.3,-9.91 -14.04,-22.01 4.8,-6.94 7.11,-1.54 12.34,3.9 3.52,3.66 8.58,7.68 10.09,12.5 2.13,6.77 -3.35,16.99 -15.83,13.26l0.72 22.54c0.27,5.5 -1.28,16.37 -3.16,22.88 -11.43,39.67 -42.89,51.59 -47.48,91.08 -1.7,14.61 -1.3,28.52 5.93,45.99 27.63,66.76 115.55,70.32 174.24,54.13 33.58,-9.26 67.45,-40.76 69.33,-74.1 3.44,-61.02 -77.69,-97.45 -39.73,-184.12 10.6,-24.2 20.45,-43.87 12.43,-68.69 -1.93,-5.97 -6.84,-19.04 -15.37,-17.89 -11.97,3.34 1.11,53.28 -35.31,47.26 -9.84,-1.62 -16.72,-6.65 -20.56,-6.05 0.71,13.39 -0.04,40.54 1.03,47.9 18.55,4.47 37.3,-13.9 41.46,-15.37 10.37,-3.66 9.15,7.78 6.73,13.89 -18.55,46.86 -20.92,53.08 3.21,101.19 6.55,13.04 14.92,27.89 20.4,41.22 2.93,7.15 5.44,14.12 5.71,20.52 0.29,7.05 -2.88,16.02 -12.19,13.98 -14.28,-3.13 -26.43,-16.9 -40.52,-24.8 -10.63,-5.97 -29.06,-12.63 -40.45,-10.02 -1.13,2.95 -1.53,25.99 -0.39,29.18l13.8 1.05c2.75,3.46 1.75,6.7 1.81,10.54 0.26,14.77 0.14,11.84 -26.92,11.53 -27.5,-0.32 -29.62,3.53 -27.24,-18.57 0.85,-7.94 8.87,-3.76 14.06,-5.23 1.1,-3.67 1.17,-17.4 0.5,-21.47 -4.51,0.12 -15.53,5.4 -25.76,3.45 -10.71,-2.04 -14.54,-12.18 -16.21,-21.15 -3.02,-16.17 2.89,-32.65 11.38,-50.65 9.05,-19.21 15.81,-32.95 7.7,-50.79 -3.85,-8.48 -18.72,-30.65 -1.11,-36.61 5.3,-1.8 8.42,-0.34 12.56,-1.47l0.51 -14.99c-0.12,-1.42 -0.01,-0.7 -0.32,-1.69 -1.81,0.15 2.52,0.81 -1.62,-0.18 -2.12,-0.51 -15,-7.19 -7.52,-18.8 -4.16,-0.6 -24.05,10.41 -33.64,-10.42 -7.5,-16.3 0.13,-28.76 -10.46,-36.32 -16.21,2.87 -19.28,31.31 -18.6,43.36 0.68,12.1 10.09,39.6 16.72,47.28zm-23.58 142.17c-0.08,0.19 -0.14,0.39 -0.2,0.58 -0.06,0.2 -0.12,0.39 -0.17,0.58 -0.05,0.19 -0.1,0.38 -0.14,0.56 -0.04,0.19 -0.07,0.37 -0.1,0.55 -0.04,0.19 -0.06,0.36 -0.08,0.54 -0.02,0.18 -0.04,0.35 -0.05,0.53 -0.01,0.17 -0.02,0.34 -0.02,0.51 0,0.16 0,0.33 0,0.49 0.01,0.17 0.02,0.33 0.03,0.49 0.02,0.16 0.04,0.31 0.06,0.47 0.02,0.15 0.05,0.3 0.08,0.45 0.03,0.15 0.07,0.3 0.11,0.45 0.03,0.14 0.08,0.28 0.12,0.42 0.05,0.14 0.1,0.28 0.15,0.42 0.05,0.13 0.11,0.27 0.17,0.4 0.06,0.13 0.12,0.26 0.19,0.38 0.07,0.13 0.14,0.25 0.21,0.37 0.07,0.12 0.15,0.24 0.23,0.36 0.08,0.11 0.16,0.23 0.24,0.34 0.09,0.11 0.17,0.21 0.27,0.32 0.09,0.11 0.18,0.21 0.27,0.31 0.1,0.1 0.2,0.2 0.3,0.29 0.1,0.1 0.2,0.19 0.3,0.28 0.11,0.09 0.22,0.18 0.33,0.26 0.11,0.09 0.22,0.17 0.33,0.25 0.11,0.08 0.23,0.15 0.35,0.23 0.11,0.07 0.23,0.14 0.35,0.21l0 0c0.13,0.07 0.25,0.13 0.37,0.2l0 0c0.13,0.06 0.25,0.12 0.38,0.18 0.13,0.05 0.25,0.11 0.38,0.16 0.13,0.05 0.27,0.1 0.4,0.15 0.13,0.04 0.26,0.08 0.4,0.12 0.13,0.05 0.27,0.08 0.4,0.12 0.14,0.03 0.28,0.06 0.42,0.09l0 0c0.13,0.03 0.27,0.06 0.41,0.08 0.14,0.02 0.28,0.04 0.42,0.06 0.14,0.01 0.28,0.03 0.42,0.04 0.15,0.01 0.29,0.02 0.43,0.02l0 0c0.14,0.01 0.28,0.01 0.43,0.01l0 0c0.14,0 0.28,-0.01 0.42,-0.02 0.14,0 0.29,-0.01 0.43,-0.03 0.14,-0.01 0.28,-0.03 0.42,-0.05 0.14,-0.02 0.28,-0.04 0.42,-0.07l0 0c0.14,-0.02 0.29,-0.05 0.42,-0.08 0.14,-0.04 0.28,-0.07 0.42,-0.11l0 0c0.14,-0.04 0.27,-0.08 0.41,-0.13 0.14,-0.04 0.27,-0.09 0.41,-0.14l0 0c0.13,-0.05 0.26,-0.11 0.4,-0.17 0.13,-0.05 0.26,-0.11 0.39,-0.18l0 0c0.13,-0.06 0.26,-0.13 0.38,-0.2 0.13,-0.08 0.25,-0.15 0.38,-0.23l0 0c0.12,-0.08 0.24,-0.16 0.36,-0.24 0.13,-0.09 0.24,-0.18 0.36,-0.27 0.12,-0.09 0.23,-0.18 0.35,-0.28 0.11,-0.1 0.22,-0.2 0.33,-0.31l0 0c0.11,-0.1 0.21,-0.21 0.32,-0.33 0.1,-0.11 0.2,-0.22 0.3,-0.34l0 0c0.1,-0.12 0.2,-0.24 0.3,-0.37l0 0c0.09,-0.13 0.18,-0.26 0.27,-0.39 0.09,-0.13 0.18,-0.27 0.26,-0.41 0.09,-0.14 0.17,-0.29 0.25,-0.43 0.07,-0.15 0.15,-0.3 0.22,-0.46 0.07,-0.15 0.14,-0.31 0.21,-0.47 0.06,-0.17 0.13,-0.33 0.18,-0.5 3.55,-10.18 -12.56,-17.78 -16.8,-6.06zm41.76 87.48c-4.29,11.32 12.06,17.74 16.85,6.63 4.43,-10.29 -12.33,-18.53 -16.85,-6.63zm-40.25 -30.33c0,0.16 0.01,0.31 0.02,0.47l0 0c0.01,0.15 0.02,0.3 0.04,0.45 0.02,0.15 0.04,0.3 0.07,0.45 0.02,0.14 0.05,0.29 0.09,0.43 0.03,0.15 0.07,0.29 0.11,0.43l0 0c0.04,0.14 0.09,0.27 0.14,0.41 0.05,0.13 0.1,0.27 0.16,0.4 0.05,0.13 0.11,0.26 0.18,0.39l0 0c0.06,0.13 0.12,0.25 0.19,0.38l0.01 0c0.06,0.12 0.14,0.24 0.21,0.36 0.08,0.12 0.16,0.24 0.24,0.35 0.08,0.12 0.17,0.23 0.25,0.34 0.09,0.11 0.18,0.22 0.28,0.33 0.09,0.1 0.18,0.21 0.28,0.31l0 0c0.1,0.1 0.2,0.2 0.3,0.3 0.11,0.09 0.21,0.19 0.32,0.28 0.11,0.09 0.22,0.18 0.33,0.27 0.11,0.09 0.23,0.17 0.34,0.25 0.12,0.08 0.24,0.17 0.36,0.24l0 0c0.12,0.08 0.24,0.15 0.36,0.23 0.12,0.07 0.25,0.14 0.38,0.21 0.12,0.06 0.25,0.13 0.38,0.19l0 0c0.13,0.06 0.26,0.12 0.39,0.17l0 0c0.14,0.06 0.27,0.11 0.4,0.16 0.14,0.06 0.27,0.1 0.41,0.15 0.14,0.04 0.27,0.08 0.41,0.12 0.14,0.04 0.28,0.08 0.42,0.11l0 0c0.14,0.04 0.28,0.07 0.42,0.09 0.15,0.03 0.29,0.06 0.43,0.08 0.14,0.02 0.29,0.04 0.43,0.05 0.14,0.02 0.29,0.03 0.43,0.04 0.14,0.01 0.29,0.01 0.43,0.02 0.15,0 0.29,0 0.43,0 0.15,-0.01 0.29,-0.02 0.44,-0.03 0.14,-0.01 0.28,-0.02 0.43,-0.04 0.14,-0.01 0.28,-0.03 0.42,-0.06 0.15,-0.02 0.29,-0.05 0.43,-0.08 0.14,-0.03 0.28,-0.06 0.42,-0.1 0.14,-0.04 0.28,-0.08 0.41,-0.12 0.14,-0.04 0.28,-0.09 0.41,-0.14 0.14,-0.05 0.27,-0.11 0.41,-0.17 0.13,-0.06 0.26,-0.12 0.39,-0.18 0.14,-0.07 0.27,-0.14 0.39,-0.21 0.13,-0.08 0.26,-0.15 0.38,-0.23 0.13,-0.08 0.25,-0.17 0.37,-0.26 0.12,-0.08 0.24,-0.18 0.36,-0.27 0.12,-0.1 0.24,-0.2 0.35,-0.3 0.11,-0.11 0.23,-0.21 0.34,-0.32 0.11,-0.12 0.21,-0.23 0.32,-0.35 0.1,-0.12 0.21,-0.24 0.31,-0.37 0.1,-0.13 0.2,-0.26 0.29,-0.4 0.1,-0.13 0.19,-0.27 0.28,-0.41 0.09,-0.15 0.18,-0.3 0.26,-0.45 0.09,-0.15 0.17,-0.31 0.25,-0.47 4.59,-9.36 -9.83,-19.59 -15.85,-8.65l-1.45 5.15zm72.65 -218.34c-4.65,-0.38 -7.27,8.64 -13.85,6.56 -2.74,-0.86 -5.45,-3.9 -5.99,-6.8 -0.58,-3.16 1.69,-5.13 4.72,-7.65 5.31,5.84 0.32,5.28 3.23,8.24 -0.03,-2.21 0.12,-7.83 -0.33,-9.25 -6.57,-1.67 -12.72,7.17 -5.82,14.36 7.89,8.21 17.13,-2.95 18.04,-5.46zm4.54 -5.9c1.35,-3.53 1.09,-7.48 1.32,-11.37 0.28,-4.59 0.73,-8.47 -0.58,-11.71l-9.88 4.1c-7.48,11.61 5.4,18.29 7.52,18.8 4.14,0.99 -0.19,0.33 1.62,0.18zm-0.88 6.02l-4.84 -3.85c-4.73,2.06 -6.73,7.29 -10.68,7.22 -4.43,-0.09 -4.6,-3.43 -4.22,-6.21 1.29,3.31 -2.46,2.46 4.09,6.68 4.07,-3.19 3.56,-3.18 3.32,-7.16 -0.21,-3.72 1.42,-5.95 -1.87,-8.46 -3.63,-2.78 -13.21,1.07 -13.63,10.1 -0.48,10.43 15.86,22.34 27.83,1.68zm-3.66 -0.12c-0.91,2.51 -10.15,13.67 -18.04,5.46 -6.9,-7.19 -0.75,-16.03 5.82,-14.36 0.45,1.42 0.3,7.04 0.33,9.25 -2.91,-2.96 2.08,-2.4 -3.23,-8.24 -3.03,2.52 -5.3,4.49 -4.72,7.65 0.54,2.9 3.25,5.94 5.99,6.8 6.58,2.08 9.2,-6.94 13.85,-6.56zm-30.41 1.6c-15.54,5.84 4.69,23.49 7.31,23.76 2.17,0.23 5.05,-1.28 2.95,-5.53 -0.81,-1.64 -4.74,-4.96 -6.15,-6.55 -4.82,-5.46 3.44,-7.92 -4.11,-11.68zm-20.17 17.42l3.4 17.51c0.65,2.42 -0.02,0.4 0.93,2.9 12.48,3.73 17.96,-6.49 15.83,-13.26 -1.51,-4.82 -6.57,-8.84 -10.09,-12.5 -5.23,-5.44 -7.54,-10.84 -12.34,-3.9 6.74,12.1 17.91,13.43 14.04,22.01 -4.16,0.96 -8.63,-0.76 -6.94,-5.59 0.89,-2.53 3.07,-2.9 0.9,-5.84 -2.06,-2.79 -3.3,-1.3 -5.73,-1.33zm20.17 -17.42c7.55,3.76 -0.71,6.22 4.11,11.68 1.41,1.59 5.34,4.91 6.15,6.55 2.1,4.25 -0.78,5.76 -2.95,5.53 -2.62,-0.27 -22.85,-17.92 -7.31,-23.76zm34.07 -1.48c-11.97,20.66 -28.31,8.75 -27.83,-1.68 0.42,-9.03 10,-12.88 13.63,-10.1 3.29,2.51 1.66,4.74 1.87,8.46 0.24,3.98 0.75,3.97 -3.32,7.16 -6.55,-4.22 -2.8,-3.37 -4.09,-6.68 -0.38,2.78 -0.21,6.12 4.22,6.21 3.95,0.07 5.95,-5.16 10.68,-7.22l4.84 3.85zm-5.9 -350.49c5.83,5.05 11.33,5.1 17.8,12.63 6.25,7.28 4.59,11.48 5.66,17.72l27.04 1.08c1.5,-6.12 -0.32,-10.35 6.13,-17.72 6.61,-7.56 12.28,-7.42 17.86,-11.89l-1.12 -21.83c-0.95,-10.14 -3.16,-61.64 -4.52,-65.82 -5.26,-2.58 -12.34,-4.95 -17.85,-7.27 -9.2,-3.87 -9.44,-5.56 -18.62,-2.22 -6.14,2.24 -12.16,4.59 -18.08,6.58 -7.39,2.48 -5.82,2.71 -6.94,15.66 -0.58,6.77 -5.55,67.89 -7.36,73.08zm43.9 380.82l8.72 3.03c1.51,-4.41 -0.18,-96.76 -0.3,-109.63l0.05 -43.41c-0.19,-7.75 -0.73,-14.25 -0.16,-22.33 0.47,-6.62 -0.12,-14.79 -0.3,-21.7l-0.53 -65.73c0.09,-15.79 0.67,-82.83 -1.1,-86.97 -2.86,2.22 -1.55,6.93 -1.59,10.03l-4.61 314.95c-0.12,6.88 -0.77,15.18 -0.18,21.76zm-32.78 2.3l8.97 -2.85 2.72 -173.46c-0.26,-51.91 1.8,-109.23 2.32,-162.43 0.03,-3.45 1.22,-7.91 -0.84,-10.8 -1.77,2.01 -1.38,7.5 -1.51,10.15l-3 76.85c-0.15,3.58 0.09,6.95 -0.06,10.53 -0.17,4.05 -0.39,7.15 -0.55,11.16l-5.41 153.07c-0.5,7.36 -0.15,14.36 -0.63,21.72l-2.01 66.06zm13.8 155.19c2.74,-2.7 1.02,-6.96 1.43,-15.19 0.27,-5.41 -0.02,-9.8 0.08,-15.5l2.6 -181.04c0,-2.7 0.51,-5.26 0.46,-8.05 -0.37,-19.79 0.96,-42.31 0.88,-62.62l1.81 -126.48c0.03,-3.25 0.25,-4.95 0.34,-7.43 0.11,-2.82 -0.29,-4.78 -0.16,-8.06l0.88 -47.74c0.12,-4.88 -0.17,-10.81 0.07,-15.5 0.15,-2.83 0.02,-5.96 0.13,-8.06 0.23,-4.3 1.32,-5.21 -1.76,-7.36 -3.49,2.2 -1.97,6.71 -2.21,14.75 -0.15,5.27 -0.14,10.73 -0.25,15.49l-0.53 31.62c-0.23,22.02 -1,42.69 -0.86,63.23 0.18,24.99 -1.25,41.66 -0.95,63.25l-1.29 94.85c0.64,11.91 -0.68,21.93 -0.57,31.61 0.23,21.74 -0.62,43.11 -0.92,63.24 -0.31,20.81 -0.29,41.13 -0.93,63.25 -0.33,11.26 -0.26,20.55 -0.4,31.61l-0.43 23.57c-0.27,4.08 -1.18,5.35 2.58,6.56zm11.12 0.21c1.71,-3.15 1.6,-57.77 1.61,-62.35 0.14,-62.15 2.4,-126.4 2.76,-189.09l1.89 -125.88c0.98,-37.45 0.24,-81.27 1.7,-117.79l-1.75 -7.32c-1.53,0.69 -1.61,1.38 -1.86,2.85l-7.1 484.91c-0.1,9.81 -1.88,13.38 2.75,14.67zm6.17 -48.51c2.35,0.85 10.43,1.24 12.67,0.55 5.57,-1.72 3.91,-8.2 3.9,-11.6 -0.01,-3.52 1.7,-9.61 -3.61,-11.72 -2.29,-0.92 -10.33,-0.52 -12.72,0.29l-0.24 22.48zm-24.12 0.05c0.73,-2.42 1.69,-20.29 0.22,-23.71 -12.56,1.48 -14.39,-3.51 -14.26,11.79 0.1,13.04 0.67,12.89 14.04,11.92zm90.08 33.67c5.67,4.79 15.13,-4.02 8.17,-10.04 -6.67,-5.78 -14.65,4.56 -8.17,10.04zm-18.25 -151.14c-0.58,1.93 -0.83,4.49 2.97,5.27 2.37,0.49 4.48,-1.34 4.83,-3.72 0.57,-3.82 -6.07,-7.32 -7.8,-1.55zm-158.88 190.97c-0.11,0.19 -0.2,0.37 -0.29,0.55 -0.09,0.18 -0.18,0.37 -0.26,0.55 -0.07,0.18 -0.15,0.35 -0.22,0.53 -0.06,0.18 -0.13,0.35 -0.18,0.53l0 0c-0.06,0.17 -0.11,0.35 -0.16,0.52 -0.05,0.17 -0.09,0.34 -0.13,0.51 -0.03,0.17 -0.06,0.34 -0.09,0.51 -0.03,0.16 -0.05,0.33 -0.07,0.49l0 0c-0.02,0.16 -0.03,0.33 -0.04,0.49l1.44 -4.68zm-1.45 5.15c0,-0.16 0.01,-0.31 0.01,-0.47 0,0.16 -0.01,0.31 -0.01,0.47z"/>
  </g>
 </g>
</svg>
