<!-- Generated by IcoMoon.io -->
<svg version="1.1" xmlns="http://www.w3.org/2000/svg" width="32" height="32" viewBox="0 0 32 32">
<title>hhm</title>
<path d="M16.313 12.645c-0.361 0.242-0.728 0.473-1.099 0.712l-0.819 0.525c-0.1 0.066-0.178 0.107-0.269 0.168l-6.284 4.034c-0.079 0.046-0.199 0.113-0.252 0.186 0.13 0.031 2.089 1.256 2.207 1.326 0.203 0.121 0.359 0.22 0.563 0.344l5.475 3.341c0.194 0.114 0.365 0.216 0.542 0.333l6.525-3.978c0.154-0.092 2.064-1.226 2.136-1.334l-2.189-1.406c-1.137-0.755-2.455-1.538-3.584-2.293l-0.801-0.512c-0.188-0.126-0.363-0.229-0.55-0.357l-0.552-0.356c-0.195-0.119-0.369-0.225-0.556-0.35-0.205-0.139-0.46-0.257-0.493-0.381h0.001zM12.622 2.612h1.358c0.481 0.010 0.955 0.037 1.313 0.112 1.607 0.336 0.553 0.518 1.656 0.149 0.189-0.063 0.358-0.105 0.57-0.149 0.259-0.054 0.721-0.093 1.23-0.112h1.3c0.343 0.015 0.641 0.042 0.836 0.085 0.296 0.066 0.324 0.127 0.523 0.258 0.391-0.187 1.494-0.344 2.095-0.344 0.952 0 2.151 0.247 2.903 0.817l0.447 0.365c0.031 0.026 0.036 0.031 0.064 0.061l0.189 0.218c1.4 1.595 1.275 4.337 1.275 6.414 0 1.405 0 2.812 0 4.219 0.156 0.104 0.943 0.624 1.063 0.655v5.907c-0.12 0.032-0.323 0.184-0.437 0.251l-4.9 3.008c-0.145 0.086-0.271 0.156-0.411 0.245l-2.458 1.511c-0.287 0.172-0.529 0.327-0.813 0.5l-3.88 2.372c-0.112 0.082-0.078 0.059-0.078 0.235-0.108-0.028-1.533-0.923-1.678-1.010-0.288-0.171-0.544-0.341-0.832-0.512l-2.096-1.281c-1.341-0.797-2.817-1.733-4.162-2.559l-2.076-1.27c-0.205-0.123-2.385-1.492-2.508-1.525v-5.969c0.103-0.069 0.212-0.135 0.326-0.206l0.987-0.606c0-0.631-0.041-5.913 0.013-6.269 0.028-0.182 0.008-0.328 0.018-0.513 0.016-0.301 0.146-1.090 0.206-1.357 0.368-1.66 1.2-2.891 2.847-3.436 0.806-0.268 1.556-0.278 2.388-0.238 0.163 0.007 0.38 0.044 0.555 0.072 0.438 0.067 0.636 0.161 0.977 0.242 0.168-0.249 0.759-0.344 1.188-0.344l0.002 0.003zM18.908 8.706c0 0.047 0.521 0.351 0.6 0.4l1.224 0.778c0.568 0.336 1.207 0.781 1.801 1.137 0.105 0.063 0.189 0.128 0.304 0.196 0.118 0.069 0.19 0.118 0.309 0.191 0.139 0.085 0.475 0.332 0.607 0.362 0-0.656 0-1.313 0-1.969 0-1.028 0.003-2.359-0.836-3.102-0.319-0.283-0.826-0.524-1.414-0.524l-0.563 0.032c-0.026 0.307-0.217 0.545-0.414 0.742-0.209 0.21-0.404 0.308-0.654 0.471-0.23 0.149-0.478 0.269-0.676 0.45-0.161 0.149-0.287 0.603-0.287 0.837l-0.001-0.001zM9.058 11.519c0.207-0.11 0.403-0.259 0.616-0.385 0.211-0.125 0.382-0.25 0.594-0.375l1.208-0.762c0.215-0.127 0.403-0.26 0.614-0.386l1.497-0.942c0.101-0.065 0.193-0.119 0.286-0.182-0.028-0.122-0.082-0.32-0.127-0.434-0.194-0.5-1.791-0.861-1.873-1.846-0.158 0-0.17-0.032-0.344-0.032-0.659 0-1.125 0.096-1.617 0.509-1.109 0.932-0.853 3.349-0.853 4.836h-0.001z"></path>
<path d="M1.242 21.801h1.345c0-2.615-0.125-5.385-0.125-8.001h-1.063l-0.031 0.969c0 0.168 0.001 0.335 0.001 0.501-0.001 0.202-0.034 0.279-0.033 0.5 0.002 0.333 0.001 0.667 0.001 0.999 0 0.375-0.031 0.653-0.031 1 0.003 1.351-0.062 2.681-0.062 4.031h-0.002z"></path>
<path d="M29.977 22.458h1.033c0-0.196 0.031-0.243 0.031-0.437l-0.002-1.502c0.002-0.18 0.035-0.235 0.035-0.435l-0.002-1.002c-0.002-0.207 0.033-0.269 0.034-0.466l-0.002-1.471c0.002-0.184 0.034-0.257 0.033-0.467-0.004-0.681 0.031-1.288 0.031-1.939h-1.314c0 1.882 0.094 3.89 0.094 5.782 0 0.352 0.033 0.614 0.032 0.938-0.002 0.334-0.002 0.667-0.002 1h-0.001z"></path>
<path d="M0.648 11.331v0.187c0 0.616 0.869 1.096 1.477 0.539 0.569-0.52 0.122-1.477-0.509-1.477-0.307 0-0.484 0.011-0.712 0.226-0.112 0.105-0.257 0.318-0.257 0.524h0.001z"></path>
<path d="M30.477 25.614c0.518 0 0.875-0.372 0.875-0.719v-0.188c0-0.38-0.349-0.75-0.875-0.75-1.050 0-1.050 1.657 0 1.657z"></path>
</svg>
