<?xml version="1.0" encoding="UTF-8"?>
<!DOCTYPE svg PUBLIC "-//W3C//DTD SVG 1.1//EN" "http://www.w3.org/Graphics/SVG/1.1/DTD/svg11.dtd">
<!-- Creator: CorelDRAW 2017 -->
<svg xmlns="http://www.w3.org/2000/svg" xml:space="preserve" width="7.3658mm" height="7.3658mm" version="1.1" style="shape-rendering:geometricPrecision; text-rendering:geometricPrecision; image-rendering:optimizeQuality; fill-rule:evenodd; clip-rule:evenodd"
viewBox="0 0 736.58 736.58"
 xmlns:xlink="http://www.w3.org/1999/xlink">
 <defs>
  <style type="text/css">
   <![CDATA[
    .fil0 {fill:none}
    .fil1 {fill:black}
   ]]>
  </style>
 </defs>
 <g id="Capa_x0020_1">
  <metadata id="CorelCorpID_0Corel-Layer"/>
  <rect class="fil0" x="-0" y="-0" width="736.59" height="736.59"/>
  <rect class="fil0" x="-0" y="-0" width="736.59" height="736.59"/>
  <rect class="fil0" x="-0" y="-0" width="736.59" height="736.59"/>
  <rect class="fil0" x="-0" y="-0" width="736.59" height="736.59"/>
  <path class="fil1" d="M496.36 279.29c-1.3,-6.52 -3.85,-12.82 -7.03,-17.79 -0.37,-0.58 -0.57,-1.02 -1,-1.55 -1.15,-1.35 0,-0.37 -1.2,-1.09 -1.9,-6.13 -14.4,-15.15 -18.91,-17.53 -7.64,-4.08 -16.15,-6.9 -26.84,-6.97 2.84,16.52 1.03,26.15 -0.18,43.64l-7.18 105.95c-0.62,8.78 -1.71,12.48 -4.08,19.2 4.29,1.52 15.86,0.14 20.98,-1.13 18.21,-4.47 33.29,-18.21 39.23,-34.84 3.89,-10.92 4.21,-24.26 4.88,-37.3 0.33,-5.81 3.18,-36.61 2.17,-39.32 0.96,-2.32 -0.4,-8.89 -0.84,-11.27zm-244.88 324.02l0 0zm-80.42 -158.59c-0.44,4.4 -0.11,8.64 0.8,14.7 9.55,63.73 -32.56,80.95 -70.76,100.22 -11.69,5.89 -27.47,12.55 -36.41,20.53 -13.46,12.02 -35.56,36.35 -14.16,53.33 35.17,27.88 103.83,-33.61 149.7,-35.9 29.72,-1.48 30.9,4.01 51.25,5.71 -0.24,-10.58 -15.56,-39.56 -6.43,-50.56 6.46,-7.78 110.34,-50.12 128.8,-50.53 10.03,14.98 12.86,37.65 17.08,55.53 7.21,30.49 4.81,36.28 7.11,64.06 12.32,0 11.95,-2.1 19.62,-10.27 3.61,-3.86 2.97,-3.94 5.56,-8.68 32.21,-59.15 82,-5.86 119.97,13.27 37.64,18.94 36.42,-8.43 70.34,-30.72l39.4 -18.96c11.15,-3.71 34.09,-8.78 48.88,-6.51 12.25,1.88 36.31,6.66 34.7,23.05 -1.54,15.58 -14.82,24.79 -31.15,25.94 -22.02,1.55 -33.6,1.01 -54.29,-1.22 -19.31,-2.09 -42.07,35.65 -69.94,44.94 -19.09,6.35 -32.1,3.58 -48.1,-2.16 -21.3,-7.65 -56.27,-40.03 -73.79,-41.49 -1.41,6.04 -7.4,15.52 -10.95,20.37 -5.19,7.11 -8.95,10.33 -15.86,15.46 -22.1,16.39 -30.08,9.73 -47.19,8.31 -2.65,9.93 -23.47,16.88 -32.69,17.15 -47.08,1.36 -48.69,-49.97 -10.53,-60.4 11.32,-3.09 10.15,-1.74 20.45,-0.89 -1.97,-23.66 -6.57,-46.21 -11.39,-66.91 -11.34,6 -23.77,9.82 -36.38,14.84l-34.76 15.05c3.19,6.68 6.89,19.65 8.88,28.12 3.8,16.17 -3.73,19.44 4.09,30.02 19.89,26.96 -10.9,59.31 -39.83,61.46l-6.03 0c-11,-0.87 -21.16,-6.63 -27.46,-19.36 -8.8,-17.79 4.23,-29.58 10.53,-39.01 -27.95,-2.33 -31.26,-7.21 -63.58,8.99 -34.52,17.32 -78.02,41.81 -118.29,29.17 -17.19,-5.41 -33.83,-20.13 -39.95,-36.9 -1.47,-3.99 -2.45,-7.87 -3.02,-11.61l0 -15.7c2.45,-15.78 12.05,-28.9 22.91,-39.31 0.22,-0.2 0.54,-0.47 0.74,-0.67 11.04,-10.23 22.3,-17.7 35.5,-25.72 16.68,-10.12 33.55,-16.09 49.87,-26.98 26.01,-17.35 17.68,-36.3 15.29,-59.19 -1.7,-0.73 -3.31,-1.55 -4.79,-2.46 -9.32,-5.67 -11.11,-11.29 -17.06,-23.16 -4.57,-9.14 -8.98,-18.88 -13.48,-28.33l-40.46 -85.12c-10.6,-22.3 0.56,-43.48 19.79,-50.09 11.49,-3.94 22.68,-0.92 29.81,3.61 8.74,5.55 11.52,11.19 17.06,23.13 8.77,18.93 18.23,37.83 26.99,56.74 8.7,18.77 17.72,38.03 27,56.77 7.05,14.23 4.48,28.42 -3.39,38.34zm307.37 -177.15c-3.57,2.44 -2.66,3.74 -2.94,8.31 -0.2,3.06 -0.9,17.98 -0.09,20.07 1.1,2.9 4.57,4.64 8.27,2.22 3,-1.98 2.43,-13.06 2.69,-18.58 0.14,-2.62 0.67,-7.46 -0.45,-9.95 -1.18,-2.64 -4.63,-4.02 -7.48,-2.07zm-57.87 -99.25c1.51,3.73 9.38,16.2 13.44,25.52 5.4,12.35 6.66,18 10.25,26.87 0.41,1.03 -0.12,-0.12 0.38,0.9 1.43,2.76 5.76,1.15 13.49,3.39 4.17,1.2 8.04,3.03 11.37,3.92 -1.76,-11.47 -9.58,-31 -14.05,-41.44 -2.66,-6.25 -5.84,-12.33 -8.9,-18.13 -3.18,-5.98 -7.21,-11.36 -9.97,-16.68 -3.28,1.7 -11.73,12.41 -16.01,15.65zm-405.45 138.01c3.64,-1.86 6.44,-4.25 10.43,-6.22 3.4,-1.7 8,-3.53 10.95,-5.49 -0.91,-11.93 -0.32,-33.82 1.82,-45.88 0.78,-4.47 2.15,-9.89 2.58,-14.01 -1.54,-1.3 -18.35,-8.32 -20.35,-8.36 -6.64,15.5 -7.74,61.12 -5.43,79.96zm168.5 -252.82c-65.43,17.49 -121.3,63.07 -151.01,116.52 -7.7,13.86 -10.49,19.25 -16.37,34.12 -3.28,8.28 -2.02,6.57 14.19,13.33l21.23 8.83c9.61,3.93 6.44,2.85 13.48,-12.92 29.26,-65.75 91.97,-113.8 170.59,-119.2 50.1,-3.43 93.91,13.7 123.32,33.33 14.99,10 27.69,21.57 39.8,35.19 6.68,7.51 2.69,8.87 27.54,-16.72 12.83,-13.23 14.28,-10.35 1.65,-23.46 -11.75,-12.21 -21.23,-20.21 -34.14,-29.97 -17.26,-13.02 -45.63,-27.68 -67.78,-34.8 -42.38,-13.61 -90.1,-18.28 -142.5,-4.25zm6.17 5.26c-6.4,1.66 -18.71,3.19 -18.58,9.89 0.08,4.52 3.66,6.43 7.81,5.35 3.86,-0.98 7.69,-2.33 11.67,-3.37 16.04,-4.19 33.28,-6.54 49.43,-7.29 53.2,-2.48 86.5,13.79 91.1,14.15 4.02,0.3 6.69,-2.74 6.22,-6.41 -0.69,-5.28 -9.19,-6.74 -16.06,-9.05 -38.63,-12.87 -90.55,-13.96 -131.59,-3.27zm193.79 156.28c-10.91,4.27 -16.33,11.3 -19.81,19.51 -2.99,7.08 -3.21,21.59 -3.74,30.25 -1.29,20.65 -2.33,42.07 -4.25,62.71 -0.96,10.32 -1.25,20.87 -2.08,31.36 -0.64,8.2 -2.57,24.05 -1,32.03 6.74,34.24 53.79,38.41 67.02,6.42 3.55,-8.6 2.88,-20.05 3.78,-30.16 1.83,-20.8 3.04,-41.9 4.27,-62.77 0.68,-11.94 4.84,-55.24 3.17,-63.62 -4.11,-20.68 -25.91,-34.14 -47.36,-25.73zm-268.72 243.15c-1.18,-2.1 -4.01,-4.72 -5.83,-7.29 -3.53,-4.93 -11.23,-22.18 -14.1,-28.14 -6.14,-12.78 -12.29,-25.53 -18.23,-38.43 -5.84,-12.73 -12.18,-25.15 -18.04,-37.94 -6.06,-13.25 -14.19,-25.99 -16.52,-41.25 -19.02,6.54 -35.71,21.42 -40.4,41.09 -6.16,25.89 5.23,42.26 15.54,64.29 10.27,21.88 16.55,39.79 34.42,49.97 7.66,4.36 17.24,7.94 28.88,7.9 15.55,-0.06 21.91,-5.07 34.28,-10.2zm-80.51 -115.82c0.11,0.11 0.24,0.24 0.3,0.33l0.81 1.19c0.66,1.21 0.08,0.05 0.65,1.7 1.64,2.63 2.37,5.49 4.75,6.59 3.58,1.68 7.15,-1.09 7.53,-3.76 0.44,-2.92 -9.75,-23.77 -11.85,-25.19 -2.61,-1.77 -6.2,-0.8 -7.73,1.7 -3.05,4.92 4.67,12.33 5.54,17.44zm47.56 -70.58c-8.98,5.36 12.37,20.38 21.21,15.45 9.07,-5.04 -12.19,-20.82 -21.21,-15.45zm321.27 -49.38c-7.95,5.21 9.27,26.55 16.84,21.37 7,-4.79 -9.16,-26.41 -16.84,-21.37zm-167.09 439.15c0.64,8.23 4.87,12.37 10.48,13.48l14.67 -2.18c10.87,-4.66 20.99,-15.06 20.17,-25.61 -0.48,-6.47 -4.7,-9.36 -10.39,-9.74l-11.28 1.68c-11.97,3.87 -24.32,13.55 -23.65,22.37zm96.02 -15.05c0.62,8.23 4.85,12.33 10.43,13.49l14.69 -2.2c10.87,-4.66 20.99,-15.03 20.16,-25.61 -0.47,-6.49 -4.71,-9.34 -10.35,-9.74l-11.32 1.69c-11.97,3.86 -24.28,13.59 -23.61,22.37z"/>
 </g>
</svg>
