<?xml version="1.0" encoding="UTF-8"?>
<!DOCTYPE svg PUBLIC "-//W3C//DTD SVG 1.1//EN" "http://www.w3.org/Graphics/SVG/1.1/DTD/svg11.dtd">
<!-- Creator: CorelDRAW 2017 -->
<svg xmlns="http://www.w3.org/2000/svg" xml:space="preserve" width="10.9218mm" height="7.3658mm" version="1.1" style="shape-rendering:geometricPrecision; text-rendering:geometricPrecision; image-rendering:optimizeQuality; fill-rule:evenodd; clip-rule:evenodd"
viewBox="0 0 1092.18 736.58"
 xmlns:xlink="http://www.w3.org/1999/xlink">
 <defs>
  <style type="text/css">
   <![CDATA[
    .fil0 {fill:none}
    .fil1 {fill:black}
   ]]>
  </style>
 </defs>
 <g id="Capa_x0020_1">
  <metadata id="CorelCorpID_0Corel-Layer"/>
  <rect class="fil0" x="177.79" y="-0" width="736.59" height="736.59"/>
  <rect class="fil0" x="177.79" y="-0" width="736.59" height="736.59"/>
  <rect class="fil0" x="177.79" y="-0" width="736.59" height="736.59"/>
  <rect class="fil0" x="177.79" y="-0" width="736.59" height="736.59"/>
  <path class="fil1" d="M459.18 358.21c-1.2,-6.01 -3.55,-11.81 -6.48,-16.39 -0.34,-0.54 -0.52,-0.95 -0.93,-1.43 -1.06,-1.25 0,-0.35 -1.1,-1.01 -1.75,-5.65 -13.28,-13.96 -17.43,-16.16 -7.04,-3.76 -14.89,-6.36 -24.74,-6.42 2.61,15.22 0.95,24.1 -0.17,40.23l-6.61 97.65c-0.58,8.09 -1.59,11.51 -3.77,17.7 3.96,1.4 14.63,0.13 19.34,-1.04 16.79,-4.12 30.69,-16.78 36.17,-32.11 3.58,-10.07 3.87,-22.36 4.49,-34.38 0.31,-5.36 2.93,-33.75 2.01,-36.25 0.87,-2.14 -0.38,-8.19 -0.78,-10.39zm301.09 -234.58c-13.37,0.26 -62.19,1.92 -67.41,14.2 30.5,4.34 64.37,2.06 93.74,17.35 -19.71,-1.95 -44.38,-13.82 -82.47,-11.28 15.47,7.98 55.93,15.57 66.3,32.24 -37.13,-13.88 -15.83,-17.06 -87.18,-29.97 -0.81,-5.72 -0.91,-5.55 -2.13,-10.39 19.33,-9.16 62.75,-22.09 79.15,-12.15zm-61.95 -12.63l-4.45 -14.22c-3.11,-5.49 1.25,-8.27 4.31,-12.63 28.01,-1.72 17.34,25.91 0.14,26.85zm-48.44 506.12c83.81,-137.77 429.83,45.44 414.3,-224.28 -6.98,-121.36 -88.04,-133.53 -171.57,-176.41 -52.57,-26.99 -47.1,-62.48 -62.23,-111.35 -24.92,-80.51 -46.67,-62.71 -74.5,-98.59 53.28,-34.6 87.93,170.05 158.62,199.81 93.64,39.45 167.34,56.88 175.52,184.86 7.23,113.3 -57.72,184.15 -168.76,191.07 -170.55,10.63 -135.38,-13.85 -241.87,49.06 0.96,2 1.4,4.27 1.15,6.86 -1.42,14.36 -13.66,22.86 -28.72,23.92 -20.29,1.42 -30.97,0.93 -50.04,-1.13 -17.79,-1.93 -38.77,32.86 -64.46,41.42 -17.6,5.86 -29.59,3.3 -44.34,-1.98 -19.63,-7.06 -51.86,-36.91 -68.02,-38.25 -1.3,5.57 -6.82,14.31 -10.09,18.78 -4.79,6.55 -8.25,9.52 -14.62,14.25 -20.37,15.11 -27.73,8.97 -43.5,7.66 -2.44,9.15 -21.63,15.56 -30.13,15.8 -43.39,1.26 -44.88,-46.06 -9.71,-55.67 10.44,-2.85 9.36,-1.61 18.85,-0.82 -1.81,-21.81 -6.05,-42.6 -10.49,-61.68 -10.46,5.53 -21.92,9.05 -33.54,13.69l-32.04 13.86c2.94,6.17 6.35,18.12 8.19,25.93 3.5,14.9 -3.44,17.92 3.76,27.67 18.34,24.85 -10.04,54.67 -36.71,56.65l-5.56 0c-10.13,-0.8 -19.5,-6.12 -25.31,-17.84 -8.11,-16.4 3.89,-27.27 9.71,-35.97 -25.77,-2.14 -28.81,-6.64 -58.61,8.29 -31.82,15.97 -71.92,38.55 -109.04,26.89 -15.85,-4.98 -31.18,-18.56 -36.83,-34.02 -1.35,-3.67 -2.25,-7.24 -2.77,-10.69l0 -14.48c2.25,-14.54 11.1,-26.64 21.11,-36.23 0.2,-0.18 0.5,-0.44 0.69,-0.62 10.17,-9.42 20.55,-16.32 32.71,-23.7 15.38,-9.34 30.93,-14.84 45.98,-24.88 23.97,-15.99 16.3,-33.45 14.09,-54.55 -1.57,-0.68 -3.05,-1.44 -4.41,-2.27 -8.6,-5.23 -10.25,-10.41 -15.74,-21.35 -4.2,-8.42 -8.27,-17.41 -12.42,-26.11l-37.3 -78.46c-9.76,-20.56 0.53,-40.09 18.25,-46.18 10.6,-3.63 20.91,-0.85 27.48,3.33 8.05,5.11 10.61,10.31 15.72,21.32 8.08,17.45 16.81,34.87 24.89,52.3 8.01,17.3 16.32,35.05 24.88,52.33 6.5,13.12 4.13,26.2 -3.13,35.34 -0.4,4.06 -0.1,7.96 0.74,13.55 8.81,58.74 -30.01,74.62 -65.22,92.38 -10.78,5.43 -25.32,11.57 -33.56,18.93 -12.41,11.07 -32.78,33.5 -13.05,49.15 32.41,25.7 95.7,-30.98 137.99,-33.08 27.38,-1.38 28.47,3.69 47.23,5.25 -0.22,-9.75 -14.34,-36.46 -5.92,-46.6 5.95,-7.17 101.7,-46.2 118.73,-46.58 9.24,13.81 11.84,34.7 15.74,51.19 6.64,28.11 4.43,33.45 6.55,59.05 11.35,0 11.02,-1.94 18.08,-9.47 3.33,-3.56 2.74,-3.63 5.13,-8 29.69,-54.52 75.58,-5.4 110.58,12.23 34.7,17.46 33.57,-7.77 64.84,-28.32l36.32 -17.48c10.28,-3.42 31.42,-8.09 45.05,-5.99l1.33 0.21zm94.04 -229.84c-16.67,-41.16 -77.94,-106.75 -23.26,-145.05 -14.54,34.5 -18.72,42.09 4.01,76.52 38.33,58.08 56.9,85.26 33.1,154.52 -12.82,37.32 -40.63,30.81 -13.2,65.68 -16.24,-2.77 -24.3,-15.15 -17.69,-30.83 6.65,-15.76 18.06,-0.81 23.63,-30.02 6.8,-35.55 7.14,-56.96 -6.59,-90.82zm-19.49 -150.76c4.9,-21.37 7.53,-43 -11.93,-57.19 -8.49,-6.2 -16.7,-7.45 -25.76,-11.51 -12.41,-5.56 -13.36,-11.66 -21.09,-17.12 -15.94,2.61 -21.2,9.91 -32.9,14.49 5.54,-5.23 29.7,-18.89 30.62,-20.62l-17.15 0c7.11,-6.39 7.6,-1.63 14.01,-5.94 -7.93,-4.12 -14.63,-3.15 -23.61,-3.09 8.61,-6.02 15.52,-2.29 25.47,-2.5 5.98,-15.98 12.86,-33.28 18.57,-49.93 6.17,-18 15.78,-30.15 35.42,-33.42 -16.14,16.73 -19.76,3.27 -29.62,46 -4.58,19.87 -22.22,36.82 -5.67,56.46 13.38,15.86 32.61,12.04 46.43,29.34 11.88,14.87 14.55,45.72 -2.79,55.03zm164.76 288.58c55.87,-3.95 85.73,-17.24 100.97,-18.64 -7.6,21.93 -72.19,28.59 -92.15,29.63 -48.56,2.53 -70.07,-3.93 -115.78,4.88 17.77,-16.15 81.67,-14.09 106.96,-15.87zm-116.63 1.75c24.67,-36.08 37.48,-64.61 38.55,-110.35 0.36,-15.43 -2.71,-31.89 -1.61,-46.26 37.24,67.29 -2.54,150.26 -36.94,156.61zm212.85 -118.76c-28.49,1.48 -48.6,-12.76 -95.22,22.46 -6.16,4.65 -17.53,17.92 -20.5,19.65 0.99,-20.82 20.31,-46.7 39.94,-53.79 17.51,-6.32 64.46,-4.02 75.78,11.68zm-201.7 -348.36c-5.27,-6.09 -10.71,-24.11 -19.31,-34.99 -8.13,-10.29 -24.23,-20.21 -28.53,-26.39 32.07,3.37 50.29,29.96 47.84,61.38zm-59.5 -11.68c4.5,-7.17 9.66,-8.48 10.86,-18.82 1.3,-11.2 -2.81,-16.4 -5.67,-25.91 22.18,8.13 17.48,40.54 -5.19,44.73zm-490.76 608.83l0 0zm209.2 -309.47c-3.29,2.25 -2.45,3.45 -2.71,7.66 -0.19,2.82 -0.83,16.57 -0.09,18.5 1.02,2.67 4.22,4.27 7.63,2.04 2.77,-1.82 2.24,-12.03 2.48,-17.12 0.13,-2.41 0.62,-6.88 -0.42,-9.17 -1.08,-2.44 -4.27,-3.71 -6.89,-1.91zm-53.34 -91.49c1.39,3.44 8.64,14.94 12.39,23.52 4.97,11.39 6.13,16.6 9.44,24.78 0.38,0.95 -0.11,-0.11 0.36,0.82 1.31,2.55 5.31,1.06 12.43,3.13 3.84,1.1 7.41,2.79 10.48,3.62 -1.62,-10.58 -8.84,-28.58 -12.95,-38.21 -2.45,-5.76 -5.38,-11.36 -8.21,-16.71 -2.92,-5.51 -6.64,-10.47 -9.18,-15.37 -3.03,1.56 -10.82,11.43 -14.76,14.42zm-373.74 127.21c3.36,-1.71 5.95,-3.91 9.62,-5.73 3.14,-1.56 7.38,-3.25 10.09,-5.06 -0.84,-10.99 -0.29,-31.17 1.68,-42.29 0.72,-4.12 1.98,-9.11 2.38,-12.92 -1.42,-1.19 -16.92,-7.66 -18.76,-7.7 -6.12,14.29 -7.14,56.34 -5.01,73.7zm155.33 -233.04c-60.32,16.13 -111.81,58.14 -139.2,107.41 -7.1,12.77 -9.67,17.75 -15.09,31.45 -3.03,7.63 -1.87,6.05 13.08,12.29l19.57 8.13c8.86,3.63 5.93,2.64 12.42,-11.9 26.97,-60.61 84.78,-104.9 157.24,-109.88 46.19,-3.16 86.57,12.63 113.68,30.73 13.82,9.21 25.52,19.88 36.69,32.43 6.15,6.93 2.48,8.18 25.38,-15.41 11.83,-12.2 13.16,-9.54 1.52,-21.62 -10.83,-11.26 -19.57,-18.63 -31.47,-27.63 -15.91,-12 -42.06,-25.51 -62.47,-32.08 -39.07,-12.55 -83.05,-16.85 -131.35,-3.92zm5.68 4.85c-5.89,1.53 -17.25,2.94 -17.13,9.12 0.08,4.17 3.37,5.92 7.2,4.93 3.56,-0.91 7.09,-2.15 10.76,-3.11 14.79,-3.86 30.68,-6.02 45.56,-6.72 49.04,-2.28 79.74,12.72 83.98,13.05 3.7,0.27 6.17,-2.53 5.73,-5.91 -0.63,-4.87 -8.47,-6.22 -14.8,-8.35 -35.61,-11.86 -83.47,-12.86 -121.3,-3.01zm178.63 144.06c-10.05,3.94 -15.05,10.41 -18.26,17.98 -2.75,6.53 -2.95,19.9 -3.45,27.89 -1.19,19.03 -2.15,38.78 -3.91,57.8 -0.89,9.52 -1.16,19.23 -1.92,28.9 -0.59,7.56 -2.37,22.17 -0.92,29.53 6.21,31.56 49.58,35.41 61.77,5.92 3.28,-7.93 2.66,-18.48 3.49,-27.8 1.69,-19.17 2.8,-38.63 3.94,-57.86 0.62,-11.01 4.46,-50.92 2.91,-58.64 -3.78,-19.07 -23.87,-31.47 -43.65,-23.72zm-247.7 224.13c-1.09,-1.94 -3.69,-4.36 -5.37,-6.72 -3.25,-4.55 -10.35,-20.45 -13,-25.94 -5.65,-11.78 -11.32,-23.54 -16.8,-35.43 -5.38,-11.73 -11.23,-23.18 -16.63,-34.97 -5.59,-12.21 -13.08,-23.95 -15.23,-38.02 -17.53,6.03 -32.91,19.74 -37.24,37.88 -5.67,23.86 4.82,38.95 14.33,59.25 9.46,20.18 15.25,36.69 31.73,46.07 7.05,4.02 15.88,7.32 26.62,7.28 14.33,-0.05 20.19,-4.68 31.59,-9.4zm-74.21 -106.77c0.1,0.1 0.22,0.23 0.27,0.31l0.75 1.1c0.62,1.12 0.08,0.05 0.61,1.56 1.5,2.43 2.18,5.07 4.38,6.08 3.3,1.55 6.59,-1 6.93,-3.47 0.41,-2.69 -8.98,-21.9 -10.92,-23.22 -2.4,-1.63 -5.71,-0.73 -7.12,1.57 -2.82,4.54 4.3,11.37 5.1,16.07zm43.84 -65.06c-8.28,4.95 11.4,18.79 19.56,14.25 8.35,-4.65 -11.25,-19.19 -19.56,-14.25zm296.14 -45.51c-7.33,4.81 8.54,24.47 15.52,19.7 6.45,-4.42 -8.44,-24.34 -15.52,-19.7zm-154.02 404.8c0.59,7.59 4.49,11.4 9.66,12.42l13.53 -2.01c10.01,-4.3 19.34,-13.88 18.58,-23.6 -0.44,-5.96 -4.32,-8.63 -9.57,-8.98l-10.4 1.55c-11.04,3.56 -22.42,12.49 -21.8,20.62zm88.51 -13.88c0.57,7.59 4.47,11.37 9.61,12.44l13.54 -2.03c10.02,-4.29 19.35,-13.85 18.59,-23.61 -0.44,-5.98 -4.34,-8.6 -9.54,-8.98l-10.43 1.57c-11.04,3.55 -22.39,12.52 -21.77,20.61z"/>
 </g>
</svg>
