<?xml version="1.0" encoding="UTF-8"?>
<!DOCTYPE svg PUBLIC "-//W3C//DTD SVG 1.1//EN" "http://www.w3.org/Graphics/SVG/1.1/DTD/svg11.dtd">
<!-- Creator: CorelDRAW 2017 -->
<svg xmlns="http://www.w3.org/2000/svg" xml:space="preserve" width="36.9992mm" height="36.9992mm" version="1.1" style="shape-rendering:geometricPrecision; text-rendering:geometricPrecision; image-rendering:optimizeQuality; fill-rule:evenodd; clip-rule:evenodd"
viewBox="0 0 3699.92 3699.92"
 xmlns:xlink="http://www.w3.org/1999/xlink">
 <defs>
  <style type="text/css">
   <![CDATA[
    .str0 {stroke:#FEFEFE;stroke-width:20;stroke-miterlimit:22.9256}
    .fil0 {fill:#FEFEFE}
    .fil1 {fill:black}
   ]]>
  </style>
 </defs>
 <g id="Capa_x0020_1">
  <metadata id="CorelCorpID_0Corel-Layer"/>
  <rect class="fil0 str0" x="-0" y="-0.01" width="3699.93" height="3699.94"/>
  <g id="_2026964317456">
   <path class="fil1" d="M560.18 2337.59c7.4,-5.15 20.76,-3.4 40.8,-17.9 43.79,-31.68 38.31,-94.55 12.47,-128.72 -18.61,-24.6 -45.63,-32.4 -62.89,-58.43 -22.79,-34.37 -19.75,-54.23 -14.23,-98.31 -26.79,52.32 -40.79,102.18 -26.77,165.98 4.15,18.85 14.16,36.87 6.9,55.19 -21.05,4.98 -36.8,-27.54 -37.85,-55.43 -35.82,34.39 -10.07,121.07 25.96,126.77 -21.95,-5.3 -43.64,-27.37 -54.21,-44.57 -40.87,-66.5 -19.94,-195.93 14.41,-242.04 -4.94,27.71 -8.7,50.76 10.46,77.77 5.01,7.07 1.51,4.31 8.44,8.36 -0.86,-51.88 -0.99,-82.53 13.57,-130.48 9.83,-32.37 30.23,-75.78 48.74,-96.45 0.01,53.63 -6.08,80.89 26.94,136.7 5.53,9.35 11.38,17.53 17.44,25.26 11.32,14.45 25.1,25.01 35.93,49.41 3.16,7.12 9.39,26.09 12.06,30.05 11.08,-8.07 13.35,-17.66 13.95,-35.37 16.99,28.19 19.09,103.32 10.67,138.99 -8.91,37.7 -43.12,78.17 -77.27,85.77 4.95,5.27 2.51,1.78 7.7,2.56 47.89,-16.08 82.58,-23.61 117.08,-72.05 28.17,-39.56 41.77,-96.76 28.43,-154.99 -5.69,7.19 -8.46,21.02 -11.77,30.26 -1.94,5.42 -3.66,10.02 -5.46,14.64 -5.19,13.36 -5.58,11.37 -10.41,14.08 -0.62,-31.04 2.84,-52.31 -4.58,-82.82 -4.29,-17.62 -18.09,-49.42 -27.88,-59.05 -1.02,17.5 6.78,44.36 -4.37,55.92 -16.97,8.4 -44.16,-31.28 -52.04,-42.68 -29.69,-42.94 -47.44,-101.88 -41.06,-156.7 4.28,-36.74 15.47,-49.97 24.17,-78.37 -53.78,15.22 -102.78,51.84 -126.3,86.94 -39.56,59.06 -35.12,151.34 -51.31,160.1 -16.39,5 -26.78,-21.48 -29.85,-39.47 -11.92,17.73 -16.47,56.46 -18.78,81.18 -3.28,35.19 0.44,61.29 4.22,95.23 -19.03,-5.34 -22.79,-18.81 -31.23,-26.88 6.35,90.61 47.43,139.51 123.16,166.47 11.93,4.25 24.91,7.62 37.59,9.6 15.2,2.38 32.1,0.88 47.17,3.48zm1108.02 -1952.24c-12.85,-1.69 -18.2,-3.85 -31.49,-2.23 -31.44,3.85 -9.85,2.01 -18.7,7.95l24.86 14.07c3.97,1 18.61,2.11 21.71,2.39l3.62 -22.18zm-566.21 -14.84l10.48 17.91c4.99,8.54 2.35,6.11 9.15,15.28 22.76,0.33 42.37,4.08 61.85,-5.05l2.61 -81.07 -85.55 -2.18c1.11,23.4 6.07,34.98 1.46,55.11zm1342.42 518.29c3.02,-48.03 7.56,-63.97 -1.73,-108.32 -5.76,-27.48 4.83,-50.4 -1.36,-90.9 -8.87,-58.03 3.4,-43.24 1.81,-93.43l10.23 -265.8c4.02,-36.59 49.34,-56.59 -34.14,-57.47 -18.75,-0.2 -39.1,-4.83 -47.1,-4.43 -25.99,1.29 -66.76,5.84 -104.37,5.78 -95.89,-0.23 -78.66,-6.97 -114.65,32.45 -16.44,18.01 -31.72,16.47 -52.49,35.88 25.79,19.72 8.52,-4.71 22.86,23.47l20.67 46.92c6.04,16.1 0.19,1.66 5.47,11.91 26.05,50.63 6.04,30.99 -6.89,66.34 -7.36,20.15 -3.79,24.38 -5.27,44.17 -2.03,26.97 -5.07,56.52 -3.79,92.2 4.44,122.98 -28.76,155.89 25.03,155.49 -0.11,-33.73 -6.8,-278.42 5.82,-313.48 16.71,-46.42 -8.02,6.53 -5.34,-117.09l53.95 0.16c24.2,4.81 10.99,1.7 20.51,8.1 -1.04,36.86 4.15,21.76 -22.14,36.39 19.81,45.16 23.04,27.79 22.5,60.64l0.79 193.01 43.02 -298.25c52.91,-4.44 35.65,-11.17 55.5,112.15l17.06 114.97 11.49 -90.94c4.54,-54.1 10.09,-5.14 4.14,-102.15l-2.9 -33.65c31.35,-4.26 27.59,-0.28 52.55,6.64 25.98,7.2 -7.68,-4.34 8.05,1.19l0.81 461.25c-29.87,1.83 -64.91,7.66 -91.47,-2.69l-41.03 -280.15c-11.45,20.62 -36.07,243.27 -37.31,283.48l-59.71 1.79c-31.5,-0.02 -38.74,-6.63 -38.77,-6.44 -23.86,10.05 -11.84,-2.79 -12.07,27.52 -0.09,12.18 -1.3,19.3 0.03,32.94 45.5,16.23 242.11,13.16 300.24,10.35zm-1165.49 -102.12c0.9,-13.3 5.24,-39.87 5.38,-45.42 0.17,-6.89 0.24,11.27 -0.84,-11.74l14.98 -240.16c3.5,-45.68 -5.6,-70.38 42.44,-68.7 21.58,55.96 14.84,242.21 -0.96,309.88 -8.83,37.82 -16.76,58.59 -61,56.14zm-72.85 -401.64c-3.83,65.31 -11.17,-1.74 -5.98,84.15 2.05,34.16 -1.88,78.37 -4.6,110.95 -5.77,69.13 -11.22,143.22 -13.59,213.4l-1.17 72.14c97.62,3.59 204.68,31.84 250.17,-97.84 3.32,-9.44 20.01,-299.74 22.53,-340.38 -16.34,-10.85 11.26,-0.86 -4.25,-0.35l-5.36 0.35c-0.11,-23.78 0.51,-33.99 -33.56,-64.33 -24.32,-21.67 -33.32,-16.64 -57.14,-44.86l-31.35 0.08c-5.05,-1.31 -90.81,0 -113.2,2.78l-2.5 63.91zm-919.01 50.27c42.32,-1.7 58.04,8.81 57.26,52.78 -0.8,45.32 -13.84,52.62 -57.92,52.3l0.66 -105.08zm-147.81 397.76l148.47 -0.29 -0.96 -185.13c55.73,-6.14 90.51,0.98 138.33,-25.37 36.91,-20.33 54.9,-48.59 66.5,-96.12 20.02,-82.1 -13.45,-162.89 -89.39,-191.63l-26.41 -12.38 -235.07 9.11c-7.65,84.73 13.19,463.97 -1.47,501.81zm705.9 -290.53l1.51 99.78 -53.05 -3.8c-1.06,-25.42 6.69,-33.42 10.18,-53.78 3.69,-21.55 9.69,-38.72 7.88,-58.27 5.93,-21.67 5.52,-17.25 8.66,-41.32 1.8,-13.84 3.86,-19.31 4.45,-39.47l18.33 21.09c28.5,43.53 4.47,-3.09 27.77,29.02 -4.06,17.65 -10.41,36.89 -25.73,46.75zm-162.24 1.85l-54.7 156.12c1.17,38.88 -23.93,72.42 -25.67,112.62l76.42 7.97c16.58,0.66 26.92,2.93 41.49,4.05 13.22,1.02 11.54,10.28 24.78,-9.26 7.57,-11.17 14.65,-47.26 16.79,-64.12l91.76 4.67c14.28,64.79 -20.92,92.28 152.62,84.53 8.6,-29.83 -62.25,-436.87 -73.3,-507.07 -56.31,2.54 -115.66,-16.36 -177.45,-10.45l-72.74 220.94zm2120.37 -24.99c20.46,28.28 22.08,9.03 25.48,47.01 2.14,23.86 3.84,49.59 4.66,75.74l-54.4 -4.14 24.26 -118.61zm-95.99 307.15c16.99,-1.39 9.76,1.6 22.51,-4.04l21.3 -70.33 89.92 4.71 10.41 72.88 145.2 14.14 -75.95 -504.3c-36.71,-9.32 -71.43,-5.86 -89.32,-17.19l-90.9 0.71c-17.69,74.66 -54.35,166.72 -78.87,243.42 -13.29,41.57 -72.6,212.3 -71.48,247.34l117.18 12.66zm-918.86 -304.72l26.02 16.54 5.61 103.77 -54.04 -4.55 22.41 -115.76zm-116.21 -24.96c-16.85,50.91 -95.24,279.04 -94.35,315.94 44.3,4.75 113.91,18.72 142.02,10.06l16.83 -71.39 90.9 6.97c2.12,12.06 6.36,65.17 15.63,71.81 1.87,1.34 143.79,24.77 139.55,3.47l-51.45 -346.61 -23.35 -147.89c-36.71,-11 -140.22,-18.53 -179.5,-15.3l-56.28 172.94zm1510.3 -143.58l53.78 3.75c40.59,72.6 20.24,145.66 59.41,161.6l8.64 -161.77 63.36 7.9 -15.68 347.19 -54.07 -5.03c-11.46,-28.32 -27.64,-143.64 -52.26,-156.66 -16.27,41.78 -2.6,107.94 -13.75,149.88 -26.18,5.46 -38.56,2.76 -65.88,-2.4l16.45 -344.46zm-26.34 111.38c5.96,28.57 1.49,70.86 -1.79,108.21 -1.8,20.48 -6.09,94.85 -15.29,109.48 8.45,41.64 -6.5,87.82 -6.9,131.51l145.09 13.38c188.23,15.09 252.09,61.85 256.39,-17.93 1.02,-18.93 1.81,-40.93 -4.59,-52.1 -8.52,37.52 6.65,30.29 -18.19,34.75 -13.84,-40.59 7.32,-37.65 20.06,-61.3 -0.45,-69.94 -12.45,-122.74 -4.49,-189.97 0.81,-6.9 1.8,-14.89 1.18,-21.73 -2.67,-29.44 -0.82,-5.07 -4.85,-18.16 -5.69,-18.45 -5.4,-20.91 -6.62,-42.85 -1.75,-31.54 -9.54,-58.02 -9.98,-89.54 35.95,0.06 18.47,1.91 41.08,18.55l13.68 -22.53 -5.61 -17.04c-106.87,-21.83 -297.94,-49.3 -411.19,-52.51l12.02 169.78zm-525.87 -81.37c1.27,1.57 3.98,8.56 5.01,9.92 3.45,4.55 36.08,35.85 41.48,-2.15l-9.37 -5.63c-26.6,-8.58 12.78,-1.14 -37.12,-2.14zm-1986.7 1.54c4.7,12.48 9.67,18.79 24.11,20.25 28.2,2.87 13.42,2.04 26.41,-10.8 -11.17,-10.07 20.77,-12.84 -50.52,-9.45zm657.46 956.19l0 327.11c3.32,6.53 -2.92,29.83 4.89,45.03 2.89,5.62 6.59,9.41 12.58,12.53 6.14,3.19 16.81,3.87 19.9,5.77l1263.38 0c5.6,-4.2 20.01,-5.94 26.38,-21.92 1.65,-4.12 1.98,-10.4 3.53,-13.2l0 -43.65c-1.96,-4.37 -0.58,-278.04 -0.58,-308.21 0,-24.67 -3.69,-44.38 -28.87,-48.48 -4.89,-0.8 -20.58,-0.56 -23.26,-1.78l-1227.85 0c-6.4,2.86 -24.3,-3.46 -38.46,9.95 -4.3,4.07 -7.02,7.83 -9.03,15.22 -1.18,4.36 -2.01,20.24 -2.61,21.63zm466.72 12.67l-0.02 0.84 -0.62 58.94 389.76 0 0.15 -101.23 -389.55 0 0.28 41.45zm-387.17 59.78l245.48 -0.16c0.83,-29.67 0.14,-69.54 -0.02,-100.41 -82.33,-0.72 -163.24,0.21 -245.46,-0.59l0 101.16zm908.92 -30.46l0.35 29.99c81.14,1.17 162.13,0.48 243.29,0.47 0.97,-23.24 0.51,-46.58 -0.13,-69.83 -0.2,-7.21 1.69,-25.33 0.46,-30.59 -60.64,-0.95 -119.45,-0.18 -179.81,-0.39 -9.55,-0.03 -59.06,-1.38 -64.06,0.21l-0.1 70.14zm58.97 239c-1.99,-7.31 -1.13,-136.51 -0.85,-154.4 0.39,-24.78 2.58,-29.79 -23.93,-27.39 -0.89,7.48 0.47,68.63 0.57,81.84 0.13,17.43 1.54,66.33 -2.13,80.44 -1.05,1.6 -7.14,2.14 -8.91,2.33 -1.93,18.87 -1.38,56.99 -0.21,78.02 0.33,5.72 -0.43,8.9 4.78,10.77 6.78,2.42 21.18,2.78 27.38,-0.69 2.61,-6.42 2.8,-21.5 3.02,-29.33 0.93,9.44 0.06,21.22 3.3,29.84 6.25,1.77 21.89,3.2 27.5,0.55 4.7,-2.23 6.47,-17.53 5.96,-24.25 0.18,6.1 -0.78,16.87 2.24,21.43 4.67,4.72 19.16,6.04 26.55,3.25 9.29,-3.51 6.41,-16.14 6.41,-25.78 0,-13.15 2.08,-54.83 -0.9,-63.89l-9.14 -1.54c-3.14,-23.18 -1.61,-57.16 -1.55,-81.15 0.07,-26.81 1.39,-55.47 0.31,-82.01l-11.71 -0.12c0.06,25.49 2.86,148.19 -1.6,163.31l-9.88 1.82c-1.69,18.55 -0.96,36.99 -1.38,55.98 -1.38,-18.17 1.25,-37.44 -0.86,-55.75l-6.61 -1.59c-2.32,-0.81 -0.81,-0.05 -2.44,-1.23 -3.86,-15.58 -1.3,-60.81 -1.18,-79.58 0.08,-13.67 -0.1,-27.37 -0.15,-41.04 -0.04,-12.45 1.02,-29.22 -0.01,-41.04 -5.48,-2.46 -17.32,-2.58 -21.08,1.65 -4.32,4.84 -3.08,15.73 -3.04,22.64 0.08,17.31 0.04,34.62 0.05,51.93 0.02,35.02 0.17,69.96 -0.51,104.98zm-943.37 -15.95c-1.74,9.65 -0.71,57.65 -0.66,70.96 0.05,15.3 1.33,18.48 17.17,18.28 4.86,-0.07 11.81,0.04 14.53,-2.92 3.17,-3.46 1.93,-10.07 3.9,-13.99 2.52,6.33 -3.75,18.43 18.16,16.85 15.71,-1.14 17.93,-3.09 17.93,-19.06 0.01,-12.05 -0.65,-23.88 -0.61,-36.02 0.03,-11.59 1.84,-23.66 -0.58,-34.97 -15.15,-3.15 -11.14,-3.92 -10.58,-32.04 0.37,-19.21 0.84,-128.18 -0.53,-132.67 -19.43,-0.49 -23.27,-3.03 -23.31,18.75 -0.03,10.24 1.78,33.84 -0.35,42 -3.28,-6.56 -0.65,-31.83 -0.87,-41.16 -0.47,-19.87 -1.28,-21.45 -22.71,-19.91 -2.15,9.79 -0.49,73.12 -0.27,87.73 0.26,17.54 0.77,48.85 -0.67,66.22 -1.02,12.25 -1.94,7.62 -10.55,11.95zm797.19 64.71c0.78,1.37 -0.07,-1.28 0.8,1.83 1.17,4.27 0.07,16.51 3.41,20.03 4.37,4.22 20.82,4.14 26.87,1.45 6.19,-2.75 5.97,-18.67 5.75,-26.28 -0.62,-20.7 0.72,-42.75 -1.01,-62.87 -13.78,-1.66 -10.64,-5.89 -10.51,-33.46 0.07,-14.8 0.3,-29.59 0.4,-44.39 0.22,-29.03 0.27,-58.12 -0.64,-87.09 -23.37,-1.05 -23.19,-1.06 -23.74,21.77 -1.08,45.31 0.68,90.05 -0.34,133.82 -2.93,-22.75 -1.02,-101.46 -1.06,-133.83 -0.01,-6.14 1.08,-16.6 -3.19,-19.56 -3.26,-2.26 -15.52,-2.48 -19.89,-1.72 -4.03,24.11 3.2,152.6 -1.48,161.06 -3.25,5.88 -9.16,-1.45 -9.77,10.1 -1.08,20.62 1.12,42.61 0.09,61.2 -0.95,17.03 -0.98,22.64 17.35,22.48 16.15,-0.14 16.26,-2.37 16.96,-24.54zm48.88 -210.7l0.28 129.83c0.25,19.54 -2.77,10.2 -10.89,15.92 -2.31,14.66 -0.56,37.87 -0.57,53.6 -0.01,7.52 -1.36,27.57 2.39,32.57 3.92,5.22 24.65,5.33 29.84,0.69 2.34,-2.97 4.74,-29.28 2.89,-32.67 0.59,7.85 0.75,27.45 3.85,33.09 2.92,2.9 19.22,3.19 26.8,0.49 3.88,-1.38 4.3,-1.88 4.9,-6.02 2.81,-19.58 1.01,-61.72 0.43,-82.53l-10.02 -1.98c-5.01,-19.49 -1.7,-152.05 -1.59,-163.03l-11.85 -0.05c0.15,20.59 2.55,157.74 -1.49,162.65 -1.2,1.44 -7.06,1.98 -9.44,2.44l-1.48 14.77 -0.53 -14.51 -9.73 -2.15c-4.33,-27.24 -1.41,-144.33 -1.19,-163.11l-12.45 -0.18 -0.15 20.18zm206.12 25.97l-0.13 119.27c2.5,11.55 -0.84,71.64 2.41,86.4 8.6,4.06 30.64,9.37 33.28,-5.29 0.69,-3.86 0.04,-9.31 0.31,-11.11 0.71,-4.61 0.08,-1.97 1.45,-3.48 1.3,-4.54 1.35,-57.04 0.07,-61.38 -2.39,-2.61 -0.95,-1.45 -2.18,-5.22 -10.84,-3.24 -12.11,0.15 -10.56,-32.92 0.69,-14.79 -0.03,-29.59 -0.16,-44.39 -0.25,-29.2 -0.11,-58.57 -0.14,-87.78 -12.23,-1.33 -22.75,-2.58 -23.47,10.7 -0.6,11.02 -1.08,24.25 -0.88,35.2zm-836.87 120.25c-3.44,-2.78 -6.36,-2.16 -9.07,-4.31 -4.01,-4.76 0.34,-142.82 -1.14,-157.91 -0.54,-5.59 -6.18,-5.01 -13.53,-3.95 -12.22,1.77 -11.41,11.5 -11.41,24.14l0.55 212.77c0.04,16.34 0.8,17.85 17.52,17.88 16.47,0.02 17.5,-1.82 17.51,-17.89 0,-21.56 1.72,-49.98 -0.43,-70.73zm438.62 -0.47c-3.91,13.04 -1.61,47.42 -1.27,61.14 0.19,8.09 -1.41,23.53 5.49,26.62 8.01,3.57 19.47,1.8 27.29,-0.74 2.51,-21.88 1.34,-44.85 2.65,-66.92 1.38,-23.28 -0.16,-46.26 -0.34,-69.52 -0.18,-22.79 1.3,-46.4 -0.12,-69.02 -1.27,-20.14 3.48,-44.48 -6.33,-46.48 -1.87,-0.39 -15.22,-0.43 -17.18,-0.18 -2.06,42.51 -0.12,105.95 -0.2,152.55 -0.02,11.94 -1.63,8.42 -9.99,12.55zm70.09 -0.07c-11.21,-4.57 -9.93,1.47 -10.51,-33.42 -0.36,-22.14 1.38,-120.93 -0.08,-131.72 -5.15,-1.89 -18.5,-0.74 -21.35,2.5 -3.88,4.41 -2.25,16.05 -2.23,22.82l-0.53 153.29c-0.04,9.16 -1.77,65.14 2.66,71.53 2.59,3.76 16.02,4.98 21.18,4.63 9.49,-0.65 11.02,-4.85 11.19,-14.16 0.15,-8.44 -0.07,-17.09 0.3,-25.3 0.72,-15.85 0.91,-34.47 -0.63,-50.17zm-568.76 -165.26l0.06 152.79c0,10.25 -0.82,10.4 -10.08,12.26 -0.41,20.12 0.04,40.43 -0.07,60.59 -0.05,8.1 -2.34,22.31 3.58,26.85 4.69,3.59 22.61,2.49 27.82,0.1 5.94,-10.64 2.54,-51.42 2.57,-66.32l1.01 -140.73c0.08,-9.92 -0.92,-23.46 -1.59,-34.17 -0.72,-11.66 1.12,-11.76 -23.3,-11.37zm255.02 -0.23c-1.46,9.25 -0.63,25.74 -0.64,35.73 -0.03,21.39 1.38,116.04 -1.2,124.8 -2.2,7.49 -8.9,-1.63 -9.8,8.4l0 72.84c0.48,12.85 6.9,15.05 23.77,12.3 12.88,-2.1 12.71,-11.46 11.86,-24.02 -1.9,-28.19 -0.57,-78.16 -0.57,-108.05 0,-24.29 0,-48.58 0,-72.87 0,-38.89 6.1,-52.56 -23.42,-49.13zm641.77 165.05l0.13 -119.27c-1.24,-10.72 -0.41,-23.99 -1.01,-35.22 -0.78,-14.74 -10.72,-11.51 -23.15,-10.69 -1.26,11.31 -0.08,28.9 0,40.88 0.16,23.85 1.76,109.22 -1.75,122.04 -13.32,3.92 -9.35,-5.13 -9.68,47.16 -0.06,10.27 -1.45,34.92 2.22,42.72 5.66,3.34 20.75,3.45 26.99,0.96 5.15,-2.07 4.54,-3.84 4.71,-10.15 0.14,-5.31 0.33,-10.63 0.44,-15.94 0.26,-12.17 0.07,-54.74 1.1,-62.49zm-543.83 0.51c-1.09,8.59 -0.44,21.87 -0.55,31.01 -0.11,10.03 -0.21,20.08 -0.26,30.13 -0.05,8.42 -1.64,22.36 4.67,26.16 6.69,4.02 19.82,2.41 27.33,0.16 6.5,-16.05 3.16,-169.78 3.03,-206.41 -0.04,-11.26 0.27,-24.02 -0.36,-35.12 -0.29,-5.12 -1.7,-9.78 -5.98,-11.33 -3.31,-1.19 -13.23,-0.97 -16.62,0.07 -0.1,29.14 -0.15,58.28 -0.29,87.43 -0.06,14.67 -0.47,29.77 -0.1,44.39 0.91,36.64 -0.68,28.37 -10.87,33.51zm-39.59 0c-8.58,-5.26 -9.92,4.05 -9.99,-25.97 -0.1,-42.16 1,-84.42 0.65,-126.48 -0.11,-13.14 1.15,-13 -4.48,-13.67 -15.37,-1.82 -19.39,1.43 -19.55,16.16 -0.79,72.03 1.73,147.33 -0.19,218.64 -0.56,20.83 2.23,21.75 25.22,19.89 6,-0.48 5.64,0.05 7.17,-1.86 4.18,-5.19 3.71,-78.19 1.17,-86.71zm-203.24 -165.01c-2.09,13 1.31,99.34 -0.89,104.98 -3.34,8.57 0.41,-4.18 0.59,16.47 0.08,9.12 1.07,33.71 -1.64,41.04 -4.46,1.29 -7.05,-0.42 -8.92,3.53 -2.29,4.87 -0.76,31.52 -0.76,38.35 -0.01,10.77 -3.07,42.11 3.88,47.77 4.12,3.35 16.81,3.34 22.52,1.61 8.1,-2.45 8.25,-8.34 8.22,-17.54l0.01 -208.57c0,-7 0.94,-17.94 -1.76,-23.92 -2.69,-5.97 -13.68,-5.98 -21.25,-3.72zm-315.02 0.1c-15.98,-2.64 -22.67,-1.91 -23.26,10.76 -0.52,11.42 0.09,24.43 0.09,36.04 0,24.29 -0.01,48.58 -0.01,72.87 0,34.98 0.71,74.44 0.03,108.9 -0.24,12.13 -2.53,24.46 10.66,25.88 4.34,0.47 12.11,-0.03 16.34,-1.07 6.07,-1.49 6.94,-4.98 7.19,-11.37 0.47,-11.73 -0.45,-24.13 -0.16,-36.08 1.44,-58.9 0.5,-35.79 -8.41,-44.33 -3.15,-3.01 -2,-11.88 -1.92,-16.8 0.14,-9.62 0.42,-135.64 -0.55,-144.8zm627.74 164.31c-14.21,-3.22 -11.15,-1.86 -10.78,-32.91l0.01 -131.54c-25.79,-3.91 -23.34,2.66 -23.33,25.16l-0.01 201.03c-0.07,23.12 -4.22,29.51 22.73,27.91 15.63,-0.93 11.65,-12.01 11.89,-38.8 0.13,-14.58 1.48,-37.09 -0.51,-50.85zm594.27 -151.85c0,6.65 1.37,146.09 -1.07,149.07 -1.66,2.03 -8.56,0.64 -9.44,3.38l-0.26 60.31c-0.19,8.12 -1.61,21.42 2.83,27.13 3.67,0.96 17.58,1.87 21.98,1.7 12.44,-0.49 10.02,-8.65 9.99,-24.65l-1.08 -226.85c-1.58,-5.64 -18.99,-3.8 -22.94,-3.24l-0.01 13.15zm-850.24 239.56c3.99,-10.84 2.71,-30.02 2.18,-42.28 -2.1,-47.82 6.51,-42.66 -9.67,-47.49 -4.33,-37.94 -1.43,-120.11 -1.69,-163.08 -27.51,-1.41 -22.99,-2.21 -22.99,55.17l0 155.8c0,7.31 -0.92,33.69 1.22,38.53 3.2,7.24 23.57,6.83 30.95,3.35zm586.83 -354.32l0.23 25.78c20.61,1.25 19.64,0.5 41.03,0.3l118.82 0 0 -36.97 -160.07 -0.1 -0.01 10.99zm250.82 266.94c-3.55,-2.17 -6.68,-1.18 -9.26,-3.21 -4.08,-4.2 -2.01,-31.54 -2.01,-39.24 -0.01,-13.68 -0.02,-27.37 -0.02,-41.04 -0.01,-27.3 -0.02,-54.59 -0.04,-81.89 -3.63,-0.43 -8.44,-0.84 -11.71,0.4 -0.76,32.27 -0.22,64.34 0.03,96.56l-0.26 60.64c-1.72,12.29 -10.9,0.54 -10.89,13.85 0.03,20.63 -1.34,40.16 -0.39,61.21 0.27,5.94 -1.12,17.51 4.15,20.16 4.9,2.46 16.1,3.27 22.39,2.05 13.11,-2.54 8.59,-20.96 8.71,-40.64 0.06,-9.49 1.71,-42.62 -0.7,-48.85zm-1196.46 -0.99c-0.78,21.28 -1.32,57.69 0.32,79.21 0.6,7.86 0.62,11.26 16.84,11.35 10.49,0.06 15.42,0.13 17.09,-10.18 1.5,-9.23 0.39,-16.66 0.21,-25.48 -0.19,-9.47 1.11,-48.32 -0.93,-54.12 -8.88,-2.48 -8.54,0.97 -10.14,-11.42 -1.49,-11.45 0.55,-50.38 0.58,-65.16 0.06,-29.46 -0.67,-58.82 -0.69,-88.27l-11.4 -0.26c-2,47.79 0.22,103.77 -0.21,153.04 -0.1,11.45 -2.12,9.64 -11.67,11.29zm1126.24 5.89c1.28,4.34 1.23,56.84 -0.07,61.38 -1.01,5.2 -0.2,12.22 1.01,17.29 2.4,10.03 24.84,6.43 28.79,4.57 4.77,-2.23 4.39,-8.39 4.79,-14.47 0.64,-9.74 1.34,-68.41 -1.06,-73.55 -1,-1.15 -7.93,-2.35 -8.67,-3.13 -4.6,-10.35 -1.37,-139.66 -1.59,-162.53l-12.52 0 -0.34 123.09c-0.04,10.28 1.48,31.29 -0.97,39.85 -4.48,1.25 -7.26,0.95 -9.73,2.87l0.36 4.63zm-753.02 -7.14l-9.46 1.72 -0.98 77.05c0.63,12.55 4.55,12.82 16.99,12.84 23.56,0.02 18.04,-9.69 17.99,-43.03l-0.05 -40.21c-0.03,-16.57 -11.67,3.48 -11.67,-18.43l0.01 -152.75c-3.81,-0.01 -8.17,-0.57 -11.69,0.61l-1.14 162.2zm-218.2 0.54c-3.22,0.45 -7.42,0.67 -9.78,1.95 -0.89,1.01 -1.22,71.92 -0.45,79.32 1.05,10.16 7.5,9.81 17.25,9.8 20.81,-0.03 17.97,-3.01 18.05,-36.33 0.04,-17.36 0.36,-36.16 -0.76,-53.39 -7.2,-1.64 -11.27,-1.48 -11.97,-9.48 -0.56,-6.52 0.59,-14.99 0.7,-21.73 0.67,-42.3 -0.21,-90.56 -0.27,-133.39l-11.35 0.09c-0.56,22.1 1.63,147.15 -1.42,163.16zm-35.22 -21.49c0,8.31 0.08,12.81 -1.39,20.73l-9.3 2.3c-0.78,17.04 -1.13,60.25 -0.35,73.99 0.51,9.01 -0.05,14.52 8.85,15.36 30.24,2.85 25.9,-2.22 25.76,-39.5l-0.22 -48.97 -9.84 -2.84c-3.67,-48.53 -1.8,-115.91 -1.33,-163.47l-12.23 0 0.05 142.4zm643.71 22.83c-2.04,12.52 -2.65,79.05 2.31,87.68 5.39,2.38 21.4,3.76 26.69,0.8 6.39,-3.59 5.31,-18.48 5.16,-25.87 -0.42,-20.4 0.08,-41.1 -0.57,-61.44 -6.12,-2.9 -7.83,-1.57 -9.6,-4.96 -1.88,-3.92 -1.41,-143.92 -1.45,-161.44l-10.88 0.08c-2.96,41.92 0.7,107.28 -0.34,154.09 -0.24,11.14 -1.52,9.25 -11.32,11.06zm-145.97 0.63c-1.93,16.3 -0.22,42.86 -0.27,60.31 -0.02,7.88 -1.8,22.43 3.66,26.82 4.88,3.92 22.32,2.15 27.86,0.32 5.39,-9.23 4.48,-73.65 2.07,-87.25 -2.38,-1.32 -6.42,-1.65 -9.09,-3.55 -2.8,-7.65 -2,-67.64 -1.99,-80.41 0.02,-10.67 1.15,-77.7 0.29,-81.81l-11.29 -0.2c-1.45,13.72 -0.56,30.51 -0.45,44.31 0.25,31.26 1.98,79.81 -0.18,109.57 -0.97,13.33 -1.98,7.17 -10.61,11.89zm-98.69 -134.87c0.24,23.03 1.74,47.74 1.36,70.37l0.26 52.82c-0.43,12.5 -4.96,7.97 -11.77,11.68 -1.91,2.01 -0.53,41.21 -0.54,48.58 -0.02,8.95 -1.1,20.8 -0.27,29.31 1,10.27 7.23,12.56 17.62,11.82 11.29,-0.8 16.43,-1.13 16.88,-12.62 1.07,-27.12 0.38,-49.79 0.04,-77.1 -8.07,-3.99 -9.61,-1.03 -10.73,-12.04 -2.67,-26.45 0.72,-86.17 0.27,-115.27l-0.7 -38.21 -10.71 -0.21 -1.71 30.87zm-118.5 134.52c-2.4,6.23 -2.4,74.17 0.03,82.82 2.33,8.27 13.36,7.81 21.97,6.84 10.52,-1.17 11.81,-5.61 11.77,-16.42l0.26 -56.98c0.04,-3.55 0.35,-10.43 -0.92,-13.56 -1.72,-4.29 -6.47,-3.08 -10.17,-4.87 -3.98,-17.21 -1.76,-60.55 -1.71,-80.41 0.06,-27.48 0.45,-54.94 0.52,-82.41l-11.29 -0.38c-1.33,13.18 -0.54,29.94 -0.49,43.42 0.04,14.77 -0.08,29.65 0.23,44.4 0.38,17.98 1.09,47.52 0,65.36 -0.75,12.15 -0.08,8.79 -10.2,12.19zm-134.68 -164.93c0.24,35.94 2.66,133.08 -0.98,162.54l-10.31 2.22c-1.04,7.03 -0.28,19.65 -0.26,27.32 0.01,8.41 -0.54,50.87 0.55,55.7 1.94,8.68 13.01,7.03 22.14,6.4 11.52,-0.79 11.97,-4.57 11.88,-16.03 -0.07,-9.53 -0.32,-18.93 -0.11,-28.48 0.15,-7.07 1.17,-35.61 -0.38,-41.72 -1.1,-4.33 -4.66,-4.37 -9.17,-5.11 -3.26,-10.9 -2.36,-100.48 -2.23,-123.21 0.08,-12.76 1.8,-27.84 0.06,-40.14l-11.19 0.51zm397.87 162.78l-9.16 1.64c-0.82,7.2 -2.19,71.75 -0.85,80.42 2.02,13.06 20.72,10.97 28.87,7.9 4.44,-1.67 4.6,-3.17 4.98,-8.59 1.1,-15.67 1.3,-38.66 1.13,-54.58 -0.3,-27.18 1.51,-24.54 -11.35,-26.73 -7.47,-43.85 2.28,-133.18 -1.42,-162.94l-10.64 0.1c-1.55,4.55 0.14,70.64 0.2,81.52 0.14,25.36 1.19,56.67 -1.76,81.26zm-120.38 -282.37l-0.11 36.75 101.57 0.12 0.21 -35.96c-9.15,-2.92 -88.37,-2.01 -101.67,-0.91zm-0.76 78.53l102.41 0.19 0.03 -36.27 -101.78 -0.8 -0.66 36.88zm-365.13 -69.52c-48.49,6.5 -35.47,70.46 4.53,66.8 46.95,-4.31 36.22,-72.26 -4.53,-66.8zm-97.12 0.91c-46.74,11.2 -27.1,73.91 12.8,65.18 44.84,-9.8 28.91,-75.18 -12.8,-65.18zm640.86 -0.74c-47.78,8.31 -33.95,72.42 7.88,66.2 45.14,-6.71 32.19,-73.16 -7.88,-66.2zm-256.61 0.67c-45.33,11.16 -28.32,73.4 13.76,65.18 16.55,-3.23 29.3,-18.97 25.73,-39.14 -2.9,-16.35 -19.26,-31.02 -39.49,-26.04zm-101.81 50.22c-3.12,2.13 -4.37,0.34 -5.43,3.85 -2.18,7.21 4.08,-1.55 5.52,22.78l10.48 0.46 0.22 -15.55 6.26 -2.75 -0.67 -6.05c-6.48,-3.5 -5.79,-0.08 -5.76,-14.99l0.11 -47.21 -10.1 -0.04 -0.63 59.5zm-32.87 -23.14c8.26,7.18 6.52,1.87 5.93,20.91 -0.19,6.17 -0.68,23.56 0.33,28.75l9.76 0.43 0.63 -47.58 5.26 -2.16 -0.21 -6.22c-2.14,-1.59 -2.16,-1.05 -4.93,-1.85 -1.29,-10.11 0.02,-19.99 -1.06,-28.92l-9.64 0.07c-0.56,7.3 0.64,13.63 0.36,20.68 -0.47,12.03 -6.56,5.79 -6.43,15.89zm-44.47 -26.8c-1.58,2.39 -2.55,1.65 -5.42,2.23l0.39 7.82c6.36,3.05 5.17,1.91 5.64,10.85 0.88,16.24 0.2,40.08 0,56.12l9.6 -0.52 0.43 -62.26c2.68,-5.67 5.55,0.37 5.81,-10.94l-5.33 -2.63 -0.09 -10.17c-12.43,-1.66 -11.08,-2.54 -11.03,9.5zm1151.96 47.69l-0.89 42.26 24.51 -0.66 0.03 -80.41c0,-23.8 -19.86,-20.24 -23.4,-9.97 -1.92,5.56 -0.25,40.35 -0.25,48.78zm-88.4 -38.81l-0.26 202.76c0.46,5.05 -0.65,4.26 4.58,8.73l3.43 2.22c-45.02,6.55 -37.41,69.7 4.64,69.04 42.73,-0.68 48.15,-63.92 2.59,-69.3 12.23,-9.15 9.08,6.89 9.09,-32.33l-0.29 -150.93c0,-11.07 2.97,-34.56 -1.73,-42.07 -7,-11.18 -22.05,-6.52 -22.05,11.88zm111.72 156.42l-23.23 0.3c-2.42,18.66 -0.61,103.94 -0.64,134.36 -0.02,12.42 -4.49,35.76 10.92,37 16.97,1.36 13.04,-19.64 13,-32.69l-0.05 -138.97zm-22 -71.08c-45.97,15.17 -21.3,82.2 22.27,66 42.55,-15.81 19.77,-79.88 -22.27,-66zm86.42 51.96c-44.92,16.89 -18.69,80.82 23.67,65.49 42.19,-15.28 19.78,-81.84 -23.67,-65.49zm-0.47 -135.14l0.07 130.08 23.92 -0.76c-0.02,-22.31 3.38,-140.87 -3.7,-146.67 -15.74,-4.84 -20.29,0.15 -20.29,17.35zm23.98 206.09l-23.42 -0.22c-1.97,18.4 -0.56,43.95 -0.56,63.65 -0.01,15.03 -6.6,55.73 11.35,56.37 19.69,0.7 12.58,-37.8 12.63,-52.06 0.08,-22.57 0.02,-45.17 0,-67.74zm-199.62 97.92l-0.03 4.31c0,16.77 6.11,20.95 20.96,14.9 4.58,-10.56 3.07,-26.55 3.04,-39.74l-24.03 0.93 0.06 19.6zm169.68 1600.05c11.66,3.42 17.86,33.35 -7.66,33.8 -57.02,1.02 -71.59,6.13 -68.9,-21.8 1.08,-11.15 5.08,-12.6 16.67,-12.82 9.56,-0.18 54.35,-0.81 59.89,0.82zm-201.45 82.39c10.48,5.3 17.69,32.83 -10.53,33.06 -48.87,0.39 -72.24,7.16 -66.92,-23.43 1.86,-10.71 8.01,-11.13 18.43,-11.19 11.12,-0.07 52.28,-1.86 59.02,1.56zm-101.43 -0.47c8.19,3.22 10.2,12.29 7.82,22.94 -2.12,9.52 -8.96,10.58 -19.05,10.57 -45.23,0 -71.64,7.89 -65.86,-23.6 1.95,-10.58 8.22,-11.01 19.21,-11 11.17,0.01 50.81,-1.69 57.88,1.09zm202.35 0c11.68,4.76 16.03,33.25 -9.31,33.55 -49.23,0.57 -71.13,7 -68.21,-21.42 1.14,-11.05 6.53,-13.04 17.87,-13.22 9.86,-0.15 54.24,-1.12 59.65,1.09zm76.04 -7.4c-38.9,-0.01 -51.88,5.1 -52.32,-16.08 -0.44,-21.61 10.14,-18.39 35.61,-18.38 33.03,0 57.4,-5.89 49.6,25.33 -3.11,12.45 -18.32,9.13 -32.89,9.13zm-77.23 -33.92c12.89,3.4 16.83,33.25 -6.27,34 -8.82,0.29 -54.86,0.86 -60.46,-0.59 -12.19,-3.17 -17.58,-33.22 6.41,-34.05 9.01,-0.32 55,-0.77 60.32,0.64zm102.74 41.71c9.95,4.97 17.78,32.96 -10.55,33.14 -10.45,0.06 -53.43,1.24 -59.74,-1.16 -9.11,-3.46 -16.88,-33.28 11.23,-33.46 10.84,-0.08 52.52,-1.79 59.06,1.48zm-303.84 40.5c9.24,3.68 19.36,33.34 -11.28,33.28 -46.03,-0.09 -70.53,8.06 -66.09,-22.79 1.45,-10.05 6.72,-11.52 17.56,-11.65 10.41,-0.12 53.85,-1.22 59.81,1.16zm-1.34 -123.06c12.13,3.23 18.39,33.85 -8.08,34.07 -9.52,0.08 -54.41,1 -60.06,-1.05 -10.35,-3.75 -15.69,-32.87 7.81,-33.61 8.71,-0.27 55.42,-0.72 60.33,0.59zm102.87 123.39c8.15,4.05 9.82,11.43 7.59,22.37 -1.89,9.29 -7.57,10.57 -18.24,10.59 -10.04,0.01 -53.82,1.06 -59.63,-1.09 -8.74,-3.25 -17.53,-33.21 11.09,-33.36 11.05,-0.06 52.46,-1.85 59.19,1.49zm193.52 -130.2l-52.01 -0.02c-14.45,-0.02 -16.89,-3.44 -16.88,-18.09 0.02,-22.63 17.45,-16.19 67.03,-16.17 14.09,0.01 18.51,1.52 18.76,16.16 0.24,14.14 -3.14,18.12 -16.9,18.12zm-296.4 47.66c12.15,3.25 18.49,33.7 -8.08,34.01 -8.89,0.1 -55.06,0.77 -59.96,-1.05 -10.55,-3.94 -15.67,-32.46 7.72,-33.58 8.3,-0.39 55.53,-0.66 60.32,0.62zm188.68 115.4c-38.07,0 -61.97,6.08 -62.7,-15.88 -0.75,-22.54 12.55,-18.44 44.12,-18.37 29.71,0.06 43.68,-4.26 42.11,20.1 -0.99,15.43 -9.52,14.15 -23.53,14.15zm116.59 -32.87c10.3,5.01 17.18,32.93 -10.64,32.96 -9.14,0.02 -54.56,0.81 -59.69,-1.09 -9.07,-3.35 -16.7,-33.18 11.19,-33.36 11.07,-0.08 52.28,-1.84 59.14,1.49zm276.74 -1473.59c-103.12,18.04 -165.37,114.55 -148.46,207.81 16.13,88.88 99.87,168.72 211.74,147.47 86.75,-16.47 164.53,-99.35 145.16,-207.05 -16.09,-89.44 -99.34,-167.31 -208.44,-148.23zm-57.21 279.04l69.71 0.28 0.73 -12.09 -0.12 -193.78 -70.39 0.09 0.07 205.5zm103.65 -0.98l70.61 1.18 0.33 -205.17 -69.96 -0.3 -0.98 204.29zm-68.29 900.14c-106.57,24.36 -160.85,118.4 -142.21,211.57 20.6,102.94 121.08,162.81 215.32,141.85 83.69,-18.61 163.89,-103.59 139.74,-211.81 -23.08,-103.44 -119.64,-162.92 -212.85,-141.61zm-81.73 176.49c18.39,16.71 38.74,28.41 58.67,44.2 10.89,8.63 49.59,39.11 58.22,40.79l0.09 -83.48 60.45 42.53c10.87,8.78 48.6,38.7 58.29,41.08l0 -173.46c-16.93,6.24 -93.46,73.11 -118.62,83.73l-0.16 -83.6c-14.77,6.44 -43.07,29.96 -58.12,41.05 -11.07,8.16 -54.18,37.7 -58.82,47.16zm98.6 -756.71c-104.67,22.38 -160.59,118.02 -142.21,211.97 17.21,88 103.16,165.29 215.46,141.67 85.1,-17.9 162.99,-104.35 139.44,-211.61 -22.47,-102.32 -117.33,-162.41 -212.69,-142.03zm-82.37 263.37c26.25,-12.23 97.41,-76.34 118.04,-83.64l0.36 82.49c6.3,-0.74 104.82,-71.87 116.75,-85.58 -5,-5.44 -106.49,-84.91 -116.78,-85.64l-0.16 82.33c-22.22,-8.42 -94.31,-72.76 -117.79,-83.29l-0.42 173.33zm-2523.08 424.61c4.29,7.2 1.46,21.12 -1.9,27.08 -8.46,15.06 -34.05,16.97 -25.36,36.9 3.81,8.75 12.87,10.79 24.6,8.04 1.74,-2.21 15.26,-8.81 20.25,-15 1.34,-1.66 1.55,-2.32 2.84,-3.7 2.15,-2.3 2.1,-1.98 3.85,-3.2 0.32,-4.29 1.16,-3.93 3.35,-8.03 1.47,-2.75 2.66,-5.27 3.72,-8.06 2.17,-5.69 3.44,-11.79 4.06,-18.27 0.1,-7.97 0.47,-17.29 -2.72,-23.64 -3.01,-12.57 -10.6,-24.02 -17.73,-30.74 -34.33,-32.3 -53.96,0.25 -38.27,14.63 9.87,9.06 19.07,8.93 23.31,23.99zm1.23 -108.53c-14.65,23.54 16.93,29.02 29.42,39.79 32.11,27.7 47.35,66.71 34.12,109.9 -5.33,17.38 -20.28,38.69 -30.11,45.46 -3.42,2.82 -2.94,3.32 -6.66,5.26l-13.13 7.93c-7.66,4.79 -10.57,4.92 -14.65,11.81 -7.66,5.47 -1.64,46.73 49.88,6.78 14.72,-11.42 25.15,-24.02 34.79,-40.04 1.96,-3.25 7.16,-14.22 8.29,-15.33 0.86,-3.09 1.47,-5.36 2.42,-8.16 0.4,-1.16 0.59,-1.83 1.08,-2.86 1.61,-3.33 0.33,-1.33 2.19,-3.45 -1.05,-12.15 16.58,-51.33 -13.63,-104.94 -13.28,-23.57 -37.95,-48.36 -66.89,-58.28 -9.02,-0.33 -12.78,0.68 -17.12,6.13zm30.28 -65.32c-3.42,2.24 -3.7,2.81 -5.7,7.31 -5.96,16.69 7.49,21.43 18.35,26.46 9.1,4.23 20.67,12.17 28.02,17.96 56.53,44.57 82.31,124.68 52.14,196.54 -16.7,39.78 -40.76,64.58 -75.73,84.53 -5.02,2.86 -11.04,4.52 -15.06,7.28 -10.31,7.07 -13.39,22.76 -1.08,29.74 11.1,6.3 23.87,-3.1 33.47,-7.91 30.81,-15.45 44.94,-36.94 51.33,-38.81 1.43,-3.81 0.52,-2 2.9,-3.27 0.68,-3.72 -1.56,0.43 1.83,-4.29 0.88,-1.23 1.59,-1.68 2.5,-2.73 2.85,-3.31 1.91,-3.88 5.71,-5.47 1.48,-4.77 -0.42,-3.1 4.39,-5.7 1.47,-10.24 34.41,-41.8 36.08,-113.34l0 -3.94 0.32 -16.8 -2.32 -11.49c-0.52,-4.09 -1.07,-7.32 -1.82,-11.17 -6.22,-31.75 -20.89,-62.13 -40.44,-86.99l-23.24 -25.93c-5.15,-1.77 -2.72,-0.79 -6.9,-4.4 -0.16,-0.14 -2.67,-2.27 -2.76,-2.36 -2.1,-2.08 -1.27,-0.29 -1.61,-2.22 -6.67,-3.29 -10.95,-7.41 -17.7,-11.3 -3.1,-1.79 -15.42,-7.81 -16.45,-9.65 -10.04,-2.65 -15.32,-8.29 -26.23,-2.05zm-122.15 341.91c0.86,1.74 -2.45,0.75 2.98,2.17 3.29,0.86 4.15,0.57 7.52,0.62 8.75,-2.35 13.88,-6.91 14.42,-17.15 0.54,-10.43 0.01,-22.3 0,-32.88 -0.05,-33.98 1.36,-248.33 -0.43,-256.98 -1.55,-7.51 -9.08,-14.73 -18.97,-13.33 -7.09,0.99 -14.1,9.99 -17.84,13.73 -21.77,21.77 -42.58,42.58 -64.35,64.35 -4.45,4.45 -10.98,13.91 -17.93,14.58 -12.84,1.24 -48.31,-0.91 -65.69,-0.05 -9.01,0.45 -16.07,6.29 -17.19,14.85 -2.06,15.66 -0.2,47.03 -0.2,64.36 0,21.87 -4.19,48.52 10.36,54.43 6.58,2.67 53.08,1.43 63.61,1.35 16.43,-0.11 13.63,1.18 22.21,9.98 12.24,12.56 74.88,76.39 81.5,79.97zm2690.76 -2008.8c-54.43,10.48 -88.7,34.81 -113.88,66.94 -58.48,74.6 -48.38,188.21 31.81,253.2 34.05,27.6 91.16,45.62 143.72,35.34 161.39,-31.56 196.87,-230.19 80.08,-320.17 -33.63,-25.91 -87.83,-45.7 -141.73,-35.31zm-57.4 277.13c13.53,-4.87 166.2,-93.71 171.62,-99.8l-171.25 -99.26 -0.37 199.06zm-2514.52 57.84l0.21 0.22c-0.01,-0.02 -0.28,-0.15 -0.21,-0.22zm-54.05 97.87l-2.14 0c-1,-0.11 -2.29,-0.33 -3.97,-0.73 1.85,-7.96 3.25,-7.74 5.8,-6.52 0.07,-3.29 0.03,-2.04 1.58,-4.94 1.72,-3.2 -0.08,-2.42 5.67,-3.76 0.23,-2.79 0.72,-2.34 0.72,-5.8l2.9 0c0.12,-1.5 0.38,-2.76 0.96,-4.11 3.45,-7.96 1.16,-7.81 4.84,-8.21 0.23,-2.8 0.72,-2.34 0.72,-5.8 3.68,-1.7 2.78,2.45 2.9,-2.9l2.9 0c0.48,-5.75 4.06,-11.79 4.35,-15.23l-202.22 0c-14.1,0.01 -17.51,-1.14 -25.8,-7.54 -5.13,-3.96 -11.16,-13.42 -11.16,-22.18l0 -322.6c0,-14.78 14.93,-29.72 29.71,-29.72l475.47 0c14.78,0 29.71,14.94 29.71,29.72l0 322.6c0,11.31 -7.9,20.12 -14.91,24.96 -9.05,6.25 -19.87,4.76 -34.37,4.76l-234.83 0c-1.35,5.8 -1.56,5.85 -4.38,8.67 -5,5.01 -0.71,6.91 -5.65,5.85l-0.85 5.78c-5.49,1.28 -3.88,1.37 -6.05,6.27 -1.3,2.94 -2.56,5.85 -2.64,9.68 -4.81,0.11 -2.52,0.02 -6.76,9.19 -0.75,1.61 -1.9,4.15 -2.65,5.38 -1.65,2.67 -1.19,1.64 -4.36,1.38 0.61,1.28 0.83,2.35 1.45,3.62 -3.16,-0.26 -2.37,-1.14 -4.26,0.09 -1.13,0.73 -1.03,1.81 -2.68,2.09zm69.27 -231.26l0.72 0 0 32.63 -0.72 0 0 -32.63zm-0.73 -38.42l0 20.3c-4.01,-1.92 -6.11,-1.06 -10.14,-0.72l0 2.9c3.67,0.4 1.18,0.08 3.26,2.52 1.45,1.7 2.16,1.59 3.98,2.55l0 8.7c3.04,0.26 1.98,0.6 0.01,12.33l-5.18 28.89c-0.72,4.33 -2.07,10.4 -2.07,15.32 -1.33,0.66 -0.91,0.56 -2.9,0.73 0,3.46 -0.5,3.01 -0.73,5.8l-2.9 0c-0.14,1.73 -0.34,2.5 -0.92,4.16 -2.36,6.84 -1.57,-2.76 -6.22,10.44 -2.45,6.92 -10.05,12.18 -15.12,17.5 -3.52,3.69 -1.95,2.23 -7.85,3.02 -3.38,0.46 -6.74,0.29 -10.08,0.8l-9.82 1.78c0,7.21 0.02,6.56 3.69,10.81 1.3,1.51 0.52,1.62 2.83,2.23 0,-4 -0.46,-4.7 2.44,-6.26 2.66,-1.43 4.7,-0.97 8.42,-1.19 4.71,-0.28 2.23,-0.2 2.99,4.47 0.69,4.27 2.46,2.14 5.72,3.71 -0.08,-1.02 -2.56,-4.54 4.12,-6.76 1.59,-0.53 4.43,-0.79 5.54,-0.98 4.05,-0.7 2.7,-0.91 4.84,-1.68 3.56,15.26 2.08,16.64 -0.92,33.87 -0.36,2.02 -1.2,4.85 -1.25,7.45l-63.79 0 0 -2.18c-5.28,0 -4.61,-1.28 -7.97,-2.17 -1.89,1.26 -6.56,4.35 -9.42,4.35l-139.16 0c-1.7,0 -2.9,-1.21 -2.9,-2.9l0 -318.25c0,-1.7 1.2,-2.9 2.9,-2.9l471.11 0c1.7,0 2.9,1.2 2.9,2.9l0 318.25c0,4.38 -8.07,2.9 -12.32,2.9l-230.48 0c3.26,-6.8 3.2,-9.34 7.25,-9.43 0.15,-7.16 6.28,-12.55 9.08,-18.45 1.1,-2.32 1.2,-5.11 1.79,-7.64l114.34 -0.18c1.25,-0.35 3.94,-2.93 5.35,-4.07 1.69,-1.38 3.45,-2.82 5.13,-4.29 1.9,-1.66 3.22,-2.66 5.1,-4.33 6.66,-5.89 4.89,-0.86 4.89,-24.83l-86.98 0 0 -79.02 23.2 0c-1.92,-2.86 -38,-30.51 -44.3,-35.45 -1.82,-1.43 -1.97,-2.26 -4.54,-1.82l-22.92 6.82zm-113.06 5.08l-27.55 0 0 -31.18c-9.02,0.21 -37.75,4.35 -47.83,4.35l0 86.27c6.11,0 21.85,2.9 28.26,2.9l0 0.73c-10.41,0 -18.1,1.45 -28.26,1.45l0 81.19 47.83 0 0 -107.29c42.61,0 89.46,2.93 105.01,-43.58 3.94,-11.77 5.16,-20.54 5.16,-36.16l-27.6 2.84c-36.32,2.82 -15.33,-1.7 -25.53,20.85 -3.57,7.9 -7.32,12.7 -15.8,15.38 -3.96,1.26 -8.59,2.25 -13.69,2.25zm-75.38 -44.95c-2.63,-1.48 -10.42,-0.72 -13.77,-0.72l0 19.57 43.65 -4.18c5.93,-0.61 4.91,1.96 4.91,-13.94l13.04 0 0 -29c33.21,0 60.16,-5.21 60.16,29l-13.05 0 0 7.97c9.85,0 40.92,-4.35 49.29,-4.35l0 -2.9 13.77 0c0,-20.2 -6.46,-37.07 -15.2,-48.59 -8.65,-11.37 -24.12,-19.55 -44.23,-19.55l-98.57 0 0 66.69zm265.99 -59.44c-1.13,-4.88 -1.36,-4.12 1.33,-6.65 1.71,-1.6 1.47,0.07 2.3,-3.5l54.36 0 0 22.47c-0.1,-0.15 -0.22,-0.57 -0.26,-0.47 -0.32,0.87 0.7,-0.92 -4.51,-4.91 -2.2,-1.7 -2.86,-3.42 -5.69,-4.45 -2.68,-0.98 -1.9,-0.1 -5.25,-2 -4.13,-2.34 -5.29,-3.56 -8.97,-4.09 -5.05,-0.72 -13.48,-1.51 -18.81,-1.49 -1.75,0.01 -3.29,-0.07 -5,-0.12l-2.41 0.18c-3.86,0.98 -3.91,1.37 -7.09,5.03zm12.33 -15.23c-1.98,0 -1.06,-0.03 -2.45,0.46 -3.01,1.05 -0.72,0.27 -1.89,1 -0.14,0.08 -0.3,0.22 -0.43,0.3l-1.34 0.83c-3.81,2.15 3.28,-1.63 -0.95,0.5 -4.82,2.42 -30.1,1.26 -36.43,1.26l-36.24 0c-13.33,-0.02 -10.15,-6.61 -10.15,41.32 0,3.24 3.91,2.17 7.27,2.16l26.8 1.47c-1.77,2.41 0.25,0.89 -3.39,1.69l-14.07 2.6c-19.49,3.91 -16.61,-0.67 -16.61,17.46 0,2.21 9.83,10.45 12.15,12.5 2.97,2.62 11.63,9.76 13.22,12.14 7,-1.63 18.8,-8.33 23.19,-8.7l0 -44.22 86.98 0 0.87 -7.39c0.35,1.1 0.26,0.95 0.58,2.32 4.01,-0.09 4.87,-1.15 6.52,-3.62 -4.61,-0.11 -4.35,-3.22 -4.35,-6.53 2.26,-0.05 3.6,0.25 3.59,-2.04 -0.02,-4.44 0.06,1.51 -2.82,-2.3 -0.15,-0.19 -1.61,-3.84 -1.68,-4.28 -0.54,-3.54 5.44,-2.25 13.96,-2.25 2.71,0 4.28,0.09 6.43,0.81 0.18,0.06 0.37,0.13 0.53,0.19l2 0.91c3.32,1.33 14.88,3.73 19.28,6.08l4.24 2.29c0.13,0.08 0.29,0.22 0.42,0.3 5.67,3.54 8.68,-0.08 9.14,5.37l4.32 0.83 0.03 2.06c2.84,0.07 1.7,-0.19 3.62,0.73 0,-1.98 0.22,-2.22 -0.43,-3.92l-0.8 -1.38c-0.74,-1.05 -0.48,-0.68 -1.37,-1.53 -3.17,-3.04 -3.35,-1.82 -6.91,-3.24l-7.32 -2.82c-2.53,-0.81 -5.81,-3.53 -8.57,-5.2 -0.13,-0.09 -0.3,-0.21 -0.44,-0.29 -2.42,-1.43 0.2,-0.62 -3.67,-1.4 -0.92,-0.19 -2.81,-0.41 -4.11,-1.01l-13.74 -5.06c-1.77,-1.02 -1.55,-1.31 -3.05,-2.02l-12.61 -4.06c-3.67,-0.63 1.36,0.63 -1.21,-0.25 -5.86,-2.01 6.02,-0.72 -17.05,-4.69 -10.07,-1.73 -9.75,-1.13 -17.49,-0.36l-13.57 0.98zm-54.36 104.39c1,1.5 44.17,40.6 45.66,40.6l34.79 0c4.38,0 9.22,-6.23 13.05,-7.25l0 -30.45 -80.46 0 0 -6.52c-2.33,0.19 -11.32,2.8 -13.04,3.62zm-35.52 -13.77c0,23.02 -1.51,13.88 14.5,10.15 -0.61,-2.27 -1.32,-2.64 -3.19,-4.06l-8.12 -6.51c-1.38,-1.08 -3.19,-2.9 -3.19,0.42zm163.8 -34.07c12.82,0 7.74,-6.61 7.25,-8.7l-10.87 0c-1.67,3.47 -1.91,8.7 3.62,8.7zm-299.33 282.72c18.58,0 15.47,-9.42 3.62,-9.42l-1.91 4.61c-0.79,2.1 -1.27,2.93 -1.71,4.81zm313.83 -276.92l0 4.35c2.22,0.18 3.48,0.68 5.07,1.45 -0.25,-3.05 -0.98,-5.12 -2.89,-6.53 -1.26,0.71 -1.43,0.42 -2.18,0.73zm623.79 1656.68c-3.94,-0.45 -7.2,-3.13 -14.5,-5.57l-21.41 -7.67c-4.77,-3.59 -2.81,-35.34 1.14,-42.95 2.31,-4.43 3.71,-8.58 7.45,-12.51 8.1,-8.51 22.99,-5.41 20.8,-19.1 -7.72,-3.44 -44.83,-13.3 -46.01,-13.91 -1.82,-0.93 -0.41,-0.89 -3.27,-1.53l-7.96 -2.26c-5.32,-1.39 -0.72,1.17 -7.48,-2.28 -2.09,-1.07 -1.4,-0.44 -3.75,-0.94l-15.66 -4.77c-4.23,-0.77 -3.97,-1.47 -7.39,-2.3l-29.35 -8.75c-1.41,-0.96 -0.74,-0.56 -1.75,-1.75 -0.88,-1.52 1.66,0.42 -0.98,-0.59l-15.59 -4.96c-1.56,-0.48 -2.41,-0.54 -3.97,-1.03 -1.46,-0.45 -1.91,-0.81 -3.63,-1.36 -13.43,-4.29 -27.22,-7.44 -40.66,-12.14 -7.36,-2.56 -17.04,-0.29 -24.86,1.04 -2.17,0.37 -5.56,0.42 -8.39,0.88l-83.65 11.96c-2.26,0.38 -6.74,0.61 -9,0.99 -2.97,0.5 -4.96,0.93 -7.91,1.36 -3.12,0.47 -6.54,0.5 -9.13,0.87l-167.84 23.37c-13.04,2.79 -14.94,2.01 -26.1,11.72 -11.05,9.61 -14.27,29.18 -14.27,43.52 0.01,44.79 16.08,52.65 17.84,59.23 -6.69,3.53 -15.47,4.28 -22.47,7.49 -2.33,1.07 -1.26,-0.48 -2.79,2.23 -2.83,5 0.71,9.18 4.21,11.33l2.78 1.49c1.74,0.89 1.07,0.55 3.01,1.27 1.59,0.59 1.82,0.71 3.02,1.26 1.2,0.56 2.16,0.9 3.46,1.55 3.55,1.78 6.66,5.75 8.55,9.28 8.03,15.03 5.22,30.69 5.22,46.86l-15.27 5.42c-6.94,1.99 -13.99,4.27 -20.08,8.46 -2.29,1.59 -1.46,1.8 -4.6,2.53l0 5.71c5,0.11 8.37,2.42 13.55,2.86 -0.09,4.16 -5.38,7.63 -9.8,19.45l-1.34 3.65c-1.21,3.55 1.47,2.16 -2.41,2.58l0 42.81c3.38,0.37 1.63,-0.92 2.41,3.3 1.36,7.41 3.71,14.62 7.34,21.2l7.28 9.84c9.69,9.16 15.6,8.72 26.91,13.05 9.77,3.74 20.31,6.27 30.16,9.79l108.81 35.32c2.09,0.6 2.56,1.01 4.19,1.52 1.89,0.59 2.57,0.68 4.33,1.38 3.17,1.27 5.48,1.54 8.67,2.75l34.36 11.32c3.69,0.97 7.02,-0.12 9.64,-0.93l143.73 -34.65c14.57,-3.28 49.43,-12.97 60.15,-14.76 5.92,-1 12.11,-3.28 18.25,-4.59l9.96 -2.17c3.54,-0.89 6.12,-1.41 9.07,-2.35 5.64,-1.78 12.92,-2.7 18.64,-4.19l27.36 -6.89c5.85,-1.03 13.07,-2.72 18.14,-5.4 0,-4.86 -2.75,-6.21 -6.64,-8.34l-16 -6.84c-4.08,-1.44 -15.43,-3.09 -17.32,-6.23 -2.38,-3.98 -3.29,-38.16 8.73,-51.2 3.41,-3.69 4.45,-4.2 9.35,-6.36 1.95,-0.86 3.79,-1.28 5.6,-2.25 4.85,-2.57 10.91,-8.48 5.74,-13.84 -2.48,-2.58 -8.43,-2.61 -11.58,-4.12 0.38,-4.56 7.97,-5.49 14.18,-20.07 3.25,-7.62 6.91,-19.04 7.24,-27.73 0.36,-9.72 1.86,-22.91 -0.47,-32.37 -1.79,-7.27 -3.14,-12.52 -6.97,-18.71 -1.53,-2.46 -3.04,-3.19 -3.28,-6.01 4.49,-1.04 9.49,-2.42 14.07,-3.77l14.48 -3.36 0 -5.71c-3.58,-0.39 -1.19,-2.12 -4.29,-1.43zm-527.12 -54.22l0.33 21.8 5.82 18.3c3.04,4.57 7.32,9.45 12.36,11.02 2.05,0.63 2.36,0.85 4.21,1.48 2.13,0.73 3.2,0.42 5.6,0.94 4.79,1.02 -1.35,1.07 9.33,2.7 3.54,0.54 1.77,0.55 4.28,1.5 1.99,0.75 3.11,0.64 5.71,0.84 2.75,2.89 -0.5,1.67 3.5,2.49l22.07 5.27c2.28,0.56 2.72,1.52 4.89,2.1 2.65,0.72 3.29,0.17 6.09,1.19 2.3,0.84 2.91,1.02 5.43,1.62 2.84,0.68 3.13,1.04 4.78,1.69 4.42,1.73 3.44,-0.64 8.25,2.59 2.22,1.49 11.55,1.32 19.71,4.56l10.98 3.25c4.32,0.92 5.15,1.96 10.64,2.84 4.74,0.77 0.75,1.06 10.64,2.88l10.11 3.47c5,2.39 2.89,0.16 10.7,3.53 1.69,0.72 3.41,0.32 5.64,0.67 3.5,0.54 2.5,1.28 5.3,1.89 3.15,0.68 3.17,-0.24 6.17,1.17 3.09,1.45 1.19,0.98 5.65,1.46 3.52,0.38 2.53,0.56 5.04,1.45 2.07,0.73 3.68,0.64 5.87,1.31 12.73,3.87 11.52,13.13 12.13,-44.08l0.29 -17.2c-0.11,-6.44 -1.1,-3.66 -11.43,-7.6l-35.95 -11.86c-3.3,-0.87 -5.82,-1.86 -8.68,-3.32 -3.21,-1.64 -6.22,-1.36 -8.83,-2.62 -7.64,-3.68 -1.69,-0.89 -8.71,-3.27 -5.47,-1.86 -1.31,0.26 -9.07,-3.08 -3.17,-1.36 -10.77,-2.47 -13.77,-4.21l-13.59 -4.17c-2.47,-0.85 -1.22,-0.95 -3.82,-1.77l-45.86 -14.31c-15.05,-6.44 -24.42,-7.21 -36.04,-11.75 -9.44,-3.69 -16.31,-1.42 -22.2,6.05 -0.08,0.1 -0.23,0.25 -0.3,0.36 -1.42,2.1 -0.12,2.27 -2.34,7.64 -1.14,2.75 -0.93,7.51 -0.93,11.18zm274.22 145.18l0.59 42.44c0.27,3.18 1.05,3.38 1.11,7.85 0.09,5.55 -0.41,12.33 0.94,16.98 6.92,0.53 9.41,-1.42 16.75,-3.15 3.43,-0.81 1.43,-1.45 7.05,-2.65 3.67,-0.78 4.88,-1.61 7.66,-2.29 4.38,-1.07 4.76,-1.91 7.66,-2.32 7.53,-1.09 7.35,-2.2 15.44,-4.48 3.25,-0.91 5.28,-0.56 8.46,-1.71 2.43,-0.88 5.2,-1.47 7.45,-2.46 3.9,-1.71 3.7,-1.07 8.18,-1.88l23.34 -6.71c1.67,-0.36 3.1,-0.23 4.63,-0.56l11.04 -3.61c3.87,-2.59 3.53,-0.74 7.95,-2.17 4.2,-1.37 7.04,-3.19 14.84,-4.83l62.45 -17.58c5.32,-2.3 8.12,-7.89 10.05,-10 2.12,-2.32 4.54,-10.42 5.48,-14.27 1.52,-6.21 2.12,-32.51 -0.74,-37.82 -2.72,-5.03 -1.64,-8.26 -7.45,-12.5 -8.33,-6.08 -17.28,0.25 -23.31,2.07l-30.32 9.71c-9.76,2.32 -19.6,6.67 -26.76,8.31l-11.48 4.1c-2.6,0.86 -5.33,1.27 -7.96,2.2l-36.78 12.84c-3.32,1.02 -5.73,0.35 -8.64,1.65 -5.5,2.47 -4.55,0.82 -7.56,2.42 -8.07,4.28 -27.47,8.9 -29.78,10.15 -7.16,3.89 -4.65,0.64 -15.2,4.79l-11.23 3.81c-1.84,0.62 -2.67,0.87 -3.86,1.67zm-121.43 160.55c9.34,1.01 16.7,5.61 24.51,6.89 4.57,0.75 7.85,1.9 12.7,3.14 11.57,2.97 12.36,5.31 13.28,-0.97 0.75,-5.05 0.56,-23.73 0.61,-29.39 0.37,-38.3 4.78,-33.6 -11.1,-38.14 -2.6,-0.74 -2.76,-1.44 -5.54,-2.18l-47.58 -15.29c-3.5,-0.79 -3.05,-1.32 -5.57,-2.2 -2.47,-0.86 -7.49,-1.66 -12.08,-3.69 -2.76,-1.22 -2.38,-1.15 -5.79,-1.96l-11.49 -4.2c-2.77,-1.03 -3.61,-0.33 -6.34,-1.58 -5.63,-2.56 -10.7,-2.87 -17.48,-6.01 -3.46,-1.6 -9.54,-2.74 -12.25,-3.49 -3.09,-0.85 -2.32,-1.44 -5.59,-2.16 -3.56,-0.79 -9.65,-2.43 -12.01,-3.86 -2.89,-1.75 -2.55,-0.87 -5.81,-1.89l-24.36 -7.28c-3.03,-0.92 -2.3,-1.76 -5.65,-2.07 -6.94,-0.51 -10.74,-4.3 -18.76,-2.49 -19,4.29 -16.9,60.61 0.52,73.51 3.32,2.46 24.6,7.66 30.56,9.26l24.38 6.71c8.56,1.72 26.17,8.19 38.42,10.9l39.09 11.13c2.93,1.28 5.09,1.08 7.97,2.03 3.3,1.09 12.56,2.78 15.36,5.28zm-137.16 -155.2c4.47,2.59 16.55,4.93 22.44,6.09 3.9,0.77 2.97,1.98 7.4,2.38 4.3,0.39 4.38,0.33 8.02,1.51l55.6 13.19c5.36,0.83 3.1,0.87 6.65,2.24l15.63 4.29c4.67,2.08 10.97,1.45 23.61,5.74 2.97,1.01 4.6,0.78 7.9,1.5l14.72 4.3c8.31,1.17 15.93,4.32 24.81,5.44 4.48,0.56 11.68,3.72 14.71,4.34l23.81 5.51c3.44,0.7 4.11,1.57 7.95,2.09 4.99,0.67 3.44,1.62 7.32,2.44 2.28,0.48 6.77,1.04 8.98,0.95 0.58,-5.95 0.36,-16.52 -0.32,-22.34 -0.82,-6.99 -0.4,-16 -0.45,-23.24 -0.03,-4.91 1.3,-19.37 -1.56,-21.85 -2.57,-2.23 -5.15,-0.69 -8.82,-1.74 -2.46,-0.71 -1.72,-1.17 -3.95,-1.6 -1.78,-0.34 -4.15,-0.25 -5.95,-0.55l-28.33 -5.99c-3.85,-1.28 -6.66,-0.73 -10.97,-1.45 -6.06,-1.01 -12.86,-3.2 -19.14,-4.31 -4.21,-0.74 -5.6,-1.25 -9.22,-2.13l-7.15 -1.38c-3.11,-1.19 -0.36,-0.49 -2.27,-1.13 -2.29,-0.77 -7.48,-0.66 -10.26,-1.29 -3.58,-0.82 -4.58,-1.86 -9.23,-2.09 -5.69,-0.27 -5.74,-0.67 -9.9,-1.79 -4.14,-1.11 -7.13,-0.17 -15.53,-2.45 -1.42,-0.39 -3.09,-0.58 -4.73,-1 -2.99,-0.75 -5.9,-1.52 -9.36,-2.08 -3.39,-0.55 -6.96,-1.02 -9.67,-1.76 -3.42,-0.93 -5,-2.13 -8.92,-2.9 -3.81,-0.75 -5.73,-1.11 -9.41,-1.92l-38.46 -7.98c-3.83,-0.96 -15.92,-2.24 -20.16,-3.52 -3.37,-1.02 -5.69,-2.09 -10.28,-1.96 -0.07,3.27 2.77,8.82 3.77,12.02 0.73,2.3 1.34,10.98 1.83,14 1.75,10.85 -1.34,21.26 -1.11,30.42zm332.03 -134.51c-5.1,-0.71 -5.5,1.13 -8.97,1.79 -4.07,0.78 -6.51,-0.33 -10.17,1.28 -4.33,1.89 -4.32,1.14 -9.29,2.14 -3.37,0.69 -5.84,1.83 -9.09,2.2 -8.89,1.02 -32.1,8.31 -38.24,7.55 -1,1.14 -0.33,0.7 -1.92,1.53l-35.4 7.42c-2.18,3.35 -3.31,58.22 -2.41,65.83l69.65 -17.18c3.25,-0.86 5.95,-0.28 8.5,-1.5l45.9 -11.81c19.71,-4.86 40.73,-10.74 61.82,-15.31 4.97,-1.08 10.01,-3.16 14.93,-4.1l31.3 -7.55c23.57,-6.29 13.23,3.83 14.16,-31.92 0.34,-13.08 5.12,-22.8 5.67,-27.53l-17.11 3.53c-2.8,0.7 -5.52,0.99 -8.44,1.62l-24.87 4.96c-11.4,1.6 -13.01,3.36 -25.68,5.16 -2.8,0.4 -5.5,1.33 -8.24,1.85 -10.15,1.92 -47.67,10.22 -52.1,10.04zm24.78 203.89c-4.18,-0.54 -4.89,0.33 -7.43,0.98 -1.16,1.1 -0.53,0.8 -2.46,1.58l-54.68 10.97 -25.42 8.43c-3.87,1.63 -5.07,1.55 -9.57,0.81 -7.68,-1.26 -21.31,2.74 -29.03,4.62 -5.17,1.26 -22.34,2.52 -27.82,6.7l-1.42 63.38c7.87,-0.32 35.67,-8.31 45.75,-10.47 4.28,-0.91 8.55,-3.15 16.17,-3.18 2.82,0.05 12.04,-2.57 15.33,-3.3 4.04,-0.91 4.18,-0.92 7.58,-2.25l24.19 -5.85c2.62,-0.58 4.91,-1.73 7.44,-2.33l16.31 -3.77c2.84,-0.8 6.27,-0.78 8.61,-1.56 3.68,-1.22 1.96,-1.59 7.6,-2.31 3.78,-0.49 4.65,-1.09 7.76,-2.12 4.68,-1.56 12.18,-2.2 16.2,-3.84l15.53 -3.85 14.58 -5.06c9.91,-2.75 39.44,-8.53 44.52,-11.34 0.42,-2.95 -0.96,-10.16 -1.09,-14.27 -0.91,-28.91 4.18,-30.2 4.6,-39.85 -16.13,1.46 -86.71,17.88 -93.25,17.88zm-24.78 -203.89c4.43,0.18 41.95,-8.12 52.1,-10.04 2.74,-0.52 5.44,-1.45 8.24,-1.85 12.67,-1.8 14.28,-3.56 25.68,-5.16l24.87 -4.96c2.92,-0.63 5.64,-0.92 8.44,-1.62l17.11 -3.53c-0.55,4.73 -5.33,14.45 -5.67,27.53 -0.93,35.75 9.41,25.63 -14.16,31.92l-31.3 7.55c-4.92,0.94 -9.96,3.02 -14.93,4.1 -21.09,4.57 -42.11,10.45 -61.82,15.31l-45.9 11.81c-2.55,1.22 -5.25,0.64 -8.5,1.5l-69.65 17.18c-0.9,-7.61 0.23,-62.48 2.41,-65.83l35.4 -7.42c1.59,-0.83 0.92,-0.39 1.92,-1.53 -4.88,-0.42 -22.26,4.05 -25.91,4.34 -4.49,0.37 -2.57,0.46 -5.34,1.54 -7.61,2.97 -9.26,-4.03 -9.38,12.37 -0.07,9.65 0.16,19.66 -0.17,29.27 -0.6,17.06 -5.47,29.06 2.69,28.86l27.7 -6.92c3.49,-1.39 4.34,-0.89 8,-1.47l31.51 -7.77c4.03,-1.57 -0.87,-1.02 7.73,-2.14l47.2 -12.14c4.26,-0.79 4.01,0.48 7.54,-1.52 3.47,-1.98 4.56,-0.82 8.63,-1.72 1.35,-0.3 1.79,-0.81 3.19,-1.42l90.41 -22.52c4.37,-1.63 11.15,-1.79 15.52,-4.25 0.86,-6.46 -2.68,-35.09 1.86,-46.65 1.04,-2.66 0.65,-3.96 2.18,-6.49 1.76,-2.91 1.69,-0.98 1.23,-5.97 -2.46,-0.18 -23.17,4.57 -24.95,5.2 -1.07,0.37 -19.73,3.48 -25.81,5.4l-18.21 3.31c-3.16,0.5 -4.69,1.56 -7.64,2.02l-18.3 3.31c-3.91,0.79 -3.16,1.52 -8.58,1.99 -3.75,0.32 -5.51,1.06 -8.76,1.87l-18.34 3.37c-3.46,0.4 -5.92,1.05 -8.24,3.17zm-71.13 287.71c-7.62,0.03 -11.89,2.27 -16.17,3.18 -10.08,2.16 -37.88,10.15 -45.75,10.47l1.42 -63.38c5.48,-4.18 22.65,-5.44 27.82,-6.7 7.72,-1.88 21.35,-5.88 29.03,-4.62 4.5,0.74 5.7,0.82 9.57,-0.81l25.42 -8.43 54.68 -10.97c1.93,-0.78 1.3,-0.48 2.46,-1.58 -5.47,0.11 -22.88,3.4 -27.22,5.06 -3.33,1.28 -8.29,0.92 -13.06,2.54l-25.61 5.98c-5.7,1.71 -19.88,7.86 -24.44,6.82 -2.43,-0.55 -3.16,-1.67 -6.54,-1.46 -2.8,0.17 -4,1.4 -6.35,1.89 -2.38,0.5 -4.39,0.3 -6.87,1.03 -4.71,1.4 -14.62,3.74 -19.61,4.13 -6.1,0.49 -7.49,2.17 -12.86,2.64 -5.89,0.52 -8.23,1.34 -8.38,7.29 -0.19,7.85 -1.83,59.59 -0.43,62.13 1.67,1.79 4.8,-0.23 7.38,-0.62l31.45 -7.7c8.78,-1.25 4.14,-1.02 8.03,-2.14 3.1,-0.89 4.65,-0.65 8.07,-1.87 4.46,-1.6 5.55,-0.23 7.96,-2.88zm-123.74 2c-2.8,-2.5 -12.06,-4.19 -15.36,-5.28 -2.88,-0.95 -5.04,-0.75 -7.97,-2.03l-39.09 -11.13c-12.25,-2.71 -29.86,-9.18 -38.42,-10.9l-24.38 -6.71c-5.96,-1.6 -27.24,-6.8 -30.56,-9.26 -17.42,-12.9 -19.52,-69.22 -0.52,-73.51 8.02,-1.81 11.82,1.98 18.76,2.49 -0.62,-0.82 -1.04,-1.81 -3.49,-2.62 -2.11,-0.7 -10.64,-2.92 -12.73,-2.61 -6.37,0.94 -8.97,3.71 -12.38,8.86 -5.95,8.95 -6.57,34.92 -3.01,45.19 1.17,3.37 0.14,5.2 1.8,8.15 2.23,3.94 0.78,2.64 3.32,6.58 5.63,8.73 7.15,10.28 18.77,12.81 3.21,0.7 3.67,1.61 7.82,2.33 3.69,0.63 4.72,1.68 8.18,2.34 4.73,0.9 4.3,1.9 7.07,2.42 5.22,1 3.82,-0.39 8.34,1.93 3.81,1.96 2.15,-0.5 7.63,2.3l25.15 6.43c2.81,0.69 2.98,1.53 7.34,2.36 3.96,0.75 3.35,1.61 8.54,2.38l15.31 4.64c1.52,0.34 3,0.28 4.45,0.66 2.78,0.74 1.47,0.9 3.08,1.61l25.09 6.51c3.33,1.19 13.57,4.4 17.26,4.06zm219.65 -85.82c6.54,0 77.12,-16.42 93.25,-17.88 -0.42,9.65 -5.51,10.94 -4.6,39.85 0.13,4.11 1.51,11.32 1.09,14.27 -5.08,2.81 -34.61,8.59 -44.52,11.34l-14.58 5.06c8.93,-0.07 22.06,-5.37 30.94,-7.18 3.92,-0.79 4.33,-1.33 7.28,-2.13 3.08,-0.83 5.03,-0.24 8,-1.44 6.01,-2.41 8.89,-1.33 14.39,-4.77 0.62,-6.69 -3.81,-31.31 1.56,-44.17 1.05,-2.5 0.78,-3.79 1.66,-6.2 1.16,-3.19 2.15,-2.03 1.74,-6.93 -3.92,-0.73 -19.86,3.68 -24.41,4.26 -2.15,0.27 -4.54,0.13 -6.53,0.75 -2.77,0.85 -1.4,1.29 -5.46,1.69 -11.14,1.08 -6.19,1.36 -12.3,2.49 -2.31,0.42 -4.37,0.2 -6.56,0.85 -2.07,0.61 -2.29,1.38 -4.8,1.76 -2.34,0.35 -4.28,0.21 -6.66,0.77 -2.37,0.55 -3.39,1.24 -5.53,1.62l-11.6 2.47c-2.64,0.48 -6.67,0.3 -9.38,1.4 -3.57,1.45 -1.29,-0.21 -2.98,2.12zm1252.24 -1422.62c-0.85,3.16 -3.44,5.48 -5.32,8.45 -4.07,7.35 -7.73,15.56 -8.1,25.94l-0.12 3.28 0.02 14.16 -0.14 15.48 0.01 12.91 0.13 15.5 -0.09 13.4 0.06 15.78 -0.03 12.77 -0.01 15.83 0.04 13.25 0.01 15.29 -0.06 13.26 0.04 15.82 -0.59 10.35c0.58,1.1 1.85,11.32 3.82,17.36 2.01,6.17 5.12,9.99 7.29,15.05 2.26,1.12 2.53,1.96 3.17,4.03 0.21,0.14 0.51,0.12 0.61,0.45l10.78 9.96 2.69 1.3c7.51,3.01 10.83,5.46 20.25,7.2 7.62,1.4 17.96,1.1 25.98,0.92 10.01,-0.22 45.36,-1.11 52.98,0.58 0.71,48.08 1.69,41.07 -20.34,41.28 -45.88,0.42 -41.69,-3.79 -42.25,19.76l0.07 4.33 6.83 0.29 228.67 -0.12c3.21,-31.68 -4.96,-23.33 -39.2,-24.14 -11.45,-0.27 -23.1,3.4 -23.15,-9.25 -0.05,-10.67 0.21,-21.59 0.03,-32.22 10.66,-2.01 54.6,0.13 73.01,-0.84 9.42,-0.5 12.97,-2.39 20.82,-4.84 1.43,-1.6 6.99,-4.24 9.02,-5.64 14.77,-10.22 20.13,-26.26 20.98,-27.18 5.26,-21.35 3.05,-83.03 3.09,-108.86 0.03,-17.01 0.95,-81.89 -0.01,-97.35 -0.31,-5.09 -1.59,-8.24 -2.34,-13.01 -0.91,-1.29 -2.14,-4.14 -2.17,-6.81l-2.19 -2.66c-6.1,-8.94 -6.76,-11.69 -16.45,-18.92 -4.39,-3.29 -8.33,-5.36 -12.58,-7.33 -4.45,-2.08 -13.26,-3.22 -15.58,-4.51l-261.79 0c-3.96,2.19 -10.54,0.92 -21.14,7.13 -8.28,4.86 -13.07,10.29 -16.75,12.57zm330.72 223.46l-0.46 -3.88c2.1,-3.29 0.76,-12.22 0.76,-17.02 0.01,-6.06 0.09,-12.09 0.06,-18.15 -0.08,-12.09 -0.03,-24.18 -0.06,-36.28 -0.05,-24.19 0.04,-48.39 0.07,-72.58 0.01,-22.46 3.48,-48.67 -9.96,-62.16 -16.92,-17 -32.21,-12.89 -59.42,-12.92 -48.35,-0.06 -96.71,0.06 -145.06,-0.01 -22.92,-0.03 -49.95,-1.29 -72.38,0.06 -20.4,1.23 -35.71,15.26 -37.48,35.02 -1.9,21.12 -0.06,114.23 -0.27,144.34 -0.14,20.97 -3.19,51.18 8.68,63.45 17.36,17.95 27.93,13.92 57.93,14.26 48.29,0.56 96.75,-0.46 145.06,0.02 23.69,0.24 48.86,0.58 72.47,-0.07 22.74,-0.62 37.16,-13.5 40.06,-34.08zm-297.36 -200.01l-3.9 4.34 -2.63 6.95c-1.46,13.19 -0.8,33.09 -0.63,47.16l-0.02 12.71 0.01 73.47 0 12.71c-0.1,12.39 -0.96,33.47 1.06,44.58 0.17,0.3 1.02,1.85 1.43,2.66 0.09,0.18 0.8,1.61 0.84,1.71 0.79,1.81 0.2,-0.04 0.61,1.68 4.67,2.23 4.03,4.88 11.83,6.04 5.03,0.75 12,0.24 17.58,0.4 31.64,0.91 73.71,-0.07 106.07,-0.15 34.16,-0.09 72.59,0.92 106.07,0.19 14.42,-0.31 20.78,1.55 32.63,-3.57 0.47,-2.11 1.5,-2.13 3.14,-4.13 1.65,-2 1.97,-3.23 2.86,-4.83 1.98,-10.85 1.01,-89.24 0.86,-106.27l0.05 -80.5c-0.45,-4.14 -1.34,-7.15 -3.41,-10.12 -2.5,-3.58 -4.66,-3.91 -6.87,-6.94 -3.12,-0.1 -3.66,-0.97 -7.62,-1l-19.82 -0.2 -12.7 0.04 -102.44 -0.02 -12.7 0 -102.44 0.07 -9.86 3.02zm-89.97 387.17l-0.58 0.23c-0.14,0.22 -0.35,0.48 -0.47,0.61l-12.85 10.75 -1.9 3.55c-1.93,5.04 -4.18,8.1 -4.21,14.47 -0.1,24.83 19.83,28.33 24.11,30.85l442.89 0c3.68,-2.23 7.79,-2.95 12.21,-6.03 7.74,-5.41 11.63,-14.77 11.59,-24.82 -0.03,-6.37 -2.28,-9.43 -4.21,-14.47 -1.61,-1.44 -4.91,-5.17 -5.9,-6.95l-9.37 -7.92 -3.01 -1.81c-0.48,-0.47 -0.78,-0.94 -1.11,-1.37 -0.07,-0.08 -0.26,-0.22 -0.31,-0.46 -0.04,-0.24 -0.2,-0.3 -0.28,-0.46 -3.7,-1.63 -2.77,-2.05 -5.93,-4.62 -2.25,-1.83 -3.43,-1.86 -5,-5.22 -2.24,-0.67 -16.64,-12.86 -17.88,-15.1 -17.14,-8.81 -14.69,-21.83 -39.62,-21.85l-184.06 -0.08c-40.76,0 -81.67,-0.3 -122.42,0.03 -12.77,0.11 -14.94,2.11 -22,8.32l-49.69 42.35zm362.74 -15.24c11.35,0 25.75,2.02 25.55,-9.58 -0.21,-12.59 -16.03,-10.22 -25.55,-10.22 -27.92,0 -17.52,16.91 -13.27,18.96 3.15,1.52 9.65,0.84 13.27,0.84zm-262.3 -1.41l-0.04 0.31c9.07,-4.12 7.64,-16.21 -1.66,-18.13 -5.05,-1.04 -26.34,-1.19 -30.57,0.76 -8.23,3.8 -7.29,16.82 2.05,18.32 4.37,0.7 27.71,1.21 30.22,-1.26zm46.53 1.47c11.34,0 26.07,2.12 29.18,-5.8 6.73,-17.17 -19.75,-13.88 -29.18,-13.89 -7.85,0 -14,1.24 -13.8,10.06 0.17,7.85 6.08,9.63 13.8,9.63zm56.82 -11.45l11.32 -0.61 0.08 10.6 -4.44 0.43c2.37,1.88 26.95,1.85 29.28,0l-9.51 -0.49 0.26 -10.44 13.2 0 0.52 7.86c3.99,-3.18 3.52,-8.63 0.55,-12.05 -3.25,-3.76 -7.66,-3.49 -13.76,-3.62 -12.2,-0.26 -24.41,-2.8 -27.5,8.32zm6.96 10.42l4.44 -0.43 -0.08 -10.6 -11.32 0.61c-1.1,5.55 2.17,9.92 6.96,10.42zm29.28 0c1.97,-0.17 1.27,0.24 2.83,-0.7 3.44,-2.06 1.16,-0.17 1.64,-2.37l-0.52 -7.86 -13.2 0 -0.26 10.44 9.51 0.49zm50.18 1.03c10.86,0 24.1,1.87 26.97,-6.31 5.54,-15.82 -15.61,-13.35 -22.44,-13.38 -9.4,0 -18.97,-1.24 -20.48,7.62 -1.83,10.68 6.76,12.07 15.95,12.07zm-248.16 20.91c-7.13,0.89 -11.97,6.99 -7.93,14.35 3.59,6.51 12.28,5.38 20.38,5.26 49.18,-0.72 102.45,0.05 152.3,-0.14 33.83,-0.13 67.72,0.13 101.54,0.16 16.83,0.02 33.98,-0.44 50.77,-0.08 11.19,0.23 41.21,1.33 50.69,-0.32 6.17,-1.08 10.64,-8.28 6.81,-14.73 -3.65,-6.17 -12.44,-4.68 -20.33,-4.66 -16.82,0.04 -33.98,-0.45 -50.77,-0.09 -68.3,1.46 -134.3,-1.29 -203.07,0.04 -19.92,0.39 -87.98,-1.34 -100.39,0.21zm-250.9 -433.84c-29.56,3.83 -44.42,13.78 -63.28,32.42 -56.01,55.32 -111.54,112.42 -167.59,167.58 -7.48,7.36 -16.52,15.51 -23.25,24.4 -14.14,18.62 -22.95,45.09 -18.55,74.76 7.09,47.83 51.63,88.59 107.89,82.34 28.58,-3.17 45.04,-14.73 62.99,-32.45 56.01,-55.28 111.53,-112.42 167.58,-167.58 7.49,-7.36 16.53,-15.52 23.26,-24.4 31.34,-41.35 25.03,-101.85 -16.21,-135.56 -16.77,-13.7 -43.64,-25.29 -72.84,-21.51zm-87.56 215.42c-3.85,-1.94 -17.83,-16.7 -18.84,-18.88 -1.22,-0.42 -0.03,0.21 -1.31,-0.7 -4.98,-3.53 -40.07,-41.9 -44.78,-43.72 -6.15,4.87 -13.63,13.35 -19.45,19.17 -6.6,6.6 -12.58,12.62 -19.21,19.21 -13.04,12.95 -25.46,25.44 -38.45,38.44 -29.72,29.73 -30.52,79.19 -0.41,109.26 30.11,30.07 78.67,29.68 108.88,-0.02l77.23 -77.49c-1.31,-3.26 -31.45,-32.25 -38.48,-39.37 -1.81,-1.83 -4.41,-3.82 -5.18,-5.9zm16.68 59.64c-18.46,-1.05 -64.68,-0.13 -86.22,-0.13 -12.22,0 -80.05,-0.85 -86.1,0.42 -2.85,9.58 1.15,26.51 4.54,34.64 12.29,29.38 44.19,48.48 78.95,40.25 23.49,-5.56 35.72,-21.23 47.94,-33.46 6.96,-6.98 13.38,-13.41 20.36,-20.37 3.95,-3.93 18.76,-17.77 20.53,-21.35zm-62.48 -141.98c1.21,2.68 7.41,8.7 10.08,10.22 3.69,-1.92 17.24,-16.48 21.23,-20.52 11.09,-11.24 54.42,-55.24 63.48,-62.57 62.46,-50.52 105.52,-3.91 120.65,1.76 -3.33,-7.37 -16.08,-17.77 -23.02,-22.83 -8.5,-6.2 -18.82,-11.61 -30.8,-14.62 -28.75,-7.22 -52.99,4.19 -69.68,17.47 -10.43,8.29 -35.35,34.18 -46.34,45.13 -7.77,7.74 -14.93,14.92 -22.68,22.67l-22.92 23.29zm26.96 63.46l0 0zm-630.14 -137.81l-10.77 0.2c-4.22,-15.81 -9.86,-23.34 -28.91,-23.12 -12.6,0.15 -20.91,2.23 -26.69,12.71 -1.78,3.22 -2.18,7.25 -3.81,9.61 -2.18,1.27 -14.1,2.27 -17.89,3.41 -15.67,4.7 -28.33,13.99 -37.65,26.59 -16.19,21.89 -12.96,42.56 -12.99,73.63 -0.04,28.84 0,57.67 0.02,86.51 0.03,32.34 -0.61,49.57 17.39,69.22 16.21,17.69 30.17,23.49 62.91,23.71 28.8,0.2 57.63,0.09 86.43,0.05l32.15 -0.05c8.56,0.18 8.28,8.7 29.2,24.93 37.57,29.17 88.55,39.5 135.56,24.85 49.66,-15.48 70.6,-49.39 76.22,-53.06 2.13,-1.39 4.53,-2 7.21,-3.42 2.66,-1.42 4.38,-2.35 6.81,-3.93 4.98,-3.23 8.29,-6.15 12.21,-10.08 18.84,-18.86 20.36,-32.35 20.41,-65.98 0.05,-28.84 0.1,-57.67 0.06,-86.51 -0.03,-29.6 3.35,-54.09 -10.36,-76.07 -9.19,-14.74 -28.91,-31.42 -53.75,-32.61 -28.57,-1.37 -57.83,0.76 -86.26,-0.45 -1.92,-12.01 2.02,-23.13 -2.77,-35.44 -3.47,-8.91 -10.57,-15.81 -19.73,-19.51 -10.95,-4.41 -60.06,-2.42 -75.68,-2.42 -15.04,0 -65.88,-1.75 -76,2.11 -29.53,11.29 -21.47,39.36 -23.32,55.12zm171.61 62.58c-35.06,3.56 -65.61,17.09 -87.35,42.32 -19.85,23.05 -35.79,53.05 -32.87,96.27 4.52,67.1 65.57,125.06 139.66,118.67 92.03,-7.95 148.01,-104.77 104.74,-188.72 -14.41,-27.97 -39.26,-49.34 -68.71,-60.49 -16.25,-6.16 -36.25,-10 -55.47,-8.05zm-1.62 17.44c-38.18,5.22 -54.66,17.74 -73.77,37.75 -16.72,17.5 -30.79,49.59 -27.44,83.44 5.78,58.38 56.22,107.56 123,101.29 57.4,-5.38 107.36,-56.84 101.22,-121.48 -6,-63.06 -65,-108.95 -123.01,-101zm-146.91 -56.92c-25.31,1.91 -92.33,-4.05 -110.33,3.81 -37.21,16.26 -27.39,52.47 -28.44,86.31 5.23,-1.81 10.44,-8.58 25.59,-13.43 19.91,-6.39 85.04,-1.98 114.23,-3.47 10.94,-13.32 8.29,-14.21 25.28,-28.09 21.81,-17.83 52.25,-27.86 81.91,-24.83 8.29,0.85 14.73,3.38 24.11,2.48 8.43,-0.8 15.03,-2.34 24.07,-2.4 44.32,-0.26 84.75,19.34 111.48,48.76 6.37,7.01 6.68,6.44 15.88,10.83 2.93,1.39 6.08,3.01 8.83,4.56 3.63,2.03 5.48,4.37 9,5.47 -0.36,-14.82 1.81,-45.87 -2.09,-57.86 -12.76,-39.2 -53.28,-32.09 -87.85,-32.05 -19.82,0.02 -40.48,0.65 -60.2,-0.01 -4.31,-18.53 7.05,-52.76 -8.85,-56.99 -6.04,-1.61 -82.29,-0.53 -99.35,-0.52 -7.77,0.01 -27.18,-0.92 -33.62,0.3 -10.77,2.03 -9.35,12.87 -9.41,23.79 -0.05,9.04 1.05,25.25 -0.24,33.34zm56.83 174.53c3.09,-0.77 6.97,-4.88 9.8,-7 3.44,-2.57 6.91,-4.86 10.59,-7.22 49.62,-31.9 112.65,-30.23 161.34,2.4 4.1,2.75 18.54,14.61 19.98,15.02 1.7,-34.66 -9.08,-58.84 -26.29,-77.36 -63.11,-67.95 -178.92,-23.89 -175.42,74.16zm-47.1 9.14c-4.44,-118.68 83.32,-144.75 90.56,-152.66 -75.73,-1.51 -127.97,76.38 -94.44,147.01 1.33,2.78 1.7,3.87 3.88,5.65zm38.92 -217.33c-17.53,4.07 -17.75,27.9 -1.52,33.02 4.19,1.33 51.32,1.56 55.89,0.4 17,-4.33 17.16,-27.33 1.62,-32.95 -5.17,-1.87 -49.79,-1.91 -55.99,-0.47zm-1067.64 552.74c-35.22,4.07 -61.39,13.83 -88.07,28.38 -12.73,6.95 -24.04,15.39 -34,23.28 -2.93,2.32 -4.85,4.45 -7.61,6.68 -26.54,21.43 -52.63,63.5 -63.74,96.04 -10.83,31.69 -15.46,66.52 -11.26,102.65 13.8,118.56 120.67,219 257,203.76 118.28,-13.22 218.93,-121.03 203.79,-256.82 -13.15,-117.98 -121.08,-219.58 -256.11,-203.97zm16.76 447.37c-8.65,-4.34 -18.07,-2.4 -38.65,-14.35 -5.51,-3.21 -10.99,-7.05 -15.52,-10.73 -24.31,-19.77 -41.9,-56.5 -38.15,-94.02 2.61,-26.17 17.13,-54.59 35.85,-69.06 31.11,-24.05 37.84,-22.51 75.92,-30.2 51.92,-10.49 99.08,-54.69 91.97,-118.99 -1.64,-14.76 -6.08,-28.64 -12.5,-39.96 -3.9,-6.89 -6.27,-9.86 -10.56,-15.64 -73.72,-99.24 -297.7,-9.33 -296.77,177.18 0.33,66.5 29.87,117 61.36,150.03 28.24,29.63 83.92,65.4 147.05,65.74zm2.05 -359.16c-37.71,11.41 -21,65.94 15.8,55.65 12.99,-3.63 24.32,-18.19 19.93,-35.24 -3.44,-13.36 -17.71,-25.86 -35.73,-20.41zm1.98 222.72c-14.63,2.53 -27,16.1 -23.79,33.89 6.66,36.86 62.93,27.55 56.94,-10.2 -2.27,-14.3 -16.49,-26.58 -33.15,-23.69z"/>
   <g>
    <path class="fil1" d="M1127.61 1346.62c-10.19,20.59 20.87,37.55 32.25,15.54 9.93,-19.22 -20.96,-38.39 -32.25,-15.54zm10.18 131.12c-9.71,22.27 23.36,36.57 33.37,13.08 8.03,-18.85 -23.59,-35.47 -33.37,-13.08zm-75.31 -67.49c-11.71,22.61 20.87,37 31.65,15.8 9.4,-18.48 -20.16,-38.03 -31.65,-15.8zm-7.68 66.08c-9.99,23.66 23.42,34.5 32.34,14.34 8.51,-19.17 -22.66,-37.28 -32.34,-14.34zm77.53 -60.75c-0.76,3.79 -3.14,6.01 0.83,12.58 2.76,4.59 7.22,7.75 11.38,9.03 9.1,2.79 18.98,-3.13 21.57,-12.75 5.51,-20.4 -28.69,-34.11 -33.78,-8.86zm-63.91 -65.69c-1.52,8.2 -0.82,17.63 12.3,20.94 7.16,1.78 18.07,-1.77 21.35,-12.15 6.79,-21.42 -28.82,-34.78 -33.65,-8.79zm-143.57 967.01c5.29,0.07 7.99,-3.17 12.47,2.9 4.73,6.4 -0.02,7.2 -1.96,12.71 -3.67,10.51 6.06,14.26 15.11,12.17 8.42,-18.68 -15.89,-21.57 -30.56,-47.91 10.45,-15.11 15.48,-3.35 26.86,8.49 7.66,7.97 18.68,16.72 21.96,27.21 4.64,14.73 -7.29,36.98 -34.45,28.86l1.56 49.06c0.59,11.97 -2.78,35.63 -6.88,49.8 -24.87,86.35 -93.35,112.3 -103.34,198.25 -3.7,31.8 -2.83,62.08 12.91,100.11 60.14,145.31 251.51,153.06 379.25,117.82 73.1,-20.16 146.82,-88.72 150.91,-161.29 7.49,-132.82 -169.1,-212.12 -86.48,-400.77 23.08,-52.67 44.52,-95.48 27.06,-149.51 -4.2,-12.99 -14.89,-41.44 -33.46,-38.94 -26.05,7.27 2.42,115.97 -76.85,102.87 -21.42,-3.53 -36.4,-14.48 -44.76,-13.17 1.55,29.15 -0.08,88.24 2.25,104.26 40.37,9.73 81.18,-30.25 90.24,-33.45 22.57,-7.97 19.92,16.93 14.65,30.23 -40.38,102 -45.54,115.54 6.99,220.25 14.25,28.39 32.47,60.71 44.4,89.73 6.38,15.56 11.84,30.73 12.43,44.66 0.63,15.35 -6.27,34.87 -26.54,30.43 -31.08,-6.81 -57.52,-36.78 -88.19,-53.98 -23.14,-13 -63.26,-27.49 -88.05,-21.81 -2.46,6.42 -3.33,56.57 -0.85,63.51l30.04 2.29c5.99,7.53 3.81,14.58 3.94,22.94 0.57,32.15 0.3,25.77 -58.6,25.1 -59.85,-0.7 -64.47,7.68 -59.29,-40.42 1.85,-17.28 19.31,-8.19 30.61,-11.39 2.39,-7.98 2.54,-37.87 1.09,-46.73 -9.82,0.26 -33.81,11.76 -56.08,7.51 -23.31,-4.44 -31.64,-26.51 -35.28,-46.04 -6.57,-35.19 6.29,-71.06 24.77,-110.24 19.7,-41.82 34.41,-71.72 16.76,-110.55 -8.38,-18.46 -40.75,-66.72 -2.41,-79.69 11.53,-3.92 18.32,-0.74 27.33,-3.2l1.11 -32.63c-0.26,-3.09 -0.02,-1.52 -0.69,-3.68 -3.94,0.33 5.48,1.77 -3.53,-0.39 -4.61,-1.11 -32.65,-15.65 -16.37,-40.92 -9.05,-1.31 -52.35,22.66 -73.22,-22.68 -16.32,-35.48 0.28,-62.6 -22.77,-79.06 -35.28,6.25 -41.96,68.15 -40.48,94.38 1.48,26.34 21.96,86.2 36.39,102.91zm-51.32 309.46c-0.18,0.41 -0.31,0.85 -0.44,1.26 -0.13,0.44 -0.26,0.85 -0.37,1.26 -0.11,0.42 -0.22,0.83 -0.3,1.22 -0.09,0.42 -0.16,0.81 -0.22,1.2 -0.09,0.41 -0.13,0.78 -0.18,1.17 -0.04,0.4 -0.08,0.77 -0.1,1.16 -0.03,0.37 -0.05,0.74 -0.05,1.11 0,0.35 0,0.72 0,1.07 0.02,0.37 0.05,0.71 0.07,1.06 0.04,0.35 0.08,0.68 0.13,1.02 0.04,0.33 0.11,0.66 0.17,0.98 0.07,0.33 0.15,0.66 0.24,0.98 0.07,0.31 0.18,0.61 0.26,0.92 0.11,0.3 0.22,0.61 0.33,0.91 0.11,0.28 0.24,0.59 0.37,0.87 0.13,0.29 0.26,0.57 0.41,0.83 0.15,0.28 0.31,0.54 0.46,0.81 0.15,0.26 0.33,0.52 0.5,0.78 0.17,0.24 0.35,0.5 0.52,0.74 0.2,0.24 0.37,0.46 0.59,0.7 0.2,0.23 0.39,0.45 0.59,0.67 0.22,0.22 0.43,0.44 0.65,0.63 0.22,0.22 0.44,0.41 0.65,0.61 0.24,0.2 0.48,0.39 0.72,0.57 0.24,0.19 0.48,0.37 0.72,0.54 0.24,0.18 0.5,0.33 0.76,0.5 0.24,0.15 0.5,0.31 0.76,0.46l0 0c0.29,0.15 0.55,0.28 0.81,0.43l0 0c0.28,0.13 0.54,0.27 0.83,0.4 0.28,0.1 0.54,0.24 0.82,0.34 0.29,0.11 0.59,0.22 0.87,0.33 0.29,0.09 0.57,0.17 0.87,0.26 0.29,0.11 0.59,0.18 0.88,0.26 0.3,0.07 0.61,0.13 0.91,0.2l0 0c0.28,0.06 0.59,0.13 0.89,0.17 0.31,0.05 0.61,0.09 0.92,0.13 0.3,0.03 0.61,0.07 0.91,0.09 0.33,0.02 0.63,0.04 0.94,0.04l0 0c0.3,0.03 0.61,0.03 0.93,0.03l0 0c0.31,0 0.61,-0.03 0.92,-0.05 0.3,0 0.63,-0.02 0.93,-0.06 0.31,-0.02 0.61,-0.07 0.92,-0.11 0.3,-0.05 0.61,-0.09 0.91,-0.15l0 0c0.31,-0.05 0.63,-0.11 0.92,-0.18 0.3,-0.09 0.6,-0.15 0.91,-0.24l0 0c0.3,-0.08 0.59,-0.17 0.89,-0.28 0.31,-0.09 0.59,-0.2 0.89,-0.31l0 0c0.29,-0.1 0.57,-0.23 0.87,-0.37 0.29,-0.1 0.57,-0.23 0.85,-0.39l0 0c0.29,-0.13 0.57,-0.28 0.83,-0.43 0.28,-0.18 0.55,-0.33 0.83,-0.5l0 0c0.26,-0.18 0.52,-0.35 0.78,-0.53 0.28,-0.19 0.52,-0.39 0.79,-0.58 0.26,-0.2 0.5,-0.4 0.76,-0.61 0.24,-0.22 0.48,-0.44 0.72,-0.68l0 0c0.23,-0.22 0.45,-0.45 0.69,-0.72 0.22,-0.24 0.44,-0.47 0.65,-0.74l0 0c0.22,-0.26 0.44,-0.52 0.66,-0.8l0 0c0.19,-0.28 0.39,-0.57 0.59,-0.85 0.19,-0.28 0.39,-0.59 0.56,-0.89 0.2,-0.31 0.37,-0.63 0.55,-0.94 0.15,-0.32 0.32,-0.65 0.47,-1 0.16,-0.33 0.31,-0.67 0.46,-1.02 0.13,-0.37 0.28,-0.72 0.39,-1.09 7.73,-22.16 -27.34,-38.7 -36.56,-13.19zm90.89 190.41c-9.34,24.64 26.25,38.62 36.68,14.43 9.64,-22.4 -26.84,-40.33 -36.68,-14.43zm-87.61 -66.02c0,0.35 0.02,0.68 0.05,1.03l0 0c0.02,0.32 0.04,0.65 0.08,0.98 0.05,0.32 0.09,0.65 0.16,0.98 0.04,0.3 0.1,0.63 0.19,0.93 0.07,0.33 0.15,0.63 0.24,0.94l0 0c0.09,0.3 0.2,0.59 0.31,0.89 0.1,0.28 0.21,0.59 0.34,0.87 0.11,0.28 0.24,0.57 0.4,0.85l0 0c0.13,0.28 0.26,0.54 0.41,0.83l0.02 0c0.13,0.26 0.31,0.52 0.46,0.78 0.17,0.26 0.35,0.52 0.52,0.76 0.17,0.26 0.37,0.5 0.54,0.74 0.2,0.24 0.4,0.48 0.61,0.72 0.2,0.22 0.4,0.46 0.61,0.68l0 0c0.22,0.21 0.44,0.43 0.66,0.65 0.24,0.19 0.45,0.41 0.69,0.61 0.24,0.19 0.48,0.39 0.72,0.59 0.24,0.19 0.5,0.37 0.74,0.54 0.26,0.17 0.52,0.37 0.79,0.52l0 0c0.26,0.18 0.52,0.33 0.78,0.5 0.26,0.15 0.54,0.31 0.83,0.46 0.26,0.13 0.54,0.28 0.82,0.41l0 0c0.29,0.13 0.57,0.26 0.85,0.37l0 0c0.31,0.13 0.59,0.24 0.87,0.35 0.31,0.13 0.59,0.22 0.89,0.33 0.31,0.09 0.59,0.17 0.9,0.26 0.3,0.09 0.61,0.17 0.91,0.24l0 0c0.31,0.09 0.61,0.15 0.92,0.19 0.32,0.07 0.63,0.14 0.93,0.18 0.31,0.04 0.63,0.09 0.94,0.11 0.3,0.04 0.63,0.06 0.93,0.08 0.31,0.03 0.63,0.03 0.94,0.05 0.33,0 0.63,0 0.94,0 0.32,-0.02 0.63,-0.05 0.95,-0.07 0.31,-0.02 0.61,-0.04 0.94,-0.08 0.3,-0.03 0.61,-0.07 0.91,-0.13 0.33,-0.05 0.63,-0.11 0.94,-0.18 0.3,-0.06 0.61,-0.13 0.91,-0.22 0.31,-0.08 0.61,-0.17 0.9,-0.26 0.3,-0.08 0.61,-0.19 0.89,-0.3 0.3,-0.11 0.59,-0.24 0.89,-0.37 0.28,-0.13 0.57,-0.26 0.85,-0.39 0.3,-0.16 0.59,-0.31 0.85,-0.46 0.28,-0.18 0.56,-0.33 0.83,-0.5 0.28,-0.18 0.54,-0.37 0.8,-0.57 0.26,-0.17 0.52,-0.39 0.78,-0.59 0.27,-0.21 0.53,-0.43 0.77,-0.65 0.24,-0.24 0.5,-0.46 0.74,-0.7 0.24,-0.26 0.45,-0.5 0.69,-0.76 0.22,-0.26 0.46,-0.52 0.68,-0.8 0.22,-0.29 0.43,-0.57 0.63,-0.87 0.22,-0.29 0.41,-0.59 0.61,-0.9 0.19,-0.32 0.39,-0.65 0.56,-0.98 0.2,-0.32 0.37,-0.67 0.55,-1.02 9.99,-20.37 -21.4,-42.64 -34.5,-18.83l-3.16 11.21zm158.14 -475.24c-10.13,-0.83 -15.83,18.8 -30.15,14.27 -5.96,-1.87 -11.86,-8.49 -13.04,-14.8 -1.26,-6.88 3.68,-11.16 10.27,-16.65 11.56,12.71 0.7,11.49 7.04,17.94 -0.07,-4.81 0.26,-17.05 -0.72,-20.14 -14.3,-3.63 -27.69,15.61 -12.67,31.26 17.17,17.87 37.29,-6.42 39.27,-11.88zm9.88 -12.85c2.94,-7.68 2.37,-16.28 2.87,-24.75 0.61,-9.99 1.59,-18.43 -1.26,-25.48l-21.51 8.92c-16.28,25.27 11.76,39.81 16.37,40.92 9.01,2.16 -0.41,0.72 3.53,0.39zm-1.92 13.11l-10.53 -8.38c-10.3,4.48 -14.65,15.86 -23.25,15.71 -9.64,-0.19 -10.01,-7.46 -9.18,-13.52 2.8,7.21 -5.36,5.36 8.9,14.54 8.86,-6.94 7.75,-6.92 7.22,-15.58 -0.45,-8.1 3.1,-12.95 -4.07,-18.41 -7.9,-6.06 -28.75,2.32 -29.66,21.98 -1.05,22.7 34.52,48.63 60.57,3.66zm-7.96 -0.26c-1.98,5.46 -22.1,29.75 -39.27,11.88 -15.02,-15.65 -1.63,-34.89 12.67,-31.26 0.98,3.09 0.65,15.33 0.72,20.14 -6.34,-6.45 4.52,-5.23 -7.04,-17.94 -6.59,5.49 -11.53,9.77 -10.27,16.65 1.18,6.31 7.08,12.93 13.04,14.8 14.32,4.53 20.02,-15.1 30.15,-14.27zm-66.2 3.48c-33.82,12.71 10.21,51.13 15.92,51.71 4.72,0.51 10.99,-2.78 6.42,-12.03 -1.77,-3.57 -10.32,-10.8 -13.39,-14.26 -10.49,-11.88 7.49,-17.24 -8.95,-25.42zm-43.9 37.91l7.4 38.12c1.42,5.27 -0.04,0.87 2.03,6.31 27.16,8.12 39.09,-14.13 34.45,-28.86 -3.28,-10.49 -14.3,-19.24 -21.96,-27.21 -11.38,-11.84 -16.41,-23.6 -26.86,-8.49 14.67,26.34 38.98,29.23 30.56,47.91 -9.05,2.09 -18.78,-1.66 -15.11,-12.17 1.94,-5.51 6.69,-6.31 1.96,-12.71 -4.48,-6.07 -7.18,-2.83 -12.47,-2.9zm43.9 -37.91c16.44,8.18 -1.54,13.54 8.95,25.42 3.07,3.46 11.62,10.69 13.39,14.26 4.57,9.25 -1.7,12.54 -6.42,12.03 -5.71,-0.58 -49.74,-39 -15.92,-51.71zm74.16 -3.22c-26.05,44.97 -61.62,19.04 -60.57,-3.66 0.91,-19.66 21.76,-28.04 29.66,-21.98 7.17,5.46 3.62,10.31 4.07,18.41 0.53,8.66 1.64,8.64 -7.22,15.58 -14.26,-9.18 -6.1,-7.33 -8.9,-14.54 -0.83,6.06 -0.46,13.33 9.18,13.52 8.6,0.15 12.95,-11.23 23.25,-15.71l10.53 8.38zm-12.84 -762.9c12.69,11 24.66,11.1 38.74,27.49 13.61,15.85 10,24.99 12.32,38.58l58.86 2.35c3.27,-13.33 -0.7,-22.53 13.34,-38.57 14.39,-16.46 26.73,-16.15 38.88,-25.88l-2.44 -47.52c-2.07,-22.07 -6.88,-134.17 -9.84,-143.27 -11.45,-5.61 -26.86,-10.77 -38.85,-15.82 -20.03,-8.43 -20.55,-12.1 -40.53,-4.83 -13.36,4.87 -26.47,9.99 -39.35,14.32 -16.09,5.4 -12.67,5.9 -15.11,34.08 -1.26,14.74 -12.08,147.78 -16.02,159.07zm95.55 828.91l18.99 6.6c3.28,-9.6 -0.4,-210.61 -0.66,-238.63l0.11 -94.48c-0.41,-16.87 -1.59,-31.02 -0.35,-48.61 1.03,-14.41 -0.26,-32.19 -0.65,-47.23l-1.15 -143.07c0.19,-34.37 1.45,-180.29 -2.4,-189.31 -6.22,4.84 -3.37,15.09 -3.46,21.84l-10.03 685.53c-0.26,14.98 -1.68,33.04 -0.4,47.36zm-71.35 5.01l19.53 -6.2 5.92 -377.56c-0.57,-112.99 3.92,-237.76 5.05,-353.56 0.06,-7.51 2.65,-17.21 -1.83,-23.5 -3.85,4.37 -3,16.32 -3.29,22.09l-6.53 167.27c-0.32,7.8 0.2,15.13 -0.13,22.92 -0.37,8.82 -0.85,15.57 -1.19,24.3l-11.78 333.17c-1.09,16.02 -0.33,31.26 -1.37,47.28l-4.38 143.79zm30.04 337.79c5.97,-5.87 2.22,-15.15 3.11,-33.06 0.59,-11.78 -0.04,-21.33 0.18,-33.74l5.66 -394.06c0,-5.87 1.11,-11.45 1,-17.52 -0.81,-43.08 2.09,-92.09 1.91,-136.3l3.94 -275.3c0.07,-7.08 0.55,-10.78 0.74,-16.18 0.24,-6.13 -0.63,-10.4 -0.34,-17.54l1.91 -103.91c0.26,-10.62 -0.37,-23.53 0.15,-33.74 0.33,-6.16 0.05,-12.97 0.29,-17.54 0.5,-9.36 2.87,-11.34 -3.83,-16.02 -7.6,4.78 -4.29,14.6 -4.81,32.1 -0.33,11.47 -0.31,23.36 -0.55,33.72l-1.15 68.82c-0.5,47.93 -2.18,92.92 -1.87,137.63 0.39,54.4 -2.72,90.68 -2.07,137.68l-2.81 206.45c1.39,25.92 -1.48,47.73 -1.24,68.8 0.5,47.32 -1.35,93.84 -2,137.65 -0.68,45.3 -0.63,89.53 -2.03,137.68 -0.72,24.51 -0.56,44.73 -0.87,68.8l-0.93 51.3c-0.59,8.89 -2.57,11.65 5.61,14.28zm24.21 0.46c3.72,-6.86 3.48,-125.74 3.5,-135.71 0.31,-135.28 5.22,-275.13 6.01,-411.58l4.11 -274c2.14,-81.52 0.52,-176.9 3.7,-256.39l-3.81 -15.93c-3.33,1.5 -3.5,3 -4.05,6.2l-15.45 1055.48c-0.22,21.35 -4.09,29.12 5.99,31.93zm13.43 -105.59c5.11,1.85 22.7,2.7 27.57,1.2 12.13,-3.74 8.52,-17.85 8.49,-25.25 -0.02,-7.66 3.7,-20.92 -7.85,-25.51 -4.99,-2 -22.49,-1.13 -27.69,0.63l-0.52 48.93zm-52.5 0.11c1.58,-5.27 3.67,-44.16 0.47,-51.61 -27.33,3.22 -31.32,-7.64 -31.03,25.66 0.21,28.39 1.45,28.06 30.56,25.95zm196.07 73.29c12.34,10.42 32.93,-8.75 17.78,-21.86 -14.52,-12.58 -31.89,9.93 -17.78,21.86zm-39.73 -328.98c-1.26,4.2 -1.8,9.77 6.47,11.47 5.16,1.07 9.75,-2.92 10.51,-8.1 1.24,-8.31 -13.21,-15.93 -16.98,-3.37zm-345.82 415.67c-0.24,0.42 -0.44,0.81 -0.63,1.2 -0.2,0.39 -0.39,0.81 -0.57,1.2 -0.15,0.39 -0.32,0.76 -0.48,1.15 -0.13,0.39 -0.28,0.76 -0.39,1.16l0 0c-0.13,0.37 -0.24,0.76 -0.35,1.13 -0.11,0.37 -0.19,0.74 -0.28,1.11 -0.07,0.37 -0.13,0.74 -0.2,1.11 -0.06,0.35 -0.11,0.72 -0.15,1.06l0 0c-0.04,0.35 -0.06,0.72 -0.09,1.07l3.14 -10.19zm-3.16 11.21c0,-0.34 0.02,-0.67 0.02,-1.02 0,0.35 -0.02,0.68 -0.02,1.02z"/>
   </g>
   <path class="fil1" d="M2069.93 2840.8c-1.54,-7.77 -4.58,-15.28 -8.38,-21.2 -0.43,-0.7 -0.67,-1.22 -1.19,-1.85 -1.37,-1.61 0,-0.44 -1.43,-1.3 -2.26,-7.31 -17.16,-18.06 -22.54,-20.89 -9.1,-4.86 -19.24,-8.23 -31.99,-8.31 3.38,19.69 1.23,31.17 -0.21,52.02l-8.56 126.27c-0.74,10.46 -2.04,14.88 -4.87,22.89 5.12,1.8 18.92,0.16 25.01,-1.35 21.71,-5.33 39.68,-21.7 46.76,-41.53 4.64,-13.01 5.02,-28.91 5.82,-44.45 0.39,-6.93 3.78,-43.64 2.59,-46.87 1.13,-2.76 -0.49,-10.59 -1.01,-13.43zm389.33 -303.33c-17.29,0.35 -80.42,2.49 -87.17,18.37 39.45,5.61 83.24,2.66 121.21,22.44 -25.49,-2.53 -57.38,-17.87 -106.63,-14.59 20,10.31 72.31,20.13 85.73,41.68 -48.01,-17.94 -20.47,-22.06 -112.73,-38.75 -1.05,-7.4 -1.18,-7.17 -2.75,-13.44 24.98,-11.84 81.13,-28.55 102.34,-15.71zm-80.11 -16.33l-5.74 -18.38c-4.03,-7.11 1.6,-10.7 5.56,-16.34 36.22,-2.22 22.43,33.51 0.18,34.72zm-62.63 654.44c108.37,-178.15 555.79,58.75 535.71,-290 -9.03,-156.93 -113.84,-172.66 -221.85,-228.11 -67.98,-34.9 -60.9,-80.79 -80.46,-143.98 -32.23,-104.1 -60.36,-81.09 -96.34,-127.48 68.89,-44.74 113.7,219.88 205.11,258.37 121.07,51 216.38,73.54 226.94,239.02 9.35,146.5 -74.63,238.12 -218.21,247.07 -220.53,13.73 -175.04,-17.92 -312.74,63.43 1.24,2.59 1.81,5.53 1.48,8.87 -1.83,18.57 -17.66,29.55 -37.13,30.93 -26.24,1.84 -40.04,1.2 -64.7,-1.46 -23.01,-2.49 -50.14,42.49 -83.36,53.56 -22.75,7.58 -38.26,4.27 -57.32,-2.57 -25.39,-9.12 -67.07,-47.71 -87.96,-49.45 -1.68,7.2 -8.82,18.5 -13.05,24.28 -6.19,8.47 -10.67,12.31 -18.9,18.42 -26.35,19.54 -35.86,11.6 -56.25,9.91 -3.16,11.83 -27.97,20.12 -38.96,20.44 -56.11,1.62 -58.04,-59.57 -12.55,-71.99 13.5,-3.69 12.1,-2.08 24.37,-1.06 -2.34,-28.2 -7.82,-55.08 -13.57,-79.75 -13.52,7.15 -28.33,11.7 -43.37,17.69l-41.43 17.93c3.81,7.97 8.22,23.43 10.59,33.53 4.53,19.26 -4.44,23.16 4.87,35.77 23.71,32.13 -12.99,70.69 -47.47,73.25l-7.18 0c-13.11,-1.04 -25.23,-7.9 -32.73,-23.07 -10.49,-21.2 5.03,-35.26 12.55,-46.5 -33.32,-2.78 -37.26,-8.59 -75.78,10.72 -41.15,20.64 -93,49.84 -140.99,34.77 -20.5,-6.45 -40.32,-24 -47.62,-43.99 -1.75,-4.75 -2.92,-9.37 -3.6,-13.83l0 -18.72c2.92,-18.81 14.36,-34.44 27.31,-46.84 0.26,-0.24 0.64,-0.57 0.88,-0.81 13.16,-12.18 26.58,-21.1 42.31,-30.65 19.88,-12.07 39.99,-19.18 59.44,-32.16 31.01,-20.67 21.08,-43.26 18.23,-70.54 -2.03,-0.88 -3.95,-1.86 -5.71,-2.93 -11.11,-6.77 -13.25,-13.47 -20.34,-27.62 -5.44,-10.88 -10.7,-22.5 -16.07,-33.75l-48.22 -101.46c-12.63,-26.58 0.67,-51.83 23.59,-59.7 13.7,-4.71 27.03,-1.1 35.53,4.3 10.41,6.61 13.72,13.33 20.33,27.57 10.45,22.56 21.73,45.09 32.18,67.62 10.36,22.37 21.11,45.33 32.17,67.67 8.41,16.96 5.34,33.88 -4.04,45.7 -0.52,5.24 -0.13,10.29 0.96,17.51 11.38,75.96 -38.81,96.49 -84.34,119.46 -13.94,7.02 -32.74,14.95 -43.39,24.47 -16.05,14.32 -42.39,43.32 -16.88,63.55 41.91,33.24 123.74,-40.05 178.42,-42.77 35.42,-1.78 36.82,4.77 61.08,6.79 -0.29,-12.61 -18.55,-47.15 -7.66,-60.26 7.69,-9.26 131.51,-59.74 153.52,-60.22 11.95,17.85 15.32,44.87 20.35,66.18 8.6,36.35 5.74,43.25 8.48,76.36 14.68,0 14.24,-2.51 23.38,-12.25 4.3,-4.59 3.55,-4.69 6.63,-10.34 38.39,-70.49 97.73,-6.98 142.99,15.82 44.86,22.57 43.4,-10.05 83.84,-36.62l46.96 -22.6c13.29,-4.42 40.63,-10.46 58.25,-7.76l1.72 0.28zm121.6 -297.2c-21.56,-53.21 -100.79,-138.02 -30.08,-187.55 -18.8,44.61 -24.21,54.42 5.19,98.95 49.56,75.09 73.57,110.24 42.8,199.79 -16.58,48.26 -52.54,39.85 -17.07,84.93 -21,-3.58 -31.43,-19.59 -22.87,-39.87 8.59,-20.36 23.34,-1.04 30.55,-38.82 8.79,-45.95 9.22,-73.65 -8.52,-117.43zm-25.21 -194.93c6.35,-27.63 9.74,-55.6 -15.41,-73.96 -10.99,-8.01 -21.6,-9.63 -33.31,-14.88 -16.06,-7.18 -17.29,-15.07 -27.28,-22.14 -20.61,3.38 -27.42,12.83 -42.55,18.75 7.17,-6.77 38.41,-24.43 39.6,-26.67l-22.17 0c9.19,-8.26 9.82,-2.1 18.12,-7.68 -10.26,-5.33 -18.93,-4.06 -30.53,-3.99 11.13,-7.78 20.05,-2.96 32.93,-3.24 7.73,-20.66 16.63,-43.03 24,-64.55 7.98,-23.29 20.42,-39 45.81,-43.22 -20.87,21.63 -25.56,4.22 -38.3,59.48 -5.92,25.69 -28.74,47.61 -7.33,73 17.29,20.51 42.16,15.57 60.04,37.95 15.35,19.22 18.8,59.11 -3.62,71.15zm213.05 373.14c72.24,-5.1 110.85,-22.29 130.55,-24.1 -9.82,28.36 -93.34,36.96 -119.15,38.31 -62.79,3.28 -90.6,-5.08 -149.71,6.31 22.98,-20.88 105.6,-18.21 138.31,-20.52zm-150.81 2.26c31.89,-46.64 48.47,-83.53 49.85,-142.68 0.46,-19.95 -3.51,-41.24 -2.09,-59.81 48.15,87.01 -3.28,194.29 -47.76,202.49zm275.23 -153.55c-36.85,1.91 -62.85,-16.51 -123.14,29.04 -7.95,6.01 -22.66,23.16 -26.5,25.4 1.28,-26.92 26.27,-60.38 51.65,-69.55 22.63,-8.17 83.34,-5.2 97.99,15.11zm-260.82 -450.45c-6.81,-7.87 -13.84,-31.17 -24.96,-45.25 -10.51,-13.29 -31.34,-26.12 -36.89,-34.12 41.46,4.36 65.02,38.75 61.85,79.37zm-76.93 -15.1c5.82,-9.27 12.49,-10.96 14.05,-24.33 1.68,-14.49 -3.64,-21.22 -7.34,-33.51 28.69,10.52 22.6,52.42 -6.71,57.84zm-634.57 787.24l0 0zm270.5 -400.16c-4.25,2.91 -3.16,4.46 -3.51,9.91 -0.23,3.64 -1.06,21.43 -0.1,23.92 1.31,3.45 5.45,5.52 9.85,2.64 3.59,-2.35 2.9,-15.56 3.22,-22.14 0.17,-3.12 0.79,-8.89 -0.54,-11.86 -1.41,-3.15 -5.52,-4.8 -8.92,-2.47zm-68.97 -118.29c1.8,4.44 11.17,19.31 16.02,30.41 6.43,14.73 7.93,21.45 12.21,32.03 0.5,1.23 -0.14,-0.14 0.46,1.07 1.7,3.29 6.87,1.37 16.08,4.04 4.96,1.43 9.58,3.62 13.54,4.68 -2.09,-13.68 -11.42,-36.95 -16.74,-49.4 -3.16,-7.44 -6.96,-14.69 -10.61,-21.6 -3.78,-7.13 -8.59,-13.55 -11.88,-19.89 -3.91,2.03 -13.98,14.79 -19.08,18.66zm-483.25 164.49c4.33,-2.21 7.68,-5.06 12.43,-7.42 4.06,-2.02 9.54,-4.2 13.05,-6.54 -1.09,-14.21 -0.38,-40.31 2.16,-54.68 0.94,-5.33 2.57,-11.79 3.09,-16.71 -1.85,-1.54 -21.88,-9.9 -24.26,-9.96 -7.92,18.47 -9.23,72.86 -6.47,95.31zm200.83 -301.34c-77.99,20.85 -144.57,75.18 -179.98,138.88 -9.19,16.52 -12.51,22.95 -19.52,40.67 -3.91,9.87 -2.41,7.83 16.92,15.89l25.3 10.52c11.46,4.69 7.67,3.4 16.07,-15.39 34.87,-78.37 109.62,-135.64 203.32,-142.08 59.71,-4.09 111.93,16.34 146.98,39.73 17.87,11.91 33,25.71 47.45,41.94 7.95,8.96 3.2,10.58 32.81,-19.93 15.29,-15.77 17.02,-12.33 1.97,-27.96 -14,-14.55 -25.3,-24.09 -40.69,-35.72 -20.57,-15.52 -54.39,-32.99 -80.78,-41.48 -50.52,-16.22 -107.39,-21.79 -169.85,-5.07zm7.36 6.27c-7.63,1.98 -22.31,3.8 -22.16,11.8 0.11,5.39 4.37,7.65 9.32,6.37 4.6,-1.17 9.16,-2.78 13.91,-4.02 19.11,-4.99 39.67,-7.79 58.91,-8.69 63.41,-2.96 103.1,16.44 108.58,16.87 4.79,0.35 7.98,-3.27 7.41,-7.64 -0.81,-6.3 -10.94,-8.04 -19.13,-10.79 -46.04,-15.34 -107.93,-16.63 -156.84,-3.9zm230.97 186.27c-13,5.1 -19.46,13.47 -23.61,23.25 -3.56,8.44 -3.82,25.74 -4.46,36.07 -1.54,24.61 -2.78,50.14 -5.06,74.74 -1.15,12.3 -1.5,24.87 -2.48,37.37 -0.77,9.78 -3.06,28.67 -1.19,38.18 8.03,40.8 64.11,45.78 79.88,7.65 4.23,-10.25 3.42,-23.89 4.5,-35.95 2.19,-24.78 3.63,-49.94 5.09,-74.81 0.81,-14.23 5.77,-65.84 3.77,-75.82 -4.89,-24.66 -30.87,-40.7 -56.44,-30.68zm-320.29 289.81c-1.4,-2.51 -4.77,-5.63 -6.94,-8.69 -4.2,-5.87 -13.39,-26.44 -16.8,-33.53 -7.32,-15.24 -14.65,-30.44 -21.73,-45.82 -6.96,-15.16 -14.53,-29.97 -21.51,-45.21 -7.23,-15.79 -16.91,-30.98 -19.68,-49.17 -22.67,7.8 -42.57,25.53 -48.16,48.98 -7.34,30.85 6.23,50.37 18.52,76.62 12.24,26.09 19.73,47.44 41.03,59.56 9.13,5.2 20.54,9.47 34.42,9.42 18.54,-0.07 26.11,-6.05 40.85,-12.16zm-95.95 -138.05c0.13,0.13 0.28,0.3 0.35,0.4l0.97 1.42c0.79,1.44 0.09,0.06 0.78,2.02 1.95,3.14 2.82,6.55 5.66,7.86 4.27,2 8.52,-1.3 8.97,-4.49 0.52,-3.47 -11.62,-28.32 -14.12,-30.02 -3.11,-2.1 -7.39,-0.95 -9.21,2.03 -3.64,5.87 5.56,14.69 6.6,20.78zm56.69 -84.12c-10.71,6.39 14.73,24.29 25.28,18.41 10.8,-6 -14.54,-24.81 -25.28,-18.41zm382.91 -58.85c-9.48,6.21 11.05,31.64 20.07,25.47 8.35,-5.71 -10.91,-31.48 -20.07,-25.47zm-199.15 523.42c0.76,9.81 5.81,14.74 12.49,16.06l17.49 -2.6c12.95,-5.56 25.01,-17.94 24.03,-30.52 -0.57,-7.71 -5.59,-11.16 -12.38,-11.61l-13.45 2c-14.26,4.61 -28.98,16.16 -28.18,26.67zm114.45 -17.95c0.73,9.81 5.78,14.71 12.42,16.09l17.52 -2.62c12.95,-5.56 25.01,-17.92 24.03,-30.53 -0.57,-7.74 -5.62,-11.13 -12.34,-11.61l-13.49 2.02c-14.27,4.6 -28.95,16.19 -28.14,26.65z"/>
  </g>
 </g>
</svg>
