<!-- Generated by IcoMoon.io -->
<svg version="1.1" xmlns="http://www.w3.org/2000/svg" width="32" height="32" viewBox="0 0 32 32">
<title>hi5</title>
<path fill="#a5aaaa" d="M14.644 15.885l-1.125-0.063v-2.415h5.070c-0.001 0.202-0.043 5.377 0.017 5.586l0.049 0.096-0.011-5.713-5.152-0.027-0.027 2.509 1.18 0.027z"></path>
<path fill="#a5aaaa" d="M19.259 21.537h-5.741v-2.416c0.291 0 0.961 0.051 1.129-0.065l-1.153 0.010c-0.067 0.297-0.061 2.186-0.008 2.501 0.487 0.082 4.259 0.023 5.396 0.027 0.030 0 0.158 0.002 0.179 0l0.196-0.058z"></path>
<path fill="#a5aaaa" d="M13.235 21.524l-5.25 0.013v-2.416c0.224 0 0.388 0.038 0.556-0.060l-0.577 0.007c-0.074 0.309-0.066 2.169-0.009 2.501 0.497 0.075 3.65 0.021 4.633 0.022 0.19 0.001 0.505 0.056 0.647-0.069z"></path>
<path fill="#fefefe" d="M1.951 12.508l1.163 0.034-0.029 6.557-1.152 0.010 0.010 2.455 5.738 0.001 0.018-2.477-0.631-0.009c0-1.014-0.187-3.042 0.737-3.271 0.744-0.184 0.732 0.582 0.731 1.19-0.002 0.683-0.014 1.384 0.003 2.065-0.168 0.098-0.332 0.060-0.556 0.060v2.416l5.25-0.013-0.003-2.434c-0.98-0.032-0.791 0.191-0.791-0.858 0.001-1.421 0.168-3.382-0.865-4.343-0.675-0.628-1.747-0.639-2.691-0.243-0.865 0.362-1.327 0.927-1.799 1.617l-0.019-5.202h-5.12l0.003 2.447z"></path>
<path fill="#fefefe" d="M14.644 15.885l0.004 3.172c-0.168 0.116-0.838 0.065-1.129 0.065v2.416h5.741l-0.005-2.452-0.6 0.005-0.049-0.096c-0.060-0.209-0.018-5.385-0.017-5.586h-5.070v2.415l1.125 0.063z"></path>
<path fill="#fefefe" d="M15.047 12.886h3.423l0.151-0.022-0.001-2.022-0.207-0.037-3.369 0.006z"></path>
<path fill="#333e40" d="M18.654 19.090l0.6-0.005 0.005 2.452-0.196 0.058c-0.021 0.002-0.149 0-0.179 0-1.137-0.004-4.91 0.055-5.396-0.027-0.053-0.316-0.059-2.205 0.008-2.501l1.153-0.010-0.004-3.172-1.18-0.027 0.027-2.509 5.152 0.027 0.011 5.713zM20.234 15.863c-0.013-0.407 0.962-4.979 1.124-5.801h7.765c0.026 0.463 0.058 2.824-0.034 3.141h-5.148c-0.179 0.109-0.046-0.125-0.15 0.228l-0.159 0.861c0.668-0.235 0.984-0.419 1.795-0.569 1.933-0.358 3.988 0.181 4.505 2.396 0.629 2.696-0.697 4.939-3.473 5.631-1.307 0.325-2.855 0.174-4.078-0.25-1.229-0.427-2.124-0.991-2.532-2.115-0.915-2.519 1.802-3.933 3.060-2.237 0.581 0.782 0.233 1.456 0.204 1.851 0.699 0.731 1.555 0.36 1.947-0.352 0.354-0.641 0.42-1.855 0.013-2.488-0.227-0.353-0.598-0.459-1.093-0.299-0.83 0.268-0.446 0.473-1.053 0.387-0.89-0.126-1.795-0.282-2.694-0.384zM15.044 10.812l3.369-0.006 0.207 0.037 0.001 2.022-0.151 0.022h-3.423l-0.003-2.075zM13.235 21.524c-0.143 0.125-0.458 0.070-0.647 0.069-0.983-0.002-4.136 0.053-4.633-0.022-0.057-0.333-0.065-2.192 0.009-2.501l0.577-0.007c-0.017-0.681-0.005-1.382-0.003-2.065 0.001-0.608 0.013-1.374-0.731-1.19-0.924 0.229-0.737 2.256-0.737 3.271l0.631 0.009-0.018 2.477-5.738-0.001-0.010-2.455c0.188-0.131 0.889-0.068 1.122-0.068v-6.478c-0.234 0-0.947 0.046-1.104-0.055l-0.003-2.447h5.12l0.019 5.202c0.471-0.69 0.933-1.255 1.799-1.617 0.944-0.395 2.016-0.384 2.691 0.243 1.033 0.96 0.865 2.921 0.865 4.343-0.001 1.049-0.19 0.826 0.791 0.858l0.003 2.434zM0.939 13.585h1.118v4.471h-1.118v4.53h19.356v-1c2.029 1.359 4.976 1.8 7.33 0.859 2.042-0.817 3.436-2.548 3.436-4.86 0-1.167-0.015-1.743-0.548-2.805-0.070-0.139-0.334-0.529-0.334-0.607v-5.119h-9.531c-0.226 0-0.249 0.519-0.328 0.966-0.102 0.575-0.613 2.942-0.613 3.27l-0.059-3.471h-5.648v2.53h-1.53v0.941c-0.598-0.4-1.055-0.941-2.236-0.941-1.318 0-1.802 0.442-2.177 0.53v-3.824h-7.119v4.53z"></path>
<path fill="#fe9414" d="M20.234 15.863c0.9 0.102 1.804 0.258 2.694 0.384 0.606 0.086 0.223-0.119 1.053-0.387 0.495-0.16 0.866-0.054 1.093 0.299 0.407 0.633 0.341 1.846-0.013 2.488-0.392 0.711-1.248 1.082-1.947 0.352 0.029-0.396 0.376-1.069-0.204-1.851-1.258-1.695-3.975-0.282-3.060 2.237 0.408 1.124 1.303 1.689 2.532 2.115 1.223 0.424 2.771 0.576 4.078 0.25 2.776-0.692 4.102-2.935 3.473-5.631-0.517-2.215-2.571-2.755-4.505-2.396-0.811 0.151-1.127 0.334-1.795 0.569l0.159-0.861c0.104-0.353-0.029-0.119 0.15-0.228h5.148c0.092-0.317 0.060-2.678 0.034-3.141h-7.765c-0.162 0.822-1.137 5.394-1.124 5.801z"></path>
<path fill="#848b8c" d="M1.933 19.108l1.152-0.010 0.029-6.557-1.163-0.034c0.157 0.101 0.87 0.055 1.104 0.055v6.478c-0.233 0-0.933-0.063-1.122 0.068z"></path>
</svg>
