<!-- Generated by IcoMoon.io -->
<svg version="1.1" xmlns="http://www.w3.org/2000/svg" width="183" height="32" viewBox="0 0 183 32">
<title>hihello-monster-color-hover</title>
<path fill="#8a387a" opacity="0.290196" d="M14.515 26.057h-2.821v-10.139c0-3.665-1.36-5.495-4.087-5.495-1.372 0-2.533 0.528-3.472 1.589s-1.407 2.422-1.407 4.082v9.963h-2.821v-26.043h2.821v11.371h0.070c1.349-2.223 3.272-3.331 5.77-3.331 3.964 0 5.946 2.387 5.946 7.16v10.843zM19.567 3.995c-0.498 0-0.932-0.17-1.284-0.516-0.357-0.34-0.534-0.774-0.534-1.302s0.176-0.967 0.534-1.314c0.352-0.352 0.786-0.528 1.284-0.528 0.516 0 0.956 0.176 1.32 0.528 0.358 0.346 0.539 0.786 0.539 1.314 0 0.504-0.182 0.932-0.539 1.284-0.363 0.358-0.804 0.534-1.32 0.534zM20.945 26.057h-2.821v-17.593h2.821v17.593zM41.274 26.057h-5.413v-9.999c0-2.58-0.938-3.865-2.821-3.865-0.962 0-1.742 0.358-2.334 1.079-0.598 0.721-0.897 1.642-0.897 2.75v10.034h-5.424v-26.043h5.424v11.060h0.070c1.331-2.023 3.131-3.038 5.413-3.038 3.988 0 5.982 2.405 5.982 7.213v10.808zM59.661 18.809h-11.477c0.182 2.551 1.795 3.829 4.826 3.829 1.935 0 3.636-0.457 5.102-1.372v3.917c-1.624 0.868-3.736 1.302-6.34 1.302-2.838 0-5.043-0.786-6.615-2.363-1.566-1.572-2.351-3.771-2.351-6.586 0-2.92 0.844-5.236 2.545-6.943 1.695-1.707 3.777-2.557 6.251-2.557 2.563 0 4.55 0.762 5.952 2.281 1.402 1.524 2.105 3.595 2.105 6.204v2.287zM54.63 15.472c0-2.516-1.020-3.777-3.061-3.777-0.868 0-1.625 0.358-2.258 1.079-0.639 0.721-1.020 1.624-1.161 2.698h6.48zM66.607 26.057h-5.424v-26.043h5.424v26.043zM74.897 26.057h-5.424v-26.043h5.424v26.043zM86.142 26.485c-2.932 0-5.236-0.821-6.914-2.463s-2.516-3.876-2.516-6.691c0-2.909 0.868-5.19 2.609-6.832s4.099-2.463 7.061-2.463c2.92 0 5.213 0.821 6.873 2.463s2.492 3.818 2.492 6.521c0 2.921-0.856 5.231-2.569 6.926s-4.058 2.539-7.037 2.539zM86.283 12.193c-1.284 0-2.281 0.44-2.991 1.32-0.709 0.886-1.067 2.135-1.067 3.747 0 3.378 1.366 5.067 4.093 5.067 2.598 0 3.9-1.736 3.9-5.201 0-3.29-1.314-4.932-3.935-4.932z"></path>
<path fill="#5affa4" opacity="0.290196" d="M94.806 31.934c-0.341 0-0.633-0.118-0.868-0.358-0.24-0.236-0.358-0.528-0.358-0.868 0-0.344 0.118-0.641 0.349-0.877 0.236-0.24 0.528-0.358 0.877-0.358 0.17 0 0.327 0.030 0.475 0.096s0.279 0.148 0.388 0.253c0.113 0.109 0.201 0.236 0.271 0.388 0.065 0.157 0.1 0.323 0.1 0.497 0 0.17-0.035 0.332-0.1 0.48-0.070 0.148-0.157 0.279-0.271 0.388-0.109 0.109-0.24 0.196-0.388 0.262s-0.306 0.096-0.475 0.096zM115.299 31.672v-7.706c0-0.781-0.061-1.444-0.179-1.99-0.118-0.541-0.306-0.982-0.554-1.322-0.253-0.34-0.572-0.589-0.956-0.741-0.388-0.153-0.851-0.231-1.388-0.231-0.475 0-0.925 0.113-1.352 0.34-0.424 0.227-0.794 0.537-1.117 0.934-0.319 0.397-0.567 0.864-0.751 1.401s-0.275 1.117-0.275 1.741v7.575h-1.65v-7.872c0-2.745-1.047-4.119-3.146-4.119-0.484 0-0.934 0.109-1.349 0.327-0.419 0.218-0.781 0.519-1.091 0.912s-0.55 0.864-0.724 1.418c-0.175 0.55-0.262 1.156-0.262 1.82v7.514h-1.65v-13.091h1.65v2.12h0.052c0.921-1.623 2.26-2.435 4.023-2.435 0.458 0 0.894 0.070 1.305 0.209 0.406 0.144 0.772 0.34 1.095 0.589 0.328 0.253 0.602 0.554 0.838 0.903 0.236 0.354 0.41 0.738 0.532 1.156 0.458-0.934 1.056-1.641 1.793-2.129 0.738-0.484 1.571-0.729 2.496-0.729 2.872 0 4.307 1.772 4.307 5.319v8.086h-1.65zM125.281 31.986c-0.969 0-1.841-0.161-2.609-0.484-0.772-0.327-1.431-0.785-1.977-1.379s-0.96-1.3-1.248-2.129c-0.292-0.829-0.436-1.746-0.436-2.754 0-1.091 0.153-2.069 0.458-2.928 0.31-0.864 0.746-1.593 1.309-2.195 0.567-0.602 1.252-1.060 2.051-1.374 0.803-0.319 1.698-0.476 2.684-0.476 0.947 0 1.797 0.157 2.552 0.467 0.759 0.31 1.401 0.763 1.929 1.348 0.528 0.589 0.934 1.309 1.213 2.152 0.284 0.846 0.423 1.806 0.423 2.88 0 1.025-0.148 1.955-0.44 2.797s-0.711 1.562-1.257 2.169-1.209 1.073-1.994 1.409c-0.781 0.332-1.667 0.497-2.657 0.497zM125.412 19.681c-0.72 0-1.366 0.122-1.946 0.371s-1.078 0.607-1.492 1.082c-0.415 0.471-0.733 1.052-0.956 1.741-0.223 0.685-0.332 1.466-0.332 2.334 0 0.821 0.109 1.558 0.332 2.213 0.223 0.659 0.537 1.222 0.943 1.693 0.406 0.467 0.899 0.829 1.479 1.078 0.58 0.253 1.226 0.379 1.946 0.379 0.733 0 1.384-0.122 1.946-0.366 0.563-0.24 1.039-0.594 1.432-1.061s0.689-1.034 0.89-1.71c0.201-0.672 0.301-1.44 0.301-2.304 0-1.763-0.392-3.116-1.178-4.049s-1.907-1.401-3.364-1.401zM142.851 31.672v-7.549c0-2.963-1.070-4.442-3.212-4.442-0.567 0-1.095 0.113-1.579 0.34s-0.903 0.537-1.257 0.938c-0.349 0.401-0.628 0.877-0.825 1.427-0.201 0.55-0.301 1.147-0.301 1.785v7.501h-1.649v-13.091h1.649v2.269h0.052c0.969-1.724 2.431-2.583 4.376-2.583 1.432 0 2.523 0.462 3.273 1.392 0.746 0.93 1.121 2.273 1.121 4.032v7.981h-1.649zM146.772 29.321c0.249 0.196 0.515 0.37 0.803 0.524s0.589 0.284 0.895 0.397c0.305 0.109 0.611 0.192 0.925 0.249 0.31 0.056 0.602 0.083 0.886 0.083 1.937 0 2.906-0.728 2.906-2.181 0-0.332-0.070-0.62-0.205-0.864s-0.332-0.467-0.585-0.668c-0.258-0.201-0.563-0.384-0.921-0.554s-0.764-0.349-1.213-0.537c-0.607-0.249-1.126-0.502-1.562-0.755-0.432-0.258-0.79-0.537-1.073-0.838-0.28-0.305-0.489-0.637-0.624-0.999s-0.205-0.777-0.205-1.235c0-0.58 0.126-1.099 0.375-1.549 0.253-0.454 0.589-0.838 1.013-1.152 0.427-0.314 0.916-0.559 1.47-0.725 0.559-0.166 1.143-0.249 1.754-0.249 1.13 0 2.112 0.214 2.954 0.637v1.723c-0.977-0.633-2.033-0.947-3.163-0.947-0.406 0-0.777 0.052-1.113 0.153-0.336 0.105-0.624 0.249-0.864 0.437-0.236 0.188-0.423 0.414-0.554 0.676s-0.196 0.55-0.196 0.864c0 0.327 0.052 0.611 0.153 0.851 0.105 0.244 0.262 0.467 0.48 0.664 0.218 0.192 0.497 0.379 0.842 0.563 0.344 0.179 0.763 0.371 1.261 0.576 0.629 0.253 1.174 0.506 1.632 0.759 0.462 0.253 0.842 0.524 1.139 0.821 0.297 0.292 0.519 0.619 0.664 0.986 0.144 0.362 0.218 0.781 0.218 1.257 0 0.589-0.122 1.117-0.362 1.575-0.244 0.462-0.58 0.851-1.008 1.165s-0.934 0.554-1.51 0.716c-0.576 0.161-1.204 0.244-1.885 0.244-1.318 0-2.426-0.279-3.325-0.833v-1.832zM162.814 31.511c-0.563 0.284-1.174 0.423-1.837 0.423-2.108 0-3.164-1.217-3.164-3.652v-8.261h-2.304v-1.44h2.304v-3.286l1.649-0.537v3.823h3.351v1.44h-3.351v7.999c0 0.886 0.144 1.523 0.432 1.915 0.288 0.388 0.772 0.585 1.462 0.585 0.506 0 0.991-0.153 1.457-0.458v1.449zM165.155 25.415c0.009 0.803 0.113 1.523 0.319 2.164 0.205 0.637 0.497 1.183 0.881 1.623 0.384 0.445 0.851 0.785 1.4 1.017 0.55 0.236 1.17 0.353 1.859 0.353 1.475 0 2.867-0.515 4.181-1.549v1.619c-1.253 0.895-2.771 1.344-4.552 1.344-0.877 0-1.676-0.153-2.391-0.462-0.716-0.306-1.322-0.75-1.829-1.335-0.502-0.585-0.89-1.305-1.161-2.155-0.275-0.855-0.41-1.828-0.41-2.919 0-0.982 0.148-1.89 0.445-2.727 0.301-0.833 0.711-1.558 1.239-2.169 0.532-0.611 1.156-1.086 1.881-1.431s1.514-0.519 2.374-0.519c0.846 0 1.588 0.148 2.239 0.441 0.646 0.297 1.191 0.715 1.628 1.261 0.441 0.545 0.773 1.209 1.004 1.994s0.344 1.663 0.344 2.631v0.82h-9.452zM172.931 23.975c-0.026-1.362-0.349-2.418-0.973-3.168s-1.492-1.126-2.601-1.126c-0.554 0-1.069 0.096-1.545 0.293-0.471 0.196-0.89 0.48-1.248 0.851s-0.655 0.825-0.89 1.357c-0.236 0.532-0.397 1.131-0.493 1.794h7.75zM183.406 20.262c-0.384-0.284-0.877-0.423-1.484-0.423-0.432 0-0.816 0.083-1.147 0.249-0.336 0.166-0.624 0.388-0.877 0.672-0.253 0.279-0.462 0.607-0.637 0.978-0.179 0.371-0.319 0.755-0.423 1.156-0.109 0.401-0.183 0.807-0.231 1.213-0.048 0.411-0.070 0.799-0.070 1.165v6.402h-1.623v-13.091h1.623v2.806h0.052c0.153-0.476 0.345-0.908 0.58-1.283 0.236-0.379 0.506-0.702 0.811-0.96 0.306-0.262 0.642-0.458 1.004-0.594s0.742-0.205 1.143-0.205c0.266 0 0.502 0.017 0.711 0.052 0.205 0.030 0.397 0.083 0.567 0.153v1.711z"></path>
</svg>
