<!-- Generated by IcoMoon.io -->
<svg version="1.1" xmlns="http://www.w3.org/2000/svg" width="32" height="32" viewBox="0 0 32 32">
<title>hombre</title>
<path d="M19.413 9.080c-0.86-0.91-2.059-1.427-3.311-1.427-0.028 0-0.057 0.001-0.084 0.001v0c-0.033-0.001-0.069-0.001-0.103-0.001-1.254 0-2.454 0.517-3.317 1.427-2.389 2.469-2.29 7.241-2.29 7.778 0.017 0.628 0.531 1.129 1.16 1.129 0 0 0 0 0 0h0.074c0.627-0.022 1.124-0.538 1.124-1.166 0-0.013 0-0.025-0.001-0.038 0-0.072-0.002-0.148-0.002-0.222 0-1.317 0.191-2.633 0.564-3.895v8.025l-0.001-0.001v8.76c0.045 0.609 0.553 1.082 1.164 1.082s1.119-0.472 1.164-1.082v-8.79h0.926v8.79c0 0.641 0.519 1.16 1.16 1.16s1.161-0.519 1.161-1.16v-16.778c0.372 1.273 0.563 2.594 0.563 3.921 0 0.065-0.002 0.133-0.002 0.196 0 0.011 0 0.022 0 0.032 0 0.628 0.497 1.143 1.124 1.166h0.037c0 0 0.001 0 0.001 0 0.628 0 1.143-0.501 1.16-1.129 0.031-0.537 0.117-5.309-2.271-7.778z"></path>
<path d="M16.005 7.055c1.565 0 2.833-1.269 2.833-2.834s-1.268-2.833-2.833-2.833c-1.565 0-2.834 1.268-2.834 2.833 0 0.002 0 0.005 0 0.006 0.003 1.562 1.271 2.827 2.834 2.827 0 0 0 0 0 0z"></path>
</svg>
