<!-- Generated by IcoMoon.io -->
<svg version="1.1" xmlns="http://www.w3.org/2000/svg" width="32" height="32" viewBox="0 0 32 32">
<title>hornet</title>
<path fill="#df5437" d="M16.001 30.455c8.137 0 14.734-6.472 14.734-14.455s-6.597-14.456-14.734-14.456c-8.138 0-14.734 6.472-14.734 14.456s6.596 14.455 14.734 14.455z"></path>
<path fill="#fffffe" d="M17.046 19.266c1.416-1.732 2.903-3.611 4.33-5.356l-4.995-0.993c-0.401-0.082-0.691 0.003-0.957 0.313-0.42 0.49-0.861 0.963-1.303 1.434-0.201 0.214-0.257 0.444-0.175 0.722 0.251 0.848 0.496 1.778 0.748 2.625 0.019 0.065 0.064 0.148 0.119 0.172l2.233 1.082z"></path>
<path fill="#fffffe" d="M7.574 10.64l5.049-1.624c0.146-0.044 0.246-0.026 0.367 0.070l4.733 3.734-10.148-2.181z"></path>
<path fill="#fffffe" d="M18.43 12.981c-0.554-0.435-1.053-0.908-1.552-1.301-1.269-1-2.539-1.998-3.804-3.004-0.117-0.093-0.212-0.103-0.347-0.058-0.483 0.164-0.971 0.314-1.455 0.475-0.109 0.036-0.186 0.048-0.268-0.066l-2.338-3.252c0.677 0.293 1.314 0.569 1.952 0.846 1.996 0.865 3.993 1.728 5.985 2.6 0.109 0.048 0.22 0.159 0.27 0.267l1.557 3.493z"></path>
<path fill="#fffffe" d="M16.647 19.503c0.164 0.080 0.229 0.153 0.198 0.352l-0.196 1.768-6.35-0.701 1.742-1.884c0.749-0.805 1.386-1.043 2.22-0.688l2.387 1.153z"></path>
<path fill="#fffffe" d="M21.7 14.068c0.455 0.52 0.91 1.109 1.348 1.633 0.072 0.087 0.123 0.245 0.099 0.35-0.178 0.792-0.475 1.533-1.005 2.161-0.37 0.439-0.828 0.734-1.445 0.81-0.075-0.279-0.155-0.564-0.229-0.849-0.152-0.587-0.306-1.174-0.449-1.764-0.020-0.082-0.014-0.203 0.035-0.264l1.646-2.078z"></path>
<path fill="#fffffe" d="M15.712 23.705c0.086-0.089 0.153-0.109 0.27-0.050l4.134 2.224c-0.696 0.093-1.358 0.182-2.020 0.271-0.424 0.057-0.847 0.135-1.274 0.162-0.349 0.022-0.71 0.027-1.051-0.037-0.632-0.119-1.253-0.293-1.945-0.46l1.888-2.11z"></path>
<path fill="#fffffe" d="M23.761 13.378c0.061 0.237 0.126 0.474 0.181 0.712 0.010 0.043-0.006 0.104-0.031 0.141-0.22 0.329-0.446 0.655-0.718 0.962l0.568-1.815z"></path>
</svg>
