<!-- Generated by IcoMoon.io -->
<svg version="1.1" xmlns="http://www.w3.org/2000/svg" width="32" height="32" viewBox="0 0 32 32">
<title>hospedaje</title>
<path d="M10.918 17.405v3.21h-4.414c-1.118 0-1.353 2.14 0.267 2.14h23.007c0.628 0 0.401-0.822 0.401-2.408 0-2.213-1.601-2.267-3.616-2.404-1.499-0.101-14.415-1.549-14.89-1.398-0.333 0.107-0.756 0.501-0.756 0.858z"></path>
<path d="M1.822 14.863v16.186h2.070c0.224-0.053 0.337-0.168 0.337-0.401v-4.013h23.409v4.013c0 0.233 0.113 0.348 0.337 0.401h2.070v-6.688h-25.816v-9.096c0-2.063-2.408-1.798-2.408-0.401z"></path>
<path d="M0.885 8.309c0.050 0.608 0.917 2.133 1.204 2.675 0.608-0.141 5.9-2.883 6.911-3.389 0.904-0.452 6.542-3.419 6.982-3.391 0.651 0.041 13.015 6.567 13.93 6.78l1.203-2.542c-1.352-0.715-14.844-7.49-15.114-7.49-0.558 0-14.253 7.156-15.115 7.357z"></path>
<path d="M5.567 17.271c0 2.55 2.634 2.769 3.651 1.645 1.2-1.325 0.588-3.518-1.779-3.518-0.885 0-1.873 0.988-1.873 1.873z"></path>
</svg>
