<!-- Generated by IcoMoon.io -->
<svg version="1.1" xmlns="http://www.w3.org/2000/svg" width="32" height="32" viewBox="0 0 32 32">
<title>i-love-fuck</title>
<path fill="#0f0f0f" d="M23.337 28.867c0.012-0.82 0.615-3.958 0.768-5.116 0.297-2.241-0.94-2.303-2.671-2.942-0.954-0.352-3.554-1.461-4.402-1.247-1.24 0.314-2.092 2.342-0.056 3.32l2.258 0.852c0.341 0.037 1.496 0.515 1.903 0.653 0.065 0.53-0.247 1.922-0.328 2.522-0.235 1.735-1.109 4.052 0.893 4.072l5.741-0.023c0.734-0.044 1.514-0.669 1.096-1.535-0.353-0.73-1.392-0.553-2.287-0.552-0.97 0.001-1.945 0.010-2.914-0.005z"></path>
<path fill="#0f0f0f" d="M14.056 25.405c0.14 1.287-0.308 4.781 0.4 5.419 0.698 0.629 1.64 0.212 1.685-0.785 0.041-0.917 0-1.945 0-2.875 0-5.206 0.436-4.495-4.254-4.533-0.648-0.005-0.499-0.192-0.626-0.806-0.423-2.055-0.47-4.894-2.233-5.034-0.946-0.076-1.574 0.431-1.818 1.144-0.209 0.611 0.103 1.855 0.227 2.453 0.284 1.356 0.545 3.816 1.266 4.546 0.861 0.872 3.898 0.337 5.353 0.47z"></path>
<path fill="#0f0f0f" d="M5.485 4.278c0.002 0.894 0.061 4.897-0.042 5.128-0.261 0.578-1.078-0.164-1.717 0.26-0.38 0.251-0.505 0.982-0.238 1.43 0.393 0.658 2.111 0.297 3.385 0.263 0.957-0.025 2.832 0.43 3.264-0.226 0.283-0.431 0.248-1.132-0.158-1.433-0.518-0.385-1.098 0.073-1.7-0.131-0.23-0.2-0.104-4.319-0.104-4.973 0.001-1.125-0.198-1.218 0.962-1.076 0.724 0.088 1.175-0.186 1.18-0.916 0.011-1.39-1.577-1.002-3.283-0.915-1.735 0.088-3.374-0.501-3.639 0.544-0.159 0.627 0.058 1.28 0.766 1.306 0.973 0.035 1.321-0.545 1.325 0.738z"></path>
<path fill="#0f0f0f" d="M7.759 24.122c-0.288-0.954-0.789-4.283-1.051-4.684-0.305-0.466-1.003-0.512-1.279-0.017-0.282 0.507 0.791 5.491 1.248 6.262 0.762 1.286 1.523 1.266 2.086 1.65 0.154 1.24-0.479 3.696 1.061 3.762 1.584 0.068 0.881-2.521 1.043-3.682 0.564-0.057 1.411 0.052 1.891-0.040 0.459-0.088 0.805-0.58 0.548-1.139-0.641-1.396-4.635 0.913-5.547-2.112z"></path>
<path fill="#0f0f0f" d="M5.345 14.056c-2.631 0.742-1.386 4.439 0.979 3.781 2.509-0.698 1.46-4.469-0.979-3.781z"></path>
<path fill="#0f0f0f" d="M13.184 18.541c-2.655 0.774-1.421 4.444 1.023 3.758 0.924-0.259 1.641-1.273 1.345-2.385-0.236-0.887-1.208-1.712-2.368-1.374z"></path>
<path fill="#f10c13" d="M20.661 2.721l-0.044 0.050c0.163 0.179 0.040 0.368-0.034 0.469-0.657 0.095-0.797-1.081-1.652-1.427-0.022-0.009-0.124-0.046-0.141-0.053-0.161-0.068-0.224-0.054-0.198-0.356-0.781-0.010-1.532-0.474-2.601-0.144-0.392 0.121-0.302 0.183-0.45 0.441-0.337-0.227-0.113-0.265-0.375-0.14-0.206 0.098-0.188 0.217-0.331 0.312-0.252 0.168-0.184-0.020-0.404 0.313-0.3 0.454-0.425 0.21-0.614 0.738-0.246 0.687-0.253 0.873-0.072 1.752 0.309 0.175 0.055-0.049 0.177-0.012 0.096 0.029 0.043-0.29 0.116 0.173 0.080 0.508-0.042 0.214-0.132 0.562 0.443 0.344 0.371 0.636 0.62 1.029l1.569 2.032c0.603 0.537 0.236 0.291 0.438 0.503 0.060 0.062 0.728 0.43 0.468 0.657 0.19 0.019 0.272 0.024 0.373 0.053 0.269 0.078 0.333 0.352 0.641 0.681 0.135 0.144 0.435 0.294 0.979 0.857 0.316-0.084 0.239-0.337 0.535-0.156 0.085 0.57-0.095 0.040-0.304 0.478 1.396 0.448 0.79 1.036 1.556 0.43l1.44-1.182c0.357-0.32 0.435-0.615 0.77-0.837 0.291-0.192 0.129-0.030 0.387-0.401 0.204-0.295 0.111 0.003 0.324-0.133 0.002-0.001 0.178-0.188 0.2-0.214 0.242-0.289-0.006-0.214 0.315-0.486 1.297-1.1 0.822-0.811 0.801-1.164 0.24-0.125 0.373-0.053 0.436-1.039 0.545-0.013-0.003 0.203 0.108 0.748 0.403-0.072 0.6-0.683 0.629-1.064 0.016-0.009 0.062 0.045 0.199-0.091 0.102-0.101 0.163-0.186 0.241-0.326 0.295-0.533 0.489-2.252 0.452-2.613-0.209-0.143-0.191 0.066-0.349-0.348-0.060-0.157-0.076-0.368-0.18-0.512-0.294-0.407-0.686-0.228-0.835-0.815-0.444-0.015-0.925-0.296-1.397-0.369-0.412-0.064-0.418 0.042-0.736 0.084-0.722 0.097-1.080-0.081-1.9 0.588-0.317 0.259-0.129 0.196-0.404 0.466-0.199 0.195-0.224 0.151-0.323 0.502l-0.297-0.036z"></path>
<path fill="#c61717" d="M13.607 2.668c-0.025 0.654-0.709 1.605 0.606 3.76 0.652 1.070 2.067 2.569 2.111 2.702 0.38 0.196 0.658 0.596 0.999 0.886 0.31 0.263 0.751 0.592 0.937 0.929 0.293 0.069 1.321 1.107 1.676 1.352l0.387 0.356c0.32-0.164 1.352-1.096 1.716-1.422 0.211-0.189 1.492-1.386 1.764-1.491l1.18-1.307c1.113-1.204 2.908-3.598 2.227-5.426-1.098-2.95-5.71-2.631-6.549-0.285l0.297 0.036c0.099-0.352 0.124-0.307 0.323-0.502 0.275-0.27 0.086-0.207 0.404-0.466 0.82-0.669 1.177-0.491 1.9-0.588 0.318-0.042 0.324-0.148 0.736-0.084 0.472 0.073 0.953 0.355 1.397 0.369 0.149 0.586 0.541 0.408 0.835 0.815 0.104 0.144 0.121 0.355 0.18 0.512 0.158 0.414 0.14 0.205 0.349 0.348 0.037 0.361-0.157 2.080-0.452 2.613-0.078 0.14-0.139 0.225-0.241 0.326-0.137 0.136-0.183 0.082-0.199 0.091-0.029 0.381-0.227 0.992-0.629 1.064-0.111-0.545 0.438-0.76-0.108-0.748-0.064 0.987-0.196 0.914-0.436 1.039 0.021 0.353 0.496 0.064-0.801 1.164-0.321 0.272-0.073 0.197-0.315 0.486-0.022 0.026-0.198 0.213-0.2 0.214-0.213 0.136-0.12-0.162-0.324 0.133-0.257 0.371-0.095 0.209-0.387 0.401-0.336 0.222-0.413 0.517-0.77 0.837l-1.44 1.182c-0.766 0.606-0.16 0.018-1.556-0.43 0.21-0.438 0.389 0.092 0.304-0.478-0.296-0.18-0.219 0.073-0.535 0.156-0.543-0.563-0.844-0.712-0.979-0.857-0.308-0.33-0.372-0.603-0.641-0.681-0.101-0.029-0.183-0.034-0.373-0.053 0.26-0.227-0.408-0.595-0.468-0.657-0.202-0.212 0.165 0.034-0.438-0.503l-1.569-2.032c-0.249-0.393-0.176-0.684-0.62-1.029 0.089-0.348 0.212-0.054 0.132-0.562-0.073-0.463-0.020-0.144-0.116-0.173-0.122-0.037 0.132 0.187-0.177 0.012-0.181-0.879-0.174-1.065 0.072-1.752 0.189-0.527 0.314-0.283 0.614-0.738 0.22-0.333 0.152-0.145 0.404-0.313 0.143-0.095 0.125-0.214 0.331-0.312 0.262-0.125 0.038-0.088 0.375 0.14 0.147-0.258 0.057-0.32 0.45-0.441 1.069-0.33 1.819 0.133 2.601 0.144-0.026 0.301 0.037 0.288 0.198 0.356 0.017 0.007 0.119 0.044 0.141 0.053 0.856 0.346 0.995 1.522 1.652 1.427 0.074-0.101 0.197-0.29 0.034-0.469-0.161 0.135-0.102 0.115-0.267 0.22-0.129-0.123-0.507-0.61-0.534-0.829-0.305-0.167-0.417-0.375-0.675-0.587-1.275-1.046-3.816-0.935-5.020 0.458-0.135 0.156-0.145 0.186-0.239 0.32-0.164 0.236-0.086 0.167-0.275 0.313z"></path>
<path fill="#0f0f0f" d="M21.663 24.387c0 0.262-0.236 0.474-0.526 0.474s-0.526-0.212-0.526-0.474c0-0.262 0.236-0.474 0.526-0.474s0.526 0.212 0.526 0.474z"></path>
<path fill="#0f0f0f" stroke="#0f0f0f" stroke-linejoin="miter" stroke-linecap="butt" stroke-miterlimit="22.9256" stroke-width="114.535" d="M12.060 22.431c-0.352 0.28-0.705 0.361-0.788 0.18s0.136-0.554 0.488-0.834c0.352-0.28 0.705-0.361 0.788-0.18s-0.136 0.554-0.488 0.834z"></path>
<path fill="#0f0f0f" stroke="#0f0f0f" stroke-linejoin="miter" stroke-linecap="butt" stroke-miterlimit="22.9256" stroke-width="114.535" d="M20.299 24.794c-0.352 0.28-0.705 0.361-0.788 0.18s0.136-0.554 0.488-0.834c0.352-0.28 0.705-0.361 0.788-0.18s-0.136 0.554-0.488 0.834z"></path>
</svg>
