<!-- Generated by IcoMoon.io -->
<svg version="1.1" xmlns="http://www.w3.org/2000/svg" width="32" height="32" viewBox="0 0 32 32">
<title>ico-replit</title>
<path d="M13.402 0.418c1.13 0.719 4.954 0.83 8.071 3.452 6.479 5.446 4.277 17.196-3.326 19.547-0.629 0.196-0.511 0.089-1.156 0.329-0.109 0.041-0.425 0.188-0.517 0.228l-0.471 0.273c4.57 0 7.385-0.492 10.259-2.371 4.454-2.908 4.595-6.334 4.595-11.033 0-5.514-11.147-12.877-17.454-10.423v-0.002z"></path>
<path d="M1.144 20.894c0 1.786 1.239 3.419 2.069 4.628 1.067 1.541 2.112 2.395 3.599 3.468 2.871 2.065 5.868 3.076 10.673 3.076-0.964-1.323 0.058-0.332-1.661-0.941-0.787-0.278-1.451-0.493-2.167-0.805-10.12-4.434-9.919-19.357 1.944-21.736 0.109-0.024 0.21-0.038 0.311-0.062l0.833-0.283c-8.582-2.003-15.6 2.54-15.6 12.657l-0.001-0.001z"></path>
<path d="M0.029 16.797c0 1.049 0.163 0.692 0.743 1.118 0.111-5.071 5.104-11.541 11.885-11.541 5.7 0 11.141 4.173 11.141 10.053h0.374c0-5.771 0.142-11.759-6.625-14.207-5.877-2.126-10.246-1.034-14.128 4.201-1.957 2.64-3.389 5.86-3.389 10.38v-0.003z"></path>
<path d="M19.714 25.733c-4.511 0-9.925-2.951-11.041-7.921-0.351-1.571 0.119-1.018-0.844-2.131 0 5.454 0.038 8.43 2.763 11.375 2.102 2.268 6.030 3.89 10.235 3.89 2.515 0 6.239-3.128 7.97-5.417 2.171-2.879 3.174-5.697 3.174-10.591-1.203 0.885-0.381-0.050-0.991 1.611-0.396 1.080-0.414 1.26-0.855 2.123-1.969 3.873-5.969 7.060-10.41 7.060h-0.002z"></path>
<path d="M11.545 15.681c0 7.216 8.915 5.155 8.915 1.488 0-2.899-0.248-5.583-4.829-5.583-2.17 0-4.084 1.919-4.084 4.094l-0.002 0.001z"></path>
</svg>
