<?xml version="1.0" encoding="UTF-8"?>
<!DOCTYPE svg PUBLIC "-//W3C//DTD SVG 1.1//EN" "http://www.w3.org/Graphics/SVG/1.1/DTD/svg11.dtd">
<!-- Creator: CorelDRAW 2017 -->
<svg xmlns="http://www.w3.org/2000/svg" xml:space="preserve" width="6.5192mm" height="7.9586mm" version="1.1" style="shape-rendering:geometricPrecision; text-rendering:geometricPrecision; image-rendering:optimizeQuality; fill-rule:evenodd; clip-rule:evenodd"
viewBox="0 0 651.92 795.86"
 xmlns:xlink="http://www.w3.org/1999/xlink">
 <defs>
  <style type="text/css">
   <![CDATA[
    .fil0 {fill:#373435}
   ]]>
  </style>
 </defs>
 <g id="Capa_x0020_1">
  <metadata id="CorelCorpID_0Corel-Layer"/>
  <g id="_2684234646528">
   <path class="fil0" d="M263.93 698.15l23.19 -0.63c-0.36,11.68 0.03,29.55 -1.14,40.5 -3.62,33.78 2.97,22.16 -22.05,25.72 -13.92,-18.09 -12.11,-48.1 0,-65.59zm-59.66 1.21l37.34 0.25 0.72 61.29 -37.49 3.24 -0.57 -64.78zm-45.76 0.15c4.65,0.26 48.97,-12.97 28.58,60.91 -0.33,1.19 -1.44,3.15 -2.2,4.7 -27.48,-2.36 -17.38,12.6 -25.31,-22.25 -4.14,-18.18 -3.81,-25.78 -1.07,-43.36zm-56.19 2.72c31.49,-1.02 28.06,-8.4 38.3,12.91 6.73,13.99 5.46,34.55 4.35,48.46l-24.41 4.4c-12.7,-16.31 -15.14,-39.35 -18.24,-65.77zm98.7 -63.82l41.06 0.35 0.37 43.06 -39.44 3.28 -1.99 -46.69zm-105.11 3.7l27.11 -1.4c9.39,22.31 10.92,23.38 6.32,47.16 -34.16,2.1 -44.21,-8.16 -33.43,-45.76zm56.05 -1.15l26.4 0.65 8.61 43.24 -28.39 2.55c-0.32,-0.4 -24.62,-10.81 -6.62,-46.44zm46.27 -59.45l42.94 -1.55 0.86 43.1 -43.64 3.94 -0.16 -45.49zm-62.74 4.59l40.22 -5.74 6.65 47.59 -37.01 -0.84 -9.86 -41.01zm158.89 51.17l-6.66 43.98 -28.42 2 -2.34 -43.55 0.81 -15.83 1.16 -44.04 36.65 -2.75c-0.34,18.58 -1.98,36.54 -2.26,46.82l1.06 13.37zm-216.77 -53.2l39.16 1.33 6.07 42.03c-45.28,2.01 -40.18,5.42 -45.23,-43.36zm187.4 -60.28l31.76 -3.39 0.59 39.21c-6.64,4.52 -0.38,5.62 -14.13,6.95 -16.36,1.59 -9.54,0.12 -23.49,-3.55 -4.58,-29.72 -3.9,-24.45 5.27,-39.22zm-67.29 41.64l-2.23 -38.66 42.05 -1.92 3.66 33.79c-7.99,3.22 -5.72,4.57 -17.07,6.43 -8.61,1.41 -17.74,0.5 -26.41,0.36zm-133.12 -33.3l42.26 -2.77 3.41 39.27 -34.08 0.79 -11.59 -37.29zm62.47 -3.07l47.18 -0.33 3.06 36.18 -47.32 3.64 -2.92 -39.49zm-11.46 -55.94l55.96 -1.19 0.64 39.15 -49.63 0.27 -6.97 -38.23zm82.22 -1.38l41.84 -2.22 1.56 33.88 -47.49 4.93c-0.56,-8.61 -1.82,-15.16 -0.88,-21.34 2.61,-17.18 2.76,-10.66 4.97,-15.25zm-143.62 4.48c6.41,-0.73 13.67,-2.54 19.17,-2.01 19.46,1.89 -6.39,-2.62 11.36,1.87 1.54,0.39 3.73,1.8 4.95,2.2 1.22,0.4 3.15,1.74 4.71,2.63l7.44 32.26 -42.15 0.98 -5.48 -37.93zm246.62 23.97c-7.07,3.51 -4.52,5.93 -17.26,7.02 -18.57,1.59 -7.74,0.73 -22.71,-4l-0.3 -32.54 42.62 -5.52 -2.35 35.04zm-107.49 -82.14l43.8 -1.99 0.81 36.41 -45.76 2.09 1.15 -36.51zm68.07 33.12l-1.71 -34.25 44.31 -3.8 0.51 34.56 -43.11 3.49zm-154.38 -28.6l62.27 -2.45 0.86 32.47 -58.36 4.5 -4.77 -34.52zm-51.3 -0.9l27.79 1.48c4.93,21.06 7.46,18.75 1.52,30.72l-31.82 4.98 -5.45 -12.86 -10.33 -17.67 18.29 -6.65zm-54.47 -20.7c4.7,55.42 8.18,-29.57 32.5,84.81l68.21 301.68 198.43 -4.22c5.03,-70.35 9.28,-139.51 14.16,-205.53 1.94,-26.28 20.19,-194.25 20.15,-194.54 -44.37,-12.85 -308.15,0.85 -333.45,17.8z"/>
   <path class="fil0" d="M428.61 724.12c24.75,-18.88 80.14,-168.8 112.28,-196.55l49.46 177.84 27.73 81.62 7.66 -109.03 20.61 -300.44 -191.03 -2.52 -55.55 332.88 -10.57 86.84c19.75,-14.45 31.11,-45.88 39.41,-70.64z"/>
   <path class="fil0" d="M120.83 161.58c20.12,17.76 175.96,49.97 211.93,58.74 52.48,12.8 61.78,3.96 82.17,49.69 13.9,31.18 30.81,66.3 39.21,99.28l189.16 -18.75c6.64,-11.25 8.46,9.99 6.78,-26.73 -1.31,-28.69 -75.17,-123.06 -93.72,-175.27l-435.53 13.04z"/>
   <path class="fil0" d="M435.31 4.28c-88.16,26.87 -52.68,152.67 41.34,122.22 81.65,-26.45 37.54,-146.26 -41.34,-122.22z"/>
   <path class="fil0" d="M82.03 342.9c14.87,-34.8 34.86,-45.74 50.88,-84.61 61.09,9.5 80.36,14.01 150.44,11.83 -10.75,24.25 -17.7,26.94 -36.03,42.3 -20.01,16.77 -19.11,23.61 -37.69,24.75 -52.9,3.23 -71.4,15.25 -127.6,5.73zm185.49 -106.68l-7.8 5.61 4.89 14.58c-7.45,8.24 13.1,6.95 -16.81,6.92l-30.31 -12.96c-53.79,3.66 -47.74,1.53 -91.05,-12.18 -46.91,98.29 -53.79,70.51 -70.26,103.85 56.42,45.8 117.25,-7.19 168.67,17.52 17.33,-22.15 19.21,-25.68 38.35,-44.56 20,-19.72 28.96,-21.42 41.19,-52l-22.91 -11.4c-15.67,-10 -3.42,2.43 -13.96,-15.38z"/>
  </g>
 </g>
</svg>
