<!-- Generated by IcoMoon.io -->
<svg version="1.1" xmlns="http://www.w3.org/2000/svg" width="32" height="32" viewBox="0 0 32 32">
<title>ico-codesandbox</title>
<path d="M23.936 20.58l-0.143 5.148c-1.923 1.045-3.906 2.493-5.797 2.697l-0.068-11.56 10.253-5.788 0.232 6.661-4.478 2.841zM3.939 11.255l10.236 5.512 0.11 11.619-5.208-2.604-0.171-5.176-4.895-3.015-0.076-6.34 0.004 0.004zM11.623 4.804l4.242 2.405 4.812-2.595 5.077 3.137-9.989 5.629-9.661-5.844 5.519-2.732zM2.18 7.741l-0.104 15.958 13.786 8.302c2.808-1.313 13.132-6.651 14.057-8.866l0.004-15.215-14.025-7.921-13.718 7.741z"></path>
</svg>
