<!-- Generated by IcoMoon.io -->
<svg version="1.1" xmlns="http://www.w3.org/2000/svg" width="32" height="32" viewBox="0 0 32 32">
<title>ico-codepen</title>
<path d="M17.472 27.529v-5.75c0.376-0.671 4.154-3.072 5.005-3.592 1.030-0.625 1.543 0.162 2.534 0.833 0.844 0.573 1.834 1.128 2.516 1.817-0.514 0.612-1.666 1.272-2.361 1.729-0.966 0.636-1.624 1.076-2.562 1.694-1.377 0.914-3.644 2.626-5.125 3.269h-0.006zM4.418 20.837c0.665-0.742 1.758-1.331 2.65-1.927 2.042-1.377 1.041-1.602 5.409 1.279 2.517 1.659 2.071 0.903 2.014 7.329l-10.072-6.681zM28.863 14.040l-0.018 3.87c-0.334-0.144-2.661-1.521-2.765-1.972-0.024-0.098-0.081-0.122-0.081-0.122l2.864-1.771v-0.004zM11.637 15.85c1.041-0.63 3.385-2.482 4.467-2.818l4.211 2.818c-0.555 0.678-3.227 2.361-4.222 2.945-0.925-0.284-3.957-2.344-4.454-2.945h-0.002zM3.132 14.029c0.787 0.429 2.401 1.307 2.822 2.105l-2.899 1.792 0.075-3.898h0.002zM17.553 4.392l9.968 6.721c-0.042 0.046-0.098 0.105-0.122 0.133s-0.092 0.092-0.127 0.127l-4.112 2.752-5.669-3.701 0.070-6.028-0.006-0.004zM14.464 4.473l-0.053 5.919-5.662 3.662c-0.763-0.394-3.701-2.263-4.305-2.938l10.020-6.642zM0.12 21.305c0.236 0.857 11.882 8.26 14.202 9.84 2.25 1.528 3.061 0.186 5.022-1.134 3.164-2.134 6.369-4.228 9.539-6.341 2.516-1.677 3.043-1.11 3.026-4.974-0.006-1.775 0.232-6.323-0.042-7.768-0.243-1.301-7.757-5.779-9.279-6.797-7.665-5.114-6.137-4.668-10.077-2.060-3.223 2.134-6.375 4.211-9.567 6.306-2.654 1.74-2.893 1.157-2.886 5.103 0.006 1.307-0.168 6.998 0.063 7.827l-0.002-0.002z"></path>
</svg>
