<?xml version="1.0" encoding="UTF-8"?>
<!DOCTYPE svg PUBLIC "-//W3C//DTD SVG 1.1//EN" "http://www.w3.org/Graphics/SVG/1.1/DTD/svg11.dtd">
<!-- Creator: CorelDRAW 2017 -->
<svg xmlns="http://www.w3.org/2000/svg" xml:space="preserve" width="15.928mm" height="15.928mm" version="1.1" style="shape-rendering:geometricPrecision; text-rendering:geometricPrecision; image-rendering:optimizeQuality; fill-rule:evenodd; clip-rule:evenodd"
viewBox="0 0 1592.8 1592.8"
 xmlns:xlink="http://www.w3.org/1999/xlink">
 <defs>
  <style type="text/css">
   <![CDATA[
    .fil0 {fill:none}
    .fil4 {fill:#0074B3}
    .fil1 {fill:#016737}
    .fil2 {fill:#6C9530}
    .fil3 {fill:#6C9530}
    .fil5 {fill:#9B1A14}
    .fil6 {fill:#F9B500}
   ]]>
  </style>
 </defs>
 <g id="Capa_x0020_1">
  <metadata id="CorelCorpID_0Corel-Layer"/>
  <g id="_2093275358320">
   <rect class="fil0" x="0.02" y="0.03" width="1592.75" height="1592.75"/>
   <circle class="fil0" cx="796.4" cy="796.4" r="796.4"/>
   <path class="fil1" d="M778.39 1555.91c113.34,-0.96 144.8,-111.12 91.81,-199.32 -72.58,-120.82 -367.05,-204.17 -538.05,-389.47 -98.05,-106.24 -192.41,-309.43 -143.02,-482.69 60.53,-212.32 246.3,-200.65 410.84,-206.11 -302.53,-209.75 -912.21,431.68 -18.6,949.58 166.72,96.62 354.48,150.4 197.02,328.01z"/>
   <path class="fil2" d="M797.58 255.7c71.74,-30.34 79.47,-44.06 165.8,-55.78 -63.3,40.01 -294.78,108.3 -261.89,260.59 24.06,-77.79 37.13,-114.63 106.24,-155.83 58.42,15.09 133.82,73.07 187.1,87.46 116.92,31.57 125.9,-38.74 228.01,-58.96 -70.24,-244.82 -366.4,-302.52 -425.26,-77.48z"/>
   <path class="fil3" d="M552.24 1196.84c472.61,-375.41 583.51,-248.86 511.18,-588.27 -238.76,653.38 -277.62,211.15 -511.18,588.27z"/>
   <path class="fil4" d="M684.01 987.73c7.78,-3.65 -0.62,5.27 10.79,-8.58l25.94 -41.04c56.98,-87.08 186.87,-257.95 278.69,-269.68 -23.81,22.83 -34.48,23.64 -73.73,65.53 -72.19,77.04 -139.86,201.65 -173.68,304.89 38.78,23.18 67.84,23.9 106.71,18.42 97.4,-13.75 193.56,-66.84 231.59,-172.03 14.89,-41.17 20.72,-92.34 25.51,-133.7 14.18,-122.51 44.02,-167.18 96.9,-270.46 -24.48,0.87 -156.27,54.99 -188.32,66.91 -69.31,25.76 -202.12,88.24 -265.58,133.87 -26.19,18.84 -57.08,42.78 -71.09,84.09 -18.41,54.24 -21.71,118.58 -13.73,171.4 2.61,17.28 8.62,35.23 10,50.38z"/>
   <path class="fil5" d="M1155.12 683.7c-16.84,43.05 -15.43,117.02 -27.68,165.28 22.96,-0.37 109.95,-39.96 162.71,-22.75 -64.35,14.03 -100.45,28.82 -152.04,57.12 -33.33,18.28 -18.96,11.1 -39.52,48.86 -58.95,108.23 -156.48,124.68 -179.69,139.92 26.05,55.97 251.73,120.6 372.9,-20.63 45.82,-53.41 78.35,-127.34 122.54,-183.26 76.46,-96.77 130.14,-111.47 146.22,-128.23 -59.87,-26.35 -154.34,-48.39 -215.22,-56.93 -93.78,-13.14 -105.47,-6.64 -190.22,0.62z"/>
   <path class="fil6" d="M656.9 1010.81c7.74,-21.88 -22.25,-119.76 -29.33,-141.72 -15.22,-47.24 -35.83,-76.15 -68.51,-121.86 36.78,14.98 65.66,67.57 84.06,93.46 4.85,-17.2 5.13,-38.36 9.59,-58.84 4.92,-22.62 12.67,-41.48 19.64,-63.9 -46.87,-55.83 -140.13,-91.95 -218.87,-118.96 -1.13,8.45 17.42,77.71 19.96,124.21 2.5,45.83 -6.54,92.63 -3.57,136.65 2.85,42.31 21.23,76.5 54.9,107.18 32.81,29.89 91.11,57.72 132.13,43.78z"/>
  </g>
 </g>
</svg>
