<!-- Generated by IcoMoon.io -->
<svg version="1.1" xmlns="http://www.w3.org/2000/svg" width="32" height="32" viewBox="0 0 32 32">
<title>instagram</title>
<path fill="#d74278" d="M11.028 11.814c0.193 0.027 1.047 0.597 1.28 0.74 0.176 0.108 0.263 0.133 0.269 0.393 0.542-0.324 1.385-1.542 3.536-1.496 2.851 0.062 4.924 2.714 4.367 5.459-0.402 1.978-1.507 2.416-2.038 3 0.259-0.004 0.179 0.122 0.291 0.329 0.108 0.199 0.153 0.176 0.259 0.429 0.255 0.609 0.453 0.622 0.353 0.947 1.369-0.516 2.715-2.585 3.072-4.223 1.185-5.424-4.566-9.692-9.372-7.237-0.707 0.361-1.79 1.136-2.019 1.66z"></path>
<path fill="#994484" d="M10.422 5.038c1.414-0.111 6.446-0.033 8.236-0.033 1.258 0 2.776-0.107 3.945 0.209 1.101 0.297 2.079 0.947 2.663 1.534 1.776 1.783 1.752 3.425 1.752 6.542-0.001 2.697 0.123 5.709-0.032 8.368 0.299-0.662 0.137-7.829 0.137-9.174l0.5 0.786c0.054 0.090 0.068 0.137 0.119 0.225l0.892 1.519c0.224 0.345 0.212 0.539 0.216 1.098l0.044 5.517c0.174-0.312 0.081-4.269 0.081-4.621-0.001-1.561-0.003-3.122-0.003-4.682 0-2.808-0.269-4.931-2.366-6.989-2.173-2.131-4.235-2.28-7.054-2.28-1.084-0.001-9.041-0.134-9.329 0.076 0.982 0.232 6.487-0.19 7.077 0.155l2.107 1.403c0.299 0.234 0.105 0.225 0.549 0.199-1.324 0-8.89-0.115-9.534 0.148z"></path>
<path fill="#e55c61" d="M19.346 21.614c0.1-0.324-0.098-0.338-0.353-0.947-0.106-0.253-0.152-0.23-0.259-0.429-0.112-0.207-0.033-0.333-0.291-0.329-0.776 0.217-1.526 0.93-3.328 0.573-2.838-0.563-4.439-3.633-3.307-6.261 0.101-0.234 0.233-0.472 0.361-0.676 0.154-0.246 0.333-0.389 0.41-0.599-0.006-0.26-0.092-0.285-0.269-0.393-0.233-0.143-1.088-0.713-1.28-0.74-0.347 0.174-0.899 1.257-1.108 1.754-0.967 2.296-0.377 4.989 1.090 6.686 0.789 0.912 1.977 1.833 3.678 2.181 0.858 0.176 1.727 0.178 2.583 0.010 0.539-0.105 1.822-0.499 2.076-0.831z"></path>
<path fill="#ef9941" d="M3.090 21.628c-0.051 1.901 1.27 3.928 2.109 4.854 0.44 0.486 1.226 1.106 1.947 1.495 0.565 0.305 1.887 0.925 2.647 0.849l1.563 0.037c-0.287-1.192-0.111-1.477-0.566-1.807-0.011-0.008-0.035-0.019-0.049-0.033l-0.202-0.022c-2.973-0.203-5.232-2.554-5.525-5.48-0.115-0.269-0.128-0.858-0.044-1.191-0.308-0.042-0.187-0.062-0.455-0.188-0.168-0.079-0.293-0.121-0.456-0.162-0.357-0.088-0.675-0.161-0.991-0.281l0.022 1.928z"></path>
<path fill="#b9437e" d="M26.986 21.659c-0.054 0.415-0.117 0.736-0.231 1.117-0.121 0.406-0.283 0.678-0.415 1.052l0.18 0.052c-0.001 0.579 0.099 0.731 0.207 1.18 0.076 0.313 0.226 0.915 0.159 1.258l0.249-0.21c0.094-0.101 0.116-0.139 0.182-0.227 0.375-0.505 0.657-0.945 0.932-1.547 0.261-0.571 0.795-2.020 0.646-2.702l-0.044-5.517c-0.005-0.558 0.008-0.752-0.216-1.098l-0.892-1.519c-0.051-0.088-0.065-0.135-0.119-0.225l-0.5-0.786c0 1.345 0.163 8.512-0.137 9.174z"></path>
<path fill="#b9437e" d="M6.313 4.624c0.539-0.077 0.856 0.176 1.303 0.278 0.285 0.065 0.362 0.052 0.621 0.141 0.242 0.082 0.364 0.156 0.648 0.168 0.052 0.088 0.040-0.013 0 0.149 0.523-0.119 0.929-0.274 1.537-0.322 0.644-0.263 8.21-0.148 9.534-0.148-0.443 0.026-0.249 0.034-0.549-0.199l-2.107-1.403c-0.59-0.344-6.094 0.078-7.077-0.155-0.975-0.091-2.63 0.608-3.508 1.168l-0.403 0.323z"></path>
<path fill="#d74278" d="M3.063 10.399l0.052 1.062c0.152 0.066 0.871 0.188 1.096 0.204 1.095 0.076 0.537 0.315 0.785 0.618l0.025-1.758c0.115-1.348 0.656-2.479 1.282-3.262 0.374-0.467 0.669-0.744 1.164-1.109 0.497-0.367 0.941-0.489 1.419-0.794 0.040-0.162 0.052-0.061 0-0.149-0.283-0.013-0.405-0.086-0.648-0.168-0.258-0.089-0.336-0.076-0.621-0.141-0.447-0.103-0.764-0.355-1.303-0.278-0.573 0.192-1.751 1.624-2.145 2.295-0.61 1.042-0.948 2.039-1.105 3.479z"></path>
<path fill="#d74278" d="M10.54 27.001l0.202 0.022 6.289 0.042 4.71 0.056c0.107 0.258 0.189 0.993 0.204 1.329 0.014 0.313-0.074 0.323 0.13 0.337-0.375 0.024-0.021-0.018-0.182 0.126 1.751-0.135 3.354-0.988 4.575-2.094l0.341-0.344c0.125-0.18 0.044-0.029 0.078-0.158 0.068-0.342-0.083-0.945-0.159-1.258-0.109-0.448-0.208-0.601-0.207-1.18l-0.18-0.052c-0.381 0.541-0.585 0.933-1.007 1.376-0.319 0.335-0.816 0.724-1.324 1.017-1.266 0.728-2.307 0.798-3.975 0.798-3.092 0.001-6.432 0.12-9.494-0.017z"></path>
<path fill="#e9724e" d="M9.793 28.826c0.162 0.117 0.18 0.082 0.433 0.097 0.739 0.158 5.722-0.073 7.078-0.040l-0.26 0.009c-0.004-0.758-0.088-1.079-0.209-1.691 0.118-0.104-0.072-0.037 0.196-0.136l-6.289-0.042c0.014 0.014 0.037 0.025 0.049 0.033 0.455 0.329 0.279 0.615 0.566 1.807l-1.563-0.037z"></path>
<path fill="#e55c61" d="M3.090 21.628l-0.022-1.928c-0.132-0.73-0.006-2.401 0.016-3.223 0.448 0.030 1.368 0.030 1.678 0.238 0.188 0.125 0.073 0.043 0.175 0.157 0.035 0.654 0.141 2.944 0.034 3.459-0.084 0.333-0.072 0.922 0.044 1.191l0.005-10.995-0.025 1.758c-0.248-0.304 0.31-0.543-0.785-0.619-0.225-0.016-0.944-0.138-1.096-0.204l-0.052-1.062c-0.012 1.853-0.019 3.718-0.019 5.578-0.001 0.985-0.121 5.034 0.046 5.651z"></path>
<path fill="#e55c61" d="M10.226 28.923c0.265 0.080 11.154 0.089 11.667-0.011 0.16-0.144-0.193-0.102 0.182-0.126-0.204-0.014-0.116-0.024-0.13-0.337-0.015-0.336-0.097-1.071-0.204-1.329l-4.71-0.056c-0.268 0.099-0.078 0.033-0.196 0.136 0.121 0.611 0.205 0.932 0.209 1.691l0.26-0.009c-1.356-0.033-6.338 0.198-7.078 0.040z"></path>
<path fill="#b9437e" d="M22.946 7.085c-2.288 0.519-1.484 3.774 0.686 3.333 0.807-0.164 1.54-1.026 1.311-2.044-0.182-0.806-1.004-1.514-1.996-1.289z"></path>
<path fill="#e9724e" d="M3.068 19.7c0.316 0.12 0.634 0.193 0.991 0.281 0.163 0.041 0.289 0.082 0.456 0.162 0.268 0.127 0.147 0.146 0.455 0.188 0.107-0.515 0.001-2.805-0.034-3.459-0.102-0.114 0.014-0.032-0.175-0.157-0.31-0.208-1.23-0.208-1.678-0.238-0.022 0.822-0.148 2.493-0.016 3.223z"></path>
</svg>
