<!-- Generated by IcoMoon.io -->
<svg version="1.1" xmlns="http://www.w3.org/2000/svg" width="32" height="32" viewBox="0 0 32 32">
<title>intagram-camera1</title>
<path fill="#aa1018" d="M11.732 10.384l0.022-0.023c-0.002 0.030 0.016 0.069 0.014 0.088l-0.092 0.113c0.005-0.007-0.029-0.204 0.177 0.177-0.282 0.119-0.151-0.013-0.116 0.15 0.056 0.26-0.111 0.104 0.126 0.441l-0.635 0.415c-0.107 0.069-0.003 0.013-0.085 0.040-0.191 0.064-0.009-0.049-0.168 0.051-0.014 0.010-0.032 0.029-0.044 0.038l-0.082 0.105c0.31 0.116 0.208 0.027 0.512 0.020-0.017 0.274 0.033 0.033-0.142 0.246l-0.453 0.59c-0.009 0.014-0.021 0.035-0.029 0.047s-0.026 0.060-0.032 0.050c-0.006-0.011-0.020 0.035-0.034 0.051-0.014-0.018-0.024-0.042-0.031-0.061-0.124-0.388-0.062-0.154-0.008-0.25 0.013-0.023 0.15-0.131 0.215-0.161-0.244-0.266-0.458-0.128-0.482-0.175-0.008-0.017-0.033-0.003-0.049-0.002l0.097 0.215c0.050 0.118 0.013 0.060 0.060 0.14-0.106 0.141-0.217 0.13-0.219 0.128-0.010-0.015-0.038 0.005-0.057 0.010 0.090-0.114 0.045 0.132 0.027-0.092-0.012-0.152-0.077-0.046-0.185-0.223 0.089-0.244-0.028-0.020 0.119-0.166 0.225-0.225 0.053-0.091 0.207-0.339l0.127-0.144c-0.315 0.174-0.065 0.088-0.301 0.091-0.112 0.019-0.004-0.062-0.157 0.156l-0.112 0.178c-0.056 0.104-0.018-0.038-0.041 0.101-0.070 0.15 0.014 0.092-0.156 0.159-0.595 0-3.21 0.099-3.562-0.079-0.12-0.319-0.040-1.592-0.041-2.024-0.001-0.425-0.095-1.826 0.115-1.949 0.008-0.346 0.158-0.707 0.296-0.95 0.531-0.931 1.305-1.312 2.482-1.314h13.82c0.432 0 0.816-0.048 1.064 0.123 0.323 0.029 0.511 0.157 0.75 0.324 0.211 0.146 0.368 0.274 0.525 0.492 0.317 0.441 0.498 0.696 0.568 1.324-0.019-0.067-0.039-0.108 0.036-0.177 0.006-0.005 0.022-0.019 0.029-0.022 0.215-0.084 0.161 0.508 0.16 0.612l-0.001 3.366c0.009-0.003 0.017-0.016 0.021-0.020s0.018-0.016 0.023-0.021c0.010-0.008 0.049-0.040 0.061-0.049 0.033-0.026 0.076-0.065 0.131-0.087l0.044 0.176c0.055 0.311-0.046 0.169-0.102 0.427-0.054 0.248 0.16 0.241-0.001 0.106-0.127 0.212-0.051 0.124-0.469 0.098-0.306-0.019-0.114-0.010-0.122 0.020 0.032-0.155 0.176-0.252-0.072-0.298l-3.758-0.006c-0.005 0.003-0.018 0.013-0.024 0.016s-0.017 0.016-0.022 0.020c-0.114 0.097 0.011 0.077-0.14 0.13-0.076-0.224 0.072-0.124 0.059-0.394-0.070-0.051-0.164-0.001-0.304-0.061l-0.211-0.191c-0.011-0.013-0.030-0.019-0.037-0.050-0.008-0.032-0.024-0.036-0.037-0.052-0.038 0.169-0.005 0.124-0.139 0.189l-0.275 0.106c0.072 0.331-0.026 0.015 0.137 0.315-0.215 0.138-0.146 0.133-0.23 0.397-0.029 0.434 0.582 0.614 0.66 1.964 0.118-0.002 0.028-0.056 0.075 0.106l0.037 0.703c0.008 0.997-0.052 1.42-0.426 2.388-0.167 0.431-1.164 1.77-1.531 1.93-0.116 0.051-0.027 0.013-0.112 0.032-0.219 0.272-0.228 0.223-0.492 0.386-0.511 0.315-1.18 0.619-1.777 0.686l-1.891-0c-0.304-0.033-0.558-0.165-0.883-0.237-0.244-0.054-0.522-0.224-0.713-0.338-0.114-0.068-0.207-0.117-0.335-0.196-0.102-0.063-0.007-0.001-0.108-0.072-0.015-0.010-0.054-0.042-0.068-0.052l-0.646-0.531c-0.008-0.009-0.021-0.021-0.030-0.030-0.336-0.344-0.721-0.776-0.927-1.205-0.238-0.494-0.483-0.956-0.519-1.598-0.116 0.002-0.028 0.054-0.075-0.106l-0.027-1.473c0.049-0.922 0.422-1.747 0.951-2.491 0.147-0.208 0.168-0.275 0.356-0.465l0.18-0.181c0.009-0.009 0.022-0.021 0.031-0.030 0.035-0.036 0.014-0.004 0.058-0.060l0.080-0.178c-0.020-0.058-0.069-0.159-0.077-0.175-0.006-0.011-0.014-0.025-0.020-0.036l-0.136-0.257c-0.064-0.227 0.049 0.262-0.026-0.2l0.57-0.060c-0.133-0.165 0.227-0.239-0.342-0.138-0.242 0.043 0.088 0.104-0.189 0.080-0.019-0.186-0.108 0.151 0.046-0.037 0.076-0.094-0.012-0.104 0.072-0.15 0.267-0.146 0.624 0.186 0.885-0.226-0.019-0.008-0.041-0.017-0.058-0.020l-0.169-0.027c-0.225 0.014-0.069 0.062-0.306 0.091-0.114 0.014-0.034 0.037-0.156-0.025 0.050-0.174 0.171-0.057 0.258-0.228 0.081-0.16 0.046 0.029 0.018-0.086-0.168 0.029-0.081 0.021-0.206 0.071l-0.099 0.044c-0.010-0.014-0.032 0.017-0.049 0.023-0.238-0.295-0.266-0.021-0.343-0.258-0.011-0.034 0.332-0.11-0.311 0.002zM6.799 4.819c-0.056 0.128-0.535 0.446-0.675 0.538l-0.275 0.199c-0.009 0.008-0.022 0.020-0.031 0.029l-0.322 0.364c-0.065 0.178-0.003 0.092-0.114 0.212-0.131 0.142 0.018 0.020-0.169 0.114-0.072 0.21-0.451 0.596-0.702 1.727-0.17 0.768-0.079 6.415-0.080 7.462-0.001 0.824-0.102 8.004 0.091 8.634l0.314 1.028c0.164-0.053 0.099 0.164 0.090 0.247 0.201 0.080 0.059-0.028 0.215 0.173 0.174 0.224 0.136 0.317 0.557 0.74 0.009 0.009 0.021 0.021 0.030 0.030s0.022 0.021 0.031 0.030l0.188 0.167c0.553 0.434 1.236 0.742 1.895 0.986 0.316 0.117 13.274 0.062 15.174 0.053 0.933-0.004 1.041-0.042 1.721-0.317 0.219-0.088 0.483-0.19 0.665-0.179 0.027-0.245 0.259-0.263 0.659-0.573l0.335-0.32c0.081-0.087 0.029-0.030 0.083-0.095l0.525-0.769c0.213-0.448 0.098-0.506 0.298-0.54-0.019-0.394 0.118-0.206 0.085-0.576 0.117-0.112 0.038 0.044 0.112-0.198 0.099-0.321 0.045-10.319 0.045-10.648 0.001-1.573 0.208-4.728-0.231-5.88-0.081-0.214-0.1-0.291-0.183-0.538s-0.363-0.579-0.529-0.823c-0.035-0.050-0.086-0.129-0.123-0.176l-0.26-0.277c-0.009-0.009-0.021-0.021-0.031-0.030l-0.897-0.632c-0.254-0.134-0.126 0.045-0.196-0.174-0.172 0.012-0.075 0.032-0.272-0.020l-0.209-0.086c-0.956-0.385-2.748-0.251-3.9-0.251h-11.871c-0.504 0.002-1.1 0.078-1.545 0.251-0.341 0.132-0.254 0.162-0.498 0.117zM14.987 12.719l-0.006 0.048-0.005 0.285c0.251 0.007 0.253 0.003 0.476 0.117 0.363 0.185 0.456 0.233 0.541 0.463l-0.021 0.039c0.215 0.076 0.069-0.023 0.233 0.164 0.396 0.451 0.172 1.385 0.031 1.769-0.049 0.178-0.042 0.24-0.246 0.311l-0.711 0.476c-0.080 0.244 0.006 0.125-0.227 0.195l-0.835-0.001c0.252 0.136 0.041 0.078 0.215 0.068l0.619-0.030c0.241 0.036 0.11-0.010 0.169 0.169-0.274-0.063-0.703-0.048-0.976 0.012l-0.284 0.029c-0.029 0-0.214-0.012-0.216-0.012 0.028 0.335 0.072 0.301 0.059 0.649 0.355-0.049 0.211-0.021 0.177-0.059-0.154 0.217-0.158 0.239-0.177 0.521 0.145 0.052 0.201 0.139 0.295 0.231l0.463-0.103c-0.005-0.146-0.014 0.002-0.039 0.059l0.11 0.026c0.016 0.005 0.035 0.009 0.052 0.015l0.177 0.078c-0.116 0.118-0.237 0.1-0.339 0.118l0.149 0.154c0.007 0.003 0.349-0.084 0.242 0.251-0.003 0.010-0.011 0.026-0.016 0.036s-0.014 0.026-0.019 0.037l-0.16 0.252c0.022 0.086-0.1 0.078 0.508 0.21 0.417 0.091 2.014 0.077 2.030-0.211 0.044-0.265-0.134-0.006-0.215-0.411-0.053-0.267 0.028-0.128 0.112-0.321l0.056-0.155c0.004-0.031 0.008-0.040 0.018-0.058 0.074 0.030 0.256 0.121 0.3 0.12 0.183-0 0.029 0.012 0.232-0.125 0.134 0.036 0.154 0.076 0.236 0.158 0.114-0.185 0.18-0.261 0.404-0.271l-0.095-0.072c-0.243-0.224-0.071-0.207-0.288-0.448l0.245-0.061c-0.137-0.282-0.081-0.285-0.039-0.344 0.155 0.020 0.003 0.065 0.128 0.197l-0.216 0.236c0.011 0.014 0.027 0.030 0.035 0.041l0.064 0.083c0.009 0.014 0.019 0.027 0.027 0.041l0.095 0.2c0.002-0.008 0.007 0.027 0.015 0.038 0.356-0.118 0.18-0.060 0.215-0.337 0.038-0.297-0.031-0.133-0.029-0.42 0.117-0.108 0.145-0.161 0.259-0.122 0.289 0.101-0.034 0.045 0.264 0.21l0.079 0.054c0.060-0.511 0.19-0.66 0.2-1.203 0.014-0.727-0.166-1.463-0.576-2.033-0.142-0.197-0.432-0.55-0.604-0.654l-0.103-0.042c-0.269-0.129-0.244-0.166-0.306-0.285l-0.728-0.302c-0.833-0.234-0.674-0.197-1.644-0.152-0.154 0.053-0.26 0.080-0.411 0.072zM25.747 8.495l0.002 3.923h-3.388l-0.249-0.014c-0.049-0.169-0.374-0.599-0.493-0.744-0.11-0.135-0.117-0.095-0.118-0.241-0.321-0.142-0.12-0.1-0.451-0.423-0.009-0.009-0.021-0.021-0.030-0.030-0.31-0.287-0.704-0.513-0.804-0.775-0.138 0.007-0.822-0.445-1.122-0.602l-0.76-0.311c-1.209-0.466-3.076-0.499-4.278-0.122-0.556 0.174-0.98 0.318-1.513 0.615-0.258 0.144-0.711 0.356-0.81 0.612 0.643-0.111 0.3-0.035 0.311-0.002 0.078 0.238 0.105-0.037 0.343 0.258 0.017-0.006 0.039-0.037 0.049-0.023l0.099-0.044c0.125-0.050 0.038-0.043 0.206-0.071 0.028 0.116 0.063-0.074-0.018 0.086-0.087 0.171-0.207 0.054-0.258 0.228 0.121 0.062 0.042 0.039 0.156 0.025 0.238-0.030 0.082-0.078 0.306-0.091l0.169 0.027c0.017 0.003 0.039 0.013 0.058 0.020-0.261 0.412-0.618 0.080-0.885 0.226-0.084 0.046 0.004 0.057-0.072 0.15-0.153 0.188-0.065-0.149-0.046 0.037 0.277 0.025-0.053-0.037 0.189-0.080 0.569-0.101 0.209-0.027 0.342 0.138l-0.57 0.060c0.075 0.462-0.038-0.027 0.026 0.2l0.136 0.257c0.006 0.011 0.014 0.025 0.020 0.036 0.008 0.015 0.058 0.117 0.077 0.175 0.205-0.065 0.285-0.138 0.463-0.277 0.355-0.277 0.903-0.639 1.38-0.747 0.297-0.067 0.42-0.185 0.712-0.223 0.682-0.088 1.884-0.135 2.566 0.139 0.149 0.061 0.707 0.098 0.77 0.331 0.538 0.088 1.15 0.682 1.549 1.074l0.413 0.467c0.070 0.125-0.003 0.050 0.085 0.152l0.194 0.132c0.084-0.264 0.015-0.259 0.23-0.397-0.163-0.3-0.065 0.016-0.137-0.315l0.275-0.106c0.133-0.064 0.101-0.019 0.139-0.189 0.013 0.017 0.029 0.020 0.037 0.052 0.008 0.031 0.027 0.037 0.037 0.050l0.211 0.191c0.141 0.060 0.235 0.010 0.304 0.061 0.013 0.27-0.135 0.17-0.059 0.394 0.151-0.053 0.026-0.033 0.14-0.13 0.005-0.004 0.016-0.016 0.022-0.020s0.018-0.014 0.024-0.016l3.758 0.006c0.248 0.046 0.104 0.143 0.072 0.298 0.008-0.030-0.183-0.039 0.122-0.020 0.418 0.026 0.342 0.114 0.469-0.098 0.161 0.135-0.053 0.142 0.001-0.106 0.056-0.258 0.157-0.116 0.102-0.427l-0.044-0.176c-0.055 0.022-0.098 0.061-0.131 0.087-0.012 0.009-0.051 0.041-0.061 0.049-0.005 0.004-0.019 0.017-0.023 0.021s-0.012 0.016-0.021 0.020l0.001-3.366c0.002-0.104 0.055-0.696-0.16-0.612-0.007 0.003-0.023 0.017-0.029 0.022-0.074 0.069-0.054 0.11-0.036 0.177zM21.718 7.245c-0.184 0.108-0.289 0.309-0.36 0.482-0.023 0.491-0.011 0.984-0.011 1.476-0.003 1.685 0.27 1.45 2.896 1.429 0.118-0.097 0.342-0.202 0.493-0.366 0.083-0.315 0.127-0.058 0.124-0.767-0.009-2.19 0.206-2.375-1.606-2.374l-1.231 0.019c-0.319 0.063 0.042 0.013-0.304 0.1zM12.632 15.523c-0.031 0.753-0.005 1.289 0.261 1.85 0.202 0.426 0.565 0.96 0.903 1.196 0.157 0.052 0.080-0.001 0.225 0.107 0.201 0.149 0.049-0.027 0.138 0.181 0.191 0.111 0.342 0.203 0.56 0.23l0.16-0.252c0.005-0.011 0.014-0.027 0.019-0.037s0.012-0.027 0.016-0.036c0.108-0.335-0.235-0.248-0.242-0.251l-0.149-0.154c0.102-0.018 0.224 0 0.339-0.118l-0.177-0.078c-0.017-0.005-0.036-0.010-0.052-0.015l-0.11-0.026c0.025-0.057 0.033-0.206 0.039-0.059l-0.463 0.103c-0.094-0.092-0.15-0.178-0.295-0.231 0.019-0.283 0.023-0.305 0.177-0.521 0.034 0.037 0.178 0.009-0.177 0.059 0.013-0.348-0.031-0.314-0.059-0.649 0.002 0 0.187 0.012 0.216 0.012l0.284-0.029c0.273-0.061 0.702-0.075 0.976-0.012-0.059-0.178 0.072-0.132-0.169-0.169l-0.619 0.030c-0.174 0.010 0.037 0.068-0.215-0.068l0.835 0.001c0.234-0.070 0.147 0.049 0.227-0.195-0.824 0.082-1.518 0.014-1.986-0.708l-0.149-0.266c-0.006-0.012-0.013-0.027-0.019-0.039-0.217-0.483 0.067-0.902-0.226-0.905 0.042 0.27-0.002 0.15-0.050 0.27-0.020 0.051-0.083 0.189-0.104 0.249-0.070 0.199-0.087 0.306-0.112 0.531zM10.195 11.952c0.236-0.003-0.014 0.083 0.301-0.091l-0.127 0.144c-0.154 0.248 0.018 0.115-0.207 0.339-0.147 0.147-0.031-0.078-0.119 0.166 0.108 0.178 0.173 0.071 0.185 0.223 0.018 0.225 0.063-0.022-0.027 0.092 0.019-0.005 0.047-0.025 0.057-0.010 0.001 0.002 0.113 0.013 0.219-0.128-0.047-0.080-0.010-0.021-0.060-0.14l-0.097-0.215c0.016-0.001 0.041-0.014 0.049 0.002 0.024 0.047 0.239-0.091 0.482 0.175-0.065 0.030-0.202 0.138-0.215 0.161-0.054 0.096-0.116-0.138 0.008 0.25 0.006 0.018 0.017 0.042 0.031 0.061 0.014-0.016 0.028-0.062 0.034-0.051s0.024-0.037 0.032-0.050c0.007-0.012 0.020-0.033 0.029-0.047l0.453-0.59c0.174-0.213 0.124 0.028 0.142-0.246-0.304 0.007-0.201 0.097-0.512-0.020l0.082-0.105c0.012-0.009 0.029-0.029 0.044-0.038 0.159-0.101-0.023 0.012 0.168-0.051 0.082-0.027-0.022 0.030 0.085-0.040l0.635-0.415c-0.237-0.338-0.070-0.181-0.126-0.441-0.035-0.163-0.166-0.031 0.116-0.15-0.206-0.381-0.172-0.184-0.177-0.177l0.092-0.113c0.002-0.018-0.017-0.058-0.014-0.088-0.282 0.083-0.709 0.492-0.918 0.722l-0.585 0.717c-0.046 0.086-0.026 0.024-0.057 0.152zM17.258 19.086c0.292-0.036 0.486-0.193 0.719-0.34 0.266-0.168 0.322-0.326 0.554-0.482l0.495-0.773c0.052-0.144 0.034-0.054 0.056-0.227-0.299-0.165 0.025-0.109-0.264-0.21-0.114-0.039-0.142 0.015-0.259 0.122-0.002 0.288 0.067 0.123 0.029 0.42-0.035 0.277 0.141 0.219-0.215 0.337-0.008-0.011-0.013-0.046-0.015-0.038l-0.095-0.2c-0.008-0.014-0.018-0.027-0.027-0.041l-0.064-0.083c-0.008-0.011-0.024-0.027-0.035-0.041l0.216-0.236c-0.125-0.132 0.027-0.177-0.128-0.197-0.041 0.060-0.098 0.062 0.039 0.344l-0.245 0.061c0.217 0.241 0.044 0.224 0.288 0.448l0.095 0.072c-0.223 0.011-0.289 0.086-0.404 0.271-0.082-0.082-0.102-0.121-0.236-0.158-0.203 0.137-0.049 0.125-0.232 0.125-0.044 0-0.226-0.091-0.3-0.12-0.010 0.018-0.015 0.027-0.018 0.058l-0.056 0.155c-0.084 0.194-0.166 0.055-0.112 0.321 0.081 0.405 0.259 0.146 0.215 0.411zM14.976 13.052l0.005-0.285c-0.214 0.036-0.384 0.126-0.523 0.216 0.104 0.063 0.032 0.051 0.228 0.068 0.087 0.008 0.201 0.002 0.29 0.001zM18.18 13.428l-0.046-0.098c-0.099-0.154-0.186-0.167-0.364-0.228 0.062 0.119 0.038 0.156 0.306 0.285l0.103 0.042zM14.159 18.857c-0.089-0.209 0.063-0.032-0.138-0.181-0.145-0.108-0.068-0.054-0.225-0.107 0.007 0.016 0.017 0.024 0.022 0.049 0.004 0.024 0.017 0.036 0.024 0.045l0.085 0.1c0.104 0.081 0.114 0.062 0.232 0.094zM15.991 15.915c0.204-0.071 0.196-0.133 0.246-0.311-0.171 0.097-0.016-0.056-0.161 0.121-0.111 0.137-0.026 0.013-0.085 0.19z"></path>
</svg>
