<?xml version="1.0" encoding="UTF-8"?>
<!DOCTYPE svg PUBLIC "-//W3C//DTD SVG 1.1//EN" "http://www.w3.org/Graphics/SVG/1.1/DTD/svg11.dtd">
<!-- Creator: CorelDRAW 2017 -->
<svg xmlns="http://www.w3.org/2000/svg" xml:space="preserve" width="33.1892mm" height="16.9332mm" version="1.1" style="shape-rendering:geometricPrecision; text-rendering:geometricPrecision; image-rendering:optimizeQuality; fill-rule:evenodd; clip-rule:evenodd"
viewBox="0 0 3318.92 1693.32"
 xmlns:xlink="http://www.w3.org/1999/xlink">
 <defs>
  <style type="text/css">
   <![CDATA[
    .str0 {stroke:#ED3237;stroke-width:70.56;stroke-miterlimit:22.9256}
    .fil3 {fill:#FEFEFE}
    .fil1 {fill:#373435}
    .fil0 {fill:#FEFEFE;fill-rule:nonzero}
    .fil2 {fill:#373435;fill-rule:nonzero}
    .fil4 {fill:#ED3237;fill-rule:nonzero}
   ]]>
  </style>
 </defs>
 <g id="Capa_x0020_1">
  <metadata id="CorelCorpID_0Corel-Layer"/>
  <g id="_2189112263984">
   <g>
    <path class="fil0" d="M192.49 207.89l-119.09 0 0 -33.04 119.09 0 16.84 16.52 -16.84 16.52zm0 -33.04c9.3,0 16.84,7.4 16.84,16.52 0,9.12 -7.54,16.52 -16.84,16.52l0 -33.04zm-16.84 159.32l0 -142.8 33.68 0 0 142.8 -16.84 16.52 -16.84 -16.52zm33.68 0c0,9.12 -7.54,16.52 -16.84,16.52 -9.3,0 -16.84,-7.4 -16.84,-16.52l33.68 0zm-135.93 -16.52l119.09 0 0 33.04 -119.09 0 -16.84 -16.52 16.84 -16.52zm0 33.04c-9.3,0 -16.84,-7.4 -16.84,-16.52 0,-9.12 7.54,-16.52 16.84,-16.52l0 33.04zm16.84 -159.32l0 142.8 -33.68 0 0 -142.8 16.84 -16.52 16.84 16.52zm-33.68 0c0,-9.12 7.54,-16.52 16.84,-16.52 9.3,0 16.84,7.4 16.84,16.52l-33.68 0z"/>
    <polygon id="1" class="fil1" points="73.4,191.37 192.49,191.37 192.49,334.17 73.4,334.17 "/>
   </g>
   <g>
    <path class="fil2" d="M504.42 431.08l-79.4 0 0 -33.04 79.4 0 16.84 16.52 -16.84 16.52zm0 -33.04c9.3,0 16.84,7.4 16.84,16.52 0,9.12 -7.54,16.52 -16.84,16.52l0 -33.04zm-16.84 120.38l0 -103.86 33.68 0 0 103.86 -16.84 16.52 -16.84 -16.52zm33.68 0c0,9.12 -7.54,16.52 -16.84,16.52 -9.3,0 -16.84,-7.4 -16.84,-16.52l33.68 0zm-96.24 -16.52l79.4 0 0 33.04 -79.4 0 -16.84 -16.52 16.84 -16.52zm0 33.04c-9.3,0 -16.84,-7.4 -16.84,-16.52 0,-9.12 7.54,-16.52 16.84,-16.52l0 33.04zm16.84 -120.38l0 103.86 -33.68 0 0 -103.86 16.84 -16.52 16.84 16.52zm-33.68 0c0,-9.12 7.54,-16.52 16.84,-16.52 9.3,0 16.84,7.4 16.84,16.52l-33.68 0z"/>
    <polygon id="1" class="fil3" points="425.02,414.56 504.42,414.56 504.42,518.42 425.02,518.42 "/>
   </g>
   <g>
    <path class="fil2" d="M632.06 112.82l-344.06 0 0 -33.04 344.06 0 16.84 16.52 -16.84 16.52zm0 -33.04c9.3,0 16.84,7.4 16.84,16.52 0,9.12 -7.54,16.52 -16.84,16.52l0 -33.04zm-16.84 250.2l0 -233.68 33.68 0 0 233.68 -16.84 16.52 -16.84 -16.52zm33.68 0c0,9.12 -7.54,16.52 -16.84,16.52 -9.3,0 -16.84,-7.4 -16.84,-16.52l33.68 0zm-360.9 -16.52l344.06 0 0 33.04 -344.06 0 -16.84 -16.52 16.84 -16.52zm0 33.04c-9.3,0 -16.84,-7.4 -16.84,-16.52 0,-9.12 7.54,-16.52 16.84,-16.52l0 33.04zm16.84 -250.2l0 233.68 -33.68 0 0 -233.68 16.84 -16.52 16.84 16.52zm-33.68 0c0,-9.12 7.54,-16.52 16.84,-16.52 9.3,0 16.84,7.4 16.84,16.52l-33.68 0z"/>
    <polygon id="1" class="fil3" points="288,96.3 632.06,96.3 632.06,329.98 288,329.98 "/>
   </g>
   <g>
    <path class="fil0" d="M395.97 524.35l-33.68 0 0 0 -0.17 -5.7 -0.47 -5.61 -0.78 -5.53 -1.09 -5.46 -1.37 -5.35 -1.66 -5.23 -1.94 -5.16 -2.21 -5.04 -2.48 -4.92 -2.75 -4.81 -2.98 -4.67 -3.24 -4.52 -3.5 -4.41 -3.7 -4.25 -3.93 -4.07 -4.17 -3.92 -4.37 -3.75 -4.57 -3.55 -4.77 -3.37 -4.94 -3.15 -5.14 -2.96 -5.31 -2.73 -5.46 -2.52 -5.63 -2.28 -5.76 -2.04 -5.92 -1.8 -6.03 -1.55 -6.15 -1.27 -6.29 -1.01 -6.38 -0.73 -6.49 -0.43 -6.59 -0.16 0 -33.04 8.13 0.18 8.05 0.55 7.94 0.91 7.81 1.25 7.69 1.59 7.55 1.93 7.38 2.24 7.22 2.56 7.05 2.86 6.88 3.16 6.67 3.45 6.48 3.72 6.28 4.01 6.03 4.27 5.81 4.51 5.57 4.77 5.31 5 5.07 5.25 4.78 5.47 4.48 5.65 4.22 5.9 3.9 6.09 3.57 6.27 3.26 6.46 2.91 6.64 2.56 6.78 2.2 6.95 1.81 7.09 1.43 7.2 1.04 7.33 0.63 7.43 0.21 7.52 0 0zm-159.92 144.99l0 -33.04 0 0 6.59 -0.16 6.49 -0.43 6.38 -0.73 6.29 -1.01 6.15 -1.27 6.03 -1.55 5.92 -1.8 5.76 -2.04 5.63 -2.28 5.46 -2.52 5.31 -2.73 5.14 -2.96 4.94 -3.15 4.77 -3.37 4.57 -3.55 4.37 -3.75 4.17 -3.92 3.93 -4.07 3.7 -4.25 3.5 -4.41 3.24 -4.52 2.98 -4.67 2.75 -4.81 2.48 -4.92 2.21 -5.04 1.94 -5.16 1.66 -5.23 1.37 -5.35 1.09 -5.46 0.78 -5.53 0.47 -5.61 0.17 -5.7 33.68 0 -0.21 7.52 -0.63 7.43 -1.04 7.33 -1.43 7.2 -1.81 7.09 -2.2 6.95 -2.56 6.78 -2.91 6.64 -3.26 6.46 -3.57 6.27 -3.9 6.09 -4.22 5.9 -4.48 5.65 -4.78 5.47 -5.07 5.25 -5.31 5 -5.57 4.77 -5.81 4.51 -6.03 4.27 -6.28 4.01 -6.48 3.72 -6.67 3.45 -6.88 3.16 -7.05 2.86 -7.22 2.56 -7.38 2.24 -7.55 1.93 -7.69 1.59 -7.81 1.25 -7.94 0.91 -8.05 0.55 -8.13 0.18 0 0zm-159.92 -144.99l33.68 0 0 0 0.17 5.7 0.47 5.61 0.78 5.53 1.09 5.46 1.37 5.35 1.66 5.23 1.94 5.16 2.21 5.04 2.48 4.92 2.75 4.81 2.98 4.68 3.24 4.52 3.48 4.39 3.72 4.26 3.94 4.08 4.16 3.92 4.36 3.74 4.57 3.54 4.77 3.38 4.96 3.16 5.12 2.95 5.32 2.73 5.46 2.52 5.61 2.28 5.78 2.04 5.92 1.8 6.03 1.55 6.15 1.27 6.29 1.01 6.38 0.73 6.49 0.43 6.59 0.16 0 33.04 -8.13 -0.18 -8.05 -0.55 -7.94 -0.91 -7.81 -1.25 -7.69 -1.59 -7.55 -1.93 -7.38 -2.24 -7.22 -2.56 -7.07 -2.86 -6.86 -3.16 -6.68 -3.45 -6.48 -3.73 -6.26 -4 -6.05 -4.26 -5.81 -4.52 -5.58 -4.78 -5.3 -5 -5.06 -5.24 -4.78 -5.46 -4.5 -5.67 -4.2 -5.9 -3.9 -6.08 -3.57 -6.27 -3.26 -6.46 -2.91 -6.64 -2.56 -6.78 -2.2 -6.95 -1.81 -7.09 -1.43 -7.2 -1.04 -7.33 -0.63 -7.43 -0.21 -7.52 0 0zm159.92 -144.99l0 33.04 0 0 -6.59 0.16 -6.49 0.43 -6.38 0.73 -6.29 1.01 -6.15 1.27 -6.03 1.55 -5.92 1.8 -5.78 2.04 -5.61 2.28 -5.46 2.52 -5.32 2.73 -5.12 2.95 -4.96 3.16 -4.77 3.38 -4.57 3.54 -4.36 3.74 -4.16 3.92 -3.94 4.08 -3.72 4.26 -3.48 4.39 -3.24 4.52 -2.98 4.68 -2.75 4.81 -2.48 4.92 -2.21 5.04 -1.94 5.16 -1.66 5.23 -1.37 5.35 -1.09 5.46 -0.78 5.53 -0.47 5.61 -0.17 5.7 -33.68 0 0.21 -7.52 0.63 -7.43 1.04 -7.33 1.43 -7.2 1.81 -7.09 2.2 -6.95 2.56 -6.78 2.91 -6.64 3.26 -6.46 3.57 -6.27 3.9 -6.08 4.2 -5.9 4.5 -5.67 4.78 -5.46 5.06 -5.24 5.3 -5 5.58 -4.78 5.81 -4.52 6.05 -4.26 6.26 -4 6.48 -3.73 6.68 -3.45 6.86 -3.16 7.07 -2.86 7.22 -2.56 7.38 -2.24 7.55 -1.93 7.69 -1.59 7.81 -1.25 7.94 -0.91 8.05 -0.55 8.13 -0.18 0 0z"/>
    <path id="1" class="fil1" d="M236.05 395.88c79.02,0 143.08,57.52 143.08,128.47 0,70.95 -64.06,128.47 -143.08,128.47 -79.03,0 -143.08,-57.52 -143.08,-128.47 0,-70.95 64.05,-128.47 143.08,-128.47z"/>
   </g>
   <g>
    <path class="fil0" d="M192.49 207.89l-119.09 0 0 -33.04 119.09 0 16.84 16.52 -16.84 16.52zm0 -33.04c9.3,0 16.84,7.4 16.84,16.52 0,9.12 -7.54,16.52 -16.84,16.52l0 -33.04zm-16.84 159.32l0 -142.8 33.68 0 0 142.8 -16.84 16.52 -16.84 -16.52zm33.68 0c0,9.12 -7.54,16.52 -16.84,16.52 -9.3,0 -16.84,-7.4 -16.84,-16.52l33.68 0zm-135.93 -16.52l119.09 0 0 33.04 -119.09 0 -16.84 -16.52 16.84 -16.52zm0 33.04c-9.3,0 -16.84,-7.4 -16.84,-16.52 0,-9.12 7.54,-16.52 16.84,-16.52l0 33.04zm16.84 -159.32l0 142.8 -33.68 0 0 -142.8 16.84 -16.52 16.84 16.52zm-33.68 0c0,-9.12 7.54,-16.52 16.84,-16.52 9.3,0 16.84,7.4 16.84,16.52l-33.68 0z"/>
    <polygon id="1" class="fil1" points="73.4,191.37 192.49,191.37 192.49,334.17 73.4,334.17 "/>
   </g>
   <g>
    <path class="fil2" d="M504.42 431.08l-79.4 0 0 -33.04 79.4 0 16.84 16.52 -16.84 16.52zm0 -33.04c9.3,0 16.84,7.4 16.84,16.52 0,9.12 -7.54,16.52 -16.84,16.52l0 -33.04zm-16.84 120.38l0 -103.86 33.68 0 0 103.86 -16.84 16.52 -16.84 -16.52zm33.68 0c0,9.12 -7.54,16.52 -16.84,16.52 -9.3,0 -16.84,-7.4 -16.84,-16.52l33.68 0zm-96.24 -16.52l79.4 0 0 33.04 -79.4 0 -16.84 -16.52 16.84 -16.52zm0 33.04c-9.3,0 -16.84,-7.4 -16.84,-16.52 0,-9.12 7.54,-16.52 16.84,-16.52l0 33.04zm16.84 -120.38l0 103.86 -33.68 0 0 -103.86 16.84 -16.52 16.84 16.52zm-33.68 0c0,-9.12 7.54,-16.52 16.84,-16.52 9.3,0 16.84,7.4 16.84,16.52l-33.68 0z"/>
    <polygon id="1" class="fil3" points="425.02,414.56 504.42,414.56 504.42,518.42 425.02,518.42 "/>
   </g>
   <g>
    <path class="fil2" d="M632.06 112.82l-344.06 0 0 -33.04 344.06 0 16.84 16.52 -16.84 16.52zm0 -33.04c9.3,0 16.84,7.4 16.84,16.52 0,9.12 -7.54,16.52 -16.84,16.52l0 -33.04zm-16.84 250.2l0 -233.68 33.68 0 0 233.68 -16.84 16.52 -16.84 -16.52zm33.68 0c0,9.12 -7.54,16.52 -16.84,16.52 -9.3,0 -16.84,-7.4 -16.84,-16.52l33.68 0zm-360.9 -16.52l344.06 0 0 33.04 -344.06 0 -16.84 -16.52 16.84 -16.52zm0 33.04c-9.3,0 -16.84,-7.4 -16.84,-16.52 0,-9.12 7.54,-16.52 16.84,-16.52l0 33.04zm16.84 -250.2l0 233.68 -33.68 0 0 -233.68 16.84 -16.52 16.84 16.52zm-33.68 0c0,-9.12 7.54,-16.52 16.84,-16.52 9.3,0 16.84,7.4 16.84,16.52l-33.68 0z"/>
    <polygon id="1" class="fil3" points="288,96.3 632.06,96.3 632.06,329.98 288,329.98 "/>
   </g>
   <g>
    <path class="fil0" d="M395.97 524.35l-33.68 0 0 0 -0.17 -5.7 -0.47 -5.61 -0.78 -5.53 -1.09 -5.46 -1.37 -5.35 -1.66 -5.23 -1.94 -5.16 -2.21 -5.04 -2.48 -4.92 -2.75 -4.81 -2.98 -4.67 -3.24 -4.52 -3.5 -4.41 -3.7 -4.25 -3.93 -4.07 -4.17 -3.92 -4.37 -3.75 -4.57 -3.55 -4.77 -3.37 -4.94 -3.15 -5.14 -2.96 -5.31 -2.73 -5.46 -2.52 -5.63 -2.28 -5.76 -2.04 -5.92 -1.8 -6.03 -1.55 -6.15 -1.27 -6.29 -1.01 -6.38 -0.73 -6.49 -0.43 -6.59 -0.16 0 -33.04 8.13 0.18 8.05 0.55 7.94 0.91 7.81 1.25 7.69 1.59 7.55 1.93 7.38 2.24 7.22 2.56 7.05 2.86 6.88 3.16 6.67 3.45 6.48 3.72 6.28 4.01 6.03 4.27 5.81 4.51 5.57 4.77 5.31 5 5.07 5.25 4.78 5.47 4.48 5.65 4.22 5.9 3.9 6.09 3.57 6.27 3.26 6.46 2.91 6.64 2.56 6.78 2.2 6.95 1.81 7.09 1.43 7.2 1.04 7.33 0.63 7.43 0.21 7.52 0 0zm-159.92 144.99l0 -33.04 0 0 6.59 -0.16 6.49 -0.43 6.38 -0.73 6.29 -1.01 6.15 -1.27 6.03 -1.55 5.92 -1.8 5.76 -2.04 5.63 -2.28 5.46 -2.52 5.31 -2.73 5.14 -2.96 4.94 -3.15 4.77 -3.37 4.57 -3.55 4.37 -3.75 4.17 -3.92 3.93 -4.07 3.7 -4.25 3.5 -4.41 3.24 -4.52 2.98 -4.67 2.75 -4.81 2.48 -4.92 2.21 -5.04 1.94 -5.16 1.66 -5.23 1.37 -5.35 1.09 -5.46 0.78 -5.53 0.47 -5.61 0.17 -5.7 33.68 0 -0.21 7.52 -0.63 7.43 -1.04 7.33 -1.43 7.2 -1.81 7.09 -2.2 6.95 -2.56 6.78 -2.91 6.64 -3.26 6.46 -3.57 6.27 -3.9 6.09 -4.22 5.9 -4.48 5.65 -4.78 5.47 -5.07 5.25 -5.31 5 -5.57 4.77 -5.81 4.51 -6.03 4.27 -6.28 4.01 -6.48 3.72 -6.67 3.45 -6.88 3.16 -7.05 2.86 -7.22 2.56 -7.38 2.24 -7.55 1.93 -7.69 1.59 -7.81 1.25 -7.94 0.91 -8.05 0.55 -8.13 0.18 0 0zm-159.92 -144.99l33.68 0 0 0 0.17 5.7 0.47 5.61 0.78 5.53 1.09 5.46 1.37 5.35 1.66 5.23 1.94 5.16 2.21 5.04 2.48 4.92 2.75 4.81 2.98 4.68 3.24 4.52 3.48 4.39 3.72 4.26 3.94 4.08 4.16 3.92 4.36 3.74 4.57 3.54 4.77 3.38 4.96 3.16 5.12 2.95 5.32 2.73 5.46 2.52 5.61 2.28 5.78 2.04 5.92 1.8 6.03 1.55 6.15 1.27 6.29 1.01 6.38 0.73 6.49 0.43 6.59 0.16 0 33.04 -8.13 -0.18 -8.05 -0.55 -7.94 -0.91 -7.81 -1.25 -7.69 -1.59 -7.55 -1.93 -7.38 -2.24 -7.22 -2.56 -7.07 -2.86 -6.86 -3.16 -6.68 -3.45 -6.48 -3.73 -6.26 -4 -6.05 -4.26 -5.81 -4.52 -5.58 -4.78 -5.3 -5 -5.06 -5.24 -4.78 -5.46 -4.5 -5.67 -4.2 -5.9 -3.9 -6.08 -3.57 -6.27 -3.26 -6.46 -2.91 -6.64 -2.56 -6.78 -2.2 -6.95 -1.81 -7.09 -1.43 -7.2 -1.04 -7.33 -0.63 -7.43 -0.21 -7.52 0 0zm159.92 -144.99l0 33.04 0 0 -6.59 0.16 -6.49 0.43 -6.38 0.73 -6.29 1.01 -6.15 1.27 -6.03 1.55 -5.92 1.8 -5.78 2.04 -5.61 2.28 -5.46 2.52 -5.32 2.73 -5.12 2.95 -4.96 3.16 -4.77 3.38 -4.57 3.54 -4.36 3.74 -4.16 3.92 -3.94 4.08 -3.72 4.26 -3.48 4.39 -3.24 4.52 -2.98 4.68 -2.75 4.81 -2.48 4.92 -2.21 5.04 -1.94 5.16 -1.66 5.23 -1.37 5.35 -1.09 5.46 -0.78 5.53 -0.47 5.61 -0.17 5.7 -33.68 0 0.21 -7.52 0.63 -7.43 1.04 -7.33 1.43 -7.2 1.81 -7.09 2.2 -6.95 2.56 -6.78 2.91 -6.64 3.26 -6.46 3.57 -6.27 3.9 -6.08 4.2 -5.9 4.5 -5.67 4.78 -5.46 5.06 -5.24 5.3 -5 5.58 -4.78 5.81 -4.52 6.05 -4.26 6.26 -4 6.48 -3.73 6.68 -3.45 6.86 -3.16 7.07 -2.86 7.22 -2.56 7.38 -2.24 7.55 -1.93 7.69 -1.59 7.81 -1.25 7.94 -0.91 8.05 -0.55 8.13 -0.18 0 0z"/>
    <path id="1" class="fil1" d="M236.05 395.88c79.02,0 143.08,57.52 143.08,128.47 0,70.95 -64.06,128.47 -143.08,128.47 -79.03,0 -143.08,-57.52 -143.08,-128.47 0,-70.95 64.05,-128.47 143.08,-128.47z"/>
   </g>
   <g>
    <path class="fil0" d="M192.49 207.89l-119.09 0 0 -33.04 119.09 0 16.84 16.52 -16.84 16.52zm0 -33.04c9.3,0 16.84,7.4 16.84,16.52 0,9.12 -7.54,16.52 -16.84,16.52l0 -33.04zm-16.84 159.32l0 -142.8 33.68 0 0 142.8 -16.84 16.52 -16.84 -16.52zm33.68 0c0,9.12 -7.54,16.52 -16.84,16.52 -9.3,0 -16.84,-7.4 -16.84,-16.52l33.68 0zm-135.93 -16.52l119.09 0 0 33.04 -119.09 0 -16.84 -16.52 16.84 -16.52zm0 33.04c-9.3,0 -16.84,-7.4 -16.84,-16.52 0,-9.12 7.54,-16.52 16.84,-16.52l0 33.04zm16.84 -159.32l0 142.8 -33.68 0 0 -142.8 16.84 -16.52 16.84 16.52zm-33.68 0c0,-9.12 7.54,-16.52 16.84,-16.52 9.3,0 16.84,7.4 16.84,16.52l-33.68 0z"/>
    <polygon id="1" class="fil1" points="73.4,191.37 192.49,191.37 192.49,334.17 73.4,334.17 "/>
   </g>
   <g>
    <path class="fil2" d="M504.42 431.08l-79.4 0 0 -33.04 79.4 0 16.84 16.52 -16.84 16.52zm0 -33.04c9.3,0 16.84,7.4 16.84,16.52 0,9.12 -7.54,16.52 -16.84,16.52l0 -33.04zm-16.84 120.38l0 -103.86 33.68 0 0 103.86 -16.84 16.52 -16.84 -16.52zm33.68 0c0,9.12 -7.54,16.52 -16.84,16.52 -9.3,0 -16.84,-7.4 -16.84,-16.52l33.68 0zm-96.24 -16.52l79.4 0 0 33.04 -79.4 0 -16.84 -16.52 16.84 -16.52zm0 33.04c-9.3,0 -16.84,-7.4 -16.84,-16.52 0,-9.12 7.54,-16.52 16.84,-16.52l0 33.04zm16.84 -120.38l0 103.86 -33.68 0 0 -103.86 16.84 -16.52 16.84 16.52zm-33.68 0c0,-9.12 7.54,-16.52 16.84,-16.52 9.3,0 16.84,7.4 16.84,16.52l-33.68 0z"/>
    <polygon id="1" class="fil3" points="425.02,414.56 504.42,414.56 504.42,518.42 425.02,518.42 "/>
   </g>
   <g>
    <path class="fil2" d="M632.06 112.82l-344.06 0 0 -33.04 344.06 0 16.84 16.52 -16.84 16.52zm0 -33.04c9.3,0 16.84,7.4 16.84,16.52 0,9.12 -7.54,16.52 -16.84,16.52l0 -33.04zm-16.84 250.2l0 -233.68 33.68 0 0 233.68 -16.84 16.52 -16.84 -16.52zm33.68 0c0,9.12 -7.54,16.52 -16.84,16.52 -9.3,0 -16.84,-7.4 -16.84,-16.52l33.68 0zm-360.9 -16.52l344.06 0 0 33.04 -344.06 0 -16.84 -16.52 16.84 -16.52zm0 33.04c-9.3,0 -16.84,-7.4 -16.84,-16.52 0,-9.12 7.54,-16.52 16.84,-16.52l0 33.04zm16.84 -250.2l0 233.68 -33.68 0 0 -233.68 16.84 -16.52 16.84 16.52zm-33.68 0c0,-9.12 7.54,-16.52 16.84,-16.52 9.3,0 16.84,7.4 16.84,16.52l-33.68 0z"/>
    <polygon id="1" class="fil3" points="288,96.3 632.06,96.3 632.06,329.98 288,329.98 "/>
   </g>
   <g>
    <path class="fil0" d="M395.97 524.35l-33.68 0 0 0 -0.17 -5.7 -0.47 -5.61 -0.78 -5.53 -1.09 -5.46 -1.37 -5.35 -1.66 -5.23 -1.94 -5.16 -2.21 -5.04 -2.48 -4.92 -2.75 -4.81 -2.98 -4.67 -3.24 -4.52 -3.5 -4.41 -3.7 -4.25 -3.93 -4.07 -4.17 -3.92 -4.37 -3.75 -4.57 -3.55 -4.77 -3.37 -4.94 -3.15 -5.14 -2.96 -5.31 -2.73 -5.46 -2.52 -5.63 -2.28 -5.76 -2.04 -5.92 -1.8 -6.03 -1.55 -6.15 -1.27 -6.29 -1.01 -6.38 -0.73 -6.49 -0.43 -6.59 -0.16 0 -33.04 8.13 0.18 8.05 0.55 7.94 0.91 7.81 1.25 7.69 1.59 7.55 1.93 7.38 2.24 7.22 2.56 7.05 2.86 6.88 3.16 6.67 3.45 6.48 3.72 6.28 4.01 6.03 4.27 5.81 4.51 5.57 4.77 5.31 5 5.07 5.25 4.78 5.47 4.48 5.65 4.22 5.9 3.9 6.09 3.57 6.27 3.26 6.46 2.91 6.64 2.56 6.78 2.2 6.95 1.81 7.09 1.43 7.2 1.04 7.33 0.63 7.43 0.21 7.52 0 0zm-159.92 144.99l0 -33.04 0 0 6.59 -0.16 6.49 -0.43 6.38 -0.73 6.29 -1.01 6.15 -1.27 6.03 -1.55 5.92 -1.8 5.76 -2.04 5.63 -2.28 5.46 -2.52 5.31 -2.73 5.14 -2.96 4.94 -3.15 4.77 -3.37 4.57 -3.55 4.37 -3.75 4.17 -3.92 3.93 -4.07 3.7 -4.25 3.5 -4.41 3.24 -4.52 2.98 -4.67 2.75 -4.81 2.48 -4.92 2.21 -5.04 1.94 -5.16 1.66 -5.23 1.37 -5.35 1.09 -5.46 0.78 -5.53 0.47 -5.61 0.17 -5.7 33.68 0 -0.21 7.52 -0.63 7.43 -1.04 7.33 -1.43 7.2 -1.81 7.09 -2.2 6.95 -2.56 6.78 -2.91 6.64 -3.26 6.46 -3.57 6.27 -3.9 6.09 -4.22 5.9 -4.48 5.65 -4.78 5.47 -5.07 5.25 -5.31 5 -5.57 4.77 -5.81 4.51 -6.03 4.27 -6.28 4.01 -6.48 3.72 -6.67 3.45 -6.88 3.16 -7.05 2.86 -7.22 2.56 -7.38 2.24 -7.55 1.93 -7.69 1.59 -7.81 1.25 -7.94 0.91 -8.05 0.55 -8.13 0.18 0 0zm-159.92 -144.99l33.68 0 0 0 0.17 5.7 0.47 5.61 0.78 5.53 1.09 5.46 1.37 5.35 1.66 5.23 1.94 5.16 2.21 5.04 2.48 4.92 2.75 4.81 2.98 4.68 3.24 4.52 3.48 4.39 3.72 4.26 3.94 4.08 4.16 3.92 4.36 3.74 4.57 3.54 4.77 3.38 4.96 3.16 5.12 2.95 5.32 2.73 5.46 2.52 5.61 2.28 5.78 2.04 5.92 1.8 6.03 1.55 6.15 1.27 6.29 1.01 6.38 0.73 6.49 0.43 6.59 0.16 0 33.04 -8.13 -0.18 -8.05 -0.55 -7.94 -0.91 -7.81 -1.25 -7.69 -1.59 -7.55 -1.93 -7.38 -2.24 -7.22 -2.56 -7.07 -2.86 -6.86 -3.16 -6.68 -3.45 -6.48 -3.73 -6.26 -4 -6.05 -4.26 -5.81 -4.52 -5.58 -4.78 -5.3 -5 -5.06 -5.24 -4.78 -5.46 -4.5 -5.67 -4.2 -5.9 -3.9 -6.08 -3.57 -6.27 -3.26 -6.46 -2.91 -6.64 -2.56 -6.78 -2.2 -6.95 -1.81 -7.09 -1.43 -7.2 -1.04 -7.33 -0.63 -7.43 -0.21 -7.52 0 0zm159.92 -144.99l0 33.04 0 0 -6.59 0.16 -6.49 0.43 -6.38 0.73 -6.29 1.01 -6.15 1.27 -6.03 1.55 -5.92 1.8 -5.78 2.04 -5.61 2.28 -5.46 2.52 -5.32 2.73 -5.12 2.95 -4.96 3.16 -4.77 3.38 -4.57 3.54 -4.36 3.74 -4.16 3.92 -3.94 4.08 -3.72 4.26 -3.48 4.39 -3.24 4.52 -2.98 4.68 -2.75 4.81 -2.48 4.92 -2.21 5.04 -1.94 5.16 -1.66 5.23 -1.37 5.35 -1.09 5.46 -0.78 5.53 -0.47 5.61 -0.17 5.7 -33.68 0 0.21 -7.52 0.63 -7.43 1.04 -7.33 1.43 -7.2 1.81 -7.09 2.2 -6.95 2.56 -6.78 2.91 -6.64 3.26 -6.46 3.57 -6.27 3.9 -6.08 4.2 -5.9 4.5 -5.67 4.78 -5.46 5.06 -5.24 5.3 -5 5.58 -4.78 5.81 -4.52 6.05 -4.26 6.26 -4 6.48 -3.73 6.68 -3.45 6.86 -3.16 7.07 -2.86 7.22 -2.56 7.38 -2.24 7.55 -1.93 7.69 -1.59 7.81 -1.25 7.94 -0.91 8.05 -0.55 8.13 -0.18 0 0z"/>
    <path id="1" class="fil1" d="M236.05 395.88c79.02,0 143.08,57.52 143.08,128.47 0,70.95 -64.06,128.47 -143.08,128.47 -79.03,0 -143.08,-57.52 -143.08,-128.47 0,-70.95 64.05,-128.47 143.08,-128.47z"/>
   </g>
   <g>
    <path class="fil0" d="M192.49 207.89l-119.09 0 0 -33.04 119.09 0 16.84 16.52 -16.84 16.52zm0 -33.04c9.3,0 16.84,7.4 16.84,16.52 0,9.12 -7.54,16.52 -16.84,16.52l0 -33.04zm-16.84 159.32l0 -142.8 33.68 0 0 142.8 -16.84 16.52 -16.84 -16.52zm33.68 0c0,9.12 -7.54,16.52 -16.84,16.52 -9.3,0 -16.84,-7.4 -16.84,-16.52l33.68 0zm-135.93 -16.52l119.09 0 0 33.04 -119.09 0 -16.84 -16.52 16.84 -16.52zm0 33.04c-9.3,0 -16.84,-7.4 -16.84,-16.52 0,-9.12 7.54,-16.52 16.84,-16.52l0 33.04zm16.84 -159.32l0 142.8 -33.68 0 0 -142.8 16.84 -16.52 16.84 16.52zm-33.68 0c0,-9.12 7.54,-16.52 16.84,-16.52 9.3,0 16.84,7.4 16.84,16.52l-33.68 0z"/>
    <polygon id="1" class="fil1" points="73.4,191.37 192.49,191.37 192.49,334.17 73.4,334.17 "/>
   </g>
   <g>
    <path class="fil2" d="M504.42 431.08l-79.4 0 0 -33.04 79.4 0 16.84 16.52 -16.84 16.52zm0 -33.04c9.3,0 16.84,7.4 16.84,16.52 0,9.12 -7.54,16.52 -16.84,16.52l0 -33.04zm-16.84 120.38l0 -103.86 33.68 0 0 103.86 -16.84 16.52 -16.84 -16.52zm33.68 0c0,9.12 -7.54,16.52 -16.84,16.52 -9.3,0 -16.84,-7.4 -16.84,-16.52l33.68 0zm-96.24 -16.52l79.4 0 0 33.04 -79.4 0 -16.84 -16.52 16.84 -16.52zm0 33.04c-9.3,0 -16.84,-7.4 -16.84,-16.52 0,-9.12 7.54,-16.52 16.84,-16.52l0 33.04zm16.84 -120.38l0 103.86 -33.68 0 0 -103.86 16.84 -16.52 16.84 16.52zm-33.68 0c0,-9.12 7.54,-16.52 16.84,-16.52 9.3,0 16.84,7.4 16.84,16.52l-33.68 0z"/>
    <polygon id="1" class="fil3" points="425.02,414.56 504.42,414.56 504.42,518.42 425.02,518.42 "/>
   </g>
   <g>
    <path class="fil2" d="M632.06 112.82l-344.06 0 0 -33.04 344.06 0 16.84 16.52 -16.84 16.52zm0 -33.04c9.3,0 16.84,7.4 16.84,16.52 0,9.12 -7.54,16.52 -16.84,16.52l0 -33.04zm-16.84 250.2l0 -233.68 33.68 0 0 233.68 -16.84 16.52 -16.84 -16.52zm33.68 0c0,9.12 -7.54,16.52 -16.84,16.52 -9.3,0 -16.84,-7.4 -16.84,-16.52l33.68 0zm-360.9 -16.52l344.06 0 0 33.04 -344.06 0 -16.84 -16.52 16.84 -16.52zm0 33.04c-9.3,0 -16.84,-7.4 -16.84,-16.52 0,-9.12 7.54,-16.52 16.84,-16.52l0 33.04zm16.84 -250.2l0 233.68 -33.68 0 0 -233.68 16.84 -16.52 16.84 16.52zm-33.68 0c0,-9.12 7.54,-16.52 16.84,-16.52 9.3,0 16.84,7.4 16.84,16.52l-33.68 0z"/>
    <polygon id="1" class="fil3" points="288,96.3 632.06,96.3 632.06,329.98 288,329.98 "/>
   </g>
   <g>
    <path class="fil0" d="M395.97 524.35l-33.68 0 0 0 -0.17 -5.7 -0.47 -5.61 -0.78 -5.53 -1.09 -5.46 -1.37 -5.35 -1.66 -5.23 -1.94 -5.16 -2.21 -5.04 -2.48 -4.92 -2.75 -4.81 -2.98 -4.67 -3.24 -4.52 -3.5 -4.41 -3.7 -4.25 -3.93 -4.07 -4.17 -3.92 -4.37 -3.75 -4.57 -3.55 -4.77 -3.37 -4.94 -3.15 -5.14 -2.96 -5.31 -2.73 -5.46 -2.52 -5.63 -2.28 -5.76 -2.04 -5.92 -1.8 -6.03 -1.55 -6.15 -1.27 -6.29 -1.01 -6.38 -0.73 -6.49 -0.43 -6.59 -0.16 0 -33.04 8.13 0.18 8.05 0.55 7.94 0.91 7.81 1.25 7.69 1.59 7.55 1.93 7.38 2.24 7.22 2.56 7.05 2.86 6.88 3.16 6.67 3.45 6.48 3.72 6.28 4.01 6.03 4.27 5.81 4.51 5.57 4.77 5.31 5 5.07 5.25 4.78 5.47 4.48 5.65 4.22 5.9 3.9 6.09 3.57 6.27 3.26 6.46 2.91 6.64 2.56 6.78 2.2 6.95 1.81 7.09 1.43 7.2 1.04 7.33 0.63 7.43 0.21 7.52 0 0zm-159.92 144.99l0 -33.04 0 0 6.59 -0.16 6.49 -0.43 6.38 -0.73 6.29 -1.01 6.15 -1.27 6.03 -1.55 5.92 -1.8 5.76 -2.04 5.63 -2.28 5.46 -2.52 5.31 -2.73 5.14 -2.96 4.94 -3.15 4.77 -3.37 4.57 -3.55 4.37 -3.75 4.17 -3.92 3.93 -4.07 3.7 -4.25 3.5 -4.41 3.24 -4.52 2.98 -4.67 2.75 -4.81 2.48 -4.92 2.21 -5.04 1.94 -5.16 1.66 -5.23 1.37 -5.35 1.09 -5.46 0.78 -5.53 0.47 -5.61 0.17 -5.7 33.68 0 -0.21 7.52 -0.63 7.43 -1.04 7.33 -1.43 7.2 -1.81 7.09 -2.2 6.95 -2.56 6.78 -2.91 6.64 -3.26 6.46 -3.57 6.27 -3.9 6.09 -4.22 5.9 -4.48 5.65 -4.78 5.47 -5.07 5.25 -5.31 5 -5.57 4.77 -5.81 4.51 -6.03 4.27 -6.28 4.01 -6.48 3.72 -6.67 3.45 -6.88 3.16 -7.05 2.86 -7.22 2.56 -7.38 2.24 -7.55 1.93 -7.69 1.59 -7.81 1.25 -7.94 0.91 -8.05 0.55 -8.13 0.18 0 0zm-159.92 -144.99l33.68 0 0 0 0.17 5.7 0.47 5.61 0.78 5.53 1.09 5.46 1.37 5.35 1.66 5.23 1.94 5.16 2.21 5.04 2.48 4.92 2.75 4.81 2.98 4.68 3.24 4.52 3.48 4.39 3.72 4.26 3.94 4.08 4.16 3.92 4.36 3.74 4.57 3.54 4.77 3.38 4.96 3.16 5.12 2.95 5.32 2.73 5.46 2.52 5.61 2.28 5.78 2.04 5.92 1.8 6.03 1.55 6.15 1.27 6.29 1.01 6.38 0.73 6.49 0.43 6.59 0.16 0 33.04 -8.13 -0.18 -8.05 -0.55 -7.94 -0.91 -7.81 -1.25 -7.69 -1.59 -7.55 -1.93 -7.38 -2.24 -7.22 -2.56 -7.07 -2.86 -6.86 -3.16 -6.68 -3.45 -6.48 -3.73 -6.26 -4 -6.05 -4.26 -5.81 -4.52 -5.58 -4.78 -5.3 -5 -5.06 -5.24 -4.78 -5.46 -4.5 -5.67 -4.2 -5.9 -3.9 -6.08 -3.57 -6.27 -3.26 -6.46 -2.91 -6.64 -2.56 -6.78 -2.2 -6.95 -1.81 -7.09 -1.43 -7.2 -1.04 -7.33 -0.63 -7.43 -0.21 -7.52 0 0zm159.92 -144.99l0 33.04 0 0 -6.59 0.16 -6.49 0.43 -6.38 0.73 -6.29 1.01 -6.15 1.27 -6.03 1.55 -5.92 1.8 -5.78 2.04 -5.61 2.28 -5.46 2.52 -5.32 2.73 -5.12 2.95 -4.96 3.16 -4.77 3.38 -4.57 3.54 -4.36 3.74 -4.16 3.92 -3.94 4.08 -3.72 4.26 -3.48 4.39 -3.24 4.52 -2.98 4.68 -2.75 4.81 -2.48 4.92 -2.21 5.04 -1.94 5.16 -1.66 5.23 -1.37 5.35 -1.09 5.46 -0.78 5.53 -0.47 5.61 -0.17 5.7 -33.68 0 0.21 -7.52 0.63 -7.43 1.04 -7.33 1.43 -7.2 1.81 -7.09 2.2 -6.95 2.56 -6.78 2.91 -6.64 3.26 -6.46 3.57 -6.27 3.9 -6.08 4.2 -5.9 4.5 -5.67 4.78 -5.46 5.06 -5.24 5.3 -5 5.58 -4.78 5.81 -4.52 6.05 -4.26 6.26 -4 6.48 -3.73 6.68 -3.45 6.86 -3.16 7.07 -2.86 7.22 -2.56 7.38 -2.24 7.55 -1.93 7.69 -1.59 7.81 -1.25 7.94 -0.91 8.05 -0.55 8.13 -0.18 0 0z"/>
    <path id="1" class="fil1" d="M236.05 395.88c79.02,0 143.08,57.52 143.08,128.47 0,70.95 -64.06,128.47 -143.08,128.47 -79.03,0 -143.08,-57.52 -143.08,-128.47 0,-70.95 64.05,-128.47 143.08,-128.47z"/>
   </g>
   <g>
    <path class="fil4" d="M292.74 1508.93c0,24.5 -5.33,44.67 -15.99,60.37 -12.35,18.5 -30.31,27.73 -53.88,27.73 -17.4,0 -32.7,-4.81 -45.88,-14.53 -14.59,-10.53 -21.89,-24.08 -21.89,-40.74l0 -12.46 25.26 0 0 12.53c0,9.15 4.21,16.66 12.62,22.51 7.58,5.29 16.13,7.92 25.68,7.92 16.56,0 29.18,-6.75 37.89,-20.31 7.29,-11.29 10.94,-25.6 10.94,-43.02l0 -130.77 25.25 0 0 130.77zm147.75 88.1l-25.26 0 0 -18.17c-12.63,10.19 -27.22,15.28 -43.77,15.28 -19.09,0 -35.36,-6.61 -48.84,-19.82 -13.47,-13.22 -20.2,-29.18 -20.2,-47.9l0 -67.73 25.25 0 0 68c0,12.39 4.15,22.65 12.43,30.63 8.27,8.05 18.73,12.04 31.36,12.04 12.91,0 23.43,-3.92 31.56,-11.84 8.14,-7.85 12.21,-18.17 12.21,-30.83l0 -68 25.26 0 0 138.34zm151.1 0l-25.25 0 0 -14.86c-12.63,9.91 -27.22,14.86 -43.77,14.86 -19.09,0 -35.37,-6.6 -48.83,-19.75 -13.47,-13.22 -20.21,-29.12 -20.21,-47.76 0,-18.66 6.74,-34.56 20.21,-47.77 13.46,-13.14 29.74,-19.76 48.83,-19.76 16.55,0 31.14,5.1 43.77,15.28l0 -18.58 25.25 0 0 138.34zm-25.25 -67.51c0,-12.74 -4.07,-23.06 -12.21,-30.91 -8.14,-7.92 -18.66,-11.84 -31.56,-11.84 -12.64,0 -23.09,4 -31.37,12.04 -8.28,7.99 -12.41,18.25 -12.41,30.71 0,12.45 4.13,22.7 12.41,30.69 8.28,8.05 18.73,12.05 31.37,12.05 12.9,0 23.42,-3.93 31.56,-11.84 8.14,-7.85 12.21,-18.17 12.21,-30.9zm178.06 67.51l-25.26 0 0 -67.73c0,-12.66 -4.07,-22.91 -12.2,-30.76 -8.15,-7.85 -18.67,-11.77 -31.58,-11.77 -12.62,0 -23.07,4 -31.35,11.98 -8.28,7.98 -12.42,18.17 -12.42,30.55l0 67.73 -25.26 0 0 -138.34 25.26 0 0 18.58c12.63,-10.18 27.22,-15.28 43.77,-15.28 19.09,0 35.37,6.62 48.83,19.76 13.47,13.21 20.21,29.11 20.21,47.77l0 67.51zm222.66 -213.08l0 23.95c-33.81,0 -65.24,0 -94.29,0l0 189.13 -25.25 0 0 -189.13 -93.87 0 0 -23.95 213.41 0zm29.05 35.92c0,12.67 -6.46,19 -19.36,19 -13.19,0 -19.79,-6.33 -19.79,-19 0,-12.66 6.6,-18.99 19.79,-18.99 12.9,0 19.36,6.33 19.36,18.99zm-7.57 177.16l-25.27 0 0 -138.34 25.27 0 0 138.34zm148.57 0l-135.53 0 0 -24.77c20.2,-18.73 50.37,-46.95 90.5,-84.66l-90.5 0 0 -24.78 135.53 0 0 24.85c-20.55,18.72 -51.07,46.93 -91.61,84.59l91.61 0 0 24.77zm37.89 -177.16c0,12.67 -6.46,19 -19.36,19 -13.19,0 -19.79,-6.33 -19.79,-19 0,-12.66 6.6,-18.99 19.79,-18.99 12.9,0 19.36,6.33 19.36,18.99zm-7.57 177.16l-25.27 0 0 -138.34 25.27 0 0 138.34zm153.62 0l-25.25 0 0 -14.86c-12.63,9.91 -27.22,14.86 -43.77,14.86 -19.09,0 -35.37,-6.6 -48.83,-19.75 -13.47,-13.22 -20.21,-29.12 -20.21,-47.76 0,-18.66 6.74,-34.56 20.21,-47.77 13.46,-13.14 29.74,-19.76 48.83,-19.76 16.55,0 31.14,5.1 43.77,15.28l0 -18.58 25.25 0 0 138.34zm-25.25 -67.51c0,-12.74 -4.07,-23.06 -12.21,-30.91 -8.13,-7.92 -18.66,-11.84 -31.56,-11.84 -12.64,0 -23.09,4 -31.37,12.04 -8.27,7.99 -12.41,18.25 -12.41,30.71 0,12.45 4.14,22.7 12.41,30.69 8.28,8.05 18.73,12.05 31.37,12.05 12.9,0 23.43,-3.93 31.56,-11.84 8.14,-7.85 12.21,-18.17 12.21,-30.9zm178.06 67.51l-25.26 0 0 -67.73c0,-12.66 -4.07,-22.91 -12.2,-30.76 -8.15,-7.85 -18.67,-11.77 -31.58,-11.77 -12.62,0 -23.07,4 -31.35,11.98 -8.28,7.98 -12.42,18.17 -12.42,30.55l0 67.73 -25.26 0 0 -138.34 25.26 0 0 18.58c12.63,-10.18 27.22,-15.28 43.77,-15.28 19.09,0 35.37,6.62 48.83,19.76 13.47,13.21 20.21,29.11 20.21,47.77l0 67.51zm147.74 -67.51c0,18.64 -6.73,34.54 -20.21,47.76 -13.47,13.15 -29.74,19.75 -48.82,19.75 -19.09,0 -35.36,-6.6 -48.83,-19.75 -13.47,-13.22 -20.21,-29.12 -20.21,-47.76 0,-18.66 6.74,-34.56 20.21,-47.77 13.47,-13.14 29.74,-19.76 48.83,-19.76 19.08,0 35.35,6.62 48.82,19.76 13.48,13.21 20.21,29.11 20.21,47.77zm-25.26 0c0,-12.74 -4.06,-23.06 -12.21,-30.91 -8.13,-7.92 -18.65,-11.84 -31.56,-11.84 -12.63,0 -23.09,4 -31.36,12.04 -8.28,7.99 -12.42,18.25 -12.42,30.71 0,12.45 4.14,22.7 12.42,30.69 8.27,8.05 18.73,12.05 31.36,12.05 12.91,0 23.43,-3.93 31.56,-11.84 8.15,-7.85 12.21,-18.17 12.21,-30.9z"/>
    <path class="fil2" d="M1706.63 1596.62l25.68 0 0 -12.39 0 -65.25 43.35 0c19.09,0 35.36,-6.6 48.83,-19.82 13.47,-13.22 20.2,-29.18 20.2,-47.9 0,-18.72 -6.73,-34.69 -20.2,-47.9 -13.47,-13.22 -29.74,-19.83 -48.83,-19.83l-69.03 0 0 213.09zm69.03 -188.31c12.07,0 22.38,4.2 30.94,12.59 8.56,8.4 12.84,18.52 12.84,30.36 0,11.84 -4.28,21.95 -12.84,30.35 -8.56,8.4 -18.87,12.59 -30.94,12.59l-43.35 0 0 -85.89 43.35 0zm186.46 67.72l-15.99 19.82c-7.86,-6.05 -16.83,-9.08 -26.94,-9.08 -12.06,0 -22.38,4.2 -30.93,12.53 -8.56,8.39 -12.85,18.44 -12.85,30.28l0 67.45 -25.25 0 0 -138.34 25.25 0 0 18.58c12.64,-10.18 27.64,-15.28 45.05,-15.28 16.27,0 30.16,4.69 41.66,14.04zm125.03 53.49c0,18.64 -6.73,34.54 -20.2,47.76 -13.48,13.15 -29.74,19.75 -48.83,19.75 -19.09,0 -35.36,-6.6 -48.83,-19.75 -13.47,-13.22 -20.21,-29.12 -20.21,-47.76 0,-18.66 6.74,-34.56 20.21,-47.77 13.47,-13.14 29.74,-19.76 48.83,-19.76 19.09,0 35.35,6.62 48.83,19.76 13.47,13.21 20.2,29.11 20.2,47.77zm-25.26 0c0,-12.74 -4.06,-23.06 -12.21,-30.91 -8.13,-7.92 -18.65,-11.84 -31.56,-11.84 -12.63,0 -23.09,4 -31.36,12.04 -8.28,7.99 -12.42,18.25 -12.42,30.71 0,12.45 4.14,22.7 12.42,30.69 8.27,8.05 18.73,12.05 31.36,12.05 12.91,0 23.43,-3.93 31.56,-11.84 8.15,-7.85 12.21,-18.17 12.21,-30.9zm173 67.51l-25.25 0 0 -14.86c-12.63,9.91 -27.22,14.86 -43.77,14.86 -19.09,0 -35.37,-6.6 -48.84,-19.75 -13.46,-13.22 -20.2,-29.12 -20.2,-47.76 0,-18.66 6.74,-34.56 20.2,-47.77 13.47,-13.14 29.75,-19.76 48.84,-19.76 16.55,0 31.14,5.1 43.77,15.28l0 -93.32 25.25 0 0 213.08zm-25.25 -67.51c0,-12.74 -4.07,-23.06 -12.21,-30.91 -8.13,-7.92 -18.66,-11.84 -31.56,-11.84 -12.64,0 -23.09,4 -31.37,12.04 -8.27,7.99 -12.41,18.25 -12.41,30.71 0,12.45 4.14,22.7 12.41,30.69 8.28,8.05 18.73,12.05 31.37,12.05 12.9,0 23.43,-3.93 31.56,-11.84 8.14,-7.85 12.21,-18.17 12.21,-30.9zm176.79 67.51l-25.25 0 0 -18.17c-12.63,10.19 -27.22,15.28 -43.78,15.28 -19.08,0 -35.36,-6.61 -48.83,-19.82 -13.47,-13.22 -20.2,-29.18 -20.2,-47.9l0 -67.73 25.25 0 0 68c0,12.39 4.14,22.65 12.42,30.63 8.28,8.05 18.73,12.04 31.36,12.04 12.91,0 23.43,-3.92 31.57,-11.84 8.13,-7.85 12.21,-18.17 12.21,-30.83l0 -68 25.25 0 0 138.34zm130.9 -20.03c-13.47,13.35 -29.88,20.03 -49.24,20.03 -19.09,0 -35.36,-6.6 -48.83,-19.75 -13.47,-13.22 -20.21,-29.12 -20.21,-47.76 0,-18.66 6.74,-34.56 20.21,-47.77 13.47,-13.14 29.74,-19.76 48.83,-19.76 18.8,0 34.79,6.48 47.98,19.41l-17.74 17.35c-8.49,-7.98 -18.59,-11.98 -30.45,-11.98 -12.99,0 -23.51,4 -31.51,11.91 -8.06,7.98 -12.06,18.24 -12.06,30.84 0,12.31 4.07,22.49 12.28,30.62 8.14,8.05 18.59,12.12 31.29,12.12 12.41,0 22.94,-4.14 31.71,-12.4l17.74 17.14zm120.81 0c-13.47,13.35 -29.89,20.03 -49.25,20.03 -19.08,0 -35.36,-6.6 -48.82,-19.75 -13.47,-13.22 -20.21,-29.12 -20.21,-47.76 0,-18.66 6.74,-34.56 20.21,-47.77 13.46,-13.14 29.74,-19.76 48.82,-19.76 18.8,0 34.79,6.48 47.99,19.41l-17.75 17.35c-8.49,-7.98 -18.59,-11.98 -30.45,-11.98 -12.98,0 -23.5,4 -31.5,11.91 -8.07,7.98 -12.06,18.24 -12.06,30.84 0,12.31 4.06,22.49 12.28,30.62 8.13,8.05 18.58,12.12 31.28,12.12 12.41,0 22.95,-4.14 31.71,-12.4l17.75 17.14zm34.93 -157.13c0,12.67 -6.45,19 -19.36,19 -13.18,0 -19.78,-6.33 -19.78,-19 0,-12.66 6.6,-18.99 19.78,-18.99 12.91,0 19.36,6.33 19.36,18.99zm-7.57 177.16l-25.26 0 0 -138.34 25.26 0 0 138.34zm153.63 -67.51c0,18.64 -6.73,34.54 -20.2,47.76 -13.48,13.15 -29.74,19.75 -48.83,19.75 -19.08,0 -35.36,-6.6 -48.82,-19.75 -13.48,-13.22 -20.22,-29.12 -20.22,-47.76 0,-18.66 6.74,-34.56 20.22,-47.77 13.46,-13.14 29.74,-19.76 48.82,-19.76 19.09,0 35.35,6.62 48.83,19.76 13.47,13.21 20.2,29.11 20.2,47.77zm-25.25 0c0,-12.74 -4.07,-23.06 -12.22,-30.91 -8.13,-7.92 -18.65,-11.84 -31.56,-11.84 -12.63,0 -23.08,4 -31.36,12.04 -8.28,7.99 -12.41,18.25 -12.41,30.71 0,12.45 4.13,22.7 12.41,30.69 8.28,8.05 18.73,12.05 31.36,12.05 12.91,0 23.43,-3.93 31.56,-11.84 8.15,-7.85 12.22,-18.17 12.22,-30.9zm175.52 67.51l-25.26 0 0 -67.73c0,-12.66 -4.06,-22.91 -12.2,-30.76 -8.14,-7.85 -18.66,-11.77 -31.57,-11.77 -12.62,0 -23.08,4 -31.36,11.98 -8.27,7.98 -12.42,18.17 -12.42,30.55l0 67.73 -25.25 0 0 -138.34 25.25 0 0 18.58c12.63,-10.18 27.22,-15.28 43.78,-15.28 19.08,0 35.36,6.62 48.82,19.76 13.47,13.21 20.21,29.11 20.21,47.77l0 67.51zm147.74 -55.75l-111.12 0c2.81,9.23 8.07,16.73 15.78,22.43 7.72,5.72 16.63,8.55 26.73,8.55 12.07,0 22.45,-4.14 31.15,-12.4l17.68 17.14c-13.47,13.35 -29.61,20.03 -48.41,20.03 -19.64,0 -36.2,-6.47 -49.66,-19.34 -13.47,-12.94 -20.21,-28.97 -20.21,-48.17 0,-18.66 6.74,-34.56 20.21,-47.77 13.46,-13.14 29.74,-19.76 48.82,-19.76 19.09,0 35.36,6.62 48.83,19.82 13.47,13.22 20.2,29.19 20.2,47.91l0 11.56zm-27.35 -24.77c-6.46,-19.82 -20.35,-29.74 -41.68,-29.74 -21.33,0 -35.22,9.92 -41.67,29.74l83.35 0zm155.74 -42.54l-17.75 17.34c-8.78,-7.98 -19.16,-11.97 -31.29,-11.97l-29.61 0c-10.17,0 -15.22,5.23 -15.22,15.69 0,12.94 10.74,19.41 32.13,19.41 15.22,0 28.06,3.57 38.52,10.74 11.85,8.25 17.74,19.54 17.74,33.86 0,11.01 -3.72,20.09 -11.16,27.26 -7.42,7.15 -16.76,10.73 -27.98,10.73l-29.47 0c-19.64,0 -36.05,-6.74 -49.25,-20.23l17.68 -17.35c9.26,9.09 24,13.63 44.2,13.63 17.39,0 26.23,-5.37 26.52,-16.11 0,-4.13 -3.3,-8.12 -9.89,-11.97 -6.6,-3.86 -12.14,-5.78 -16.63,-5.78 -15.72,0 -28.9,-3.59 -39.57,-10.74 -12.06,-7.98 -18.1,-19.41 -18.1,-34.28 0,-11.55 3.86,-21.05 11.57,-28.49 7.73,-7.44 17.48,-11.14 29.27,-11.14l29.46 0c19.36,0 35.64,6.46 48.83,19.4z"/>
   </g>
   <path class="fil0" d="M1254.24 1087.71c0,43.86 -14.81,80.83 -44.69,110.68 -29.61,29.84 -66.49,44.91 -110.66,44.91l-801.78 0c-44.15,0 -81.3,-15.07 -111.73,-44.91 -30.15,-29.85 -45.24,-66.82 -45.24,-110.68l0 -166.14c0,-7.66 1.62,-12.94 5.13,-15.84 3.49,-2.92 9.41,-4.23 17.77,-4.23l225.61 0c7.81,0 13.47,1.31 16.43,4.23 3.22,2.9 4.85,8.18 4.85,15.84l0 60.23c0,29.84 9.15,53.35 27.18,70.78 18.32,17.18 43.09,25.88 74.59,25.88l372.62 0c30.97,0 55.73,-8.7 74.03,-26.41 18.58,-17.42 27.74,-40.93 27.74,-70.25l0 -678.57c0,-7.13 1.34,-12.41 4.31,-15.31 2.96,-3.18 8.61,-4.75 16.97,-4.75l225.61 0c7.81,0 13.45,1.57 16.41,4.75 3.24,2.9 4.85,8.18 4.85,15.31l0 784.48z"/>
   <path class="fil0 str0" d="M1535.4 982.85c0,97.56 -22.38,170.97 -67.37,220.23 -45,49.27 -112.62,73.91 -202.62,73.91l-380.61 0c-89.74,0 -157.37,-24.64 -202.36,-73.91 -45,-49.26 -67.38,-122.67 -67.38,-220.23l0 -213.65 329.65 0 0 209.26 259.55 0 0 -794.61 331.14 0 0 799zm443.27 294.14l0 -797.54 -341.59 0 0 -295.6 1033.7 0 0 295.6 -326.66 0 0 797.54 -365.45 0z"/>
   <g>
    <path class="fil4" d="M292.74 1508.93c0,24.5 -5.33,44.67 -15.99,60.37 -12.35,18.5 -30.31,27.73 -53.88,27.73 -17.4,0 -32.7,-4.81 -45.88,-14.53 -14.59,-10.53 -21.89,-24.08 -21.89,-40.74l0 -12.46 25.26 0 0 12.53c0,9.15 4.21,16.66 12.62,22.51 7.58,5.29 16.13,7.92 25.68,7.92 16.56,0 29.18,-6.75 37.89,-20.31 7.29,-11.29 10.94,-25.6 10.94,-43.02l0 -130.77 25.25 0 0 130.77zm147.75 88.1l-25.26 0 0 -18.17c-12.63,10.19 -27.22,15.28 -43.77,15.28 -19.09,0 -35.36,-6.61 -48.84,-19.82 -13.47,-13.22 -20.2,-29.18 -20.2,-47.9l0 -67.73 25.25 0 0 68c0,12.39 4.15,22.65 12.43,30.63 8.27,8.05 18.73,12.04 31.36,12.04 12.91,0 23.43,-3.92 31.56,-11.84 8.14,-7.85 12.21,-18.17 12.21,-30.83l0 -68 25.26 0 0 138.34zm151.1 0l-25.25 0 0 -14.86c-12.63,9.91 -27.22,14.86 -43.77,14.86 -19.09,0 -35.37,-6.6 -48.83,-19.75 -13.47,-13.22 -20.21,-29.12 -20.21,-47.76 0,-18.66 6.74,-34.56 20.21,-47.77 13.46,-13.14 29.74,-19.76 48.83,-19.76 16.55,0 31.14,5.1 43.77,15.28l0 -18.58 25.25 0 0 138.34zm-25.25 -67.51c0,-12.74 -4.07,-23.06 -12.21,-30.91 -8.14,-7.92 -18.66,-11.84 -31.56,-11.84 -12.64,0 -23.09,4 -31.37,12.04 -8.28,7.99 -12.41,18.25 -12.41,30.71 0,12.45 4.13,22.7 12.41,30.69 8.28,8.05 18.73,12.05 31.37,12.05 12.9,0 23.42,-3.93 31.56,-11.84 8.14,-7.85 12.21,-18.17 12.21,-30.9zm178.06 67.51l-25.26 0 0 -67.73c0,-12.66 -4.07,-22.91 -12.2,-30.76 -8.15,-7.85 -18.67,-11.77 -31.58,-11.77 -12.62,0 -23.07,4 -31.35,11.98 -8.28,7.98 -12.42,18.17 -12.42,30.55l0 67.73 -25.26 0 0 -138.34 25.26 0 0 18.58c12.63,-10.18 27.22,-15.28 43.77,-15.28 19.09,0 35.37,6.62 48.83,19.76 13.47,13.21 20.21,29.11 20.21,47.77l0 67.51zm222.66 -213.08l0 23.95c-33.81,0 -65.24,0 -94.29,0l0 189.13 -25.25 0 0 -189.13 -93.87 0 0 -23.95 213.41 0zm29.05 35.92c0,12.67 -6.46,19 -19.36,19 -13.19,0 -19.79,-6.33 -19.79,-19 0,-12.66 6.6,-18.99 19.79,-18.99 12.9,0 19.36,6.33 19.36,18.99zm-7.57 177.16l-25.27 0 0 -138.34 25.27 0 0 138.34zm148.57 0l-135.53 0 0 -24.77c20.2,-18.73 50.37,-46.95 90.5,-84.66l-90.5 0 0 -24.78 135.53 0 0 24.85c-20.55,18.72 -51.07,46.93 -91.61,84.59l91.61 0 0 24.77zm37.89 -177.16c0,12.67 -6.46,19 -19.36,19 -13.19,0 -19.79,-6.33 -19.79,-19 0,-12.66 6.6,-18.99 19.79,-18.99 12.9,0 19.36,6.33 19.36,18.99zm-7.57 177.16l-25.27 0 0 -138.34 25.27 0 0 138.34zm153.62 0l-25.25 0 0 -14.86c-12.63,9.91 -27.22,14.86 -43.77,14.86 -19.09,0 -35.37,-6.6 -48.83,-19.75 -13.47,-13.22 -20.21,-29.12 -20.21,-47.76 0,-18.66 6.74,-34.56 20.21,-47.77 13.46,-13.14 29.74,-19.76 48.83,-19.76 16.55,0 31.14,5.1 43.77,15.28l0 -18.58 25.25 0 0 138.34zm-25.25 -67.51c0,-12.74 -4.07,-23.06 -12.21,-30.91 -8.13,-7.92 -18.66,-11.84 -31.56,-11.84 -12.64,0 -23.09,4 -31.37,12.04 -8.27,7.99 -12.41,18.25 -12.41,30.71 0,12.45 4.14,22.7 12.41,30.69 8.28,8.05 18.73,12.05 31.37,12.05 12.9,0 23.43,-3.93 31.56,-11.84 8.14,-7.85 12.21,-18.17 12.21,-30.9zm178.06 67.51l-25.26 0 0 -67.73c0,-12.66 -4.07,-22.91 -12.2,-30.76 -8.15,-7.85 -18.67,-11.77 -31.58,-11.77 -12.62,0 -23.07,4 -31.35,11.98 -8.28,7.98 -12.42,18.17 -12.42,30.55l0 67.73 -25.26 0 0 -138.34 25.26 0 0 18.58c12.63,-10.18 27.22,-15.28 43.77,-15.28 19.09,0 35.37,6.62 48.83,19.76 13.47,13.21 20.21,29.11 20.21,47.77l0 67.51zm147.74 -67.51c0,18.64 -6.73,34.54 -20.21,47.76 -13.47,13.15 -29.74,19.75 -48.82,19.75 -19.09,0 -35.36,-6.6 -48.83,-19.75 -13.47,-13.22 -20.21,-29.12 -20.21,-47.76 0,-18.66 6.74,-34.56 20.21,-47.77 13.47,-13.14 29.74,-19.76 48.83,-19.76 19.08,0 35.35,6.62 48.82,19.76 13.48,13.21 20.21,29.11 20.21,47.77zm-25.26 0c0,-12.74 -4.06,-23.06 -12.21,-30.91 -8.13,-7.92 -18.65,-11.84 -31.56,-11.84 -12.63,0 -23.09,4 -31.36,12.04 -8.28,7.99 -12.42,18.25 -12.42,30.71 0,12.45 4.14,22.7 12.42,30.69 8.27,8.05 18.73,12.05 31.36,12.05 12.91,0 23.43,-3.93 31.56,-11.84 8.15,-7.85 12.21,-18.17 12.21,-30.9z"/>
    <path class="fil2" d="M1706.63 1596.62l25.68 0 0 -12.39 0 -65.25 43.35 0c19.09,0 35.36,-6.6 48.83,-19.82 13.47,-13.22 20.2,-29.18 20.2,-47.9 0,-18.72 -6.73,-34.69 -20.2,-47.9 -13.47,-13.22 -29.74,-19.83 -48.83,-19.83l-69.03 0 0 213.09zm69.03 -188.31c12.07,0 22.38,4.2 30.94,12.59 8.56,8.4 12.84,18.52 12.84,30.36 0,11.84 -4.28,21.95 -12.84,30.35 -8.56,8.4 -18.87,12.59 -30.94,12.59l-43.35 0 0 -85.89 43.35 0zm186.46 67.72l-15.99 19.82c-7.86,-6.05 -16.83,-9.08 -26.94,-9.08 -12.06,0 -22.38,4.2 -30.93,12.53 -8.56,8.39 -12.85,18.44 -12.85,30.28l0 67.45 -25.25 0 0 -138.34 25.25 0 0 18.58c12.64,-10.18 27.64,-15.28 45.05,-15.28 16.27,0 30.16,4.69 41.66,14.04zm125.03 53.49c0,18.64 -6.73,34.54 -20.2,47.76 -13.48,13.15 -29.74,19.75 -48.83,19.75 -19.09,0 -35.36,-6.6 -48.83,-19.75 -13.47,-13.22 -20.21,-29.12 -20.21,-47.76 0,-18.66 6.74,-34.56 20.21,-47.77 13.47,-13.14 29.74,-19.76 48.83,-19.76 19.09,0 35.35,6.62 48.83,19.76 13.47,13.21 20.2,29.11 20.2,47.77zm-25.26 0c0,-12.74 -4.06,-23.06 -12.21,-30.91 -8.13,-7.92 -18.65,-11.84 -31.56,-11.84 -12.63,0 -23.09,4 -31.36,12.04 -8.28,7.99 -12.42,18.25 -12.42,30.71 0,12.45 4.14,22.7 12.42,30.69 8.27,8.05 18.73,12.05 31.36,12.05 12.91,0 23.43,-3.93 31.56,-11.84 8.15,-7.85 12.21,-18.17 12.21,-30.9zm173 67.51l-25.25 0 0 -14.86c-12.63,9.91 -27.22,14.86 -43.77,14.86 -19.09,0 -35.37,-6.6 -48.84,-19.75 -13.46,-13.22 -20.2,-29.12 -20.2,-47.76 0,-18.66 6.74,-34.56 20.2,-47.77 13.47,-13.14 29.75,-19.76 48.84,-19.76 16.55,0 31.14,5.1 43.77,15.28l0 -93.32 25.25 0 0 213.08zm-25.25 -67.51c0,-12.74 -4.07,-23.06 -12.21,-30.91 -8.13,-7.92 -18.66,-11.84 -31.56,-11.84 -12.64,0 -23.09,4 -31.37,12.04 -8.27,7.99 -12.41,18.25 -12.41,30.71 0,12.45 4.14,22.7 12.41,30.69 8.28,8.05 18.73,12.05 31.37,12.05 12.9,0 23.43,-3.93 31.56,-11.84 8.14,-7.85 12.21,-18.17 12.21,-30.9zm176.79 67.51l-25.25 0 0 -18.17c-12.63,10.19 -27.22,15.28 -43.78,15.28 -19.08,0 -35.36,-6.61 -48.83,-19.82 -13.47,-13.22 -20.2,-29.18 -20.2,-47.9l0 -67.73 25.25 0 0 68c0,12.39 4.14,22.65 12.42,30.63 8.28,8.05 18.73,12.04 31.36,12.04 12.91,0 23.43,-3.92 31.57,-11.84 8.13,-7.85 12.21,-18.17 12.21,-30.83l0 -68 25.25 0 0 138.34zm130.9 -20.03c-13.47,13.35 -29.88,20.03 -49.24,20.03 -19.09,0 -35.36,-6.6 -48.83,-19.75 -13.47,-13.22 -20.21,-29.12 -20.21,-47.76 0,-18.66 6.74,-34.56 20.21,-47.77 13.47,-13.14 29.74,-19.76 48.83,-19.76 18.8,0 34.79,6.48 47.98,19.41l-17.74 17.35c-8.49,-7.98 -18.59,-11.98 -30.45,-11.98 -12.99,0 -23.51,4 -31.51,11.91 -8.06,7.98 -12.06,18.24 -12.06,30.84 0,12.31 4.07,22.49 12.28,30.62 8.14,8.05 18.59,12.12 31.29,12.12 12.41,0 22.94,-4.14 31.71,-12.4l17.74 17.14zm120.81 0c-13.47,13.35 -29.89,20.03 -49.25,20.03 -19.08,0 -35.36,-6.6 -48.82,-19.75 -13.47,-13.22 -20.21,-29.12 -20.21,-47.76 0,-18.66 6.74,-34.56 20.21,-47.77 13.46,-13.14 29.74,-19.76 48.82,-19.76 18.8,0 34.79,6.48 47.99,19.41l-17.75 17.35c-8.49,-7.98 -18.59,-11.98 -30.45,-11.98 -12.98,0 -23.5,4 -31.5,11.91 -8.07,7.98 -12.06,18.24 -12.06,30.84 0,12.31 4.06,22.49 12.28,30.62 8.13,8.05 18.58,12.12 31.28,12.12 12.41,0 22.95,-4.14 31.71,-12.4l17.75 17.14zm34.93 -157.13c0,12.67 -6.45,19 -19.36,19 -13.18,0 -19.78,-6.33 -19.78,-19 0,-12.66 6.6,-18.99 19.78,-18.99 12.91,0 19.36,6.33 19.36,18.99zm-7.57 177.16l-25.26 0 0 -138.34 25.26 0 0 138.34zm153.63 -67.51c0,18.64 -6.73,34.54 -20.2,47.76 -13.48,13.15 -29.74,19.75 -48.83,19.75 -19.08,0 -35.36,-6.6 -48.82,-19.75 -13.48,-13.22 -20.22,-29.12 -20.22,-47.76 0,-18.66 6.74,-34.56 20.22,-47.77 13.46,-13.14 29.74,-19.76 48.82,-19.76 19.09,0 35.35,6.62 48.83,19.76 13.47,13.21 20.2,29.11 20.2,47.77zm-25.25 0c0,-12.74 -4.07,-23.06 -12.22,-30.91 -8.13,-7.92 -18.65,-11.84 -31.56,-11.84 -12.63,0 -23.08,4 -31.36,12.04 -8.28,7.99 -12.41,18.25 -12.41,30.71 0,12.45 4.13,22.7 12.41,30.69 8.28,8.05 18.73,12.05 31.36,12.05 12.91,0 23.43,-3.93 31.56,-11.84 8.15,-7.85 12.22,-18.17 12.22,-30.9zm175.52 67.51l-25.26 0 0 -67.73c0,-12.66 -4.06,-22.91 -12.2,-30.76 -8.14,-7.85 -18.66,-11.77 -31.57,-11.77 -12.62,0 -23.08,4 -31.36,11.98 -8.27,7.98 -12.42,18.17 -12.42,30.55l0 67.73 -25.25 0 0 -138.34 25.25 0 0 18.58c12.63,-10.18 27.22,-15.28 43.78,-15.28 19.08,0 35.36,6.62 48.82,19.76 13.47,13.21 20.21,29.11 20.21,47.77l0 67.51zm147.74 -55.75l-111.12 0c2.81,9.23 8.07,16.73 15.78,22.43 7.72,5.72 16.63,8.55 26.73,8.55 12.07,0 22.45,-4.14 31.15,-12.4l17.68 17.14c-13.47,13.35 -29.61,20.03 -48.41,20.03 -19.64,0 -36.2,-6.47 -49.66,-19.34 -13.47,-12.94 -20.21,-28.97 -20.21,-48.17 0,-18.66 6.74,-34.56 20.21,-47.77 13.46,-13.14 29.74,-19.76 48.82,-19.76 19.09,0 35.36,6.62 48.83,19.82 13.47,13.22 20.2,29.19 20.2,47.91l0 11.56zm-27.35 -24.77c-6.46,-19.82 -20.35,-29.74 -41.68,-29.74 -21.33,0 -35.22,9.92 -41.67,29.74l83.35 0zm155.74 -42.54l-17.75 17.34c-8.78,-7.98 -19.16,-11.97 -31.29,-11.97l-29.61 0c-10.17,0 -15.22,5.23 -15.22,15.69 0,12.94 10.74,19.41 32.13,19.41 15.22,0 28.06,3.57 38.52,10.74 11.85,8.25 17.74,19.54 17.74,33.86 0,11.01 -3.72,20.09 -11.16,27.26 -7.42,7.15 -16.76,10.73 -27.98,10.73l-29.47 0c-19.64,0 -36.05,-6.74 -49.25,-20.23l17.68 -17.35c9.26,9.09 24,13.63 44.2,13.63 17.39,0 26.23,-5.37 26.52,-16.11 0,-4.13 -3.3,-8.12 -9.89,-11.97 -6.6,-3.86 -12.14,-5.78 -16.63,-5.78 -15.72,0 -28.9,-3.59 -39.57,-10.74 -12.06,-7.98 -18.1,-19.41 -18.1,-34.28 0,-11.55 3.86,-21.05 11.57,-28.49 7.73,-7.44 17.48,-11.14 29.27,-11.14l29.46 0c19.36,0 35.64,6.46 48.83,19.4z"/>
   </g>
   <path class="fil0" d="M1254.24 1087.71c0,43.86 -14.81,80.83 -44.69,110.68 -29.61,29.84 -66.49,44.91 -110.66,44.91l-801.78 0c-44.15,0 -81.3,-15.07 -111.73,-44.91 -30.15,-29.85 -45.24,-66.82 -45.24,-110.68l0 -166.14c0,-7.66 1.62,-12.94 5.13,-15.84 3.49,-2.92 9.41,-4.23 17.77,-4.23l225.61 0c7.81,0 13.47,1.31 16.43,4.23 3.22,2.9 4.85,8.18 4.85,15.84l0 60.23c0,29.84 9.15,53.35 27.18,70.78 18.32,17.18 43.09,25.88 74.59,25.88l372.62 0c30.97,0 55.73,-8.7 74.03,-26.41 18.58,-17.42 27.74,-40.93 27.74,-70.25l0 -678.57c0,-7.13 1.34,-12.41 4.31,-15.31 2.96,-3.18 8.61,-4.75 16.97,-4.75l225.61 0c7.81,0 13.45,1.57 16.41,4.75 3.24,2.9 4.85,8.18 4.85,15.31l0 784.48z"/>
   <path class="fil0 str0" d="M1535.4 982.85c0,97.56 -22.38,170.97 -67.37,220.23 -45,49.27 -112.62,73.91 -202.62,73.91l-380.61 0c-89.74,0 -157.37,-24.64 -202.36,-73.91 -45,-49.26 -67.38,-122.67 -67.38,-220.23l0 -213.65 329.65 0 0 209.26 259.55 0 0 -794.61 331.14 0 0 799zm443.27 294.14l0 -797.54 -341.59 0 0 -295.6 1033.7 0 0 295.6 -326.66 0 0 797.54 -365.45 0z"/>
  </g>
 </g>
</svg>
