<?xml version="1.0" encoding="UTF-8"?>
<!DOCTYPE svg PUBLIC "-//W3C//DTD SVG 1.1//EN" "http://www.w3.org/Graphics/SVG/1.1/DTD/svg11.dtd">
<!-- Creator: CorelDRAW 2017 -->
<svg xmlns="http://www.w3.org/2000/svg" xml:space="preserve" width="215.9mm" height="279.4mm" version="1.1" style="shape-rendering:geometricPrecision; text-rendering:geometricPrecision; image-rendering:optimizeQuality; fill-rule:evenodd; clip-rule:evenodd"
viewBox="0 0 21590 27940"
 xmlns:xlink="http://www.w3.org/1999/xlink">
 <defs>
  <style type="text/css">
   <![CDATA[
    .str0 {stroke:#271C24;stroke-width:7.62;stroke-miterlimit:22.9256}
    .fil2 {fill:#292929}
    .fil0 {fill:#F1403A}
    .fil1 {fill:#F58F76}
    .fil5 {fill:#FEFEFE;fill-rule:nonzero}
    .fil6 {fill:#FEFEFE;fill-rule:nonzero}
    .fil3 {fill:#292929;fill-rule:nonzero}
    .fil4 {fill:#F58F76;fill-rule:nonzero}
   ]]>
  </style>
 </defs>
 <g id="Capa_x0020_1">
  <metadata id="CorelCorpID_0Corel-Layer"/>
  <rect class="fil0" width="21590" height="27940"/>
  <g id="_2093316098864">
   <path class="fil1" d="M9041.86 5753.54c-509.03,3.02 -1290.51,-137.46 -1608.55,190.14 2.79,402.7 126.74,419.86 520.96,419.32 336.23,-0.47 672.43,-1.31 1008.68,-1.31 814.1,0 5504.73,42.19 5890.57,-20.33 7.73,-185.96 26.62,-833.47 -23.35,-975.67 -114.17,-324.83 -432.5,-336.5 -775.15,-372.03l-4024.25 -382.56c-1195.77,-129.01 -994.18,-67.23 -988.91,1142.44z"/>
   <path class="fil1" d="M6263.39 8808.18l718.82 -0.45 -0.2 -1279.44 7146.45 -12.37 14.96 1259.93 706.64 7.47 -6.01 -1892.54c-1125.94,-93.38 -6261.87,-24.41 -7874.88,-21.24l1.93 -2274c-0.42,-496.54 100,-991.69 -556.87,-820.38 -285.65,340.81 -145.38,1832.46 -145.38,2419.27 0,862.87 21.75,1754.49 -5.46,2613.75z"/>
   <path class="fil1" d="M7835.83 4448.54c-800.02,278.72 -353.02,1422.54 463.1,1146.96 707.8,-239.01 367.71,-1436.42 -463.1,-1146.96z"/>
   <path class="fil1" d="M8761.48 3370.69c-791.49,147.52 -514.82,1419.4 336.19,1185.3 710.13,-195.34 482.75,-1337.94 -336.19,-1185.3z"/>
   <path class="fil1" d="M8115.56 2809.73c-32.38,-21.86 -57.61,-45.16 -105.31,-60.34 -162.68,-51.77 -266.98,121.64 -205.98,243.61 76.29,152.51 293.44,151.96 308.39,364.95 65.61,-38.05 227.96,-193.86 276.97,-252.75 16.33,-19.62 31.7,-39.16 47.18,-61.55 231.46,-334.67 -104.2,-495.97 -251.18,-376.65 -39.18,31.8 -58.33,80.8 -70.07,142.73zm13.18 56.19c-23.61,-11.67 -102.9,-95.96 -189.49,-48.15 -57.77,31.89 -91.49,106.36 -43.25,179.96 34.27,52.3 88.15,89.58 138.98,128.53 40.22,30.82 72.12,61.13 96.13,104.89 10.28,18.71 11.12,34.78 18.55,50.89 28.05,-26.65 55.11,-49.23 83.79,-77.84 13.99,-13.96 26.06,-25.52 38.91,-40.51 61.54,-71.8 135.76,-140.76 160.5,-249.92 43.03,-189.92 -168.71,-237.77 -250.18,-161.9 -43.88,40.86 -40.18,84.48 -53.94,114.05z"/>
   <path class="fil1" d="M7657.53 3744.53c19.8,-40.67 31.6,-78.65 70.63,-121.5 133.1,-146.16 338.13,-32.73 347.64,124.89 11.88,197.11 -206.15,322.36 -97.73,544.55 -87.83,-0.13 -340.87,-62.28 -424.12,-92.92 -27.74,-10.21 -54.47,-20.89 -82.96,-34.37 -425.95,-201.43 -182.88,-557.62 33.61,-523.15 57.7,9.19 105.28,47.22 152.93,102.5zm19.34 63.97c16.91,-25.37 47.57,-155.82 162.08,-158.06 76.4,-1.49 153.35,53.63 147.63,155.37 -4.06,72.29 -36.48,140.88 -64.88,209.38 -22.46,54.19 -36.88,103.07 -35.6,160.86 0.54,24.7 9,41.31 10.88,61.76 -43.56,-10.47 -83.76,-17.42 -129.09,-29.49 -22.12,-5.89 -40.92,-10.49 -62.49,-18.07 -103.29,-36.33 -217.65,-62.47 -305.7,-157.58 -153.17,-165.48 31.39,-336.12 157.02,-307.26 67.67,15.55 89.23,61.42 120.15,83.09z"/>
   <path class="fil1" d="M7123.89 2710.19c22.04,-45.27 35.17,-87.54 78.61,-135.24 148.14,-162.68 376.35,-36.42 386.92,139.01 13.23,219.39 -229.44,358.8 -108.77,606.11 -97.76,-0.15 -379.4,-69.32 -472.06,-103.43 -30.86,-11.36 -60.62,-23.26 -92.34,-38.25 -474.09,-224.2 -203.54,-620.65 37.41,-582.28 64.23,10.22 117.19,52.55 170.23,114.08zm21.52 71.2c18.82,-28.24 52.95,-173.43 180.4,-175.92 85.03,-1.66 170.68,59.68 164.31,172.93 -4.51,80.46 -40.6,156.81 -72.21,233.04 -25,60.32 -41.05,114.72 -39.62,179.04 0.6,27.5 10.02,45.98 12.11,68.74 -48.48,-11.65 -93.23,-19.39 -143.68,-32.82 -24.62,-6.56 -45.55,-11.67 -69.55,-20.11 -114.97,-40.44 -242.26,-69.53 -340.26,-175.39 -170.48,-184.18 34.94,-374.11 174.77,-341.99 75.32,17.3 99.31,68.36 133.73,92.48z"/>
  </g>
  <g id="_2093391731728">
   <path class="fil2" d="M11514.93 3286.54c-767.76,194.44 -418.92,1348.88 377.25,1116.6 285.12,-83.16 488.47,-433.73 399.31,-738.16 -99.39,-339.27 -453.84,-460.18 -776.56,-378.44z"/>
   <path class="fil2 str0" d="M11964.35 7548.59c148.29,-105.13 224.06,-476.87 133.4,-644.09 -116.36,-214.7 -327.53,-285.12 -562.96,-312.88 160.08,149.46 152.68,59.1 341.56,179.41l-143.76 81.02c-24.53,208.79 4.53,379.16 245.07,283.16l45.58 -204.03c87.68,406.82 -15.96,310.14 -58.89,617.41z"/>
   <path class="fil2" d="M10588.52 5631.46l-153.03 439.13c-30.81,301.48 -253.66,244.95 -410.98,135.1l291.87 -329.42 263.27 -508.2c22.5,-137.65 114.58,-351.36 247.37,-407.03 57.87,118.41 -134.54,574.97 -238.5,670.42zm-643.42 -155.39c-31.46,172.1 -87.76,170.58 -135.47,307.09 -54.11,154.85 12.81,245.32 48.99,377.34 -212.39,16.76 -274.52,-76.51 -462.24,-19.54 -165.44,50.23 -190.37,138.65 -318.24,220.63l-613.89 1345.4c-81.72,161.29 -353.09,631.44 1.01,638.65 201.22,4.09 376.83,-430.79 386.77,-572.88 7.09,-187.85 284,-634.71 354.19,-847.35l137.69 -1.28 606.42 197.93c-12.25,122.85 -110.8,233.56 -160.45,360.96 -37.75,96.87 -68.72,198.22 -125.51,272.47 -14.03,18.37 -29.69,35.11 -47.41,49.7 -34.59,167.4 -248.56,584.96 -324.64,767.31 -310.58,744.77 281.16,567.42 302.33,492.53l601.59 -1381.53c234.91,-508.89 -49.54,-352.88 192.85,-481.21 180.89,106.56 91.31,142.04 -54.62,486.7 -200.04,472.41 -549.14,1059.9 -428.63,1396.12 90.75,111.99 298.8,54.5 384.16,-96.45 71.15,-125.86 124.5,-247.98 180.22,-386.45 70.52,-175.22 302.74,-640.89 305.43,-784.16 15.66,-142.06 90.68,-299.15 151.49,-435.51 107.7,-17.6 481.56,62.6 569.47,119.55 89.93,256.53 -408.63,875.06 -292.43,1242.16 231.46,78.22 678.22,41.73 937.94,42.67 270.63,0.98 673.9,80.5 880.69,-98.36l13.33 -179.13c-77.52,-277.18 -1029.84,-46.8 -1268.65,-158.91 -102.85,-181.55 223.61,-586.67 196.86,-801.93 42.93,-307.27 146.57,-210.59 58.89,-617.41l-45.58 204.03c-240.54,96 -269.6,-74.37 -245.07,-283.16l143.76 -81.02c-188.88,-120.31 -181.48,-29.95 -341.56,-179.41l-75.06 -36.11c2.12,-138.55 443.89,-1182.31 536.86,-1392.8 239.04,-6.09 710.47,117.66 855.92,44.7 351.24,-176.33 1308.05,-877.93 1109.62,-1275.75 -280.43,-100.25 -578.99,228.82 -947.26,527.25 -202.53,164.11 -250.74,261.64 -534.62,241.96 -459.81,-31.89 -1815.05,-357.01 -2001.32,-212.23 -95.49,74.23 -211.62,376.62 -277.47,498.47 -59.24,109.66 -225.31,384.34 -256.36,488.96z"/>
   <path class="fil2" d="M8112.51 5663.06c-767.75,194.44 -418.91,1348.88 377.25,1116.6 285.12,-83.16 488.48,-433.73 399.31,-738.16 -99.39,-339.27 -453.83,-460.18 -776.56,-378.44z"/>
  </g>
  <polygon class="fil2" points="862.76,10424.45 20727.24,10424.45 20727.24,16695.88 862.76,16695.88 "/>
  <g id="_2093391730672">
   <path class="fil3" d="M3319.33 20455.42c-171.83,83.11 -397,124.66 -674.4,124.66 -361.62,0 -646.31,-106.13 -853.51,-318.94 -207.77,-212.82 -311.09,-496.39 -311.09,-850.72 0,-377.34 116.24,-683.37 349.27,-918.09 233.03,-234.72 535.69,-352.07 907.42,-352.07 230.23,0 424.52,29.19 582.31,87.59l0 511.55c-157.79,-94.33 -337.48,-141.5 -539.63,-141.5 -221.24,0 -400.37,69.63 -536.26,208.89 -135.89,139.25 -203.83,327.93 -203.83,566.01 0,227.98 64.01,409.92 192.6,545.24 128.03,135.33 300.98,203.28 518.29,203.28 207.2,0 397,-50.54 568.83,-151.62l0 485.72zm1408.3 124.66c-338.04,0 -613.18,-110.06 -826,-329.61 -212.82,-220.12 -318.95,-506.5 -318.95,-859.7 0,-372.85 107.81,-674.39 324,-904.62 216.19,-230.22 502,-345.89 858.57,-345.89 336.92,0 609.26,110.62 817.02,330.73 207.77,220.68 311.65,511.55 311.65,872.05 0,370.61 -107.81,669.9 -323.44,896.76 -215.06,226.85 -496.39,340.28 -842.85,340.28zm23.02 -1982.18c-186.42,0 -334.67,69.63 -444.16,210.01 -109.5,139.82 -164.53,324.56 -164.53,554.79 0,233.59 55.03,418.33 164.53,554.78 109.49,135.89 253.24,203.84 430.69,203.84 183.62,0 328.49,-66.26 436.3,-198.22 107.25,-132.52 161.16,-315.58 161.16,-550.3 0,-244.82 -52.22,-435.18 -156.11,-571.07 -104.44,-135.89 -247.07,-203.83 -427.88,-203.83zm3471.35 1783.4c-230.22,132.52 -516.6,198.78 -859.13,198.78 -379.03,0 -678.32,-105 -897.32,-315.01 -218.43,-210.01 -327.93,-499.2 -327.93,-867.56 0,-370.61 119.61,-672.71 358.82,-906.3 238.64,-234.16 557.03,-350.95 954.03,-350.95 249.88,0 470.55,34.81 660.91,103.88l0 498.63c-181.93,-105.57 -404.3,-157.79 -667.65,-157.79 -220.68,0 -399.81,71.32 -538.5,214.51 -139.26,143.18 -208.33,334.1 -208.33,573.31 0,242.02 62.33,429.57 186.43,562.65 124.65,132.52 292.55,198.78 504.25,198.78 127.46,0 228.54,-17.97 302.66,-53.91l0 -461.01 -471.68 0 0 -424.51 1003.44 0 0 1186.5zm1873.82 157.79l-1415.05 0 0 -2358.97 1360.58 0 0 432.38 -828.81 0 0 525.02 771.53 0 0 430.69 -771.53 0 0 539.63 883.28 0 0 431.25zm269.53 -90.41l0 -526.71c95.46,80.3 199.34,140.39 311.08,180.25 111.75,39.87 224.61,60.09 338.6,60.09 67.39,0 125.78,-6.18 175.2,-17.97 49.97,-12.36 91.53,-28.64 125.22,-50.54 33.69,-21.34 58.4,-46.61 74.68,-75.24 16.85,-29.2 24.71,-60.65 24.71,-94.9 0,-46.05 -12.92,-87.04 -39.31,-122.98 -26.39,-36.49 -62.33,-70.19 -107.81,-100.51 -45.49,-30.88 -99.39,-60.64 -162.28,-88.72 -62.33,-28.64 -129.71,-57.84 -202.15,-87.6 -184.18,-76.36 -321.76,-170.14 -412.16,-281.32 -90.41,-110.62 -135.33,-244.26 -135.33,-400.93 0,-122.97 24.15,-228.54 73.56,-316.7 49.42,-88.72 116.8,-161.16 201.59,-218.43 85.35,-56.72 183.62,-98.83 295.36,-125.79 111.74,-26.95 230.23,-40.42 355.45,-40.42 122.97,0 231.91,7.86 326.8,22.46 94.34,14.6 181.94,37.62 262.24,68.5l0 491.9c-39.87,-27.52 -82.55,-51.66 -129.15,-72.44 -46.61,-20.78 -94.9,-38.18 -144.32,-52.22 -48.85,-13.48 -98.26,-23.58 -147.12,-30.32 -48.85,-6.18 -94.89,-9.55 -138.69,-9.55 -60.65,0 -115.12,5.62 -164.53,16.85 -49.41,11.79 -90.97,28.07 -125.22,48.85 -33.69,20.78 -60.08,45.48 -79.17,74.68 -18.53,29.2 -27.52,61.77 -27.52,97.71 0,39.87 10.11,75.24 30.88,106.13 20.78,31.44 50.54,61.2 89.29,89.28 38.18,27.51 84.79,55.03 139.82,81.98 54.46,26.95 116.79,54.47 185.86,83.11 94.34,39.3 178.57,81.42 253.81,125.78 75.25,44.36 139.82,94.9 193.17,150.49 53.9,56.15 94.89,120.16 123.53,192.04 28.64,71.31 42.68,154.98 42.68,250.44 0,131.96 -24.71,242.02 -74.69,331.86 -49.97,89.28 -117.35,161.72 -203.27,216.75 -85.35,55.59 -184.74,95.46 -298.17,119.6 -113.99,24.15 -233.59,35.94 -359.94,35.94 -129.15,0 -252.12,-10.67 -368.92,-32.57 -116.79,-21.9 -218.43,-55.03 -303.78,-98.83z"/>
   <path class="fil4" d="M14281.98 20578.4c-334.67,0 -602.51,-110.06 -803.54,-330.74 -201.03,-220.12 -302.1,-507.06 -302.1,-860.26 0,-379.59 102.76,-682.25 307.72,-907.98 204.95,-225.74 484.59,-339.16 837.79,-339.16 325.68,0 587.92,110.05 786.7,329.05 199.34,219.56 298.73,506.49 298.73,860.82 0,384.64 -102.2,688.99 -306.03,913.04 -203.84,223.48 -476.74,335.23 -819.27,335.23zm19.66 -2187.7c-247.64,0 -448.66,89.28 -603.64,267.84 -154.42,179.13 -231.91,413.85 -231.91,704.16 0,290.87 75.24,524.46 226.29,701.9 150.49,176.88 347.58,265.6 589.6,265.6 258.87,0 462.7,-84.23 612.06,-253.25 149.37,-169.01 223.49,-405.42 223.49,-709.2 0,-311.65 -71.87,-551.98 -216.75,-722.12 -144.87,-170.14 -344.77,-254.93 -599.14,-254.93zm3887.44 39.3l-681.13 0 0 2109.09 -276.27 0 0 -2109.09 -679.45 0 0 -249.88 1636.85 0 0 249.88zm1620.55 2109.09l-1249.95 0 0 -2358.97 1197.73 0 0 249.88 -921.46 0 0 785.01 852.4 0 0 248.2 -852.4 0 0 826 973.68 0 0 249.88z"/>
   <path class="fil5" d="M2811.16 23549.34l-1415.05 0 0 -2358.97 1360.58 0 0 432.38 -828.81 0 0 525.02 771.53 0 0 430.69 -771.53 0 0 539.63 883.28 0 0 431.25zm2500.47 0l-536.26 0 -972.56 -1482.43c-56.72,-86.47 -96.58,-151.61 -118.48,-195.41l-6.18 0c8.42,83.11 12.92,210.58 12.92,381.28l0 1296.56 -502.01 0 0 -2358.97 572.76 0 936.06 1435.82c42.68,65.14 81.98,129.15 118.48,192.61l6.74 0c-8.98,-54.47 -13.48,-162.85 -13.48,-324l0 -1304.43 502.01 0 0 2358.97zm2613.9 0l-578.94 0 -167.89 -525.03 -838.92 0 -166.21 525.03 -576.13 0 859.14 -2358.97 630.03 0 838.92 2358.97zm-868.68 -932.69l-253.25 -792.88c-18.53,-59.52 -32.01,-130.27 -39.87,-212.25l-12.91 0c-5.62,69.06 -19.1,137.57 -40.99,205.52l-256.62 799.61 603.64 0zm3851.49 932.69l-525.02 0 0 -1411.67c0,-152.18 6.74,-320.63 19.65,-504.81l-12.91 0c-27.52,144.87 -52.23,248.75 -74.13,312.76l-552.54 1603.72 -434.62 0 -562.64 -1587.43c-15.17,-42.68 -39.87,-152.74 -74.13,-329.05l-14.6 0c14.04,232.47 21.34,436.3 21.34,612.06l0 1304.42 -478.98 0 0 -2358.97 778.28 0 482.35 1398.2c38.18,111.74 66.26,224.05 83.66,337.48l10.11 0c29.2,-130.84 60.65,-244.27 93.77,-340.85l481.79 -1394.83 758.62 0 0 2358.97zm1532.97 40.99c-338.04,0 -613.18,-110.06 -826,-329.61 -212.82,-220.12 -318.95,-506.5 -318.95,-859.7 0,-372.85 107.81,-674.39 324,-904.62 216.19,-230.22 502,-345.89 858.57,-345.89 336.92,0 609.26,110.62 817.02,330.73 207.77,220.68 311.65,511.55 311.65,872.05 0,370.61 -107.81,669.9 -323.44,896.76 -215.06,226.85 -496.39,340.28 -842.85,340.28zm23.02 -1982.18c-186.42,0 -334.67,69.63 -444.16,210.01 -109.5,139.82 -164.53,324.56 -164.53,554.79 0,233.59 55.03,418.33 164.53,554.78 109.49,135.89 253.24,203.84 430.69,203.84 183.62,0 328.49,-66.26 436.3,-198.22 107.25,-132.52 161.16,-315.58 161.16,-550.3 0,-244.82 -52.22,-435.18 -156.11,-571.07 -104.44,-135.89 -247.07,-203.83 -427.88,-203.83zm3514.03 1941.19l-610.38 0 -366.68 -607.01c-27.51,-46.04 -53.9,-87.03 -79.17,-123.53 -25.27,-35.94 -50.54,-66.83 -76.37,-92.66 -25.83,-25.83 -52.78,-45.48 -80.86,-59.52 -28.07,-13.47 -58.4,-20.21 -90.96,-20.21l-143.19 0 0 902.93 -531.77 0 0 -2358.97 842.29 0c572.76,0 859.13,213.94 859.13,641.27 0,82.54 -12.91,158.35 -38.18,227.97 -25.27,69.63 -60.65,132.52 -106.69,188.68 -46.05,55.59 -101.64,103.88 -166.77,144.31 -65.7,40.99 -138.14,72.44 -218.44,95.46l0 6.74c35.38,11.23 69.07,28.63 102.2,53.34 33.13,24.71 64.58,53.35 95.46,86.48 30.88,33.13 60.08,68.5 88.16,106.12 28.08,37.63 53.34,74.69 76.37,111.19l445.85 697.41zm-1447.61 -1960.85l0 656.43 230.22 0c113.99,0 205.52,-33.13 274.59,-98.83 70.19,-66.82 105.56,-149.93 105.56,-248.2 0,-206.64 -123.53,-309.4 -370.6,-309.4l-239.77 0zm3742.56 1960.85l-578.94 0 -167.89 -525.03 -838.92 0 -166.21 525.03 -576.13 0 859.14 -2358.97 630.03 0 838.92 2358.97zm-868.68 -932.69l-253.25 -792.88c-18.53,-59.52 -32.01,-130.27 -39.87,-212.25l-12.91 0c-5.62,69.06 -19.1,137.57 -40.99,205.52l-256.62 799.61 603.64 0zm1054.54 842.28l0 -526.71c95.46,80.3 199.34,140.39 311.08,180.25 111.75,39.87 224.61,60.09 338.6,60.09 67.39,0 125.78,-6.18 175.2,-17.97 49.97,-12.36 91.53,-28.64 125.22,-50.54 33.69,-21.34 58.4,-46.61 74.68,-75.24 16.85,-29.2 24.71,-60.65 24.71,-94.9 0,-46.05 -12.92,-87.04 -39.31,-122.98 -26.39,-36.49 -62.33,-70.19 -107.81,-100.51 -45.49,-30.88 -99.39,-60.64 -162.28,-88.72 -62.33,-28.64 -129.71,-57.84 -202.15,-87.6 -184.18,-76.36 -321.76,-170.14 -412.16,-281.32 -90.41,-110.62 -135.33,-244.26 -135.33,-400.93 0,-122.97 24.15,-228.54 73.56,-316.7 49.42,-88.72 116.8,-161.16 201.59,-218.43 85.35,-56.72 183.62,-98.83 295.36,-125.79 111.74,-26.95 230.23,-40.42 355.45,-40.42 122.97,0 231.91,7.86 326.8,22.46 94.34,14.6 181.94,37.62 262.24,68.5l0 491.9c-39.87,-27.52 -82.55,-51.66 -129.15,-72.44 -46.61,-20.78 -94.9,-38.18 -144.32,-52.22 -48.85,-13.48 -98.26,-23.58 -147.12,-30.32 -48.85,-6.18 -94.89,-9.55 -138.69,-9.55 -60.65,0 -115.12,5.62 -164.53,16.85 -49.41,11.79 -90.97,28.07 -125.22,48.85 -33.69,20.78 -60.08,45.48 -79.17,74.68 -18.53,29.2 -27.52,61.77 -27.52,97.71 0,39.87 10.11,75.24 30.88,106.13 20.78,31.44 50.54,61.2 89.29,89.28 38.18,27.51 84.79,55.03 139.82,81.98 54.46,26.95 116.79,54.47 185.86,83.11 94.34,39.3 178.57,81.42 253.81,125.78 75.25,44.36 139.82,94.9 193.17,150.49 53.9,56.15 94.89,120.16 123.53,192.04 28.64,71.31 42.68,154.98 42.68,250.44 0,131.96 -24.71,242.02 -74.69,331.86 -49.97,89.28 -117.35,161.72 -203.27,216.75 -85.35,55.59 -184.74,95.46 -298.17,119.6 -113.99,24.15 -233.59,35.94 -359.94,35.94 -129.15,0 -252.12,-10.67 -368.92,-32.57 -116.79,-21.9 -218.43,-55.03 -303.78,-98.83z"/>
  </g>
  <g id="_2093391727760">
   <path class="fil6" d="M5614.96 12141.73c-99.95,0 -177.91,-27.39 -233.9,-82.18 -56,-54.79 -83.99,-132.15 -83.99,-232.09l0 -1038.56 225.77 0 0 1022.3c0,96.33 45.16,144.5 135.47,144.5 30.1,0 57.19,-6.02 81.27,-18.07l10.84 180.62c-42.14,15.66 -87.3,23.48 -135.46,23.48zm1213.76 -977.15l0 964.51 -214.94 0 0 -124.63c-37.33,45.76 -83.38,80.08 -138.17,102.96 -54.79,22.87 -115.3,34.31 -181.52,34.31 -93.93,0 -177.91,-20.47 -251.97,-61.41 -74.05,-40.94 -131.85,-98.74 -173.39,-173.39 -41.54,-74.66 -62.31,-161.35 -62.31,-260.09 0,-98.74 20.77,-185.14 62.31,-259.19 41.54,-74.05 99.34,-131.55 173.39,-172.49 74.06,-40.94 158.04,-61.41 251.97,-61.41 62.61,0 120.11,10.83 172.49,32.51 52.38,21.67 97.83,53.58 136.37,95.73l0 -117.41 225.77 0zm-509.35 783.89c83.09,0 151.72,-27.69 205.91,-83.08 54.18,-55.39 81.28,-128.24 81.28,-218.55 0,-90.31 -27.1,-163.16 -81.28,-218.55 -54.19,-55.39 -122.82,-83.09 -205.91,-83.09 -83.08,0 -151.42,27.7 -205,83.09 -53.58,55.39 -80.37,128.24 -80.37,218.55 0,90.31 26.79,163.16 80.37,218.55 53.58,55.39 121.92,83.08 205,83.08zm2261.36 -783.89l0 818.21c0,339.56 -173.4,509.34 -520.18,509.34 -92.72,0 -180.62,-11.74 -263.71,-35.22 -83.08,-23.48 -151.72,-57.49 -205.9,-102.05l101.14 -169.78c42.15,34.92 95.43,62.92 159.85,83.99 64.42,21.07 129.75,31.61 195.97,31.61 105.97,0 183.63,-24.08 233,-72.25 49.37,-48.16 74.05,-121.62 74.05,-220.35l0 -50.58c-38.53,42.15 -85.49,74.06 -140.88,95.73 -55.39,21.67 -116.2,32.51 -182.42,32.51 -91.52,0 -174.3,-19.57 -248.35,-58.7 -74.06,-39.13 -132.46,-94.22 -175.21,-165.27 -42.74,-71.04 -64.11,-152.32 -64.11,-243.83 0,-91.52 21.37,-172.49 64.11,-242.93 42.75,-70.45 101.15,-124.93 175.21,-163.46 74.05,-38.54 156.83,-57.8 248.35,-57.8 69.84,0 133.35,11.44 190.55,34.31 57.2,22.88 105.06,57.8 143.59,104.76l0 -128.24 214.94 0zm-514.77 729.71c85.5,0 155.64,-25.59 210.43,-76.77 54.78,-51.17 82.18,-117.7 82.18,-199.58 0,-80.68 -27.4,-146.3 -82.18,-196.88 -54.79,-50.57 -124.93,-75.86 -210.43,-75.86 -86.69,0 -157.44,25.29 -212.22,75.86 -54.79,50.58 -82.18,116.2 -82.18,196.88 0,81.88 27.39,148.41 82.18,199.58 54.78,51.18 125.53,76.77 212.22,76.77zm1744.79 -729.71l0 964.51 -214.94 0 0 -122.82c-36.12,43.35 -81.28,76.76 -135.46,100.24 -54.19,23.48 -112.59,35.22 -175.2,35.22 -128.85,0 -230.29,-35.82 -304.35,-107.46 -74.05,-71.65 -111.08,-177.91 -111.08,-318.8l0 -550.89 225.78 0 0 520.19c0,86.69 19.56,151.42 58.7,194.16 39.13,42.75 94.82,64.12 167.07,64.12 80.68,0 144.8,-24.98 192.36,-74.95 47.56,-49.98 71.34,-121.92 71.34,-215.84l0 -487.68 225.78 0zm296.22 0l225.77 0 0 964.51 -225.77 0 0 -964.51zm205.9 -379.3l265.51 0 -314.27 247.45 -195.07 0 243.83 -247.45zm1258.92 379.3l0 964.51 -214.94 0 0 -124.63c-37.33,45.76 -83.38,80.08 -138.17,102.96 -54.79,22.87 -115.3,34.31 -181.52,34.31 -93.93,0 -177.91,-20.47 -251.97,-61.41 -74.05,-40.94 -131.85,-98.74 -173.39,-173.39 -41.54,-74.66 -62.31,-161.35 -62.31,-260.09 0,-98.74 20.77,-185.14 62.31,-259.19 41.54,-74.05 99.34,-131.55 173.39,-172.49 74.06,-40.94 158.04,-61.41 251.97,-61.41 62.61,0 120.11,10.83 172.49,32.51 52.38,21.67 97.83,53.58 136.37,95.73l0 -117.41 225.77 0zm-509.35 783.89c83.09,0 151.72,-27.69 205.91,-83.08 54.18,-55.39 81.28,-128.24 81.28,-218.55 0,-90.31 -27.1,-163.16 -81.28,-218.55 -54.19,-55.39 -122.82,-83.09 -205.91,-83.09 -83.08,0 -151.42,27.7 -205,83.09 -53.58,55.39 -80.37,128.24 -80.37,218.55 0,90.31 26.79,163.16 80.37,218.55 53.58,55.39 121.92,83.08 205,83.08zm1838.71 -794.72c93.92,0 177.91,20.47 251.96,61.41 74.06,40.94 132.16,98.74 174.3,173.39 42.15,74.66 63.22,160.75 63.22,258.29 0,97.53 -21.07,183.93 -63.22,259.19 -42.14,75.25 -100.24,133.35 -174.3,174.29 -74.05,40.94 -158.04,61.41 -251.96,61.41 -130.05,0 -233,-43.35 -308.86,-130.04l0 467.8 -225.77 0 0 -1314.91 214.93 0 0 126.44c37.33,-45.76 83.39,-80.08 138.18,-102.96 54.79,-22.87 115.29,-34.31 181.52,-34.31zm-25.29 794.72c83.09,0 151.42,-27.69 205.01,-83.08 53.58,-55.39 80.37,-128.24 80.37,-218.55 0,-90.31 -26.79,-163.16 -80.37,-218.55 -53.59,-55.39 -121.92,-83.09 -205.01,-83.09 -54.18,0 -102.95,12.35 -146.3,37.03 -43.35,24.69 -77.66,59.91 -102.95,105.66 -25.29,45.76 -37.93,98.74 -37.93,158.95 0,60.2 12.64,113.19 37.93,158.94 25.29,45.76 59.6,80.98 102.95,105.66 43.35,24.69 92.12,37.03 146.3,37.03zm1672.54 -783.89l0 964.51 -214.94 0 0 -124.63c-37.33,45.76 -83.38,80.08 -138.17,102.96 -54.79,22.87 -115.3,34.31 -181.52,34.31 -93.93,0 -177.91,-20.47 -251.97,-61.41 -74.05,-40.94 -131.85,-98.74 -173.39,-173.39 -41.54,-74.66 -62.31,-161.35 -62.31,-260.09 0,-98.74 20.77,-185.14 62.31,-259.19 41.54,-74.05 99.34,-131.55 173.39,-172.49 74.06,-40.94 158.04,-61.41 251.97,-61.41 62.61,0 120.11,10.83 172.49,32.51 52.38,21.67 97.83,53.58 136.37,95.73l0 -117.41 225.77 0zm-509.35 783.89c83.09,0 151.72,-27.69 205.91,-83.08 54.18,-55.39 81.28,-128.24 81.28,-218.55 0,-90.31 -27.1,-163.16 -81.28,-218.55 -54.19,-55.39 -122.82,-83.09 -205.91,-83.09 -83.08,0 -151.42,27.7 -205,83.09 -53.58,55.39 -80.37,128.24 -80.37,218.55 0,90.31 26.79,163.16 80.37,218.55 53.58,55.39 121.92,83.08 205,83.08zm1020.5 -643c65.03,-101.15 179.42,-151.72 343.18,-151.72l0 214.93c-19.27,-3.61 -36.73,-5.41 -52.38,-5.41 -87.9,0 -156.54,25.58 -205.9,76.76 -49.37,51.17 -74.06,124.93 -74.06,221.26l0 467.8 -225.77 0 0 -964.51 214.93 0 0 140.89zm1468.44 -140.89l0 964.51 -214.94 0 0 -124.63c-37.33,45.76 -83.38,80.08 -138.17,102.96 -54.79,22.87 -115.3,34.31 -181.52,34.31 -93.93,0 -177.91,-20.47 -251.97,-61.41 -74.05,-40.94 -131.85,-98.74 -173.39,-173.39 -41.54,-74.66 -62.31,-161.35 -62.31,-260.09 0,-98.74 20.77,-185.14 62.31,-259.19 41.54,-74.05 99.34,-131.55 173.39,-172.49 74.06,-40.94 158.04,-61.41 251.97,-61.41 62.61,0 120.11,10.83 172.49,32.51 52.38,21.67 97.83,53.58 136.37,95.73l0 -117.41 225.77 0zm-509.35 783.89c83.09,0 151.72,-27.69 205.91,-83.08 54.18,-55.39 81.28,-128.24 81.28,-218.55 0,-90.31 -27.1,-163.16 -81.28,-218.55 -54.19,-55.39 -122.82,-83.09 -205.91,-83.09 -83.08,0 -151.42,27.7 -205,83.09 -53.58,55.39 -80.37,128.24 -80.37,218.55 0,90.31 26.79,163.16 80.37,218.55 53.58,55.39 121.92,83.08 205,83.08zm-13907.67 1879.82c104.76,0 192.06,-34.92 261.9,-104.76l119.21 139.07c-42.15,51.78 -96.33,90.92 -162.56,117.41 -66.23,26.49 -140.88,39.73 -223.97,39.73 -105.96,0 -199.28,-21.07 -279.96,-63.21 -80.67,-42.15 -142.99,-100.85 -186.94,-176.11 -43.95,-75.25 -65.92,-160.45 -65.92,-255.57 0,-93.92 21.37,-178.51 64.11,-253.77 42.75,-75.26 101.75,-133.96 177.01,-176.11 75.26,-42.14 160.45,-63.21 255.58,-63.21 90.31,0 172.49,19.56 246.54,58.7 74.06,39.13 132.76,95.12 176.11,167.97 43.34,72.85 65.02,158.05 65.02,255.58l-738.73 144.5c22.88,55.39 59.6,97.53 110.17,126.43 50.58,28.9 111.39,43.35 182.43,43.35zm-41.54 -615.91c-83.09,0 -150.22,27.09 -201.39,81.27 -51.18,54.19 -76.77,127.04 -76.77,218.55l0 1.81 545.47 -104.76c-15.65,-59 -47.26,-106.56 -94.82,-142.69 -47.56,-36.12 -105.06,-54.18 -172.49,-54.18zm1251.68 -180.62c121.62,0 219.15,35.52 292.61,106.56 73.45,71.05 110.17,176.41 110.17,316.09l0 552.69 -225.77 0 0 -523.8c0,-84.28 -19.87,-147.8 -59.6,-190.55 -39.74,-42.74 -96.33,-64.12 -169.79,-64.12 -83.08,0 -148.71,24.99 -196.87,74.96 -48.17,49.97 -72.25,121.92 -72.25,215.84l0 487.67 -225.77 0 0 -964.51 214.93 0 0 124.63c37.33,-44.55 84.29,-78.27 140.89,-101.15 56.59,-22.87 120.41,-34.31 191.45,-34.31zm1231.82 922.96c-26.49,21.67 -58.7,37.93 -96.63,48.77 -37.93,10.83 -77.96,16.25 -120.11,16.25 -105.96,0 -187.84,-27.69 -245.64,-83.08 -57.8,-55.39 -86.7,-136.07 -86.7,-242.03l0 -865.17 225.78 0 0 220.36 258.28 0 0 180.62 -258.28 0 0 458.77c0,46.96 11.74,82.78 35.22,107.47 23.48,24.68 56.29,37.03 98.43,37.03 50.58,0 92.72,-13.25 126.44,-39.74l63.21 160.75zm612.3 -126.43c104.76,0 192.06,-34.92 261.9,-104.76l119.21 139.07c-42.15,51.78 -96.33,90.92 -162.56,117.41 -66.23,26.49 -140.88,39.73 -223.97,39.73 -105.96,0 -199.28,-21.07 -279.96,-63.21 -80.67,-42.15 -142.99,-100.85 -186.94,-176.11 -43.95,-75.25 -65.92,-160.45 -65.92,-255.57 0,-93.92 21.37,-178.51 64.11,-253.77 42.75,-75.26 101.75,-133.96 177.01,-176.11 75.26,-42.14 160.45,-63.21 255.58,-63.21 90.31,0 172.49,19.56 246.54,58.7 74.06,39.13 132.76,95.12 176.11,167.97 43.34,72.85 65.02,158.05 65.02,255.58l-738.73 144.5c22.88,55.39 59.6,97.53 110.17,126.43 50.58,28.9 111.39,43.35 182.43,43.35zm-41.54 -615.91c-83.09,0 -150.22,27.09 -201.39,81.27 -51.18,54.19 -76.77,127.04 -76.77,218.55l0 1.81 545.47 -104.76c-15.65,-59 -47.26,-106.56 -94.82,-142.69 -47.56,-36.12 -105.06,-54.18 -172.49,-54.18zm1251.68 -180.62c121.62,0 219.15,35.52 292.61,106.56 73.45,71.05 110.17,176.41 110.17,316.09l0 552.69 -225.77 0 0 -523.8c0,-84.28 -19.87,-147.8 -59.6,-190.55 -39.74,-42.74 -96.33,-64.12 -169.79,-64.12 -83.08,0 -148.71,24.99 -196.87,74.96 -48.17,49.97 -72.25,121.92 -72.25,215.84l0 487.67 -225.77 0 0 -964.51 214.93 0 0 124.63c37.33,-44.55 84.29,-78.27 140.89,-101.15 56.59,-22.87 120.41,-34.31 191.45,-34.31zm1643.63 -364.85l0 1340.19 -216.74 0 0 -124.63c-37.33,45.76 -83.38,80.08 -138.17,102.96 -54.79,22.87 -115.3,34.31 -181.52,34.31 -92.72,0 -176.11,-20.47 -250.16,-61.41 -74.05,-40.94 -132.15,-99.04 -174.3,-174.29 -42.14,-75.26 -63.21,-161.66 -63.21,-259.19 0,-97.54 21.07,-183.63 63.21,-258.29 42.15,-74.65 100.25,-132.45 174.3,-173.39 74.05,-40.94 157.44,-61.41 250.16,-61.41 63.82,0 122.22,10.83 175.2,32.51 52.98,21.67 98.13,54.18 135.46,97.53l0 -494.89 225.77 0zm-509.34 1159.57c54.19,0 102.95,-12.34 146.3,-37.03 43.35,-24.68 77.67,-59.9 102.95,-105.66 25.29,-45.75 37.93,-98.74 37.93,-158.94 0,-60.21 -12.64,-113.19 -37.93,-158.95 -25.28,-45.75 -59.6,-80.97 -102.95,-105.66 -43.35,-24.68 -92.11,-37.03 -146.3,-37.03 -54.19,0 -102.95,12.35 -146.3,37.03 -43.35,24.69 -77.67,59.91 -102.95,105.66 -25.29,45.76 -37.93,98.74 -37.93,158.95 0,60.2 12.64,113.19 37.93,158.94 25.28,45.76 59.6,80.98 102.95,105.66 43.35,24.69 92.11,37.03 146.3,37.03zm1264.33 1.81c104.76,0 192.06,-34.92 261.9,-104.76l119.21 139.07c-42.15,51.78 -96.33,90.92 -162.56,117.41 -66.23,26.49 -140.88,39.73 -223.97,39.73 -105.96,0 -199.28,-21.07 -279.96,-63.21 -80.67,-42.15 -142.99,-100.85 -186.94,-176.11 -43.95,-75.25 -65.92,-160.45 -65.92,-255.57 0,-93.92 21.37,-178.51 64.11,-253.77 42.75,-75.26 101.75,-133.96 177.01,-176.11 75.26,-42.14 160.45,-63.21 255.58,-63.21 90.31,0 172.49,19.56 246.54,58.7 74.06,39.13 132.76,95.12 176.11,167.97 43.34,72.85 65.02,158.05 65.02,255.58l-738.73 144.5c22.88,55.39 59.6,97.53 110.17,126.43 50.58,28.9 111.39,43.35 182.43,43.35zm-41.54 -615.91c-83.09,0 -150.22,27.09 -201.39,81.27 -51.18,54.19 -76.77,127.04 -76.77,218.55l0 1.81 545.47 -104.76c-15.65,-59 -47.26,-106.56 -94.82,-142.69 -47.56,-36.12 -105.06,-54.18 -172.49,-54.18zm919.34 -28.9c65.03,-101.15 179.42,-151.72 343.18,-151.72l0 214.93c-19.27,-3.61 -36.73,-5.41 -52.38,-5.41 -87.9,0 -156.54,25.58 -205.9,76.76 -49.37,51.17 -74.06,124.93 -74.06,221.26l0 467.8 -225.77 0 0 -964.51 214.93 0 0 140.89zm2259.55 -151.72c121.62,0 217.95,35.22 288.99,105.66 71.04,70.44 106.57,176.1 106.57,316.99l0 552.69 -225.78 0 0 -523.8c0,-84.28 -18.66,-147.8 -55.99,-190.55 -37.33,-42.74 -90.91,-64.12 -160.75,-64.12 -75.86,0 -136.67,24.99 -182.43,74.96 -45.75,49.97 -68.63,121.31 -68.63,214.03l0 489.48 -225.78 0 0 -523.8c0,-84.28 -18.66,-147.8 -55.99,-190.55 -37.33,-42.74 -90.91,-64.12 -160.75,-64.12 -77.06,0 -138.17,24.69 -183.33,74.06 -45.15,49.37 -67.73,121.01 -67.73,214.93l0 489.48 -225.77 0 0 -964.51 214.93 0 0 122.83c36.13,-43.35 81.28,-76.47 135.47,-99.35 54.18,-22.87 114.39,-34.31 180.62,-34.31 72.25,0 136.36,13.54 192.36,40.64 55.99,27.09 100.24,67.13 132.75,120.11 39.74,-50.58 90.91,-90.01 153.53,-118.31 62.61,-28.29 131.85,-42.44 207.71,-42.44zm1636.41 10.83l0 964.51 -214.94 0 0 -124.63c-37.33,45.76 -83.38,80.08 -138.17,102.96 -54.79,22.87 -115.3,34.31 -181.52,34.31 -93.93,0 -177.91,-20.47 -251.97,-61.41 -74.05,-40.94 -131.85,-98.74 -173.39,-173.39 -41.54,-74.66 -62.31,-161.35 -62.31,-260.09 0,-98.74 20.77,-185.14 62.31,-259.19 41.54,-74.05 99.34,-131.55 173.39,-172.49 74.06,-40.94 158.04,-61.41 251.97,-61.41 62.61,0 120.11,10.83 172.49,32.51 52.38,21.67 97.83,53.58 136.37,95.73l0 -117.41 225.77 0zm-509.35 783.89c83.09,0 151.72,-27.69 205.91,-83.08 54.18,-55.39 81.28,-128.24 81.28,-218.55 0,-90.31 -27.1,-163.16 -81.28,-218.55 -54.19,-55.39 -122.82,-83.09 -205.91,-83.09 -83.08,0 -151.42,27.7 -205,83.09 -53.58,55.39 -80.37,128.24 -80.37,218.55 0,90.31 26.79,163.16 80.37,218.55 53.58,55.39 121.92,83.08 205,83.08zm128.24 -1163.19l265.51 0 -314.27 247.45 -195.07 0 243.83 -247.45zm975.35 1356.45c-78.27,0 -154.73,-10.23 -229.39,-30.7 -74.65,-20.47 -134.26,-46.36 -178.81,-77.67l86.7 -171.59c43.35,28.9 95.42,52.08 156.23,69.54 60.81,17.46 120.72,26.19 179.72,26.19 134.86,0 202.29,-35.52 202.29,-106.56 0,-33.72 -17.16,-57.2 -51.47,-70.44 -34.32,-13.25 -89.41,-25.89 -165.27,-37.93 -79.47,-12.05 -144.2,-25.89 -194.17,-41.55 -49.97,-15.65 -93.32,-43.04 -130.04,-82.18 -36.73,-39.13 -55.09,-93.62 -55.09,-163.46 0,-91.51 38.23,-164.66 114.69,-219.45 76.46,-54.79 179.72,-82.18 309.76,-82.18 66.23,0 132.46,7.52 198.68,22.57 66.23,15.06 120.42,35.23 162.56,60.51l-86.7 171.59c-81.88,-48.16 -173.99,-72.25 -276.34,-72.25 -66.23,0 -116.5,9.94 -150.82,29.8 -34.32,19.87 -51.48,46.06 -51.48,78.57 0,36.13 18.37,61.72 55.09,76.77 36.73,15.05 93.62,29.2 170.69,42.44 77.06,12.04 140.28,25.89 189.65,41.54 49.37,15.66 91.81,42.15 127.33,79.48 35.53,37.33 53.29,90.31 53.29,158.94 0,90.31 -39.14,162.56 -117.41,216.74 -78.26,54.19 -184.83,81.28 -319.69,81.28zm1428.7 0c-78.27,0 -154.73,-10.23 -229.39,-30.7 -74.65,-20.47 -134.26,-46.36 -178.81,-77.67l86.7 -171.59c43.35,28.9 95.42,52.08 156.23,69.54 60.81,17.46 120.72,26.19 179.72,26.19 134.86,0 202.29,-35.52 202.29,-106.56 0,-33.72 -17.16,-57.2 -51.47,-70.44 -34.32,-13.25 -89.41,-25.89 -165.27,-37.93 -79.47,-12.05 -144.2,-25.89 -194.17,-41.55 -49.97,-15.65 -93.32,-43.04 -130.04,-82.18 -36.73,-39.13 -55.09,-93.62 -55.09,-163.46 0,-91.51 38.23,-164.66 114.69,-219.45 76.46,-54.79 179.72,-82.18 309.76,-82.18 66.23,0 132.46,7.52 198.68,22.57 66.23,15.06 120.42,35.23 162.56,60.51l-86.7 171.59c-81.88,-48.16 -173.99,-72.25 -276.34,-72.25 -66.23,0 -116.5,9.94 -150.82,29.8 -34.32,19.87 -51.48,46.06 -51.48,78.57 0,36.13 18.37,61.72 55.09,76.77 36.73,15.05 93.62,29.2 170.69,42.44 77.06,12.04 140.28,25.89 189.65,41.54 49.37,15.66 91.81,42.15 127.33,79.48 35.53,37.33 53.29,90.31 53.29,158.94 0,90.31 -39.14,162.56 -117.41,216.74 -78.26,54.19 -184.83,81.28 -319.69,81.28zm1065.65 0c-97.53,0 -185.43,-21.07 -263.7,-63.21 -78.27,-42.15 -139.38,-100.85 -183.33,-176.11 -43.95,-75.25 -65.92,-160.45 -65.92,-255.57 0,-95.13 21.97,-180.02 65.92,-254.68 43.95,-74.65 105.06,-133.05 183.33,-175.2 78.27,-42.14 166.17,-63.21 263.7,-63.21 98.74,0 187.24,21.07 265.51,63.21 78.27,42.15 139.38,100.55 183.33,175.2 43.95,74.66 65.93,159.55 65.93,254.68 0,95.12 -21.98,180.32 -65.93,255.57 -43.95,75.26 -105.06,133.96 -183.33,176.11 -78.27,42.14 -166.77,63.21 -265.51,63.21zm0 -193.26c83.09,0 151.72,-27.69 205.91,-83.08 54.18,-55.39 81.28,-128.24 81.28,-218.55 0,-90.31 -27.1,-163.16 -81.28,-218.55 -54.19,-55.39 -122.82,-83.09 -205.91,-83.09 -83.08,0 -151.42,27.7 -205,83.09 -53.58,55.39 -80.37,128.24 -80.37,218.55 0,90.31 26.79,163.16 80.37,218.55 53.58,55.39 121.92,83.08 205,83.08zm1266.14 -794.72c93.92,0 177.91,20.47 251.96,61.41 74.06,40.94 132.16,98.74 174.3,173.39 42.15,74.66 63.22,160.75 63.22,258.29 0,97.53 -21.07,183.93 -63.22,259.19 -42.14,75.25 -100.24,133.35 -174.3,174.29 -74.05,40.94 -158.04,61.41 -251.96,61.41 -66.23,0 -126.73,-11.44 -181.52,-34.31 -54.79,-22.88 -100.85,-57.2 -138.18,-102.96l0 124.63 -214.93 0 0 -1340.19 225.77 0 0 493.09c38.53,-42.15 83.99,-74.06 136.37,-95.73 52.38,-21.68 109.88,-32.51 172.49,-32.51zm-25.29 794.72c83.09,0 151.42,-27.69 205.01,-83.08 53.58,-55.39 80.37,-128.24 80.37,-218.55 0,-90.31 -26.79,-163.16 -80.37,-218.55 -53.59,-55.39 -121.92,-83.09 -205.01,-83.09 -54.18,0 -102.95,12.35 -146.3,37.03 -43.35,24.69 -77.66,59.91 -102.95,105.66 -25.29,45.76 -37.93,98.74 -37.93,158.95 0,60.2 12.64,113.19 37.93,158.94 25.29,45.76 59.6,80.98 102.95,105.66 43.35,24.69 92.12,37.03 146.3,37.03zm944.64 -643c65.03,-101.15 179.42,-151.72 343.18,-151.72l0 214.93c-19.27,-3.61 -36.73,-5.41 -52.38,-5.41 -87.9,0 -156.54,25.58 -205.9,76.76 -49.37,51.17 -74.06,124.93 -74.06,221.26l0 467.8 -225.77 0 0 -964.51 214.93 0 0 140.89zm984.38 644.81c104.76,0 192.06,-34.92 261.9,-104.76l119.21 139.07c-42.15,51.78 -96.33,90.92 -162.56,117.41 -66.23,26.49 -140.88,39.73 -223.97,39.73 -105.96,0 -199.28,-21.07 -279.96,-63.21 -80.67,-42.15 -142.99,-100.85 -186.94,-176.11 -43.95,-75.25 -65.92,-160.45 -65.92,-255.57 0,-93.92 21.37,-178.51 64.11,-253.77 42.75,-75.26 101.75,-133.96 177.01,-176.11 75.26,-42.14 160.45,-63.21 255.58,-63.21 90.31,0 172.49,19.56 246.54,58.7 74.06,39.13 132.76,95.12 176.11,167.97 43.34,72.85 65.02,158.05 65.02,255.58l-738.73 144.5c22.88,55.39 59.6,97.53 110.17,126.43 50.58,28.9 111.39,43.35 182.43,43.35zm-41.54 -615.91c-83.09,0 -150.22,27.09 -201.39,81.27 -51.18,54.19 -76.77,127.04 -76.77,218.55l0 1.81 545.47 -104.76c-15.65,-59 -47.26,-106.56 -94.82,-142.69 -47.56,-36.12 -105.06,-54.18 -172.49,-54.18zm-15969.44 2493.92c104.76,0 192.06,-34.92 261.9,-104.76l119.21 139.07c-42.15,51.78 -96.33,90.92 -162.56,117.41 -66.23,26.49 -140.88,39.73 -223.97,39.73 -105.96,0 -199.28,-21.07 -279.96,-63.21 -80.67,-42.15 -142.99,-100.85 -186.94,-176.11 -43.95,-75.25 -65.92,-160.45 -65.92,-255.57 0,-93.92 21.37,-178.51 64.11,-253.77 42.75,-75.26 101.75,-133.96 177.01,-176.11 75.26,-42.14 160.45,-63.21 255.58,-63.21 90.31,0 172.49,19.56 246.54,58.7 74.06,39.13 132.76,95.12 176.11,167.97 43.34,72.85 65.02,158.05 65.02,255.58l-738.73 144.5c22.88,55.39 59.6,97.53 110.17,126.43 50.58,28.9 111.39,43.35 182.43,43.35zm-41.54 -615.91c-83.09,0 -150.22,27.09 -201.39,81.27 -51.18,54.19 -76.77,127.04 -76.77,218.55l0 1.81 545.47 -104.76c-15.65,-59 -47.26,-106.56 -94.82,-142.69 -47.56,-36.12 -105.06,-54.18 -172.49,-54.18zm1022.3 807.36c-99.95,0 -177.91,-27.39 -233.9,-82.18 -56,-54.79 -83.99,-132.15 -83.99,-232.09l0 -1038.56 225.77 0 0 1022.3c0,96.33 45.16,144.5 135.47,144.5 30.1,0 57.19,-6.02 81.27,-18.07l10.84 180.62c-42.14,15.66 -87.3,23.48 -135.46,23.48zm1085.52 0c-78.27,0 -154.73,-10.23 -229.39,-30.7 -74.65,-20.47 -134.26,-46.36 -178.81,-77.67l86.7 -171.59c43.35,28.9 95.42,52.08 156.23,69.54 60.81,17.46 120.72,26.19 179.72,26.19 134.86,0 202.29,-35.52 202.29,-106.56 0,-33.72 -17.16,-57.2 -51.47,-70.44 -34.32,-13.25 -89.41,-25.89 -165.27,-37.93 -79.47,-12.05 -144.2,-25.89 -194.17,-41.55 -49.97,-15.65 -93.32,-43.04 -130.04,-82.18 -36.73,-39.13 -55.09,-93.62 -55.09,-163.46 0,-91.51 38.23,-164.66 114.69,-219.45 76.46,-54.79 179.72,-82.18 309.76,-82.18 66.23,0 132.46,7.52 198.68,22.57 66.23,15.06 120.42,35.23 162.56,60.51l-86.7 171.59c-81.88,-48.16 -173.99,-72.25 -276.34,-72.25 -66.23,0 -116.5,9.94 -150.82,29.8 -34.32,19.87 -51.48,46.06 -51.48,78.57 0,36.13 18.37,61.72 55.09,76.77 36.73,15.05 93.62,29.2 170.69,42.44 77.06,12.04 140.28,25.89 189.65,41.54 49.37,15.66 91.81,42.15 127.33,79.48 35.53,37.33 53.29,90.31 53.29,158.94 0,90.31 -39.14,162.56 -117.41,216.74 -78.26,54.19 -184.83,81.28 -319.69,81.28zm1090.94 -191.45c104.76,0 192.06,-34.92 261.9,-104.76l119.21 139.07c-42.15,51.78 -96.33,90.92 -162.56,117.41 -66.23,26.49 -140.88,39.73 -223.97,39.73 -105.96,0 -199.28,-21.07 -279.96,-63.21 -80.67,-42.15 -142.99,-100.85 -186.94,-176.11 -43.95,-75.25 -65.92,-160.45 -65.92,-255.57 0,-93.92 21.37,-178.51 64.11,-253.77 42.75,-75.26 101.75,-133.96 177.01,-176.11 75.26,-42.14 160.45,-63.21 255.58,-63.21 90.31,0 172.49,19.56 246.54,58.7 74.06,39.13 132.76,95.12 176.11,167.97 43.34,72.85 65.02,158.05 65.02,255.58l-738.73 144.5c22.88,55.39 59.6,97.53 110.17,126.43 50.58,28.9 111.39,43.35 182.43,43.35zm-41.54 -615.91c-83.09,0 -150.22,27.09 -201.39,81.27 -51.18,54.19 -76.77,127.04 -76.77,218.55l0 1.81 545.47 -104.76c-15.65,-59 -47.26,-106.56 -94.82,-142.69 -47.56,-36.12 -105.06,-54.18 -172.49,-54.18zm1291.42 794.72l-247.45 -334.15 -249.25 334.15 -249.25 0 375.68 -489.48 -359.43 -475.03 251.06 0 236.61 316.09 236.61 -316.09 243.84 0 -361.24 471.42 377.5 493.09 -254.68 0zm821.82 12.64c-97.53,0 -185.43,-21.07 -263.7,-63.21 -78.27,-42.15 -139.38,-100.85 -183.33,-176.11 -43.95,-75.25 -65.92,-160.45 -65.92,-255.57 0,-95.13 21.97,-180.02 65.92,-254.68 43.95,-74.65 105.06,-133.05 183.33,-175.2 78.27,-42.14 166.17,-63.21 263.7,-63.21 98.74,0 187.24,21.07 265.51,63.21 78.27,42.15 139.38,100.55 183.33,175.2 43.95,74.66 65.93,159.55 65.93,254.68 0,95.12 -21.98,180.32 -65.93,255.57 -43.95,75.26 -105.06,133.96 -183.33,176.11 -78.27,42.14 -166.77,63.21 -265.51,63.21zm0 -193.26c83.09,0 151.72,-27.69 205.91,-83.08 54.18,-55.39 81.28,-128.24 81.28,-218.55 0,-90.31 -27.1,-163.16 -81.28,-218.55 -54.19,-55.39 -122.82,-83.09 -205.91,-83.09 -83.08,0 -151.42,27.7 -205,83.09 -53.58,55.39 -80.37,128.24 -80.37,218.55 0,90.31 26.79,163.16 80.37,218.55 53.58,55.39 121.92,83.08 205,83.08zm2163.82 -783.89l0 818.21c0,339.56 -166.77,509.34 -500.32,509.34 -87.9,0 -171.89,-11.74 -251.96,-35.22 -80.07,-23.48 -146,-57.49 -197.78,-102.05l101.15 -169.78c40.94,34.92 90.91,62.62 149.91,83.09 59,20.47 121.02,30.7 186.04,30.7 98.74,0 171.29,-23.78 217.65,-71.34 46.35,-47.57 69.53,-120.72 69.53,-219.45l0 -45.16c-36.12,39.74 -80.07,70.14 -131.85,91.21 -51.78,21.08 -107.77,31.61 -167.97,31.61 -128.85,0 -230.29,-35.52 -304.35,-106.56 -74.05,-71.05 -111.08,-177.61 -111.08,-319.7l0 -494.9 225.78 0 0 466c0,85.49 19.56,149.61 58.7,192.36 39.13,42.75 94.82,64.12 167.07,64.12 80.68,0 144.8,-24.68 192.36,-74.05 47.56,-49.37 71.34,-121.02 71.34,-214.94l0 -433.49 225.78 0z"/>
   <path class="fil6" d="M12441.47 15706.3c104.76,0 192.06,-34.92 261.9,-104.76l119.21 139.07c-42.15,51.78 -96.33,90.92 -162.56,117.41 -66.23,26.49 -140.88,39.73 -223.97,39.73 -105.96,0 -199.28,-21.07 -279.96,-63.21 -80.67,-42.15 -142.99,-100.85 -186.94,-176.11 -43.95,-75.25 -65.92,-160.45 -65.92,-255.57 0,-93.92 21.37,-178.51 64.11,-253.77 42.75,-75.26 101.75,-133.96 177.01,-176.11 75.26,-42.14 160.45,-63.21 255.58,-63.21 90.31,0 172.49,19.56 246.54,58.7 74.06,39.13 132.76,95.12 176.11,167.97 43.34,72.85 65.02,158.05 65.02,255.58l-738.73 144.5c22.88,55.39 59.6,97.53 110.17,126.43 50.58,28.9 111.39,43.35 182.43,43.35zm-41.54 -615.91c-83.09,0 -150.22,27.09 -201.39,81.27 -51.18,54.19 -76.77,127.04 -76.77,218.55l0 1.81 545.47 -104.76c-15.65,-59 -47.26,-106.56 -94.82,-142.69 -47.56,-36.12 -105.06,-54.18 -172.49,-54.18zm1022.3 807.36c-99.95,0 -177.91,-27.39 -233.9,-82.18 -56,-54.79 -83.99,-132.15 -83.99,-232.09l0 -1038.56 225.77 0 0 1022.3c0,96.33 45.16,144.5 135.47,144.5 30.1,0 57.19,-6.02 81.27,-18.07l10.84 180.62c-42.14,15.66 -87.3,23.48 -135.46,23.48zm1730.33 -977.15l0 964.51 -214.94 0 0 -124.63c-37.33,45.76 -83.38,80.08 -138.17,102.96 -54.79,22.87 -115.3,34.31 -181.52,34.31 -93.93,0 -177.91,-20.47 -251.97,-61.41 -74.05,-40.94 -131.85,-98.74 -173.39,-173.39 -41.54,-74.66 -62.31,-161.35 -62.31,-260.09 0,-98.74 20.77,-185.14 62.31,-259.19 41.54,-74.05 99.34,-131.55 173.39,-172.49 74.06,-40.94 158.04,-61.41 251.97,-61.41 62.61,0 120.11,10.83 172.49,32.51 52.38,21.67 97.83,53.58 136.37,95.73l0 -117.41 225.77 0zm-509.35 783.89c83.09,0 151.72,-27.69 205.91,-83.08 54.18,-55.39 81.28,-128.24 81.28,-218.55 0,-90.31 -27.1,-163.16 -81.28,-218.55 -54.19,-55.39 -122.82,-83.09 -205.91,-83.09 -83.08,0 -151.42,27.7 -205,83.09 -53.58,55.39 -80.37,128.24 -80.37,218.55 0,90.31 26.79,163.16 80.37,218.55 53.58,55.39 121.92,83.08 205,83.08zm2022.94 -794.72c121.62,0 217.95,35.22 288.99,105.66 71.04,70.44 106.57,176.1 106.57,316.99l0 552.69 -225.78 0 0 -523.8c0,-84.28 -18.66,-147.8 -55.99,-190.55 -37.33,-42.74 -90.91,-64.12 -160.75,-64.12 -75.86,0 -136.67,24.99 -182.43,74.96 -45.75,49.97 -68.63,121.31 -68.63,214.03l0 489.48 -225.78 0 0 -523.8c0,-84.28 -18.66,-147.8 -55.99,-190.55 -37.33,-42.74 -90.91,-64.12 -160.75,-64.12 -77.06,0 -138.17,24.69 -183.33,74.06 -45.15,49.37 -67.73,121.01 -67.73,214.93l0 489.48 -225.77 0 0 -964.51 214.93 0 0 122.83c36.13,-43.35 81.28,-76.47 135.47,-99.35 54.18,-22.87 114.39,-34.31 180.62,-34.31 72.25,0 136.36,13.54 192.36,40.64 55.99,27.09 100.24,67.13 132.75,120.11 39.74,-50.58 90.91,-90.01 153.53,-118.31 62.61,-28.29 131.85,-42.44 207.71,-42.44zm1127.06 987.98c-97.53,0 -185.43,-21.07 -263.7,-63.21 -78.27,-42.15 -139.38,-100.85 -183.33,-176.11 -43.95,-75.25 -65.92,-160.45 -65.92,-255.57 0,-95.13 21.97,-180.02 65.92,-254.68 43.95,-74.65 105.06,-133.05 183.33,-175.2 78.27,-42.14 166.17,-63.21 263.7,-63.21 98.74,0 187.24,21.07 265.51,63.21 78.27,42.15 139.38,100.55 183.33,175.2 43.95,74.66 65.93,159.55 65.93,254.68 0,95.12 -21.98,180.32 -65.93,255.57 -43.95,75.26 -105.06,133.96 -183.33,176.11 -78.27,42.14 -166.77,63.21 -265.51,63.21zm0 -193.26c83.09,0 151.72,-27.69 205.91,-83.08 54.18,-55.39 81.28,-128.24 81.28,-218.55 0,-90.31 -27.1,-163.16 -81.28,-218.55 -54.19,-55.39 -122.82,-83.09 -205.91,-83.09 -83.08,0 -151.42,27.7 -205,83.09 -53.58,55.39 -80.37,128.24 -80.37,218.55 0,90.31 26.79,163.16 80.37,218.55 53.58,55.39 121.92,83.08 205,83.08zm946.44 -643c65.03,-101.15 179.42,-151.72 343.18,-151.72l0 214.93c-19.27,-3.61 -36.73,-5.41 -52.38,-5.41 -87.9,0 -156.54,25.58 -205.9,76.76 -49.37,51.17 -74.06,124.93 -74.06,221.26l0 467.8 -225.77 0 0 -964.51 214.93 0 0 140.89z"/>
  </g>
  <path class="fil6" d="M9268.23 26608.52l221.86 0 0 58.69 -291.29 0 0 -513.14 69.43 0 0 454.45zm343.52 -304.16l0 231.4c0,27.44 6.32,48.79 18.97,63.82 12.64,15.03 31.73,22.54 57.25,22.54 18.61,0 36.14,-4.41 52.6,-13.24 16.47,-8.82 31.61,-21.11 45.45,-36.86l0 -267.66 63.7 0 0 362.85 -37.94 0c-9.06,0 -14.79,-4.41 -17.17,-13.24l-5.01 -39c-15.75,17.41 -33.4,31.37 -52.96,41.98 -19.56,10.62 -41.99,15.99 -67.28,15.99 -19.8,0 -37.21,-3.34 -52.36,-9.9 -15.15,-6.57 -27.91,-15.75 -38.17,-27.68 -10.26,-11.93 -17.89,-26.48 -23.02,-43.42 -5.13,-16.93 -7.75,-35.66 -7.75,-56.18l0 -231.4 63.69 0zm413.67 0l0 362.85 -63.7 0 0 -362.85 63.7 0zm14.31 -113.79c0,6.2 -1.19,11.93 -3.7,17.29 -2.5,5.37 -5.84,10.14 -10.02,14.32 -4.17,4.17 -9.06,7.51 -14.55,9.9 -5.49,2.38 -11.33,3.57 -17.53,3.57 -6.21,0 -11.93,-1.19 -17.3,-3.57 -5.37,-2.39 -10.14,-5.73 -14.31,-9.9 -4.18,-4.18 -7.52,-8.95 -9.9,-14.32 -2.39,-5.36 -3.58,-11.09 -3.58,-17.29 0,-6.21 1.19,-12.17 3.58,-17.78 2.38,-5.6 5.72,-10.49 9.9,-14.67 4.17,-4.17 8.94,-7.39 14.31,-9.78 5.37,-2.38 11.09,-3.58 17.3,-3.58 6.2,0 12.04,1.2 17.53,3.58 5.49,2.39 10.38,5.61 14.55,9.78 4.18,4.18 7.52,9.07 10.02,14.67 2.51,5.61 3.7,11.57 3.7,17.78zm305.59 173.91c-2.86,5.25 -7.27,7.87 -13.24,7.87 -3.58,0 -7.63,-1.31 -12.16,-3.94 -4.54,-2.62 -10.02,-5.6 -16.58,-8.82 -6.57,-3.22 -14.44,-6.21 -23.5,-8.95 -9.07,-2.74 -19.8,-4.05 -32.21,-4.05 -10.73,0 -20.4,1.31 -28.98,4.05 -8.59,2.74 -15.87,6.56 -21.95,11.33 -6.08,4.77 -10.74,10.26 -13.96,16.58 -3.22,6.32 -4.89,13.24 -4.89,20.64 0,9.3 2.75,17.05 8.11,23.26 5.37,6.2 12.41,11.57 21.24,16.1 8.82,4.53 18.84,8.47 30.05,11.93 11.22,3.46 22.79,7.16 34.6,11.09 11.8,3.94 23.25,8.35 34.47,13.12 11.21,4.77 21.23,10.74 30.06,17.89 8.82,7.16 15.98,15.87 21.35,26.25 5.36,10.37 7.99,22.9 7.99,37.45 0,16.7 -2.98,32.09 -8.95,46.28 -5.96,14.19 -14.79,26.48 -26.48,36.86 -11.69,10.38 -26,18.61 -42.94,24.57 -16.94,5.96 -36.5,8.95 -58.68,8.95 -25.29,0 -48.19,-4.06 -68.71,-12.17 -20.52,-8.11 -37.93,-18.49 -52.24,-31.13l15.03 -24.93c1.9,-3.1 4.17,-5.49 6.79,-7.28 2.63,-1.67 6.09,-2.5 10.38,-2.5 4.3,0 8.83,1.67 13.6,5.01 4.77,3.34 10.62,7.03 17.41,11.09 6.8,4.05 15.03,7.75 24.7,11.09 9.66,3.34 21.7,5.01 36.26,5.01 12.4,0 23.26,-1.67 32.56,-4.89 9.3,-3.22 17.06,-7.51 23.26,-13 6.2,-5.49 10.85,-11.81 13.84,-18.97 2.98,-7.15 4.41,-14.91 4.41,-23.02 0,-10.02 -2.62,-18.25 -7.99,-24.81 -5.37,-6.56 -12.53,-12.16 -21.35,-16.82 -8.83,-4.77 -18.85,-8.82 -30.18,-12.28 -11.33,-3.46 -22.9,-7.04 -34.71,-10.86 -11.81,-3.81 -23.38,-8.23 -34.71,-13.12 -11.33,-4.89 -21.47,-10.97 -30.3,-18.37 -8.83,-7.39 -15.86,-16.58 -21.23,-27.43 -5.37,-10.85 -8.11,-24.09 -8.11,-39.6 0,-13.84 2.86,-27.2 8.59,-39.96 5.72,-12.76 14.07,-23.98 25.04,-33.64 10.98,-9.66 24.46,-17.41 40.44,-23.14 15.98,-5.72 34.23,-8.59 54.75,-8.59 23.86,0 45.33,3.82 64.29,11.34 18.97,7.63 35.31,18.01 49.15,31.25l-14.32 23.26zm673.11 302.73l-53.68 0c-6.2,0 -11.21,-1.55 -15.03,-4.65 -3.81,-3.1 -6.68,-7.04 -8.59,-11.81l-47.95 -123.81 -230.09 0 -47.95 123.81c-1.67,4.29 -4.53,8.11 -8.59,11.45 -4.05,3.34 -9.06,5.01 -15.03,5.01l-53.67 0 205.04 -513.14 70.5 0 205.04 513.14zm-336.01 -190.01l191.44 0 -80.51 -208.86c-5.25,-12.88 -10.38,-28.99 -15.39,-48.31 -2.63,9.78 -5.13,18.73 -7.63,26.96 -2.51,8.23 -5.01,15.5 -7.4,21.71l-80.51 208.5zm217.56 -448.38l-105.2 77.3c-4.06,2.86 -7.64,4.77 -10.74,5.72 -3.1,0.96 -7.15,1.43 -12.16,1.43l-49.39 0 75.51 -72.64c2.38,-2.38 4.65,-4.29 6.68,-5.72 2.03,-1.43 4.05,-2.63 6.2,-3.58 2.15,-0.96 4.53,-1.67 7.16,-2.03 2.62,-0.36 5.96,-0.48 10.02,-0.48l71.92 0zm173.19 638.39l0 -362.85 37.94 0c9.06,0 14.79,4.41 17.17,13.24l5.01 39.48c15.75,-17.53 33.4,-31.61 52.84,-42.34 19.45,-10.74 41.87,-16.11 67.4,-16.11 19.8,0 37.33,3.34 52.48,9.91 15.15,6.56 27.79,15.86 37.93,27.91 10.14,12.04 17.77,26.6 23.02,43.53 5.25,16.94 7.87,35.67 7.87,56.18l0 231.05 -63.69 0 0 -231.05c0,-27.43 -6.2,-48.78 -18.73,-63.93 -12.52,-15.15 -31.73,-22.78 -57.49,-22.78 -18.85,0 -36.38,4.53 -52.72,13.6 -16.34,9.06 -31.49,21.47 -45.33,36.97l0 267.19 -63.7 0zm519.95 -368.58c15.74,0 30.53,1.67 44.25,5.13 13.72,3.46 26.12,8.59 37.34,15.27l98.4 0 0 23.74c0,7.87 -5.01,13 -15.03,15.15l-41.15 5.72c8.11,15.51 12.17,32.8 12.17,51.89 0,17.65 -3.34,33.76 -10.14,48.19 -6.8,14.43 -16.22,26.84 -28.27,37.09 -12.05,10.26 -26.36,18.13 -42.94,23.62 -16.58,5.49 -34.83,8.23 -54.63,8.23 -16.94,0 -32.92,-2.03 -47.95,-5.96 -7.64,4.89 -13.36,10.14 -17.3,15.86 -3.93,5.61 -5.96,11.21 -5.96,16.58 0,8.95 3.46,15.63 10.38,20.16 6.91,4.53 16.1,7.87 27.55,9.78 11.45,2.03 24.45,2.98 39,2.98 14.56,0 29.47,0 44.61,0 15.15,0 29.94,1.32 44.5,3.94 14.55,2.74 27.55,7.04 39,13.12 11.45,5.96 20.64,14.31 27.55,24.93 6.92,10.62 10.38,24.45 10.38,41.39 0,15.63 -3.82,30.89 -11.57,45.57 -7.75,14.79 -18.96,27.79 -33.52,39.36 -14.55,11.45 -32.32,20.63 -53.31,27.43 -21,6.92 -44.73,10.38 -71.21,10.38 -26.49,0 -49.63,-2.62 -69.55,-7.87 -19.91,-5.25 -36.49,-12.29 -49.62,-21.12 -13.12,-8.82 -22.9,-19.08 -29.46,-30.65 -6.56,-11.57 -9.9,-23.74 -9.9,-36.38 0,-17.89 5.73,-33.04 17.06,-45.57 11.33,-12.64 26.84,-22.54 46.64,-29.94 -10.26,-4.77 -18.37,-11.09 -24.45,-19.08 -6.09,-7.99 -9.19,-18.61 -9.19,-31.97 0,-5.13 0.95,-10.61 2.86,-16.22 1.91,-5.49 4.89,-11.09 8.83,-16.58 3.94,-5.37 8.71,-10.61 14.43,-15.62 5.73,-5.01 12.41,-9.43 20.04,-13.24 -17.89,-10.02 -31.85,-23.38 -41.98,-39.96 -10.14,-16.7 -15.27,-36.15 -15.27,-58.33 0,-17.77 3.46,-33.76 10.26,-48.31 6.79,-14.43 16.22,-26.84 28.38,-36.98 12.17,-10.14 26.72,-18.01 43.54,-23.49 16.82,-5.49 35.19,-8.24 55.23,-8.24zm113.08 387.43c0,-9.31 -2.51,-16.7 -7.52,-22.31 -5.01,-5.61 -11.81,-9.9 -20.4,-13 -8.58,-2.98 -18.48,-5.25 -29.7,-6.68 -11.21,-1.55 -23.02,-2.27 -35.42,-2.27 -12.41,0 -25.05,0 -37.93,0 -12.89,0 -25.17,-1.55 -36.86,-4.77 -13.6,6.44 -24.57,14.32 -33.04,23.62 -8.47,9.3 -12.76,20.4 -12.76,33.28 0,8.11 2.14,15.74 6.32,22.78 4.17,7.04 10.49,13.12 19.08,18.25 8.59,5.13 19.44,9.19 32.45,12.17 13,2.98 28.27,4.53 45.92,4.53 17.17,0 32.56,-1.55 46.16,-4.77 13.6,-3.1 25.17,-7.63 34.59,-13.48 9.42,-5.84 16.58,-12.76 21.59,-20.75 5.01,-8.12 7.52,-16.94 7.52,-26.6zm-113.08 -195.62c12.88,0 24.33,-1.79 34.23,-5.37 9.9,-3.58 18.13,-8.59 24.81,-15.03 6.68,-6.56 11.69,-14.19 15.03,-23.14 3.34,-9.07 5.01,-18.85 5.01,-29.7 0,-22.19 -6.68,-39.84 -20.16,-53.08 -13.48,-13.12 -33.16,-19.68 -58.92,-19.68 -25.53,0 -44.97,6.56 -58.45,19.68 -13.48,13.24 -20.28,30.89 -20.28,53.08 0,10.85 1.79,20.63 5.25,29.7 3.46,8.95 8.47,16.58 15.15,23.14 6.68,6.44 14.91,11.45 24.69,15.03 9.78,3.58 20.99,5.37 33.64,5.37zm387.18 -191.81c21.71,0 41.75,3.7 60.12,10.98 18.36,7.27 34.23,17.77 47.59,31.49 13.36,13.72 23.85,30.77 31.37,50.93 7.51,20.16 11.21,43.18 11.21,69.06 0,10.02 -1.07,16.7 -3.22,20.04 -2.15,3.34 -6.2,5.01 -12.17,5.01l-241.18 0c0.48,22.9 3.58,42.94 9.3,59.88 5.73,17.06 13.6,31.13 23.62,42.58 10.02,11.34 21.95,19.8 35.79,25.41 13.83,5.61 29.34,8.47 46.51,8.47 15.99,0 29.82,-1.91 41.39,-5.61 11.57,-3.69 21.48,-7.75 29.82,-12.04 8.35,-4.3 15.39,-8.23 21,-11.93 5.6,-3.82 10.38,-5.61 14.43,-5.61 5.25,0 9.3,2.03 12.17,6.09l17.89 23.37c-7.87,9.43 -17.3,17.66 -28.27,24.7 -10.97,7.03 -22.66,12.76 -35.19,17.29 -12.52,4.41 -25.52,7.87 -38.88,10.14 -13.36,2.27 -26.6,3.34 -39.72,3.34 -25.05,0 -48.07,-4.29 -69.19,-12.76 -21.11,-8.47 -39.36,-20.88 -54.75,-37.22 -15.38,-16.34 -27.43,-36.62 -36.02,-60.71 -8.59,-24.1 -12.88,-51.77 -12.88,-83.14 0,-25.29 3.94,-48.91 11.69,-70.85 7.75,-21.95 18.85,-41.03 33.4,-57.14 14.55,-16.1 32.32,-28.74 53.32,-37.93 20.99,-9.18 44.61,-13.84 70.85,-13.84zm1.43 47.24c-30.77,0 -54.99,8.83 -72.64,26.6 -17.66,17.65 -28.63,42.22 -32.92,73.59l197.17 0c0,-14.79 -2.03,-28.26 -6.09,-40.43 -4.05,-12.29 -10.02,-22.9 -17.89,-31.73 -7.87,-8.95 -17.41,-15.86 -28.74,-20.75 -11.34,-4.89 -24.34,-7.28 -38.89,-7.28zm300.95 -206.12l0 527.46 -63.7 0 0 -527.46 63.7 0z"/>
 </g>
</svg>
