<!-- Generated by IcoMoon.io -->
<svg version="1.1" xmlns="http://www.w3.org/2000/svg" width="32" height="32" viewBox="0 0 32 32">
<title>lavarse-las-manos</title>
<path d="M24.667 10.667c1.84 0 3.333-1.493 3.333-3.333 0-2.227-3.333-6-3.333-6s-3.333 3.773-3.333 6c0 1.84 1.493 3.333 3.333 3.333zM18 12c1.107 0 2-0.893 2-2 0-1.12-2-3.333-2-3.333s-2 2.213-2 3.333c0 1.107 0.893 2 2 2zM12.16 6.667l-9.573 9.053c-0.8 0.747-1.253 1.8-1.253 2.907v8.040c0 2.213 1.787 4 4 4h18.333c0.92 0 1.667-0.747 1.667-1.667s-0.747-1.667-1.667-1.667h-7.667v-1.333h10.333c0.92 0 1.667-0.747 1.667-1.667s-0.747-1.667-1.667-1.667h-10.333v-1.333h11.667c0.92 0 1.667-0.747 1.667-1.667s-0.747-1.667-1.667-1.667h-11.667v-1.333h9c0.92 0 1.667-0.747 1.667-1.667s-0.747-1.667-1.667-1.667h-13.187c0.853-1.48 1.973-3.44 1.987-3.48 0.12-0.213 0.187-0.44 0.187-0.707 0-0.347-0.12-0.667-0.347-0.933-0.013-0.053-1.48-1.547-1.48-1.547v0z"></path>
</svg>
