<!-- Generated by IcoMoon.io -->
<svg version="1.1" xmlns="http://www.w3.org/2000/svg" width="32" height="32" viewBox="0 0 32 32">
<title>leather-item</title>
<path d="M16.471 21.353c-1.487-0.614-2.139-1.782-1.974-3.729 1.164-0.782 1.171-0.944 2.889-0.366 0.568 1.603-0.217 3.008-0.915 4.095zM7.629 19.825c-0.327-1.168 0.543-2.548 1.098-3.328l2.101 0.074 0.336 2.135c-0.671 0.66-0.618 0.811-1.609 1.183-1.949 0.731-1.92-0.061-1.926-0.064zM22.28 16.349c1.831 0.42 2.452 1.727 2.182 3.775-3.125 0.018-5.082-2.133-2.182-3.775zM26.625 16.989l-0.12-2.27c1.549 0.019 1.738 0.2 2.525 1.009-0.492 0.742-0.53 1.076-2.405 1.261zM3.133 15.728c0.853-0.952 0.849-0.843 2.461-1.104l0.021 2.393c-2.574-0.497-1.948-0.457-2.482-1.289zM9.439 12.358c1.512-2.586 11.689-2.724 13.24 0-1.452 2.013-11.351 2.668-13.24 0zM4.194 18.505l1.334 0.055 0.095 2.187c1.818 1.169 1.53 1.723 4.356 2.433 3.666 0.92 8.279 0.937 11.952 0.055 2.423-0.582 3.053-1.521 4.63-2.582l-0.008-1.93c1.818-1.058 1.069 0.212 3.937-2.109 0.049-2.989-1.227-2.697-3.952-3.645-0.254-3.866-3.118-3.499-6.13-4.632-3.267-0.273-6.638-0.397-9.762 0.279-1.339 0.29-2.659 0.739-3.501 1.335-1.263 0.893-1.175 1.582-1.71 3.074-6.767 2.362-3.123 3.447-1.239 5.482z"></path>
</svg>
