<?xml version="1.0" encoding="UTF-8"?>
<!DOCTYPE svg PUBLIC "-//W3C//DTD SVG 1.1//EN" "http://www.w3.org/Graphics/SVG/1.1/DTD/svg11.dtd">
<!-- Creator: CorelDRAW 2017 -->
<svg xmlns="http://www.w3.org/2000/svg" xml:space="preserve" width="7.3658mm" height="7.3658mm" version="1.1" style="shape-rendering:geometricPrecision; text-rendering:geometricPrecision; image-rendering:optimizeQuality; fill-rule:evenodd; clip-rule:evenodd"
viewBox="0 0 736.58 736.58"
 xmlns:xlink="http://www.w3.org/1999/xlink">
 <defs>
  <style type="text/css">
   <![CDATA[
    .fil0 {fill:none}
    .fil1 {fill:black}
   ]]>
  </style>
 </defs>
 <g id="Capa_x0020_1">
  <metadata id="CorelCorpID_0Corel-Layer"/>
  <rect class="fil0" x="-0" y="-0" width="736.59" height="736.59"/>
  <rect class="fil0" x="-0" y="-0" width="736.59" height="736.59"/>
  <rect class="fil0" x="-0" y="-0" width="736.59" height="736.59"/>
  <path class="fil1" d="M730.76 272.72c-5.13,-0.59 -9.37,-4.06 -18.85,-7.23l-27.82 -9.96c-6.19,-4.68 -3.64,-45.92 1.49,-55.81 2.99,-5.76 4.82,-11.16 9.68,-16.25 10.52,-11.06 29.87,-7.04 27.02,-24.82 -10.03,-4.47 -58.24,-17.29 -59.78,-18.08 -2.36,-1.21 -0.53,-1.15 -4.24,-1.98l-10.35 -2.94c-6.92,-1.8 -0.94,1.52 -9.72,-2.96 -2.71,-1.39 -1.81,-0.57 -4.87,-1.22l-20.35 -6.2c-5.5,-1 -5.16,-1.91 -9.59,-2.99l-38.15 -11.37c-1.82,-1.24 -0.95,-0.73 -2.26,-2.27 -1.15,-1.97 2.15,0.54 -1.28,-0.77l-20.25 -6.44c-2.03,-0.63 -3.13,-0.71 -5.16,-1.34 -1.9,-0.58 -2.48,-1.05 -4.72,-1.77 -17.45,-5.58 -35.36,-9.67 -52.83,-15.76 -9.56,-3.34 -22.13,-0.39 -32.29,1.33 -2.83,0.48 -7.24,0.56 -10.91,1.15l-108.68 15.54c-2.93,0.5 -8.76,0.79 -11.69,1.29 -3.86,0.65 -6.45,1.21 -10.28,1.77 -4.05,0.6 -8.5,0.64 -11.86,1.12l-218.07 30.37c-16.94,3.63 -19.42,2.61 -33.91,15.22 -14.36,12.49 -18.55,37.91 -18.54,56.56 0.01,58.18 20.89,68.4 23.17,76.94 -8.68,4.6 -20.09,5.56 -29.2,9.74 -3.02,1.38 -1.63,-0.62 -3.62,2.89 -3.67,6.5 0.93,11.93 5.47,14.72l3.62 1.95c2.26,1.15 1.38,0.71 3.91,1.65 2.06,0.76 2.36,0.91 3.93,1.64 1.55,0.72 2.8,1.15 4.48,2 4.62,2.31 8.66,7.47 11.12,12.06 10.42,19.52 6.78,39.87 6.78,60.89l-19.85 7.03c-9,2.6 -18.17,5.55 -26.08,11 -2.98,2.06 -1.9,2.34 -5.98,3.29l0 7.42c6.49,0.14 10.88,3.14 17.61,3.7 -0.12,5.41 -6.99,9.92 -12.73,25.28l-1.75 4.74c-1.57,4.61 1.91,2.81 -3.13,3.36l0 55.62c4.39,0.48 2.12,-1.19 3.13,4.29 1.77,9.63 4.82,18.99 9.54,27.54l9.46 12.78c12.59,11.91 20.27,11.34 34.96,16.96 12.7,4.86 26.39,8.14 39.19,12.72l141.37 45.9c2.72,0.76 3.33,1.3 5.45,1.96 2.46,0.78 3.33,0.88 5.62,1.8 4.12,1.64 7.13,1.99 11.26,3.57l44.65 14.71c4.79,1.26 9.12,-0.16 12.53,-1.2l186.73 -45.03c18.93,-4.26 64.23,-16.85 78.16,-19.18 7.69,-1.29 15.73,-4.27 23.71,-5.96l12.94 -2.82c4.6,-1.16 7.95,-1.83 11.78,-3.05 7.33,-2.32 16.79,-3.51 24.22,-5.45l35.55 -8.95c7.6,-1.33 16.99,-3.53 23.57,-7.02 0,-6.31 -3.57,-8.07 -8.63,-10.83l-20.78 -8.89c-5.31,-1.87 -20.06,-4.01 -22.5,-8.09 -3.1,-5.17 -4.29,-49.59 11.34,-66.53 4.42,-4.79 5.77,-5.45 12.14,-8.26 2.54,-1.12 4.92,-1.66 7.28,-2.92 6.3,-3.35 14.17,-11.02 7.46,-17.99 -3.22,-3.35 -10.95,-3.38 -15.05,-5.35 0.5,-5.93 10.35,-7.13 18.43,-26.07 4.22,-9.91 8.98,-24.74 9.4,-36.03 0.47,-12.64 2.42,-29.76 -0.61,-42.06 -2.32,-9.44 -4.08,-16.27 -9.06,-24.31 -1.98,-3.19 -3.95,-4.14 -4.25,-7.8 5.82,-1.36 12.32,-3.15 18.27,-4.9l18.81 -4.37 0 -7.42c-4.64,-0.51 -1.54,-2.75 -5.56,-1.86zm-684.88 -70.45l0.43 28.33 7.57 23.77c3.94,5.95 9.51,12.29 16.05,14.32 2.67,0.83 3.07,1.11 5.47,1.93 2.78,0.94 4.16,0.55 7.28,1.21 6.22,1.33 -1.75,1.4 12.12,3.51 4.61,0.71 2.3,0.73 5.56,1.95 2.59,0.98 4.04,0.83 7.43,1.1 3.56,3.75 -0.66,2.17 4.54,3.24l28.67 6.85c2.96,0.72 3.54,1.96 6.36,2.72 3.44,0.93 4.28,0.21 7.91,1.54 2.99,1.09 3.78,1.33 7.05,2.11 3.69,0.88 4.07,1.36 6.22,2.2 5.74,2.25 4.46,-0.83 10.71,3.36 2.89,1.93 15.01,1.72 25.61,5.92l14.26 4.23c5.62,1.2 6.69,2.55 13.83,3.69 6.17,0.99 0.98,1.37 13.83,3.74l13.13 4.5c6.5,3.11 3.75,0.22 13.9,4.59 2.2,0.94 4.44,0.42 7.34,0.87 4.54,0.71 3.24,1.67 6.87,2.46 4.1,0.89 4.12,-0.31 8.03,1.52 4.01,1.89 1.54,1.27 7.34,1.89 4.57,0.5 3.28,0.74 6.54,1.88 2.7,0.95 4.78,0.84 7.63,1.71 16.54,5.03 14.97,17.06 15.76,-57.27l0.38 -22.34c-0.15,-8.37 -1.43,-4.76 -14.85,-9.88l-46.71 -15.41c-4.29,-1.13 -7.56,-2.42 -11.29,-4.32 -4.16,-2.12 -8.07,-1.76 -11.46,-3.39 -9.93,-4.79 -2.2,-1.16 -11.32,-4.25 -7.11,-2.42 -1.71,0.33 -11.79,-4.01 -4.12,-1.77 -13.99,-3.2 -17.89,-5.47l-17.65 -5.42c-3.22,-1.1 -1.59,-1.23 -4.96,-2.3l-59.59 -18.59c-19.55,-8.36 -31.73,-9.37 -46.82,-15.26 -12.27,-4.8 -21.2,-1.85 -28.85,7.86 -0.1,0.13 -0.3,0.33 -0.39,0.46 -1.84,2.73 -0.16,2.96 -3.04,9.93 -1.48,3.58 -1.21,9.76 -1.21,14.52zm356.29 188.64l0.76 55.13c0.35,4.13 1.36,4.4 1.45,10.2 0.11,7.21 -0.54,16.02 1.22,22.06 8.99,0.69 12.23,-1.84 21.75,-4.08 4.46,-1.06 1.86,-1.89 9.17,-3.45 4.77,-1.02 6.34,-2.1 9.95,-2.98 5.69,-1.39 6.19,-2.47 9.96,-3.01 9.78,-1.41 9.54,-2.86 20.06,-5.82 4.21,-1.18 6.86,-0.73 10.99,-2.23 3.16,-1.14 6.75,-1.91 9.68,-3.19 5.07,-2.23 4.8,-1.38 10.63,-2.44l30.32 -8.72c2.17,-0.47 4.02,-0.3 6.01,-0.72l14.35 -4.69c5.03,-3.37 4.59,-0.96 10.33,-2.83 5.46,-1.77 9.15,-4.14 19.28,-6.27l81.14 -22.84c6.91,-2.99 10.56,-10.26 13.05,-12.99 2.76,-3.02 5.9,-13.54 7.13,-18.55 1.98,-8.06 2.75,-42.23 -0.97,-49.13 -3.53,-6.54 -2.13,-10.74 -9.67,-16.24 -10.83,-7.9 -22.46,0.31 -30.29,2.68l-39.4 12.62c-12.67,3.02 -25.45,8.67 -34.76,10.8l-14.91 5.32c-3.39,1.12 -6.93,1.65 -10.36,2.86l-47.78 16.68c-4.31,1.33 -7.45,0.46 -11.22,2.15 -7.15,3.21 -5.91,1.06 -9.82,3.14 -10.49,5.57 -35.69,11.57 -38.7,13.2 -9.3,5.04 -6.03,0.82 -19.74,6.21l-14.59 4.96c-2.39,0.8 -3.47,1.13 -5.02,2.17zm-157.77 208.6c12.13,1.3 21.7,7.28 31.85,8.95 5.93,0.97 10.19,2.46 16.49,4.07 15.03,3.86 16.06,6.9 17.26,-1.26 0.97,-6.56 0.72,-30.83 0.79,-38.18 0.48,-49.76 6.21,-43.66 -14.42,-49.55 -3.38,-0.97 -3.58,-1.87 -7.2,-2.84l-61.82 -19.86c-4.55,-1.03 -3.96,-1.73 -7.24,-2.87 -3.2,-1.12 -9.73,-2.14 -15.7,-4.79 -3.58,-1.58 -3.08,-1.5 -7.51,-2.54l-14.93 -5.46c-3.6,-1.33 -4.69,-0.44 -8.24,-2.05 -7.31,-3.33 -13.91,-3.73 -22.71,-7.81 -4.5,-2.09 -12.39,-3.56 -15.91,-4.53 -4.02,-1.11 -3.02,-1.88 -7.27,-2.82 -4.63,-1.02 -12.54,-3.15 -15.6,-5.01 -3.76,-2.27 -3.32,-1.13 -7.55,-2.45l-31.65 -9.46c-3.94,-1.2 -2.99,-2.29 -7.34,-2.7 -9.02,-0.65 -13.96,-5.58 -24.38,-3.22 -24.69,5.57 -21.96,78.74 0.68,95.5 4.32,3.19 31.96,9.95 39.7,12.03l31.68 8.72c11.12,2.24 34.01,10.64 49.92,14.16l50.78 14.47c3.81,1.65 6.62,1.4 10.36,2.63 4.28,1.42 16.31,3.61 19.96,6.87zm-178.21 -201.65c5.81,3.36 21.5,6.4 29.16,7.91 5.06,1 3.85,2.57 9.62,3.09 5.58,0.5 5.68,0.43 10.41,1.96l72.24 17.13c6.96,1.09 4.03,1.14 8.64,2.92l20.31 5.57c6.07,2.71 14.26,1.89 30.67,7.46 3.87,1.31 5.98,1.02 10.26,1.94l19.13 5.59c10.8,1.53 20.7,5.61 32.23,7.07 5.82,0.74 15.19,4.84 19.12,5.64l30.94 7.16c4.47,0.92 5.34,2.04 10.33,2.71 6.48,0.88 4.47,2.11 9.51,3.17 2.95,0.63 8.79,1.36 11.67,1.24 0.74,-7.72 0.46,-21.46 -0.43,-29.02 -1.06,-9.08 -0.52,-20.79 -0.58,-30.2 -0.04,-6.38 1.69,-25.17 -2.02,-28.38 -3.35,-2.91 -6.7,-0.91 -11.47,-2.27 -3.2,-0.92 -2.23,-1.52 -5.13,-2.07 -2.31,-0.45 -5.39,-0.33 -7.73,-0.72l-36.8 -7.78c-5,-1.67 -8.66,-0.95 -14.26,-1.89 -7.87,-1.31 -16.7,-4.16 -24.87,-5.59 -5.47,-0.97 -7.27,-1.63 -11.98,-2.77l-9.29 -1.8c-4.03,-1.55 -0.46,-0.64 -2.94,-1.47 -2.99,-1 -9.73,-0.86 -13.33,-1.68 -4.66,-1.06 -5.96,-2.41 -11.99,-2.7 -7.4,-0.36 -7.47,-0.88 -12.87,-2.33 -5.38,-1.45 -9.27,-0.23 -20.18,-3.19 -1.84,-0.5 -4.01,-0.76 -6.14,-1.29 -3.88,-0.98 -7.67,-1.98 -12.17,-2.71 -4.39,-0.72 -9.04,-1.32 -12.56,-2.28 -4.44,-1.21 -6.5,-2.77 -11.59,-3.78 -4.94,-0.97 -7.45,-1.44 -12.22,-2.49l-49.97 -10.37c-4.98,-1.25 -20.69,-2.91 -26.19,-4.56 -4.39,-1.33 -7.39,-2.73 -13.36,-2.56 -0.09,4.26 3.6,11.47 4.9,15.62 0.94,2.99 1.74,14.27 2.37,18.2 2.27,14.09 -1.74,27.61 -1.44,39.52zm431.4 -174.77c-6.63,-0.92 -7.15,1.46 -11.66,2.33 -5.29,1.01 -8.46,-0.43 -13.22,1.65 -5.62,2.47 -5.6,1.49 -12.06,2.8 -4.39,0.89 -7.59,2.37 -11.82,2.85 -11.55,1.32 -41.7,10.8 -49.68,9.81 -1.29,1.47 -0.43,0.91 -2.49,1.99l-45.99 9.63c-2.83,4.36 -4.3,75.64 -3.14,85.54l90.5 -22.33c4.22,-1.11 7.73,-0.36 11.04,-1.94l59.63 -15.35c25.61,-6.31 52.93,-13.96 80.33,-19.9 6.46,-1.39 13,-4.1 19.39,-5.32l40.67 -9.8c30.63,-8.18 17.19,4.96 18.4,-41.48 0.44,-16.99 6.65,-29.62 7.36,-35.77l-22.22 4.58c-3.65,0.92 -7.18,1.29 -10.96,2.12l-32.32 6.44c-14.81,2.08 -16.91,4.36 -33.37,6.7 -3.63,0.52 -7.14,1.73 -10.7,2.4 -13.19,2.51 -61.94,13.29 -67.69,13.05zm32.2 264.9c-5.44,-0.69 -6.36,0.43 -9.66,1.28 -1.51,1.43 -0.7,1.05 -3.2,2.05l-71.04 14.26 -33.02 10.95c-5.04,2.12 -6.6,2.01 -12.44,1.06 -9.98,-1.65 -27.69,3.55 -37.72,5.99 -6.71,1.64 -29.03,3.27 -36.15,8.71l-1.84 82.35c10.22,-0.42 46.35,-10.81 59.44,-13.6 5.56,-1.19 11.11,-4.09 21.01,-4.13 3.66,0.06 15.65,-3.34 19.91,-4.3 5.25,-1.18 5.44,-1.19 9.86,-2.92l31.43 -7.6c3.4,-0.76 6.37,-2.25 9.66,-3.02l21.19 -4.9c3.69,-1.05 8.15,-1.02 11.19,-2.03 4.78,-1.58 2.55,-2.07 9.87,-3.01 4.91,-0.63 6.05,-1.41 10.08,-2.75 6.08,-2.02 15.83,-2.85 21.05,-4.99l20.18 -4.99 18.94 -6.58c12.88,-3.57 51.24,-11.09 57.84,-14.74 0.56,-3.82 -1.24,-13.19 -1.41,-18.54 -1.18,-37.55 5.43,-39.23 5.98,-51.78 -20.96,1.91 -112.66,23.24 -121.15,23.23zm-32.2 -264.9c5.75,0.24 54.5,-10.54 67.69,-13.05 3.56,-0.67 7.07,-1.88 10.7,-2.4 16.46,-2.34 18.56,-4.62 33.37,-6.7l32.32 -6.44c3.78,-0.83 7.31,-1.2 10.96,-2.12l22.22 -4.58c-0.71,6.15 -6.92,18.78 -7.36,35.77 -1.21,46.44 12.23,33.3 -18.4,41.48l-40.67 9.8c-6.39,1.22 -12.93,3.93 -19.39,5.32 -27.4,5.94 -54.72,13.59 -80.33,19.9l-59.63 15.35c-3.31,1.58 -6.82,0.83 -11.04,1.94l-90.5 22.33c-1.16,-9.9 0.31,-81.18 3.14,-85.54l45.99 -9.63c2.06,-1.08 1.2,-0.52 2.49,-1.99 -6.34,-0.54 -28.92,5.25 -33.66,5.64 -5.83,0.48 -3.35,0.6 -6.94,2 -9.88,3.85 -12.03,-5.24 -12.18,16.07 -0.09,12.54 0.21,25.55 -0.23,38.03 -0.77,22.16 -7.11,37.76 3.5,37.5l35.99 -9c4.53,-1.8 5.64,-1.15 10.39,-1.9l40.94 -10.09c5.24,-2.05 -1.13,-1.34 10.05,-2.78l61.32 -15.78c5.53,-1.03 5.2,0.61 9.79,-1.98 4.52,-2.57 5.93,-1.07 11.23,-2.24 1.75,-0.38 2.31,-1.05 4.14,-1.84l117.46 -29.26c5.69,-2.12 14.49,-2.33 20.17,-5.52 1.12,-8.4 -3.49,-45.59 2.41,-60.61 1.36,-3.46 0.84,-5.15 2.83,-8.43 2.3,-3.78 2.2,-1.27 1.61,-7.75 -3.21,-0.25 -30.11,5.93 -32.42,6.74 -1.39,0.49 -25.63,4.53 -33.54,7.02l-23.66 4.3c-4.1,0.65 -6.09,2.03 -9.92,2.63l-23.77 4.29c-5.09,1.04 -4.11,1.99 -11.15,2.59 -4.88,0.41 -7.16,1.38 -11.39,2.43l-23.82 4.39c-4.5,0.52 -7.7,1.36 -10.71,4.11zm-92.42 373.82c-9.9,0.04 -15.45,2.94 -21.01,4.13 -13.09,2.79 -49.22,13.18 -59.44,13.6l1.84 -82.35c7.12,-5.44 29.44,-7.07 36.15,-8.71 10.03,-2.44 27.74,-7.64 37.72,-5.99 5.84,0.95 7.4,1.06 12.44,-1.06l33.02 -10.95 71.04 -14.26c2.5,-1 1.69,-0.62 3.2,-2.05 -7.11,0.14 -29.73,4.42 -35.36,6.58 -4.34,1.66 -10.78,1.19 -16.97,3.3l-33.28 7.77c-7.4,2.22 -25.84,10.21 -31.75,8.86 -3.16,-0.72 -4.11,-2.17 -8.5,-1.9 -3.64,0.22 -5.2,1.82 -8.25,2.46 -3.1,0.65 -5.71,0.38 -8.93,1.33 -6.12,1.82 -18.99,4.87 -25.47,5.38 -7.93,0.62 -9.74,2.8 -16.71,3.42 -7.66,0.67 -10.7,1.74 -10.89,9.47 -0.25,10.2 -2.38,77.42 -0.56,80.72 2.17,2.33 6.24,-0.29 9.59,-0.8l40.86 -10c11.4,-1.62 5.37,-1.34 10.43,-2.79 4.03,-1.15 6.04,-0.84 10.49,-2.43 5.79,-2.07 7.2,-0.29 10.34,-3.73zm-160.77 2.6c-3.65,-3.26 -15.68,-5.45 -19.96,-6.87 -3.74,-1.23 -6.55,-0.98 -10.36,-2.63l-50.78 -14.47c-15.91,-3.52 -38.8,-11.92 -49.92,-14.16l-31.68 -8.72c-7.74,-2.08 -35.38,-8.84 -39.7,-12.03 -22.64,-16.76 -25.37,-89.93 -0.68,-95.5 10.42,-2.36 15.36,2.57 24.38,3.22 -0.81,-1.06 -1.36,-2.35 -4.54,-3.4 -2.74,-0.9 -13.82,-3.79 -16.53,-3.39 -8.29,1.23 -11.66,4.82 -16.1,11.51 -7.72,11.64 -8.53,45.37 -3.9,58.72 1.52,4.38 0.17,6.75 2.34,10.58 2.89,5.13 1.01,3.44 4.31,8.56 7.31,11.34 9.29,13.35 24.38,16.63 4.18,0.91 4.78,2.1 10.17,3.03 4.79,0.83 6.13,2.19 10.63,3.05 6.14,1.16 5.58,2.46 9.18,3.15 6.79,1.29 4.96,-0.52 10.84,2.5 4.95,2.54 2.79,-0.65 9.9,2.98l32.69 8.36c3.65,0.9 3.87,1.99 9.54,3.07 5.14,0.97 4.35,2.09 11.09,3.1l19.89 6.02c1.98,0.44 3.9,0.36 5.78,0.86 3.62,0.96 1.91,1.17 4,2.09l32.6 8.46c4.32,1.54 17.64,5.71 22.43,5.28zm285.39 -111.52c8.49,0.01 100.19,-21.32 121.15,-23.23 -0.55,12.55 -7.16,14.23 -5.98,51.78 0.17,5.35 1.97,14.72 1.41,18.54 -6.6,3.65 -44.96,11.17 -57.84,14.74l-18.94 6.58c11.61,-0.1 28.66,-6.99 40.2,-9.34 5.09,-1.03 5.62,-1.73 9.45,-2.76 4.02,-1.09 6.54,-0.31 10.41,-1.87 7.8,-3.14 11.55,-1.74 18.69,-6.2 0.8,-8.69 -4.95,-40.68 2.03,-57.39 1.35,-3.25 1.01,-4.93 2.15,-8.06 1.51,-4.15 2.8,-2.64 2.27,-9 -5.1,-0.95 -25.81,4.78 -31.72,5.53 -2.8,0.36 -5.9,0.18 -8.48,0.97 -3.6,1.11 -1.82,1.69 -7.09,2.2 -14.48,1.4 -8.05,1.78 -16,3.23 -2.99,0.55 -5.66,0.27 -8.51,1.11 -2.69,0.8 -2.98,1.8 -6.24,2.28 -3.04,0.46 -5.56,0.29 -8.65,1.01 -3.08,0.71 -4.41,1.61 -7.19,2.1l-15.07 3.21c-3.43,0.63 -8.67,0.4 -12.18,1.82 -4.65,1.88 -1.68,-0.27 -3.87,2.75z"/>
 </g>
</svg>
