<!-- Generated by IcoMoon.io -->
<svg version="1.1" xmlns="http://www.w3.org/2000/svg" width="32" height="32" viewBox="0 0 32 32">
<title>like</title>
<path fill="#aa1018" d="M11.677 17.571c-0.005 2.35-0.092 6.905 0.023 8.894 3.436 0.253 5.438 1.263 6.337 1.263l4.762-0.001c1.396-0 2.312-0.238 2.966-1.003 0.32-0.374 0.693-0.671 0.731-1.299 0.068-1.121-0.035-0.771 0.585-1.433 1.269-1.356 0.648-1.685 0.635-2.973-0.013-1.253 0.15-0.769 0.46-1.535 0.195-0.481-0.14-1.025-0.139-2.393 0.001-1.249 0.759-0.958 0.040-2.183-0.446-0.761-0.691-1.164-1.826-1.165-2.615-0.002-8.257 1.28-6.333-2.983 0.551-1.221 1.206-2.307 1.523-3.715 0.334-1.485-0.047-3.184-1.531-3.563-0.008 1.494-0.615 3.133-1.176 4.303-1.432 2.985-1.95 1.178-4.493 6.704-0.591 1.285-1.058 2.661-2.564 3.081z"></path>
<path fill="#aa1018" d="M3.633 16.854c0.346 2.059 0.741 6.808 0.926 8.814 0.23 2.497 0.074 2.835 2.049 2.822 4.68-0.032 3.52 1.295 3.592-11.041 0.013-2.305-0.893-1.861-2.995-1.861-0.783 0-1.731-0.049-2.493-0.002-0.687 0.043-1.208 0.502-1.079 1.269z"></path>
</svg>
