<?xml version="1.0" encoding="UTF-8"?>
<!DOCTYPE svg PUBLIC "-//W3C//DTD SVG 1.1//EN" "http://www.w3.org/Graphics/SVG/1.1/DTD/svg11.dtd">
<!-- Creator: CorelDRAW 2017 -->
<svg xmlns="http://www.w3.org/2000/svg" xml:space="preserve" width="215.9mm" height="279.4mm" version="1.1" style="shape-rendering:geometricPrecision; text-rendering:geometricPrecision; image-rendering:optimizeQuality; fill-rule:evenodd; clip-rule:evenodd"
viewBox="0 0 21590 27940"
 xmlns:xlink="http://www.w3.org/1999/xlink">
 <defs>
  <style type="text/css">
   <![CDATA[
    .str0 {stroke:#FEFEFE;stroke-width:7.62;stroke-miterlimit:22.9256}
    .fil5 {fill:#FEFEFE}
    .fil11 {fill:#EAEAEA}
    .fil12 {fill:#8ED3EC}
    .fil13 {fill:#8CC5D5}
    .fil9 {fill:#6A9AB0}
    .fil10 {fill:#547C8C}
    .fil0 {fill:#292929}
    .fil4 {fill:#0098DA}
    .fil1 {fill:#271C24}
    .fil2 {fill:#FEFEFE;fill-rule:nonzero}
    .fil7 {fill:#FEFEFE;fill-rule:nonzero}
    .fil3 {fill:#E6E7E8;fill-rule:nonzero}
    .fil8 {fill:#8ED3EC;fill-rule:nonzero}
    .fil6 {fill:#3E4095;fill-rule:nonzero}
   ]]>
  </style>
 </defs>
 <g id="Capa_x0020_1">
  <metadata id="CorelCorpID_0Corel-Layer"/>
  <rect class="fil0 str0" width="21590" height="27940"/>
  <polygon class="fil1" points="3465.47,23993.08 19299.3,22117.13 19324.51,22270.81 3490.68,24146.76 "/>
  <path class="fil2" d="M6836.21 26681.26l0 -676.41 239.74 0c240.23,0 360.35,109.81 360.35,329.75 0,105.3 -32.85,189.35 -98.38,252.31 -65.53,62.95 -152.8,94.35 -261.97,94.35l-239.74 0zm152.47 -552.43l0 428.77 75.52 0c66.01,0 117.7,-19.8 155.37,-59.41 37.52,-39.61 56.36,-93.55 56.36,-161.82 0,-64.4 -18.68,-115.12 -55.87,-151.99 -37.36,-37.03 -89.53,-55.55 -156.83,-55.55l-74.55 0zm1139.16 552.43l-166 0 -48.14 -150.55 -240.55 0 -47.66 150.55 -165.2 0 246.35 -676.41 180.65 0 240.55 676.41zm-249.08 -267.44l-72.62 -227.35c-5.31,-17.07 -9.18,-37.35 -11.43,-60.86l-3.7 0c-1.61,19.8 -5.48,39.45 -11.76,58.93l-73.58 229.28 173.09 0zm942.08 267.44l-153.77 0 -278.87 -425.07c-16.26,-24.8 -27.69,-43.47 -33.97,-56.03l-1.77 0c2.41,23.83 3.7,60.38 3.7,109.32l0 371.78 -143.94 0 0 -676.41 164.23 0 268.4 411.71c12.24,18.67 23.51,37.03 33.98,55.22l1.93 0c-2.58,-15.61 -3.86,-46.69 -3.86,-92.9l0 -374.03 143.94 0 0 676.41zm307.05 0l-152.47 0 0 -676.41 152.47 0 0 676.41zm559.35 0l-405.74 0 0 -676.41 390.13 0 0 123.98 -237.66 0 0 150.54 221.23 0 0 123.5 -221.23 0 0 154.73 253.27 0 0 123.66zm511.22 0l-402.85 0 0 -676.41 152.47 0 0 552.75 250.38 0 0 123.66zm703.29 -692.51l-53.3 209.48 -128.32 0 89.68 -209.48 91.94 0zm-196.27 0l-51.85 209.48 -129.78 0 89.2 -209.48 92.43 0zm732.59 692.51l-405.74 0 0 -676.41 390.13 0 0 123.98 -237.66 0 0 150.54 221.23 0 0 123.5 -221.23 0 0 154.73 253.27 0 0 123.66zm511.22 0l-402.85 0 0 -676.41 152.47 0 0 552.75 250.38 0 0 123.66zm509.91 -232.98l0 232.98 -152.47 0 0 -676.41 238.78 0c170.51,0 255.68,71.81 255.68,215.59 0,67.95 -24.47,122.86 -73.42,164.88 -48.95,41.86 -114.16,62.96 -195.95,62.96l-72.62 0zm0 -326.54l0 210.93 59.9 0c81.15,0 121.72,-35.58 121.72,-106.59 0,-69.56 -40.57,-104.34 -121.72,-104.34l-59.9 0zm593.49 559.52l-152.47 0 0 -676.41 152.47 0 0 676.41zm306.08 -232.98l0 232.98 -152.47 0 0 -676.41 238.78 0c170.51,0 255.68,71.81 255.68,215.59 0,67.95 -24.47,122.86 -73.42,164.88 -48.95,41.86 -114.16,62.96 -195.95,62.96l-72.62 0zm0 -326.54l0 210.93 59.9 0c81.15,0 121.72,-35.58 121.72,-106.59 0,-69.56 -40.57,-104.34 -121.72,-104.34l-59.9 0zm726.97 571.27c-96.93,0 -175.82,-31.55 -236.85,-94.51 -61.02,-63.12 -91.45,-145.23 -91.45,-246.51 0,-106.91 30.91,-193.37 92.9,-259.39 61.99,-66.01 143.95,-99.18 246.19,-99.18 96.61,0 174.7,31.72 234.27,94.83 59.58,63.28 89.36,146.69 89.36,250.06 0,106.26 -30.91,192.08 -92.74,257.13 -61.67,65.05 -142.33,97.57 -241.68,97.57zm6.6 -568.37c-53.45,0 -95.96,19.97 -127.36,60.22 -31.39,40.09 -47.17,93.07 -47.17,159.08 0,66.98 15.78,119.95 47.17,159.08 31.4,38.96 72.62,58.45 123.5,58.45 52.65,0 94.19,-19 125.11,-56.84 30.75,-38 46.21,-90.49 46.21,-157.79 0,-70.2 -14.98,-124.79 -44.77,-163.75 -29.94,-38.96 -70.84,-58.45 -122.69,-58.45zm794.43 -135.89l-89.68 209.48 -92.9 0 53.29 -209.48 129.29 0zm-195.79 0l-91.13 209.48 -91.46 0 53.78 -209.48 128.81 0z"/>
  <path class="fil3" d="M1612.98 23128.11c-20.68,2.46 -38.62,-2.08 -53.81,-13.63 -15.19,-11.55 -23.91,-26.72 -26.14,-45.52 -2.56,-21.62 2.79,-40.85 16.05,-57.67 13.25,-16.83 30.69,-26.52 52.32,-29.09 20.67,-2.45 38.38,2.13 53.1,13.73 14.72,11.59 23.26,27.27 25.6,47.01 2.45,20.68 -2.72,39.41 -15.5,56.18 -12.8,16.77 -30,26.43 -51.62,28.99zm-63.07 167.65l77.57 -9.2 -34.4 674.74 -118.45 14.05 75.28 -679.59zm429.71 -211.12c-20.68,2.45 -38.62,-2.09 -53.81,-13.64 -15.19,-11.54 -23.91,-26.72 -26.14,-45.52 -2.56,-21.61 2.79,-40.84 16.05,-57.67 13.25,-16.82 30.69,-26.52 52.32,-29.08 20.68,-2.45 38.38,2.13 53.11,13.72 14.71,11.6 23.25,27.27 25.59,47.02 2.45,20.68 -2.72,39.41 -15.5,56.17 -12.8,16.78 -30,26.44 -51.62,29zm-63.07 167.64l77.57 -9.19 -34.4 674.74 -118.45 14.05 75.28 -679.6zm1334.22 -301.2c12.59,106.24 0.45,206.83 -36.43,301.76 -36.89,94.94 -95.84,174.62 -176.87,239.05 -81.02,64.42 -178.71,104.84 -293.06,121.26l-15.09 186.26 -102.95 12.21 14.59 -190.5c-120.23,-1 -217.31,-33.81 -291.23,-98.45 -73.92,-64.65 -117.46,-152.43 -130.62,-263.36 -12.81,-108.12 -0.15,-210.43 37.97,-306.95 38.13,-96.52 99.17,-176.68 183.12,-240.5 83.95,-63.81 185.16,-102.75 303.61,-116.79 95.89,-11.37 180.19,-3.97 252.89,22.2 72.7,26.19 130.78,67.92 174.28,125.2 43.5,57.29 70.09,126.82 79.79,208.61zm-501.88 567.16c89.8,-14.46 166.78,-48.62 230.94,-102.45 64.17,-53.85 110.65,-120.14 139.45,-198.87 28.8,-78.73 38.01,-161.8 27.64,-249.24 -11.59,-97.76 -52.33,-172.06 -122.23,-222.87 -69.9,-50.83 -163.14,-69.33 -279.71,-55.51 -94.96,11.26 -176.45,43.57 -244.48,96.93 -68.03,53.34 -117.54,120.22 -148.52,200.64 -30.99,80.42 -41.18,165.28 -30.59,254.59 10.48,88.37 44.18,157.54 101.11,207.51 56.93,49.97 133.12,75.5 228.58,76.58l20.6 -248.41 97.3 -11.53 -20.09 252.63zm1472.86 -168.92c26.33,-3.12 49.33,-10.14 69.02,-21.05l1.4 84.2c-26.98,13.68 -57.4,22.54 -91.24,26.55 -49.82,5.91 -90.58,-2.13 -122.26,-24.11 -31.68,-21.99 -51.5,-54.44 -59.44,-97.34 -29.11,52.07 -67.67,92.63 -115.7,121.68 -48.05,29.05 -103.55,47.31 -166.54,54.78 -82.73,9.81 -149.89,-3.92 -201.5,-41.17 -51.62,-37.26 -81.93,-93.96 -90.96,-170.12 -3.12,-26.31 -3.59,-54.38 -1.41,-84.2l34.46 -433.08 100.12 -11.87 -34.45 433.08c-1.58,26.89 -1.31,49.26 0.81,67.11 6.47,54.53 27.17,94.5 62.12,119.91 34.95,25.4 83.91,34.38 146.9,26.91 78.97,-9.36 141.69,-39.2 188.16,-89.51 46.47,-50.33 73.61,-118.85 81.44,-205.57l31.65 -408.44 100.13 -11.87 -43.24 539.93c-1.03,15.38 -0.77,29.65 0.79,42.82 3.57,30.08 14.76,52.1 33.58,66.08 18.81,13.98 44.21,19.07 76.16,15.28zm513.02 -738.64c98.72,-11.71 180.53,6.95 245.45,55.98 64.91,49.03 103.45,124.78 115.6,227.25l2.44 32.6 -617.88 191.94c15.11,63.04 45.76,108.5 91.97,136.39 46.2,27.89 107.85,37.27 184.94,28.12 49.83,-5.9 94.91,-19.6 135.27,-41.06 40.35,-21.47 72.43,-48.39 96.24,-80.76l53.65 66.56c-30.66,38.9 -70.7,71.06 -120.11,96.47 -49.43,25.4 -103.76,41.61 -162.98,48.64 -107.17,12.7 -194.89,-5.5 -263.16,-54.6 -68.26,-49.1 -108.19,-122.54 -119.78,-220.32 -9.81,-82.73 -1.05,-159.55 26.29,-230.49 27.34,-70.92 70.01,-129.13 128.02,-174.61 58,-45.49 126.02,-72.86 204.04,-82.11zm7.21 84.94c-56.4,6.69 -105.37,25.84 -146.9,57.46 -41.54,31.62 -73.15,72.55 -94.84,122.79 -21.69,50.23 -31.26,106.18 -28.72,167.85l528.06 -165.57c-8.64,-64.75 -36.09,-113.46 -82.39,-146.11 -46.29,-32.63 -104.69,-44.78 -175.21,-36.42zm1314.12 -241.61c83.66,-9.92 151.3,3.75 202.9,41 51.61,37.27 81.87,93.49 90.79,168.71 3.12,26.31 3.64,54.85 1.57,85.61l-34.61 431.67 -100.12 11.87 34.45 -433.08c1.57,-26.88 1.25,-49.72 -0.98,-68.52 -6.35,-53.6 -27.45,-92.8 -63.28,-117.63 -35.83,-24.82 -85.25,-33.51 -148.23,-26.04 -79.91,9.48 -143.12,39.14 -189.65,88.98 -46.52,49.85 -73.65,118.61 -81.36,206.28l-31.82 407.02 -100.12 11.88 58.71 -759.14 95.89 -11.37 -9.93 121.29c60.7,-91.09 152.63,-143.93 275.79,-158.53zm867.86 662.14c-67.69,8.02 -128.45,2.12 -182.28,-17.71 -53.84,-19.83 -97.43,-51.85 -130.79,-96.03 -33.36,-44.19 -53.78,-97.78 -61.25,-160.77 -9.92,-83.66 -0.51,-161.05 28.24,-232.15 28.75,-71.09 73.54,-129.55 134.37,-175.37 60.82,-45.82 132.12,-73.58 213.91,-83.27 103.42,-12.27 188.79,6.21 256.11,55.43 67.32,49.21 106.67,121.76 118.04,217.66 9.92,83.67 0.53,161.29 -28.16,232.85 -28.69,71.56 -73.45,130.26 -134.27,176.08 -60.83,45.82 -132.14,73.58 -213.92,83.28zm-3.49 -89.67c61.11,-7.25 114.35,-28.58 159.73,-63.99 45.37,-35.4 78.77,-81.32 100.21,-137.72 21.44,-56.41 28.25,-117.51 20.45,-183.32 -8.58,-72.39 -36.69,-126.5 -84.31,-162.32 -47.63,-35.82 -109.98,-49.16 -187.07,-40.02 -61.11,7.24 -114.32,28.81 -159.64,64.69 -45.32,35.88 -78.7,82.02 -100.12,138.43 -21.44,56.39 -28.27,117.5 -20.46,183.31 8.58,72.39 36.66,126.26 84.23,161.62 47.57,35.34 109.89,48.46 186.98,39.32zm1036.52 -267.34c-1.09,23.01 -1.13,38.74 -0.13,47.2 7.81,65.81 47.43,94.49 118.88,86.02 42.3,-5.02 78.87,-22.23 109.7,-51.62l31.59 73.47c-38.51,36.98 -91.14,59.43 -157.89,67.34 -55.47,6.58 -101.19,-3.26 -137.2,-29.49 -36,-26.24 -57.12,-65.68 -63.37,-118.32 -2.45,-20.69 -2.85,-40.19 -1.21,-58.5l54.29 -699.98 100.12 -11.87 -13.21 166.02 225.63 -26.75 -6.9 86.61 -225.62 26.75 -34.68 443.12zm724.82 -616.46c98.72,-11.71 180.53,6.95 245.45,55.98 64.92,49.03 103.45,124.77 115.6,227.25l2.44 32.6 -617.88 191.94c15.11,63.04 45.76,108.5 91.97,136.39 46.2,27.89 107.85,37.26 184.94,28.12 49.83,-5.9 94.91,-19.6 135.27,-41.06 40.36,-21.47 72.43,-48.39 96.24,-80.76l53.65 66.56c-30.66,38.9 -70.7,71.06 -120.11,96.47 -49.43,25.4 -103.75,41.61 -162.98,48.63 -107.17,12.71 -194.89,-5.49 -263.16,-54.59 -68.26,-49.1 -108.19,-122.54 -119.78,-220.32 -9.81,-82.73 -1.05,-159.55 26.29,-230.49 27.34,-70.92 70.01,-129.13 128.02,-174.62 58,-45.48 126.02,-72.85 204.04,-82.1zm7.21 84.94c-56.4,6.69 -105.37,25.84 -146.9,57.46 -41.54,31.62 -73.15,72.54 -94.83,122.79 -21.7,50.23 -31.27,106.18 -28.73,167.85l528.06 -165.57c-8.64,-64.75 -36.09,-113.46 -82.39,-146.11 -46.29,-32.63 -104.69,-44.78 -175.21,-36.42zm1587.43 266.51c-1.3,21.13 -1.46,35.92 -0.46,44.4 3.57,30.07 14.73,51.87 33.49,65.38 18.76,13.5 44.13,18.36 76.09,14.57 26.32,-3.12 49.33,-10.14 69.01,-21.05l1.4 84.2c-26.97,13.68 -57.39,22.53 -91.24,26.54 -47.94,5.69 -88.14,-1.7 -120.6,-22.16 -32.45,-20.46 -53.54,-51.56 -63.25,-93.31 -30.61,47.47 -69.66,85.95 -117.16,115.42 -47.51,29.47 -102.29,47.87 -164.34,55.23 -62.99,7.47 -120.43,1.41 -172.32,-18.18 -51.89,-19.58 -94.29,-51.5 -127.18,-95.74 -32.89,-44.24 -53.13,-98.32 -60.71,-162.26 -9.92,-83.66 -0.74,-161.02 27.54,-232.06 28.28,-71.04 72.12,-129.39 131.54,-175.04 59.41,-45.65 128.6,-73.16 207.57,-82.52 70.51,-8.36 131.12,-1.72 181.83,19.91 50.71,21.63 89.94,57.02 117.69,106.16l38.72 -469.34 100.13 -11.87 -67.75 851.72zm-366.44 177.88c61.11,-7.25 114.35,-28.58 159.73,-63.99 45.37,-35.4 78.77,-81.32 100.21,-137.72 21.44,-56.41 28.25,-117.51 20.45,-183.32 -8.59,-72.39 -36.69,-126.5 -84.31,-162.32 -47.63,-35.82 -109.99,-49.16 -187.08,-40.02 -61.1,7.24 -114.31,28.81 -159.63,64.69 -45.32,35.88 -78.7,82.02 -100.13,138.43 -21.43,56.4 -28.26,117.5 -20.45,183.31 8.58,72.4 36.66,126.26 84.23,161.62 47.56,35.34 109.89,48.46 186.98,39.32zm985.75 -791.84c98.72,-11.7 180.53,6.95 245.45,55.98 64.92,49.03 103.45,124.78 115.6,227.25l2.44 32.6 -617.88 191.95c15.11,63.04 45.77,108.49 91.97,136.39 46.21,27.88 107.85,37.26 184.94,28.12 49.83,-5.91 94.91,-19.61 135.27,-41.07 40.36,-21.47 72.43,-48.39 96.24,-80.76l53.66 66.56c-30.67,38.91 -70.71,71.06 -120.12,96.47 -49.42,25.4 -103.75,41.61 -162.98,48.64 -107.17,12.7 -194.89,-5.49 -263.16,-54.6 -68.25,-49.1 -108.19,-122.54 -119.78,-220.32 -9.81,-82.73 -1.05,-159.55 26.29,-230.49 27.34,-70.92 70.01,-129.13 128.02,-174.61 58,-45.49 126.02,-72.86 204.04,-82.11zm7.22 84.94c-56.41,6.69 -105.38,25.84 -146.91,57.46 -41.54,31.62 -73.15,72.55 -94.83,122.79 -21.7,50.23 -31.27,106.18 -28.73,167.85l528.06 -165.57c-8.64,-64.75 -36.09,-113.46 -82.39,-146.1 -46.29,-32.64 -104.69,-44.79 -175.2,-36.43zm1208.34 -229.07c98.72,-11.7 180.52,6.95 245.45,55.98 64.91,49.03 103.45,124.78 115.6,227.25l2.43 32.6 -617.87 191.95c15.11,63.04 45.76,108.49 91.97,136.39 46.2,27.88 107.84,37.26 184.93,28.12 49.83,-5.91 94.92,-19.6 135.28,-41.07 40.35,-21.47 72.43,-48.39 96.24,-80.76l53.65 66.57c-30.66,38.9 -70.7,71.06 -120.12,96.46 -49.42,25.41 -103.75,41.62 -162.97,48.64 -107.17,12.71 -194.9,-5.49 -263.16,-54.6 -68.26,-49.1 -108.19,-122.54 -119.79,-220.31 -9.81,-82.73 -1.04,-159.56 26.3,-230.49 27.34,-70.93 70.01,-129.14 128.02,-174.62 57.99,-45.49 126.02,-72.86 204.04,-82.11zm7.21 84.94c-56.4,6.69 -105.37,25.84 -146.91,57.46 -41.53,31.62 -73.14,72.55 -94.83,122.79 -21.69,50.23 -31.26,106.18 -28.72,167.85l528.05 -165.57c-8.63,-64.75 -36.09,-113.46 -82.38,-146.1 -46.3,-32.64 -104.69,-44.79 -175.21,-36.43zm729.51 592.75c-53.59,6.35 -96.9,-3.05 -129.91,-28.21 -33.01,-25.17 -52.53,-63.12 -58.54,-113.89 -2.34,-19.74 -2.69,-38.77 -1.05,-57.08l68.83 -854.71 100.12 -11.87 -67.75 851.72c-1.31,21.13 -1.46,35.92 -0.45,44.39 3.56,30.08 14.73,51.88 33.49,65.38 18.76,13.51 44.12,18.37 76.08,14.57 26.33,-3.12 49.32,-10.13 69,-21.05l1.41 84.2c-26.98,13.69 -57.39,22.54 -91.23,26.55zm1566.07 -950.73c83.67,-9.92 150.78,3.33 201.34,39.76 50.55,36.43 80.29,92.25 89.21,167.46 2.56,21.62 2.73,51.15 0.49,88.6l-34.61 431.67 -100.13 11.87 34.46 -433.08c2.13,-22.19 1.75,-45.49 -1.14,-69.93 -6.25,-52.65 -26.58,-91.47 -61.01,-116.47 -34.42,-24.99 -81.71,-33.92 -141.88,-26.79 -75.21,8.92 -135.25,37.25 -180.11,84.99 -44.87,47.74 -70.92,113.52 -78.14,197.31l-33.3 418.64 -100.12 11.88 34.45 -433.08c1.58,-26.89 1.25,-49.73 -0.98,-68.53 -6.35,-53.59 -26.5,-92.9 -60.46,-117.96 -33.95,-25.04 -81.48,-33.95 -142.58,-26.7 -76.16,9.03 -136.56,38.35 -181.19,87.97 -44.64,49.62 -70.83,118.27 -78.54,205.94l-31.83 407.03 -100.12 11.87 58.72 -759.13 95.89 -11.37 -9.93 121.29c57.88,-90.75 146.52,-143.21 265.91,-157.36 62.05,-7.36 115.49,-0.83 160.33,19.6 44.85,20.42 78.1,53.65 99.77,99.7 30.86,-53.23 71.38,-95.45 121.55,-126.66 50.15,-31.21 108.14,-50.72 173.95,-58.52zm1337.11 519.27c26.33,-3.12 49.33,-10.14 69.01,-21.05l1.41 84.2c-26.98,13.68 -57.39,22.54 -91.24,26.55 -49.82,5.91 -90.55,-1.89 -122.18,-23.41 -31.62,-21.51 -51.88,-53.67 -60.77,-96.46 -29.55,48.3 -68.73,87.75 -117.53,118.32 -48.81,30.57 -104.24,49.54 -166.28,56.89 -62.99,7.47 -120.43,1.41 -172.32,-18.17 -51.9,-19.59 -94.29,-51.51 -127.19,-95.74 -32.89,-44.25 -53.13,-98.33 -60.71,-162.26 -9.92,-83.67 -0.73,-161.03 27.54,-232.07 28.28,-71.04 72.13,-129.38 131.55,-175.04 59.4,-45.65 128.6,-73.16 207.56,-82.52 70.52,-8.36 131.39,-1.52 182.62,20.53 51.23,22.05 90.73,57.65 118.48,106.78l12.63 -158.79 100.13 -11.87 -43.24 539.93c-1.04,15.38 -0.77,29.65 0.79,42.82 3.56,30.08 14.76,52.1 33.57,66.09 18.82,13.97 44.22,19.06 76.17,15.27zm-476.96 53.7c61.11,-7.25 114.35,-28.58 159.72,-63.98 45.37,-35.41 78.78,-81.33 100.21,-137.73 21.44,-56.41 28.25,-117.51 20.45,-183.32 -8.58,-72.39 -36.69,-126.49 -84.31,-162.32 -47.63,-35.82 -109.98,-49.16 -187.07,-40.02 -61.1,7.25 -114.31,28.81 -159.64,64.69 -45.32,35.88 -78.69,82.02 -100.12,138.43 -21.44,56.4 -28.26,117.5 -20.46,183.31 8.58,72.4 36.66,126.27 84.24,161.62 47.56,35.35 109.89,48.46 186.98,39.32zm890.48 -15.5c-53.59,6.35 -96.9,-3.05 -129.91,-28.21 -33.01,-25.17 -52.53,-63.12 -58.55,-113.89 -2.34,-19.74 -2.68,-38.77 -1.05,-57.08l68.83 -854.71 100.12 -11.87 -67.74 851.72c-1.31,21.13 -1.46,35.92 -0.46,44.39 3.57,30.08 14.73,51.88 33.49,65.38 18.76,13.51 44.12,18.36 76.09,14.57 26.32,-3.12 49.32,-10.13 69,-21.05l1.4 84.2c-26.97,13.68 -57.38,22.54 -91.22,26.55zm1283.29 -911.48l-388.68 798.26 -102.94 12.2 -271.28 -720.01 100.12 -11.87 228.79 614.94 329.64 -681.15 104.35 -12.37zm139.61 -16.56l100.12 -11.87 -58.71 759.14 -100.12 11.87 58.71 -759.14zm73.84 -173.21c-19.74,2.35 -36.74,-2.31 -50.99,-13.97 -14.25,-11.65 -22.44,-26.41 -24.55,-44.28 -2.57,-21.61 2.57,-40.58 15.42,-56.88 12.84,-16.29 30.54,-25.78 53.1,-28.46 19.75,-2.34 36.95,2.06 51.62,13.19 14.66,11.13 23,25.15 25,42.07 2.68,22.57 -2.61,42.27 -15.87,59.08 -13.26,16.83 -31.17,26.58 -53.73,29.25zm1051.08 711.93c26.32,-3.12 49.33,-10.14 69.01,-21.05l1.4 84.2c-26.97,13.68 -57.38,22.53 -91.24,26.54 -49.82,5.91 -90.55,-1.89 -122.17,-23.4 -31.63,-21.52 -51.88,-53.68 -60.77,-96.47 -29.55,48.31 -68.73,87.75 -117.53,118.32 -48.81,30.57 -104.24,49.54 -166.29,56.9 -62.99,7.47 -120.43,1.41 -172.32,-18.18 -51.89,-19.59 -94.29,-51.51 -127.18,-95.74 -32.89,-44.24 -53.13,-98.33 -60.71,-162.26 -9.92,-83.66 -0.74,-161.02 27.54,-232.07 28.28,-71.03 72.12,-129.38 131.54,-175.03 59.41,-45.66 128.6,-73.16 207.57,-82.53 70.51,-8.36 131.38,-1.52 182.62,20.53 51.23,22.05 90.72,57.65 118.47,106.79l12.63 -158.8 100.13 -11.87 -43.23 539.94c-1.04,15.38 -0.78,29.65 0.78,42.81 3.57,30.08 14.76,52.11 33.58,66.09 18.81,13.97 44.21,19.07 76.17,15.28zm-476.97 53.69c61.11,-7.24 114.35,-28.57 159.73,-63.98 45.37,-35.41 78.77,-81.32 100.21,-137.73 21.44,-56.4 28.25,-117.5 20.45,-183.31 -8.59,-72.39 -36.69,-126.5 -84.31,-162.32 -47.63,-35.82 -109.99,-49.16 -187.08,-40.02 -61.1,7.24 -114.31,28.81 -159.63,64.68 -45.32,35.89 -78.7,82.03 -100.13,138.43 -21.43,56.4 -28.26,117.51 -20.45,183.32 8.58,72.39 36.66,126.26 84.23,161.61 47.56,35.35 109.89,48.46 186.98,39.32zm563.33 300.71c-31.97,3.79 -61.82,3.28 -89.57,-1.53 -27.74,-4.82 -51.89,-13.63 -72.48,-26.44l37.33 -83.08c31.23,22.04 69.86,30.33 115.93,24.87 40.43,-4.79 71.52,-19.92 93.28,-45.39 21.77,-25.46 34.45,-63.19 38.06,-113.19l65.05 -814.22 100.12 -11.87 -64.72 817.04c-12.35,153.05 -86.69,237.65 -223,253.81zm259.86 -1233.43c-19.74,2.34 -36.73,-2.31 -50.99,-13.98 -14.25,-11.65 -22.43,-26.41 -24.55,-44.27 -2.56,-21.62 2.57,-40.59 15.42,-56.89 12.84,-16.29 30.55,-25.78 53.11,-28.46 19.74,-2.34 36.95,2.06 51.61,13.19 14.66,11.13 23,25.16 25.01,42.08 2.67,22.56 -2.61,42.26 -15.88,59.08 -13.26,16.83 -31.16,26.57 -53.73,29.25zm563.05 93.4c98.72,-11.7 180.52,6.95 245.45,55.98 64.91,49.03 103.45,124.78 115.6,227.25l2.43 32.6 -617.87 191.95c15.1,63.04 45.76,108.49 91.97,136.39 46.2,27.88 107.84,37.26 184.93,28.12 49.83,-5.91 94.92,-19.61 135.28,-41.07 40.35,-21.47 72.43,-48.39 96.24,-80.76l53.65 66.56c-30.66,38.91 -70.7,71.06 -120.12,96.47 -49.42,25.4 -103.75,41.61 -162.97,48.64 -107.17,12.7 -194.9,-5.49 -263.16,-54.6 -68.26,-49.1 -108.19,-122.54 -119.79,-220.32 -9.81,-82.73 -1.04,-159.55 26.3,-230.49 27.34,-70.92 70.01,-129.13 128.02,-174.61 57.99,-45.49 126.02,-72.86 204.04,-82.11zm7.21 84.94c-56.4,6.69 -105.37,25.84 -146.91,57.46 -41.53,31.62 -73.14,72.55 -94.83,122.79 -21.69,50.23 -31.26,106.18 -28.72,167.85l528.05 -165.57c-8.63,-64.75 -36.09,-113.46 -82.38,-146.1 -46.3,-32.64 -104.69,-44.79 -175.21,-36.43zm587.66 -398.57l118.45 -14.05 -76.01 709.71 -77.56 9.19 35.12 -704.85zm-9.05 1009.21c-19.74,2.34 -37.47,-2.46 -53.18,-14.43 -15.72,-11.96 -24.7,-27.34 -26.92,-46.14 -2.57,-21.63 2.58,-40.58 15.42,-56.88 12.85,-16.31 30.08,-25.73 51.69,-28.29 20.69,-2.46 38.63,2.08 53.81,13.64 15.2,11.54 23.92,26.71 26.15,45.51 2.56,21.62 -2.56,40.82 -15.35,57.59 -12.78,16.77 -29.99,26.44 -51.62,29zm375.69 -1052.69l118.45 -14.04 -76 709.7 -77.57 9.2 35.12 -704.86zm-9.04 1009.22c-19.75,2.34 -37.47,-2.47 -53.19,-14.43 -15.72,-11.96 -24.69,-27.34 -26.92,-46.14 -2.57,-21.63 2.58,-40.59 15.42,-56.88 12.85,-16.31 30.08,-25.73 51.7,-28.3 20.68,-2.45 38.62,2.09 53.81,13.64 15.19,11.54 23.91,26.71 26.14,45.52 2.56,21.62 -2.55,40.82 -15.35,57.59 -12.78,16.77 -29.98,26.43 -51.61,29z"/>
  <polygon class="fil4" points="3521.55,24211.92 19355.38,22335.97 19380.59,22489.65 3546.76,24365.6 "/>
  <path class="fil5" d="M2018.74 1531.85l17855.49 0c295.88,0 537.96,242.08 537.96,537.96l0 537.98c0,295.88 -242.08,537.96 -537.96,537.96l-17855.49 0c-295.88,0 -537.96,-242.08 -537.96,-537.96l0 -537.98c0,-295.88 242.08,-537.96 537.96,-537.96z"/>
  <path class="fil6" d="M2068.75 2659.17l-77.48 0 0 -715.35 77.48 0 0 715.35zm358.57 11.28c-71.36,0 -128.38,-22.56 -171.07,-67.66 -42.52,-45.1 -63.95,-105.02 -63.95,-179.6 0,-81.18 22.23,-144.49 66.53,-190.23 44.46,-45.59 104.38,-68.3 179.92,-68.3 72,0 128.22,22.07 168.65,66.52 40.43,44.3 60.57,105.83 60.57,184.44 0,77.16 -21.75,138.85 -65.24,185.24 -43.65,46.39 -102.12,69.59 -175.41,69.59zm5.63 -440.71c-49.61,0 -88.91,16.91 -117.91,50.73 -28.99,33.83 -43.49,80.38 -43.49,139.98 0,57.18 14.66,102.29 43.98,135.31 29.31,33.02 68.46,49.61 117.42,49.61 50.1,0 88.6,-16.27 115.5,-48.65 26.9,-32.37 40.27,-78.44 40.27,-138.2 0,-60.41 -13.37,-106.96 -40.27,-139.66 -26.9,-32.86 -65.4,-49.12 -115.5,-49.12zm1036.06 651.72l-77.48 0 0 -305.41 -1.77 0c-33.67,62.99 -88.76,94.4 -165.27,94.4 -60.73,0 -109.37,-21.59 -145.94,-64.92 -36.72,-43.17 -55.09,-102.12 -55.09,-176.7 0,-80.22 20.14,-144.33 60.41,-192.33 40.27,-47.84 94.39,-71.84 162.36,-71.84 66.05,0 113.89,26.09 143.53,78.28l1.77 0 0 -67 77.48 0 0 705.52zm-77.48 -439.91l0 -70.23c0,-39.62 -12.89,-73.13 -38.82,-100.51 -25.94,-27.38 -58.96,-41.07 -98.9,-41.07 -46.56,0 -83.44,17.23 -110.5,51.7 -27.07,34.47 -40.6,82.96 -40.6,145.62 0,55.57 13.21,99.22 39.31,130.95 26.09,31.57 59.76,47.36 100.99,47.36 45.27,0 81.35,-15.46 108.25,-46.55 26.9,-30.93 40.27,-70.07 40.27,-117.27zm624.82 217.62l-77.32 0 0 -76.51 -1.93 0c-32.06,58.63 -81.83,87.79 -149.16,87.79 -115.17,0 -172.67,-68.46 -172.67,-205.7l0 -288.81 76.83 0 0 276.57c0,101.96 39.14,152.86 117.1,152.86 37.7,0 68.78,-13.85 93.27,-41.72 24.32,-27.87 36.56,-64.27 36.56,-109.37l0 -278.34 77.32 0 0 483.23zm544.6 -222.29l-341.16 0c1.29,53.8 15.79,95.36 43.49,124.68 27.71,29.15 65.72,43.81 114.21,43.81 54.44,0 104.37,-17.88 150.12,-53.8l0 72.65c-42.52,30.92 -98.74,46.23 -168.49,46.23 -68.29,0 -121.93,-21.91 -160.91,-65.72 -39.15,-43.98 -58.64,-105.67 -58.64,-185.24 0,-75.23 21.43,-136.44 63.95,-183.79 42.69,-47.36 95.68,-71.04 158.82,-71.04 63.31,0 112.11,20.46 146.75,61.37 34.63,40.75 51.86,97.61 51.86,170.26l0 40.59zm-79.25 -65.56c-0.32,-44.62 -11.11,-79.41 -32.21,-104.38 -21.26,-24.8 -50.74,-37.2 -88.6,-37.2 -36.4,0 -67.49,13.04 -92.94,39.14 -25.45,26.09 -41.23,60.24 -47.19,102.44l260.94 0zm1147.36 287.85l-77.32 0 0 -277.54c0,-53.48 -8.38,-92.13 -24.81,-115.97 -16.59,-24.01 -44.29,-35.92 -83.27,-35.92 -33.02,0 -61.21,15.14 -84.25,45.26 -23.19,30.28 -34.79,66.36 -34.79,108.56l0 275.61 -77.32 0 0 -286.88c0,-95.04 -36.72,-142.55 -110.01,-142.55 -33.99,0 -61.86,14.17 -83.93,42.68 -22.06,28.51 -33.02,65.56 -33.02,111.14l0 275.61 -77.48 0 0 -483.23 77.48 0 0 76.51 1.94 0c34.14,-58.64 84.24,-87.79 149.96,-87.79 33.02,0 61.85,9.18 86.34,27.54 24.64,18.37 41.39,42.53 50.58,72.49 35.76,-66.69 89.23,-100.03 160.43,-100.03 106.31,0 159.47,65.56 159.47,196.68l0 297.83zm534.61 -222.29l-341.16 0c1.29,53.8 15.79,95.36 43.49,124.68 27.71,29.15 65.72,43.81 114.21,43.81 54.44,0 104.37,-17.88 150.12,-53.8l0 72.65c-42.52,30.92 -98.74,46.23 -168.49,46.23 -68.29,0 -121.93,-21.91 -160.91,-65.72 -39.15,-43.98 -58.64,-105.67 -58.64,-185.24 0,-75.23 21.43,-136.44 63.95,-183.79 42.69,-47.36 95.68,-71.04 158.82,-71.04 63.31,0 112.11,20.46 146.75,61.37 34.63,40.75 51.86,97.61 51.86,170.26l0 40.59zm-79.25 -65.56c-0.32,-44.62 -11.11,-79.41 -32.21,-104.38 -21.26,-24.8 -50.74,-37.2 -88.6,-37.2 -36.4,0 -67.49,13.04 -92.94,39.14 -25.45,26.09 -41.23,60.24 -47.19,102.44l260.94 0zm862.41 287.85l-77.48 0 0 -278.5c0,-100.68 -37.37,-150.93 -112.27,-150.93 -37.69,0 -69.59,14.49 -95.36,43.65 -25.77,29.15 -38.66,66.52 -38.66,112.11l0 273.67 -77.48 0 0 -715.35 77.48 0 0 312.33 1.94 0c37.04,-61.05 89.88,-91.49 158.5,-91.49 108.89,0 163.33,65.56 163.33,196.68l0 297.83zm536.55 0l-77.32 0 0 -76.51 -1.93 0c-32.06,58.63 -81.83,87.79 -149.16,87.79 -115.17,0 -172.67,-68.46 -172.67,-205.7l0 -288.81 76.83 0 0 276.57c0,101.96 39.14,152.86 117.1,152.86 37.7,0 68.78,-13.85 93.27,-41.72 24.32,-27.87 36.56,-64.27 36.56,-109.37l0 -278.34 77.32 0 0 483.23zm235.66 -69.91l-1.94 0 0 69.91 -77.48 0 0 -715.35 77.48 0 0 317 1.94 0c38.01,-64.11 93.74,-96.16 167.03,-96.16 61.86,0 110.5,21.58 145.46,64.91 35.11,43.17 52.67,101.16 52.67,173.81 0,80.86 -19.65,145.61 -58.95,194.26 -39.31,48.48 -93.11,72.81 -161.4,72.81 -63.95,0 -112.12,-27.07 -144.81,-81.19zm-1.94 -194.9l0 67.49c0,39.95 12.89,73.93 38.98,101.8 25.94,27.87 58.8,41.72 98.74,41.72 46.88,0 83.6,-17.88 110.18,-53.8 26.58,-35.92 39.95,-85.69 39.95,-149.64 0,-53.8 -12.4,-95.84 -37.37,-126.45 -24.81,-30.44 -58.47,-45.74 -100.84,-45.74 -45.1,0 -81.18,15.62 -108.56,46.87 -27.39,31.41 -41.08,70.55 -41.08,117.75zm530.27 -341.17c-13.69,0 -25.61,-4.67 -35.28,-14.17 -9.82,-9.34 -14.65,-21.26 -14.65,-35.76 0,-14.5 4.83,-26.58 14.65,-36.08 9.67,-9.67 21.59,-14.5 35.28,-14.5 14.17,0 26.26,4.83 36.24,14.5 9.83,9.5 14.82,21.58 14.82,36.08 0,13.85 -4.99,25.61 -14.82,35.28 -9.98,9.82 -22.07,14.65 -36.24,14.65zm37.85 605.98l-77.48 0 0 -483.23 77.48 0 0 483.23zm544.93 -222.29l-341.16 0c1.29,53.8 15.79,95.36 43.49,124.68 27.71,29.15 65.72,43.81 114.21,43.81 54.44,0 104.37,-17.88 150.12,-53.8l0 72.65c-42.52,30.92 -98.74,46.23 -168.49,46.23 -68.29,0 -121.93,-21.91 -160.91,-65.72 -39.15,-43.98 -58.64,-105.67 -58.64,-185.24 0,-75.23 21.43,-136.44 63.95,-183.79 42.69,-47.36 95.68,-71.04 158.82,-71.04 63.31,0 112.11,20.46 146.75,61.37 34.63,40.75 51.86,97.61 51.86,170.26l0 40.59zm-79.25 -65.56c-0.32,-44.62 -11.11,-79.41 -32.21,-104.38 -21.26,-24.8 -50.74,-37.2 -88.6,-37.2 -36.4,0 -67.49,13.04 -92.94,39.14 -25.45,26.09 -41.23,60.24 -47.19,102.44l260.94 0zm448.44 -117.1c-13.53,-10.31 -33.02,-15.46 -58.47,-15.46 -33.18,0 -60.73,15.46 -82.96,46.71 -22.06,31.09 -33.18,73.61 -33.18,127.41l0 246.29 -77.48 0 0 -483.23 77.48 0 0 99.54 1.94 0c10.95,-33.99 27.7,-60.4 50.41,-79.57 22.72,-19.01 48,-28.51 76.03,-28.51 20.14,0 35.44,2.25 46.23,6.6l0 80.22zm429.92 404.95l-77.48 0 0 -75.55 -1.77 0c-33.67,57.99 -83.28,86.83 -148.68,86.83 -48.16,0 -85.85,-12.73 -113.07,-38.18 -27.22,-25.45 -40.76,-59.28 -40.76,-101.48 0,-90.2 53.16,-142.88 159.47,-157.53l144.81 -20.3c0,-82.15 -33.18,-123.22 -99.54,-123.22 -58.15,0 -110.67,19.81 -157.54,59.43l0 -79.25c47.52,-30.28 102.12,-45.26 164.14,-45.26 113.56,0 170.42,60.08 170.42,180.25l0 314.26zm-77.48 -244.52l-116.46 16.11c-35.92,4.99 -62.98,13.85 -81.18,26.74 -18.2,12.73 -27.38,35.28 -27.38,67.65 0,23.52 8.37,42.85 25.28,57.83 16.76,14.98 39.15,22.39 67.17,22.39 38.34,0 70.07,-13.53 95.04,-40.27 25.13,-26.9 37.53,-61.05 37.53,-102.28l0 -48.17zm900.59 205.86c0,177.35 -84.89,266.1 -254.83,266.1 -59.76,0 -111.95,-11.27 -156.73,-33.98l0 -77.32c54.45,30.12 106.31,45.26 155.76,45.26 118.88,0 178.32,-63.3 178.32,-189.75l0 -52.83 -1.77 0c-36.89,61.69 -92.3,92.46 -166.24,92.46 -60.08,0 -108.4,-21.43 -144.97,-64.44 -36.72,-42.84 -55.09,-100.51 -55.09,-172.83 0,-82.15 19.82,-147.39 59.28,-195.87 39.46,-48.49 93.59,-72.65 162.04,-72.65 65.24,0 113.4,26.09 144.98,78.28l1.77 0 0 -67 77.48 0 0 444.57zm-77.48 -179.76l0 -71.36c0,-38.34 -12.89,-71.2 -38.82,-98.58 -25.94,-27.38 -58.31,-41.07 -96.97,-41.07 -47.84,0 -85.37,17.39 -112.43,52.18 -27.07,34.8 -40.6,83.44 -40.6,145.94 0,53.8 13.05,96.81 38.98,129.19 25.94,32.21 60.41,48.32 103.09,48.32 43.5,0 78.77,-15.46 105.99,-46.23 27.23,-30.93 40.76,-70.39 40.76,-118.39zm624.82 218.42l-77.32 0 0 -76.51 -1.93 0c-32.06,58.63 -81.83,87.79 -149.16,87.79 -115.17,0 -172.67,-68.46 -172.67,-205.7l0 -288.81 76.83 0 0 276.57c0,101.96 39.14,152.86 117.1,152.86 37.7,0 68.78,-13.85 93.27,-41.72 24.32,-27.87 36.56,-64.27 36.56,-109.37l0 -278.34 77.32 0 0 483.23zm127.09 -17.4l0 -83.11c42.04,31.09 88.59,46.71 139.17,46.71 67.98,0 101.96,-22.71 101.96,-67.98 0,-12.88 -2.9,-23.83 -8.7,-32.69 -5.95,-9.02 -13.69,-16.92 -23.67,-23.84 -9.83,-6.93 -21.59,-13.21 -34.96,-18.69 -13.37,-5.48 -27.7,-11.27 -43.17,-17.23 -21.42,-8.54 -40.11,-17.08 -56.37,-25.78 -16.11,-8.53 -29.64,-18.36 -40.6,-29.15 -10.79,-10.96 -19,-23.2 -24.48,-37.05 -5.48,-13.85 -8.21,-30.12 -8.21,-48.65 0,-22.71 5.15,-42.68 15.46,-60.24 10.47,-17.4 24.32,-32.05 41.56,-43.81 17.39,-11.76 37.05,-20.78 59.27,-26.74 22.07,-5.96 45.11,-8.86 68.62,-8.86 41.88,0 79.25,7.25 112.27,21.58l0 78.45c-35.43,-23.36 -76.35,-34.95 -122.58,-34.95 -14.49,0 -27.54,1.61 -39.3,4.99 -11.6,3.22 -21.58,7.89 -29.96,13.85 -8.21,5.96 -14.66,13.21 -19.33,21.42 -4.51,8.38 -6.76,17.56 -6.76,27.71 0,12.56 2.25,23.03 6.76,31.57 4.67,8.54 11.28,16.11 20.14,22.71 8.69,6.61 19.49,12.57 32.05,17.88 12.56,5.32 26.9,11.12 43.01,17.4 21.26,8.21 40.59,16.59 57.5,25.29 16.92,8.7 31.41,18.36 43.49,29.32 11.92,10.79 21.11,23.35 27.55,37.53 6.44,14.17 9.66,30.92 9.66,50.41 0,24 -5.31,44.78 -15.78,62.34 -10.63,17.56 -24.65,32.22 -42.2,43.81 -17.72,11.76 -38.02,20.3 -60.89,26.1 -23.04,5.64 -47.04,8.38 -72.33,8.38 -49.61,0 -92.78,-9.51 -129.18,-28.68zm663.49 12.73c-18.21,9.99 -42.37,14.98 -72.17,14.98 -84.73,0 -126.93,-47.2 -126.93,-141.59l0 -285.91 -83.11 0 0 -66.04 83.11 0 0 -117.91 77.32 -25.13 0 143.04 121.78 0 0 66.04 -121.78 0 0 272.38c0,32.38 5.48,55.41 16.59,69.26 10.95,13.86 29.16,20.78 54.77,20.78 19.49,0 36.24,-5.31 50.42,-16.1l0 66.2zm449.24 4.67l-77.48 0 0 -75.55 -1.77 0c-33.67,57.99 -83.28,86.83 -148.68,86.83 -48.16,0 -85.85,-12.73 -113.07,-38.18 -27.22,-25.45 -40.76,-59.28 -40.76,-101.48 0,-90.2 53.16,-142.88 159.47,-157.53l144.81 -20.3c0,-82.15 -33.18,-123.22 -99.54,-123.22 -58.15,0 -110.67,19.81 -157.54,59.43l0 -79.25c47.52,-30.28 102.12,-45.26 164.14,-45.26 113.56,0 170.42,60.08 170.42,180.25l0 314.26zm-77.48 -244.52l-116.46 16.11c-35.92,4.99 -62.98,13.85 -81.18,26.74 -18.2,12.73 -27.38,35.28 -27.38,67.65 0,23.52 8.37,42.85 25.28,57.83 16.76,14.98 39.15,22.39 67.17,22.39 38.34,0 70.07,-13.53 95.04,-40.27 25.13,-26.9 37.53,-61.05 37.53,-102.28l0 -48.17zm635.78 244.52l-77.48 0 0 -82.15 -1.77 0c-35.93,62.34 -91.34,93.43 -166.24,93.43 -60.56,0 -109.21,-21.59 -145.45,-64.92 -36.41,-43.17 -54.61,-102.12 -54.61,-176.7 0,-79.9 20.14,-143.84 60.41,-192.01 40.27,-48.16 93.91,-72.16 160.91,-72.16 66.37,0 114.69,26.09 144.98,78.28l1.77 0 0 -299.12 77.48 0 0 715.35zm-77.48 -218.42l0 -71.36c0,-38.98 -12.89,-72 -38.66,-99.06 -25.77,-27.06 -58.47,-40.59 -98.1,-40.59 -47.19,0 -84.4,17.23 -111.46,51.86 -27.07,34.63 -40.6,82.47 -40.6,143.52 0,55.74 13.05,99.55 38.98,131.93 25.94,32.21 60.89,48.32 104.54,48.32 43.17,0 78.13,-15.62 105.03,-46.71 26.9,-31.09 40.27,-70.56 40.27,-117.91zm436.04 229.7c-71.36,0 -128.38,-22.56 -171.07,-67.66 -42.52,-45.1 -63.95,-105.02 -63.95,-179.6 0,-81.18 22.23,-144.49 66.53,-190.23 44.46,-45.59 104.38,-68.3 179.92,-68.3 72,0 128.22,22.07 168.65,66.52 40.43,44.3 60.57,105.83 60.57,184.44 0,77.16 -21.75,138.85 -65.24,185.24 -43.65,46.39 -102.12,69.59 -175.41,69.59zm5.63 -440.71c-49.61,0 -88.91,16.91 -117.91,50.73 -28.99,33.83 -43.49,80.38 -43.49,139.98 0,57.18 14.66,102.29 43.98,135.31 29.31,33.02 68.46,49.61 117.42,49.61 50.1,0 88.6,-16.27 115.5,-48.65 26.9,-32.37 40.27,-78.44 40.27,-138.2 0,-60.41 -13.37,-106.96 -40.27,-139.66 -26.9,-32.86 -65.4,-49.12 -115.5,-49.12zm594.38 412.03l0 -83.11c42.04,31.09 88.59,46.71 139.17,46.71 67.98,0 101.96,-22.71 101.96,-67.98 0,-12.88 -2.9,-23.83 -8.7,-32.69 -5.95,-9.02 -13.69,-16.92 -23.67,-23.84 -9.83,-6.93 -21.59,-13.21 -34.96,-18.69 -13.37,-5.48 -27.7,-11.27 -43.17,-17.23 -21.42,-8.54 -40.11,-17.08 -56.37,-25.78 -16.11,-8.53 -29.64,-18.36 -40.6,-29.15 -10.79,-10.96 -19,-23.2 -24.48,-37.05 -5.48,-13.85 -8.21,-30.12 -8.21,-48.65 0,-22.71 5.15,-42.68 15.46,-60.24 10.47,-17.4 24.32,-32.05 41.56,-43.81 17.39,-11.76 37.05,-20.78 59.27,-26.74 22.07,-5.96 45.11,-8.86 68.62,-8.86 41.88,0 79.25,7.25 112.27,21.58l0 78.45c-35.43,-23.36 -76.35,-34.95 -122.58,-34.95 -14.49,0 -27.54,1.61 -39.3,4.99 -11.6,3.22 -21.58,7.89 -29.96,13.85 -8.21,5.96 -14.66,13.21 -19.33,21.42 -4.51,8.38 -6.76,17.56 -6.76,27.71 0,12.56 2.25,23.03 6.76,31.57 4.67,8.54 11.28,16.11 20.14,22.71 8.69,6.61 19.49,12.57 32.05,17.88 12.56,5.32 26.9,11.12 43.01,17.4 21.26,8.21 40.59,16.59 57.5,25.29 16.92,8.7 31.41,18.36 43.49,29.32 11.92,10.79 21.11,23.35 27.55,37.53 6.44,14.17 9.66,30.92 9.66,50.41 0,24 -5.31,44.78 -15.78,62.34 -10.63,17.56 -24.65,32.22 -42.2,43.81 -17.72,11.76 -38.02,20.3 -60.89,26.1 -23.04,5.64 -47.04,8.38 -72.33,8.38 -49.61,0 -92.78,-9.51 -129.18,-28.68zm785.26 17.4l-77.48 0 0 -75.55 -1.77 0c-33.67,57.99 -83.28,86.83 -148.68,86.83 -48.16,0 -85.85,-12.73 -113.07,-38.18 -27.22,-25.45 -40.76,-59.28 -40.76,-101.48 0,-90.2 53.16,-142.88 159.47,-157.53l144.81 -20.3c0,-82.15 -33.18,-123.22 -99.54,-123.22 -58.15,0 -110.67,19.81 -157.54,59.43l0 -79.25c47.52,-30.28 102.12,-45.26 164.14,-45.26 113.56,0 170.42,60.08 170.42,180.25l0 314.26zm-77.48 -244.52l-116.46 16.11c-35.92,4.99 -62.98,13.85 -81.18,26.74 -18.2,12.73 -27.38,35.28 -27.38,67.65 0,23.52 8.37,42.85 25.28,57.83 16.76,14.98 39.15,22.39 67.17,22.39 38.34,0 70.07,-13.53 95.04,-40.27 25.13,-26.9 37.53,-61.05 37.53,-102.28l0 -48.17zm302.67 174.61l-1.94 0 0 69.91 -77.48 0 0 -715.35 77.48 0 0 317 1.94 0c38.01,-64.11 93.74,-96.16 167.03,-96.16 61.86,0 110.5,21.58 145.46,64.91 35.11,43.17 52.67,101.16 52.67,173.81 0,80.86 -19.65,145.61 -58.95,194.26 -39.31,48.48 -93.11,72.81 -161.4,72.81 -63.95,0 -112.12,-27.07 -144.81,-81.19zm-1.94 -194.9l0 67.49c0,39.95 12.89,73.93 38.98,101.8 25.94,27.87 58.8,41.72 98.74,41.72 46.88,0 83.6,-17.88 110.18,-53.8 26.58,-35.92 39.95,-85.69 39.95,-149.64 0,-53.8 -12.4,-95.84 -37.37,-126.45 -24.81,-30.44 -58.47,-45.74 -100.84,-45.74 -45.1,0 -81.18,15.62 -108.56,46.87 -27.39,31.41 -41.08,70.55 -41.08,117.75zm879 42.52l-341.16 0c1.29,53.8 15.79,95.36 43.49,124.68 27.71,29.15 65.72,43.81 114.21,43.81 54.44,0 104.37,-17.88 150.12,-53.8l0 72.65c-42.52,30.92 -98.74,46.23 -168.49,46.23 -68.29,0 -121.93,-21.91 -160.91,-65.72 -39.15,-43.98 -58.64,-105.67 -58.64,-185.24 0,-75.23 21.43,-136.44 63.95,-183.79 42.69,-47.36 95.68,-71.04 158.82,-71.04 63.31,0 112.11,20.46 146.75,61.37 34.63,40.75 51.86,97.61 51.86,170.26l0 40.59zm-79.25 -65.56c-0.32,-44.62 -11.11,-79.41 -32.21,-104.38 -21.26,-24.8 -50.74,-37.2 -88.6,-37.2 -36.4,0 -67.49,13.04 -92.94,39.14 -25.45,26.09 -41.23,60.24 -47.19,102.44l260.94 0zm448.44 -117.1c-13.53,-10.31 -33.02,-15.46 -58.47,-15.46 -33.18,0 -60.73,15.46 -82.96,46.71 -22.06,31.09 -33.18,73.61 -33.18,127.41l0 246.29 -77.48 0 0 -483.23 77.48 0 0 99.54 1.94 0c10.95,-33.99 27.7,-60.4 50.41,-79.57 22.72,-19.01 48,-28.51 76.03,-28.51 20.14,0 35.44,2.25 46.23,6.6l0 80.22zm694.73 404.95l-77.48 0 0 -75.55 -1.77 0c-33.67,57.99 -83.28,86.83 -148.68,86.83 -48.16,0 -85.85,-12.73 -113.07,-38.18 -27.22,-25.45 -40.76,-59.28 -40.76,-101.48 0,-90.2 53.16,-142.88 159.47,-157.53l144.81 -20.3c0,-82.15 -33.18,-123.22 -99.54,-123.22 -58.15,0 -110.67,19.81 -157.54,59.43l0 -79.25c47.52,-30.28 102.12,-45.26 164.14,-45.26 113.56,0 170.42,60.08 170.42,180.25l0 314.26zm-77.48 -244.52l-116.46 16.11c-35.92,4.99 -62.98,13.85 -81.18,26.74 -18.2,12.73 -27.38,35.28 -27.38,67.65 0,23.52 8.37,42.85 25.28,57.83 16.76,14.98 39.15,22.39 67.17,22.39 38.34,0 70.07,-13.53 95.04,-40.27 25.13,-26.9 37.53,-61.05 37.53,-102.28l0 -48.17zm624.5 244.52l-77.48 0 0 -275.61c0,-102.6 -37.37,-153.82 -112.27,-153.82 -38.66,0 -70.71,14.49 -96,43.65 -25.45,29.15 -38.02,65.88 -38.02,110.17l0 275.61 -77.48 0 0 -483.23 77.48 0 0 80.21 1.94 0c36.4,-61.05 89.23,-91.49 158.5,-91.49 52.83,0 93.26,17.07 121.29,51.22 28.03,33.99 42.04,83.44 42.04,147.87l0 295.42zm370 -4.67c-18.21,9.99 -42.37,14.98 -72.17,14.98 -84.73,0 -126.93,-47.2 -126.93,-141.59l0 -285.91 -83.11 0 0 -66.04 83.11 0 0 -117.91 77.32 -25.13 0 143.04 121.78 0 0 66.04 -121.78 0 0 272.38c0,32.38 5.48,55.41 16.59,69.26 10.95,13.86 29.16,20.78 54.77,20.78 19.49,0 36.24,-5.31 50.42,-16.1l0 66.2zm484.03 -217.62l-341.16 0c1.29,53.8 15.79,95.36 43.49,124.68 27.71,29.15 65.72,43.81 114.21,43.81 54.44,0 104.37,-17.88 150.12,-53.8l0 72.65c-42.52,30.92 -98.74,46.23 -168.49,46.23 -68.29,0 -121.93,-21.91 -160.91,-65.72 -39.15,-43.98 -58.64,-105.67 -58.64,-185.24 0,-75.23 21.43,-136.44 63.95,-183.79 42.69,-47.36 95.68,-71.04 158.82,-71.04 63.31,0 112.11,20.46 146.75,61.37 34.63,40.75 51.86,97.61 51.86,170.26l0 40.59zm-79.25 -65.56c-0.32,-44.62 -11.11,-79.41 -32.21,-104.38 -21.26,-24.8 -50.74,-37.2 -88.6,-37.2 -36.4,0 -67.49,13.04 -92.94,39.14 -25.45,26.09 -41.23,60.24 -47.19,102.44l260.94 0zm167.2 270.45l0 -83.11c42.04,31.09 88.59,46.71 139.17,46.71 67.98,0 101.96,-22.71 101.96,-67.98 0,-12.88 -2.9,-23.83 -8.7,-32.69 -5.95,-9.02 -13.69,-16.92 -23.67,-23.84 -9.83,-6.93 -21.59,-13.21 -34.96,-18.69 -13.37,-5.48 -27.7,-11.27 -43.17,-17.23 -21.42,-8.54 -40.11,-17.08 -56.37,-25.78 -16.11,-8.53 -29.64,-18.36 -40.6,-29.15 -10.79,-10.96 -19,-23.2 -24.48,-37.05 -5.48,-13.85 -8.21,-30.12 -8.21,-48.65 0,-22.71 5.15,-42.68 15.46,-60.24 10.47,-17.4 24.32,-32.05 41.56,-43.81 17.39,-11.76 37.05,-20.78 59.27,-26.74 22.07,-5.96 45.11,-8.86 68.62,-8.86 41.88,0 79.25,7.25 112.27,21.58l0 78.45c-35.43,-23.36 -76.35,-34.95 -122.58,-34.95 -14.49,0 -27.54,1.61 -39.3,4.99 -11.6,3.22 -21.58,7.89 -29.96,13.85 -8.21,5.96 -14.66,13.21 -19.33,21.42 -4.51,8.38 -6.76,17.56 -6.76,27.71 0,12.56 2.25,23.03 6.76,31.57 4.67,8.54 11.28,16.11 20.14,22.71 8.69,6.61 19.49,12.57 32.05,17.88 12.56,5.32 26.9,11.12 43.01,17.4 21.26,8.21 40.59,16.59 57.5,25.29 16.92,8.7 31.41,18.36 43.49,29.32 11.92,10.79 21.11,23.35 27.55,37.53 6.44,14.17 9.66,30.92 9.66,50.41 0,24 -5.31,44.78 -15.78,62.34 -10.63,17.56 -24.65,32.22 -42.2,43.81 -17.72,11.76 -38.02,20.3 -60.89,26.1 -23.04,5.64 -47.04,8.38 -72.33,8.38 -49.61,0 -92.78,-9.51 -129.18,-28.68zm1116.6 17.4l-77.48 0 0 -82.15 -1.77 0c-35.93,62.34 -91.34,93.43 -166.24,93.43 -60.56,0 -109.21,-21.59 -145.45,-64.92 -36.41,-43.17 -54.61,-102.12 -54.61,-176.7 0,-79.9 20.14,-143.84 60.41,-192.01 40.27,-48.16 93.91,-72.16 160.91,-72.16 66.37,0 114.69,26.09 144.98,78.28l1.77 0 0 -299.12 77.48 0 0 715.35zm-77.48 -218.42l0 -71.36c0,-38.98 -12.89,-72 -38.66,-99.06 -25.77,-27.06 -58.47,-40.59 -98.1,-40.59 -47.19,0 -84.4,17.23 -111.46,51.86 -27.07,34.63 -40.6,82.47 -40.6,143.52 0,55.74 13.05,99.55 38.98,131.93 25.94,32.21 60.89,48.32 104.54,48.32 43.17,0 78.13,-15.62 105.03,-46.71 26.9,-31.09 40.27,-70.56 40.27,-117.91zm622.4 -3.87l-341.16 0c1.29,53.8 15.79,95.36 43.49,124.68 27.71,29.15 65.72,43.81 114.21,43.81 54.44,0 104.37,-17.88 150.12,-53.8l0 72.65c-42.52,30.92 -98.74,46.23 -168.49,46.23 -68.29,0 -121.93,-21.91 -160.91,-65.72 -39.15,-43.98 -58.64,-105.67 -58.64,-185.24 0,-75.23 21.43,-136.44 63.95,-183.79 42.69,-47.36 95.68,-71.04 158.82,-71.04 63.31,0 112.11,20.46 146.75,61.37 34.63,40.75 51.86,97.61 51.86,170.26l0 40.59zm-79.25 -65.56c-0.32,-44.62 -11.11,-79.41 -32.21,-104.38 -21.26,-24.8 -50.74,-37.2 -88.6,-37.2 -36.4,0 -67.49,13.04 -92.94,39.14 -25.45,26.09 -41.23,60.24 -47.19,102.44l260.94 0z"/>
  <path class="fil7" d="M2304.1 6980.77l0 564.41 675.62 0 0 272.48 -675.62 0 0 781.28 -378.13 0 0 -1890.64 1164.97 0 0 272.47 -786.84 0zm1735.23 1657.1c-266.91,0 -471.73,-69.05 -614.46,-207.14 -142.72,-138.09 -214.09,-325.77 -214.09,-563.02l0 -1159.41 378.13 0 0 1156.62c0,164.97 38.46,288.7 115.39,371.18 76.92,82.49 188.6,123.73 335.03,123.73 144.58,0 255.33,-41.24 332.25,-123.73 76.93,-82.48 115.39,-206.21 115.39,-371.18l0 -1156.62 378.13 0 0 1153.84c0,239.12 -70.9,428.18 -212.7,567.2 -141.8,139.02 -346.16,208.53 -613.07,208.53zm3100.39 -1929.57l0 1890.64 -369.79 0 0 -581.1 25.02 -725.67 -486.56 772.94 -278.04 0 -492.12 -784.06 30.58 736.79 0 581.1 -369.78 0 0 -1890.64 350.32 0 620.02 970.34 620.02 -970.34 350.33 0zm1582.3 1620.95l0 269.69 -1220.57 0 0 -1890.64 1164.97 0 0 269.69 -786.84 0 0 486.56 675.62 0 0 269.7 -675.62 0 0 595 842.44 0zm731.52 308.62c-263.21,0 -481,-51.91 -653.38,-155.71l91.75 -264.13c92.68,48.19 183.5,83.87 272.47,107.04 88.98,23.17 183.51,34.76 283.6,34.76 113.07,0 207.6,-23.17 283.6,-69.51 75.99,-46.34 113.99,-113.07 113.99,-200.19 0,-53.75 -18.07,-99.63 -54.22,-137.62 -36.14,-38 -81.09,-69.51 -134.84,-94.54 -53.76,-25.02 -127.9,-54.21 -222.43,-87.58 -122.34,-44.48 -221.04,-85.73 -296.11,-123.72 -75.07,-38 -139.48,-90.83 -193.23,-158.48 -53.76,-67.66 -80.64,-153.39 -80.64,-257.19 0,-176.09 65.34,-312.79 196.02,-410.1 130.68,-97.31 303.52,-145.97 518.54,-145.97 215.01,0 404.08,50.05 567.19,150.14l-91.75 261.35c-153.85,-88.97 -308.62,-133.45 -464.32,-133.45 -103.8,0 -189.07,22.24 -255.79,66.73 -66.73,44.48 -100.1,107.5 -100.1,189.06 0,48.19 17.15,89.9 51.44,125.12 34.29,35.21 76.92,64.41 127.9,87.58 50.97,23.17 122.8,52.36 215.47,87.58 126.05,46.34 227.99,89.43 305.84,129.29 77.85,39.85 144.58,94.53 200.19,164.04 55.61,69.51 83.41,158.01 83.41,265.52 0,177.94 -67.66,317.43 -202.97,418.45 -135.31,101.02 -322.52,151.53 -561.63,151.53zm2394.18 -1929.57c203.89,0 378.13,40.77 522.71,122.33 144.58,81.56 253.47,193.7 326.69,336.42 73.22,142.73 109.82,303.99 109.82,483.79 0,183.5 -36.6,347.08 -109.82,490.73 -73.22,143.65 -181.65,255.79 -325.3,336.42 -143.65,80.63 -318.35,120.95 -524.1,120.95l-722.89 0 0 -1890.64 722.89 0zm0 1618.16c183.5,0 326.23,-60.7 428.18,-182.11 101.94,-121.41 152.92,-284.99 152.92,-490.73 0,-202.04 -50.98,-364.69 -152.92,-487.96 -101.95,-123.26 -244.68,-184.89 -428.18,-184.89l-344.76 0 0 1345.69 344.76 0zm2402.51 2.79l0 269.69 -1220.57 0 0 -1890.64 1164.97 0 0 269.69 -786.84 0 0 486.56 675.62 0 0 269.7 -675.62 0 0 595 842.44 0zm1790.84 305.83c-218.72,0 -403.62,-44.94 -554.68,-134.84 -151.07,-89.9 -264.14,-209.46 -339.21,-358.67 -75.07,-149.21 -112.6,-312.79 -112.6,-490.73 0,-176.09 39.39,-338.28 118.16,-486.57 78.78,-148.28 196.02,-266.91 351.72,-355.88 155.7,-88.97 343.84,-133.46 564.41,-133.46 116.78,0 226.6,15.76 329.47,47.27 102.88,31.51 191.39,75.07 265.53,130.67l-100.09 258.58c-63.03,-46.34 -136.71,-84.34 -221.04,-114 -84.34,-29.65 -175.63,-44.48 -273.87,-44.48 -137.16,0 -255.33,30.58 -354.49,91.75 -99.17,61.17 -174.24,145.04 -225.21,251.62 -50.98,106.58 -76.46,225.67 -76.46,357.28 0,135.31 24.09,256.25 72.29,362.83 48.19,106.59 119.55,190.46 214.08,251.63 94.54,61.17 208.53,91.75 341.99,91.75 107.51,0 207.6,-18.07 300.28,-54.22 92.68,-36.14 174.23,-81.09 244.67,-134.85l94.53 253.02c-79.7,61.17 -175.16,111.68 -286.38,151.53 -111.21,39.85 -228.91,59.77 -353.1,59.77zm1537.83 -800.74l-308.62 0 0 764.6 -378.13 0 0 -1890.64 695.09 0c478.22,0 717.33,181.65 717.33,544.95 0,266.91 -116.78,438.37 -350.33,514.36l569.98 831.33 -436.52 0 -508.8 -764.6zm-308.62 -269.69l316.96 0c116.77,0 202.5,-24.1 257.18,-72.29 54.68,-48.2 82.02,-121.41 82.02,-219.65 0,-196.48 -113.07,-294.72 -339.2,-294.72l-316.96 0 0 586.66zm1404.37 -856.35l378.13 0 0 1890.64 -378.13 0 0 -1890.64zm1240.32 1929.57c-263.21,0 -481,-51.91 -653.38,-155.71l91.75 -264.13c92.68,48.19 183.5,83.87 272.47,107.04 88.98,23.17 183.51,34.76 283.6,34.76 113.07,0 207.6,-23.17 283.6,-69.51 75.99,-46.34 113.99,-113.07 113.99,-200.19 0,-53.75 -18.07,-99.63 -54.22,-137.62 -36.14,-38 -81.09,-69.51 -134.84,-94.54 -53.76,-25.02 -127.9,-54.21 -222.43,-87.58 -122.34,-44.48 -221.04,-85.73 -296.11,-123.72 -75.07,-38 -139.48,-90.83 -193.23,-158.48 -53.76,-67.66 -80.64,-153.39 -80.64,-257.19 0,-176.09 65.34,-312.79 196.02,-410.1 130.68,-97.31 303.52,-145.97 518.54,-145.97 215.01,0 404.08,50.05 567.19,150.14l-91.75 261.35c-153.85,-88.97 -308.62,-133.45 -464.32,-133.45 -103.8,0 -189.07,22.24 -255.79,66.73 -66.73,44.48 -100.1,107.5 -100.1,189.06 0,48.19 17.15,89.9 51.44,125.12 34.29,35.21 76.92,64.41 127.9,87.58 50.97,23.17 122.8,52.36 215.47,87.58 126.05,46.34 227.99,89.43 305.84,129.29 77.85,39.85 144.58,94.53 200.19,164.04 55.61,69.51 83.41,158.01 83.41,265.52 0,177.94 -67.66,317.43 -202.97,418.45 -135.31,101.02 -322.52,151.53 -561.63,151.53z"/>
  <path class="fil8" d="M5494.76 5206.11c107.74,0 182.08,28.28 223.03,84.85 40.94,56.56 61.41,138.17 61.41,244.84l0 585.03 -213.33 0 0 -560.79c0,-71.11 -9.96,-121.21 -29.9,-150.3 -19.93,-29.09 -55.21,-43.63 -105.85,-43.63 -67.88,0 -138.45,27.47 -211.71,82.42l0 672.3 -213.33 0 0 -1292.89 213.33 0 0 468.67c94.81,-60.33 186.93,-90.5 276.35,-90.5zm1187.89 908.26c-47.4,14 -96.42,21.54 -147.06,22.62 -47.41,0 -87,-8.08 -118.79,-24.24 -31.78,-16.16 -54.14,-43.64 -67.07,-82.42 -47.4,35.55 -93.73,62.49 -138.98,80.8 -45.25,18.32 -93.2,27.48 -143.83,27.48 -71.11,0 -129.29,-20.74 -174.54,-62.22 -45.26,-41.48 -67.88,-92.93 -67.88,-154.34 0,-61.41 16.16,-111.51 48.48,-150.3 32.32,-38.79 77.31,-70.03 134.95,-93.73 57.64,-23.71 139.25,-50.64 244.84,-80.81l84.04 -24.24 0 -35.56c0,-54.94 -11.59,-97.23 -34.75,-126.86 -23.16,-29.63 -58.45,-44.44 -105.86,-44.44 -49.56,0 -98.31,10.23 -146.25,30.7 -47.95,20.47 -102.63,56.57 -164.04,108.28l-56.56 -140.6c134.67,-105.59 276.89,-158.38 426.65,-158.38 98.04,0 171.58,26.13 220.6,78.38 49.02,52.26 73.53,140.34 73.53,264.24l0 365.24c0,23.7 4.31,40.67 12.93,50.91 8.62,10.23 23.17,15.35 43.64,15.35 20.47,0 42.01,-4.31 64.64,-12.93l11.31 147.07zm-644.82 -216.56c0,56.02 31.24,84.03 93.73,84.03 31.24,0 63.03,-7 95.35,-21 32.32,-14.01 68.95,-35.02 109.9,-63.03l0 -200.4 -58.18 19.39c-91.58,30.17 -154.61,58.18 -189.09,84.04 -34.48,25.86 -51.71,58.18 -51.71,96.97zm1089.31 -691.7c77.57,0 146.25,17.51 206.05,52.53 59.8,35.01 106.39,87 139.79,155.95 33.4,68.95 50.1,152.45 50.1,250.5 0,106.66 -19.39,195.82 -58.18,267.46 -38.78,71.65 -90.77,124.71 -155.95,159.19 -65.19,34.48 -138.18,51.72 -218.98,51.72 -84.04,0 -161.62,-25.32 -232.72,-75.96l-24.25 53.33 -148.68 0 0 -1292.89 213.33 0 0 447.66c70.03,-46.32 146.53,-69.49 229.49,-69.49zm-59.8 780.58c159.46,0 239.18,-107.2 239.18,-321.6 0,-107.74 -19.12,-185.05 -57.37,-231.91 -38.25,-46.87 -85.92,-70.31 -143.02,-70.31 -40.95,0 -77.31,5.12 -109.09,15.36 -31.78,10.23 -64.91,27.2 -99.39,50.9l0 510.7c52.79,31.24 109.35,46.86 169.69,46.86zm888.92 1.62c51.71,0 99.39,-10.24 143.02,-30.71 43.64,-20.47 88.62,-50.1 134.95,-88.88l64.64 134.13c-51.71,47.41 -104.78,82.96 -159.18,106.67 -54.41,23.7 -116.09,35.55 -185.05,35.55 -99.12,0 -182.08,-20.74 -248.88,-62.22 -66.8,-41.48 -116.63,-97.5 -149.49,-168.07 -32.86,-70.57 -49.29,-150.03 -49.29,-238.38 0,-90.5 16.7,-171.04 50.1,-241.61 33.4,-70.57 83.5,-126.32 150.3,-167.27 66.8,-40.94 149.22,-61.41 247.26,-61.41 110.97,0 197.97,30.98 261,92.93 63.03,61.95 95.08,148.95 96.16,261 0,35.55 -5.92,75.42 -17.78,119.59l-576.95 0c1.08,99.12 21.01,175.35 59.8,228.68 38.79,53.33 98.58,80 179.39,80zm-11.32 -636.75c-57.1,0 -103.43,16.43 -138.98,49.29 -35.56,32.86 -60.34,77.85 -74.34,134.95l371.7 0 0 -19.4c0,-52.79 -14.81,-93.46 -44.44,-122.01 -29.63,-28.55 -67.61,-42.83 -113.94,-42.83zm937.4 58.18c-52.79,0 -102.62,5.66 -149.49,16.97 -46.87,11.31 -97.77,33.13 -152.72,65.45l0 628.67 -213.33 0 0 -890.48 160 0 35.55 109.9c53.87,-48.48 106.66,-82.69 158.38,-102.62 51.72,-19.94 105.59,-29.9 161.61,-29.9l0 202.01zm33.99 -581.8l213.33 0 0 1292.89 -213.33 0 0 -1292.89zm717.61 1160.37c51.71,0 99.39,-10.24 143.02,-30.71 43.64,-20.47 88.62,-50.1 134.95,-88.88l64.64 134.13c-51.71,47.41 -104.78,82.96 -159.18,106.67 -54.41,23.7 -116.09,35.55 -185.05,35.55 -99.12,0 -182.08,-20.74 -248.88,-62.22 -66.8,-41.48 -116.63,-97.5 -149.49,-168.07 -32.86,-70.57 -49.29,-150.03 -49.29,-238.38 0,-90.5 16.7,-171.04 50.1,-241.61 33.4,-70.57 83.5,-126.32 150.3,-167.27 66.8,-40.94 149.22,-61.41 247.26,-61.41 110.97,0 197.97,30.98 261,92.93 63.03,61.95 95.08,148.95 96.16,261 0,35.55 -5.92,75.42 -17.78,119.59l-576.95 0c1.08,99.12 21.01,175.35 59.8,228.68 38.79,53.33 98.58,80 179.39,80zm-11.32 -636.75c-57.1,0 -103.43,16.43 -138.98,49.29 -35.56,32.86 -60.34,77.85 -74.34,134.95l371.7 0 0 -19.4c0,-52.79 -14.81,-93.46 -44.44,-122.01 -29.63,-28.55 -67.61,-42.83 -113.94,-42.83zm1593.54 -523.62l0 1292.89 -159.99 0 -22.63 -67.88c-75.42,61.42 -161.61,92.12 -258.57,92.12 -77.58,0 -146.26,-17.78 -206.06,-53.33 -59.79,-35.55 -106.39,-87.81 -139.79,-156.76 -33.4,-68.96 -50.1,-152.46 -50.1,-250.5 0,-163.77 44.17,-284.44 132.52,-362.01 88.35,-77.57 205.78,-116.36 352.31,-116.36 51.72,0 98.05,5.93 138.99,17.78l0 -395.95 213.32 0zm-620.58 856.54c0,107.74 18.85,185.04 56.56,231.91 37.71,46.87 85.66,70.3 143.84,70.3 40.94,0 77.3,-5.38 109.08,-16.16 31.79,-10.77 64.38,-27.47 97.78,-50.1l0 -539.78c-37.71,-11.85 -80.27,-17.78 -127.68,-17.78 -94.81,0 -165.11,27.75 -210.9,83.23 -45.79,55.49 -68.68,134.95 -68.68,238.38zm1533.74 429.89c-47.4,14 -96.42,21.54 -147.06,22.62 -47.41,0 -87,-8.08 -118.79,-24.24 -31.78,-16.16 -54.14,-43.64 -67.07,-82.42 -47.4,35.55 -93.73,62.49 -138.98,80.8 -45.25,18.32 -93.2,27.48 -143.83,27.48 -71.11,0 -129.29,-20.74 -174.54,-62.22 -45.26,-41.48 -67.88,-92.93 -67.88,-154.34 0,-61.41 16.16,-111.51 48.48,-150.3 32.32,-38.79 77.31,-70.03 134.95,-93.73 57.64,-23.71 139.25,-50.64 244.84,-80.81l84.04 -24.24 0 -35.56c0,-54.94 -11.59,-97.23 -34.75,-126.86 -23.16,-29.63 -58.45,-44.44 -105.86,-44.44 -49.56,0 -98.31,10.23 -146.25,30.7 -47.95,20.47 -102.63,56.57 -164.04,108.28l-56.56 -140.6c134.67,-105.59 276.89,-158.38 426.65,-158.38 98.04,0 171.58,26.13 220.6,78.38 49.02,52.26 73.53,140.34 73.53,264.24l0 365.24c0,23.7 4.31,40.67 12.93,50.91 8.62,10.23 23.17,15.35 43.64,15.35 20.47,0 42.01,-4.31 64.64,-12.93l11.31 147.07zm-644.82 -216.56c0,56.02 31.24,84.03 93.73,84.03 31.24,0 63.03,-7 95.35,-21 32.32,-14.01 68.95,-35.02 109.9,-63.03l0 -200.4 -58.18 19.39c-91.58,30.17 -154.61,58.18 -189.09,84.04 -34.48,25.86 -51.71,58.18 -51.71,96.97zm1414.14 -1069.87l0 1292.89 -159.99 0 -22.63 -67.88c-75.42,61.42 -161.61,92.12 -258.57,92.12 -77.58,0 -146.26,-17.78 -206.06,-53.33 -59.79,-35.55 -106.39,-87.81 -139.79,-156.76 -33.4,-68.96 -50.1,-152.46 -50.1,-250.5 0,-163.77 44.17,-284.44 132.52,-362.01 88.35,-77.57 205.78,-116.36 352.31,-116.36 51.72,0 98.05,5.93 138.99,17.78l0 -395.95 213.32 0zm-620.58 856.54c0,107.74 18.85,185.04 56.56,231.91 37.71,46.87 85.66,70.3 143.84,70.3 40.94,0 77.3,-5.38 109.08,-16.16 31.79,-10.77 64.38,-27.47 97.78,-50.1l0 -539.78c-37.71,-11.85 -80.27,-17.78 -127.68,-17.78 -94.81,0 -165.11,27.75 -210.9,83.23 -45.79,55.49 -68.68,134.95 -68.68,238.38zm1124.87 460.59c-96.97,0 -179.39,-20.74 -247.27,-62.22 -67.87,-41.48 -118.51,-97.5 -151.91,-168.07 -33.4,-70.57 -50.1,-150.03 -50.1,-238.38 0,-90.5 16.7,-171.04 50.1,-241.61 33.4,-70.57 83.77,-126.32 151.1,-167.27 67.34,-40.94 150.03,-61.41 248.08,-61.41 96.96,0 179.12,21.28 246.45,63.84 67.34,42.56 117.98,99.39 151.92,170.5 33.94,71.11 50.91,148.68 50.91,232.72 0,85.11 -16.97,163.49 -50.91,235.14 -33.94,71.65 -84.58,129.02 -151.92,172.12 -67.33,43.09 -149.49,64.64 -246.45,64.64zm-1.62 -156.76c78.65,0 137.1,-27.21 175.35,-81.61 38.25,-54.41 57.37,-131.72 57.37,-231.92 0,-99.12 -19.39,-175.88 -58.18,-230.29 -38.79,-54.41 -96.97,-81.62 -174.54,-81.62 -77.57,0 -135.75,27.21 -174.54,81.62 -38.79,54.41 -58.18,131.17 -58.18,230.29 0,100.2 19.13,177.51 57.37,231.92 38.25,54.4 96.7,81.61 175.35,81.61zm1674.35 -757.96l0 890.48 -160 0 -25.85 -82.42c-103.44,71.11 -204.71,106.66 -303.83,106.66 -107.74,0 -182.09,-28.28 -223.03,-84.84 -40.94,-56.57 -61.41,-138.18 -61.41,-244.84l0 -585.04 213.33 0 0 560.79c0,71.11 9.69,121.21 29.09,150.3 19.39,29.09 54.95,43.64 106.66,43.64 66.8,0 137.37,-28.02 211.71,-84.04l0 -670.69 213.33 0zm612.55 -24.24c107.74,0 181.82,28.28 222.22,84.85 40.4,56.56 60.6,138.17 60.6,244.84l0 585.03 -211.71 0 0 -560.79c0,-71.11 -9.96,-121.21 -29.9,-150.3 -19.93,-29.09 -55.21,-43.63 -105.85,-43.63 -67.88,0 -138.45,27.47 -211.71,82.42l0 672.3 -213.33 0 0 -890.48 160 0 25.85 82.43c103.44,-71.11 204.71,-106.67 303.83,-106.67zm779.02 938.96c-96.97,0 -179.39,-20.74 -247.27,-62.22 -67.87,-41.48 -118.51,-97.5 -151.91,-168.07 -33.4,-70.57 -50.1,-150.03 -50.1,-238.38 0,-90.5 16.7,-171.04 50.1,-241.61 33.4,-70.57 83.77,-126.32 151.1,-167.27 67.34,-40.94 150.03,-61.41 248.08,-61.41 96.96,0 179.12,21.28 246.45,63.84 67.34,42.56 117.98,99.39 151.92,170.5 33.94,71.11 50.91,148.68 50.91,232.72 0,85.11 -16.97,163.49 -50.91,235.14 -33.94,71.65 -84.58,129.02 -151.92,172.12 -67.33,43.09 -149.49,64.64 -246.45,64.64zm-1.62 -156.76c78.65,0 137.1,-27.21 175.35,-81.61 38.25,-54.41 57.37,-131.72 57.37,-231.92 0,-99.12 -19.39,-175.88 -58.18,-230.29 -38.79,-54.41 -96.97,-81.62 -174.54,-81.62 -77.57,0 -135.75,27.21 -174.54,81.62 -38.79,54.41 -58.18,131.17 -58.18,230.29 0,100.2 19.13,177.51 57.37,231.92 38.25,54.4 96.7,81.61 175.35,81.61zm751.55 156.76c-121.75,0 -227.34,-23.7 -316.76,-71.11l48.48 -148.68c85.12,42.02 173.46,63.03 265.04,63.03 52.8,0 95.09,-9.43 126.87,-28.28 31.78,-18.86 47.67,-47.14 47.67,-84.85 0,-31.24 -14.81,-56.02 -44.44,-74.34 -29.63,-18.32 -76.23,-38.79 -139.79,-61.41 -59.26,-21.55 -107.47,-41.48 -144.64,-59.8 -37.17,-18.31 -68.96,-43.9 -95.35,-76.76 -26.4,-32.86 -39.6,-73.54 -39.6,-122.02 0,-89.42 32.32,-157.57 96.97,-204.44 64.64,-46.86 151.91,-70.3 261.81,-70.3 50.64,0 100.47,5.66 149.49,16.97 49.02,11.31 92.38,27.74 130.09,49.29l-48.48 148.68c-75.42,-38.78 -150.84,-58.18 -226.25,-58.18 -47.41,0 -84.85,7.82 -112.32,23.44 -27.48,15.62 -41.22,39.59 -41.22,71.91 0,31.25 14.01,55.22 42.02,71.92 28.02,16.7 73.81,36.36 137.37,58.99 60.34,20.47 109.09,40.13 146.26,58.99 37.17,18.85 69.49,45.79 96.97,80.8 27.47,35.02 41.21,79.46 41.21,133.33 0,88.35 -33.13,157.57 -99.39,207.67 -66.26,50.1 -160.27,75.15 -282.01,75.15z"/>
  <g id="_2093403718752">
   <path class="fil9" d="M14151.61 17229.68c58.51,-142.02 3.76,-191.12 -26.58,-258.23l-211.66 2.18c-10.3,23.83 -113.26,161.98 -12.3,254.26 77.25,70.61 182.48,39.92 250.54,1.79z"/>
   <path class="fil9" d="M13510.22 16465.49c-159.46,93.78 -66.57,299.69 128.31,255.56 186.78,-42.28 82.54,-379.56 -128.31,-255.56z"/>
   <path class="fil10" d="M10671.53 13157.87c180.65,-114.9 382.01,61.27 317.54,251.49 -79.19,233.65 -518.03,130.09 -414.65,-150.85 28.07,-76.3 41.58,-65.31 97.11,-100.64zm332.28 -85.49c-47.17,-56.49 -95.79,-143.92 4.46,-197.54 107.07,-57.26 161.77,45.26 150.12,158.19 -84.05,38.16 -26.42,49.61 -154.58,39.35zm-94.72 0.52c-144.39,-5.43 -267.71,-41.22 -362.59,106.18 -180.16,279.92 180.59,574.62 434.13,353.97 61.81,-53.8 79.96,-91.42 82.95,-183.98 4.84,-150.18 -35.86,-122.49 -60.01,-211.09 322.34,-0.23 242.86,-268.12 144.04,-320.03 -81.09,-42.6 -166.26,-22.5 -216.08,29.1 -87.54,90.65 -58.66,134.64 -22.44,225.85z"/>
   <path class="fil10" d="M13931.27 15862.47c242.23,-111.85 549.35,175.35 383.21,434.64 -31.58,49.3 -101.79,111.35 -155.91,133.34 -232.48,94.41 -538.36,-157.95 -390.46,-434.27 44.83,-83.77 73.95,-92.53 163.16,-133.71zm664.98 739.85c-49.24,-277.73 -39.34,-286.7 -122.9,-551.11l-41.72 -122.13c-53.18,-88.73 21.68,16.94 -28.28,-34.66l5.15 100.13c-38.9,-23.32 -60.44,-108.41 -187.58,-178.49 -78.72,-43.4 -217.69,-52.46 -312.46,-18.97 -152.98,54.06 -310.93,267.57 -221.63,470.6 146.03,332.01 535.45,302.34 685.42,66.37 71.28,-112.17 45.08,-186.05 41.39,-332.82 66.57,74.92 109.73,345.75 129.48,441.22 12.32,59.55 13.34,118.48 53.13,159.86z"/>
   <path class="fil10" d="M7601.78 16073.85c-76.66,-412.27 470.77,-512.54 590.26,-170.05 99.01,283.84 -245.88,486.84 -459.69,345.59 -61.93,-40.91 -116.93,-102.22 -130.57,-175.54zm665.29 -97.92c1.07,-465.47 -781.77,-452.87 -741.3,48.38 35.97,445.48 740.1,471.46 741.3,-48.38z"/>
   <path class="fil11" d="M9866.17 10835.48c157.77,-26.41 292.78,-73.35 457.31,-87.82 466.56,-41.03 1096.04,-87.63 1542.61,59.18 111.02,36.5 158.42,-9.32 158.21,126.64 -0.43,422.09 -35.34,2406.64 20.9,2552.26 189.24,35.35 435.03,139.23 591.41,212.54 510.98,239.54 971.99,606.39 1336.51,1042.84 1558.85,1866.45 892.93,4726.48 -1445.82,5757.19 -2475,1090.75 -5472.1,-623.71 -5474.51,-3429.03 -0.78,-896.93 323.45,-1672.42 860.34,-2344.99 500.47,-626.94 1089.94,-945.84 1791.68,-1209.66 78.45,-29.49 133.76,-13.72 148.31,-86.1l6.99 -62.82c16.28,-469.36 -24.95,-2344.82 6.06,-2530.23zm-146.77 118.29c-112.97,-8.82 -249.93,-162.11 -65.63,-299.31 278.99,-207.68 945.98,-249.32 1305.75,-249.31 1569.57,0.02 1514.51,534.21 1201.22,551.55 -6.51,-150.83 -1.51,-223.57 -156.07,-252.09 -115.81,-21.37 -199.66,-55.03 -313.71,-74.48 -234.45,-39.99 -488.85,-54.51 -747.75,-55.06 -444.74,-0.94 -674.24,41.58 -1075.1,134.42 -174.59,40.43 -103.13,138.22 -148.71,244.28zm2434.16 2410.77c-2.26,-635.94 0.91,-1272.77 0.85,-1908.86 -0.01,-79.72 -3.85,-167.97 -1.28,-246.37 6.07,-184.6 293.79,-120.72 319.6,-391.64 42.79,-449.33 -1037.48,-532.81 -1349.64,-549.06 -277.32,-14.44 -850.67,23.08 -1098.22,94.4 -186.98,53.88 -329.1,86.68 -485.85,211.83 -79.22,63.26 -157.85,222.1 -75.48,354.99 66.57,107.42 169.88,138.65 269.23,202.89l-3.62 2232.23c-53.72,36.76 -261.72,100.37 -322.1,125.42 -304.29,126.2 -333.97,146.58 -612.64,304.93 -443.86,252.23 -857.4,670.16 -1158.07,1076.68 -707.28,956.24 -938.36,2288.13 -469.43,3543.53 89.31,239.06 323.68,679.43 473.88,880.39 63.22,84.59 120.54,155.3 195.21,244.25 700.87,834.78 1811.92,1412.76 3074.57,1417.6 1216.86,4.66 2345.21,-502.75 3116.91,-1407.51 252.22,-295.69 558.34,-761.59 671.1,-1125.97 45.68,-147.62 188.66,-577.34 199.92,-686.07 66.56,-643.12 70.85,-1069.05 -82.63,-1656.03 -226.82,-867.5 -788.18,-1611.11 -1475.51,-2111.18 -632.77,-460.37 -990.78,-491.19 -1186.8,-606.45z"/>
   <path class="fil12" d="M10163.35 19463.21c-4.8,-6.26 -11.13,-13.16 -14.7,-20.56 -52.5,-108.77 80.75,-196.55 162.37,-231.72 269.72,-116.23 780.02,-137.18 1063.33,-27.26 119.76,46.48 142.53,45.56 199.45,126.9 58.39,83.45 48.14,68.53 38.49,158.96l-123.49 89.1c-32.69,24.55 -257.96,97.74 -333.55,97.46l-359.37 32.07c-98.88,-1.83 -77.41,-36.67 -165.42,-49.24 -67.32,-9.61 -138.89,5.33 -204.29,-13.06 -92.82,-26.11 -28.13,-34.03 -168.3,-43.47l-94.52 -119.18zm-2490.56 -1879.49c77.5,-36.33 133.62,-20.44 200.03,8.34 63.37,27.46 103.71,40.58 152.25,78.98 415.11,328.45 760.08,769.5 958.98,1262.79 52.39,129.9 217.74,594.95 27.75,674.96 -522.86,220.18 -1824.83,-1797.36 -1339.01,-2025.07zm4949.9 1901.3c-48.8,22.76 -28.34,2.38 -132.49,-43.66 -57.05,-25.23 -14.34,2.91 -52.88,-31.54l-32.03 -33.88c-23.49,-21.03 -43.49,-24.73 -70.23,-61.14 -75.46,-102.75 -33.32,-358.86 6.84,-472.66 160.62,-455.24 534.94,-1029.53 900.74,-1319.07 76.61,-60.65 222.4,-180.9 348.74,-204.7 133.76,-25.2 330.37,124.66 371.36,175.19 -35.16,45.25 -4.67,15.02 -72.13,44.08 -155.17,66.86 -286.79,167.46 -412.73,288.64 -294.02,282.91 -499.25,575.8 -679.5,950.41 -60.02,124.74 -213.72,502.27 -148.39,648.47 35.48,-37.83 11.61,7.65 29.1,-55.71l76.47 -308.02c163.02,-463.49 550.27,-1025.49 920.31,-1316.25 112.35,-88.29 506.89,-349.82 535,9 31.33,400.13 -366.06,996.17 -548.04,1234.47 -58.4,76.47 -135.65,168.94 -211.16,246.31 -100.25,102.72 -155.88,184 -224.15,216.67 -119.47,57.14 -62.95,84.27 -292.55,150.47 -236.36,68.16 -225.47,-86.43 -253.65,-159.23l-58.63 42.15zm-4788.34 -1991.46c31.99,-48.68 221.42,-176.71 318.8,-174.41 197.19,4.66 458.73,243.86 582.32,375.21 244.48,259.83 623.02,801.13 713.28,1167.55 41.93,170.23 53.34,202.87 43.59,413.42 -88.78,48.38 -191.6,205.52 -331.59,214.77 3.33,-345.35 -48.45,-426.07 -159.36,-671.91 -483.21,-1071.05 -1127.62,-1277.09 -1167.04,-1324.63zm6317.26 -263.88c-68.06,38.13 -173.29,68.82 -250.54,-1.79 -100.96,-92.28 2,-230.43 12.3,-254.26l211.66 -2.18c30.34,67.11 85.09,116.21 26.58,258.23zm-641.39 -764.19c210.85,-124 315.09,213.28 128.31,255.56 -194.88,44.13 -287.77,-161.78 -128.31,-255.56zm-5243.15 -489.56c-1.2,519.84 -705.33,493.86 -741.3,48.38 -40.47,-501.25 742.37,-513.85 741.3,-48.38zm102.85 -342.69c-0.18,-653.69 244.68,-1139 703.29,-1382.19 238.86,-126.66 518.12,-172.18 802,-237.25 363.32,-83.27 962.58,-74.49 1378.03,-68.79l530.78 48.45c56.59,13.34 65.25,27.64 137.6,31.9 93.51,5.49 232.17,39.65 318.14,61.66 388.63,99.48 714.78,226.35 930.73,576.6 286.22,464.2 298.87,992.53 211.87,1585.01 -31.26,212.88 -242.45,876.22 -243.88,892.63 87.71,-17.27 180.78,-77.73 281.94,-66.5 93.9,10.41 174.6,69.48 165.04,173.62 -40.62,21.13 -108.35,37.84 -153.34,61.18 -125.94,65.35 -255.83,171.5 -359.05,274.16 -265.89,264.42 -556.6,641.49 -700.42,993.55 -186.32,456.08 -122.5,557.64 -145.87,658.34 -23.4,100.76 -181.26,11.89 -219.86,-49.35 -83.67,-132.8 -22.67,-328.92 -23.25,-464.6 -51.73,8.32 -226.28,166.78 -268.03,198.22 -166.34,125.3 -109.87,49.29 -138.82,285.57 -62.71,0.95 -147.33,-61.9 -310.61,-107.19 -527.11,-146.19 -927.42,69.59 -1047.17,83.61l-5.37 -154.36c-53.51,-46.99 -332.93,-275.09 -392.62,-291.75 -11.46,96.24 94.95,619.56 -260.06,532.45 -17.39,-393.68 -26.12,-392.44 -154.68,-693.8 -185.08,-433.86 -539.58,-914.7 -931.54,-1189.73 -43.28,-30.36 -84.41,-55.13 -131.45,-79.36 -36.02,-18.57 -105.86,-35.27 -138.72,-56.54 -17.67,-287.12 421.7,-112.77 455.68,-111.54 -7.56,-45.66 -39.24,-127.94 -59.73,-177.25 -155.33,-373.65 -230.52,-925.23 -230.63,-1326.75zm2561.61 -2786.19c49.82,-51.6 134.99,-71.7 216.08,-29.1 98.82,51.91 178.3,319.8 -144.04,320.03 24.15,88.6 64.85,60.91 60.01,211.09 -2.99,92.56 -21.14,130.18 -82.95,183.98 -253.54,220.65 -614.29,-74.05 -434.13,-353.97 94.88,-147.4 218.2,-111.61 362.59,-106.18 -36.22,-91.21 -65.1,-135.2 22.44,-225.85zm3664.72 3755.27c-39.79,-41.38 -40.81,-100.31 -53.13,-159.86 -19.75,-95.47 -62.91,-366.3 -129.48,-441.22 3.69,146.77 29.89,220.65 -41.39,332.82 -149.97,235.97 -539.39,265.64 -685.42,-66.37 -89.3,-203.03 68.65,-416.54 221.63,-470.6 94.77,-33.49 233.74,-24.43 312.46,18.97 127.14,70.08 148.68,155.17 187.58,178.49l-5.15 -100.13c-21.85,-109.97 -174.21,-398.68 -232.19,-501.95 -275.14,-490.02 -598.79,-853.09 -1064.14,-1188.73 -156.43,-112.83 -300.14,-190.02 -469.1,-279.98 -170.87,-90.97 -354.64,-150.12 -532.31,-221.5 -113.13,-45.44 -191.56,-33.34 -248.13,-127.79 -86.52,-144.53 0.62,-774.36 -43.71,-1081.04 -81.17,-48.95 -287.74,-129.33 -389.46,-145.11 -429.15,-66.54 -539.03,8.53 -884.66,138.87 -220.91,83.3 -421.6,30.78 -456.99,66.28 -39.65,56.08 -16.42,564.98 -16.36,680.94 0.19,431.42 -13.93,360.36 -256.26,451.83 -412.56,155.73 -560.95,205.71 -938.21,447.69 -845.22,542.12 -1526.84,1569.49 -1595.93,2593.22 -26.44,391.99 -11.16,917.28 97.85,1253.8 112.98,348.72 234.79,676.92 435.22,966.74 202.21,292.41 361.34,488.65 640.08,746.17 266.24,245.99 501.28,390.12 840.9,562.5 1240.89,629.82 2758.25,440.34 3825.4,-313.59 99.56,-70.33 112.58,-91.88 216.49,-144.8 75.67,-38.53 102.61,-113.2 167.29,-173.25 368.05,-341.69 656.12,-771.42 858.8,-1226.8 145.03,-325.85 244.76,-793.43 252.23,-1149.14 1.84,-87.77 -14.39,-644.77 -13.91,-646.46z"/>
   <path class="fil12" d="M10394.9 14295.12l-474.72 81.61c-172.65,34.17 -292.78,59.65 -448.23,113.15 -633.75,218.11 -786.81,878.67 -701.31,1493.39 47.08,338.48 39.02,371.13 147.92,683.92 48.42,139.11 180.87,477.11 257.62,570.55 197.49,240.47 560.78,-89.11 697.79,-258.44 78.32,-96.81 179.1,-212.62 236.54,-315.33 143.22,-256.07 192.46,-499.08 383.11,-728.83 205.45,-247.57 478.36,-324.51 747.3,-61.19 89.74,87.87 164.94,224.03 226.67,326.3 36.4,60.33 53.37,114.09 80.98,197.28 87.07,262.43 381.52,634.22 593.22,794.98 378.73,287.63 487.59,67.82 618.97,-247.75 87.54,-210.25 227.17,-602.21 249.41,-854.78 67.56,-767.96 -37.27,-1334.7 -636.03,-1577.51 -258.76,-104.93 -473.52,-113.74 -657.85,-171.29 -101.37,-31.64 -619.72,-61.61 -773.08,-62.02 -77.83,-0.21 -506.93,-1.98 -548.31,15.96z"/>
   <path class="fil12" d="M13931.27 15862.47c-89.21,41.18 -118.33,49.94 -163.16,133.71 -147.9,276.32 157.98,528.68 390.46,434.27 54.12,-21.99 124.33,-84.04 155.91,-133.34 166.14,-259.29 -140.98,-546.49 -383.21,-434.64z"/>
   <path class="fil12" d="M7601.78 16073.85c13.64,73.32 68.64,134.63 130.57,175.54 213.81,141.25 558.7,-61.75 459.69,-345.59 -119.49,-342.49 -666.92,-242.22 -590.26,170.05z"/>
   <path class="fil12" d="M10671.53 13157.87c-55.53,35.33 -69.04,24.34 -97.11,100.64 -103.38,280.94 335.46,384.5 414.65,150.85 64.47,-190.22 -136.89,-366.39 -317.54,-251.49z"/>
   <path class="fil12" d="M11035.77 17454.22c-145.71,123.99 29.1,278.45 144.18,194.07 122.52,-89.86 -13.82,-305 -144.18,-194.07z"/>
   <path class="fil12" d="M11177.73 18143.27l-140.82 -3.33c-27.27,41.17 -71.71,75.24 -50.9,143.32 38.57,126.16 206.85,113.66 242.67,1.19 21.99,-69.04 -25.19,-105.29 -50.95,-141.18z"/>
   <path class="fil12" d="M10846.98 17787.53c-157.24,75.48 -70.91,264.45 91.88,222.25 138.23,-35.81 67.54,-298.76 -91.88,-222.25z"/>
   <path class="fil12" d="M10599.23 18162.62c-119.33,102.76 38.18,278.32 155.88,187.42 128.89,-99.54 -22.56,-302.21 -155.88,-187.42z"/>
   <path class="fil12" d="M10439.99 17788.56c-181.6,78.73 -78.12,263.22 75.17,223.61 147.94,-38.22 70.7,-286.85 -75.17,-223.61z"/>
   <path class="fil12" d="M10624.45 17439.63c-38.49,44.13 -91.86,64.13 -55.49,163.84 18.85,51.69 81.73,86.08 155.06,63.15 46.95,-14.67 95.28,-71.1 73.5,-153.49 -19.07,-72.12 -83.7,-78.37 -173.07,-73.5z"/>
   <path class="fil12" d="M11264.14 17798.21c-169.2,125.91 -19,259.08 112.19,208.83 88.36,-33.85 77.94,-188.77 -21.7,-224.03 -61.06,-21.6 -74.87,3.58 -90.49,15.2z"/>
   <path class="fil12" d="M11003.81 13072.38c128.16,10.26 70.53,-1.19 154.58,-39.35 11.65,-112.93 -43.05,-215.45 -150.12,-158.19 -100.25,53.62 -51.63,141.05 -4.46,197.54z"/>
   <path class="fil0" d="M10694.81 17143.08c473.14,-128.57 884.97,202.93 977.65,566.36 64.38,252.38 0.44,462.96 -118.24,641.15 -42.22,63.39 -132.34,150.56 -195.02,193.49 -278.34,190.69 -631.69,191.39 -901.95,21.84 -145.11,-91.03 -301.3,-255.14 -349.62,-443 -117.47,-456.75 138.14,-857.82 587.18,-979.84zm-299.91 -2847.96c41.38,-17.94 470.48,-16.17 548.31,-15.96 153.36,0.41 671.71,30.38 773.08,62.02 184.33,57.55 399.09,66.36 657.85,171.29 598.76,242.81 703.59,809.55 636.03,1577.51 -22.24,252.57 -161.87,644.53 -249.41,854.78 -131.38,315.57 -240.24,535.38 -618.97,247.75 -211.7,-160.76 -506.15,-532.55 -593.22,-794.98 -27.61,-83.19 -44.58,-136.95 -80.98,-197.28 -61.73,-102.27 -136.93,-238.43 -226.67,-326.3 -268.94,-263.32 -541.85,-186.38 -747.3,61.19 -190.65,229.75 -239.89,472.76 -383.11,728.83 -57.44,102.71 -158.22,218.52 -236.54,315.33 -137.01,169.33 -500.3,498.91 -697.79,258.44 -76.75,-93.44 -209.2,-431.44 -257.62,-570.55 -108.9,-312.79 -100.84,-345.44 -147.92,-683.92 -85.5,-614.72 67.56,-1275.28 701.31,-1493.39 155.45,-53.5 275.58,-78.98 448.23,-113.15l474.72 -81.61zm-2024.98 1338.12c0.11,401.52 75.3,953.1 230.63,1326.75 20.49,49.31 52.17,131.59 59.73,177.25 -33.98,-1.23 -473.35,-175.58 -455.68,111.54 32.86,21.27 102.7,37.97 138.72,56.54 47.04,24.23 88.17,49 131.45,79.36 391.96,275.03 746.46,755.87 931.54,1189.73 128.56,301.36 137.29,300.12 154.68,693.8 355.01,87.11 248.6,-436.21 260.06,-532.45 59.69,16.66 339.11,244.76 392.62,291.75l5.37 154.36c119.75,-14.02 520.06,-229.8 1047.17,-83.61 163.28,45.29 247.9,108.14 310.61,107.19 28.95,-236.28 -27.52,-160.27 138.82,-285.57 41.75,-31.44 216.3,-189.9 268.03,-198.22 0.58,135.68 -60.42,331.8 23.25,464.6 38.6,61.24 196.46,150.11 219.86,49.35 23.37,-100.7 -40.45,-202.26 145.87,-658.34 143.82,-352.06 434.53,-729.13 700.42,-993.55 103.22,-102.66 233.11,-208.81 359.05,-274.16 44.99,-23.34 112.72,-40.05 153.34,-61.18 9.56,-104.14 -71.14,-163.21 -165.04,-173.62 -101.16,-11.23 -194.23,49.23 -281.94,66.5 1.43,-16.41 212.62,-679.75 243.88,-892.63 87,-592.48 74.35,-1120.81 -211.87,-1585.01 -215.95,-350.25 -542.1,-477.12 -930.73,-576.6 -85.97,-22.01 -224.63,-56.17 -318.14,-61.66 -72.35,-4.26 -81.01,-18.56 -137.6,-31.9l-530.78 -48.45c-415.45,-5.7 -1014.71,-14.48 -1378.03,68.79 -283.88,65.07 -563.14,110.59 -802,237.25 -458.61,243.19 -703.47,728.5 -703.29,1382.19z"/>
   <path class="fil0" d="M14403.35 15894.42c49.96,51.6 -24.9,-54.07 28.28,34.66l41.72 122.13c83.56,264.41 73.66,273.38 122.9,551.11 -0.48,1.69 15.75,558.69 13.91,646.46 -7.47,355.71 -107.2,823.29 -252.23,1149.14 -202.68,455.38 -490.75,885.11 -858.8,1226.8 -64.68,60.05 -91.62,134.72 -167.29,173.25 -103.91,52.92 -116.93,74.47 -216.49,144.8 -1067.15,753.93 -2584.51,943.41 -3825.4,313.59 -339.62,-172.38 -574.66,-316.51 -840.9,-562.5 -278.74,-257.52 -437.87,-453.76 -640.08,-746.17 -200.43,-289.82 -322.24,-618.02 -435.22,-966.74 -109.01,-336.52 -124.29,-861.81 -97.85,-1253.8 69.09,-1023.73 750.71,-2051.1 1595.93,-2593.22 377.26,-241.98 525.65,-291.96 938.21,-447.69 242.33,-91.47 256.45,-20.41 256.26,-451.83 -0.06,-115.96 -23.29,-624.86 16.36,-680.94 35.39,-35.5 236.08,17.02 456.99,-66.28 345.63,-130.34 455.51,-205.41 884.66,-138.87 101.72,15.78 308.29,96.16 389.46,145.11 44.33,306.68 -42.81,936.51 43.71,1081.04 56.57,94.45 135,82.35 248.13,127.79 177.67,71.38 361.44,130.53 532.31,221.5 168.96,89.96 312.67,167.15 469.1,279.98 465.35,335.64 789,698.71 1064.14,1188.73 57.98,103.27 210.34,391.98 232.19,501.95zm-4537.18 -5058.94c-31.01,185.41 10.22,2060.87 -6.06,2530.23l-6.99 62.82c-14.55,72.38 -69.86,56.61 -148.31,86.1 -701.74,263.82 -1291.21,582.72 -1791.68,1209.66 -536.89,672.57 -861.12,1448.06 -860.34,2344.99 2.41,2805.32 2999.51,4519.78 5474.51,3429.03 2338.75,-1030.71 3004.67,-3890.74 1445.82,-5757.19 -364.52,-436.45 -825.53,-803.3 -1336.51,-1042.84 -156.38,-73.31 -402.17,-177.19 -591.41,-212.54 -56.24,-145.62 -21.33,-2130.17 -20.9,-2552.26 0.21,-135.96 -47.19,-90.14 -158.21,-126.64 -446.57,-146.81 -1076.05,-100.21 -1542.61,-59.18 -164.53,14.47 -299.54,61.41 -457.31,87.82z"/>
   <path class="fil0" d="M12681.32 19442.87c28.18,72.8 17.29,227.39 253.65,159.23 229.6,-66.2 173.08,-93.33 292.55,-150.47 68.27,-32.67 123.9,-113.95 224.15,-216.67 75.51,-77.37 152.76,-169.84 211.16,-246.31 181.98,-238.3 579.37,-834.34 548.04,-1234.47 -28.11,-358.82 -422.65,-97.29 -535,-9 -370.04,290.76 -757.29,852.76 -920.31,1316.25l-76.47 308.02c-17.49,63.36 6.38,17.88 -29.1,55.71 -65.33,-146.2 88.37,-523.73 148.39,-648.47 180.25,-374.61 385.48,-667.5 679.5,-950.41 125.94,-121.18 257.56,-221.78 412.73,-288.64 67.46,-29.06 36.97,1.17 72.13,-44.08 -40.99,-50.53 -237.6,-200.39 -371.36,-175.19 -126.34,23.8 -272.13,144.05 -348.74,204.7 -365.8,289.54 -740.12,863.83 -900.74,1319.07 -40.16,113.8 -82.3,369.91 -6.84,472.66 26.74,36.41 46.74,40.11 70.23,61.14l32.03 33.88c38.54,34.45 -4.17,6.31 52.88,31.54 104.15,46.04 83.69,66.42 132.49,43.66l58.63 -42.15z"/>
   <path class="fil0" d="M7672.79 17583.72c-485.82,227.71 816.15,2245.25 1339.01,2025.07 189.99,-80.01 24.64,-545.06 -27.75,-674.96 -198.9,-493.29 -543.87,-934.34 -958.98,-1262.79 -48.54,-38.4 -88.88,-51.52 -152.25,-78.98 -66.41,-28.78 -122.53,-44.67 -200.03,-8.34z"/>
   <path class="fil0" d="M11177.73 18143.27c25.76,35.89 72.94,72.14 50.95,141.18 -35.82,112.47 -204.1,124.97 -242.67,-1.19 -20.81,-68.08 23.63,-102.15 50.9,-143.32l140.82 3.33zm-578.5 19.35c133.32,-114.79 284.77,87.88 155.88,187.42 -117.7,90.9 -275.21,-84.66 -155.88,-187.42zm664.91 -364.41c15.62,-11.62 29.43,-36.8 90.49,-15.2 99.64,35.26 110.06,190.18 21.7,224.03 -131.19,50.25 -281.39,-82.92 -112.19,-208.83zm-417.16 -10.68c159.42,-76.51 230.11,186.44 91.88,222.25 -162.79,42.2 -249.12,-146.77 -91.88,-222.25zm-406.99 1.03c145.87,-63.24 223.11,185.39 75.17,223.61 -153.29,39.61 -256.77,-144.88 -75.17,-223.61zm184.46 -348.93c89.37,-4.87 154,1.38 173.07,73.5 21.78,82.39 -26.55,138.82 -73.5,153.49 -73.33,22.93 -136.21,-11.46 -155.06,-63.15 -36.37,-99.71 17,-119.71 55.49,-163.84zm411.32 14.59c130.36,-110.93 266.7,104.21 144.18,194.07 -115.08,84.38 -289.89,-70.08 -144.18,-194.07zm-854.46 463.63c0.4,413.52 331.45,678.91 745.87,672.67 567.67,-8.55 947.93,-726.11 452.4,-1190.59 -421.28,-394.89 -1198.92,-156.23 -1198.27,517.92z"/>
   <path class="fil0" d="M7834.35 17493.56c39.42,47.54 683.83,253.58 1167.04,1324.63 110.91,245.84 162.69,326.56 159.36,671.91 139.99,-9.25 242.81,-166.39 331.59,-214.77 9.75,-210.55 -1.66,-243.19 -43.59,-413.42 -90.26,-366.42 -468.8,-907.72 -713.28,-1167.55 -123.59,-131.35 -385.13,-370.55 -582.32,-375.21 -97.38,-2.3 -286.81,125.73 -318.8,174.41z"/>
   <path class="fil0" d="M10257.87 19582.39c140.17,9.44 75.48,17.36 168.3,43.47 65.4,18.39 136.97,3.45 204.29,13.06 88.01,12.57 66.54,47.41 165.42,49.24l359.37 -32.07c75.59,0.28 300.86,-72.91 333.55,-97.46l123.49 -89.1c9.65,-90.43 19.9,-75.51 -38.49,-158.96 -56.92,-81.34 -79.69,-80.42 -199.45,-126.9 -283.31,-109.92 -793.61,-88.97 -1063.33,27.26 -81.62,35.17 -214.87,122.95 -162.37,231.72 3.57,7.4 9.9,14.3 14.7,20.56l94.52 119.18z"/>
   <path class="fil0" d="M9719.4 10953.77c45.58,-106.06 -25.88,-203.85 148.71,-244.28 400.86,-92.84 630.36,-135.36 1075.1,-134.42 258.9,0.55 513.3,15.07 747.75,55.06 114.05,19.45 197.9,53.11 313.71,74.48 154.56,28.52 149.56,101.26 156.07,252.09 313.29,-17.34 368.35,-551.53 -1201.22,-551.55 -359.77,-0.01 -1026.76,41.63 -1305.75,249.31 -184.3,137.2 -47.34,290.49 65.63,299.31z"/>
   <path class="fil13" d="M10181.31 17917.85c-0.65,-674.15 776.99,-912.81 1198.27,-517.92 495.53,464.48 115.27,1182.04 -452.4,1190.59 -414.42,6.24 -745.47,-259.15 -745.87,-672.67zm513.5 -774.77c-449.04,122.02 -704.65,523.09 -587.18,979.84 48.32,187.86 204.51,351.97 349.62,443 270.26,169.55 623.61,168.85 901.95,-21.84 62.68,-42.93 152.8,-130.1 195.02,-193.49 118.68,-178.19 182.62,-388.77 118.24,-641.15 -92.68,-363.43 -504.51,-694.93 -977.65,-566.36z"/>
  </g>
 </g>
</svg>
