<!-- Generated by IcoMoon.io -->
<svg version="1.1" xmlns="http://www.w3.org/2000/svg" width="32" height="32" viewBox="0 0 32 32">
<title>logo-la-tiendita-movil</title>
<path fill="#4b798b" d="M18.571 8.022c-0.823 0.162-1.869 0.771-2.43 1.16-3.887 2.684-4.891 8.19-2.040 12.087 0.782 1.069 2.302 2.524 3.97 3.007l-0.023 0.365c-0.759-0.18-1.846-0.875-2.374-1.268-3.98-2.961-4.791-8.83-1.55-12.792 0.517-0.631 1.179-1.262 1.918-1.759 0.486-0.326 1.822-1.080 2.504-1.151 0.077 0.13 0.046 0.27 0.025 0.352z"></path>
<path fill="#4b798b" d="M18.469 8.704c-5.233 1.807-6.913 8.131-3.833 12.224 0.724 0.963 2.547 2.639 3.596 2.692l-0.099 0.355c-0.058-0.264-0.255-0.25-0.521-0.373-1.207-0.561-2.351-1.506-3.13-2.584-2.132-2.954-2.070-7.027 0.194-9.818 0.896-1.105 2.397-2.331 3.842-2.684 0.088 0.123 0.076-0.168 0.073 0.157l-0.122 0.033z"></path>
<path fill="#914f2f" d="M4.133 12.233l0.631 0.301c-0.042 0.23-0.117 0.549-0.245 0.743-0.622-0.098-1.404-0.476-1.977-0.496l0.002 0.066 1.961 0.559-0.038 0.208-0.161 0.707c0.118-0.115 0.038-0.010 0.106-0.129 0.022-0.040 0.046-0.095 0.063-0.145 0.040-0.115 0.056-0.229 0.082-0.352l0.207-0.215 1.594 0.421c0.132 0.016 0.026 0.013 0.017-0.129-0.339-0.023-1.384-0.308-1.673-0.457 0.018-0.269 0.082-0.526 0.212-0.752l0.458 0.014c0.265-0.046 0.343-0.025 0.442-0.247-0.23-0.216-0.629 0.010-0.966 0.088-0.342-0.196-0.536-0.502-1.003-0.56 0.056 0.283 0.097 0.263 0.289 0.374z"></path>
<path fill="#728f94" d="M6.352 25.367c0.18-0.191 0.275-0.424 0.466-0.57 1.414-0.048 2.912-0.010 4.335-0.007 1.077 0.002 1.12 0.15 1.401-0.806 0.175-0.594 0.38-1.141 0.526-1.736l-0.192 0.409c-0.032 0.117-0.073 0.284-0.11 0.407-0.168 0.554-0.345 1.378-0.679 1.498-0.372 0.133-4.325-0.008-5.343 0.060-0.111 0.147-0.514 0.578-0.404 0.743z"></path>
<path fill="#728f94" d="M2.363 19.481c0.282 0.48 0.637 0.281 0.974 0.049 0.723 0.002 0.711 0.346 1.191 0.6l0.064-0.117c-0.305-0.194-0.606-0.644-1.058-0.65-0.576-0.008-0.586 0.558-1.173-0.057l0.003 0.176z"></path>
<path fill="#728f94" d="M12.895 16.766l0.018-0.032 0.069-1.483-0.205-0.029-0.037 1.554z"></path>
<path fill="#728f94" d="M6.162 27.364c0.135 0.125 0.298 0.278 0.59 0.282 0.332 0.006 0.492-0.16 0.648-0.272l0.062-0.174c-0.035-0.18 0.059-0.013-0.074-0.129-0.162 0.387-0.587 0.467-0.998 0.264-0.239-0.119-0.131-0.022-0.215-0.265-0.141 0-0.107-0.035-0.102 0.107l0.088 0.187z"></path>
<path fill="#728f94" d="M10.345 27.176l0.049 0.104c0.363 0.442 0.807 0.55 1.27 0.073l0.092-0.182-0.060-0.124c-0.119 0.215-0.283 0.387-0.612 0.404-0.356 0.019-0.562-0.166-0.643-0.371-0.131 0-0.1-0.033-0.097 0.096z"></path>
<path fill="#728f94" d="M11.922 9.959l0.175-0.006c0.21 0.023 0.377 0.080 0.526 0.073l0.21-0.105c-0.030-0.028 0.116-0.34-0.518-0.001 0.068-0.119 0.089-0.136 0.175-0.207l-0.534-0.060-0.036 0.305z"></path>
<path fill="#728f94" d="M10.901 16.661l0.444 0.041c0.147-0.038 0.133 0.015 0.294-0.168-0.12-0.095 0.207-0.116-0.219-0.093-0.090 0.005-0.212 0.078-0.309 0.121-0.1-0.255-0.101-0.215-0.392-0.263 0.069 0.312 0.011 0.145 0.18 0.363z"></path>
<path fill="#728f94" d="M4.267 9.438l0.502 0.050 0.281-0.151c-0.195-0.182-0.060-0.128-0.531-0.022-0.174-0.216-0.13-0.189-0.406-0.222 0.057 0.271 0.029 0.142 0.154 0.345z"></path>
<path fill="#728f94" d="M5.411 15.562c0.013 0.196 0.085 0.151 0.247 0.137 0.308-0.081 0.136-0.011 0.208-0.151-0.1-0.069 0.181-0.119-0.225-0.085-0.121 0.010-0.138 0.049-0.231 0.098z"></path>
<path fill="#728f94" d="M5.132 15.611l0.219 0.033-0.042-0.102c-0.149-0.242-0.058-0.174-0.365-0.223 0.066 0.254-0.020 0.145 0.188 0.292z"></path>
<path fill="#ecd5ac" d="M8.735 7.053c0.005 0.222 0.044 0.279 0.267 0.239l0.067-0.226-0.334-0.013z"></path>
<path fill="#ecd5ac" d="M12.061 11.477c-0.048-0.026-0.019-0.018-0.123-0.057-0.030-0.011-0.12-0.037-0.173-0.055-0.050 0.277 0.12 0.433 0.296 0.112z"></path>
<path fill="#ecd5ac" d="M13.692 11.826c-0.262 0.126-0.11-0.060-0.169 0.176 0.184 0.155 0.064 0.112 0.31 0.062-0.038-0.155-0.089-0.157-0.141-0.238z"></path>
<path fill="#490d0a" d="M7.589 5.367l-0.371 0.107c-0.316-0.009-1.732 0.642-2.125 0.801-0.381 0.153-0.661 0.263-1.024 0.417-1.207 0.515-0.502 0.251-0.951 0.516l-0.483 0.135-0.176 0.011 0.334 0.832 3.616-1.451c0.107-0.175 0.151-0.306 0.222-0.571l0.332 0.058c0.454-0.089 0.133-0.431 0.744-0.755l0.287-0.172-0.066-0.123c-0.173 0.022 0.057 0.078-0.34 0.194z"></path>
<path fill="#490d0a" d="M3.127 6.825c0.23-0.032 0.691-0.235 0.9-0.347l-0.138-0.42c-0.283 0.003-0.576 0.2-0.877 0.297-0.002 0.257 0.042 0.266 0.115 0.47z"></path>
<path fill="#490d0a" d="M3.363 15.552c0.006 0.608 0.606 0.266 0.892 0.132l-0.032-0.47c-0.261 0.023-0.75 0.117-0.861 0.337z"></path>
<path fill="#490d0a" d="M10.263 6.542c0.003 0.61 0.742 0.238 0.849 0.061l-0.021-0.428-0.8 0.22-0.029 0.147z"></path>
<path fill="#490d0a" d="M7.489 6.27l0.032-0.009 0.7-0.278-0.014-0.277-0.069-0.149c-0.502 0.024-0.653 0.275-0.816 0.667 0.072 0.061-0.070 0.026 0.167 0.046z"></path>
<path fill="#490d0a" d="M12.823 10.421c0.449-0.027 0.617 0.103 0.748 0.404 0.101 0.134 0.072 0.061 0.111 0.293 0.022 0.134 0.024 0.267 0.037 0.404l-0.027 0.305c0.094-0.029 0.053-0.007 0.128-0.054l0.003-0.182c0.054-0.376 0.005-0.641-0.107-0.915-0.234-0.375-0.454-0.484-1.028-0.446l-0.011 0.199 0.146-0.007z"></path>
<path fill="#d9b369" d="M13.725 17.047c-0.18 0.145-0.082 0.224-0.372 0.436-0.494 0.361-2.79 2.274-3.114 2.299 0.069 0.132 0.034 0.068 0.070 0.235-0.012 0.006-0.216 0.153-0.221 0.154-0.415 0.092-0.213-0.043-0.277-0.139-0.162-0.030-0.105-0.050-0.096 0.139 0.089 0.048-0.089 0.037 0.181 0.078 0.083 0.013 0.126-0.006 0.153-0.012l1.212 0.038 1.14-0.88c0.009-0.010 0.025-0.028 0.034-0.044l0.277-0.281c0.026 0.029 0.045 0.032 0.050 0.054l0.107 0.132-0.022-0.216c0.202-0.1 0.133-0.116 0.333-0.183 0.049-0.235-0.064-0.051 0.073-0.21l0.124 0.169c0.023-0.213 0.109-0.235 0.286-0.363l1.174-0.936c-0.049-0.242-0.296-0.525-0.484-0.695l-0.167-0.066c0.052 0.168 0.025 0.022 0.036 0.218-0.404 0.36-0.301 0.27-0.553 0.325l0.056-0.253z"></path>
<path fill="#d9b369" d="M4.305 14.32c0.376 0.126 0.787 0.211 1.177 0.338 0.2 0.065 0.369 0.135 0.592 0.089 0.297-0.061 0.267-0.208 0.49-0.297l0.004-0.078c-0.065-0.098-0.034-0.065-0.074-0.129l-0.096-0.151-0.038 0.119-1.804-0.517c-0.026 0.123-0.042 0.237-0.082 0.352-0.017 0.050-0.041 0.105-0.063 0.145-0.068 0.119 0.012 0.014-0.106 0.129z"></path>
<path fill="#d9b369" d="M4.305 14.32l0.161-0.707c-0.372 0.014-1.508-0.372-1.953-0.486-0.18 0.472 0.12 0.734 0.561 0.854 0.407 0.111 0.825 0.255 1.231 0.338z"></path>
<path fill="#d9b369" d="M6.963 6.222l0.18 0.149c-0.109 0.118-0.179 0.12-0.208 0.247l0.222 0.037c0.012 0.002 0.037 0.006 0.056 0.007 0.129-0.203-0.066-0.157 0.227-0.365 0.011-0.008 0.035-0.017 0.051-0.027-0.237-0.021-0.095 0.014-0.167-0.046 0.163-0.392 0.313-0.643 0.815-0.667l0.069 0.149c0.204-0.101 0.363 0.089 0.473 0.23 0.182 0.232 0.194 0.418 0.214 0.744-0.095 0.387-0.095 0.026-0.159 0.373l0.334 0.013-0.013-0.086-0.009-0.25c0.069-0.732-0.188-1.128-0.791-1.318-0.238-0.076-0.079 0.022-0.262-0.117l-0.287 0.172c-0.611 0.324-0.29 0.666-0.744 0.755z"></path>
<path fill="#d9b369" d="M10.412 18.814c-0.139 0.033-0.129 0.034-0.202 0.131l-0.325 0.348c0.086 0.157 0.17 0.274 0.275 0.378 0.175-0.069 0.614-0.427 0.744-0.575-0.075-0.223-0.126-0.256-0.282-0.393l-0.211 0.112z"></path>
<path fill="#d9b369" d="M13.192 9.469l0.224-0.054c0.003 0.281-0.032 0.31 0.179 0.407 0.19 0.088 0.319 0.092 0.47 0.040l0.113-0.294c-0.095-0.077 0.003-0.029-0.168-0.098l-0.461-0.271-0.358 0.271z"></path>
<path fill="#d9b369" d="M10.072 18.24l-0.004-0.275-0.817-0.11-0.030-0.169c-0.090 0.037-0.101 0.167-0.089 0.287 0.017 0.176 0.010 0.145 0.184 0.182 0.181 0.038 0.558 0.063 0.756 0.085z"></path>
<path fill="#d9b369" d="M9.71 19.954c0.159 0.007 0.268-0.084 0.261-0.267-0.012-0.331-0.35-0.307-0.505-0.001 0.065 0.147 0.003 0.257 0.243 0.268z"></path>
<path fill="#d9b369" d="M7.803 7.855c0 0 0 0 0 0z"></path>
<path fill="#4b798b" d="M12.437 19.352c0.172 0.092 0.217 0.336 0.296 0.526 0.088 0.213 0.168 0.332 0.25 0.538 0.576 0.287 0.264 0.376 0.509 0.827 0.306 0.337 0.537 0.719 0.814 1.004 0.333 0.344 0.606 0.582 0.957 0.881 0.463 0.395 1.627 1.156 2.364 1.347l0.175 0.012-0.073-0.327c-1.079-0.424-1.983-1.007-2.674-1.677-0.305-0.296-1.854-1.899-1.794-2.523l-0.413-0.068c-0.082-0.224-0.026-0.297 0.040-0.513l-0.016-0.123-0.107-0.132c-0.005-0.023-0.023-0.026-0.050-0.054l-0.277 0.281z"></path>
<path fill="#4b798b" d="M6.273 11.695c0.18 0.79 2.264 0.24 2.827 0.094 0.478-0.124 0.912-0.274 1.322-0.452 0.451-0.196 0.818-0.306 0.735-0.922-0.33 0.032-0.056-0.019-0.277 0.132-0.523 0.36-1.252 0.59-1.848 0.763-0.53 0.153-2.123 0.441-2.675 0.205-0.115 0.093-0.114-0.172-0.085 0.18z"></path>
<path fill="#4b798b" d="M13.18 18.859c0.233 0.415 0.281 0.762 0.773 1.573 0.74 1.217 2.575 2.99 3.882 3.241 0.122-0.033 0.045 0.064 0.060-0.132-1.989-0.773-3.839-2.587-4.518-4.722l-0.124-0.169c-0.137 0.159-0.025-0.025-0.073 0.21z"></path>
<path fill="#4b798b" d="M12.484 16.102c-0.087-0.109-0.038-0.080-0.162-0.156-0.022-0.014-0.127-0.052-0.139-0.056-0.172-0.046-0.255-0.034-0.423-0.034-0.067 0.641 0.097 0.208 0.179 0.677 0.045 0.261 0.034 0.556 0.085 0.85l0.291-0.207c0.003-0.162-0.037-0.431-0.022-0.582 0.037-0.36 0.097-0.128 0.19-0.493z"></path>
<path fill="#4b798b" d="M11.995 15.159c-0.025 0.356-0.096 0.321 0.208 0.405l0.098-0.207c0.030-0.097-0.003-0.064 0.051-0.19 0.255-0.052 0.19-0.032 0.425 0.056-0.082-0.080 0.117-0.002-0.145-0.1-0.072-0.027-0.153-0.034-0.228-0.047-0.164-0.028-0.247-0.046-0.415-0.070l0.006 0.155z"></path>
<path fill="#4b798b" d="M13.082 11.379c0.168 0.117 0.408 0.152 0.636 0.143-0.013-0.136-0.014-0.27-0.037-0.404-0.038-0.232-0.009-0.159-0.111-0.293 0 0.28-0.124 0.344-0.255 0.59l-0.234-0.037z"></path>
<path fill="#f96122" d="M7.704 15.308c0.594-0.438 1.092 0.44 0.601 0.812-0.267 0.203-0.637 0.107-0.766-0.114-0.071-0.12-0.103-0.275-0.061-0.441 0.069-0.273 0.131-0.187 0.227-0.257zM6.569 14.373l-0.004 0.078c0.146 0.558 0.476 1.213 0.543 1.776l-0.418-0.032 2.491 0.327-0.412-0.12c0.070-0.055-0.036-0.001 0.131-0.083l2.752-0.931-0.085-0.498-0.677-1.881c-0.354 0.022-1.732 0.547-2.167 0.692-0.392 0.131-1.826 0.671-2.154 0.671z"></path>
<path fill="#f96122" d="M13.953 5.593c1.061-0.265 0.818 0.679-0.119 0.896-1.046 0.243-0.869-0.648 0.119-0.896zM11.088 6.102c0.059 0.136 0.242 0.393 0.025 0.5-0.107 0.178-0.846 0.549-0.849-0.061l-0.089 0.011-0.556 0.198-0.11 0.36c0.261-0.139 2.694 0.399 3.168 0.494 0.961 0.193 2.357 0.512 3.287 0.586l-0.070 0.146c0.199-0.097 0.113-0.175 0.033-0.378-0.232-0.59-1.213-3.047-1.36-3.208-0.742 0.222-2.861 1.333-3.48 1.352z"></path>
<path fill="#f96122" d="M6.877 12.922c-0.145 0.172 0.044 0.006-0.137 0.112-0.216 0.127-0.362 0.077-0.562 0.215 0.026 0.221 0.055 0.368 0.196 0.523l4.332-1.389-0.206-0.59c-0.461 0.044-1.374 0.434-1.79 0.574-0.314 0.105-1.642 0.563-1.833 0.555z"></path>
<path fill="#f96122" d="M12.030 12.344c-1.146 0.637-0.187 2.083 0.798 1.594 1.029-0.512 0.269-2.186-0.798-1.594z"></path>
<path fill="#f96122" d="M4.769 9.488l-0.502-0.050c-0.286 0.282-0.342 0.751 0.125 0.807 0.559 0.067 0.439-0.439 0.377-0.757z"></path>
<path fill="#f96122" d="M11.346 16.702l-0.444-0.041-0.216 0.178c-0.088 1.031 1.116 0.717 0.661-0.136z"></path>
<path fill="#f96122" d="M4.755 11.315l-0.003-0.189 0.747-0.253c0.14 0.364 0.004 0.045 0.14 0.19-0.057-0.235-0.13-0.386-0.225-0.545-0.254-0.026-0.647 0.057-0.754 0.257-0.109 0.178-0.052 0.405 0.095 0.541z"></path>
<path fill="#f96122" d="M6.909 17.16l0.304-0.018 0.105-0.476c-0.199-0.092-0.456-0.098-0.697-0.123l-0.112 0.562 0.4 0.054z"></path>
<path fill="#f96122" d="M9.3 5.255c0.458 0.188 0.657-0.071 0.438-0.507-0.469-0.105-0.554 0.136-0.438 0.507z"></path>
<path fill="#f96122" d="M13.259 19.961c0.214-0.147 0.127-0.289 0.065-0.479l-0.438-0.101c-0.065 0.216-0.121 0.289-0.040 0.513l0.413 0.068z"></path>
<path fill="#de3f17" d="M9.509 7.11c-0.062 0.482-0.143 0.49 0.015 0.969l0.778 1.943c0.166 0.021 0.341 0.017 0.496 0.056 0.228 0.056 0.18 0.108 0.408 0.159l0.716-0.277 0.036-0.305 0.534 0.060 0.701-0.244 0.358-0.271c0.019-0.159-0.071-0.049 0.065-0.179l0.563 0.013 1.716-0.696 0.070-0.146c-0.93-0.074-2.326-0.393-3.287-0.586-0.474-0.095-2.907-0.633-3.168-0.494z"></path>
<path fill="#de3f17" d="M8.394 19.244c0.037-0.062 0.029-0.034 0.065-0.139 0.031-0.090 0.023-0.072 0.029-0.126 0.010-0.088 0.004-0.137-0.026-0.235l-2.188-0.254-0.011 0.497 2.131 0.257z"></path>
<path fill="#de3f17" d="M13.953 5.593c-0.988 0.247-1.165 1.138-0.119 0.896 0.937-0.217 1.18-1.161 0.119-0.896z"></path>
<path fill="#de3f17" d="M7.704 15.308c-0.096 0.070-0.157-0.016-0.227 0.257-0.042 0.165-0.010 0.321 0.061 0.441 0.129 0.221 0.499 0.317 0.766 0.114 0.491-0.372-0.007-1.25-0.601-0.812z"></path>
<path fill="#de3f17" d="M4.755 11.315c0.034 0.326 0.165 0.309 0.47 0.217 0.321-0.097 0.452-0.095 0.413-0.469-0.136-0.144 0 0.175-0.14-0.19l-0.747 0.253 0.003 0.189z"></path>
<path fill="#de3f17" d="M6.909 17.16l-0.4-0.054 0.112-0.562c0.241 0.025 0.498 0.031 0.697 0.123l-0.105 0.476-0.304 0.018zM6.909 17.16c0.064 0.12 0.233 0.075 0.391 0.053l0.060-0.612c-0.218-0.106-0.579-0.157-0.826-0.090-0.090 0.549-0.201 0.706 0.375 0.649z"></path>
<path fill="#de3f17" d="M2.635 7.342l0.483-0.135 0.072-0.231-0.309 0.035c-0.073 0.070 0.060-0.026-0.111 0.090-0.037 0.025-0.082 0.043-0.154 0.070l0.020 0.17z"></path>
<path fill="#de3f17" d="M7.218 5.474l0.371-0.107c0.014-0.010 0.036-0.041 0.042-0.030l0.141-0.164c-0.071-0.037 0.088-0.122-0.249-0.035-0.050 0.013-0.208 0.088-0.303 0.117l-0.002 0.219z"></path>
<path fill="#fbd27b" d="M7.803 7.855c0 0 0 0 0 0v0zM6.409 6.735c0.027 0.584-0.785 2.334-0.872 3.066l1.806 0.431c0.251 0.045 0.455 0.080 0.641 0.26-0.133 0.064 0.035 0.076-0.233 0.034 0.58-0.078 1.056-0.31 1.652-0.347l-0.353 0.035c0.148-0.664 0.262-1.5 0.328-2.234 0.037 0.052 0.086 0.056 0.146 0.099-0.158-0.479-0.077-0.487-0.015-0.969l0.11-0.36c-0.194 0.053-0.376 0.061-0.572-0.020l0.009 0.25 0.013 0.086-0.067 0.226c-0.223 0.040-0.262-0.018-0.267-0.239 0.064-0.346 0.064 0.014 0.159-0.373-0.557-0.037-0.816-0.183-1.328-0.235l-0.045-0.184-0.032 0.009c-0.016 0.010-0.040 0.019-0.051 0.027-0.293 0.208-0.098 0.162-0.227 0.365-0.018-0.001-0.044-0.005-0.056-0.007l-0.222-0.037c0.030-0.127 0.1-0.129 0.208-0.247l-0.18-0.149-0.332-0.058c-0.071 0.265-0.116 0.396-0.222 0.571z"></path>
<path fill="#fbd27b" d="M9.467 19.686c0.154-0.306 0.492-0.33 0.505 0.001 0.007 0.183-0.102 0.274-0.261 0.267-0.241-0.011-0.179-0.121-0.243-0.268zM12.913 16.734l-0.018 0.032c-0.332 0.467-2.236 1.59-2.483 2.048l0.211-0.112c0.156 0.137 0.207 0.17 0.282 0.393-0.13 0.148-0.569 0.506-0.744 0.575-0.105-0.104-0.189-0.221-0.275-0.378l0.325-0.348c-0.236-0.013-0.162 0.163-0.191-0.256-0.165 0.474-0.098 0.338-0.444 0.601-0.196 0.148-0.352 0.335-0.596 0.392 0.281 0.196 0.088 0.096 0.293 0.306 0.241 0.249 0.101 0.068 0.444 0.185-0.010-0.189-0.066-0.168 0.096-0.139l0.428-0.251c0.324-0.026 2.62-1.938 3.114-2.299 0.29-0.212 0.191-0.291 0.372-0.436l0.461-0.289 0.167 0.066c-0.123-0.217-0.307-0.549-0.574-0.679l-0.866 0.589z"></path>
<path fill="#fbd27b" d="M2.542 12.781c0.573 0.020 1.356 0.398 1.977 0.496 0.128-0.195 0.202-0.513 0.245-0.743l-0.631-0.301c-0.267 0.196-0.535-0.169-0.99-0.116-0.448 0.053-0.404 0.378-0.601 0.664z"></path>
<path fill="#fbd27b" d="M6.374 13.773c-0.141-0.155-0.17-0.302-0.196-0.523 0.2-0.138 0.346-0.088 0.562-0.215 0.181-0.107-0.008 0.060 0.137-0.112-0.527 0.114-0.344 0.088-0.802-0.044-0.147-0.042-0.236-0.060-0.364-0.095-0.337-0.092-0.257 0.010-0.34-0.206l-0.458-0.014c-0.129 0.226-0.194 0.483-0.212 0.752 0.289 0.149 1.334 0.434 1.673 0.457z"></path>
<path fill="#fbd27b" d="M5.132 15.611c-0.010 0.015-0.028 0.018-0.034 0.042-0.005 0.023-0.026 0.032-0.033 0.041-0.297 0.361-0.273 0.702 0.085 0.803 0.471 0.133 0.782-0.453 0.385-0.721l0.123-0.076c-0.162 0.014-0.235 0.058-0.247-0.137-0.127-0.001-0.087 0.077-0.101-0.021l0.042 0.102-0.219-0.033z"></path>
<path fill="#fbd27b" d="M12.032 10.768c0.254-0.041 0.197-0.007 0.225 0.107 0.39-0.143 0.231-0.102 0.488-0.379l0.078-0.076-0.146 0.007 0.011-0.199-0.139-0.082 0.075-0.121c-0.149 0.007-0.317-0.049-0.526-0.073-0.009 0.016-0.026 0.020-0.032 0.046-0.012 0.058-0.165 0.145-0.216 0.334-0.074 0.271 0.092 0.356 0.183 0.435z"></path>
<path fill="#fbd27b" d="M2.513 13.128c0.445 0.113 1.581 0.5 1.953 0.486l0.038-0.208-1.961-0.559-0.030 0.281z"></path>
<path fill="#fbd27b" d="M4.557 13.695l1.804 0.517 0.038-0.119-0.041-0.191-1.594-0.421z"></path>
<path fill="#fbd27b" d="M10.072 18.24l-0.040 0.194 0.105-0.766c-0.203 0.028-0.283 0.008-0.481-0.024-0.048-0.007-0.189-0.035-0.222-0.036-0.413-0.005-0.14-0.050-0.213 0.078l0.030 0.169 0.817 0.11 0.004 0.275z"></path>
<path fill="#fbd27b" d="M13.55 9.198l0.461 0.271c0.171 0.069 0.073 0.022 0.168 0.098 0.082-0.165 0.053-0.032 0.036-0.238-0.025-0.291-0.046 0.103-0.037-0.298l-0.563-0.013c-0.136 0.13-0.045 0.020-0.065 0.179z"></path>
<path fill="#822932" d="M12.030 12.344c1.066-0.593 1.827 1.082 0.798 1.594-0.985 0.49-1.944-0.957-0.798-1.594zM13.692 11.826c0.052 0.081 0.103 0.084 0.141 0.238-0.247 0.050-0.127 0.093-0.31-0.062 0.059-0.236-0.093-0.050 0.169-0.176zM11.938 11.42c0.104 0.038 0.076 0.031 0.123 0.057-0.176 0.321-0.346 0.165-0.296-0.112 0.053 0.018 0.143 0.044 0.173 0.055zM10.707 12.384l-4.332 1.389c0.010 0.142 0.116 0.145-0.017 0.129l0.041 0.191 0.096 0.151c0.040 0.064 0.009 0.031 0.074 0.129 0.328-0.001 1.762-0.541 2.154-0.671 0.435-0.145 1.813-0.671 2.167-0.692l0.677 1.881 0.423 0.113c0.168 0.025 0.251 0.042 0.415 0.070 0.074 0.013 0.156 0.019 0.228 0.047 0.262 0.098 0.062 0.021 0.145 0.1l0.205 0.029 0.642 0.167 0.621-3.273 0.032-0.339-0.364-0.213-0.090-0.002-0.003 0.182c-0.074 0.047-0.034 0.025-0.128 0.054l0.027-0.305c-0.229 0.009-0.468-0.026-0.636-0.143l-0.932-0.251 0.106-0.252c-0.027-0.114 0.029-0.148-0.225-0.107l-0.085 0.265-0.465-0.055c-0.133 0.204-0.617 1.47-0.593 1.668-0.162-0.11-0.050 0.137-0.182-0.262z"></path>
<path fill="#822932" d="M8.394 19.244l-2.131-0.257 0.011-0.497 2.188 0.254c0.030 0.097 0.036 0.147 0.026 0.235-0.006 0.054 0.002 0.035-0.029 0.126-0.036 0.104-0.027 0.076-0.065 0.139zM6.909 17.16c-0.576 0.056-0.465-0.1-0.375-0.649 0.247-0.066 0.608-0.015 0.826 0.090l-0.060 0.612c-0.158 0.022-0.328 0.068-0.391-0.053zM8.98 19.681c0.244-0.057 0.399-0.243 0.596-0.392 0.346-0.262 0.279-0.127 0.444-0.601l0.013-0.254 0.040-0.194c-0.198-0.022-0.575-0.046-0.756-0.085-0.174-0.037-0.167-0.006-0.184-0.182-0.012-0.121-0.001-0.251 0.089-0.287 0.073-0.128-0.2-0.082 0.213-0.078 0.033 0.001 0.175 0.029 0.222 0.036 0.198 0.032 0.278 0.052 0.481 0.024l0.089-1.028-1.045-0.117-2.491-0.327-0.414-0.034-0.403 3.127 3.107 0.392z"></path>
<path fill="#822932" d="M2.881 7.012v0zM3.127 6.825c-0.073-0.204-0.117-0.214-0.115-0.47 0.301-0.097 0.594-0.293 0.877-0.297l0.138 0.42c-0.21 0.112-0.671 0.315-0.9 0.347zM2.459 7.353l0.176-0.011-0.020-0.17c0.072-0.027 0.117-0.046 0.154-0.070 0.171-0.116 0.038-0.019 0.111-0.090l0.309-0.035-0.072 0.231c0.449-0.265-0.257-0.001 0.951-0.516 0.363-0.155 0.643-0.265 1.024-0.417 0.393-0.159 1.81-0.81 2.125-0.801l0.002-0.219c0.095-0.030 0.253-0.104 0.303-0.117 0.336-0.086 0.178-0.002 0.249 0.035l-0.141 0.164c-0.006-0.011-0.027 0.020-0.042 0.030 0.396-0.116 0.167-0.172 0.34-0.194-0.078-0.292-0.207-0.592-0.339-0.836l-5.408 2.216c-0.003 0.276 0.162 0.618 0.277 0.801z"></path>
<path fill="#822932" d="M10.174 6.553l0.089-0.011 0.029-0.147 0.8-0.22 0.021 0.428c0.217-0.107 0.034-0.364-0.025-0.5l-0.125-0.274c-0.316-0.031-0.571 0.065-0.797 0.186l0.009 0.538z"></path>
<path fill="#822932" d="M3.363 15.552c0.111-0.22 0.6-0.314 0.861-0.337-0.054-0.166-0.111-0.263-0.184-0.363-0.46-0.053-1.091 0.212-0.677 0.7z"></path>
<path fill="#822932" d="M4.925 17.598c0.186-0.507-0.222-0.715-0.462-0.463-0.21 0.22-0.054 0.663 0.462 0.463z"></path>
<path fill="#822932" d="M4.428 8.478c0.179 0.057 0.327 0.056 0.497-0.011 0.078-0.266 0.038-0.342-0.086-0.521-0.451-0.054-0.518 0.147-0.411 0.532z"></path>
<path fill="#822932" d="M13.725 17.047l-0.056 0.253c0.252-0.055 0.148 0.035 0.553-0.325-0.011-0.196 0.016-0.050-0.036-0.218l-0.461 0.289z"></path>
<path fill="#822932" d="M9.812 20.034c0.064 0.096-0.137 0.231 0.277 0.139 0.005-0.001 0.209-0.148 0.221-0.154-0.036-0.168-0.001-0.103-0.070-0.235l-0.428 0.251z"></path>
<path fill="#74bddb" d="M9.641 23.299l0.025-0.174 0.35 0.007-0.001 0.176-0.028 0.801h-0.329l-0.017-0.809zM8.091 23.309l0.011-0.179 0.359-0.011 0.011 0.179-0.035 0.805-0.338-0.001-0.008-0.793zM8.869 23.304l0.011-0.179 0.354 0.003 0.009 0.175-0.016 0.768c-0.392 0.044-0.391-0.016-0.358-0.767zM5.774 23.3l0.020-0.179 0.339 0.017 0.011 0.169-0.034 0.8-0.259 0.002-0.077-0.809zM11.557 23.295l-0.022 0.79-0.325-0.004-0.011-0.805v-0.143l0.346-0.009 0.012 0.171zM10.78 23.278l-0.019 0.81-0.333-0.008-0.001-0.809-0.015-0.14 0.375 0.018-0.006 0.13zM7.324 23.294l0.028-0.171 0.348 0.025-0.010 0.127-0.021 0.814-0.336-0.006-0.009-0.788zM6.55 23.298l0.015-0.183c0.176 0.006 0.404-0.037 0.338 0.161l-0.004 0.614c-0.031 0.136-0.033 0.096-0.081 0.169l-0.197-0.006c-0.023-0.041-0.071 0.018-0.077-0.358-0.002-0.122 0.006-0.27 0.006-0.397zM9.654 22.003l0.365 0.020-0.028 0.841h-0.338l0.002-0.861zM8.875 22.009l0.368 0.014-0.034 0.844-0.333-0.005-0.001-0.852zM8.102 22.017l0.366 0.003-0.041 0.85-0.33-0.014 0.005-0.84zM5.793 22.012l0.35 0.010-0.025 0.845-0.332-0.005 0.007-0.85zM11.516 22.865c-0.245 0.008-0.313 0.019-0.333-0.221-0.013-0.159 0.003-0.444 0.011-0.623l0.363-0.008-0.042 0.852zM10.495 22.845c-0.080-0.128-0.078-0.089-0.080-0.399-0.001-0.151 0.006-0.285 0.025-0.439h0.34l-0.019 0.842-0.266-0.003zM7.409 22.848c-0.010-0.014-0.024-0.033-0.029-0.045-0.074-0.17-0.107-0.308-0.032-0.797l0.325 0.003c0.038 0.248 0.079 0.629-0.068 0.841l-0.197-0.002zM6.568 22.002l0.338 0.031c0.014 0.153 0.029 0.462 0.016 0.612-0.023 0.256-0.078 0.223-0.356 0.226l0.002-0.869zM11.971 22.015l0.442-0.010c0.008 0.221-0.054 0.412-0.12 0.601-0.075 0.215-0.078 0.27-0.322 0.253v-0.843zM10.431 20.994l0.352 0.021-0.041 0.553-0.305-0.003-0.006-0.57zM8.887 20.845l-0.031-0.181 0.375 0.041 0.017 0.164-0.036 0.694-0.337-0.013 0.013-0.705zM7.362 21.567c-0.058-0.254-0.098-0.644 0.047-0.87 0.342 0.025 0.29-0.040 0.295 0.364 0.002 0.177-0.013 0.332-0.053 0.503l-0.289 0.003zM5.784 20.546l0.36 0.042-0.023 0.975-0.337-0.007 0.001-1.010zM11.538 21.102c0.014 0.084 0.034 0.132 0.025 0.227-0.031 0.343-0.017 0.111-0.083 0.216l-0.279-0.006 0.006-0.48 0.332 0.042zM9.64 20.915l0.367 0.053c0.017 0.218 0.035 0.385-0.037 0.573l-0.328-0.010-0.002-0.616zM8.107 20.935c0.042-0.163 0.017-0.068 0.090-0.168l0.196 0.023 0.066 0.599c-0.025 0.12-0.024 0.082-0.065 0.151l-0.198 0.009c-0.053-0.070-0.122-0.089-0.112-0.417 0-0.015 0.019-0.182 0.023-0.195zM6.563 20.624c0.444 0.015 0.358 0.084 0.359 0.508 0.001 0.388 0.061 0.445-0.361 0.43l0.002-0.937zM11.963 21.14l0.045-0.187 0.713 0.076-0.038 0.143-0.047 0.335c-0.175 0.089-0.395 0.068-0.663 0.047l-0.010-0.414zM2.363 19.481l-0.003-0.176c0.588 0.615 0.598 0.049 1.173 0.057 0.452 0.006 0.753 0.456 1.058 0.65l-0.064 0.117c0.030 0.586 0.497 3.228 0.659 4.063 0.139 0.715 0.407 0.552 1.065 0.601-0.148 0.383-0.761 0.791-0.526 1.108 0.148 0.201 2.997 0.102 3.26 0.101 0.659 0 2.928 0.081 3.355-0.059l-0.017-0.322c-0.293-0.137-3.715-0.068-4.52-0.068l-1.191 0.009c-0.41-0.062-0.211 0.070-0.261-0.194-0.11-0.166 0.294-0.596 0.404-0.743 1.017-0.068 4.971 0.073 5.343-0.060 0.334-0.12 0.511-0.944 0.679-1.498 0.037-0.123 0.078-0.29 0.11-0.407l0.192-0.409c0.064-0.121 0.122-0.326 0.181-0.518 0.026-0.084 0.060-0.226 0.094-0.313 0.12-0.312 0.011-0.153 0.136-0.175-0.245-0.451 0.068-0.54-0.509-0.827-0.196 0.173-0.584 0.039-0.844 0.021-0.164-0.011-0.363-0.011-0.522-0.031-0.104-0.012-0.132-0.016-0.216-0.048-0.12-0.045-0.062-0.022-0.136-0.082l-1.212-0.038c-0.69-0.006-1.378-0.123-2.051-0.18-0.694-0.059-1.386-0.098-2.061-0.182-1.094-0.135-0.88 0.007-1.591-0.608-0.327-0.283-0.26-0.279-0.815-0.307-0.542-0.027-0.27-0.299-0.917-0.2-0.21 0.169-0.426 0.335-0.251 0.719z"></path>
<path fill="#74bddb" d="M9.402 10.179c-0.596 0.037-1.071 0.269-1.652 0.347-0.436 0.225-1.762 0.444-1.478 1.169-0.029-0.352-0.030-0.087 0.085-0.18 0.552 0.236 2.145-0.052 2.675-0.205 0.596-0.173 1.325-0.404 1.848-0.763 0.221-0.152-0.053-0.1 0.277-0.132 0.011-0.18-0.021-0.072 0.048-0.179-0.228-0.052-0.18-0.104-0.408-0.159-0.155-0.038-0.33-0.034-0.496-0.056l-0.9 0.158z"></path>
<path fill="#74bddb" d="M6.511 26.91c0.070-0.42 0.372-0.396 0.551-0.066-0.141 0.371-0.341 0.344-0.551 0.066zM6.074 27.177c-0.005-0.141-0.040-0.107 0.102-0.107 0.084 0.243-0.025 0.147 0.215 0.265 0.411 0.203 0.837 0.123 0.998-0.264 0.133 0.116 0.038-0.051 0.074 0.129 0.328-0.396-0.074-1.097-0.645-1.114-0.585-0.017-0.983 0.554-0.744 1.090z"></path>
<path fill="#74bddb" d="M10.836 27.032c-0.11-0.482 0.279-0.517 0.409-0.341 0.258 0.349-0.143 0.47-0.409 0.341zM10.345 27.176c-0.003-0.129-0.034-0.096 0.097-0.096 0.081 0.205 0.287 0.39 0.643 0.371 0.329-0.018 0.493-0.19 0.612-0.404l0.060 0.124c0.262-0.528-0.175-1.058-0.671-1.082-0.573-0.027-1.022 0.61-0.741 1.087z"></path>
<path fill="#74bddb" d="M11.76 15.856c0.168-0.001 0.251-0.012 0.423 0.034 0.012 0.003 0.116 0.042 0.139 0.056 0.124 0.076 0.074 0.048 0.162 0.156 0.070-0.146 0.141-0.208-0.058-0.443-0.010-0.011-0.026-0.026-0.035-0.036-0.106-0.115-0.070-0.081-0.038-0.458-0.054 0.126-0.021 0.093-0.051 0.19l-0.098 0.207c-0.304-0.084-0.233-0.049-0.208-0.405-0.042 0.124-0.036 0.232-0.077 0.366-0.034 0.111-0.090 0.179-0.158 0.332z"></path>
<path fill="#f5e9d1" d="M11.346 16.702c0.455 0.853-0.749 1.167-0.661 0.136l0.216-0.178c-0.169-0.218-0.111-0.052-0.18-0.363 0.29 0.048 0.292 0.009 0.392 0.263 0.097-0.043 0.218-0.116 0.309-0.121 0.426-0.022 0.099-0.001 0.219 0.093-0.161 0.184-0.148 0.131-0.294 0.168zM9.181 16.523l1.045 0.117-0.089 1.028-0.105 0.766-0.013 0.254c0.029 0.419-0.046 0.243 0.191 0.256 0.073-0.097 0.063-0.099 0.202-0.131 0.247-0.458 2.151-1.581 2.483-2.048l-0.155 0.010 0.037-1.554c-0.235-0.088-0.169-0.108-0.425-0.056-0.032 0.376-0.068 0.342 0.038 0.458 0.009 0.010 0.025 0.024 0.035 0.036 0.199 0.234 0.129 0.297 0.058 0.443-0.093 0.365-0.153 0.133-0.19 0.493-0.015 0.151 0.025 0.42 0.022 0.582l-0.291 0.207c-0.051-0.294-0.040-0.589-0.085-0.85-0.081-0.47-0.246-0.036-0.179-0.677 0.068-0.152 0.124-0.221 0.158-0.332 0.041-0.133 0.034-0.242 0.077-0.366l-0.006-0.155-0.423-0.113 0.085 0.498-2.752 0.931c-0.166 0.082-0.060 0.028-0.131 0.083l0.412 0.12z"></path>
<path fill="#f5e9d1" d="M9.402 10.179l0.9-0.158-0.778-1.943c-0.060-0.043-0.109-0.047-0.146-0.099-0.066 0.734-0.18 1.57-0.328 2.234l0.353-0.035z"></path>
<path fill="#f5e9d1" d="M11.263 20.277c0.074 0.060 0.017 0.037 0.136 0.082 0.084 0.032 0.113 0.035 0.216 0.048 0.159 0.019 0.358 0.019 0.522 0.031 0.261 0.018 0.648 0.152 0.844-0.021-0.082-0.206-0.162-0.325-0.25-0.538-0.078-0.19-0.124-0.434-0.296-0.526-0.010 0.016-0.026 0.034-0.034 0.044l-1.14 0.88z"></path>
<path fill="#f5e9d1" d="M12.256 10.875l-0.106 0.252 0.932 0.251 0.234 0.037c0.131-0.247 0.255-0.31 0.255-0.59-0.131-0.301-0.3-0.431-0.748-0.404l-0.078 0.076c-0.257 0.277-0.098 0.235-0.488 0.379z"></path>
<path fill="#f5e9d1" d="M7.521 6.261l0.045 0.184c0.513 0.052 0.771 0.198 1.328 0.235-0.021-0.326-0.033-0.511-0.214-0.744-0.111-0.141-0.269-0.332-0.473-0.23l0.014 0.277-0.7 0.278z"></path>
<path fill="#373435" d="M16.829 12.91v-0.243c0-0.162 0.057-0.299 0.173-0.411s0.251-0.168 0.406-0.168c0.159 0 0.294 0.059 0.406 0.176s0.168 0.255 0.168 0.413v0.233h0.067c0.128 0 0.241 0.046 0.339 0.138s0.147 0.205 0.147 0.337c0 0.126-0.045 0.234-0.135 0.322-0.103 0.102-0.22 0.153-0.352 0.153h-0.072v1.305c0 0.163-0.056 0.302-0.168 0.416s-0.247 0.171-0.406 0.171-0.295-0.058-0.408-0.176c-0.114-0.117-0.171-0.255-0.171-0.413v-1.303h-0.042c-0.144 0-0.269-0.052-0.372-0.155-0.089-0.089-0.134-0.196-0.134-0.321 0-0.134 0.050-0.247 0.149-0.338s0.218-0.137 0.352-0.137h0.052zM18.619 13.453c0-0.162 0.056-0.298 0.166-0.408s0.249-0.165 0.414-0.165c0.155 0 0.289 0.057 0.403 0.171s0.171 0.25 0.171 0.408v1.716c0 0.162-0.056 0.299-0.168 0.411s-0.249 0.168-0.411 0.168c-0.162 0-0.298-0.055-0.409-0.165s-0.166-0.247-0.166-0.409v-1.727zM18.769 11.721c0.124-0.117 0.266-0.176 0.424-0.176 0.165 0 0.308 0.061 0.426 0.181s0.179 0.266 0.179 0.435-0.060 0.313-0.179 0.432c-0.119 0.119-0.261 0.178-0.426 0.178s-0.308-0.060-0.427-0.178c-0.119-0.119-0.179-0.265-0.179-0.437 0-0.169 0.061-0.314 0.181-0.435zM21.305 14.585l0.093 0.097c0.12 0.090 0.318 0.136 0.594 0.136 0.089 0 0.222-0.023 0.398-0.069 0.124-0.030 0.21-0.045 0.258-0.045 0.131 0 0.239 0.038 0.324 0.115 0.084 0.078 0.127 0.174 0.127 0.291 0 0.044-0.003 0.077-0.010 0.097-0.027 0.096-0.078 0.176-0.153 0.239s-0.195 0.124-0.364 0.183c-0.069 0.021-0.14 0.038-0.212 0.053s-0.141 0.028-0.204 0.037-0.128 0.014-0.194 0.018c-0.066 0.003-0.124 0.005-0.176 0.005-0.514 0-0.923-0.14-1.228-0.42-0.305-0.281-0.458-0.632-0.458-1.055 0-0.389 0.148-0.717 0.442-0.986 0.295-0.268 0.661-0.402 1.099-0.402 0.141 0 0.275 0.017 0.403 0.052s0.25 0.084 0.367 0.15c0.207 0.12 0.377 0.28 0.509 0.478s0.199 0.388 0.199 0.572c0 0.165-0.034 0.282-0.104 0.351s-0.191 0.104-0.367 0.104h-1.344zM21.925 13.976c-0.027-0.165-0.124-0.249-0.289-0.249-0.027 0-0.048 0.002-0.062 0.005-0.12 0.028-0.203 0.111-0.248 0.249l-0.010 0.046h0.615l-0.005-0.052zM23.421 13.446c0-0.171 0.055-0.309 0.165-0.416s0.245-0.161 0.404-0.161c0.134 0 0.25 0.046 0.346 0.139 0.031 0.031 0.067 0.080 0.108 0.145 0.014-0.014 0.022-0.024 0.026-0.031 0.017-0.021 0.033-0.034 0.047-0.041 0.227-0.141 0.463-0.212 0.708-0.212 0.045 0 0.081 0.002 0.109 0.005s0.072 0.010 0.135 0.021c0.255 0.052 0.458 0.166 0.61 0.345s0.227 0.381 0.227 0.608v1.326c0 0.159-0.055 0.294-0.166 0.409s-0.246 0.171-0.408 0.171-0.299-0.054-0.413-0.163c-0.114-0.109-0.171-0.244-0.171-0.406v-1.075c0-0.082-0.029-0.149-0.088-0.202-0.056-0.058-0.123-0.088-0.202-0.088s-0.147 0.028-0.204 0.085c-0.057 0.057-0.085 0.125-0.085 0.204v1.070c0 0.159-0.055 0.294-0.166 0.406s-0.247 0.168-0.408 0.168c-0.162 0-0.298-0.057-0.409-0.171s-0.165-0.25-0.165-0.406v-1.73zM18.406 16.88c0-0.159 0.056-0.293 0.166-0.403s0.247-0.166 0.408-0.166c0.159 0 0.293 0.057 0.404 0.171s0.166 0.25 0.166 0.408v2.942c0 0.176-0.054 0.314-0.163 0.416s-0.244 0.152-0.406 0.152c-0.093 0-0.2-0.046-0.32-0.139-0.038-0.032-0.090-0.080-0.155-0.145v0.021c0 0.1-0.049 0.172-0.147 0.217s-0.227 0.067-0.385 0.067c-0.069 0-0.138-0.004-0.207-0.013s-0.121-0.017-0.155-0.023c-0.273-0.052-0.506-0.179-0.7-0.383s-0.322-0.456-0.38-0.76c-0.014-0.097-0.022-0.164-0.023-0.202s-0.002-0.069-0.002-0.093c0-0.113 0.012-0.219 0.036-0.315 0.048-0.204 0.128-0.383 0.241-0.538s0.251-0.281 0.416-0.377c0.2-0.117 0.408-0.176 0.625-0.176 0.159 0 0.324 0.031 0.497 0.093l0.088 0.036v-0.791zM18.426 19.047c0.007-0.034 0.010-0.062 0.010-0.083 0-0.017-0.003-0.046-0.010-0.088-0.017-0.097-0.052-0.175-0.106-0.235s-0.11-0.096-0.171-0.108c-0.060-0.013-0.101-0.018-0.121-0.018-0.207 0-0.333 0.124-0.377 0.372v0.082c0 0.138 0.039 0.249 0.116 0.334s0.172 0.127 0.285 0.127c0.096 0 0.178-0.034 0.244-0.101s0.11-0.161 0.131-0.282zM19.864 18.116c0-0.162 0.056-0.298 0.166-0.408s0.249-0.166 0.413-0.166c0.155 0 0.29 0.057 0.404 0.171s0.171 0.25 0.171 0.408v1.716c0 0.162-0.056 0.299-0.168 0.411s-0.249 0.168-0.411 0.168c-0.162 0-0.298-0.055-0.408-0.166s-0.166-0.246-0.166-0.408v-1.727zM20.014 16.384c0.124-0.117 0.266-0.176 0.424-0.176 0.166 0 0.308 0.061 0.427 0.181s0.179 0.266 0.179 0.435-0.060 0.313-0.179 0.432c-0.119 0.119-0.261 0.178-0.427 0.178s-0.308-0.060-0.426-0.178c-0.119-0.119-0.179-0.265-0.179-0.437 0-0.169 0.060-0.314 0.181-0.435zM21.607 17.573v-0.243c0-0.162 0.058-0.299 0.173-0.411s0.251-0.168 0.406-0.168c0.159 0 0.294 0.059 0.406 0.176s0.168 0.255 0.168 0.413v0.233h0.067c0.128 0 0.241 0.046 0.339 0.138s0.147 0.205 0.147 0.337c0 0.126-0.045 0.234-0.135 0.322-0.103 0.102-0.22 0.153-0.352 0.153h-0.072v1.305c0 0.163-0.056 0.302-0.168 0.416s-0.247 0.171-0.406 0.171-0.295-0.058-0.408-0.176c-0.114-0.117-0.171-0.255-0.171-0.413v-1.303h-0.042c-0.144 0-0.269-0.052-0.372-0.155-0.089-0.089-0.134-0.196-0.134-0.321 0-0.134 0.050-0.247 0.15-0.338s0.217-0.137 0.352-0.137h0.052zM25.691 17.499c0.021-0.003 0.040-0.005 0.057-0.005 0.027 0 0.048 0 0.062 0 0.065 0 0.121 0.007 0.166 0.019s0.084 0.035 0.119 0.070c0.141 0.141 0.212 0.315 0.212 0.518v1.74c0 0.177-0.054 0.316-0.16 0.421-0.107 0.103-0.243 0.155-0.408 0.155-0.090 0-0.195-0.045-0.316-0.137-0.038-0.029-0.090-0.074-0.155-0.137v0.026c0 0.093-0.046 0.159-0.137 0.199s-0.215 0.059-0.37 0.059c-0.135 0-0.279-0.014-0.434-0.044s-0.305-0.094-0.45-0.193c-0.145-0.1-0.272-0.233-0.383-0.399-0.076-0.12-0.132-0.252-0.168-0.397s-0.054-0.299-0.054-0.464c0-0.344 0.108-0.645 0.323-0.901s0.475-0.413 0.778-0.472c0.097-0.017 0.181-0.026 0.253-0.026 0.259 0 0.472 0.079 0.641 0.238 0.017-0.031 0.034-0.056 0.052-0.073 0.104-0.118 0.227-0.183 0.372-0.198zM25.138 19.233c0.010-0.016 0.021-0.037 0.031-0.061s0.018-0.055 0.023-0.093c0.005-0.037 0.007-0.068 0.007-0.092s0-0.043 0-0.057c-0.025-0.174-0.105-0.291-0.243-0.349-0.066-0.024-0.12-0.036-0.163-0.036-0.092 0-0.172 0.033-0.243 0.097s-0.116 0.155-0.137 0.268v0.092c0 0.113 0.037 0.215 0.111 0.306s0.167 0.136 0.277 0.136c0.152 0 0.264-0.070 0.336-0.211z"></path>
<path fill="#4b798b" d="M23.365 7.954c0.824 0.162 1.869 0.771 2.431 1.16 3.887 2.684 4.891 8.19 2.040 12.087-0.782 1.069-2.302 2.524-3.971 3.007l0.023 0.365c0.759-0.18 1.846-0.875 2.374-1.268 3.98-2.961 4.792-8.83 1.55-12.792-0.516-0.631-1.179-1.262-1.918-1.759-0.486-0.326-1.822-1.081-2.504-1.152-0.076 0.13-0.046 0.271-0.025 0.353z"></path>
<path fill="#4b798b" d="M23.467 8.636c5.233 1.806 6.913 8.131 3.834 12.224-0.724 0.963-2.548 2.639-3.596 2.692l0.099 0.355c0.058-0.264 0.255-0.25 0.521-0.373 1.207-0.561 2.351-1.506 3.129-2.584 2.132-2.954 2.070-7.027-0.194-9.818-0.896-1.105-2.397-2.331-3.841-2.684-0.088 0.123-0.077-0.168-0.073 0.157l0.121 0.033z"></path>
<path fill="#373435" d="M18.236 9.464h0.43v1.634c0 0.054 0.008 0.089 0.023 0.104s0.050 0.023 0.104 0.023h0.077v0.058h-0.635v-0.058h0.084c0.057 0 0.093-0.007 0.109-0.022s0.023-0.050 0.023-0.105v-1.297c0-0.119-0.014-0.195-0.042-0.227-0.027-0.032-0.086-0.051-0.174-0.056v-0.055zM19.746 10.619c-0.162 0.022-0.281 0.068-0.361 0.137s-0.119 0.162-0.119 0.279c0 0.071 0.017 0.127 0.050 0.169s0.078 0.062 0.135 0.062c0.088 0 0.158-0.043 0.212-0.128s0.082-0.2 0.082-0.341v-0.178zM19.959 10.552v0.521c0 0.082 0.005 0.135 0.014 0.159s0.026 0.036 0.049 0.036c0.036 0 0.066-0.028 0.091-0.084s0.037-0.129 0.037-0.218v-0.024h0.050c0 0.013-0.001 0.029-0.001 0.048-0.001 0.018-0.002 0.029-0.002 0.032 0 0.098-0.021 0.175-0.063 0.232s-0.1 0.084-0.173 0.084c-0.062 0-0.112-0.022-0.148-0.067s-0.056-0.109-0.059-0.19c-0.035 0.086-0.085 0.15-0.149 0.193s-0.144 0.064-0.239 0.064c-0.105 0-0.19-0.027-0.255-0.082s-0.096-0.127-0.096-0.216c0-0.125 0.059-0.226 0.177-0.302s0.302-0.132 0.554-0.168v-0.147c0-0.105-0.019-0.181-0.057-0.226s-0.102-0.067-0.19-0.067c-0.069 0-0.132 0.012-0.186 0.037s-0.082 0.049-0.082 0.073c0 0.004 0.010 0.011 0.029 0.022 0.075 0.041 0.113 0.088 0.113 0.142 0 0.035-0.014 0.066-0.042 0.092s-0.061 0.038-0.099 0.038c-0.044 0-0.079-0.015-0.108-0.045s-0.042-0.069-0.042-0.116c0-0.083 0.042-0.155 0.127-0.212s0.191-0.086 0.319-0.086c0.074 0 0.142 0.011 0.204 0.034s0.11 0.054 0.145 0.095c0.030 0.036 0.051 0.076 0.064 0.123s0.019 0.123 0.019 0.229z"></path>
<path fill="#373435" d="M19.802 21.421c0.030-0.1 0.074-0.178 0.132-0.234s0.125-0.084 0.199-0.084c0.099 0 0.174 0.039 0.225 0.117s0.078 0.192 0.078 0.342v0.427c0 0.049 0.007 0.080 0.021 0.093s0.044 0.020 0.092 0.020h0.080v0.052h-0.564v-0.052h0.069c0.049 0 0.080-0.007 0.093-0.021s0.020-0.045 0.020-0.092v-0.622c0-0.069-0.011-0.12-0.034-0.154s-0.058-0.050-0.105-0.050c-0.088 0-0.16 0.053-0.217 0.16s-0.086 0.246-0.086 0.418v0.249c0 0.048 0.007 0.078 0.021 0.092s0.046 0.021 0.095 0.021h0.061v0.052h-0.518v-0.052h0.040c0.048 0 0.078-0.007 0.092-0.021s0.021-0.045 0.021-0.092v-0.622c0-0.069-0.011-0.12-0.035-0.154s-0.058-0.050-0.105-0.050c-0.087 0-0.159 0.053-0.216 0.16s-0.086 0.246-0.086 0.418v0.249c0 0.048 0.007 0.078 0.021 0.092s0.045 0.021 0.093 0.021h0.070v0.052h-0.563v-0.052h0.071c0.050 0 0.082-0.007 0.097-0.020s0.022-0.044 0.022-0.093v-0.652c0-0.072-0.011-0.117-0.032-0.135s-0.070-0.027-0.145-0.027h-0.027v-0.052l0.393-0.012v0.308c0.027-0.098 0.071-0.175 0.131-0.231s0.127-0.084 0.202-0.084c0.080 0 0.144 0.027 0.194 0.081s0.085 0.132 0.103 0.236zM21.201 21.125c-0.090 0-0.158 0.043-0.203 0.128s-0.067 0.212-0.067 0.384c0 0.171 0.022 0.298 0.067 0.384s0.113 0.128 0.203 0.128c0.091 0 0.16-0.042 0.205-0.128s0.068-0.213 0.068-0.384c0-0.172-0.022-0.3-0.068-0.384s-0.114-0.127-0.205-0.127zM21.202 21.077c0.048 0 0.094 0.008 0.139 0.025s0.086 0.041 0.124 0.073c0.069 0.061 0.124 0.132 0.163 0.214s0.058 0.164 0.058 0.248c0 0.085-0.019 0.169-0.059 0.252-0.038 0.082-0.093 0.153-0.162 0.21-0.037 0.032-0.078 0.056-0.123 0.073s-0.092 0.025-0.14 0.025c-0.038 0-0.075-0.006-0.112-0.017s-0.073-0.027-0.107-0.049c-0.077-0.050-0.141-0.121-0.191-0.214s-0.075-0.186-0.075-0.281c0-0.146 0.049-0.277 0.146-0.39 0.099-0.113 0.211-0.17 0.339-0.17zM21.692 21.123h0.608l-0.001 0.052c-0.064 0.002-0.111 0.007-0.14 0.017s-0.044 0.025-0.044 0.044c0 0.014 0.002 0.029 0.005 0.042s0.007 0.030 0.014 0.049l0.242 0.636 0.192-0.498c0.011-0.030 0.020-0.060 0.026-0.089s0.010-0.055 0.010-0.076c0-0.037-0.013-0.066-0.038-0.085s-0.068-0.034-0.129-0.042v-0.049h0.451v0.049c-0.056 0.003-0.104 0.025-0.143 0.067-0.039 0.041-0.079 0.113-0.12 0.215l-0.292 0.746h-0.050l-0.32-0.826c-0.030-0.077-0.063-0.13-0.1-0.157s-0.094-0.042-0.17-0.044v-0.049zM23.254 21.111v0.878c0 0.048 0.007 0.078 0.021 0.092s0.045 0.021 0.093 0.021h0.070v0.052h-0.578v-0.052h0.086c0.050 0 0.082-0.007 0.097-0.020s0.022-0.044 0.022-0.093v-0.652c0-0.072-0.011-0.117-0.032-0.135s-0.070-0.027-0.145-0.027h-0.027v-0.052l0.393-0.012zM23.132 20.509c0.035 0 0.066 0.012 0.092 0.036s0.038 0.054 0.038 0.089c0 0.037-0.012 0.068-0.037 0.092s-0.056 0.037-0.092 0.037-0.067-0.012-0.092-0.037c-0.025-0.024-0.037-0.055-0.037-0.092 0-0.034 0.013-0.063 0.038-0.088s0.056-0.037 0.090-0.037zM23.496 20.538h0.381v1.451c0 0.048 0.007 0.078 0.021 0.092s0.045 0.021 0.092 0.021h0.069v0.052h-0.563v-0.052h0.074c0.050 0 0.083-0.007 0.097-0.020s0.021-0.044 0.021-0.093v-1.151c0-0.105-0.012-0.173-0.037-0.202s-0.076-0.045-0.154-0.049v-0.049z"></path>
</svg>
