<!-- Generated by IcoMoon.io -->
<svg version="1.1" xmlns="http://www.w3.org/2000/svg" width="32" height="32" viewBox="0 0 32 32">
<title>logo-la-mas-draga-drag-queen</title>
<path fill="#fcd8e8" d="M12.614 26.813c0.078 0.163-0.133 0.117 0.141 0.139 0.197 0.016 0.148-0.080 0.179-0.139-0.029-0.040 0.017-0.093-0.132-0.11-0.275-0.033-0.132 0.062-0.189 0.11z"></path>
<path fill="#fcd8e8" d="M7.703 26.758l-0.005 0.184c0.302 0.019 0.214 0.046 0.313-0.13-0.131-0.147-0.145-0.153-0.308-0.054z"></path>
<path fill="#fcd8e8" d="M6.727 27.074c-0.199-0.034-0.073 0.027-0.124 0.065 0.074 0.101-0.116 0.088 0.117 0.127 0.208 0.035 0.084-0.035 0.133-0.073-0.069-0.135 0.057-0.087-0.127-0.119z"></path>
<path fill="#fcd8e8" d="M6.605 26.758c0.048 0.269 0.184 0.234 0.227-0.017-0.111-0.037 0.034-0.042-0.112-0.025-0.093 0.011-0.062 0.013-0.116 0.042z"></path>
<path fill="#b192ae" d="M9.627 14.979l0.097 0.133c0.167-0.079 0.226-0.121 0.374-0.204l0.371-0.247-0.175-0.037c0.009-0.285-0.048-0.192 0.152-0.247l-0.796-0.269c0.013 0.013 0.032 0.015 0.040 0.040 0.025 0.081 0.044 0.045 0.073 0.065 0.046 0.031 0.068 0.034 0.097 0.048 0.006 0.142 0.027 0.321 0.013 0.459-0.023 0.237-0.032 0.243-0.245 0.26z"></path>
<path fill="#b192ae" d="M16.149 12.158c0.334-0.074 0.279-0.050 0.494-0.442-0.165 0.030-0.271 0.048-0.346 0.163l-0.148 0.279z"></path>
<path fill="#dee55c" d="M18.996 15.178l0.196-0.159c0.099-0.395 0.465-0.662 0.617-1.177-0.007-0.096-0.006-0.155-0.033-0.251-0.042-0.148-0.036-0.105-0.088-0.172-0.168 0.155-0.269 0.58-0.355 0.839-0.14 0.425-0.227 0.503-0.427 0.836 0.080 0.108-0.054 0.034 0.089 0.085z"></path>
<path fill="#dee55c" d="M12.32 13.843c0.197 0.283 0.387 0.728 0.645 0.935-0.022-0.234-0.381-1.28-0.507-1.465-0.175 0.141-0.133 0.255-0.138 0.53z"></path>
<path fill="#6b69e9" d="M4.247 11.36l0.745 0.363-0.202-0.543c-0.006-0.011-0.019-0.029-0.025-0.037s-0.016-0.025-0.025-0.037c-0.163 0.104-0.684-0.423-1.209-0.612 0.099 0.223 0.212 0.19 0.499 0.527 0.007 0.009 0.017 0.021 0.024 0.029 0.131 0.145 0.203 0.1 0.193 0.311z"></path>
<path fill="#6b69e9" d="M27.591 11.014l-0.292 0.644 0.508-0.19c0.090-0.204 0.334-0.421 0.503-0.581 0.196-0.184 0.407-0.269 0.562-0.47l-0.046 0.001c-0.337 0.137-0.866 0.675-1.235 0.596z"></path>
<path fill="#d256af" d="M25.296 9.62l-1.284 1.257c-0.1 0.102-0.057-0.025-0.082 0.197l0.331-0.227c0.184-0.116 0.358-0.207 0.521-0.335 0.185-0.145 0.349-0.31 0.535-0.413 0.156-0.238 0.399-0.506 0.597-0.742 0.212-0.252 0.423-0.502 0.612-0.777-0.211 0.122-1.149 1.039-1.228 1.039z"></path>
<path fill="#d256af" d="M6.791 9.989l0.455 0.349 0.264 0.031c-0.055-0.332 0.029-0.116-0.132-0.316l-0.538-0.496c-0.275-0.194-0.859-0.854-1.173-1.004 0.088 0.198 0.397 0.522 0.549 0.714 0.179 0.225 0.461 0.507 0.575 0.722z"></path>
<path fill="#d256af" d="M10.365 26.563c-0.073 0.157-0.052 0.675-0.014 0.869l0.479-0.022c-0.050-0.247-0.034-0.062-0.306-0.163l-0.051-0.69-0.108 0.006z"></path>
<path fill="#71aeb8" d="M24.26 10.847c0.216-0.020 0.048-0.025 0.116 0.079-0.55 0.4-0.076 0.174-0.428 0.76 0.040 0.013 0.1 0.017 0.105 0.018l0.126 0.051c0.011 0.005 0.031 0.013 0.045 0.023l-0.111 0.423c-0.005 0.013-0.027 0.062-0.036 0.078 0.287-0.137 0.636-0.282 0.83-0.492-0.067-0.087-0.034-0.044-0.064-0.162-0.002-0.009-0.005-0.025-0.007-0.034-0.040-0.195 0.047-0.27 0.126-0.412-0.38 0.048-0.622 0.419-0.904 0.478 0.027-0.207 0.009-0.082 0.117-0.229 0.196-0.263 0.324-0.336 0.525-0.565 0.124-0.142 0.206-0.275 0.341-0.42l0.282-0.265c0.074-0.090 0.018 0.001 0.069-0.111l-0.076 0.033c-0.186 0.102-0.35 0.267-0.535 0.413-0.162 0.128-0.336 0.219-0.521 0.335z"></path>
<path fill="#71aeb8" d="M10.469 14.661l0.101 0.030-0.124 0.726c0.217 0.152 0.674 0.34 0.955 0.124-0.32-0.042-0.343-0.011-0.552-0.141-0.005-0.104-0.023-0.496-0.009-0.576 0.046-0.243 0.156-0.133 0.412-0.141-0.113-0.109-0.21-0.121-0.38-0.179s-0.247-0.093-0.427-0.125c-0.2 0.055-0.143-0.038-0.152 0.247l0.175 0.037z"></path>
<path fill="#71aeb8" d="M21.119 14.63c0.356-0.011 0.42-0.15 0.439 0.294 0.003 0.071-0.001 0.319-0.015 0.38-0.078 0.326-0.052-0.077-0.122 0.271 0.187-0.037 0.294-0.1 0.42-0.176l-0.107-0.755 0.316 0.1c0.196 0.008 0.069 0.008 0.132-0.031 0.001-0.252 0.026-0.277-0.102-0.46-0.267 0.067-0.809 0.211-0.96 0.377z"></path>
<path fill="#93e86e" d="M9.758 11.696c0.045 0.091 0.065 0.11 0.091 0.22l0.752 0.684c0.45 0.414 0.495 0.589 0.793 0.59l-0.119-0.601h-0.065l-0.057 0.245c-0.311-0.112-0.097-0.166-0.564-0.707-0.136-0.157-0.121-0.095-0.172-0.324-0.32-0.216-0.499-0.724-0.879-0.871 0.029 0.305 0.22 0.683 0.22 0.765z"></path>
<path fill="#93e86e" d="M21.746 11.865c-0.22 1.031 0.090 0.349-0.559 1.081-0.146 0.164-0.135 0.223-0.381 0.273l0.059-0.466c-0.073 0.076-0.034 0.006-0.085 0.115-0.064 0.138-0.027 0.050-0.059 0.202l-0.012 0.285c0.38 0.021 0.323-0.092 0.519-0.309l0.136-0.134c0.008-0.008 0.019-0.019 0.027-0.028l0.056-0.056c0.104-0.1 0.137-0.132 0.239-0.191 0.086-0.222 0.156-0.308 0.282-0.427 0.086-0.082 0.108-0.096 0.187-0.195 0.167-0.21-0.037-0.098 0.212-0.184l0.079-0.108c-0.005-0.010-0.008-0.040-0.008-0.033l0.070-0.293c0.069-0.154 0.102-0.253 0.124-0.447-0.25 0.109-0.692 0.697-0.886 0.916z"></path>
<path fill="#e513d6" d="M18.162 7.34l0.385 0.203c-0.056 0.393-0.405 0.776-0.472 1.128 0.173-0.109 1.036-0.99 1.122-1.187l-0.384-0.215c0.070-0.382 0.372-0.738 0.48-1.133-0.206 0.137-0.408 0.381-0.566 0.55-0.163 0.175-0.481 0.435-0.566 0.652z"></path>
<path fill="#e513d6" d="M13.437 7.764c0.253-0.044 0.19-0.116 0.435-0.156l0.435 0.801c0.090 0.117 0.014 0.044 0.128 0.127l-0.225-1.478c-0.281-0.002-0.242 0.099-0.499 0.15l-0.572-1.068c-0.017 0.324 0.162 1.397 0.297 1.625z"></path>
<path fill="#8a6bb6" d="M6.84 9.557l0.538 0.496c0.16 0.2 0.077-0.016 0.132 0.316l-0.264-0.031c0.143 0.177 0.529 0.391 0.727 0.522 0.436 0.089 0.105 0.052 0.235-0.113l-0.107-0.102c-0.008-0.007-0.022-0.017-0.030-0.025s-0.022-0.017-0.030-0.025c-0.148-0.139-0.084-0.151-0.218-0.278-0.072-0.069-0.044-0.022-0.095-0.068-0.124-0.113-0.080-0.048-0.112-0.267 0.419 0.018 0.255 0.284 0.482 0.17-0.147-0.205-1.455-1.499-1.624-1.578l0.364 0.983z"></path>
<path fill="#8a6bb6" d="M24.131 10.142l0.301-0.010c-0.048 0.196-0.090 0.22-0.212 0.358-0.188 0.214-0.176 0.155-0.209 0.387l1.284-1.257 0.342-0.904c-0.204 0.096-1.431 1.281-1.506 1.427z"></path>
<path fill="#cd28aa" d="M2.832 10.805l1.415 0.555c0.010-0.211-0.062-0.165-0.193-0.311-0.007-0.008-0.017-0.021-0.024-0.029-0.286-0.337-0.4-0.305-0.499-0.527l-0.285-0.176c-0.542-0.277-1.259-0.792-1.776-0.976 0.121 0.209 1.365 1.315 1.495 1.391-0.097 0.128 0.031 0.034-0.133 0.073z"></path>
<path fill="#cd28aa" d="M28.873 10.417c-0.156 0.2-0.366 0.285-0.562 0.47-0.169 0.16-0.413 0.377-0.503 0.581l1.439-0.623c-0.035-0.112-0.049-0.013 0.078-0.135 0.316-0.305 1.095-0.951 1.268-1.232-0.427 0.128-1.306 0.726-1.719 0.938z"></path>
<path fill="#6888cb" d="M7.973 10.86l1.905 1.275-0.029-0.22c-0.026-0.11-0.046-0.129-0.091-0.22-0.14-0.131-0.225-0.197-0.394-0.358-0.176-0.167-0.265-0.255-0.411-0.403-0.205-0.206-0.64-0.649-0.853-0.783-0.227 0.114-0.064-0.152-0.482-0.17 0.032 0.219-0.011 0.154 0.112 0.267 0.051 0.046 0.022-0.001 0.095 0.068 0.133 0.127 0.069 0.139 0.218 0.278 0.008 0.007 0.022 0.017 0.030 0.025s0.022 0.018 0.030 0.025l0.107 0.102c-0.13 0.165 0.2 0.202-0.235 0.113z"></path>
<path fill="#6888cb" d="M22.884 11.363c0.128 0.089-0.144-0.049 0.107 0.052l0.097 0.236c0.241-0.093 0.57-0.403 0.842-0.577 0.026-0.222-0.018-0.095 0.082-0.197 0.033-0.232 0.021-0.173 0.209-0.387 0.121-0.139 0.164-0.162 0.212-0.358l-0.301 0.010-0.924 0.86c-0.165 0.155-0.22 0.182-0.324 0.361z"></path>
<path fill="#4da9e7" d="M5.052 10.085l1.92 1.449c0.397 0.030 0.129 0.105 0.333-0.175-0.098-0.247 0.022 0.019-0.338-0.392-0.145-0.167-0.259-0.223-0.387-0.396l-0.741-0.548c-0.38-0.267-0.407-0.478-0.79-0.486-0.003 0.254 0.038 0.313 0.127 0.506l-0.124 0.042z"></path>
<path fill="#4da9e7" d="M22.446 11.721l-0.079 0.108c-0.060 0.178-0.141 0.255-0.149 0.46 0.043-0.037 0.492-0.317 0.573-0.357 0.156-0.127 0.205-0.111 0.297-0.281l-0.097-0.236c-0.251-0.101 0.021 0.037-0.107-0.052-0.104 0.026 0.007-0.029-0.095 0.042-0.054 0.037-0.067 0.057-0.111 0.099-0.088 0.085-0.136 0.131-0.233 0.217z"></path>
<path fill="#4da9e7" d="M11.4 15.54c0.268 0.008 0.084-0.002 0.152-0.078l-0.427-0.019c0.042-0.137 0.056-0.085 0.053-0.296-0.002-0.216-0.037-0.161-0.047-0.345l0.403-0.015c-0.063-0.062 0.003-0.037-0.102-0.079-0.127-0.049-0.022-0.029-0.181-0.027-0.256 0.008-0.366-0.102-0.412 0.141-0.015 0.080 0.003 0.472 0.009 0.576 0.209 0.131 0.232 0.099 0.552 0.141z"></path>
<path fill="#f30f8f" d="M4.245 10.565l0.376 0.234-0.535-1.38c-0.109-0.164-0.196-0.459-0.362-0.565-0.183-0.189-1.181-0.824-1.443-0.933 0.090 0.233 0.75 1.043 0.968 1.324l0.996 1.32z"></path>
<path fill="#f30f8f" d="M28.329 8.953c-0.074 0.171-0.157 0.327-0.219 0.481 0.101 0.154-0.059 0.407-0.162 0.655-0.088 0.212-0.166 0.454-0.253 0.653 0.168-0.066 0.195-0.12 0.306-0.246 0.241-0.376 0.644-0.865 0.923-1.224 0.253-0.325 0.743-0.909 0.919-1.24-0.334 0.090-1.144 0.724-1.514 0.92z"></path>
<path fill="#e73973" d="M16.372 14.448c-0.090-0.034-0.151 0.037-0.137-0.33 0.006-0.146 0.015-0.29 0.019-0.438 0.015-0.489-0.046-0.615 0.118-0.717 0.079 0.144 0.058 0.159 0.065 0.392 0.005 0.136 0.012 0.249 0.018 0.381 0.027 0.601 0.093 0.609-0.084 0.712zM15.579 15.558l0.66 0.002c0.005-0.274-0.1-0.218-0.053-0.608 0.096-0.029 0.032-0.029 0.138-0.026 0.326 0.009-0.219-0.041 0.092 0.010l0.089 0.029c0.074 0.277-0.007 0.329-0.048 0.596l0.664-0.009c-0.093-0.376-0.122-0.047-0.166-0.728-0.046-0.716-0.191-1.753-0.052-2.389l-1.094-0.012c0.116 0.692-0.011 1.657-0.055 2.457-0.024 0.435-0.165 0.46-0.175 0.68z"></path>
<path fill="#e73973" d="M13.985 15.312l0.557 0.011c-0.101-0.475-0.162-1.037-0.101-1.563 0.033 0.197 0.096 0.399 0.135 0.625 0.044 0.258 0.017 0.511 0.22 0.573 0.144-0.251 0.112-0.784 0.277-1.066 0.015 0.566 0.002 0.949-0.112 1.424l0.563 0.007c-0.174-0.632-0.16-1.998-0.009-2.645l-0.538 0.026c-0.092 0.295-0.087 0.75-0.235 0.962l-0.2-0.968-0.539-0.024c0.145 0.715 0.164 1.982-0.016 2.636z"></path>
<path fill="#e73973" d="M15.579 6.787l0.644 0.009c0.137 0.387 0.005 1.28 0.060 1.759l0.739-2.23-0.696-0.035-0.012-1.748c-0.147 0.186-0.698 1.894-0.735 2.245z"></path>
<path fill="#e73973" d="M17.254 13.191c0.001 0.568-0.060 0.546 0.258 0.871 0.2 0.204 0.356 0.407 0.219 0.813-0.334 0.015-0.239-0.106-0.477-0.204l0.015 0.607c0.773 0.162 0.885-0.001 0.887-0.673 0.002-1.015-0.536-0.416-0.496-1.494 0.275 0.045 0.163 0.086 0.394 0.133l0.056-0.531c-0.594-0.046-0.857-0.137-0.856 0.479z"></path>
<path fill="#e73973" d="M20.477 27.42c0.045-0.042 0.037-0.025 0.083-0.091l0.143-0.293c0.123 0.234-0.022 0.287 0.208 0.381 0.026-0.052 0.028-0.019 0.036-0.111l-0.045-0.324c-0.025-0.147-0.057-0.321-0.103-0.433-0.171 0.141-0.173 0.336-0.322 0.518-0.109-0.133-0.166-0.437-0.326-0.505-0.048 0.108-0.195 0.676-0.108 0.854 0.172-0.050 0.078 0.011 0.139-0.125l0.078-0.21c0.101 0.153 0.085 0.208 0.218 0.337z"></path>
<path fill="#e73973" d="M14.225 27.418c0.284-0.082 0.054-0.136 0.218-0.37l0.217 0.371c0.139-0.098 0.168-0.257 0.226-0.384 0.085 0.147 0.032 0.108 0.075 0.224 0.057 0.153-0.003 0.102 0.135 0.162 0.031-0.060 0.030-0.016 0.041-0.119l-0.121-0.742c-0.253 0.156-0.161 0.304-0.355 0.507-0.251-0.357-0.063-0.356-0.346-0.498-0.022 0.144-0.044 0.313-0.081 0.475-0.058 0.254-0.068 0.235-0.007 0.373z"></path>
<path fill="#e73973" d="M23.571 26.852c0.414-0.326 0.671 0.044 0.396 0.416l-0.363-0.061-0.033-0.355zM23.381 27.084c0.088 0.541 1.030 0.448 0.886-0.206-0.107-0.487-0.989-0.429-0.886 0.206z"></path>
<path fill="#e73973" d="M22.217 27.421c0.153-0.077 0.086 0.099 0.117-0.223 0.007-0.073-0.001-0.169 0.009-0.262 0.13 0.112 0.396 0.457 0.543 0.491 0.021-0.171 0.015-0.334 0.018-0.509 0.004-0.272 0.073-0.33-0.164-0.357l-0.023 0.435c-0.291-0.135-0.252-0.323-0.564-0.428-0.001 0.155-0.002 0.309-0.004 0.464-0.003 0.31-0.015 0.267 0.069 0.389z"></path>
<path fill="#e73973" d="M12.756 26.952c-0.275-0.022-0.064 0.024-0.141-0.139 0.057-0.048-0.086-0.143 0.189-0.11 0.149 0.017 0.102 0.070 0.132 0.11-0.031 0.059 0.018 0.155-0.179 0.139zM13.083 27.413c-0.226-0.693 0.078-0.203 0.010-0.65-0.042-0.274-0.4-0.226-0.634-0.193-0.036 0.243-0.062 0.647 0.026 0.843 0.174-0.051 0.081 0.019 0.141-0.158 0.006-0.016-0.009-0.061 0.022-0.146 0.371 0.073-0.019 0.301 0.435 0.304z"></path>
<path fill="#e73973" d="M6.604 27.139c0.051-0.038-0.076-0.099 0.124-0.065 0.183 0.032 0.057-0.015 0.127 0.119-0.049 0.037 0.075 0.108-0.133 0.073-0.233-0.040-0.043-0.026-0.117-0.127zM6.832 26.742c-0.044 0.25-0.18 0.286-0.227 0.017 0.054-0.029 0.023-0.030 0.116-0.042 0.145-0.017 0.001-0.012 0.112 0.025zM6.966 27.38c0.118-0.227 0.083-0.107 0.025-0.343-0.046-0.191 0.036-0.106 0-0.392-0.215-0.119-0.213-0.093-0.541-0.089l-0.016 0.88 0.532-0.056z"></path>
<path fill="#e73973" d="M8.011 26.813c-0.099 0.176-0.010 0.149-0.313 0.13l0.005-0.184c0.163-0.099 0.176-0.093 0.308 0.054zM8.162 27.427c-0.046-0.192-0.115-0.206-0.068-0.376 0.036-0.132 0.145-0.107 0.076-0.325-0.070-0.224-0.382-0.18-0.613-0.163-0.049 0.217-0.089 0.672 0.034 0.857 0.139-0.066 0.064-0.013 0.119-0.168 0.032-0.090-0.039-0.010 0.045-0.153 0.301 0.134 0.010 0.263 0.407 0.328z"></path>
<path fill="#e73973" d="M4.559 27.406c0.228 0.005 0.136 0.009 0.262-0.133 0.539-0.014 0.172 0.098 0.573 0.137l-0.409-0.848c-0.146 0.113-0.369 0.632-0.425 0.844z"></path>
<path fill="#e73973" d="M11.204 27.427c0.333-0.087 0.077-0.162 0.409-0.151 0.357 0.011 0.029 0.096 0.417 0.132l-0.415-0.846c-0.158 0.122-0.361 0.617-0.411 0.865z"></path>
<path fill="#e73973" d="M25.658 27.401c0.406 0.041-0.016-0.133 0.419-0.128 0.361 0.004 0.030 0.093 0.421 0.138l-0.42-0.85c-0.156 0.145-0.339 0.619-0.419 0.84z"></path>
<path fill="#e73973" d="M19.173 26.758c0.219-0.119 0.296 0.047 0.373-0.163-0.144-0.069-0.377-0.054-0.558-0.014v0.799c0.143 0.057 0.275 0.079 0.45 0.038 0.109-0.026 0.056-0.018 0.114-0.061-0.125-0.104-0.068-0.040-0.215-0.077-0.201-0.050-0.066 0.070-0.167-0.086 0.121-0.293 0.192 0.029 0.319-0.217-0.095-0.139 0.002-0.012-0.158-0.078-0.159-0.066-0.102 0.028-0.157-0.14z"></path>
<path fill="#e73973" d="M27.064 26.758c0.223-0.132 0.105 0.040 0.322-0.054-0.080-0.253-0.256-0.198-0.498-0.062-0.061 0.605 0.274 0.187 0.333 0.606-0.194 0.082-0.057-0.001-0.224 0.015l-0.112 0.040c0.16 0.244 0.372 0.169 0.538 0 0.058-0.495-0.241-0.232-0.36-0.543z"></path>
<path fill="#e73973" d="M24.917 26.758c0.156-0.078 0.038-0.022 0.2-0.033 0.089-0.006-0.035 0.063 0.12-0.022-0.090-0.282-0.503-0.188-0.52 0.058-0.023 0.345 0.304 0.155 0.361 0.485-0.137 0.061-0.057 0.014-0.17 0.015l-0.183 0.040c0.141 0.26 0.411 0.133 0.538 0 0.144-0.306-0.245-0.296-0.347-0.543z"></path>
<path fill="#e73973" d="M16.826 26.649c-0.184-0.178-0.508-0.139-0.528 0.115-0.027 0.337 0.309 0.15 0.36 0.483-0.204 0.089 0.017-0.014-0.257 0.023l-0.083 0.032c0.247 0.341 0.544 0.003 0.55-0.012 0.116-0.278-0.279-0.316-0.368-0.531l0.325-0.109z"></path>
<path fill="#e73973" d="M18.15 26.758c0.208-0.114 0.287 0.050 0.371-0.163-0.147-0.066-0.337-0.044-0.528-0.035-0.033 0.173-0.027 0.296-0.029 0.471-0.003 0.491 0.015 0.312 0.066 0.389 0.185-0.090 0.089-0.018 0.13-0.312 0.198-0.018 0.2-0.001 0.31-0.078-0.173-0.298-0.288 0.14-0.32-0.271z"></path>
<path fill="#e73973" d="M9.441 26.553c-0.135 0.179-0.066 0.615-0.064 0.871 0.223 0.006 0.354 0.045 0.506-0.068-0.105-0.141-0.092-0.074-0.322-0.107-0.004-0.148 0.003-0.299-0.001-0.442-0.007-0.258 0.034-0.191-0.119-0.254z"></path>
<path fill="#e73973" d="M15.639 27.030c0 0.040-0.005 0.251 0.001 0.273 0.044 0.178-0.034 0.048 0.108 0.119 0.095-0.156 0.062-0.285 0.063-0.502 0.001-0.246 0.060-0.299-0.117-0.364-0.090 0.141-0.055 0.247-0.054 0.474z"></path>
<path fill="#e73973" d="M8.734 26.557c-0.092 0.14-0.058 0.732-0.055 0.746 0.045 0.179-0.035 0.048 0.109 0.118l0.064-0.224c0.027-0.407 0.046-0.58-0.118-0.639z"></path>
<path fill="#e73973" d="M21.443 27.25c0.023 0.19 0.019 0.1 0.067 0.174 0.149-0.074 0.111 0.151 0.116-0.448 0.005-0.497-0.004-0.344-0.116-0.403l-0.067 0.677z"></path>
<path fill="#16d5e7" d="M26.16 9.504c0.004 0.18-0.16 0.278-0.427 0.433 0.112 0.238 0.119 0.22-0.009 0.474l0.174 0.007c0.122-0.031 0.433-0.294 0.539-0.37 0.112-0.081 0.138-0.102 0.246-0.19 0.126-0.101 0.156-0.132 0.339-0.14 0.017 0.227-0.040 0.34 0.044 0.479 0.332-0.171 0.756-0.551 1.044-0.764 0.062-0.154 0.145-0.31 0.219-0.481 0.17-0.38 0.757-1.283 0.795-1.551-0.318 0.128-1.062 0.74-1.479 1.025-0.463 0.315-1.095 0.763-1.484 1.078z"></path>
<path fill="#16d5e7" d="M3.724 8.854c0.166 0.105 0.253 0.4 0.363 0.565l0.966 0.666 0.124-0.042c-0.089-0.193-0.13-0.251-0.127-0.506 0.383 0.008 0.41 0.218 0.79 0.486l0.741 0.548c-0.041-0.259 0.034-0.055-0.128-0.179-0.108-0.082-0.119-0.097-0.25-0.131 0.041-0.090 0.19-0.131-0.027-0.56-0.124-0.247-0.046 0.095-0.137-0.245-0.265-0.223-2.777-2.046-3.033-2.129 0.066 0.233 0.432 0.871 0.582 1.144l0.138 0.283c0.017 0.082 0.011 0.060-0.001 0.1z"></path>
<path fill="#16d5e7" d="M3.247 10.316l0.285 0.176c0.525 0.189 1.046 0.716 1.209 0.612l-0.119-0.305-0.376-0.234c-0.396-0.402-2.040-1.663-2.682-2.189-0.249-0.204-0.743-0.607-0.929-0.702 0.242 0.335 2.621 2.486 2.613 2.642z"></path>
<path fill="#16d5e7" d="M28.001 10.496c-0.111 0.127-0.138 0.18-0.306 0.246l-0.104 0.271c0.369 0.078 0.898-0.459 1.235-0.596 0.32-0.397 2.010-1.896 2.541-2.546l-3.175 2.523c-0.153 0.129-0.135 0.107-0.191 0.101z"></path>
<path fill="#16d5e7" d="M11.552 15.462c0.371-0.083 0.151-0.455 0.331-0.573-0.112-0.093-0.202-0.106-0.348-0.101l-0.403 0.015c0.010 0.184 0.045 0.129 0.047 0.345 0.002 0.211-0.011 0.159-0.053 0.296l0.427 0.019z"></path>
<path fill="#16d5e7" d="M20.702 15.398l0.386 0.012c0.172-0.614 0.25-0.616-0.383-0.652-0.176 0.025-0.132-0.004-0.227 0.090 0.015 0.269-0.015 0.479 0.224 0.55z"></path>
<path fill="#252223" d="M23.205 7.852c-0.097-0.165 0.002-0.112-0.147-0.268-0.367 0.010-0.648 0.641-0.969 1.161l-0.634 0.996c-0.092 0.149-0.111 0.226-0.27 0.333 0.029-0.312 0.166-0.761 0.023-0.998-0.195 0.035-0.126 0.008-0.22 0.196-0.245 0.49-0.933 1.996-1.133 2.245 0.027-0.3 0.107-0.503 0.040-0.82-0.477 0.050-0.797 1.735-0.774 1.833 0.035-0.241 0.179-0.651 0.263-0.888 0.096-0.271 0.194-0.644 0.441-0.811-0.013 0.616-0.243 1.069-0.307 1.611 0.148-0.144 1.397-2.586 1.402-2.592 0.050-0.072 0.039-0.057 0.082-0.102l-0.175 1.052c-0.053 0.272-0.034 0.256 0.015 0.344l1.863-2.858-0.157 0.631c0.287-0.145 0.838-0.823 1.056-1.052 0.379-0.399 0.755-0.709 1.047-1.014l0.056 0.292 2.031-1.652-0.107 0.242c1.235 0.065 1.485 0.204 2.37 0.865 0.179 0.134 0.453 0.338 0.633 0.435-0.119-0.182-0.85-0.784-1.056-0.939-0.448-0.336-0.809-0.475-1.506-0.566 0.063-0.154 0.408-0.522 0.014-0.543-0.314-0.016-1.551 1.029-1.772 1.222-0.429 0.375-0.206-0.061-0.612 0.143-0.136 0.069-1.384 1.305-1.498 1.5z"></path>
<path fill="#252223" d="M5.293 5.367c-0.6 0.063-1.1 0.264-1.478 0.542-0.216 0.159-0.964 0.782-1.078 0.961 1.067-0.66 1.231-1.229 2.992-1.298l-0.095-0.244c0.292 0.138 0.753 0.573 0.979 0.771 0.318 0.28 0.673 0.566 1.006 0.849 0.080-0.102 0.046-0.156 0.104-0.264l1.033 1.022c0.246 0.231 0.82 0.927 1.054 1.046l-0.168-0.642c0.096 0.16 0.362 0.523 0.47 0.685 0.321 0.48 1.252 1.986 1.479 2.179-0.022-0.241-0.074-0.47-0.12-0.711-0.108-0.557-0.107-0.435-0.069-0.598 0.003-0.014 0.014-0.034 0.017-0.045s0.010-0.031 0.019-0.046l1.444 2.798c-0.078-0.566-0.301-1.055-0.345-1.713 0.171 0.1 0.053-0.011 0.174 0.162 0.188 0.268 0.511 1.471 0.592 1.587-0.123-0.478-0.266-1.079-0.476-1.541-0.098-0.214-0.132-0.33-0.349-0.328-0.059 0.315 0.010 0.503 0.033 0.804-0.159-0.198-0.889-1.754-1.106-2.206-0.095-0.199-0.048-0.204-0.251-0.23-0.146 0.302 0.062 0.736 0.026 1.096l-1.382-2.194c-0.195-0.316-0.348-0.61-0.618-0.228l-0.050 0.081c-0.28-0.436-0.885-0.951-1.286-1.325-0.42-0.392-0.362-0.113-0.575-0.159-0.195-0.042-1.566-1.467-2.128-1.337-0.092 0.31 0.062 0.238 0.156 0.523z"></path>
<path fill="#54e6cc" d="M6.581 10.571c0.128 0.174 0.241 0.23 0.387 0.396 0.36 0.412 0.239 0.145 0.338 0.392-0.204 0.279 0.065 0.204-0.333 0.175l5.203 2.974c0.281 0.159 0.544 0.329 0.803 0.415l-0.014-0.145c-0.258-0.207-0.448-0.652-0.645-0.935-0.015-0.212-0.547-0.932-0.748-1.284l-0.191-0.301c-0.142-0.154-0.014-0.034-0.139-0.12l0.033 0.451 0.119 0.601c-0.298-0.001-0.342-0.176-0.793-0.59l-0.752-0.684 0.029 0.22-1.905-1.275c-0.199-0.132-0.584-0.345-0.727-0.522l-0.455-0.349c-0.112-0.106-0.203-0.158-0.335-0.258-0.111-0.084-0.084-0.079-0.178-0.145-0.133-0.095-0.102-0.072-0.241-0.129 0.091 0.34 0.013-0.002 0.137 0.245 0.216 0.429 0.068 0.47 0.027 0.56 0.131 0.034 0.143 0.049 0.25 0.131 0.162 0.124 0.087-0.081 0.128 0.179z"></path>
<path fill="#54e6cc" d="M19.809 13.842c-0.152 0.515-0.518 0.782-0.617 1.177 0.2-0.108 0.437-0.267 0.676-0.396 0.212-0.116 0.492-0.258 0.687-0.389 0.054-0.236 0.064-0.076 0.085-0.339 0.012-0.155-0.019-0.26-0.033-0.357-0.028-0.204 0.037-0.326 0.115-0.469 0.032-0.152-0.005-0.064 0.059-0.202 0.051-0.109 0.011-0.039 0.085-0.115l0.014-0.468c-0.245 0.119-0.366 0.404-0.574 0.769-0.121 0.212-0.383 0.653-0.495 0.789z"></path>
<path fill="#54e6cc" d="M25.392 10.066c-0.052 0.112 0.005 0.020-0.069 0.111l-0.282 0.265c-0.136 0.145-0.217 0.278-0.341 0.42-0.201 0.229-0.329 0.302-0.525 0.565-0.109 0.147-0.090 0.022-0.117 0.229 0.282-0.060 0.525-0.431 0.904-0.478 0.155-0.18 0.805-0.557 0.936-0.76l-0.174-0.007c0.128-0.253 0.121-0.236 0.009-0.474 0.266-0.155 0.431-0.253 0.427-0.433-0.304 0.135-0.617 0.357-0.768 0.562z"></path>
<path fill="#54e6cc" d="M20.705 14.757c0.633 0.036 0.555 0.038 0.383 0.652l-0.386-0.012c0.067 0.078 0.030 0.058 0.139 0.119 0.017 0.009 0.152 0.053 0.165 0.056 0.151 0.028 0.265 0.018 0.414 0.003 0.070-0.348 0.044 0.054 0.122-0.271 0.014-0.061 0.018-0.309 0.015-0.38-0.018-0.444-0.082-0.305-0.439-0.294-0.195 0-0.267 0.031-0.413 0.128z"></path>
<path fill="#54e6cc" d="M21.686 12.636l-0.014 0.305c0.264-0.063 0.633-0.499 0.855-0.722 0.104-0.104 0.171-0.175 0.264-0.286-0.081 0.040-0.53 0.321-0.573 0.357 0.008-0.205 0.089-0.282 0.149-0.46-0.25 0.086-0.046-0.025-0.212 0.184-0.080 0.1-0.101 0.113-0.187 0.195-0.125 0.119-0.195 0.204-0.282 0.427z"></path>
<path fill="#050605" d="M12.72 24.201l0.263-0.072c0.022-0.010 0.040-0.019 0.059-0.028 0.021-0.009 0.042-0.021 0.063-0.031l-0.042 0.373c-0.233-0.041-0.045 0.053-0.343-0.242zM10.331 23.564c0.105-0.041 0.023-0.004 0.123-0.057 0.009-0.005 0.033-0.025 0.046-0.037 0.227 0.262-0.031 0.25-0.074 0.285l-0.085 0.133-0.19-0.155c0.014-0.009 0.034-0.015 0.044-0.021 0.222-0.147 0.088 0.001 0.136-0.148zM10.331 23.564l-0.339-0.014c0.137-0.163-0.037-0.072 0.228-0.143-0.050-0.158 0.018-0.11 0.011-0.214-0.001-0.003-0.008-0.014-0.009-0.016-0.016-0.14 0.037-0.092 0.046-0.191-0.115 0.049-0.1 0.058-0.207-0.014 0.097-0.048 0.44-0.084 0.617-0.105l-0.085 0.348c0.116-0.052 0.102-0.086 0.212-0.026-0.127 0.307-0.25 0.171-0.376 0.16l-0.098 0.215zM11.259 21.351c-0.301-0.057-0.141-0.003-0.179-0.176 0.184 0.049 0.108-0.090 0.179 0.176zM11.054 20.295c-0.065-0.31-0.071-2.63 0.009-2.915l0.656 0.035c0.13 0.346 0.064 1.030 0.064 1.481 0 1.191 0.227 1.506-0.729 1.398zM12.461 20.063c-0.065 0.229-0.023 0.139-0.192 0.225-0.050-0.097-0.033-0.043-0.032-0.167l-0.019-0.144c-0.211 0.208-0.139 0.053-0.19 0.007 0.149-0.098 0.056-0.055 0.28-0.052l-0.236-0.331c0.299 0.032 0.25-0.025 0.423 0.069l0.109 0.066c0.098 0.078 0.232-0.015 0.097 0.237-0.112 0.208 0.056 0.064-0.239 0.090zM12.366 19.537c-0.058-0.355 0.162-0.369 0.441-0.261-0.053 0.099-0.021 0.059-0.113 0.141l-0.328 0.12zM10.698 17.584c-0.008-0.292-0.169-0.153 0.129-0.263-0.007 0.027-0.096 0.363-0.105 0.382-0.111 0.22-0.036 0.109-0.184 0.046-0.024 0.245 0.031 0.14-0.091 0.28l-0.031-0.144c-0.011-0.088 0.125 0.069-0.013-0.099-0.156-0.189-0.070 0.207-0.167-0.011-0.006-0.012-0.024 0.011-0.037 0.013 0.054-0.157 0.035 0.014-0.124-0.248 0.273 0.042 0.18-0.002 0.302 0.19l0.125-0.27 0.197 0.125zM10.249 17.103c0.029-0.078-0.021-0.021 0.035-0.116 0.11-0.189 0.121-0.003 0.271-0.235 0.128 0.108-0.008 0.061 0.206 0.059-0.187 0.349-0.082 0.267-0.044 0.447-0.334 0.12-0.267 0.011-0.468-0.155zM11.315 16.953c0.010-0.108 0.003-0.218 0.147-0.224 0.224-0.010 0.165 0.108 0.195 0.182l-0.342 0.042zM4.622 10.799l0.119 0.305c0.009 0.012 0.020 0.029 0.025 0.037s0.018 0.026 0.025 0.037l0.202 0.543-0.745-0.363-1.415-0.555c-0.489-0.141-0.974-0.36-1.502-0.42 0.226 0.253 2.8 1.916 3.28 2.227 0.254 0.164 1.009 0.578 1.171 0.743l-3.108-0.105c0.505 0.39 2.805 0.999 3.518 1.207 0.302 0.087 0.589 0.16 0.893 0.247 0.568 0.163 0.841 0.861 2.085 1.502 0.71 0.365 0.591 1.197 0.59 1.768l-0.003 5.98c-0.041 0.372-0.314 0.465-0.346 0.877 0.364 0.047 0.635-0.057 0.98-0.064 0.777-0.015 1.189 0.448 0.741-0.523-0.155-0.335-0.131-2.412-0.050-2.642 0.533-0.243 0.619 0.241 0.643 0.665 0.097 1.692-0.191 2.912 1.672 2.56 0.12-0.245 0.209-0.972 0.194-1.311-0.282-0.021-0.129 0.015-0.313 0.067-0.233 0.066-0.147 0.081-0.258-0.040-0.139-0.178-0.119-1.232-0.136-1.549-0.023-0.415-0.003-0.718-0.306-0.935l-0.247-0.205c0.062-0.083 0.006-0.024 0.089-0.089 0.696-0.544 0.656-0.45 0.656-1.976 0-1.057 0.125-1.658-0.34-2.445 0.329-0.257 0.677-0.249 0.838-0.679-0.363 0.018-0.627 0.183-0.972 0.28-1.002 0.281-2.162 0.373-3.070-0.101-0.428-0.224-2.35-1.867-2.479-2.394 0.769 0.014 1.574 0.391 2.262 0.532l0.332 0.128 0.796 0.269c0.179 0.032 0.257 0.067 0.427 0.125s0.267 0.070 0.38 0.179c0.159-0.002 0.054-0.022 0.181 0.027 0.106 0.042 0.040 0.017 0.102 0.079 0.146-0.005 0.236 0.009 0.348 0.101l1.557 0.581-0.46-0.547c-0.259-0.086-0.523-0.257-0.803-0.415l-5.203-2.974-1.92-1.449-0.966-0.666 0.535 1.38z"></path>
<path fill="#050605" d="M19.758 24.113c0.017-0.013 0.044-0.050 0.053-0.033 0.007 0.015 0.038-0.021 0.048-0.025 0.206-0.075 0.078-0.015 0.085-0.018 0.038-0.019 0.033-0.077 0.234-0.141 0.14 0.261-0.143-0.125 0.041 0.072l0.058 0.058c0.113 0.107 0.11 0.021 0.125 0.245l-0.056-0.053c-0.069-0.034-0.003-0.021-0.066-0.014-0.030 0.073-0.021 0.095 0.053 0.22-0.017-0.006-0.118-0.048-0.131-0.053-0.289-0.099-0.090 0.055-0.444-0.258zM21.809 23.681l0.189 0.128-0.172 0.195 0.032 0.158c-0.214 0.003 0.186 0.113-0.149 0.021-0.134-0.037-0.055 0.006-0.139-0.124l0.196-0.148c0.070-0.113-0.007 0.006 0.019-0.141 0.049-0.275-0.21-0.008 0.025-0.088zM19.457 23.215c0.383 0.115 0.117 0.192 0.419-0.006l-0.213 0.306h0.243c-0.077 0.322-0.066 0.215 0.034 0.489l-0.127-0.032c-0.014-0.003-0.076-0.015-0.092-0.018-0.010-0.002-0.024-0.003-0.034-0.005l-0.105-0.033c-0.009-0.003-0.027-0.013-0.040-0.021 0.003-0.125 0.060-0.328 0.060-0.328l-0.144-0.352zM21.809 19.559c0.066 0.044 0.069 0.047 0.182 0.073l-0.129 0.218c0.201 0.036 0.182 0.115 0.253 0.281l-0.152-0.069c-0.006-0.002-0.022-0.003-0.029-0.006l-0.21-0.101c-0.163-0.103-0.037-0.108-0.247-0.094 0.047-0.107 0.063-0.062 0.039-0.13l-0.109-0.15c-0.010-0.015-0.023-0.035-0.032-0.055l0.184 0.046c0.197 0.059 0.088-0.018 0.195 0.103l0.042-0.061c0.002-0.006 0.026-0.044 0.013-0.056zM21.722 16.693c-0.101-0.069-0.002 0.062-0.072-0.079 0.069-0.068-0.007-0.057 0.142-0.063 0.007 0 0.114 0.029 0.179 0.033l0.085 0.244c0.004-0.008 0.014 0.035 0.037 0.066l0.027-0.058c-0.176 0.511-0.020 0.116-0.204 0.416l-0.143-0.203c-0.078-0.058-0.21-0.037-0.231-0.219-0.003-0.025-0.001-0.035-0.001-0.052l0.175 0.022c0.159 0.021-0.054 0.023 0.191 0.008l-0.1-0.066c-0.015-0.010-0.072-0.040-0.085-0.049zM27.065 10.198l-0.132 0.109-0.732 0.556-1.295 0.923c-0.194 0.211-0.543 0.356-0.83 0.492-1.086 0.659-2.37 1.322-3.521 1.956-0.195 0.131-0.474 0.273-0.687 0.389-0.239 0.129-0.475 0.289-0.676 0.396l-0.196 0.159-0.13 0.241c0.522-0.122 1.115-0.514 1.612-0.572 0.095-0.094 0.051-0.065 0.227-0.090 0.147-0.097 0.219-0.128 0.413-0.128 0.151-0.166 0.694-0.31 0.96-0.377l0.916-0.285c0.522-0.112 1.773-0.615 2.262-0.531-0.078 0.322-0.816 1-1.087 1.245-1.106 0.997-1.703 1.632-3.446 1.434-0.333-0.038-0.675-0.108-0.993-0.2-0.335-0.097-0.648-0.27-0.995-0.287 0.074 0.272 0.339 0.419 0.622 0.556l0.274 0.159c-0.696 0.731-0.63 1.259-0.629 2.5 0.001 1.069 0 2.137 0 3.206 0 1.963-0.001 3.024 1.915 2.753 0.597-0.085 1.053 0.102 1.541 0.026-0.002-0.47-0.077-0.969-0.076-1.475 0.002-0.823 0.003-3.161 0.068-3.88 0.043-0.482-0.071-0.212-1.184-0.361-0.227-0.030-0.502-0.117-0.47 0.14 0.018 0.149 0.208 0.36 0.277 0.488 0.172 0.325 0.104 3.742 0.027 3.831-0.080 0.092-0.558 0.211-0.747-0.017-0.119-0.143-0.124-6.003-0.013-6.123 0.684-0.422 1.656 0.415 1.839 0.319 0.095-0.132 0.095-0.39 0.115-0.594 0.135-1.401 0.212-0.072 2.452-2.169 0.357-0.334 0.302-0.265 0.883-0.426 0.362-0.1 3.591-0.963 3.925-1.333l-2.99 0.101c0.136-0.182 0.908-0.605 1.116-0.734 0.376-0.232 0.745-0.484 1.117-0.731 0.342-0.227 2.008-1.304 2.156-1.5-0.621 0.058-1.175 0.378-1.708 0.483l-1.439 0.623-0.508 0.19 0.292-0.644 0.104-0.271c0.088-0.199 0.165-0.441 0.253-0.653 0.102-0.249 0.263-0.501 0.162-0.655-0.288 0.213-0.712 0.593-1.044 0.764z"></path>
<path fill="#050605" d="M7.481 23.751c0.007-0.013 0.019 0.024 0.029 0.036 0.086-0.052-0.018-0.041 0.218-0.109-0.092 0.245-0.126 0.119 0.024 0.233 0.008 0.006 0.025 0.013 0.033 0.019s0.023 0.018 0.030 0.025c0.103 0.089 0.010 0.006 0.065 0.098l-0.071 0.251c-0.246-0.085-0.093-0.056-0.406-0.028-0.002-0.047-0.017-0.133-0.022-0.149-0.004-0.013-0.012-0.025-0.017-0.037s-0.014-0.023-0.019-0.035c-0.147-0.351-0.054-0.31-0.052-0.321 0.035-0.008-0.038-0.041 0.152-0.007 0.010 0.002 0.028 0.038 0.035 0.026zM6.237 23.646c-0.088-0.241-0.096-5.787-0.023-6.271 0.77-0.131 0.826 0.046 0.83 0.431l-0.004 4.296c0 1.187 0.308 1.699-0.802 1.544zM5.553 17.132c-0.005-0.012-0.009-0.031-0.009-0.038-0.013-0.326 0.011-0.018-0.090-0.299l0.325 0.091c-0.163 0.281-0.085 0.183-0.226 0.246zM4.651 24.807c0.267 0.088 1.388-0.055 1.885-0.001 0.687 0.074 1.228 0.099 1.5-0.387 0.385-0.688 0.254-2.884 0.254-3.838 0-0.943 0.115-3.164-0.203-3.89-0.41-0.938-1.454-0.349-2.475-0.463-0.298-0.033-0.664-0.141-0.957-0.027 0.005 0.337 0.265 0.453 0.334 0.759l0.009 7.035c-0.053 0.321-0.322 0.478-0.346 0.812z"></path>
<path fill="#050605" d="M15.014 23.991c-0.073 0.261-0.118 0.128-0.349 0.096l0.193-0.195c-0.049-0.080-0.010-0.003-0.068-0.121 0.171 0.092 0.12 0.115 0.223 0.22zM15.014 23.991c0.007-0.117-0.022-0.077 0.048-0.166 0.137-0.178 0.131-0.049 0.138-0.046l-0.128-0.159c-0.126-0.157-0.128-0.095-0.119-0.31 0.013 0.007 0.088 0.053 0.103 0.057l0.062 0.008c0.179 0.020 0.028-0.108 0.206 0.086-0.005 0.002-0.016-0.005-0.018 0.001-0.036 0.131 0.044-0.084-0.16 0.080l0.206 0.246c-0.012 0.011-0.031 0.010-0.040 0.031l-0.3 0.173zM15.826 21.777c-0.081-0.39 0.078-2.756 0.108-3.478 0.029-0.702-0.041-0.796 0.413-0.684 0.111 0.602 0.078 1.646 0.113 2.302 0.107 2.061 0.27 1.984-0.634 1.861zM16.982 17.432c-0.245-0.059-0.135-0.011-0.16-0.151 0.181 0.021 0.101-0.040 0.16 0.151zM16.611 16.586l-0.066 0.171c0.151 0.080 0.015-0.023 0.136 0.081 0.135 0.117 0.024-0.022 0.115 0.156l-0.407 0.029c0.164 0.178 0.068 0.076 0.038 0.149l-0.191-0.024c0.069-0.327-0.068-0.234 0.306-0.279l-0.237-0.147 0.307-0.137zM14.639 16.177c0.016 0.443 0.269 0.424 0.267 0.924-0.002 0.7-0.416 6.728-0.511 6.939-0.050 0.111-0.167 0.23-0.248 0.349-0.499 0.734 0.377 0.379 0.758 0.376 0.339-0.002 0.612 0.13 0.943 0.073 0.101-0.291-0.462-1.137-0.131-1.76 0.176-0.085 0.679-0.071 0.884-0.018 0.007 0.014 0.015 0.019 0.018 0.044l0.058 0.438c0.007 0.166 0.032 0.338 0.002 0.501-0.045 0.244-0.352 0.614-0.187 0.771 0.214 0.123 0.588-0.037 0.858-0.046 0.358-0.012 0.613 0.117 0.951 0.075 0.103-0.32-0.256-0.568-0.357-0.779-0.117-0.245-0.274-3.086-0.301-3.476-0.053-0.79-0.223-2.753-0.223-3.488 0-0.463 0.333-0.604 0.228-0.944-0.425-0.058-0.995 0.082-1.438 0.087-0.482 0.005-1.117-0.172-1.571-0.066z"></path>
<path fill="#050605" d="M24.495 23.461c-0.192 0.148 0.1-0.065-0.186 0.044l0.183 0.152c0.162 0.22-0.178 0.249-0.221 0.269-0.017 0.007-0.082 0.054-0.090 0.059 0.164 0.157 0.203 0.039 0.309 0.183-0.216 0.072-0.227-0.099-0.408 0.001-0.001 0.003 0.005 0.003 0.006 0.006 0.001 0.005 0.008 0.009 0.009 0.010l0.018 0.048c0.001 0.009 0.002 0.029 0.001 0.038-0.001 0.011-0.007 0.035-0.009 0.046s-0.009 0.034-0.015 0.050c-0.187-0.14-0.034-0.172-0.298-0.308 0.051-0.045 0.022-0.048 0.127-0.090 0.026-0.011 0.081-0.015 0.112-0.019-0.050-0.066-0.124-0.119-0.079-0.255 0.046-0.141 0.118-0.096 0.173-0.016l-0.107 0.054 0.123 0.151c0.099-0.187 0.029-0.009 0.118-0.206l-0.192-0.23c0.001-0.005 0.022-0.053 0.032-0.037 0.017 0.028-0.006-0.075 0.179-0.064 0.015 0.001 0.065-0.002 0.114 0.018 0.042 0.018 0.079 0.065 0.1 0.095zM25.827 22.1l0.085 0.076c0.007 0.007 0.019 0.021 0.027 0.028l0.243 0.17c-0.151 0.236-0.162 0.26-0.46 0.271 0.024-0.13-0.039-0.096 0.107-0.281l-0.003-0.265zM26.477 22.266c-0.179 0.093-0.119 0.105-0.21 0.236-0.072-0.090-0.034 0.007-0.060-0.122l-0.119-0.299 0.334-0.093c0.027 0.213-0.019 0.084 0.055 0.278zM24.994 21.795c-0.098-0.24 0.064-3.761 0.145-4.202l0.36 0.006c0.078 0.331 0.23 3.985 0.14 4.21l-0.645-0.014zM25.407 17.049c0.095-0.17 0.020-0.122 0.286-0.174l-0.256-0.129c0.12-0.132 0.143-0.002 0.189-0.13 0.007-0.019 0.029-0.011 0.042-0.019 0.009 0.012 0.019 0.029 0.025 0.037l0.247 0.419-0.38-0.026c0.002 0.065 0.017-0.034 0.022 0.054 0.001 0.003-0.001 0.023-0.001 0.026l-0.174-0.058zM23.817 16.179c-0.034 0.413 0.255 0.436 0.243 0.976-0.032 1.377-0.269 4.281-0.385 5.717-0.021 0.261-0.040 0.899-0.104 1.103-0.094 0.299-0.435 0.455-0.407 0.844 0.268 0.104 0.59-0.048 0.874-0.053 0.333-0.006 0.684 0.167 1.006 0.034-0.003-0.358-0.186-0.477-0.239-0.751-0.046-0.234-0.044-0.777 0.062-0.945 0.101-0.088-0.042-0.029 0.153-0.064l0.542-0.006c0.212 0.022 0.086-0.025 0.208 0.060 0.102 0.179 0.111 0.713 0.060 0.956-0.062 0.297-0.308 0.451-0.194 0.797 0.348 0.032 0.577-0.075 0.903-0.081 0.348-0.006 0.641 0.15 0.96 0.041-0.027-0.478-0.419-0.467-0.473-1.128l-0.334-4.621c-0.024-0.388-0.182-1.987-0.060-2.298 0.057-0.147 0.299-0.452 0.172-0.574-0.144-0.138-1.193 0.055-1.462 0.057-0.404 0.002-1.19-0.197-1.525-0.065z"></path>
<path fill="#050605" d="M15.157 11.426c0.697-0.020 1.004 0.172 0.856-0.537-0.227 0.062-0.108 0.167-0.395 0.183-0.040-0.675-0.060-1.523 0.076-2.095l-0.537-0.003c0.153 0.544 0.167 1.876 0.001 2.453z"></path>
<path fill="#abe5c6" d="M23.929 11.074c-0.272 0.175-0.601 0.484-0.842 0.577-0.092 0.17-0.141 0.155-0.297 0.281-0.093 0.112-0.16 0.182-0.264 0.286-0.222 0.222-0.591 0.659-0.855 0.722l0.014-0.305c-0.101 0.060-0.135 0.092-0.239 0.191l-0.056 0.056c-0.008 0.009-0.019 0.020-0.027 0.028l-0.136 0.134c-0.196 0.217-0.139 0.33-0.519 0.309l0.012-0.285c-0.078 0.143-0.143 0.265-0.115 0.469 0.013 0.097 0.045 0.203 0.033 0.357-0.021 0.263-0.030 0.102-0.085 0.339 1.151-0.633 2.435-1.297 3.521-1.956 0.009-0.015 0.031-0.065 0.036-0.078l0.111-0.423c-0.014-0.010-0.033-0.018-0.045-0.023l-0.126-0.051c-0.005-0.001-0.065-0.005-0.105-0.018 0.353-0.586-0.122-0.36 0.428-0.76-0.068-0.104 0.101-0.099-0.116-0.079l-0.331 0.227z"></path>
<path fill="#9491d1" d="M25.898 10.418c-0.131 0.203-0.782 0.58-0.936 0.76-0.079 0.142-0.166 0.218-0.126 0.412 0.002 0.009 0.005 0.025 0.007 0.034 0.030 0.118-0.003 0.074 0.064 0.162l1.295-0.923c-0.034-0.287 0.014-0.008-0.073-0.202-0.004-0.009-0.017-0.018-0.020-0.039-0.041-0.285 0.798-0.765 0.848-0.781 0.001 0.183-0.093 0.35-0.022 0.467l0.132-0.109c-0.084-0.14-0.026-0.252-0.044-0.479-0.183 0.008-0.213 0.039-0.339 0.14-0.108 0.088-0.134 0.108-0.246 0.19-0.106 0.076-0.417 0.338-0.539 0.37z"></path>
<path fill="#dbd6a2" d="M22.079 14.252c0.129 0.183 0.104 0.208 0.102 0.46-0.062 0.040 0.064 0.040-0.132 0.031 0.136 0.159 0.353 0.278 0.593 0.31 0.225-0.44 0.389-0.44 0.352-1.086l-0.916 0.285z"></path>
<path fill="#efe531" d="M20.865 12.752l-0.059 0.466c0.246-0.050 0.235-0.109 0.381-0.273 0.65-0.731 0.34-0.049 0.559-1.081l-0.082-0.247c-0.146 0.113-0.746 0.94-0.799 1.134z"></path>
<path fill="#d986a6" d="M9.627 14.979c0.213-0.017 0.222-0.023 0.245-0.26 0.014-0.137-0.007-0.317-0.013-0.459-0.029-0.014-0.051-0.016-0.097-0.048-0.029-0.020-0.048 0.017-0.073-0.065-0.008-0.025-0.027-0.026-0.040-0.040l-0.332-0.128c-0.029 0.435 0.060 0.742 0.31 0.998z"></path>
<path fill="#a735e2" d="M26.201 10.863l0.732-0.556c-0.070-0.116 0.023-0.284 0.022-0.467-0.050 0.017-0.889 0.496-0.848 0.781 0.003 0.021 0.016 0.030 0.020 0.039 0.088 0.194 0.040-0.085 0.073 0.202z"></path>
<path fill="#d6ba3f" d="M10.417 11.802c0.050 0.23 0.036 0.167 0.172 0.324 0.467 0.541 0.253 0.595 0.564 0.707l0.057-0.245-0.487-0.759c-0.034-0.050-0.057-0.090-0.092-0.128-0.105-0.115-0.038-0.049-0.131-0.111-0.009 0.013-0.026 0.016-0.029 0.040s-0.021 0.031-0.024 0.041c-0.027 0.073-0.019 0.053-0.030 0.13z"></path>
<path fill="#050605" d="M16.753 9.647c0.045 0.065 0.058-0.1 0.081 0.399 0.009 0.191 0.036 0.318-0.001 0.506l-0.134 0.007c-0.069-0.13-0.035-0.265-0.028-0.417 0.010-0.226-0.012-0.337 0.082-0.495zM16.169 11.43l0.51-0.010c-0.048-0.214-0.078-0.272-0.037-0.505l0.22 0.004c0.088 0.208 0.014 0.306-0.027 0.51l0.537-0.011c-0.069-0.214-0.119-0.214-0.144-0.496-0.047-0.541-0.108-1.187-0.052-1.685l-0.841 0.003c0.135 0.848-0.166 2.19-0.166 2.191z"></path>
</svg>
