<?xml version="1.0" encoding="UTF-8"?>
<!DOCTYPE svg PUBLIC "-//W3C//DTD SVG 1.1//EN" "http://www.w3.org/Graphics/SVG/1.1/DTD/svg11.dtd">
<!-- Creator: CorelDRAW 2017 -->
<svg xmlns="http://www.w3.org/2000/svg" xml:space="preserve" width="8.4666mm" height="4.2332mm" version="1.1" style="shape-rendering:geometricPrecision; text-rendering:geometricPrecision; image-rendering:optimizeQuality; fill-rule:evenodd; clip-rule:evenodd"
viewBox="0 0 846.66 423.32"
 xmlns:xlink="http://www.w3.org/1999/xlink">
 <defs>
  <style type="text/css">
   <![CDATA[
    .fil0 {fill:none}
    .fil1 {fill:black}
    .fil2 {fill:#00AEEF}
   ]]>
  </style>
 </defs>
 <g id="Capa_x0020_1">
  <metadata id="CorelCorpID_0Corel-Layer"/>
  <rect class="fil0" y="-0" width="846.66" height="423.33"/>
  <g id="_2915792433184">
   <path class="fil1" d="M198.99 201.91l0 -17.37c-6.24,0 -9.47,-0.89 -9.47,1.58l0 92.64c0,2.48 3.23,1.58 9.47,1.58l0 -51.58c0,-5.28 0.64,-10.68 1.9,-14.94 3.75,-12.7 16.26,-22.43 29.13,-22.43 10.46,0 18.42,1.79 24.58,9.1 4.53,5.38 7.51,12.82 7.51,22.48l0 56.85 9.47 0 0 -57.9c0,-45.13 -50.42,-47.24 -66.65,-27.75l-5.94 7.74z"/>
   <path class="fil1" d="M363.65 211.6c-5.96,0.02 -10.47,-4.1 -12.31,-7.9 -3.18,-6.58 0.25,-9.55 2.13,-14.42l-2.45 -4.74c-2.12,0 -4.23,0 -6.34,-0.03 -6.09,-0.08 -4.83,-0.2 0.91,11.26 8.72,17.43 17.59,37.35 26.12,54.4l13.2 26.82c1.49,3.01 -0.35,6.19 -2.35,9.65 -6.67,11.54 -11.48,16.18 -25.69,14.69 -1.72,-0.18 -3.82,-0.73 -5.53,-1.3 -1.89,-0.63 -3.43,-1.41 -5.05,-1.79 -0.94,1.96 -2.64,6.2 -3.16,8.42 3.03,0.71 4.45,1.86 10.99,3.22 0.91,0.19 1.82,0.35 2.72,0.47l9.07 0c7.8,-1.13 14.48,-5.24 19.61,-11.81 7.82,-9.99 21.02,-45.99 27.07,-59.77l17.12 -40.76c5.27,-12.54 6.99,-13.32 2.94,-13.51 -2.27,-0.11 -5.1,0.04 -7.45,0.04l-8.72 20.76c-0.82,2.06 -25.29,61.74 -25.48,63.99 -1.61,-1.18 -5.66,-11.37 -7.01,-14.04l-20.34 -43.65z"/>
   <path class="fil1" d="M305.25 278.76c0,1.22 0.37,1.58 1.58,1.58l7.89 0 0 -136.33 -9.47 0 0 134.75z"/>
   <path class="fil2" d="M636.16 232.44l-0.53 0.53 0.53 -0.53zm-130.21 -119.48l18.25 0c17.42,1.17 32.32,6.29 34.44,19.69 1.62,10.19 -18.49,37.65 -22.97,46.1 2.64,0 3.66,-0.51 6.3,-0.54 2.05,-0.03 4.31,0.13 6.33,0.02 2.39,-0.13 2.88,-0.54 5.77,-0.55 5.17,0 13.81,-0.42 17.38,1.6 2.09,1.19 5,4.31 5.26,7.37 6.59,-1.54 24.98,-9.94 32.84,2.93 5.35,8.77 1.66,17.64 1.35,21.28 5.27,1.23 6.18,2.54 9.47,4.74 -2.3,4.35 -16.42,22.47 -22.6,33.18 -1.35,2.36 -3.67,6.82 -4.45,9.77 -1.62,6.17 1.78,7.21 6,4.94 3.5,-1.87 11.71,-9.82 14.37,-13 1.18,-1.4 2.38,-2.36 3.67,-3.69l6.31 -7.38c1.16,-1.3 2.03,-2.42 3.08,-3.75l18.42 -23.68c1.06,-1.4 1.86,-2.46 2.94,-3.9 4.99,-6.69 9.09,-16.51 9.09,-25.13 4.58,-1.06 9.42,1.61 11.99,4.32 8.56,8.99 -7.69,29.57 -9.36,36.74 1.73,-1.16 5.03,-5.08 6.39,-6.76 1.3,-1.62 1.88,-2.15 3.2,-3.64l6.32 -6.84c1.22,-1.39 1.48,-2.02 2.89,-3.43l10.52 -9.47c23.74,-21.21 43.14,-10.58 27.91,17.4 -5.27,9.68 -11.69,18.71 -18.22,27.56 -2.76,3.73 -17.21,22.07 -12.22,25.26 5.17,3.3 19.51,-12.71 22.54,-15.99 1.31,-1.43 1.68,-2.21 3.15,-3.69 3.14,-3.16 30.5,-37.9 31.72,-40.41 1.22,-2.54 -3.12,-14.29 -0.87,-22.94 1.52,-5.82 6.77,-12.27 11.25,-15.06 5.28,-3.29 14.07,-7.09 20.1,-3.05 0,3.17 -0.04,4 -1.48,5.88 -0.98,1.28 -2.02,2.45 -3.09,3.76 -9.09,11.16 -8.38,18.69 -5.56,33.13 1.6,8.19 3.25,15.72 4.83,23.6 3.55,17.64 0.57,18.54 0.57,25.75 5.67,-3.8 23.01,-25.96 26.6,-30.76 2.8,-3.73 5.55,-7.18 8.12,-10.83 0.92,-1.31 7.69,-10.82 8.34,-11.19 3.8,-2.13 4.57,1.43 2.83,3.93 -8.61,12.37 -23.11,33.49 -32.61,43.72 -1.06,1.14 -1.11,1.5 -2.11,2.62 -5.52,6.28 -15.64,15.15 -23.04,19.58 -32.74,19.61 -48.24,-11.35 -38.63,-19.7 5.1,1.18 2.93,4.45 4.52,9.15 1.1,3.24 3.76,5.82 7.07,6.62 19.33,4.67 20.01,-20.73 18.25,-34.06 -0.56,-4.27 -2.27,-21.18 -3.54,-23.82 -1.16,0.85 -5.88,7.83 -7.15,9.68 -4.78,6.94 -20.95,27.8 -25.86,33.08 -1.01,1.09 -0.97,1.28 -1.87,2.35l-19.52 18.36c-7.57,5.73 -17.65,7.15 -22.6,-2.23 -7.22,-13.67 8.2,-35.65 16.65,-46.88 4.58,-6.08 15.05,-19.17 17.75,-24.35 4.64,-8.86 -2.82,-7.59 -9.71,-2.35 -3.32,2.52 -5.19,4.34 -8.06,7.2 -8.78,8.8 -13.9,14.83 -21.4,24.38l-20.07 25.72c-1.31,1.68 -2.18,2.86 -3.44,4.45l-10.06 12.57c-4.34,4.7 -5.42,6.49 -9.2,5.83 -2.68,-0.46 -8.66,-3.38 -7.84,-7.03 0.52,-2.32 21.36,-33.54 22.43,-38.15l-10.45 12.71c-7.53,9.25 -26.67,30.91 -35.96,32.45 -12.35,2.04 -15.53,-8.95 -14.09,-15.16 -2.01,1.47 -4.01,6.42 -12.32,11.89 -15.58,10.23 -38.23,-2.99 -31.35,-31.37 3.07,-12.67 9.12,-22.82 15.94,-31.95l8.11 -9.78 9.72 -8.17c1.79,-1.22 5.28,-3.78 7.27,-4.31 -1.46,-1.99 -6.35,-2.66 -9.98,-2.64 -13.28,0.07 -11.69,0.25 -24.2,1.08 -1.96,0.13 -3.4,0.38 -5.66,0.65 -5.92,0.73 -4.27,1.26 -9.92,9.03 -1.03,1.42 -1.55,2.31 -2.53,3.78 -13.67,20.6 -43.28,58.9 -49.04,82 -1.15,4.6 -1.2,5.85 -1.23,11.4 -0.1,14.82 -14.02,6.58 -16.88,-4.75 -3.76,-14.92 4.18,-28.8 9.71,-38.21 8.88,-15.12 26.45,-37.3 37.3,-50.6 1.1,-1.35 1.68,-2.13 2.76,-3.55 1.16,-1.52 1.89,-1.8 2.33,-3.45 -3.53,0.08 -15.55,4.53 -18.86,5.86 -11.77,4.73 -21.88,9.81 -31.87,17.59 -10.76,8.39 -8.83,11.4 -10.29,14.45 -10.07,0 -11.91,-14.02 -5.35,-22.2 5.66,-7.07 12.79,-10.81 20.6,-14.66 11.23,-5.53 43.36,-14.2 56.29,-14.2 1.18,-2.23 2.94,-4.37 4.52,-6.54l6.74 -10.1c0.85,-1.26 1.28,-1.87 2.06,-3.2 0.87,-1.46 1.4,-2.13 2.25,-3.54 5.27,-8.77 15.84,-26.86 2.87,-33.49 -7.24,-3.71 -19.83,-2.23 -29.5,-1.58 -15.66,1.06 -30.03,5.65 -44.37,10.35 -6.32,2.07 -16.99,6.96 -23.13,10.02 -1.49,0.75 -2.4,1.14 -3.86,1.93 -9.21,4.97 -21.8,12.91 -29.7,19.23 -2.13,1.7 -3.98,3.18 -6.12,4.93 -2.25,1.83 -3.77,3.3 -5.99,5.07 -6.68,5.33 -21.21,21.35 -24.58,30.14 -0.66,1.71 -0.77,2.23 -1.09,4.17 -0.38,2.26 -0.16,2.44 -2.13,3.35 -5.96,0.02 -10.47,-4.1 -12.31,-7.9 -3.18,-6.58 0.25,-9.55 2.13,-14.42 4.24,-5.77 9.97,-14.3 15.89,-19.03l12.4 -10.75c26.83,-21.08 52.16,-33.2 86.16,-41.17 7.43,-1.75 22.37,-4.5 38.03,-5.37zm130.73 118.43l-0.52 1.05 0.52 -1.05zm0 0l0 0zm23.15 -7.37l0 0zm-72.6 5.27c0,1.44 2.16,3.54 3.16,4.21 -6.58,9.83 -24.69,36.32 -35.78,36.32 -7.16,0 -7.89,-3.41 -7.89,-12.11 0,-6.65 3.8,-16.57 5.79,-21.58 2.51,-6.34 6.03,-12.73 9.68,-18.22 5.21,-7.85 12.46,-16.07 20.72,-20.85 4.41,-2.55 18,-7.06 18,3.8 0,7.49 -1.63,11.42 -5.26,16.85l-8.42 11.58zm-82.07 -35.27l0 0z"/>
   <g>
    <path class="fil1" d="M164.79 222.97c0,16.76 -0.92,22.47 -8.6,36.67 -8.8,16.29 -30.79,31.23 -52.95,31.23 -15.93,0 -26.91,-3.25 -39.46,-12.11 -8.26,-5.83 -16.59,-15.87 -20.82,-26.01 -4.93,-11.8 -6.97,-24.69 -3.69,-39.57 1.48,-6.69 3.72,-11.31 6.44,-16.71 1.8,-3.56 4.57,-7.28 7.14,-10.23 15.99,-18.33 43.01,-29.56 72.34,-17.87 11.6,4.63 19.12,11 26.62,20.22 6.74,8.3 12.98,23.16 12.98,34.38zm-134.68 0.52c0,13.66 0.92,22.75 6.84,34.75 1.93,3.93 3.88,7.44 6.46,10.91 26.42,35.53 77.49,39.67 107.57,9.48 12.39,-12.44 21.7,-29.38 21.7,-47.77 0,-13.32 -0.99,-22.09 -6.66,-33.87 -7.15,-14.86 -19.11,-26.81 -33.84,-34.04 -18.66,-9.15 -42.43,-9.19 -61.21,-0.17 -5.29,2.54 -11.04,6.07 -15.45,9.81l-8.45 8.39c-8.89,9.56 -16.96,28.72 -16.96,42.51z"/>
    <path class="fil2" d="M104.82 248.76c0,7.23 1.31,9.48 -3.68,9.48 -2.85,0 -2.11,-6.44 -2.11,-9.48 -7.7,-4.08 -6.32,-15.26 4.21,-15.26 8.46,0 10.04,14.56 1.58,15.26zm12.62 -25.79l-32.61 0 0 -5.79c0,-8.83 6.86,-14.74 15.78,-14.74 13.14,0 18.41,5.45 18.41,18.95 0,1.21 -0.36,1.58 -1.58,1.58zm-47.87 6.32c0,7.94 -0.79,14.57 3.17,21.56 1.52,2.68 4.03,6.31 6.51,8.22 8.1,6.26 12.75,7.59 24.52,7.59 16.63,0 30.51,-12.86 30.51,-29.48 0,-14.21 -0.53,-7.64 -2.8,-13.52 -1.49,-3.86 2.04,-10.52 -5.18,-21.66 -8.99,-13.86 -35.89,-17.26 -48.63,-0.4 -2.05,2.72 -4.75,8.63 -4.95,12.94 -0.13,2.76 0.49,6.22 -0.34,8.61 -0.79,2.31 -2.81,3.32 -2.81,6.14z"/>
   </g>
  </g>
 </g>
</svg>
