<?xml version="1.0" encoding="UTF-8"?>
<!DOCTYPE svg PUBLIC "-//W3C//DTD SVG 1.1//EN" "http://www.w3.org/Graphics/SVG/1.1/DTD/svg11.dtd">
<!-- Creator: CorelDRAW 2017 -->
<svg xmlns="http://www.w3.org/2000/svg" xml:space="preserve" width="8.4666mm" height="4.2332mm" version="1.1" style="shape-rendering:geometricPrecision; text-rendering:geometricPrecision; image-rendering:optimizeQuality; fill-rule:evenodd; clip-rule:evenodd"
viewBox="0 0 846.66 423.32"
 xmlns:xlink="http://www.w3.org/1999/xlink">
 <defs>
  <style type="text/css">
   <![CDATA[
    .fil0 {fill:none}
    .fil1 {fill:#0E0E0C}
   ]]>
  </style>
 </defs>
 <g id="Capa_x0020_1">
  <metadata id="CorelCorpID_0Corel-Layer"/>
  <rect class="fil0" y="-0" width="846.66" height="423.33"/>
  <path class="fil1" d="M74.5 228.95c-1.13,-4.99 -4.64,-4.31 -3.33,-10.46 0.96,-4.55 1.74,-0.17 0.74,-4.98 -0.53,-2.53 -0.94,-2.47 -0.03,-5.38 8.64,-2.83 6.24,7.37 5.84,15.61 -0.01,0.23 0.04,0.89 0.01,1.1 -0.56,4.18 -0.98,0.19 -2.41,4.78 7.15,1.47 14.67,5.36 15.91,5.26 2.31,-0.2 1.83,-2.24 5.39,-0.04 1.32,1.37 0.13,0.92 0.44,3.41 0.68,5.48 -0.82,5.83 -1.01,10.78 2.76,1.69 1.38,0.9 4.73,0.9 -1.71,4.36 1.75,-3.02 -1,1.2 -1.16,1.8 -1.27,1.25 -0.41,4.8 0.63,2.64 1.52,4.96 2.42,7.29 0.1,0.02 0.28,-0.16 0.31,-0.05 0.5,1.72 -1.08,-0.57 1.17,0.12 0.11,0.03 0.38,0.14 0.49,0.18 0.12,0.04 0.42,0.2 0.52,0.25 0.11,0.04 0.39,0.15 0.55,0.28 -0.4,3.61 -0.36,1 -0.74,2.35l-0.58 2.42c-0.81,1.96 -0.95,1.75 -3.59,2.51 -2.39,-4.12 -1.23,-0.31 -1.03,-5.03 0.3,-6.72 -4.56,-11.15 -5.62,-16.85l-8.07 0.92c-6.82,1.36 -1.43,2.8 -0.24,10.65 0.53,3.53 1.67,8.29 1.42,11.41 -0.45,-0.04 -3.08,-0.33 -3.23,-0.38 -1.88,-0.61 0.24,0.94 -2.06,-2.31 -2.43,-3.42 -6.59,-2.74 -7.19,-10.19 -0.51,-6.39 -1.35,-7.9 1.57,-10.26 -11.46,-5.13 -18.13,-3.91 -20.7,-18.71l-31.49 -0.29c0.04,5.04 -0.78,24.95 1.23,27.68 2,-0.69 0.71,-0.36 2.69,-2.32 1.42,-1.4 -0.02,-1.08 2.82,-1.66 1.82,1.81 1.58,1.61 0.63,3.64 4.79,0.48 8.15,-0.2 7.03,5.46 -4.23,-0.02 0.4,0.12 -2.58,-0.91 -12.06,-4.15 -12.96,3.94 -11.27,14.39l28.24 0.09c1.65,-0.33 0.9,-0.2 1.85,-2.9 1.88,-5.3 -1.89,1.89 0.51,-1.7l1.58 4.57c4.16,-0.36 3.62,-2.31 6.42,-11.71 8.05,7.86 14.17,12.96 26.74,15.61 16.09,3.4 24.39,-1.09 37.35,-4.43 -0.01,-3.74 0.9,-3.01 -0.02,-6.13 0.56,1.52 0.17,0.7 1.31,1.76 2.02,1.89 0.68,1.19 3.01,1.94 13.7,-8.39 23.44,-24.05 14.66,-46.35 -4.87,-12.38 -13.24,-17.5 -25.18,-24.45 -1.91,-1.11 -3.27,-1.86 -5.35,-2.52 -4.38,-1.4 -2.31,-0.44 -6.18,0.6l-0.15 -3.65c-6.26,-1.95 -27.18,-6.41 -28.76,-13.88 -3,-14.15 22.11,-8.35 29.65,-5.21 14.79,6.15 9.85,14.98 13.43,16.03l30.44 -0.01 -0.09 -20.02c-0.18,-0.09 -0.53,-0.38 -0.58,-0.18l-0.83 0.18c0.25,-4.6 0.92,1.09 1.38,-5.45l0 -14.36c-0.14,-4.69 0.44,-3.21 -2.85,-4.63 2.49,-1.56 1.6,0.1 2.21,-1.99 -5.64,-0.18 -11.42,-0.06 -17.08,-0.07 -2.85,0 -5.54,-0.04 -8.36,0.18 -2.31,0.18 -6.05,-0.06 -8.94,0.4 -1.34,2.08 -1.49,2.83 -2.28,5.51 -0.69,2.33 -1,3.9 -2.65,5.51 -15.2,-24.96 -65.43,-19.56 -80.27,3.72 -9.32,14.61 -4.65,33.43 3.69,44.65 5.07,6.82 26.41,19.12 37.77,21.32zm573.11 -5.05l0.47 -21.93 -8.56 -0.44c0.81,3.86 1.39,2.16 2.72,5.38 0.89,2.17 0.98,4.91 1.5,7.24 1.42,6.38 -1.53,7.37 1.74,9.15 1.2,0.66 -0.28,0.36 2.13,0.6zm-390.9 13.31l2.52 2.31c2.68,2.04 1.12,-0.8 2.31,2.24 -3.45,-1.16 -4.7,-3.98 -7.59,-2.04 0.53,0.45 5,3.75 5.79,4.04 2.91,1.08 5.49,0.29 6.64,4.26 1.64,5.64 -3.38,0.07 1.95,5.97 4.34,4.82 2.66,6.26 2.09,7.48l3.48 -3.07c-1.08,-2.64 -1.8,-2 -2.38,-5.38 2.92,1.88 1.14,1.39 3.4,3.8 2.34,-1.82 7.6,-7.85 8.6,-11.08 -3.27,-3.25 -5.3,-5.47 -8.23,-8.9l-9.03 -9.36c-2.42,1.28 -7.17,7.44 -9.55,9.73zm-7.66 -81.82c-4.18,-1.3 -2.7,-4.19 -6.69,7.38 -8.39,24.32 1.97,10.03 4.64,30.09 0.14,1.03 0.2,2.6 0.36,3.46 0.7,3.85 -0.76,3.42 7.88,3.38l26.81 -0.26c0.66,-7.39 -0.02,-15.07 -0.26,-22.42 -0.11,-3.59 2.02,-23.05 -0.09,-29.3l-27.15 -0.19c-1.78,2.46 -4.37,5.41 -5.5,7.86zm277.08 -4.96c-4.51,-2.21 -1.69,-2.76 -8.63,-2.77 -3.68,0 -7.38,0.05 -11.06,0.05 -0.1,0.18 -0.14,0.3 -0.16,0.59 -0.02,0.28 -0.13,0.46 -0.16,0.56l-0.47 2.33 -2.36 -3.46 -8.14 0.11c0.02,1.05 0.1,1.56 0.21,2.45l0.33 2.05c-2.91,-2.98 1.76,-0.69 -2.89,-2.43l0.26 23.42 10.82 0.17 0.59 17.46c-1.4,7.92 0.93,7.86 0.32,10.73l-0.34 1.07c-0.05,0.2 -0.12,0.41 -0.16,0.63 -0.45,2.4 -0.89,15.76 0.58,17.77 2.4,-2.02 2.14,-2.9 0.14,-5.04 4.49,-2.84 0.52,-3.8 6.48,-2.68 -0.5,4.59 -2.78,3.35 -4.6,9.09 7.53,-0.39 7.71,-2.09 12.72,-1.56 7.21,0.76 5.26,-2.01 4.21,-9.94 -0.46,-3.53 1.11,-6.52 0.82,-10.86 -0.46,-6.79 0.12,-10.89 3.61,-17.52 4.72,-8.95 2.51,-9.52 2.91,-18.72 0.17,-3.74 5.24,-13.2 9.54,-10.83 -3.22,4.42 -6.73,1.81 -6.21,9.38 0.33,4.66 -2.18,12.07 -2.98,18.78l-0.85 3.77c-9.57,24.1 -1.65,20.19 -3.37,28.91 -0.95,4.84 -2.42,9.82 -2.7,14.67 -0.26,4.66 1.02,5.12 1.6,7.94 1.03,5.07 -4.52,23.23 -4.52,31.15 5.14,-1.94 11.34,-9.07 14.02,-14.62 3.99,-8.28 3.72,-15.33 3.76,-25.33l-2.29 -1.48c3.12,-2.34 2.01,0.77 2.46,-3.97 0.17,-1.78 -0.13,-5.23 -0.16,-7.16l0.19 -41.6 10.61 -0.21c0.64,-2.46 0.64,-11.75 0.39,-14.21 -0.4,-3.85 -1.01,-1.25 -0.28,-4.17 0.76,-3.05 0.85,-3.93 -0.34,-7.08l-20.75 -0.23c-2.62,0.86 -1.15,0.75 -3.15,2.79zm-356.73 86.76l2.09 -2.84c0.42,2.38 0.67,2.31 1.71,3.62 -1.96,1.65 -2.8,1.22 -3.81,3.18l3.51 1.98c0.1,0.08 0.31,0.24 0.45,0.38 -2.44,1.61 -2.76,0.09 -6.99,0.24 0.13,5.89 12.2,18.13 15.74,20.95 6.85,5.45 14.58,9.98 24.6,13.19 19.03,6.09 47.33,1.61 58.69,-11.52 -0.56,-2.79 -2.66,-4.27 -4.68,-6.99 -3.32,-4.45 -4.7,-4.03 -5.21,-7.07 3.59,0.41 8.97,8.14 10.76,10.93l2.46 -1.6c-0.71,-1.67 -0.25,-1.62 -2.08,-2.68 -8.4,-4.88 -6.96,-7.79 -11.85,-10.29 -2.08,-1.06 -1.47,0.24 -2.71,-1.68 -0.5,-0.78 -0.16,-0.45 -0.41,-1.37l-0.37 -1.64c-4.45,0.28 -2.73,-0.04 -5.76,1.68 -1.89,1.06 -3.76,1.66 -5.4,2.25l3.32 2.74c9.45,5.3 6.56,6.54 11.24,5.2l-1.24 3.31c-5.44,-5.79 -14.39,-12.79 -23.09,-8.55 0.58,2.66 0.74,1.22 3.47,4.87 1.43,1.9 1.99,2.89 4.61,4.08 4.4,1.99 8.48,2.04 9.81,7.68 -2.07,-0.49 -3.33,-0.86 -5.88,-1.35 1.12,-0.79 1.99,-1.28 1.19,-2.98 -0.81,-1.73 -0.19,-1.06 -1.89,-0.73l-2.33 0.99c-1.67,-1.86 -2.96,-4.22 -6.36,-2.61 -0.6,0.28 -2.8,2.48 -2.91,2.64l-0.72 1.58c-0.47,1.14 0.61,0.08 -0.81,2.27 -2.98,-4.35 0.11,-3.64 0.27,-7.01 0.01,-0.29 -0.91,-6.88 -1.18,-8.65 -6.17,-3.94 -25.91,-1.42 -23.64,-45.75 0.43,-8.41 1.37,-14.04 4.73,-21.38 1.23,-2.67 1.9,-2.99 3.65,-4.94 4.46,-4.95 11.19,-7.39 17.54,-6.54 2.38,0.32 4.17,1.78 7.21,2.46l3.15 -11.36c1.68,-4.1 2.97,-7.87 4.46,-11.79 -1.31,-1.98 -2.19,-2.97 -4.75,-4.11 -0.5,2.22 -1.41,4.3 -2.07,5.91 -1.39,3.41 -0.37,2.76 -2.81,5.08 0.99,-4.09 3.4,-8.57 4.29,-12.29 -17.26,-8.74 -42.26,-5.81 -55.89,6.13 -14.73,12.9 -21.29,26.9 -24.22,48.26 -0.93,6.84 -1.1,15.12 0.01,21.86 0.34,2.06 1.31,8.15 2.16,9.59l4.99 4.47c0.67,0.2 2.24,0.17 2.95,0.2zm252.38 -87.66c-1.72,1.94 -3.08,1.86 -2.84,3.61 0.01,0.04 0.09,0.27 0.1,0.3 0.31,1.35 -2.51,2.53 -3.24,3.4 -2.26,2.67 -0.56,2.38 -0.55,4.01 0.02,3.47 -1.22,6.02 -0.76,12.35l10.93 0.28c1.57,9.56 -1.16,24.25 0.81,32.07l0.37 1c0.63,2.66 0.04,-1.7 -0.72,3.8l0.26 8.08c0.15,2.47 -0.02,-1.07 0.21,1.23 0.32,3.26 -1.6,16.62 -0.36,21.81l1.89 2.04c-0.02,3.4 -0.54,10.91 4.65,9.69 -0.91,3.19 -1.17,2.74 1.15,5.56 9.63,11.66 28.7,17.27 43.62,18.9l2.11 -2.63c1.59,0.06 1.1,-0.37 2.29,0.98 2.67,3.03 -1.87,1.49 2.73,2.24 3.27,0.52 2.67,-0.39 3.18,-2.47 1.92,2.37 1.65,2.54 5.8,2.02 5.45,-0.69 18.62,-2.32 20.62,-6.89 1.77,-4.02 -6.38,-12.05 -7.02,-18.97 1.56,1.04 0.57,0.14 1.91,1.67 0.71,0.82 0.77,1.11 1.25,1.88 1.51,-0.62 1.17,-1.78 2.22,-2.17 2.41,2.72 4.31,6.99 7.44,8.49 3.43,-5.53 1.49,-13.18 2.64,-19.19 0.38,-1.99 0.35,-1.13 0.72,-3.38 -3.86,0.73 -4.25,1.27 -7.15,-1.24 1.67,-1.88 4.63,-2 6.62,-1.17 0.84,-4.81 1.08,-8.93 -0.59,-12.88 -3.82,-0.75 -5.07,1.01 -6.97,2.45l-3.15 -2.63c-3.45,2.08 -4.6,0.78 -6.65,2.14 -0.72,0.48 -1.45,0.68 -1.15,2.5 0.54,3.24 -1.1,0.4 2.45,2.49l-1.56 0.97c-1.45,1.19 -2.14,3.59 -2.56,6.05 1.34,-0.09 3.6,-0.41 4.8,-0.37 1.32,0.05 0.93,-0.06 2.2,0.31 1.57,0.46 1.05,0.31 1.84,0.92 -0.19,0.11 -0.5,0 -0.61,0.24 -1.03,2.26 -5.86,-2.18 -10.2,0.91l-8.03 6.12c-1.25,1.89 3.38,0.96 -1.7,4.49 -0.38,-0.97 -0.4,-1.65 -0.66,-2.41l-0.72 -1.84c-0.06,-0.15 -0.16,-0.42 -0.28,-0.6 -6.77,0.49 -6.67,-1.58 -12.37,-0.17 1.06,-3 2.02,-0.46 -0.53,-3.17 -5.07,-5.42 -5.7,-12.52 -6.85,-19.04 -0.43,-2.45 0.01,-2.14 0.34,-4.82 0.72,-5.8 -0.77,-13.49 -0.03,-18.3l-1.53 -2.27c0.16,0.11 0.38,0.27 0.53,0.38 0.18,0.13 0.46,0.33 0.61,0.44 0.17,0.12 0.41,0.36 0.65,0.47 0,-5.79 0.72,-6.59 -3.86,-8.43l3.88 -1.65 0.08 -15.42 10.62 -0.16c0.32,-1.22 1.87,-9.82 -0.36,-11.91l-1.3 -0.88c3.73,-1.09 0.9,-0.1 2.49,-1.58l-0.08 -11.04c-4.67,-1.49 -19.44,-0.47 -26.23,-0.22 -3.41,0.13 -2.22,1.38 -3.92,0.76 -1.24,-0.46 1.29,-0.07 -1.52,-1.01l-25.3 0.44c-2.21,0.38 -5.59,-0.63 -9.73,-0.31 -0.57,5.63 3.18,2.44 7.07,1.73zm137.73 24.42l14.45 0.36 0.98 61.26 4.27 -5.46 -1.51 -11.97c1.57,0.9 2.41,2.71 2.51,2.95l0.33 0.86c0.04,0.12 0.14,0.34 0.17,0.45 0.03,0.12 0.13,0.34 0.15,0.47 1.09,5.27 -3.69,3.44 5.2,7.27 2.17,0.93 3.45,1.88 5.23,2.93 -3.96,-0.13 -4.49,-1.36 -5.68,3.3 -0.36,1.4 -0.37,3.05 -0.42,3.42l-1.65 13.75c-0.19,1.83 -0.74,2.49 -1.02,4.95 -2.97,1.83 3.55,-0.21 -0.74,-0.17 -2.04,0.02 1.79,-0.99 -0.97,0.12 -1.11,0.44 -0.09,0.01 -1.21,0.75 -0.87,0.57 0.1,0.46 -1.5,1.05l-1.61 -2.67c-0.05,-0.08 -0.19,-0.24 -0.24,-0.32l-1.48 -2.66c4.98,1.6 2.61,-1.56 5.9,1.72 0.08,-6.94 -1.81,-1.69 -0.15,-9.57 0.66,-3.16 0.38,-7.88 -0.84,-10.85 -0.14,0.12 -0.25,0.21 -0.27,0.47 -0.73,7.57 -2.39,8.21 -2.43,8.31 -0.1,0.24 0.4,1.54 -0.4,3.44 -0.06,0.13 -2.12,3.85 -2.32,4.2 -0.09,0.02 -0.23,-0.2 -0.26,-0.11 -0.03,0.09 -0.25,-0.11 -0.3,-0.13 -4.24,-1.53 -9.9,-1.02 -14.43,-0.75l0.13 25.32 72.04 -0.32c-0.4,-5.67 -1.92,1.95 -2.15,-4.45 0.2,0.04 0.48,-0.02 0.57,0.21 0.09,0.23 0.44,0.16 0.56,0.21l5.01 1.09c-1.39,-3.7 -1.43,0.22 -0.62,-3.79 0.54,-2.64 0.67,-3.02 0.66,-6.35 -0.01,-3.71 0.25,-9.11 -1.13,-12.09l-16.2 -0.18 -0.16 -27.18c5.68,-0.23 16.68,1.06 20.85,-0.6l0.25 -3.27c0.81,-1.7 1.51,0.36 1.63,-3.76 0.23,-7.9 -1.55,-5.84 -5.14,-6.4 0.73,-1.87 0.08,-0.74 1.45,-1.51 0.05,-0.03 0.3,-0.1 0.34,-0.12 0.04,-0.01 0.24,-0.02 0.34,-0.08 -0.14,-1.53 -0.12,-2.21 -0.46,-3.34l-1.65 -2.93c-22.29,-0.19 -19.08,4.21 -18.2,-27.72 11.48,-0.57 21.9,-0.52 32.4,-0.01l0.45 10.59c3.55,1.22 8.67,1 12.49,0.91 -1.5,-2.54 -3.74,-3.91 -5.54,-6.24 -1.38,-1.79 -3.07,-2.47 -4.13,-4.43 -1.48,-2.74 0.76,-1.78 2.09,-0.69 4.05,3.32 7.02,7.16 10.59,11.41 3.52,0.01 3.52,-1.49 6.37,-0.62 3.06,0.94 7.08,1.49 9.15,-0.98l5.74 1.4 -0.11 -11.32 -3.93 2.8 0.71 -4.25c2.92,-0.86 3.48,4.98 3.37,-7.21 0,-0.89 0.02,-2.16 -0.2,-2.98 -0.06,-0.21 -0.13,-0.42 -0.21,-0.61l-1 -1.46c-0.07,-0.1 -0.28,-0.27 -0.41,-0.4 3.05,-2.11 2.33,-10.59 0.71,-11.82 -2.52,-0.89 -20.15,-0.48 -24.36,-0.49 -23.83,-0.08 -12.37,1.33 -20.27,5 1.08,-2.56 0.04,-2.55 -0.99,-4.93l-21.26 -0.02c-1.58,2.44 1.13,1.19 -1.58,3.14l-1.57 -3.13c-3.06,0.06 -9.67,-0.34 -12,0.43 -3.18,4.8 -1.31,8.67 -6.33,11.18l5 -11.45c-11.16,-0.21 -11.02,-1.89 -12.27,3 -0.23,0.9 -0.5,3.8 -0.61,4.89 -0.56,5.27 -0.09,5.16 1.01,9.17l4.72 1.16 -2.12 3.93c1.79,0.09 1.38,0.93 2.98,-0.66 2.44,-2.43 1.13,-0.85 -0.17,-3.17 5.18,0.73 5.56,-2.81 7.87,-7.13 1.56,-2.94 3.7,-8.31 6.41,-10.08 2.36,4.79 -7.76,19.06 -13.91,23.08 -1.95,1.27 -8.52,2.85 -10.33,1.13 -1.97,-2.46 0.64,-4.12 -3.32,-8.49 -3.61,1.81 -2.14,3.59 -7.91,3.93 1.63,-2.5 4.72,-4.07 7.03,-6.19 -0.46,-7.05 -3.68,-9.08 -6.54,-14.74l-15.66 0 -0.24 26.24zm156.4 -15.74c-2.37,-1.3 0.08,0.05 -1.74,-1.9 -4.81,-5.14 -1.65,-2.52 -3.77,-8.17 -1.55,1.57 -0.94,-1.93 -0.95,3.13 -0.02,7.2 3.07,16.47 3.27,18.2 0.31,2.82 0.51,5.76 0.81,8.68 -1.71,-3.64 -0.68,-4.52 -3.76,-8.16 -4.46,-5.28 1.5,-4.9 -4.81,-17.27 -1.49,-2.91 -4.26,-6.22 -7.95,-5.01 -2.55,0.84 -1.46,6.84 -1.55,12.26 -0.07,4.2 -0.77,9.83 0.36,13.73l14.01 0c-0.12,12.56 -1.82,32.69 0.72,44.02 0.18,0.82 0.37,2.19 0.17,3.61 -1.56,10.9 -0.94,17.89 -0.94,29.61l-14.62 0.15c-0.78,2.91 -0.38,21.55 0.27,24.74l71.8 0.33 1.05 -25.08 -14.42 -0.21c-0.11,-5.69 -1.14,-24.17 0.47,-27.99l10.56 -0.63c1.12,-0.05 10.54,1.25 19.44,0.69l-0.12 -21.05c-5.09,-0.43 -1.12,2.79 -5.98,0.67 -6.13,-2.66 -13.6,-0.72 -24.5,-1.73 -1.03,-4.89 -1.59,-21.32 -0.25,-25.95 0.2,-0.1 0.5,-0.42 0.61,-0.23l15.37 -0.36c4.9,0.02 11.59,-0.66 15.81,0.52 1.11,2.4 0.65,6.65 1.03,10.08 2.96,0.32 6.09,0.31 9,0.02l27.62 0c0.97,-4.36 0.63,-32.54 -0.25,-36.38 -4.84,-1.56 -13.71,-0.94 -19.53,-0.66 1.55,3.75 3.25,2.92 2.24,7.05 -2.7,-0.35 -5.34,-5.89 -8.36,-6.2 -3.45,0.91 -1.27,1.09 -4.26,1.12 -3.88,0.03 0.21,-0.01 -3.68,1.32 0.66,-4.11 -0.3,0.13 2.1,-3.43l-34.36 -0.15c-4.15,0.33 -3.82,2.08 -4.33,6.43 -2.92,-3.38 -1.65,-0.81 -3.31,-6.14 -2.44,-0.16 -3.05,-0.56 -5.31,0.58 -2.22,1.12 -0.19,1.09 -2.44,1.29 -0.75,0.07 -2.31,-0.36 -4.03,0.13 -2.46,0.69 -1.88,1.4 -3.67,2.53l-3.12 -4.69 -10.43 -0.02c-1.14,4.39 0.22,2.28 -1.96,5.19 -3.03,4.05 -0.91,2 -2.31,5.33zm-423.89 16.82l10.97 0.19 0.18 75.63 -11.06 0.35 -0.23 24.86c6.85,0.87 52.51,0.54 63.97,0.31 0.94,-8.2 0.15,-16.52 -0.05,-24.77l-11.27 -0.53 -0.54 -25.2 9.24 0.19c2.43,6.06 11.77,18.62 16.05,25.48 2.15,3.44 14.82,24.65 17.47,25.23l34.35 -0.29 -0.06 -24.7c-8.43,-2.79 -8.64,3.12 -10.67,4.67 -2.53,-1.79 -0.87,-1.78 -2.58,-4.75 -0.68,-1.17 -2.39,-3.07 -3.37,-4.59l-17.42 -27.01c8.2,-4.75 13.3,-8.31 16.09,-18.56 7.98,-29.35 -10.05,-53.87 -47.84,-53.87l-55.13 0c-14.21,0 -6.32,1.31 -8.2,21.7 -0.18,1.88 0.01,3.78 0.1,5.66zm27.79 80.53c-1.56,4.25 0.82,1.83 -3.15,4.43 -1.14,-0.39 -0.8,-0.56 -0.93,-0.65 -0.07,-0.05 -0.28,-0.2 -0.36,-0.25 -0.1,-0.06 -0.33,-0.21 -0.42,-0.27l-0.98 -0.55c1.15,6.37 5.84,4.23 7.16,3.28l1.11 2.31c1.54,2.3 3.56,2.04 7.94,2.04 -0.71,-2.84 -1.63,-2.98 -1.38,-4.24 0.44,-2.25 0.76,-1.18 1.34,-1.56l2.14 -0.82c-3.86,-4.45 -2.04,-2.28 -4.89,-3.72l-1.79 -1.11c-0.16,-0.1 -0.38,-0.31 -0.57,-0.47l-2.36 2.23c-1.62,0.51 0.06,-0.04 -2.86,-0.65zm-240.18 -104.88c-0.1,0.89 0.65,0.8 -0.53,3.06 -3.62,-0.81 -0.72,-0.15 -3.9,-1.89 -2.01,-1.1 -0.53,-0.88 -4,-0.97 4.05,0.8 1.29,-0.47 2.6,2.3 -4.64,-0.76 -1.91,-1.64 -4.04,-0.3l-0.53 4.77c4.98,0.77 12.01,0.32 14.82,-0.95 0.4,-0.18 2.08,-1.78 4.35,-0.85 0.94,0.39 0.69,0.26 1.47,1.44 1.59,-0.48 0.93,-0.03 2.36,-2.24 1.64,2.68 1.25,1.77 3.14,1.65l1.95 -0.01c2.85,-0.78 0.99,0.05 2.05,-1.45 -1.95,-4.73 -3.05,-4.51 -6.35,-2 -0.81,-1.49 0.28,-2.29 0,-3.4 -8.43,-1.43 -4.5,6.07 -13.39,0.84zm264.3 25.84l0.02 29.14c14.5,1.32 26.42,-0.2 25.82,-16.55 -0.5,-13.6 -10.22,-14.2 -18.53,-14.68 -4.08,-0.23 -5.3,-1.19 -7.31,2.09zm112.73 38.44c-0.04,0.13 -0.03,0.23 -0.02,0.42 0.01,0.18 0,0.35 0.02,0.42 0.02,0.06 0.06,0.33 0.09,0.42l2.07 2.86c-3.1,1.85 -2.78,3.31 -5.08,6.2l-10.98 -1.47c-2.37,-0.58 -2.14,-1.29 -3.7,-2.68 -1.18,-1.05 -0.22,-0.76 -2.04,-1.32 -1.73,-0.54 -1.46,-0.36 -3.36,-0.33l1.18 7.86c7.63,0.3 3.09,0.48 7.03,2.77 8.39,-1.98 0.64,-3.21 12.07,-0.99 2.4,-0.64 0.71,-0.53 1.23,-0.84 1.35,-0.83 -0.2,-0.49 1.84,-0.88 3.55,-0.69 1.06,1.34 4.76,-0.25 0.55,-2.85 -1.17,-1.96 -1.99,-5.71 0.95,-0.97 0.9,-1.46 2.64,-1.77l3.16 0.06c2.31,0.05 -0.09,1.89 2.64,-0.12 -0.52,-0.37 -1.16,-0.74 -1.78,-1.6 -3.12,-4.26 -0.54,-2.43 -0.5,-2.47l-3.11 1.64c-0.1,0.06 -0.31,0.23 -0.49,0.31 -1.85,-2.09 -2.63,-4.13 -5.68,-2.53zm-137.34 36.83c3.26,-1.46 4.47,-1.64 6.02,-3.62 3.24,-4.15 0.39,-1.21 4.65,-3.87 -0.86,-1.57 -0.45,-0.16 -0.97,-2.72 -4.03,5.25 -3.08,-1.57 -4.33,-3.85 -1.49,-2.71 -1.49,1.1 -5.25,0.54l-2.5 -1.06c2.19,-1.86 3.07,-0.9 2.49,-4.33 -2.82,1.23 -2.24,-0.62 -4.36,2.71 -2.17,3.42 -0.65,5.65 2.24,7.37 1.53,0.9 2.29,-2.82 2.01,8.83z"/>
 </g>
</svg>
