<!-- Generated by IcoMoon.io -->
<svg version="1.1" xmlns="http://www.w3.org/2000/svg" width="183" height="32" viewBox="0 0 183 32">
<title>logo-hihello</title>
<path fill="#000" d="M41.329 26.054h-5.411v-9.997c0-2.58-0.938-3.863-2.82-3.863-0.962 0-1.741 0.358-2.334 1.078-0.598 0.721-0.897 1.642-0.897 2.75v10.031h-5.424v-26.037h5.424v11.057h0.070c1.331-2.023 3.131-3.037 5.412-3.037 3.987 0 5.98 2.404 5.98 7.212v10.805zM59.712 18.808h-11.474c0.182 2.551 1.795 3.828 4.826 3.828 1.935 0 3.635-0.457 5.101-1.372v3.916c-1.624 0.868-3.735 1.302-6.338 1.302-2.838 0-5.042-0.786-6.614-2.363-1.566-1.572-2.351-3.769-2.351-6.584 0-2.92 0.845-5.236 2.545-6.942 1.695-1.706 3.776-2.556 6.25-2.556 2.562 0 4.549 0.762 5.951 2.281 1.401 1.524 2.104 3.594 2.104 6.203v2.286zM54.682 15.471c0-2.515-1.020-3.775-3.060-3.775-0.868 0-1.625 0.357-2.258 1.078-0.639 0.721-1.020 1.624-1.161 2.697h6.479zM66.657 26.054h-5.424v-26.037h5.424v26.037zM74.945 26.054h-5.423v-26.037h5.423v26.037zM86.186 26.483c-2.931 0-5.235-0.821-6.912-2.462s-2.515-3.876-2.515-6.69c0-2.908 0.868-5.189 2.609-6.831s4.099-2.462 7.059-2.462c2.92 0 5.213 0.821 6.872 2.462s2.492 3.817 2.492 6.52c0 2.92-0.856 5.23-2.568 6.924s-4.058 2.539-7.037 2.539zM86.327 12.194c-1.283 0-2.28 0.44-2.99 1.319-0.709 0.885-1.066 2.134-1.066 3.746 0 3.377 1.366 5.066 4.092 5.066 2.598 0 3.9-1.735 3.9-5.2 0-3.289-1.313-4.931-3.934-4.931z"></path>
<path fill="#693698" d="M94.851 31.931c-0.341 0-0.632-0.118-0.868-0.358-0.24-0.235-0.358-0.528-0.358-0.868 0-0.345 0.117-0.641 0.349-0.877 0.236-0.24 0.528-0.358 0.877-0.358 0.17 0 0.328 0.030 0.475 0.096s0.28 0.149 0.389 0.253c0.113 0.109 0.201 0.236 0.27 0.389 0.065 0.157 0.101 0.323 0.101 0.497 0 0.17-0.035 0.332-0.101 0.48-0.070 0.149-0.157 0.279-0.27 0.388-0.109 0.11-0.24 0.196-0.389 0.262s-0.306 0.096-0.475 0.096zM115.34 31.669v-7.704c0-0.781-0.061-1.444-0.178-1.989-0.118-0.541-0.305-0.982-0.554-1.322-0.253-0.34-0.571-0.589-0.955-0.742-0.388-0.153-0.851-0.231-1.388-0.231-0.475 0-0.925 0.113-1.352 0.34-0.423 0.227-0.794 0.537-1.116 0.934-0.319 0.397-0.567 0.864-0.751 1.401s-0.274 1.116-0.274 1.741v7.573h-1.65v-7.871c0-2.744-1.047-4.118-3.145-4.118-0.484 0-0.934 0.109-1.348 0.328-0.419 0.218-0.781 0.519-1.090 0.911s-0.55 0.864-0.725 1.418c-0.174 0.55-0.261 1.156-0.261 1.82v7.513h-1.649v-13.088h1.649v2.12h0.052c0.921-1.623 2.26-2.434 4.023-2.434 0.458 0 0.894 0.070 1.304 0.21 0.406 0.144 0.772 0.34 1.095 0.589 0.327 0.253 0.602 0.554 0.838 0.903 0.236 0.353 0.41 0.737 0.532 1.156 0.458-0.934 1.056-1.64 1.793-2.129 0.737-0.484 1.57-0.728 2.495-0.728 2.871 0 4.306 1.771 4.306 5.318v8.084h-1.649zM125.32 31.983c-0.969 0-1.841-0.161-2.609-0.484-0.773-0.327-1.431-0.785-1.976-1.379s-0.96-1.3-1.248-2.129c-0.293-0.829-0.436-1.745-0.436-2.753 0-1.090 0.153-2.067 0.458-2.927 0.31-0.864 0.746-1.593 1.309-2.194 0.567-0.602 1.252-1.060 2.050-1.375 0.803-0.318 1.697-0.476 2.683-0.476 0.947 0 1.798 0.157 2.552 0.467 0.759 0.31 1.401 0.764 1.928 1.348 0.528 0.589 0.934 1.309 1.213 2.151 0.283 0.847 0.423 1.806 0.423 2.879 0 1.025-0.149 1.954-0.441 2.797s-0.711 1.562-1.257 2.168c-0.545 0.607-1.208 1.073-1.993 1.409-0.782 0.332-1.667 0.498-2.657 0.498zM125.45 19.68c-0.72 0-1.366 0.122-1.945 0.371s-1.078 0.607-1.492 1.082c-0.415 0.471-0.734 1.051-0.956 1.741-0.223 0.685-0.332 1.466-0.332 2.334 0 0.82 0.109 1.557 0.332 2.211 0.222 0.659 0.536 1.222 0.942 1.693 0.406 0.467 0.899 0.829 1.479 1.077 0.58 0.253 1.226 0.38 1.946 0.38 0.733 0 1.383-0.122 1.945-0.367 0.563-0.24 1.038-0.593 1.431-1.060 0.393-0.467 0.69-1.034 0.89-1.71 0.201-0.672 0.301-1.44 0.301-2.304 0-1.762-0.393-3.114-1.178-4.048s-1.906-1.401-3.363-1.401zM142.886 31.669v-7.547c0-2.962-1.069-4.441-3.211-4.441-0.567 0-1.096 0.113-1.58 0.34s-0.903 0.537-1.256 0.938c-0.349 0.402-0.628 0.877-0.825 1.427-0.201 0.55-0.301 1.148-0.301 1.785v7.5h-1.65v-13.088h1.65v2.269h0.052c0.969-1.723 2.43-2.583 4.376-2.583 1.431 0 2.522 0.462 3.272 1.392 0.747 0.929 1.122 2.272 1.122 4.031v7.98h-1.649zM146.805 29.317c0.248 0.196 0.515 0.371 0.803 0.524 0.287 0.152 0.589 0.283 0.894 0.397 0.305 0.109 0.61 0.192 0.925 0.248 0.31 0.057 0.602 0.083 0.886 0.083 1.937 0 2.905-0.728 2.905-2.182 0-0.331-0.070-0.619-0.205-0.863-0.135-0.245-0.332-0.467-0.584-0.668-0.258-0.201-0.563-0.384-0.921-0.554s-0.763-0.349-1.213-0.537c-0.606-0.248-1.126-0.502-1.561-0.754-0.432-0.258-0.79-0.537-1.073-0.838-0.279-0.306-0.489-0.637-0.624-0.999s-0.205-0.776-0.205-1.235c0-0.58 0.127-1.099 0.376-1.548 0.253-0.454 0.589-0.838 1.012-1.152 0.428-0.314 0.916-0.559 1.47-0.725 0.558-0.165 1.143-0.248 1.754-0.248 1.13 0 2.111 0.214 2.953 0.637v1.723c-0.977-0.633-2.033-0.947-3.163-0.947-0.405 0-0.776 0.052-1.112 0.153-0.336 0.104-0.624 0.249-0.864 0.436-0.235 0.188-0.423 0.415-0.554 0.676s-0.196 0.55-0.196 0.864c0 0.327 0.052 0.61 0.152 0.851 0.105 0.244 0.262 0.467 0.48 0.663 0.219 0.192 0.498 0.38 0.843 0.563 0.344 0.179 0.764 0.371 1.261 0.576 0.628 0.253 1.173 0.506 1.631 0.759 0.463 0.253 0.842 0.524 1.139 0.82 0.297 0.293 0.519 0.619 0.664 0.986 0.143 0.362 0.218 0.781 0.218 1.257 0 0.589-0.122 1.116-0.362 1.575-0.245 0.462-0.58 0.851-1.008 1.165s-0.934 0.554-1.509 0.716c-0.576 0.161-1.204 0.244-1.885 0.244-1.317 0-2.425-0.279-3.324-0.834v-1.832zM162.845 31.508c-0.563 0.284-1.174 0.423-1.837 0.423-2.107 0-3.163-1.217-3.163-3.652v-8.259h-2.304v-1.44h2.304v-3.285l1.649-0.536v3.822h3.351v1.44h-3.351v7.997c0 0.886 0.144 1.522 0.432 1.915 0.288 0.389 0.772 0.585 1.461 0.585 0.506 0 0.99-0.153 1.458-0.458v1.448zM165.185 25.413c0.009 0.803 0.113 1.522 0.319 2.164 0.205 0.637 0.497 1.182 0.881 1.623 0.384 0.445 0.851 0.786 1.4 1.016 0.55 0.236 1.169 0.354 1.858 0.354 1.475 0 2.867-0.515 4.18-1.549v1.618c-1.252 0.895-2.77 1.344-4.55 1.344-0.877 0-1.675-0.153-2.391-0.462-0.716-0.306-1.322-0.75-1.828-1.335-0.501-0.584-0.89-1.304-1.16-2.154-0.275-0.855-0.41-1.828-0.41-2.919 0-0.982 0.148-1.889 0.445-2.727 0.301-0.833 0.71-1.557 1.239-2.168 0.532-0.61 1.156-1.086 1.88-1.431s1.514-0.519 2.373-0.519c0.846 0 1.588 0.148 2.238 0.441 0.646 0.296 1.191 0.715 1.628 1.261 0.441 0.545 0.772 1.208 1.003 1.993s0.345 1.663 0.345 2.631v0.82h-9.45zM172.959 23.973c-0.026-1.361-0.349-2.417-0.973-3.168s-1.492-1.125-2.6-1.125c-0.554 0-1.069 0.096-1.545 0.293-0.471 0.196-0.89 0.48-1.248 0.851s-0.655 0.825-0.89 1.357c-0.236 0.532-0.397 1.13-0.493 1.793h7.748zM183.431 20.26c-0.384-0.283-0.877-0.423-1.483-0.423-0.432 0-0.816 0.083-1.148 0.249-0.336 0.165-0.624 0.388-0.877 0.672-0.253 0.279-0.462 0.606-0.636 0.977-0.179 0.371-0.319 0.756-0.423 1.157-0.109 0.401-0.183 0.807-0.231 1.213-0.048 0.41-0.070 0.798-0.070 1.164v6.4h-1.623v-13.088h1.623v2.805h0.052c0.152-0.476 0.345-0.908 0.58-1.283 0.236-0.379 0.506-0.702 0.811-0.96 0.306-0.262 0.642-0.458 1.004-0.593s0.742-0.205 1.143-0.205c0.266 0 0.501 0.018 0.71 0.052 0.205 0.031 0.397 0.084 0.567 0.153v1.71z"></path>
<path fill="#50c987" d="M14.577 26.054h-2.82v-10.138c0-3.664-1.361-5.493-4.087-5.493-1.371 0-2.533 0.528-3.471 1.589s-1.407 2.421-1.407 4.080v9.962h-2.82v-26.037h2.82v11.368h0.071c1.348-2.222 3.271-3.33 5.769-3.33 3.963 0 5.945 2.386 5.945 7.159v10.84zM19.627 3.997c-0.498 0-0.931-0.17-1.283-0.515-0.358-0.341-0.534-0.775-0.534-1.302s0.176-0.967 0.534-1.313c0.352-0.352 0.785-0.528 1.283-0.528 0.516 0 0.956 0.176 1.319 0.528 0.358 0.345 0.54 0.785 0.54 1.313 0 0.504-0.182 0.932-0.54 1.284-0.363 0.357-0.803 0.533-1.319 0.533zM21.005 26.054h-2.82v-17.589h2.82v17.589z"></path>
</svg>
