<!-- Generated by IcoMoon.io -->
<svg version="1.1" xmlns="http://www.w3.org/2000/svg" width="32" height="32" viewBox="0 0 32 32">
<title>logo-sex-shop-gay-thanos-cdmx</title>
<path fill="#788598" d="M6.92 26.764c2.186 1.386 4.788 2.264 7.905 2.029 2.61-0.197 5.835-1.372 7.094-2.849-0.26 0.018-0.222 0.082-0.151-0.162-0.566 0.204-1.15 0.761-1.797 1.103-0.68 0.36-1.298 0.633-2.017 0.899-1.473 0.543-3.555 0.825-5.189 0.609-3.824-0.037-7.55-3.067-8.918-4.991-0.883-1.242-1.746-2.972-2.145-4.819-0.381-1.759-0.543-4.587 0.304-6.019l-0.505-0.101c-0.175 1.64-0.597 2.495-0.435 4.456 0.126 1.524 0.479 2.858 1.067 4.18 1.070 2.406 2.772 4.447 4.786 5.666z"></path>
<path fill="#788598" d="M13.351 27.71c0.968 0.037 2.255 0.042 2.96-0.332l-0.144-0.391c-3.627 0.494-7.14-0.436-9.284-2.244-2.134-1.8-3.811-3.848-4.331-7.777l-0.275-0.022c0.034 3.102 1.889 5.845 3.494 7.447 1.78 1.776 4.116 3.059 7.579 3.319z"></path>
<path fill="#788598" d="M27.018 5.969c0.853 1.015 1.547 2.213 2.399 2.985 0.531-0.437 0.184 0.105 0.275-0.679-0.398-0.164-0.999-0.943-1.144-1.322 0.48-0.511 1.114-0.885 1.617-1.265 0.521-0.393 1.361-0.761 1.435-1.506-1.316 0.068-2.283 2.040-3.62 2.255 0.111-0.467-0.016-0.187 0.234-0.503 0.141-0.18 0.248-0.231 0.392-0.338l1.673-1.246c0.486-0.359 0.581-0.254 0.792-0.903-0.795 0.146-2.038 1.336-2.991 1.981-0.397 0.269-0.154 0.112-0.489 0.293-0.95-0.826-0.951-1.725-1.712-1.573-0.063 0.439 0.062 0.42 0.458 0.943 0.254 0.336 0.492 0.602 0.68 0.878z"></path>
<path fill="#887588" d="M24.551 8.96c0.147-0.444 0.602-0.643 1.086-1.040 0.208-0.171 0.402-0.365 0.607-0.511 0.067-0.048 0.22-0.165 0.323-0.182 0.386-0.062 0.115-0.017 0.325 0.104 0.019 0.381-1.975 1.762-2.341 1.629zM1.985 11.411c0.711 0.218 2.847-0.048 3.839 0.070l-2.319-0.151c0.227-0.675 0.45-0.821 0.557-1.46-1.103 1.012-0.066 1.467-1.714 1.554 0.842-3.133 4.706-6.714 8.351-7.418 3.73-1.535 9.784 0.491 12.424 3.582 0.433 0.507 0.829 1.049 1.242 1.673 0.409 0.617 0.615 1.207 0.992 1.853l0.421 0.076-0.688-1.677 2.132-1.66c0.040 0.035 0.090 0.037 0.104 0.095l0.982 1.193c0.547 0.549-0.051 0.153 0.605 0.395-0.082-0.874-1.581-2.327-2.138-3.161l-1.129-1.503c-0.022-0.018-0.064-0.057-0.086-0.072l-0.392-0.062c-0.067 0.534 0.823 1.28 1.157 1.85-0.277 0.463-1.652 1.447-2.195 1.641-2.337-4.234-11.629-7.766-18.414-2.168-1.239 1.023-3.395 3.527-3.732 5.351z"></path>
<path fill="#887588" d="M10.864 4.546l-0.515 0.304c-1.525 0.7-1.357 0.241-3.506 1.8-0.761 0.553-2.571 2.386-2.78 3.221 0.637-0.381 0.7-1.156 2.252-2.475 0.782-0.664 2.027-1.455 3.21-1.846 2.018-1.31 6.338-0.978 8.567-0.053 1.161 0.482 2.412 1.227 3.198 1.921 0.639 0.565 2.043 2.037 2.207 2.842 0.536 0.368 0.411 0.325 0.646 0.982 0.497 0.247 0.121 0.158 0.385-0.002-0.255-1.842-3.276-4.605-4.981-5.542-4.018-2.209-6.87-0.986-8.682-1.151z"></path>
<path fill="#9a5684" d="M24.833 11.322l-0.342 0.509c0.182-0.084 0.021-0.395 0.33 0.275 0.296 0.639 0.203 0.395 0.216 1.233-0.97-0.525-0.616-0.68-0.944-0.547 0.164 0.568-0.208-0.18 0.263 0.313l0.312 0.301 0.435 0.999c0.023 0.038 0.055 0.078 0.077 0.118l0.255 1.348c-0.107 0.772-0.912 0.742-1.967 0.639l0.084-0.605-1.401 0.026c0.147 0.767 0.224 0.986 1.046 1.045 0.659 0.048 1.41 0.017 1.995-0.141-0.001 1.501-0.422 2.611-0.978 3.897l-0.682 1.078c-0.141 1.002-2.32 2.847-2.965 3.295-1.398 0.97-2.484 1.427-4.399 1.881l0.144 0.391c4.173-0.121 8.541-4.877 9.216-9.886 0.144-1.069 0.647-1.723 0.357-2.602-0.080-0.24-0.608-1.235-0.642-1.776-0.061-0.945-0.138-0.313 0.161-0.683 1.637 0.352 1.49 8.185-2.487 12.11-0.408 0.403-0.708 0.795-1.148 1.24-0.072 0.244-0.109 0.18 0.151 0.162 0.822-0.401 1.966-1.792 2.523-2.617 0.645-0.954 1.285-2.16 1.696-3.429 0.836-2.584 0.872-6.325-0.36-8.709l-0.421-0.076c-0.124 0.158 0.44 0.484-0.524 0.208z"></path>
<path fill="#a94986" d="M9.571 14.535l0.743 2.423-2.29-0.016-0.507-0.839-1.095 0.029c-0.526 1.015-0.023 0.849-1.574 0.802l0.799-2.498c0.191 0.651-0.022 0.956 0.229 1.622l0.993-0.979 0.403 0.054-0.104-0.48 0.187 0.547c0.021 0.039 0.048 0.086 0.074 0.125l0.818 0.74c0.229-0.099 1.138-0.022 0.367-0.745 0.333 0.407 0.278 0.811 0.668 1.105 0.006 0.005 0.045 0.030 0.061 0.017 0.411-0.085 0.617 0.405 0.212-0.793-0.066-0.196-0.271-0.262-0.203-0.691 0.007-0.043 0.037-0.098 0.049-0.137l0.169-0.286zM13.539 12.789c0.046 0.476 0.128 0.431 0.712 0.642l0.088-2.113 1.208 0.014-0.003 5.577-1.254 0.090-0.214-0.185c-0.585-0.61-0.87-0.73-1.392-1.214 0.388-0.226-0.661-0.745 0.728 0.011 0.502 0.273 0.826 1.061 1.771 0.832l-0.001-4.457c-1.101-0.032-0.592 1.473-0.547 2.083-0.758 0.298-0.598 0.366-1.297 0.366 0.885-0.127 0.528-0.386 0.69-0.727-0.363-0.082-0.211 0.005-0.498-0.162l-0.514-0.418 0.522-0.34zM3.868 16.486c-1.212 0.001-0.546-0.065-0.75-0.57-0.223-0.557 0.096-0.312-0.619-0.169 0.111-1.074-0.173-1.070-0.017-2.164 0.217-1.527-0.466-0.589-0.051-1.702 2.865-0.161 1.711 0.191 1.56 1.095-0.199 1.189 0.397 2.503-0.124 3.511zM23.605 15.778c-0.066 0.51-0.095 0.121 0.414 0.285 0.317-1.801-0.263-0.262-0.496-1.456-0.054-0.277 0.132-0.95 0.42-1.284l0.724 0.084 0.435 0.999c0.022 0.038 0.054 0.078 0.076 0.118l0.255 1.348c-0.107 0.772-0.913 0.742-1.967 0.639l0.084-0.605 0.054-0.128zM6.713 11.599l-1.066 2.836c0.191 0.651-0.022 0.956 0.229 1.622l0.993-0.979 0.036-0.558c0.413-0.229 0.062-0.098 0.263 0.132l0.187 0.547c0.021 0.039 0.048 0.086 0.074 0.125l0.818 0.74c0.229-0.099 1.138-0.022 0.367-0.745 0.333 0.407 0.278 0.811 0.668 1.105 0.006 0.005 0.045 0.030 0.061 0.017 0.411-0.085 0.617 0.405 0.212-0.793-0.066-0.196-0.271-0.262-0.203-0.691 0.007-0.043 0.037-0.098 0.049-0.137l0.169-0.286c-0.351-1.13-0.761-2.288-1.17-3.265-0.833 0.251-1.137-0.049-1.687 0.329zM20.94 16.065c-0.004-0.001 0.375-0.529-0.486 0.038-0.385 0.254-0.192-0.026-0.223 0.4-0.917-0.734 0.143-0.893-0.836-0.244 0.338-0.886 0.369-3.115 0.147-4.014 0.001 0 0.706 0.041 1.009-0.166 1.279 1.056 1.387 2.409 0.39 3.986zM12.684 15.601c-0.095-0.084-0.184-0.176-0.268-0.239-0.312-0.235 0.011-0.025-0.413-0.262l-0.031 1.826-1.349 0.009 0.036-5.602c0.514 0.145 1.34 0.218 1.573 0.282 0.183 0.311 0.031 0.142 0.263 0.389 0.005 0.005 0.278 0.241 0.298 0.257 0.309 0.25 0.388 0.29 0.746 0.529l-0.522 0.34 0.514 0.418c0.287 0.167 0.135 0.079 0.498 0.162-0.162 0.341 0.195 0.601-0.69 0.727 0.698 0 0.538-0.068 1.297-0.366-0.045-0.61-0.554-2.115 0.547-2.083l0.001 4.457c-0.945 0.229-1.269-0.559-1.771-0.832-1.389-0.756-0.34-0.236-0.728-0.011zM18.37 12.492l0.794-0.043 0.046 3.463-0.744-0.013c-0.341-0.779-0.151-2.442-0.096-3.407zM17.348 11.613c-0.491 0.811-1.045 0.755-1.331 1.835-0.245 0.924-0.090 1.794 0.442 2.441 1.318 1.599 3.149 1.527 4.482 0.175-0.004-0.001 0.375-0.529-0.486 0.038-0.385 0.254-0.192-0.026-0.223 0.4-0.917-0.734 0.143-0.893-0.836-0.244 0.338-0.886 0.369-3.115 0.147-4.014 0.001 0 0.706 0.041 1.009-0.166-0.878-0.717-1.442-0.697-2.629-0.593l-0.574 0.128zM23.605 15.778c-0.657-1.005-2.481-3.135-0.94-4.084l1.477-0.452c0.498 0.247 0.121 0.158 0.385-0.003l0.306 0.082-0.343 0.509c0.182-0.084 0.021-0.395 0.331 0.275 0.296 0.639 0.203 0.395 0.216 1.234-0.97-0.525-0.615-0.68-0.944-0.547 0.164 0.568-0.208-0.179 0.264 0.313l0.311 0.301-0.724-0.084c-0.288 0.334-0.475 1.007-0.42 1.284 0.233 1.195 0.813-0.345 0.496 1.456-0.509-0.163-0.48 0.225-0.414-0.285zM3.868 16.486c0.522-1.008-0.074-2.322 0.124-3.511 0.151-0.904 1.305-1.256-1.56-1.095-0.415 1.113 0.268 0.175 0.051 1.702-0.156 1.094 0.127 1.090 0.017 2.164 0.715-0.142 0.395-0.388 0.619 0.169 0.203 0.505-0.462 0.572 0.75 0.57zM1.501 12.463l-1.103-0.068 0.367-0.971 1.276-0.070-0.057 0.058c0.711 0.218 2.847-0.048 3.839 0.070l0.207 0.952-1.609 0.020-0.045 4.5-1.825 0.013-0.275-0.022c-0.429-0.519-0.121-3.008-0.27-4.382l-0.506-0.101z"></path>
</svg>
