<!-- Generated by IcoMoon.io -->
<svg version="1.1" xmlns="http://www.w3.org/2000/svg" width="32" height="32" viewBox="0 0 32 32">
<title>logo-tepozspa</title>
<path d="M15.981 15.824l-0.317 0.572c-0.064-0.2-0.036-0.317-0.121-0.521l-0.203-0.415c-0.021-0.293-1.176-2.69-1.491-3.257-0.566-1.021-1.155-2.012-1.857-2.922-0.203-0.264-1.321-1.59-1.528-1.724-0.143 0.174-0.179 0.427-0.1 0.683 0.13 0.419 0.411 0.736 0.694 1.056l0.068 0.094c0.051 0.075 0.011 0.034 0.082 0.125 0.132 0.168 0.315 0.256 0.462 0.381l0.091 0.121c0.226 0.42 0.586 0.695 0.848 1.108 0.227 0.36 0.475 0.751 0.623 1.136l0.144 0.278c0.151 0.297 0.274 0.549 0.566 0.702 0.324 0.17 0.334 0.046 0.474 0.428 0.196 0.536 0.835 2.070 0.872 2.603-0.162-0.128-1.194-1.792-1.355-2.101l-1.473-1.966c-0.457-0.541-3.066-3.293-3.542-3.374-0.032 0.403 0.19 0.606 0.381 0.916l0.197 0.279c0.123 0.18 0.18 0.322 0.368 0.474l0.322 0.314c0.068 0.087 0.245 0.268 0.341 0.344 0.284 0.225 0.408 0.22 0.726 0.587 0.098 0.113 0.144 0.249 0.251 0.388 0.176 0.228 0.269 0.169 0.377 0.3 0.161 0.195-0.025 0.185 0.236 0.406l0.454 0.505c0.271 0.388 0.347 0.353 0.495 0.539 0.271 0.343 0.38 0.431 0.833 0.487 0.273 0.587 1.155 2.039 1.293 2.51-0.254-0.138-1.535-1.657-1.748-1.972-0.407-0.604-2.185-2.207-2.815-2.719-0.99-0.803-0.984-0.859-2.113-1.563-0.288-0.18-0.872-0.644-1.192-0.675 0.139 0.623 0.748 0.973 1.062 1.357 0.475 0.582 0.411 0.308 0.755 0.658 0.222 0.226 0.374 0.218 0.559 0.494 0.259 0.387 0.469 0.371 0.655 0.471 0.080 0.044 0.037 0.101 0.124 0.165 0.163-0.076 0.139-0.18 0.342-0.232-0.060 0.175-0.128 0.187-0.211 0.365 0.161 0.192 0.212 0.203 0.405 0.34 0.239 0.169 0.179 0.317 0.534 0.238-0.082 0.274-0.030 0.208 0.194 0.404 0.194 0.169 0.239 0.249 0.416 0.141 0.081 0.147 0.015 0.146 0.176 0.267l0.308 0.215c0.269 0.165 0.376 0.19 0.744 0.182 0.171 0.373 0.515 0.749 0.77 1.093 0.15 0.203 0.718 0.96 0.779 1.131-0.322-0.192-1.713-1.498-1.985-1.81-0.428-0.492-1.557-1.328-2.052-1.735-0.316-0.259-1.833-1.249-2.289-1.482-0.408-0.208-2.276-1.193-2.55-1.246-0.189 0.326 0.005 0.47 0.218 0.664 0.077 0.070-0.005 0.015 0.109 0.103 0.057 0.045 0.147 0.085 0.199 0.112l0.51 0.267c0.198 0.061 0.196 0.455 0.795 0.696 0.012 0.005 0.026 0.009 0.038 0.014 0.015 0.006 0.057 0.026 0.070 0.033 0.019 0.010 0.074 0.053 0.089 0.064 0.053 0.042 0.023 0.021 0.082 0.072 0.139 0.12 0.36 0.373 0.525 0.222 0.011 0.013 0.026 0.016 0.030 0.041l0.084 0.15c0.003 0.006 0.007 0.023 0.014 0.033 0.124-0.094 0.203-0.193 0.314-0.265-0.086 0.153-0.126 0.186-0.182 0.351 0.094-0.032 0.048-0.038 0.111-0.086 0.211-0.163-0.015-0.060 0.255-0.138-0.089 0.257-0.123 0.171-0.171 0.363 0.541 0.375 0.366 0.060 0.68 0.016l-0.186 0.286c0.356 0.021 0.078-0.038 0.392-0.156-0.056 0.267-0.079 0.124-0.117 0.322 0.165 0.12 0.341 0.18 0.499 0.281 0.369 0.235 0.205 0.245 0.534 0.105-0.056 0.332-0.016 0.254 0.253 0.424 0.344 0.216 0.135 0.122 0.475 0.148-0.043 0.189-0.030 0.083 0.030 0.182 0.137 0.023 0.23 0.015 0.266 0.037 0.113 0.069 0.141 0.326 0.899 0.208 0.267 0.399 1.885 1.961 2.004 2.284-0.73-0.3-1.887-1.472-2.676-1.908l-1.769-1.053c-1.224-0.685-2.483-1.192-3.745-1.794-0.207-0.098-1.132-0.572-1.232-0.508-0.090 0.102-0.030-0.019-0.019 0.102 0.044 0.489 0.228 0.588 0.564 0.857 0.625 0.5 0.449 0.131 0.899 0.459 0.069 0.050 0.092 0.062 0.162 0.1 0.324 0.171 0.18 0.236 0.501 0.081-0.028 0.255-0.058 0.117 0.034 0.271 0.167 0.010 0.026 0.024 0.164-0.022 0.005-0.002 0.13-0.065 0.161-0.080l-0.074 0.263c0.2-0.011 0.237 0.005 0.356-0.066l0.297 0.211c0.299 0.106 0.35-0.064 0.509-0.334l-0.194 0.419c0.147 0.183 0.258 0.302 0.467 0.207l0.052 0.191c0.183 0.003 0.078-0.007 0.275-0.088-0.029 0.407 0.068 0.318 0.394 0.498 0.067 0.037 0.212 0.158 0.295 0.183 0.127 0.040 0.148-0.013 0.188-0.046l0.088-0.097c-0.017 0.366-0.037 0.286 0.687 0.533 1.439 0.49 1.016-0.119 1.514 0.301 0.294 0.248 1.615 1.306 1.74 1.529l-2.142-1.051c-0.317-0.186-0.735-0.329-1.090-0.478-0.388-0.163-0.731-0.306-1.143-0.472-0.733-0.297-1.67-0.459-2.48-0.688-0.329-0.093-2.489-0.416-2.79-0.4-0.014 0.717 0.19 0.659 0.636 0.937 0.12 0.075 0.237 0.153 0.388 0.207l0.22-0.187c0.013 0.158-0.012 0.11 0.051 0.215 0.005 0.009 0.014 0.021 0.021 0.029 0.042 0.053 0.267 0.208 0.64 0.231 0.125 0.008 0.163-0.014 0.3-0.003 0.165 0.013 0.094 0.011 0.261 0.063 0.301 0.093 0.353 0.142 0.438-0.074 0.133 0.173 0.193 0.313 0.431 0.067l0.037 0.085c0.099 0.165 0.218 0.298 0.476 0.040 0.072 0.092 0.060 0.12 0.154 0.153 0.057-0.092 0.111-0.163 0.165-0.25l0.032 0.318c0.895 0.070 0.486 0.098 1.021 0.253 0.19 0.055 0.138 0.084 0.273-0.083-0.005 0.457 0.129 0.175 0.314 0.413l0.149-0.145 0.1 0.233 0.659 0.121c0.325-0.005 0.518-0.235 0.627-0.453 0.778 0.395 1.704 1.087 2.369 1.663 0.214 0.186 0.121 0.184 0.279 0.407 0.121 0.17 0.243 0.214 0.341 0.352l-13.728-0.001-0.003 0.46 29.020-0.005-0.002-0.451-14.408-0.005c0.259-0.152 0.381-0.472 0.505-0.628 0.273-0.344 1.917-1.435 2.296-1.664 0.319 0.226 0.424 0.388 0.88 0.296 0.383-0.077 0.087 0.042 0.819-0.216 0.229-0.081 0.427-0.221 0.664-0.267l0.798-0.242c0.007-0.003 0.022-0.009 0.030-0.012 0.179-0.076-0.003 0.090 0.196-0.187 0.009 0.010 0.019 0.015 0.023 0.033 0.026 0.116 0.156 0.109 0.229 0.076l0.823-0.229c0.186-0.054 0.034-0.017 0.171-0.078l0.235 0.006c0.165 0.045 0.115 0.064 0.317 0.030 0.219-0.037 0.418-0.101 0.565-0.216 0.014-0.011 0.115-0.13 0.139-0.054 0.068 0.214 1.25-0.416 1.376-0.54 0.004-0.184-0.051-0.296-0.116-0.449-0.751 0.002-2.204 0.069-2.822 0.251-0.829 0.245-1.642 0.39-2.388 0.727-1.435 0.648-2.715 1.311-4.121 2.045 0.182-0.063 1.348-1.051 1.646-1.296 0.48-0.393 0.222-0.094 0.742-0.111 0.315-0.010 0.572-0.259 0.837-0.392l0.49-0.303c0.434-0.291 0.536-0.31 0.986-0.469 0.178-0.063 0.168-0.161 0.253-0.304 0.113 0.097 0.045 0.106 0.235 0.119l0.021-0.258c0.060 0.13 0.065 0.207 0.278 0.147 0.222-0.063 0.182-0.147 0.164-0.373 0.015 0.007 0.034 0.007 0.041 0.028s0.030 0.022 0.039 0.027c0.178 0.112 0.057 0.040 0.212 0.016l0.163-0.057c0.171-0.076 0.368-0.077 0.547-0.166 0.259-0.129 0.376-0.023 0.653-0.109 0.535-0.165 0.256-0.191 0.417-0.456 0.048 0.052 0.027 0.027 0.077 0.104 0.040 0.062 0.038 0.077 0.077 0.139 0.318-0.136 0.687-0.352 0.932-0.64 0.113-0.132 0.166-0.165 0.112-0.411-0.291-0.062-2.471 0.458-2.684 0.565-0.742 0.374-1.518 0.687-2.216 1.133l-3.030 2.001c-0.282 0.184-0.803 0.569-1.109 0.681 0.1-0.169 0.411-0.488 0.547-0.622l1.105-1.11c0.423-0.465 0.182-0.282 0.746-0.282 0.523-0.001 1.118-0.468 1.494-0.771l0.671-0.432c0.239-0.105 0.164-0.038 0.335-0.23l0.044-0.045c0.208-0.187-0.043 0.053 0.070-0.045 0.005-0.004 0.017-0.012 0.022-0.017l0.085-0.162c0.154 0.195 0.354 0.112 0.347-0.178 0.387 0.158-0.062-0.131 0.314 0.026l-0.040-0.271c0.146 0.159 0.020 0.104 0.199 0.155 0.095-0.068 0.264-0.153 0.366-0.209 0.094-0.052-0.006-0.015 0.109-0.052 0.298-0.096 0.729-0.099 0.86-0.387l0.087-0.227c0.040-0.071 0.041-0.059 0.066-0.094 0.134 0.182-0.001 0.106 0.154 0.226l1.059-0.85c0.192-0.196 0.105-0.267 0.004-0.447-0.143 0.007-2.485 0.895-2.67 0.997-0.837 0.466-3.114 2.027-3.886 2.669-0.734 0.609-1.837 1.795-2.588 2.182 0.182-0.353 0.645-0.909 0.89-1.205l0.935-1.18c0.567-0.009 0.8-0.068 1.189-0.376l0.149-0.113c0.007-0.007 0.019-0.018 0.026-0.025l0.708-0.613c0.383-0.242 0.588-0.588 0.979-0.803 0.011-0.006 0.024-0.013 0.035-0.018 0.254-0.123 0.773-0.247 0.655-0.604 0.471 0.113 0.447-0.184 0.783-0.326 0.013-0.005 0.027-0.009 0.041-0.013 0.425-0.152 0.759-0.496 1.058-0.824 0.608-0.667 0.648-1.222 0.179-0.959l-1.973 1.18c-0.467 0.296-1.658 1.179-2.065 1.558-0.422 0.393-1.498 1.376-1.792 1.793-0.194 0.274-1.521 1.727-1.782 1.893 0.074-0.196 1.242-2.197 1.459-2.242 0.293-0.060 0.46-0.085 0.682-0.299 0.198-0.191 0.328-0.107 0.21-0.433 0.308 0.074 0.231 0.082 0.412-0.159 0.193-0.257 0.205-0.113 0.172-0.413 0.312-0.007 0.244-0.1 0.324-0.2 0.235-0.294 0.465-0.254 0.312-0.645 0.302 0.013 0.283 0.057 0.22-0.198 0.341 0.008 0.491-0.268 0.628-0.535l0.224-0.309c0.552-0.507 0.4-0.34 0.941-0.742l0.193-0.199c0.125-0.213 0.285-0.135 0.666-0.682 0.006-0.010 0.015-0.022 0.022-0.031 0.228-0.312 0.424-0.618 0.166-1.003-0.168 0.054-1.628 1.362-1.907 1.605-0.686 0.597-1.102 1.104-1.744 1.791-0.456 0.487-1.090 1.442-1.511 2.038l-0.744 1.055c-0.285 0.367-0.535 0.741-0.801 0.976 0.229-0.758 0.731-1.675 1.061-2.433 0.234-0.537 0.385-0.038 0.868-0.885 0.108-0.19 0.124-0.078 0.002-0.253 0.262 0.021 0.235-0.052 0.364-0.27 0.124-0.211 0.325-0.352 0.375-0.602 0.042-0.213 0.119-0.178 0.201-0.309 0.096-0.152 0.076-0.044-0.022-0.245 0.377-0.023 0.455-0.568 0.554-0.676 0.123-0.135 0.030 0.101 0.096-0.093 0.008-0.024 0.091 0.044-0.048-0.212 0.328 0.037 0.267-0.163 0.36-0.385 0.039-0.092 0.019-0.031 0.135-0.121 0.23-0.177 0.33-0.473 0.478-0.691 0.078-0.116 0.966-0.911 0.54-1.443-0.225 0.084-1.29 1.504-1.512 1.766-0.503 0.592-2.116 3.505-2.414 4.169-0.298 0.665-0.903 1.496-1.129 2.14z"></path>
<path d="M15.34 14.465l0.203 0.415c0.085 0.203 0.057 0.321 0.121 0.521l0.317-0.572c-0.092-0.116-0.014-0.216 0.066-0.551 0.057-0.234 0.103-0.413 0.173-0.625l0.494-1.597c0.064-0.112 0.013-0.052 0.107-0.112 0.254-0.162 0.239-0.026 0.451-0.326 0.21-0.298 0.372-0.668 0.496-1.097 0.069-0.238 0.128-0.281 0.207-0.541 0.061-0.204 0.115-0.412 0.19-0.615 0.277-0.749 0.326-0.993 0.712-1.638 0.108-0.179 0.172-0.327 0.26-0.54 0.141-0.342 0.379-0.898 0.12-1.204-0.185 0.079-0.038-0.060-0.184 0.162-0.056 0.084-0.085 0.171-0.125 0.247l-0.767 1.418c-0.322 0.614-0.554 1.42-0.798 2.078-0.457 1.229-1.139 2.975-1.53 4.219-0.085-0.195 0.208-1.899 0.255-2.261 0.080-0.611 0.286-0.213 0.443-0.826l0.321-2.313c0.026-0.842 1.062-2.818 0.35-2.996-1.12 3.326-1.189 6.629-1.428 7.386-0.021-0.046-0.28-3.607-0.325-4.052-0.196-1.927-0.234-1.711-0.507-3.249-0.007-0.044-0.029-0.185-0.039-0.217-0.083-0.261 0.029-0.113-0.147-0.203-0.313 0.352 0.052 1.605 0.121 2.067 0.127 0.837 0.236 3.164 0.436 3.709 0.239 0.654 0.236-0.134 0.236 1.571 0 0.222 0.102 0.903-0.023 1.082-0.236-0.667-0.316-1.539-0.532-2.209-0.347-1.071-1.082-3.1-1.546-4.002l-0.703-1.371c-0.096-0.192-0.104-0.335-0.299-0.411-0.178 0.153-0.187 0.212-0.009 0.791 0.415 1.349 0.811 1.997 1.311 3.12 0.116 0.258 0.208 0.509 0.303 0.809l0.333 0.792c0.16 0.266 0.269 0.405 0.56 0.546 0.053 0.472 0.166 0.888 0.24 1.333l0.218 1.116c-0.034 0.213 0.095 0.010-0.081 0.145z"></path>
<path d="M30.531 26.623l0.001-0.434-28.997-0.002v0.435z"></path>
<path d="M9.467 22.862l0.002-1.921c0.637 0.096 0.681 0.185 0.687 0.908 0.006 0.72 0.015 0.981-0.688 1.012zM8.732 20.983l0.009 4.188c-0.174-0.001-0.253-0.023-0.368 0.042 0.142 0.053 1.457 0.058 1.601 0l-0.503-0.050-0.003-2.225c0.476-0.006 0.868-0.070 1.145-0.333 0.274-0.261 0.42-0.762 0.159-1.188-0.412-0.672-1.5-0.566-2.42-0.533 0.176 0.108 0.188 0.011 0.379 0.1z"></path>
<path d="M24.457 20.954c0.646 0.027 0.676 0.257 0.684 0.951 0.008 0.66-0.042 0.926-0.688 0.955l0.005-1.906zM23.727 21.037l0.001 4.134c-0.181-0.002-0.257-0.023-0.374 0.041l1.1-0.051-0.001-2.228c1.809 0.007 1.742-1.555 0.781-1.94-0.434-0.174-1.355-0.119-1.904-0.116l0.086 0.032c0.376 0.098 0.203-0.050 0.312 0.128z"></path>
<path d="M15.494 22.174c0.306-0.377-0.070-1.21 1.242-1.209-0.142 0.726-1.429 3.941-1.416 4.27l2.090 0.005c0.027-0.267 0.055-1.342-0.016-1.524-0.167 0.049-0.032-0.135-0.183 0.492-0.176 0.726-0.484 0.927-1.197 0.951l1.472-4.281-2.048-0.005 0.058 1.301z"></path>
<path d="M1.534 22.173c0.231-0.163 0.051-1.070 0.828-1.2l0.003 4.195 0.719-0.013 0.002-4.171c0.649 0.032 0.701 0.941 0.739 1.041 0.060 0.158-0.026 0.099 0.12 0.136l0.030-1.259-2.501-0.030c-0.008 0.254-0.048 1.027 0.040 1.265 0.003 0.009 0.011 0.026 0.019 0.037z"></path>
<path d="M29.162 21.363c-0.007 0.595-0.29 1.094-0.553 1.385-0.054 0.060-0.959 0.987-1.2 0.445-0.2-0.451 0.181-1.3 0.37-1.538 0.393-0.495 0.72-0.42 1.383-0.291zM28.938 22.685c-0.025 0.321-0.151 0.682-0.075 0.975 0.251 0.49 1.421-0.445 1.258-0.786-0.277 0.133-0.252 0.533-0.714 0.502-0.003-0.775 0.352-1.701 0.391-2.376-3.192-0.513-3.788 3.342-2.168 2.72 0.293-0.112 0.482-0.274 0.704-0.45 0.254-0.2 0.376-0.415 0.604-0.586z"></path>
<path d="M19.446 23.709c-0.092 0.145-0.1 1.382 0 1.532 0.179-0.149 0.033-0.405 0.327-0.328 0.069 0.018 0.922 0.755 1.577 0.087 0.684-0.696-0.077-1.629-0.439-2.039-0.22-0.25-1.367-1.236-1.046-1.806 0.211-0.375 1.017-0.441 1.375 0.751 0.065 0.215 0.009 0.196 0.156 0.267v-1.297c-0.154 0.103-0.057 0.126-0.163 0.306-0.38-0.050-0.385-0.381-1.070-0.318-0.384 0.035-0.696 0.305-0.759 0.673-0.127 0.744 0.723 1.492 1.019 1.83 0.191 0.218 1.318 1.555 0.375 1.813-0.995 0.272-1.139-1.348-1.353-1.47z"></path>
<path d="M13.019 21.231c1.205-0.327 1.073 1.948 0.094 2.168-1.195 0.269-1.092-1.897-0.094-2.168zM13.291 20.912c-1.724 0.432-2.36 3.3-0.399 2.798 0.606-0.155 1.223-0.821 1.436-1.357 0.368-0.924-0.033-1.693-1.038-1.441z"></path>
<path d="M5.415 22.348c0.048-0.385 0.176-0.619 0.375-0.828 0.612-0.644 1.366 0.131 0.55 0.637-0.299 0.186-0.522 0.222-0.924 0.191zM7.107 22.792c-0.116 0.022-0.068-0.001-0.187 0.138-0.186 0.215-0.297 0.397-0.663 0.452-0.555 0.083-0.787-0.156-0.843-0.682 0.65-0.108 1.606-0.663 1.712-1.239 0.123-0.664-0.456-0.643-0.874-0.479-0.915 0.358-1.985 2.154-0.969 2.712 0.367 0.201 0.832 0.076 1.135-0.096 0.272-0.155 0.753-0.477 0.689-0.805z"></path>
<path d="M11.645 25.215c0.911-0.795 1.89 0.727 2.978-0.328-0.068-0.178-0.172-0.241-0.309-0.337-0.313 0.11-0.266 0.285-0.77 0.239-0.376-0.034-1.918-0.702-2.258 0.152 0.133 0.134 0.206 0.2 0.36 0.273z"></path>
<path d="M26.924 25.212c0.263-0.101 0.377-0.294 0.773-0.255 0.249 0.025 0.545 0.145 0.778 0.204 0.264 0.066 0.549 0.133 0.846 0.072 0.362-0.075 0.432-0.199 0.658-0.326-0.093-0.215-0.204-0.275-0.39-0.357-0.773 0.828-1.939-0.73-2.954 0.338 0.035 0.068 0.006 0.021 0.066 0.092l0.223 0.233z"></path>
<path d="M4.562 25.192c0.317-0.144 0.331-0.305 0.793-0.228 0.27 0.046 0.516 0.147 0.781 0.215 0.598 0.152 1.145 0.076 1.443-0.344-0.1-0.090-0.207-0.199-0.348-0.276-0.669 0.416-0.795 0.239-1.562 0.026-0.735-0.203-0.994-0.053-1.451 0.306 0.132 0.161 0.146 0.181 0.344 0.301z"></path>
</svg>
