<!-- Generated by IcoMoon.io -->
<svg version="1.1" xmlns="http://www.w3.org/2000/svg" width="99" height="32" viewBox="0 0 99 32">
<title>logo-dragvesti-blanco-letras</title>
<path fill="#fefefe" d="M17.282 10.603c0.036 2.967-0.974 5.481-3.035 7.55-2.057 2.064-4.583 3.108-7.572 3.124l-6.66 0.056v-21.32l6.607-0.001c2.953 0 5.459 1.027 7.52 3.084 2.057 2.057 3.108 4.559 3.14 7.51v-0.002zM13.657 10.629c-0.020-1.963-0.704-3.621-2.055-4.972-1.351-1.348-3.013-2.025-4.982-2.025h-2.978v14.015l3.005 0.001c1.969-0.016 3.635-0.704 4.995-2.051 1.361-1.351 2.031-3.009 2.015-4.972v0.004zM24.758 10.929v-3.617c-2.001 0-3.704 0.69-5.099 2.077s-2.093 3.078-2.093 5.080v6.781h3.623v-6.781c0-0.981 0.35-1.818 1.047-2.506s1.538-1.034 2.522-1.034zM41.208 21.252h-3.853l-0.759-2.093c-1.433 1.681-3.258 2.522-5.481 2.522-2.005 0-3.703-0.697-5.090-2.093s-2.081-3.088-2.081-5.074c0-1.524 0.432-2.895 1.292-4.122s2.005-2.1 3.434-2.62c0.844-0.304 1.665-0.457 2.47-0.457 1.52 0 2.895 0.435 4.121 1.302s2.097 2.018 2.617 3.45l3.329 9.184zM34.683 14.498c0-1.26-0.511-2.238-1.53-2.934-0.588-0.419-1.27-0.624-2.041-0.624-1.252 0-2.222 0.501-2.898 1.508-0.431 0.634-0.648 1.312-0.648 2.051 0 1.24 0.511 2.211 1.53 2.908 0.625 0.431 1.298 0.648 2.015 0.648 0.984 0 1.825-0.344 2.522-1.037 0.7-0.69 1.049-1.531 1.049-2.518v-0.001zM54.835 24.821c0 2.581-1.057 4.567-3.166 5.962-1.22 0.805-2.552 1.207-4 1.207-2.544 0-4.53-1.063-5.962-3.196-0.821-1.232-1.232-2.561-1.232-3.974 0-0.928 0.177-1.825 0.537-2.685l3.356 1.344c-0.177 0.429-0.268 0.877-0.268 1.341 0 0.984 0.35 1.822 1.047 2.512s1.541 1.034 2.526 1.034c0.968 0 1.799-0.35 2.496-1.053s1.047-1.534 1.047-2.506c0-1.58-0.743-2.685-2.224-3.317-0.448 0.108-0.89 0.161-1.338 0.161-2.017 0-3.719-0.694-5.103-2.081s-2.077-3.091-2.077-5.116c0-2.005 0.693-3.703 2.083-5.086s3.088-2.080 5.083-2.080l2.093-4.969 2.868 1.217-1.908 4.448c1.262 0.608 2.27 1.492 3.015 2.659s1.125 2.434 1.125 3.81c0 2.041-0.743 3.758-2.228 5.158 1.488 1.413 2.228 3.15 2.228 5.207l0.002 0.004zM51.21 14.455c0-0.968-0.35-1.799-1.047-2.496s-1.53-1.047-2.496-1.047c-0.984 0-1.825 0.344-2.526 1.034s-1.047 1.528-1.047 2.508c0 0.984 0.35 1.825 1.047 2.526s1.541 1.047 2.526 1.047c0.984 0 1.822-0.35 2.508-1.047s1.034-1.54 1.034-2.526l0.001 0.001zM66.397 7.314h-4.163l-2.443 5.718-2.443-5.718h-4.297l6.712 13.938 6.634-13.938zM79.003 14.462c0 0.354-0.026 0.713-0.082 1.069h-10.501c0.232 0.753 0.66 1.357 1.288 1.812s1.335 0.687 2.12 0.687c1.093 0 1.995-0.421 2.711-1.262l2.202 2.927c-1.377 1.306-3.015 1.959-4.916 1.959-2.021 0-3.728-0.694-5.112-2.077s-2.081-3.088-2.081-5.106c0-2.001 0.697-3.693 2.093-5.080s3.098-2.077 5.099-2.077c2.005 0 3.703 0.69 5.090 2.071s2.081 3.075 2.081 5.076l0.007-0.001zM74.947 12.819c-0.66-1.252-1.701-1.88-3.114-1.88-1.433 0-2.48 0.628-3.14 1.88h6.254zM89.139 17.134l0.004-0.002v-0.082c0-2.335-1.129-3.713-3.382-4.148-1.113-0.216-1.701-0.334-1.773-0.35-0.932-0.252-1.397-0.556-1.397-0.913v-0.056c0-0.755 0.572-1.131 1.717-1.131 0.733 0 1.413 0.324 2.041 0.968l2.417-2.175c-0.465-0.608-1.252-1.099-2.365-1.475-0.966-0.324-1.894-0.477-2.79-0.457-0.86 0.020-1.658 0.216-2.391 0.592-1.665 0.841-2.496 2.099-2.496 3.784 0 1.754 0.813 2.98 2.443 3.68 0.553 0.232 1.236 0.428 2.041 0.588 0.645 0.127 1.063 0.206 1.26 0.242 0.504 0.179 0.779 0.475 0.834 0.886v0.107c0 0.392-0.235 0.696-0.7 0.912-0.356 0.161-0.759 0.242-1.207 0.242l-0.082 0.001c-1.093 0-2.12-0.459-3.088-1.371l-2.015 2.604c0.624 0.539 1.439 0.988 2.43 1.344s1.91 0.543 2.751 0.563c2.113 0.056 3.742-0.618 4.887-2.018 0.572-0.7 0.86-1.479 0.86-2.339zM95.57 21.252v-3.62c-0.981 0-1.825-0.344-2.522-1.034s-1.047-1.528-1.047-2.512v-3.68h3.573v-3.088h-3.573v-7.304l-3.627-0.001v14.078c0 1.999 0.696 3.7 2.093 5.083s3.098 2.077 5.103 2.077zM98.7 4.227l0.005 0.005c0-0.592-0.212-1.095-0.632-1.518s-0.926-0.632-1.518-0.632c-0.608 0-1.125 0.203-1.544 0.614s-0.632 0.922-0.632 1.53 0.21 1.125 0.632 1.544c0.422 0.419 0.936 0.632 1.544 0.632s1.119-0.21 1.53-0.632c0.412-0.422 0.614-0.936 0.614-1.544zM98.376 21.252h-3.625v-13.938h3.625v13.938z"></path>
</svg>
