<!-- Generated by IcoMoon.io -->
<svg version="1.1" xmlns="http://www.w3.org/2000/svg" width="32" height="32" viewBox="0 0 32 32">
<title>logo-casa-condesa-acapulco</title>
<path d="M13.654 15.080c0-0.321 0.233-0.711 0.408-0.876 0.507-0.478 1.353-0.507 1.863 0.022 0.36 0.373 0.386 0.676 0.386 1.164 0 1.434-2.657 1.715-2.657-0.31zM14.707 14.13c-0.493 0.172-0.706 0.73-0.591 1.375 0.101 0.569 0.507 0.952 1.193 0.738 0.515-0.162 0.679-0.687 0.558-1.344-0.1-0.55-0.519-0.993-1.161-0.77z"></path>
<path d="M18.71 14.008l0.744-0.025c1.877 0 1.886 2.415 0.222 2.415l-0.949-0.020c0.054-0.12 0.025-0.064 0.121-0.129 0.018-0.013 0.031 0.005 0.112-0.054l0.001-1.779c0-0.521-0.14-0.144-0.251-0.408zM19.414 14.133c-0.271 0.074-0.179 0.381-0.179 0.682 0.001 0.962-0.144 1.415 0.308 1.444 1.030 0.069 1.104-0.92 0.929-1.487-0.112-0.365-0.57-0.773-1.058-0.639z"></path>
<path d="M9.986 17.559h4.351l-0.001-0.664h-4.351z"></path>
<path d="M14.337 17.559h4.344l0.001-0.664h-4.346z"></path>
<path d="M5.643 17.559h4.343v-0.664h-4.343z"></path>
<path d="M5.643 17.559v-0.664h-4.343v0.664z"></path>
<path d="M18.681 17.559h3.64c-0.050-0.147-0.085-0.101-0.034-0.24 0.011 0.005 0.025 0.006 0.030 0.022s0.023 0.017 0.029 0.023c0.141 0.133 0.049 0.1 0.163 0.151 0.183 0.070 0.312 0.044 0.52 0.044v-0.664h-4.347l-0.001 0.664z"></path>
<path d="M23.029 17.559l3.819-0.011c0.168-0.063 0.473-0.399 0.534-0.608l-0.222-0.048c-0.943-0.041-3.154 0.003-4.132 0.003v0.664z"></path>
<path d="M1.832 15.168c0 1.163 1.238 1.632 2.036 1.151 0.141-0.085 0.337-0.234 0.354-0.443-0.313-0.255-0.42 0.31-1.018 0.31-1.11 0-1.103-1.992-0.089-1.992 0.704 0 0.51 0.406 0.752 0.535 0.285 0.152 0.447-0.659-0.328-0.826-1.020-0.222-1.708 0.408-1.708 1.266z"></path>
<path d="M18.701 18.887c0-0.966 1.55-1.045 1.55 0 0 1.026-1.55 1.118-1.55 0zM18.799 18.906c0 0.969 1.342 0.889 1.342 0 0-0.905-1.342-0.837-1.342 0z"></path>
<path d="M4.233 16.362c0.081 0.030 0.542 0.048 0.65 0.002-0.062-0.145-0.070-0.077-0.195-0.186l0.243-0.613c0.4 0.189 0.443 0.037 1.011 0.102 0.079 0.141 0.19 0.316 0.2 0.519-0.009 0.007-0.025 0.003-0.030 0.018-0.019 0.056-0.143-0.006-0.201 0.16l0.83 0.019c-0.066-0.195-0.086-0.076-0.228-0.228-0.216-0.232-0.771-1.973-1.095-2.208l-0.037 0.077c-0.023 0.072-0.013 0.030-0.031 0.117-0.064 0.313-0.018 0.144-0.168 0.48-0.096 0.214-0.179 0.412-0.271 0.614l-0.425 0.904c-0.156 0.18-0.174 0.034-0.253 0.222zM4.983 15.51l0.872-0.017-0.417-0.986c-0.141 0.149-0.393 0.776-0.455 1.003z"></path>
<path d="M16.357 14.062c0.087 0.101 0.125 0.064 0.252 0.138 0.061 0.268 0.048 1.693 0.012 2.002-0.143 0.077-0.191 0.011-0.258 0.167 0.097 0.037 0.596 0.041 0.71-0.004-0.065-0.133-0.128-0.092-0.269-0.175l-0.013-1.665c0.124 0.061 1.133 1.392 1.342 1.699 0.080 0.118 0.096 0.18 0.24 0.176-0.089-0.646-0.066-1.231-0.070-1.898-0.003-0.484 0.119-0.206 0.279-0.44-0.090-0.052-0.596-0.093-0.714 0 0.218 0.265 0.285-0.191 0.282 0.664-0.001 0.229 0.038 0.78-0.024 0.962-0.266-0.096-1.098-1.606-1.377-1.668-0.143-0.033-0.299-0.026-0.391 0.042z"></path>
<path d="M22.321 17.559l0.303 0.46c0.203 0.302 0.218 0.396 0.467 0.684l0.375 0.423c0.25 0.289 0.73 0.686 1.061 0.888 0.287 0.175 0.765 0.459 1.111 0.468 0.425 0.031 0.807 0.093 1.262-0.258 0.134-0.103 0.218-0.146 0.258-0.317-0.247-0.058-0.777 0.226-1.507 0.046l-0.485-0.144-0.369-0.197c-0.663-0.353-1.378-0.945-1.87-1.539l-0.417-0.557c-0.115-0.051-0.022-0.018-0.163-0.151-0.006-0.006-0.024-0.007-0.029-0.023s-0.018-0.017-0.030-0.022c-0.051 0.139-0.016 0.093 0.034 0.24z"></path>
<path d="M20.998 14.017c0.059 0.158 0.119 0.072 0.273 0.158l0.016 2.011c-0.196 0.13-0.206-0.001-0.282 0.183 0.211 0.060 1.407 0.066 1.66 0.016 0.035-0.147 0.019-0.301-0.029-0.408-0.285 0.073 0.038 0.263-0.391 0.283-0.197 0.009-0.499 0.010-0.649-0.046-0.064-0.222-0.064-0.989-0.004-1.213 0.121-0.040 0.513-0.115 0.659 0.027 0.175 0.171-0.117 0.089 0.187 0.153l-0.016-0.568c-0.249 0.073-0.014 0.153-0.312 0.198-0.478 0.072-0.54-0.053-0.549-0.306-0.004-0.119 0.006-0.23 0.032-0.344 0.145-0.054 0.555-0.109 0.699 0.022 0.177 0.162-0.090 0.061 0.195 0.169 0.008-0.503-0.117-0.383-0.599-0.381-0.242 0.001-0.687-0.048-0.891 0.044z"></path>
<path d="M13.546 15.896c-0.154 0.029-0.247 0.183-0.48 0.276-1.499 0.6-1.731-1.723-0.752-2.035 0.219-0.070 0.522-0.059 0.71 0.066 0.080 0.053 0.151 0.138 0.191 0.207 0.119 0.206 0.027 0.187 0.233 0.243l-0.026-0.414c-0.897-0.711-2.247-0.072-2.020 1.146 0.281 1.51 2.141 1.046 2.145 0.51z"></path>
<path d="M6.924 15.75l-0.025 0.459c0.615 0.639 2.064-0.143 1.071-1.024-0.217-0.192-0.802-0.492-0.758-0.8 0.026-0.182 0.249-0.309 0.503-0.277 0.34 0.044 0.202 0.285 0.404 0.397 0.482-0.771-1.509-0.729-1.129 0.196 0.149 0.364 1.419 0.856 0.951 1.396-0.2 0.23-0.708 0.273-0.846-0.080-0.018-0.046-0.038-0.148-0.051-0.172-0.054-0.102 0.003-0.072-0.12-0.095z"></path>
<path d="M22.863 15.741c-0.064 0.117-0.048 0.333-0.034 0.491 0.747 0.482 1.52 0.016 1.367-0.614-0.064-0.263-0.352-0.48-0.545-0.616-0.293-0.206-0.536-0.337-0.519-0.684 0.245-0.22 0.597-0.35 0.765-0.046 0.085 0.155 0.024 0.185 0.163 0.222 0.285-0.807-1.407-0.676-1.165 0.16 0.131 0.451 1.433 0.83 0.988 1.445-0.111 0.152-0.392 0.226-0.633 0.144-0.33-0.112-0.156-0.383-0.385-0.501z"></path>
<path d="M13.742 19.64h0.177v-0.708c0.593 0.285 1.066-0.538 0.598-0.731l-0.598-0.066c-0.208 0-0.135 0.348-0.133 0.709 0.002 0.337-0.044 0.479-0.044 0.797zM14.234 18.278c0.18 0 0.326 0.119 0.326 0.265s-0.146 0.265-0.326 0.265c-0.18 0-0.326-0.119-0.326-0.265s0.146-0.265 0.326-0.265z"></path>
<path d="M30.288 11.967c0.325-0.364 0.357-0.239 0.412-0.474-0.682 0.159-1.067 0.584-1.417 1.106-0.061 0.090-0.099 0.14-0.144 0.266-0.156 0.229-0.246 0.489-0.362 0.778-0.081 0.202-0.144 0.44-0.223 0.649l0.205-0.462-0.307 0.69c-0.054 0.247-0.195 0.624-0.289 0.856-0.062 0.155-0.108 0.274-0.159 0.417-0.064 0.178-0.124 0.261-0.203 0.437-0.149 0.274-0.224 0.47-0.42 0.708-0.061 0.21-0.366 0.545-0.534 0.608v0.088c-0.2-0.018-0.902 0.753-2.020 0.571-0.258-0.042-0.503-0.156-0.726-0.161 0.267 0.399 1.404 0.739 2.191 0.597l0.542-0.163c0.165-0.099 0.068 0.008 0.145-0.168 0.147 0.033 0.032 0.037 0.181-0.037 0.169-0.084 0.296-0.242 0.428-0.372 0.119-0.117 0.142-0.159 0.246-0.285 0.105-0.128 0.168-0.164 0.207-0.346 0.139-0.054 0.23-0.304 0.296-0.435 0.784-1.569 0.739-3.515 1.949-4.869z"></path>
<path d="M4.267 18.888c0 0.257 0.013 0.463 0.219 0.622 0.324 0.25 0.753 0.169 1.109 0.086 0-0.316 0.044-0.461 0.044-0.797h-0.531v0.133h0.354c0 0.608 0.041 0.531-0.167 0.586-0.984 0.257-1.147-0.904-0.543-1.164 0.374-0.161 0.463-0.029 0.844 0.002-0.014-0.163 0.013-0.222-0.531-0.222-0.435 0-0.797 0.317-0.797 0.753z"></path>
<path d="M5.728 19.64c0.208-0.005 0.121 0.032 0.211-0.099 0.013-0.019 0.086-0.184 0.099-0.211 0.194-0.406 0.104-0.355 0.62-0.355 0.153 0 0.177 0.233 0.215 0.361 0.005 0.015 0.064 0.201 0.064 0.202 0.078 0.14 0.009 0.097 0.207 0.102-0.030-0.13-0.091-0.25-0.139-0.392-0.041-0.125-0.082-0.262-0.133-0.399l-0.209-0.588c-0.069-0.128 0.049-0.027-0.139-0.127-0.116 0.085-0.651 1.229-0.797 1.506zM6.558 18.388l0.096 0.45-0.325 0.019 0.23-0.469z"></path>
<path d="M14.894 18.666c0 0.522-0.123 1.018 0.62 1.018 0.702 0 0.609-0.63 0.619-1.109 0.006-0.306 0.133-0.382-0.087-0.441-0.222 0.462 0.206 1.354-0.54 1.407-0.662 0.046-0.433-0.667-0.432-0.918 0-0.163-0.002-0.326-0.002-0.488-0.135 0.036-0.177 0.033-0.177 0.531z"></path>
<path d="M24.678 19.21l-0.025-0.196c-0.108-0.212-0.19-0.258-0.228-0.391-0.649-0.293-1.244-0.848-1.385-0.886 0.060 0.226 0.443 0.605 0.644 0.773 0.25 0.21 0.671 0.583 0.994 0.7zM24.678 19.21c0.097 0.065 0.206 0.115 0.315 0.16 0.149 0.061 0.273 0.084 0.413 0.138-0.094-0.275 0.113 0.194-0.034-0.065-0.149-0.262-0.049-0.131-0.125-0.318-0.090-0.226-0.066 0.037-0.152-0.236-0.165-0.018-0.553-0.191-0.669-0.265 0.038 0.133 0.12 0.179 0.228 0.391l0.025 0.196zM25.095 18.887c0.086 0.273 0.062 0.011 0.152 0.236 0.076 0.187-0.025 0.057 0.125 0.318 0.148 0.259-0.060-0.21 0.034 0.065 0.619 0.184 1.485 0.172 2.013-0.271l0.048-0.043c-0.227-0.054-0.039-0.443-0.011-0.616-0.131 0.040-0.176 0.124-0.462 0.235-0.549 0.214-0.95 0.259-1.562 0.163-0.201-0.032-0.151-0.054-0.337-0.088zM27.456 18.578c-0.027 0.173-0.216 0.562 0.011 0.616 0.179-0.108 0.326-0.289 0.443-0.469-0.061-0.054-0.027 0.005-0.073-0.081-0.048-0.088-0.017-0.022-0.035-0.112-0.017-0.083 0.008-0.107-0.025-0.192-0.082 0.022 0.009-0.017-0.074 0.036-0.028 0.018-0.045 0.033-0.072 0.053-0.075 0.058-0.113 0.081-0.175 0.149zM27.778 18.339c0.033 0.085 0.007 0.109 0.025 0.192 0.019 0.090-0.012 0.024 0.035 0.112 0.046 0.086 0.011 0.027 0.073 0.081 0.169-0.239 0.435-0.707 0.443-1.076l-0.576 0.691z"></path>
<path d="M10.908 18.932c0 0.786 0.974 0.874 1.143 0.66 0.096-0.12-0.025-0.105-0.161-0.084-0.152 0.024-0.064 0.043-0.229 0.043-0.692 0-0.747-0.97-0.269-1.198 0.309-0.147 0.355-0.042 0.711-0.042v-0.133c-0.219-0.018-0.647-0.152-0.951 0.156-0.12 0.121-0.245 0.373-0.245 0.597z"></path>
<path d="M17.373 18.755c0 0.403-0.023 0.929 0.797 0.929 0.344 0 0.343-0.085 0.355-0.221-0.345 0.080-1.019 0.241-1.019-0.531 0-0.837 0.878-0.62 1.019-0.62v-0.133c-0.584-0.136-1.152 0.085-1.152 0.576z"></path>
<path d="M7.632 19.64h0.133c0.004-0.192 0.034-0.156 0.042-0.356 0.010-0.223-0.031-0.21 0.062-0.381 0.035-0.064 0.111-0.179 0.153-0.246 0.116-0.185 0.337-0.426 0.273-0.49-0.151-0.151-0.356 0.515-0.574 0.675-0.037-0.156-0.111-0.232-0.192-0.384-0.084-0.156-0.127-0.28-0.295-0.325 0.029 0.349 0.432 0.602 0.407 0.979-0.011 0.177-0.009 0.349-0.009 0.527z"></path>
<path d="M16.399 19.64h0.886v-0.133h-0.708l0.044-1.24c0-0.169 0.014-0.016-0.044-0.133-0.215 0.157-0.124 0.841-0.132 1.109-0.006 0.215-0.041 0.205-0.046 0.397z"></path>
<path d="M8.43 16.362c0.081 0.030 0.542 0.048 0.649 0.002-0.061-0.145-0.070-0.077-0.195-0.186l0.243-0.613c0.4 0.189 0.443 0.037 1.011 0.102 0.079 0.141 0.189 0.316 0.2 0.519-0.009 0.007-0.025 0.003-0.030 0.018-0.018 0.056-0.143-0.006-0.2 0.16l0.83 0.019c-0.066-0.195-0.086-0.076-0.228-0.228-0.216-0.232-0.771-1.973-1.095-2.208l-0.037 0.077c-0.023 0.072-0.013 0.030-0.031 0.117-0.064 0.313-0.018 0.144-0.168 0.48-0.096 0.214-0.179 0.412-0.272 0.614l-0.425 0.904c-0.156 0.18-0.174 0.034-0.252 0.222zM9.181 15.51l0.872-0.017-0.417-0.986c-0.141 0.149-0.393 0.776-0.455 1.003z"></path>
<path d="M24.288 16.362c0.081 0.030 0.542 0.048 0.65 0.002-0.062-0.145-0.070-0.077-0.195-0.186l0.243-0.613c0.4 0.189 0.443 0.037 1.011 0.102 0.079 0.141 0.19 0.316 0.2 0.519-0.009 0.007-0.025 0.003-0.030 0.018-0.019 0.056-0.143-0.006-0.201 0.16l0.83 0.019c-0.066-0.195-0.086-0.076-0.228-0.228-0.216-0.232-0.771-1.973-1.095-2.208l-0.037 0.077c-0.023 0.072-0.013 0.030-0.031 0.117-0.064 0.313-0.018 0.144-0.168 0.48-0.096 0.214-0.179 0.412-0.271 0.614l-0.425 0.904c-0.156 0.18-0.174 0.034-0.253 0.222zM25.039 15.51l0.872-0.017-0.417-0.986c-0.141 0.149-0.393 0.776-0.455 1.003z"></path>
<path d="M9.304 19.64c0.208-0.005 0.121 0.032 0.211-0.099 0.013-0.019 0.086-0.184 0.099-0.211 0.194-0.406 0.104-0.355 0.62-0.355 0.153 0 0.177 0.233 0.215 0.361 0.005 0.015 0.064 0.201 0.064 0.202 0.079 0.14 0.010 0.097 0.208 0.102-0.030-0.13-0.091-0.25-0.139-0.392-0.041-0.125-0.082-0.262-0.133-0.399l-0.208-0.588c-0.069-0.128 0.049-0.027-0.139-0.127-0.116 0.085-0.651 1.229-0.797 1.506zM10.133 18.388l0.096 0.45-0.325 0.019 0.23-0.469z"></path>
<path d="M12.102 19.64c0.208-0.005 0.121 0.032 0.211-0.099 0.013-0.019 0.086-0.184 0.098-0.211 0.194-0.406 0.104-0.355 0.62-0.355 0.153 0 0.177 0.233 0.215 0.361 0.005 0.015 0.064 0.201 0.064 0.202 0.079 0.14 0.010 0.097 0.208 0.102-0.030-0.13-0.092-0.25-0.139-0.392-0.042-0.125-0.082-0.262-0.133-0.399l-0.209-0.588c-0.069-0.128 0.050-0.027-0.139-0.127-0.116 0.085-0.651 1.229-0.797 1.506zM12.932 18.388l0.096 0.45-0.325 0.019 0.23-0.469z"></path>
</svg>
