<?xml version="1.0" encoding="UTF-8"?>
<!DOCTYPE svg PUBLIC "-//W3C//DTD SVG 1.1//EN" "http://www.w3.org/Graphics/SVG/1.1/DTD/svg11.dtd">
<!-- Creator: CorelDRAW 2017 -->
<svg xmlns="http://www.w3.org/2000/svg" xml:space="preserve" width="33.077mm" height="22mm" version="1.1" style="shape-rendering:geometricPrecision; text-rendering:geometricPrecision; image-rendering:optimizeQuality; fill-rule:evenodd; clip-rule:evenodd"
viewBox="0 0 3307.7 2200"
 xmlns:xlink="http://www.w3.org/1999/xlink">
 <defs>
  <style type="text/css">
   <![CDATA[
    .str0 {stroke:#FEFEFE;stroke-width:75;stroke-linecap:round;stroke-linejoin:round;stroke-miterlimit:22.9256}
    .fil2 {fill:none;fill-rule:nonzero}
    .fil6 {fill:#0074B3}
    .fil0 {fill:#016737}
    .fil1 {fill:#6C9530}
    .fil7 {fill:#9B1A14}
    .fil8 {fill:#F9B500}
    .fil4 {fill:#373435;fill-rule:nonzero}
    .fil3 {fill:#009688;fill-rule:nonzero}
    .fil5 {fill:#738859;fill-rule:nonzero}
   ]]>
  </style>
 </defs>
 <g id="Capa_x0020_1">
  <metadata id="CorelCorpID_0Corel-Layer"/>
  <g id="_2057429691648">
   <path class="fil0" d="M1043.65 2184.98c178.14,-1.52 227.58,-174.66 144.3,-313.29 -114.08,-189.9 -576.93,-320.91 -845.7,-612.16 -154.11,-166.99 -302.42,-486.35 -224.79,-758.68 95.14,-333.72 387.12,-315.37 645.75,-323.96 -475.51,-329.69 -1433.8,678.5 -29.24,1492.52 262.05,151.87 557.16,236.4 309.68,515.57z"/>
   <path class="fil1" d="M1277.3 185.59c119.92,-24.61 136.08,-43.37 272.75,-34.76 -109.92,42.11 -487.75,75.85 -484.11,320.71 61.11,-112.44 92.64,-165.19 211.87,-207.34 85.36,41.3 183.66,153.94 261.33,192.58 170.43,84.77 206,-20.82 369.6,-20.43 -32.63,-398.99 -471.22,-579.4 -631.44,-250.76z"/>
   <path class="fil1" d="M1349.69 2137.47c535.42,-425.31 661.06,-281.94 579.11,-666.46 -270.49,740.22 -314.51,239.21 -579.11,666.46z"/>
   <g>
    <path class="fil2 str0" d="M663.1 810.22c0,31.79 -1.76,54.46 -5.14,67.9 -1.64,6.66 -5.61,9.93 -11.92,9.93 -16.95,0 -42.19,-0.94 -75.96,-2.92 -33.77,-1.87 -59.02,-2.92 -75.96,-2.92 -15.89,0 -39.73,0.35 -71.4,1.05 -31.67,0.7 -55.51,1.05 -71.52,1.05 -5.72,0 -8.53,-2.8 -8.53,-8.53 0,-24.89 0.82,-62.4 2.46,-112.65 1.63,-50.25 2.45,-87.88 2.45,-113 0,-26.41 -1.17,-66.15 -3.51,-118.97 -2.33,-52.82 -3.5,-92.43 -3.5,-118.96 0,-5.02 2.8,-7.48 8.53,-7.48 4.21,0 10.4,0.35 18.93,1.06 8.41,0.7 14.84,1.05 19.17,1.05 4.09,0 10.51,-0.35 19.16,-1.05 8.76,-0.71 15.07,-1.06 19.28,-1.06 5.49,0 8.18,2.22 8.18,6.55 0,24.19 -0.93,60.53 -2.8,109.14 -1.87,48.62 -2.81,85.19 -2.81,109.62 0,11.8 0,29.91 0,54.1 -0.23,24.19 -0.35,42.19 -0.35,54.11 0,50.6 2.11,75.96 6.2,75.96 84.02,0 147.59,-1.99 190.36,-6.08 2.1,-0.24 7.36,-1.05 15.77,-2.46 6.78,-1.28 12.04,-1.98 15.78,-1.98 4.79,0 7.13,2.22 7.13,6.54zm432.02 -398.72c0,26.53 -1.05,66.14 -3.15,118.96 -2.11,52.82 -3.16,92.44 -3.16,118.96 0,8.65 0.12,21.62 0.35,38.8 0.24,17.3 0.35,30.03 0.35,38.56 0,47.68 -4.44,80.75 -13.32,99.22 -13.79,28.28 -40.32,47.44 -79.81,57.49 -24.19,6.2 -58.32,9.23 -102.37,9.23 -79.93,0 -132.29,-13.2 -157.18,-39.73 -19.16,-20.45 -28.74,-61.58 -28.74,-123.17 0,-7.48 0.11,-20.21 0.35,-38.21 0.23,-17.88 0.35,-31.9 0.35,-42.19 0,-26.99 -1.17,-76.54 -3.51,-148.87 0,-18.7 -1.05,-46.63 -3.15,-83.91 -0.24,-2.68 -0.35,-4.55 -0.35,-5.37 0,-4.79 2.92,-7.25 8.88,-7.25 9.35,0 22.08,0.12 38.09,0.35 18.47,0.24 31.09,0.35 37.75,0.35 5.26,0 7.83,1.99 7.83,6.2 0,34.59 -0.7,86.82 -2.11,156.35 -1.4,69.65 -2.1,121.77 -2.1,156.36 0,39.26 8.77,65.91 26.41,79.81 14.96,12.27 42.77,18.47 83.09,18.47 36.81,0 62.87,-5.03 78.41,-15.08 19.63,-12.5 29.45,-35.99 29.45,-70.46 0,-36.11 -0.59,-90.22 -1.76,-162.44 -1.16,-72.21 -1.75,-126.32 -1.75,-162.43 0,-3.62 3.27,-5.84 9.93,-6.78 4.8,-0.7 11.57,-0.7 20.46,0 10.51,0.94 15.42,1.41 15.07,1.41 4.09,0 10.28,-0.35 18.58,-1.06 8.3,-0.7 14.49,-1.05 18.58,-1.05 5.73,0 8.53,2.46 8.53,7.48zm449.91 456.68c0,10.75 -3.27,16.13 -9.93,16.13l-78.77 0c-6.66,0 -23.95,-24.31 -51.88,-72.8 -23.49,-41.14 -39.15,-70.7 -46.98,-88.93 -7.71,-17.65 -12.27,-27.35 -13.32,-29.45 -6.89,-11.45 -14.84,-17.41 -23.96,-18.11 -2.68,-0.24 -10.28,-0.35 -22.78,-0.35 -28.63,0 -43.01,3.5 -43.01,10.63 0,20.92 0.7,52.35 2.11,94.07 1.4,41.72 2.1,72.92 2.1,93.6 0,7.6 -2.8,11.34 -8.53,11.34 -4.32,0 -10.87,-0.35 -19.52,-1.05 -8.64,-0.7 -15.07,-1.05 -19.39,-1.05 -4.09,0 -10.17,0.35 -18.35,1.05 -8.06,0.7 -14.14,1.05 -18.23,1.05 -5.73,0 -8.53,-2.57 -8.53,-7.83 0,-25.12 1.17,-62.87 3.5,-113.24 2.34,-50.24 3.51,-87.99 3.51,-113.11 0,-26.41 -1.17,-66.26 -3.51,-119.32 -2.33,-53.05 -3.5,-92.78 -3.5,-119.31 0,-5.02 2.8,-7.48 8.53,-7.48 4.09,0 10.4,0.35 18.81,1.05 8.42,0.71 14.73,1.06 19.05,1.06 4.09,0 10.28,-0.35 18.47,-1.06 8.18,-0.7 14.37,-1.05 18.46,-1.05 5.26,0 7.83,2.11 7.83,6.2 0,19.39 -0.59,48.61 -1.75,87.64 -1.17,39.03 -1.76,68.36 -1.76,87.99 0,8.89 0.59,14.49 1.76,16.71 1.75,4.09 6.42,6.2 14.02,6.2 44.17,0 76.54,-8.18 97.11,-24.66 17.53,-14.61 34.24,-41.37 49.9,-80.4 11.45,-30.61 22.78,-61.23 34.24,-91.85 1.63,-3.85 5.14,-6.43 10.63,-7.83 3.74,-0.93 15.78,-1.4 36.46,-1.4 25.12,0 37.74,3.62 37.74,10.63 0,4.09 -5.25,22.67 -15.77,55.51 -12.27,38.33 -28.16,72.1 -47.8,101.32 -12.97,19.86 -30.15,39.85 -51.65,59.95 -5.49,4.79 -8.18,9.23 -8.18,13.08 0,4.09 9.23,24.43 27.7,61 15.89,31.79 30.38,57.27 43.35,76.43 14.38,17.53 34.36,44.64 60.07,81.1 1.17,2.1 1.75,4.21 1.75,6.54zm458.9 13.33c0,1.87 -2.69,2.8 -8.18,2.8 -4.32,0 -10.75,-0.23 -19.05,-0.7 -8.41,-0.47 -14.72,-0.7 -19.05,-0.7 -4.32,0 -10.86,0.23 -19.63,0.7 -8.64,0.47 -15.19,0.7 -19.51,0.7 -6.31,0 -14.38,-17.3 -24.19,-51.89 -9.82,-34.59 -19.75,-52.11 -29.92,-52.58 -8.3,-0.47 -29.91,-0.7 -65.09,-0.7l-53.29 0c-37.04,0 -58.19,0.23 -63.45,0.7 -8.06,0.7 -17.18,18.35 -27.34,52.82 -10.17,34.47 -18,51.65 -23.49,51.65l-76.66 0c-4.56,0 -6.9,-1.64 -6.9,-5.02 0,-2.46 1.64,-7.95 4.91,-16.37l85.42 -228.8c7.25,-18.35 29.1,-71.52 65.56,-159.4 6.55,-14.61 15.43,-36.58 26.53,-65.91 2.8,-8.76 5.73,-13.08 9,-13.08 4.32,0 10.86,0.58 19.4,1.63 8.53,1.17 14.95,1.75 19.28,1.75 4.2,0 10.4,-0.58 18.81,-1.87 8.42,-1.28 14.61,-1.87 18.58,-1.87 1.99,0 4.91,4.09 8.65,12.27 5.26,12.86 31.67,81.92 79.11,207.19 67.08,176.23 100.5,265.04 100.5,266.68zm-157.64 -190.13c-2.1,-5.5 -13.09,-34.83 -32.96,-87.76 -19.28,-51.42 -31.9,-85.43 -38.21,-102.14 -47.33,120.48 -70.93,183.7 -70.93,189.31 0,7.83 8.53,12.27 25.71,13.68 0.93,0.23 11.92,0.35 33.19,0.35l34.82 0c32.25,0 48.38,-4.45 48.38,-13.44zm630.44 -279.88c0,26.29 -0.93,65.91 -2.8,118.85 -1.87,52.93 -2.8,92.66 -2.8,119.07 0,24.9 0.23,62.17 0.7,111.84 0.46,49.66 0.7,86.82 0.7,111.71 0,7.6 -2.92,11.34 -8.65,11.34 -3.51,0 -8.65,-0.35 -15.54,-1.05 -6.9,-0.7 -12.16,-1.05 -15.54,-1.05 -3.74,0 -9.35,0.35 -16.95,1.05 -7.59,0.7 -13.2,1.05 -16.94,1.05 -4.09,0 -8.88,-3.62 -14.49,-10.87 -49.2,-66.49 -123.64,-165.59 -223.55,-297.52 -15.55,-20.1 -24.54,-31.32 -27,-33.54 -2.22,0 -3.39,4.68 -3.39,14.03 0,35.17 0.59,87.87 1.64,158.34 1.17,70.35 1.75,123.17 1.75,158.22 0,7.6 -2.33,11.34 -6.89,11.34 -3.86,0 -9.82,-0.35 -17.76,-1.05 -7.95,-0.7 -13.91,-1.05 -17.77,-1.05 -4.09,0 -10.28,0.35 -18.34,1.05 -8.07,0.7 -14.26,1.05 -18.35,1.05 -5.73,0 -8.53,-2.34 -8.53,-6.89 0,-25.01 1.17,-62.87 3.5,-113.47 2.34,-50.49 3.51,-88.47 3.51,-113.82 0,-27.58 -1.05,-77.36 -3.04,-149.23 -0.35,-18.7 -1.52,-46.75 -3.27,-84.14l-0.35 -4.44c-0.23,-3.51 2.45,-5.26 8.18,-5.49 14.84,-0.24 26.41,-0.7 34.82,-1.41 3.28,-0.23 9.23,-1.16 18.12,-2.8 7.48,-1.4 13.43,-2.1 17.76,-2.1 2.1,0 5.72,3.27 10.75,9.93 52.47,72.1 132.75,179.49 240.96,321.83 4.79,5.96 9.23,11.1 13.32,15.42 1.64,-9.58 2.34,-31.43 2.34,-65.67 0,-29.68 -1.05,-74.21 -3.27,-133.57 -2.22,-59.36 -3.27,-103.65 -3.27,-133.1 0,-7.6 2.33,-11.34 6.89,-11.34 4.09,0 10.28,0.35 18.58,1.05 8.42,0.71 14.61,1.06 18.7,1.06 4.32,0 10.87,-0.35 19.51,-1.06 8.77,-0.7 15.2,-1.05 19.52,-1.05 4.79,0 7.24,2.46 7.24,7.48zm391.13 57.26c0,5.96 -2.1,8.88 -6.19,8.88 -6.43,0 -46.86,-1.4 -121.42,-4.2 -1.87,69.64 -2.8,125.39 -2.8,167.45 0,26.18 0.93,65.56 2.8,118.15 1.87,52.47 2.81,91.85 2.81,118.02 0,4.8 -3.28,7.25 -9.94,7.25 -4.09,0 -10.28,-0.35 -18.81,-1.05 -8.41,-0.7 -14.73,-1.05 -19.05,-1.05 -4.09,0 -10.4,0.35 -18.81,1.05 -8.42,0.7 -14.73,1.05 -18.82,1.05 -5.72,0 -8.53,-2.8 -8.53,-8.53 0,-26.06 1.05,-65.09 3.16,-117.33 2.1,-52.12 3.15,-91.38 3.15,-117.56 0,-40.66 -1.17,-96.52 -3.5,-167.45 -59.02,3.74 -102.37,5.61 -129.83,5.61 -2.69,0 -4.09,-1.17 -4.09,-3.39 0,-4.21 1.05,-10.05 3.15,-17.88 2.57,-10.05 4.09,-16.01 4.56,-17.77 0.47,-8.06 2.1,-19.16 4.91,-33.3 1.17,-2.92 3.04,-4.44 5.84,-4.44l4.09 0.35c80.75,4.67 134.04,7.01 159.86,7.01 22.79,0 60.18,-1.63 111.95,-5.02 35.41,-2.22 50.14,-3.39 44.18,-3.39 5.96,0 9.23,2.1 9.93,6.19 -0.47,-2.45 -0.7,8.53 -0.7,33.19 0,3.04 0.35,7.59 1.05,13.91 0.7,6.31 1.05,10.98 1.05,14.25zm135.44 408.3c0,4.8 -3.27,7.25 -9.93,7.25 -4.09,0 -10.28,-0.35 -18.81,-1.05 -8.42,-0.7 -14.61,-1.05 -18.7,-1.05 -4.33,0 -10.75,0.35 -19.17,1.05 -8.41,0.7 -14.72,1.05 -18.81,1.05 -5.73,0 -8.53,-2.57 -8.53,-7.83 0,-26.06 1.17,-65.21 3.5,-117.68 2.34,-52.35 3.51,-91.61 3.51,-117.91 0,-25.35 -1.17,-63.33 -3.51,-114.17 -2.33,-50.71 -3.5,-88.81 -3.5,-114.17 0,-5.72 2.69,-8.53 7.95,-8.53 4.32,0 10.86,0.35 19.86,1.05 8.88,0.71 15.66,1.06 20.22,1.06 4.09,0 10.28,-0.35 18.46,-1.06 8.3,-0.7 14.49,-1.05 18.58,-1.05 5.96,0 8.88,2.34 8.88,6.9 0,25.47 -0.93,63.8 -2.8,114.99 -1.87,51.06 -2.81,89.39 -2.81,114.98 0,26.3 0.94,65.68 2.81,118.15 1.87,52.47 2.8,91.85 2.8,118.02z"/>
    <path id="1" class="fil3" d="M663.1 810.22c0,31.79 -1.76,54.46 -5.14,67.9 -1.64,6.66 -5.61,9.93 -11.92,9.93 -16.95,0 -42.19,-0.94 -75.96,-2.92 -33.77,-1.87 -59.02,-2.92 -75.96,-2.92 -15.89,0 -39.73,0.35 -71.4,1.05 -31.67,0.7 -55.51,1.05 -71.52,1.05 -5.72,0 -8.53,-2.8 -8.53,-8.53 0,-24.89 0.82,-62.4 2.46,-112.65 1.63,-50.25 2.45,-87.88 2.45,-113 0,-26.41 -1.17,-66.15 -3.51,-118.97 -2.33,-52.82 -3.5,-92.43 -3.5,-118.96 0,-5.02 2.8,-7.48 8.53,-7.48 4.21,0 10.4,0.35 18.93,1.06 8.41,0.7 14.84,1.05 19.17,1.05 4.09,0 10.51,-0.35 19.16,-1.05 8.76,-0.71 15.07,-1.06 19.28,-1.06 5.49,0 8.18,2.22 8.18,6.55 0,24.19 -0.93,60.53 -2.8,109.14 -1.87,48.62 -2.81,85.19 -2.81,109.62 0,11.8 0,29.91 0,54.1 -0.23,24.19 -0.35,42.19 -0.35,54.11 0,50.6 2.11,75.96 6.2,75.96 84.02,0 147.59,-1.99 190.36,-6.08 2.1,-0.24 7.36,-1.05 15.77,-2.46 6.78,-1.28 12.04,-1.98 15.78,-1.98 4.79,0 7.13,2.22 7.13,6.54zm432.02 -398.72c0,26.53 -1.05,66.14 -3.15,118.96 -2.11,52.82 -3.16,92.44 -3.16,118.96 0,8.65 0.12,21.62 0.35,38.8 0.24,17.3 0.35,30.03 0.35,38.56 0,47.68 -4.44,80.75 -13.32,99.22 -13.79,28.28 -40.32,47.44 -79.81,57.49 -24.19,6.2 -58.32,9.23 -102.37,9.23 -79.93,0 -132.29,-13.2 -157.18,-39.73 -19.16,-20.45 -28.74,-61.58 -28.74,-123.17 0,-7.48 0.11,-20.21 0.35,-38.21 0.23,-17.88 0.35,-31.9 0.35,-42.19 0,-26.99 -1.17,-76.54 -3.51,-148.87 0,-18.7 -1.05,-46.63 -3.15,-83.91 -0.24,-2.68 -0.35,-4.55 -0.35,-5.37 0,-4.79 2.92,-7.25 8.88,-7.25 9.35,0 22.08,0.12 38.09,0.35 18.47,0.24 31.09,0.35 37.75,0.35 5.26,0 7.83,1.99 7.83,6.2 0,34.59 -0.7,86.82 -2.11,156.35 -1.4,69.65 -2.1,121.77 -2.1,156.36 0,39.26 8.77,65.91 26.41,79.81 14.96,12.27 42.77,18.47 83.09,18.47 36.81,0 62.87,-5.03 78.41,-15.08 19.63,-12.5 29.45,-35.99 29.45,-70.46 0,-36.11 -0.59,-90.22 -1.76,-162.44 -1.16,-72.21 -1.75,-126.32 -1.75,-162.43 0,-3.62 3.27,-5.84 9.93,-6.78 4.8,-0.7 11.57,-0.7 20.46,0 10.51,0.94 15.42,1.41 15.07,1.41 4.09,0 10.28,-0.35 18.58,-1.06 8.3,-0.7 14.49,-1.05 18.58,-1.05 5.73,0 8.53,2.46 8.53,7.48zm449.91 456.68c0,10.75 -3.27,16.13 -9.93,16.13l-78.77 0c-6.66,0 -23.95,-24.31 -51.88,-72.8 -23.49,-41.14 -39.15,-70.7 -46.98,-88.93 -7.71,-17.65 -12.27,-27.35 -13.32,-29.45 -6.89,-11.45 -14.84,-17.41 -23.96,-18.11 -2.68,-0.24 -10.28,-0.35 -22.78,-0.35 -28.63,0 -43.01,3.5 -43.01,10.63 0,20.92 0.7,52.35 2.11,94.07 1.4,41.72 2.1,72.92 2.1,93.6 0,7.6 -2.8,11.34 -8.53,11.34 -4.32,0 -10.87,-0.35 -19.52,-1.05 -8.64,-0.7 -15.07,-1.05 -19.39,-1.05 -4.09,0 -10.17,0.35 -18.35,1.05 -8.06,0.7 -14.14,1.05 -18.23,1.05 -5.73,0 -8.53,-2.57 -8.53,-7.83 0,-25.12 1.17,-62.87 3.5,-113.24 2.34,-50.24 3.51,-87.99 3.51,-113.11 0,-26.41 -1.17,-66.26 -3.51,-119.32 -2.33,-53.05 -3.5,-92.78 -3.5,-119.31 0,-5.02 2.8,-7.48 8.53,-7.48 4.09,0 10.4,0.35 18.81,1.05 8.42,0.71 14.73,1.06 19.05,1.06 4.09,0 10.28,-0.35 18.47,-1.06 8.18,-0.7 14.37,-1.05 18.46,-1.05 5.26,0 7.83,2.11 7.83,6.2 0,19.39 -0.59,48.61 -1.75,87.64 -1.17,39.03 -1.76,68.36 -1.76,87.99 0,8.89 0.59,14.49 1.76,16.71 1.75,4.09 6.42,6.2 14.02,6.2 44.17,0 76.54,-8.18 97.11,-24.66 17.53,-14.61 34.24,-41.37 49.9,-80.4 11.45,-30.61 22.78,-61.23 34.24,-91.85 1.63,-3.85 5.14,-6.43 10.63,-7.83 3.74,-0.93 15.78,-1.4 36.46,-1.4 25.12,0 37.74,3.62 37.74,10.63 0,4.09 -5.25,22.67 -15.77,55.51 -12.27,38.33 -28.16,72.1 -47.8,101.32 -12.97,19.86 -30.15,39.85 -51.65,59.95 -5.49,4.79 -8.18,9.23 -8.18,13.08 0,4.09 9.23,24.43 27.7,61 15.89,31.79 30.38,57.27 43.35,76.43 14.38,17.53 34.36,44.64 60.07,81.1 1.17,2.1 1.75,4.21 1.75,6.54zm458.9 13.33c0,1.87 -2.69,2.8 -8.18,2.8 -4.32,0 -10.75,-0.23 -19.05,-0.7 -8.41,-0.47 -14.72,-0.7 -19.05,-0.7 -4.32,0 -10.86,0.23 -19.63,0.7 -8.64,0.47 -15.19,0.7 -19.51,0.7 -6.31,0 -14.38,-17.3 -24.19,-51.89 -9.82,-34.59 -19.75,-52.11 -29.92,-52.58 -8.3,-0.47 -29.91,-0.7 -65.09,-0.7l-53.29 0c-37.04,0 -58.19,0.23 -63.45,0.7 -8.06,0.7 -17.18,18.35 -27.34,52.82 -10.17,34.47 -18,51.65 -23.49,51.65l-76.66 0c-4.56,0 -6.9,-1.64 -6.9,-5.02 0,-2.46 1.64,-7.95 4.91,-16.37l85.42 -228.8c7.25,-18.35 29.1,-71.52 65.56,-159.4 6.55,-14.61 15.43,-36.58 26.53,-65.91 2.8,-8.76 5.73,-13.08 9,-13.08 4.32,0 10.86,0.58 19.4,1.63 8.53,1.17 14.95,1.75 19.28,1.75 4.2,0 10.4,-0.58 18.81,-1.87 8.42,-1.28 14.61,-1.87 18.58,-1.87 1.99,0 4.91,4.09 8.65,12.27 5.26,12.86 31.67,81.92 79.11,207.19 67.08,176.23 100.5,265.04 100.5,266.68zm-157.64 -190.13c-2.1,-5.5 -13.09,-34.83 -32.96,-87.76 -19.28,-51.42 -31.9,-85.43 -38.21,-102.14 -47.33,120.48 -70.93,183.7 -70.93,189.31 0,7.83 8.53,12.27 25.71,13.68 0.93,0.23 11.92,0.35 33.19,0.35l34.82 0c32.25,0 48.38,-4.45 48.38,-13.44zm630.44 -279.88c0,26.29 -0.93,65.91 -2.8,118.85 -1.87,52.93 -2.8,92.66 -2.8,119.07 0,24.9 0.23,62.17 0.7,111.84 0.46,49.66 0.7,86.82 0.7,111.71 0,7.6 -2.92,11.34 -8.65,11.34 -3.51,0 -8.65,-0.35 -15.54,-1.05 -6.9,-0.7 -12.16,-1.05 -15.54,-1.05 -3.74,0 -9.35,0.35 -16.95,1.05 -7.59,0.7 -13.2,1.05 -16.94,1.05 -4.09,0 -8.88,-3.62 -14.49,-10.87 -49.2,-66.49 -123.64,-165.59 -223.55,-297.52 -15.55,-20.1 -24.54,-31.32 -27,-33.54 -2.22,0 -3.39,4.68 -3.39,14.03 0,35.17 0.59,87.87 1.64,158.34 1.17,70.35 1.75,123.17 1.75,158.22 0,7.6 -2.33,11.34 -6.89,11.34 -3.86,0 -9.82,-0.35 -17.76,-1.05 -7.95,-0.7 -13.91,-1.05 -17.77,-1.05 -4.09,0 -10.28,0.35 -18.34,1.05 -8.07,0.7 -14.26,1.05 -18.35,1.05 -5.73,0 -8.53,-2.34 -8.53,-6.89 0,-25.01 1.17,-62.87 3.5,-113.47 2.34,-50.49 3.51,-88.47 3.51,-113.82 0,-27.58 -1.05,-77.36 -3.04,-149.23 -0.35,-18.7 -1.52,-46.75 -3.27,-84.14l-0.35 -4.44c-0.23,-3.51 2.45,-5.26 8.18,-5.49 14.84,-0.24 26.41,-0.7 34.82,-1.41 3.28,-0.23 9.23,-1.16 18.12,-2.8 7.48,-1.4 13.43,-2.1 17.76,-2.1 2.1,0 5.72,3.27 10.75,9.93 52.47,72.1 132.75,179.49 240.96,321.83 4.79,5.96 9.23,11.1 13.32,15.42 1.64,-9.58 2.34,-31.43 2.34,-65.67 0,-29.68 -1.05,-74.21 -3.27,-133.57 -2.22,-59.36 -3.27,-103.65 -3.27,-133.1 0,-7.6 2.33,-11.34 6.89,-11.34 4.09,0 10.28,0.35 18.58,1.05 8.42,0.71 14.61,1.06 18.7,1.06 4.32,0 10.87,-0.35 19.51,-1.06 8.77,-0.7 15.2,-1.05 19.52,-1.05 4.79,0 7.24,2.46 7.24,7.48zm391.13 57.26c0,5.96 -2.1,8.88 -6.19,8.88 -6.43,0 -46.86,-1.4 -121.42,-4.2 -1.87,69.64 -2.8,125.39 -2.8,167.45 0,26.18 0.93,65.56 2.8,118.15 1.87,52.47 2.81,91.85 2.81,118.02 0,4.8 -3.28,7.25 -9.94,7.25 -4.09,0 -10.28,-0.35 -18.81,-1.05 -8.41,-0.7 -14.73,-1.05 -19.05,-1.05 -4.09,0 -10.4,0.35 -18.81,1.05 -8.42,0.7 -14.73,1.05 -18.82,1.05 -5.72,0 -8.53,-2.8 -8.53,-8.53 0,-26.06 1.05,-65.09 3.16,-117.33 2.1,-52.12 3.15,-91.38 3.15,-117.56 0,-40.66 -1.17,-96.52 -3.5,-167.45 -59.02,3.74 -102.37,5.61 -129.83,5.61 -2.69,0 -4.09,-1.17 -4.09,-3.39 0,-4.21 1.05,-10.05 3.15,-17.88 2.57,-10.05 4.09,-16.01 4.56,-17.77 0.47,-8.06 2.1,-19.16 4.91,-33.3 1.17,-2.92 3.04,-4.44 5.84,-4.44l4.09 0.35c80.75,4.67 134.04,7.01 159.86,7.01 22.79,0 60.18,-1.63 111.95,-5.02 35.41,-2.22 50.14,-3.39 44.18,-3.39 5.96,0 9.23,2.1 9.93,6.19 -0.47,-2.45 -0.7,8.53 -0.7,33.19 0,3.04 0.35,7.59 1.05,13.91 0.7,6.31 1.05,10.98 1.05,14.25zm135.44 408.3c0,4.8 -3.27,7.25 -9.93,7.25 -4.09,0 -10.28,-0.35 -18.81,-1.05 -8.42,-0.7 -14.61,-1.05 -18.7,-1.05 -4.33,0 -10.75,0.35 -19.17,1.05 -8.41,0.7 -14.72,1.05 -18.81,1.05 -5.73,0 -8.53,-2.57 -8.53,-7.83 0,-26.06 1.17,-65.21 3.5,-117.68 2.34,-52.35 3.51,-91.61 3.51,-117.91 0,-25.35 -1.17,-63.33 -3.51,-114.17 -2.33,-50.71 -3.5,-88.81 -3.5,-114.17 0,-5.72 2.69,-8.53 7.95,-8.53 4.32,0 10.86,0.35 19.86,1.05 8.88,0.71 15.66,1.06 20.22,1.06 4.09,0 10.28,-0.35 18.46,-1.06 8.3,-0.7 14.49,-1.05 18.58,-1.05 5.96,0 8.88,2.34 8.88,6.9 0,25.47 -0.93,63.8 -2.8,114.99 -1.87,51.06 -2.81,89.39 -2.81,114.98 0,26.3 0.94,65.68 2.81,118.15 1.87,52.47 2.8,91.85 2.8,118.02z"/>
   </g>
   <g id="_2057429625760">
    <path class="fil4" d="M644.53 1206.06c0,2.94 -1.37,4.45 -4.04,4.45 -4.38,0 -11.03,-0.07 -19.79,-0.2 -8.77,-0.14 -15.35,-0.21 -19.8,-0.21 -2.4,0 -3.63,-1.92 -3.63,-5.82 0,-6.58 0.21,-16.51 0.62,-29.93 0.41,-13.36 0.61,-23.43 0.61,-30.07 0,-5.41 -0.07,-13.36 -0.2,-24.04 -0.14,-10.62 -0.21,-18.63 -0.21,-23.98 0,-15.27 -2.19,-26.02 -6.57,-32.32 -5.41,-7.47 -15.28,-11.24 -29.73,-11.24 -6.64,0 -15.96,3.77 -27.88,11.3 -12.53,7.88 -18.83,14.94 -18.83,21.1l0 120.41c0,3.29 -1.3,5 -3.84,5 -4.24,0 -10.68,-0.07 -19.24,-0.2 -8.63,-0.14 -15,-0.21 -19.32,-0.21 -2.81,0 -4.25,-1.51 -4.25,-4.59 0,-10.62 0.21,-26.44 0.55,-47.6 0.34,-21.17 0.48,-37.06 0.48,-47.81 0,-28.49 -2.94,-54.79 -8.83,-78.84 -0.41,-1.23 -0.62,-2.12 -0.62,-2.6 0,-1.37 0.89,-2.33 2.6,-2.88 0.96,-0.06 8.56,-1.37 22.95,-3.69 14.38,-2.33 21.92,-3.5 22.6,-3.5 0.75,0 1.3,1.1 1.58,3.22 0.68,8.29 2.19,16.71 4.58,25.14 6.99,-5.48 16.17,-12.33 27.47,-20.48 14.04,-8.56 27.67,-12.81 40.75,-12.81 25.14,0 42.33,7.26 51.51,21.85 6.85,10.75 10.28,28.01 10.28,51.99 0,4.18 -0.14,10.48 -0.35,19.04 -0.2,8.56 -0.27,15 -0.27,19.31 0,8.91 0.14,22.33 0.41,40.07 0.27,17.81 0.41,31.23 0.41,40.14zm233.42 -177.6c0,0.54 -0.2,1.71 -0.61,3.63 -5.34,30.61 -8.02,56.98 -8.02,79.17 0,1.37 1.72,31.37 5.14,90.07l0.21 2.81c0.13,3.91 -1.65,5.82 -5.35,5.82 -3.69,0 -9.24,0.41 -16.71,1.3 -7.4,0.89 -12.94,1.31 -16.57,1.31 -2.54,0 -4.46,-4.66 -5.83,-13.98 -1.37,-9.31 -2.6,-13.97 -3.83,-13.97 -0.82,0 -4.39,2.6 -10.82,7.81 -7.88,6.37 -15.28,11.23 -22.06,14.59 -10.61,5.34 -21.16,8.01 -31.71,8.01 -25.96,0 -47.88,-10.34 -65.69,-31.09 -16.85,-19.8 -25.27,-42.88 -25.27,-69.25 0,-29.66 8.49,-54.25 25.48,-73.63 17.81,-20.21 41.23,-30.28 70.27,-30.28 20.48,0 38.36,7.13 53.57,21.31 2.26,2.67 5.82,6.57 10.68,11.64 0.34,0.41 0.75,0.62 1.16,0.62 0.83,0 1.99,-4.18 3.43,-12.68 1.51,-8.42 3.36,-12.67 5.68,-12.67 3.63,0 10.42,1.03 20.35,3.02 11.02,2.39 16.5,4.59 16.5,6.44zm-51.37 83.9c0,-16.44 -4.86,-30.48 -14.65,-42.26 -10.28,-12.67 -23.43,-19.04 -39.52,-19.04 -16.03,0 -29.39,6.3 -40.14,18.83 -10.28,12.06 -15.41,26.17 -15.41,42.47 0,16.16 5.13,30.21 15.41,42.12 10.75,12.4 24.11,18.63 40.14,18.63 15.68,0 28.76,-6.37 39.31,-19.04 9.93,-11.92 14.86,-25.75 14.86,-41.71zm195.69 61.03c0,2.94 -0.27,6.92 -0.82,11.98 -0.62,6.24 -1.03,10.28 -1.17,12.13 -0.13,2.39 -0.34,3.83 -0.61,4.38 -0.55,0.96 -1.78,1.85 -3.77,2.81 -10.96,5.27 -28.15,7.88 -51.64,7.88 -31.03,0 -46.65,-14.18 -46.79,-42.54 0,-11.37 0.21,-28.42 0.62,-51.23 0.41,-22.81 0.62,-39.93 0.62,-51.3 0,-5.48 -2.74,-8.43 -8.22,-8.84 -5,0 -9.87,-0.07 -14.66,-0.2 -2.81,-0.69 -4.25,-6.17 -4.25,-16.51 0,-3.84 0.28,-7.95 0.83,-12.26 0.41,-3.22 2.53,-5.14 6.43,-5.82 3.29,0 6.58,-0.07 9.8,-0.21 6.16,-0.27 9.25,-3.01 9.25,-8.22 0,-5.34 -0.14,-13.49 -0.42,-24.52 -0.27,-10.96 -0.41,-19.18 -0.41,-24.66 0,-9.79 1.85,-14.65 5.62,-14.65 1.16,0 13.7,2.05 37.47,6.16 3.08,0.41 4.58,1.85 4.58,4.38 0,5.96 -0.47,14.8 -1.43,26.58 -0.96,11.78 -1.44,20.62 -1.44,26.51 0,3.9 1.85,5.82 5.48,5.82l48.42 0c2.26,0 3.43,0.82 3.43,2.4 0,1.57 -0.28,4.17 -0.76,7.74 -0.48,3.49 -0.68,6.16 -0.68,7.87 0,1.99 0.07,5.07 0.2,9.25 0.14,4.11 0.21,7.19 0.21,9.18 0,2.53 -1.85,3.83 -5.62,3.83 -5.41,0 -13.49,-0.34 -24.38,-1.02 -10.82,-0.69 -18.9,-1.03 -24.32,-1.03 -1.02,0 -1.85,3.83 -2.39,11.44 -0.28,9.52 -0.41,22.8 -0.41,40l0 29.93c0,11.5 1.09,19.52 3.22,24.04 3.15,6.99 9.72,10.48 19.72,10.48 4.11,0 10.14,-0.89 18.15,-2.67 7.95,-1.78 13.91,-2.67 17.74,-2.67 1.58,0 2.4,1.16 2.4,3.56zm214.45 -145.35c0,9.8 -0.41,24.53 -1.23,44.32 -0.82,19.73 -1.23,34.52 -1.23,44.45 0,9.73 0.27,24.39 0.89,43.84 0.61,19.45 0.89,34.11 0.89,43.83 0,2.67 -1.24,4.46 -3.77,5.21 -1.1,0.27 -14.73,0.41 -40.89,0.41 -1.58,0 -2.53,-5 -2.88,-15.07 -0.34,-10 -1.09,-15.07 -2.33,-15.07 -0.68,0 -1.64,0.62 -3.01,1.85 -22.33,19.39 -44.32,29.11 -66.1,29.11 -29.52,0 -49.04,-10.68 -58.49,-32.12 -5.89,-13.22 -8.83,-37.06 -8.83,-71.44 0,-31.03 2.46,-57.33 7.39,-78.9 1.17,-5.21 3.36,-7.81 6.58,-7.81 3.9,0 9.72,0.07 17.53,0.2 7.74,0.14 13.56,0.21 17.47,0.21 2.67,0 4.04,1.44 4.04,4.38 0,5.21 -0.89,13.91 -2.6,26.1 -1.85,13.01 -2.81,22.12 -2.95,27.46 -0.41,8.09 -0.62,16.92 -0.62,26.51 0,23.43 1.65,39.11 5,47.19 5.76,14.45 18.5,21.65 38.22,21.65 8.43,0 18.36,-4.18 29.87,-12.47 12.05,-8.7 18.28,-17.05 18.76,-25.07 0.69,-10 1.03,-45.34 1.03,-105.96 0,-6.5 2.74,-9.79 8.22,-9.79l33.22 0c3.9,0 5.82,2.33 5.82,6.98zm155.69 -6.43c0,14.72 -1.03,28.15 -3.02,40.2 -0.41,3.08 -1.78,4.59 -4.04,4.59 -2.81,0 -7.05,-0.27 -12.74,-0.89 -5.75,-0.62 -10.07,-0.89 -13.01,-0.89 -16.92,0 -27.74,4.73 -32.4,14.25 -2.81,5.75 -4.25,17.74 -4.25,35.89l0 22.12c0,7.47 0.28,18.84 0.83,34.11 0.54,15.21 0.82,26.58 0.82,34.11 0,3.56 -1.51,5.41 -4.59,5.41 -4.11,0 -10.34,-0.07 -18.7,-0.2 -8.36,-0.14 -14.66,-0.21 -18.77,-0.21 -3.01,0 -4.59,-1.64 -4.59,-5 0,-10.82 0.21,-27.19 0.55,-48.97 0.34,-21.78 0.48,-38.22 0.48,-49.18 0,-33.01 -3.01,-59.59 -9.04,-79.66 -0.27,-1.09 -0.41,-1.85 -0.41,-2.4 0,-1.64 0.89,-2.74 2.6,-3.42 4.86,-0.55 11.78,-1.37 20.69,-2.47 14.31,-2.74 20.96,-4.11 19.86,-4.11 2.12,0 3.56,3.98 4.18,11.92 0.68,8.02 1.92,11.99 3.63,11.99 0.27,0 0.61,-0.14 1.03,-0.41 5.47,-3.5 10.95,-6.99 16.5,-10.55 6.03,-3.63 12.19,-6.3 18.56,-8.08 5.21,-1.58 11.92,-2.4 20.14,-2.4 10.48,0 15.69,1.44 15.69,4.25zm217.39 6.85c0,0.54 -0.2,1.71 -0.61,3.63 -5.34,30.61 -8.02,56.98 -8.02,79.17 0,1.37 1.72,31.37 5.14,90.07l0.21 2.81c0.13,3.91 -1.65,5.82 -5.35,5.82 -3.69,0 -9.24,0.41 -16.71,1.3 -7.4,0.89 -12.94,1.31 -16.57,1.31 -2.54,0 -4.46,-4.66 -5.83,-13.98 -1.37,-9.31 -2.6,-13.97 -3.83,-13.97 -0.82,0 -4.39,2.6 -10.82,7.81 -7.88,6.37 -15.28,11.23 -22.06,14.59 -10.61,5.34 -21.16,8.01 -31.71,8.01 -25.96,0 -47.88,-10.34 -65.69,-31.09 -16.85,-19.8 -25.27,-42.88 -25.27,-69.25 0,-29.66 8.49,-54.25 25.48,-73.63 17.81,-20.21 41.23,-30.28 70.27,-30.28 20.48,0 38.36,7.13 53.57,21.31 2.26,2.67 5.82,6.57 10.68,11.64 0.34,0.41 0.75,0.62 1.16,0.62 0.83,0 1.99,-4.18 3.43,-12.68 1.51,-8.42 3.36,-12.67 5.68,-12.67 3.63,0 10.42,1.03 20.35,3.02 11.02,2.39 16.5,4.59 16.5,6.44zm-51.37 83.9c0,-16.44 -4.86,-30.48 -14.65,-42.26 -10.28,-12.67 -23.43,-19.04 -39.52,-19.04 -16.03,0 -29.39,6.3 -40.14,18.83 -10.28,12.06 -15.41,26.17 -15.41,42.47 0,16.16 5.13,30.21 15.41,42.12 10.75,12.4 24.11,18.63 40.14,18.63 15.68,0 28.76,-6.37 39.31,-19.04 9.93,-11.92 14.86,-25.75 14.86,-41.71zm134.46 -180.55l-0.21 2.6c-2.88,49.73 -4.31,92.47 -4.31,128.22 0,15.89 0.27,39.73 0.82,71.51 0.55,31.78 0.75,55.55 0.75,71.37 0,3.08 -1.03,4.59 -3.15,4.59l-38.36 0c-2.39,0 -3.63,-1.51 -3.63,-4.59 0,-15.82 0.14,-39.59 0.41,-71.37 0.28,-31.78 0.42,-55.62 0.42,-71.51 0,-14.45 -0.69,-36.16 -2.06,-65.13 -1.37,-28.98 -2.05,-50.55 -2.05,-64.87 0,-2.67 1.37,-4.04 4.17,-4.04 2.4,0 6.03,0.21 10.83,0.62 4.79,0.41 8.35,0.62 10.82,0.62 2.46,0 6.23,-0.21 11.16,-0.62 4.93,-0.41 8.56,-0.62 10.96,-0.62 2.4,0 3.56,1.1 3.43,3.22zm355.91 180.48c0,27.95 -9.18,51.85 -27.46,71.65 -18.77,20.48 -41.92,30.68 -69.59,30.68 -27.88,0 -51.1,-10.14 -69.87,-30.48 -18.28,-19.66 -27.46,-43.49 -27.46,-71.44 0,-27.94 9.18,-51.78 27.46,-71.44 18.91,-20.06 42.13,-30.06 69.87,-30.06 27.53,0 50.61,10 69.38,30.06 18.43,19.52 27.67,43.22 27.67,71.03zm-42.33 0.41c0,-16.3 -5,-30.2 -15.07,-41.71 -10.41,-12.19 -23.63,-18.29 -39.65,-18.29 -16.1,0 -29.39,6.03 -39.93,18.08 -10.07,11.65 -15.07,25.62 -15.07,41.92 0,16.03 5.07,30 15.27,41.71 10.69,12.47 23.91,18.7 39.73,18.7 15.89,0 29.11,-6.23 39.65,-18.7 10.07,-11.71 15.07,-25.68 15.07,-41.71zm185.42 -91.09c0,14.72 -1.03,28.15 -3.02,40.2 -0.41,3.08 -1.78,4.59 -4.04,4.59 -2.81,0 -7.05,-0.27 -12.74,-0.89 -5.75,-0.62 -10.07,-0.89 -13.01,-0.89 -16.92,0 -27.74,4.73 -32.4,14.25 -2.81,5.75 -4.25,17.74 -4.25,35.89l0 22.12c0,7.47 0.28,18.84 0.83,34.11 0.54,15.21 0.82,26.58 0.82,34.11 0,3.56 -1.51,5.41 -4.59,5.41 -4.11,0 -10.34,-0.07 -18.7,-0.2 -8.36,-0.14 -14.66,-0.21 -18.77,-0.21 -3.01,0 -4.59,-1.64 -4.59,-5 0,-10.82 0.21,-27.19 0.55,-48.97 0.34,-21.78 0.48,-38.22 0.48,-49.18 0,-33.01 -3.01,-59.59 -9.04,-79.66 -0.27,-1.09 -0.41,-1.85 -0.41,-2.4 0,-1.64 0.89,-2.74 2.6,-3.42 4.86,-0.55 11.78,-1.37 20.69,-2.47 14.31,-2.74 20.96,-4.11 19.86,-4.11 2.12,0 3.56,3.98 4.18,11.92 0.68,8.02 1.92,11.99 3.63,11.99 0.27,0 0.61,-0.14 1.03,-0.41 5.47,-3.5 10.95,-6.99 16.5,-10.55 6.03,-3.63 12.19,-6.3 18.56,-8.08 5.21,-1.58 11.92,-2.4 20.14,-2.4 10.48,0 15.69,1.44 15.69,4.25zm198.9 1.37c0,16.09 -0.14,40.2 -0.41,72.39 -0.27,32.2 -0.41,56.31 -0.41,72.33 0,31.85 -6.85,55.35 -20.48,70.48 -14.32,16.1 -37.19,24.11 -68.7,24.11 -30.34,0 -54.93,-5.75 -73.63,-17.19 -2.94,-1.85 -4.45,-3.49 -4.45,-4.79 0,1.43 1.98,-8.43 6.03,-29.66 0.41,-2.26 1.37,-3.43 2.8,-3.43 0.69,0 1.58,0.35 2.61,1.03 20.13,11.37 40.27,17.06 60.48,17.06 13.28,0 24.31,-2.95 33.01,-8.84 10,-6.64 15.07,-16.37 15.07,-29.04 0,-2.81 -0.28,-9.11 -0.82,-18.84 -14.87,18.09 -33.7,27.13 -56.65,27.13 -24.72,0 -45.07,-8.91 -61.02,-26.72 -15.28,-17.12 -22.88,-38.22 -22.88,-63.22 0,-25.41 7.4,-47.05 22.12,-64.86 15.69,-18.97 36.03,-28.49 61.1,-28.49 22.12,0 39.72,8.49 52.74,25.41 2.12,2.81 3.63,4.18 4.59,4.18 1.09,0 1.57,-1.24 1.57,-3.63 0,-1.72 -0.14,-4.52 -0.41,-8.29 -0.2,-3.84 -0.34,-6.64 -0.34,-8.49 0,-8.02 0.75,-12.06 2.4,-12.06 1.3,0 8.49,1.23 21.5,3.7 13.08,2.47 20.21,3.97 21.37,4.52 1.85,0.69 2.81,2.4 2.81,5.21zm-48.08 82.8c0,-14.93 -4.11,-27.67 -12.26,-38.08 -8.97,-11.37 -20.76,-17.05 -35.28,-17.05 -14.45,0 -26.16,5.75 -35.13,17.26 -8.15,10.41 -12.26,23.08 -12.26,37.87 0,14.59 4.17,27.2 12.46,37.74 8.98,11.51 20.62,17.26 34.93,17.26 14.18,0 25.83,-5.75 34.87,-17.26 8.42,-10.54 12.67,-23.15 12.67,-37.74zm280.27 -77.32c0,0.54 -0.2,1.71 -0.61,3.63 -5.34,30.61 -8.02,56.98 -8.02,79.17 0,1.37 1.72,31.37 5.14,90.07l0.21 2.81c0.13,3.91 -1.65,5.82 -5.35,5.82 -3.69,0 -9.24,0.41 -16.71,1.3 -7.4,0.89 -12.94,1.31 -16.57,1.31 -2.54,0 -4.46,-4.66 -5.83,-13.98 -1.37,-9.31 -2.6,-13.97 -3.83,-13.97 -0.82,0 -4.39,2.6 -10.82,7.81 -7.88,6.37 -15.28,11.23 -22.06,14.59 -10.61,5.34 -21.16,8.01 -31.71,8.01 -25.96,0 -47.88,-10.34 -65.69,-31.09 -16.85,-19.8 -25.27,-42.88 -25.27,-69.25 0,-29.66 8.49,-54.25 25.48,-73.63 17.81,-20.21 41.23,-30.28 70.27,-30.28 20.48,0 38.36,7.13 53.57,21.31 2.26,2.67 5.82,6.57 10.68,11.64 0.34,0.41 0.75,0.62 1.16,0.62 0.83,0 1.99,-4.18 3.43,-12.68 1.51,-8.42 3.36,-12.67 5.68,-12.67 3.63,0 10.42,1.03 20.35,3.02 11.02,2.39 16.5,4.59 16.5,6.44zm-51.37 83.9c0,-16.44 -4.86,-30.48 -14.65,-42.26 -10.28,-12.67 -23.43,-19.04 -39.52,-19.04 -16.03,0 -29.39,6.3 -40.14,18.83 -10.28,12.06 -15.41,26.17 -15.41,42.47 0,16.16 5.13,30.21 15.41,42.12 10.75,12.4 24.11,18.63 40.14,18.63 15.68,0 28.76,-6.37 39.31,-19.04 9.93,-11.92 14.86,-25.75 14.86,-41.71zm16.03 -167.53c-1.98,5.47 -16.78,15.68 -44.31,30.47 -26.92,14.59 -43.57,21.92 -50,21.92 -2.47,0 -4.59,-3.35 -6.37,-10 -1.37,-5.2 -2.06,-9.65 -2.06,-13.22 0,-1.37 1.3,-2.6 3.84,-3.83 22.19,-10.96 45.13,-25.41 68.97,-43.5 0.55,-0.47 1.51,-1.09 3.01,-1.78 0.69,0.28 1.51,0.89 2.61,1.78 5.68,4.8 13.08,10 22.12,15.55 0.68,0.41 1.37,1.3 2.19,2.61zm244.59 261.23c0,2.94 -1.37,4.45 -4.04,4.45 -4.38,0 -11.03,-0.07 -19.79,-0.2 -8.77,-0.14 -15.35,-0.21 -19.8,-0.21 -2.4,0 -3.63,-1.92 -3.63,-5.82 0,-6.58 0.21,-16.51 0.62,-29.93 0.41,-13.36 0.61,-23.43 0.61,-30.07 0,-5.41 -0.07,-13.36 -0.2,-24.04 -0.14,-10.62 -0.21,-18.63 -0.21,-23.98 0,-15.27 -2.19,-26.02 -6.57,-32.32 -5.41,-7.47 -15.28,-11.24 -29.73,-11.24 -6.64,0 -15.96,3.77 -27.88,11.3 -12.53,7.88 -18.83,14.94 -18.83,21.1l0 120.41c0,3.29 -1.3,5 -3.84,5 -4.24,0 -10.68,-0.07 -19.24,-0.2 -8.63,-0.14 -15,-0.21 -19.32,-0.21 -2.81,0 -4.25,-1.51 -4.25,-4.59 0,-10.62 0.21,-26.44 0.55,-47.6 0.34,-21.17 0.48,-37.06 0.48,-47.81 0,-28.49 -2.94,-54.79 -8.83,-78.84 -0.41,-1.23 -0.62,-2.12 -0.62,-2.6 0,-1.37 0.89,-2.33 2.6,-2.88 0.96,-0.06 8.56,-1.37 22.95,-3.69 14.38,-2.33 21.92,-3.5 22.6,-3.5 0.75,0 1.3,1.1 1.58,3.22 0.68,8.29 2.19,16.71 4.58,25.14 6.99,-5.48 16.17,-12.33 27.47,-20.48 14.04,-8.56 27.67,-12.81 40.75,-12.81 25.14,0 42.33,7.26 51.51,21.85 6.85,10.75 10.28,28.01 10.28,51.99 0,4.18 -0.14,10.48 -0.35,19.04 -0.2,8.56 -0.27,15 -0.27,19.31 0,8.91 0.14,22.33 0.41,40.07 0.27,17.81 0.41,31.23 0.41,40.14zm90.41 -235.96c0,16.44 -9.18,24.66 -27.53,24.66 -18.63,0 -27.95,-8.22 -27.95,-24.66 0,-7.33 2.88,-13.43 8.63,-18.22 5.34,-4.59 11.78,-6.85 19.32,-6.85 7.46,0 13.97,2.33 19.38,6.99 5.41,4.72 8.15,10.75 8.15,18.08zm-1.64 54.38c0,10.28 -0.62,25.83 -1.85,46.65 -1.24,20.82 -1.85,36.44 -1.85,46.85 0,9.79 0.2,24.38 0.61,43.83 0.41,19.45 0.62,34.04 0.62,43.63 0,2.81 -1.23,4.25 -3.63,4.25l-39.18 0c-2.81,0 -4.24,-2.74 -4.24,-8.22 0,-9.25 0.27,-23.15 0.75,-41.64 0.48,-18.57 0.68,-32.47 0.68,-41.85 0,-10.41 -0.75,-26.1 -2.26,-46.99 -1.5,-20.82 -2.26,-36.51 -2.26,-46.92 0,-2.26 1.37,-3.42 4.18,-3.42 2.4,0 6.1,0.34 11.1,1.02 5,0.62 8.76,0.96 11.3,0.96 2.53,0 6.3,-0.34 11.3,-0.96 5,-0.68 8.77,-1.02 11.3,-1.02 2.26,0 3.43,1.3 3.43,3.83zm180.07 3.56c0,2.95 -1.51,9.53 -4.59,19.66 -3.09,10.21 -5.28,15.28 -6.44,15.28 -6.03,-2.67 -12.13,-5.28 -18.22,-7.95 -6.1,-2.67 -12.74,-3.97 -19.93,-3.97 -16.51,0 -30.21,6.09 -41.24,18.22 -10.95,12.19 -16.43,26.57 -16.43,43.08 0,16.3 5.48,30.41 16.43,42.33 11.24,12.26 25,18.42 41.17,18.42 8.97,0 17.81,-2.19 26.51,-6.57 8.69,-4.39 12.53,-6.58 11.43,-6.58 1.72,0 3.7,5.62 5.83,16.85 1.98,10.14 3.01,17.13 3.01,21.03 0,4.11 -7.81,8.15 -23.49,12.19 -13.15,3.36 -22.81,5 -29.11,5 -27.61,0 -50.89,-10.27 -69.87,-30.89 -18.63,-20.07 -27.94,-44.04 -27.94,-71.85 0,-28.35 9.11,-52.46 27.33,-72.26 18.76,-20.34 42.12,-30.48 70.07,-30.48 18.76,0 35.95,4.73 51.43,14.25 2.68,1.64 4.05,3.01 4.05,4.24zm206.64 84.25c0,27.95 -9.18,51.85 -27.46,71.65 -18.77,20.48 -41.92,30.68 -69.59,30.68 -27.88,0 -51.1,-10.14 -69.87,-30.48 -18.28,-19.66 -27.46,-43.49 -27.46,-71.44 0,-27.94 9.18,-51.78 27.46,-71.44 18.91,-20.06 42.13,-30.06 69.87,-30.06 27.53,0 50.61,10 69.38,30.06 18.43,19.52 27.67,43.22 27.67,71.03zm-42.33 0.41c0,-16.3 -5,-30.2 -15.07,-41.71 -10.41,-12.19 -23.63,-18.29 -39.65,-18.29 -16.1,0 -29.39,6.03 -39.93,18.08 -10.07,11.65 -15.07,25.62 -15.07,41.92 0,16.03 5.07,30 15.27,41.71 10.69,12.47 23.91,18.7 39.73,18.7 15.89,0 29.11,-6.23 39.65,-18.7 10.07,-11.71 15.07,-25.68 15.07,-41.71z"/>
    <path class="fil5" d="M1842.37 1114.24c0,15.57 -0.47,24.93 -1.41,28.17 -1.17,4.1 -12.56,22.16 -34.15,54.05 -21.59,31.94 -34.38,49.76 -38.43,53.57 -3.66,3.3 -15.52,4.94 -35.6,4.94 -2.4,0 -3.91,-0.23 -4.61,-0.75 -0.66,-0.52 -2.21,-3.86 -4.66,-10.02 -2.4,-6.16 -3.62,-9.83 -3.62,-11 0,-2.07 2.45,-3.06 7.34,-3.06 10.3,0 17.87,-1.46 22.76,-4.38 1.65,-1.03 4.19,-4.18 7.53,-9.5 3.34,-5.27 5.03,-8.84 5.03,-10.68 0,-2.49 -6.63,-12.18 -19.94,-29.11 -14.07,-17.92 -21.92,-29.31 -23.57,-34.06 -1.31,-3.81 -1.97,-12.79 -1.97,-27.04 0,-3.53 0.04,-8.8 0.14,-15.81 0.09,-7.05 0.14,-12.37 0.14,-15.94 0,-2.02 1.08,-3.01 3.29,-3.01 2.97,0 7.29,0.14 13.08,0.52 5.74,0.37 10.06,0.56 13.03,0.56 1.46,0 2.21,0.99 2.21,2.92 0,2.54 -0.14,6.39 -0.42,11.57 -0.29,5.12 -0.43,9.03 -0.43,11.57 0,11.24 0.38,19.61 1.08,25.12 0.57,3.52 5.55,12.23 15.01,26.2 9.45,13.92 15.29,20.88 17.5,20.88 1.55,0 6.53,-6.82 14.86,-20.56 8.37,-13.68 12.84,-22.2 13.41,-25.4 0.7,-4.6 1.08,-12.98 1.08,-25.11 0,-2.68 -0.29,-6.59 -0.85,-11.81 -0.56,-5.17 -0.85,-9.08 -0.85,-11.66 0,-2.31 0.76,-3.44 2.21,-3.44 2.97,0 7.39,-0.19 13.32,-0.61 5.97,-0.42 10.39,-0.61 13.35,-0.61 2.78,0 4.14,11.15 4.14,33.49z"/>
   </g>
   <path class="fil6" d="M1498.97 1900.56c8.82,-4.14 -0.71,5.97 12.23,-9.72l29.39 -46.49c64.55,-98.66 211.7,-292.24 315.72,-305.52 -26.97,25.86 -39.06,26.77 -83.53,74.23 -81.78,87.28 -158.45,228.45 -196.77,345.41 43.94,26.26 76.86,27.08 120.9,20.87 110.35,-15.58 219.28,-75.72 262.38,-194.89 16.86,-46.64 23.47,-104.61 28.89,-151.47 16.06,-138.8 49.87,-189.4 109.78,-306.41 -27.73,0.98 -177.03,62.3 -213.35,75.8 -78.52,29.19 -228.98,99.97 -300.87,151.67 -29.68,21.34 -64.67,48.46 -80.55,95.26 -20.85,61.46 -24.59,134.34 -15.55,194.18 2.96,19.58 9.77,39.91 11.33,57.08z"/>
   <path class="fil7" d="M2032.7 1556.12c-19.09,48.77 -17.48,132.58 -31.37,187.25 26.02,-0.42 124.57,-45.27 184.34,-25.78 -72.9,15.89 -113.8,32.65 -172.25,64.71 -37.76,20.72 -21.47,12.58 -44.77,55.36 -66.78,122.62 -177.28,141.26 -203.57,158.51 29.51,63.41 285.18,136.64 422.46,-23.37 51.91,-60.5 88.77,-144.26 138.82,-207.61 86.63,-109.64 147.44,-126.28 165.66,-145.28 -67.82,-29.84 -174.85,-54.82 -243.83,-64.49 -106.24,-14.89 -119.48,-7.52 -215.49,0.7z"/>
   <path class="fil8" d="M1468.26 1926.71c8.77,-24.79 -25.21,-135.68 -33.23,-160.56 -17.25,-53.52 -40.6,-86.27 -77.62,-138.05 41.67,16.97 74.39,76.54 95.23,105.88 5.49,-19.49 5.82,-43.46 10.87,-66.66 5.57,-25.63 14.35,-47 22.25,-72.39 -53.1,-63.25 -158.75,-104.18 -247.96,-134.78 -1.28,9.58 19.74,88.04 22.61,140.72 2.84,51.93 -7.4,104.95 -4.04,154.81 3.23,47.94 24.05,86.67 62.19,121.43 37.17,33.87 103.22,65.39 149.7,49.6z"/>
  </g>
 </g>
</svg>
