<!-- Generated by IcoMoon.io -->
<svg version="1.1" xmlns="http://www.w3.org/2000/svg" width="32" height="32" viewBox="0 0 32 32">
<title>logo-viajemos-todxs-por-mexico-turismo-gay-turismo-rosa-color</title>
<path fill="#ee2843" d="M1.573 20.588h29.571v3.158h-29.571v-3.158z"></path>
<path fill="#fc8a1c" d="M9.236 11.575c-0.005-0.007-0.013-0.024-0.016-0.019l-0.095-0.091 0.2 0.019 0.039-0.189c0.031 0.039 0.013 0.006 0.038 0.072 0.006 0.015 0.020 0.078 0.029 0.106 0.123 0.019 0.103 0.003 0.199-0.010-0.040 0.085-0.038 0.013-0.111 0.11 0.125 0.034 0.068 0.011 0.093 0.048l0.030 1.16c-0.008 0.163-0.018 0.058-0.126 0.117l-0.035 0.024c-0.004 0.003-0.012 0.011-0.019 0.014-0.013-0.186-0.006-0.123-0.043-0.158-0.204 0.189 0.028 0.203 0.039 0.209l0.099 0.094c-0.14-0.059 0.012 0.016-0.095 0.005-0.024-0.003-0.003 0.038-0.073-0.047l-0.025-0.040c-0.048 0.070-0.019 0.102 0.059 0.114-0.145 0.078-0.114 0.011-0.102 0.132 0.149-0.055 0.198-0.141 0.403-0.182l0.027 0.155c0.093 0.066 0.154 0.232 0.35 0.193 0.083-0.017 0.258-0.206 0.319-0.264 0.196-0.188 0.386-0.382 0.584-0.572 0.638-0.61 0.414-0.527 0.011-0.953-0.114-0.12-0.181-0.216-0.315-0.278-0.018 0.195 0.009-0.010-0.032 0.071-0.002 0.003-0.007 0.009-0.008 0.013l-0.011 0.026c-0.001 0.004-0.002 0.012-0.002 0.016-0.014 0.057 0.016 0.066-0.089 0.125 0.128 0.128 0.117-0.082 0.124 0.192-0.087-0.043-0.114-0.034-0.106-0.148l-0.151-0.014c-0.192-0.069 0.1 0.076-0.061-0.048-0.001-0.001-0.028-0.086-0.090 0.009l-0.103 0.046c0.101 0.184 0.365 0.318 0.449 0.485-0.083 0.116-0.11 0.12-0.21 0.218l-0.687 0.688-0.011-1.551 0.121 0.005c0.010-0.001 0.024-0.007 0.029-0.001s0.021-0.003 0.026-0.009c0.048-0.052 0.014 0.017 0.055-0.094-0.2-0.075-0.206 0.036-0.271 0.019-0.141-0.035-0.031-0.007-0.086-0.074 0.084 0.024 0.043 0.037 0.109 0.011 0.038-0.015 0.047-0.059 0.045-0.093-0.129-0.043-0.1-0.015-0.153 0.082l-0.050-0.041c-0.114-0.083 0.060-0.105-0.146-0.063-0.066 0.014-0.055-0.025-0.107 0.159-0.204 0-0.274-0.129-0.32 0.22l0.275-0.020z"></path>
<path fill="#fc8a1c" d="M9.445 14.58c0.103 0.021 0.148 0.096 0.26 0.109 0.043-0.341-0.047-1.216 0.024-1.454-0.142 0.031-0.328 0.366-0.379 0.548-0.078 0.276 0.012 0.584 0.096 0.796z"></path>
<path fill="#018e40" d="M18.238 17.429h0.834l-0.003-4.154c-0.382-0.077-0.614 0.287-0.739 0.518-0.163 0.303-0.104 0.729-0.103 1.131 0.002 0.834 0.013 1.67 0.010 2.504z"></path>
<path fill="#018e40" d="M17.155 17.429h0.833l0.013-3.137c0.002-0.279-0.004-0.307-0.114-0.516-0.105-0.199-0.406-0.552-0.726-0.52l-0.006 4.174z"></path>
<path fill="#018e40" d="M18.554 12.022c-0.68 0-0.226-0.020-0.468-0.073l-0.163-0.024c-0.302-0.081-0.316 0.013-0.501-0.066-0.007-0.003-0.014-0.006-0.021-0.010s-0.014-0.007-0.020-0.011c-0.065-0.042-0.034-0.013-0.062-0.061-0.056-0.095-0.001-0.121-0.044-0.209-0.002-0.005-0.011-0.017-0.013-0.021-0.062-0.095 0.132 0.025-0.029-0.035v1.266c0.034 0.033 0.128 0.126 0.165 0.138 0.053-0.087 0.054-0.052 0.165-0.027l0.082 0.137-0.082 0.11h1.128c0.006-0.022 0.001-0.102-0.002-0.111-0.002-0.007-0.006-0.014-0.009-0.021l-0.044-0.116c0.045 0.002 0.127 0.003 0.153 0.004 0.011 0 0.018 0.001 0.027 0.001l-0.049-0.047c0.071-0.196 0.012-0.365 0.037-0.433 0.041-0.111-0.094 0.106 0.034-0.046 0.003-0.004 0.015-0.005 0.017-0.015s0.013-0.009 0.019-0.015c0.002-0.006 0.021-0.285-0.018-0.365l-0.073-0.103c0.15-0.11 0.204 0.053 0.155-0.134l-0.031 0.025c-0.114 0.066-0.113 0.034-0.162 0.014-0.004 0.096-0.003 0.081-0.028 0.149-0.089-0.012-0.084-0.010-0.143-0.026l-0.022 0.123z"></path>
<path fill="#018e40" d="M18.768 9.972l0.086-0.175c0.027-0.47-0.16-0.752-0.527-0.861-0.869-0.257-1.308 1.025-0.492 1.372 0.401 0.171 0.82-0.034 0.934-0.336z"></path>
<path fill="#3e4095" d="M22.929 8.973l0.48 0.175c0.024-0.011 0.148-0.023 0.014-0.164-0.194-0.204-0.527-0.316-0.794-0.362 0.001 0.15 0.053 0.133 0.068 0.276 0.099 0.004 0.167 0.028 0.231 0.075z"></path>
<path fill="#055596" d="M21.126 10.841c-0.002 0.115-0.041 0.162-0.047 0.312l0.009 2.695c0.044 0.19 0.338 0.224 0.5 0.092 0.208-0.169-0.046-1.958 0.103-2.204l0.083-0.003c0.077 0.124 0.022 0.408 0.034 0.573 0.155 0.020 0.249-0.002 0.381-0.016l0.297-0.008c0.079 0.028 0.030-0.025 0.062 0.056-0.061 0.136-0.32 0.009-0.443 0.121l0.411 0.016c0.009 0.068 0.008 0.050 0.033 0.073 0.087 0.080-0.003 0.037 0.112 0.046 0.041-0.038 0.040-0.039 0.166-0.034l-0.016 0.96 0.199 0.082c0.13-0.018 0.577-0.178 0.705-0.254l-0.001-0.888-0.672-0.067c-0.076-0.028-0.030 0.020-0.075-0.056 0.045-0.088-0.039-0.080 0.346-0.050 0.132 0.010 0.265 0.013 0.397 0.013v-0.557l0.14-0.010c0.046 0.52 0.003 1.198 0.005 1.732 0.001 0.299-0.047 0.554 0.31 0.552 0.339-0.002 0.274-0.307 0.274-0.607-0.001-0.578-0.001-1.156 0-1.734 0-0.574 0.057-1.215-0.686-1.084-0.195 0.206-0.318 0.526-0.444 0.778-0.151 0.302-0.122 0.398-0.295 0.668-0.077 0.12-0.008 0.127-0.097 0.152-0.226 0.062 0.013-0.206 0.139-0.558 0.059-0.165 0.479-0.914 0.489-1.059-0.312-0.012-1.344-0.040-1.597 0.013l0.555 1.159c0.072 0.156 0.161 0.257 0.214 0.406l-0.117 0.054-0.211-0.402c-0.061-0.174-0.084-0.24-0.177-0.429-0.154-0.315-0.266-0.531-0.44-0.796-0.125-0.014-0.284-0.008-0.397 0.039-0.174 0.072-0.143 0.136-0.249 0.223z"></path>
<path fill="#055596" d="M22.040 9.513l0.013 0.018c-0.042 0.526 0.248 0.933 0.795 0.888 0.238-0.020 0.428-0.168 0.525-0.308 0.197-0.287 0.083-0.388 0.116-0.652-0.121-0.005-0.015-0.019-0.139 0.024-0.033 0.011-0.086 0.036-0.117 0.049-0.075 0.029-0.149 0.052-0.248 0.067-0.178 0.038-0.549 0.048-0.688-0.036-0.145-0.042-0.084-0.050-0.193-0.117-0.038 0.066-0.050 0.053-0.064 0.067z"></path>
<path fill="#3e4095" d="M22.352 8.983l-0.075 0.017c-0.155 0.185-0.177 0.048-0.15 0.179l0.063-0.002c0.072-0.015-0.015 0.003 0.060-0.019 0.059-0.017 0.104-0.027 0.161-0.030 0.39-0.027 0.7 0.095 1.035 0.139l-0.036-0.117-0.48-0.175c-0.271-0.018-0.301-0.035-0.578 0.009z"></path>
<path fill="#fef013" d="M11.543 11.623c0.002 0.486 0 0.972 0 1.458 0 0.234-0.009 0.484-0.002 0.717 0.009 0.283 0.2 0.282 0.453 0.244l0.076-0.034c0.139-0.326 0.019-1.654 0.054-2.111 0.001-0.008-0.025-0.154 0.1-0.114 0.077 0.024 0.046 0.107 0.044 0.309l-0.001 1.092 1.913-0.006c0-0.235 0-0.468 0-0.701 0-0.118-0.028-0.595 0.025-0.692l0.083-0.002c0.027 0.039 0.014 0.003 0.028 0.065 0.008 0.033 0.008 0.043 0.010 0.077 0.003 0.054-0.002 0.137-0.002 0.194-0.001 0.272-0.026 1.719 0.023 1.815 0.083 0.163 0.409 0.171 0.51 0.047 0.111-0.136 0.068-2.594 0.036-2.935-0.127-0.391-0.259-0.432-0.741-0.431-0.404 0.001-0.807 0-1.211 0-1.11 0-1.407-0.196-1.397 1.008z"></path>
<path fill="#fef013" d="M13.35 17.429h0.835l-0.009-3.892-0.837 0.48z"></path>
<path fill="#fef013" d="M12.265 17.429h0.833l0.012-3.419-0.842-0.443z"></path>
<path fill="#7a2774" d="M26.206 12.729c-0.13-0.074-0.582-0.567-0.637-0.638 0.059-0.122 0.234-0.256 0.348-0.368 0.15-0.148 0.175-0.262 0.489-0.247-0.107 0.557-0.184 0.087-0.201 1.254zM28.439 11.487c0.297-0.029 0.341 0.107 0.477 0.232 0.084 0.077 0.31 0.272 0.368 0.372-0.046 0.072-0.522 0.6-0.621 0.63-0.012-0.418-0.067-0.909-0.224-1.234zM27.754 11.251c0.002 0.001 0.011 0.001 0.015 0.014l0.093 0.218c-0.001 0.005-0.003 0.015-0.006 0.022-0.234 0.062 0.070-0.054-0.162-0.007-0.036 0.007-0.045 0.015-0.067 0.034-0.055 0.047 0.011-0.014-0.028 0.031l-0.030 0.039c-0.004 0.005-0.010 0.014-0.015 0.021-0.099-0.142 0.061-0.031-0.163-0.165l-0.14 0.128-0.187-0.073c0.071-0.039 0.106 0.010 0.151-0.1l-0.149 0.018c0.019-0.068 0.054-0.203 0.105-0.231 0.16-0.085-0.073 0.088 0.063-0.014 0.007-0.006 0.025-0.066 0.095-0.097 0.051 0.076 0.132 0.037 0.043 0.258 0.008-0.006 0.018-0.025 0.022-0.019l0.061-0.051c0.135-0.101 0.008 0.036 0.181-0.151 0.058 0.051 0.109 0.104 0.182 0.066l-0.063 0.057zM26.053 10.714c-0.053 0.134-1.248 1.154-1.286 1.267-0.106 0.321 0.783 0.848 0.85 1.068 0.189 0.099 0.517 0.735 0.84 0.040l1.945-0.006c0.063 0.185 0.262 0.459 0.5 0.276 0.062-0.048 0.171-0.167 0.223-0.218 0.078-0.076 0.143-0.136 0.225-0.216 0.163-0.159 0.295-0.282 0.448-0.432 0.171-0.167 0.399-0.324 0.236-0.595-0.094-0.028-0.55-0.503-0.661-0.61-0.076-0.073-0.64-0.555-0.657-0.648-0.235-0.095-1.657-0.074-2.099-0.074-0.592 0.001-0.329 0.059-0.564 0.146z"></path>
<path fill="#7a2774" d="M27.553 17.429h0.866l-0.023-3.655c-0.087 0.005-0.284 0.115-0.386 0.146-0.153 0.047-0.298 0.075-0.47 0.087l0.013 3.422z"></path>
<path fill="#7a2774" d="M26.422 17.429h0.878l-0.017-3.423c-0.136-0.048-0.311-0.048-0.458-0.092-0.22-0.065-0.226-0.138-0.374-0.156l-0.030 3.67z"></path>
<path fill="#7a2774" d="M27.442 9.94c-0.149 0.061-0.263 0.168-0.383-0.023l0.169-0.105c0.147-0.071 0.109 0.010 0.21 0.006 0.225-0.008 0.006-0.077 0.297 0.049 0.092 0.040 0.019-0.015 0.086 0.022-0.055 0.209-0.27 0.118-0.38 0.050zM26.932 9.092c-0.022 0.065-0.026 0.047-0.083 0.122-0.203 0.266-0.182 0.659 0.046 0.92 0.106 0.121 0.185 0.122 0.272 0.198 0.333 0.070 0.516 0.056 0.75-0.133 0.392-0.318 0.339-1.022-0.21-1.236-0.386-0.151-0.538 0.038-0.775 0.129z"></path>
<path fill="#fe8918" d="M7.795 17.429h0.836l0.018-3.464 0.22 0.002 0.011 3.463h0.836l-0.013-2.496c-0.156 0.013-0.378-0.134-0.476-0.228-0.304-0.293-0.338-0.655-0.176-1.053 0.097-0.238 0.24-0.32 0.27-0.406-0.012-0.121-0.044-0.055 0.102-0.132-0.078-0.012-0.107-0.044-0.059-0.114l0.025 0.040c0.070 0.085 0.049 0.044 0.073 0.047 0.106 0.012-0.045-0.064 0.095-0.005l-0.099-0.094c-0.011-0.006-0.242-0.020-0.039-0.209 0.037 0.035 0.031-0.028 0.043 0.158 0.007-0.003 0.015-0.011 0.019-0.014l0.035-0.024c0.107-0.059 0.118 0.046 0.126-0.117l-0.030-1.16c-0.025-0.037 0.032-0.014-0.093-0.048l-0.038 0.021c0.017 0.12 0.044 0.109 0.063 0.18-0.068-0.012-0.043-0.039-0.152-0.107-0.175 0.053-0.059 0.079-0.182 0.11 0.024-0.1-0.007 0.018 0.038-0.079 0.026-0.056 0.021-0.043 0.035-0.111l-0.046-0.014-0.275 0.020c0.046-0.349 0.116-0.22 0.32-0.22 0.052-0.185 0.040-0.146 0.107-0.159 0.206-0.042 0.032-0.021 0.146 0.063l0.050 0.041c0.053-0.097 0.024-0.125 0.153-0.082 0.002 0.034-0.006 0.078-0.045 0.093-0.066 0.026-0.024 0.013-0.109-0.011 0.055 0.067-0.055 0.039 0.086 0.074 0.065 0.016 0.071-0.094 0.271-0.019-0.041 0.111-0.007 0.042-0.055 0.094-0.006 0.006-0.022 0.014-0.026 0.009s-0.019 0-0.029 0.001c0.292 0.017 0.17 0.078 0.338 0.154l0.103-0.046c0.062-0.096 0.089-0.010 0.090-0.009 0.161 0.124-0.131-0.021 0.061 0.048l0.151 0.014c-0.007 0.114 0.019 0.105 0.106 0.148-0.007-0.275 0.004-0.064-0.124-0.192 0.105-0.059 0.076-0.068 0.089-0.125 0.001-0.004 0.001-0.012 0.002-0.016l0.011-0.026c0.002-0.003 0.007-0.009 0.008-0.013 0.042-0.082 0.014 0.124 0.032-0.071-0.026-0.068-0.101-0.12-0.166-0.177-0.067-0.060-0.095-0.092-0.164-0.165-0.47-0.492-0.493-0.425-0.924-0.424-2.097 0.003-2.372-0.296-2.371 0.962v2.036c-0.002 0.24-0.018 0.413 0.227 0.44 0.261 0.029 0.359-0.094 0.358-0.328-0.001-0.339-0.042-1.845 0.025-1.952l0.083 0.002c0.070 0.099 0.028 5.141 0.028 5.692z"></path>
<path fill="#fe8918" d="M9.265 10.157c0.163-0.047 0.28-0.456 0.223-0.641l-0.153-0.013c-0.052-0.001-0.087 0.004-0.137 0.006-0.192 0.011-0.686 0.027-0.825-0.018-0.006 0.007-0.009 0.019-0.013 0.025l-0.131 0.118c-0.063 0.081-0.013 0.108 0.095 0.174l-0.052 0.136c0.005 0.007 0.013 0.013 0.017 0.017s0.012 0.012 0.017 0.017l0.046 0.046c0.001 0.001 0.048 0.054 0.050 0.056 0.012 0.013 0.017 0.021 0.039 0.041 0.166 0.156 0.302-0.026 0.428-0.039 0.014 0.244 0.013 0.003 0.11 0.165 0.227-0.038 0.128-0.127 0.287-0.090z"></path>
<path fill="#ea2c11" d="M4.261 12.185c-0.085-0.047-0.136-0.148-0.149-0.237l0.064-0.969c0.145 0.009 0.097-0.039 0.129 0.091l0.036 0.501c0.033 0.408 0.037 0.286-0.080 0.615zM2.992 16.053l-0.006-1.884-0.369 0.005 0.013 1.864 0.361 0.015zM4.035 8.985c-0.168 0.101-0.372 0.135-0.486 0.482-0.044 0.135-0.054 0.283-0.015 0.415 0.046 0.157 0.139 0.236 0.171 0.34 0.123 0.051 0.171 0.131 0.333 0.176 0.732 0.201 1.258-0.692 0.712-1.235-0.188-0.187-0.39-0.213-0.715-0.179zM4.19 10.898c-0.107-0.093-0.078-0.115-0.039-0.227l0.181 0.012c0.049 0.143 0.030 0.224-0.142 0.215zM3.275 17.429h0.83l0.012-3.453 0.225-0.008 0.016 3.461h0.834c0.003-1.82 0.022-3.66-0.004-5.477-0.001-0.087-0.026-0.262 0.091-0.228 0.085 0.025 0.059 0.16 0.057 0.256l-0.002 1.377c0 0.196-0.051 0.508 0.096 0.604 0.171 0.112 0.419 0.066 0.472-0.099 0.031-0.096 0.014-1.835 0.014-2.019 0-0.416 0.076-0.943-0.2-1.168-0.229-0.187-0.921-0.1-1.278-0.103-1.559-0.011-1.881-0.201-1.882 0.858v2.064c0 0.235-0.044 0.467 0.18 0.517 0.229 0.051 0.398-0.070 0.402-0.268 0.007-0.372-0.053-1.887 0.033-2.011l0.083 0.005c0.074 0.132 0.021 5.077 0.021 5.691z"></path>
<path fill="#058d41" d="M19.072 13.011l-0.003-1.533c0.367-0.006 0.341 0.070 0.528 0.257 0.076 0.076 0.354 0.314 0.378 0.383-0.089 0.117-0.849 0.863-0.904 0.893zM18.554 12.022l0.022-0.123c0.059 0.016 0.054 0.015 0.143 0.026 0.025-0.068 0.023-0.053 0.028-0.149 0.049 0.019 0.048 0.051 0.162-0.014l0.031-0.025c0.049 0.187-0.005 0.023-0.155 0.134l0.073 0.103c0.039 0.079 0.020 0.359 0.018 0.365-0.006 0.006-0.016 0.004-0.019 0.015s-0.014 0.011-0.017 0.015c-0.128 0.153 0.008-0.065-0.034 0.046-0.025 0.068 0.034 0.237-0.037 0.433l0.049 0.047c-0.010-0.001-0.016-0.001-0.027-0.001-0.026-0.001-0.108-0.002-0.153-0.004l0.044 0.116c0.003 0.008 0.006 0.014 0.009 0.021 0.003 0.009 0.008 0.089 0.002 0.111h-1.128l0.082-0.11-0.082-0.137c-0.111-0.024-0.112-0.060-0.165 0.027-0.037-0.012-0.131-0.104-0.165-0.138v-1.266c0.161 0.060-0.034-0.059 0.029 0.035 0.003 0.004 0.011 0.016 0.013 0.021 0.043 0.088-0.012 0.113 0.044 0.209 0.028 0.048-0.003 0.019 0.062 0.061 0.006 0.004 0.013 0.008 0.020 0.011s0.014 0.006 0.021 0.010c0.185 0.079 0.2-0.015 0.501 0.066l0.163 0.024c0.242 0.053-0.212 0.073 0.468 0.073zM19.922 11.059c-0.246-0.044-0.197-0.057-0.334-0.195-0.067-0.068-0.154-0.153-0.25-0.218-0.181-0.123-1.521-0.072-1.83-0.077-0.464-0.007-0.425-0.011-0.715 0.218-0.159-0.054-0.172-0.191-0.467-0.159-0.328 0.036-0.21 0.192-0.427 0.159-0.028-1.116 0.205-1.486-0.493-1.383-0.124 0.11-0.126 0.079-0.123 0.347 0.004 0.317-0.017 1.303 0.027 1.485 0.063 0.264 0.336 0.19 0.824 0.185 0.319-0.003 0.709-0.025 1.020 0l0.007 1.764c0.118 0.028 0.784 0.020 0.954 0.022 0.244 0.003 0.835 0.045 0.999-0.030 0.038 0.119 0.2 0.302 0.388 0.221l0.974-0.928c0.433-0.406 0.317-0.468 0.027-0.73-0.266-0.24-0.096-0.104-0.235-0.397-0.062-0.132-0.189-0.253-0.345-0.283z"></path>
<path fill="#015699" d="M21.802 17.429h0.831c0-0.355 0.057-3.335-0.022-3.533-0.076-0.189-0.152-0.184-0.356-0.251-0.151-0.050-0.315-0.137-0.463-0.146l0.010 3.929z"></path>
<path fill="#015696" d="M22.887 17.429h0.832l-0.003-3.912c-0.033-0.002-0.679 0.19-0.738 0.246-0.033 0.031-0.041 0.055-0.062 0.103-0.087 0.198-0.036 0.893-0.035 1.169 0.004 0.798 0.006 1.596 0.006 2.394z"></path>
<path fill="#f58a19" d="M9.001 8.298c0.112 0.076 0.184 0.069 0.147 0.164-0.038 0.044-0.145 0.013-0.195-0.006-0.069-0.027-0.098-0.051-0.164-0.088l0.004-0.232c0.073 0.046 0.124 0.105 0.209 0.162zM8.31 8.463c-0.033-0.099 0.063-0.102 0.167-0.176 0.088-0.062 0.108-0.11 0.197-0.157l-0.010 0.236c-0.194 0.137-0.282 0.135-0.354 0.097zM8.047 9.504c-0.059 1.013 1.026 1.001 1.218 0.653-0.159-0.037-0.060 0.051-0.287 0.090-0.098-0.162-0.096 0.079-0.11-0.165-0.126 0.013-0.262 0.195-0.428 0.039-0.021-0.020-0.027-0.028-0.039-0.041-0.002-0.002-0.050-0.055-0.050-0.056l-0.046-0.046c-0.005-0.005-0.013-0.013-0.017-0.017s-0.013-0.010-0.017-0.017l0.052-0.136c-0.108-0.066-0.158-0.093-0.095-0.174l0.131-0.118c0.004-0.006 0.007-0.018 0.013-0.025 0.139 0.045 0.633 0.028 0.825 0.018 0.050-0.003 0.085-0.007 0.137-0.006l0.153 0.013c-0.018-0.137-0.008-0.055 0.013-0.087 0.173-0.001 0.621-0.014 0.743-0.077 0.121-0.182-0.028-0.337-0.127-0.446-0.292-0.261-0.488-0.022-0.729 0.033-0.020-0.102-0.052-0.213-0.079-0.316-0.071-0.274-0.094-0.23-0.329-0.469-0.187-0.19-0.176-0.336-0.457-0.041-0.334 0.351-0.218-0.085-0.416 0.603-0.008 0.028-0.016 0.057-0.026 0.082l-0.028 0.053c-0.002 0.004-0.006 0.012-0.010 0.017-0.543-0.173-0.927 0.078-0.769 0.499 0.146 0.044 0.609 0.062 0.795 0.061l-0.022 0.075z"></path>
<path fill="#055599" d="M21.817 13.376c0.146 0.038 0.277 0.104 0.423 0.15 0.274 0.087 0.201 0.055 0.451 0.003-0.020-0.202 0.029-0.852-0.029-0.935-0.115-0.010-0.025 0.034-0.112-0.046-0.025-0.023-0.024-0.006-0.033-0.073l-0.704-0.027c-0.024 0.21-0.019 0.772 0.004 0.927z"></path>
<path fill="#055596" d="M23.41 9.149l0.036 0.117c-0.335-0.044-0.645-0.165-1.035-0.139-0.058 0.004-0.102 0.013-0.161 0.030-0.075 0.022 0.012 0.004-0.060 0.019l-0.063 0.002c-0.027-0.131-0.005 0.006 0.15-0.179l-0.191 0.036c0.008-0.254 0.279-0.369 0.49-0.396 0.048 0.143 0.099 0.117 0.077 0.258l-0.21 0.024c-0.117 0.050-0.048 0.024-0.091 0.060 0.276-0.044 0.307-0.027 0.578-0.009-0.065-0.047-0.132-0.071-0.231-0.075-0.015-0.143-0.068-0.127-0.068-0.276 0.267 0.046 0.601 0.158 0.794 0.362 0.134 0.142 0.011 0.153-0.014 0.164zM22.071 9.287l-0.032 0.226c0.014-0.015 0.026-0.001 0.064-0.067 0.108 0.066 0.048 0.075 0.193 0.117-0.004-0.007-0.009-0.027-0.010-0.022l-0.043-0.082c-0.079-0.121-0.053 0.015-0.056-0.114 0.148-0.062 0.436-0.088 0.606-0.074 0.122 0.010 0.171 0.034 0.278 0.055 0.059 0.012 0.083 0.010 0.137 0.034 0.030 0.013 0.034 0.018 0.052 0.030 0.007 0.005 0.027 0.021 0.033 0.026l0.034 0.029c-0.289 0.055-0.443 0.111-0.778 0.094 0.058 0.012 0.145 0.012 0.215 0.012 0.236 0 0.18-0.001 0.22 0.048 0.099-0.015 0.174-0.038 0.248-0.067 0.031-0.012 0.084-0.037 0.117-0.049 0.124-0.042 0.018-0.028 0.139-0.024l0.029-0.422c-0.227-0.222-0.753-0.565-1.174-0.359l-0.153 0.086c-0.064 0.051-0.005 0.004-0.042 0.039-0.255 0.241 0.032 0.299-0.077 0.485z"></path>
<path fill="#3e4095" d="M22.296 9.563c0.138 0.084 0.509 0.074 0.688 0.036-0.040-0.049 0.016-0.048-0.22-0.048-0.070 0-0.157 0-0.215-0.012 0.335 0.017 0.489-0.039 0.778-0.094l-0.034-0.029c-0.006-0.005-0.026-0.021-0.033-0.026-0.017-0.012-0.021-0.017-0.052-0.030-0.054-0.024-0.078-0.022-0.137-0.034-0.107-0.021-0.156-0.045-0.278-0.055-0.17-0.014-0.458 0.013-0.606 0.074 0.003 0.129-0.023-0.007 0.056 0.114l0.043 0.082c0.002-0.005 0.006 0.015 0.010 0.022z"></path>
<path fill="#63285b" d="M27.817 11.194c-0.073 0.037-0.123-0.015-0.182-0.066-0.174 0.186-0.047 0.050-0.181 0.151l-0.061 0.051c-0.004-0.006-0.014 0.013-0.022 0.019 0.089-0.222 0.008-0.183-0.043-0.258-0.071 0.030-0.088 0.091-0.095 0.097-0.135 0.102 0.097-0.072-0.063 0.014-0.051 0.027-0.086 0.163-0.105 0.231l0.149-0.018c-0.045 0.11-0.080 0.061-0.151 0.1l0.187 0.073 0.14-0.128c0.223 0.134 0.064 0.023 0.163 0.165 0.005-0.007 0.011-0.016 0.015-0.021l0.030-0.039c0.039-0.045-0.027 0.016 0.028-0.031 0.022-0.019 0.031-0.027 0.067-0.034 0.232-0.046-0.072 0.070 0.162 0.007 0.004-0.007 0.006-0.017 0.006-0.022l-0.093-0.218c-0.004-0.014-0.013-0.014-0.015-0.014l0.063-0.057z"></path>
<path fill="#3e4095" d="M22.277 9l0.075-0.017c0.043-0.037-0.025-0.010 0.091-0.060l0.21-0.024c0.022-0.142-0.029-0.115-0.077-0.258-0.211 0.027-0.483 0.142-0.49 0.396l0.191-0.036z"></path>
<path fill="#ea8c30" d="M9.296 14.383c-0.027-0.28-0.093-0.366 0.011-0.671 0.056-0.166 0.206-0.394 0.291-0.487-0.175 0.115-0.307 0.204-0.381 0.477-0.095 0.353-0.030 0.423 0.079 0.681z"></path>
<path fill="#d88638" d="M9.693 14.818l0.028-0.057c-0.047-0.020-0.107-0.034-0.16-0.062-0.017-0.009-0.052-0.032-0.067-0.044l-0.059-0.063c-0.101-0.041-0.12-0.066-0.175-0.143-0.038-0.053-0.093-0.141-0.108-0.204 0.011 0.159 0.189 0.425 0.31 0.498 0.083 0.050 0.134 0.052 0.231 0.074z"></path>
<path fill="#000" d="M2.491 20.166l-0.755-2.421h0.65l0.326 1.29c0.016 0.058 0.031 0.126 0.046 0.203s0.030 0.162 0.044 0.253c0.013-0.097 0.025-0.182 0.039-0.256s0.028-0.141 0.043-0.2l0.336-1.29h0.611l-0.753 2.421h-0.587zM4.13 20.166v-2.421h0.615v2.421h-0.615zM5.027 20.166l0.831-2.421h0.75l0.831 2.421h-0.643l-0.099-0.352h-0.931l-0.097 0.352h-0.641zM5.905 19.358h0.653l-0.326-1.121-0.326 1.121zM7.578 19.69h0.142c0.16 0 0.274-0.035 0.341-0.106s0.101-0.191 0.101-0.36v-0.989h-0.545v-0.491h1.154v1.517c0 0.315-0.075 0.552-0.226 0.712s-0.372 0.24-0.668 0.24h-0.299v-0.523zM9.23 20.166v-2.421h1.357v0.469h-0.748v0.494h0.748v0.469h-0.748v0.498h0.748v0.491h-1.357zM13.236 20.166v-1.23c0-0.058 0.004-0.131 0.012-0.22s0.020-0.186 0.036-0.291c-0.034 0.103-0.090 0.234-0.168 0.393l-0.009 0.020-0.661 1.374-0.654-1.372c-0.005-0.013-0.014-0.033-0.027-0.060-0.067-0.138-0.117-0.257-0.149-0.354 0.017 0.114 0.030 0.214 0.038 0.302s0.013 0.158 0.013 0.21v1.23h-0.558v-2.421h0.747l0.593 1.327 0.625-1.327h0.719v2.421h-0.558zM15.487 19.671c0.19 0 0.345-0.067 0.466-0.2s0.182-0.306 0.182-0.516-0.061-0.382-0.182-0.516c-0.121-0.134-0.277-0.2-0.466-0.2-0.191 0-0.348 0.067-0.469 0.2s-0.182 0.306-0.182 0.516c0 0.209 0.061 0.381 0.183 0.515s0.278 0.201 0.468 0.201zM15.487 17.697c0.181 0 0.348 0.030 0.499 0.090s0.287 0.149 0.406 0.268c0.117 0.116 0.206 0.249 0.267 0.402s0.091 0.318 0.091 0.498c0 0.178-0.031 0.343-0.091 0.495s-0.15 0.286-0.267 0.404c-0.118 0.118-0.253 0.207-0.406 0.268s-0.32 0.091-0.499 0.091c-0.18 0-0.347-0.031-0.501-0.091s-0.29-0.15-0.406-0.268c-0.117-0.117-0.206-0.252-0.267-0.404s-0.091-0.317-0.091-0.495 0.030-0.344 0.090-0.497c0.061-0.153 0.149-0.287 0.266-0.403 0.117-0.118 0.253-0.207 0.406-0.267s0.321-0.090 0.504-0.090zM17.629 19.462c0.003 0.080 0.032 0.143 0.086 0.19s0.127 0.070 0.219 0.070c0.091 0 0.163-0.020 0.215-0.060s0.079-0.094 0.079-0.162c0-0.060-0.025-0.111-0.077-0.154s-0.157-0.093-0.32-0.152c-0.015-0.005-0.040-0.014-0.073-0.025-0.188-0.065-0.328-0.132-0.421-0.203-0.082-0.061-0.144-0.137-0.186-0.228s-0.065-0.193-0.065-0.307c0-0.219 0.076-0.396 0.226-0.531s0.349-0.203 0.594-0.203c0.271 0 0.48 0.064 0.624 0.192s0.219 0.311 0.222 0.55l-0.552 0.002c-0.002-0.089-0.028-0.159-0.077-0.209s-0.118-0.075-0.206-0.075c-0.083 0-0.151 0.021-0.2 0.062s-0.075 0.096-0.075 0.165c0 0.099 0.119 0.192 0.359 0.278 0.048 0.018 0.086 0.032 0.112 0.042 0.015 0.005 0.037 0.014 0.067 0.025 0.219 0.081 0.372 0.169 0.46 0.264 0.055 0.059 0.096 0.125 0.123 0.199s0.040 0.156 0.040 0.246c0 0.236-0.081 0.425-0.243 0.567s-0.379 0.214-0.65 0.214c-0.255 0-0.457-0.067-0.607-0.202s-0.229-0.319-0.236-0.554l0.561 0.002zM20.51 20.166v-1.93h-0.545v-0.491h1.699v0.491h-0.545v1.93h-0.609zM23.116 19.671c0.19 0 0.345-0.067 0.466-0.2s0.182-0.306 0.182-0.516-0.061-0.382-0.182-0.516c-0.121-0.134-0.277-0.2-0.466-0.2-0.191 0-0.348 0.067-0.469 0.2s-0.182 0.306-0.182 0.516c0 0.209 0.061 0.381 0.183 0.515s0.278 0.201 0.468 0.201zM23.116 17.697c0.181 0 0.348 0.030 0.499 0.090s0.287 0.149 0.406 0.268c0.117 0.116 0.206 0.249 0.267 0.402s0.091 0.318 0.091 0.498c0 0.178-0.031 0.343-0.091 0.495s-0.15 0.286-0.267 0.404c-0.118 0.118-0.253 0.207-0.406 0.268s-0.32 0.091-0.499 0.091c-0.18 0-0.347-0.031-0.501-0.091s-0.29-0.15-0.406-0.268c-0.117-0.117-0.206-0.252-0.267-0.404s-0.091-0.317-0.091-0.495 0.030-0.344 0.090-0.497c0.061-0.153 0.149-0.287 0.266-0.403 0.117-0.118 0.253-0.207 0.406-0.267s0.321-0.090 0.504-0.090zM25.416 19.674h0.184c0.194 0 0.348-0.065 0.461-0.195s0.17-0.306 0.17-0.528c0-0.228-0.057-0.405-0.171-0.532s-0.273-0.19-0.475-0.19h-0.169v1.445zM24.808 20.166v-2.428h0.745c0.17 0 0.314 0.013 0.433 0.039s0.221 0.066 0.309 0.121c0.181 0.114 0.317 0.261 0.411 0.439s0.14 0.383 0.14 0.615c0 0.224-0.048 0.425-0.142 0.602s-0.236 0.328-0.423 0.45c-0.080 0.053-0.182 0.093-0.304 0.12s-0.264 0.041-0.424 0.041h-0.745zM27.020 20.166l0.732-1.299-0.645-1.122h0.696l0.244 0.492c0.023 0.043 0.041 0.084 0.054 0.121s0.023 0.074 0.028 0.109c0.006-0.032 0.015-0.065 0.026-0.099s0.026-0.069 0.043-0.107l0.251-0.517h0.687l-0.653 1.122 0.73 1.299h-0.707l-0.342-0.704c-0.015-0.031-0.028-0.061-0.037-0.092s-0.016-0.062-0.021-0.093c-0.006 0.035-0.014 0.069-0.025 0.103s-0.024 0.068-0.041 0.102l-0.33 0.684h-0.691zM29.967 19.462c0.003 0.080 0.032 0.143 0.086 0.19s0.127 0.070 0.219 0.070c0.091 0 0.163-0.020 0.215-0.060s0.079-0.094 0.079-0.162c0-0.060-0.025-0.111-0.077-0.154s-0.157-0.093-0.32-0.152c-0.015-0.005-0.040-0.014-0.073-0.025-0.188-0.065-0.328-0.132-0.421-0.203-0.082-0.061-0.144-0.137-0.186-0.228s-0.065-0.193-0.065-0.307c0-0.219 0.076-0.396 0.226-0.531s0.349-0.203 0.594-0.203c0.271 0 0.48 0.064 0.624 0.192s0.219 0.311 0.222 0.55l-0.552 0.002c-0.002-0.089-0.028-0.159-0.077-0.209s-0.118-0.075-0.206-0.075c-0.083 0-0.151 0.021-0.2 0.062s-0.075 0.096-0.075 0.165c0 0.099 0.119 0.192 0.359 0.278 0.048 0.018 0.086 0.032 0.112 0.042 0.015 0.005 0.037 0.014 0.067 0.025 0.219 0.081 0.372 0.169 0.46 0.264 0.055 0.059 0.096 0.125 0.123 0.199s0.040 0.156 0.040 0.246c0 0.236-0.081 0.425-0.243 0.567s-0.379 0.214-0.65 0.214c-0.255 0-0.457-0.067-0.607-0.202s-0.229-0.319-0.236-0.554l0.561 0.002z"></path>
<path fill="#fefefe" d="M2.49 23.28v-1.685h0.589c0.178 0 0.319 0.051 0.424 0.152s0.158 0.238 0.158 0.411c0 0.186-0.051 0.329-0.153 0.426s-0.251 0.146-0.448 0.146h-0.146v0.549h-0.423zM2.913 22.389h0.065c0.082 0 0.145-0.021 0.189-0.061s0.066-0.099 0.066-0.175c0-0.078-0.022-0.135-0.065-0.172s-0.11-0.057-0.199-0.057h-0.056v0.465zM6.319 22.936c0.132 0 0.24-0.046 0.324-0.139s0.127-0.213 0.127-0.359-0.042-0.266-0.127-0.359c-0.084-0.093-0.193-0.139-0.324-0.139-0.133 0-0.242 0.046-0.326 0.139s-0.127 0.213-0.127 0.359c0 0.146 0.042 0.265 0.127 0.358s0.193 0.14 0.326 0.14zM6.319 21.562c0.126 0 0.242 0.021 0.347 0.062s0.2 0.104 0.282 0.186c0.082 0.080 0.144 0.173 0.186 0.28s0.064 0.222 0.064 0.347c0 0.124-0.021 0.239-0.064 0.345s-0.104 0.199-0.186 0.281c-0.082 0.082-0.176 0.144-0.283 0.186s-0.222 0.064-0.347 0.064c-0.125 0-0.241-0.021-0.348-0.064s-0.201-0.104-0.283-0.186c-0.082-0.082-0.144-0.175-0.186-0.281s-0.064-0.221-0.064-0.345 0.021-0.239 0.063-0.346c0.042-0.106 0.104-0.2 0.185-0.281s0.176-0.144 0.282-0.186c0.107-0.042 0.223-0.063 0.351-0.063zM9.624 21.924h-0.115v0.466h0.126c0.081 0 0.143-0.021 0.187-0.061s0.066-0.099 0.066-0.175c0-0.078-0.022-0.135-0.065-0.173s-0.11-0.057-0.199-0.057zM9.086 23.28v-1.685h0.618c0.189 0 0.338 0.049 0.449 0.146s0.166 0.229 0.166 0.394c0 0.13-0.033 0.235-0.1 0.316s-0.158 0.127-0.273 0.138l0.441 0.69h-0.51l-0.367-0.717v0.717h-0.423zM14.394 23.28v-0.856c0-0.040 0.003-0.091 0.008-0.153s0.014-0.13 0.025-0.203c-0.024 0.072-0.062 0.163-0.116 0.273l-0.006 0.014-0.46 0.956-0.455-0.955c-0.003-0.009-0.010-0.023-0.019-0.042-0.047-0.096-0.081-0.178-0.104-0.247 0.012 0.079 0.021 0.149 0.026 0.21s0.009 0.11 0.009 0.146v0.856h-0.388v-1.685h0.52l0.413 0.924 0.435-0.924h0.5v1.685h-0.388zM16.752 23.28v-1.685h0.944v0.326h-0.52v0.344h0.52v0.326h-0.52v0.346h0.52v0.342h-0.944zM17.568 21.044l-0.35 0.399h-0.166l0.207-0.399h0.309zM19.474 23.28l0.509-0.904-0.449-0.781h0.484l0.17 0.342c0.016 0.030 0.028 0.058 0.038 0.085s0.016 0.052 0.019 0.076c0.004-0.022 0.011-0.045 0.018-0.069s0.018-0.048 0.030-0.074l0.175-0.359h0.478l-0.454 0.781 0.508 0.904h-0.492l-0.238-0.49c-0.011-0.021-0.019-0.043-0.026-0.064s-0.011-0.043-0.014-0.065c-0.004 0.024-0.010 0.048-0.018 0.072s-0.017 0.047-0.028 0.071l-0.229 0.476h-0.481zM22.802 23.28v-1.685h0.428v1.685h-0.428zM26.355 22.093c-0.047-0.052-0.099-0.090-0.157-0.116s-0.121-0.038-0.189-0.038c-0.136 0-0.247 0.046-0.334 0.139s-0.13 0.213-0.13 0.359 0.043 0.266 0.13 0.359c0.087 0.093 0.198 0.139 0.334 0.139 0.072 0 0.138-0.014 0.197-0.042s0.109-0.070 0.151-0.124l0.278 0.282c-0.083 0.086-0.178 0.151-0.285 0.195s-0.226 0.066-0.355 0.066c-0.124 0-0.24-0.021-0.346-0.063s-0.2-0.104-0.282-0.187c-0.082-0.081-0.144-0.174-0.186-0.28s-0.064-0.221-0.064-0.345c0-0.125 0.021-0.241 0.064-0.348s0.104-0.201 0.186-0.281c0.081-0.082 0.174-0.143 0.28-0.185s0.222-0.062 0.347-0.062c0.126 0 0.243 0.021 0.35 0.064s0.201 0.106 0.283 0.189l-0.273 0.278zM29.294 22.936c0.132 0 0.24-0.046 0.324-0.139s0.127-0.213 0.127-0.359-0.042-0.266-0.127-0.359c-0.084-0.093-0.193-0.139-0.324-0.139-0.133 0-0.242 0.046-0.326 0.139s-0.127 0.213-0.127 0.359c0 0.146 0.042 0.265 0.127 0.358s0.193 0.14 0.326 0.14zM29.294 21.562c0.126 0 0.242 0.021 0.347 0.062s0.2 0.104 0.282 0.186c0.082 0.080 0.144 0.173 0.186 0.28s0.064 0.222 0.064 0.347c0 0.124-0.021 0.239-0.064 0.345s-0.104 0.199-0.186 0.281c-0.082 0.082-0.176 0.144-0.283 0.186s-0.222 0.064-0.347 0.064c-0.125 0-0.241-0.021-0.348-0.064s-0.201-0.104-0.283-0.186c-0.082-0.082-0.144-0.175-0.186-0.281s-0.064-0.221-0.064-0.345 0.021-0.239 0.063-0.346c0.042-0.106 0.104-0.2 0.185-0.281s0.176-0.144 0.282-0.186c0.107-0.042 0.223-0.063 0.351-0.063z"></path>
<path fill="#fef013" d="M12.999 9.001c-0.168 0.101-0.372 0.135-0.486 0.482-0.044 0.134-0.054 0.283-0.014 0.415 0.046 0.157 0.139 0.236 0.171 0.34 0.123 0.051 0.171 0.131 0.332 0.176 0.732 0.202 1.258-0.692 0.712-1.235-0.188-0.187-0.39-0.213-0.715-0.179z"></path>
</svg>
