<?xml version="1.0" encoding="UTF-8"?>
<!DOCTYPE svg PUBLIC "-//W3C//DTD SVG 1.1//EN" "http://www.w3.org/Graphics/SVG/1.1/DTD/svg11.dtd">
<!-- Creator: CorelDRAW 2017 -->
<svg xmlns="http://www.w3.org/2000/svg" xml:space="preserve" width="8.4666mm" height="8.4666mm" version="1.1" style="shape-rendering:geometricPrecision; text-rendering:geometricPrecision; image-rendering:optimizeQuality; fill-rule:evenodd; clip-rule:evenodd"
viewBox="0 0 846.66 846.66"
 xmlns:xlink="http://www.w3.org/1999/xlink">
 <defs>
  <style type="text/css">
   <![CDATA[
    .fil0 {fill:#DF5437}
    .fil1 {fill:#FFFFFE}
   ]]>
  </style>
 </defs>
 <g id="Capa_x0020_1">
  <metadata id="CorelCorpID_0Corel-Layer"/>
  <g id="_2915792109424">
   <path id="Fill-3" class="fil0" d="M423.33 803.4c213.96,0 387.4,-170.16 387.4,-380.06 0,-209.91 -173.44,-380.08 -387.4,-380.08 -213.96,0 -387.4,170.17 -387.4,380.08 0,209.9 173.44,380.06 387.4,380.06z"/>
   <path id="Fill-5" class="fil1" d="M450.82 509.2c37.25,-45.52 76.35,-94.95 113.86,-140.81l-131.35 -26.11c-10.54,-2.16 -18.17,0.08 -25.16,8.23 -11.03,12.89 -22.64,25.32 -34.28,37.7 -5.28,5.64 -6.75,11.68 -4.58,18.99 6.6,22.3 13.04,46.73 19.68,69.01 0.51,1.71 1.67,3.91 3.11,4.55l58.72 28.44z"/>
   <path id="Fill-6" class="fil1" d="M201.78 282.42l132.74 -42.69c3.85,-1.14 6.48,-0.69 9.66,1.83l124.43 98.2 -266.83 -57.34z"/>
   <path id="Fill-7" class="fil1" d="M487.21 343.98c-14.57,-11.46 -27.7,-23.88 -40.8,-34.22 -33.38,-26.29 -66.77,-52.54 -100.04,-78.97 -3.06,-2.44 -5.58,-2.71 -9.12,-1.52 -12.69,4.31 -25.52,8.24 -38.24,12.47 -2.89,0.96 -4.9,1.26 -7.05,-1.72l-61.49 -85.51c17.82,7.71 34.57,14.96 51.32,22.23 52.48,22.75 104.98,45.43 157.36,68.36 2.89,1.27 5.78,4.17 7.12,7.04l40.94 91.84z"/>
   <path id="Fill-8" class="fil1" d="M440.32 515.42c4.3,2.1 6.02,4.03 5.2,9.27l-5.16 46.48 -166.97 -18.43 45.79 -49.54c19.7,-21.15 36.44,-27.43 58.37,-18.08l62.77 30.3z"/>
   <path id="Fill-9" class="fil1" d="M439.59 581.46c-27.05,31.28 -53.73,62.14 -80.94,93.61l-84.64 -111.41 165.58 17.8z"/>
   <path id="Fill-10" class="fil1" d="M573.18 372.53c11.96,13.68 23.92,29.18 35.45,42.94 1.9,2.28 3.23,6.43 2.59,9.2 -4.66,20.81 -12.5,40.3 -26.43,56.82 -9.72,11.54 -21.77,19.29 -37.98,21.31 -1.98,-7.35 -4.08,-14.82 -6.01,-22.32 -4.01,-15.43 -8.06,-30.86 -11.81,-46.37 -0.53,-2.16 -0.36,-5.35 0.92,-6.94l43.27 -54.64z"/>
   <path id="Fill-11" class="fil1" d="M415.75 625.94c2.26,-2.34 4.02,-2.88 7.08,-1.33l108.7 58.48c-18.32,2.46 -35.73,4.8 -53.13,7.12 -11.16,1.49 -22.27,3.54 -33.49,4.26 -9.17,0.58 -18.67,0.72 -27.64,-0.97 -16.62,-3.12 -32.96,-7.7 -51.15,-12.09l49.63 -55.47z"/>
   <path id="Fill-12" class="fil1" d="M627.4 354.41c1.61,6.23 3.3,12.44 4.75,18.72 0.27,1.13 -0.15,2.72 -0.82,3.72 -5.78,8.64 -11.71,17.2 -18.87,25.28l14.94 -47.72z"/>
  </g>
 </g>
</svg>
