<?xml version="1.0" encoding="UTF-8"?>
<!DOCTYPE svg PUBLIC "-//W3C//DTD SVG 1.1//EN" "http://www.w3.org/Graphics/SVG/1.1/DTD/svg11.dtd">
<!-- Creator: CorelDRAW 2017 -->
<svg xmlns="http://www.w3.org/2000/svg" xml:space="preserve" width="8.4666mm" height="8.4666mm" version="1.1" style="shape-rendering:geometricPrecision; text-rendering:geometricPrecision; image-rendering:optimizeQuality; fill-rule:evenodd; clip-rule:evenodd"
viewBox="0 0 846.66 846.66"
 xmlns:xlink="http://www.w3.org/1999/xlink">
 <defs>
  <style type="text/css">
   <![CDATA[
    .fil0 {fill:none}
    .fil1 {fill:#FCB83B}
   ]]>
  </style>
 </defs>
 <g id="Capa_x0020_1">
  <metadata id="CorelCorpID_0Corel-Layer"/>
  <rect class="fil0" width="846.66" height="846.66"/>
  <rect class="fil0" width="846.66" height="846.66"/>
  <path class="fil1" d="M643.95 484.45c-39.77,93.55 -185.84,81.83 -180.62,-15.73 2.46,-45.88 61.63,-56.66 101.33,-61.13 57.41,-6.45 106.48,12.91 79.29,76.86zm-444.86 -10.48c-16.59,-64.44 36.03,-75.39 89.67,-66.01 170.38,29.8 81.78,151.96 3.3,138.79 -40.37,-6.77 -84.68,-40.61 -92.97,-72.78zm460.29 -378.27c-154.34,27.87 -304.1,22.75 -457.77,1.25 -50.64,-7.09 -88.41,19.85 -89.92,72.63 -4.1,142.32 20,295.72 62.05,426.8 20.85,64.99 18.45,57.17 70.01,92.65 124.7,85.81 235.72,81.48 361.12,-0.63 50.52,-33.09 50.42,-32.7 69.15,-93.83 44.37,-144.81 62.27,-270.7 61.38,-424.95 -0.31,-52.71 -44.7,-79.58 -76.02,-73.92z"/>
 </g>
</svg>
