<?xml version="1.0" encoding="UTF-8"?>
<!DOCTYPE svg PUBLIC "-//W3C//DTD SVG 1.1//EN" "http://www.w3.org/Graphics/SVG/1.1/DTD/svg11.dtd">
<!-- Creator: CorelDRAW 2017 -->
<svg xmlns="http://www.w3.org/2000/svg" xml:space="preserve" width="8.4666mm" height="8.4666mm" version="1.1" style="shape-rendering:geometricPrecision; text-rendering:geometricPrecision; image-rendering:optimizeQuality; fill-rule:evenodd; clip-rule:evenodd"
viewBox="0 0 846.66 846.66"
 xmlns:xlink="http://www.w3.org/1999/xlink">
 <defs>
  <style type="text/css">
   <![CDATA[
    .fil2 {fill:#4881EC}
    .fil1 {fill:#4959B7}
    .fil0 {fill:#7EACF7}
   ]]>
  </style>
 </defs>
 <g id="Capa_x0020_1">
  <metadata id="CorelCorpID_0Corel-Layer"/>
  <g id="_2915792719664">
   <path class="fil0" d="M81.19 422.51c37.85,9.08 60.39,14.88 93.57,-5.66 16.42,-10.16 30.89,-24.44 38.45,-41.91l9.47 -19.52c1.51,-41 10.95,-95.61 16.77,-137.09 5.61,-39.92 9.17,-101.72 19.35,-136.67 -34.25,0.63 -128.58,-6.01 -151.2,6.97 -30.95,17.76 -35.68,73.57 -45.99,110.41 -11.46,40.96 -40.05,127.4 -32.9,157.57 11.47,48.37 47.8,61.22 49.68,65.25l2.8 0.65z"/>
   <path class="fil0" d="M424 347.92c15.69,38.32 35.33,84.94 100.79,82.77 62.77,-2.08 80.11,-46.56 94.86,-87.28 0.49,-39.45 -9.64,-90.28 -14.76,-131.91 -3.89,-31.7 -17.5,-102.84 -15.09,-129.62l-168.71 -0.14 2.91 266.18z"/>
   <path class="fil1" d="M222.68 355.42c12.17,22.29 7.97,33.67 36.05,56.25 21.51,17.29 30.91,23.52 67.73,23.58 37.29,0.07 45.38,-7.94 66.48,-24.93 13.04,-10.5 15.04,-6.97 21.19,-24.39 5.63,-15.93 9.23,-16.77 9.87,-38.01l-2.91 -266.18 -162.29 -0.08c-10.18,34.95 -13.74,96.75 -19.35,136.67 -5.82,41.48 -15.26,96.09 -16.77,137.09z"/>
   <path class="fil1" d="M619.65 343.41c0.51,36.18 24.32,65.11 48.1,77.3 26.63,13.63 58.27,20.92 87.41,10.12 8.18,-3.04 6.17,-0.94 10.9,-7.42 21.11,-18.83 64.14,-46.56 50.36,-100.73 -10.3,-40.47 -22.01,-83.45 -32.78,-123.99 -32.37,-121.95 -9.31,-122.02 -193.84,-116.81 -2.41,26.78 11.2,97.92 15.09,129.62 5.12,41.63 15.25,92.46 14.76,131.91z"/>
   <path class="fil2" d="M656.9 648.21l5.49 -12.81c-16.91,-0.72 -37.84,3.09 -51.84,-3.23 -2.79,-12.64 -2.66,-26.51 0.33,-39.39 16.84,-1.26 32.23,-0.81 49.01,-0.78l36.23 -0.3c16.35,3.45 4.45,-0.2 10.56,5.78 -3.03,29.44 3.3,85.44 -58.01,107.55 -53.77,19.39 -100.04,-6.93 -121.67,-42.01 -27.08,-43.92 -12.52,-96.19 20.58,-125.13 31.29,-27.36 99.26,-34.64 127.65,1.14 -4.79,9.65 -16.88,19.64 -24.35,26.25 -19.97,-5.75 -35.82,-23.96 -68.28,-4.5 -19.03,11.41 -32.87,32.38 -28.55,62.37 10.04,69.68 106.56,51.73 102.85,25.06zm-232.9 -300.29c-0.64,21.24 -4.24,22.08 -9.87,38.01 -6.15,17.42 -8.15,13.89 -21.19,24.39 -21.1,16.99 -29.19,25 -66.48,24.93 -36.82,-0.06 -46.22,-6.29 -67.73,-23.58 -28.08,-22.58 -23.88,-33.96 -36.05,-56.25l-9.47 19.52c-7.56,17.47 -22.03,31.75 -38.45,41.91 -33.18,20.54 -55.72,14.74 -93.57,5.66 7.53,87.68 -5.07,238.46 3.46,305.91 1.47,44.89 73.79,37.52 94.65,37.47l396.48 0.03c43.76,-0.02 88.69,1.07 132.3,0.1 48.9,-1.09 57.25,-32.51 57.05,-76.76 -0.21,-44.4 -2.1,-237.29 0.93,-265.85 -4.73,6.48 -2.72,4.38 -10.9,7.42 -29.14,10.8 -60.78,3.51 -87.41,-10.12 -23.78,-12.19 -47.59,-41.12 -48.1,-77.3 -14.75,40.72 -32.09,85.2 -94.86,87.28 -65.46,2.17 -85.1,-44.45 -100.79,-82.77z"/>
  </g>
 </g>
</svg>
