<?xml version="1.0" encoding="UTF-8"?>
<!DOCTYPE svg PUBLIC "-//W3C//DTD SVG 1.1//EN" "http://www.w3.org/Graphics/SVG/1.1/DTD/svg11.dtd">
<!-- Creator: CorelDRAW 2017 -->
<svg xmlns="http://www.w3.org/2000/svg" xml:space="preserve" width="8.4666mm" height="8.4666mm" version="1.1" style="shape-rendering:geometricPrecision; text-rendering:geometricPrecision; image-rendering:optimizeQuality; fill-rule:evenodd; clip-rule:evenodd"
viewBox="0 0 846.66 846.66"
 xmlns:xlink="http://www.w3.org/1999/xlink">
 <defs>
  <style type="text/css">
   <![CDATA[
    .fil0 {fill:black}
    .fil1 {fill:#00AEEF}
   ]]>
  </style>
 </defs>
 <g id="Capa_x0020_1">
  <metadata id="CorelCorpID_0Corel-Layer"/>
  <g id="_2915686571168">
   <path class="fil0" d="M754.6 400.04c0,87.61 -4.8,117.4 -44.92,191.61 -46.02,85.14 -160.91,163.23 -276.73,163.23 -83.25,0 -140.61,-16.97 -206.18,-63.27 -43.17,-30.49 -86.73,-82.97 -108.84,-135.92 -25.74,-61.67 -36.41,-129.05 -19.25,-206.79 7.72,-34.97 19.41,-59.14 33.65,-87.36 9.38,-18.58 23.86,-38.02 37.31,-53.44 83.56,-95.8 224.76,-154.49 378.01,-93.38 60.62,24.17 99.94,57.47 139.1,105.65 35.24,43.37 67.85,121.05 67.85,179.67zm-703.79 2.75c0,71.33 4.8,118.87 35.7,181.59 10.11,20.51 20.33,38.87 33.78,56.97 138.05,185.7 404.97,207.35 562.15,49.58 64.76,-65.02 113.4,-153.55 113.4,-249.63 0,-69.64 -5.18,-115.47 -34.79,-177 -37.38,-77.7 -99.91,-140.11 -176.85,-177.89 -97.5,-47.86 -221.74,-48.05 -319.9,-0.91 -27.62,13.27 -57.67,31.72 -80.73,51.27l-44.13 43.87c-46.48,49.91 -88.63,150.06 -88.63,222.15z"/>
   <path class="fil1" d="M441.2 534.82c0,37.79 6.88,49.51 -19.25,49.51 -14.88,0 -10.99,-33.63 -10.99,-49.51 -40.26,-21.31 -33.06,-79.77 21.99,-79.77 44.22,0 52.45,76.09 8.25,79.77zm65.98 -134.78l-170.45 0 0 -30.26c0,-46.14 35.85,-77.02 82.47,-77.02 68.65,0 96.23,28.46 96.23,99.02 0,6.34 -1.92,8.26 -8.25,8.26zm-250.18 33.01c0,41.54 -4.15,76.16 16.57,112.7 7.94,14 21.05,32.95 34.03,42.97 42.33,32.68 66.59,39.63 128.1,39.63 86.94,0 159.45,-67.2 159.45,-154.04 0,-74.25 -2.77,-39.92 -14.63,-70.64 -7.79,-20.18 10.66,-54.98 -27.08,-113.19 -46.96,-72.46 -187.53,-90.22 -254.09,-2.1 -10.72,14.19 -24.87,45.08 -25.9,67.59 -0.67,14.42 2.58,32.5 -1.74,45.03 -4.16,12.06 -14.71,17.32 -14.71,32.05z"/>
  </g>
 </g>
</svg>
