<!-- Generated by IcoMoon.io -->
<svg version="1.1" xmlns="http://www.w3.org/2000/svg" width="32" height="32" viewBox="0 0 32 32">
<title>logo-xiiber-bus-a-tepozspa</title>
<path fill="#3f2e64" d="M2.655 17.078c-0.425-0.771-0.744-1.128-0.956-2.345-0.505-2.899 1.001-4.27 1.95-1.111 0.341 1.135 0.26 1.702 0.159 2.923l0.429 0.010c0.186-0.966 0.67-2.062 1.193-2.552 0.43-0.403 1.967-1.015 2.841-0.484 0.556 0.337 0.321 0.83-0.17 1.065-1.25 0.597-1.108 0.723-1.882 1.691-0.338 0.423-0.59 0.522-0.939 0.877 0.138 0.356 0.643 0.875 0.296 1.775-0.866-0.405-1.57-0.698-2.678-0.404-0.184 0.049-0.268 0.099-0.419 0.143-0.805 0.237-0.115-1.316 0.174-1.587z"></path>
<path fill="#3e4095" d="M3.534 19.331c-0.882 0.31-0.458 1.644 0.448 1.37 0.094-0.029 0.185-0.083 0.233-0.124 0.647-0.555 0.039-1.5-0.681-1.247z"></path>
<path fill="#17082f" d="M9.14 19.815l-0.718-1.004-0.743 1.004h-1.035l1.26-1.65-1.218-1.625h1.065l0.694 0.956 0.712-0.956h1.011l-1.217 1.601 1.266 1.674h-1.078zM10.376 16.54h0.95v3.275h-0.95v-3.275zM10.851 16.083c-0.175 0-0.317-0.051-0.426-0.152s-0.164-0.227-0.164-0.377 0.055-0.276 0.164-0.377c0.11-0.101 0.252-0.152 0.426-0.152s0.317 0.049 0.426 0.146c0.11 0.097 0.164 0.219 0.164 0.365 0 0.158-0.055 0.289-0.164 0.393s-0.252 0.155-0.426 0.155zM11.905 16.54h0.95v3.275h-0.95v-3.275zM12.38 16.083c-0.175 0-0.317-0.051-0.426-0.152s-0.164-0.227-0.164-0.377 0.055-0.276 0.164-0.377c0.11-0.101 0.252-0.152 0.426-0.152s0.317 0.049 0.426 0.146c0.11 0.097 0.164 0.219 0.164 0.365 0 0.158-0.055 0.289-0.164 0.393s-0.252 0.155-0.426 0.155zM15.37 16.491c0.304 0 0.581 0.070 0.831 0.21s0.445 0.337 0.587 0.59c0.142 0.254 0.213 0.549 0.213 0.886s-0.071 0.632-0.213 0.886c-0.142 0.254-0.338 0.45-0.587 0.59s-0.527 0.21-0.831 0.21c-0.45 0-0.793-0.142-1.029-0.426v0.377h-0.907v-4.517h0.95v1.589c0.239-0.264 0.568-0.396 0.986-0.396zM15.206 19.084c0.243 0 0.443-0.082 0.6-0.247s0.234-0.385 0.234-0.661c0-0.276-0.078-0.496-0.234-0.66s-0.356-0.247-0.6-0.247c-0.244 0-0.443 0.082-0.6 0.247s-0.234 0.385-0.234 0.66c0 0.276 0.078 0.496 0.234 0.661s0.356 0.247 0.6 0.247zM18.981 19.102c0.171 0 0.322-0.025 0.454-0.076s0.255-0.131 0.368-0.24l0.505 0.548c-0.308 0.353-0.759 0.53-1.351 0.53-0.369 0-0.696-0.072-0.98-0.216s-0.503-0.344-0.657-0.6c-0.154-0.256-0.231-0.546-0.231-0.87 0-0.321 0.076-0.61 0.228-0.867s0.361-0.459 0.627-0.603c0.266-0.144 0.565-0.216 0.898-0.216 0.312 0 0.597 0.066 0.852 0.198s0.46 0.323 0.612 0.572c0.152 0.25 0.228 0.545 0.228 0.886l-2.423 0.469c0.069 0.162 0.178 0.284 0.326 0.365s0.33 0.122 0.545 0.122zM18.841 17.209c-0.239 0-0.434 0.077-0.584 0.231s-0.229 0.367-0.238 0.639l1.595-0.31c-0.045-0.171-0.136-0.306-0.274-0.408s-0.304-0.152-0.499-0.152zM21.776 16.972c0.114-0.158 0.267-0.278 0.46-0.359s0.415-0.122 0.667-0.122v0.877c-0.105-0.008-0.177-0.012-0.213-0.012-0.272 0-0.485 0.076-0.639 0.228s-0.231 0.38-0.231 0.685v1.546h-0.95v-3.275h0.907v0.432z"></path>
<path fill="#e8443b" d="M23.052 20.076c0.104 0 0.188 0.084 0.188 0.188s-0.084 0.189-0.188 0.189-0.189-0.084-0.189-0.189c0-0.104 0.084-0.188 0.189-0.188z"></path>
<path fill="#004dfd" d="M25.008 20.089c0.104 0 0.188 0.084 0.188 0.189s-0.084 0.188-0.188 0.188c-0.104 0-0.189-0.084-0.189-0.188s0.084-0.189 0.189-0.189z"></path>
<path fill="#feed01" d="M24.054 20.076c0.104 0 0.189 0.084 0.189 0.188s-0.084 0.189-0.189 0.189-0.188-0.084-0.188-0.189c0-0.104 0.084-0.188 0.188-0.188z"></path>
<path fill="#ff8b00" d="M23.523 20.074c0.104 0 0.189 0.084 0.189 0.188s-0.084 0.189-0.189 0.189c-0.104 0-0.188-0.084-0.188-0.189s0.084-0.188 0.188-0.188z"></path>
<path fill="#760789" d="M25.479 20.087c0.104 0 0.188 0.084 0.188 0.189s-0.084 0.188-0.188 0.188c-0.104 0-0.189-0.084-0.189-0.188s0.084-0.189 0.189-0.189z"></path>
<path fill="#008125" d="M24.525 20.074c0.104 0 0.188 0.084 0.188 0.188s-0.084 0.189-0.188 0.189c-0.104 0-0.189-0.084-0.189-0.189s0.084-0.188 0.189-0.188z"></path>
<path fill="#3e4095" d="M10.656 14.948c-0.758 0.266-0.393 1.411 0.385 1.176 0.081-0.024 0.159-0.071 0.2-0.106 0.555-0.476 0.034-1.287-0.585-1.070z"></path>
<path fill="#3f2e64" d="M12.16 14.948c-0.757 0.266-0.393 1.411 0.385 1.176 0.081-0.024 0.159-0.071 0.2-0.106 0.555-0.476 0.034-1.288-0.585-1.070z"></path>
<path fill="#606062" d="M23.574 19.763c-0.042 0.038-0.093 0.066-0.154 0.086s-0.124 0.030-0.191 0.030c-0.155 0-0.274-0.042-0.358-0.125s-0.125-0.202-0.125-0.355v-1.547h0.223v0.361h0.499v0.188h-0.499v0.986c0 0.098 0.024 0.173 0.072 0.224s0.118 0.077 0.21 0.077c0.1 0 0.182-0.028 0.245-0.085l0.078 0.16zM24.048 18.536c0.052-0.111 0.13-0.195 0.234-0.251s0.232-0.085 0.384-0.085v0.217l-0.053-0.003c-0.174 0-0.31 0.053-0.408 0.16s-0.148 0.256-0.148 0.449v0.841h-0.223v-1.651h0.213v0.323zM26.414 18.212v1.651h-0.213v-0.326c-0.067 0.111-0.155 0.196-0.265 0.254s-0.234 0.088-0.372 0.088c-0.155 0-0.295-0.036-0.421-0.107s-0.224-0.171-0.295-0.298c-0.071-0.128-0.107-0.273-0.107-0.436s0.036-0.309 0.107-0.436c0.071-0.128 0.169-0.227 0.295-0.297s0.266-0.105 0.421-0.105c0.134 0 0.255 0.028 0.363 0.083s0.196 0.137 0.265 0.243v-0.314h0.223zM25.582 19.681c0.115 0 0.219-0.027 0.312-0.080s0.166-0.129 0.22-0.228c0.053-0.098 0.080-0.21 0.080-0.336s-0.027-0.238-0.080-0.336c-0.053-0.098-0.127-0.174-0.22-0.228s-0.197-0.080-0.312-0.080c-0.117 0-0.222 0.027-0.315 0.080s-0.166 0.129-0.22 0.228c-0.053 0.098-0.080 0.21-0.080 0.336s0.027 0.238 0.080 0.336c0.053 0.098 0.127 0.174 0.22 0.228s0.198 0.080 0.315 0.080zM28.278 18.212l-0.735 1.651h-0.229l-0.731-1.651h0.232l0.618 1.406 0.625-1.406h0.22zM29.106 19.681c0.102 0 0.197-0.018 0.284-0.055s0.161-0.090 0.221-0.162l0.126 0.144c-0.073 0.088-0.164 0.155-0.273 0.201s-0.229 0.069-0.361 0.069c-0.169 0-0.32-0.036-0.452-0.108s-0.234-0.172-0.308-0.3c-0.073-0.128-0.11-0.272-0.11-0.433s0.035-0.305 0.105-0.433c0.070-0.128 0.167-0.227 0.29-0.298s0.264-0.107 0.421-0.107c0.146 0 0.279 0.034 0.397 0.1s0.212 0.16 0.282 0.279c0.070 0.119 0.107 0.255 0.111 0.408l-1.356 0.264c0.042 0.134 0.118 0.239 0.228 0.315s0.241 0.114 0.394 0.114zM29.050 18.391c-0.115 0-0.218 0.027-0.309 0.080s-0.162 0.128-0.213 0.223c-0.051 0.095-0.077 0.204-0.077 0.328 0 0.031 0.001 0.054 0.003 0.069l1.164-0.226c-0.025-0.138-0.089-0.252-0.191-0.34s-0.228-0.134-0.377-0.134zM30.616 19.879c-0.149 0-0.263-0.042-0.344-0.125s-0.121-0.2-0.121-0.348v-1.871h0.223v1.852c0 0.098 0.023 0.173 0.069 0.224s0.115 0.077 0.207 0.077c0.058 0 0.109-0.009 0.151-0.028l0.016 0.185c-0.065 0.023-0.132 0.035-0.201 0.035z"></path>
</svg>
