<!-- Generated by IcoMoon.io -->
<svg version="1.1" xmlns="http://www.w3.org/2000/svg" width="32" height="32" viewBox="0 0 32 32">
<title>logo-ferrely-underwear-and-swimmer</title>
<path d="M6.335 19.468h0.097v1.056c0 0.171 0.062 0.315 0.187 0.432s0.274 0.174 0.45 0.174c0.163 0 0.302-0.062 0.416-0.186s0.171-0.27 0.171-0.44v-1.036h0.097v1.036c0 0.196-0.065 0.366-0.196 0.509s-0.292 0.214-0.483 0.214c-0.202 0-0.375-0.068-0.52-0.203s-0.218-0.301-0.218-0.499v-1.056zM8.468 20.156c-0.102 0-0.201 0.038-0.297 0.115s-0.163 0.171-0.202 0.281v0.661h-0.092v-1.092h0.094l-0.002 0.223c0.061-0.086 0.134-0.153 0.218-0.203 0.092-0.054 0.188-0.081 0.287-0.081 0.193 0 0.341 0.066 0.443 0.201 0.081 0.106 0.121 0.228 0.121 0.367v0.586h-0.097v-0.586c0-0.123-0.031-0.225-0.095-0.308-0.082-0.109-0.209-0.164-0.38-0.164zM10.337 20.296l-0.064 0.070c-0.068-0.061-0.136-0.106-0.203-0.135s-0.136-0.044-0.203-0.044c-0.139 0-0.259 0.055-0.361 0.163s-0.153 0.229-0.153 0.361c0.011 0.133 0.061 0.245 0.15 0.335 0.088 0.089 0.198 0.134 0.328 0.134 0.127 0 0.246-0.045 0.354-0.136s0.163-0.186 0.163-0.285v-1.283h0.097v1.286c0 0.132-0.064 0.251-0.192 0.356s-0.27 0.159-0.427 0.159-0.291-0.054-0.403-0.163c-0.111-0.108-0.167-0.239-0.167-0.393 0-0.164 0.061-0.309 0.182-0.438s0.265-0.192 0.432-0.192c0.081 0 0.16 0.015 0.236 0.048s0.153 0.084 0.231 0.157zM10.948 21.115c0.060 0.033 0.125 0.049 0.198 0.049 0.129 0 0.239-0.046 0.332-0.139 0.045-0.048 0.077-0.094 0.096-0.139s0.033-0.105 0.041-0.181l0.097 0.010c-0.010 0.082-0.026 0.152-0.050 0.21s-0.061 0.114-0.114 0.168c-0.053 0.054-0.112 0.096-0.179 0.124s-0.137 0.042-0.212 0.042c-0.111 0-0.217-0.032-0.32-0.094-0.084-0.055-0.151-0.126-0.199-0.215s-0.073-0.18-0.073-0.276c0-0.099 0.026-0.194 0.079-0.283s0.124-0.16 0.214-0.212c0.090-0.051 0.184-0.077 0.283-0.077 0.102 0 0.195 0.028 0.278 0.084l0.037 0.022-0.507 0.904zM10.726 20.438c-0.043 0.073-0.065 0.152-0.065 0.238 0 0.074 0.018 0.145 0.052 0.212s0.086 0.124 0.153 0.169l0.461-0.814c-0.055-0.028-0.116-0.042-0.183-0.042-0.084 0-0.164 0.021-0.241 0.063s-0.135 0.1-0.178 0.175zM11.988 21.206h-0.099l0.002-0.56c0-0.082 0.024-0.167 0.072-0.253 0.030-0.053 0.069-0.107 0.116-0.161 0.043-0.045 0.093-0.081 0.151-0.109 0.071-0.035 0.144-0.052 0.218-0.052l0.005 0.097c-0.058 0-0.118 0.015-0.181 0.045-0.053 0.025-0.094 0.053-0.124 0.086-0.048 0.050-0.088 0.112-0.121 0.188-0.026 0.059-0.040 0.112-0.040 0.158v0.56zM13.072 21.154c0.082 0 0.155-0.026 0.216-0.078s0.108-0.12 0.14-0.204v-0.748h0.096v0.719c0 0.070 0.040 0.139 0.12 0.208s0.165 0.103 0.256 0.103c0.096 0 0.176-0.037 0.242-0.111s0.098-0.161 0.098-0.26v-0.667h0.096v0.667c0 0.126-0.041 0.235-0.123 0.329s-0.184 0.139-0.308 0.139c-0.089 0-0.173-0.022-0.251-0.067s-0.137-0.104-0.177-0.179c-0.043 0.073-0.099 0.132-0.168 0.178s-0.148 0.068-0.235 0.068c-0.127 0-0.236-0.045-0.328-0.133s-0.137-0.195-0.137-0.321v-0.659h0.097v0.659c0 0.099 0.036 0.183 0.108 0.253s0.159 0.104 0.259 0.104zM14.846 21.115c0.060 0.033 0.125 0.049 0.198 0.049 0.129 0 0.239-0.046 0.332-0.139 0.044-0.048 0.076-0.094 0.095-0.139s0.033-0.105 0.041-0.181l0.097 0.010c-0.010 0.082-0.026 0.152-0.049 0.21s-0.061 0.114-0.114 0.168c-0.053 0.054-0.113 0.096-0.18 0.124s-0.137 0.042-0.212 0.042c-0.111 0-0.217-0.032-0.319-0.094-0.084-0.055-0.151-0.126-0.199-0.215s-0.073-0.18-0.073-0.276c0-0.099 0.026-0.194 0.079-0.283s0.124-0.16 0.214-0.212c0.090-0.051 0.185-0.077 0.284-0.077 0.102 0 0.195 0.028 0.277 0.084l0.037 0.022-0.508 0.904zM14.623 20.438c-0.043 0.073-0.064 0.152-0.064 0.238 0 0.074 0.017 0.145 0.052 0.212s0.086 0.124 0.154 0.169l0.46-0.814c-0.054-0.028-0.116-0.042-0.183-0.042-0.084 0-0.164 0.021-0.241 0.063s-0.135 0.1-0.178 0.175zM16.758 20.983l0.066 0.070c-0.076 0.071-0.153 0.122-0.231 0.154s-0.158 0.048-0.239 0.048c-0.166 0-0.309-0.064-0.43-0.191s-0.182-0.273-0.182-0.436c0-0.153 0.056-0.284 0.168-0.393s0.246-0.163 0.401-0.163c0.157 0 0.299 0.053 0.426 0.159s0.191 0.225 0.191 0.359v0.612h-0.097v-0.612c0-0.101-0.054-0.196-0.162-0.286s-0.226-0.135-0.353-0.135c-0.132 0-0.245 0.045-0.338 0.135s-0.14 0.2-0.14 0.332c0 0.133 0.051 0.254 0.152 0.362s0.223 0.162 0.363 0.162c0.069 0 0.137-0.014 0.204-0.042s0.133-0.072 0.2-0.134zM17.216 21.206h-0.099l0.002-0.56c0-0.082 0.024-0.167 0.072-0.253 0.030-0.053 0.069-0.107 0.116-0.161 0.043-0.045 0.093-0.081 0.151-0.109 0.071-0.035 0.144-0.052 0.218-0.052l0.005 0.097c-0.057 0-0.118 0.015-0.18 0.045-0.053 0.025-0.095 0.053-0.124 0.086-0.048 0.050-0.089 0.112-0.121 0.188-0.026 0.059-0.040 0.112-0.040 0.158v0.56zM19.727 21.104l0.042 0.073-0.082 0.047-0.037-0.067c-0.054 0.030-0.109 0.053-0.163 0.068s-0.112 0.023-0.171 0.023c-0.198 0-0.366-0.068-0.506-0.204s-0.209-0.302-0.209-0.499c0-0.133 0.034-0.253 0.101-0.357 0.063-0.096 0.153-0.178 0.273-0.247-0.015-0.032-0.027-0.064-0.036-0.097s-0.014-0.064-0.014-0.094c0-0.056 0.015-0.109 0.045-0.159 0.071-0.13 0.187-0.195 0.349-0.195 0.117 0 0.212 0.045 0.285 0.136l-0.074 0.062c-0.033-0.037-0.065-0.062-0.095-0.078s-0.069-0.023-0.115-0.023c-0.123 0-0.211 0.050-0.265 0.148-0.021 0.036-0.032 0.074-0.032 0.114 0 0.042 0.014 0.093 0.040 0.151 0.007 0.013 0.025 0.048 0.056 0.104l0.565 1.008c0.105-0.088 0.169-0.204 0.194-0.349 0.005-0.038 0.007-0.072 0.007-0.101 0-0.102-0.035-0.21-0.107-0.321l0.079-0.052c0.082 0.119 0.124 0.245 0.124 0.379 0 0.035-0.002 0.071-0.007 0.109-0.013 0.088-0.041 0.167-0.083 0.238s-0.096 0.133-0.162 0.186zM19.603 21.072l-0.587-1.047c-0.105 0.064-0.184 0.136-0.235 0.215-0.056 0.088-0.084 0.189-0.084 0.305 0 0.17 0.061 0.314 0.181 0.431s0.265 0.176 0.434 0.176c0.105 0 0.203-0.027 0.292-0.080zM21.545 20.083l0.035 0.090c-0.032 0.013-0.063 0.025-0.095 0.037-0.038 0.018-0.068 0.046-0.092 0.084-0.040 0.061-0.062 0.179-0.069 0.355s-0.037 0.32-0.092 0.43c-0.026 0.052-0.068 0.092-0.126 0.121-0.048 0.025-0.104 0.040-0.168 0.045l-0.010-0.097c0.050 0 0.095-0.010 0.134-0.030s0.068-0.047 0.084-0.081c0.054-0.265 0.109-0.529 0.163-0.793 0.027-0.045 0.061-0.079 0.104-0.104 0.018-0.010 0.062-0.029 0.131-0.058zM22.177 21.154c0.082 0 0.155-0.026 0.216-0.078s0.108-0.12 0.14-0.204v-0.748h0.096v0.719c0 0.070 0.040 0.139 0.12 0.208s0.166 0.103 0.256 0.103c0.096 0 0.176-0.037 0.242-0.111s0.098-0.161 0.098-0.26v-0.667h0.097v0.667c0 0.126-0.041 0.235-0.123 0.329s-0.184 0.139-0.308 0.139c-0.089 0-0.173-0.022-0.251-0.067s-0.137-0.104-0.177-0.179c-0.043 0.073-0.099 0.132-0.168 0.178s-0.148 0.068-0.235 0.068c-0.127 0-0.236-0.045-0.328-0.133s-0.137-0.195-0.137-0.321v-0.659h0.097v0.659c0 0.099 0.036 0.183 0.108 0.253s0.159 0.104 0.259 0.104zM23.667 20.102h0.097v1.112h-0.097v-1.112zM23.667 19.935h0.097v0.080h-0.097v-0.080zM25.216 20.178c-0.082 0-0.154 0.025-0.215 0.074s-0.107 0.116-0.138 0.198v0.77h-0.097v-0.74c0-0.069-0.040-0.139-0.12-0.207s-0.166-0.103-0.259-0.103c-0.094 0-0.174 0.037-0.239 0.111s-0.098 0.16-0.098 0.261v0.679h-0.096v-0.679c0-0.125 0.041-0.235 0.123-0.328s0.184-0.14 0.308-0.14c0.089 0 0.173 0.022 0.251 0.066s0.137 0.103 0.177 0.176c0.046-0.071 0.103-0.128 0.171-0.171s0.145-0.064 0.231-0.064c0.127 0 0.236 0.042 0.329 0.126s0.139 0.189 0.139 0.314v0.699h-0.097v-0.699c0-0.097-0.036-0.179-0.108-0.245s-0.16-0.099-0.262-0.099zM26.296 21.154c0.082 0 0.155-0.026 0.216-0.078s0.108-0.12 0.14-0.204v-0.748h0.096v0.719c0 0.070 0.040 0.139 0.12 0.208s0.166 0.103 0.257 0.103c0.096 0 0.176-0.037 0.241-0.111s0.098-0.161 0.098-0.26v-0.667h0.097v0.667c0 0.126-0.041 0.235-0.123 0.329s-0.185 0.139-0.309 0.139c-0.089 0-0.173-0.022-0.251-0.067s-0.137-0.104-0.177-0.179c-0.043 0.073-0.099 0.132-0.168 0.178s-0.148 0.068-0.235 0.068c-0.127 0-0.236-0.045-0.328-0.133s-0.137-0.195-0.137-0.321v-0.659h0.097v0.659c0 0.099 0.036 0.183 0.109 0.253s0.159 0.104 0.259 0.104zM28.070 21.115c0.060 0.033 0.126 0.049 0.198 0.049 0.129 0 0.239-0.046 0.332-0.139 0.045-0.048 0.076-0.094 0.095-0.139s0.033-0.105 0.041-0.181l0.096 0.010c-0.010 0.082-0.026 0.152-0.049 0.21s-0.061 0.114-0.114 0.168-0.113 0.096-0.18 0.124c-0.066 0.028-0.137 0.042-0.211 0.042-0.111 0-0.217-0.032-0.32-0.094-0.084-0.055-0.151-0.126-0.199-0.215s-0.073-0.18-0.073-0.276c0-0.099 0.026-0.194 0.080-0.283s0.124-0.16 0.214-0.212c0.090-0.051 0.184-0.077 0.283-0.077 0.102 0 0.195 0.028 0.277 0.084l0.037 0.022-0.508 0.904zM27.847 20.438c-0.043 0.073-0.064 0.152-0.064 0.238 0 0.074 0.017 0.145 0.052 0.212s0.086 0.124 0.153 0.169l0.46-0.814c-0.054-0.028-0.116-0.042-0.183-0.042-0.084 0-0.164 0.021-0.24 0.063s-0.136 0.1-0.179 0.175zM29.982 20.983l0.066 0.070c-0.076 0.071-0.153 0.122-0.231 0.154s-0.158 0.048-0.239 0.048c-0.165 0-0.308-0.064-0.43-0.191s-0.182-0.273-0.182-0.436c0-0.153 0.056-0.284 0.168-0.393s0.246-0.163 0.401-0.163c0.157 0 0.299 0.053 0.426 0.159s0.191 0.225 0.191 0.359v0.612h-0.097v-0.612c0-0.101-0.054-0.196-0.162-0.286s-0.226-0.135-0.353-0.135c-0.132 0-0.245 0.045-0.338 0.135s-0.14 0.2-0.14 0.332c0 0.133 0.051 0.254 0.152 0.362s0.223 0.162 0.363 0.162c0.069 0 0.137-0.014 0.204-0.042s0.133-0.072 0.199-0.134zM30.44 21.206h-0.099l0.002-0.56c0-0.082 0.024-0.167 0.072-0.253 0.030-0.053 0.069-0.107 0.117-0.161 0.043-0.045 0.093-0.081 0.151-0.109 0.071-0.035 0.144-0.052 0.218-0.052l0.005 0.097c-0.058 0-0.119 0.015-0.181 0.045-0.053 0.025-0.094 0.053-0.124 0.086-0.048 0.050-0.089 0.112-0.121 0.188-0.026 0.059-0.040 0.112-0.040 0.158v0.56z"></path>
<path d="M8.949 16.469v-0.25h-2.447v-1.458h2.447v-0.251h-2.697v4.528h0.25v-2.569h2.447zM9.719 14.761h2.415v-0.251h-2.666v4.548h2.666v-0.251h-2.415v-2.344h2.421v-0.251h-2.421v-1.451zM12.929 17.336v1.715h-0.25v-4.509l1.233-0.013c0.467 0 0.856 0.139 1.169 0.419 0.338 0.3 0.507 0.704 0.507 1.215 0 0.459-0.167 0.813-0.501 1.061-0.29 0.215-0.656 0.322-1.097 0.322h-0.313l1.947 1.398-0.151 0.208-2.543-1.817zM12.929 17.298h1.057c0.401 0 0.718-0.086 0.948-0.256 0.269-0.197 0.404-0.491 0.404-0.884 0-0.431-0.139-0.771-0.416-1.019-0.261-0.23-0.597-0.346-1.012-0.346h-0.98v2.505zM16.254 17.336v1.715h-0.25v-4.509l1.233-0.013c0.467 0 0.856 0.139 1.169 0.419 0.338 0.3 0.507 0.704 0.507 1.215 0 0.459-0.167 0.813-0.501 1.061-0.29 0.215-0.656 0.322-1.097 0.322h-0.313l1.947 1.398-0.151 0.208-2.543-1.817zM16.254 17.298h1.057c0.401 0 0.718-0.086 0.948-0.256 0.269-0.197 0.404-0.491 0.404-0.884 0-0.431-0.139-0.771-0.416-1.019-0.261-0.23-0.597-0.346-1.012-0.346h-0.98v2.505zM19.58 14.761h2.415v-0.251h-2.665v4.548h2.665v-0.251h-2.415v-2.344h2.421v-0.251h-2.421v-1.451zM22.565 14.529v4.554h2.499v-0.251h-2.248v-4.303h-0.25zM27.644 17.476v-0.236c-0.159 0.296-0.366 0.53-0.625 0.703-0.258 0.174-0.557 0.26-0.894 0.26-0.573 0-1.025-0.207-1.36-0.623-0.303-0.381-0.455-0.852-0.455-1.413v-1.484h0.25v1.484c0 0.505 0.131 0.923 0.391 1.252 0.282 0.355 0.675 0.533 1.18 0.533 0.431 0 0.791-0.169 1.080-0.507 0.287-0.338 0.432-0.741 0.432-1.208v-1.554h0.25v2.79c0 0.497-0.165 0.924-0.494 1.284-0.33 0.358-0.739 0.538-1.227 0.538-0.407 0-0.756-0.1-1.050-0.3s-0.526-0.49-0.697-0.869l0.224-0.103c0.159 0.336 0.362 0.59 0.61 0.762s0.548 0.259 0.899 0.259c0.415 0 0.766-0.153 1.053-0.46s0.431-0.677 0.431-1.108z"></path>
<path d="M4.82 16.562c0.002-0.095 0.002-0.201 0.098-0.221 0.065 0.132-0.019 0.181-0.098 0.221zM1.446 16.154c-0.028-0.048-0.037-0.11-0.006-0.178 0.014-0.030 0.014-0.041 0.052-0.053 0.081-0.026 0.075 0.013 0.085 0.014 0.001 0.056 0.022 0.143-0.13 0.216zM2.041 15.721c0.015-0.166 0.108-0.64 0.17-0.777 0.616 0.040 1.316 0.394 1.939 0.185 0.086-0.029 0.153-0.070 0.25-0.083 0.010 0.227 0.12 0.499 0.056 0.751-0.064 0.087-0.52 0.229-0.577 0.273-0.125 0.096 0.002 0.132-0.237 0.188-0.133 0.032-0.234 0.030-0.377 0.018-0.029-0.087-0.001-0.078-0.078-0.143-0.233-0.196-0.839-0.452-1.146-0.412zM4.13 9.228c-0.018 0.069-0.144 0.040-0.292 0.054-0.082 0.008-0.226 0.022-0.297 0.045-0.429 0.138-0.259 0.621-0.297 0.767-0.016 0.061-0.089 0.083-0.025 0.287 0.074 0.239 0.187 0.125 0.108 0.565-0.054 0.306-0.68 0.344-1.008 0.411-0.254 0.052-0.364 0.058-0.48 0.227-0.092 0.132-0.143 0.324-0.169 0.515-0.033 0.231-0.112 0.325-0.192 0.518-0.088 0.213-0.079 0.357-0.121 0.586-0.031 0.167-0.159 0.313-0.195 0.512-0.125 0.698-0.028 1.236-0.048 2.021-0.007 0.294 0.046 0.572 0.316 0.701 0.346 0.166 0.241-0.006 0.29-0.082 0.024-0.037 0.055-0.058 0.086-0.115-0.126-0.352-0.038-0.177-0.093-0.471-0.076-0.403-0.365-0.223-0.002-1.282 0.11-0.32 0.072-0.665 0.165-0.946 0.060-0.18 0.25-0.626 0.349-0.747 0.012 0.138-0.003 0.216 0.030 0.354 0.103 0.419 0.185 0.454 0.054 0.964-0.058 0.224-0.046 0.435-0.101 0.671-0.046 0.201-0.108 0.413-0.146 0.621-0.045 0.244-0.033 0.31-0.105 0.664-0.138 0.673-0.132 1.452-0.104 2.134 0.006 0.155-0.147 0.431-0.19 0.582-0.038 0.137-0.086 0.514-0.101 0.669-0.054 0.568 0.064 0.861 0.158 1.363 0.027 0.147 0.019 0.591 0.014 0.761-0.009 0.287-0.225 0.765-0.068 1.010 0.010 0.015 0.156 0.166 0.204 0.176 0.084 0.018 0.625 0.006 0.739 0-0.068-0.256-0.358-0.583-0.371-0.627-0.036-0.131-0.011-0.802-0.009-0.984 0.009-0.799-0.018-0.633 0.131-1.365 0.030-0.149 0.013-0.306 0.028-0.459 0.129-1.241 0.345-1.005 0.443-1.532 0.054-0.292 0.167-0.943 0.298-1.203 0.121-0.239 0.077-0.257 0.236-0.254-0.029 0.162-0.082 0.289-0.121 0.451-0.136 0.562 0.102 0.515 0.070 0.963-0.015 0.228-0.037 0.267 0.033 0.482 0.054 0.166 0.069 0.33-0.010 0.486-0.3 0.586-0.259 0.789-0.090 1.31 0.224 0.693 0.178 1.23-0.007 1.907-0.030 0.111-0.033 0.143-0.029 0.265 0.010 0.326 0.293 0.246 0.554 0.282 0.32 0.045 0.174 0.205 0.939 0.186 0.093-0.173 0.152-0.089-0.216-0.363-0.074-0.055-0.148-0.096-0.216-0.148-0.064-0.049-0.269-0.295-0.298-0.406-0.181-0.692-0.030-0.464 0.022-0.822 0.062-0.427 0.149-1.494 0.144-1.963-0.007-0.605 0.052-0.357 0.073-0.647 0.009-0.116-0.006-0.237 0.014-0.352 0.013-0.077 0.046-0.185 0.067-0.271l0.161-1.258c0.012-0.224 0.004-0.446 0.027-0.671 0.040-0.39-0.122-0.689-0.132-1.269-0.005-0.282-0.098-0.305-0.037-0.627 0.033-0.172 0.023-0.47 0.097-0.608 0.026 0.167 0.078 0.277 0.119 0.435 0.055 0.218 0.043 0.208 0.046 0.437 0.005 0.416 0.108 0.548 0.18 0.889 0.229 1.071 0.161 0.387-0.037 1.295-0.016 0.075-0.053 0.142-0.067 0.203-0.037 0.164 0.017 0.126 0.1 0.16l-0.136 0.099c0.013 0.047 0.011 0.035 0.035 0.066l0.033 0.036c0.002-0.004 0.009 0.008 0.013 0.012 0.383-0.054 0.384-0.247 0.463-0.397 0.075-0.143 0.021-0.587 0.051-0.8 0.004-0.030 0.010-0.89 0.045-1.233 0.013-0.131-0.017-0.266-0.006-0.389-0.018-0.018-0.013-0.011-0.030-0.040-0.109-0.18-0.090-0.575-0.105-0.704-0.042-0.362 0.239-1.155-0.184-1.412-0.124-0.075-0.718-0.391-0.782-0.513-0.11-0.21 0.096-0.478 0.107-0.506 0.015-0.038 0.031-0.117 0.051-0.151 0.075-0.127 0.022 0.077 0.177-0.247 0.135-0.282-0.058-0.111 0.044-0.297 0.069-0.126 0.070-0.171 0.087-0.338 0.033-0.329-0.068-0.439-0.274-0.57 0.032-0.030 0.033-0.033 0.066-0.050l-0.152 0.031c-0.002-0.002-0.004-0.006-0.005-0.007s-0.004-0.006-0.005-0.007l-0.111-0.043z"></path>
</svg>
