<svg xmlns="http://www.w3.org/2000/svg" width="170.559" height="29.759" viewBox="0 0 4512.72 787.38" shape-rendering="geometricPrecision" text-rendering="geometricPrecision" image-rendering="optimizeQuality" fill-rule="evenodd" clip-rule="evenodd"><g fill-rule="nonzero"><path d="M1016.91 641.08H883.76V395.11c0-63.48-23.08-95.06-69.38-95.06-23.67 0-42.84 8.8-57.43 26.53-14.71 17.75-22.06 40.4-22.06 67.67v246.83H601.44V.42h133.45v272.06h1.72c32.76-49.77 77.04-74.72 133.17-74.72 98.1 0 147.13 59.15 147.13 177.45v265.87zm452.34-178.31h-282.33c4.49 62.76 44.16 94.2 118.74 94.2 47.61 0 89.45-11.25 125.51-33.75v96.36c-39.97 21.36-91.9 32.04-155.95 32.04-69.82 0-124.06-19.34-162.73-58.15-38.52-38.67-57.85-92.75-57.85-162 0-71.85 20.78-128.83 62.61-170.81 41.7-41.98 92.91-62.9 153.79-62.9 63.04 0 111.94 18.76 146.43 56.13 34.48 37.5 51.78 88.42 51.78 152.62v56.26zm-123.77-82.09c0-61.88-25.11-92.89-75.3-92.89-21.36 0-39.98 8.79-55.55 26.53-15.72 17.75-25.1 39.97-28.57 66.36h159.42zm294.66 260.4h-133.45V.42h133.45v640.66zm203.91 0h-133.44V.42h133.44v640.66zm276.61 10.54c-72.11 0-128.81-20.2-170.07-60.59-41.26-40.4-61.89-95.36-61.89-164.61 0-71.55 21.35-127.67 64.19-168.07 42.84-40.39 100.85-60.59 173.7-60.59 71.84 0 128.26 20.2 169.09 60.59 40.82 40.4 61.31 93.92 61.31 160.42 0 71.85-21.06 128.68-63.19 170.37-42.12 41.7-99.84 62.48-173.14 62.48zm3.47-351.57c-31.58 0-56.11 10.82-73.58 32.46-17.45 21.78-26.24 52.5-26.24 92.17 0 83.1 33.62 124.65 100.68 124.65 63.92 0 95.95-42.7 95.95-127.96 0-80.93-32.31-121.32-96.81-121.32z"/><path d="M2333.85 785.67c-8.38 0-15.56-2.9-21.36-8.81-5.91-5.78-8.8-12.98-8.8-21.36 0-8.48 2.89-15.77 8.58-21.57 5.8-5.9 13-8.8 21.58-8.8 4.18 0 8.06.75 11.7 2.35 3.65 1.62 6.88 3.66 9.56 6.23 2.79 2.69 4.94 5.8 6.65 9.56 1.61 3.86 2.48 7.94 2.48 12.23 0 4.19-.87 8.16-2.48 11.81-1.71 3.66-3.86 6.87-6.65 9.55-2.68 2.7-5.91 4.83-9.56 6.45-3.64 1.61-7.52 2.36-11.7 2.36zm504.14-6.44V589.66c0-19.22-1.49-35.53-4.39-48.95-2.9-13.32-7.51-24.15-13.64-32.53-6.23-8.37-14.05-14.49-23.51-18.25-9.55-3.76-20.93-5.69-34.14-5.69-11.69 0-22.75 2.79-33.27 8.37-10.41 5.58-19.54 13.21-27.47 22.97-7.84 9.77-13.96 21.25-18.48 34.47-4.5 13.21-6.75 27.47-6.75 42.83v186.35h-40.59V585.57c0-67.52-25.76-101.33-77.38-101.33-11.92 0-22.97 2.68-33.18 8.06-10.31 5.36-19.21 12.76-26.83 22.42-7.62 9.66-13.54 21.27-17.83 34.89-4.28 13.54-6.43 28.45-6.43 44.77v184.85h-40.58V457.19h40.58v52.17h1.28c22.65-39.94 55.61-59.9 98.98-59.9 11.26 0 22 1.72 32.09 5.16 9.98 3.54 19 8.37 26.95 14.49 8.05 6.22 14.8 13.62 20.61 22.22 5.8 8.68 10.08 18.14 13.09 28.44 11.27-22.97 25.98-40.36 44.13-52.39 18.14-11.92 38.63-17.92 61.39-17.92 70.64 0 105.95 43.58 105.95 130.86v198.91h-40.58zm245.57 7.73c-23.84 0-45.31-3.97-64.2-11.92-19.01-8.04-35.22-19.32-48.63-33.92-13.42-14.59-23.61-31.98-30.7-52.39-7.2-20.4-10.74-42.93-10.74-67.74 0-26.83 3.76-50.87 11.27-72.02 7.62-21.25 18.36-39.19 32.21-53.99 13.96-14.82 30.81-26.09 50.44-33.82 19.76-7.83 41.76-11.7 66.02-11.7 23.3 0 44.24 3.87 62.8 11.49 18.68 7.62 34.47 18.79 47.45 33.17 12.99 14.49 22.98 32.21 29.85 52.92 6.97 20.83 10.41 44.44 10.41 70.85 0 25.23-3.66 48.09-10.84 68.81-7.2 20.71-17.5 38.43-30.92 53.34-13.42 14.93-29.73 26.41-49.05 34.67-19.23 8.17-41.01 12.25-65.37 12.25zm3.21-302.72c-17.72 0-33.6 3.01-47.87 9.12-14.29 6.12-26.52 14.93-36.71 26.63-10.21 11.59-18.05 25.87-23.52 42.83-5.48 16.85-8.16 36.06-8.16 57.44 0 20.18 2.68 38.3 8.16 54.41 5.47 16.21 13.2 30.06 23.19 41.65 9.99 11.49 22.11 20.4 36.39 26.51 14.27 6.23 30.16 9.35 47.88 9.35 18.03 0 34.02-3.01 47.87-9.02 13.85-5.91 25.55-14.6 35.2-26.09 9.68-11.48 16.97-25.43 21.91-42.07 4.94-16.53 7.4-35.43 7.4-56.69 0-43.36-9.66-76.63-28.98-99.6-19.31-22.98-46.91-34.47-82.76-34.47zm429 294.99V593.52c0-72.89-26.3-109.28-79-109.28-13.96 0-26.96 2.79-38.87 8.37-11.91 5.58-22.22 13.21-30.91 23.08-8.59 9.88-15.46 21.58-20.29 35.1-4.94 13.53-7.4 28.24-7.4 43.91v184.53h-40.59V457.19h40.59v55.82h1.28c23.84-42.4 59.79-63.55 107.67-63.55 35.2 0 62.05 11.38 80.5 34.25 18.37 22.86 27.6 55.91 27.6 99.18v196.34h-40.58zm96.44-57.86c6.11 4.83 12.67 9.12 19.76 12.89 7.07 3.74 14.49 6.97 22 9.77 7.51 2.68 15.02 4.72 22.75 6.11 7.62 1.4 14.82 2.04 21.8 2.04 47.65 0 71.49-17.92 71.49-53.68 0-8.15-1.71-15.24-5.05-21.24-3.33-6.03-8.16-11.5-14.38-16.44-6.34-4.94-13.85-9.44-22.65-13.62-8.81-4.19-18.78-8.6-29.85-13.21-14.92-6.11-27.7-12.34-38.42-18.56-10.63-6.34-19.43-13.22-26.41-20.62-6.87-7.52-12.03-15.67-15.35-24.59-3.32-8.91-5.05-19.1-5.05-30.38 0-14.27 3.12-27.05 9.24-38.1 6.22-11.17 14.49-20.61 24.9-28.34 10.52-7.73 22.55-13.75 36.17-17.83 13.74-4.07 28.12-6.11 43.16-6.11 27.8 0 51.95 5.27 72.66 15.68v42.4c-24.03-15.57-50.02-23.3-77.82-23.3-9.97 0-19.1 1.28-27.36 3.76-8.27 2.57-15.36 6.12-21.27 10.73-5.78 4.62-10.41 10.21-13.62 16.64-3.23 6.44-4.83 13.53-4.83 21.26 0 8.04 1.28 15.02 3.74 20.93 2.59 6.01 6.45 11.48 11.81 16.31 5.38 4.72 12.25 9.35 20.73 13.85 8.47 4.4 18.79 9.12 31.02 14.17 15.46 6.23 28.87 12.45 40.14 18.68 11.39 6.22 20.72 12.89 28.02 20.18 7.3 7.2 12.78 15.24 16.33 24.26 3.53 8.91 5.36 19.22 5.36 30.92 0 14.49-3.01 27.47-8.91 38.75-6.02 11.38-14.28 20.93-24.8 28.66-10.52 7.74-22.98 13.63-37.14 17.61-14.17 3.97-29.63 6.01-46.38 6.01-32.41 0-59.68-6.87-81.79-20.51v-45.08zm394.66 53.89c-13.85 6.98-28.89 10.41-45.2 10.41-51.85 0-77.82-29.95-77.82-89.85V492.61h-56.69v-35.42h56.69v-80.84l40.57-13.2v94.04h82.45v35.42h-82.45v196.77c0 21.79 3.54 37.46 10.63 47.12 7.09 9.56 19 14.39 35.95 14.39 12.46 0 24.37-3.76 35.87-11.27v35.64zm57.58-149.97c.22 19.76 2.79 37.46 7.84 53.25 5.05 15.67 12.23 29.09 21.69 39.93 9.44 10.96 20.93 19.33 34.45 25.01 13.53 5.8 28.77 8.7 45.72 8.7 36.29 0 70.54-12.67 102.85-38.11v39.82c-30.81 22.01-68.16 33.07-111.96 33.07-21.58 0-41.22-3.76-58.83-11.38-17.61-7.52-32.53-18.46-44.98-32.86-12.34-14.38-21.9-32.08-28.55-53.01-6.76-21.05-10.1-44.99-10.1-71.82 0-24.15 3.65-46.48 10.96-67.1 7.4-20.5 17.48-38.31 30.48-53.35 13.1-15.02 28.45-26.72 46.26-35.2 17.83-8.49 37.26-12.78 58.4-12.78 20.82 0 39.08 3.65 55.07 10.85 15.89 7.29 29.31 17.59 40.05 31.02 10.84 13.42 18.99 29.73 24.68 49.05 5.69 19.33 8.49 40.91 8.49 64.73v20.18h-232.52zm191.29-35.42c-.64-33.5-8.59-59.47-23.93-77.94-15.35-18.46-36.72-27.69-63.98-27.69-13.64 0-26.31 2.37-38.01 7.2-11.59 4.83-21.89 11.8-30.7 20.93-8.8 9.13-16.11 20.29-21.89 33.39-5.8 13.09-9.77 27.8-12.14 44.11h190.65zm257.67-91.35c-9.44-6.97-21.58-10.41-36.49-10.41-10.63 0-20.07 2.04-28.24 6.12-8.26 4.07-15.35 9.55-21.58 16.53-6.22 6.86-11.37 14.92-15.66 24.03-4.41 9.13-7.84 18.59-10.42 28.47-2.68 9.86-4.51 19.85-5.69 29.84-1.17 10.08-1.71 19.63-1.71 28.65v157.48h-39.94V457.19h39.94v69.03h1.29c3.75-11.7 8.48-22.33 14.27-31.57 5.8-9.33 12.45-17.28 19.96-23.61 7.53-6.45 15.79-11.28 24.7-14.6 8.9-3.33 18.25-5.05 28.13-5.05 6.54 0 12.34.44 17.48 1.28 5.05.76 9.77 2.06 13.96 3.77v42.08z" fill="#693698"/><path d="M358.67 641.08h-69.39V391.64c0-90.15-33.48-135.17-100.56-135.17-33.74 0-62.32 12.99-85.4 39.1-23.08 26.12-34.62 59.58-34.62 100.4v245.11H-.69V.42H68.7v279.71h1.74c33.18-54.67 80.49-81.93 141.94-81.93 97.52 0 146.29 58.71 146.29 176.15v266.73zM482.94 98.36c-12.26 0-22.92-4.19-31.58-12.68-8.81-8.38-13.14-19.06-13.14-32.04s4.33-23.8 13.14-32.3c8.66-8.66 19.32-12.99 31.58-12.99 12.7 0 23.52 4.33 32.46 12.99 8.8 8.5 13.28 19.32 13.28 32.3 0 12.4-4.48 22.94-13.28 31.6-8.94 8.79-19.76 13.12-32.46 13.12zm33.91 542.72h-69.39V208.3h69.39v432.78z" fill="#50c987"/></g></svg>