<svg xmlns="http://www.w3.org/2000/svg" width="152" height="44.159" viewBox="0 0 4021.66 1168.38" shape-rendering="geometricPrecision" text-rendering="geometricPrecision" image-rendering="optimizeQuality" fill-rule="evenodd" clip-rule="evenodd"><defs><style>.fil0{fill:#000}</style></defs><g id="Capa_x0020_1"><path class="fil0" d="M2190.07 672.41c.8 66.45-21.82 122.76-67.97 169.08-46.07 46.23-102.63 69.6-169.57 69.96l-149.15 1.25V435.23l147.96-.03c66.14 0 122.26 23.01 168.41 69.08 46.07 46.07 69.6 102.1 70.32 168.19v-.06zm-81.18.58c-.44-43.96-15.75-81.09-46.01-111.35-30.26-30.18-67.47-45.35-111.57-45.35h-66.7v313.87l67.31.03c44.1-.36 81.39-15.75 111.85-45.93 30.48-30.26 45.48-67.39 45.12-111.35v.08zm248.62 6.73c-22.04 0-40.86 7.75-56.48 23.15-15.61 15.39-23.45 34.13-23.45 56.11v151.86h-81.14V758.98c0-44.82 15.61-82.69 46.87-113.76 31.26-31.06 69.38-46.51 114.2-46.51V679.72zM2725.9 910.9h-86.3l-17-46.88c-32.09 37.66-72.95 56.48-122.76 56.48-44.9 0-82.92-15.61-113.98-46.87-31.06-31.26-46.59-69.16-46.59-113.62 0-34.14 9.66-64.84 28.93-92.3 19.27-27.47 44.9-47.04 76.91-58.67 18.91-6.81 37.29-10.24 55.31-10.24 34.06 0 64.84 9.74 92.31 29.15 27.46 19.41 46.95 45.18 58.61 77.27l74.56 205.7v-.02zm-146.13-151.25c0-28.21-11.43-50.11-34.27-65.7-13.18-9.38-28.44-13.98-45.71-13.98-28.05 0-49.75 11.21-64.9 33.78-9.66 14.2-14.5 29.37-14.5 45.93 0 27.77 11.43 49.53 34.27 65.11 13.98 9.67 29.07 14.51 45.13 14.51 22.04 0 40.86-7.7 56.48-23.23 15.67-15.45 23.5-34.27 23.5-56.39v-.03zm451.31 231.17c0 57.81-23.68 102.28-70.91 133.53-27.32 18.03-57.14 27.02-89.59 27.02-56.98 0-101.44-23.81-133.53-71.56-18.38-27.61-27.6-57.37-27.6-89.01 0-20.8 3.96-40.87 12.02-60.14l75.16 30.1c-3.96 9.6-6 19.63-6 30.04 0 22.03 7.83 40.81 23.45 56.25 15.61 15.45 34.49 23.15 56.56 23.15 21.68 0 40.28-7.84 55.89-23.59 15.62-15.75 23.45-34.36 23.45-56.12 0-35.38-16.63-60.13-49.8-74.28-10.02 2.41-19.94 3.6-29.96 3.6-45.18 0-83.28-15.53-114.28-46.59-31.01-31.07-46.52-69.22-46.52-114.57 0-44.9 15.54-82.92 46.65-113.9 31.12-30.98 69.16-46.59 113.85-46.59l46.87-111.27 64.23 27.24-42.72 99.62c28.27 13.62 50.83 33.41 67.53 59.55 16.69 26.13 25.19 54.51 25.19 85.32 0 45.71-16.64 84.17-49.89 115.51 33.33 31.64 49.89 70.54 49.89 116.61l.06.08zm-81.18-232.14c0-21.68-7.83-40.28-23.45-55.9-15.61-15.61-34.27-23.45-55.9-23.45-22.03 0-40.86 7.7-56.56 23.15-15.7 15.45-23.45 34.22-23.45 56.17 0 22.04 7.84 40.87 23.45 56.56 15.62 15.7 34.5 23.45 56.56 23.45 22.04 0 40.81-7.83 56.18-23.45 15.36-15.61 23.14-34.49 23.14-56.56l.03.03zm340.12-159.91L3141.46 910.9l-150.31-312.13h96.24l54.71 128.04 54.7-128.04h93.27-.05zm282.31 160.08c0 7.91-.58 15.97-1.83 23.94h-235.16c5.21 16.86 14.79 30.4 28.85 40.59 14.06 10.19 29.9 15.39 47.48 15.39 24.47 0 44.68-9.44 60.71-28.26l49.31 65.56c-30.84 29.23-67.52 43.88-110.1 43.88-45.27 0-83.5-15.53-114.48-46.51-30.98-30.98-46.6-69.16-46.6-114.34 0-44.83 15.62-82.7 46.87-113.76 31.26-31.07 69.38-46.52 114.21-46.52 44.9 0 82.92 15.45 113.98 46.38 31.06 30.92 46.59 68.85 46.59 113.67l.17-.02zm-90.84-36.8c-14.78-28.04-38.09-42.11-69.74-42.11-32.08 0-55.53 14.07-70.32 42.11h140.15-.09zm317.83 96.62c0 19.27-6.45 36.72-19.26 52.39-25.64 31.34-62.13 46.43-109.45 45.18-18.82-.44-39.39-4.62-61.6-12.6-22.2-7.97-40.45-18.02-54.43-30.09l45.13-58.31c21.68 20.43 44.69 30.71 69.16 30.71l1.83-.03c10.02 0 19.04-1.83 27.02-5.43 10.41-4.84 15.67-11.65 15.67-20.43v-2.41c-1.25-9.22-7.39-15.84-18.69-19.85-4.4-.8-13.76-2.57-28.21-5.43-18.02-3.6-33.33-7.97-45.71-13.17-36.49-15.67-54.71-43.14-54.71-82.42 0-37.74 18.61-65.92 55.9-84.75 16.42-8.42 34.28-12.82 53.54-13.26 20.08-.45 40.87 2.99 62.49 10.24 24.92 8.42 42.55 19.41 52.96 33.03l-54.12 48.7c-14.07-14.42-29.29-21.68-45.71-21.68-25.64 0-38.46 8.42-38.46 25.33v1.25c0 7.97 10.41 14.78 31.29 20.43 1.6.36 14.78 2.99 39.7 7.84 50.47 9.74 75.75 40.58 75.75 92.88v1.83l-.09.05zm144.03 92.23c-44.91 0-83.01-15.54-114.29-46.52-31.29-30.98-46.87-69.07-46.87-113.84V435.26l81.23.02v163.57h80.01v69.16h-80.01v82.42c0 22.04 7.83 40.81 23.45 56.26 15.61 15.45 34.49 23.14 56.48 23.14v81.18-.11zm70.1-381.26c0 13.62-4.54 25.14-13.76 34.58-9.22 9.44-20.66 14.14-34.28 14.14-13.62 0-25.14-4.76-34.58-14.14-9.44-9.39-14.15-20.96-14.15-34.58 0-13.62 4.77-25.06 14.15-34.28 9.39-9.22 20.96-13.76 34.58-13.76 13.26 0 24.61 4.68 34 14.15 9.38 9.47 14.15 20.74 14.15 34l-.11-.11zm-7.26 381.26h-81.17V598.77h81.17V910.9z"/><g id="_2771134453328"><path class="fil0" d="M439 583.21c1.42-17.5 12.22-32.27 26.97-36.09-11.64 13.46-6.58 13.35-10.93 20.93-1.47 2.57-12.93 13.45-16.1 15.21l.06-.05zm164.42-44.41c3.18-3.82 7.06-5.58 11.53-9 3.53-2.71 7.39-6.4 11.57-8.22l1.46 15.53-24.56 1.71v-.02zm-240.04 66.27c1.71-18.1 1.11-21.03 8.64-42.13 5.11-14.35 14.35-28.03 23.85-32.92-13.39 17.28-27.85 50.66-16.57 69.41 1.42-24.28 4-46.02 25.28-52.2-7 12.04-14.99 23.15-12.22 41.96 3-4.29 1.11-1.42 2.25-6.71 2.93-13.52 11.46-28.63 25.74-32.38-10.71 14.17-14 15.57-8.89 38.84 5.53-9.88 1-15.16 20.75-28.45-.43 10.35 2.06 18.17 2 25.63-6.11 4-5.29 3.18-11.46 5.89-4.58 2-5.71 3.58-10.4 5.57-7.28 3.07-16.5 4.76-23.1 10.04-21.03 16.99-25.56 77.87-32.96-6.99-1.71-19.57-1.46-32.67 8.22-45.71-1.53 8.28-5.22 15.68-5.53 26.81-.18 5.7.65 24.2 2.89 28.62l1.46-5.39.05.11zm313.78 34.13v-2.28c-1.89-3.36-2.18-5.64-2.89-10.29-1.35-8.99-1.18-4.82-3.35-11.03-4.07-11.53 5.06-10.75 1.71-21.64-6.58-20.98-5-28.38-6.64-49.7-9-8.71-5.93-9.88-21.64-8.82 3.18-19.1 3.89-23.85-10.52-33.6-9.47-.76-18.68 5-28.97 6.06-4.35-17.81-21.16-14.46-25.09-33.85-2.25-11.1-9.57-44.77-3.76-53.83 9.53-.82 3 5.11 15.75 1.29 5.29-1.58 11.46-2.11 17.5-2.65l5.47 6.89c4.93-2.07 2.24-2.29 6.75-3.53 3.53-1 7.22-.43 11.21-.65 1.18-10.04 5.29-17.21 5.71-24.21-9.39-3.99-12.92-10.57-22.1-16.39-7.99-5.06-18.16-11.63-21.92-18.85 6.89-3.65 7.35-4.4 7.82-13.93-5.58 3.36-7.93 5.89-14.68 8.22 8.04-19.81 31.56-55.59 35.78-73.34l-7.71 8.93c-6.57 10.22-30.74 45.38-37.67 51.95-3.35 3.18-5.75 2.29-10.46 5.46-3.35-5.28-5.46-4.82-12.1-7.35-7.46-2.89-7.29-4.06-11.28-8.53-7.29 9-1.47 17.22 5.99 22.39-13.74 4.24-27.67-8.57-38.55 13.68 6.7-2.46 9.28-4.82 19.45-4-13.92 6.11-14.68 2.18-29.14 14.93-5.06 4.46-16.39 13.28-23.27 6.57-5.93-5.75 4-2.88-4.07-4.93-6.88 16.82 10.29 14.28 22.21 11.53-3.39 2.93-7.06 4.75-10.46 7.35-4.53 3.4-6.75 4.29-9.35 9.64 8.75-4 15.17-8.93 26.81-9.11-10.39 6.29-23.5 12.04-33.67 19.46-8.04 5.89-21.85 18.21-24.81 30.74 6.29-4.11 10.11-12.64 19.99-19.57 7.57-5.4 18.86-8.88 29.74-8.93-13.04 7.22-23.68 14.99-27.74 29.74 11.17-8.88 7.82-12.75 26.81-16.74-9.4 10.81-24.92 17.5-29.68 37.49l-10.46-2.07c.29.24.71.29.83.89.11.6.64.75.82 1l7.22 6.06c3.82 1.82 9.39.53 13.34-.11-4.82 6-8.75 9.75-5.11 21.1 6.36-14.22 2.4-15.64 20.93-19.39-.43 10.93-12.35 20.57-11 42.55-12.86-8.92-68.8-71.69-36.2-98.01-5.64 14.11-8.64 30.32.76 43.13-5.18-17.5-.71-22.98 4.1-38.02 18.35-57.12-69.62-26.21-90.37-16.39 9.53-11.22 27.45-16.35 45.78-19.81-21.17-2.76-59.3 10.93-82.91 12.75-23.28 1.82-46.02-3.65-62.59-19.28l-8.39-6.64c3.35 12.46 16.85 26.27 24.96 31.85 12.46 8.53 28.56 11.52 46.24 11.21-36.13 11.22-118.75-12.03-151.31-42.2-5.22-4.88-9.4-11.28-15.53-15.52 8.58 30.21 54.31 48.84 83.27 57.77 11.57 3.57 27.56 5.93 38.13 9.57-26.5-1.29-54.84-10.93-77.73-22.32-9.29-4.58-14.93-9.17-23.21-13.1 2 5.99-1.07.64 3.24 5.88 3.75 4.53 7.88 6.53 12.7 10.4 17.22 13.85 45.96 21.38 68.34 24.27-12.92 1.58-24.49-3.11-36.38-4.18l23.32 8.53c38.56 10.35 56.99 2.58 91.84-.29-46.95 20.46-132.28 10-179.94-5.93-26.74-8.92-50.48-18.85-71.98-32.13-11.71-7.22-19.86-13.04-30.21-21.75-8.22-6.93-20.16-21.1-27.92-26.2 7.22 20.67 25.46 30.73 40.67 42.42 50.3 38.42 121.46 62.47 188.52 63.94-31.45 7.35-91.33-9.22-117.76-20.63-16.75-7.22-30.92-14.4-46.24-23.1-7.57-4.29-14.21-8.93-21.28-13.39-6.64-4.25-15.46-11.93-21.81-15 8.04 21.04 60.12 47.84 80.91 58.66-9.75-1.42-18.92-6.4-27.2-10.46-10-4.89-16.75-11.11-26.1-14.81 4.71 11.7 25.74 22.56 36.02 28.2 16.11 8.75 28.63 11.53 45.84 15.39-17.56 4.07-27.62-5.28-41.06-8.28l5.35 4.57c2.64 1.71 3 1.54 5.64 2.94 35.32 18.74 67.99 20.98 108.61 17.81 30.85-2.4 61.76-8.11 89.9-20.28 8.82-3.82 17.57-8.88 25.85-12.1-25.56 19.1-93.83 47.24-129.92 55.23-25.21 5.64-33.67 3.58-56.66-2.82l1.47 2.71c2.4 3.75 4.46 6.57 8.57 8.53 4.24 2 12.1 2.82 17.17 3.06 22.63.94 45.42-4.82 66.29-11.75 10.35-3.39 20.39-8.46 29.21-11.28-29.67 17.35-58.7 31.67-102.79 28.92l9.35 9.39c12.71 8.93 24.5 13.75 40.74 7.22 16.85-6.82 30.96-17.34 46.88-25.85-8.28 11.53-27.03 20.81-40.31 27.78-4.58 2.4-3.29 1.18-6.53 4.53 37.31-3.7 98.14-64.51 106.43-69.44-12.22 18.92-23.03 25.14-32.78 51.48-5.71 15.46-12.22 28.78-26.81 34.96-5.17 2.24-12.35 2.39-16.35 6.57 8.93 3.06 18.17 7.82 30.14 6.82l16.39-23.68c2.89-4.88 11.86-22.74 12.4-26.45-.11 11.39-11.46 35.85-15.82 46.49 22.5-13.04 21.57-53.31 41.25-69.05-10.58 20.03-13.22 24.14-15.86 51.3-.89 8.82-3.36 18.86-8.04 24.92-8.93 11.64-13.64 7.71-20.03 13.81 10.81.65 16.99 4.36 24.63-2.11 17.16-14.39 9.63-44.3 26.2-62.69-8.57 21.98-13.92 32.73-11.86 58.81 1 12.46 1.25 22.1 3.58 34.38 1.93 10.1 5.29 20.67 6.88 30.02-56.05.54-33.02 27.28-43.95 69.41-4.57 17.63-12.28 24.28-20.63 35.67-20.28 27.56-11.4 13.21-24.97 25.5-4.53 4.06-1.53-.18-3.93 5.46 7.82-3.4 12.64-7.82 21.46-10.57-4.07 9.17-9.53 16.99-15.46 24.63-4.06 5.22-3.89 5.46-9.64 10.57-3.17 2.82-8.22 7.75-11.28 10.75 13.1-3.11 20.32-14.35 27.67-22.21-4.06 10.7-10.93 19.32-19.74 25.45-3.89 2.71-7.06 4-9.75 7.53 25.38-6.71 31.96-27.38 46.66-44.77-1.47 12.46-8.17 22.63-16.46 30.27l-8.75 8.28c21.5-6.57 36.14-33.67 43.78-53.59-.94 14.81-8.71 26.92-17.93 36.42-4.57 4.71-6.81 4.25-8.52 12.11l3.99-3.58c1.76-1.57 1.11-1.11 3.18-2.75 2.24-1.76 3.82-3 6.28-5.18 14.22-12.63 19.57-28.62 25.97-47.19.82 16.5-5.07 20.68-7 32.27 1.53-1.29 1.07-.76 2.58-2.58 12.46-14.86 17.17-42.55 18.45-60.99 2.36 18.22-1.35 28.32-5.28 44.31 5.06-3.28 4.88-4.93 6.88-11.28 1.71-5.35 2.58-8.17 3.36-13.93 2.88-22.32-6.35-40.19-7-61.69-.42-14.46 3.4-16.17 14.46-19.99-3.29 15.46-6.53 33.85 1.11 49.24 8.17 16.5 13.64 22.98 2.18 42.02-3.07 5.06-4.4 6.28-8.53 10.21l-10.93 9.64c-.24 10.71 7.17 25.03 8.88 37.67 1.71 12.86 2.18 34.74 3.82 44.06-1.88 1.89-3.17.76-3.93 2.4-1.82 4.07 4.47-1.11-2.06 3.53 10.1 2.58-1.07 1.36 9.39 2.82-3.35 23.1 13.22 21.21 30.61 19.5-10.04-20.63-15.46-14.34-20.68-37.2-2.89-12.57-6.4-39.2-4.93-52.41 1.07-9.11 7.06-11.22 12.75-15.68 6.82-5.29 9.53-7.46 14.68-14.39 7.88-10.53 17.21-20.32 19.28-37.85 29.45 18.46-18.57 43.73-16.04 57.66 3.29 6.46 10.17 9.88 15.1 14.39 10.35 9.53 19.82 21.39 27.92 32.78 6.89 9.64 6.22 9.11 5.22 22.86l4.93-1.47c1.89.18 3.07 1.11 4.89 2.35-1.42 5.64-2.93 7.89-2.89 14.46 9.64 7.22 18.99 9.89 32.92 6.53.46-11.7-54.24-62.94-54.42-84.62-.11-13.81 15.28-22.1 23.63-28.56 5.07-3.93 5.18-4.46 9.71-9.1 11.28-11.46 11.7-19.93 20.03-32.21 3.24-4.75 6.46-5.28 7.82-11.28 2.11-9.4-4-20.03-6.29-28.39-6.93-25.96 25.57-21.38 54.24-50.41 10.22-10.35 22.63-27.27 31.2-39.67 20.28-29.27 12-13.21 26.68-19.32 4.82-2 7.88-4.46 12.52-7.11-.57 9.82-.53 15.35 1.83 23.86l33.13-28.79c2.58-4.35 1.82-10.99 5.4-16.03 14.04.06 16.39 21.63 17.46 35.91-5.4 4.06-2.29 2.53-3.07 4.11-.58 1.24-2.11 1-3.82 4.11 5.18 4.57 13.1 6.57 5.06 13.03-1.75 1.43-3.39 2.07-4.81 4.11-9.58 14.46 10.34 22.64 23.92 23.28l.22-.25z"/><path class="fil0" d="M730.99 312.72l-70.22 76.98c-9.11 9.71-18.68 14.99-23.32 27.5 37.73 31.85 61.81 104.43 46.48 172.41-13.81 61.34-49.37 115.47-37.91 185.41 10.17 61.98 50.53 111.29 96.19 131.1 39.84 17.28 136.39 8.57 169.77 59.12 15.68-5.22 15.1-22.38 66.45-37.49 26.81-7.88 59.06-9.81 87.33-15.03 51.7-9.64 89.73-56.35 107.72-99.84 40.84-98.96-28.45-173.41-32.1-254.1-1.75-39.2 5.22-56.83 14.4-89.9 5.17-11.46 10.63-21.32 16.81-30.21 6.46-9.17 13.35-15.56 18.81-24.03L1120 336.2c-7.07-8.29-16.28-16.64-23.86-24.45-4.57 2.24.29-1.07-5.35 3.64-1.36 1.18-2.89 2.82-4.4 4.35-21.67 22.32-51.59 30.21-84.15 28.32-52.59-3-73.91-33.85-90.02-38.6-16.5 20.74-50.48 38.09-88.97 38.78-19.5.35-38.09-3.18-53.88-10.71-32.56-15.46-23.56-24.38-38.38-24.74v-.07zM665.47 417.8c7.82-14.99 37.56-41.78 50.84-56.59 6.11-6.82 10.57-13.46 17.04-19.33 12.39 5.58 20.27 15.11 39.02 22.04 17.92 6.57 32.96 8.64 53.13 8.21 43.06-.88 61.94-17.21 89.43-33.38 29.21 17.86 47.95 32.27 89.44 33.43 19.5.58 36.49-1.93 52.95-8.4 22.68-8.88 29.32-17.81 38.73-21.92l68.12 72.87c-5.71 16.64-18.17 23.74-33.6 74.63-8.71 28.62-10.64 65.58-5.64 96.25 11.63 71.87 80.22 159.25 13.1 251.79-43.84 60.53-65.3 50.6-148.49 65.52-53.31 9.57-54.17 21.86-74.58 32.96-25.28-17.03-35.78-26.21-74.52-32.85-24.96-4.35-68.98-8.88-90.37-16.81-43.42-16.1-81.8-68.27-87.44-126.04-10.1-102.25 104.12-176.41 2.93-342.36l-.09-.02z"/><path class="fil0" d="M1391.31 583.21c-1.42-17.5-12.22-32.27-27.03-36.09 11.64 13.46 6.57 13.35 10.93 20.93 1.46 2.57 12.92 13.45 16.1 15.21v-.05zm-164.35-44.41c-3.18-3.82-7.11-5.58-11.53-9-3.53-2.71-7.4-6.4-11.53-8.22l-1.46 15.53 24.56 1.71-.04-.02zM1467 605.07c-1.71-18.1-1.11-21.03-8.64-42.13-5.06-14.35-14.35-28.03-23.81-32.92 13.39 17.28 27.85 50.66 16.5 69.41-1.42-24.28-4-46.02-25.27-52.2 6.99 12.04 14.92 23.15 12.21 41.96-3.06-4.29-1.11-1.42-2.28-6.71-2.94-13.52-11.4-28.63-25.68-32.38 10.71 14.17 13.93 15.57 8.88 38.84-5.57-9.88-.99-15.16-20.81-28.45.43 10.35-2.06 18.17-1.99 25.63 6.1 4 5.28 3.18 11.46 5.89 4.57 2 5.7 3.58 10.39 5.57 7.28 3.07 16.5 4.76 23.1 10.04 21.03 16.99 25.56 77.87 32.96-6.99 1.71-19.57 1.46-32.67-8.22-45.71 1.53 8.28 5.22 15.68 5.53 26.81.11 5.7-.64 24.2-2.89 28.62l-1.46-5.39.02.11zm-313.85 34.13v-2.28c1.89-3.36 2.18-5.64 2.89-10.29 1.36-8.99 1.11-4.82 3.36-11.03 4.06-11.53-5.07-10.75-1.65-21.64 6.58-20.98 4.93-28.38 6.64-49.7 9-8.71 5.93-9.88 21.68-8.82-3.18-19.1-3.89-23.85 10.53-33.6 9.46-.76 18.74 5 29.02 6.06 4.36-17.81 21.1-14.46 25.1-33.85 2.29-11.1 9.57-44.77 3.75-53.83-9.52-.82-2.99 5.11-15.68 1.29-5.35-1.58-11.52-2.11-17.5-2.65l-5.46 6.89c-4.93-2.07-2.24-2.29-6.75-3.53-3.53-1-7.22-.43-11.22-.65-1.17-10.04-5.28-17.21-5.71-24.21 9.4-3.99 12.93-10.57 22.1-16.39 8-5.06 18.17-11.63 21.92-18.85-6.81-3.65-7.35-4.4-7.81-13.93 5.57 3.36 7.93 5.89 14.68 8.22-8.04-19.81-31.56-55.59-35.78-73.34l7.7 8.93c6.58 10.22 30.74 45.38 37.6 51.95 3.36 3.18 5.82 2.29 10.47 5.46 3.35-5.28 5.46-4.82 12.1-7.35 7.46-2.89 7.22-4.06 11.28-8.53 7.22 9 1.47 17.22-6.06 22.39 13.75 4.24 27.67-8.57 38.6 13.68-6.71-2.46-9.22-4.82-19.5-4 13.99 6.11 14.68 2.18 29.2 14.93 5.07 4.46 16.4 13.28 23.33 6.57 5.93-5.75-4-2.88 4.06-4.93 6.88 16.82-10.35 14.28-22.21 11.53 3.35 2.93 7.06 4.75 10.46 7.35 4.53 3.4 6.75 4.29 9.35 9.64-8.75-4-15.1-8.93-26.81-9.11 10.46 6.29 23.5 12.04 33.67 19.46 8.04 5.89 21.86 18.21 24.75 30.74-6.22-4.11-10.11-12.64-19.99-19.57-7.58-5.4-18.86-8.88-29.68-8.93 13.04 7.22 23.68 14.99 27.74 29.74-11.17-8.88-7.81-12.75-26.8-16.74 9.39 10.81 24.96 17.5 29.74 37.49l10.39-2.07c-.29.24-.64.29-.82.89-.18.6-.58.75-.82 1l-7.18 6.06c-3.82 1.82-9.39.53-13.35-.11 4.82 6 8.76 9.75 5.07 21.1-6.35-14.22-2.4-15.64-20.86-19.39.43 10.93 12.35 20.57 11 42.55 12.86-8.92 68.8-71.69 36.13-98.01 5.64 14.11 8.64 30.32-.75 43.13 5.17-17.5.75-22.98-4.11-38.02-18.28-57.12 69.69-26.21 90.37-16.39-9.53-11.22-27.45-16.35-45.77-19.81 21.16-2.76 59.34 10.93 82.9 12.75 23.28 1.82 46.02-3.65 62.59-19.28l8.4-6.64c-3.29 12.46-16.86 26.27-24.97 31.85-12.46 8.53-28.56 11.52-46.24 11.21 36.09 11.22 118.71-12.03 151.25-42.2 5.22-4.88 9.46-11.28 15.52-15.52-8.57 30.21-54.3 48.84-83.26 57.77-11.57 3.57-27.56 5.93-38.13 9.57 26.49-1.29 54.83-10.93 77.73-22.32 9.28-4.58 14.99-9.17 23.21-13.1-2 5.99 1.07.64-3.24 5.88-3.76 4.53-7.89 6.53-12.64 10.4-17.21 13.85-46.02 21.38-68.34 24.27 12.86 1.58 24.45-3.11 36.38-4.18l-23.39 8.53c-38.49 10.35-56.94 2.58-91.79-.29 46.95 20.46 132.28 10 179.94-5.93 26.74-8.92 50.42-18.85 71.94-32.13 11.7-7.22 19.86-13.04 30.27-21.75 8.22-6.93 20.1-21.1 27.92-26.2-7.29 20.67-25.45 30.73-40.73 42.42-50.31 38.42-121.4 62.47-188.52 63.94 31.45 7.35 91.33-9.22 117.76-20.63 16.74-7.22 30.91-14.4 46.24-23.1 7.57-4.29 14.21-8.93 21.32-13.39 6.64-4.25 15.46-11.93 21.81-15-8.04 21.04-60.12 47.84-80.91 58.66 9.75-1.42 18.92-6.4 27.21-10.46 9.92-4.89 16.68-11.11 26.09-14.81-4.75 11.7-25.74 22.56-36.02 28.2-16.1 8.75-28.63 11.53-45.84 15.39 17.5 4.07 27.63-5.28 41.06-8.28l-5.39 4.57c-2.65 1.71-3 1.54-5.65 2.94-35.31 18.74-67.98 20.98-108.6 17.81-30.85-2.4-61.77-8.11-89.91-20.28-8.75-3.82-17.56-8.88-25.85-12.1 25.57 19.1 93.91 47.24 129.93 55.23 25.27 5.64 33.67 3.58 56.66-2.82l-1.47 2.71c-2.35 3.75-4.46 6.57-8.57 8.53-4.24 2-12.11 2.82-17.1 3.06-22.57.89-45.42-4.82-66.3-11.75-10.35-3.39-20.39-8.46-29.21-11.28 29.68 17.35 58.7 31.67 102.72 28.92l-9.28 9.39c-12.75 8.93-24.5 13.75-40.73 7.22-16.86-6.82-30.96-17.34-46.89-25.85 8.22 11.53 26.97 20.81 40.31 27.78 4.53 2.4 3.25 1.18 6.53 4.53-37.31-3.7-98.19-64.51-106.47-69.44 12.28 18.92 23.1 25.14 32.78 51.48 5.71 15.46 12.28 28.78 26.81 34.96 5.17 2.24 12.35 2.39 16.35 6.57-8.89 3.06-18.17 7.82-30.1 6.82l-16.46-23.68c-2.88-4.88-11.86-22.74-12.39-26.45.07 11.39 11.46 35.85 15.75 46.49-22.46-13.04-21.5-53.31-41.25-69.05 10.58 20.03 13.22 24.14 15.93 51.3.89 8.82 3.35 18.86 7.99 24.92 8.93 11.64 13.69 7.71 20.1 13.81-10.81.65-16.99 4.36-24.63-2.11-17.16-14.39-9.64-44.3-26.2-62.69 8.52 21.98 13.85 32.73 11.86 58.81-1 12.46-1.29 22.1-3.58 34.38-1.93 10.1-5.29 20.67-6.89 30.02 56 .54 33.03 27.28 43.96 69.41 4.57 17.63 12.28 24.28 20.68 35.67 20.21 27.56 11.39 13.21 24.96 25.5 4.53 4.06 1.46-.18 3.93 5.46-7.82-3.4-12.64-7.82-21.45-10.57 4.06 9.17 9.52 16.99 15.45 24.63 4.07 5.22 3.89 5.46 9.64 10.57 3.24 2.82 8.29 7.75 11.35 10.75-13.17-3.11-20.32-14.35-27.67-22.21 4.06 10.7 10.99 19.32 19.74 25.45 3.89 2.71 7.07 4 9.82 7.53-25.45-6.71-32.03-27.38-46.66-44.77 1.53 12.46 8.17 22.63 16.45 30.27l8.82 8.28c-21.5-6.57-36.2-33.67-43.84-53.59 1 14.81 8.71 26.92 17.92 36.42 4.58 4.71 6.82 4.25 8.58 12.11l-4.07-3.58c-1.75-1.57-1.11-1.11-3.17-2.75-2.18-1.76-3.82-3-6.22-5.18-14.22-12.63-19.64-28.62-25.97-47.19-.89 16.5 5 20.68 7 32.27-1.53-1.29-1.07-.76-2.58-2.58-12.46-14.86-17.1-42.55-18.45-60.99-2.36 18.22 1.35 28.32 5.28 44.31-5.06-3.28-4.82-4.93-6.88-11.28-1.71-5.35-2.58-8.17-3.36-13.93-2.88-22.32 6.4-40.19 7-61.69.42-14.46-3.46-16.17-14.46-19.99 3.24 15.46 6.53 33.85-1.11 49.24-8.22 16.5-13.68 22.98-2.24 42.02 3.06 5.06 4.46 6.28 8.53 10.21l10.92 9.64c.18 10.71-7.21 25.03-8.88 37.67-1.71 12.86-2.18 34.74-3.82 44.06 1.89 1.89 3.18.76 3.89 2.4 1.82 4.07-4.4-1.11 2.06 3.53-10.1 2.58 1.07 1.36-9.46 2.82 3.35 23.1-13.21 21.21-30.56 19.5 10.04-20.63 15.46-14.34 20.68-37.2 2.82-12.57 6.39-39.2 4.93-52.41-1.07-9.11-7.06-11.22-12.82-15.68-6.82-5.29-9.53-7.46-14.68-14.39-7.88-10.53-17.21-20.32-19.21-37.85-29.49 18.46 18.57 43.73 16.04 57.66-3.29 6.46-10.22 9.88-15.17 14.39-10.29 9.53-19.75 21.39-27.92 32.78-6.89 9.64-6.17 9.11-5.22 22.86l-4.93-1.47c-1.89.18-3.07 1.11-4.89 2.35 1.43 5.64 2.94 7.89 2.89 14.46-9.64 7.22-18.99 9.89-32.85 6.53-.53-11.7 54.24-62.94 54.35-84.62.11-13.81-15.28-22.1-23.56-28.56-5.11-3.93-5.22-4.46-9.75-9.1-11.22-11.46-11.64-19.93-19.99-32.21-3.29-4.75-6.47-5.28-7.82-11.28-2.11-9.4 4-20.03 6.22-28.39 6.99-25.96-25.5-21.38-54.24-50.41-10.21-10.35-22.63-27.27-31.2-39.67-20.28-29.27-12-13.21-26.68-19.32-4.82-2-7.93-4.46-12.52-7.11.57 9.82.46 15.35-1.89 23.86l-33.2-28.79c-2.58-4.35-1.83-10.99-5.36-16.03-14.03.06-16.39 21.63-17.5 35.91 5.4 4.06 2.36 2.53 3.11 4.11.58 1.24 2.11 1 3.82 4.11-5.17 4.57-13.1 6.57-5.06 13.03 1.75 1.43 3.4 2.07 4.75 4.11 9.64 14.46-10.35 22.64-23.92 23.28l-.27-.25zM1055.61 152.48c-2.93 0-7.53 1.29-9.99 2.58l-2 1c-.47.28-.25.11-.54.35 2.89.65 6.53 3.18 8.22 5.47 2 2.7 3.82 6.1 3.82 9.81 0 6.4-2.06 13.11-6.4 17.46-4.1 4.06-4.75 4.11-9.88 6.57l-7.93 3c-2.71 1.11-6.88 5.29-8.46 7.75-1.24 1.93-1.42 4.58-5.53 5.4-2.89.58-5.89-1.53-5.89-4.47 0-2.35 1.47-4.53 2.36-6.06.53-.89 1.11-1.53 1.75-2.4 4.71-5.88 9.11-9.46 16.39-11.86 1.18-.35 2-.64 3.07-1.11 4.93-1.82 9.04-5.17 9.04-11.04 0-2.82-.18-3.88-2.24-5.88-2.4-2.36-4-2.24-6.58-2.24-3.93 0-9.35 5.21-11.53 8.64-.82 1.28-1.35 2.57-2.75 3.75-1.29 1.06-1.47.42-2.18 1.29l-1.88 3.24c-.54 1.07-1.25 1.93-1.76 3.11-.29.64-.42 1.18-.75 1.75-.34.58-.58 1.07-.89 1.71-2.64 5.64-4.71 12.86-5.71 19.1-1.93 11.64-.71 27.45 9.35 33.43 9.64 5.75 20.32 1 28.63-4.53 4.11-2.71 9.7-8.11 12.92-12.28 1.12-1.47 2.07-2.58 3.11-4.07 5.18-7.35 9.58-15.63 12.11-24.32 2.11-7.28 3.75-16.39 2.57-23.98-.75-4.82-1.93-10.29-5.1-14.35l-2.65-2.89c-4.28-3.57-7.7-4-12.86-4l.16.07zm34.96 20.92c-.07-1.24-.18-2.35-.29-3.53-.42-3.29-1.07-6.82-2.07-9.99-.93-3-2.17-5.76-3.82-8.22-4.46-6.64-9.46-10.71-17.16-12.99-7.29-2.18-14.11-.89-20.93 1-1.53.42-2.88 1.06-4.35 1.71-2.4 1.06-4.71 2.06-6.88 3.53-.65.42-.18.35-1.07.57.82-1.24 3.89-4.99 5.06-6.06l3-2.58c1-.75 2.24-1.64 3.4-2.17 3.11-1.47 4.75-1.18 6.71-4.47 2.4-4.1-.11-11.74-10.04-6.75-4.58 2.36-8.93 5.53-12.28 9.53l-5.29 6.53c0-3.11.36-6.57-.07-9.88-.64-5.53-4.24-22.15-12.99-17.04-1 .58-1.93 1.65-2.46 2.64-1.71 3.29-.83 5.07 1.06 7.82.65 1 1.36 2.47 1.71 3.58 1.53 4.82 1.47 9.35 1.25 14.35-.07 1.57-.47 3.06-.47 4.82l-.42-.03c-.11-4.82-4.11-14.99-6.11-19.63-2.53-5.93-7.57-14.28-12.04-18.81-2.57-2.64-5.17-5.22-8.17-7.35-1.11-.76-1.93-1.36-3.07-2.07-9.57-6.06-22.14-7.71-33.27-4-2.57.89-5.06 1.71-7.39 3.07a80.8 80.8 0 00-3.18 1.93c-4 2.36-7.28 5.46-10.57 8.64l-1.93 2c-.58.58-.65.75-1.11 1.35-.76.89-1.53 2.25-2.47 2.89.11-1.75 2.71-6.57 3.58-8.46 2.4-5.4 7.64-13.04 12.17-16.57 1.71-1.29 2.89-2.11 5-3.11 2.11-.89 3.57-1 4.93-3.17 2.24-3.58 1-9.29-3.89-10.22-4.71-.89-13.04 5.46-15.86 8.35-4.82 4.89-8.75 10.53-11.81 16.64l-1.54 2.64c0-8.04 4.29-23.32 9.11-29.85.89-1.18 2-2.4 3.11-3.36 1.58-1.24 2.35-1.28 3.35-3.35 2.71-5.57-1.75-11.99-7.39-9.75-.89.36-1.29.64-2.07 1.24-3.64 2.83-6.88 6.47-9.1 10.58-1.07 2.06-2.54 4.53-3.07 6.88l-.44-.02c-.11-1.24-1.36-3.35-1.89-4.58-.53-1.22-1.58-2.88-2.36-4.1-.46-.76-.82-1.25-1.35-1.89-.58-.76-.75-1.11-1.42-1.82-2.93-3.36-7.75-8.82-12.57-5.71-3.64 2.35-3.89 8.57-.58 11.21 2.24 1.76 3.07 2.29 5.06 4.71 3.07 3.76 4.82 8.82 6.18 13.53 1.29 4.4 2.29 8.93 3.11 13.35.29 1.57.06 1.28.06 2.93l-9.52-15.04c-.71-.93-1.29-1.29-1.94-2.24-3.24-4.18-13.28-11.28-17.99-10.35-5.99 1.24-6.52 9.53-1.75 12.28 2.07 1.24 7 1.58 12.22 8.4 1.75 2.28 3.57 4.7 5.06 7.17l4.24 8.04c.89 1.82 2 3.89 2.47 5.89-1.25-.89-2.4-2.94-3.53-4.11-.58-.58-.65-.76-1.18-1.36-3.29-3.93-10.46-8.93-14.68-11.28-1.18-.64-2.4-1.24-3.58-1.76-3.64-1.64-8.1-2.64-12.1-3.17-6.22-.82-12.22.35-17.99 2.24-4.58 1.47-9.35 4.71-12.99 7.64a42.89 42.89 0 00-6.53 6.53c-.54.65-.76.89-1.29 1.47-4.07 4.75-7.07 10.53-9.58 16.17-1.71 3.75-3.1 7.57-4.17 11.57-.58 2.29-1.82 5.82-1.82 8.57h-.27c0-1.58-.71-5.89-.71-9.75 0-13.39 3.53-12.57 4.53-16.35.93-3.57-.89-6.35-2.75-7.64-5.64-3.88-9.64 2.89-11.28 7.53-2.25 6.29-2.07 12.11-2.07 19.04-1-.65-1.58-1.94-2.4-2.93-.47-.58-.75-1-1.24-1.54-2.25-2.35-4.36-4.71-6.82-6.82-1.07-.88-2.07-1.42-3.11-2.24-2.18-1.64-4.82-2.89-7.53-3.57-1.89-.54-2.64-.65-4.46.11-4.82 2.06-3.29 9.7 1.93 11.39 4.4 1.47 8.35 4.35 11.17 8.04.89 1.11 1.75 1.82 2.47 3.11-.54-.11-3.18-1.58-3.82-1.93-3.82-2.36-8.76-3.76-13.4-4.71-12.35-2.47-23.21 1.53-30.45 10.57-.53.64-.75.89-1.24 1.75-3 5.11-2.93 4.89-4.75 10.29-1.29 3.82-1.76 7.99-1.89 12.1v3.93c.07 1.94.18 3.82.29 5.71.29 5.06 1.53 10.4 2.93 15.1l2.71 9.35c1.53 4.76 1.29 4.29 3.71 8.35l10.81 16.28c3.76 5.65 6.89 11.53 8.71 18.17l1.53 5.89c.76 2.06-.06 1.57.36 3.75.53 2.89 3.53 5.4 6.22 5.89 2.46.42 7.93-.89 10.64-1.29 13.28-2.24 26.67-3.64 40.02-5.18.75-.06 1.75-.11 2.75-.24 5.22-.64 10.82-1.29 16.28-1.58l11.17-.89c1.93-.11 3.82-.24 5.58-.42l22.85-1.24c4-.18 7.75-.18 11.82-.18 1.28-.07 1.46-.24 2.75-.29 2.89-.06 6.17.29 9 0 8.92-1 48.7.65 58.65.93 1.18.07 1.42.25 2.75.25 3.76 0 10.58.89 14.17.93l16.68 1.36c5.58.46 10.75 1.42 16.17 1.64 5.42.22 37.2 4.93 42.25 5.93 3.35.64 6.7.11 8.75-2.64.28-.36 1-1.54 1.11-1.94.42-1.17.11-2.39.57-3.35.65-1.11.76-2.24 1.11-3.53.54-1.64.89-3.11 1.29-4.71 2.82-10.1 9.18-18.5 14.86-27.09.76-1.18 1.76-2.36 2.36-3.71 2.28-5.64 4.1-11.75 7.06-17.1.11-.18.35-.65.42-.83.75-2 1.71-5.99 2.18-8.17.82-3.71 1.53-8.53 1.71-13.35v-5.22l-.09-.11zm-327.02-.78c0 10.29 6.64 19.04 15.82 22.86 5.39 2.24 9.1 2.4 12.92 6.28 6.18 6.22 4.71 6.58 6.35 8.22 1.89 1.93 4.58 2.58 6.82 1.29 1.07-.58 1.82-1.29 2.25-2.64 1.35-5.11-5.4-11.46-8.71-14.75l-2.58-2.29c-1.82-1.35-3.88-2.29-6.17-3.29l-7.06-2.7c-1.94-.76-4.58-2.25-5.71-4-6.58-9.89 1.29-14.75 4.35-14.75 3.53 0 5.29.58 8.46 3.11 1.65 1.29 3.65 3.46 4.76 5.17 1.06 1.58 1.71 3.18 3.17 4.25 1.76 1.28 1.11-.43 3.58 3.82.35.64.53 1 .89 1.64.35.64.57 1 .93 1.58.42.64.42.89.75 1.57 1.94 4.58 3.29 6.29 5 12.4 1.07 3.93 1.11 3.64 1.93 7.99 1.76 9.53 1.71 21.32-3.75 29.21-1.71 2.4-3.06 3.88-5.53 5.35-7.46 4.4-16.17 2.18-23.21-1.58l-2.4-1.35c-3.53-2-9.28-7-12.1-9.88-.65-.72-.94-1.25-1.71-1.94-.78-.69-1.07-1.24-1.76-2l-4.71-6.17c-2.46-4.11-2.88-4.29-5.39-9.17-.54-1-.76-1.25-1.25-2.47-.42-1-.75-1.46-1.17-2.57-3.82-9.18-6.18-17.04-6.18-27.68 0-6.75 1.71-13.35 4.4-17.34 2.93-4.36 7.46-8.35 13.46-8.35 6.88 0 8.28.57 13.99 3.17.71.29.89.18 1.29.76-3.07.71-6.29 3.4-8.17 5.75-1.89 2.35-3.65 6.28-3.65 10.46l.09.04zm20.57-27.56zm0 0zm82.02 4.64c0 4.07.64 9.35 3.18 12.35.82 1 1.28 1.54 2.17 2.4 5.58 5.47 16.21 8 22.74 2.71 6.71-5.46 4.89-13.04-1.46-13.04-1.76 0-3.4.83-4.24 1.83-1.11 1.35-1.94 5.17-8.53.93-3.53-2.25-3.64-8.35.75-11.93 5.18-4.17 13.04-3.17 16.22 2.89 1.99 3.82 2.93 10.1 2.93 14.92 0 3.07-.58 6.11-1.65 8.75-.28.89-.82 1.54-1.17 2.47-1.71 4.06.82 8.11 4.93 8.17l-.18 5.11c-3.93-4.53-9.64-7.75-15.57-9.22-7.53-1.88-16.81-.88-23.14 3.11-.76.47-1.25.82-1.93 1.29-1.71 1.11-3.89 3.18-5.07 4.93-.93 1.36-1.82 2.64-2.53 4.24-4.06 9.53-3.29 16.04 2.53 24.46.54.75.76.82 1.29 1.46 2.35 2.71 4.93 4.76 8.22 6.4 5.99 3 13.1 3.53 19.03-.11 1.11-.71 2.25-1.36 3.18-2.36 1.75-1.75 2.46-3.82 1.29-6.28-1-2.11-3.71-3.24-6.11-2.71-3.36.75-3.76 3.82-8.4 3.53-6.28-.36-12.63-7.82-12.63-12.1 0-17.46 22.14-19.75 30.91-10.29.18.18.18.29.42.47 2.4 2.58 3.89 4.75 5 8.22.76 2.4.11 2.93-.58 5.17-1.06 3.24-2.17 6.71-3.88 9.57-2.36 3.82-2.25 4.25-5 8.22-1.82 2.58-3.89 5.11-6.4 7.06-5.99 4.71-10.7 7.82-19.32 7.82-7.17 0-15.81-4.17-20.81-9.1-.36-.36-.58-.65-1.07-1-.57-.47-.75-.47-1.24-1.07l-4-4.53c-3.82-5-7.1-10.22-9.53-16.21-2.28-5.64-2.75-6.64-4.46-12.64-1.64-5.71-2.64-12.1-3.18-18.17-.24-2.57.43-1.57.54-3.46.18-4.11-.11-7.53 1.57-11.17 1.36-2.89 3.76-5.82 7.47-5.82 2.17 0 4.75.82 6.1 1.75 3.29 2.24 4.94 6.89 4.29 10.93-.35 2.11-1.64 3.64-2.82 5.06-1.29 1.58-2.58 2.58-3.75 4.11-.65.82-1.11 1.29-1.76 2.18-.53.71-1.17 1.57-1.57 2.35-2.58 4.47-7.29 22.92 2.99 22.92 1.89 0 3.54-1.17 4.25-2.46 1.06-1.89.42-3.71.42-6.11 0-4 1.53-8.17 3.82-10.75.06-.07.06-.07.11-.11.04-.05.11-.11.11-.11 2.07-2.25 4.24-4.29 5.93-6.82.82-1.24 1.42-2.18 2-3.53 1.11-2.47 2.06-5.75 1.71-9.11-.71-6.11-2.53-11.35-6.71-15.57-4.88-4.82-12.46-7.57-19.63-6.06-1.11.29-1.76.76-2.71.82.29-1.29.64-2.17 1-3.4 1.11-3.93 2.71-7.7 4.46-11.28l2.4-4.57c.58-1 1.11-1.94 1.76-2.82l3.93-5.18c.64-.82 1.53-1.53 2.28-2.29 1.71-1.71 3.07-2.75 5.18-4.11 11.53-7.7 24.21-5.57 34.91 3.11 2.4 1.94 4.76 4.29 6.75 6.76 2.83 3.53 3.29 4.57 5.53 7.92-7.21 0-10.81.94-16.03 5.07-3.35 2.64-7.11 8.22-7.11 14.17l-.13-.14zm93.79-41.71c6.35 0 11.04 1.29 16.17 4.71l3.82 2.89c.53.47.75.53 1.29 1.07l3.35 3.57c3.53 3.93 6.57 9.17 8.64 14.11l2 4.93c.42 1.24 2 5.81 2.06 7.21-.88-.17-1.28-.57-2.46-.82-4.29-.89-9.71.11-13.28 1.53-3.58 1.43-7 4.4-9 7.71-4.28 7.11-5.7 15.86-1.28 23.39l7.92 9.39c1.89 2.4 2.71 5.22 3.18 8.46.53 3.76-.11 2.71-.11 5 0 7.64 16.21 9.11 9.93-12.46-.89-3.11-1.71-5.06-3.4-7.46l-3.75-4.35c-.54-.54-.89-.83-1.43-1.36-.82-.89-1.57-1.93-2.28-3-3.29-4.82-.36-12.63 4.57-14.74 8.11-3.4 13.1 4.11 13.53 11.46.06 1.57-.36 3.64.11 5.17.35 1.25.58.82.58 2 0 4-.89 8.35-1.54 11.93-1.88 10.52-5.46 20.5-10.92 29.62-2.07 3.4-4.53 6.71-7.22 9.64l-5.11 4.82c-1.89 1.54-3.82 2.89-6 4-4.11 2.07-8.39 3.75-13.86 3.75-4.82 0-10.52-2.11-13.52-4.06-3.64-2.4-4.58-3.18-7.22-5.93l-5.93-7.28-3.29-5.58c-1.24-2.24-4.99-11.04-4.99-12.81 0-4.36 3.53-8.47 6.17-11.18 4.71-4.7 14.04-6.46 20.63-3.82 6.29 2.54 9.82 7.47 9.82 15 0 3.06-3.58 7.1-5.89 8.99-3.11 2.47-8.17 3.75-11.63 1.11-1.58-1.18-1.11-1.58-3.76-2.06-4.88-1-10.7 5.93-1.24 11.39 11.7 6.82 25.27-1.11 30.91-11.71 3.65-6.81 2.89-13.92-.11-20.74-.64-1.47-1.53-2.75-2.46-4-2.89-3.88-6.82-6.64-11.53-8.39-6.88-2.65-16.17-2.4-23.03.35-.58.25-.93.47-1.58.76-3.11 1.35-6.1 3.46-8.46 5.93-1.46 1.53-1.53 1-1.53-3.89 2.93-.07 5.57-2.18 5.57-5.06 0-1.71-.35-2.82-1.06-4.24-3.47-6.82-3.11-18.22.35-24.97.82-1.57 2-2.71 3.47-3.75 6.17-4.29 16.28.11 16.28 6.99 0 1.71-.42 4-1.71 5-1.07.89-3 2-4.4 2.29-5.64 1.18-3.24-4.35-9.64-4.35-5.22 0-7.64 6.93-2 12.17.29.29.54.46.89.75 4.35 3.89 11.7 3.53 16.81 1.42 1.54-.57 3.07-1.53 4.36-2.57l3.71-3.47c.82-1 1.17-2 1.71-3.17 2.35-5.36 1.99-12.22-.54-17.35-1.24-2.46-2.93-4.24-4.82-6.06-4.53-4.24-9.92-5.64-16.39-5.64.89-3.53 9.4-12.4 11.93-14.46 4.29-3.47 11.28-7.82 18.85-7.82l-.24.04zm-37.31 5.82zM776.48 302.37v1.11c0 2.58 3.06 5.36 5.57 5.36l5.11-.25c1.25-.11 2.36-.11 3.64-.29l42.78-3.53c2.35-.35 5.17-.24 7.35-.53 1.24-.18 2.4 0 3.64-.07l14.64-.64c1.42-.07 2.11-.29 3.71-.29 2.71.07 4.82-.18 7.71-.18 1.46 0 1.93-.29 3.39-.29 8.75.07 17.82-.42 26.92-.42l22.03.02c5.18 0 9.89.25 14.82.25l25.27.89c1.25.11 2.64-.07 3.89.06l10.75.58c1.24.18 2.57-.07 3.82.11 2.17.25 4.57.18 6.99.47l10.53.82c1 .11 2.64.29 3.4.29l13.93 1.11c2.39.29 4.81.42 6.99.64 2.4.29 4.75.42 6.93.71l8.28.54c3.36 0 6-2.71 6-6.07 0-5.28-7.93-4.75-11.46-5.22l-23.1-2.17c-5.17-.29-10.64-1.18-15.74-1.11-1.54 0-2.29-.18-3.93-.25l-4.11-.29c-5.07-.57-10.46-.57-15.82-.88-7.35-.43-16.99-.94-24.32-.94-3.06 0-5.22-.24-8.35-.24-5.64 0-10.81-.25-16.63-.25l-18.59.03c-5.82 0-11.04.24-16.64.24-5.06 0-11.7.47-16.68.47-3.11 0-5.28.24-8.35.24l-40.55 2.29c-3.07.11-12.17 1.24-15.75 1.42-5.35.29-10.57.89-15.74 1.42l-7.71.82c-2.53.43-4.58 2-4.58 4l-.04.02z"/><path class="fil0" d="M1003.95 273.17c0 4-.36 6.39-2.58 9.75-.71 1.06-1.28 1.89-2.24 2.82-.42.42-.82.89-1.29 1.24-.89.65-1.06.25-1.35 1.25 4.99 0 18.21 1.71 23.85 2.06 1.53.11 3.11.29 4.82.53l13.93 1.58c1.42.11 3.53.58 4.7.65 1.94.11 2.58-3.58 3.76-6.58l2.88-7.53c.54-1.24.94-2.57 1.43-3.88.24-.58 1.28-2.71 1.24-3.29-.04-.58-.11-.71-.53-1-.65-.42-11.46-2.07-12.17-2.18-4.65-.64-8.89-1.46-13.35-1.93l-20.46-2.47c-2.35-.28-4.75-.28-6.88-.75.18.89.75 1.47 1.35 2.18 1.54 1.88 2.82 4.93 2.82 7.57l.07-.02zM843.88 261.6c.76 1.11 2.18 1.64 3.18 2.57 1.71 1.58 4 5 4.71 7.35 2.89 9.58-2.53 13.57-2.82 14.64 2.35 0 3.82-.24 6-.24 1.42 0 1.71-.25 2.99-.25 1.07-.06 2.25.07 3.29 0l12.28-.46c2.36 0 3.71-.25 6-.25l18.99-.18c-.29-1.06-1.25-.93-2.58-2.53l-2.17-2.89c-3.4-5.81-3.07-13.03.88-17.67.65-.83 1.47-1.54 2-2.4h-6.75l-23.14.89c-1.11.11-2.36-.07-3.47.06l-19.45 1.36h.06zM767.73 271.35c0 1.11.75 2.88 1.11 3.71 1.11 2.53 2.93 8.17 4.17 10.92 3.65 8.29-.57 6.71 12.57 5.36 3.11-.29 6.11-.58 9-.89l9.22-1c4.75-.25 15.34-1.36 18.81-1.36-.42-1.53-9.71-6.75-6.35-18.39 1.11-4.06 2.99-4.35 3.35-5.7-6 0-41.13 5.06-49.24 6.35-.82.11-2.64.29-2.64 1.06v-.06zM921.26 284.81c8.4 0 16.68.17 24.97.42 1.17.06 1.42.24 2.75.24 4.53.07 8.71.47 12.53.47 1.82 0 6.35.46 9.21.46-.24-.99-1.24-1.11-2.71-4.24-3.06-6.53-.35-13.39 4.54-18.1.99-1 2.57-1.71 3.28-2.71-2 0-4.46-.24-6.28-.42l-13.17-.71c-1.47 0-1.82-.24-3.25-.24-1.06-.07-2.39.06-3.46-.07l-19.99-.65c-2.53 0-4.17-.24-6.71-.24.18.82.43.76 1 1.35 6.07 6.07 5.76 16.11-.24 22.15-.82.82-2.07 1.46-2.58 2.24l.11.05zM909.69 56.98c3 0 5.93-2.24 7.46-3.89 2.58-2.88 3.4-5.35 3.4-9.57 0-5-2.17-12.22-4.24-16.64l-6.88-14.45c-.07.24-6.58 13.81-7.71 16.85-.36 1-.58 2-1 3.18-1.64 5-3.11 12.7-.64 17.28 1.53 2.89 5.39 7.11 9.57 7.11l.04.13zM775.37 108.71c0 5.93.75 10.92 5.17 14.28 2.18 1.71 5.89 2.46 8.71.75 1.35-.89 3.24-4.11 3.24-6.53 0-4.75-3.4-9.88-6.64-13.28-2.24-2.29-4.57-5.06-6.99-7.17-1.72-1.47-1.12-1.47-2.58-2.29 0 4.93-.89 9.22-.89 14.17l-.02.07zM1025.92 115.63c0 3.07.64 6.4 3.1 8 4.07 2.75 9.64-.53 11.4-3.24 4.46-6.82 1.46-19.04 1.46-25.85-.82.57-1.75 1.42-2.46 2.17l-6.82 7.06c-2.35 2.71-6.64 8.71-6.64 11.86h-.04zM909.69 280.63c7.35 0 12.4-6.29 9.64-12.64-1.24-2.82-5.22-5.46-8.22-5.46-2.35 0-3.71-.11-5.93 1-3.11 1.53-5.64 4.93-5.28 8.39.53 5.4 5.06 8.71 9.88 8.71h-.09zM975.45 275.06c0 2.39-.17 2.82 1 5.06.58 1 1.07 1.53 1.94 2.24 6.75 5.47 17.21.25 17.21-7.28 0-9.71-14.28-11.35-18.92-3.58-.47.82-1.25 2.4-1.25 3.58l.02-.02zM823.96 274.12c0 3.71.71 5.07 3.4 7.71 1.93 1.89 4.89 2.71 7.71 2.71 5.17 0 10.04-4.35 9.04-9.75-1.11-6.18-10-11.46-17.04-6.18-1.24.94-3.11 3.47-3.11 5.47v.04zM903.63 1039.91l-1.29 9.64c.29 1.64-3.4 87.15-2.29 92.19-2.75.89-13.46.65-16.5.07-.53-.36-1.06-.71-1.89-1.42-1.71-1.53-.71.06-1.46-1.89-.76-4.06 2.11-95.26-2.47-101.01-2-2.64-4-4.11-6.57-2.82-5.64 2.93-8.46 6.29-11.75 10.93-6.17 8.64-11.46 18.68-17.1 28.56-6.64 11.64-2 4.35-9.57 13.52-11.53 14-22.04 25.46-40.78 27.5-21.68 2.35-63.34-.47-83.38-6.53-2.28-29.78 28.39-20.74 43.89-30.6 1.47 1.42 2 3.75 3.53 5.17 7.57 6.82 27.85 6 35.96 2.35 2.64-1.24 8.04-6.35 9.57-7.92 12.17-12.4 19.81-26.1 28.03-41.85 13.35-25.45 8-19.63 26.38-43.42 3.82-4.93 29.45-36.67 31.61-37.73 12.17 5.64 20.17 18.81 22.92 35.6 4.57 28.21-6.64 37.38-6.93 49.66h.09z"/><path class="fil0" d="M799.58 1142.34c-29.5 2.65-54.88-1.89-81.8-11.17-2.89-1-2.71-.42-3.89-3.29-2.11-5.17-4.11-10.52-4.57-16.28 34.67 4.53 36.38 8.47 76.69 6.22 18.56-1.06 25.8-5.17 36.09-15.68 1.93-1.93 3.4-2.93 5.17-5.17l9.35-10.75c-2 3.29-5.64 11.7-7.39 15.81-4.47 10.35-8.18 27.32-12.64 34.09-3.47 5.29-8.28 6.29-16.99 6.22h-.02zM548.01 1012.66c30.27-17.35 45.84-23.32 88.01-24.56-27.96-15.28-75.62 8.75-88.01 24.56zm5.39-31.03l-6.52 5.22c13.34-3.17 2.7.54 6.52-5.22zm64.12-2.95c-44.24-8.46-61.12 11.86-61.41 12.1l-2.93 3.07c23.46-8.35 35.32-15.46 64.34-15.17zm-64.12 2.95l25.97-11.28c-8.64.58-7.71-.53-16.04 3.11l-9.93 8.17zm-62.34-27.34c-10.21 3.82-10.75 6.18-15.81 14.17 5.88-5.22-.36-.53 6.88-4.75 11.53-6.75 6.36.53 8.93-9.39v-.03zm0 0c25.45-3.39 13.53-21.5 103.9-21.63-16.04-7.22-42.13-7.99-61.12-2.46-10.93 3.17-38.09 12.86-42.78 24.09zm5.4-26.67c23.85-9.4 29.09-9.82 57.94-10.99-22.27-10.58-43.48-1.11-57.94 10.99zm187.83-2.47c-13.28 7.29 2.88 15-20.46 9.35-5.88-33.55 34.6-30.91 31.14-1.88-3 24.74-25.74 25.74-51.13 28.31 8.75 4.47 19.33 7.4 28.45 11.58 29.32 13.45 58.24 39.42 93.19 28.02 17.82-5.75 40.38-24.03 30.21-47.7-8.64-20.21-53.13-22.32-51.3 7.64 4.93 2.4 27.31 1.24 15.52 17.99-9.35 13.28-22.28 4.17-28.92-4.36-17.03-36.38 76.45-74.44 72.23 1.76 8.04-5.93 19.74-16.99 30.2-19.39 17.57-4.06 21.86 7.82 18.11 20.99-11.22 3.35-12.71 5.39-19.64-3.36 5.58-12.28 1.25-1.57 13.11-8.21-1.47-1.47 5.35-6.22-9.93-3-4.76 1-6.89 4.46-9.82 7.39-5.57 5.76-9.17 10.22-14.04 16-8.92 10.63-20.38 19.56-33.95 26.2-33.1 16.17-69.7 7.64-102.08-3.06 13.64 68.23-60.3 55.52-39.38 14.63 30.45-9.81 11.29 13.68 11.86 19.04l15.93.06c20.32-59.76-107.83-84.9-157.89 74.16-2.58-15.17-2.58-39.13-12.04-48.24-13.28-12.7-27.09 4.53-44.24 6.18-5.58-8.71-2.4-4.53-2.47-16.39-3.11-1.18-12.17 1.82-14.92-12.46-1.64-8.58-5 1.06 1.82-9.4l-10.28-4.46c-.42-.18-1.36-.58-1.93-1 16.56-40.56 4.35-21.57 7.28-35.56 2.64-12.75 1.53 7.53 1.24-4.17-.17-7.71-1.11-.29-1.75-9.53-.64-8.93 2.82-13.82.89-23.57-6.11-30.49-64.59-12.63-47.2 13.99l6.29-14.81c16.17.76 18.81 8.75 15.85 23.32-51.94 25.14-41.37-69.69 25.32-38.2 10.18-26.45 21.28-40.38 48.53-49.48 24.68-8.29 61.23-8.75 87.62-2.71 26.92 6.17 45.2 21.67 63.52 34.56 50.77 35.55 60.05 8.81 55.01-.18l.05-.05zM1267.91 1013.3c-30.27-17.27-45.84-23.27-88.02-24.49 27.97-15.28 75.63 8.75 88.02 24.49zm-5.4-31.02l6.53 5.22c-13.34-3.18-2.71.53-6.53-5.22zm-64.18-2.96c44.24-8.46 61.12 11.86 61.41 12.11l2.93 3.06c-23.45-8.35-35.31-15.52-64.34-15.17zm64.18 2.96l-25.96-11.29c8.64.54 7.71-.53 16.04 3.11l9.92 8.18zm62.28-27.39c10.22 3.82 10.75 6.18 15.86 14.17-5.89-5.28.35-.53-6.89-4.75-11.52-6.75-6.39.53-8.99-9.39l.02-.03zm0 0c-25.39-3.4-13.46-21.5-103.9-21.56 16.04-7.22 42.14-8 61.12-2.47 10.93 3.18 38.09 12.86 42.78 24.03zm-5.4-26.69c-23.81-9.4-29.09-9.82-57.94-10.93 22.27-10.57 43.49-1.11 57.94 10.93zm-187.8-2.4c13.28 7.28-2.89 14.99 20.5 9.35 5.82-33.56-34.67-30.92-31.14-1.82 3 24.74 25.74 25.74 51.13 28.31-8.75 4.47-19.33 7.36-28.45 11.53-29.32 13.46-58.17 39.42-93.2 28.1-17.81-5.76-40.37-24.03-30.2-47.78 8.64-20.21 53.13-22.32 51.3 7.71-4.93 2.4-27.31 1.18-15.52 17.99 9.35 13.28 22.32 4.18 28.92-4.35 17.03-36.38-76.45-74.45-72.23 1.75-8.04-5.93-19.74-16.99-30.2-19.39-17.57-4.06-21.86 7.82-18.11 20.99 11.22 3.35 12.71 5.4 19.64-3.35-5.58-12.22-1.25-1.58-13.11-8.18 1.47-1.53-5.39-6.21 9.93-3.06 4.75 1 6.89 4.46 9.82 7.46 5.57 5.75 9.17 10.22 14.04 15.99 8.92 10.64 20.38 19.57 33.95 26.21 33.1 16.17 69.76 7.64 102.08-3.11-13.64 68.23 60.3 55.52 39.42 14.64-30.45-9.82-11.28 13.63-11.93 19.03l-15.92.07c-20.32-59.77 107.83-84.91 157.89 74.15 2.58-15.16 2.58-39.06 12.04-48.19 13.28-12.7 27.14 4.46 44.24 6.11 5.57-8.64 2.4-4.47 2.46-16.39 3.11-1.18 12.17 1.82 14.93-12.46 1.64-8.53 5 1.06-1.82-9.35l10.28-4.47c.42-.24 1.35-.57 1.93-1-16.57-40.6-4.35-21.63-7.28-35.55-2.71-12.82-1.53 7.52-1.25-4.25.18-7.7 1.11-.28 1.76-9.46.64-8.93-2.89-13.81-.89-23.63 6.11-30.49 64.59-12.57 47.13 13.99l-6.29-14.81c-16.17.82-18.81 8.75-15.85 23.32 51.94 25.14 41.37-69.69-25.32-38.2-10.18-26.45-21.28-40.38-48.53-49.48-24.68-8.22-61.23-8.75-87.62-2.71-26.92 6.17-45.2 21.67-63.52 34.55-50.77 35.56-60.05 8.76-55.01-.17v-.09z"/><path class="fil0" d="M925.04 1039.91l1.29 9.64c-.29 1.64 3.4 87.15 2.24 92.19 2.75.89 13.46.65 16.5.07.54-.36 1.07-.71 1.89-1.42 1.71-1.53.71.06 1.47-1.89.75-4.06-2.11-95.26 2.46-101.01 2.07-2.64 4-4.11 6.58-2.82 5.7 2.93 8.46 6.29 11.74 10.93 6.18 8.64 11.46 18.68 17.11 28.56 6.7 11.64 1.99 4.35 9.57 13.52 11.46 14 22.03 25.46 40.77 27.5 21.68 2.35 63.35-.47 83.38-6.53 2.29-29.78-28.38-20.74-43.89-30.6-1.46 1.42-2 3.75-3.53 5.17-7.57 6.82-27.85 6-35.96 2.35-2.64-1.24-8.04-6.35-9.63-7.92-12.18-12.4-19.82-26.1-28.03-41.85-13.35-25.45-8-19.63-26.32-43.42-3.82-4.93-29.5-36.67-31.67-37.73-12.17 5.64-20.1 18.81-22.86 35.6-4.64 28.21 6.64 37.38 6.89 49.66z"/><path class="fil0" d="M1029.16 1142.34c29.49 2.65 54.83-1.89 81.73-11.17 2.93-1 2.71-.42 3.89-3.29 2.06-5.17 4.17-10.52 4.57-16.28-34.67 4.53-36.38 8.47-76.69 6.22-18.5-1.06-25.81-5.17-36.09-15.68-1.93-1.93-3.4-2.93-5.11-5.17l-9.35-10.75c2 3.29 5.64 11.7 7.46 15.81 4.47 10.35 8.18 27.32 12.58 34.09 3.46 5.29 8.28 6.29 16.99 6.22h.02zM681.15 428.61c94.84 157.78-12.21 228.3-2.75 325.55 5.29 54.95 41.24 104.54 81.98 119.89 20.03 7.53 61.3 11.86 84.68 15.92 36.25 6.36 46.13 15.04 69.81 31.28 19.1-10.58 19.99-22.28 69.87-31.32 77.91-14.21 98.01-4.75 139.1-62.34 62.87-88.02-1.42-171.13-12.35-239.4-4.64-29.21-2.82-64.41 5.28-91.55 14.46-48.37 26.1-55.12 31.45-70.94l-63.8-69.27c-8.76 3.89-15 12.39-36.25 20.81-15.39 6.11-31.32 8.46-49.59 8-38.92-1.11-56.53-14.82-83.87-31.78-25.74 15.34-43.42 30.91-83.8 31.73-18.92.43-32.95-1.53-49.77-7.81-17.57-6.58-24.92-15.64-36.55-20.93-6 5.65-10.22 11.86-16 18.39-12.45 14.17-40.31 39.56-47.59 53.84l.15-.07zm48.13.58h11.11c2.46 7.82 6.71 13.39 12.46 16.68 7.57 4.46 19.85 6.57 36.91 6.57 10.86 0 45.37-1.06 103.43-3.28 35.14-1.36 56.99-2.11 65.63-2.11 26.1 0 48.37 4.53 66.76 13.46 18.39 8.92 33.27 22.74 44.78 41.31 11.46 18.56 19.1 44.13 22.85 76.69 2.64 22.81 4.93 73.09 6.75 150.84-30.67 19.33-54.3 36.09-70.8 50.31-49.95-13.86-94.08-20.75-132.28-20.75-25.97 0-50.06 3.11-72.16 9.36-22.28 6.21-45.78 16.1-70.58 29.78l-7-8.93c32.45-16.64 60.81-33.74 85.33-51.24 24.52-17.5 40.6-33.09 48.42-46.95 7.81-13.81 11.75-31.27 11.75-52.52 0-7.76-.18-19.17-.47-34.27-.36-10.53-.53-21.5-.53-32.85 0-19.99 1.11-34.74 3.35-44.13 2.24-9.53 6.88-20.32 14.1-32.61l-6.04-.02c-19.1 11.04-31.85 21.03-38.09 30.03-6.39 9.1-9.53 20.63-9.53 34.6l1.94 83.73c0 22.39-6.64 42.38-20.1 60.12-13.4 17.75-45.6 43.2-96.62 76.52l-6.99-9.4c25.81-17.81 42.77-32.49 51.01-43.95 8.24-11.46 12.35-23.46 12.35-35.96 0-10.86-3.46-20.03-10.46-27.63-6.93-7.64-14.68-11.46-23.03-11.46-4.29 0-8.28 1.25-11.93 3.53-3.57 2.4-8.52 7.35-14.74 14.86l-7.47-7.53c5.4-13.57 12.64-23.56 21.57-29.91 8.93-6.36 19.81-9.53 32.45-9.53 3.57 0 7.64.42 12.1 1.24 4.36.76 9.11 1.93 14.17 3.58-.29-9.18-.46-17.17-.46-23.92 0-24.74 4.99-44.89 14.92-60.48 9.93-15.59 29.03-31.74 57.12-48.66-26.03 2.64-48.52 4-67.51 4-20.04 0-37.2-2.82-51.53-8.46-10.82-4.47-18.68-11.47-23.68-21.04-4.99-9.57-8.04-22.85-8.99-39.66l-.27.04zm191.45 65.3c-6.75 11.52-11.28 21.5-13.57 29.96-3.18 11.7-4.75 22.56-4.75 32.67l1.93 93.15c0 11.92-3 24.14-8.88 36.6-4.54 9.35-13.04 20.63-25.5 33.96 22.81-3.76 40.24-5.58 52.35-5.4l13.39.24V494.49h-14.97zm27.03 90.83c9.57 6.89 17.99 11.53 25.14 14.11 7.15 2.57 14.93 3.82 23.21 3.82 8.4 0 16.1-1.29 23.39-3.93 7.28-2.65 15.68-7.29 25.45-14-2.93-35.55-12.11-59.52-27.39-72.04-15.21-12.57-38.48-18.86-69.76-18.86v90.84l-.04.06zm0 77.8c10.64-6.1 19.74-10.28 27.27-12.57 7.53-2.28 15.68-3.39 24.68-3.39 8.64 0 16.57 1.06 24.03 3.11 7.35 2.11 16.17 6.06 26.49 11.86l-3.75-63.81c-9.99 6.1-18.68 10.35-26.03 12.57-7.22 2.24-15.21 3.35-23.92 3.35-8.28 0-16.5-1.35-24.74-4-8.17-2.64-16.1-6.64-23.99-11.92v64.76l-.04.04zm0 53.2c19.1 1.53 34.6 3.46 46.66 5.7 12.06 2.25 30.78 6.93 56.35 14.11.29-23.74.46-36.03.46-36.85 0-1.82-.17-9.39-.46-22.63-10-6.93-18.86-11.7-26.45-14.35-7.64-2.64-15.86-3.99-24.81-3.99-9.11 0-17.5 1.35-25.32 3.99-7.75 2.65-16.5 7.4-26.45 14.35v39.67h.02z"/></g></g></svg>