<!-- Generated by IcoMoon.io -->
<svg version="1.1" xmlns="http://www.w3.org/2000/svg" width="32" height="32" viewBox="0 0 32 32">
<title>logo-xiiber-horizontal-azul</title>
<path fill="#003871" d="M3.287 18.876c-0.837 0.366-0.328 1.636 0.536 1.303 0.090-0.035 0.175-0.095 0.218-0.137 0.59-0.588-0.070-1.465-0.754-1.165z"></path>
<path fill="#003871" d="M2.267 16.744c-0.47-0.721-0.806-1.045-1.101-2.217-0.702-2.789 0.666-4.234 1.82-1.224 0.415 1.082 0.377 1.64 0.367 2.838l0.419-0.022c0.112-0.954 0.503-2.058 0.978-2.574 0.39-0.424 1.843-1.132 2.734-0.678 0.566 0.289 0.373 0.786-0.089 1.051-1.175 0.672-1.028 0.785-1.712 1.784-0.299 0.437-0.537 0.552-0.852 0.923 0.16 0.337 0.69 0.806 0.417 1.708-0.873-0.332-1.581-0.566-2.639-0.2-0.176 0.061-0.254 0.116-0.398 0.169-0.767 0.289-0.207-1.274 0.055-1.559z"></path>
<path fill="#17082f" d="M8.408 19.689l-0.75-1.048-0.775 1.048h-1.080l1.315-1.721-1.27-1.696h1.112l0.724 0.997 0.743-0.997h1.054l-1.27 1.671 1.321 1.747h-1.124zM9.698 16.272h0.991v3.417h-0.991v-3.417zM10.194 15.796c-0.182 0-0.33-0.053-0.444-0.159s-0.172-0.237-0.172-0.394 0.057-0.288 0.172-0.394c0.114-0.105 0.262-0.159 0.444-0.159s0.33 0.051 0.445 0.152c0.114 0.102 0.171 0.229 0.171 0.381 0 0.165-0.057 0.302-0.171 0.409s-0.263 0.162-0.445 0.162zM11.294 16.272h0.991v3.417h-0.991v-3.417zM11.789 15.796c-0.182 0-0.33-0.053-0.445-0.159s-0.171-0.237-0.171-0.394 0.057-0.288 0.171-0.394c0.115-0.105 0.263-0.159 0.445-0.159s0.33 0.051 0.444 0.152c0.115 0.102 0.172 0.229 0.172 0.381 0 0.165-0.057 0.302-0.172 0.409s-0.262 0.162-0.444 0.162zM14.908 16.221c0.318 0 0.607 0.073 0.867 0.219s0.465 0.352 0.613 0.616c0.148 0.265 0.222 0.573 0.222 0.924s-0.074 0.66-0.222 0.924c-0.148 0.265-0.353 0.47-0.613 0.616s-0.549 0.219-0.867 0.219c-0.47 0-0.828-0.148-1.073-0.445v0.394h-0.947v-4.713h0.991v1.658c0.25-0.275 0.593-0.413 1.029-0.413zM14.737 18.927c0.254 0 0.463-0.086 0.625-0.257s0.245-0.401 0.245-0.689c0-0.287-0.081-0.518-0.245-0.689s-0.372-0.257-0.625-0.257c-0.254 0-0.463 0.086-0.626 0.257s-0.245 0.401-0.245 0.689c0 0.288 0.082 0.518 0.245 0.689s0.372 0.257 0.626 0.257zM18.676 18.946c0.178 0 0.336-0.026 0.474-0.079s0.266-0.137 0.384-0.251l0.527 0.572c-0.322 0.368-0.791 0.553-1.41 0.553-0.385 0-0.726-0.075-1.023-0.226s-0.525-0.359-0.686-0.626c-0.161-0.266-0.241-0.569-0.241-0.908 0-0.334 0.079-0.636 0.238-0.905s0.377-0.479 0.654-0.629c0.278-0.151 0.59-0.226 0.937-0.226 0.326 0 0.622 0.069 0.889 0.207s0.479 0.336 0.639 0.597c0.159 0.261 0.238 0.569 0.238 0.924l-2.528 0.489c0.072 0.169 0.186 0.297 0.34 0.381s0.344 0.127 0.568 0.127zM18.53 16.971c-0.25 0-0.453 0.080-0.609 0.241s-0.239 0.384-0.248 0.667l1.664-0.324c-0.047-0.178-0.142-0.32-0.286-0.425s-0.318-0.159-0.521-0.159zM21.593 16.723c0.119-0.165 0.278-0.29 0.479-0.375s0.433-0.127 0.696-0.127v0.915c-0.11-0.009-0.184-0.013-0.222-0.013-0.284 0-0.506 0.080-0.667 0.238s-0.241 0.397-0.241 0.715v1.613h-0.991v-3.417h0.947v0.451z"></path>
<path fill="#e8443b" d="M22.924 19.962c0.109 0 0.196 0.088 0.196 0.196s-0.088 0.197-0.196 0.197c-0.109 0-0.197-0.088-0.197-0.197s0.088-0.196 0.197-0.196z"></path>
<path fill="#004dfd" d="M24.965 19.975c0.108 0 0.196 0.088 0.196 0.197s-0.088 0.196-0.196 0.196c-0.109 0-0.197-0.088-0.197-0.196s0.088-0.197 0.197-0.197z"></path>
<path fill="#feed01" d="M23.969 19.962c0.108 0 0.196 0.088 0.196 0.196s-0.088 0.197-0.196 0.197c-0.109 0-0.197-0.088-0.197-0.197s0.088-0.196 0.197-0.196z"></path>
<path fill="#ff8b00" d="M23.416 19.96c0.108 0 0.196 0.088 0.196 0.197s-0.088 0.196-0.196 0.196c-0.109 0-0.197-0.088-0.197-0.196s0.088-0.197 0.197-0.197z"></path>
<path fill="#760789" d="M25.457 19.974c0.109 0 0.197 0.088 0.197 0.197s-0.088 0.196-0.197 0.196c-0.108 0-0.196-0.088-0.196-0.196s0.088-0.197 0.196-0.197z"></path>
<path fill="#008125" d="M24.461 19.96c0.108 0 0.196 0.088 0.196 0.197s-0.088 0.196-0.196 0.196c-0.109 0-0.197-0.088-0.197-0.196s0.088-0.197 0.197-0.197z"></path>
<path fill="#3e4095" d="M9.99 14.611c-0.79 0.278-0.411 1.473 0.401 1.228 0.085-0.026 0.166-0.074 0.208-0.111 0.58-0.497 0.036-1.344-0.61-1.117z"></path>
<path fill="#3f2e64" d="M11.559 14.611c-0.79 0.278-0.411 1.472 0.401 1.227 0.085-0.026 0.166-0.074 0.208-0.111 0.58-0.497 0.036-1.344-0.61-1.117z"></path>
<path fill="#606062" d="M23.469 19.635c-0.044 0.040-0.097 0.069-0.161 0.090s-0.13 0.031-0.2 0.031c-0.162 0-0.286-0.044-0.373-0.131s-0.131-0.211-0.131-0.371v-1.614h0.233v0.377h0.521v0.196h-0.521v1.029c0 0.102 0.025 0.18 0.075 0.234s0.124 0.080 0.219 0.080c0.105 0 0.19-0.030 0.256-0.089l0.082 0.167zM23.963 18.355c0.055-0.116 0.136-0.203 0.244-0.262s0.242-0.088 0.401-0.088v0.226l-0.056-0.003c-0.182 0-0.324 0.056-0.426 0.167s-0.154 0.268-0.154 0.468v0.878h-0.233v-1.723h0.223v0.337zM26.432 18.018v1.723h-0.223v-0.341c-0.070 0.116-0.162 0.204-0.277 0.265s-0.244 0.092-0.388 0.092c-0.162 0-0.308-0.037-0.439-0.111s-0.233-0.178-0.308-0.311c-0.074-0.133-0.112-0.285-0.112-0.455s0.037-0.322 0.112-0.455c0.074-0.133 0.177-0.236 0.308-0.309s0.278-0.11 0.439-0.11c0.14 0 0.266 0.029 0.378 0.087s0.205 0.142 0.277 0.254v-0.328h0.233zM25.564 19.55c0.12 0 0.229-0.027 0.326-0.084s0.174-0.135 0.229-0.237c0.056-0.102 0.084-0.219 0.084-0.35s-0.027-0.248-0.084-0.35c-0.056-0.102-0.132-0.182-0.229-0.238s-0.206-0.083-0.326-0.083c-0.123 0-0.232 0.027-0.329 0.083s-0.174 0.135-0.229 0.238-0.084 0.219-0.084 0.35c0 0.131 0.028 0.248 0.084 0.35s0.132 0.182 0.229 0.237c0.097 0.056 0.207 0.084 0.329 0.084zM28.377 18.018l-0.767 1.723h-0.239l-0.763-1.723h0.242l0.645 1.467 0.652-1.467h0.229zM29.241 19.55c0.107 0 0.206-0.019 0.296-0.057s0.168-0.095 0.231-0.168l0.131 0.151c-0.076 0.092-0.171 0.162-0.285 0.21s-0.239 0.072-0.377 0.072c-0.177 0-0.334-0.037-0.471-0.113s-0.245-0.179-0.321-0.313-0.115-0.284-0.115-0.452c0-0.168 0.037-0.319 0.109-0.452s0.175-0.237 0.304-0.312c0.128-0.074 0.275-0.111 0.439-0.111 0.153 0 0.291 0.035 0.414 0.105s0.222 0.167 0.295 0.291 0.112 0.266 0.116 0.425l-1.415 0.275c0.044 0.14 0.123 0.249 0.238 0.329s0.252 0.119 0.411 0.119zM29.182 18.204c-0.12 0-0.228 0.027-0.322 0.084s-0.169 0.133-0.223 0.233c-0.054 0.099-0.080 0.213-0.080 0.342 0 0.033 0.001 0.057 0.003 0.072l1.215-0.236c-0.026-0.144-0.093-0.262-0.2-0.355s-0.238-0.139-0.393-0.139zM30.816 19.756c-0.155 0-0.275-0.044-0.359-0.131s-0.126-0.208-0.126-0.364v-1.952h0.233v1.932c0 0.102 0.024 0.18 0.072 0.234s0.12 0.080 0.216 0.080c0.061 0 0.113-0.010 0.157-0.030l0.017 0.194c-0.068 0.024-0.137 0.035-0.21 0.035z"></path>
</svg>
