<?xml version="1.0" encoding="UTF-8"?>
<!DOCTYPE svg PUBLIC "-//W3C//DTD SVG 1.1//EN" "http://www.w3.org/Graphics/SVG/1.1/DTD/svg11.dtd">
<!-- Creator: CorelDRAW 2017 -->
<svg xmlns="http://www.w3.org/2000/svg" xml:space="preserve" width="8.4666mm" height="8.4666mm" version="1.1" style="shape-rendering:geometricPrecision; text-rendering:geometricPrecision; image-rendering:optimizeQuality; fill-rule:evenodd; clip-rule:evenodd"
viewBox="0 0 846.66 846.66"
 xmlns:xlink="http://www.w3.org/1999/xlink">
 <defs>
  <style type="text/css">
   <![CDATA[
    .fil0 {fill:none}
    .fil2 {fill:#F6F5F5}
    .fil4 {fill:#FAB49D}
    .fil1 {fill:#FB8F6B}
    .fil3 {fill:#FE5A24}
   ]]>
  </style>
 </defs>
 <g id="Capa_x0020_1">
  <metadata id="CorelCorpID_0Corel-Layer"/>
  <rect class="fil0" width="846.66" height="846.66"/>
  <g id="_2915689433664">
   <path class="fil1" d="M649.8 735.11c2.82,0.6 2.05,0.61 4.78,-0.34 1.58,-6.17 0.05,-19.76 0.64,-27.1l14 -0.19 0.07 18.81c-0.21,3.04 -0.78,4.47 1.32,6.34l-0.39 -25.83 -15.93 -0.2 -0.28 27.57c-0.22,0.02 -2.18,0.17 -2.23,0.18l-1.59 0.51c-0.1,0.03 -0.26,0.17 -0.39,0.25z"/>
   <path class="fil1" d="M417.47 749.7c1.28,5.33 0.16,14.36 0.6,20.36 3.45,0.89 12.47,0.87 15.93,0 0.31,-3.97 0.15,-7.98 0.15,-11.96 0,-1.89 0.02,-3.78 0,-5.66 -0.03,-3.9 0.24,-4.12 -1.05,-5.55l0.12 22.55 -14.37 0.23 0 -17.94c-0.49,-3.95 0.04,-0.92 -1.38,-2.03z"/>
   <path class="fil2" d="M332.78 794.14c0.94,-6.08 0.31,-17.26 0.34,-24.03 0.12,-21.33 -6.43,-21.64 -29.01,-20.72 -8.14,0.33 -12.75,3.6 -13.34,11.55 -0.59,7.94 -0.5,16.74 -0.31,24.72 0.43,18.38 2.25,22.63 29.26,20.54 7.81,-0.61 11.89,-4.46 13.06,-12.06z"/>
   <path class="fil2" d="M607.66 768.3c1.8,-6.31 -0.07,-13.09 -4.33,-16.15 -4.8,-3.44 -13.27,-2.84 -20.08,-2.83 -7.75,0.01 -11.12,0.79 -14.87,5.22 -3.15,3.72 -5.13,12.54 0.18,14.03 1.77,0.49 36.19,1.02 39.1,-0.27z"/>
   <path class="fil3" d="M467.37 414.64c10.12,-10.67 50.22,-61.4 61.5,-74.94 6.27,-7.52 60.54,-73.37 61.28,-75.66 -3.35,-2.14 -94.79,-18.97 -107.62,-21.51 -13.14,-2.6 -43.72,-11.35 -54.81,-6.1 -7.7,3.65 -25.49,25.35 -32.18,32.81 -2.64,2.94 -5.3,5.51 -7.87,8.38 -10.06,11.3 -17.16,14.72 -11.61,33.23 2.15,7.16 19.87,71.61 23.14,74.4l45.16 19.88c5.07,2.2 18.26,8.62 23.01,9.51z"/>
   <path class="fil3" d="M145.94 173.51l321.66 54.32c-0.83,-3.5 -2.87,-4.25 -7.62,-8l-92.78 -73.29c-5.85,-4.6 -11.11,-8.85 -16.96,-13.42 -2.96,-2.32 -5.56,-4.37 -8.29,-6.55 -2.18,-1.73 -6.59,-5.62 -8.85,-6.69 -5.31,-2.54 -18.22,2.52 -23.91,4.26l-140.67 41.73c-3.96,1.21 -21.13,4.96 -22.58,7.64z"/>
   <path class="fil3" d="M492.78 231.41c-0.58,-4.23 -7.07,-16.84 -9.03,-21.21l-28.65 -62.52c-11.28,-24.14 -7.27,-18.54 -31.26,-29.5 -40.02,-18.29 -86.83,-37.84 -127.55,-55.46 -14.09,-6.09 -28.38,-12.38 -42.41,-18.41l-43.15 -18.47c1.17,3.69 22.72,32.44 26.64,37.83 9.04,12.42 18.22,25.16 27.26,37.74 18.7,26.03 11.69,23.2 37.96,14.77 8.07,-2.59 16.32,-5.35 24.44,-8 8.73,-2.85 11.21,1.71 21.09,9.39l108.2 85.43c6.37,4.98 32.35,26.04 36.46,28.41z"/>
   <path class="fil3" d="M269.66 460.91c6.93,0.8 177.7,22.72 183.57,22.18 1.21,-3.77 1.89,-14.92 2.4,-19.65 0.69,-6.4 1.5,-12.8 2.4,-19.26 2.42,-17.35 2.41,-13.86 -18.39,-24.47 -10.23,-5.22 -19.35,-9.84 -29.55,-15.03 -9.75,-4.96 -19.09,-10.94 -31.98,-12.53 -29.83,-3.7 -51.03,10.83 -64.5,24.14 -8,7.9 -14.69,14.57 -22.37,22.15 -3.14,3.1 -20.88,20.02 -21.58,22.47z"/>
   <path class="fil3" d="M363.49 602.39c6.98,-6.89 35.92,-41.83 44.2,-51l43.21 -51.77 -157.37 -17.92c-6.87,-0.76 -16.92,-2.45 -23.4,-2.32 1.45,3.35 19.26,26.14 22.99,31.05 7.87,10.34 15.64,20.62 23.44,30.97 4.82,6.38 44.74,60.15 46.93,60.99z"/>
   <path class="fil3" d="M573.26 414.63c18.05,-0.54 34.14,-14.07 41.26,-22.48 8.96,-10.58 17.49,-24.09 23.2,-40.4 6.14,-17.52 10.53,-25.76 2.13,-35.47 -5.39,-6.22 -34.89,-41.75 -38.23,-42.55 -2.58,1.63 -29.55,35.81 -35.13,42.81 -2,2.51 -3.62,4.49 -5.66,7.06 -1.8,2.26 -4.53,5.2 -5.98,7.43 -3.23,4.96 0.76,15.91 2.15,21.37l16.26 62.23z"/>
   <path class="fil3" d="M372.11 609.67c2.78,2 34.4,9.01 40.98,10.54 37.61,8.73 55.99,3.02 93.86,-2.06 15.29,-2.05 31.03,-4.37 46.23,-6.2 -2.08,-3.65 -19.56,-11.14 -24.39,-13.58l-74.7 -37.58c-4.48,-2.3 -8.17,-4.16 -12.25,-6.18 -4.74,-2.36 -8.55,-5.85 -13.27,-1.42 -6.41,5.99 -12.23,12.68 -18.49,18.97 -6.4,6.43 -12.24,12.43 -18.72,18.73 -3.79,3.68 -17.03,15.76 -19.25,18.78z"/>
   <path class="fil3" d="M234.17 819.13l16.4 0.36 -0.07 -112.43 -15.91 0.41 -0.39 44.9c-4.78,0.66 -36.72,0.76 -41.05,-0.12l-0.23 -45.3 -15.5 0.07c-0.84,3.07 -1.09,106.63 -0.16,113.09l16.38 -0.23 0.02 -52.93c6.28,-0.36 35.13,-0.84 39.63,0.52 2.05,5.55 0.78,42.53 0.88,51.66z"/>
   <path class="fil3" d="M607.66 768.3c-2.91,1.29 -37.33,0.76 -39.1,0.27 -5.31,-1.49 -3.33,-10.31 -0.18,-14.03 3.75,-4.43 7.12,-5.21 14.87,-5.22 6.81,-0.01 15.28,-0.61 20.08,2.83 4.26,3.06 6.13,9.84 4.33,16.15zm11.94 38.25c-12.71,-2.12 -42.59,3.53 -50.15,-4.26 -3.12,-3.22 -7.67,-17.95 -0.23,-19.34 4.55,-0.85 20.9,-0.01 26.75,-0.03 24.43,-0.11 32.3,4.3 28.17,-23.96 -2.17,-14.92 -13.16,-23.43 -29.56,-23.84 -19.79,-0.49 -32.69,-0.22 -40.9,13.17 -4.38,7.14 -4.17,13.18 -4.2,22.53 -0.04,15.64 -2.7,33.3 10.01,43.56 6,4.85 12.06,5.33 20.92,5.7 9.03,0.37 17.85,0.05 26.87,-0.06 13.59,-0.17 13.83,2.61 12.32,-13.47z"/>
   <path class="fil3" d="M332.78 794.14c-1.17,7.6 -5.25,11.45 -13.06,12.06 -27.01,2.09 -28.83,-2.16 -29.26,-20.54 -0.19,-7.98 -0.28,-16.78 0.31,-24.72 0.59,-7.95 5.2,-11.22 13.34,-11.55 22.58,-0.92 29.13,-0.61 29.01,20.72 -0.03,6.77 0.6,17.95 -0.34,24.03zm-58.61 1.42c1.3,10.77 8.59,19.06 17.21,22.73 7.16,3.05 29.13,3.26 37.35,1.05 10.17,-2.74 17.28,-11.07 19.51,-20.53 1.41,-5.98 1.32,-31.46 0.69,-38.52 -1,-11.15 -8.36,-19.56 -16.87,-22.99 -7.59,-3.06 -29.26,-3.11 -37.66,-1.04 -9.75,2.39 -17.39,10.56 -19.65,20.7 -1.15,5.14 -1.31,32.64 -0.58,38.6z"/>
   <path class="fil3" d="M470.72 749.44c5.56,-0.5 21.23,-0.54 26.32,0.19 9.01,1.31 11.9,5.61 12.45,15.08 1.02,17.95 -0.55,36.75 0.45,55.21l15.57 -0.07c0.03,-10.22 0.08,-20.44 0.09,-30.66 0,-19.74 3.7,-38.54 -11.9,-49.16 -7.12,-4.84 -14.32,-4.85 -24.43,-4.96 -33.67,-0.38 -34.94,-3.99 -34.85,10.3 0.15,23.11 -0.9,53.37 0.61,74.53l15.4 -0.05 0.29 -70.41z"/>
   <path class="fil3" d="M649.8 735.11l-9.25 0.09 0.14 14.22 13.7 0.39c0.44,13.8 -0.79,49.09 0.24,58.5 1.09,9.86 6.74,11.57 16.94,11.79 6.27,0.14 23.12,0.72 28.5,-0.37l-0.01 -13.14c-4.97,-1.82 -22.54,0.27 -29.63,-0.83l0.22 -56.49 29.2 -0.4c0.75,-2.28 1.29,-8.55 0.45,-11.01 -1.55,-4.55 -13.32,-3.06 -20.95,-2.97 -3.77,0.05 -7.12,0.84 -8.74,-2.26 -2.1,-1.87 -1.53,-3.3 -1.32,-6.34l-0.07 -18.81 -14 0.19c-0.59,7.34 0.94,20.93 -0.64,27.1 -2.73,0.95 -1.96,0.94 -4.78,0.34z"/>
   <path class="fil3" d="M417.47 749.7c1.42,1.11 0.89,-1.92 1.38,2.03l0 17.94 14.37 -0.23 -0.12 -22.55c0.25,-5.44 -3.52,-9.39 -7.97,-10.88 -5.66,-1.9 -48.05,-2.01 -52.53,0.02 -1.25,4.31 -1.46,78.03 -0.23,83.04 2.15,1.22 5.43,0.82 8.08,0.81 2.62,-0.01 5,0.08 7.64,-0.22l0.27 -69.91 29.11 -0.05z"/>
   <path class="fil3" d="M644.13 300.11c3.48,-2.32 14.08,-17.58 16.92,-21.86 4.19,-6.34 5.05,-5.6 2.92,-14.28 -0.9,-3.67 -2.6,-12.83 -4.4,-15.33 -2.75,1.61 -3.52,8.85 -4.35,11.79 -2.7,9.59 -9.99,32.9 -11.09,39.68z"/>
   <path class="fil4" d="M192.92 706.95l0.23 45.3c4.33,0.88 36.27,0.78 41.05,0.12l0.39 -44.9 15.91 -0.41 0.07 112.43 -16.4 -0.36c0.93,1.86 -0.42,0.51 1.49,1.12l15.16 -0.23c0.98,-3.33 1.18,-108.67 0.1,-113.34 -3.24,-0.89 -14.07,-1.06 -16.99,0.24l-0.25 44.97 -39.64 -0.02 0.01 -42.57c-0.63,-3.31 0.09,-1.07 -1.13,-2.35z"/>
  </g>
 </g>
</svg>
