<?xml version="1.0" encoding="UTF-8"?>
<!DOCTYPE svg PUBLIC "-//W3C//DTD SVG 1.1//EN" "http://www.w3.org/Graphics/SVG/1.1/DTD/svg11.dtd">
<!-- Creator: CorelDRAW 2017 -->
<svg xmlns="http://www.w3.org/2000/svg" xml:space="preserve" width="8.4666mm" height="8.4666mm" version="1.1" style="shape-rendering:geometricPrecision; text-rendering:geometricPrecision; image-rendering:optimizeQuality; fill-rule:evenodd; clip-rule:evenodd"
viewBox="0 0 846.66 846.66"
 xmlns:xlink="http://www.w3.org/1999/xlink">
 <defs>
  <style type="text/css">
   <![CDATA[
    .fil0 {fill:none}
    .fil1 {fill:#373435}
   ]]>
  </style>
 </defs>
 <g id="Capa_x0020_1">
  <metadata id="CorelCorpID_0Corel-Layer"/>
  <rect class="fil0" width="846.66" height="846.66"/>
  <rect class="fil0" width="846.66" height="846.66"/>
  <g id="_2915792732688">
   <path class="fil1" d="M419.64 339.34l6.88 -8.2 -14.87 -1.32c-7.01,4.37 -2.83,4.42 -2.86,6.72l10.85 2.83 0 -0.03z"/>
   <path class="fil1" d="M435.25 348.31l0.05 -10.11 -10.21 0.56c1.53,1.8 2.51,5.79 3.28,6.46 2.14,1.83 -1.22,1.4 6.88,3.1l0 -0.01z"/>
   <path class="fil1" d="M115.4 641.06l-0.21 9.02c18.81,-0.24 6.93,-3.15 21.72,-3.6l6.69 -5.61c-6.32,-0.24 -4,-0.26 -9.66,0.45 -1.11,0.13 -4.13,1.01 -5.19,1.14 -9.47,1.01 -3.92,1.32 -13.36,-1.4l0.01 0z"/>
   <path class="fil1" d="M309.23 136.19l6.83 -1.16c0.03,-1.03 0.08,-5.5 -0.16,-6.24 -3.33,-10.08 -0.03,-2.22 -3.84,-7.67 -8.1,5.58 -4.76,-2.57 -4.52,6.72 0.29,10.08 5.45,-7.67 1.69,8.36l0 -0.01z"/>
   <path class="fil1" d="M449.77 529.33c5.13,2.65 10.37,3.62 16.59,5.82 -3.15,-6.3 -4.37,-4.42 -9.39,-8.81 -0.58,-0.5 -2.57,-2.57 -3.2,-3.39 -5.29,3.6 -1.53,-1.03 -4,6.38z"/>
   <path class="fil1" d="M383.53 124.36l2.25 -0.05c5.45,-17.28 2.83,-4.6 -2.86,-9.6 -9.23,6.85 -7.96,3.73 0.61,9.66l0 -0.01z"/>
   <path class="fil1" d="M398.63 122.72c1.3,-2.28 3.36,3.62 2.35,-6.24 -0.66,-6.51 -0.4,-2.51 -2.67,-5.56 -11.4,13.15 -4.95,6.46 0.32,11.8z"/>
   <path class="fil1" d="M610.69 104.63l-1.35 0.56 -10.61 13.28c13.34,-5.45 7.59,5.77 11.96,-13.84z"/>
   <path class="fil1" d="M502.21 402.84c17.22,-2.54 7.78,2.78 9.66,-8.1 -14.79,5.11 -5.66,-2.62 -9.66,8.1z"/>
   <path class="fil1" d="M266.66 122.54l3.36 -1.75c1.51,-3.55 1.19,-1.72 1.01,-6.51 -3.41,1.8 -13.78,2.99 -4.34,8.26l-0.03 0z"/>
   <path class="fil1" d="M554.7 380.64c0,-18.12 0.4,-5.34 -6.64,-10.19 3.62,8.52 0.61,5.4 6.64,10.19z"/>
   <path class="fil1" d="M104.66 564.36c9.79,-4.39 13.36,-0.9 -0.03,-8.23l0.03 8.23z"/>
   <path class="fil1" d="M697.05 279.73c13.57,9 3.12,2.17 7.28,-2.54 -16.91,-2.67 -3.39,-0.05 -7.28,2.54z"/>
   <path class="fil1" d="M745.97 229.01c-4.47,-9.26 0.93,-4.76 -7.59,-6.77 1.48,8.39 -4.68,3.36 7.59,6.77z"/>
   <path class="fil1" d="M319.66 114.28c9.71,-3.57 5.37,3.7 6.59,-5.93 -10.5,-0.58 -3.1,-3.62 -6.59,5.93z"/>
   <path class="fil1" d="M406.52 458.44l10.19 -7.14c-6.93,-0.24 -8.2,-2.25 -10.19,7.14z"/>
   <path class="fil1" d="M435.31 422.13l1.08 -8.41c-3.94,0.77 -3.65,-7.75 -4.05,2.51 -0.45,11.37 -5.66,-0.64 2.99,5.9l-0.02 0z"/>
   <path class="fil1" d="M482.37 113.31c0.13,2.17 7.2,11.46 4.1,0.56 -1.67,-5.9 -4.34,-5.11 -4.1,-0.56z"/>
   <path class="fil1" d="M107.38 689.35c7.49,3.49 5.45,2.35 9.31,-0.48 -5,-2.65 -5.19,-3.55 -9.31,0.48z"/>
   <path class="fil1" d="M194.64 393.76c1.32,9.79 4.95,3.36 4.05,0.9 -2.51,-6.72 -4.58,-4.79 -4.05,-0.9z"/>
   <path class="fil1" d="M647.86 113.31c0.53,6.64 6.06,5.64 4.42,0.48 -1.53,-4.92 -4.66,-3.36 -4.42,-0.48z"/>
   <path class="fil1" d="M673.1 507.76l4.89 2.25c0.37,-0.08 1.8,-0.56 2.17,-0.66 0.4,-0.13 1.3,-1.14 2.01,-1.61 -5,-3.12 -3.89,-2.25 -9.05,0l-0.02 0.02z"/>
   <path class="fil1" d="M251.18 119.5c0.87,0.45 2.12,0.53 2.51,1.43l-2.51 -1.43z"/>
   <path class="fil1" d="M166.91 715.01c30.9,6.46 32.78,15.72 54.29,5.58l-39.87 -8.39c-25.51,-3.89 -10,-1.59 -14.42,2.78l0 0.03z"/>
   <path class="fil1" d="M423.43 124.02l13.1 -1.96c9.83,-5.27 4.42,1.08 14.12,-5.66 -4.97,-3.86 1.59,-0.98 -5.9,-3.57 -9.41,-3.23 -16.95,-2.17 -24.65,0.24l3.33 10.98 0 -0.03z"/>
   <path class="fil1" d="M599.79 267.4c5.05,9.92 -0.45,3.7 8.1,9.1l6.3 -9.31c0.08,-0.34 0.5,-1.22 0.58,-1.56 0.08,-0.34 0.26,-1.3 0.29,-1.59l-3.81 -4.23c-0.26,0.05 -1.38,0.08 -1.72,0.21l-9.74 7.38z"/>
   <path class="fil1" d="M415.75 511.36c1.11,-1.24 9.23,3.94 3.07,-11.19l-9.63 -10.27c2.14,9.1 3.65,15.35 6.56,21.43l0 0.03z"/>
   <path class="fil1" d="M677.23 261.21c0.16,0.29 0.5,0.42 0.58,0.87 0.08,0.5 0.66,0.79 0.77,0.95 0.16,0.19 0.82,0.98 1.01,1.22l2.54 3.18c2.91,3.81 3.6,5.21 5.85,7.86 3.47,-6.77 -0.32,-18.52 -10.77,-14.08l0.02 0z"/>
   <path class="fil1" d="M404.48 491.76c0.34,-0.53 0.9,-2.01 1.08,-1.59l7.65 -10.29c-6.3,-3.62 -3.41,-1.4 -8.73,-6.4l0 18.26 0 0.02z"/>
   <path class="fil1" d="M720.89 298.22c5.72,3.68 -9.29,4.13 6.61,2.78 9.13,-0.77 3.15,-0.93 5.45,-2.78 -8.26,-8.97 -2.7,-6.69 -12.07,0l0.01 0z"/>
   <path class="fil1" d="M658.5 248.9c9.39,3.73 8.68,-0.71 9.95,-5.08 -4.52,-0.32 -6.09,-4.07 -9.95,5.08z"/>
   <path class="fil1" d="M475.51 122.06l2.06 -9.55 -10.95 7.17c6.64,3.47 -1.3,0.77 8.89,2.38z"/>
   <path class="fil1" d="M400.86 467.7c0.29,11.51 5.79,4.66 4.74,0.61 -1.01,-3.81 -4.97,-9.63 -4.74,-0.61z"/>
   <path class="fil1" d="M128.26 569.09c4.63,-12.2 -0.34,-6.69 -1.14,-7.88 -6.09,7.73 -4.92,4.02 1.14,7.88z"/>
   <path class="fil1" d="M686.54 241.5l-7.33 -5.13c2.33,13.12 0.11,10.98 7.33,5.13z"/>
   <path class="fil1" d="M721.57 113.83c-4.21,-5.72 1.08,-3.18 -8.63,-6.4 3.15,8.28 -2.43,5.42 8.63,6.4z"/>
   <path class="fil1" d="M252.69 220.75c14.21,-2.88 3.33,2.46 8.6,-7.94 -9.1,4.05 -3.78,2.01 -8.6,7.94z"/>
   <path class="fil1" d="M663.08 464.64c-0.53,8.57 8.49,-2.01 3.31,-1.51 -7.06,0.69 -2.88,-5.48 -3.31,1.51z"/>
   <path class="fil1" d="M674.58 241.68c-0.87,-7.54 0.82,-4.31 -5.32,-7.38 2.8,6.01 0.11,3.57 5.32,7.38z"/>
   <path class="fil1" d="M319.66 114.28c-5.56,1.56 -3.52,-2.86 -2.67,6.19 8.39,-6.03 2.59,2.75 2.67,-6.19z"/>
   <path class="fil1" d="M479.22 486.78c-5.29,5.5 -1.98,3.73 0.48,0.87 3.7,-4.31 3.07,-4.55 -0.48,-0.87z"/>
   <path class="fil1" d="M237 715.8c4.66,5.82 6.32,2.78 1.08,13.55 -1.51,-1.56 -2.59,-0.26 -4.55,-5 -6.11,-14.63 -1.61,12.86 -0.56,-3.47 0.03,-0.5 3.36,-4.39 4.02,-5.08l0.01 0zm-70.09 -0.79c-0.48,0.45 -1.27,1.01 -1.51,1.3l-6.54 11.54c-0.13,-0.45 -0.56,1.43 -0.9,1.88l-11.03 -0.93c-1.59,-16.03 3.76,-16.19 19.98,-13.81l0 0.02zm0 0c4.42,-4.39 -11.09,-6.69 14.42,-2.78l39.87 8.39c-21.51,10.13 -23.39,0.87 -54.29,-5.58l0 -0.03zm-8.97 -13.52c-8.1,-18.23 6.06,-17.49 6.16,-17.54 8.2,3.44 1.19,-3.78 8.47,7.99 -2.35,2.38 -2.12,6.01 -14.63,9.55zm-50.56 -12.14c4.13,-4.02 4.31,-3.12 9.31,-0.48 -3.89,2.86 -1.83,3.97 -9.31,0.48zm570.06 -42.89c0.87,-9.6 1.61,-14.92 5.53,-20.45 17.78,15.5 5.05,20.51 5.03,20.58l-10.56 -0.13zm-380.8 -2.83c-4.74,-2.51 -12.28,-0.05 -4.15,-18.31 2.57,2.01 11.01,4.39 4.15,18.31zm-169.52 -82.42c0.79,1.19 5.77,-4.31 1.14,7.88 -6.06,-3.84 -7.22,-0.16 -1.14,-7.88zm-22.46 3.15l-0.03 -8.23c13.39,7.33 9.82,3.84 0.03,8.23zm568.44 -56.6c5.19,-2.25 4.05,-3.12 9.05,0 -0.71,0.48 -1.59,1.48 -2.01,1.61 -0.37,0.08 -1.8,0.58 -2.17,0.66l-4.89 -2.25 0.02 -0.02zm-254.28 -7.56c6.16,15.13 -1.96,9.95 -3.07,11.19 -2.91,-6.09 -4.42,-12.33 -6.56,-21.43l9.63 10.27 0 -0.03zm108.79 0.1c13.18,-7.49 6.91,-9.82 18.63,-13.28 6.72,11.91 -2.94,7.04 3.39,17.49 6.91,11.43 6.75,-2.01 8.15,15.61 -8.04,3.68 -1.56,2.65 -12.07,-0.48 6.69,21.78 4.52,14.98 -16.75,5.37 0.29,-9.82 -0.05,-0.13 1.56,-5.82 3.47,-12.28 -0.16,-3.73 -2.94,-18.89l0.03 0zm-47.92 -12.65c3.7,-4.31 3.07,-4.55 -0.48,-0.87 -5.29,5.5 -1.98,3.73 0.48,0.87zm-75.21 4.11l0 -18.26c5.32,5 2.43,2.78 8.73,6.4l-7.65 10.29c-0.16,-0.42 -0.71,1.06 -1.08,1.59l0 -0.02zm-3.62 -24.06c-0.24,-9.02 3.73,-3.18 4.74,0.61 1.06,4.02 -4.45,10.87 -4.74,-0.61zm262.22 -3.06c0.45,-6.99 -3.73,-0.79 3.31,-1.51 5.19,-0.5 -3.84,10.08 -3.31,1.51zm-256.56 -6.2c1.98,-9.39 3.25,-7.38 10.19,-7.14l-10.19 7.14zm28.79 -36.31c-8.63,-6.54 -3.41,5.47 -2.99,-5.9 0.4,-10.27 0.11,-1.75 4.05,-2.51l-1.08 8.41 0.02 0zm66.9 -19.29c4,-10.72 -5.13,-2.99 9.66,-8.1 -1.88,10.9 7.57,5.56 -9.66,8.1zm-307.57 -9.08c-0.53,-3.89 1.53,-5.82 4.05,0.9 0.9,2.46 -2.73,8.89 -4.05,-0.9zm360.06 -13.12c-6.03,-4.76 -3.02,-1.67 -6.64,-10.19 7.04,4.84 6.64,-7.96 6.64,10.19zm-129.61 -41.91l10.21 -0.56 -0.05 10.11c-7.46,5.9 -3.89,2.51 -3.97,14.53 -9.05,-1.48 -5.98,-2.54 -11.4,3.57l-3.78 -12.65 -7.22 4.82c-4.21,-16.38 -7.99,-8.2 -7.17,-26.88l9.95 -1.85 14.87 1.32 -6.88 8.2 5.45 -0.61 -0.01 0zm295.8 -40.51c9.37,-6.69 3.81,-8.97 12.07,0 -2.33,1.85 3.68,2.01 -5.45,2.78 -15.9,1.35 -0.87,0.9 -6.61,-2.78l-0.01 0zm-23.84 -18.49c3.89,-2.57 -9.63,-5.21 7.28,-2.54 -4.15,4.71 6.3,11.51 -7.28,2.54zm-19.24 -17.65c-0.05,-0.45 -0.42,-0.56 -0.58,-0.87 10.45,-4.45 14.23,7.3 10.77,14.08 -2.25,-2.65 -2.94,-4.05 -5.85,-7.86l-2.54 -3.18c-0.19,-0.26 -0.87,-1.03 -1.01,-1.22 -0.13,-0.16 -0.69,-0.45 -0.77,-0.95l-0.02 0zm-68.29 -2.06c0.34,-0.13 1.43,-0.16 1.72,-0.21l3.81 4.23c-0.05,0.29 -0.24,1.27 -0.29,1.59 -0.05,0.32 -0.48,1.22 -0.58,1.56l-6.3 9.31c-8.52,-5.4 -3.04,0.82 -8.1,-9.1l9.74 -7.38zm48.98 -11.12c3.89,-9.15 5.45,-5.4 9.95,-5.08 -1.3,4.37 -0.58,8.81 -9.95,5.08zm28.04 -7.4c-7.22,5.85 -5,7.99 -7.33,-5.13l7.33 5.13zm-454.49 -8.47c5.08,10.61 3.57,9.87 -3.2,18.26 -2.33,-6.38 2.12,4.21 -1.27,-5 -0.5,-1.43 -2.38,-4.82 -2.54,-5.5 -2.3,-11.01 -0.69,-5.53 7.01,-7.75l0 -0.01zm442.53 8.65c-5.21,-3.84 -2.51,-1.4 -5.32,-7.38 6.14,3.07 4.45,-0.13 5.32,7.38zm71.39 -12.67c-12.28,-3.41 -6.11,1.61 -7.59,-6.77 8.52,2.01 3.12,-2.51 7.59,6.77zm-493.28 -8.26c4.82,-5.93 -0.5,-3.89 8.6,-7.94 -5.27,10.4 5.61,5.05 -8.6,7.94zm191.71 -88.42c11.03,-3.68 6.09,-5.58 15.56,-12.12 21.27,11.91 18.73,12.7 19.34,23.92 -14.42,7.38 -12.99,6.85 -18.26,-1.93 -4.29,6.85 -3.39,5.21 -10.32,10.08 -4.79,-5.82 -4.63,-9 -6.32,-19.98l0 0.03zm-128.37 2.7c5.27,5.5 8.07,0.45 6.43,18.86l-9.68 3.92c-0.11,0.05 -6.69,2.59 -7.09,2.78 -2.83,-11.4 -1.53,-16.7 3.52,-24.42 3.76,-16.03 -1.4,1.72 -1.69,-8.36 -0.26,-9.26 -3.57,-1.14 4.52,-6.72 3.81,5.45 0.5,-2.41 3.84,7.67 0.24,0.71 0.19,5.21 0.16,6.24l-0.01 0.03zm205.41 -6.19c-8.47,13.6 -8.78,-7.28 -15.37,17.86l-17.09 -0.79c-1.72,-26.88 5.77,-8.49 -13.47,-23.84l32.46 4.6c5.05,0.93 2.8,2.12 13.47,2.17zm-270.26 -9.34c0.87,0.45 2.12,0.53 2.51,1.43l-2.51 -1.43zm383.24 0.79l-6.88 -7.88c10.61,3.7 4.92,-5.58 6.88,7.88zm-158.91 1.77c-10.19,-1.61 -2.25,1.08 -8.89,-2.38l10.95 -7.17 -2.06 9.55zm-76.88 0.66c-5.27,-5.34 -11.72,1.38 -0.32,-11.8 2.28,3.04 2.01,-0.98 2.67,5.56 1.01,9.87 -1.08,3.94 -2.35,6.24zm-131.97 -0.18c-9.45,-5.27 0.95,-6.46 4.34,-8.26 0.19,4.76 0.5,2.96 -1.01,6.51l-3.36 1.75 0.03 0zm381.2 -9.23c-0.24,-2.88 2.88,-4.45 4.42,0.48 1.61,5.16 -3.89,6.16 -4.42,-0.48zm-165.49 0c-0.24,-4.55 2.43,-5.34 4.1,0.56 3.1,10.9 -3.97,1.61 -4.1,-0.56zm-45.85 8.73l6.79 1.75 1.06 8.52 -6 18.47c-20.53,-0.9 -4.18,3.6 -9.23,-8.76 -18.12,3.62 -5.03,0.87 -7.75,4.87l-1.27 4.37c-0.05,-0.37 0.03,1.06 -1.4,1.8l-1.06 -6.11 -6.91 7.46 -13.39 -3.1c-0.26,-0.05 -1.03,-0.26 -1.22,-0.29 -5.74,-0.53 2.54,-3.86 -7.06,4.79 -10.32,-5.93 -42.57,2.04 -58.13,-1.93 -4.21,-12.59 -2.12,-25.8 8.84,-31.49 -1.77,-5.87 -1.19,-2.51 -0.03,-4.84 30.77,6.43 20.19,9.97 33.89,16.22 10.93,-7.01 4.95,1.48 9.84,-9.39 -8.57,-5.93 -9.84,-2.83 -0.61,-9.66 5.69,5 8.31,-7.67 2.86,9.6l12.86 -1.59 2.78 5.21c9.42,-3.07 10.37,-5.16 22.01,-3.92l-3.33 -10.98c7.7,-2.41 15.24,-3.47 24.65,-0.24 7.49,2.59 0.93,-0.29 5.9,3.57 -9.67,6.72 -4.29,0.4 -14.12,5.66l0.03 0.01zm-116.86 -7.76c-0.08,8.94 5.72,0.16 -2.67,6.19 -0.82,-9.05 -2.88,-4.63 2.67,-6.19zm401.91 -0.45c-11.06,-0.98 -5.48,1.91 -8.63,-6.4 9.71,3.2 4.45,0.66 8.63,6.4zm-401.91 0.45c3.49,-9.55 -3.92,-6.51 6.59,-5.93 -1.22,9.63 3.12,2.35 -6.59,5.93zm130.11 415.05c2.46,-7.38 -1.3,-2.75 4,-6.38 0.64,0.79 2.62,2.86 3.2,3.39 5.03,4.39 6.22,2.51 9.39,8.81l-0.11 13.28c0.26,14.13 -2.88,-13.71 3.2,6.72 1.85,6.16 -0.11,3.33 -1.83,17.44l-5.37 34.21c19.87,4.82 21.51,-5.79 24.55,9.26 -7.78,2.86 -5.72,1.64 -10.87,-3.39l10.29 50.91c4.23,9.45 3.25,2.65 5.42,15.45 6.85,-11.14 -2.01,-5.79 11.43,-5.87 0.95,1.48 5.66,7.7 4,12.86 -1.38,4.26 -4.95,4.15 -9.6,6.75 2.86,12.3 -0.61,0.24 6.83,13.52 -16.93,3.78 -6.46,-2.88 -16.77,9.84l-14.95 -10.45c2.06,-8.78 2.01,-5.42 2.57,-6.99 6.85,-19.13 -0.16,-25.08 -6.77,-45.14 -5.45,-16.51 -8.47,-17.52 -17.7,-37.65l-6.11 -9.45c-18.83,6.85 -22.69,3.39 -36.9,4.1l-10.32 1.93c-10.72,12.75 -5.37,11.62 2.54,22.97 7.04,10.13 19.53,76.33 12.86,83.98 -7.14,7.38 -2.94,-1.35 -9.66,-2.46 -6.83,-1.11 -3.1,-0.42 -10.56,3.02 0,-18.18 -7.86,-20.72 -24.69,-30.8 -16.51,-9.87 -8.6,-3.28 -10.93,-17.17 -2.49,-14.79 -6.54,-3.57 -4.84,-16.19 4.74,-35.06 -12.62,-20.9 7.75,-52.97 -25.11,-3.68 -54.4,-14.74 -70.86,-28.81 -20.64,-17.67 -25.14,-28.63 -31.96,-62.52l-156.02 0.79c-1.83,12.38 2.88,8.94 -0.26,27.33 -1.88,10.98 -4.1,16.43 3.97,24.63 -6.16,20.8 -2.67,55.03 -2.46,82.07l12.99 3.62 0.21 -9.02c6.59,-6.61 7.01,-10.05 17.91,-13.1 4.76,3.52 1.51,-0.34 6.43,6.06 5.19,6.75 -0.03,0.03 3.84,6.85l-6.69 5.61c25.53,3.07 21.22,-1.59 39.32,11.17 -1.32,7.91 -2.86,13.55 -6.8,18.73 -15.93,-5.58 5.53,-7.96 -22.78,-10.4 -52.26,-4.5 -45.43,13.31 -44.21,74.4l149.09 0.08 1.96 -23.89c10.48,8.07 1.11,11.93 9.23,23.89 30.19,-1.14 16.19,-29.13 33.92,-57.36 17.04,18.92 33.13,34.37 59.24,48.97 92.65,51.88 171.18,36.3 261.37,2.86 -6.01,-7.96 -4.5,-10.24 -0.13,-20.29 14.13,3.31 6.91,2.22 12.33,12.22 15.24,-2.04 41.35,-25.66 49.32,-34.18 58.45,-62.87 53.53,-137.45 24.05,-211.93 -16.4,-41.46 -68,-74.05 -106.28,-97.2 -40.01,-24.21 -46.51,-11.75 -48.92,-21.75 -0.24,-1.01 -0.85,-1.3 -1.38,-1.88 -10.72,5.66 -10.9,3.92 -23.6,8.1 -0.26,-18.1 2.83,-2.04 2.73,-19.9 -31.49,-7.94 -81.44,-21.83 -107.65,-35.4 -60.67,-31.46 -35.35,-67.26 -9.76,-75.91 19.84,-6.72 179.17,-4.29 181.41,96.26l158.35 0.11 -0.87 -215.21c-9.74,-4.21 -7.88,0.13 -20.16,-6.09 3.2,-0.77 6.85,-1.19 10.37,-2.01l7.2 -1.96c0.4,-0.9 1.59,-0.4 2.33,-0.74l-135.89 -2.54c-4.39,19.58 1.38,8.39 -11.96,13.84l10.61 -13.28c-2.67,-0.37 -8.1,0.08 -9.13,0.08l-21.91 0.29c-5.98,-11.03 -24.92,54.4 -25.74,57.39 -7.2,-6.19 -8.63,-9.79 -14.84,-19.55 -9.45,-14.79 -8.84,-12.54 -16.27,-14.55 -3.81,-8.15 -11.69,-12.28 -19.82,-17.07 -55.62,-32.86 -140.48,-36.75 -202.34,-23.39 -233.57,50.48 -187.33,258.26 -122.71,320.68 10.08,9.74 26.91,20.05 40.64,30.21 38.5,28.47 89.43,54.82 138.56,66.49 -3.04,-29.74 -12.36,-3.2 -17.33,-33.44 -3.15,-19.18 0.61,-23.31 8.41,-35.43 -3.44,-7.09 -7.01,-11.64 -7.54,-15.28 -4.15,-28.18 26.25,-32.07 32.28,-10.61 1.06,3.78 3.33,40.63 3.28,45.31 -0.26,23.05 -9.34,6.14 0.34,32.97 -11.35,9.76 -9.26,-1.72 -15.08,15.4l12.75 7.04c3.2,1.16 7.62,2.22 11.85,3.49 55.85,16.85 43.79,26.86 65.02,14.13l-0.01 0.09z"/>
   <path class="fil1" d="M339.79 122.38l2.88 9.21c9.92,-3.2 8.26,-0.69 11.67,-8.36l-14.55 -0.87 0 0.02z"/>
   <path class="fil1" d="M410.75 154.42l6.91 -7.46 -2.14 -9.97c-7.99,4.71 -3.18,-1.38 -10.19,8.02l5.45 9.45 -0.03 -0.04z"/>
  </g>
 </g>
</svg>
