<!-- Generated by IcoMoon.io -->
<svg version="1.1" xmlns="http://www.w3.org/2000/svg" width="110" height="32" viewBox="0 0 110 32">
<title>logo-dragvesti-negro</title>
<path d="M59.983 18.416c0.022 1.82-0.598 3.362-1.862 4.631-1.262 1.266-2.811 1.906-4.644 1.916l-4.085 0.034v-13.077l4.052-0.001c1.811 0 3.349 0.63 4.612 1.892 1.262 1.262 1.906 2.796 1.926 4.606v-0.002zM57.759 18.432c-0.012-1.204-0.431-2.221-1.26-3.050-0.829-0.827-1.848-1.242-3.056-1.242h-1.827v8.596l1.844 0.001c1.208-0.010 2.229-0.431 3.063-1.258 0.835-0.829 1.246-1.846 1.236-3.050v0.002zM64.569 18.616v-2.219c-1.228 0-2.272 0.423-3.128 1.274s-1.284 1.888-1.284 3.116v4.159h2.222v-4.159c0-0.602 0.215-1.115 0.642-1.537s0.943-0.634 1.547-0.634zM74.658 24.948h-2.364l-0.466-1.284c-0.879 1.031-1.998 1.547-3.362 1.547-1.23 0-2.271-0.428-3.122-1.284s-1.276-1.894-1.276-3.112c0-0.935 0.265-1.776 0.792-2.528s1.23-1.288 2.106-1.607c0.518-0.187 1.021-0.28 1.515-0.28 0.933 0 1.776 0.267 2.528 0.798s1.286 1.237 1.605 2.116l2.042 5.633zM70.656 20.806c0-0.773-0.313-1.372-0.939-1.799-0.361-0.257-0.779-0.383-1.252-0.383-0.768 0-1.363 0.307-1.778 0.925-0.265 0.389-0.397 0.804-0.397 1.258 0 0.761 0.313 1.357 0.939 1.783 0.383 0.265 0.796 0.397 1.236 0.397 0.604 0 1.119-0.211 1.547-0.636 0.429-0.423 0.644-0.939 0.644-1.544v-0.001zM83.017 27.137c0 1.583-0.649 2.801-1.942 3.657-0.748 0.494-1.565 0.74-2.454 0.74-1.561 0-2.778-0.652-3.657-1.96-0.503-0.756-0.756-1.571-0.756-2.438 0-0.57 0.108-1.119 0.329-1.647l2.059 0.824c-0.108 0.263-0.164 0.538-0.164 0.823 0 0.603 0.214 1.118 0.642 1.541s0.945 0.634 1.549 0.634c0.594 0 1.103-0.215 1.531-0.646s0.642-0.941 0.642-1.537c0-0.969-0.455-1.647-1.364-2.034-0.274 0.066-0.546 0.099-0.821 0.099-1.237 0-2.281-0.425-3.13-1.276s-1.274-1.896-1.274-3.138c0-1.23 0.426-2.271 1.278-3.12s1.894-1.276 3.118-1.276l1.284-3.048 1.759 0.746-1.17 2.728c0.774 0.373 1.392 0.915 1.85 1.631s0.69 1.493 0.69 2.337c0 1.252-0.456 2.305-1.366 3.164 0.913 0.867 1.366 1.932 1.366 3.194l0.002 0.002zM80.793 20.779c0-0.594-0.214-1.103-0.642-1.531s-0.939-0.642-1.531-0.642c-0.603 0-1.119 0.211-1.549 0.634s-0.642 0.937-0.642 1.538c0 0.604 0.215 1.119 0.642 1.549s0.945 0.642 1.549 0.642c0.604 0 1.118-0.214 1.539-0.642s0.634-0.945 0.634-1.549l0.001 0.001zM90.109 16.399h-2.553l-1.498 3.507-1.498-3.507h-2.636l4.117 8.549 4.069-8.549zM97.841 20.784c0 0.217-0.016 0.437-0.050 0.656h-6.441c0.143 0.462 0.405 0.833 0.79 1.112s0.819 0.421 1.3 0.421c0.67 0 1.224-0.259 1.663-0.774l1.351 1.796c-0.845 0.801-1.849 1.202-3.015 1.202-1.24 0-2.287-0.425-3.135-1.274s-1.276-1.894-1.276-3.132c0-1.228 0.428-2.265 1.284-3.116s1.9-1.274 3.128-1.274c1.23 0 2.271 0.423 3.122 1.27s1.276 1.886 1.276 3.113l0.005-0.001zM95.353 19.776c-0.405-0.768-1.043-1.153-1.91-1.153-0.879 0-1.521 0.385-1.926 1.153h3.836zM104.058 22.422l0.002-0.001v-0.050c0-1.432-0.692-2.277-2.075-2.544-0.683-0.133-1.043-0.205-1.087-0.215-0.572-0.155-0.857-0.341-0.857-0.56v-0.034c0-0.463 0.351-0.694 1.053-0.694 0.45 0 0.867 0.199 1.252 0.594l1.482-1.334c-0.285-0.373-0.768-0.674-1.451-0.905-0.592-0.199-1.162-0.293-1.712-0.28-0.528 0.012-1.017 0.133-1.466 0.363-1.021 0.516-1.531 1.288-1.531 2.321 0 1.076 0.499 1.828 1.498 2.257 0.339 0.142 0.758 0.262 1.252 0.361 0.396 0.078 0.652 0.127 0.773 0.149 0.309 0.11 0.478 0.291 0.512 0.544v0.066c0 0.24-0.144 0.427-0.429 0.56-0.219 0.099-0.466 0.149-0.74 0.149l-0.050 0.001c-0.67 0-1.3-0.282-1.894-0.841l-1.236 1.597c0.383 0.331 0.883 0.606 1.491 0.824s1.172 0.333 1.687 0.345c1.296 0.034 2.295-0.379 2.998-1.237 0.351-0.429 0.528-0.907 0.528-1.435zM108.003 24.948v-2.22c-0.602 0-1.119-0.211-1.547-0.634s-0.642-0.937-0.642-1.541v-2.257h2.191v-1.894h-2.191v-4.48l-2.225-0.001v8.635c0 1.226 0.427 2.269 1.284 3.118s1.9 1.274 3.13 1.274zM109.923 14.506l0.003 0.003c0-0.363-0.131-0.672-0.388-0.931s-0.568-0.388-0.931-0.388c-0.373 0-0.69 0.124-0.947 0.377s-0.388 0.566-0.388 0.939 0.129 0.69 0.388 0.947c0.259 0.257 0.574 0.387 0.947 0.387s0.686-0.129 0.939-0.387c0.253-0.259 0.377-0.574 0.377-0.947zM109.724 24.948h-2.223v-8.549h2.223v8.549z"></path>
<path d="M12.024 15.973c0.039-0.479 0.335-0.884 0.739-0.988-0.319 0.369-0.18 0.366-0.299 0.573-0.040 0.070-0.354 0.368-0.441 0.417l0.002-0.001zM16.527 14.757c0.087-0.105 0.193-0.153 0.316-0.246 0.097-0.074 0.202-0.175 0.317-0.225l0.040 0.425-0.673 0.046zM9.952 16.572c0.047-0.496 0.030-0.576 0.237-1.154 0.14-0.393 0.393-0.768 0.653-0.902-0.367 0.473-0.763 1.387-0.454 1.901 0.039-0.665 0.11-1.26 0.692-1.43-0.192 0.33-0.411 0.634-0.335 1.149 0.082-0.117 0.030-0.039 0.062-0.184 0.080-0.37 0.314-0.784 0.705-0.887-0.293 0.388-0.383 0.426-0.243 1.064 0.151-0.271 0.027-0.415 0.568-0.779-0.012 0.283 0.056 0.498 0.055 0.702-0.167 0.11-0.145 0.087-0.314 0.161-0.125 0.055-0.156 0.098-0.285 0.153-0.199 0.084-0.452 0.13-0.633 0.275-0.576 0.465-0.7 2.133-0.903-0.191-0.047-0.536-0.040-0.895 0.225-1.252-0.042 0.227-0.143 0.429-0.151 0.734-0.005 0.156 0.018 0.663 0.079 0.784l0.040-0.148 0.001 0.003zM18.546 17.507v-0.062c-0.052-0.092-0.060-0.154-0.079-0.282-0.037-0.246-0.032-0.132-0.092-0.302-0.111-0.316 0.139-0.294 0.047-0.593-0.18-0.575-0.137-0.777-0.182-1.361-0.247-0.239-0.162-0.271-0.593-0.242 0.087-0.523 0.107-0.653-0.288-0.92-0.259-0.021-0.512 0.137-0.793 0.166-0.119-0.488-0.58-0.396-0.687-0.927-0.062-0.304-0.262-1.226-0.103-1.474 0.261-0.022 0.082 0.14 0.431 0.035 0.145-0.043 0.314-0.058 0.479-0.073l0.15 0.189c0.135-0.057 0.061-0.063 0.185-0.097 0.097-0.027 0.198-0.012 0.307-0.018 0.032-0.275 0.145-0.471 0.156-0.663-0.257-0.109-0.354-0.29-0.605-0.449-0.219-0.139-0.497-0.319-0.6-0.516 0.189-0.1 0.201-0.12 0.214-0.382-0.153 0.092-0.217 0.161-0.402 0.225 0.22-0.543 0.864-1.523 0.98-2.009l-0.211 0.245c-0.18 0.28-0.842 1.243-1.032 1.423-0.092 0.087-0.157 0.063-0.286 0.15-0.092-0.145-0.15-0.132-0.331-0.201-0.204-0.079-0.2-0.111-0.309-0.234-0.2 0.246-0.040 0.472 0.164 0.613-0.376 0.116-0.758-0.235-1.056 0.375 0.184-0.067 0.254-0.132 0.533-0.11-0.381 0.167-0.402 0.060-0.798 0.409-0.139 0.122-0.449 0.364-0.637 0.18-0.162-0.157 0.11-0.079-0.111-0.135-0.188 0.461 0.282 0.391 0.608 0.316-0.093 0.080-0.193 0.13-0.286 0.201-0.124 0.093-0.185 0.117-0.256 0.264 0.24-0.11 0.415-0.245 0.734-0.249-0.285 0.172-0.644 0.33-0.922 0.533-0.22 0.161-0.598 0.499-0.68 0.842 0.172-0.113 0.277-0.346 0.547-0.536 0.207-0.148 0.517-0.243 0.815-0.245-0.357 0.198-0.649 0.411-0.76 0.815 0.306-0.243 0.214-0.349 0.734-0.458-0.257 0.296-0.683 0.479-0.813 1.027l-0.286-0.057c0.008 0.007 0.019 0.008 0.023 0.024s0.018 0.021 0.022 0.027l0.198 0.166c0.105 0.050 0.257 0.015 0.365-0.003-0.132 0.164-0.24 0.267-0.14 0.578 0.174-0.389 0.066-0.428 0.573-0.531-0.012 0.299-0.338 0.563-0.301 1.165-0.352-0.244-1.884-1.963-0.991-2.684-0.154 0.386-0.237 0.83 0.021 1.181-0.142-0.479-0.019-0.629 0.112-1.041 0.503-1.564-1.907-0.718-2.475-0.449 0.261-0.307 0.752-0.448 1.254-0.543-0.58-0.076-1.624 0.299-2.271 0.349-0.638 0.050-1.26-0.1-1.714-0.528l-0.23-0.182c0.092 0.341 0.462 0.72 0.684 0.872 0.341 0.234 0.782 0.316 1.266 0.307-0.99 0.307-3.252-0.329-4.144-1.156-0.143-0.134-0.257-0.309-0.425-0.425 0.235 0.827 1.487 1.338 2.281 1.582 0.317 0.098 0.755 0.162 1.044 0.262-0.726-0.035-1.502-0.299-2.129-0.611-0.254-0.125-0.409-0.251-0.636-0.359 0.055 0.164-0.029 0.018 0.089 0.161 0.103 0.124 0.216 0.179 0.348 0.285 0.472 0.379 1.259 0.586 1.872 0.665-0.354 0.043-0.671-0.085-0.996-0.114l0.639 0.234c1.056 0.283 1.561 0.071 2.515-0.008-1.286 0.56-3.623 0.274-4.928-0.162-0.732-0.244-1.383-0.516-1.971-0.88-0.321-0.198-0.544-0.357-0.827-0.596-0.225-0.19-0.552-0.578-0.765-0.718 0.198 0.566 0.697 0.842 1.114 1.162 1.378 1.052 3.327 1.711 5.163 1.751-0.861 0.201-2.501-0.253-3.225-0.565-0.459-0.198-0.847-0.394-1.266-0.633-0.207-0.117-0.389-0.245-0.583-0.367-0.182-0.116-0.423-0.327-0.597-0.411 0.22 0.576 1.647 1.31 2.216 1.607-0.267-0.039-0.518-0.175-0.745-0.286-0.274-0.134-0.459-0.304-0.715-0.406 0.129 0.32 0.705 0.618 0.987 0.772 0.441 0.24 0.784 0.316 1.256 0.421-0.481 0.111-0.756-0.145-1.125-0.227l0.147 0.125c0.072 0.047 0.082 0.042 0.154 0.081 0.967 0.513 1.862 0.575 2.975 0.488 0.845-0.066 1.692-0.222 2.462-0.555 0.242-0.105 0.481-0.243 0.708-0.331-0.7 0.523-2.57 1.294-3.558 1.513-0.69 0.154-0.922 0.098-1.552-0.077l0.040 0.074c0.066 0.103 0.122 0.18 0.235 0.234 0.116 0.055 0.331 0.077 0.47 0.084 0.62 0.026 1.244-0.132 1.816-0.322 0.283-0.093 0.558-0.232 0.8-0.309-0.813 0.475-1.608 0.867-2.815 0.792l0.256 0.257c0.348 0.245 0.671 0.377 1.116 0.198 0.462-0.187 0.848-0.475 1.284-0.708-0.227 0.316-0.74 0.57-1.104 0.761-0.125 0.066-0.090 0.032-0.179 0.124 1.022-0.101 2.688-1.767 2.915-1.902-0.335 0.518-0.631 0.689-0.898 1.41-0.156 0.423-0.335 0.788-0.734 0.957-0.142 0.061-0.338 0.065-0.448 0.18 0.245 0.084 0.498 0.214 0.826 0.187l0.449-0.649c0.079-0.134 0.325-0.623 0.34-0.724-0.003 0.312-0.314 0.982-0.433 1.273 0.616-0.357 0.591-1.46 1.13-1.891-0.29 0.549-0.362 0.661-0.434 1.405-0.024 0.242-0.092 0.517-0.22 0.683-0.245 0.319-0.374 0.211-0.549 0.378 0.296 0.018 0.465 0.119 0.675-0.058 0.47-0.394 0.264-1.213 0.718-1.717-0.235 0.602-0.381 0.896-0.325 1.611 0.027 0.341 0.034 0.605 0.098 0.942 0.053 0.277 0.145 0.566 0.188 0.822-1.535 0.015-0.904 0.747-1.204 1.901-0.125 0.483-0.336 0.665-0.565 0.977-0.555 0.755-0.312 0.362-0.684 0.698-0.124 0.111-0.042-0.005-0.108 0.15 0.214-0.093 0.346-0.214 0.588-0.29-0.111 0.251-0.261 0.465-0.423 0.675-0.111 0.143-0.107 0.15-0.264 0.29-0.087 0.077-0.225 0.212-0.309 0.294 0.359-0.085 0.557-0.393 0.758-0.608-0.111 0.293-0.299 0.529-0.541 0.697-0.107 0.074-0.193 0.11-0.267 0.206 0.695-0.184 0.875-0.75 1.278-1.226-0.040 0.341-0.224 0.62-0.451 0.829l-0.24 0.227c0.589-0.18 0.99-0.922 1.199-1.468-0.026 0.406-0.239 0.737-0.491 0.997-0.125 0.129-0.187 0.116-0.233 0.332l0.109-0.098c0.048-0.043 0.030-0.030 0.087-0.075 0.061-0.048 0.105-0.082 0.172-0.142 0.389-0.346 0.536-0.784 0.711-1.292 0.022 0.452-0.139 0.566-0.192 0.884 0.042-0.035 0.029-0.021 0.071-0.071 0.341-0.407 0.47-1.165 0.505-1.67 0.065 0.499-0.037 0.776-0.145 1.214 0.139-0.090 0.134-0.135 0.188-0.309 0.047-0.147 0.071-0.224 0.092-0.382 0.079-0.611-0.174-1.101-0.192-1.69-0.011-0.396 0.093-0.443 0.396-0.547-0.090 0.423-0.179 0.927 0.030 1.349 0.224 0.452 0.374 0.629 0.060 1.151-0.084 0.139-0.12 0.172-0.234 0.28l-0.299 0.264c-0.007 0.293 0.196 0.686 0.243 1.032 0.047 0.352 0.060 0.951 0.105 1.207-0.052 0.052-0.087 0.021-0.108 0.066-0.050 0.111 0.122-0.030-0.056 0.097 0.277 0.071-0.029 0.037 0.257 0.077-0.092 0.633 0.362 0.581 0.838 0.534-0.275-0.565-0.423-0.393-0.566-1.019-0.079-0.344-0.175-1.074-0.135-1.435 0.029-0.25 0.193-0.307 0.349-0.429 0.187-0.145 0.261-0.204 0.402-0.394 0.216-0.288 0.471-0.557 0.528-1.037 0.807 0.506-0.509 1.198-0.439 1.579 0.090 0.177 0.279 0.271 0.414 0.394 0.283 0.261 0.543 0.586 0.765 0.898 0.189 0.264 0.17 0.25 0.143 0.626l0.135-0.040c0.052 0.005 0.084 0.030 0.134 0.064-0.039 0.154-0.080 0.216-0.079 0.396 0.264 0.198 0.52 0.271 0.902 0.179 0.013-0.32-1.486-1.724-1.491-2.318-0.003-0.378 0.418-0.605 0.647-0.782 0.139-0.108 0.142-0.122 0.266-0.249 0.309-0.314 0.32-0.546 0.549-0.882 0.089-0.13 0.177-0.145 0.214-0.309 0.058-0.257-0.11-0.549-0.172-0.778-0.19-0.711 0.7-0.586 1.486-1.381 0.28-0.283 0.62-0.747 0.855-1.087 0.555-0.802 0.329-0.362 0.731-0.529 0.132-0.055 0.216-0.122 0.343-0.195-0.016 0.269-0.015 0.42 0.050 0.654l0.907-0.789c0.071-0.119 0.050-0.301 0.148-0.439 0.385 0.002 0.449 0.592 0.478 0.984-0.148 0.111-0.063 0.069-0.084 0.113-0.016 0.034-0.058 0.027-0.105 0.113 0.142 0.125 0.359 0.18 0.139 0.357-0.048 0.039-0.093 0.057-0.132 0.113-0.262 0.396 0.283 0.62 0.655 0.638l0.006-0.007z"></path>
<path d="M20.021 8.565l-1.923 2.108c-0.25 0.266-0.512 0.411-0.639 0.753 1.033 0.872 1.693 2.86 1.273 4.722-0.378 1.68-1.352 3.163-1.038 5.078 0.279 1.698 1.384 3.048 2.634 3.591 1.091 0.473 3.736 0.235 4.65 1.619 0.429-0.143 0.414-0.613 1.82-1.027 0.734-0.216 1.618-0.269 2.392-0.412 1.416-0.264 2.458-1.543 2.95-2.734 1.119-2.71-0.779-4.749-0.879-6.959-0.048-1.074 0.143-1.556 0.394-2.462 0.142-0.314 0.291-0.584 0.46-0.827 0.177-0.251 0.366-0.426 0.515-0.658l-1.956-2.148c-0.194-0.227-0.446-0.456-0.654-0.67-0.125 0.061 0.008-0.029-0.147 0.1-0.037 0.032-0.079 0.077-0.12 0.119-0.593 0.611-1.413 0.827-2.305 0.776-1.44-0.082-2.024-0.927-2.466-1.057-0.452 0.568-1.383 1.043-2.437 1.062-0.534 0.010-1.043-0.087-1.476-0.293-0.892-0.423-0.645-0.668-1.051-0.678v-0.002zM18.226 11.443c0.214-0.411 1.029-1.144 1.392-1.55 0.167-0.187 0.29-0.369 0.467-0.529 0.339 0.153 0.555 0.414 1.069 0.604 0.491 0.18 0.903 0.237 1.455 0.225 1.179-0.024 1.696-0.471 2.449-0.914 0.8 0.489 1.313 0.884 2.45 0.916 0.534 0.016 0.999-0.053 1.45-0.23 0.621-0.243 0.803-0.488 1.061-0.6l1.866 1.996c-0.156 0.456-0.498 0.65-0.92 2.044-0.239 0.784-0.291 1.796-0.154 2.636 0.319 1.968 2.197 4.362 0.359 6.896-1.201 1.658-1.788 1.386-4.067 1.794-1.46 0.262-1.484 0.599-2.043 0.903-0.692-0.466-0.98-0.718-2.041-0.9-0.684-0.119-1.889-0.243-2.475-0.46-1.189-0.441-2.24-1.87-2.395-3.452-0.277-2.8 2.852-4.832 0.080-9.377l-0.002-0.001z"></path>
<path d="M38.106 15.973c-0.039-0.479-0.335-0.884-0.74-0.988 0.319 0.369 0.18 0.366 0.299 0.573 0.040 0.070 0.354 0.368 0.441 0.417v-0.001zM33.605 14.757c-0.087-0.105-0.195-0.153-0.316-0.246-0.097-0.074-0.203-0.175-0.316-0.225l-0.040 0.425 0.672 0.046zM40.179 16.572c-0.047-0.496-0.030-0.576-0.237-1.154-0.139-0.393-0.393-0.768-0.652-0.902 0.367 0.473 0.763 1.387 0.452 1.901-0.039-0.665-0.11-1.26-0.692-1.43 0.191 0.33 0.409 0.634 0.334 1.149-0.084-0.117-0.030-0.039-0.062-0.184-0.081-0.37-0.312-0.784-0.703-0.887 0.293 0.388 0.382 0.426 0.243 1.064-0.153-0.271-0.027-0.415-0.57-0.779 0.012 0.283-0.056 0.498-0.054 0.702 0.167 0.11 0.145 0.087 0.314 0.161 0.125 0.055 0.156 0.098 0.285 0.153 0.199 0.084 0.452 0.13 0.633 0.275 0.576 0.465 0.7 2.133 0.903-0.191 0.047-0.536 0.040-0.895-0.225-1.252 0.042 0.227 0.143 0.429 0.151 0.734 0.003 0.156-0.018 0.663-0.079 0.784l-0.040-0.148 0.001 0.003zM31.583 17.507v-0.062c0.052-0.092 0.060-0.154 0.079-0.282 0.037-0.246 0.030-0.132 0.092-0.302 0.111-0.316-0.139-0.294-0.045-0.593 0.18-0.575 0.135-0.777 0.182-1.361 0.247-0.239 0.162-0.271 0.594-0.242-0.087-0.523-0.107-0.653 0.288-0.92 0.259-0.021 0.513 0.137 0.795 0.166 0.119-0.488 0.578-0.396 0.687-0.927 0.063-0.304 0.262-1.226 0.103-1.474-0.261-0.022-0.082 0.14-0.429 0.035-0.147-0.043-0.316-0.058-0.479-0.073l-0.15 0.189c-0.135-0.057-0.061-0.063-0.185-0.097-0.097-0.027-0.198-0.012-0.307-0.018-0.032-0.275-0.145-0.471-0.156-0.663 0.257-0.109 0.354-0.29 0.605-0.449 0.219-0.139 0.498-0.319 0.6-0.516-0.187-0.1-0.201-0.12-0.214-0.382 0.153 0.092 0.217 0.161 0.402 0.225-0.22-0.543-0.864-1.523-0.98-2.009l0.211 0.245c0.18 0.28 0.842 1.243 1.030 1.423 0.092 0.087 0.159 0.063 0.287 0.15 0.092-0.145 0.15-0.132 0.331-0.201 0.204-0.079 0.198-0.111 0.309-0.234 0.198 0.246 0.040 0.472-0.166 0.613 0.377 0.116 0.758-0.235 1.057 0.375-0.184-0.067-0.253-0.132-0.534-0.11 0.383 0.167 0.402 0.060 0.8 0.409 0.139 0.122 0.449 0.364 0.639 0.18 0.162-0.157-0.11-0.079 0.111-0.135 0.188 0.461-0.283 0.391-0.608 0.316 0.092 0.080 0.193 0.13 0.286 0.201 0.124 0.093 0.185 0.117 0.256 0.264-0.24-0.11-0.414-0.245-0.734-0.249 0.286 0.172 0.644 0.33 0.922 0.533 0.22 0.161 0.599 0.499 0.678 0.842-0.17-0.113-0.277-0.346-0.547-0.536-0.208-0.148-0.517-0.243-0.813-0.245 0.357 0.198 0.649 0.411 0.76 0.815-0.306-0.243-0.214-0.349-0.734-0.458 0.257 0.296 0.684 0.479 0.815 1.027l0.285-0.057c-0.008 0.007-0.018 0.008-0.022 0.024s-0.016 0.021-0.022 0.027l-0.197 0.166c-0.105 0.050-0.257 0.015-0.366-0.003 0.132 0.164 0.24 0.267 0.139 0.578-0.174-0.389-0.066-0.428-0.571-0.531 0.012 0.299 0.338 0.563 0.301 1.165 0.352-0.244 1.884-1.963 0.99-2.684 0.154 0.386 0.237 0.83-0.021 1.181 0.142-0.479 0.021-0.629-0.113-1.041-0.501-1.564 1.909-0.718 2.475-0.449-0.261-0.307-0.752-0.448-1.254-0.543 0.58-0.076 1.625 0.299 2.27 0.349 0.638 0.050 1.26-0.1 1.714-0.528l0.23-0.182c-0.090 0.341-0.462 0.72-0.684 0.872-0.341 0.234-0.782 0.316-1.266 0.307 0.988 0.307 3.251-0.329 4.143-1.156 0.143-0.134 0.259-0.309 0.425-0.425-0.235 0.827-1.487 1.338-2.28 1.582-0.317 0.098-0.755 0.162-1.044 0.262 0.726-0.035 1.502-0.299 2.129-0.611 0.254-0.125 0.411-0.251 0.636-0.359-0.055 0.164 0.029 0.018-0.089 0.161-0.103 0.124-0.216 0.179-0.346 0.285-0.471 0.379-1.26 0.586-1.872 0.665 0.352 0.043 0.67-0.085 0.996-0.114l-0.641 0.234c-1.054 0.283-1.559 0.071-2.514-0.008 1.286 0.56 3.623 0.274 4.928-0.162 0.732-0.244 1.381-0.516 1.97-0.88 0.32-0.198 0.544-0.357 0.829-0.596 0.225-0.19 0.55-0.578 0.765-0.718-0.2 0.566-0.697 0.842-1.116 1.162-1.378 1.052-3.325 1.711-5.163 1.751 0.861 0.201 2.501-0.253 3.225-0.565 0.458-0.198 0.847-0.394 1.266-0.633 0.207-0.117 0.389-0.245 0.584-0.367 0.182-0.116 0.423-0.327 0.597-0.411-0.22 0.576-1.647 1.31-2.216 1.607 0.267-0.039 0.518-0.175 0.745-0.286 0.272-0.134 0.457-0.304 0.715-0.406-0.13 0.32-0.705 0.618-0.987 0.772-0.441 0.24-0.784 0.316-1.255 0.421 0.479 0.111 0.757-0.145 1.125-0.227l-0.148 0.125c-0.073 0.047-0.082 0.042-0.155 0.081-0.967 0.513-1.862 0.575-2.974 0.488-0.845-0.066-1.692-0.222-2.462-0.555-0.24-0.105-0.481-0.243-0.708-0.331 0.7 0.523 2.572 1.294 3.559 1.513 0.692 0.154 0.922 0.098 1.552-0.077l-0.040 0.074c-0.064 0.103-0.122 0.18-0.235 0.234-0.116 0.055-0.332 0.077-0.468 0.084-0.618 0.024-1.244-0.132-1.816-0.322-0.283-0.093-0.558-0.232-0.8-0.309 0.813 0.475 1.608 0.867 2.813 0.792l-0.254 0.257c-0.349 0.245-0.671 0.377-1.116 0.198-0.462-0.187-0.848-0.475-1.284-0.708 0.225 0.316 0.739 0.57 1.104 0.761 0.124 0.066 0.089 0.032 0.179 0.124-1.022-0.101-2.689-1.767-2.916-1.902 0.336 0.518 0.633 0.689 0.898 1.41 0.156 0.423 0.336 0.788 0.734 0.957 0.142 0.061 0.338 0.065 0.448 0.18-0.243 0.084-0.498 0.214-0.824 0.187l-0.451-0.649c-0.079-0.134-0.325-0.623-0.339-0.724 0.002 0.312 0.314 0.982 0.431 1.273-0.615-0.357-0.589-1.46-1.13-1.891 0.29 0.549 0.362 0.661 0.436 1.405 0.024 0.242 0.092 0.517 0.219 0.683 0.245 0.319 0.375 0.211 0.55 0.378-0.296 0.018-0.465 0.119-0.675-0.058-0.47-0.394-0.264-1.213-0.718-1.717 0.233 0.602 0.379 0.896 0.325 1.611-0.027 0.341-0.035 0.605-0.098 0.942-0.053 0.277-0.145 0.566-0.189 0.822 1.534 0.015 0.905 0.747 1.204 1.901 0.125 0.483 0.336 0.665 0.566 0.977 0.554 0.755 0.312 0.362 0.684 0.698 0.124 0.111 0.040-0.005 0.108 0.15-0.214-0.093-0.346-0.214-0.587-0.29 0.111 0.251 0.261 0.465 0.423 0.675 0.111 0.143 0.107 0.15 0.264 0.29 0.089 0.077 0.227 0.212 0.311 0.294-0.361-0.085-0.557-0.393-0.758-0.608 0.111 0.293 0.301 0.529 0.541 0.697 0.107 0.074 0.194 0.11 0.269 0.206-0.697-0.184-0.877-0.75-1.278-1.226 0.042 0.341 0.224 0.62 0.451 0.829l0.242 0.227c-0.589-0.18-0.991-0.922-1.201-1.468 0.027 0.406 0.239 0.737 0.491 0.997 0.125 0.129 0.187 0.116 0.235 0.332l-0.111-0.098c-0.048-0.043-0.030-0.030-0.087-0.075-0.060-0.048-0.105-0.082-0.17-0.142-0.389-0.346-0.538-0.784-0.711-1.292-0.024 0.452 0.137 0.566 0.192 0.884-0.042-0.035-0.029-0.021-0.071-0.071-0.341-0.407-0.468-1.165-0.505-1.67-0.065 0.499 0.037 0.776 0.145 1.214-0.139-0.090-0.132-0.135-0.188-0.309-0.047-0.147-0.071-0.224-0.092-0.382-0.079-0.611 0.175-1.101 0.192-1.69 0.011-0.396-0.095-0.443-0.396-0.547 0.089 0.423 0.179 0.927-0.030 1.349-0.225 0.452-0.375 0.629-0.061 1.151 0.084 0.139 0.122 0.172 0.234 0.28l0.299 0.264c0.005 0.293-0.197 0.686-0.243 1.032-0.047 0.352-0.060 0.951-0.105 1.207 0.052 0.052 0.087 0.021 0.107 0.066 0.050 0.111-0.12-0.030 0.056 0.097-0.277 0.071 0.029 0.037-0.259 0.077 0.092 0.633-0.362 0.581-0.837 0.534 0.275-0.565 0.423-0.393 0.566-1.019 0.077-0.344 0.175-1.074 0.135-1.435-0.029-0.25-0.193-0.307-0.351-0.429-0.187-0.145-0.261-0.204-0.402-0.394-0.216-0.288-0.471-0.557-0.526-1.037-0.808 0.506 0.509 1.198 0.439 1.579-0.090 0.177-0.28 0.271-0.415 0.394-0.282 0.261-0.541 0.586-0.765 0.898-0.189 0.264-0.169 0.25-0.143 0.626l-0.135-0.040c-0.052 0.005-0.084 0.030-0.134 0.064 0.039 0.154 0.081 0.216 0.079 0.396-0.264 0.198-0.52 0.271-0.9 0.179-0.015-0.32 1.486-1.724 1.489-2.318 0.003-0.378-0.419-0.605-0.645-0.782-0.14-0.108-0.143-0.122-0.267-0.249-0.307-0.314-0.319-0.546-0.547-0.882-0.090-0.13-0.177-0.145-0.214-0.309-0.058-0.257 0.11-0.549 0.17-0.778 0.191-0.711-0.698-0.586-1.486-1.381-0.28-0.283-0.62-0.747-0.855-1.087-0.555-0.802-0.329-0.362-0.731-0.529-0.132-0.055-0.217-0.122-0.343-0.195 0.016 0.269 0.013 0.42-0.052 0.654l-0.909-0.789c-0.071-0.119-0.050-0.301-0.147-0.439-0.384 0.002-0.449 0.592-0.479 0.984 0.148 0.111 0.065 0.069 0.085 0.113 0.016 0.034 0.058 0.027 0.105 0.113-0.142 0.125-0.359 0.18-0.139 0.357 0.048 0.039 0.093 0.057 0.13 0.113 0.264 0.396-0.283 0.62-0.655 0.638l-0.007-0.007zM28.912 4.176l-0.004-0.002c0.141 0 0.235 0.012 0.352 0.11l0.073 0.079c0.087 0.111 0.119 0.261 0.14 0.393 0.032 0.208-0.013 0.457-0.070 0.657-0.069 0.238-0.19 0.465-0.332 0.666-0.028 0.041-0.055 0.071-0.085 0.111-0.088 0.114-0.241 0.262-0.354 0.336-0.228 0.151-0.52 0.282-0.784 0.124-0.276-0.164-0.309-0.597-0.256-0.916 0.027-0.171 0.084-0.369 0.156-0.523 0.009-0.018 0.015-0.031 0.024-0.047s0.013-0.030 0.021-0.048c0.014-0.032 0.033-0.056 0.048-0.085l0.052-0.089c0.019-0.024 0.024-0.006 0.060-0.035 0.038-0.032 0.053-0.068 0.075-0.103 0.060-0.094 0.208-0.237 0.316-0.237 0.071 0 0.114-0.003 0.18 0.061 0.056 0.055 0.061 0.084 0.061 0.161 0 0.161-0.113 0.253-0.248 0.302-0.029 0.013-0.052 0.021-0.084 0.030-0.199 0.066-0.32 0.164-0.449 0.325-0.018 0.024-0.033 0.041-0.048 0.066-0.024 0.042-0.065 0.102-0.065 0.166 0 0.081 0.082 0.138 0.161 0.122 0.113-0.022 0.117-0.095 0.151-0.148 0.043-0.067 0.157-0.182 0.232-0.212l0.217-0.082c0.14-0.067 0.158-0.069 0.271-0.18 0.119-0.119 0.175-0.303 0.175-0.478 0-0.102-0.050-0.195-0.105-0.269-0.046-0.063-0.146-0.132-0.225-0.15 0.008-0.007 0.002-0.002 0.015-0.010l0.055-0.027c0.067-0.035 0.193-0.071 0.274-0.071zM29.869 4.749c-0.002-0.034-0.005-0.064-0.008-0.097-0.012-0.090-0.029-0.187-0.057-0.274-0.025-0.082-0.059-0.158-0.105-0.225-0.122-0.182-0.259-0.293-0.47-0.356-0.2-0.060-0.386-0.024-0.573 0.027-0.042 0.011-0.079 0.029-0.119 0.047-0.066 0.029-0.129 0.056-0.188 0.097-0.018 0.011-0.005 0.010-0.029 0.016 0.022-0.034 0.107-0.137 0.139-0.166l0.082-0.071c0.027-0.021 0.061-0.045 0.093-0.059 0.085-0.040 0.13-0.032 0.184-0.122 0.066-0.112-0.003-0.322-0.275-0.185-0.125 0.065-0.245 0.151-0.336 0.261l-0.145 0.179c0-0.085 0.010-0.18-0.002-0.271-0.018-0.151-0.116-0.607-0.356-0.467-0.027 0.016-0.053 0.045-0.067 0.072-0.047 0.090-0.023 0.139 0.029 0.214 0.018 0.027 0.037 0.068 0.047 0.098 0.042 0.132 0.040 0.256 0.034 0.393-0.002 0.043-0.013 0.084-0.013 0.132l-0.012-0.001c-0.003-0.132-0.113-0.411-0.167-0.538-0.069-0.162-0.207-0.391-0.33-0.515-0.070-0.072-0.142-0.143-0.224-0.201-0.030-0.021-0.053-0.037-0.084-0.057-0.262-0.166-0.606-0.211-0.911-0.11-0.070 0.024-0.139 0.047-0.202 0.084-0.039 0.023-0.068 0.040-0.096 0.058l0.009-0.005c-0.11 0.065-0.199 0.15-0.29 0.237l-0.053 0.055c-0.016 0.016-0.018 0.021-0.030 0.037-0.021 0.024-0.042 0.062-0.068 0.079 0.003-0.048 0.074-0.18 0.098-0.232 0.066-0.148 0.209-0.357 0.333-0.454 0.047-0.035 0.079-0.058 0.137-0.085 0.058-0.024 0.098-0.027 0.135-0.087 0.061-0.098 0.027-0.254-0.107-0.28-0.129-0.024-0.357 0.15-0.434 0.229-0.132 0.134-0.24 0.288-0.323 0.456l-0.042 0.072c0-0.22 0.117-0.639 0.25-0.818 0.024-0.032 0.055-0.066 0.085-0.092 0.043-0.034 0.064-0.035 0.092-0.092 0.074-0.153-0.048-0.328-0.202-0.267-0.024 0.010-0.035 0.018-0.057 0.034-0.1 0.077-0.188 0.177-0.249 0.29-0.029 0.056-0.070 0.124-0.084 0.188l-0.012-0.001c-0.003-0.034-0.037-0.092-0.052-0.125s-0.043-0.079-0.065-0.112c-0.013-0.021-0.022-0.034-0.037-0.052-0.016-0.021-0.021-0.030-0.039-0.050-0.080-0.092-0.212-0.242-0.344-0.156-0.1 0.064-0.107 0.235-0.016 0.307 0.061 0.048 0.084 0.063 0.139 0.129 0.084 0.103 0.132 0.242 0.169 0.371 0.035 0.12 0.063 0.245 0.085 0.366 0.008 0.043 0.002 0.035 0.002 0.080l-0.261-0.412c-0.019-0.025-0.035-0.035-0.053-0.061-0.089-0.114-0.364-0.309-0.493-0.283-0.164 0.034-0.179 0.261-0.048 0.336 0.057 0.034 0.192 0.043 0.335 0.23 0.048 0.062 0.098 0.129 0.139 0.196l0.116 0.22c0.024 0.050 0.055 0.107 0.068 0.161-0.034-0.024-0.066-0.081-0.097-0.113-0.016-0.016-0.018-0.021-0.032-0.037-0.090-0.108-0.286-0.245-0.402-0.309-0.032-0.018-0.066-0.034-0.098-0.048-0.1-0.045-0.222-0.072-0.331-0.087-0.17-0.022-0.335 0.010-0.493 0.061-0.125 0.040-0.256 0.129-0.356 0.209-0.066 0.054-0.125 0.112-0.177 0.177l-0.002 0.002c-0.015 0.018-0.021 0.024-0.035 0.040-0.111 0.13-0.194 0.288-0.262 0.443-0.047 0.103-0.085 0.207-0.114 0.317-0.016 0.063-0.050 0.159-0.050 0.235h-0.007c0-0.043-0.019-0.161-0.019-0.267 0-0.367 0.097-0.344 0.124-0.448 0.025-0.098-0.024-0.174-0.075-0.209-0.154-0.106-0.264 0.079-0.309 0.206-0.062 0.172-0.057 0.332-0.057 0.521-0.027-0.018-0.043-0.053-0.066-0.080-0.013-0.016-0.021-0.027-0.034-0.042-0.062-0.064-0.119-0.129-0.187-0.187-0.029-0.024-0.057-0.039-0.085-0.061-0.060-0.045-0.132-0.079-0.206-0.098-0.052-0.015-0.072-0.018-0.122 0.003-0.132 0.056-0.090 0.266 0.053 0.312 0.12 0.040 0.229 0.119 0.306 0.22 0.024 0.030 0.048 0.050 0.068 0.085-0.015-0.003-0.087-0.043-0.105-0.053-0.105-0.065-0.24-0.103-0.367-0.129-0.338-0.068-0.636 0.042-0.834 0.289-0.015 0.018-0.021 0.024-0.034 0.048-0.082 0.14-0.080 0.134-0.13 0.282-0.035 0.105-0.048 0.219-0.052 0.331v0.108c0.002 0.053 0.005 0.105 0.008 0.156 0.008 0.139 0.042 0.285 0.080 0.414l0.074 0.256c0.042 0.13 0.035 0.117 0.102 0.229l0.296 0.446c0.103 0.155 0.189 0.316 0.239 0.498l0.042 0.161c0.021 0.056-0.002 0.043 0.010 0.103 0.015 0.079 0.097 0.148 0.17 0.161 0.067 0.011 0.217-0.024 0.291-0.035 0.364-0.061 0.73-0.1 1.096-0.142 0.021-0.002 0.048-0.003 0.075-0.007 0.143-0.018 0.296-0.035 0.446-0.043l0.306-0.024c0.053-0.003 0.105-0.007 0.153-0.011l0.626-0.034c0.11-0.005 0.212-0.005 0.324-0.005 0.035-0.002 0.040-0.007 0.075-0.008 0.079-0.002 0.169 0.008 0.247 0 0.244-0.027 1.334 0.018 1.606 0.025 0.032 0.002 0.039 0.007 0.075 0.007 0.103 0 0.29 0.024 0.388 0.025l0.457 0.037c0.153 0.013 0.294 0.039 0.443 0.045s1.019 0.135 1.157 0.162c0.092 0.018 0.183 0.003 0.24-0.072 0.008-0.010 0.027-0.042 0.030-0.053 0.012-0.032 0.003-0.065 0.016-0.092 0.018-0.030 0.021-0.061 0.030-0.097 0.015-0.045 0.024-0.085 0.035-0.129 0.077-0.277 0.251-0.507 0.407-0.742 0.021-0.032 0.048-0.065 0.065-0.102 0.062-0.154 0.112-0.322 0.193-0.468 0.003-0.005 0.010-0.018 0.012-0.023 0.021-0.055 0.047-0.164 0.060-0.224 0.022-0.102 0.042-0.234 0.047-0.366v-0.143l-0.002-0.003zM20.913 4.728c0 0.282 0.182 0.521 0.433 0.626 0.148 0.061 0.249 0.066 0.354 0.172 0.169 0.17 0.129 0.18 0.174 0.225 0.052 0.053 0.125 0.071 0.187 0.035 0.029-0.016 0.050-0.035 0.062-0.072 0.037-0.14-0.148-0.314-0.239-0.404l-0.071-0.063c-0.050-0.037-0.106-0.063-0.169-0.090l-0.193-0.074c-0.053-0.021-0.125-0.062-0.156-0.11-0.18-0.271 0.035-0.404 0.119-0.404 0.097 0 0.145 0.016 0.232 0.085 0.045 0.035 0.1 0.095 0.13 0.142 0.029 0.043 0.047 0.087 0.087 0.116 0.048 0.035 0.030-0.012 0.098 0.105 0.010 0.018 0.015 0.027 0.024 0.045s0.016 0.027 0.025 0.043c0.012 0.018 0.012 0.024 0.021 0.043 0.053 0.125 0.090 0.172 0.137 0.34 0.029 0.108 0.030 0.1 0.053 0.219 0.048 0.261 0.047 0.584-0.103 0.8-0.047 0.066-0.084 0.106-0.151 0.147-0.204 0.12-0.443 0.060-0.636-0.043l-0.066-0.037c-0.097-0.055-0.254-0.192-0.331-0.271-0.018-0.020-0.026-0.034-0.047-0.053s-0.029-0.034-0.048-0.055l-0.129-0.169c-0.067-0.113-0.079-0.117-0.148-0.251-0.015-0.027-0.021-0.034-0.034-0.068-0.012-0.027-0.021-0.040-0.032-0.070-0.105-0.251-0.169-0.467-0.169-0.758 0-0.185 0.047-0.366 0.12-0.475 0.080-0.119 0.204-0.229 0.369-0.229 0.188 0 0.227 0.016 0.383 0.087 0.019 0.008 0.024 0.005 0.035 0.021-0.084 0.019-0.172 0.093-0.224 0.157s-0.1 0.172-0.1 0.286l0.002 0.001zM23.722 4.1c0 0.111 0.018 0.256 0.087 0.338 0.022 0.027 0.035 0.042 0.059 0.066 0.153 0.15 0.444 0.219 0.623 0.074 0.184-0.15 0.134-0.357-0.040-0.357-0.048 0-0.093 0.023-0.116 0.050-0.030 0.037-0.053 0.142-0.234 0.025-0.097-0.062-0.1-0.229 0.021-0.327 0.142-0.114 0.357-0.087 0.444 0.079 0.055 0.105 0.080 0.277 0.080 0.409 0 0.084-0.016 0.167-0.045 0.24-0.008 0.024-0.022 0.042-0.032 0.068-0.047 0.111 0.022 0.222 0.135 0.224l-0.005 0.14c-0.108-0.124-0.264-0.212-0.426-0.253-0.206-0.051-0.46-0.024-0.634 0.085-0.021 0.013-0.034 0.022-0.053 0.035-0.047 0.030-0.107 0.087-0.139 0.135-0.025 0.037-0.050 0.072-0.069 0.116-0.111 0.261-0.090 0.439 0.069 0.67 0.015 0.021 0.021 0.022 0.035 0.040 0.064 0.074 0.135 0.13 0.225 0.175 0.164 0.082 0.359 0.097 0.521-0.003 0.030-0.019 0.062-0.037 0.087-0.065 0.048-0.048 0.067-0.105 0.035-0.172-0.027-0.058-0.102-0.089-0.167-0.074-0.092 0.021-0.103 0.105-0.23 0.097-0.172-0.010-0.346-0.214-0.346-0.331 0-0.478 0.606-0.541 0.847-0.282 0.005 0.005 0.005 0.008 0.012 0.013 0.066 0.071 0.107 0.13 0.137 0.225 0.021 0.066 0.003 0.080-0.016 0.142-0.029 0.089-0.059 0.184-0.106 0.262-0.065 0.105-0.062 0.116-0.137 0.225-0.050 0.071-0.107 0.14-0.175 0.193-0.164 0.129-0.293 0.214-0.529 0.214-0.196 0-0.433-0.114-0.57-0.249-0.010-0.010-0.016-0.018-0.029-0.027-0.016-0.013-0.021-0.013-0.034-0.029l-0.11-0.124c-0.105-0.137-0.194-0.28-0.261-0.444-0.062-0.154-0.075-0.182-0.122-0.346-0.045-0.156-0.072-0.331-0.087-0.498-0.007-0.070 0.012-0.043 0.015-0.095 0.005-0.113-0.003-0.206 0.043-0.306 0.037-0.079 0.103-0.159 0.205-0.159 0.059 0 0.13 0.022 0.167 0.048 0.090 0.061 0.135 0.189 0.117 0.299-0.010 0.058-0.045 0.1-0.077 0.139-0.035 0.043-0.071 0.071-0.103 0.113-0.018 0.022-0.030 0.035-0.048 0.060-0.015 0.019-0.032 0.043-0.043 0.064-0.071 0.122-0.2 0.628 0.082 0.628 0.052 0 0.097-0.032 0.116-0.067 0.029-0.052 0.012-0.102 0.012-0.167 0-0.11 0.042-0.224 0.105-0.294 0.002-0.002 0.002-0.002 0.003-0.003s0.003-0.003 0.003-0.003c0.057-0.062 0.116-0.117 0.162-0.187 0.022-0.034 0.039-0.060 0.055-0.097 0.030-0.068 0.056-0.157 0.047-0.25-0.019-0.167-0.069-0.311-0.184-0.426-0.134-0.132-0.341-0.207-0.538-0.166-0.030 0.008-0.048 0.021-0.074 0.022 0.008-0.035 0.018-0.059 0.027-0.093 0.030-0.108 0.074-0.211 0.122-0.309l0.066-0.125c0.016-0.027 0.030-0.053 0.048-0.077l0.108-0.142c0.018-0.022 0.042-0.042 0.062-0.063 0.047-0.047 0.084-0.075 0.142-0.113 0.316-0.211 0.663-0.153 0.956 0.085 0.066 0.053 0.13 0.118 0.185 0.185 0.078 0.097 0.090 0.125 0.151 0.217-0.197 0-0.296 0.026-0.439 0.139-0.092 0.072-0.195 0.225-0.195 0.388l-0.004-0.004zM26.291 2.958c0.174 0 0.302 0.035 0.443 0.129l0.105 0.079c0.015 0.013 0.021 0.015 0.035 0.029l0.092 0.098c0.097 0.108 0.18 0.251 0.237 0.386l0.055 0.135c0.012 0.034 0.055 0.159 0.056 0.197-0.024-0.005-0.035-0.016-0.067-0.022-0.117-0.024-0.266 0.003-0.364 0.042s-0.192 0.12-0.247 0.211c-0.117 0.195-0.156 0.434-0.035 0.641l0.217 0.257c0.052 0.066 0.074 0.143 0.087 0.232 0.015 0.103-0.003 0.074-0.003 0.137 0 0.209 0.444 0.25 0.272-0.341-0.024-0.085-0.047-0.139-0.093-0.204l-0.103-0.119c-0.015-0.015-0.024-0.023-0.039-0.037-0.022-0.024-0.043-0.053-0.062-0.082-0.090-0.132-0.010-0.346 0.125-0.404 0.222-0.093 0.359 0.113 0.371 0.314 0.002 0.043-0.010 0.1 0.003 0.142 0.010 0.034 0.016 0.022 0.016 0.055 0 0.11-0.024 0.229-0.042 0.327-0.052 0.288-0.15 0.561-0.299 0.811-0.057 0.093-0.124 0.184-0.198 0.264l-0.14 0.132c-0.052 0.042-0.105 0.079-0.164 0.11-0.113 0.057-0.23 0.103-0.38 0.103-0.132 0-0.288-0.058-0.37-0.111-0.1-0.066-0.125-0.087-0.198-0.162l-0.162-0.199-0.090-0.153c-0.034-0.061-0.137-0.302-0.137-0.351 0-0.119 0.097-0.232 0.169-0.306 0.129-0.129 0.385-0.177 0.565-0.105 0.172 0.070 0.269 0.205 0.269 0.411 0 0.084-0.098 0.194-0.161 0.246-0.085 0.068-0.224 0.103-0.319 0.030-0.043-0.032-0.030-0.043-0.103-0.056-0.134-0.027-0.293 0.162-0.034 0.312 0.32 0.187 0.692-0.030 0.847-0.321 0.1-0.187 0.079-0.381-0.003-0.568-0.018-0.040-0.042-0.075-0.067-0.11-0.079-0.106-0.187-0.182-0.316-0.23-0.188-0.073-0.443-0.066-0.631 0.010-0.016 0.007-0.025 0.013-0.043 0.021-0.085 0.037-0.167 0.095-0.232 0.162-0.040 0.042-0.042 0.027-0.042-0.107 0.080-0.002 0.153-0.060 0.153-0.139 0-0.047-0.010-0.077-0.029-0.116-0.095-0.187-0.085-0.499 0.010-0.684 0.022-0.043 0.055-0.074 0.095-0.103 0.169-0.118 0.446 0.003 0.446 0.191 0 0.047-0.012 0.11-0.047 0.137-0.029 0.024-0.082 0.055-0.12 0.063-0.154 0.032-0.089-0.119-0.264-0.119-0.143 0-0.209 0.19-0.055 0.333 0.008 0.008 0.015 0.013 0.024 0.021 0.119 0.107 0.32 0.097 0.46 0.039 0.042-0.016 0.084-0.042 0.119-0.070l0.102-0.095c0.022-0.027 0.032-0.055 0.047-0.087 0.064-0.147 0.055-0.335-0.015-0.475-0.034-0.067-0.080-0.116-0.132-0.166-0.124-0.116-0.272-0.154-0.449-0.154 0.024-0.097 0.257-0.34 0.327-0.396 0.117-0.095 0.309-0.214 0.516-0.214l-0.007 0.001zM21.267 8.281v0.030c0 0.071 0.084 0.147 0.153 0.147l0.14-0.007c0.034-0.003 0.065-0.003 0.1-0.008l1.172-0.097c0.064-0.010 0.142-0.007 0.201-0.015 0.034-0.005 0.066 0 0.1-0.002l0.401-0.018c0.039-0.002 0.058-0.008 0.102-0.008 0.074 0.002 0.132-0.005 0.211-0.005 0.040 0 0.053-0.008 0.093-0.008 0.24 0.002 0.488-0.011 0.737-0.011l0.603 0.001c0.142 0 0.271 0.007 0.406 0.007l0.692 0.024c0.034 0.003 0.072-0.002 0.107 0.002l0.294 0.016c0.034 0.005 0.070-0.002 0.105 0.003 0.059 0.007 0.125 0.005 0.191 0.013l0.288 0.022c0.027 0.003 0.072 0.008 0.093 0.008l0.382 0.030c0.065 0.008 0.132 0.011 0.191 0.018 0.066 0.008 0.13 0.011 0.19 0.019l0.227 0.015c0.092 0 0.164-0.074 0.164-0.166 0-0.145-0.217-0.13-0.314-0.143l-0.633-0.059c-0.142-0.008-0.291-0.032-0.431-0.030-0.042 0-0.063-0.005-0.108-0.007l-0.113-0.008c-0.139-0.016-0.286-0.016-0.433-0.024-0.201-0.012-0.465-0.026-0.666-0.026-0.084 0-0.143-0.007-0.229-0.007-0.154 0-0.296-0.007-0.455-0.007l-0.509 0.001c-0.159 0-0.302 0.007-0.456 0.007-0.139 0-0.32 0.013-0.457 0.013-0.085 0-0.145 0.007-0.229 0.007l-1.111 0.063c-0.084 0.003-0.333 0.034-0.431 0.039-0.147 0.008-0.29 0.024-0.431 0.039l-0.211 0.022c-0.069 0.012-0.125 0.055-0.125 0.11l-0.001 0.001z"></path>
<path d="M27.497 7.482c0 0.11-0.010 0.175-0.071 0.267-0.019 0.029-0.035 0.052-0.061 0.077-0.012 0.011-0.022 0.024-0.035 0.034-0.024 0.018-0.029 0.007-0.037 0.034 0.137 0 0.499 0.047 0.653 0.056 0.042 0.003 0.085 0.008 0.132 0.015l0.382 0.043c0.039 0.003 0.097 0.016 0.129 0.018 0.053 0.003 0.071-0.098 0.103-0.18l0.079-0.206c0.015-0.034 0.026-0.070 0.039-0.106 0.007-0.016 0.035-0.074 0.034-0.090s-0.003-0.019-0.015-0.027c-0.018-0.011-0.314-0.057-0.333-0.060-0.127-0.018-0.243-0.040-0.366-0.053l-0.56-0.068c-0.064-0.008-0.13-0.008-0.188-0.021 0.005 0.024 0.021 0.040 0.037 0.060 0.042 0.051 0.077 0.135 0.077 0.207l0.002-0.001zM23.113 7.165c0.021 0.030 0.060 0.045 0.087 0.070 0.047 0.043 0.11 0.137 0.129 0.201 0.079 0.262-0.069 0.372-0.077 0.401 0.064 0 0.105-0.007 0.164-0.007 0.039 0 0.047-0.007 0.082-0.007 0.029-0.002 0.062 0.002 0.090 0l0.336-0.013c0.065 0 0.102-0.007 0.164-0.007l0.52-0.005c-0.008-0.029-0.034-0.025-0.071-0.069l-0.059-0.079c-0.093-0.159-0.084-0.357 0.024-0.484 0.018-0.023 0.040-0.042 0.055-0.066h-0.185l-0.634 0.024c-0.030 0.003-0.065-0.002-0.095 0.002l-0.531 0.037zM21.027 7.432c0 0.030 0.021 0.079 0.030 0.102 0.030 0.069 0.080 0.224 0.114 0.299 0.1 0.227-0.016 0.184 0.344 0.147 0.085-0.008 0.167-0.016 0.247-0.024l0.253-0.027c0.13-0.007 0.42-0.037 0.515-0.037-0.012-0.042-0.266-0.185-0.174-0.504 0.030-0.111 0.082-0.119 0.092-0.156-0.164 0-1.127 0.139-1.349 0.174-0.022 0.003-0.072 0.008-0.072 0.029v-0.002zM25.232 7.8c0.23 0 0.457 0.005 0.684 0.011 0.032 0.002 0.039 0.007 0.075 0.007 0.124 0.002 0.239 0.013 0.343 0.013 0.050 0 0.174 0.013 0.252 0.013-0.007-0.027-0.034-0.030-0.074-0.116-0.084-0.179-0.010-0.367 0.124-0.496 0.027-0.027 0.070-0.047 0.090-0.074-0.055 0-0.122-0.007-0.172-0.011l-0.361-0.019c-0.040 0-0.050-0.007-0.089-0.007-0.029-0.002-0.065 0.002-0.095-0.002l-0.547-0.018c-0.069 0-0.114-0.007-0.184-0.007 0.005 0.022 0.012 0.021 0.027 0.037 0.166 0.166 0.158 0.441-0.007 0.607-0.022 0.022-0.057 0.040-0.071 0.061l0.003 0.001zM24.915 1.56c0.082 0 0.162-0.061 0.204-0.107 0.071-0.079 0.093-0.147 0.093-0.262 0-0.137-0.059-0.335-0.116-0.456l-0.188-0.396c-0.002 0.007-0.18 0.378-0.211 0.462-0.010 0.027-0.016 0.055-0.027 0.087-0.045 0.137-0.085 0.348-0.018 0.473 0.042 0.079 0.148 0.195 0.262 0.195l0.001 0.004zM21.236 2.977c0 0.162 0.021 0.299 0.142 0.391 0.060 0.047 0.161 0.067 0.239 0.021 0.037-0.024 0.089-0.113 0.089-0.179 0-0.13-0.093-0.271-0.182-0.364-0.061-0.063-0.125-0.139-0.191-0.196-0.047-0.040-0.031-0.040-0.071-0.063 0 0.135-0.024 0.253-0.024 0.388l-0.001 0.002zM28.098 3.167c0 0.084 0.018 0.175 0.085 0.219 0.111 0.075 0.264-0.015 0.312-0.089 0.122-0.187 0.040-0.521 0.040-0.708-0.022 0.016-0.048 0.039-0.067 0.059l-0.187 0.193c-0.064 0.074-0.182 0.239-0.182 0.325h-0.001zM24.915 7.686c0.201 0 0.34-0.172 0.264-0.346-0.034-0.077-0.143-0.15-0.225-0.15-0.064 0-0.102-0.003-0.162 0.027-0.085 0.042-0.154 0.135-0.145 0.23 0.015 0.148 0.139 0.239 0.271 0.239h-0.002zM26.716 7.533c0 0.065-0.005 0.077 0.027 0.139 0.016 0.027 0.029 0.042 0.053 0.061 0.185 0.15 0.471 0.007 0.471-0.199 0-0.266-0.391-0.311-0.518-0.098-0.013 0.022-0.034 0.066-0.034 0.098l0.001-0.001zM22.567 7.508c0 0.102 0.019 0.139 0.093 0.211 0.053 0.052 0.134 0.074 0.211 0.074 0.142 0 0.275-0.119 0.248-0.267-0.030-0.169-0.274-0.314-0.467-0.169-0.034 0.026-0.085 0.095-0.085 0.15v0.001zM24.749 28.482l-0.035 0.264c0.008 0.045-0.093 2.387-0.063 2.525-0.075 0.024-0.369 0.018-0.452 0.002-0.015-0.010-0.029-0.019-0.052-0.039-0.047-0.042-0.019 0.002-0.040-0.052-0.021-0.111 0.058-2.609-0.068-2.767-0.055-0.072-0.11-0.113-0.18-0.077-0.154 0.080-0.232 0.172-0.322 0.299-0.169 0.237-0.314 0.512-0.468 0.782-0.182 0.319-0.055 0.119-0.262 0.37-0.316 0.383-0.604 0.697-1.117 0.753-0.594 0.064-1.735-0.013-2.284-0.179-0.062-0.816 0.778-0.568 1.202-0.838 0.040 0.039 0.055 0.103 0.097 0.142 0.207 0.187 0.763 0.164 0.985 0.064 0.072-0.034 0.22-0.174 0.262-0.217 0.333-0.34 0.543-0.715 0.768-1.146 0.366-0.697 0.219-0.538 0.723-1.189 0.105-0.135 0.807-1.004 0.866-1.033 0.333 0.154 0.552 0.515 0.628 0.975 0.125 0.773-0.182 1.024-0.19 1.36h0.002z"></path>
<path d="M21.899 31.287c-0.808 0.073-1.503-0.052-2.24-0.306-0.079-0.027-0.074-0.012-0.107-0.090-0.058-0.142-0.113-0.288-0.125-0.446 0.95 0.124 0.996 0.232 2.1 0.17 0.508-0.029 0.707-0.142 0.988-0.429 0.053-0.053 0.093-0.080 0.142-0.142l0.256-0.294c-0.055 0.090-0.154 0.32-0.202 0.433-0.122 0.283-0.224 0.748-0.346 0.934-0.095 0.145-0.227 0.172-0.465 0.17h-0.001zM15.009 27.735c0.829-0.475 1.256-0.639 2.41-0.673-0.766-0.419-2.071 0.24-2.41 0.673zM15.157 26.885l-0.179 0.143c0.365-0.087 0.074 0.015 0.179-0.143zM16.913 26.805c-1.212-0.232-1.674 0.325-1.682 0.331l-0.080 0.084c0.643-0.229 0.967-0.423 1.762-0.415zM15.157 26.885l0.711-0.309c-0.237 0.016-0.211-0.015-0.439 0.085l-0.272 0.224zM13.449 26.137c-0.28 0.105-0.294 0.169-0.433 0.388 0.161-0.143-0.010-0.015 0.188-0.13 0.316-0.185 0.174 0.015 0.245-0.257v-0.001zM13.449 26.137c0.697-0.093 0.371-0.589 2.846-0.592-0.439-0.198-1.154-0.219-1.674-0.067-0.299 0.087-1.043 0.352-1.172 0.66zM13.597 25.406c0.653-0.257 0.797-0.269 1.587-0.301-0.61-0.29-1.191-0.030-1.587 0.301zM18.742 25.338c-0.364 0.2 0.079 0.411-0.56 0.256-0.161-0.919 0.948-0.847 0.853-0.052-0.082 0.678-0.705 0.705-1.4 0.775 0.24 0.122 0.529 0.203 0.779 0.317 0.803 0.368 1.595 1.080 2.552 0.767 0.488-0.157 1.106-0.658 0.827-1.306-0.237-0.554-1.455-0.611-1.405 0.209 0.135 0.066 0.748 0.034 0.425 0.493-0.256 0.364-0.61 0.114-0.792-0.119-0.466-0.996 2.094-2.039 1.978 0.048 0.22-0.162 0.541-0.465 0.827-0.531 0.481-0.111 0.599 0.214 0.496 0.575-0.307 0.092-0.348 0.148-0.538-0.092 0.153-0.336 0.034-0.043 0.359-0.225-0.040-0.040 0.147-0.17-0.272-0.082-0.13 0.027-0.189 0.122-0.269 0.202-0.153 0.158-0.251 0.28-0.385 0.438-0.244 0.291-0.558 0.536-0.93 0.718-0.907 0.443-1.909 0.209-2.796-0.084 0.374 1.869-1.652 1.521-1.079 0.401 0.834-0.269 0.309 0.375 0.325 0.521l0.436 0.002c0.557-1.637-2.953-2.325-4.324 2.031-0.071-0.415-0.071-1.072-0.33-1.321-0.364-0.348-0.742 0.124-1.212 0.169-0.153-0.239-0.066-0.124-0.068-0.449-0.085-0.032-0.333 0.050-0.409-0.341-0.045-0.235-0.137 0.029 0.050-0.257l-0.282-0.122c-0.011-0.005-0.037-0.016-0.053-0.027 0.454-1.111 0.119-0.591 0.199-0.974 0.072-0.349 0.042 0.206 0.034-0.114-0.005-0.211-0.030-0.008-0.048-0.261-0.018-0.245 0.077-0.378 0.024-0.646-0.167-0.835-1.769-0.346-1.293 0.383l0.172-0.406c0.443 0.021 0.515 0.24 0.434 0.639-1.423 0.689-1.133-1.909 0.693-1.046 0.279-0.724 0.583-1.106 1.329-1.355 0.676-0.227 1.677-0.24 2.4-0.074 0.737 0.169 1.238 0.593 1.74 0.947 1.391 0.974 1.645 0.241 1.507-0.005l0.001-0.001zM34.726 27.753c-0.829-0.473-1.255-0.637-2.411-0.671 0.766-0.419 2.071 0.24 2.411 0.671zM34.578 26.903l0.179 0.143c-0.365-0.087-0.074 0.015-0.179-0.143zM32.821 26.822c1.212-0.232 1.674 0.325 1.682 0.332l0.080 0.084c-0.642-0.229-0.967-0.425-1.762-0.415zM34.578 26.903l-0.711-0.309c0.237 0.015 0.211-0.015 0.439 0.085l0.272 0.224zM36.284 26.153c0.28 0.105 0.294 0.169 0.434 0.388-0.161-0.145 0.010-0.015-0.189-0.13-0.316-0.185-0.175 0.015-0.246-0.257l0.001-0.001zM36.284 26.153c-0.695-0.093-0.369-0.589-2.846-0.59 0.439-0.198 1.154-0.219 1.674-0.068 0.299 0.087 1.043 0.352 1.172 0.658zM36.136 25.422c-0.652-0.257-0.797-0.269-1.587-0.299 0.61-0.29 1.191-0.030 1.587 0.299zM30.993 25.356c0.364 0.199-0.079 0.411 0.561 0.256 0.159-0.919-0.95-0.847-0.853-0.050 0.082 0.678 0.705 0.705 1.4 0.775-0.24 0.122-0.529 0.202-0.779 0.316-0.803 0.369-1.593 1.080-2.553 0.77-0.488-0.158-1.106-0.658-0.827-1.309 0.237-0.554 1.455-0.611 1.405 0.211-0.135 0.066-0.748 0.032-0.425 0.493 0.256 0.364 0.611 0.114 0.792-0.119 0.466-0.996-2.094-2.039-1.978 0.048-0.22-0.162-0.541-0.465-0.827-0.531-0.481-0.111-0.599 0.214-0.496 0.575 0.307 0.092 0.348 0.148 0.538-0.092-0.153-0.335-0.034-0.043-0.359-0.224 0.040-0.042-0.148-0.17 0.272-0.084 0.13 0.027 0.189 0.122 0.269 0.204 0.153 0.157 0.251 0.28 0.385 0.438 0.244 0.291 0.558 0.536 0.93 0.718 0.907 0.443 1.911 0.209 2.796-0.085-0.374 1.869 1.652 1.521 1.080 0.401-0.834-0.269-0.309 0.373-0.327 0.521l-0.436 0.002c-0.557-1.637 2.953-2.326 4.324 2.031 0.071-0.415 0.071-1.070 0.33-1.32 0.364-0.348 0.743 0.122 1.212 0.167 0.153-0.237 0.066-0.122 0.067-0.449 0.085-0.032 0.333 0.050 0.409-0.341 0.045-0.234 0.137 0.029-0.050-0.256l0.282-0.122c0.011-0.007 0.037-0.016 0.053-0.027-0.454-1.112-0.119-0.592-0.199-0.974-0.074-0.351-0.042 0.206-0.034-0.116 0.005-0.211 0.030-0.008 0.048-0.259 0.018-0.245-0.079-0.378-0.024-0.647 0.167-0.835 1.769-0.344 1.291 0.383l-0.172-0.406c-0.443 0.022-0.515 0.24-0.434 0.639 1.423 0.689 1.133-1.909-0.693-1.046-0.279-0.724-0.583-1.106-1.329-1.355-0.676-0.225-1.677-0.24-2.4-0.074-0.737 0.169-1.238 0.593-1.74 0.946-1.391 0.974-1.645 0.24-1.507-0.005v-0.002z"></path>
<path d="M25.335 28.482l0.035 0.264c-0.008 0.045 0.093 2.387 0.061 2.525 0.075 0.024 0.369 0.018 0.452 0.002 0.015-0.010 0.029-0.019 0.052-0.039 0.047-0.042 0.019 0.002 0.040-0.052 0.021-0.111-0.058-2.609 0.067-2.767 0.057-0.072 0.11-0.113 0.18-0.077 0.156 0.080 0.232 0.172 0.322 0.299 0.169 0.237 0.314 0.512 0.469 0.782 0.183 0.319 0.055 0.119 0.262 0.37 0.314 0.383 0.603 0.697 1.117 0.753 0.594 0.064 1.735-0.013 2.284-0.179 0.063-0.816-0.777-0.568-1.202-0.838-0.040 0.039-0.055 0.103-0.097 0.142-0.207 0.187-0.763 0.164-0.985 0.064-0.072-0.034-0.22-0.174-0.264-0.217-0.334-0.34-0.543-0.715-0.768-1.146-0.366-0.697-0.219-0.538-0.721-1.189-0.105-0.135-0.808-1.004-0.867-1.033-0.333 0.154-0.55 0.515-0.626 0.975-0.127 0.773 0.182 1.024 0.189 1.36z"></path>
<path d="M28.187 31.287c0.808 0.073 1.502-0.052 2.238-0.306 0.080-0.027 0.074-0.012 0.107-0.090 0.056-0.142 0.114-0.288 0.125-0.446-0.95 0.124-0.996 0.232-2.1 0.17-0.507-0.029-0.707-0.142-0.988-0.429-0.053-0.053-0.093-0.080-0.14-0.142l-0.256-0.294c0.055 0.090 0.154 0.32 0.204 0.433 0.122 0.283 0.224 0.748 0.345 0.934 0.095 0.145 0.227 0.172 0.465 0.17h0.001zM18.656 11.739c2.598 4.321-0.334 6.253-0.075 8.916 0.145 1.505 1.13 2.863 2.245 3.284 0.549 0.206 1.679 0.325 2.319 0.436 0.993 0.174 1.263 0.412 1.912 0.857 0.523-0.29 0.547-0.61 1.914-0.858 2.134-0.389 2.684-0.13 3.81-1.707 1.722-2.411-0.039-4.687-0.338-6.557-0.127-0.8-0.077-1.764 0.145-2.507 0.396-1.325 0.715-1.51 0.861-1.943l-1.747-1.897c-0.24 0.107-0.411 0.339-0.993 0.57-0.422 0.167-0.858 0.232-1.358 0.219-1.066-0.030-1.548-0.406-2.297-0.87-0.705 0.42-1.189 0.847-2.295 0.869-0.518 0.012-0.902-0.042-1.363-0.214-0.481-0.18-0.683-0.428-1.001-0.573-0.164 0.155-0.28 0.325-0.438 0.504-0.341 0.388-1.104 1.084-1.303 1.475l0.004-0.002zM19.974 11.755h0.304c0.067 0.214 0.184 0.367 0.341 0.457 0.207 0.122 0.544 0.18 1.011 0.18 0.297 0 1.243-0.029 2.833-0.090 0.962-0.037 1.561-0.058 1.797-0.058 0.715 0 1.325 0.124 1.828 0.369s0.911 0.623 1.226 1.131c0.314 0.508 0.523 1.209 0.626 2.1 0.072 0.625 0.135 2.002 0.185 4.131-0.84 0.529-1.487 0.988-1.939 1.378-1.368-0.38-2.577-0.568-3.623-0.568-0.711 0-1.371 0.085-1.976 0.256-0.61 0.17-1.254 0.441-1.933 0.816l-0.192-0.245c0.889-0.456 1.666-0.924 2.337-1.403s1.112-0.906 1.326-1.286c0.214-0.378 0.322-0.856 0.322-1.438 0-0.213-0.005-0.525-0.013-0.939-0.010-0.288-0.015-0.589-0.015-0.9 0-0.547 0.030-0.951 0.092-1.209 0.061-0.261 0.188-0.557 0.386-0.893l-0.165-0.001c-0.523 0.302-0.872 0.576-1.043 0.822-0.175 0.249-0.261 0.565-0.261 0.948l0.053 2.293c0 0.613-0.182 1.161-0.55 1.647-0.367 0.486-1.249 1.183-2.646 2.096l-0.191-0.257c0.707-0.488 1.171-0.89 1.397-1.204s0.338-0.643 0.338-0.985c0-0.297-0.095-0.549-0.286-0.757-0.19-0.209-0.402-0.314-0.631-0.314-0.117 0-0.227 0.034-0.327 0.097-0.098 0.066-0.233 0.201-0.404 0.407l-0.205-0.206c0.148-0.372 0.346-0.645 0.591-0.819s0.543-0.261 0.889-0.261c0.098 0 0.209 0.012 0.331 0.034 0.119 0.021 0.25 0.053 0.388 0.098-0.008-0.251-0.013-0.47-0.013-0.655 0-0.678 0.137-1.229 0.409-1.656s0.795-0.869 1.564-1.333c-0.713 0.072-1.329 0.11-1.849 0.11-0.549 0-1.019-0.077-1.411-0.232-0.296-0.122-0.512-0.314-0.649-0.576s-0.22-0.626-0.246-1.086l-0.007 0.001zM25.217 13.543c-0.185 0.316-0.309 0.589-0.372 0.821-0.087 0.32-0.13 0.618-0.13 0.895l0.053 2.551c0 0.326-0.082 0.661-0.243 1.002-0.124 0.256-0.357 0.565-0.698 0.93 0.625-0.103 1.102-0.153 1.434-0.148l0.367 0.007v-6.058h-0.41zM25.958 16.031c0.262 0.189 0.493 0.316 0.689 0.386s0.409 0.105 0.636 0.105c0.23 0 0.441-0.035 0.641-0.108s0.429-0.2 0.697-0.383c-0.080-0.974-0.332-1.63-0.75-1.973-0.417-0.344-1.054-0.517-1.911-0.517v2.488l-0.001 0.002zM25.958 18.162c0.291-0.167 0.541-0.282 0.747-0.344s0.429-0.093 0.676-0.093c0.237 0 0.454 0.029 0.658 0.085 0.201 0.058 0.443 0.166 0.726 0.325l-0.103-1.748c-0.274 0.167-0.512 0.283-0.713 0.344-0.198 0.061-0.417 0.092-0.655 0.092-0.227 0-0.452-0.037-0.678-0.11-0.224-0.072-0.441-0.182-0.657-0.326v1.774l-0.001 0.001zM25.958 19.619c0.523 0.042 0.948 0.095 1.278 0.156s0.843 0.19 1.543 0.386c0.008-0.65 0.013-0.987 0.013-1.009 0-0.050-0.005-0.257-0.013-0.62-0.274-0.19-0.517-0.32-0.724-0.393-0.209-0.072-0.434-0.109-0.68-0.109-0.25 0-0.479 0.037-0.693 0.109-0.212 0.073-0.452 0.203-0.724 0.393v1.087h0.001z"></path>
</svg>
