<?xml version="1.0" encoding="UTF-8"?>
<!DOCTYPE svg PUBLIC "-//W3C//DTD SVG 1.1//EN" "http://www.w3.org/Graphics/SVG/1.1/DTD/svg11.dtd">
<!-- Creator: CorelDRAW 2017 -->
<svg xmlns="http://www.w3.org/2000/svg" xml:space="preserve" width="8.4666mm" height="8.4666mm" version="1.1" style="shape-rendering:geometricPrecision; text-rendering:geometricPrecision; image-rendering:optimizeQuality; fill-rule:evenodd; clip-rule:evenodd"
viewBox="0 0 846.66 846.66"
 xmlns:xlink="http://www.w3.org/1999/xlink">
 <defs>
  <style type="text/css">
   <![CDATA[
    .fil0 {fill:none}
    .fil5 {fill:#4881EC}
    .fil4 {fill:#4959B7}
    .fil2 {fill:#767676}
    .fil3 {fill:#7EACF7}
    .fil1 {fill:#BEBEBE}
   ]]>
  </style>
 </defs>
 <g id="Capa_x0020_1">
  <metadata id="CorelCorpID_0Corel-Layer"/>
  <rect class="fil0" width="846.66" height="846.66"/>
  <g id="_2915792732112">
   <g>
    <path class="fil1" d="M637.04 602.12l0.5 45.17 -7.01 -0.11 0.33 -44.82c-2.47,2.15 -1.61,-2.67 -2.28,5.55l0.11 17.62c-0.02,7.48 -0.72,15.53 0.5,23.32l10.06 -0.49 0.15 -41.79c-0.32,-8.48 0.45,-1.98 -2.36,-4.45z"/>
    <path class="fil1" d="M679.27 616.82l1.03 32.11 9.11 -0.57c0.93,-4.95 1.92,-28.29 -1.27,-33.02l0.28 31.93 -7.12 0.11 -0.28 -26.22c-0.57,-7.3 -0.32,-2.38 -1.75,-4.34z"/>
    <path class="fil1" d="M511.58 608.73l-16.63 -0.2 0 -18.31 18.44 0.03c-5.22,-2.42 -13.74,-2.4 -19.66,-0.62l-0.32 20.29c5,0.63 15.21,1.78 18.17,-1.19z"/>
   </g>
   <g>
    <path class="fil2" d="M85.84 618.7c-1.3,25.72 -43.52,28.35 -50.86,0.01 -3.86,-14.9 3.82,-25.72 11.98,-30.97 14.54,-9.36 23.71,-1.85 33.67,2.73l5.97 -7.24c-21.94,-27.53 -81.12,3.19 -60.03,45.09 17.27,34.32 76.53,26.84 69.92,-20.54l-35.13 0.35 0.21 10.13 24.27 0.44z"/>
    <path class="fil2" d="M355.97 647.88c1.15,-2.08 0.45,0.25 1.2,-3.56l0.27 -20.25c0,-8.29 -0.09,-16.61 0.01,-24.89 8.35,8.35 17.21,34.76 23.32,34.85 8.22,-2.7 16.28,-28.02 23.4,-34.86 0.34,8.31 -1.62,42.43 1.39,48.91l5.83 -0.15c3.11,-5.61 1.58,-60.72 1.46,-66.33 -9.04,-0.94 -8.53,-1.12 -12.2,5.56 -3.89,7.07 -16.02,30.05 -19.88,33.02 -4.26,-4.16 -16.63,-27.28 -19.79,-33.23 -3.68,-6.93 -3.51,-6.35 -12.18,-5.26 -0.12,9.22 -1.6,57.61 1.34,66.31l5.83 -0.12z"/>
    <path class="fil2" d="M244.51 632.83c-7.91,14.21 -31.93,3.42 -23.18,-15.06 8.04,-17.01 33.08,-2.72 23.18,15.06zm11.4 -31.05c-2.89,-0.03 -3.56,-0.15 -6.4,0.38 -8.34,1.55 0.02,4.06 -7.8,0.73 -17.45,-7.42 -29.48,4.55 -32.22,15.94 -2.77,11.53 2.59,20.65 8.23,25.35 10.03,8.34 15.94,5.51 27.84,1.37 -0.15,8.68 -2.34,15.23 -10.92,16.24 -9.62,1.15 -10.36,-4.63 -15.82,-8.17l-7.26 4.01c4.32,16.28 30.52,18.47 40.09,5.08 6.96,-9.75 4.7,-47.26 4.26,-60.93z"/>
    <path class="fil2" d="M494.05 639.19l-0.27 -20.29c36.29,-9.78 39.77,28.82 0.27,20.29zm17.53 -30.46c-2.96,2.97 -13.17,1.82 -18.17,1.19l0.32 -20.29c5.92,-1.78 14.44,-1.8 19.66,0.62 9.36,4.04 8.78,17.33 -1.81,18.48zm9.44 5.13c3.78,-5.85 12.95,-11.88 4.93,-24.13 -7.28,-11.13 -24.73,-8.61 -40.69,-8.35l0.11 66.52c14.22,0.75 32.01,2.38 40.36,-5.81 10.23,-10.02 5.01,-21.37 -4.71,-28.23z"/>
    <path class="fil2" d="M137.86 631.37c-8.42,17.05 -31.68,5.82 -24.91,-12.54 6.58,-17.84 33.77,-5.42 24.91,12.54zm-36.43 0c6.5,28.95 55.91,21.63 48.24,-12.53 -6.67,-29.73 -55.96,-21.82 -48.24,12.53z"/>
    <path class="fil2" d="M290.91 623.49c-0.31,-11.64 12.11,-17.98 20.15,-9.63 -3.23,4.13 -15.24,8.21 -20.15,9.63zm2.03 8.67c8.65,-3.96 23.45,-7.78 31.34,-13.92 -5.2,-25.25 -41.59,-22.69 -44.55,2.99 -3.61,31.45 37.07,35.78 44.22,17.06l-7.35 -4.44c-7.82,4.37 -17.72,11.94 -23.66,-1.69z"/>
    <path class="fil2" d="M173.43 611.97c17.97,-9.43 27.44,19.32 11.75,26.46 -16.77,7.64 -27.7,-18.09 -11.75,-26.46zm-18.5 16.48c3.62,30.18 52.8,27.29 49.11,-7.1 -3.25,-30.28 -53.2,-27.05 -49.11,7.1z"/>
    <path class="fil2" d="M705.55 619.74c2.89,-15.5 23.13,-14.13 25.16,-0.16l-25.16 0.16zm32.44 17.46c-11.28,-7.53 -5.05,4.12 -18.84,4.34 -9.16,0.14 -13.7,-5.72 -14.62,-14.67l35.3 -0.03c3.67,-30.52 -36.3,-35.23 -43.26,-9.16 -9.28,34.7 37.08,40.85 41.42,19.52z"/>
    <path class="fil2" d="M538.21 602.2c0.14,10.3 -1.73,31.8 2.7,39.67 6.2,11 21.59,9.33 28.06,1.23 3.48,5.05 0.88,5.56 9.86,4.91l-0.04 -45.61 -8.44 0c-0.46,14.61 3.93,38.34 -11.79,39.11 -16.89,0.82 -11.06,-24.83 -11.82,-39.08l-8.53 -0.23z"/>
    <path class="fil2" d="M745.21 635.77c3.26,25.87 52.15,10.79 33.81,-8.91 -6.78,-7.28 -24.18,-4.88 -23.63,-12.93 0.41,-6.11 8.72,-6.23 14.01,-3.78 6.06,2.81 4.03,6.93 11.29,0.79 -1.44,-3.84 -1.94,-5.12 -6,-7.47 -8.46,-4.89 -23.77,-2.85 -27.86,6 -7.88,17.05 18.78,17.94 26.13,23.13 0.12,8.68 -5.25,11.43 -13.71,8.23 -9.81,-3.7 -1.15,-9.06 -14.04,-5.06z"/>
    <path class="fil2" d="M585.89 635.51c2.76,26.94 52.74,10.26 33.34,-9.23 -6.81,-6.84 -26.11,-4.44 -23.48,-13.29 1.63,-5.49 9.89,-4.95 14.57,-2.64 5.42,2.67 3.86,6.58 11.1,0.59 -5.52,-14 -30.04,-12.92 -34.26,-0.61 -7.06,20.63 27.12,14.57 26.79,25.41 -2.1,5.46 -7.65,8.3 -14.75,4.67 -6.92,-3.53 -2.36,-7.72 -13.31,-4.9z"/>
    <path class="fil2" d="M786.48 636.09c4.48,24.73 51,11.01 34.57,-8.84 -6.72,-8.12 -24.97,-4.91 -24.51,-13.32 0.3,-5.58 8.14,-6.45 13.88,-4.06 5.46,2.27 4.8,7.33 11.96,1.07 -11.3,-24.24 -50.91,-0.55 -29.28,13.61 4.72,3.09 30.26,5.36 19.32,15.36 -4.27,3.91 -11.42,1.52 -14.6,-1.27 -5.51,-4.83 -1.76,-6.16 -11.34,-2.55z"/>
    <path class="fil2" d="M419.01 602.66c3.75,10.64 8.74,21.23 13.77,32.15 8.08,17.53 -1.49,17.39 -5.25,33.05 11.81,1.2 10.73,-4.85 21.32,-29.72 3.65,-8.59 12.84,-26.78 14.86,-35.73l-8.84 0.13 -13.54 31.75 -13.9 -31.96 -8.42 0.33z"/>
    <path class="fil2" d="M679.27 616.82c1.43,1.96 1.18,-2.96 1.75,4.34l0.28 26.22 7.12 -0.11 -0.28 -31.93c-1.16,-15.84 -19.01,-19.13 -30.27,-8.08 -3.55,-5.74 1.38,-5.03 -9.09,-4.92 -0.48,8.19 -0.25,16.44 -0.27,24.65 -0.05,17.58 -2.91,22.25 4.98,21.17 5.56,-0.77 3.74,-2.53 3.55,-16.84 -0.43,-31.42 20.84,-24.49 22.23,-14.5z"/>
    <path class="fil2" d="M263.61 575.6c-0.5,12.12 -1.62,64.02 0.89,72.6l9.8 0.04 -0.02 -72.53 -10.67 -0.11z"/>
    <polygon class="fil2" points="637.04,602.12 630.86,602.36 630.53,647.18 637.54,647.29 "/>
    <path class="fil2" d="M639.68 583.71l-2.95 -2.53c-8.97,-1.15 -11.37,5.58 -7.07,9.75 5.25,5.08 10.46,0.86 10.02,-7.22z"/>
   </g>
   <g>
    <g>
     <path class="fil3" d="M258.97 489.92c-4.14,-32.76 1.98,-105.97 -1.68,-148.54 18.38,4.41 29.32,7.23 45.44,-2.74 7.97,-4.94 14.99,-11.87 18.66,-20.35l4.6 -9.48c0.73,-19.91 5.32,-46.42 8.15,-66.57 2.72,-19.38 4.45,-49.39 9.39,-66.35 -16.63,0.3 -62.43,-2.93 -73.42,3.38 -15.02,8.62 -17.32,35.72 -22.32,53.61 -5.57,19.88 -19.45,61.86 -15.98,76.5 5.57,23.49 23.21,29.73 24.12,31.69 2.01,4.28 -1.18,137.96 0.63,144.35 1.46,5.21 -0.14,1.78 2.41,4.5z"/>
     <path class="fil3" d="M423.74 305.17c7.62,18.6 17.16,41.24 48.94,40.18 30.48,-1.01 38.9,-22.6 46.06,-42.37 0.24,-19.16 -4.68,-43.84 -7.17,-64.05 -1.89,-15.39 -8.5,-49.94 -7.33,-62.94l-81.91 -0.07 1.41 129.25z"/>
     <path class="fil3" d="M536.82 450.97c3.09,-2.36 2.92,0.93 4.21,-6.33 -5.19,-3.91 -17.27,-1.78 -24.64,-2.03l-0.42 -16.76 45.03 0.49c-2.97,-2.9 2.81,-1.13 -5.13,-2.81l-17.6 0.15c-8.14,-0.02 -15.61,-0.24 -23.79,0.38 -1.45,6.25 -1.52,12.98 -0.16,19.12 6.8,3.07 16.96,1.22 25.17,1.57l-2.67 6.22z"/>
    </g>
    <g>
     <path class="fil4" d="M325.99 308.81c5.91,10.82 3.87,16.35 17.5,27.31 10.45,8.4 15.02,11.42 32.89,11.45 18.11,0.03 22.03,-3.85 32.28,-12.11 6.33,-5.09 7.3,-3.38 10.29,-11.84 2.73,-7.73 4.48,-8.14 4.79,-18.45l-1.41 -129.25 -78.8 -0.03c-4.94,16.96 -6.67,46.97 -9.39,66.35 -2.83,20.15 -7.42,46.66 -8.15,66.57z"/>
     <path class="fil4" d="M518.74 302.98c0.25,17.56 11.81,31.61 23.36,37.53 12.92,6.62 28.29,10.16 42.44,4.91 3.96,-1.47 2.99,-0.46 5.29,-3.6 10.25,-9.15 31.14,-22.61 24.45,-48.91 -5,-19.65 -10.69,-40.52 -15.92,-60.2 -15.72,-59.21 -4.52,-59.25 -94.12,-56.72 -1.17,13 5.44,47.55 7.33,62.94 2.49,20.21 7.41,44.89 7.17,64.05z"/>
    </g>
    <path class="fil5" d="M536.82 450.97l2.67 -6.22c-8.21,-0.35 -18.37,1.5 -25.17,-1.57 -1.36,-6.14 -1.29,-12.87 0.16,-19.12 8.18,-0.62 15.65,-0.4 23.79,-0.38l17.6 -0.15c7.94,1.68 2.16,-0.09 5.13,2.81 -1.47,14.29 1.6,41.48 -28.17,52.22 -26.11,9.41 -48.58,-3.37 -59.08,-20.4 -13.15,-21.33 -6.08,-46.7 10,-60.76 15.19,-13.28 48.19,-16.81 61.98,0.56 -2.33,4.69 -8.2,9.53 -11.83,12.74 -9.69,-2.79 -17.39,-11.63 -33.15,-2.18 -9.24,5.54 -15.96,15.72 -13.86,30.28 4.87,33.83 51.74,25.12 49.93,12.17zm-113.08 -145.8c-0.31,10.31 -2.06,10.72 -4.79,18.45 -2.99,8.46 -3.96,6.75 -10.29,11.84 -10.25,8.26 -14.17,12.14 -32.28,12.11 -17.87,-0.03 -22.44,-3.05 -32.89,-11.45 -13.63,-10.96 -11.59,-16.49 -17.5,-27.31l-4.6 9.48c-3.67,8.48 -10.69,15.41 -18.66,20.35 -16.12,9.97 -27.06,7.15 -45.44,2.74 3.66,42.57 -2.46,115.78 1.68,148.54 0.72,21.79 35.83,18.21 45.96,18.19l192.51 0.01c21.25,-0.01 43.06,0.52 64.24,0.05 23.74,-0.53 27.8,-15.78 27.69,-37.27 -0.1,-21.55 -1.02,-115.21 0.46,-129.08 -2.3,3.14 -1.33,2.13 -5.29,3.6 -14.15,5.25 -29.52,1.71 -42.44,-4.91 -11.55,-5.92 -23.11,-19.97 -23.36,-37.53 -7.16,19.77 -15.58,41.36 -46.06,42.37 -31.78,1.06 -41.32,-21.58 -48.94,-40.18z"/>
   </g>
  </g>
 </g>
</svg>
