<!-- Generated by IcoMoon.io -->
<svg version="1.1" xmlns="http://www.w3.org/2000/svg" width="32" height="32" viewBox="0 0 32 32">
<title>logo-cgt-mx</title>
<path d="M9.056 11.151v-0.144l-0.226 0.057c0.119-0.304 0.006-0.064-0.26-0.163-0.022-0.008-0.048-0.007-0.070-0.017l-0.245-0.159c0.352 0.030 0.578-0.030 0.841-0.18 0.173 0.308 0.263 0.198 0.225 0.638-0.046 0.537 0.033 0.183-0.134 0.334-0.036-0.169-0.013-0.163-0.131-0.367zM5.665 24.959h-1.657v0.139c0 0.317-0.062 0.537-0.188 0.661s-0.353 0.187-0.682 0.187c-0.352 0-0.586-0.067-0.703-0.202s-0.176-0.463-0.176-0.982v-1c0-0.52 0.058-0.848 0.176-0.984s0.352-0.204 0.703-0.204c0.318 0 0.542 0.057 0.669 0.171 0.128 0.115 0.192 0.312 0.192 0.589v0.111h1.624v-0.119c0-0.812-0.169-1.38-0.506-1.7-0.338-0.322-0.933-0.483-1.787-0.483h-0.451c-0.861 0-1.463 0.183-1.809 0.55s-0.519 1.011-0.519 1.936v1.261c0 0.925 0.173 1.57 0.519 1.937s0.948 0.551 1.809 0.551h0.552c0.793 0 1.362-0.176 1.71-0.526s0.523-0.924 0.523-1.717v-0.176zM11.212 23.118v-0.258c0-0.494-0.209-0.903-0.628-1.228s-0.954-0.488-1.608-0.488h-0.886c-0.806 0-1.394 0.219-1.767 0.656-0.373 0.438-0.559 1.131-0.559 2.079v0.925c0 0.846 0.177 1.488 0.53 1.924 0.354 0.434 0.873 0.651 1.559 0.651h1.108c0.778 0 1.349-0.188 1.71-0.566 0.361-0.376 0.541-0.978 0.541-1.799v-1.041h-2.521v1.138h0.932v0.237c0 0.22-0.063 0.375-0.19 0.464-0.127 0.090-0.352 0.135-0.672 0.135h-0.454c-0.374 0-0.619-0.068-0.739-0.203-0.12-0.137-0.18-0.463-0.18-0.978v-1.002c0-0.52 0.060-0.849 0.18-0.986s0.365-0.204 0.739-0.204h0.409c0.302 0 0.52 0.044 0.655 0.128 0.136 0.086 0.205 0.224 0.211 0.416h1.63zM12.752 27.302h1.649v-4.728h1.557v-1.356h-4.77v1.356h1.565v4.728zM16.164 27.302h0.645v-2.499c0-0.455 0.079-0.782 0.237-0.983 0.157-0.199 0.413-0.3 0.766-0.3 0.302 0 0.507 0.059 0.616 0.178s0.163 0.35 0.163 0.693v0.127h0.644v-0.034c0-0.574-0.095-0.975-0.284-1.202-0.188-0.226-0.518-0.339-0.986-0.339-0.317 0-0.569 0.052-0.761 0.156-0.191 0.103-0.33 0.266-0.421 0.491v-0.589h-0.62v4.301zM22.228 26.206v-0.453c0-0.205-0.104-0.355-0.312-0.45-0.208-0.096-0.54-0.144-0.995-0.144-0.416 0-0.695 0.053-0.834 0.158-0.141 0.104-0.211 0.305-0.211 0.602 0 0.339 0.074 0.564 0.223 0.676 0.148 0.113 0.445 0.17 0.891 0.17 0.4 0 0.706-0.049 0.919-0.145 0.212-0.096 0.318-0.236 0.318-0.416zM22.261 26.849c-0.097 0.18-0.254 0.31-0.467 0.391-0.215 0.081-0.511 0.121-0.89 0.121-0.672 0-1.124-0.096-1.353-0.289s-0.343-0.55-0.343-1.074c0-0.302 0.026-0.539 0.080-0.711s0.141-0.31 0.263-0.413c0.103-0.088 0.255-0.149 0.456-0.186s0.488-0.056 0.865-0.056c0.389 0 0.687 0.032 0.892 0.096 0.207 0.064 0.361 0.17 0.464 0.321v-0.742c0-0.351-0.068-0.578-0.203-0.683-0.137-0.103-0.479-0.155-1.025-0.155-0.397 0-0.663 0.042-0.794 0.125-0.13 0.082-0.198 0.238-0.204 0.468h-0.636v-0.099c0-0.368 0.119-0.631 0.357-0.786 0.239-0.158 0.65-0.236 1.233-0.236 0.455 0 0.801 0.019 1.038 0.057s0.413 0.099 0.527 0.184c0.125 0.098 0.213 0.219 0.265 0.364 0.052 0.144 0.078 0.392 0.078 0.743v3.011h-0.579l-0.025-0.453zM22.872 23l1.508 4.301h0.83l1.479-4.301h-0.617l-1.283 3.701-1.279-3.701h-0.637zM27.241 24.733h2.435v-0.167c0-0.403-0.073-0.676-0.216-0.822-0.145-0.143-0.431-0.216-0.858-0.216h-0.299c-0.425 0-0.708 0.073-0.85 0.216-0.141 0.145-0.212 0.419-0.212 0.822v0.167zM28.311 27.361c-0.643 0-1.092-0.125-1.349-0.377-0.255-0.25-0.384-0.69-0.384-1.321v-1.020c0-0.633 0.127-1.074 0.382-1.325s0.702-0.377 1.342-0.377h0.299c0.643 0 1.093 0.125 1.35 0.377s0.385 0.692 0.385 1.325v0.65l-3.096 0.005c-0.003 0.043-0.005 0.092-0.006 0.144s-0.003 0.127-0.003 0.222c0 0.445 0.071 0.742 0.213 0.893 0.141 0.152 0.427 0.227 0.858 0.227h0.299c0.383 0 0.65-0.056 0.801-0.166 0.149-0.111 0.237-0.303 0.261-0.579h0.665c-0.032 0.467-0.183 0.803-0.451 1.011s-0.69 0.311-1.269 0.311h-0.297zM30.812 27.302h0.636v-6.084h-0.636v6.084zM19.292 13.901c0.042 0.119-0.003 0.121 0.046 0h0.188c0.003 0.133-0.021 0.187 0.029 0.31 0.124 0.312 0.037 0.081 0.167 0.2-0.041 0.249 0.108 0.255 0.23 0.321l0.089 0.187c-0.42 0.004-0.479-0.035-0.75-0.262-0.623-0.521 0.020 0.195-0.954-0.759-0.425-0.416-0.299-0.084-0.529-0.492-0.010-0.017-0.017-0.042-0.027-0.058l-0.723-0.979-0.262 0.028c-0.018-0.402-0.077-0.452-0.334-0.624 0.225-0.468-0.028-0.613-0.595-0.86-0.531-0.231-0.378-0.003-0.417 0.042-0.278-0.173 0.021-0.080-0.356-0.049-0.331 0.027-0.271-0.010-0.504 0.101l0.072 0.391c-0.18-0.058-0.158-0.117-0.158 0.034-0.183 0-0.017-0.022-0.048 0.156l-0.375-0.086c-0.050 0.133-0.073 0.131-0.099 0.175l-0.092 0.172c-0.27 0.016-0.024-0.093-0.391 0.109-0.017 0.009-0.036 0.025-0.051 0.034l-0.264 0.162c-0.375 0.247-0.129 0.204-0.552 0.214l0.023 0.19c-0.342-0.037-0.108-0.037-0.194 0.066-0.343 0-0.037-0.024-0.17 0.125l-0.038 0.045c-0.427 0.029-0.324 0.115-0.577 0.158-0.293 0.050-0.259-0.046-0.577-0.073-0.089 0.221 0.18 0.156-0.586 0.265-0.207 0.029-0.515 0.076-0.691 0.16l-0.088-2.471c0.006-0.37 0.088-0.478 0.088-0.848l0.426-0.275 0.004-0.065c0.259-0.21 0.006 0.041 0.161-0.171l0.072-0.114c0.008-0.012 0.019-0.039 0.031-0.056-0.028 0.285-0.031 0.12 0.072 0.112 0 0.401-0.016 0.357-0.085 0.654h0.171v0.17h0.17c-0.033 0.392-0.054 0.387-0.085 0.766 0.26-0.062 0.128 0.011 0.255-0.188 0.19-0.113 0.195-0.14 0.243-0.423 0.009-0.050 0.025-0.285 0.019-0.327-0.040-0.36-0.005-0.14-0.092-0.229 0.069-0.218 0.165-0.186 0.17-0.509l0.005-0.001 0.081 0.484c0.239-0.102 0.092-0.151 0.171 0.085l0.255-0.255c0 0.904-0.043 0.545 0.148 0.648l-0.076 0.372c0.246-0.168 0.178 0.012 0.192-0.415 0.010-0.274-0.011-0.398-0.068-0.654 0.385-0.045-0.096 0.073 0.314-0.036 0-0.344 0.029-0.036-0.146-0.17 0.119-0.305 0.056-0.084-0.011-0.19-0.153-0.243-0.019-0.049-0.183-0.109 0.064-0.115 0.013-0.125 0.085-0.212l-0.085-0.17c0.165 0.044 0.132 0.015 0.255 0.085 0-0.443 0.004-0.133 0.083-0.255l0.002 0.34c0.094 0.079 0.074 0.021 0.17 0.042 0.081 0.162 0.088 0.164 0.163 0.304 0.020 0.037 0.076 0.155 0.089 0.173 0.15 0.204-0.087-0.034 0.165 0.162-0.116 0.236-0.087 0.090 0.009 0.17 0.105-0.454 0.201-0.66-0.199-1.164-0.163-0.206-0.094-0.146-0.312-0.181-0.080-0.21-0.084-0.076 0-0.272h0.17c-0.115-0.428-0.149-0.077-0.255-0.539 0.117 0.104 0.185 0.149 0.274 0.269 0.092 0.123 0.029 0.061 0.096 0.158 0.127 0.184 0.053 0.090 0.141 0.16v0.208l0.206 0.085c0.034 0.123-0.124 0.025 0.135 0.17 0-0.534-0.061-0.967-0.624-1.333-0.193-0.125-0.498-0.165-0.789-0.080-0.695 0.202-0.72 0.096-0.747 0.222-0.206 0.041-0.175 0.010-0.309 0.085v-0.147c0.159-0.064 0.136-0.067 0.186-0.092l0.346-0.162c0.17-0.113 0.024 0.003 0.095-0.111 0.502-0.009 0.55-0.245 1.416 0.171-0.038-0.162 0.066-0.009-0.061-0.197-0.107-0.159-0.003-0.023-0.148-0.144l-0.386-0.198c0-0.168 0.051-0.142-0.085-0.142l-0.184-0.085c-0.062-0.062 0.001-0.049-0.131-0.112-0.18-0.086-0.039-0.022-0.196-0.058-0.255 0.143-0.092 0.062-0.145 0.17h-0.281l0.024 0.201-0.188-0.125c-0.095 0.116-0.024 0.072-0.050 0.207-0.158-0.123-0.127 0.111-0.127-0.198l0.085-0.178c0.164-0.082 0.107-0.053 0.147-0.163 0.218-0.045 0.266-0.079 0.534-0.085v-0.171c-0.565-0.131-0.652-0.209-0.823 0.037l-0.197-0.042-0.086 0.206c-0.072 0.035-0.090-0.011-0.17 0.055l0.021 0.17c-0.109-0.065-0.186-0.104-0.293-0.17l-0.338-0.412c-0.152-0.014-0.413-0.030-0.568 0-0.395 0.076-0.394 0.24-0.395 0.242-0.292 0.062-0.218-0.047-0.299 0.255h0.375c0.094 0.219-0.241-0.068 0.561-0.085l-0.12 0.17h-0.22v0.171c-0.287-0.138-0.991-0.141-1.362-0.005-0.155-0.198 0.253-0.165-0.341-0.165 0 0.344-0.026 0.036 0.137 0.171 0.022 0.131-0.044 0.032 0.035 0.172s0.068 0.095 0.168 0.168c0.486 0 0.111 0.018 0.197-0.085 0.176 0.123 0.083-0.086 0.229 0.301l-0.482 0.465c-0.213 0.12-0.137-0.006-0.199 0.255l0.17 0.078-0.17 0.008 0.035 0.169c-0.124 0.133-0.121-0.205-0.121 0.34 0.215-0.149 0.108-0.006 0.17-0.297 0.122-0.042 0.016 0.010 0.147-0.063 0.013-0.007 0.070-0.050 0.095-0.065 0.202-0.247 0.126-0.089 0.185-0.356 0.121 0.022 0.097 0.038 0.037-0.069 0.308 0.021 0.237 0.038 0.435 0.024 0.038-0.003 0.117-0.034 0.209-0.026 0.369 0.033 0.133-0.007 0.255 0.104-0.29-0.017-0.403 0.018-0.614 0.135-0.006 0.003-0.201 0.127-0.209 0.133-0.176 0.143-0.098 0.069-0.173 0.225l-0.194 0.089c-0.030 0.333-0.087 0.396-0.087 0.848 0.412-0.096 0.226-0.086 0.384-0.295l0.259-0.285c0.011-0.015 0.026-0.045 0.038-0.068l0.056-0.033c0.015-0.003 0.209-0.056 0.232-0.057 0.317-0.014 0.116-0.023 0.223 0.056l-0.425 0.417c-0.112 0.072-0.138 0.057-0.162 0.197-0.061 0.365 0.049 0.197 0.076 0.239v0.17c0.24-0.064 0.063 0.033 0.242-0.097 0.304-0.22 0.002 0.021 0.184-0.2 0.109 0.053 0.085 0.074 0.086-0.044h0.339c0.081-0.116 0.099-0.153 0.171-0.278 0.112 0.030 0.090 0.052 0.069-0.062 0.128 0.066 0.101-0.118 0.101 0.158-0.127 0.019-0.1-0.007-0.018 0.098-0.189 0.088-0.152-0.143-0.152 0.17h0.179l0.014 0.085c-0.057 0.064-0.106-0.040-0.168 0.283s0.013 0.086 0.054 0.404c0.060 0.474 0.048 0.616-0.275 0.504-0.207-0.393-0.865-0.303-1.141 0-0.344 0-0.107-0.020-0.195 0.085l-0.17-0.071c0.208-0.162 0.185-0.211 0.458-0.324l0.458-0.131c0.204-0.069 0.065 0.008 0.159-0.070 0.347-0.007 0.222 0.028 0.458-0.085-0.129-0.186-0.014-0.106-0.253-0.17-0.065-0.044-0.044-0.047-0.164-0.096-0.121-0.049-0.099-0.058-0.279-0.077-0.4-0.041-0.371-0.018-0.48 0.173-0.224 0.082-0.081 0.058-0.356 0l0.022 0.338-0.277 0.003 0.048 0.375c-0.227-0.127-0.101-0.096-0.388-0.12 0.108-0.226 0.077-0.091 0.085-0.425h-0.255c0.069-0.297 0.131-0.444 0.255-0.681-0.367 0.030-0.37 0.050-0.511 0.281-0.271 0.128-0.401 0.296-0.283 0.74l-0.251 0.321c-0.14 0.109-0.209-0.022-0.317 0.275-0.247-0.165-0.114-0.172-0.425-0.255v0.17c-0.121-0.069-0.096-0.056-0.28-0.085-0.103-0.1 0.234-0.085-0.231-0.085l-0.189 0.255h-0.151l0.053 0.228c-0.184 0.101-0.090-0.107-0.144 0.191-0.002 0.013 0.006 0.306 0.006 0.346h0.17v0.117c-0.125 0.037-0.093-0.009-0.148 0.139-0.223 0.128-0.365 0.196-0.448 0.425 0.447-0.010 0.325-0.087 0.681-0.17-0.064 0.302-0.112 0.133-0.013 0.269 0.227 0.314-0.186-0.1 0.068 0.035l0.314 0.803c-0.037 0.112-0.058 0.085 0.057 0.085v0.511c0.507-0.108 0.051-0.025 0.596 0.34-0.068-0.291-0.085-0.246-0.085-0.638 0.043-0.044 0.139 0.168 0.040-0.298 0.121-0.065 0.127-0.010 0.216-0.085 0.038 0.162-0.061 0.006 0.060 0.197 0.093 0.145 0.024 0.041 0.138 0.143 0.025 0.285 0.017 0.283 0.313 0.321l0.085 0.1c0.007 0.008 0.035 0.038 0.043 0.046 0.078 0.084 0.427 0.043 0.553 0.043-0.085-0.317-0.119-0.276-0.479-0.341-0.010-0.082 0.016-0.072-0.029-0.261l-0.088-0.237 0.3-0.353c-0.056 0.108-0.079 0.092 0.041 0.068 0.101 0.309-0.032 0.071 0.228 0.301 0.138 0.123 0.144 0.134 0.283 0.227 0.142-0.119 0.040 0.029 0.057-0.2 0.199-0.031 0.107-0.042 0.307 0.030 0.066 0.136 0.141 0.23 0.265 0.392 0.15 0.196 0.211 0.257 0.393 0.363 0.046 0.187-0.086 0.018 0.066 0.2 0.176 0.21 0.074 0.071 0.218 0.128-0.021 0.014-0.054 0.008-0.067 0.039s-0.050 0.027-0.069 0.033c-0.65 0.216-0.404-0.021-0.404 0.888l-0.851 0.255v0.511c-0.939 0.219-0.877 0.019-0.854 2.046 0.005 0.438 0.095 0.51 0.174 0.848l0.255-0.17c0.639 0 0.69 0.056 0.766 0.34 0.157-0.083 0.297-0.194 0.443-0.224l0.494 0.054c0.158-0.203 0.202-0.254 0.455-0.314 0.721-0.171 0.541 0.078 0.567 0.144 0.606-0.050 0.511-0.804 0.511-1.447h0.194l0.076 0.081c0.248 0.224 0.263 0.219 0.496 0.215 0.096 0.12 0.044 0.104 0.202 0.186 0.043 0.022 0.187 0.056 0.258 0.081 0.362 0.124 0.22 0.137 0.518 0.289 0.007 0.28-0.098 0.041 0.098 0.283 0.059 0.073 0.157 0.139 0.256 0.178 0.334 0.132 0.477 0.078 0.643-0.12 0.173-0.045 0.135-0.068 0.282-0.038 0.273 0.057-0.070 0.038 0.356 0.123-0.009 0.088-0.164 0.133 0.11 0.037 0.111 0.207-0.046 0.058 0.143 0.155 0.202 0.103 0.038 0.043 0.301 0.063 0.062 0.050 0.017 0.029 0.149 0.092 0.105 0.050 0.102 0.042 0.242 0.096 0.191 0.074 0.262 0.145 0.527 0.107 0.1 0.125 0.041 0.099 0.203 0.186 0.030 0.016 0.269 0.101 0.308 0.116 0.241 0.097 0.306 0.147 0.637 0.169 0.048 0.132-0.067 0.037 0.114 0.107 0.227 0.088-0.042 0.054 0.271 0.034 0.1 0.112 0.012 0.042 0.144 0.14 0.102 0.076 0.050 0.030 0.159 0.099 0.233 0.147 0.176 0.119 0.438 0.217-0.007 0.097-0.104 0.284 0.438 0.61 0.101 0.061 0.365 0.137 0.461 0.142 0.424 0.023 0.374-0.156 0.374-0.156l0.229-0.085c0.056 0.076-0.203 0.129 0.226 0.054 0.015 0.017 0.038 0.021 0.046 0.050 0.044 0.152 0.493 0.223 0.664 0.236 0.057 0.116-0.049 0.045 0.123 0.107 0.231 0.082-0.041 0.060 0.273 0.025l0.085 0.116c0.033 0.039 0.090 0.072 0.159 0.093h0.312c0.078-0.025 0.152-0.072 0.21-0.146 0.377 0.105 2.267-0.401 2.533-0.62 0.178-0.042 0.299 0.061 0.361-0.681l-0.255-0.085c0.218 0 0.206-0.021 0.341-0.085 0-0.38-0.035-0.9 0.021-1.26 0.065-0.417-0.021-0.566-0.021-1.136l0.168-0.077c0.002-0.462 0.067-0.581 0.132-0.846 0.114-0.064 0.125-0.013 0.211-0.085l-0.032-0.209c0.134-0.037 0.093 0.044 0.202-0.046v-0.231c0.077-0.043 0.053 0.019 0.143-0.14 0.089-0.157 0.070-0.133 0.093-0.31 0.212-0.078 0.078-0.084 0.275 0v-0.195c0.073-0.115-0.024-0.939 0.366-1.39l0.118-0.117c0.305-0.071 0.253-0.003 0.281-0.341 0.549 0 0.287 0.005 0.425-0.138 0.251 0.098 0.113 0.065 0.161-0.032h0.18v-0.171c0.145-0.227 0.021-0.203 0.211-0.384 0.068-0.064 0.417-0.202 0.781-0.742 0.123-0.183 0.098-0.022 0.030-0.116v-0.204c-0.326 0.173-0.342 0.074-0.425 0.479-0.109-0.002-0.080-0.177-0.089 0.117-0.249 0.059-0.257 0.085-0.592 0.085l0.085-0.188c0.423-0.176 0.017-0.452-0.17-0.577-0.309 0.207-0.341 0.185-0.341 0.681-0.322 0-0.281-0.008-0.396 0.085h-0.285v-0.387c0.296-0.206 0.337-0.48 0.389-0.803l0.047-0.28c0-0.009 0.001-0.034 0-0.042 0-0.010-0.002-0.035-0.003-0.044-0.004-0.050-0.007-0.054-0.014-0.091-0.002-0.010-0.006-0.037-0.009-0.047s-0.007-0.036-0.010-0.046c-0.056-0.212 0.032-0.078-0.061-0.158v-0.316h-0.167c-0.019-0.039-0.069-0.162-0.078-0.179-0.118-0.216-0.017-0.047-0.095-0.146-0.15-0.25-0.15-0.135-0.085-0.441-0.576 0-0.455 0.112-0.936 0v0.386c-0.027 0.008-0.089 0.027-0.102 0.034-0.15 0.076-0.079 0.042-0.153 0.090-0.175-0.003-0.37-0.056-0.419-0.033-0.149 0.069-0.069-0.021-0.086 0.128-0.048 0.417 0.036 0.158 0.102 0.23-0.027 0.203-0.149 0.25 0.487 0.101 0.203 0.136 0.089 0.103 0.341 0.171-0.093 0.187-0.070 0.096-0.058 0.367-0.283 0.112 0.030-0.132-0.197 0.058l-0.085 0.362c-0.529 0.267-0.925 0.957-0.878 1.714 0.014 0.234 0.147 0.496 0.282 0.633v0.27l0.186 0.085c0.093 0.316-0.107 0.068 0.119 0.511-0.291 0-0.090 0.068-0.105 0.218 0 0.003 0.002 0.231-0.006 0.31-0.034 0.344-0.059 0.444-0.108 0.723-0.090-0.008-0.127-0.167-0.046 0.111l-0.547 0.104-0.003-0.239 0.102-0.031c0.017-0.009 0.143-0.082 0.153-0.089v-0.511c-0.354-0.306-0.16-0.233-0.851-0.255l-0.294 0.425c-0.145 0.143-0.131-0.227-0.131 0.34-0.432-0.010-0.645-0.168-1.022-0.255l-0.027-0.069c-0.002-0.005-0.010-0.030-0.014-0.037l-0.040-0.081c-0.096-0.159-0.097-0.052-0.175-0.294 0.278-0.060 0.107 0.009 0.144-0.115h0.196c-0.108-0.232-0.008-0.32 0.085-0.578l0.022-0.018h0.148c-0.081-0.345-0.027-0.352-0.27-0.511-0.003-0.272-0.037-0.246-0.106-0.511 0.137-0.081 0.154-0.231 0.159-0.651l-0.056-0.2c0.037-0.291 0.035-0.111-0.068-0.158-0.046-0.21-0.079-0.259-0.085-0.523 0.522 0 0.22-0.012 0.319-0.1l-0.157-0.104 0.164-0.040-0.007 0.144 0.455-0.149c0.188-0.155 0.145-0.182 0.162-0.315-0.306 0.177-0.14 0.010-0.339 0.285l-0.271 0.036-0.157-0.269 0.72-0.244 0.047 0.192c0.218 0.013 0.103-0.003 0.341 0.054-0.022-0.263 0.001-0.161-0.085-0.34l0.338-0.175c-0.052-0.2 0.001-0.082-0.082-0.257 0.115 0.008 0.091 0.034 0.066-0.079 0.425-0.101 0.358-0.269 0.444-0.721 0.097-0.013 0.115 0.164 0.060-0.13 0.137-0.088 0.111 0.139 0.111-0.171l-0.131-0.214c0.31-0.064 0.063 0.021 0.112-0.655 0.009-0.12 0.019-0.194 0.019-0.322-0.346 0.092-0.247 0.029-0.255 0.444l-0.317 0.407c-0.416 0.236-0.268 0.361-0.62 0.596v0l-0.095-0.337-0.176-0.003c-0.070-0.124 0.014-0.125-0.172-0.162-0.376-0.074-0.176 0.069-0.181 0.076l-0.227 0.17c0.086 0.321 0.097 0.255 0.277 0.425l0.048 0.255c-0.211 0.172-0.113 0.123-0.287 0.38-0.007 0.010-0.024 0.031-0.037 0.045l0.067 0.322c-0.26-0.030-0.148-0.080-0.322 0.018 0.001-0.025 0.141-0.903-0.347-0.917-0.267-0.007-0.211 0.269-0.211 0.269-0.182 0.057-0.098-0.214-0.131 0.22-0.014 0.191 0.041 0.234 0.093 0.342h-0.163c-0.179-0.245-0.169-0.328-0.518-0.317-0.346-0.334-1.416-0.279-1.914-0.279-0.013-0.012-0.038-0.042-0.045-0.027l-0.594-0.144c-0.281-0.046-0.424-0.084-0.767-0.084 0.114 0.425 0.377 0.387 0.776 0.501 0.315 0.090 0.759 0.267 1.097 0.247l0.090 0.186 0.229 0.002 0.022 0.049c0.109 0.134-0.046 0.076 0.254 0.188 0.279 0.214 0.327-0.008 0.696 0.187 0.018 0.009 0.042 0.032 0.056 0.041s0.035 0.031 0.053 0.046c-0.049 0.109-0.071 0.092 0.047 0.068 0 0.317 0.036 0.108-0.119 0.229-0.117-0.147 0.171-0.127-0.478-0.127 0.121 0.252 0.085 0.238 0.085 0.596h0.34v-0.255l0.332-0.073c-0.007 0.227-0.080 0.121 0.121 0.216 0.099 0.047 0.202 0.024 0.314 0.027v0.17c-0.412 0.11-0.173 0.030-0.291 0.396-0.144 0.447-0.854 0.923-0.888 0.978-0.029 0.046-0.081 0.259-0.097 0.328 0.518 0.275 0.314 0.244 0.617 0.341zM18.393 8.028c0.063 0.071-0.036 0.032 0.186 0.095 0.519 0.147 1.736 0.343 2.138-0.010 0.262-0.069 0.399-0.207 0.597-0.34-0.162-0.306-0.056-0.258-0.378-0.425l-0.048-0.049c-0.184-0.322 0.006-0.078-0.265-0.283-0.236-0.18-0.065-0.109-0.35-0.178-0.063-0.057 0.026-0.062-0.133-0.104-0.224-0.059 0.033-0.106-0.273 0.007-0.157-0.186-0.034-0.103-0.328-0.176-0.102-0.025-0.22-0.036-0.353-0.067 0.135-0.255 0.253-0.43 0.216-0.784 0.171-0.12 0.032 0.055 0.149-0.127 0.091-0.14 0.038-0.069 0.097-0.246 0.064-0.192 0.093-0.281 0.135-0.46-0.012-0.016-0.037-0.057-0.044-0.042l-0.159-0.128c0.014-0.038 0.022-0.065 0.025-0.085h-0.093c-0.042 0.035-0.083 0.079-0.088 0.085-0.23 0.178-0.258 0.14-0.307 0.443-0.287-0.029-0.129-0.024-0.271 0.249-0.259 0.168-0.086 0.047-0.275 0.33h-0.15v0.178c-0.136 0.083-0.148 0.086-0.282 0.222-0.013 0.013-0.115 0.129-0.117 0.133-0.085 0.12-0.032 0.036-0.078 0.148-0.403 0.158-1.115 0.054-1.484 0.044-0.099-0.003-0.443-0.030-0.571-0.021-0.21 0.015-0.464 0.063-0.833 0.063-0.006-0.017-0.019-0.061-0.023-0.049l-0.357-0.436c-0.079-0.141-0.052-0.137-0.184-0.269-0.21-0.211-0.113-0.136-0.348-0.153-0.086-0.095-0.007-0.082-0.195-0.153-0.189-0.071-0.168-0.041-0.38-0.046 0 0.478-0.018 0.104 0.104 0.255-0.003 0.265 0.056 0.34 0.145 0.519 0.004 0.007 0.111 0.203 0.12 0.216 0.102 0.145 0.062 0.098 0.141 0.147-0.088 0.174 0.142 0.14-0.17 0.14 0 0.343-0.027 0.046 0.139 0.116-0.152 0.198-0.070 0.093-0.214 0.239-0.226 0.23-0.065-0.080-0.18 0.24 0.758 0 0.469-0.006 0.594-0.104l0.426 0.104c0.184 0.158 0.185 0.139 0.453 0.232 0.263 0.092 0.361 0.133 0.655 0.033 0.481 0.573-0.415-0.33 0.228 0.204l0.113 0.090c-0.155 0.045 0.027-0.069-0.207 0.087-0.191 0.127-0.104 0.040-0.197 0.204h-0.192l-0.085 0.2c-0.37 0.107-0.144 0.041-0.207 0.14-0.302 0-0.369 0.177-0.474 0.371-0.205 0.018-0.125 0.005-0.283 0.112-0.302 0.206 0.162-0.144-0.090 0.075-0.131 0.114-0.067 0.069-0.121 0.123-0.126 0.088-0.102-0.138-0.102 0.17 0.2 0.046 0.252 0.085 0.511 0.085v-0.085c0.484 0 0.1 0.028 0.255-0.138 0.432 0.129 0.176 0.026 0.204-0.032h0.222l0.085-0.186c0.392-0.002 0.138 0.102 0.354-0.154 0.116 0.076 0.087 0.057 0.283 0.085 0.029 0.049-0.203 0.183 0.214 0.013 0.085 0.12-0.18 0.196 0.245 0.158 0.281-0.025-0.004 0.044 0.116-0.049 0.232-0.181-0.015 0.132 0.084-0.188 0.231-0.006 0.127 0.218 0.14-0.163 0.001-0.027-0.054-0.215-0.075-0.333 0.221 0.014 0.108 0.044 0.374-0.080 0.124-0.058 0.096-0.053 0.159-0.096 0.188-0.129 0.042-0.021 0.139-0.112 0.289-0.023 0.197-0.038 0.388-0.027 0.185 0.011 0.325 0.027 0.531 0.027zM13.43 16.539c0.001-0.088 0.145-0.143-0.118-0.022-0.151-0.174 0.245-0.148-0.34-0.148l-0.085 0.766c0-0.864 0.112-0.903-0.392-0.936-0.053-0.061 0.005-0.037-0.172-0.118-0.119-0.054-0.117-0.044-0.25-0.089-0.234-0.078-0.3-0.121-0.547-0.101-0.015-0.017-0.036-0.069-0.045-0.053l-0.218-0.145c-0.069-0.030-0.232-0.073-0.322-0.101-0.197-0.063-0.428-0.119-0.59-0.261-0.277-0.242-0.357-0.848-0.357-1.345 0.578 0.013 0.957 0.328 1.559 0.34 0.187 0.164 3.291 1.1 3.548 1.051 0.212 0.238 0.355 0.222 0.75 0.328 0.213 0.057 0.573 0.158 0.795 0.227 0.436 0.136 1.14 0.428 1.635 0.438 0.184 0.167 1.632 0.58 1.842 0.553 0.089 0.159-0.142 0.128 0.171 0.128 0 1.117 0.045 1.505-0.079 2.56-0.030 0.255-0.006 0.659-0.006 0.93h-0.204c-0.011-0.014-0.034-0.048-0.039-0.035s-0.032-0.030-0.038-0.038l-0.155-0.427c-0.039-0.273-0.055-0.374-0.076-0.691-0.037-0.582-0.16-0.762-0.604-0.928-0.427-0.159-1.995-0.768-2.375-0.746-0.015-0.017-0.036-0.067-0.045-0.051l-1.445-0.488c-0.152-0.158-0.868-0.439-1.234-0.395-0.116-0.119 0.145-0.089-0.214-0.148-0.276-0.046 0.281-0.113-0.093 0.009l-0.119 0.108c0-0.344 0.026-0.035-0.137-0.17zM9 14.667c0.038 0.122-0.010 0.090 0.141 0.149 0.090 0.155 0.117 0.16 0.171 0.361-0.194-0.045-0.196-0.066-0.426-0.085 0-0.419 0.019-0.314 0.114-0.425zM9.193 14.411l-1.414-1.506-0.096-0.535 0.207-0.002c0.011 0.013 0.029 0.019 0.034 0.041s0.030 0.033 0.038 0.038c0.129 0.086 0.042 0.033 0.157 0.083 0.061 0.241 0.010 0.158 0.178 0.24l0.248 0.109c0-0.344-0.019-0.036 0.102-0.17 0 0.43 0.136 0.425 0.579 0.425l-0.807-1.055c-0.009-0.007-0.030-0.024-0.044-0.037-0.071-0.287 0.002-0.211-0.279-0.25l0.333-0.322c-0.018 0.289-0.156 0.146 0.116 0.219v-0.171c0.211 0.018 0.223 0.026 0.375 0.085 0.020 0.099-0.158 0.111 0.136 0.062l0.137 0.139c0.234 0.256 0.243 1.618 0.171 2.064-0.057 0.351-0.031 0.385-0.171 0.543zM20.717 7.367c-0.294-0.045-0.117-0.035-0.131 0.064-0.58 0-0.252 0.152-0.653-0.085 0.16-0.098 0.111-0.045 0.236-0.12l0.144-0.1c0.009-0.006 0.030-0.022 0.043-0.035l0.357 0.094 0.003 0.182zM4.8 11.070l0.596 0.101c-0.072 0.066-0.015 0.057-0.143 0.117-0.184 0.086-0.065 0.025-0.264 0.077-0.155 0.041-0.29 0.077-0.444 0.151l-0.039-0.219c0.239-0.042 0.142 0.090 0.294-0.227zM9.312 6.685c-0.019-0.012-0.049-0.052-0.058-0.035s-0.045-0.028-0.056-0.036c-0.121-0.092-0.068-0.051-0.142-0.118l0.298 0.138c-0.007 0.009-0.027 0.035-0.042 0.051zM10.972 10.070l0.011 0.17h-0.139c0-0.293-0.036-0.104 0.128-0.17zM11.358 9.331l-0.175 0.51c-0.13-0.147-0.155-0.192 0.041-0.49l0.385-0.057-0.251 0.037zM11.61 9.293l0.085-0.025v0.206l-0.085-0.181zM23.015 16.478c0.014 0.022 0.040 0.024 0.046 0.062 0.030 0.176 0.112-0.022 0.129 0.421l0.164 1.706c-0.483 0-0.1-0.027-0.255 0.134-0.342-0.070-1.94 0.391-2.468 0.479v-2.145c0.296 0.142 0.822-0.053 1.022-0.298 0.257 0.001 0.33-0.082 0.624-0.183s0.417-0.086 0.738-0.176zM5.301 10.769l0.010-0.102c0.133 0.081 0.118 0.010-0.010 0.102zM19.874 14.315c0.134-0.156 0.039 0.001 0.143-0.265 0.010-0.025 0.037-0.1 0.045-0.125 0.057-0.168-0.002 0.033 0.064-0.212 0.138 0.305 0.058 0.334 0.001 0.623l-0.253-0.020zM20.127 14.335l0.134 0.112-0.281 0.057c0.021-0.019 0.062-0.065 0.072-0.077 0.007-0.008 0.030-0.036 0.037-0.045s0.025-0.032 0.038-0.048zM20.126 13.713c-0.25 0.137-0.086-0.092-0.231 0.298l-0.136-0.53 0.715-0.588c-0.019-0.014-0.042-0.068-0.049-0.052l-0.144-0.149c0.357-0.099 0.068 0.006 0.168-0.168 0.178 0.128 0.019 0.065 0.187 0.090 0.014 0.002 0.156-0.021 0.185-0.023-0.278 0.109-0.105-0.022-0.19 0.222-0.075 0.041-0.088 0.026-0.157 0.080-0.119 0.447-0.326 0.131-0.349 0.821zM21.588 9.636c-0.147-0.060-0.072 0.112-0.141-0.177 0.169 0.093 0.097-0.113 0.141 0.177zM12.043 8.595l-0.007 0.113c-0.136-0.082-0.152 0.023 0.007-0.113zM22.892 15.553c-0.191 0.162 0.162 0.135-0.302 0.135l-0.018-0.409 0.32 0.275zM11.615 16.98l0.175 0.16c-0.076 0.116-0.022 0.011-0.093 0.165-0.104-0.162-0.088 0.017-0.082-0.325z"></path>
</svg>
