<?xml version="1.0" encoding="UTF-8"?>
<!DOCTYPE svg PUBLIC "-//W3C//DTD SVG 1.1//EN" "http://www.w3.org/Graphics/SVG/1.1/DTD/svg11.dtd">
<!-- Creator: CorelDRAW 2017 -->
<svg xmlns="http://www.w3.org/2000/svg" xml:space="preserve" width="8.4666mm" height="4.2332mm" version="1.1" style="shape-rendering:geometricPrecision; text-rendering:geometricPrecision; image-rendering:optimizeQuality; fill-rule:evenodd; clip-rule:evenodd"
viewBox="0 0 846.66 423.32"
 xmlns:xlink="http://www.w3.org/1999/xlink">
 <defs>
  <style type="text/css">
   <![CDATA[
    .fil0 {fill:none}
    .fil1 {fill:#232422}
    .fil2 {fill:#DF5437}
    .fil3 {fill:#FFFFFE}
   ]]>
  </style>
 </defs>
 <g id="Capa_x0020_1">
  <metadata id="CorelCorpID_0Corel-Layer"/>
  <rect class="fil0" y="-0" width="846.66" height="423.33"/>
  <g id="_2915795050128">
   <path id="Fill-1" class="fil1" d="M320.65 172.08l-19.45 0 0 34.82 -33.85 0 0 -34.82 -19.44 0 0 83.31 19.44 0 0 -35.22 33.85 0 0 35.22 19.45 0 0 -83.31zm115.7 24.88c-2.07,-5.19 -5,-9.68 -8.78,-13.5 -3.77,-3.81 -8.31,-6.81 -13.64,-9 -5.31,-2.19 -11.22,-3.29 -17.7,-3.29 -6.48,0 -12.38,1.09 -17.72,3.25 -5.33,2.18 -9.9,5.18 -13.69,8.98 -3.8,3.82 -6.73,8.32 -8.81,13.49 -2.08,5.2 -3.11,10.8 -3.11,16.82 0,6.02 1.03,11.63 3.11,16.81 2.08,5.19 5.01,9.69 8.81,13.52 3.79,3.84 8.36,6.83 13.69,9.01 5.34,2.17 11.24,3.26 17.72,3.26 6.48,0 12.39,-1.09 17.7,-3.26 5.33,-2.18 9.87,-5.17 13.64,-9.01 3.78,-3.83 6.71,-8.33 8.78,-13.52 2.08,-5.18 3.11,-10.79 3.11,-16.81 0,-5.98 -1.03,-11.57 -3.11,-16.75l0 0zm-18.27 27.92c-1.07,3.3 -2.6,6.1 -4.61,8.38 -1.99,2.29 -4.44,4.04 -7.34,5.24 -2.89,1.2 -6.19,1.8 -9.9,1.8 -3.73,0 -7.06,-0.6 -9.97,-1.8 -2.91,-1.2 -5.37,-2.95 -7.38,-5.24 -2,-2.28 -3.54,-5.08 -4.6,-8.38 -1.07,-3.29 -1.61,-7.01 -1.61,-11.17 0,-4.12 0.54,-7.82 1.61,-11.12 1.06,-3.3 2.6,-6.09 4.6,-8.38 2.01,-2.28 4.47,-4.04 7.38,-5.26 2.91,-1.22 6.24,-1.83 9.97,-1.83 3.71,0 7.01,0.61 9.9,1.83 2.9,1.22 5.35,2.98 7.34,5.26 2.01,2.29 3.54,5.08 4.61,8.38 1.07,3.3 1.6,7 1.6,11.12 0,4.16 -0.53,7.88 -1.6,11.17l0 0zm77.77 -0.31c1.47,0 2.63,0.23 3.45,0.68 0.82,0.46 1.54,1.24 2.15,2.29l13.84 24.19c1.4,2.44 3.73,3.66 6.97,3.66l17.5 0 -17.73 -28.99c-0.84,-1.37 -1.82,-2.53 -2.94,-3.49 -1.12,-0.94 -2.33,-1.75 -3.63,-2.39 2.7,-1.04 5.1,-2.36 7.17,-3.96 2.08,-1.59 3.83,-3.42 5.26,-5.45 1.44,-2.04 2.51,-4.26 3.23,-6.67 0.73,-2.4 1.09,-4.94 1.09,-7.66 0,-3.55 -0.61,-6.81 -1.83,-9.83 -1.22,-3.01 -3.18,-5.62 -5.86,-7.83 -2.69,-2.21 -6.16,-3.94 -10.41,-5.18 -4.25,-1.24 -9.39,-1.86 -15.41,-1.86l-27.1 0 0 83.31 19.32 0 0 -30.82 4.93 0zm-4.93 -38.02l7.78 0c5,0 8.68,1.03 11.07,3.09 2.38,2.06 3.57,4.91 3.57,8.57 0,1.83 -0.26,3.54 -0.8,5.12 -0.53,1.58 -1.39,2.96 -2.57,4.15 -1.18,1.18 -2.7,2.1 -4.55,2.77 -1.85,0.67 -4.09,1 -6.72,1l-7.78 0 0 -24.7zm89.78 -14.47l-10.18 0 0 83.31 17.04 0 0 -44.65c0,-1.22 -0.04,-2.53 -0.12,-3.92 -0.08,-1.39 -0.16,-2.81 -0.28,-4.26l39.28 49.63c0.95,1.22 1.94,2.06 2.98,2.52 1.02,0.45 2.28,0.68 3.77,0.68l10.06 0 0 -83.31 -17.03 0 0 44.09c0,1.33 0.03,2.76 0.11,4.26 0.07,1.5 0.19,3.06 0.34,4.66l-39.57 -50.03c-0.53,-0.65 -1.01,-1.17 -1.42,-1.55 -0.43,-0.38 -0.86,-0.68 -1.32,-0.88 -0.46,-0.21 -0.97,-0.35 -1.54,-0.44 -0.57,-0.06 -1.28,-0.11 -2.12,-0.11l0 0zm99.15 0l0 83.31 53.64 0 0 -14.87 -34.2 0 0 -19.84 26.19 0 0 -14.29 -26.19 0 0 -19.44 34.2 0 0 -14.87 -53.64 0zm81.77 0l0 15.33 23.44 0 0 67.98 19.33 0 0 -67.98 23.44 0 0 -15.33 -66.21 0 0 0z"/>
   <path id="Fill-3" class="fil2" d="M105.69 296.88c47.96,0 86.85,-38.15 86.85,-85.21 0,-47.06 -38.89,-85.21 -86.85,-85.21 -47.97,0 -86.86,38.15 -86.86,85.21 0,47.06 38.89,85.21 86.86,85.21z"/>
   <path id="Fill-5" class="fil3" d="M111.85 230.92c8.35,-10.2 17.11,-21.28 25.52,-31.57l-29.44 -5.85c-2.36,-0.48 -4.08,0.02 -5.64,1.84 -2.48,2.9 -5.08,5.68 -7.69,8.46 -1.18,1.26 -1.51,2.62 -1.03,4.26 1.48,4.99 2.93,10.47 4.42,15.47 0.11,0.38 0.37,0.87 0.69,1.02l13.17 6.37z"/>
   <path id="Fill-6" class="fil3" d="M56.01 180.08l29.77 -9.57c0.86,-0.26 1.45,-0.16 2.16,0.41l27.9 22.02 -59.83 -12.86z"/>
   <path id="Fill-7" class="fil3" d="M120.01 193.88c-3.27,-2.57 -6.21,-5.35 -9.15,-7.67 -7.48,-5.89 -14.97,-11.78 -22.43,-17.71 -0.69,-0.54 -1.25,-0.6 -2.04,-0.34 -2.85,0.97 -5.73,1.85 -8.58,2.8 -0.64,0.22 -1.09,0.28 -1.58,-0.39l-13.78 -19.17c3.99,1.73 7.75,3.36 11.5,4.99 11.77,5.1 23.54,10.18 35.28,15.32 0.65,0.29 1.3,0.94 1.6,1.58l9.18 20.59z"/>
   <path id="Fill-8" class="fil3" d="M109.49 232.32c0.97,0.47 1.36,0.9 1.17,2.08l-1.16 10.42 -37.43 -4.14 10.27 -11.1c4.41,-4.74 8.16,-6.15 13.08,-4.06l14.07 6.8z"/>
   <path id="Fill-9" class="fil3" d="M109.33 247.12c-6.06,7.02 -12.05,13.93 -18.15,20.99l-18.97 -24.98 37.12 3.99z"/>
   <path id="Fill-10" class="fil3" d="M139.28 200.28c2.68,3.07 5.36,6.54 7.95,9.63 0.42,0.51 0.72,1.44 0.58,2.06 -1.05,4.67 -2.8,9.04 -5.93,12.74 -2.18,2.59 -4.88,4.33 -8.51,4.78 -0.45,-1.65 -0.91,-3.32 -1.35,-5.01 -0.9,-3.46 -1.81,-6.92 -2.65,-10.39 -0.11,-0.49 -0.08,-1.2 0.21,-1.56l9.7 -12.25z"/>
   <path id="Fill-11" class="fil3" d="M103.99 257.1c0.5,-0.53 0.9,-0.65 1.58,-0.3l24.37 13.11c-4.1,0.55 -8.01,1.07 -11.91,1.59 -2.5,0.34 -4.99,0.8 -7.51,0.96 -2.05,0.13 -4.18,0.16 -6.19,-0.22 -3.73,-0.7 -7.39,-1.73 -11.47,-2.71l11.13 -12.43z"/>
   <path id="Fill-12" class="fil3" d="M151.44 196.22c0.36,1.4 0.74,2.79 1.06,4.2 0.06,0.25 -0.03,0.61 -0.18,0.83 -1.3,1.94 -2.63,3.86 -4.23,5.67l3.35 -10.7z"/>
  </g>
 </g>
</svg>
