<?xml version="1.0" encoding="UTF-8"?>
<!DOCTYPE svg PUBLIC "-//W3C//DTD SVG 1.1//EN" "http://www.w3.org/Graphics/SVG/1.1/DTD/svg11.dtd">
<!-- Creator: CorelDRAW 2017 -->
<svg xmlns="http://www.w3.org/2000/svg" xml:space="preserve" width="8.4666mm" height="8.4666mm" version="1.1" style="shape-rendering:geometricPrecision; text-rendering:geometricPrecision; image-rendering:optimizeQuality; fill-rule:evenodd; clip-rule:evenodd"
viewBox="0 0 846.66 846.66"
 xmlns:xlink="http://www.w3.org/1999/xlink">
 <defs>
  <style type="text/css">
   <![CDATA[
    .fil0 {fill:none}
    .fil1 {fill:#373435}
   ]]>
  </style>
 </defs>
 <g id="Capa_x0020_1">
  <metadata id="CorelCorpID_0Corel-Layer"/>
  <rect class="fil0" width="846.66" height="846.66"/>
  <rect class="fil0" width="846.66" height="846.66"/>
  <g id="_2915792481184">
   <path class="fil1" d="M74.61 698.15c0,59.11 2.99,75.35 64.11,75.19l415.61 0.01c45.46,0 95.06,1.48 137.05,0 53.08,-1.88 80.62,1.38 80.75,-57.47 0.08,-30.32 -2.06,-270.03 1.06,-276.52 -10.13,0.85 -18.52,5.53 -33.18,5.53 -27.86,0 -56.59,-11.03 -73.82,-22.36 -28.5,-18.68 -31.46,-38.92 -41.12,-52.86 -8.6,36.96 -50.43,69.66 -98.37,69.66 -47.92,0 -90.41,-32.15 -98.37,-66.36 -4.76,3.49 -8.94,22.38 -14.18,28.95 -4.82,6.06 -16.64,13.39 -23.28,18.73 -16.91,13.63 -30.48,23.1 -60.91,23.1 -38.89,0 -51.75,-0.69 -79.69,-23.1 -8.6,-6.88 -15.35,-12.01 -22.25,-20.88 -7.96,-10.19 -9.55,-19.79 -15.19,-27.91 -6.14,26.38 -60.46,73.18 -96.31,68.42l-41.99 -6.72 0.13 264.53 -0.05 0.06zm69.11 -641.43l48.61 0c31.3,0.34 62.15,1.11 94.51,1.11l249.79 0c49.9,0 96.63,-1.11 145.89,-1.11 55.93,0 85.12,2.86 102.31,43.6 6.72,15.9 60.17,219.13 60.17,232.89l0 12.17c0,47.52 -53.02,71.07 -55.62,87 -4.74,28.79 -0.74,106.71 -0.74,141.92 0,47.31 0.93,95.51 0.03,142.69 -0.87,45.91 -22.78,72.95 -69.66,72.95l-584.71 0c-68.95,0 -76.28,-28.5 -76.28,-96.2 -0.42,-67.07 1.11,-133.06 2.22,-200.18 0.26,-15.4 -0.08,-35.22 -1.38,-50.61 -1.96,-23.65 -5.98,-16.7 -21.38,-29.47 -13.86,-11.51 -35.82,-42.02 -35.82,-65.88l0 -11.06c0,-34.03 17.33,-86.73 25.66,-115.86 9.92,-34.61 18.26,-77.84 29.98,-111.57 14,-40.19 35.27,-51.41 86.39,-52.36l0.03 -0.03zm285.73 17.7c0,73.05 2.22,145.07 2.22,217.86 0,51.88 -0.85,57.15 19.95,90.65 13.2,21.25 35.14,39.87 69.59,39.87 41.86,0 64.03,-12.75 81.89,-44.13 20.61,-36.17 19.34,-46.83 13.15,-96.33 -4.31,-34.55 -9.39,-68.98 -14.58,-103.74 -4.47,-30.11 -13.07,-71.36 -13.07,-104.17l-159.15 -0.01zm-309.51 348.35c29.63,0 60.54,-26.14 72.07,-45.11 17.75,-29.24 14.87,-56.78 20.29,-96.92 4.74,-35.14 10.21,-66.86 14.23,-102.98 3.81,-34.24 11.4,-73.79 13.86,-103.11l-91.73 -1.32c-61.62,0 -68.47,13.6 -82.55,62.28 -11.14,38.63 -19.55,76.94 -30.32,114.54 -9.42,32.91 -26.75,83.85 -11.35,118.88 16.3,37.07 46.75,53.76 95.46,53.76l0.04 -0.02z"/>
   <path class="fil1" d="M620.66 549.96l-5.53 0c-32.07,0 -64.11,33.26 -64.11,73 0,66.54 75.04,82.79 112.47,57.23 7.83,-5.34 17.97,-25.29 17.97,-36.22 0,-10.11 -44.79,-7.75 -55.27,-7.75 -1.75,-15.58 -1.77,-12.44 0.13,-27.65 24.66,-2.83 56.14,-1.16 81.68,-1.11 7.75,0 9.39,109.48 -86.23,109.48 -48.82,0 -96.18,-42.17 -96.18,-89.59l0 -12.17c0,-49.5 47.2,-88.48 99.48,-88.48 15.19,0 57.6,9.92 48.39,22.73 -18.31,25.45 -24.58,0.5 -52.81,0.5l0.01 0.03zm-111.65 68.58l0 8.84c0,51.2 52.78,105.07 102.79,105.07l16.59 -0.01c37.36,0 70.04,-23.81 83.95,-47.63 8.57,-14.71 11.59,-30.98 13.73,-52.6 2.46,-24.84 6.96,-41.35 -21.43,-41.35 -15.9,0 -48.6,-1.01 -61.38,0.48 -28.5,3.25 -34.79,-6.51 -34.79,30.51 0,14.84 0.58,25.72 12.62,29.4 6.8,2.06 32.09,5.03 39.34,1.56 -1.64,19.66 -21.25,22.12 -39.79,22.12 -34.58,0 -53.08,-21.85 -53.08,-56.38 0,-25.45 24.13,-51.99 48.63,-51.99 26.11,0 31.01,13.28 46.43,13.28 4.92,0 32.04,-27.07 32.04,-35.37 0,-15.9 -40.69,-33.18 -61.89,-33.18l-15.47 -0.01c-57.71,0 -108.32,49.95 -108.32,107.29l0.03 -0.03z"/>
  </g>
 </g>
</svg>
