<!-- Generated by IcoMoon.io -->
<svg version="1.1" xmlns="http://www.w3.org/2000/svg" width="32" height="32" viewBox="0 0 32 32">
<title>logo-tepozspa-nuevo</title>
<path d="M4.113 17.512v-3.181h2.067v0.375h-1.611v1.002h1.52v0.379h-1.52v1.051h1.611v0.375z"></path>
<path d="M7.064 14.331h1.318c0.337 0 0.598 0.083 0.785 0.249s0.279 0.4 0.279 0.704c0 0.301-0.093 0.535-0.279 0.704s-0.448 0.253-0.785 0.253h-0.853v1.273h-0.465v-3.181zM8.332 15.865c0.445 0 0.668-0.194 0.668-0.582 0-0.385-0.223-0.578-0.668-0.578h-0.803v1.16h0.803z"></path>
<path d="M19.785 17.112h1.787v0.379h-2.315v-0.343l1.738-2.459h-1.738v-0.379h2.27v0.338z"></path>
<path d="M25.405 14.37h1.318c0.337 0 0.598 0.083 0.785 0.249s0.279 0.4 0.279 0.704c0 0.301-0.093 0.535-0.279 0.704s-0.448 0.253-0.785 0.253h-0.853v1.273h-0.465v-3.181zM26.673 15.904c0.445 0 0.668-0.194 0.668-0.582 0-0.385-0.223-0.578-0.668-0.578h-0.803v1.16h0.803z"></path>
<path d="M30.752 17.551l-0.338-0.785h-1.611l-0.338 0.785h-0.469l1.417-3.181h0.388l1.417 3.181h-0.464zM28.961 16.396h1.295l-0.645-1.507-0.649 1.507z"></path>
<path d="M1.857 17.412v-2.793h-1.074v-0.388h2.623v0.388h-1.079v2.793z"></path>
<path d="M23.348 17.467c-0.247 0-0.473-0.033-0.679-0.1s-0.383-0.164-0.531-0.293l0.167-0.343c0.156 0.127 0.318 0.218 0.485 0.273s0.355 0.084 0.562 0.084c0.238 0 0.421-0.045 0.55-0.133s0.194-0.214 0.194-0.377c0-0.139-0.060-0.242-0.18-0.309s-0.313-0.132-0.578-0.192c-0.253-0.054-0.46-0.115-0.623-0.184s-0.289-0.163-0.381-0.282c-0.092-0.119-0.137-0.27-0.137-0.454 0-0.187 0.049-0.35 0.147-0.492s0.237-0.252 0.417-0.332c0.181-0.080 0.39-0.119 0.628-0.119 0.223 0 0.432 0.034 0.629 0.101s0.359 0.165 0.486 0.291l-0.163 0.343c-0.148-0.12-0.298-0.21-0.454-0.269s-0.32-0.088-0.494-0.088c-0.229 0-0.409 0.048-0.539 0.142s-0.196 0.226-0.196 0.395c0 0.144 0.057 0.253 0.171 0.327s0.298 0.141 0.551 0.201c0.265 0.060 0.479 0.123 0.643 0.187s0.295 0.153 0.393 0.266c0.098 0.113 0.147 0.259 0.147 0.44 0 0.183-0.049 0.344-0.147 0.483s-0.238 0.245-0.42 0.321c-0.182 0.075-0.398 0.113-0.648 0.113z"></path>
<path d="M13.919 11.534c2.643-0.25 4.678 1.641 4.946 3.964 0.304 2.625-1.676 4.706-3.974 4.961-2.633 0.29-4.677-1.67-4.948-3.958-0.307-2.597 1.683-4.75 3.976-4.966zM11.37 18.96c0.060 0.145 0.234 0.247 0.417 0.4 0.414 0.342 1.136 0.691 1.682 0.794-0.083-0.214-0.209-0.255-0.338-0.407-0.287-0.338-0.961-0.777-1.388-1-0.108 0.045-0.212 0.131-0.374 0.214zM10.454 17.577c0.223 0.821 0.501 0.574 1.678 1.277 0.388 0.232 0.943 0.651 1.228 0.987 0.055 0.065 0.112 0.12 0.167 0.195 0.076 0.102 0.057 0.137 0.236 0.171-0.185-0.59-1.041-1.416-1.415-1.768-0.455-0.43-0.381-0.288-0.692-0.261-0.43 0.037-0.363-0.042-1.025-0.384l0.121-0.342-0.3 0.126zM13.796 19.979c-0.090-0.337-0.466-0.934-0.639-1.182-0.133-0.19-0.262-0.36-0.394-0.533-0.133-0.174-0.325-0.368-0.407-0.526-0.391 0.021-0.428 0.145-0.733-0.188s0.067-0.323-0.562-0.489c0.080-0.105 0.054-0.045 0.184-0.138 0.071-0.052 0.033-0.017 0.081-0.066l-0.507 0.015c-0.116-0.119-0.269-0.309-0.327-0.493l0.279-0.097c-0.117-0.042-0.332-0.051-0.408-0.090-0.108-0.054-0.126-0.198-0.218-0.302-0.023 1.137 0.094 0.858 0.671 1.262l1.649 1.25c0.243 0.197 0.724 0.734 0.935 0.998 0.159 0.199 0.257 0.395 0.397 0.58zM14.091 19.949c-0.077-1.027-0.62-2.234-0.784-3.013-0.301-0.014-0.286 0.005-0.475-0.137 0.079 0.617-0.132 0.195 0.211 0.781 0.299 0.511 0.526 0.95 0.737 1.518l0.31 0.852zM18.176 17.792c-0.676 0.325-0.535 0.42-0.993 0.385-0.311-0.023-0.307-0.105-0.51 0.073-0.156 0.136-0.233 0.188-0.379 0.347l-0.526 0.521c-0.22 0.226-0.599 0.759-0.724 1.087 0.219-0.044 0.226-0.188 0.381-0.341 0.435-0.432 0.648-0.643 1.219-0.994 0.323-0.199 0.629-0.353 0.978-0.513 0.176-0.080 0.382-0.114 0.481-0.246 0.088-0.117 0.202-0.372 0.243-0.52l-0.274-0.144c0.005 0.182 0.078 0.18 0.103 0.346zM18.052 16.254c0.104 0.096 0.133 0.096 0.267 0.123-0.066 0.202-0.198 0.384-0.335 0.492l-0.454 0.036 0.223 0.113c-0.105 0.107-0.251 0.105-0.397 0.146-0.115 0.459-0.394 0.748-0.857 0.563-0.363 0.374-1.408 1.724-1.553 2.425 0.020-0.109 0.27-0.477 0.344-0.588 0.48-0.723 0.931-1.015 1.493-1.523 0.326-0.294 0.791-0.581 1.163-0.851 0.598-0.434 0.773-0.175 0.719-1.304-0.311 0.36 0.061 0.275-0.613 0.368zM15.337 20.153c0.764-0.16 1.614-0.611 2.106-1.193-0.195-0.111-0.185-0.085-0.345-0.215-0.388 0.121-0.886 0.542-1.195 0.79-0.222 0.178-0.423 0.346-0.566 0.618zM15.514 16.93c-0.27 0.854-0.72 2.1-0.797 3.023 0.090-0.123 0.22-0.619 0.298-0.823 0.184-0.486 0.459-1.063 0.72-1.496 0.4-0.666 0.151-0.246 0.242-0.833-0.242 0.171-0.165 0.121-0.463 0.129zM14.948 16.641c-0.109 1.023-0.4 2.424-0.365 3.438 0.065-0.635 0.448-2.016 0.669-2.685 0.302-0.915 0.059-0.349 0.062-0.931-0.014 0.006-0.352 0.169-0.365 0.178zM14.461 16.473l-0.006 3.497c0.108-0.513 0.144-1.333 0.211-1.914 0.036-0.306 0.076-0.624 0.116-0.923 0.079-0.586 0.108-0.388-0.098-0.861l-0.222 0.202zM14.35 20.224l0.012-3.76c-0.049-0.026-0.088-0.048-0.125-0.074l-0.13-0.092c-0.053 0.194-0.132 0.227-0.143 0.363-0.007 0.090 0.051 0.386 0.066 0.498 0.046 0.333 0.089 0.661 0.126 0.998 0.074 0.681 0.158 1.377 0.194 2.067zM14.225 20.079c0.022-1.079-0.256-2.365-0.363-3.446-0.133-0.061-0.259-0.109-0.36-0.181-0.017 0.219-0.098 0.368-0.101 0.454l0.406 1.318c0.158 0.57 0.341 1.27 0.418 1.855zM10.164 15.538c0.006 0.002 0.017-0.007 0.018-0.001 0.044 0.155-0.041-0.144 0.229 0.124 0.471 0.468 0.893 0.838 1.352 1.346 0.175 0.194 0.364 0.351 0.535 0.55 0.484 0.562 1.412 1.655 1.687 2.594-0.029-0.632-0.913-2.458-1.234-2.84-0.407 0.057-0.564-0.048-0.913-0.567l0.327-0.193-0.515 0.008c-0.050-0.16-0.131-0.179-0.183-0.338l0.377-0.243-0.462 0.001-0.293-0.561 0.247-0.097c-0.324-0.083-0.427-0.033-0.406-0.55 0.021-0.504 0.497-0.164 0.672 0.022 0.233 0.248 0.215 0.313 0.215 0.71 0.087-0.073 0.070-0.096 0.163-0.134 0.060 0.155 0.352 0.535 0.497 0.644l-0.079-0.282c0.050-0.005 0.126-0.006 0.175-0.015l0.163-0.064c-0.62-0.089-0.533-0.048-0.777-1.111 0.117-0.026 0.186-0.026 0.283-0.097-0.148-0.030-0.277-0.038-0.377-0.115-0.194-0.249 0.068-1.13 0.739-0.096 0.394 0.606 0.137 0.399 0.196 0.967l0.176-0.22c0.1 0.152 0.173 0.287 0.257 0.43l0.349-0.081c-0.162-0.056-0.337-0.003-0.424-0.132 0.049-0.151 0.145-0.105 0.305-0.117-0.010-0.010-0.025-0.037-0.031-0.027l-0.124-0.081c-0.023-0.010-0.158-0.043-0.187-0.051l-0.083-0.392c0.003-0.003 0.018-0.017 0.023-0.009l0.235-0.081-0.325-0.073c-0.067-0.323-0.219-1.004 0.062-1.222 0.287 0.025 0.391 0.442 0.507 0.717 0.144 0.338 0.3 0.567 0.367 0.937l0.046-0.146c0.009-0.045 0.013-0.132 0.020-0.186l0.272 0.074c-0.168-0.344-0.279-0.115-0.201-0.691l0.231 0.112c-0.135-0.286-0.274-0.207-0.167-0.647 0.065-0.266 0.103-0.502 0.383-0.511 0.212 0.257 0.247 0.829 0.287 1.244l-0.234 0.281 0.261-0.042c0.035 0.644 0.070 0.529-0.265 0.873l0.301-0.060c0.052-0.409 0.202-0.782 0.358-1.1 0.143-0.289 0.263-0.853 0.588-0.854 0.158 0.159 0.14 0.518 0.125 0.778-0.024 0.428-0.024 0.45-0.406 0.515 0.011 0.006 0.029-0.001 0.036 0.014l0.233 0.078-0.090 0.397-0.251 0.081c-0.071 0.041-0.042 0.021-0.092 0.070 0.185 0.015 0.257-0.046 0.306 0.127-0.089 0.118-0.249 0.080-0.423 0.115l0.341 0.102 0.267-0.446 0.19 0.212c-0.073-0.624-0.024-0.779 0.436-1.258 0.552-0.573 0.662 0.301 0.405 0.439-0.033 0.018-0.048 0.023-0.090 0.036-0.054 0.016-0.151 0.029-0.21 0.040 0.009 0.006 0.025 0.003 0.030 0.017l0.259 0.070c-0.247 1.121-0.171 0.986-0.781 1.126 0.009 0.002 0.026-0.003 0.033 0.013 0.027 0.063 0.242 0.058 0.306 0.065l-0.096 0.288c0.223-0.164 0.352-0.418 0.518-0.633l0.069 0.024c0.132 0.023-0.040 0.073 0.095 0.001-0.065-0.529 0.445-0.983 0.828-0.889 0.077 0.239 0.044 0.447-0.027 0.704l-0.33 0.084 0.253 0.086c-0.042 0.117-0.247 0.51-0.301 0.575l-0.461 0.001 0.182 0.124c0.078 0.043 0.127 0.065 0.199 0.12-0.060 0.152-0.124 0.19-0.185 0.335l-0.5-0.027 0.324 0.202c-0.068 0.113-0.272 0.349-0.352 0.43-0.191 0.192-0.262 0.208-0.589 0.14-0.124 0.314-0.489 0.837-0.663 1.224-0.171 0.38-0.443 0.985-0.506 1.416 0.129-0.129 0.274-0.5 0.37-0.668 0.135-0.236 0.254-0.412 0.406-0.638 0.332-0.494 0.751-0.951 1.148-1.388l1.307-1.311c0.108-0.097 0.173-0.149 0.266-0.258 0.113-0.13 0.171-0.108 0.274-0.182-0.252-1.574-1.122-2.782-2.552-3.42-1.791-0.798-3.975-0.121-5.053 1.302-0.133 0.175-0.265 0.376-0.392 0.613-0.248 0.465-0.401 0.948-0.48 1.545z"></path>
</svg>
