<?xml version="1.0" encoding="UTF-8"?>
<!DOCTYPE svg PUBLIC "-//W3C//DTD SVG 1.1//EN" "http://www.w3.org/Graphics/SVG/1.1/DTD/svg11.dtd">
<!-- Creator: CorelDRAW 2017 -->
<svg xmlns="http://www.w3.org/2000/svg" xml:space="preserve" width="8.4666mm" height="4.2332mm" version="1.1" style="shape-rendering:geometricPrecision; text-rendering:geometricPrecision; image-rendering:optimizeQuality; fill-rule:evenodd; clip-rule:evenodd"
viewBox="0 0 846.66 423.32"
 xmlns:xlink="http://www.w3.org/1999/xlink">
 <defs>
  <style type="text/css">
   <![CDATA[
    .fil0 {fill:none}
    .fil3 {fill:#313673}
    .fil1 {fill:#F2CE00}
    .fil2 {fill:#FEFEFE}
   ]]>
  </style>
 </defs>
 <g id="Capa_x0020_1">
  <metadata id="CorelCorpID_0Corel-Layer"/>
  <rect class="fil0" y="-0" width="846.66" height="423.33"/>
  <g id="_2915792703344">
   <g>
    <path class="fil1" d="M47.77 255.76c0.82,2.14 -1.36,0.58 1.8,3.8 3.6,3.67 15.67,12.33 20.05,15.08 8.21,5.16 17.44,9.43 27.62,13.23 41.81,15.59 97.96,16.27 139.89,0.56 10.18,-3.81 19.12,-7.98 27.72,-13.09 5.65,-3.35 19.98,-12.92 21.79,-17.84 -3.61,-5.1 -6.28,-3.13 -12.85,-1.73 -26.84,5.73 -54.7,5.12 -81.97,2.87 -11.78,-0.97 -20.57,-1.78 -24.82,-10.37 -7.92,7.19 -3.79,8.54 -25.31,10.36 -24.8,2.09 -40.63,2.82 -65.49,-0.26 -6.48,-0.8 -24.09,-5.88 -28.43,-2.61z"/>
    <path class="fil1" d="M114.83 126.7c4.8,6.84 9.32,9.11 16.27,21.95 6.31,11.64 24.21,52.62 30.09,67.08 1.73,4.25 3.27,10.64 5.74,14.14 1.97,-7.66 18.57,-45.37 22.79,-54.98 20.07,-45.66 22.67,-37.69 29.41,-48.85 -18.18,-3.67 -32.58,-6.17 -52.24,-6.09 -12.9,0.05 -41.54,2.28 -52.06,6.75z"/>
    <path class="fil1" d="M227.07 152.43c-2.41,10.55 -7.38,16.9 -7.42,30.66 -0.04,13.99 -0.11,22.94 -1.3,36.73 6.26,-1.83 12.79,-4.63 19.37,-6.72 25.19,-8.01 44.19,-10.36 70.98,-8.67 -2.95,-23.65 -14.85,-36.3 -27.06,-47.9 -2.32,-2.21 -6.95,-5.54 -10.15,-7.81 -4.97,-3.54 -6.27,-5 -14,-3.28 -13.79,3.06 -13.84,7.23 -30.42,6.99z"/>
    <path class="fil1" d="M26.96 205.08c18.03,-1.55 30.36,-1.22 47.88,2.35 20.61,4.21 27.45,8.94 39.91,12.18 -0.2,-5.58 -1.21,-11.05 -1.39,-16.89 -0.59,-19.43 3.04,-28.87 -7.85,-50.43 -11.35,1.21 -18.76,-4.03 -28.65,-6.55 -7.26,-1.85 -8.01,-0.02 -12.74,3.15 -3.47,2.31 -7.79,5.5 -10.74,8.07 -13.61,11.84 -25.09,28.9 -26.42,48.12z"/>
   </g>
   <g>
    <path class="fil2" d="M225.67 255.27c21.44,0 32.03,-2.01 51.8,-5.65 9.48,-1.75 8.91,1.1 13.78,4.5 3.8,-4.12 8.91,-11.95 12.15,-18.62 3.35,-6.89 5.37,-16.86 5.62,-25.7 -25.19,-2 -33.31,-1.69 -60.73,5.68 -6.54,1.76 -13.2,3.76 -19.3,6.03 -5.73,2.14 -13.69,6.02 -18.99,7.49 3.7,-14.79 4.77,-12.68 4.85,-32.03 0.06,-14.86 -1.19,-20.28 3.28,-34.5 7.24,-23.04 6.13,-10.83 21.34,-16.19 4.84,-1.7 7.99,-3.48 13.73,-5.07 4.11,-1.14 12.24,-0.62 13.37,-5.47 -6.06,-3.45 -10.99,4.61 -19.22,1.97 -8.91,-2.86 -7.92,8.04 -16.37,5.79 2.66,-2.94 5.43,-5.01 8.17,-8.15 5.27,-6.02 4.27,-4.39 2.05,-11.73 2.91,1.36 2.6,2.45 5.49,3.71 1.63,-2.08 1.84,-3.05 3.06,-5.13l0.49 5.41 2.66 0.38c-1.78,0.97 -0.43,0.04 -1.33,0.96l-1.4 1.77c-3.43,-1.85 -4.72,-1.59 -5.68,2.8 4.54,1.25 7.06,2.36 10.61,-0.19 12.65,-9.09 1.64,-12.98 -3.79,-16.7 -9.22,-6.32 -8.02,-9.71 -31.04,16.16 -20.07,22.53 -25.7,45.85 -38.55,74.11 -3.65,8.01 -8.57,17.94 -10.58,26.98 -3.47,15.57 4.52,18.24 17.77,19.32 12.12,0.99 24.52,2.07 36.76,2.07z"/>
    <path class="fil2" d="M71.96 125.12c1.04,3.29 4.13,6.21 6.18,7.95 3.26,2.75 5.97,2.19 10.34,0.22l-0.63 -3.48c-2.07,-0.39 -3.23,0.16 -5.06,0.83 -1.18,-2.91 0.33,-1.1 -2.24,-2.52 4.11,-1.55 2.04,-0.96 3.36,-5.96l1.9 4.9c3.72,-0.92 3.21,-2.28 6.41,-3.21 -3.12,5.75 -2.3,6.43 1.54,10.7 2.37,2.62 7.38,6.47 8.53,9.19 -9.85,1.1 -6.87,-9.13 -16.62,-5.96 -4.86,1.57 -4.83,0.58 -8.75,-1.05 -2.79,-1.16 -7.52,-2.7 -10.21,-0.99 0.85,4.81 4.89,3.09 13.11,5.43 5.81,1.65 8.6,3.19 13.74,5.01 15.45,5.5 14.24,-6.87 21.53,16.05 4.43,13.94 3.36,19.14 3.34,33.93 -0.02,24.41 3.39,22.95 4.85,33.11 -23.21,-11.44 -58.87,-21.83 -88.48,-19.8 -3.2,0.22 -6.18,-0.1 -7.87,2.2 0,9.59 1.88,16.1 5.23,23.69 1.39,3.17 3.29,6.3 4.95,8.91l4.43 6.18c1.4,1.48 0.73,0.9 2.36,2.06 6.22,-6.5 13.07,-1.98 27.39,-0.02 30.26,4.15 43.05,3.11 73.49,0.7 13.14,-1.04 20.61,-3.8 17.37,-18.89 -2.07,-9.7 -16.82,-41.93 -21.62,-53.44 -12.73,-30.5 -21.37,-45.16 -45.89,-66.76 -5.17,-4.56 -8.01,-0.77 -12.44,2.28 -4.02,2.77 -8.03,4.57 -10.24,8.74z"/>
   </g>
   <g>
    <path class="fil3" d="M47.77 255.76c4.34,-3.27 21.95,1.81 28.43,2.61 24.86,3.08 40.69,2.35 65.49,0.26 21.52,-1.82 17.39,-3.17 25.31,-10.36 4.25,8.59 13.04,9.4 24.82,10.37 27.27,2.25 55.13,2.86 81.97,-2.87 6.57,-1.4 9.24,-3.37 12.85,1.73 -1.81,4.92 -16.14,14.49 -21.79,17.84 -8.6,5.11 -17.54,9.28 -27.72,13.09 -41.93,15.71 -98.08,15.03 -139.89,-0.56 -10.18,-3.8 -19.41,-8.07 -27.62,-13.23 -4.38,-2.75 -16.45,-11.41 -20.05,-15.08 -3.16,-3.22 -0.98,-1.66 -1.8,-3.8zm41.84 -149.42l1.99 0c2.68,0.4 5.54,2.45 9.77,6.73 2.95,2.99 6.11,5.42 8.37,8.79 4.54,-1.06 8.34,-2.25 13.13,-3.2 19.81,-3.92 18.4,-3.17 36.67,-4.15 3.57,-0.19 3.46,-0.73 7.34,-0.86l30.36 2.35c31.38,4.54 23.17,7.98 30.83,0.9 6.64,-6.14 9.87,-9.6 12.88,-10.56l3.56 0c2.97,0.85 6.76,3.67 13.67,8.32 4.07,2.75 10.97,7.31 7.5,14.55 4.25,2.03 9.11,3.46 4.9,12.24 6.69,4.48 18.97,13.42 23.8,19.48 2.29,2.87 4.29,4.66 6.26,7.61 4.38,6.53 7.07,10.34 10.2,18.38 6.23,15.97 5.63,35.22 1.04,51.36 -2.32,8.18 -5.63,14.52 -9.4,20.8 -5.56,9.25 -13.65,17.78 -21.98,24.56 -26.31,21.44 -64.04,31.73 -101.67,33.35l-21.4 0c-17.58,-0.75 -34.64,-3.34 -49.98,-7.51 -14.42,-3.92 -34.24,-12.52 -45.3,-20.83 -5.07,-3.82 -6.83,-4.37 -12.22,-9.82 -7.96,-8.05 -13.93,-14.2 -19.65,-24.44 -4.79,-8.56 -9.54,-23.51 -9.54,-33.74 0,-22.84 0.09,-32.64 14.57,-52.38 5.27,-7.19 7.71,-9.02 12.99,-13.95 3.05,-2.84 11.06,-10.21 14.9,-11.23 -1.9,-8.15 -5.73,-9.18 4.08,-13.88 -0.43,-1.84 -0.82,-1.88 -0.82,-4.09 0,-5.24 6.46,-8.95 9.96,-11.27 6.23,-4.11 9.81,-7.01 13.19,-7.51zm-62.65 98.74c1.33,-19.22 12.81,-36.28 26.42,-48.12 2.95,-2.57 7.27,-5.76 10.74,-8.07 4.73,-3.17 5.48,-5 12.74,-3.15 9.89,2.52 17.3,7.76 28.65,6.55 10.89,21.56 7.26,31 7.85,50.43 0.18,5.84 1.19,11.31 1.39,16.89 -12.46,-3.24 -19.3,-7.97 -39.91,-12.18 -17.52,-3.57 -29.85,-3.9 -47.88,-2.35zm200.11 -52.65c16.58,0.24 16.63,-3.93 30.42,-6.99 7.73,-1.72 9.03,-0.26 14,3.28 3.2,2.27 7.83,5.6 10.15,7.81 12.21,11.6 24.11,24.25 27.06,47.9 -26.79,-1.69 -45.79,0.66 -70.98,8.67 -6.58,2.09 -13.11,4.89 -19.37,6.72 1.19,-13.79 1.26,-22.74 1.3,-36.73 0.04,-13.76 5.01,-20.11 7.42,-30.66zm-112.24 -25.73c10.52,-4.47 39.16,-6.7 52.06,-6.75 19.66,-0.08 34.06,2.42 52.24,6.09 -6.74,11.16 -9.34,3.19 -29.41,48.85 -4.22,9.61 -20.82,47.32 -22.79,54.98 -2.47,-3.5 -4.01,-9.89 -5.74,-14.14 -5.88,-14.46 -23.78,-55.44 -30.09,-67.08 -6.95,-12.84 -11.47,-15.11 -16.27,-21.95zm110.84 128.57c-12.24,0 -24.64,-1.08 -36.76,-2.07 -13.25,-1.08 -21.24,-3.75 -17.77,-19.32 2.01,-9.04 6.93,-18.97 10.58,-26.98 12.85,-28.26 18.48,-51.58 38.55,-74.11 23.02,-25.87 21.82,-22.48 31.04,-16.16 5.43,3.72 16.44,7.61 3.79,16.7 -3.55,2.55 -6.07,1.44 -10.61,0.19 0.96,-4.39 2.25,-4.65 5.68,-2.8l1.4 -1.77c0.9,-0.92 -0.45,0.01 1.33,-0.96l-2.66 -0.38 -0.49 -5.41c-1.22,2.08 -1.43,3.05 -3.06,5.13 -2.89,-1.26 -2.58,-2.35 -5.49,-3.71 2.22,7.34 3.22,5.71 -2.05,11.73 -2.74,3.14 -5.51,5.21 -8.17,8.15 8.45,2.25 7.46,-8.65 16.37,-5.79 8.23,2.64 13.16,-5.42 19.22,-1.97 -1.13,4.85 -9.26,4.33 -13.37,5.47 -5.74,1.59 -8.89,3.37 -13.73,5.07 -15.21,5.36 -14.1,-6.85 -21.34,16.19 -4.47,14.22 -3.22,19.64 -3.28,34.5 -0.08,19.35 -1.15,17.24 -4.85,32.03 5.3,-1.47 13.26,-5.35 18.99,-7.49 6.1,-2.27 12.76,-4.27 19.3,-6.03 27.42,-7.37 35.54,-7.68 60.73,-5.68 -0.25,8.84 -2.27,18.81 -5.62,25.7 -3.24,6.67 -8.35,14.5 -12.15,18.62 -4.87,-3.4 -4.3,-6.25 -13.78,-4.5 -19.77,3.64 -30.36,5.65 -51.8,5.65zm-153.71 -130.15c2.21,-4.17 6.22,-5.97 10.24,-8.74 4.43,-3.05 7.27,-6.84 12.44,-2.28 24.52,21.6 33.16,36.26 45.89,66.76 4.8,11.51 19.55,43.74 21.62,53.44 3.24,15.09 -4.23,17.85 -17.37,18.89 -30.44,2.41 -43.23,3.45 -73.49,-0.7 -14.32,-1.96 -21.17,-6.48 -27.39,0.02 -1.63,-1.16 -0.96,-0.58 -2.36,-2.06l-4.43 -6.18c-1.66,-2.61 -3.56,-5.74 -4.95,-8.91 -3.35,-7.59 -5.23,-14.1 -5.23,-23.69 1.69,-2.3 4.67,-1.98 7.87,-2.2 29.61,-2.03 65.27,8.36 88.48,19.8 -1.46,-10.16 -4.87,-8.7 -4.85,-33.11 0.02,-14.79 1.09,-19.99 -3.34,-33.93 -7.29,-22.92 -6.08,-10.55 -21.53,-16.05 -5.14,-1.82 -7.93,-3.36 -13.74,-5.01 -8.22,-2.34 -12.26,-0.62 -13.11,-5.43 2.69,-1.71 7.42,-0.17 10.21,0.99 3.92,1.63 3.89,2.62 8.75,1.05 9.75,-3.17 6.77,7.06 16.62,5.96 -1.15,-2.72 -6.16,-6.57 -8.53,-9.19 -3.84,-4.27 -4.66,-4.95 -1.54,-10.7 -3.2,0.93 -2.69,2.29 -6.41,3.21l-1.9 -4.9c-1.32,5 0.75,4.41 -3.36,5.96 2.57,1.42 1.06,-0.39 2.24,2.52 1.83,-0.67 2.99,-1.22 5.06,-0.83l0.63 3.48c-4.37,1.97 -7.08,2.53 -10.34,-0.22 -2.05,-1.74 -5.14,-4.66 -6.18,-7.95z"/>
    <path class="fil3" d="M363.66 161.86l0 40.01 15.51 0 0 -38.37c0,-3.46 0.79,-5.38 2.59,-7.21 5.51,-5.63 18.64,-5.18 18.64,6.39l0 39.19 16.33 0 0 -40.01c0,-9.45 22.04,-17.11 22.04,6.54l0 33.47 15.51 0 0 -33.47c0,-13.59 -3.3,-23.37 -14.39,-28.88 -11.06,-5.5 -24.67,-2.71 -30.51,6.01 -4.75,-3.17 -13.26,-13.23 -29.09,-7.04 -4.71,1.84 -8.58,4.43 -11.27,8.33 -2.82,4.09 -5.36,8.56 -5.36,15.04z"/>
    <path class="fil3" d="M713.1 173.29c0,-10.89 1.14,-21.22 13.88,-21.22 15.61,0 15.53,24.85 9.49,33.16 -5.05,6.95 -23.37,7.6 -23.37,-11.94zm26.95 -27.76c-8.46,-5.66 -3.59,-8.16 -20.42,-8.16 -7.94,0 -14.44,5.58 -18.47,11.73 -8.14,12.41 -13.7,54.4 26.64,54.4 17.57,0 29.39,-10.96 29.39,-28.57l0 -55.52c0,-2.34 -0.82,-2.32 -2.99,-2.32 -0.01,0 -4.7,0.83 -4.95,0.89 -12.4,3.09 -9.2,13.21 -9.2,27.55z"/>
    <path class="fil3" d="M437.14 270.45c0,-8.26 -0.4,-21.7 13.22,-22.66 18.43,-1.29 17.97,37.36 2.29,37.36 -9.21,0 -15.51,-4.92 -15.51,-14.7zm-17.15 -44.9l0 44.9c0,17.21 11.37,28.58 28.58,28.58 9.53,0 19.99,-1.52 25.69,-8.6 16.1,-20.07 5.87,-57.53 -19.16,-57.53 -8.96,0 -13.78,4.17 -17.96,8.98l0 -28.58c-7.53,0 -17.15,0.81 -17.15,12.25z"/>
    <path class="fil3" d="M490.21 151.25c8.32,0 14.49,2.97 14.69,12.25l-26.94 0c0.16,-6.93 4.95,-12.25 12.25,-12.25zm-30.21 19.59c0,10.13 2.53,17.91 7.82,23.21 12.72,12.76 38.42,13.38 49.7,-1.61 1.9,-2.52 3.4,-3.95 3.71,-7.72 -3.6,0 -13.36,-0.47 -16.26,0.07 -5.15,0.95 -2.04,4.83 -13.95,4.83 -8.4,0 -13.69,-6.3 -13.88,-14.69l45.73 0c0,-14.44 -2.81,-27.88 -14.95,-34.04 -7.64,-3.88 -11.35,-3.52 -19.34,-3.52 -9.66,0 -16.18,4.8 -21.04,9.99 -4.77,5.09 -7.54,13.84 -7.54,23.48z"/>
    <path class="fil3" d="M793.93 189.62c-21,0 -17.74,-38.37 -3.26,-38.37l5.71 0c15.71,0 17.35,38.37 -2.45,38.37zm-32.66 -20.41c0,18.01 10.92,34.29 29.4,34.29 11.52,0 18.59,-0.67 26.35,-8.75 15.43,-16.06 12.57,-58.2 -23.09,-58.2 -20.54,0 -32.66,14.79 -32.66,32.66z"/>
    <path class="fil3" d="M660.03 191.26c-8.98,0 -13.03,-12.75 0.14,-16.19l13.74 -3.41c0,6.18 0.51,10.25 -2.27,14.06 -2.07,2.83 -7.06,5.54 -11.61,5.54zm-22.86 -34.29l0 2.44 13.88 0c4.39,0 0.87,-8.98 13.07,-8.98 8.46,0 9.79,2.79 9.79,7.35 0,9.68 -39.19,-0.4 -39.19,26.13 0,27.23 38.38,20.72 47.85,13.56 11.33,-8.56 8.49,-22.93 8.49,-40.5 0,-7.48 -2.8,-13.01 -7.87,-15.82 -15.38,-8.53 -46.02,-5.37 -46.02,15.82z"/>
    <path class="fil3" d="M541.65 259.84c4.35,-18.67 19.31,-13.26 23.48,-9.61 1.62,1.42 5.15,7.28 3.46,8.97 -1.72,1.73 -22.62,0.64 -26.94,0.64zm-17.15 4.08c0,9.72 0.85,19.2 7.96,26.33 16.88,16.91 51.02,7.32 52.46,-10l-17.96 0c-0.58,2.16 -1.23,2.49 -3.06,3.48 -4.4,2.4 -22.25,4.38 -22.25,-13.28l44.9 0c0,-15.9 -3.29,-29.1 -17.47,-34.78 -21.8,-8.72 -44.58,3.88 -44.58,28.25z"/>
    <path class="fil3" d="M568.59 170.84c0,17.14 9.8,32.66 27.76,32.66l6.53 0c13.83,0 26.94,-11.61 26.94,-25.31l-17.96 0c-0.33,15.05 -24.49,19.09 -24.49,-8.16 0,-9.46 3.43,-18.78 13.88,-18.78 11.02,0 8.89,10.61 13.06,10.61 16.34,0 16.38,1.21 15.71,-3.26 -2.76,-18.52 -16.85,-21.23 -32.85,-21.23 -17.81,0 -28.58,15.82 -28.58,33.47z"/>
    <path class="fil3" d="M363.66 223.1l0 74.3 15.51 0 0 -84.1c-4.09,0 -7.61,0.27 -10.31,1.94 -2.27,1.42 -5.2,4.48 -5.2,7.86z"/>
    <path class="fil3" d="M486.13 264.74l0 32.66 17.14 0c0,-11.62 -2.1,-37.11 3.4,-43.14 4.35,-4.77 10.16,-4.22 16.2,-4.22l0 -17.14c-21.79,0 -36.74,10.98 -36.74,31.84z"/>
    <path class="fil3" d="M530.22 164.31l0 37.56 16.32 0c0,-7.28 -0.68,-34.41 1.58,-40.06 3.47,-8.66 11.86,-7.29 18.84,-7.29l0 -17.15c-10.65,0 -18.52,0.13 -27.44,7.67 -3.85,3.24 -9.3,12.64 -9.3,19.27z"/>
    <polygon class="fil3" points="391.42,297.4 408.56,297.4 408.56,234.53 391.42,234.53 "/>
    <path class="fil3" d="M391.42 214.93l0 14.7 17.14 0c0,-20.84 3.5,-17.15 -14.69,-17.15 -1.89,0 -2.45,0.57 -2.45,2.45z"/>
   </g>
  </g>
 </g>
</svg>
