<!-- Generated by IcoMoon.io -->
<svg version="1.1" xmlns="http://www.w3.org/2000/svg" width="32" height="32" viewBox="0 0 32 32">
<title>luna-one</title>
<path d="M20.234 5.716c1.867 1.465 0.627 0.007 1.319 2.449 2.117-2.31 0.645-0.448 2.583-1.406l-2.086-2.814-1.089 1.273c-0.090 0.068-0.277 0.188-0.356 0.245-0.081 0.060-0.254 0.16-0.371 0.252z"></path>
<path d="M22.38 26.584c-12.109 6.666-23.626-15.148-8.865-21.307-1.403 4.986-2.957 8.19-0.177 13.731 2.769 5.514 6.049 5.479 9.042 7.576zM28.276 24.373c-3.083-0.75-4.979-0.102-7.946-1.908-11.775-7.166-1.902-18.677-2.035-20.399-4.683-2.46-19.071 6.695-13.181 19.953 5.538 12.46 23.477 8.913 23.162 2.354z"></path>
<path d="M23.834 16.902c-3.275-0.565-3.256 2.716 0.156 2.15l-0.156-2.15z"></path>
</svg>
