<?xml version="1.0" encoding="UTF-8"?>
<!DOCTYPE svg PUBLIC "-//W3C//DTD SVG 1.1//EN" "http://www.w3.org/Graphics/SVG/1.1/DTD/svg11.dtd">
<!-- Creator: CorelDRAW 2017 -->
<svg xmlns="http://www.w3.org/2000/svg" xml:space="preserve" width="61.9758mm" height="7.5352mm" version="1.1" style="shape-rendering:geometricPrecision; text-rendering:geometricPrecision; image-rendering:optimizeQuality; fill-rule:evenodd; clip-rule:evenodd"
viewBox="0 0 6197.58 753.52"
 xmlns:xlink="http://www.w3.org/1999/xlink">
 <defs>
  <style type="text/css">
   <![CDATA[
    .fil1 {fill:#373435;fill-rule:nonzero}
    .fil0 {fill:#00A859;fill-rule:nonzero}
   ]]>
  </style>
 </defs>
 <g id="Capa_x0020_1">
  <metadata id="CorelCorpID_0Corel-Layer"/>
  <g id="_2189106169744">
   <path class="fil0" d="M24.29 443.02c-1.59,-2.9 -3.24,-5.97 -5.11,-9.14 0.52,1.43 0.36,0.24 -0.46,-3.48 -0.9,-3.69 -2.47,-10 -4.81,-18.87 0.63,-2.2 0.96,-4.02 1.05,-5.47 -0.02,-1.52 0.1,-2.9 0.18,-4.18 -2.02,-1.14 -3.56,-2.19 -4.7,-3.11 -1.15,-0.93 -1.81,-1.76 -2.09,-2.54 -2.15,-9.85 -4.28,-19.16 -6.25,-28.01 -0.7,-2.42 -0.31,-5.51 1.15,-9.34 1.47,-3.84 3.87,-8.28 7.06,-13.27 2.49,-4.21 5.04,-8 7.71,-11.21 2.68,-3.2 5.31,-6.03 7.95,-8.33 3.67,-2.94 5.68,-5.01 6.15,-6.16 0.45,-1.24 1.14,-2.03 2.02,-2.35 2.51,-0.91 4.87,-0.34 7.02,1.65 2.23,1.96 4.2,5.44 6.01,10.4 0.94,2.61 1.63,6.46 1.96,11.52 0.35,5.14 0.95,8.76 1.73,10.89 0.34,0.95 1.79,4.43 4.26,10.51 2.47,6.07 6,14.78 10.68,26.19 3.17,8.23 7.59,16.71 13.21,25.29 5.7,8.56 12.1,17.31 19.34,26.2 9.63,11.49 18.34,19.48 26.24,24.03 7.99,4.51 15.26,5.61 21.88,3.2 5.21,-1.89 10.91,-7.8 17.13,-17.74 6.13,-9.91 12.59,-23.78 19.34,-41.59 5.18,-13.75 9.59,-26.43 13.31,-38.05 3.64,-11.59 6.28,-22.01 7.9,-31.08 1.55,-8.25 4,-16.01 7.46,-23.43 3.41,-7.32 7.76,-14.52 13.09,-21.45 1.67,-2.05 3.11,-3.73 4.2,-4.92 1.12,-1.31 2.09,-2.1 2.88,-2.4 2.76,-0.99 5.64,0.29 8.57,3.95 3.02,3.63 5.97,9.52 8.92,17.65 1.81,7.91 3.82,15.67 5.89,23.31 2.76,12.03 5.1,24.84 6.94,38.27 1.85,13.44 3,27.66 3.62,42.61 0.26,7.59 0.6,14.16 0.87,19.86 0.34,5.6 0.82,10.34 1.48,14.11 0.4,2.09 0.93,4.76 1.46,7.95 0.54,3.19 1.25,6.86 2.07,11.12 -0.09,4.41 -0.42,8.91 -0.82,13.43 -0.46,3.65 -0.38,7.82 0.14,12.45 0.63,4.68 1.52,10.07 2.87,16 0.37,1.03 0.81,2.48 1.29,4.27 0.44,1.71 0.91,3.5 1.44,5.46 2.17,16.98 4.1,33.6 5.75,49.69 0.2,1.54 0.11,3.53 -0.13,6.03 -1.83,1.37 -3.54,3.52 -5.43,6.45 -1.78,2.96 -3.45,6.69 -4.93,11.24 -1.63,4.08 -3.09,7.2 -4.47,9.3 -1.27,2.17 -2.43,3.39 -3.3,3.71 -1.26,0.45 -2.43,0.43 -3.5,-0.07 -0.97,-0.45 -1.86,-1.64 -2.51,-3.45 -0.3,-1.33 -0.43,-2.44 -0.41,-3.34 0.24,-5.98 -0.63,-14.25 -2.63,-24.68 -1.92,-10.46 -4.85,-23.14 -8.77,-38.14 -0.97,-3.13 -2.72,-11.87 -5.35,-26.26 -2.57,-14.44 -6.01,-34.43 -10.33,-60.1 -0.77,-4.09 -1.71,-9.11 -2.72,-15.08 -1.01,-5.97 -2.1,-12.89 -3.24,-20.69 -0.25,-4.11 -0.52,-7.58 -0.78,-10.52 -0.27,-2.95 -0.67,-5.02 -1.12,-6.29 -0.58,-1.58 -1.22,-2.6 -2,-3.02 -0.82,-0.52 -1.74,-0.62 -2.85,-0.22 -0.94,0.34 -2.14,2.21 -3.73,5.46 -1.58,3.25 -3.44,7.95 -5.32,14.08 -1.26,3.41 -2.47,6.97 -3.62,10.69 -1.11,3.8 -2.45,7.5 -3.9,11.15 -2.6,5.86 -5,11.28 -7.14,16.43l-10.89 23.34c-1.16,1.49 -2.65,3.28 -4.34,5.51 -1.81,2.17 -3.8,4.77 -6.22,7.7 -1.31,5.74 -4.52,11.37 -9.7,17.01 -5.19,5.63 -10.43,9.41 -15.87,11.39 -6.46,2.35 -13.36,2.54 -20.82,0.69 -7.4,-1.94 -15.45,-6.16 -24.04,-12.59 -3.97,-3.3 -7.92,-6.59 -11.79,-9.82 -3.88,-3.33 -8,-6.56 -12.28,-9.74l-1.1 0.67c-0.44,1.23 0.41,7.98 2.56,20.32 2.06,12.29 5.63,30.19 10.5,53.68 4.8,24.24 8.68,43.28 11.55,57.05 2.94,13.75 5.06,22.53 6.47,26.4 1.6,5.4 2.12,9.77 1.49,13.21 -0.54,3.41 -2.46,5.98 -5.68,7.69 -1.6,0.76 -3.79,2.09 -6.72,3.87 -2.82,1.82 -6.13,4.01 -10.07,6.69 -0.84,0.13 -1.64,0.15 -2.41,-0.01 -0.69,-0.19 -1.21,-0.63 -1.5,-1.42l-1.79 -9.09 -5.46 -7.92c-0.81,-5.16 -1.6,-10.05 -2.28,-14.88 -2.74,-9.46 -5.33,-18.33 -7.84,-26.71 -0.45,-1.71 -0.95,-4.83 -1.36,-9.14 -0.52,-4.37 -1.05,-7.57 -1.8,-9.62 -0.37,-1.03 -1.18,-2.51 -2.43,-4.47 -1.22,-1.88 -2.03,-3.37 -2.43,-4.48 -3.07,-8.43 -6.28,-21.46 -9.65,-39.07 -3.29,-17.64 -6.54,-30.75 -9.69,-39.43 -1.77,-3.38 -3.6,-6.72 -5.53,-10.04 -1.21,-5.81 -2.48,-13.21 -3.83,-22.09 -1.38,-8.96 -2.94,-19.38 -4.85,-31.27zm298.58 61.19l15.96 -21.43c0.5,-1.07 1.08,-2.44 1.61,-4.15 0.65,-1.67 1.23,-4.02 1.68,-6.96 0.35,-2.45 1.17,-4.62 2.47,-6.7 1.24,-1.96 2.84,-3.98 4.72,-5.91 0.72,-1.96 1.74,-4.56 3.27,-7.7 1.46,-3.12 3.4,-6.86 5.83,-11.23 1.32,-1.55 3.03,-3.7 4.98,-6.46 1.97,-2.68 3.95,-6.07 5.97,-10.11 9.22,-18.35 17.91,-32.76 26.07,-43.23 8.08,-10.43 15.78,-16.98 23.04,-19.62 4.03,-1.47 7.25,-1.66 9.83,-0.72 2.53,1.05 4.33,3.07 5.45,6.15 1.18,3.23 1.65,6.27 1.36,9.14 -0.19,2.93 -1.26,5.64 -3.07,8.26 -2.86,4.17 -5.92,8.77 -9.19,13.79 -1.26,4.12 -3.02,8.59 -5.26,13.52 -2.23,4.92 -5.12,9.98 -8.56,15.25 -0.83,2.62 -1.46,4.83 -1.99,6.79 -0.54,1.01 -1.43,2.94 -2.92,5.71 -1.39,2.83 -3.4,6.15 -6,10.05 -0.35,3.95 -2.06,9.58 -5.24,16.8 -3.22,7.33 -7.73,16.3 -13.68,26.95 -0.62,1.47 -1.7,4.63 -3.07,9.5 -1.35,4.86 -3.14,11.24 -5.31,19.26l2.4 1.44c2.99,-2.34 5.88,-5.43 8.64,-9.38 2.65,-4.01 5.48,-8.97 8.43,-14.86 3.46,-6.7 6.32,-12.12 8.54,-16.32 2.23,-4.2 3.87,-7.03 4.95,-8.49 0.79,-1.01 1.66,-2.04 2.57,-2.99 0.8,-1.01 1.77,-2.25 2.77,-3.69 4.03,-11.01 8.36,-19.74 13.13,-26.02 4.66,-6.33 9.59,-10.44 14.8,-12.34 3.31,-1.2 6.21,-0.83 8.78,1.09 2.68,1.97 5,5.41 7.16,10.35 2.49,7.84 5.11,15.28 7.69,22.37 1.62,4.95 4.56,8.89 8.83,11.8 4.28,2.91 8.7,3.53 13.36,1.83 1.41,-0.51 2.61,-1.39 3.59,-2.63 1.05,-1.29 2.05,-2.72 3.01,-4.5 0.5,-1.79 1.08,-3.42 1.64,-5.05 0.57,-1.64 1.17,-3.2 1.81,-4.86 0.52,-0.54 1.19,-1.41 2,-2.61 0.9,-1.21 1.68,-2.48 2.39,-3.98 3.82,3.87 7.1,7.24 9.86,10.16 2.67,2.96 4.9,5.63 6.63,7.95 -2.37,4.52 -4.61,9.17 -6.85,13.82 -2.21,4.73 -4.71,9.4 -7.37,13.84 -3.37,5.25 -6.89,9.56 -10.52,12.85 -3.67,3.39 -7.7,5.83 -11.95,7.38 -10.02,3.64 -18.78,3.61 -26.2,-0.12 -7.54,-3.78 -13.82,-11.23 -18.91,-22.51 -0.48,-1.33 -1.23,-2.67 -2.17,-4.03 -0.92,-1.27 -2.25,-2.48 -4.08,-3.6 -0.43,1.05 -1,2.15 -1.64,3.37 -0.63,1.2 -1.25,2.68 -2.02,4.48 -1.41,2.29 -3.24,5.11 -5.38,8.56 -2.16,3.37 -4.71,7.42 -7.48,12.09 -3.43,7.5 -6.27,13.71 -8.68,18.6 -2.41,4.9 -4.1,8.37 -5.1,10.52 -2.13,3.72 -4.73,7.62 -7.89,11.71 -3.15,4.09 -6.73,8.51 -10.85,13.14 -2.63,2.83 -4.9,5.18 -6.82,7.03 -1.91,1.85 -3.48,2.96 -4.58,3.36 -7.34,2.66 -13.51,2.86 -18.38,0.53 -4.87,-2.34 -8.64,-7.31 -11.36,-14.81 -1.52,-4.17 -2.09,-8.43 -1.65,-12.88 0.36,-4.41 1.69,-9.1 3.98,-13.86 -0.43,-2.16 -0.84,-3.8 -1.3,-5.06 -0.29,-0.79 -0.74,-1.52 -1.44,-2.24 -0.69,-0.65 -1.58,-1.39 -2.54,-2.29 -1.72,-1.79 -3.63,-3.86 -5.82,-6.19 -2.07,-2.29 -4.4,-4.74 -6.93,-7.31 0.4,-0.85 0.83,-2.35 1.38,-4.51 0.45,-2.22 1,-4.92 1.62,-8.09zm173.97 -51.72c0.87,-2.02 1.52,-4.39 2.11,-7.2 0.54,-2.7 1.54,-5.83 2.89,-9.26l10.37 -18.86c0.45,-0.7 0.54,-1.45 0.34,-2.27 -0.18,-0.73 -0.51,-1.86 -0.99,-3.21 -0.9,-1.99 -1.72,-3.48 -2.49,-4.64 -1.29,-3.54 -2.73,-9.71 -4.43,-18.56 -1.59,-8.79 -2.14,-14.22 -1.74,-16.33l-2.94 -3.93c-1.76,-10.97 -3.02,-23.28 -3.86,-36.9 -0.82,-13.55 -1.54,-28.28 -2.18,-44.3 0.69,-3.01 1.12,-6.74 1.48,-11.16 0.28,-4.38 0.7,-9.36 1.11,-14.87 -0.33,-8.99 0.11,-18.61 1.24,-29.02 1.16,-10.32 2.69,-21.07 4.78,-32.27 2.73,-14.84 5.88,-26.33 9.24,-34.52 3.37,-8.19 7.29,-13.1 11.79,-14.73 8.91,-3.25 15.69,-3.74 20.27,-1.48 4.57,2.27 8.58,8.14 12.04,17.67 0.92,2.53 1.9,6.46 2.89,11.9 1.04,5.52 2.04,9.52 2.99,12.13 0.98,2.68 1.43,6.63 1.52,12.04 -0.02,5.36 0.73,10.09 2.19,14.11 0.3,1.33 0.33,2.65 0.23,4.11l1.42 3.15c0.14,2.36 0.14,5.3 0,8.84 -0.07,3.5 -0.37,7.81 -0.77,12.87 0.3,4.27 0.56,9.17 0.69,14.92 0.18,5.65 0.17,12 0.06,18.83 -0.41,1.84 -0.9,4.16 -1.49,6.96 -0.69,2.76 -1.35,5.85 -2.01,9.21 0.25,2.14 0.29,4.72 0.17,7.81 -0.09,2.96 -0.47,6.59 -1,10.8 -0.28,2.15 -0.8,4.67 -1.52,7.34 -0.8,2.7 -1.61,6.12 -2.59,10.31 -0.29,1.89 -0.64,4.16 -0.88,6.93 -0.19,2.65 -0.5,5.72 -0.86,9.15 -0.71,3.2 -1.74,7.25 -3.18,12.15 -1.35,4.86 -2.84,10.58 -4.5,17.07 -1.64,10.24 -3.68,20.09 -5.92,29.66 5.42,14.9 12.44,25.12 21.21,30.59 8.67,5.41 18.98,6.04 30.81,1.74 0.79,-0.29 2.88,-1.67 6.33,-4.18 3.5,-2.42 8.15,-6.08 14.1,-10.83 1.52,-1.98 3.34,-4.61 5.26,-7.9 1.96,-3.21 4.14,-7.04 6.56,-11.4l16.74 18.02c-2.74,5.01 -5.43,10.1 -8.03,15.24 -2.68,5.17 -5.46,10.29 -8.35,15.36 -3.29,5.66 -7.07,10.51 -11.21,14.34 -4.2,3.94 -8.64,6.71 -13.45,8.45 -2.45,0.9 -6.31,2.04 -11.56,3.32 -5.33,1.32 -9.23,2.37 -11.9,3.34 -8.6,3.13 -16.96,2.24 -25.13,-2.55 -8.13,-4.91 -15.85,-13.88 -23.19,-26.94 -0.83,-1.3 -1.73,-2.31 -2.69,-3.21 -0.87,-0.93 -2.32,-1.75 -4.18,-2.67 -1.34,2.71 -2.73,5.99 -4.41,9.72 -1.76,3.76 -3.85,8.09 -6.42,13.05l-16.96 -17.94zm44.26 -221.36l-1.89 -0.29c-5.67,11.43 -9.27,21.67 -10.99,30.69 -1.67,8.91 -1.27,16.89 1.25,23.83 0.41,1.1 0.51,3.12 0.48,5.99 -0.11,2.89 -0.42,6.67 -0.94,11.41 -0.78,5.72 -1.41,11.85 -1.94,18.47 0.23,9.74 0.5,17.59 0.94,23.5 0.38,5.93 1.07,10.05 1.9,12.34l2.03 1.4c1.37,-0.67 2.5,-2.69 3.6,-6.04 1.03,-3.32 1.91,-8.01 2.76,-14.03 0.19,-3.2 0.83,-7.09 1.76,-11.62 0.95,-4.54 1.94,-9.91 3.1,-16.04 1.21,-4.28 1.97,-14.46 2.26,-30.37 0.26,-15.99 -0.05,-25.97 -0.99,-30 -0.96,-3.14 -1.6,-6.38 -2.07,-9.61 -0.37,-3.25 -0.8,-6.4 -1.26,-9.63z"/>
   <g>
    <path class="fil0" d="M687.75 154.87l21.48 39.88 0 0 -19.68 10.6 -17.42 9.41 -15.25 8.25 -13.18 7.15 -11.21 6.1 -9.34 5.13 -7.55 4.16 -5.84 3.27 -4.19 2.38 -2.45 1.44 -0.01 -0.02 -11.39 -40.5 -9.6 1.17 0.99 -0.43 2.57 -1.18 3.64 -1.72 4.48 -2.14 5.2 -2.52 5.82 -2.83 6.31 -3.08 6.7 -3.26 7 -3.42 7.21 -3.49 7.29 -3.53 7.29 -3.51 7.21 -3.44 7 -3.31 6.73 -3.16 6.37 -2.92 5.9 -2.65 5.4 -2.35 4.85 -2.01 16.82 42.06 -3.93 1.63 -4.8 2.09 -5.5 2.47 -6.05 2.78 -6.51 3.04 -6.84 3.23 -7.05 3.38 -7.21 3.47 -7.23 3.49 -7.13 3.47 -6.98 3.4 -6.7 3.26 -6.33 3.08 -5.86 2.85 -5.32 2.58 -4.68 2.24 -3.98 1.88 -3.29 1.5 -2.91 1.23 -11.38 1.73 -10.81 -41.18 3.11 -2.04 3.41 -2.02 4.61 -2.62 6.08 -3.39 7.71 -4.26 9.44 -5.17 11.29 -6.16 13.24 -7.19 15.31 -8.27 17.44 -9.41 19.7 -10.62 0 0zm377.01 -171.41l20.24 40.52 -1.2 0.56 -11.32 4.85 -11.46 4.88 -11.57 4.94 -11.7 4.98 -11.78 5.02 -11.89 5.06 -11.96 5.1 -12.03 5.14 -12.09 5.18 -12.15 5.21 -12.18 5.24 -12.19 5.26 -12.22 5.31 -12.21 5.32 -12.21 5.36 -12.2 5.38 -12.16 5.4 -12.12 5.42 -12.06 5.44 -12 5.47 -11.95 5.48 -11.84 5.48 -11.75 5.51 -11.64 5.51 -11.52 5.52 -11.4 5.53 -11.24 5.53 -11.1 5.54 -10.94 5.55 -10.75 5.53 -10.57 5.54 -10.37 5.53 -21.48 -39.88 10.67 -5.69 10.87 -5.7 11.03 -5.67 11.18 -5.67 11.34 -5.66 11.48 -5.65 11.6 -5.63 11.72 -5.62 11.82 -5.59 11.91 -5.59 12.02 -5.56 12.07 -5.54 12.14 -5.53 12.2 -5.5 12.24 -5.48 12.28 -5.44 12.28 -5.42 12.29 -5.4 12.31 -5.36 12.28 -5.33 12.27 -5.3 12.22 -5.26 12.19 -5.23 12.11 -5.18 12.07 -5.16 11.98 -5.1 11.89 -5.08 11.8 -5.02 11.68 -4.98 11.57 -4.92 11.42 -4.88 11.28 -4.83 -1.2 0.56zm20.24 40.52l-0.64 0.32 -0.56 0.24 1.2 -0.56zm-176.34 378.74l-43.94 -11 0.19 -0.72 3.95 -12.67 4.74 -13.36 5.46 -14.04 6.14 -14.66 6.74 -15.23 7.27 -15.72 7.73 -16.15 8.14 -16.49 8.48 -16.75 8.74 -16.95 8.95 -17.04 9.08 -17.05 9.14 -16.99 9.14 -16.83 9.07 -16.58 8.92 -16.25 8.72 -15.84 8.43 -15.32 8.08 -14.73 7.67 -14.03 7.16 -13.25 6.61 -12.37 5.96 -11.38 5.23 -10.29 4.44 -9.07 3.52 -7.67 2.52 -6.02 1.35 -3.85 0.15 -0.3 1.4 8.52 17.93 12.95 9.23 -1.61 -20.24 -40.52 14.37 -3.05 20.59 14.97 1.74 13.78 -1.71 8.04 -2.55 7.39 -3.32 7.96 -4.08 8.87 -4.82 9.85 -5.51 10.83 -6.16 11.78 -6.75 12.63 -7.26 13.43 -7.73 14.17 -8.12 14.79 -8.45 15.34 -8.7 15.82 -8.9 16.19 -9.01 16.5 -9.08 16.69 -9.04 16.83 -8.98 16.85 -8.81 16.78 -8.58 16.63 -8.3 16.41 -7.92 16.05 -7.49 15.63 -6.99 15.1 -6.4 14.47 -5.74 13.72 -5.02 12.88 -4.22 11.9 -3.35 10.75 0.19 -0.72zm-43.94 -11l0.11 -0.44 0.08 -0.28 -0.19 0.72zm218.72 -102.69l0 45.3 10.13 -2.39 -6.39 3.23 -6.79 3.54 -7.18 3.8 -7.46 4 -7.76 4.21 -7.98 4.36 -8.16 4.48 -8.3 4.57 -8.41 4.64 -8.49 4.67 -8.51 4.65 -8.49 4.63 -8.44 4.55 -8.36 4.47 -8.24 4.34 -8.09 4.2 -7.9 4 -7.67 3.78 -7.41 3.54 -7.15 3.29 -6.87 2.98 -6.56 2.68 -6.31 2.33 -6.05 1.95 -5.97 1.56 -6.14 1.07 -6.74 0.32 -8.11 -1.24 -9.81 -4.99 -7.86 -10.25 -2.31 -11 1.06 -8.58 43.94 11 0.3 -2.86 -1.45 -6.62 -5.46 -7.13 -5.93 -3.11 -2.85 -0.5 -0.16 -0.02 1.68 -0.31 3.01 -0.8 3.99 -1.29 4.73 -1.75 5.42 -2.2 5.95 -2.58 6.41 -2.95 6.85 -3.28 7.21 -3.56 7.5 -3.8 7.77 -4.02 7.98 -4.2 8.16 -4.37 8.28 -4.47 8.39 -4.57 8.43 -4.61 8.41 -4.63 8.41 -4.64 8.34 -4.59 8.22 -4.52 8.08 -4.4 7.9 -4.29 7.68 -4.12 7.42 -3.92 7.15 -3.72 6.83 -3.47 10.13 -2.39zm-10.13 2.39l4.78 -2.39 5.35 0 -10.13 2.39zm3.31 58.48l-37.68 -25.12 2.83 -3.45 1.26 -1.24 1.31 -1.22 1.31 -1.16 1.33 -1.15 1.35 -1.14 1.31 -1.09 1.32 -1.08 1.41 -1.15 1.36 -1.09 1.35 -1.08 1.34 -1.07 1.3 -1.05 1.3 -1.05 1.26 -1.02 1.12 -0.91 1.08 -0.89 1.12 -0.94 0.85 -0.72 0.71 -0.64 0.7 -0.64 0.53 -0.51 0.28 -0.27 -0.05 0.05 -0.33 0.41 -0.75 1.08 -1.24 2.32 -1.45 4.75 0.17 8.45 4.92 9.74 7.37 5.49 5.32 1.59 2.81 0.23 0 -45.3 4.21 0.33 6.34 1.87 8.03 5.97 5.24 10.38 0.17 9.27 -1.77 5.71 -1.84 3.42 -1.63 2.32 -1.45 1.77 -1.41 1.53 -1.3 1.31 -1.23 1.17 -1.24 1.14 -1.37 1.22 -1.39 1.18 -1.24 1.04 -1.36 1.15 -1.42 1.15 -1.34 1.08 -1.34 1.07 -1.36 1.09 -1.34 1.07 -1.31 1.06 -1.26 1.01 -1.17 0.95 -1.18 0.98 -1.11 0.91 -0.97 0.82 -0.87 0.75 -0.73 0.66 -0.57 0.52 -0.44 0.42 2.83 -3.45zm-37.68 -25.12l1.24 -1.86 1.59 -1.59 -2.83 3.45zm-72.11 202.34l-40.52 -20.26 -0.56 1.21 2.65 -6.02 2.78 -6.04 2.92 -6.05 3.03 -6.07 3.15 -6.06 3.25 -6.07 3.35 -6.08 3.42 -6.05 3.52 -6.06 3.58 -6.06 3.65 -6.05 3.71 -6.02 3.76 -6.03 3.82 -5.99 3.81 -5.93 3.87 -5.94 3.89 -5.89 3.87 -5.84 3.9 -5.82 3.89 -5.75 3.87 -5.7 3.86 -5.65 3.83 -5.58 3.78 -5.51 3.75 -5.45 3.7 -5.36 3.62 -5.26 3.57 -5.2 3.48 -5.09 3.39 -4.99 3.31 -4.91 3.21 -4.77 37.68 25.12 -3.31 4.95 -3.39 5.01 -3.47 5.11 -3.54 5.17 -3.59 5.24 -3.66 5.32 -3.7 5.36 -3.71 5.41 -3.78 5.49 -3.79 5.52 -3.8 5.57 -3.81 5.6 -3.81 5.65 -3.8 5.66 -3.79 5.7 -3.77 5.71 -3.71 5.72 -3.71 5.75 -3.64 5.73 -3.58 5.73 -3.53 5.74 -3.45 5.71 -3.38 5.7 -3.28 5.68 -3.2 5.65 -3.09 5.6 -2.97 5.57 -2.87 5.52 -2.73 5.45 -2.6 5.41 -2.46 5.32 -2.31 5.26 -0.56 1.21zm0.56 -1.21l-0.27 0.63 -0.29 0.58 0.56 -1.21zm-92.27 162.16l-45.3 0 0.87 -6.22 1.91 -6.29 2.11 -6.27 2.29 -6.18 2.44 -6.13 2.61 -6.1 2.73 -6.01 2.87 -5.99 2.98 -5.94 3.08 -5.87 3.18 -5.84 3.25 -5.78 3.31 -5.73 3.36 -5.67 3.42 -5.67 3.45 -5.58 3.46 -5.54 3.49 -5.51 3.47 -5.42 3.45 -5.38 3.45 -5.35 3.41 -5.27 3.35 -5.21 3.3 -5.16 3.23 -5.09 3.14 -5.01 3.07 -4.98 2.96 -4.88 2.84 -4.8 2.72 -4.72 2.57 -4.63 2.44 -4.54 2.28 -4.45 40.52 20.26 -2.68 5.23 -2.8 5.22 -2.91 5.23 -3.02 5.24 -3.1 5.24 -3.18 5.24 -3.23 5.24 -3.3 5.27 -3.35 5.27 -3.38 5.28 -3.41 5.29 -3.41 5.29 -3.41 5.29 -3.41 5.32 -3.41 5.32 -3.35 5.29 -3.32 5.32 -3.27 5.3 -3.2 5.29 -3.14 5.31 -3.07 5.29 -2.95 5.26 -2.86 5.26 -2.74 5.23 -2.62 5.2 -2.47 5.17 -2.35 5.17 -2.19 5.1 -2.02 5.09 -1.87 5.02 -1.67 4.97 -1.49 4.93 0.87 -6.22zm-45.3 0l0 -3.18 0.87 -3.04 -0.87 6.22zm48.25 -3.83l17.24 41.88 -8.62 1.71 -2.11 -0.06 -1.97 -0.16 -1.68 -0.19 -1.8 -0.26 -1.88 -0.34 -1.73 -0.36 -1.67 -0.38 -1.78 -0.44 -1.78 -0.48 -1.8 -0.51 -1.89 -0.59 -1.8 -0.6 -1.77 -0.61 -1.89 -0.7 -1.83 -0.73 -1.86 -0.76 -1.9 -0.85 -1.84 -0.87 -1.78 -0.89 -1.84 -0.98 -1.94 -1.11 -1.86 -1.17 -1.85 -1.27 -1.86 -1.39 -1.87 -1.56 -1.99 -1.88 -1.97 -2.2 -1.86 -2.45 -1.86 -3.09 -1.61 -3.68 -1.17 -4.36 -0.43 -4.84 45.3 0 -0.29 -3.24 -0.73 -2.76 -0.91 -2.08 -0.9 -1.51 -0.66 -0.87 -0.57 -0.64 -0.35 -0.34 -0.07 -0.06 0.14 0.11 0.29 0.19 0.44 0.27 0.48 0.29 0.7 0.36 0.84 0.43 0.88 0.41 0.88 0.39 0.96 0.4 1.05 0.41 0.99 0.36 1.11 0.39 1.08 0.36 0.95 0.29 1 0.29 0.96 0.26 0.9 0.22 0.89 0.2 0.75 0.16 0.46 0.08 0.42 0.06 0.38 0.05 -0.09 0 -0.41 -0.02 -8.62 1.71zm17.24 41.88l-4.15 1.71 -4.47 0 8.62 -1.71zm410.69 -332.82l16.82 42.06 1.72 -0.77 -12.24 6.37 -12.35 6.89 -12.47 7.39 -12.58 7.86 -12.67 8.29 -12.77 8.68 -12.84 9.05 -12.93 9.37 -13.02 9.66 -13.08 9.9 -13.14 10.12 -13.21 10.3 -13.27 10.45 -13.34 10.55 -13.38 10.61 -13.44 10.66 -13.51 10.64 -13.54 10.61 -13.6 10.53 -13.65 10.42 -13.71 10.28 -13.75 10.09 -13.8 9.87 -13.86 9.63 -13.92 9.33 -13.97 9 -14.03 8.62 -14.09 8.24 -14.16 7.79 -14.23 7.31 -14.3 6.79 -14.38 6.23 -17.24 -41.88 12.88 -5.59 12.96 -6.15 13.03 -6.71 13.1 -7.19 13.13 -7.68 13.19 -8.12 13.23 -8.52 13.26 -8.89 13.3 -9.23 13.32 -9.53 13.35 -9.79 13.35 -10.02 13.37 -10.2 13.38 -10.37 13.4 -10.49 13.39 -10.56 13.4 -10.62 13.4 -10.63 13.4 -10.59 13.39 -10.55 13.41 -10.44 13.4 -10.32 13.4 -10.14 13.38 -9.94 13.39 -9.71 13.4 -9.43 13.41 -9.12 13.41 -8.77 13.42 -8.38 13.43 -7.97 13.45 -7.51 13.48 -7.01 1.72 -0.77zm-1.72 0.77l0.82 -0.41 0.9 -0.36 -1.72 0.77zm107.74 29.63l-41.24 -18.74 -0.41 0.96 0.96 -2.58 0.55 -1.87 0.24 -1.09 0.01 -0.06 0.04 1 0.41 2.03 1.2 2.87 2.15 3 2.61 2.26 2.45 1.34 1.79 0.59 0.84 0.15 0 0.01 -0.73 0.04 -1.28 0.15 -1.82 0.33 -2.22 0.49 -2.49 0.65 -2.85 0.84 -3.07 0.97 -3.24 1.11 -3.44 1.24 -3.58 1.35 -3.75 1.45 -3.84 1.52 -3.91 1.58 -4.01 1.64 -4.05 1.67 -4.1 1.7 -4.15 1.7 -4.13 1.68 -4.14 1.68 -16.82 -42.06 3.92 -1.58 4.01 -1.64 4.03 -1.66 4.1 -1.7 4.13 -1.69 4.13 -1.7 4.17 -1.68 4.14 -1.64 4.09 -1.59 4.12 -1.55 4.08 -1.46 4.06 -1.39 4.01 -1.27 3.95 -1.16 4.01 -1.05 3.98 -0.87 4 -0.71 4.18 -0.49 4.33 -0.2 4.6 0.21 5 0.81 5.45 1.75 5.57 3.02 5.21 4.48 4.17 5.8 2.6 6.27 1.19 6.07 0.16 5.7 -0.57 5.32 -1.06 5.01 -1.47 4.99 -1.86 5.04 -0.41 0.96zm0.41 -0.96l-0.19 0.48 -0.22 0.48 0.41 -0.96zm-196.5 281.63l-42.56 -15.48 -0.01 0 3.85 -9.82 4.32 -9.71 4.75 -9.61 5.16 -9.53 5.51 -9.42 5.84 -9.36 6.15 -9.28 6.4 -9.2 6.63 -9.18 6.85 -9.1 7.01 -9.06 7.16 -9.02 7.26 -8.97 7.36 -8.95 7.43 -8.91 7.43 -8.86 7.44 -8.84 7.4 -8.78 7.33 -8.78 7.26 -8.74 7.12 -8.68 6.96 -8.65 6.79 -8.61 6.58 -8.57 6.33 -8.52 6.06 -8.47 5.76 -8.41 5.42 -8.33 5.06 -8.27 4.69 -8.2 4.27 -8.09 3.84 -8.01 41.24 18.74 -4.62 9.63 -5.03 9.55 -5.41 9.46 -5.74 9.37 -6.06 9.31 -6.32 9.23 -6.56 9.17 -6.79 9.14 -6.96 9.07 -7.11 9.03 -7.24 8.99 -7.34 8.96 -7.4 8.9 -7.43 8.88 -7.44 8.86 -7.42 8.8 -7.37 8.78 -7.27 8.73 -7.16 8.71 -7.02 8.67 -6.86 8.62 -6.63 8.58 -6.41 8.54 -6.15 8.48 -5.86 8.44 -5.53 8.36 -5.18 8.28 -4.81 8.22 -4.4 8.11 -3.97 8.05 -3.54 7.93 -3.05 7.82 -0.01 0zm287.02 -131.51l16.42 42.22 0.2 -0.08 -3.78 1.65 -5.73 2.71 -7.28 3.6 -8.61 4.36 -9.78 5.03 -10.83 5.62 -11.75 6.09 -12.55 6.52 -13.25 6.83 -13.83 7.09 -14.28 7.24 -14.63 7.32 -14.88 7.34 -15.02 7.26 -15.05 7.11 -14.97 6.87 -14.78 6.57 -14.52 6.18 -14.15 5.73 -13.69 5.18 -13.15 4.57 -12.57 3.87 -11.97 3.11 -11.39 2.22 -10.94 1.2 -10.85 -0.15 -11.19 -2.3 -11.45 -6.05 -9.24 -11.06 -3.9 -13.36 0.56 -12.6 3.25 -11.86 42.56 15.48 -1.19 4.2 -0.1 0.42 -1 -3.22 -3 -3.66 -2.09 -1.23 1.09 0.14 4.09 0.01 6.44 -0.72 8.23 -1.62 9.67 -2.51 10.85 -3.35 11.83 -4.11 12.63 -4.78 13.29 -5.37 13.82 -5.9 14.22 -6.31 14.49 -6.65 14.63 -6.91 14.68 -7.1 14.6 -7.2 14.41 -7.22 14.1 -7.14 13.67 -7.01 13.15 -6.79 12.51 -6.48 11.75 -6.11 10.91 -5.64 9.96 -5.13 8.93 -4.52 7.8 -3.86 6.69 -3.17 5.76 -2.49 0.2 -0.08zm-0.2 0.08l0.2 -0.08 0 0 -0.2 0.08zm-38.54 173.62l-42.98 -14.32 0.46 -1.25 3.45 -7.09 4.13 -6.57 4.77 -6.59 5.38 -6.73 5.93 -6.99 6.42 -7.23 6.87 -7.48 7.2 -7.67 7.45 -7.81 7.6 -7.89 7.65 -7.92 7.62 -7.92 7.49 -7.8 7.22 -7.63 6.88 -7.42 6.41 -7.1 5.83 -6.69 5.13 -6.19 4.29 -5.55 3.3 -4.71 2.15 -3.55 0.87 -1.8 -0.21 1.21 0.58 5.93 5.06 8.01 5.95 3.41 1.52 0.31 -2.51 0.19 -5.54 1.05 -8.1 2.19 -10.42 3.41 -12.69 4.71 -16.42 -42.22 14.11 -5.23 12.36 -4.05 10.88 -2.93 9.84 -1.83 9.45 -0.57 10.28 1.51 11.69 6.47 8 12.81 0.92 12.31 -2.29 9.09 -3.41 7.44 -4.13 6.89 -4.78 6.85 -5.41 6.99 -5.95 7.19 -6.47 7.43 -6.89 7.62 -7.22 7.78 -7.48 7.91 -7.63 7.96 -7.68 7.96 -7.65 7.92 -7.5 7.79 -7.25 7.61 -6.92 7.35 -6.43 7.02 -5.86 6.59 -5.17 6.09 -4.32 5.41 -3.31 4.55 -2.15 3.41 -0.83 1.61 0.46 -1.25zm-42.98 -14.32l0.2 -0.6 0.26 -0.65 -0.46 1.25zm170.16 -58.07l44.84 -6.42 -0.93 10.37 -3.64 9.25 -4.51 8.72 -5.27 8.13 -5.91 7.54 -6.45 6.97 -6.9 6.43 -7.31 5.93 -7.62 5.44 -7.88 5 -8.12 4.58 -8.28 4.16 -8.37 3.77 -8.47 3.41 -8.49 3.06 -8.47 2.7 -8.4 2.36 -8.29 2.04 -8.16 1.72 -7.96 1.39 -7.72 1.08 -7.49 0.78 -7.2 0.45 -6.87 0.14 -6.61 -0.2 -6.35 -0.58 -6.16 -1.03 -6.16 -1.68 -6.35 -2.72 -6.74 -4.69 -6.31 -8.14 -3.07 -11.24 1.46 -10.65 42.98 14.32 0.8 -6.09 -1.95 -7.18 -3.49 -4.6 -2.34 -1.69 -0.45 -0.22 1.1 0.28 2.36 0.39 3.33 0.3 4.11 0.12 4.81 -0.1 5.32 -0.33 5.77 -0.6 6.16 -0.86 6.44 -1.13 6.66 -1.4 6.83 -1.68 6.92 -1.94 6.93 -2.22 6.91 -2.48 6.83 -2.75 6.67 -3.01 6.46 -3.24 6.16 -3.48 5.86 -3.7 5.46 -3.9 5.03 -4.09 4.56 -4.23 4.05 -4.37 3.51 -4.48 2.97 -4.57 2.43 -4.68 1.9 -4.83 -0.93 10.37zm-8.79 -71.64l45.3 0 -0.01 -0.09 0.05 0.69 0.09 1.18 0.14 1.47 0.17 1.78 0.21 2 0.25 2.22 0.28 2.4 0.3 2.54 0.34 2.69 0.34 2.81 0.37 2.85 0.37 2.94 0.39 2.95 0.39 3 0.4 3 0.4 2.96 0.39 2.93 0.39 2.87 0.38 2.77 0.37 2.68 0.34 2.53 0.34 2.39 0.31 2.26 0.29 2.03 0.26 1.83 0.23 1.64 0.18 1.34 0.17 1.13 0.1 0.74 0.06 0.39 0.04 0.3 -44.84 6.42 0 -0.04 -0.1 -0.61 -0.12 -0.9 -0.15 -1.07 -0.2 -1.4 -0.23 -1.6 -0.26 -1.87 -0.29 -2.09 -0.31 -2.24 -0.34 -2.43 -0.36 -2.59 -0.37 -2.7 -0.38 -2.81 -0.39 -2.89 -0.41 -2.97 -0.4 -3.02 -0.4 -3.04 -0.41 -3.04 -0.39 -3.05 -0.39 -3 -0.37 -2.97 -0.36 -2.87 -0.34 -2.79 -0.32 -2.7 -0.3 -2.56 -0.27 -2.44 -0.25 -2.3 -0.21 -2.1 -0.18 -1.99 -0.13 -1.8 -0.11 -1.77 -0.05 -1.99z"/>
   </g>
   <path class="fil1" d="M983.16 307.19c16.28,-0.58 28.36,-3.99 36.16,-10.13 7.89,-6.14 11.79,-15.5 11.79,-27.87 0,-10.63 -3.7,-18.91 -11.01,-24.95 -7.41,-5.95 -17.64,-8.97 -30.6,-8.97l-6.63 0 0.29 71.92zm-0.29 161.97l6.04 0c13.94,0 24.66,-3.7 32.16,-11.11 7.51,-7.41 11.21,-17.93 11.21,-31.38 0,-13.16 -4.29,-23.39 -12.96,-30.7 -8.58,-7.31 -20.76,-11.01 -36.45,-11.01l0 84.2zm-113.14 94.14l0 -416.91 129.81 0c47.07,0 82.44,8.78 106.03,26.32 23.68,17.44 35.47,43.56 35.47,78.25 0,25.15 -6.63,45.42 -19.88,60.81 -13.16,15.4 -33.23,26.22 -60.03,32.26 30.01,6.53 52.33,18.03 66.85,34.69 14.52,16.67 21.83,38.98 21.83,66.95 0,39.08 -12.67,68.42 -38.01,88.1 -25.34,19.69 -62.76,29.53 -112.26,29.53l-129.81 0zm405.21 -183.02l62.57 0c0,-16.56 -2.63,-29.04 -7.9,-37.32 -5.16,-8.29 -13.06,-12.38 -23.48,-12.38 -8.19,0 -14.82,4.09 -19.88,12.18 -5.07,8.09 -8.87,20.57 -11.31,37.52zm150.96 80.69c-4.19,34.31 -17.45,61.3 -39.86,80.99 -22.32,19.68 -51.07,29.53 -86.05,29.53 -41.13,0 -72.9,-13.26 -95.12,-39.76 -22.31,-26.61 -33.42,-64.42 -33.42,-113.44 0,-49.31 11.2,-87.51 33.71,-114.7 22.42,-27.19 53.9,-40.84 94.24,-40.84 43.95,0 76.8,12.09 98.53,36.26 21.73,24.16 32.55,60.61 32.55,109.24 0,5.75 0,10.04 -0.1,13.06 -0.1,2.92 -0.39,5.65 -0.78,8.09l-154.66 0 0 3.99c0,21.54 2.44,36.94 7.31,46.3 4.87,9.35 12.77,14.03 23.88,14.03 8.18,0 14.71,-2.73 19.78,-8.09 5.07,-5.36 8.77,-13.55 11.01,-24.66l88.98 0zm34.5 102.33l0 -292.36 101.74 0 0 43.37c9.94,-16.57 21.53,-28.85 34.89,-36.74 13.25,-7.9 29.04,-11.89 47.07,-11.89 22.12,0 38.88,6.53 50.48,19.68 11.5,13.16 17.25,32.55 17.25,58.09l0 219.85 -105.25 0 0 -170.25c0,-8.87 -1.66,-15.59 -5.07,-20.08 -3.41,-4.48 -8.58,-6.72 -15.4,-6.72 -6.24,0 -11.21,2.53 -14.91,7.7 -3.7,5.16 -5.55,12.08 -5.55,20.85l0 168.5 -105.25 0zm392.44 -146.18c0,20.76 2.14,36.35 6.43,46.88 4.29,10.42 10.72,15.69 19.29,15.69 8.97,0 15.99,-5.46 21.05,-16.47 5.07,-10.92 7.61,-26.32 7.61,-46.1 0,-19.78 -2.54,-35.18 -7.61,-46.1 -5.06,-11.01 -12.08,-16.47 -21.05,-16.47 -8.57,0 -15,5.27 -19.29,15.69 -4.29,10.53 -6.43,26.12 -6.43,46.88zm54.38 146.18l0 -32.26c-9.94,13.65 -20.47,23.68 -31.68,30.21 -11.3,6.44 -23.68,9.65 -37.13,9.65 -29.52,0 -52.43,-13.45 -68.7,-40.34 -16.28,-26.9 -24.46,-64.71 -24.46,-113.44 0,-48.53 8.18,-86.25 24.56,-113.24 16.37,-27 39.27,-40.54 68.6,-40.54 13.26,0 25.44,3.21 36.55,9.55 11.01,6.33 21.83,16.47 32.26,30.31l0 -194.81 105.83 0 0 454.91 -105.83 0zm138.67 -392.35c0,-17.93 6.14,-32.94 18.32,-45.02 12.18,-12.08 27.09,-18.13 44.83,-18.13 17.73,0 32.55,6.05 44.53,18.13 11.99,12.08 18.03,27.09 18.03,45.02 0,17.54 -6.04,32.45 -18.12,44.73 -12.09,12.28 -26.9,18.42 -44.44,18.42 -17.74,0 -32.65,-6.14 -44.83,-18.32 -12.18,-12.18 -18.32,-27.09 -18.32,-44.83zm9.94 392.35l0 -292.36 105.83 0 0 292.36 -105.83 0zm166.74 0l0 -199.97 -35.09 0 0 -92.39 35.09 0 0 -85.95 106.42 0 0 85.95 38 0 0 92.39 -38 0 0 199.97 -106.42 0zm267.8 -146.18c0,20.76 2.14,36.35 6.43,46.88 4.29,10.42 10.72,15.69 19.29,15.69 8.58,0 15.11,-5.36 19.59,-16.18 4.49,-10.72 6.73,-26.22 6.73,-46.39 0,-20.56 -2.24,-36.25 -6.73,-46.97 -4.48,-10.82 -11.01,-16.18 -19.59,-16.18 -8.38,0 -14.71,5.36 -19.1,15.98 -4.38,10.72 -6.62,26.41 -6.62,47.17zm54.38 146.18l0 -32.26c-10.43,14.04 -21.25,24.27 -32.46,30.8 -11.11,6.43 -23.29,9.65 -36.35,9.65 -29.14,0 -51.94,-13.55 -68.41,-40.64 -16.47,-27.09 -24.75,-65 -24.75,-113.73 0,-49.12 8.18,-87.12 24.46,-114.02 16.27,-26.9 39.18,-40.35 68.7,-40.35 13.26,0 25.44,3.22 36.55,9.55 11.01,6.34 21.83,16.47 32.26,30.31l0 -31.67 105.83 0 0 292.36 -105.83 0zm279.59 0l29.72 -416.91 138.78 0 36.35 219.86 36.25 -219.86 138.48 0 29.72 416.91 -106.22 0 -8.87 -295.28 -46.29 295.28 -86.54 0 -46.29 -295.28 -9.16 295.28 -105.93 0zm530.83 -183.02l62.57 0c0,-16.56 -2.63,-29.04 -7.9,-37.32 -5.16,-8.29 -13.06,-12.38 -23.48,-12.38 -8.19,0 -14.82,4.09 -19.88,12.18 -5.07,8.09 -8.87,20.57 -11.31,37.52zm150.96 80.69c-4.19,34.31 -17.45,61.3 -39.86,80.99 -22.32,19.68 -51.07,29.53 -86.05,29.53 -41.13,0 -72.9,-13.26 -95.12,-39.76 -22.31,-26.61 -33.42,-64.42 -33.42,-113.44 0,-49.31 11.2,-87.51 33.71,-114.7 22.42,-27.19 53.9,-40.84 94.24,-40.84 43.95,0 76.8,12.09 98.53,36.26 21.73,24.16 32.55,60.61 32.55,109.24 0,5.75 0,10.04 -0.1,13.06 -0.1,2.92 -0.39,5.65 -0.78,8.09l-154.66 0 0 3.99c0,21.54 2.44,36.94 7.31,46.3 4.87,9.35 12.77,14.03 23.88,14.03 8.18,0 14.71,-2.73 19.78,-8.09 5.07,-5.36 8.77,-13.55 11.01,-24.66l88.98 0zm34.5 102.33l0 -292.36 99.4 0 0 40.83c9.16,-14.81 20.37,-26.31 33.62,-34.5 13.25,-8.18 28.55,-12.96 45.9,-14.52l0 102.91 -2.24 0c-26.12,0 -44.34,4.88 -54.67,14.72 -10.43,9.84 -15.6,27.29 -15.6,52.43l0 130.49 -106.41 0zm370.22 -4.68c-7.6,4.39 -15.88,7.6 -24.75,9.75 -8.87,2.04 -18.91,3.12 -30.11,3.12 -37.72,0 -67.44,-13.74 -89.17,-41.23 -21.74,-27.48 -32.55,-65.19 -32.55,-113.14 0,-46.97 11.2,-84.49 33.62,-112.46 22.31,-27.97 52.14,-41.91 89.26,-41.91 10.24,0 19.89,0.98 28.66,2.83 8.86,1.95 17.25,4.87 25.04,8.87l0 89.46c-3.6,-2.24 -7.31,-3.9 -11.11,-4.87 -3.8,-1.07 -7.89,-1.56 -12.28,-1.56 -11.01,0 -19.88,5.36 -26.41,15.98 -6.53,10.62 -9.84,25.14 -9.84,43.66 0,18.61 3.02,32.65 9.16,42 6.04,9.46 15.11,14.13 27.09,14.13 3.41,0 7.12,-0.48 11.01,-1.56 3.9,-0.97 8,-2.43 12.38,-4.28l0 91.21zm132.15 -141.5c0,20.76 2.14,36.35 6.43,46.88 4.29,10.42 10.72,15.69 19.29,15.69 8.58,0 15.11,-5.36 19.59,-16.18 4.49,-10.72 6.73,-26.22 6.73,-46.39 0,-20.56 -2.24,-36.25 -6.73,-46.97 -4.48,-10.82 -11.01,-16.18 -19.59,-16.18 -8.38,0 -14.71,5.36 -19.1,15.98 -4.38,10.72 -6.62,26.41 -6.62,47.17zm54.38 146.18l0 -32.26c-10.43,14.04 -21.25,24.27 -32.46,30.8 -11.11,6.43 -23.29,9.65 -36.35,9.65 -29.14,0 -51.94,-13.55 -68.41,-40.64 -16.47,-27.09 -24.75,-65 -24.75,-113.73 0,-49.12 8.18,-87.12 24.46,-114.02 16.27,-26.9 39.18,-40.35 68.7,-40.35 13.26,0 25.44,3.22 36.55,9.55 11.01,6.34 21.83,16.47 32.26,30.31l0 -31.67 105.83 0 0 292.36 -105.83 0zm247.43 -146.18c0,20.76 2.14,36.35 6.43,46.88 4.29,10.42 10.72,15.69 19.29,15.69 8.97,0 15.99,-5.46 21.05,-16.47 5.07,-10.92 7.61,-26.32 7.61,-46.1 0,-19.78 -2.54,-35.18 -7.61,-46.1 -5.06,-11.01 -12.08,-16.47 -21.05,-16.47 -8.57,0 -15,5.27 -19.29,15.69 -4.29,10.53 -6.43,26.12 -6.43,46.88zm54.38 146.18l0 -32.26c-9.94,13.65 -20.47,23.68 -31.68,30.21 -11.3,6.44 -23.68,9.65 -37.13,9.65 -29.52,0 -52.43,-13.45 -68.7,-40.34 -16.28,-26.9 -24.46,-64.71 -24.46,-113.44 0,-48.53 8.18,-86.25 24.56,-113.24 16.37,-27 39.27,-40.54 68.6,-40.54 13.26,0 25.44,3.21 36.55,9.55 11.01,6.33 21.83,16.47 32.26,30.31l0 -194.81 105.83 0 0 454.91 -105.83 0zm244.5 -147.93c0,21.73 2.24,38.1 6.63,49.01 4.39,11.02 10.91,16.47 19.69,16.47 8.77,0 15.39,-5.45 19.78,-16.47 4.38,-10.91 6.53,-27.28 6.53,-49.01 0,-21.54 -2.15,-37.62 -6.53,-48.34 -4.39,-10.62 -11.01,-15.98 -19.78,-15.98 -8.78,0 -15.3,5.36 -19.69,15.98 -4.39,10.72 -6.63,26.8 -6.63,48.34zm-109.34 1.75c0,-49.12 11.89,-87.12 35.57,-114.02 23.68,-26.9 57.01,-40.35 100.09,-40.35 42.97,0 76.3,13.45 99.79,40.35 23.48,26.9 35.28,64.9 35.28,114.02 0,49.12 -11.8,87.12 -35.28,114.02 -23.49,26.9 -56.82,40.35 -99.79,40.35 -43.27,0 -76.6,-13.45 -100.28,-40.35 -23.59,-26.9 -35.38,-64.9 -35.38,-114.02zm318.09 146.18l0 -199.97 -35.09 0 0 -92.39 35.09 0 0 -85.95 106.42 0 0 85.95 38 0 0 92.39 -38 0 0 199.97 -106.42 0zm257.27 -183.02l62.57 0c0,-16.56 -2.63,-29.04 -7.9,-37.32 -5.16,-8.29 -13.06,-12.38 -23.48,-12.38 -8.19,0 -14.82,4.09 -19.88,12.18 -5.07,8.09 -8.87,20.57 -11.31,37.52zm150.96 80.69c-4.19,34.31 -17.45,61.3 -39.86,80.99 -22.32,19.68 -51.07,29.53 -86.05,29.53 -41.13,0 -72.9,-13.26 -95.12,-39.76 -22.31,-26.61 -33.42,-64.42 -33.42,-113.44 0,-49.31 11.2,-87.51 33.71,-114.7 22.42,-27.19 53.9,-40.84 94.24,-40.84 43.95,0 76.8,12.09 98.53,36.26 21.73,24.16 32.55,60.61 32.55,109.24 0,5.75 0,10.04 -0.1,13.06 -0.1,2.92 -0.39,5.65 -0.78,8.09l-154.66 0 0 3.99c0,21.54 2.44,36.94 7.31,46.3 4.87,9.35 12.77,14.03 23.88,14.03 8.18,0 14.71,-2.73 19.78,-8.09 5.07,-5.36 8.77,-13.55 11.01,-24.66l88.98 0zm199.97 97.65c-7.6,4.39 -15.88,7.6 -24.75,9.75 -8.87,2.04 -18.91,3.12 -30.11,3.12 -37.72,0 -67.44,-13.74 -89.17,-41.23 -21.74,-27.48 -32.55,-65.19 -32.55,-113.14 0,-46.97 11.2,-84.49 33.62,-112.46 22.31,-27.97 52.14,-41.91 89.26,-41.91 10.24,0 19.89,0.98 28.66,2.83 8.86,1.95 17.25,4.87 25.04,8.87l0 89.46c-3.6,-2.24 -7.31,-3.9 -11.11,-4.87 -3.8,-1.07 -7.89,-1.56 -12.28,-1.56 -11.01,0 -19.88,5.36 -26.41,15.98 -6.53,10.62 -9.84,25.14 -9.84,43.66 0,18.61 3.02,32.65 9.16,42 6.04,9.46 15.11,14.13 27.09,14.13 3.41,0 7.12,-0.48 11.01,-1.56 3.9,-0.97 8,-2.43 12.38,-4.28l0 91.21zm29.24 4.68l0 -292.36 101.74 0 0 43.37c9.94,-16.57 21.53,-28.85 34.89,-36.74 13.25,-7.9 29.04,-11.89 47.07,-11.89 22.12,0 38.88,6.53 50.48,19.68 11.5,13.16 17.25,32.55 17.25,58.09l0 219.85 -105.25 0 0 -170.25c0,-8.87 -1.66,-15.59 -5.07,-20.08 -3.41,-4.48 -8.58,-6.72 -15.4,-6.72 -6.24,0 -11.21,2.53 -14.91,7.7 -3.7,5.16 -5.55,12.08 -5.55,20.85l0 168.5 -105.25 0zm283.68 -392.35c0,-17.93 6.14,-32.94 18.32,-45.02 12.18,-12.08 27.09,-18.13 44.83,-18.13 17.73,0 32.55,6.05 44.53,18.13 11.99,12.08 18.03,27.09 18.03,45.02 0,17.54 -6.04,32.45 -18.12,44.73 -12.09,12.28 -26.9,18.42 -44.44,18.42 -17.74,0 -32.65,-6.14 -44.83,-18.32 -12.18,-12.18 -18.32,-27.09 -18.32,-44.83zm9.94 392.35l0 -292.36 105.83 0 0 292.36 -105.83 0zm252.11 -146.18c0,20.76 2.14,36.35 6.43,46.88 4.29,10.42 10.72,15.69 19.29,15.69 8.58,0 15.11,-5.36 19.59,-16.18 4.49,-10.72 6.73,-26.22 6.73,-46.39 0,-20.56 -2.24,-36.25 -6.73,-46.97 -4.48,-10.82 -11.01,-16.18 -19.59,-16.18 -8.38,0 -14.71,5.36 -19.1,15.98 -4.38,10.72 -6.62,26.41 -6.62,47.17zm54.38 146.18l0 -32.26c-10.43,14.04 -21.25,24.27 -32.46,30.8 -11.11,6.43 -23.29,9.65 -36.35,9.65 -29.14,0 -51.94,-13.55 -68.41,-40.64 -16.47,-27.09 -24.75,-65 -24.75,-113.73 0,-49.12 8.18,-87.12 24.46,-114.02 16.27,-26.9 39.18,-40.35 68.7,-40.35 13.26,0 25.44,3.22 36.55,9.55 11.01,6.34 21.83,16.47 32.26,30.31l0 -31.67 105.83 0 0 292.36 -105.83 0z"/>
  </g>
 </g>
</svg>
