<?xml version="1.0" encoding="UTF-8"?>
<!DOCTYPE svg PUBLIC "-//W3C//DTD SVG 1.1//EN" "http://www.w3.org/Graphics/SVG/1.1/DTD/svg11.dtd">
<!-- Creator: CorelDRAW 2017 -->
<svg xmlns="http://www.w3.org/2000/svg" xml:space="preserve" width="30.4798mm" height="22.9446mm" version="1.1" style="shape-rendering:geometricPrecision; text-rendering:geometricPrecision; image-rendering:optimizeQuality; fill-rule:evenodd; clip-rule:evenodd"
viewBox="0 0 3047.98 2294.46"
 xmlns:xlink="http://www.w3.org/1999/xlink">
 <defs>
  <style type="text/css">
   <![CDATA[
    .fil0 {fill:#9E9E9E}
   ]]>
  </style>
 </defs>
 <g id="Capa_x0020_1">
  <metadata id="CorelCorpID_0Corel-Layer"/>
  <path class="fil0" d="M646.68 952.73l-100.26 -34.23c-37.26,-2.11 -73.74,-5.76 -110.69,-0.15 -21.86,3.31 -23.26,9.63 -44.09,13.82 -26.42,5.32 -60.34,21.89 -80.85,38.35 -12.44,9.99 -22.45,9.18 -45.52,30.11 -6.1,5.54 -8.55,9.39 -14.76,15.99 -5.49,5.86 -8.33,7.64 -14.05,13.43l-13.42 13.97c-22.24,24.26 -45.25,50.46 -60.39,79.81 -4.76,9.25 -7.16,10.35 -11.73,19.21 -6.72,13.09 -15.03,22.96 -18.38,35.83 -4.53,17.38 -2.22,7.26 -8.89,19.45 -5.83,10.66 -2.98,12.62 -7.11,23.57 -8.03,21.34 -4.85,2.51 -14.14,40.08 -5.64,22.8 -9.11,11.51 -12.14,46.77 -5.98,69.46 -20.97,111.68 -4.94,180.65 3.51,15.12 2.04,37.16 5.37,53.07 3.92,18.76 9.29,23.86 12.21,42.78l21.01 64.06c5.19,10.85 3.33,1.67 9.36,18.8l42.69 73.32c13.05,23.48 28.39,46.18 48.41,64.33l9.12 8.21c0.49,0.51 1.15,1.31 1.63,1.83 0.49,0.52 1.11,1.33 1.59,1.84l10.24 10.18c44.03,41.67 52.29,43.54 107.23,74.38l40.18 18.05c39.1,16.16 145.45,14.51 190.78,2.98l61.36 -27.92c6.23,10.72 2.17,9.37 6.13,21.72 3.98,12.4 5.11,7.1 9.14,21.56l18.48 39.36c22.19,35.56 57.73,66.56 95.59,82.06 13.46,5.51 5.64,6.89 19.29,11.34 9.26,3.01 16.82,1.61 26.32,4.96 21.47,7.55 15.12,10.01 47.34,10.67 48.02,1 100.48,6.51 148.02,-2.69 16.06,-3.11 13.35,-5.67 25.12,-8.98 9.39,-2.64 18.17,-1.41 27.75,-3.62 17.12,-3.93 8.24,-6.49 22.82,-11.25 10.69,-3.49 14.07,-0.98 24.27,-6.23l33.61 -14.32c17.42,-10.32 18.7,-6.83 34.91,-13.49 12.92,-5.3 4.7,-6.34 19.86,-11.12l34.41 -13.69c4.56,-1.35 10.2,-1.65 15.01,-2.49 12.43,-2.16 15.95,-5.66 24.66,-9.01 28.32,-10.9 117.44,-10.56 148.36,-2.51 12.11,3.16 31.03,15.38 40.49,21.99 11.37,7.96 25.58,14.12 35.97,22.49 16.78,13.52 22.11,16.76 41.67,1.7 19.23,-14.8 34.74,-27.28 55.76,-33.82 14.59,-4.55 7.17,-5.93 19.73,-11.14 23.12,-9.59 108.1,-9.68 139.25,-1.55 12.64,3.3 8.73,5.34 21.98,9.54 7.96,2.52 16.35,1.99 25.65,4.91 11.41,3.58 7.44,5.58 20.46,10.85l28.04 9.74c0.69,0.41 1.45,1.05 2.13,1.45l57.46 20.99c34.41,10.8 28.59,18.21 89.84,29.82 17.95,3.4 24.4,11.64 46.06,12.42 50.75,1.85 93.35,3.58 144.34,-0.54 22.45,-1.82 17.24,-9.36 41.5,-12.43 21.92,-2.78 41.39,-14.59 56.93,-25.18l4.3 -2.74c0.91,-0.51 3.82,-1.73 4.76,-2.2 9.87,-4.91 2.64,0.48 10.61,-6.22 4.68,-3.93 2.23,-2.76 6.87,-6.83 21.57,-18.91 41.85,-40.47 56.1,-66.83 18.83,-34.81 11.46,-27.95 17.92,-57.99 1.58,-7.36 0.68,-5.18 3.34,-9.53 25.9,1.83 11.36,2.64 25.89,10.66 10.82,5.97 12.59,2.75 24.46,10.06 16.36,10.09 33.21,10.05 55.98,11.04 51.69,2.25 77.68,4.08 128.94,-3.97 15.07,-2.37 48.08,-16.89 61.84,-23.55 6.28,-3.03 5.92,-1.78 13.09,-4.39 34.43,-12.54 92.52,-64.27 119.4,-92.53 20.11,-21.15 38.71,-48.81 52.76,-73.79 4.24,-7.56 1.85,-3.22 4.24,-6.38 5.76,-7.65 1.43,0.31 7.5,-9.48l40.46 -82.89c5.52,-10.87 3.79,-15.14 6.63,-27.07 3.55,-14.91 6.04,-10.43 10.24,-24.42 2.9,-9.69 2.3,-21.26 5.43,-32.62 13.92,-50.41 14.22,-71.18 14.22,-128.37 0,-20.23 -2.14,-85.91 -9.21,-102.56 -8.99,-21.18 -4.62,-45.49 -15.84,-66.28 -7.21,-13.39 -7.99,-26 -16.41,-42.09 -4.57,-8.73 -3.28,-11.34 -6.78,-20.88l-55.72 -94.99c-0.43,-0.59 -0.95,-1.46 -1.38,-2.07 -4.32,-6.11 -2.57,-3.98 -7.19,-9.65l-18.82 -22.47c-1.74,-2.24 -3.7,-5.6 -5.6,-8.26 -7.84,-10.98 -18.63,-20.12 -28.62,-29.22 -9.88,-8.99 -18.13,-17.13 -29.35,-25.58l-34.2 -23.94c-10.38,-5.33 -21.42,-17.25 -33.12,-21.48 -7.79,-2.82 -13.84,-1.97 -22.42,-5.23 -9.76,-3.69 -8.23,-6.67 -20.19,-10.44 -45.57,-14.32 -68.1,-17.79 -118.72,-17.79 -58.73,0 -41.61,3.88 -81.89,13.98l-52.71 18.93c-13.51,4.96 -4.51,3.71 -16.52,10.51 -3.3,-31.36 0.36,-28.1 -13.83,-55.07 -7.52,-14.29 -6.15,-19.4 -17.68,-33.83 -18.57,-23.24 -25.87,3.09 -21,18.21l17.9 30.1c7.97,14.14 8.82,17.98 10.07,36.52 2.35,34.7 -9.12,21.24 -41.98,70.72 -0.35,0.53 -3.04,5.19 -3.83,6.41l-2.8 4.11c-0.57,0.83 -2.42,3.03 -2.98,3.87 -8.46,12.78 -5.29,20.85 -6.57,38.5 -1.39,18.93 -0.9,18.86 10.84,30.59 23.48,-1.46 31.07,-22.06 43.87,-37.71 9.97,-12.19 7.8,-7.34 15.35,-25.45 19.08,-45.78 -3.3,-55.17 51.81,-76.33 35.92,-13.79 14.01,-15.88 70.78,-15.88 51.14,0 63.37,5.16 112.93,14.87 42.28,8.29 91.97,42.13 122.31,74.01l47.63 51.98c3.6,4.38 1.76,1.86 4.82,5.4 18.14,20.96 43.73,56.09 52.51,81.86l14.67 36.86c4.95,16.47 9.05,12.98 13.58,34.55 3.8,18.15 9.59,21.42 12.64,35.24 3.37,15.3 1.4,27.55 6.12,41.88 14.26,43.23 8.86,69.79 8.86,118.98 0,28.63 -9.3,106.36 -22.24,129.94 -6.46,11.77 -3.36,10.58 -7.42,23.24 -4.71,14.66 -5.81,7.3 -10.1,20.57 -4.14,12.8 -4.29,22.13 -11.93,33.27l-9.81 21.06c-24.59,41.47 -56.07,79.46 -88.27,114.19 -29.7,32.05 -68.06,59.1 -106.66,79.12 -45.94,23.82 -109.99,22.63 -160.2,19.21 -8.59,-0.59 -22.73,-0.11 -30.35,-1.81 -14.53,-3.24 -6.81,-5.03 -20.24,-10.15 -5.09,-1.93 -5.99,-1.34 -10.91,-2.73 -10.96,-3.09 -23.47,-10.91 -28.09,-21.11 -2.31,-22 0.91,-22.65 -8.42,-39.52 -14.35,-25.98 -10.36,-33.62 -35.69,-60.17 -10.53,-11.04 -10.21,-15.79 -32.39,-11.46 -20.02,43.89 6.18,81.17 33.57,109.95l19.79 17.1c0.89,32.73 -4.65,42.48 -15.75,67.82 -4.98,11.4 -6.17,9.36 -13.82,17.43 -0.5,0.52 -1.17,1.28 -1.65,1.8 -17.95,18.98 -31.89,28.44 -56.02,37.49 -16.15,6.05 -5.43,8.01 -28.38,12.84 -86.18,18.14 -77.88,13.06 -158.13,11.02 -19.21,-0.49 -19.53,-4.78 -36.68,-7.62 -39.07,-6.46 -48.25,0.73 -82.49,-14.1 -14.32,-6.2 -23.14,-2.83 -38.42,-6.07 -16.72,-3.54 -15.43,-9.02 -35.77,-12.2 -18.78,-2.95 -22.15,-2.77 -38.5,-9.87 -17.33,-7.53 -20.31,-4.27 -39.85,-8.03 -42.78,-8.21 -13.16,-9.23 -79.52,-13.02 -33.3,-1.9 -97.64,-5.78 -127.06,9.51 -20.51,10.67 -35.66,11.4 -60.77,28.51l-4.1 2.87c-6.27,3.86 -9.5,4.44 -15.58,8.14 -14.8,9 -16.58,9.92 -28.81,1.46 -21.84,-15.11 -39.73,-28.84 -66.39,-35.53l-8.36 -2.42c-19.13,-8.51 -6.2,-11.03 -38.62,-12.02 -102.09,-3.12 -115.04,-2.44 -205.66,16.9 -18.68,3.99 -13.85,9.93 -34.95,12.69 -23.95,3.13 -16.89,-1.13 -35.21,8.98 -15.14,8.38 -24.44,4.45 -43.1,6.26 -14.86,1.43 -18.42,8.81 -31.76,12.19l-126.26 15.54c-104.76,0 -47.21,-0.75 -125.02,-12.92 -20.92,-3.28 -52.39,-20.86 -68.87,-35.08l-29.97 -31.97c-12.61,-16.71 -7.58,-1.61 -12.09,-30.04 -7.44,-46.82 0.49,-37.67 24.32,-69.05 9.48,-12.49 15.53,-18.95 20.67,-33.56 9.75,-27.78 28.98,-48.22 -11.43,-68.3 -7.07,4.1 -11.82,7.69 -17.78,14.18 -6.4,6.98 -2.1,2.65 -7.55,9.64l-9.76 10.88c-42.91,52.11 5.26,101.66 -108.18,115.8 -56.93,7.1 -109.92,-2.97 -161.57,-15.42 -13.35,-3.21 -18.58,-10.04 -31.2,-16.93l-16.56 -10.94c-11.47,-7.03 -13.12,-8.86 -22.05,-15.95 -12.72,-10.08 -27.96,-21.59 -40.13,-31.91 -2.03,-1.73 -7,-6.93 -8.61,-8.7l-62.42 -78.64c-0.44,-0.63 -1,-1.48 -1.42,-2.13 -9.51,-14.61 -42.4,-73.18 -45.73,-88.36 -4.67,-21.26 -12.72,-37.52 -16.47,-58.92 -4.51,-25.81 -12.75,-33.07 -14.13,-61.38 -3.8,-77.63 -8.3,-32.15 -1.51,-114.14 4.99,-60.19 -0.12,-77.28 24.53,-134.43 5.4,-12.53 5.59,-27.13 12.36,-39.28 7.23,-12.97 12.01,-24.72 18.75,-36.15 13.6,-23.1 23.26,-45.4 39.5,-66.98l26.07 -32.15c0.44,-0.6 1.03,-1.43 1.49,-2.01l8.61 -8.65c17.65,-17.26 35.87,-36.53 55.98,-50.71 7.06,-4.98 9.6,-4.87 16.92,-10.39l70.05 -36.69c16.09,-3.78 29.23,-2.89 44.96,-6.94 35.75,-9.18 48.23,-8.68 88.04,-8.68 26.36,0 59.54,12.78 80.59,27.09 28.22,19.18 16.64,43.88 25.96,64.06l30.13 48.27c5.81,6.43 14.53,11.28 21.13,17.76l25.95 -18.93c-0.78,-26.96 -9.48,-48.2 -24.89,-69.17 -8.15,-11.08 -7.78,-15.82 -19.03,-28.99 -10.69,-12.54 -18.26,-19.52 -18.26,-38.46 0,-54.6 49.15,-68.96 22.5,-95.11 -7.99,2.79 -16.2,8.44 -21.16,15.44 -25.58,36.16 -15.44,42.99 -36.23,76.75zm868.25 270.5c0,23.44 -2.19,64.69 7.07,80.87 37.85,8.07 24.09,-5.39 29.03,-77.4 0.9,-13.17 1.71,-41.44 5.66,-52.7 6.04,-17.19 18.37,-20.2 3.34,-38.15 -9.59,1.34 -30.23,22.27 -34.46,30.39 -5.02,9.62 -10.64,44.78 -10.64,56.99zm178.98 -445.92c0.42,15.93 20.79,51.8 27.89,80.82 8.18,33.39 -1.43,60.76 13.14,96.15 5.92,14.38 5.29,28.16 11.63,43.38 15.73,37.78 18.7,41.83 36.91,72.81 7.01,11.92 17.06,27.35 28.65,28.1 9.69,-13.65 6.64,-26.37 0.63,-41.12 -7.09,-17.38 -7.65,-27.45 -13.36,-45.13 -9.41,-29.2 -17.87,-59.46 -23.25,-90.24 -9.2,-52.62 -27.03,-126.22 -70.37,-154.48l-11.87 9.71zm43.88 473.37c4.7,-20.52 -10.82,-30.79 -20.77,-42.14 -0.66,-0.75 -2.41,-3.05 -3.08,-3.8l-18.59 -19.08c-5.44,-5.68 -12.6,-11.36 -19.8,-17.92 -24.09,-22.01 -52.55,-55.35 -71.64,-82.84 -24.85,-35.79 -15.65,-28.36 -27.3,-48.18l-24.64 -50.84c-5.2,-13.48 -16.02,-26.26 -22.79,-52.61 -6.58,-25.6 -1.67,-43.03 -33.39,-46.75 -27.2,67.49 8.06,115.76 22.32,153.96 6.1,16.32 17.44,30.72 28.69,50.19l13.62 17.27c1.69,2.32 2.2,3.61 4.06,6.24 20.28,28.73 45.19,44.5 67.47,66.19l75.66 65.07c8.11,5.91 20.58,10.22 30.18,5.24zm-102.17 -356.77c0,40.06 9.48,99.02 25.83,130.49 5.91,11.39 4.22,15.34 11.25,26.29l33.74 44.94c25.75,28.17 21.06,29.02 55.41,61.15l100.45 115.94c6.47,11.26 3.93,-1.71 6.63,17.24 -48.28,-14.4 -145.62,-7.99 -191.37,17.74 -12.47,7 -26.2,9.91 -38.48,16.18l-70.92 38.97c-16.46,8.43 -25.57,13.83 -18.69,33.81 26.53,7.97 64.78,-33.82 97.18,-42.57 11.41,-3.07 17.47,-3.89 26.94,-8.09 37.69,-16.73 122.37,-22.8 161.3,-13.81 31.42,7.26 29.55,8.88 54.39,20.66 9.08,4.31 64.25,61.35 102.43,19.03 12.26,-13.6 19.2,-25.62 33.94,-37.83 44.92,-37.26 104.47,-63.68 163.3,-30.95 37.39,20.81 52.52,39.14 53.43,91.61 0.63,36.15 -8.27,56.28 -24.09,84.43 -2.97,5.3 -7.54,11.13 -7.7,19.09 -0.5,25.14 25.38,3.53 34.01,-7.57 15.09,-19.38 30.02,-46.91 32.14,-71.77 4.54,-53.19 3.03,-87.44 -31.94,-127.22 -45.6,-51.88 -161.07,-65.45 -228.54,-1.45 -35.58,33.74 -50.67,83.74 -88.61,43.9 -12.22,-12.84 -10.54,-17.53 -33.9,-21.01 -2.82,-38.25 -0.48,-51.1 -27.83,-85.49 -28.15,-35.39 -56.43,-77.55 -89.22,-113.05l-51.22 -69.18c-6.07,-9.19 -9.41,-16.68 -14.9,-26.28 -37.97,-66.4 -25.4,-114.36 -37.69,-206.9 -7.35,-55.31 -6.66,-38.58 -31.64,-87.63 -12.63,-24.82 -55.14,-51.81 -69.43,-52.65 -33.84,-1.99 -13.57,15.67 2.87,34.05 10.33,11.55 26.14,36.1 32.39,50.4l23.06 59.31c7.82,19.91 5.48,52.7 5.48,78.22zm291.54 548.88c7.94,7.72 7.21,7.01 20.83,10.32 24.48,5.93 10.35,4.17 26.26,11.98 13.64,6.69 13.08,-0.45 26.67,8.49l24.14 13.01c0.73,0.39 1.55,0.94 2.25,1.35l106.38 58.1c30.72,17.49 18.6,7.71 35.61,16.33 14.72,7.46 32.63,20.17 48.49,23.96l52.11 20.1c23.49,16.43 62.68,-4.52 43.05,-37.24 -5.03,-8.38 -8.45,-14.32 -8.93,-28.87 10.29,3.94 13.36,7.2 22.69,19.49 4.05,5.33 1.57,2.94 5.67,7.9 4.01,4.85 2.03,2.03 6.58,6.93 0.48,0.52 1.18,1.27 1.67,1.8l38.6 51.53c13.97,25.29 1.02,21.83 0.83,22.02 -8.19,8.35 -34.29,4.35 -46.49,4.35 -32.03,0 -23.44,-12.62 -65.08,-14.32 -24.8,-1.02 -78.84,-14.83 -102.08,-23.48l-93.45 -30.02c-11.05,-4.07 -22.1,-4.69 -34.33,-7.1 -17.06,-3.35 -14.05,-6.66 -30.36,-10.61 -10.54,-2.55 -23.93,-2.29 -36.64,-4.8 -44.03,-8.7 -19.1,-14.76 -108.03,-15.45 -21.61,-0.16 -54.91,-2.14 -68.73,14.64 19.84,11.81 84.75,2.15 67.41,25.32 -4.4,5.89 -9.31,5.97 -16.44,7.42 -48.9,9.96 -37.05,21.19 -116.03,20.97l-367.08 0c-81.51,0 -160.41,-10.03 -238.28,-1.12 4.92,13.99 12.32,11.41 27.03,14.66 10.62,2.35 20.04,5.69 30.33,7.33 107.81,17.12 485.48,11.01 575.43,11.01 43.85,0 67.86,-4.08 102.1,-17.92 69.81,-28.2 63.58,-45.34 138.55,-27 4.68,1.14 45.32,12.52 47.98,13.75 11.72,5.44 3.87,7.11 18.26,10.78 9.27,2.37 18.69,1.46 27.43,3.97 11.03,3.16 12.93,6.83 20.94,10.09 7.61,3.1 15.37,2.7 24.92,5.61 11.99,3.66 9.42,6.22 20.97,9.81 10.34,3.22 16.68,2.19 25.96,5.35 15.47,5.26 31.41,8.93 47.28,14.25 15.4,5.16 25.54,12.19 47.04,13.36 35.9,1.96 87.48,25.46 128.69,3.53l7.28 -3.39c20.26,-9.37 25.5,-28.59 14.62,-49.4l-4.97 -9.03c-7.66,-15.61 -1.82,-6.62 -11.49,-18.74l-44.46 -51.57c-7.66,-8.62 -5.79,-7.78 -14.41,-16.29l-66.19 -57.07c-7.55,-4.57 -11.1,-7.77 -20.4,-2.54 5.36,12.15 5.31,6.56 6.34,23.8l-13.56 7.45c8,7.81 6.87,7.79 9.25,21.74l-2.57 29.27 -24.66 -2c-20.2,-4.47 -19.51,-10.08 -35.95,-15.78l-68.71 -38.5c-16.4,-12 -35.7,-15.49 -51.9,-27.24 -23.62,-17.15 -35.57,-15.99 -52.79,-25.93l-42.14 -22.35c-11.99,-4.41 -17.6,-1.08 -29.36,-5.43 -14.24,-5.27 -29.23,-16.57 -34.13,11.42zm-142.48 -1083.52c16.91,0 39.42,1.02 55.64,5.72 25.87,7.5 50.51,35.64 65.21,58.24 10.2,15.68 10.57,32.75 10.57,55.59 0,35.54 -27,91.76 -46.16,119.5 -12.64,18.31 -53.16,50.83 -76.28,64.52 -7.14,4.23 -13.71,5.81 -21.12,9.68 -31.98,16.73 -43.31,26.38 -85.75,23.89l-38.54 -73.15c-26.37,9.39 -16.22,63.12 -6.27,77.17 10.14,14.34 8.95,35.75 54.5,44.97 31.77,6.43 27.18,-0.19 51.75,-8.27 78.81,-25.91 48.57,-25.96 85.64,-47.96 21.54,-12.78 53.06,-45.79 68.53,-65.27 54.07,-68.14 39.14,-69.4 56.37,-108.15 11.98,-26.94 10.32,-69.82 3.85,-91.43 -4.69,-15.62 -22.54,-40.57 -31.57,-50.74 -0.6,-0.67 -7.97,-8.33 -8.38,-8.72 -30.24,-29.19 -77.96,-49.61 -120.83,-49.61 -30.89,0 -74.14,8.74 -99.02,26.83 -77.2,56.09 -74.85,104.05 -98.61,203.34 -23.88,99.76 -98.7,53.04 -183.82,118.01 -28.69,21.9 -48.78,78.04 -61.28,110.08l-31.87 98.26c-5.19,21.61 -12.03,46.49 -19.11,66.72 -13.66,38.98 -39.99,120.24 -66.93,149.45 -8.12,8.81 -16.27,12.17 -19.59,25.9 -4.59,18.99 0.95,50.94 37.79,12.9 9.67,-9.99 13.15,-8.11 22.54,-18.58 4.43,-4.94 15.79,-19.42 19.24,-25.36 32.36,-55.78 48.85,-121.25 70.82,-186.37 3.62,-10.73 4.3,-22.11 6.43,-33.99l20.86 -65.71c10.53,-24.38 -0.13,-31.62 26.7,-62.48 7.55,-8.7 15.27,-20.2 20.05,-24.64 28.24,-26.18 95.02,-44.57 117.22,-54.26 43.19,-18.85 64.46,-48.31 76.34,-95.03 18.61,-73.19 46.55,-201.05 145.08,-201.05zm-873.93 239.61c0,32.88 -1.05,86.59 3.87,115.85l16.79 65.06c23.69,56.66 38.27,77.35 70.85,128.19 41.25,64.4 120.46,104.47 199.24,104.47 19.56,0 30.31,-6.51 44.69,-12.09 15.32,-5.94 5.13,2.48 20.97,-20.16 3.98,-5.69 3.69,-1.66 5.49,-10.71 -7.65,-6.75 -19.14,-10.87 -34.34,-7.76 -32.59,6.65 9.67,11.71 -60.82,11.71 -15.66,0 -66.51,-20.53 -85.07,-35.64 -3.39,-2.76 -4.56,-3.64 -9.62,-7.43 -14.87,-11.15 -38.44,-39.03 -51.51,-54.92 -31.12,-37.84 -41.46,-76.23 -55.8,-112.31 -15.18,-38.18 -5.86,-15.39 -12.9,-56.21 -12.36,-71.73 -9.77,-39.19 -9.77,-114.91 0,-17.11 8.65,-30.57 13.04,-78.14 2.15,-23.31 5.55,-15.81 11.19,-33.02 4.67,-14.24 2.69,-24.14 9.75,-38.46 12.38,-25.13 -1.05,-11.55 18.32,-46.69 9.03,-16.38 -2.57,-5.9 13.62,-31.01 7.62,-11.83 2.7,-14.56 24.95,-47.2 14.64,11.21 9.27,2.65 15.94,21.79 4.39,12.61 6.2,12.88 14.55,23.33 41.43,51.8 41.32,37.99 59.61,57 24.48,25.4 87.35,50.11 97.27,57.07 22.75,15.97 27.08,11.65 54.25,31.51l26.14 21.76c4.03,3.17 6.61,5.54 11.01,9.71l27.02 31.34c4.19,5.09 4.63,6.43 8.7,11.82 8.05,10.66 3.37,0.64 8.64,12.48 7.11,16 -2,15.7 23.69,34.09 6.87,4.92 12.76,11.16 27.6,4.51 28.24,-12.64 -0.87,-98.07 -11.64,-120.03 -5.7,-11.62 -13.88,-19.28 -21.23,-26.7 -26.21,-26.48 -71.16,-71.68 -79.64,-105.43 -2.9,-11.55 -1.8,-19.84 -6.3,-31.67 -6.18,-16.22 -7.39,-10.28 -8.81,-32.29 -1.66,-26.04 9.22,-57.51 -13.52,-65.62 -13.97,9.19 -22.86,27.29 -29.33,39.5l-36.94 59.06c-6.34,10.23 -2.01,8.91 -7.45,19.69 -3.17,6.27 -6.6,8.11 -10.68,16.09 -13.7,-2.69 -29.56,-12.89 -38.51,-21.56 -36.44,-35.34 -35.86,-33.52 -59.18,-78.08 -24.99,-47.74 -0.8,-20.35 -21.96,-56.97 -8.67,-14.99 -3.07,-15.04 -15.5,-24.95 -12.57,7.17 -6.04,3.78 -14.03,16.2 -5.83,9.05 -6.95,9.14 -12.56,21.83 -5.75,13.03 -6.84,9.98 -12.56,21.73 -16.17,33.26 -17.9,29.79 -34.68,68.48 -5.66,13.06 -16.38,32.33 -23.06,45.28 -5.19,10.09 -2.72,13.98 -6.39,24.04 -4.17,11.43 -7.58,7.27 -10.93,23.89 -9.41,46.71 -11.78,17.68 -15.63,52.53 -5.5,49.88 -16.83,32.42 -16.83,119.95zm312.43 -186.02c17.3,14.73 27.47,16.31 51.56,33.83l32.68 22.41c4.24,3.39 2.65,1.71 6.11,4.24 12.02,8.79 4.02,-1.03 11.17,12.79 -2.67,-18.72 0.59,-7.42 -7.77,-16.46 -0.66,-0.73 -2.8,-2.59 -3.48,-3.31 -0.48,-0.52 -1.18,-1.26 -1.65,-1.79l-28.36 -40.35c-28.38,-41.25 -20.03,-55.71 -33.92,-72.3 -11.94,16.1 -17.86,40.93 -26.34,60.94z"/>
 </g>
</svg>
