<?xml version="1.0" encoding="UTF-8"?>
<!DOCTYPE svg PUBLIC "-//W3C//DTD SVG 1.1//EN" "http://www.w3.org/Graphics/SVG/1.1/DTD/svg11.dtd">
<!-- Creator: CorelDRAW 2017 -->
<svg xmlns="http://www.w3.org/2000/svg" xml:space="preserve" width="30.4798mm" height="22.9446mm" version="1.1" style="shape-rendering:geometricPrecision; text-rendering:geometricPrecision; image-rendering:optimizeQuality; fill-rule:evenodd; clip-rule:evenodd"
viewBox="0 0 3047.98 2294.46"
 xmlns:xlink="http://www.w3.org/1999/xlink">
 <defs>
  <style type="text/css">
   <![CDATA[
    .fil0 {fill:black}
   ]]>
  </style>
 </defs>
 <g id="Capa_x0020_1">
  <metadata id="CorelCorpID_0Corel-Layer"/>
  <g id="_2093275342992">
   <path class="fil0" d="M165.79 1748.92c0,30.36 10.76,68.94 21.7,91.48 11.97,24.65 27.45,50.31 45.16,68.02 92.02,92.02 263.15,66.86 391.84,66.86 230.33,0 460.67,0 691.01,0 79.82,0 412.89,-12.59 457.12,7.52 85.07,38.67 413.69,256.93 513.79,284.45 209.9,57.73 291.79,16.86 474.39,-44.02 60.19,-20.07 212.91,-61.75 248.29,-97.22 24.41,-24.47 37.11,-54.73 39.89,-85.32l0 -26.04c-4.39,-49.19 -33.51,-95.15 -79.71,-114.54 -81.79,-34.31 -165,14.8 -276.95,52.1 -129.11,43.03 -218.34,94.97 -345.62,40.3 -17.2,-7.38 -27.41,-14.9 -46.26,-25.23 -41.58,-22.79 -204.94,-123.54 -228.4,-129.01 15.28,-65.6 31.36,-93.12 -2.33,-176.39 -31.3,-77.38 -114.81,-133.37 -206.17,-133.37l-1471.38 0c-130.07,0 -226.37,108.58 -226.37,220.41z"/>
   <path class="fil0" d="M1011.69 1492.77l446.78 0c0,-40.98 4.61,-80.56 11.29,-113.8 4.87,-24.25 16.57,-90.19 24.44,-106.61 43.99,29.45 87.84,91.13 120.62,123.62 101.84,100.92 56.44,91.13 153.4,90.84 53.36,-0.16 118.52,-5.54 154.89,11.91 38.35,-79.93 -25.11,-126.54 -58.16,-162.26l-269.47 -290.48c10.45,-39.15 147.81,-133.95 75.68,-296.09 -28.37,-63.76 -109.93,-126.86 -176.96,-126.86 -148.8,0 -184.54,56.64 -271.55,175.23 -69.77,95.09 -145.34,290.76 -171.64,406.18 -18.23,79.97 -39.32,196.39 -39.32,288.32z"/>
   <path class="fil0" d="M1535.91 343.07c0,105.32 46.09,191.95 99.66,245.84 131.02,131.8 350.55,142.45 482.68,8.87 85.83,-86.77 108.67,-145.54 108.67,-272.58 0,-98.53 -48.14,-169.62 -108.67,-230.89 -28.48,-28.84 -61.66,-49.93 -99.82,-66.97 -16.47,-7.35 -41.11,-16.03 -62.88,-20.51 -221.05,-45.57 -419.64,125.74 -419.64,336.24z"/>
   <path class="fil0" d="M2113.73 1510.64c0,106.96 22.61,186.53 99.73,263.65 168.88,168.88 457.67,119.39 559.66,-98.69 124.32,-265.82 -133.51,-591.08 -451.86,-463.77 -45.95,18.37 -66.4,39.12 -100.43,66.36 -54.75,43.8 -107.1,149.56 -107.1,232.45z"/>
   <path class="fil0" d="M-1 2040.81c0,85.52 52.92,113.87 148.84,113.26l1793.14 -0.08c-7.61,-21.02 -130.27,-82.22 -150.11,-94.12 -96.81,-58.06 -66.21,-42.89 -201.35,-42.89l-1227.29 0.15c-123.39,0.8 -141.17,-65.67 -184.52,-65.67l-71.48 0c-49.07,0 -107.23,42.75 -107.23,89.35z"/>
  </g>
 </g>
</svg>
