<?xml version="1.0" encoding="UTF-8"?>
<!DOCTYPE svg PUBLIC "-//W3C//DTD SVG 1.1//EN" "http://www.w3.org/Graphics/SVG/1.1/DTD/svg11.dtd">
<!-- Creator: CorelDRAW 2017 -->
<svg xmlns="http://www.w3.org/2000/svg" xml:space="preserve" width="30.4798mm" height="22.9446mm" version="1.1" style="shape-rendering:geometricPrecision; text-rendering:geometricPrecision; image-rendering:optimizeQuality; fill-rule:evenodd; clip-rule:evenodd"
viewBox="0 0 3047.98 2294.46"
 xmlns:xlink="http://www.w3.org/1999/xlink">
 <defs>
  <style type="text/css">
   <![CDATA[
    .fil2 {fill:none}
    .fil3 {fill:black}
    .fil1 {fill:#7C5100}
    .fil0 {fill:#B3B1AF}
   ]]>
  </style>
 </defs>
 <g id="Capa_x0020_1">
  <metadata id="CorelCorpID_0Corel-Layer"/>
  <g id="_2210907503264">
   <polygon class="fil0" points="1191.93,388.77 1188.65,388.77 1191.38,392.6 "/>
   <path class="fil1" d="M1392.21 575.85c10.9,-0.9 30.2,-7.42 41.43,-11.1 13.52,-4.43 31.04,-8.87 43.94,-11.87 0,32.67 -8.79,33.54 -35.82,39.72 -11.83,2.7 -19.8,6.88 -30.45,3.84 -12.53,-3.58 -16.23,-8.29 -19.1,-20.59zm55.82 -420.1c8.73,5.84 18.96,11.63 27.07,18.89l24.8 24.44c8.07,8.89 14.88,16.98 21.49,27.76 18.32,29.85 55.33,122.5 63.65,153.24l2.61 32.63c1.89,78.42 -17.67,115.9 -18.13,136.88 -43.74,-0.97 -31.79,-55.67 -110.7,-48.68 -5.64,0.5 -10.94,0.8 -17.02,3.05 -8.96,3.32 -13.85,9.44 -18.38,10.84 -9.04,2.78 -27.16,-7.04 -64.12,21.59l-8.94 7.47c-21.35,20.38 -13.06,59.57 -33.66,74.66 -11.59,-3.1 -16,-10.88 -23.85,-18.83l-15.86 -16.97c-3.34,-3.6 -3.05,-3.21 -6.2,-6.93 -21.68,-25.66 -37.07,-48.19 -53.62,-77.69l-29.58 -59.07c-11.12,-25.92 -5.52,-69.52 -5.52,-99.49 0,-28.21 -18.44,-7.29 62.4,-39.38 14.85,-5.89 23.8,-10.63 38.28,-17.52 24.85,-11.85 51.31,-25.69 72.89,-42.02 11.81,-8.94 22.41,-16.56 33.32,-25.77l59.07 -59.1zm163.34 456.2c1.4,-15.2 12.75,-35.71 18.03,-49.23 1.93,-7.44 2.5,-29.05 2.5,-49.23 1.37,-4.16 34.42,-15.66 29.18,-104.68 -0.92,-15.53 -8.64,-59.4 -21.01,-74.16 -6.97,-8.33 -13.71,-8.24 -27.87,-8.24 -2.51,-30.17 -35.3,-113.22 -53.55,-143.38l-18.96 -30.29c-13.12,-19.77 -11.45,-19.81 -42.76,-49.15 -36.62,-34.31 -96.59,-52.96 -149.41,-45.04 -32.9,4.94 -50.41,12.16 -78.78,19.72 -3.04,0.81 -9.39,2.55 -12.66,3.76 -44.71,16.52 -80.64,40.33 -107.84,79.28 -56.63,81.1 -22.27,203.73 0.2,287.91 6.51,24.4 3.04,-0.79 -4.08,19.72 -12.72,36.61 31.88,112.6 59.87,137.28 7.09,6.24 15.17,9.68 20.82,15.29 10.38,10.32 20.57,33.73 34.43,47.64l29.65 22.87c32.86,21.49 92.66,67.44 132.58,67.95 18.56,0.24 64.47,-10.94 83.64,-18.52 7.62,-3.01 14.43,-6.6 22.96,-9.87 12.55,-4.83 12.11,-3.27 20.44,-12.38 29.44,-32.18 49.53,-88.18 62.62,-107.25z"/>
   <line class="fil2" x1="1191.93" y1="388.77" x2="1191.93" y2= "388.77" />
   <path class="fil3" d="M1645.04 766.21c88.68,0 121.48,111.88 121.48,183.8 0,35.24 1.67,47.66 -3.66,81.67 -5.04,32.17 5.07,26.63 -65.29,26.63 -37.65,0 -82.53,-6.27 -114.29,-13.75 -16.79,-3.96 -33.35,-7.92 -49.89,-12.49 -17.08,-4.73 -32.64,-13.14 -52.53,-13.14 7.32,-87.83 59.22,-252.72 164.18,-252.72zm-213.42 292.1c-35.61,8.29 -73.51,9.64 -109.16,0.8 -15.31,-3.79 -24.68,-10.68 -38.6,-13.92 2.68,-11.49 3.87,-25.29 6.16,-36.51 9.33,-45.76 41.74,-111.32 73.4,-143.25 15.19,-15.33 60.43,-45.42 34.59,-68.91 -32.23,-29.3 -81.68,46.17 -101.98,73.76 -23.65,32.13 -39.81,72.23 -52,115.4 -30.93,109.62 14.51,171.78 -8.93,210.97 -8.89,14.87 -98.46,99.91 -179.71,237.19 -5.62,9.51 -8.48,16.37 -13.9,25.48 -3.58,6.03 -4,7.04 -6.8,12.89l-14.23 28.45c-3.33,6.37 -3.32,6.14 -6.33,13.36 -14.22,34.08 -55.33,122.28 -55.33,154.76 0,16.67 37.06,37.91 51.42,-4.4 30.36,-89.44 61.59,-168.43 114.07,-247.01 28.78,-43.08 98.61,-133.03 135.75,-169.53 47.51,-46.71 39.89,-77.91 23.82,-146.86 14.95,0.33 20.23,4.49 34.77,7.91 37.89,8.93 85.54,7.34 122.83,-1.34l22.99 49.23c-44.54,29.81 -141.44,129.13 -172.6,168.8 -8.11,10.33 -13.79,17.53 -21.89,27.36 -33.12,40.24 -143.7,208.03 -143.7,250.19 0,19.02 27.53,48.25 49.31,3.35 72.59,-149.64 119.56,-219.74 238.81,-338.93 9.08,-9.08 16.88,-17.95 26.29,-26.24 15.25,-13.43 82.88,-63.22 82.88,-74.69 0,-37.63 -21.17,-16.93 -39.4,-95.18 16.95,0.38 38.59,10.53 57.11,15.12 20.52,5.09 37.37,9.43 59.17,13.06 46.14,7.67 83.72,7.93 136.54,7.93 -10.99,41.14 -81.79,97.28 -99.98,142.93 -28.98,72.67 -20.37,124.19 -117.51,214.03 -7.22,6.68 -10.55,8.05 -18.07,14.75l-69.95 51.52 -134.57 75.53c-14.95,7.68 -16.31,6.9 -16.31,23.08 0,15.55 13.34,26.26 26.26,26.26 7.28,0 44.42,-21.51 52.71,-26.09 17.57,-9.74 32.98,-17.19 50.97,-27.82l96.61 -60.96c88.27,131.76 11.35,210.05 65.67,210.05 36.63,0 29.55,-45.86 29.55,-78.77 0,-49.56 -16.37,-88.24 -36.09,-128.02l-19.73 -36.09c12.58,-18.77 33.06,-32.17 48.3,-50.18 7.62,-9 14.24,-18.7 21.17,-28.07 7.77,-10.53 13.97,-19.66 20.33,-32.19 12.01,-23.63 21.07,-46.43 28.41,-73.35 6.54,-24.04 18.02,-53.7 29.28,-72.47 41.41,-69.02 125.04,-103.6 125.04,-291.84 0,-60.67 -16.13,-118.62 -38.32,-158.62 -89.15,-160.62 -285.4,-82.21 -336.72,131.64 -10.58,44.06 -12.4,68.69 -12.4,125.44z"/>
   <path class="fil3" d="M912.84 1872.26c0,176.09 304.63,262.57 462.95,262.57 24.08,0 22.99,-17.02 22.99,-32.83 0,-12.63 -10.09,-15.27 -22.74,-16.65 -14.14,-1.53 -23.15,-2.85 -39.7,-2.98 -73.7,-0.58 -195.92,-37.08 -256.24,-72.07 -79.91,-46.34 -162.89,-109.97 -89.97,-201.9 10.75,-13.54 33.88,-30.17 49.66,-38.98 54.71,-30.56 119.18,-35 184.97,-35 70.53,0 135.82,21.65 190.06,39.76 56.41,18.85 108.44,43.77 163.14,66.67 58.03,24.29 103.5,45.33 164.3,65.51 53,17.59 126.83,34.83 195,34.83 109.01,0 176.67,-38.31 248.45,-76.58l79.84 -41.63c10.45,-5.19 18.47,-7.38 30.56,-12.12 159.95,-62.68 382.06,-15.78 500.64,101.54 11.82,11.7 23.8,25.9 36.02,36.37 19.95,17.1 98.21,-2 -34.31,-100.43 -147.75,-109.74 -329.58,-149.41 -513.62,-88.13 -40.07,13.34 -68.54,27.27 -103.24,47.78l-64.34 37.44c-10.55,6.28 -21.43,10.29 -33.33,15.91 -123.55,58.33 -289.47,18.16 -411.24,-33.13 -168.16,-70.82 -376.81,-185.81 -572.06,-132.54 -82.42,22.49 -187.79,72.2 -187.79,176.59z"/>
   <path class="fil3" d="M174.07 1964.16c0,87.91 33.79,147.56 103.59,175.43 152.77,61 322.91,58.34 475.69,-0.08 34.32,-13.12 58.91,-23.55 87.77,-46.83 64.51,-52.05 54.51,-131.08 7.93,-192.76 -10.47,-13.87 -54.41,-67.04 -70.83,-67.04 -14.4,0 -26.27,10.71 -26.27,29.54 0,12.71 46.73,44.22 71.22,92.91 50.35,100.08 -66.14,136.31 -144.12,155.86 -94.19,23.62 -99.78,23.64 -193.06,23.64 -59.69,0 -198.46,-24.82 -239.8,-81.93 -34.32,-47.41 -23.42,-132.46 -1.84,-182.59 3.93,-9.14 5.78,-9.95 10.67,-18.87 4.49,-8.2 6.34,-12.08 10.96,-18.59 43.83,-61.94 111.9,-105 203.6,-105 97.47,0 211.2,65.64 298.78,65.64l36.13 0c31.97,0 105.07,-18.79 105.07,-45.94 0,-9.99 -9.69,-26.26 -26.27,-26.26 -28.63,0 -57.88,50.66 -205.51,8.5 -33.97,-9.71 -61.14,-19.87 -95.18,-29.58 -92.09,-26.29 -159.7,-36.01 -249.84,9.03 -89.53,44.74 -158.69,140.58 -158.69,254.92z"/>
   <path class="fil3" d="M1611.37 611.95c57.81,12.02 172.43,63.44 218.34,104.23 102.45,91.03 102.11,202.62 114.61,318.67 3.13,29.1 7.63,69.71 9.26,99.05 12.75,230.01 84.71,360.37 275.23,479.75 6.22,3.9 10.96,5.89 16.92,9.35 7.07,4.12 37.72,28.21 50.8,-5.74 10.13,-26.3 -20.79,-34.18 -49.25,-51.61 -64.66,-39.61 -127.08,-92.47 -168.21,-156.78 -32.71,-51.17 -44.03,-90.14 -59.76,-156.88 -10.49,-44.5 -12.67,-95.52 -18.76,-142.07 -1.87,-14.33 -3.91,-39.39 -4.22,-51.57 -0.88,-34.53 -6.64,-64.53 -9.52,-95.52 -4.68,-50.32 -22.22,-132.02 -42.93,-173.7 -26.07,-52.48 -48.49,-85.87 -95.21,-121.45 -61.4,-46.77 -109.95,-62.96 -179.26,-89.94 -13.27,-5.16 -30.19,-8.97 -40.01,-15.02 -5.28,13.52 -16.63,34.03 -18.03,49.23z"/>
   <path class="fil3" d="M1283.86 1898.52c0,41.96 27.56,29.54 39.4,29.54 28.08,0 257.51,117.2 292.08,137.99 18.55,11.16 72.38,46.65 72.38,72.06 0,48.49 -94.72,45.95 -147.75,45.95l-223.27 3.28c-57.6,0 -103.5,-3.28 -160.89,-3.28 -5.64,8.42 -14.08,14.25 -12.02,28.44 4.05,28.07 35.12,19.48 62.17,23.18 33.65,4.59 351.26,0.37 406.27,-2.36 128.75,-6.41 185.2,-117.48 52.37,-196.82 -17.77,-10.61 -35,-21.09 -54.57,-30.78 -51.26,-25.37 -155.68,-84.89 -200.98,-101.06 -37.2,-13.27 -125.19,-61.51 -125.19,-6.14z"/>
  </g>
 </g>
</svg>
