<?xml version="1.0" encoding="UTF-8"?>
<!DOCTYPE svg PUBLIC "-//W3C//DTD SVG 1.1//EN" "http://www.w3.org/Graphics/SVG/1.1/DTD/svg11.dtd">
<!-- Creator: CorelDRAW 2017 -->
<svg xmlns="http://www.w3.org/2000/svg" xml:space="preserve" width="30.4798mm" height="22.9446mm" version="1.1" style="shape-rendering:geometricPrecision; text-rendering:geometricPrecision; image-rendering:optimizeQuality; fill-rule:evenodd; clip-rule:evenodd"
viewBox="0 0 3047.98 2294.46"
 xmlns:xlink="http://www.w3.org/1999/xlink">
 <defs>
  <style type="text/css">
   <![CDATA[
    .fil0 {fill:#373435}
   ]]>
  </style>
 </defs>
 <g id="Capa_x0020_1">
  <metadata id="CorelCorpID_0Corel-Layer"/>
  <g id="_2210928526304">
   <path class="fil0" d="M618.93 1354.79c39.93,0.69 100.12,-72.17 120.64,-104.4 29.99,-47.11 48.16,-101.35 67.14,-160.92 37.25,-116.89 66.97,-234.98 103.6,-352.83 33.88,-109 148.46,-149.19 266.19,-189.94 123.94,-42.9 111.1,-175.8 158.74,-301.25 19.08,-50.23 56.62,-117.28 85.73,-142.46 123.41,-106.8 410.93,-34.73 346.27,226.55 -31.39,126.86 -107.21,203.24 -199,257.49 -26.93,15.92 -127.2,69.86 -164.65,63.45 -27.51,-4.71 -64.55,-59.19 -77.88,-96.45l-16.58 -42.5c-15.65,35.09 5.96,151.6 63.43,176.51 84.41,36.58 232.29,-56.6 296.61,-123.21 50.81,-52.62 93.53,-91.71 129.34,-178.35 148.94,-360.33 -294.39,-471.21 -449.61,-268.56 -35.35,46.14 -53.85,108.7 -68.03,177.93 -16.65,81.28 -15.04,129.37 -65.92,180.45 -39.44,39.59 -119.86,46.06 -180.98,65.34 -71.73,22.61 -99.62,57.06 -131.15,115.03 -82.76,152.13 -119.81,386.2 -192.86,545.97 -22.59,49.41 -38.29,75.27 -72.55,112.18 -8.37,9.03 -20.89,22.88 -18.48,39.97z"/>
   <path class="fil0" d="M2500.55 2223.98c-226.63,-0.12 -651.13,-218.08 -899.09,-176.28 -14.72,2.48 -33.14,5.29 -43.04,14.85 33,15.06 152.45,14.24 181.51,32.21 -199.15,38.57 -87.65,64.67 -362,62.49 -265.07,-2.12 -521.86,2.9 -789.45,-3.17 -45.63,-1.03 -104.53,-6.26 -146.87,-2.18 38.4,46.77 541.31,47.7 719.04,46.14l275.22 0.06c161.13,3.19 164.67,0.33 302.29,-65.16 50.04,-23.81 67.64,-29.77 127.71,-15.18 43.26,10.51 85.83,21.46 129.93,32.92 170.72,44.38 330.31,126.37 519.23,126.38 170.94,-1.62 57.46,-134.5 14.58,-182.1l-87.32 -86.38c-31.84,-26.1 -59.92,-57.06 -96.7,-80.33l127.57 147.12c19.24,23.69 41.58,51.61 58.62,79.07 24.07,38.8 31.49,69.58 -31.23,69.54z"/>
   <path class="fil0" d="M583.43 1750.04c1.43,14.53 3.22,16.26 16.03,26.31 25.65,20.11 50.93,33.52 83.02,47.45 142.33,61.73 289.18,59.85 424.51,-3.2 76.93,-35.84 138.56,-89.04 225.32,-118.87 83.98,-28.86 206.14,-46.58 304.81,-28.58 108.93,19.87 171.94,135.76 237.01,74.42 15.83,-14.92 23.06,-30.01 37.76,-45.52 15.96,-16.85 24.93,-26.41 43.61,-43.3 70.18,-63.48 174.2,-74.93 261.34,-36.93 119.25,52 113.93,200.43 58.04,298.3 -9.09,15.91 -26.61,40.71 -31.35,56.37 69.3,-15.76 126.87,-149.47 109.76,-249.26 -33.11,-193.01 -308.61,-244.42 -446.67,-81.13 -23.26,27.51 -51.55,94.64 -96.05,74.43 -14.65,-6.66 -40.08,-31.16 -50.57,-40.04 -147.53,-124.88 -324.66,-69.25 -479.39,9.53 -139.63,71.09 -190.94,143.2 -406.17,135.56 -217.53,-7.73 -246.79,-76.35 -291.01,-75.54z"/>
   <path class="fil0" d="M1722.1 1623.95c-13.85,-108.26 -246.58,-325.42 -320.2,-472.57 -57.56,-115.03 -25.82,-219.96 -53.83,-341.21 -21.33,-92.33 -74.16,-206.91 -183.66,-214.04 46.39,39.68 54.12,41.64 89.1,106.21 18.55,34.25 46.88,101.4 53.35,145.54 23.25,158.78 -23.26,286.92 137.9,456.15l70.44 78.08c62.42,68.44 101.76,111.24 161.32,186.31 14.05,17.71 30.38,42.14 45.58,55.53z"/>
   <path class="fil0" d="M1467.91 1547.58c-12.42,-46.62 -169.34,-174.03 -230.23,-260.98 -49.23,-70.3 -92.4,-163.16 -121.65,-247.9 -10.04,-29.1 -17.92,-65.58 -29.43,-93.8 -75.84,101.42 62.78,308.14 106.96,364.09 59.08,74.81 125.17,126.55 199.67,184.23 15.06,11.65 56.94,46.06 74.68,54.36z"/>
   <path class="fil0" d="M1595.35 1292.14c-2.98,-19.95 -13.99,-50.39 -20.22,-71.51 -7.22,-24.52 -14.03,-48.74 -20.7,-73.29 -19.16,-70.51 -57.52,-245.88 -76.24,-293.16 -17.49,-44.15 -44.97,-89.35 -78.4,-105.64 17.89,46.34 41.3,73.64 51.03,133.57 18.44,113.52 8.21,179.48 70.11,298.75 17.26,33.27 51.91,95.95 74.42,111.28z"/>
   <path class="fil0" d="M2343.75 1988.28c6.46,23.66 28.97,58.99 28.03,81.48 -0.59,14.34 1.35,6.38 -4.48,15.27 -75.93,44.64 -444.94,-253.95 -594.18,-238.95 19.07,12.56 71.85,31.18 97.13,42.86 121.04,55.92 163.43,81.17 279.5,147.75 21.07,12.08 327.09,177.96 256.26,37.07 -11.12,-22.11 -43.71,-74.29 -62.26,-85.48z"/>
   <path class="fil0" d="M1146.72 1687.39c-19.55,-249.61 22.47,-260.25 27.47,-333.12 -7.49,10.73 -14.56,16.13 -22.48,29.34 -7.21,12.03 -12.85,22.25 -19.03,35.49 -11.73,25.15 -19.91,54.58 -23.13,85.77 -5.89,57.14 4.35,111.07 25.41,163.37l11.76 19.15z"/>
  </g>
 </g>
</svg>
