<?xml version="1.0" encoding="UTF-8"?>
<!DOCTYPE svg PUBLIC "-//W3C//DTD SVG 1.1//EN" "http://www.w3.org/Graphics/SVG/1.1/DTD/svg11.dtd">
<!-- Creator: CorelDRAW 2017 -->
<svg xmlns="http://www.w3.org/2000/svg" xml:space="preserve" width="30.4798mm" height="22.9446mm" version="1.1" style="shape-rendering:geometricPrecision; text-rendering:geometricPrecision; image-rendering:optimizeQuality; fill-rule:evenodd; clip-rule:evenodd"
viewBox="0 0 3047.98 2294.46"
 xmlns:xlink="http://www.w3.org/1999/xlink">
 <defs>
  <style type="text/css">
   <![CDATA[
    .fil0 {fill:#1C1B1C}
    .fil2 {fill:#373435}
    .fil1 {fill:#FEFEF4}
    .fil3 {fill:#FEFEFE}
   ]]>
  </style>
 </defs>
 <g id="Capa_x0020_1">
  <metadata id="CorelCorpID_0Corel-Layer"/>
  <g id="_2210935445184">
   <path class="fil0" d="M1635.45 1686.03c-1.86,1.91 -4.7,2.3 -5.56,5.73 -0.86,3.41 -4.42,4.57 -5.64,5.6l-12.09 10.34c-101.31,72.65 -184.45,-24.87 -302.97,-7.86 163.56,85.58 162.19,124 313.79,202.41 42.45,21.95 92.66,33.74 130.35,55.49 -140.49,-9.23 -339.73,-56.71 -461.11,-133.53 -51.05,-32.31 -55.57,-45.43 -70.51,-121.23 -49.33,102.12 42.65,165.79 105.93,198.26 -195.46,139.18 -548.74,-109.71 -820.04,-40.5 -70.49,17.99 -189.68,57.32 -233.18,100.08 185.46,-5.81 344.99,-30.27 533.49,-18.3 152.18,9.66 400.97,49.22 539.23,22.46 157.26,-30.43 234.84,30.42 481.86,47.52 207.15,14.34 392.97,0.04 538.97,8.47 -169.95,-13.12 -346.41,-37.45 -508.47,-63.03 74.41,-37.44 172.02,-24.54 213.07,-175.47 52.81,-194.16 -117.63,-363.16 -426.99,-177.27 -142.74,85.78 -141.55,57.54 -303.17,21.52 -296.65,-66.11 -337.04,164.37 -628.41,61.56 -96.42,-34.03 -209.82,-68.02 -322.99,-56.48 -108.56,11.08 -246.35,48.19 -224.68,163.71 32.21,-54.54 47.01,-88.54 123.31,-105.59 231.93,-51.82 398.78,142.39 596.03,108.97 120.83,-20.48 223.77,-111.43 341.69,-135.32 143.12,-28.99 231.29,56.5 408.09,22.46z"/>
   <path class="fil1" d="M1635.45 1686.03c87.45,-28.72 165.53,-123.69 242.57,-5.21 -63.78,-11.11 -94.02,-46.42 -178.77,13.18 -46.51,32.71 -93.07,84.34 -52.77,143.35l51.55 -48.85c-44.69,100.72 85.4,121.8 173.53,110.34 295.69,-38.45 137.26,-547.54 -224.42,-224.02l-11.69 11.21z"/>
   <path class="fil0" d="M1691.81 1523.71c98.39,-33.21 138.81,-442.27 -65.01,-712.89 -161.2,-214.03 -259.47,-156.56 -160.72,-78.65 200.48,158.19 300.48,437.71 227.7,683.53 -18.06,61 -41.46,68.96 -1.97,108.01z"/>
   <g id="_2057957215344">
    <path class="fil2" d="M2204.48 672.16c-265.04,-7.14 -479.11,15.93 -733.25,97.45 -37.4,11.99 -150.89,48.89 -175.38,65.86 141.65,9.33 188.03,6.49 333.01,39.93 49.21,11.35 97.5,25.25 143.64,40.68 27,9.03 123.17,41.36 134,54.01 -12.3,0.28 -88.31,-22.88 -112.03,-28.36 -231.58,-53.49 -477.04,-61.4 -710.47,-14.7 40.95,4.64 92.79,2.85 135.9,5.5 80.16,4.92 311.46,33.17 362.94,62.68 -50.3,-1.18 -115.8,-14.21 -169.06,-18.99 -185.57,-16.65 -410.42,-20.04 -572.98,62.91 -45.41,23.17 -63.21,36.54 -99.55,65.9 -36.01,29.09 -102.76,122.75 -108.79,169.26 15.72,-43.78 61.39,-91.56 91.14,-113.75 227.68,-169.72 685.91,-125.12 951.2,-82.95 136.44,21.68 256.75,51 386.56,81.13 226.72,52.63 415.14,109.82 627.87,189.4 19.86,7.44 67.5,28.39 83.88,30.67l-111.82 -69.63c-132.5,-79.94 -276.55,-163.21 -412.77,-236.12 -17.36,-9.29 -50.8,-23.07 -55.45,-37.39 -14.73,-45.27 62.63,-66.12 114.18,-18.18 32.32,30.06 51.32,87.4 110.31,72.15 33.01,-8.53 69.88,-70.78 73.95,-113.72 -15.8,7.6 -38.57,33.92 -63.25,25.62 -23.62,-7.94 -42.39,-28.79 -32.12,-60.68 19.14,-59.4 93.04,-46.38 136.64,-28.55 4.94,39.34 -2.93,56.31 -9.04,90.4 36.64,-17.04 41.43,-57.84 54.78,-73.37 25.09,-29.19 38.33,-71.96 21.12,-96.13 -13.52,-18.98 -11.31,1.58 -49.19,-39.95 -14.34,-15.71 -31.01,-29.11 -42.28,-43.57 -14.36,-18.43 -24.08,-31.82 -41.65,-47.39 -34.35,-30.42 -79.29,-37.15 -136.95,-35.94 -15.12,-12.14 -20.9,-20.85 -34.41,-31.27 -30.09,-23.22 -89.41,-60.71 -129.03,-57.91 13.08,14.36 33.29,68.11 38.35,95z"/>
    <path class="fil2" d="M745.57 1377.75c16.12,-17.38 24.37,-60.25 99.48,-114.85 280.87,-204.17 964.98,-40.4 1254.49,38.9 246.52,67.52 410.3,123.73 647.14,205.12 49.08,16.86 124.03,53.2 163.1,46.44 105.16,-18.15 34.43,-193.31 -47.62,-273.38 -34.38,-33.54 -67.99,-70.52 -112.12,-99.28 28.76,45.1 139.16,204.24 146.49,260.1 10.57,80.45 -101.24,20.06 -130.14,8.22 -207.72,-85.11 -564.63,-190.55 -783.22,-244.07 -268.13,-65.64 -793.47,-176.89 -1068.33,-69.51 -94.02,36.74 -176.26,110.72 -169.27,242.31z"/>
    <path class="fil2" d="M1792.76 1024.82l-10.2 -13.34c-7.84,-10.75 -3.32,-12.47 -19.55,-10.47 0.51,12.03 4.91,15.49 11.36,22.81 -10.37,6.22 -13.18,2.95 -16.2,17.07 -8.45,39.46 48.34,45.38 46.09,-1.11 24.18,6.11 35.85,-0.32 33.4,-23.93 -10.04,3.89 -8.51,6.27 -16.08,12.46l2.61 -33.08c-24.27,1.07 -29.74,5.63 -31.43,29.59z"/>
   </g>
   <ellipse class="fil3" cx="1111.11" cy="1200.56" rx="625.43" ry="573.55"/>
   <path class="fil0" d="M452.27 1588.4c168.29,12.67 333.51,-197.66 317.51,-446.89 -9.31,-145.02 -32.25,-196.18 71.55,-282.98 70.7,-59.12 167.31,-104.41 108.49,-244.32 -42.67,148.29 8.39,61.76 -157.72,205.5 -170.14,147.21 -68.43,343.63 -160.71,587.99 -29.48,78.05 -111.54,180.59 -179.12,180.7z"/>
   <path class="fil0" d="M1094.74 643.7c-97.75,-97.77 -6.95,-291.5 154.53,-263.28 205.36,35.89 86.27,226.1 84.08,325.4 -41.54,0.06 -7.01,-1.31 -27.32,-6.14l-28.67 -6.47c-84.88,114.51 -179.81,161.31 -194.8,-6.73l-56.53 61.84c-20.97,30.77 -30.73,40.74 -40.18,80.2 146.97,-79.65 77.33,-14.13 162.8,-1.33 69.08,10.35 126.38,-60.63 159.03,-78.88 43.55,-24.34 28.86,39.69 90.19,-128.11 142.81,-390.76 -373.62,-371.14 -417.85,-98.35 -14.73,90.77 28.23,132.13 114.72,121.85z"/>
   <path class="fil0" d="M433.75 1564.61c53.7,-31.77 16.07,-57.1 -5.07,-122.33 -99.63,-307.45 54.93,-640.26 326.61,-782.49 47.32,-24.77 98.61,-35 144.47,-55.56 -12.61,-76.4 -66.06,-43.42 -123.06,-15.82 -599.91,290.42 -434.16,925.67 -342.95,976.2z"/>
   <path class="fil0" d="M1535.43 1606.39l-21.44 -6.28c-10.16,-1.72 -12.76,0.35 -30.87,-3.25 -131.44,-26.11 -498.23,-556.99 -417.13,-774.48 -273.44,103.72 292.75,974.1 469.44,784.01z"/>
   <path class="fil0" d="M1304.43 1594.6c-138.01,-86.73 -180.66,-107.08 -300.77,-274.43 -65.9,-91.82 -190.53,-267.4 -149.1,-418.13 -63.95,44.29 -39.85,175.86 -19.92,246.06 43.07,151.7 258.62,464.49 469.79,446.5z"/>
   <path class="fil0" d="M865.74 1681c-6.02,-280.82 124.66,-149.19 27.05,-377.55 -4.85,7.1 -80.65,217.32 -67.92,284.1l22.46 71.08c9.74,16.74 9.96,13.57 18.41,22.37z"/>
  </g>
 </g>
</svg>
