<?xml version="1.0" encoding="UTF-8"?>
<!DOCTYPE svg PUBLIC "-//W3C//DTD SVG 1.1//EN" "http://www.w3.org/Graphics/SVG/1.1/DTD/svg11.dtd">
<!-- Creator: CorelDRAW 2017 -->
<svg xmlns="http://www.w3.org/2000/svg" xml:space="preserve" width="30.4798mm" height="22.9446mm" version="1.1" style="shape-rendering:geometricPrecision; text-rendering:geometricPrecision; image-rendering:optimizeQuality; fill-rule:evenodd; clip-rule:evenodd"
viewBox="0 0 3047.98 2294.46"
 xmlns:xlink="http://www.w3.org/1999/xlink">
 <defs>
  <style type="text/css">
   <![CDATA[
    .fil0 {fill:#1C1B1C}
    .fil1 {fill:#FEFEF4}
    .fil2 {fill:#FEFEFE}
   ]]>
  </style>
 </defs>
 <g id="Capa_x0020_1">
  <metadata id="CorelCorpID_0Corel-Layer"/>
  <g id="_2210907490752">
   <path class="fil0" d="M1991.46 1798.76c-2.35,2.41 -5.95,2.91 -7.03,7.25 -1.09,4.32 -5.6,5.78 -7.14,7.08l-15.29 13.08c-128.21,91.93 -233.41,-31.46 -383.38,-9.94 206.96,108.3 205.24,156.91 397.07,256.12 53.71,27.78 117.24,42.7 164.94,70.22 -177.78,-11.68 -429.89,-71.76 -583.48,-168.96 -64.6,-40.89 -70.32,-57.49 -89.22,-153.4 -62.43,129.21 53.96,209.78 134.04,250.87 -247.33,176.11 -694.36,-138.83 -1037.66,-51.25 -89.2,22.76 -240.01,72.53 -295.05,126.64 234.67,-7.35 436.54,-38.3 675.06,-23.16 192.56,12.23 507.37,62.28 682.33,28.43 198.98,-38.51 297.15,38.49 609.72,60.13 262.13,18.14 497.25,0.05 682,10.71 -215.04,-16.6 -438.33,-47.39 -643.4,-79.76 94.16,-47.37 217.67,-31.04 269.61,-222.03 66.83,-245.69 -148.85,-459.53 -540.3,-224.31 -180.62,108.54 -179.11,72.8 -383.63,27.22 -375.37,-83.64 -426.48,208 -795.16,77.9 -122.01,-43.05 -265.51,-86.07 -408.71,-71.47 -137.37,14.02 -311.72,60.98 -284.3,207.16 40.76,-69.02 59.48,-112.03 156.03,-133.61 293.48,-65.58 504.61,180.17 754.2,137.88 152.9,-25.91 283.16,-140.99 432.37,-171.22 181.1,-36.68 292.66,71.49 516.38,28.42z"/>
   <path class="fil1" d="M1991.46 1798.76c110.66,-36.35 209.46,-156.52 306.94,-6.6 -80.7,-14.05 -118.96,-58.73 -226.2,16.68 -58.87,41.39 -117.78,106.73 -66.78,181.39l65.23 -61.81c-56.55,127.44 108.06,154.12 219.58,139.62 374.15,-48.66 173.69,-692.85 -283.98,-283.47l-14.79 14.19z"/>
   <path class="fil0" d="M2062.78 1593.36c124.5,-42.03 175.65,-559.63 -82.26,-902.07 -203.98,-270.83 -328.33,-198.11 -203.37,-99.52 253.68,200.16 380.21,553.86 288.12,864.92 -22.85,77.19 -52.46,87.26 -2.49,136.67z"/>
   <ellipse class="fil2" cx="1327.98" cy="1184.45" rx="791.4" ry="725.76"/>
   <path class="fil0" d="M494.3 1675.22c212.95,16.03 422.01,-250.11 401.76,-565.49 -11.78,-183.5 -40.8,-248.24 90.54,-358.07 89.46,-74.81 211.71,-132.11 137.28,-309.16 -53.99,187.65 10.63,78.15 -199.57,260.04 -215.28,186.28 -86.59,434.81 -203.36,744.03 -37.3,98.76 -141.14,228.51 -226.65,228.65z"/>
   <path class="fil0" d="M1307.26 479.82c-123.69,-123.71 -8.79,-368.86 195.54,-333.15 259.86,45.42 109.17,286.1 106.39,411.76 -52.57,0.07 -8.86,-1.66 -34.57,-7.78l-36.28 -8.18c-107.41,144.9 -227.52,204.11 -246.49,-8.51l-71.53 78.25c-26.54,38.92 -38.88,51.55 -50.85,101.47 185.97,-100.79 97.86,-17.87 206.01,-1.68 87.4,13.1 159.91,-76.71 201.24,-99.81 55.1,-30.8 36.51,50.22 114.11,-162.1 180.72,-494.46 -472.77,-469.63 -528.73,-124.46 -18.63,114.87 35.71,167.2 145.16,154.19z"/>
   <path class="fil0" d="M470.86 1645.11c67.96,-40.19 20.34,-72.25 -6.41,-154.79 -126.07,-389.04 69.51,-810.17 413.28,-990.14 59.88,-31.35 124.78,-44.29 182.81,-70.3 -15.95,-96.67 -83.59,-54.94 -155.72,-20.02 -759.11,367.48 -549.36,1171.32 -433.96,1235.25z"/>
   <path class="fil0" d="M1864.9 1697.98l-27.13 -7.94c-12.86,-2.18 -16.15,0.43 -39.06,-4.12 -166.32,-33.04 -630.45,-704.79 -527.83,-980 -346,131.24 370.44,1232.6 594.02,992.06z"/>
   <path class="fil0" d="M1572.6 1683.07c-174.64,-109.75 -228.6,-135.5 -380.58,-347.26 -83.39,-116.19 -241.1,-338.36 -188.67,-529.09 -80.92,56.04 -50.43,222.53 -25.21,311.35 54.5,191.96 327.25,587.75 594.46,565z"/>
   <path class="fil0" d="M1017.49 1792.39c-7.62,-355.34 157.74,-188.78 34.23,-477.74 -6.13,8.98 -102.05,275 -85.95,359.49l28.42 89.95c12.34,21.17 12.61,17.16 23.3,28.3z"/>
  </g>
 </g>
</svg>
