<?xml version="1.0" encoding="UTF-8"?>
<!DOCTYPE svg PUBLIC "-//W3C//DTD SVG 1.1//EN" "http://www.w3.org/Graphics/SVG/1.1/DTD/svg11.dtd">
<!-- Creator: CorelDRAW 2017 -->
<svg xmlns="http://www.w3.org/2000/svg" xml:space="preserve" width="30.4798mm" height="22.9446mm" version="1.1" style="shape-rendering:geometricPrecision; text-rendering:geometricPrecision; image-rendering:optimizeQuality; fill-rule:evenodd; clip-rule:evenodd"
viewBox="0 0 3047.98 2294.46"
 xmlns:xlink="http://www.w3.org/1999/xlink">
 <defs>
  <style type="text/css">
   <![CDATA[
    .fil2 {fill:#0F2636}
    .fil6 {fill:#364734}
    .fil4 {fill:#674536}
    .fil0 {fill:#A78976}
    .fil10 {fill:#AABCC4}
    .fil11 {fill:#B87957}
    .fil9 {fill:#C8D8D8}
    .fil5 {fill:#E9BAA6}
    .fil3 {fill:#EBF5F3}
    .fil8 {fill:#F0D0B1}
    .fil7 {fill:#F3EBB1}
    .fil1 {fill:#FCB493}
   ]]>
  </style>
 </defs>
 <g id="Capa_x0020_1">
  <metadata id="CorelCorpID_0Corel-Layer"/>
  <g id="_2210935415744">
   <rect class="fil0" x="-0.01" width="3047.99" height="2294.46"/>
   <path class="fil1" d="M817.94 1094.47c-6.6,18.03 -46.25,25.13 -73.49,63.78 -8.75,12.42 -8.56,16.86 -15.1,27.74 -15.41,0.44 -9.64,3.29 -18.75,-3.65 -4.71,16.52 -1.55,10.95 -13.65,18.8 4.37,24.42 9.48,-19.63 5.56,13.65 -1.78,15.16 1.33,-4.76 -4.02,12.86 -1.39,4.59 -1.53,5.86 -2.86,10.55 -3.89,13.82 0.89,11.23 -10.39,19.88 -11.42,8.77 -7.58,5.07 -25.68,8.05 -0.32,15.64 -7.66,22.52 -14.6,30.57 -19.88,35.09 -10.8,18.92 -51.52,42.67l-6.53 3.2c-9.56,3.71 -6.89,1.2 -14.41,3.31 -13.69,3.84 0.29,-0.6 -16.14,7.58 -11.91,5.94 -8.84,2.15 -20.71,9.58 -26.35,16.51 -2.44,21.49 -38.51,25.3l-5.8 -23.81c-3.79,-15.39 -33.06,-31.89 -52.15,-35.4 10.9,11.05 2.49,2.47 16.34,10.79 2.62,1.58 16.61,11.14 17.76,12.42 15.13,16.8 5.16,28.47 -9.71,33.09l3.87 26.15 15.56 -6.51c10.35,-7.4 12.25,-10.29 26.68,-11.73 -12.11,21.85 -20.77,7.82 -24.19,33.72 1.18,1 3.16,0.36 4.04,2.28 1.76,3.85 19.61,4.42 28.92,11.07l6.74 6.07c0.95,0.59 1.9,1.34 2.96,1.87l24.88 4.49c2.46,37.09 -3.69,6.77 8.6,19.99 23.74,-7.82 37.36,-25.76 48.5,-45.19 19.01,-33.14 13.78,-23.23 30.5,-37.65l11.31 -12.4c35.64,10.63 44.9,-17.51 100.88,-46.65 7.45,-3.89 5.42,-2.63 10.88,-7.08 26.75,-21.78 24.26,-25.45 40.48,-41.26 33.44,-32.6 77.75,-57.25 86.27,-105.51 3.47,-19.71 7.11,-36.32 14.13,-51.81 24.45,4.8 7.32,6.96 26.87,11.77 13.11,-9.13 5.19,-9.93 21.5,-15.32 0.72,0.93 1.52,1.33 1.74,3.06 0.22,1.74 1.33,2.36 1.6,3.15 0.28,0.81 1.04,2.3 1.33,3.32l2.28 18.71c5.66,-12.34 28.37,-21.88 44.67,-23.9 0,-16.05 -0.14,-14.05 4.31,-25.43l27.84 -3.78c-5.7,-16.58 0.51,-4.95 -11.71,-9.4 -17.18,-6.27 -13.62,-0.09 -22.13,-12.18l-8.5 -3.68c-1.89,-27.1 20.17,-83.04 36.75,-103.81 18.71,-23.44 3.02,-3.54 12.77,-29.38 0.41,-1.08 0.91,-2.18 1.35,-3.21 6.15,-14.04 8.23,-11.49 12.9,-33.76 2.58,-12.31 4.42,-24.51 6.51,-36.05 11.38,-62.88 0.06,-54.71 25.89,-68.1 30.4,12.55 -19.38,15.14 49.38,25.7 -0.83,1.06 -1.82,2.4 -2.53,3.11 -26.96,27.32 -41.22,-3.94 -44.9,44.78 12.25,0.55 12.48,1.24 19.78,5.84 0.71,0.44 1.73,1.25 2.43,1.74l27.09 20.03c19.82,13.62 12.41,4.12 32.38,23.13 5.04,4.81 8.68,7.62 14.33,12.15l32.36 20.27c-4.07,17.52 -3.95,10.51 -15.76,24.05 -13.67,15.67 2.47,8.96 -22.88,15.11l16.09 8.14c-10.1,17.57 -20.52,30.61 -37.89,43.98l-53.42 19.64c-20.29,21.77 -41.82,31.84 -75.14,62.73 -51.12,47.42 -94.53,50.7 -148.17,122.72 -17.37,23.31 -13.62,14.92 -33.76,34.95 -26.09,25.95 -27.4,13.95 -33.8,40.68 163.77,0.91 166.13,-35.06 255.57,-67.79 20.74,-7.58 5.52,2.13 30.43,-12.86 20.82,-12.54 10.02,0.6 35.92,-15.82l63.85 -39c9.51,-8.11 11.11,-11.81 28.21,-20.44 34.17,-17.24 23.79,-24.69 75.62,-65.58 30.86,-24.35 72.82,-77.38 100.51,-90.31 -9.29,-26.72 -13.28,-15.45 -37.45,-24.69 5.27,-4.8 5.23,-7.05 22.65,-7.56 2.54,-0.08 17.74,1.72 21.05,2.2 34.94,5.07 95.48,8.97 114.67,18.82l54.58 36.21c9.01,12.45 26.07,47.04 26.34,64.05 9.67,3.59 2.51,-0.81 7.89,5.04 3.06,3.34 1.31,5.55 1.32,6.31 -0.46,-10.55 3.57,-14.02 4.06,-15.33 0.34,-0.89 5.64,-12.77 6.84,-14.81 6.95,-11.96 13.25,-17.49 27.47,-20.82 13.8,-7.03 20.84,-19.52 34.59,-30.21 50.43,-39.21 140.08,-100.04 197.85,-125.34 17.96,-7.86 26.63,-11.16 45.94,-18.44 12.46,-4.7 31.7,-13.64 42.36,-16.82 10.6,-13.45 20.59,-15.3 37.58,-19.04l2.94 -13.9c0.14,-0.96 8.16,4.71 -1.93,-14.03l-46.34 -49.36c-15.39,-10.43 -16.87,-4.97 -17.76,-29.58 -47.92,-3.48 -42.76,-32.41 -61.57,-45.85 -7.99,-5.7 -4.44,-0.6 -15.76,-9.82 -29.15,-23.75 -16.03,-7.69 -39.74,-16.73l-10.67 -6.01c-19.71,-10.34 -30.43,-7.72 -51.23,-25.86l-54.15 -29.17c-16.17,-3.63 -38.33,-5.99 -59.6,-14.68 -2.83,-9.65 1.25,10.61 1.93,-4.97l-0.08 -4.19c-0.21,-0.91 -1.29,-3.96 -1.82,-4.94l-18.69 -16.82c-24.61,-12.92 -46.13,-2.87 -65.61,-12.11 -38.29,-18.14 -70.56,-26.44 -117.84,-26.24l-0.91 -4.96c-15.54,-10.47 -66.35,-7.5 -84.23,-4.95 -28.09,4.02 -89.05,-3.87 -113.65,7.61 5.35,40.8 28.5,2.47 30.03,42.98 -29.73,1.09 -4.64,-1.8 -44.49,-18.21 -17.57,-7.23 -29.24,-16.9 -49.07,-19.1 -24.62,-2.72 -40.87,-1.81 -59.48,4.89 -1.02,0.36 -2.1,0.84 -3.13,1.2l-21.86 8.38c-6.29,4.26 -12.2,12.6 -16.92,17.24l-4.27 4.13c-0.65,0.53 -1.61,1.38 -2.27,1.87 -36.37,27.03 8.05,-18.82 -74.18,59.37l-13.39 11.89c-0.69,0.43 -1.71,1.14 -2.45,1.5 -35.79,17.34 -20.66,-15.99 -52.12,40.01l-9.08 11.61c-35.08,44.24 -21.13,42.23 -37.82,73.93 -18.28,34.72 7.29,118.56 -8.2,155.85 -7.33,17.64 -3.79,-7.11 -10.49,24.35 -3.32,15.58 -42.07,134.29 -60.16,145.33z"/>
   <path class="fil0" d="M1315.59 500.99c-43.68,18.11 -61.22,10.78 -71.72,14.3 -8.91,2.99 -12.19,11.32 -12.91,10.06 -0.51,-0.88 -1.77,2.07 -2.79,2.95 -23.21,-0.81 -40.3,-10.73 -62.6,-9.05 -23.04,1.73 -37.25,13.81 -57.81,16.15 -0.51,-1.05 -0.94,-2.65 -1.04,-3.36 -0.1,-0.66 -0.72,-2.43 -0.77,-3.2 -0.72,-10.57 -3.84,0.78 3.98,-11.66 -16.52,0.78 -26.85,5.78 -41.33,7.46 -37.68,4.38 -16.25,5.52 -38.23,11.97 -0.07,-0.06 -53.42,-53.61 -50.81,-13.84 0.47,7.05 33.4,39.59 3.5,62.64l-4.5 -14.46c-2.78,-16.2 -15.45,-67.09 -41.93,-55.53 10.65,14.94 13.32,7.31 17.39,31.22 -15.53,-1.33 -15.27,-2.09 -25.08,-11.6 -15.09,-14.62 0.01,-10.66 -26.21,-14.14 -2.21,30.61 2.35,21.61 6.71,39.49 1.94,7.98 3.51,27.33 3.56,35.87 -55.17,36.58 -70.4,4.38 -121.2,21.1 -15.23,5.01 -17.65,1.59 -27.52,7.05 -24.74,13.67 -8.6,27.38 -31.48,37.16 -9.43,4.03 -26.67,1.86 -36.58,0.81 14.68,19.88 20.06,3.17 46.07,7.4 14.79,2.4 18.81,14.91 20.99,26.38l-52.18 -3.25c9.09,6.74 34.13,4.94 47.35,3.41 31,-3.59 12.31,-6.02 45.36,0.74l-24.11 -25.51c-13.31,-12.37 -17.19,-5.11 -23.54,-22.83 2.88,-6.04 4.9,-12.7 17.53,-17.47 12.68,-4.78 13.84,-0.92 24.92,-4.82 18.94,-6.67 -4.4,-7.44 20.52,-7.46 25.88,-0.03 28.16,18.73 60.46,3.32 51.12,-24.39 38.91,-3.04 46.92,-67.78l44.02 2.45c-0.34,18.99 -7,18.2 -9.43,36.98l0.44 41.86 -38.77 55.62c-12.38,12.17 -8.64,2.07 -17.84,12.58 -1.41,-0.8 -2.91,-1.87 -4.08,-2.68 -1.1,-0.77 -2.56,-1.69 -3.85,-2.6 -48.99,-34.48 -61.39,-4 -73.06,6.75l-15.42 -1.94c7.13,11.61 0.91,7.99 19.34,15.42 11.09,4.48 12.83,5.25 21.9,9.25l20.51 -16.05c14.87,-16.49 2.82,2.98 4.21,-5.76 0.14,-0.89 0.76,-1.17 1.08,-1.78 0.1,16.08 3,12.89 4.32,25.82 -9.24,5.58 -24.43,13.72 -30.36,22.37 9.75,8.9 19.89,7.94 20.97,21.8 1.27,16.29 -9.74,12.79 -24.94,11.73l-0.51 1.77c10.96,0.81 25.83,0.34 34.97,6.83 -0.83,14.71 0.58,10.11 -7.86,18.22 -14.81,14.24 -29.08,-0.9 -52.89,16.09 15.92,1.25 37.57,-1.48 48.72,4.39 7.06,5.44 23.64,76.7 -0.95,117.67l-25.55 1.46c12.24,9.55 10.83,3.92 21.03,14.18 -0.5,10.34 -20.69,62.89 -25.78,73.68 -10.73,22.75 -46.55,22.06 -76.44,19.85 21.45,8.98 41.66,-0.03 60.29,8.63l-16.55 11.91c-8.49,4.92 -9.32,5.63 -18.78,10.53l-13 -6.4c-0.99,-0.35 -2.06,-0.77 -3.08,-1.05l-25.39 -0.83c-21.14,3.97 -13.9,15.57 -28.35,9.5 10.77,-1.12 9.28,-4.04 26.54,-3.81 20.39,0.25 18.93,3.95 31.61,5.83 28.94,4.31 38.4,-25.4 44.36,-0.31 18.09,-11.04 56.84,-129.75 60.16,-145.33 6.7,-31.46 3.16,-6.71 10.49,-24.35 15.49,-37.29 -10.08,-121.13 8.2,-155.85 16.69,-31.7 2.74,-29.69 37.82,-73.93l9.08 -11.61c31.46,-56 16.33,-22.67 52.12,-40.01 0.74,-0.36 1.76,-1.07 2.45,-1.5l13.39 -11.89c82.23,-78.19 37.81,-32.34 74.18,-59.37 0.66,-0.49 1.62,-1.34 2.27,-1.87l4.27 -4.13c4.72,-4.64 10.63,-12.98 16.92,-17.24l21.86 -8.38c1.03,-0.36 2.11,-0.84 3.13,-1.2 18.61,-6.7 34.86,-7.61 59.48,-4.89 19.83,2.2 31.5,11.87 49.07,19.1 39.85,16.41 14.76,19.3 44.49,18.21 -1.53,-40.51 -24.68,-2.18 -30.03,-42.98 24.6,-11.48 85.56,-3.59 113.65,-7.61 17.88,-2.55 68.69,-5.52 84.23,4.95l0.91 4.96c47.28,-0.2 79.55,8.1 117.84,26.24 19.48,9.24 41,-0.81 65.61,12.11l18.69 16.82c0.53,0.98 1.61,4.03 1.82,4.94l0.08 4.19c-0.68,15.58 -4.76,-4.68 -1.93,4.97 21.27,8.69 43.43,11.05 59.6,14.68l54.15 29.17c20.8,18.14 31.52,15.52 51.23,25.86l10.67 6.01c23.71,9.04 10.59,-7.02 39.74,16.73 11.32,9.22 7.77,4.12 15.76,9.82 18.81,13.44 13.65,42.37 61.57,45.85 0.89,24.61 2.37,19.15 17.76,29.58l46.34 49.36c10.09,18.74 2.07,13.07 1.93,14.03l-2.94 13.9c-16.99,3.74 -26.98,5.59 -37.58,19.04 35.05,-3.74 44.26,-19.88 90.54,-17.34 15.48,0.85 29.6,5.7 42.22,4.68 25.42,-2.04 2.28,-9.66 37.7,-12.51 2.73,46.07 3.45,21.73 -24.69,24.23 -0.18,10.95 8.24,45.6 16.86,57.72l9.99 10.49c39.42,34.77 30.92,81.03 37.19,127.45 2.78,20.53 6.74,21.46 8.85,41.31 3.59,33.77 7.77,60.78 9.42,94.6 2.82,57.56 30.54,58.59 -23.31,118.53 -14.67,16.32 -17.15,8.72 -26.31,24.51 -13.51,23.29 -32,41.86 -56.48,52.31 -11.86,5.06 -7.88,2.14 -21.66,5.21 -36.25,8.06 -19.3,9.93 -71.16,5.76 4.92,-24.59 34.17,-29.02 12.02,-49.86l-2.51 12.95 -16.04 7.65c-13.76,19.93 -28.28,16.96 -47.33,25.58l-43.54 38.64c-3.62,3.76 -0.52,-0.79 -6.56,6.53 -7.59,9.2 -4.27,10.55 -15.5,18.06l-59.12 16.86c-32.28,9.16 -76.31,14.77 -95.69,26.87 11.97,14.87 0.98,8.72 21.27,13.47 12.95,3.02 48.6,-7.11 54.18,-8.13 19.41,-3.54 104.35,-3.38 145.98,-13.92 22.71,-5.75 34.91,-16.63 64.14,-18.68 -3.39,20.64 -7.59,18.38 -25.06,42.74 -54.18,75.51 -28.67,40.61 -50.21,102.33 -10.62,30.41 -7.48,20 -18.39,24.38l-33.39 14.07c-28.95,9.74 -66.4,35.13 -89.08,55.18 -5.16,4.56 -7.77,5.76 -15.12,8.75 -31.57,12.79 -130.73,69.1 -151.42,82.16 -49.82,31.46 -49.01,17.65 -83.78,32.64 -53.43,23.05 -98.13,23.38 -159.13,20.72 -6.71,-0.29 -10.34,-0.25 -17,-1.82 -10.82,-2.53 -9.36,-3.35 -10.12,-3.67 -43.21,-18.23 -72.83,-4.81 -115.65,-21.95 0.02,-41.58 12.14,-49.79 -33.98,-48.52 1.49,-20.82 4.75,-41.44 14.59,-59.45 8.77,-16.05 7.59,-31.28 17.63,-51.07 21.35,-42.12 39.41,-97.5 71.04,-139.66 4.74,-6.32 10.48,-13.66 14.32,-19.81 6.4,-10.28 5.57,-12.86 11.36,-23.11l44.72 -58.63c35.11,-44.78 8.62,-25.34 28.14,-45.45 10.1,-10.4 10.24,-4.08 19.46,-14.63 6.73,-7.68 5.15,-11.83 13.8,-20.5 7.83,-7.85 10.89,-6.3 19.78,-14.7 10.52,-9.95 22.91,-26.09 32.61,-36.4l36.12 -32.96c12.95,-9.4 9.84,-1.21 21.46,-12.38 14.01,-13.47 -4.05,-4.09 19.01,-15.09 31.49,-15.01 110.15,-57.2 139.86,-65.03 41.55,-3.3 60.26,7.58 97.51,7.39 -7.55,-7.88 -9.45,-9.07 -23.82,-11.63 -98.89,-17.58 -132.89,18.59 -156.87,20.8 14.02,-36.55 9.39,-33.61 32.78,-44.3 24.99,-11.43 -4.82,1.97 39.3,-31.67 0.72,-24.01 -4.37,-28.24 -19.06,-41.03 -30.56,11.46 -20.56,34.47 -57.9,36.18 0.73,-32.8 13.67,-30.93 25.29,-56.04 -14.22,3.33 -20.52,8.86 -27.47,20.82 -1.2,2.04 -6.5,13.92 -6.84,14.81 -0.49,1.31 -4.52,4.78 -4.06,15.33 4.11,21.45 -0.26,21.94 6.53,41.07 6.55,18.46 7.49,15.94 5.09,36.28l-79.18 57.57c-33.04,24.98 -5.47,18.4 -45.73,39.89 -45.78,20.24 -32.75,8.88 -59.87,14.33 -17.13,3.43 -29.86,16.06 -56.75,18.11 -41.37,3.15 -29.01,2.42 -60.08,19.01 -0.49,0.25 -12.37,6.96 -13.61,7.75 -0.77,0.5 -1.83,1.2 -2.59,1.71 -33.68,22.46 -35.78,10.09 -54.56,1.12 -19.3,-9.22 -7.97,7.89 -15.26,-10.41 18.63,-11.63 69.19,-12.71 75.78,-13.97 13.04,-2.46 21.01,-7.32 33.01,-9.55 13.19,-2.46 22.52,-1.87 33.12,-11.08 -29.52,-12.35 -56.18,0.12 -84.71,6.06l-229.49 8.66c-34.28,0.4 -37.8,2.83 -40.98,-7.92 -2.88,-9.77 5.93,-4.66 24.22,-15.34 0.78,-0.45 1.77,-1.22 2.53,-1.7 100.3,-62.34 29.19,-24.68 135.1,-42.06l207.93 -4.83c7.56,-7.29 0.15,-1.84 11.34,-6.74 5.64,-2.47 5.73,-1.66 11.13,-3.36 8.81,-2.76 1.53,4.25 13.47,-5.67 -17.14,-13.15 -55.78,-10.6 -80.98,-11.74 -14.82,-0.68 -26.91,-5.31 -39.6,-1.49 -12.77,3.85 -4.37,10.06 -46.17,8.04 7.14,-14.48 2.21,-3.41 8.45,-10.23 12.31,-13.46 9.45,-3.7 13,-15.1 -12.49,-5.81 -26.01,0.75 -48.68,-2.01 9.93,-10.2 12.54,-9.03 22.61,-14.79 -9.41,3.18 -19.54,5.84 -29.98,9.4 -9.8,3.36 -8.3,5.39 -17.12,3.75 -17.84,-3.31 -5.94,8 -13.36,-8.81l-63.85 39c-25.9,16.42 -15.1,3.28 -35.92,15.82 -24.91,14.99 -9.69,5.28 -30.43,12.86 -89.44,32.73 -91.8,68.7 -255.57,67.79 6.4,-26.73 7.71,-14.73 33.8,-40.68 20.14,-20.03 16.39,-11.64 33.76,-34.95 53.64,-72.02 97.05,-75.3 148.17,-122.72 33.32,-30.89 54.85,-40.96 75.14,-62.73 -33.77,3 -14.27,12.26 -46.28,14.81 -16.54,1.31 -41.11,-2.11 -57.85,-4.49 8.51,12.09 4.95,5.91 22.13,12.18 12.22,4.45 6.01,-7.18 11.71,9.4l-27.84 3.78c-4.45,11.38 -4.31,9.38 -4.31,25.43 -16.3,2.02 -39.01,11.56 -44.67,23.9l-2.28 -18.71c-0.29,-1.02 -1.05,-2.51 -1.33,-3.32 -0.27,-0.79 -1.38,-1.41 -1.6,-3.15 -0.22,-1.73 -1.02,-2.13 -1.74,-3.06 -16.31,5.39 -8.39,6.19 -21.5,15.32 -19.55,-4.81 -2.42,-6.97 -26.87,-11.77 -7.02,15.49 -10.66,32.1 -14.13,51.81 -8.52,48.26 -52.83,72.91 -86.27,105.51 -16.22,15.81 -13.73,19.48 -40.48,41.26 -5.46,4.45 -3.43,3.19 -10.88,7.08 -55.98,29.14 -65.24,57.28 -100.88,46.65l-11.31 12.4c-16.72,14.42 -11.49,4.51 -30.5,37.65 -11.14,19.43 -24.76,37.37 -48.5,45.19 -12.29,-13.22 -6.14,17.1 -8.6,-19.99l-24.88 -4.49c-1.06,-0.53 -2.01,-1.28 -2.96,-1.87l-6.74 -6.07c-9.31,-6.65 -27.16,-7.22 -28.92,-11.07 -0.88,-1.92 -2.86,-1.28 -4.04,-2.28 3.42,-25.9 12.08,-11.87 24.19,-33.72 -14.43,1.44 -16.33,4.33 -26.68,11.73l-15.56 6.51 -3.87 -26.15c-16.28,2.55 -10.2,-0.05 -20.35,9.17 -2.44,-19.17 -38.76,-51.06 -61.38,-36.35 2.81,22.14 -0.83,16.54 26.52,21.48l0.36 19.07c-19.7,-2.97 2.34,-6.69 -15.73,-5.38 -3.68,0.27 -9.94,-7.67 -12.04,11.58 -1.99,18.22 10.59,1.86 4.4,39.26 -15.25,8.05 -10.95,8.73 -34.38,9.09 -20.39,0.31 -27.32,5.6 -42.18,4.44 -11.04,-0.87 -16.84,-7.34 -35.27,-3.77 -10.67,2.07 -9.77,3.46 -10.94,4.01 -6.39,3 -10.53,6.58 -15.36,9.74l-15.97 11.07c40.58,-7.85 20.7,-19.15 68.02,-15.16 15.56,1.31 61.9,-0.14 77.46,-2.07 8.98,-17.36 5.12,2.81 25.81,-38.52l4.29 -7.42c38.97,-0.38 42.54,-3.13 42.5,50.12 -0.07,85.04 40.64,35.22 13.93,82.16l-24.56 34.47c-16.14,29.57 -11.88,32.24 -16.74,47.96l-6.53 13.55c-10.73,-17.55 -4.11,-21.22 -9.25,-40.62 -5.18,-19.53 -5.45,-19 -25.15,-21.42 -12.45,10.81 -7.2,8.47 -18.65,34.78 -0.32,0.74 -3.55,8.57 -3.59,8.62 -10.22,16.05 -6.43,-6.49 -29.36,27.31 -16.41,-1.71 -7.23,-3.51 -32.16,-18.37 -7.54,-4.5 -3.6,-1.98 -9.91,-6.26 -44.43,-30.11 -31.62,23.63 -87.95,-41.33 -20.61,-23.78 -12.13,-23.12 -9.35,-52.04 -6.43,4.97 -2.61,0.61 -7.73,7 -18.62,23.25 3.55,39.35 -2.33,63.01 -36.36,21.39 -56.11,-6 -86.9,-10.97 6.13,9.98 7.9,11.43 20.35,15.97 77,28.15 55.56,-0.46 78.37,3.95 9.31,4.66 13.71,13.45 28.25,22.64l15.9 9.25c20.44,8.19 48.23,5.66 59.26,13.84 8.45,6.27 32.84,44.07 60,2.07l62.65 -0.49 8.88 25.44c37.99,-6.81 5.31,-34.69 35.21,-89.49 0.63,-1.16 2.35,-4.67 2.94,-5.81 8.51,-16.38 15.31,-20.98 31.97,-35.09l11.75 -9.79c22.4,-20.28 14.88,-7.53 36.52,-18.16 12.08,-5.93 9.95,-9.04 22.48,-16.44 6.94,-4.1 8.77,-4.11 14.49,-7.16 23.63,-12.58 39.42,-25.74 51.14,-49.94 6.18,-12.77 6.65,-12.26 16.73,-20.35 85.42,-68.66 81.1,-22.69 97.09,-57.98 31.75,-1.19 53.12,-4.66 81.45,-4.76 21.84,-0.08 14.09,-0.91 26.65,-5.12l7.13 -2.35c29.57,-6.53 74.5,7.61 89.91,9.33 25.75,2.87 16.34,4.67 53.77,20.53 14.91,6.32 -10.07,0.85 7.36,3.39 -6.5,-8.71 -9.96,-19.46 -11.92,-32.6 15.21,-0.18 37.08,2.19 54.97,3.94 14.45,1.43 21.45,2.9 29.28,12.44 16.79,20.46 2.78,36.41 80.27,43.84 -1.86,81.34 -33.52,82.99 -15.19,111.13 11.33,-4.28 5.44,-1.2 13.04,-10.77 0,0 7.26,-12.24 7.71,-13.07 4.44,-8.26 7.44,-16.79 12.82,-25.92 7.29,-12.33 24.17,-36.61 35.21,-43.89 22.97,-25.14 60.97,-52.94 93.14,-67.89 42.13,-19.58 60.9,-40.65 124.82,-30.55 -0.41,12.59 -1.91,10.74 -7.94,17.79 -6.49,7.57 -6.34,5.9 -13.61,16.94 -12.93,19.63 -15.11,15.73 -29.56,30.44l-53.75 66.52c-9.06,10.49 -14.87,24.45 -23.36,36.34 -25.71,35.97 -49.11,69.72 -65.48,110.71 -7.11,15.17 -18.09,44.78 -20.92,58.5 -9.2,44.71 -21.54,21.91 -42.02,14.61 -20.5,10.63 -31.73,28.02 -64.51,27.64l-20.58 -30.34c-22.46,-15.07 -22.33,13.03 -24.47,9.15 -0.44,-0.81 -1.27,2.8 -2.25,3.95 -9.01,-3.32 -22.24,-9.45 -31.54,-14.12 -16.92,-8.51 -0.66,0.92 -13.22,-9.38 -24.19,-19.84 -35.75,0.88 -88.91,-3.6 -25.15,-2.12 -13.56,-4.67 -34.93,-8.45 -31.39,-5.56 -11.48,0.79 -31.77,-12.43l-20.98 -14.07c-49.27,-36.55 -54.63,-16.17 -102.66,-29.45 -17.96,-4.97 -15.66,-4.86 -31.17,-13.3 -10.56,-5.76 -15.46,-7 -27.25,-10.91 -24.36,-8.06 -29.76,-16.03 -57.92,-24.31 -24.13,-7.11 -40.57,-10.04 -64.71,-3.36 3.54,17.65 16.92,21.73 31.54,22.61 22.28,1.33 36.92,-2.34 56.4,5.43 13.83,5.52 21.92,13.81 34.16,25.69 26.52,25.74 15.4,11.86 36.1,25.68 -9.47,15.62 -16.72,7.4 -16.79,28.36 13.42,6.23 30.98,2.64 49.27,-0.44 32.06,-5.4 29.2,-19.83 39.17,-21.32 21.12,2.68 77.88,39.71 101.96,51.14 57.27,27.21 12.74,-2.1 55.25,42.66l11.13 10.22c17.13,15.36 19.79,15.75 8.36,31.14 -15.92,21.45 -22.67,7.13 -16.83,35.33l17.12 -0.14c11.14,-19.25 -5.63,-25.32 16.98,-35.53 3.59,-1.62 39.08,-5.7 42.46,-5.15 50.45,8.32 -23.41,30.37 59.6,27.59 2.8,11.57 1.11,6.64 5.86,17.02 5.04,11.03 1.05,4.88 6.29,9.71l10.31 6.04c0.83,0.49 2,1.06 2.83,1.56 43.6,25.99 50.73,-15.29 78.16,16.29 -12.03,7.72 -1.3,5.4 -16.93,9.74 -17.67,4.92 -43.26,4.07 -61.01,2.13 -30.03,-3.27 -63.63,-0.27 -93.92,-2.69 -24.42,-1.95 -109.41,-40.6 -124.41,-58.06 -13.73,12.2 -15.22,9.39 -38.55,8.73 -38.32,-1.08 -36.36,5.42 -51.19,-6.83l-73.98 -41.76c-15.55,-6.99 -7.69,-8.68 -22.17,-13.54 -22.85,-7.67 -58.04,11.02 -72.52,21.11 19.63,10.05 61.16,4.62 86.4,3.61 14.72,9.22 6.34,7.48 19.05,14.9l20.07 12.19c0.48,-0.83 1.8,1.53 2.73,2.27 18.58,4.09 42.29,22.86 -2.52,24.93 -58.47,2.7 -150.54,-2.36 -207.27,-14.61l-30 4.01c18.4,23.61 142.43,22.75 174.78,27.22 90.4,12.47 146.4,-24.14 218.13,22.73 82.58,53.97 191.3,91.76 288.88,68.13 -7.42,-10.55 -1.51,-4.31 -20.05,-14.4 -17.63,-1.81 -27.08,-5.66 -42.21,-6.88 -17.34,-1.41 -33.84,0.87 -51.57,-0.55 -11.22,-0.89 -29.66,-3.73 -40.25,-6.56l-19.42 -6.32c-9.78,-3.36 -9.63,-2.25 -16.3,-7.35 7.31,-4.53 19.96,-10.07 32.6,-9.48 19.96,0.92 21.72,14.4 30.26,16.45l58.39 -10.87c1.91,-0.69 8.81,-4.06 9.1,-4.15 23.82,-6.78 16.23,16.21 63.84,15.55 -4.66,-30.88 -3.26,-2.98 -8.77,-23.31 18.23,-9.67 17.27,-1.16 38.19,3.17 -2.33,4.22 -8.11,6.44 -12.16,20.08 70.24,2.61 33.92,-34.28 99.17,-18.58 75.52,18.17 137.44,14.09 212.51,-12.56 28.85,-10.23 59.22,-13.87 89.34,-31.29 24.07,-13.9 21.35,-3.14 48.15,-2.52 29.6,0.69 23.06,-7.91 52.82,-2.74 94.7,16.49 56.81,14.92 90.87,28.59 47.83,19.22 25.54,-7.18 95.99,24.5 28.46,12.79 63.82,23.81 95.85,24.52 32.04,0.12 35.21,1.76 58.49,-9.58 19.31,-9.41 32.18,-3.37 46.52,-17.48 13.51,-13.27 42.44,-68.45 44.65,-92.1l-12.2 4.66c-0.27,-0.47 -1.08,-0.42 -1.64,-0.38 -5.51,-21.13 -6.87,-29.65 -0.48,-48.1 0.1,-0.28 5.83,-17.1 6.36,-18.58 6.55,-18.27 -8.09,-3.85 9.7,-16.23 -4.67,4.13 -17.38,22.1 -19.32,26.34l-13.26 77.1c-3.53,16.2 -7.88,13.16 -11.44,31.77l-39.25 8.68c-46.01,12.9 -31.53,38.19 -36.32,27 -0.3,-0.7 -1.13,2.08 -1.86,3.01 -108.23,1.47 -84.79,-14.79 -170.9,-44.5 -55.44,-19.12 -7.2,-7.03 -80.8,-26.84 -35.78,-9.62 -81.19,11.26 -102.79,-6.75 6.63,-8.16 18.71,-15.77 27.68,-20.95l90.4 -42.47c12.99,-7.04 7.22,-2.33 16.66,-10.59 8.27,-7.24 1.1,-2.54 10.39,-10.49l53.12 -30.68c6.42,-2 23.95,-5.24 31.56,-5.24 0,19.02 -1.16,22.66 8.58,34.4 40.58,-1.68 24.87,-22.47 31.18,-57.84 2.23,-12.46 5.28,-13.78 7.22,-32.08 2.65,-25.06 0.95,-24.61 14.37,-42.76 8.25,-11.14 1.71,0.16 8.68,-13.51 4.27,-8.38 7.83,-16.21 13.55,-24.06 32.23,-44.16 65.53,-95.36 102.61,-133.9 35.13,-36.5 64.49,-60.7 93.26,-105.19 25.45,-39.37 33.91,-19.54 18.18,-88.09 -3.85,-16.8 -1.56,-93.26 -15.48,-145.71 -14.33,-54.03 -5.14,-19.55 -8.88,-70.92 -4.68,-64.35 -1.25,-74.82 -22.84,-133.14 -9.98,-26.95 -9.89,-35.35 -26.84,-52.61 -22.07,0.49 -15.86,-3.74 -23.05,12.74l-7.06 -16.84c-16.04,-0.86 -12.01,0.34 -24.54,-6.66l-13.72 -9.65c8.23,-57.25 55.17,-69.32 69.64,-114.96 4.44,-14 5.4,-23.75 10.01,-36.29 2.37,-6.45 2.76,-7.09 6.62,-15.1 18.16,-37.76 22.7,-51.19 62.49,-51.5 15.34,7.18 22.53,19.26 27.07,32.93 0.85,31.82 7.46,31.63 8.4,59.99l-3.08 198.04c9.69,12.14 17.31,11.62 22.39,31.62 5.13,20.18 0.01,24.43 8.94,43.63l23.18 80.86c5.49,13.79 2.56,-4.03 8.1,16.78l12.57 65.83c7.02,33.56 12.5,19.77 22.6,41.44 6.44,13.84 6.98,21.5 2.27,30.91 -10.09,20.18 -104.93,68.32 -108.92,96.65 18.68,-0.81 39.8,-19.87 52.91,-31.48l100.91 -71.66c3.49,-1.72 11,-4.98 14.37,-7.07 31.96,-19.86 18.75,-8.25 34.97,-16.97 17.96,-9.66 78.56,-75.76 87.78,-88.27l25.76 -38.52c0.55,-0.65 1.42,-1.58 1.99,-2.21l6.28 -6.6c0.62,-0.69 1.49,-1.62 2.1,-2.33 0.84,-0.98 3.21,-3.97 4.01,-5l15.07 -18.06c0.58,-0.5 1.57,-1.28 2.19,-1.77l24.25 -14.52c10.34,-6.75 12.21,-17.64 22.76,-25.33 16.79,-12.23 28.88,-0.76 44.9,-9.13 -6.36,-6.17 -5.15,-7.46 -27.62,-8.45 -9.84,-0.44 -20.7,-0.12 -30.6,-0.13 -17.87,28.01 -37.62,27.03 -43.35,30.1 -9.17,11.1 -18.67,17.76 -27.68,28.3l-61.87 83.97c-31.18,54.19 -71.37,63.27 -107.94,90.66l-10.88 -16.26c-3.69,-9.06 -2.6,-12.41 -5.57,-20.74l-31.25 -66.79 -16.25 -60.72c-5.7,-21.22 -12.29,-34.36 -13.42,-55.38l-9.99 1.45c-9.59,-28.26 -14.02,-10.69 -13.65,-57.61l12.56 -7.59c-17.53,-34.2 -8.99,-46.5 -9.71,-87.64l0.7 -37.59 -5.45 -63.74c-8.64,-70.05 8.7,-140.3 -115.97,-134.53 -3.39,20.37 4.61,-2 -12.65,17.69 -6.59,7.53 -4.59,7.03 -11.64,14.13 -13.72,13.8 -18.33,10.73 -20.5,35.82l6.33 9.73c-21.98,102.83 -19.53,38.45 -47.97,89.94 -27.67,-2.6 -21.37,-14.57 -48.47,3.06 -19.89,12.93 -31.93,12.82 -54.73,15.6 -19.42,-13.3 -29.43,-35.48 -55.7,-44.63l-43.6 -34.82c-32,-21.12 -42.01,-13.84 -59.2,-18.34 -56.75,-14.83 -45.57,-37.35 -63.5,-45.68 -13.36,-6.21 -5.94,3.41 -14.77,-8.29 -19.62,-25.99 -0.91,-13.94 -0.13,-15.21 -24.62,-4.39 -28.54,6.94 -34.64,-14.72 11.89,-12.54 41.73,-3.87 63.65,-13.83 17.89,-8.13 29.19,-19.1 43.17,-30.64 36.86,-30.43 82.78,-6.81 108.76,-20.29 9.34,-4.84 7.84,-6.33 10.59,-8.71 -43.66,2.83 -20.91,-9.65 -45.08,-3.44 -26.33,6.77 -67.58,5.24 -93.44,-5.27 -25.93,-10.56 -25.78,-24.78 -59.05,-9.49 -37.26,17.12 -48.09,17.68 -56.43,21.49 -20.56,9.42 -11.94,11.27 -44.36,7.22 -30.48,-3.81 1.6,7.34 -41.2,4.95l3.85 -25.28c4.01,-15.04 0.46,-3.64 -5.45,-19.92 14.83,-10.64 36.18,-10.85 51.36,-25.29 -35.54,15.14 -51.67,20.84 -81.65,-3.98 -16.42,-13.6 -37.94,-31.27 -43.1,-55.04 6.17,37.83 22.68,20.75 33.02,57.2 -25.57,-0.05 -39.37,-4.58 -59.02,-4.33 -19.43,25.65 -44.3,31.67 -74.66,47.8 -62.47,33.18 -42.65,3.29 -104.53,16.51zm1271.11 470.27c5.73,-3.07 25.48,-2.09 43.35,-30.1 9.9,0.01 20.76,-0.31 30.6,0.13 22.47,0.99 21.26,2.28 27.62,8.45 -16.02,8.37 -28.11,-3.1 -44.9,9.13 -10.55,7.69 -12.42,18.58 -22.76,25.33 15.76,-11.55 -1.66,-8.83 25.33,-19.16 39.86,-15.26 45.23,-0.05 60.4,15.92l10.47 11.31c7.33,8.36 45.34,62.75 48.02,78.91 6.92,41.71 9.74,61.59 23.15,73.21 26.57,23.04 10.7,-5.68 29.17,26.69 18.87,33.05 38.85,52.64 45.37,66.75 4.98,10.78 6.83,14.93 14.01,24.38l21.12 56.04c1.49,4.85 2.65,7.45 2.52,14.02l-3.54 14.52c-15.03,-6.83 -14.28,-11.66 -20.33,-27.1l-27.93 -45.47c-0.46,-0.77 -1.15,-1.84 -1.57,-2.63 -0.4,-0.77 -1.04,-1.85 -1.41,-2.65 -0.36,-0.79 -0.9,-1.9 -1.21,-2.73 -2.9,-7.62 -1.76,-7.36 -3.5,-16.54 -2.67,-14.14 -2.03,-16.55 -12.86,-20.9l-51.57 -8.1c-14.03,11.15 -0.87,40.8 -0.86,40.83 9.51,49.77 9.32,24.31 13.3,40.93 -15.43,-0.79 -34.31,-11.57 -49.62,-18.66 -76.11,-35.26 -42.84,-27.31 -69.05,-51.41 -23.4,-21.54 -40.87,6.88 -43.62,-42.53 -35.18,-2.21 -39.34,2.14 -57.37,17.21 -0.98,0.81 -3.95,3.19 -4.98,3.97l-32.08 27.45c-0.49,0.66 -1.22,1.69 -1.66,2.38 -0.46,0.71 -1.07,1.81 -1.49,2.55 -29,52.04 -5.95,13.16 -47.96,64.22l-33.6 39.65c-22.82,34.25 -23.97,24.23 -43.85,50.75 -12.54,16.72 -1.36,-2.34 -9.45,19.64 -6.27,17.03 -21.79,36.44 -35.4,47.67 -15.74,12.98 16.39,-11.5 -7.92,5.29 -19.85,13.71 -16.93,33.12 -36.75,57.5 -0.79,0.97 -3.3,3.48 -4.09,4.45 -13.69,17.03 -16.71,27.68 -49.39,66.64l-93.76 119.06c-17.79,12.38 -3.15,-2.04 -9.7,16.23 -0.53,1.48 -6.26,18.3 -6.36,18.58 -6.39,18.45 -5.03,26.97 0.48,48.1 0.56,-0.04 1.37,-0.09 1.64,0.38l12.2 -4.66c0.82,-7.95 7.05,-13.46 10.18,-21.49 3.08,-7.88 9.53,-48.56 37.82,-62.34 5.92,2.66 34.59,36.43 42.07,45.65 -4.24,15.26 -6.48,4.15 -6.06,16.65 0.27,7.74 6.97,32.64 32.79,31.73 6.63,-9.62 16.71,-38.86 16.96,-48.92 -9.37,-17.84 -28.07,-20.26 -40.19,-32.84 -14.05,-14.58 -4.29,-11.16 -29.25,-31.21l106.06 -144.84 18.91 16.77c30.58,46.47 80.65,73.37 48.25,124.08l-55.33 60.32c-19.65,16.13 -11.29,14.82 -25.13,31.12 -14.04,16.53 -22.74,4.36 -20.92,30.44 46.79,4.52 54.32,-18.52 62.78,-28.06 18.87,-21.26 25.51,3.88 49.88,-40.64 12.35,-22.54 4.39,-14.91 6.29,-40.48 1.08,-14.62 8.3,-22.48 9.53,-39.35 5.14,-70.97 -49.91,-79.78 -59.27,-128.32 -6.93,-35.91 2.29,-37.5 21.19,-62.87 22.2,-29.78 16.5,-31.31 42.81,-64.28 24.97,-31.27 21,-37.09 40.94,-35.11 10.11,21.1 45.64,100.2 57.65,107.8 -3.89,-36.56 -34.88,-63.86 -45.66,-101.57 26.82,5.81 47.16,-4.41 73.84,-6.22l58.13 -2.29c7.26,-2.76 4.45,-0.69 9.77,-8.04l-131.78 11.75c-22.02,-32.58 -14.85,-31.98 52.92,-96.39l29.97 -15.49c61.48,-29.51 53.11,16.42 190.94,57.7 46.01,13.77 41.75,38.16 50.52,53l18.79 24.22c24.14,28.19 29.04,0.53 46.55,30.9 8.58,14.86 13.72,26.24 31.06,15.99 -3.35,-30.29 -8.6,3.4 -15.2,-25.8 40.46,-23.59 27.46,6.23 54.12,13.05 27.7,-39.25 -19.53,-52.55 -22.61,-82.29 -13.18,-127.49 -59.05,-115.25 -110.26,-201.98 -7.24,-12.28 -13.69,-28.9 -19.66,-41.46 -14.25,-16.3 -13.62,-36.44 -20.26,-59.66 -6.85,-23.93 -26.81,-29.76 -27.31,-51.64l-50.05 -47.74c-53.24,-28.82 -89.43,9.36 -119.99,24.52z"/>
   <path class="fil1" d="M2166.65 1718.26l93.76 -119.06c32.68,-38.96 35.7,-49.61 49.39,-66.64 0.79,-0.97 3.3,-3.48 4.09,-4.45 19.82,-24.38 16.9,-43.79 36.75,-57.5 24.31,-16.79 -7.82,7.69 7.92,-5.29 13.61,-11.23 29.13,-30.64 35.4,-47.67 8.09,-21.98 -3.09,-2.92 9.45,-19.64 19.88,-26.52 21.03,-16.5 43.85,-50.75l33.6 -39.65c42.01,-51.06 18.96,-12.18 47.96,-64.22 0.42,-0.74 1.03,-1.84 1.49,-2.55 0.44,-0.69 1.17,-1.72 1.66,-2.38l32.08 -27.45c1.03,-0.78 4,-3.16 4.98,-3.97 18.03,-15.07 22.19,-19.42 57.37,-17.21 2.75,49.41 20.22,20.99 43.62,42.53 26.21,24.1 -7.06,16.15 69.05,51.41 15.31,7.09 34.19,17.87 49.62,18.66 -3.98,-16.62 -3.79,8.84 -13.3,-40.93 -0.01,-0.03 -13.17,-29.68 0.86,-40.83l51.57 8.1c10.83,4.35 10.19,6.76 12.86,20.9 1.74,9.18 0.6,8.92 3.5,16.54 0.31,0.83 0.85,1.94 1.21,2.73 0.37,0.8 1.01,1.88 1.41,2.65 0.42,0.79 1.11,1.86 1.57,2.63l27.93 45.47c6.05,15.44 5.3,20.27 20.33,27.1l3.54 -14.52c0.13,-6.57 -1.03,-9.17 -2.52,-14.02l-21.12 -56.04c-7.18,-9.45 -9.03,-13.6 -14.01,-24.38 -6.52,-14.11 -26.5,-33.7 -45.37,-66.75 -18.47,-32.37 -2.6,-3.65 -29.17,-26.69 -13.41,-11.62 -16.23,-31.5 -23.15,-73.21 -2.68,-16.16 -40.69,-70.55 -48.02,-78.91l-10.47 -11.31c-15.17,-15.97 -20.54,-31.18 -60.4,-15.92 -26.99,10.33 -9.57,7.61 -25.33,19.16l-24.25 14.52c-0.62,0.49 -1.61,1.27 -2.19,1.77l-15.07 18.06c-0.8,1.03 -3.17,4.02 -4.01,5 -0.61,0.71 -1.48,1.64 -2.1,2.33l-6.28 6.6c-0.57,0.63 -1.44,1.56 -1.99,2.21l-25.76 38.52c-9.22,12.51 -69.82,78.61 -87.78,88.27 -16.22,8.72 -3.01,-2.89 -34.97,16.97 -3.37,2.09 -10.88,5.35 -14.37,7.07l-100.91 71.66c-13.11,11.61 -34.23,30.67 -52.91,31.48 3.99,-28.33 98.83,-76.47 108.92,-96.65 4.71,-9.41 4.17,-17.07 -2.27,-30.91 -10.1,-21.67 -15.58,-7.88 -22.6,-41.44l-12.57 -65.83c-5.54,-20.81 -2.61,-2.99 -8.1,-16.78l-23.18 -80.86c-8.93,-19.2 -3.81,-23.45 -8.94,-43.63 -5.08,-20 -12.7,-19.48 -22.39,-31.62l3.08 -198.04c-0.94,-28.36 -7.55,-28.17 -8.4,-59.99 -6.13,-14.84 -14.45,-26.75 -27.07,-32.93 -39.79,0.31 -44.33,13.74 -62.49,51.5 -3.86,8.01 -4.25,8.65 -6.62,15.1 -4.61,12.54 -5.57,22.29 -10.01,36.29 -14.47,45.64 -61.41,57.71 -69.64,114.96l13.72 9.65c12.53,7 8.5,5.8 24.54,6.66l7.06 16.84c7.19,-16.48 0.98,-12.25 23.05,-12.74 16.95,17.26 16.86,25.66 26.84,52.61 21.59,58.32 18.16,68.79 22.84,133.14 3.74,51.37 -5.45,16.89 8.88,70.92 13.92,52.45 11.63,128.91 15.48,145.71 15.73,68.55 7.27,48.72 -18.18,88.09 -28.77,44.49 -58.13,68.69 -93.26,105.19 -37.08,38.54 -70.38,89.74 -102.61,133.9 -5.72,7.85 -9.28,15.68 -13.55,24.06 -6.97,13.67 -0.43,2.37 -8.68,13.51 -13.42,18.15 -11.72,17.7 -14.37,42.76 -1.94,18.3 -4.99,19.62 -7.22,32.08 -6.31,35.37 9.4,56.16 -31.18,57.84 -9.74,-11.74 -8.58,-15.38 -8.58,-34.4 -7.61,0 -25.14,3.24 -31.56,5.24l-53.12 30.68c-9.29,7.95 -2.12,3.25 -10.39,10.49 -9.44,8.26 -3.67,3.55 -16.66,10.59l-90.4 42.47c-8.97,5.18 -21.05,12.79 -27.68,20.95 21.6,18.01 67.01,-2.87 102.79,6.75 73.6,19.81 25.36,7.72 80.8,26.84 86.11,29.71 62.67,45.97 170.9,44.5 0.73,-0.93 1.56,-3.71 1.86,-3.01 4.79,11.19 -9.69,-14.1 36.32,-27l39.25 -8.68c3.56,-18.61 7.91,-15.57 11.44,-31.77l13.26 -77.1c1.94,-4.24 14.65,-22.21 19.32,-26.34z"/>
   <path class="fil1" d="M1999.05 1380.54c-43.27,-3.29 -7.4,17.8 -54.93,1.59 -1.07,-0.37 -2.17,-0.78 -3.26,-1.13 -19.73,-6.37 -25.69,1.05 -42.88,-34.71 -31.12,-64.75 -29.46,-51.1 -84.79,-100.02 -26.9,-23.78 -11.98,-17.5 -33.18,-27.62 -7.18,-3.42 -11.07,-5.27 -19.78,-9.98 -22.18,-11.98 -26.27,-2.88 -53.21,-7.06 1.82,-10.79 3.07,-8.73 11.43,-17.65 -29.71,7.83 -108.37,50.02 -139.86,65.03 -23.06,11 -5,1.62 -19.01,15.09 -11.62,11.17 -8.51,2.98 -21.46,12.38l-36.12 32.96c-9.7,10.31 -22.09,26.45 -32.61,36.4 -8.89,8.4 -11.95,6.85 -19.78,14.7 -8.65,8.67 -7.07,12.82 -13.8,20.5 -9.22,10.55 -9.36,4.23 -19.46,14.63 -19.52,20.11 6.97,0.67 -28.14,45.45l-44.72 58.63c-5.79,10.25 -4.96,12.83 -11.36,23.11 -3.84,6.15 -9.58,13.49 -14.32,19.81 -31.63,42.16 -49.69,97.54 -71.04,139.66 -10.04,19.79 -8.86,35.02 -17.63,51.07 -9.84,18.01 -13.1,38.63 -14.59,59.45 46.12,-1.27 34,6.94 33.98,48.52 42.82,17.14 72.44,3.72 115.65,21.95 0.76,0.32 -0.7,1.14 10.12,3.67 6.66,1.57 10.29,1.53 17,1.82 61,2.66 105.7,2.33 159.13,-20.72 34.77,-14.99 33.96,-1.18 83.78,-32.64 20.69,-13.06 119.85,-69.37 151.42,-82.16 7.35,-2.99 9.96,-4.19 15.12,-8.75 22.68,-20.05 60.13,-45.44 89.08,-55.18l33.39 -14.07c10.91,-4.38 7.77,6.03 18.39,-24.38 21.54,-61.72 -3.97,-26.82 50.21,-102.33 17.47,-24.36 21.67,-22.1 25.06,-42.74 -29.23,2.05 -41.43,12.93 -64.14,18.68 -41.63,10.54 -126.57,10.38 -145.98,13.92 -5.58,1.02 -41.23,11.15 -54.18,8.13 -20.29,-4.75 -9.3,1.4 -21.27,-13.47 19.38,-12.1 63.41,-17.71 95.69,-26.87l59.12 -16.86c11.23,-7.51 7.91,-8.86 15.5,-18.06 6.04,-7.32 2.94,-2.77 6.56,-6.53l43.54 -38.64c19.05,-8.62 33.57,-5.65 47.33,-25.58z"/>
   <path class="fil1" d="M426.77 1686.31l11.19 18.82c30.22,71.97 152.52,55.85 169.91,62.06 33.53,11.98 -10.23,10.1 69.88,15.67 85.69,5.95 33.67,20.25 89.15,25.48 -0.93,-0.74 -2.25,-3.1 -2.73,-2.27l-20.07 -12.19c-12.71,-7.42 -4.33,-5.68 -19.05,-14.9 -25.24,1.01 -66.77,6.44 -86.4,-3.61 14.48,-10.09 49.67,-28.78 72.52,-21.11 14.48,4.86 6.62,6.55 22.17,13.54l73.98 41.76c14.83,12.25 12.87,5.75 51.19,6.83 23.33,0.66 24.82,3.47 38.55,-8.73 15,17.46 99.99,56.11 124.41,58.06 30.29,2.42 63.89,-0.58 93.92,2.69 17.75,1.94 43.34,2.79 61.01,-2.13 15.63,-4.34 4.9,-2.02 16.93,-9.74 -27.43,-31.58 -34.56,9.7 -78.16,-16.29 -0.83,-0.5 -2,-1.07 -2.83,-1.56l-10.31 -6.04c-5.24,-4.83 -1.25,1.32 -6.29,-9.71 -4.75,-10.38 -3.06,-5.45 -5.86,-17.02 -83.01,2.78 -9.15,-19.27 -59.6,-27.59 -3.38,-0.55 -38.87,3.53 -42.46,5.15 -22.61,10.21 -5.84,16.28 -16.98,35.53l-17.12 0.14c-5.84,-28.2 0.91,-13.88 16.83,-35.33 11.43,-15.39 8.77,-15.78 -8.36,-31.14l-11.13 -10.22c-42.51,-44.76 2.02,-15.45 -55.25,-42.66 -24.08,-11.43 -80.84,-48.46 -101.96,-51.14 -9.97,1.49 -7.11,15.92 -39.17,21.32 -18.29,3.08 -35.85,6.67 -49.27,0.44 0.07,-20.96 7.32,-12.74 16.79,-28.36 -20.7,-13.82 -9.58,0.06 -36.1,-25.68 -12.24,-11.88 -20.33,-20.17 -34.16,-25.69 -19.48,-7.77 -34.12,-4.1 -56.4,-5.43 -14.62,-0.88 -28,-4.96 -31.54,-22.61 24.14,-6.68 40.58,-3.75 64.71,3.36 28.16,8.28 33.56,16.25 57.92,24.31 11.79,3.91 16.69,5.15 27.25,10.91 15.51,8.44 13.21,8.33 31.17,13.3 48.03,13.28 53.39,-7.1 102.66,29.45l20.98 14.07c20.29,13.22 0.38,6.87 31.77,12.43 21.37,3.78 9.78,6.33 34.93,8.45 53.16,4.48 64.72,-16.24 88.91,3.6 12.56,10.3 -3.7,0.87 13.22,9.38 9.3,4.67 22.53,10.8 31.54,14.12 0.98,-1.15 1.81,-4.76 2.25,-3.95 2.14,3.88 2.01,-24.22 24.47,-9.15l20.58 30.34c32.78,0.38 44.01,-17.01 64.51,-27.64 20.48,7.3 32.82,30.1 42.02,-14.61 2.83,-13.72 13.81,-43.33 20.92,-58.5l-13.15 18.1c-0.51,0.72 -1.29,1.72 -1.79,2.43 -10.56,15.15 -13.79,30.43 -16.96,51.93 -17.62,-0.51 -25.36,-8.57 -40.69,-2.5 -20.06,7.95 -0.82,9.68 -29.05,16.23 -0.82,-0.98 -1.76,-2.32 -2.29,-3.09 -0.52,-0.74 -1.6,-2.13 -2.21,-3.04 -0.7,-1.02 -3.13,-4.77 -3.83,-5.86 -21.06,-32.56 -4.01,-3.33 -21.8,-15.95 -2.48,-59.35 10.11,-43.69 22.04,-63.63 12.61,-21.09 23.06,-83.93 69.08,-146.85 8.94,-12.21 10.24,-11.98 16.39,-28.07 -11.04,7.28 -27.92,31.56 -35.21,43.89 -5.38,9.13 -8.38,17.66 -12.82,25.92 -0.45,0.83 -7.71,13.07 -7.71,13.07 -7.6,9.57 -1.71,6.49 -13.04,10.77 -18.33,-28.14 13.33,-29.79 15.19,-111.13 -77.49,-7.43 -63.48,-23.38 -80.27,-43.84 -7.83,-9.54 -14.83,-11.01 -29.28,-12.44 -17.89,-1.75 -39.76,-4.12 -54.97,-3.94 1.96,13.14 5.42,23.89 11.92,32.6 -17.43,-2.54 7.55,2.93 -7.36,-3.39 -37.43,-15.86 -28.02,-17.66 -53.77,-20.53 -15.41,-1.72 -60.34,-15.86 -89.91,-9.33l-7.13 2.35c-12.56,4.21 -4.81,5.04 -26.65,5.12 -28.33,0.1 -49.7,3.57 -81.45,4.76 -15.99,35.29 -11.67,-10.68 -97.09,57.98 -10.08,8.09 -10.55,7.58 -16.73,20.35 -11.72,24.2 -27.51,37.36 -51.14,49.94 -5.72,3.05 -7.55,3.06 -14.49,7.16 -12.53,7.4 -10.4,10.51 -22.48,16.44 -21.64,10.63 -14.12,-2.12 -36.52,18.16l-11.75 9.79c-16.66,14.11 -23.46,18.71 -31.97,35.09 -0.59,1.14 -2.31,4.65 -2.94,5.81 -29.9,54.8 2.78,82.68 -35.21,89.49z"/>
   <path class="fil2" d="M1976.42 872.85c-10.66,3.18 -29.9,12.12 -42.36,16.82 -19.31,7.28 -27.98,10.58 -45.94,18.44 -57.77,25.3 -147.42,86.13 -197.85,125.34 -13.75,10.69 -20.79,23.18 -34.59,30.21 -11.62,25.11 -24.56,23.24 -25.29,56.04 37.34,-1.71 27.34,-24.72 57.9,-36.18 14.69,12.79 19.78,17.02 19.06,41.03 -44.12,33.64 -14.31,20.24 -39.3,31.67 -23.39,10.69 -18.76,7.75 -32.78,44.3 23.98,-2.21 57.98,-38.38 156.87,-20.8 14.37,2.56 16.27,3.75 23.82,11.63 23.83,-0.83 109.64,49.32 124.35,61.04 18.13,14.43 34.66,25.62 48.76,45.58 8.88,12.56 27.98,47.62 28.53,61.97 22.15,20.84 -7.1,25.27 -12.02,49.86 51.86,4.17 34.91,2.3 71.16,-5.76 13.78,-3.07 9.8,-0.15 21.66,-5.21 24.48,-10.45 42.97,-29.02 56.48,-52.31 9.16,-15.79 11.64,-8.19 26.31,-24.51 53.85,-59.94 26.13,-60.97 23.31,-118.53 -1.65,-33.82 -5.83,-60.83 -9.42,-94.6 -2.11,-19.85 -6.07,-20.78 -8.85,-41.31 -6.27,-46.42 2.23,-92.68 -37.19,-127.45l-9.99 -10.49c-8.62,-12.12 -17.04,-46.77 -16.86,-57.72 28.14,-2.5 27.42,21.84 24.69,-24.23 -35.42,2.85 -12.28,10.47 -37.7,12.51 -12.62,1.02 -26.74,-3.83 -42.22,-4.68 -46.28,-2.54 -55.49,13.6 -90.54,17.34z"/>
   <path class="fil3" d="M2529.35 1701.22c-6.51,11.31 -11.59,19.15 -25.16,22.88 -18.72,5.13 -14.19,-2.77 -30.15,7.34 -41.27,26.17 -47.24,9.96 -59.03,19.64 -12.07,21.21 -8.41,22.65 -27.5,30.75 -32.67,13.86 -32.28,44.09 -72.13,47.27 -8.07,0.64 -18.82,-6.54 -50.97,-9.55l-6.52 -16.31c-20.99,5.52 -4.59,1.6 -14.63,6.4 -9.35,4.47 0.28,0.62 -8.07,4.11 -11.17,4.66 -38.27,8.28 -49.02,4.44 -18.76,-6.72 14.07,10.1 -7.55,-4.67 -36.57,-24.99 28.58,10.24 -8.71,-6.79l-12.07 26.41c-2.59,8.92 -4.78,17.13 -8.83,24.75 -26.8,50.36 -23.71,49.67 -75.31,60.88 -15.14,3.3 -45.08,6.51 -58.45,-2.72 -32.03,-0.71 -67.39,-11.73 -95.85,-24.52 -70.45,-31.68 -48.16,-5.28 -95.99,-24.5 -34.06,-13.67 3.83,-12.1 -90.87,-28.59 -29.76,-5.17 -23.22,3.43 -52.82,2.74 -26.8,-0.62 -24.08,-11.38 -48.15,2.52 -30.12,17.42 -60.49,21.06 -89.34,31.29 -75.07,26.65 -136.99,30.73 -212.51,12.56 -65.25,-15.7 -28.93,21.19 -99.17,18.58 4.05,-13.64 9.83,-15.86 12.16,-20.08 -20.92,-4.33 -19.96,-12.84 -38.19,-3.17 5.51,20.33 4.11,-7.57 8.77,23.31 -47.61,0.66 -40.02,-22.33 -63.84,-15.55 -0.29,0.09 -7.19,3.46 -9.1,4.15l-58.39 10.87c-8.54,-2.05 -10.3,-15.53 -30.26,-16.45 -12.64,-0.59 -25.29,4.95 -32.6,9.48 6.67,5.1 6.52,3.99 16.3,7.35l19.42 6.32c10.59,2.83 29.03,5.67 40.25,6.56 17.73,1.42 34.23,-0.86 51.57,0.55 15.13,1.22 24.58,5.07 42.21,6.88 41.16,1.6 61.18,2.32 96.23,6.89 32.04,4.19 219.19,8.14 251.33,3.09 158.49,-24.9 104.03,-13.14 237.69,3.55 26.75,3.34 45.26,18.88 77.49,23.95 30.91,4.86 56.57,18.73 85.52,20.91 38.11,-14.48 26.52,-20.38 81.3,-14.39 12.72,21.34 11.55,21.89 43.84,21.74 31.06,-0.14 42,-4.72 68.17,-10.15 55.9,-11.59 88.79,1.48 134.91,7.59 27.28,1.05 132.91,6.2 144.09,-0.62 13.17,-8.04 33.3,-61.79 90.96,-59.79l-0.48 -9.72c-4.15,-11.44 -9.23,-35.85 -8.76,-49.37 0.7,-20.51 6.87,-24.59 15.89,-36.85 19.56,-26.6 24.32,-35.05 68.86,-38.5l4.01 -1.7c12.01,-44.39 52.51,-1.26 101.12,-26.83 15.54,-8.17 65.36,-34.85 74.17,-46.68 -7.81,-18.89 -0.07,-1.71 -10.45,-11.59l-11.77 -12.35c-8.6,-2.3 1.27,2.97 -9.81,-4.92l-9.62 -9.07c-12.25,-1.89 -57.22,-16.02 -70.01,-22.45 -22.31,-11.22 -52.63,-9.38 -82.35,-8.63 -13.37,32.87 4.52,15.21 -31.83,50.76z"/>
   <path class="fil4" d="M730.37 418.58c-2.13,11.06 -34.01,73.71 -41.35,83.59l9.51 26.58c0.32,1.01 0.8,2.08 1.09,3.1 6.76,23.79 -4.15,22.78 -5.78,78.57 -0.77,26.21 -2.17,13.57 -5.7,19.66 -1.38,2.37 -14.23,-6.53 -3.8,15.82 6.25,13.39 8.29,-6.46 11.88,16.48 9.91,1.05 27.15,3.22 36.58,-0.81 22.88,-9.78 6.74,-23.49 31.48,-37.16 9.87,-5.46 12.29,-2.04 27.52,-7.05 50.8,-16.72 66.03,15.48 121.2,-21.1 -0.05,-8.54 -1.62,-27.89 -3.56,-35.87 -4.36,-17.88 -8.92,-8.88 -6.71,-39.49 26.22,3.48 11.12,-0.48 26.21,14.14 9.81,9.51 9.55,10.27 25.08,11.6 -4.07,-23.91 -6.74,-16.28 -17.39,-31.22 26.48,-11.56 39.15,39.33 41.93,55.53l4.5 14.46c29.9,-23.05 -3.03,-55.59 -3.5,-62.64 -2.61,-39.77 50.74,13.78 50.81,13.84 21.98,-6.45 0.55,-7.59 38.23,-11.97 14.48,-1.68 24.81,-6.68 41.33,-7.46 -7.82,12.44 -4.7,1.09 -3.98,11.66 0.05,0.77 0.67,2.54 0.77,3.2 0.1,0.71 0.53,2.31 1.04,3.36 20.56,-2.34 34.77,-14.42 57.81,-16.15 22.3,-1.68 39.39,8.24 62.6,9.05 1.02,-0.88 2.28,-3.83 2.79,-2.95 0.72,1.26 4,-7.07 12.91,-10.06 10.5,-3.52 28.04,3.81 71.72,-14.3l7.7 -11.65c-36.64,-7.7 -84.1,20.01 -104.65,14.53 -27.1,-7.24 -23.78,-11.98 -56.15,-6.36 -32.57,5.65 -19.59,13.52 -36.92,11.92 -28.31,-2.61 -12.41,-20.77 -11.45,-25.79 2.85,-14.86 -0.66,-14.12 -1.76,-29.3 -5.18,-16.39 -11.72,-21.62 -19.27,-31.72 -12.9,-17.22 -7.08,-15.45 -14.94,-32.37 -10.83,-23.36 -51.98,-40.54 -55.16,-43.67 -8.26,-8.13 -7.39,-20.32 -24.64,-27.79 -17.67,-7.65 -23.4,-1.11 -40.05,-7.67 -19.23,-7.57 -12.73,-8.61 -39.69,-9.01 -34.32,-0.51 -33.26,3.97 -37.8,15.5 4.83,4.03 2.76,8.97 30.21,7.55 2.49,4.17 3.49,7.03 7.77,12.78 3.9,5.26 4.68,5.47 8.43,9.76 19.29,22.02 9.51,20.17 -1.01,46.27 -5.41,13.43 -3.51,15.02 -6.08,27.37 -5.42,26 -0.85,10.02 -16.63,23.11 -16.16,13.41 -5.59,2.7 -11.94,22.36 -8.72,27 -15.39,18.46 -33.84,55.07l-18.03 18.37c-5.87,4.94 -1.71,0.62 -7.5,9.71 -11.24,17.67 -18.85,19.27 -47.08,26.78 -38.93,10.34 -19.24,21.72 -41.36,31.38 -28.58,12.48 -28.99,-15.19 -27.96,-37.64 26.67,-11.09 46.05,-10.21 66.17,-32.37 21.34,-23.5 8.32,-7.88 34.68,-18.85 14.78,-6.15 35.18,-38.32 46.37,-50.73 10.27,-11.39 12.36,-12.87 20.6,-27.01 11.62,-19.93 14.79,-63.54 15.94,-87.22 -61.12,-5.91 -80.49,24.87 -86.46,-5.65 -0.39,-2.03 -1.14,-2.61 -2.04,-3.69 -27.47,11.88 -40.73,30.21 -61.86,57.16 -0.56,0.71 -1.28,1.76 -1.85,2.45l-16.97 14.01z"/>
   <path class="fil1" d="M2164.91 1796.89c-2.21,23.65 -31.14,78.83 -44.65,92.1 -14.34,14.11 -27.21,8.07 -46.52,17.48 -23.28,11.34 -26.45,9.7 -58.49,9.58 13.37,9.23 43.31,6.02 58.45,2.72 51.6,-11.21 48.51,-10.52 75.31,-60.88 4.05,-7.62 6.24,-15.83 8.83,-24.75l12.07 -26.41c37.29,17.03 -27.86,-18.2 8.71,6.79 21.62,14.77 -11.21,-2.05 7.55,4.67 10.75,3.84 37.85,0.22 49.02,-4.44 8.35,-3.49 -1.28,0.36 8.07,-4.11 10.04,-4.8 -6.36,-0.88 14.63,-6.4l6.52 16.31c32.15,3.01 42.9,10.19 50.97,9.55 39.85,-3.18 39.46,-33.41 72.13,-47.27 19.09,-8.1 15.43,-9.54 27.5,-30.75 11.79,-9.68 17.76,6.53 59.03,-19.64 15.96,-10.11 11.43,-2.21 30.15,-7.34 13.57,-3.73 18.65,-11.57 25.16,-22.88 -20.09,5.06 -13.41,8.68 -32.51,13.69 2.57,-18.31 3.76,-12.1 15.13,-23.18 38.01,-37.05 31.76,-49.66 37.05,-87.99 3.35,-24.19 20.22,-37.94 7.52,-64 -8.03,-16.48 -24.57,-36.35 -23.67,-59.04 -12.01,-7.6 -47.54,-86.7 -57.65,-107.8 -19.94,-1.98 -15.97,3.84 -40.94,35.11 -26.31,32.97 -20.61,34.5 -42.81,64.28 -18.9,25.37 -28.12,26.96 -21.19,62.87 9.36,48.54 64.41,57.35 59.27,128.32 -1.23,16.87 -8.45,24.73 -9.53,39.35 -1.9,25.57 6.06,17.94 -6.29,40.48 -24.37,44.52 -31.01,19.38 -49.88,40.64 -8.46,9.54 -15.99,32.58 -62.78,28.06 -1.82,-26.08 6.88,-13.91 20.92,-30.44 13.84,-16.3 5.48,-14.99 25.13,-31.12l55.33 -60.32c32.4,-50.71 -17.67,-77.61 -48.25,-124.08l-18.91 -16.77 -106.06 144.84c24.96,20.05 15.2,16.63 29.25,31.21 12.12,12.58 30.82,15 40.19,32.84 -0.25,10.06 -10.33,39.3 -16.96,48.92 -25.82,0.91 -32.52,-23.99 -32.79,-31.73 -0.42,-12.5 1.82,-1.39 6.06,-16.65 -7.48,-9.22 -36.15,-42.99 -42.07,-45.65 -28.29,13.78 -34.74,54.46 -37.82,62.34 -3.13,8.03 -9.36,13.54 -10.18,21.49z"/>
   <path class="fil5" d="M190.07 1534.6c-2.78,28.92 -11.26,28.26 9.35,52.04 56.33,64.96 43.52,11.22 87.95,41.33 6.31,4.28 2.37,1.76 9.91,6.26 24.93,14.86 15.75,16.66 32.16,18.37 22.93,-33.8 19.14,-11.26 29.36,-27.31 0.04,-0.05 3.27,-7.88 3.59,-8.62 11.45,-26.31 6.2,-23.97 18.65,-34.78 19.7,2.42 19.97,1.89 25.15,21.42 5.14,19.4 -1.48,23.07 9.25,40.62l6.53 -13.55c4.86,-15.72 0.6,-18.39 16.74,-47.96l24.56 -34.47c26.71,-46.94 -14,2.88 -13.93,-82.16 0.04,-53.25 -3.53,-50.5 -42.5,-50.12l-4.29 7.42c-20.69,41.33 -16.83,21.16 -25.81,38.52 -15.56,1.93 -61.9,3.38 -77.46,2.07 -47.32,-3.99 -27.44,7.31 -68.02,15.16l-40.45 6.69c-1.35,-17.08 1.52,-26.3 6.33,-36.25 20.42,-42.26 51.17,-18.98 57.31,-63.38 -42.95,-0.58 -51.85,20.48 -71.79,49.47 -21.45,31.17 -31.4,38.47 -29.84,87.03 20.52,-1.62 16.35,-6.87 36.63,-10.9l0.62 23.1z"/>
   <path class="fil6" d="M164.77 1379.38c-9.42,36.16 -14.41,10.79 -34.58,67.86 -10.66,30.19 -12.15,51.92 -47.73,55.73 12.04,30.52 8.26,51.11 10.65,90.67 30.79,4.97 50.54,32.36 86.9,10.97 5.88,-23.66 -16.29,-39.76 2.33,-63.01 5.12,-6.39 1.3,-2.03 7.73,-7l-0.62 -23.1c-20.28,4.03 -16.11,9.28 -36.63,10.9 -1.56,-48.56 8.39,-55.86 29.84,-87.03 19.94,-28.99 28.84,-50.05 71.79,-49.47 -6.14,44.4 -36.89,21.12 -57.31,63.38 -4.81,9.95 -7.68,19.17 -6.33,36.25l40.45 -6.69 15.97 -11.07c4.83,-3.16 8.97,-6.74 15.36,-9.74 1.17,-0.55 0.27,-1.94 10.94,-4.01 18.43,-3.57 24.23,2.9 35.27,3.77 14.86,1.16 21.79,-4.13 42.18,-4.44 23.43,-0.36 19.13,-1.04 34.38,-9.09 6.19,-37.4 -6.39,-21.04 -4.4,-39.26 2.1,-19.25 8.36,-11.31 12.04,-11.58 18.07,-1.31 -3.97,2.41 15.73,5.38l-0.36 -19.07c-27.35,-4.94 -23.71,0.66 -26.52,-21.48 22.62,-14.71 58.94,17.18 61.38,36.35 10.15,-9.22 4.07,-6.62 20.35,-9.17 14.87,-4.62 24.84,-16.29 9.71,-33.09 -1.15,-1.28 -15.14,-10.84 -17.76,-12.42 -13.85,-8.32 -5.44,0.26 -16.34,-10.79 -50.81,1.72 -34.76,-18.37 -71.07,-23.12l-132.5 11.17 -31.33 15.5c-23.16,12.84 -24.53,33.07 -39.52,46.7z"/>
   <path class="fil7" d="M1219.55 1442.22c-6.15,16.09 -7.45,15.86 -16.39,28.07 -46.02,62.92 -56.47,125.76 -69.08,146.85 -11.93,19.94 -24.52,4.28 -22.04,63.63 17.79,12.62 0.74,-16.61 21.8,15.95 0.7,1.09 3.13,4.84 3.83,5.86 0.61,0.91 1.69,2.3 2.21,3.04 0.53,0.77 1.47,2.11 2.29,3.09 28.23,-6.55 8.99,-8.28 29.05,-16.23 15.33,-6.07 23.07,1.99 40.69,2.5 3.17,-21.5 6.4,-36.78 16.96,-51.93 0.5,-0.71 1.28,-1.71 1.79,-2.43l13.15 -18.1c16.37,-40.99 39.77,-74.74 65.48,-110.71 8.49,-11.89 14.3,-25.85 23.36,-36.34l53.75 -66.52c14.45,-14.71 16.63,-10.81 29.56,-30.44 7.27,-11.04 7.12,-9.37 13.61,-16.94 6.03,-7.05 7.53,-5.2 7.94,-17.79 -63.92,-10.1 -82.69,10.97 -124.82,30.55 -32.17,14.95 -70.17,42.75 -93.14,67.89z"/>
   <path class="fil8" d="M1999.05 1380.54l16.04 -7.65 2.51 -12.95c-0.55,-14.35 -19.65,-49.41 -28.53,-61.97 -14.1,-19.96 -30.63,-31.15 -48.76,-45.58 -14.71,-11.72 -100.52,-61.87 -124.35,-61.04 -37.25,0.19 -55.96,-10.69 -97.51,-7.39 -8.36,8.92 -9.61,6.86 -11.43,17.65 26.94,4.18 31.03,-4.92 53.21,7.06 8.71,4.71 12.6,6.56 19.78,9.98 21.2,10.12 6.28,3.84 33.18,27.62 55.33,48.92 53.67,35.27 84.79,100.02 17.19,35.76 23.15,28.34 42.88,34.71 1.09,0.35 2.19,0.76 3.26,1.13 47.53,16.21 11.66,-4.88 54.93,-1.59z"/>
   <path class="fil5" d="M803.81 697.06l4.71 6.47 15.42 1.94c11.67,-10.75 24.07,-41.23 73.06,-6.75 1.29,0.91 2.75,1.83 3.85,2.6 1.17,0.81 2.67,1.88 4.08,2.68 9.2,-10.51 5.46,-0.41 17.84,-12.58l38.77 -55.62 -0.44 -41.86c2.43,-18.78 9.09,-17.99 9.43,-36.98l-44.02 -2.45c-8.01,64.74 4.2,43.39 -46.92,67.78 -32.3,15.41 -34.58,-3.35 -60.46,-3.32 -24.92,0.02 -1.58,0.79 -20.52,7.46 -11.08,3.9 -12.24,0.04 -24.92,4.82 -12.63,4.77 -14.65,11.43 -17.53,17.47 6.35,17.72 10.23,10.46 23.54,22.83l24.11 25.51z"/>
   <path class="fil9" d="M1744.19 1091.01l38.76 -29.71c16.54,-14.82 23.48,-18.78 43.06,-29.77 37.43,-21.02 6.04,1.91 44.16,-28.75 14.44,-11.62 34.12,-15.04 49.09,-23.99 -3.9,-42.45 -20.86,-33.8 -51.17,-22.07 -23.92,9.25 -47.46,22.11 -68.94,35.22 -13.46,8.21 -79.48,52.39 -77.41,72.5 1.13,10.91 12.14,22.9 22.45,26.57z"/>
   <path class="fil10" d="M2107.04 917.02c1.8,-18.48 -0.97,-19.71 -7.02,-30.52 -46.9,-5.81 -101.44,17.35 -138.37,27.76 -18.6,5.23 -29.86,4.47 -23.19,29.92 4.72,18.08 19.03,19.03 40.24,12.41 58.48,-18.24 59.42,-30.46 128.34,-39.57z"/>
   <path class="fil11" d="M229.11 1579.15c15.89,7.83 63.42,25.33 80.28,25.63 2.95,-20.83 15.37,-47.52 -5.76,-60.89 -23.06,2.09 -2.43,-3.02 -18.08,16.2l-3.95 4.58c-9.65,7.88 -17.44,7.39 -28.66,8.58l4.65 -49.38c-18.55,2.79 -33.14,28.41 -28.48,55.28z"/>
  </g>
 </g>
</svg>
