<?xml version="1.0" encoding="UTF-8"?>
<!DOCTYPE svg PUBLIC "-//W3C//DTD SVG 1.1//EN" "http://www.w3.org/Graphics/SVG/1.1/DTD/svg11.dtd">
<!-- Creator: CorelDRAW 2017 -->
<svg xmlns="http://www.w3.org/2000/svg" xml:space="preserve" width="30.4798mm" height="22.9446mm" version="1.1" style="shape-rendering:geometricPrecision; text-rendering:geometricPrecision; image-rendering:optimizeQuality; fill-rule:evenodd; clip-rule:evenodd"
viewBox="0 0 3047.98 2294.46"
 xmlns:xlink="http://www.w3.org/1999/xlink">
 <defs>
  <style type="text/css">
   <![CDATA[
    .fil1 {fill:#000002}
    .fil0 {fill:#FDFDFD}
   ]]>
  </style>
 </defs>
 <g id="Capa_x0020_1">
  <metadata id="CorelCorpID_0Corel-Layer"/>
  <g id="_2211034662736">
   <path class="fil0" d="M152.81 1405.27c36.46,21.73 772.91,9.15 882.94,10.27l27.46 -80.87c-239.15,8.27 -505.44,-0.24 -750.09,2.11 -49.55,0.47 -229.4,-20.91 -160.31,68.49z"/>
   <path class="fil0" d="M1913.58 418.01c18.6,-55.14 -16.4,-166.08 -65.11,-182.79 -128.87,-44.18 -176.95,288.39 -58.31,315.96 76.55,17.78 109.13,-90.8 123.42,-133.17z"/>
   <path class="fil1" d="M393.78 1917.61l-26.5 -476.33 56.69 0.44 -30.19 475.89zm-240.97 -512.34c-69.09,-89.4 110.76,-68.02 160.31,-68.49 244.65,-2.35 510.94,6.16 750.09,-2.11l-27.46 80.87c-110.03,-1.12 -846.48,11.46 -882.94,-10.27zm942.6 -70.66l428.84 0.29 -24.86 82.35 -435.16 -1.64 31.18 -81zm-87.01 199.65l-0.14 80.54 3.17 62.78c9.59,6.16 9.24,4 11.61,3.65 1.22,-41.43 -7.34,-139.2 17.43,-164.63 -1.27,-27.04 6.04,-52.64 17.32,-77.3l437.39 -1.08c-5.16,53.93 -16.74,92.03 -12.08,149.62 -0.03,18.86 1.69,34.38 7.09,51.53 1.87,5.94 6.31,17.7 9.85,21.78 19.44,22.42 4.27,7.01 20.62,11.04 -13.62,-18.67 -12.37,-19.32 -16.69,-46.35l-1.7 -25.53c1.45,-55.14 11.62,-109.86 23.72,-161.29 222.09,-13.93 532.57,1.8 775.02,-8.35 70.82,-2.97 43.06,5.03 89.5,18.16l-28.56 462.39c-3.06,-70.69 -14.78,-426.62 -28.96,-461.32 -12.5,32.53 -6.12,98.25 -2.45,138.28l2.28 150.73c-4.53,54.49 1.58,129.2 3.06,185.78 3.08,118.43 -12.14,165.09 41.53,159.1 26.95,-44.99 25.27,-536.56 20.61,-628.39 141.45,-7.37 305.52,-0.76 454.31,-6.83 51.5,-2.11 78.71,-20.41 83.71,-70.42 -42.12,61.47 -30.81,56.81 -128.54,54.5l-346.44 -4.91c-54.78,-0.27 -106.97,-4.1 -100.07,-65.73 6.28,-56.08 64.07,-52.1 119.48,-52.28l339.91 -5.08c79.58,-2.05 81.66,2.56 115.39,56.79 -3.52,-58.79 -53.17,-83.4 -117.22,-69 12.98,-62.44 16.53,-90.52 -26.59,-134.24 -56.55,-57.34 -185.54,-38.39 -263.17,7.04 -31.56,18.46 -73.25,51.76 -116.33,32.94 -38.1,-16.66 -64.95,-52.27 -101.57,-72.01 -129.84,-70.03 -320.93,16.14 -418.16,21.54 49.18,-103.21 73.04,-167.19 97.3,-296.6 11.51,-61.38 14.42,-124.91 7.46,-188.32 -6.68,-60.93 -12.15,-134.31 -61.17,-133.91 -24.07,33.93 -9.7,104.37 -7.29,151.89 2.93,57.99 0.87,111.45 -4.24,169.18 -6.12,69.16 -12.17,256.8 -48.43,297.99 -15.28,10.5 -53.73,13.62 -72.99,11.29 -42.34,-23.62 -123.17,-371.45 -134.39,-461.25 -5.71,-45.76 -0.05,-136.3 -41.34,-150.52 -74.31,25.86 -5.91,288.37 15.79,342.11 21.15,52.33 39.45,97.37 65.14,146.45 41.04,78.41 69.17,96.7 86.81,127.42l-177.25 14.24c312.78,41.33 545.14,-128.3 706.78,-7.68 32.77,24.45 78.64,74.2 138.35,58.32 48.8,-12.97 83.6,-53.23 129.61,-69.39 122.3,-42.96 252.9,-4.74 217.47,129.58 -104.82,-6.33 -217.74,-4.53 -323.45,-5.71 -57.77,-0.66 -99.36,-6.79 -132.87,28.4 -33.11,34.77 -22.23,78.34 -3.8,113.3l-819.78 -7.71 24.79 -83.42 775.88 -8.36c-121.77,-19.09 -595.09,-4.5 -773.82,-13.24l42.64 -136.37c-28.99,13.57 -58.4,104.14 -65.94,137.39l-431.89 -2.68c41.36,-151.42 29.45,-136.2 191.37,-161.97 193.54,-30.8 153.4,-20.58 287.88,25.78 -80.3,-80.92 -217.43,-59.16 -342.65,-41.32 -113.95,16.24 -212.92,88.83 -334.7,60.36 -113.69,-26.56 -232.42,-81.86 -333.16,-4.07 -50.45,38.95 -63.03,63.53 -151.41,46.3 -49.27,-9.6 -85.48,-6.83 -129.85,18.36 -4.02,2.29 -11.3,6.86 -15.46,10.36 -14.96,12.59 -5.6,3.35 -13.96,14.96 31.93,-13.21 62.13,-33.05 104.34,-33.92 44.42,-0.92 72.84,20.92 121.86,15.19 78.39,-9.17 91.87,-79.04 186.37,-84.38 78.22,-4.41 152.18,28.56 223.37,44.83 94.91,21.67 149.05,-5.92 231.08,-30.24 -12.79,39.85 -37.95,80.11 -50.51,120.04 -251.84,9.1 -573.74,-0.83 -840.51,-1.42 -57.13,-0.13 -110.1,-7.2 -121.52,46.32 -24.46,114.62 122.58,87.55 245.72,86.03 -8.07,116.98 2.29,364.35 5.98,500.84 1.19,44.27 -10.3,122.52 23.72,143.52 33.57,-6.78 28.43,-21.07 29.2,-57.78l6.23 -245.03c2.2,-106.26 9.99,-236.81 1.41,-341.05l597.66 -0.81c-5.39,30.88 -12.16,63.66 -16.16,93.25z"/>
   <path class="fil1" d="M1913.58 418.01c-14.29,42.37 -46.87,150.95 -123.42,133.17 -118.64,-27.57 -70.56,-360.14 58.31,-315.96 48.71,16.71 83.71,127.65 65.11,182.79zm-120.38 -201.18c-147.13,60.19 -120.92,407.71 36.52,352.51 30.1,-10.55 56,-43.36 69.7,-71.84 55.6,-115.58 22.16,-333.18 -106.22,-280.67z"/>
  </g>
 </g>
</svg>
