<!-- Generated by IcoMoon.io -->
<svg version="1.1" xmlns="http://www.w3.org/2000/svg" width="32" height="32" viewBox="0 0 32 32">
<title>mascarilla</title>
<path d="M26 8c-1.747 0-3.16 1.347-3.307 3.067-2.507-0.667-3.787-2.4-6.693-2.4-2.92 0-4.187 1.733-6.693 2.4-0.147-1.707-1.56-3.067-3.307-3.067-1.84 0-3.333 1.493-3.333 3.333v0.667c0 8 4.8 10.413 8.693 10.64 1.347 0.853 2.933 1.36 4.64 1.36s3.293-0.507 4.64-1.36c3.893-0.227 8.693-2.64 8.693-10.64v-0.667c0-1.84-1.493-3.333-3.333-3.333zM4.667 12v-0.667c0-0.733 0.6-1.333 1.333-1.333s1.333 0.6 1.333 1.333v4c0 1.707 0.507 3.293 1.347 4.64-2.027-0.947-4.013-3.107-4.013-7.973zM27.333 12c0 4.867-1.987 7.027-4.013 7.973 0.853-1.347 1.347-2.933 1.347-4.64v-4c0-0.733 0.6-1.333 1.333-1.333s1.333 0.6 1.333 1.333v0.667zM14.253 13.973c-0.587 0.347-1.28 0.747-2.253 1.013v-1.387c0.64-0.227 1.12-0.507 1.573-0.773 0.72-0.427 1.4-0.827 2.427-0.827s1.693 0.4 2.4 0.827c0.453 0.267 0.947 0.56 1.6 0.787v1.387c-1-0.28-1.68-0.68-2.28-1.040-0.613-0.36-1.067-0.627-1.72-0.627s-1.12 0.267-1.747 0.64z"></path>
</svg>
