<!-- Generated by IcoMoon.io -->
<svg version="1.1" xmlns="http://www.w3.org/2000/svg" width="32" height="32" viewBox="0 0 32 32">
<title>mascarilla-covid</title>
<path d="M4.957 14.552c-0.639-1.972-0.645-6.317-0.144-8.363 0.131-0.536 0.401-1.261 0.66-1.673 0.303-0.483 0.637-0.956 1.064-1.264 2.97-2.144 11.68-2.85 14.971-0.325 0.42 0.322 0.853 0.738 1.139 1.189 0.298 0.468 0.479 1.021 0.632 1.614 1.129-0.372 2.060-0.015 2.87 0.545 3.123 2.162 1.58 5.376 0.977 8.454 0.925 0.3 1.748 1.452 1.416 2.768-0.402 1.594-1.002 1.741-2.081 2.271-0.524 1.854-0.167 1.77-1.201 4.147-0.299 0.687-0.621 1.177-0.979 1.734-1.561 2.422-5.070 5.034-8.288 5.034-2.909 0-5.95-2.236-7.129-3.552-1.822-2.036-3.043-4.591-3.314-7.402-0.638-0.12-1.088-0.453-1.427-0.814-0.71-0.755-1.054-2.309-0.372-3.32 0.212-0.315 0.308-0.427 0.563-0.602 0.21-0.143 0.491-0.234 0.641-0.44zM21.061 21.908c0.18 0.665-0.097 0.654-0.706 0.751-1.409 0.224-2.594 0.372-4.051 0.44-0.793 0.037-5.049-0.2-5.4-0.573-0.354-0.375 0.072-0.673 0.593-0.592 2.438 0.373 4.467 0.545 6.972 0.23 0.634-0.080 2.103-0.424 2.592-0.256zM20.718 24.505c-0.673 0.395-3.91 0.607-4.957 0.61-0.815 0.002-1.796-0.087-2.611-0.175-0.51-0.055-2.232-0.031-2.034-0.723 0.153-0.536 1.77-0.089 2.318-0.032 2.316 0.241 4.288 0.117 6.568-0.254 0.572-0.092 0.832-0.072 0.715 0.573zM11.759 26.049c0.115-0.052 4.078 0.276 4.778 0.248l3.643-0.337c0.364 0.079 0.444 0.52 0.062 0.696-0.503 0.231-4.081 0.462-4.791 0.427-0.489-0.024-3.249-0.192-3.643-0.329-0.283-0.098-0.56-0.479-0.050-0.704zM20.958 15.248c0.719-0.434 1.313 0.698 0.637 1.051-0.727 0.381-1.424-0.577-0.637-1.051zM10.553 15.080c0.851-0.242 1.135 0.974 0.362 1.164-0.823 0.203-1.102-0.953-0.362-1.164zM6.629 19.871c-0.003 1.936 1.591 5.023 2.974 6.441 0.841 0.863 1.437 1.498 2.594 2.141 2.499 1.388 4.752 1.629 7.348 0.141 0.528-0.302 1.005-0.596 1.409-0.917l0.625-0.541c0.249-0.187 0.415-0.387 0.611-0.628 1.59-1.94 2.668-3.757 3.020-6.507-0.070 0.042-1.623 1.373-1.756 0.296-0.081-0.657 1.058-0.76 1.38-1.537-0.413-0.2-1.506 0.221-1.984 0.343-2.156 0.55-4.519 0.842-6.776 0.89-4.431 0.095-8.030-1.287-8.933-1.291 0.597 1.188 1.48 0.982 1.22 1.724-0.324 0.924-1.555-0.357-1.732-0.554zM10.408 12.438c-1.646 0-2.61 0.425-3.312 1.535-0.813 1.287-0.545 2.244-0.372 3.749 0.982-0.147 1.412 0.093 2.306 0.325 0.737 0.191 1.468 0.333 2.235 0.483 3.897 0.762 8.198 0.468 11.998-0.569 1.054-0.288 1.154-0.42 2.252-0.129 0.301-1.256 0.497-1.586-0.063-2.789-1.213-2.607-3.19-3.055-3.040-7.071-0.666 0.383-3.308 3.817-8.103 4.61-1.643 0.271-2.45-0.144-3.901-0.144zM5.702 18.713c0.115-0.363 0.163-0.188 0.037-0.629-0.077-0.271-0.132-0.452-0.187-0.756-0.105-0.574-0.108-1.071-0.108-1.671-1.356 0.056-1.323 2.547 0.258 3.056zM26.349 18.673c0.569-0.143 0.943-0.624 1.096-1.265 0.229-0.958-0.089-1.143-0.486-1.648-0.078 0.553-0.042 0.972-0.167 1.539-0.129 0.59-0.305 0.868-0.443 1.373z"></path>
</svg>
