<!-- Generated by IcoMoon.io -->
<svg version="1.1" xmlns="http://www.w3.org/2000/svg" width="32" height="32" viewBox="0 0 32 32">
<title>mercado-pago-logo</title>
<path fill="#253e8b" d="M29.338 15.355c0-3.427-4.258-6.22-9.511-6.22s-9.511 2.793-9.511 6.22c0 0.089-0.001 0.334-0.001 0.365 0 3.636 3.722 6.581 9.511 6.581 5.825 0 9.512-2.944 9.512-6.58 0-0.127 0-0.2 0-0.365z"></path>
<path fill="#00aeef" d="M28.975 15.353c0 3.231-4.095 5.85-9.146 5.85s-9.145-2.619-9.145-5.85c0-3.232 4.095-5.851 9.145-5.851s9.146 2.619 9.146 5.851z"></path>
<path fill="#fff" d="M16.792 13.507c-0.005 0.009-0.096 0.104-0.037 0.179 0.144 0.185 0.59 0.29 1.041 0.189 0.268-0.060 0.612-0.333 0.945-0.598 0.361-0.286 0.719-0.573 1.079-0.688 0.381-0.122 0.626-0.069 0.787-0.021 0.177 0.053 0.385 0.169 0.718 0.419 0.626 0.47 3.142 2.667 3.576 3.047 0.35-0.159 1.906-0.828 4.021-1.294-0.184-1.127-0.87-2.159-1.91-3.004-1.449 0.609-3.221 0.927-4.953 0.081-0.009-0.004-0.947-0.447-1.871-0.425-1.375 0.031-1.97 0.627-2.6 1.256l-0.798 0.86z"></path>
<path fill="#fff" d="M24.801 16.271c-0.030-0.026-2.959-2.589-3.622-3.087-0.384-0.288-0.598-0.362-0.822-0.391-0.117-0.015-0.278 0.007-0.391 0.038-0.309 0.084-0.712 0.354-1.071 0.638-0.371 0.296-0.72 0.574-1.045 0.647-0.415 0.093-0.921-0.017-1.152-0.173-0.094-0.063-0.16-0.136-0.191-0.21-0.085-0.198 0.072-0.357 0.098-0.383l0.809-0.874c0.094-0.093 0.188-0.187 0.285-0.279-0.261 0.034-0.502 0.1-0.736 0.165-0.293 0.082-0.574 0.161-0.86 0.161-0.119 0-0.756-0.105-0.877-0.138-0.731-0.2-1.374-0.395-2.332-0.843-1.149 0.856-1.918 1.925-2.14 3.103 0.165 0.044 0.431 0.123 0.543 0.148 2.6 0.578 3.41 1.174 3.557 1.298 0.159-0.177 0.388-0.289 0.645-0.289 0.287 0.001 0.547 0.144 0.704 0.368 0.148-0.118 0.354-0.218 0.62-0.218 0.12 0 0.246 0.023 0.372 0.065 0.294 0.101 0.445 0.296 0.523 0.473 0.099-0.045 0.22-0.077 0.362-0.077 0.14 0 0.286 0.032 0.432 0.095 0.48 0.206 0.554 0.677 0.511 1.031 0.034-0.003 0.069-0.005 0.103-0.005 0.569 0.001 1.031 0.462 1.031 1.031 0 0.176-0.045 0.341-0.124 0.486 0.155 0.088 0.549 0.284 0.896 0.24 0.277-0.035 0.381-0.129 0.419-0.183 0.026-0.036 0.053-0.079 0.027-0.109l-0.734-0.816c0 0-0.121-0.115-0.081-0.158 0.041-0.046 0.116 0.019 0.168 0.064 0.374 0.312 0.83 0.782 0.83 0.782 0.007 0.006 0.038 0.065 0.207 0.096 0.145 0.026 0.402 0.010 0.58-0.136 0.045-0.037 0.090-0.083 0.127-0.131-0.002 0.002-0.005 0.006-0.008 0.007 0.187-0.24-0.021-0.483-0.021-0.483l-0.857-0.962c0 0-0.123-0.113-0.081-0.159 0.038-0.040 0.116 0.021 0.171 0.065 0.27 0.227 0.654 0.611 1.022 0.971 0.071 0.053 0.395 0.253 0.821-0.029 0.26-0.17 0.312-0.379 0.304-0.537-0.018-0.208-0.181-0.357-0.181-0.357l-1.17-1.177c0 0-0.124-0.105-0.080-0.159 0.036-0.045 0.116 0.020 0.168 0.064 0.373 0.312 1.382 1.238 1.382 1.238 0.014 0.010 0.363 0.258 0.793-0.016 0.155-0.099 0.253-0.247 0.262-0.42 0.014-0.299-0.197-0.477-0.197-0.477z"></path>
<path fill="#fff" d="M19.125 17.763c-0.182-0.002-0.38 0.105-0.405 0.090-0.014-0.010 0.011-0.082 0.028-0.125s0.256-0.761-0.326-1.010c-0.446-0.191-0.718 0.024-0.811 0.121-0.025 0.026-0.035 0.023-0.039-0.009-0.009-0.129-0.067-0.479-0.451-0.597-0.549-0.168-0.903 0.216-0.993 0.355-0.040-0.314-0.305-0.557-0.629-0.557-0.353 0-0.639 0.285-0.639 0.638s0.285 0.638 0.638 0.638c0.171 0.001 0.326-0.068 0.441-0.178 0.003 0.003 0.005 0.009 0.003 0.021-0.026 0.157-0.076 0.731 0.525 0.965 0.241 0.093 0.446 0.023 0.616-0.095 0.050-0.036 0.059-0.021 0.052 0.026-0.021 0.148 0.006 0.464 0.449 0.643 0.337 0.137 0.536-0.003 0.667-0.124 0.057-0.052 0.072-0.044 0.074 0.037 0.016 0.427 0.371 0.766 0.801 0.766 0.444 0 0.803-0.358 0.803-0.802s-0.358-0.799-0.802-0.803z"></path>
<path fill="#253e8b" d="M19.125 19.311c-0.402-0.001-0.729-0.313-0.744-0.711-0.001-0.034-0.004-0.125-0.081-0.125-0.032 0-0.060 0.019-0.091 0.048-0.088 0.082-0.2 0.166-0.365 0.166-0.075 0-0.156-0.018-0.241-0.053-0.425-0.172-0.431-0.463-0.413-0.581 0.005-0.032 0.006-0.064-0.015-0.089l-0.026-0.023h-0.026c-0.021 0-0.044 0.009-0.074 0.030-0.123 0.086-0.241 0.128-0.361 0.128-0.066 0-0.133-0.013-0.201-0.040-0.559-0.218-0.514-0.745-0.487-0.904 0.004-0.033-0.004-0.057-0.025-0.074l-0.040-0.033-0.037 0.035c-0.109 0.105-0.252 0.163-0.401 0.163-0.321-0.001-0.581-0.261-0.581-0.581s0.261-0.58 0.581-0.58c0.289 0 0.535 0.218 0.573 0.507l0.019 0.156 0.086-0.132c0.010-0.015 0.244-0.371 0.675-0.37 0.082 0 0.167 0.013 0.252 0.040 0.344 0.105 0.402 0.416 0.411 0.547 0.006 0.075 0.060 0.079 0.071 0.079 0.029 0 0.051-0.019 0.066-0.035 0.065-0.068 0.206-0.18 0.427-0.18 0.101 0 0.21 0.024 0.32 0.072 0.546 0.235 0.299 0.929 0.296 0.936-0.047 0.115-0.049 0.166-0.005 0.195l0.022 0.010h0.016c0.025 0 0.055-0.011 0.105-0.028 0.074-0.026 0.187-0.064 0.291-0.064h0.001c0.411 0.005 0.746 0.34 0.746 0.746-0.001 0.411-0.335 0.744-0.746 0.744zM24.914 15.965c-0.903-0.787-2.988-2.6-3.552-3.024-0.323-0.243-0.543-0.371-0.736-0.428-0.086-0.026-0.207-0.056-0.362-0.056-0.143 0-0.297 0.026-0.459 0.077-0.365 0.116-0.728 0.405-1.081 0.684l-0.018 0.014c-0.327 0.261-0.665 0.53-0.922 0.587-0.112 0.025-0.227 0.038-0.341 0.038-0.287 0-0.545-0.083-0.642-0.206-0.016-0.021-0.006-0.054 0.032-0.101l0.006-0.006 0.794-0.856c0.621-0.622 1.208-1.208 2.56-1.239 0.022-0.001 0.045-0.001 0.068-0.001 0.841 0.001 1.682 0.377 1.776 0.421 0.789 0.385 1.604 0.58 2.422 0.581 0.853 0.001 1.734-0.211 2.66-0.637-0.104-0.086-0.211-0.171-0.322-0.254-0.813 0.352-1.587 0.53-2.335 0.53-0.763-0.001-1.526-0.184-2.267-0.546-0.039-0.018-0.967-0.456-1.934-0.457-0.025 0-0.051 0.001-0.076 0.001-1.135 0.026-1.775 0.43-2.205 0.783-0.417 0.010-0.779 0.111-1.1 0.201-0.287 0.079-0.534 0.148-0.775 0.148-0.1 0-0.278-0.009-0.294-0.010-0.278-0.009-1.676-0.351-2.788-0.773-0.113 0.081-0.222 0.163-0.329 0.248 1.162 0.476 2.576 0.845 3.022 0.873 0.124 0.009 0.257 0.023 0.389 0.023 0.296 0 0.59-0.082 0.875-0.163 0.168-0.048 0.354-0.099 0.55-0.136-0.053 0.052-0.105 0.103-0.157 0.155l-0.806 0.872c-0.064 0.065-0.202 0.236-0.111 0.446 0.036 0.085 0.109 0.167 0.212 0.235 0.191 0.129 0.535 0.217 0.856 0.218 0.121 0 0.236-0.013 0.341-0.036 0.338-0.076 0.693-0.358 1.069-0.657 0.299-0.238 0.724-0.539 1.050-0.628 0.090-0.025 0.203-0.040 0.292-0.040 0.027 0.001 0.052 0.001 0.076 0.005 0.215 0.027 0.423 0.1 0.794 0.379 0.663 0.497 3.592 3.060 3.62 3.086 0.002 0.002 0.188 0.162 0.176 0.43-0.007 0.149-0.090 0.282-0.234 0.375-0.125 0.079-0.254 0.119-0.384 0.119-0.196 0-0.33-0.092-0.34-0.098-0.011-0.009-1.014-0.929-1.384-1.238-0.059-0.049-0.116-0.093-0.174-0.093-0.030 0-0.058 0.013-0.077 0.036-0.058 0.072 0.007 0.171 0.084 0.237l1.172 1.177c0.002 0.002 0.146 0.137 0.162 0.318 0.010 0.195-0.084 0.358-0.278 0.486-0.138 0.091-0.278 0.137-0.415 0.137-0.18 0-0.307-0.082-0.334-0.101l-0.168-0.166c-0.307-0.302-0.624-0.615-0.857-0.809-0.057-0.047-0.117-0.090-0.175-0.090-0.028 0-0.054 0.010-0.074 0.031-0.026 0.030-0.045 0.082 0.022 0.17 0.027 0.036 0.059 0.066 0.059 0.066l0.856 0.962c0.007 0.009 0.176 0.21 0.019 0.41l-0.031 0.038c-0.025 0.029-0.053 0.055-0.079 0.077-0.146 0.12-0.341 0.133-0.418 0.133-0.041 0-0.081-0.004-0.116-0.010-0.084-0.015-0.141-0.038-0.169-0.072l-0.010-0.010c-0.046-0.048-0.478-0.488-0.835-0.786-0.046-0.040-0.105-0.089-0.166-0.089-0.030 0-0.057 0.011-0.078 0.035-0.070 0.077 0.035 0.192 0.080 0.235l0.73 0.804c-0.001 0.007-0.010 0.024-0.028 0.049-0.026 0.036-0.115 0.125-0.379 0.158-0.032 0.005-0.064 0.006-0.097 0.006-0.273 0-0.564-0.132-0.714-0.212 0.068-0.144 0.104-0.304 0.104-0.462 0-0.601-0.487-1.090-1.088-1.090-0.013 0-0.026 0-0.039 0.001 0.019-0.274-0.019-0.793-0.553-1.022-0.153-0.066-0.306-0.1-0.455-0.1-0.117 0-0.229 0.020-0.333 0.060-0.111-0.215-0.294-0.371-0.533-0.452-0.132-0.045-0.264-0.069-0.391-0.069-0.222 0-0.426 0.065-0.609 0.195-0.175-0.217-0.438-0.346-0.716-0.346-0.243 0-0.477 0.097-0.65 0.269-0.227-0.174-1.128-0.746-3.54-1.294-0.117-0.026-0.384-0.103-0.549-0.151-0.027 0.13-0.048 0.262-0.062 0.395 0 0 0.445 0.107 0.533 0.127 2.464 0.547 3.277 1.116 3.415 1.223-0.047 0.112-0.071 0.233-0.071 0.355-0.001 0.509 0.413 0.923 0.923 0.924 0.057 0 0.114-0.005 0.169-0.015 0.077 0.375 0.322 0.659 0.696 0.805 0.11 0.042 0.22 0.064 0.329 0.064 0.070 0 0.141-0.009 0.21-0.026 0.069 0.176 0.225 0.395 0.573 0.536 0.122 0.049 0.244 0.074 0.363 0.074 0.097 0 0.191-0.017 0.282-0.050 0.167 0.406 0.564 0.675 1.006 0.675 0.294 0.001 0.575-0.119 0.781-0.33 0.176 0.098 0.546 0.275 0.921 0.275 0.049 0 0.095-0.004 0.14-0.009 0.373-0.046 0.546-0.193 0.625-0.306 0.014-0.019 0.027-0.041 0.038-0.062 0.088 0.026 0.184 0.046 0.295 0.046 0.203 0 0.399-0.069 0.596-0.214 0.194-0.139 0.332-0.34 0.351-0.51 0.001-0.003 0.001-0.005 0.002-0.007 0.065 0.013 0.132 0.020 0.199 0.020 0.209 0 0.415-0.065 0.612-0.194 0.38-0.249 0.446-0.573 0.439-0.786 0.066 0.014 0.134 0.021 0.202 0.021 0.196 0 0.389-0.058 0.573-0.176 0.235-0.151 0.377-0.381 0.398-0.649 0.015-0.182-0.030-0.365-0.126-0.523 0.636-0.274 2.089-0.803 3.8-1.189-0.010-0.133-0.029-0.264-0.053-0.395-2.070 0.46-3.615 1.128-4.002 1.301z"></path>
</svg>
