<!-- Generated by IcoMoon.io -->
<svg version="1.1" xmlns="http://www.w3.org/2000/svg" width="32" height="32" viewBox="0 0 32 32">
<title>mercado-libre</title>
<path fill="#f2ce00" d="M3.505 20.579c0.084 0.223-0.141 0.061 0.187 0.395 0.373 0.381 1.627 1.28 2.082 1.566 0.853 0.536 1.812 0.979 2.869 1.373 4.343 1.62 10.174 1.69 14.529 0.059 1.058-0.396 1.985-0.829 2.879-1.36 0.587-0.348 2.075-1.342 2.263-1.853-0.375-0.53-0.652-0.325-1.335-0.179-2.787 0.594-5.681 0.531-8.513 0.298-1.224-0.101-2.137-0.185-2.578-1.077-0.823 0.747-0.394 0.887-2.629 1.076-2.575 0.218-4.219 0.293-6.801-0.026-0.673-0.083-2.503-0.611-2.953-0.271z"></path>
<path fill="#f2ce00" d="M10.469 7.176c0.499 0.71 0.968 0.946 1.69 2.279 0.655 1.21 2.515 5.466 3.125 6.967 0.18 0.442 0.34 1.105 0.597 1.469 0.204-0.795 1.928-4.713 2.367-5.71 2.084-4.742 2.354-3.915 3.053-5.074-1.888-0.381-3.383-0.641-5.426-0.632-1.339 0.005-4.313 0.237-5.407 0.702z"></path>
<path fill="#f2ce00" d="M22.127 9.847c-0.251 1.096-0.766 1.756-0.771 3.184-0.005 1.453-0.011 2.383-0.135 3.816 0.65-0.19 1.328-0.481 2.012-0.698 2.615-0.832 4.589-1.077 7.372-0.9-0.306-2.457-1.543-3.771-2.811-4.975-0.241-0.23-0.722-0.576-1.055-0.811-0.516-0.367-0.651-0.518-1.454-0.34-1.432 0.318-1.437 0.751-3.159 0.726z"></path>
<path fill="#f2ce00" d="M1.343 15.316c1.873-0.162 3.153-0.128 4.973 0.243 2.141 0.437 2.851 0.928 4.145 1.265-0.021-0.579-0.125-1.148-0.144-1.754-0.061-2.019 0.315-2.999-0.816-5.238-1.179 0.126-1.948-0.418-2.976-0.68-0.754-0.192-0.832-0.002-1.323 0.326-0.36 0.241-0.809 0.572-1.116 0.838-1.413 1.23-2.606 3.001-2.744 4.998z"></path>
<path fill="#fefefe" d="M21.982 20.529c2.227 0 3.326-0.208 5.379-0.588 0.984-0.182 0.925 0.115 1.432 0.468 0.394-0.428 0.925-1.242 1.261-1.934 0.348-0.716 0.558-1.752 0.585-2.67-2.617-0.207-3.461-0.176-6.307 0.59-0.679 0.183-1.371 0.391-2.004 0.627-0.596 0.222-1.422 0.625-1.973 0.778 0.384-1.535 0.495-1.317 0.504-3.326 0.006-1.543-0.124-2.107 0.34-3.583 0.752-2.393 0.637-1.125 2.217-1.681 0.503-0.178 0.829-0.362 1.426-0.527 0.427-0.119 1.271-0.065 1.388-0.569-0.629-0.358-1.141 0.48-1.996 0.205-0.926-0.297-0.822 0.835-1.7 0.601 0.277-0.305 0.564-0.52 0.849-0.846 0.547-0.626 0.443-0.456 0.213-1.219 0.302 0.141 0.27 0.254 0.57 0.385 0.169-0.216 0.192-0.317 0.318-0.533l0.051 0.562 0.276 0.040c-0.184 0.101-0.045 0.004-0.137 0.1l-0.146 0.184c-0.356-0.193-0.49-0.165-0.59 0.29 0.472 0.129 0.733 0.245 1.102-0.020 1.314-0.944 0.171-1.348-0.393-1.734-0.957-0.656-0.833-1.008-3.224 1.678-2.083 2.341-2.669 4.762-4.004 7.698-0.379 0.832-0.889 1.863-1.099 2.802-0.361 1.617 0.469 1.894 1.846 2.007 1.259 0.103 2.547 0.215 3.819 0.215z"></path>
<path fill="#fefefe" d="M6.017 7.011c0.109 0.342 0.429 0.645 0.643 0.825 0.338 0.286 0.62 0.228 1.073 0.023l-0.066-0.361c-0.215-0.041-0.335 0.017-0.525 0.086-0.123-0.302 0.034-0.114-0.233-0.262 0.427-0.162 0.212-0.1 0.349-0.62l0.196 0.51c0.387-0.096 0.334-0.237 0.666-0.334-0.324 0.597-0.238 0.668 0.16 1.111 0.246 0.273 0.767 0.673 0.886 0.955-1.023 0.115-0.714-0.948-1.727-0.619-0.504 0.164-0.501 0.061-0.908-0.109-0.29-0.121-0.781-0.28-1.061-0.103 0.089 0.501 0.508 0.321 1.362 0.564 0.604 0.172 0.893 0.331 1.427 0.521 1.605 0.571 1.479-0.714 2.236 1.667 0.46 1.448 0.349 1.988 0.347 3.524-0.002 2.535 0.352 2.383 0.503 3.439-2.41-1.188-6.114-2.267-9.189-2.056-0.333 0.023-0.643-0.010-0.818 0.229 0 0.996 0.195 1.673 0.542 2.461 0.145 0.329 0.342 0.654 0.515 0.925l0.46 0.641c0.145 0.155 0.076 0.094 0.245 0.214 0.646-0.675 1.357-0.206 2.845-0.002 3.142 0.431 4.471 0.323 7.632 0.073 1.365-0.108 2.141-0.395 1.805-1.962-0.215-1.007-1.747-4.355-2.245-5.55-1.322-3.168-2.22-4.691-4.766-6.934-0.537-0.473-0.832-0.080-1.293 0.237-0.417 0.287-0.834 0.474-1.063 0.908z"></path>
<path fill="#313673" d="M3.505 20.579c0.084 0.223-0.141 0.061 0.187 0.395 0.373 0.381 1.627 1.28 2.082 1.566 0.853 0.536 1.812 0.979 2.869 1.373 4.343 1.62 10.174 1.69 14.529 0.059 1.058-0.396 1.985-0.829 2.879-1.36 0.587-0.348 2.075-1.342 2.263-1.853-0.375-0.53-0.652-0.325-1.335-0.179-2.787 0.594-5.681 0.531-8.513 0.298-1.224-0.101-2.137-0.185-2.578-1.077-0.823 0.747-0.394 0.887-2.629 1.076-2.575 0.218-4.219 0.293-6.801-0.026-0.673-0.083-2.503-0.611-2.953-0.271zM7.85 5.061c-0.351 0.052-0.723 0.353-1.369 0.781-0.364 0.241-1.035 0.626-1.035 1.17 0 0.229 0.041 0.234 0.085 0.424-1.019 0.489-0.621 0.596-0.424 1.441-0.399 0.107-1.231 0.871-1.547 1.167-0.549 0.512-0.802 0.702-1.35 1.449-1.504 2.051-1.513 3.068-1.513 5.44 0 1.062 0.494 2.615 0.99 3.504 0.595 1.064 1.215 1.703 2.041 2.539 0.56 0.566 0.743 0.624 1.27 1.020 1.149 0.864 3.207 1.757 4.705 2.164 1.593 0.433 3.366 0.702 5.192 0.78h2.221c3.909-0.168 7.828-1.237 10.561-3.464 0.865-0.704 1.704-1.59 2.282-2.551 0.392-0.652 0.735-1.31 0.977-2.16 0.476-1.676 0.538-3.675-0.109-5.334-0.325-0.836-0.605-1.231-1.059-1.909-0.206-0.306-0.413-0.493-0.651-0.791-0.502-0.629-1.777-1.557-2.472-2.022 0.438-0.912-0.068-1.061-0.509-1.272 0.361-0.752-0.356-1.226-0.779-1.511-0.718-0.483-1.111-0.776-1.42-0.864h-0.369c-0.313 0.1-0.648 0.459-1.338 1.097-0.795 0.735 0.057 0.378-3.201-0.094l-3.154-0.244c-0.404 0.014-0.391 0.070-0.762 0.090-1.897 0.101-1.751 0.023-3.809 0.431-0.498 0.098-0.892 0.222-1.364 0.332-0.234-0.349-0.562-0.602-0.868-0.912-0.44-0.445-0.736-0.657-1.015-0.699h-0.207zM1.343 15.316c0.137-1.997 1.33-3.769 2.744-4.998 0.307-0.267 0.755-0.598 1.116-0.838 0.491-0.329 0.569-0.518 1.323-0.326 1.027 0.262 1.797 0.806 2.976 0.68 1.13 2.239 0.754 3.22 0.816 5.238 0.018 0.606 0.123 1.175 0.144 1.754-1.294-0.337-2.004-0.828-4.145-1.265-1.819-0.371-3.1-0.405-4.973-0.243zM22.127 9.847c1.722 0.026 1.727-0.408 3.159-0.726 0.803-0.178 0.938-0.027 1.454 0.34 0.333 0.236 0.814 0.582 1.055 0.811 1.267 1.205 2.504 2.519 2.811 4.975-2.783-0.176-4.757 0.068-7.372 0.9-0.684 0.217-1.362 0.508-2.012 0.698 0.124-1.433 0.131-2.362 0.135-3.816 0.005-1.428 0.52-2.089 0.771-3.184zM10.469 7.176c1.093-0.464 4.068-0.696 5.407-0.702 2.042-0.009 3.538 0.251 5.426 0.632-0.7 1.159-0.97 0.332-3.053 5.074-0.439 0.998-2.162 4.915-2.367 5.71-0.257-0.364-0.417-1.027-0.597-1.469-0.61-1.501-2.469-5.757-3.125-6.967-0.722-1.333-1.191-1.569-1.69-2.279zM21.982 20.529c-1.272 0-2.56-0.112-3.819-0.215-1.377-0.112-2.207-0.39-1.846-2.007 0.21-0.939 0.72-1.97 1.099-2.802 1.335-2.936 1.92-5.357 4.004-7.698 2.391-2.686 2.267-2.334 3.224-1.678 0.564 0.387 1.707 0.79 0.393 1.734-0.369 0.265-0.63 0.149-1.102 0.020 0.1-0.456 0.234-0.483 0.59-0.29l0.146-0.184c0.093-0.096-0.047 0.001 0.137-0.1l-0.276-0.040-0.051-0.562c-0.126 0.216-0.148 0.317-0.318 0.533-0.3-0.131-0.267-0.244-0.57-0.385 0.23 0.763 0.334 0.593-0.213 1.219-0.285 0.326-0.572 0.541-0.849 0.846 0.878 0.234 0.774-0.898 1.7-0.601 0.854 0.275 1.366-0.563 1.996-0.205-0.117 0.504-0.961 0.45-1.388 0.569-0.597 0.165-0.923 0.349-1.426 0.527-1.579 0.556-1.465-0.712-2.217 1.681-0.464 1.476-0.334 2.040-0.34 3.583-0.009 2.009-0.12 1.791-0.504 3.326 0.551-0.152 1.377-0.555 1.973-0.778 0.633-0.236 1.325-0.444 2.004-0.627 2.847-0.766 3.69-0.797 6.307-0.59-0.026 0.918-0.236 1.953-0.585 2.67-0.336 0.692-0.867 1.506-1.261 1.934-0.506-0.353-0.447-0.65-1.432-0.468-2.053 0.379-3.153 0.588-5.379 0.588zM6.017 7.011c0.23-0.434 0.646-0.62 1.063-0.908 0.461-0.317 0.755-0.71 1.293-0.237 2.547 2.243 3.444 3.766 4.766 6.934 0.498 1.195 2.030 4.543 2.245 5.55 0.336 1.567-0.439 1.854-1.804 1.962-3.161 0.25-4.49 0.358-7.632-0.073-1.488-0.204-2.199-0.673-2.845 0.002-0.169-0.12-0.1-0.060-0.245-0.214l-0.46-0.641c-0.172-0.271-0.369-0.597-0.515-0.925-0.347-0.788-0.542-1.465-0.542-2.461 0.175-0.239 0.485-0.206 0.818-0.229 3.075-0.211 6.779 0.869 9.189 2.056-0.151-1.055-0.506-0.904-0.503-3.439 0.002-1.536 0.113-2.075-0.347-3.524-0.757-2.381-0.631-1.096-2.236-1.667-0.533-0.19-0.823-0.349-1.427-0.521-0.854-0.243-1.273-0.064-1.362-0.564 0.28-0.177 0.771-0.018 1.061 0.103 0.407 0.169 0.404 0.273 0.908 0.109 1.013-0.329 0.704 0.734 1.727 0.619-0.119-0.282-0.64-0.681-0.886-0.955-0.399-0.443-0.484-0.514-0.16-1.111-0.332 0.097-0.279 0.238-0.666 0.334l-0.196-0.51c-0.137 0.52 0.077 0.458-0.349 0.62 0.267 0.148 0.111-0.041 0.233 0.262 0.19-0.070 0.31-0.127 0.525-0.086l0.066 0.361c-0.454 0.205-0.735 0.263-1.073-0.023-0.214-0.18-0.534-0.483-0.643-0.825z"></path>
</svg>
