<?xml version="1.0" encoding="UTF-8"?>
<!DOCTYPE svg PUBLIC "-//W3C//DTD SVG 1.1//EN" "http://www.w3.org/Graphics/SVG/1.1/DTD/svg11.dtd">
<!-- Creator: CorelDRAW 2017 -->
<svg xmlns="http://www.w3.org/2000/svg" xml:space="preserve" width="209.88mm" height="205.8mm" version="1.1" style="shape-rendering:geometricPrecision; text-rendering:geometricPrecision; image-rendering:optimizeQuality; fill-rule:evenodd; clip-rule:evenodd"
viewBox="0 0 20988 20579.98"
 xmlns:xlink="http://www.w3.org/1999/xlink">
 <defs>
  <style type="text/css">
   <![CDATA[
    .fil0 {fill:#2B2A29}
   ]]>
  </style>
 </defs>
 <g id="Capa_x0020_1">
  <metadata id="CorelCorpID_0Corel-Layer"/>
  <path class="fil0" d="M5425.44 11454.31c0,-1153.43 34.58,-1992.07 809.26,-3030.99 139.52,-187.12 282.4,-399.32 435.85,-571.75 712.31,-800.42 1951.09,-1916.94 3185.18,-1324.73 446.18,214.11 812.64,787.48 926.89,1277.18 416.73,-111.11 737.36,-1444.68 2260.65,-306.41 341.07,254.86 499.63,463.23 729.56,844.87 834.84,1385.64 936.8,3355.27 485.05,4819.94 -140.3,454.86 -490.23,1038.88 -513.06,1312.82 2647.98,0 2067.07,2416.08 -725.44,3806.97 -255.74,127.38 -429.09,199.37 -697.08,310.9 -369.02,153.57 -1134.35,505.71 -1539.68,539.39 -36.88,-78.15 -22.24,12.02 -19.24,-93.17 0.05,-1.62 17.51,-137.77 19.24,-158.57 -118.06,78.95 -371.46,284.5 -488.3,393.5 -735.37,686.04 -1858.84,1179.54 -2851.42,612.84 -156.57,-89.4 -546.13,-383.33 -668.17,-528.56 -354,-421.28 -863.36,-1202.53 -1097.18,-1358.89 25.28,303.43 124.62,290.17 189.07,566.43 -427.4,-225.83 -717.26,-476.22 -1116.64,-773.03 -393.09,-292.15 -699.42,-570.22 -1042.04,-910.45 -2141.21,-2126.32 -1544.59,-4894.87 1112.84,-4320.99 1423.11,307.32 604.66,368.36 604.66,-1107.3zm2710.1 6913.63c73.96,296.75 126.38,336.62 315.13,386.95 -6.26,-280.69 -91.94,-383.11 -189.07,-566.43l725.97 0c496.69,153.71 801.26,347.91 912.69,377.62 -57.46,689.54 -1999.96,1171.71 -2874.07,37.87 -217.41,-282.01 -456.27,-532.98 -466.29,-981.91 418.81,0 645.53,46 921.59,212.57 299.2,180.54 421.4,400.08 654.05,533.33zm3025.23 -5214.36c10.04,-120.4 729.63,-1738.85 -252.1,-1510.46 0,-494.43 251.94,-2013.95 819.33,-2013.95 469.51,0 378.16,1181.93 378.16,1573.4 0,361.28 -329.19,1807.66 -945.39,1951.01zm-1953.79 -503.49c7.01,-314.18 309.94,-988.13 -58.62,-1388.99 -281,-305.63 -564.24,-7.23 -634.66,256.15 -169.03,-123.67 -136.99,13.53 -114.67,-291.71 217.86,-2979.72 1438.21,-2976.87 1438.21,-1344.63 0,497.87 -23.87,2607.5 -630.26,2769.18zm-1008.41 -1447.52c0,985.18 189.08,1088.92 189.08,1636.33 -265.11,22.03 -444.97,85.1 -567.23,251.75 898.49,0 1226.48,-362.7 2796.74,102.28 433.86,128.47 867.9,386.25 1047.82,401.2 -61.56,-230.21 -66.5,-131.88 -189.08,-314.68 670.47,-770.26 882.36,-1426.2 882.36,-2580.37 0,-1393.57 -924.77,-2070.06 -1458.32,-323.4 -891.71,2919.08 288.61,2470.59 -1314.81,2337.35 14.48,-173.67 233.82,-522.96 373.1,-1012.02 110.4,-387.65 100.49,-770.87 168.56,-1217.94 46.42,-304.84 -34.22,-985.56 -96.99,-1235 -402.89,-1601.22 -1831.23,-525 -1831.23,1954.5zm-4537.84 3272.67c369.72,-30.72 340.86,-188.81 882.35,-188.81 149.45,640.54 366.87,1113.7 692.85,1573.84 527.58,744.71 489.94,619.49 811,1518.78 593.95,1663.65 2089.73,3002.1 3980.68,1565.94l1181.29 -1023.15c472.83,-283.55 1042.11,-313.18 2104.68,-1170.98 151.34,-122.18 421.16,-513.41 620.32,-513.41 301.03,0 45.29,209.12 441.18,314.68 -12.67,-567.77 -917.62,-1094.46 -1197.49,-692.3 219.98,51.18 328.98,96.22 504.21,188.81 -173.95,328.28 -341.49,438.87 -692.74,692.83 -1443.25,1043.53 -3605.95,1220.87 -5272.82,669.91 -311.28,-102.89 -518.72,-226.77 -778.66,-355.29 -779.07,-385.2 -1349.28,-991.14 -1743.36,-1783.54 -122.98,-247.28 -287.07,-518.62 -345.78,-800.6 -88.19,-423.63 250.9,-248.46 703.05,-248.46 -399.2,-595.3 -1757.52,-246.56 -1890.76,251.75zm4033.64 -125.87c0,1635.02 3970.61,1771.85 3970.61,377.61 0,-1744.48 -3970.61,-1986.77 -3970.61,-377.61zm-3518.1 -14349.41l927.48 0c481.44,55.67 948.72,197.26 1350.93,419.75 285.91,158.16 683.18,463.32 872.26,702.38 1202.92,1520.87 1028.04,3282.56 241.37,4919.73 389.6,0 575.86,-29.72 925.68,-82.62 188.72,-28.53 664.37,-70.51 858.3,-91.09 322.89,-34.26 1303.96,142.54 1646.46,209.63 1329.65,260.44 1830.82,805.79 2620.02,1222.8 -6.56,-294.25 -104.81,-495.85 -162.44,-781.83 -272.23,-1350.75 145.16,-2810.93 874.01,-3668.37 1504.11,-1769.51 4144.2,-1644.62 5429.41,17.17 878.37,1135.75 1233.02,1699.76 1233.02,3174.31 0,743.1 -465.85,1711.12 -835.6,2241.49 -392.89,563.59 -998.42,1118.74 -1621.56,1409.63 -1242.6,580.05 -2271.95,187.7 -3026.07,125.04 142.18,295.88 284.59,844.36 378.7,1195.24 585.63,2183.59 -252.65,3950.12 -252.65,4028.44 0,156.48 633.83,1209.81 -998.47,2527.37 -259.27,209.27 -631.55,471.17 -935.41,639.31 -192.73,106.65 -296.98,175.87 -481.04,274.89 -701.41,377.32 -1955.84,779.81 -3151.51,1447.29 -664.62,371.02 -1166.64,594.31 -1613.28,649.51l-421.03 0c-556.08,-73.94 -1076.3,-451.55 -1805.83,-1180.05 -299.66,-299.24 -448.02,-474.81 -803.29,-708.31 -1295.11,-851.2 -3340.64,-2566.44 -3340.64,-4216.43 0,-1608.7 388.84,-455.57 377.76,-2140.21 -15.1,-2296.11 1635.7,-3860.09 1891.16,-4342.2 -893.13,0 -2210.63,335.68 -3419.23,-739.41 -920.64,-818.95 -929.49,-1499.05 -929.54,-2606.09l0 -53.04c0,-1844.84 1689.03,-3748.76 3302.06,-4380.83 273.95,-107.35 567.83,-178.07 868.97,-213.5z"/>
 </g>
</svg>
