<?xml version="1.0" encoding="UTF-8"?>
<!DOCTYPE svg PUBLIC "-//W3C//DTD SVG 1.1//EN" "http://www.w3.org/Graphics/SVG/1.1/DTD/svg11.dtd">
<!-- Creator: CorelDRAW 2017 -->
<svg xmlns="http://www.w3.org/2000/svg" xml:space="preserve" width="23.082mm" height="15mm" version="1.1" style="shape-rendering:geometricPrecision; text-rendering:geometricPrecision; image-rendering:optimizeQuality; fill-rule:evenodd; clip-rule:evenodd"
viewBox="0 0 2308.2 1500"
 xmlns:xlink="http://www.w3.org/1999/xlink">
 <defs>
  <style type="text/css">
   <![CDATA[
    .fil0 {fill:#2B2A29}
   ]]>
  </style>
 </defs>
 <g id="Capa_x0020_1">
  <metadata id="CorelCorpID_0Corel-Layer"/>
  <g id="_2188923243440">
   <path class="fil0" d="M529.97 157.33l-0.79 0c-23.04,66.62 -78.33,67.36 -135.26,133.45 -7.71,8.96 -16.09,20.47 -22.79,31.77 -68.48,115.45 -14.09,219.93 74.18,294 12.27,10.3 47.44,37.15 70.91,37.8 -31.36,-14.68 -64.75,-58.79 -82.82,-86.65 -20.83,-32.13 -41.71,-83.55 -39.21,-132.79 3.78,-74.42 98.6,-182.07 136.07,-205.4 10.83,5.35 74.4,70.95 84.44,83.57 25.77,32.38 50.34,65.04 61.12,108.82 1.74,7.05 3.05,14.18 3.72,21.16 0.81,8.47 -0.47,16.15 3.55,21.02 21.94,-7.66 26.11,-73.68 20.54,-99.55 -7.75,-35.89 -31.04,-56.88 -47.94,-78.45 -12.42,-15.85 -65.28,-63.21 -81.51,-75.99 -6.63,-5.21 -12.08,-9.78 -17.9,-14.83 -12.24,-10.61 -17.13,-20.47 -26.31,-37.93z"/>
   <path class="fil0" d="M524.16 587.77c7.56,8.1 38.94,22.58 49.04,-13.22 5.72,-20.32 0.88,-54.33 -3.49,-74.45 -7.05,-32.5 -32.85,-94.22 -54.86,-108.94 9.09,37.69 17.41,46.54 21.52,95.26 4.2,49.9 -1.59,60.24 -12.21,101.35z"/>
   <path class="fil0" d="M552.77 674.81c4.93,-20.43 41.97,-50.8 58.65,-63.6 46.3,-35.53 91.58,-59.69 159.01,-59.69 54.46,0 141.09,62.46 176.86,101.14 3.57,3.86 7.7,6.72 11.19,10.61l19.29 24.32c-6.45,14.95 -84.72,85.9 -96.58,95.16 -16.73,13.06 -36.86,26.98 -59.37,37.35 -44.29,20.42 -49.27,12.25 -77.99,18.78 0.21,10.82 16.97,15.55 26.74,18.56 77.4,23.87 125.22,-18.16 175.89,-68.68 42.81,-42.68 60.09,-81 102.94,-101.37 -5.11,-3.82 -12.47,-6.4 -18.22,-9.42 -44.76,-23.46 -50.58,-61.06 -93.3,-106.36 -16.27,-17.25 -38.46,-35.92 -64.55,-49.31 -28.8,-14.79 -61.99,-24.98 -98.22,-24.98 -65.84,0 -129.78,45.76 -165.49,84.03 -18.55,19.89 -57.32,64.38 -56.85,93.46z"/>
   <path class="fil0" d="M622.27 690.91c-12.18,14.1 -18.07,39.84 13.4,48.78 36.22,10.28 101.28,-7.76 134.7,-24.16 13.59,-6.67 43.86,-25.76 48.8,-33.99 -35.31,8.21 -45.29,17.14 -94.08,21.42 -26.69,2.34 -54.72,1.38 -80.35,-5.02 -8.39,-2.1 -15.34,-5.35 -22.47,-7.03z"/>
   <path class="fil0" d="M655.8 916.85c0,53.06 -26.18,94.83 -52.01,129.66 -16.97,22.87 -61.3,76.97 -84.45,88.68 -5.7,-3.16 -42.48,-38.89 -49.34,-45.8 -32.13,-32.31 -62.31,-66.95 -82.93,-110.5 -18.99,-40.1 -12.61,-48.44 -18.63,-77.93 -20.91,1.73 -24.95,59.94 -24.95,75.15 0,31.39 12.84,54.87 27.33,73.68 30.77,39.94 61.95,70.01 101.79,102.48 53.37,43.48 35.19,41.82 48.19,54.75 23.84,-63.86 68.93,-65.97 115.72,-112.18 16.57,-16.36 35.23,-38.1 49.04,-64.74 13.24,-25.53 24.43,-63.18 24.43,-96.1 0,-55.53 -33.18,-112.6 -58.83,-139.64 -4.85,-5.12 -6.74,-7.62 -10.94,-12.46 -19.87,-22.9 -73.03,-68.75 -103.82,-71.21 4.18,4.04 25.21,14.82 43.52,37.95 11.39,14.38 24.48,29.65 35.01,46.1 19.54,30.52 40.87,76.01 40.87,122.11z"/>
   <path class="fil0" d="M519.15 987.12c-3.48,-14.32 -9.3,-28.63 -13.1,-44.47 -10.02,-41.72 -14.06,-89.07 -3.23,-131.15 2.02,-7.86 5.87,-15.9 7.06,-22.44 -13.51,-5.53 -39,-23.01 -49.48,15.85 -5.31,19.65 -0.29,54.34 3.91,73.38 7.54,34.22 30.82,89.68 54.84,108.83z"/>
   <path class="fil0" d="M859.14 1320.97c-2.61,-11.12 4.09,-14.92 0.25,-22.03 -4.38,-8.1 -4.41,6.06 -4.35,-23.39 0.07,-40.16 -0.86,-133.17 8.38,-163.76 16,6.94 25.09,36.9 44.63,49.56 6.67,4.31 17.53,4.85 25.58,1.34l38.77 -23.62c17.16,-16.48 4.64,-22.52 10.9,-32.7 2.56,-4.17 4.94,-6 11.23,-5.01 -0.44,14.48 -5.5,36.12 -7.09,52.54 -3.87,39.96 -3.13,77.49 -4.93,117.02 -0.83,18.09 -4.89,40.95 -4.75,57.46 22.68,7.44 24.64,12.57 46.89,-1.22 16.58,7.52 26.58,-4.97 25.52,-17.67 -3.86,-45.88 0.37,-99.47 5.31,-144.76 6.4,-58.54 18.13,-134 13.62,-192.61 -2.97,-1.88 -7,-2.38 -11.46,-3.97 -8.41,-2.99 -3.34,-3.27 -8.04,-8.51 -19.89,-4.29 -28.97,4.51 -38.85,13.52 -8.9,8.12 -13.64,9.19 -15.69,12.39 -2.38,3.74 -3.73,19.23 -28.19,56.02 -6.37,9.59 -19.16,24.5 -22.65,33.28 -11.8,-5.16 -15.76,-16.06 -23.12,-27.92 -9.58,-15.43 -17.9,-13.18 -26.3,-25.18 -14.11,-20.16 -14.17,-55.68 -30.67,-70.71 -15.1,-13.76 -35.28,-8.19 -51.39,8.11 -5.45,5.51 -8.06,7.57 -14.04,12.49 -13.12,10.8 -5.37,26.12 0.1,36.89 9.89,19.52 8.44,18.83 7.36,44.06 -2.68,62.82 -8.79,126.03 -14.29,188.62 -1.76,20.02 -9.42,75.6 -1.92,91.24 6.56,13.68 26.78,10.76 36.72,7.16 12.79,-4.63 22,-13.52 32.47,-18.64z"/>
   <path class="fil0" d="M2035.55 1128.56c27.25,-8.55 43.61,46.37 34.78,72.83 -7.4,22.19 -30.55,59.64 -46.45,67.6 -26.05,13.02 -36.92,-48.91 -35.26,-72.95 2.06,-29.92 25.28,-60.69 46.93,-67.48zm29.92 197.38c5.51,-8.49 24.31,-26.32 32.16,-33.25 6.55,-5.78 9.56,-10.84 15.48,-17.25 5.46,-5.91 9.29,-11.55 14.36,-18.43 14.76,-20 36.72,-67.36 29.81,-100.51 -8.49,-40.79 -42.48,-62.48 -67.49,-80.52 -6.86,-4.95 -2.93,-3.88 -6.91,-10.21 -4.22,-6.7 -3.95,-2.74 -11.06,-4.6 -13,-3.39 -13,-20.74 -62.55,4.36 -4.86,2.46 -19.58,7.94 -22.38,10.38 -2.34,2.05 -10.5,15.88 -13.3,19.49 -10.27,13.22 -20.58,23.38 -31.32,34.14 -30.09,30.16 -50.76,35.09 -36.05,89.45 6.19,22.87 20.5,46.82 34.84,63.44 17.92,20.77 29.05,33.92 59.17,40.53 17.91,3.92 46.23,4.09 65.24,2.98z"/>
   <path class="fil0" d="M1225.05 1128.86c26.84,-10.21 43.64,45.59 35.22,72.05 -7.21,22.69 -30.88,59.18 -45.93,67.87 -16.39,9.46 -24.71,-11.67 -29.2,-24.29 -5.18,-14.56 -7.89,-31.07 -6.76,-47.93 1.94,-28.8 21.68,-58.2 46.67,-67.7zm2.73 -75.16c-15.69,3.71 -31.24,13.48 -46.52,19.76 -7.86,3.24 -10.13,11.27 -15.01,17.74 -16.23,21.51 -43.55,48.05 -63.44,67.57 -8.35,8.19 -9.26,8.29 -10.2,24.72 -2.32,40.81 18.33,74.96 36.45,96.81 22.09,26.63 36.21,43.41 87.4,45.66 40.96,1.81 35.37,4.79 68.43,-30.34 50.75,-53.93 99.04,-135.23 26.26,-195.86l-36.37 -29.13c-8.82,-15.94 -5.2,-3.1 -19.87,-12.9 -8.11,-5.41 -16.69,-6.5 -27.13,-4.03z"/>
   <path class="fil0" d="M-0 677.06l0 0.78c58.72,23.49 60.55,53.04 93.69,93.83 4.38,5.39 8.49,9.8 12.94,15.14 52.58,63.14 146.35,100.1 230.56,67.96 29.96,-11.43 46.71,-23.87 67.81,-39.76 19.8,-14.93 92.36,-84.34 91.92,-124.11 -11.55,28.95 -59.67,65.4 -86.45,82.77 -34.31,22.26 -81.99,41.44 -132.88,39.39 -58.6,-2.35 -125.47,-56.23 -165.42,-91.08 -7.93,-6.92 -36.25,-36.69 -39.95,-45.31 13.73,-20.43 76.55,-79.87 97.44,-95.47 28.14,-21.03 58.05,-41.26 95.16,-49.85 8.56,-1.98 36.91,-3.74 41.64,-6.74 -1.67,-18.32 -65.33,-27.91 -97.66,-21.27 -17.58,3.61 -33.11,11.53 -44.31,19.68 -6.55,4.76 -11.7,8.8 -17.65,13.53 -35.29,28.09 -52.15,49.43 -79.71,79.4 -22.08,24.02 -32,47.56 -67.13,61.11z"/>
   <path class="fil0" d="M1426.53 1077.87c-3.9,-9.93 0.33,-20.54 -9.31,-23.39 -17.5,-5.17 -55.32,10.45 -55.32,43.28 0,25.8 18.72,29.36 17.55,87.34 -0.88,43.74 -9.18,104.93 11.41,145.38 2.42,4.76 1.48,4.4 6.68,5.32 11.99,2.12 29.13,0.42 39.11,-6.91 3.68,-2.7 4.99,-4.22 7.84,-7.85 4.76,-6.09 3.98,-5.89 3.98,-15.86 0,-67.35 14.33,-79.71 8.35,-169.89 28.02,-12.87 -2.43,-6.96 44.75,-13 22.49,-2.89 61.87,19.25 65.36,-44.95 2.27,-41.81 -67.36,-24.53 -90.97,-18.01 -17.81,4.92 -45.98,17.95 -49.43,18.54z"/>
   <path class="fil0" d="M1816.92 1322.98c21.76,2.22 19.21,-1.32 25.94,-0.15 11.6,2.03 43.66,20.25 26.18,-38.54 -6.81,-22.9 -4.64,-24.53 -2.35,-47.83 7.48,-76.13 -6.36,-145.7 3.36,-219.61 2.22,-16.84 7.6,-32.97 9.73,-48.44 -19.12,-4.58 -21.99,-18.89 -46.02,-14.43 -18.87,3.51 -30.04,13.53 -36.88,27.08 -7.93,15.69 -8.87,36.71 -8.26,55.87 0.33,10.38 0.63,20.81 0.75,31.2 0.13,11.1 -1.62,21.38 -1.75,31.25 -0.48,37.43 -0.41,86.08 2.14,123.27 2.07,30.29 11.25,80.65 27.16,100.33z"/>
   <path class="fil0" d="M2308.19 1059.06l0 -10.43c-11.63,-9.19 -22.12,-22.84 -45.05,-11.47 -28.21,13.99 -74.21,77.47 -77.4,121.91 -3.54,49.37 43.91,81.19 34.18,128.2 -4.88,23.59 -34.84,21.54 -38.88,25.02 -6.18,5.32 -4.34,21.51 -3.47,29.94 36.81,2.68 72.87,-6.73 89.87,-27.9 22.28,-27.72 11.54,-61.94 0.09,-93.27 -14.66,-40.11 -35.42,-105.2 6.89,-136.8 5.7,-4.25 11.25,-7.74 17.88,-11.75 9.15,-5.53 9.88,-6.93 15.89,-13.45z"/>
   <path class="fil0" d="M225.94 683c35.5,-8.05 62.19,-22.31 110.93,-22.31 20.93,0 32.27,-0.39 54.06,4.06 11.54,2.36 21.65,6.73 31.71,8.89 20.37,-24.2 8.66,-51.56 -34.31,-51.56 -32.08,0 -64.96,7.39 -92.72,17.99 -20.82,7.95 -62,30.5 -69.67,42.93z"/>
   <path class="fil0" d="M1636 1154.58c-5.76,-51.45 32.21,-69.31 46.97,-55.46 13.43,12.59 -4.98,52.3 -46.97,55.46zm-24.95 165.03c20.1,0.42 12.93,3.64 22.51,12.98 23.53,22.95 98.71,-20.38 125.84,-47.49 34.09,-34.08 19.94,-48.58 19.22,-46.96 -0.15,0.33 -0.84,-0.27 -1.04,-0.32 -0.19,-0.05 -0.78,-0.19 -1.01,-0.25 -0.22,-0.06 -0.74,-0.14 -0.98,-0.21l-5.03 -2.86c-23.31,-15.25 -60.63,35.37 -66.59,40.37 -11.95,10.01 -29.66,18.34 -39.3,-1.49 -2.03,-4.19 -1.94,-7.34 -3.95,-11.61 -5.5,-11.71 -11.72,-20.7 -12.27,-37.68 -0.71,-22.1 0.6,-12.64 33.49,-30.47 42.58,-23.1 84.01,-77.21 57.74,-121.56 -17.33,-29.25 -61.1,-32.63 -95.5,-22.27 -35.91,10.82 -54.24,28.96 -65.49,63.96 -5.47,17.02 -8,35.43 -8.9,54.17 -0.41,8.39 -1.14,22.53 0.29,30.51 1.22,6.84 5.64,14.99 7.45,24.88 1.7,9.25 2.36,18.12 4.04,27.21 2.18,11.74 5.15,15.27 8.11,24.51 3.83,11.92 -0.86,12.62 7.93,24.89 4.17,5.83 11.04,11.61 13.44,19.69z"/>
  </g>
 </g>
</svg>
