<!-- Generated by IcoMoon.io -->
<svg version="1.1" xmlns="http://www.w3.org/2000/svg" width="32" height="32" viewBox="0 0 32 32">
<title>motorcycle</title>
<path d="M23.312 22.688q1.375 0 2.344-1t0.969-2.375-0.969-2.344-2.344-0.969-2.375 0.969-1 2.344 1 2.375 2.375 1zM11.812 20.375l-3.812-0.063v-2h3.812q-0.751-2.312-3.188-2.312-1.375 0-2.344 0.969t-0.969 2.344 0.969 2.375 2.344 1q1 0 1.969-0.688t1.219-1.625zM23.312 13.312q2.5 0 4.251 1.751t1.751 4.251-1.751 4.251-4.251 1.751-4.251-1.751-1.751-4.251q0-0.125 0.031-0.312t0.031-0.312l-2.812 1.688q-0.375 2.063-2.093 3.5t-3.781 1.437q-2.5 0-4.251-1.751t-1.751-4.251 1.719-4.251 4.219-1.751h10.812l-2.625-2.625h-4.812v-2.688h5.875l5.375 5.375q0-0.063 0.063-0.063z"></path>
</svg>
