<!-- Generated by IcoMoon.io -->
<svg version="1.1" xmlns="http://www.w3.org/2000/svg" width="32" height="32" viewBox="0 0 32 32">
<title>netflix-gayflix</title>
<path fill="#d9202b" d="M2.6 13.919c0-0.901 0.093-1.28 1.083-1.125 0.316 0.534 0.247 0.816 0.265 1.568l1.285-0.050c0.24-1.742-0.187-2.845-1.973-2.845-1.669 0-2.136 0.874-2.136 2.596 0 3.201-0.62 6.7 2.121 6.336 2.466-0.327 2.070-2.861 2.030-5.319-0.261 0.003-1.51 0.016-1.679 0.073-0.494 0.168-0.324 0.57-0.303 1.216 0.7 0.337 0.452-0.29 0.644 0.432 0.002 0.697 0.132 1.701-0.392 2.036-1.4 0.893-0.943-3.092-0.944-4.919z"></path>
<path fill="#d9202b" d="M26.036 11.602c0.249 0.736 1.444 3.606 1.355 4.122-0.078 0.452-1.154 2.939-1.429 4.12l1.35 0.126 1.106-3.176 1.075 3.504 1.444 0.234c-0.273-3.688-2.752-2.91-0.056-8.9l-1.352-0.021-1.051 2.792c-0.143-0.518-0.316-1.015-0.499-1.566-0.482-1.445-0.029-1.27-1.943-1.236z"></path>
<path fill="#d9202b" d="M8.104 13.248l0.565 3.653-1.196 0.045 0.631-3.698zM5.703 19.872c2.12-0.16 1.046-0.103 1.681-1.689l1.503-0.096 0.218 1.437 1.339-0.099 0.064-0.488c-0.007-0.105-0.062-0.381-0.083-0.497-0.052-0.286-0.117-0.643-0.176-0.987l-1.050-5.875-2.109-0.002-1.388 8.296z"></path>
<path fill="#d9202b" d="M10.083 11.647c0.419 0.962 0.816 2.386 1.191 3.482 0.645 1.884 0.44 2.115 0.513 4.254l1.365-0.041c0.136-0.791-0.008-1.606 0.066-2.39 0.077-0.815 1.414-4.050 1.735-5.383-1.514 0.003-1.334-0.132-1.615 0.756-0.086 0.273-0.139 0.48-0.226 0.779-0.171 0.589-0.338 1.116-0.552 1.69l-0.933-3.229-1.544 0.081z"></path>
<path fill="#d9202b" d="M16.882 12.719l2.208-0.006 0.040-1.146-3.721 0.065-0.006 7.625 1.487-0.062 0.028-3.24 1.762-0.005-0.059-1.134-1.73-0.023z"></path>
<path fill="#d9202b" d="M19.722 19.351l3.703 0.181-0.073-1.246-2.216-0.153 0.011-6.559-1.46-0.002z"></path>
<path fill="#d9202b" d="M23.929 19.633l1.392 0.135 0.009-8.188-1.456 0.010z"></path>
</svg>
