<?xml version="1.0" encoding="UTF-8"?>
<!DOCTYPE svg PUBLIC "-//W3C//DTD SVG 1.1//EN" "http://www.w3.org/Graphics/SVG/1.1/DTD/svg11.dtd">
<!-- Creator: CorelDRAW 2017 -->
<svg xmlns="http://www.w3.org/2000/svg" xml:space="preserve" width="41.9946mm" height="5.5878mm" version="1.1" style="shape-rendering:geometricPrecision; text-rendering:geometricPrecision; image-rendering:optimizeQuality; fill-rule:evenodd; clip-rule:evenodd"
viewBox="0 0 4199.46 558.78"
 xmlns:xlink="http://www.w3.org/1999/xlink">
 <defs>
  <style type="text/css">
   <![CDATA[
    .fil0 {fill:none}
    .fil15 {fill:#0077A6}
    .fil17 {fill:#00AEEF}
    .fil4 {fill:#231F20}
    .fil16 {fill:#253E8B}
    .fil13 {fill:#2F6C4B}
    .fil14 {fill:#6F727A}
    .fil12 {fill:#B93C3E}
    .fil10 {fill:#E21C2A}
    .fil6 {fill:#EB001B}
    .fil8 {fill:#F0A929}
    .fil7 {fill:#F79E1B}
    .fil11 {fill:#FC4C02}
    .fil5 {fill:#FF5F00}
    .fil9 {fill:white}
    .fil1 {fill:white;fill-opacity:0.000000}
    .fil3 {fill:url(#id4)}
    .fil2 {fill:url(#id5)}
   ]]>
  </style>
   <clipPath id="id0">
    <path d="M352.17 226.01c-29.14,0.16 -49.61,15.82 -49.78,38.18 -0.19,16.64 14.76,25.91 26.03,31.44 11.58,5.66 15.46,9.29 15.42,14.35 -0.09,7.76 -9.24,11.18 -17.8,11.31 -14.94,0.23 -23.62,-4.06 -30.53,-7.3l-5.38 25.31c6.94,3.2 19.76,6 33.06,6.14 31.24,0 51.66,-15.5 51.76,-39.52 0.13,-30.48 -41.94,-32.17 -41.65,-45.79 0.09,-4.14 4.01,-8.54 12.61,-9.67 4.25,-0.55 16,-0.99 29.31,5.17l5.22 -24.5c-7.07,-2.57 -16.13,-5.05 -27.39,-5.12l-0.88 0zm78.5 2.12c-5.71,0 -10.52,3.33 -12.66,8.47l-44.61 107.03 31.22 0 6.2 -17.26 38.13 0 3.6 17.26 27.5 0 -24 -115.5 -25.38 0zm4.36 31.2l9 43.37 -24.65 0 15.65 -43.37zm-170.46 -31.2l-24.59 115.5 29.73 0 24.59 -115.5 -29.73 0zm-43.99 0l-30.94 78.61 -12.52 -66.84c-1.46,-7.47 -7.27,-11.77 -13.71,-11.77l-50.59 0 -0.71 3.34c10.39,2.28 22.19,5.93 29.33,9.83 4.38,2.39 5.63,4.48 7.07,10.15l23.7 92.18 31.43 0 48.17 -115.5 -31.23 0z"/>
   </clipPath>
   <clipPath id="id1">
    <path d="M352.17 226.01c-29.14,0.16 -49.61,15.82 -49.78,38.18 -0.19,16.64 14.76,25.91 26.03,31.44 11.58,5.66 15.46,9.29 15.42,14.35 -0.09,7.76 -9.24,11.18 -17.8,11.31 -14.94,0.23 -23.62,-4.06 -30.53,-7.3l-5.38 25.31c6.94,3.2 19.76,6 33.06,6.14 31.24,0 51.66,-15.5 51.76,-39.52 0.13,-30.48 -41.94,-32.17 -41.65,-45.79 0.09,-4.14 4.01,-8.54 12.61,-9.67 4.25,-0.55 16,-0.99 29.31,5.17l5.22 -24.5c-7.07,-2.57 -16.13,-5.05 -27.39,-5.12l-0.88 0zm78.5 2.12c-5.71,0 -10.52,3.33 -12.66,8.47l-44.61 107.03 31.22 0 6.2 -17.26 38.13 0 3.6 17.26 27.5 0 -24 -115.5 -25.38 0zm4.36 31.2l9 43.37 -24.65 0 15.65 -43.37zm-170.46 -31.2l-24.59 115.5 29.73 0 24.59 -115.5 -29.73 0zm-43.99 0l-30.94 78.61 -12.52 -66.84c-1.46,-7.47 -7.27,-11.77 -13.71,-11.77l-50.59 0 -0.71 3.34c10.39,2.28 22.19,5.93 29.33,9.83 4.38,2.39 5.63,4.48 7.07,10.15l23.7 92.18 31.43 0 48.17 -115.5 -31.23 0z"/>
   </clipPath>
   <clipPath id="id2">
    <path d="M352.17 226.01c-29.14,0.16 -49.61,15.82 -49.78,38.18 -0.19,16.64 14.76,25.91 26.03,31.44 11.58,5.66 15.46,9.29 15.42,14.35 -0.09,7.76 -9.24,11.18 -17.8,11.31 -14.94,0.23 -23.62,-4.06 -30.53,-7.3l-5.38 25.31c6.94,3.2 19.76,6 33.06,6.14 31.24,0 51.66,-15.5 51.76,-39.52 0.13,-30.48 -41.94,-32.17 -41.65,-45.79 0.09,-4.14 4.01,-8.54 12.61,-9.67 4.25,-0.55 16,-0.99 29.31,5.17l5.22 -24.5c-7.07,-2.57 -16.13,-5.05 -27.39,-5.12l-0.88 0zm78.5 2.12c-5.71,0 -10.52,3.33 -12.66,8.47l-44.61 107.03 31.22 0 6.2 -17.26 38.13 0 3.6 17.26 27.5 0 -24 -115.5 -25.38 0zm4.36 31.2l9 43.37 -24.65 0 15.65 -43.37zm-170.46 -31.2l-24.59 115.5 29.73 0 24.59 -115.5 -29.73 0zm-43.99 0l-30.94 78.61 -12.52 -66.84c-1.46,-7.47 -7.27,-11.77 -13.71,-11.77l-50.59 0 -0.71 3.34c10.39,2.28 22.19,5.93 29.33,9.83 4.38,2.39 5.63,4.48 7.07,10.15l23.7 92.18 31.43 0 48.17 -115.5 -31.23 0z"/>
   </clipPath>
   <clipPath id="id3">
    <path d="M352.17 226.01c-29.14,0.16 -49.61,15.82 -49.78,38.18 -0.19,16.64 14.76,25.91 26.03,31.44 11.58,5.66 15.46,9.29 15.42,14.35 -0.09,7.76 -9.24,11.18 -17.8,11.31 -14.94,0.23 -23.62,-4.06 -30.53,-7.3l-5.38 25.31c6.94,3.2 19.76,6 33.06,6.14 31.24,0 51.66,-15.5 51.76,-39.52 0.13,-30.48 -41.94,-32.17 -41.65,-45.79 0.09,-4.14 4.01,-8.54 12.61,-9.67 4.25,-0.55 16,-0.99 29.31,5.17l5.22 -24.5c-7.07,-2.57 -16.13,-5.05 -27.39,-5.12l-0.88 0zm78.5 2.12c-5.71,0 -10.52,3.33 -12.66,8.47l-44.61 107.03 31.22 0 6.2 -17.26 38.13 0 3.6 17.26 27.5 0 -24 -115.5 -25.38 0zm4.36 31.2l9 43.37 -24.65 0 15.65 -43.37zm-170.46 -31.2l-24.59 115.5 29.73 0 24.59 -115.5 -29.73 0zm-43.99 0l-30.94 78.61 -12.52 -66.84c-1.46,-7.47 -7.27,-11.77 -13.71,-11.77l-50.59 0 -0.71 3.34c10.39,2.28 22.19,5.93 29.33,9.83 4.38,2.39 5.63,4.48 7.07,10.15l23.7 92.18 31.43 0 48.17 -115.5 -31.23 0z"/>
   </clipPath>
  <linearGradient id="id4" gradientUnits="userSpaceOnUse" x1="417.86" y1="281.84" x2="441.18" y2="281.84">
   <stop offset="0" style="stop-opacity:1; stop-color:#231F5D"/>
   <stop offset="1" style="stop-opacity:1; stop-color:#024DA1"/>
  </linearGradient>
  <linearGradient id="id5" gradientUnits="userSpaceOnUse" xlink:href="#id4" x1="112.11" y1="285.74" x2="480.05" y2="285.74">
  </linearGradient>
 </defs>
 <g id="Capa_x0020_1">
  <metadata id="CorelCorpID_0Corel-Layer"/>
  <rect class="fil0" x="-0.4" y="-1.38" width="4200.24" height="561.51"/>
  <g style="clip-path:url(#id0)">
   <polygon class="fil1" points="112.11,226.01 480.05,226.01 480.05,345.44 112.11,345.44 "/>
  </g>
  <g style="clip-path:url(#id1)">
   <g id="_2779338261712">
    <path id="1" class="fil2" d="M353.07 226.01l0.99 0.02c10.11,0.19 18.38,2.3 25.03,4.61l1.35 0.49 -5.23 24.5 -0.65 -0.29c-12.6,-5.64 -23.7,-5.44 -28.22,-4.93l-0.42 0.06 -0.53 0.06c-8.08,1.2 -11.86,5.36 -12.09,9.36l-0.02 0.24 0.02 0.42c0.53,13.12 40.94,15.15 41.63,44.46l0 0.91 0 0.72c-0.48,23.37 -20.42,38.5 -50.84,38.8l-0.9 0 -0.86 0c-12.7,-0.25 -24.87,-2.88 -31.76,-5.94l-0.44 -0.2 5.39 -25.32 2.41 1.15c6.39,2.95 14.5,6.23 27.3,6.18l0.81 -0.02 0.44 0c8.29,-0.23 16.98,-3.57 17.34,-10.94l0.01 -0.37 0 -0.26c-0.07,-4.74 -3.75,-8.26 -14.24,-13.52l-2.4 -1.19c-10.96,-5.53 -24.64,-14.57 -24.82,-30.23l0 -0.58 0.02 -0.69c0.57,-21.77 20.52,-37.03 48.92,-37.5l0.86 0 0.9 0zm-58.77 2.14l-24.6 115.49 -29.73 0 24.6 -115.49 29.73 0zm-130.91 0l0.4 0c6.16,0.14 11.67,4.26 13.24,11.29l0.07 0.46 12.54 66.84 30.95 -78.59 31.22 0 -48.17 115.49 -31.43 0 -23.83 -92.66c-1.34,-5.16 -2.6,-7.23 -6.54,-9.47l-0.4 -0.22 -0.65 -0.35c-6.99,-3.64 -17.89,-7.05 -27.73,-9.26l-0.95 -0.21 0.7 -3.34 50.58 0.02zm292.65 0l23.98 115.49 -27.46 0 -3.62 -17.28 -38.1 0.02 -6.24 17.26 -31.2 0 44.62 -107.04 0.17 -0.4c2.14,-4.78 6.68,-7.91 12.05,-8.05l0.41 -0.02 25.39 0.02z"/>
   </g>
  </g>
  <path class="fil0" d="M352.17 226.01c-29.14,0.16 -49.61,15.82 -49.78,38.18 -0.19,16.64 14.76,25.91 26.03,31.44 11.58,5.66 15.46,9.29 15.42,14.35 -0.09,7.76 -9.24,11.18 -17.8,11.31 -14.94,0.23 -23.62,-4.06 -30.53,-7.3l-5.38 25.31c6.94,3.2 19.76,6 33.06,6.14 31.24,0 51.66,-15.5 51.76,-39.52 0.13,-30.48 -41.94,-32.17 -41.65,-45.79 0.09,-4.14 4.01,-8.54 12.61,-9.67 4.25,-0.55 16,-0.99 29.31,5.17l5.22 -24.5c-7.07,-2.57 -16.13,-5.05 -27.39,-5.12l-0.88 0zm78.5 2.12c-5.71,0 -10.52,3.33 -12.66,8.47l-44.61 107.03 31.22 0 6.2 -17.26 38.13 0 3.6 17.26 27.5 0 -24 -115.5 -25.38 0zm4.36 31.2l9 43.37 -24.65 0 15.65 -43.37zm-170.46 -31.2l-24.59 115.5 29.73 0 24.59 -115.5 -29.73 0zm-43.99 0l-30.94 78.61 -12.52 -66.84c-1.46,-7.47 -7.27,-11.77 -13.71,-11.77l-50.59 0 -0.71 3.34c10.39,2.28 22.19,5.93 29.33,9.83 4.38,2.39 5.63,4.48 7.07,10.15l23.7 92.18 31.43 0 48.17 -115.5 -31.23 0z"/>
  <g style="clip-path:url(#id2)">
   <polygon class="fil1" points="112.11,226.01 480.05,226.01 480.05,345.44 112.11,345.44 "/>
  </g>
  <g style="clip-path:url(#id3)">
   <g id="_2779338261648">
    <polygon id="1" class="fil3" points="432.65,259.77 441.16,303.89 417.84,303.89 "/>
   </g>
  </g>
  <path class="fil0" d="M352.17 226.01c-29.14,0.16 -49.61,15.82 -49.78,38.18 -0.19,16.64 14.76,25.91 26.03,31.44 11.58,5.66 15.46,9.29 15.42,14.35 -0.09,7.76 -9.24,11.18 -17.8,11.31 -14.94,0.23 -23.62,-4.06 -30.53,-7.3l-5.38 25.31c6.94,3.2 19.76,6 33.06,6.14 31.24,0 51.66,-15.5 51.76,-39.52 0.13,-30.48 -41.94,-32.17 -41.65,-45.79 0.09,-4.14 4.01,-8.54 12.61,-9.67 4.25,-0.55 16,-0.99 29.31,5.17l5.22 -24.5c-7.07,-2.57 -16.13,-5.05 -27.39,-5.12l-0.88 0zm78.5 2.12c-5.71,0 -10.52,3.33 -12.66,8.47l-44.61 107.03 31.22 0 6.2 -17.26 38.13 0 3.6 17.26 27.5 0 -24 -115.5 -25.38 0zm4.36 31.2l9 43.37 -24.65 0 15.65 -43.37zm-170.46 -31.2l-24.59 115.5 29.73 0 24.59 -115.5 -29.73 0zm-43.99 0l-30.94 78.61 -12.52 -66.84c-1.46,-7.47 -7.27,-11.77 -13.71,-11.77l-50.59 0 -0.71 3.34c10.39,2.28 22.19,5.93 29.33,9.83 4.38,2.39 5.63,4.48 7.07,10.15l23.7 92.18 31.43 0 48.17 -115.5 -31.23 0z"/>
  <path class="fil4" d="M713.62 406.66l0 -16.21c0.19,-2.76 -0.82,-5.47 -2.77,-7.43 -1.96,-1.96 -4.67,-3 -7.44,-2.83 -3.65,-0.24 -7.14,1.52 -9.12,4.59 -1.79,-2.98 -5.09,-4.75 -8.57,-4.59 -3.04,-0.16 -5.93,1.3 -7.6,3.83l0 -3.18 -5.65 -0.01 0 25.83 5.7 0 0 -14.21c-0.24,-1.79 0.33,-3.59 1.56,-4.92 1.22,-1.33 2.98,-2.04 4.79,-1.94 3.75,0 5.65,2.43 5.65,6.8l0 14.38 5.7 0 0 -14.32c-0.24,-1.79 0.34,-3.59 1.56,-4.91 1.23,-1.32 2.98,-2.04 4.79,-1.95 3.85,0 5.7,2.43 5.7,6.8l0 14.38 5.7 -0.11zm84.33 -25.83l-9.28 0 0 -7.83 -5.7 0 0 7.83 -5.15 0 0 5.14 5.26 0 0 11.88c0,6 2.34,9.57 9.01,9.57 2.5,0 4.95,-0.69 7.06,-2.01l-1.63 -4.81c-1.51,0.9 -3.23,1.4 -4.99,1.46 -2.71,0 -3.75,-1.73 -3.75,-4.32l0 -11.78 9.23 0.01 -0.06 -5.14zm48.16 -0.65c-2.81,-0.08 -5.43,1.37 -6.84,3.78l0 -3.13 -5.6 0 0 25.83 5.65 0 0 -14.48c0,-4.27 1.85,-6.65 5.43,-6.65 1.21,-0.01 2.41,0.21 3.53,0.65l1.74 -5.4c-1.29,-0.46 -2.65,-0.7 -4.02,-0.7l0.11 0.1zm-72.8 2.71c-3.19,-1.9 -6.87,-2.84 -10.59,-2.71 -6.56,0 -10.86,3.14 -10.86,8.27 0,4.21 3.15,6.81 8.96,7.62l2.72 0.38c3.09,0.43 4.56,1.24 4.56,2.7 0,2 -2.06,3.14 -5.92,3.14 -3.1,0.09 -6.14,-0.87 -8.63,-2.71l-2.71 4.38c3.28,2.28 7.22,3.46 11.24,3.35 7.48,0 11.83,-3.51 11.83,-8.43 0,-4.92 -3.42,-6.92 -9.06,-7.73l-2.72 -0.37c-2.44,-0.33 -4.39,-0.81 -4.39,-2.54 0,-1.73 1.84,-3.03 4.94,-3.03 2.86,0.04 5.66,0.8 8.14,2.22l2.49 -4.54zm151.21 -2.71c-2.8,-0.08 -5.43,1.37 -6.83,3.78l0 -3.13 -5.6 0 0 25.83 5.65 0 0 -14.48c0,-4.27 1.84,-6.65 5.43,-6.65 1.2,-0.01 2.4,0.21 3.52,0.65l1.74 -5.4c-1.29,-0.46 -2.65,-0.7 -4.01,-0.7l0.1 0.1zm-72.74 13.51c-0.14,3.67 1.29,7.23 3.92,9.8 2.64,2.58 6.24,3.92 9.92,3.71 3.39,0.18 6.72,-0.92 9.34,-3.08l-2.71 -4.54c-1.95,1.48 -4.34,2.3 -6.79,2.33 -4.33,-0.35 -7.66,-3.95 -7.66,-8.27 0,-4.32 3.34,-7.92 7.66,-8.27 2.45,0.03 4.83,0.84 6.79,2.32l2.71 -4.54c-2.62,-2.15 -5.95,-3.25 -9.34,-3.08 -3.68,-0.21 -7.29,1.14 -9.92,3.71 -2.63,2.58 -4.06,6.13 -3.92,9.8l0 0.11zm52.87 0l0 -12.86 -5.64 0 0 3.14c-1.95,-2.49 -4.98,-3.9 -8.14,-3.78 -7.5,0 -13.57,6.04 -13.57,13.51 0,7.46 6.07,13.51 13.57,13.51 3.17,0.11 6.2,-1.29 8.14,-3.78l0 3.13 5.64 -0.01 0 -12.86zm-21.01 0c0.25,-4.24 3.86,-7.5 8.13,-7.34 4.26,0.16 7.61,3.68 7.55,7.93 -0.07,4.25 -3.54,7.66 -7.81,7.68 -2.17,0.03 -4.25,-0.85 -5.75,-2.42 -1.5,-1.57 -2.27,-3.69 -2.12,-5.85l0 0zm-68.12 -13.51c-7.5,0.11 -13.49,6.24 -13.38,13.7 0.1,7.46 6.26,13.43 13.76,13.32 3.9,0.2 7.74,-1.05 10.77,-3.51l-2.71 -4.16c-2.14,1.71 -4.8,2.66 -7.54,2.7 -3.88,0.34 -7.32,-2.47 -7.77,-6.32l19.27 0c0,-0.7 0,-1.4 0,-2.16 0,-8.11 -5.05,-13.51 -12.32,-13.51l-0.08 -0.06zm0 5.03c1.7,-0.04 3.35,0.6 4.58,1.78 1.23,1.18 1.94,2.79 1.98,4.49l-13.57 0c0.21,-3.61 3.27,-6.39 6.9,-6.27l0.11 0zm141.44 8.54l0 -23.29 -5.43 0 0 13.51c-1.95,-2.49 -4.98,-3.9 -8.14,-3.78 -7.5,0 -13.57,6.04 -13.57,13.51 0,7.46 6.07,13.51 13.57,13.51 3.17,0.11 6.2,-1.29 8.14,-3.78l0 3.13 5.43 -0.01 0 -12.8zm9.42 9.16c0.35,-0.01 0.7,0.05 1.03,0.19 0.31,0.12 0.6,0.3 0.84,0.54 0.24,0.23 0.43,0.5 0.57,0.81 0.28,0.64 0.28,1.36 0,2 -0.14,0.3 -0.33,0.58 -0.57,0.81 -0.24,0.23 -0.53,0.41 -0.84,0.54 -0.33,0.14 -0.68,0.22 -1.03,0.22 -1.05,-0.01 -2,-0.62 -2.44,-1.57 -0.28,-0.64 -0.28,-1.36 0,-2 0.14,-0.3 0.33,-0.58 0.57,-0.81 0.24,-0.23 0.53,-0.41 0.84,-0.54 0.36,-0.14 0.73,-0.2 1.11,-0.19l-0.08 0zm0 4.56c0.27,0 0.54,-0.05 0.79,-0.16 0.23,-0.11 0.44,-0.25 0.62,-0.43 0.7,-0.77 0.7,-1.94 0,-2.71 -0.18,-0.18 -0.39,-0.33 -0.62,-0.43 -0.25,-0.1 -0.52,-0.16 -0.79,-0.16 -0.27,0 -0.54,0.06 -0.79,0.16 -0.24,0.1 -0.46,0.25 -0.65,0.43 -0.7,0.77 -0.7,1.94 0,2.71 0.19,0.18 0.41,0.33 0.65,0.43 0.28,0.12 0.57,0.17 0.87,0.16l-0.08 0zm0.16 -3.21c0.25,-0.01 0.5,0.06 0.71,0.22 0.16,0.13 0.25,0.35 0.24,0.56 0.01,0.18 -0.06,0.36 -0.19,0.49 -0.16,0.14 -0.36,0.23 -0.57,0.24l0.79 0.89 -0.63 0 -0.73 -0.89 -0.24 0 0 0.89 -0.52 0 0 -2.38 1.14 -0.02zm-0.6 0.46l0 0.64 0.6 0c0.1,0.03 0.22,0.03 0.32,0 0.04,-0.07 0.04,-0.16 0,-0.24 0.04,-0.07 0.04,-0.16 0,-0.24 -0.1,-0.03 -0.22,-0.03 -0.32,0l-0.6 -0.16zm-29.86 -10.97c0.25,-4.24 3.86,-7.5 8.13,-7.34 4.26,0.16 7.62,3.68 7.55,7.93 -0.07,4.24 -3.54,7.66 -7.8,7.68 -2.18,0.02 -4.26,-0.85 -5.76,-2.42 -1.49,-1.57 -2.26,-3.69 -2.12,-5.85l0 0zm-190.62 0l0 -12.92 -5.65 0 0 3.14c-1.94,-2.49 -4.97,-3.9 -8.14,-3.78 -7.49,0 -13.57,6.04 -13.57,13.51 0,7.46 6.08,13.51 13.57,13.51 3.17,0.11 6.2,-1.29 8.14,-3.78l0 3.13 5.65 -0.01 0 -12.8zm-21.01 0c0.25,-4.24 3.86,-7.5 8.13,-7.34 4.26,0.16 7.61,3.68 7.55,7.93 -0.07,4.24 -3.54,7.66 -7.81,7.68 -2.18,0.04 -4.28,-0.83 -5.79,-2.4 -1.5,-1.57 -2.28,-3.71 -2.13,-5.87l0.05 0z"/>
  <polygon class="fil5" points="771.44,184 856.94,184 856.94,336.95 771.44,336.95 "/>
  <path class="fil6" d="M776.86 260.49c-0.03,-29.86 13.74,-58.06 37.33,-76.49 -40.07,-31.34 -97.6,-26.78 -132.17,10.48 -34.57,37.27 -34.57,94.72 0,131.98 34.57,37.27 92.1,41.83 132.17,10.49 -23.59,-18.43 -37.35,-46.62 -37.33,-76.47l0 0.01z"/>
  <path class="fil7" d="M972.29 260.49c0,37.24 -21.36,71.21 -55.01,87.49 -33.65,16.27 -73.68,11.99 -103.09,-11.03 23.57,-18.44 37.33,-46.63 37.33,-76.47 0,-29.85 -13.76,-58.04 -37.33,-76.48 29.41,-23.02 69.44,-27.3 103.09,-11.02 33.65,16.27 55.01,50.24 55.01,87.48l0 0.03z"/>
  <path class="fil7" d="M963.66 328.07l0 -9.21 1.74 0.01 0 -1.91 -4.4 0 0 1.9 1.89 0.01 0 9.21 0.77 -0.01zm8.54 0l0 -11.11 -1.33 0 -1.56 7.94 -1.55 -7.94 -1.18 0 0 11.11 0.96 0 0 -8.33 1.44 7.23 1 0 1.45 -7.23 0 8.42 0.77 -0.09z"/>
  <path class="fil8" d="M1648.95 205.33c0,-6.21 5.08,-11.29 11.3,-11.29l340.23 0c6.21,0 11.3,5.08 11.3,11.29l0 144.63c0,6.22 -5.09,11.3 -11.3,11.3l-340.23 0c-6.22,0 -11.3,-5.08 -11.3,-11.3l0 -144.63z"/>
  <polygon class="fil9" points="1648.95,210.45 2011.78,210.45 2011.78,344.84 1648.95,344.84 "/>
  <path class="fil10" d="M1956.43 245.36c-16.6,0 -30.13,13.53 -30.13,30.13 0,16.59 13.53,30.13 30.13,30.13 16.6,0 30.13,-13.54 30.13,-30.13 0,-16.6 -13.53,-30.13 -30.13,-30.13z"/>
  <path class="fil10" d="M1708.08 245.36c-16.6,0 -30.14,13.53 -30.14,30.13 0,16.59 13.53,30.13 30.14,30.13 16.59,0 30.13,-13.54 30.13,-30.13 0,-16.6 -13.54,-30.13 -30.13,-30.13z"/>
  <path class="fil10" d="M1954.07 218.84c-27.89,-0.64 -41.01,17.24 -60.04,39.3l-17.96 20.81 28.44 34.03c6.77,10.46 -6.16,20.84 -14.18,11.27l-26.29 -31.35 -25.61 29.69c-8.16,9.45 -20.94,-1.11 -14.02,-11.47l27.81 -32.33 -18.22 -21.73 11.72 -14.52 18.52 22.26 15.97 -18.58c7.84,-9.11 15.83,-21.18 26.19,-27.39l-257.45 0.01 0 117.62 60.19 0c27.9,0 40.56,-16.68 59.08,-39.17l17.47 -21.23 -29.21 -33.36c-7.01,-10.3 5.67,-20.97 13.91,-11.59l27 30.74 24.93 -30.28c7.93,-9.64 20.95,0.63 14.27,11.15l-27.05 32.97 18.72 21.3 -11.8 13.97 -18.62 -21.01 -15.54 18.93c-7.62,9.29 -15.34,21.14 -25.56,27.58l255.04 0 0 -117.62 -57.71 0zm-198.39 56.65c0,26.22 -21.38,47.6 -47.6,47.6 -26.23,0 -47.61,-21.38 -47.61,-47.6 0,-26.23 21.38,-47.61 47.61,-47.61 26.22,0 47.6,21.39 47.6,47.61zm200.75 47.6c-26.22,0 -47.6,-21.38 -47.6,-47.6 0,-26.23 21.38,-47.61 47.6,-47.61 26.23,0 47.61,21.39 47.61,47.61 0,26.22 -21.38,47.6 -47.61,47.6z"/>
  <path class="fil11" d="M3385.33 193.32c-0.11,-23.25 -18.99,-42.07 -42.26,-42.07 -5.79,0 -11.46,1.1 -16.32,3.26l-154.02 65.41c-21.95,9.29 -37.39,31.04 -37.39,56.33l0 82.73c0,23.34 18.92,42.27 42.27,42.27 5.92,0 11.56,-1.23 16.68,-3.43l153.37 -65.11c22.1,-9.23 37.68,-31.05 37.68,-56.46l-0.01 -82.93z"/>
  <path class="fil9" d="M3243.63 309.46c-1.79,0 -3.25,-1.61 -3.25,-3.6l0 -76.08c0,-1.99 1.46,-3.61 3.25,-3.61 1.8,0 3.26,1.62 3.26,3.61l0 76.08c0,1.99 -1.46,3.6 -3.26,3.6z"/>
  <path class="fil9" d="M3271.9 306.06l0 -59.48c0,-2.02 -1.46,-3.65 -3.26,-3.65 -1.79,0 -3.24,1.63 -3.24,3.65l0 59.48c0,2.02 1.45,3.65 3.24,3.65 1.8,0 3.26,-1.63 3.26,-3.65z"/>
  <path class="fil9" d="M3271.9 229.52l0 -0.19c0,-1.74 -1.46,-3.16 -3.26,-3.16 -1.79,0 -3.24,1.42 -3.24,3.16l0 0.19c0,1.74 1.45,3.16 3.24,3.16 1.8,0 3.26,-1.42 3.26,-3.16z"/>
  <g>
   <path class="fil9" d="M3221.05 301.44c1.44,-1.42 1.44,-3.73 0,-5.16 -1.44,-1.42 -3.77,-1.42 -5.19,0 -10.61,10.51 -27.85,10.51 -38.46,0 -10.6,-10.52 -10.6,-27.63 0,-38.15 5.14,-5.09 11.97,-7.9 19.22,-7.9 7.27,0 14.09,2.81 19.23,7.9 1.43,1.43 3.76,1.43 5.2,0 1.44,-1.43 1.44,-3.73 0,-5.16 -6.52,-6.47 -15.2,-10.04 -24.43,-10.04 -9.22,0 -17.89,3.57 -24.42,10.04 -13.47,13.36 -13.47,35.1 0,48.47 6.74,6.68 15.58,10.02 24.43,10.02 8.84,0 17.68,-3.34 24.42,-10.02l0 0zm0 0l0 0 0 0z"/>
  </g>
  <path class="fil9" d="M3297.7 324.33l0 -47.2c0,-14.84 12.1,-26.92 26.97,-26.92 14.87,0 26.97,12.08 26.97,26.92 0,14.84 -12.1,26.91 -26.97,26.91 -8.57,0 -14.38,-3.27 -14.42,-3.29 -1.74,-1.02 -3.97,-0.44 -4.99,1.3 -1.02,1.73 -0.43,3.96 1.3,4.98 0.3,0.18 7.46,4.29 18.11,4.29 18.9,0 34.27,-15.34 34.27,-34.19 0,-18.86 -15.37,-34.2 -34.27,-34.2 -18.89,0 -34.26,15.34 -34.26,34.2l0 47.2c0,2.01 1.63,3.64 3.64,3.64 2.02,0 3.65,-1.63 3.65,-3.64z"/>
  <path class="fil11" d="M3384.7 348.48c0,5.8 -4.7,10.5 -10.51,10.5 -5.8,0 -10.5,-4.7 -10.5,-10.5 0,-5.81 4.7,-10.51 10.5,-10.51 5.81,0 10.51,4.7 10.51,10.51zm-1.66 0c0,-4.94 -3.97,-8.97 -8.85,-8.97 -4.87,0 -8.82,4.03 -8.82,8.97 0,4.93 3.95,8.96 8.82,8.96 4.88,0 8.85,-4.03 8.85,-8.96zm-4.44 5.74l-1.85 0 -2.64 -4.7 -1.75 0 0 4.7 -1.59 0 0 -11.52 3.92 0c2,0 3.62,1.51 3.62,3.46 0,1.68 -1.04,2.72 -2.46,3.16l2.75 4.9zm-1.91 -8.06c0,-1.16 -0.9,-2.03 -2.18,-2.03l-2.15 0 0 4.03 2.15 0c1.28,0 2.18,-0.84 2.18,-2z"/>
  <path class="fil12" d="M3825.22 178.29c-37.08,0 -67.17,30.09 -67.17,67.2 0,37.15 30.11,67.21 67.17,67.21 37.15,0 67.23,-30.06 67.23,-67.21 0,-37.11 -30.09,-67.2 -67.23,-67.2z"/>
  <path class="fil13" d="M3860.19 110.36c0,0 -1.63,-0.5 -4.51,-1.3 15.52,-4.61 35.04,-9.65 56.66,-13.39 -30.32,0 -56.11,1.5 -78,4.9 -3.14,0.48 -6.18,1 -9.14,1.55 -2.93,-0.55 -5.99,-1.07 -9.14,-1.55 -21.88,-3.39 -47.64,-4.9 -77.97,-4.9 21.63,3.75 41.13,8.78 56.66,13.39 -2.89,0.81 -4.53,1.31 -4.53,1.31 -100.36,31.44 -175.97,100.18 -170.54,156.52 4.51,46.79 52.19,70.48 129.91,62.4 -43.21,-7.83 -60.94,-29.7 -64.14,-62.8 -4.91,-50.71 52.59,-110.68 134.22,-145.15 0,0 2.01,-0.83 5.53,-2.15 3.53,1.32 5.54,2.15 5.54,2.15 81.61,34.47 139.06,94.44 134.2,145.15 -3.19,33.12 -20.93,54.99 -64.14,62.8 77.71,8.08 125.44,-15.63 129.91,-62.4 5.43,-56.34 -70.19,-125.08 -170.57,-156.52l0.05 -0.01z"/>
  <path class="fil14" d="M3606.25 385.45l0 -0.17c8.54,-1.01 14.18,-6.44 14.18,-13.71 0,-10.23 -9.69,-12.41 -15.27,-12.41l-24.03 -0.01 -11.34 54.13 24.67 -0.3c12.41,-0.15 22.25,-5.59 22.25,-17.07 0,-5.97 -4.25,-9.54 -10.46,-10.46zm-16.13 17.58l-3.88 0 2.63 -12.71 3.49 0c6.51,0 9.93,0.7 9.93,5.43 0,5.27 -4.9,7.28 -12.18,7.28l0.01 0zm6.29 -22.48l-5.43 0 2.33 -11.15 3.72 -0.01c5.43,0 8.99,0.69 8.99,5.05 0,3.72 -3.56,6.12 -9.61,6.12l0 -0.01z"/>
  <path class="fil14" d="M3645.25 371.95c-6.28,0 -10.69,0.92 -14.82,2.33l-1.39 10.16c4.66,-2.42 8.08,-3.19 13.11,-3.19 4.57,0 7.45,2.34 7.45,5.2 0,0.54 0,1.07 -0.16,1.63 -1.94,-0.17 -4.72,-0.39 -7.53,-0.39 -12.32,0 -22.27,4.88 -22.27,14.82 0,7.82 4.81,11.71 13.5,11.71 5.43,0 10.63,-1.95 13.58,-6.59l0 -0.15 0.16 0.15 -0.62 5.66 11.39 0c1.55,-12.17 5.13,-21.26 5.13,-27.6 0,-9.92 -7.92,-13.73 -17.54,-13.73l0.01 -0.01zm-7.68 32.96c-2.95,0 -4.73,-2.2 -4.73,-4.04 0,-3.56 4.9,-5.96 11.56,-5.74 0.85,0 2.57,0 3.72,0.23 -1.01,5.44 -4.58,9.54 -10.55,9.54l0 0.01z"/>
  <path class="fil14" d="M3700.01 371.95c-7.38,0 -11.56,3.01 -15.58,7.51l-0.15 0 1.09 -6.6 -12.96 0c-0.39,3.64 -1.01,7.07 -1.72,10.55l-6.28 29.85 13.95 0 3.97 -18.61c1.01,-5.97 4.5,-11.11 10.4,-11.11 3.87,-0.15 5.43,2.27 5.43,4.67 0,2.1 -0.55,4.11 -0.94,6.12l-3.87 18.93 14.42 0 3.72 -18.85c0.86,-4.26 1.09,-5.8 1.09,-8.53 0,-7.92 -4.41,-13.97 -12.56,-13.97l-0.01 0.04z"/>
  <path class="fil14" d="M3742.9 382.16c3.09,0 6.13,0.87 9.01,2.18l3.02 -9.69c-4.11,-1.72 -9.31,-2.72 -12.72,-2.72 -15.51,0 -26.06,10.53 -26.06,23.81 0,10.15 7.3,18.46 19.08,18.46 5.44,0 9.16,-0.62 11.95,-1.56l2.01 -10.46c-3.02,1.24 -5.51,1.79 -9.01,1.79 -5.9,0 -9.62,-3.95 -9.62,-8.77 0,-8.37 5.11,-13.04 12.34,-13.04l0 0z"/>
  <path class="fil14" d="M3779.04 371.95c-15.83,0 -26.06,9.6 -26.06,23.81 0,10.14 6.05,18.46 21.03,18.46 15.11,0 26.06,-7.38 26.06,-24.22 0,-10.14 -7.29,-18.06 -21.03,-18.06l0 0.01zm-4.02 32.49c-4.73,0.08 -7.61,-3.57 -7.61,-9.01 0,-6.44 4.19,-13.71 10.93,-13.71 5.43,0 7.28,3.95 7.28,8.12 0,9.16 -4.11,14.59 -10.62,14.59l0.02 0.01z"/>
  <path class="fil14" d="M3845.26 359.13l-32.18 54.15 15.68 0 6.42 -11.55 21.03 0 1.48 11.55 14.58 0 -8.83 -54.14 -18.16 -0.01 -0.02 0zm-4.42 32.35l11.47 -21.16 0.16 0 2.34 21.16 -13.97 0z"/>
  <polygon class="fil14" points="3880.32,383.11 3897.61,383.11 3875.58,402.72 3873.56,413.28 3908.7,413.28 3910.8,403.03 3892.33,403.03 3914.52,383.43 3916.68,372.88 3882.41,372.88 "/>
  <path class="fil14" d="M3938.33 382.64l10.17 0 1.69 -9.78 -9.61 0 2.8 -12.64 -14.74 3.96 -1.95 8.68 -7.98 0 -1.71 9.78 7.45 0 -2.4 11.32c-0.93,4.26 -1.24,6.29 -1.24,8.31 0,8.45 5.67,11.94 12.8,11.94 2.78,0 5.73,-0.32 8.69,-0.78l1.56 -9.22c-1.49,0.55 -3.04,1.16 -4.52,1.16 -2.8,0 -4.57,-1.79 -4.57,-4.51 0,-1.95 0.54,-3.96 1.16,-6.98l2.41 -11.24 -0.01 0z"/>
  <path class="fil14" d="M3973.01 371.95c-18.01,0 -24.22,14.41 -24.22,23.81 0,10.14 7.3,18.46 20.78,18.46 4.04,0 9.22,-0.77 14.12,-2.25l1.77 -9.86c-3.87,1.86 -8.92,2.8 -12.64,2.8 -8.54,0 -10.7,-3.4 -10.87,-7.76l28.64 0c0.55,-2.4 1,-5.97 1,-7.62 0,-12.25 -7.98,-17.58 -18.59,-17.58l0.01 0zm-10.18 17.3c1.01,-3.89 4.26,-8 10.31,-8 5.14,0 6.83,3.66 6.83,8l-17.14 0z"/>
  <path class="fil14" d="M4021.78 382.16c3.09,0 6.12,0.87 9,2.18l3.02 -9.69c-4.11,-1.72 -9.31,-2.72 -12.73,-2.72 -15.51,0 -26.06,10.53 -26.06,23.81 0,10.15 7.29,18.46 19.08,18.46 5.44,0 9.16,-0.62 11.94,-1.56l2.03 -10.46c-3.01,1.24 -5.51,1.79 -9,1.79 -5.9,0 -9.63,-3.95 -9.63,-8.77 0,-8.37 5.11,-13.04 12.34,-13.04l0.01 0z"/>
  <path class="fil14" d="M4056.99 371.95c-6.29,0 -10.7,0.92 -14.83,2.33l-1.39 10.16c4.65,-2.42 8.07,-3.19 13.11,-3.19 4.58,0 7.45,2.34 7.45,5.2 0,0.54 0,1.07 -0.15,1.63 -1.95,-0.17 -4.75,-0.39 -7.53,-0.39 -12.33,0 -22.27,4.88 -22.27,14.82 0,7.82 4.81,11.71 13.5,11.71 5.43,0 10.63,-1.95 13.58,-6.59l0 -0.15 0.15 0.15 -0.62 5.66 11.41 0c1.56,-12.17 5.13,-21.26 5.13,-27.6 0,-9.92 -7.91,-13.73 -17.54,-13.73l0 -0.01zm-7.68 32.96c-2.95,0 -4.74,-2.2 -4.74,-4.04 0,-3.56 4.9,-5.96 11.55,-5.74 0.86,0 2.55,0 3.72,0.23 -1.01,5.44 -4.57,9.54 -10.53,9.54l0 0.01z"/>
  <polygon class="fil9" points="1168.33,128.18 1476.98,128.18 1476.98,436.83 1168.33,436.83 "/>
  <path class="fil15" d="M1185.75 404.34l-0.87 0c0,-0.44 -0.21,-1.1 -0.21,-1.31 0,-0.22 0,-0.65 -0.65,-0.65l-1.32 0 0 1.96 -0.65 0 0 -4.57 1.95 0c0.87,0 1.52,0.22 1.52,1.09 0,0.65 -0.22,0.87 -0.44,1.08 0.22,0.22 0.44,0.44 0.44,0.88l0 0.87c0,0.21 0,0.21 0.21,0.21l0 0.44 0.02 0zm-0.87 -3.26c0,-0.65 -0.43,-0.65 -0.65,-0.65l-1.51 0 0 1.31 1.3 0c0.44,0 0.87,-0.22 0.87,-0.65l-0.01 -0.01zm3.7 0.86c0,-2.6 -2.17,-4.78 -5,-4.78 -2.61,0 -4.78,2.18 -4.78,4.78 0,2.83 2.17,5 4.78,5 2.82,0 5,-2.17 5,-5zm-0.66 0c0,2.4 -1.95,4.13 -4.34,4.13 -2.39,0 -4.12,-1.73 -4.12,-4.13 0,-2.17 1.73,-4.13 4.12,-4.13 2.39,0 4.34,1.96 4.34,4.13zm267.68 -87.77c0,6.52 -4.13,9.56 -11.52,9.56l-14.11 0 0 -6.52 14.11 0c1.31,0 2.39,-0.22 2.84,-0.65 0.44,-0.44 0.86,-1.1 0.86,-1.96 0,-0.88 -0.43,-1.74 -0.86,-2.17 -0.43,-0.43 -1.31,-0.65 -2.61,-0.65 -6.74,-0.22 -15.21,0.21 -15.21,-9.35 0,-4.35 2.82,-9.13 10.43,-9.13l14.56 0 0 6.53 -13.48 0c-1.31,0 -2.17,0 -2.82,0.43 -0.65,0.65 -1.1,1.31 -1.1,2.39 0,1.09 0.65,1.74 1.53,2.17 0.87,0.22 1.73,0.44 2.82,0.44l3.92 0c4.13,0 6.74,0.86 8.47,2.39 1.31,1.51 2.17,3.48 2.17,6.52l0 0zm-30.64 -6.52c-1.73,-1.53 -4.34,-2.39 -8.47,-2.39l-3.91 0c-1.09,0 -1.95,-0.22 -2.83,-0.44 -0.87,-0.43 -1.52,-1.09 -1.52,-2.17 0,-1.08 0.22,-1.74 1.1,-2.39 0.65,-0.44 1.51,-0.44 2.82,-0.44l13.47 0.01 0 -6.53 -14.56 0c-7.82,0 -10.43,4.78 -10.43,9.13 0,9.57 8.47,9.13 15.22,9.35 1.3,0 2.17,0.21 2.61,0.65 0.43,0.43 0.87,1.3 0.87,2.17 0,0.86 -0.43,1.51 -0.87,1.96 -0.65,0.43 -1.52,0.65 -2.83,0.65l-14.11 0 0 6.52 14.11 0c7.39,0 11.53,-3.03 11.53,-9.56 0,-3.04 -0.88,-5 -2.18,-6.52l0 0 -0.02 0zm-27.81 9.78l-17.17 0 0 -6.08 16.74 0 0 -6.08 -16.74 0 0 -5.66 17.17 0 0 -6.31 -24.34 0 0 30.42 24.34 0 0 -6.29zm-32.16 -22.6c-2.39,-1.31 -5.21,-1.53 -8.9,-1.53l-16.73 0 0 30.42 7.39 0 0 -11.09 7.81 0c2.61,0 4.13,0.22 5.22,1.31 1.31,1.52 1.31,4.13 1.31,6.08l0 3.69 7.16 0 0 -5.87c0,-2.82 -0.22,-4.13 -1.08,-5.64 -0.65,-0.88 -1.96,-1.96 -3.7,-2.61 1.96,-0.65 5.21,-3.25 5.21,-8.03 0,-3.48 -1.3,-5.45 -3.7,-6.74l0.01 0.01zm-41.27 -1.53l-23.26 0 -9.34 10 -8.9 -10 -29.34 0 0 30.42 28.9 0 9.35 -9.99 8.91 9.99 14.12 0 0 -10.21 9.13 0c6.3,0 12.61,-1.74 12.61,-10.21 -0.01,-8.25 -6.52,-9.99 -12.17,-9.99l-0.01 -0.01zm35.41 12.62c-1.08,0.43 -2.17,0.43 -3.47,0.43l-8.9 0.22 0 -6.96 8.9 0c1.31,0 2.6,0 3.47,0.65 0.88,0.43 1.53,1.31 1.53,2.61 0,1.3 -0.65,2.39 -1.53,3.03l0 0.02zm-35.41 1.51l-9.56 0 0 -7.82 9.56 0c2.6,0 4.33,1.09 4.33,3.69 0,2.62 -1.73,4.13 -4.33,4.13l0 0 0 0zm-28.04 1.08l11.29 -11.95 0 24.55 -11.29 -12.61 0 0.01zm-17.6 8.92l-18.03 0 0 -6.08 16.08 0 0 -6.08 -16.08 0 0 -5.66 18.26 0 8.04 8.9 -8.27 8.92zm157.31 -46.06l-10.43 0 -13.68 -22.81 0 22.81 -14.78 0 -2.83 -6.74 -15.21 0 -2.82 6.74 -8.47 0c-3.49,0 -8.05,-0.86 -10.65,-3.48 -2.39,-2.61 -3.7,-6.08 -3.7,-11.51 0,-4.57 0.65,-8.69 3.92,-11.95 2.17,-2.4 6.08,-3.48 11.07,-3.48l6.96 0 0 6.53 -6.95 0c-2.61,0 -4.13,0.43 -5.65,1.73 -1.31,1.3 -1.96,3.7 -1.96,6.95 0,3.26 0.65,5.65 1.96,7.17 1.08,1.08 3.04,1.52 5,1.52l3.25 0 10.43 -23.9 10.87 0 12.17 28.68 0 -28.68 11.29 0 12.81 21.07 0 -21.07 7.4 0 0 30.42zm-86.25 -30.42l-7.39 0 0 30.42 7.39 0 0 -30.42zm-15.43 1.3c-2.39,-1.3 -5,-1.3 -8.68,-1.3l-16.74 -0.01 0 30.42 7.18 0 0 -11.09 7.82 0c2.6,0 4.35,0.22 5.43,1.31 1.3,1.51 1.09,4.13 1.09,5.86l0 3.92 7.39 0 0 -6.08c0,-2.61 -0.22,-3.92 -1.31,-5.44 -0.65,-0.87 -1.96,-1.96 -3.47,-2.61 1.94,-0.87 5.21,-3.26 5.21,-8.04 0,-3.47 -1.53,-5.43 -3.91,-6.94l0 0 -0.01 0zm-30.64 22.81l-16.94 0 0 -6.08 16.73 0 0 -6.29 -16.73 0 0 -5.44 16.94 0 0 -6.3 -24.34 0 0 30.42 24.34 0 0 -6.31zm-29.77 -24.11l-11.95 0 -8.91 20.64 -9.57 -20.64 -11.73 0 0 28.68 -12.39 -28.68 -10.85 0 -13.03 30.42 7.81 0 2.83 -6.74 15.2 0 2.83 6.74 14.77 0 0 -23.89 10.64 23.89 6.3 0 10.65 -23.89 0 23.89 7.39 0 0 -30.42 0.01 0zm117.77 17.16l-5 -11.95 -5 11.95 10 0zm-63.02 -4.77c-1.08,0.65 -2.17,0.65 -3.68,0.65l-8.92 0 0 -6.74 8.92 0c1.31,0 2.82,0 3.68,0.43 0.87,0.65 1.31,1.53 1.31,2.84 0,1.31 -0.43,2.39 -1.31,2.82l0 0zm-119.92 4.77l4.99 -11.95 5 11.95 -9.99 0zm245.73 -112.54l-259.2 0 0 109.5 8.9 -20.2 18.9 0 2.61 5 0 -5 22.17 0 5 10.86 4.78 -10.86 70.61 0c3.26,0 6.08,0.65 8.25,2.39l0 -2.39 19.35 0 0 2.39c3.25,-1.74 7.38,-2.39 12.16,-2.39l28.03 0 2.61 5 0 -5 20.65 0 3.03 5 0 -5 20.21 0 0 42.58 -20.42 0 -3.92 -6.52 0 6.52 -25.42 0 -2.83 -6.94 -6.3 0 -2.83 6.94 -13.25 0c-5.21,0 -9.13,-1.31 -11.72,-2.61l0 2.61 -31.51 0 0 -9.78c0,-1.31 -0.22,-1.51 -1.1,-1.51l-1.07 0 0 11.29 -60.85 0 0 -5.43 -2.17 5.43 -12.82 0 -2.17 -5.21 0 5.21 -24.56 0 -2.6 -6.94 -6.31 0 -2.82 6.94 -12.6 0 0 128.41 259.2 0 0 -78.01c-2.83,1.31 -6.74,1.96 -10.65,1.96l-18.9 0 0 -2.62c-2.17,1.74 -6.08,2.62 -9.77,2.62l-59.53 0 0 -9.78c0,-1.31 -0.22,-1.31 -1.31,-1.31l-1.08 0 0 11.09 -19.56 0 0 -11.52c-3.25,1.51 -6.95,1.51 -10.21,1.51l-2.17 0.01 0 9.99 -23.9 0 -5.64 -6.52 -6.3 6.52 -38.46 0 0 -42.58 39.1 0 5.65 6.52 6.07 -6.52 26.3 0c3.04,0 8.05,0.43 10.21,2.6l0 -2.6 23.46 0c2.4,0 6.96,0.43 10,2.6l0 -2.6 35.41 0 0 2.6c1.96,-1.74 5.66,-2.6 8.91,-2.6l19.77 0 0 2.6c2.17,-1.51 5.22,-2.6 9.13,-2.6l13.47 0 0 -141.66 0.01 0.01z"/>
  <g>
   <path class="fil16" d="M2457.68 278.43c0,-54.24 -67.39,-98.45 -150.52,-98.45 -83.12,0 -150.51,44.21 -150.51,98.45 0,1.4 -0.03,5.29 -0.03,5.77 0,57.54 58.92,104.13 150.51,104.13 92.18,0 150.55,-46.59 150.55,-104.13 0,-2.01 0,-3.18 0,-5.79l0 0.02z"/>
   <path class="fil17" d="M2451.91 278.38c0,51.13 -64.8,92.59 -144.73,92.59 -79.92,0 -144.72,-41.46 -144.72,-92.59 0,-51.14 64.8,-92.6 144.72,-92.6 79.93,0 144.73,41.46 144.73,92.6z"/>
   <path class="fil9" d="M2259.12 249.17c-0.08,0.13 -1.51,1.64 -0.58,2.83 2.28,2.91 9.33,4.58 16.47,2.99 4.23,-0.95 9.68,-5.27 14.98,-9.47 5.72,-4.55 11.38,-9.08 17.09,-10.9 6.03,-1.93 9.9,-1.08 12.46,-0.32 2.8,0.82 6.11,2.67 11.35,6.61 9.9,7.46 49.72,42.23 56.59,48.2 5.56,-2.5 30.16,-13.09 63.63,-20.47 -2.91,-17.83 -13.76,-34.18 -30.22,-47.55 -22.94,9.63 -50.99,14.68 -78.4,1.27 -0.13,-0.05 -14.98,-7.09 -29.61,-6.72 -21.75,0.5 -31.19,9.92 -41.14,19.87l-12.61 13.63 -0.01 0.03z"/>
   <path class="fil9" d="M2385.87 292.92c-0.48,-0.42 -46.83,-40.97 -57.31,-48.86 -6.09,-4.55 -9.47,-5.74 -13.02,-6.19 -1.85,-0.24 -4.39,0.11 -6.19,0.58 -4.89,1.32 -11.27,5.61 -16.96,10.11 -5.87,4.68 -11.4,9.08 -16.54,10.24 -6.56,1.48 -14.57,-0.26 -18.22,-2.73 -1.48,-1.01 -2.51,-2.14 -3.02,-3.31 -1.35,-3.12 1.14,-5.64 1.56,-6.06l12.8 -13.84c1.48,-1.48 2.99,-2.96 4.52,-4.42 -4.13,0.53 -7.94,1.59 -11.66,2.62 -4.63,1.3 -9.08,2.54 -13.6,2.54 -1.88,0 -11.96,-1.64 -13.86,-2.17 -11.59,-3.18 -21.75,-6.24 -36.91,-13.34 -18.18,13.55 -30.35,30.48 -33.87,49.11 2.62,0.69 6.83,1.96 8.6,2.33 41.17,9.15 53.98,18.56 56.3,20.55 2.51,-2.8 6.16,-4.57 10.21,-4.57 4.55,0 8.65,2.27 11.14,5.81 2.35,-1.85 5.61,-3.44 9.82,-3.44 1.91,0 3.89,0.34 5.86,1.03 4.66,1.59 7.04,4.68 8.28,7.49 1.56,-0.71 3.47,-1.22 5.72,-1.22 2.22,0 4.52,0.5 6.85,1.51 7.59,3.25 8.76,10.72 8.07,16.32 0.53,-0.05 1.08,-0.08 1.64,-0.08 9,0 16.32,7.33 16.32,16.32 0,2.78 -0.71,5.4 -1.96,7.7 2.43,1.38 8.68,4.5 14.18,3.78 4.37,-0.56 6.03,-2.04 6.64,-2.88 0.4,-0.58 0.85,-1.24 0.45,-1.75l-11.62 -12.91c0,0 -1.91,-1.8 -1.27,-2.51 0.64,-0.71 1.83,0.32 2.67,1.01 5.93,4.95 13.12,12.38 13.12,12.38 0.11,0.08 0.61,1.03 3.28,1.51 2.3,0.4 6.38,0.16 9.18,-2.14 0.71,-0.58 1.43,-1.32 2.01,-2.06 -0.05,0.03 -0.08,0.11 -0.13,0.11 2.96,-3.81 -0.32,-7.65 -0.32,-7.65l-13.57 -15.21c0,0 -1.93,-1.8 -1.27,-2.51 0.58,-0.64 1.83,0.32 2.7,1.03 4.29,3.6 10.35,9.68 16.17,15.37 1.14,0.85 6.24,4 13.02,-0.45 4.1,-2.7 4.92,-6.01 4.82,-8.49 -0.29,-3.31 -2.86,-5.66 -2.86,-5.66l-18.52 -18.63c0,0 -1.96,-1.67 -1.27,-2.5 0.56,-0.71 1.83,0.32 2.67,1 5.9,4.95 21.88,19.58 21.88,19.58 0.24,0.16 5.74,4.1 12.57,-0.26 2.43,-1.56 4,-3.92 4.13,-6.64 0.24,-4.74 -3.12,-7.54 -3.12,-7.54l-0.11 -0.01z"/>
   <path class="fil9" d="M2296.05 316.52c-2.86,-0.03 -6.01,1.67 -6.43,1.43 -0.24,-0.16 0.16,-1.3 0.45,-1.98 0.29,-0.68 4.05,-12.04 -5.16,-15.98 -7.06,-3.02 -11.35,0.37 -12.83,1.93 -0.4,0.4 -0.56,0.37 -0.61,-0.13 -0.13,-2.04 -1.06,-7.59 -7.14,-9.45 -8.69,-2.65 -14.28,3.41 -15.71,5.61 -0.64,-4.97 -4.82,-8.81 -9.95,-8.81 -5.58,0 -10.11,4.52 -10.11,10.11 0,5.59 4.52,10.08 10.11,10.08 2.7,0 5.16,-1.08 6.99,-2.8 0.05,0.05 0.08,0.13 0.05,0.34 -0.42,2.49 -1.19,11.56 8.31,15.27 3.81,1.48 7.06,0.37 9.73,-1.51 0.79,-0.56 0.93,-0.32 0.82,0.42 -0.34,2.33 0.11,7.33 7.12,10.16 5.32,2.17 8.49,-0.05 10.56,-1.96 0.9,-0.82 1.14,-0.69 1.19,0.58 0.26,6.77 5.87,12.12 12.67,12.14 7.01,0 12.73,-5.66 12.73,-12.7 0,-7.04 -5.69,-12.62 -12.7,-12.7l-0.09 -0.05z"/>
   <path class="fil16" d="M2296.05 341.02c-6.35,0 -11.54,-4.95 -11.77,-11.24 0,-0.53 -0.08,-1.98 -1.27,-1.98 -0.5,0 -0.95,0.32 -1.43,0.74 -1.4,1.3 -3.18,2.62 -5.77,2.62 -1.19,0 -2.46,-0.29 -3.81,-0.82 -6.72,-2.73 -6.83,-7.33 -6.56,-9.18 0.08,-0.5 0.11,-1.01 -0.24,-1.4l-0.42 -0.37 -0.43 -0.01c-0.34,0 -0.68,0.13 -1.15,0.48 -1.96,1.38 -3.81,2.01 -5.72,2.01 -1.03,0 -2.12,-0.21 -3.18,-0.64 -8.84,-3.44 -8.15,-11.8 -7.73,-14.29 0.05,-0.53 -0.08,-0.9 -0.4,-1.16l-0.64 -0.53 -0.58 0.56c-1.72,1.67 -3.97,2.57 -6.35,2.57 -5.08,0 -9.21,-4.13 -9.21,-9.18 0,-5.05 4.13,-9.18 9.21,-9.18 4.58,0 8.47,3.44 9.05,8.02l0.32 2.46 1.35 -2.09c0.16,-0.24 3.86,-5.87 10.69,-5.85 1.3,0 2.65,0.21 3.99,0.64 5.45,1.67 6.38,6.59 6.51,8.65 0.11,1.19 0.95,1.24 1.11,1.24 0.48,0 0.82,-0.29 1.06,-0.56 1.03,-1.06 3.25,-2.86 6.75,-2.86 1.59,0 3.31,0.37 5.05,1.14 8.65,3.7 4.74,14.68 4.68,14.82 -0.74,1.83 -0.77,2.65 -0.08,3.1l0.34 0.16 0.28 -0.01c0.4,0 0.87,-0.16 1.67,-0.45 1.16,-0.4 2.96,-1.01 4.6,-1.01l0 0c6.51,0.08 11.8,5.37 11.8,11.8 0,6.51 -5.32,11.77 -11.8,11.77l0.08 0.03zm91.62 -52.97c-14.29,-12.45 -47.28,-41.13 -56.22,-47.85 -5.11,-3.84 -8.6,-5.87 -11.64,-6.77 -1.38,-0.42 -3.28,-0.9 -5.72,-0.9 -2.28,0 -4.71,0.4 -7.25,1.22 -5.79,1.83 -11.54,6.4 -17.09,10.82l-0.29 0.24c-5.19,4.13 -10.53,8.39 -14.61,9.29 -1.77,0.4 -3.6,0.61 -5.4,0.61 -4.55,0 -8.62,-1.32 -10.15,-3.25 -0.26,-0.32 -0.11,-0.85 0.5,-1.59l0.08 -0.11 12.56 -13.55c9.84,-9.84 19.13,-19.13 40.53,-19.61 0.34,0 0.71,-0.03 1.06,-0.03 13.31,0 26.62,5.98 28.1,6.67 12.49,6.09 25.37,9.18 38.34,9.21 13.49,0 27.44,-3.33 42.07,-10.08 -1.64,-1.38 -3.33,-2.7 -5.08,-4.02 -12.86,5.58 -25.14,8.39 -36.94,8.39 -12.09,-0.03 -24.16,-2.91 -35.88,-8.63 -0.61,-0.29 -15.32,-7.22 -30.61,-7.22 -0.4,0 -0.79,0 -1.19,0.03 -17.97,0.42 -28.1,6.8 -34.9,12.38 -6.61,0.16 -12.33,1.75 -17.4,3.18 -4.55,1.24 -8.44,2.35 -12.28,2.35 -1.59,0 -4.39,-0.13 -4.66,-0.16 -4.39,-0.13 -26.51,-5.56 -44.13,-12.22 -1.8,1.27 -3.52,2.59 -5.21,3.92 18.39,7.54 40.77,13.36 47.84,13.84 1.96,0.13 4.05,0.34 6.14,0.34 4.68,0 9.34,-1.3 13.86,-2.57 2.64,-0.74 5.6,-1.56 8.69,-2.17 -0.82,0.82 -1.64,1.64 -2.49,2.46l-12.74 13.81c-1.01,1.01 -3.2,3.73 -1.75,7.06 0.58,1.35 1.75,2.65 3.36,3.73 3.04,2.04 8.46,3.44 13.54,3.44 1.91,0 3.73,-0.19 5.4,-0.56 5.34,-1.19 10.95,-5.66 16.91,-10.4 4.74,-3.76 11.46,-8.55 16.62,-9.95 1.43,-0.4 3.2,-0.64 4.63,-0.64 0.42,0 0.82,0.03 1.19,0.08 3.41,0.42 6.69,1.59 12.57,6.01 10.48,7.86 56.83,48.41 57.28,48.81 0.03,0.03 2.99,2.57 2.78,6.83 -0.11,2.35 -1.43,4.47 -3.7,5.93 -1.98,1.24 -4.02,1.88 -6.09,1.88 -3.1,0 -5.24,-1.46 -5.37,-1.56 -0.16,-0.13 -16.06,-14.71 -21.91,-19.61 -0.93,-0.76 -1.83,-1.45 -2.75,-1.45 -0.48,0 -0.93,0.21 -1.22,0.58 -0.93,1.13 0.11,2.69 1.32,3.72l18.55 18.65c0.03,0.03 2.3,2.17 2.57,5.03 0.16,3.1 -1.32,5.69 -4.39,7.7 -2.2,1.43 -4.39,2.17 -6.59,2.17 -2.86,0 -4.84,-1.3 -5.29,-1.61l-2.65 -2.62c-4.87,-4.79 -9.9,-9.74 -13.57,-12.81 -0.9,-0.74 -1.85,-1.43 -2.78,-1.43 -0.45,0 -0.85,0.16 -1.16,0.5 -0.42,0.48 -0.71,1.3 0.34,2.7 0.42,0.56 0.93,1.03 0.93,1.03l13.55 15.21c0.11,0.13 2.78,3.31 0.32,6.48l-0.48 0.61c-0.4,0.45 -0.85,0.87 -1.24,1.22 -2.3,1.91 -5.4,2.12 -6.61,2.12 -0.66,0 -1.3,-0.08 -1.83,-0.16 -1.35,-0.24 -2.22,-0.61 -2.67,-1.14l-0.16 -0.16c-0.74,-0.77 -7.57,-7.73 -13.23,-12.44 -0.74,-0.64 -1.67,-1.4 -2.62,-1.4 -0.48,0 -0.9,0.19 -1.22,0.56 -1.11,1.22 0.56,3.04 1.27,3.73l11.56 12.73c-0.03,0.11 -0.16,0.37 -0.45,0.77 -0.42,0.56 -1.8,1.98 -6.01,2.49 -0.5,0.08 -1.03,0.11 -1.53,0.11 -4.31,0 -8.92,-2.09 -11.3,-3.36 1.08,-2.28 1.64,-4.82 1.64,-7.33 0,-9.5 -7.73,-17.25 -17.22,-17.25 -0.21,0 -0.42,0 -0.61,0 0.32,-4.34 -0.32,-12.54 -8.73,-16.17 -2.43,-1.06 -4.87,-1.59 -7.2,-1.59 -1.85,0 -3.62,0.32 -5.27,0.95 -1.75,-3.39 -4.66,-5.87 -8.44,-7.14 -2.09,-0.71 -4.17,-1.07 -6.18,-1.07 -3.52,0 -6.75,1.02 -9.63,3.06 -2.75,-3.43 -6.93,-5.47 -11.32,-5.47 -3.84,0 -7.54,1.53 -10.29,4.25 -3.6,-2.74 -17.86,-11.79 -56.01,-20.47 -1.85,-0.42 -6.09,-1.64 -8.68,-2.38 -0.42,2.06 -0.77,4.15 -0.98,6.24 0,0 7.04,1.69 8.41,2.01 39,8.65 51.86,17.66 54.05,19.36 -0.74,1.77 -1.14,3.68 -1.14,5.61 0,8.04 6.54,14.61 14.61,14.61 0.9,0 1.8,-0.08 2.67,-0.24 1.22,5.93 5.11,10.42 11.03,12.73 1.75,0.66 3.49,1.01 5.21,1.01 1.11,0 2.22,-0.13 3.33,-0.42 1.08,2.78 3.54,6.24 9.07,8.49 1.93,0.77 3.86,1.19 5.74,1.19 1.53,0 3.04,-0.26 4.47,-0.79 2.65,6.43 8.92,10.69 15.93,10.69 4.63,0 9.1,-1.88 12.36,-5.21 2.78,1.56 8.65,4.34 14.58,4.34 0.77,0 1.51,-0.05 2.22,-0.13 5.9,-0.74 8.63,-3.04 9.9,-4.84 0.24,-0.32 0.42,-0.64 0.61,-0.98 1.38,0.4 2.91,0.74 4.66,0.74 3.23,0 6.32,-1.11 9.42,-3.39 3.07,-2.2 5.24,-5.4 5.56,-8.1 0,-0.05 0.03,-0.08 0.03,-0.11 1.03,0.21 2.09,0.32 3.15,0.32 3.31,0 6.56,-1.03 9.68,-3.07 6.01,-3.92 7.04,-9.08 6.96,-12.44 1.03,0.21 2.12,0.32 3.18,0.32 3.12,0 6.16,-0.93 9.08,-2.78 3.73,-2.38 5.95,-6.03 6.3,-10.27 0.24,-2.88 -0.48,-5.79 -2.01,-8.28 10.05,-4.34 33.07,-12.72 60.14,-18.83 -0.16,-2.09 -0.48,-4.18 -0.85,-6.24 -32.76,7.28 -57.23,17.86 -63.34,20.57l-0.1 -0.11z"/>
   <path class="fil16" d="M2957.11 254.75c-2.65,3.49 -6.4,5.24 -11.32,5.24 -4.92,0 -8.7,-1.75 -11.35,-5.24 -2.67,-3.49 -4,-8.47 -4,-14.92 0,-6.45 1.32,-11.4 4,-14.9 2.65,-3.49 6.46,-5.21 11.35,-5.21 4.89,0 8.7,1.75 11.32,5.21 2.62,3.46 3.97,8.44 3.97,14.9 0,6.46 -1.32,11.43 -3.97,14.92zm13.46 -39.05c-5.42,-6.8 -13.68,-10.21 -24.74,-10.21 -11.06,0 -19.31,3.41 -24.74,10.21 -5.42,6.8 -8.15,14.84 -8.15,24.13 0,9.45 2.73,17.52 8.15,24.24 5.42,6.72 13.68,10.05 24.74,10.05 11.06,0 19.31,-3.36 24.74,-10.05 5.45,-6.72 8.15,-14.79 8.15,-24.24 0,-9.29 -2.7,-17.33 -8.15,-24.13z"/>
   <path class="fil16" d="M2823.16 246.79c-0.11,5.64 -1.72,9.55 -4.84,11.67 -3.12,2.12 -6.51,3.23 -10.19,3.23 -2.33,0 -4.31,-0.66 -5.93,-1.93 -1.62,-1.27 -2.43,-3.36 -2.43,-6.24 0,-3.23 1.32,-5.61 4,-7.17 1.59,-0.9 4.15,-1.67 7.75,-2.3l3.84 -0.71c1.91,-0.37 3.41,-0.74 4.52,-1.16 1.11,-0.42 2.2,-0.95 3.28,-1.64l0 6.27 0 -0.02zm8.57 -36.78c-5.5,-2.78 -11.83,-4.21 -18.92,-4.21 -10.9,0 -18.6,2.86 -23.1,8.52 -2.83,3.65 -4.39,8.28 -4.76,13.92l16.3 0c0.4,-2.49 1.19,-4.47 2.41,-5.93 1.69,-1.98 4.55,-2.96 8.57,-2.96 3.6,0 6.35,0.5 8.2,1.51 1.85,1.01 2.8,2.83 2.8,5.48 0,2.17 -1.22,3.76 -3.65,4.79 -1.35,0.58 -3.6,1.08 -6.75,1.48l-5.77 0.71c-6.56,0.82 -11.54,2.22 -14.92,4.15 -6.16,3.55 -9.26,9.29 -9.26,17.25 0,6.11 1.91,10.85 5.74,14.18 3.83,3.33 8.7,4.74 14.58,5 36.86,1.64 36.43,-19.42 36.78,-23.81l0 -24.24c0,-7.78 -2.75,-13.07 -8.26,-15.88l0.01 0.04z"/>
   <path class="fil16" d="M2747.67 220.25c4.23,0 7.3,1.3 9.31,3.92 1.38,1.93 2.22,4.1 2.57,6.51l18.18 0c-1.01,-9.18 -4.21,-15.58 -9.63,-19.21 -5.42,-3.63 -12.38,-5.42 -20.9,-5.42 -10.03,0 -17.89,3.07 -23.57,9.21 -5.68,6.14 -8.55,14.74 -8.55,25.77 0,9.79 2.57,17.75 7.73,23.89 5.16,6.14 13.2,9.21 24.1,9.21 10.93,0 19.18,-3.68 24.77,-11.03 3.49,-4.58 5.42,-9.42 5.85,-14.53l-18.14 -0.01c-0.37,3.39 -1.43,6.14 -3.18,8.26 -1.75,2.12 -4.68,3.18 -8.86,3.18 -5.85,0 -9.84,-2.67 -11.99,-8.04 -1.16,-2.86 -1.75,-6.64 -1.75,-11.35 0,-4.95 0.58,-8.92 1.75,-11.91 2.22,-5.64 6.3,-8.47 12.28,-8.47l0.03 0.02z"/>
   <path class="fil16" d="M2710.23 206.02c-37.35,0 -35.13,33.07 -35.13,33.07l0 33.58 16.94 -0.01 0 -31.51c0,-5.16 0.65,-9 1.95,-11.46 2.33,-4.39 6.88,-6.61 13.65,-6.61 0.5,0 1.16,0.03 2.01,0.08 0.85,0.05 1.77,0.11 2.86,0.24l0 -17.25c-0.77,-0.05 -1.24,-0.08 -1.46,-0.11 -0.22,-0.03 -0.48,-0.03 -0.79,-0.03l-0.03 0.01z"/>
   <path class="fil16" d="M2625.21 223.56c2.38,-2.46 5.74,-3.68 10.05,-3.68 4,0 7.3,1.16 10,3.47 2.7,2.31 4.18,5.72 4.47,10.16l-29 0c0.61,-4.18 2.09,-7.51 4.47,-9.95l0.01 0zm22.78 31.56c-0.71,1.01 -1.48,1.88 -2.33,2.57 -2.38,1.98 -5.64,2.57 -9.47,2.57 -3.62,0 -6.46,-0.56 -9.02,-2.17 -4.23,-2.59 -6.61,-6.99 -6.85,-13.44l46.88 0c0.08,-5.56 -0.11,-9.82 -0.56,-12.78 -0.77,-5.03 -2.49,-9.5 -5.13,-13.31 -2.91,-4.34 -6.64,-7.51 -11.14,-9.53 -4.5,-2.02 -9.53,-3.02 -15.13,-3.02 -9.45,0 -17.12,2.96 -23.02,8.92 -5.9,5.96 -8.86,14.5 -8.86,25.64 0,11.91 3.28,20.51 9.84,25.77 6.56,5.26 14.1,7.94 22.67,7.94 10.37,0 18.44,-3.12 24.24,-9.39 3.1,-3.28 5.05,-6.56 5.87,-9.79l-17.97 0 -0.02 0.02z"/>
   <path class="fil16" d="M2596.55 272.66l-15.48 0 0 -38.97c0,-3.55 -1.16,-12.04 -11.38,-12.04 -6.83,0 -11.75,4.92 -11.75,12.04l0 38.97 -15.5 0 0 -38.97c0,-3.55 -1.06,-12.04 -11.27,-12.04 -6.93,0 -11.75,4.92 -11.75,12.04l0 38.97 -15.47 0 0 -38.6c0,-16.09 10.69,-28.26 27.23,-28.26 8.2,0 14.9,3.47 19.24,9 4.58,-5.53 11.38,-9 19.24,-9 16.91,0 26.86,11.67 26.86,28.26l0 38.6 0.03 0z"/>
   <path class="fil16" d="M2887.58 254.88c-2.46,3.55 -6.11,5.32 -10.87,5.32 -4.76,0 -8.31,-1.8 -10.66,-5.34 -2.33,-3.57 -3.49,-8.76 -3.49,-14.71 0,-5.5 1.14,-10.13 3.44,-13.84 2.3,-3.71 5.9,-5.58 10.82,-5.58 3.23,0 6.06,1.01 8.52,3.07 3.97,3.39 5.95,9.45 5.95,17.33 0,5.64 -1.24,10.21 -3.73,13.76l0.02 -0.01zm20.31 -69.24c0,0 -17.06,-1.83 -17.06,11.91l0 18.15c-1.88,-3.04 -4.34,-5.4 -7.38,-7.12 -3.04,-1.72 -6.48,-2.57 -10.4,-2.57 -8.47,0 -15.21,3.15 -20.27,9.45 -5.06,6.3 -7.57,15.37 -7.57,26.35 0,9.53 2.57,17.33 7.7,23.44 5.13,6.11 15.21,8.73 24.16,8.73 31.21,0 30.84,-26.78 30.84,-26.78l0.03 -61.6 -0.05 0.04z"/>
   <path class="fil17" d="M2656.11 334.36c0,-6.4 -1.24,-11.3 -3.73,-14.74 -2.49,-3.44 -6.06,-5.19 -10.72,-5.19 -4.47,0 -7.96,1.75 -10.48,5.19 -2.3,3.12 -3.47,8.04 -3.47,14.74 0,6.24 1.24,10.9 3.73,14.02 2.49,3.44 6.06,5.19 10.72,5.19 4.31,0 7.73,-1.72 10.21,-5.19 2.48,-3.47 3.73,-8.1 3.73,-14.02l0 0 0.01 0zm-28.39 45.85c0,2.28 -0.82,4.26 -2.51,5.9 -1.69,1.64 -3.65,2.46 -5.98,2.46l-8.47 0 0 -58.9c0,-11.46 3.86,-18.63 10.21,-23.47 4.21,-3.2 10.45,-6.24 22.17,-6.24 7.91,0 17.17,3.07 22.17,9.18 5.61,6.85 7.94,14.5 7.94,24.5 0,10.35 -2.49,18.68 -7.46,25.08 -4.97,6.24 -11.38,9.34 -19.18,9.34 -4.15,0 -7.81,-0.74 -10.95,-2.2 -3.33,-1.64 -5.98,-4.18 -7.96,-7.62l0 22.01 0.02 -0.04z"/>
   <path class="fil17" d="M2757.67 334.36c0,11.3 3.28,17.54 9.79,18.79 6.51,1.25 11.32,-0.32 14.42,-4.55 1.48,-1.8 2.51,-4.63 3.18,-8.47 0.67,-3.84 0.71,-7.67 0.11,-11.43 -0.56,-3.78 -1.91,-7.12 -4.05,-10.08 -2.14,-2.96 -5.21,-4.42 -9.29,-4.42 -5.56,0 -9.29,2.06 -11.27,6.14 -1.98,4.08 -2.94,8.76 -2.94,14.02l0 0 0.05 0zm27.89 28.25l0 -4.15c-2.94,4.58 -6.91,7.43 -11.88,8.57 -4.97,1.14 -9.92,0.74 -14.79,-1.24 -4.89,-1.96 -9.1,-5.61 -12.62,-10.9 -3.52,-5.29 -5.24,-12.33 -5.24,-21.03 0,-10.13 2.33,-18.36 6.96,-24.66 4.63,-6.3 12.12,-9.18 22.41,-9.45 10.11,-0.26 16.01,2.01 21.78,6.38 6.3,4.79 10.03,12.12 10.03,23.57l0 34.63c0.03,11.03 -7.67,31.46 -31.8,29.74 -14.95,-1.08 -23.26,-7.22 -27.89,-21.11l17.85 0c1.3,2.28 3.28,4.05 6.01,5.27 2.73,1.22 5.4,1.56 8.07,0.98 2.7,-0.58 5.13,-2.17 7.36,-4.79 2.23,-2.62 3.47,-6.56 3.78,-11.8l-0.03 -0.01z"/>
   <path class="fil17" d="M2717.99 341.21c-0.11,5.64 -1.72,9.53 -4.82,11.67 -3.1,2.14 -6.51,3.2 -10.19,3.2 -2.33,0 -4.31,-0.64 -5.93,-1.93 -1.62,-1.29 -2.43,-3.39 -2.43,-6.27 0,-3.23 1.32,-5.61 4,-7.14 1.59,-0.9 4.15,-1.69 7.75,-2.3l3.84 -0.71c1.93,-0.37 3.44,-0.74 4.52,-1.16 1.08,-0.42 2.2,-0.95 3.28,-1.61l0 6.27 -0.02 -0.02zm8.54 -36.81c-5.5,-2.78 -11.8,-4.21 -18.92,-4.21 -10.9,0 -18.59,2.86 -23.09,8.52 -2.8,3.62 -4.39,8.28 -4.76,13.92l16.29 0c0.4,-2.49 1.19,-4.47 2.41,-5.93 1.69,-1.98 4.55,-2.96 8.57,-2.96 3.62,0 6.35,0.5 8.2,1.51 1.85,1.01 2.8,2.86 2.8,5.48 0,2.17 -1.22,3.76 -3.65,4.79 -1.35,0.58 -3.6,1.08 -6.75,1.48l-5.77 0.71c-6.56,0.82 -11.53,2.22 -14.91,4.15 -6.16,3.57 -9.26,9.31 -9.26,17.25 0,6.11 1.91,10.85 5.74,14.18 3.83,3.33 8.7,4.74 14.57,5 36.83,1.64 36.43,-19.42 36.78,-23.81l0 -24.24c0,-7.78 -2.75,-13.07 -8.28,-15.88l0.03 0.04z"/>
   <path class="fil17" d="M2852.84 348.78c-2.65,3.49 -6.4,5.27 -11.32,5.27 -4.92,0 -8.73,-1.75 -11.38,-5.27 -2.67,-3.49 -4,-8.47 -4,-14.92 0,-6.45 1.32,-11.4 4,-14.9 2.65,-3.49 6.43,-5.21 11.38,-5.21 4.95,0 8.7,1.72 11.32,5.21 2.65,3.49 3.94,8.44 3.94,14.9 0,6.46 -1.32,11.43 -3.94,14.92l0 0zm13.47 -39.03c-5.42,-6.8 -13.68,-10.21 -24.77,-10.21 -11.09,0 -19.31,3.39 -24.74,10.21 -5.42,6.8 -8.15,14.84 -8.15,24.13 0,9.45 2.73,17.52 8.15,24.24 5.42,6.69 13.68,10.05 24.74,10.05 11.06,0 19.31,-3.36 24.77,-10.05 5.42,-6.72 8.12,-14.79 8.12,-24.24 0,-9.29 -2.7,-17.33 -8.12,-24.13z"/>
  </g>
 </g>
</svg>
