<!-- Generated by IcoMoon.io -->
<svg version="1.1" xmlns="http://www.w3.org/2000/svg" width="32" height="32" viewBox="0 0 32 32">
<title>oxxo</title>
<path fill="#f0a929" d="M2.434 10.891c0-0.467 0.382-0.849 0.85-0.849h25.581c0.467 0 0.85 0.382 0.85 0.849v10.875c0 0.467-0.383 0.85-0.85 0.85l-25.581-0.001c-0.468 0-0.85-0.382-0.85-0.849v-10.875z"></path>
<path fill="#fff" d="M2.434 11.275h27.281v10.104h-27.281z"></path>
<path fill="#e21c2a" d="M25.554 13.9c-1.248 0-2.266 1.017-2.266 2.266 0 1.247 1.018 2.265 2.266 2.265s2.265-1.018 2.265-2.265c0-1.248-1.017-2.265-2.265-2.265z"></path>
<path fill="#e21c2a" d="M6.88 13.9c-1.248 0-2.266 1.017-2.266 2.266 0 1.247 1.018 2.265 2.266 2.265s2.265-1.018 2.265-2.265c0-1.248-1.018-2.265-2.265-2.265z"></path>
<path fill="#e21c2a" d="M25.376 11.906c-2.097-0.048-3.083 1.297-4.514 2.956l-1.35 1.564 2.138 2.559c0.509 0.786-0.463 1.567-1.066 0.847l-1.976-2.357-1.926 2.232c-0.613 0.711-1.574-0.083-1.054-0.862l2.091-2.432-1.37-1.634 0.881-1.092 1.393 1.673 1.201-1.397c0.589-0.685 1.19-1.593 1.969-2.059l-19.358 0.001v8.844h4.526c2.098 0 3.050-1.254 4.442-2.945l1.314-1.595-2.197-2.509c-0.527-0.775 0.427-1.577 1.046-0.872l2.030 2.311 1.874-2.276c0.597-0.725 1.576 0.047 1.074 0.838l-2.034 2.479 1.407 1.602-0.886 1.050-1.401-1.58-1.168 1.424c-0.573 0.698-1.154 1.589-1.922 2.073h19.176v-8.844h-4.339zM10.459 16.166c0 1.972-1.607 3.579-3.579 3.579s-3.58-1.607-3.58-3.579c0-1.972 1.608-3.579 3.58-3.579s3.579 1.607 3.579 3.579zM25.554 19.745c-1.972 0-3.58-1.607-3.58-3.579s1.608-3.579 3.58-3.579 3.579 1.607 3.579 3.579c0 1.972-1.608 3.579-3.579 3.579z"></path>
</svg>
