<!-- Generated by IcoMoon.io -->
<svg version="1.1" xmlns="http://www.w3.org/2000/svg" width="32" height="32" viewBox="0 0 32 32">
<title>pacman</title>
<path d="M16.907 30.186h1.743c0.821-0.324 3.055-0.164 5.75-1.653 1.331-0.735 3.579-2.382 4.063-3.417-0.411-0.302-0.699-0.678-1.071-1.067-0.391-0.409-0.789-0.681-1.176-1.092-1.134-1.203-3.317-3.634-4.471-4.609-0.822-0.695-1.439-1.615-2.224-2.311l8.941-9.154c-0.785-1.678-4.291-3.752-6.671-4.471-0.764-0.231-2.697-0.423-3.142-0.598h-1.743c-1.002 0.361-2.507 0.047-5.434 1.447-2.241 1.071-4.28 2.98-5.562 4.896-0.461 0.689-0.812 1.366-1.196 2.209-3.083 6.764 0.136 15.316 6.845 18.414 3.028 1.398 4.352 1.048 5.348 1.406zM20.561 5.352c-0.694 0.33-0.698 0.17-1.046 0.903-0.837 1.761 0.974 3.419 2.555 2.683 2.409-1.123 0.73-4.653-1.508-3.586z"></path>
</svg>
