<?xml version="1.0" encoding="UTF-8"?>
<!DOCTYPE svg PUBLIC "-//W3C//DTD SVG 1.1//EN" "http://www.w3.org/Graphics/SVG/1.1/DTD/svg11.dtd">
<!-- Creator: CorelDRAW 2017 -->
<svg xmlns="http://www.w3.org/2000/svg" xml:space="preserve" width="32.3426mm" height="5.9266mm" version="1.1" style="shape-rendering:geometricPrecision; text-rendering:geometricPrecision; image-rendering:optimizeQuality; fill-rule:evenodd; clip-rule:evenodd"
viewBox="0 0 3234.26 592.66"
 xmlns:xlink="http://www.w3.org/1999/xlink">
 <defs>
  <style type="text/css">
   <![CDATA[
    .fil0 {fill:black}
   ]]>
  </style>
 </defs>
 <g id="Capa_x0020_1">
  <metadata id="CorelCorpID_0Corel-Layer"/>
  <path class="fil0" d="M1445.32 112.6c-12.15,-1.61 -17.2,-3.65 -29.77,-2.11 -29.71,3.63 -9.3,1.9 -17.67,7.51l23.5 13.3c3.75,0.95 17.59,1.99 20.52,2.26l3.42 -20.96zm-535.2 -14.03l9.91 16.92c4.71,8.08 2.22,5.78 8.65,14.45 21.51,0.31 40.05,3.86 58.47,-4.78l2.46 -76.62 -80.87 -2.06c1.06,22.12 5.75,33.06 1.38,52.09zm1268.89 489.9c2.85,-45.41 7.15,-60.47 -1.63,-102.39 -5.44,-25.98 4.56,-47.64 -1.29,-85.92 -8.39,-54.85 3.22,-40.88 1.71,-88.31l9.68 -251.25c3.79,-34.58 46.63,-53.48 -32.28,-54.32 -17.72,-0.19 -36.96,-4.56 -44.51,-4.19 -24.58,1.23 -63.12,5.53 -98.67,5.47 -90.63,-0.22 -74.34,-6.59 -108.36,30.68 -15.54,17.02 -29.98,15.56 -49.62,33.91 24.38,18.64 8.06,-4.46 21.62,22.18l19.53 44.35c5.71,15.22 0.18,1.57 5.17,11.26 24.63,47.86 5.71,29.29 -6.51,62.7 -6.96,19.05 -3.58,23.05 -4.99,41.75 -1.91,25.5 -4.79,53.43 -3.57,87.16 4.19,116.24 -27.19,147.34 23.66,146.97 -0.11,-31.88 -6.43,-263.17 5.5,-296.31 15.79,-43.88 -7.59,6.17 -5.05,-110.68l50.99 0.15c22.87,4.55 10.38,1.61 19.39,7.66 -0.99,34.84 3.92,20.57 -20.93,34.39 18.73,42.69 21.78,26.28 21.27,57.33l0.74 182.44 40.67 -281.92c50.01,-4.2 33.7,-10.56 52.45,106.01l16.14 108.67 10.86 -85.96c4.29,-51.14 9.53,-4.86 3.9,-96.55l-2.73 -31.81c29.63,-4.03 26.07,-0.27 49.67,6.28 24.55,6.8 -7.26,-4.11 7.6,1.12l0.78 435.99c-28.24,1.73 -61.36,7.24 -86.47,-2.54l-38.78 -264.81c-10.82,19.49 -34.09,229.94 -35.26,267.95l-56.45 1.69c-29.77,-0.02 -36.61,-6.26 -36.64,-6.09 -22.55,9.5 -11.19,-2.64 -11.41,26.01 -0.08,11.52 -1.23,18.25 0.02,31.14 43.01,15.35 228.86,12.44 283.8,9.79zm-1101.65 -96.53c0.85,-12.57 4.95,-37.69 5.09,-42.94 0.16,-6.51 0.22,10.66 -0.8,-11.09l14.16 -227c3.32,-43.18 -5.29,-66.53 40.12,-64.94 20.4,52.9 14.03,228.94 -0.91,292.9 -8.35,35.76 -15.84,55.39 -57.66,53.07zm-68.85 -379.64c-3.62,61.73 -10.56,-1.64 -5.66,79.54 1.94,32.29 -1.77,74.08 -4.35,104.87 -5.45,65.35 -10.6,135.38 -12.84,201.71l-1.11 68.19c92.27,3.39 193.47,30.1 236.47,-92.48 3.13,-8.92 18.91,-283.32 21.29,-321.74 -15.44,-10.25 10.65,-0.81 -4.01,-0.32l-5.07 0.32c-0.1,-22.47 0.49,-32.12 -31.72,-60.8 -22.99,-20.48 -31.5,-15.73 -54.01,-42.41l-29.64 0.08c-4.77,-1.24 -85.83,0.01 -107,2.63l-2.35 60.41zm-868.67 47.52c39.99,-1.61 54.86,8.32 54.12,49.88 -0.76,42.85 -13.09,49.75 -54.75,49.44l0.63 -99.32zm-139.72 375.97l140.34 -0.28 -0.91 -174.99c52.68,-5.8 85.55,0.93 130.75,-23.97 34.89,-19.22 51.9,-45.93 62.86,-90.86 18.93,-77.6 -12.71,-153.97 -84.49,-181.13l-24.97 -11.7 -222.19 8.61c-7.23,80.09 12.46,438.55 -1.39,474.32zm667.23 -274.62l1.43 94.32 -50.14 -3.59c-1.01,-24.03 6.32,-31.6 9.62,-50.84 3.49,-20.36 9.15,-36.6 7.45,-55.08 5.6,-20.48 5.22,-16.3 8.18,-39.05 1.7,-13.08 3.65,-18.25 4.21,-37.31l17.33 19.94c26.94,41.14 4.22,-2.93 26.25,27.43 -3.84,16.67 -9.84,34.86 -24.33,44.18zm-153.35 1.75l-51.7 147.57c1.11,36.75 -22.62,68.46 -24.27,106.45l72.24 7.53c15.67,0.63 25.44,2.77 39.21,3.83 12.5,0.97 10.91,9.72 23.42,-8.75 7.16,-10.56 13.86,-44.67 15.88,-60.61l86.73 4.42c13.5,61.23 -19.78,87.22 144.26,79.89 8.13,-28.19 -58.84,-412.94 -69.29,-479.29 -53.22,2.41 -109.32,-15.46 -167.72,-9.88l-68.76 208.84zm2004.22 -23.62c19.34,26.73 20.88,8.53 24.09,44.43 2.02,22.56 3.63,46.88 4.41,71.59l-51.42 -3.91 22.92 -112.11zm-90.73 290.32c16.07,-1.31 9.23,1.52 21.28,-3.81l20.14 -66.48 84.99 4.45 9.84 68.89 137.24 13.37 -71.78 -476.68c-34.71,-8.81 -67.52,-5.54 -84.43,-16.25l-85.92 0.67c-16.73,70.57 -51.38,157.58 -74.56,230.09 -12.56,39.29 -68.61,200.67 -67.55,233.79l110.75 11.96zm-868.52 -288.03l24.59 15.64 5.31 98.09 -51.09 -4.3 21.19 -109.43zm-109.85 -23.59c-15.93,48.12 -90.02,263.76 -89.19,298.63 41.88,4.5 107.68,17.7 134.25,9.51l15.91 -67.47 85.91 6.59c2.01,11.4 6.02,61.59 14.78,67.87 1.77,1.27 135.92,23.41 131.91,3.28l-48.63 -327.63 -22.07 -139.78c-34.7,-10.4 -132.55,-17.52 -169.67,-14.46l-53.2 163.46zm1427.57 -135.71l50.84 3.54c38.36,68.63 19.13,137.68 56.15,152.75l8.17 -152.9 59.89 7.46 -14.83 328.17 -51.1 -4.75c-10.83,-26.77 -26.13,-135.78 -49.4,-148.08 -15.38,39.49 -2.46,102.03 -13,141.67 -24.74,5.16 -36.44,2.61 -62.27,-2.27l15.55 -325.59zm-24.9 105.28c5.63,27.01 1.41,66.98 -1.69,102.28 -1.7,19.36 -5.76,89.65 -14.45,103.48 7.99,39.36 -6.14,83.01 -6.52,124.31l137.14 12.65c177.92,14.26 238.28,58.46 242.34,-16.95 0.97,-17.89 1.72,-38.69 -4.33,-49.25 -8.06,35.47 6.28,28.64 -17.2,32.85 -13.08,-38.36 6.92,-35.59 18.96,-57.95 -0.42,-66.1 -11.77,-116.01 -4.24,-179.56 0.77,-6.52 1.7,-14.07 1.12,-20.54 -2.53,-27.82 -0.78,-4.79 -4.59,-17.16 -5.37,-17.44 -5.11,-19.76 -6.26,-40.51 -1.65,-29.8 -9.01,-54.84 -9.43,-84.63 33.99,0.06 17.46,1.81 38.83,17.54l12.93 -21.3 -5.3 -16.1c-101.01,-20.64 -281.62,-46.61 -388.67,-49.64l11.36 160.48zm-497.06 -76.92c1.2,1.49 3.76,8.1 4.73,9.38 3.26,4.3 34.11,33.89 39.21,-2.03l-8.85 -5.32c-25.15,-8.11 12.07,-1.08 -35.09,-2.03zm-1877.88 1.46c4.45,11.8 9.15,17.76 22.79,19.14 26.65,2.71 12.69,1.93 24.97,-10.21 -10.56,-9.51 19.63,-12.13 -47.76,-8.93z"/>
 </g>
</svg>
