<!-- Generated by IcoMoon.io -->
<svg version="1.1" xmlns="http://www.w3.org/2000/svg" width="32" height="32" viewBox="0 0 32 32">
<title>pagoOkey</title>
<path d="M25.629 26.026l-1.279-1.571c-0.189-0.232-1.211-1.414-1.269-1.644 0.178-0.184 0.707-0.646 0.881-0.74l1.654 1.597c0.259-0.116 2.444-2.131 2.942-2.567 0.296-0.258 0.657-0.64 0.98-0.854 0.28 0.089 0.541 0.474 0.767 0.645-0.233 0.354-2.944 3.239-3.477 3.847-0.207 0.237-1.006 1.173-1.2 1.286zM22.474 26.841c-0.073-0.255-0.27-0.377-0.427-0.603-0.132-0.19-0.229-0.406-0.379-0.592-1.481-0.104-3.327-0.010-4.848-0.010h-12.145c-0.683 0-1.761 0.175-2.16-0.303-0.377-0.451-0.232-1.503-0.232-2.158l-0.001-14.644c0-0.699-0.168-1.717 0.278-2.166 0.418-0.421 1.41-0.277 2.114-0.277 7.275 0 14.639-0.045 21.894-0.001 0.941 0.005 1.104 0.459 1.101 1.35-0.009 4.006-0.068 8.24 0.003 12.193 0.282 0.138 0.773 0.423 0.969 0.679-0.149 0.195-0.446 0.439-0.667 0.59-0.277-0.066-0.454-0.357-1.197-0.596-2.377-0.766-4.934 1.104-4.539 3.919 0.464 3.311 5.673 4.34 6.873 0.188 0.225-0.78-0.097-1.276 0.097-1.562 0.226-0.333 1.344-1.394 1.702-1.914-0.097-0.266-0.45-0.533-0.648-0.724-0.178-0.175-0.502-0.546-0.724-0.633-0.229 0.179-0.427 0.449-0.669 0.524-0.054-1.76-0.005-3.599-0.005-5.368 0-1.806 0-3.613 0-5.42 0-1.903 0.298-3.489-1.167-4.201-0.688-0.334-1.641-0.231-2.485-0.231l-21.58-0.001c-1.014-0.003-1.473 0.16-2.005 0.708-0.531 0.547-0.537 1.143-0.537 2.11v16.207c0 1.005-0.064 1.531 0.503 2.195 0.468 0.546 0.941 0.744 1.934 0.743l18.946-0.001zM14.618 12.753c0.090-0.682-0.241-0.931 0.536-0.93 0.716 0.001 0.409 0.263 0.483 0.93 0.247 0.174 0.727 0.169 1.156 0.758 0.255 0.351 0.533 0.947 0.378 1.52-0.311 0.077-1.18 0.095-1.419-0.012-0.169-0.218-0.024-0.869-0.571-0.992-0.462-0.104-0.727 0.247-0.694 0.65 0.034 0.41 0.442 0.584 0.778 0.726 0.416 0.176 0.648 0.269 1.010 0.503 0.716 0.463 1.113 1.020 0.927 2.099-0.186 1.074-1.52 1.313-1.624 1.367-0.064 0.33 0.029 0.499-0.096 0.799-1.339 0.316-0.782-0.614-0.956-0.801-0.229-0.112-0.493-0.124-0.769-0.277-0.696-0.385-1.134-1.25-0.929-1.885 0.003-0.010 0.017-0.017 0.019-0.037 0.021-0.172 1.342-0.112 1.417-0.027 0.155 0.389-0.029 0.795 0.583 0.928 0.534 0.116 0.889-0.153 0.827-0.675-0.049-0.408-0.451-0.577-0.801-0.72-0.96-0.393-2.293-0.943-1.853-2.55 0.321-1.168 1.259-1.18 1.595-1.372zM14.201 9.968c-1.021 0.199-1.506 0.304-2.269 0.762-0.691 0.413-1.236 0.863-1.668 1.409-0.909 1.149-1.605 2.749-1.334 4.687 0.443 3.166 3.197 5.679 6.845 5.271 3.087-0.346 5.777-3.295 5.292-6.87-0.237-1.743-1.127-3.054-2.172-3.923-1.034-0.86-2.954-1.677-4.695-1.335z"></path>
</svg>
