<?xml version="1.0" encoding="UTF-8"?>
<!DOCTYPE svg PUBLIC "-//W3C//DTD SVG 1.1//EN" "http://www.w3.org/Graphics/SVG/1.1/DTD/svg11.dtd">
<!-- Creator: CorelDRAW 2017 -->
<svg xmlns="http://www.w3.org/2000/svg" xml:space="preserve" width="30.4798mm" height="22.9446mm" version="1.1" style="shape-rendering:geometricPrecision; text-rendering:geometricPrecision; image-rendering:optimizeQuality; fill-rule:evenodd; clip-rule:evenodd"
viewBox="0 0 3047.98 2294.46"
 xmlns:xlink="http://www.w3.org/1999/xlink">
 <defs>
  <style type="text/css">
   <![CDATA[
    .fil0 {fill:#373435}
   ]]>
  </style>
 </defs>
 <g id="Capa_x0020_1">
  <metadata id="CorelCorpID_0Corel-Layer"/>
  <path class="fil0" d="M2035.54 652.61c-333.19,-8.97 -602.3,20.04 -921.79,122.52 -47.02,15.08 -189.69,61.46 -220.49,82.79 178.08,11.73 236.39,8.17 418.65,50.2 61.86,14.26 122.57,31.74 180.58,51.14 33.94,11.36 154.83,52 168.45,67.9 -15.46,0.35 -111.01,-28.77 -140.83,-35.65 -291.14,-67.24 -599.71,-77.19 -893.17,-18.48 51.49,5.83 116.65,3.58 170.85,6.91 100.78,6.19 391.55,41.7 456.26,78.8 -63.23,-1.48 -145.57,-17.87 -212.53,-23.88 -233.28,-20.93 -515.95,-25.18 -720.31,79.09 -57.09,29.13 -79.46,45.94 -125.15,82.85 -45.27,36.56 -129.19,154.31 -136.76,212.78 19.76,-55.03 77.17,-115.1 114.58,-142.99 286.21,-213.38 862.28,-157.3 1195.78,-104.29 171.53,27.26 322.77,64.12 485.97,102 285.02,66.15 521.88,138.05 789.31,238.1 24.96,9.34 84.86,35.68 105.45,38.56l-140.57 -87.55c-166.58,-100.48 -347.66,-205.17 -518.91,-296.82 -21.82,-11.69 -63.86,-29.01 -69.71,-47.01 -18.51,-56.91 78.74,-83.13 143.54,-22.86 40.63,37.79 64.52,109.87 138.68,90.7 41.49,-10.72 87.85,-88.98 92.96,-142.96 -19.86,9.56 -48.49,42.64 -79.51,32.22 -29.69,-9.99 -53.3,-36.2 -40.38,-76.29 24.06,-74.68 116.96,-58.31 171.77,-35.9 6.22,49.46 -3.68,70.8 -11.36,113.65 46.06,-21.41 52.08,-72.71 68.87,-92.24 31.54,-36.69 48.17,-90.46 26.54,-120.85 -16.99,-23.85 -14.22,1.99 -61.84,-50.21 -18.02,-19.76 -38.98,-36.61 -53.15,-54.78 -18.04,-23.16 -30.26,-40 -52.36,-59.57 -43.18,-38.25 -99.67,-46.71 -172.17,-45.19 -19,-15.25 -26.27,-26.21 -43.25,-39.31 -37.83,-29.19 -112.39,-76.32 -162.21,-72.8 16.44,18.05 41.85,85.63 48.21,119.42zm-1834.05 887.03c20.27,-21.85 30.63,-75.74 125.06,-144.38 353.09,-256.67 1213.12,-50.79 1577.07,48.9 309.92,84.89 515.81,155.55 813.54,257.87 61.7,21.2 155.93,66.87 205.05,58.39 132.19,-22.83 43.27,-243.03 -59.87,-343.68 -43.22,-42.17 -85.48,-88.65 -140.95,-124.82 36.16,56.7 174.94,256.76 184.16,326.99 13.28,101.14 -127.28,25.22 -163.6,10.33 -261.15,-107 -709.82,-239.55 -984.62,-306.83 -337.08,-82.52 -997.51,-222.37 -1343.04,-87.38 -118.2,46.18 -221.58,139.19 -212.8,304.61z"/>
 </g>
</svg>
