<!-- Generated by IcoMoon.io -->
<svg version="1.1" xmlns="http://www.w3.org/2000/svg" width="32" height="32" viewBox="0 0 32 32">
<title>pantalla-de-monitor</title>
<path d="M15.707 20.288c0.963-0.401 1.352 0.981 0.569 1.302-0.882 0.361-1.417-0.948-0.569-1.302zM3.328 19.090c-0.117-0.741-0.022-2.432-0.022-3.274 0-1.628-0.14-9.233 0.151-9.749 0.488-0.866 1.528-0.647 2.668-0.647h19.797c3.384 0 2.759-0.233 2.759 7.156 0 0.977 0.061 5.987-0.022 6.514h-25.331zM3.985 4.041c-2.149 0.497-2.112 2.276-2.112 3.794v11.761c0 1.081 0.050 1.637 0.606 2.327 0.409 0.507 1.131 0.854 2.086 0.856 0.601 0.002 22.767 0.080 23.481-0.034 0.843-0.137 1.413-0.664 1.736-1.208 0.446-0.75 0.332-1.658 0.332-2.601v-11.761c0.001-0.978-0.136-1.731-0.655-2.279-0.48-0.507-1.025-0.906-2.038-0.923-5.688-0.097-11.858 0-17.637 0-0.953 0-5.203-0.070-5.8 0.068zM12.488 26.629c-1.324 0.055-2.748 0.008-4.083 0.007-0.664 0-1.335-0.088-1.472 0.552-0.152 0.714 0.452 0.883 1.052 0.88h16.079c0.79 0.002 1.184-0.371 0.964-0.972-0.206-0.566-0.839-0.46-1.506-0.46-1.315 0-2.718 0.047-4.023-0.007l-0.026-3.533-6.982 0.007-0.003 3.525z"></path>
</svg>
