<!-- Generated by IcoMoon.io -->
<svg version="1.1" xmlns="http://www.w3.org/2000/svg" width="32" height="32" viewBox="0 0 32 32">
<title>pareja-gay</title>
<path d="M6.143 18.35l0.003-5.304c0-0.405-0.106-1.455 0.066-1.736l0.17-0.006c0.149 0.27 0.068 3.957 0.068 4.565 0 4.561-0.088 9.546 0.006 14.011 0.131 1.772 2.92 1.668 3.016 0.095 0.129-1.409 0.034-5.397 0.034-7.25 0-0.722-0.056-1.704 0.014-2.395 0.238-0.067 0.526-0.055 0.771-0.013l0.040 9.584c0.208 1.757 3.034 1.87 3.056-0.433 0.019-2.012-0.002-4.037-0.002-6.051 0-1.321-0.243-11.782 0.174-12.042 0.367 0.036 0.797 5.647 0.885 6.397 0.277 2.35 1.277 1.174 1.912 1.327 1.238 0.299 1.897-0.105 1.709-1.539l0.227-1.519 0.608-4.74 0.243 0.031c0.013 4.046 0.001 8.094 0.001 12.141 0 2.007-0.037 4.048-0.002 6.050 0.041 2.383 3.053 1.948 3.056 0.377l0.021-9.584c0.265-0.042 0.554-0.055 0.79 0.014 0.057 0.534 0.015 3.977 0.015 4.814 0 1.499-0.1 3.378 0.034 4.831 0.094 1.572 2.885 1.678 3.016-0.095 0.093-4.446 0.006-9.412 0.006-13.953 0-0.618-0.083-4.35 0.066-4.618l0.171-0.004c0.153 0.254 0.066 2.97 0.066 3.47 0 1.192-0.002 2.383 0.003 3.575 0.17 1.113 2.057 1.402 2.047-0.518-0.007-1.441-0.003-2.883-0.003-4.324 0-2.933 0.698-5.525-3.153-5.419l-2.673 3.84-2.617-3.844c-1.685-0.1-3.005 0.372-3.173 2.255-0.057 0.633-0.45 4.583-0.554 4.757-0.966-2.711 0.92-7.288-3.705-7.002l-2.676 3.828-2.616-3.843c-3.883-0.097-3.166 2.54-3.166 5.485 0 1.442-0.001 2.884-0.003 4.325-0.002 1.814 1.875 1.593 2.048 0.46z"></path>
<path d="M7.089 11.87c0.045-0.225 0.853-1.366 1.023-1.479l0.965 1.48-1.988-0.001z"></path>
<path d="M23.453 11.869c0.048-0.211 0.342-0.552 0.476-0.751 0.153-0.229 0.356-0.608 0.548-0.725l0.963 1.479-1.987-0.002z"></path>
<path d="M22.418 10.548c0.225 0.092 0.196 0.089 0.413-0.009 0.273-0.624-0.69-0.65-0.413 0.009z"></path>
<path d="M9.698 10.538c0.217 0.098 0.188 0.101 0.413 0.009 0.091-0.216 0.094-0.201-0.002-0.417-0.349-0.146-0.569 0.047-0.411 0.408z"></path>
<path d="M21.16 9.425l0.889-0.539c0.507 0.234 0.594 0.314 1.158 0.017l0.92 0.533 0.019-1.723-0.935 0.515c-0.614-0.333-0.559-0.292-1.156 0.003l-0.839-0.484c-0.081 0.078-0.068-0.109-0.079 0.172l0.023 1.507z"></path>
<path d="M11.369 9.425l0.025-1.507c-0.014-0.294-0.001-0.084-0.080-0.172l-0.836 0.491c-0.601-0.301-0.543-0.344-1.156-0.016l-0.927-0.527-0.010 1.723 0.932-0.523c0.565 0.31 0.66 0.224 1.161-0.004l0.891 0.535z"></path>
<path d="M10.181 7.699c0.162-0.101 0.344-0.1 0.554-0.126 3.831-0.764 3.008-7.112-1.335-6.488-3.408 0.49-4.411 6.060 0.781 6.614z"></path>
<path d="M21.794 7.573c0.209 0.026 0.391 0.025 0.554 0.126 4.785-0.168 4.502-6.016 0.83-6.606-4.28-0.688-5.327 5.603-1.384 6.48z"></path>
<path d="M6.143 18.35c0.162-0.239 0.070-5.228 0.069-6.283 0-0.884-0.075-0.67 0.17-0.703 0.006 1.931-0.090 18.073 0.073 18.517-0.093-4.465-0.006-9.45-0.006-14.011 0-0.608 0.081-4.295-0.068-4.565l-0.17 0.006c-0.172 0.281-0.066 1.331-0.066 1.736l-0.003 5.304z"></path>
<path d="M26.073 29.881c0.163-0.444 0.068-16.586 0.073-18.517 0.231 0.033 0.175-0.056 0.175 0.297 0 1.184-0.109 6.433 0.065 6.691-0.006-1.192-0.003-2.383-0.003-3.575 0-0.5 0.087-3.216-0.066-3.47l-0.171 0.004c-0.149 0.268-0.066 4-0.066 4.618 0 4.541 0.086 9.508-0.006 13.953z"></path>
<path d="M22.348 7.699c-0.163-0.101-0.345-0.1-0.554-0.126 0.168 0.114 0.33 0.117 0.554 0.126z"></path>
<path d="M10.181 7.699c0.223-0.009 0.385-0.012 0.554-0.126-0.21 0.026-0.392 0.025-0.554 0.126z"></path>
<path d="M21.16 9.425l-0.023-1.507c0.011-0.282-0.002-0.094 0.079-0.172-0.078-0.074 0.115-0.092-0.126-0.050l-0.021 1.436c0.007 0.293 0.033 0.228 0.090 0.293z"></path>
<path d="M11.369 9.425c0.089-0.1 0.042 0.030 0.079-0.125 0.005-0.022 0.011-0.14 0.011-0.168 0.003-0.107-0.005-0.238-0.005-0.349l-0.005-1.088c-0.266-0.043-0.033-0.017-0.135 0.052 0.078 0.088 0.066-0.121 0.080 0.172l-0.025 1.507z"></path>
<path d="M9.471 29.976c0.201-0.267 0.1-1.917 0.1-2.353v-7.265l0.68-0.004c0.009 0.872-0.076 9.412 0.079 9.548l-0.040-9.584c-0.245-0.042-0.534-0.054-0.771 0.013-0.069 0.692-0.014 1.673-0.014 2.396 0 1.853 0.095 5.841-0.034 7.25z"></path>
<path d="M22.198 29.901c0.167-0.183 0.069-8.609 0.078-9.549l0.681 0.010c-0.002 1.614 0 3.228 0 4.841 0 0.612-0.099 4.51 0.1 4.773-0.134-1.452-0.034-3.332-0.034-4.831 0-0.837 0.042-4.28-0.015-4.814-0.236-0.069-0.525-0.056-0.79-0.014l-0.021 9.584z"></path>
</svg>
