<!-- Generated by IcoMoon.io -->
<svg version="1.1" xmlns="http://www.w3.org/2000/svg" width="32" height="32" viewBox="0 0 32 32">
<title>pastel-entero</title>
<path d="M24 12q1.625 0 2.812 1.188t1.188 2.812v2.063q0 1.063-0.781 1.844t-1.844 0.781-1.812-0.751l-2.875-2.875-2.875 2.875q-0.751 0.751-1.844 0.751t-1.844-0.751l-2.812-2.875-2.875 2.875q-0.751 0.751-1.812 0.751t-1.844-0.781-0.781-1.844v-2.063q0-1.625 1.188-2.812t2.812-1.188h6.688v-2.688h2.625v2.688h6.688zM22.125 21.312q1.375 1.375 3.251 1.375 1.375 0 2.625-0.812v6.125q0 0.563-0.375 0.937t-0.937 0.375h-21.375q-0.563 0-0.937-0.375t-0.375-0.937v-6.125q1.188 0.812 2.625 0.812 1.875 0 3.251-1.375l1.437-1.437 1.437 1.437q1.312 1.312 3.251 1.312t3.251-1.312l1.437-1.437zM16 8q-1.063 0-1.875-0.812t-0.812-1.875q0-0.688 0.437-1.375l2.251-3.937 2.251 3.937q0.437 0.688 0.437 1.375 0 1.125-0.781 1.907t-1.907 0.781z"></path>
</svg>
