<!-- Generated by IcoMoon.io -->
<svg version="1.1" xmlns="http://www.w3.org/2000/svg" width="32" height="32" viewBox="0 0 32 32">
<title>pastel-maanitas</title>
<path d="M17.296 3.184c0.305 0.307 0.727 1.276 0.928 1.821 0.474 1.289-0.088 1.382-0.802 1.668-0.055 0.97-0.042 0.444 0.446 0.829 0.564 0.444 0.379 1.136 0.405 1.962 0.298 0.201 4.733 1.578 5.363 1.88 0.334 0.16 0.329 0.332 0.335 0.749 0.012 0.906 0.058 8.068-0.023 8.36-0.115 0.415-0.941 0.547-1.365 0.676l-4.797 1.485c-2.138 0.676-4.276 1.289-6.395 1.98-1.035 0.337-2.105 0.659-3.152 0.979-1.875 0.574-1.708 0.549-1.696-1.886l-0.001-6.281c0.004-0.587 0.231-0.655 0.844-1.27l7.326-7.327c0.616-0.609 0.738-0.216 1.514-0.044 0.017-0.38-0.010-0.722 0.174-1.008 0.494-0.769 0.658 0.131 0.645-1.093-0.928-0.107-1.143-0.731-0.826-1.609 0.204-0.566 0.553-1.524 0.881-1.869h0.196zM17.175 4.076c-0.127 0.372-0.313 0.778-0.468 1.191-0.223 0.597-0.099 0.933 0.597 0.88 0.99-0.076 0.412-1.038 0.062-1.791l-0.192-0.28zM16.931 8.658l0.005 3.012c0.812-0.033 0.627-0.189 0.633-1.241v-1.771c0-0.295 0.057-0.663-0.32-0.663-0.357 0-0.318 0.328-0.318 0.663zM7.591 23.937l0.003 0.717 15.332-4.721-0.001-0.525-15.335 4.529zM20.891 15.796c0 0.737 0.113 2.24-0.243 2.753-0.537 0.775-1.764 0.629-1.841-0.444-0.033-0.466 0.074-1.128-0.073-1.538-0.441-0.139-4.851 1.366-5.604 1.609l-5.536 1.741 0.002 3.273 15.334-4.526-0.001-1.215c-1.881 0.307-1.639-1.038-1.656-2.276-0.318 0.034-0.383 0.274-0.383 0.623zM7.597 17.573l-0.005 1.592c0.503-0.106 1.156-0.347 1.675-0.512l8.45-2.657c2.622-0.858 1.408 1.881 1.881 2.279 0.86 0.502 0.572-2.125 0.6-2.695 0.057-1.143 1.425-1.518 1.729-0.598 0.183 0.554-0.289 2.090 0.672 1.822 0.259-0.073 0.334-0.214 0.335-0.519 0.003-1.072 0.062-2.387-0.011-3.432l-15.326 4.721zM9.023 16.019l13.161-4.051-3.899-1.374c-0.12 1.367 0.286 1.401-0.669 1.649-1.604 0.417-1.377 0.692-1.383-2.352l-0.872-0.298c-0.202 0.277-1.252 1.278-1.577 1.609-0.593 0.605-4.615 4.538-4.761 4.816z"></path>
<path d="M8.815 30.26c-0.016 0.065-0.060 0.127-0.13 0.182-0.055 0.043-0.112 0.071-0.171 0.089-0.067 0.021-0.109 0.019-0.111-0.007-0.037-0.398-0.065-0.936-0.1-1.61-0.010-0.010-0.015-0.015-0.021-0.013-0.003 0.001-0.010 0.010-0.014 0.024-0.142 0.465-0.278 0.934-0.423 1.4-0.029 0.092-0.075 0.134-0.125 0.15-0.082 0.026-0.136 0.027-0.162-0.023-0.027-0.053-0.056-0.135-0.099-0.241-0.035-0.085-0.082-0.214-0.136-0.383-0.058-0.18-0.103-0.308-0.135-0.384-0.046 0.33-0.082 0.563-0.104 0.699-0.051 0.331-0.095 0.555-0.132 0.673-0.046 0.147-0.113 0.224-0.203 0.249-0.081 0.023-0.13 0.014-0.149-0.050 0.025-0.344 0.068-0.772 0.133-1.28 0.064-0.505 0.149-1.089 0.253-1.751 0.030-0.054 0.093-0.098 0.187-0.131 0.042-0.015 0.072-0.018 0.090-0.011 0.103 0.252 0.243 0.684 0.42 1.303 0.257-0.727 0.488-1.31 0.69-1.753 0.080-0.040 0.137-0.067 0.174-0.080 0.089-0.031 0.149-0.003 0.172 0.086 0.011 0.040 0.017 0.143 0.021 0.306s0.019 0.465 0.042 0.905c0.018 0.368 0.034 0.673 0.038 0.916 0.004 0.261 0.005 0.506-0.005 0.734zM10.731 29.748c-0.023 0.077-0.121 0.171-0.293 0.278-0.060 0.037-0.096 0.047-0.109 0.029-0.005-0.007-0.015-0.051-0.031-0.126-0.029-0.135-0.074-0.387-0.135-0.753-0.003-0.018-0.005-0.035-0.008-0.054-0.013 0.010-0.024 0.019-0.036 0.027-0.070 0.042-0.196 0.123-0.375 0.247-0.064 0.044-0.104 0.127-0.12 0.246-0.025 0.184-0.058 0.388-0.098 0.61-0.144 0.056-0.282 0.056-0.417 0.005-0.003-0.001-0.006-0.002-0.007-0.003 0.001-0.004 0.003-0.009 0.005-0.014 0.036-0.182 0.147-0.803 0.337-1.857 0.114-0.631 0.213-1.102 0.299-1.417 0.038-0.032 0.080-0.054 0.127-0.072 0.050-0.017 0.105-0.029 0.171-0.029 0.122 0.306 0.241 0.696 0.354 1.171 0.115 0.481 0.226 1.051 0.336 1.715zM10.044 28.694c-0.002-0.013-0.003-0.027-0.005-0.041-0.004-0.045-0.055-0.29-0.149-0.732-0.012-0.057-0.025-0.111-0.036-0.168-0.014 0.064-0.023 0.128-0.034 0.192-0.040 0.226-0.081 0.523-0.121 0.89-0.003 0.025-0.006 0.048-0.009 0.073 0.018-0.010 0.036-0.021 0.055-0.032 0.052-0.029 0.144-0.079 0.274-0.159 0.009-0.005 0.017-0.016 0.026-0.023zM12.682 25.215c-0.074 0.278-0.193 0.443-0.359 0.501-0.077 0.027-0.176-0.022-0.291-0.146s-0.214-0.175-0.291-0.148c-0.163 0.056-0.299 0.176-0.411 0.357-0.030-0.029-0.045-0.093-0.044-0.19 0.071-0.28 0.212-0.472 0.423-0.579 0.075-0.037 0.173-0.002 0.287 0.109 0.12 0.118 0.214 0.166 0.292 0.139 0.139-0.049 0.262-0.144 0.371-0.286 0.013-0.002 0.022 0.023 0.025 0.078 0.002 0.041 0.002 0.095-0.002 0.166zM13.049 25.979c-0.035 0.641-0.064 1.29-0.101 1.943-0.046 0.778-0.101 1.223-0.145 1.33-0.022 0.013-0.065 0.052-0.133 0.111-0.053 0.047-0.1 0.074-0.139 0.086-0.023 0.007-0.045 0.010-0.062 0.010-0.155-0.139-0.295-0.314-0.411-0.53-0.071-0.134-0.174-0.338-0.315-0.607-0.085-0.163-0.172-0.333-0.257-0.512-0.015 0.57-0.030 1.146-0.045 1.724-0.052 0.074-0.108 0.132-0.169 0.169-0.045 0.027-0.107 0.052-0.183 0.072-0.086 0.022-0.135-0.063-0.141-0.255-0.013-0.361-0.009-0.862 0.006-1.498 0.019-0.789 0.026-1.273 0.025-1.458 0.017-0.040 0.041-0.069 0.068-0.092 0.053-0.044 0.084-0.070 0.090-0.075 0.049-0.037 0.085-0.057 0.105-0.064 0.033-0.011 0.074-0.003 0.119 0.027 0.286 0.453 0.602 1.025 0.956 1.723 0.013-0.005 0.025-0.009 0.041-0.013 0.010-0.264 0.056-0.978 0.141-2.125 0.044-0.022 0.114-0.074 0.215-0.157 0.095-0.077 0.163-0.125 0.206-0.141 0.078-0.028 0.12 0.030 0.129 0.174 0.002 0.037 0.003 0.090-0.001 0.157zM15.344 28.331c-0.024 0.084-0.135 0.183-0.331 0.302-0.064 0.039-0.104 0.053-0.122 0.034-0.007-0.009-0.020-0.054-0.042-0.133-0.040-0.143-0.104-0.407-0.186-0.793-0.004-0.018-0.008-0.037-0.013-0.056-0.015 0.010-0.027 0.021-0.041 0.028-0.080 0.047-0.22 0.136-0.424 0.273-0.072 0.048-0.114 0.136-0.129 0.262-0.022 0.196-0.051 0.413-0.087 0.649-0.165 0.063-0.326 0.068-0.485 0.015-0.003-0.001-0.006-0.002-0.005-0.003 0.001-0.005 0.001-0.010 0.002-0.015 0.031-0.192 0.137-0.852 0.315-1.971 0.107-0.669 0.204-1.168 0.292-1.503 0.042-0.034 0.088-0.061 0.14-0.080 0.058-0.020 0.123-0.032 0.196-0.036 0.155 0.321 0.311 0.727 0.462 1.226 0.152 0.504 0.305 1.105 0.458 1.803zM14.505 27.236c-0.003-0.014-0.004-0.029-0.007-0.044-0.007-0.047-0.075-0.306-0.204-0.769-0.016-0.058-0.034-0.117-0.050-0.176-0.010 0.068-0.021 0.137-0.031 0.204-0.036 0.241-0.073 0.555-0.104 0.944-0.002 0.025-0.004 0.052-0.006 0.077 0.021-0.010 0.040-0.022 0.061-0.034 0.057-0.033 0.164-0.089 0.311-0.177 0.010-0.006 0.019-0.017 0.030-0.025zM17.884 24.276c-0.013 0.681-0.020 1.368-0.038 2.060-0.021 0.825-0.062 1.298-0.112 1.413-0.025 0.014-0.076 0.058-0.152 0.123-0.059 0.050-0.111 0.081-0.157 0.095-0.026 0.008-0.050 0.011-0.073 0.011-0.186-0.142-0.356-0.325-0.498-0.55-0.089-0.14-0.219-0.353-0.393-0.633-0.107-0.171-0.212-0.348-0.317-0.535 0.006 0.604 0.010 1.213 0.018 1.826-0.060 0.081-0.121 0.144-0.191 0.184-0.054 0.031-0.125 0.057-0.211 0.080-0.101 0.026-0.159-0.062-0.175-0.266-0.030-0.381-0.045-0.911-0.054-1.585-0.010-0.834-0.021-1.344-0.028-1.539 0.018-0.042 0.041-0.076 0.072-0.1 0.062-0.048 0.097-0.076 0.103-0.081 0.057-0.041 0.095-0.064 0.117-0.072 0.040-0.014 0.088-0.006 0.143 0.024 0.345 0.47 0.736 1.065 1.179 1.792 0.014-0.005 0.030-0.010 0.046-0.015 0-0.279 0.028-1.034 0.078-2.251 0.049-0.025 0.13-0.080 0.244-0.171 0.105-0.085 0.183-0.138 0.233-0.156 0.090-0.032 0.143 0.027 0.16 0.177 0.005 0.040 0.007 0.096 0.006 0.168zM18.976 23.975c-0.022 0.394-0.009 0.928 0.014 1.605 0.026 0.779 0.035 1.329 0.026 1.641-0.1 0.147-0.247 0.244-0.441 0.29-0.027-0.014-0.059-0.064-0.099-0.145-0.068-0.596-0.12-1.184-0.152-1.762-0.032-0.573-0.050-1.139-0.051-1.697 0.068-0.042 0.138-0.084 0.21-0.127 0.099-0.058 0.182-0.1 0.247-0.124 0.155-0.056 0.241-0.017 0.257 0.116 0.006 0.053-0.007 0.121-0.011 0.202zM21.34 22.706c0.019 0.102 0.040 0.212 0.055 0.324 0.015 0.109 0.029 0.219 0.038 0.33-0.123 0.047-0.304 0.119-0.542 0.216-0.040 0.016-0.098 0.044-0.172 0.081-0.012 0.018-0.013 0.108-0.005 0.27 0.031 0.618 0.068 1.574 0.111 2.882-0.030 0.047-0.092 0.078-0.186 0.096-0.080 0.015-0.16 0.029-0.239 0.044-0.010-0.009-0.019-0.013-0.029-0.013-0.054-0.263-0.105-0.592-0.156-0.987-0.095-0.728-0.16-1.35-0.196-1.873-0.003-0.052-0.008-0.104-0.011-0.155-0.101 0.032-0.203 0.064-0.304 0.095-0.048 0.015-0.129 0.044-0.245 0.078-0.125 0.038-0.192 0.009-0.194-0.084-0.004-0.186-0.007-0.37-0.008-0.554 0.343-0.141 0.706-0.283 1.093-0.42 0.315-0.112 0.644-0.221 0.99-0.33zM24.484 25.532c-0.025 0.095-0.16 0.211-0.405 0.353-0.080 0.046-0.133 0.064-0.157 0.043-0.010-0.008-0.031-0.058-0.066-0.144-0.064-0.155-0.167-0.448-0.307-0.869-0.007-0.021-0.014-0.041-0.022-0.062-0.018 0.013-0.035 0.025-0.051 0.034-0.098 0.056-0.277 0.16-0.53 0.322-0.088 0.057-0.137 0.157-0.146 0.299-0.014 0.218-0.034 0.458-0.064 0.72-0.207 0.078-0.417 0.092-0.628 0.042-0.003-0.001-0.007-0.001-0.009-0.002 0.001-0.006 0.001-0.013 0.002-0.019 0.028-0.214 0.115-0.948 0.26-2.189 0.087-0.744 0.178-1.298 0.263-1.671 0.050-0.040 0.108-0.073 0.175-0.096 0.074-0.025 0.159-0.042 0.25-0.049 0.229 0.34 0.46 0.779 0.695 1.319 0.239 0.549 0.485 1.203 0.74 1.968zM23.303 24.366c-0.006-0.014-0.007-0.030-0.012-0.046-0.014-0.052-0.123-0.333-0.324-0.838-0.026-0.064-0.052-0.127-0.077-0.19-0.009 0.075-0.017 0.15-0.025 0.224-0.030 0.266-0.050 0.615-0.064 1.045-0.001 0.029-0.003 0.057-0.001 0.086 0.025-0.013 0.050-0.028 0.075-0.042 0.072-0.039 0.206-0.107 0.39-0.211 0.012-0.007 0.025-0.020 0.037-0.030zM26.137 21.292c-0.005 0.010-0.008 0.021-0.009 0.030-0.588 0.508-0.874 0.968-0.85 1.388 0.002 0.037 0.009 0.080 0.017 0.127 0.032 0.179 0.139 0.329 0.325 0.431 0.108 0.059 0.284 0.128 0.515 0.241 0.287 0.14 0.444 0.371 0.474 0.679 0.039 0.403-0.065 0.719-0.312 0.951-0.189 0.178-0.411 0.305-0.655 0.379-0.186 0.057-0.365 0.072-0.538 0.048-0.007-0.005-0.014-0.010-0.017-0.017-0.023-0.038-0.056-0.096-0.088-0.182s-0.019-0.166 0.025-0.238c0.008-0.004 0.016-0.009 0.024-0.014 0.088 0.009 0.177-0.001 0.273-0.031 0.16-0.049 0.314-0.131 0.434-0.27 0.080-0.093 0.091-0.226 0.064-0.373-0.011-0.058-0.028-0.116-0.053-0.172-0.090-0.099-0.221-0.203-0.393-0.303-0.144-0.084-0.287-0.162-0.428-0.246-0.344-0.206-0.533-0.472-0.569-0.789-0.044-0.373 0.107-0.786 0.45-1.239 0.272-0.359 0.614-0.68 1.026-0.97 0.019-0.014 0.044-0.022 0.076-0.022 0.033 0 0.053 0 0.064-0.005 0.009-0.003 0.016-0.011 0.024-0.017 0.001 0.009 0.006 0.018 0.009 0.026 0.065 0.152 0.101 0.348 0.113 0.588z"></path>
<path d="M20.107 2.214l0.949 3.922c-0.086 0.019-0.113-0.009-0.366 0.053-0.144 0.035-0.235 0.088-0.328 0.149-0.166 0.109-0.326 0.304-0.389 0.49-0.196 0.585 0.346 0.858 0.868 0.75l0.076-0.018c0.254-0.070 0.495-0.233 0.634-0.496 0.14-0.265 0.096-0.424 0.022-0.727-0.229-0.946-0.468-2.001-0.711-2.933-0.038-0.145-0.089-0.104 0.269-0.258 0.143-0.062 0.261-0.117 0.401-0.177l1.582-0.706 0.644 2.66c-0.36-0.077-1.073 0.261-1.132 0.835-0.049 0.473 0.434 0.723 0.887 0.614 0.293-0.071 0.522-0.21 0.663-0.409 0.148-0.21 0.205-0.401 0.136-0.687l-1.057-4.364c-0.148 0.035-1.407 0.58-1.575 0.652l-1.575 0.652z"></path>
<path d="M7.035 12.838c-0.258 0.082-0.273-0.017-0.686 0.306-0.099 0.077-0.175 0.174-0.236 0.278-0.452 0.759 0.208 1.324 0.956 1.015 0.36-0.148 0.687-0.519 0.712-0.913 0.009-0.14-0.026-0.277-0.095-0.442l-1.546-3.746c0.495-0.204 1.24 0.008 1.704 0.262l0.497 0.291c-0.539-1.050-1.553-0.888-2.467-1.274-0.062-0.026-0.125-0.047-0.182-0.078-0.023-0.012-0.062-0.036-0.086-0.052-0.027-0.019-0.060-0.060-0.085-0.051l-0.002 0.001c-0.153 0.064-0.211 0.229-0.133 0.415l1.648 3.989z"></path>
<path d="M25.016 16.714l0.498 2.054c-0.557 0.005-0.706 0.507-0.463 0.694 0.22 0.168 0.625 0.022 0.743-0.247 0.081-0.183-0.127-0.82-0.184-1.057-0.095-0.391-0.149-0.716-0.239-1.090 0.167-0.026 0.404 0.041 0.522 0.112l0.431 0.293c-0.141-0.581-1.018-0.601-1.163-0.867-0.128 0.034-0.075 0.030-0.145 0.108z"></path>
<path d="M7.756 10.592l0.596 1.443c-0.405 0.066-0.458 0.45-0.259 0.558 0.18 0.098 0.458-0.054 0.514-0.264 0.038-0.143-0.186-0.584-0.254-0.75-0.113-0.274-0.19-0.506-0.298-0.769 0.119-0.038 0.3-0.015 0.393 0.022l0.348 0.165c-0.168-0.408-0.811-0.323-0.947-0.501-0.090 0.039-0.052 0.030-0.093 0.095z"></path>
<path d="M9.839 11.592c-0.139-0.007-0.296 0.157-0.228 0.322 0.081 0.197 0.518 0.014 0.398-0.278l-0.368-0.892c0.109-0.042 0.191-0.018 0.279 0.006 0.105 0.029 0.172 0.1 0.246 0.119-0.158-0.306-0.574-0.224-0.681-0.364-0.097 0.117-0.007 0.213 0.12 0.52 0.078 0.189 0.156 0.378 0.234 0.567z"></path>
</svg>
