<?xml version="1.0" encoding="UTF-8"?>
<!DOCTYPE svg PUBLIC "-//W3C//DTD SVG 1.1//EN" "http://www.w3.org/Graphics/SVG/1.1/DTD/svg11.dtd">
<!-- Creator: CorelDRAW 2017 -->
<svg xmlns="http://www.w3.org/2000/svg" xml:space="preserve" width="12.9538mm" height="12.0226mm" version="1.1" style="shape-rendering:geometricPrecision; text-rendering:geometricPrecision; image-rendering:optimizeQuality; fill-rule:evenodd; clip-rule:evenodd"
viewBox="0 0 1295.38 1202.26"
 xmlns:xlink="http://www.w3.org/1999/xlink">
 <defs>
  <style type="text/css">
   <![CDATA[
    .fil0 {fill:#3D3D3F}
   ]]>
  </style>
 </defs>
 <g id="Capa_x0020_1">
  <metadata id="CorelCorpID_0Corel-Layer"/>
  <path class="fil0" d="M406.16 763.74c-89.77,-0.23 -181.02,-1.52 -270.65,0.61 -63.12,1.49 -69.32,0.63 -93.29,43.18 -119.84,212.79 37.8,385.59 174.38,393.04 118.01,6.45 317.02,-66.18 431.39,-93.36 248.01,-58.93 394.66,-41.24 464.69,-56.97 4.16,-161.44 50.7,-116.19 -434.99,-125.9 -82.23,-1.64 -123.29,7.2 -176.75,-36.88 -73.74,-60.83 -47.2,-101.74 -94.78,-123.72zm732.29 288.37c62.14,-21.68 83.66,-20.94 156.55,-29.29l0.68 -56.97c-69.18,-10.21 -94.51,-13.76 -158.65,-29.75l1.42 116.01zm-895.64 -350.85c25.01,-102.65 10.71,-110.09 71.86,-179.69 177.01,-201.48 80.34,-417.17 -60.13,-520.3 54.4,163.13 78.65,206.55 -21.37,357.54 -75.4,113.82 -76.47,248.52 9.64,342.45z"/>
 </g>
</svg>
