<?xml version="1.0" encoding="UTF-8"?>
<!DOCTYPE svg PUBLIC "-//W3C//DTD SVG 1.1//EN" "http://www.w3.org/Graphics/SVG/1.1/DTD/svg11.dtd">
<!-- Creator: CorelDRAW 2017 -->
<svg xmlns="http://www.w3.org/2000/svg" xml:space="preserve" width="27.1778mm" height="21.6746mm" version="1.1" style="shape-rendering:geometricPrecision; text-rendering:geometricPrecision; image-rendering:optimizeQuality; fill-rule:evenodd; clip-rule:evenodd"
viewBox="0 0 2717.78 2167.46"
 xmlns:xlink="http://www.w3.org/1999/xlink">
 <defs>
  <style type="text/css">
   <![CDATA[
    .fil0 {fill:#363434}
   ]]>
  </style>
 </defs>
 <g id="Capa_x0020_1">
  <metadata id="CorelCorpID_0Corel-Layer"/>
  <path class="fil0" d="M981.12 2027.2c-44.09,6.6 -47.67,-8.49 -62.01,-7.33 -18.53,1.51 -157.97,130.66 -419.16,78.69 -104.64,-20.82 -139.58,-52.24 -190.84,-107.33 -46.71,-50.18 -91.19,-100.43 -135.27,-162.87 -95.63,-135.42 -172.64,-218.63 -111.26,-443.1 22.39,-81.88 55.85,-143.35 98.6,-199.29 32.95,-43.12 71.35,-79.1 115.15,-110.19 12.76,-9.07 32.97,-20.48 43.44,-29.63 -36.17,9.77 -104.98,49 -133.73,74.51 -11.78,10.46 -22.37,23.49 -21.81,47.3 -17.12,3.38 -27.25,10.17 -34.91,20.8 -40.51,56.21 -27.03,42.96 -54.73,111.57 -20.01,49.54 -46.11,105.17 -57.26,161.06 -25,125.39 8.83,265.48 58.34,364.66 135.25,270.91 470.23,405.71 757.17,294.82 49.72,-19.22 112.34,-59.85 148.28,-93.67zm-479.47 -1047.86c67.78,-5.53 119.25,-17.71 190.59,-7.92 -31.07,-4.26 -61.5,-14.48 -99.39,-16.98 -27.11,-1.79 -72.53,14.14 -91.2,24.9zm1337.97 267.71c15.64,-7.51 28.87,-24.3 38.5,-37.98l-34.35 23.4 10.25 -40.49c-17.02,15.96 -13.68,26.2 -14.4,55.07zm-975.88 -33.92l10.32 40.62c-10.57,-8.8 -16.09,-11.7 -28.73,-18.71 5.68,12.03 20.06,27.74 33.1,33.34 -1.92,-32.67 3.08,-35.21 -14.69,-55.25zm1625.56 153.06c-2.39,-7.58 0.08,-5.01 -5.45,-13.9 -4.41,-7.13 -3.55,-5.05 -9.62,-9.35 1.99,18.44 0.62,15.97 15.07,23.25zm-2258.72 19.05c13.43,-6.38 11.27,-2.16 12.8,-21.07 -10.74,8.06 -7.64,5.94 -12.8,21.07zm2109.55 273.65c-5.9,-13.36 -27.09,-20.8 -41.55,-25.04 9.28,12.85 24.49,26.14 41.55,25.04zm-1962.17 17.5c0.21,0.23 -2.88,6.48 8.65,4.71 10.15,-1.58 27.69,-18.34 32.86,-26.18 -13.5,3.48 -33.11,13.06 -41.51,21.47zm711.46 -720.19c11.63,12.37 48.77,44.65 59.21,13.16 -7.36,-6.51 -14.35,-10.52 -24.71,-14.49 -14.55,-5.59 -31.28,-2.9 -34.5,1.33zm971.61 -10.16c27.95,0.47 54.06,-0.23 81.76,2.03 24.98,2.04 52.43,8.56 74.7,9.43 -20.45,-4.51 -46.56,-17.64 -68.99,-22.09 -17.89,-3.55 -68.58,1.72 -81.99,7.45l-5.48 3.18zm-1126.97 1067.32c20,20.3 60.12,0.17 76.53,-13.1l-0.31 -28 -76.22 41.1zm1149.08 -645.32c-6.16,-10.99 -101.26,-77.06 -106.79,-80.17 5.77,13.89 15.78,34.02 24.13,44.03l20.26 -4.6 3.92 22.26c34.75,5.03 32.1,-5.52 33,26.24l25.48 -7.76 -3.23 24.21c21.58,14.33 32.46,7.57 67.64,46.68 39.46,43.89 52.23,34.83 66.66,50.31 -9.15,7.17 -13,1.17 -26.01,-2.14 81.12,78.22 192.03,205.35 320.35,138.17l-123.83 -45.67c-65.98,-28.03 -163.05,-82.86 -202.99,-136.73 -13.32,-18 -28.23,-26.28 -46.81,-39.81 -12.91,-9.38 -38.38,-30.9 -51.78,-35.02zm-162.81 -149.24l47.42 -29.47c-4.34,24.72 -6.4,27.8 -15.78,39.59 18.97,-19.05 52.69,-52.64 44.66,-93.82 -8.91,4.54 -31.48,32.52 -38.61,41.68 -6.12,7.86 -11.75,12.19 -18.08,19.95 -7.1,8.72 -12.86,14.52 -19.61,22.07zm-1158.16 27.22c-6.04,-7.92 -11.25,-24.1 -11.83,-35.59 7.84,6 36.12,24.44 46.77,29.37 -14.98,-15.59 -67.21,-78.66 -75.7,-83.46 -9.14,41.27 22.55,69.15 40.76,89.68zm-277.68 188.26c43.09,-21.31 156.52,-140.71 162.76,-210.97 -71.92,103.53 -37.63,93.39 -117.1,161.66 -12.01,10.31 -37.71,34.49 -45.66,49.31zm1621.17 -175.29c-11.39,-18.97 -23.5,-40.81 -35.26,-56.83 7.72,70.92 121.68,192.82 165.44,213.28 -13.69,-18.1 -28.72,-37.09 -45.83,-50.14 -49.42,-37.74 -51.36,-51.37 -84.35,-106.31zm-1616.18 711.99c25.49,20.42 56.81,8.73 85.8,3.01l-4.01 -23.5c-17.59,-1.12 -34.95,-3.15 -51.52,-4.15 -22.35,-1.36 -25.97,6.02 -30.27,24.64zm1656.85 -41.71l-4.26 23.38c35.99,7.94 54.72,15.02 86.91,-1.14 -8.98,-36.71 -18.55,-26.49 -82.65,-22.24zm-1564.6 79.43l-108.9 -8.7c-6.99,11.18 -20.94,30.19 -24.22,40.3 24.95,13.48 97.38,21.05 129.45,16.62l3.67 -48.22zm1558.27 27.08c42.17,5.57 92.74,-3.73 130.4,-16.53l-25.15 -41.37 -109.3 9.18 4.05 48.72zm340.9 -1742.94c-5.82,-36.13 -8.87,-42.33 -27.96,-56.82 -40.78,-30.96 -3.95,-37.43 -78.26,-98.62 -17.1,-14.09 -31.43,-27.09 -47.07,-39.87 2,41.42 78.22,134.4 103.56,156.79 10.57,9.34 39.19,33.36 49.73,38.52zm-2243.94 -21.1c52.73,-29.86 148.21,-140.62 153.47,-195.35 -15.61,9.95 -77.79,63.48 -90.42,83.88 -16.21,26.18 -8.09,31.99 -33.58,53.04 -12.16,10.04 -15.66,7.27 -21.15,23.78 -3.59,10.79 -6.77,24.39 -8.32,34.65zm565.32 723.94c10.32,10.84 137.29,66.23 145.47,69.15 24.65,8.82 61.43,19.29 83.24,3.02 10.39,-7.73 31.77,-57.88 27,-74.12 -15.21,6.02 -16.91,25.22 -42.78,44.5 -20.76,15.48 -47.53,1.03 -69.31,-5.97 -38.1,-12.21 -103.3,-31.03 -143.62,-36.58zm562.73 -192.68l-33.42 -22.49c-29.23,17.41 -60.26,57.15 -105.8,83.57 -51.66,29.97 -36.55,17.78 -69.66,68.94 -3.62,5.62 -20.67,28.08 -2.79,24.99 12.74,-2.18 -0.71,2.3 10.94,-9.68 13.27,-13.67 0.06,9.3 37.25,-28.86 18.24,-18.72 28.54,-28.13 50.06,-43.55 17.91,-12.82 37.54,-24.92 56.83,-36.77 14.96,-9.2 46.76,-26.08 56.59,-36.15zm95.85 320.38c-0.16,7.64 0.01,2.38 1.74,6.44 0.26,0.6 0.75,1.67 1.05,2.32 0.33,0.71 0.93,1.78 1.27,2.46l2.96 5.18c-11.27,4.18 -62.4,33.69 -71.19,45.13 18.84,9.3 24.06,-3.78 64.72,-33.3 21.57,-15.68 43.25,-31.97 65.99,-48.45l129.65 -94.3 -8.96 -31.61c-12.28,5.51 -37.35,27.1 -48.03,35.7 -16.44,13.23 -30.03,23.92 -46.4,36.78 -32.33,25.38 -60.78,48.5 -92.8,73.65zm-177.22 101.51c2.57,39.14 -1.55,7.5 -72.55,68.01 -23.09,19.69 -53.7,49.34 -41.53,101.34 43.24,-14.44 25.22,-8.13 42.13,-45.24 27.39,-60.09 75.53,-78.12 138.84,-114.13 13.42,-7.63 8.48,-1.57 12.35,-12.5 -5.34,-3.98 -24.95,-14.8 -28.87,-16.53 -15.23,13.24 -23.89,21.71 -50.37,19.05zm286.13 -272.86c18.38,28.82 65.29,-32.82 89.06,29.42 25.78,67.54 12.35,108.08 169.45,37.81 18.86,-8.43 83.15,-37.57 96.06,-46.6 -41.13,3.74 -190.91,54.18 -207.24,51.11 -44,-8.27 -75.91,-133.86 -139.72,-81.94 -6.34,5.17 -4.97,2.32 -7.61,10.2zm546.35 182.81l1 -17.32c15.4,6.68 15.25,20.13 15.25,-27.1 31.85,-0.38 99.91,2.06 115.8,22.66 17.05,22.11 2.42,9.82 38.84,30.43 16.49,9.33 28.76,17.48 42.47,26.92 28.87,19.88 52.87,40.75 75.41,63.19 18.23,18.16 28.37,12.01 45.95,23.33 15.36,9.89 23.84,25.39 39.08,34.89 -14.4,-48.4 -93.68,-96.5 -131.13,-130.01 -15.94,-14.27 -29.28,-28.36 -45.69,-40.9 -31.35,-23.96 -60.34,-51 -111.04,-62.01 -74.32,-16.12 -100.62,23.58 -85.94,75.92zm-1888.22 178.21c15.05,-8.9 23.27,-22.57 37.38,-33.41 15.08,-11.59 30.33,-7.78 46.3,-23.02 43.87,-41.9 62.57,-58.43 117.1,-90.87 22.17,-13.2 24.11,-9.13 39.7,-29.59 15.29,-20.07 90.31,-24.63 117,-24.63 0.09,47.73 0.42,34.12 15.3,27.22l0.74 17.14c24.91,-88.25 -69.64,-118.19 -194.39,-15.34l-94.02 79.35c-27.29,22.19 -73.44,55.66 -85.11,93.15zm513.63 -4.07l-190.24 138.73c-12.31,10.19 -15.88,19.86 -25.96,29.55 -48.55,46.68 -93.91,76.73 -161.25,109.09 -53.19,25.56 -97.38,38.51 -155.24,59.78 69.45,33.8 142.37,15.21 192.82,-22.24l98.78 -88.36c9.97,-10.48 19.32,-16.74 29.04,-27.36 -30.2,9.17 -20.49,6.59 -25.86,1.86 8.93,-8.08 25.71,-14.19 36.38,-21.6 36.43,-25.31 44.01,-58.96 98.57,-72.63l-3.96 -25.78 25.61 6.98 1.84 -22.62 31.3 -3.65 4.24 -22.04 20.86 4.68 23.07 -44.39zm-461.68 -26.29c-19.05,3.56 -51.15,43.56 -61.25,64.73 -7.24,15.15 -11.62,30.07 -19.19,46.53 -21.68,47.14 8.07,82.93 23.18,87.69 13.62,4.3 45.32,1.35 59.59,-1.65 60.59,-12.74 109.33,-60.67 152.89,-99.87 75.13,-67.63 149.58,-89.49 156.51,-223.29 -8.58,3.23 -19.3,11.05 -26.41,17.14 -21.75,18.62 -6.12,76.42 -122.01,169.11 -50.64,40.49 -75.35,47.3 -102.86,67 -22.5,16.12 0.01,23.84 -52.12,31.28 -20.83,2.98 -55.67,7.59 -76.24,7.02 0,-61.97 -2.47,-49.42 24.97,-93.21 10.87,-17.33 37.44,-56.56 42.94,-72.48zm2157.84 -21.14c9.35,21.43 29.89,50.81 43.48,72.53 26.41,42.2 24.7,33.13 24.7,93.15 -20.96,0.35 -55.21,-4.12 -76.2,-7.23 -51.06,-7.54 -27.44,-11.98 -52.09,-30.77 -21.19,-16.16 -53.06,-27.2 -102.78,-67.13 -43.34,-34.82 -92.93,-87.41 -109.02,-143.87 -9.47,-33.26 -21.69,-27.28 -38.51,-43.69 -7.77,69.16 37.84,126.92 82.52,165.91 21.85,19.07 50.13,37.44 71.2,57.1 43.17,40.29 93.62,87.76 155.25,101.31 48.45,10.64 73.98,4.51 87.68,-35.09 13.69,-39.63 -46.88,-155.02 -86.23,-162.22zm-739.51 709.36l-0.12 -27.49c-62.89,-40.15 -172.26,-145.89 -190.05,-207.8 -12.03,-41.85 -9.39,-142.54 -3.03,-186.52 8.66,-59.94 29.12,-110.96 38.34,-165.32l-36.25 0.03c-12.55,52.96 -35.42,72.87 -46.73,171.97 -7.65,66.87 0.76,133.12 18.61,194.7 8.08,27.84 75.9,101.36 98.51,119.75 23.99,19.51 103.62,90.98 120.72,100.68zm-487.67 -565.98l-36.21 0.05c4.45,32.33 29.02,100.65 38.49,165 6.43,43.72 8.93,144.92 -2.79,185.89 -17.01,59.44 -131.94,173.99 -190.27,208.74l-0.16 27.42c19.72,-10.12 42.19,-34.65 60.84,-49.91 46.24,-37.78 145.26,-122.92 158.53,-170.74 17.21,-61.91 26.15,-127.57 18.5,-194.6 -10.92,-95.68 -31.6,-113.2 -46.93,-171.85zm174.92 -660.85c4.57,7.02 28.23,27.67 39.32,31.8 12.88,-12.02 14.49,-19.8 29.55,-33.39 54.5,-49.17 191.43,-152.69 252.7,-201.37 23.23,-18.44 46.64,-37.16 71.87,-56.4 24.84,-18.95 43.71,-36.34 74.83,-53.42 32.78,-18 9.15,-15.73 70.45,-57.82 26.88,-18.47 47.66,-35.21 81.45,-50.12 -11.21,-11.7 -5.59,-12.06 -12.35,-23.11 -37.1,1.06 -39.25,0.58 -50.48,12.4 -14.11,14.84 -26.44,15.29 -39.55,26.06 -20.16,16.57 -28.22,32.17 -68.96,62.75l-448.83 342.62zm-673.37 -441.67c37.59,15.63 84.32,50.42 114.09,73.22 17.66,13.53 6.88,14.3 20.33,24.74 5.98,4.63 24.12,13.33 31.17,17.33 24.39,13.86 372.92,290.23 392.68,310.97 50.44,53 19.02,12.21 55.98,37.53 81.9,56.14 115.92,59.94 193.9,135.45 38.45,37.25 15.02,6.83 36.62,29.54 6.92,7.26 -1.45,13.43 12.45,3.5 4.27,-4.16 10.35,7.07 -10.33,-26.68 -49.25,-80.35 -34.34,-28.35 -125.43,-110.3 -50.13,-45.1 -52.02,-44.59 -106.93,-80.25 -51.66,-33.56 -328.76,-247.5 -376.92,-285.08 -17.86,-13.92 -33.71,-26.9 -52.41,-41.21 -17.5,-13.4 -35.21,-26.6 -51.49,-42.1 -55.28,-52.63 -52.52,-40.32 -65.78,-52.01 -11.56,-10.19 -2.24,-16.76 -55.46,-18.01 -7.23,12.32 -1.62,15.57 -12.47,23.36zm1285.3 -33.13l4.92 24.41c36.89,-11.47 114.4,-80.3 155.71,-109.24 30.25,-21.19 50,-29.94 73.96,-57.73l66.35 -68.94c58.99,7.18 115.44,73.27 140.36,109.31l46.5 78.24c10.12,11.35 17.17,3.78 21.23,41.28 2.23,20.67 3.22,42.7 4.24,63.38 -49.36,-1.39 -40.01,1.88 -74.14,-21.29 -15.17,-10.29 -44.8,-32.53 -59.17,-37.91 5.45,15.15 36.8,43.76 53.61,50.41l-6.65 48.8c-17.17,12.24 -20.95,9.93 -55.59,36.33 -9.64,7.34 -10.52,9.08 -25.35,8.34 5.69,23.88 -8.11,15.64 -25.99,30.37 -4.78,3.93 -12.33,11.01 -16.92,14.45 -12.94,9.69 -8.07,7.2 -26.22,5.62l6.06 20.84 -24.31 -3.81 1.6 15.53c-33.68,2.98 -59.11,24.77 -86.24,44 -23.24,16.46 -42.33,43.65 -62.05,66.15 -17.39,19.85 -41.6,48.64 -63.09,65.2 -41.95,32.36 -40.1,20.42 -92.04,36.27 -38.49,11.76 -88.19,73.33 -141.6,114.84 -24.8,19.27 -46.94,37.36 -71.61,56.68l-73.73 57.36c5.66,13.22 10.25,17.7 17.69,27.52 20.42,-9.12 238.42,-178.84 266.67,-193.5 -7.11,-15.36 -16.38,-16.58 4.35,-29.92 10.41,-6.69 23.27,-11.77 35.15,-16.94 11.7,-5.1 22.68,-10.15 33.2,-15.31 26.21,-12.88 11.32,-10.66 26.68,-25.22 13.77,-13.04 50.6,-26.73 59.51,-41.08 22.29,-35.83 11.56,-31.15 52.04,-51.96 43.63,-22.41 35.92,-40.04 106.2,-94.83 85.43,-66.61 172.91,-103.83 248.89,-156.65 25.23,-17.55 25.72,-42.18 16.54,-77.43 -12.4,-47.57 -49.15,-87.9 -79.6,-124.7 -48.74,-58.9 -70.03,-125.03 -181.54,-128.58 -9.13,17.57 -15.86,16.13 -18.29,40.02 -1.58,15.72 -17.67,24.75 -28.94,33.58 -42.82,33.51 -106.56,84.77 -149.82,113.63l-78.57 52.48zm-1224.5 481.75c0.85,19.23 -1.24,5.7 -6.22,19.93 34.29,22.91 64.88,47.18 98.57,71.61l497.65 368.9c65.07,40.57 113.38,49.73 143.44,116.5 14.01,31.1 2.65,35.9 43.25,44.9 5.33,-67.04 -30.18,-97.47 -81.85,-131.05 -26.39,-17.14 -35.84,-4.74 -33.54,-38.17 -40.97,4.16 -33.52,-15.59 -51.61,-16.87 -18.77,-1.33 8.55,17.24 -42.76,-14.62 -23.08,-14.35 -67.64,-45.48 -89.39,-53.61 7.12,-25.13 -8.36,19.59 3.55,-7.55 2.86,-6.52 2.55,-0.52 3.49,-8.86l-292.15 -231.43c-33.27,-26.91 -66.37,-51.45 -98.32,-78.41 -33.61,-28.35 -50.85,-60.19 -93.37,-79.99 -22.57,-10.51 -46.75,-8.51 -68.27,-18.3 -75.21,-34.21 -95.31,-112.31 -181.62,-168.5 -21.38,-13.92 -32.53,-26.26 -61.51,-28.99l-4.6 -15.19 -18.8 4.41 4.72 -21.97c-17.95,1.68 -12.9,4.43 -25.79,-5.49 -43.38,-33.42 -47.49,-25.56 -43.63,-44.72 -21.14,0.81 -26,-10.23 -39.9,-20.89 -11.95,-9.17 -28.18,-15.84 -41.92,-23.52l-5.02 -49.22c18.74,-7.9 45.17,-32.25 53.53,-50.37 -16.49,6.71 -41.47,26.62 -57.4,36.96 -35.73,23.19 -23.58,20.73 -76.18,22.24 0.82,-19.64 1.99,-40.02 3.8,-59.47 0.58,-6.08 2.63,-22.01 4.54,-27.06 5.5,-14.52 4.17,-5.95 14.98,-16.32 9.37,-8.97 16.33,-27.31 23.07,-39.25 28.89,-51.22 99.15,-147.41 169.84,-149.82 14.25,22.04 43.64,46.49 62.79,68.64 33.59,38.85 29.17,26.88 73.61,58.1 41.17,28.92 118.89,96.44 154.28,108.61l7.27 -25.9c-64.43,-43.59 -86.72,-53.14 -155.27,-106.32 -16.11,-12.49 -100.26,-71.22 -103.08,-88.86 -1.65,-10.33 4.65,-5.94 -4.48,-21.76 -5.1,-8.87 -8.97,-12.21 -13.39,-21.03 -102.09,3.29 -129.25,57.99 -177.61,122.95 -14.54,19.52 -29.4,35.63 -44.76,55.71 -27.56,36.09 -65.46,115.78 -32.5,145 21.87,19.37 180.9,105.81 245.07,153.63 18.93,14.11 39.51,29.98 55.66,44.87 29.44,27.17 24.15,38.73 48.67,51.76 27.55,14.66 46.14,20.48 58.49,42.13 7.79,13.68 6.99,20.19 19.76,28.72 30.06,20.07 36.22,13.36 57.43,43.04 3.91,5.47 -0.41,1.19 4.89,5.49l27.6 14.05c26.38,12.56 44.42,17.21 64.99,35.36zm1619.24 271.29c119.33,70.96 216.16,173.63 262.69,339.39 22.06,78.54 33.97,186.06 3.79,262.46 -14.17,35.89 -35.34,66.12 -54.17,94.86 -64.64,98.63 -117.87,167.59 -197.84,252.77 -52.56,55.96 -85.96,85.32 -191.94,106.16 -92.81,18.25 -181.25,15.35 -269.37,-10.38 -38.78,-11.34 -72.42,-27.47 -103.92,-45.21 -91.51,-51.48 -13.96,-4.47 -104.46,-16.19 47.14,44.87 112.31,82.08 176.17,104.06 74.76,25.71 166.24,34.17 250.57,24.24 303.13,-35.67 525.5,-272.78 544.42,-579.29 8.74,-141.52 -46.39,-216.41 -88.16,-335.54 -9.82,-28 -35.37,-67.77 -66.32,-72.94 1.02,-40.22 -38.2,-62.35 -65.99,-78.91 -23.51,-14.02 -69.2,-38.13 -95.47,-45.48z"/>
 </g>
</svg>
