<!-- Generated by IcoMoon.io -->
<svg version="1.1" xmlns="http://www.w3.org/2000/svg" width="32" height="32" viewBox="0 0 32 32">
<title>pokemon-mimikyu</title>
<path d="M10.135 19.922c-0.062-0.103-0.161-0.194-0.242-0.293-1.128-1.396-2.241-3.186-1.953-5.136 0.148-1 1.061-1.672 1.666-2.134l2.253-1.553c0.088-0.087 0.722-2.476 0.953-2.898 0.558-1.015 0.434-0.567 0.415-1.482-0.032-1.57 0.429-1.239 1.408-2.405 0.665-0.794 0.412-0.766 0.339-1.324-0.092-0.696 0.333-0.853 0.801-1.084 0.287-0.143 1.058-0.573 1.354-0.55 0.018 0.399-0.919 1.775-0.769 2.185 0.052 0.143 0.53 0.498 0.498 0.965-0.016 0.238-0.326 0.777-0.417 1.048-0.115 0.344-0.055 2.35-0.062 2.895-0.020 1.486-0.069 1.362-0.25 2.682 0.316 0.334 1.223 0.765 2.359 2.184l0.627 0.872c0.441-0.007 1.113-0.15 1.578-0.217 0.531-0.077 1.052-0.155 1.58-0.213 3.119-0.346 2.884-0.203 4.544 2.39 0.324 0.505 1.333 1.71 0.69 2.473l-1.59-1.099c-0.539-0.362-1.038-0.727-1.589-1.093-0.393-0.259-0.461-0.32-0.998-0.127-0.868 0.312-1.869 0.886-2.63 1.345-0.254 0.153-0.647 0.315-0.725 0.62-0.269 1.050-0.66 1.849-1.306 2.67-1.041 1.325-2.219 1.453-3.878 1.361 0.102 0.114 0.355 0.294 0.398 0.416 0.068 0.192-0.165 0.345-0.241 0.486 0.401 0.415 0.502 0.44 0.943 0.975 0.879 1.067 1.447 2.472 1.665 3.918 0.135-0.069 0.86-0.822 0.919-1-0.439-0.612-1.050-0.92-0.765-1.274 0.277-0.346 0.947-0.792 1.076-1.149-0.196-0.418-0.786-0.749-0.474-1.408 0.355-0.747 1.263-1.703 1.89-2.22 0.72-0.595 3.316-2.295 4.065-2.002 0.367 0.143 0.423 1.111 0.468 1.564 0.074 0.744 0.095 1.189-0.024 1.917-0.142 0.018-0.835 0.497-1.034 0.61-0.368 0.21-0.694 0.379-1.075 0.569-0.378 0.19-0.727 0.353-1.12 0.526-0.374 0.166-0.768 0.29-1.143 0.446 0.116 0.238 0.707 1.057 0.468 1.341-0.241 0.289-1.083 0.347-1.437 0.559 0.333 0.32 0.704 0.451-0.077 1.129l-1.026 0.861c0.229 0.163 1.356 0.538 1.914 0.881 0.22 0.136 0.424 0.219 0.403 0.511-0.432 0.274-1.258 0.199-1.844 0.199 0.141 1.191 0.102 0.921-1.467 0.638-0.017 0.472-0.040 0.494-0.542 0.38-0.774-0.176-1.728-0.573-2.212-0.664-0.545 1.096-0.756 0.373-1.558 0.127-0.227 0.404-0.314 0.398-0.815 0.184-0.316-0.135-0.629-0.308-0.946-0.42-0.266 0.106-0.698 0.509-0.833 0.535-0.285 0.055-0.62-0.427-0.773-0.578l-1.587 0.613c-0.165-0.186-0.136-0.441-0.267-0.617-0.121 0.063-1.57 0.948-1.145 0.052-0.514 0.042-1.956 0.295-2.312 0.031 0.015-0.25 0.177-0.297 0.413-0.417 0.401-0.203 1.515-0.613 1.658-0.725l-2.014-0.705 2.647-0.126c0.261-1.822 1.197-4.855 2.077-6.49 0.174-0.322 0.338-0.613 0.516-0.911 0.159-0.265 0.454-0.612 0.554-0.846zM7.122 28.335c-0.352 0.029-1.68 0.015-1.874 0.108 0.791 0.405 2.436 0.631 2.554 1.062 0.076 0.276 0.153 0.762 0.283 0.964 0.46-0.112 1.881-0.807 2.312-0.88 0.315-0.053 1.684 0.85 2.225 0.917l0.645-0.903c0.711 0.12 2.777 1.087 3.84 1.159-0.012-0.429-0.276-0.838-0.243-1.108 0.298-0.139 2.828 0.242 3.539-0.086-0.033-0.128 0.037-0.056-0.265-0.245-0.375-0.236-1.433-0.675-1.875-0.854-1.369-0.553-0.539 0.057-1.16-1.912-0.204-0.649-0.885-2.217-1.344-2.547-0.207-0.149-1.081-0.477-1.404-0.584-1.015-0.336-2.24-0.529-3.356-0.247-1.37 0.346-1.659 0.82-2.515 1.413 0.665-0.851 2.033-1.566 3.241-1.665 0.763-0.063 1.504 0.040 2.192 0.247 0.972 0.293 1.242 0.552 1.755 0.739-0.342-0.612-1.026-0.868-1.058-1.143 0.067-0.029 0.318 0.038 0.41-0.296-0.064-0.109-0.425-0.41-0.572-0.488-0.296-0.157-0.731-0.027-0.731-0.27 0.093-0.083 0.076-0.054 0.238-0.021 2.668 0.543 4.261-0.017 5.438-2.57 0.156-0.339 0.29-0.698 0.393-1.081 0.051-0.193 0.095-0.409 0.123-0.618 0.014-0.108 0.020-0.203 0.021-0.317 0.002-0.222-0.056-0.234 0.088-0.308 0.113 0.066 0.039-0.080 0.080 0.136 0.007 0.037 0.003 0.172 0.001 0.215-0.006 0.131-0.023 0.247-0.029 0.379 0.684-0.41 2.491-1.533 3.325-1.716-0.090-0.323-0.283-0.464-0.109-0.931 0.126-0.336 0.362-0.457 0.527-0.665-0.049-0.17-0.427-0.663-0.464-0.678-0.215-0.086-3.621 0.447-4.133 0.519 0.027 0.171 0.188 0.387 0.249 0.539 0.070 0.178 0.019 0.186-0.009 0.225-0.163-0.040-0.17-0.215-0.352-0.565-0.585-1.132-2.146-2.772-3.192-3.331 0.208-0.987 0.248-1.126 0.282-2.211 0.025-0.799 0.067-1.727 0.019-2.519-0.524-0.298-0.845-0.414-1.436 0.001-0.254 0.179-0.718 0.889-1.252 0.534 0.341 0.002 0.578-0.093 0.743-0.264 0.267-0.277 0.605-0.748 1.291-0.68 0.342 0.035 0.456 0.218 0.656 0.327-0.017-0.726-0.010-0.795 0.258-1.378 0.264-0.577 0.328-0.655-0.065-1.148-0.312-0.392-0.334-0.437-0.019-1.185 0.165-0.391 0.366-0.757 0.499-1.115-0.309 0.072-1.571 0.726-1.686 0.877-0.225 0.299 0.048 0.789 0.050 1.104 0.003 0.397-0.816 1.218-1.090 1.491-0.387 0.385-0.867 0.393-0.767 1.835 0.042 0.61 0.018 0.597-0.241 1.051-0.462 0.808-0.754 1.916-1.008 2.882-0.117 0.445-0.068 0.34-0.61 0.689-1.015 0.653-2.234 1.472-2.933 2.258-0.906 1.018-0.519 2.905 0.090 4.059 0.322 0.61 0.632 1.087 1.009 1.586 0.089 0.118 0.559 0.671 0.58 0.731 0.061 0.183-0.228 0.503-0.446 0.826-1.175 1.741-2.019 4.428-2.507 6.573-0.070 0.31-0.127 0.817-0.211 1.081zM23.445 15.767c0.588-0.015 0.291-0.23 1.161 0.352l2.857 1.976c0.374-0.703-0.69-2.006-1.153-2.727-1.057-1.645-1.105-1.94-2.859-1.839 0.12 0.157 0.27 0.27 0.408 0.442 0.494 0.614-0.762 0.407-0.413 1.797zM18.623 30.545c0.038-0.235-0.028-0.457-0.050-0.683l-1.526-0.069c0.076 0.497 0.11 0.503 0.55 0.604 0.279 0.064 0.727 0.192 1.026 0.148zM13.090 30.204c0.266 0.134 0.653 0.405 0.962 0.432 0.12-0.113 0.222-0.268 0.296-0.462-0.099-0.090-0.828-0.34-0.985-0.357l-0.273 0.387zM9.793 30.001c0.482 0.733 0.546 0.458 1.022 0.133l0.167-0.133c-0.137-0.093-0.427-0.265-0.582-0.241-0.078 0.013-0.546 0.199-0.607 0.241zM4.512 30.066c0.822 0.091 1.624-0.165 2.383-0.123-0.033 0.255-0.104 0.141-0.193 0.375 0.463-0.017 0.686-0.318 1.008-0.419-0.085-0.538-0.156-0.465-0.617-0.636-0.55-0.202-0.377-0.203-0.903 0.011-0.307 0.124-1.601 0.591-1.678 0.792zM17.788 25.754c1.184 1.485 1.176 0.747-0.18 2.253 0.443 0.419 0.794-0.064 1.382-0.553 0.11-0.092 0.538-0.458 0.574-0.595 0.086-0.325-0.418-0.371-0.497-0.621 0.241-0.274 1.29-0.333 1.621-0.636 0.070-0.319-0.484-1.057-0.612-1.311 0.101-0.073 0.908-0.328 1.126-0.421 0.829-0.352 1.882-0.864 2.652-1.328 0.147-0.088 0.378-0.261 0.513-0.313-0.124-0.239-0.258-0.24-0.389-0.596-0.257-0.695-0.207-1.996-0.132-2.721-0.6 0.084-1.901 0.849-2.389 1.146-0.753 0.456-1.669 1.224-2.149 1.786l-0.568 0.73c-0.296 0.423-0.506 0.707-0.16 1.213 0.346 0.506 0.576 0.546 0.065 1.071-0.191 0.196-0.774 0.688-0.857 0.894zM12.167 18.103c-1.772-0.166-2.074 0.772-2.138-1.598-0.006-0.222-0.015-0.723 0.070-0.884 0.138-0.262 0.486-0.163 0.602 0.041 0.151 0.263 0.125 1.301 0.173 1.712l1.018-0.039c0.662-0.013 0.737 0.001 0.974 0.488 0.121 0.25 0.207 0.608 0.357 0.817 0.334 0.106 0.733-0.002 0.952 0.296 0.121 0.165 0.329 0.648 0.442 0.75 0.332-0.115 0.542-0.167 0.929-0.263 0.53-0.132 0.578-0.038 1.092-0.037-0.293-0.090-0.77-0.186-0.808-0.502 0.425-0.13 0.806 0.079 1.254-0.024l-0.387-0.135c0.215-0.010 0.384 0.041 0.539 0.159-0.277 0.218-0.872 0.043-1.242 0.076 0.208 0.249 1.447 0.434 1.988 0.689-0.348 0.019-1.609-0.173-1.791-0.086 0.27 0.195 1.068 0.132 1.053 0.569-0.263 0.128-0.914-0.090-1.207 0.051 0.265 0.191 0.757 0.127 1.051 0.428l-1.508-0.075c0.145 0.132 0.529 0.241 0.571 0.425-0.176 0.184-0.509 0.123-0.723 0.204 0.198-0.026 0.499-0.115 0.667-0.191l-0.203-0.163c-0.082-0.044-0.156-0.076-0.232-0.114-0.158-0.078-0.33-0.147-0.439-0.264l0.893-0.018c-0.198-0.059-0.349-0.227-0.43-0.274-0.182 0.149-1.045 0.451-1.348 0.325-0.308-0.129-0.504-0.645-0.633-0.884-0.254-0.47-0.805 0.151-1.16-0.485-0.18-0.322-0.249-0.664-0.377-0.995zM16.378 17.7c-0.412-0.506-0.541-1.342-0.135-2.032 0.283-0.482 1.083-1.020 1.819-0.577 1.321 0.796-0.459 3.682-1.345 2.601-0.424-0.518-0.409-1.531 0.047-1.98 0.584-0.577 1.556-0.132 1.29 0.811-0.102 0.361-0.355 0.598-0.541 0.801-0.6 0.651-1.202-0.608-0.613-1.218 0.396-0.41 0.67 0.009 0.974-0.086-0.055 0.148-0.061 0.102-0.006 0.256l0.119 0.207c0.115-1.436-1.59-1.056-1.427 0.369 0.048 0.415 0.31 1.031 0.812 0.855 0.347-0.123 0.66-0.566 0.82-0.959 0.631-1.556-0.601-1.896-1.34-1.511-0.761 0.397-1.050 1.679-0.473 2.463zM10.987 14.618c0.001-0.537 0.142-0.806 0.428-1.097 0.708-0.722 1.733-0.887 1.733 0.044-0.001 0.655-0.887 1.692-1.418 1.551-0.32-0.085-0.505-0.605-0.419-1.011 0.1-0.475 0.86-0.941 1.333-0.645 0.237 0.148 0.155 0.227 0.279 0.456 0.257-0.98-0.381-0.985-1.043-0.622-0.471 0.258-0.739 0.61-0.834 1.11-0.006 0.034-0.013 0.077-0.022 0.11-0.002 0.011-0.008 0.027-0.010 0.036l-0.026 0.070zM24.557 22.033c0.162-0.339 0.057-1.29 0.011-1.724-0.034-0.326-0.101-0.91-0.211-1.216-0.069-0.192-0.079-0.19-0.31-0.212-0.142 0.259-0.273 3.046 0.51 3.152zM13.035 25.113c0 0.463 0.183 1.385 0.587 1.226 0.397-0.156 0.153-1.365-0.043-1.657-0.313-0.467-0.544-0.034-0.544 0.431zM10.893 25.373c0 1.697 1.030 0.975 0.684-0.462-0.061-0.254-0.226-0.604-0.489-0.344-0.125 0.125-0.196 0.576-0.196 0.806zM17.731 16.285c-0.219 0.102-0.288 0.37-0.776 0.612 0.129-0.379 0.482-0.498 0.631-0.738-0.588-0.419-1.010 0.706-0.595 1.13 0.097 0.099 0.238 0.163 0.381 0.072 0.236-0.15 0.335-0.318 0.425-0.615 0.062-0.204 0.046-0.311-0.067-0.46zM9.985 14.486c-0.085-0.079-0.155-0.193-0.234-0.295-0.124-0.161-0.151-0.191-0.298-0.259l0.208 1.16c-0.072-0.047-0.028-0.013-0.085-0.071l-0.229-0.251c-0.097-0.115-0.186-0.235-0.252-0.375 0.044 0.277 0.309 0.554 0.442 0.747 0.148 0.215 0.096 0.185 0.159 0.441 0.073 0.298 0.060 0.356 0.176 0.431 0.114-0.553-0.093-0.962-0.133-1.504 0.191 0.159 0.348 0.692 0.493 0.778 0.035-0.566-0.058-0.547-0.112-0.985 0.143 0.143 0.203 0.362 0.344 0.479l-0.1-0.338c-0.142-0.202-0.251-0.487-0.418-0.635-0.034 0.324 0.005 0.389 0.039 0.676zM12.205 14.822c-0.066-0.051-0.006-0.012-0.101-0.047-0.29-0.108-0.495-0.297-0.259-0.65 0.25-0.373 0.644-0.102 0.755-0.528-0.698-0.252-1.449 0.468-1.012 1.18 0.187 0.305 0.375 0.144 0.618 0.045zM11.988 14.411c0.048-0.191 0.219-0.302 0.292-0.472-0.66 0.102-0.52 1.187 0.246 0.433 0.16-0.158 0.251-0.298 0.198-0.6-0.010 0.007-0.023 0.006-0.027 0.022s-0.021 0.017-0.026 0.023l-0.141 0.164c-0.001 0.001-0.326 0.342-0.541 0.43z"></path>
</svg>
