<?xml version="1.0" encoding="UTF-8"?>
<!DOCTYPE svg PUBLIC "-//W3C//DTD SVG 1.1//EN" "http://www.w3.org/Graphics/SVG/1.1/DTD/svg11.dtd">
<!-- Creator: CorelDRAW 2017 -->
<svg xmlns="http://www.w3.org/2000/svg" xml:space="preserve" width="6.7732mm" height="6.7732mm" version="1.1" style="shape-rendering:geometricPrecision; text-rendering:geometricPrecision; image-rendering:optimizeQuality; fill-rule:evenodd; clip-rule:evenodd"
viewBox="0 0 677.32 677.32"
 xmlns:xlink="http://www.w3.org/1999/xlink">
 <defs>
  <style type="text/css">
   <![CDATA[
    .fil1 {fill:#1F1F1F}
    .fil3 {fill:#414141}
    .fil0 {fill:#A0A0A1}
    .fil2 {fill:#DDDDDD}
   ]]>
  </style>
 </defs>
 <g id="Capa_x0020_1">
  <metadata id="CorelCorpID_0Corel-Layer"/>
  <g id="_2488967652064">
   <g>
    <path class="fil0" d="M117.52 416.07c4.83,3.37 39.63,14.63 48.09,17.87 13.78,5.27 13.58,5.39 18.13,-7.96 2.07,-6.04 7.51,-19.12 7.17,-25.46 -16.06,-5.18 -31.89,-11.27 -47.54,-16.94 -15.62,-5.64 -12.62,-4.68 -17.69,8.19 -2.19,5.58 -8.31,18.22 -8.16,24.3z"/>
    <path class="fil0" d="M288.86 477.48c0.14,-0.08 0.37,-0.3 0.45,-0.16l1.69 -0.59c1.77,-0.86 1.04,-0.72 2.97,-5.5 16.1,-39.86 33.59,-80.75 50.05,-120.59 8.92,-21.58 17.66,-42.93 26.67,-64.25 4.52,-10.69 8.91,-21.38 13.25,-31.96 3.27,-7.97 11.01,-25.48 13.33,-32.24l-3.59 -0.02c-6.17,-0.01 -7.21,8.38 -9.32,13.28l-20.38 48.2c-9.31,21.17 -17.92,43.01 -26.84,64.59 -8.98,21.73 -18.17,42.52 -27.22,64.19 -4.58,10.96 -8.81,21.56 -13.51,32.22 -3.32,7.56 -12.16,25.2 -13.4,32.85l5.85 -0.02z"/>
    <path class="fil0" d="M482.45 436.19c1.98,-5.23 7.39,-17.73 7.49,-23.26 -7.44,-1.18 -20.61,-9.05 -33.54,-11.35 -1.55,3.5 -7.65,19.44 -7.78,23.12 2.49,1.14 5.89,2.14 8.55,3.1 6.42,2.31 19.73,8.42 25.28,8.39z"/>
    <path class="fil0" d="M490.77 411.05c2.46,-5.3 8.27,-16.98 8.62,-23.39 -7.92,-1.47 -26.79,-11.47 -33.79,-10.92l-7.71 22.48c4.77,2.37 27.79,11.23 32.88,11.83z"/>
    <path class="fil0" d="M525.31 423.14c2.47,-4.98 7.65,-17.23 7.96,-23.32 -2.72,-1.35 -28.99,-10.33 -31.12,-10.46 -1.47,2.53 -9.02,20.81 -8.33,23.3 2.5,1.17 29.81,10.46 31.49,10.48z"/>
    <path class="fil0" d="M524.28 426.16c-2.23,-0.88 -4.75,-2.31 -7.63,-3.41 -4.75,-1.82 -20.49,-7.55 -23.85,-7.86 -2.87,3.65 -7.67,17.49 -8.07,22.96l31.85 11.24 7.7 -22.93z"/>
    <path class="fil0" d="M558.32 435.04c1.95,-2.64 8.16,-18.87 7.81,-22.72 -4.99,-2.85 -23.97,-9.78 -30.16,-10.64 -2.83,4.38 -7.06,16.85 -8.21,23.02 3.57,2.05 25.73,10.11 30.56,10.34z"/>
    <path class="fil0" d="M548.67 459.56c1.96,-2.51 7.91,-18.05 8.1,-21.65 -3.05,-2.47 -8.61,-3.72 -12.6,-5.08 -4.38,-1.5 -8.79,-3.62 -13.08,-4.74 -3.56,-0.92 -4.29,-0.78 -5.78,1.67 -2.36,3.91 -6.31,16.56 -6.08,20.34 4.61,2.91 23.12,9.92 29.44,9.46z"/>
    <path class="fil0" d="M463.77 375.44c-4.54,-2.41 -25.31,-10.48 -30.14,-10.39l-8.88 22.56 30.96 11.06 8.06 -23.23z"/>
    <path class="fil0" d="M446.24 423.32c1.91,-5.89 7.54,-16.42 7.91,-22.99 -4.38,-1.97 -10.06,-3.98 -14.61,-5.62 -4.76,-1.73 -10.64,-4.08 -15.92,-4.75l-8.19 22.63 30.81 10.73z"/>
    <path class="fil0" d="M395.37 376.47c7.34,3.45 18.72,8.75 27.95,9.58l8.24 -22.19c-5.47,-1.68 -19.1,-8.68 -27.64,-9.11 -1.73,3.5 -8.3,18.61 -8.55,21.72z"/>
    <path class="fil0" d="M413.66 411.27c1.46,-7.27 6.69,-14.13 7.79,-22.85l-27.74 -9.53c-1.37,6.89 -7.37,14.6 -8.01,22.45 3.82,2.26 23.09,9.34 27.96,9.93z"/>
    <path class="fil0" d="M198.68 133.01c-1.9,-6.16 -3.13,-15.87 0.56,-21.66 2.06,1.86 1.11,5.43 5.89,9.3 6.52,5.29 18.32,0.25 17.03,-10.35 -0.75,-6.18 -4.16,-5.87 -6.27,-9.64l2.49 -0.51c5.62,0.12 12.66,3.35 16.77,6.93 -17.5,-22.89 -46.55,-3.2 -40.43,18.41 1.12,3.98 2.17,4.82 3.96,7.52z"/>
    <path class="fil0" d="M515.34 491.96l2.99 -0.32c0.96,1.81 2.11,3.16 2.95,4.61 1.13,1.94 0.83,3.74 -0.47,5.25 -4.33,5.05 -7.07,-1.23 -10.05,-0.9 -0.82,2.01 -0.71,1.59 -0.37,3.81 0.15,0.99 0.25,0.75 0.28,1.62 0.04,1.16 0.21,0.19 -0.21,0.89l1.49 2.8c0.62,0.76 1.37,1.17 2.39,1.58 6.42,2.52 13.23,0.52 15.7,-6.13 4.42,-11.95 -11.55,-18.82 -14.7,-13.21z"/>
    <path class="fil0" d="M399.22 217.49c1.6,-1.84 8.16,-18.47 9.09,-21.61 -2.94,0.13 -8.32,-2.14 -13.7,7.19 -1.33,2.31 -2.11,5.02 -3.04,7.59 -1.09,3.01 -2.49,5.19 -3.45,7.78 2.93,-1.28 7.32,-1.28 11.1,-0.95z"/>
    <path class="fil0" d="M271.89 503.61c0.82,0.76 0.78,0.78 3.51,0.69 1.47,-0.04 3.02,-0.12 4.5,-0.2l8.99 -22.46c-8.57,0.07 -8.95,1 -11.43,8.03 -1.72,4.86 -4.2,9.56 -5.57,13.94z"/>
    <path class="fil0" d="M292 119.21c3.66,-6.54 -1.07,-12.55 -5.97,-8.94 -1.72,1.26 -2.83,4.18 -1.81,7.05 0.97,2.71 4.9,2.08 7.78,1.89z"/>
   </g>
   <g>
    <path class="fil1" d="M182.79 221.51c-4.86,9.24 -17.35,41.89 -21.4,53.08 -3.29,9.07 -6.72,18.12 -10.23,26.86 -4.91,12.24 -2.44,11.78 15.39,17.79 18.58,6.27 37.02,12.92 55.17,19.48l41.63 14.77c17.92,6.43 14.87,4.66 20.55,-9.18 8.47,-20.6 19.6,-46.35 26.41,-67.04 4.2,-12.76 2.7,-10.24 -16.02,-17.22 -11.82,-4.41 -100.47,-37.91 -111.5,-38.54z"/>
    <path class="fil1" d="M575.59 396.83c2.91,-3.04 8.48,-20.2 10.51,-25.61 1.75,-4.66 3.31,-8.74 4.99,-13.28 4.73,-12.81 3.99,-11.73 -12.96,-17.53 -4.53,-1.55 -8.99,-3.13 -13.58,-4.72l-108.23 -37.51c-4.64,-1.61 -24.43,-9.7 -28.22,-7.77 -1.85,0.95 -9.2,21.52 -10.78,25.29 -1.42,3.41 -7.02,16.56 -7.61,19.85 -0.74,4.12 0.28,4.06 3.25,5.45 12.17,5.72 39.58,14.04 53.71,18.92 18.14,6.27 35.31,13.04 53.22,19.38 9.22,3.26 18.15,6.14 27.26,9.34 6.97,2.46 20.92,8.94 28.44,8.19z"/>
    <path class="fil1" d="M444.22 508.5c-3.37,1.52 -4.05,6.72 -5.84,11.6 -1.06,2.87 -4.93,11.1 -2.75,13.57 1.88,2.13 19.79,9.16 24.22,10.86 8.44,3.25 16.93,6.27 25.56,9.46 4.54,1.68 22.48,9.98 26.69,7.34 2.58,-1.61 4.25,-8.4 5.52,-11.72 6.36,-16.55 6.74,-13.13 -21.77,-23.82 -8.44,-3.17 -16.94,-6.28 -25.52,-9.53 -4.59,-1.74 -21.94,-9.65 -26.11,-7.76z"/>
    <path class="fil1" d="M212.95 412.81c-2.65,3.08 -8.1,13.83 -5.74,19.15 2.61,5.87 12.6,5.16 18.36,8.49 0.9,7.42 -9.1,12.2 -7.2,19.48 1.47,5.65 10.72,9.37 18.25,8.72 9.18,-17.05 4.7,-23.03 20.45,-15.95 3.98,1.79 6.49,2.92 11.33,2.89 1.79,-2.96 2.81,-5.76 4.37,-9.15 1.48,-3.23 4.14,-6.41 1.53,-10.45 -3.64,-5.62 -15.05,-4.79 -19.93,-8.24 1.21,-5.79 8.89,-13.76 6.27,-19.26 -1.22,-2.54 -4.52,-3.98 -7.87,-5.32 -2.65,-1.05 -7.33,-3.27 -10.56,-2.02 -5.85,2.27 -1.63,16.71 -8.97,17.58 -5.29,0.62 -11.95,-6.35 -20.29,-5.92z"/>
    <path class="fil1" d="M345.08 499.78c9.96,5.31 22.28,9.24 33.4,13.35 7.94,2.94 26.7,12.07 35.18,11.67l5.03 -10.67c8.03,-20.64 5.54,-14.69 -39.84,-32.35 -6.25,-2.44 -17.8,-7.32 -25.21,-6.95 -2.79,3.41 -9.24,19.34 -8.56,24.95z"/>
    <path class="fil1" d="M99.07 348.29c-7.6,1.67 -14.51,8.13 -12.22,17.66 1.66,6.93 8.24,13.88 17.06,12.67 20.81,-2.84 12.83,-34.23 -4.84,-30.33z"/>
    <path class="fil1" d="M483.67 449.49c-1.65,0.91 -1.6,2.42 -0.5,4.12 1.55,2.41 9.21,4.83 11.97,5.81 3.37,1.2 14.42,6.75 17.39,4.79 3.49,-2.31 -1.07,-5.89 -2.72,-6.74 -2.84,-1.47 -5.35,-2.27 -8.41,-3.27 -3.56,-1.15 -14.31,-6.61 -17.73,-4.71z"/>
    <path class="fil1" d="M516.89 462.4c-6.2,4.05 6.22,7.9 9.82,9.14 3.62,1.24 13.1,6.14 17.21,4.69 3.31,-1.18 0.07,-5.66 -1.92,-6.75 -2.34,-1.28 -5.41,-2 -8.21,-2.96 -3.51,-1.21 -13.4,-6.41 -16.9,-4.12z"/>
    <path class="fil1" d="M207.52 388.79c0.77,-3.78 -0.8,-4.68 -3.61,-5.79 -4.16,-1.64 -20.51,-8.91 -22.93,-6.47 -4.69,4.75 21.11,12.85 26.54,12.26z"/>
   </g>
   <g>
    <path class="fil2" d="M144.25 321.89c7.88,-3.34 12.31,8.69 4.59,11.78 -7.49,3 -12.17,-8.57 -4.59,-11.78zm38.54 -100.38c11.03,0.63 99.68,34.13 111.5,38.54 18.72,6.98 20.22,4.46 16.02,17.22 -6.81,20.69 -17.94,46.44 -26.41,67.04 -5.68,13.84 -2.63,15.61 -20.55,9.18l-41.63 -14.77c-18.15,-6.56 -36.59,-13.21 -55.17,-19.48 -17.83,-6.01 -20.3,-5.55 -15.39,-17.79 3.51,-8.74 6.94,-17.79 10.23,-26.86 4.05,-11.19 16.54,-43.84 21.4,-53.08zm78.46 17.81c-1.35,-6.34 3.47,-8.26 5.5,-5.06 2.6,4.08 -0.85,7.92 -5.5,5.06zm-23.34 -8.14c-4.39,-9.18 8.09,-9.41 5.29,-0.15l-5.29 0.15zm104.66 19.61c-11.26,-5.91 -24.99,-10.42 -37.76,-15 -38.35,-13.74 -78.42,-26.99 -117.23,-40.71 -20.27,-7.16 -16.24,-10 -26.85,16.92l-30.35 75.28c-2.6,6.27 -5.27,12.52 -7.59,18.83 -3.72,10.11 -2.04,10.6 1.59,19.73 3.37,8.48 4.09,10.79 12.52,13.93 6.51,2.43 13.29,4.51 19.67,6.74 13.13,4.59 26.15,9.15 39.14,13.66 24.53,8.5 54.07,18.35 77.95,27.22 13.27,4.93 10.6,5.12 22.94,-24.31l31.34 -74.3c3.04,-7.37 13.64,-31.78 14.63,-37.99z"/>
    <path class="fil2" d="M425.26 470.47c1.97,-5.14 7.61,-16.34 7.54,-22.34 -7.75,-3.27 -21.63,-9.66 -30,-11.18l-8.53 22.97c3.95,2.22 25.75,10.84 30.99,10.55z"/>
    <path class="fil2" d="M392.24 458.84c2.12,-3.11 8.23,-18.69 8.46,-22.81 -5.64,-2.64 -21.8,-8.58 -27.85,-9.7 -2.21,3.21 -8.34,18.45 -8.71,23.26 7.44,1.62 21.55,9.56 28.1,9.25z"/>
    <path class="fil2" d="M191.36 119.45c0,-8.28 4.2,-15.47 9.92,-20.31 0.94,-0.79 1.7,-1.19 2.37,-1.9 -27.78,11.69 -18.66,57.78 17.44,52.82 35.74,-4.91 30.88,-53.58 2.58,-55.44 3.03,2.49 13.74,4.36 17.5,18.5 3.12,11.69 -2.52,21.29 -8.36,26.2 -16.61,13.92 -41.45,1.26 -41.45,-19.87z"/>
    <path class="fil2" d="M515.34 491.96c-2.69,0.58 -4.88,2.75 -5.81,5.3 -1.34,3.68 0.12,6.71 0.93,9.66 0.42,-0.7 0.25,0.27 0.21,-0.89 -0.03,-0.87 -0.13,-0.63 -0.28,-1.62 -0.34,-2.22 -0.45,-1.8 0.37,-3.81 2.98,-0.33 5.72,5.95 10.05,0.9 1.3,-1.51 1.6,-3.31 0.47,-5.25 -0.84,-1.45 -1.99,-2.8 -2.95,-4.61l-2.99 0.32z"/>
   </g>
   <g>
    <path class="fil3" d="M271.89 503.61c1.37,-4.38 3.85,-9.08 5.57,-13.94 2.48,-7.03 2.86,-7.96 11.43,-8.03 5.65,0.86 8.72,2.96 12.61,4.88 0.11,3.4 -5.94,18.7 -7.79,21.55 -3.48,0.45 -6.78,-1.85 -10.07,-2.71 -3.87,-1.01 -7.68,-0.31 -11.77,-0.42l0.02 -1.33zm366.68 -172.77l0 6.71c-0.79,4.21 -2.71,8.46 -4.05,11.49 -0.79,1.8 -1.35,3.48 -2.22,5.4 -5.05,11.18 -8.91,22.9 -13.39,34.35l-45.41 114.07c-0.72,2.01 -1.38,3.74 -2.31,5.82 -0.84,1.88 -1.44,3.8 -2.12,5.49 -6.93,17.09 -16.23,40.2 -22.37,57.38l-9.03 22.97c-2.66,5.91 -3.76,15 -10.28,16.08l-2.76 0c-0.72,-0.11 -1.5,-0.28 -2.33,-0.55l-11.47 -4.27c-15.73,-5.3 -30.64,-11.86 -46.47,-17.02 -11.93,-3.89 -23.41,-8.93 -35.29,-12.96l-46.48 -17.01c-3.82,-1.51 -7.44,-2.73 -11.47,-4.28 -4.09,-1.57 -7.85,-2.97 -11.83,-4.41 -3.77,-1.36 -7.52,-2.67 -11.53,-4.22l-35.07 -12.68c-3.88,-1.28 -8.11,-2.99 -11.87,-3.87 -4.53,3.03 -3.26,5.19 -11.22,6.07 -13.57,1.52 -17.09,-4.68 -25.41,-8.04 -4.2,-1.69 -8.22,-3.11 -12.49,-4.78 -2.24,-0.88 -4.25,-1.59 -6.3,-2.33 -1.44,-0.52 -1.79,-0.65 -3.38,-1.19l-9.25 -3.45c-2.03,-0.83 -4.01,-1.49 -6.25,-2.38 -14.64,-5.77 -34.84,-13.48 -49.95,-18.62 -8.58,-2.91 -16.78,-6.62 -25.14,-9.4 -4.35,-1.45 -8.5,-3.01 -12.63,-4.64 -4.17,-1.64 -8.24,-3.03 -12.55,-4.71l-68.58 -25.9c-7.21,-2.88 -10.89,-4.17 -14.07,-11.83 -1.56,-3.76 -4.33,-8.44 -4.81,-12.46l-0.05 -0.43 0 -4.5c0.56,-5.68 3.1,-10.74 5.41,-15.51 0.98,-2.02 1.57,-3.55 2.55,-5.58l51.83 -120.35c3.42,-8.23 6.79,-16.18 10.32,-24.22 6.95,-15.87 13.83,-31.91 20.79,-47.77 1.81,-4.13 3.39,-7.79 5.27,-12l15.87 -35.94c3.87,-9.13 -1.42,-7.96 -0.03,-13.18l27.68 -66.85c0.85,-1.95 1.64,-4.12 2.53,-6.1 1.01,-2.27 1.55,-3.68 3.52,-5.12 6.76,-4.93 24.82,4.43 33.16,7.03 30.27,9.44 60.14,20.53 90.35,30.02 4.39,1.38 8.68,2.66 12.99,4.28 1.35,0.5 2.02,0.62 3.47,1.1l9.52 3.18c2.83,0.99 10.6,2.59 11.71,5.24 4,-0.08 7.33,0.94 10.95,2.06l19.36 6.55c3.24,1.06 5.92,2.25 9.43,3.27 11.66,3.38 38.76,11.93 48.3,16.2 2.83,1.27 6.45,2.2 8.03,4.67 1.63,2.57 5.72,15.65 6.24,19.15 2.06,13.82 -11.06,30.15 -11.06,40.01 3.94,0.91 8.07,3.06 12.08,4.17 3.95,1.1 7.94,2.39 12.12,3.63l33.59 10.6c1.13,0.36 1.51,0.63 2.98,1.08 4.26,1.33 8.02,2.51 11.93,3.82 10.29,3.43 13.56,4.23 18.05,13.94 3.49,7.54 6.42,14.58 10,22.01 2.72,5.67 4.6,11.39 7.5,16.87 5.37,10.13 13.99,11.79 24.38,15.24l23.42 8.07c11.72,3.86 23.69,8.29 35.14,13.1 3.34,1.41 8.6,3.02 9.9,5.86 0.23,0.5 0.41,1.03 0.55,1.57zm-332.67 188.84c0.53,-2.66 6.29,-15.95 7.75,-19.67l23.16 -57.56c5.23,-12.89 10.58,-25.85 15.67,-38.69 5.06,-12.75 10.76,-25.44 15.5,-38.35 4.92,-13.39 10.67,-25.4 15.82,-38.53 5.06,-12.9 10.35,-25.51 15.53,-38.31l31.51 -76.65c7.97,0.99 48.19,15.51 61.02,19.2 32.44,9.32 28.67,5.9 42.5,37.75 3.79,8.74 7.94,20.89 13.75,26.38 5.11,4.82 48,19.16 57.72,22.52 7.24,2.5 23.19,7.47 28.6,10.81 -0.69,6.95 -8.38,24.95 -11.24,31.46 -9.07,20.6 -15.99,40.42 -24.41,60.94 -4.04,9.84 -7.54,20.18 -11.85,30.31 -8.42,19.78 -15.31,40.87 -23.85,60.95 -4.32,10.15 -8.17,20.09 -12.35,30.3 -4.13,10.11 -7.57,20.51 -11.65,30.5 -12.37,30.38 -6.6,29.98 -31.62,20.37 -24.01,-9.22 -53.3,-19.35 -77.66,-27.97l-123.9 -45.76zm-17.04 -42.2l-5.85 0.02c1.24,-7.65 10.08,-25.29 13.4,-32.85 4.7,-10.66 8.93,-21.26 13.51,-32.22 9.05,-21.67 18.24,-42.46 27.22,-64.19 8.92,-21.58 17.53,-43.42 26.84,-64.59l20.38 -48.2c2.11,-4.9 3.15,-13.29 9.32,-13.28 0.64,-0.43 -0.52,-0.1 1.2,-0.54 1.23,-0.32 -0.51,-0.05 0.92,-0.16 0.98,-0.07 1.38,0.07 2.27,0.3l10.93 3.84c-0.94,8.18 -21.05,54.28 -25.61,64.79 -17.73,40.85 -34.88,85.82 -52.47,127.33 -4.49,10.58 -8.7,21.14 -13.22,31.99 -2.19,5.25 -4.4,10.45 -6.49,15.85 -2.05,5.3 -4.8,10.14 -6.22,16.02 -6.25,-0.76 -7.78,-3.92 -16.13,-4.11zm110.36 -259.99c-3.78,-0.33 -8.17,-0.33 -11.1,0.95 0.96,-2.59 2.36,-4.77 3.45,-7.78 0.93,-2.57 1.71,-5.28 3.04,-7.59 5.38,-9.33 10.76,-7.06 13.7,-7.19 6.17,0.82 7.03,1.75 11.53,3.69 -0.16,4.34 -5.92,18.37 -8.3,20.82 -4.58,-0.51 -6.5,-2.81 -12.32,-2.9zm-136.33 289.55c-6.15,-1.14 -25.35,-8.4 -32.52,-10.87 -30.59,-10.57 -63.46,-23.26 -94.12,-34.35 -20.97,-7.59 -41.94,-15.56 -62.93,-22.9 -32.95,-11.53 -36.63,-10.42 -28.64,-28.58l58.39 -134.6c12.4,-28.85 26.01,-61.2 38.84,-89.67 2.41,-5.33 10.82,-26.6 13.14,-29.41 4.57,0.88 10.83,3.2 15.55,4.62 24.01,7.22 52.69,16.65 76.27,24.81 8.16,2.82 21.65,9.56 31.08,8.04 7.28,-1.17 20.95,-9.81 27.51,-13.15 18.37,-9.36 15.39,-11.83 28.79,-7.11 4.35,1.53 55.93,19.97 58.99,21.77 -0.41,4.8 -29.53,72.39 -32.14,78.58 -10.77,25.68 -22.31,51.23 -32.74,77.45 -10.46,26.27 -22.45,52 -32.86,77.87 -5.34,13.28 -11.45,25.52 -16.38,38.98 -4.84,13.24 -11.39,25.33 -16.23,38.52zm82.79 -388.07c3.47,3.88 16.27,6.99 22.84,8.95 9.94,2.96 65.67,20.92 71.07,24.55 0.47,4.17 -13.49,41.48 -15.86,44.21 -4.22,-0.37 -13.69,-4.14 -17.72,-5.65l-49.66 -18.9c-6.27,-2.39 -29.28,-11.37 -35.23,-10.63 -5.49,0.68 -11.72,4.87 -15.68,7.27 -4.72,2.85 -9.51,5.35 -14.59,8.27 -16.16,9.27 -15.03,9.09 -34,2.66 -11.39,-3.86 -22.03,-7.97 -33.88,-11.85 -11.5,-3.76 -22.56,-7.51 -34.23,-11.47 -11.16,-3.79 -23.57,-7.33 -34.2,-11.53 0.43,-2.85 4.34,-11.45 5.66,-14.63 2.02,-4.87 3.94,-9.13 5.82,-14.02l17.41 -42c2.9,-6.67 5.04,-6.26 12.54,-3.78l89.21 29.62c11.82,3.99 50.58,18.69 60.5,18.93z"/>
    <path class="fil3" d="M626.84 335.31c-0.03,4.43 -6.97,19.17 -8.93,24.04l-28.13 69.37c-6.42,15.33 -12.5,31.06 -19.19,46.33 -6.65,15.2 -12.22,30.9 -18.54,46.48 -6.29,15.53 -12.43,30.94 -18.89,46.62 -10.41,25.28 -5.13,25.33 -36.19,13.39 -31.24,-12 -62.98,-23.3 -94.43,-35.58 -15.53,-6.07 -31.75,-12.16 -47.61,-17.92 -8.08,-2.93 -15.33,-5.98 -23.62,-8.87 -9.9,-3.45 -13.68,-2.07 -7.66,-18.78 5.68,-15.76 13.27,-31.02 18.86,-46.69 5.48,-15.35 12.45,-31.28 18.72,-46.27 12.77,-30.58 24.89,-62.83 37.59,-92.95 6.37,-15.08 12.76,-30.83 18.77,-46.27 1.94,-4.98 17.65,-44.63 18.84,-46.04 3.58,0.61 51.78,17 57.29,18.74 5.04,1.59 9.83,2.79 14.67,4.68 11.26,4.37 16.82,21.43 22.42,33.95 12.37,27.62 12.01,24.95 40.66,35.49 4.39,1.62 52.81,18.69 55.37,20.28zm3.1 0c0.81,-4.86 -0.02,-4.61 -3.85,-6.31 -13.07,-5.81 -40.26,-14.08 -55.38,-19.78 -11.59,-4.37 -21.52,-7.03 -26.98,-16.2 -5.3,-8.89 -9.84,-19.16 -14.29,-28.89 -2.05,-4.5 -5.02,-10.51 -7.56,-14.28 -7.74,-11.48 -28.7,-15.11 -44.23,-20.24 -10.63,-3.51 -22.13,-6.78 -32.49,-10.71 -11.52,-4.36 -12.28,-2.99 -14.62,2.31 -10.66,24.16 -21.12,51.93 -31.12,76.59 -8.35,20.59 -16.62,40.94 -24.75,61.59 -16.26,41.29 -33.42,81.98 -49.56,123.11 -2.11,5.38 -4.07,10.28 -6.3,15.55 -7.91,18.69 -5.3,18.61 27.25,29.72 21.31,7.28 41.63,15.67 62.89,23.44l94.14 35.38c19.86,7.38 22.24,8.58 27.66,-5.09 8.23,-20.73 16.6,-40.63 24.9,-61.43 4.1,-10.27 8.21,-20.48 12.51,-30.68 4.21,-9.99 8.08,-20.59 12.44,-30.72 12.63,-29.36 24.78,-62.56 37.4,-92.1 2.87,-6.71 10.93,-25.18 11.94,-31.26z"/>
    <path class="fil3" d="M548.67 459.56c-6.32,0.46 -24.83,-6.55 -29.44,-9.46 -0.23,-3.78 3.72,-16.43 6.08,-20.34 1.49,-2.45 2.22,-2.59 5.78,-1.67 4.29,1.12 8.7,3.24 13.08,4.74 3.99,1.36 9.55,2.61 12.6,5.08 -0.19,3.6 -6.14,19.14 -8.1,21.65zm-32.09 -10.47l-31.85 -11.24c0.4,-5.47 5.2,-19.31 8.07,-22.96 3.36,0.31 19.1,6.04 23.85,7.86 2.88,1.1 5.4,2.53 7.63,3.41l-7.7 22.93zm-34.13 -12.9c-5.55,0.03 -18.86,-6.08 -25.28,-8.39 -2.66,-0.96 -6.06,-1.96 -8.55,-3.1 0.13,-3.68 6.23,-19.62 7.78,-23.12 12.93,2.3 26.1,10.17 33.54,11.35 -0.1,5.53 -5.51,18.03 -7.49,23.26zm75.87 -1.15c-4.83,-0.23 -26.99,-8.29 -30.56,-10.34 1.15,-6.17 5.38,-18.64 8.21,-23.02 6.19,0.86 25.17,7.79 30.16,10.64 0.35,3.85 -5.86,20.08 -7.81,22.72zm-33.01 -11.9c-1.68,-0.02 -28.99,-9.31 -31.49,-10.48 -0.69,-2.49 6.86,-20.77 8.33,-23.3 2.13,0.13 28.4,9.11 31.12,10.46 -0.31,6.09 -5.49,18.34 -7.96,23.32zm-79.07 0.18l-30.81 -10.73 8.19 -22.63c5.28,0.67 11.16,3.02 15.92,4.75 4.55,1.64 10.23,3.65 14.61,5.62 -0.37,6.57 -6,17.1 -7.91,22.99zm44.53 -12.27c-5.09,-0.6 -28.11,-9.46 -32.88,-11.83l7.71 -22.48c7,-0.55 25.87,9.45 33.79,10.92 -0.35,6.41 -6.16,18.09 -8.62,23.39zm-77.11 0.22c-4.87,-0.59 -24.14,-7.67 -27.96,-9.93 0.64,-7.85 6.64,-15.56 8.01,-22.45l27.74 9.53c-1.1,8.72 -6.33,15.58 -7.79,22.85zm42.05 -12.6l-30.96 -11.06 8.88 -22.56c4.83,-0.09 25.6,7.98 30.14,10.39l-8.06 23.23zm-60.34 -22.2c0.25,-3.11 6.82,-18.22 8.55,-21.72 8.54,0.43 22.17,7.43 27.64,9.11l-8.24 22.19c-9.23,-0.83 -20.61,-6.13 -27.95,-9.58zm6.72 -22.92c0,0.01 -17.47,40.99 -18.19,45.77 -0.6,4.02 0.92,5.42 2.9,6.99 4.4,3.48 20.08,8.09 26.88,10.24 9.2,2.92 18.6,6.43 27.23,9.85 15.99,6.32 40.34,13.64 54.34,19.81 8.29,3.66 18.37,6.97 27.14,9.94 4.27,1.45 9.11,3.06 13.36,4.91 3.21,1.4 10.72,4.98 14.32,3.18 4.11,-2.04 8.94,-19.38 11.43,-25.26 2.19,-5.2 11.61,-24.21 5.44,-28.51 -2.21,-1.54 -9.89,-4.23 -12.9,-5.47 -10.58,-4.35 -29.77,-10.44 -41.24,-14.6 -16.06,-5.81 -39.34,-14.6 -54.63,-19.49 -9.02,-2.89 -18.47,-6.54 -27.26,-9.85 -4.6,-1.73 -8.74,-3.32 -13.3,-5 -1.92,-0.7 -10.94,-3.64 -13.19,-3.46 -3.27,0.26 -1.4,-0.11 -2.33,0.95z"/>
    <path class="fil3" d="M342.57 250.79c-0.99,6.21 -11.59,30.62 -14.63,37.99l-31.34 74.3c-12.34,29.43 -9.67,29.24 -22.94,24.31 -23.88,-8.87 -53.42,-18.72 -77.95,-27.22 -12.99,-4.51 -26.01,-9.07 -39.14,-13.66 -6.38,-2.23 -13.16,-4.31 -19.67,-6.74 -8.43,-3.14 -9.15,-5.45 -12.52,-13.93 -3.63,-9.13 -5.31,-9.62 -1.59,-19.73 2.32,-6.31 4.99,-12.56 7.59,-18.83l30.35 -75.28c10.61,-26.92 6.58,-24.08 26.85,-16.92 38.81,13.72 78.88,26.97 117.23,40.71 12.77,4.58 26.5,9.09 37.76,15zm-172.27 -61.8c-5.46,2.9 -14.13,28.6 -17.27,36.58 -5.12,13.03 -10.36,25.94 -15.58,38.75 -5.23,12.81 -10.07,25.49 -15.46,38.39 -3.99,9.57 -4.31,10.37 -0.59,20.59 7.29,20.03 8.57,19.05 28.91,25.31 7,2.15 13.68,4.43 20.11,6.83 31.82,11.87 67.72,23.59 100.4,35.2 7.5,2.66 14.04,7.28 18.47,-0.79 2.89,-5.26 5.78,-12.75 8.19,-18.74 12.81,-31.92 26.81,-63.44 39.84,-95.25 2.36,-5.78 5.87,-13.22 7.68,-19.2 2.57,-8.53 -7.18,-11.19 -13.3,-13.13 -46.34,-14.7 -93.42,-33.31 -140.29,-49.16 -3.8,-1.29 -17.5,-7.3 -21.11,-5.38z"/>
    <path class="fil3" d="M425.26 470.47c-5.24,0.29 -27.04,-8.33 -30.99,-10.55l8.53 -22.97c8.37,1.52 22.25,7.91 30,11.18 0.07,6 -5.57,17.2 -7.54,22.34zm-33.02 -11.63c-6.55,0.31 -20.66,-7.63 -28.1,-9.25 0.37,-4.81 6.5,-20.05 8.71,-23.26 6.05,1.12 22.21,7.06 27.85,9.7 -0.23,4.12 -6.34,19.7 -8.46,22.81zm35.05 16.06c2.33,-3.93 7.89,-17.09 8.46,-21.86 0.99,-8.46 -11.16,-10.65 -17.78,-12.84 -7.67,-2.55 -14.81,-5.4 -22.44,-8.07 -5.39,-1.88 -18,-7.9 -23.62,-7.32 -2.69,4.22 -8.23,15.53 -9.37,21.37 -1.79,9.1 10.86,10.89 17.73,13.28 7.96,2.77 40.3,16.39 47.02,15.44z"/>
    <path class="fil3" d="M265.72 102c-7.59,2.99 -4.11,15.35 4.78,12.51 2.76,-0.89 5.22,-4.89 4.16,-8.51 -1,-3.4 -4.98,-5.56 -8.94,-4z"/>
    <path class="fil3" d="M261.25 239.32c4.65,2.86 8.1,-0.98 5.5,-5.06 -2.03,-3.2 -6.85,-1.28 -5.5,5.06z"/>
    <path class="fil3" d="M237.91 231.18l5.29 -0.15c2.8,-9.26 -9.68,-9.03 -5.29,0.15z"/>
   </g>
  </g>
 </g>
</svg>
