<!-- Generated by IcoMoon.io -->
<svg version="1.1" xmlns="http://www.w3.org/2000/svg" width="32" height="32" viewBox="0 0 32 32">
<title>pokebola</title>
<path d="M14.217 2.694c7.121-1.055 14.127 3.895 15.107 11.563 1.032 8.078-4.584 14.132-11.509 15.058-8.116 1.084-14.102-4.74-15.118-11.551-1.168-7.832 4.978-14.102 11.521-15.071zM16.076 12.235c3.834-1.528 5.476 4.351 2.258 5.523-3.765 1.371-5.964-4.045-2.258-5.523zM16.433 12.759c-2.834 0.941-1.636 5.289 1.419 4.403 2.732-0.791 1.701-5.439-1.419-4.403zM16.415 13.487c-1.742 0.67-0.95 3.639 1.284 2.919 1.856-0.598 1.019-3.804-1.284-2.919zM4.616 18.484c-0.324 2.094 2.109 5.102 3.422 6.342 1.568 1.482 3.837 2.739 6.713 3.073 6.17 0.717 10.718-3.125 12.396-7.184 0.316-0.765 1.060-3.114 0.676-4.080-0.322-0.81-3.076-0.752-4.094-0.86-2.194-0.233-0.97 0.25-2.366 2.38-1.969 3.004-6.067 2.664-8.222 0.13-1.637-1.925-0.038-2.284-4.741-0.966-1.038 0.291-2.98 0.744-3.784 1.164zM4.136 15.020c1.905-0.243 4.578-1.044 6.555-1.52 2.211-0.532 1.145-0.296 2.179-1.768 1.85-2.634 6.377-2.527 8.263 0.191 0.704 1.015 0.937 0.779 2.875 1.046 0.589 0.081 1.146 0.171 1.781 0.243 0.328 0.037 0.665 0.095 0.984 0.13 0.488 0.054 0.433 0.122 0.802-0.090-0.466-0.617-2.026-0.652-3.283-0.852-2.336-0.372-2.039-0.13-2.906-1.311-1.188-1.616-3.406-2.437-6.219-1.749-1.164 0.285-1.932 0.808-2.601 1.506-1.046 1.093-0.365 1.295-2.358 1.865-1.148 0.329-2.070 0.586-3.198 0.901-1.313 0.367-2.333 0.413-2.874 1.409z"></path>
</svg>
