<!-- Generated by IcoMoon.io -->
<svg version="1.1" xmlns="http://www.w3.org/2000/svg" width="32" height="32" viewBox="0 0 32 32">
<title>poppers</title>
<path d="M14.033 3.399l-0.037 0.030c-0.062-0.021 0.001 0.001-0.064-0.047-0.026 0.098-0.002 0.005-0.068 0.023-0.018 0.005-0.036 0.021-0.096 0.015l-0.077 0.005c-0.022 0.005-0.014 0.005-0.044 0.008-0.143 0.014-0.592-0.023-0.656-0.001l-0.090 0.017c-0.002 0-0.007 0.001-0.009 0.002l-0.045 0.001c-0.070 0.002-0.014 0.028-0.155 0.031-0.034 0.001-0.053 0-0.086 0.003-0.111 0.011 0.013 0.033-0.23 0.022-0.14-0.006 0.095 0.029-0.269 0.042-0.015 0.001-0.029 0.001-0.042 0.002-0.115 0.005-0.137 0.047-0.271 0.029-0.121-0.016 0.045 0.034-0.122 0.034-0.014 0-0.036-0.001-0.049 0.001-0.12 0.016 0.021 0.032-0.214 0.029-0.089-0.002 0.007 0.023-0.137 0.041-0.088 0.010-0.183 0.021-0.271 0.079-0.068 0.045-0.002 0.015-0.094 0.041l-0.060 0.021c-0.002 0.001-0.006 0.003-0.007 0.005l-0.118 0.071c-0.080 0.064-0.194 0.183-0.234 0.287l-0.014 0.054c-0.014 0.145-0.017 1.103 0 1.301l-0.007 0.544c0.015 0.029-0.002 0.010 0.033 0.019l-0.050 0.033c0.025 0.037 0.002 0.021 0.050 0.033v0.034c-0.105 0.009 0.002-0.023 0.001 0.166l0.017 0.636c-0.001 0.078-0.013 0.072-0.018 0.135h0.034c-0.011 0.041 0.007 0.023-0.034 0.034 0.020 0.053-0.036 0.023 0.050 0.033-0.026 0.037-0.003 0.021-0.050 0.033l0.034 0.050-0.034 0.067c0.048 0.019 0.028-0.037 0.032 0.050 0.005 0.108-0.036-0.005-0.011 0.095 0.029 0.114 0.005 1.14 0.027 1.246l0.002 0.103c-0.008 0.050 0.003 0.039 0.008 0.074 0.001 0.004 0.002 0.027 0.001 0.031l-0.012 0.058c-0.013 0.15 0.081 0.189 0.099 0.295 0.008 0.049-0.054 0 0.021 0.054 0.048 0.045 0.018-0.011 0.039 0.046 0.022 0.058 0.011 0.029-0.005 0.054 0.045 0.062 0.044 0.006 0.082 0.119 0.043 0.128 0.006-0.027 0.080 0.17l0.007 0.015c0.015 0.027-0.006-0.011 0.014 0.021 0.001 0.001 0.004 0.005 0.005 0.007 0.048 0.071 0.031 0.074 0.040 0.101l0.025 0.048c0.017 0.041 0.001 0.006 0.010 0.044 0.001 0.002 0.001 0.007 0.002 0.010s0.002 0.007 0.002 0.010c0.013 0.034 0.024 0.020 0.030 0.060s-0.001 0.041-0.013 0.065c0.137 0.072 0.087 0.163 0.184 0.234 0.017 0.025 0.022 0.027 0.037 0.054l0.12 0.198c0.009 0.039-0.032-0.005 0.015 0.062 0.038 0.053 0.028 0.013 0.056 0.036 0.052 0.044 0.042 0.136 0.097 0.195 0.080 0.087 0.027 0.065 0.068 0.132 0.033 0.053 0.020 0.011 0.042 0.077 0.040 0.117-0.004 0.063 0.030 0.134 0.006 0.011 0.007 0.005 0.013 0.028l0.004 0.034c0.005 0.075 0.006 0.062-0.014 0.104l0.044 0.014c0.001 0.001 0.005 0.002 0.007 0.003 0 0.078 0 0.156 0.001 0.235l-0.044 0.29c-0.006 0.017-0.015 0.029-0.017 0.032-0.018 0.033-0.004-0.002-0.023 0.045l-0.098 0.253c-0.002 0.004-0.002 0.009-0.003 0.013-0.025 0.070-0.001 0.021-0.045 0.073-0.082 0.095 0.040 0.003-0.084 0.211l-0.013 0.023c-0.032 0.060-0.050 0.060-0.097 0.107l-0.024 0.026c-0.002 0.002-0.006 0.006-0.008 0.009-0.022 0.026-0.014 0.001-0.029 0.038-0.048 0.034-0.035 0.078-0.073 0.129-0.059 0.079-0.053 0.013-0.060 0.105l-0.033-0.018-0.085 0.168c-0.028 0.019-0.060 0.040-0.079 0.072-0.023 0.040-0.007 0.025-0.013 0.040-0.013 0.036 0.025 0.019-0.025 0.038l-0.067 0.067c-0.053 0.1-0.029-0.003-0.097 0.071-0.001 0.001-0.017 0.027-0.019 0.031-0.013 0.029-0.002 0.006-0.009 0.032-0.017 0.065-0.077 0.124-0.146 0.182-0.002 0.002-0.006 0.005-0.009 0.007-0.061 0.047-0.052 0.005-0.072 0.079-0.070 0.027-0.008-0.009-0.033 0.044l-0.023 0.052c-0.045 0.097-0.125 0.112-0.153 0.184l-0.037 0.051c-0.039 0.044 0 0.031-0.072 0.037l0.021 0.012c0.014 0.015 0.040-0.018-0.021 0.072-0.057 0.042-0.015 0.003-0.034 0.066-0.038 0.121-0.035 0.033-0.059 0.128-0.001 0.002-0.001 0.007-0.002 0.010s-0.001 0.007-0.002 0.010c-0.001 0.002-0.002 0.007-0.002 0.010l-0.029 0.066c-0.022 0.065-0.001 0.044-0.050 0.102l-0.073 0.109-0.009-0.044c0-0.001 0.008-0.045 0.009-0.056h-0.034c-0.047 0.203-0.037 0.783-0.034 1.054 0.001 0.074 0.010 0.101 0.018 0.168 0.015 0.129 0.003 0.074-0.018 0.133h0.067c0.025 0.105 0.009 0.145 0.012 0.281 0.001 0.053 0.005 0.113 0.005 0.171 0.001 0.026 0.002 0.061 0.001 0.085l-0.018 0.082 0.050 0.034c-0.026 0.037-0.002 0.021-0.050 0.033 0.045 0.061 0.053-0.007 0.050 0.184l0.001 1.084c0.013 0.056 0.021-0.006 0.009 0.048l-0.006 0.013c0 0.001-0.001 0.005-0.001 0.006 0.003 0.060 0.006-0.015 0.010 0.027 0.005 0.039-0.015 0.018-0.011 0.056 0.004 0.036 0.074 0.029-0.019 0.037 0.027 0.102 0.058-0.023 0.026 0.077-0.013 0.041-0.015-0.015-0.006 0.025l0.019 0.038c0.009 0.029 0.027 1.827 0.012 2.044-0.003 0.045-0.054 0.018 0.032 0.041v0.033c-0.088 0.007-0.030-0.016-0.050 0.034 0.101 0.053 0.031 0.030 0.053 0.299 0.010 0.117-0.021 0.187 0.009 0.31 0.019 0.079-0.007-0.053 0.006 0.020l-0.003 0.239c0 0.002-0.001 0.007-0.001 0.009s0 0.007 0 0.009l-0.001 0.157c0.045 0.22 0.030 0.579 0.037 0.833l-0.017 0.317c0.019 0.053-0.037 0.024 0.050 0.034-0.048 0.065-0.026 0.001-0.050 0.067 0.078 0.057 0.010 0.174 0.048 0.402l0.002 0.027c0 0.003-0.002 0.011-0.001 0.014 0.007 0.022-0.061-0.001 0.035 0.025-0.048 0.065-0.026 0.001-0.050 0.066 0.080 0.053 0.059 0.119 0.038 0.273-0.006 0.042 0.015 0.541 0 0.771l-0.001 0.022c0.003 0.059 0.017 0.040 0.046 0.056-0.026 0.037-0.003 0.021-0.050 0.033 0.038 0.052 0.097 0.041 0 0.067 0.037 0.056 0.042 0.022 0.050 0.1 0.018 0.166-0.022 0.616-0.018 0.737 0.002 0.077 0.013 0.073 0.017 0.136l-0.006 0.54c0.002 0.077-0.001 0.132 0.003 0.203 0.003 0.057 0.004 0.074-0.002 0.128-0.009 0.085-0.007 0.076 0.022 0.097-0.011 0.041 0.007 0.022-0.033 0.033l0.050 0.033c0 0.084-0.005 0.23 0.056 0.295 0.148 0.159-0.045 0.023 0.105 0.18 0.003 0.003 0.014 0.014 0.017 0.017 0.116 0.128 0.001 0.132 0.174 0.243 0.013 0.009 0.006 0.008 0.033 0.018 0.037 0.056 0.090 0.1 0.133 0.151 0.022 0.033 0.060 0.078 0.102 0.089 0.050 0.014 0.068-0.007 0.12 0.044l0.079 0.050c0.169 0.096 0.015 0.057 0.175 0.096 0.005 0.001 0.018 0.006 0.023 0.007 0.141 0.047 0.166 0.106 0.373 0.195l0.070 0.047c0.002 0.001 0.006 0.003 0.008 0.003l0.024 0.014c0.049 0.023 0.014 0.008 0.096 0.006l0.009 0.022c0.005 0.014-0.005-0.003 0.008 0.029 0.028-0.006 0.042-0.013 0.054-0.012 0.090 0.002 0.005-0.005 0.053 0.019 0.002 0.001 0.006 0.004 0.008 0.005l0.083 0.023c0.004 0.001 0.009 0.003 0.013 0.004l0.322 0.114c0.004 0.003 0.014 0.013 0.018 0.016l0.082 0.041c0.116 0.034-0.027 0.027 0.137 0.024l0.009 0.021c0.005 0.015-0.005-0.003 0.009 0.029 0.142-0.033 0.062 0.005 0.23 0.017l0.13 0.021c0.005 0.014-0.005-0.003 0.008 0.029 0.175-0.041 0.1 0.013 0.185 0.023 0.048 0.005 0.044-0.029 0.128 0.014 0.145 0.074 0.026-0.018 0.172 0.079l0.083-0.019c0.079 0.009 0.031-0.015 0.068 0.052l0.022-0.012c0.053-0.020 0.026-0.007 0.066-0.003l0.022 0.002c0.007 0.001 0.027-0.002 0.041-0.002 0.090 0.003 0.041 0.017 0.12 0.030 0.082 0.013 0.056-0.017 0.144 0.025l0.041 0.013c0.364-0.008 0.238 0.039 0.331 0.033 0.002 0 0.007-0.001 0.009-0.001s0.006-0.001 0.008-0.001 0.006 0 0.008 0.001l0.11 0.001 0.017 0.050h2.66c0.162 0.001 0.187-0.012 0.335 0v-0.050c0.088 0 0.21 0.019 0.251 0 0.029-0.040-0.010-0.019 0.141-0.038 0.084-0.011 0.181 0.004 0.187 0.004l0.024-0.003c0.19-0.069 0.099-0.023 0.155-0.027 0.013-0.001 0.001 0.025 0.023-0.020 0.001-0.001 0.002-0.007 0.003-0.007s0.001-0.006 0.002-0.009l0.138 0.004c0.001 0 0.006 0.001 0.007 0.001 0.026-0.006 0.018 0 0.022-0.038 0.074 0 0.12 0.013 0.151 0l0.009-0.034c0.074 0 0.076 0.006 0.125 0.017 0.013-0.023 0.009-0.019 0.017-0.050l0.581-0.135c0.064-0.017 0.064 0.036 0.072-0.049 0.066 0 0.068 0.005 0.117 0.017 0.025-0.048 0.040-0.064 0.095-0.085l0.060-0.009c0.041 0.001 0.025 0.005 0.079 0.010-0.021-0.097 0.131-0.069 0.167-0.084l0.017-0.017c0.004-0.002 0.010-0.009 0.011-0.005 0.003 0.005 0.014-0.007 0.024-0.010 0.014-0.005 0.041-0.013 0.052-0.015 0.057-0.015 0.038-0.004 0.058-0.029l0.009-0.013c0.069-0.065 0.132-0.032 0.148-0.027 0.054-0.111 0.005-0.046 0.117-0.1 0.048-0.066-0.018 0.014 0.078-0.054 0.159-0.112 0.107-0.057 0.149-0.077 0.029-0.014 0.019-0.045 0.086-0.059 0.023-0.005 0.034 0.002 0.049-0.006 0.031-0.018-0.004-0.011 0.006-0.038 0.128-0.060 0.015-0.007 0.1-0.066 0.145-0.1 0.1 0.021 0.134-0.068 0.003-0.002 0.009-0.009 0.010-0.006l0.030-0.023c0.127-0.121 0.057-0.033 0.16-0.122 0.001-0.001 0.004-0.003 0.005-0.005l0.437-0.407c0.003-0.002 0.006-0.006 0.009-0.008l0.058-0.059c0.108-0.095 0.053-0.101 0.149-0.22 0.013-0.016 0.023-0.026 0.040-0.044 0.043-0.048 0.018-0.009 0.030-0.050 0.003-0.013-0.002-0.019 0.013-0.057 0.048-0.117 0.041 0.025 0.046-0.089 0-0.002 0-0.007 0-0.009l0.011-0.305c-0.001-0.094-0.025-0.085 0.039-0.102l-0.050-0.033c0.025-0.037 0.002-0.021 0.050-0.033l-0.033-0.050c0.026-0.040 0.020-0.018 0.033-0.067h-0.033c0.011-0.041-0.007-0.022 0.033-0.033-0.019-0.053 0.037-0.024-0.050-0.034 0.025-0.037 0.002-0.021 0.050-0.033l-0.033-0.050 0.033-0.019c0.001-0.080-0.014-0.081-0.017-0.165-0.002-0.063 0.006-0.15 0.009-0.185l0.032-0.779c0.002-0.002 0.007-0.004 0.011-0.006-0.065-0.017-0.052-0.025-0.034-0.083l0.015-0.084c-0.014-0.291 0.034-0.841 0.025-1.151-0.003-0.1-0.003-0.159 0-0.259 0.001-0.040-0.006-0.059-0.002-0.125l0.003-0.241c-0.006-0.121-0.020-0.013 0.042-0.099-0.009-0.005-0.029-0.012-0.035-0.015-0.032-0.016-0.015-0.007-0.032-0.019 0.083-0.022 0.050-0.073 0.050-0.301l-0.001-0.252c0.013-0.132 0.040-0.021 0.040-0.12v-0.294c-0.004-0.215-0.029-0.109 0.045-0.22l-0.033-0.017c0.032-0.048 0.061-0.113-0.017-0.134 0.022-0.031 0.034-0.026 0.044-0.061 0.026-0.101-0.013-0.178-0.008-0.285l0.007-0.119c-0.014-0.076 0.024-0.148 0.009-0.254l-0.005-0.019c-0.001-0.003-0.003-0.007-0.003-0.010-0.053-0.207 0.052-0.444 0.040-0.656-0.005-0.097-0.021-0.223 0.001-0.336 0.038-0.204 0.003-0.148 0.013-0.225 0.010-0.082-0.006-0.078-0.003-0.137l0.014-0.296c-0.003-0.076-0.003-0.567 0.022-0.668 0.015-0.064-0.029-0.018-0.001-0.133 0.014-0.061-0.017-0.080 0-0.151l-0.004-0.069c-0.009-0.043-0.009-0.008-0.002-0.054 0.008-0.054 0.017-0.017 0.003-0.083-0.022-0.107 0.010-0.069 0.011-0.108l-0.006-0.131c0.001-0.002 0.003-0.007 0.003-0.009l-0.014-0.076c0-0.092 0.029-0.015 0.014-0.088-0.018-0.096 0.001-0.085 0.001-0.131 0-0.002-0.001-0.006-0.001-0.009-0.003-0.023-0.029-0.001-0.006-0.096 0.008-0.034 0.012-0.002 0.009-0.040-0.004-0.046-0.021-0.047-0.005-0.121l-0.005-0.195c-0.027-0.117 0.016-0.073 0.002-0.136l0.002-0.137c-0.002-0.007-0.013 0.015-0.010-0.051 0.002-0.084 0.027-0.027 0.015-0.088l-0.002-0.136c-0.006-0.042-0.007 0.033-0.012-0.046-0.003-0.054 0-0.021 0.008-0.053 0.009-0.034 0.013-0.001 0.009-0.040-0.005-0.059-0.002 0.025-0.014-0.045-0.007-0.045-0.006-0.013 0.002-0.054l0.010-0.032c0.001-0.002 0.001-0.007 0.001-0.009 0-0.038-0.019-0.054-0.011-0.093 0.001-0.004 0.003-0.009 0.004-0.012l-0.002-0.072c-0.022-0.093 0.005-0.077 0.009-0.098l-0.058-0.183c-0.012-0.057 0.002-0.081-0.018-0.122-0.018-0.035-0.009 0.006-0.010-0.031 0-0.080 0.049 0.038 0.002-0.031l-0.018-0.010c0-0.068-0.006-0.054 0.017-0.1-0.037-0.015-0.059-0.019-0.066-0.061l-0.017-0.056c0-0.080 0.013-0.18 0.010-0.207-0.006-0.064-0.021-0.048-0.030-0.072-0.022-0.054-0.003-0.062-0.022-0.113-0.021-0.057-0.063-0.089-0.064-0.168-0.001-0.057 0.007-0.129 0.007-0.226-0.017-0.007-0.023-0.005-0.027-0.007l-0.073-0.117c-0.016-0.061-0.183-0.211-0.226-0.288l-0.059-0.107-0.263-0.256c-0.066-0.105 0.081 0.027-0.075-0.125-0.003-0.002-0.006-0.006-0.009-0.009-0.108-0.104-0.056-0.098-0.121-0.146-0.025-0.037-0.046-0.055-0.080-0.088-0.082-0.078-0.050-0.048-0.074-0.111-0.027-0.071-0.022-0.043-0.061-0.090-0.046-0.056-0.013-0.045-0.046-0.089-0.183-0.25 0.061-0.011-0.129-0.236l-0.027-0.040c-0.026-0.046-0.030-0.072-0.052-0.116 0.013-0.024-0.022-0.067-0.035-0.117-0.022-0.088-0.027-0.671-0.025-0.792 0.001-0.069-0.007-0.111 0.060-0.129-0.012-0.049 0.002-0.024-0.034-0.050l0.060-0.173c0.003-0.022 0 0.002 0-0.028-0.001-0.123 0.050-0.165 0.085-0.308l0.016-0.050c0.004-0.014 0.007-0.029 0.011-0.041l0.061-0.156c0.002-0.003 0.005-0.007 0.007-0.009 0.067-0.088 0.013-0.010 0.049-0.117 0.048-0.141 0.055-0.183 0.13-0.189-0.062-0.092-0.030-0.024 0.050-0.134-0.007-0.009-0.047-0.002 0.012-0.086 0.006-0.010 0.022-0.026 0.033-0.037l0.046-0.068c0.030-0.117 0.090-0.095 0.139-0.18l0.114-0.196c0.057-0.059 0.094-0.145 0.153-0.209 0.050-0.055 0.074-0.257 0.073-0.329-0.001-0.089-0.035-0.162-0.001-0.234l-0.044-0.031c-0.001-0.001-0.005-0.001-0.007-0.002 0.002-0.093-0.004-0.081 0.050-0.1-0.026-0.037-0.003-0.021-0.050-0.034 0-0.088-0.018-0.082 0.050-0.1-0.007-0.025-0.085-0.078-0.032-0.133 0.018-0.019-0.003-0.007 0.032-0.017-0.026-0.037-0.003-0.021-0.050-0.033 0.077-0.115 0.034-0.297 0.033-0.435 0-0.182 0.017-0.323 0.017-0.519l0.001-2.41c-0.002-0.16-0.025-0.35-0.017-0.519 0.002-0.054 0.011-0.079 0.009-0.097s0.010-0.005-0.014-0.023l-0.029-0.011c0-0.128-0.034-0.092 0.017-0.168l-0.117-0.116c-0.025-0.035 0.004-0.010-0.027-0.026-0.070-0.037-0.053-0.014-0.090-0.092-0.049 0.023-0.062 0.026-0.12 0.005l-0.058-0.029c-0.003-0.002-0.007-0.005-0.010-0.006-0.052-0.033-0.18-0.030-0.262-0.057-0.025-0.009-0.023-0.011-0.034-0.016-0.062-0.032-0.161-0.003-0.232-0.018-0.061-0.013-0.044-0.023-0.135-0.025-0.004 0-0.009-0.001-0.012-0.001l-0.125-0.004c-0.021-0.051 0.023-0.031-0.033-0.050v0.050h-0.050c-0.005-0.052-0.002-0.031-0.027-0.035l-0.017 0.001c-0.063-0.005-0.192 0.016-0.265-0.025-0.101-0.057-0.45 0.007-0.628-0.008-0.064-0.006-0.052-0.017-0.108-0.024l-0.089-0.014c-0.035-0.019 0.035-0.030-0.079-0.020-0.139 0.012-0.356 0.009-0.527 0.009-0.030-0.113-0.117-0.072-0.211-0.074h-1.336c-0.787 0.018-1.598 0.002-2.394 0.001-0.082 0-0.223-0.034-0.243 0.039-0.029 0-0.048 0.003-0.074-0.005-0.093-0.027 0.063 0.006-0.043-0.029-0.018 0.046 0.010 0.016-0.037 0.030-0.040 0.013-0.148 0.023-0.181 0.003z"></path>
</svg>
