<!-- Generated by IcoMoon.io -->
<svg version="1.1" xmlns="http://www.w3.org/2000/svg" width="32" height="32" viewBox="0 0 32 32">
<title>preguntas</title>
<path d="M23.305 5.149c0 0.74-0.37 1.337-1.11 1.791-0.645 0.406-1.361 0.609-2.149 0.609-0.621 0-1.146-0.227-1.576-0.68s-0.645-0.991-0.645-1.611c0-0.573 0.197-1.164 0.591-1.773s0.854-0.913 1.379-0.913c0.454 0 1.039 0.274 1.755 0.824 0.883 0.692 1.444 1.086 1.683 1.182 0.048 0.191 0.072 0.382 0.072 0.573zM25.132 13.786c0 1.367-1.289 2.847-3.868 4.452-0.454 0.263-2.841 1.504-7.162 3.73-2.578 1.319-3.868 2.322-3.868 3.014 0 0.651 0.561 1.152 1.683 1.51 0.812 0.263 1.635 0.394 2.471 0.394 1.194 0 2.358-0.251 3.492-0.758 1.134-0.501 2.011-1.224 2.632-2.161 0.31-0.645 0.621-1.295 0.931-1.946 0.478-0.985 0.884-1.474 1.218-1.474 0.382 0 0.686 0.173 0.913 0.519s0.34 0.722 0.34 1.128c0 2.22-0.979 4.023-2.937 5.407-1.767 1.218-3.808 1.826-6.124 1.826-3.199 0-5.586-0.931-7.162-2.793-0.549-0.645-0.824-1.241-0.824-1.791 0-1.289 1.289-2.71 3.868-4.261 2.387-1.217 4.775-2.447 7.162-3.689 2.578-1.337 3.868-2.411 3.868-3.223 0-0.477-0.262-0.859-0.788-1.146-0.406-0.215-0.871-0.322-1.397-0.322-1.146 0-2.363 0.406-3.653 1.218-0.072 0.048-0.191 0.119-0.358 0.215l-0.036-0.072c0.287-0.979 0.871-1.755 1.755-2.328s1.85-0.859 2.901-0.859 2.101 0.299 3.151 0.895c1.194 0.698 1.791 1.534 1.791 2.513z"></path>
</svg>
