<!-- Generated by IcoMoon.io -->
<svg version="1.1" xmlns="http://www.w3.org/2000/svg" width="32" height="32" viewBox="0 0 32 32">
<title>pregunta</title>
<path d="M25.046 6.948c0 1.284-1.284 2.698-3.85 4.243-2.377 1.212-4.765 2.424-7.166 3.637-2.567 1.331-3.85 2.412-3.85 3.244 0 0.475 0.261 0.856 0.784 1.141 0.404 0.214 0.867 0.321 1.39 0.321 0.784 0 1.492-0.154 2.121-0.463s1.254-0.63 1.872-0.963l0.036 0.071c-0.309 0.975-0.903 1.747-1.783 2.317s-1.842 0.856-2.888 0.856c-1.046 0-2.080-0.297-3.102-0.891-1.188-0.671-1.783-1.492-1.783-2.466 0-1.385 1.283-2.858 3.85-4.433 0.38-0.238 2.757-1.462 7.13-3.678 2.567-1.313 3.85-2.324 3.85-3.036 0-0.648-0.547-1.147-1.64-1.503-0.808-0.262-1.628-0.392-2.46-0.392-1.188 0-2.329 0.238-3.422 0.719-1.188 0.523-2.080 1.254-2.674 2.187-0.309 0.642-0.618 1.289-0.927 1.937-0.475 0.98-0.879 1.468-1.212 1.468-0.38 0-0.689-0.178-0.927-0.535s-0.357-0.737-0.357-1.141c0-2.21 0.986-3.993 2.959-5.348 1.735-1.212 3.755-1.818 6.061-1.818 3.185 0 5.573 0.927 7.166 2.781 0.547 0.642 0.82 1.224 0.82 1.747zM14.065 26.556c0 0.57-0.178 1.129-0.535 1.676-0.38 0.642-0.844 0.963-1.39 0.963-0.452 0-1.034-0.273-1.747-0.82-0.903-0.689-1.462-1.081-1.676-1.177-0.047-0.19-0.071-0.38-0.071-0.57 0-0.737 0.368-1.331 1.105-1.783 0.618-0.404 1.319-0.606 2.103-0.606 0.618 0 1.141 0.232 1.569 0.695s0.642 1.004 0.642 1.622z"></path>
</svg>
