<!-- Generated by IcoMoon.io -->
<svg version="1.1" xmlns="http://www.w3.org/2000/svg" width="32" height="32" viewBox="0 0 32 32">
<title>refresh</title>
<path d="M2.781 19.655c2.363 8.35 12.125 12.379 19.791 7.763 2.209-1.33 4.684-3.921 5.617-6.865 0.036-0.151 0.010-0.146 0.073-0.306 0.141-0.361 0.108-0.212 0.18-0.312-0.096-2.233-1.788-2.086-2.398-1.698-1.156 0.735-1.404 5.211-6.627 7.225-5.596 2.157-10.517-0.757-12.607-4.376-4.208-7.286 1.695-15.878 9.608-15.264 2.569 0.199 5.227 1.545 6.358 2.917-0.551 1.054-3.752 2.718-1.092 3.244l5.81 1.193c0.825 0.169 1.57 0.511 2.208 0.116 0.166-0.547-1.436-8.608-1.805-8.837-0.907-0.562-1.875 1.53-2.852 2.010-1.928-1.584-3.059-2.582-5.817-3.354-2.633-0.736-5.595-0.574-8.042 0.266-6.726 2.311-10.27 9.69-8.405 16.278z"></path>
</svg>
