<!-- Generated by IcoMoon.io -->
<svg version="1.1" xmlns="http://www.w3.org/2000/svg" width="32" height="32" viewBox="0 0 32 32">
<title>regresar</title>
<path fill="#000" d="M15.529 24.62c0.222-0.852-0.068-4.087 0.093-5.087 0.212-0.070 2.197-0.033 2.638 0.014 0.089 0.010 0.116 0.014 0.204 0.032l0.125 0.048c1.356-0.025 3.509 0.359 4.726 0.747 1.415 0.451 2.705 1.128 3.624 1.898 2.129 1.786 1.846 3.074 2.783 2.643 0.826-0.379-0.142-3.791-0.42-4.474-1.872-4.588-6.8-6.902-11.37-7.93-0.762-0.171-1.561-0.26-2.291-0.418 0.001-0.494 0.065-4.45-0.060-4.747-0.19-0.455-0.672-0.413-1.058-0.15-1.269 0.864-2.5 1.683-3.776 2.546-2.548 1.723-5.022 3.382-7.555 5.088-0.32 0.215-0.659 0.419-0.954 0.644-1.002 0.761 0.841 1.587 1.904 2.307l10.416 7.018c0.293 0.194 0.944 0.281 0.968-0.18z"></path>
<path fill="#747474" d="M15.529 24.62c0.267-0.212 0.144-0.905 0.144-1.253l-0.002-3.81 2.918 0.071-0.125-0.048c-0.088-0.018-0.115-0.022-0.204-0.032-0.441-0.048-2.426-0.084-2.638-0.014-0.161 0.999 0.128 4.235-0.093 5.087z"></path>
</svg>
