<!-- Generated by IcoMoon.io -->
<svg version="1.1" xmlns="http://www.w3.org/2000/svg" width="32" height="32" viewBox="0 0 32 32">
<title>renta-de-carros</title>
<path d="M21.853 12h-11.707c-0.573 0-1.080 0.373-1.267 0.907l-2.213 6.667v9.080c0 0.387 0.307 0.68 0.667 0.68h1.333c0.373 0 0.667-0.293 0.667-0.667v-2h13.333v2c0 0.373 0.293 0.667 0.667 0.667h1.333c0.373 0 0.667-0.293 0.667-0.667v-9.080l-2.213-6.667c-0.187-0.547-0.693-0.92-1.267-0.92zM10.373 24c-0.907 0-1.627-0.72-1.627-1.627s0.72-1.627 1.627-1.627 1.627 0.733 1.627 1.627-0.72 1.627-1.627 1.627zM21.627 24c-0.893 0-1.627-0.72-1.627-1.627s0.72-1.627 1.627-1.627 1.627 0.72 1.627 1.627-0.72 1.627-1.627 1.627zM8.387 18.667l1.773-5.333h11.707l1.773 5.333h-15.253z"></path>
<path d="M14.44 4c-0.56-1.56-2.040-2.667-3.773-2.667-2.213 0-4 1.787-4 4 0 2.2 1.787 4 4 4 1.733 0 3.213-1.12 3.773-2.667h6.893v2.667h2.667v-2.667h1.333v-2.667h-10.893zM10.667 6.667c-0.733 0-1.333-0.6-1.333-1.333s0.6-1.333 1.333-1.333 1.333 0.6 1.333 1.333-0.6 1.333-1.333 1.333z"></path>
</svg>
