<!-- Generated by IcoMoon.io -->
<svg version="1.1" xmlns="http://www.w3.org/2000/svg" width="32" height="32" viewBox="0 0 32 32">
<title>repliit</title>
<path d="M5.427 10.277c0.415 0.264 1.82 0.305 2.965 1.268 2.38 2.001 1.571 6.317-1.222 7.181-0.231 0.072-0.188 0.033-0.425 0.121-0.040 0.015-0.156 0.069-0.19 0.084l-0.173 0.1c1.679 0 2.713-0.181 3.769-0.871 1.636-1.068 1.688-2.327 1.688-4.053 0-2.026-4.095-4.731-6.412-3.829z"></path>
<path d="M0.924 17.799c0 0.656 0.455 1.256 0.76 1.7 0.392 0.566 0.776 0.88 1.322 1.274 1.055 0.759 2.156 1.13 3.921 1.13-0.354-0.486 0.021-0.122-0.61-0.346-0.289-0.102-0.533-0.181-0.796-0.296-3.718-1.629-3.644-7.111 0.714-7.985 0.040-0.009 0.077-0.014 0.114-0.023l0.306-0.104c-3.153-0.736-5.731 0.933-5.731 4.65z"></path>
<path d="M0.514 16.294c0 0.385 0.060 0.254 0.273 0.411 0.041-1.863 1.875-4.24 4.366-4.24 2.094 0 4.093 1.533 4.093 3.693h0.137c0-2.12 0.052-4.32-2.434-5.219-2.159-0.781-3.764-0.38-5.19 1.543-0.719 0.97-1.245 2.153-1.245 3.813z"></path>
<path d="M7.746 19.577c-1.657 0-3.646-1.084-4.056-2.91-0.129-0.577 0.044-0.374-0.31-0.783 0 2.004 0.014 3.097 1.015 4.179 0.772 0.833 2.215 1.429 3.76 1.429 0.924 0 2.292-1.149 2.928-1.99 0.798-1.058 1.166-2.093 1.166-3.891-0.442 0.325-0.14-0.018-0.364 0.592-0.145 0.397-0.152 0.463-0.314 0.78-0.723 1.423-2.193 2.594-3.824 2.594z"></path>
<path d="M4.745 15.884c0 2.651 3.275 1.894 3.275 0.547 0-1.065-0.091-2.051-1.774-2.051-0.797 0-1.5 0.705-1.5 1.504z"></path>
<path d="M21.117 16.568c0-1.468 2.456-2.161 2.456 0.274 0 1.484-2.456 1.585-2.456-0.274zM21.117 15.201v-0.41h-0.546v5.197h0.546v-1.915c3.319 2.228 4.447-3.419 1.228-3.419-0.515 0-0.91 0.334-1.228 0.547z"></path>
<path d="M19.343 16.294h-2.456c0.146-0.628 0.604-1.035 1.228-1.037 0.785-0.002 0.924 0.461 1.228 1.037zM16.205 16.431c0 2.282 2.552 3.101 3.684 0.957-1.487 0-0.407 0.547-1.91 0.547-0.747 0-0.952-0.495-1.092-1.094h3.138c-0.050-2.233-2.156-2.714-3.183-1.687-0.292 0.293-0.637 0.754-0.637 1.276z"></path>
<path d="M29.985 14.38c0 0.486-0.266 0.411-0.819 0.411v0.546h0.819v3.146h0.546v-3.146c0.939 0 0.904 0.065 0.955-0.546-1.069 0-0.955 0.139-0.955-1.368h-0.546v0.957z"></path>
<path d="M24.937 18.483h0.682v-5.197h-0.682z"></path>
<path d="M14.568 15.337v-0.546h-0.682v3.692h0.682c0-1.483-0.274-3.109 1.365-3.146v-0.684c-0.917 0.077-0.816 0.315-1.365 0.684z"></path>
<path d="M28.075 18.483h0.546v-3.692h-0.546z"></path>
<path d="M26.165 17.252h0.682v0.547h-0.682v0.821c0.821 0 0.803 0.037 0.819-0.684h0.546v-0.821h-0.546c-0.016-0.72 0.002-0.684-0.819-0.684v0.821z"></path>
<path d="M27.939 13.832c0 0.413 0.818 0.975 0.818-0.41-0.553 0-0.818-0.076-0.818 0.41z"></path>
</svg>
