<!-- Generated by IcoMoon.io -->
<svg version="1.1" xmlns="http://www.w3.org/2000/svg" width="32" height="32" viewBox="0 0 32 32">
<title>rifa-one</title>
<path d="M3.807 17.329c0.103-0.593 0.472-1.434 0.727-1.898 0.783-1.419 1.722-1.817 0.901-2.451-0.262-0.202-0.468-0.396-0.573-0.761-0.082-0.289-0.137-0.925-0.048-1.223 0.876-2.944 16.88-2.82 18.605-0.65 0.299 0.377 0.19 1.113-0.124 1.549-0.088 0.122-0.247 0.252-0.259 0.422-0.032 0.448 0.856 1.393 1.050 1.598 0.802 0.846 1.759 2.143 1.972 3.34 0.501 1.297 0.522 4.188 0.219 5.641-0.348 1.677-1.031 3.17-2.059 4.219-2.306 2.356-5.225 3.123-9.236 3.28-1.862 0.073-4.041-0.159-5.608-0.662-3.37-1.082-5.244-3.257-5.785-6.747-0.259-1.679-0.226-4.096 0.218-5.658zM13.178 9.305c2.588-0.141 7.571 0.202 9.291 1.358 1.673 1.124-1.127 2.050-2.108 2.231-1.622 0.298-3.053 0.529-4.785 0.563-2.338 0.047-7.514-0.080-9.352-1.378-1.612-1.139 1.15-2.003 2.155-2.208 2.142-0.437 2.633-0.448 4.799-0.566zM10.565 21.127c-0.064-0.163-0.176-0.218-0.188-0.419-0.033-0.546 0.494-0.745 1.083-0.611 0.922 0.21 0.945 0.959 0.365 1.242 0.058 0.18 0.207 0.203 0.23 0.484 0.047 0.59-0.432 0.9-1.183 0.734-1.108-0.246-0.961-1.218-0.308-1.429zM4.452 20.386c0.111-0.129 0.245-1.874 2.191-2.395 0.671-0.179 1.432-0.030 1.933 0.247 0.546 0.302 0.81 0.553 1.165 1.131 0.133-0.007 0.049 0.012 0.188-0.071 1.019-0.61 2.064-0.64 3.081-0.001 0.669 0.42 1.113 1.16 1.237 1.928 0.061 0.382-0.030 0.7 0 0.992 0.336-0.12 0.463-0.151 0.868-0.224 0.019-0.822-0.179-1.004 0.357-1.984 0.61-1.116 2.036-1.655 3.309-1.243 0.363 0.117 0.844 0.419 1.1 0.686 0.101 0.106 0.19 0.258 0.302 0.337 0.121-0.058 0.137-0.127 0.23-0.224 1.085-1.128 3.013-1.196 4.203 0.241 0.26 0.314 0.243 0.479 0.415 0.586 0.006-0.854-0.236-1.797-0.51-2.459-0.308-0.744-0.781-1.158-1.231-1.741-1.032-1.334-1.122-2.803-0.325-4.402 0.15-0.301 0.462-0.677 0.22-1.066-0.97-1.561-7.091-1.794-8.651-1.754-1.865 0.048-3.78 0.031-5.55 0.368-1.226 0.234-3.909 0.787-3.858 2.086 0.048 1.22 0.845 1.429 1.045 1.896 0.148 0.345-0.243 0.726-0.393 1.012-0.77 1.47-1.246 2.879-1.345 4.593-0.032 0.547 0.004 0.953 0.019 1.46zM12.998 28.733c0.29 0.017 0.572 0.041 0.858 0.081 0.254 0.036 0.609 0.026 0.907 0.029-0.021-0.164-0.128-0.186-0.219-0.341-0.539-0.929-0.329-0.899-0.469-1.209-0.183 0.023-0.17 0.37-0.474 0.765-0.152 0.199-0.256 0.332-0.444 0.483-0.124 0.101-0.116 0.057-0.16 0.192zM16.431 24.409c-1.328 0.182-2.136 1.117-2.047 2.465 0.125 1.909 2.69 2.768 3.953 1.235 0.399-0.484 0.589-0.974 0.531-1.721-0.085-1.105-1.219-2.147-2.437-1.979zM23.082 19.188c-0.022 0.409-0.062 0.615-0.186 0.965-0.115 0.325-0.275 0.637-0.012 0.891 0.457 0.039 0.414-0.173 0.388-0.522 0.108-0.080 0.442-0.275 0.592-0.29 0.445 0.968-0.801 1.425-1.116 1.408-0.374-0.021-0.64-0.341-0.637-0.747 0.003-0.454 0.274-0.749 0.297-1.11-0.113 0.028-0.748 0.46-0.849 0.53-0.095-0.080-0.263-0.328-0.292-0.46 0.229-0.195 0.789-0.511 1.066-0.71 0.128-0.092 0.086-0.035 0.129-0.15-2.895-0.241-3.513 3.549-0.925 4.402 1.866 0.615 3.5-1.533 2.645-3.157-0.211-0.401-0.631-0.93-1.1-1.052zM22.972 24.311c0.008 0.151 0.162 0.331 0.247 0.76 0.073 0.366 0.055 0.601 0.045 0.987 0.397-0.192 1.543-2.373 1.518-2.997-0.174 0.282-0.458 0.548-0.736 0.765-0.136 0.105-0.333 0.206-0.495 0.285-0.197 0.096-0.404 0.118-0.58 0.2zM18.153 24.459c0.547 0.294 0.907 0.633 1.185 1.14 0.304 0.553 0.411 1.033 0.344 1.672l-0.007 0.155c0.041 0.337 1.525 0.249 2.261-0.659 0.507-0.624 0.715-1.548 0.309-2.4-0.722-0.183-0.546-0.027-1.285-0.426-0.266-0.144-0.699-0.53-0.868-0.834-0.495-0.024-0.982 0.202-1.248 0.422-0.222 0.184-0.68 0.629-0.691 0.93zM15.551 21.995c1.112 0.121 1.62 0.558 2.217 1.346 0.61 0.084 1.346-0.436 1.706-0.928 0.33-0.452-0.016-0.595 0.198-1.519 0.074-0.322 0.18-0.349 0.017-0.694-0.182-0.38-0.464-0.742-0.817-0.966-1.87-1.189-4.187 0.678-3.32 2.76zM12.903 24.088c0.081 0.151 0.523 0.364 0.822 0.92 0.294 0.547 0.29 0.658 0.416 1.331 0.084-0.34 0.21-0.631 0.394-0.917 0.324-0.501 0.917-0.967 1.515-1.151 0.479-0.147 0.76-0.113 1.27-0.106-0.008-1.038-1.433-2.393-3.013-1.793-0.202 0.077-0.154 0.188-0.398 0.647-0.377 0.711-0.821 0.84-1.007 1.069zM8.647 21.921c0.045-0.389 0.001-0.599 0.098-0.973 0.087-0.333 0.191-0.544 0.336-0.786 0.139-0.234 0.215-0.276-0.054-0.78-0.124-0.233-0.299-0.484-0.482-0.635-0.422-0.347-0.894-0.622-1.629-0.581-0.649 0.036-1.208 0.309-1.544 0.704-1.482 1.741 0.067 3.651 1.175 3.745 0.221 0.019 0.239-0.084 0.381-0.188 0.483-0.356 0.998-0.456 1.719-0.506zM8.464 26.67c0.057-0.164 0.027-0.476 0.064-0.677 0.041-0.221 0.136-0.43 0.078-0.615-0.159-0.507-0.215-0.704-0.218-1.319-0.145 0.013-0.825 0.582-0.951 0.676l-0.34-0.417c0.045-0.093 1.415-1.168 1.566-1.205 0.362 0.27 0.235 0.522 0.229 0.715-0.013 0.334 0.056 0.631 0.135 0.903 0.219-0.090 0.364-0.466 0.88-0.716-0.111-0.115-0.232-0.195-0.384-0.338-0.407-0.381-0.67-0.882-0.812-1.457-0.862-0.098-1.353 0.032-1.886 0.476-0.438 0.364-0.767 0.881-0.807 1.616-0.076 1.376 1.097 2.487 2.448 2.36zM10.994 19.092c-0.687 0.1-1.146 0.325-1.503 0.772-0.822 1.029-0.673 2.41 0.232 3.165 0.401 0.336 1.001 0.629 1.668 0.547 0.648-0.080 1.151-0.333 1.506-0.757 0.337-0.403 0.633-0.978 0.552-1.69-0.152-1.324-1.303-2.204-2.453-2.037zM10.986 21.463c-0.39 0.133-0.266 0.79 0.153 0.687 0.387-0.096 0.318-0.848-0.153-0.687zM11.137 20.539c-0.346 0.259 0.018 0.644 0.306 0.459s-0.004-0.686-0.306-0.459zM5.809 25.572c0.002-0.188-0.066-0.403-0.083-0.594-0.084-0.944 0.29-1.375 0.376-1.671-0.112-0.131-0.805-0.397-1.204-1.104-0.081-0.143-0.195-0.417-0.278-0.492 0.004 0.971 0.665 3.395 1.189 3.86zM10.042 24.126c-0.47 0.159-0.891 0.663-1.079 1.121-0.824 2.010 1.338 3.797 3.060 2.905 0.988-0.512 1.661-1.758 1.066-2.989-0.117-0.243-0.265-0.458-0.463-0.654-0.468-0.464-0.558 0.186-1.814-0.124-0.141-0.035-0.293-0.081-0.417-0.137-0.069-0.032-0.104-0.057-0.168-0.090-0.153-0.081-0.152-0.042-0.186-0.030zM13.68 10.025l-2.349 0.080c-0.739 0.054-1.512 0.115-2.233 0.218-0.577 0.082-4.218 0.599-2.771 1.433 1.553 0.896 6.791 0.998 8.739 0.98 1.486-0.013 3.121-0.084 4.557-0.298 0.396-0.060 4.245-0.606 2.773-1.441-0.971-0.552-2.905-0.672-4.069-0.81-0.739-0.088-1.515-0.098-2.261-0.144-0.393-0.024-2.043-0.064-2.386-0.017z"></path>
<path d="M21.147 1.055c1.6-0.254 2.936 1.066 3.114 2.446 0.111 0.852-0.21 1.61-0.652 2.141-1.595 1.912-4.684 0.898-4.938-1.448-0.131-1.213 0.486-2.301 1.423-2.806 0.422-0.227 0.516-0.249 1.053-0.334zM20.8 1.302c-1.248 0.301-2.015 1.286-1.815 2.601 0.175 1.15 1.25 2.026 2.578 1.849 0.597-0.080 1.084-0.434 1.419-0.846 0.359-0.442 0.525-1.035 0.444-1.749-0.12-1.054-1.35-2.161-2.625-1.854z"></path>
<path d="M20.509 2.599l0.585 0.231c0.092-0.226 0.376-0.36 0.511-0.121 0.064 0.113 0.021 0.257-0.053 0.321-0.121 0.106-0.212 0.058-0.373 0.072-0.045 0.162-0.108 0.295-0.091 0.451 0.187 0.003 0.338 0.016 0.408 0.156 0.073 0.148 0.029 0.342-0.049 0.442-0.088 0.111-0.419 0.293-0.557-0.174-0.062-0.207-0.294-0.199-0.682-0.172-0.073 0.856 1.523 1.319 1.936 0.448 0.066-0.141 0.095-0.32 0.046-0.491-0.054-0.191-0.169-0.206-0.266-0.347 0.198-0.178 0.408-0.227 0.384-0.589-0.049-0.751-1.622-0.929-1.8-0.227z"></path>
<path d="M9.321 7.48l-1.283 0.81-1.845-2.898h-0.107v2.753h-1.516v-6.937h1.488v0.232c0.675-0.006 1.246 0.182 1.715 0.567 0.467 0.383 0.701 0.845 0.701 1.388 0 0.496-0.208 0.965-0.625 1.402-0.047 0.039-0.102 0.081-0.166 0.126l1.639 2.557zM6.85 3.691c0.090-0.103 0.135-0.226 0.135-0.367 0-0.155-0.054-0.301-0.165-0.44s-0.364-0.208-0.762-0.208v1.227c0.328 0 0.593-0.071 0.792-0.212zM10.666 2.633c0 0.17-0.060 0.314-0.179 0.434s-0.262 0.18-0.43 0.18-0.311-0.060-0.43-0.18c-0.119-0.119-0.179-0.264-0.179-0.434s0.060-0.312 0.179-0.428c0.119-0.117 0.262-0.175 0.43-0.175s0.31 0.058 0.43 0.175c0.119 0.116 0.179 0.259 0.179 0.428zM10.705 8.261h-1.256v-4.502h1.256v4.502zM15.053 3.188l-0.932 0.689-0.325-0.484c-0.013-0.019-0.050-0.066-0.111-0.142-0.061-0.074-0.163-0.166-0.304-0.275-0.089-0.052-0.166-0.026-0.23 0.077-0.039 0.052-0.076 0.351-0.111 0.899s-0.057 1.076-0.063 1.585h0.831v1.179h-0.831c0.013 1.025 0.048 2.174 0.106 3.449l-1.14 0.058c-0.058-1.346-0.093-2.516-0.107-3.508h-0.763v-1.179h0.763c0.026-1.771 0.151-2.821 0.377-3.15 0.283-0.425 0.621-0.637 1.015-0.637 0.283 0 0.573 0.106 0.869 0.318 0.245 0.18 0.454 0.396 0.628 0.648l0.328 0.473zM18.744 7.952v0.56l-1.034-0.048v-0.242c-0.815 0.013-1.427-0.187-1.834-0.599-0.343-0.354-0.514-0.815-0.514-1.381 0-0.94 0.734-1.443 2.203-1.507-0.013-0.058-0.026-0.103-0.039-0.135-0.174-0.18-0.373-0.271-0.599-0.271-0.18 0-0.351 0.061-0.512 0.184l-0.419 0.314-0.635-0.818 0.425-0.317c0.341-0.264 0.722-0.396 1.14-0.396 0.522 0 0.97 0.196 1.343 0.589 0.335 0.348 0.502 1.298 0.502 2.85 0 0.348-0.009 0.754-0.029 1.218zM17.729 7.188c0.007-0.541-0.003-1.018-0.029-1.43-0.87 0.032-1.305 0.194-1.305 0.483 0 0.657 0.444 0.972 1.333 0.947z"></path>
</svg>
