<!-- Generated by IcoMoon.io -->
<svg version="1.1" xmlns="http://www.w3.org/2000/svg" width="32" height="32" viewBox="0 0 32 32">
<title>scruff</title>
<path fill="#6d6d6d" d="M15.874 13.12l0.235-0.281-0.509-0.046c-0.24 0.15-0.096 0.151-0.098 0.231l0.372 0.096z"></path>
<path fill="#6d6d6d" d="M16.408 13.427l0.002-0.346-0.35 0.018c0.053 0.061 0.085 0.199 0.112 0.221 0.074 0.062-0.042 0.048 0.236 0.107z"></path>
<path fill="#929292" d="M5.456 23.451l-0.007 0.309c0.644-0.009 0.238-0.108 0.743-0.123l0.229-0.192c-0.216-0.008-0.136-0.009-0.33 0.015-0.038 0.005-0.141 0.035-0.178 0.039-0.324 0.035-0.134 0.046-0.458-0.048z"></path>
<path fill="#929292" d="M12.094 6.164l0.233-0.040c0.001-0.035 0.003-0.189-0.005-0.214-0.114-0.346-0.001-0.077-0.132-0.263-0.277 0.191-0.163-0.088-0.154 0.23 0.010 0.345 0.187-0.262 0.058 0.287z"></path>
<path fill="#929292" d="M16.906 19.625c0.176 0.091 0.356 0.124 0.568 0.2-0.108-0.216-0.149-0.152-0.321-0.302-0.021-0.018-0.088-0.089-0.109-0.116-0.182 0.123-0.053-0.035-0.137 0.218z"></path>
<path fill="#929292" d="M24.552 18.887l0.167 0.077c0.013-0.003 0.062-0.019 0.074-0.023 0.014-0.004 0.044-0.038 0.068-0.054-0.171-0.107-0.132-0.078-0.31 0z"></path>
<path fill="#d4d4d4" d="M16.003 5.747l0.449-0.067c0.337-0.18 0.151 0.036 0.483-0.194-0.171-0.132 0.054-0.034-0.203-0.123-0.322-0.111-0.58-0.075-0.844 0.007l0.114 0.376z"></path>
<path fill="#d4d4d4" d="M22.042 10.657c0.174 0.34-0.015 0.127 0.277 0.312l0.216-0.32c0.003-0.011 0.017-0.042 0.019-0.053s0.009-0.045 0.010-0.054l-0.131-0.145c-0.009 0.002-0.047 0.003-0.058 0.007l-0.333 0.253z"></path>
<path fill="#d4d4d4" d="M24.694 10.445c0.005 0.010 0.018 0.015 0.020 0.030 0.003 0.017 0.022 0.027 0.026 0.033 0.005 0.006 0.028 0.033 0.035 0.042l0.087 0.109c0.099 0.13 0.123 0.178 0.2 0.269 0.119-0.232-0.011-0.635-0.368-0.482z"></path>
<path fill="#d4d4d4" d="M15.355 18.339c0.012-0.018 0.031-0.069 0.037-0.054l0.262-0.352c-0.216-0.124-0.117-0.048-0.298-0.219v0.625z"></path>
<path fill="#000" d="M9.62 26.010c0.16 0.199 0.216 0.095 0.037 0.463-0.052-0.053-0.088-0.009-0.156-0.171-0.21-0.501-0.055 0.44-0.018-0.119 0.001-0.018 0.115-0.15 0.138-0.174zM7.22 25.983c-0.017 0.015-0.043 0.035-0.052 0.045l-0.224 0.395c-0.005-0.015-0.019 0.049-0.030 0.064l-0.378-0.032c-0.054-0.549 0.128-0.555 0.684-0.473zM7.22 25.983c0.152-0.149-0.379-0.229 0.494-0.095l1.365 0.287c-0.736 0.346-0.801 0.030-1.859-0.192zM6.914 25.521c-0.277-0.624 0.207-0.599 0.211-0.601 0.281 0.117 0.041-0.129 0.29 0.274-0.080 0.081-0.072 0.206-0.501 0.327zM5.182 25.105c0.141-0.138 0.148-0.107 0.32-0.017-0.133 0.097-0.063 0.136-0.32 0.017zM24.702 23.636c0.029-0.328 0.055-0.511 0.189-0.7 0.609 0.531 0.173 0.702 0.172 0.704l-0.361-0.005zM11.662 23.539c-0.162-0.086-0.42-0.002-0.142-0.627 0.088 0.069 0.376 0.15 0.142 0.627zM5.858 20.717c0.027 0.041 0.197-0.148 0.039 0.27-0.208-0.132-0.247-0.005-0.039-0.27zM5.089 20.825l-0.001-0.282c0.459 0.251 0.336 0.132 0.001 0.282zM24.552 18.887c0.178-0.078 0.139-0.107 0.31 0-0.024 0.016-0.054 0.050-0.068 0.054-0.013 0.003-0.062 0.020-0.074 0.023l-0.167-0.077zM15.846 18.628c0.211 0.517-0.067 0.34-0.105 0.383-0.1-0.208-0.152-0.423-0.225-0.734l0.33 0.352zM19.571 18.632c0.451-0.257 0.236-0.336 0.638-0.455 0.23 0.408-0.1 0.241 0.117 0.6 0.236 0.391 0.231-0.069 0.279 0.535-0.275 0.126-0.053 0.090-0.413-0.017 0.23 0.746 0.155 0.513-0.573 0.184 0.010-0.336-0.002-0.005 0.053-0.2 0.119-0.421-0.005-0.128-0.1-0.647zM17.93 18.199c0.127-0.148 0.105-0.156-0.016-0.030-0.181 0.188-0.068 0.129 0.016 0.030zM15.355 18.339v-0.625c0.182 0.171 0.082 0.095 0.298 0.219l-0.262 0.352c-0.006-0.014-0.025 0.036-0.037 0.054zM15.231 17.515c-0.008-0.309 0.128-0.109 0.163 0.022 0.036 0.137-0.152 0.372-0.163-0.022zM24.209 17.41c0.015-0.239-0.128-0.027 0.114-0.051 0.178-0.018-0.132 0.345-0.114 0.051zM15.424 17.199c0.068-0.321 0.111-0.253 0.349-0.245l-0.349 0.245zM16.41 15.955c-0.296-0.224-0.117 0.187-0.102-0.203 0.014-0.351 0.004-0.060 0.139-0.085l-0.037 0.288zM18.701 15.294c0.136-0.367-0.176-0.103 0.33-0.278-0.064 0.373 0.259 0.19-0.33 0.278zM8.17 14.983c-0.018-0.133 0.053-0.199 0.139 0.030 0.031 0.084-0.094 0.305-0.139-0.030zM20.499 14.535c-0.207-0.164-0.103-0.057-0.227-0.349 0.241 0.166 0.227-0.272 0.227 0.349zM16.061 13.099l0.35-0.018-0.002 0.346c-0.255 0.202-0.133 0.086-0.136 0.497-0.309-0.051-0.205-0.087-0.39 0.123l-0.13-0.434-0.247 0.164c-0.144-0.561-0.273-0.281-0.245-0.92l0.34-0.064 0.509 0.046-0.235 0.281 0.187-0.021zM26.188 11.712c0.321-0.229 0.131-0.308 0.413 0-0.079 0.063 0.125 0.069-0.187 0.095-0.544 0.046-0.030 0.030-0.226-0.095zM25.372 11.079c0.133-0.088-0.329-0.178 0.249-0.086-0.142 0.161 0.216 0.394-0.249 0.086zM24.714 10.475c-0.002-0.015-0.015-0.019-0.020-0.030 0.357-0.153 0.487 0.25 0.368 0.482-0.077-0.091-0.101-0.139-0.2-0.269l-0.087-0.109c-0.007-0.009-0.030-0.036-0.035-0.042-0.004-0.005-0.023-0.015-0.026-0.033zM22.376 10.404c0.011-0.004 0.049-0.005 0.058-0.007l0.131 0.145c-0.001 0.010-0.008 0.044-0.010 0.054s-0.016 0.042-0.019 0.053l-0.216 0.32c-0.291-0.185-0.103 0.028-0.277-0.312l0.333-0.253zM24.052 10.024c0.133-0.314 0.186-0.185 0.34-0.175-0.044 0.149-0.019 0.302-0.34 0.175zM25.013 9.77c-0.247 0.2-0.171 0.274-0.251-0.175l0.251 0.175zM9.45 9.48c0.175 0.364 0.122 0.338-0.109 0.625-0.080-0.218 0.072 0.143-0.044-0.171-0.018-0.049-0.082-0.164-0.086-0.188-0.079-0.377-0.023-0.19 0.239-0.266zM24.604 9.776c-0.179-0.131-0.086-0.048-0.182-0.254 0.21 0.105 0.152-0.005 0.182 0.254zM27.047 9.342c-0.421-0.117-0.21 0.055-0.261-0.232 0.291 0.068 0.107-0.085 0.261 0.232zM10.157 9.060c0.165-0.202-0.017-0.133 0.294-0.272-0.18 0.357 0.192 0.174-0.294 0.272zM16.722 6.032c0.377-0.127 0.208-0.191 0.533-0.415 0.728 0.408 0.641 0.435 0.662 0.819-0.494 0.253-0.445 0.235-0.625-0.066-0.147 0.234-0.116 0.179-0.353 0.345-0.164-0.2-0.158-0.308-0.216-0.684zM12.327 6.125c0.18 0.188 0.277 0.015 0.22 0.646l-0.332 0.135c-0.004 0.001-0.229 0.088-0.243 0.095-0.097-0.391-0.053-0.572 0.121-0.836 0.128-0.549-0.049 0.058-0.058-0.287-0.009-0.317-0.123-0.039 0.154-0.23 0.131 0.187 0.018-0.082 0.132 0.263 0.009 0.025 0.006 0.178 0.005 0.214zM19.36 5.913c-0.29 0.466-0.301-0.249-0.526 0.611l-0.585-0.027c-0.059-0.921 0.197-0.291-0.461-0.816l1.112 0.157c0.173 0.032 0.096 0.072 0.461 0.074zM10.106 5.592c0.029 0.015 0.072 0.018 0.086 0.050l-0.086-0.050zM23.228 5.62l-0.235-0.27c0.364 0.127 0.168-0.191 0.235 0.27zM17.788 5.681c-0.349-0.056-0.077 0.037-0.305-0.082l0.375-0.246-0.070 0.328zM15.155 5.703c-0.18-0.183-0.401 0.047-0.011-0.404 0.078 0.104 0.069-0.033 0.092 0.19 0.034 0.338-0.036 0.135-0.081 0.214zM10.636 5.697c-0.324-0.18 0.032-0.22 0.148-0.283 0.006 0.164 0.018 0.101-0.034 0.223l-0.115 0.060zM23.688 5.381c-0.008-0.099 0.099-0.152 0.152 0.017 0.056 0.177-0.133 0.211-0.152-0.017zM18.022 5.381c-0.009-0.156 0.083-0.183 0.14 0.019 0.106 0.373-0.136 0.055-0.14-0.019zM16.452 5.68l0.233 0.060 0.036 0.292-0.206 0.632c-0.703-0.030-0.144 0.124-0.317-0.3-0.621 0.124-0.172 0.030-0.266 0.167l-0.044 0.15c-0.002-0.013 0.001 0.036-0.048 0.061l-0.036-0.21-0.236 0.256-0.459-0.107c-0.009-0.001-0.035-0.009-0.042-0.009-0.196-0.018 0.088-0.132-0.241 0.164-0.354-0.203-1.457 0.070-1.99-0.066-0.145-0.432-0.073-0.884 0.302-1.078-0.061-0.201-0.042-0.086-0.001-0.166 1.053 0.22 0.691 0.342 1.16 0.556 0.375-0.24 0.169 0.051 0.337-0.322-0.293-0.203-0.337-0.097-0.021-0.331 0.195 0.171 0.284-0.262 0.098 0.329l0.44-0.054 0.095 0.179c0.322-0.105 0.355-0.176 0.754-0.135l-0.114-0.376c0.263-0.082 0.522-0.119 0.844-0.007 0.257 0.088 0.032-0.010 0.203 0.123-0.332 0.23-0.146 0.013-0.483 0.194zM12.451 5.413c-0.003 0.306 0.196 0.006-0.092 0.212-0.029-0.31-0.098-0.159 0.092-0.212zM26.213 5.399c-0.379-0.034-0.188 0.064-0.296-0.219 0.333 0.11 0.152 0.023 0.296 0.219zM12.451 5.413c0.12-0.326-0.134-0.222 0.226-0.202-0.042 0.329 0.107 0.080-0.226 0.202zM16.906 19.625c0.085-0.253-0.045-0.095 0.137-0.218 0.022 0.027 0.089 0.098 0.109 0.116 0.172 0.15 0.213 0.086 0.321 0.302l-0.003 0.455c0.009 0.484-0.099-0.47 0.109 0.23 0.064 0.211-0.003 0.114-0.062 0.597l-0.184 1.172c0.68 0.164 0.736-0.199 0.841 0.317-0.266 0.098-0.196 0.056-0.372-0.116l0.352 1.743c0.145 0.323 0.111 0.090 0.186 0.529 0.234-0.381-0.069-0.198 0.391-0.201 0.032 0.050 0.194 0.264 0.136 0.44-0.048 0.146-0.17 0.143-0.329 0.231 0.097 0.421-0.021 0.007 0.234 0.463-0.58 0.13-0.221-0.099-0.574 0.337l-0.513-0.357c0.072-0.301 0.069-0.186 0.088-0.24 0.235-0.654-0.005-0.858-0.232-1.545-0.186-0.565-0.29-0.6-0.606-1.289l-0.209-0.324c-0.645 0.235-0.777 0.116-1.264 0.141l-0.353 0.066c-0.368 0.436-0.184 0.397 0.086 0.787 0.242 0.346 0.669 2.613 0.44 2.875-0.245 0.253-0.1-0.046-0.331-0.084-0.234-0.038-0.106-0.014-0.361 0.103 0-0.622-0.269-0.71-0.845-1.054-0.565-0.338-0.295-0.112-0.375-0.588-0.085-0.507-0.224-0.122-0.165-0.554 0.163-1.2-0.432-0.716 0.266-1.814-0.86-0.127-1.864-0.505-2.427-0.987-0.707-0.605-0.861-0.98-1.095-2.141l-5.342 0.027c-0.063 0.423 0.099 0.306-0.009 0.936-0.064 0.376-0.14 0.562 0.136 0.844-0.211 0.712-0.092 1.884-0.085 2.81l0.445 0.125 0.007-0.309c0.226-0.226 0.24-0.344 0.614-0.449 0.163 0.121 0.052-0.012 0.22 0.207 0.178 0.231-0.001 0.001 0.132 0.235l-0.229 0.192c0.874 0.105 0.726-0.054 1.346 0.383-0.045 0.271-0.098 0.463-0.232 0.641-0.546-0.191 0.19-0.273-0.779-0.356-1.79-0.154-1.555 0.456-1.514 2.547l5.105 0.002 0.068-0.818c0.358 0.276 0.038 0.409 0.316 0.818 1.033-0.039 0.554-0.998 1.161-1.964 0.584 0.648 1.134 1.177 2.029 1.677 3.173 1.776 5.861 1.242 8.95 0.097-0.206-0.273-0.154-0.35-0.005-0.694 0.484 0.114 0.237 0.076 0.422 0.418 0.522-0.069 1.417-0.878 1.688-1.171 2.002-2.153 1.833-4.706 0.825-7.256-0.562-1.42-2.329-2.536-3.639-3.328-1.369-0.828-1.592-0.403-1.675-0.744-0.009-0.034-0.029-0.045-0.048-0.064-0.366 0.194-0.373 0.135-0.807 0.277-0.009-0.62 0.096-0.070 0.093-0.681-1.078-0.272-2.788-0.747-3.686-1.213-2.077-1.077-1.211-2.303-0.335-2.599 0.68-0.23 6.135-0.147 6.212 3.296l5.422 0.004-0.030-7.369c-0.334-0.144-0.27 0.005-0.69-0.208 0.11-0.026 0.235-0.041 0.355-0.069l0.247-0.067c0.013-0.032 0.054-0.014 0.080-0.026l-4.653-0.086c-0.15 0.671 0.046 0.287-0.41 0.474l0.363-0.455c-0.091-0.013-0.277 0.003-0.313 0.003l-0.749 0.010c-0.205-0.377-0.854 1.864-0.881 1.965-0.247-0.213-0.296-0.336-0.509-0.67-0.323-0.506-0.302-0.429-0.557-0.498-0.131-0.278-0.401-0.42-0.679-0.585-1.904-1.125-4.81-1.258-6.928-0.801-7.998 1.728-6.414 8.842-4.202 10.979 0.345 0.333 0.921 0.687 1.392 1.035 1.317 0.975 3.062 1.877 4.744 2.276-0.104-1.018-0.423-0.109-0.593-1.145-0.108-0.656 0.021-0.797 0.288-1.212-0.117-0.243-0.24-0.399-0.258-0.524-0.142-0.964 0.899-1.098 1.105-0.363 0.036 0.129 0.114 1.392 0.112 1.553-0.010 0.789-0.32 0.21 0.011 1.128-0.389 0.335-0.317-0.058-0.517 0.527l0.436 0.241c0.109 0.040 0.261 0.076 0.406 0.12 1.913 0.577 1.499 0.92 2.227 0.483z"></path>
<path fill="#4c4c4c" d="M15.57 6.788l0.236-0.256-0.074-0.341c-0.273 0.161-0.109-0.047-0.349 0.274l0.186 0.323z"></path>
</svg>
