<!-- Generated by IcoMoon.io -->
<svg version="1.1" xmlns="http://www.w3.org/2000/svg" width="32" height="32" viewBox="0 0 32 32">
<title>send</title>
<path fill="#e6e7e8" d="M6.494 15.017c0.271-0.013 0.525-0.123 0.812 0.014 0.263 0.124 0.347 0.219 0.448 0.52 0.209 0.621-0.372 0.942-0.538 1.352 0.346-0.172 0.868-0.895 0.637-1.44-0.245-0.578-1.246-0.886-1.36-0.446z"></path>
<path fill="#e6e7e8" d="M11.027 19.592c0.417-0.091 0.664-0.275 1.069 0.147 0.058 0.061 0.221 0.341 0.242 0.41 0.102 0.334-0.031 0.364-0.095 0.659 0.064-0.041 0.149-0.025 0.209-0.266 0.080-0.32-0.065-0.67-0.277-0.883-0.21-0.21-0.614-0.383-0.943-0.261-0.199 0.074-0.143 0.075-0.205 0.194z"></path>
<path fill="#e6e7e8" d="M16.145 14.055c0.216-0.109 0.543-0.491 0.718-0.655 0.126-0.118 0.21-0.2 0.343-0.315 0.389-0.337 0.249-0.239 0.283-0.376-0.262 0.129-0.738 0.675-1.034 0.937-0.277 0.246-0.2 0.163-0.31 0.408z"></path>
<path fill="#e6e7e8" d="M20.819 9.491c0.416-0.181 0.632-0.657 1.244-1.042 0.21-0.132 0.101-0.054 0.153-0.17-0.295 0.038-1.216 0.865-1.398 1.212z"></path>
<path fill="#e6e7e8" d="M13.582 13.596c-0.16-0.202-0.366-0.227-0.66-0.324-0.287-0.095-0.448-0.188-0.768-0.206 0.018 0.014 0.043 0.012 0.053 0.042 0.038 0.103 1.298 0.475 1.374 0.489z"></path>
<path fill="#e6e7e8" d="M15.607 16.83c-0.102-0.257-0.129-0.567-0.274-0.719-0.123-0.129-0.469-0.253-0.691-0.262 0.094 0.105-0.056 0.017 0.163 0.138 0.261 0.145 0.407-0.036 0.592 0.512 0.16 0.474 0.020 0.216 0.211 0.331z"></path>
<path fill="#e6e7e8" d="M7.332 25.815c0.194-0.1 0.557-0.457 0.665-0.661-0.209 0.065-0.558 0.444-0.605 0.518-0.081 0.125-0.010-0.005-0.060 0.144z"></path>
<path fill="#e6e7e8" d="M12.719 28.833c0.141-0.062 0.208-0.113 0.314-0.203 0.019-0.016 0.102-0.088 0.109-0.095 0.104-0.11 0.009 0.005 0.105-0.148-0.172 0.063-0.183 0.081-0.293 0.163-0.065 0.049-0.066 0.038-0.109 0.083-0.109 0.114-0.050 0.027-0.127 0.2z"></path>
<path fill="#e6e7e8" d="M4.797 16.981c0.109-0.074 0.144-0.089 0.215-0.174 0.17-0.204 0.057-0.054 0.128-0.253-0.142 0.085-0.116 0.045-0.218 0.164-0.179 0.211-0.057 0.042-0.125 0.262z"></path>
<path fill="#e6e7e8" d="M18.867 11.401c0.216-0.107 0.192-0.109 0.344-0.304-0.145 0.029-0.147 0.031-0.224 0.104-0.223 0.207 0.003-0.039-0.12 0.2z"></path>
<path fill="#e6e7e8" d="M6.235 15.214c0.155-0.009 0.025 0.046 0.149-0.045 0.172-0.127 0.066-0.070 0.109-0.151l-0.207 0.054-0.052 0.142z"></path>
<path fill="#e6e7e8" d="M4.552 25.965c0.32-0.177 2.828-2.719 3.247-3.161 0.543-0.572 3.032-2.972 3.211-3.256-0.236 0.068-0.054-0.017-0.213 0.096l-3.896 3.898c-0.298 0.289-0.519 0.521-0.786 0.787-0.267 0.268-1.421 1.317-1.563 1.635z"></path>
<path fill="#e6e7e8" d="M20.823 25.305l-0.073 0.086c-0.009 0.011-0.021 0.028-0.030 0.041l-0.21 0.255-1.001-3.058c-0.058-0.101-0.102-0.119-0.164-0.178 0.042 0.376 0.803 2.469 1.012 3.183 0.067 0.23 0.093 0.265 0.277 0.373 0.092-0.309 0.168-0.353 0.19-0.703z"></path>
<path fill="#e6e7e8" d="M4.559 20.145c0.238-0.12 0.058 0.023 0.249-0.201 0.465-0.549 2.268-2.703 2.363-2.939-0.23 0.134-0.198 0.147-0.37 0.35-0.118 0.14-0.218 0.269-0.322 0.396-0.391 0.482-1.74 1.985-1.92 2.394z"></path>
<path fill="#e6e7e8" d="M2.784 29.482c-0.010-0.016-0.026-0.060-0.032-0.048l-0.068-0.085c-0.009-0.010-0.026-0.023-0.036-0.034-0.927-0.927 0.375-1.646 1.145-2.522l0.16-0.23c-0.299 0.093-0.2 0.065-0.4 0.311-0.123 0.151-0.195 0.211-0.32 0.336-0.203 0.2-0.46 0.432-0.66 0.651-0.786 0.856-0.143 1.624 0.21 1.621z"></path>
<path fill="#e6e7e8" d="M7.997 25.154c0.215-0.058 1.318-1.234 1.477-1.395 0.209-0.212 1.314-1.222 1.413-1.499-0.304 0.172-0.47 0.44-0.768 0.706l-2.059 2.066c-0.060 0.086-0.026 0.041-0.064 0.123z"></path>
<path fill="#e6e7e8" d="M2.849 29.461c0.112 0.175-0.089 0.112 0.259 0.177 0.123 0.023 0.316-0.039 0.319-0.040 0.531-0.172 2.229-2.003 2.277-2.141-0.25 0.1-0.407 0.339-0.657 0.584-1.006 0.985-1.145 1.46-2.198 1.42z"></path>
<path fill="#e6e7e8" d="M6.921 11.222l-0.379-0.344 1.334-0.422c0.535-0.141 0.332-0.116 0.421-0.25-0.4 0.079-0.748 0.262-1.12 0.341-0.4 0.084-0.866 0.187-1.003 0.446l0.747 0.229z"></path>
<path fill="#e6e7e8" d="M23.109 9.886c0.167-0.076 0.283-0.286 0.329-0.479 0.113-0.474-0.126-0.874-0.504-1.097l-0.508-0.115c-0.454 0.052-0.096-0.006-0.209 0.085 0.467 0.048 0.81 0.067 1.010 0.463 0.289 0.577-0.040 0.736-0.117 1.144z"></path>
<path fill="#e6e7e8" d="M18.066 14.723c0.182-0.070 0.976-0.801 1.2-1.015l0.348-0.447c-0.255 0.108-0.539 0.422-0.819 0.695-0.247 0.242-0.55 0.453-0.729 0.766z"></path>
<path fill="#e6e7e8" d="M5.704 27.458c0.235-0.050 0.135-0.017 0.279-0.18 0.281-0.318 1.274-1.214 1.349-1.462-0.31 0.151-0.625 0.568-0.844 0.786l-0.785 0.856z"></path>
<path fill="#e6e7e8" d="M19.675 13.203c0.244-0.133 1.276-1.128 1.38-1.362-0.308 0.153-1.297 1.146-1.38 1.362z"></path>
<path fill="#e6e7e8" d="M10.981 22.175c0.267-0.093 0.064 0.025 0.239-0.14 0.22-0.206 1.032-1.035 1.069-1.208-0.256 0.132-0.446 0.401-0.667 0.627-0.15 0.152-0.201 0.207-0.326 0.33l-0.315 0.392z"></path>
<path fill="#e6e7e8" d="M13.589 25.703c0.159-0.072 0.041 0.001 0.214-0.106l0.929-0.776c0.080-0.097 0.018-0.018 0.098-0.156-0.278 0.117-1.124 0.843-1.241 1.038z"></path>
<path fill="#e6e7e8" d="M14.954 26.999c0.255-0.084 0.095-0.007 0.348-0.228 0.255-0.222 0.647-0.488 0.775-0.716-0.155 0.073-0.055 0.014-0.163 0.082-0.239 0.15-0.862 0.657-0.96 0.862z"></path>
<path fill="#e6e7e8" d="M5.419 16.192c0.17-0.097 0.093-0.031 0.227-0.19 0.075-0.089 0.121-0.145 0.214-0.25 0.163-0.184 0.299-0.336 0.376-0.538-0.195 0.068-0.331 0.313-0.456 0.461-0.065 0.078-0.145 0.159-0.227 0.242-0.112 0.116-0.157 0.049-0.133 0.275z"></path>
<path fill="#e6e7e8" d="M10.921 27.926c0.266-0.119 0.82-0.566 0.978-0.838-0.25 0.118-0.376 0.261-0.533 0.395-0.091 0.078-0.148 0.111-0.262 0.2-0.196 0.157-0.098 0.016-0.183 0.242z"></path>
<path fill="#e6e7e8" d="M17.489 12.709c0.241-0.082 0.565-0.45 0.69-0.684-0.235 0.111-0.246 0.178-0.399 0.326-0.118 0.115-0.23 0.187-0.291 0.357z"></path>
<path fill="#e6e7e8" d="M13.447 28.239c0.372-0.107 0.116-0.162 0.469-0.235 0.042-0.051 0.060-0.188 0.065-0.203-0.18 0.066-0.186 0.074-0.301 0.166-0.039 0.032-0.064 0.049-0.102 0.089-0.167 0.178-0.040 0.031-0.131 0.183z"></path>
<path fill="#e6e7e8" d="M3.596 18.389c0.116-0.068 0.059-0.018 0.148-0.096 0.049-0.042 0.054-0.055 0.097-0.104 0.11-0.126 0.125-0.146 0.194-0.336-0.052 0.017-0.151 0.022-0.203 0.065-0.071 0.353-0.125 0.102-0.235 0.47z"></path>
<path fill="#e6e7e8" d="M21.063 29.838c0.336-0.113 0.2-0.148 0.416-0.326l0.019-0.262c-0.014 0.014-0.033 0.031-0.042 0.042l-0.393 0.546z"></path>
<path fill="#e6e7e8" d="M22.538 10.414c0.23-0.123 0.448-0.311 0.571-0.529-0.222 0.058-0.466 0.304-0.571 0.529z"></path>
<path fill="#e6e7e8" d="M3.912 20.915c0.227-0.086 0.065 0.040 0.266-0.22 0.107-0.138 0.127-0.145 0.193-0.322-0.227 0.134-0.359 0.317-0.459 0.542z"></path>
<path fill="#e6e7e8" d="M14.899 24.607c0.162-0.059 0.156-0.044 0.272-0.128 0.202-0.147 0.105-0.076 0.186-0.249-0.206 0.081-0.321 0.169-0.458 0.376z"></path>
<path fill="#e6e7e8" d="M20.823 25.305c-0.022 0.35-0.098 0.394-0.19 0.703-0.184-0.109-0.21-0.144-0.277-0.373-0.21-0.714-0.97-2.807-1.012-3.183-0.199-0.399-0.359-1.216-0.546-1.692l-1.42-4.286c-0.104-0.337-0.286-0.715-0.245-0.848l0.934-0.904c0.179-0.313 0.482-0.525 0.729-0.766 0.279-0.273 0.564-0.587 0.819-0.695 0.029-0.102-0.052-0.028 0.061-0.058 0.083-0.216 1.071-1.21 1.38-1.362 0.132-0.105 0.243-0.257 0.361-0.373 0.155-0.153 0.212-0.207 0.366-0.354 0.219-0.21 0.509-0.557 0.755-0.7 0.105-0.225 0.349-0.47 0.571-0.529 0.077-0.408 0.407-0.567 0.117-1.144-0.2-0.396-0.543-0.415-1.010-0.463-0.053 0.116 0.057 0.038-0.153 0.17-0.613 0.385-0.829 0.861-1.244 1.042-0.253 0.321-1.431 1.295-1.608 1.606-0.151 0.195-0.128 0.197-0.344 0.304-0.062 0.088-0.608 0.587-0.688 0.624-0.125 0.234-0.45 0.601-0.69 0.684-0.034 0.137 0.107 0.039-0.283 0.376-0.133 0.115-0.217 0.197-0.343 0.315-0.175 0.163-0.502 0.546-0.718 0.655-0.235 0.192-0.255 0.279-0.647 0.196-0.179-0.037-0.407-0.147-0.64-0.224-0.354-0.117-0.948-0.358-1.277-0.431-0.076-0.014-1.337-0.385-1.374-0.489-0.010-0.030-0.036-0.028-0.053-0.042l-3.957-1.411c-0.214-0.075-0.483-0.144-0.698-0.228-0.179-0.070-0.4-0.168-0.578-0.206l-0.747-0.229c0.137-0.259 0.603-0.361 1.003-0.446 0.372-0.078 0.72-0.262 1.12-0.341 0.373-0.002 1.891-0.558 2.384-0.697l1.152-0.395c1.018-0.247 2.714-0.785 3.624-1.104l9.552-2.909c0.337-0.124 2.131-0.686 2.413-0.693-0.032 0.559-0.645 2.026-0.81 2.704-0.202 0.836-0.566 1.702-0.832 2.551-0.484 1.551-1.269 3.878-1.63 5.284l-3.328 10.357zM14.641 15.849c0.222 0.009 0.568 0.132 0.691 0.262 0.145 0.152 0.172 0.463 0.274 0.719-0.006 0.209 0.436 1.374 0.539 1.723 0.182 0.616 0.389 1.208 0.587 1.789l1.754 5.246c0.413 1.057 0.789 2.582 1.173 3.557 0.44 1.117 1.006 0.736 1.404 0.693l0.393-0.546c0.010-0.011 0.029-0.029 0.042-0.042 0.017-0.317 1.622-5.184 1.683-5.337 0.136-0.344 0.199-0.752 0.317-1.069 0.127-0.34 0.236-0.655 0.346-1.016l3.020-9.493c0.26-0.687 0.398-1.473 0.663-2.158 0.598-1.543 1.486-4.646 2.035-6.352 0.107-0.33 0.313-0.74 0.207-1.1-0.416-1.419-2.208-0.162-3.932 0.203l-7.436 2.305c-0.341 0.128-0.79 0.214-1.133 0.327-0.967 0.319-2.905 0.854-3.667 1.165l-2.695 0.793c-0.34 0.114-0.672 0.206-1.036 0.333-1.354 0.472-3.171 0.911-4.255 1.313-0.954 0.354-2.757 0.675-3.128 1.124-0.224 0.271-0.252 0.766-0.035 1.086 0.282 0.418 1.349 0.66 1.933 0.876l10.255 3.6z"></path>
<path fill="#e6e7e8" d="M11.027 19.592l-0.017-0.044c-0.179 0.283-2.668 2.684-3.211 3.256-0.419 0.442-2.928 2.984-3.247 3.161l-0.597 0.6-0.16 0.23c-0.771 0.876-2.072 1.595-1.145 2.522 0.010 0.010 0.027 0.024 0.036 0.034l0.068 0.085c0.006-0.012 0.022 0.032 0.032 0.048l0.064-0.021c1.053 0.040 1.192-0.435 2.198-1.42 0.25-0.245 0.407-0.484 0.657-0.584l0.785-0.856c0.218-0.219 0.533-0.635 0.844-0.786 0.049-0.149-0.021-0.019 0.060-0.144 0.047-0.074 0.396-0.452 0.605-0.518 0.038-0.082 0.004-0.037 0.064-0.123l2.059-2.066c0.298-0.265 0.464-0.533 0.768-0.706l0.094-0.084 0.315-0.392c0.125-0.123 0.176-0.178 0.326-0.33 0.221-0.225 0.411-0.495 0.667-0.627l-0.046-0.018c0.064-0.296 0.198-0.325 0.095-0.659-0.021-0.069-0.184-0.349-0.242-0.41-0.405-0.422-0.652-0.238-1.069-0.147z"></path>
<path fill="#e6e7e8" d="M15.357 24.23c-0.081 0.173 0.015 0.102-0.186 0.249-0.116 0.084-0.11 0.069-0.272 0.128-0.054 0.113 0.065 0.008-0.069 0.058-0.080 0.138-0.018 0.059-0.098 0.156l-0.929 0.776c-0.174 0.107-0.056 0.034-0.214 0.106-0.118 0.142-1.518 1.326-1.69 1.385-0.158 0.272-0.712 0.719-0.978 0.838-0.17 0.223-0.379 0.484-0.288 0.923 0.065 0.311 0.27 0.532 0.549 0.641 0.715 0.279 1.086-0.431 1.537-0.658 0.076-0.173 0.018-0.086 0.127-0.2 0.043-0.045 0.044-0.034 0.109-0.083 0.109-0.082 0.12-0.1 0.293-0.163 0.056-0.057 0.145-0.117 0.2-0.147 0.092-0.152-0.036-0.005 0.131-0.183 0.038-0.041 0.064-0.058 0.102-0.089 0.115-0.092 0.121-0.1 0.301-0.166 0.053-0.103 0.893-0.779 0.973-0.802 0.098-0.205 0.72-0.712 0.96-0.862 0.108-0.068 0.009-0.009 0.163-0.082 0.348-0.389 1.084-0.68 0.812-1.477-0.366-1.073-1.531-0.346-1.532-0.346z"></path>
<path fill="#e6e7e8" d="M6.494 15.017c-0.043 0.081 0.062 0.025-0.109 0.151-0.125 0.092 0.005 0.036-0.149 0.045-0.077 0.202-0.213 0.354-0.376 0.538-0.093 0.105-0.139 0.161-0.214 0.25-0.134 0.159-0.058 0.092-0.227 0.19l-0.278 0.363c-0.071 0.199 0.041 0.049-0.128 0.253-0.070 0.085-0.105 0.099-0.215 0.174-0.085 0.098-0.675 0.828-0.763 0.873-0.069 0.19-0.084 0.21-0.194 0.336-0.042 0.049-0.048 0.061-0.097 0.104-0.089 0.077-0.032 0.027-0.148 0.096-0.269 0.484-1.15 1.229-1.262 1.711-0.117 0.501 0.088 0.864 0.451 1.032 0.496 0.23 0.813 0.014 1.126-0.216 0.101-0.225 0.232-0.408 0.459-0.542l0.188-0.227c0.18-0.409 1.528-1.912 1.92-2.394 0.104-0.127 0.204-0.256 0.322-0.396 0.172-0.203 0.14-0.216 0.37-0.35l0.046-0.102c0.166-0.41 0.747-0.731 0.538-1.352-0.101-0.301-0.186-0.396-0.448-0.52-0.287-0.136-0.541-0.026-0.812-0.014z"></path>
</svg>
