<!-- Generated by IcoMoon.io -->
<svg version="1.1" xmlns="http://www.w3.org/2000/svg" width="32" height="32" viewBox="0 0 32 32">
<title>sexoral-one</title>
<path d="M12.291 16.377l-0.175 0.064c-0.14 0.182-0.101 0.132-0.263 0.226-0.729 0.694-0.927 1.093-0.924 2.511 0.006 2.371-0.445 4.785 1.2 5.701 0.454 0.253 0.874 0.224 1.199 0.526 0.22 0.204 0.735 0.71 0.864 0.924-1.008 0.034-2.059 0.006-3.073 0.006-1.094 0-2.14-0.198-2.54 0.644-0.479 1.007 0.253 1.729 1.266 1.752l6.354-0.002c1.085 0.002 2.043 0.002 2.111-1.117 0.049-0.802-0.911-1.526-1.291-1.906-0.466-0.464-1.128-1.21-1.604-1.568 0.612-1.459 0.364-3.586 0.372-5.252-0.897 0.309-1.76 1.178-2.806 0.79-0.89-0.33-1.36-1.728-0.539-2.421-0.009-0.149-0.038-0.116 0.109-0.069 0.246-0.372 0.938-0.521 1.328-0.791 0.119-0.082 0.089-0.072 0.165-0.156l-0.567-0.068-0.453-0.007-0.734 0.214z"></path>
<path d="M22.477 17.248l0.313 0.36c0.404 0.522 0.279 1.267 0.293 2.042 1.128-0.563 0.888-2.868 0.877-4.372-0.007-1.107 0.15-6.818-0.148-7.615-0.762-2.038-3.762-2.215-4.583 0.152 0.702-0.226 1.347-0.897 2.232-0.824 0.836 0.069 1.482 0.798 1.357 1.743-0.121 0.913-0.874 1.141-1.579 1.515-0.722 0.383-1.393 0.674-2.122 1.048l-0.005 2.518c2.019-0.093 2.342 1.922 1.175 2.738-0.369 0.258-0.798 0.408-1.172 0.627 0.003 1.072 0.115 2.011 0.895 2.479-0.023-0.992-0.155-1.594 0.447-2.21 0.61-0.624 1.208-0.613 2.020-0.2z"></path>
<path d="M22.447 17.754c-0.155-0.11-0.35-0.233-0.514-0.414-1.35-0.019-1.581 0.422-1.577 1.747l0.001 6.532c0 1.051-0.21 2.401 0.533 2.838 0.952 0.559 1.796-0.139 1.836-1.11l0.001-6.536c0-0.944 0.219-2.362-0.279-3.057z"></path>
<path d="M21.064 7.334c-0.435 0.101-1.797 0.869-2.27 1.104-0.841 0.417-4.091 1.807-4.43 2.467-0.484 0.943 0.338 1.929 1.346 1.705 0.61-0.135 3.749-1.845 4.553-2.248 0.705-0.353 1.808-0.729 2.118-1.331 0.483-0.936-0.368-1.917-1.318-1.696z"></path>
<path d="M17.47 14.943l-0.187 0.088-1.049 0.534c-0.457 0.317-0.525 0.363-1.11 0.564l-0.542 0.261-0.183 0.098c-0.255 0.176-0.545 0.31-0.822 0.434-0.324 0.145-0.545 0.277-0.828 0.423-0.084 0.108-0.163 0.223-0.239 0.34-0.287 0.667-0.095 1.283 0.347 1.571 0.621 0.404 1.192 0.12 1.728-0.154 0.574-0.293 2.502-1.348 2.988-1.451 0.361-0.325 0.591-0.396 1.084-0.586 0.562-0.393 2.543-0.771 1.849-2.282-0.66-1.438-2.398-0.069-3.035 0.162z"></path>
<path d="M17.5 2.652c-3.053 0.797-1.783 5.399 1.287 4.505 2.803-0.816 1.78-5.306-1.287-4.505z"></path>
<path d="M13.815 15.388c0.219 0.184 0.137 0.079 0.207 0.358 0.222 0.172 0.215 0.116 0.273 0.362l0.29-0.033 0.498-0.273c0.207-0.2 0.392-0.257 0.671-0.355l1.533-0.728 0.184-0.1 0.871-0.454c-0.086-0.785-0.758-1.866-1.388-1.767-0.279 0.045-0.782 0.436-1.132 0.522-0.782 0.19-1.039-0.215-1.37-0.223-0.291 0.187-0.572 0.626-0.702 1.122-0.187 0.716-0.018 0.943 0.064 1.569z"></path>
</svg>
