<!-- Generated by IcoMoon.io -->
<svg version="1.1" xmlns="http://www.w3.org/2000/svg" width="32" height="32" viewBox="0 0 32 32">
<title>shot</title>
<path d="M25.811 14.749c0.24-0.216 0.777-2.664 1.021-3.131-0.164 0.102-0.541 1.149-0.636 1.464-0.178 0.593-0.309 1.010-0.385 1.667z"></path>
<path d="M27.722 10.742l-0.17 0.863c0.013 0.007 0.029 0.017 0.038 0.022s0.026 0.016 0.037 0.023c0.010 0.006 0.024 0.016 0.035 0.023l0.236 0.144 0.202-1.214-0.379 0.139z"></path>
<path d="M17.175 11.621c-0.053-0.775-0.257-0.765-0.627-1.405-0.129-0.225-0.136-0.239-0.287-0.397 0.007 0.15 0.664 1.543 0.793 1.695 0.084 0.098 0.055 0.059 0.121 0.108z"></path>
<path d="M17.071 10.643c-0.060-0.468-0.412-0.925-0.678-1.307l-0.134-0.15c-0.009-0.008-0.025-0.020-0.037-0.031 0.071 0.344 0.627 1.344 0.849 1.488z"></path>
<path d="M19.189 22.046c0.125 0.084-0.009-0.010 0.142 0.004l0.145 0.039-0.134-0.564-0.203 0.017c0.016 0.181 0.093 0.363 0.050 0.503z"></path>
<path d="M25.303 16.417c0.141-0.082 0.073 0.074 0.125-0.168l0.016-0.68c-0.099 0.219-0.046 0.199-0.101 0.429-0.052 0.211-0.111 0.126-0.040 0.419z"></path>
<path d="M27.871 9.916l0.223-0.036 0.088 0.129c0.029-0.042 0.029-0.031 0.062-0.114 0.001-0.001 0.033-0.136 0.035-0.148-0.132-0.011-0.262 0.014-0.33-0.080-0.008 0.013-0.022 0.014-0.025 0.038s-0.018 0.030-0.021 0.042c-0.020 0.070-0.024 0.095-0.032 0.168z"></path>
<path d="M25.662 12.344c0.176-0.138 0.175-0.365 0.142-0.631l-0.18 0.435c-0.029 0.255 0.009 0.143 0.038 0.195z"></path>
<path d="M24.982 14.659c0.203-0.179 0.213-0.393 0.215-0.672-0.143 0.177-0.203 0.387-0.215 0.672z"></path>
<path d="M25.092 17.573c-0.055 0.142-0.061 0.4 0 0.541 0.028-0.035 0.031 0.063 0.063-0.138 0.003-0.023 0.004-0.134 0.003-0.159l-0.066-0.243z"></path>
<path d="M27.324 4.255c0.086 0.062-0.131 0.063 0.148 0.049 0.078-0.004 0.103-0.027 0.155-0.049-0.103-0.123 0.196-0.108-0.151-0.080-0.137 0.011-0.142 0.073-0.152 0.080z"></path>
<path d="M19.668 22.846l-0.113-0.114c-0.069-0.059-0.017 0.001-0.086-0.067-0.074-0.072-0.086-0.116-0.172-0.194 0.092 0.235 0.116 0.305 0.371 0.375z"></path>
<path d="M27.898 11.817l-0.236-0.144c-0.011-0.007-0.025-0.017-0.035-0.023s-0.028-0.017-0.037-0.023c-0.009-0.005-0.025-0.015-0.038-0.022-0.086 0.978-0.337 2.11-0.464 3.127-0.582 4.668-0.807 9.069-0.621 13.785 0.023 0.58 0.065 1.093-0.415 1.338-0.263 0.133-1.113 0.316-1.475 0.385-2.449 0.466-4.176 0.286-6.5-0.277-0.667-0.162-0.552-0.595-0.525-1.25 0.263-6.421-0.188-12.247-1.348-18.572-0.276-1.503-0.562-3-0.972-4.462-0.112-0.399-0.38-1.088-0.428-1.413 0.767-0.266 5.982-0.422 7.081-0.435 1.248-0.015 2.485 0 3.728 0.053 0.928 0.040 2.731 0.037 3.555 0.222 0.052 0.505-0.188 0.901-0.316 1.371-0.214 0.786-0.967 3.689-0.9 4.193 0.068 0.093 0.198 0.068 0.33 0.080l1.136-5.149c0.096-0.453 0.093-0.371-0.005-0.771-1.524-0.232-5.916-0.292-7.58-0.269-1.498 0.021-4.947 0.154-6.542 0.315-0.512 0.052-0.235 0.117-0.734 0.147-0.094 0.429 1.112 5.239 1.278 6.13 1.096 5.875 1.562 11.191 1.414 17.178-0.035 1.444-0.38 2.562 0.596 2.968 2.050 0.855 5.879 0.727 8.188 0.004 1.145-0.359 0.794-1.357 0.751-2.827-0.091-3.038-0.015-5.96 0.263-8.993 0.196-2.134 0.418-4.642 0.854-6.665z"></path>
<path d="M25.955 7.948c0.112 0.149 0.178 0.101-0.034 0.194-0.022-0.037-0.141 0.003 0.034-0.194zM26.749 8.157c-0.004-0.007-0.143 0.041-0.037-0.149 0.078-0.141 0.029-0.062 0.211-0.081-0.046 0.164-0.023 0.228-0.174 0.23zM26.109 8.143c0.064-0.29 0.043-0.223 0.355-0.216-0.102 0.212-0.081 0.216-0.355 0.216zM26.438 8.143c0.070-0.201 0.022-0.204 0.259-0.203-0.088 0.18-0.035 0.187-0.259 0.203zM27.842 4.256c0.071 0.168 0.076 0.085 0.283 0.179l-0.164 0.187c0.206-0.105 0.066-0.098 0.266-0.091 0.092 0.411-0.78 0.715-1.1 1.894 0.107-0.083 0.805-1.345 1.169-1.601 0.003 0.565-1.086 1.768-1.223 2.418 0.368-0.323 0.892-1.554 1.128-1.767-0.12 1.031-0.789 1.341-1.097 2.139-2.656-0.025-5.255 0.014-7.915 0.072-0.749 0.017-1.984 0.080-2.662-0.051-0.243-0.62-0.172-1.105-0.538-1.68-0.704-1.106-0.235-1.063 0.147-1.334-0.975-0.163-0.674 0.914-0.38 1.41 0.549 0.927 0.145 1.634 0.586 1.85 0.166 0.038 1.941-0.036 2.33-0.031l4.762 0.072c0.689 0.001 1.774-0.066 2.416 0.018-0.147 0.292-0.192 0.194-0.915 0.199l-7.714 0.006c-0.1 0-0.22-0.011-0.315-0.006-0.46 0.029-0.159 0.141-0.025 0.328l-0.152-0.245c0.202-0.003 0.344-0.045 0.487-0.039 1.462 0.058 2.459 0.041 3.939 0.043 1.47 0.001 3.032-0.037 4.491 0.022l-0.36 0.807c0.341-0.414 0.287-0.778 0.627-0.814-0.168 0.459-0.6 1.033-0.715 1.539 0.188-0.216 0.553-0.893 0.691-1.208 0.11-0.252 0.074-0.321 0.349-0.333-0.157 0.442-0.884 1.325-1.144 2.4l1.125-2.151c0.1-0.2 0.061-0.218 0.281-0.253l-0.715 1.32c-0.137 0.245-0.598 1.114-0.613 1.345 0.454-0.286 1.231-2.53 1.523-2.671 0.021 0.030 0.188-0.037-0.083 0.393-0.093 0.147-0.153 0.247-0.236 0.387-0.326 0.554-1.065 1.904-1.175 2.458 0.278-0.344 0.635-1.309 0.799-1.443 0.316-0.257 0.278-0.399 0.286-0.517 0.022-0.386 0.293-0.528 0.42-0.734 0.266-0.427 0.297-0.865 0.589-0.879l-0.565 1.167c-0.022 0.048-0.065 0.152-0.1 0.164-0.212 0.072 0.091 0.064-0.050-0.021l-0.038-0.031c-0.003-0.002-0.012-0.016-0.021-0.015-0.211 0.316 0.147 0.033-0.129 0.644-0.096 0.212-0.223 0.503-0.279 0.736 0.302-0.214 1.256-2.476 1.422-2.908 0.053-0.137 0.104-0.274 0.171-0.404-0.251 0.051-0.077 0.467-0.42 0.429l0.66-1.14-0.035 0.633c0.325-0.109 0.433-0.891 0.502-1.222 0.162-0.77 0.044-1.378 0.17-1.515l-0.128 0.070c-0.109-0.254-0.264-0.345-0.615-0.226z"></path>
<path d="M24.883 29.11c-0.901-0.133-1.778-0.172-2.69-0.18-0.868-0.009-1.136-0.099-1.197 0.225 0.258 0.137 3.819-0.125 4.671 0.363-0.539 0.503-6.765 0.557-7.335 0 0.27-0.192 0.799-0.17 1.142-0.225 0.264-0.042 0.195 0.018 0.233-0.189-0.155-0.113-0.742 0.019-0.931 0.055-0.299 0.057-0.587 0.121-0.679 0.359 0.159 0.419 1.203 0.412 1.689 0.446 1.35 0.093 3.050 0.093 4.395 0.003 0.511-0.034 1.585-0.018 1.746-0.448-0.109-0.314-0.66-0.35-1.044-0.407z"></path>
<path d="M17.969 22.389c1.323 1.577 4.036 2.197 6.284 1.268 0.349-0.144 0.614-0.343 0.854-0.543 0.144-0.119 0.544-0.541 0.55-0.825l-0.672 0.702c-0.758 0.706-2.086 1.015-3.155 0.98-1.736-0.056-2.874-0.851-3.86-1.582z"></path>
<path d="M19.668 22.846c0.104 0.116 0.425 0.249 0.594 0.318 0.213 0.089 0.433 0.168 0.661 0.222 0.547 0.129 1.162 0.147 1.736 0.070 0.714-0.096 1.428-0.334 1.889-0.851 0.165-0.184 0.346-0.376 0.216-0.545-0.845 1.21-2.329 1.528-3.823 1.199-0.82-0.18-1.002-0.344-1.274-0.415z"></path>
<path d="M25.997 12.094l1.331-3.378c0.156-0.218 0.207 0.013 0.191-0.471-0.34 0.329-1.591 3.333-1.579 3.689 0.005 0.158-0.012 0.068 0.057 0.161z"></path>
<path d="M19.189 22.046c0.043-0.14-0.034-0.322-0.050-0.503 0.003-0.021-0.041-0.852-0.054-0.923-0.056-0.32-0.117 0.052-0.109-0.416 0.003-0.172 0.029-0.291 0.021-0.478-0.154 0.073-0.129 0.038-0.163 0.265-0.056 0.38-0.157 1.373 0.030 1.672l0.325 0.383z"></path>
<path d="M25.702 16.605c0.128-0.198 0.807-3.018 0.845-3.393-0.212 0.235-1.018 3.018-0.845 3.393z"></path>
<path d="M22.736 22.905c1.046-0.181 1.911-1.14 1.916-2.215-0.013 0.010-0.029 0.023-0.038 0.032s-0.026 0.021-0.035 0.033c-0.009 0.010-0.021 0.022-0.030 0.034l-0.105 0.265c-0.127 0.361-0.298 0.708-0.52 0.981-0.196 0.241-0.324 0.297-0.577 0.458-0.129 0.082-0.214 0.125-0.325 0.191l-0.255 0.188c-0.006-0.010-0.021 0.022-0.031 0.034z"></path>
<path d="M25.885 27.785c-0.059 0.065-0.032 0.018-0.086 0.112-0.009 0.015-0.028 0.062-0.035 0.078-0.318 0.748 0.042 0.128-0.526 1.025l0.683 0.241 0.109-0.828c-0.151 0.094-0.126 0.104-0.204 0.217l0.002-0.369 0.056-0.475z"></path>
<path d="M25.662 19.663c0.098-0.33 0.106-1.714 0.167-2.204 0.074-0.596 0.346-1.403 0.342-1.962-0.252 0.389-0.342 1.432-0.431 1.981l-0.147 1.685c-0.002 0.304-0.030 0.389 0.070 0.499z"></path>
<path d="M25.064 28.406c0.258-0.076 0.506-0.698 0.649-0.917l0.052-0.063c-0.066 0.333-0.175 0.604-0.333 0.879-0.128 0.222-0.377 0.467-0.445 0.695 0.277-0.127 0.555-0.538 0.695-0.866 0.176-0.417 0.197-0.765 0.133-1.262-0.125 0.218-0.195 0.554-0.352 0.842-0.12 0.218-0.339 0.476-0.398 0.692z"></path>
<path d="M18.57 21.247c0.109-0.179 0.097-0.341 0.128-0.572 0.038-0.283 0.187-1.636 0.131-1.747-0.204 0.191-0.443 1.821-0.32 2.206 0.026 0.081 0.039 0.080 0.061 0.112z"></path>
<path d="M18.249 17.622c0.327-0.348 0.338-2.409 0.263-2.912-0.033-0.221 0.029 0.117-0.020-0.089-0.003-0.010-0.014-0.018-0.016-0.038s-0.011-0.025-0.018-0.037c-0.003 1.087-0.178 2.050-0.209 3.075z"></path>
<path d="M25.758 24.017c0.023-0.278 0.001-0.123-0.050-0.183-0.339 0.696-0.236 1.549-0.4 1.915-0.086 0.194-0.129 0.352-0.193 0.546 0.239-0.113 0.655-1.541 0.692-1.893-0.067 0.099-0.137 0.274-0.176 0.399l0.127-0.783z"></path>
<path d="M18.304 28.8c0.525-0.218 0.386-1.081 0.296-1.788-0.027-0.216-0.033-0.171-0.084-0.229-0.030 0.341-0.010 0.745-0.033 1.102-0.023 0.377-0.134 0.554-0.179 0.915z"></path>
<path d="M25.087 27.859c0.459-0.182 0.776-1.408 0.755-2.101-0.098 0.375-0.656 1.366-0.667 1.606 0.026-0.057 0.127-0.149 0.178-0.226l0.407-0.822c-0.038 0.535-0.601 1.271-0.673 1.544z"></path>
<path d="M18.302 19.138c0.101-0.145 0.094-0.19 0.135-0.364 0.029-0.124 0.056-0.224 0.081-0.338 0.119-0.559 0.299-1.817 0.316-2.339-0.096 0.141-0.080 0.2-0.108 0.374-0.117 0.704-0.395 2.101-0.423 2.668z"></path>
<path d="M18.878 26.828l-0.253-0.98c-0.013-0.062-0.016-0.101-0.045-0.167-0.051-0.115-0.005-0.028-0.078-0.108 0.016 0.246 0.211 1.832 0.353 2.059 0.086 0.137-0.028-0.002 0.123 0.096l-0.1-0.9z"></path>
<path d="M18.31 20.625c0.038-0.054 0.054 0.057 0.1-0.324l0.36-2.266c-0.292 0.523-0.498 1.834-0.46 2.59z"></path>
<path d="M25.866 13.267c0.009-0.010 0.023-0.037 0.026-0.029s0.021-0.022 0.026-0.028c0.152-0.22 0.799-2.181 0.891-2.702-0.039 0.049-0.019-0.017-0.086 0.139-0.211 0.487-0.807 2.273-0.857 2.619z"></path>
<path d="M27.722 10.742l0.379-0.139c0.062-0.176 0.101-0.417 0.082-0.593l-0.088-0.129-0.223 0.036-0.149 0.825z"></path>
<path d="M25.162 25.199c0.162-0.235 0.655-1.695 0.653-2.002-0.204 0.255-0.672 1.587-0.653 2.002z"></path>
<path d="M18.878 26.828l0.157 0.4c0.11-0.258-0.349-1.795-0.507-1.988 0.038 0.5 0.327 1.037 0.35 1.588z"></path>
<path d="M16.917 9.659c-0.010-0.338-0.066-0.371-0.291-0.715-0.090-0.137-0.29-0.522-0.414-0.579 0.057 0.22 0.494 1.086 0.706 1.294z"></path>
<path d="M25.258 26.659c0.242-0.168 0.62-1.154 0.585-1.579l-0.585 1.579z"></path>
<path d="M25.346 23.777c0.214-0.148 0.375-0.687 0.413-0.937-0.184 0.127-0.381 0.642-0.413 0.937z"></path>
<path d="M25.234 13.757c0.146-0.162 0.144-0.261 0.2-0.511 0.042-0.185 0.092-0.374 0.117-0.552-0.17 0.248-0.294 0.691-0.318 1.062z"></path>
<path d="M25.403 14.56c0.107-0.076 0.134-0.083 0.194-0.327 0.037-0.15 0.053-0.306 0.066-0.468-0.041 0.045-0.033 0.019-0.075 0.095l-0.112 0.305c-0.064 0.163-0.125 0.25-0.073 0.395z"></path>
<path d="M27.242 5.577c0.103-0.037 0.654-0.818 0.716-0.926-0.342 0.206-0.521 0.559-0.716 0.926z"></path>
<path d="M16.861 8.96c0.081-0.218-0.279-0.606-0.468-0.679l0.32 0.522c0.095 0.176 0.023 0.086 0.148 0.157z"></path>
<path d="M25.512 15.325c0.211-0.087 0.247-0.346 0.262-0.615-0.176 0.131-0.275 0.383-0.262 0.615z"></path>
<path d="M27.571 7.931c0.166-0.111 0.125-0.102 0.209-0.314 0.010-0.025 0.077-0.184 0.078-0.188 0.078-0.308 0.002-0.134-0.022-0.175-0.132 0.164-0.233 0.441-0.265 0.677z"></path>
<path d="M25.261 15.34c0.084-0.147 0.108-0.369 0.109-0.584-0.128 0.116-0.192 0.328-0.171 0.47 0.018 0.124 0.011 0.048 0.062 0.114z"></path>
<path d="M25.316 18.631c0.17-0.118 0.146-0.317 0.139-0.567-0.151 0.204-0.186 0.351-0.139 0.567z"></path>
<path d="M25.714 12.955c0.12-0.152 0.088-0.23 0.1-0.523-0.106 0.078-0.153 0.196-0.151 0.367 0.003 0.301-0.014 0.059 0.050 0.157z"></path>
<path d="M25.506 17.589c0.068-0.064 0.078-0.14 0.093-0.242 0.040-0.258-0.001-0.251-0.042-0.305-0.070 0.148-0.129 0.415-0.052 0.547z"></path>
<path d="M25.455 20.511c0.085-0.14 0.16-0.376 0.052-0.526-0.082 0.132-0.155 0.377-0.052 0.526z"></path>
<path d="M25.468 12.155c0.126-0.114 0.164-0.342 0.198-0.543-0.090 0.072-0.096 0.066-0.158 0.204-0.056 0.125-0.066 0.186-0.040 0.339z"></path>
<path d="M25.144 12.575l0.163-0.539c-0.081 0.034-0.105 0.064-0.167 0.187-0.080 0.16-0.103 0.225 0.004 0.352z"></path>
<path d="M25.815 11.149c0.129-0.064 0.138-0.076 0.202-0.226 0.041-0.096 0.065-0.188 0.092-0.283-0.131 0.098-0.254 0.292-0.293 0.509z"></path>
<path d="M25.821 10.623c-0.157 0.128-0.176 0.16-0.207 0.371 0.182-0.082 0.186-0.161 0.207-0.371z"></path>
<path d="M25.821 10.623c0.163-0.056 0.194-0.133 0.1-0.288-0.131 0.092-0.092 0.079-0.1 0.288z"></path>
<path d="M25.61 20.791c-0.041 0.041-0.099 0.091-0.1 0.192-0.002 0.232 0.042 0.12 0.118 0.145l-0.018-0.337z"></path>
<path d="M25.765 11.557c0.139-0.099 0.127-0.184 0-0.277-0.063 0.136-0.079 0.121 0 0.277z"></path>
<path d="M18.1 14.091c-0.011 0.389-0.12 2.12 0.004 2.35 0.027-0.060 0.229-2.022-0.004-2.35z"></path>
<path d="M17.218 12.286c0.009-0.6-0.368-0.799-0.592-1.273-0.059-0.124-0.101-0.313-0.21-0.37 0.205 0.444 0.464 1.366 0.801 1.643z"></path>
<path d="M17.243 12.876c-0.011-0.283-0.436-1.015-0.543-1.104 0.024 0.217 0.13 0.365 0.215 0.556 0.099 0.222 0.178 0.427 0.328 0.548z"></path>
<path d="M2.605 17.365l0.006-0.001c0.144-0.047 0.214-0.125 0.21-0.235-0.003-0.040-0.023-0.077-0.060-0.111-0.037-0.035-0.172-0.112-0.405-0.233-0.196-0.105-0.339-0.194-0.43-0.269-0.126-0.105-0.245-0.251-0.356-0.439-0.144-0.246-0.226-0.501-0.245-0.765-0.028-0.38 0.097-0.731 0.376-1.053 0.309-0.356 0.694-0.55 1.155-0.584 0.268-0.019 0.513 0.026 0.738 0.136 0.14 0.072 0.294 0.212 0.464 0.419 0.072 0.092 0.112 0.18 0.123 0.266 0.011 0.101-0.029 0.227-0.119 0.38l0.006 0.006c-0.117 0.191-0.245 0.293-0.388 0.303-0.049 0.004-0.116-0.002-0.203-0.016-0.131-0.023-0.215-0.13-0.248-0.321-0.014-0.076-0.076-0.109-0.186-0.101-0.056 0.004-0.106 0.022-0.149 0.053-0.038 0.085-0.055 0.167-0.049 0.247 0.010 0.137 0.084 0.249 0.219 0.332 0.502 0.306 0.799 0.496 0.89 0.57 0.325 0.267 0.509 0.557 0.551 0.87 0.010 0.077 0.023 0.18 0.041 0.309 0.046 0.522-0.24 0.951-0.856 1.289-0.232 0.127-0.455 0.198-0.67 0.214-0.033 0.002-0.078 0.001-0.135-0.003l-0.013-0.005c-0.788-0.068-1.23-0.333-1.324-0.79-0.023-0.104-0.040-0.178-0.049-0.219s-0.013-0.056-0.012-0.039c-0.008-0.109 0.018-0.207 0.077-0.293 0.060-0.085 0.129-0.131 0.211-0.137 0.036-0.003 0.148 0.037 0.334 0.12 0.187 0.082 0.314 0.12 0.384 0.115 0.028-0.002 0.062-0.009 0.103-0.019l0.007 0.006zM4.89 13.993l-0.005 0.001c0.165-0.191 0.384-0.297 0.654-0.317 0.227-0.017 0.396 0.001 0.506 0.054 0.127 0.109 0.202 0.29 0.228 0.541-0.010 0.2-0.009 0.467 0.003 0.802 0.062 0.175 0.142 0.258 0.239 0.251 0.037-0.003 0.093-0.026 0.167-0.068 0.044-0.023 0.072-0.109 0.086-0.258-0.041-0.208-0.080-0.498-0.114-0.866 0-0.213 0.121-0.405 0.362-0.578 0.046-0.031 0.165-0.058 0.354-0.081 0.143-0.014 0.238-0.017 0.287-0.008 0.186 0.036 0.318 0.164 0.395 0.387 0.026 0.068 0.053 0.135 0.082 0.202 0.045 0.131 0.076 0.265 0.090 0.403 0.064 0.566 0.107 0.99 0.128 1.275 0.043 0.599-0.013 1.267-0.169 2.004-0.048 0.228-0.216 0.382-0.504 0.464-0.184 0.054-0.335 0.048-0.454-0.022-0.163-0.090-0.263-0.251-0.305-0.484-0.012-0.064-0.015-0.179-0.007-0.347 0.008-0.167 0.006-0.283-0.002-0.347-0.032-0.099-0.103-0.145-0.21-0.137-0.104 0.007-0.194 0.053-0.27 0.136s-0.107 0.184-0.094 0.305c0.026 0.080 0.065 0.222 0.116 0.424 0.030 0.137 0.032 0.242 0.005 0.318-0.041 0.113-0.114 0.197-0.22 0.254-0.069 0.037-0.203 0.063-0.397 0.077-0.186 0.013-0.345-0.041-0.476-0.161-0.109-0.102-0.207-0.277-0.294-0.523-0.101-0.273-0.168-0.58-0.2-0.92-0.048-0.488-0.085-0.907-0.109-1.256-0.056-0.774-0.013-1.283 0.128-1.524zM12.208 16.852l0.006 0.006c-0.081 0.335-0.249 0.608-0.501 0.818s-0.552 0.326-0.9 0.352c-0.644 0.046-1.162-0.16-1.553-0.621-0.334-0.392-0.522-0.884-0.565-1.476-0.019-0.272-0.013-0.525 0.019-0.759 0.146-1.074 0.576-1.704 1.286-1.89 0.064-0.017 0.133-0.027 0.204-0.033 0.325-0.023 0.647 0.061 0.968 0.254s0.545 0.44 0.673 0.74c0.274 0.653 0.425 1.166 0.452 1.539 0.022 0.317-0.010 0.674-0.098 1.071h0.006zM10.669 16.522l-0.001-0.006c0.115-0.027 0.157-0.258 0.126-0.687-0.018-0.247-0.057-0.472-0.116-0.678s-0.116-0.31-0.168-0.315c-0.092-0.018-0.165 0.085-0.222 0.309s-0.076 0.467-0.057 0.731c0.036 0.491 0.181 0.706 0.438 0.647zM15.882 13.605h0.006c0.017 0.060 0.029 0.138 0.036 0.235 0.010 0.204-0.027 0.361-0.114 0.474-0.033 0.043-0.193 0.102-0.478 0.178s-0.433 0.121-0.439 0.139c-0.005 0.045 0.072 0.466 0.232 1.26 0.032 0.16 0.054 0.322 0.066 0.484 0.026 0.369 0 0.677-0.080 0.923-0.1 0.309-0.268 0.467-0.505 0.476-0.382 0.015-0.656-0.085-0.822-0.301-0.126-0.163-0.204-0.428-0.235-0.796 0.002 0.033-0.004-0.181-0.021-0.64l-0.026-0.781c-0.001-0.245 0.010-0.457 0.034-0.638-0.024 0.010-0.060 0.017-0.108 0.021-0.139 0.010-0.277-0.003-0.418-0.037-0.191-0.048-0.325-0.128-0.403-0.239-0.109-0.159-0.169-0.312-0.179-0.456-0.018-0.243 0.102-0.44 0.36-0.594 0.333-0.199 0.742-0.315 1.227-0.35 0.255-0.018 0.525-0.014 0.808 0.014 0.137 0.039 0.345 0.099 0.624 0.18 0.235 0.101 0.381 0.251 0.435 0.45z"></path>
</svg>
