<?xml version="1.0" encoding="UTF-8"?>
<!DOCTYPE svg PUBLIC "-//W3C//DTD SVG 1.1//EN" "http://www.w3.org/Graphics/SVG/1.1/DTD/svg11.dtd">
<!-- Creator: CorelDRAW 2017 -->
<svg xmlns="http://www.w3.org/2000/svg" xml:space="preserve" width="7.3658mm" height="7.3658mm" version="1.1" style="shape-rendering:geometricPrecision; text-rendering:geometricPrecision; image-rendering:optimizeQuality; fill-rule:evenodd; clip-rule:evenodd"
viewBox="0 0 736.58 736.58"
 xmlns:xlink="http://www.w3.org/1999/xlink">
 <defs>
  <style type="text/css">
   <![CDATA[
    .fil0 {fill:black}
   ]]>
  </style>
 </defs>
 <g id="Capa_x0020_1">
  <metadata id="CorelCorpID_0Corel-Layer"/>
  <path class="fil0" d="M295.79 8.31c-212.86,45.51 -326.6,240.02 -289.22,431.11 35.01,178.97 209.8,336.17 438.22,288.13 173.07,-36.41 331.48,-212.24 283.58,-430.37 -45.7,-208.1 -238.63,-330.33 -432.58,-288.87zm-167.51 535.64c53.38,-24.89 198.11,-155.27 240.07,-170.11l0.72 167.78c12.83,-1.51 213.2,-146.18 237.47,-174.06 -10.18,-11.08 -216.59,-172.69 -237.51,-174.19l-0.33 167.46c-45.2,-17.13 -191.81,-147.99 -239.57,-169.4l-0.85 352.52z"/>
 </g>
</svg>
