<?xml version="1.0" encoding="UTF-8"?>
<!DOCTYPE svg PUBLIC "-//W3C//DTD SVG 1.1//EN" "http://www.w3.org/Graphics/SVG/1.1/DTD/svg11.dtd">
<!-- Creator: CorelDRAW 2017 -->
<svg xmlns="http://www.w3.org/2000/svg" xml:space="preserve" width="22.3518mm" height="7.3658mm" version="1.1" style="shape-rendering:geometricPrecision; text-rendering:geometricPrecision; image-rendering:optimizeQuality; fill-rule:evenodd; clip-rule:evenodd"
viewBox="0 0 2235.18 736.58"
 xmlns:xlink="http://www.w3.org/1999/xlink">
 <defs>
  <style type="text/css">
   <![CDATA[
    .fil0 {fill:none}
    .fil1 {fill:black}
   ]]>
  </style>
 </defs>
 <g id="Capa_x0020_1">
  <metadata id="CorelCorpID_0Corel-Layer"/>
  <rect class="fil0" x="749.3" y="-0" width="736.59" height="736.59"/>
  <path class="fil1" d="M0.27 79.74l0 549.33c5.58,10.97 -4.9,50.1 8.22,75.63 4.85,9.44 11.06,15.8 21.13,21.03 10.3,5.36 28.22,6.5 33.41,9.7l2121.66 0c9.41,-7.05 33.6,-9.98 44.3,-36.81 2.77,-6.92 3.33,-17.47 5.92,-22.18l0 -73.29c-3.29,-7.34 -0.97,-466.94 -0.97,-517.6 0,-41.43 -6.19,-74.53 -48.48,-81.41 -8.21,-1.34 -34.57,-0.95 -39.07,-2.99l-2061.98 0c-10.74,4.8 -40.82,-5.81 -64.6,16.72 -7.2,6.83 -11.79,13.13 -15.15,25.54 -1.99,7.34 -3.37,34.01 -4.39,36.33zm783.79 21.29l-0.04 1.4 -1.03 98.99 654.54 0 0.25 -170.01 -654.2 0.01 0.48 69.61zm-650.2 100.38l412.24 -0.26c1.4,-49.84 0.25,-116.78 -0.02,-168.63 -138.26,-1.2 -274.13,0.35 -412.21,-0.99l-0.01 169.88zm1526.4 -51.15l0.58 50.37c136.26,1.96 272.28,0.81 408.57,0.79 1.63,-39.04 0.87,-78.22 -0.21,-117.28 -0.33,-12.11 2.84,-42.53 0.77,-51.36 -101.83,-1.6 -200.6,-0.32 -301.96,-0.66 -16.03,-0.05 -99.19,-2.32 -107.58,0.34l-0.17 117.8zm99.03 401.37c-3.33,-12.28 -1.9,-229.26 -1.43,-259.3 0.66,-41.61 4.34,-50.02 -40.18,-45.99 -1.5,12.55 0.78,115.26 0.95,137.43 0.22,29.27 2.59,111.39 -3.56,135.1 -1.77,2.68 -12,3.59 -14.98,3.91 -3.24,31.68 -2.31,95.7 -0.34,131.01 0.54,9.62 -0.74,14.96 8.02,18.09 11.38,4.07 35.56,4.67 45.97,-1.16 4.39,-10.77 4.71,-36.1 5.08,-49.25 1.56,15.85 0.11,35.64 5.54,50.11 10.5,2.97 36.76,5.38 46.19,0.92 7.89,-3.74 10.85,-29.44 10.01,-40.72 0.3,10.24 -1.31,28.34 3.75,35.99 7.86,7.92 32.18,10.14 44.59,5.46 15.6,-5.89 10.76,-27.11 10.76,-43.3 0,-22.09 3.5,-92.07 -1.51,-107.29l-15.35 -2.59c-5.27,-38.92 -2.69,-95.99 -2.59,-136.28 0.12,-45.01 2.34,-93.15 0.51,-137.72l-19.66 -0.2c0.09,42.81 4.8,248.86 -2.69,274.25l-16.58 3.05c-2.84,31.16 -1.61,62.13 -2.34,94.01 -2.3,-30.5 2.11,-62.87 -1.43,-93.61l-11.1 -2.67c-3.9,-1.36 -1.35,-0.08 -4.09,-2.08 -6.5,-26.16 -2.19,-102.11 -2,-133.63 0.14,-22.96 -0.16,-45.96 -0.24,-68.93 -0.07,-20.9 1.72,-49.07 -0.02,-68.92 -9.2,-4.13 -29.08,-4.32 -35.41,2.77 -7.24,8.13 -5.16,26.43 -5.1,38.02 0.14,29.07 0.08,58.14 0.09,87.21 0.03,58.82 0.29,117.5 -0.86,176.31zm-1584.24 -26.79c-2.92,16.21 -1.2,96.81 -1.12,119.16 0.09,25.69 2.24,31.04 28.84,30.7 8.16,-0.11 19.83,0.06 24.39,-4.91 5.33,-5.79 3.25,-16.91 6.56,-23.48 4.23,10.62 -6.3,30.95 30.5,28.29 26.39,-1.91 30.11,-5.19 30.11,-32 0.01,-20.24 -1.09,-40.1 -1.03,-60.5 0.06,-19.46 3.09,-39.73 -0.97,-58.72 -25.45,-5.29 -18.71,-6.59 -17.78,-53.81 0.64,-32.26 1.42,-215.26 -0.87,-222.8 -32.63,-0.83 -39.09,-5.09 -39.16,31.49 -0.04,17.2 2.99,56.82 -0.58,70.52 -5.51,-11 -1.1,-53.45 -1.47,-69.11 -0.79,-33.37 -2.14,-36.02 -38.13,-33.44 -3.62,16.44 -0.82,122.8 -0.46,147.33 0.44,29.46 1.29,82.04 -1.12,111.22 -1.71,20.57 -3.26,12.79 -17.71,20.06zm1338.76 108.67c1.3,2.3 -0.12,-2.15 1.33,3.08 1.98,7.16 0.13,27.72 5.74,33.63 7.33,7.09 34.96,6.95 45.13,2.44 10.38,-4.62 10.02,-31.36 9.64,-44.14 -1.04,-34.76 1.21,-71.78 -1.69,-105.58 -23.14,-2.79 -17.86,-9.89 -17.65,-56.18 0.12,-24.86 0.5,-49.7 0.68,-74.56 0.35,-48.74 0.44,-97.61 -1.08,-146.24 -39.24,-1.78 -38.96,-1.79 -39.87,36.55 -1.82,76.08 1.14,151.22 -0.58,224.74 -4.92,-38.21 -1.7,-170.4 -1.78,-224.77 -0.01,-10.31 1.82,-27.87 -5.35,-32.84 -5.48,-3.8 -26.07,-4.16 -33.39,-2.89 -6.79,40.49 5.35,256.27 -2.5,270.48 -5.46,9.88 -15.38,-2.43 -16.4,16.96 -1.82,34.63 1.87,71.56 0.14,102.77 -1.58,28.61 -1.64,38.04 29.14,37.77 27.12,-0.24 27.31,-3.99 28.49,-41.22zm82.09 -353.84l0.46 218.04c0.42,32.81 -4.65,17.11 -18.28,26.72 -3.89,24.63 -0.95,63.6 -0.97,90.03 -0.01,12.63 -2.29,46.28 4.02,54.69 6.58,8.76 41.39,8.95 50.12,1.15 3.91,-4.98 7.96,-49.17 4.85,-54.86 0.98,13.18 1.26,46.1 6.46,55.56 4.91,4.87 32.28,5.37 45,0.84 6.52,-2.32 7.23,-3.16 8.23,-10.12 4.72,-32.87 1.69,-103.65 0.73,-138.59l-16.83 -3.32c-8.41,-32.74 -2.86,-255.35 -2.67,-273.79l-19.9 -0.09c0.26,34.59 4.29,264.91 -2.51,273.14 -2,2.43 -11.86,3.33 -15.84,4.11l-2.49 24.8 -0.89 -24.37 -16.35 -3.61c-7.26,-45.74 -2.36,-242.38 -1.99,-273.92l-20.91 -0.31 -0.24 33.9zm346.13 43.62l-0.21 200.29c4.2,19.39 -1.42,120.3 4.05,145.09 14.45,6.82 51.45,15.73 55.88,-8.88 1.17,-6.48 0.07,-15.64 0.53,-18.66 1.18,-7.74 0.14,-3.3 2.44,-5.83 2.17,-7.64 2.26,-95.81 0.1,-103.08 -4,-4.39 -1.59,-2.44 -3.65,-8.78 -18.2,-5.43 -20.34,0.26 -17.74,-55.28 1.17,-24.84 -0.04,-49.7 -0.26,-74.55 -0.43,-49.02 -0.19,-98.36 -0.23,-147.42 -20.55,-2.21 -38.21,-4.32 -39.42,17.98 -1.01,18.51 -1.81,40.72 -1.49,59.12zm-1405.39 201.94c-5.77,-4.67 -10.68,-3.63 -15.23,-7.24 -6.74,-7.99 0.58,-239.84 -1.91,-265.19 -0.92,-9.38 -10.38,-8.41 -22.72,-6.63 -20.52,2.96 -19.16,19.31 -19.18,40.54l0.94 357.31c0.06,27.45 1.34,29.98 29.41,30.02 27.66,0.04 29.4,-3.05 29.41,-30.04 0.01,-36.2 2.89,-83.94 -0.72,-118.77zm736.59 -0.8c-6.56,21.9 -2.7,79.63 -2.13,102.69 0.33,13.58 -2.36,39.51 9.23,44.69 13.44,6 32.69,3.03 45.82,-1.24 4.22,-36.74 2.25,-75.32 4.45,-112.38 2.32,-39.09 -0.26,-77.69 -0.57,-116.75 -0.3,-38.28 2.19,-77.93 -0.2,-115.91 -2.13,-33.81 5.84,-74.7 -10.62,-78.06 -3.15,-0.64 -25.56,-0.71 -28.86,-0.29 -3.46,71.39 -0.21,177.92 -0.34,256.18 -0.03,20.05 -2.72,14.15 -16.78,21.07zm117.71 -0.1c-18.81,-7.69 -16.67,2.47 -17.64,-56.14 -0.62,-37.17 2.31,-203.07 -0.14,-221.2 -8.65,-3.18 -31.07,-1.24 -35.85,4.2 -6.53,7.41 -3.78,26.95 -3.75,38.33l-0.88 257.42c-0.08,15.39 -2.98,109.39 4.45,120.13 4.36,6.3 26.91,8.36 35.57,7.77 15.95,-1.1 18.5,-8.15 18.79,-23.78 0.26,-14.17 -0.1,-28.71 0.52,-42.48 1.19,-26.63 1.51,-57.89 -1.07,-84.25zm-955.14 -277.55l0.1 256.59c-0.01,17.22 -1.38,17.47 -16.93,20.59 -0.7,33.8 0.07,67.9 -0.12,101.75 -0.08,13.61 -3.93,37.47 6.01,45.09 7.88,6.04 37.97,4.19 46.73,0.17 9.97,-17.86 4.26,-86.34 4.31,-111.37l1.69 -236.34c0.14,-16.65 -1.55,-39.39 -2.66,-57.37 -1.21,-19.59 1.87,-19.76 -39.13,-19.11zm428.27 -0.38c-2.47,15.55 -1.06,43.23 -1.09,60 -0.05,35.93 2.33,194.88 -2,209.59 -3.71,12.57 -14.95,-2.74 -16.47,14.11l0.01 122.32c0.8,21.57 11.59,25.28 39.91,20.66 21.63,-3.53 21.35,-19.24 19.93,-40.35 -3.19,-47.33 -0.97,-131.24 -0.97,-181.45 0,-40.79 0,-81.58 0,-122.37 0,-65.3 10.24,-88.26 -39.32,-82.51zm1077.75 277.18l0.21 -200.29c-2.07,-18.02 -0.69,-40.3 -1.68,-59.15 -1.31,-24.75 -18,-19.34 -38.89,-17.95 -2.1,18.99 -0.12,48.53 0.01,68.65 0.27,40.06 2.95,183.41 -2.95,204.95 -22.36,6.58 -15.7,-8.62 -16.25,79.19 -0.1,17.25 -2.43,58.65 3.73,71.74 9.51,5.6 34.85,5.8 45.32,1.61 8.65,-3.47 7.62,-6.44 7.91,-17.03 0.24,-8.92 0.55,-17.86 0.74,-26.78 0.45,-20.44 0.11,-91.93 1.85,-104.94zm-913.28 0.85c-1.84,14.43 -0.75,36.74 -0.92,52.08 -0.19,16.85 -0.36,33.72 -0.45,50.61 -0.07,14.13 -2.74,37.54 7.86,43.92 11.23,6.76 33.28,4.06 45.88,0.27 10.93,-26.95 5.31,-285.12 5.09,-346.63 -0.06,-18.9 0.46,-40.34 -0.6,-58.99 -0.49,-8.6 -2.86,-16.41 -10.04,-19.01 -5.56,-2.01 -22.22,-1.63 -27.91,0.11 -0.17,48.94 -0.26,97.88 -0.48,146.82 -0.12,24.64 -0.79,49.99 -0.18,74.55 1.53,61.53 -1.14,47.65 -18.25,56.27zm-66.49 0c-14.4,-8.83 -16.66,6.81 -16.78,-43.61 -0.16,-70.79 1.69,-141.77 1.1,-212.4 -0.18,-22.07 1.94,-21.83 -7.53,-22.95 -25.8,-3.07 -32.56,2.39 -32.83,27.12 -1.32,120.98 2.91,247.43 -0.32,367.19 -0.94,34.98 3.74,36.51 42.35,33.4 10.09,-0.81 9.47,0.08 12.05,-3.13 7.02,-8.72 6.23,-131.3 1.96,-145.62zm-341.31 -277.11c-3.51,21.84 2.2,166.83 -1.49,176.31 -5.6,14.39 0.68,-7.03 0.99,27.65 0.14,15.32 1.79,56.61 -2.75,68.93 -7.5,2.15 -11.85,-0.72 -14.98,5.93 -3.86,8.18 -1.29,52.93 -1.29,64.4 -0.01,18.08 -5.15,70.72 6.53,80.22 6.92,5.63 28.23,5.6 37.81,2.71 13.61,-4.12 13.85,-14.02 13.81,-29.47l0.01 -350.26c0,-11.76 1.58,-30.13 -2.95,-40.17 -4.52,-10.03 -22.97,-10.04 -35.69,-6.25zm-529.03 0.18c-26.84,-4.44 -38.07,-3.22 -39.05,18.07 -0.89,19.18 0.14,41.01 0.14,60.52 0,40.79 -0.01,81.59 -0.01,122.38 0,58.73 1.19,125 0.04,182.87 -0.4,20.37 -4.24,41.08 17.9,43.47 7.29,0.78 20.35,-0.05 27.45,-1.79 10.2,-2.51 11.65,-8.37 12.07,-19.11 0.79,-19.7 -0.75,-40.52 -0.26,-60.58 2.42,-98.92 0.84,-60.11 -14.13,-74.45 -5.29,-5.07 -3.36,-19.95 -3.23,-28.21 0.25,-16.15 0.71,-227.79 -0.92,-243.17zm1054.2 275.94c-23.86,-5.42 -18.72,-3.14 -18.1,-55.28l0.01 -220.89c-43.31,-6.57 -39.2,4.45 -39.18,42.25l-0.01 337.6c-0.12,38.82 -7.09,49.55 38.17,46.86 26.25,-1.56 19.56,-20.17 19.96,-65.15 0.22,-24.49 2.5,-62.29 -0.85,-85.39zm997.99 -255.02c-0.01,11.16 2.31,245.33 -1.81,250.34 -2.78,3.4 -14.37,1.08 -15.84,5.67l-0.43 101.28c-0.32,13.64 -2.71,35.97 4.75,45.57 6.15,1.61 29.52,3.14 36.91,2.85 20.88,-0.82 16.83,-14.53 16.77,-41.39l-1.81 -380.96c-2.66,-9.48 -31.89,-6.39 -38.53,-5.45l-0.01 22.09zm-1427.86 402.3c6.71,-18.19 4.56,-50.4 3.66,-70.99 -3.52,-80.32 10.94,-71.65 -16.23,-79.76 -7.28,-63.71 -2.41,-201.71 -2.84,-273.88 -46.21,-2.36 -38.61,-3.7 -38.61,92.66l0 261.64c0,12.28 -1.55,56.58 2.05,64.71 5.38,12.16 39.59,11.46 51.97,5.62zm985.5 -595.02l0.38 43.28c34.61,2.11 32.99,0.85 68.91,0.51l199.55 0 -0.01 -62.09 -268.82 -0.16 -0.01 18.46zm421.22 448.29c-5.97,-3.66 -11.23,-2 -15.56,-5.4 -6.85,-7.06 -3.37,-52.96 -3.38,-65.9 -0.01,-22.98 -0.02,-45.95 -0.03,-68.92 -0.02,-45.84 -0.04,-91.68 -0.07,-137.52 -6.08,-0.73 -14.16,-1.42 -19.65,0.68 -1.28,54.19 -0.38,108.04 0.05,162.15l-0.44 101.84c-2.9,20.64 -18.31,0.9 -18.28,23.25 0.03,34.65 -2.27,67.45 -0.67,102.79 0.45,9.98 -1.87,29.42 6.98,33.87 8.22,4.13 27.03,5.48 37.59,3.44 22.03,-4.26 14.43,-35.2 14.64,-68.25 0.1,-15.94 2.87,-71.58 -1.18,-82.03zm-2009.28 -1.66c-1.32,35.73 -2.21,96.86 0.53,133 1.01,13.22 1.05,18.92 28.29,19.07 17.62,0.1 25.89,0.23 28.7,-17.09 2.52,-15.5 0.66,-27.97 0.35,-42.79 -0.33,-15.9 1.87,-81.15 -1.57,-90.89 -14.91,-4.16 -14.33,1.63 -17.03,-19.19 -2.49,-19.22 0.94,-84.6 0.98,-109.42 0.1,-49.47 -1.13,-98.77 -1.16,-148.23l-19.14 -0.43c-3.35,80.26 0.37,174.27 -0.35,257 -0.17,19.24 -3.56,16.19 -19.6,18.97zm1891.34 9.89c2.16,7.27 2.07,95.44 -0.1,103.08 -1.7,8.72 -0.34,20.52 1.69,29.02 4.03,16.85 41.7,10.8 48.35,7.69 8,-3.75 7.37,-14.1 8.04,-24.31 1.08,-16.36 2.26,-114.88 -1.78,-123.52 -1.68,-1.93 -13.32,-3.94 -14.55,-5.25 -7.74,-17.38 -2.31,-234.54 -2.67,-272.95l-21.03 0 -0.57 206.71c-0.07,17.27 2.47,52.55 -1.64,66.93 -7.52,2.1 -12.18,1.59 -16.33,4.81l0.59 7.79zm-1264.57 -12.01l-15.89 2.9 -1.64 129.39c1.05,21.07 7.64,21.54 28.52,21.56 39.58,0.04 30.3,-16.27 30.22,-72.26l-0.09 -67.52c-0.05,-27.83 -19.59,5.84 -19.59,-30.95l0 -256.53c-6.39,0 -13.71,-0.95 -19.63,1.04l-1.9 272.37zm-366.43 0.92c-5.41,0.76 -12.47,1.12 -16.44,3.27 -1.49,1.7 -2.04,120.77 -0.75,133.21 1.77,17.06 12.6,16.48 28.97,16.45 34.95,-0.05 30.18,-5.04 30.31,-61.01 0.07,-29.14 0.6,-60.73 -1.28,-89.65 -12.08,-2.77 -18.93,-2.5 -20.09,-15.93 -0.95,-10.94 0.99,-25.16 1.17,-36.49 1.12,-71.03 -0.35,-152.08 -0.45,-224l-19.07 0.14c-0.94,37.11 2.74,247.12 -2.37,274.01zm-59.15 -36.09c0,13.95 0.12,21.51 -2.34,34.81l-15.63 3.86c-1.3,28.61 -1.88,101.19 -0.57,124.26 0.85,15.13 -0.08,24.38 14.86,25.79 50.79,4.78 43.5,-3.72 43.26,-66.34l-0.38 -82.23 -16.52 -4.77c-6.16,-81.5 -3.02,-194.65 -2.23,-274.52l-20.54 0.01 0.09 239.13zm1081.01 38.33c-3.42,21.03 -4.45,132.77 3.88,147.25 9.05,4.01 35.94,6.32 44.82,1.34 10.72,-6.02 8.92,-31.03 8.67,-43.44 -0.7,-34.25 0.13,-69.02 -0.96,-103.18 -10.27,-4.86 -13.15,-2.64 -16.13,-8.33 -3.15,-6.58 -2.36,-241.7 -2.42,-271.1l-18.28 0.12c-4.97,70.4 1.17,180.17 -0.57,258.78 -0.41,18.69 -2.55,15.52 -19.01,18.56zm-245.14 1.06c-3.25,27.38 -0.37,71.98 -0.44,101.28 -0.04,13.24 -3.03,37.68 6.13,45.04 8.21,6.59 37.49,3.62 46.8,0.54 9.04,-15.49 7.52,-123.69 3.47,-146.51 -3.99,-2.23 -10.79,-2.78 -15.26,-5.98 -4.71,-12.84 -3.37,-113.57 -3.34,-135.03 0.02,-17.91 1.93,-130.48 0.47,-137.38l-18.94 -0.34c-2.45,23.04 -0.95,51.24 -0.77,74.41 0.42,52.5 3.33,134.03 -0.3,184.01 -1.63,22.39 -3.33,12.04 -17.82,19.96zm-165.73 -226.49c0.4,38.68 2.92,80.17 2.28,118.18l0.44 88.7c-0.72,21 -8.33,13.39 -19.77,19.61 -3.2,3.38 -0.89,69.21 -0.91,81.59 -0.03,15.04 -1.84,34.93 -0.44,49.22 1.68,17.25 12.14,21.09 29.58,19.85 18.96,-1.35 27.59,-1.9 28.35,-21.2 1.79,-45.54 0.65,-83.62 0.07,-129.47 -13.56,-6.7 -16.15,-1.74 -18.02,-20.23 -4.49,-44.41 1.2,-144.69 0.46,-193.57l-1.19 -64.16 -17.98 -0.36 -2.87 51.84zm-199.01 225.91c-4.03,10.47 -4.03,124.56 0.06,139.08 3.91,13.89 22.43,13.12 36.89,11.5 17.66,-1.98 19.83,-9.43 19.77,-27.6l0.43 -95.67c0.06,-5.96 0.59,-17.52 -1.54,-22.78 -2.9,-7.2 -10.87,-5.16 -17.08,-8.17 -6.69,-28.91 -2.95,-101.69 -2.87,-135.04 0.1,-46.15 0.75,-92.27 0.88,-138.4l-18.96 -0.63c-2.25,22.14 -0.91,50.27 -0.84,72.92 0.08,24.79 -0.13,49.79 0.39,74.55 0.64,30.19 1.84,79.81 0,109.76 -1.25,20.41 -0.13,14.77 -17.13,20.48zm-226.18 -276.97c0.41,60.35 4.49,223.47 -1.64,272.95l-17.31 3.73c-1.74,11.81 -0.46,33 -0.44,45.88 0.02,14.12 -0.9,85.43 0.92,93.55 3.27,14.57 21.86,11.79 37.18,10.75 19.35,-1.33 20.12,-7.68 19.96,-26.93 -0.12,-16.01 -0.53,-31.79 -0.19,-47.83 0.25,-11.87 1.97,-59.8 -0.64,-70.06 -1.85,-7.27 -7.82,-7.34 -15.4,-8.59 -5.47,-18.3 -3.96,-168.74 -3.73,-206.9 0.12,-21.42 3.02,-46.76 0.1,-67.42l-18.81 0.87zm668.17 273.36l-15.37 2.76c-1.39,12.08 -3.68,120.49 -1.43,135.04 3.39,21.93 34.79,18.43 48.48,13.28 7.45,-2.81 7.72,-5.33 8.36,-14.42 1.85,-26.33 2.19,-64.95 1.89,-91.68 -0.49,-45.64 2.54,-41.21 -19.05,-44.87 -12.55,-73.65 3.83,-223.67 -2.38,-273.64l-17.88 0.16c-2.59,7.64 0.24,118.64 0.34,136.9 0.23,42.6 2,95.17 -2.96,136.47zm-202.16 -474.21l-0.18 61.73 170.58 0.19 0.34 -60.38c-15.37,-4.9 -148.4,-3.38 -170.74,-1.54zm-1.26 131.88l171.97 0.33 0.05 -60.91 -170.93 -1.34 -1.09 61.92zm-613.2 -116.74c-81.42,10.92 -59.56,118.33 7.62,112.17 78.84,-7.22 60.82,-121.34 -7.62,-112.17zm-163.09 1.53c-78.5,18.82 -45.52,124.13 21.5,109.47 75.29,-16.48 48.54,-126.26 -21.5,-109.47zm1076.22 -1.24c-80.24,13.94 -57.01,121.62 13.23,111.18 75.82,-11.27 54.07,-122.88 -13.23,-111.18zm-430.94 1.12c-76.12,18.74 -47.55,123.27 23.12,109.47 27.78,-5.43 49.21,-31.87 43.2,-65.74 -4.87,-27.45 -32.33,-52.09 -66.32,-43.73zm-170.97 84.34c-5.23,3.58 -7.33,0.58 -9.11,6.46 -3.67,12.11 6.84,-2.6 9.26,38.27l17.6 0.77 0.38 -26.12 10.5 -4.62 -1.12 -10.17c-10.89,-5.87 -9.72,-0.12 -9.68,-25.16l0.19 -79.29 -16.95 -0.06 -1.07 99.92zm-55.2 -38.86c13.87,12.05 10.96,3.13 9.97,35.11 -0.32,10.37 -1.15,39.57 0.55,48.29l16.38 0.71 1.06 -79.89 8.84 -3.64 -0.36 -10.43c-3.58,-2.69 -3.62,-1.78 -8.27,-3.13 -2.17,-16.96 0.03,-33.56 -1.78,-48.55l-16.19 0.12c-0.95,12.25 1.06,22.89 0.6,34.73 -0.78,20.19 -11.02,9.72 -10.8,26.68zm-74.68 -45.02c-2.66,4.02 -4.28,2.79 -9.11,3.76l0.66 13.13c10.69,5.12 8.68,3.2 9.49,18.22 1.46,27.27 0.32,67.3 -0.02,94.25l16.12 -0.89 0.74 -104.55c4.49,-9.51 9.31,0.62 9.75,-18.37l-8.95 -4.41 -0.16 -17.09c-20.87,-2.79 -18.6,-4.26 -18.52,15.95z"/>
 </g>
</svg>
