<?xml version="1.0" encoding="UTF-8"?>
<!DOCTYPE svg PUBLIC "-//W3C//DTD SVG 1.1//EN" "http://www.w3.org/Graphics/SVG/1.1/DTD/svg11.dtd">
<!-- Creator: CorelDRAW 2017 -->
<svg xmlns="http://www.w3.org/2000/svg" xml:space="preserve" width="12.9538mm" height="12.0226mm" version="1.1" style="shape-rendering:geometricPrecision; text-rendering:geometricPrecision; image-rendering:optimizeQuality; fill-rule:evenodd; clip-rule:evenodd"
viewBox="0 0 1295.38 1202.26"
 xmlns:xlink="http://www.w3.org/1999/xlink">
 <defs>
  <style type="text/css">
   <![CDATA[
    .fil0 {fill:#3D3D3F}
   ]]>
  </style>
 </defs>
 <g id="Capa_x0020_1">
  <metadata id="CorelCorpID_0Corel-Layer"/>
  <path class="fil0" d="M471.47 621.4c15.54,-33.82 290.55,-309.63 323.71,-326.95 33.6,26.63 112.95,96.99 128.39,139.12 -79.25,51.89 -263.8,287.55 -328.01,311.31l-124.09 -123.48zm366.26 -439.98c31.13,23.99 71.78,66.31 97.37,95.73l-39.38 42.93 -99.21 -96.22c-37.95,14.46 -428.63,419.3 -468.98,458.72l52.98 163.86 -202.47 203.97c66.92,16.82 41.21,19.52 126.8,-65.35 36.14,-35.83 71.78,-66.66 101.9,-105.13l163.16 51.56 467.44 -462.03c-35.96,-45.13 -81.07,-70.23 -99.16,-114.24 26.87,-18.59 16.25,-19.93 50.02,-34.33 23.36,37.08 67.14,68.44 95.27,97.21l33.87 -30.93c-37.62,-49.23 -131.05,-134.85 -182.24,-186.9 -24.13,-24.54 -38.22,-46.04 -67.86,-57.83 -17.95,18.87 -16.95,12.51 -29.51,38.98z"/>
 </g>
</svg>
