<!-- Generated by IcoMoon.io -->
<svg version="1.1" xmlns="http://www.w3.org/2000/svg" width="32" height="32" viewBox="0 0 32 32">
<title>sol-one</title>
<path d="M20.256 25.706c0.188 0.377 0.025 1.26 2.331 2.058-0.009-0.565 0.017-1.373-0.088-1.927-0.344-1.812-0.327-0.944-0.678-1.356-1.196 0.479-0.826 0.064-1.565 1.224z"></path>
<path d="M15.559 29.802c0.487-0.361 0.438-0.128 0.853-0.702 0.082-0.115 0.569-0.962 0.595-1.313 0.143-1.942-0.141-1.273-2.146-1.354l0.698 3.369z"></path>
<path d="M14.695 5.321l2.334 0.081c-0.137-2.094-0.329-1.634-0.98-3.204-0.946 1.072-1.168 1.416-1.354 3.123z"></path>
<path d="M9.043 27.808c1.269-0.562 1.992-1.196 2.554-2.102-0.901-0.883-0.584-0.956-2.136-1.2l-0.418 3.302z"></path>
<path d="M3.966 22.639l3.099-0.129-0.503-2.404c-1.187 0.596-0.803 0.233-1.669 1.125-0.68 0.7-0.606 0.836-0.926 1.408z"></path>
<path d="M24.635 22.424l2.967 0.298c-0.741-1.401-0.747-1.752-1.793-2.488-1.279 1.051-0.904 0.798-1.174 2.19z"></path>
<path d="M2.291 15.954c1.091 0.869 1.429 1.051 3.084 1.243l-0.062-2.472-3.022 1.228z"></path>
<path d="M25.809 11.642l2.075-2.33-3.228 0.172c0 0.616-0.146 0.676 0.152 1.217 0.71 1.277 0.442 0.526 1.001 0.941z"></path>
<path d="M6.145 12.019c0.251-0.345 0.739-1.147 0.771-1.264 0.274-1.015 0.119-0.597-0.118-1.117l-2.749-0.496 2.096 2.877z"></path>
<path d="M26.515 17.192l3.193-1.049-2.984-1.555z"></path>
<path d="M20.202 6.202l1.549 1.125c0.211-0.305 0.964 0.073 0.846-3.166-1.148 0.64-1.746 1.148-2.395 2.041z"></path>
<path d="M9.398 7.126c1.547-0.113 1.21 0.030 2.139-0.924-0.582-1.18-1.106-1.369-2.236-1.829l0.097 2.753z"></path>
<path d="M13.373 8.72c-9.717 3.376-4.952 17.634 5.186 14.622 8.785-2.612 5.376-18.291-5.186-14.622z"></path>
</svg>
