<!-- Generated by IcoMoon.io -->
<svg version="1.1" xmlns="http://www.w3.org/2000/svg" width="32" height="32" viewBox="0 0 32 32">
<title>solicitar-transporte</title>
<path d="M16 8c-1.467 0-2.667-1.2-2.667-2.667s1.2-2.667 2.667-2.667 2.667 1.2 2.667 2.667-1.2 2.667-2.667 2.667zM22.667 2.667h2.667v0.533c-0.133 2.933-1.067 5.2-3.067 6.8-0.667 0.533-1.467 0.933-2.267 1.2v18.133h-2.667v-8h-2.667v8h-2.667v-15.867c-0.4 0.133-0.667 0.267-0.8 0.4-1.2 0.933-1.853 2.133-1.867 4.133v0.667h-2.667v-0.667c0-2.667 0.947-4.787 2.813-6.387 1.467-1.2 3.853-2.28 6.52-2.28s3.573-0.613 4.64-1.413c1.333-1.067 2.027-2.587 2.027-4.587v-0.667zM5.333 21.333h4v8h-4v-8z"></path>
</svg>
