<!-- Generated by IcoMoon.io -->
<svg version="1.1" xmlns="http://www.w3.org/2000/svg" width="32" height="32" viewBox="0 0 32 32">
<title>sun</title>
<path d="M12.011 20.653v0zM14.335 13.442c0.007-0.093-0.033-0.031 0.076-0.109l0.718-0.306c0.136-0.031 0.241-0.072 0.333-0.087 0.895-0.147 1.861 0.163 2.468 0.723 0.631 0.582 1.053 1.259 1.059 2.245 0.002 0.703-0.234 1.378-0.606 1.863-0.078 0.1-0.283 0.337-0.373 0.417-0.332 0.29-0.593 0.448-1.024 0.622-0.42 0.005-0.792 0.103-1.29 0.032-0.819-0.119-1.852-0.674-2.089-1.339-0.056-0.16-0.421-0.348-0.475-1.363-0.018-0.321 0.074-0.774 0.152-1.062 0.199-0.734 0.562-0.991 0.919-1.399 0.094-0.109 0.083-0.12 0.132-0.236zM27.836 1.715c-0.013 0.005-0.029 0.015-0.069 0.038-0.16 0.092-0.082 0.094-0.089 0.149-0.073 0.165-0.082 0.116-0.238 0.268-0.094 0.087-0.139 0.145-0.221 0.243-0.183 0.221-2.022 1.763-2.479 2.173-1.211 1.087-2.829 2.401-3.938 3.458-0.401 0.386-0.199 0.268-0.493 0.438-0.248 0.143-0.216 0.285-0.578 0.328-0.252-0.116-0.471-0.254-0.703-0.341l-0.756-0.267c-0.283-0.069-0.555-0.169-0.826-0.196-0.261-0.027-0.223-0.015-0.442-0.072-0.355-0.092-0.777 0.036-0.892-0.176l-0.578-1.517c-0.038-0.116-0.082-0.237-0.136-0.375-0.074-0.201-0.199-0.596-0.317-0.772l-0.096-0.089c-0.011 0.305 0.049 0.625-0.007 0.904l-0.317 1.622c-0.022 0.14-0.040 0.506-0.201 0.558-0.292 0.092-0.194-0.033-0.212-0.042l-0.883 0.239c-1.075 0.384-1.433 0.647-2.332 1.25-0.169-0.045-0.417-0.232-0.558-0.326l-2.242-1.341c-0.208-0.125-0.361-0.239-0.569-0.361l-2.242-1.338c-0.511-0.275-3.184-1.964-3.411-2.035-0.121 0.032-0.045-0.018-0.114 0.061 0.221 0.076 0.139 0.062 0.299 0.223 0.076 0.078 0.17 0.141 0.257 0.21 0.547 0.438 0.908 1.132 1.37 1.52 0.196 0.165 0.040-0.027 0.239 0.272l1.506 1.796c0.096-0.022 0.116-0.053 0.259-0.025-0.025 0.246-0.119 0.119-0.027 0.25 0.025 0.036 0.143 0.149 0.183 0.194 0.107 0.12 0.23 0.267 0.344 0.397l2.514 2.883c0.183 0.223 0.132 0.348 0.031 0.576l-0.435 1.098c-0.643 1.831 0.034 2.195-0.799 2.267l-2.414 0.899c-0.167 0.058-0.227 0.040-0.33 0.181l2.671 0.538c0.692 0.12 0.292-0.161 0.824 1.318 0.167 0.468 0.435 1.022 0.7 1.439 0.080 0.125 0.152 0.212 0.232 0.328l0.226 0.332c-0.105 0.199-0.228 0.368-0.353 0.578l-5.321 8.82c0.223-0.018 0.056 0.018 0.201-0.076 0.056-0.035 0.133-0.1 0.18-0.145l2.352-2.069c0.129-0.116 0.192-0.147 0.324-0.281l3.353-2.925c0.156-0.125 0.203-0.176 0.344-0.31l1.35-1.163c0.136-0.14 0.165-0.212 0.355-0.149 0.129 0.042 0.297 0.149 0.439 0.216 0.58 0.272 1.321 0.451 1.966 0.547 0.372 0.053 0.77 0.098 1.042 0.12 0.015 0.165 0.313 0.897 0.406 1.129 0.123 0.306 0.56 1.705 0.759 1.85l0.458-2.336c0.040-0.304 0.14-0.531 0.147-0.83 0.685-0.014 2.336-0.763 2.983-1.25 0.105-0.078 0.265-0.234 0.395-0.216 0.114 0.015 6.673 4.029 7.664 4.612l1.515 0.904c-0.232-0.159-0.85-0.672-0.984-0.892l-0.033-0.056c-0.005-0.006-0.014-0.018-0.018-0.025l-0.29-0.263c-0.006-0.007-0.015-0.016-0.025-0.022l-0.388-0.46c-0.022-0.047-0.049-0.116-0.056-0.127l-0.321-0.266c-0.297-0.198-0.176-0.254-0.458-0.524l-1.106-1.357c-0.009-0.005-0.022-0.011-0.032-0.015-0.287-0.199-1.303-1.524-1.55-1.854l-0.087-0.1c-0.007-0.007-0.016-0.018-0.022-0.025l-0.243-0.259c-0.19-0.165-0.23-0.25-0.245-0.549 0.185 0.053 0.143-0.027 0.232 0.14-0.076-0.145-0.228-0.234-0.333-0.366l-0.685-0.805c-0.167-0.21-0.107-0.076-0.332-0.413 0.558-1.055 0.883-2.249 0.883-3.489l3.024-1.163c-0.089-0.125-0.199-0.107-0.377-0.134l-2.253-0.444c-1.004-0.186-0.156 0.009-1.198-2.059-0.065-0.127-0.112-0.228-0.169-0.341-0.072-0.139-0.129-0.208-0.214-0.346-0.087-0.143-0.121-0.208-0.219-0.34-0.288-0.379-0.29-0.305 0.116-0.935 0.129-0.199 0.23-0.371 0.355-0.576 0.069-0.116 0.094-0.176 0.163-0.301l4.727-7.834c-0.020 0.002-0.038 0-0.051 0h-0.076zM20.661 19.855c-0.105 0.073-0.219-0.041-0.458-0.139-0.172-0.069-0.33-0.152-0.52-0.225l-0.379-0.176c-0.052-0.025-0.085-0.038-0.129-0.058-0.156-0.071-0.366-0.151-0.513-0.232-0.62 0.415-1.303 0.919-2.233 0.978-1.167 0.073-1.79-0.127-2.604-0.558l-1.814 1.209 0.883-2.046c-0.198-0.134-0.368-0.435-0.497-0.667-0.163-0.286-0.241-0.478-0.346-0.817-0.294-0.944-0.214-2.131 0.232-2.945 0.203-0.371 0.241-0.334-0.326-1.102-0.18-0.243-0.589-0.928-0.783-1.078 0.045-0.096 0.013-0.076 0.078-0.156 0.277 0.005 1.76 0.636 2.059 0.919 0.042-0.020 0.087-0.031 0.14-0.060l0.712-0.408c1.125-0.562 2.49-0.549 3.63 0.015 0.453 0.226 0.31 0.125 1.352-0.569l0.582-0.393c0.080-0.082 0.042 0.009 0.049-0.092 0.025-0.058 0.011-0.174 0.187-0.203 0.216-0.034 0.082-0.002 0.139 0.015 0.015 0.038 0.024 0.007 0.031 0.141l-0.098 0.372c0.098 0.045 0.096-0.118 0.1 0.141-0.252 0.098-0.094-0.174-0.451 0.636-0.060 0.134-0.129 0.263-0.201 0.415-0.025 0.051-0.022 0.049-0.040 0.091-0.23 0.502-0.093 0.293 0.102 0.676 0.221 0.428 0.337 0.549 0.522 1.111 0.129 0.391 0.297 1.558 0.123 1.888 0.056 0.163 0.076 0.032 0.129 0.194-0.357 0.165-0.080 0.127-0.408 0.801-0.225 0.462-0.312 0.479-0.006 0.897 0.136 0.185 0.946 1.357 0.895 1.506-0.009-0.002-0.025-0.018-0.029-0.009l-0.111-0.073z"></path>
</svg>
