<?xml version="1.0" encoding="UTF-8"?>
<!DOCTYPE svg PUBLIC "-//W3C//DTD SVG 1.1//EN" "http://www.w3.org/Graphics/SVG/1.1/DTD/svg11.dtd">
<!-- Creator: CorelDRAW 2017 -->
<svg xmlns="http://www.w3.org/2000/svg" xml:space="preserve" width="24.5532mm" height="7.3658mm" version="1.1" style="shape-rendering:geometricPrecision; text-rendering:geometricPrecision; image-rendering:optimizeQuality; fill-rule:evenodd; clip-rule:evenodd"
viewBox="0 0 2455.32 736.58"
 xmlns:xlink="http://www.w3.org/1999/xlink">
 <defs>
  <style type="text/css">
   <![CDATA[
    .fil0 {fill:none}
    .fil1 {fill:black}
   ]]>
  </style>
 </defs>
 <g id="Capa_x0020_1">
  <metadata id="CorelCorpID_0Corel-Layer"/>
  <rect class="fil0" x="859.37" y="-0" width="736.59" height="736.59"/>
  <path class="fil1" d="M-0.91 735.62l2455.65 0.97 1.54 -734.43 -16.87 -0.82c-407.02,0.78 -814.09,0.15 -1221.11,0.15 -120.75,0 -1198.55,-4.73 -1219.24,2.62l0.03 731.51zm2229.74 -290.01c-0.68,65.51 -0.02,131.3 -0.08,196.85 -0.04,45.81 -9.44,58.73 39.55,58.28 30.2,-0.28 74.64,5.67 94.16,-8.59 4.6,-14.22 7.29,-623.37 1.61,-657.76l-94.59 0.26c-5.54,49.64 -0.9,260.06 -0.88,337.59 0.02,67.11 4.93,66.44 -39.77,73.37zm-987.31 249.43c19.48,9.25 103.22,8.71 128,2.42 12.01,-23.19 5.87,-208.79 5.69,-253.16 -51.97,-4.47 -42.82,-16.43 -42.79,-68.64 0.04,-75.57 4.75,-295.89 -1.14,-341.17l-91.88 0.1c-4.09,31.81 -1.04,426.85 -1.04,494.99 0,39.05 -4.31,134.95 3.16,165.46zm-828.12 -251.58c-1.07,36.21 -4.68,228.72 2.89,248.09 11.92,17.14 123.63,7.5 123.63,7.5 16.64,-8.41 10.01,-124.71 10.01,-155.79l0 -338.63c0,-53.25 3.19,-117.26 -0.49,-169.17l-92.92 -0.94c-5.8,43.17 -1.14,264.05 -1.11,337.72 0.01,46.28 10.12,71.42 -42.01,71.22zm1457.15 1.68c-52.14,-4.18 -42.57,-19.84 -42.55,-69.48 0.03,-48.66 2.44,-316.59 -1.28,-341.08l-91.73 -0.03c-4.31,28.65 -1.3,487.67 -1.3,529.23 0,154.38 -13.45,136.92 59.24,136.85 92.4,-0.09 77.59,17.84 77.59,-123.16 0,-44.1 0.25,-88.26 0.03,-132.33zm-762.67 -21.99c-6.05,22.27 -23.38,17.5 -34.45,24.34 -0.67,35.28 -4.57,226.86 3.32,243.82 9.78,14.18 76.51,9.96 104.19,9.53 17.73,-0.27 21.36,-0.17 25.2,-11.81 6.28,-32.05 0.48,-591.39 2.08,-652.6l-96.14 -0.3 0 295.06c0,13.69 3.84,86.39 -4.2,91.96zm-890.91 272.06c8.26,-28.54 3.84,-207.17 3.19,-251.71 -53.77,-0.17 -45.04,-18.59 -45.02,-67.84 0.05,-76.71 4.75,-293.64 -0.92,-340.84l-90.1 -0.19c-4.53,49.06 -0.67,513.19 -0.7,604.4 -0.02,45.39 -11.25,61.98 36.78,61.73 28.12,-0.15 76.63,5.09 96.77,-5.55zm364.2 -0.03c19.45,9.1 103.39,8.52 128.09,2.43 12.25,-23.5 6.5,-209.21 5.91,-253.43 -55.07,-3.95 -46.05,-13.57 -46.01,-68.52 0.06,-93.3 4.49,-263.23 -0.45,-339.94l-89.25 -1.19c-4.08,31.69 -1.04,427.01 -1.04,495.05 0,41.45 -4.44,131.51 2.75,165.6zm1029.29 -272.37c-4.96,22.14 -19.22,17.45 -41.84,22.54l0.15 197.11c-0.05,67.79 -4.64,58.11 77.08,58.17 24.63,0.02 50.2,6.94 57.25,-14.33l0.48 -650.42 -89.71 0.18c0.45,14.9 3.97,381.78 -3.41,386.75zm-206.94 21.68c-0.38,43.91 -7.53,229.02 5.92,252.71 25.02,7.27 107.58,8.14 128.08,-1.85 8.62,-38.17 4.19,-201.33 2.81,-251.56 -51.56,-1.42 -41.35,-24.61 -41.33,-71.55 0.03,-76.28 4.66,-290.13 -0.94,-337.6l-52.01 0.24c-4.08,93.29 -0.34,235.41 -0.31,337.36 0.01,54.27 10.7,66.54 -42.22,72.25zm-659.96 -0.06c-0.19,46.49 -5.44,219.13 2.91,249.61 18.8,11.22 105.36,11.34 130.92,1.17 9.14,-38.33 3.9,-200.44 3.1,-251.7 -54.14,0.15 -44.88,-19.59 -44.84,-67.85 0.03,-48.33 2.46,-316.68 -1.27,-340.83l-51.65 0.11c-4.5,85.29 -0.4,236.93 -0.39,333.88 0.01,50.51 11.48,70.27 -38.78,75.61zm1155.23 -0.11c-1.93,39.48 -4.17,225.29 3.01,250.8 19.11,9.07 103.67,8.67 127.81,2.33 12.84,-27.6 6.44,-205.36 5.79,-252.62 -51.2,-2.33 -40.47,-24.71 -40.46,-72.59 0.01,-74.63 4.67,-292.83 -1.18,-337.59l-51.46 0.27c-5.04,73.11 -0.47,246.53 -0.45,337.32 0.01,49.09 10.23,72.98 -43.06,72.08zm-1650.55 0.57l-0.08 197.57c-0.06,67.22 -3.46,58.13 73.97,58.17 26.54,0.01 43,4.45 60,-8.29 7.2,-21.96 3.19,-210.77 2.93,-248.93 -52.88,0.44 -43.48,-23.56 -43.46,-71.17 0.03,-84.86 4.63,-274.47 -0.61,-337.02l-51.78 -0.6c-5.27,66.97 -0.68,250.23 -0.66,337.62 0.01,12.33 1.64,43.54 -1.77,53.49 -5.91,17.29 -20.43,15.93 -38.54,19.16zm1815.59 -0.04c-2.07,41.63 -0.43,87.13 -0.43,129.19 0,33.21 -7.17,100.08 6.3,123.34 22.89,6.34 109.99,6.77 127.81,-2.15 8.15,-33.98 3.81,-203.34 2.64,-250.63 -53.98,-0.69 -44.86,-18.49 -44.84,-68.94 0.03,-79.3 4.74,-289.15 -0.83,-340.79l-45.42 -0.16c-5.34,63.54 -0.7,252.07 -0.69,337.53 0,53.13 10.54,70.21 -44.54,72.61zm-1155.33 0.41l0.13 197.2c-0.06,67.05 -3.83,58.13 73.65,58.17 18.88,0.01 44.63,4.8 58.5,-6.87 10.15,-16.21 5.46,-215.16 4.34,-250.37 -55.77,0.58 -48.94,-12.93 -48.88,-64.31 0.1,-78.7 4.61,-293.88 -1,-344.58l-45.33 0.32c-5.84,55.37 3.51,373.1 -2.63,391.03 -5.95,17.37 -20.43,15.34 -38.78,19.41zm701.96 -22.45c7.38,-4.97 3.86,-371.85 3.41,-386.75l89.71 -0.18 -0.48 650.42c8.7,-6.25 3.62,-140.61 3.62,-160.14 0,-92.77 4.15,-426.03 -0.58,-491.22 -17.08,-4.61 -75.02,-3.51 -94,-1.03l-1.68 388.9zm-502.58 0.34c8.04,-5.57 4.2,-78.27 4.2,-91.96l0 -295.06 96.14 0.3c-1.6,61.21 4.2,620.55 -2.08,652.6 11.02,-4.74 5.14,-140.74 5.14,-159.45 0,-88.8 3.96,-436.06 -0.58,-495.03l-101.47 -1.19 -1.35 389.79z"/>
 </g>
</svg>
