<?xml version="1.0" encoding="UTF-8"?>
<!DOCTYPE svg PUBLIC "-//W3C//DTD SVG 1.1//EN" "http://www.w3.org/Graphics/SVG/1.1/DTD/svg11.dtd">
<!-- Creator: CorelDRAW 2017 -->
<svg xmlns="http://www.w3.org/2000/svg" xml:space="preserve" width="10.7526mm" height="10.4138mm" version="1.1" style="shape-rendering:geometricPrecision; text-rendering:geometricPrecision; image-rendering:optimizeQuality; fill-rule:evenodd; clip-rule:evenodd"
viewBox="0 0 1075.26 1041.38"
 xmlns:xlink="http://www.w3.org/1999/xlink">
 <defs>
  <style type="text/css">
   <![CDATA[
    .fil0 {fill:#4AA0EB}
    .fil1 {fill:#F43735}
   ]]>
  </style>
 </defs>
 <g id="Capa_x0020_1">
  <metadata id="CorelCorpID_0Corel-Layer"/>
  <g id="_2093397777360">
   <path class="fil0" d="M27.14 941.91c23.07,-18.12 40.68,-34.36 62.82,-53.57 30.3,-26.28 28.48,-38.23 84.79,-37.96 181.3,0.86 585.87,9.89 723.08,-1.15l-0.33 -285.75c-142.89,-14.26 -231.59,32.74 -297.92,-63.1 -48.07,23.74 -90.43,69.32 -139.31,91.52l-429.77 -294.65 -3.36 644.66zm433.13 -404.17c44.07,-18.68 87.8,-66.1 126.49,-80.25l-0.04 -195.84c-148.99,1.42 -386.16,-5.59 -518.28,2.26l289.96 205.1c32.1,20.87 68.86,51.12 101.87,68.73z"/>
   <path class="fil1" d="M673.96 109c-63.83,32.61 -46.98,82.66 -46.96,163.05 0.07,252.04 -21.63,248.84 169.45,248.78 244.12,-0.08 250.65,23.34 250.6,-168.39 -0.07,-239.45 25.57,-251.36 -170.21,-251.3 -42.53,0.01 -173.69,-7.06 -202.88,7.86zm135.12 141.13c11.19,5.29 1.31,0.6 14.59,2.9l20.73 4.41 0.21 141.88 20.21 -0.06 1.84 -175.67c-27.57,-1.74 -43.56,4.22 -57.58,26.54z"/>
  </g>
 </g>
</svg>
