<!-- Generated by IcoMoon.io -->
<svg version="1.1" xmlns="http://www.w3.org/2000/svg" width="32" height="32" viewBox="0 0 32 32">
<title>todas-las-tarjetas</title>
<path d="M21.864 28.559h-19.409c-0.242 0-0.519-0.277-0.519-0.519v-8.2h20.447v7.992c0 0.35-0.183 0.727-0.519 0.727zM1.936 15.17c0-0.484 0.242-0.726 0.726-0.726h19.098c0.162 0 0.339 0.13 0.418 0.204 0.312 0.294 0.204 0.871 0.204 1.56h-20.447v-1.038zM0.691 14.962v13.286c0 0.668 0.783 1.557 1.453 1.557h20.032c0.661 0 1.453-0.92 1.453-1.557v-13.39c0-0.391-0.361-0.962-0.592-1.172-0.283-0.258-0.774-0.488-1.276-0.488h-18.994c-1.133 0-2.076 0.648-2.076 1.764z"></path>
<path d="M10.966 3.441c0.184 0 1.077 0.259 1.326 0.335l16.763 5.033c0.669 0.219 1.43 0.258 0.594 2.001l-19.513-5.812c0.007-0.349 0.206-1.557 0.83-1.557zM6.607 12.264c0 0.288 0.581 0.207 0.934 0.207 0.457 0 0.632-1.049 0.853-1.846 0.19-0.682 0.425-1.346 0.6-2.098 0.638 0.014 15.454 4.545 17.163 5.048l2.454 0.764-1.881 6.319c-0.111 0.346-0.21 0.613-0.319 1.030-0.379 1.44-0.88 0.628-1.952 0.539v1.245c1.034 0.497 2.235 0.479 2.89-0.639 0.263-0.45 0.909-3.058 1.158-3.72l1.119-3.76c0.278-1.037 1.683-5.207 1.683-5.79 0-1.863-2.327-2.052-4.191-2.659-0.908-0.296-1.74-0.489-2.632-0.793-0.443-0.151-0.877-0.248-1.286-0.375l-5.282-1.569c-1.096-0.313-6.209-1.973-6.642-1.973-1.401 0-1.851 0.396-2.261 1.89l-2.030 6.792c-0.096 0.335-0.379 1.131-0.379 1.386z"></path>
<path d="M2.87 23.577c0 0.264 0.224 0.622 0.519 0.622h12.663c0.669 0 0.669-1.246 0-1.246h-12.455c-0.42 0-0.727 0.226-0.727 0.623z"></path>
<path d="M2.87 26.379c0 0.397 0.307 0.623 0.727 0.623h7.784c0.693 0 0.693-1.246 0-1.246h-7.784c-0.42 0-0.727 0.226-0.727 0.622z"></path>
<path d="M19.477 21.086c0 0.744 0.355 0.846 0.62 1.353 1.259 2.408-0.62 4.275-0.62 4.667 0 0.233 0.082 0.228 0.208 0.415 1.050-0.088 2.686-3.537 0.657-6.16-0.281-0.364-0.363-0.47-0.865-0.275z"></path>
<path d="M18.751 26.379c0.737 0 1.462-1.931 0.789-3.488-0.557-1.291-1.641-1.022-0.894 0.061 1.331 1.931-1.169 3.427 0.105 3.427z"></path>
<path d="M17.505 24.096c0 0.498-0.514 1.246 0.207 1.246 0.579 0 0.823-1.232 0.442-1.896-0.145-0.254-0.239-0.317-0.546-0.388-0.664 0.601-0.104 0.54-0.104 1.038z"></path>
</svg>
