<!-- Generated by IcoMoon.io -->
<svg version="1.1" xmlns="http://www.w3.org/2000/svg" width="32" height="32" viewBox="0 0 32 32">
<title>transporte-en-bus-v2</title>
<path d="M16.869 21.687h4.281v0.535h-3.879c-0.417 0-0.353-0.16-0.401-0.535zM31.717 10.852c0-0.712-0.36-0.92-1.070-0.936 0-1.048-0.152-1.843-0.695-2.382-0.424-0.423-1.418-0.828-2.248-0.828-0.056-2.516-1.477-3.162-3.621-3.602-4.466-0.917-5.401-0.812-9.756-0.812-2.194 0-7.532 0.788-8.702 1.597-0.465 0.321-0.829 0.874-1.011 1.531-0.38 1.372 0.21 1.081-1.12 1.421-1.535 0.392-2.142 1.151-2.142 3.075-0.717 0.016-0.983 0.263-1.070 0.826v2.668c0.002 0.345 0.065 0.357 0.133 0.652 0.644 0.309 2.81 0.825 2.81-1.070 0-1.332 0.234-2.8-0.803-3.076 0-1.21 0.251-2.104 1.873-2.14 0 2.418-0.207 4.708-0.395 6.963l-0.14 9.089h-0.535c0 3.433-0.271 3.345 0.787 3.359 0.436 0.006 0.908-0.015 1.353-0.015-0.146 0.305-0.555 2.542 1.337 2.542h1.414c2.206-0.019 2.064-0.255 2.064-2.542h12.173c-0.011 0.476-0.639 2.542 1.337 2.542h1.875c1.746-0.038 1.602-0.36 1.602-2.542 1.351 0 0.917-0.065 1.739-0.133v-3.21h-0.535l-0.669-16.052c1.431 0.032 1.873 0.743 1.873 1.873 0 0.379-0.385 0.479-0.669 0.669 0 3.92-0.581 4.013 1.873 4.013 0.606 0 0.849-0.313 0.936-0.861v-2.617zM15.264 22.222h-3.879v-0.535h4.28c-0.031 0.377 0.003 0.535-0.401 0.535zM5.901 21.151c0-1.918 2.942-2.013 2.942 0 0 1.943-2.942 1.779-2.942 0zM24.895 19.68c1.878 0 2.187 2.809-0.134 2.809-1.728 0-1.636-2.809 0.134-2.809zM16.869 20.215v0.535h4.281v-0.535h-4.281zM11.385 20.215v0.535h4.28v-0.535h-4.28zM16.869 8.177h9.631c0 2.327 0.535 7.107 0.535 9.497h-10.166v-9.497zM5.633 8.177h9.765v9.497h-10.3c0-2.182 0.535-7.137 0.535-9.497zM11.385 3.896h8.962v2.274h-8.962v-2.274z"></path>
<path d="M20.214 11.788c0 0.387-0.030-0.328 0.318 0.618 0.843 2.296 2.535 1.634 3.077 0.101 0.031-0.088 0.102-0.294 0.148-0.387 0.195-0.4 0.203-0.037 0.203-0.333 0-2.787-3.745-2.806-3.745 0z"></path>
<path d="M19.812 17.273h4.682c-0.391-0.739-1.028-1.338-2.14-1.338h-0.134c-1.309 0-1.952 0.476-2.408 1.338z"></path>
</svg>
