<!-- Generated by IcoMoon.io -->
<svg version="1.1" xmlns="http://www.w3.org/2000/svg" width="32" height="32" viewBox="0 0 32 32">
<title>tripadvisor</title>
<path fill="#08808a" d="M8.409 14.090c-2.106 0-3.809 1.703-3.809 3.803s1.703 3.803 3.803 3.803c2.1 0 3.803-1.703 3.803-3.803 0.006-2.101-1.696-3.803-3.797-3.803v0zM8.409 20.616c-1.501 0-2.723-1.216-2.723-2.723s1.216-2.723 2.723-2.723c1.507 0 2.717 1.222 2.717 2.723s-1.216 2.723-2.717 2.723v0z"></path>
<path fill="#08808a" d="M10.314 17.886c0 1.045-0.847 1.893-1.893 1.893s-1.893-0.847-1.893-1.893c0-1.045 0.847-1.893 1.893-1.893s1.893 0.847 1.893 1.893z"></path>
<path fill="#08808a" d="M23.597 14.090c-2.1 0-3.803 1.703-3.803 3.803s1.703 3.803 3.803 3.803c2.101 0 3.803-1.703 3.803-3.803s-1.703-3.803-3.803-3.803zM23.597 20.616c-1.501 0-2.723-1.216-2.723-2.723s1.216-2.723 2.723-2.723c1.507 0 2.717 1.222 2.717 2.723s-1.216 2.723-2.717 2.723v0z"></path>
<path fill="#08808a" d="M25.502 17.886c0 1.045-0.847 1.893-1.893 1.893s-1.893-0.847-1.893-1.893c0-1.045 0.847-1.893 1.893-1.893s1.893 0.847 1.893 1.893z"></path>
<path fill="#08808a" d="M28.949 12.506l2.236-2.219h-4.533c-2.539-2.065-6.757-3.785-10.667-3.785-3.916 0-8.098 1.72-10.637 3.785h-4.545l2.237 2.219c-1.382 1.377-2.237 3.281-2.237 5.387 0 4.201 3.405 7.606 7.606 7.606 1.928 0 3.69-0.718 5.031-1.904l2.575 1.892 2.546-1.851-0.030-0.071c1.347 1.198 3.115 1.928 5.061 1.928 4.201 0 7.606-3.406 7.606-7.606-0.006-2.1-0.866-4.004-2.248-5.381zM22.636 10.346c-3.601 0.451-6.425 3.417-6.639 7.090-0.219-3.678-3.050-6.651-6.662-7.090 1.815-1.305 4.13-1.946 6.651-1.946s4.835 0.641 6.65 1.946zM8.409 23.6c-3.156 0-5.707-2.557-5.707-5.707s2.557-5.707 5.707-5.707c3.15 0 5.707 2.557 5.707 5.707-0.006 3.15-2.557 5.707-5.707 5.707v0zM23.597 23.6c-3.15 0-5.707-2.557-5.707-5.707s2.557-5.707 5.707-5.707c3.15 0 5.707 2.557 5.707 5.707-0.006 3.15-2.557 5.707-5.707 5.707z"></path>
</svg>
