<!-- Generated by IcoMoon.io -->
<svg version="1.1" xmlns="http://www.w3.org/2000/svg" width="32" height="32" viewBox="0 0 32 32">
<title>tumbrl</title>
<path d="M11.019 12.259c2.525-0.883 2.646-1.596 3.449-4.256l2.531 0.006 0.077 4.002 3.91 0-0 2.991-3.91 0.003c-0.442 5.181-0.515 7.466 3.9 5.786l0.009 2.063c-0.837 1.74-5.647 1.236-6.983-0.079-1.45-1.427-0.831-5.815-0.896-8.216l-2.093 0.001 0.006-2.301zM2.707 14.415v3.17c0.406 0.858 0.293 2.064 1.47 4.418 3.315 6.632 9.346 6.755 10.541 7.29h2.566c1.197-0.537 8.795-0.9 11.437-9.506 0.218-0.708 0.277-1.846 0.573-2.505v-2.566c-0.296-0.659-0.356-1.796-0.573-2.505-1.099-3.58-3.535-6.466-6.856-8.106-0.764-0.377-1.356-0.619-2.234-0.875-0.707-0.206-1.731-0.248-2.347-0.524h-2.566c-0.662 0.297-1.807 0.359-2.506 0.573-0.809 0.248-1.346 0.467-2.074 0.827-1.545 0.763-2.311 1.363-3.393 2.427-1.086 1.067-1.799 1.928-2.567 3.463-0.341 0.683-0.598 1.279-0.846 2.059-0.23 0.724-0.347 1.775-0.624 2.36z"></path>
</svg>
