<!-- Generated by IcoMoon.io -->
<svg version="1.1" xmlns="http://www.w3.org/2000/svg" width="32" height="32" viewBox="0 0 32 32">
<title>twiiter-bird</title>
<path fill="#aa1018" d="M26.22 8.666c0.782-0.859 1.611-1.326 1.991-2.79-0.658 0.199-1.319 0.598-2.014 0.841-1.121 0.392-1.151 0.475-1.861-0.132-1-0.855-2.562-1.402-4.253-1.13-3.031 0.488-4.749 2.987-4.39 6.489-7.267-0.44-10.003-4.973-11.071-5.546-0.42 1.542-0.984 2.335-0.388 4.282 0.402 1.314 1.147 2.070 1.975 2.768-1.118 0.025-1.437-0.397-2.265-0.54 0.123 3.171 1.754 4.287 4.039 5.249-0.596 0.202-1.376 0.171-2.113 0.12 0.54 2.28 2.558 3.375 4.764 3.742-1.845 1.802-4.488 2.168-7.591 2.205 1.22 1.346 5.672 2.385 8.059 2.389 5.796 0.011 10.504-2.824 13.234-7.66 1.683-2.981 1.67-4.518 2.039-8.241 0.534-0.59 0.954-0.715 1.485-1.303 0.39-0.432 0.733-0.979 1.094-1.432-0.722 0.072-1.662 0.58-2.736 0.688z"></path>
</svg>
