<!-- Generated by IcoMoon.io -->
<svg version="1.1" xmlns="http://www.w3.org/2000/svg" width="32" height="32" viewBox="0 0 32 32">
<title>twister</title>
<path fill="#ed3237" d="M5.747 31.428c0 0.060 0.109 0.115 0.079 0s0.129-0.002-0.023-0.015c-0.064-0.006-0.056-0.089-0.056 0.015z"></path>
<path fill="#000" d="M7.61 21.214c0.056-0.101 0.254-0.294 0.376-0.348 0.049-0.018 0.166-0.112 0.433-0.22 0.831-0.336 1.409-0.080 1.716-0.080 0-0.473 0.031-0.337-0.131-0.546-0.283-0.365-0.311-0.929-0.311-1.427 0-0.188 0.006-0.656 0.059-0.765 0.081 0.060 0.098 0.136 0.153 0.229 0.234 0.397 0.542 1.057 0.525 1.537-0.011 0.324-0.109 0.399-0.237 0.59 0.060 0.113 0.119 0.215 0.176 0.324 0.179-0.041 0.333-0.218 0.638-0.363l0.356-0.145c0.146-0.049 0.238-0.074 0.391-0.11 0.324-0.157 0.943-0.044 1.307-0.016l0.052-0.337c-0.038-0.049-0.029-0.037-0.074-0.078l-0.032-0.027c-0.005-0.004-0.012-0.009-0.017-0.013s-0.011-0.009-0.016-0.013l-0.119-0.117c-0.494-0.6-0.368-1.374-0.336-2.019 0.006-0.123-0.005-0.188 0.015-0.308 0.070-0.422 0.19-1.282 0.632-1.4-0.027-0.117-0.086-0.219-0.118-0.353-0.149 0-0.094 0.003-0.199 0.036l-0.569 0.137c-0.305 0.034-0.706-0.026-0.909-0.026 0.013 0.156 0.075 0.316 0.088 0.471 0.286 0 0.396-0.040 0.606 0.277 0.293 0.442 0.029 1.945-0.136 2.255-0.042-0.031-0.025-0.017-0.061-0.056l-0.053-0.065c-0.317-0.464-0.819-1.477-0.675-2.053 0.075-0.303 0.129-0.246 0.159-0.345s-0.093-0.289-0.134-0.367c-0.409 0.216-0.448 0.257-0.933 0.392-0.57 0.159-0.822 0.101-1.426 0.105-0.128 0.001-0.203-0.089-0.203 0.504 0.307 0.071 0.517 0.32 0.6 0.607 0.247 0.851-0.141 1.54-0.158 1.748h-0.059c-0.023-0.085-0.023-0.057-0.062-0.144l-0.481-1.168c-0.104-0.259-0.206-0.676-0.023-0.935 0.136-0.192-0.017-0.21-0.082-0.492-0.128 0.011-0.513 0.353-1.163 0.518-0.156 0.040-0.249 0.005-0.472 0.018-0.255 0.014-0.025-0.012-0.188 0.054-0.13 0.054-0.223 0.008-0.375 0.040-0.142 0.030-0.187 0.076-0.365 0.076v0.412c0.347 0.007 0.692 0.34 0.888 0.584 0.103 0.129 0.194 0.304 0.284 0.452 0.085 0.14 0.182 0.329 0.25 0.487l0.309 0.781c0.034 0.111 0.052 0.184 0.085 0.298 0.226 0.778-0.078 0.787-0.255 1.050l0.207 0.412 0.065-0.059z"></path>
<path fill="#000" d="M19.175 14.765c0.192 0.045 0.189 0.002 0.324-0.088-0.060-0.258-0.166-0.399-0.273-0.935-0.074-0.375-0.11-0.653-0.11-1.126-0.090 0.002-0.293 0.059-0.353 0.088 0 1.183-0.085 0.736-1.047 0.896-1.114 0.186-2.587 1.271-1.913 2.623 0.718 1.437 2.609 0.474 3.137 1.132 0.028 0.035 0.041 0.053 0.052 0.097 0.017 0.065 0.011 0.155-0.007 0.213l-0.102 0.163c-0.089 0.097-0.156 0.136-0.275 0.196-0.449 0.225-1.16 0.208-1.565-0.066-0.297-0.202-0.439-0.648-0.517-0.984-0.14 0.011-0.222 0.058-0.383 0.058 0.005 0.222 0.269 0.505 0.266 1.059-0.005 0.881 0.007 0.512-0.148 1.179 0.137 0.011 0.046 0.016 0.161 0.045 0.081 0.020 0.135 0.014 0.222 0.014 0-0.384 0.245-0.791 0.542-0.872 0.398-0.108 0.71 0.383 2.034-0.056 0.241-0.080 0.409-0.175 0.609-0.333 0.138-0.11 0.279-0.291 0.377-0.447 0.003-0.005 0.008-0.013 0.011-0.018 0.372-0.639 0.33-2.405-1.1-2.397-0.719 0.004-1.181 0.013-1.609-0.305-0.492-0.366-0.033-1.225 0.883-0.794 0.239 0.113 0.719 0.414 0.785 0.658z"></path>
<path fill="#000" d="M30.481 11.057l-0.093-0.119-0.101-0.1c-0.138-0.123-0.233-0.175-0.425-0.223-0.261-0.065-0.524-0.002-0.716 0.106-0.332 0.186-0.518 0.539-0.7 0.83-0.060 0.096-0.050 0.1-0.113 0.123-0.059-0.123 0.029-0.219 0.029-0.53-0.115 0.010-0.135 0.054-0.218 0.107-0.049 0.030-0.063 0.034-0.12 0.057l-0.389 0.17c-0.352 0.149-1.022 0.258-1.422 0.256-0.62-0.002-0.71-0.174-0.601 0.187 0.128 0.425 0.25 0.099 0.578 0.277 0.073 0.039 0.048 0.026 0.108 0.069 0.211 0.153 0.324 0.361 0.445 0.585 0.53 0.976 0.795 1.853 0.796 2.975 0 0.247-0.105 0.618-0.231 0.799-0.066 0.096-0.092 0.111-0.182 0.171 0.003 0.131 0.041 0.304 0.057 0.447 0.023 0.209-0.080 0.2 0.532-0.211 0.053-0.035 0.096-0.068 0.162-0.103 0.072-0.039 0.103-0.052 0.176-0.088l0.558-0.207c0.101-0.025 0.156-0.004 0.253-0.011 0.232-0.018 0.025-0.005 0.166-0.071 0.195-0.092 0.589-0.019 0.716-0.019 0.041-0.086 0.144-0.411 0.147-0.53-0.481 0-0.641-0.132-0.929-0.572-0.192-0.292-0.32-0.803-0.388-1.143-0.076-0.374-0.13-0.94-0.095-1.405 0.007-0.085 0.035-0.25 0.057-0.326 0.019-0.070 0.021-0.060 0.045-0.132l0.182-0.408c0.045-0.080 0.095-0.171 0.187-0.196 0.045 0.094 0.069 0.246 0.117 0.353 0.081 0.179 0.118 0.118 0.118 0.383 0.003 0.001 0.010-0.006 0.011-0.003 0.026 0.088-0.023-0.027 0.073-0.012 0.060 0.010 0.167 0.12 0.358 0.221-0.034 0.085 0.002 0.013-0.117 0.088 0.448 0 0.891 0.019 1.112-0.507 0.198-0.473 0.1-0.842-0.14-1.287z"></path>
<path fill="#000" d="M24.269 13.411c0-0.832 0.458-0.899 0.567-0.361 0.057 0.282 0.287 1.127 0.287 1.303 0 0.1-0.108 0.102-0.274 0.168-0.405 0.16-0.391 0.29-0.514-0.412-0.040-0.227-0.066-0.444-0.066-0.699zM22.944 14.589c0 0.447 0.077 0.844 0.191 1.193 0.085 0.262 0.284 0.716 0.448 0.936 0.215 0.289 0.312 0.412 0.526 0.593 0.025 0.021 0.029 0.025 0.048 0.041 0.493 0.428 1.231 0.602 1.866 0.285 0.349-0.175 0.649-0.507 0.82-0.859 0.126-0.258 0.252-0.491 0.133-0.683-0.064-0.104-0.113-0.234-0.202-0.3-0.084 0.175-0.134 0.545-0.332 0.817-0.111 0.152-0.262 0.364-0.428 0.455-0.249 0.136-0.446 0.072-0.639-0.138l-0.215-0.286c-0.165-0.28-0.507-1.098-0.507-1.436l0.328-0.173c0.476-0.245 1.345-0.387 1.851-0.387 0-0.832-0.66-2.029-1.425-2.374-0.52-0.234-1.065-0.17-1.532 0.153-0.11 0.076-0.168 0.149-0.26 0.241-0.415 0.409-0.669 1.229-0.669 1.921z"></path>
<path fill="#000" d="M5.157 17.563l0.090-0.237c0.004-0.006 0.008-0.024 0.009-0.020l0.138-0.891 0.088-0.059c-0.006-0.001-0.145 0.081-0.14-0.293 0.004-0.323-0.070-0.146-0.158-0.675-0.016-0.097-0.052-0.282-0.055-0.387 0.3-0.144 0.52-0.1 0.669 0.155 0.129 0.22 0.19 0.487 0.243 0.773l0.035 0.229 0.171-0.015c0.222 0.020 0.232-0.022 0.34-0.184 0.079-0.119 0.182-0.21 0.25-0.31-0.021-0.089-0.061-0.163-0.077-0.249-0.015-0.078-0.005-0.056-0.005-0.124-0.001-0.105 0.019-0.010-0.021-0.113-0.175-0.457-0.163-1.326-0.163-1.84h-0.353c-0.010 0.115 0.055 0.046-0.183 0.2-0.313 0.203-0.411 0.263-0.775 0.432-0.692 0.323-1.812 0.578-2.605 0.575-0.265-0.001-0.556 0.007-0.774-0.022-0.066-0.009-0.361-0.027-0.381-0.027-0.11-0.001-0.178 0.089-0.229 0.167l0.589 2.326c0.136 0 0.56-0.066 0.673-0.152 0.050-0.038 0.074-0.068 0.074-0.156-0.005-0.392-0.096-0.226 0.011-0.79 0.055-0.293 0.202-0.492 0.538-0.492 0 0.481 0.267 1.358 0.669 1.746 0.2 0.192 0.49 0.349 0.727 0.48 0.141 0.078 0.246 0.127 0.386 0.207 0.169 0.096 0.12 0.102 0.18-0.116 0.034-0.123 0.029 0.034 0.038-0.137z"></path>
<path fill="#000" d="M19.882 12.322c0.058 0.249 0.187 0.652 0.206 0.883-0.108 0.052-0.175 0.046-0.32 0.064-0.139 0.017-0.175 0.054-0.358 0.054 0.013 0.153 0.084 0.235 0.088 0.412 0.262 0 0.359-0.059 0.707-0.059 0 0.188 0.352 2.212 0.391 2.436 0.080 0.459 0.223 1.227 0.558 1.562 0.239 0.239 0.484 0.242 0.789 0.242 0.325 0 0.604-0.311 0.773-0.494l0.582-0.714-0.235-0.324c-0.061 0.022-0.373 0.359-0.646-0.032-0.021-0.030-0.033-0.056-0.050-0.097-0.179-0.445-0.337-1.723-0.447-2.204l-0.124-0.789c0.219-0.005 0.942-0.33 1.030-0.353-0.002-0.114-0.105-0.353-0.147-0.442-0.179 0.042-0.297 0.119-0.462 0.186-0.092 0.037-0.138 0.056-0.231 0.093-0.106 0.042-0.171 0.050-0.279 0.075l-0.235-2.032c-0.38 0-0.211-0.056-0.471 0.442-0.249 0.479-0.344 0.538-0.668 0.804-0.152 0.125-0.277 0.193-0.451 0.285z"></path>
<path fill="#000" d="M13.551 14.265h-0.442c-0.269 0-0.368-0.088-0.648-0.088-0.049 0.212-0.029 0.247-0.029 0.501 0.322 0 0.532 0.040 0.773 0.316 0.277 0.317 0.522 1.842 0.522 2.304 0 0.386 0.001 0.712-0.152 1.055-0.099 0.222-0.27 0.344-0.467 0.476 0.073 0.137 0.145 0.325 0.265 0.412l0.376-0.331c0.563-0.465 1.406-0.689 2.148-0.515 0.069 0.017 0.074 0.032 0.156 0.050 0.077-0.115 0.117-0.218 0.117-0.412-0.099-0.026-0.111-0.055-0.195-0.128-0.225-0.196-0.32-0.345-0.462-0.598-0.219-0.392-0.438-1.141-0.462-1.629-0.020-0.4 0.026-1.488 0.001-1.768-0.018-0.206-0.060-0.052-0.060-0.293-0.211 0.049-0.079 0.167-0.603 0.428-0.19 0.095-0.617 0.22-0.84 0.22z"></path>
<path fill="#000" d="M4.364 18.034c-0.318 0.474-0.189 1.482-0.261 2.124-0.017 0.15 0.015 0.311-0.015 0.455-0.050 0.238-0.183 0.484-0.43 0.542 0.010 0.129 0.315 0.824 0.442 0.824 0.346 0 0.353-0.116 0.653-0.318 0.189-0.128 0.316-0.225 0.553-0.301 0.282-0.090 0.783-0.049 1.112 0.039 0.1 0.027 0.484 0.263 0.573-0.121 0.058-0.253 0.054-0.396 0.054-0.653-0.129-0.003-0.178-0.038-0.26-0.093-0.315-0.212-0.493-0.539-0.597-0.905-0.124-0.438-0.316-0.928-0.636-1.248-0.286-0.286-0.897-0.396-1.267-0.617l-0.242-0.14c0.036 0.155 0.208 0.335 0.324 0.412z"></path>
<path fill="#000" d="M13.114 19.536l-0.052 0.337c-0.364-0.027-0.983-0.141-1.307 0.016 0.11 0.053 0.229 0.030 0.366 0.013 0.129-0.016 0.129 0.032 0.308 0.014 0.118-0.013 0.022-0.024 0.163-0.009l0.576 0.012-0.054-0.383z"></path>
<path fill="#000" d="M6.248 16.143l-0.171 0.015-0.035-0.229c0 0.202-0.085 0.321 0.118 0.338 0.020-0.056 0.009-0.026 0.032-0.056 0.018-0.024 0.022-0.015 0.056-0.069z"></path>
<path fill="#000" d="M5.542 17.563c0.030 0.030 0.107-0.042 0.034-0.016-0.001 0.001-0.084-0.033-0.034 0.016z"></path>
<path fill="#000" d="M29.333 12.851c0.030 0.030 0.107-0.042 0.034-0.015-0.001 0-0.084-0.034-0.034 0.015z"></path>
<path fill="#000" d="M3.775 18.27c0 0.034 0.064 0.066 0.046 0s0.075-0.001-0.014-0.009c-0.037-0.003-0.032-0.052-0.032 0.009z"></path>
<path fill="#000" d="M6.514 19.005c0 0.035 0.064 0.066 0.046 0s0.074-0.001-0.014-0.009c-0.037-0.003-0.032-0.051-0.032 0.009z"></path>
<path fill="#000" d="M6.867 15.030c0 0.073 0.047 0.007 0.018 0-0.001 0-0.018-0.084-0.018 0z"></path>
<path fill="#000" d="M7.956 21.066v0.030l0.034-0.025z"></path>
<path fill="#000" d="M19.175 14.765h-0.030l0.025 0.034z"></path>
<path fill="#000" d="M10.577 15.561l0.009-0.009c-0.001 0.001-0.012 0.006-0.009 0.009z"></path>
<path fill="#000" d="M6.514 16.621l0.009-0.009c-0.001 0.001-0.011 0.006-0.009 0.009z"></path>
<path fill="#000" d="M10.577 15.472l0.009-0.009c-0.001 0.001-0.012 0.006-0.009 0.009z"></path>
<path fill="#000" d="M16.672 11.556c0 0.216 0.144 0.537 0.308 0.665l0.277 0.168c0.132 0.082 0.044 0.061 0.132 0.052l0.135-0.002c0.145 0.005 0.283-0.010 0.388-0.055l0.196-0.128c0.069-0.045 0.029-0.002 0.085-0.062l0.169-0.243c0.003-0.006 0.007-0.014 0.010-0.020l0.069-0.166c0.009-0.022 0.007 0.010 0.022-0.066 0.007-0.033 0.009-0.136 0.008-0.172-0.006-0.159-0.133-0.478-0.2-0.568-0.032-0.042-0.013-0.018-0.044-0.045l-0.138-0.097c-0.084-0.077-0.046 0.033-0.062-0.114-0.212 0-0.443-0.104-0.685-0.037-0.060 0.017-0.064 0.023-0.086 0.033l-0.153 0.053c-0.009 0.003-0.033 0.014-0.041 0.018-0.188 0.1-0.39 0.409-0.39 0.788z"></path>
<path fill="#000" d="M19.941 11.821c0.016-0.149-0.039-0.036 0.080-0.126 0.061-0.046 0.070-0.044 0.135-0.1 0.189-0.164 0.247-0.291 0.295-0.62 0.014-0.098-0.035-0.259-0.073-0.357-0.018-0.046-0.033-0.1-0.056-0.151-0.070-0.159-0.432-0.363-0.606-0.424-0.060-0.021-0.021-0.014-0.099-0.021-0.074-0.006-0.157 0.002-0.216 0.022l-0.171 0.065c-0.146 0.059-0.324 0.19-0.413 0.323-0.003 0.006-0.008 0.013-0.011 0.018-0.089 0.136-0.123 0.245-0.15 0.441-0.015 0.114 0.029 0.287 0.069 0.38 0.093 0.219 0.22 0.375 0.435 0.478 0.304 0.145 0.42 0.072 0.782 0.072z"></path>
<path fill="#000" d="M14.699 12.116c0 0.917 1.126 1.205 1.594 0.564 0.031-0.042 0.035-0.065 0.068-0.109 0.025-0.031 0.077-0.084 0.081-0.092 0.034-0.062 0.072-0.492-0.079-0.791-0.201-0.399-0.741-0.539-1.145-0.377-0.009 0.004-0.096 0.045-0.1 0.048-0.201 0.128-0.419 0.454-0.419 0.758z"></path>
<path fill="#000" d="M13.138 11.939c-0.207 0.191-0.27 0.178-0.399 0.471-0.169 0.232-0.053 0.621 0.134 0.884 0.162 0.23 0.521 0.371 0.848 0.317 0.961-0.158 1.053-1.797-0.26-1.762-0.141 0.004-0.225 0.044-0.322 0.090z"></path>
<path fill="#000" d="M17.85 12.528h0.029v-0.088h-0.029z"></path>
</svg>
