<!-- Generated by IcoMoon.io -->
<svg version="1.1" xmlns="http://www.w3.org/2000/svg" width="32" height="32" viewBox="0 0 32 32">
<title>underground</title>
<path d="M16 18.748c-0.614 0-3.661-2.533-4.189-3.055-2.901-2.87-2.173-2.887-3.305-4.189 0 2.079 0.101 3.018 0.389 4.856 0.312 1.991 0.739 2.796 1.109 4.386-1.176 0.026-2.705 0.555-3.899 0.848-3.408 0.834-3.819 1.695-4.303 5.19-0.185 1.331-0.541 2.932-0.541 4.205h29.477c0-1.65-0.65-6.648-1.674-7.818-1.173-1.34-5.195-2.382-7.069-2.424 1.076-2.034 1.999-6.831 1.999-9.992l-1.668 2.329c-0.754 0.925-1.061 1.274-1.892 2.105-0.613 0.613-3.736 3.56-4.434 3.56z"></path>
<path d="M10.254 6.507h11.491c-0.072-0.868-1.399-4.768-1.749-5.496-1.26 0.105-3.060 0.884-3.997 0.884s-2.736-0.779-3.997-0.884c-0.35 0.728-1.676 4.628-1.749 5.496z"></path>
<path d="M7.007 9.505h17.986c-0.316-1.181-2.324-1.999-2.498-1.999h-12.99c-0.398 0-1.114 0.552-1.464 0.784-0.623 0.413-0.817 0.401-1.034 1.215z"></path>
<path d="M11.254 10.504c0.031 1.42 0.301 3.248 1.749 3.248 2.476 0 2.026-1.537 2.997-2.248 0.972 0.712 0.522 2.248 2.998 2.248 1.448 0 1.717-1.827 1.748-3.248-1.013-0.084-0.622-0.25-2.248-0.25-1.304 0-1.445 0.499-2.498 0.499-2.258 0 0.49-0.798-4.746-0.25z"></path>
</svg>
