<?xml version="1.0" encoding="UTF-8"?>
<!DOCTYPE svg PUBLIC "-//W3C//DTD SVG 1.1//EN" "http://www.w3.org/Graphics/SVG/1.1/DTD/svg11.dtd">
<!-- Creator: CorelDRAW 2017 -->
<svg xmlns="http://www.w3.org/2000/svg" xml:space="preserve" width="79.2478mm" height="49.7838mm" version="1.1" style="shape-rendering:geometricPrecision; text-rendering:geometricPrecision; image-rendering:optimizeQuality; fill-rule:evenodd; clip-rule:evenodd"
viewBox="0 0 7924.78 4978.38"
 xmlns:xlink="http://www.w3.org/1999/xlink">
 <defs>
  <style type="text/css">
   <![CDATA[
    .fil0 {fill:black}
   ]]>
  </style>
 </defs>
 <g id="Capa_x0020_1">
  <metadata id="CorelCorpID_0Corel-Layer"/>
  <path class="fil0" d="M4327.74 4886.23c-77.19,0 -191.55,9.47 -191.55,-106.42l0 -957.71 141.88 -7.09c358.94,0 475.32,254.51 475.32,560.44 0,265.14 -151.86,510.78 -425.65,510.78zm-1958 -1099.6c0,30.92 28.59,19.8 56.36,21.69 58.96,4.01 121,63.11 121,134.38l0 780.37c0,51.63 -17.49,108.19 -41.18,136.17 -24.53,28.97 -83.74,41.17 -136.18,41.17l0 56.76 269.58 -7.09c73.54,0 118.98,7.09 191.54,7.09l0 -56.76c-211.52,0 -191.54,-83.94 -191.54,-354.7 0,-182.08 0,-364.17 0,-546.25 46.14,30.9 486.74,548.41 572.77,633.24l227.82 254.59c19.46,24.39 38.9,37.28 57.58,63.01 28.85,39.74 35.04,28.15 99.55,28.15 -24.81,-106.44 -14.19,-792.26 -14.19,-936.43 0,-264.64 85.12,-234.1 248.29,-234.1 49.67,0 78.03,40.92 78.03,92.23l0 900.95c0,88.32 -68.3,99.31 -156.06,99.31 0,91.21 11.71,49.67 184.44,49.67 78.77,0 302.52,-3.24 363.74,5.15 151.53,20.77 330.87,-28.82 445.06,-111.51 403.34,-292.04 349.43,-1009.5 -306.98,-1090.69 -108.66,-13.44 -321.49,-1.86 -459.25,-1.86 -81.58,0 -146.75,-7.19 -219.92,-7.19l-276.68 7.19c-69,0 -109.41,-7.11 -177.34,-7.11l0 63.86c71.63,0 161,-8.23 181.87,108.98 7.68,43.12 2.57,613.77 2.57,685.57l-716.5 -801.65c-61.26,-80.29 -49.7,-49.65 -255.4,-49.65 -60.07,0 -90.27,-7.11 -148.98,-7.11l0 42.57zm3071.78 539.17l-120.6 0 0 -503.7 106.41 -7.09c146.32,0 239.73,105.43 239.15,248.27 -0.64,157.3 -63.3,262.52 -224.96,262.52zm-503.69 -560.45c0,80.96 50.93,21.65 106.67,49.4 27.35,13.64 49.4,50.58 49.4,92.48l0 908.06c0,75.41 -96.21,85.12 -156.07,85.12 0,91.6 6.3,49.67 227.02,49.67l326.32 7.09 0 -56.76c-118.02,0 -170.25,-10.08 -170.25,-141.88l0 -361.8c154.49,0 87.74,-17.29 186.64,104.21l322.44 372.79c119.81,129.31 42.54,82.58 200.28,83.4l567.59 -7.05c377.05,0 343.67,43.26 362.43,-56.13 4.79,-25.4 9.2,-48.53 15.28,-76.93 9.63,-44.96 22.96,-97.36 33.75,-143.61l-56.56 -8.32c-54.1,232.81 -201.25,206.95 -411.66,206.95 -33.89,0 -71.57,-5.8 -95.07,-18.44 -23.35,-12.55 -46.81,-41.86 -46.81,-73.79l0 -411.46c251.92,0 333.43,-37.67 333.43,170.27 26.42,-6.16 56.74,-1.32 56.74,-28.38l0 -390.18 -56.74 0c0,50.63 -11.46,92.08 -36.79,119.28 -49.61,53.3 -197.86,36.79 -296.64,36.79l0 -446.93c276.8,0 439.84,-43.05 439.84,198.64 23.03,-0.52 48.39,-6.78 63.85,-14.19 -0.72,-32.09 -7.11,-28.19 -7.11,-63.85l0 -205.74c-105.21,0 -185.07,7.11 -290.85,7.11l-305.05 0c-101.15,0 -176.13,-7.11 -276.67,-7.11l0 63.86c83.72,0 170.26,-16.42 170.26,113.5l0 851.3c0,102.77 -32.74,127.69 -134.8,127.69 -23.65,0 -185.86,-247.38 -200.04,-268.16 -29.91,-43.87 -182.05,-247.79 -190.13,-278.08 61.25,-14.28 117.91,-64.77 157.95,-104.53 114.76,-113.96 127.38,-405.41 -139.49,-481.46 -178.94,-50.99 -508.86,1.81 -673.12,-22.23 -30.4,-4.45 -76.04,-11.36 -76.04,19.4zm-3525.8 -1326.6l0 0zm1269.86 -305.05c29.21,33.6 31.4,92.4 -7.1,120.6 3.32,-39.8 7.1,-70.01 7.1,-120.6zm-7.1 -21.29c7.26,7.84 7.1,-12.4 7.1,21.29 -7.26,-7.84 -7.1,12.4 -7.1,-21.29zm-7.09 -14.19l7.09 14.19 -7.09 -14.19zm-262.48 7.1l-7.1 7.09 7.1 -7.09zm7.09 -7.1l-7.09 7.1 7.09 -7.1zm0 0c12.45,-18.57 3.58,-14.66 28.38,-21.28 -12.45,18.59 -3.6,14.67 -28.38,21.28zm28.38 -21.28c13.77,-20.57 14.67,-21.88 42.57,-28.38 -10.5,14.32 -22.71,23.08 -42.57,28.38zm56.75 -35.46l-14.18 7.08 14.18 -7.08zm-581.72 21.27l0 -21.27 21.28 -14.19c-5.39,20.19 -9.31,21.7 -21.28,35.46zm0 -21.27l-8.15 -13.84 8.15 13.84zm581.72 0c6.52,-5.67 -0.6,-2.96 16.88,-11.5 56.79,-27.74 147.77,0.81 153.38,68.24l-12.93 -15.44c-76.16,-87.68 -98.64,-46.19 -157.33,-41.3zm-560.44 -14.19l0 0zm-28.37 -28.38l-7.1 0c0,-70.82 7.1,-91.28 7.1,-120.6 20.65,21.77 22.14,11.87 12.44,46.72 -7.31,26.23 -12.44,43.69 -12.44,73.88zm7.09 -141.88c0,-18.15 11.24,-1.14 4.21,0 -0.07,0.01 -4.21,19.79 -4.21,0zm411.46 -312.15c0,33.69 0.15,13.45 -7.09,21.28 0,-33.69 -0.16,-13.45 7.09,-21.28zm0 0l0 -35.47 7.1 0c0,5.25 0.5,15.81 -0.63,20.66 -3.19,13.71 -1.81,7.45 -6.47,14.81zm-219.92 -255.39l2.12 2.12c-0.14,-0.14 -2.82,-1.42 -2.12,-2.12zm28.38 -7.09l-13.83 8.16 13.83 -8.16zm184.45 283.76c4.6,17.34 -3.15,9.6 14.19,14.19 30.46,-26.48 55.8,-59.72 54.22,-112.69 -1.34,-44.55 -20.14,-96.23 -61.32,-107.23 12.57,-7.97 20.6,-2.03 28.37,-21.27 -13.85,-10.16 -8.15,-7.57 -18.32,-17.16 -3.55,-3.35 -16.8,-15.26 -18.73,-16.73 -60.31,-45.57 -142.28,-22.87 -182.86,-22.87 0.87,-0.67 13.31,-13.53 14.19,-14.19 -51.3,0 -77.67,4.29 -107.74,27.06 -39.69,30.04 -50.93,61.84 -61.91,72.88 -7.21,7.24 -31.19,16.25 -67.46,46.04l-110.51 52.65c0,53.55 17.9,85.15 49.66,106.42 0.63,-28.17 -0.09,-21.94 14.19,-35.47 34.21,7.96 35.47,15.62 35.47,56.75 -16.68,8 -25.88,6.18 -42.56,14.19 5.28,9.99 12.08,20.93 15.11,33.8 6.02,25.55 -18.83,90.04 48.74,108.09 0,-15.03 -3,-33.76 3.48,-46.59 7.16,-14.21 4.44,-8.12 17.79,11.11 1.35,-60.58 51.42,-77.9 111.51,-101.32 119.17,-46.47 77.43,-76.51 115.51,-104.41 -3.17,142.47 -190.13,83.78 -248.29,333.43 -35.54,-2.96 -121.51,-48.95 -153.77,-66.16 -32.52,-17.32 -72.68,-45.35 -97.43,-72.83 -29.21,-32.44 -38.1,-69.18 -61.27,-108.99 -49.06,-84.35 -39.46,-141.62 -96.66,-125.67 -30.56,8.53 -17.31,20.13 -17.97,24.57 -1.94,13.04 10.82,-6.28 -4.77,10.16 -5.23,5.51 -0.08,-7.88 -15.06,12.58 5.59,20.99 2.88,11.5 14.17,28.38 -24.77,6.62 -28.07,13.34 -23.8,37.28 4.14,23.17 7.44,-13.43 3.16,20.79 -2.63,21.05 -2.12,2.98 -7.72,27.06l7.42 0.71c0.02,0 8.43,0.44 12.85,1.87 15.12,4.93 6.86,-2.51 19.64,13.76 9.32,11.86 21.07,40.44 23.05,55.48 11.99,91.2 -6.07,55.78 57.63,98.44 -2.54,30.5 1,12.79 -14.18,35.47 37.49,0 42.48,-12.94 73.15,-2.77 14.86,4.94 40.32,23.63 53.29,32.4 30.2,20.42 75.64,54.4 79.28,98.06 -16.29,10.92 -14.25,13.57 -42.56,14.19l28.1 22.16c-9.67,17.93 -13.27,19.75 -13.91,48.78 85.77,-98.67 59.32,72.89 170.26,14.19 -14.43,54.04 -138.43,205.86 -210.41,250.72 -33.29,20.74 -161.54,76.72 -208.36,75.22 -4.04,-0.12 -78.4,-29.46 -89.66,24.55 -6.54,31.29 1.67,20.83 4.74,25.51 -7.57,32.48 -7.57,17.17 0,49.65 36.85,-8.58 25.59,-10.8 42.57,21.28 15.68,-10.88 8.82,-1.16 14.19,-21.28 29.45,21.57 -1.46,18.52 35.46,28.38 22.61,-16.56 5.77,-11.81 28.38,-28.38 73.33,38.8 113.26,2.86 154.16,-37.38 54.55,-53.68 212.29,-118.05 136.7,-5.18 48.32,-4.02 74.03,-43.96 78.04,-92.23l42.56 -14.19c-23.21,-8.39 -5.14,9.22 -21.27,-21.27 23.82,-45.04 20.89,-40.53 66.72,-68.07 25.67,-15.42 61.83,-37.57 96.44,-38.35 -17.96,77.07 -14.67,15.12 0,78.04l14.18 0c0,-39.9 9.09,-42.91 27.06,-65.18 22.45,-27.83 5.45,-1.65 13.94,-28.63 10.89,-34.65 -17.86,-22.34 22.86,-26.79 -5.89,-22.02 -19.39,-31.69 -20.5,-57.14 -0.99,-22.95 11.2,-44.08 13.4,-70.55 20.43,29.39 12.13,93.95 89.32,116.75 70.19,20.73 104.67,-33.21 151.88,-45.82 -5.79,10.32 -3.44,7.51 -7.09,21.29 32.83,7.65 82.71,46.14 99.32,70.93 -19.55,36.95 -50.61,67.49 -83.31,94.05 -17.41,14.14 -38.84,27.87 -60.35,32.21 -34.71,7 -53.45,-4.98 -83.36,-5.65 15.55,23.23 23.01,25.56 42.57,42.56 -25.46,2.12 -41.88,10.95 -64.7,13.34 -30.4,3.21 -56.22,-3.49 -77.65,7.48 -51.54,26.4 -31.87,132.27 -13.72,64.32l14.19 0c6.61,24.78 2.69,15.93 21.28,28.36 1.59,-19.14 3.32,-19.29 7.08,-35.46 5.8,8.32 6.15,19.54 20.57,23.66 0.61,0.18 2.68,0.13 3.28,0.2 0.59,0.08 2.61,-0.2 3.21,-0.19l15.24 -1.51c93.99,-18.1 95.97,30 166.89,-47.08 21.51,-23.39 66.74,-56.32 96.49,-66.69 60.13,-20.93 78.17,-2.17 119.97,-50.27 -2.19,26.42 -11.1,37.54 -21.27,56.75 59.66,-15.93 54.41,-90.55 78.21,-93.28 92.94,-10.68 65.85,28.57 141.01,27.04 20.77,-0.43 38.3,-2.44 50.36,-18.89 -38.84,0 -32.69,4.06 -49.66,-21.28 31.36,-42.81 127.92,-38.79 187.24,-24.08 28.66,7.11 39.5,18.32 61.05,24.08 0,52.66 -3.09,50.75 -21.29,85.12l21.29 0c-55.96,105.77 -93.89,28.82 -153.88,66.05 -23.38,14.52 -20.06,25.55 -30.56,47.47 19.15,-1.6 19.29,-3.33 35.46,-7.1l-3.55 35.46c41.04,-10 10.83,-17.75 53.21,-21.27 2.37,28.37 4.21,30.06 21.29,42.56 6.22,-23.31 10.29,-23.36 28.37,-35.46 26.68,19.53 6.42,25.81 42.56,35.46 25.77,-96.46 204.4,45.09 119.47,-162.02 -17.98,-43.81 -20.14,-65.62 -20.14,-128.84 21.67,11.47 9.96,2.56 24.05,18.51l18.52 24.06c0,-76.59 -7.28,-57.21 -35.48,-99.32 20.95,1.74 28.58,3.77 40.71,16.04l23.14 33.61c0,-233.14 -229.24,-46.47 -324.17,-108.56 -77.13,-50.47 31.25,-170.15 -33.21,-286.04 -16.36,-29.39 -33.49,-44.22 -68.27,-52.32l0 -14.19c26.31,-7.03 42.94,-29.66 57,-49.4 33.8,-47.45 -1.55,-22.06 43.2,-63.22 18.91,-17.41 32.4,-39.98 23.22,-74.25 -13.53,-50.54 -15.84,-34.99 11.36,-75.62 -36.17,8.43 -42.55,19.59 -42.55,63.85 -129.41,-148.87 -276.69,24.26 -276.69,-120.6 -31.64,23.19 -17.31,33.34 -14.19,70.94 -66.2,-1.47 -105.27,-50.38 -75.65,-118.19 22.32,-51.08 77.41,-64.55 125.32,-87.54 47.26,31.65 60.88,49.69 152.07,24.09 29.89,-8.38 29.61,-11.38 32.89,-23.58 1.7,-6.32 -8.5,3.47 4.49,-10.37 14.64,-15.58 10.66,-4.04 26.29,-22.56 12.27,-14.55 13.93,-19.49 18.37,-38.52 -40.01,26.8 -43.07,27.29 -99.31,14.18 9.09,-25.13 15.04,-12.14 21.27,-35.47 -105.51,24.59 -56.13,-20.78 -161.93,50.9 -37.24,25.23 -60.15,11.51 -130.85,81.98 -29.82,29.7 -24.61,25.53 -42.69,63.72l-7.02 14.27c-0.64,1.19 -2.03,3.57 -2.56,4.54 -0.51,0.96 -1.57,3.09 -2.56,4.52 0,-56.08 7.06,-90.96 -49.66,-92.22 22.24,42.02 26.94,27.34 11.5,82.57 -9.04,32.33 -8.06,68.67 27.28,84.37 33.77,15 8.71,-9.34 35.38,21.38 39.84,45.91 67.14,45.78 138.67,45.78 -19.86,29.65 -21.3,27.88 -21.3,78.03 20.07,-14.69 9.55,-10.62 25.83,-30.93 10.02,-12.5 2.64,-3.92 10.07,-11.21 88.94,-87.29 274.52,-58 171.12,78.9 -67.9,89.88 -250.89,131.47 -368.62,103.57 -132.38,-31.35 -103.97,-131.25 -193.1,-133.24 20.77,-30.99 27.31,-15.3 53.74,-52.66 4.15,-5.85 4.13,-6.7 8.35,-12.93 8.42,-12.44 0.77,-3.13 8.86,-12.44zm4192.64 872.59l0 0zm-1269.85 -305.05c0,50.59 3.79,80.8 7.09,120.6 -38.48,-28.2 -36.3,-87 -7.09,-120.6zm7.09 -21.29c0,33.69 0.16,13.45 -7.09,21.29 0,-33.69 -0.15,-13.45 7.09,-21.29zm276.67 0l-7.09 -7.09 7.09 7.09zm-269.57 -14.19l-7.1 14.19 7.1 -14.19zm262.48 7.1l-7.1 -7.1 7.1 7.1zm-7.1 -7.1c-24.78,-6.61 -15.93,-2.69 -28.37,-21.28 24.79,6.62 15.93,2.71 28.37,21.28zm-28.37 -21.28c-19.87,-5.3 -32.08,-14.06 -42.56,-28.38 27.9,6.5 28.79,7.81 42.56,28.38zm-42.56 -28.38l-14.19 -7.08 14.19 7.08zm567.53 -7.08l3.9 -15.27 -3.9 15.27zm-21.28 -14.19l21.28 14.19 0 21.27c-11.97,-13.76 -15.89,-15.27 -21.28,-35.46zm0 0l0 0zm-730.7 70.93c6.15,-73.95 117,-103.04 170.26,-56.74 -59.58,-4.96 -81.25,-47.83 -160.58,45.14 -0.91,1.06 -2.45,2.88 -3.25,3.85 -0.81,0.96 -2.58,3.09 -3.24,3.87 -0.64,0.78 -2.1,2.62 -3.19,3.88zm759.08 -219.91c0,29.32 7.09,49.78 7.09,120.6l-7.09 0c0,-101.83 -42.88,-75.41 0,-120.6zm-14.19 -21.28c0,-18.15 11.23,-1.14 4.21,0 -0.08,0.01 -4.21,19.79 -4.21,0zm-404.37 -312.15c7.25,7.83 7.1,-12.41 7.1,21.28 -7.26,-7.83 -7.1,12.41 -7.1,-21.28zm0 0c-4.84,-7.62 -4.06,-0.13 -6.48,-14.81 -1.06,-6.43 -0.61,-14.09 -0.61,-20.66l7.09 0 0 35.47zm212.82 -255.39l2.12 2.12c-0.14,-0.14 -2.82,-1.42 -2.12,-2.12zm-21.28 -7.09l15.25 3.89 -15.25 -3.89zm-127.7 1042.84c-72.8,1.62 -80.09,23.79 -139.87,-23.3 -33.52,-26.41 -67.46,-60.12 -87.14,-97.31 16.61,-24.79 66.48,-63.28 99.32,-70.93 -4.98,-18.78 0.57,-5.84 -7.1,-21.29 23.96,6.4 141.08,104.95 210.25,4.51 16.5,-23.97 13.62,-40.39 25.79,-66.42l5.16 -9.02c4.4,52.86 33.69,66.6 -7.08,113.5 14.6,36.19 -16.54,-26.33 9.56,11.71 8.39,12.22 3.98,1.93 9.97,18.41 10.66,29.33 -7.82,6.01 13.92,35.73 19.66,26.85 30.39,22.93 30.39,68.94l14.19 0c13.41,-57.56 16.96,-5.23 0,-78.04 34.62,0.78 70.78,22.93 96.43,38.35 45.83,27.54 42.91,23.03 66.74,68.07 -16.13,30.49 1.92,12.88 -21.29,21.27l42.57 14.19c4.02,48.27 29.71,88.21 78.03,92.23 -73.73,-110.11 76.11,-52.26 133.14,1.66 23.13,21.87 29.94,38.56 64.02,49.51 38.49,12.37 63.12,7.57 93.7,-8.61 22.61,16.57 5.77,11.82 28.38,28.38 36.93,-9.86 6.03,-6.81 35.47,-28.38 4.96,20.75 -0.91,10.22 14.18,21.28 17,-32.08 5.72,-29.86 42.57,-21.28 7.57,-32.48 7.57,-17.17 0,-49.65 0.01,-0.02 22.88,-6.22 -2.15,-39.7 -31.85,-42.61 -56.89,1.03 -124.25,-18.24 -163.72,-46.84 -188.25,-71.93 -283.24,-178 -21.71,-24.24 -86.23,-110.77 -94.04,-140.06 110.93,58.7 84.48,-112.86 170.26,-14.19 -0.65,-29.03 -4.25,-30.85 -14.19,-49.65l28.38 -21.29c-28.32,-0.62 -26.27,-3.27 -42.56,-14.19 4.44,-53.51 95.64,-115.11 127.5,-128.36 27.93,-11.62 43.25,0.67 78.22,0.67 -15.19,-22.68 -11.65,-4.97 -14.19,-35.47 51.12,-34.23 49.91,-12.59 57.08,-91.9 3.26,-35.94 17.35,-71.31 52.04,-77.23 42.48,-7.25 -18.1,12.81 11.49,-1.13 -5.6,-24.02 -5.16,-6.11 -7.73,-27.06 -3.84,-31.31 22.95,-46.42 -20.65,-58.07 11.29,-16.88 8.58,-7.39 14.19,-28.38 -16.03,-21.88 -13.37,3.7 -19.84,-19.96 -0.21,-0.77 17.91,-11.88 -12.64,-25.46 -36.45,-16.19 -58.78,16.17 -65.18,39.99 -12.86,47.77 -72.87,167.94 -105.04,200 -50.61,50.44 -193.64,127.55 -244.23,131.77 -58.16,-249.65 -245.12,-190.96 -248.3,-333.43 25.32,18.55 5.21,1.24 19.48,30.18 49.87,101.11 205.12,67.18 207.53,175.55 15.84,-22.79 7.61,-31.31 17.81,-11.11 6.46,12.83 3.48,31.56 3.48,46.59 26.45,-7.07 46.16,-28.29 49.17,-57.7 2.89,-27.96 -4.21,-27.2 -1.44,-45.62 2.27,-15.06 10.51,-27.99 16.11,-38.57 -16.68,-8.01 -25.88,-6.19 -42.56,-14.19 0,-41.13 1.26,-48.79 35.46,-56.75 14.28,13.53 13.57,7.3 14.19,35.47 31.77,-21.27 49.67,-52.87 49.67,-106.42l-110.51 -52.65c-42.41,-34.82 -50.34,-31.41 -63.77,-42.65 -31.47,-26.38 -37.03,-103.33 -173.34,-103.33 0.18,0.14 13.93,13.94 14.19,14.19 -53.05,0 -68.98,-15.52 -128.1,-0.4 -45.1,11.53 -50.08,18.05 -80.74,46.95 -12.63,11.9 0.55,1.68 -11.08,10.21 8.3,20.56 -0.38,3.02 28.38,21.27 -53.43,14.27 -104.12,135.59 -7.09,219.92 18.43,-4.89 7.9,2.63 14.19,-14.19l14.39 21.09c30.07,44.19 34.9,24.63 56.54,56.94 -86.27,1.93 -64.28,100.16 -187.34,131.9 -243.1,62.72 -474.83,-133.81 -385.69,-215.41 34.48,-31.57 132.18,-11.47 178.75,30.88 29.57,26.89 13.42,26.38 39.58,45.54 0,-50.15 -1.43,-48.38 -21.28,-78.03 120.24,0 108.1,-20.57 145.15,-53.47 24.12,-21.43 76.72,-12.42 57.85,-92.31 -15.67,-66.4 -19.33,-33.24 9.81,-88.32 -56.71,1.26 -49.65,36.14 -49.65,92.22l-5.12 -9.06c-1.2,-2.35 -6.85,-13.9 -7.03,-14.27 -53.64,-113.62 -127.04,-114.2 -173.53,-145.7 -105.81,-71.68 -56.43,-26.31 -161.94,-50.9 4.08,15.31 3.15,7.35 10.01,18.37 14.87,23.86 -0.36,-15.06 11.28,17.1 -56.24,13.11 -59.31,12.62 -99.32,-14.18 4.25,18.23 5.11,20.84 15.2,34.51 18,24.37 6.85,6.29 26.28,23.87 10.92,9.88 6.6,12.21 7.74,15.77 4.16,13.12 10.19,13.86 27.11,19.26 91.22,29.1 111.26,8.68 157.78,-22.47 47.9,22.99 103.01,36.46 125.32,87.54 29.62,67.81 -9.44,116.72 -75.66,118.19 3.12,-37.6 17.46,-47.75 -14.19,-70.94 0,144.86 -147.27,-28.27 -276.67,120.6 0,-44.26 -6.39,-55.42 -42.57,-63.85 27.21,40.63 24.91,25.08 11.38,75.62 -15.19,56.65 26.77,63.66 46.45,100.66 16.99,31.92 36.46,75.39 76.96,86.21l0 14.19c-64.99,15.13 -91.4,85.18 -92.64,142.03 -0.99,45.5 48.51,149.43 -4.76,193.3 -87.1,71.73 -328.25,-125.91 -328.25,111.59 11.69,-13.44 1.47,-1.83 11.45,-16.91 13.06,-19.75 16.28,-29.74 52.39,-32.74 -28.2,42.11 -35.46,22.73 -35.46,99.32 6.86,-7.9 1.58,-1.74 9.39,-11.9 6.06,-7.87 3.1,-5.35 9.12,-12.16 14.1,-15.95 2.39,-7.04 24.06,-18.51 0,142.2 -70.59,206.09 -35.48,241.21 46.15,22.13 119.55,-7.44 134.79,49.65 36.16,-9.65 15.89,-15.93 42.56,-35.46 18.09,12.1 22.15,12.15 28.38,35.46 17.07,-12.5 18.92,-14.19 21.28,-42.56 42.39,3.52 12.18,11.27 49.66,21.27l3.55 -35.46c12.62,3.77 12.77,5.5 31.93,7.1 -19.6,-40.83 -12.37,-56.96 -92.27,-56.72 -70.27,0.2 -68.27,-11.59 -92.18,-56.8l21.28 0c-18.19,-34.37 -21.28,-32.46 -21.28,-85.12 42.8,-11.43 17.11,-20.37 122.69,-33.88 45.97,-5.88 107.35,8.96 125.6,33.88 -16.97,25.34 -10.83,21.28 -49.66,21.28 20.57,28.08 70.87,20.64 101.35,9.21 46.95,-17.63 21.78,-25.15 85.85,-17.85 33.29,3.78 19.37,76.94 82.37,93.77 -10.15,-19.21 -19.07,-30.33 -21.27,-56.75 56.84,65.39 121.34,13.56 216.46,116.96 72.65,78.97 92.01,30.57 163.42,46.28 0.77,0.17 2.74,0.66 3.47,0.8 0.66,0.13 2.59,0.35 3.2,0.46 29.61,4.57 -3.77,12.94 21.82,0.13l17.28 -22.75c3.76,16.17 5.5,16.32 7.09,35.46 18.58,-12.43 14.66,-3.58 21.29,-28.36l14.18 0c18.15,67.95 37.83,-37.92 -13.73,-64.32 -19.33,-9.9 -42.64,-5.02 -71.09,-6.94 -28.7,-1.93 -42.83,-11.51 -71.26,-13.88 18.19,-15.8 26.88,-19.12 42.57,-42.56zm-5661.13 1191.82l7924.17 0 0 -92.22 -7924.17 0 0 92.22zm1376.26 808.74c0,-197.79 41.03,-393.55 210.38,-484.86 157.85,-85.11 366.64,-37.03 480.66,127.24 142.95,205.93 151.68,541.15 42.14,757.37 -105.36,207.99 -450.52,262.3 -625.54,-3.71 -59.21,-89.99 -107.64,-248.04 -107.64,-396.04zm-248.29 7.09c0,265.6 113.12,476.27 349.94,586.49 173.33,80.66 417.96,80.42 591.32,0.06 73.32,-34 127.63,-77.48 181.42,-130.72 91.43,-90.51 156.87,-235.67 173.81,-365.35 24.79,-189.85 -25.8,-390.21 -159.41,-518.16l-87.04 -69.02c-32.29,-21.18 -60.72,-38.57 -101.42,-54.65 -231.81,-91.56 -475.23,-85.79 -684.88,56.01 -151.76,102.65 -263.74,309.91 -263.74,495.34zm1901.22 -2864.73c119.31,-47.43 217.14,-94.85 352.27,-131.68 134.07,-36.53 271.23,-59.27 418.34,-71.81 17.77,-64.49 4.43,-542.94 4.43,-649.12 -275.12,0 -643.65,133.31 -874.35,255.39 0,193.85 25.11,351.72 75.57,527.43l23.74 69.79zm1837.4 -10.46c12.9,-16.61 34.35,-106.99 39.72,-128.48 36.28,-145.14 59.6,-302.58 59.6,-458.28 -116.4,-61.59 -229.94,-113.63 -366.15,-158.83 -65.29,-21.68 -368.41,-106.14 -442.58,-84.02l-68.97 -6.58 -0.16 640.44c79.9,20.65 219.27,18.06 420.5,73.57 84.01,23.17 194.04,60.3 273.37,95.41 26.93,11.91 63.77,35.48 84.67,26.77zm-759.08 1018.8c73.95,-9.37 367.57,-319.59 395.16,-352.02 45.43,-53.4 288.32,-393.98 283.31,-466.1 -5.62,-18.81 -2.22,-13.13 -29.44,-24.6 -13.1,-5.52 -26.39,-10.18 -41.06,-15.84l-247.06 -79.01c-95.78,-24.42 -280.36,-63.54 -380.37,-58.73l0.43 1005.86 19.03 -9.56zm-1007.37 -826.99c4.52,21.71 16.64,44.98 26.3,67.71 12.08,28.42 21.59,38.72 35.21,64.1 146.92,273.62 337.48,488.02 583.04,672.63 21.8,16.4 36.08,28.1 59.7,41.54l-0.16 -1017.1c-190.16,9.86 -370.52,51.95 -546.51,110.6 -55.65,18.55 -108.5,45.67 -157.58,60.52zm3979.82 2427.98c0,345.23 348.64,345.31 465.44,499.38 62.97,83.06 59.11,198.97 -20.01,272.39 -78.71,73.06 -297.62,89.04 -379.34,-85.87 -15.52,-33.21 -17.52,-69.78 -30.61,-97.08 -27.56,2.29 -18.49,6.4 -49.65,7.1 0,78.05 21.27,145.4 21.27,227 134.22,71.03 181.55,78.04 326.33,78.04 194.25,0 375.99,-150.22 375.99,-361.79 0,-273.72 -231.13,-331.06 -399.58,-430.44 -80.88,-47.73 -118.29,-99.2 -118.29,-193.85 0,-61.23 22.1,-121.09 54.76,-150.98 86.44,-79.13 254.82,-91.81 333.25,82.21 42.45,94.22 -18.68,83.49 73.11,75.86 0,-64.76 -14.19,-148.99 -14.19,-255.4 -165.37,0 -370.21,-84.12 -537.58,79.61 -56.26,55.05 -100.9,145.17 -100.9,253.82zm-6945.18 -290.86c0,56.54 156.08,-33.88 156.08,113.52l0 893.85c0,95.88 -74.93,106.41 -156.08,106.41l0 56.76 539.16 -7.09c133.8,0 242.61,7.09 376,7.09 9.78,-20.38 63.84,-265.47 63.84,-297.96l-56.75 0c-1.31,58.34 -48.87,130.69 -91,164.4 -83.91,67.14 -196.29,55.53 -313.38,55.53 -67.86,0 -134.78,-18.87 -134.78,-85.14l0 -908.04c0,-153.45 163.16,-11.7 163.16,-120.61 0,-40.62 -112.8,-14.18 -198.64,-14.18l-347.61 -7.11 0 42.57zm2922.79 -3263.31c1.43,-0.99 3.83,-3.93 4.53,-2.57l132.26 -59.29c51.71,-20.76 97.73,-38.51 154.07,-51.64 -14.48,27.36 -32.07,44.68 -49.65,70.93 12.41,18.54 40.32,58.91 56.75,70.95 16.95,-25.31 37.06,-48.28 56.76,-70.95 -19.07,-28.46 -37.69,-49.56 -56.76,-78.03 97.57,-8.12 254.76,-85.13 581.72,-85.13 -9.05,33.91 -40.42,43.45 -49.65,78.04 13.82,20.64 34.87,41.76 49.65,63.85 21.28,-14.26 49.98,-50.23 63.85,-70.95 -23.22,-34.68 -42.8,-45.27 -49.66,-70.94 79.81,0 508.44,36.38 588.82,92.23 47.31,1.05 168.42,54.2 211.91,71.85l192.45 91.31 0 -99.31c-481.7,-254.9 -1003.94,-330.66 -1545.11,-183.04 -118.86,32.41 -230.78,76.98 -341.84,126.37 -38.35,17.06 -71.06,37.91 -106.51,56.67l0 99.31c36.43,-8.48 62.99,-39.54 106.41,-49.66zm1759.36 134.79l0 0zm-1752.26 7.09l-113.51 63.85 0 63.85 213.76 -98.38c216.59,-89.22 469.34,-149.42 708.73,-149.67 35.64,-0.04 46.46,-6.29 71.1,-7 27.44,-0.8 34.65,6.58 70.26,7.04 25.37,0.31 53.28,-1.66 78.35,-0.32 235.16,12.62 532.66,92 740.13,196.3 30.04,15.1 81.79,45.19 111.13,52.03l0 -63.85c-24.68,-16.53 -82.03,-49.41 -113.5,-56.75 3.35,-40.32 39.81,-48.25 49.66,-85.13 -15.61,-23.3 -33.56,-48.32 -56.76,-63.85 -15.48,23.13 -41.26,47.8 -56.74,70.95 13.82,20.64 34.87,41.76 49.65,63.84 -29.96,-2.5 -40.23,-14.23 -66.8,-25.43 -47.27,-19.92 -176.79,-70.54 -216.97,-73.89 6.71,-25.11 40.53,-59.36 56.76,-78.04 -17.59,-26.25 -35.18,-43.57 -49.66,-70.93 -20.65,5.51 -22.18,14.97 -34.07,29.78 -12.66,15.76 -19.11,25.22 -29.77,41.15 18.32,34.63 31.32,36.32 49.65,70.95 -25.26,-2.11 -40.79,-10.2 -68.03,-17.1 -24.69,-6.27 -48.58,-12.44 -68.48,-16.66 -44.37,-9.41 -99.13,-23 -147.26,-23 9.29,-34.76 27.17,-35.53 49.66,-78.03 -10.85,-20.52 -38.84,-58.94 -56.75,-70.95 -19.07,28.48 -37.69,49.57 -56.75,78.05 16.14,11.82 44.67,45.19 49.65,63.85 -51.69,0 -103.98,-13.84 -155.79,-14.49 -56.51,-0.69 -113.9,0.3 -170.53,0.3 -191.58,-0.02 -412,38.79 -584.41,96.63l-252.71 94.9zm42.57 2341.08c-59.25,13.81 -40.62,14.19 -106.41,14.19l0 -92.23c65.79,0 47.16,0.38 106.41,14.19 3.66,15.31 14.17,32.12 0,63.85zm-191.55 -141.88l0 368.89c106.44,0 85.14,25.93 85.14,-148.98 52.09,0 41.75,-2.8 115.53,97.29 46.11,62.55 32.69,51.69 132.76,51.69 -7.43,-27.83 -94.44,-124.11 -120.6,-163.17 105.03,-55.57 80.55,-160.08 19.34,-189.59 -74.24,-35.78 -152.72,-16.13 -232.17,-16.13zm4086.24 297.95l-63.85 0 0 -234.11c102.34,0 156.07,14.76 156.07,120.6 0,55.22 -38.27,113.51 -92.22,113.51zm-70.94 -297.95l-78.03 0 0 368.89c87.99,0 193.49,10.35 261.83,-43.21 96,-75.23 105.81,-299.66 -92.64,-324.71 -80.47,-10.15 -48.14,-0.97 -91.16,-0.97zm-2390.73 297.95l-49.67 0 0 -234.11 28.38 0c79.88,0 123.05,34.5 125.12,107.13 1.89,66.26 -33.17,126.98 -103.83,126.98zm-56.75 -297.95l-78.04 0 0 368.89c152.83,0 326.33,10.71 326.33,-205.73 0,-114.62 -101.76,-160.77 -201.17,-167 -26.76,-1.68 -15.53,3.84 -47.12,3.84zm1312.41 297.95l-63.84 0 0 -234.11c102.33,0 156.07,14.76 156.07,120.6 0,55.22 -38.28,113.51 -92.23,113.51zm-70.93 -297.95l-78.05 0 0 368.89c94.63,0 184.48,10.79 261.44,-43.61 95.36,-67.42 106.48,-299.23 -92.25,-324.31 -8.3,-1.04 -39.64,-4.53 -44.02,-4.81 -26.76,-1.7 -15.52,3.84 -47.12,3.84zm-4944.64 368.89l78.04 0 0 -227.01c35.04,40.31 71.78,77.74 108.13,118.88 12.55,14.21 12.38,17.65 24.95,31.79 10.36,11.67 17.71,16.55 27.99,28.78 14.02,16.71 34.1,54.65 58.84,54.65 16.36,0 21.29,-4.93 21.29,-21.28l0 -354.7 -78.03 0 0 219.91 -100.96 -111.87c-84.53,-85.29 -71.3,-108.04 -140.25,-108.04l0 368.89zm3759.91 -2986.64l404.36 170.26 0 -170.26c-32.75,-7.63 -238.48,-124.52 -404.36,-163.17l0 163.17zm-2177.9 2639.03l0 326.32c0,16.36 4.93,21.29 21.27,21.29l241.21 0c31.69,0 31.69,-70.94 0,-70.94l-177.36 0 0 -92.23c164.06,0 141.89,17.63 141.89,-70.93l-141.89 0 0 -63.86 177.36 0c31.69,0 31.69,-70.93 0,-70.93l-241.21 0c-16.34,0 -21.27,4.93 -21.27,21.28zm-2185.01 0c0,122.14 -20.72,260.64 43.94,317.86 64.18,56.8 289.48,67.9 289.48,-105.04l0 -212.82c0,-29.63 -24.61,-21.28 -85.13,-21.28l0 241.2c0,80.36 -163.16,100.35 -163.16,-14.19l0 -227.01c-60.52,0 -85.13,-8.35 -85.13,21.28zm2773.81 -2639.03l0 170.26c22.11,-5.15 68.57,-34.42 94.51,-47.38l200.43 -83.34c34.92,-13.39 80.03,-25.43 109.43,-39.54l0 -163.17c-165.88,38.65 -371.6,155.54 -404.37,163.17zm4511.9 2993.73l262.48 0c31.69,0 31.69,-70.93 0,-70.93l-177.36 0 0 -99.33 141.88 0c0,-79.85 20.62,-63.84 -141.88,-63.84l0 -70.95 198.63 0 0 -63.84 -283.75 0 0 368.89zm-3717.34 -3234.93l0 163.17c76.09,0 124.37,-7.1 198.62,-7.1 77.22,0 127.65,7.1 205.74,7.1l0 -163.17c-35.97,0 -38.65,-7.09 -78.04,-7.09l-248.29 0c-39.38,0 -42.07,7.09 -78.03,7.09zm1454.29 2993.74c4.06,48.64 45.62,93.23 49.66,141.88l-120.6 0c16.42,-34.23 46.26,-123.81 70.94,-141.88zm-205.7 234.11c151.95,-0.01 66.04,-10.24 115.34,-26.52l175.5 -1.87c2.46,29.61 3.65,27.82 34.57,29.27 18.63,0.87 44.97,-0.89 64.74,-0.89 -7.29,-31.27 -29.78,-63.79 -42.47,-92.31 -14.51,-32.62 -29.03,-61.8 -42.56,-92.24 -15.01,-33.71 -27.1,-60.23 -42.77,-92.02 -8.2,-16.64 -13.54,-32.47 -21.31,-49.63 -8.54,-18.87 -15.81,-26.87 -21.15,-49.79l-35.46 0 -184.43 376zm-3085.98 7.08c40.26,0 42.39,-40.66 61.47,-80.4 15.54,-32.4 31.76,-68.04 43.94,-97.94 13.27,-32.61 28.81,-67.92 43.56,-98.33 10.2,-21.02 37.64,-78.17 42.56,-99.31l-92.22 0c-13.1,56.24 -76.93,168.47 -92.22,234.1l-106.42 -234.1 -92.22 0c32.7,61.79 57.17,128.98 89.89,193.87 16.89,33.47 29.26,65 45,96.89 12.26,24.8 26.13,85.22 56.66,85.22zm1603.27 -283.76c0,137.98 184.45,95.57 184.45,177.35 0,70.33 -150.83,15.41 -156.07,14.19 -10.65,20.14 -22.71,39.5 -28.38,63.84 120.12,63.57 269.58,9.95 269.58,-78.03 0,-139.08 -184.44,-101.57 -184.44,-177.35 0,-61.61 111.85,-16.69 141.88,-14.19 7.25,-31.14 18.44,-29.65 21.28,-63.84 -43.05,-10.04 -40.23,-21.29 -113.51,-21.29 -66.37,0 -134.79,37.46 -134.79,99.32zm539.17 276.67l85.12 0 0 -368.89 -85.12 0 0 368.89zm-2681.61 0l85.14 0 0 -368.89 -85.14 0 0 368.89zm1695.51 -2568.09c9.06,-33.9 39.69,-40.71 49.66,-78.03 -15.59,-23.3 -33.56,-48.32 -56.76,-63.85 -15.48,23.13 -41.26,47.8 -56.74,70.95 9.37,13.98 17.7,21.7 28.28,35.55 13.2,17.32 17.01,22.97 35.56,35.38zm524.97 -241.19c16.14,11.82 44.69,45.19 49.67,63.85 25.95,-6.94 51.34,-47.32 63.84,-70.95 -14.49,-27.37 -32.07,-44.68 -49.66,-70.95 -19.38,12.98 -49.81,57.07 -63.85,78.05zm2071.49 1901.23l7.1 0 -5.91 -8.28 -1.19 8.28zm-3398.1 0l0 -7.09 -8.27 5.9 8.27 1.19z"/>
 </g>
</svg>
