<!-- Generated by IcoMoon.io -->
<svg version="1.1" xmlns="http://www.w3.org/2000/svg" width="32" height="32" viewBox="0 0 32 32">
<title>usuario-curculo-negro</title>
<path d="M16 25.625q2.125 0 4.469-1.251t3.531-3.063q-0.063-1.751-2.812-2.937t-5.188-1.188-5.188 1.156-2.812 2.969q1.188 1.812 3.531 3.063t4.469 1.251zM16 6.688q-1.625 0-2.812 1.188t-1.188 2.812 1.188 2.812 2.812 1.188 2.812-1.188 1.188-2.812-1.188-2.812-2.812-1.188zM16 2.688q5.5 0 9.407 3.907t3.907 9.407-3.907 9.407-9.407 3.907-9.407-3.907-3.907-9.407 3.907-9.407 9.407-3.907z"></path>
</svg>
