<!-- Generated by IcoMoon.io -->
<svg version="1.1" xmlns="http://www.w3.org/2000/svg" width="32" height="32" viewBox="0 0 32 32">
<title>versatile</title>
<path fill="#2c326b" d="M8.513 15.041h1.377l0.006-2.178c0.304 0.090 0.176-0.056 0.325 0.399l0.512 1.779 1.424-0.005-0.672-2.078c0.293-0.267 0.589-0.141 0.589-1.096 0-4.295 0.556-3.726-3.562-3.726l0.001 6.905zM9.903 11.698c0.964 0.070 0.816 0.034 0.805-0.929-0.005-0.452 0.023-0.913-0.029-1.36l-0.781-0.066 0.005 2.355z"></path>
<path fill="#2c326b" d="M15.997 15.039l1.395-0.013 0.132-0.849 0.909 0.001 0.144 0.821 1.389 0.048-1.243-6.896-1.496-0.013-1.23 6.9zM17.669 13.067l0.627 0.026-0.267-2.011-0.36 1.985z"></path>
<path fill="#2c326b" d="M2.196 15.041l1.289-0.010 1.266-6.893-1.404 0.018-0.561 4.136-0.623-4.127-1.391-0.032c0.237 1.756 0.793 4.229 1.118 6.124 0.069 0.403 0.007 0.615 0.306 0.785z"></path>
<path fill="#2c326b" d="M12.706 11.999c0.497 0.184 0.964 0.147 1.589 0.164l0.011 1.59h-1.6l0.192 1.287c0.941 0 2.544 0.314 2.746-0.687 0.137-0.679 0.139-2.777-0.171-3.163-0.4-0.305-0.93-0.135-1.535-0.219l-0.021-1.522 1.707-0.039-0.207-1.235c-0.829-0.129-2.552-0.252-2.793 0.53-0.181 0.585-0.076 2.79 0.081 3.293z"></path>
<path fill="#2c326b" d="M5.115 15.041l2.645-0.021 0.211-1.236-1.431-0.036v-1.503h1.082l0.037-1.192-1.119 0.001v-1.631h1.466l-0.195-1.287-2.696-0.001z"></path>
<path fill="#2c326b" d="M28.353 15.041l2.645-0.021 0.211-1.236-1.431-0.036v-1.503h1.082l0.037-1.192-1.12 0.001v-1.631h1.451l-0.18-1.287-2.696-0.001z"></path>
<path fill="#2c326b" d="M19.628 9.417l0.901 0.006v5.59l1.425 0.031v-5.594l0.864-0.033c-0.112-1.684-0.433-1.282-2.861-1.282l-0.329 1.281z"></path>
<path fill="#2c326b" d="M25.175 15.041h2.568l0.223-1.283-1.368-0.004v-5.577l-0.396-0.049-1.032 0.008z"></path>
<path fill="#2c326b" d="M23.201 15.041h1.377l0.007-6.905h-1.384z"></path>
<path fill="#2c326b" d="M19.343 20.080c0 1.734-1.405 3.139-3.139 3.139s-3.139-1.405-3.139-3.139c0-1.734 1.405-3.139 3.139-3.139s3.139 1.405 3.139 3.139z"></path>
<path fill="#2c326b" d="M28.272 20.115c0 1.734-1.405 3.139-3.139 3.139s-3.139-1.405-3.139-3.139c0-1.734 1.405-3.139 3.139-3.139s3.139 1.405 3.139 3.139z"></path>
<path fill="#2c326b" d="M10.455 20.017c0 1.734-1.405 3.139-3.139 3.139s-3.139-1.405-3.139-3.139c0-1.734 1.405-3.139 3.139-3.139s3.139 1.405 3.139 3.139z"></path>
<path fill="#fefefe" d="M24.009 21.574c0.161 0.062 0.067 0.083 0.207 0.155 0.386 0.196 0.078 0.179 0.513 0.185 0.504 0.007 0.208-0.043 0.448-0.102 0.075-0.018 0.186-0.018 0.254-0.038 0.15-0.045 0.073-0.027 0.112-0.118h0.712c0.103-0.11 0.14-0.226 0.198-0.31 0.050-0.074 0.054-0.034 0.102-0.127 0.044-0.083 0.010-0.101 0.096-0.159-0.006-0.266 0.205-0.325 0.125-0.762-0.037-0.203-0.073-0.175-0.113-0.195 0.046 0.208 0.145 0.289 0.056 0.53-0.035 0.097-0.065 0.141-0.107 0.209-0.243 0.397 0.073 0.168-0.407 0.257-0.086 0.016-0.023-0.003-0.121 0.056-0.199 0.119-0.368 0.117-0.481 0.148l-0.404 0.094c-0.089 0.016-0.147 0.049-0.241 0.074-0.186 0.050-0.336 0.071-0.534 0.102-0.299 0.046-0.308 0.023-0.439-0.196-0.207-0.345-0.4-0.223-0.478-0.793-0.040-0.29-0.112-0.409-0.090-0.508 0.377-0.096 0.506 0.203 0.61 0.483 0.097 0.259 0.273 0.495 0.614 0.485 0.164-0.005 0.267-0.096 0.388-0.167 0.259-0.151 0.553-0.197 0.505-0.586-0.022-0.179-0.141-0.206-0.285-0.275 0.078 0.163 0.241 0.075 0.25 0.332 0.011 0.359-0.834 0.675-0.979 0.637-0.373-0.098-0.357-0.304-0.495-0.625-0.11-0.258-0.356-0.484-0.687-0.306-0.013 0.189 0.079 0.281 0.104 0.467 0.026 0.201 0.022 0.254 0.109 0.43l0.456 0.624z"></path>
<path fill="#fefefe" d="M26.774 19.963c-0.017-0.107-0.227-0.463-0.282-0.624-0.074-0.216-0.12-0.492-0.223-0.673-0.125-0.219-0.252-0.324-0.388-0.535-0.103-0.16-0.219-0.433-0.363-0.525l-0.208 0.002c-0.022 0.14-0.019 0.119 0.024 0.226 0.002 0.005 0.028 0.061 0.038 0.079 0.055 0.102 0.090 0.117 0.131 0.242l0.224 0.499c0.050 0.077 0.041 0.080 0.071 0.187l0.152 0.339c0.13 0.263 0.121 0.404 0.229 0.497 0.085 0.074 0.2 0.099 0.31 0.183 0.096 0.073 0.145 0.164 0.26 0.199 0.049-0.064 0.031 0.019 0.025-0.096z"></path>
<path fill="#fefefe" d="M24.009 21.574l0.597 0.538c0.377 0.173 1.416 0.090 1.727-0.279 0.105-0.125 0.301-0.573 0.318-0.774-0.086 0.058-0.052 0.076-0.096 0.159-0.049 0.092-0.052 0.053-0.102 0.127-0.058 0.085-0.095 0.2-0.198 0.31h-0.712c-0.038 0.090 0.038 0.073-0.112 0.118-0.069 0.020-0.179 0.020-0.254 0.038-0.241 0.060 0.056 0.109-0.448 0.102-0.435-0.006-0.127 0.011-0.513-0.185-0.14-0.072-0.046-0.093-0.207-0.155z"></path>
<path fill="#fefefe" d="M25.505 19.404c-0.030-0.061-0.033-0.039-0.14-0.072-0.066-0.021-0.116-0.040-0.18-0.052-0.052 0.034 0.023 0.030-0.091 0.012-0.022-0.003-0.113-0.037-0.129-0.044-0.101-0.044-0.105-0.068-0.262-0.058-0.088 0.005-0.188 0.029-0.275 0.046-0.025 0.005-0.082 0.015-0.119 0.025l-0.14 0.052c0.333 0.014 0.438-0.095 0.766 0.018 0.36 0.123 1.189 0.383 1.503 0.576 0.099 0.061 0.136 0.127 0.226 0.195 0.040 0.019 0.076-0.009 0.113 0.195 0.080 0.436-0.131 0.495-0.125 0.762 0.089-0.133 0.285-0.629 0.254-0.826-0.006-0.038-0.028-0.109-0.042-0.14l-0.090-0.13c0.006 0.115 0.025 0.033-0.025 0.096-0.115-0.035-0.164-0.126-0.26-0.199-0.11-0.085-0.225-0.109-0.31-0.183-0.107-0.092-0.099-0.233-0.229-0.497l-0.152-0.339c-0.030-0.108-0.021-0.111-0.071-0.187l-0.224-0.499c-0.041-0.125-0.076-0.14-0.131-0.242-0.010-0.018-0.035-0.074-0.038-0.079-0.043-0.107-0.046-0.085-0.024-0.226l0.208-0.002c-0.214-0.148-0.395 0.058-0.385 0.257 0.007 0.147 0.294 0.512 0.414 0.744 0.182 0.355 0.257 0.378 0.283 0.883-0.046-0.003-0.132-0.005-0.172-0.011-0.099-0.017-0.104-0.026-0.152-0.075z"></path>
<path fill="#fefefe" d="M25.043 18.076c-0.356 0.108-0.019 0.562 0.185 0.569 0.187 0.006 0.112-0.195 0.068-0.276-0.023-0.041-0.219-0.267-0.253-0.293z"></path>
<path fill="none" stroke="#b21d23" stroke-linejoin="round" stroke-linecap="round" stroke-miterlimit="22.9256" stroke-width="82.179" d="M16.204 16.275c2.101 0 3.804 1.703 3.804 3.804s-1.703 3.804-3.804 3.804c-2.101 0-3.804-1.703-3.804-3.804s1.703-3.804 3.804-3.804z"></path>
<path fill="none" stroke="#b21d23" stroke-linejoin="round" stroke-linecap="round" stroke-miterlimit="22.9256" stroke-width="82.179" d="M25.134 16.311c2.101 0 3.804 1.703 3.804 3.804s-1.703 3.804-3.804 3.804c-2.101 0-3.804-1.703-3.804-3.804s1.703-3.804 3.804-3.804z"></path>
<path fill="none" stroke="#b21d23" stroke-linejoin="round" stroke-linecap="round" stroke-miterlimit="22.9256" stroke-width="82.179" d="M7.316 16.213c2.101 0 3.804 1.703 3.804 3.804s-1.703 3.804-3.804 3.804c-2.101 0-3.804-1.703-3.804-3.804s1.703-3.804 3.804-3.804z"></path>
<path fill="#fefefe" d="M7.873 21.095c0.065-0.099 0.113-0.093 0.152-0.241 0.035-0.129-0.001-0.234-0.041-0.318 0.15-0.101 0.139-0.181 0.139-0.421-0.052-0.048-0.057-0.037-0.070-0.123 0.483-0.068 1.142-0.026 1.598-0.081 0.301-0.037 0.222-0.070 0.369-0.201 0.040-0.077 0.026 0.007 0.019-0.11-0.008-0.129-0.080-0.238-0.186-0.29-0.165-0.081-1.524-0.084-1.756-0.084 0.015-0.065 0.309-0.432 0.027-0.675-0.089-0.017-0.21-0.175-0.501-0.020-0.144 0.076-0.292 0.13-0.426 0.214-0.159 0.099-0.223 0.159-0.416 0.227-0.349 0.122-0.37 0.002-0.785 0.495-0.085 0.102-0.184 0.261-0.394 0.22-0.484-0.093-0.724-0.052-0.787 0.438-0.038 0.299-0.023 0.928 0.118 1.147 0.091 0.141 0.234 0.177 0.458 0.18 0.268 0.004 0.371-0.086 0.56-0.109 0.232-0.026 0.604 0.23 1.079 0.189 0.54-0.046 0.82 0.013 0.789-0.468l0.053 0.031z"></path>
<path fill="#fefefe" d="M16.133 17.634l0.554 1.717 1.805-0.003-1.462 1.058 0.561 1.715-1.458-1.063-1.457 1.063 0.561-1.715-1.461-1.058 1.805 0.003z"></path>
</svg>
