<!-- Generated by IcoMoon.io -->
<svg version="1.1" xmlns="http://www.w3.org/2000/svg" width="32" height="32" viewBox="0 0 32 32">
<title>viajero</title>
<path d="M29.025 12.689c-0.241-0.162-0.525-0.249-0.816-0.249-0.119 0-0.236 0.015-0.351 0.043-0.652 0.069-2.244 0.803-5.924-3.26-0.566-0.701-1.421-1.109-2.322-1.109-0.054 0-0.109 0.001-0.163 0.004h0.001c-0.672 0.029-1.319 0.27-1.846 0.687-2.094 1.551-4.729 6.033-5.491 7.55-0.102 0.196-0.156 0.415-0.156 0.636 0 0.388 0.164 0.758 0.451 1.018l-1.091 1.936-2.554-1.476c-0.191-0.111-0.408-0.169-0.628-0.169-0.446 0-0.857 0.238-1.081 0.622l-4.469 7.715c-0.108 0.191-0.166 0.406-0.166 0.625 0 0.449 0.238 0.864 0.626 1.090l0.92 0.515c-0.021 0.111-0.031 0.223-0.031 0.336 0 1.016 0.823 1.839 1.839 1.839 0.679 0 1.304-0.375 1.623-0.975 0.162-0.278 0.246-0.595 0.246-0.917 0-0.219-0.040-0.436-0.116-0.641l5.903-10.206c0.462-0.040 0.873-0.312 1.092-0.721 0.751-1.488 1.62-2.921 2.582-4.277 0.135 0.801 0.205 1.612 0.205 2.424 0 0.297-0.011 0.597-0.028 0.892-0.041 0.273-0.061 0.55-0.061 0.826 0 0.462 0.057 0.923 0.171 1.371 0.119 0.247 0.271 0.479 0.453 0.686l-5.003 9.081c-0.099 0.193-0.151 0.408-0.151 0.625 0 0.742 0.589 1.349 1.331 1.372 0.487-0.002 0.937-0.264 1.181-0.686l4.921-8.923 5.306 8.923c0.239 0.416 0.68 0.676 1.16 0.686 0.241 0 0.478-0.064 0.687-0.185 0.407-0.249 0.655-0.693 0.655-1.171 0-0.239-0.062-0.475-0.182-0.683l-5.34-9.005c0.381-0.413 0.593-0.955 0.593-1.517 0-0.136-0.012-0.272-0.037-0.405l-0.336-4.173c1.374 1.083 3.056 1.705 4.804 1.778 0.022 0 0.046 0.001 0.068 0.001 0.361 0 0.722-0.047 1.071-0.138 0.307-0.070 0.578-0.251 0.762-0.507 0.16-0.23 0.247-0.505 0.247-0.785 0-0.435-0.206-0.844-0.555-1.102v0zM6.512 29.553c-0.148 0.268-0.431 0.435-0.738 0.435-0.466 0-0.845-0.378-0.845-0.844s0.379-0.845 0.845-0.845c0.162 0 0.321 0.047 0.457 0.135 0.242 0.153 0.389 0.42 0.389 0.707 0 0.144-0.037 0.286-0.108 0.412v0z"></path>
<path d="M22.779 4.24c0 1.812-1.469 3.281-3.281 3.281s-3.281-1.469-3.281-3.281c0-1.812 1.469-3.281 3.281-3.281s3.281 1.469 3.281 3.281z"></path>
</svg>
