<!-- Generated by IcoMoon.io -->
<svg version="1.1" xmlns="http://www.w3.org/2000/svg" width="32" height="32" viewBox="0 0 32 32">
<title>w3</title>
<path d="M10.010 25.908c0.165-0.003 0.109 0.033 0.184-0.087l1.986-3.546c0.143-0.248 0.266-0.491 0.416-0.739l2.512-4.48c0.151-0.249 0.264-0.483 0.416-0.739l0.62-1.111c0.122-0.218 0.583-0.973 0.622-1.142l0.068-0.001c0.035 0.149 0.315 0.592 0.405 0.749l2.694 4.804c0.071 0.129 0.13 0.243 0.207 0.37 0.293 0.492 0.552 0.989 0.832 1.475 0.519 0.9 1.155 2.127 1.658 2.957l0.624 1.106c0.057 0.094 0.173 0.281 0.197 0.38l2.093-3.641c0.142-0.253 0.277-0.497 0.416-0.737l0.817-1.491c0-0.093-0.99-1.778-1.165-2.093l-2.558-4.569c-0.068-0.122-0.122-0.227-0.195-0.349l-2.361-4.222-7.398 0.001c-0.034 0.143-0.105 0.22-0.169 0.339l-0.939 1.674c-0.118 0.232-0.259 0.455-0.383 0.669l-0.937 1.675c-0.1 0.167-0.526 0.903-0.557 1.038-0.097-0.071-2.696-4.719-3.055-5.395h-6.616c0.035 0.132 2.128 3.798 2.386 4.264 0.103 0.184 0.183 0.351 0.288 0.526 0.112 0.184 0.195 0.36 0.306 0.543 0.108 0.178 0.184 0.339 0.292 0.522l0.904 1.607c0.205 0.357 0.402 0.726 0.611 1.087l3.284 5.844c0.111 0.184 0.194 0.359 0.305 0.543l1.048 1.871c0.062 0.11 0.116 0.165 0.147 0.294l-0.003 0.004z"></path>
<path d="M26.265 7.414h3.156c-0.072 0.109-0.167 0.184-0.262 0.28l-1.808 2.129 0.34 0.781c0.874 0 2.341-0.019 2.341 1.288 0 1.137-1.627 1.692-2.992 0.685-0.208-0.154-0.286-0.28-0.401-0.311-0.035 0.13-0.591 0.894-0.747 1.187 0.091 0.061 0.145 0.132 0.237 0.204s0.141 0.117 0.251 0.19c1.307 0.864 3.126 1.018 4.339-0.046 0.195-0.171 0.451-0.529 0.563-0.761 0.155-0.325 0.25-0.668 0.277-1.010v-0.416c-0.045-0.536-0.265-1.052-0.686-1.477-0.341-0.343-1.059-0.721-1.553-0.721 0.164-0.245 0.12-0.148 0.242-0.301l1.259-1.455c0.076-0.078 0.5-0.557 0.5-0.62v-0.95h-5.055v1.326z"></path>
</svg>
