<!-- Generated by IcoMoon.io -->
<svg version="1.1" xmlns="http://www.w3.org/2000/svg" width="32" height="32" viewBox="0 0 32 32">
<title>w3spaces</title>
<path fill="#04a96c" d="M10.162 21.026c0.161-0.003 0.106 0.032 0.179-0.085l1.936-3.456c0.139-0.241 0.259-0.479 0.405-0.72l2.448-4.366c0.147-0.243 0.257-0.471 0.405-0.72l0.604-1.083c0.119-0.213 0.568-0.948 0.606-1.114h0.066c0.034 0.145 0.307 0.577 0.395 0.73l2.626 4.683c0.069 0.126 0.127 0.237 0.201 0.361 0.286 0.48 0.538 0.964 0.811 1.438 0.506 0.877 1.126 2.073 1.616 2.882l0.608 1.078c0.056 0.092 0.169 0.274 0.192 0.37l2.040-3.549c0.138-0.247 0.27-0.484 0.405-0.719l0.796-1.453c0-0.090-0.965-1.733-1.135-2.040l-2.493-4.453c-0.066-0.119-0.119-0.221-0.19-0.34l-2.301-4.115h-7.21c-0.033 0.14-0.102 0.215-0.165 0.33l-0.915 1.632c-0.115 0.226-0.253 0.443-0.373 0.652l-0.913 1.633c-0.097 0.163-0.513 0.88-0.543 1.011-0.095-0.069-2.628-4.599-2.977-5.258h-6.449c0.034 0.128 2.074 3.702 2.326 4.156 0.1 0.18 0.178 0.342 0.281 0.513 0.109 0.179 0.19 0.351 0.298 0.529 0.105 0.174 0.179 0.33 0.285 0.509l0.881 1.566c0.2 0.348 0.392 0.707 0.595 1.059l3.201 5.696c0.108 0.179 0.189 0.35 0.297 0.529l1.022 1.823c0.060 0.107 0.113 0.161 0.143 0.287z"></path>
<path fill="#04a96c" d="M26.005 3.001h3.076c-0.070 0.106-0.162 0.179-0.256 0.273l-1.762 2.075 0.331 0.761c0.852 0 2.282-0.018 2.282 1.256 0 1.108-1.586 1.649-2.916 0.667-0.203-0.15-0.279-0.273-0.391-0.303-0.034 0.127-0.576 0.871-0.728 1.157 0.089 0.060 0.141 0.129 0.231 0.199s0.137 0.114 0.245 0.185c1.274 0.842 3.047 0.992 4.229-0.045 0.19-0.167 0.44-0.515 0.549-0.742 0.151-0.317 0.243-0.651 0.27-0.984v-0.406c-0.044-0.522-0.258-1.025-0.669-1.44-0.332-0.334-1.032-0.703-1.514-0.703 0.16-0.239 0.117-0.144 0.236-0.293l1.227-1.419c0.074-0.076 0.488-0.543 0.488-0.604v-0.926h-4.928v1.29z"></path>
</svg>
