<!-- Generated by IcoMoon.io -->
<svg version="1.1" xmlns="http://www.w3.org/2000/svg" width="32" height="32" viewBox="0 0 32 32">
<title>whatsapp</title>
<path fill="#00a859" d="M2.653 29.417c0.38-1.711 1.216-3.736 1.813-5.479 0.939-2.744 0.030-1.1-0.975-4.996-1.143-4.433 0.189-8.41 2.302-11.273 4.914-6.66 15.878-7.103 21.279 0.596 2.776 3.958 3.067 9.781 0.577 13.893-1.437 2.372-1.306 1.787-2.389 2.968-0.484 0.527-0.36 0.425-0.874 0.806-2.815 2.085-6.452 3.516-10.975 2.537-4.162-0.901-2.199-1.805-5.343-0.758-1.604 0.534-3.789 1.348-5.415 1.705zM19.578 17.448c0.657-0.001 2.745 1.083 3.036 1.311 1.352 1.057-0.59 3.563-3.039 3.438-2.653-0.135-5.495-2.381-7.137-4.16-4.7-5.092-2.448-8.903-0.243-8.766 1.081 0.067 1.047 0.669 1.337 1.477 0.986 2.749 0.934 1.747-0.469 3.671 0.255 1.52 3.233 4.473 5.010 4.649 0.698-0.523 0.748-0.991 1.504-1.621zM6.052 26.101c0.833-0.231 3.599-1.345 4.236-1.203 0.684 0.152 1.719 1.191 4.277 1.571 8.913 1.325 15.179-7.974 11.62-15.298-4.203-8.65-14.717-7.618-18.452-2.396-2.157 3.015-3.517 6.956-1.577 11.193l1.030 1.817c0.371 0.824-1.009 3.179-1.133 4.317z"></path>
</svg>
