<!-- Generated by IcoMoon.io -->
<svg version="1.1" xmlns="http://www.w3.org/2000/svg" width="32" height="32" viewBox="0 0 32 32">
<title>www</title>
<path fill="#aa1018" d="M21.716 25.746c0.050-0.216 0.269-0.489 0.385-0.716l0.402-0.751h1.153l-1.939 1.467zM11.812 24.279h8.28c-0.383 0.723-0.93 1.393-1.532 1.927-0.559 0.495-1.517 1.113-2.346 1.113-0.817 0-1.049-0.002-1.852-0.402-0.604-0.301-1.024-0.66-1.437-1.131-0.481-0.548-0.733-0.789-1.113-1.507zM8.249 24.279h1.153l0.786 1.467-1.939-1.467zM15.533 29.415h0.624c0.479-0.003 0.766-0.019 1.476-0.1 1.181-0.137 2.178-0.438 3.252-0.835 0.597-0.221 1.301-0.592 1.829-0.896 1.492-0.858 1.656-1.195 2.701-2.068 0.438-0.366 1.782-2.089 2.083-2.686s1.040-1.938 1.195-2.587c0.020-0.085 0.076-0.155-0.112-0.155-2.409 0-1.962-0.16-2.27 0.507-0.14 0.304-0.741 1.589-0.978 1.589h-1.991c0.006-0.278 0.201-0.783 0.273-1.090 0.039-0.168 0.067-0.36 0.117-0.566 0.138-0.574 0.346-0.441-1.91-0.441-0.232 0-0.311 0.677-0.408 1.059-0.057 0.223-0.108 0.355-0.175 0.558-0.114 0.345-0.068 0.479-0.255 0.479h-10.061c-0.187 0-0.142-0.134-0.255-0.479l-0.321-1.146c-0.152-0.634 0.059-0.471-2.097-0.471-0.267 0-0.081 0.488 0.041 1.007 0.072 0.307 0.267 0.812 0.273 1.090-2.388 0-2.042 0.266-2.672-0.996-0.166-0.333-0.461-1.1-0.629-1.1h-1.939c-0.256 0-0.101 0.162 0.165 0.883 0.473 1.283 1.201 2.352 2.013 3.437l0.957 1.086c0.963 0.798 1.338 1.314 2.698 2.071 0.305 0.17 0.568 0.354 0.882 0.48 0.75 0.302 0.993 0.492 1.95 0.774 1.078 0.318 2.385 0.595 3.544 0.595z"></path>
<path fill="#aa1018" d="M15.69 4.681c-0.452 0-1.003 0.24-1.328 0.402-1.037 0.516-2.014 1.625-2.55 2.638h8.28c-0.38-0.718-0.632-0.959-1.113-1.507-0.414-0.471-0.833-0.83-1.437-1.131-0.803-0.4-1.035-0.402-1.852-0.402zM15.52 2.585h0.94c0.752 0.030 1.491 0.135 2.379 0.31 0.777 0.154 1.381 0.387 2.086 0.639 0.358 0.128 0.592 0.28 0.942 0.42 0.691 0.278 1.921 1.147 2.493 1.594 0.501 0.391 0.584 0.54 0.908 0.822 0.428 0.372 0.2 0.205 0.496 0.499 1.247 1.232 2.222 3.018 2.838 4.657 0.155 0.413 0.171 0.386-0.021 0.386-2.409 0-1.962 0.16-2.27-0.507l-0.874-1.589h-2.096l0.39 1.656c0.047 0.195 0.181 0.441-0.076 0.441-2.155 0-1.945 0.163-2.097-0.471l-0.321-1.146c-0.114-0.344-0.068-0.479-0.255-0.479h-10.061c-0.159 0-0.129 0.060-0.174 0.193l-0.257 0.844c-0.097 0.382-0.176 1.059-0.408 1.059-2.256 0-2.048 0.133-1.91-0.441l0.39-1.656h-2.096l-0.89 1.625c-0.28 0.635 0.080 0.471-2.254 0.471-0.188 0-0.132-0.071-0.112-0.155 0.067-0.28 0.598-1.438 0.71-1.71 0.077-0.187 0.156-0.285 0.241-0.441l0.775-1.269c0.186-0.277 0.391-0.519 0.586-0.776 0.199-0.261 0.41-0.475 0.644-0.719 0.126-0.131 0.174-0.244 0.321-0.36 0.17-0.132 0.213-0.175 0.359-0.322 0.589-0.594 1.626-1.333 2.342-1.745 0.289-0.166 0.55-0.34 0.886-0.476 1.092-0.441 1.57-0.764 3.033-1.054 0.378-0.075 0.71-0.149 1.162-0.201 0.449-0.052 0.859-0.085 1.249-0.1zM21.716 6.253l0.786 1.467h1.153c-0.034-0.047-0.394-0.371-0.464-0.427-0.163-0.132-0.303-0.244-0.471-0.367l-1.004-0.673zM9.402 7.721l0.786-1.467-1.034 0.695c-0.167 0.124-0.312 0.234-0.47 0.368-0.076 0.064-0.4 0.357-0.435 0.404h1.153z"></path>
<path fill="#aa1018" d="M23.131 18.253c1.071 0 0.804 0.228 1.73-1.833 0.109-0.244 0.217-0.573 0.366-0.682 0.023 0.272 0.68 1.628 0.86 2.074 0.209 0.517 0.262 0.441 1.079 0.441 0.5 0 0.52-0.3 0.751-0.82 0.172-0.387 0.35-0.763 0.499-1.125 0.15-0.368 0.311-0.748 0.479-1.093 0.736-1.517 0.642-1.415-0.629-1.415-0.484 0-0.442 0.235-0.787 1.1-0.089 0.225-0.172 0.459-0.261 0.682-0.094 0.236-0.2 0.468-0.262 0.734h-0.105c-0.015-0.185-0.69-1.691-0.815-2.014-0.227-0.584-0.253-0.501-1.071-0.501-0.51 0-0.498 0.328-0.873 1.171l-0.475 1.097c-0.037 0.088-0.039 0.094-0.081 0.181-0.007 0.014-0.027 0.057-0.034 0.070l-0.056 0.101c-0.022-0.258-0.147-0.477-0.23-0.713-0.090-0.256-0.151-0.473-0.242-0.702-0.090-0.226-0.153-0.453-0.246-0.697-0.237-0.615-0.218-0.508-1.326-0.508-0.601 0-0.246 0.604-0.195 0.719l1.383 3.385c0.102 0.245 0.215 0.35 0.541 0.35z"></path>
<path fill="#aa1018" d="M2.642 14.061c0 0.164 0.754 1.911 0.876 2.216 0.15 0.378 0.288 0.704 0.441 1.078 0.418 1.019 0.261 0.898 1.356 0.898 0.401 0 0.609-0.619 0.816-1.123 0.114-0.275 0.207-0.42 0.314-0.681 0.112-0.271 0.219-0.431 0.284-0.712 0.141 0.103 0.845 1.825 0.935 2.052 0.217 0.543 0.313 0.464 1.108 0.464 0.503 0 0.438-0.203 0.751-0.873 0.212-0.455 1.44-3.106 1.407-3.341-0.046-0.331-0.575-0.239-1.057-0.239-0.487 0-0.523 0.328-0.831 1.16-0.097 0.264-0.175 0.464-0.278 0.718-0.126 0.314-0.161 0.583-0.307 0.689-0.016-0.19-0.45-1.17-0.562-1.43-0.552-1.28-0.304-1.138-1.43-1.138-0.381 0-0.541 0.582-0.778 1.16-0.147 0.358-0.509 1.087-0.584 1.407-0.138-0.101-0.102-0.109-0.165-0.306l-0.65-1.813c-0.201-0.544-0.199-0.449-1.28-0.449-0.177 0-0.367 0.093-0.367 0.262z"></path>
<path fill="#aa1018" d="M11.865 13.904c0 0.533 0.635 1.838 0.845 2.351 0.143 0.349 0.307 0.756 0.463 1.109 0.419 0.949 0.156 0.889 1.259 0.889 0.557 0 0.544-0.417 0.909-1.135 0.135-0.267 0.522-1.217 0.663-1.38 0.053 0.228 0.171 0.476 0.263 0.68 0.099 0.22 0.215 0.468 0.306 0.69 0.543 1.325 0.41 1.145 1.475 1.145 0.396 0 0.508-0.439 0.688-0.883l1.199-2.731c0.408-0.904 0.25-0.839-0.944-0.839-0.42 0-0.497 0.559-0.733 1.153-0.090 0.225-0.184 0.439-0.269 0.675-0.085 0.237-0.194 0.476-0.256 0.74-0.048-0.055-0.027-0.014-0.087-0.122l-0.228-0.557c-0.101-0.229-0.199-0.446-0.298-0.698-0.538-1.361-0.414-1.19-1.43-1.19-0.413 0-0.57 0.611-0.809 1.183l-0.463 1.056c-0.082 0.197-0.039 0.214-0.195 0.329-0.022-0.258-0.147-0.477-0.23-0.713l-0.488-1.399c-0.209-0.547-0.178-0.456-1.274-0.456-0.188 0-0.186 0.061-0.367 0.105z"></path>
</svg>
