<!-- Generated by IcoMoon.io -->
<svg version="1.1" xmlns="http://www.w3.org/2000/svg" width="32" height="32" viewBox="0 0 32 32">
<title>xiiber-logo-circular-rojo-negro</title>
<path fill="#00356c" d="M12.434 27.035c0-1.384 1.18-2.556 2.555-2.556 1.057 0 1.918 0.564 2.357 1.476 0.595 1.238 0.056 2.763-1.124 3.379-0.495 0.259-0.865 0.258-1.403 0.258-1.274 0-2.385-1.277-2.385-2.556zM31.68 15.671v0.396c-0.014 1.234-0.16 2.467-0.417 3.565l-0.452 1.507c-0.899 2.322-1.373 3.094-2.811 4.942l-0.46 0.519c-0.984 0.974-1.482 1.486-2.587 2.268l-1.205 0.754c-1.189 0.665-1.487 0.77-2.669 1.206-0.471 0.174-0.959 0.303-1.482 0.435-0.947 0.239-2.264 0.417-3.457 0.417-2.999 0-5.26-0.609-7.764-1.945l-1.27-0.774-2.261-1.871c-0.576-0.577-0.586-0.575-0.135-0.923l5.032-4.509c0.601-0.57 0.394 0.215 0.394 0.522 0 0.517 0.035 0.64 0.396 0.968 0.338 0.308 1.152-0.146 1.435-0.287 0.602-0.301 1.59-0.515 2.281-0.614 0.225-0.033 0.428-0.068 0.657-0.067 0.263 0.001 0.413-0.061 0.632-0.037 0.436 0.048 0.882 0.062 1.315 0.135 1.306 0.22 3.116 0.953 3.291 0.968 0.169-0.727 0.17-0.667 0.17-1.406 0-0.727-0.416-1.731-0.748-2.233-0.814-1.231-0.75-1.090-0.414-1.486 0.432-0.507 1.038-0.972 1.472-1.424 0.116-0.121 0.152-0.195 0.276-0.32 0.26-0.262 0.547-0.688 0.751-0.995l2.165-3.074c0.561-0.561 1.632-1.229 2.35-1.654 0.529-0.313 1.643-0.823 1.643-1.807 0-0.858-1.086-1.528-1.661-1.662 0-0.431 0.286-0.437 0.714-0.862 0.955-0.946 0.873-0.829 1.311-0.27 1.227 1.563 2.206 3.26 2.792 5.174 0.138 0.453 0.256 0.896 0.369 1.377 0.225 0.957 0.337 2.008 0.349 3.068z"></path>
<path fill="#00356c" d="M10.050 20.773c0 0.276-0.018 0.403 0.34 0.213 0-0.281-0.061-0.38-0.34-0.213z"></path>
<path fill="#000" d="M0.321 15.288c0 3.711 0.381 5.148 1.924 8.236 0.229 0.458 0.413 0.7 0.68 1.101 0.361 0.542 1.116 1.648 1.596 1.968 0.483-0.128 3.458-3.059 3.974-3.469 0.42-0.334 0.609-0.578 0.991-0.896 1.267-1.050 0.235-0.305 1.263-2.509 0.216-0.462 0.368-0.804 0.701-1.185-1.761-2.622-2.785-4.050-3.405-7.388-0.354-1.905-0.731-5.365 0.55-6.973 2.289-2.873 6.005 5.131 6.005 9.022v3.663c1.861 0 0.905-0.146 2.034-3.52 0.847-2.531 1.703-4.3 4.195-5.448 1.523-0.702 3.202-1.222 4.982-0.837 0.913 0.197 0.624-0.105 1.433-0.723 0.311-0.238 0.377-0.257 0.585-0.568-1.092-1.625-4.047-3.56-6.027-4.354-0.492-0.197-1.055-0.376-1.575-0.523-1.145-0.324-2.306-0.51-3.461-0.566h-1.536c-5.221 0.256-10.142 3.111-12.804 7.751-1.2 2.091-2.105 4.729-2.105 7.217z"></path>
</svg>
