<!-- Generated by IcoMoon.io -->
<svg version="1.1" xmlns="http://www.w3.org/2000/svg" width="32" height="32" viewBox="0 0 32 32">
<title>xiiber-circular</title>
<path d="M16.191 4.308c-6.457-0.105-11.778 5.044-11.884 11.502s5.045 11.778 11.502 11.883 11.778-5.044 11.883-11.502c0.105-6.457-5.044-11.778-11.502-11.883zM12.561 19.19c-1.389-1.511-2.31-2.143-3.465-4.785-2.751-6.29-0.097-10.23 3.804-3.597 1.402 2.384 1.532 3.711 1.981 6.537l0.978-0.216c-0.113-2.291 0.375-5.045 1.29-6.444 0.752-1.151 3.895-3.389 6.17-2.672 1.446 0.456 1.188 1.704 0.204 2.509-2.5 2.044-2.111 2.251-3.329 4.875-0.532 1.146-1.047 1.509-1.641 2.506 0.509 0.732 1.942 1.628 1.655 3.859-2.186-0.439-3.945-0.712-6.292 0.567-0.389 0.212-0.553 0.372-0.87 0.555-1.693 0.983-0.988-2.918-0.484-3.693zM15.801 23.807c1.492-0.973 3.392 0.832 2.233 2.448-0.084 0.118-0.261 0.292-0.459 0.409-1.903 1.123-3.603-1.665-1.775-2.857z"></path>
</svg>
