<?xml version="1.0" encoding="UTF-8"?>
<!DOCTYPE svg PUBLIC "-//W3C//DTD SVG 1.1//EN" "http://www.w3.org/Graphics/SVG/1.1/DTD/svg11.dtd">
<!-- Creator: CorelDRAW 2017 -->
<svg xmlns="http://www.w3.org/2000/svg" xml:space="preserve" width="215.9mm" height="279.4mm" version="1.1" style="shape-rendering:geometricPrecision; text-rendering:geometricPrecision; image-rendering:optimizeQuality; fill-rule:evenodd; clip-rule:evenodd"
viewBox="0 0 21590 27940"
 xmlns:xlink="http://www.w3.org/1999/xlink">
 <defs>
  <style type="text/css">
   <![CDATA[
    .fil0 {fill:#FEFEFE}
    .fil1 {fill:black}
   ]]>
  </style>
 </defs>
 <g id="Capa_x0020_1">
  <metadata id="CorelCorpID_0Corel-Layer"/>
  <path class="fil0" d="M9538.47 8972.41c-736.65,231.43 -1165.19,347.08 -1839.46,864.56 -1563.76,1199.38 -2506.23,3560.82 -1895.31,5388.02 242.2,724.8 429.22,1268.31 858.85,1821.07 2402.84,3096.19 6703.18,2581.16 8490.06,-286.19 1523.03,-2444.67 884.04,-5467.7 -1545.37,-7141.12 -919.46,-633.54 -2621.61,-1101.03 -4068.63,-646.61l-0.14 0.27z"/>
  <path class="fil1" d="M10794.38 9423.69c-2500.79,0 -4546.48,2045.69 -4546.48,4546.48l0 0.41c0,2272.76 1690.31,4169.84 3875.75,4496.35 -69.19,-99.44 -104.2,-200.78 -148.06,-331.55 -122.87,-365.88 66.61,-838.27 380.99,-1078.29 135.54,-103.38 221.63,-126.81 369.83,-172.99 290.82,-90.86 632.86,2.59 817.7,129.4 468.59,321.47 605.89,891.27 345.99,1369.25 1976.09,-493.38 3451.3,-2288.57 3451.3,-4412.04l0 -0.4c0,-2500.79 -2045.69,-4546.48 -4546.47,-4546.48l-0.55 -0.14zm-1387.08 6231.33c-515.72,-597.17 -861.71,-850.53 -1274.44,-1879.09 -981.71,-2448.62 84.32,-3930.24 1503.96,-1336.69 510.4,932.4 544.18,1443.75 683.39,2534.43l378 -71.38c-16.21,-881.18 204.05,-1933.17 571.97,-2459.78 302.4,-432.9 1536.38,-1255.64 2401.76,-952.97 550.04,192.47 435.76,668.55 48.63,965.91 -984.57,755.72 -837.59,839.77 -1336.41,1832.65 -218.08,433.98 -420.64,567.34 -660.24,943.16 187.02,287.28 726.57,647.97 589.95,1501.78 -834.73,-194.25 -1507.23,-320.38 -2423.69,143.02 -151.74,76.83 -216.99,136.63 -340.54,203.24 -662.01,357.56 -344.9,-1132.37 -142.34,-1424l0 -0.28z"/>
 </g>
</svg>
