<!-- Generated by IcoMoon.io -->
<svg version="1.1" xmlns="http://www.w3.org/2000/svg" width="107" height="32" viewBox="0 0 107 32">
<title>xiiber-logo-horizontal-color</title>
<path fill="#003871" d="M8.279 26.241c-2.98 1.302-1.168 5.824 1.908 4.639 0.321-0.125 0.623-0.337 0.776-0.487 2.1-2.094-0.249-5.215-2.684-4.146v-0.006z"></path>
<path fill="#003871" d="M4.648 18.653c-1.674-2.567-2.87-3.72-3.919-7.892-2.498-9.927 2.37-15.070 6.478-4.358 1.477 3.852 1.342 5.837 1.307 10.102l1.492-0.078c0.399-3.396 1.791-7.325 3.482-9.162 1.388-1.51 6.56-4.029 9.732-2.413 2.015 1.029 1.328 2.798-0.316 3.741-4.183 2.392-3.659 2.794-6.095 6.35-1.064 1.555-1.912 1.966-3.032 3.285 0.569 1.2 2.456 2.87 1.484 6.080-3.108-1.181-5.627-2.015-9.393-0.712-0.627 0.216-0.904 0.413-1.417 0.601-2.73 1.029-0.737-4.536 0.196-5.55l0.001 0.004z"></path>
<path fill="#17082f" d="M26.507 29.135l-2.669-3.731-2.76 3.731h-3.845l4.681-6.125-4.521-6.037h3.96l2.578 3.549 2.645-3.549h3.751l-4.52 5.948 4.702 6.218h-4.001v-0.004zM31.099 16.973h3.528v12.163l-3.528-0.001v-12.162zM32.864 15.278c-0.649 0-1.175-0.188-1.581-0.566s-0.612-0.844-0.612-1.402c0-0.558 0.203-1.025 0.612-1.402 0.406-0.374 0.932-0.566 1.581-0.566s1.175 0.182 1.583 0.541c0.406 0.364 0.608 0.816 0.608 1.356 0 0.588-0.203 1.075-0.608 1.455s-0.936 0.577-1.583 0.577v0.007zM36.78 16.973h3.527v12.163l-3.527-0.001v-12.162zM38.541 15.278c-0.649 0-1.175-0.188-1.584-0.566s-0.608-0.844-0.608-1.402c0-0.558 0.203-1.025 0.608-1.402 0.409-0.374 0.937-0.566 1.584-0.566s1.175 0.182 1.58 0.541c0.409 0.364 0.612 0.816 0.612 1.356 0 0.588-0.203 1.075-0.612 1.455s-0.932 0.577-1.58 0.577v0.007zM49.644 16.791c1.132 0 2.161 0.259 3.086 0.779s1.655 1.253 2.182 2.193c0.527 0.943 0.79 2.040 0.79 3.289s-0.264 2.349-0.79 3.289c-0.527 0.944-1.257 1.674-2.182 2.193s-1.955 0.779-3.086 0.779c-1.673 0-2.948-0.527-3.819-1.583v1.402h-3.371v-16.776h3.527v5.902c0.889-0.979 2.111-1.471 3.663-1.471v0.004zM49.035 26.422c0.904 0 1.648-0.307 2.225-0.915s0.872-1.427 0.872-2.453c0-1.021-0.288-1.845-0.872-2.453s-1.324-0.915-2.225-0.915c-0.904 0-1.648 0.307-2.228 0.915s-0.872 1.427-0.872 2.453 0.292 1.845 0.872 2.453c0.58 0.608 1.324 0.915 2.228 0.915zM63.056 26.491c0.634 0 1.196-0.092 1.687-0.281s0.947-0.487 1.367-0.894l1.875 2.036c-1.146 1.31-2.816 1.968-5.019 1.968-1.371 0-2.584-0.266-3.642-0.804s-1.869-1.278-2.442-2.228c-0.573-0.947-0.859-2.025-0.859-3.231 0-1.189 0.281-2.265 0.848-3.221s1.341-1.705 2.327-2.239c0.99-0.538 2.1-0.804 3.335-0.804 1.161 0 2.214 0.246 3.164 0.737s1.705 1.196 2.275 2.125c0.566 0.93 0.848 2.025 0.848 3.289l-8.999 1.741c0.257 0.601 0.662 1.057 1.211 1.356s1.224 0.452 2.022 0.452l0.001-0.003zM62.537 19.46c-0.889 0-1.613 0.285-2.167 0.859s-0.85 1.367-0.883 2.374l5.924-1.153c-0.167-0.633-0.506-1.139-1.019-1.512s-1.131-0.566-1.854-0.566l-0.001-0.001zM73.439 18.578c0.424-0.588 0.99-1.032 1.704-1.335s1.542-0.452 2.478-0.452v3.257c-0.391-0.032-0.655-0.046-0.79-0.046-1.010 0-1.802 0.285-2.375 0.847s-0.858 1.413-0.858 2.545v5.742l-3.528-0.003v-12.163l3.371 0.001v1.605h-0.004z"></path>
<path fill="#e8443b" d="M78.177 30.107c0.387 0 0.698 0.314 0.698 0.699s-0.313 0.701-0.698 0.701c-0.387 0-0.701-0.314-0.701-0.701s0.314-0.699 0.701-0.699z"></path>
<path fill="#004dfd" d="M85.442 30.153c0.385 0 0.698 0.314 0.698 0.701s-0.313 0.698-0.698 0.698c-0.387 0-0.701-0.314-0.701-0.698s0.314-0.701 0.701-0.701z"></path>
<path fill="#feed01" d="M81.897 30.107c0.385 0 0.698 0.314 0.698 0.699s-0.314 0.701-0.698 0.701c-0.387 0-0.701-0.314-0.701-0.701s0.314-0.699 0.701-0.699z"></path>
<path fill="#ff8b00" d="M79.929 30.101c0.385 0 0.698 0.314 0.698 0.701s-0.314 0.698-0.698 0.698c-0.387 0-0.701-0.313-0.701-0.698s0.314-0.701 0.701-0.701z"></path>
<path fill="#760789" d="M87.194 30.151c0.387 0 0.701 0.313 0.701 0.701s-0.314 0.698-0.701 0.698c-0.385 0-0.698-0.314-0.698-0.698s0.313-0.701 0.698-0.701z"></path>
<path fill="#008125" d="M83.648 30.101c0.385 0 0.698 0.314 0.698 0.701s-0.314 0.698-0.698 0.698c-0.387 0-0.701-0.313-0.701-0.698s0.314-0.701 0.701-0.701z"></path>
<path fill="#3e4095" d="M32.139 11.060c-2.812 0.99-1.462 5.243 1.427 4.371 0.303-0.093 0.59-0.264 0.74-0.396 2.065-1.769 0.127-4.784-2.172-3.975h0.004z"></path>
<path fill="#3f2e64" d="M37.723 11.060c-2.812 0.99-1.462 5.24 1.427 4.367 0.302-0.092 0.59-0.264 0.74-0.395 2.065-1.769 0.128-4.784-2.171-3.976l0.004 0.004z"></path>
<path fill="#606062" d="M80.117 28.944c-0.156 0.143-0.345 0.246-0.573 0.321s-0.463 0.11-0.712 0.11c-0.577 0-1.018-0.156-1.328-0.467s-0.467-0.751-0.467-1.321v-5.745h0.83v1.342l1.854 0.001v0.698l-1.854-0.001v3.663c0 0.363 0.089 0.64 0.266 0.833s0.441 0.285 0.779 0.285c0.374 0 0.677-0.106 0.911-0.316l0.292 0.595 0.001 0.002zM81.876 24.387c0.196-0.413 0.484-0.722 0.869-0.932s0.861-0.314 1.427-0.314v0.805l-0.199-0.011c-0.649 0-1.153 0.199-1.517 0.595s-0.547 0.954-0.547 1.665v3.125h-0.832v-6.134h0.794v1.2h0.004zM90.664 23.187v6.134h-0.794v-1.214c-0.249 0.413-0.577 0.727-0.986 0.943s-0.869 0.327-1.382 0.327c-0.577 0-1.097-0.132-1.563-0.396s-0.829-0.634-1.097-1.107c-0.264-0.474-0.398-1.014-0.398-1.62s0.132-1.146 0.398-1.62c0.264-0.474 0.629-0.839 1.097-1.101s0.99-0.392 1.563-0.392c0.498 0 0.947 0.104 1.345 0.309s0.729 0.506 0.986 0.904v-1.168l0.83 0.003v-0.004zM87.575 28.641c0.428 0 0.815-0.096 1.161-0.299s0.619-0.481 0.815-0.844c0.199-0.363 0.299-0.779 0.299-1.246s-0.096-0.882-0.299-1.246c-0.199-0.363-0.469-0.648-0.815-0.847s-0.733-0.296-1.161-0.296c-0.437 0-0.826 0.095-1.171 0.296s-0.619 0.48-0.815 0.847-0.299 0.779-0.299 1.246c0 0.467 0.1 0.882 0.299 1.246s0.469 0.649 0.815 0.844c0.346 0.199 0.737 0.299 1.171 0.299zM97.587 23.187l-2.73 6.134h-0.85l-2.716-6.134h0.861l2.297 5.221 2.32-5.221h0.818zM100.662 28.641c0.381 0 0.733-0.067 1.054-0.203s0.599-0.337 0.822-0.599l0.467 0.538c-0.271 0.327-0.608 0.577-1.014 0.748s-0.85 0.257-1.342 0.257c-0.629 0-1.189-0.132-1.676-0.402s-0.872-0.637-1.142-1.114c-0.27-0.476-0.409-1.010-0.409-1.609s0.132-1.136 0.387-1.609c0.256-0.474 0.623-0.844 1.082-1.111 0.456-0.264 0.979-0.396 1.563-0.396 0.545 0 1.036 0.126 1.473 0.374s0.79 0.594 1.051 1.036c0.261 0.441 0.398 0.947 0.413 1.512l-5.037 0.979c0.156 0.497 0.437 0.887 0.847 1.17s0.897 0.424 1.462 0.424l-0.001 0.004zM100.452 23.849c-0.428 0-0.811 0.096-1.146 0.299s-0.601 0.474-0.794 0.829c-0.193 0.352-0.285 0.759-0.285 1.217 0 0.117 0.004 0.203 0.011 0.257l4.325-0.839c-0.093-0.513-0.331-0.932-0.712-1.263s-0.848-0.495-1.399-0.495v-0.004zM106.269 29.374c-0.552 0-0.979-0.156-1.278-0.467s-0.448-0.74-0.448-1.296v-6.948h0.829v6.877c0 0.363 0.086 0.641 0.257 0.833s0.427 0.285 0.769 0.285c0.216 0 0.402-0.035 0.558-0.106l0.061 0.691c-0.242 0.086-0.487 0.125-0.748 0.125v0.007z"></path>
</svg>
