<!-- Generated by IcoMoon.io -->
<svg version="1.1" xmlns="http://www.w3.org/2000/svg" width="32" height="32" viewBox="0 0 32 32">
<title>yas-queen</title>
<path d="M18.288 26.94l0.151 0.042-0.095 0.121-0.056-0.164zM18.288 26.94l-0.151-0.042 0.095-0.122 0.056 0.164zM17.959 26.444c0.016-0.015 0.048 0.025 0.048 0.048 0 0.009 0.021 0.020 0.020 0.019-0.004-0.004-0.289 0.154-0.068-0.068zM17.794 26.115c0.016-0.015 0.048 0.025 0.048 0.048 0 0.010 0.020 0.021 0.019 0.020-0.004-0.004-0.289 0.154-0.068-0.068zM17.629 25.785c0-0.365 0.206-0.045 0.109 0-0.002 0.001-0.109 0.436-0.109 0zM12.293 20.449l-0.704 2.383c-0.643 0.25-0.744 0.14-1.388 0.144-0.724 0.004-0.816 0.153-1.475 0.174l-2.942 0.194c-0.625 0.099-0.669 0.104-1.358 0.126l-2.982 0.318c-0.742 0.145-0.613 0.029-0.986 0.664 0.921 1.081 0.395 0.663 2.651 0.506 0.362-0.025 0.783 0.034 1.147-0.007 0.468-0.054 0.383-0.141 0.995-0.16 6.685-0.212 3.482-0.913 10.549 0.021 0.636 0.084 1.502 0.049 1.859 0.479-0.529 0.304-2.871-0.111-3.655-0.168-2.875-0.208-3.389-0.421-3.458 1.115 0.983 0.939 3.492 0.75 5.108 0.865 0.572 0.041 0.616 0.166 1.311 0.174 1.78 0.019 4.893 0.825 3.155-2.438 1.637-0.179 1.835 0.055 2.788 0.125l4.624-0.005c0.566 0.041 0.624 0.162 1.313 0.174 1.242 0.023 1.587 0.125 2.15-0.996l-0.666-0.975c-0.617-0.041-1.21-0.013-1.812-0.012-0.779 0.001-0.97-0.15-1.64-0.175-1.224-0.045-2.567 0.010-3.805 0.010l-3.403-0.226c-0.525-0.123-2.493-0.712-2.849-0.889 1.829-0.2 2.567 0.233 3.078-0.766-0.549-1.141-1.080-0.661-2.434-0.759-1.337-0.097-3.225-0.556-5.168 0.106z"></path>
<path d="M9.544 19.681c-0.545 0.168-1.547 0.521-1.303 1.786 0.381 1.973 3.86 1.358 3.232-0.737-0.152-0.506-0.825-1.082-1.335-1.172-0.798-0.141-0.479 0.088-0.593 0.123z"></path>
</svg>
