<?xml version="1.0" encoding="UTF-8"?>
<!DOCTYPE svg PUBLIC "-//W3C//DTD SVG 1.1//EN" "http://www.w3.org/Graphics/SVG/1.1/DTD/svg11.dtd">
<!-- Creator: CorelDRAW 2017 -->
<svg xmlns="http://www.w3.org/2000/svg" xml:space="preserve" width="7.3658mm" height="7.3658mm" version="1.1" style="shape-rendering:geometricPrecision; text-rendering:geometricPrecision; image-rendering:optimizeQuality; fill-rule:evenodd; clip-rule:evenodd"
viewBox="0 0 736.58 736.58"
 xmlns:xlink="http://www.w3.org/1999/xlink">
 <defs>
  <style type="text/css">
   <![CDATA[
    .fil0 {fill:none}
    .fil1 {fill:black}
   ]]>
  </style>
 </defs>
 <g id="Capa_x0020_1">
  <metadata id="CorelCorpID_0Corel-Layer"/>
  <rect class="fil0" x="-0" y="-0" width="736.59" height="736.59"/>
  <path class="fil1" d="M327.46 2.52c-55.92,6.46 -97.49,21.96 -139.86,45.06 -20.22,11.03 -38.17,24.44 -53.98,36.95 -4.67,3.7 -7.72,7.08 -12.09,10.61 -42.14,34.03 -83.58,100.83 -101.23,152.5 -17.19,50.31 -24.55,105.62 -17.87,162.98 21.91,188.25 191.61,347.72 408.12,323.53 187.83,-20.99 347.66,-192.17 323.63,-407.77 -20.88,-187.33 -192.29,-348.65 -406.72,-323.86zm26.61 710.32c-13.74,-6.88 -28.7,-3.8 -61.36,-22.79 -8.76,-5.09 -17.47,-11.19 -24.66,-17.04 -38.61,-31.38 -66.54,-89.69 -60.58,-149.28 4.15,-41.54 27.21,-86.68 56.93,-109.65 49.4,-38.18 60.1,-35.73 120.57,-47.95 82.44,-16.66 157.34,-86.83 146.04,-188.93 -2.59,-23.44 -9.65,-45.47 -19.84,-63.45 -6.2,-10.93 -9.97,-15.66 -16.78,-24.82 -117.06,-157.58 -472.76,-14.83 -471.28,281.32 0.53,105.58 47.45,185.77 97.44,238.21 44.85,47.04 133.27,103.84 233.52,104.38zm3.27 -570.26c-59.89,18.1 -33.35,104.69 25.08,88.35 20.64,-5.76 38.63,-28.87 31.65,-55.96 -5.46,-21.2 -28.13,-41.04 -56.73,-32.39zm3.14 353.63c-23.23,4.02 -42.88,25.55 -37.78,53.8 10.58,58.53 99.93,43.74 90.41,-16.2 -3.6,-22.69 -26.17,-42.19 -52.63,-37.6z"/>
 </g>
</svg>
