<!-- Generated by IcoMoon.io -->
<svg version="1.1" xmlns="http://www.w3.org/2000/svg" width="32" height="32" viewBox="0 0 32 32">
<title>youtube</title>
<path fill="#f00" d="M11.131 6.916c-3.644 0.147-7.27-0.187-7.977 3.257-0.554 2.7-0.506 7.788-0.163 10.633 0.23 1.907 0.663 2.811 2.016 3.52 2.206 1.154 13.237 0.834 15.889 0.753 3.639-0.112 7.245 0.162 7.928-3.288 0.574-2.898 0.549-7.571 0.149-10.566-0.566-4.25-2.682-4.041-6.886-4.26-3.543-0.184-7.412-0.193-10.956-0.050z"></path>
<path fill="#fff" d="M13.462 20.035c0.534-0.241 1.173-0.684 1.652-0.974 0.971-0.59 4.392-2.807 4.94-2.983-0.251-0.349-4.384-2.798-4.879-3.103-0.502-0.309-1.162-0.763-1.713-1.011v8.071z"></path>
</svg>
