<?xml version="1.0" encoding="UTF-8"?>
<!DOCTYPE svg PUBLIC "-//W3C//DTD SVG 1.1//EN" "http://www.w3.org/Graphics/SVG/1.1/DTD/svg11.dtd">
<!-- Creator: CorelDRAW 2017 -->
<svg xmlns="http://www.w3.org/2000/svg" xml:space="preserve" width="215.9mm" height="279.4mm" version="1.1" style="shape-rendering:geometricPrecision; text-rendering:geometricPrecision; image-rendering:optimizeQuality; fill-rule:evenodd; clip-rule:evenodd"
viewBox="0 0 21590 27940"
 xmlns:xlink="http://www.w3.org/1999/xlink">
 <defs>
  <style type="text/css">
   <![CDATA[
    .fil0 {fill:#201E1E}
   ]]>
  </style>
 </defs>
 <g id="Capa_x0020_1">
  <metadata id="CorelCorpID_0Corel-Layer"/>
  <path class="fil0" d="M9410.62 2918.92c-5506.39,520.49 -10287.12,5691.86 -9548.87,11931.95 650.27,5496.52 5559.41,10205.91 11885.5,9507.33 5521.19,-609.72 10276.29,-5610.79 9546.79,-11916.92 -645.56,-5580.33 -5532.06,-10122.7 -11883.42,-9522.36zm-6123.02 17839.32c144.23,349.85 562.23,594.94 1003.41,960.23 994.03,823.07 2729.24,1661.46 4039.52,1906.94 -198.88,-514.01 -500.94,-613.12 -811.37,-978.1 -690.73,-812.14 -2308.22,-1865.74 -3332.72,-2402.02 -260.5,109.75 -511.11,316.1 -898.84,512.95zm-2200.54 -3323.13c536.41,1972.22 1201.7,1378.35 4031.27,3068.27 931.96,556.59 2264.77,1562.99 2949.94,2369.58 132.17,155.59 267.96,289.13 400.62,467.47 183.44,246.57 137.9,329.31 567.78,409.86 -444.87,-1418.34 -2501.07,-3401.37 -3398.74,-4248.02 -1094.04,-1031.89 -916.39,-690.54 -1662.67,-625.87 -1032.66,89.46 -870.2,-100.78 -2460.66,-922.94l291.6 -821.18 -719.14 302.83zm8026.95 5770.71c-216.15,-809.94 -1118.12,-2243.2 -1535.66,-2838.94 -320.24,-456.88 -628.31,-863.67 -946.47,-1279.65 -319.44,-417.65 -780.24,-883.66 -976.57,-1262.43 -939.14,51.26 -1028.11,347.63 -1760.43,-451.21 -733.97,-800.64 160.41,-776.54 -1351.45,-1174.62 193.5,-254.2 131.62,-108.18 441.83,-332.06 171.21,-123.56 78.9,-41.42 194.24,-159.39l-1217.12 35.69c-279.36,-284.87 -645.96,-741.56 -785.51,-1184.43l669.6 -234.51c-280.65,-100.59 -796.04,-122 -980.66,-215.27 -258.77,-130.74 -303.57,-477.17 -522.62,-725.96 -55.79,2732.81 225.8,2062.96 1610.5,3031.88l3961.17 3002.26c582.22,473.05 1737.68,1763.91 2244.46,2397.19 382.77,478.29 615.48,948.16 954.69,1391.45zm710.03 -72.05c-185.71,-2467.46 -1488.41,-5367.61 -1883.75,-7239.25 -721.55,-34.93 -686.46,11.41 -1139.85,-330.25 189.14,1481.24 -317.67,469.3 506.64,1876.65 718.31,1226.39 1264.92,2280.6 1770.69,3647.21l746.27 2045.64zm9813.52 -5180.31c-1624.73,782.22 -1285.13,1008.01 -2385.29,926.7 -746.34,-55.19 -737.62,-252.83 -1225.64,173.92 -374.53,327.51 -557.94,452.03 -909.1,833.63l-1263.81 1251.44c-531.06,542.85 -1439.64,1823.19 -1740.37,2610.45 526.16,-104.37 543.27,-451.26 915,-820.32 1044.67,-1037.22 1559.92,-1545.06 2929.35,-2387.76 775.43,-477.17 1509.94,-848.52 2349.82,-1231.7 422.31,-192.68 917.98,-273.61 1155.35,-590.95 209.97,-280.7 485.91,-894.9 583.92,-1248.99l-656.49 -347.52c11.51,436.23 186.73,432.04 247.26,831.1zm-297.6 -3695.92c250.33,229.82 320.82,231.49 641.03,294.52 -159.55,485.7 -474.48,921.96 -803.57,1181.37l-1091.69 87.45 536.05 270.92c-251.04,254.59 -602.97,250.66 -953.87,350.65 -276.21,1102.52 -946.79,1796.38 -2059.07,1352 -872.83,897.91 -3383.33,4140.65 -3732.85,5825.86 47.87,-261.02 649.48,-1145.56 826.8,-1412.89 1152.47,-1737.18 2237.82,-2439.43 3587.46,-3657.7 783.02,-706.8 1901.66,-1396.44 2794.97,-2044.82 1436.46,-1042.61 1854.91,-419.18 1726.69,-3132.97 -747.11,866.28 145.87,661.05 -1471.95,885.61zm-6522.93 9366.53c1836.1,-383.19 3879.44,-1467.28 5061.13,-2865.83 -469.21,-265.85 -443.72,-202.47 -828.49,-516.81 -931.34,290.76 -2127.92,1302.98 -2872.36,1898.83 -534.08,427.49 -1015.78,831.32 -1360.28,1483.81zm423.24 -7742.24c-648.65,2053.45 -1727.86,5045.12 -1912.84,7262.52 216.39,-293.95 527.67,-1485.7 714.73,-1976.96 443.91,-1165.96 1103.88,-2554.56 1729.21,-3594.79 961.43,-1599.29 362.4,-591.27 582.36,-1999.94 -581.93,410.06 -396.02,292.03 -1113.46,309.17zm-1358.74 -692.82c-260.72,2457.97 -961.3,5823.2 -876.97,8259.74 155.36,-1526.42 1074.99,-4843.57 1605.81,-6449.16 726.38,-2197.2 142.01,-838.62 149.36,-2237.63 -33.97,14.28 -844.64,405.86 -878.2,427.05zm-1168.78 -404.71l-15.74 8400.38c259.93,-1232.88 345.96,-3201.78 506.5,-4598.61 84.72,-736.98 181.88,-1500.48 278.79,-2218.05 190.24,-1408.45 259.3,-930.82 -235.61,-2069.28l-533.94 485.56zm-268.04 9010.51l27.99 -9032.94c-118.52,-61.05 -211.4,-115.58 -300.75,-176.47l-312.43 -221.05c-127.84,467.3 -318.1,544.94 -342.94,870.96 -16.56,217.41 123.29,926.76 160.16,1196.15 109.36,798.97 212.75,1587.41 301.82,2397.62 179.79,1635.45 378.91,3307.83 466.15,4965.73zm-300.78 -347.57c53.84,-2591.68 -615.23,-5682.43 -872.42,-8279.45 -319.45,-145.93 -621.84,-262.56 -865.34,-434.13 -38.72,527.29 -236.05,882.4 -241.78,1090.54l975.61 3167.43c377.76,1369.82 818.85,3049.02 1003.93,4455.61zm-9753.56 -10909.87c12.83,6.47 39.07,-15.7 43.05,-1.45 104.37,372.91 -98.73,-346.26 550.28,298.67 1132.51,1125.41 2144.64,2014.55 3248.36,3235.28 420.47,465.05 872.78,844.1 1285.74,1322.89 1164.28,1349.91 3392.59,3976.02 4051.66,6230.6 -68.97,-1518.25 -2195.13,-5904.03 -2965.13,-6822.4 -976.46,137.44 -1355.04,-115.77 -2194.48,-1362.11l785.76 -463.85 -1237.79 20.1c-120.87,-383.41 -314.43,-430.86 -438.21,-813.56l905.46 -585.7 -1109.07 1.48 -702.94 -1348.38 594.35 -232.68c-779.46,-198.87 -1026.5,-79.18 -975.2,-1320.01 50,-1210.75 1193.83,-393.19 1613.68,53.22 559.8,595.19 515.27,752.61 516.34,1705.3 208.91,-176.8 168.83,-231.5 391.63,-322.19 143.61,371.59 844.24,1285.79 1192.91,1548.65l-188.95 -680.01c119.42,-10.75 302.23,-12.67 418.39,-35.75l390.97 -153.69c-1489.65,-215.05 -1278.14,-113.7 -1865.6,-2668.85 281.89,-62.76 445.72,-62.48 682.07,-232.21 -357,-72 -665.32,-90.89 -907.37,-274.82 -464.28,-599.14 162.93,-2716.58 1776.36,-230.81 945.81,1457.14 328.25,958.86 471.39,2323.2l423.32 -528.14c240.68,364.55 415.35,689.01 617.59,1032.14l836.73 -194.4c-387.44,-132.09 -808.68,-5.48 -1016.96,-315.09 117.86,-363.72 349.33,-252.6 732.46,-281.36 -23.33,-24.18 -59.82,-88.77 -75.8,-66.51l-298.66 -194.08c-56.1,-24.81 -377.13,-103.79 -448.88,-122.63l-199.61 -942.13c6.19,-9.35 43.42,-42 55.46,-20.98l563.01 -195.25 -781.18 -177.08c-161.37,-775.45 -525.97,-2412.71 149.85,-2934.4 688.95,57.88 937.91,1059.53 1218.87,1721.07 344.78,811.91 721.41,1362.39 879.85,2252.19l112.46 -350.95c21.21,-106.75 29.36,-315.49 48.33,-446.65l652.24 176.83c-404.32,-825.57 -670.09,-275.8 -481.72,-1657.96l555.61 269c-323.4,-685.47 -658.91,-496.82 -401.83,-1554.54 155.25,-638.78 247.62,-1205.79 918.26,-1227.15 511.13,616.52 593.21,1991.5 689.39,2988.65l-560.82 675.66 625.52 -102.51c83.62,1547.97 169.18,1269.13 -635.25,2098.5l723.2 -145.19c125.34,-982.03 485.53,-1878.21 862,-2640.78 343.16,-695.12 631.46,-2050.14 1412.53,-2052.99 379.38,382.34 336.39,1244.15 301.3,1869.77 -57.69,1028.36 -58.01,1081.11 -974.98,1237.93 26.12,15.54 68.67,-2.88 84.9,33.2l560.16 187.03 -216.12 955.51 -603.88 194.38c-170.47,99.35 -101.44,50.47 -222.53,167.53 445.69,37.04 618.19,-109.63 735.75,304.21 -213.98,283.31 -598.29,192.81 -1016.71,275.22l819.32 246.39 641.93 -1070.17 456.83 508.56c-177.38,-1498.59 -58.26,-1871.77 1048.2,-3020.71 1326.62,-1377.49 1591.23,724.35 973.97,1055.42 -79.89,42.85 -114.43,55.27 -216.83,85.37 -130.2,38.33 -363.12,70.02 -503.19,96.75 22.35,15.36 58.18,7.27 70.82,39.92l622.91 166.82c-593.38,2693.75 -411.37,2368.13 -1877.53,2706.69 22.97,4.3 63.11,-7.4 79.42,29.96 65.91,151.04 581.54,140.62 735.7,155.18l-229.61 693.28c534.22,-394.92 845.36,-1004.81 1244.48,-1521.34l164.85 57.3c316.59,55.18 -94.69,175.24 227.77,1.48 -157.15,-1268.74 1068.03,-2361.28 1988.53,-2135.68 184.98,574.93 104.7,1073.82 -63.66,1692.01l-794.5 202.41 608.16 207.45c-101.77,280.16 -593.14,1225.92 -722.07,1381.53l-1108.08 0.38 436.51 299.13c186.61,103.52 305.46,156.03 479.03,287.07 -142.86,366.66 -298.06,456.85 -444.3,804.76l-1200.86 -64.87 778.5 485.26c-163.26,271.44 -653.73,838.61 -845.28,1030.82 -459.54,461.08 -629.87,500.61 -1414.56,336.67 -299.1,754.83 -1174.24,2011.26 -1592.54,2941.33 -410.58,912.91 -1062.91,2365.34 -1214.84,3400.22 311.74,-311.09 659.51,-1201.87 888.84,-1604.17 323.17,-566.9 611.42,-991.04 975.06,-1532.83 796.7,-1186.99 1804.63,-2284.92 2758.61,-3333.32l3139.16 -3150.08c258.34,-232.29 414.97,-359.31 639.14,-618.58 270.16,-312.43 408.52,-260.64 657.29,-436.1 -605.58,-3782.61 -2696.02,-6683.94 -6131.66,-8215.46 -4303.12,-1918.21 -9550.38,-290.16 -12140.41,3127.82 -319.09,421.1 -636.97,904.35 -941.04,1474.22 -595.54,1116.17 -963.68,2275.46 -1151.59,3710.14z"/>
 </g>
</svg>
