<?xml version="1.0" encoding="UTF-8"?>
<!DOCTYPE svg PUBLIC "-//W3C//DTD SVG 1.1//EN" "http://www.w3.org/Graphics/SVG/1.1/DTD/svg11.dtd">
<!-- Creator: CorelDRAW 2017 -->
<svg xmlns="http://www.w3.org/2000/svg" xml:space="preserve" width="215.9mm" height="279.4mm" version="1.1" style="shape-rendering:geometricPrecision; text-rendering:geometricPrecision; image-rendering:optimizeQuality; fill-rule:evenodd; clip-rule:evenodd"
viewBox="0 0 21590 27940"
 xmlns:xlink="http://www.w3.org/1999/xlink">
 <defs>
  <style type="text/css">
   <![CDATA[
    .fil0 {fill:#201E1E}
   ]]>
  </style>
 </defs>
 <g id="Capa_x0020_1">
  <metadata id="CorelCorpID_0Corel-Layer"/>
  <path class="fil0" d="M10795 3178.95c5959.73,0 10791.05,4831.32 10791.05,10791.05 0,5959.73 -4831.32,10791.05 -10791.05,10791.05 -5959.73,0 -10791.05,-4831.32 -10791.05,-10791.05 0,-5959.73 4831.32,-10791.05 10791.05,-10791.05zm-2817.85 14152.46c-1199.51,-1263.07 -1988.84,-1785.92 -3005.38,-4010.95 -2419.81,-5296.92 -223.91,-8675.56 3176.94,-3103.96 1222.61,2002.72 1350.4,3127.34 1770.3,5516.93l826.81 -196.63c-127.63,-1941.77 248.47,-4283.97 1004.59,-5483.66 621.97,-986.57 3257.16,-2928.64 5196.74,-2351.43 1232.9,367.15 1030.73,1428.98 207.59,2124.95 -2092.75,1769.03 -1759.43,1938.68 -2756.29,4180.66 -435.54,979.56 -867.63,1294.84 -1357.41,2148.58 441.99,613.55 1669.44,1353.54 1457.21,3249.9 -1860.63,-341.56 -3356.31,-549.25 -5329.12,567.83 -327.11,185.48 -464.2,323.53 -730.18,483.63 -1422.27,857.33 -878.45,-2461.18 -461.8,-3125.85zm2811.91 3870.98c-1533.73,1035.93 -53.53,3377.32 1545,2398.5 166.34,-101.86 313.37,-251.99 383.54,-353.3 960.31,-1386.76 -676.13,-2891.11 -1928.54,-2045.2zm-2636.16 -14598.72l-360.53 -504.13 -372.75 504.13 -519.41 0 632.46 -828 -611.07 -815.78 534.69 0 348.3 479.69 357.48 -479.69 507.19 0 -611.07 803.56 635.51 840.22 -540.8 0zm620.72 -1643.78l476.63 0 0 1643.78 -476.63 0 0 -1643.78zm767.37 0l476.63 0 0 1643.78 -476.63 0 0 -1643.78zm1738.97 -24.44c152.76,0 291.78,35.14 417.05,105.41 125.27,70.27 223.55,169.06 294.84,296.37 71.29,127.3 106.94,275.49 106.94,444.55 0,169.06 -35.65,317.25 -106.94,444.55 -71.29,127.31 -169.57,226.1 -294.84,296.37 -125.27,70.28 -264.29,105.41 -417.05,105.41 -226.1,0 -398.22,-71.29 -516.36,-213.87l0 189.43 -455.24 0 0 -2267.07 476.63 0 0 797.45c120.18,-132.4 285.17,-198.6 494.97,-198.6zm-82.5 1301.58c122.22,0 222.53,-41.25 300.95,-123.74 78.42,-82.5 117.63,-193 117.63,-331.51 0,-138.51 -39.21,-249.01 -117.63,-331.5 -78.42,-82.5 -178.73,-123.75 -300.95,-123.75 -122.21,0 -222.53,41.25 -300.95,123.75 -78.42,82.49 -117.63,192.99 -117.63,331.5 0,138.51 39.21,249.01 117.63,331.51 78.42,82.49 178.74,123.74 300.95,123.74zm1894.8 9.16c85.54,0 161.42,-12.73 227.62,-38.19 66.2,-25.46 127.81,-65.69 184.85,-120.68l253.59 274.98c-154.8,177.21 -380.9,265.81 -678.29,265.81 -185.35,0 -349.32,-36.15 -491.91,-108.46 -142.58,-72.31 -252.57,-172.63 -329.98,-300.95 -77.4,-128.33 -116.1,-273.97 -116.1,-436.92 0,-160.91 38.19,-306.04 114.58,-435.39 76.38,-129.34 181.28,-230.17 314.7,-302.48 133.41,-72.31 283.64,-108.46 450.66,-108.46 156.84,0 299.43,33.1 427.75,99.3 128.33,66.2 230.68,161.93 307.06,287.2 76.39,125.27 114.58,273.45 114.58,444.55l-1216.03 235.27c34.63,81.47 89.11,142.58 163.46,183.32 74.35,40.74 165.5,61.1 273.46,61.1zm-70.28 -950.21c-120.18,0 -217.95,38.7 -293.31,116.1 -75.37,77.41 -115.09,184.34 -119.16,320.82l800.5 -155.83c-22.4,-85.55 -68.23,-153.78 -137.49,-204.71 -69.25,-50.92 -152.77,-76.38 -250.54,-76.38zm1473.16 -119.16c57.04,-79.44 133.93,-139.53 230.68,-180.26 96.75,-40.74 208.27,-61.11 334.56,-61.11l0 439.97c-52.96,-4.07 -88.6,-6.11 -106.94,-6.11 -136.47,0 -243.4,38.19 -320.81,114.57 -77.4,76.39 -116.1,190.96 -116.1,343.73l0 776.06 -476.63 0 0 -1643.78 455.24 0 0 216.93zm-5580.82 -1016.2c-380.18,133.65 -197.5,708.45 193.19,590.43 40.66,-12.28 79.91,-35.8 100.26,-53.27 278.75,-239.16 17.01,-646.27 -293.45,-537.16zm754.63 0.16c-380.2,133.63 -197.51,708.43 193.19,590.41 40.64,-12.28 79.89,-35.8 100.27,-53.27 278.74,-239.17 16.98,-646.27 -293.46,-537.14z"/>
 </g>
</svg>
