<?xml version="1.0" encoding="UTF-8"?>
<!DOCTYPE svg PUBLIC "-//W3C//DTD SVG 1.1//EN" "http://www.w3.org/Graphics/SVG/1.1/DTD/svg11.dtd">
<!-- Creator: CorelDRAW 2017 -->
<svg xmlns="http://www.w3.org/2000/svg" xml:space="preserve" width="100mm" height="100mm" version="1.1" style="shape-rendering:geometricPrecision; text-rendering:geometricPrecision; image-rendering:optimizeQuality; fill-rule:evenodd; clip-rule:evenodd"
viewBox="0 0 10000 10000"
 xmlns:xlink="http://www.w3.org/1999/xlink">
 <defs>
  <style type="text/css">
   <![CDATA[
    .str0 {stroke:#0096DB;stroke-width:150;stroke-miterlimit:22.9256}
    .fil0 {fill:none}
    .fil1 {fill:#0096DB}
   ]]>
  </style>
 </defs>
 <g id="Capa_x0020_1">
  <metadata id="CorelCorpID_0Corel-Layer"/>
  <rect class="fil0" width="10000" height="10000"/>
  <path class="fil1" d="M5173.08 5623.68l100.82 107.91c532.07,-258.08 677.67,-1147.86 43.36,-1286.95 258.25,136.74 343.01,199.15 252.76,612.69 -77.8,356.5 -217.6,311.35 -396.94,566.35zm-1642.79 -2752.49l-12.96 23.26 410.38 -151.44c-150.64,-91.95 98.3,-167.4 -206.56,-85.37 -273.99,73.74 -158.73,155.72 -190.86,213.55zm-850.58 2767.83c-4.62,-433.85 -24.15,-162.04 86.62,-270 -31.05,-493.58 -118.58,-1002.29 43.77,-1463.13 182.83,-518.89 484.87,-715.71 707.23,-1011.44l12.96 -23.26c-434.16,131.69 -714.3,496.63 -921.29,1030.14 -151.87,391.44 -215.63,1212.37 -70.25,1537.48 132.86,297.06 40.76,80.13 140.96,200.21zm1162.93 -410.7c113.03,303.38 -76.05,41.45 199.31,326.74 134.5,139.34 166.78,171.61 339.82,230.92 344.53,118.15 595.76,49.6 892.13,-54.39l-100.82 -107.91c-766.81,103.51 -785.76,-182.08 -1248.77,-469.05l-81.67 73.69zm0 0l81.67 -73.69c-117.11,-1028.43 50.75,-1861.89 1260.06,-1813.49 1042.65,41.72 1443.55,956.71 1333.47,2010.9 -201.85,1933.44 -3475.57,1833.61 -3751.51,16.98 -110.77,107.96 -91.24,-163.85 -86.62,270 270.26,1840.74 4190.04,1984.45 4197.7,-478.93 9.75,-3143.43 -4077.51,-2427.67 -3034.77,68.23z"/>
  <path class="fil1" d="M4485.31 7689.77c0,-117.56 -21.78,-66.99 136.04,-84.29 -249.02,-126.87 -100.73,-88.05 -307.42,-52.26l171.38 136.55zm136.04 -84.29c-157.82,17.3 -136.04,-33.27 -136.04,84.29l260.7 27.04c945.94,85.2 1086.93,-91.45 1709.15,-446.47 146.76,-151.44 156.42,-72.16 236.4,-275.94l-65.2 -87.03c-695.23,511.09 -1016.38,562.71 -2005.01,698.11z"/>
  <path class="fil1 str0" d="M2625.88 634.88c20.78,-15.52 11.91,-17.01 56.11,-37.56 77.42,-35.98 -5,-1.67 78.15,-20.08 794.8,-144.77 994.37,339.4 1127.45,428.48 148.18,-136.08 289.75,-256.96 544.49,-288.49 266.63,-32.99 495.02,53.06 658.95,179.36 579.64,446.58 207.56,1092.48 180.18,1202.09 1625.02,132.09 2807.03,1213.69 3198.06,2598.77 222.67,788.71 100.49,1066.16 57.99,1722.31 -77.59,285.48 -183.09,639.5 -326.4,891.25 -108.59,190.77 -74.57,100.4 -50.28,311.31 45.96,398.96 -448.59,1045.78 -750.49,755.45 -88.39,18.29 -471.58,349.54 -866.24,527.06 -340.31,153.08 -703.42,269.4 -1119.23,306.53 -134.76,159.28 -166.3,303.48 -515.99,248.76 -242.52,-37.95 -393.27,-160.52 -494.48,-282.41 -537.21,-82.86 -1267.98,-407.32 -1659.95,-769.51 -64.39,-59.51 -36.59,-21.46 -81.39,-93.52 -200.58,-72.98 -581.02,-609.46 -735.87,-883.25 -580.02,-1025.59 -625.31,-2262.91 -113.7,-3327.16 89.36,-185.9 245.32,-383.26 308.1,-535.38 -829.61,-179.7 -811.17,-1084.68 -591.97,-1284.49 38.62,-183.81 334.72,-379.8 569.52,-426.2 -32.44,-301.01 -100.43,-456.99 63.44,-778.86 2.8,-5.51 6.45,-12.52 9.29,-17.95 96.5,-184.1 252.11,-347.69 454.26,-426.51zm3617.28 8507.18l139.12 -69.96c187.04,-35.04 592.91,-275.81 762.73,-398.7 101.48,-73.44 136.47,-138.23 273.66,-141.43 345.11,-8.04 377.16,2.12 570.21,-210.33 380.24,-418.44 213.42,-678.25 273.85,-888.56 29.52,-102.71 205.15,-347.1 333.69,-867.01 527.14,-2132.09 -871.54,-4178.65 -2930.2,-4533.46 -393.94,-67.9 -9.25,-371.01 -223.82,-861.6 -68.64,-156.97 -307.27,-439.58 -464.26,-465.93l-144.85 -77.46 -453.33 -29.39c-49.55,34.08 -20.94,23.42 -102.46,46.36 -22.76,6.4 -73.69,15.17 -96.64,20.53 -123.53,37.01 -222.14,150.89 -332.32,115.7 -53.45,-17.07 -462.86,-517.83 -1151.15,-308.08 -274,83.49 -462.86,265.18 -577.17,430.88 -244.08,353.81 -111.82,464.85 -186.14,843.24 -52.57,86.32 -615.79,241.81 -640.9,896.17 -22.83,594.47 262.95,740.81 573.45,986.2 18.04,301.41 -636.89,882.31 -499.7,2410.21 80.95,901.55 466.11,1559.47 902.63,2054.52 943.21,1069.68 1938.54,1109.44 2086.7,1200.38 65.8,40.39 347.44,377.61 823.75,259.03 274.74,-68.39 146.79,-220.88 459.72,-268.73 229.88,-35.14 405.54,-101.55 603.43,-142.58z"/>
 </g>
</svg>
