<?xml version="1.0" encoding="UTF-8"?>
<!DOCTYPE svg PUBLIC "-//W3C//DTD SVG 1.0//EN" "http://www.w3.org/TR/2001/REC-SVG-20010904/DTD/svg10.dtd">
<!-- Creator: CorelDRAW 2017 -->
<svg xmlns="http://www.w3.org/2000/svg" xml:space="preserve" width="4.2332mm" height="4.2332mm" version="1.0" style="shape-rendering:geometricPrecision; text-rendering:geometricPrecision; image-rendering:optimizeQuality; fill-rule:evenodd; clip-rule:evenodd"
viewBox="0 0 423.32 423.32"
 xmlns:xlink="http://www.w3.org/1999/xlink">
 <defs>
  <style type="text/css">
   <![CDATA[
    .fil0 {fill:#B3B3B3}
    .fil1 {fill:#B3B3B3}
    .fil2 {fill:#FDFDFD}
   ]]>
  </style>
 </defs>
 <g id="Capa_x0020_1">
  <metadata id="CorelCorpID_0Corel-Layer"/>
  <path class="fil0" d="M382.59 68.4l-2.17 258.3c-25.95,-27.24 -32.95,-61.12 -70.87,-85.2 -30.02,18.84 -50.7,51.3 -75.36,72.78 -18.08,-14.33 -43.36,-56.6 -55.84,-76.89 -16.14,-26.26 -27.04,-52.43 -55.18,-73.52 -29.71,33.59 -59.13,108.87 -75.13,161.93 -8.75,-25.27 -11.72,-218.47 -5.64,-253.04l340.19 -4.36zm-365.89 -21.81c-6.34,36.03 -3.48,305.21 4.53,333.42 36.66,6.54 354.62,3.9 383.11,-4.4 6.76,-30.22 7.8,-296.35 1.78,-329.61 -41.81,-14.77 -323.58,0.85 -389.42,0.59z"/>
  <path class="fil1" d="M236.4 138.96c-14.67,59.21 6.49,71.47 55.68,65.29 20.81,-37.17 22.03,-29.7 6.03,-72.97 -28,-7.54 -43.25,-7.1 -61.71,7.68z"/>
  <path class="fil2" d="M236.4 138.96c18.46,-14.78 33.71,-15.22 61.71,-7.68 16,43.27 14.78,35.8 -6.03,72.97 -49.19,6.18 -70.35,-6.08 -55.68,-65.29zm-194 -66.2c-6.08,34.57 -3.11,227.77 5.64,253.04 16,-53.06 45.42,-128.34 75.13,-161.93 28.14,21.09 39.04,47.26 55.18,73.52 12.48,20.29 37.76,62.56 55.84,76.89 24.66,-21.48 45.34,-53.94 75.36,-72.78 37.92,24.08 44.92,57.96 70.87,85.2l2.17 -258.3 -340.19 4.36z"/>
 </g>
</svg>
