<!-- Generated by IcoMoon.io -->
<svg version="1.1" xmlns="http://www.w3.org/2000/svg" width="32" height="32" viewBox="0 0 32 32">
<title>secarse-las-manos</title>
<path d="M20.867 6.48l-0.093-0.093c-0.76-0.827-1.093-1.88-0.893-2.933l0.12-0.787h-2.52l-0.080 0.573c-0.267 1.813 0.36 3.613 1.733 4.96l0.093 0.080c0.76 0.827 1.093 1.88 0.893 2.933l-0.147 0.787h2.547l0.080-0.573c0.28-1.813-0.36-3.613-1.733-4.947zM26.2 6.48l-0.093-0.093c-0.76-0.827-1.093-1.88-0.893-2.933l0.12-0.787h-2.52l-0.080 0.573c-0.267 1.813 0.36 3.613 1.733 4.96l0.093 0.080c0.76 0.827 1.093 1.88 0.893 2.933l-0.147 0.787h2.547l0.080-0.573c0.28-1.813-0.36-3.613-1.733-4.947zM12.16 6.667l-9.573 9.053c-0.8 0.747-1.253 1.8-1.253 2.907v8.040c0 2.213 1.787 4 4 4h18.333c0.92 0 1.667-0.747 1.667-1.667s-0.747-1.667-1.667-1.667h-7.667v-1.333h10.333c0.92 0 1.667-0.747 1.667-1.667s-0.747-1.667-1.667-1.667h-10.333v-1.333h11.667c0.92 0 1.667-0.747 1.667-1.667s-0.747-1.667-1.667-1.667h-11.667v-1.333h9c0.92 0 1.667-0.747 1.667-1.667s-0.747-1.667-1.667-1.667h-13.187c0.853-1.48 1.973-3.44 1.987-3.48 0.12-0.213 0.187-0.44 0.187-0.707 0-0.347-0.12-0.667-0.347-0.933-0.013-0.053-1.48-1.547-1.48-1.547v0z"></path>
</svg>
