<!-- Generated by IcoMoon.io -->
<svg version="1.1" xmlns="http://www.w3.org/2000/svg" width="32" height="32" viewBox="0 0 32 32">
<title>sigue-la-flecha</title>
<path d="M12.688 7.312q1.063 0 1.844-0.781t0.781-1.844q0-1.125-0.781-1.907t-1.844-0.781q-1.125 0-1.907 0.781t-0.781 1.907q0 1.063 0.781 1.844t1.907 0.781zM7.688 11.875l-3.688 18.812h2.812l2.312-10.688 2.875 2.688v8h2.688v-10.063l-2.751-2.751 0.812-4q1.312 1.563 3.188 2.5t4.063 0.937v-2.625q-1.875 0-3.375-0.907t-2.437-2.407l-1.251-2.125q-0.375-0.563-0.969-0.907t-1.281-0.344q-0.5 0-1 0.188l-7 2.875v6.251h2.625v-4.437zM17.312 2.688v9.312h5v18.688h2v-18.688h5v-9.312h-12zM24 10.688v-2.375h-4.688v-2h4.688v-2.312l3.312 3.312z"></path>
</svg>
