<!-- Generated by IcoMoon.io -->
<svg version="1.1" xmlns="http://www.w3.org/2000/svg" width="32" height="32" viewBox="0 0 32 32">
<title>timbre-postal-viajemos-todex-por-mexico-gay-travel-xiiber</title>
<path fill="#d2d3d5" d="M3.3 7.090l26.938 2.769-1.539 15.049-26.938-2.767 1.539-15.052zM20.548 8.472c-0.121-0.131-0.077-0.184-0.147-0.318l-0.9-0.090c-0.103 0.153-0.041 0.173-0.225 0.286-0.113 0.069-0.235 0.114-0.418 0.092-0.448-0.053-0.452-0.34-0.53-0.501l-0.898-0.090c-0.123 0.182-0.209 0.431-0.643 0.377-0.444-0.054-0.446-0.32-0.529-0.501l-0.9-0.089c-0.111 0.132-0.168 0.432-0.645 0.377-0.415-0.048-0.455-0.303-0.529-0.502l-0.897-0.089c-0.114 0.133-0.167 0.432-0.644 0.379-0.355-0.041-0.456-0.248-0.531-0.502l-0.896-0.090c-0.1 0.112-0.064 0.192-0.222 0.292-0.35 0.22-0.841 0.074-0.955-0.414l-0.913-0.096c-0.187 0.582-1.035 0.506-1.159-0.119l-0.907-0.090c-0.113 0.247-0.277 0.417-0.631 0.38-0.351-0.037-0.482-0.241-0.535-0.502l-0.908-0.091c-0.106 0.245-0.281 0.417-0.629 0.38-0.349-0.037-0.482-0.245-0.535-0.502l-0.686-0.066c-0.039 0.19-0.072 0.265-0.216 0.359-0.194 0.126-0.24 0.058-0.425 0.116l-0.049 0.502c0.164 0.117 0.513 0.16 0.475 0.533-0.014 0.143-0.109 0.251-0.197 0.31-0.151 0.102-0.201 0.060-0.379 0.115l-0.075 0.73c0.288 0.077 0.515 0.254 0.476 0.532-0.038 0.275-0.285 0.38-0.573 0.401l-0.072 0.732c0.148 0.068 0.243 0.080 0.345 0.187 0.195 0.206 0.159 0.49-0.074 0.648-0.151 0.102-0.221 0.061-0.374 0.12l-0.072 0.707c0.118 0.087 0.229 0.084 0.34 0.195 0.081 0.081 0.151 0.19 0.137 0.338-0.035 0.369-0.388 0.373-0.576 0.424l-0.074 0.731c0.164 0.054 0.262 0.082 0.352 0.184 0.302 0.341 0.040 0.717-0.45 0.751l-0.073 0.727c0.175 0.104 0.514 0.176 0.478 0.533-0.037 0.356-0.366 0.351-0.577 0.424l-0.073 0.728c0.682 0.19 0.617 0.886-0.099 0.932l-0.070 0.734c0.179 0.089 0.214 0.057 0.345 0.188 0.331 0.332 0.032 0.714-0.446 0.752l-0.072 0.724c0.205 0.143 0.509 0.175 0.475 0.533-0.035 0.367-0.372 0.364-0.576 0.424l-0.058 0.549c0.4 0.084 0.565 0.224 0.574 0.563l0.651 0.062c0.243-0.601 1.1-0.45 1.154 0.123l0.923 0.095c0.072-0.246 0.308-0.423 0.646-0.38 0.431 0.056 0.42 0.317 0.527 0.501l0.9 0.091c0.172-0.507 0.949-0.506 1.121-0.033 0.084 0.231-0.048 0.145 0.952 0.247 0.078-0.246 0.302-0.424 0.643-0.379 0.436 0.057 0.421 0.312 0.527 0.501l0.9 0.085c0.097-0.148 0.065-0.196 0.223-0.29 0.097-0.057 0.244-0.105 0.421-0.083 0.364 0.046 0.435 0.251 0.523 0.5l0.907 0.093c0.082-0.242 0.292-0.423 0.641-0.38 0.442 0.055 0.439 0.33 0.526 0.501l0.9 0.086c0.1-0.138 0.070-0.195 0.226-0.289 0.097-0.059 0.241-0.106 0.419-0.085 0.346 0.041 0.471 0.246 0.522 0.5l0.911 0.093c0.115-0.236 0.258-0.424 0.639-0.38 0.409 0.048 0.44 0.273 0.527 0.501l0.9 0.086c0.107-0.126 0.054-0.178 0.229-0.286 0.394-0.246 0.887 0.006 0.939 0.412l0.903 0.091c0.102-0.12 0.182-0.432 0.645-0.379 0.344 0.040 0.48 0.249 0.527 0.501l0.899 0.090c0.099-0.104 0.072-0.188 0.229-0.289 0.384-0.247 0.894-0.002 0.941 0.412 1.108 0.115 0.84 0.163 0.992-0.064 0.277-0.415 1.022-0.239 1.081 0.277l0.899 0.090c0.102-0.102 0.061-0.174 0.234-0.286 0.386-0.251 0.885-0.001 0.94 0.409l0.695 0.064c0.051-0.324 0.257-0.459 0.638-0.458l0.048-0.523c-0.155-0.088-0.213-0.054-0.344-0.188-0.187-0.191-0.143-0.505 0.073-0.651 0.142-0.096 0.24-0.061 0.376-0.118l0.070-0.707c-0.143-0.104-0.511-0.165-0.475-0.533 0.035-0.362 0.345-0.363 0.576-0.425l0.066-0.73c-0.182-0.084-0.208-0.053-0.342-0.187-0.268-0.267-0.163-0.677 0.448-0.748l0.071-0.728c-0.167-0.102-0.534-0.172-0.471-0.555 0.025-0.148 0.112-0.234 0.211-0.294 0.463-0.277 0.325 0.267 0.434-0.836-0.287-0.072-0.513-0.262-0.475-0.534 0.040-0.29 0.294-0.368 0.572-0.4l0.078-0.735c-0.732-0.242-0.604-0.885 0.095-0.936l0.073-0.726c-0.129-0.088-0.215-0.067-0.341-0.192-0.2-0.199-0.167-0.492 0.062-0.651 0.114-0.079 0.216-0.081 0.38-0.108l0.076-0.736c-0.688-0.181-0.639-0.881 0.096-0.932l0.071-0.731c-0.186-0.108-0.509-0.158-0.473-0.533 0.035-0.369 0.396-0.348 0.575-0.424l0.057-0.546c-0.379-0.066-0.566-0.226-0.57-0.557l-0.653-0.069c-0.241 0.576-1.047 0.505-1.162-0.119l-0.911-0.093c-0.113 0.241-0.273 0.417-0.624 0.382s-0.491-0.234-0.538-0.502l-0.909-0.093c-0.116 0.242-0.291 0.428-0.649 0.38-0.446-0.060-0.427-0.322-0.529-0.503l-0.893-0.090c-0.096 0.152-0.064 0.183-0.23 0.29-0.399 0.254-0.873 0.003-0.933-0.41l-0.91-0.093c-0.086 0.153-0.084 0.199-0.226 0.291-0.227 0.147-0.625 0.1-0.803-0.095z"></path>
<path fill="#fefefe" d="M30.233 9.988l-26.947-2.772 0.026-0.251 26.947 2.772 0.113 0.139-0.139 0.112zM30.26 9.737c0.069 0.007 0.12 0.070 0.113 0.139s-0.070 0.119-0.139 0.112l0.026-0.251zM28.573 24.896l1.548-15.046 0.252 0.026-1.548 15.046-0.139 0.112-0.113-0.139zM28.825 24.922c-0.007 0.069-0.070 0.119-0.139 0.112s-0.12-0.070-0.113-0.139l0.252 0.026zM1.765 22.011l26.947 2.772-0.026 0.251-26.947-2.772-0.113-0.139 0.139-0.112zM1.739 22.262c-0.069-0.007-0.12-0.070-0.113-0.139s0.070-0.119 0.139-0.112l-0.026 0.251zM3.426 7.103l-1.548 15.046-0.252-0.026 1.548-15.046 0.139-0.112 0.113 0.139zM3.174 7.077c0.007-0.069 0.070-0.119 0.139-0.112s0.12 0.070 0.113 0.139l-0.252-0.026z"></path>
<path fill="#fefefe" d="M3.3 7.090l26.947 2.772-1.548 15.046-26.947-2.772z"></path>
<path fill="#ee2843" d="M3.158 18.461l25.247 2.597-0.277 2.696-25.247-2.597 0.277-2.696z"></path>
<path fill="#fc8a1c" d="M10.493 11.44c-0.003-0.006-0.009-0.022-0.012-0.018l-0.073-0.086 0.169 0.034 0.050-0.158c0.023 0.036 0.010 0.006 0.026 0.065 0.003 0.014 0.010 0.069 0.015 0.093 0.103 0.027 0.088 0.011 0.171 0.009-0.042 0.069-0.034 0.008-0.105 0.084 0.104 0.041 0.057 0.015 0.075 0.049l-0.076 0.994c-0.021 0.138-0.021 0.048-0.117 0.088l-0.032 0.018c-0.004 0.002-0.011 0.008-0.017 0.010 0.005-0.16 0.005-0.105-0.023-0.139-0.19 0.144 0.006 0.176 0.015 0.182l0.076 0.089c-0.114-0.063 0.009 0.015-0.081-0.004-0.020-0.005-0.006 0.032-0.058-0.046l-0.018-0.037c-0.047 0.055-0.026 0.085 0.040 0.102-0.131 0.054-0.098-0.001-0.098 0.104 0.132-0.034 0.182-0.103 0.36-0.12l0.009 0.135c0.074 0.065 0.111 0.212 0.282 0.195 0.072-0.007 0.239-0.153 0.296-0.198 0.184-0.143 0.363-0.293 0.549-0.437 0.598-0.464 0.4-0.413 0.093-0.813-0.086-0.113-0.136-0.2-0.245-0.265-0.033 0.164 0.009-0.008-0.034 0.058-0.002 0.002-0.007 0.007-0.008 0.010l-0.012 0.022c-0.001 0.003-0.002 0.010-0.003 0.013-0.017 0.048 0.008 0.058-0.087 0.098 0.098 0.121 0.107-0.060 0.089 0.175-0.071-0.044-0.094-0.039-0.078-0.135l-0.128-0.026c-0.158-0.076 0.079 0.074-0.048-0.046-0.001-0.001-0.016-0.076-0.077 0l-0.092 0.030c0.070 0.165 0.283 0.304 0.34 0.454-0.081 0.092-0.104 0.093-0.199 0.168l-0.647 0.527 0.127-1.325 0.103 0.015c0.009 0 0.022-0.004 0.025 0.001s0.018 0 0.023-0.005c0.046-0.040 0.010 0.016 0.055-0.075-0.164-0.082-0.179 0.013-0.234-0.007-0.117-0.042-0.026-0.009-0.066-0.071 0.070 0.028 0.033 0.036 0.092 0.019 0.034-0.010 0.045-0.046 0.046-0.076-0.106-0.048-0.084-0.021-0.138 0.057l-0.039-0.040c-0.090-0.081 0.061-0.084-0.119-0.066-0.058 0.005-0.045-0.027-0.105 0.127-0.174-0.018-0.223-0.134-0.293 0.159l0.236 0.007z"></path>
<path fill="#fc8a1c" d="M10.407 14.024c0.086 0.026 0.118 0.095 0.212 0.116 0.067-0.287 0.066-1.042 0.148-1.239-0.124 0.014-0.312 0.284-0.372 0.434-0.091 0.23-0.041 0.501 0.012 0.689z"></path>
<path fill="#018e40" d="M17.665 17.228l0.712 0.073 0.363-3.547c-0.32-0.099-0.55 0.191-0.676 0.377-0.166 0.245-0.153 0.614-0.188 0.957-0.072 0.712-0.135 1.427-0.211 2.139z"></path>
<path fill="#018e40" d="M16.74 17.133l0.711 0.073 0.286-2.677c0.026-0.238 0.024-0.263-0.052-0.451-0.072-0.179-0.298-0.506-0.574-0.508l-0.371 3.563z"></path>
<path fill="#018e40" d="M18.409 12.64c-0.581-0.060-0.191-0.037-0.393-0.104l-0.137-0.034c-0.25-0.096-0.271-0.017-0.422-0.101-0.006-0.003-0.011-0.006-0.017-0.010s-0.011-0.007-0.016-0.011c-0.052-0.041-0.027-0.014-0.048-0.057-0.040-0.086 0.010-0.104-0.019-0.182-0.002-0.004-0.008-0.015-0.010-0.019-0.045-0.086 0.111 0.033-0.021-0.033l-0.111 1.081c0.026 0.031 0.099 0.118 0.129 0.132 0.053-0.070 0.050-0.040 0.143-0.009l0.058 0.124-0.080 0.087 0.964 0.099c0.006-0.018 0.010-0.087 0.008-0.095-0.002-0.006-0.004-0.013-0.006-0.019l-0.027-0.103c0.038 0.006 0.108 0.014 0.13 0.017 0.009 0.001 0.015 0.002 0.023 0.003l-0.037-0.044c0.078-0.162 0.042-0.311 0.070-0.367 0.045-0.091-0.090 0.082 0.033-0.037 0.003-0.003 0.013-0.003 0.016-0.011 0.003-0.009 0.012-0.007 0.017-0.011 0.003-0.005 0.044-0.242 0.017-0.313l-0.053-0.095c0.137-0.081 0.169 0.063 0.144-0.101l-0.029 0.019c-0.102 0.046-0.099 0.019-0.139-0.002-0.012 0.081-0.009 0.069-0.037 0.124-0.075-0.017-0.071-0.016-0.12-0.035l-0.030 0.103z"></path>
<path fill="#018e40" d="M18.772 10.908l0.089-0.142c0.064-0.399-0.071-0.656-0.375-0.781-0.719-0.296-1.207 0.76-0.541 1.128 0.328 0.181 0.703 0.043 0.827-0.205z"></path>
<path fill="#3e4095" d="M22.413 10.421l0.395 0.192c0.022-0.007 0.129-0.006 0.026-0.139-0.147-0.191-0.422-0.316-0.646-0.379-0.013 0.128 0.034 0.118 0.034 0.242 0.084 0.013 0.14 0.038 0.191 0.084z"></path>
<path fill="#055596" d="M20.709 11.858c-0.012 0.098-0.049 0.135-0.067 0.262l-0.23 2.302c0.021 0.165 0.269 0.221 0.419 0.123 0.192-0.126 0.133-1.676 0.282-1.873l0.070 0.005c0.055 0.113-0.017 0.35-0.021 0.492 0.131 0.031 0.212 0.021 0.326 0.020l0.255 0.019c0.065 0.031 0.027-0.019 0.048 0.053-0.064 0.111-0.274-0.019-0.388 0.065l0.349 0.050c0.002 0.058 0.003 0.044 0.022 0.065 0.067 0.076-0.005 0.031 0.092 0.050 0.038-0.029 0.037-0.030 0.145-0.015l-0.099 0.818 0.163 0.088c0.112-0.004 0.509-0.102 0.624-0.155l0.077-0.758-0.568-0.117c-0.062-0.030-0.027 0.015-0.058-0.054 0.046-0.071-0.026-0.072 0.3-0.013 0.112 0.021 0.224 0.035 0.338 0.046l0.049-0.475 0.121 0.004c-0.007 0.448-0.103 1.023-0.148 1.479-0.025 0.256-0.089 0.469 0.216 0.499 0.29 0.028 0.261-0.238 0.287-0.494 0.050-0.494 0.101-0.987 0.152-1.48 0.050-0.49 0.156-1.033-0.491-0.986-0.184 0.159-0.318 0.421-0.447 0.625-0.156 0.245-0.139 0.329-0.31 0.545-0.076 0.096-0.018 0.108-0.096 0.121-0.199 0.033 0.029-0.175 0.168-0.464 0.065-0.136 0.489-0.738 0.51-0.861-0.265-0.038-1.144-0.152-1.365-0.129l0.372 1.039c0.048 0.139 0.115 0.233 0.147 0.365l-0.104 0.036-0.145-0.361c-0.037-0.154-0.051-0.212-0.113-0.382-0.104-0.282-0.18-0.476-0.306-0.718-0.105-0.023-0.242-0.032-0.342-0.002-0.155 0.046-0.135 0.104-0.233 0.168z"></path>
<path fill="#055596" d="M21.605 10.804l0.010 0.017c-0.082 0.446 0.129 0.818 0.601 0.828 0.205 0.004 0.381-0.106 0.475-0.217 0.194-0.227 0.105-0.325 0.156-0.547-0.102-0.015-0.011-0.017-0.12 0.008-0.029 0.007-0.077 0.023-0.105 0.031-0.066 0.018-0.132 0.031-0.218 0.036-0.155 0.017-0.473-0.007-0.584-0.091-0.12-0.049-0.068-0.050-0.154-0.117-0.038 0.053-0.048 0.040-0.061 0.052z"></path>
<path fill="#3e4095" d="M21.919 10.379l-0.065 0.008c-0.149 0.144-0.156 0.025-0.144 0.139l0.054 0.003c0.062-0.006-0.013 0.001 0.053-0.011 0.052-0.009 0.090-0.013 0.14-0.011 0.336 0.011 0.589 0.142 0.872 0.209l-0.021-0.102-0.395-0.192c-0.23-0.039-0.254-0.056-0.494-0.042z"></path>
<path fill="#fef013" d="M12.459 11.683c-0.041 0.415-0.085 0.83-0.128 1.245-0.021 0.2-0.050 0.413-0.064 0.612-0.017 0.242 0.146 0.258 0.365 0.247l0.068-0.022c0.148-0.266 0.162-1.411 0.232-1.798 0.001-0.007-0.008-0.133 0.096-0.089 0.064 0.027 0.030 0.096 0.011 0.267l-0.097 0.932 1.634 0.163c0.021-0.201 0.041-0.4 0.062-0.598 0.010-0.101 0.029-0.51 0.082-0.588l0.070 0.005c0.019 0.036 0.011 0.004 0.018 0.058 0.004 0.029 0.003 0.037 0.002 0.066-0.002 0.046-0.014 0.117-0.019 0.166-0.025 0.232-0.174 1.465-0.14 1.551 0.056 0.147 0.333 0.182 0.431 0.085 0.107-0.107 0.286-2.209 0.288-2.503-0.074-0.345-0.183-0.392-0.595-0.432-0.345-0.035-0.69-0.071-1.034-0.107-0.948-0.098-1.184-0.291-1.281 0.738z"></path>
<path fill="#fef013" d="M13.491 16.799l0.713 0.074 0.334-3.324-0.757 0.336z"></path>
<path fill="#fef013" d="M12.565 16.704l0.711 0.073 0.311-2.918-0.68-0.452z"></path>
<path fill="#7a2774" d="M24.881 13.915c-0.105-0.074-0.447-0.535-0.487-0.601 0.061-0.099 0.223-0.198 0.33-0.284 0.141-0.113 0.172-0.209 0.439-0.168-0.141 0.466-0.165 0.058-0.282 1.053zM26.896 13.051c0.256 0.001 0.282 0.122 0.387 0.24 0.065 0.073 0.241 0.259 0.282 0.35-0.045 0.057-0.498 0.466-0.585 0.483 0.026-0.358 0.022-0.782-0.083-1.073zM26.332 12.79c0.002 0.001 0.010 0.001 0.011 0.013l0.060 0.195c-0.001 0.004-0.003 0.013-0.007 0.018-0.205 0.033 0.065-0.040-0.138-0.021-0.031 0.003-0.040 0.009-0.060 0.023-0.051 0.036 0.011-0.011-0.026 0.024l-0.029 0.030c-0.004 0.004-0.010 0.011-0.015 0.017-0.072-0.13 0.055-0.021-0.124-0.155l-0.131 0.097-0.153-0.079c0.064-0.027 0.089 0.018 0.138-0.072l-0.129 0.002c0.022-0.056 0.064-0.169 0.109-0.187 0.144-0.059-0.070 0.069 0.055-0.007 0.007-0.004 0.027-0.054 0.090-0.074 0.037 0.069 0.109 0.043 0.014 0.225 0.007-0.005 0.018-0.020 0.021-0.014l0.057-0.038c0.124-0.074 0.003 0.031 0.168-0.113 0.045 0.049 0.084 0.098 0.149 0.073l-0.059 0.044zM24.926 12.181c-0.057 0.11-1.167 0.875-1.209 0.968-0.119 0.265 0.594 0.793 0.632 0.986 0.152 0.101 0.376 0.673 0.714 0.108l1.661 0.165c0.038 0.164 0.183 0.415 0.402 0.28 0.058-0.036 0.16-0.127 0.21-0.167 0.073-0.058 0.135-0.104 0.211-0.164 0.153-0.121 0.277-0.215 0.42-0.329 0.16-0.128 0.369-0.242 0.254-0.487-0.078-0.032-0.426-0.477-0.511-0.578-0.058-0.069-0.498-0.53-0.504-0.61-0.192-0.102-1.409-0.209-1.786-0.247-0.506-0.052-0.286 0.022-0.495 0.076z"></path>
<path fill="#7a2774" d="M25.618 18.047l0.739 0.076 0.301-3.122c-0.075-0.004-0.253 0.073-0.342 0.090-0.135 0.027-0.261 0.038-0.409 0.033l-0.289 2.923z"></path>
<path fill="#7a2774" d="M24.652 17.947l0.75 0.077 0.286-2.924c-0.112-0.053-0.261-0.068-0.383-0.119-0.182-0.075-0.181-0.137-0.306-0.165l-0.348 3.13z"></path>
<path fill="#7a2774" d="M26.181 11.643c-0.132 0.039-0.239 0.121-0.325-0.053l0.154-0.074c0.132-0.048 0.092 0.018 0.179 0.023 0.194 0.013 0.012-0.065 0.249 0.068 0.075 0.042 0.018-0.011 0.072 0.026-0.065 0.174-0.241 0.077-0.329 0.010zM25.82 10.874c-0.025 0.054-0.026 0.038-0.081 0.096-0.196 0.21-0.214 0.547-0.042 0.79 0.080 0.113 0.147 0.121 0.215 0.193 0.278 0.089 0.436 0.093 0.652-0.048 0.363-0.237 0.379-0.842-0.070-1.074-0.317-0.163-0.463-0.014-0.673 0.042z"></path>
<path fill="#fe8918" d="M8.749 16.311l0.714 0.074 0.32-2.957 0.187 0.021-0.294 2.958 0.714 0.073 0.208-2.133c-0.134-0.003-0.311-0.147-0.386-0.236-0.234-0.277-0.231-0.589-0.058-0.915 0.103-0.194 0.233-0.252 0.266-0.323 0-0.105-0.032-0.050 0.098-0.104-0.066-0.017-0.087-0.048-0.040-0.102l0.018 0.037c0.052 0.078 0.038 0.042 0.058 0.046 0.090 0.019-0.033-0.059 0.081 0.004l-0.076-0.089c-0.009-0.006-0.205-0.038-0.015-0.182 0.029 0.034 0.029-0.021 0.023 0.139 0.006-0.002 0.013-0.008 0.017-0.010l0.032-0.018c0.097-0.041 0.096 0.050 0.117-0.088l0.076-0.994c-0.018-0.034 0.029-0.009-0.075-0.049l-0.034 0.014c0.003 0.104 0.027 0.097 0.037 0.159-0.056-0.017-0.033-0.038-0.12-0.105-0.155 0.030-0.057 0.062-0.165 0.078 0.029-0.084-0.007 0.015 0.040-0.064 0.027-0.046 0.021-0.035 0.040-0.092l-0.038-0.015-0.236-0.007c0.070-0.293 0.119-0.177 0.293-0.159 0.061-0.153 0.047-0.121 0.105-0.127 0.179-0.018 0.029-0.015 0.119 0.066l0.039 0.040c0.054-0.078 0.032-0.105 0.138-0.057-0.001 0.029-0.012 0.066-0.046 0.076-0.058 0.017-0.022 0.009-0.092-0.019 0.041 0.062-0.050 0.029 0.066 0.071 0.054 0.020 0.069-0.074 0.234 0.007-0.045 0.091-0.009 0.035-0.055 0.075-0.005 0.005-0.019 0.010-0.023 0.005s-0.017-0.001-0.025-0.001c0.248 0.040 0.139 0.081 0.275 0.161l0.092-0.030c0.061-0.076 0.077-0.001 0.077 0 0.127 0.12-0.11-0.029 0.048 0.046l0.128 0.026c-0.016 0.096 0.007 0.092 0.078 0.135 0.018-0.235 0.009-0.054-0.089-0.175 0.095-0.041 0.070-0.051 0.087-0.098 0.001-0.003 0.002-0.010 0.003-0.013l0.012-0.022c0.001-0.002 0.006-0.007 0.008-0.010 0.043-0.066 0.001 0.107 0.034-0.058-0.017-0.061-0.076-0.111-0.126-0.166-0.052-0.057-0.073-0.086-0.126-0.155-0.358-0.462-0.383-0.406-0.751-0.444-1.79-0.182-1.999-0.46-2.109 0.613l-0.179 1.739c-0.023 0.205-0.052 0.351 0.155 0.396 0.22 0.048 0.314-0.048 0.334-0.249 0.029-0.29 0.126-1.579 0.193-1.665l0.070 0.009c0.051 0.091-0.428 4.392-0.476 4.862z"></path>
<path fill="#fe8918" d="M10.642 10.231c0.143-0.026 0.279-0.365 0.246-0.528l-0.129-0.024c-0.045-0.005-0.074-0.005-0.118-0.007-0.165-0.007-0.588-0.037-0.703-0.087-0.006 0.005-0.010 0.015-0.014 0.020l-0.123 0.089c-0.061 0.064-0.020 0.090 0.066 0.156l-0.056 0.111c0.003 0.006 0.010 0.012 0.013 0.016s0.010 0.011 0.013 0.015l0.035 0.044c0.001 0.001 0.037 0.050 0.038 0.052 0.009 0.013 0.013 0.019 0.029 0.039 0.128 0.148 0.26 0.003 0.369 0.004-0.010 0.21 0.010 0.003 0.080 0.151 0.196-0.013 0.121-0.097 0.253-0.052z"></path>
<path fill="#ea2c11" d="M6.191 11.524c-0.068-0.048-0.103-0.139-0.107-0.215l0.14-0.822c0.123 0.020 0.086-0.025 0.103 0.089l-0.013 0.43c-0.007 0.352 0.006 0.247-0.123 0.518zM4.769 14.714l0.16-1.609-0.316-0.027-0.152 1.593 0.308 0.044zM6.28 8.771c-0.153 0.072-0.329 0.082-0.457 0.369-0.049 0.111-0.070 0.236-0.049 0.353 0.026 0.139 0.098 0.214 0.116 0.305 0.101 0.055 0.135 0.127 0.269 0.179 0.608 0.236 1.135-0.48 0.716-0.991-0.144-0.176-0.315-0.216-0.595-0.216zM6.244 10.419c-0.083-0.089-0.057-0.105-0.014-0.197l0.154 0.026c0.029 0.127 0.006 0.194-0.14 0.171zM4.889 15.914l0.709 0.073 0.313-2.947 0.192 0.013-0.29 2.956 0.712 0.073c0.163-1.553 0.34-3.123 0.478-4.677 0.006-0.074 0.001-0.226 0.097-0.187 0.070 0.029 0.036 0.141 0.026 0.224l-0.122 1.175c-0.017 0.167-0.088 0.429 0.029 0.525 0.136 0.111 0.352 0.093 0.412-0.044 0.034-0.079 0.173-1.566 0.189-1.722 0.037-0.355 0.147-0.798-0.068-1.015-0.179-0.18-0.778-0.167-1.082-0.2-1.33-0.147-1.588-0.337-1.682 0.567l-0.181 1.762c-0.021 0.2-0.079 0.395 0.108 0.458 0.191 0.064 0.346-0.025 0.367-0.193 0.039-0.318 0.121-1.617 0.205-1.714l0.070 0.012c0.052 0.119-0.428 4.336-0.482 4.86z"></path>
<path fill="#058d41" d="M18.764 13.529l0.132-1.309c0.314 0.027 0.285 0.090 0.428 0.266 0.058 0.072 0.274 0.3 0.289 0.36-0.086 0.092-0.801 0.662-0.85 0.683zM18.409 12.64l0.030-0.103c0.049 0.019 0.045 0.018 0.12 0.035 0.027-0.056 0.025-0.043 0.037-0.124 0.040 0.021 0.037 0.048 0.139 0.002l0.029-0.019c0.026 0.164-0.006 0.019-0.144 0.101l0.053 0.095c0.027 0.071-0.014 0.308-0.017 0.313-0.005 0.005-0.014 0.002-0.017 0.011-0.003 0.008-0.013 0.008-0.016 0.011-0.123 0.119 0.012-0.054-0.033 0.037-0.028 0.056 0.008 0.205-0.070 0.367l0.037 0.044c-0.008-0.002-0.014-0.002-0.023-0.003-0.022-0.003-0.092-0.011-0.13-0.017l0.027 0.103c0.002 0.006 0.004 0.013 0.006 0.019 0.002 0.007-0.002 0.077-0.008 0.095l-0.964-0.099 0.080-0.087-0.058-0.124c-0.093-0.031-0.090-0.061-0.143 0.009-0.030-0.014-0.102-0.101-0.129-0.132l0.111-1.081c0.132 0.066-0.024-0.054 0.021 0.033 0.002 0.003 0.008 0.015 0.010 0.019 0.029 0.078-0.021 0.096 0.019 0.182 0.020 0.044-0.005 0.016 0.048 0.057 0.005 0.005 0.011 0.008 0.016 0.011s0.011 0.006 0.017 0.010c0.151 0.084 0.172 0.005 0.422 0.101l0.137 0.034c0.202 0.066-0.188 0.044 0.393 0.104zM19.662 11.938c-0.206-0.059-0.163-0.066-0.268-0.196-0.051-0.064-0.118-0.144-0.194-0.208-0.143-0.121-1.293-0.195-1.555-0.227-0.396-0.046-0.362-0.046-0.63 0.124-0.131-0.060-0.13-0.178-0.385-0.176-0.283 0.001-0.196 0.145-0.379 0.098 0.074-0.956 0.306-1.251-0.3-1.224-0.115 0.083-0.115 0.056-0.135 0.286-0.025 0.271-0.129 1.11-0.108 1.27 0.030 0.231 0.27 0.191 0.687 0.23 0.273 0.025 0.607 0.041 0.871 0.089l-0.149 1.506c0.097 0.035 0.668 0.086 0.813 0.102 0.208 0.025 0.709 0.112 0.855 0.062 0.022 0.105 0.145 0.275 0.312 0.223l0.913-0.707c0.405-0.309 0.312-0.372 0.087-0.621-0.206-0.229-0.073-0.097-0.166-0.36-0.042-0.119-0.139-0.232-0.269-0.272z"></path>
<path fill="#015699" d="M20.707 17.542l0.71 0.073c0.032-0.303 0.342-2.843 0.291-3.018-0.048-0.168-0.114-0.171-0.282-0.245-0.125-0.056-0.257-0.145-0.383-0.165l-0.336 3.355z"></path>
<path fill="#015696" d="M21.633 17.637l0.711 0.073 0.341-3.34c-0.028-0.005-0.597 0.102-0.652 0.145-0.030 0.023-0.040 0.044-0.061 0.082-0.092 0.162-0.11 0.76-0.133 0.995-0.066 0.682-0.135 1.364-0.206 2.044z"></path>
<path fill="#f58a19" d="M10.58 8.621c0.089 0.074 0.151 0.075 0.111 0.153-0.037 0.034-0.125-0.002-0.166-0.022-0.057-0.029-0.079-0.052-0.133-0.090l0.024-0.198c0.058 0.045 0.096 0.101 0.164 0.157zM9.975 8.701c-0.019-0.087 0.063-0.082 0.158-0.136 0.081-0.046 0.102-0.085 0.183-0.116l-0.030 0.2c-0.178 0.1-0.253 0.090-0.31 0.052zM9.659 9.567c-0.139 0.859 0.788 0.944 0.983 0.664-0.132-0.046-0.056 0.038-0.253 0.052-0.069-0.147-0.089 0.059-0.080-0.151-0.109-0.001-0.241 0.144-0.369-0.004-0.017-0.019-0.020-0.026-0.029-0.039-0.002-0.002-0.038-0.052-0.038-0.052l-0.035-0.044c-0.003-0.005-0.010-0.012-0.013-0.015s-0.010-0.010-0.013-0.016l0.056-0.111c-0.086-0.066-0.127-0.093-0.066-0.156l0.123-0.089c0.004-0.005 0.007-0.015 0.014-0.020 0.115 0.050 0.538 0.080 0.703 0.087 0.044 0.002 0.073 0.002 0.118 0.007l0.129 0.024c-0.003-0.119-0.002-0.048 0.019-0.073 0.148 0.014 0.532 0.043 0.641-0.001 0.119-0.145 0.006-0.29-0.070-0.392-0.226-0.249-0.415-0.062-0.625-0.036-0.008-0.089-0.026-0.187-0.040-0.277-0.037-0.24-0.060-0.204-0.239-0.429-0.143-0.179-0.12-0.302-0.386-0.074-0.317 0.27-0.179-0.092-0.408 0.478-0.010 0.023-0.018 0.047-0.030 0.068l-0.029 0.044c-0.002 0.003-0.006 0.009-0.010 0.013-0.449-0.195-0.798-0.015-0.7 0.358 0.121 0.050 0.514 0.107 0.673 0.122l-0.025 0.062z"></path>
<path fill="#055599" d="M21.076 14.083c0.122 0.045 0.228 0.113 0.348 0.165 0.227 0.098 0.167 0.065 0.385 0.042 0.001-0.174 0.1-0.725 0.057-0.8-0.097-0.019-0.025 0.026-0.092-0.050-0.019-0.022-0.020-0.007-0.022-0.065l-0.349-0.050-0.25-0.035c-0.039 0.178-0.084 0.657-0.078 0.792z"></path>
<path fill="#055596" d="M22.807 10.613l0.021 0.102c-0.282-0.067-0.536-0.198-0.872-0.209-0.050-0.002-0.088 0.002-0.14 0.011-0.066 0.012 0.010 0.005-0.053 0.011l-0.054-0.003c-0.011-0.115-0.005 0.005 0.144-0.139l-0.167 0.014c0.029-0.216 0.271-0.29 0.454-0.295 0.028 0.127 0.074 0.108 0.043 0.227l-0.182 0.002c-0.104 0.033-0.043 0.016-0.083 0.044 0.24-0.013 0.265 0.003 0.494 0.042-0.051-0.046-0.107-0.072-0.191-0.084-0.001-0.124-0.047-0.114-0.034-0.242 0.224 0.063 0.499 0.188 0.646 0.379 0.102 0.133-0.005 0.132-0.026 0.139zM21.652 10.613l-0.047 0.19c0.014-0.011 0.023 0.002 0.061-0.052 0.086 0.066 0.034 0.068 0.154 0.117-0.003-0.006-0.005-0.024-0.007-0.020l-0.029-0.074c-0.057-0.11-0.047 0.009-0.038-0.102 0.132-0.040 0.38-0.037 0.524-0.010 0.103 0.019 0.143 0.044 0.232 0.072 0.050 0.015 0.070 0.016 0.115 0.041 0.025 0.014 0.027 0.019 0.042 0.030 0.005 0.005 0.021 0.021 0.025 0.025l0.026 0.027c-0.251 0.022-0.388 0.056-0.672 0.013 0.049 0.015 0.123 0.023 0.183 0.029 0.202 0.021 0.153 0.015 0.183 0.061 0.086-0.004 0.152-0.017 0.218-0.036 0.028-0.008 0.076-0.025 0.105-0.031 0.109-0.025 0.018-0.023 0.12-0.008l0.062-0.358c-0.175-0.21-0.593-0.549-0.971-0.41l-0.139 0.060c-0.059 0.038-0.005 0.003-0.039 0.029-0.239 0.184 0.001 0.259-0.108 0.407z"></path>
<path fill="#3e4095" d="M21.821 10.869c0.111 0.084 0.428 0.108 0.584 0.091-0.030-0.046 0.018-0.040-0.183-0.061-0.060-0.006-0.134-0.014-0.183-0.029 0.285 0.044 0.422 0.010 0.672-0.013l-0.026-0.027c-0.005-0.005-0.020-0.021-0.025-0.025-0.014-0.011-0.017-0.017-0.042-0.030-0.044-0.025-0.065-0.025-0.115-0.041-0.089-0.027-0.129-0.052-0.232-0.072-0.144-0.026-0.392-0.029-0.524 0.010-0.009 0.111-0.019-0.008 0.038 0.102l0.029 0.074c0.002-0.004 0.004 0.014 0.007 0.020z"></path>
<path fill="#63285b" d="M26.391 12.746c-0.066 0.026-0.104-0.023-0.149-0.073-0.164 0.144-0.044 0.038-0.168 0.113l-0.057 0.038c-0.003-0.006-0.013 0.010-0.021 0.014 0.096-0.182 0.023-0.156-0.014-0.225-0.063 0.019-0.083 0.070-0.090 0.074-0.125 0.076 0.089-0.052-0.055 0.007-0.046 0.018-0.088 0.131-0.109 0.187l0.129-0.002c-0.049 0.090-0.074 0.045-0.138 0.072l0.153 0.079 0.131-0.097c0.179 0.134 0.053 0.025 0.124 0.155 0.005-0.006 0.011-0.013 0.015-0.017l0.029-0.030c0.037-0.035-0.025 0.011 0.026-0.024 0.021-0.014 0.029-0.020 0.060-0.023 0.203-0.019-0.067 0.053 0.138 0.021 0.004-0.005 0.006-0.014 0.007-0.018l-0.060-0.195c-0.002-0.012-0.010-0.013-0.011-0.013l0.059-0.044z"></path>
<path fill="#3e4095" d="M21.853 10.387l0.065-0.008c0.040-0.027-0.021-0.011 0.083-0.044l0.182-0.002c0.032-0.119-0.015-0.101-0.043-0.227-0.183 0.005-0.424 0.078-0.454 0.295l0.167-0.014z"></path>
<path fill="#ea8c30" d="M10.297 13.843c0.002-0.242-0.047-0.32 0.069-0.572 0.062-0.136 0.21-0.318 0.291-0.39-0.16 0.082-0.28 0.148-0.367 0.374-0.112 0.294-0.063 0.358 0.007 0.588z"></path>
<path fill="#d88638" d="M10.599 14.249l0.028-0.046c-0.038-0.021-0.088-0.038-0.131-0.067-0.013-0.009-0.041-0.032-0.053-0.044l-0.044-0.059c-0.083-0.044-0.097-0.067-0.137-0.137-0.028-0.048-0.068-0.128-0.074-0.183-0.005 0.137 0.123 0.38 0.22 0.452 0.066 0.050 0.111 0.056 0.191 0.084z"></path>
<path fill="#fef013" d="M13.932 9.572c-0.152 0.071-0.329 0.082-0.457 0.369-0.049 0.111-0.070 0.237-0.049 0.354 0.026 0.138 0.098 0.214 0.116 0.305 0.1 0.054 0.135 0.127 0.268 0.179 0.608 0.236 1.135-0.48 0.716-0.991-0.144-0.176-0.314-0.216-0.595-0.216z"></path>
<path fill="#000" d="M3.249 6.838l26.938 2.769-1.539 15.049-26.938-2.767 1.539-15.052zM20.497 8.219c-0.121-0.131-0.077-0.184-0.147-0.318l-0.9-0.090c-0.103 0.153-0.041 0.173-0.225 0.286-0.113 0.069-0.235 0.114-0.418 0.092-0.448-0.053-0.452-0.34-0.53-0.501l-0.898-0.090c-0.123 0.182-0.209 0.431-0.643 0.377-0.444-0.054-0.446-0.32-0.529-0.501l-0.9-0.089c-0.111 0.132-0.168 0.432-0.645 0.377-0.415-0.048-0.455-0.303-0.529-0.502l-0.897-0.089c-0.114 0.133-0.167 0.432-0.644 0.379-0.355-0.041-0.456-0.248-0.531-0.502l-0.896-0.090c-0.1 0.112-0.064 0.192-0.222 0.292-0.35 0.22-0.841 0.074-0.955-0.414l-0.913-0.096c-0.187 0.582-1.035 0.506-1.159-0.119l-0.907-0.090c-0.113 0.247-0.277 0.417-0.631 0.38-0.351-0.037-0.482-0.241-0.535-0.502l-0.908-0.091c-0.106 0.245-0.281 0.417-0.629 0.38-0.349-0.037-0.482-0.245-0.535-0.502l-0.686-0.066c-0.039 0.19-0.072 0.265-0.216 0.359-0.194 0.126-0.24 0.058-0.425 0.116l-0.049 0.502c0.164 0.117 0.513 0.16 0.475 0.533-0.014 0.143-0.109 0.251-0.197 0.31-0.151 0.102-0.201 0.060-0.379 0.115l-0.075 0.73c0.288 0.077 0.515 0.254 0.476 0.532-0.038 0.275-0.285 0.38-0.573 0.401l-0.072 0.732c0.148 0.068 0.243 0.080 0.345 0.187 0.195 0.206 0.159 0.49-0.074 0.648-0.151 0.102-0.221 0.061-0.374 0.12l-0.072 0.707c0.118 0.087 0.229 0.084 0.34 0.195 0.081 0.081 0.151 0.19 0.137 0.338-0.035 0.369-0.388 0.373-0.576 0.424l-0.074 0.731c0.164 0.054 0.262 0.082 0.352 0.184 0.302 0.341 0.040 0.717-0.45 0.751l-0.073 0.727c0.175 0.104 0.514 0.176 0.478 0.533-0.037 0.356-0.366 0.351-0.577 0.424l-0.073 0.728c0.682 0.19 0.617 0.886-0.099 0.932l-0.070 0.734c0.179 0.089 0.214 0.057 0.345 0.188 0.331 0.332 0.032 0.714-0.446 0.752l-0.072 0.724c0.205 0.143 0.509 0.175 0.475 0.533-0.035 0.367-0.372 0.364-0.576 0.424l-0.058 0.549c0.4 0.084 0.565 0.224 0.574 0.563l0.651 0.062c0.243-0.601 1.1-0.45 1.154 0.123l0.923 0.095c0.072-0.246 0.308-0.423 0.646-0.38 0.431 0.056 0.42 0.317 0.527 0.501l0.9 0.091c0.172-0.507 0.949-0.506 1.121-0.033 0.084 0.231-0.048 0.145 0.952 0.247 0.078-0.246 0.302-0.424 0.643-0.379 0.436 0.057 0.421 0.312 0.527 0.501l0.9 0.085c0.097-0.148 0.065-0.196 0.223-0.29 0.097-0.057 0.244-0.105 0.421-0.083 0.364 0.046 0.435 0.251 0.523 0.5l0.907 0.093c0.082-0.242 0.292-0.423 0.641-0.38 0.442 0.055 0.439 0.33 0.526 0.501l0.9 0.086c0.1-0.138 0.070-0.195 0.226-0.289 0.097-0.059 0.241-0.106 0.419-0.085 0.346 0.041 0.471 0.246 0.522 0.5l0.911 0.093c0.115-0.236 0.258-0.424 0.639-0.38 0.409 0.048 0.44 0.273 0.527 0.501l0.9 0.086c0.107-0.126 0.054-0.178 0.229-0.286 0.394-0.246 0.887 0.006 0.939 0.412l0.903 0.091c0.102-0.12 0.182-0.432 0.645-0.379 0.344 0.040 0.48 0.249 0.527 0.501l0.899 0.090c0.099-0.104 0.072-0.188 0.229-0.289 0.384-0.247 0.894-0.002 0.941 0.412 1.108 0.115 0.84 0.163 0.992-0.064 0.277-0.415 1.022-0.239 1.081 0.277l0.899 0.090c0.102-0.102 0.061-0.174 0.234-0.286 0.386-0.251 0.885-0.001 0.94 0.409l0.695 0.064c0.051-0.324 0.257-0.459 0.638-0.458l0.048-0.523c-0.155-0.088-0.213-0.054-0.344-0.188-0.187-0.191-0.143-0.505 0.073-0.651 0.142-0.096 0.24-0.061 0.376-0.118l0.070-0.707c-0.143-0.104-0.511-0.165-0.475-0.533 0.035-0.362 0.345-0.363 0.576-0.425l0.066-0.73c-0.182-0.084-0.208-0.053-0.342-0.187-0.268-0.267-0.163-0.677 0.448-0.748l0.071-0.728c-0.167-0.102-0.534-0.172-0.471-0.555 0.025-0.148 0.112-0.234 0.211-0.294 0.463-0.277 0.325 0.267 0.434-0.836-0.287-0.072-0.513-0.262-0.475-0.534 0.040-0.29 0.294-0.368 0.572-0.4l0.078-0.735c-0.732-0.242-0.604-0.885 0.095-0.936l0.073-0.726c-0.129-0.088-0.215-0.067-0.341-0.192-0.2-0.199-0.167-0.492 0.062-0.651 0.114-0.079 0.216-0.081 0.38-0.108l0.076-0.736c-0.688-0.181-0.639-0.881 0.096-0.932l0.071-0.731c-0.186-0.108-0.509-0.158-0.473-0.533 0.035-0.369 0.396-0.348 0.575-0.424l0.057-0.546c-0.379-0.066-0.566-0.226-0.57-0.557l-0.653-0.069c-0.241 0.576-1.047 0.505-1.162-0.119l-0.911-0.093c-0.113 0.241-0.273 0.417-0.624 0.382s-0.491-0.234-0.538-0.502l-0.909-0.093c-0.116 0.242-0.291 0.428-0.649 0.38-0.446-0.060-0.427-0.322-0.529-0.503l-0.893-0.090c-0.096 0.152-0.064 0.183-0.23 0.29-0.399 0.254-0.873 0.003-0.933-0.41l-0.91-0.093c-0.086 0.153-0.084 0.199-0.226 0.291-0.227 0.147-0.625 0.1-0.803-0.095z"></path>
</svg>
