<!-- Generated by IcoMoon.io -->
<svg version="1.1" xmlns="http://www.w3.org/2000/svg" width="32" height="32" viewBox="0 0 32 32">
<title>todo-incluido</title>
<path d="M24.8 8.827c-1.92 0-3.733 0.747-5.027 2.040l-3.773 3.347-2.027 1.787h0.013l-3.587 3.187c-0.853 0.853-1.987 1.32-3.2 1.32-2.493 0-4.52-2.013-4.52-4.507s2.027-4.507 4.52-4.507c1.213 0 2.347 0.467 3.253 1.373l1.507 1.333 2.013-1.787-1.68-1.48c-1.36-1.36-3.173-2.107-5.093-2.107-3.973 0-7.2 3.227-7.2 7.173s3.227 7.173 7.2 7.173c1.92 0 3.733-0.747 5.027-2.040l3.773-3.333 0.013 0.013 2.013-1.813h-0.013l3.587-3.187c0.853-0.853 1.987-1.32 3.2-1.32 2.493 0 4.52 2.013 4.52 4.507s-2.027 4.507-4.52 4.507c-1.2 0-2.347-0.467-3.253-1.373l-1.52-1.347-2.013 1.787 1.693 1.493c1.36 1.347 3.16 2.093 5.093 2.093 3.973 0 7.2-3.213 7.2-7.173s-3.227-7.16-7.2-7.16z"></path>
</svg>
