<!-- Generated by IcoMoon.io -->
<svg version="1.1" xmlns="http://www.w3.org/2000/svg" width="32" height="32" viewBox="0 0 32 32">
<title>touch_app</title>
<path d="M25.125 21.188q1.188 0.563 1.188 1.812v0.251l-1 7.063q-0.063 0.751-0.625 1.219t-1.312 0.469h-9.063q-0.812 0-1.375-0.563l-6.625-6.625 1.063-1.063q0.437-0.437 1.063-0.437 0.063 0 0.156 0.031t0.156 0.031l4.563 0.937v-14.312q0-0.875 0.593-1.437t1.407-0.563 1.407 0.563 0.593 1.437v8h1.063q0.188 0 0.688 0.125zM12 15q-2.688-1.751-2.688-5 0-2.5 1.751-4.251t4.251-1.751 4.251 1.751 1.751 4.251q0 3.312-2.625 5v-5q0-1.375-1-2.344t-2.375-0.969-2.344 0.969-0.969 2.344v5z"></path>
</svg>
