<!-- Generated by IcoMoon.io -->
<svg version="1.1" xmlns="http://www.w3.org/2000/svg" width="32" height="32" viewBox="0 0 32 32">
<title>viajes</title>
<path d="M22.667 8h-2.667v-4c0-0.733-0.6-1.333-1.333-1.333h-5.333c-0.733 0-1.333 0.6-1.333 1.333v4h-2.667c-1.467 0-2.667 1.2-2.667 2.667v14.667c0 1.467 1.2 2.667 2.667 2.667 0 0.733 0.6 1.333 1.333 1.333s1.333-0.6 1.333-1.333h8c0 0.733 0.6 1.333 1.333 1.333s1.333-0.6 1.333-1.333c1.467 0 2.667-1.2 2.667-2.667v-14.667c0-1.467-1.2-2.667-2.667-2.667zM12.667 24h-2v-12h2v12zM17 24h-2v-12h2v12zM18 8h-4v-3.333h4v3.333zM21.333 24h-2v-12h2v12z"></path>
</svg>
