<!-- Generated by IcoMoon.io -->
<svg version="1.1" xmlns="http://www.w3.org/2000/svg" width="32" height="32" viewBox="0 0 32 32">
<title>xiiber-recomienda-negro-curvas</title>
<path d="M29.919 21.416c3.177-7.239-0.48-15.533-8.168-18.524s-16.495 0.452-19.671 7.692c-3.176 7.239 0.48 15.532 8.169 18.523 7.687 2.992 16.494-0.452 19.671-7.692zM13.989 5.154l-0.539 0.175-0.691-0.459-0.156 0.051 0.201 0.619-0.44 0.143-0.548-1.684 0.707-0.231c0.097-0.031 0.184-0.054 0.261-0.066s0.151-0.010 0.225 0.007c0.075 0.018 0.141 0.051 0.198 0.098s0.1 0.116 0.129 0.207c0.041 0.129 0.045 0.243 0.011 0.343s-0.095 0.19-0.182 0.27l0.825 0.525zM12.897 4.215c-0.014-0.042-0.033-0.076-0.060-0.101s-0.062-0.040-0.107-0.044c-0.031-0.002-0.064 0.001-0.098 0.009s-0.077 0.021-0.127 0.036l-0.148 0.048 0.148 0.454 0.126-0.041c0.061-0.020 0.112-0.041 0.152-0.062s0.072-0.048 0.094-0.081c0.022-0.030 0.034-0.062 0.038-0.096 0.004-0.033-0.002-0.074-0.018-0.122zM13.982 5.24l-0.299-1.746 1.234-0.21 0.057 0.334-0.777 0.133 0.052 0.304 0.718-0.123 0.057 0.334-0.716 0.123 0.075 0.439 0.777-0.133 0.057 0.334-1.232 0.211zM16.132 5.033c-0.276 0.004-0.497-0.073-0.663-0.231-0.165-0.157-0.25-0.383-0.254-0.674-0.005-0.282 0.074-0.506 0.234-0.676 0.162-0.17 0.38-0.257 0.656-0.261 0.073-0.001 0.14 0.002 0.199 0.009s0.115 0.017 0.169 0.030c0.042 0.012 0.089 0.027 0.139 0.047s0.090 0.037 0.121 0.052l0.007 0.423-0.048 0.001c-0.022-0.018-0.051-0.041-0.085-0.066s-0.073-0.051-0.116-0.076c-0.044-0.025-0.092-0.046-0.144-0.062-0.052-0.017-0.106-0.025-0.162-0.025-0.067 0.001-0.128 0.011-0.183 0.033s-0.109 0.057-0.158 0.108c-0.046 0.046-0.083 0.108-0.111 0.185s-0.041 0.168-0.040 0.273c0.002 0.109 0.018 0.202 0.050 0.275 0.032 0.075 0.073 0.135 0.124 0.18 0.048 0.043 0.102 0.075 0.162 0.093 0.058 0.019 0.119 0.028 0.177 0.027 0.062-0.001 0.119-0.012 0.175-0.032s0.101-0.043 0.139-0.066c0.041-0.025 0.077-0.050 0.108-0.076s0.058-0.048 0.081-0.069l0.042-0.001 0.006 0.416c-0.034 0.015-0.073 0.034-0.117 0.053s-0.089 0.037-0.136 0.051c-0.058 0.018-0.112 0.032-0.162 0.041-0.051 0.009-0.12 0.015-0.209 0.016zM18.634 4.263c-0.033 0.284-0.137 0.499-0.314 0.644s-0.404 0.201-0.68 0.17c-0.277-0.032-0.485-0.139-0.624-0.322s-0.192-0.414-0.16-0.695c0.032-0.282 0.136-0.497 0.313-0.643s0.404-0.204 0.68-0.172c0.275 0.031 0.483 0.139 0.624 0.32s0.194 0.414 0.161 0.698zM18.16 4.207c0.011-0.105 0.010-0.195-0.004-0.271s-0.037-0.141-0.069-0.192c-0.034-0.053-0.075-0.093-0.123-0.119s-0.098-0.043-0.151-0.049c-0.057-0.006-0.11-0.002-0.158 0.012-0.048 0.013-0.096 0.043-0.145 0.087-0.044 0.042-0.081 0.1-0.112 0.172-0.033 0.073-0.054 0.162-0.066 0.266-0.012 0.108-0.011 0.199 0.003 0.273 0.014 0.073 0.037 0.137 0.070 0.189 0.034 0.054 0.076 0.094 0.123 0.12 0.048 0.027 0.099 0.044 0.152 0.050s0.109 0.001 0.162-0.016c0.053-0.017 0.101-0.046 0.144-0.089 0.046-0.047 0.082-0.103 0.112-0.169 0.029-0.066 0.050-0.153 0.062-0.265zM20.471 5.622l-0.448-0.116 0.294-1.137-0.515 0.65-0.306-0.080-0.136-0.818-0.294 1.137-0.424-0.109 0.443-1.715 0.518 0.133 0.179 0.949 0.613-0.744 0.519 0.135-0.442 1.715zM20.649 5.722l0.667-1.64 1.159 0.471-0.127 0.314-0.73-0.297-0.117 0.286 0.674 0.274-0.128 0.313-0.674-0.274-0.168 0.413 0.73 0.297-0.128 0.313-1.159-0.471zM23.279 7.090l-0.383-0.23 0.022-1.427-0.635 1.059-0.364-0.218 0.911-1.519 0.49 0.294-0.016 1.174 0.523-0.87 0.364 0.218-0.912 1.519zM25.278 7.574c-0.104 0.129-0.226 0.22-0.365 0.275s-0.277 0.073-0.41 0.056c-0.112-0.013-0.218-0.049-0.317-0.106s-0.198-0.126-0.297-0.206l-0.452-0.361 1.108-1.381 0.448 0.359c0.101 0.081 0.191 0.163 0.269 0.246 0.078 0.084 0.137 0.18 0.176 0.29 0.049 0.134 0.060 0.272 0.037 0.415-0.025 0.142-0.090 0.281-0.198 0.415zM24.907 7.272c0.073-0.090 0.119-0.181 0.139-0.272s0.009-0.182-0.029-0.272c-0.027-0.065-0.068-0.12-0.12-0.165-0.051-0.045-0.115-0.098-0.189-0.157l-0.006-0.006-0.693 0.863 0.007 0.006c0.081 0.065 0.15 0.118 0.208 0.159 0.057 0.042 0.124 0.068 0.198 0.078 0.088 0.012 0.172-0.001 0.254-0.040s0.158-0.103 0.231-0.194zM24.694 8.177l1.787-0.577 0.308 0.403-1.030 1.57-0.289-0.38 0.215-0.308-0.356-0.466-0.354 0.126-0.282-0.369zM25.881 8.607l0.352-0.508-0.583 0.206 0.231 0.302zM26.166 10.258c-0.145-0.236-0.192-0.465-0.141-0.688s0.201-0.411 0.449-0.563c0.239-0.147 0.474-0.195 0.701-0.144s0.415 0.195 0.56 0.43c0.038 0.063 0.070 0.121 0.093 0.175 0.024 0.055 0.044 0.108 0.061 0.162 0.011 0.042 0.021 0.090 0.030 0.143 0.008 0.053 0.014 0.097 0.018 0.131l-0.36 0.222-0.024-0.040c0.003-0.030 0.009-0.065 0.013-0.108s0.006-0.089 0.005-0.139c-0.001-0.049-0.007-0.101-0.019-0.155s-0.033-0.104-0.062-0.152c-0.035-0.057-0.076-0.105-0.123-0.141s-0.104-0.064-0.173-0.080c-0.062-0.017-0.135-0.017-0.215-0.001-0.081 0.015-0.166 0.050-0.255 0.105-0.093 0.058-0.164 0.119-0.212 0.184-0.048 0.066-0.078 0.131-0.090 0.198-0.013 0.064-0.013 0.126 0.002 0.187s0.037 0.116 0.068 0.166c0.032 0.053 0.071 0.097 0.116 0.133 0.045 0.038 0.089 0.066 0.128 0.086 0.042 0.023 0.082 0.041 0.12 0.054s0.071 0.025 0.1 0.034l0.022 0.037-0.353 0.218c-0.031-0.022-0.066-0.046-0.106-0.074-0.040-0.027-0.078-0.058-0.114-0.091-0.045-0.041-0.084-0.080-0.118-0.118s-0.074-0.095-0.12-0.171zM26.953 11.696l-0.442-0.896 0.278-0.136 0.117 0.239 1.034-0.509-0.117-0.239 0.277-0.136 0.442 0.895-0.277 0.137-0.118-0.239-1.034 0.509 0.117 0.239-0.277 0.137zM28.323 13.176c-0.275 0.079-0.514 0.065-0.716-0.043-0.201-0.108-0.34-0.296-0.417-0.562-0.077-0.267-0.058-0.501 0.057-0.7s0.309-0.336 0.581-0.415c0.273-0.078 0.511-0.065 0.714 0.042s0.344 0.294 0.42 0.562c0.077 0.267 0.058 0.5-0.056 0.699-0.114 0.198-0.309 0.337-0.584 0.416zM28.192 12.716c0.101-0.029 0.184-0.064 0.249-0.107 0.065-0.042 0.116-0.089 0.151-0.139 0.035-0.052 0.057-0.104 0.062-0.158 0.007-0.054 0.002-0.108-0.012-0.159-0.017-0.054-0.040-0.102-0.072-0.141-0.031-0.040-0.077-0.073-0.137-0.1-0.055-0.024-0.123-0.037-0.202-0.038-0.080-0.003-0.171 0.012-0.271 0.041-0.105 0.030-0.188 0.065-0.251 0.107s-0.112 0.087-0.148 0.137c-0.037 0.052-0.058 0.106-0.064 0.16s-0.002 0.107 0.013 0.159c0.015 0.053 0.042 0.1 0.077 0.143s0.082 0.076 0.137 0.099c0.061 0.023 0.127 0.037 0.199 0.038 0.072 0.001 0.161-0.013 0.268-0.044zM29.673 12.258l-0.552-0.229-0.082-0.284 0.52 0.117 0.114 0.396zM27.66 15.117l-0.040-0.445 1.166-0.822-1.23 0.111-0.038-0.423 1.764-0.158 0.050 0.568-0.957 0.679 1.010-0.090 0.038 0.422-1.764 0.159zM7.15 6.982l0.138 0.572 0.62 0.051-0.535 0.3 0.14 0.572-0.468-0.387-0.534 0.302 0.245-0.539-0.47-0.384 0.62 0.053 0.243-0.539zM21.928 25.374l0.138 0.572 0.62 0.050-0.535 0.301 0.14 0.571-0.468-0.386-0.534 0.302 0.245-0.539-0.47-0.385 0.62 0.053 0.243-0.54zM28.405 17.122l0.138 0.572 0.62 0.051-0.534 0.3 0.14 0.572-0.469-0.386-0.533 0.302 0.245-0.539-0.47-0.384 0.62 0.053 0.243-0.54zM27.824 19.833l0.138 0.572 0.62 0.051-0.535 0.3 0.14 0.572-0.468-0.387-0.534 0.302 0.245-0.539-0.47-0.384 0.62 0.053 0.243-0.539zM26.087 22.164l0.138 0.572 0.621 0.050-0.535 0.301 0.14 0.571-0.468-0.386-0.534 0.302 0.245-0.539-0.47-0.385 0.62 0.053 0.243-0.54zM24.151 23.972l0.138 0.572 0.62 0.051-0.535 0.3 0.14 0.572-0.468-0.387-0.534 0.302 0.246-0.539-0.47-0.384 0.62 0.053 0.243-0.539zM5.466 9.172l0.138 0.572 0.621 0.051-0.535 0.3 0.14 0.571-0.468-0.386-0.534 0.302 0.245-0.539-0.47-0.385 0.62 0.053 0.243-0.54zM9.409 5.368l0.138 0.572 0.62 0.051-0.534 0.3 0.14 0.572-0.469-0.387-0.533 0.302 0.245-0.539-0.47-0.385 0.62 0.053 0.243-0.54zM4.274 11.452l0.138 0.572 0.621 0.051-0.535 0.3 0.14 0.572-0.468-0.386-0.534 0.302 0.245-0.539-0.47-0.384 0.62 0.053 0.243-0.539zM3.574 14.086l0.138 0.572 0.621 0.051-0.535 0.3 0.14 0.572-0.469-0.386-0.533 0.302 0.245-0.539-0.47-0.384 0.62 0.053 0.243-0.54zM2.82 19.726l-0.103-0.554 0.542-0.621-0.030-0.16-0.635 0.118-0.084-0.452 1.729-0.321 0.135 0.726c0.018 0.1 0.029 0.188 0.030 0.265 0.002 0.077-0.010 0.151-0.037 0.22-0.027 0.073-0.068 0.133-0.121 0.183s-0.128 0.082-0.22 0.1c-0.133 0.025-0.246 0.013-0.34-0.034s-0.175-0.118-0.243-0.214l-0.624 0.744zM3.886 18.773c0.044-0.008 0.080-0.023 0.108-0.047s0.047-0.056 0.057-0.099c0.006-0.031 0.007-0.064 0.005-0.099s-0.010-0.079-0.019-0.13l-0.028-0.151-0.467 0.087 0.024 0.129c0.011 0.063 0.026 0.116 0.041 0.158 0.016 0.043 0.038 0.077 0.068 0.102 0.027 0.026 0.057 0.042 0.090 0.050s0.074 0.009 0.123-0.001zM2.861 19.863l1.662-0.577 0.408 1.174-0.318 0.111-0.257-0.74-0.29 0.101 0.237 0.683-0.318 0.111-0.236-0.683-0.417 0.145 0.256 0.74-0.318 0.11-0.407-1.173zM3.722 22.038c-0.118-0.249-0.139-0.48-0.064-0.695s0.243-0.384 0.505-0.507c0.252-0.119 0.489-0.141 0.707-0.066 0.22 0.076 0.388 0.237 0.506 0.486 0.032 0.066 0.056 0.128 0.074 0.183 0.017 0.057 0.032 0.112 0.041 0.166 0.007 0.044 0.011 0.092 0.015 0.144 0.002 0.053 0.003 0.097 0.003 0.131l-0.38 0.179-0.020-0.042c0.008-0.028 0.016-0.063 0.026-0.105s0.016-0.087 0.020-0.136 0.003-0.101-0.002-0.155c-0.007-0.054-0.021-0.107-0.046-0.157-0.028-0.060-0.064-0.111-0.105-0.152-0.041-0.041-0.096-0.074-0.162-0.098-0.061-0.022-0.132-0.031-0.213-0.025s-0.168 0.032-0.263 0.076c-0.098 0.047-0.175 0.1-0.229 0.16s-0.091 0.12-0.111 0.185c-0.020 0.062-0.026 0.124-0.018 0.185s0.024 0.119 0.048 0.171c0.027 0.055 0.060 0.104 0.101 0.145 0.041 0.042 0.080 0.075 0.117 0.099 0.040 0.027 0.077 0.049 0.113 0.067s0.068 0.033 0.095 0.045l0.018 0.038-0.373 0.177c-0.027-0.024-0.060-0.053-0.096-0.084-0.037-0.033-0.071-0.067-0.103-0.103-0.039-0.045-0.074-0.088-0.103-0.13-0.029-0.041-0.064-0.102-0.101-0.182zM5.909 23.748c-0.228 0.169-0.454 0.24-0.68 0.211-0.226-0.030-0.42-0.156-0.585-0.377s-0.229-0.446-0.191-0.671c0.038-0.224 0.169-0.421 0.394-0.589 0.226-0.169 0.452-0.239 0.678-0.211 0.226 0.029 0.422 0.154 0.588 0.376 0.165 0.22 0.229 0.444 0.192 0.669-0.035 0.225-0.168 0.422-0.396 0.592zM5.627 23.367c0.084-0.063 0.149-0.125 0.194-0.187 0.046-0.062 0.076-0.123 0.091-0.182s0.017-0.116 0.003-0.169c-0.013-0.052-0.035-0.1-0.068-0.143-0.034-0.046-0.073-0.081-0.116-0.107s-0.097-0.040-0.163-0.045c-0.059-0.003-0.126 0.009-0.2 0.035s-0.155 0.071-0.238 0.134c-0.086 0.064-0.152 0.127-0.196 0.187s-0.073 0.121-0.089 0.181-0.017 0.118-0.003 0.17c0.013 0.053 0.035 0.101 0.068 0.144s0.073 0.079 0.121 0.107c0.049 0.027 0.104 0.041 0.163 0.043 0.065 0.001 0.131-0.010 0.198-0.033s0.145-0.069 0.234-0.135zM6.701 25.832l-0.325-0.325 0.826-0.824-0.769 0.295-0.222-0.222 0.297-0.768-0.825 0.824-0.307-0.308 1.245-1.243 0.375 0.376-0.326 0.901 0.9-0.326 0.377 0.376-1.245 1.243zM7.003 26.044l1.055-1.408 0.994 0.745-0.202 0.269-0.627-0.469-0.184 0.246 0.578 0.433-0.202 0.269-0.578-0.433-0.266 0.355 0.627 0.47-0.202 0.269-0.994-0.745zM9.656 27.718l-0.392-0.21-0.045-1.416-0.58 1.081-0.372-0.199 0.832-1.551 0.499 0.268 0.041 1.166 0.476-0.888 0.372 0.2-0.832 1.55zM11.814 27.64c-0.055 0.155-0.139 0.28-0.253 0.378-0.114 0.097-0.236 0.159-0.368 0.186-0.109 0.024-0.22 0.025-0.331 0.003s-0.226-0.054-0.346-0.096l-0.541-0.192 0.59-1.657 0.536 0.191c0.122 0.043 0.232 0.091 0.333 0.143s0.188 0.124 0.261 0.214c0.089 0.11 0.145 0.236 0.168 0.378s0.007 0.293-0.050 0.453zM11.368 27.477c0.038-0.109 0.052-0.209 0.041-0.3-0.012-0.091-0.050-0.173-0.116-0.246-0.048-0.052-0.103-0.091-0.167-0.116-0.062-0.026-0.139-0.056-0.229-0.087l-0.007-0.002-0.368 1.035 0.008 0.003c0.097 0.034 0.18 0.062 0.247 0.082s0.139 0.023 0.211 0.008c0.086-0.018 0.162-0.057 0.225-0.12s0.115-0.148 0.154-0.257zM11.591 28.503l1.034-1.554 0.487 0.123 0.171 1.858-0.46-0.116-0.023-0.372-0.564-0.143-0.198 0.317-0.447-0.113zM12.78 28.104l-0.040-0.613-0.326 0.521 0.366 0.092zM14.246 29.056c-0.273-0.028-0.482-0.13-0.627-0.305-0.145-0.175-0.203-0.406-0.174-0.695 0.028-0.277 0.132-0.491 0.31-0.639 0.179-0.149 0.404-0.21 0.677-0.182 0.073 0.007 0.139 0.018 0.196 0.032s0.112 0.030 0.163 0.050c0.041 0.016 0.084 0.037 0.131 0.062 0.046 0.025 0.085 0.046 0.113 0.064l-0.042 0.418-0.046-0.005c-0.021-0.021-0.046-0.046-0.077-0.076s-0.066-0.060-0.107-0.088c-0.040-0.029-0.085-0.055-0.134-0.078s-0.102-0.037-0.157-0.042c-0.066-0.007-0.128-0.003-0.186 0.011-0.056 0.014-0.113 0.044-0.167 0.088-0.050 0.040-0.095 0.096-0.131 0.169s-0.061 0.161-0.071 0.264c-0.011 0.109-0.006 0.202 0.018 0.278 0.023 0.078 0.056 0.141 0.101 0.192 0.042 0.049 0.092 0.085 0.149 0.111s0.114 0.041 0.171 0.047c0.061 0.006 0.12 0.002 0.176-0.011s0.105-0.029 0.145-0.049c0.044-0.020 0.082-0.041 0.116-0.062s0.062-0.041 0.087-0.058l0.042 0.004-0.042 0.412c-0.035 0.011-0.076 0.024-0.121 0.038-0.047 0.015-0.094 0.026-0.142 0.035-0.059 0.010-0.113 0.017-0.164 0.021-0.050 0.003-0.12 0.001-0.208-0.008zM16.064 29.103l-0.992-0.016 0.005-0.308 0.265 0.005 0.018-1.144-0.265-0.005 0.005-0.308 0.992 0.016-0.005 0.308-0.265-0.005-0.018 1.144 0.265 0.005-0.005 0.308zM17.917 28.041c0.035 0.282-0.015 0.514-0.152 0.695s-0.343 0.29-0.616 0.324c-0.274 0.035-0.501-0.020-0.677-0.164s-0.283-0.355-0.318-0.632c-0.035-0.281 0.015-0.512 0.151-0.695s0.341-0.291 0.616-0.326c0.273-0.034 0.499 0.020 0.677 0.162 0.178 0.142 0.284 0.354 0.32 0.636zM17.447 28.099c-0.013-0.104-0.036-0.191-0.068-0.262s-0.069-0.126-0.112-0.168c-0.045-0.043-0.094-0.072-0.146-0.086s-0.105-0.018-0.157-0.012c-0.057 0.007-0.107 0.023-0.15 0.048s-0.083 0.065-0.119 0.12c-0.032 0.050-0.055 0.114-0.068 0.191-0.014 0.079-0.014 0.169-0.001 0.273 0.013 0.108 0.035 0.195 0.066 0.263s0.069 0.123 0.113 0.166c0.045 0.044 0.094 0.073 0.146 0.088 0.053 0.014 0.105 0.018 0.159 0.011s0.105-0.025 0.153-0.053 0.087-0.069 0.118-0.12c0.033-0.056 0.056-0.119 0.068-0.19s0.013-0.16-0.001-0.269zM17.223 26.575l-0.309 0.507-0.291 0.037 0.195-0.493 0.405-0.051zM19.815 28.51l-0.43 0.114-0.999-1.004 0.313 1.185-0.408 0.108-0.45-1.701 0.547-0.144 0.825 0.824-0.258-0.975 0.409-0.107 0.45 1.7zM20.051 6.752c5.43 2.113 8.013 7.971 5.77 13.085s-8.465 7.547-13.895 5.434c-5.431-2.113-8.014-7.972-5.77-13.085 2.244-5.114 8.465-7.547 13.895-5.434z"></path>
<path d="M25.753 19.81l-0.178-0.069 0.191-0.47 0.164-0.473 0.137-0.476 0.111-0.477 0.085-0.479 0.058-0.478 0.034-0.479 0.008-0.476-0.016-0.475-0.042-0.471-0.065-0.468-0.088-0.463-0.112-0.458-0.135-0.452-0.157-0.445-0.18-0.436-0.202-0.43-0.223-0.419-0.245-0.409-0.266-0.398-0.286-0.387-0.306-0.374-0.326-0.36-0.345-0.346-0.365-0.332-0.383-0.316-0.402-0.298-0.419-0.281-0.438-0.263-0.454-0.245-0.472-0.224-0.488-0.204 0.073-0.167 0.497 0.207 0.48 0.229 0.463 0.249 0.446 0.267 0.427 0.287 0.409 0.304 0.39 0.321 0.372 0.337 0.352 0.353 0.332 0.367 0.312 0.381 0.291 0.393 0.27 0.405 0.249 0.417 0.228 0.427 0.206 0.436 0.183 0.446 0.16 0.453 0.137 0.46 0.115 0.466 0.090 0.472 0.066 0.476 0.042 0.48 0.017 0.484-0.009 0.485-0.034 0.487-0.060 0.487-0.086 0.488-0.113 0.486-0.14 0.484-0.168 0.482-0.195 0.478zM11.953 25.206l0.073-0.167 0.499 0.18 0.502 0.155 0.505 0.129 0.507 0.104 0.508 0.080 0.509 0.056 0.508 0.031 0.506 0.008 0.503-0.016 0.501-0.038 0.497-0.061 0.492-0.084 0.486-0.105 0.48-0.127 0.472-0.148 0.465-0.169 0.455-0.19 0.445-0.21 0.434-0.231 0.423-0.25 0.411-0.269 0.396-0.289 0.383-0.307 0.367-0.325 0.352-0.344 0.334-0.361 0.317-0.378 0.299-0.395 0.279-0.412 0.259-0.428 0.239-0.444 0.216-0.459 0.178 0.069-0.22 0.468-0.242 0.452-0.265 0.436-0.284 0.419-0.305 0.403-0.323 0.385-0.341 0.368-0.358 0.349-0.374 0.332-0.39 0.313-0.404 0.293-0.417 0.275-0.431 0.254-0.442 0.234-0.453 0.215-0.464 0.194-0.473 0.172-0.481 0.152-0.488 0.129-0.495 0.108-0.501 0.085-0.506 0.062-0.51 0.040-0.514 0.016-0.515-0.008-0.517-0.032-0.518-0.057-0.518-0.081-0.516-0.107-0.514-0.132-0.511-0.157-0.508-0.184zM6.222 12.211l0.178 0.069-0.191 0.47-0.164 0.473-0.137 0.476-0.111 0.477-0.085 0.479-0.058 0.478-0.034 0.479-0.008 0.476 0.016 0.475 0.042 0.471 0.065 0.468 0.088 0.463 0.112 0.458 0.135 0.452 0.157 0.445 0.18 0.436 0.202 0.43 0.223 0.419 0.245 0.409 0.266 0.398 0.286 0.387 0.306 0.374 0.326 0.36 0.345 0.346 0.365 0.332 0.383 0.316 0.402 0.298 0.419 0.281 0.438 0.263 0.454 0.245 0.472 0.224 0.488 0.204-0.073 0.167-0.497-0.207-0.48-0.229-0.463-0.249-0.446-0.267-0.427-0.287-0.409-0.304-0.39-0.321-0.372-0.337-0.352-0.353-0.332-0.366-0.312-0.381-0.292-0.393-0.27-0.405-0.249-0.417-0.228-0.427-0.206-0.436-0.183-0.446-0.16-0.453-0.137-0.46-0.115-0.466-0.090-0.472-0.066-0.476-0.042-0.48-0.017-0.484 0.009-0.485 0.034-0.487 0.060-0.487 0.086-0.488 0.113-0.486 0.14-0.484 0.168-0.482 0.195-0.478zM20.022 6.815l-0.073 0.167-0.499-0.18-0.502-0.155-0.505-0.129-0.507-0.104-0.508-0.080-0.509-0.056-0.507-0.031-0.506-0.008-0.503 0.016-0.501 0.038-0.497 0.061-0.492 0.084-0.486 0.105-0.48 0.127-0.472 0.148-0.464 0.17-0.455 0.19-0.446 0.21-0.434 0.231-0.423 0.25-0.411 0.269-0.396 0.289-0.383 0.307-0.368 0.325-0.352 0.344-0.334 0.361-0.317 0.379-0.298 0.395-0.28 0.412-0.259 0.428-0.239 0.444-0.216 0.459-0.178-0.069 0.22-0.468 0.242-0.452 0.265-0.436 0.285-0.419 0.304-0.403 0.323-0.385 0.341-0.368 0.358-0.349 0.375-0.332 0.389-0.313 0.404-0.293 0.417-0.274 0.431-0.255 0.442-0.234 0.454-0.214 0.464-0.194 0.472-0.172 0.481-0.151 0.489-0.129 0.495-0.108 0.501-0.085 0.506-0.062 0.51-0.040 0.514-0.016 0.515 0.008 0.517 0.032 0.518 0.057 0.518 0.081 0.516 0.107 0.514 0.132 0.511 0.157 0.508 0.184z"></path>
<path d="M16.559 20.182l-0.427-0.561-0.441 0.561h-0.615l0.748-0.921-0.723-0.908h0.633l0.412 0.534 0.423-0.534h0.601l-0.724 0.894 0.753 0.935h-0.641zM17.294 18.353h0.564v1.829h-0.564v-1.829zM17.576 18.098c-0.104 0-0.188-0.029-0.253-0.085s-0.097-0.127-0.097-0.21c0-0.084 0.032-0.155 0.097-0.211s0.149-0.085 0.253-0.085 0.188 0.027 0.253 0.082c0.065 0.054 0.098 0.122 0.098 0.204 0 0.088-0.033 0.162-0.098 0.219s-0.149 0.086-0.253 0.086zM18.202 18.353h0.564v1.829h-0.564v-1.829zM18.484 18.098c-0.104 0-0.188-0.029-0.253-0.085s-0.097-0.127-0.097-0.21c0-0.084 0.032-0.155 0.097-0.211s0.149-0.085 0.253-0.085 0.188 0.027 0.253 0.082c0.065 0.054 0.098 0.122 0.098 0.204 0 0.088-0.033 0.162-0.098 0.219s-0.149 0.086-0.253 0.086zM20.261 18.326c0.18 0 0.345 0.040 0.494 0.117s0.265 0.188 0.349 0.33c0.084 0.141 0.126 0.306 0.126 0.494s-0.042 0.353-0.126 0.495c-0.085 0.141-0.201 0.251-0.349 0.33s-0.313 0.117-0.494 0.117c-0.268 0-0.472-0.079-0.611-0.238v0.211h-0.539v-2.522h0.564v0.887c0.143-0.147 0.338-0.221 0.586-0.221zM20.163 19.774c0.145 0 0.264-0.046 0.356-0.138s0.139-0.214 0.139-0.369c0-0.154-0.046-0.277-0.139-0.368s-0.211-0.138-0.356-0.138c-0.144 0-0.263 0.046-0.356 0.138s-0.139 0.214-0.139 0.368c0 0.155 0.046 0.277 0.139 0.369s0.212 0.138 0.356 0.138zM22.406 19.784c0.101 0 0.191-0.014 0.269-0.043s0.151-0.073 0.219-0.134l0.3 0.306c-0.183 0.197-0.451 0.296-0.803 0.296-0.22 0-0.414-0.040-0.583-0.12s-0.298-0.192-0.391-0.335c-0.092-0.143-0.137-0.305-0.137-0.486 0-0.179 0.045-0.34 0.135-0.484s0.215-0.256 0.373-0.337c0.158-0.080 0.336-0.121 0.533-0.121 0.186 0 0.355 0.037 0.507 0.111s0.273 0.18 0.364 0.32c0.090 0.14 0.135 0.304 0.135 0.495l-1.439 0.262c0.041 0.090 0.105 0.159 0.194 0.204s0.196 0.068 0.324 0.068zM22.322 18.727c-0.142 0-0.258 0.043-0.347 0.129s-0.136 0.205-0.141 0.357l0.948-0.174c-0.027-0.095-0.081-0.171-0.163-0.228-0.082-0.057-0.182-0.085-0.297-0.085zM24.067 18.594c0.067-0.088 0.158-0.155 0.273-0.2s0.246-0.068 0.396-0.068v0.49c-0.063-0.005-0.105-0.007-0.127-0.007-0.162 0-0.289 0.042-0.38 0.128-0.092 0.085-0.138 0.212-0.138 0.383v0.863h-0.564v-1.829h0.539v0.241z"></path>
<path d="M9.924 16.253c-0.249-1.435-0.567-2.166-0.2-4.178 0.872-4.79 4.174-6.087 3.884-0.646-0.104 1.956-0.573 2.791-1.459 4.636l0.705 0.253c0.877-1.398 2.325-2.836 3.478-3.307 0.95-0.388 3.855-0.487 4.99 0.823 0.721 0.833 0.042 1.47-0.91 1.563-2.421 0.235-2.261 0.509-4.114 1.585-0.809 0.47-1.284 0.484-2.070 0.843 0.018 0.631 0.549 1.718-0.556 2.926-1.195-1.11-2.189-1.957-4.195-2.115-0.333-0.026-0.502 0.005-0.778-0.010-1.472-0.078 0.586-2.11 1.224-2.372zM10.053 20.245c-1.644-0.007-1.728 2.303-0.065 2.38 0.173 0.008 0.356-0.026 0.458-0.063 1.398-0.505 0.949-2.311-0.393-2.317z"></path>
</svg>
