<?xml version="1.0" encoding="UTF-8"?>
<!DOCTYPE svg PUBLIC "-//W3C//DTD SVG 1.1//EN" "http://www.w3.org/Graphics/SVG/1.1/DTD/svg11.dtd">
<!-- Creator: CorelDRAW 2017 -->
<svg xmlns="http://www.w3.org/2000/svg" xml:space="preserve" width="7.5352mm" height="3.6406mm" version="1.1" style="shape-rendering:geometricPrecision; text-rendering:geometricPrecision; image-rendering:optimizeQuality; fill-rule:evenodd; clip-rule:evenodd"
viewBox="0 0 753.52 364.06"
 xmlns:xlink="http://www.w3.org/1999/xlink">
 <defs>
  <style type="text/css">
   <![CDATA[
    .fil0 {fill:none}
    .fil1 {fill:#D2D3D5;fill-opacity:0.501961}
   ]]>
  </style>
 </defs>
 <g id="Capa_x0020_1">
  <metadata id="CorelCorpID_0Corel-Layer"/>
  <rect class="fil0" x="-0.29" y="-1.87" width="754.08" height="367.78"/>
  <path class="fil1" d="M159.22 273.56l-27.73 -38.76 -28.69 38.76 -39.96 0 48.65 -63.72 -47.03 -62.74 41.12 0 26.8 36.91 27.5 -36.91 39.02 0 -46.99 61.82 48.89 64.64 -41.62 0 0.04 0zm47.72 -126.46l36.68 0 0 126.46 -36.68 0 0 -126.46zm18.35 -17.65c-6.76,0 -12.24,-1.97 -16.45,-5.87 -4.2,-3.89 -6.33,-8.77 -6.33,-14.55 0,-5.78 2.13,-10.65 6.33,-14.55 4.25,-3.9 9.74,-5.87 16.45,-5.87 6.71,0 12.25,1.9 16.45,5.64 4.25,3.75 6.33,8.45 6.33,14.1 0,6.1 -2.13,11.16 -6.33,15.17 -4.2,4.02 -9.74,5.99 -16.45,5.99l0 -0.06zm40.69 17.65l36.69 0 0 126.46 -36.69 0 0 -126.46zm18.35 -17.65c-6.76,0 -12.25,-1.97 -16.45,-5.87 -4.21,-3.89 -6.34,-8.77 -6.34,-14.55 0,-5.78 2.13,-10.65 6.34,-14.55 4.24,-3.9 9.73,-5.87 16.45,-5.87 6.71,0 12.24,1.9 16.44,5.64 4.25,3.75 6.34,8.45 6.34,14.1 0,6.1 -2.13,11.16 -6.34,15.17 -4.2,4.02 -9.73,5.99 -16.44,5.99l0 -0.06zm115.46 15.75c11.73,0 22.43,2.7 32.09,8.11 9.66,5.42 17.18,13.02 22.67,22.78 5.48,9.81 8.23,21.21 8.23,34.22 0,13 -2.75,24.4 -8.23,34.21 -5.49,9.8 -13.05,17.38 -22.67,22.78 -9.62,5.4 -20.35,8.11 -32.09,8.11 -17.39,0 -30.62,-5.49 -39.75,-16.45l0 14.56 -35.01 0 0 -174.43 36.68 0 0 61.36c9.22,-10.2 21.93,-15.3 38.08,-15.3l0 0.05zm-6.34 100.13c9.39,0 17.11,-3.16 23.18,-9.54 6.07,-6.38 9.03,-14.87 9.03,-25.53 0,-10.65 -3,-19.15 -9.03,-25.48 -6.03,-6.34 -13.75,-9.55 -23.18,-9.55 -9.43,0 -17.1,3.17 -23.18,9.55 -6.07,6.38 -9.03,14.87 -9.03,25.48 0,10.66 3.01,19.15 9.03,25.53 6.03,6.38 13.75,9.54 23.18,9.54zm145.77 0.69c6.6,0 12.44,-0.96 17.53,-2.94 5.1,-1.97 9.85,-5.06 14.22,-9.26l19.5 21.16c-11.9,13.63 -29.31,20.46 -52.18,20.46 -14.24,0 -26.88,-2.79 -37.84,-8.35 -10.97,-5.56 -19.43,-13.28 -25.37,-23.17 -5.94,-9.88 -8.92,-21.09 -8.92,-33.6 0,-12.39 2.94,-23.56 8.8,-33.48 5.87,-9.93 13.94,-17.72 24.22,-23.28 10.27,-5.56 21.82,-8.35 34.67,-8.35 12.06,0 23.06,2.56 32.9,7.65 9.84,5.09 17.76,12.48 23.63,22.08 5.87,9.65 8.8,21.05 8.8,34.21l-93.57 18.11c2.67,6.27 6.88,10.96 12.6,14.1 5.72,3.14 12.74,4.72 21.04,4.72l-0.03 -0.06zm-5.4 -73.09c-9.22,0 -16.75,2.98 -22.55,8.92 -5.79,5.94 -8.84,14.17 -9.19,24.67l61.59 -11.96c-1.74,-6.6 -5.25,-11.82 -10.58,-15.77 -5.33,-3.94 -11.74,-5.86 -19.27,-5.86zm113.33 -9.15c4.41,-6.1 10.31,-10.74 17.76,-13.87 7.46,-3.12 16.03,-4.71 25.76,-4.71l0 33.86c-4.05,-0.31 -6.83,-0.47 -8.23,-0.47 -10.51,0 -18.72,2.93 -24.68,8.8 -5.95,5.87 -8.91,14.67 -8.91,26.45l0 59.69 -36.68 0.03 0 -126.46 35.03 0 0 16.68 -0.05 0z"/>
 </g>
</svg>
