<!-- Generated by IcoMoon.io -->
<svg version="1.1" xmlns="http://www.w3.org/2000/svg" width="32" height="32" viewBox="0 0 32 32">
<title>xiiber</title>
<path d="M11.262 18.402c-1.3-1.995-2.232-2.893-3.049-6.136-1.944-7.719 1.845-11.719 5.039-3.387 1.148 2.995 1.042 4.538 1.016 7.855l1.16-0.060c0.309-2.642 1.394-5.698 2.707-7.124 1.080-1.173 5.103-3.132 7.569-1.876 1.567 0.798 1.032 2.176-0.246 2.908-3.251 1.861-2.845 2.172-4.739 4.939-0.828 1.209-1.487 1.527-2.357 2.553 0.443 0.934 1.91 2.233 1.156 4.73-2.417-0.92-4.376-1.568-7.306-0.554-0.485 0.168-0.704 0.32-1.101 0.47-2.124 0.801-0.573-3.527 0.152-4.317zM13.616 22.739c-2.886 1.261-1.129 5.636 1.847 4.49 0.31-0.119 0.602-0.325 0.75-0.473 2.035-2.026-0.241-5.048-2.598-4.017z"></path>
</svg>
