<!-- Generated by IcoMoon.io -->
<svg version="1.1" xmlns="http://www.w3.org/2000/svg" width="32" height="32" viewBox="0 0 32 32">
<title>xiibergit</title>
<path d="M12.514 2.133c-2.044 0.642-3.233 0.963-5.104 2.399-4.339 3.328-6.954 9.88-5.259 14.95 0.672 2.011 1.191 3.519 2.383 5.053 6.667 8.591 18.599 7.162 23.557-0.794 4.226-6.783 2.453-15.171-4.288-19.814-2.551-1.758-7.274-3.055-11.289-1.794z"></path>
<path d="M15.999 3.385c-6.939 0-12.615 5.676-12.615 12.615v0.001c0 6.306 4.69 11.57 10.754 12.476-0.192-0.276-0.289-0.557-0.411-0.92-0.341-1.015 0.185-2.326 1.057-2.992 0.376-0.287 0.615-0.352 1.026-0.48 0.807-0.252 1.756 0.007 2.269 0.359 1.3 0.892 1.681 2.473 0.96 3.799 5.483-1.369 9.576-6.35 9.576-12.242v-0.001c0-6.939-5.676-12.615-12.615-12.615h-0.001zM12.15 20.675c-1.431-1.657-2.391-2.36-3.536-5.214-2.724-6.794 0.234-10.905 4.173-3.709 1.416 2.587 1.51 4.006 1.896 7.032l1.049-0.198c-0.045-2.445 0.566-5.364 1.587-6.825 0.839-1.201 4.263-3.484 6.664-2.644 1.526 0.534 1.209 1.855 0.135 2.68-2.732 2.097-2.324 2.33-3.708 5.085-0.605 1.204-1.167 1.574-1.832 2.617 0.519 0.797 2.016 1.798 1.637 4.167-2.316-0.539-4.182-0.889-6.725 0.397-0.421 0.213-0.602 0.379-0.945 0.564-1.837 0.992-0.957-3.142-0.395-3.951z"></path>
</svg>
