<?xml version="1.0" encoding="UTF-8"?>
<!DOCTYPE svg PUBLIC "-//W3C//DTD SVG 1.1//EN" "http://www.w3.org/Graphics/SVG/1.1/DTD/svg11.dtd">
<!-- Creator: CorelDRAW 2017 -->
<svg xmlns="http://www.w3.org/2000/svg" xml:space="preserve" width="83.12mm" height="57.23mm" version="1.1" style="shape-rendering:geometricPrecision; text-rendering:geometricPrecision; image-rendering:optimizeQuality; fill-rule:evenodd; clip-rule:evenodd"
viewBox="0 0 8312 5723"
 xmlns:xlink="http://www.w3.org/1999/xlink">
 <defs>
  <style type="text/css">
   <![CDATA[
    .fil0 {fill:#1C1B17}
   ]]>
  </style>
 </defs>
 <g id="Capa_x0020_1">
  <metadata id="CorelCorpID_0Corel-Layer"/>
  <path class="fil0" d="M2980.96 2076.34c-166.64,-130.22 -212.96,-313.55 -646.86,-616.34 -185.67,-129.58 -593.78,-374.33 -857.65,-418.61 421.52,162.38 1531.49,868.59 1531.27,1249.84 -516.82,-379.59 -611.78,-487.14 -1370.27,-492.02 -451.61,-2.91 -1293.22,68.09 -1637.56,257.38 127.03,99.49 368.69,233.47 527.37,338.74 177.07,117.47 356.29,250.67 515.99,383.47 238.92,198.66 745.18,656.17 880.04,926.74 -610.13,38.49 -1588.58,453.31 -1863.04,817.29 695.26,-11.31 1520.96,131.38 2056.43,556.55 -61.19,66.96 -355.01,151.48 -475.83,200.53 -128.47,52.15 -366.66,128.2 -428.17,246.25 546.23,-0.92 1031.89,94.72 1553.95,117.49 -93.86,-118.09 -254.56,-170.19 -292.04,-361.19 -32.21,-164.18 -16.26,-459.65 28.37,-600.62 227.21,-58.97 201.29,90.66 530.5,74.55 -65.52,-143.68 -233.66,-144.95 -237.82,-430.81 126.28,62.18 169.86,140.8 277.49,190.33 -1.67,-250.21 -108.83,-471.29 -143.98,-701.29l589.05 -450.31c-98.98,364.87 -226.13,501.93 -229.38,967.79 122.1,-96.38 398.78,-636.53 731.41,-793.31 -124.45,260.2 -374.4,520.47 -347.83,941.4 43.32,-208.46 160.83,-452.49 259.92,-646.55 53.78,-105.34 52.43,-127.85 126.83,-195.41 -33.86,279.39 -151.23,518.13 -114.92,823.01 99.83,-91.55 215.24,-369.54 474.23,-619.73 121.5,-117.4 448.51,-384.21 689.29,-435.33 65.3,254.71 150.83,433.88 25.72,727.45 -99.21,232.81 -247.6,316.27 -377.16,471.15 230.63,-23.55 343.88,-120.09 536.39,-179.73 -30.41,194.02 -95.44,228.69 -156.74,382.12 21.33,-1.97 150.43,-19.84 154.93,-19 76.17,14.25 -5.62,-16.84 45.06,24.52l29.79 32.97c3.75,4.02 9.55,13.47 15.4,19.23 182.71,-351.1 515.09,-167.54 333.83,440.54 -62.82,210.75 -238.49,289.65 -339.22,417.76 310.69,-57.92 593.33,-141.64 935.58,-186.53 350.59,-45.99 724.86,-38.59 1066.47,-86 -45.98,14.44 -471.74,-80.53 -591.25,-97.74 -226.27,-32.58 -433.47,-45.64 -670.98,-63.8 673.26,-209.9 1406.08,-514.14 2196.54,-515.62 -226.92,-229.69 -1279.98,-435.53 -1685.99,-498.71l147.08 -75.66c49.5,-13.81 110.06,-25.33 161.02,-36.31 451.04,-97.13 705.13,-82.92 1154.68,-110.55 -518.34,-320.42 -1075.06,-338.36 -1766.73,-371.35l132.38 -54.11c371.74,-78.56 845.55,4.22 1174.22,20.19 -187.11,-108.06 -535.6,-116.24 -792.88,-104.01 -308.77,14.68 -522.62,107.63 -782.08,135.56 -81.88,-803.66 -575.3,-1375.71 -1385.5,-1441.55 -45.36,-880.84 -397.49,-1162.56 -1011.69,-1509.6 -448.3,-253.29 -1215.45,-632.79 -1795.18,-727.59 75.79,143.08 219.35,311.31 319.78,460.66 107.66,160.11 214.25,326.14 314.17,501.07 157.86,276.35 426.56,781.03 485.57,1114.8z"/>
 </g>
</svg>
