<?xml version="1.0" encoding="UTF-8"?>
<!DOCTYPE svg PUBLIC "-//W3C//DTD SVG 1.1//EN" "http://www.w3.org/Graphics/SVG/1.1/DTD/svg11.dtd">
<!-- Creator: CorelDRAW 2017 -->
<svg xmlns="http://www.w3.org/2000/svg" xml:space="preserve" width="85.9894mm" height="40.7458mm" version="1.1" style="shape-rendering:geometricPrecision; text-rendering:geometricPrecision; image-rendering:optimizeQuality; fill-rule:evenodd; clip-rule:evenodd"
viewBox="0 0 8598.94 4074.58"
 xmlns:xlink="http://www.w3.org/1999/xlink">
 <defs>
  <style type="text/css">
   <![CDATA[
    .fil0 {fill:none}
    .fil2 {fill:black}
    .fil1 {fill:#FA6585}
   ]]>
  </style>
 </defs>
 <g id="Capa_x0020_1">
  <metadata id="CorelCorpID_0Corel-Layer"/>
  <rect class="fil0" x="-0.01" width="8598.95" height="4074.58"/>
  <path class="fil1" d="M8410.2 677.73c53.5,-41.23 62.96,-31.97 77.84,-81.1 -50.87,-31.95 -120.13,-15.25 -228.47,-47.51 -66.38,-19.79 -117.82,-50.98 -166.71,-91.92 -304.98,-255.42 -50.77,-459.92 -340.28,-449.85l-777.06 -0.72c-346.74,-3.46 -704.9,14.77 -1050.29,2.64 -347.04,-12.2 -703.15,13.72 -1050.28,-1.08 -341.61,-14.56 -705.25,11.78 -1050.3,-0.79 -631.95,-23.03 -1468.42,20.85 -2100.58,-1.07 -157.66,-5.46 -359.41,-4.03 -517.95,0.68 -220.33,6.55 -470.1,-36.78 -506.18,56.34 -23.85,61.56 12.46,37.7 -53.89,200.29 -78.78,193.09 -254.87,298.28 -462.32,309.92 -53.38,3 -79.09,-3.69 -78.1,51.84 63.24,35.15 37.42,1.62 93.29,54.93 43.02,91.49 -69.6,148.13 -86.69,175.28 54.15,36.52 52.46,26 95.69,71.92 33.23,84.83 -72.34,132.72 -95.13,158.28 20.95,31.59 55.41,45.57 89.23,68.16 -0.51,62.61 8.13,81.97 -41.44,136.66l-49.21 42.67 75.83 39.41 6.53 112.54 -81.04 75.34c25.3,43.61 149.69,78.43 65.94,179.36 -11.59,13.95 -9.3,11.66 -21.46,21.72 -49.87,41.23 -19.48,-12.24 -44.23,43.51l88.61 67.82c0.08,84.43 12.78,81.02 -49.27,129.89 -42.39,33.39 -24.29,-1.67 -39.06,46.88 50.03,27.12 48.44,17.77 93.69,57.54 -0.77,72.4 11.78,93.46 -47.12,132 -56.57,37 -22.13,-16.83 -46.67,40.66 25.61,39.72 38.44,22.57 83.82,47.8l3.28 113.15c-25.48,20.54 -71.18,49.06 -91.97,69.25 36.82,39.4 30.9,38.44 83.28,64.29 8.57,144.7 7.67,109.62 -84.33,165.9 14.56,51.2 46.15,34.58 91.3,73.28 2.36,103.33 12.72,110.52 -91.05,156.93 2.85,58.82 11.18,30.74 93.85,84.02l-2.67 104.51c-25.71,18.1 -67.74,40.05 -83.97,70.44 32.46,60.21 94.97,9.85 86.3,143.89 -23.37,33.98 -18.43,30.39 -48.12,53.32 -57.41,44.35 -32.54,-7.85 -41.03,64.05 89.29,32.28 261.73,-5.51 431.23,157.49 56.34,54.2 80.39,103.91 115.77,187.56 130.13,307.71 -207.38,229.3 964.55,229.3l4460.13 0.16c440.54,-0.08 1412.27,18.77 1786.65,-2.97 85.23,-108.42 16.51,-225.8 184.67,-400.8 115.56,-120.25 212.99,-144.57 436.94,-154.38l0.57 -54.21c-29.9,-18.9 -63.02,-33.25 -92.74,-52.2 7.05,-145.36 -9.29,-84.95 74.99,-154.36 1.7,-1.39 5.68,-3.49 6.86,-8.08 1.2,-4.67 4.14,-5.87 6.25,-8.77 -25.15,-36.87 -43.66,-30.15 -80.95,-57.54 -9.84,-52.77 -18.74,-89.2 12.02,-125.33 16.31,-19.16 31.41,-20.59 42.31,-28.72 27.03,-20.16 12.98,-1.67 26.18,-33 -4,-3.41 -179.49,-79.21 -54.69,-183.69l53.75 -46.51c-59.16,-64.16 -100.1,-36.81 -83.26,-170.75 23.74,-24.69 58.02,-41.88 84.97,-55.93 -20.43,-40.79 -160.38,-113.33 -61.62,-207l62.7 -41.1c-45.69,-78.59 -109.61,-11.44 -84.54,-172.66 23.49,-23.18 49.85,-36.14 83.74,-57.54 -18.63,-47.9 28.18,-0.01 -87.9,-72.7l2.06 -99.95c8.87,-23.82 76.46,-56.07 78.69,-63.71 1.43,-4.88 5.31,-5.49 7.98,-8.23 -32,-47.28 -24.8,-11.19 -88.95,-71.93l2.15 -99.84c38.47,-31.44 44.39,-29.19 91.02,-58.42 -22.59,-68.18 -86.77,-8.22 -95.04,-115.28 -2.91,-37.74 5.33,-69.71 25.95,-90.85 21.76,-22.32 16.48,-3.45 63.1,-38.46 -19.93,-34.38 -57.6,-59.59 -83.13,-76.72 8.41,-105.37 -3.59,-93.97 46.59,-131.79 43.76,-32.97 14.12,9.21 34.51,-36.08 -31.3,-39.84 -36.82,-25.09 -78.9,-57.56 -20.18,-32.18 -27.22,-109.59 62.51,-159.54l20.16 -13.1c-50.74,-88.74 -94.69,3.72 -78.89,-177.88z"/>
  <path class="fil2" d="M1491.6 579.65l5624.22 0 0 2915.28 -5624.22 0 0 -2915.28zm5886.79 2915.28l-93.17 0 0 -2915.28 93.17 0c280.23,0 525.16,245.05 525.16,525.43l0 1864.42c0,280.38 -244.93,525.43 -525.16,525.43zm-6682.99 -525.43l0 -1864.42c0,-280.38 244.93,-525.43 525.16,-525.43l101.64 0 0 2915.28 -101.64 0c-280.23,0 -525.16,-245.05 -525.16,-525.43zm-160.93 -1889.85l0 1915.28c0,259.16 182.33,484.18 398.07,593.26 69.7,35.24 158.63,67.76 262.61,67.76l6208.65 0c103.98,0 192.91,-32.52 262.61,-67.76 215.74,-109.08 398.07,-334.1 398.07,-593.26l0 -1915.28c0,-177.26 -93.01,-343.06 -205.4,-455.51 -112.39,-112.45 -278.11,-205.51 -455.28,-205.51l-6208.65 0c-333.44,0 -660.68,327.41 -660.68,661.02z"/>
 </g>
</svg>
