<?xml version="1.0" encoding="UTF-8"?>
<!DOCTYPE svg PUBLIC "-//W3C//DTD SVG 1.1//EN" "http://www.w3.org/Graphics/SVG/1.1/DTD/svg11.dtd">
<!-- Creator: CorelDRAW 2017 -->
<svg xmlns="http://www.w3.org/2000/svg" xml:space="preserve" width="32.8082mm" height="32.8082mm" version="1.1" style="shape-rendering:geometricPrecision; text-rendering:geometricPrecision; image-rendering:optimizeQuality; fill-rule:evenodd; clip-rule:evenodd"
viewBox="0 0 3280.82 3280.82"
 xmlns:xlink="http://www.w3.org/1999/xlink">
 <defs>
  <style type="text/css">
   <![CDATA[
    .fil2 {fill:#4E9695}
    .fil0 {fill:#CCE5C5}
    .fil1 {fill:#EEFDDE}
    .fil3 {fill:#F3FFF3}
   ]]>
  </style>
 </defs>
 <g id="Capa_x0020_1">
  <metadata id="CorelCorpID_0Corel-Layer"/>
  <circle class="fil0" cx="1640.41" cy="1640.41" r="1638.38"/>
  <circle class="fil1" cx="1640.41" cy="1640.41" r="1543.26"/>
  <circle class="fil2" cx="1640.41" cy="1640.41" r="1358.05"/>
  <circle class="fil3" cx="1640.41" cy="1640.41" r="1278.67"/>
  <path class="fil2" d="M1950.87 2213.93c9.65,35.57 -77.19,94.83 -121.68,140.46 -36.27,37.21 25.32,156.06 12.61,218.95 -40.34,19.81 -156.59,-78.55 -193.36,-78.48 -39.09,0.06 -151.32,99.26 -193.36,78.37 -6.55,-31.57 15.14,-124.85 21.93,-163.8 9.33,-53.56 -8.12,-53.58 -73.35,-115.36 -92.59,-87.69 -95.76,-82.64 69.84,-106.4 98.26,-14.1 66.64,4.2 141.57,-150.13 9.1,-18.74 25.03,-63.38 51.14,-31.85l64.78 132.76c17.52,36.18 10.48,37.48 54.48,43.64 33.59,4.71 147.22,13.54 165.4,31.84zm-657.45 9.98c-88.87,-29.32 -192.21,-122.96 -258.01,-186.99 -14.29,-13.89 -16.91,-18.69 -28.17,-31.83 -13.47,-15.73 -16.15,-18.01 -28.53,-35.76 -75.8,-108.7 -102.47,-150.84 -143.05,-297.37l489.19 0.08c46.14,85.59 171.88,179.33 323.57,179.33 152.24,0 276.89,-93.65 323.7,-179.29l489.07 1.05c-28.49,99.66 -60.5,179.03 -117.22,262.3 -8.67,12.73 -18.94,23.92 -27.6,36.42 -11.05,15.96 -14,18.34 -26.77,33.24 -67.99,79.36 -89.39,90.07 -166.24,150.98 -14.87,11.79 -20.84,14.38 -38.97,25.27 -23.3,14 -54.09,33.7 -80.96,42.57 -15.16,-52.66 -27.15,-63.85 -85.68,-71.22 -42.03,-5.3 -92.25,-11.43 -132.92,-19.68 -6.48,-3.68 -50.87,-99.45 -54.14,-106.14 -16.91,-34.64 -35.14,-77.94 -82.27,-77.94 -47.12,0 -65.36,43.3 -82.26,77.94l-54.15 106.14c-42.94,8.72 -92.08,13.7 -136.52,20.03 -56.31,8.04 -67.51,20.27 -82.07,70.87zm-514.52 -581.48c0,29.65 27.13,106.42 36.9,134.45 41.04,117.84 118.96,229.15 206.19,316.38 56.85,56.86 125.6,110.77 196.69,150.25l119.66 55.96c22.71,15.49 49.7,55.91 91.63,83.99 -0.51,23.07 -9.36,60.46 -13.45,85.06 -8.47,50.92 -27.04,104.41 5.94,140.9 41.78,46.22 111.28,-3.75 141.73,-18.94 110.39,-55.08 58.7,-54.8 165.62,-1.42 32.42,16.19 102.59,66.8 144.58,20.36 45.17,-49.97 -5.74,-146.03 -7.51,-225.96 21.53,-14.43 27.71,-21.28 46.04,-39.63 67.26,-67.3 27.41,-33.89 102.46,-68.86 176.07,-82.04 311.86,-208.69 408.11,-375.75l43.05 -85.45c12.39,-27.83 51.41,-142.52 51.41,-167.05 0,-16.56 -17.58,-25.7 -34.28,-25.7l-509.71 0c-55.07,0 -34.34,47.54 -128.47,115.69 -157.33,113.91 -371.55,74.37 -480.43,-93.62 -10.14,-15.64 -17.35,-22.07 -42.17,-22.07l-509.72 0c-13.71,0 -34.27,9.88 -34.27,21.41zm544.97 -377.33l-488.09 0.07c26.72,-112.49 105.7,-266.78 185.84,-352.37 161.15,-172.08 378.42,-281.6 626.64,-281.09 188.06,0.38 402,74.76 531.74,192.06 58.57,52.96 106.59,94.99 151.61,161.14 56.54,83.07 102.41,166.6 129.46,279.4l-488.09 0.76c-139.87,-237.47 -509.26,-237.49 -649.11,0.03zm-544.97 30.39c0,12.17 26.08,21.41 42.83,21.41l505.44 0c27.15,0 36.78,-24.8 48.91,-41.05 55.45,-74.3 150.72,-138.85 250.92,-138.85 86.48,0 152.9,11.58 219.1,63.61 21.18,16.64 45.03,36.45 61.87,58.07 20.14,25.86 32.47,58.22 61.7,58.22l514 0c13.72,0 34.28,-9.88 34.28,-21.41 0,-68.52 -72.97,-221.95 -109.99,-284.09 -12.88,-21.62 -25.28,-38.82 -39.02,-59.5 -30.02,-45.16 -64.53,-73.72 -91.88,-105.15 -69.28,-79.6 -202.53,-161.4 -297.59,-199.29 -76.68,-30.56 -195.26,-63.73 -284.01,-62.94 -21.48,0.19 -33.25,-3.91 -47.04,-3.91 -13.62,0 -22.05,4 -42.7,3.98 -173.65,-0.31 -368.35,83.02 -505.64,188.25 -10.81,8.28 -15.95,13.84 -28.1,23.3 -11.1,8.62 -14.57,13.89 -24.28,22.83 -100.29,92.24 -150.21,166.41 -207.35,285.25 -21.65,45.05 -61.45,143.38 -61.45,191.27zm1242.55 1070.04c29.9,-8.47 112.27,-8.12 129.19,-28.08 18.68,-22.02 34.31,-82.89 54.62,-103.72l9.84 11.74c56.35,93.04 3.4,101.18 175.65,118.33 -7.02,31.08 -60.06,57.35 -80.33,86.39 -19.01,27.22 11.76,97.44 9.8,133.79 -29.54,-6.55 -91.15,-53.49 -114.77,-53.06 -22.6,0.4 -91.28,51.65 -113.86,51.88 -2.45,-38.71 30.89,-107.86 8.32,-136.83 -18.59,-23.86 -69.85,-54.29 -78.46,-80.44zm93.86 -63.46c-25.27,0 -61.79,6.44 -87.63,10.89 -30.96,5.34 -51.3,15.31 -55.66,46.92 -7.69,55.8 83.32,96.52 83.32,113.53 0,41.17 -12.84,60.87 -12.84,115.65 0,34.95 41.21,52.97 74,39.94 105.87,-42.07 54.7,-65.94 154.4,-11.36 71.7,39.26 107.76,-4.22 98.55,-55.5 -4.83,-26.87 -12.21,-59.66 -14.27,-84.45 4.72,-18.25 85.66,-63.37 85.66,-111.37 0,-29.41 -24.51,-46.51 -50.78,-52.01 -18.43,-3.87 -81.04,-9.06 -90.88,-16.21 -22.11,-16.03 -34.16,-115.96 -93.92,-115.96 -46.47,0 -86.3,104.29 -89.95,119.93zm-1209.21 61.8c30.66,-3.18 114.6,-9.02 129.31,-28.15 15.31,-19.91 40.03,-89.26 56.17,-101.99 20.82,21.35 35.41,81.18 54.66,103.69 16.85,19.69 99.25,19.67 129.16,28.03 -8.69,26.63 -63.53,57.5 -80.39,82.99 -18.25,27.59 12.53,98.28 10.25,134.36 -23.58,-0.07 -90.17,-51.47 -113.84,-51.89 -22.12,-0.4 -85.66,46.3 -114.79,53.07 -2.08,-38.38 29.99,-108.92 8.02,-136.3 -25.47,-31.73 -71.85,-54.34 -78.55,-83.81zm-50.09 2.45c0,48 80.94,93.12 85.66,111.37 7.32,28.23 -47.13,117.79 12.93,149.95 48.87,26.15 105.85,-42.86 136.98,-42.86 23.68,0 87.07,65.59 134.07,44.31 54.36,-24.63 15.86,-96.38 15.86,-155.68 0,-14.12 92.19,-61.17 83.56,-113.28 -5.04,-30.42 -22.73,-40.93 -52.27,-46.52 -20.83,-3.95 -66.53,-11.54 -91.26,-11.54 -3.07,-13.2 -43.87,-119.93 -85.67,-119.93 -66.81,0 -73.09,94.31 -95.39,114.49 -10.47,9.47 -73.8,13.89 -90.11,16.98 -28.64,5.42 -54.36,21.96 -54.36,52.71zm631.25 -869.52c-31.01,-222.36 285.69,-258.92 321.65,-58.42 17.77,99.06 -50.31,176.25 -130.93,191.11 -96.09,17.71 -179.67,-53.43 -190.72,-132.69zm-53 -29.98c0,60.17 27.26,115.29 58.83,146.77 69.68,69.5 162.77,88.58 249.68,46.09 125.19,-61.21 164.23,-233.4 57.32,-340.24 -0.62,-0.62 -1.54,-1.51 -2.17,-2.11l-15.68 -14.31c-59.66,-52.32 -159.34,-62.86 -233.9,-21.94l-49.41 36.25c-0.64,0.6 -1.55,1.49 -2.17,2.11 -36.88,36.85 -62.5,91.97 -62.5,147.38zm-415.49 25.7l274.14 0c26.76,0 34.05,-51.4 -12.85,-51.4l-239.88 0c-58.43,0 -45.86,51.4 -21.41,51.4zm963.76 -21.42c0,9.99 11.42,21.42 21.41,21.42l274.13 0c24.46,0 37.02,-51.4 -21.41,-51.4l-239.87 0c-19.77,0 -34.26,9.48 -34.26,29.98zm-1117.96 21.42l25.7 -4.29c7.06,-29.46 9.04,-42.83 -25.7,-42.83 -25.88,0 -25.88,47.12 0,47.12zm1674.79 -25.7c0,10.11 8.4,19.06 12.85,25.7l25.7 0c14.61,-21.81 16.49,-8.85 8.56,-42.83l-34.26 -4.29c-2.2,3.29 -12.85,18.13 -12.85,21.42zm-1828.99 -17.13c-7.92,33.98 -6.04,21.02 8.56,42.83l25.71 0c17.26,-25.78 16.92,-21.84 0,-47.12l-34.27 4.29zm1691.92 17.13c0,11.57 2.05,11.81 4.29,21.41 24.52,5.88 8.86,6.92 38.55,0 24.87,-51.84 -42.84,-55.8 -42.84,-21.41z"/>
 </g>
</svg>
