<?xml version="1.0" encoding="UTF-8"?>
<!DOCTYPE svg PUBLIC "-//W3C//DTD SVG 1.0//EN" "http://www.w3.org/TR/2001/REC-SVG-20010904/DTD/svg10.dtd">
<!-- Creator: CorelDRAW 2017 -->
<svg xmlns="http://www.w3.org/2000/svg" xml:space="preserve" width="74.0832mm" height="50.8mm" version="1.0" style="shape-rendering:geometricPrecision; text-rendering:geometricPrecision; image-rendering:optimizeQuality; fill-rule:evenodd; clip-rule:evenodd"
viewBox="0 0 7408.32 5080"
 xmlns:xlink="http://www.w3.org/1999/xlink">
 <defs>
  <style type="text/css">
   <![CDATA[
    .fil6 {fill:#020202}
    .fil11 {fill:#0F0F0F}
    .fil3 {fill:#101010}
    .fil10 {fill:#111111}
    .fil8 {fill:#121212}
    .fil4 {fill:#141414}
    .fil17 {fill:#151515}
    .fil12 {fill:#181818}
    .fil18 {fill:#303030}
    .fil19 {fill:#494949}
    .fil16 {fill:#595959}
    .fil22 {fill:#5F5F5F}
    .fil13 {fill:#707070}
    .fil14 {fill:#7D7D7D}
    .fil28 {fill:#828282}
    .fil27 {fill:#858585}
    .fil15 {fill:#868686}
    .fil23 {fill:#8C8C8C}
    .fil25 {fill:#8D8D8D}
    .fil0 {fill:#959595}
    .fil2 {fill:#989898}
    .fil20 {fill:#9B9B9B}
    .fil1 {fill:#9D9D9D}
    .fil24 {fill:#ABABAB}
    .fil26 {fill:#B5B5B5}
    .fil21 {fill:#BCBCBC}
    .fil9 {fill:whitesmoke}
    .fil5 {fill:#F9F9F9}
    .fil7 {fill:#FAFAFA}
   ]]>
  </style>
 </defs>
 <g id="Capa_x0020_1">
  <metadata id="CorelCorpID_0Corel-Layer"/>
  <g id="_1808621965728">
   <g>
    <path class="fil0" d="M4314.62 4561.78c28.03,-16.19 2.29,5.59 19.7,-13.92 0.57,-0.64 9.04,-14.2 10.05,-15.85l42.93 -79.97c6.89,-43.62 -0.31,-15.72 -5.33,-25.91 -70.89,-23.22 -247.3,7.2 -339.89,-10.97 8.31,24.51 -18.08,22.11 75.84,21.21l254.95 1.56c-9.75,45.44 -41.39,72.14 -58.25,123.85z"/>
    <path class="fil0" d="M5393.32 1408.89l-8.7 -36.74c64.17,-0.99 35.9,15.18 88.44,26.85l-4.08 -60.51c-51.83,1.47 -50.42,15.62 -112.82,10.87 -17.72,-24.79 -16.81,-7.97 -33.45,-43.11l-29.57 -28.25c4.45,61.52 49.73,59.89 71.77,100.2 14.86,27.16 -3.26,14.39 28.41,30.69z"/>
   </g>
   <g>
    <path class="fil1" d="M824.48 4678.75c-25.85,45.25 1.89,275.5 -13.91,368.46l-47.18 2.02c-8.85,-42.85 -8.61,-643.13 0.46,-679.7 91.91,-10.22 27.16,39.8 60.28,101.04 29.43,-10.78 17.65,-5.7 28.17,-27.98l-24 11.3c-3.04,-36.04 2.39,-66.06 -10.15,-93.28 -100.26,-46.89 -75.01,62.64 -75.27,133.95l0.09 442.91c-0.19,96.09 -28.49,138.98 74.8,124.95 14.71,-39.27 12.65,-329.89 6.71,-383.67z"/>
    <path class="fil1" d="M931.42 4379.7c36.9,-11.3 53.74,-25.08 96.34,-22.89l-17.69 64.23c-0.97,0.98 -2.98,3.25 -4.46,4.89 36.61,-0.14 40.86,-0.22 42.57,-37.63 1.29,-28.19 0.31,-42.51 -20.42,-48.83 -16.44,-5 -74.9,2.54 -96.34,40.23z"/>
   </g>
   <g>
    <path class="fil2" d="M2450.65 4442.03c-23.29,8.41 -34.03,22.12 -50.22,47.27 -30.49,47.35 -14.39,364.73 -14.88,439.97 -0.83,128.27 14.58,127.04 -53.41,117.95l1.23 -675.14c75.46,-12.3 36.85,33.5 86.05,19.55 10.35,-7.67 1,-4.31 8.37,-21.49l-32.11 3.98c-15.07,-26.61 -44.45,-28.71 -71.48,-10.47 -21.17,21.09 -9.1,535.04 -9.09,582.03 0.01,79.13 -23.34,143.39 80.08,112.64 11.07,-89.04 2.75,-238.67 2.69,-334.1 -0.04,-54.65 -0.55,-109.9 0.62,-164.48 1.86,-87.31 30.65,-54.65 52.15,-117.71z"/>
    <path class="fil2" d="M6727.24 1675.69l-18.28 -46.49 -21.58 -9.62c9.87,35.79 11.37,42.41 39.86,56.11z"/>
   </g>
   <g>
    <path class="fil3" d="M5764.79 4363.09c-42.77,67.51 -31,3.25 -104.83,10.09l-3.3 670.92 43.78 1.89c15.24,-37.49 6.5,-278.9 6.45,-338.17 -0.11,-112.11 -20.65,-235.3 75.69,-277.78 43.73,-31.85 134.62,-65.28 211.81,-32 203.38,87.68 124.73,395.27 134.31,653.97l62.68 1.36c7.23,-95.67 1.85,-207.1 2.01,-304.54 0.16,-96.93 11.24,-199.62 -24.68,-271.46 -96.48,-192.93 -320.91,-176.8 -403.92,-114.28z"/>
    <path class="fil3" d="M4042.08 4415.16c92.59,18.17 269,-12.25 339.89,10.97 5.02,10.19 12.22,-17.71 5.33,25.91l-42.93 79.97c-1.01,1.65 -9.48,15.21 -10.05,15.85 -17.41,19.51 8.33,-2.27 -19.7,13.92 -1.78,13.41 -98.23,188.73 -113.8,213.16 -20.49,32.15 -114.43,186.6 -115.7,211.51 -6.1,36.89 -9.49,26.73 -20.7,60.67l461.74 0.32 -2.45 -38.38c-80.52,-34.86 -277.75,19.7 -363.25,-14.17 -5.68,-23.98 -11.23,-13.27 1.2,-45.56 11.11,-28.86 5.72,-19.6 29.95,-28.22l41.85 -64.3c12.48,-20.53 20.8,-50.21 34.74,-72.92 34.25,-55.78 230.78,-379.08 233.01,-421.28l-456.89 1.56 -2.24 50.99z"/>
    <path class="fil3" d="M931.42 4379.7c-18.36,13.31 -26.81,14.83 -43.69,31.14 -15.4,14.88 -17.16,22.31 -35.43,31.75 -10.52,22.28 1.26,17.2 -28.17,27.98 -33.12,-61.24 31.63,-111.26 -60.28,-101.04 -9.07,36.57 -9.31,636.85 -0.46,679.7l47.18 -2.02c15.8,-92.96 -11.94,-323.21 13.91,-368.46 -6.87,-95.23 96.67,-235.67 181.13,-252.82 1.48,-1.64 3.49,-3.91 4.46,-4.89l17.69 -64.23c-42.6,-2.19 -59.44,11.59 -96.34,22.89z"/>
   </g>
   <g>
    <path class="fil4" d="M1594.33 4864.56c-34.93,-13.56 -47.73,-45.03 -57.67,-79.17 -11.38,-39.06 -13.48,-80.74 -11.79,-127.36 0.98,-27.26 18.13,-83.19 29.51,-106.26 94.17,-190.97 364.07,-233.9 470.92,-122.82 -7.8,28.75 -319.41,336.54 -369.56,381.39 -37.46,33.5 -33.68,43.46 -61.41,54.22zm54.59 64.71c9.09,-43.47 214.71,-231.53 239.14,-255.5 26.94,-26.43 237.79,-230.91 239.02,-244.82 3.08,-34.82 -132.88,-130.34 -278.75,-130.03 -137.07,0.3 -205.81,39.97 -274.69,109.3 -263.02,264.73 -52.75,668.17 250.11,667.53 86.96,-0.19 154.17,-5.29 215.29,-46.1 36.76,-24.55 107.88,-69.93 112.87,-116.78 -27.29,-22.09 -49.35,-26.52 -78.55,-4.49 -61.39,46.31 -93.55,91.2 -216.84,91.46 -84.57,0.18 -172.07,-17.44 -207.6,-70.57z"/>
    <path class="fil4" d="M6905.6 4461.51l-354.09 353.97c-35.13,27.67 -16.73,40.44 -65.65,42.59 -69.29,-63.57 -76.5,-247.6 13.52,-366.41 16.25,-21.45 36.73,-39.57 57.65,-57.18 94.02,-79.12 176.56,-69.61 297.58,-47.01 25.42,3.06 39.65,8.91 55.04,19.73 17.33,12.18 18.24,15.19 22.15,41.45l-26.2 12.86zm-351.88 475.96c-2.2,-41.54 23.85,-49.02 48,-72.78l308.03 -306.73c16.23,-16.83 118.33,-115.01 119.14,-129.01 4.07,-70.19 -347.89,-240.93 -551.58,-16.09 -72.03,79.51 -24.1,18.54 -78.05,110.09 -41.11,69.78 -44.38,231.95 -14.62,301.97 45.72,107.58 118.73,188.3 237.17,231.22 87.06,31.56 183.07,25.54 270.64,-1.1 48,-14.6 153.15,-87.76 160.78,-142.17 -57.21,-45.81 -73.46,-0.04 -111.97,29.08 -110.24,83.36 -292.69,76.99 -387.54,-4.48z"/>
    <path class="fil4" d="M5392.18 4765.23c-20.54,84.24 -63.48,145.67 -128.56,187.5 -62.53,40.2 -151.03,74.88 -253.47,48.14 -107.94,-28.17 -217.78,-144.09 -230.4,-235.27 -23.24,-167.93 16.77,-252.99 134.63,-343.84 204.37,-157.54 552.39,37.58 477.8,343.47zm-687.25 -8.2c17.52,99.74 80.77,192.05 149.61,240.1 92.83,64.79 148.65,91.6 304.05,76.78 84.54,-8.06 193.08,-86.53 236.42,-145.61 79.78,-108.73 88.36,-170.71 76.37,-311 -8.42,-98.41 -74.35,-185.59 -147.08,-239.59 -293.81,-218.15 -680.11,33.52 -619.37,379.32z"/>
   </g>
   <g>
    <path class="fil5" d="M5392.18 4765.23c74.59,-305.89 -273.43,-501.01 -477.8,-343.47 -117.86,90.85 -157.87,175.91 -134.63,343.84 12.62,91.18 122.46,207.1 230.4,235.27 102.44,26.74 190.94,-7.94 253.47,-48.14 65.08,-41.83 108.02,-103.26 128.56,-187.5z"/>
    <path class="fil5" d="M6905.6 4461.51l3.05 -32.56c-42.16,-42.1 -54.04,-2.43 -54.04,-41.48 -121.02,-22.6 -203.56,-32.11 -297.58,47.01 -20.92,17.61 -41.4,35.73 -57.65,57.18 -90.02,118.81 -82.81,302.84 -13.52,366.41 48.92,-2.15 30.52,-14.92 65.65,-42.59l354.09 -353.97z"/>
   </g>
   <g>
    <path class="fil6" d="M4847.24 311.55c29.8,-19.74 60.53,-36.95 106.41,-37.61 46.62,-0.68 75.38,11.4 92.71,48 -40.4,-0.89 -62.87,-13.01 -109.23,-11.45 -52.12,1.76 -65.99,20.1 -89.89,1.06zm-571.58 -3.2c-12.01,26.51 -62.39,73.67 -89.26,85.92 -11.61,21.15 -73.98,99.29 -114.84,174.28l-80.85 139.88c-65.73,78.88 -48.75,126.62 -55.95,167.72 -12.23,69.74 -74.38,135.67 -46.02,212.2 19.28,52.04 76.78,57.29 130.95,56.43 131.97,-2.1 201.31,-77.17 284.98,-162.09l67.71 -80.14c23.59,-26.13 35.24,-62.01 88.62,-56.56 216.08,22.08 156.74,-13.49 271.4,-13.03 49.27,0.19 73.46,15.49 131.14,18.9l32.78 -26.45c1.8,1.39 4.03,3.37 5.07,4.54 1.03,1.15 3.58,3.28 4.77,4.74 1.17,1.43 2.96,3.49 4.15,5.12l11.8 21.98c22.23,41.63 36.33,52.36 67.85,86.18 130.22,139.67 306.37,208.87 303.18,330.03l29.57 28.25c42.86,17.08 30.39,36.19 79.14,30.21 30.32,-3.73 47.47,-15.24 79.97,-11.28 5.64,31.09 7.99,64.33 -3.76,92.04 -48.66,3.28 -15.56,-6.21 -70.87,-25.85 41.43,152.35 29.36,33.98 46.25,115.71l26.42 10.16c1.66,45.38 -32.93,97.31 -54.18,136.03 -11.93,21.75 -18.35,48.04 -30.65,69.39 -58.84,102.16 1.52,25.14 -70.85,91.89 -30.5,28.13 -57.57,73.86 -88.2,108.24l-106.75 90.32c-103.66,64.3 -112.3,80.45 -192.72,135.1 -85.09,57.83 -166.55,95 -261.84,140.12 -209.19,99.04 -314.94,135.4 -516.13,270.49 -19.32,12.97 -56.76,44.47 -72.05,49.33 -8.88,24.26 -0.64,14.62 -23.78,35.16 -9.7,8.61 -17.54,13.59 -26.82,22.11 -18.83,17.3 -28.51,32.94 -58.33,47.56 -39.26,49.45 -68.08,72.8 -130.53,157.02 -49.44,66.67 -41.46,68.65 -60.21,111.31 -4.46,10.16 -8.72,14.77 -9,15.32 -8.23,16.66 -15.75,58.32 -17.68,78.98 -4.5,48.17 -10.19,134.13 11.53,164.09l26.71 22.17c41.56,-28.04 2.44,-47.27 53.8,-43.71l6.43 88.96c4.91,0.04 7.16,-1.07 7.6,0.16 0.45,1.27 3.48,0.13 4.12,-0.07 40.15,-12.61 37.66,-39.17 94.03,-59.31 17.96,-0.88 171.49,-130.22 192.19,-143.44 12.13,-42.94 -2.46,-0.04 9.09,-22.08 6.17,-11.79 1.62,8.07 12.8,-23.17 -9.63,-18.89 -17.87,-26.24 -19.28,-56.88 53.76,23.79 33.81,43.9 85.63,25 19.86,1.07 35.3,-13.55 52.82,-25.99l173.07 -89.71c237.27,-136.2 111.06,-62.48 247.32,-95.4 31.13,-7.52 42.11,-16.64 65.85,-22.44 127.17,-31.04 222.61,-65.26 358.23,-79.15 66.39,-6.8 20.97,-37.01 141.59,-2.13 81.65,23.62 175.18,68.71 246.11,105.08 39.53,20.27 82.89,26.97 125.25,48.19l249.14 101.89c41.86,15.96 87.07,33.27 124.8,48 233.11,91.01 257.27,107.09 397.93,299.37l294.26 402.6c43.07,61.31 137.72,205.3 181.01,253.51 21.09,23.49 16.96,27.58 33.95,56.7 11.26,19.29 25.89,32 38.15,51.27l302.72 468.13c21.41,36.16 43.75,76.33 66.16,106.15 38.24,50.87 28.06,79.95 68.58,106.13l0 -2191.95c-50.46,-14.95 -161.94,-155.64 -192.57,-209.57 -128.66,-226.52 -45,-75.9 -176.15,-217.11 -101.81,-109.65 -171.88,-215.32 -244.86,-346.97 -18.46,-33.3 -63.66,-95.61 -70.91,-118.24 -28.49,-13.7 -29.99,-20.32 -39.86,-56.11l-78.86 -127.07c-90.89,-141.6 -141.68,-234.85 -214.55,-390.95 -15.76,-33.77 -25.57,-61.89 -40.04,-99.07 -28.8,-74.03 -22.54,-85.77 -29.91,-104.36l-54.93 -81.91c-14.33,-13.09 -24.1,-29.94 -36.17,-37.82 -18.77,-12.27 -20.83,-5.55 -43.78,-22.32 -59.8,-43.7 -211.32,-115.92 -309.2,-199.13 -9.21,-7.83 -9.8,-10.28 -16.61,-15.45 -109.62,-83.2 -110.8,-75.47 -225.53,-185.28 -100.94,-96.62 -280.05,-206.66 -395.33,-284.93 -59.65,-40.5 -108.96,-92.84 -191.38,-61.97 -51.43,19.27 -102.32,50.96 -193.02,76.02 -102.06,28.2 -530.35,188.09 -582.41,223.01z"/>
    <path class="fil6" d="M-3.41 2375.87l0 1311.45 222.35 -44.48c77.02,-13.92 162.95,-27.63 235.63,-37.83 72.55,-10.18 154.84,-34.02 230.48,-39.91 81.14,-6.33 148.44,-27.81 237.76,-33.49l360.33 -48.68c304.46,-48.93 322.79,-34.88 630.74,-34.56 224.79,0.24 427.99,-24.6 647.39,-40.45 42.06,-3.04 64.3,-12.11 114.59,-14.35 169.35,-7.55 150.18,-19.76 237.42,-30.53 89.4,-11.05 254.97,-31.66 305.63,-104.86 72.36,-104.56 71.25,-264.74 166.81,-366 144.13,-152.75 -19.54,-200.6 17.55,-303.41 22.71,-62.91 93.3,-79.13 125.66,-142.56 16.6,-32.54 31.19,-65.9 15.47,-109.39 -35.6,-98.5 -134.35,-141.34 -149.17,-253.51 -2.16,-16.35 -3.45,-58.67 -1.29,-74.57 11.24,-83.02 117.82,-210.63 -43.42,-338.92 -39.24,-31.23 -122.43,-74.69 -177.45,-90.72 -119.08,-34.71 -539.55,36.28 -596.51,-76.28 -45.98,-90.86 30.99,-328.18 47.36,-461.61 22.56,-184.02 87.47,-303.49 26.76,-533.06l-100.71 -234.89c-19.3,-34.28 -104.76,-103.5 -161.98,-102.87 -2.41,82.02 24.08,116.38 22.83,195.42 -47.04,-5.09 -11.45,-27.06 -74.29,-33.07 -45.82,150.79 -35.05,533.81 -122.13,706.06 -17.42,34.46 -23.38,62.12 -43.72,95.56l-533.25 688.62c-23.16,28.51 -43.91,47.6 -64.62,74.63 -14.69,19.17 -14.24,22.54 -32.32,41.32l-102.28 102.62c-19.13,13.77 -23.08,10.73 -40.05,26.11 -18.58,16.83 -13,16.69 -35.92,27.9 -231.54,113.18 -418.92,111.5 -662.81,167.86l-702.84 112.45z"/>
   </g>
   <path class="fil7" d="M3133.71 4691.41c1.17,409.07 631.49,414.6 630.6,0 -0.68,-317.49 -362.55,-408.65 -535.23,-224.94 -62.41,66.4 -95.67,120.99 -95.37,224.94z"/>
   <path class="fil8" d="M3133.71 4691.41c-0.3,-103.95 32.96,-158.54 95.37,-224.94 172.68,-183.71 534.55,-92.55 535.23,224.94 0.89,414.6 -629.43,409.07 -630.6,0zm627.63 -250.43c-26.55,-4.13 -49.78,-47.25 -124.12,-90.05 -1.53,-0.89 -3.74,-1.88 -5.23,-2.77l-29.46 -18.66c-6.65,-3.14 -19.53,-7.14 -25.08,-8.97 -161.06,-53.06 -341.46,2.01 -444.44,139.79 -148.52,198.71 -47.76,522.8 190.06,598.7 271.28,86.59 421.08,-122.75 437.41,-124.57 16.13,107.15 -24.02,121.83 66.43,118.65l-1.67 -1126.89 -60.68 1.86 -3.22 512.91z"/>
   <path class="fil9" d="M1594.33 4864.56c27.73,-10.76 23.95,-20.72 61.41,-54.22 50.15,-44.85 361.76,-352.64 369.56,-381.39 -106.85,-111.08 -376.75,-68.15 -470.92,122.82 -11.38,23.07 -28.53,79 -29.51,106.26 -1.69,46.62 0.41,88.3 11.79,127.36 9.94,34.14 22.74,65.61 57.67,79.17z"/>
   <path class="fil10" d="M2427.79 4370.14c-7.37,17.18 1.98,13.82 -8.37,21.49 -49.2,13.95 -10.59,-31.85 -86.05,-19.55l-1.23 675.14c67.99,9.09 52.58,10.32 53.41,-117.95 0.49,-75.24 -15.61,-392.62 14.88,-439.97 16.19,-25.15 26.93,-38.86 50.22,-47.27 23.17,-28.28 71.17,-48.24 118.33,-50.49 22.06,-1.06 60.54,-0.99 81.4,4.14 26.16,6.44 29.21,17.8 53.76,22.77 29.72,7.07 20.96,-0.64 35.87,28.07 13.91,28.02 40.74,30.63 45.57,77.31 71.52,30.1 -1.49,404.53 33.9,523.59l39.34 -0.08c17.81,-60.78 2.68,-453.16 -1.1,-536.33 -6.17,-74.29 -100.87,-157.29 -159.77,-176.6 -78.95,-25.88 -223.28,-13.22 -270.16,35.73z"/>
   <path class="fil11" d="M476.6 4040c-26.56,56.41 -49.61,58 -54.72,142.59 -3.25,54.01 9.49,126.22 -5.91,172.71 -25.38,43.81 -52.99,-18.5 -63.11,49.04 63.58,73.03 69.3,-110.39 67.95,287.07 -0.32,94.88 -9.22,266.54 4.43,354.06l42.5 -1.37c21.36,-115.13 -18.29,-556.59 12.77,-613.97 16.09,-12.39 0.9,-8.14 31.72,-12.25 26.25,-3.49 59.57,4.79 94.91,-5.3l-0.7 -32.84c-11.23,-6.35 6.23,-2.42 -20.31,-8.3l-49.07 -1.27c-36.11,1.01 -50.37,9.39 -57.91,-20.83 9.09,-100.83 -18.53,-161.32 25.66,-241.06l11.22 -20.15c7.46,-12.09 -9.03,-5.45 22.44,-18.37 39.37,-26.54 86.52,-17.2 139.18,-18.88l5.42 -54.44c-67.16,-25.41 -176.44,-7.59 -206.47,43.56z"/>
   <path class="fil12" d="M1274.52 4387.69c-6.23,-35.11 -46.5,-31.52 -59.62,-18.89 -21.42,20.64 -7.41,317.78 -7.41,371.82l-0.21 287.94c6.65,36.84 23.15,28.73 65.44,22.6l1.8 -663.47z"/>
   <path class="fil13" d="M479.15 4349.34c7.54,30.22 21.8,21.84 57.91,20.83l49.07 1.27c26.54,5.88 9.08,1.95 20.31,8.3l0.7 32.84c-35.34,10.09 -68.66,1.81 -94.91,5.3 -30.82,4.11 -15.63,-0.14 -31.72,12.25 -31.06,57.38 8.59,498.84 -12.77,613.97l-42.5 1.37c-13.65,-87.52 -4.75,-259.18 -4.43,-354.06 1.35,-397.46 -4.37,-214.04 -67.95,-287.07 10.12,-67.54 37.73,-5.23 63.11,-49.04 15.4,-46.49 2.66,-118.7 5.91,-172.71 5.11,-84.59 28.16,-86.18 54.72,-142.59 -30.12,11.91 -37.21,24.17 -51.23,56.59 -10.36,23.97 -16.78,43.44 -18.98,69.76 -5.02,60.29 1.81,123.39 -3.58,185.96l-62.61 10.27c-11.68,83.79 -3.55,59.88 59.65,73.72 11.58,40.56 5.48,409.52 5.44,501.17 -0.05,93.11 -15.17,126.06 42.01,125.46 41.52,-0.44 39.45,-13.36 39.4,-50.99 -0.17,-148.22 -6.83,-464.84 1.5,-575.19 77.38,-6.27 163.91,25.9 130.07,-72.22 -3.34,-1.32 -0.87,-3.04 -23.01,-6.88 -33.75,-5.84 -69.75,4.55 -116.11,-8.31z"/>
   <path class="fil14" d="M5782.58 4430.04c-96.34,42.48 -75.8,165.67 -75.69,277.78 0.05,59.27 8.79,300.68 -6.45,338.17l-43.78 -1.89 3.3 -670.92c73.83,-6.84 62.06,57.42 104.83,-10.09 -55.97,8.69 -110.02,-32.43 -121.81,17.64 -1.78,7.58 -1.81,15.23 -2.13,23 -4.61,111.19 -2.3,630.57 7.51,658.79 97.86,7.53 73.17,-12.28 73.27,-108.64l-0.16 -385.64c0.82,-98.12 32.24,-70.48 61.11,-138.2z"/>
   <path class="fil15" d="M2785.58 4523.83c16.46,98.14 11.18,173.19 11.66,274.21l0.05 205.36c0.57,60.54 22.74,79 78.83,52.37 11.16,-67.74 3.63,-207.2 3.45,-282.34 -0.08,-31.21 3.64,-217.5 -5.23,-239.99 -6.68,-16.94 -8.35,-13.55 -16.62,-22.43 3.78,83.17 18.91,475.55 1.1,536.33l-39.34 0.08c-35.39,-119.06 37.62,-493.49 -33.9,-523.59z"/>
   <path class="fil16" d="M4085.12 4986.45c-25.84,17.89 -66.96,67.88 -8.38,73.93l442.83 -0.24c35.38,-6.88 34.99,-66.16 0.05,-73.68 -26.21,-5.65 -270.65,6.53 -349.44,-3.51 4.7,-36.4 17.62,-17.75 21.43,-61.84 -24.23,8.62 -18.84,-0.64 -29.95,28.22 -12.43,32.29 -6.88,21.58 -1.2,45.56 85.5,33.87 282.73,-20.69 363.25,14.17l2.45 38.38 -461.74 -0.32c11.21,-33.94 14.6,-23.78 20.7,-60.67z"/>
   <path class="fil17" d="M1184.69 4135.68c-2.13,16.46 -8.98,49.14 -4.4,80.02 33.86,31.68 32.06,22.05 85.37,28.77l8.04 -12.24c1.16,-1.43 6.69,-8.08 8.25,-9.78 4.75,-5.17 12.2,-11.08 16,-14.56l-0.31 -57.85c-45.76,-37.69 -54.41,-31.93 -112.95,-14.36z"/>
   <path class="fil18" d="M5393.32 1408.89c0.94,22.95 6.28,35.39 15.28,55.82 10.78,24.47 13.92,33.05 44.84,42.37 -16.89,-81.73 -4.82,36.64 -46.25,-115.71 55.31,19.64 22.21,29.13 70.87,25.85 11.75,-27.71 9.4,-60.95 3.76,-92.04 -32.5,-3.96 -49.65,7.55 -79.97,11.28 -48.75,5.98 -36.28,-13.13 -79.14,-30.21 16.64,35.14 15.73,18.32 33.45,43.11 62.4,4.75 60.99,-9.4 112.82,-10.87l4.08 60.51c-52.54,-11.67 -24.27,-27.84 -88.44,-26.85l8.7 36.74z"/>
   <path class="fil19" d="M3771.67 3239.7l17.95 60 22.76 4.56 17.17 -50.66c13.98,15.59 5.92,-20.57 16.49,32.81 0.91,4.59 2.7,36.86 3.04,40.64l14.85 7.82c39.25,-17.21 22.12,-11.49 52.18,-34.68 22.34,-17.23 42.63,-22.24 48.25,-52.29 -56.37,20.14 -53.88,46.7 -94.03,59.31 -0.64,0.2 -3.67,1.34 -4.12,0.07 -0.44,-1.23 -2.69,-0.12 -7.6,-0.16l-6.43 -88.96c-51.36,-3.56 -12.24,15.67 -53.8,43.71l-26.71 -22.17z"/>
   <path class="fil20" d="M4847.24 311.55c23.9,19.04 37.77,0.7 89.89,-1.06 46.36,-1.56 68.83,10.56 109.23,11.45 -17.33,-36.6 -46.09,-48.68 -92.71,-48 -45.88,0.66 -76.61,17.87 -106.41,37.61z"/>
   <path class="fil21" d="M1184.69 4135.68c58.54,-17.57 67.19,-23.33 112.95,14.36l0.31 57.85c-3.8,3.48 -11.25,9.39 -16,14.56 -1.56,1.7 -7.09,8.35 -8.25,9.78l-8.04 12.24c53.28,-7.44 54.02,-44.18 47.16,-94.39 -31.56,-45.32 -54.52,-54.29 -115.47,-36.69l-12.66 22.29z"/>
   <path class="fil22" d="M4156.55 3104.46l24.97 -7.18c8.95,-14.46 16.72,-27.43 28.23,-36.14 26.8,-20.29 25.28,2.72 35.04,-33.81 -51.82,18.9 -31.87,-1.21 -85.63,-25 1.41,30.64 9.65,37.99 19.28,56.88 -11.18,31.24 -6.63,11.38 -12.8,23.17 -11.55,22.04 3.04,-20.86 -9.09,22.08z"/>
   <path class="fil23" d="M3977.56 2712.98c29.82,-14.62 39.5,-30.26 58.33,-47.56 9.28,-8.52 17.12,-13.5 26.82,-22.11 23.14,-20.54 14.9,-10.9 23.78,-35.16 -32.95,14.56 -37.72,22.29 -62.17,45.58 -6.63,6.32 -17.81,15.89 -25.26,23.48 -22.24,22.67 -11.66,8.81 -21.5,35.77z"/>
   <path class="fil24" d="M3789.62 3299.7l8.76 22.68c43.32,-5.17 -3,1.75 24.95,-7.21 22.55,-7.22 -11.21,-7.46 7.13,-1.29 8.29,16.56 8.38,4.58 18.62,13.17 -0.34,-3.78 -2.13,-36.05 -3.04,-40.64 -10.57,-53.38 -2.51,-17.22 -16.49,-32.81l-17.17 50.66 -22.76 -4.56z"/>
   <path class="fil25" d="M4186.4 394.27c26.87,-12.25 77.25,-59.41 89.26,-85.92 -28.05,8.44 -32.07,15.34 -52.87,34.25 -1.55,1.41 -20.76,19.89 -20.81,19.95 -20.25,24.36 -6.54,-8.43 -15.58,31.72z"/>
   <path class="fil26" d="M6905.6 4461.51l26.2 -12.86c-3.91,-26.26 -4.82,-29.27 -22.15,-41.45 -15.39,-10.82 -29.62,-16.67 -55.04,-19.73 0,39.05 11.88,-0.62 54.04,41.48l-3.05 32.56z"/>
   <path class="fil27" d="M504.81 4108.28c22.86,-12.25 28.85,-12.66 33.66,-38.52 -31.47,12.92 -14.98,6.28 -22.44,18.37l-11.22 20.15z"/>
   <path class="fil28" d="M2740.01 4446.52c-14.91,-28.71 -6.15,-21 -35.87,-28.07l13.76 20.65 22.11 7.42z"/>
  </g>
 </g>
</svg>
