<?xml version="1.0" encoding="UTF-8"?>
<!DOCTYPE svg PUBLIC "-//W3C//DTD SVG 1.0//EN" "http://www.w3.org/TR/2001/REC-SVG-20010904/DTD/svg10.dtd">
<!-- Creator: CorelDRAW 2017 -->
<svg xmlns="http://www.w3.org/2000/svg" xml:space="preserve" width="56.8854mm" height="50.8mm" version="1.0" style="shape-rendering:geometricPrecision; text-rendering:geometricPrecision; image-rendering:optimizeQuality; fill-rule:evenodd; clip-rule:evenodd"
viewBox="0 0 5688.54 5080"
 xmlns:xlink="http://www.w3.org/1999/xlink">
 <defs>
  <style type="text/css">
   <![CDATA[
    .fil0 {fill:#3D439B}
    .fil1 {fill:#F8931F}
   ]]>
  </style>
 </defs>
 <g id="Capa_x0020_1">
  <metadata id="CorelCorpID_0Corel-Layer"/>
  <g id="_1808618837968">
   <g>
    <path class="fil0" d="M1756.56 2322.74c64.44,-125.3 99.29,-89.92 359.31,-90.97 137.42,-0.56 284.06,26 424.74,7.66 -1.85,-60.77 -42.94,-95.56 -29.23,-163.17 13.1,-64.63 66.07,-96.34 98.22,-142.17 -7.85,-61.36 -26.26,-103.25 0.27,-164.21 23.72,-54.52 59.2,-57.56 99.64,-104.86 0.73,-1.98 -45.82,-279.31 212.05,-252.04 128.81,13.62 230.62,145.26 360.27,144.64 134.57,-200.23 -32.56,-455.32 370.65,-543.95l37.88 31.56c5.29,135.2 -180.06,534.6 0.37,912.3 75.01,157 110.75,229.94 26.89,397.56 -220.67,441.11 -700.96,463.3 -1092.68,190.9 -113.28,-78.77 -530.41,-97.01 -688.42,-116.8 -114.86,-14.38 -143.68,-6.01 -179.96,-106.45zm1405.98 -1005.77c-123.14,-48.28 -185.44,-92.86 -356.23,-66.08 -103.16,16.17 -213.61,92.13 -254.75,178.84 -27.83,58.66 -28.31,131.75 -44.17,164.49 -20.38,42.07 -64.95,58.43 -83.96,141.06 -8.46,36.76 -2.74,56.88 -6.37,94.52 -5.69,58.99 -7.32,38.24 -36.09,85.65 -42.82,70.56 -33.65,93.74 -59.68,162.26 -275.13,0.82 -575.42,-62.66 -691.91,87.11 -58.64,75.41 -77.22,223.73 -11.46,311.81 96.21,128.87 434.72,132.94 662.69,161.54 193.77,24.31 159.37,7.86 304.43,98.07 193.16,120.12 393.84,171.68 651.55,142.93 279.7,-31.2 406.07,-123.2 539.37,-271.88 336.65,-375.47 80.58,-645.99 34.41,-902.03 -31.99,-177.42 -15.03,-207.16 12.47,-368.96 54.81,-322.53 169.13,-475.51 -271.94,-474.13 -206.25,0.64 -354.94,223.92 -388.36,454.8z"/>
    <path class="fil0" d="M4024.76 4485.18c124.47,-10.94 173.37,0.52 248.05,64.98l-5.51 136.47c-68.84,59.25 -122.82,97.18 -245.2,77.39l2.66 -278.84zm-3.11 -331.93c97.75,-27.29 172.21,-6.64 227.27,40.41 15.97,155.16 -72.37,212.91 -226.23,196.69l-1.04 -237.1zm265.49 277.21c32.93,-45.11 87.51,-65.14 96.22,-149.89 7.95,-77.37 -17.82,-137.96 -56.68,-177.29 -79.42,-80.4 -367.46,-61.26 -428.01,-38.81l1.73 793.86c163.26,9.49 369.57,18.94 459.75,-82.17 46,-51.58 66.37,-123.5 49.22,-204.3 -20.94,-98.6 -56.99,-94.62 -122.23,-141.4z"/>
    <path class="fil0" d="M946.28 4817.64c-0.45,-32.36 13.35,-355.47 -2.88,-369.27 -53.26,-31.14 -209.85,-16.26 -282,-7.51l0.62 83.23 173.21 6.97 -17.34 214.61c-251.75,41.36 -424.94,-66.78 -386.32,-344.77 45.75,-329.29 363.03,-236.1 474.94,-219.05l25.63 -80.15c-101.58,-96.93 -635.1,-124.72 -647.81,358.59 -4.11,156.22 68.24,287.87 204.2,357.47 120.57,61.72 332.19,55.52 457.75,-0.12z"/>
    <path class="fil0" d="M3462.18 4384.63c224.85,-117.45 256.74,273.58 118.35,359.05 -94.38,58.3 -187.84,-21.67 -203.74,-112.16 -21.27,-121.08 8.05,-206.49 85.39,-246.89zm-227.66 -106.51c12.25,260.05 2.63,533.64 11.41,801.88l126.16 -6.11 1.12 -270.17c95.45,42.44 167.78,101.17 293.12,26.65 181.25,-107.76 160.04,-446.01 9.91,-540.17 -77.26,-48.45 -231.84,-35.41 -289.78,37.28l-29.89 -49.97 -122.05 0.61z"/>
    <path class="fil0" d="M5088.77 4364.09c115.87,-31.6 167.48,50.46 173.25,155.56 5.97,109 -20.75,215.38 -113.02,240.72 -201.17,55.25 -254.56,-343.28 -60.23,-396.28zm-61.34 -92.24c-152.33,36.63 -219.06,221.48 -181.06,389.52 69.85,308.82 643.09,276.3 547.22,-191.24 -33.48,-163.26 -183.38,-242.24 -366.16,-198.28z"/>
    <path class="fil0" d="M1787.93 4636.25c78.25,-62.96 100.42,-66.21 218.25,-68.05 -12.86,89.31 -24.03,152.49 -91.97,183.79 -102.04,47.01 -136.62,-12.52 -126.28,-115.74zm-137.17 78.49c9.77,154.52 256.03,195.61 345.51,92.64l22.04 22.62c29.67,29.35 10.89,22.57 108.09,12.83 -25.14,-147.41 23.63,-356.37 -39.28,-487.27 -60.25,-125.35 -280.11,-110.62 -402.55,-39.3l24.92 87.15c116.51,-24.39 144.15,-85.59 276.85,-7.34l-10.52 88.49c-181.14,-12.56 -337.25,37.6 -325.06,230.18z"/>
    <path class="fil0" d="M2791.15 4638.47c59.36,-63.97 114.84,-69.14 216.49,-70.43 -6.87,82.95 -29.37,157.47 -90.75,185.07 -98.58,44.32 -140.21,-12.64 -125.74,-114.64zm-102.3 -322.68l23.89 85.59c105.41,-16.3 161.73,-94.49 267.76,-0.82l0.72 82.62c-180.72,-1.7 -341.44,34.15 -325.37,230.81 12.69,155.29 182.89,186.85 356.91,93.29 17.44,49.14 10.34,23.43 29.89,42.66l79.87 -1.59c1.93,-130.76 13.56,-393.43 -34.16,-493.39 -65.18,-136.53 -309.17,-100.52 -399.51,-39.17z"/>
    <path class="fil0" d="M1073.41 4370.65c-0.41,263.71 -39.98,406.48 118.83,475.32 98.96,42.9 203.2,5.22 250.66,-56.64l30.18 58.37 92.41 0.26c-3.73,-159.97 -20.82,-419.93 10.14,-565.17l-141.08 -2.9c0.94,99.45 7.61,259.27 -2.31,345.65 -18,156.56 -235.46,211 -235.7,-45.6l12.15 -303.37 -138.14 1.59 2.86 92.49z"/>
    <path class="fil0" d="M2472.82 4669.63c-35.19,169.34 -134.46,56.69 -237.38,59.82l-28.41 101c137.59,43.26 341.23,59.3 382.57,-91.91 59.36,-217.18 -170.03,-200.97 -235.69,-293.14 3.44,-139.87 116.59,-74.92 197.54,-57.98l33.88 -93.25c-136.19,-50.76 -341.23,-50.95 -361.2,108.78 -23.82,190.57 178.67,160.57 248.69,266.68z"/>
    <path class="fil0" d="M4511.09 4282.71c20.67,169.32 7.18,380.54 11.16,568.35l122.61 -1.69c6.97,-102.46 -5.54,-223.18 6.85,-318.81 15.44,-119.21 58.93,-147.89 173.79,-151.74l2.53 -111.72c-106.74,0.52 -142.61,-18.59 -172.94,79.12l-27.95 -69.39 -116.05 5.88z"/>
   </g>
   <g>
    <path class="fil1" d="M1469.11 3355.95c17.84,-85.15 77.69,-226.65 106.85,-316.04 67.58,-207.14 96.15,-209.13 26.12,-308.14 -112.26,-158.73 -190.53,-385.36 -228.5,-578.95 -118.61,-604.64 223.51,-1276.47 669.39,-1547.8 26.26,-15.98 38.19,-19.24 66.1,-37.24 402.33,-259.4 909.96,-287.46 1359.86,-106.49 778.29,313.06 1219.92,1267.56 794.63,2125.46 -48.32,97.47 -244.52,390.33 -350.24,457.17 -41.87,26.47 -77.74,60.36 -117.07,91.79 -300.22,239.94 -707.03,336.77 -1097.73,294.23 -237.33,-25.83 -419.77,-114.73 -603.08,-219.31 -82.26,-46.93 -148.68,-7.62 -315.02,47.58 -105.31,34.94 -206.6,69.64 -311.31,97.74zm-545.39 522.35c75.53,9.97 671.59,-191.86 782.89,-229.53 284.65,-96.36 245.52,-99.32 374.65,-35.14 121.35,60.31 257.19,100.8 393.35,131.32 483.99,108.5 1032.34,17.12 1451.96,-253.61 299.92,-193.5 445.37,-372.69 630.26,-670.87 62.28,-100.45 118.13,-231.77 153.28,-355.21 48.84,-171.48 57.53,-251.96 78.01,-441.36 33.38,-308.67 -41.03,-643.35 -146.23,-882.53 -70.6,-160.5 -180.98,-348.39 -288.27,-473.18 -51.42,-59.82 -78.71,-87.37 -130.06,-139.18 -88.89,-89.71 -113.65,-99.8 -204.78,-169.46 -22.65,-17.31 -50.01,-38.74 -78.07,-56.36 -841.05,-528.2 -1973.4,-352.58 -2556.74,420.21 -394.14,522.13 -553.1,1313.91 -208.21,2001.21 29.58,58.95 76.04,118.73 65.35,174.14 -26.8,138.9 -314.21,867.72 -317.39,979.55z"/>
    <path class="fil1" d="M3244.15 2023.78c-43.32,95.69 -121.41,183.21 -231.39,220.27 -28.62,-26.11 -52.15,-58.58 -71.87,-85.12 -84.18,1.37 -187.06,54.38 -237.66,104.02 -2.72,93.78 0.24,127.38 64.35,170.96 283.31,192.55 901.25,-391.77 685.58,-671.75 -52.64,-68.33 -101.08,-54.91 -191.08,-42.04 -96.76,162.88 -81.41,214.99 -17.93,303.66z"/>
   </g>
  </g>
 </g>
</svg>
