<?xml version="1.0" encoding="UTF-8"?>
<!DOCTYPE svg PUBLIC "-//W3C//DTD SVG 1.1//EN" "http://www.w3.org/Graphics/SVG/1.1/DTD/svg11.dtd">
<!-- Creator: CorelDRAW 2017 -->
<svg xmlns="http://www.w3.org/2000/svg" xml:space="preserve" width="32.8082mm" height="32.8082mm" version="1.1" style="shape-rendering:geometricPrecision; text-rendering:geometricPrecision; image-rendering:optimizeQuality; fill-rule:evenodd; clip-rule:evenodd"
viewBox="0 0 3280.82 3280.82"
 xmlns:xlink="http://www.w3.org/1999/xlink">
 <defs>
  <style type="text/css">
   <![CDATA[
    .fil2 {fill:#4E9695}
    .fil0 {fill:#CCE5C5}
    .fil1 {fill:#EEFDDE}
    .fil3 {fill:#F3FFF3}
   ]]>
  </style>
 </defs>
 <g id="Capa_x0020_1">
  <metadata id="CorelCorpID_0Corel-Layer"/>
  <circle class="fil0" cx="1640.41" cy="1640.41" r="1638.38"/>
  <circle class="fil1" cx="1640.41" cy="1640.41" r="1543.26"/>
  <circle class="fil2" cx="1640.41" cy="1640.41" r="1358.05"/>
  <circle class="fil3" cx="1640.41" cy="1640.41" r="1278.67"/>
  <path class="fil2" d="M948.42 1992.11c18.97,-22.63 275.99,-172.46 323.77,-199.42 44.39,-25.06 125.79,25.23 196.66,24.67 174.72,-1.37 323.26,-129.16 355.14,-288.37 11.41,-57.03 -7.26,-59.7 39.15,-88.02l325.53 -187c30.18,-28.32 360.84,-223.47 406.65,-243.46l-422.86 1574.71 -271.27 -455.89c-66.65,8.92 -379.36,245.11 -805.26,26.87 -37.62,-19.28 -74.72,-43.42 -103.35,-63.78 -69.99,-49.78 -48.14,-43.79 -89.76,-78.84l45.6 -21.47zm1242.34 685.83c30.16,-34.53 374.22,-1359.57 434.72,-1585.67 59.02,-220.62 88.6,-210.49 -278.45,6.29l-531.69 313.88c-77.12,53.08 11.51,158.93 -159.46,292.7 -90.47,70.78 -200.67,80.71 -320.59,33.91 -63.72,-24.87 -83.18,10.06 -135.41,40.45 -77.44,45.06 -336.88,186.2 -363.03,230.09 73.21,124.87 298.76,234.49 452.05,268.17 295.83,65 414.83,-29.93 594.21,-85.03 17.88,52.25 168.24,292.11 216.45,375.14 25.25,43.47 45.12,97.3 91.2,110.07zm-201.09 -1767.28c-33.92,27.18 -119.79,73.89 -163.72,99.6 -55.84,32.66 -106.57,65.49 -160.76,95.8 -41.77,23.36 -38.92,11.22 -84.79,-4.03 -162.32,-53.99 -353.53,17.06 -435.4,171.15 -65.29,122.87 -16.63,147.07 -71.39,183.77l-327.72 187.44 -43.8 27.77c-71.64,-150.64 -21.73,-423.5 45.13,-560.95 75.84,-155.93 175.35,-263.46 312.48,-345.72 145.57,-87.33 341.67,-132.18 535.9,-100.42 131.6,21.53 360,118.53 433.11,226.69l-39.04 18.9zm-1322.79 826.87c76.89,-6.31 385.64,-221.2 479.54,-263.96 13.04,-220.39 155.65,-362.66 360.99,-337.09 174.21,21.69 31.8,97.3 298.03,-57.51 61.35,-35.68 121.35,-71.4 179.73,-105.72 82.83,-48.72 153.37,-56.31 70.63,-130.61 -238.64,-214.34 -542.68,-300.23 -857.15,-194.71 -271.19,91 -475.32,307.61 -550.2,590.88 -49.09,185.75 -30.23,331.18 18.43,498.72zm928.52 -360.92c31.03,27.04 30.73,82.78 15.75,126.44 -11.57,33.7 -37.51,61.39 -66.88,80.76 -74.45,49.1 -179.87,8.36 -202.31,-48.66 -69.46,-70.23 -13.31,-179.18 44.73,-216.84 79.75,-51.74 189.18,-6.73 208.71,58.3zm-193.2 -117.14c-251.82,87.93 -130.99,462.3 124.2,386.05 255.83,-76.43 137.45,-477.4 -124.2,-386.05zm591.85 577.19c129.57,44.66 96.48,53.48 228.32,-0.03l-110.03 208.58c-0.65,-1.53 -3.01,3.83 -7.63,7.02l-110.66 -215.57zm-44.47 28.86c29.51,46.83 48.11,92.49 73.83,139.82 13.34,24.55 24.71,44.23 38.13,69.45 66.49,124.96 67.38,44.01 154.35,-114.57 117.82,-214.84 73.31,-189.72 73.28,-189.66l-28.8 -2.29c-105.74,17.02 -92.98,94.54 -250,18.29 -33.52,-10.77 -42.92,-21.39 -69.34,-18.79 -53.63,5.28 -7.33,64.83 8.55,97.75zm623.18 -1079.08c-55.41,-6.39 -146.46,66.57 -196.23,95.92 -51.42,30.33 -192.73,96.48 -176.19,131.12 18.08,37.86 134.03,-49.56 192.87,-84.04 95.54,-56 175.21,-82.1 179.55,-143zm-1640.02 980.11l40.16 5.22c0.75,-0.19 38.65,-21.43 39.43,-21.91 71.89,-44.34 183.81,-90.06 178.18,-140.23 -46.15,-11.84 -153.68,67.12 -215.7,102.69 -29.72,17.04 -46.61,20.96 -42.07,54.23zm805.36 -484.28c39.2,32.22 90.14,-17.43 137.05,-45.36 25.96,-15.46 48.02,-28.33 74.69,-43.46 38.46,-21.82 55.84,-22.79 45.39,-64.2 -42.27,-9.04 -247.8,112.49 -257.13,153.02z"/>
 </g>
</svg>
