<?xml version="1.0" encoding="UTF-8"?>
<!DOCTYPE svg PUBLIC "-//W3C//DTD SVG 1.1//EN" "http://www.w3.org/Graphics/SVG/1.1/DTD/svg11.dtd">
<!-- Creator: CorelDRAW 2017 -->
<svg xmlns="http://www.w3.org/2000/svg" xml:space="preserve" width="25.929mm" height="25.929mm" version="1.1" style="shape-rendering:geometricPrecision; text-rendering:geometricPrecision; image-rendering:optimizeQuality; fill-rule:evenodd; clip-rule:evenodd"
viewBox="0 0 2592.9 2592.9"
 xmlns:xlink="http://www.w3.org/1999/xlink">
 <defs>
  <style type="text/css">
   <![CDATA[
    .str0 {stroke:#95AAAB;stroke-width:7.62;stroke-miterlimit:22.9256}
    .fil0 {fill:#95AAAB}
    .fil1 {fill:#95AAAB}
    .fil3 {fill:#FC5555}
    .fil2 {fill:white}
   ]]>
  </style>
 </defs>
 <g id="Capa_x0020_1">
  <metadata id="CorelCorpID_0Corel-Layer"/>
  <g id="_1821500492816">
   <path class="fil0" d="M97.68 1561.09l806.05 -2.15c44.2,51.71 55.71,101.61 157.99,169.52 223.51,148.42 514.65,75.39 655.49,-172.67l785.19 -4.01c-32.58,219.02 -184.7,459.38 -336.81,611.5 -82.08,82.07 -121.9,116.09 -223.25,178.27 -480.88,295.07 -1105.81,227.66 -1500.01,-167.93 -92.61,-92.93 -99.04,-89.43 -185.55,-223.67 -47.39,-73.53 -151.89,-282.69 -159.1,-388.86zm1153.93 -557.02c207.45,-33.07 378.54,113.53 403.06,282.95 29.55,204.16 -111.21,378.32 -280.33,403.3 -209.79,30.98 -377.91,-108.14 -406.02,-277.14 -35.03,-210.62 109.77,-381.46 283.29,-409.11zm-1173.74 139.81c9.4,-150.67 71.53,-305.8 134.84,-425.33 136.93,-258.54 327.63,-420.34 579.4,-542.8 192.27,-93.52 346.48,-107.76 558.64,-107.76 365.36,0 708.51,212.01 923.74,477.81 95.51,117.94 255.07,448.01 239.81,586.86l-799.88 3.65c-56.72,-120.1 -203.99,-243.96 -393.97,-243.96 -169.86,0 -255.46,59.11 -353.14,156.07 -27.62,27.41 -42.19,64.43 -66.83,91.54l-822.61 3.92zm-83.33 143.95c0,554.61 311.93,972.04 759.43,1188.87 490.33,237.59 1099.18,109.81 1477.39,-278.39 1.13,-1.16 2.73,-2.74 3.83,-3.91l7.3 -8.03c97.54,-111.12 170.53,-198.56 235.15,-347.38 86.88,-200.1 143.8,-453.18 111.61,-689.42 -89.29,-655.37 -601.35,-1143.41 -1283.96,-1153.01 -717.81,-10.09 -1310.75,580.9 -1310.75,1291.27z"/>
   <path class="fil1 str0" d="M1270.42 1157.93c117.55,-28.4 217.54,58.78 237.45,147.06 28.11,124.65 -55.34,227.55 -150.64,247.43 -262.65,54.78 -355.46,-329.61 -86.81,-394.49zm278.36 251.13c35.55,-145.44 -68.99,-263.66 -179.4,-291.09 -148.11,-36.8 -270.22,67.13 -295.96,180.54 -71.62,315.58 398.66,424.36 475.36,110.55z"/>
   <path class="fil2" d="M97.68 1561.09c7.21,106.17 111.71,315.33 159.1,388.86 86.51,134.24 92.94,130.74 185.55,223.67 394.2,395.59 1019.13,463 1500.01,167.93 101.35,-62.18 141.17,-96.2 223.25,-178.27 152.11,-152.12 304.23,-392.48 336.81,-611.5l-785.19 4.01c-140.84,248.06 -431.98,321.09 -655.49,172.67 -102.28,-67.91 -113.79,-117.81 -157.99,-169.52l-806.05 2.15z"/>
   <path class="fil1 str0" d="M1270.42 1157.93c-268.65,64.88 -175.84,449.27 86.81,394.49 95.3,-19.88 178.75,-122.78 150.64,-247.43 -19.91,-88.28 -119.9,-175.46 -237.45,-147.06z"/>
   <path class="fil3" d="M77.87 1143.88l822.61 -3.92c24.64,-27.11 39.21,-64.13 66.83,-91.54 97.68,-96.96 183.28,-156.07 353.14,-156.07 189.98,0 337.25,123.86 393.97,243.96l799.88 -3.65c15.26,-138.85 -144.3,-468.92 -239.81,-586.86 -215.23,-265.8 -558.38,-477.81 -923.74,-477.81 -212.16,0 -366.37,14.24 -558.64,107.76 -251.77,122.46 -442.47,284.26 -579.4,542.8 -63.31,119.53 -125.44,274.66 -134.84,425.33z"/>
  </g>
 </g>
</svg>
