<!-- Generated by IcoMoon.io -->
<svg version="1.1" xmlns="http://www.w3.org/2000/svg" width="32" height="32" viewBox="0 0 32 32">
<title>alertas</title>
<path d="M19.977 24.215c0.867 0 1.161 1.030 0.707 1.591-0.241 0.298-0.529 0.325-0.854 0.325-1.066 0-1.228-1.917 0.147-1.917zM8.7 9.694c0-0.421 2.335-1.184 2.769-1.358 1.018-0.407 1.931-0.772 2.949-1.179l2.211-0.885c0.946-0.393 0.733-0.277 1.969 2.812 0.338 0.844 4.697 11.353 4.697 11.963 0 0.314-1.629 0.858-1.959 0.99l-4.317 1.727c-2.702 1.080-2.168 1.344-3.064-0.895l-3.759-9.361c-0.263-0.656-0.506-1.259-0.758-1.896-0.121-0.305-0.737-1.665-0.737-1.916zM6.046 8.736c0 0.432 0.775 2.197 0.958 2.653l6.339 15.774c0.393 0.981 0.625 1.916 1.917 1.916 0.405 0 1.202-0.379 1.548-0.516 0.511-0.203 0.973-0.404 1.516-0.621l6.002-2.401c2.401-0.961 2.716-1.261 1.854-3.402-0.181-0.448-0.355-0.847-0.538-1.305-0.789-1.972-6.478-16.403-6.885-16.998-0.268-0.392-0.784-0.629-1.361-0.629-0.375 0-1.191 0.388-1.537 0.526-0.499 0.199-0.99 0.396-1.527 0.61-1.034 0.414-1.972 0.789-3.001 1.2s-1.967 0.802-2.991 1.211c-0.422 0.169-1.115 0.399-1.511 0.627-0.382 0.219-0.785 0.803-0.785 1.353z"></path>
<path d="M14.154 15.443c0.242 1.037 0.277 0.206 0.448 2.279 0.245 2.951 0.517 2.175 4.596 0.48 1.751-0.728 0.701-1.266-0.010-2.117-0.528-0.632-0.661-0.672-1.073-1.138-0.258-0.291-0.318-0.64-0.497-0.978-0.282 0.066-0.564 0.22-0.842 0.337-0.33 0.138-0.558 0.232-0.879 0.375-0.589 0.262-1.21 0.48-1.744 0.762z"></path>
<path d="M1.476 9.031c0 0.427-0.125 1.474 0.59 1.474 1.12 0-0.266-2.119 1.79-4.549 1.924-2.274 4.184-1.275 3.93-2.425-0.192-0.869-1.742-0.25-2.284-0.057-1.011 0.359-2.059 1.174-2.701 2.017-0.717 0.941-1.325 2.207-1.325 3.54z"></path>
<path d="M29.707 21.561c0 0.631 0.147 0.976 0.147 1.549 0 2.351-1.509 4.242-3.474 4.928-0.368 0.129-0.761 0.137-0.896 0.514-0.124 0.347 0.202 0.749 0.537 0.749 0.394 0 1.615-0.565 1.903-0.751 1.587-1.023 3.036-2.936 3.036-5.072v-0.671c-0.015-0.726-0.117-1.614-0.664-1.614-0.242 0-0.589 0.224-0.589 0.368z"></path>
<path d="M3.687 9.178c0 0.384-0.095 1.18 0.516 1.18 1.297 0-0.394-2.408 2.48-3.787 0.541-0.259 1.427-0.125 1.427-0.784 0-1.602-4.423 0.251-4.423 3.391z"></path>
<path d="M27.643 23.11c0 0.79-0.4 1.636-0.905 2.191-0.232 0.255-0.622 0.456-0.936 0.612-0.414 0.203-0.96 0.236-0.96 0.735 0 1.613 3.907-0.465 3.907-3.316 0-2.576-1.167-1.604-1.218-1.164-0.025 0.211 0.112 0.614 0.112 0.943z"></path>
<path d="M14.301 13.085c0 0.431 0.187 0.066-0.017 0.424-0.333 0.588-0.352 0.332-0.352 1.419 0.821-0.435 2.686-1.102 3.39-1.475-0.332-0.496-0.632-0.618-1.118-0.724-0.623-0.135-0.203-0.381-0.872-0.381-0.464 0-1.032 0.334-1.032 0.737z"></path>
<path d="M17.029 19.35c0.775 0.18 1.085 0.212 1.548-0.663-0.218 0.018-1.313 0.459-1.548 0.663z"></path>
</svg>
