<!-- Generated by IcoMoon.io -->
<svg version="1.1" xmlns="http://www.w3.org/2000/svg" width="32" height="32" viewBox="0 0 32 32">
<title>arte-starbucks-logo-minions-despicable-coffee-redesing-luisangelmaciel</title>
<path fill="#fff" d="M15.766 22.358c0.116-0.096 0.161-0.136 0.268-0.242 0.219-0.218 0.092-0.025 0.202-0.308-1.318 0.34 0.019 2.058 0.669 0.674-0.363 0.081-0.206 0.061-0.628 0.466l-0.511-0.59z"></path>
<path fill="#fff" d="M13.554 20.899c0.351-0.096 0.127-0.127 0.509-0.129-0.027-0.236-0.002-0.079 0.018-0.249 0.017-0.142 0.068-0.358-0.113 0.001-0.088-0.298 0.002-0.167-0.254-0.297l-0.286 0.226c-0.007 0.287-0.018 0.26 0.125 0.448z"></path>
<path fill="#fff" d="M16.91 22.39c-0.060-0.175-0.145-0.541-0.404-0.535-0.267 0.005-0.007-0.030-0.178 0.092 0.412 0.298 0.153 0.278 0.581 0.443z"></path>
<path fill="#fff" d="M16.353 22.584c0.005-0.011 0.008-0.032 0.009-0.037s0.005-0.028 0.005-0.033c0.045-0.365 0.27 0.111-0.014-0.293-0.38 0.037-0.363 0.293 0 0.362z"></path>
<path fill="#e1dfdf" d="M17.673 14.094c0.298-0.178 0.181-0.125-0.011-0.226-0.104 0.207-0.077 0.068 0.011 0.226z"></path>
<path fill="#e1dfdf" d="M14.447 14.092c0.058-0.075 0.229 0.024 0-0.211-0.215 0.243-0.061 0.152 0 0.211z"></path>
<path fill="#fff" d="M18.989 20.542l-0.044 0.364c-0.008 0.005-0.064 0.234-0.342 0.023-0.151-0.114-0.1-0.123-0.123-0.303-0.267 0.064-0.061-0.062-0.186 0.113l0.091 0.468c0.517-0.042 0.305-0.116 0.586-0.131l0.194-0.002c0.013-0.006 0.035-0.030 0.045-0.036l0.094-0.113c-0.051 0.32-0.124 0.507-0.054 0.813 0.117-0.137 0.092-0.543 0.145-0.773 0.258-0.166 0.599-0.273 0.833-0.439 0.408-0.287 0.411-0.243 0.658-0.661l-0.137-0.070c-0.019 0.017-0.042 0.037-0.057 0.051l-0.148 0.132c-0.603 0.527-0.364 0.267-0.89 0.558l-0.535 0.312c-0.007-0.044-0.034-0.139-0.052-0.182-0.006-0.016-0.032-0.026-0.037-0.062-0.006-0.038-0.029-0.041-0.044-0.062z"></path>
<path fill="#fff" d="M12.723 19.626l-0.826-0.586c-0.237-0.18-0.006-0.090-0.307-0.224l-0.041 0.171c0.018 0.025 0.060 0.101 0.101 0.146l0.515 0.393c0.367 0.226 0.29 0.258 0.74 0.414l-0.155-0.278c-0.005-0.023-0.019-0.023-0.029-0.034z"></path>
<path fill="#fff" d="M11.645 19.924l0.97 0.694 0.176-0.167-0.338-0.196c-0.013-0.009-0.030-0.021-0.044-0.030l-0.186-0.128c-0.196-0.124-0.304-0.208-0.577-0.174z"></path>
<path fill="#fff" d="M13.554 20.899c-0.061 0.246-0.075 0.409 0.014 0.616 0.167-0.206 0.109-0.069 0.066-0.553 0.141 0.068 0.187 0.089 0.363 0.056l0.066-0.248c-0.382 0.002-0.158 0.033-0.509 0.129z"></path>
<path fill="#fff" d="M15.060 21.478c0.014-0.010 0.036-0.018 0.045-0.022 0.172-0.082 0.122 0.112 0.191-0.095 0.007-0.023 0.033-0.019 0.048-0.030-0.339-0.156-0.268-0.091-0.383-0.096-0.085 0.277-0.125 0.487 0 0.735 0.137-0.249 0.079-0.185 0.1-0.492z"></path>
<path fill="#fefefe" d="M13.881 14.367c-0.234-0.947 1.195-1.105 1.305-0.283 0.117 0.883-1.124 1.018-1.305 0.283zM13.703 12.432c-2.078 0.704-1.107 3.915 1.058 3.199 2.077-0.687 1.078-3.922-1.058-3.199zM17.475 13.633c0.922-0.482 1.332 0.892 0.568 1.182-0.749 0.284-1.357-0.769-0.568-1.182zM17.696 12.302c-2.2 0.606-1.258 3.845 0.874 3.253 0.764-0.211 1.461-1.034 1.178-2.094-0.201-0.757-1.049-1.435-2.052-1.159zM11.537 13.707c0.222 0.115 0.16-0.064 0.448 0.125 0.096-0.985 0.75-1.717 1.577-1.961 1.114-0.328 1.888 0.143 2.571 0.897l0.221-0.234c0.659-0.776 1.455-0.982 2.509-0.778 1.032 0.2 1.46 1.368 1.527 2.302 0.101-0.136 0.086-0.238 0.112-0.464 0.412-0.134 0.279 0.068 0.401-0.18-0.032-2.592-2.203-4.809-4.843-4.703-2.599 0.104-4.587 2.282-4.522 4.996zM14.54 18.384c0.877-0.96 2.194-0.995 3.256-0.143-0.614-0.136-0.819-0.477-1.739-0.424-0.749 0.044-1.022 0.345-1.516 0.567zM11.59 18.815c0.302 0.133 0.070 0.045 0.307 0.224l0.826 0.586c0.117 0.054 0.163 0.088 0.279 0.151l0.271 0.128c0.080-0.147 0.022-0.191 0.147-0.336 1.828 0.986 4.043 1.008 5.865-0.009l0.067 0.105c0.229 0.335-0.068 0.085 0.153 0.187 1.57-0.993 1.357-0.759 1.356-1.893-0.001-1.087 0.017-2.186-0.011-3.3l-0.431 0.131c0.013-0.234 0.053-0.409-0.035-0.564-0.246 0.574-0.4 1.527-1.646 1.873-1.268 0.353-1.994-0.364-2.532-0.921-0.413 0.384-0.288 0.498-0.916 0.838-0.414 0.224-0.956 0.323-1.464 0.233-1.437-0.255-1.638-1.357-1.817-1.675l-0.043 0.309-0.47-0.015c-0.005 0.668-0.137 3.596 0.094 3.947z"></path>
<path fill="#fff" d="M18.481 20.626c0.023 0.18-0.029 0.189 0.123 0.303 0.278 0.211 0.334-0.018 0.342-0.023l0.044-0.364c-0.157-0.129-0.12-0.134-0.467-0.090l-0.042 0.174z"></path>
<path fill="#1d1919" d="M16.353 22.584c-0.363-0.069-0.38-0.325 0-0.362 0.283 0.404 0.058-0.072 0.014 0.293-0.001 0.005-0.005 0.029-0.005 0.033s-0.004 0.025-0.009 0.037zM16.91 22.39c-0.428-0.165-0.169-0.145-0.581-0.443 0.171-0.123-0.089-0.087 0.178-0.092 0.259-0.006 0.344 0.36 0.404 0.535zM15.766 22.358l0.511 0.59c0.421-0.405 0.265-0.384 0.628-0.466-0.649 1.384-1.987-0.334-0.669-0.674-0.111 0.283 0.017 0.090-0.202 0.308-0.107 0.106-0.152 0.146-0.268 0.242zM15.060 21.478c-0.021 0.308 0.037 0.243-0.1 0.492-0.125-0.248-0.085-0.458 0-0.735 0.115 0.005 0.044-0.061 0.383 0.096-0.015 0.011-0.040 0.007-0.048 0.030-0.069 0.206-0.018 0.013-0.191 0.095-0.009 0.004-0.031 0.012-0.045 0.022zM14.062 20.77l-0.066 0.248c-0.176 0.033-0.222 0.011-0.363-0.056 0.043 0.483 0.101 0.347-0.066 0.553-0.089-0.206-0.075-0.369-0.014-0.616-0.143-0.188-0.133-0.161-0.125-0.448l0.286-0.226c0.256 0.13 0.166-0.002 0.254 0.297 0.181-0.358 0.129-0.143 0.113-0.001-0.020 0.17-0.046 0.013-0.018 0.249zM12.723 19.626c0.010 0.011 0.024 0.011 0.029 0.034l0.155 0.278c-0.45-0.156-0.373-0.188-0.74-0.414l-0.515-0.393c-0.041-0.045-0.083-0.121-0.101-0.146l0.041-0.171c-0.231-0.35-0.099-3.279-0.094-3.946l0.469 0.015 0.044-0.309c0.178 0.318 0.38 1.419 1.817 1.675 0.508 0.090 1.050-0.009 1.464-0.233 0.628-0.34 0.503-0.454 0.916-0.838 0.539 0.557 1.264 1.274 2.533 0.92 1.244-0.346 1.4-1.298 1.646-1.873 0.087 0.155 0.047 0.329 0.034 0.563l0.431-0.131c0.029 1.115 0.011 2.213 0.012 3.3 0.001 1.133 0.215 0.9-1.357 1.893-0.221-0.102 0.076 0.147-0.152-0.188l-0.068-0.106c-1.822 1.018-4.037 0.995-5.865 0.010-0.125 0.145-0.067 0.188-0.147 0.336l-0.273-0.128c-0.115-0.062-0.162-0.095-0.278-0.15zM13.704 12.432c2.136-0.723 3.134 2.512 1.057 3.2-2.165 0.716-3.137-2.496-1.057-3.2zM17.696 12.302c1.004-0.277 1.851 0.402 2.052 1.159 0.283 1.061-0.413 1.882-1.177 2.094-2.133 0.592-3.075-2.647-0.875-3.253zM11.537 13.707c-0.065-2.714 1.922-4.892 4.522-4.997 2.641-0.105 4.811 2.112 4.843 4.703-0.122 0.249 0.011 0.046-0.401 0.18-0.026 0.227-0.010 0.329-0.112 0.465-0.066-0.934-0.495-2.102-1.527-2.302-1.054-0.204-1.849 0.002-2.508 0.777l-0.221 0.234c-0.683-0.754-1.457-1.224-2.571-0.896-0.828 0.243-1.481 0.976-1.578 1.961-0.289-0.188-0.226-0.010-0.447-0.125zM11.645 19.924c0.274-0.034 0.381 0.049 0.577 0.174l0.186 0.128c0.013 0.009 0.031 0.021 0.044 0.030l0.338 0.196-0.176 0.167 0.763 0.306 0.139 2.889c1.728 0.689 4.027 0.412 5.677-0.229 0.060-0.381 0.115-1.486 0.059-1.846-0.070-0.306 0.003-0.494 0.054-0.813l-0.094 0.113c-0.010 0.006-0.033 0.030-0.045 0.036l-0.194 0.002c-0.282 0.014-0.069 0.088-0.586 0.131l-0.091-0.468c0.125-0.175-0.082-0.049 0.186-0.113l0.042-0.174c0.346-0.044 0.309-0.039 0.467 0.090 0.014 0.021 0.038 0.024 0.044 0.062 0.005 0.036 0.030 0.046 0.037 0.062 0.017 0.042 0.045 0.138 0.052 0.182l0.535-0.312c0.526-0.29 0.287-0.031 0.89-0.558l0.148-0.132c0.015-0.014 0.038-0.034 0.057-0.051l0.137 0.070c0.274 0.216 0.497 1.744 0.613 2.043 0.006 0.014 0.023 0.066 0.027 0.055s0.018 0.038 0.029 0.055c0.962-0.647 2.052-2.627 2.395-3.943 1.296-4.964-2.325-10.274-7.967-10.229-5.662 0.045-9.196 5.526-7.771 10.405 0.347 1.187 1.606 3.487 2.42 3.787 0.297-0.499 0.635-1.768 1.010-2.114z"></path>
<path fill="#1d1919" d="M17.662 13.868c0.192 0.101 0.309 0.048 0.011 0.226-0.088-0.158-0.115-0.019-0.011-0.226zM17.475 13.633c-0.79 0.413-0.181 1.466 0.568 1.182 0.764-0.29 0.355-1.664-0.568-1.182z"></path>
<path fill="#1d1919" d="M14.447 13.882c0.229 0.235 0.058 0.136 0 0.211-0.061-0.059-0.215 0.032 0-0.211zM13.881 14.367c0.181 0.735 1.424 0.599 1.306-0.282-0.111-0.823-1.539-0.664-1.306 0.282z"></path>
<path fill="#201e1e" d="M14.54 18.385c0.494-0.222 0.767-0.523 1.517-0.567 0.92-0.054 1.125 0.287 1.739 0.423-1.062-0.852-2.379-0.817-3.256 0.144z"></path>
<path fill="#15603e" d="M10.172 24.154c1.062-0.294 2.049 0.471 2.265 1.242 0.677 2.41-2.859 3.228-3.531 1.035-0.36-1.173 0.417-2.043 1.265-2.278zM18.559 25.337l0.091 0.795-1.432 0.258 0.025 0.555 1.307-0.128 0.095 0.758-1.317 0.18 0.057 1.206-1.073 0.035c-0.062-0.676-0.261-2.837-0.173-3.374l2.418-0.285zM13.263 25.18l2.409 0.434c0 0.291-0.019 0.585-0.127 0.816l-1.39-0.197c-0.115 0.215-0.147 0.363-0.15 0.655l1.214 0.238-0.076 0.73-1.366-0.18-0.287 1.090-1.027-0.258 0.802-3.327zM19.012 25.217c0.129-0.124 2.070-1.056 2.234-1.082l0.226 0.584-1.243 0.645c0.046 0.241 0.070 0.331 0.235 0.511l1.094-0.457c0.158 0.184 0.212 0.322 0.255 0.616l-1.108 0.478 0.274 0.604 1.385-0.604c0.148 0.193 0.26 0.426 0.291 0.673l-2.417 1.080c-0.142-0.167-1.127-2.693-1.226-3.047zM8.154 25.682c-1.585 0.062-2.486-1.747-1.494-2.973 0.722-0.892 2.611-0.895 3.21 0.895-0.151 0.176-0.411 0.275-0.629 0.344-0.185-0.327-0.294-0.662-0.71-0.813-1.027-0.372-2.069 1.318-0.425 1.892 0.077 0.027 0.093 0.032 0.168 0.063l-0.12 0.593zM21.585 23.897c0.177-0.222 0.687-0.613 0.921-0.811 0.314-0.265 0.602-0.662 0.957-0.797 0.13 0.198 0.235 0.242 0.345 0.495-0.236 0.189-0.865 0.719-1.010 0.966 0.11 0.191 0.153 0.271 0.372 0.395 0.299-0.196 0.647-0.615 0.972-0.735l0.377 0.51-0.923 0.802 0.38 0.452c0.451-0.14 0.827-0.798 1.258-0.923l0.4 0.525-2.025 1.74c-0.203-0.139-1.901-2.346-2.026-2.62zM26.815 18.566l0.389 0.925 0.968 0.005c-0.155 0.263-0.475 0.417-0.729 0.67l0.25 0.976-0.93-0.5c-0.278 0.147-0.641 0.358-0.865 0.499l0.235-0.983c-0.222-0.233-0.559-0.39-0.706-0.663l0.967-0.005 0.421-0.925zM5.333 18.602c0.070 0.067 0.048 0.038 0.115 0.139l0.058 0.099c0.105 0.199 0.123 0.405 0.291 0.648l0.972 0.039-0.759 0.635 0.235 0.973-0.895-0.507-0.879 0.494 0.249-0.973-0.743-0.645 0.997-0.022 0.359-0.878zM14.909 7.387c5.086-0.732 9.095 3.174 9.653 7.423 0.665 5.072-3.073 9.145-7.404 9.667-5.168 0.624-9.063-3.016-9.684-7.395-0.377-2.658 0.623-5.184 1.888-6.628 1.276-1.456 2.845-2.677 5.547-3.067zM2.886 15.877c-0.032-0.486 0.25-1.931 0.436-2.297 0.309-0.609 0.881-1.037 1.81-0.887 1.964 0.316 1.407 2.493 1.208 3.726l-3.454-0.542zM25.439 13.707c0.298-0.144 2.957-0.444 3.47-0.468l0.314 2.668c-0.198 0.125-0.4 0.183-0.824 0.145l-0.194-1.624-0.471 0.043 0.116 1.338-0.812 0.063-0.153-1.286-0.483 0.041 0.179 1.701-0.831 0.079-0.312-2.7zM24.296 11.068c0.365-0.219 2.882-1.41 3.197-1.467l0.4 0.996c-0.438 0.18-2.098 0.926-2.321 1.13 0.117 0.458 0.403 0.773 0.494 1.264l-0.789 0.302-0.982-2.226zM3.97 10.995c0.061-0.215 1.153-2.262 1.317-2.413l0.65 0.36c-0.021 0.381-0.568 1.108-0.714 1.531l0.353 0.182c0.182-0.171 0.523-0.858 0.665-1.109 0.254 0.090 0.555 0.243 0.738 0.428l-0.589 1.166 0.452 0.179c0.134-0.401 0.511-1.162 0.79-1.425l0.679 0.343c-0.084 0.372-0.999 1.983-1.268 2.436-0.301-0.042-2.807-1.471-3.073-1.677zM22.073 8.503c0.096-0.21 2.224-2.249 2.491-2.44 0.002 0.001 2.393 1.821 1.576 2.77-0.335 0.389-0.525 0.313-1.045 0.187 0.16 0.521 0.211 0.886-0.206 1.201-0.957 0.722-2.035-0.874-2.816-1.719zM9.151 8.075c-0.519-0.105-0.957 0.399-1.472 0.468-0.612 0.082-1.046-0.312-1.146-0.787-0.204-0.964 1.053-1.947 1.834-2.053l0.409 0.746c-0.454 0.263-1.258 0.44-1.206 1.014 0.518 0.057 0.951-0.453 1.538-0.499 0.593-0.046 1.008 0.384 1.069 0.891 0.113 0.935-1.113 1.969-1.911 2.077l-0.436-0.782c0.561-0.131 1.341-0.585 1.321-1.074zM9.508 4.6c0.808-0.277 2.173-1.272 3-0.389 0.301 0.321 0.542 1.004 0.199 1.527-0.348 0.532-0.703 0.512-1.168 0.866l0.318 0.877-0.929 0.405c-0.144-0.138-1.364-2.938-1.421-3.285zM19.505 7.091c-0.261-0.12-0.785-0.452-1.025-0.471-0.267-0.021-2.618 0.463-2.827-1.43-0.111-1.003 0.306-1.719 0.919-2.038 0.858-0.448 1.599-0.125 2.358 0.136-0.066 0.283-0.278 0.702-0.417 0.916-0.316-0.403-1.592-0.597-1.755 0.441-0.077 0.49 0.105 0.858 0.405 1.005 0.441 0.215 0.802 0.048 1.169 0.028 0.013-0.001 0.048 0.022 0.057 0.003s0.038 0.001 0.074 0.002l0.108 0.838c0.415-0.129 1.904-1.967 2.626-2.556l1.235 0.588-0.334 2.903c-0.031 0.24-0.055 0.632-0.174 0.842l-0.914-0.424 0.067-0.692c-0.253-0.242-0.724-0.436-1.057-0.554-0.267 0.172-0.296 0.304-0.513 0.463zM14.555 3.033l0.521 3.509-1.069 0.147-0.496-3.327c0.006-0.171 0.012-0.117 0.029-0.195l1.016-0.135zM30.003 17.373c0.881-8.037-5.346-14.647-12.55-15.332-8.173-0.777-14.678 5.31-15.355 12.543-0.769 8.227 5.303 14.644 12.559 15.358 7.71 0.758 14.488-4.753 15.345-12.569z"></path>
<path fill="#15603e" d="M14.871 1.573c4.2-0.435 7.808 1.127 10.766 3.583 2.641 2.193 4.525 5.895 4.835 9.576 0.71 8.46-5.629 14.999-13.162 15.679-8.415 0.76-15.019-5.672-15.683-13.182-0.408-4.627 1.464-8.441 3.59-10.847 2.076-2.349 5.202-4.347 9.655-4.809zM1.105 16.933c0.402 4.679 2.416 7.971 4.826 10.13 10.225 9.16 25.882 1.115 25.025-11.964-0.522-7.966-7.259-14.547-15.852-14.002-5.858 0.371-10.92 4.165-12.983 9.45-0.707 1.813-1.207 4.169-1.017 6.387z"></path>
<path fill="#15603e" d="M10.582 24.989c-1.162 0.491-0.89 2.213 0.22 1.856 1.096-0.352 0.852-2.31-0.22-1.856z"></path>
<path fill="#15603e" d="M3.859 14.91c0.432 0.057 1.465 0.286 1.825 0.23 0.104-0.779 0.034-1.23-0.71-1.344-0.866-0.133-1.047 0.34-1.114 1.114z"></path>
<path fill="#15603e" d="M10.818 4.943l0.313 0.848c0.336-0.036 0.468-0.153 0.663-0.364 0.056-0.813-0.426-0.664-0.976-0.484z"></path>
<path fill="#15603e" d="M23.755 9.166c0.439 0.408 1.076 0.005 0.076-0.885-0.22 0.101-0.344 0.225-0.464 0.441l0.388 0.444z"></path>
<path fill="#15603e" d="M24.316 7.843c0.143 0.228 0.547 0.748 0.849 0.374 0.234-0.373-0.167-0.636-0.381-0.83-0.221 0.117-0.351 0.233-0.468 0.456z"></path>
<path fill="#15603e" d="M20.6 5.936l0.649 0.348 0.208-1.183c-0.315 0.148-0.728 0.63-0.857 0.836z"></path>
</svg>
