<!-- Generated by IcoMoon.io -->
<svg version="1.1" xmlns="http://www.w3.org/2000/svg" width="32" height="32" viewBox="0 0 32 32">
<title>avatar-bear</title>
<path d="M17.645 24.86c0.763 2.156 0.794 2.559-1.207 3.393-0.818-0.434-0.593 0.774-0.69-1.382-3.959 0.413-0.129 0.147-2.427 1.37-1.922-0.885-1.776-1.071-1.456-3.019l5.779-0.363zM7.66 18.185c0.595-2.516 0.074-3.193 1.237-4.962 2.221 2.058 2.267 4.387 6.795 4.897l-1.075-3.167c1.597 0.68 2.525 1.474 4.566 2.156 1.637 0.546 3.661 0.728 4.955 1.397-0.528 2.527-1.009 0.765-2.272 4.087-0.695 1.83-1.026 2.375-2.331 3.371-1.315-3.441-1.182-2.158-4.414-1.973-1.678 0.096-2.549-0.537-3.786 0.096-1.080 0.552-0.416 0.848-1.44 1.851-0.557-0.818-1.089-1.366-1.608-2.4-2.532-5.041-4.132-5.75-2.036-7.519 0.764 1.035 0.476 1.885 1.409 2.168zM13.324 30.548l3.112-0.001c8.241-4.773 4.387-3.153 7.899-8.158 1.151-1.64 1.463-1.1 1.925-3.939l2.791-0.083c0.91-3.502-1.13-16.706-12.169-16.913-2.597-0.049-4.143 1.388-5.688 1.301-2.611-0.149-3.643-1.419-6.135 0.823-3.941 3.546-2.082 7.248 0.073 10.477-3.949 4.565-0.712 6.114 1.068 9.793 2.166 4.477 3.113 4.254 7.124 6.701z"></path>
<path d="M10.528 20.888c3.185 1.268 3.707-3.453-0.125-2.181-0.444 1.095-0.277 0.175-0.275 1.146 0.005 2.13-0.091 0.166 0.4 1.035z"></path>
<path d="M19.215 20.859c0.738-1.326 0.719-0.616 0.109-2.114-1.475-0.618-0.78-0.641-2.139 0.078-0.955 1.933 0.112 2.872 2.030 2.035z"></path>
</svg>
