<!-- Generated by IcoMoon.io -->
<svg version="1.1" xmlns="http://www.w3.org/2000/svg" width="28" height="32" viewBox="0 0 28 32">
<title>avatar-viajes-gay-tepozspa</title>
<path fill="#d3d4d8" d="M0-0h27.916v32h-27.916v-32z"></path>
<path fill="#000" d="M3.399 28.148v3.678h20.41l4.181 0.083v-4.356c-0.505-0.163-5.497-2.685-6.069-2.93-0.902-0.387-0.971-0.463-1.791-0.876-1.42-0.715-1.149-0.266-1.572-1.166-0.464-0.988-0.047-0.984-0.935-1.717-0.070-0.467-0.151-1.133-0.046-1.573l0.32-1.283c0.201-0.696 0.824-1.613 0.496-2.556-0.124-0.356-0.215-0.208-0.237-0.603-0.014-0.258 0-0.538-0.017-0.805-0.157-2.409-0.797-2.584-1.025-3.095l-0.138-0.422c-0.087-0.329-0.152-0.405-0.329-0.473-0.731-0.281-0.577-0.54-0.873-0.561-0.5-0.036-0.342-0.357-1.152-0.25-0.61 0.080-0.386-0.397-1.989-0.24-0.654 0.064-0.871 0.333-1.134 0.525-0.339 0.248-0.989-0.091-1.669 0.742-0.399 0.488-0.052-0.011-0.332 0.2-0.164 0.124-0.162 0.309-0.303 0.461-0.181 0.195-0.143-0.143-0.249 0.439-0.26 0.122 0.019-0.112-0.175 0-0.314 1.34-0.124 0.613-0.162 1.337-0.014 0.009-0.039 0.013-0.048 0.014l-0.194-0.014c-0.111 1.071 0.211 1.966 0.487 2.881 0.069 0.228 0.146 0.433 0.214 0.66 0.135 0.452-0.014 0.332 0.004 0.671 0.012 0.244 0.174 0.312 0.284 0.584 0.111 0.275 0.065 0.397 0.098 0.685 0.088 0.766 0.471 1.977 0.732 2.691 0.373 1.019 1.271 1.76 1.31 1.996 0.115 0.692-0.332 0.739-0.746 0.943-1.321 0.652-4.549 2.21-5.732 2.607-0.858 0.288-1.44 1.538-1.622 1.721z"></path>
<path fill="#000" d="M12.74 9.284c-0.36-1.1-0.685-1.638-0.662-3.263 0.054-3.869 2.329-5.273 2.784-0.96 0.164 1.55-0.079 2.262-0.506 3.816l0.551 0.117c0.475-1.202 1.365-2.501 2.158-3.007 0.653-0.415 2.783-0.832 3.781 0.067 0.634 0.571 0.212 1.151-0.479 1.335-1.756 0.467-1.604 0.663-2.838 1.726-0.539 0.464-0.887 0.531-1.423 0.904 0.091 0.494 0.616 1.288-0.050 2.366-1.018-0.734-1.855-1.285-3.354-1.175-0.249 0.018-0.37 0.062-0.575 0.083-1.095 0.11 0.172-1.728 0.611-2.008z"></path>
<path fill="#0074b3" d="M12.455 13.372c-0.083 0.441-0.508 0.732-0.948 0.648s-0.73-0.509-0.647-0.95c0.083-0.441 0.508-0.732 0.948-0.648s0.73 0.509 0.647 0.95z"></path>
</svg>
