<!-- Generated by IcoMoon.io -->
<svg version="1.1" xmlns="http://www.w3.org/2000/svg" width="32" height="32" viewBox="0 0 32 32">
<title>ayuda</title>
<path d="M14.667 24h2.667v-2.667h-2.667v2.667zM16 2.667c-7.36 0-13.333 5.973-13.333 13.333s5.973 13.333 13.333 13.333 13.333-5.973 13.333-13.333-5.973-13.333-13.333-13.333zM16 26.667c-5.88 0-10.667-4.787-10.667-10.667s4.787-10.667 10.667-10.667 10.667 4.787 10.667 10.667-4.787 10.667-10.667 10.667zM16 8c-2.947 0-5.333 2.387-5.333 5.333h2.667c0-1.467 1.2-2.667 2.667-2.667s2.667 1.2 2.667 2.667c0 2.667-4 2.333-4 6.667h2.667c0-3 4-3.333 4-6.667 0-2.947-2.387-5.333-5.333-5.333z"></path>
</svg>
