<?xml version="1.0" encoding="UTF-8"?>
<!DOCTYPE svg PUBLIC "-//W3C//DTD SVG 1.1//EN" "http://www.w3.org/Graphics/SVG/1.1/DTD/svg11.dtd">
<!-- Creator: CorelDRAW 2017 -->
<svg xmlns="http://www.w3.org/2000/svg" xml:space="preserve" width="44.7886mm" height="44.7886mm" version="1.1" style="shape-rendering:geometricPrecision; text-rendering:geometricPrecision; image-rendering:optimizeQuality; fill-rule:evenodd; clip-rule:evenodd"
viewBox="0 0 4478.86 4478.86"
 xmlns:xlink="http://www.w3.org/1999/xlink">
 <defs>
  <style type="text/css">
   <![CDATA[
    .str0 {stroke:#00A859;stroke-width:78.67;stroke-linecap:round;stroke-linejoin:round;stroke-miterlimit:22.9256}
    .fil3 {fill:none}
    .fil2 {fill:#FEFEFE}
    .fil0 {fill:#00A858}
    .fil1 {fill:#00A859;fill-rule:nonzero}
   ]]>
  </style>
 </defs>
 <g id="Capa_x0020_1">
  <metadata id="CorelCorpID_0Corel-Layer"/>
  <g id="_2189101329360">
   <path class="fil0" d="M160.55 946.45c18.33,27.98 45.48,54.8 66.57,80.89l39.85 48.2c-10.09,37.75 -44.04,35.71 -44.04,179.7 0,70.98 27.3,143.15 78.09,186.01 49.03,41.38 151.78,63.38 230.17,63.38 41.41,0 89.95,-11.75 121.58,-21.53 90.49,-27.98 120.01,-46.2 208.74,-0.54 38.56,19.85 74.78,56.66 100.12,90.66 9.77,13.11 17.07,23.75 24.61,37.76 8.63,16.04 13.2,21.73 20.97,41.38 31.1,78.69 42.43,177.04 -33.5,232.17 -68.85,49.98 -312.73,56.54 -423.45,86.59 -63.28,17.18 -122.19,47.62 -148.93,104.21 -39.79,84.23 112.89,307.77 177.56,313.15 -3.91,46.95 -155.93,242.56 95.92,578.95l32.5 40.87c20.56,26.04 17.8,14.4 21.53,51.83 4.3,43.13 5.76,88.97 17.55,129.16 15.23,51.98 32.38,95.14 61.02,133.39 15.1,20.18 26.39,33.79 43.95,51.43 67.64,68 161.72,105.83 252.77,136.14 18.83,6.27 57.13,20.85 76.59,22.47 0,90.92 89.01,206.52 154.1,256.75 38.59,29.79 75.97,59.58 122.36,83.09l68.44 34.29c24.06,10.73 48.71,23.09 73.99,32.41 215.35,79.39 462.23,125.24 704.04,125.24 139.19,0 277.29,-3.78 410.37,-22.64 174.29,-24.7 345.06,-67.48 503.91,-130.87 70.99,-28.33 151.75,-67.51 213.03,-106.17 33.19,-20.94 63.5,-40.44 94.18,-63.57 15.15,-11.42 28.64,-21.14 43.42,-33.62l121.33 -117.13c9,-9.04 10.51,-12.85 18.43,-21.92l52.2 -68.85c90.58,-136.69 154.12,-301.87 154.12,-480.45 0,-168.44 -11.72,-259.21 -57.13,-419.67 -9.18,-32.46 -28.34,-69.84 -30.94,-101.11 43.99,-0.98 133.3,-39.31 172.53,-58.62 100.95,-49.7 192.53,-116.74 256.14,-209.78 36.54,-53.45 59.65,-115.94 63.07,-178.78l0 -32.1c-2.57,-46.17 -16.38,-91.73 -43.98,-133.24 -79.6,-119.69 -233.94,-172.31 -374.37,-172.31 -45.02,0 -93.29,1.64 -135.59,7.52 -26.29,3.66 -63.55,14.48 -88.26,14.48 -2.21,-26.58 -33.6,-96.7 -45.25,-119.8 -92.38,-183.15 -226.1,-325 -415.88,-409.56 -208.5,-92.9 -448.94,-76.24 -647.16,26.88 -41.24,21.44 -90.3,54.58 -125.58,83.55l-130.41 130.04c-56.08,68.44 -104.53,147.49 -136.11,230.72 -66.57,175.42 -89.26,359.78 -53.44,551.16 3.15,16.86 8.53,33.65 8.89,49.8 -25.63,0 -35.81,-3.67 -62.38,-3.67 -68.86,0 -140.55,-3.06 -208.63,4.21l-427.29 53.4c-143.47,17.95 -321.56,20.78 -450.41,-35.5 -99.36,-43.4 -151.29,-121.13 -183.38,-121.13 -59.44,0 -71.51,29.5 -111.02,68.76 -19.08,18.97 -58.32,74.91 -72.47,85.27 -4.58,-17.14 -9.57,-12.01 -22.6,-21.42 -5.83,-4.22 -17.11,-15.79 -22.33,-21.7 -37.63,-42.64 -94.52,-121.65 -94.52,-176.92 0,-11.22 18.56,-25.7 27.24,-31.47 85.54,-56.88 260.25,-57.71 359.16,-73.81 106.29,-17.3 183.54,-47.29 228.94,-137.94 66.72,-133.23 -18.74,-290.93 -104.31,-388.53 -18.35,-20.93 -55.04,-47.33 -78.17,-61.24 -54.74,-32.92 -133.51,-55.58 -204.69,-36.19 -19.19,5.23 -33.79,13.02 -54.36,19.03 -42.84,12.52 -95.64,24.33 -144.45,24.33 -47.48,0 -117.69,-22.42 -146.74,-40.39 -51.96,-32.14 -64.03,-139.03 -49.27,-203.17 4.09,-17.78 9.3,-25.01 12.53,-38.83 16.78,12.29 60.4,70.82 77.88,90.87 11.29,12.96 13.78,20.29 28.54,30.16 1.89,-22.69 115.68,-307.01 132.14,-348.37 5.85,-14.69 14.67,-35.76 18.31,-51.39l-418.34 83.28 0 0.35z"/>
   <g>
    <path class="fil1" d="M3609.93 1759.01l43.04 128.02 -87.26 -48.58 -7.44 -29.25 -8.44 -28.73 -9.43 -28.2 -10.4 -27.66 -11.35 -27.06 -12.26 -26.47 -13.15 -25.83 -14.03 -25.16 -14.87 -24.47 -15.69 -23.76 -16.49 -23.02 -17.26 -22.24 -18.01 -21.44 -18.73 -20.64 -19.43 -19.77 -20.09 -18.91 -20.75 -18 -21.37 -17.09 -21.97 -16.13 -22.56 -15.18 -23.08 -14.17 -23.65 -13.15 -24.15 -12.13 -24.62 -11.05 -25.11 -9.98 -25.55 -8.87 -25.99 -7.73 -26.41 -6.59 -26.81 -5.41 -27.2 -4.21 -27.59 -2.99 -27.94 -1.72 5.26 -134.96 34.12 2.12 33.73 3.65 33.3 5.15 32.83 6.63 32.31 8.05 31.79 9.47 31.23 10.83 30.63 12.16 30 13.47 29.33 14.73 28.65 15.95 27.96 17.15 27.2 18.3 26.45 19.43 25.65 20.51 24.85 21.56 24.01 22.59 23.15 23.57 22.27 24.52 21.37 25.44 20.44 26.34 19.49 27.2 18.51 28.02 17.51 28.81 16.49 29.6 15.43 30.31 14.38 31.01 13.27 31.7 12.16 32.32 11.03 32.94 9.84 33.53 8.66 34.05 -87.26 -48.58zm87.26 48.58c8.52,36.3 -14.01,72.65 -50.31,81.17 -36.3,8.52 -72.65,-14.01 -81.17,-50.31l131.48 -30.86zm-45.6 -61.46l36.76 129.96 -0.01 0 -0.97 0.28 -1.29 0.37 -1.16 0.33 -1.14 0.33 -1.04 0.3 -1.22 0.36 -1.15 0.33 -0.89 0.26 -1.29 0.38 -0.97 0.29 -1.14 0.35 -1.21 0.36 -0.89 0.27 -1.2 0.37 -1.21 0.37 -1.2 0.37 -0.96 0.3 -1.13 0.35 -1.2 0.37 -0.95 0.31 -1.2 0.38 -1.13 0.35 -0.94 0.3 -0.96 0.31 -1.35 0.45 -1.19 0.38 -0.95 0.31 -1.19 0.39 -0.87 0.28 -1.18 0.4 -1.19 0.39 -1.01 0.35 -43.04 -128.02 1.35 -0.45 1.19 -0.39 1.18 -0.4 1.51 -0.5 1.19 -0.39 1.43 -0.47 1.19 -0.38 1.03 -0.33 1.44 -0.47 1.44 -0.46 1.27 -0.41 1.2 -0.38 1.45 -0.45 1.2 -0.37 1.27 -0.41 1.46 -0.44 1.2 -0.37 1.21 -0.37 1.2 -0.37 1.53 -0.47 1.21 -0.36 1.28 -0.39 1.47 -0.43 1.13 -0.34 1.53 -0.46 1.29 -0.37 1.22 -0.36 1.4 -0.4 1.28 -0.37 1.3 -0.37 1.15 -0.33 1.47 -0.42 -0.01 0zm656.6 215.98l-129.96 36.76 0 0 -3.42 -10.49 -4.23 -10.1 -5.04 -9.81 -5.86 -9.54 -6.72 -9.28 -7.6 -9.04 -8.5 -8.8 -9.42 -8.53 -10.34 -8.26 -11.25 -7.91 -12.15 -7.55 -13.06 -7.17 -13.88 -6.71 -14.72 -6.24 -15.54 -5.73 -16.3 -5.21 -17.02 -4.63 -17.71 -4.05 -18.35 -3.43 -18.95 -2.79 -19.53 -2.13 -20.04 -1.46 -20.52 -0.76 -20.96 -0.05 -21.36 0.69 -21.75 1.41 -22.03 2.17 -22.31 2.94 -22.56 3.73 -22.78 4.51 -22.92 5.31 -23.06 6.13 -36.76 -129.96 27.22 -7.23 27.14 -6.29 27.02 -5.35 26.86 -4.43 26.69 -3.52 26.47 -2.61 26.19 -1.71 25.92 -0.83 25.62 0.07 25.26 0.92 24.88 1.82 24.45 2.67 24.03 3.53 23.57 4.41 23.05 5.27 22.5 6.13 21.96 7.01 21.34 7.89 20.72 8.78 20.04 9.69 19.3 10.59 18.55 11.53 17.73 12.49 16.82 13.42 15.9 14.41 14.86 15.4 13.76 16.38 12.54 17.36 11.24 18.26 9.84 19.17 8.35 20 6.78 20.75 0 0zm-446.18 527.88l-36.78 -129.96 0.02 0 22.84 -6.86 22.33 -7.48 21.75 -8.08 21.15 -8.64 20.56 -9.19 19.92 -9.7 19.25 -10.17 18.56 -10.61 17.83 -11.01 17.07 -11.39 16.32 -11.75 15.51 -12.04 14.68 -12.3 13.83 -12.54 12.97 -12.72 12.08 -12.87 11.15 -12.96 10.22 -13.02 9.29 -13.04 8.32 -13 7.37 -12.92 6.38 -12.79 5.44 -12.65 4.49 -12.44 3.55 -12.2 2.63 -11.94 1.74 -11.7 0.86 -11.42 0 -11.19 -0.84 -11 -1.7 -10.82 -2.57 -10.72 129.96 -36.76 5.09 21.22 3.36 21.42 1.66 21.48 0 21.45 -1.6 21.36 -3.14 21.14 -4.59 20.9 -5.99 20.6 -7.31 20.28 -8.56 19.89 -9.76 19.55 -10.91 19.14 -11.98 18.74 -13.05 18.32 -14.04 17.9 -15.05 17.48 -15.96 17.01 -16.87 16.56 -17.75 16.08 -18.62 15.62 -19.45 15.08 -20.24 14.57 -21.03 14.03 -21.79 13.47 -22.5 12.87 -23.23 12.27 -23.9 11.62 -24.56 10.99 -25.23 10.3 -25.81 9.58 -26.41 8.86 -26.98 8.1 0.02 0zm-127.7 -109.38l-4.5 134.98 -6.61 -134.43 3.14 -0.42 3.16 -0.45 3.08 -0.43 3.18 -0.48 3.16 -0.48 3.09 -0.49 3.29 -0.53 3.1 -0.51 3.1 -0.54 3.29 -0.58 3.12 -0.56 3.1 -0.58 3.33 -0.63 3.13 -0.6 3.11 -0.63 3.24 -0.65 3.23 -0.68 3.16 -0.67 3.23 -0.71 3.23 -0.71 3.14 -0.72 3.17 -0.73 3.26 -0.78 3.25 -0.78 3.18 -0.79 3.26 -0.81 3.16 -0.81 3.19 -0.84 3.26 -0.87 3.29 -0.88 3.18 -0.88 3.22 -0.91 36.78 129.96 -3.82 1.07 -3.88 1.06 -3.75 1.02 -3.78 1.01 -3.85 1 -3.86 0.99 -3.78 0.95 -3.84 0.95 -3.77 0.9 -3.76 0.9 -3.83 0.89 -3.86 0.88 -3.77 0.83 -3.77 0.83 -3.84 0.81 -3.75 0.78 -3.74 0.77 -3.85 0.77 -3.85 0.74 -3.63 0.69 -3.84 0.72 -3.84 0.68 -3.63 0.64 -3.84 0.66 -3.82 0.63 -3.63 0.59 -3.81 0.61 -3.74 0.56 -3.72 0.56 -3.8 0.55 -3.72 0.51 -3.72 0.5 -6.61 -134.43zm6.61 134.43c-36.96,4.89 -70.91,-21.12 -75.8,-58.08 -4.89,-36.96 21.12,-70.91 58.08,-75.8l17.72 133.88zm-10.81 0.56l-0.3 -0.01 4.5 -134.98 0.3 0.01 60.4 42.3 -64.9 92.68zm4.5 -134.98c37.27,1.24 66.48,32.47 65.24,69.74 -1.24,37.27 -32.47,66.48 -69.74,65.24l4.5 -134.98zm-2509.37 1166.31l39.98 -129 47.52 65.82 6 52.72 19.84 50.46 34.42 49.82 49.48 48.75 64.09 46.49 77.54 43.08 89.58 38.82 100.11 33.91 109.13 28.51 116.68 22.73 122.76 16.62 127.4 10.23 130.63 3.55 132.43 -3.35 132.83 -10.47 131.81 -17.82 129.39 -25.34 125.57 -33.04 120.37 -40.86 113.76 -48.77 105.83 -56.77 96.63 -64.8 86.24 -72.83 74.78 -80.96 62.4 -89.31 49.15 -98.1 34.95 -107.58 19.55 -117.88 2.74 -129.01 -15.69 -140.77 -35.81 -152.98 -57.62 -165.5 125.3 -50.38 61.92 177.9 39.25 167.68 17.55 157.63 -3.14 147.63 -22.79 137.44 -41.19 126.92 -58.09 116.04 -73.28 104.95 -86.66 93.9 -98.3 83.09 -108.33 72.68 -116.85 62.71 -124 53.19 -129.79 44.08 -134.29 35.34 -137.53 26.94 -139.47 18.86 -140.15 11.07 -139.57 3.53 -137.73 -3.75 -134.62 -10.81 -130.26 -17.64 -124.66 -24.29 -117.87 -30.81 -109.87 -37.23 -100.7 -43.66 -90.36 -50.28 -78.77 -57.25 -65.66 -64.91 -50.32 -73.28 -31.82 -81.62 -9.94 -87.86 47.52 65.82zm-47.52 -65.82c0.72,-37.28 31.55,-66.91 68.83,-66.19 37.28,0.72 66.91,31.55 66.19,68.83l-135.02 -2.64zm-432.04 -429.76l100.36 -90.38 17.33 46.6 -0.05 29.58 1.08 27.63 2.14 25.73 3.16 23.89 4.08 22.15 4.94 20.46 5.74 18.89 6.5 17.43 7.18 16.08 7.87 14.89 8.52 13.81 9.19 12.86 9.88 12.06 10.58 11.34 11.36 10.72 12.14 10.2 12.97 9.7 13.79 9.26 14.63 8.85 15.49 8.5 16.3 8.15 17.11 7.84 17.87 7.56 18.62 7.32 19.31 7.13 19.98 6.96 20.62 6.87 21.17 6.8 21.72 6.8 22.22 6.84 22.68 6.95 23.06 7.11 -39.98 129 -22.76 -7.01 -22.66 -6.95 -22.6 -6.96 -22.5 -7.04 -22.35 -7.18 -22.18 -7.39 -22.02 -7.68 -21.81 -8.05 -21.56 -8.48 -21.29 -9.02 -20.99 -9.62 -20.64 -10.33 -20.25 -11.1 -19.83 -12.01 -19.31 -12.98 -18.73 -14.04 -18.06 -15.16 -17.32 -16.38 -16.46 -17.64 -15.48 -18.9 -14.43 -20.22 -13.26 -21.51 -12.05 -22.79 -10.76 -24.08 -9.44 -25.35 -8.1 -26.61 -6.74 -27.88 -5.38 -29.17 -4.02 -30.53 -2.66 -31.91 -1.32 -33.35 0.07 -34.86 17.33 46.6zm-17.33 -46.6c0.77,-37.28 31.64,-66.87 68.92,-66.1 37.28,0.77 66.87,31.64 66.1,68.92l-135.02 -2.82zm107.83 -808.96l-97.02 93.94 93.72 3.19 -18.89 17.52 -17.84 17.61 -16.76 17.69 -15.68 17.75 -14.54 17.8 -13.39 17.86 -12.24 17.89 -11.05 17.92 -9.9 17.98 -8.69 18.01 -7.53 18.09 -6.35 18.15 -5.18 18.3 -4.01 18.46 -2.82 18.68 -1.63 18.96 -0.4 19.31 0.86 19.73 2.18 20.21 3.54 20.74 4.99 21.33 6.48 21.95 8.07 22.6 9.71 23.26 11.42 23.94 13.19 24.6 15.05 25.29 16.93 25.97 18.87 26.62 20.87 27.29 22.91 27.95 24.99 28.59 -100.36 90.38 -27.69 -31.69 -25.69 -31.35 -23.75 -31.03 -21.81 -30.78 -19.87 -30.49 -17.99 -30.25 -16.11 -30.04 -14.24 -29.84 -12.37 -29.64 -10.51 -29.48 -8.66 -29.27 -6.79 -29.11 -4.94 -28.88 -3.08 -28.65 -1.24 -28.37 0.58 -28.03 2.37 -27.68 4.12 -27.24 5.81 -26.76 7.42 -26.26 8.99 -25.73 10.47 -25.17 11.89 -24.61 13.22 -24.06 14.49 -23.5 15.7 -22.97 16.85 -22.46 17.94 -21.96 18.96 -21.49 19.96 -21.05 20.92 -20.65 21.83 -20.26 93.72 3.19zm-93.72 -3.19c27.7,-24.96 70.41,-22.75 95.37,4.95 24.96,27.7 22.75,70.41 -4.95,95.37l-90.42 -100.32zm1425.82 194.79l126.24 -47.98 -76.93 90.09 -45.08 -8.17 -45.58 -5.89 -46.11 -3.81 -46.59 -1.89 -47.04 -0.17 -47.43 1.39 -47.77 2.74 -48.03 3.92 -48.26 4.88 -48.43 5.66 -48.54 6.21 -48.59 6.57 -48.59 6.73 -48.56 6.66 -48.49 6.36 -48.35 5.86 -48.2 5.13 -48 4.17 -47.78 2.97 -47.53 1.53 -47.26 -0.17 -46.92 -2.13 -46.56 -4.36 -46.15 -6.87 -45.64 -9.68 -45.02 -12.76 -44.26 -16.12 -43.35 -19.73 -42.23 -23.58 -40.92 -27.56 -39.43 -31.72 -37.74 -35.94 97.02 -93.94 29.76 28.34 30.57 24.58 31.48 21.2 32.45 18.1 33.51 15.25 34.68 12.62 35.88 10.16 37.16 7.86 38.43 5.71 39.68 3.7 40.88 1.85 42.02 0.15 43.11 -1.39 44.12 -2.75 45.04 -3.91 45.92 -4.89 46.71 -5.66 47.43 -6.24 48.12 -6.6 48.71 -6.73 49.27 -6.67 49.76 -6.37 50.21 -5.86 50.6 -5.12 50.97 -4.14 51.27 -2.94 51.53 -1.51 51.76 0.19 51.91 2.11 52.03 4.31 52.08 6.73 51.98 9.43 -76.93 90.09zm76.93 -90.09c36.5,7.62 59.91,43.41 52.29,79.91 -7.62,36.5 -43.41,59.91 -79.91,52.29l27.62 -132.2zm-138.41 -291.11l134.96 5.26 0 0 -0.37 10.93 -0.21 10.89 -0.08 10.89 0.05 10.81 0.2 10.76 0.33 10.78 0.45 10.71 0.61 10.66 0.72 10.65 0.86 10.57 0.99 10.54 1.12 10.54 1.24 10.44 1.38 10.39 1.5 10.37 1.62 10.29 1.76 10.31 1.87 10.23 1.99 10.12 2.13 10.14 2.24 10.06 2.36 10 2.48 9.97 2.6 9.88 2.71 9.83 2.83 9.78 2.95 9.73 3.06 9.66 3.18 9.62 3.28 9.51 3.41 9.5 3.5 9.4 -126.24 47.98 -4.1 -11 -3.97 -11.06 -3.84 -11.15 -3.7 -11.2 -3.58 -11.28 -3.43 -11.33 -3.31 -11.4 -3.17 -11.49 -3.02 -11.54 -2.88 -11.57 -2.76 -11.66 -2.6 -11.72 -2.47 -11.76 -2.33 -11.86 -2.17 -11.87 -2.04 -11.91 -1.9 -12.01 -1.74 -12.03 -1.6 -12.11 -1.44 -12.16 -1.3 -12.16 -1.15 -12.24 -1 -12.31 -0.84 -12.31 -0.69 -12.38 -0.53 -12.41 -0.39 -12.42 -0.22 -12.52 -0.07 -12.55 0.1 -12.55 0.25 -12.61 0.41 -12.63 0 0zm842.35 -859.71l-5.26 134.96 0 0 -34.32 -0.37 -33.93 1.55 -33.48 3.4 -33.03 5.25 -32.53 7.01 -32.02 8.77 -31.45 10.47 -30.86 12.13 -30.2 13.76 -29.53 15.34 -28.82 16.9 -28.04 18.4 -27.2 19.86 -26.36 21.31 -25.44 22.67 -24.46 24.01 -23.46 25.32 -22.4 26.58 -21.28 27.77 -20.12 28.93 -18.9 30.05 -17.66 31.12 -16.33 32.14 -14.99 33.12 -13.57 34.04 -12.13 34.92 -10.63 35.76 -9.07 36.54 -7.49 37.32 -5.85 38 -4.16 38.65 -2.42 39.29 -134.96 -5.26 2.8 -45.39 4.82 -44.79 6.79 -44.06 8.69 -43.3 10.55 -42.5 12.37 -41.64 14.13 -40.7 15.85 -39.74 17.51 -38.7 19.13 -37.62 20.68 -36.48 22.2 -35.29 23.68 -34.05 25.1 -32.75 26.46 -31.38 27.78 -30 29.08 -28.53 30.28 -27.01 31.48 -25.43 32.62 -23.82 33.7 -22.1 34.72 -20.36 35.71 -18.56 36.64 -16.68 37.52 -14.75 38.33 -12.75 39.1 -10.71 39.79 -8.59 40.43 -6.41 41 -4.18 41.49 -1.89 41.92 0.45 0 0z"/>
    <path id="1" class="fil2" d="M2946.52 1213.96c332.98,12.97 605.08,268.76 684.93,609.06 12.61,-4.24 25.47,-8.22 38.52,-11.91 268.6,-75.98 525.29,-0.13 573.24,169.38 47.94,169.5 -131,368.57 -399.59,444.52 -37.6,10.64 -74.97,18.25 -111.56,23.09l0.3 0.01c760.93,1892.87 -2502.23,1805.86 -2487.13,1034.32 -245.5,-76.1 -456.73,-123.11 -449.37,-476.27 -291.94,-324.13 -230.41,-563.12 -8.19,-763.4 353.22,364.82 927.78,12.83 1443.73,120.64 -41.22,-108.48 -62.03,-228.7 -57.12,-354.58 17.72,-454.84 363.53,-810.78 772.24,-794.86z"/>
   </g>
   <g>
    <path class="fil3 str0" d="M3000.72 431.73c-589.46,-52.22 -1077.23,17.41 -1089.46,155.53 -12.24,138.12 455.69,292.42 1045.15,344.64 589.45,52.22 1077.22,-17.41 1089.46,-155.53 12.23,-138.12 -455.69,-292.42 -1045.15,-344.64z"/>
   </g>
  </g>
 </g>
</svg>
