<!-- Generated by IcoMoon.io -->
<svg version="1.1" xmlns="http://www.w3.org/2000/svg" width="32" height="32" viewBox="0 0 32 32">
<title>banco-azteca</title>
<path fill="#b93c3e" d="M15.923 12.006c-2.211 0-4.006 1.794-4.006 4.007 0 2.215 1.796 4.008 4.006 4.008 2.215 0 4.009-1.793 4.009-4.008 0-2.213-1.794-4.007-4.009-4.007z"></path>
<path fill="#2f6c4b" d="M18.008 7.955c0 0-0.097-0.030-0.269-0.077 0.926-0.275 2.090-0.576 3.379-0.799-1.808 0-3.346 0.090-4.651 0.292-0.187 0.029-0.369 0.060-0.545 0.093-0.175-0.033-0.357-0.064-0.545-0.093-1.305-0.202-2.841-0.292-4.65-0.292 1.29 0.224 2.453 0.524 3.379 0.799-0.172 0.048-0.27 0.078-0.27 0.078-5.985 1.875-10.494 5.974-10.17 9.334 0.269 2.79 3.112 4.203 7.747 3.721-2.577-0.467-3.634-1.771-3.825-3.745-0.293-3.024 3.136-6.6 8.004-8.656 0 0 0.12-0.049 0.33-0.128 0.21 0.079 0.33 0.128 0.33 0.128 4.867 2.056 8.293 5.632 8.003 8.656-0.19 1.975-1.248 3.279-3.825 3.745 4.634 0.482 7.48-0.932 7.747-3.721 0.324-3.36-4.186-7.459-10.172-9.334z"></path>
<path fill="#6f727a" d="M2.865 24.359v-0.010c0.509-0.060 0.846-0.384 0.846-0.818 0-0.61-0.578-0.74-0.911-0.74h-1.433l-0.676 3.228 1.471-0.018c0.74-0.009 1.327-0.333 1.327-1.018 0-0.356-0.254-0.569-0.624-0.624zM1.903 25.408h-0.231l0.157-0.758h0.208c0.388 0 0.592 0.042 0.592 0.324 0 0.314-0.292 0.434-0.726 0.434zM2.278 24.067h-0.324l0.139-0.665h0.222c0.324 0 0.536 0.041 0.536 0.301 0 0.222-0.212 0.365-0.573 0.365z"></path>
<path fill="#6f727a" d="M5.191 23.554c-0.375 0-0.638 0.055-0.884 0.139l-0.083 0.606c0.278-0.144 0.482-0.19 0.782-0.19 0.273 0 0.444 0.14 0.444 0.31 0 0.032 0 0.064-0.009 0.097-0.116-0.010-0.282-0.023-0.449-0.023-0.735 0-1.328 0.291-1.328 0.884 0 0.466 0.287 0.698 0.805 0.698 0.324 0 0.634-0.116 0.81-0.393v-0.009l0.009 0.009-0.037 0.338h0.679c0.093-0.726 0.306-1.268 0.306-1.646 0-0.592-0.472-0.819-1.046-0.819zM4.733 25.52c-0.176 0-0.282-0.131-0.282-0.241 0-0.212 0.292-0.355 0.689-0.342 0.051 0 0.153 0 0.222 0.014-0.060 0.324-0.273 0.569-0.629 0.569z"></path>
<path fill="#6f727a" d="M8.456 23.554c-0.44 0-0.689 0.18-0.929 0.448h-0.009l0.065-0.393h-0.773c-0.023 0.217-0.060 0.421-0.102 0.629l-0.375 1.78h0.832l0.237-1.11c0.060-0.356 0.268-0.662 0.62-0.662 0.231-0.009 0.324 0.135 0.324 0.278 0 0.125-0.033 0.245-0.056 0.365l-0.231 1.129h0.86l0.222-1.124c0.051-0.254 0.065-0.346 0.065-0.509 0-0.472-0.263-0.833-0.749-0.833z"></path>
<path fill="#6f727a" d="M11.014 24.163c0.184 0 0.365 0.052 0.537 0.13l0.18-0.578c-0.245-0.102-0.555-0.162-0.758-0.162-0.925 0-1.554 0.628-1.554 1.42 0 0.605 0.435 1.101 1.138 1.101 0.324 0 0.546-0.037 0.712-0.093l0.12-0.624c-0.18 0.074-0.329 0.107-0.537 0.107-0.352 0-0.574-0.236-0.574-0.523 0-0.499 0.305-0.778 0.736-0.778z"></path>
<path fill="#6f727a" d="M13.169 23.554c-0.944 0-1.554 0.573-1.554 1.42 0 0.605 0.361 1.101 1.254 1.101 0.901 0 1.554-0.44 1.554-1.444 0-0.605-0.435-1.077-1.254-1.077zM12.929 25.492c-0.282 0.005-0.454-0.213-0.454-0.537 0-0.384 0.25-0.818 0.652-0.818 0.324 0 0.434 0.236 0.434 0.484 0 0.546-0.245 0.87-0.633 0.87z"></path>
<path fill="#6f727a" d="M17.118 22.79l-1.919 3.229h0.935l0.383-0.689h1.254l0.088 0.689h0.87l-0.527-3.229h-1.083zM16.854 24.719l0.684-1.262h0.010l0.139 1.262h-0.833z"></path>
<path fill="#6f727a" d="M19.209 24.22h1.031l-1.314 1.169-0.12 0.63h2.095l0.125-0.611h-1.101l1.323-1.169 0.129-0.629h-2.044z"></path>
<path fill="#6f727a" d="M22.668 24.192h0.606l0.101-0.583h-0.573l0.167-0.754-0.879 0.236-0.116 0.518h-0.476l-0.102 0.583h0.444l-0.143 0.675c-0.056 0.254-0.074 0.375-0.074 0.495 0 0.504 0.338 0.712 0.763 0.712 0.166 0 0.342-0.019 0.518-0.046l0.093-0.55c-0.089 0.033-0.181 0.069-0.269 0.069-0.167 0-0.273-0.107-0.273-0.269 0-0.116 0.032-0.236 0.069-0.416l0.144-0.67z"></path>
<path fill="#6f727a" d="M24.736 23.554c-1.074 0-1.444 0.86-1.444 1.42 0 0.605 0.435 1.101 1.239 1.101 0.241 0 0.55-0.046 0.842-0.134l0.106-0.588c-0.231 0.111-0.532 0.167-0.754 0.167-0.509 0-0.638-0.203-0.648-0.463h1.707c0.033-0.143 0.060-0.356 0.060-0.454 0-0.731-0.476-1.049-1.109-1.049zM24.129 24.586c0.060-0.232 0.254-0.477 0.615-0.477 0.306 0 0.407 0.218 0.407 0.477h-1.022z"></path>
<path fill="#6f727a" d="M27.644 24.163c0.185 0 0.365 0.052 0.537 0.13l0.18-0.578c-0.245-0.102-0.555-0.162-0.759-0.162-0.925 0-1.554 0.628-1.554 1.42 0 0.605 0.435 1.101 1.138 1.101 0.324 0 0.546-0.037 0.712-0.093l0.121-0.624c-0.18 0.074-0.329 0.107-0.537 0.107-0.352 0-0.574-0.236-0.574-0.523 0-0.499 0.305-0.778 0.736-0.778z"></path>
<path fill="#6f727a" d="M29.744 23.554c-0.375 0-0.638 0.055-0.884 0.139l-0.083 0.606c0.277-0.144 0.481-0.19 0.782-0.19 0.273 0 0.444 0.14 0.444 0.31 0 0.032 0 0.064-0.009 0.097-0.116-0.010-0.283-0.023-0.449-0.023-0.735 0-1.328 0.291-1.328 0.884 0 0.466 0.287 0.698 0.805 0.698 0.324 0 0.634-0.116 0.81-0.393v-0.009l0.009 0.009-0.037 0.338h0.68c0.093-0.726 0.306-1.268 0.306-1.646 0-0.592-0.472-0.819-1.046-0.819zM29.286 25.52c-0.176 0-0.283-0.131-0.283-0.241 0-0.212 0.292-0.355 0.689-0.342 0.051 0 0.152 0 0.222 0.014-0.060 0.324-0.273 0.569-0.628 0.569z"></path>
</svg>
