<?xml version="1.0" encoding="UTF-8"?>
<!DOCTYPE svg PUBLIC "-//W3C//DTD SVG 1.1//EN" "http://www.w3.org/Graphics/SVG/1.1/DTD/svg11.dtd">
<!-- Creator: CorelDRAW 2017 -->
<svg xmlns="http://www.w3.org/2000/svg" xml:space="preserve" width="52.658mm" height="77mm" version="1.1" style="shape-rendering:geometricPrecision; text-rendering:geometricPrecision; image-rendering:optimizeQuality; fill-rule:evenodd; clip-rule:evenodd"
viewBox="0 0 5265.8 7700"
 xmlns:xlink="http://www.w3.org/1999/xlink">
 <defs>
  <style type="text/css">
   <![CDATA[
    .fil1 {fill:#30302F}
    .fil2 {fill:#515150}
    .fil3 {fill:#767474}
    .fil0 {fill:#9B9A9A}
   ]]>
  </style>
 </defs>
 <g id="Capa_x0020_1">
  <metadata id="CorelCorpID_0Corel-Layer"/>
  <g id="_2057335145312">
   <path class="fil0" d="M5225.07 3216.71l-1227.03 -287.67 57.54 1317.15 851.45 -44.05c106.01,-328.48 377.44,-728.87 318.04,-985.43z"/>
   <path class="fil1" d="M208.79 2427.6l30.99 12.14c-2.04,148.29 22.52,128.74 34.15,188.77l14.73 138.55c25.67,106.72 4.01,24.68 8.25,128.61l71.2 -64c47.5,-36.93 53.69,-17.3 60.03,-87.3 92.53,-16.06 63.74,-20.42 96.21,-34.54 1.89,-0.82 6.25,-3.33 8.22,-3.95 2.15,-0.67 7.29,-2.28 9.59,-2.69 16.19,-2.83 -5.85,-31.82 81.03,25.21 39.34,-35.29 33.99,-52.29 105.27,-52.68 63.33,-0.35 90.06,25.18 115.37,41.4 -8.74,19.78 31.65,69.79 -98.31,32.16l-16.51 72.16c-108.77,-1.34 -149.26,12.66 -191.24,52.58l-41.08 49.36c-46.17,44.16 -29.29,32.87 -74.79,17.07 10.78,65.46 4.77,96.65 -7.33,178.37l77.21 89.65c61.87,-25.23 93.25,-60.53 138.65,-105.16l-3.3 -148.82c29.72,-18.35 46.33,-29.94 102.8,-37.44 50.4,157.84 50.16,85.05 126.83,181.22 65.77,-43.01 90.27,-43.2 199.87,-32.81 138.67,13.14 86.04,-39.8 140.62,28.86l19.78 -69.81c0.67,-1.92 2.61,-6.29 3.38,-8.22 9.3,-23.32 34.05,5.61 19.02,-134.84 3.13,-3.05 7.81,-6.95 9.59,-8.92l43.51 -64.12c-17.14,-11.19 -15.22,-8.37 -38.03,-13.85 -113.19,-27.21 76.23,34.78 -31.48,-6.24l32.15 -99.15c0.01,-3.63 0.96,-9.52 0.63,-13.18l-59.31 -117.4c-28.43,-29.51 5.31,-5.45 -30.6,-19.78 -139.42,-55.64 -42.16,-39.33 -124.69,-67.57l-173.67 -40.03c-234.17,-93.69 -331.57,-26.99 -394,-25.42l-19.36 -30.42c-1.32,-1.6 -4.93,-5.96 -6.27,-7.35 -1.19,-1.24 -5.43,-4.64 -6.52,-5.61l-13.83 -7.64c-0.59,-2.98 -4.96,-1.57 -3.72,-3.44l-19.17 -93.06 -23.77 9.18c-41.91,-1.11 14.27,11.49 -53.28,-4.75 -55.98,-13.45 -33.72,-17.42 -38.57,-20.66l-44.42 8.52 -35.83 177.04z"/>
   <path class="fil2" d="M4386.12 3234.35l31.46 7.15c-26.97,-140.49 67.79,-217 68.09,-217.39 2.16,-2.82 30.73,-57.51 35.37,-68.3 16.51,-38.36 8.49,-29.08 29.85,-63.23 17.57,-28.09 27.78,-35.83 46,-64.18l56.68 -90.61c28.31,-29.58 3.95,-7.22 41.07,-30.95 29.05,-34.7 30.61,-43.15 73.16,-78.83l45.67 -56.97c-59.9,-88.28 -663.36,-84.34 -787.64,-80.01 33.46,122.41 51.64,24.8 55.48,25.23l35.71 100.32c0.13,0.26 0.76,2.97 0.84,2.3 0.03,-0.28 -0.5,0.5 -0.79,0.7 -0.54,28.81 -4.25,50.98 2.13,79.18 16.65,73.58 22.63,-8.14 43.92,131.21 11.19,73.21 58.8,150.1 95.85,251.88l9.1 25.57c59.79,143.58 74.97,122.71 118.05,126.93z"/>
   <path class="fil1" d="M1878.7 2366.89c-93.12,140.6 -99.83,19.12 -102.53,156.35l31.55 138.92c69.39,-10.53 69.76,6.14 108.21,-17.71l27.16 54.62 37.69 -73.22c39.23,31.81 19.84,20.81 62.16,33.37 54.41,-40.67 20.24,-16.01 86.26,-38.8l106.98 -34.61c71.47,-15.63 46.73,-8.03 97.75,-35.03 119.34,-63.16 232.21,-25.36 303.51,-41.22 128.83,-28.67 138.71,1.68 258.42,-0.64l25.13 -82.12c-53.42,-23.36 -21.91,17.59 -85.2,-47.16 -31.01,-31.73 -4.94,-14.31 -34.72,-35.95l-60.58 -30.99c-26.55,-9.95 -103.51,-26.72 -130.42,-26.15 -80.37,1.72 20.49,7.8 -66.79,8.01l-210.2 -12.38c-200.63,22.71 -134.18,59.99 -454.38,84.71z"/>
   <path class="fil1" d="M3017.67 2947.83c2.72,0.52 8.72,2.91 12.01,3.32l107.17 7.07c88.83,16.92 97.94,-104.86 -92.97,-184.83 -51.04,-21.38 -68.69,-24.6 -116.99,-45.92 -37.84,-16.69 -85.16,-25.7 -126.74,-33.4 -167.49,-31.04 -406.18,-16.67 -556.48,-11.09 -27.85,34.73 -20.09,35.05 -54.74,69.1 -26.26,-10.59 -44.03,-16.89 -72.08,-32.39 31.97,73.03 13.63,69.19 26.23,116.47 26.37,98.91 41.23,13.68 43.28,120.16 24.14,-15.25 35.99,-28.94 49.03,-23.08 14.51,6.52 -3.67,-2.36 12.17,16.14l14.36 25.11c3.02,-3.35 6.86,-8.27 9.07,-10.03l113.08 -89.13c48.52,-49.28 122.83,-86.41 206.33,-83.34 9.68,13.32 40.81,60.19 48.61,75.16 21.75,41.71 15.32,0.6 7.79,69.08 97.52,11.09 29.54,37.2 161.72,21.77 87.01,-10.15 81.32,-25.56 191.43,-16.08 24.41,-33.59 -31.32,-3.58 17.72,5.91z"/>
   <path class="fil2" d="M2217.55 351.04c2.4,-3.31 4.21,16.18 6.44,24.53l-144.47 3.41c18.05,-67.99 2.82,-100.67 71.64,-100.01 50.91,0.49 65.62,73.13 66.39,72.07zm-1004.48 -15.36c-27.43,5.46 -114.46,59.15 -129.64,85.21l-18.05 34.81c-35.58,62.52 -40.86,42.5 -17.57,114.72 -15.82,0.51 -74.63,0.41 -88.19,5.18 -64.45,22.64 57.46,56.93 -66.11,44.25 -67.07,4.54 -202.58,209.94 -255.97,271.21 -146.3,167.88 -248.52,470.15 -255.08,731.54 -0.58,22.95 -0.34,46.2 -5.66,67.86 -18.18,73.88 -6.81,-12.34 -19.85,47.6 -7.27,33.41 -22.55,213.17 -26.25,249.53 -8.46,83.25 -9.36,61.76 -26.77,119.47 -12.52,41.49 -10.94,91.39 -14.89,134.98 4.85,3.24 -17.41,7.21 38.57,20.66 67.55,16.24 11.37,3.64 53.28,4.75 -36.44,-84.11 50.51,-408.87 79.92,-511.91 21.78,-76.31 21.24,-51.44 46.1,-100.11 95.41,-186.77 50.64,-72.72 96.72,-231.54 17.4,-59.97 30.35,-27.26 57.03,-106.86 22.15,-66.08 0.13,-52.81 41.15,-106.53 99.66,-130.53 193.21,-219.96 326.07,-311.97 29.51,-20.44 28.91,-15.42 50.56,-24.56 62.27,-26.29 11.9,5.69 56.93,-32.15 65.3,-54.88 294.51,-135.81 396.39,-152.59 100.03,-16.48 22.72,-9.44 66.92,-24.46 1.94,-0.66 227.76,-14.88 261.62,-14.84 208.99,0.24 431.64,-7.1 602.58,40.51 92.87,25.86 16.8,9.18 84.86,60.27l348.13 144.86c136.84,61.88 47.24,74.99 413.41,205.31 119.23,-8.66 100.85,-25.24 138.82,54.79 223.86,23.32 93.27,45.09 218.04,50.86 98.15,4.55 198.63,-2.63 303.34,3.08 -25.78,63.58 11.38,28.8 -42.07,52.02 -36.67,15.93 -126.5,-19.04 -115.45,67.87l108.68 3.55c3.93,11.01 22.69,63.55 22.75,63.63l48.5 30.7c4.32,2.86 11.07,7.24 16.02,11.59 -14.08,62.61 -45.37,104.58 -78.71,146.07l42.47 26.71c2.75,1.94 8.54,6.52 12.78,9.81 -74.2,72.28 -34.56,65.22 -23.71,87.43l61.56 -44.38c2.18,-2.17 6.31,-7.29 9.76,-10.64l49.89 53.52c18.19,-37.69 21.26,-2.46 12.77,-44.05l-32.45 -60.14c3.52,-1.84 9.79,-7.8 11.16,-4.24 1.29,3.33 8.81,-3.07 10.57,-3.65 73.73,-24.1 -70.13,35.55 20.17,-5.02 20.52,-9.22 -1.9,12.67 37.39,-28.06l24.6 36.68c16.21,23.33 -11.84,2.4 30.14,36.86 82.29,-29.88 -26.05,26.38 23.72,-9.94 42.46,-30.99 33.78,-34.64 47.05,-60.71l20.48 -40.16c21.3,26.76 16.97,-6.23 24.35,43.01 4.54,30.32 -2.16,42.31 -7.02,64.39 -9.31,42.33 -18.3,66.55 -28.19,104.2 -60.17,21.57 -106.09,35.31 -181.49,39.2 -40.78,96.54 -15.72,-15.81 -60.41,136.2 -16.71,56.82 1.37,-3.9 -16.4,40.01 -13.62,33.66 -12.97,6.97 -18.46,67.84 89,-2.75 135.22,-45.39 225.71,58.13 -39.01,107.55 -79.29,89.27 -182.33,101.41 37.09,-91.21 -23.56,-9.78 76.56,-64.89 -66.2,-33.52 -149.72,48.64 -233.8,59.9 -125.15,-150.45 11.36,-213.6 31.8,-273.47 -67.07,34.42 -29.28,25.48 -122.26,30.2 37.97,-121.31 21.99,-52.59 65.49,-138.07 -62.75,43.47 -128.73,65.33 -194.01,142.29 -57.57,2.86 -66.92,2.59 -101.94,22.21l42.87 58.77c2.74,3.31 7.66,9.03 11.2,13.76l-32.25 87.59c0.77,27.09 5.64,16.42 10.59,34.05l23 210.68c102.22,2.92 80.83,39 109.67,109.89l90.4 -22.95c25.85,66.25 51.59,96.45 56.09,184.25 140.36,70.5 21.49,-37.5 132.81,108.03 30.98,40.5 7.2,-2.17 39.77,50.94l129.59 234.89c1.03,69.69 -5.55,69.04 16.97,129.22l36.94 106.4c106.62,10.69 124.09,11.33 153.32,-28.79 -43.08,-4.22 -58.26,16.65 -118.05,-126.93l-9.1 -25.57c-37.05,-101.78 -84.66,-178.67 -95.85,-251.88 -21.29,-139.35 -27.27,-57.63 -43.92,-131.21 -6.38,-28.2 -2.67,-50.37 -2.13,-79.18 0.29,-0.2 0.82,-0.98 0.79,-0.7 -0.08,0.67 -0.71,-2.04 -0.84,-2.3l-35.71 -100.32c-3.84,-0.43 -22.02,97.18 -55.48,-25.23 124.28,-4.33 727.74,-8.27 787.64,80.01l-45.67 56.97 145.51 -40.67c12.66,-156.61 -55.4,-305.9 -31.68,-471.91 25.38,-177.63 -5.74,-60.73 -29.95,-185.16 -14.13,-72.58 16.98,-135.77 10.01,-235.67 -41.15,-97 -59.63,56.61 -69.49,-255.63l-59.46 -10.99c-3.11,-1.1 -9.59,-4.42 -14.02,-7.27 4.73,-158.34 30.99,-1.9 36.21,-159.25 -2.47,-33.07 -45.75,-98.37 -69,-130.74 -42.62,-59.34 -55.2,-65.25 -99.69,-118.44 -157.19,-187.95 -119.33,-72.6 -176.36,-152.28 -75.15,-104.98 27.86,-5.06 -150.06,-196.66 -79.78,-85.92 -13.09,-70.39 -257.77,-194.84 -35.28,-17.95 -47.66,-17.91 -80.99,-31.88 -42.45,-17.78 -22.11,-10.19 -37.27,-18.39 -0.25,-0.13 -30.83,-18.52 -35.06,-20.13 -194.3,-12.02 -182.23,-62.42 -236.97,-107.57 -4.06,-3.35 -85.06,-49.87 -102.96,-60.84 -124.57,-76.36 -102.34,16.02 -88.9,-81.72 -27.62,-7.1 -49.83,-29.99 -102.34,-38.97l-7.63 -108.22c-54.89,85.5 25.01,44.15 -68.78,77.81l-191.11 -27.38c-83.73,-20.51 -42.85,-23.27 -167.86,-11.9 -140.14,12.74 -38.9,-2.59 -146.99,-17.68 -120.59,-16.83 -233.27,5.22 -349.64,33.03 -129.37,30.9 -305.06,8.74 -445.2,60.96 -72.65,27.08 31.9,22.85 -97.63,31.72 -105.71,7.24 -176.63,31.28 -248.29,111.83 -122.39,1.42 -96.27,0.37 -198.16,27.02 -20.07,5.25 -73.98,13.48 -89.79,18.78 -46.29,15.51 12.82,52.88 -93.41,30.71z"/>
   <path class="fil0" d="M2116.85 2719.69c28.05,15.5 45.82,21.8 72.08,32.39 34.65,-34.05 26.89,-34.37 54.74,-69.1 150.3,-5.58 388.99,-19.95 556.48,11.09 41.58,7.7 88.9,16.71 126.74,33.4 48.3,21.32 65.95,24.54 116.99,45.92 190.91,79.97 181.8,201.75 92.97,184.83l-107.17 -7.07c-3.29,-0.41 -9.29,-2.8 -12.01,-3.32 -49.04,-9.49 6.69,-39.5 -17.72,-5.91 -110.11,-9.48 -104.42,5.93 -191.43,16.08 -132.18,15.43 -64.2,-10.68 -161.72,-21.77 7.53,-68.48 13.96,-27.37 -7.79,-69.08 -7.8,-14.97 -38.93,-61.84 -48.61,-75.16 -83.5,-3.07 -157.81,34.06 -206.33,83.34l-113.08 89.13c-2.21,1.76 -6.05,6.68 -9.07,10.03l-14.36 -25.11c-15.84,-18.5 2.34,-9.62 -12.17,-16.14 -13.04,-5.86 -24.89,7.83 -49.03,23.08 -2.05,-106.48 -16.91,-21.25 -43.28,-120.16 -12.6,-47.28 5.74,-43.44 -26.23,-116.47zm-238.15 -352.8c320.2,-24.72 253.75,-62 454.38,-84.71l210.2 12.38c87.28,-0.21 -13.58,-6.29 66.79,-8.01 26.91,-0.57 103.87,16.2 130.42,26.15l60.58 30.99c29.78,21.64 3.71,4.22 34.72,35.95 63.29,64.75 31.78,23.8 85.2,47.16l-25.13 82.12c-119.71,2.32 -129.59,-28.03 -258.42,0.64 -71.3,15.86 -184.17,-21.94 -303.51,41.22 -51.02,27 -26.28,19.4 -97.75,35.03l-106.98 34.61c-66.02,22.79 -31.85,-1.87 -86.26,38.8 -42.32,-12.56 -22.93,-1.56 -62.16,-33.37l-37.69 73.22 -27.16 -54.62c-38.45,23.85 -38.82,7.18 -108.21,17.71l-31.55 -138.92c2.7,-137.23 9.41,-15.75 102.53,-156.35zm-361.12 -95.24l-7.67 -11.25c-52.44,51.19 54.31,4.56 -71.3,46.55l-216.54 53.32c-57.66,7.55 -296.82,-14.46 -323.6,-52.13 -128.12,13.47 -354.19,-38.76 -493.81,-49.87l19.17 93.06c-1.24,1.87 3.13,0.46 3.72,3.44l13.83 7.64c1.09,0.97 5.33,4.37 6.52,5.61 1.34,1.39 4.95,5.75 6.27,7.35l19.36 30.42c62.43,-1.57 159.83,-68.27 394,25.42l173.67 40.03c82.53,28.24 -14.73,11.93 124.69,67.57 35.91,14.33 2.17,-9.73 30.6,19.78l59.31 117.4c0.33,3.66 -0.62,9.55 -0.63,13.18l-32.15 99.15c107.71,41.02 -81.71,-20.97 31.48,6.24 22.81,5.48 20.89,2.66 38.03,13.85l-43.51 64.12c-1.78,1.97 -6.46,5.87 -9.59,8.92 15.03,140.45 -9.72,111.52 -19.02,134.84 -0.77,1.93 -2.71,6.3 -3.38,8.22l-19.78 69.81c-54.58,-68.66 -1.95,-15.72 -140.62,-28.86 -109.6,-10.39 -134.1,-10.2 -199.87,32.81 -76.67,-96.17 -76.43,-23.38 -126.83,-181.22 -56.47,7.5 -73.08,19.09 -102.8,37.44l3.3 148.82c-45.4,44.63 -76.78,79.93 -138.65,105.16l-77.21 -89.65c12.1,-81.72 18.11,-112.91 7.33,-178.37 45.5,15.8 28.62,27.09 74.79,-17.07l41.08 -49.36c41.98,-39.92 82.47,-53.92 191.24,-52.58l16.51 -72.16c129.96,37.63 89.57,-12.38 98.31,-32.16 -25.31,-16.22 -52.04,-41.75 -115.37,-41.4 -71.28,0.39 -65.93,17.39 -105.27,52.68 -86.88,-57.03 -64.84,-28.04 -81.03,-25.21 -2.3,0.41 -7.44,2.02 -9.59,2.69 -1.97,0.62 -6.33,3.13 -8.22,3.95 -32.47,14.12 -3.68,18.48 -96.21,34.54 -6.34,70 -12.53,50.37 -60.03,87.3l-71.2 64c-4.24,-103.93 17.42,-21.89 -8.25,-128.61l-14.73 -138.55c-11.63,-60.03 -36.19,-40.48 -34.15,-188.77l-30.99 -12.14c-83.71,48.02 -8.1,281.51 8.9,360.65 19.22,89.52 66.52,285.92 62.05,374.33 21.68,21.2 15.54,5.08 27.25,48.09l111.79 448.54c66.03,-69.77 145.78,-88.52 244.72,-136.47 131.12,-63.55 151.18,-72.51 326.94,-59.92l329.42 -7.79c-27.75,-20.81 -4.11,-5.78 -18.3,-59.36 53.88,-51.54 -49.93,62.96 21.82,-24.79l34.95 -42.35c-73.94,6.77 -6,4.28 -36,-27.12 1.85,-5.42 5.81,-19.11 6.91,-15.73l24.71 -91.39c0.42,-3.12 1.49,-10.12 2.86,-15.04l25.94 -14.09c67.25,-49.61 -20.73,28.8 26.79,-23.26l18.59 7.18c3.21,7.33 -19.2,41.31 -12.96,-31.78 11,-128.96 -34.2,90.7 4.41,-31.69l76.01 -143.95c2.03,-3.71 4.81,-8.91 6.65,-12.32l13.77 -27.33c-22.68,-22.88 -17.63,-4.95 -35.24,-57.08 27.86,-16.85 31.55,-3.21 31.1,-40.16 -0.99,-81.52 4.28,-19.29 26.25,-101.77l145.44 152.76c0.85,1.8 0.55,7.33 1.39,8.84 1.7,3.08 29.55,16.38 56.65,25.2 -13.72,70.28 -14.29,63.27 -16.56,144.9 44.18,16.24 35.23,18.07 90.9,19.43 -21.77,28.84 -33.87,33.46 -38.85,75.06 98.28,-30.87 28.67,18.37 187.03,32.48 -15.55,58.49 -2.39,36.55 -33.48,70.01 99.95,-54.61 47.34,-6.87 111.64,23.5l38.36 8.62c49.21,12.87 44.16,44.14 40.11,-11.84l214.16 13.62 36.51 52.76c79.9,-5.73 38.4,-12.9 109.49,-2.53l-3.61 -48.84c96.33,-6.31 151.23,-38.3 205.68,33.11 22.11,-26.17 13.79,-21.89 53.24,-33.49 31.73,55.74 3.61,31.5 51.06,50.74l77.58 -68.73c79.2,-37.93 111.41,-49.97 111.97,-161.58l39.56 36.32c1.6,0.98 5.85,3.55 7.61,4.34l19.08 5.28c3.01,0.51 8.76,1.22 12.04,1.43 106.2,6.81 21.34,-10.27 126.96,-42.93 117.98,-36.47 151.88,21.54 210.26,-63.25 3.29,2.87 8.21,3.44 9.81,8.69l45.95 20.85 28.99 -76.08c68.23,16.61 25.51,-1.13 56.38,21.22 -33.17,-96.69 12.26,-100.53 18,-212.74l-43.46 -45.07c-23.81,-39.33 -22.33,-46.81 3.35,-90.75 -97.54,-43.78 -86.67,-82.11 -145.01,-147.28l-112.51 -81.03c-105.59,-29.67 -280.95,-128.7 -367.98,-204.93l-18.74 -18.51c-1.95,-1.86 -6.08,-6.25 -9.36,-9.11 -98.65,44.88 79.66,-51.5 -18.05,8.88l-22.95 14.55c-2.67,1.73 -8.59,6.07 -12.91,9.07l-6.07 -50.78 -120.22 -9.04c-72.65,-10.35 -27.77,40.65 -102.06,-31.99 -12.65,30.81 -6.37,19.6 -20.57,36.37 -2.36,2.78 -33.33,30.04 -37.52,34.06l-182.49 -48.81c-54.9,58.13 -0.91,20.76 -68.84,38.34 -36.71,9.5 -61.59,13.04 -104.46,23.52 -71.48,17.47 -22.08,15.25 -96.96,6.42 -44.7,-5.27 19.54,-17.88 -36.23,-6.09 -62.81,13.28 39.03,-32.88 -29.81,20.22 -2.42,1.86 -6.72,7.62 -10.43,11.07l-49.88 -38.54 -59.61 57.3c-45.38,-10.73 -137.68,-32.05 -169.49,11.22 -1.17,1.59 -2.95,6.32 -4.22,8.28 -1.7,2.62 -3.35,8.27 -5.23,11.24l-33.16 -28.18c-101.18,-17.29 -52.54,3.76 -149.02,1.07z"/>
   <path class="fil2" d="M1039.15 4942.95l187.35 -22.67c82.33,-0.6 106.99,24.65 173.26,11.68 49.62,-9.71 59,-32.59 132.28,-44.57 70.39,-11.51 95.34,-31.49 146.59,-35.39 76.4,-5.81 89.92,22.74 181.15,21.03 125.13,-2.35 253.52,-17.43 375.21,1.8 163.69,25.86 182.08,43.72 337.16,13.04 26.09,35.06 20.66,34.46 54.75,57.47l9.89 -83.99c-296.14,-120.12 -210.43,-23.6 -520.3,-78.23 -98.42,-17.35 27.43,6.32 -51.63,-19.8 -43.05,-14.23 -83.62,-6.27 -131.17,-16.79 -70.1,-15.49 -15.4,-23.64 -108.59,-29.52 -223.68,-14.11 -151.37,18.8 -162.84,-48.64 -87.34,42.06 -164.6,72.02 -275.88,85 -144.44,16.86 -330.03,-108.69 -493.35,27.2 -3.03,2.52 -6.87,6.49 -10.1,8.86l-48.71 24.66c-143.12,90.08 62.3,39.32 -226.23,119.45l76.83 23.21c-3.43,74.05 -13.34,69.97 -21.92,125.83 173.58,1.61 28.91,-40.02 188.99,-34.33l0.6 -71.02c151.94,-4.52 27.52,-36.75 186.66,-34.28z"/>
   <path class="fil2" d="M4417.58 3241.5l271.92 -55.39c-0.42,-2.3 27.13,-61.38 31.66,-71.65 36.77,12.01 62.15,3.3 92.69,4.59 116.48,4.96 -5.68,17.47 113.04,36.9 -6.92,-137.63 7.15,-122.36 -11.5,-273.35 -2.91,-23.51 -2.84,-29.59 -4.95,-50.8l-2.43 -25.08c-106.93,13.59 -4.76,0.61 -91.98,38.01 -214.95,92.16 -129.51,-98.41 -121.39,-137.89 -37.12,23.73 -12.76,1.37 -41.07,30.95l-56.68 90.61c-18.22,28.35 -28.43,36.09 -46,64.18 -21.36,34.15 -13.34,24.87 -29.85,63.23 -4.64,10.79 -33.21,65.48 -35.37,68.3 -0.3,0.39 -95.06,76.9 -68.09,217.39z"/>
   <path class="fil2" d="M1554.41 4071.15c-84.62,-5.6 -101.05,-46.9 -126.57,15.41 39.93,24.68 176.37,18.71 225.49,0l-104.15 -64.1c0.24,-3.81 -1.52,-2.95 -1.48,-0.32l6.71 49.01z"/>
   <path class="fil2" d="M1591.33 3977.01c42.58,41.33 119.51,49.23 177.21,54.45 -7.33,-60.58 12.62,-54.94 -53.59,-63.97 -42.81,-5.84 -88.35,-5.02 -123.62,9.52z"/>
   <path class="fil2" d="M1276.48 4266.47c0.46,-0.21 79.21,4.23 18.25,-102.34 -85.05,69.33 -19.74,100.16 -18.25,102.34z"/>
   <path class="fil2" d="M3483.93 5271.4l-52.09 -54.91c6.05,75.72 -28.79,48.98 52.09,54.91z"/>
   <path class="fil0" d="M2235.38 6012.94c135.83,-65.54 322.96,-103.13 485.22,-145.99 353.52,-93.36 635.47,-229.31 942.93,-341.72 74.29,-27.16 163.58,-70.54 227.94,-98.4l149.54 -91.12c76.82,-24.01 29.71,0.66 44.92,10.74 -41.22,52.58 -14.06,13.59 -73.31,52.97 -62.57,41.58 -118.34,65.17 -146.53,110.2l-17.95 57.38c81.17,-17.5 50.99,-13.71 72.83,-1.44 -36.17,28.78 -60.83,46.8 -100.7,80.14 -163.71,136.95 -93.88,12.97 -196.3,132.38 -2.49,2.91 -5.17,7.74 -7.67,10.63 -22.63,26.24 16.83,38.05 -112.8,51.71 12.48,59.25 18.57,25.76 -0.17,72.39 -4.37,-1.58 -9.79,-4.77 -12.47,-6.24 -119.15,-65 -103.28,-33.93 -133.19,24.99 -41.1,-27.06 -42.83,-41.1 -90.6,-18.1 40.6,52.41 36.6,20.27 53.62,71.43 -91.5,-0.83 -105.83,0.42 -145.35,55.9 -4.46,-1.61 -10.06,-4.85 -12.79,-6.23 -2.66,-1.35 -8.95,-5.03 -12.19,-6.6l-64.5 -21.6c-11.46,39.99 -18.14,31.95 -10.18,62.07l29.71 48.29c-51.13,-0.92 -84.32,1.58 -125.19,21.5l-78.98 67.83c-37.13,41.73 -59.05,135.02 -149,91.82 -24,37.96 -36.06,58.32 -108.18,88.39l-382.77 180.03c-74.58,-245.53 -79.56,-269.37 -25.89,-553.35zm1196.46 -796.45l52.09 54.91c-80.88,-5.93 -46.04,20.81 -52.09,-54.91zm-2205.34 -296.21c41.85,95.37 142.58,50.12 323.45,10.26 116.42,-25.66 507.52,-19.9 639.38,-14.02 101.65,4.54 134.17,44.87 259.52,43.65 15.14,101.27 18.48,45.01 38.54,117.32 26.31,94.84 -10.61,42.21 62.62,107.17l-54.06 67.77c-54.99,-47.04 -15.47,-37.79 -73.64,-17.62 28.82,45.44 3.15,16.01 49.68,48.86 32.05,22.64 14.7,5.74 41.09,28.51 36.25,-19.19 22.72,-5.8 54.1,-35.88 -3.51,70.7 -22.92,61.14 -93.65,65.82 25.19,57.17 43.14,49.08 59.64,59.11 -13.78,46.14 -14.01,31.49 -20.74,86.48 -110.78,-25.42 -48.88,-3.29 -160.38,3.38 28.03,63.06 0.24,47.33 -1.45,144.46 -136.78,15.46 -59.02,56.44 -148.54,83.97 -44.79,13.77 -163.14,9.47 -215.15,9.42 -21.37,31.47 -44.1,53.26 -71.7,84.43l-200.75 -1.26 -18.24 -49.69 -235.33 0.63 22.91 -82.03c1.41,-2.74 5.79,-5.78 6.86,-12.49 1.09,-6.87 4.74,-8.54 6.41,-13.11 -268.86,8.17 -155.39,-19.7 -361.93,-1.61 4.89,-108.72 36.16,-36.94 41.76,-182.83l73.04 -22.31c-9.79,-114.41 2.83,-36.43 -36.18,-92.26 132.3,0.15 258.45,7.55 388.98,-22 67.22,-15.21 24.89,-18.08 118.45,-18.22 -15.06,-46.69 -11.59,-24.34 -24.9,-44.1 -85.85,-127.47 21.18,21.02 -40.74,-97.69l-277.87 -21.47c-15.39,-27.33 -6.04,-17.57 -17.56,-47.16l-28.89 -55.4c-146.27,7.32 -96.36,80.55 -296.67,-50.9l4.59 -56.52c-159.14,-2.47 -34.72,29.76 -186.66,34.28l-0.6 71.02c-160.08,-5.69 -15.41,35.94 -188.99,34.33 8.58,-55.86 18.49,-51.78 21.92,-125.83l-76.83 -23.21c288.53,-80.13 83.11,-29.37 226.23,-119.45l48.71 -24.66c3.23,-2.37 7.07,-6.34 10.1,-8.86 163.32,-135.89 348.91,-10.34 493.35,-27.2 111.28,-12.98 188.54,-42.94 275.88,-85 11.47,67.44 -60.84,34.53 162.84,48.64 93.19,5.88 38.49,14.03 108.59,29.52 47.55,10.52 88.12,2.56 131.17,16.79 79.06,26.12 -46.79,2.45 51.63,19.8 309.87,54.63 224.16,-41.89 520.3,78.23l-9.89 83.99c-34.09,-23.01 -28.66,-22.41 -54.75,-57.47 -155.08,30.68 -173.47,12.82 -337.16,-13.04 -121.69,-19.23 -250.08,-4.15 -375.21,-1.8 -91.23,1.71 -104.75,-26.84 -181.15,-21.03 -51.25,3.9 -76.2,23.88 -146.59,35.39 -73.28,11.98 -82.66,34.86 -132.28,44.57 -66.27,12.97 -90.93,-12.28 -173.26,-11.68zm2332.55 -289.79c-68,-6.04 -55.18,13.45 -71.41,-65.82 49.78,13.05 47.85,14.32 71.41,65.82zm-1896.79 37.88c-16.77,-20.24 -9.59,-42.43 -108.11,-22.39 -45.99,9.36 -61.67,17.14 -99.3,33.3 -153.73,66.02 -96,-32.02 -379.11,-15.19 -112.16,6.66 -120.51,-31.68 -182.49,49.34 -38.05,-9.79 -22.78,-7.59 -72.99,-14.57l-91.25 75.29c-25.18,-30.78 -49.44,-49.99 -69.46,-85.03 1.55,-4.07 5.09,-9.23 6.25,-11.45 1.13,-2.18 5.26,-8.34 6.5,-10.99l10.24 -20.89c7.89,-34.32 -10.77,-47.2 -17.86,-64.67l64.8 -92.35 105.98 22.09 -55.47 50.44c24.46,15.07 5.1,4.57 34.75,11.78l169.76 32.45 109.49 -110.36c92.3,-3.57 72.14,-0.81 127.74,-39.17 85.86,83.88 54.28,71.91 166.33,70.39 0.62,-162.04 1.16,-140.33 66.09,-206.6l129.67 -74.37c9.28,-68.68 0.47,-33.55 21.14,-59.53 68.97,-2.63 223.53,-39.01 269.32,-65.64 84.15,-48.93 11.05,-32.09 113.53,-43.92 79.79,-9.2 69.13,-21.39 146.37,-28.14l180.11 223.22c15.98,23.6 10.11,-12.85 19.31,51.41 0.14,0.97 -0.72,48.74 -0.6,54.76 141.75,20.41 44.22,31.76 123.24,96.28l-52.01 32.66c57.26,47.57 34.79,11.15 55.95,54.78l-93.58 13.28c-4.09,63.85 10.16,43.4 -37.88,70.61 -124.35,70.46 -630.98,14.72 -666.46,23.18zm-385.78 -401.9c-1.49,-2.18 -66.8,-33.01 18.25,-102.34 60.96,106.57 -17.79,102.13 -18.25,102.34zm271.22 -244.33c-0.04,-2.63 1.72,-3.49 1.48,0.32l104.15 64.1c-49.12,18.71 -185.56,24.68 -225.49,0 25.52,-62.31 41.95,-21.01 126.57,-15.41l-6.71 -49.01zm43.63 -45.13c35.27,-14.54 80.81,-15.36 123.62,-9.52 66.21,9.03 46.26,3.39 53.59,63.97 -57.7,-5.22 -134.63,-13.12 -177.21,-54.45zm-73.75 -1705.36c96.48,2.69 47.84,-18.36 149.02,-1.07l33.16 28.18c1.88,-2.97 3.53,-8.62 5.23,-11.24 1.27,-1.96 3.05,-6.69 4.22,-8.28 31.81,-43.27 124.11,-21.95 169.49,-11.22l59.61 -57.3 49.88 38.54c3.71,-3.45 8.01,-9.21 10.43,-11.07 68.84,-53.1 -33,-6.94 29.81,-20.22 55.77,-11.79 -8.47,0.82 36.23,6.09 74.88,8.83 25.48,11.05 96.96,-6.42 42.87,-10.48 67.75,-14.02 104.46,-23.52 67.93,-17.58 13.94,19.79 68.84,-38.34l182.49 48.81c4.19,-4.02 35.16,-31.28 37.52,-34.06 14.2,-16.77 7.92,-5.56 20.57,-36.37 74.29,72.64 29.41,21.64 102.06,31.99l120.22 9.04 6.07 50.78c4.32,-3 10.24,-7.34 12.91,-9.07l22.95 -14.55c97.71,-60.38 -80.6,36 18.05,-8.88 3.28,2.86 7.41,7.25 9.36,9.11l18.74 18.51c87.03,76.23 262.39,175.26 367.98,204.93l112.51 81.03c58.34,65.17 47.47,103.5 145.01,147.28 -25.68,43.94 -27.16,51.42 -3.35,90.75l43.46 45.07c-5.74,112.21 -51.17,116.05 -18,212.74 -30.87,-22.35 11.85,-4.61 -56.38,-21.22l-28.99 76.08 -45.95 -20.85c-1.6,-5.25 -6.52,-5.82 -9.81,-8.69 -58.38,84.79 -92.28,26.78 -210.26,63.25 -105.62,32.66 -20.76,49.74 -126.96,42.93 -3.28,-0.21 -9.03,-0.92 -12.04,-1.43l-19.08 -5.28c-1.76,-0.79 -6.01,-3.36 -7.61,-4.34l-39.56 -36.32c-0.56,111.61 -32.77,123.65 -111.97,161.58l-77.58 68.73c-47.45,-19.24 -19.33,5 -51.06,-50.74 -39.45,11.6 -31.13,7.32 -53.24,33.49 -54.45,-71.41 -109.35,-39.42 -205.68,-33.11l3.61 48.84c-71.09,-10.37 -29.59,-3.2 -109.49,2.53l-36.51 -52.76 -214.16 -13.62c4.05,55.98 9.1,24.71 -40.11,11.84l-38.36 -8.62c-64.3,-30.37 -11.69,-78.11 -111.64,-23.5 31.09,-33.46 17.93,-11.52 33.48,-70.01 -158.36,-14.11 -88.75,-63.35 -187.03,-32.48 4.98,-41.6 17.08,-46.22 38.85,-75.06 -55.67,-1.36 -46.72,-3.19 -90.9,-19.43 2.27,-81.63 2.84,-74.62 16.56,-144.9 -27.1,-8.82 -54.95,-22.12 -56.65,-25.2 -0.84,-1.51 -0.54,-7.04 -1.39,-8.84l-145.44 -152.76c-21.97,82.48 -27.24,20.25 -26.25,101.77 0.45,36.95 -3.24,23.31 -31.1,40.16 17.61,52.13 12.56,34.2 35.24,57.08l-13.77 27.33c-1.84,3.41 -4.62,8.61 -6.65,12.32l-76.01 143.95c-38.61,122.39 6.59,-97.27 -4.41,31.69 -6.24,73.09 16.17,39.11 12.96,31.78l-18.59 -7.18c-47.52,52.06 40.46,-26.35 -26.79,23.26l-25.94 14.09c-1.37,4.92 -2.44,11.92 -2.86,15.04l-24.71 91.39c-1.1,-3.38 -5.06,10.31 -6.91,15.73 30,31.4 -37.94,33.89 36,27.12l-34.95 42.35c-71.75,87.75 32.06,-26.75 -21.82,24.79 14.19,53.58 -9.45,38.55 18.3,59.36 127.76,-3.29 218.24,14.82 246.68,-41.66 38.12,53.79 37.12,38.36 129.83,38.29 -27.02,51.55 -22.93,39.03 18.09,85.19 96.31,-97.82 126.73,-99.57 312.53,-106.1 280.45,-9.85 515.57,11.49 818.84,-13.6l370.9 -35.55c13.77,-57.75 96.71,-145.46 147.11,-183.77 55.51,-42.22 205.79,-35.34 267.82,-28.39l165.27 3.02c5.58,111.54 57.33,155.01 -20.81,188.57l-153.25 49.94c11.22,26.73 9.54,45.6 17.45,65.51l31.03 44.04c-57.47,46.74 -107.01,92.34 -150.25,29.52 -6.25,14.06 2.11,30.28 9.96,73.2 -6.35,-2.39 -13.68,-5.46 -18.87,-7.67 -51.9,-22.09 -45.77,-33.25 -84.86,-21.75l-99.63 30.94c-39.16,7.64 -166.96,27.82 -218.77,30.82l38.11 72.88c-74.17,-6 -11.16,2.04 -93.13,-30.58 -145.14,-57.76 -16.58,-29.67 -98.53,-59.44 -17.38,42.82 1.14,80.1 7.4,126.53 -73.09,-3.04 -152.28,-34.48 -236.19,-7.08 16.89,47.77 -10.57,2.88 30.13,29.22 11.63,7.53 26.06,20.38 28.79,15.85 2.76,-4.56 10.75,5.96 15.6,9.71 -65.53,51.56 -67.59,22.8 -111.35,47.27l-1.2 124.31 -88.67 28.88c-2.86,-4.61 -10.66,5.01 -16.24,6.83 -14.65,-42.28 27.59,-69.4 -43.01,-74.97 18.42,51.67 31.5,38.74 -4.98,93.31 -63.37,-30.98 -14.17,-70.9 -98.47,-39.56l18.56 -68.95c-108.31,-5.42 -70.95,-31.6 -152.04,-10.29 -18.58,-90.52 -62.9,-92.89 -115.24,-142.69 -62.23,-59.22 -30.43,-91.4 -144.4,-90.66 1.4,157.18 -8.34,146.66 -87.88,240.42l-497.35 -41.57c-93.91,-1.39 -65.7,13.11 -139.89,23.46 -77.57,10.82 2.89,2.26 -42.13,-6.67 -71.11,-14.09 3.84,17.74 -79.89,9.29 -101.79,-10.28 -94.56,-66.6 -152.87,4.41 -10.37,-83.6 -37.96,-51.06 13.83,-102.82l-33 -21.38c-82.59,-82.29 -70.97,-237.87 -34.45,-328.47 -175.76,-12.59 -195.82,-3.63 -326.94,59.92 -98.94,47.95 -178.69,66.7 -244.72,136.47l-111.79 -448.54c-11.71,-43.01 -5.57,-26.89 -27.25,-48.09 -2.07,98.52 -20.48,164.4 -97.38,211.23 4.75,300.9 -55.01,297.26 37.12,633.74 10.98,40.08 18.26,65.87 27.21,107.23 18.9,87.42 12.38,136.29 67.36,190.89 -5.16,239.32 31.05,150.25 57.94,261.55 31.04,128.44 3.6,317.14 22.1,452.1 12.2,89.02 13.32,30.25 33.22,109.54 12.54,49.94 11.51,72.96 31.26,122.33 1.56,3.9 4.59,8.57 6.11,12.17l9.98 79.55c85.92,15.71 42.42,-1.11 67.98,41.37l77.8 122.81c11.42,18.86 6.35,13.55 21.46,34.78 49.18,69.05 115.14,111.19 169.35,177.39 16.24,19.83 7.87,19.68 38.52,47.15 -22.04,142.2 20.6,145.85 114.72,224.38 4.18,3.49 15.91,13.9 20.05,17.22 88.85,71.28 113.31,137.29 176.26,202.59 68.9,71.45 163.58,85.3 243.4,140.3 43.65,30.08 21.37,17.14 38.62,38.59 -208.83,-25.59 -464.63,-248.66 -549.57,-286.19 -42.81,38.6 -106.1,86.61 -130.06,140.43 -32.02,71.89 -12.53,10.95 2.6,41.08l-108.8 14.51c67.9,188.86 -223.01,409.34 -347.23,526.45 -258.84,244.05 -512.72,110.2 -63.5,482.48 115.41,95.65 181.18,161.15 336.76,164.79 40.39,67.59 -12.03,19.1 50.94,53.08 79.24,42.77 114.59,39.51 143.86,126.78 102.83,-19.83 119.5,-20.08 243.18,-14.56l36.49 -54.94c40.83,41.8 138.19,65.21 200.74,34.91l26.51 40.26c1.28,-3.41 6.69,8.04 9.99,12.11 171.6,-12.67 235.37,-70.91 437.97,-19.95 192.1,-118.49 766.57,-103.6 886.93,-133.01 115.3,-28.18 186,-46.27 285.49,-30.44 78.25,-120.29 131.14,-60.05 274.77,-217.43 3.57,-3.9 15.22,-14.32 18.7,-18.53l40.07 -71.09 113.06 -2.07 -248.61 288.63c-72.25,86.71 -119.23,102.33 -125.53,232.43 103.63,-6.84 71.79,-0.6 101.91,-36.68l68.13 13.88c6.46,-3.89 42.84,-27.7 227.48,-19.66l33.75 -30.62c64.37,-62.33 77.86,-77.04 173.41,-65.02 14.05,-120.05 74.7,-120.57 128.87,-199.78 -9.35,-14.84 -22.23,-51.76 -27.98,-64.79 49.01,37.55 -29.75,24.27 86.9,32.66 0.68,-36.18 3.5,-30.46 -1.72,-64.53 -11.82,-77.08 -13.85,-23.39 -15.56,-24.67 53.24,33.22 19.22,16.11 92.85,20.03 6.72,-18.92 17.65,-51.59 26.51,-67.52 1.7,-3.07 5.27,-7.82 6.88,-10.48l21.36 -33.01c30.82,24.23 13.14,17.99 67.73,30.89l5.1 -84.38 106.51 -34.98c4,-2.09 7.9,-5.74 11.8,-7.68l59.36 -17.1c-25.55,-29.69 -14.16,-31.41 -54.64,-50.12l60.26 -17.93c-30.24,-54.02 7.68,-31.48 -52.57,-69.24 14.68,-20.68 11.48,6.82 18.48,-54.87l143.99 -72.95c-20.26,-43.33 14.04,-23.61 -18.65,-36.61 92.83,32.69 -70.8,17.1 89.15,26.39 -17.83,-84.18 1.8,-23.01 -21.94,-71.11 108.89,2.46 115.51,-34.01 113.19,-137.78 31.71,-18.99 22.45,-10.08 41.9,-41.76 19,38.48 14.12,24.1 46.61,51.72l73.48 -101.25c-22.8,-22.24 -5.08,-25.27 -49.53,-36.52 78.37,-26.01 82.02,-42.62 121.24,-116.09 204.05,-17.67 47.71,-137.53 217.22,-151.7 -44.66,-199.39 35.7,0.56 141.09,-353.03 -91.18,-86.43 -212.4,-186.55 -269.46,-299.21l-170.6 -392.26c-28.18,-86.22 -108.57,-131.98 -176.06,-184.97 22.4,-141.93 93,-218.62 175.97,-331.83 40.22,-54.87 67.19,-136.48 94.59,-159.04l141.47 -111.59c75.29,-80.93 107.89,-143.89 142.8,-238.56 40.9,-110.92 -25.78,-324.2 36.44,-421.41 152.19,-237.77 76.86,78.17 -19.36,88.76 -5.38,15.48 -14.89,49.51 -22.15,64.81 -17.7,37.34 3.46,26.1 -35.26,46.26 -78.72,40.99 -40.28,-2.62 -63.37,1.9l-28.23 17.8c-1.63,-4.01 -6.53,7.6 -10.16,11.05l-36.5 -56.22c-74.12,29.06 -33.64,34.54 -156.36,37.4 0,77.33 18.83,80.07 47.74,135.11l96.96 -20.17c-16.22,129.29 -12.33,13.24 -33.27,84.58 -8.38,28.55 -3.52,61.06 -2.75,91.33 -31.61,-11.46 -42.95,-21.72 -71.59,-14.39 -43.11,11.02 7.76,-3.29 -33.65,20.65l-29.57 15.79c-68.88,-20.15 -21.54,5.52 -72.99,-38.05 -39.13,36.93 -59.82,44.09 -113.42,16 -3.49,-1.83 -7.9,-4.77 -11.43,-6.45l-64.48 -18.97c9.94,-47.75 11.37,-85.53 16.6,-146.5 3.09,-36.12 4.6,-41.65 11.75,-63.26 0.23,-0.7 9.16,-21.7 11.56,-27l32.33 -74.62c27.11,-67.9 0.78,-7.53 26.16,-51.62 21.52,-37.35 34.59,-57.62 46.07,-100.31l74.44 34.43c14.28,-17.29 30.34,-39.51 58.06,-52.37 68.66,-31.86 94.5,12.59 217.36,-48.18 4.85,-88.43 14.26,-154.95 -14.07,-218.54 -54.4,-122.1 -71.81,-11.92 -82.91,-161.2l170.35 -59.27c2.4,-1.77 9.85,-2.24 11.64,-8.29 1.86,-6.27 8.24,-5.47 12.09,-8.57 -118.72,-19.43 3.44,-31.94 -113.04,-36.9 -30.54,-1.29 -55.92,7.42 -92.69,-4.59 -4.53,10.27 -32.08,69.35 -31.66,71.65l-271.92 55.39 -31.46 -7.15c-29.23,40.12 -46.7,39.48 -153.32,28.79l-36.94 -106.4c-22.52,-60.18 -15.94,-59.53 -16.97,-129.22l-129.59 -234.89c-32.57,-53.11 -8.79,-10.44 -39.77,-50.94 -111.32,-145.53 7.55,-37.53 -132.81,-108.03 -4.5,-87.8 -30.24,-118 -56.09,-184.25l-90.4 22.95c-28.84,-70.89 -7.45,-106.97 -109.67,-109.89l-23 -210.68c-4.95,-17.63 -9.82,-6.96 -10.59,-34.05l32.25 -87.59c-3.54,-4.73 -8.46,-10.45 -11.2,-13.76l-42.87 -58.77c35.02,-19.62 44.37,-19.35 101.94,-22.21 65.28,-76.96 131.26,-98.82 194.01,-142.29 -43.5,85.48 -27.52,16.76 -65.49,138.07 92.98,-4.72 55.19,4.22 122.26,-30.2 -20.44,59.87 -156.95,123.02 -31.8,273.47 84.08,-11.26 167.6,-93.42 233.8,-59.9 -100.12,55.11 -39.47,-26.32 -76.56,64.89 103.04,-12.14 143.32,6.14 182.33,-101.41 -90.49,-103.52 -136.71,-60.88 -225.71,-58.13 5.49,-60.87 4.84,-34.18 18.46,-67.84 17.77,-43.91 -0.31,16.81 16.4,-40.01 44.69,-152.01 19.63,-39.66 60.41,-136.2 75.4,-3.89 121.32,-17.63 181.49,-39.2 9.89,-37.65 18.88,-61.87 28.19,-104.2 4.86,-22.08 11.56,-34.07 7.02,-64.39 -7.38,-49.24 -3.05,-16.25 -24.35,-43.01l-20.48 40.16c-13.27,26.07 -4.59,29.72 -47.05,60.71 -49.77,36.32 58.57,-19.94 -23.72,9.94 -41.98,-34.46 -13.93,-13.53 -30.14,-36.86l-24.6 -36.68c-39.29,40.73 -16.87,18.84 -37.39,28.06 -90.3,40.57 53.56,-19.08 -20.17,5.02 -1.76,0.58 -9.28,6.98 -10.57,3.65 -1.37,-3.56 -7.64,2.4 -11.16,4.24l32.45 60.14c8.49,41.59 5.42,6.36 -12.77,44.05l-49.89 -53.52c-3.45,3.35 -7.58,8.47 -9.76,10.64l-61.56 44.38c-10.85,-22.21 -50.49,-15.15 23.71,-87.43 -4.24,-3.29 -10.03,-7.87 -12.78,-9.81l-42.47 -26.71c33.34,-41.49 64.63,-83.46 78.71,-146.07 -4.95,-4.35 -11.7,-8.73 -16.02,-11.59l-48.5 -30.7c-0.06,-0.08 -18.82,-52.62 -22.75,-63.63l-108.68 -3.55c-11.05,-86.91 78.78,-51.94 115.45,-67.87 53.45,-23.22 16.29,11.56 42.07,-52.02 -104.71,-5.71 -205.19,1.47 -303.34,-3.08 -124.77,-5.77 5.82,-27.54 -218.04,-50.86 -37.97,-80.03 -19.59,-63.45 -138.82,-54.79l3.53 71.42c76.43,47.46 1.39,41.43 116.73,49.8 -12.91,30.86 -15.52,32.2 -34.73,52.04 55.95,1.77 64.96,-5.9 107.88,-16.48l27.89 44.54c1.08,-2.83 5.85,6.6 10.94,13.14l87.31 -58.17c0.45,76.55 -26.08,82.6 -26.11,82.52 -1.17,-2.86 -6.96,6.37 -10.07,9.9 91.01,15.84 61.86,25.21 89.8,93.58l217.54 0.45c-34.58,62.59 -28.21,74.41 -123.08,88.26 12.38,43.03 16.04,35.04 16.8,87.6l-94.97 50.49c-2.82,2.6 -5.79,7.23 -8.53,9.95 -2.77,2.74 -5.32,7.71 -8.14,10.44 -2.82,2.73 -5.65,7.46 -8.65,10.04 -106.43,91.9 -130.18,-20.28 -137.6,172.3 -103.61,17.59 -68.97,17.97 -95.83,88.92 -42.78,113.01 -54.9,20.55 -110.81,145.91 -1.69,3.79 -4.45,8.68 -5.93,12.34 -38.01,93.85 -24.99,9.51 -11.27,42.49 32.6,78.38 23.24,-12.86 95.77,25.24l-52.38 34.52c-122.5,70.39 -269.74,-44.02 -376.32,-96.17 -65.32,-31.97 -130.47,-60.66 -194.77,-95.39 -59.51,-32.15 -130.1,-85.17 -204.55,-77.38 -61.89,6.47 -699.55,226.94 -946.15,255.9 24.71,-70.55 29.46,-18.36 53.25,-82.85l-53.41 13.83c5.48,-24.16 15.14,-62.43 15.11,-63.57l-37.8 -57.53c-3.11,-1.66 -8.9,-3.9 -12.02,-5.05 -26.55,-9.8 -23.84,-1.87 -48.49,-0.46 -31.05,48.06 -43.7,91.84 -17.99,158.41 1.39,3.62 4.59,8.44 6.02,11.62l13.44 25.91c1.17,-3.09 4.94,9.65 6.8,14.73l-31.86 34.73c-1.67,-3.37 -5.53,8.94 -9.05,12.8z"/>
   <path class="fil3" d="M4767.8 2628.01c-42.55,35.68 -44.11,44.13 -73.16,78.83 -8.12,39.48 -93.56,230.05 121.39,137.89 87.22,-37.4 -14.95,-24.42 91.98,-38.01l2.43 25.08c2.11,21.21 2.04,27.29 4.95,50.8 18.65,150.99 4.58,135.72 11.5,273.35 64.62,-4.04 51.69,46.66 77.03,104.95l50.08 130.92c52.23,-19.5 38.62,16.29 39.23,-86.87l107.24 -3.16 49.2 -170.16c57.36,-147.19 -46.82,-281.9 -175.95,-342.06l-25.05 -12.31c-164.78,-49.41 -201.59,13.63 -315.12,4.38 0.48,-96.29 71.01,-149.01 173.02,-153.9l32.9 93.74c12.34,-82.77 -1.71,-697.74 -22.38,-779.36 -14.02,-55.39 28.35,-583.57 -162.16,-680.66 -5.22,157.35 -31.48,0.91 -36.21,159.25 4.43,2.85 10.91,6.17 14.02,7.27l59.46 10.99c9.86,312.24 28.34,158.63 69.49,255.63 6.97,99.9 -24.14,163.09 -10.01,235.67 24.21,124.43 55.33,7.53 29.95,185.16 -23.72,166.01 44.34,315.3 31.68,471.91l-145.51 40.67z"/>
   <path class="fil0" d="M898.47 2308.14c26.78,37.67 265.94,59.68 323.6,52.13l216.54 -53.32c125.61,-41.99 18.86,4.64 71.3,-46.55 -273.25,17.18 -71.49,-26.19 -234.24,-30.81 19.88,-49.95 31.16,-56.19 36.99,-131.03 -88.78,33.03 20.54,29.6 -104.67,37.8 12.14,44.28 7.87,19.74 15.2,71.11 -142.38,16.59 -35.55,32.49 -159.1,42.95 57.06,105.25 -34.28,52.77 -165.62,57.72z"/>
   <path class="fil3" d="M893.51 619.85c123.57,12.68 1.66,-21.61 66.11,-44.25 13.56,-4.77 72.37,-4.67 88.19,-5.18 -23.29,-72.22 -18.01,-52.2 17.57,-114.72l18.05 -34.81c-65.83,18.6 -73.58,30.52 -118.75,66.09 -55.37,43.6 -57.94,42.51 -71.17,132.87z"/>
   <path class="fil3" d="M1806.35 3538.78c27.85,15.13 -30.37,13.93 38.12,15.28 95.45,1.88 22.16,1.57 53.91,-15.28 -18.88,-106.28 -74.26,-38.33 -92.03,0z"/>
   <path class="fil3" d="M4459.65 6669.58c-98.86,9.78 -35.51,-19.91 -58.97,59.01 65.29,-27.5 39.73,13.08 58.97,-59.01z"/>
   <path class="fil0" d="M380.89 2267.45l23.77 -9.18c139.62,11.11 365.69,63.34 493.81,49.87 131.34,-4.95 222.68,47.53 165.62,-57.72 123.55,-10.46 16.72,-26.36 159.1,-42.95 -7.33,-51.37 -3.06,-26.83 -15.2,-71.11 125.21,-8.2 15.89,-4.77 104.67,-37.8 -5.83,74.84 -17.11,81.08 -36.99,131.03 162.75,4.62 -39.01,47.99 234.24,30.81l7.67 11.25c3.52,-3.86 7.38,-16.17 9.05,-12.8l31.86 -34.73c-1.86,-5.08 -5.63,-17.82 -6.8,-14.73l-13.44 -25.91c-1.43,-3.18 -4.63,-8 -6.02,-11.62 -25.71,-66.57 -13.06,-110.35 17.99,-158.41 24.65,-1.41 21.94,-9.34 48.49,0.46 3.12,1.15 8.91,3.39 12.02,5.05l37.8 57.53c0.03,1.14 -9.63,39.41 -15.11,63.57l53.41 -13.83c-23.79,64.49 -28.54,12.3 -53.25,82.85 246.6,-28.96 884.26,-249.43 946.15,-255.9 74.45,-7.79 145.04,45.23 204.55,77.38 64.3,34.73 129.45,63.42 194.77,95.39 106.58,52.15 253.82,166.56 376.32,96.17l52.38 -34.52c-72.53,-38.1 -63.17,53.14 -95.77,-25.24 -13.72,-32.98 -26.74,51.36 11.27,-42.49 1.48,-3.66 4.24,-8.55 5.93,-12.34 55.91,-125.36 68.03,-32.9 110.81,-145.91 26.86,-70.95 -7.78,-71.33 95.83,-88.92 7.42,-192.58 31.17,-80.4 137.6,-172.3 3,-2.58 5.83,-7.31 8.65,-10.04 2.82,-2.73 5.37,-7.7 8.14,-10.44 2.74,-2.72 5.71,-7.35 8.53,-9.95l94.97 -50.49c-0.76,-52.56 -4.42,-44.57 -16.8,-87.6 94.87,-13.85 88.5,-25.67 123.08,-88.26l-217.54 -0.45c-27.94,-68.37 1.21,-77.74 -89.8,-93.58 3.11,-3.53 8.9,-12.76 10.07,-9.9 0.03,0.08 26.56,-5.97 26.11,-82.52l-87.31 58.17c-5.09,-6.54 -9.86,-15.97 -10.94,-13.14l-27.89 -44.54c-42.92,10.58 -51.93,18.25 -107.88,16.48 19.21,-19.84 21.82,-21.18 34.73,-52.04 -115.34,-8.37 -40.3,-2.34 -116.73,-49.8l-3.53 -71.42c-366.17,-130.32 -276.57,-143.43 -413.41,-205.31l-348.13 -144.86c-68.06,-51.09 8.01,-34.41 -84.86,-60.27 -170.94,-47.61 -393.59,-40.27 -602.58,-40.51 -33.86,-0.04 -259.68,14.18 -261.62,14.84 -44.2,15.02 33.11,7.98 -66.92,24.46 -101.88,16.78 -331.09,97.71 -396.39,152.59 -45.03,37.84 5.34,5.86 -56.93,32.15 -21.65,9.14 -21.05,4.12 -50.56,24.56 -132.86,92.01 -226.41,181.44 -326.07,311.97 -41.02,53.72 -19,40.45 -41.15,106.53 -26.68,79.6 -39.63,46.89 -57.03,106.86 -46.08,158.82 -1.31,44.77 -96.72,231.54 -24.86,48.67 -24.32,23.8 -46.1,100.11 -29.41,103.04 -116.36,427.8 -79.92,511.91z"/>
   <path class="fil0" d="M1898.38 3538.78c-31.75,16.85 41.54,17.16 -53.91,15.28 -68.49,-1.35 -10.27,-0.15 -38.12,-15.28 17.77,-38.33 73.15,-106.28 92.03,0zm-578.52 -83.75l-329.42 7.79c-36.52,90.6 -48.14,246.18 34.45,328.47l33 21.38c-51.79,51.76 -24.2,19.22 -13.83,102.82 58.31,-71.01 51.08,-14.69 152.87,-4.41 83.73,8.45 8.78,-23.38 79.89,-9.29 45.02,8.93 -35.44,17.49 42.13,6.67 74.19,-10.35 45.98,-24.85 139.89,-23.46l497.35 41.57c79.54,-93.76 89.28,-83.24 87.88,-240.42 113.97,-0.74 82.17,31.44 144.4,90.66 52.34,49.8 96.66,52.17 115.24,142.69 81.09,-21.31 43.73,4.87 152.04,10.29l-18.56 68.95c84.3,-31.34 35.1,8.58 98.47,39.56 36.48,-54.57 23.4,-41.64 4.98,-93.31 70.6,5.57 28.36,32.69 43.01,74.97 5.58,-1.82 13.38,-11.44 16.24,-6.83l88.67 -28.88 1.2 -124.31c43.76,-24.47 45.82,4.29 111.35,-47.27 -4.85,-3.75 -12.84,-14.27 -15.6,-9.71 -2.73,4.53 -17.16,-8.32 -28.79,-15.85 -40.7,-26.34 -13.24,18.55 -30.13,-29.22 83.91,-27.4 163.1,4.04 236.19,7.08 -6.26,-46.43 -24.78,-83.71 -7.4,-126.53 81.95,29.77 -46.61,1.68 98.53,59.44 81.97,32.62 18.96,24.58 93.13,30.58l-38.11 -72.88c51.81,-3 179.61,-23.18 218.77,-30.82l99.63 -30.94c39.09,-11.5 32.96,-0.34 84.86,21.75 5.19,2.21 12.52,5.28 18.87,7.67 -7.85,-42.92 -16.21,-59.14 -9.96,-73.2 43.24,62.82 92.78,17.22 150.25,-29.52l-31.03 -44.04c-7.91,-19.91 -6.23,-38.78 -17.45,-65.51l153.25 -49.94c78.14,-33.56 26.39,-77.03 20.81,-188.57l-165.27 -3.02c-62.03,-6.95 -212.31,-13.83 -267.82,28.39 -50.4,38.31 -133.34,126.02 -147.11,183.77l-370.9 35.55c-303.27,25.09 -538.39,3.75 -818.84,13.6 -185.8,6.53 -216.22,8.28 -312.53,106.1 -41.02,-46.16 -45.11,-33.64 -18.09,-85.19 -92.71,0.07 -91.71,15.5 -129.83,-38.29 -28.44,56.48 -118.92,38.37 -246.68,41.66z"/>
   <path class="fil0" d="M1226.5 4920.28l-187.35 22.67 -4.59 56.52c200.31,131.45 150.4,58.22 296.67,50.9l28.89 55.4c11.52,29.59 2.17,19.83 17.56,47.16l277.87 21.47c61.92,118.71 -45.11,-29.78 40.74,97.69 13.31,19.76 9.84,-2.59 24.9,44.1 -93.56,0.14 -51.23,3.01 -118.45,18.22 -130.53,29.55 -256.68,22.15 -388.98,22 39.01,55.83 26.39,-22.15 36.18,92.26l-73.04 22.31c-5.6,145.89 -36.87,74.11 -41.76,182.83 206.54,-18.09 93.07,9.78 361.93,1.61 -1.67,4.57 -5.32,6.24 -6.41,13.11 -1.07,6.71 -5.45,9.75 -6.86,12.49l-22.91 82.03 235.33 -0.63 18.24 49.69 200.75 1.26c27.6,-31.17 50.33,-52.96 71.7,-84.43 52.01,0.05 170.36,4.35 215.15,-9.42 89.52,-27.53 11.76,-68.51 148.54,-83.97 1.69,-97.13 29.48,-81.4 1.45,-144.46 111.5,-6.67 49.6,-28.8 160.38,-3.38 6.73,-54.99 6.96,-40.34 20.74,-86.48 -16.5,-10.03 -34.45,-1.94 -59.64,-59.11 70.73,-4.68 90.14,4.88 93.65,-65.82 -31.38,30.08 -17.85,16.69 -54.1,35.88 -26.39,-22.77 -9.04,-5.87 -41.09,-28.51 -46.53,-32.85 -20.86,-3.42 -49.68,-48.86 58.17,-20.17 18.65,-29.42 73.64,17.62l54.06 -67.77c-73.23,-64.96 -36.31,-12.33 -62.62,-107.17 -20.06,-72.31 -23.4,-16.05 -38.54,-117.32 -125.35,1.22 -157.87,-39.11 -259.52,-43.65 -131.86,-5.88 -522.96,-11.64 -639.38,14.02 -180.87,39.86 -281.6,85.11 -323.45,-10.26z"/>
   <path class="fil0" d="M1662.26 4668.37c35.48,-8.46 542.11,47.28 666.46,-23.18 48.04,-27.21 33.79,-6.76 37.88,-70.61l93.58 -13.28c-21.16,-43.63 1.31,-7.21 -55.95,-54.78l52.01 -32.66c-79.02,-64.52 18.51,-75.87 -123.24,-96.28 -0.12,-6.02 0.74,-53.79 0.6,-54.76 -9.2,-64.26 -3.33,-27.81 -19.31,-51.41l-180.11 -223.22c-77.24,6.75 -66.58,18.94 -146.37,28.14 -102.48,11.83 -29.38,-5.01 -113.53,43.92 -45.79,26.63 -200.35,63.01 -269.32,65.64 -20.67,25.98 -11.86,-9.15 -21.14,59.53l-129.67 74.37c-64.93,66.27 -65.47,44.56 -66.09,206.6 -112.05,1.52 -80.47,13.49 -166.33,-70.39 -55.6,38.36 -35.44,35.6 -127.74,39.17l-109.49 110.36 -169.76 -32.45c-29.65,-7.21 -10.29,3.29 -34.75,-11.78l55.47 -50.44 -105.98 -22.09 -64.8 92.35c7.09,17.47 25.75,30.35 17.86,64.67l-10.24 20.89c-1.24,2.65 -5.37,8.81 -6.5,10.99 -1.16,2.22 -4.7,7.38 -6.25,11.45 20.02,35.04 44.28,54.25 69.46,85.03l91.25 -75.29c50.21,6.98 34.94,4.78 72.99,14.57 61.98,-81.02 70.33,-42.68 182.49,-49.34 283.11,-16.83 225.38,81.21 379.11,15.19 37.63,-16.16 53.31,-23.94 99.3,-33.3 98.52,-20.04 91.34,2.15 108.11,22.39z"/>
   <path class="fil0" d="M3559.05 4630.49c-23.56,-51.5 -21.63,-52.77 -71.41,-65.82 16.23,79.27 3.41,59.78 71.41,65.82z"/>
  </g>
 </g>
</svg>
