<!-- Generated by IcoMoon.io -->
<svg version="1.1" xmlns="http://www.w3.org/2000/svg" width="32" height="32" viewBox="0 0 32 32">
<title>bus-xiiber</title>
<path d="M26.383 9.391c1.475 1.99 0.672 2.828 2.050 2.522l0.073-0.418c-0.003-0.037-0.011-0.105-0.019-0.147-0.038-0.2-0.144-0.401-0.222-0.581-0.176-0.406-0.358-0.797-0.555-1.067-0.542-0.746-1.37-0.814-2.413-0.923 0.924 1.046-0.76-0.378 0.694 0.377l0.393 0.237z"></path>
<path d="M5.83 18.866c0.606 0.143 6.229 0.097 7.11-0.137 0.853-0.227 0.43-0.128 0.687-0.683l-7.797 0.82z"></path>
<path d="M7.199 20.053c1.063 0.018 2.115 0.021 3.179 0.008 1.257-0.016 2.123 0.281 2.706-0.723-1.25 0.129-4.741 0.218-5.708 0.61-0.055 0.022-0.119 0.069-0.178 0.105z"></path>
<path d="M2.043 15.737c-0.007-1.504 0.264-1.586 1.519-1.955 2.562-0.754 5.733-1.989 8.109-2.501-0.141 0.112-0.167 0.166-0.444 0.31l-4.739 1.697c-2.263 0.833-3.992 1.11-4.445 2.449zM10.37 10.679c-0.466 0.483-0.415 0.359-1.165 0.552-1.354 0.489-2.586 0.917-3.955 1.416-0.748 0.273-1.353 0.472-2.072 0.743-1.097 0.412-1.031 0.368-1.649 0.978-0.119 1.109-0.050 2.104-0.039 3.213 0.001 0.091 0.029 3.496 0.156 2.186 0.388-2.694 0.107-2.122 3.138-2.516l3.836-0.639 0.044-3.626c0.073 0.782 0.197 2.444 0.38 3.534l3.659-0.578 0.042-2.857c0.027 0.052 0.053 0.074 0.060 0.161l0.386 2.541 4.537-0.518 0.159-4.809c-0.321 1.463 0.867 5.965 0.286 7.858 0.057 0.126 0.085 0.042 0.153 0.475 0.029 0.183 0.044 0.585 0.051 0.782 0.018 0.518 0.021 1.038 0.023 1.561l1.547-0.053-1.019-0.489-0.234-5.285c1.318 0.177 2.99 3.11 3.17 4.347 0.308-0.445 0.203-0.55 0.369-1.007 1.141 0.036 6.353 0.73 7.426-0.265-0.546-0.349-1.721-0.061-2.393-0.039-1.057 0.034-1.923 0.025-2.977-0.081 0.535 0.022 4.088-0.41 4.697-0.743 0.497-0.271 0.176 0.025 0.494-0.446l-4.708 0.236c0.473 0.078 1.51-0.278 2.2-0.405 0.678-0.125 1.817-0.162 2.297-0.732-0.723-0.35-2.295-0.019-3.274-0.029 0.711-0.232 2.654-0.224 3.047-0.975-0.372-0.634-1.765-0.238-2.543-0.294l2.255-0.391c0.002-0.851-0.635-2.425-1.133-2.932-0.241-0.003-0.042 0.086-0.364-0.053-0.026-0.011-0.082-0.044-0.109-0.059-1.006-0.58-0.566-1.071-1.602-1.203l0.312-0.509c0.013-0.042-0.014-0.316-0.006-0.373l0.088-0.151c-0.699-0.082-1.57-0.188-2.015-0.553-1.68 0.121-2.985-0.688-3.674-0.045 0.821 1.488 1.802 0.19 2.67 1.251 0.374 0.458 0.977 2.189 0.857 3.008-2.171 0.249-0.281-3.196-3.102-3.084 0.566 2.106 1.203 4.6 1.305 7.024-0.747-2.244-1.499-6.671-2.762-8.477-2.477 0.095-7.624 2.375-8.85 2.349z"></path>
<path d="M14.768 17.435c0.045-0.026 0.113-0.114 0.14-0.070l0.69-0.18c0.249-0.039 0.624-0.061 0.892-0.094 0.858-0.058 0.614-0.057 0.881-0.346-0.487-0.682-1.312-0.332-3.214-0.062l-10.412 1.515c-0.854 0.224-0.186 0.023-0.521 0.192 2.412-0.059 9.899-1.317 11.543-0.954z"></path>
<path d="M23.768 20.036l-0.116-0.351c0.011-0.003 0.088 0.049 0.097 0.015 0.010-0.038 0.064 0.035 0.097 0.050l0.88 0.123c-0.188-0.248 0.001-0.345-0.816-0.561-0.369-0.098-0.971-0.153-1.354-0.195l0.062 1.151 1.149-0.231z"></path>
<path d="M18.804 22.268c1.758-0.116 2.84-0.123 3.26 0.748l-4.277-0.274c0.599-0.381-0.105-0.4 1.017-0.474zM10.983 22.803c0.518-0.561 0.818-0.353 1.809-0.361 1.163-0.009 1.149-0.241 1.65 0.558-0.692 0.003-2.901 0.199-3.458-0.197zM8.852 22.704c-0.254 0.24 0.046 0.383-1.284 0.389-0.541 0.003-1.093-0.004-1.635-0.010 0.393-0.742 0.128-0.596 1.219-0.621 0.919-0.022 0.96-0.101 1.7 0.243zM4.859 22.523c-0.763 0.127-0.783 0.139-1.127-0.514 0.062 0.023 0.598 0.168 0.632 0.183 0.578 0.251 0.048-0.048 0.495 0.331zM15.603 22.535c-0.651-0.245-0.731-0.379-0.956-0.938 0.684 0.425 0.966 0.736 1.736 0.099-0.198 0.735-0.053 0.545-0.78 0.839zM4.106 20.759c0.484 0.425 0.679 0.446 0.052 0.812l-0.052-0.812zM15.603 20.168c0.314 0.651 0.278 0.415-0.019 0.963-0.43-0.356-0.647-0.538 0.019-0.963zM4.106 20.759c-0.391-0.112-0.125 0.162-0.322-0.184 0.525-0.582 0.291-0.569 1.042-0.325-0.235 0.735-0.042 0.298-0.72 0.51zM14.906 20.084c0.013-0.82 0.047-0.569 0.495-0.937 0.809 0.178 0.7 0.093 0.851 0.869-0.515-0.248-1.008-0.594-1.346 0.068zM14.375 19.41c0.486-1.815 1.95-1.524 2.164 0.144-0.233-0.376-0.348-0.353-0.641-0.774-0.922 0.025-1.098 0.194-1.523 0.63zM4.749 19.157c-0.848 0.408 0.063-0.176 0.414 1.262-0.712-0.757-1.124-0.746-1.843-0.007 0.231-1.461 1.507-0.959 0.427-1.241-0.427 0.563-0.414 0.157-0.673 0.933-0.184 0.55-0.14 1.126-0.181 1.696l-0.888 0.315c-0.045 0.021-0.118 0.052-0.17 0.089 1.152 0.167 1.49 0.053 1.929 0.801l-3.2 0.245c1.874 0.557 28.833 0.552 30.872 0.045l-6.095-0.251c0.014-1.384 2.098-0.287 4.535-1.255 0.2-0.739 0.073-1.664-0.079-2.569l-0.827 0.21c0.026 0.118 0.042 0.141 0.045 0.183l0.199 0.413c0.343 0.571 0.334 0.421 0.294 0.971-1.511 1.213-9.604 0.546-12.098 0.546l-0.202-2.047c-0.261-0.957-0.519-1.289-1.442-1.621-2.387 0.029-1.78 1.662-2.375 2.772l-7.371 0.312c1.354 0.93 6.149-0.384 7.554 0.44-0.169 0.365 0.367 0.396-1.58 0.387l-6.24 0.026c-0.4-1.239 0.267-1.936-1.006-2.653z"></path>
</svg>
