<!-- Generated by IcoMoon.io -->
<svg version="1.1" xmlns="http://www.w3.org/2000/svg" width="32" height="32" viewBox="0 0 32 32">
<title>calendario-editar</title>
<path d="M16 29.333h-9.333c-1.48 0-2.667-1.2-2.667-2.667l0.013-18.667c0-1.467 1.173-2.667 2.653-2.667h1.333v-2.667h2.667v2.667h10.667v-2.667h2.667v2.667h1.333c1.467 0 2.667 1.2 2.667 2.667v8h-2.667v-2.667h-18.667v13.333h9.333v2.667zM29.507 22.653l0.947-0.947c0.52-0.52 0.52-1.36 0-1.88l-0.947-0.947c-0.52-0.52-1.36-0.52-1.88 0l-0.947 0.947 2.827 2.827zM28.56 23.6l-7.067 7.067h-2.827v-2.827l7.067-7.067 2.827 2.827z"></path>
</svg>
