<!-- Generated by IcoMoon.io -->
<svg version="1.1" xmlns="http://www.w3.org/2000/svg" width="32" height="32" viewBox="0 0 32 32">
<title>carro-de-frente</title>
<path d="M22.544 24.21c0.203-0.391 1.384-1.651 1.767-2.126 0.832-0.020 1.665-0.008 2.496-0.021 0.385-0.006 0.329-0.059 0.518 0.394 0.248 0.597-0.023 0.828-0.286 1.153-0.435 0.54-1.229 0.595-1.934 0.614-0.859 0.023-1.704-0.008-2.562-0.014zM4.755 22.101l2.525-0.034c0.395 0.022 0.321 0.109 0.526 0.324 0.292 0.305 0.521 0.586 0.799 0.899s0.531 0.591 0.76 0.913c-0.663 0.041-3.075 0.097-3.529-0.068-1.070-0.389-1.681-0.9-1.080-2.033zM10.414 22.723l11.062-0.009c0.064 0.459-0.306 1.031-0.528 1.199-0.338 0.257-0.941 0.293-1.445 0.304-2.209 0.045-4.814 0-7.076-0.003-0.542-0.001-1.095-0.026-1.436-0.311-0.277-0.232-0.614-0.704-0.576-1.18zM9.91 19.159l12.079-0.014c0.042 0.345-0.030 0.642-0.113 0.945-0.221 0.802-0.775 1.503-1.64 1.579l-8.597-0.008c-1.263-0.135-1.795-1.508-1.729-2.502zM3.843 19.018c-0.166-0.849 0.374-1.604 1.094-1.757 0.693-0.147 1.648 0.396 2.184 0.726l1.126 0.853c1.194 1.332-0.468 1.297-1.65 1.365-0.475 0.027-1.512 0.056-1.866-0.117-0.451-0.22-0.794-0.59-0.888-1.070zM28.079 18.961c-0.286 1.393-1.629 1.27-2.691 1.267-0.437-0.001-1.43-0.085-1.779-0.228-0.667-0.273-0.251-0.873 0.048-1.185l1.404-0.968c0.428-0.222 0.316-0.255 1.027-0.499 1.389-0.479 2.168 0.756 1.991 1.613zM24.858 15.032l-17.791-0.002c0.006-0.278 0.514-0.571 0.714-0.769 0.312-0.309 0.494-0.568 0.797-0.787l0.562-0.569c0.217-0.277 0.404-0.328 0.629-0.559l0.403-0.39c0.785-0.714 4.424-0.415 5.766-0.419 1.024-0.002 2.043-0.009 3.057-0.032 0.925-0.021 2.046-0.088 2.715 0.445 0.751 0.598 1.677 1.595 2.397 2.302 0.216 0.213 0.681 0.521 0.753 0.78zM6.821 13.193c-0.085-0.297-0.077-0.966-0.959-1.021-1.086-0.068-2.794 0.446-1.84 1.728 0.168 0.226 0.264 0.369 0.509 0.51 0.232 0.135 0.496 0.129 0.7 0.309-0.204 0.444-1.62 1.349-2.156 2.756-0.316 0.828-0.325 1.050-0.34 2.108-0.010 0.726-0.131 3.639 0.167 4.143 0.135 0.228 0.21 0.395 0.336 0.627 0.18 0.33 0.31 0.247 0.32 0.717 0.015 1.524-0.063 2.45 2.191 2.452 2.844 0.002 2.221-1.204 2.491-1.755 1.021-0.019 1.756-0.067 2.774-0.018 0.634 0.030 1.203-0.052 1.924-0.035 0.263 0 0.537 0.077 0.896 0.037 1.023-0.113 6.074-0.002 7.648 0.015 1.067 0.011 0.825-0.119 2.21 0.013 0.147 0.846 0.176 1.626 1.64 1.665 2.091 0.056 3.092 0.112 3.001-2.035-0.072-1.705 1.242 0.096 0.814-6.456-0.033-0.503-0.242-1.405-0.441-1.778-0.843-1.574-1.74-1.906-2.016-2.456 0.17-0.124 1.46-0.513 1.472-1.471 0.014-1.069-2.606-1.587-2.974-0.479l-0.138 0.421c-0.251-0.144-0.706-0.677-0.901-0.899-0.131-0.149-0.338-0.279-0.49-0.425-0.191-0.182-0.306-0.273-0.488-0.471-0.34-0.371-0.589-0.613-0.974-0.841-0.125-0.074-1.237-0.452-1.392-0.452l-9.679 0.001c-0.282-0.001-1.090 0.314-1.348 0.436-0.376 0.179-1.149 0.966-1.484 1.293l-0.482 0.48c-0.384 0.343-0.609 0.704-0.99 0.88z"></path>
</svg>
