<!-- Generated by IcoMoon.io -->
<svg version="1.1" xmlns="http://www.w3.org/2000/svg" width="32" height="32" viewBox="0 0 32 32">
<title>cdmx-angel-de-la-independencia-two</title>
<path d="M16.395 1.951c-0.094-0.026-0.488-0.163-0.57-0.165-0.917-0.023-0.183-0.078-0.523 0.175-0.189 0.208-0.843-0.62-1.536-0.87 0.4 1.164 1.204 1.425 1.938 2.401-0.148 0.647-0.162 0.475-0.376 0.974 0.235 0.245 0.373 0.403 0.572 0.727-0.136 0.463-0.106 0.631-0.53 0.832 0.163 0.4-0.279 0.348 0.753 0.375 0.779 0.021 0.545-0.085 0.698-0.245l-0.55-0.894c0.445-0.578 0.299-0.177 0.699-0.794l0.088-1.168c-0.773-0.468-0.267 0.057-0.557-0.584 0.286-0.701 0.507-0.75 0.759-1.413-0.669 0.177-0.598 0.184-0.865 0.651zM13.606 27.709l0.101 0.823c1.13-0.168 0.429-0.279 0.893-1.295 0.64-0.251 1.162-0.136 1.402-0.53l1.004-0.241c0.164 0.268 0.471 0.531 0.731 0.957 0.033 0.054 0.272 0.456 0.301 0.53 0.325 0.849 0.199 0.157-0.009 0.549l0.537 0.048 0.069-0.695c-0.462-0.715-0.298-1.437-0.302-2.378-1.597-0.067-0.042 0.591-1.191 0-1.156-0.594-0.799 0.436-1.798-0.373 0.326-0.967 0.596 0.184 1.433-0.584-0.593-0.242-0.256 0.070-0.654-0.39l-0.255 0.183c-0.137 0.104-0.132 0.092-0.304 0.242-0.304 0.265-0.093 0.174-0.415 0.355l0.196 0.194c-0.192 0.572 0.602 0.256-0.769 0.417-0.035 0.004-0.552-0.029-0.692-0.027-0.165 0.885 0.049 1.47-0.277 2.217zM16.19 27.303c-0.008 0-0.653-0.004-0.657-0.004-0.061 0.006-0.127 0.014-0.186 0.022l-0.322 0.085-0.184 0.718c0.893 0.265 1.897 0.204 2.804 0.125-0.27-0.487-0.348-0.889-0.659-1.41-0.646 0.183-0.378 0.016-0.797 0.464zM17.431 9.087c0.332-0.231 0.186-0.913 0.149-1.419l-0.489-0.115-2.028-0.022c-0.151 0.037-0.731-0.149-0.559 1.034l0.225 0.677c0.661 1.145 0.326 5.321 0.333 7.099 0.002 0.686-0.017 1.163-0.075 1.821-0.081 0.915 0.944 3.598-0.228 4.713-0.416-0.511-0.027-0.333-0.557-0.669-0.285 1.017-0.387 0.821-0.185 1.792l-0.054 0.578c1.436-0.113 1.401-1.319 2.649-0.933 0.535 1.030 0.38 0.681 1.586 0.957l-0.070-0.525c0.096-0.983 0.375-0.889-0.254-1.854-0.6 0.686 0.013 0.278-0.778 0.6 0.076-0.675-0.385-2.090-0.107-3.304 0.336-1.46 0.115-1.578 0.119-3.176 0.005-2.102-0.201-5.681 0.322-7.254zM15.139 7.322l0.594 0.020 0.328-0.531c0.743 0.745-0.049 0.438 0.869 0.554l0.037-0.562c-0.596-0.262-1.027-0.184-1.776-0.122l-0.052 0.642zM24.225 27.103c-0.127 0.766-0.040 1.38-0.182 2.002-0.206 0.898-0.305 1.022-0.334 1.939l1.492-0.013-0.127-1.059c-0.191-1.187-0.324-3.293-0.781-3.9l-0.068 1.032zM6.881 31.018l1.616-0.008-0.327-2.207c-0.139-0.822 0.013-2.035-0.42-2.671-0.306 0.768-0.321 1.701-0.341 2.241-0.016 0.406-0.382 2.053-0.528 2.645zM8.261 28.386l0.409 1.661 7.17-0.002c-0.010-0.847-0.186-0.674 0.282-1.167 0.402 0.586 0.208 0.563 0.389 1.145l6.814 0.021 0.271-0.765c0.13-0.508 0.112-0.546 0.151-1.053 0.058-0.759 0.106-1.418-0.047-2.2-0.401 0.793-0.373 1.953-0.48 2.79-0.183 1.428-0.804 0.678-2.269 0.862-0.128-0.729-0.135-0.758-0.447-1.385l-0.666-1.243 0.32-0.857c-0.396 0.988-0.755-0.622-1.013 1.459-0.138 1.109 0.031-0.048-0.269 0.943-0.186 0.157 0.297 0.473-1.292 0.126-1.527-0.334-3.004 0.115-4.259 0.108-0.048-0.475-0.119-0.598-0.296-0.999 0.271-1.999-0.693-1.019-0.899-1.647l0.225 1.204c-0.472 0.216-0.257 0.059-0.609 0.739l-0.517 1.476-2.001 0.080c-0.47-0.944-0.1-2.618-0.698-3.519-0.483 0.91 0.12 1.329-0.268 2.224z"></path>
</svg>
