<!-- Generated by IcoMoon.io -->
<svg version="1.1" xmlns="http://www.w3.org/2000/svg" width="32" height="32" viewBox="0 0 32 32">
<title>cdmx-revolucion</title>
<path d="M9.855 7.989l-0.557 1.612c0.164 0.605 0.428 0.787 0.773 1.579 0.339 0.779 0.223 1.379 0.454 1.931l0.921 0.031-0.012-5.403-1.58 0.251zM11.014 29.179l0.196-0.026-0.049-8.458c0.358-0.301 0.718-0.996 0.81-1.267 0.553-0.306 0.478-0.177 0.876-0.796 1.497-0.101 2.062-0.729 4.146-0.486 1.34 0.156 2.589 0.771 3.294 1.67 1.288 1.642 0.498 6.783 0.653 9.238l3.051 0.074-0.039-11.695-1.279-0.028-0.053-2.778c-0.282-0.236 0.178 0.023-0.397-0.255-0.083-0.040-0.291-0.11-0.442-0.179l0.111-0.644-11.368-0.066-0.271 0.63c-0.286 0.372-0.561 0.327-0.828 0.514l-0.034 2.775-1.090 0.081c-0.476 0.344-0.251-0.041-0.379 0.605l0.021 8.242c0.001 0.679-0.292 2.411 0.251 2.828l2.819 0.022zM10.1 7.041c-0.12 1.113 0.208 0.258 1.255 0.439 1.105 0.191-0.47 0.467 1.191 0.367 2.576-0.156 3.726-0.459 6.593-0.085 1.914 0.25 0.675-0.556 2-0.326 0.954 0.165 0.457 0.199 0.641 0.348 0.304-0.352 0.276 0.211 0.223-0.574-0.353-0.802-2.209-2.805-3.64-3.462l-0.101-0.958-0.959-0.344-0.065-1.2c-1.197-0.446-1.378-0.444-2.451 0.088l-0.077 1.203-0.927 0.21c-0.175 1.716 0.023 0.435-1.874 2.207-0.485 0.453-1.459 1.827-1.808 2.089zM11.751 8.234l0.019 4.902 8.498-0.006c-0.024-0.814-0.018-1.604-0.017-2.405 0.002-0.952 0.125-1.8-0.187-2.457-2.949-0.707-5.379-0.227-8.314-0.033zM11.23 29.611l-3.539-0.123 0.047-12.262c0.313-0.078 0.491-0.040 0.632-0.073 1.116-0.261 0.267 0.024 0.735-0.36-0.704-0.456-1.583-0.293-2.611-0.251l0.099 14.494 4.479 0.007 0.158-1.432zM22.85 16.968l1.432 0.169c0.331 0.952 0.323 11.255 0.029 12.416l-3.392 0.092 0.030 1.38 4.424 0.004 0.053-14.331-2.528-0.022-0.048 0.291zM6.497 16.161l2.606 0.044-0.007-1.979 0.906-0.294c-0.053-1.236 0.222-2.003-0.453-3.084-0.327-0.525 0.145-0.375-0.787-0.493l-0.946 2.036c-0.972 3.443-0.919-1.096-1.319 3.77zM22.904 16.007l2.518-0.015c0.068-1.675 0.269-1.72-0.815-2.404l-0.303-0.803c-0.108-0.357-0.14-0.73-0.29-1.041-0.183-0.38-0.761-1.279-0.917-1.4-1.299 0.352-1.093 2.406-1.074 3.413 0.301 0.287-0.022 0.097 0.412 0.304 0.044 0.021 0.37 0.115 0.412 0.129l0.057 1.815zM21.795 13.111c-0.171-1.11-0.023-1.561 0.526-2.516l0.355-0.577c0.316-0.514-0.444-1.931-0.881-2.154l-1.232-0.136 0.028 5.412 1.204-0.029z"></path>
</svg>
