<!-- Generated by IcoMoon.io -->
<svg version="1.1" xmlns="http://www.w3.org/2000/svg" width="32" height="32" viewBox="0 0 32 32">
<title>cdmx-catedral</title>
<path fill="#d8e2e4" d="M4.339 17.306l-0.044 1.378c1.045-0.617-0.497-0.485 0.647-0.834l0.101 0.218c0.124 0.7-0.116 0.376 0.429 0.616-0.171-1.121 0.137-1.697-1.132-1.378z"></path>
<path fill="#d8e2e4" d="M5.010 10.607l-0.384-0.042c-0.011 0.128-0.077 0.705-0.063 0.801 0.12 0.838-0.189 0.257 0.378 0.456 0.188-0.43 0.127-0.683 0.069-1.215z"></path>
<path fill="#d8e2e4" d="M3.699 18.519c-0.006-0.033-0.040-0.053-0.045-0.119-0.005-0.064-0.036-0.074-0.054-0.112-0.126 0.174-0.228-0.29-0.228 0.657 0.001 0.812 0.139 0.507 0.228 0.623l0.099-1.050z"></path>
<path fill="#d8e2e4" d="M3.6 17.35v-1.271c-0.123 0.157-0.239-0.276-0.228 0.63 0.009 0.77 0.145 0.527 0.228 0.641z"></path>
<path fill="#89898e" d="M5.985 10.43l0.063 3.342c-0.316-0.204-0.128 0.225-0.234-0.218-0.022-0.095-0.027-0.305-0.030-0.408l0.004-2.261c0.098-0.667 0.066-0.283 0.198-0.455zM3.749 10.404c0.276 0.563 0.377 2.933 0 3.38-0.391-0.451-0.283-2.837 0-3.38zM4.047 14.060c0.313-0.803 0.14-2.727 0.077-3.658l1.49-0.049-0.078 3.372c0.042 0.262 0.065 0.212 0.151 0.385l0.732 0.023c-0.081-1.149 0.143-2.93-0.17-4.012l-2.811 0.034-0.108 1.932c0.002 0.637-0.107 1.458 0.121 2.010l0.596-0.037z"></path>
<path fill="#89898e" d="M5.010 10.607c0.057 0.532 0.119 0.785-0.069 1.215-0.567-0.199-0.258 0.383-0.378-0.456-0.014-0.096 0.052-0.672 0.063-0.801-0.175 0.246-0.296-0.66-0.116 1.389l0.58-0.029c0.159-0.322 0.361-1.064-0.080-1.318z"></path>
<path fill="#89898e" d="M4.907 13.588c0.588 0.741 0.093 0.274 0.034 0.431l-0.429-0.269c0.194 0.222-0.307 0.288 0.579 0.234 0.227-0.423 0.172-0.368 0-0.703-0.216 0.148-0.158-0.312-0.183 0.308z"></path>
<path fill="#000" d="M2.359 30.919l0.113-0.027 0.007-7.318-0.060-2.389 3.715 0.035c0.252 0.71 0.061 1.577 0.066 2.316 0.005 0.763 0.006 1.679 0.061 2.437 0.010 0.408-0.251 1.384 0.105 1.689l0.053-0.932 0.012-0.208c-0.031 0.086-0.302-0.131-0.012 0.208l0.118 0.133c0.163 0.18 0.099 0.073 0.366 0.307l-0.537 0.491-0.087 0.713-0.056 2.491h0.992c-0.27-1.007-0.045-2.226-0.147-3.299l-0.028-0.847c0.19-0.844 0.015-1.825 0.082-2.711 0.155-2.056-0.088-1.702-0.018-2.814l0.222-0.047-5.229-0.161c-0.683 0.056-0.402-0.082-0.584 0.233 0.422 0.493-0.068 1.544-0.224 2.112l-0.033 7.567 1.103 0.020zM4.844 28.424c-0.089 0.477-0.171 0.893-0.192 1.55l0.003 0.905 1.319-0.022 0.075-2.104-0.074-0.999-0.064-1.654 0.070-0.639-0.026-1.776c-1.522-0.27-1.219-0.161-3.103-0.151l-0.088 2.017 0.061 0.699v3.43l-0.184 1.227 1.067 0.039c-0.039-0.432 0.259-1.904-0.187-2.102-0.011-0.031-0.102-0.317-0.11-0.335-0.212-0.476-1.008-1.244 0.231-1.891l0.374-0.254c0.034-0.034 0.122-0.164 0.151-0.197 0.025-0.028 0.066-0.072 0.086-0.095s0.059-0.063 0.093-0.089l0.115 0.277c0.092 0.316-0.005 0.125 0.094 0.395 0.376 1.022 0.626 0.16 0.080 1.794l0.21-0.023zM3.866 28.634c0.22 0.185 0.078 0.483 0.641 0-0.211-0.113 0.312-0.149-0.313-0.111-0.665 0.040-0.021-0.037-0.329 0.111zM8.259 22.113c-0.056-0.281-0.014-0.125-0.187-0.23-0.437 0.761-0.020 0.597 0.149 0.676 0.059-0.257 0.19 0.315 0.038-0.446zM1.75 20.738c1.014 0.015 2.028 0.007 3.042 0.007 0.6 0 2.367 0.151 2.856-0.161-0.17-0.546-0.465-0.329-1.215-0.337l-4.444-0.040c-0.321-0.074-0.213 0.168-0.239 0.53zM2.843 23.2c0.755 0.147 2.348 0.218 3.045-0.043l0.113-1.604-3.218-0.019 0.061 1.665zM4.345 27.957c0.155-0.543 0.119-0.292-0.149-0.384-0.035 0.467-0.034 0.281 0.149 0.384z"></path>
<path fill="#463a2e" d="M14.415 30.896l0.424 0.052c-0.060-0.687-0.068-0.218 0.165-0.387l0.011-3.269c-0.316-0.247-0.229 0.068-0.448-0.502-0.346 0.801-0.085 3.071-0.153 4.107z"></path>
<path fill="#463a2e" d="M5.074 5.81c0.128-0.399 0.065-0.312 0.404-0.373-0.038 0.396 0.215 0.254-0.404 0.373zM5.849 7.266c-0.052-0.972 0.229-1.948-0.605-2.528l-0.13 0.215c-0.018 0.024-0.048 0.064-0.068 0.089l-0.52 0.636c0.353 0.925 0.645 0.756 1.081 1.25 0.023 0.027 0.057 0.080 0.077 0.103l0.165 0.235z"></path>
<path fill="#463a2e" d="M3.847 6.125l0.019 0.827 0.597 0.299c0.266-0.35 0.058-0.357 0.411-0.232l-0.18 0.499 0.436 0.025c0.696-0.814-0.072-0.974-0.576-1.575l-0.707 0.157z"></path>
<path fill="#463a2e" d="M4.289 19.619l-0.008-0.875c0.579 0.238 0.176 0.331 0.66 0.523l0.531-0.53-0.002-0.053c-0.545-0.24-0.305 0.084-0.429-0.616l-0.101-0.218c-1.143 0.349 0.399 0.218-0.647 0.834l0.044-1.378c-0.368 0.408-0.366 1.227-0.291 1.803 0.062 0.475-0.007 0.326 0.241 0.51z"></path>
<path fill="#bababe" d="M2.473 8.825l-0.044 0.174 4.793-0.014 0.009-0.332-0.665 0.094 0.046-0.789-0.42-0.125c0.272 0.484 0.183 0.215 0.209 0.923-0.826-0.012-0.621 0.051-1.038-0.206-0.276-0.17 0.325-0.066-0.42-0.229-0.159-0.034-0.311 0.013-0.506 0.003l-0.056 0.294c-0.14 0.164 0.467 0.323-0.624 0.265-0.696-0.037-0.348-0.111-0.539-0.225 0.061-0.744-0.074-0.378 0.331-0.744l0.015-0.084-0.399 0.097 0.097 0.806-0.788 0.092z"></path>
<path fill="#bababe" d="M6.134 17.394l0.214-0.686c0.005-0.865-0.101-0.503-0.214-0.675-0.017 0.022-0.476-0.056-0.207 0.979 0.088 0.337 0.094 0.219 0.207 0.382z"></path>
<path fill="#bababe" d="M4.511 12.974c0.393-0.151 0.208 0.182 0.261-0.409 0.373 0.427 0.085 0.27 0.396 0.349 0.020-0.87 0.049-0.651-0.621-0.735l-0.035 0.795z"></path>
<path fill="#bababe" d="M4.512 13.749l0.429 0.269c0.060-0.157 0.554 0.31-0.034-0.431-0.2-0.208-0.165 0.309-0.168-0.253-0.247 0.077-0.222-0.343-0.227 0.414z"></path>
<path fill="#19171c" d="M4.907 13.588c0.025-0.62-0.033-0.16 0.183-0.308 0.172 0.335 0.227 0.281 0 0.703-0.886 0.054-0.385-0.011-0.579-0.234 0.006-0.757-0.020-0.337 0.227-0.414 0.003 0.562-0.032 0.044 0.168 0.253zM4.511 12.974l0.035-0.795c0.67 0.084 0.641-0.135 0.621 0.735-0.31-0.079-0.022 0.078-0.396-0.349-0.053 0.59 0.133 0.258-0.261 0.409zM4.626 10.565l0.384 0.042c0.441 0.254 0.239 0.996 0.080 1.318l-0.58 0.029c-0.18-2.049-0.060-1.143 0.116-1.389zM4.047 14.060l-0.596 0.037c-0.228-0.552-0.119-1.373-0.121-2.010l0.108-1.932 2.811-0.034c0.313 1.082 0.089 2.863 0.17 4.012l-0.732-0.023c-0.085-0.172-0.109-0.123-0.151-0.385l0.078-3.372-1.49 0.049c0.064 0.931 0.236 2.855-0.077 3.658zM1.899 13.728l0.011 0.621 5.932-0.029-0.086-0.77c-0.514 0.249-0.098 0.247-0.428 0.178-0.065-1.157-0.219-3.414 0.232-4.218l-0.337-0.524-4.793 0.014c-0.024 0.502 0 0.034-0.29 0.568 0.324 0.412 0.223 0.174 0.236 0.723l-0.033 3.519c-0.379-0.22-0.131-0.376-0.444-0.080z"></path>
<path fill="#19171c" d="M7.986 19.828l0.007 1.089 5.267 0.019-0.1 0.84c-0.019 0.557 0.245 1.33 0.191 1.781-0.091 0.759-0.081 1.128-0.062 1.947-0.417-0.314-0.013-1.412 0.006-1.951 0.029-0.807-0.059-1.92 0.092-2.275-0.011-0.461-0.101-0.486-0.246-0.844 0.473-0.644 0.196-1.37 0.152-2.105 0.593-0.43 1.047-0.373 1.021-1.472l-0.279 0.738c-0.261-0.131-0.281 0.216-0.275-1.044-0.375 0.567-0.066 0.586-0.377 1.211l-1.234-0.062c-0.144-0.252-0.153-0.596-0.224-1.097l-0.417 1.859-0.254-0.467c-0.007-0.051-0.032-0.066-0.052-0.097-0.225 0.446-0.026 0.189-0.162 0.573-0.202 0.572-0.089 0.097-0.284 0.51-0.294 0.625 0.108 0.523-0.251 0.919-0.371 0.139-1.313 0.21-1.838 0.086-0.512-0.121-0.379-0.604-0.417-1.099-0.302 0.381-0.028-0.608-0.264 0.939z"></path>
<path fill="#19171c" d="M6.134 18.237l0.176 1.006c-0.068 0.291-0.080 0.207-0.176 0.357-0.095-0.127-0.244 0.211-0.247-0.654-0.004-1.067 0.090-0.483 0.247-0.709zM4.339 17.306c1.27-0.319 0.962 0.257 1.132 1.378l0.002 0.053-0.054 0.8-1.13 0.082c-0.249-0.183-0.179-0.034-0.241-0.51-0.076-0.576-0.077-1.395 0.291-1.803zM3.6 18.289c0.018 0.037 0.049 0.048 0.054 0.112 0.005 0.065 0.039 0.086 0.045 0.119l-0.099 1.050c-0.089-0.116-0.227 0.189-0.228-0.623-0.001-0.947 0.102-0.483 0.228-0.657zM5.927 17.012c-0.269-1.035 0.19-0.956 0.207-0.979 0.113 0.171 0.219-0.19 0.214 0.675l-0.214 0.686c-0.113-0.163-0.119-0.045-0.207-0.382zM3.6 17.35c-0.083-0.114-0.219 0.129-0.228-0.641-0.010-0.906 0.106-0.473 0.228-0.63v1.271zM3.090 19.933l3.539-0.002c0.049-0.947 0.175-3.478-0.196-4.27l-3.165-0.034c-0.395 0.929-0.223 3.206-0.178 4.307z"></path>
<path fill="#19171c" d="M11.666 23.586c0.36 0.654 0.144 6.125 0.143 7.339l1.041 0.005c0.010-1.708 0.002-3.42 0.001-5.128 0-1.274-0.163-3.436 0.028-4.549h-1.148c0.099 0.684 0.089 1.672-0.065 2.332z"></path>
<path fill="#19171c" d="M11.091 22.971c-0.422-0.222-0.987-0.149-1.528-0.145-0.47 0.003-1.444-0.18-1.56 0.293l-0.059 2.493 3.118 0.002 0.030-2.643z"></path>
<path fill="#19171c" d="M14.615 16.858l-0.013 0.59c1.349-0.375 1.595-0.307 2.948-0.037l0.007-0.415c-0.317-0.396-0.228-0.146-0.347-0.586l0.035-1.638-2.348-0.037 0.091 2.022-0.374 0.101z"></path>
<path fill="#19171c" d="M13.546 25.711l5.155 0.011-0.096-1.108-5.017 0.008z"></path>
<path fill="#19171c" d="M13.535 18.322l0.068 1.26 1.279 0.025-0.125-1.763c3.311-0.939 2.544 0.742 2.543 1.773l1.276-0.017 0.047-1.226c-2.736-2.037-3.634-0.68-5.088-0.053z"></path>
<path fill="#19171c" d="M8.728 28.515l0.267-0.424c1.6-0.287 1.166 1.399 1.164 2.837l0.751-0.058c0.010-0.992-0.167-2.167 0.136-3.103l-3.112 0.021c0.273 0.89 0.088 2.002 0.122 2.954l0.438 0.073-0.011-1.745c0.068-0.603-0.031-0.313 0.246-0.555z"></path>
<path fill="#19171c" d="M7.853 26.844l3.269-0.001 0.007-0.848-3.309-0.005z"></path>
<path fill="#19171c" d="M3.061 15.34l3.576 0.005-0.202-0.712-3.134-0.036z"></path>
<path fill="#19171c" d="M3.847 6.125l0.707-0.157c0.504 0.601 1.271 0.761 0.576 1.575l0.825 0.104-0.105-0.381-0.165-0.235c-0.019-0.023-0.053-0.076-0.077-0.103-0.435-0.494-0.727-0.325-1.081-1.25l0.52-0.636c0.020-0.025 0.050-0.065 0.068-0.089l0.13-0.215-0.251-0.128c-0.021-0.744 0.301-1.699-0.202-2.173-0.283 0.526-0.092 1.444-0.076 2.048-0.61 0.694-0.839 0.409-0.869 1.641z"></path>
<path fill="#19171c" d="M13.627 26.448l4.88 0.034 0.166-0.408-5.158-0.010z"></path>
<path fill="#19171c" d="M18.381 20.968l0.246-0.343-3.847-0.053c-1.809-0.022-0.96-0.049-1.235 0.261l0.192 0.161 4.644-0.025z"></path>
<path fill="#19171c" d="M2.705 19.922c0.301-1.284-0.145-3.864 0.195-5.246l-0.523-0.101 0.109 4.832c0.074 0.944-0.031 0.297 0.218 0.515z"></path>
<path fill="#19171c" d="M3.563 7.83l-0.015 0.084c0.065 0.756-0.023 0.295 0.2 0.446l0.573-0.449c-0.127 0.53-0.145 0.344-0.445 0.731l0.505-0.025 0.056-0.294c0.195 0.010 0.348-0.037 0.506-0.003 0.745 0.163 0.144 0.059 0.42 0.229 0.416 0.257 0.211 0.194 1.038 0.206-0.026-0.708 0.063-0.439-0.209-0.923-0.925-0.022-1.664-0.041-2.629-0.003z"></path>
<path fill="#19171c" d="M7.028 19.932c0.018-0.023 0.051-0.088 0.055-0.071l0.090-1.214c-0.009-0.919-0.1-3.353 0.215-4.071l-0.583 0.044c0.325 0.957-0.109 4.599 0.223 5.313z"></path>
<path fill="#19171c" d="M1.996 19.879l0.237 0.015c0.022-0.998 0.005-1.943 0.010-2.888 0.001-0.184 0.014-0.423 0.007-0.6l-0.141-1.808c-0.574 0.013-0.064-0.035-0.277 0.19 0.245 0.565 0.128 3.921 0.164 5.092z"></path>
<path fill="#19171c" d="M3.749 10.404c-0.283 0.543-0.391 2.929 0 3.38 0.377-0.447 0.276-2.817 0-3.38z"></path>
<path fill="#19171c" d="M14.184 21.207c-0.299 0.555-0.287 2.404 0 2.992 0.344-0.438 0.285-1.863 0.225-2.436-0.1-0.946-0.001-0.306-0.225-0.557z"></path>
<path fill="#19171c" d="M9.414 21.409c-0.712 0.631-0.31 0.53-0.811 1.148l1.625-0.251c-0.022-0.040-0.097-0.175-0.121-0.215-0.033-0.053-0.125-0.364-0.692-0.681z"></path>
<path fill="#19171c" d="M14.183 19.762c-0.882 0.032-0.455-0.005-0.661 0.376 0.116 0.070 0.082 0.107 0.364 0.168 0.66 0.143 0.858-0.050 1.023-0.168-0.156-0.373-0.026-0.401-0.726-0.376z"></path>
<path fill="#19171c" d="M6.612 7.958l-0.046 0.789 0.665-0.094c-0.054-0.348-0.009-0.352-0.045-0.597-0.069-0.459 0.031-0.148-0.159-0.495l-0.416 0.397z"></path>
<path fill="#19171c" d="M3.866 6.952l-0.105 0.708 0.932-0.143 0.18-0.499c-0.352-0.125-0.144-0.117-0.411 0.232l-0.597-0.299z"></path>
<path fill="#19171c" d="M8.071 27.231c0.309 0.278 0.921 0.182 1.342 0.18 0.865-0.002 1.311 0.133 1.492-0.154l-2.834-0.026z"></path>
<path fill="#19171c" d="M7.416 21.426c0.019 0.73 0.213 0.917 0.196 1.693l0.047-0.149c-0.295-0.577-0.096-1.928 0.86-1.341-0.014-0.070-0.353 0.144 0.054-0.166l0.562-0.201c-0.797-0.010-1.094-0.045-1.719 0.164z"></path>
<path fill="#19171c" d="M11.053 21.777l0.298 0.527c0.243-0.268 0.277-0.153 0.033-1.027l-1.097 0.093c0.464 0.166 0.089 0.15 0.843 0.026l-0.077 0.381z"></path>
<path fill="#19171c" d="M2.462 8.118l0.589 0.349-0.078-0.736-0.428-0.172z"></path>
<path fill="#19171c" d="M11.351 30.85l0.090 0.053-0.002-3.778c-0.119 0.292-0.088 2.851-0.088 3.725z"></path>
<path fill="#19171c" d="M11.053 21.777c-0.282 0.158-0.319 0.107-0.378 0.352-0.182 0.753 0.009 0.309 0.229 0.446l0.149-0.798z"></path>
<path fill="#19171c" d="M5.074 5.81c0.62-0.119 0.366 0.022 0.404-0.373-0.339 0.062-0.276-0.026-0.404 0.373z"></path>
<path fill="#67676d" d="M3.548 7.914c-0.405 0.367-0.27 0-0.331 0.744 0.192 0.114-0.157 0.187 0.539 0.225 1.092 0.058 0.484-0.101 0.624-0.265l-0.505 0.025c0.3-0.387 0.318-0.201 0.445-0.731l-0.573 0.449c-0.223-0.151-0.135 0.31-0.2-0.446z"></path>
<path fill="#67676d" d="M2.462 8.118l0.011 0.707 0.788-0.092-0.097-0.806-0.191-0.196 0.078 0.736z"></path>
<path fill="#d8e2e4" d="M26.805 17.306c-0.146 1.917-0.035 1.113 0.242 1.38 0.163-0.379-0.023-0.46 0.107-0.79 1.402 0.134-0.484 0.438 0.816 0.778l-0.159-1.484-1.006 0.117z"></path>
<path fill="#d8e2e4" d="M27.872 30.592l0.285-0.020c0.093-0.422 0.157-1.266-0.108-1.61-0.247 0.117-0.439-0.113-0.305 1.169l0.128 0.46z"></path>
<path fill="#d8e2e4" d="M26.812 19.611l1.055-0.107 0.092-0.706-0.358 0.010c-0.199 0.605 0.363 0.378-0.447 0.449-0.208-0.593 0.308-0.202-0.366-0.486l0.024 0.84z"></path>
<path fill="#d8e2e4" d="M28.429 16.414c-0.34 1.239 0.342 0.909 0.344 0.909 0.003-0.807 0.108-0.803-0.129-1.252-0.2 0.236-0.101-0.073-0.215 0.343z"></path>
<path fill="#d8e2e4" d="M28.644 19.569c0.131-0.267 0.145-0.142 0.152-0.623 0.001-0.061-0.037-0.358-0.050-0.43l-0.102-0.239c-0.168 0.222-0.246-0.412-0.244 0.669 0.001 0.914 0.143 0.501 0.244 0.622z"></path>
<path fill="#d8e2e4" d="M25.862 16.864c0.038 0.636-0.058 0.379 0.248 0.502 0.167-0.312 0.144-0.677 0.084-1.073l-0.084-0.219c-0.327 0.226-0.29 0.093-0.248 0.79z"></path>
<path fill="#d8e2e4" d="M25.961 18.284c-0.117 0.244-0.107 0.342-0.097 0.661 0.019 0.712-0.050 0.414 0.247 0.618 0.133-0.345 0.317-1.124-0.149-1.279z"></path>
<path fill="#d8e2e4" d="M26.898 8.547c0.385 0.358-0.007 0.222 0.82 0.263l-0.116-0.421-0.659 0.007-0.045 0.151z"></path>
<path fill="#d8e2e4" d="M27.034 13.95l0.542 0.014 0.056-0.661c-0.432 0.411-0.117 0.477-0.605-0.006l0.007 0.653z"></path>
<path fill="#89898e" d="M27.743 30.131c-0.134-1.283 0.058-1.052 0.305-1.169 0.265 0.344 0.202 1.188 0.108 1.61l-0.285 0.020-0.128-0.46zM27.713 28.635c0.364-0.153 0.088-0.278 0.53 0-0.452 0.463-0.506 0.015-0.53 0zM26.259 23.272l-0.037-1.645c0.667-0.191 2.593-0.208 3.235 0.005l-0.134 1.606-3.064 0.034zM26.121 23.457l0.138-0.185-0.036 0.313c0.748-0.090 2.42-0.172 3.067 0.062 0.335 0.877 0.109 5.86 0.141 7.224l-0.875-0.042c-0.017-1.229-0.007-1.425 0.219-2.467-1.109-0.153-0.503-0.169-1.52 0.033 0.21 1.004 0.216 1.293 0.215 2.487l-1.371-0.104c0.192 0.209-0.174 0.191 0.597 0.257 0.627 0.053 3.867 0.025 4.227-0.167l-1.236-0.013c-0.018-1.387 0.126-9.022-0.104-9.602l-3.622 0.076c-0.082 0.352-0.141 2.128 0.16 2.128z"></path>
<path fill="#463a2e" d="M24.981 30.898c0.423 0.1 0.773 0.177 0.967-0.175h-0.85l0.005-2.386c1.049-1.028 0.783-0.948 0.234-1.624-0.226-0.278-0.007-0.15-0.27-0.341l0.921 0.884-0.007-2.049c-0.621 0.142-0.677 0.093-0.828 0.557-0.099-0.784 0.037-1.574-0.166-2.193l-0.006 7.327z"></path>
<path fill="#463a2e" d="M26.471 5.768c0.16 0.34 1.795 1.444 0.090 1.557l-0.090-1.557zM26.471 5.768c-0.245 0.078-0.128 0.412-0.119 0.794 0.013 0.524 0.001 0.553-0.095 1.072l1.64-0.040c-0.383-0.324 0.476-0.243-0.446-0.277 0.020 0.045-0.233 0.246 0.038 0.033 0.929-0.732-0.789-1.67-0.83-2.19-0.377 0-0.199 0.379-0.188 0.608z"></path>
<path fill="#463a2e" d="M20.601 30.863c0.431-0.051 0.099 0.1 0.357-0.141 0.008-0.574 0.029-3.021-0.155-3.525-0.458-1.259 0.207-0.972 0.013-3.716-0.446 1.025-0.072 5.719-0.215 7.382z"></path>
<path fill="#463a2e" d="M24.777 30.88l-0.040-6.873c-0.045-0.274-0.093-0.313-0.1-0.338-0.103-0.395-0.073 0.080-0.019-0.171-0.262 1.463 0.238 2.363 0.054 3.744-0.263 0.241-0.264-0.010-0.115 0.348l-0.102 2.983c0.109 0.42-0.093 0.219 0.322 0.307z"></path>
<path fill="#463a2e" d="M23.425 28.295l0.16 1.382c0.7-0.122 0.136 0.023 0.36-0.297-0.14-0.247-0.011-0.091-0.229-0.35 0.137 0.099 0.076 0.104 0.313 0.14l0.005 1.632c0.305-0.283 0.173-1.046 0.15-1.515-0.023-0.482-0.007-1.010 0.050-1.535l-0.446 0.059c-0.040 0.366 0.032 0.649-0.364 0.484z"></path>
<path fill="#463a2e" d="M26.812 19.611l-0.024-0.84c0.673 0.284 0.157-0.107 0.366 0.486 0.81-0.071 0.248 0.156 0.447-0.449l0.358-0.010 0.011-0.125c-1.301-0.34 0.586-0.644-0.816-0.778-0.129 0.33 0.057 0.411-0.107 0.79-0.277-0.267-0.388 0.537-0.242-1.38-0.202 0.262-0.127-0.183-0.258 0.584v1.219c0.080 0.492-0.009 0.318 0.265 0.502z"></path>
<path fill="#463a2e" d="M18.757 30.824c-0.358-0.863 0.265-3.468-0.25-3.979-0.242 1.031 0.17 2.814-0.157 4.1l0.408-0.121z"></path>
<path fill="#463a2e" d="M17.366 30.968c0.557-0.234 0.361-0.005 0.33-0.988-0.023-0.75 0.091-2.739-0.083-3.135-0.19 0.319 0.085 3.119-0.247 4.123z"></path>
<path fill="#463a2e" d="M21.93 30.611l-0.037-0.919c-0.317 0.174-0.42 0.009-0.364 0.695 0.277 0.362 0.028 0.111 0.401 0.223z"></path>
<path fill="#bababe" d="M27.898 28.003c0.176-0.275 0.306-0.072 0-0.481-0.49 0.407-0.073 0.392 0 0.481z"></path>
<path fill="#bababe" d="M27.898 26.545c0.084-0.136 0.206-0.131 0-0.483-0.2 0.207-0.092-0.036-0.122 0.298l0.122 0.185z"></path>
<path fill="#bababe" d="M27.898 25.027l0.095-0.171c-0.017-0.234-0.030-0.172-0.095-0.299l-0.117 0.205c0.033 0.357-0.108 0.067 0.117 0.265z"></path>
<path fill="#19171c" d="M27.898 27.522c0.306 0.409 0.176 0.206 0 0.481-0.073-0.089-0.49-0.074 0-0.481zM27.898 26.062c0.206 0.353 0.084 0.348 0 0.483l-0.122-0.185c0.030-0.334-0.078-0.091 0.122-0.298zM27.994 24.856l-0.095 0.171c-0.225-0.198-0.085 0.092-0.117-0.265l0.117-0.205c0.065 0.127 0.078 0.065 0.095 0.299zM26.099 30.778l1.371 0.104c0.001-1.194-0.006-1.483-0.215-2.487 1.018-0.202 0.411-0.186 1.52-0.033-0.226 1.042-0.236 1.238-0.219 2.467l0.875 0.042c-0.032-1.364 0.194-6.347-0.141-7.224-0.647-0.234-2.319-0.152-3.067-0.062-0.23 0.57-0.136 6.018-0.124 7.193z"></path>
<path fill="#19171c" d="M27.027 13.298c0.488 0.483 0.174 0.417 0.605 0.006l-0.056 0.661-0.542-0.014-0.007-0.653zM27.302 12.138c0.513 0.336 0.38 0.101 0.364 0.864-0.293-0.254-0.132-0.022-0.364-0.392-0.122 0.291-0.086 0.191-0.317 0.386-0.026-0.678-0.12-0.487 0.317-0.857zM27.452 10.58c0.173 0.211 0.104-0.025 0.202 0.324 0.327 1.164-0.312 0.991-0.351 1.012-0.299-0.209-0.333 0.204-0.331-0.72l0.122-0.51c0.006-0.056 0.040-0.062 0.060-0.097l0.298-0.008zM25.847 11.491c0.001-1.49-0.329-1.335 1.906-1.343 1.57-0.006 0.995 0.028 1.064 3.902l-0.775-0.003-0.046-3.693-1.369 0.018 0.013 3.702-0.797-0.079 0.004-2.504zM24.528 13.608l-0.164 0.723 5.933-0.052-0.229-0.593c-0.009 0.002-0.058 0.014-0.069 0.016-0.184 0.033-0.010 0.053-0.192 0.024-0.108-1.394-0.147-3.079 0.17-4.323l-0.366-0.381-4.497 0.021c-0.196 0.204-0.314 0.338-0.424 0.509 0.401 0.621 0.191 2.941 0.183 3.876l-0.344 0.179z"></path>
<path fill="#19171c" d="M24.988 23.571c0.203 0.619 0.068 1.409 0.166 2.193 0.151-0.463 0.206-0.415 0.828-0.557 0.025-0.643-0.086-1.224 0.14-1.75-0.302 0-0.242-1.775-0.16-2.128l3.622-0.076c0.23 0.58 0.086 8.214 0.104 9.602l1.236 0.013 0.028-7.375c-0.036-0.298-0.857-1.752-0.232-2.421l-6.104 0.034 0.439 0.078-0.066 2.387z"></path>
<path fill="#19171c" d="M18.885 20.761c0.045 0.806-0.011 1.546 0.009 2.36 0.018 0.778 0.11 1.427 0.138 2.235 0.078 0.86-0.082 0.698-0.139 1.349-0.039 0.442-0.023 1.029-0.023 1.483 0.002 0.97-0.113 1.886 0.202 2.673l0.026-7.069c-0.197-0.33-0.041-2.112-0.088-2.788l5.263-0.042-0.035-1.092-0.082-0.526-0.283-0.038c-0.003 0.744-0.111 0.762-1.496 0.719-0.105-0.003-0.336-0.006-0.428-0.029-0.281-0.067-0.36-0.179-0.424-0.474-0.275-1.272-0.187-0.388-0.413-1.072-0.085-0.258 0.025-0.171-0.14-0.62l-0.174 0.634c-0.242-0.313-0.369-0.897-0.334-1.262l-0.366-0.097c0.115 0.65-0.006 0.721-0.691 0.71-0.703-0.011-0.751-0.068-0.774-0.666l-0.26-0.058c-0.011 0.647-0.035 0.33-0.16 0.514l-0.14-0.531-0.253 0.003c0.087 0.914 0.392 0.652 1.081 1.421-0.218 0.751-0.266 1.398 0.153 1.943l-0.166 0.321z"></path>
<path fill="#19171c" d="M28.644 18.277l0.102 0.239c0.013 0.072 0.050 0.369 0.050 0.43-0.007 0.481-0.021 0.356-0.152 0.623-0.101-0.122-0.243 0.291-0.244-0.622-0.002-1.081 0.076-0.447 0.244-0.669zM26.805 17.306l1.006-0.117 0.159 1.484-0.011 0.125-0.092 0.706-1.055 0.107c-0.274-0.184-0.185-0.009-0.265-0.502v-1.219c0.131-0.767 0.056-0.322 0.258-0.584zM25.961 18.284c0.466 0.155 0.283 0.933 0.149 1.279-0.297-0.204-0.227 0.094-0.247-0.618-0.009-0.319-0.020-0.417 0.097-0.661zM26.11 16.074l0.084 0.219c0.060 0.396 0.082 0.762-0.084 1.073-0.306-0.123-0.21 0.135-0.248-0.502-0.042-0.697-0.079-0.565 0.248-0.79zM28.644 16.071c0.237 0.449 0.132 0.446 0.129 1.252-0.002-0.001-0.684 0.33-0.344-0.909 0.114-0.416 0.014-0.107 0.215-0.343zM29.079 16.012l-0.074-0.391-3.386-0.003c-0.263 1.271-0.157 2.969-0.113 4.384l3.652-0.005c0.051-1.063 0.194-3.038-0.079-3.985z"></path>
<path fill="#19171c" d="M19.233 23.863l0.005 7.065 1.149-0.025c0.007-1.699 0.005-3.402-0.001-5.101-0.003-0.848 0.023-1.716 0.043-2.535 0.018-0.778-0.085-1.267-0.021-2.049l-1.117-0.031-0.057 2.676z"></path>
<path fill="#19171c" d="M21.148 25.611l3.114 0.031c-0.277-3.468 1.112-2.696-3.045-2.823-0.192 0.791-0.065 1.872-0.069 2.792z"></path>
<path fill="#19171c" d="M16.963 24.196l0.176-0.142-0.029-2.867-1.917 0.050-0.016 2.996z"></path>
<path fill="#19171c" d="M26.259 23.272l3.064-0.034 0.134-1.606c-0.643-0.213-2.568-0.196-3.235-0.005l0.037 1.645z"></path>
<path fill="#19171c" d="M17.078 19.426c0.010-0.709 0.025-0.849 0.076-1.376-0.694-0.414-1.56-0.344-2.19 0.011 0.296 0.454 0.102 0.785 0.128 1.331 0.168 0.028 0.139 0.028 0.285 0.149-0.296 0.307-0.237 0.247-0.306 0.763l1.996-0.013-0.654-1.767c-0.704-0.052-0.417-0.101-0.945 0.225 0.235-0.486-0.266-0.178 0.356-0.43 0.797-0.323 1.037 0.775 1.089 0.888 0.014 0.029 0.065 0.134 0.076 0.111s0.058 0.073 0.088 0.107z"></path>
<path fill="#19171c" d="M26.659 5.16c0.042 0.52 1.76 1.457 0.83 2.19-0.271 0.213-0.018 0.013-0.038-0.033 0.923 0.034 0.063-0.047 0.446 0.277l0.537 0.069c-0.343-1.373 0.308-2.538-0.972-3.011-0.027-0.884 0.138-1.283-0.037-2.23-0.747 0.439 0.163 1.717-0.376 2.252l-0.39 0.484z"></path>
<path fill="#19171c" d="M24.321 25.943l-3.382-0.028 0.030 0.998 3.369-0.121z"></path>
<path fill="#19171c" d="M21.93 30.611c-0.373-0.112-0.124 0.139-0.401-0.223-0.056-0.686 0.048-0.521 0.364-0.695 0.060-0.305 0.009-0.302 0.049-0.608 0.056-0.416 0.007-0.205 0.147-0.484 0.286-0.667 0.797-0.828 1.335-0.305 0.396 0.164 0.325-0.118 0.364-0.484l-2.647-0.038 0.062 3.073 0.583 0.020c0.198-0.144 0.185 0.212 0.143-0.255z"></path>
<path fill="#19171c" d="M24.517 20.634c0.955 0.128 5.135 0.195 5.793-0.049-0.169-0.438 0.432-0.368-1.218-0.346-0.495 0.007-0.995 0.003-1.491 0.003-0.97 0.001-2.187-0.076-3.121 0.052l0.037 0.34z"></path>
<path fill="#19171c" d="M25.547 15.377c0.982-0.069 2.789 0.216 3.549-0.156l-0.105-0.624-3.344 0.005-0.1 0.775z"></path>
<path fill="#19171c" d="M25.949 30.722l0.040-3.466-0.921-0.884c0.262 0.191 0.044 0.063 0.27 0.341 0.55 0.676 0.815 0.596-0.234 1.624l-0.005 2.386h0.85z"></path>
<path fill="#19171c" d="M24.918 15.002c0.068 0.907-0.249 4.244 0.149 4.969 0.235-0.222 0.257 0.601 0.234-1.325-0.011-1-0.074-3.284 0.179-4.020l-0.635-0.041 0.073 0.416z"></path>
<path fill="#19171c" d="M15.841 12.248c0.109 1.589-0.207 0.811-0.296 1.926-0.468 0.152-0.362-0.019-0.47 0.445 0.626 0.010 1.616 0.138 2.056-0.147-0.179-0.31 0.121-0.171-0.544-0.258 0.046-1.294-0.199-0.234-0.281-1.058-0.012-0.117 0.052-0.762 0.026-1.126-0.153 0.097-0.293 0.105-0.491 0.218z"></path>
<path fill="#19171c" d="M15.017 27.292l-0.011 3.269 0.044 0.269 0.091-2.852c0.478-0.914 1.597-0.851 1.872 0.023 0.053 0.092 0.128-0.070 0.176 0.624 0.013 0.196-0.007 0.543-0.009 0.756-0.003 0.384 0.030 0.982 0.052 1.247l-0.060-3.82-2.196-0.010 0.040 0.494z"></path>
<path fill="#19171c" d="M29.32 15.892c0.195 1.267-0.18 3.545 0.219 4.095 0.263-0.43 0.149-2.144 0.147-2.831l0.126-2.551-0.46 0.009-0.032 1.278z"></path>
<path fill="#19171c" d="M26.943 8.397l0.659-0.007 0.216 0.179c0.032 0.017 0.074 0.056 0.115 0.073l0.936 0.112c-0.027-0.663 0.046-0.443-0.192-0.906l-1.832-0.099-0.817 0.873c0.726 0.049 0.505 0.086 0.916-0.225z"></path>
<path fill="#19171c" d="M30.228 20c-0.085-0.88-0.034-1.802-0.035-2.695-0.001-0.677-0.039-1.89 0.051-2.371l0.112-0.344-0.287 0.109c-0.235 0.69-0.192 4.335-0.178 5.14l0.337 0.16z"></path>
<path fill="#19171c" d="M22.126 21.879l-0.274 0.702 1.723-0.023c-0.184-0.248-0.463-0.69-0.572-1.136-0.676-0.035-0.596 0.174-0.877 0.458z"></path>
<path fill="#19171c" d="M26.259 13.844c0.142-0.208 0.145-0.057 0.156-0.702 0.011-0.693 0.061-2.304-0.156-2.748-0.37 0.463-0.229 3.013-0.224 3.041 0.13 0.72-0.061 0.124 0.224 0.409z"></path>
<path fill="#19171c" d="M28.247 11.939l0.028 1.887c0.565-0.211 0.335-1.002 0.333-2.484-0.001-0.626 0.082-0.596-0.168-0.981-0.306 0.435-0.196 0.866-0.194 1.578z"></path>
<path fill="#19171c" d="M17.911 21.221c-0.366 0.622-0.196 2.331-0.085 3.043 0.18-0.189 0.309-0.089 0.342-0.842l-0.024-1.658c-0.108-0.86-0.060-0.353-0.233-0.543z"></path>
<path fill="#19171c" d="M18.060 26.81c-0.187 0.381-0.198 3.607 0 3.918 0.192-0.442 0.169-3.495 0-3.918z"></path>
<path fill="#19171c" d="M21.229 27.293c0.38 0.274 2.467 0.284 2.906 0-0.381-0.194-1.811-0.176-2.362-0.149-0.175 0.008-0.217 0.013-0.38 0.049l-0.164 0.1z"></path>
<path fill="#19171c" d="M26.471 5.768l0.090 1.557c1.705-0.113 0.070-1.216-0.090-1.557z"></path>
<path fill="#19171c" d="M24.492 19.856l0.216-4.824c-0.183-0.335-0.131 0.496-0.161-0.411-0.497-0.037-0.081-0.057-0.234 0.223 0.245 0.412 0.132 3.985 0.178 5.011z"></path>
<path fill="#19171c" d="M17.907 19.762c-0.943 0.020-0.46-0.019-0.631 0.375 0.4 0.267 0.983 0.274 1.374 0-0.178-0.376-0.095-0.389-0.744-0.375z"></path>
<path fill="#19171c" d="M23.585 29.677l-0.006 1.149 0.455-0.025-0.005-1.632c-0.237-0.036-0.176-0.041-0.313-0.14 0.218 0.259 0.089 0.102 0.229 0.35-0.224 0.321 0.341 0.175-0.36 0.297z"></path>
<path fill="#19171c" d="M29.096 7.873l0.022 0.886c0.722-0.081 0.212-0.001 0.637-0.494l-0.147-0.621-0.512 0.229z"></path>
<path fill="#19171c" d="M20.886 22.131l0.137-0.541c0.429-0.197 0.231 0.099 0.913-0.124l-1.168-0.251-0.127 1.121 0.243-0.204z"></path>
<path fill="#19171c" d="M21.087 22.080c0.015 0.048 0.069 0.254 0.098 0.28 0.171 0.154-0.093 0.057 0.385 0.201l-0.086-0.747c-0.38 0.069-0.208 0.002-0.396 0.266z"></path>
<path fill="#19171c" d="M25.074 7.851c-0.045 0.847-0.044 0.208 0.141 0.411 0.161-0.177 0.255-0.132 0.372-0.187l-0.056-0.345-0.314-0.123-0.143 0.244z"></path>
<path fill="#19171c" d="M23.874 21.777c0.007 0.065 0.034 0.424 0.038 0.445l0.111 0.346c0.149-0.074 0.353 0.188 0.216-0.42-0.053-0.235-0.128-0.216-0.365-0.371z"></path>
<path fill="#19171c" d="M27.713 28.635c0.024 0.015 0.077 0.463 0.53 0-0.442-0.278-0.166-0.153-0.53 0z"></path>
<path fill="#67676d" d="M24.517 20.634l-0.064 0.499 0.162-0.028 6.104-0.034c0.007-0.2 0.285-0.088-0.354-0.17 0.109-0.543 0.211-0.45-0.082-0.834l-4.622 0.014c-1.453 0.030-1.038-0.037-1.182 0.213 0.934-0.127 2.152-0.050 3.121-0.052 0.496-0.001 0.996 0.003 1.491-0.003 1.65-0.022 1.049-0.092 1.218 0.346-0.658 0.245-4.838 0.177-5.793 0.049z"></path>
<path fill="#67676d" d="M25.807 8.056l0.012 0.73c0.081-0.001 0.499 0.090 0.589 0.072 0.522-0.103 0.212 0.049 0.49-0.31l0.045-0.151c-0.411 0.312-0.19 0.274-0.916 0.225l0.817-0.873-1.037 0.308z"></path>
<path fill="#67676d" d="M24.962 8.766l0.699 0.027-0.074-0.718c-0.117 0.055-0.211 0.010-0.372 0.187-0.185-0.202-0.186 0.436-0.141-0.411-0.123 0.259-0.046-0.282-0.112 0.334-0.001 0.013 0.001 0.566 0.001 0.581z"></path>
<path fill="#67676d" d="M17.816 17.076l0.253-0.003c0.061-0.988 0.027-0.32-0.157-0.539l-0.095 0.542z"></path>
<path fill="#67676d" d="M18.369 17.091l0.26 0.058-0.062-0.521c-0.007-0.023-0.041-0.064-0.060-0.096l-0.127 0.21c-0.026 0.178-0.010 0.070-0.011 0.348z"></path>
<path fill="#67676d" d="M23.87 19.305l0.283 0.038c0.025-0.827 0.032-0.247-0.131-0.475-0.206 0.243-0.072-0.026-0.152 0.437z"></path>
<path fill="#67676d" d="M20.094 17.105l0.366 0.097-0.105-0.606z"></path>
</svg>
