<!-- Generated by IcoMoon.io -->
<svg version="1.1" xmlns="http://www.w3.org/2000/svg" width="32" height="32" viewBox="0 0 32 32">
<title>check-list</title>
<path d="M26.667 4h-21.333c-1.467 0-2.667 1.2-2.667 2.667v18.667c0 1.467 1.2 2.667 2.667 2.667h21.333c1.467 0 2.667-1.2 2.667-2.667v-18.667c0-1.467-1.2-2.667-2.667-2.667zM13.333 22.667h-6.667v-2.667h6.667v2.667zM13.333 17.333h-6.667v-2.667h6.667v2.667zM13.333 12h-6.667v-2.667h6.667v2.667zM19.76 20l-3.76-3.787 1.88-1.88 1.88 1.893 4.227-4.227 1.893 1.893-6.12 6.107z"></path>
</svg>
