<!-- Generated by IcoMoon.io -->
<svg version="1.1" xmlns="http://www.w3.org/2000/svg" width="32" height="32" viewBox="0 0 32 32">
<title>codigo-de-barras-xiiber-travel-viajes-gay</title>
<path fill="#fefefe" d="M0.854 4.588h30.291v19.308h-30.291z"></path>
<path fill="#373435" d="M14.269 21.99l-0.829-2.005-0.857 2.005h-1.194l1.453-3.292-1.404-3.244h1.229l0.801 1.908 0.821-1.908h1.166l-1.405 3.195 1.461 3.342h-1.243zM15.695 15.453h1.096v6.537h-1.096v-6.537zM16.243 14.542c-0.201 0-0.365-0.101-0.491-0.304s-0.19-0.454-0.19-0.753 0.063-0.551 0.19-0.753c0.126-0.203 0.29-0.304 0.491-0.304s0.365 0.097 0.491 0.291c0.127 0.195 0.19 0.438 0.19 0.729 0 0.316-0.063 0.577-0.19 0.784s-0.29 0.31-0.491 0.31zM17.459 15.453h1.096v6.537h-1.096v-6.537zM18.007 14.542c-0.202 0-0.365-0.101-0.492-0.304s-0.19-0.454-0.19-0.753 0.063-0.551 0.19-0.753c0.127-0.203 0.29-0.304 0.492-0.304s0.365 0.097 0.491 0.291c0.127 0.195 0.19 0.438 0.19 0.729 0 0.316-0.063 0.577-0.19 0.784s-0.29 0.31-0.491 0.31zM21.456 15.356c0.351 0 0.671 0.14 0.959 0.419s0.514 0.672 0.677 1.179 0.246 1.096 0.246 1.768c0 0.672-0.082 1.262-0.246 1.768s-0.39 0.899-0.677 1.179c-0.288 0.279-0.608 0.419-0.959 0.419-0.52 0-0.915-0.283-1.187-0.85v0.753h-1.046v-9.015h1.096v3.171c0.276-0.526 0.655-0.79 1.137-0.79zM21.266 20.532c0.281 0 0.511-0.164 0.692-0.492s0.27-0.767 0.27-1.318-0.090-0.99-0.27-1.318c-0.18-0.328-0.411-0.492-0.692-0.492s-0.511 0.164-0.692 0.492-0.27 0.767-0.27 1.318c0 0.551 0.090 0.99 0.27 1.318s0.411 0.492 0.692 0.492zM25.621 20.568c0.196 0 0.371-0.051 0.523-0.152s0.294-0.261 0.424-0.48l0.583 1.093c-0.356 0.704-0.876 1.057-1.559 1.057-0.426 0-0.803-0.144-1.13-0.432s-0.581-0.686-0.758-1.196c-0.178-0.51-0.267-1.090-0.267-1.738 0-0.64 0.088-1.217 0.263-1.731s0.417-0.916 0.723-1.203c0.307-0.287 0.652-0.431 1.036-0.431 0.36 0 0.688 0.132 0.983 0.395s0.53 0.644 0.706 1.142 0.263 1.087 0.263 1.768l-2.795 0.935c0.080 0.324 0.204 0.568 0.376 0.729s0.38 0.243 0.628 0.243zM25.459 16.79c-0.276 0-0.501 0.153-0.674 0.462s-0.265 0.733-0.274 1.275l1.839-0.619c-0.052-0.341-0.157-0.612-0.316-0.814s-0.352-0.304-0.576-0.304zM28.845 16.316c0.131-0.316 0.308-0.555 0.53-0.716s0.479-0.243 0.769-0.243v1.75c-0.122-0.016-0.204-0.024-0.246-0.024-0.313 0-0.559 0.152-0.737 0.455s-0.267 0.759-0.267 1.367v3.086h-1.096v-6.537h1.046v0.862z"></path>
<path fill="#373435" d="M4.293 15.002c-0.882-1.376-1.54-2.012-1.981-4.186-1.048-5.176 2.073-7.622 4.037-1.984 0.709 2.026 0.539 3.037 0.332 5.219l0.889 0.015c0.385-1.723 1.386-3.68 2.469-4.553 0.892-0.72 4.073-1.812 5.884-0.865 1.149 0.6 0.665 1.482-0.35 1.902-2.59 1.063-2.297 1.288-3.901 3.016-0.699 0.755-1.22 0.934-1.944 1.566 0.286 0.636 1.334 1.562 0.616 3.167-1.794-0.723-3.252-1.246-5.545-0.722-0.382 0.088-0.555 0.176-0.868 0.255-1.667 0.423-0.236-2.349 0.363-2.832zM6.11 18.967c-1.826 0.971-0.947 5.145 0.929 4.289 0.195-0.089 0.386-0.261 0.483-0.389 1.342-1.735 0.083-4.692-1.413-3.901z"></path>
<path fill="#4ef298" d="M2.18 16.178c0 2.352-2.212 4.258-4.94 4.258s-4.94-1.907-4.94-4.258c0-2.352 2.212-4.258 4.94-4.258s4.94 1.907 4.94 4.258z"></path>
<path fill="#000" d="M11.391 23.897h0.405v-19.309h-0.405z"></path>
<path fill="#000" d="M12.302 23.897h0.405v-19.309h-0.405z"></path>
<path fill="#000" d="M18.685 23.897h0.405v-19.309h-0.405z"></path>
<path fill="#000" d="M14.43 23.897h0.405v-19.309h-0.405z"></path>
<path fill="#000" d="M23.75 23.897h0.405v-19.309h-0.405z"></path>
<path fill="#000" d="M16.76 23.897h0.405v-19.309h-0.405z"></path>
<path fill="#000" d="M6.831 23.897h0.405v-19.309h-0.405z"></path>
<path fill="#000" d="M28.714 23.897h0.304v-19.309h-0.304z"></path>
<path fill="#000" d="M30.335 23.897h0.304v-19.309h-0.304z"></path>
<path fill="#000" d="M7.541 23.897h0.202v-19.309h-0.202z"></path>
<path fill="#000" d="M22.231 23.897h0.202v-19.309h-0.202z"></path>
<path fill="#000" d="M18.077 23.897h0.202v-19.309h-0.202z"></path>
<path fill="#000" d="M0.854 23.897h0.203v-19.309h-0.203z"></path>
<path fill="#000" d="M1.969 23.897h0.203v-19.309h-0.203z"></path>
<path fill="#000" d="M20.002 23.897h0.202v-19.309h-0.202z"></path>
<path fill="#000" d="M20.914 23.897h0.203v-19.309h-0.203z"></path>
<path fill="#000" d="M21.218 23.897h0.202v-19.309h-0.202z"></path>
<path fill="#000" d="M21.623 23.897h0.203v-19.309h-0.203z"></path>
<path fill="#000" d="M3.286 23.897h0.202v-19.309h-0.202z"></path>
<path fill="#000" d="M5.312 23.897h0.203v-19.309h-0.203z"></path>
<path fill="#000" d="M24.763 23.897h0.203v-19.309h-0.203z"></path>
<path fill="#000" d="M25.573 23.897h0.203v-19.309h-0.203z"></path>
<path fill="#000" d="M26.485 23.897h0.203v-19.309h-0.203z"></path>
<path fill="#000" d="M30.943 23.897h0.203v-19.309h-0.203z"></path>
<path fill="#000" d="M28.41 23.897h0.202v-19.309h-0.202z"></path>
<path fill="#000" d="M7.845 23.897h0.203v-19.309h-0.203z"></path>
<path fill="#000" d="M8.25 23.897h0.203v-19.309h-0.203z"></path>
<path fill="#000" d="M29.221 23.897h0.203v-19.309h-0.203z"></path>
<path fill="#000" d="M9.162 23.897h0.203v-19.309h-0.203z"></path>
<path fill="#000" d="M29.828 23.897h0.203v-19.309h-0.203z"></path>
<path fill="#000" d="M9.769 23.897h0.203v-19.309h-0.203z"></path>
<path fill="#000" d="M13.619 23.897h0.203v-19.309h-0.203z"></path>
<path fill="#000" d="M4.198 23.897h0.203v-19.309h-0.203z"></path>
<path fill="#000" d="M15.848 23.897h0.202v-19.309h-0.202z"></path>
<path fill="#000" d="M1.462 23.897h0.101v-19.309h-0.101z"></path>
<path fill="#000" d="M19.799 23.897h0.101v-19.309h-0.101z"></path>
<path fill="#000" d="M3.083 23.897h0.101v-19.309h-0.101z"></path>
<path fill="#000" d="M27.296 23.897h0.101v-19.309h-0.101z"></path>
<path fill="#000" d="M3.691 23.897h0.101v-19.309h-0.101z"></path>
<path fill="#000" d="M4.603 23.897h0.101v-19.309h-0.101z"></path>
<path fill="#000" d="M11.188 23.897h0.101v-19.309h-0.101z"></path>
<path fill="#000" d="M5.717 23.897h0.101v-19.309h-0.101z"></path>
<path fill="#000" d="M28.106 23.897h0.101v-19.309h-0.101z"></path>
<path fill="#000" d="M6.427 23.897h0.101v-19.309h-0.101z"></path>
<path fill="#000" d="M17.266 23.897h0.101v-19.309h-0.101z"></path>
<path fill="#000" d="M7.338 23.897h0.101v-19.309h-0.101z"></path>
<path fill="#000" d="M10.58 23.897h0.101v-19.309h-0.101z"></path>
<path fill="#000" d="M8.655 23.897h0.101v-19.309h-0.101z"></path>
<path fill="#000" d="M13.923 23.897h0.101v-19.309h-0.101z"></path>
<path fill="#000" d="M17.57 23.897h0.101v-19.309h-0.101z"></path>
<path fill="#000" d="M15.037 23.897h0.101v-19.309h-0.101z"></path>
<path fill="#000" d="M16.456 23.897h0.101v-19.309h-0.101z"></path>
<path fill="#000" d="M22.028 23.897h0.101v-19.309h-0.101z"></path>
<path fill="#000" d="M18.381 23.897h0.101v-19.309h-0.101z"></path>
<path fill="#000" d="M23.142 23.897h0.101v-19.309h-0.101z"></path>
<path fill="#000" d="M16.152 23.897h0.101v-19.309h-0.101z"></path>
<path fill="#000" d="M23.446 23.897h0.101v-19.309h-0.101z"></path>
<path fill="#000" d="M24.257 23.897h0.101v-19.309h-0.101z"></path>
<path fill="#000" d="M1.159 23.897h0.101v-19.309h-0.101z"></path>
<path fill="#000" d="M2.475 23.897h0.101v-19.309h-0.101z"></path>
<path fill="#000" d="M2.678 23.897h0.101v-19.309h-0.101z"></path>
<path fill="#000" d="M4.805 23.897h0.101v-19.309h-0.101z"></path>
<path fill="#000" d="M5.92 23.897h0.101v-19.309h-0.101z"></path>
<path fill="#000" d="M9.466 23.897h0.101v-19.309h-0.101z"></path>
<path fill="#000" d="M22.838 23.897h0.101v-19.309h-0.101z"></path>
<path fill="#000" d="M13.113 23.897h0.101v-19.309h-0.101z"></path>
<path fill="#000" d="M25.067 23.897h0.101v-19.309h-0.101z"></path>
<path fill="#000" d="M12.91 23.897h0.101v-19.309h-0.101z"></path>
<path fill="#000" d="M25.371 23.897h0.101v-19.309h-0.101z"></path>
<path fill="#000" d="M19.191 23.897h0.101v-19.309h-0.101z"></path>
<path fill="#000" d="M10.884 23.897h0.101v-19.309h-0.101z"></path>
<path fill="#000" d="M15.341 23.897h0.101v-19.309h-0.101z"></path>
<path fill="#000" d="M14.227 23.897h0.101v-19.309h-0.101z"></path>
<path fill="#000" d="M27.6 23.897h0.101v-19.309h-0.101z"></path>
<path fill="#000" d="M29.626 23.897h0.101v-19.309h-0.101z"></path>
<path fill="#000" d="M25.979 23.897h0.101v-19.309h-0.101z"></path>
<path fill="#000" d="M11.998 23.897h0.101v-19.309h-0.101z"></path>
<path fill="#000" d="M19.495 23.897h0.101v-19.309h-0.101z"></path>
<path fill="#000" d="M10.377 23.897h0.101v-19.309h-0.101z"></path>
<path fill="#000" d="M30.74 23.897h0.101v-19.309h-0.101z"></path>
<path fill="#000" d="M27.093 23.897h0.101v-19.309h-0.101z"></path>
<path fill="#000" d="M20.407 23.897h0.101v-19.309h-0.101z"></path>
<path fill="#fefefe" d="M9.753 23.897h-0.4v-19.309h0.4z"></path>
<path fill="#fefefe" d="M30.342 23.897h-0.4v-19.309h0.4z"></path>
<path fill="#fefefe" d="M4.555 23.897h-0.4v-19.309h0.4z"></path>
<path fill="#fefefe" d="M25.944 23.897h-0.4v-19.309h0.4z"></path>
<path fill="#fefefe" d="M5.555 23.897h-0.4v-19.309h0.4z"></path>
<path fill="#fefefe" d="M11.652 23.897h-0.4v-19.309h0.4z"></path>
<path fill="#fefefe" d="M7.054 23.897h-0.2v-19.309h0.2z"></path>
<path fill="#fefefe" d="M3.256 23.897h-0.2v-19.309h0.2z"></path>
<path fill="#fefefe" d="M12.851 23.897h-0.2v-19.309h0.2z"></path>
<path fill="#fefefe" d="M22.446 23.897h-0.2v-19.309h0.2z"></path>
<path fill="#fefefe" d="M13.65 23.897h-0.2v-19.309h0.2z"></path>
<path fill="#fefefe" d="M30.642 23.897h-0.2v-19.309h0.2z"></path>
<path fill="#fefefe" d="M12.551 23.897h-0.2v-19.309h0.2z"></path>
<path fill="#fefefe" d="M10.752 23.897h-0.2v-19.309h0.2z"></path>
<path fill="#fefefe" d="M10.352 23.897h-0.2v-19.309h0.2z"></path>
<path fill="#fefefe" d="M27.543 23.897h-0.2v-19.309h0.2z"></path>
<path fill="#fefefe" d="M8.653 23.897h-0.2v-19.309h0.2z"></path>
<path fill="#fefefe" d="M6.454 23.897h-0.2v-19.309h0.2z"></path>
<path fill="#fefefe" d="M23.945 23.897h-0.2v-19.309h0.2z"></path>
<path fill="#fefefe" d="M23.546 23.897h-0.2v-19.309h0.2z"></path>
<path fill="#fefefe" d="M21.346 23.897h-0.2v-19.309h0.2z"></path>
<path fill="#fefefe" d="M21.046 23.897h-0.2v-19.309h0.2z"></path>
<path fill="#fefefe" d="M19.947 23.897h-0.2v-19.309h0.2z"></path>
<path fill="#fefefe" d="M19.347 23.897h-0.2v-19.309h0.2z"></path>
<path fill="#fefefe" d="M18.048 23.897h-0.2v-19.309h0.2z"></path>
<path fill="#fefefe" d="M17.248 23.897h-0.2v-19.309h0.2z"></path>
<path fill="#fefefe" d="M16.949 23.897h-0.2v-19.309h0.2z"></path>
<path fill="#fefefe" d="M15.549 23.897h-0.2v-19.309h0.2z"></path>
<path fill="#fefefe" d="M14.75 23.897h-0.2v-19.309h0.2z"></path>
<path fill="#fefefe" d="M7.254 23.897h-0.1v-19.309h0.1z"></path>
<path fill="#fefefe" d="M30.841 23.897h-0.1v-19.309h0.1z"></path>
<path fill="#fefefe" d="M13.051 23.897h-0.1v-19.309h0.1z"></path>
<path fill="#fefefe" d="M5.055 23.897h-0.1v-19.309h0.1z"></path>
<path fill="#fefefe" d="M29.342 23.897h-0.1v-19.309h0.1z"></path>
<path fill="#fefefe" d="M27.243 23.897h-0.1v-19.309h0.1z"></path>
<path fill="#fefefe" d="M26.144 23.897h-0.1v-19.309h0.1z"></path>
<path fill="#fefefe" d="M3.656 23.897h-0.1v-19.309h0.1z"></path>
<path fill="#fefefe" d="M22.646 23.897h-0.1v-19.309h0.1z"></path>
<path fill="#fefefe" d="M2.556 23.897h-0.1v-19.309h0.1z"></path>
<path fill="#fefefe" d="M17.748 23.897h-0.1v-19.309h0.1z"></path>
<path fill="#fefefe" d="M1.657 23.897h-0.1v-19.309h0.1z"></path>
<path fill="#fefefe" d="M1.457 23.897h-0.1v-19.309h0.1z"></path>
<path fill="#fefefe" d="M6.754 23.897h-0.1v-19.309h0.1z"></path>
<path fill="#fefefe" d="M19.048 23.897h-0.1v-19.309h0.1z"></path>
<path fill="#fefefe" d="M28.901 23.897h-0.1v-19.309h0.1z"></path>
<path fill="#fefefe" d="M24.745 23.897h-0.1v-19.309h0.1z"></path>
<path fill="#fefefe" d="M24.545 23.897h-0.1v-19.309h0.1z"></path>
<path fill="#fefefe" d="M24.245 23.897h-0.1v-19.309h0.1z"></path>
<path fill="#fefefe" d="M10.052 23.897h-0.1v-19.309h0.1z"></path>
<path fill="#fefefe" d="M18.248 23.897h-0.1v-19.309h0.1z"></path>
<path fill="#fefefe" d="M8.054 23.897h-0.1v-19.309h0.1z"></path>
<path fill="#fefefe" d="M14.95 23.897h-0.1v-19.309h0.1z"></path>
<path fill="#fefefe" d="M13.85 23.897h-0.1v-19.309h0.1z"></path>
<path fill="#fefefe" d="M20.747 23.897h-0.1v-19.309h0.1z"></path>
</svg>
