<!-- Generated by IcoMoon.io -->
<svg version="1.1" xmlns="http://www.w3.org/2000/svg" width="32" height="32" viewBox="0 0 32 32">
<title>comida-rapida</title>
<path d="M1.375 22.688h20v2.625h-20v-2.625zM21.375 20h-20.063q0-3.063 2.063-5.125t5-2.563 5.907 0 5.031 2.563 2.063 5.125zM1.312 29.312v-1.312h20.063v1.312q0 0.563-0.407 0.937t-0.969 0.375h-17.312q-0.563 0-0.969-0.375t-0.407-0.937zM24.063 30.625v-10.688q0-3.937-3.251-7.063-1.937-1.937-5.688-3l-0.375-3.125h6.625v-5.437h2.625v5.437h6.688l-2.251 21.937q-0.125 0.812-0.719 1.375t-1.407 0.563h-2.251z"></path>
</svg>
