<!-- Generated by IcoMoon.io -->
<svg version="1.1" xmlns="http://www.w3.org/2000/svg" width="32" height="32" viewBox="0 0 32 32">
<title>configuraciones</title>
<path d="M29.080 16.987l-1.093-0.84v-0.293l1.067-0.84c0.213-0.16 0.267-0.453 0.133-0.68l-1.133-1.973c-0.093-0.173-0.28-0.267-0.467-0.267-0.067 0-0.133 0.013-0.2 0.040l-1.267 0.507c-0.107-0.067-0.147-0.093-0.253-0.147l-0.2-1.347c-0.040-0.28-0.267-0.48-0.533-0.48h-2.28c-0.267 0-0.493 0.2-0.533 0.453l-0.187 1.347c-0.040 0.027-0.093 0.040-0.133 0.067l-0.12 0.080-1.267-0.507c-0.067-0.027-0.133-0.040-0.2-0.040-0.187 0-0.36 0.093-0.467 0.267l-1.133 1.973c-0.133 0.227-0.080 0.52 0.133 0.68l1.067 0.84v0.307l-1.067 0.84c-0.213 0.16-0.267 0.453-0.133 0.68l1.133 1.973c0.093 0.173 0.28 0.267 0.467 0.267 0.067 0 0.133-0.013 0.2-0.040l1.267-0.493c0.107 0.067 0.16 0.093 0.267 0.147l0.2 1.347c0.040 0.267 0.267 0.453 0.533 0.453h2.28c0.267 0 0.493-0.2 0.533-0.453l0.2-1.347c0.040-0.027 0.093-0.040 0.133-0.067l0.12-0.080 1.267 0.507c0.067 0.027 0.133 0.040 0.2 0.040 0.187 0 0.36-0.093 0.467-0.267l1.133-1.973c0.133-0.227 0.080-0.52-0.133-0.68zM24 18c-1.107 0-2-0.893-2-2s0.893-2 2-2 2 0.893 2 2-0.893 2-2 2zM22.667 22.667h2.667v5.333c0 1.467-1.2 2.667-2.667 2.667h-13.333c-1.467 0-2.667-1.2-2.667-2.667v-24c0-1.467 1.2-2.667 2.667-2.667h13.333c1.467 0 2.667 1.2 2.667 2.667v5.333h-2.667v-1.333h-13.333v16h13.333v-1.333z"></path>
</svg>
