<?xml version="1.0" encoding="UTF-8"?>
<!DOCTYPE svg PUBLIC "-//W3C//DTD SVG 1.1//EN" "http://www.w3.org/Graphics/SVG/1.1/DTD/svg11.dtd">
<!-- Creator: CorelDRAW 2017 -->
<svg xmlns="http://www.w3.org/2000/svg" xml:space="preserve" width="29.74mm" height="29.74mm" version="1.1" style="shape-rendering:geometricPrecision; text-rendering:geometricPrecision; image-rendering:optimizeQuality; fill-rule:evenodd; clip-rule:evenodd"
viewBox="0 0 2974 2974"
 xmlns:xlink="http://www.w3.org/1999/xlink">
 <defs>
  <style type="text/css">
   <![CDATA[
    .fil0 {fill:#121212}
   ]]>
  </style>
 </defs>
 <g id="Capa_x0020_1">
  <metadata id="CorelCorpID_0Corel-Layer"/>
  <path class="fil0" d="M1285.84 22.41c33.67,70.54 68.06,159.42 109.32,227.02 152.2,-5.26 143.76,-186.21 235.25,-269.13l75.19 253.98c0.98,4.22 2.35,8.84 3.33,12.57 19.84,75.4 90.79,6.28 115.88,-40 37.19,-68.63 15.84,-68.21 92.96,-111.45 34.45,180.02 88.62,296.94 -16.53,434.51 -61.01,79.82 -161.48,252.85 -161.63,349.11 68.51,8.86 89.57,-22.99 179,-25.76l-24.81 214.82c27.61,17.37 36.76,14.47 65.63,28.42 29.2,-37.44 26.03,-53.53 61.18,-92.05 146.44,-160.56 54.8,-68.54 135.96,-173.31 57.42,-74.11 132.44,-225.61 210.53,-252.83 82.38,-28.71 170.83,-25.99 240.28,-59.12l-56.89 134.23c-23.93,70.25 -52.9,72.42 -59.05,158.05 80.56,62.6 205.08,52.4 333.16,31.27 -0.49,56.42 -26.92,81.19 -57.45,120.46l-76.49 109.66c-38.17,57.49 -41.94,17.88 -26.65,85.53 67.33,40.13 142.33,8.58 227.35,52.03l-24.65 21.66c-2.27,1.68 -6.53,4.65 -9.1,6.47 -51.33,36.57 -165.32,127.68 -216.97,138.27 -28.04,5.75 -102.27,1.5 -133.19,-0.92l-309.78 -29.8c-40.48,-9.22 -77.29,-64.61 -124.54,3.29 8.77,23.3 50.2,81.49 70.66,114.26 34.39,55.07 58.93,51.18 79.08,101.92 -74.61,56.01 -121.67,74.8 -195.58,109.06l16.44 74.28c169.51,34.93 368.51,74.25 555.15,80.14 54.76,99.09 147.71,223.8 183.22,337.77 -73.94,-6.86 -243.66,-93.45 -284.84,-52.65 -52.7,52.22 52.11,196.34 52.64,299.71 -48.01,-19.61 -88.88,-36.85 -142.51,-55.68l-140.38 -37.27c-70.34,13.14 36.98,252.5 49.06,277.47 -45.41,-5.86 -159.08,-76.83 -209.77,-110.46 -83.51,-55.43 -108.22,-181.88 -137.22,-263.07 -28.05,-78.52 -72.12,-124.93 -96.11,-197.87 -23.91,-72.68 15.06,-40.29 -17.74,-104.46 -114.36,28.1 -75.85,111.36 -77.01,232.72 -49.39,-7.73 -443.83,-313.66 -107.62,352.31 71.47,141.57 -5.1,318.46 -92.41,434.49 -5.06,-6.57 -5.08,-3.93 -19.95,-28.08l-113.19 -204.77c-3.13,2.56 -7.81,2.57 -9.25,7.84l-42.93 38.32c-28.7,29.89 -18.74,19.55 -43.89,62.82 -30.47,52.4 -49.28,75.17 -76.5,135.81l-31.43 -64.02c-22.77,-77.68 -22.83,-176.7 -49.99,-242.8 -77.92,6.34 -63.52,33.47 -109.37,89.45 -39.98,48.81 -49.39,32.77 -81.71,102.34 -48.21,-173.78 -30.59,-284.06 64.3,-428.46 19.13,-29.11 34.59,-46.67 52.17,-71.62 36.42,-51.68 20.72,-47.23 44.87,-93.84 30.56,-58.98 90.68,-93.55 88.39,-181.72 -121.43,-9.14 -135.27,38.06 -221.77,38.41 -10.9,-84.63 9.75,-396.51 -192.09,-104.19l-118.36 174.14c-59.91,103.06 -276.63,141.38 -409.06,181.72 27.09,-57.11 178.9,-242.14 127.1,-291.38 -78.22,-40.49 -197.99,0.45 -294.1,-5.18 33.61,-61.53 35.82,-67.55 79.17,-119.58 33.89,-40.68 70.37,-80.08 74.66,-145.33 -78.58,-36.47 -133.34,-48.65 -244.21,-59.37l324.77 -211.27c107.61,-18.3 404.81,59.11 459.57,34.02 -2.76,-69.31 -5.49,-42.05 -48.4,-94.42 -22.31,-27.23 -37.06,-49.68 -52.43,-76.73 67,-66.32 160.27,-40.01 141.06,-151.11 -83.18,-55.94 -353.17,-50.7 -476.06,-78.72 -121.78,-27.76 -110.58,-23.93 -171.02,-108.27 -43.01,-60.02 -85.95,-105.02 -118.7,-164.72 107.42,10.71 318.37,67.18 220.97,-91.46 -35.02,-57.02 -88.85,-125.63 -111.07,-198.81 165.36,6.82 249.19,91.59 318.5,10.06 26.61,-19.47 -20.29,-54.71 -38.52,-87.95 -22.75,-41.5 -36.73,-92.42 -45.83,-134.85 47.38,27.51 46.34,16.51 97.4,36.91l175.01 102.8c50.67,28.4 65.89,19.15 95.92,59.04 54.72,72.68 88.41,293.5 169.2,398.56 96.83,3.7 87.71,-44.88 109.84,-117.54l13.69 -33.69c72.48,23.91 69.65,69.28 169.66,75.55 34.54,-66.41 3.91,-119.39 -26.66,-203.31 -28.33,-77.76 -52.59,-155.48 -71.67,-237.52 -40.86,-175.73 -61.69,-245.39 99.56,-436.73zm-354.7 1451.1c48.99,52.43 158.7,98.06 185.27,152.57 35.02,71.81 -48.96,171.38 13.98,262.43 58.02,-18.83 182.22,-120.53 234.7,-107.94 84.35,20.23 160.52,135.57 262.41,92.08 27.83,-80.42 -13.79,-167.77 46.79,-226.51 64.8,-62.84 110.33,-20.19 178.8,-111.45 -139.85,-251.61 -164.67,8.46 -139.73,-426.8 -142.14,3.31 -121.63,113.29 -234.05,64.38 -59.5,-25.89 -51.28,-39.86 -109.49,-61.14 -34.88,-12.75 -33.95,-6.87 -69.93,-23.72 -38.48,-18.03 -0.27,-15.53 -61.41,-30.36 -125.23,76 -34.4,154.42 -95.42,258.63 -44.43,75.89 -156.29,49.22 -211.92,157.83zm117.9 2.59c14.13,8.48 60.85,35.41 76.81,47.27 98.33,73.11 76.36,153.23 51.84,270.97 105.41,-29.82 76.88,-81.17 193.21,-83.05 68.68,-1.11 113.81,68.47 191.01,85.26 2.94,-214.75 18.07,-199.46 180.69,-270.82 -33.88,-33.57 -33.54,-50.77 -65.22,-90.6 -29.33,-36.85 -56.48,-54.99 -79.3,-85.74 11.55,-29.42 29.41,-87.19 40.65,-126.25 -150.24,29.9 -146.87,68.29 -369.36,-75l-9.65 22.38c-59.92,188.57 28.29,144.8 -130.85,239.43l-55.56 38.39c-25.91,23.97 -2.23,-8.33 -24.27,27.76zm-704.47 644.32c-39.6,87.51 -156.26,223.64 -154.61,311.42 56.74,26.59 49.48,20.71 108.83,1.64 428.17,-137.55 334.19,-24.06 512.82,-260.52 45.17,-59.79 77.12,-124.55 128.24,-167.38 32.83,82.06 13.01,129.03 42.48,202.18 44.51,2.97 75.42,-31.57 148.84,-46.07 -20.58,47.77 -74.64,117.24 -107.37,176.78 -103.41,188.09 -154.83,168.15 -137.37,415.83 4.71,66.66 19.03,183.9 32.26,242.65 115.11,7.4 66.43,-14.47 122.16,-85.12 20.78,-26.35 83.86,-97.59 105.57,-111.47 -2.33,95.36 22.92,227.32 61.18,292.71 70.43,-3.01 47.57,5.89 82.75,-39.67l148.16 -206.06c7.08,41.76 115.34,237.53 139.68,273.79 79.17,-37.19 85.87,-124.63 113.44,-205.89 126.5,-372.84 111.5,-230.41 27.52,-471.84 -29.78,-85.63 -51.94,-176.01 -79.19,-248.62 65.42,20.7 113.76,41.36 164.86,60.14 41.98,-29.71 25.91,-26.39 49.44,-69.36l97.96 194.46c48.96,93.47 4.09,116.22 110.59,182.35l191.1 103.02c232.72,162.97 194.41,83.48 151.98,-74.9 -17.38,-64.89 -41.23,-94.15 -59.84,-159.29 88.08,10.73 247.97,135.21 332.89,96.99 15.92,-51.77 -12.15,-96.36 -40.8,-153.94 -22.64,-45.49 -52.28,-98.4 -56.39,-162.08 107.11,5.95 199.77,67.61 305.72,45.67 14.38,-126.96 -121.45,-275.54 -172.49,-377.5 -18.05,-36.05 -24.8,-110.67 -64.81,-117.61 -2.02,-0.35 -7.65,-2 -10.19,-2.34 -2.59,-0.34 -7.6,-1.17 -10.54,-1.42l-452.86 -76.88c3.47,-3.02 8.61,-5.83 11.52,-7.61l127.52 -93.47c-20.23,-64.9 -67.98,-103.77 -99.34,-164.01 128.6,0.95 406.49,76.31 521,-4.41l177.53 -116.67c56.57,-36.59 134.9,-47.86 173.62,-100.94 -43,-71.31 -197.03,-83.21 -304.65,-94.79 22.41,-47.71 46.62,-106.17 88.14,-155.57 35.65,-42.44 86.4,-99.69 94.18,-150.08 -83.86,-30.36 -276.09,-16.04 -384.67,-15.25 12.81,-65.46 50.33,-103.35 79.99,-168.69 31.08,-68.43 58.79,-107.41 83.51,-156.81 -45,-40.71 -44.19,-46.63 -102.28,-34.16 -78.28,16.8 -334.95,86.37 -376.36,120.27 -72.09,59.01 -176.36,285.78 -285.78,376.94 6.68,-156.34 42.84,-156.95 -140.07,-115.95 14.19,-88.31 62.89,-124.49 105.3,-195.46 18.35,-30.71 89.27,-155.8 93.43,-185.04 7.51,-52.69 -25.88,-188.15 -35.97,-236.87 -17.4,-84.04 -2.05,-175.28 -37.68,-235.66 -151.78,69.14 -95.62,145.31 -203.01,197.3 -34.95,-85.03 -52.67,-211.22 -90.24,-292.28 -120.15,2.73 -79.22,47.99 -129.93,132.1 -33.51,55.61 -70.83,114.95 -101.3,165.43 -67.89,-81.5 -68.43,-228.7 -144.42,-294.03 -57.87,49.27 -84.05,108.88 -123.86,191.31 -20.67,42.82 -31.47,75.52 -50.05,119.73 -86.45,205.64 -35.61,141.68 31.69,494.61 12.13,63.6 24.11,62.9 38.08,116.23 -57.69,-25.42 -59.62,-71.41 -119.87,-58.63 -59.25,12.56 -50.77,72.89 -50.18,138.04 -189.02,-317.51 -37.11,-339.06 -348.48,-456.65 -78.03,-29.46 -126.21,-68.17 -194.45,-114.82 -39.02,-26.67 -42.6,-44.76 -103.98,-47.94 -64.21,98.63 31.95,179.88 51.05,307.21 -59.99,-3.3 -112.52,-17.12 -163.51,-27.91 -351.19,-74.29 -38.18,181.7 -11.34,304.56 -115.4,3.31 -421.86,-132.62 -260.34,59.59l216.57 278.82c104.47,156.25 395.07,33.29 538.42,126.65 -29.8,21.66 -80.1,44.75 -109.36,77.65 7.39,41.66 35.3,60.01 59.86,107.71 -74.43,1.83 -210.83,-17.71 -281.59,-23.77 -125.86,-10.76 -106.99,26.13 -205.54,76.71 -69.77,35.8 -100.82,82.68 -183.69,125.2 -67.52,34.64 -157.52,56.38 -137.7,141.87l300.9 34.81c-14.08,27.26 -31.16,68.46 -47.83,92.55 -42.04,60.75 -255.19,247.04 -54.79,225.06l257.94 -24.55z"/>
 </g>
</svg>
