<?xml version="1.0" encoding="UTF-8"?>
<!DOCTYPE svg PUBLIC "-//W3C//DTD SVG 1.1//EN" "http://www.w3.org/Graphics/SVG/1.1/DTD/svg11.dtd">
<!-- Creator: CorelDRAW 2017 -->
<svg xmlns="http://www.w3.org/2000/svg" xml:space="preserve" width="29.74mm" height="29.74mm" version="1.1" style="shape-rendering:geometricPrecision; text-rendering:geometricPrecision; image-rendering:optimizeQuality; fill-rule:evenodd; clip-rule:evenodd"
viewBox="0 0 2974 2974"
 xmlns:xlink="http://www.w3.org/1999/xlink">
 <defs>
  <style type="text/css">
   <![CDATA[
    .fil0 {fill:#121212}
   ]]>
  </style>
 </defs>
 <g id="Capa_x0020_1">
  <metadata id="CorelCorpID_0Corel-Layer"/>
  <path class="fil0" d="M2117.97 590.12c71.28,37.56 195.65,-12.69 286.72,-12.6 100.89,0.1 132.2,153.1 36.98,194.89 -72.91,31.99 -228.01,37.39 -324.05,38.62 -196.36,2.51 -113.59,25.03 -193.29,134.48 13.56,989.85 782.44,-58.15 661.5,-28.99 60.47,-25.43 125.8,12.91 156.52,53.33 -0.71,98.72 -41,125.1 -86.05,188.12 -26.81,37.5 -17.75,48.45 -51.73,85.9 -189.65,209.05 341.02,28.82 415.33,108.17 6.9,7.36 101.62,178.71 -115.9,181.4 -66.32,0.82 -287.47,-3.6 -328.64,20.3 -25.23,52.28 21.01,69.17 46.6,111.95l91.62 142.09c17.5,21.97 7.45,4.9 17.63,25.3 33.55,67.18 -18.33,157.76 -103.96,157.21 -79.82,-0.51 -164.45,-187.83 -207.5,-249.7 -191.8,-278.18 -654.08,-56.13 -410.17,363.32 123.39,1.66 274.66,-6.51 393.43,3.46 59.17,4.97 117.81,5.57 153.39,48.45 26.23,31.6 63.48,93.99 39.39,141.72 -83.84,97.49 -538.9,-110.76 -365.46,131.54l119.18 167.1c30.93,51.54 40.25,130.63 -17.2,170.32 -96.35,66.55 -160.73,-68.21 -198.7,-124.51l-131.24 -176.5c-26.06,-21.66 25.65,-8.72 -32.94,-17.96 -16.22,22.81 -24.71,49.89 -36.41,78.52 -21.19,51.83 -96.83,245.13 -125.06,257.56 -114.68,6.96 -167.59,-81.54 -123.6,-198.37 16.23,-43.11 34.58,-86.07 51.94,-128.59 243.94,-597.61 -339.52,-567.42 -472.01,-333.75 -45.36,80 -5.18,134.12 46.7,237.85 10.59,21.16 20.22,33.95 31.13,54.03 10.34,19.03 16.25,34.09 27.31,56.87 38.76,79.85 85.33,184.03 48.24,271.29 -4.53,10.65 -7.59,14.17 -15.87,26.65 -43.04,64.89 -71.73,80.58 -118.78,11.76l-21.93 -31.31c-58.74,-91.34 -104.36,-266.97 -151.57,-314.46 -45.08,9.2 -67.5,54.14 -85.94,94.09l-98.24 177.41c-35.71,59.21 -49.31,145.78 -144,142.15 -182.37,-6.98 -52.53,-200.9 0.73,-274.95 24.07,-33.45 14.17,-32.85 32.44,-62.68 5.54,-9.04 152.35,-158.43 29.81,-147.28 -94.05,8.56 -417.05,108.3 -370.63,-96.97 11.17,-49.38 45.88,-60.88 98.7,-72.23 89.48,-19.25 193.66,-39.74 284.58,-55.35 357.15,-96.68 339.13,-563.59 -87.25,-512.45 -120.87,1.78 -130.84,42.74 -176.45,142.94 -77.71,170.69 -151.28,305.69 -363.47,260.14 -14.82,-95.07 36.62,-144.1 73.29,-200.24 22.36,-34.23 30.35,-60.62 51.38,-86.8 17.15,-21.37 36.07,-28.47 39.31,-53.84 7.46,-58.32 -46.38,-54.19 -107.94,-46.38 -76.92,9.74 -308.38,42.11 -338.07,-31.68l-7.6 -122.4c141.69,-70.74 419.61,-8.23 449.86,-72.04 22.41,-47.29 -232.8,-267.35 -173.67,-373.98 19.95,-35.98 85.3,-65.14 137.07,-39.15 63.7,31.97 143.27,154.91 174.01,218.66 19.13,39.67 53.65,81.36 76.32,125.16 38.93,75.24 25.9,68.97 134.19,68.8 382.23,-176.55 381.37,-373.05 261.29,-506.38 -32.12,-50.51 -42.03,-54.08 -112.12,-58 -179.09,-10.01 -370.69,43.88 -436.65,-51.16 -24.72,-35.61 -45.64,-80.63 -22.35,-130.42 52.73,-38.44 277.28,6.13 372.32,0.84 5.48,-89.73 -6.03,-64.86 -46.61,-118.99 -27.45,-36.62 -44.72,-75.62 -66.91,-104.66 -46.5,-60.87 -138.38,-138.21 -22.62,-210.3 95.69,-59.6 146.06,68.68 217.21,164.42 37.28,50.16 51.26,109.42 111.23,142.12 64.48,-53.67 158.69,-295.21 239.38,-319.92 43.27,-13.25 107.25,20.87 124.83,52.44 40.54,79.92 -83.5,245.29 -134.74,307.24 -25.08,30.31 -32.55,64.31 -58.04,101.57 -27.35,39.97 -23.26,64.15 -0.37,102.43l61.29 98.61c148.97,182.68 400.41,159.89 521.17,-33.58l46.44 -112.84c-0.96,-16.15 -47.25,-99.84 -58.2,-118.92l-130.01 -220.22c-28.05,-39.51 -41.87,-89.19 -21.91,-147.61 18.7,-54.77 56.37,-60.92 121.44,-58.05 49.89,22.77 140.89,254.82 194.22,314.03 26.67,-14.85 49.2,-24.58 65.28,-55.1l97.94 -156.27c31.07,-55.22 -22.44,36.01 8.26,-13.51 37.01,-59.7 75.08,-174.37 163.27,-162.59 49.49,6.61 91.11,33.94 70.75,98.03 -5.76,18.17 -19.47,41.44 -27.97,58.5 -13.97,28.08 -15.74,42.3 -27.11,69.05 -27,63.54 -125.88,173.21 -130.69,242.85zm204.07 -276.34c22.74,-38.73 40.98,-88.13 39.91,-140.31 -1.29,-63.61 -37.6,-72.48 -93.57,-86.48 -132.93,-33.25 -178.38,43.98 -219.59,134.36 -31.31,68.69 -93.97,148.83 -137.22,212.16 -36.05,-46.86 -37.62,-86.02 -67.69,-134.61 -19.75,-31.89 -55.28,-83.85 -77.02,-113.23 -74.97,-101.31 -183.49,-30.86 -226.98,47.27 -52.63,94.58 -4.51,123.13 29.36,202.53 28.27,66.27 74.1,118.78 101.39,184.89 20.38,49.38 53.13,74.93 65.78,126.54 -25.95,375.86 -395.04,194.3 -507.33,50.43 -20.31,-26.02 -25.37,-25.9 -34.25,-50.43 8.72,-44.72 113.55,-201.52 141.46,-240.5 23.9,-33.4 24.09,-19.8 39.84,-55.7 8.21,-18.73 18.44,-53.32 24.58,-70.54 76.22,-213.66 -180.74,-254.49 -267.45,-140.26l-111.53 175.3c-24.57,37.32 -10.77,35.65 -32.15,61.85 -69.54,-74.94 -114.02,-167.41 -175.6,-251.58 -39.96,-54.62 -119.4,-72 -182.23,-30.9 -27.34,17.87 -59.73,63.15 -69.01,101.41 -13.9,57.29 20.56,86.79 39.35,119.45l70.18 99.66c20.7,27.59 49.05,70.23 64.97,103.49 -99.24,-4.82 -300.5,-72.26 -354.19,28.91 -29.84,56.25 -3.67,109.73 18.46,159.7 14.45,32.64 17.17,45.88 42.68,63.47 126.59,87.32 331.59,-8.73 471.84,37.39 44.33,14.58 74.92,78.06 96.81,115.77 41.97,72.29 -81.96,321.35 -338.58,326.25l-152.68 -247.96c-177.04,-312.96 -456.2,-103.52 -354.53,56.82 26.27,41.42 50.65,82.35 77.15,124.09 26.95,42.47 56.84,68.22 76.65,109.61 -101.36,9.52 -196.96,-3.94 -294.08,10.18 -37.64,5.47 -102.01,27.58 -120.8,41.21 -77.59,56.28 -57.14,365.58 409.79,257.9 -12.3,29.13 -36.11,46.28 -49.7,70 -34.71,60.56 -111.13,169.63 -102.19,237.56 17.89,135.85 314.1,169.8 450.43,-165.54 11.38,-27.99 22.6,-41.05 37.97,-68.13 36.36,-64.03 38.95,-86.33 128.4,-94.16 267.34,-23.4 289.38,270.79 208.33,388.94 -52.99,7.09 -107.77,14.48 -155.01,24.6 -158.7,33.99 -477.71,-6.19 -411.33,262.65 36.5,147.85 279.81,68.82 381.13,66.25 -9.83,55.11 -45.28,75.62 -73.41,120.34l-80.9 142.2c-48.22,87.32 -27,173.29 83.19,199.52 127.93,30.46 163.54,-21.28 224.71,-115.12l134.16 -239.35 115.31 241.49c111.2,191.28 277.93,74.5 274.43,-126.32 -1.28,-73.26 -25.12,-128.1 -60.12,-183.64 -36.16,-57.36 -37.98,-105.09 -73.3,-160.86 -36.38,-57.45 -71.35,-97.76 -36.25,-163.39 77.4,-144.73 578.15,-122.43 444.6,156.93 -28.28,59.16 -59.76,97.31 -78.09,155.51l-55.99 166.77c-29.39,144.69 115.53,275.77 203.36,214.69 59.96,-41.71 121.55,-235.53 152.51,-307.02 48.24,27.95 116.66,155.85 157.17,210.08 138.64,185.61 267.23,74.59 293.79,-32.66 30.51,-123.28 -149.28,-236.97 -173.29,-332.07 110.69,8.02 340.48,44.31 380.24,-44.81 37.01,-82.93 7.42,-231.34 -152.46,-256.67 -284.45,-45.08 -411.45,50.91 -511.09,-104.92 -91.69,-158 260.66,-472.97 371.3,-254.36 31.94,68.77 133.1,227.24 183.73,283.47 103.02,114.41 256.44,-3.18 268.84,-102.07 5.13,-40.93 -10.41,-65.59 -26.2,-87.94 -39.78,-56.34 -123.32,-148.47 -132.18,-207.95 104.69,3.17 218.34,7.26 315.82,-14.12 91.53,-20.05 164.55,-46.98 146.01,-170.51 -9.36,-62.36 -23.81,-68.16 -65.02,-105.21 -98.85,-88.85 -292.61,7.17 -391.37,-25.71 19.9,-58.16 138.78,-172.11 153.37,-259.74 11.56,-69.48 -30.11,-100.9 -66.72,-131.83 -46.1,-38.92 -111.08,-24.92 -181.17,-25.8 -35.06,58.57 -72.91,77.84 -105.18,145.55 -15.74,33.02 -33.6,50.96 -50.57,77.11 -357.92,551.52 -575.77,-153.89 -345.93,-217.98 90.52,-25.25 456.65,41.95 494.76,-121.86 13.51,-58.12 1.83,-139.38 -28.27,-171.06 -74.03,-77.93 -201.83,-34.3 -319.47,-20.83l127.93 -240.17z"/>
 </g>
</svg>
