<?xml version="1.0" encoding="UTF-8"?>
<!DOCTYPE svg PUBLIC "-//W3C//DTD SVG 1.1//EN" "http://www.w3.org/Graphics/SVG/1.1/DTD/svg11.dtd">
<!-- Creator: CorelDRAW 2017 -->
<svg xmlns="http://www.w3.org/2000/svg" xml:space="preserve" width="29.74mm" height="29.74mm" version="1.1" style="shape-rendering:geometricPrecision; text-rendering:geometricPrecision; image-rendering:optimizeQuality; fill-rule:evenodd; clip-rule:evenodd"
viewBox="0 0 2974 2974"
 xmlns:xlink="http://www.w3.org/1999/xlink">
 <defs>
  <style type="text/css">
   <![CDATA[
    .fil0 {fill:#121212}
   ]]>
  </style>
 </defs>
 <g id="Capa_x0020_1">
  <metadata id="CorelCorpID_0Corel-Layer"/>
  <path class="fil0" d="M835.36 2009.99c-42.48,47.4 -43,74.82 -68.28,117.79 -35.07,59.62 -127.66,85.73 -200.77,97.74 94.55,-209.6 118.3,-211.95 269.05,-215.53zm0 0c96.12,-140.64 47.76,-100.47 89.04,-157.65 27.13,-37.58 86.58,-73.07 63.52,-136.06 -66.01,-79.69 -295.26,107.69 -459.22,158.93 -185.59,58.01 -377.83,-137.46 -436.99,-174.12 44.7,-89.81 204.18,-239.61 297.91,-275.2 146.54,-55.65 363.52,10.68 534.62,-7.21 5.42,-82.16 -29.22,-109.97 -91.24,-133.72 -88.51,-33.89 -74.44,-45.85 -139.12,-77.96 -85.83,-42.59 -113.59,58.23 -295.91,-108.38 3.66,-2.01 8.86,-3.72 11.61,-4.7 218.38,-77.66 215.65,-16.27 276.87,80.33l335.44 1.52c-1.16,-98.1 -67.63,-127.12 -134.95,-161.24 -98.14,-49.76 -102.92,-67.41 -175.94,-117.24 -105.52,-72.03 -78.38,-51.23 -106.23,-188.01 -27.21,-133.64 -5.5,-137.75 -5.7,-259 159.51,-2.96 251.72,7.37 387.23,80.1 88.37,47.43 143.07,170.58 173.61,257.86 29.62,84.67 8.17,163.54 91.13,208.65 73.79,-42.75 62.78,-42.11 63.95,-144.83 0.8,-70.91 14.16,-133.43 13.87,-186.81 -0.72,-131.44 -48.42,-25.58 -51.58,-153.07 -1.45,-58.02 23.96,-118.54 50.71,-155.14 51.54,122.72 102.47,49.54 92.29,221.07l-60.4 57.27 144.26 291.61 80 -32.86c44.53,-391.37 -56.77,-485.1 224.98,-611.43 68.91,-30.89 109.64,-71.87 198.55,-83.27 91.34,134.63 167.45,322.56 49.72,485.69 -17.73,24.56 -22.32,27.11 -40.12,52.14 -104.45,146.8 -87.44,81.91 -152.88,203.99 -1.74,3.24 -3.86,7.17 -5.64,10.36 -35.4,63.74 -49.16,40.85 -15.82,110.88 53.27,0.07 116.94,-41.1 171.88,-64.78 301.92,-130.13 95.17,-155.33 238.14,-238.47 50.02,-29.09 114.39,-42.09 188.24,-46.85 -25.34,46.34 -56.29,122.28 -85.73,163.19 -48.9,67.98 -73.66,71.26 -177.94,69.86 -30.15,48.98 -59.42,128.57 -114.49,192.54 -42.14,48.96 -20.29,-2.69 -37.43,53.29 125.34,172.15 312.58,-353.98 844.78,79.41 -45.43,100.29 -44.4,94.98 -123.87,165.27 -49.75,44.01 -88.89,105.71 -156,121.46 -158.08,37.12 -414.29,-53.53 -446.17,-54.11 -195.81,-3.59 156.39,238.09 172.16,257.1 111.67,1.76 70.24,-36.73 160.18,26.59 54.54,38.41 88.25,46 104.35,122.55l-204.18 5.12 -74.5 -136.81c-235.99,19.38 -318.93,-46.89 -355.93,31.07 26.71,68.21 278.52,204.57 334.44,251.96 61.9,52.46 86.98,87.35 97.44,196.25 16.23,169.02 25.25,275.02 -65.46,267.26 -17.95,-1.54 -52.07,-9.22 -66.03,-11.7 -119.4,-21.28 -243.36,-48.76 -311.32,-137.88 -47.64,-62.5 -128.63,-342.08 -190.26,-411.21 -97.68,26.37 -69.84,56.18 -83.07,163.9 -10.57,86.04 -28.54,132.6 -28.13,221.1 85.22,48.24 105.69,46.54 111.51,108.48 3.36,35.83 -24.27,154.79 -30.16,186.26 -45.41,-13.91 -94.88,-80.5 -118.61,-130.64 -94.61,-199.9 197.9,-14.65 -156.02,-480.66 -27.38,13.43 -45.27,25.16 -65.47,38.61 -4.14,90.91 -15.46,176.17 -15.68,262.8 -0.23,94.8 19.96,153.87 -33.45,229.52 -57.54,81.5 -289.27,194.77 -323.66,201.25 -235.42,-378.56 -41.11,-490.37 29.08,-603.38 59.72,-96.17 188.69,-163.05 125.91,-226.83 -54.06,-54.92 -133.62,51 -322.12,75.98zm728.53 354.82c-102.65,98.89 -77.36,108.66 -6.6,219.2 52.74,82.38 79.41,146.59 156.99,165.19 42.44,-31.55 60.19,-93.43 79.96,-149.9 90.8,-259.39 -4.53,-197.08 -60.42,-284.36 -22.19,-34.65 -3.97,-125.39 -2.15,-185.25 202.67,344.01 53.69,361.36 463.26,449.32 99.78,21.43 167.14,35.05 239,-18.64 16.9,-107.46 26.83,-388.01 -15.79,-466.73 -34,-62.81 -78.73,-85.48 -141.47,-121.33 -64.13,-36.66 -112.96,-63.65 -144.52,-120.24l138.02 4.87c55.3,83.64 -1,140.13 169.69,137.99l228.03 -20.43c3.67,-0.91 8.86,-3.61 11.71,-4.49 89.98,-28.04 -33.63,-115.53 -43.31,-125.8 -39.67,-42.08 -45.4,-73.24 -90.37,-110.07 -61.77,-50.58 -78.09,-38.14 -167.53,-47.75 -71.2,-7.65 -69.87,-33.73 -124.44,-77.56 215.81,19.46 267.1,87.83 440.19,-23.98 74.78,-48.31 247.74,-201.81 255.03,-316.37 -14.35,-37.63 -37.25,-66.01 -64.86,-89.09l-285.09 -147.4c-171.05,-66.81 -301.6,26.48 -431.66,75.46l54.54 -99.73c153.64,-3.78 176.74,-13.85 219.64,-139.12 28.86,-84.26 249.81,-369.37 -174.25,-189.34 -243.55,103.38 -22.4,167.79 -290.51,250.54 68.75,-133.97 156.25,-173.82 187.62,-261.59 47.67,-133.41 28.89,-234.74 -9.7,-365.02 -9.37,-31.63 -29.1,-79.11 -47.32,-107.6 -24.06,-37.62 -34.54,-47.44 -80.73,-59 -110.58,-27.67 -304.67,103.9 -397.72,166.46 -134.13,90.19 -78.38,319.67 -125.26,452.49 -179.12,-222.31 91.26,-105.07 -50.93,-352.68 -66.19,-115.25 -162.24,-243.97 -226.07,-38.81 -118.1,379.55 61.65,143.93 17.56,405.5 -58.16,-52.43 -53.03,-126.92 -89.45,-192.47 -31.37,-56.48 -83.82,-103.44 -149.29,-128.69 -99.81,-38.5 -348.25,-135.29 -442.61,-53.3 -101.36,88.07 -47.32,370.21 5.85,459.52 106.3,178.57 220.85,154.36 309.77,259.83l-168.11 0.72c-51.3,-88.42 -8.56,-145.3 -195,-119.5 -122.11,16.9 -177.62,-12.92 -235.06,72.08 25.33,87.87 111.59,114.05 182,170.9 120.67,97.44 84.81,-1.04 265.26,73.05 -67.06,41.17 -131.76,-17.35 -278.16,4.4 -82.5,12.25 -226.74,107.42 -279.29,168.73 -64.48,75.21 -194.81,138.48 -125.99,262.84 31.17,56.33 90.43,79.99 129.74,103.69 444.39,267.87 373.54,29.61 692.99,-27.57 -33.41,46.78 -49.71,87.4 -80.38,136.19 -165.91,6.05 -140.87,3.7 -221.44,104.77 -57.03,71.54 -92.82,107.72 -82.33,235.52 82.96,5.74 110.94,-17.64 176.73,-32.54 253.69,-57.46 131.05,-86.28 233.49,-183.83 30.89,-29.42 87.47,-32.72 135.29,-53.28 -22.67,81.03 -51.49,40.23 -140.83,202.13 -67.69,122.66 -123.65,150.52 -32.72,389.24 79.64,209.09 46.08,346.56 479.37,41.64 159.36,-112.15 120.19,-249.98 117.58,-472.16 41.68,51.26 88.26,111.44 112.05,173.35z"/>
 </g>
</svg>
