<!-- Generated by IcoMoon.io -->
<svg version="1.1" xmlns="http://www.w3.org/2000/svg" width="32" height="32" viewBox="0 0 32 32">
<title>corriendo</title>
<path d="M13.188 25.812l-9.312-1.812 0.5-2.688 6.563 1.312 2.125-10.812-2.437 0.937v4.563h-2.625v-6.251l6.937-2.937q0.188 0 0.531-0.063t0.531-0.063q1.312 0 2.251 1.312l1.312 2.125q1.812 3.188 5.751 3.188v2.688q-4.437 0-7.312-3.312l-0.812 4 2.812 2.625v10h-2.688v-8l-2.812-2.625zM18 7.312q-1.063 0-1.875-0.812t-0.812-1.875 0.812-1.844 1.875-0.781 1.844 0.781 0.781 1.844-0.781 1.875-1.844 0.812z"></path>
</svg>
