<!-- Generated by IcoMoon.io -->
<svg version="1.1" xmlns="http://www.w3.org/2000/svg" width="32" height="32" viewBox="0 0 32 32">
<title>elipsix</title>
<path d="M14.024 15.147c4.224 0 7.649 3.309 7.649 7.39s-3.425 7.39-7.649 7.39c-4.225 0-7.649-3.309-7.649-7.39s3.425-7.39 7.649-7.39zM13.766 17.748c-1.788 0.39-1.264 2.992 0.562 2.675 0.191-0.033 0.38-0.116 0.481-0.182 1.385-0.903 0.416-2.812-1.043-2.493zM13.72 21.203c-1.788 0.391-1.264 2.992 0.562 2.675 0.19-0.033 0.38-0.116 0.481-0.182 1.385-0.903 0.416-2.812-1.043-2.493zM13.674 24.659c-1.788 0.391-1.264 2.992 0.563 2.676 0.19-0.033 0.38-0.116 0.481-0.182 1.385-0.903 0.416-2.812-1.044-2.493z"></path>
<path d="M13.724 11.496c-0.532-1.498-1.003-2.229-1.002-4.453 0.003-5.295 3.205-7.258 3.934-1.365 0.262 2.118-0.069 3.096-0.645 5.231l0.785 0.15c0.651-1.654 1.89-3.448 3.007-4.154 0.919-0.581 3.934-1.189 5.368 0.021 0.912 0.77 0.323 1.571-0.654 1.836-2.484 0.671-2.265 0.937-3.996 2.414-0.756 0.645-1.25 0.743-2.003 1.263 0.138 0.675 0.899 1.751-0.025 3.238-1.459-0.986-2.658-1.724-4.784-1.546-0.353 0.029-0.524 0.092-0.814 0.124-1.553 0.171 0.212-2.367 0.829-2.76z"></path>
</svg>
