<!-- Generated by IcoMoon.io -->
<svg version="1.1" xmlns="http://www.w3.org/2000/svg" width="32" height="32" viewBox="0 0 32 32">
<title>emoji-a-medias</title>
<path d="M22.667 12.667c0 1.105-0.895 2-2 2s-2-0.895-2-2c0-1.105 0.895-2 2-2s2 0.895 2 2z"></path>
<path d="M13.333 12.667c0 1.105-0.895 2-2 2s-2-0.895-2-2c0-1.105 0.895-2 2-2s2 0.895 2 2z"></path>
<path d="M15.987 2.667c-7.36 0-13.32 5.973-13.32 13.333s5.96 13.333 13.32 13.333c7.373 0 13.347-5.973 13.347-13.333s-5.973-13.333-13.347-13.333zM16 26.667c-5.893 0-10.667-4.773-10.667-10.667s4.773-10.667 10.667-10.667 10.667 4.773 10.667 10.667-4.773 10.667-10.667 10.667zM16 22c0.973 0 1.853 0.253 2.627 0.707 0.16-0.187 1.147-1.307 1.347-1.52-1.133-0.747-2.493-1.187-3.973-1.187s-2.84 0.44-3.987 1.173c1.293 1.453 0.013 0.027 1.347 1.52 0.787-0.44 1.667-0.693 2.64-0.693z"></path>
</svg>
