<!-- Generated by IcoMoon.io -->
<svg version="1.1" xmlns="http://www.w3.org/2000/svg" width="32" height="32" viewBox="0 0 32 32">
<title>ferry</title>
<path d="M8 8v5.312l8-2.625 8 2.625v-5.312h-16zM5.251 25.312l-2.5-8.875q-0.063-0.125-0.063-0.437 0-0.875 0.937-1.251l1.688-0.563v-6.188q0-1.063 0.812-1.875t1.875-0.812h4v-4h8v4h4q1.063 0 1.875 0.812t0.812 1.875v6.188l1.688 0.563q1.312 0.437 0.875 1.688l-2.5 8.875h-0.063q-3.063 0-5.375-2.625-2.312 2.625-5.312 2.625t-5.312-2.625q-2.312 2.625-5.375 2.625h-0.063zM26.688 28h2.625v2.688h-2.625q-2.812 0-5.375-1.312-2.5 1.251-5.312 1.251t-5.312-1.251q-2.563 1.312-5.375 1.312h-2.625v-2.688h2.625q2.875 0 5.375-1.751 2.437 1.688 5.312 1.688t5.312-1.688q2.5 1.751 5.375 1.751z"></path>
</svg>
