<!-- Generated by IcoMoon.io -->
<svg version="1.1" xmlns="http://www.w3.org/2000/svg" width="32" height="32" viewBox="0 0 32 32">
<title>frases-tomame-como-al-tequila-de-un-golpe-y-sin-pensarlo-curvas</title>
<path d="M2.276 11.334v-1.897h-0.628v-0.544h1.913v0.544h-0.624v1.897h-0.661zM4.501 9.914v0.402c0 0.208 0.023 0.34 0.071 0.393 0.047 0.054 0.145 0.081 0.295 0.081h0.121c0.149 0 0.249-0.027 0.297-0.082s0.072-0.186 0.072-0.392v-0.402c0-0.207-0.024-0.339-0.072-0.395s-0.147-0.082-0.297-0.082h-0.121c-0.148 0-0.246 0.027-0.294 0.082s-0.072 0.187-0.072 0.395zM3.833 9.86c0-0.37 0.069-0.629 0.208-0.777s0.381-0.22 0.726-0.22h0.321c0.346 0 0.589 0.074 0.728 0.222s0.209 0.407 0.209 0.775v0.507c0 0.369-0.069 0.628-0.209 0.775s-0.382 0.222-0.728 0.222h-0.321c-0.345 0-0.587-0.073-0.726-0.22s-0.208-0.407-0.208-0.777v-0.507zM8.402 8.893h0.956v2.441h-0.638v-1.794l-0.49 1.794h-0.655l-0.494-1.813v1.813h-0.637v-2.441h0.956l0.501 1.766 0.501-1.766zM10.604 10.411h0.534l-0.242-1.011h-0.043l-0.249 1.011zM9.671 11.334l0.702-2.441h1.007l0.685 2.441h-0.702l-0.109-0.427h-0.77l-0.111 0.427h-0.702zM11.346 8.081l-0.513 0.608h-0.232l0.322-0.608h0.423zM14.331 8.893h0.956v2.441h-0.638v-1.794l-0.49 1.794h-0.655l-0.493-1.813v1.813h-0.638v-2.441h0.956l0.5 1.766 0.501-1.766zM15.785 11.334v-2.441h1.833v0.544h-1.179v0.423h1.145v0.47h-1.145v0.46h1.205v0.544h-1.859zM21.24 10.393v0.071c0 0.318-0.070 0.548-0.21 0.688s-0.368 0.211-0.686 0.211h-0.222c-0.345 0-0.587-0.074-0.726-0.221s-0.208-0.407-0.208-0.777v-0.506c0-0.371 0.069-0.629 0.208-0.777s0.38-0.22 0.726-0.22h0.181c0.342 0 0.581 0.065 0.716 0.194s0.203 0.357 0.203 0.682v0.048h-0.651v-0.044c0-0.111-0.026-0.19-0.077-0.236s-0.141-0.069-0.269-0.069c-0.141 0-0.235 0.027-0.282 0.081s-0.071 0.187-0.071 0.395v0.401c0 0.208 0.023 0.34 0.071 0.393s0.141 0.081 0.282 0.081c0.132 0 0.223-0.025 0.274-0.075s0.076-0.138 0.076-0.265v-0.056h0.664zM22.227 9.914v0.402c0 0.208 0.023 0.34 0.070 0.393s0.145 0.081 0.296 0.081h0.121c0.149 0 0.248-0.027 0.297-0.082s0.072-0.186 0.072-0.392v-0.402c0-0.207-0.024-0.339-0.072-0.395s-0.147-0.082-0.297-0.082h-0.121c-0.149 0-0.247 0.027-0.294 0.082s-0.072 0.187-0.072 0.395zM21.559 9.86c0-0.37 0.069-0.629 0.208-0.777s0.38-0.22 0.726-0.22h0.321c0.346 0 0.589 0.074 0.728 0.222s0.208 0.407 0.208 0.775v0.507c0 0.369-0.069 0.628-0.208 0.775s-0.383 0.222-0.728 0.222h-0.321c-0.345 0-0.587-0.073-0.726-0.22s-0.208-0.407-0.208-0.777v-0.507zM26.128 8.893h0.956v2.441h-0.638v-1.794l-0.49 1.794h-0.655l-0.493-1.813v1.813h-0.638v-2.441h0.956l0.5 1.766 0.501-1.766zM28.172 9.914v0.402c0 0.208 0.023 0.34 0.070 0.393s0.145 0.081 0.296 0.081h0.121c0.149 0 0.249-0.027 0.297-0.082s0.072-0.186 0.072-0.392v-0.402c0-0.207-0.024-0.339-0.072-0.395s-0.147-0.082-0.297-0.082h-0.121c-0.149 0-0.247 0.027-0.294 0.082s-0.072 0.187-0.072 0.395zM27.505 9.86c0-0.37 0.069-0.629 0.208-0.777s0.381-0.22 0.726-0.22h0.321c0.346 0 0.589 0.074 0.728 0.222s0.209 0.407 0.209 0.775v0.507c0 0.369-0.069 0.628-0.209 0.775s-0.382 0.222-0.728 0.222h-0.321c-0.345 0-0.586-0.073-0.726-0.22s-0.208-0.407-0.208-0.777v-0.507z"></path>
<path d="M11.766 12.5h0.098l0.042-0.010 0.042 0.029 0.066 0.066 0.074 0.121 0.042 0.137 0.014 0.121-0.088 0.333-0.010 0.056 0.076 0.020 0.159 0.010 0.271 0.032 0.334 0.022 0.347 0.043 0.127 0.056 0.022 0.020-0.009 0.013-0.154 0.043-0.108 0.052h-0.062l-0.033 0.033-0.183 0.010-0.013 0.033-0.029 0.013-0.131 0.009-0.119 0.033-0.29 0.085-0.271 0.098-0.098 0.052-0.137 0.055-0.098 0.151-0.010 0.098-0.033 0.062-0.046 0.098-0.010 0.065-0.010 0.042-0.042 0.076-0.056 0.195-0.010 0.076-0.054 0.159-0.034 0.132-0.009 0.098-0.020 0.029 0.010 0.022 0.010 0.174 0.009 0.019 0.122 0.066 0.107-0.010 0.128-0.066 0.032-0.019h0.033v0.019l-0.033 0.034-0.010 0.074-0.022 0.056-0.034 0.085-0.074 0.066-0.095 0.117-0.131 0.098-0.098 0.033-0.085 0.066-0.225-0.066-0.194-0.108-0.131-0.151-0.066-0.186-0.042-0.301 0.033-0.301 0.161-0.605 0.085-0.271-0.128 0.022-0.324-0.010-0.151-0.075-0.066-0.056-0.022-0.022-0.033-0.085-0.029-0.033 0.029-0.075-0.009-0.042 0.065-0.085 0.127-0.046 0.295-0.128 0.344-0.074 0.183-0.033 0.032-0.010 0.259-0.52 0.195-0.31 0.108-0.121 0.085-0.009zM14.399 14.073h-0.023l-0.147 0.025-0.206 0.085-0.259 0.129-0.261 0.208-0.131 0.131-0.18 0.222 0.131-0.002 0.235-0.086 0.222-0.114 0.176-0.115 0.141-0.131 0.127-0.124 0.174-0.229zM14.268 13.742l0.206-0.066 0.207 0.023 0.052 0.052 0.023 0.075-0.023 0.022 0.033 0.098-0.013 0.135-0.042 0.085-0.010 0.039-0.010 0.033-0.088 0.119-0.010 0.042-0.042 0.054-0.075 0.066-0.045 0.036-0.105 0.105-0.131 0.127-0.117 0.098-0.010 0.034-0.066 0.032h-0.022l-0.066 0.053-0.062 0.033-0.183 0.131-0.088 0.032-0.019 0.030-0.281 0.108-0.131 0.012-0.034 0.095 0.014 0.033 0.032 0.055 0.151 0.085 0.235 0.066 0.258 0.033 0.023 0.023 0.432 0.019 0.324-0.019 0.29-0.046 0.151-0.033h0.023v0.022l-0.164 0.098-0.151 0.074-0.009 0.020-0.066 0.022-0.085 0.010-0.023 0.033-0.14 0.055h-0.052l-0.023 0.033-0.042 0.009-0.056-0.009-0.010 0.009h-0.065l-0.033 0.033-0.138 0.019-0.088 0.013-0.128 0.020-0.078-0.010-0.010 0.010h-0.117l-0.034 0.022-0.042-0.010h-0.065l-0.023-0.012h-0.085l-0.020-0.020h-0.046l-0.075-0.022-0.020-0.010v-0.013l-0.012-0.010h-0.076l-0.022-0.010-0.042 0.010-0.042-0.032-0.086-0.062-0.098-0.098-0.085-0.117-0.088-0.196-0.010-0.075 0.010-0.034-0.029-0.117v-0.023l-0.017-0.029 0.017-0.046v-0.085l0.010-0.098 0.128-0.183 0.151-0.193 0.111-0.098 0.095-0.108 0.076-0.054 0.399-0.291 0.291-0.183 0.431-0.183zM16.894 17.242l-0.114 0.202-0.16 0.324-0.131 0.315-0.042 0.065-0.216 0.356-0.184 0.174-0.097 0.042-0.086-0.033-0.085-0.196-0.065-0.291-0.023-0.324v-0.31l0.042-0.324 0.108-0.639 0.151-0.614 0.046-0.174 0.022-0.029v-0.089l-0.261 0.098-0.161 0.009-0.173-0.055-0.074-0.062-0.119-0.207-0.010-0.179 0.020-0.197 0.095-0.205 0.163-0.203 0.14-0.153 0.141-0.151 0.464-0.38 0.259-0.16 0.226-0.088 0.075-0.009 0.118 0.022 0.022 0.023 0.151-0.174 0.033-0.013v-0.033l0.042-0.029h0.023l0.085 0.019 0.023-0.019 0.098 0.019 0.062 0.034 0.056 0.085-0.010 0.056-0.074 0.151-0.023 0.065-0.033 0.074-0.206 0.484-0.033 0.056-0.010 0.085-0.215 0.496-0.033 0.023-0.033 0.117-0.085 0.085-0.032 0.132-0.033 0.022-0.052 0.076v0.052l-0.056 0.066-0.074 0.193-0.034 0.022-0.074 0.273-0.075 0.095v0.054l-0.023 0.053-0.032 0.098-0.030 0.062-0.055 0.206-0.076 0.216-0.022 0.107-0.034 0.076v0.042l-0.042 0.147-0.035 0.196-0.019 0.134-0.010 0.183-0.006 0.074 0.006 0.099 0.036 0.193 0.042-0.056 0.291-0.677 0.225-0.455 0.356-0.624 0.033 0.074-0.026 0.099-0.036 0.088 0.042 0.098-0.006 0.078 0.017 0.082-0.053 0.124-0.020 0.154zM16.731 14.224l0.098-0.151-0.112 0.029-0.196 0.173-0.173 0.203-0.010 0.023-0.053 0.065-0.085 0.095-0.209 0.313-0.042 0.056-0.112 0.2-0.003 0.117 0.069 0.052 0.104-0.026 0.151-0.134 0.098-0.135 0.108-0.176 0.194-0.34 0.088-0.181 0.085-0.185zM18.166 13.598l0.062-0.036h0.010l0.094 0.022 0.059 0.118v0.156l-0.095 0.38v0.081l-0.058 0.262-0.082 0.501v0.33l0.035 0.046 0.062-0.052 0.073-0.137 0.366-0.866 0.072-0.177 0.19-0.428 0.017-0.056 0.032-0.049 0.056-0.062h0.068l0.086-0.022h0.081l0.144 0.036 0.046 0.072 0.013 0.095v0.014l-0.013 0.105 0.007 0.072-0.014 0.085-0.035 0.161-0.037 0.147-0.046 0.134-0.029 0.124-0.029 0.102-0.027 0.118-0.053 0.294-0.026 0.255 0.017 0.275 0.045 0.232-0.062 0.033-0.056-0.019-0.010 0.042-0.042-0.010-0.026 0.003-0.033-0.030-0.039-0.095-0.026-0.108-0.033-0.118-0.017-0.261-0.117 0.239-0.109 0.131-0.235 0.226-0.19 0.105-0.144 0.026-0.108-0.036-0.117-0.059-0.131-0.156-0.095-0.259-0.023-0.167 0.023-0.369 0.072-0.425 0.167-0.523 0.141-0.356 0.117-0.141zM20.761 13.046l0.042-0.013 0.075 0.046 0.076 0.020 0.022 0.098 0.020 0.009-0.020 0.023v0.127l-0.032 0.141-0.119 0.074-0.12 0.023-0.095-0.023-0.131-0.169-0.010-0.088v-0.085l0.020-0.088 0.055-0.010v-0.032l0.053-0.042h0.033l0.022-0.023 0.108 0.013zM20.469 14.134l0.099-0.042 0.062 0.020 0.033-0.020h0.022l0.086 0.076 0.042 0.022 0.078 0.151 0.010 0.105v0.111l-0.099 0.203-0.151 0.497-0.033 0.314-0.010 0.107 0.062 0.020 0.195-0.010 0.249-0.066-0.046 0.088v0.030l-0.062 0.108-0.046 0.046 0.013 0.032-0.074 0.053h-0.023l-0.019 0.042-0.088 0.032-0.020 0.023-0.197 0.117-0.074 0.056-0.141 0.019-0.020 0.010-0.032-0.019-0.131-0.056-0.161-0.118-0.099-0.117-0.042-0.108-0.042-0.239v-0.29l0.042-0.174 0.129-0.324 0.195-0.333 0.171-0.227 0.12-0.14zM22.866 11.815l0.042-0.022 0.076 0.013 0.074 0.095 0.023 0.043v0.098l-0.086 0.249-0.088 0.183-0.022 0.085-0.151 0.281-0.042 0.056-0.053 0.127-0.032 0.046-0.033 0.076-0.132 0.235-0.065 0.131-0.076 0.151-0.042 0.075-0.055 0.108v0.085l-0.052 0.046 0.009 0.029-0.074 0.164v0.022l-0.017 0.085-0.058 0.076 0.009 0.085-0.019 0.022-0.023 0.066-0.019 0.119-0.033 0.192-0.009 0.046v0.076l-0.023 0.033 0.010 0.032v0.063l-0.020 0.032v0.141l0.010 0.042 0.010 0.14 0.056 0.196 0.042 0.095-0.010 0.056 0.053 0.052v0.046l0.117 0.127 0.164 0.033 0.085-0.009 0.032 0.019 0.056 0.033-0.088 0.042v0.033h-0.010l-0.107 0.065-0.033 0.010h-0.085l-0.196-0.075-0.085-0.076-0.098-0.097-0.042-0.062-0.141-0.249-0.010-0.065-0.055-0.193-0.042-0.315v-0.183l0.022-0.226 0.020-0.032-0.020-0.033 0.085-0.455 0.151-0.441 0.023-0.042 0.107-0.301 0.282-0.543 0.042-0.062 0.118-0.229 0.304-0.451 0.171-0.215 0.054-0.076zM24.698 14.024l-0.053-0.010-0.208 0.075-0.298 0.18-0.373 0.275-0.239 0.232-0.183 0.209-0.111 0.246-0.013 0.092 0.078 0.042 0.328-0.265 0.379-0.337 0.448-0.442 0.246-0.297zM24.394 13.697l0.205-0.049h0.085l0.105 0.12 0.013 0.042-0.059 0.151 0.144-0.128h0.020l0.088-0.010 0.127 0.036 0.033 0.034 0.042 0.065 0.020 0.032 0.010 0.164-0.036 0.085 0.019 0.108-0.157 0.395-0.124 0.324v0.030l-0.078 0.141-0.060 0.247-0.013 0.095-0.032 0.010v0.108l-0.033 0.075 0.010 0.066-0.026 0.085-0.010 0.066 0.034 0.033 0.015 0.163 0.042 0.066 0.020 0.053 0.066 0.056 0.075 0.022 0.052 0.014v0.019l-0.085 0.020-0.033 0.033h-0.033l-0.074 0.052-0.014 0.033h-0.032l-0.119-0.013-0.075-0.035-0.16-0.164-0.053-0.117-0.049-0.122v-0.042l-0.029-0.14-0.039-0.282 0.025-0.313 0.037-0.226h-0.020v0.022l-0.154 0.18-0.153 0.147-0.069 0.108-0.066 0.062-0.075 0.075-0.12 0.095-0.21 0.127-0.226 0.081-0.108-0.012-0.205-0.069-0.161-0.078-0.061-0.098-0.042-0.088-0.007-0.151 0.022-0.17 0.049-0.216 0.134-0.245 0.032-0.033 0.122-0.149 0.317-0.285 0.481-0.337 0.402-0.242 0.253-0.124zM25.846 15.069l0.085-0.036 0.151 0.013 0.342 0.111 0.108 0.053 0.095 0.137 0.068 0.176-0.013 0.194-0.056 0.134-0.069 0.138-0.107 0.095-0.151 0.176-0.164 0.111-0.081 0.082-0.042 0.026-0.121 0.124-0.082 0.040-0.029 0.043-0.219 0.107-0.22 0.137-0.095 0.027-0.026-0.039-0.081-0.056 0.307-0.38 0.245-0.347 0.128-0.144 0.112-0.143 0.049-0.128-0.052-0.007-0.099 0.007-0.18-0.043-0.046-0.107v-0.144l0.026-0.122 0.125-0.19 0.091-0.046z"></path>
<path d="M4.124 20.287v-2.44h1.242c0.345 0 0.587 0.072 0.726 0.216s0.208 0.396 0.208 0.757v0.493c0 0.361-0.069 0.613-0.208 0.757s-0.381 0.216-0.726 0.216h-1.242zM4.779 19.744h0.487c0.15 0 0.249-0.027 0.295-0.081s0.070-0.184 0.070-0.393v-0.401c0-0.209-0.023-0.341-0.071-0.395s-0.146-0.082-0.295-0.082h-0.487v1.353zM6.719 20.287v-2.44h1.834v0.543h-1.179v0.423h1.145v0.47h-1.145v0.46h1.205v0.543h-1.86zM10.164 17.847h0.652v1.423c0 0.198 0.025 0.326 0.074 0.385s0.151 0.089 0.305 0.089h0.12c0.153 0 0.254-0.029 0.303-0.087s0.074-0.187 0.074-0.387v-1.423h0.651v1.474c0 0.219-0.014 0.379-0.041 0.482s-0.072 0.192-0.136 0.267c-0.077 0.089-0.172 0.152-0.286 0.19-0.114 0.039-0.269 0.058-0.463 0.058h-0.322c-0.195 0-0.349-0.019-0.463-0.058-0.114-0.038-0.209-0.101-0.285-0.19-0.065-0.076-0.112-0.167-0.14-0.271s-0.042-0.264-0.042-0.478v-1.474zM12.802 20.287v-2.44h0.974l0.759 1.813v-1.813h0.624v2.44h-0.974l-0.759-1.829v1.829h-0.624zM18.94 18.609h-0.654c-0.002-0.076-0.030-0.132-0.085-0.167-0.054-0.034-0.141-0.052-0.263-0.052h-0.164c-0.15 0-0.249 0.027-0.297 0.082s-0.072 0.187-0.072 0.396v0.401c0 0.207 0.024 0.337 0.072 0.392s0.147 0.082 0.297 0.082h0.182c0.129 0 0.219-0.018 0.27-0.054s0.076-0.098 0.076-0.186v-0.095h-0.374v-0.457h1.012v0.417c0 0.33-0.072 0.571-0.217 0.722-0.145 0.152-0.374 0.227-0.686 0.227h-0.444c-0.275 0-0.483-0.087-0.625-0.261s-0.212-0.432-0.212-0.771v-0.371c0-0.38 0.074-0.659 0.224-0.834s0.385-0.263 0.709-0.263h0.356c0.262 0 0.477 0.065 0.645 0.196s0.252 0.295 0.252 0.493v0.103zM19.947 18.868v0.401c0 0.209 0.023 0.34 0.070 0.393s0.145 0.081 0.296 0.081h0.121c0.149 0 0.249-0.027 0.297-0.082s0.072-0.185 0.072-0.392v-0.401c0-0.208-0.024-0.339-0.072-0.395s-0.147-0.083-0.297-0.083h-0.121c-0.149 0-0.247 0.027-0.294 0.082s-0.072 0.186-0.072 0.395zM19.279 18.814c0-0.371 0.069-0.629 0.208-0.777s0.38-0.22 0.726-0.22h0.321c0.346 0 0.589 0.074 0.728 0.222s0.209 0.406 0.209 0.775v0.507c0 0.369-0.070 0.628-0.209 0.775s-0.382 0.222-0.728 0.222h-0.321c-0.345 0-0.587-0.073-0.726-0.22s-0.208-0.406-0.208-0.777v-0.507zM21.897 20.287v-2.44h0.661v1.873h1.091v0.567h-1.752zM23.944 20.287v-2.44h1.145c0.322 0 0.552 0.063 0.691 0.189s0.208 0.334 0.208 0.624v0.161c0 0.29-0.069 0.499-0.209 0.625s-0.369 0.19-0.69 0.19h-0.491v0.651h-0.655zM24.599 19.092h0.456c0.108 0 0.179-0.019 0.214-0.058s0.052-0.115 0.052-0.231v-0.141c0-0.097-0.022-0.166-0.066-0.207s-0.119-0.062-0.226-0.062h-0.43v0.699zM26.359 20.287v-2.44h1.833v0.543h-1.179v0.423h1.145v0.47h-1.145v0.46h1.205v0.543h-1.859z"></path>
<path d="M0.884 21.448h0.737l0.435 0.941 0.427-0.941h0.731l-0.836 1.585v0.856h-0.655v-0.856l-0.839-1.585zM4.52 23.133h0.628v0.025c0 0.088 0.023 0.15 0.070 0.184s0.13 0.053 0.249 0.053h0.164c0.099 0 0.169-0.013 0.208-0.040s0.060-0.074 0.060-0.141v-0.107c0-0.057-0.015-0.1-0.048-0.124-0.031-0.025-0.103-0.045-0.214-0.057l-0.531-0.058c-0.198-0.022-0.342-0.084-0.434-0.186s-0.137-0.254-0.137-0.455v-0.151c0-0.114 0.018-0.215 0.054-0.305s0.089-0.162 0.157-0.219c0.058-0.049 0.13-0.084 0.214-0.105s0.21-0.030 0.377-0.030h0.392c0.244 0 0.431 0.049 0.559 0.147 0.129 0.099 0.194 0.241 0.194 0.427v0.167h-0.628v-0.026c0-0.073-0.017-0.124-0.052-0.153s-0.097-0.042-0.186-0.042h-0.151c-0.104 0-0.175 0.013-0.214 0.037s-0.058 0.067-0.058 0.127v0.102c0 0.090 0.088 0.144 0.265 0.164v0l0.483 0.054c0.209 0.024 0.365 0.085 0.467 0.183s0.155 0.235 0.155 0.412v0.234c0 0.202-0.062 0.364-0.188 0.485s-0.295 0.183-0.507 0.183h-0.533c-0.285 0-0.492-0.049-0.622-0.148s-0.194-0.255-0.194-0.47v-0.168zM6.973 23.889v-2.441h0.661v2.441h-0.661zM8.149 23.889v-2.441h0.974l0.759 1.813v-1.813h0.624v2.441h-0.974l-0.759-1.829v1.829h-0.624zM12.178 23.889v-2.441h1.145c0.322 0 0.553 0.064 0.691 0.19s0.208 0.334 0.208 0.624v0.16c0 0.29-0.069 0.499-0.208 0.626s-0.37 0.19-0.691 0.19h-0.49v0.651h-0.655zM12.833 22.693h0.456c0.107 0 0.178-0.019 0.213-0.057s0.053-0.116 0.053-0.231v-0.141c0-0.097-0.022-0.166-0.066-0.207s-0.12-0.061-0.226-0.061h-0.429v0.698zM14.592 23.889v-2.441h1.834v0.544h-1.179v0.423h1.145v0.47h-1.145v0.46h1.205v0.544h-1.86zM16.899 23.889v-2.441h0.974l0.759 1.813v-1.813h0.624v2.441h-0.974l-0.758-1.829v1.829h-0.625zM19.645 23.133h0.628v0.025c0 0.088 0.023 0.15 0.070 0.184s0.129 0.053 0.249 0.053h0.164c0.1 0 0.169-0.013 0.208-0.040s0.060-0.074 0.060-0.141v-0.107c0-0.057-0.016-0.1-0.048-0.124s-0.103-0.045-0.215-0.057l-0.531-0.058c-0.198-0.022-0.342-0.084-0.434-0.186s-0.136-0.254-0.136-0.455v-0.151c0-0.114 0.018-0.215 0.054-0.305s0.089-0.162 0.157-0.219c0.059-0.049 0.131-0.084 0.214-0.105s0.21-0.030 0.377-0.030h0.392c0.244 0 0.43 0.049 0.559 0.147s0.194 0.241 0.194 0.427v0.167h-0.628v-0.026c0-0.073-0.017-0.124-0.051-0.153-0.035-0.028-0.097-0.042-0.187-0.042h-0.151c-0.104 0-0.175 0.013-0.215 0.037-0.038 0.025-0.058 0.067-0.058 0.127v0.102c0 0.090 0.088 0.144 0.264 0.164v0l0.483 0.054c0.209 0.024 0.365 0.085 0.468 0.183s0.154 0.235 0.154 0.412v0.234c0 0.202-0.062 0.364-0.188 0.485s-0.295 0.183-0.507 0.183h-0.533c-0.285 0-0.492-0.049-0.622-0.148s-0.194-0.255-0.194-0.47v-0.168zM22.768 22.965h0.534l-0.242-1.011h-0.042l-0.25 1.011zM21.835 23.889l0.702-2.441h1.006l0.686 2.441h-0.702l-0.11-0.426h-0.769l-0.111 0.426h-0.702zM25.192 22.626h0.366c0.109 0 0.184-0.019 0.223-0.058 0.040-0.038 0.060-0.108 0.060-0.211v-0.093c0-0.104-0.020-0.175-0.060-0.214s-0.114-0.058-0.222-0.058h-0.366v0.635zM24.537 23.889v-2.441h0.984c0.376 0 0.633 0.049 0.773 0.148s0.21 0.273 0.21 0.521v0.196c0 0.165-0.040 0.294-0.12 0.388-0.079 0.093-0.197 0.15-0.353 0.169 0.165 0.027 0.285 0.082 0.36 0.164 0.076 0.082 0.113 0.199 0.113 0.351v0.503h-0.668v-0.439c0-0.104-0.020-0.176-0.060-0.214s-0.114-0.058-0.222-0.058h-0.363v0.712h-0.655zM26.954 23.889v-2.441h0.661v1.873h1.091v0.568h-1.752zM29.592 22.469v0.402c0 0.208 0.023 0.34 0.070 0.393s0.145 0.080 0.295 0.080h0.121c0.149 0 0.249-0.027 0.297-0.082s0.072-0.186 0.072-0.392v-0.402c0-0.207-0.024-0.339-0.072-0.394s-0.147-0.083-0.297-0.083h-0.121c-0.148 0-0.246 0.027-0.294 0.082-0.048 0.054-0.072 0.186-0.072 0.395zM28.924 22.415c0-0.371 0.069-0.63 0.208-0.777s0.381-0.22 0.726-0.22h0.321c0.346 0 0.589 0.074 0.728 0.221s0.209 0.407 0.209 0.776v0.507c0 0.369-0.069 0.628-0.209 0.775s-0.382 0.222-0.728 0.222h-0.321c-0.345 0-0.587-0.073-0.726-0.22s-0.208-0.406-0.208-0.777v-0.507z"></path>
<path d="M6.486 14.294h0.534l-0.243-1.011h-0.042l-0.249 1.011zM5.553 15.217l0.702-2.44h1.007l0.686 2.44h-0.702l-0.109-0.426h-0.77l-0.111 0.426h-0.702zM8.262 15.217v-2.44h0.661v1.873h1.091v0.567h-1.752z"></path>
</svg>
