<!-- Generated by IcoMoon.io -->
<svg version="1.1" xmlns="http://www.w3.org/2000/svg" width="32" height="32" viewBox="0 0 32 32">
<title>frases-menos-te-quiero-y-mas-tequila-curva</title>
<path d="M8.016 8.787h0.819v2.092h-0.547v-1.537l-0.42 1.537h-0.561l-0.423-1.554v1.554h-0.547v-2.092h0.819l0.429 1.513 0.429-1.513zM9.261 10.879v-2.092h1.571v0.466h-1.010v0.363h0.981v0.403h-0.981v0.394h1.033v0.466h-1.594zM11.238 10.879v-2.092h0.834l0.65 1.554v-1.554h0.535v2.092h-0.834l-0.65-1.567v1.567h-0.535zM14.19 9.662v0.345c0 0.179 0.020 0.291 0.060 0.337s0.125 0.069 0.253 0.069h0.104c0.128 0 0.213-0.023 0.254-0.070s0.062-0.159 0.062-0.336v-0.345c0-0.178-0.021-0.29-0.062-0.338s-0.126-0.071-0.254-0.071h-0.104c-0.127 0-0.211 0.023-0.252 0.070s-0.061 0.16-0.061 0.338zM13.618 9.615c0-0.317 0.060-0.539 0.179-0.665s0.326-0.189 0.622-0.189h0.275c0.297 0 0.505 0.064 0.624 0.19s0.179 0.348 0.179 0.664v0.435c0 0.316-0.060 0.538-0.179 0.664s-0.328 0.19-0.624 0.19h-0.275c-0.296 0-0.503-0.063-0.622-0.189s-0.179-0.348-0.179-0.665v-0.435zM15.764 10.231h0.538v0.021c0 0.076 0.020 0.129 0.060 0.158s0.111 0.045 0.214 0.045h0.14c0.085 0 0.145-0.011 0.179-0.034s0.052-0.064 0.052-0.121v-0.091c0-0.049-0.014-0.085-0.041-0.107s-0.088-0.038-0.184-0.049l-0.455-0.049c-0.169-0.019-0.293-0.072-0.372-0.159s-0.117-0.218-0.117-0.39v-0.129c0-0.097 0.015-0.184 0.046-0.261s0.076-0.139 0.135-0.187c0.050-0.042 0.112-0.073 0.183-0.090s0.18-0.026 0.323-0.026h0.336c0.209 0 0.369 0.042 0.479 0.127 0.111 0.085 0.166 0.206 0.166 0.366v0.143h-0.538v-0.022c0-0.063-0.015-0.107-0.045-0.131s-0.082-0.036-0.159-0.036h-0.129c-0.089 0-0.15 0.010-0.184 0.031s-0.050 0.058-0.050 0.109v0.088c0 0.076 0.075 0.124 0.226 0.14v0l0.414 0.046c0.18 0.021 0.313 0.072 0.401 0.156s0.133 0.202 0.133 0.353v0.201c0 0.173-0.054 0.312-0.162 0.416s-0.253 0.156-0.434 0.156h-0.457c-0.244 0-0.422-0.042-0.533-0.127s-0.167-0.219-0.167-0.403v-0.144z"></path>
<path d="M5.378 10.712h0.097l0.042-0.010 0.042 0.029 0.065 0.065 0.074 0.119 0.042 0.136 0.014 0.12-0.088 0.33-0.010 0.055 0.075 0.020 0.158 0.010 0.269 0.032 0.33 0.022 0.344 0.042 0.126 0.056 0.022 0.020-0.009 0.013-0.152 0.042-0.108 0.052h-0.061l-0.033 0.032-0.181 0.010-0.014 0.032-0.029 0.013-0.129 0.009-0.117 0.033-0.287 0.084-0.269 0.097-0.097 0.052-0.136 0.054-0.097 0.149-0.010 0.097-0.032 0.062-0.045 0.097-0.010 0.064-0.010 0.042-0.042 0.075-0.056 0.194-0.010 0.075-0.054 0.158-0.033 0.131-0.009 0.097-0.020 0.029 0.010 0.022 0.010 0.172 0.009 0.019 0.121 0.065 0.106-0.010 0.127-0.065 0.032-0.019h0.032v0.019l-0.032 0.033-0.010 0.074-0.022 0.055-0.033 0.084-0.074 0.065-0.094 0.116-0.129 0.097-0.097 0.032-0.084 0.065-0.223-0.065-0.191-0.106-0.129-0.149-0.065-0.184-0.042-0.298 0.032-0.298 0.159-0.599 0.084-0.269-0.126 0.022-0.321-0.010-0.149-0.074-0.065-0.056-0.022-0.022-0.033-0.084-0.029-0.033 0.029-0.074-0.009-0.042 0.064-0.084 0.126-0.045 0.292-0.127 0.341-0.074 0.181-0.032 0.032-0.010 0.257-0.515 0.194-0.308 0.107-0.12 0.084-0.009zM7.987 12.27h-0.023l-0.146 0.025-0.203 0.084-0.257 0.127-0.259 0.207-0.129 0.129-0.178 0.22 0.129-0.002 0.234-0.085 0.22-0.113 0.175-0.113 0.139-0.129 0.126-0.123 0.173-0.226zM7.856 11.943l0.204-0.065 0.204 0.023 0.051 0.052 0.023 0.074-0.023 0.022 0.033 0.097-0.013 0.134-0.042 0.084-0.010 0.038-0.010 0.032-0.088 0.117-0.010 0.042-0.042 0.054-0.074 0.065-0.045 0.036-0.104 0.104-0.129 0.126-0.116 0.097-0.010 0.033-0.065 0.032h-0.022l-0.065 0.052-0.062 0.032-0.182 0.129-0.087 0.032-0.019 0.030-0.279 0.107-0.129 0.012-0.033 0.094 0.014 0.033 0.032 0.054 0.149 0.084 0.234 0.065 0.255 0.032 0.023 0.023 0.428 0.019 0.321-0.019 0.287-0.045 0.149-0.032h0.023v0.022l-0.163 0.097-0.149 0.074-0.009 0.019-0.065 0.022-0.084 0.010-0.023 0.033-0.139 0.054h-0.051l-0.023 0.033-0.042 0.009-0.055-0.009-0.010 0.009h-0.064l-0.032 0.033-0.137 0.019-0.088 0.013-0.126 0.020-0.077-0.010-0.010 0.010h-0.116l-0.033 0.022-0.042-0.010h-0.064l-0.023-0.012h-0.084l-0.020-0.020h-0.045l-0.074-0.022-0.019-0.010v-0.013l-0.013-0.010h-0.075l-0.022-0.010-0.042 0.010-0.042-0.032-0.085-0.062-0.097-0.097-0.084-0.116-0.087-0.195-0.010-0.074 0.010-0.033-0.029-0.116v-0.023l-0.017-0.029 0.017-0.045v-0.084l0.010-0.097 0.126-0.182 0.149-0.191 0.109-0.097 0.094-0.107 0.075-0.054 0.395-0.289 0.288-0.181 0.427-0.182zM11.785 15.409l-0.113 0.2-0.159 0.321-0.129 0.312-0.042 0.064-0.213 0.353-0.183 0.172-0.096 0.042-0.085-0.032-0.084-0.195-0.064-0.289-0.023-0.321v-0.307l0.042-0.321 0.107-0.633 0.149-0.608 0.046-0.172 0.022-0.029v-0.088l-0.259 0.097-0.159 0.009-0.171-0.054-0.074-0.062-0.117-0.204-0.010-0.178 0.019-0.195 0.095-0.203 0.161-0.201 0.14-0.152 0.139-0.149 0.46-0.376 0.257-0.159 0.223-0.087 0.074-0.009 0.117 0.022 0.022 0.023 0.149-0.172 0.032-0.012v-0.033l0.042-0.029h0.023l0.084 0.019 0.023-0.019 0.097 0.019 0.061 0.033 0.055 0.084-0.010 0.056-0.074 0.149-0.023 0.064-0.032 0.074-0.204 0.48-0.032 0.055-0.010 0.084-0.213 0.492-0.032 0.023-0.033 0.116-0.084 0.084-0.032 0.131-0.032 0.022-0.052 0.076v0.051l-0.055 0.065-0.074 0.191-0.033 0.022-0.074 0.27-0.074 0.094v0.054l-0.023 0.052-0.032 0.097-0.030 0.062-0.054 0.203-0.076 0.214-0.022 0.107-0.033 0.075v0.042l-0.042 0.146-0.035 0.195-0.019 0.133-0.010 0.181-0.006 0.074 0.006 0.097 0.036 0.191 0.042-0.056 0.288-0.67 0.223-0.451 0.353-0.618 0.033 0.074-0.026 0.097-0.036 0.088 0.042 0.097-0.006 0.077 0.017 0.082-0.052 0.123-0.020 0.153zM11.624 12.419l0.097-0.149-0.111 0.029-0.194 0.171-0.172 0.201-0.010 0.023-0.052 0.064-0.084 0.094-0.207 0.31-0.042 0.056-0.111 0.198-0.003 0.116 0.069 0.052 0.102-0.025 0.149-0.133 0.097-0.134 0.107-0.175 0.191-0.336 0.088-0.179 0.084-0.184zM13.046 11.8l0.062-0.036h0.010l0.093 0.022 0.058 0.117v0.155l-0.094 0.376v0.081l-0.057 0.26-0.082 0.495v0.327l0.036 0.045 0.062-0.052 0.072-0.136 0.363-0.858 0.070-0.176 0.188-0.423 0.017-0.056 0.032-0.049 0.056-0.062h0.068l0.085-0.022h0.081l0.143 0.036 0.046 0.071 0.012 0.094v0.013l-0.012 0.104 0.006 0.071-0.013 0.084-0.036 0.159-0.037 0.146-0.045 0.132-0.029 0.123-0.029 0.1-0.027 0.117-0.052 0.291-0.026 0.253 0.017 0.272 0.045 0.23-0.062 0.032-0.055-0.019-0.010 0.042-0.042-0.010-0.025 0.003-0.033-0.030-0.039-0.094-0.025-0.106-0.032-0.117-0.017-0.259-0.116 0.236-0.107 0.129-0.233 0.223-0.188 0.104-0.143 0.025-0.107-0.036-0.116-0.058-0.129-0.155-0.094-0.257-0.023-0.165 0.023-0.366 0.071-0.421 0.165-0.519 0.14-0.353 0.116-0.139zM15.615 11.252l0.042-0.013 0.074 0.045 0.075 0.020 0.022 0.097 0.020 0.009-0.020 0.023v0.126l-0.032 0.139-0.117 0.074-0.119 0.023-0.094-0.023-0.129-0.168-0.010-0.087v-0.084l0.020-0.088 0.054-0.010v-0.032l0.052-0.042h0.033l0.022-0.023 0.107 0.013zM15.327 12.331l0.097-0.042 0.062 0.020 0.032-0.020h0.022l0.085 0.076 0.042 0.022 0.077 0.149 0.010 0.104v0.11l-0.097 0.201-0.149 0.492-0.032 0.312-0.010 0.107 0.062 0.019 0.194-0.010 0.246-0.065-0.045 0.088v0.030l-0.062 0.107-0.045 0.045 0.013 0.032-0.074 0.052h-0.023l-0.019 0.042-0.087 0.032-0.020 0.023-0.195 0.116-0.074 0.055-0.14 0.019-0.019 0.010-0.032-0.018-0.129-0.056-0.159-0.117-0.097-0.116-0.042-0.108-0.042-0.236v-0.287l0.042-0.172 0.128-0.321 0.193-0.329 0.169-0.225 0.119-0.139zM18.054 12.27h-0.023l-0.146 0.025-0.203 0.084-0.257 0.127-0.259 0.207-0.129 0.129-0.178 0.22 0.129-0.002 0.233-0.085 0.22-0.113 0.175-0.113 0.139-0.129 0.126-0.123 0.172-0.226zM17.924 11.943l0.205-0.065 0.204 0.023 0.051 0.052 0.023 0.074-0.023 0.022 0.033 0.097-0.014 0.134-0.042 0.084-0.010 0.038-0.010 0.032-0.087 0.117-0.010 0.042-0.042 0.054-0.074 0.065-0.046 0.036-0.104 0.104-0.129 0.126-0.116 0.097-0.010 0.033-0.065 0.032h-0.022l-0.065 0.052-0.062 0.032-0.181 0.129-0.088 0.032-0.019 0.030-0.278 0.107-0.129 0.012-0.033 0.094 0.013 0.033 0.032 0.054 0.149 0.084 0.233 0.065 0.255 0.032 0.023 0.023 0.428 0.019 0.321-0.019 0.287-0.045 0.149-0.032h0.023v0.022l-0.163 0.097-0.149 0.074-0.009 0.019-0.065 0.022-0.084 0.010-0.023 0.033-0.139 0.054h-0.051l-0.023 0.033-0.042 0.009-0.056-0.009-0.010 0.009h-0.064l-0.032 0.033-0.137 0.019-0.088 0.013-0.126 0.020-0.077-0.010-0.010 0.010h-0.116l-0.033 0.022-0.042-0.010h-0.064l-0.023-0.012h-0.084l-0.019-0.020h-0.046l-0.074-0.022-0.020-0.010v-0.013l-0.012-0.010h-0.075l-0.022-0.010-0.042 0.010-0.042-0.032-0.085-0.062-0.097-0.097-0.084-0.116-0.087-0.195-0.010-0.074 0.010-0.033-0.029-0.116v-0.023l-0.017-0.029 0.017-0.045v-0.084l0.010-0.097 0.126-0.182 0.149-0.191 0.11-0.097 0.094-0.107 0.075-0.054 0.395-0.289 0.289-0.181 0.427-0.182zM19.612 11.884l0.065-0.032h0.097l0.116 0.116v0.14l-0.010 0.075 0.136-0.075 0.195-0.052 0.265 0.010 0.131 0.020 0.223 0.12 0.088 0.075 0.074 0.139 0.010 0.074-0.074 0.074v0.023l-0.088 0.084-0.074-0.010-0.032-0.056-0.075-0.032-0.242-0.052h-0.078l-0.148 0.020-0.172 0.088-0.126 0.106-0.162 0.225-0.107 0.223-0.126 0.47-0.042 0.287-0.013 0.097-0.052 0.237-0.023 0.042-0.106 0.033-0.065 0.051-0.062 0.013-0.054-0.022-0.010-0.042-0.097-0.149-0.020-0.075 0.010-0.032-0.022-0.022-0.020-0.065 0.020-0.065 0.032-0.074 0.010-0.149 0.152-0.641 0.214-0.715 0.149-0.341 0.116-0.139zM22.709 12.309l-0.035-0.038-0.046 0.003-0.062 0.015-0.038 0.033-0.074 0.061-0.085 0.062-0.145 0.171-0.114 0.178-0.097 0.159-0.123 0.233-0.091 0.259-0.006 0.136 0.038 0.065 0.069 0.017 0.088-0.010 0.094-0.027 0.113-0.042 0.152-0.109 0.12-0.139 0.127-0.179 0.084-0.269 0.026-0.165 0.013-0.24-0.007-0.175zM22.479 11.689l0.136-0.074 0.065 0.018 0.106 0.010 0.131 0.023 0.042 0.056 0.042 0.084v0.022l-0.020 0.020 0.030 0.022 0.074 0.107-0.032 0.065 0.054 0.009-0.009 0.033 0.042 0.042 0.010 0.097 0.061 0.148 0.058 0.225 0.010 0.064 0.018 0.084 0.023 0.107-0.023 0.045-0.018 0.094 0.032 0.097-0.014 0.042-0.018 0.129-0.076 0.202v0.087l-0.042 0.052-0.077 0.042-0.020 0.108-0.129 0.129-0.055 0.078-0.143 0.097-0.11 0.081-0.055 0.033v0.022l-0.094 0.074h-0.056l-0.032 0.033-0.032-0.013-0.019 0.022-0.162 0.052-0.076-0.018-0.010 0.032h-0.022l-0.019-0.022-0.064 0.042h-0.182l-0.033-0.019-0.022 0.010-0.198-0.036-0.123-0.072-0.097-0.052-0.074-0.077-0.052-0.062-0.023-0.074-0.019-0.023-0.033-0.054v-0.075l-0.012-0.116-0.030-0.023-0.003-0.077-0.045-0.032-0.007-0.059v-0.065l0.044-0.022-0.010-0.020v-0.032l-0.010-0.139 0.010-0.097 0.107-0.214 0.043-0.126 0.054-0.033 0.019-0.097 0.363-0.502 0.129-0.129 0.084-0.094 0.247-0.214 0.065-0.033 0.057-0.049 0.090-0.038 0.033 0.023 0.054-0.023 0.065 0.045z"></path>
<path d="M14.709 16.938h0.098l0.042-0.010 0.042 0.029 0.066 0.066 0.074 0.121 0.042 0.137 0.014 0.122-0.088 0.333-0.010 0.056 0.076 0.020 0.16 0.010 0.271 0.032 0.334 0.022 0.347 0.042 0.127 0.056 0.022 0.020-0.009 0.013-0.154 0.042-0.108 0.053h-0.061l-0.034 0.032-0.183 0.010-0.013 0.033-0.029 0.013-0.131 0.009-0.118 0.034-0.29 0.085-0.271 0.099-0.098 0.052-0.137 0.055-0.098 0.151-0.010 0.098-0.033 0.063-0.046 0.098-0.010 0.065-0.010 0.042-0.042 0.076-0.056 0.195-0.010 0.076-0.054 0.16-0.034 0.132-0.009 0.099-0.020 0.029 0.010 0.022 0.010 0.174 0.009 0.019 0.122 0.066 0.107-0.010 0.128-0.066 0.033-0.019h0.032v0.019l-0.032 0.033-0.010 0.075-0.022 0.056-0.033 0.085-0.075 0.066-0.095 0.117-0.131 0.099-0.098 0.032-0.085 0.066-0.226-0.066-0.193-0.107-0.131-0.151-0.066-0.186-0.043-0.302 0.033-0.3 0.161-0.605 0.085-0.271-0.127 0.022-0.324-0.010-0.151-0.074-0.066-0.056-0.022-0.022-0.033-0.085-0.029-0.033 0.029-0.075-0.009-0.042 0.065-0.085 0.127-0.046 0.295-0.128 0.344-0.075 0.183-0.032 0.033-0.010 0.259-0.52 0.195-0.31 0.108-0.121 0.085-0.009zM17.342 18.511h-0.023l-0.147 0.026-0.206 0.085-0.259 0.128-0.261 0.209-0.131 0.131-0.18 0.222 0.131-0.002 0.235-0.086 0.222-0.114 0.176-0.115 0.141-0.131 0.127-0.124 0.174-0.229zM17.21 18.18l0.207-0.066 0.206 0.023 0.052 0.053 0.023 0.075-0.023 0.022 0.033 0.098-0.013 0.135-0.042 0.085-0.010 0.039-0.010 0.033-0.088 0.118-0.010 0.042-0.042 0.055-0.074 0.066-0.046 0.035-0.105 0.105-0.131 0.127-0.117 0.098-0.010 0.034-0.066 0.032h-0.022l-0.066 0.053-0.062 0.032-0.183 0.131-0.088 0.033-0.019 0.030-0.281 0.108-0.131 0.012-0.033 0.095 0.013 0.033 0.033 0.055 0.151 0.085 0.235 0.066 0.258 0.032 0.023 0.023 0.432 0.019 0.324-0.019 0.29-0.046 0.151-0.032h0.023v0.022l-0.164 0.098-0.151 0.075-0.009 0.020-0.066 0.022-0.085 0.010-0.023 0.033-0.14 0.055h-0.052l-0.023 0.033-0.042 0.009-0.056-0.009-0.010 0.009h-0.065l-0.033 0.033-0.138 0.019-0.215 0.034-0.078-0.010-0.010 0.010h-0.117l-0.034 0.022-0.042-0.010h-0.065l-0.023-0.012h-0.085l-0.020-0.020h-0.046l-0.074-0.022-0.020-0.010v-0.013l-0.013-0.010h-0.076l-0.022-0.010-0.042 0.010-0.043-0.032-0.086-0.062-0.098-0.099-0.085-0.117-0.088-0.196-0.010-0.074 0.010-0.034-0.029-0.117v-0.023l-0.017-0.029 0.017-0.046v-0.085l0.010-0.099 0.127-0.183 0.151-0.193 0.111-0.099 0.095-0.108 0.076-0.055 0.399-0.291 0.291-0.183 0.431-0.183zM19.836 21.68l-0.113 0.202-0.161 0.324-0.131 0.315-0.042 0.065-0.215 0.356-0.184 0.174-0.097 0.042-0.086-0.033-0.085-0.196-0.065-0.291-0.023-0.324v-0.31l0.042-0.324 0.108-0.639 0.151-0.614 0.045-0.174 0.022-0.029v-0.088l-0.261 0.099-0.16 0.009-0.173-0.054-0.075-0.062-0.119-0.207-0.010-0.18 0.020-0.196 0.095-0.205 0.163-0.203 0.141-0.153 0.14-0.151 0.464-0.38 0.259-0.161 0.226-0.088 0.075-0.009 0.118 0.022 0.022 0.023 0.151-0.174 0.033-0.013v-0.033l0.042-0.029h0.023l0.085 0.019 0.023-0.019 0.099 0.019 0.061 0.034 0.056 0.085-0.010 0.056-0.075 0.151-0.023 0.065-0.032 0.075-0.207 0.484-0.033 0.056-0.010 0.085-0.215 0.497-0.033 0.023-0.033 0.117-0.085 0.085-0.033 0.132-0.032 0.022-0.053 0.076v0.052l-0.056 0.066-0.075 0.193-0.034 0.022-0.074 0.273-0.075 0.095v0.055l-0.023 0.052-0.032 0.099-0.030 0.062-0.054 0.206-0.076 0.216-0.022 0.107-0.033 0.076v0.042l-0.042 0.147-0.036 0.196-0.019 0.134-0.010 0.183-0.007 0.075 0.007 0.099 0.035 0.193 0.042-0.056 0.291-0.676 0.225-0.455 0.356-0.624 0.034 0.075-0.027 0.098-0.035 0.088 0.042 0.099-0.007 0.078 0.017 0.083-0.052 0.124-0.021 0.154zM19.674 18.662l0.098-0.151-0.111 0.029-0.197 0.173-0.173 0.203-0.010 0.023-0.053 0.065-0.085 0.095-0.208 0.313-0.043 0.056-0.111 0.2-0.003 0.117 0.069 0.053 0.104-0.026 0.151-0.134 0.098-0.135 0.109-0.176 0.193-0.339 0.088-0.181 0.085-0.185zM21.109 18.036l0.063-0.035h0.010l0.094 0.022 0.059 0.118v0.156l-0.095 0.38v0.081l-0.058 0.262-0.082 0.5v0.33l0.035 0.046 0.062-0.052 0.073-0.137 0.366-0.866 0.072-0.178 0.19-0.427 0.017-0.056 0.032-0.049 0.056-0.062h0.068l0.086-0.023h0.081l0.144 0.036 0.045 0.072 0.013 0.095v0.014l-0.013 0.105 0.007 0.072-0.013 0.085-0.036 0.16-0.037 0.148-0.046 0.134-0.029 0.124-0.029 0.101-0.027 0.119-0.053 0.294-0.025 0.255 0.017 0.274 0.046 0.233-0.062 0.032-0.056-0.019-0.010 0.042-0.043-0.010-0.025 0.003-0.034-0.030-0.039-0.095-0.026-0.107-0.032-0.118-0.017-0.261-0.117 0.239-0.108 0.131-0.236 0.225-0.19 0.105-0.144 0.025-0.109-0.035-0.117-0.059-0.131-0.156-0.095-0.259-0.023-0.167 0.023-0.369 0.072-0.425 0.167-0.523 0.141-0.356 0.117-0.141zM23.703 17.484l0.042-0.013 0.075 0.046 0.076 0.020 0.022 0.098 0.021 0.009-0.021 0.023v0.127l-0.032 0.141-0.119 0.074-0.12 0.023-0.095-0.023-0.131-0.169-0.010-0.088v-0.085l0.020-0.088 0.054-0.010v-0.032l0.053-0.042h0.033l0.022-0.023 0.108 0.013zM23.412 18.572l0.098-0.043 0.062 0.021 0.033-0.021h0.022l0.086 0.076 0.042 0.022 0.078 0.151 0.010 0.105v0.111l-0.099 0.203-0.151 0.497-0.032 0.315-0.010 0.107 0.062 0.020 0.195-0.010 0.249-0.066-0.046 0.088v0.030l-0.062 0.108-0.046 0.046 0.013 0.033-0.074 0.052h-0.023l-0.019 0.043-0.088 0.032-0.020 0.023-0.196 0.117-0.075 0.056-0.14 0.019-0.021 0.010-0.032-0.019-0.131-0.056-0.161-0.118-0.098-0.117-0.042-0.108-0.042-0.239v-0.29l0.042-0.174 0.128-0.324 0.195-0.333 0.171-0.227 0.121-0.14zM25.808 16.254l0.042-0.022 0.076 0.013 0.075 0.095 0.023 0.042v0.099l-0.086 0.249-0.088 0.183-0.022 0.085-0.151 0.281-0.042 0.056-0.052 0.127-0.033 0.046-0.032 0.076-0.132 0.235-0.065 0.131-0.076 0.151-0.042 0.075-0.055 0.108v0.085l-0.052 0.046 0.009 0.029-0.074 0.164v0.022l-0.017 0.085-0.058 0.076 0.009 0.085-0.019 0.022-0.023 0.066-0.019 0.118-0.034 0.192-0.009 0.046v0.076l-0.023 0.033 0.010 0.032v0.062l-0.020 0.033v0.14l0.010 0.043 0.010 0.14 0.056 0.196 0.042 0.095-0.010 0.056 0.053 0.053v0.046l0.117 0.127 0.164 0.033 0.085-0.009 0.033 0.019 0.056 0.033-0.088 0.042v0.033h-0.010l-0.108 0.065-0.033 0.010h-0.085l-0.196-0.075-0.085-0.076-0.099-0.097-0.042-0.062-0.141-0.249-0.010-0.065-0.055-0.193-0.042-0.315v-0.183l0.022-0.226 0.020-0.033-0.020-0.032 0.085-0.455 0.151-0.441 0.023-0.042 0.108-0.302 0.281-0.542 0.042-0.062 0.118-0.229 0.304-0.451 0.171-0.215 0.054-0.076zM27.64 18.462l-0.053-0.010-0.208 0.075-0.298 0.179-0.373 0.276-0.239 0.232-0.183 0.209-0.111 0.246-0.014 0.091 0.078 0.043 0.327-0.265 0.379-0.337 0.448-0.442 0.246-0.297zM27.337 18.134l0.205-0.049h0.085l0.105 0.12 0.013 0.042-0.059 0.151 0.144-0.127h0.020l0.088-0.010 0.128 0.035 0.032 0.034 0.042 0.065 0.020 0.032 0.010 0.164-0.036 0.085 0.019 0.108-0.157 0.395-0.124 0.324v0.030l-0.078 0.14-0.059 0.248-0.014 0.095-0.032 0.010v0.108l-0.033 0.075 0.010 0.066-0.027 0.085-0.010 0.066 0.034 0.033 0.015 0.163 0.042 0.066 0.020 0.053 0.066 0.056 0.075 0.022 0.052 0.014v0.019l-0.085 0.020-0.033 0.032h-0.033l-0.074 0.053-0.014 0.032h-0.032l-0.119-0.012-0.074-0.035-0.161-0.164-0.053-0.117-0.049-0.121v-0.042l-0.029-0.141-0.039-0.281 0.026-0.314 0.037-0.225h-0.020v0.022l-0.154 0.18-0.153 0.147-0.069 0.108-0.066 0.062-0.075 0.075-0.12 0.095-0.21 0.128-0.225 0.081-0.108-0.013-0.206-0.069-0.161-0.078-0.061-0.098-0.042-0.088-0.007-0.151 0.022-0.169 0.049-0.216 0.134-0.245 0.032-0.033 0.122-0.15 0.317-0.285 0.482-0.337 0.401-0.242 0.253-0.124z"></path>
<path d="M12.318 15.037h0.656l0.387 0.837 0.38-0.837h0.651l-0.744 1.411v0.761h-0.582v-0.761l-0.747-1.411zM17.391 15.037h0.851v2.172h-0.568v-1.595l-0.436 1.595h-0.583l-0.439-1.613v1.613h-0.568v-2.172h0.851l0.445 1.571 0.446-1.571zM19.35 16.388h0.476l-0.216-0.9h-0.038l-0.222 0.9zM18.52 17.209l0.624-2.172h0.896l0.61 2.172h-0.624l-0.097-0.379h-0.685l-0.099 0.379h-0.624zM20.011 14.315l-0.456 0.541h-0.207l0.287-0.541h0.376zM20.829 16.537h0.559v0.022c0 0.078 0.021 0.133 0.062 0.164s0.116 0.046 0.222 0.046h0.146c0.089 0 0.15-0.012 0.186-0.035s0.053-0.066 0.053-0.126v-0.095c0-0.052-0.014-0.089-0.042-0.111-0.027-0.023-0.092-0.040-0.191-0.052l-0.472-0.052c-0.176-0.019-0.305-0.074-0.385-0.165s-0.122-0.226-0.122-0.405v-0.135c0-0.101 0.016-0.191 0.049-0.271 0.032-0.079 0.078-0.144 0.14-0.195 0.052-0.044 0.116-0.075 0.191-0.093s0.187-0.027 0.335-0.027h0.349c0.217 0 0.383 0.044 0.497 0.131s0.172 0.214 0.172 0.38v0.149h-0.559v-0.023c0-0.065-0.015-0.111-0.046-0.136s-0.086-0.038-0.166-0.038h-0.135c-0.093 0-0.156 0.011-0.191 0.033s-0.052 0.060-0.052 0.113v0.090c0 0.080 0.078 0.129 0.235 0.146v0l0.43 0.048c0.186 0.022 0.325 0.076 0.416 0.163s0.137 0.21 0.137 0.367v0.208c0 0.18-0.056 0.324-0.168 0.432s-0.262 0.162-0.451 0.162h-0.474c-0.254 0-0.438-0.044-0.553-0.131s-0.173-0.227-0.173-0.418v-0.15z"></path>
</svg>
