<?xml version="1.0" encoding="UTF-8"?>
<!DOCTYPE svg PUBLIC "-//W3C//DTD SVG 1.1//EN" "http://www.w3.org/Graphics/SVG/1.1/DTD/svg11.dtd">
<!-- Creator: CorelDRAW 2017 -->
<svg xmlns="http://www.w3.org/2000/svg" xml:space="preserve" width="60.9598mm" height="50.7998mm" version="1.1" style="shape-rendering:geometricPrecision; text-rendering:geometricPrecision; image-rendering:optimizeQuality; fill-rule:evenodd; clip-rule:evenodd"
viewBox="0 0 6095.98 5079.98"
 xmlns:xlink="http://www.w3.org/1999/xlink">
 <defs>
  <style type="text/css">
   <![CDATA[
    .fil11 {fill:none}
    .fil5 {fill:black}
    .fil4 {fill:#21241F}
    .fil2 {fill:#3E3D39}
    .fil3 {fill:#52544D}
    .fil0 {fill:#55928A}
    .fil7 {fill:#835327}
    .fil9 {fill:#B5773E}
    .fil6 {fill:#C2E3DD}
    .fil10 {fill:#CA8344}
    .fil8 {fill:#CEA05A}
    .fil1 {fill:#EEF5F4}
   ]]>
  </style>
 </defs>
 <g id="Capa_x0020_1">
  <metadata id="CorelCorpID_0Corel-Layer"/>
  <g id="_2349137493616">
   <path class="fil0" d="M3768.59 1755.31c-78.27,39.83 -66.51,35.54 -103.05,110.2 -34.32,20.77 -79.04,-38.55 -83.55,-72.89 -7.02,-42.37 7.16,-76.54 29.4,-101.15 26.48,-29.31 40,-43.99 89.08,-43.24 9.58,-0.65 5.83,-0.31 10.89,-4.22 4.99,-165.08 133.56,-173.82 168.21,-195.1 -14.57,-13.56 -61.54,-32.98 -81.61,-43.08l-240.11 -138.12 23.26 198.54c-4.29,3.14 6.61,8.21 -7.89,1.58l-25.34 -24.57c-9.7,-9.39 -16.13,-16.5 -25.82,-26.27 -11.49,-11.57 -35.61,-39.48 -43.99,-55.19 -11.63,-21.81 -3.82,-12.55 -19.65,-28.52 -8.52,-8.61 -15.02,-18.98 -22.09,-29.87 -14.63,-22.55 -29.14,-41.55 -35.49,-71.27 -14.06,-10.51 -23.14,-32.21 -32.33,-51.91l-24.8 8.24c-13.32,4.81 -25.25,15.42 -40.48,21.11l-116.32 52.65c-1.06,0.66 -2.17,1.5 -3.12,2.16l-6.21 5.21 -1.08 0.33 -96.35 40.62 -160.12 71.73c3.26,19.99 24.24,40.97 34.25,60.24 10.33,19.87 13.52,44.98 24.83,64.37l20.85 -13.4c23.65,-2.44 32.97,12.88 43.54,24.94 6.28,7.16 9.86,10.64 15.68,18.67l15.44 18.32c14.39,13.16 44.53,60.03 49.67,82.18 7.59,32.71 -26.33,79.37 -41.23,91.82 -23.26,5.37 -41.52,-13.2 -60.55,-29.53l-16.9 -13.44 -69.73 -59.31c-7.35,-29.44 -0.73,-29.59 -0.77,-56.83 -50.3,-17.68 -117.35,-14.23 -192.09,-93.85 -42.25,-45.03 -80.68,-117.74 -85.85,-202.84 71.31,4.37 173,39.88 228.37,86.27 4.3,3.6 7.33,6.87 11.39,10.11 12.77,10.19 4.4,5.46 18.9,11.34 21.27,-63.63 94.08,-230.8 103.46,-277.53 -54.38,-0.14 -119.16,20.43 -165.17,19.04 35.12,-44.99 202.74,-224.13 227.6,-263.6l-109.42 -158.2c-19.42,-28.17 -35.7,-50.64 -55.48,-79.13 -15.59,-22.47 -44.17,-60.35 -53.88,-82.97 41.18,6.32 251.61,115.07 293.54,121.45 -11.47,-53.19 -68.37,-186.47 -68.1,-228.64 43.38,24.32 149.27,121.04 172.09,128.17l50.76 -435.08c25.07,32.94 203.64,487.83 226.73,513.28 36.13,-20.12 349.53,-362.34 376.02,-367.16 5.04,36.93 -109.8,349.2 -122.36,425.24l125.21 -26.52c-11.64,39.83 -115.38,176.28 -119.52,207.19l452.77 97.62c-5.32,12.1 -114.1,43.29 -125.31,46.97 -66.91,22.01 -356.62,113.9 -379.18,128.27 6.78,32.25 124.04,234.85 148.35,294.6 30.74,2.42 70.12,-7.6 108.92,-4.81 6.13,158.06 -90.57,252.17 -240.05,261.3 3,19.41 19.92,37.24 5.78,54.48z"/>
   <path class="fil1" d="M3531.64 657.04c20.95,-11.71 69.92,-66.94 92.95,-88.33 54.39,-50.52 243.44,-251.62 271.14,-266.48 -3.77,28.97 -112.98,390.33 -119.07,396.59 -40.02,20.84 -196.09,36.27 -224.45,56.37 1.09,0.94 -1.71,5.81 18.89,3.22 50.66,-6.37 279.92,-71.92 325.33,-71.59l-103.14 167.42c-12.89,20.55 -103.91,157.41 -99.25,169.58 17.21,-6.54 35.65,-47.89 47.03,-65.71 14.24,-22.29 27.55,-47.87 44.02,-69.07 25.3,-1.55 262.09,52.25 316.63,64.75l79.65 16.54c4.43,0.95 9.9,2.02 13.53,3.44 11.7,4.59 6.54,2.34 12.22,6.88l-477.85 160.92c9.21,41.46 126.88,233.96 143.28,286.74 -35.05,-7.68 -160.44,-80.79 -200.47,-104.96 -35.07,-21.17 -60.8,-37.43 -93.21,-58.56 -22.98,-14.99 -21.94,-13.07 -24.99,-47.78 -1.51,-17.18 1.92,-58.77 -11.59,-66.48 -11.02,22.45 21.97,243.14 22.83,290.56 -42.33,-19.61 -165.45,-207.48 -191.15,-274.6 -18.69,3.1 -187.68,83.98 -219.14,98.7 -69.94,32.73 -147.75,71.56 -218.68,99.61 0.98,-15.83 59.66,-162.12 72.9,-197.37 4.34,-11.54 20.25,-62.36 29.6,-67.21 35.01,-8.46 203.28,-12.62 218.42,-28.52 -13.4,-7.71 -67.53,1.47 -87.78,3.44 -32.03,3.1 -63.67,6.38 -94.78,10.03 -62.28,7.3 -126.33,17.18 -188.61,22.72 8.73,-21.41 126.65,-146.7 156.57,-184.8 14.84,-18.89 42.7,-45.1 52.29,-63.84 -8.45,-19.08 -83.85,-120.27 -102.71,-147.84 -31.55,-46.11 -73.94,-100.77 -102.57,-149.88 19.89,3.1 85.32,34.93 105.12,43.44 34.14,14.68 71.77,31.22 105.77,45.88 72.2,31.15 59.31,16.37 78.08,73.62 7.59,23.15 27.29,101.34 43,114.2l-1.17 -21.34c-2.12,-6.97 -5.65,-16.23 -8.05,-23.4 -22.8,-68.21 -101.61,-296.84 -105.49,-334.59 34.92,15.07 216.46,171.44 250.3,199.3 24.02,19.78 67.71,63.06 86.18,67.09 -8.19,-30.35 -159.54,-127.52 -170.62,-152.64 -1.68,-31.03 41.15,-395.17 47.48,-406.66l211.56 490.61z"/>
   <path class="fil2" d="M4559.13 3517.37c79.72,54.99 106.37,75.31 213.25,109.36 77.43,24.68 180.4,52.28 270.07,53.03 20.65,-2.61 -6.26,-30.31 116.85,-38.76 23.1,-1.58 53.04,-1.95 70.6,9.22 28.8,18.33 -8.18,12.27 51.94,4.06 121.68,-16.62 289.96,25.37 407.3,61.75 50.36,15.61 67.12,28.7 82.87,76.96 39.44,120.84 -32.34,262.12 -63.08,385.23 -11.44,45.82 -16.78,90.64 -31.83,128.9 -38,96.63 -108.78,102.53 -194.74,40.44 -91.55,-66.14 -170.72,-210.87 -243.61,-307.11 -11.47,-15.15 -28.76,-33.14 -36.33,-46.27 -58.48,5.87 -106.28,-9.61 -147.1,-47.28 -15.5,-14.29 -21.98,-16.26 -26.53,-43.1 -230.06,-34.14 -461.15,-120.89 -635.62,-257.66 -36.21,-28.39 -129.89,-112.58 -148,-149.26 -5.6,-35.52 3.4,-45.21 34.19,-52.49 11.98,10.53 3.57,4.47 11.27,13.52l97.15 102.71c14.74,19.1 20.89,15.98 37.44,32.03l124.95 91.68 243.8 112.8c56.61,21.06 177.11,49.4 238.63,49.42 -5.86,-17.85 -1.62,-15.34 -26.44,-17.07 -12.32,-0.87 -18.09,-1.57 -31.45,-3.86 -21.86,-3.75 -42.73,-6.44 -58.79,-9.9 -37.69,-8.11 -72.7,-17.95 -112.38,-31.07 -113.61,-37.57 -205.86,-84.96 -304.2,-153.97 -5.41,-3.79 -5.02,-3.56 -10.05,-7.21l-68.51 -57.19c-7.06,-6.71 -12.09,-8.74 -20.16,-14.42 -9.4,-6.61 -86.91,-89.45 -100.45,-110.35 134.3,-1.37 95.19,33.05 172.89,89.97l45.46 37.31c89.98,72.43 186.24,106.69 300.1,138.22l198.15 35.75c28.46,1.6 25.49,-8.89 25.51,-8.92 -9.11,-6.44 -152.63,-22.4 -188.48,-33.1 -60.12,-17.94 -113.11,-30.23 -168.18,-52.89 -99.39,-40.89 -182.68,-104.17 -254.78,-182.56 48.47,12.58 85.78,35.75 128.29,52.08z"/>
   <path class="fil2" d="M3933.92 3551.72l-10.43 -0.44c-19.82,5.85 -24.1,41.3 -31.49,59.53 -101.78,251.01 -199.7,450.09 -345.18,682.52l-114.71 167.05c-19.06,25.95 -26.84,22.42 -19.89,54.21 12.77,-1.46 30.51,-8.63 43.23,-11.38 56.55,-12.2 102.19,-20.31 162.35,-9.83 58.95,10.27 128.66,51.32 132.58,116.26 -33.15,22.2 -15.09,20.67 -76.69,50.31 -37.09,17.84 -66.07,18.98 -114.04,19.13 -71.23,0.21 -151.79,-30.63 -183.21,-69.54l-17.2 17.44c-26.94,0 -50.61,1.95 -68.42,-12.44l-7.13 7.91c-56.84,99.63 -78.89,142.24 -171.25,216.44 -62.67,50.36 -174.33,107.62 -279.15,116.24 1.03,-62.14 -39.87,-90.74 -75.93,-115.25 -38.79,-26.37 -81.65,-49.15 -132.04,-63.5 14.45,-14.2 42.42,-14.08 74.61,-21.25 122,-27.19 218.97,-61.83 319.57,-134.97l101.65 -84.47c-7.9,-17.76 -29.77,-30.92 3.66,-95.39 18.33,-35.35 31.85,-48.16 80.45,-50.44l136.32 -201.82c111.94,-184.94 201.8,-376.67 263.89,-585.97l27.78 -102.29c10.66,-41.12 2.94,-29.4 -1.47,-30.44 10.47,3.64 14.83,13.16 69.03,26.14l187.56 50.08c20.63,8.1 6.22,6.16 45.55,6.16z"/>
   <path class="fil2" d="M1792.39 1050.91l-42.41 -1.36c43.53,27.87 33.76,4.5 116.87,24.39 162.51,38.89 309.29,189.36 389.11,326.18 100.61,172.46 90.09,477.06 367.12,484.12 120.87,3.08 227.83,-120.36 291.09,-209.2 11.7,-16.43 26.75,-27.74 21.71,-47.9l69.73 59.31 16.9 13.44c19.03,16.33 37.29,34.9 60.55,29.53 -0.9,0.99 -2.71,0.54 -3.34,2.2 -0.63,1.63 -2.51,1.6 -3.37,2.01 -0.82,0.41 -2.38,1.24 -3.38,1.71 -22.04,10.41 -7.04,-5.38 -29.57,33.94 -10.52,18.38 -20.58,32.15 -31.16,47.05 -129.29,182.03 -356.45,230.29 -569.16,168.51 -87.65,-25.45 -148.31,-59.81 -215.43,-101.37 -118.56,-73.39 -238.61,-199.55 -316.84,-311.99 -65.02,-93.48 -187.65,-301.13 -197.77,-436.12 -22.12,5.42 -30.14,11.56 -54.65,3.86l-12.25 -5.33c-0.63,-0.31 -1.93,-0.99 -2.88,-1.51 -0.31,-1.3 0.21,-4.7 0.28,-4.01l1.11 -10.23c0.92,-12.73 12.33,5.49 -0.37,-8.12l4.97 -5.34c0.68,-0.72 1.67,-1.77 2.42,-2.54 37,-37.81 31.86,-38.82 46.31,-54.24 5.29,-5.65 2.07,-2.79 8.93,-7.81 -6.63,20.3 -2.94,5.94 1.37,8.83l18.89 -2.85c-19.78,-2.35 -2.35,2.12 -9.76,-7.1 14.81,4.32 22.95,4.25 38.52,5.47 5.89,0.46 16.17,1.12 21.68,2.11 1.48,0.26 2.67,0.54 3.97,0.81l7.32 2.25c0.67,-1.06 2.38,0.75 3.49,1.3z"/>
   <path class="fil2" d="M3322.61 2645.59c2.63,-10.43 -36.95,-122.45 -43.35,-144.27 -79.92,-272.24 -127.6,-579.34 -123.67,-865.98 1.39,-101.2 8.23,-274.1 31.26,-364.2 -5.54,-5.23 2.03,-2.38 -9.27,-1.54l6.21 -5.21c0.95,-0.66 2.06,-1.5 3.12,-2.16l116.32 -52.65c15.23,-5.69 27.16,-16.3 40.48,-21.11 9.5,7.36 7.79,-11.75 7.79,17.61 -10.64,7.93 -8.38,79.26 -9.3,91.36 -7.34,97.31 -3.49,208.19 11.72,303.92 30.31,190.77 96.08,353.66 171.35,520.65 21.23,47.08 109.42,229.45 117.1,259.03 11.1,42.79 17.21,49 42.84,78.95 1.7,1.99 2.55,2.64 5.79,7.8 4.89,7.8 5.73,11.25 8.81,17.48l19.72 38.9c-31.91,15.76 -12.04,-4.46 -63.15,27 -0.76,0.47 -1.84,1.11 -2.61,1.56 -0.77,0.45 -1.9,1.04 -2.69,1.47 -30.58,16.78 -56.25,24.08 -56.76,61.04 -54.97,0 -167.25,-0.68 -216.29,11.22 -1.39,0.34 -2.4,0.64 -3.78,0.99l-7.54 1.89c-1.5,0.38 -5.82,1.36 -7.25,1.72 -19.61,4.85 -24.61,4.58 -36.85,14.53z"/>
   <path class="fil2" d="M4258.81 3049.48c28.09,11.37 30.44,20.68 44.07,50.27 12.88,27.99 19.06,47.76 6.3,74.76l-88.34 54.25c-24.19,16.62 -88.51,38.24 -97.58,48.67 -30.43,1.42 -38.16,-3.37 -47.67,-23.42 -42.06,53.61 -20.34,40.08 -82.72,76.86 -10.03,5.91 -19.36,11.49 -30.06,10.72 -21.88,-1.58 -7.54,0.03 -10.81,-4.71l-15.31 54.49c-3.34,20.69 -4.47,10.09 4.47,13.87 9.48,12.28 11.32,7.51 15.82,29.39 2.81,13.65 2.16,29.39 1.71,43.51 -0.96,30.21 -7.64,57.88 -24.77,73.58 -39.33,0 -24.92,1.94 -45.55,-6.16l-187.56 -50.08c-54.2,-12.98 -58.56,-22.5 -69.03,-26.14 -11.75,-14.11 -8.94,-17.01 -15.04,-36.67 -58.37,3.3 -120.11,25.97 -216.11,-24.58 -54.56,-28.74 -119.51,-80.34 -127.13,-146.82 36.27,-16.4 98.6,-42.89 160.58,-37.26 29.66,2.7 53.2,8.34 78.84,18.44 22.81,8.99 44.2,26.41 64.04,36.94 18.62,24.57 40.12,37.23 56.38,68.59l24.91 -0.49c13.91,-125.39 23.31,-330.73 12.99,-463.44l-9.03 -112.37c-0.43,-8.28 0.31,-15.3 -0.18,-18.77 -2.12,-14.88 4.43,12.43 -1.56,-7.64 -2.46,-8.23 -2.02,-6.5 -5.45,-11.82 -13.14,14.12 -9.69,33.85 -7.27,55.59l7.29 168.72c2.62,-5.39 4.52,1.28 -8.78,-20.8 -31.64,-52.5 -41.66,-77.3 -67.59,-131.75 -8.89,-18.65 -13.51,-44.67 -31.04,-49.82 99.12,-22.29 28.52,-27.68 94.1,-20.49 30.34,3.33 118.98,-31.81 155.1,-45.31l50.68 -18.93c0.99,-0.41 2.11,-0.93 3.08,-1.35l41.9 -13.27c21.6,-4.76 35.94,-7.03 53,-16.33 -13.13,13.62 -1.69,24.16 7.06,62.26 30.21,131.56 33.73,203.97 32.06,342.6 -0.62,51.35 -8.65,102.21 -8.72,147.28 30.5,-12.01 37.3,-8.63 69.35,-8.63 10.38,-18.84 13.83,-40.41 25.49,-56.73 35.43,-49.58 120.37,-80.69 188.08,-77.01z"/>
   <path class="fil3" d="M3400.84 1232.14c-20.41,6.52 -13.06,-10.96 -15.54,25.51l0.93 78.53c0,157.63 8.45,231.28 40.14,381.89 5.54,26.36 14.72,57.64 21.55,82.82l25.56 79.76c27.3,75.7 47.39,112.55 83.27,181.15l110.09 181.13 131.28 259.01c18.58,-6.05 8.76,-4.39 18.34,-8.1l11.62 -3.85c29.39,-7.67 81.74,-18.44 99.5,8.87l9.99 20.73c8.33,19.34 7.25,35 16.62,43.5l19.98 -14.18c6.29,-4.58 11.74,-7.65 18.82,-13.27 18.69,-15.47 60.46,-22.62 66.4,-28.69 17.53,-2.37 27.09,-4.94 46.69,-4.74 23.53,0.22 28.16,4.36 49.81,5.06 49.27,14.07 94.06,25.68 121.71,55.92 -11.91,36.06 -54.63,52.62 -94.76,72.79 -12.73,4.13 -13.82,6.48 -26.33,10.02 -12.67,3.59 -17.55,3.77 -33.07,4.04 -24,0.43 -50.92,2.7 -73.87,-3.38 -20.43,-3.01 -28.29,-3.16 -47.72,-7.57 -18.93,-4.29 -32.15,-10.15 -47.66,-12.13l-8.7 12.75c-17.06,9.3 -31.4,11.57 -53,16.33l-41.9 13.27c-0.97,0.42 -2.09,0.94 -3.08,1.35l-50.68 18.93c-36.12,13.5 -124.76,48.64 -155.1,45.31 -65.58,-7.19 5.02,-1.8 -94.1,20.49 -89.45,23.95 -86.73,13.13 -133.03,21.3 -18.43,3.25 -28.16,3.8 -52.67,2.57 -30.01,-7.03 -34.17,-27.4 -49.43,-47.98 -20.24,11.29 -27.19,22.68 -60.81,32.87 -67.23,20.38 -195.1,-5.32 -219.4,-40.54 28.43,-49.24 125.64,-101.47 209.43,-87.16 34.09,5.83 48.04,19.06 73.46,25.36l7.43 -16.22c12.24,-9.95 17.24,-9.68 36.85,-14.53 1.43,-0.36 5.75,-1.34 7.25,-1.72l7.54 -1.89c1.38,-0.35 2.39,-0.65 3.78,-0.99 49.04,-11.9 161.32,-11.22 216.29,-11.22 0.51,-36.96 26.18,-44.26 56.76,-61.04 0.79,-0.43 1.92,-1.02 2.69,-1.47 0.77,-0.45 1.85,-1.09 2.61,-1.56 51.11,-31.46 31.24,-11.24 63.15,-27l-19.72 -38.9c-3.08,-6.23 -3.92,-9.68 -8.81,-17.48 -3.24,-5.16 -4.09,-5.81 -5.79,-7.8 -25.63,-29.95 -31.74,-36.16 -42.84,-78.95 -7.68,-29.58 -95.87,-211.95 -117.1,-259.03 -75.27,-166.99 -141.04,-329.88 -171.35,-520.65 -15.21,-95.73 -19.06,-206.61 -11.72,-303.92 0.92,-12.1 -1.34,-83.43 9.3,-91.36 0,-29.36 1.71,-10.25 -7.79,-17.61l24.8 -8.24c9.19,19.7 18.27,41.4 32.33,51.91z"/>
   <path class="fil2" d="M4155.89 2507.27c-21.65,-0.7 -26.28,-4.84 -49.81,-5.06 -19.6,-0.2 -29.16,2.37 -46.69,4.74 12.1,-26.44 -19.41,-190.54 -27.69,-225.54 -25.48,-107.72 -59.71,-185.32 -146.18,-243.43 -44.69,-30.03 -130.05,-106.05 -179.62,-145.64 -14.17,-11.32 -22.04,-23.06 -40.36,-26.83 36.54,-74.66 24.78,-70.37 103.05,-110.2 7.45,27.13 126.92,138.76 153.46,163.66 56.23,52.74 98.44,89.89 180.38,135.85 237.59,133.25 590.67,324.81 671.17,595.14 37.75,126.77 47.15,280.91 -7.86,408.24 -8.26,19.1 -15.69,34.43 -25.94,52.29 -9.49,16.53 -18,40.15 -35.53,47.32 -15.05,-22.01 -1.7,-95.7 -1.22,-130.7 0.63,-46.17 -2.08,-95.14 -8.39,-139.13 -11.87,-82.83 -33.99,-163.81 -64.52,-233.22 -107.04,-243.34 -327.41,-373.43 -543.13,-493.28 -31.13,-17.29 -20.69,-32.06 -65.21,-86.48 -43.84,-53.6 -108.6,-84.78 -158.84,-135.89 -25.59,-26.03 -48.56,-47.2 -73.75,-73.74l-54.99 -57.65c-10.7,-12.54 -7.43,-13.01 -23.8,-17.38 5.59,17.12 49.88,59.04 65.38,75.42 108.49,114.69 170.21,144.09 224.82,200.08 53.78,55.13 70.39,101.59 84.9,197.32 8.75,57.68 27.31,190.16 46.43,238.73l23.94 5.38z"/>
   <path class="fil4" d="M4514.42 4330.38c-11.64,26.26 -46.6,87.72 -71.34,104.82 -7.96,5.5 0.85,0.96 -8.56,4.6 -8.55,-16.97 -71.01,-78.42 -87.35,-97.4 -29.01,-33.7 -57.29,-63.85 -87.23,-99.25 -110.6,-130.78 -232.7,-282.16 -322.65,-431.72 -11.15,-18.54 -62.14,-104.83 -63.62,-121.97 -1.18,-13.71 43.7,-110.25 49.82,-138.18l10.43 0.44c17.13,-15.7 23.81,-43.37 24.77,-73.58 0.45,-14.12 1.1,-29.86 -1.71,-43.51 -4.5,-21.88 -6.34,-17.11 -15.82,-29.39 6.65,-7.81 1.25,-3.05 4.44,-9.19 0.35,-0.68 0.91,-1.97 1.31,-2.69l7.28 -10.63 124.47 252.48c87.18,166.33 175.54,322.9 277.74,477.05 23.62,35.63 131.26,201.67 158.02,218.12z"/>
   <path class="fil2" d="M3573.22 1467.83c-5.04,6.09 -4.28,1.16 -1.55,12.42l47.59 91.02c8.93,14.23 22.44,33.22 32.37,45.85 24.78,31.49 21.59,22.86 33.65,26.21l15.19 4.9c-49.08,-0.75 -62.6,13.93 -89.08,43.24 -22.24,24.61 -36.42,58.78 -29.4,101.15 -28.37,-26.74 -75.71,-87.94 -84.01,-122.9 -7.03,-29.63 -11.55,-52.08 -16.52,-81.01 -2.66,-15.46 -4.56,-31.23 -6.41,-46.92 -1.98,-16.85 1.36,-34.34 -10.8,-39.15 -13.58,34.5 43.63,243.87 57.44,282.96 32.91,93.16 77,162.58 122.19,234.12 61.02,96.6 139.98,226.24 189.75,338.86 8.64,19.58 45.32,115.68 55.52,122.11 5.63,-7.57 7.44,4 1.38,-17.11l-54.82 -131.4c2.15,9.78 29.67,34.86 38.66,46.06l103.42 147.87c10.93,13.83 -1.06,7.94 15.2,9.53 -7.08,5.62 -12.53,8.69 -18.82,13.27l-19.98 14.18c-9.37,-8.5 -8.29,-24.16 -16.62,-43.5l-9.99 -20.73c-17.76,-27.31 -70.11,-16.54 -99.5,-8.87l-11.62 3.85c-9.58,3.71 0.24,2.05 -18.34,8.1l-131.28 -259.01 -110.09 -181.13c-35.88,-68.6 -55.97,-105.45 -83.27,-181.15l-25.56 -79.76c-6.83,-25.18 -16.01,-56.46 -21.55,-82.82 -31.69,-150.61 -40.14,-224.26 -40.14,-381.89l-0.93 -78.53c2.48,-36.47 -4.87,-18.99 15.54,-25.51 6.35,29.72 20.86,48.72 35.49,71.27 7.07,10.89 13.57,21.26 22.09,29.87 15.83,15.97 8.02,6.71 19.65,28.52 8.38,15.71 32.5,43.62 43.99,55.19 9.69,9.77 16.12,16.88 25.82,26.27l25.34 24.57z"/>
   <path class="fil5" d="M3005.61 1686.45c-5.48,50.11 -101.38,152.19 -126.63,174.45 -47.06,41.5 -115.91,83.47 -200.18,97.46 -88.46,14.69 -181.31,-4.84 -241,-46.67 -79.83,-55.94 -68.29,-94.69 -111.63,-114.21 -21.29,-9.6 -33.96,-16.03 -52.03,-26.09 -195.32,-108.72 -337.73,-267.91 -439.97,-456.62 -16.83,-31.06 -89.65,-175.07 -92.58,-208.39 30.53,-8.81 175.48,61.46 207.66,79.94 237.11,136.12 270.32,315.64 363.9,533.38 62.04,144.33 153.31,262.33 358.04,232.31 231.29,-33.91 307.87,-251.62 334.42,-265.56z"/>
   <path class="fil4" d="M4049.57 2646.66c16.95,4.83 36.43,9.39 56.93,2.98l125.31 360.76c7.72,25.69 2.96,37.25 27,39.08 -67.71,-3.68 -152.65,27.43 -188.08,77.01 -11.66,16.32 -15.11,37.89 -25.49,56.73 -32.05,0 -38.85,-3.38 -69.35,8.63 0.07,-45.07 8.1,-95.93 8.72,-147.28 1.67,-138.63 -1.85,-211.04 -32.06,-342.6 -8.75,-38.1 -20.19,-48.64 -7.06,-62.26l8.7 -12.75c15.51,1.98 28.73,7.84 47.66,12.13 19.43,4.41 27.29,4.56 47.72,7.57z"/>
   <path class="fil4" d="M4434.52 4439.8l-65.71 62.07c1.11,-21.15 -10.71,-19.66 -39.41,-46.34 -17.56,-16.32 -28.96,-27.18 -44.74,-41.95 -31.31,-29.29 -56.92,-55.75 -86.1,-87.29 -138.78,-149.98 -270.01,-319.26 -369.23,-502.62 -13.61,-25.16 -2.99,-32.75 8.57,-58.76 8.11,-18.25 16.62,-47.8 29.57,-61.2 12.48,13.92 44.24,80.54 57.61,102.57 151.87,250.07 285.97,386.63 466.46,595.77 12.1,14.02 23.62,34.88 42.98,37.75z"/>
   <path class="fil0" d="M4628.21 4509.49c-26.83,19.59 -26.58,30.19 -80.27,48.03 -32.68,10.86 -71.42,23.82 -110.31,16.17 -30.56,-16.64 -67.73,-35.31 -68.82,-71.82l65.71 -62.07c9.41,-3.64 0.6,0.9 8.56,-4.6 24.74,-17.1 59.7,-78.56 71.34,-104.82 27.85,-4.03 42.85,17.82 64.11,27.91 -0.1,-74.55 0.93,-127.41 27.53,-189.53 16.99,-39.7 62.41,-102.8 102.54,-113.71 40.1,41.05 79.27,202.02 -6.37,305.35 -10.7,12.91 -19.59,21.56 -32.35,32.72 -13.66,11.94 -26,18.63 -38.19,30.1 13.41,48.37 9.72,45.66 -3.48,86.27z"/>
   <path class="fil4" d="M4559.13 3517.37c-42.51,-16.33 -79.82,-39.5 -128.29,-52.08 72.1,78.39 155.39,141.67 254.78,182.56 55.07,22.66 108.06,34.95 168.18,52.89 35.85,10.7 179.37,26.66 188.48,33.1 -0.02,0.03 2.95,10.52 -25.51,8.92l-198.15 -35.75c-113.86,-31.53 -210.12,-65.79 -300.1,-138.22l-45.46 -37.31c-77.7,-56.92 -38.59,-91.34 -172.89,-89.97 13.54,20.9 91.05,103.74 100.45,110.35 8.07,5.68 13.1,7.71 20.16,14.42l68.51 57.19c5.03,3.65 4.64,3.42 10.05,7.21 98.34,69.01 190.59,116.4 304.2,153.97 39.68,13.12 74.69,22.96 112.38,31.07 16.06,3.46 36.93,6.15 58.79,9.9 13.36,2.29 19.13,2.99 31.45,3.86 24.82,1.73 20.58,-0.78 26.44,17.07 -61.52,-0.02 -182.02,-28.36 -238.63,-49.42l-243.8 -112.8 -124.95 -91.68c-16.55,-16.05 -22.7,-12.93 -37.44,-32.03l-97.15 -102.71c-7.7,-9.05 0.71,-2.99 -11.27,-13.52 -30.79,7.28 -39.79,16.97 -34.19,52.49l-38.39 -50.25c-65.19,-94.01 -67.38,-140.44 -83.52,-169.2 9.07,-10.43 73.39,-32.05 97.58,-48.67l88.34 -54.25c-8.13,30.92 134.59,221.04 173.48,265 12.63,14.28 21.7,24.9 35.35,38.35l41.12 39.51z"/>
   <path class="fil2" d="M3489.23 3090.6c-18.82,-51.59 -43.01,-104.07 -63.47,-155.39 -11.16,-27.98 -51.23,-139.25 -63.83,-155.95 24.51,1.23 34.24,0.68 52.67,-2.57 46.3,-8.17 43.58,2.65 133.03,-21.3 -6.6,29.28 67.57,160.25 79.63,181.97 25.88,46.62 30.11,36.58 30.7,102.83 0.28,31.55 1.29,62.1 -59.3,74.29 -11.31,-11.89 -13.93,-26.72 -20.35,-40.4l-130.18 -290.53c-6.48,-10.35 -2.22,-4.86 -9.9,-11.59 -6.58,9.54 -3.51,-2.65 -4.39,11.67 -0.58,9.42 8.27,25.48 12.29,35.14l134.86 302.33c-63.84,6.89 -76.49,-12.85 -91.76,-30.5z"/>
   <path class="fil4" d="M4437.63 4573.69c38.89,7.65 77.63,-5.31 110.31,-16.17 53.69,-17.84 53.44,-28.44 80.27,-48.03 -4.76,24.76 30.35,97.19 34.89,182.54 4.71,88.67 -8.95,117.43 -35.58,184 -0.87,-1.03 -1.89,-4.08 -2.22,-3.39l-6.13 -13.87c-12.38,-43.81 -15.12,-68.96 -95.03,-84.71 -72.11,-14.21 -121.42,-13.03 -193.74,-6.46 24.07,-53.73 135.48,-100.25 134.5,-183.96 -10.06,-0.03 -19.07,-1.59 -27.27,-9.95z"/>
   <path class="fil4" d="M4686.92 3099.61c-7.89,-12.77 -3.92,-68.42 -5.85,-89.98 -2.45,-27.24 -7.22,-53.8 -13,-81.02 -10.89,-51.3 -26.42,-96.73 -45.75,-144.9 -90.96,-226.63 -257.65,-370.1 -453.89,-504.35 -46.07,-31.51 -74.21,-37.03 -80.54,-62.14 -3.01,-11.95 -7.4,-34.05 -9.18,-46.36 28.33,8.69 99.43,52.9 125.38,68.66 272.01,165.21 451.43,345.78 485.01,680.59 3.75,37.38 12.17,151.35 -2.18,179.5z"/>
   <path class="fil1" d="M1729.72 990.01c6.55,-16.24 23.73,-25.63 36.54,-42.38 21.81,-28.53 40.16,-70.5 50.52,-105.27 10.03,-33.63 12.5,-24.57 45.95,-37.32 38.85,-14.81 70.53,-30.22 106.98,-48.98 51.61,-26.57 80.02,-22.74 143.58,-19.48 3.5,71.48 -61.55,154.17 -124.15,195.95 -64.7,43.18 -155.39,68.28 -259.42,57.48z"/>
   <path class="fil6" d="M4755.6 3101.85c26.64,-37.52 50.15,-121.86 55.04,-175.12 14.81,-10.44 24.61,-23.95 39.36,-36.01 14.09,-11.52 29.24,-22.23 45.97,-31.92 33.17,-19.22 80.22,-33.24 123.06,-37.65 2.39,90.97 -21.56,170.79 -63.22,227.47 -34.63,47.14 -101.65,100.6 -177.84,110.07l-5.58 -9.59c-14.77,-27.57 -19.39,-24.32 -16.79,-47.25z"/>
   <path class="fil1" d="M3941.1 2628.35c-29.45,12.1 -74.91,22.14 -106.41,32.6 -37.26,12.38 -70.59,25.29 -105.14,38.07 -26.82,9.93 -80.45,38.32 -103.69,14.79 -19.01,-19.25 -33.91,-86.7 -12.22,-118.02 29.59,-42.73 186.65,-86.75 252.89,-99.52 26.41,-5.09 37.43,-8.06 52.02,12.04 20.39,28.08 29.74,75.16 22.55,120.04z"/>
   <path class="fil1" d="M5227.2 3661.49c-0.99,41.65 -21.77,114.25 -31.71,154.68 -13.46,54.71 -12.23,110 -13.6,170.09 -37.14,1.24 -64.46,-13.81 -89.32,-28.99 -32.45,-19.82 -49.46,-22.99 -49.34,-71.68 0.15,-60.35 5.56,-112.75 12.86,-166.75 5.6,-41.41 -0.56,-44.81 38.61,-55.29 24.4,-6.52 55.5,-10.54 82.16,-10.49 18.59,0.03 36.23,3.05 50.34,8.43z"/>
   <path class="fil1" d="M3288.72 3267.4c108.99,-42.17 206.86,-50.94 295.07,39.06 34.81,35.51 47.45,52.91 39.56,91.18 -2.63,12.79 7.25,19.32 -37.74,29.05 -116.15,25.1 -283.45,-62.68 -296.89,-159.29z"/>
   <path class="fil1" d="M3992.49 1449.84c4.02,78.29 -32.8,146.3 -71.99,182.25 -37.19,34.13 -80.53,49.53 -133.76,56.65 -31.04,4.15 -30.31,5.7 -46.85,-12.42 -14.29,-15.67 -19.47,-14.64 -18.03,-45.22 0.97,-20.37 4.78,-39.34 11.25,-56.33 12.14,-31.9 33.37,-55.67 56.8,-73.38 46.56,-35.22 133.44,-58.56 202.58,-51.55z"/>
   <path class="fil1" d="M2944.57 1558c-137.79,1.3 -259.57,-122.38 -275.65,-271.62 101.01,3.7 231.39,69.28 278.09,164.1 6.42,13.05 16.36,37.41 18.23,55.89 2.77,27.39 -12.59,27.81 -20.67,51.63z"/>
   <path class="fil1" d="M3383.5 4599.98c3.29,-20.8 10.52,-27.51 17.85,-48.26 9.65,-27.32 6.56,-22.98 36.46,-30.7 34.61,-8.93 68.54,-17.43 108.72,-18.5 86.57,-2.31 154.71,20.97 183.44,76.45 28.23,54.52 -114.16,89.17 -157.22,89.59 -56.35,0.56 -110,-13.51 -153.11,-39.9 -16.59,-10.16 -22.93,-19.18 -36.14,-28.68z"/>
   <path class="fil4" d="M3576.96 3279.39c-29.12,-58.28 -61.58,-124 -87.73,-188.79 15.27,17.65 27.92,37.39 91.76,30.5l-134.86 -302.33c-4.02,-9.66 -12.87,-25.72 -12.29,-35.14 0.88,-14.32 -2.19,-2.13 4.39,-11.67 7.68,6.73 3.42,1.24 9.9,11.59l130.18 290.53c6.42,13.68 9.04,28.51 20.35,40.4 60.59,-12.19 59.58,-42.74 59.3,-74.29 -0.59,-66.25 -4.82,-56.21 -30.7,-102.83 -12.06,-21.72 -86.23,-152.69 -79.63,-181.97 17.53,5.15 22.15,31.17 31.04,49.82 25.93,54.45 35.95,79.25 67.59,131.75 13.3,22.08 11.4,15.41 8.78,20.8l-7.29 -168.72c-2.42,-21.74 -5.87,-41.47 7.27,-55.59 3.43,5.32 2.99,3.59 5.45,11.82 5.99,20.07 -0.56,-7.24 1.56,7.64 0.49,3.47 -0.25,10.49 0.18,18.77l9.03 112.37c10.32,132.71 0.92,338.05 -12.99,463.44l-24.91 0.49c-16.26,-31.36 -37.76,-44.02 -56.38,-68.59z"/>
   <path class="fil7" d="M4638.88 3160.49c-24.12,-0.79 -10.32,-2.77 -19.84,5.37 2.06,84.99 132.79,93.74 146.92,20.49 3.68,-19.03 2.99,-62.37 -24.94,-60.84l14.58 -23.66c-2.6,22.93 2.02,19.68 16.79,47.25l5.58 9.59c76.19,-9.47 143.21,-62.93 177.84,-110.07 41.66,-56.68 65.61,-136.5 63.22,-227.47 -42.84,4.41 -89.89,18.43 -123.06,37.65 -16.73,9.69 -31.88,20.4 -45.97,31.92 -14.75,12.06 -24.55,25.57 -39.36,36.01 6.4,-45.73 143.43,-118.78 217.3,-115.3 13.76,100.67 -35,230.66 -114.74,294.72 -17.81,14.31 -67.67,46.13 -85.03,48.61 61.34,7.65 93.28,6.9 152.23,38.72 22.12,11.94 23.7,17.42 46.57,4.73 47.34,-26.29 140.9,-70.37 187.42,-23.68 -7.3,63.77 -87.55,26.26 -204.31,76.12 -50.61,21.61 -43.48,-48.28 -229.88,-44.2l-0.63 -32.75c4.44,16.26 -15.88,66.8 -72.24,76.75 -54.18,9.55 -80.55,-14.99 -94.44,-59.19 -51.13,-0.59 -82.8,-23.45 -139.01,4.67 -51.98,26 -25,47.96 -120.81,43.02l-17.56 -28.72c23.08,-1.51 55.63,4.14 75.2,-4.62 10.56,-4.72 25.34,-22.14 46.3,-31.77 24.42,-11.22 115.25,-25.87 140.09,-6.26 15.37,-5.93 10.72,-17.75 27.8,-14.51 26.62,5.06 4.69,0.57 13.98,7.42z"/>
   <path class="fil4" d="M3359.24 4626.98l-27.8 5.21c5.51,1.74 28.26,34.77 36.24,43.63 72.65,80.64 152.85,74.16 169.54,90.87 25.35,28.8 1.81,93.66 -16.82,115.08 -49.4,7.42 -130.18,-32.68 -163.31,-52.06 -44.12,-25.79 -92.93,-68.95 -116.1,-107.32 4.63,-18.21 17.97,-32.5 27.08,-48.72 9.32,-16.61 18.41,-32.52 24.76,-51.01 -5.87,-3.92 2.56,-3.45 -9.14,-0.21l7.13 -7.91c17.81,14.39 41.48,12.44 68.42,12.44z"/>
   <path class="fil2" d="M4106.5 2649.64c-20.5,6.41 -39.98,1.85 -56.93,-2.98 22.95,6.08 49.87,3.81 73.87,3.38 15.52,-0.27 20.4,-0.45 33.07,-4.04 12.51,-3.54 13.6,-5.89 26.33,-10.02 -10.44,25.39 77.18,134.2 90.76,149.9 41.89,48.41 76.24,85.88 122.76,128.59 62.63,57.52 139.43,112.05 212.9,159.78 24.08,15.65 54.7,31.37 76.04,48.25l-0.76 30.78c-109.98,17.04 -444.27,-311.29 -527.87,-415.42 -28.53,-35.52 -25.92,-76.53 -50.17,-88.22z"/>
   <path class="fil1" d="M3353.35 4615.49c-71,2.96 -179.84,-61.8 -232.67,-99.85 -4.27,-43.87 23.08,-97.88 52.56,-110.93 24.82,-10.98 99.82,23.36 122.96,34.53 106.33,51.36 143.29,73.51 57.15,176.25z"/>
   <path class="fil6" d="M4620.07 4411.72c-22.96,-45.33 -31.38,-11.53 -31.25,-92.56 0.16,-97.44 41.7,-224.96 115.45,-250.28 33.09,37.44 47.61,145.32 31.97,204.19 -14.85,55.88 -70.24,127.45 -116.17,138.65z"/>
   <path class="fil1" d="M3929.03 3539.49c-36.51,-0.38 -154.42,-38.58 -194.24,-48.84 -20.19,-5.21 -80.8,-22.38 -91.81,-30.66 -26.41,-19.86 -12.36,-70.05 -5.63,-99.6l208.21 43.07c43.54,6.54 90.51,7.04 97.93,29.59 11.54,35.07 -1.98,80.81 -14.46,106.44z"/>
   <path class="fil1" d="M3612.42 2715.86c-46.75,25.17 -81.98,34.72 -143.91,43.11 -95.97,12.98 -125.65,20.21 -143.06,-31.55 -25.6,-76.09 22.88,-85.02 83.97,-93.52 57.37,-7.98 125.25,-7.76 185.01,-5.26 2.18,15.74 0.91,33.26 4.9,48 3.87,14.32 10.61,21.37 13.09,39.22z"/>
   <path class="fil6" d="M4379.35 4509.94c26.24,-38.38 91.56,-60.56 141.68,-170.32 33.4,3.84 73.08,50.91 89.69,73.13 70.67,94.55 -55.68,137.86 -130.78,151.45 -50.84,9.2 -93.46,-33.97 -100.59,-54.26z"/>
   <path class="fil6" d="M4303.62 3159.94c-73.43,50.72 -55.74,39.12 -136.38,80.96 -22.71,11.79 -56.74,36.21 -78.58,11.41 -12.8,-14.54 -33.12,-52.38 -25.75,-80.88 19.98,-77.3 176.05,-135.89 211.79,-96.08 15.91,17.72 29.19,51.88 28.92,84.59z"/>
   <path class="fil1" d="M4262.59 2562.27c-6.42,24.05 -30.98,36.31 -53.39,48.28 -78.12,41.72 -206.36,31.66 -255.22,0.33 -4.44,-31.81 -7.63,-36.29 44.61,-64.73 25.44,-13.86 51.16,-25.53 85.47,-28.41 85.57,-7.19 123.19,15 178.53,44.53z"/>
   <path class="fil1" d="M3074.03 1722.96c-25.31,-9.34 -118.23,-86.61 -131.34,-109.3 -1.77,-53.45 35.85,-98.35 66.31,-113.44 28.24,14.11 116.81,125.13 103.15,165.03 -8.54,24.92 -22.58,47.33 -38.12,57.71z"/>
   <path class="fil1" d="M3312.47 2675.6l0.48 40.2c-36.11,26.73 -60.53,46.38 -126.42,44.85 -54.79,-1.27 -96.26,-16.91 -136.42,-34.41 13.61,-35.92 77.58,-65.49 112.87,-75.09 62.05,-16.89 103.02,0.26 149.49,24.45z"/>
   <path class="fil8" d="M1550.56 1080.37c-3.08,10.95 8.13,3.37 -12.66,11.63 -5.05,2 -18.97,4.67 -24.47,6 -14.71,3.56 -33.11,7.43 -49.19,9.17 -38.61,4.19 -79.17,-0.51 -117.09,2.99 -27.74,50.34 -147.95,171.64 -226.45,184.86l-16.81 -44.93c17.43,-15.58 34.67,-22.8 51.1,-33.74 47.87,-31.89 95.69,-71.24 138.61,-108.46 86.69,-75.16 -8.31,-17.09 193.73,-28.43 15.02,-0.84 20.31,-2.25 33.01,-4.4 20.32,-3.45 21,-5.76 30.22,5.31z"/>
   <path class="fil1" d="M3763.85 1743.74c-25.09,21.1 -64.63,26.58 -89.3,76.06 -3.58,7.17 -4.63,10.8 -7.63,17.96 -1.6,3.81 -2.26,5.83 -3.92,8.9 -6.5,12.07 -3.01,5.91 -7.98,11.93 -33.49,-3.5 -58.28,-34.88 -64.11,-68.16 -12.65,-72.3 69.1,-156.37 119.31,-127.99 21.96,12.41 49.75,50.41 53.63,81.3z"/>
   <path class="fil9" d="M2069.02 645.74l-1.21 43.8c-70.49,42.01 -132.83,77.24 -206.98,105.89 -10.11,3.91 -19.8,7.19 -28.37,10.1 -35.11,11.95 -16.36,17.85 -41.87,75.8 -13.61,30.93 -41.33,82.18 -68.18,89.98 11.42,-42.35 49.63,-76.2 57.59,-183.7 19.02,-11.15 46.01,-23.1 65.94,-34.05 77.65,-42.69 140.52,-94.14 191.85,-121.98l31.23 14.16z"/>
   <path class="fil3" d="M3074.62 1555.42l-15.44 -18.32c-5.82,-8.03 -9.4,-11.51 -15.68,-18.67 -10.57,-12.06 -19.89,-27.38 -43.54,-24.94 7.31,-8.16 11.52,-3.72 20.32,-7.56 22.56,-9.85 64.55,-150.05 70.45,-171.43 -3.8,-5.64 8.77,-5.35 -10.58,-3.95l96.35 -40.62c-6.93,64.12 -12.97,104.27 -36.12,159.04 -9.42,22.28 -18.44,43.08 -30.34,65.04 -10.75,19.8 -30.17,40.27 -35.42,61.41z"/>
   <path class="fil7" d="M5930.23 4457.04c-26.28,-2.05 -251.25,-80.68 -270.5,-94.52 6.37,-15.41 17.29,-29.02 25.76,-50.34 7.73,-19.44 11.73,-44.87 20.33,-62.32 30.11,9.86 205.83,181.19 224.41,207.18z"/>
   <path class="fil9" d="M1664.01 729.17c2.79,22.27 20.47,59.67 26.99,90.33 7.11,33.48 5.68,75.68 2.53,112.68l-27.75 -5.14c-3.24,-58.16 17.83,-79.48 -17.39,-167.97 -7.7,-19.32 -17.1,-32.14 -22.32,-47.24 43.39,-36.76 68.72,-46.73 86.85,-117.05 26.37,-102.24 -23.51,-151.42 41.43,-157.79 32.14,66.04 16.24,182 -34.63,242.7 -28.86,34.42 -37.31,32.05 -55.71,49.48z"/>
   <path class="fil8" d="M1706.91 1040.09c-6.86,5.02 -3.64,2.16 -8.93,7.81 -14.45,15.42 -9.31,16.43 -46.31,54.24 -0.75,0.77 -1.74,1.82 -2.42,2.54l-4.97 5.34c-110.92,3.57 -100.5,-81.46 -46.43,-135.75 61.96,-62.22 108.99,-24.37 118.2,11.98 6.64,26.16 -7.98,35.89 -9.14,53.84z"/>
   <path class="fil7" d="M6008.14 4149.45c-20.27,-1.63 -215.92,-76.04 -239.92,-92.4 -5.41,-3.69 -4.45,-3.14 -8.22,-6.7l29.03 -112.25c14.16,7.14 204.96,193.52 219.11,211.35z"/>
   <path class="fil7" d="M5101.87 3404.32c-20.16,38.49 -56.56,22.87 -93.03,7.77l-151.86 -60.65c-79.2,-28.18 -30.56,-18.03 -71.18,-67.67 -27.82,-33.99 -29.66,-14.57 -35.64,-41.51 53.68,-27.77 78.78,62.48 107.04,74.86 0.22,0.1 189.21,42.15 244.67,87.2z"/>
   <path class="fil8" d="M1792.39 1050.91c-1.11,-0.55 -2.82,-2.36 -3.49,-1.3l-7.32 -2.25c-1.3,-0.27 -2.49,-0.55 -3.97,-0.81 -5.51,-0.99 -15.79,-1.65 -21.68,-2.11 -15.57,-1.22 -23.71,-1.15 -38.52,-5.47l8.7 -22.88c67.14,-5.07 131.73,2.23 200.25,-9.27 50.13,-8.42 124.21,21.41 168.96,33.53l-16.68 40.78c-39.33,-3.5 -86.36,-25.64 -127.74,-31.43 -20.25,-2.83 -140.83,-2.3 -158.51,1.21z"/>
   <path class="fil10" d="M1459.2 844.36c-50.83,14.07 -67.75,35.27 -149.63,38.16 -46.89,1.65 -125.99,-8.35 -155.68,-31.95 9.23,-65.8 63.64,-26.35 92.18,-19.38 81.14,19.82 150.33,-8.57 217.81,-28.52 24.29,-2.13 5.62,-2.58 12.91,8.21l-17.59 33.48z"/>
   <path class="fil4" d="M4640.57 4524.76c34.19,86.5 131.08,105.2 145.17,128.96 7.28,12.29 25.63,61.9 9.36,77.1 -18.44,17.23 -85.41,-13.68 -104.51,-25.18 -27.68,-16.66 -17.17,-44.41 -31.78,-106.47 -5.35,-22.71 -17.7,-55.15 -18.24,-74.41z"/>
   <path class="fil9" d="M2499.94 4900.15c28.99,-22.99 183.62,-63.49 231.57,-55.75 8.12,11.56 26.73,43.08 13.13,64.4 -15.25,23.92 -235.28,-4.25 -244.7,-8.65z"/>
   <path class="fil8" d="M1557.07 1414.22c-16.2,11.03 -28.57,10.55 -50.29,10.7 6.44,-75.18 7.24,-133.71 7.68,-210.14 13.06,-16.37 30.02,-27.33 44.52,-45.22 10.47,-12.91 26.1,-48.09 36.57,-55.59 26.6,4.99 19.32,10.78 -11.64,54.71 -12.06,17.1 -38.64,45.8 -41.01,59.28 -6.27,35.58 16.17,139.24 14.17,186.26z"/>
   <path class="fil4" d="M4457.04 4917.49c32.23,-22.45 137.97,-31.51 69.73,-122.41l-6.46 -9.55c57.1,5.27 102.47,39.99 89.15,105.42 -10.76,52.86 -131.77,38.86 -152.42,26.54z"/>
   <path class="fil6" d="M4638.88 3160.49l74.06 7.91c13.6,-12.53 22.39,-27.14 28.08,-42.89 27.93,-1.53 28.62,41.81 24.94,60.84 -14.13,73.25 -144.86,64.5 -146.92,-20.49 9.52,-8.14 -4.28,-6.16 19.84,-5.37z"/>
   <path class="fil6" d="M3959.05 3331.76l26.17 -135.79 64.34 -1.76c9.48,11.96 21.04,31.27 16.81,48.06 -6.9,27.38 -67.15,81.71 -107.32,89.49z"/>
   <path class="fil9" d="M4403.52 4915.08c13.5,-30.05 76.39,-165.29 122.62,-105.71 29.02,37.4 5.64,65.15 -24.39,78.98 -17.99,8.29 -76.64,28.95 -98.23,26.73z"/>
   <path class="fil7" d="M4647.09 3256.4c-14.65,17.83 -25.12,16.65 -41.28,40.88 -12.52,18.78 -18.69,35.69 -21.36,59.92 -3.68,33.48 -25.2,47.25 -51.33,75.38 -11.24,12.1 -9.29,14.76 -26.09,20.82l-20.97 -26.46c41.86,-52.22 52.79,-23.69 65.67,-98.76 6.27,-36.6 42.76,-79.66 70.16,-92.02l25.2 20.24z"/>
   <path class="fil4" d="M4488.58 4783.09c-24.39,18.31 -35.84,27.18 -52.89,52.24 -14.64,21.53 -28.23,45.73 -38.27,70.06 -21.17,-3.25 -61.25,-15.87 -69.54,-31.25 20.45,-13.01 50.34,-9.96 57.93,-32.25 10.7,-31.4 -11.22,-50.71 -20.73,-68.77 44.29,-4.18 109.33,0.83 123.5,9.97z"/>
   <path class="fil9" d="M2416.78 4826.44c14.96,-12.62 142.77,-42.65 170.6,-37.69 8.73,14.29 16.9,39.69 4.95,58.83 -19.66,31.48 -173.23,-20.01 -175.55,-21.14z"/>
   <path class="fil9" d="M4237.07 4890.81c14.76,-34.49 87.45,-146.16 127.94,-98.01 39.12,46.52 -7.9,59.61 -30.36,67.09 -25.05,8.33 -74.44,28.47 -97.58,30.92z"/>
   <path class="fil7" d="M1459.2 844.36l17.59 -33.48c-7.29,-10.79 11.38,-10.34 -12.91,-8.21 10.67,-8.57 1.55,-4.56 17.76,-6.65 23.42,63.89 83.22,109.5 125.01,143.32 4.82,3.9 4.19,3.3 7.22,6.62l-26.74 25.16c-52.7,-17.45 -116.67,-122.84 -127.93,-126.76z"/>
   <path class="fil7" d="M3682.6 4812.92c-16.22,40.92 -80.58,55.75 -137.42,57.54l13.39 -62.6 124.03 5.06z"/>
   <path class="fil7" d="M5854.56 4294.8c-28.46,-2.81 -58.4,-10.98 -83.9,-18.5 -32.97,-9.73 -36.78,-25.16 -61.14,-38.54l5.03 -39.71c29.86,6.5 131.04,78.85 140.01,96.75z"/>
   <path class="fil1" d="M1750.61 1063.03c-11.25,44.16 -43.47,74.98 -97.17,63.13 11.24,-30.68 19.53,-6.98 55.01,-71.74 8.46,-0.49 11.28,-1.17 20.34,0.12l21.82 8.49z"/>
  </g>
  <rect class="fil11" x="-0.01" y="-0.02" width="6096" height="5080"/>
 </g>
</svg>
