<!-- Generated by IcoMoon.io -->
<svg version="1.1" xmlns="http://www.w3.org/2000/svg" width="32" height="32" viewBox="0 0 32 32">
<title>home-big</title>
<path d="M21.487 20.712l2.805-0.065c0.002 1.047 0.137 4.528-0.068 5.27l-2.695 0.002-0.042-5.207zM5.276 20.662l2.801-0.003-0.001 5.243-2.73 0.018c-0.204-0.728-0.067-4.236-0.070-5.258zM24.658 24.852l0.011-4.129c0.92-0.17 1.878-0.069 2.812-0.061l0.006 5.262-2.767-0.023-0.062-1.049zM14.848 20.647l2.467 0.011-0.011 3.153-2.416 0.002-0.040-3.166zM12.026 20.647l2.468 0.014-0.009 3.154-2.419-0.001-0.041-3.167zM14.852 9.287l1.174-0.045 0.566-0.016 0.717 0.104 0.005 0.503-0.002 0.677-0.011 1.886-2.45-0.040 0.001-3.071zM12.004 9.306c0.538-0.113 1.99-0.151 2.487 0.028l-0.013 3.060-2.445-0.037-0.029-3.052zM6.759 7.35l0.341 1.286 1.485-0.432 0.003 6.263-7.274 2.448 0.283 1.008c0.134 0.268 0.096 0.18 0.202 0.316l1.495-0.462 0.032 9.489 25.536 0.057 0.042-9.020 1.767-0.041c0.093-1.105-0.23-0.74-1.944-1.364-0.72-0.262-1.466-0.536-2.189-0.753-1.028-0.307-4.35 0.003-5.746-0.129l-0.007-7.767c0.587 0.064 0.861 0.337 1.452 0.336l0.392-1.224c-0.608-0.293-7.696-2.691-7.949-2.686-0.283 0.005-7.345 2.385-7.921 2.674z"></path>
</svg>
