<!-- Generated by IcoMoon.io -->
<svg version="1.1" xmlns="http://www.w3.org/2000/svg" width="32" height="32" viewBox="0 0 32 32">
<title>ico</title>
<path d="M12.814 22.782c-3.316 0.75-2.345 5.745 1.044 5.136 0.353-0.063 0.704-0.222 0.892-0.349 2.569-1.733 0.772-5.4-1.936-4.787z"></path>
<path d="M11.587 17.711c-0.84-2.057-1.536-3.044-1.713-6.159-0.422-7.416 3.753-10.413 5.214-2.217 0.525 2.946 0.156 4.342-0.452 7.376l1.074 0.149c0.748-2.367 2.28-4.976 3.734-6.051 1.196-0.884 5.228-1.971 7.265-0.387 1.295 1.008 0.563 2.176-0.738 2.621-3.306 1.133-2.989 1.489-5.212 3.691-0.971 0.962-1.631 1.137-2.609 1.924 0.241 0.934 1.357 2.382 0.226 4.537-2.053-1.268-3.734-2.208-6.596-1.794-0.475 0.069-0.701 0.169-1.092 0.236-2.087 0.36 0.096-3.332 0.899-3.929z"></path>
</svg>
