<?xml version="1.0" encoding="UTF-8"?>
<!DOCTYPE svg PUBLIC "-//W3C//DTD SVG 1.1//EN" "http://www.w3.org/Graphics/SVG/1.1/DTD/svg11.dtd">
<!-- Creator: Luis Angel Maciel -->
<svg xmlns="http://www.w3.org/2000/svg" xml:space="preserve" width="8.9746mm" height="10.4986mm" version="1.1" style="shape-rendering:geometricPrecision; text-rendering:geometricPrecision; image-rendering:optimizeQuality; fill-rule:evenodd; clip-rule:evenodd"
viewBox="0 0 897.46 1049.86"
 xmlns:xlink="http://www.w3.org/1999/xlink">
 <defs>
  <style type="text/css">
   <![CDATA[
    .fil0 {fill:#FEFEFE}
   ]]>
  </style>
 </defs>
 <g id="Capa_x0020_1">
  <metadata id="LuisAngelMaciel_CorelDraw"/>
  <g id="_2000197076976">
   <path class="fil0" d="M143.93 516.83c5.24,-6.7 8.18,-16.2 11.65,-23.97 40.1,-89.65 149.92,-299.73 205.15,-367.73l19.28 3.72 18.27 118.19c-14.42,19.29 -37.18,36.05 -31.44,83.86 3.2,26.59 23.51,62.97 43.18,73.08 4.58,-5.11 10.21,-12.98 12.07,-17.31 -12.12,-5.5 -12.67,-3.44 -20.91,-12.62 -38.84,-43.27 8.66,-123.32 42.25,-63.82 13.99,24.77 5.09,46.17 4.16,58.2 24.41,-14.5 10.66,8.43 19.96,-22.68l3.1 15.78c38.45,-4.04 34.99,23.55 44.58,22.86 11.27,-5.43 6.79,-19.63 32.65,-25.43l-0.69 -21.06 6.76 20.48c3.21,-7.07 -2.14,-27.42 -1.66,-38.17 0.99,-22 4.92,-22.43 9.67,-36.6 -15.37,-23.92 -19.7,-21.12 -25.31,-32.37l12.56 6.31 2.51 -120.42 14.91 -4.58c18.53,16.56 74.53,105.43 90.44,131.57 8.69,14.3 18.92,31.02 26.89,46.51 8.7,-22.73 -3.39,-40.05 -12.56,-56.58 -9.63,-17.36 -18.13,-32.98 -28.03,-49.23 -9.97,-16.39 -19.42,-31.48 -30.35,-46.92 -4.84,-6.83 -31.38,-42.11 -32.14,-44.91 -3.74,-13.67 2.56,-16.74 -9.72,-29.15 -25.9,-26.18 -66.92,5.67 -49.55,36.7 8.35,14.93 11.68,4.15 4.12,25.34l-31.7 84.05c6.61,3.99 10.07,1.25 12.78,7.88 -6.97,-1.09 -18.28,-2.37 -26.06,-2.7 -3.28,-0.14 -10.06,-0.3 -12.88,1.11l-6.13 7.45c-0.23,0.38 -0.51,1.15 -0.91,1.63 -5.53,-23.73 -46.63,-95.59 -58.78,-121.47 -6.64,-14.14 14.27,-22.91 -0.53,-44.26 -7.05,-10.17 -24.34,-19.49 -41.22,-10.94 -22.43,11.35 -12.35,28.77 -16.25,40.01 -0.88,2.51 -21.54,27.94 -25.62,33.91 -40.48,59.24 -76.1,129.09 -109.12,195.77 -12.99,26.22 -25.42,57.78 -36.2,86.26 -8.39,22.18 -26.62,69.37 -29.18,92.25z"/>
   <path class="fil0" d="M456.09 523.02c-6.48,9.96 -9.61,40.3 -34.73,61.84 -6.25,5.35 -14.41,8.39 -19.45,12.71 -10.54,9.03 -34.69,76.01 -36.01,93.02 28.93,-39.53 84.9,-18.85 89.42,82.46 3.34,74.83 -52.38,105.33 -86.05,70.92 -4.79,-4.9 -8.89,-12.36 -12.17,-14.24 8.43,29.2 25.68,43.89 41.13,64.71 5.24,7.06 2.35,6.73 8.35,13.18 5.94,6.38 17.62,13.12 25.6,17.46 15.96,8.69 25.35,-4.38 47.5,-28.55 10.22,-11.15 27.61,-36.92 32.76,-55.32l107.71 -2.35c4.78,25.52 2.92,37.82 -0.28,61.99 3.36,-2.2 1.51,-0.7 4.28,-3.38 18.43,-17.88 33.73,-56.24 34.89,-83.94 -28.03,-13.8 -58.07,-103.54 -40.88,-146.55 -12.35,-9.97 -103.35,-137.76 -112.77,-152.74 2.63,24.07 45.34,88.14 56.96,154.02 7.82,44.36 23.42,20.56 34.66,72.61 6.74,31.25 0.22,71.43 -25.19,78.16 -29.63,7.85 -49.32,-26.4 -56.15,-48.57 -14.9,-48.34 6.31,-49.9 -2.14,-92.44 -12.64,-63.74 -41.66,-97.75 -57.44,-155z"/>
   <path class="fil0" d="M665.58 794.62c0,23.05 -11.29,27.64 27.3,56.35 10.4,7.74 37.65,30.32 53.42,28.71 27.56,-43.84 -31.24,-166.48 -51.63,-200.13 -15.26,-25.19 -33.38,-45.39 -50.89,-65.06 -11.04,-12.4 -46.01,-45.78 -61.99,-54.45 -33.19,36.27 -9.27,32.2 39.13,103.13 22.96,33.64 44.66,80.3 44.66,131.45z"/>
   <path class="fil0" d="M321.41 828.97c-10.71,-19.56 -38.01,-46.4 -66.84,-104.34 -4.72,-9.47 -13.66,-32.79 -18.46,-38.71 -30.8,37.06 -69.73,144.17 -75.22,198.81 -3.47,34.53 4.17,36.53 34.49,25.89 44.71,-15.71 92.72,-48.33 126.03,-81.65z"/>
   <path class="fil0" d="M391.11 500.86c34.08,18.66 21.76,72.17 -11.83,60.6 -11.07,-3.82 -13.42,-12.89 -12.36,-27.73l3.22 6.87c1.13,3.12 0.49,3.8 2.61,7.86 7.97,15.25 29.54,11.02 32.61,-7.56 4.01,-24.27 -14.77,-42.16 -37.69,-39.57 -47.56,5.37 -50.95,72.92 -7.98,90.27 49.88,20.16 78.23,-30.64 88.28,-63.95 7.79,-25.84 15.96,-80.56 23.27,-97.05 11.15,-25.19 -2.67,-21.43 3.32,-33.2 9.5,-9.83 14.54,-10.73 30.69,-11.95 -8.88,-30.82 -57.57,-23.04 -84.02,12.41 -20.33,27.25 -21.72,65.32 -30.12,103z"/>
   <path class="fil0" d="M208.98 513.35c0.04,83.36 21.16,151.89 53.32,214.19 15.71,30.44 31.38,54.95 50.51,80.52 15.4,20.59 44.65,55.57 63.4,69 -6.44,-13.1 -18.43,-28.07 -26.66,-41.26 -8.56,-13.72 -15.91,-27.19 -24.32,-42.2 -16.24,-29 -28.63,-58.45 -42.34,-90.79 -21.83,-51.52 -43.01,-124.4 -51.23,-183.17 -2.48,-17.71 -5.69,-16.45 6.6,-23.93 4.39,-0.69 37.53,24.97 43.94,29.55 8.67,6.2 35.78,29.27 43,29.94 -2.4,-17.32 -1.35,-24.18 8.92,-41.1l-73.5 -31.71c-20.11,-8.18 -8.26,-4.46 -16.52,-19.96 -15.66,-29.41 -63.65,-7.73 -46.92,25.41 8.82,17.48 11.78,-0.9 11.8,25.51z"/>
   <path class="fil0" d="M654.88 446.79l-16.34 16.25 24.2 2.65c2.94,-6.67 1.83,-5.73 0.44,-12.51 18,6.57 40.72,-1.34 38.67,-25.47 -1.07,-12.6 -10.09,-13.18 -5.49,-25 22.44,-57.53 29.67,-83.28 36.42,-152.67 4.33,-44.44 0.35,-97.44 -8.97,-138.64 -4.6,-20.31 -10.54,-40.3 -17.51,-57.57 -5.14,-12.74 -17.81,-41.56 -26.11,-48.7 5.02,41.72 11.67,62.14 15.34,113.19 5.53,77.14 1.74,204.67 -23.21,277.22 -6.63,19.28 -16.89,6.1 -22.62,26.85 -3,10.87 1.68,18.31 5.18,24.4z"/>
   <path class="fil0" d="M338.46 807.73c17.43,-8.98 5.88,-25.64 12.42,-69.94 3.8,-25.71 8.02,-44.42 15.04,-68.76 3.25,-11.29 6.34,-20.43 10.08,-30.79 3.92,-10.84 10.66,-19.88 4.72,-31.06 -5.45,-10.27 -15.24,-6.55 -27.79,-13.02 -16.07,-8.29 -13.72,-14.3 -22.68,-20.15 -8.88,9.95 -63.24,61.08 -62.6,71.52 0.81,13.25 44.81,111.72 54.9,131.44 5.85,11.44 12.32,20.2 15.91,30.76z"/>
   <path class="fil0" d="M524.44 383.9c67.48,18.78 26.02,26.2 30.37,53.28l13.7 48.7c39.29,114.49 117.24,89.88 116.19,31.75 -1.22,-67.93 -83.85,-59.65 -70.51,-10.98 5.22,19.05 34.88,25.7 37.14,-3.18 0.17,-2.11 -0.09,-1.28 0.22,-3.07 1.02,-5.88 -1.65,0.11 1.44,-4.28 12.37,25.12 -16.27,41.42 -35.17,26.36 -23.64,-18.83 0.2,-42.26 0.2,-60.66 0,-33.65 -9.39,-60.42 -27.44,-79.61 -7.54,-8.01 -18.94,-18.19 -34.7,-18.76 -19.9,-0.74 -24.48,9.96 -31.44,20.45z"/>
   <path class="fil0" d="M394.01 678.72c-17,5 -29.69,17.31 -34.08,35.66 -4.07,17.03 -6.5,43.61 -6.94,60.98 -0.95,37.22 16.74,87.44 57.79,75.75 69.27,-19.72 36.76,-188.14 -16.77,-172.39z"/>
   <path class="fil0" d="M539.18 688.97c-49.24,19.79 -13.23,140.06 31.71,124.91 23.06,-7.78 27.44,-46.85 20.13,-75.84 -5.28,-20.94 -26.24,-59.36 -51.84,-49.07z"/>
   <path class="fil0" d="M504.5 871.8c-8.53,13.26 -15.55,22.14 -25.01,33.08 -8.7,10.06 -22.16,18.84 -29.42,29.17 38.93,10.46 68.65,15.46 109.09,3.23 48.43,-14.64 57.77,-27.82 58.72,-67.1 -25.89,9.14 -44.46,24.71 -87.66,12.56 -10.29,-2.89 -17.31,-8.75 -25.72,-10.94z"/>
   <path class="fil0" d="M368.17 1044.74c28.54,-2.8 74.93,-71.82 80.45,-106.68 -17.58,-5.5 -27.12,-14.3 -40.74,-21.3 -12.85,14.93 -58.42,105.86 -39.71,127.98z"/>
   <path class="fil0" d="M563.05 942.77c4.17,13.7 18.69,37.78 25.99,48.57 8.3,12.27 22.77,38 38.05,40.11 10.63,-34.53 -3.21,-86.13 -15.62,-114.07 -6.96,3.19 -14.05,9.37 -22.03,13.62 -7.86,4.17 -18.98,6.15 -26.39,11.77z"/>
   <path class="fil0" d="M522.74 694.79c5.22,-6.47 7.98,-8.78 15.88,-11.57 -3.86,-58.58 -47.54,-112.91 -63.82,-191.85 -2.08,-10.11 -2.83,-21.1 -5.77,-30.67 -18.53,54.15 -4.18,76.88 14.68,118.6 13.02,28.8 24.97,52.82 31.92,84.06 2.04,9.18 2.62,23.05 7.11,31.43z"/>
   <path class="fil0" d="M544.23 681.88l14.87 2.17c-3.7,-69.89 -59.32,-134.8 -73.38,-220.71 -1.66,-10.14 -1.82,-30.68 -4.84,-37.93 -20.18,19.71 9.92,108.05 19.33,130.89 8.61,20.9 16.21,37.33 25.4,58.28 10.24,23.34 13.21,40.11 18.62,67.3z"/>
   <path class="fil0" d="M517.37 846.21l-9.11 19.19c29.96,26.06 77.29,18.02 109.59,-2.52l-1.82 -18.45 -98.66 1.78z"/>
   <path class="fil0" d="M478.78 398.76c-0.67,18.38 15.18,34.64 26.7,40.52 19.52,9.98 37.24,-5.45 45.06,-15.22 29.13,-36.44 -44.44,-41.88 -71.76,-25.3z"/>
   <path class="fil0" d="M433.85 311.72c0.26,7.81 -4.82,6.83 -12,7.01 3.08,16.67 3.98,31.99 -2.93,44.37 -18.23,-8.4 -7.26,-39.23 -4.31,-48.81 3.11,-10.08 -2.56,-11.6 8.27,-13.54 1.3,-3.56 0.46,-2.24 0.03,-3.94 -36.66,-10.51 -36.32,54.08 -16.4,76.24 26.16,29.08 54.29,-23.21 31.56,-61.53 -2.76,-0.55 -0.36,-1.17 -4.22,0.2z"/>
   <path class="fil0" d="M660.03 806.3c1.79,-39.16 -17.78,-114.73 -39.97,-131.87 -10.87,38.93 20.21,129.13 39.97,131.87z"/>
   <path class="fil0" d="M520.2 523.07c0.19,7.26 33.97,52.84 40.12,58.99 4.82,-5.63 8.61,-14.2 13.4,-20.94 5.44,-7.65 11.04,-13.99 16.26,-19.86 -1.58,-3.93 -13.52,-24.39 -16.78,-28.7 -20.85,6.97 -27.47,9.66 -53,10.51z"/>
   <path class="fil0" d="M748.51 459.75c-0.26,-22.76 -20.04,-84.26 -28.21,-104.2 -10.42,17.29 2.52,33.88 9.14,50.99 6.75,17.46 13.62,36.61 19.07,53.21z"/>
   <path class="fil0" d="M562.47 358.61l9.81 3.35c4.39,-10.86 12.71,-37.95 2.13,-48.2 -7.57,7.83 -1.24,-0.1 -0.96,21.36 0.14,11.01 -0.42,17.03 -7.54,21.54 -4.52,-6.75 -5.74,-16.8 -4.58,-28.08 0.71,-6.85 2.28,-8.48 3.16,-12.23 1.2,-5.17 -1.27,-4.16 0.31,-13.42l8.09 -5.3c-5.33,-6.55 -2.03,-4.93 -9.2,-7.53 -6.21,17.45 -9.93,49.3 -1.22,68.51z"/>
   <path class="fil0" d="M433.85 311.72c-3.23,-9.58 -1.73,-7.34 -10.97,-10.97 -0.29,0.44 -0.83,0.51 -0.95,1.24 -0.01,0.05 -10.17,18.43 6.7,13.43l5.22 -3.7z"/>
   <polygon class="fil0" points="343.29,813.7 350.9,826.72 349.13,806.16 "/>
   <path class="fil0" d="M568.89 313.22c7.71,-2.98 10.04,-7.73 0.02,-10.53 -3.33,6.5 -3.1,4.89 -0.02,10.53z"/>
  </g>
 </g>
</svg>
