<!-- Generated by IcoMoon.io -->
<svg version="1.1" xmlns="http://www.w3.org/2000/svg" width="32" height="32" viewBox="0 0 32 32">
<title>location_pin</title>
<path d="M16 2.688v0q-1.937 0-3.625 0.719t-2.969 2-2 2.969-0.719 3.625q0 1.751 0.469 3.375t1.407 3.063q0.937 1.563 2.093 2.937t2.093 2.937q0.5 0.751 0.844 1.469t0.719 1.531q0.188 0.375 0.375 0.844t0.5 0.812 0.812 0.344v0q0.5 0 0.812-0.344t0.5-0.812 0.375-0.844q0.375-0.812 0.719-1.531t0.844-1.469q0.937-1.5 2.093-2.907t2.093-2.969q0.937-1.437 1.407-3.063t0.469-3.375q0-1.937-0.719-3.625t-2-2.969-2.969-2-3.625-0.719zM16 15.688q-1.375 0-2.344-1t-0.969-2.375 0.969-2.344 2.344-0.969 2.344 0.969 0.969 2.344-0.969 2.375-2.344 1z"></path>
</svg>
