<?xml version="1.0" encoding="UTF-8"?>
<!DOCTYPE svg PUBLIC "-//W3C//DTD SVG 1.1//EN" "http://www.w3.org/Graphics/SVG/1.1/DTD/svg11.dtd">
<!-- Creator: CorelDRAW 2017 -->
<svg xmlns="http://www.w3.org/2000/svg" xml:space="preserve" width="17.0178mm" height="17.0178mm" version="1.1" style="shape-rendering:geometricPrecision; text-rendering:geometricPrecision; image-rendering:optimizeQuality; fill-rule:evenodd; clip-rule:evenodd"
viewBox="0 0 1701.78 1701.78"
 xmlns:xlink="http://www.w3.org/1999/xlink">
 <defs>
  <style type="text/css">
   <![CDATA[
    .fil1 {fill:#E6E7E8}
    .fil0 {fill:#E71D2B}
   ]]>
  </style>
 </defs>
 <g id="Capa_x0020_1">
  <metadata id="CorelCorpID_0Corel-Layer"/>
  <path class="fil0" d="M1093.83 770.59c0.48,-17 17.94,-33.72 28.83,-45.76 59.8,-66.2 59.7,-3.7 66.46,15.75 28.22,-15.19 106.23,-70.64 107.01,1.48 0.5,45.45 -45.91,97.05 -42.82,127.33 65.99,16.5 96.67,-77.14 110.71,-96.72 99.26,-138.49 195.31,-57.08 117.31,18.47 -50.19,48.61 -108.8,26.11 -94.14,86.1 52.25,18.96 78.73,-61.7 113.74,-70.46 -6.78,25.96 -55.89,77.82 -79.53,92.06 -19.62,11.82 -44.66,19.19 -67.77,11.42 -29.15,-9.81 -23.46,-33.27 -26.42,-58.94 -60.91,78.64 -123.26,62.78 -129.34,31.04 -7.34,-38.25 57.78,-97.48 43.85,-156.04 -55.94,-9.42 -95.5,140.9 -117.08,180.76 -21.16,1.98 -44.69,5.98 -64.96,1.84 6.93,-16.33 18.2,-33.82 19.88,-50.79 -28.52,16.88 -47.89,61.53 -93.62,50.45 -29.9,-27.98 -5.25,-69.76 11.86,-98.05 16.45,-27.16 28.7,-67.12 43.5,-89.46l54.06 1.02c-13.74,41.82 -56,93.95 -60.62,141.54 43.38,-8.4 31.05,-35.45 57.8,-52.7 21.09,-13.6 11.03,2.15 27.22,-28.87 9.91,-19.01 13.15,-17.68 12.32,-40.34 -20.6,7.15 -18.85,20.98 -38.25,28.87zm-1000.08 463.02c4.17,35.24 98.45,156.67 126.15,187.28 53.97,59.65 104.19,102.15 171.58,146.45 362.53,238.42 864.93,152.74 1127.41,-188.9 24.54,-31.92 114.58,-162.93 112.72,-196.14 -148.02,-67.62 -599.14,17.25 -769.33,50.74 -175.26,34.49 -415.32,62.89 -594.69,36.93l-173.84 -36.36zm365.32 -592.85c50.4,20.26 90.03,-66.04 83.47,-110.54 -35.61,3.79 -93.52,71.92 -83.47,110.54zm209.19 237.86c60.52,10.43 77.58,-68.96 113.86,-71.01 -22.5,73.47 -161.2,154.25 -173.42,70.89 -4.47,-30.44 14.06,-58.25 20.05,-85.85l-37.33 3.15c-29.27,38.77 -43.25,74.67 -86.03,102.61 -65.72,42.92 -93.34,-17.59 -64.33,-81.49 26.89,-59.24 110.8,-147.61 157.29,-109.11 23.21,19.22 2.66,48.69 1.52,71.71l39.03 -1.33c32.81,-30.11 46.66,-67.65 98.68,-77.81 84.85,-16.54 55.22,87.87 8.32,74.27 -17.18,-28.15 14.36,-35.16 28.31,-48.64 -46.94,-23.34 -115.85,110.15 -105.95,152.61zm252.58 -20.28c37.94,-1.01 38.73,-41.18 65.33,-52.8 0.01,38.06 -64.75,97.57 -91.26,101.08 -27.39,3.63 -27.71,-9.37 -39.25,-27.04 -19.4,14.99 -56.58,52.63 -81.47,9.09 -27.79,-48.56 50.54,-129.16 81.98,-159.54 29.56,-28.56 51.59,-38.64 90.29,-21.5 24.26,-8.02 19.12,-15.41 55,-7.99 -7.59,53.02 -70.75,109.38 -80.62,158.7zm155.12 -214.82c12.68,-13.37 27.86,-17.89 46.34,-12.59 21.41,37.17 -6.76,59.38 -43.42,47.96 -6.88,-14.47 -4.99,-19.29 -2.92,-35.37zm-753.08 175.56c-15.29,-80.93 83.6,-160.87 124.16,-110.44 36.16,44.94 -32.21,144.43 -71.26,171.95 -54.24,38.25 -159.7,45.81 -165.56,-39.36 -8.05,-117.16 107.38,-259.95 201.18,-320.17 91.75,-58.89 132.16,-20.26 147.04,-21.43 12.26,-0.95 32.15,-10.52 52.57,-11.75 86.1,-5.15 126.83,64.86 186.49,75.88 97.02,17.91 147.16,-64.11 183.52,-70.24 -0.35,32.98 -49.19,66.53 -75.78,82.87 -169.19,103.87 -240.04,-78.62 -340.76,-56.61 -9.07,44.38 8.25,54.13 -27.28,101.24 -49.26,65.32 -146.78,55.33 -75.13,-49.36 16.71,-24.42 56.44,-49.5 63.15,-59.9 -88.66,-20.4 -194.82,158.04 -225.6,228.43 -23.07,52.75 -39.38,164.03 54.28,126.88 41.29,-16.37 105.17,-96.11 77.85,-143.05 -31.35,-11.65 -42.95,27.79 -51.04,50.76 -6.51,18.43 -40.14,38.12 -57.83,44.3zm1343.41 268.62c33.82,-50.26 37.62,-262.27 30.9,-325.33 -10.24,-96.23 -38.22,-198.11 -81.55,-284.86 -273.46,-547.43 -997.92,-648.65 -1410.45,-179.7 -165.82,188.48 -230.01,443.16 -193.4,689.99 4.31,29.1 21.31,30.57 46.15,45.26 303.02,179.18 633.14,214.03 981.58,159.47 148.59,-23.27 420.23,-99.48 534.67,-104.28 21.54,-0.91 77.64,2.98 92.1,-0.55zm-1174.98 -225.14c37.63,9.58 69.78,-38.09 81.46,-68.8 -9.07,-5.93 -13.9,-5.36 -23.35,-11.29 -10.68,-6.72 -9.91,-10.88 -18.67,-18.06 -16.73,20.97 -42.5,70.31 -39.44,98.15zm90.92 -84.96c10.1,-16.14 16.01,-34.91 8.15,-53.15 -38.52,-20.84 -74.09,52.21 -8.15,53.15zm256.55 85.75c22.21,3.34 45.17,-41.88 57.36,-59.85 14.8,-21.8 46.73,-59.85 40.71,-85.42 -39.16,-0.86 -116.74,109.14 -98.07,145.27zm563.03 -42.98c39.11,-5.42 93.67,-58.51 80.57,-102.67 -30.03,-0.85 -77.16,73.85 -80.57,102.67z"/>
  <path class="fil1" d="M459.07 640.76c-10.05,-38.62 47.86,-106.75 83.47,-110.54 6.56,44.5 -33.07,130.8 -83.47,110.54zm616.89 2.76c-2.07,16.08 -3.96,20.9 2.92,35.37 36.66,11.42 64.83,-10.79 43.42,-47.96 -18.48,-5.3 -33.66,-0.78 -46.34,12.59zm-237.18 219.83c-18.67,-36.13 58.91,-146.13 98.07,-145.27 6.02,25.57 -25.91,63.62 -40.71,85.42 -12.19,17.97 -35.15,63.19 -57.36,59.85zm82.06 -5.01c9.87,-49.32 73.03,-105.68 80.62,-158.7 -35.88,-7.42 -30.74,-0.03 -55,7.99 -38.7,-17.14 -60.73,-7.06 -90.29,21.5 -31.44,30.38 -109.77,110.98 -81.98,159.54 24.89,43.54 62.07,5.9 81.47,-9.09 11.54,17.67 11.86,30.67 39.25,27.04 26.51,-3.51 91.27,-63.02 91.26,-101.08 -26.6,11.62 -27.39,51.79 -65.33,52.8zm-429.53 4.22c-3.06,-27.84 22.71,-77.18 39.44,-98.15 8.76,7.18 7.99,11.34 18.67,18.06 9.45,5.93 14.28,5.36 23.35,11.29 -11.68,30.71 -43.83,78.38 -81.46,68.8zm90.92 -84.96c-65.94,-0.94 -30.37,-73.99 8.15,-53.15 7.86,18.24 1.95,37.01 -8.15,53.15zm86.03 101.02c-9.9,-42.46 59.01,-175.95 105.95,-152.61 -13.95,13.48 -45.49,20.49 -28.31,48.64 46.9,13.6 76.53,-90.81 -8.32,-74.27 -52.02,10.16 -65.87,47.7 -98.68,77.81l-39.03 1.33c1.14,-23.02 21.69,-52.49 -1.52,-71.71 -46.49,-38.5 -130.4,49.87 -157.29,109.11 -29.01,63.9 -1.39,124.41 64.33,81.49 42.78,-27.94 56.76,-63.84 86.03,-102.61l37.33 -3.15c-5.99,27.6 -24.52,55.41 -20.05,85.85 12.22,83.36 150.92,2.58 173.42,-70.89 -36.28,2.05 -53.34,81.44 -113.86,71.01zm733.55 -58.25c3.41,-28.82 50.54,-103.52 80.57,-102.67 13.1,44.16 -41.46,97.25 -80.57,102.67zm-307.98 -49.78c19.4,-7.89 17.65,-21.72 38.25,-28.87 0.83,22.66 -2.41,21.33 -12.32,40.34 -16.19,31.02 -6.13,15.27 -27.22,28.87 -26.75,17.25 -14.42,44.3 -57.8,52.7 4.62,-47.59 46.88,-99.72 60.62,-141.54l-54.06 -1.02c-14.8,22.34 -27.05,62.3 -43.5,89.46 -17.11,28.29 -41.76,70.07 -11.86,98.05 45.73,11.08 65.1,-33.57 93.62,-50.45 -1.68,16.97 -12.95,34.46 -19.88,50.79 20.27,4.14 43.8,0.14 64.96,-1.84 21.58,-39.86 61.14,-190.18 117.08,-180.76 13.93,58.56 -51.19,117.79 -43.85,156.04 6.08,31.74 68.43,47.6 129.34,-31.04 2.96,25.67 -2.73,49.13 26.42,58.94 23.11,7.77 48.15,0.4 67.77,-11.42 23.64,-14.24 72.75,-66.1 79.53,-92.06 -35.01,8.76 -61.49,89.42 -113.74,70.46 -14.66,-59.99 43.95,-37.49 94.14,-86.1 78,-75.55 -18.05,-156.96 -117.31,-18.47 -14.04,19.58 -44.72,113.22 -110.71,96.72 -3.09,-30.28 43.32,-81.88 42.82,-127.33 -0.78,-72.12 -78.79,-16.67 -107.01,-1.48 -6.76,-19.45 -6.66,-81.95 -66.46,-15.75 -10.89,12.04 -28.35,28.76 -28.83,45.76zm-770.95 48.49c17.69,-6.18 51.32,-25.87 57.83,-44.3 8.09,-22.97 19.69,-62.41 51.04,-50.76 27.32,46.94 -36.56,126.68 -77.85,143.05 -93.66,37.15 -77.35,-74.13 -54.28,-126.88 30.78,-70.39 136.94,-248.83 225.6,-228.43 -6.71,10.4 -46.44,35.48 -63.15,59.9 -71.65,104.69 25.87,114.68 75.13,49.36 35.53,-47.11 18.21,-56.86 27.28,-101.24 100.72,-22.01 171.57,160.48 340.76,56.61 26.59,-16.34 75.43,-49.89 75.78,-82.87 -36.36,6.13 -86.5,88.15 -183.52,70.24 -59.66,-11.02 -100.39,-81.03 -186.49,-75.88 -20.42,1.23 -40.31,10.8 -52.57,11.75 -14.88,1.17 -55.29,-37.46 -147.04,21.43 -93.8,60.22 -209.23,203.01 -201.18,320.17 5.86,85.17 111.32,77.61 165.56,39.36 39.05,-27.52 107.42,-127.01 71.26,-171.95 -40.56,-50.43 -139.45,29.51 -124.16,110.44z"/>
 </g>
</svg>
