<?xml version="1.0" encoding="UTF-8"?>
<!DOCTYPE svg PUBLIC "-//W3C//DTD SVG 1.1//EN" "http://www.w3.org/Graphics/SVG/1.1/DTD/svg11.dtd">
<!-- Creator: CorelDRAW 2017 -->
<svg xmlns="http://www.w3.org/2000/svg" xml:space="preserve" width="8.4666mm" height="8.4666mm" version="1.1" style="shape-rendering:geometricPrecision; text-rendering:geometricPrecision; image-rendering:optimizeQuality; fill-rule:evenodd; clip-rule:evenodd"
viewBox="0 0 846.66 846.66"
 xmlns:xlink="http://www.w3.org/1999/xlink">
 <defs>
  <style type="text/css">
   <![CDATA[
    .fil0 {fill:none}
    .fil1 {fill:#373435}
   ]]>
  </style>
 </defs>
 <g id="Capa_x0020_1">
  <metadata id="CorelCorpID_0Corel-Layer"/>
  <rect class="fil0" width="846.66" height="846.66"/>
  <rect class="fil0" width="846.66" height="846.66"/>
  <path class="fil1" d="M671.63 492.13c-44.77,105.28 -209.15,92.1 -203.28,-17.7 2.78,-51.61 69.37,-63.75 114.06,-68.78 64.61,-7.25 119.83,14.53 89.22,86.48zm-500.64 -11.83c-18.68,-72.51 40.56,-84.84 100.91,-74.29 191.76,33.54 92.05,171.02 3.7,156.2 -45.43,-7.59 -95.3,-45.69 -104.62,-81.92l0.01 0.01zm518.02 -425.7c-173.73,31.35 -342.26,25.61 -515.21,1.4 -56.99,-7.99 -99.48,22.36 -101.2,81.76 -4.6,160.18 22.52,332.81 69.82,480.34 23.47,73.13 20.77,64.35 78.82,104.27 140.34,96.57 265.26,91.7 406.39,-0.71 56.86,-37.23 56.75,-36.8 77.81,-105.6 49.95,-162.98 70.09,-304.66 69.08,-478.25 -0.34,-59.32 -50.3,-89.56 -85.54,-83.21l0.03 0z"/>
 </g>
</svg>
