<?xml version="1.0" encoding="UTF-8"?>
<!DOCTYPE svg PUBLIC "-//W3C//DTD SVG 1.1//EN" "http://www.w3.org/Graphics/SVG/1.1/DTD/svg11.dtd">
<!-- Creator: CorelDRAW 2017 -->
<svg xmlns="http://www.w3.org/2000/svg" xml:space="preserve" width="8.4666mm" height="4.2332mm" version="1.1" style="shape-rendering:geometricPrecision; text-rendering:geometricPrecision; image-rendering:optimizeQuality; fill-rule:evenodd; clip-rule:evenodd"
viewBox="0 0 846.66 423.32"
 xmlns:xlink="http://www.w3.org/1999/xlink">
 <defs>
  <style type="text/css">
   <![CDATA[
    .fil0 {fill:none}
    .fil1 {fill:#FCB83B}
   ]]>
  </style>
 </defs>
 <g id="Capa_x0020_1">
  <metadata id="CorelCorpID_0Corel-Layer"/>
  <rect class="fil0" y="-0" width="846.66" height="423.33"/>
  <g id="_2915792705008">
   <path class="fil1" d="M686.02 210.47c32.24,-11.48 38.45,37.95 10.84,45.75 -30.77,8.69 -40.61,-35.15 -10.84,-45.75zm71.54 -3.8c1.28,-47.84 23.32,-72.09 -0.95,-72.54 -8.38,-0.15 -22.47,-1.62 -28.43,1.89 -7.21,7.18 -4.95,27.73 -9.14,39.05 -10.71,-0.29 -15.18,-4.56 -29.5,-2.89 -8.45,1 -15.84,3.56 -23.41,7.83 -15.76,8.86 -20.35,17.14 -29.33,32.31 -2.26,-25.34 -7.33,-34.94 -30.71,-41.12 -19.9,-5.26 -42.82,1.76 -55.47,11.89 -14.68,11.74 -17.96,27.83 -21.77,50.14 -1.73,10.16 -10.95,52.35 -7.88,58.87 5.81,3.06 29.98,3 35.87,-0.1 5.11,-5.21 9.44,-74.3 17.83,-83.32 5.89,-6.34 16,-7.66 22.46,-0.68 3.89,18.39 -14.56,69.86 -10.02,85.23 7.79,2.15 27.34,1.99 35.24,0.12 4.61,-7.4 6.26,-34.91 9.53,-44.73 4.05,6.61 4.7,20.4 17.77,31.93 31.19,27.5 79.75,12.03 95.83,-26.21 0.17,0.35 0.32,0.87 0.37,1.12 1.18,5.77 0.91,3.08 -1.86,18.15 -1.26,6.82 -3.98,13.5 0.41,18.27 5.48,5.14 29.47,3.68 36.36,1.3 8.72,-5.21 9.18,-61.39 17.29,-73.26 4.88,-7.14 12.26,-5.95 21.56,-8.19 4.02,-5.75 9.8,-33.2 5.93,-40.05 -8.66,-7.9 -33.59,2.49 -41.69,7.48 -16.37,10.11 -16.93,16.66 -24.54,25.74 -0.17,0.21 -0.73,1.15 -0.86,0.89 -0.13,-0.27 -0.58,0.61 -0.89,0.88z"/>
   <path class="fil1" d="M178.32 229.83c-11.83,27.83 -55.29,24.35 -53.74,-4.68 0.73,-13.65 18.34,-16.85 30.15,-18.18 17.08,-1.92 31.68,3.84 23.59,22.86zm-132.35 -3.12c-4.93,-19.17 10.72,-22.42 26.68,-19.63 50.69,8.86 24.33,45.2 0.98,41.29 -12.01,-2.02 -25.19,-12.08 -27.66,-21.66zm136.94 -112.53c-45.92,8.29 -90.47,6.77 -136.19,0.37 -15.07,-2.11 -26.3,5.91 -26.75,21.61 -1.22,42.34 5.95,87.97 18.46,126.97 6.2,19.34 5.49,17.01 20.83,27.57 37.1,25.52 70.12,24.24 107.43,-0.19 15.03,-9.85 15,-9.73 20.57,-27.92 13.2,-43.08 18.53,-80.53 18.26,-126.42 -0.09,-15.68 -13.29,-23.68 -22.61,-21.99z"/>
   <path class="fil1" d="M340.8 175.67c2.71,-6.1 11.71,-27.9 11.11,-35.76 -11.14,-7.86 -36.19,-8.5 -51.41,-4.16 -89.6,25.53 -73.32,156.6 19.27,158.61 49.84,1.09 63.85,-32.42 75,-44.43 -1.34,31.6 -16.16,44.39 7.67,44.46 34.29,0.09 27.63,7.41 37.17,-52.5 5.67,-35.62 11.16,-24.62 28.45,-30.66 2.93,-7.44 8.74,-32.38 5.02,-39.54 -9.09,-7.89 -36.64,3.87 -44.54,9.35 -18.97,13.15 -18,22.39 -26.1,31.76 -1.42,-19.02 -4.75,-27.31 -10.96,-41.9 -8.15,-0.97 -72.12,22.6 -78.72,27.74 -0.59,8.17 8.05,29.77 11.5,35.72 10.67,0.42 23.67,-7.97 35.14,-9.93 -6.8,34.85 -55.87,39.43 -73.22,7.79 -8.79,-16.03 -4.03,-35.03 6.87,-46.25 18.27,-18.81 35.57,-9.43 47.75,-10.3z"/>
   <path class="fil1" d="M470.39 292.98c6.84,2.46 19.74,1.84 27.36,1.55 11.75,-0.45 10.07,-4.42 11.77,-15.23l15.28 -91.17c1.86,-11.01 5.11,-15.81 -8.35,-15.96 -7.92,-0.09 -18.76,-0.85 -25.43,0.9 -4.44,2.33 -22.95,112.23 -20.63,119.91z"/>
  </g>
 </g>
</svg>
