<?xml version="1.0" encoding="UTF-8"?>
<!DOCTYPE svg PUBLIC "-//W3C//DTD SVG 1.1//EN" "http://www.w3.org/Graphics/SVG/1.1/DTD/svg11.dtd">
<!-- Creator: CorelDRAW 2017 -->
<svg xmlns="http://www.w3.org/2000/svg" xml:space="preserve" width="12.7846mm" height="4.2332mm" version="1.1" style="shape-rendering:geometricPrecision; text-rendering:geometricPrecision; image-rendering:optimizeQuality; fill-rule:evenodd; clip-rule:evenodd"
viewBox="0 0 1278.46 423.32"
 xmlns:xlink="http://www.w3.org/1999/xlink">
 <defs>
  <style type="text/css">
   <![CDATA[
    .fil0 {fill:none}
    .fil1 {fill:#D2D3D5;fill-opacity:0.501961}
    .fil8 {fill:#BDBFC1;fill-opacity:0.501961}
    .fil3 {fill:#004DFD;fill-opacity:0.501961}
    .fil7 {fill:#008125;fill-opacity:0.501961}
    .fil6 {fill:#760789;fill-opacity:0.501961}
    .fil2 {fill:#E8443B;fill-opacity:0.501961}
    .fil4 {fill:#FEED01;fill-opacity:0.501961}
    .fil5 {fill:#FF8B00;fill-opacity:0.501961}
   ]]>
  </style>
 </defs>
 <g id="Capa_x0020_1">
  <metadata id="CorelCorpID_0Corel-Layer"/>
  <rect class="fil0" x="-0.24" y="-1.93" width="1278.93" height="427.16"/>
  <path class="fil1" d="M62.3 241.25c-17.72,-32.16 -31.04,-47.06 -39.87,-97.81 -21.07,-120.92 41.74,-178.12 81.33,-46.35 14.22,47.34 10.85,70.99 6.64,121.93l17.89 0.41c7.76,-40.29 27.96,-86.02 49.76,-106.45 17.94,-16.8 82.05,-42.34 118.51,-20.19 23.19,14.06 13.39,34.62 -7.09,44.42 -52.14,24.91 -46.23,30.16 -78.5,70.54 -14.1,17.64 -24.61,21.77 -39.16,36.58 5.75,14.85 26.81,36.49 12.34,74.03 -36.12,-16.9 -65.49,-29.12 -111.71,-16.85 -7.68,2.05 -11.18,4.13 -17.49,5.96 -33.58,9.88 -4.79,-54.9 7.25,-66.2l0.1 -0.02z"/>
  <path class="fil1" d="M98.97 335.23c-36.8,12.93 -19.11,68.58 18.68,57.15 3.93,-1.21 7.71,-3.47 9.71,-5.17 26.99,-23.14 1.63,-62.57 -28.41,-52.01l0.02 0.03z"/>
  <path class="fil1" d="M332.82 355.43l-29.95 -41.88 -31 41.88 -43.16 0 52.56 -68.84 -50.81 -67.77 44.42 0 28.95 39.87 29.7 -39.87 42.16 0 -50.77 66.78 52.82 69.83 -44.96 0 0.04 0zm51.56 -136.61l39.62 0 0 136.61 -39.62 0 0 -136.61zm19.81 -19.06c-7.3,0 -13.22,-2.13 -17.76,-6.34 -4.54,-4.21 -6.85,-9.48 -6.85,-15.72 0,-6.24 2.31,-11.51 6.85,-15.72 4.58,-4.21 10.51,-6.34 17.76,-6.34 7.26,0 13.23,2.05 17.77,6.09 4.59,4.05 6.84,9.13 6.84,15.23 0,6.59 -2.3,12.06 -6.84,16.4 -4.54,4.33 -10.51,6.46 -17.77,6.46l0 -0.06zm43.96 19.06l39.63 0 0 136.61 -39.63 0 0 -136.61zm19.82 -19.06c-7.3,0 -13.23,-2.13 -17.77,-6.34 -4.54,-4.21 -6.84,-9.48 -6.84,-15.72 0,-6.24 2.3,-11.51 6.84,-15.72 4.59,-4.21 10.51,-6.34 17.77,-6.34 7.25,0 13.22,2.05 17.76,6.09 4.59,4.05 6.85,9.13 6.85,15.23 0,6.59 -2.3,12.06 -6.85,16.4 -4.54,4.33 -10.51,6.46 -17.76,6.46l0 -0.06zm124.72 17.01c12.68,0 24.23,2.91 34.67,8.76 10.44,5.85 18.55,14.07 24.48,24.61 5.93,10.6 8.89,22.91 8.89,36.96 0,14.05 -2.96,26.36 -8.89,36.95 -5.93,10.6 -14.09,18.78 -24.48,24.61 -10.39,5.84 -21.98,8.77 -34.67,8.77 -18.78,0 -33.08,-5.93 -42.93,-17.77l0 15.72 -37.82 0 0 -188.42 39.62 0 0 66.28c9.96,-11.02 23.69,-16.52 41.13,-16.52l0 0.05zm-6.84 108.17c10.13,0 18.47,-3.42 25.03,-10.31 6.56,-6.89 9.76,-16.07 9.76,-27.58 0,-11.51 -3.25,-20.68 -9.76,-27.53 -6.51,-6.84 -14.85,-10.31 -25.03,-10.31 -10.19,0 -18.48,3.43 -25.04,10.31 -6.56,6.89 -9.76,16.07 -9.76,27.53 0,11.51 3.25,20.69 9.76,27.58 6.51,6.89 14.85,10.31 25.04,10.31zm157.47 0.74c7.12,0 13.43,-1.04 18.93,-3.17 5.5,-2.13 10.64,-5.47 15.36,-10.01l21.06 22.86c-12.85,14.72 -31.66,22.1 -56.36,22.1 -15.39,0 -29.04,-3.01 -40.88,-9.02 -11.84,-6 -20.99,-14.34 -27.4,-25.03 -6.42,-10.68 -9.64,-22.78 -9.64,-36.3 0,-13.38 3.17,-25.44 9.51,-36.16 6.34,-10.72 15.06,-19.14 26.15,-25.15 11.1,-6.01 23.57,-9.02 37.46,-9.02 13.03,0 24.91,2.76 35.54,8.26 10.63,5.51 19.19,13.48 25.52,23.86 6.34,10.42 9.51,22.73 9.51,36.95l-101.07 19.57c2.88,6.76 7.42,11.84 13.6,15.23 6.18,3.39 13.77,5.09 22.74,5.09l-0.03 -0.06zm-5.84 -78.96c-9.96,0 -18.1,3.22 -24.36,9.64 -6.25,6.41 -9.55,15.3 -9.93,26.66l66.53 -12.93c-1.87,-7.13 -5.67,-12.77 -11.43,-17.03 -5.75,-4.26 -12.67,-6.34 -20.81,-6.34zm122.42 -9.88c4.76,-6.59 11.13,-11.61 19.19,-14.98 8.06,-3.37 17.31,-5.09 27.83,-5.09l0 36.57c-4.39,-0.33 -7.38,-0.5 -8.89,-0.5 -11.36,0 -20.23,3.17 -26.66,9.51 -6.44,6.33 -9.64,15.84 -9.64,28.56l0 64.49 -39.62 0.03 0 -136.61 37.84 0 0 18.02 -0.05 0z"/>
  <path class="fil2" d="M913.13 366.31c4.33,0 7.83,3.5 7.83,7.83 0,4.34 -3.5,7.88 -7.83,7.88 -4.34,0 -7.88,-3.5 -7.88,-7.88 0,-4.33 3.5,-7.83 7.88,-7.83z"/>
  <path class="fil3" d="M994.73 366.86c4.34,0 7.84,3.5 7.84,7.88 0,4.38 -3.5,7.84 -7.84,7.84 -4.33,0 -7.88,-3.5 -7.88,-7.84 0,-4.33 3.5,-7.88 7.88,-7.88z"/>
  <path class="fil4" d="M954.94 366.31c4.34,0 7.88,3.5 7.88,7.83 0,4.34 -3.5,7.88 -7.88,7.88 -4.38,0 -7.84,-3.5 -7.84,-7.88 0,-4.33 3.5,-7.83 7.84,-7.83z"/>
  <path class="fil5" d="M932.79 366.23c4.33,0 7.88,3.5 7.88,7.83 0,4.34 -3.5,7.89 -7.88,7.89 -4.34,0 -7.84,-3.5 -7.84,-7.89 0,-4.38 3.5,-7.83 7.84,-7.83z"/>
  <path class="fil6" d="M1014.38 366.78c4.33,0 7.83,3.5 7.83,7.88 0,4.38 -3.5,7.84 -7.83,7.84 -4.34,0 -7.89,-3.5 -7.89,-7.84 0,-4.33 3.5,-7.88 7.89,-7.88z"/>
  <path class="fil7" d="M974.58 366.23c4.34,0 7.84,3.5 7.84,7.83 0,4.34 -3.5,7.89 -7.84,7.89 -4.33,0 -7.88,-3.5 -7.88,-7.89 0,-4.38 3.5,-7.83 7.88,-7.83z"/>
  <path class="fil8" d="M934.92 353.25c-1.75,1.59 -3.88,2.76 -6.42,3.6 -2.54,0.83 -5.17,1.24 -7.96,1.24 -6.47,0 -11.43,-1.75 -14.93,-5.22 -3.5,-3.46 -5.22,-8.42 -5.22,-14.8l0 -64.53 9.29 0 0 15.06 20.81 0 0 7.83 -20.81 0.02 0 41.13c0,4.08 1.01,7.22 3.01,9.35 2,2.13 4.92,3.22 8.76,3.22 4.18,0 7.6,-1.17 10.22,-3.55l3.25 6.67 0 -0.02zm19.77 -51.17c2.17,-4.64 5.42,-8.14 9.76,-10.47 4.33,-2.34 9.68,-3.55 16.01,-3.55l0 9.05 -2.2 -0.13c-7.26,0 -12.93,2.21 -17.03,6.67 -4.1,4.46 -6.18,10.68 -6.18,18.73l0 35.08 -9.3 0.02 0 -68.87 8.89 -0.01 0 13.48 0.05 0zm98.69 -13.51l0 68.86 -8.89 0 0 -13.61c-2.79,4.64 -6.46,8.19 -11.05,10.6 -4.59,2.41 -9.76,3.67 -15.52,3.67 -6.46,0 -12.31,-1.5 -17.56,-4.46 -5.25,-2.96 -9.35,-7.13 -12.31,-12.42 -2.97,-5.35 -4.46,-11.39 -4.46,-18.2 0,-6.81 1.49,-12.89 4.46,-18.19 2.96,-5.34 7.05,-9.48 12.31,-12.39 5.27,-2.92 11.1,-4.39 17.56,-4.39 5.6,0 10.65,1.17 15.14,3.47 4.49,2.31 8.18,5.71 11.05,10.14l0 -13.1 9.3 0.02 -0.03 0zm-34.72 61.26c4.8,0 9.13,-1.12 13.03,-3.34 3.89,-2.22 6.92,-5.38 9.17,-9.51 2.21,-4.08 3.35,-8.76 3.35,-14.01 0,-5.25 -1.12,-9.94 -3.35,-14.02 -2.2,-4.08 -5.29,-7.25 -9.17,-9.51 -3.88,-2.25 -8.22,-3.34 -13.03,-3.34 -4.88,0 -9.25,1.12 -13.13,3.34 -3.88,2.23 -6.92,5.38 -9.17,9.51 -2.21,4.08 -3.35,8.77 -3.35,14.02 0,5.25 1.12,9.93 3.35,14.01 2.2,4.09 5.29,7.25 9.17,9.51 3.88,2.25 8.26,3.34 13.13,3.34zm112.48 -61.26l-30.67 68.86 -9.55 0 -30.49 -68.86 9.68 0 25.78 58.64 26.07 -58.64 9.18 0zm34.52 61.26c4.26,0 8.22,-0.76 11.84,-2.3 3.63,-1.55 6.72,-3.75 9.23,-6.76l5.25 6c-3.04,3.68 -6.84,6.47 -11.38,8.39 -4.55,1.92 -9.56,2.88 -15.06,2.88 -7.05,0 -13.35,-1.49 -18.86,-4.5 -5.5,-3.02 -9.76,-7.18 -12.85,-12.52 -3.04,-5.35 -4.58,-11.35 -4.58,-18.07 0,-6.72 1.46,-12.72 4.38,-18.07 2.92,-5.34 6.97,-9.47 12.09,-12.42 5.13,-2.95 11.02,-4.46 17.56,-4.46 6.09,0 11.64,1.42 16.56,4.18 4.92,2.75 8.84,6.66 11.76,11.63 2.92,4.97 4.46,10.64 4.63,17.03l-56.56 11.02c1.75,5.59 4.92,9.96 9.5,13.13 4.59,3.17 10.06,4.76 16.43,4.76l0.06 0.08zm-2.33 -53.81c-4.79,0 -9.1,1.12 -12.89,3.34 -3.8,2.23 -6.77,5.35 -8.9,9.31 -2.13,3.95 -3.21,8.51 -3.21,13.68 0,1.29 0.04,2.26 0.12,2.89l48.56 -9.43c-1.04,-5.76 -3.7,-10.52 -7.96,-14.19 -4.26,-3.67 -9.51,-5.6 -15.72,-5.6zm65.33 62.07c-6.21,0 -10.97,-1.75 -14.34,-5.22 -3.38,-3.46 -5.05,-8.34 -5.05,-14.52l0 -78.04 9.29 0 0 77.26c0,4.08 0.96,7.22 2.88,9.34 1.93,2.13 4.8,3.22 8.64,3.22 2.42,0 4.54,-0.38 6.31,-1.17l0.66 7.71c-2.71,0.97 -5.5,1.47 -8.39,1.47l0 -0.05z"/>
 </g>
</svg>
