<?xml version="1.0" encoding="UTF-8"?>
<!DOCTYPE svg PUBLIC "-//W3C//DTD SVG 1.1//EN" "http://www.w3.org/Graphics/SVG/1.1/DTD/svg11.dtd">
<!-- Creator: CorelDRAW 2017 -->
<svg xmlns="http://www.w3.org/2000/svg" xml:space="preserve" width="8.4666mm" height="8.4666mm" version="1.1" style="shape-rendering:geometricPrecision; text-rendering:geometricPrecision; image-rendering:optimizeQuality; fill-rule:evenodd; clip-rule:evenodd"
viewBox="0 0 846.66 846.66"
 xmlns:xlink="http://www.w3.org/1999/xlink">
 <defs>
  <style type="text/css">
   <![CDATA[
    .fil0 {fill:none}
    .fil1 {fill:#373435}
   ]]>
  </style>
 </defs>
 <g id="Capa_x0020_1">
  <metadata id="CorelCorpID_0Corel-Layer"/>
  <rect class="fil0" width="846.66" height="846.66"/>
  <rect class="fil0" width="846.66" height="846.66"/>
  <g id="_2915791178432">
   <path class="fil1" d="M756.99 399.86c0,88.23 -4.84,118.26 -45.24,193 -46.36,85.75 -162.08,164.41 -278.74,164.41 -83.86,0 -141.62,-17.09 -207.69,-63.74 -43.5,-30.72 -87.34,-83.58 -109.62,-136.92 -25.93,-62.1 -36.67,-129.99 -19.39,-208.27 7.78,-35.22 19.55,-59.58 33.92,-88 9.45,-18.73 24.02,-38.31 37.57,-53.84 84.16,-96.49 226.38,-155.6 380.75,-94.06 61.04,24.34 100.65,57.89 140.1,106.42 35.51,43.68 68.34,121.92 68.34,180.95l0 0.05zm-708.87 2.78c0,71.85 4.84,119.71 35.96,182.9 10.19,20.66 20.48,39.16 34.03,57.39 139.07,187.06 407.9,208.86 566.22,49.93 65.22,-65.48 114.22,-154.65 114.22,-251.43 0,-70.13 -5.21,-116.3 -35.03,-178.27 -37.65,-78.26 -100.65,-141.13 -178.14,-179.18 -98.21,-48.21 -223.32,-48.42 -322.23,-0.93 -27.81,13.36 -58.08,31.96 -81.31,51.65l-44.45 44.19c-46.83,50.27 -89.27,151.16 -89.27,223.76l0 -0.01z"/>
   <path class="fil1" d="M438.72 530.24c0,38.07 6.93,49.87 -19.36,49.87 -14.98,0 -11.09,-33.87 -11.09,-49.87 -40.53,-21.46 -33.31,-80.35 22.14,-80.35 44.53,0 52.84,76.65 8.31,80.35zm66.46 -135.75l-171.68 0 0 -30.48c0,-46.46 36.12,-77.58 83.08,-77.58 69.13,0 96.91,28.65 96.91,99.75 0,6.38 -1.93,8.31 -8.31,8.31zm-251.98 33.25c0,41.83 -4.18,76.7 16.7,113.51 7.99,14.1 21.19,33.18 34.26,43.29 42.62,32.91 67.07,39.9 129,39.9 87.58,0 160.6,-67.68 160.6,-155.15 0,-74.76 -2.78,-40.19 -14.74,-71.14 -7.83,-20.32 10.74,-55.38 -27.25,-114.01 -47.31,-73 -188.9,-90.86 -255.92,-2.12 -10.8,14.31 -25.06,45.43 -26.11,68.1 -0.66,14.53 2.59,32.73 -1.75,45.35 -4.18,12.14 -14.82,17.44 -14.82,32.27l0.03 0z"/>
  </g>
 </g>
</svg>
