<?xml version="1.0" encoding="UTF-8"?>
<!DOCTYPE svg PUBLIC "-//W3C//DTD SVG 1.1//EN" "http://www.w3.org/Graphics/SVG/1.1/DTD/svg11.dtd">
<!-- Creator: CorelDRAW 2017 -->
<svg xmlns="http://www.w3.org/2000/svg" xml:space="preserve" width="8.4666mm" height="8.4666mm" version="1.1" style="shape-rendering:geometricPrecision; text-rendering:geometricPrecision; image-rendering:optimizeQuality; fill-rule:evenodd; clip-rule:evenodd"
viewBox="0 0 846.66 846.66"
 xmlns:xlink="http://www.w3.org/1999/xlink">
 <defs>
  <style type="text/css">
   <![CDATA[
    .fil0 {fill:none}
    .fil1 {fill:#373435}
   ]]>
  </style>
 </defs>
 <g id="Capa_x0020_1">
  <metadata id="CorelCorpID_0Corel-Layer"/>
  <rect class="fil0" width="846.66" height="846.66"/>
  <rect class="fil0" width="846.66" height="846.66"/>
  <path class="fil1" d="M92.73 544.45c2.22,5.9 -3.73,1.61 4.95,10.45 9.87,10.08 43.05,33.87 55.09,41.43 22.57,14.18 47.94,25.9 75.91,36.33 114.91,42.86 269.18,44.71 384.4,1.56 27.99,-10.48 52.52,-21.93 76.17,-35.98 15.53,-9.21 54.9,-35.51 59.88,-49.03 -9.92,-14.01 -17.25,-8.6 -35.32,-4.74 -73.74,15.72 -150.31,14.05 -225.24,7.88 -32.39,-2.67 -56.54,-4.89 -68.2,-28.49 -21.78,19.75 -10.42,23.46 -69.56,28.46 -68.13,5.77 -111.63,7.75 -179.94,-0.69 -17.81,-2.2 -66.23,-16.16 -78.13,-7.17l-0.01 -0.01zm114.96 -410.57c-9.29,1.38 -19.13,9.34 -36.22,20.66 -9.63,6.38 -27.38,16.56 -27.38,30.96 0,6.06 1.08,6.19 2.25,11.22 -26.96,12.94 -16.43,15.77 -11.22,38.13 -10.56,2.83 -32.57,23.05 -40.93,30.88 -14.53,13.55 -21.22,18.57 -35.72,38.34 -39.79,54.27 -40.03,81.17 -40.03,143.93 0,28.1 13.07,69.19 26.19,92.7 15.74,28.15 32.15,45.06 54,67.18 14.82,14.98 19.66,16.51 33.6,26.99 30.4,22.86 84.85,46.49 124.49,57.26 42.15,11.46 89.06,18.57 137.37,20.64l58.76 -0.02c103.43,-4.45 207.12,-32.73 279.43,-91.65 22.89,-18.63 45.09,-42.07 60.38,-67.5 10.37,-17.24 19.45,-34.65 25.85,-57.14 12.59,-44.34 14.23,-97.23 -2.88,-141.13 -8.6,-22.12 -16.01,-32.57 -28.02,-50.51 -5.45,-8.1 -10.93,-13.04 -17.22,-20.93 -13.28,-16.64 -47.02,-41.2 -65.41,-53.5 11.59,-24.13 -1.8,-28.07 -13.47,-33.66 9.55,-19.9 -9.42,-32.44 -20.61,-39.98 -19,-12.78 -29.4,-20.53 -37.57,-22.86l-9.77 0.02c-8.28,2.65 -17.15,12.14 -35.4,29.02 -21.03,19.45 1.51,10 -84.69,-2.49l-83.44 -6.46c-10.69,0.37 -10.35,1.85 -20.16,2.38 -50.19,2.67 -46.33,0.61 -100.78,11.4 -13.18,2.59 -23.6,5.87 -36.09,8.78 -6.19,-9.23 -14.87,-15.93 -22.97,-24.13 -11.64,-11.77 -19.47,-17.38 -26.86,-18.49l-5.48 0.02 0 -0.06zm-172.16 271.33c3.62,-52.84 35.19,-99.72 72.6,-132.24 8.12,-7.06 19.98,-15.82 29.53,-22.17 12.99,-8.7 15.05,-13.71 35,-8.63 27.17,6.93 47.55,21.33 78.74,17.99 29.9,59.24 19.95,85.2 21.59,138.59 0.48,16.03 3.25,31.09 3.81,46.41 -34.24,-8.92 -53.02,-21.91 -109.67,-33.47 -48.13,-9.82 -82.02,-10.72 -131.58,-6.43l-0.02 -0.05zm549.9 -144.7c45.56,0.69 45.69,-10.8 83.58,-19.21 21.25,-4.71 24.82,-0.71 38.47,9 8.81,6.24 21.54,15.4 27.91,21.46 33.52,31.88 66.25,66.65 74.37,131.63 -73.63,-4.66 -125.86,1.8 -195.05,23.81 -18.1,5.74 -36.04,13.44 -53.23,18.47 3.28,-37.91 3.47,-62.49 3.57,-100.97 0.13,-37.78 13.76,-55.27 20.4,-84.24l-0.02 0.05zm-308.44 -70.67c28.92,-12.28 107.63,-18.42 143.06,-18.57 54.02,-0.24 93.6,6.64 143.55,16.72 -18.52,30.67 -25.66,8.78 -80.78,134.25 -11.62,26.41 -57.2,130.04 -62.62,151.08 -6.8,-9.63 -11.03,-27.17 -15.8,-38.87 -16.14,-39.71 -65.33,-152.32 -82.68,-184.34 -19.1,-35.27 -31.51,-41.51 -44.71,-60.3l-0.02 0.03zm304.6 353.29c-33.66,0 -67.73,-2.96 -101.04,-5.68 -36.43,-2.96 -58.38,-10.32 -48.84,-53.1 5.56,-24.84 19.05,-52.12 29.08,-74.14 35.32,-77.68 50.8,-141.74 105.94,-203.68 63.26,-71.07 59.98,-61.75 85.3,-44.4 14.92,10.24 45.16,20.9 10.4,45.88 -9.76,7.01 -16.67,3.94 -29.16,0.53 2.65,-12.07 6.19,-12.78 15.61,-7.67l3.86 -4.87c2.46,-2.54 -1.24,0.03 3.62,-2.65l-7.3 -1.06 -1.35 -14.87c-3.33,5.72 -3.92,8.39 -8.41,14.1 -7.94,-3.47 -7.06,-6.46 -15.08,-10.19 6.09,20.19 8.84,15.69 -5.64,32.25 -7.54,8.63 -15.13,14.31 -22.46,22.38 23.23,6.19 20.48,-23.76 44.98,-15.9 22.6,7.28 36.14,-14.9 52.81,-5.42 -3.1,13.34 -25.43,11.91 -36.72,15.05 -15.8,4.37 -24.42,9.23 -37.73,13.94 -41.78,14.71 -38.76,-18.84 -58.66,44.48 -12.28,39.05 -8.84,53.98 -9,94.8 -0.24,53.15 -3.18,47.39 -13.34,88 14.58,-4.02 36.43,-14.68 52.2,-20.58 16.75,-6.24 35.06,-11.75 53.02,-16.59 75.33,-20.27 97.63,-21.09 166.87,-15.61 -0.69,24.29 -6.24,51.67 -15.48,70.64 -8.89,18.31 -22.94,39.85 -33.36,51.16 -13.39,-9.33 -11.83,-17.19 -37.89,-12.37 -54.32,10.03 -83.42,15.55 -142.32,15.55l0.09 0.02zm-422.39 -357.65c6.09,-11.48 17.09,-16.4 28.13,-24.02 12.2,-8.39 19.98,-18.79 34.21,-6.27 67.39,59.35 91.12,99.64 126.1,183.46 13.18,31.62 53.71,120.2 59.4,146.84 8.89,41.46 -11.62,49.05 -47.73,51.91 -83.63,6.6 -118.8,9.46 -201.93,-1.93 -39.37,-5.4 -58.18,-17.81 -75.27,0.05 -4.47,-3.18 -2.65,-1.59 -6.48,-5.66l-12.17 -16.96c-4.55,-7.17 -9.76,-15.8 -13.63,-24.47 -9.18,-20.85 -14.34,-38.76 -14.34,-65.11 4.63,-6.32 12.83,-5.45 21.64,-6.06 81.36,-5.58 179.36,22.99 243.13,54.4 -4,-27.91 -13.39,-23.92 -13.31,-90.99 0.05,-40.64 2.99,-54.9 -9.18,-93.24 -20.03,-63 -16.7,-29 -59.16,-44.11 -14.1,-5.03 -21.78,-9.23 -37.76,-13.78 -22.6,-6.43 -33.68,-1.69 -36.04,-14.92 7.41,-4.68 20.4,-0.48 28.07,2.73 10.77,4.47 10.69,7.22 24.02,2.88 26.8,-8.7 18.63,19.42 45.69,16.38 -3.15,-7.46 -16.93,-18.02 -23.44,-25.27 -10.56,-11.72 -12.81,-13.6 -4.23,-29.4 -8.78,2.57 -7.38,6.3 -17.62,8.84l-5.19 -13.49c-3.62,13.76 2.04,12.12 -9.23,16.4 7.06,3.92 2.94,-1.08 6.16,6.93 5.03,-1.85 8.2,-3.36 13.89,-2.28l1.75 9.55c-12.01,5.42 -19.45,6.96 -28.39,-0.61 -5.66,-4.76 -14.13,-12.78 -17.01,-21.83l-0.08 0.03z"/>
 </g>
</svg>
