<!-- Generated by IcoMoon.io -->
<svg version="1.1" xmlns="http://www.w3.org/2000/svg" width="32" height="32" viewBox="0 0 32 32">
<title>logo-sugar-daddy-and-sugar-baby-desing-luisangelmaciel-para-xiiber</title>
<path fill="#000" d="M29.227 13.746c0.185-0.105 0.194-0.153 0.102-0.338l-0.379-0.774c-0.141-0.291-0.248-0.1-0.337-0.118-0.005-0.002-0.287-0.213-0.334-0.24-0.817-0.484-1.898-0.324-2.523 0.46-0.3 0.377-0.447 0.845-0.427 1.303 0.003 0.051 0.005 0.053-0.002 0.093-0.179 0.115-0.198 0.156-0.107 0.34l0.38 0.777c0.135 0.281 0.264 0.111 0.327 0.129 0.065 0.017 0.256 0.296 0.824 0.466 0.34 0.103 0.554 0.074 0.879 0.044 0.102 0.167 0.539 1.094 0.665 1.352 0.219 0.448 0.438 0.896 0.66 1.347l0.992 2.029c0.066 0.136 0.124 0.222 0.258 0.17l0.679-0.333c0.135-0.092 0.076-0.195 0.013-0.32l-0.987-2.015c-0.216-0.454-0.442-0.907-0.665-1.361l-0.498-1.015c-0.208-0.43-0.183-0.262 0.042-0.529 0.318-0.377 0.527-0.999 0.437-1.465zM28.694 12.849l0.313 0.634c-0.059 0.054-1.374 0.683-1.562 0.775-0.516 0.254-1.074 0.502-1.581 0.774-0.073-0.082-0.257-0.507-0.324-0.635l3.154-1.549zM28.329 15.623l2.259 4.608-0.372 0.19-2.263-4.617 0.376-0.181zM28.91 13.899c0.046 0.216-0.066 0.613-0.19 0.842-0.318 0.589-1.010 0.944-1.656 0.835-0.299-0.051-0.596-0.143-0.827-0.365l2.673-1.312zM28.295 12.682l-2.638 1.293c-0.030-0.095 0.017-0.33 0.041-0.418 0.235-0.837 1.009-1.341 1.794-1.223 0.202 0.031 0.609 0.149 0.803 0.348zM17.634 20.452c0.002-0.684 0.383-1.171 0.88-1.365 0.723-0.282 1.342-0.1 1.684 0.348 0.345 0.454 0.345 1.227 0.286 1.843-0.132 1.407 0.169 1.26 0.633 1.504l-0.027 0.624c-0.368 0.077-0.774 0.121-1.111-0.022-0.382-0.161-0.391-0.396-0.568-0.729-0.258 0.266-0.161 0.294-0.516 0.545-0.836 0.59-1.755 0.167-1.862-0.602-0.199-1.433 1.732-1.49 2.374-1.68 0.263-1.192-0.767-1.817-1.169-0.421-0.239 0.001-0.421 0.029-0.605-0.045zM14.89 23.456l-0.987 0.001 0.003-0.791c-0.1-0.34-0.809-0.273-0.115-0.99-0.008-0.014-0.023-0.030-0.030-0.037-0.009-0.010-0.023-0.027-0.031-0.038-0.121-0.142-0.264-0.256-0.203-0.464 0.090-0.312 0.348-0.182 0.379-0.451 0.121-1.041-0.189-0.75-0.356-1.070-0.087-0.166-0.037-0.339 0.077-0.46 0.241-0.259 0.858-0.176 1.258-0.167l0.001 0.527 0.003 0.854 0.005 0.529-0.008 0.299 0.003 0.615-0.005 1.027 0.007 0.616zM23.008 23.449c-0.341 0.031-1.038 0.086-1.26-0.152-0.387-0.415 0.175-0.649 0.296-0.806v-0.758c-0.143-0.151-0.345-0.147-0.396-0.427-0.055-0.3 0.12-0.418 0.308-0.482-0.010-0.015-0.025-0.034-0.034-0.045-0.009-0.010-0.022-0.030-0.033-0.043-0.588-0.708 0.059-0.653 0.153-0.895l0.006-0.86 0.956 0.011 0.004 0.507 0.006 0.88 0.007 0.514-0.013 0.315 0.004 0.592-0.003 1.054 0.001 0.595zM25.992 21.305l-1.261-2.341 1.032 0.018c0.346 0.428 0.594 1.228 0.931 1.622 0.174-0.206 0.708-1.264 0.932-1.631l0.713-0.008c-0.144 0.395-0.446 0.809-0.645 1.204-0.163 0.322-0.45 0.882-0.625 1.137l-1.077-0.002zM23.010 21.801l-0.004-0.592c0.88 0.015 1.703 0.196 1.707 1.108 0.005 0.941-0.791 1.118-1.705 1.132l-0.001-0.595c0.57-0.017 1.042-0.081 0.872-0.769-0.208-0.234-0.457-0.262-0.868-0.285zM14.888 21.812l-0.003-0.615c0.921 0.086 1.7 0.157 1.71 1.12 0.012 0.94-0.819 1.085-1.705 1.138l-0.007-0.616c1.216 0.097 1.302-1.073 0.005-1.027zM14.884 19.515c1.030-0.056 1.087 0.896 0.003 0.854l0.005 0.529c0.767-0.034 1.424-0.163 1.424-0.969 0-0.775-0.723-0.913-1.433-0.941l0.001 0.527zM23.006 19.5l-0.004-0.507c0.725 0.008 1.44 0.171 1.446 0.935 0.006 0.776-0.707 0.951-1.429 0.966l-0.007-0.514c0.336-0.017 0.779-0.032 0.765-0.45-0.012-0.373-0.403-0.409-0.771-0.43zM19.433 21.37c-0.421 0.037-0.751 0.106-1.095 0.281-0.244 0.126-0.661 0.546-0.27 0.903 0.281 0.257 0.744 0.037 0.986-0.13 0.46-0.316 0.379-0.399 0.38-1.054zM23.007 22.854l0.003-1.054c0.411 0.023 0.66 0.051 0.868 0.285 0.171 0.688-0.302 0.752-0.872 0.769zM14.883 22.839l0.005-1.027c1.297-0.045 1.211 1.125-0.005 1.027zM27.070 22.739l-0.005 0.74-1.077-0.003 0.003-0.736 1.078-0.002zM25.992 22.741l-0.001-0.719 1.082-0.003-0.003 0.72-1.078 0.002zM25.991 22.022l0.001-0.718 1.077 0.002 0.003 0.713-1.082 0.003zM23.012 20.38l-0.006-0.88c0.368 0.021 0.759 0.057 0.771 0.43 0.014 0.417-0.429 0.432-0.765 0.45zM14.888 20.37l-0.003-0.854c1.030-0.056 1.087 0.896 0.003 0.854zM27.684 10.72c0.065-0.283 0.179-0.823 0.669-0.796 0.229 0.262 0.092 0.46-0.171 0.74-0.226 0.243-0.377 0.41-0.557 0.653-0.009-0.064-0.010-0.434 0.044-0.475 0.186-0.14-0.029 0.030 0.109-0.009 0.012-0.076 0.006-0.086 0.017-0.166-0.080-0.008-0.043 0.050-0.111 0.053zM28.042 11.91c-0.088-0.359 0.768-1.258 1.050-0.821 0.164 0.255-0.041 0.541-0.365 0.606-0.208 0.043-0.25-0.017-0.407-0.006-0.172 0.011-0.185 0.126-0.278 0.22zM27.203 11.391c-0.080-0.082-0.099-0.178-0.184-0.358-0.063-0.136-0.132-0.302-0.167-0.438-0.074-0.294 0.015-0.568 0.328-0.616 0.106 0.129 0.124 0.22 0.105 0.38-0.032 0.266 0.073 0.845-0.083 1.031zM23.354 18.334c-0.045 0.107-0.21 0.277-0.368 0.284-0.194 0.007-0.303-0.157-0.261-0.363 0.014-0.070 0.343-0.942 0.364-0.972 0.154 0.024 0.212 0.049 0.299 0.145 0.058 0.158-0.477 0.774-0.208 0.747 0.011-0.001 0.054-0.019 0.066-0.026 0.041-0.022 0.090-0.064 0.116-0.089 0.167-0.166 0.371-0.534 0.425-0.764 0.153 0.011 0.21 0.048 0.285 0.137 0.070 0.168-0.536 0.87-0.202 0.877 0.089 0.002 0.101-0.070 0.113-0.106 0.033-0.109 0.023-0.131 0.074-0.231 0.123-0.241 0.35-0.522 0.598-0.641 0.26-0.125 0.278-0.007 0.379 0.132 0.023-0.021 0.014-0.009 0.037-0.044 0.015-0.024 0.013-0.025 0.026-0.050 0.028-0.062-0.001-0.029 0.038-0.089 0.471 0.053 0.27 0.327 0.13 0.585-0.215 0.397-0.417 1.082-0.904 1.172-0.425 0.079-0.476-0.328-0.518-0.435l-0.022-0.040c-0.4 0.234-0.388-0.113-0.468-0.229zM22.255 18.115c-0.069 0.149-0.373 0.168-0.578 0.147-0.31-0.031-0.345-0.151-0.453-0.254-0.003-0.003-0.012-0.009-0.014-0.012s-0.009-0.009-0.014-0.012c-0.096 0.056-0.207 0.215-0.15 0.403 0.191 0.619 2.037 0.099 1.641-0.499-0.147-0.222-0.617-0.164-0.732-0.405 0.016-0.21 0.355-0.373 0.591-0.416-0.023 0.241 0.007 0.373 0.242 0.397 0.128-0.168 0.467-0.681 0.087-0.776-0.309-0.077-0.748 0.115-0.962 0.247-0.192 0.121-0.537 0.396-0.482 0.744 0.069 0.433 0.72 0.19 0.825 0.435zM26.343 18.292c-0.006-0.222 0.33-0.59-0.124-0.576-0.061 0.089-0.231 0.559-0.459 0.482-0.057-0.16 0.135-0.372 0.211-0.436 0.179-0.148 0.266-0.133 0.525-0.132 0.18-0.37-0.18-0.384-0.459-0.284-0.207 0.075-0.434 0.242-0.545 0.393-0.422 0.578-0.015 1.191 0.478 0.68l0.040 0.057c0.158 0.255 0.357 0.125 0.432 0.011 0.118 0.052 0.124 0.107 0.31 0.114 0.026-0.032 0.005 0.014 0.043-0.067 0.006-0.014 0.019-0.052 0.027-0.074l0.179-0.451c0.182-0.361 0.505-0.506 0.45-0.21-0.009 0.046-0.034 0.092-0.048 0.14 0.143-0.046 0.229-0.123 0.302-0.235 0.068-0.107 0.144-0.311 0.001-0.4-0.176-0.102-0.401 0.16-0.501 0.202-0.061-0.167-0.053-0.257-0.252-0.282l-0.253 0.588c-0.044 0.096-0.080 0.176-0.123 0.282-0.056 0.135-0.074 0.179-0.238 0.197zM23.971 18.391l-0.083 0.126c0.262 0.395 0.676 0.243 0.774-0.186-0.096 0.064-0.345 0.337-0.545 0.2-0.066-0.045-0.053-0.081-0.145-0.14zM24.409 18.161c0.238 0.007 0.515-0.302 0.558-0.525-0.227 0.022-0.557 0.317-0.558 0.525z"></path>
<path fill="#201e1e" d="M2.954 14.804c-0.878-0.102-1.478-0.411-1.672-1.172-0.224-0.881 0.309-1.626 0.778-1.941 1.384-0.929 3.327-0.451 4.118 0.56 0.893 1.141 0.861 3.12-0.244 4.135-0.739 0.678-3.158 0.776-3.474 0.367-0.118-0.152-0.116-0.428 0.031-0.557 0.119-0.104 0.391-0.084 0.474-0.204l-0.011-1.188zM14.899 13.207c0-0.225 0.086-0.659-0.118-0.775-0.148-0.084-0.458-0.204-0.232-0.476 0.221-0.267 0.74-0.618 1.098-0.536 0.152 0.377 0.074 2.644 0.074 3.263 0 0.229-0.068 0.556 0.127 0.683 0.135 0.088 0.161 0.039 0.225 0.188 0.129 0.298-0.221 0.545-0.688 0.424-0.235-0.061-0.376-0.196-0.538-0.296-0.173 0.16-0.347 0.286-0.712 0.298-0.803 0.030-1.279-0.818-1.262-1.633 0.013-0.604 0.261-1.092 0.616-1.358 0.727-0.544 1.291 0.152 1.41 0.219zM11.806 13.211c0.007-0.126 0.021-0.509 0.004-0.62-0.027-0.186-0.182-0.147-0.33-0.3-0.143-0.147-0.102-0.275 0.027-0.388 0.215-0.19 1.068-0.874 1.126-0.248v2.504c0 0.273-0.076 1.033 0.096 1.184 0.113 0.101 0.293 0.12 0.285 0.345-0.013 0.338-0.658 0.517-1.248-0.018-0.297 0.393-1.018 0.372-1.397 0.089-0.729-0.543-0.831-2.15 0.050-2.78 0.661-0.472 1.112 0.007 1.389 0.23zM18.141 13.71c-0.128-0.121-0.284-0.19-0.299-0.414-0.016-0.231 0.116-0.321 0.331-0.337 0.201-0.015 0.468-0.002 0.676-0.002 0.248 0.001 0.408 0.011 0.447 0.237 0.042 0.247-0.096 0.357-0.232 0.435-0.249 0.143-0.183 0.099-0.282 0.391-0.115 0.336-0.242 0.657-0.354 0.99-0.181 0.536-0.476 1.62-0.782 1.948-0.431 0.467-1.452 0.64-1.875 0.015-0.22-0.325-0.188-0.823 0.212-0.891 0.591-0.1 0.411 0.484 0.81 0.502 0.387 0.018 0.577-0.423 0.436-0.806-0.116-0.312-0.273-0.645-0.406-0.94-0.145-0.321-0.274-0.637-0.419-0.966-0.126-0.286-0.199-0.143-0.366-0.306-0.098-0.097-0.158-0.358-0.041-0.501 0.129-0.158 0.977-0.137 1.244-0.105 0.252 0.030 0.507 0.432-0.070 0.75 0.019 0.186 0.271 0.74 0.367 0.975 0.052 0.126 0.057 0.193 0.146 0.303l0.456-1.278zM2.993 13.86l0.004-0.496c-0.813-0.066 0.065-1.243 0.953-0.982l0.006 3.748c2.34-0.115 2.293-2.55 1.357-3.466-0.275-0.269-0.495-0.455-0.931-0.561-0.731-0.178-1.884-0.053-2.018 0.898-0.068 0.492 0.202 0.814 0.628 0.859zM8.82 14.004c0.006-0.242-0.017-0.419-0.184-0.512-0.165-0.092-0.395-0.069-0.542 0.046-0.136 0.107-0.168 0.22-0.404 0.267-0.218 0.044-0.421 0.002-0.491-0.152-0.317-0.704 1.145-1.027 1.772-0.758 0.777 0.334 0.626 1.153 0.633 2.088 0.003 0.424 0.079 0.406 0.211 0.507 0.341 0.259-0.034 0.593-0.622 0.471-0.202-0.042-0.292-0.165-0.396-0.255-0.337 0.197-0.762 0.304-1.24 0.175-1.029-0.275-1.081-1.909 1.264-1.877zM11.001 13.588c-0.865 0.312-0.46 1.836 0.373 1.548 0.325-0.111 0.556-0.503 0.472-0.966-0.066-0.374-0.412-0.739-0.846-0.582zM14.178 13.55c-0.906 0.249-0.57 1.838 0.318 1.57 0.316-0.095 0.547-0.509 0.477-0.939-0.060-0.367-0.363-0.75-0.795-0.631zM8.312 14.596c-0.794 0.153-0.699 0.766 0.024 0.639 0.731-0.129 0.674-0.774-0.024-0.639zM12.027 11.001l0.083 0.081c-0.067 0.204-0.163 0.269-0.348 0.357-0.205 0.098-0.39 0.059-0.564 0.127-0.133 0.178-0.287 0.502-0.438 0.64-0.502 0.455-1.299-0.226-0.691-0.77 0.322-0.289 0.417-0.24 0.704-0.345l0.145-0.547c-0.078 0.049-0.008-0.007-0.092 0.075-0.038 0.038-0.037 0.042-0.072 0.082-0.125 0.148-0.328 0.364-0.58 0.237-0.137-0.085-0.101-0.128-0.182-0.3-0.298 0.18-0.915 1.069-0.952-0.036-0.045 0.019-0.823 0.967-0.952 0.223-0.051-0.286 0.027-0.551 0.049-0.821 0.018-0.243 0.064-0.62 0.357-0.472 0.277 0.174-0.162 0.832 0.054 1.333 0.191-0.049 0.487-0.423 0.542-0.634 0.098-0.37-0.001-0.736 0.456-0.671 0.322 0.337-0.189 0.807-0.094 1.24 0.24-0.040 0.316-0.204 0.507-0.28 0.002-0.601 0.178-0.925 0.501-1.188 0.15-0.122 0.452-0.194 0.664-0.085 0.235 0.12 0.188 0.312 0.154 0.566l0.163 0.116c-0.043 0.455-0.164 0.702-0.2 1.19 0.372 0.020 0.688 0.104 0.785-0.119zM7.022 10.619c-0.019-0.112-0.119-0.277-0.172-0.44-0.139-0.419-0.261-1.152-0.004-1.503 0.45-0.614 1.305-0.019 0.924 0.797-0.234 0.061-0.447 0.038-0.495-0.218-0.054-0.287 0.057-0.36 0.123-0.414l0.104-0.084c-0.412-0.103-0.406 0.451-0.294 0.756 0.125 0.346 0.227 0.513 0.393 0.8 0.355 0.616 0.504 1.189-0.038 1.732-0.205 0.206-0.476 0.387-0.889 0.271-0.306-0.086-0.403-0.332-0.557-0.637-0.144-0.286-0.023-0.647 0.101-0.901 0.187-0.38 0.472-0.331 0.806-0.159zM12.027 10.87c0.103-0.086 0.15-0.133 0.238-0.25 0.076-0.101 0.118-0.222 0.216-0.311l0.022 0.077c0.044 0.224 0.007 0.178 0.129 0.415 0.349-0.025 0.758-0.795 1.088-0.927 0.202 0.247 0.050 0.483-0.019 0.759-0.219 0.874 0.559 1.007 0.895 0.471 0.131-0.208 0.216-0.667-0.143-0.644-0.102 0.25-0.029 0.199 0.102 0.336-0.034 0.198-0.117 0.425-0.345 0.274l-0.014-0.101c0.010-0.071 0.204-0.51 0.244-0.831 0.074-0.592-0.334-0.331-0.675-0.59-0.008-0.273 0.148-0.505-0.168-0.62-0.291 0.124-0.342 0.654-0.040 0.866-0.128 0.217-0.498 0.631-0.788 0.715 0.019-0.284 0.080-0.479-0.015-0.673-0.208 0.047-0.199 0.191-0.368 0.367-0.119 0.124-0.291 0.329-0.396 0.36 0.065-0.345 0.139-0.775 0.414-0.888 0.005 0.008 0.006 0.014 0.006 0.026 0.001 0.013 0.005 0.022 0.006 0.026 0.029 0.12 0.017 0.106 0.104 0.16 0.066-0.081 0.139-0.21 0.1-0.341-0.073-0.244-0.472-0.346-0.823 0.144-0.255 0.358-0.513 1.195 0.23 1.18zM7.138 10.687c-0.049 0.108 0.072 0.389-0.122 0.532-0.163 0.12-0.363 0.071-0.374-0.19 0.141-0.114 0.082-0.014 0.208-0.088 0.023-0.169 0.005-0.209-0.053-0.333-0.281 0.010-0.547 0.35-0.505 0.644 0.064 0.434 0.373 0.939 0.895 0.636 0.482-0.279 0.147-0.855-0.050-1.2zM10.444 10.607c0.164-0.093 0.655-0.616 0.674-0.806 0.133-1.24-0.68 0.173-0.674 0.806zM8.172 11.836c0.266 0.013 0.42-0.394 1.268-0.324 0.108 0.009 0.447-0.007 0.194-0.132-0.219-0.11-1.695-0.048-1.463 0.456zM10.082 11.991c0.34 0.017 0.52-0.35 0.596-0.668-0.468 0.022-0.77 0.191-0.596 0.668zM7.684 16.942c-0.895-0.032-0.763 1.332 0.542 1.531 1.017 0.156 1.856-0.375 2.183-0.971 0.034 0.026 0.017 0.009 0.046 0.043 0.027 0.030 0.027 0.034 0.048 0.062 0.789 1.152 2.607 1.137 3.103 0.271 0.254-0.442 0.135-0.976-0.452-0.935 0.639 0.199 0.222 0.78 0.006 0.865-0.253 0.1-0.413-0.088-0.505-0.213-0.111-0.153-0.199-0.294-0.32-0.439-1.115-1.338-1.722-0.416-1.924-0.306-0.239-0.224-0.519-0.538-1.059-0.357-0.95 0.321-1.112 1.552-1.676 1.312-0.144-0.061-0.287-0.247-0.313-0.445-0.038-0.283 0.131-0.348 0.32-0.419zM19.729 17.75c-0.095 0.105-0.196 0.182-0.308 0.234-0.111 0.051-0.23 0.078-0.36 0.078-0.238 0-0.426-0.081-0.565-0.241-0.113-0.131-0.169-0.276-0.169-0.438 0-0.142 0.046-0.272 0.138-0.387 0.092-0.116 0.231-0.216 0.413-0.304-0.105-0.12-0.175-0.218-0.21-0.294-0.035-0.074-0.053-0.147-0.053-0.215 0-0.14 0.054-0.261 0.164-0.364 0.109-0.102 0.246-0.154 0.414-0.154 0.157 0 0.288 0.049 0.389 0.146s0.151 0.214 0.151 0.35c0 0.22-0.147 0.41-0.44 0.566l0.419 0.527c0.049-0.093 0.085-0.199 0.111-0.322l0.296 0.064c-0.050 0.202-0.119 0.367-0.206 0.497 0.107 0.141 0.228 0.259 0.363 0.355l-0.192 0.226c-0.113-0.073-0.231-0.182-0.353-0.325zM19.146 16.545c0.124-0.074 0.204-0.137 0.241-0.192s0.054-0.116 0.054-0.183c0-0.079-0.025-0.144-0.075-0.195s-0.113-0.076-0.188-0.076c-0.077 0-0.142 0.025-0.194 0.074s-0.077 0.112-0.077 0.183c0 0.035 0.009 0.074 0.029 0.113 0.018 0.041 0.046 0.082 0.082 0.127l0.128 0.148zM19.547 17.527l-0.519-0.649c-0.155 0.091-0.259 0.177-0.313 0.254-0.054 0.079-0.081 0.156-0.081 0.233 0 0.094 0.037 0.191 0.112 0.292s0.18 0.151 0.317 0.151c0.086 0 0.174-0.025 0.265-0.078s0.164-0.12 0.219-0.203z"></path>
</svg>
