<?xml version="1.0" encoding="UTF-8"?>
<!DOCTYPE svg PUBLIC "-//W3C//DTD SVG 1.1//EN" "http://www.w3.org/Graphics/SVG/1.1/DTD/svg11.dtd">
<!-- Creator: CorelDRAW 2017 -->
<svg xmlns="http://www.w3.org/2000/svg" xml:space="preserve" width="78.141mm" height="51mm" version="1.1" style="shape-rendering:geometricPrecision; text-rendering:geometricPrecision; image-rendering:optimizeQuality; fill-rule:evenodd; clip-rule:evenodd"
viewBox="0 0 7814.1 5100"
 xmlns:xlink="http://www.w3.org/1999/xlink">
 <defs>
  <style type="text/css">
   <![CDATA[
    .str0 {stroke:#D7405F;stroke-width:7.62;stroke-miterlimit:22.9256}
    .fil1 {fill:#373435}
    .fil0 {fill:#D64662}
    .fil2 {fill:#373435;fill-rule:nonzero}
    .fil4 {fill:#373435;fill-rule:nonzero}
    .fil3 {fill:#D7405F;fill-rule:nonzero}
   ]]>
  </style>
 </defs>
 <g id="Capa_x0020_1">
  <metadata id="CorelCorpID_0Corel-Layer"/>
  <g id="_2360615768496">
   <path class="fil0 str0" d="M1026.54 731.14l5691.24 7.92 6.12 3682.57 -5697.36 0 0 -3690.49zm-104.03 0l6.12 3682.57c-691.52,134.63 -550.77,-182.15 -550.77,-625.64l0 -2383.77c0,-665.24 -128.51,-673.16 544.65,-673.16zm5905.42 3690.49l-6.11 -3690.49c679.27,0 563,-23.76 563,649.4l0 2383.77c0,665.24 116.27,665.24 -556.89,657.32zm-6535.74 -3540.02l0 3381.63c0,182.15 30.59,245.5 232.54,245.5l6700.98 0c189.71,0 244.78,-63.35 244.78,-245.5l0 -3381.63c0,-87.11 -18.35,-142.55 -42.83,-197.99 -61.2,-15.84 -122.4,-31.67 -201.95,-31.67l-6700.98 0c-177.47,0 -232.54,55.43 -232.54,229.66z"/>
   <path class="fil1" d="M616.53 548.99l12.24 -332.62c116.27,-63.35 6431.71,-63.35 6541.86,0l24.48 332.62c195.83,0 403.9,-31.68 465.09,150.47 24.48,79.2 42.84,3532.1 6.12,3722.17 -48.95,221.74 -244.78,174.23 -465.09,174.23l-24.48 300.94c-152.99,39.6 -6394.99,39.6 -6535.75,0l-30.59 -300.94c-544.65,7.92 -465.09,0 -465.09,-776.11l6.12 -3096.53c36.71,-205.91 257.02,-174.23 465.09,-174.23zm-134.64 -134.63c-618.08,39.6 -465.09,277.18 -465.09,855.31l6.12 3262.83c48.96,174.23 269.27,174.23 465.09,205.91 6.12,395.97 244.79,308.86 618.09,308.86l5568.84 0c348.82,0 636.44,95.03 642.56,-308.86 532.41,-87.12 489.57,-126.71 489.57,-807.79l0 -2660.95c0,-514.77 104.04,-847.39 -489.57,-847.39 0,-443.49 -146.87,-372.22 -563,-372.22 -642.56,0 -5997.22,-23.75 -6125.73,15.84 -146.88,55.44 -116.28,190.07 -146.88,348.46z"/>
   <g>
    <path class="fil2" d="M812.2 573.48l105.88 -150.21 -98.06 -139.77 60.44 0 45.82 68.44c8.47,12.85 15.18,23.28 19.92,31.48 8.29,-11.64 15.65,-22.16 22.26,-31.57l48.24 -68.35 60.06 0 -98.61 139.77 105.04 150.21 -59.79 0 -59.97 -89.4 -13.69 -21.51 -77.47 110.91 -60.07 0zm590.11 0l105.88 -150.21 -98.06 -139.77 60.44 0 45.82 68.44c8.47,12.85 15.18,23.28 19.92,31.48 8.29,-11.64 15.65,-22.16 22.26,-31.57l48.24 -68.35 60.06 0 -98.61 139.77 105.04 150.21 -59.79 0 -59.97 -89.4 -13.69 -21.51 -77.47 110.91 -60.07 0zm590.11 0l105.88 -150.21 -98.06 -139.77 60.44 0 45.82 68.44c8.47,12.85 15.18,23.28 19.92,31.48 8.29,-11.64 15.65,-22.16 22.26,-31.57l48.24 -68.35 60.06 0 -98.61 139.77 105.04 150.21 -59.79 0 -59.97 -89.4 -13.69 -21.51 -77.47 110.91 -60.07 0zm590.11 0l105.88 -150.21 -98.06 -139.77 60.44 0 45.82 68.44c8.47,12.85 15.18,23.28 19.92,31.48 8.29,-11.64 15.65,-22.16 22.26,-31.57l48.24 -68.35 60.06 0 -98.61 139.77 105.04 150.21 -59.79 0 -59.97 -89.4 -13.69 -21.51 -77.47 110.91 -60.07 0zm590.11 0l105.88 -150.21 -98.06 -139.77 60.44 0 45.82 68.44c8.47,12.85 15.18,23.28 19.92,31.48 8.29,-11.64 15.65,-22.16 22.26,-31.57l48.24 -68.35 60.06 0 -98.61 139.77 105.04 150.21 -59.79 0 -59.97 -89.4 -13.69 -21.51 -77.47 110.91 -60.07 0zm590.11 0l105.88 -150.21 -98.06 -139.77 60.44 0 45.82 68.44c8.47,12.85 15.18,23.28 19.92,31.48 8.29,-11.64 15.65,-22.16 22.26,-31.57l48.24 -68.35 60.06 0 -98.61 139.77 105.04 150.21 -59.79 0 -59.97 -89.4 -13.69 -21.51 -77.47 110.91 -60.07 0zm590.11 0l105.88 -150.21 -98.06 -139.77 60.44 0 45.82 68.44c8.47,12.85 15.18,23.28 19.92,31.48 8.29,-11.64 15.65,-22.16 22.26,-31.57l48.24 -68.35 60.06 0 -98.61 139.77 105.04 150.21 -59.79 0 -59.97 -89.4 -13.69 -21.51 -77.47 110.91 -60.07 0zm590.11 0l105.88 -150.21 -98.06 -139.77 60.44 0 45.82 68.44c8.47,12.85 15.18,23.28 19.92,31.48 8.29,-11.64 15.65,-22.16 22.26,-31.57l48.24 -68.35 60.06 0 -98.61 139.77 105.04 150.21 -59.79 0 -59.97 -89.4 -13.69 -21.51 -77.47 110.91 -60.07 0zm590.11 0l105.88 -150.21 -98.06 -139.77 60.44 0 45.82 68.44c8.47,12.85 15.18,23.28 19.92,31.48 8.29,-11.64 15.65,-22.16 22.26,-31.57l48.24 -68.35 60.06 0 -98.61 139.77 105.04 150.21 -59.79 0 -59.97 -89.4 -13.69 -21.51 -77.47 110.91 -60.07 0zm590.11 0l105.88 -150.21 -98.06 -139.77 60.44 0 45.82 68.44c8.47,12.85 15.18,23.28 19.92,31.48 8.29,-11.64 15.65,-22.16 22.26,-31.57l48.24 -68.35 60.06 0 -98.61 139.77 105.04 150.21 -59.79 0 -59.97 -89.4 -13.69 -21.51 -77.47 110.91 -60.07 0zm590.11 0l105.88 -150.21 -98.06 -139.77 60.44 0 45.82 68.44c8.47,12.85 15.18,23.28 19.92,31.48 8.29,-11.64 15.65,-22.16 22.26,-31.57l48.24 -68.35 60.06 0 -98.61 139.77 105.04 150.21 -59.79 0 -59.97 -89.4 -13.69 -21.51 -77.47 110.91 -60.07 0z"/>
    <path class="fil3" d="M1106.65 428.49c0,-53.55 14.9,-93.22 44.79,-119.01 24.86,-21.42 55.31,-32.13 91.17,-32.13 39.76,0 72.35,13.04 97.68,39.11 25.24,25.99 37.9,62.02 37.9,107.93 0,37.25 -5.59,66.49 -16.76,87.82 -11.18,21.32 -27.47,37.9 -48.89,49.72 -21.32,11.83 -44.7,17.7 -69.93,17.7 -40.61,0 -73.38,-12.95 -98.43,-38.93 -25.05,-25.98 -37.53,-63.41 -37.53,-112.21zm50.28 0.09c0,37.07 8.11,64.82 24.31,83.16 16.29,18.44 36.69,27.66 61.37,27.66 24.39,0 44.69,-9.22 60.99,-27.75 16.2,-18.53 24.31,-46.75 24.31,-84.65 0,-35.76 -8.2,-62.86 -24.5,-81.2 -16.29,-18.44 -36.59,-27.66 -60.8,-27.66 -24.68,0 -45.08,9.13 -61.37,27.47 -16.2,18.35 -24.31,46 -24.31,82.97zm539.83 -0.09c0,-53.55 14.9,-93.22 44.79,-119.01 24.86,-21.42 55.31,-32.13 91.17,-32.13 39.76,0 72.35,13.04 97.68,39.11 25.24,25.99 37.9,62.02 37.9,107.93 0,37.25 -5.59,66.49 -16.76,87.82 -11.18,21.32 -27.47,37.9 -48.89,49.72 -21.32,11.83 -44.7,17.7 -69.93,17.7 -40.61,0 -73.38,-12.95 -98.43,-38.93 -25.05,-25.98 -37.53,-63.41 -37.53,-112.21zm50.28 0.09c0,37.07 8.11,64.82 24.31,83.16 16.29,18.44 36.69,27.66 61.37,27.66 24.39,0 44.69,-9.22 60.99,-27.75 16.2,-18.53 24.31,-46.75 24.31,-84.65 0,-35.76 -8.2,-62.86 -24.5,-81.2 -16.29,-18.44 -36.59,-27.66 -60.8,-27.66 -24.68,0 -45.08,9.13 -61.37,27.47 -16.2,18.35 -24.31,46 -24.31,82.97zm539.83 -0.09c0,-53.55 14.9,-93.22 44.79,-119.01 24.86,-21.42 55.31,-32.13 91.17,-32.13 39.76,0 72.35,13.04 97.68,39.11 25.24,25.99 37.9,62.02 37.9,107.93 0,37.25 -5.59,66.49 -16.76,87.82 -11.18,21.32 -27.47,37.9 -48.89,49.72 -21.32,11.83 -44.7,17.7 -69.93,17.7 -40.61,0 -73.38,-12.95 -98.43,-38.93 -25.05,-25.98 -37.53,-63.41 -37.53,-112.21zm50.28 0.09c0,37.07 8.11,64.82 24.31,83.16 16.29,18.44 36.69,27.66 61.37,27.66 24.39,0 44.69,-9.22 60.99,-27.75 16.2,-18.53 24.31,-46.75 24.31,-84.65 0,-35.76 -8.2,-62.86 -24.5,-81.2 -16.29,-18.44 -36.59,-27.66 -60.8,-27.66 -24.68,0 -45.08,9.13 -61.37,27.47 -16.2,18.35 -24.31,46 -24.31,82.97zm539.83 -0.09c0,-53.55 14.9,-93.22 44.79,-119.01 24.86,-21.42 55.31,-32.13 91.17,-32.13 39.76,0 72.35,13.04 97.68,39.11 25.24,25.99 37.9,62.02 37.9,107.93 0,37.25 -5.59,66.49 -16.76,87.82 -11.18,21.32 -27.47,37.9 -48.89,49.72 -21.32,11.83 -44.7,17.7 -69.93,17.7 -40.61,0 -73.38,-12.95 -98.43,-38.93 -25.05,-25.98 -37.53,-63.41 -37.53,-112.21zm50.28 0.09c0,37.07 8.11,64.82 24.31,83.16 16.29,18.44 36.69,27.66 61.37,27.66 24.39,0 44.69,-9.22 60.99,-27.75 16.2,-18.53 24.31,-46.75 24.31,-84.65 0,-35.76 -8.2,-62.86 -24.5,-81.2 -16.29,-18.44 -36.59,-27.66 -60.8,-27.66 -24.68,0 -45.08,9.13 -61.37,27.47 -16.2,18.35 -24.31,46 -24.31,82.97zm539.83 -0.09c0,-53.55 14.9,-93.22 44.79,-119.01 24.86,-21.42 55.31,-32.13 91.17,-32.13 39.76,0 72.35,13.04 97.68,39.11 25.24,25.99 37.9,62.02 37.9,107.93 0,37.25 -5.59,66.49 -16.76,87.82 -11.18,21.32 -27.47,37.9 -48.89,49.72 -21.32,11.83 -44.7,17.7 -69.93,17.7 -40.61,0 -73.38,-12.95 -98.43,-38.93 -25.05,-25.98 -37.53,-63.41 -37.53,-112.21zm50.28 0.09c0,37.07 8.11,64.82 24.31,83.16 16.29,18.44 36.69,27.66 61.37,27.66 24.39,0 44.69,-9.22 60.99,-27.75 16.2,-18.53 24.31,-46.75 24.31,-84.65 0,-35.76 -8.2,-62.86 -24.5,-81.2 -16.29,-18.44 -36.59,-27.66 -60.8,-27.66 -24.68,0 -45.08,9.13 -61.37,27.47 -16.2,18.35 -24.31,46 -24.31,82.97zm539.83 -0.09c0,-53.55 14.9,-93.22 44.79,-119.01 24.86,-21.42 55.31,-32.13 91.17,-32.13 39.76,0 72.35,13.04 97.68,39.11 25.24,25.99 37.9,62.02 37.9,107.93 0,37.25 -5.59,66.49 -16.76,87.82 -11.18,21.32 -27.47,37.9 -48.89,49.72 -21.32,11.83 -44.7,17.7 -69.93,17.7 -40.61,0 -73.38,-12.95 -98.43,-38.93 -25.05,-25.98 -37.53,-63.41 -37.53,-112.21zm50.28 0.09c0,37.07 8.11,64.82 24.31,83.16 16.29,18.44 36.69,27.66 61.37,27.66 24.39,0 44.69,-9.22 60.99,-27.75 16.2,-18.53 24.31,-46.75 24.31,-84.65 0,-35.76 -8.2,-62.86 -24.5,-81.2 -16.29,-18.44 -36.59,-27.66 -60.8,-27.66 -24.68,0 -45.08,9.13 -61.37,27.47 -16.2,18.35 -24.31,46 -24.31,82.97zm539.83 -0.09c0,-53.55 14.9,-93.22 44.79,-119.01 24.86,-21.42 55.31,-32.13 91.17,-32.13 39.76,0 72.35,13.04 97.68,39.11 25.24,25.99 37.9,62.02 37.9,107.93 0,37.25 -5.59,66.49 -16.76,87.82 -11.18,21.32 -27.47,37.9 -48.89,49.72 -21.32,11.83 -44.7,17.7 -69.93,17.7 -40.61,0 -73.38,-12.95 -98.43,-38.93 -25.05,-25.98 -37.53,-63.41 -37.53,-112.21zm50.28 0.09c0,37.07 8.11,64.82 24.31,83.16 16.29,18.44 36.69,27.66 61.37,27.66 24.39,0 44.69,-9.22 60.99,-27.75 16.2,-18.53 24.31,-46.75 24.31,-84.65 0,-35.76 -8.2,-62.86 -24.5,-81.2 -16.29,-18.44 -36.59,-27.66 -60.8,-27.66 -24.68,0 -45.08,9.13 -61.37,27.47 -16.2,18.35 -24.31,46 -24.31,82.97zm539.83 -0.09c0,-53.55 14.9,-93.22 44.79,-119.01 24.86,-21.42 55.31,-32.13 91.17,-32.13 39.76,0 72.35,13.04 97.68,39.11 25.24,25.99 37.9,62.02 37.9,107.93 0,37.25 -5.59,66.49 -16.76,87.82 -11.18,21.32 -27.47,37.9 -48.89,49.72 -21.32,11.83 -44.7,17.7 -69.93,17.7 -40.61,0 -73.38,-12.95 -98.43,-38.93 -25.05,-25.98 -37.53,-63.41 -37.53,-112.21zm50.28 0.09c0,37.07 8.11,64.82 24.31,83.16 16.29,18.44 36.69,27.66 61.37,27.66 24.39,0 44.69,-9.22 60.99,-27.75 16.2,-18.53 24.31,-46.75 24.31,-84.65 0,-35.76 -8.2,-62.86 -24.5,-81.2 -16.29,-18.44 -36.59,-27.66 -60.8,-27.66 -24.68,0 -45.08,9.13 -61.37,27.47 -16.2,18.35 -24.31,46 -24.31,82.97zm539.83 -0.09c0,-53.55 14.9,-93.22 44.79,-119.01 24.86,-21.42 55.31,-32.13 91.17,-32.13 39.76,0 72.35,13.04 97.68,39.11 25.24,25.99 37.9,62.02 37.9,107.93 0,37.25 -5.59,66.49 -16.76,87.82 -11.18,21.32 -27.47,37.9 -48.89,49.72 -21.32,11.83 -44.7,17.7 -69.93,17.7 -40.61,0 -73.38,-12.95 -98.43,-38.93 -25.05,-25.98 -37.53,-63.41 -37.53,-112.21zm50.28 0.09c0,37.07 8.11,64.82 24.31,83.16 16.29,18.44 36.69,27.66 61.37,27.66 24.39,0 44.69,-9.22 60.99,-27.75 16.2,-18.53 24.31,-46.75 24.31,-84.65 0,-35.76 -8.2,-62.86 -24.5,-81.2 -16.29,-18.44 -36.59,-27.66 -60.8,-27.66 -24.68,0 -45.08,9.13 -61.37,27.47 -16.2,18.35 -24.31,46 -24.31,82.97zm539.83 -0.09c0,-53.55 14.9,-93.22 44.79,-119.01 24.86,-21.42 55.31,-32.13 91.17,-32.13 39.76,0 72.35,13.04 97.68,39.11 25.24,25.99 37.9,62.02 37.9,107.93 0,37.25 -5.59,66.49 -16.76,87.82 -11.18,21.32 -27.47,37.9 -48.89,49.72 -21.32,11.83 -44.7,17.7 -69.93,17.7 -40.61,0 -73.38,-12.95 -98.43,-38.93 -25.05,-25.98 -37.53,-63.41 -37.53,-112.21zm50.28 0.09c0,37.07 8.11,64.82 24.31,83.16 16.29,18.44 36.69,27.66 61.37,27.66 24.39,0 44.69,-9.22 60.99,-27.75 16.2,-18.53 24.31,-46.75 24.31,-84.65 0,-35.76 -8.2,-62.86 -24.5,-81.2 -16.29,-18.44 -36.59,-27.66 -60.8,-27.66 -24.68,0 -45.08,9.13 -61.37,27.47 -16.2,18.35 -24.31,46 -24.31,82.97z"/>
   </g>
   <g>
    <path class="fil3" d="M987.73 4879.01l105.88 -150.21 -98.06 -139.77 60.44 0 45.82 68.44c8.47,12.85 15.18,23.28 19.92,31.48 8.29,-11.64 15.65,-22.16 22.26,-31.57l48.24 -68.35 60.06 0 -98.61 139.77 105.04 150.21 -59.79 0 -59.97 -89.4 -13.69 -21.51 -77.47 110.91 -60.07 0zm590.11 0l105.88 -150.21 -98.06 -139.77 60.44 0 45.82 68.44c8.47,12.85 15.18,23.28 19.92,31.48 8.29,-11.64 15.65,-22.16 22.26,-31.57l48.24 -68.35 60.06 0 -98.61 139.77 105.04 150.21 -59.79 0 -59.97 -89.4 -13.69 -21.51 -77.47 110.91 -60.07 0zm590.11 0l105.88 -150.21 -98.06 -139.77 60.44 0 45.82 68.44c8.47,12.85 15.18,23.28 19.92,31.48 8.29,-11.64 15.65,-22.16 22.26,-31.57l48.24 -68.35 60.06 0 -98.61 139.77 105.04 150.21 -59.79 0 -59.97 -89.4 -13.69 -21.51 -77.47 110.91 -60.07 0zm590.11 0l105.88 -150.21 -98.06 -139.77 60.44 0 45.82 68.44c8.47,12.85 15.18,23.28 19.92,31.48 8.29,-11.64 15.65,-22.16 22.26,-31.57l48.24 -68.35 60.06 0 -98.61 139.77 105.04 150.21 -59.79 0 -59.97 -89.4 -13.69 -21.51 -77.47 110.91 -60.07 0zm590.11 0l105.88 -150.21 -98.06 -139.77 60.44 0 45.82 68.44c8.47,12.85 15.18,23.28 19.92,31.48 8.29,-11.64 15.65,-22.16 22.26,-31.57l48.24 -68.35 60.06 0 -98.61 139.77 105.04 150.21 -59.79 0 -59.97 -89.4 -13.69 -21.51 -77.47 110.91 -60.07 0zm590.11 0l105.88 -150.21 -98.06 -139.77 60.44 0 45.82 68.44c8.47,12.85 15.18,23.28 19.92,31.48 8.29,-11.64 15.65,-22.16 22.26,-31.57l48.24 -68.35 60.06 0 -98.61 139.77 105.04 150.21 -59.79 0 -59.97 -89.4 -13.69 -21.51 -77.47 110.91 -60.07 0zm590.11 0l105.88 -150.21 -98.06 -139.77 60.44 0 45.82 68.44c8.47,12.85 15.18,23.28 19.92,31.48 8.29,-11.64 15.65,-22.16 22.26,-31.57l48.24 -68.35 60.06 0 -98.61 139.77 105.04 150.21 -59.79 0 -59.97 -89.4 -13.69 -21.51 -77.47 110.91 -60.07 0zm590.11 0l105.88 -150.21 -98.06 -139.77 60.44 0 45.82 68.44c8.47,12.85 15.18,23.28 19.92,31.48 8.29,-11.64 15.65,-22.16 22.26,-31.57l48.24 -68.35 60.06 0 -98.61 139.77 105.04 150.21 -59.79 0 -59.97 -89.4 -13.69 -21.51 -77.47 110.91 -60.07 0zm590.11 0l105.88 -150.21 -98.06 -139.77 60.44 0 45.82 68.44c8.47,12.85 15.18,23.28 19.92,31.48 8.29,-11.64 15.65,-22.16 22.26,-31.57l48.24 -68.35 60.06 0 -98.61 139.77 105.04 150.21 -59.79 0 -59.97 -89.4 -13.69 -21.51 -77.47 110.91 -60.07 0zm590.11 0l105.88 -150.21 -98.06 -139.77 60.44 0 45.82 68.44c8.47,12.85 15.18,23.28 19.92,31.48 8.29,-11.64 15.65,-22.16 22.26,-31.57l48.24 -68.35 60.06 0 -98.61 139.77 105.04 150.21 -59.79 0 -59.97 -89.4 -13.69 -21.51 -77.47 110.91 -60.07 0z"/>
    <path class="fil4" d="M1282.18 4734.02c0,-53.55 14.9,-93.22 44.79,-119.01 24.86,-21.42 55.31,-32.13 91.17,-32.13 39.76,0 72.35,13.04 97.68,39.11 25.24,25.99 37.9,62.02 37.9,107.93 0,37.25 -5.59,66.49 -16.76,87.82 -11.18,21.32 -27.47,37.9 -48.89,49.72 -21.32,11.83 -44.7,17.7 -69.93,17.7 -40.61,0 -73.38,-12.95 -98.43,-38.93 -25.05,-25.98 -37.53,-63.41 -37.53,-112.21zm50.28 0.09c0,37.07 8.11,64.82 24.31,83.16 16.29,18.44 36.69,27.66 61.37,27.66 24.39,0 44.69,-9.22 60.99,-27.75 16.2,-18.53 24.31,-46.75 24.31,-84.65 0,-35.76 -8.2,-62.86 -24.5,-81.2 -16.29,-18.44 -36.59,-27.66 -60.8,-27.66 -24.68,0 -45.08,9.13 -61.37,27.47 -16.2,18.35 -24.31,46 -24.31,82.97zm539.83 -0.09c0,-53.55 14.9,-93.22 44.79,-119.01 24.86,-21.42 55.31,-32.13 91.17,-32.13 39.76,0 72.35,13.04 97.68,39.11 25.24,25.99 37.9,62.02 37.9,107.93 0,37.25 -5.59,66.49 -16.76,87.82 -11.18,21.32 -27.47,37.9 -48.89,49.72 -21.32,11.83 -44.7,17.7 -69.93,17.7 -40.61,0 -73.38,-12.95 -98.43,-38.93 -25.05,-25.98 -37.53,-63.41 -37.53,-112.21zm50.28 0.09c0,37.07 8.11,64.82 24.31,83.16 16.29,18.44 36.69,27.66 61.37,27.66 24.39,0 44.69,-9.22 60.99,-27.75 16.2,-18.53 24.31,-46.75 24.31,-84.65 0,-35.76 -8.2,-62.86 -24.5,-81.2 -16.29,-18.44 -36.59,-27.66 -60.8,-27.66 -24.68,0 -45.08,9.13 -61.37,27.47 -16.2,18.35 -24.31,46 -24.31,82.97zm539.83 -0.09c0,-53.55 14.9,-93.22 44.79,-119.01 24.86,-21.42 55.31,-32.13 91.17,-32.13 39.76,0 72.35,13.04 97.68,39.11 25.24,25.99 37.9,62.02 37.9,107.93 0,37.25 -5.59,66.49 -16.76,87.82 -11.18,21.32 -27.47,37.9 -48.89,49.72 -21.32,11.83 -44.7,17.7 -69.93,17.7 -40.61,0 -73.38,-12.95 -98.43,-38.93 -25.05,-25.98 -37.53,-63.41 -37.53,-112.21zm50.28 0.09c0,37.07 8.11,64.82 24.31,83.16 16.29,18.44 36.69,27.66 61.37,27.66 24.39,0 44.69,-9.22 60.99,-27.75 16.2,-18.53 24.31,-46.75 24.31,-84.65 0,-35.76 -8.2,-62.86 -24.5,-81.2 -16.29,-18.44 -36.59,-27.66 -60.8,-27.66 -24.68,0 -45.08,9.13 -61.37,27.47 -16.2,18.35 -24.31,46 -24.31,82.97zm539.83 -0.09c0,-53.55 14.9,-93.22 44.79,-119.01 24.86,-21.42 55.31,-32.13 91.17,-32.13 39.76,0 72.35,13.04 97.68,39.11 25.24,25.99 37.9,62.02 37.9,107.93 0,37.25 -5.59,66.49 -16.76,87.82 -11.18,21.32 -27.47,37.9 -48.89,49.72 -21.32,11.83 -44.7,17.7 -69.93,17.7 -40.61,0 -73.38,-12.95 -98.43,-38.93 -25.05,-25.98 -37.53,-63.41 -37.53,-112.21zm50.28 0.09c0,37.07 8.11,64.82 24.31,83.16 16.29,18.44 36.69,27.66 61.37,27.66 24.39,0 44.69,-9.22 60.99,-27.75 16.2,-18.53 24.31,-46.75 24.31,-84.65 0,-35.76 -8.2,-62.86 -24.5,-81.2 -16.29,-18.44 -36.59,-27.66 -60.8,-27.66 -24.68,0 -45.08,9.13 -61.37,27.47 -16.2,18.35 -24.31,46 -24.31,82.97zm539.83 -0.09c0,-53.55 14.9,-93.22 44.79,-119.01 24.86,-21.42 55.31,-32.13 91.17,-32.13 39.76,0 72.35,13.04 97.68,39.11 25.24,25.99 37.9,62.02 37.9,107.93 0,37.25 -5.59,66.49 -16.76,87.82 -11.18,21.32 -27.47,37.9 -48.89,49.72 -21.32,11.83 -44.7,17.7 -69.93,17.7 -40.61,0 -73.38,-12.95 -98.43,-38.93 -25.05,-25.98 -37.53,-63.41 -37.53,-112.21zm50.28 0.09c0,37.07 8.11,64.82 24.31,83.16 16.29,18.44 36.69,27.66 61.37,27.66 24.39,0 44.69,-9.22 60.99,-27.75 16.2,-18.53 24.31,-46.75 24.31,-84.65 0,-35.76 -8.2,-62.86 -24.5,-81.2 -16.29,-18.44 -36.59,-27.66 -60.8,-27.66 -24.68,0 -45.08,9.13 -61.37,27.47 -16.2,18.35 -24.31,46 -24.31,82.97zm539.83 -0.09c0,-53.55 14.9,-93.22 44.79,-119.01 24.86,-21.42 55.31,-32.13 91.17,-32.13 39.76,0 72.35,13.04 97.68,39.11 25.24,25.99 37.9,62.02 37.9,107.93 0,37.25 -5.59,66.49 -16.76,87.82 -11.18,21.32 -27.47,37.9 -48.89,49.72 -21.32,11.83 -44.7,17.7 -69.93,17.7 -40.61,0 -73.38,-12.95 -98.43,-38.93 -25.05,-25.98 -37.53,-63.41 -37.53,-112.21zm50.28 0.09c0,37.07 8.11,64.82 24.31,83.16 16.29,18.44 36.69,27.66 61.37,27.66 24.39,0 44.69,-9.22 60.99,-27.75 16.2,-18.53 24.31,-46.75 24.31,-84.65 0,-35.76 -8.2,-62.86 -24.5,-81.2 -16.29,-18.44 -36.59,-27.66 -60.8,-27.66 -24.68,0 -45.08,9.13 -61.37,27.47 -16.2,18.35 -24.31,46 -24.31,82.97zm539.83 -0.09c0,-53.55 14.9,-93.22 44.79,-119.01 24.86,-21.42 55.31,-32.13 91.17,-32.13 39.76,0 72.35,13.04 97.68,39.11 25.24,25.99 37.9,62.02 37.9,107.93 0,37.25 -5.59,66.49 -16.76,87.82 -11.18,21.32 -27.47,37.9 -48.89,49.72 -21.32,11.83 -44.7,17.7 -69.93,17.7 -40.61,0 -73.38,-12.95 -98.43,-38.93 -25.05,-25.98 -37.53,-63.41 -37.53,-112.21zm50.28 0.09c0,37.07 8.11,64.82 24.31,83.16 16.29,18.44 36.69,27.66 61.37,27.66 24.39,0 44.69,-9.22 60.99,-27.75 16.2,-18.53 24.31,-46.75 24.31,-84.65 0,-35.76 -8.2,-62.86 -24.5,-81.2 -16.29,-18.44 -36.59,-27.66 -60.8,-27.66 -24.68,0 -45.08,9.13 -61.37,27.47 -16.2,18.35 -24.31,46 -24.31,82.97zm539.83 -0.09c0,-53.55 14.9,-93.22 44.79,-119.01 24.86,-21.42 55.31,-32.13 91.17,-32.13 39.76,0 72.35,13.04 97.68,39.11 25.24,25.99 37.9,62.02 37.9,107.93 0,37.25 -5.59,66.49 -16.76,87.82 -11.18,21.32 -27.47,37.9 -48.89,49.72 -21.32,11.83 -44.7,17.7 -69.93,17.7 -40.61,0 -73.38,-12.95 -98.43,-38.93 -25.05,-25.98 -37.53,-63.41 -37.53,-112.21zm50.28 0.09c0,37.07 8.11,64.82 24.31,83.16 16.29,18.44 36.69,27.66 61.37,27.66 24.39,0 44.69,-9.22 60.99,-27.75 16.2,-18.53 24.31,-46.75 24.31,-84.65 0,-35.76 -8.2,-62.86 -24.5,-81.2 -16.29,-18.44 -36.59,-27.66 -60.8,-27.66 -24.68,0 -45.08,9.13 -61.37,27.47 -16.2,18.35 -24.31,46 -24.31,82.97zm539.83 -0.09c0,-53.55 14.9,-93.22 44.79,-119.01 24.86,-21.42 55.31,-32.13 91.17,-32.13 39.76,0 72.35,13.04 97.68,39.11 25.24,25.99 37.9,62.02 37.9,107.93 0,37.25 -5.59,66.49 -16.76,87.82 -11.18,21.32 -27.47,37.9 -48.89,49.72 -21.32,11.83 -44.7,17.7 -69.93,17.7 -40.61,0 -73.38,-12.95 -98.43,-38.93 -25.05,-25.98 -37.53,-63.41 -37.53,-112.21zm50.28 0.09c0,37.07 8.11,64.82 24.31,83.16 16.29,18.44 36.69,27.66 61.37,27.66 24.39,0 44.69,-9.22 60.99,-27.75 16.2,-18.53 24.31,-46.75 24.31,-84.65 0,-35.76 -8.2,-62.86 -24.5,-81.2 -16.29,-18.44 -36.59,-27.66 -60.8,-27.66 -24.68,0 -45.08,9.13 -61.37,27.47 -16.2,18.35 -24.31,46 -24.31,82.97zm539.83 -0.09c0,-53.55 14.9,-93.22 44.79,-119.01 24.86,-21.42 55.31,-32.13 91.17,-32.13 39.76,0 72.35,13.04 97.68,39.11 25.24,25.99 37.9,62.02 37.9,107.93 0,37.25 -5.59,66.49 -16.76,87.82 -11.18,21.32 -27.47,37.9 -48.89,49.72 -21.32,11.83 -44.7,17.7 -69.93,17.7 -40.61,0 -73.38,-12.95 -98.43,-38.93 -25.05,-25.98 -37.53,-63.41 -37.53,-112.21zm50.28 0.09c0,37.07 8.11,64.82 24.31,83.16 16.29,18.44 36.69,27.66 61.37,27.66 24.39,0 44.69,-9.22 60.99,-27.75 16.2,-18.53 24.31,-46.75 24.31,-84.65 0,-35.76 -8.2,-62.86 -24.5,-81.2 -16.29,-18.44 -36.59,-27.66 -60.8,-27.66 -24.68,0 -45.08,9.13 -61.37,27.47 -16.2,18.35 -24.31,46 -24.31,82.97z"/>
   </g>
   <path class="fil2" d="M844.01 3824.8l-89.65 0 0 163.05 -42.46 0 -243.26 -171.43 0 -37.75 243.26 0 0 -50.85 42.46 0 0 50.85 89.65 0 0 46.13zm-132.11 0l-168.9 0 168.9 117.7 0 -117.7zm88.07 -464.41l44.04 0 0 248.5c-11.1,0.35 -21.76,-1.49 -32.07,-5.42 -16.86,-6.38 -33.55,-16.6 -49.89,-30.67 -16.34,-14.07 -35.21,-34.16 -56.62,-60.29 -33.46,-40.63 -59.94,-68.24 -79.51,-82.66 -19.57,-14.5 -38.1,-21.76 -55.57,-21.76 -18.27,0 -33.64,6.56 -46.23,19.66 -12.49,13.11 -18.78,30.24 -18.78,51.29 0,22.29 6.64,40.11 19.92,53.48 13.19,13.37 31.54,20.1 55.05,20.27l-4.72 47.18c-35.3,-3.23 -62.21,-15.46 -80.74,-36.61 -18.52,-21.23 -27.78,-49.63 -27.78,-85.36 0,-36 9.96,-64.58 29.97,-85.55 20.01,-21.05 44.82,-31.54 74.35,-31.54 15.03,0 29.8,3.06 44.3,9.26 14.6,6.12 29.89,16.34 45.96,30.59 15.99,14.33 38.1,38 66.06,71.03 23.24,27.7 38.97,45.53 47.27,53.39 8.3,7.86 16.6,14.33 24.99,19.48l0 -184.27zm-141.2 -128.37c-44.3,0 -80.12,-4.54 -107.21,-13.63 -27.17,-9.17 -48.06,-22.72 -62.65,-40.72 -14.59,-17.91 -21.84,-40.54 -21.84,-67.8 0,-20.1 4.02,-37.75 12.14,-53.04 8.13,-15.2 19.84,-27.78 35.13,-37.57 15.2,-9.79 33.81,-17.48 55.74,-23.07 21.94,-5.68 51.56,-8.47 88.69,-8.47 44.04,0 79.69,4.54 106.78,13.54 27.17,9 48.05,22.54 62.73,40.54 14.68,17.91 22.02,40.63 22.02,68.07 0,36.09 -12.84,64.48 -38.62,85.1 -31.45,24.73 -82.4,37.05 -152.91,37.05zm0.18 -47.18c61.77,0 102.84,-7.17 123.11,-21.58 20.36,-14.42 30.49,-32.25 30.49,-53.39 0,-21.15 -10.22,-38.97 -30.58,-53.39 -20.44,-14.42 -61.42,-21.58 -123.02,-21.58 -61.78,0 -102.85,7.16 -123.12,21.58 -20.36,14.33 -30.49,32.33 -30.49,53.91 0,21.15 9,38.1 26.91,50.77 22.81,15.81 65.1,23.68 126.7,23.68zm-98.56 -562.46l3.67 45.61c-18.09,4.11 -31.29,9.97 -39.5,17.57 -13.19,12.49 -19.75,27.96 -19.75,46.31 0,14.76 4.11,27.87 12.32,39.14 10.58,14.51 25.95,25.87 46.23,34.34 20.35,8.39 49.28,12.76 86.76,13.11 -16.86,-11.1 -29.44,-24.73 -37.57,-40.81 -8.21,-16.07 -12.32,-32.85 -12.32,-50.5 0,-30.76 11.36,-56.97 33.99,-78.64 22.63,-21.58 51.81,-32.42 87.72,-32.42 23.6,0 45.44,5.07 65.71,15.21 20.27,10.22 35.74,24.11 46.49,41.94 10.74,17.73 16.16,37.92 16.16,60.46 0,38.36 -14.15,69.73 -42.38,94.02 -28.22,24.2 -74.79,36.35 -139.62,36.35 -72.53,0 -125.3,-13.46 -158.24,-40.28 -28.66,-23.42 -42.99,-54.96 -42.99,-94.72 0,-29.53 8.3,-53.82 24.81,-72.7 16.52,-18.87 39.32,-30.23 68.51,-33.99zm161.99 188.74c15.9,0 31.11,-3.41 45.61,-10.14 14.51,-6.73 25.52,-16.16 33.12,-28.13 7.6,-12.06 11.44,-24.82 11.44,-38.36 0,-19.66 -7.86,-36.44 -23.59,-50.33 -15.73,-13.89 -37.05,-20.88 -64.04,-20.88 -25.96,0 -46.4,6.9 -61.34,20.62 -14.94,13.72 -22.46,31.19 -22.46,52.42 0,20.8 7.52,38.54 22.46,53.04 14.94,14.51 34.51,21.76 58.8,21.76zm34.6 -326.01l-3.67 -44.04c20.8,-3.76 35.83,-10.92 45.18,-21.5 9.35,-10.57 14.06,-24.11 14.06,-40.71 0,-14.16 -3.23,-26.57 -9.78,-37.31 -6.47,-10.75 -15.12,-19.49 -26.04,-26.22 -10.83,-6.73 -25.51,-12.4 -43.95,-17.04 -18.44,-4.63 -37.22,-6.9 -56.36,-6.9 -2.01,0 -5.15,0.09 -9.26,0.26 14.68,9.18 26.65,21.76 35.74,37.66 9.17,15.91 13.71,33.21 13.71,51.73 0,31.02 -11.27,57.23 -33.81,78.73 -22.46,21.4 -52.16,32.15 -89.04,32.15 -38.09,0 -68.67,-11.18 -91.92,-33.64 -23.15,-22.37 -34.77,-50.42 -34.77,-84.23 0,-24.29 6.55,-46.57 19.74,-66.84 13.11,-20.19 31.81,-35.48 56.19,-45.96 24.29,-10.49 59.5,-15.73 105.55,-15.73 47.97,0 86.15,5.15 114.55,15.55 28.48,10.4 50.07,25.95 64.92,46.49 14.85,20.53 22.28,44.56 22.28,72.17 0,29.36 -8.12,53.3 -24.46,71.91 -16.34,18.52 -39.32,29.71 -68.86,33.47zm-165.58 -188.21c-26.38,0 -47.35,6.99 -62.82,20.97 -15.47,13.89 -23.24,30.84 -23.24,50.76 0,20.62 8.3,38.45 24.99,53.48 16.69,15.11 38.36,22.63 64.92,22.63 23.85,0 43.25,-7.17 58.1,-21.41 14.95,-14.33 22.37,-32.15 22.37,-53.39 0,-21.32 -7.42,-38.79 -22.37,-52.51 -14.85,-13.72 -35.56,-20.53 -61.95,-20.53zm208.57 -416.71l44.04 0 0 248.5c-11.1,0.35 -21.76,-1.49 -32.07,-5.42 -16.86,-6.38 -33.55,-16.6 -49.89,-30.67 -16.34,-14.07 -35.21,-34.16 -56.62,-60.29 -33.46,-40.63 -59.94,-68.24 -79.51,-82.66 -19.57,-14.5 -38.1,-21.76 -55.57,-21.76 -18.27,0 -33.64,6.56 -46.23,19.66 -12.49,13.11 -18.78,30.24 -18.78,51.29 0,22.29 6.64,40.11 19.92,53.48 13.19,13.37 31.54,20.1 55.05,20.27l-4.72 47.18c-35.3,-3.23 -62.21,-15.46 -80.74,-36.61 -18.52,-21.23 -27.78,-49.63 -27.78,-85.36 0,-36 9.96,-64.58 29.97,-85.55 20.01,-21.05 44.82,-31.54 74.35,-31.54 15.03,0 29.8,3.06 44.3,9.26 14.6,6.12 29.89,16.34 45.96,30.59 15.99,14.33 38.1,38 66.06,71.03 23.24,27.7 38.97,45.53 47.27,53.39 8.3,7.86 16.6,14.33 24.99,19.48l0 -184.27zm44.04 -275.69l-89.65 0 0 163.05 -42.46 0 -243.26 -171.43 0 -37.75 243.26 0 0 -50.85 42.46 0 0 50.85 89.65 0 0 46.13zm-132.11 0l-168.9 0 168.9 117.7 0 -117.7zm32.5 -222.73l-6.29 -46.13c26.21,-5.33 45.09,-14.25 56.62,-26.92 11.53,-12.67 17.3,-28.22 17.3,-46.65 0,-21.85 -7.51,-40.29 -22.54,-55.14 -15.03,-14.85 -33.64,-22.28 -55.84,-22.28 -21.14,0 -38.62,6.9 -52.42,20.79 -13.72,13.81 -20.62,31.37 -20.62,52.78 0,8.74 1.74,19.57 5.15,32.59l-40.37 -5.15c0.35,-3.06 0.53,-5.6 0.53,-7.43 0,-19.75 -5.16,-37.4 -15.38,-53.21 -10.22,-15.73 -25.95,-23.59 -47.18,-23.59 -16.87,0 -30.85,5.76 -41.94,17.21 -11.1,11.45 -16.61,26.21 -16.61,44.3 0,18 5.68,32.94 17.04,44.91 11.36,11.97 28.4,19.66 51.12,23.07l-8.39 46.13c-30.93,-5.68 -54.96,-18.43 -72,-38.44 -17.04,-19.92 -25.51,-44.83 -25.51,-74.54 0,-20.44 4.37,-39.31 13.19,-56.53 8.74,-17.3 20.71,-30.49 35.83,-39.58 15.2,-9.17 31.28,-13.72 48.31,-13.72 16.17,0 30.85,4.37 44.13,13.02 13.28,8.74 23.85,21.67 31.72,38.71 5.07,-22.19 15.73,-39.41 31.89,-51.73 16.08,-12.23 36.35,-18.35 60.55,-18.35 32.77,0 60.64,11.97 83.45,35.83 22.8,23.94 34.16,54.17 34.16,90.69 0,32.95 -9.87,60.29 -29.53,82.05 -19.66,21.85 -45.09,34.25 -76.37,37.31z"/>
   <path class="fil2" d="M6920.29 1276.07l89.65 0 0 -163.05 42.46 0 243.26 171.43 0 37.75 -243.26 0 0 50.85 -42.46 0 0 -50.85 -89.65 0 0 -46.13zm132.11 0l168.9 0 -168.9 -117.7 0 117.7zm-88.07 464.41l-44.04 0 0 -248.5c11.1,-0.35 21.76,1.49 32.07,5.42 16.86,6.38 33.55,16.6 49.89,30.67 16.34,14.07 35.21,34.16 56.62,60.29 33.46,40.63 59.94,68.24 79.51,82.66 19.57,14.5 38.1,21.76 55.57,21.76 18.27,0 33.64,-6.56 46.23,-19.66 12.49,-13.11 18.78,-30.24 18.78,-51.29 0,-22.29 -6.64,-40.11 -19.92,-53.48 -13.19,-13.37 -31.54,-20.1 -55.05,-20.27l4.72 -47.18c35.3,3.23 62.21,15.46 80.74,36.61 18.52,21.23 27.78,49.63 27.78,85.36 0,36 -9.96,64.58 -29.97,85.55 -20.01,21.05 -44.82,31.54 -74.35,31.54 -15.03,0 -29.8,-3.06 -44.3,-9.26 -14.6,-6.12 -29.89,-16.34 -45.96,-30.59 -15.99,-14.33 -38.1,-38 -66.06,-71.03 -23.24,-27.7 -38.97,-45.53 -47.27,-53.39 -8.3,-7.86 -16.6,-14.33 -24.99,-19.48l0 184.27zm141.2 128.37c44.3,0 80.12,4.54 107.21,13.63 27.17,9.17 48.06,22.72 62.65,40.72 14.59,17.91 21.84,40.54 21.84,67.8 0,20.1 -4.02,37.75 -12.14,53.04 -8.13,15.2 -19.84,27.78 -35.13,37.57 -15.2,9.79 -33.81,17.48 -55.74,23.07 -21.94,5.68 -51.56,8.47 -88.69,8.47 -44.04,0 -79.69,-4.54 -106.78,-13.54 -27.17,-9 -48.05,-22.54 -62.73,-40.54 -14.68,-17.91 -22.02,-40.63 -22.02,-68.07 0,-36.09 12.84,-64.48 38.62,-85.1 31.45,-24.73 82.4,-37.05 152.91,-37.05zm-0.18 47.18c-61.77,0 -102.84,7.17 -123.11,21.58 -20.36,14.42 -30.49,32.25 -30.49,53.39 0,21.15 10.22,38.97 30.58,53.39 20.44,14.42 61.42,21.58 123.02,21.58 61.78,0 102.85,-7.16 123.12,-21.58 20.36,-14.33 30.49,-32.33 30.49,-53.91 0,-21.15 -9,-38.1 -26.91,-50.77 -22.81,-15.81 -65.1,-23.68 -126.7,-23.68zm98.56 562.46l-3.67 -45.61c18.09,-4.11 31.29,-9.97 39.5,-17.57 13.19,-12.49 19.75,-27.96 19.75,-46.31 0,-14.76 -4.11,-27.87 -12.32,-39.14 -10.58,-14.51 -25.95,-25.87 -46.23,-34.34 -20.35,-8.39 -49.28,-12.76 -86.76,-13.11 16.86,11.1 29.44,24.73 37.57,40.81 8.21,16.07 12.32,32.85 12.32,50.5 0,30.76 -11.36,56.97 -33.99,78.64 -22.63,21.58 -51.81,32.42 -87.72,32.42 -23.6,0 -45.44,-5.07 -65.71,-15.21 -20.27,-10.22 -35.74,-24.11 -46.49,-41.94 -10.74,-17.73 -16.16,-37.92 -16.16,-60.46 0,-38.36 14.15,-69.73 42.38,-94.02 28.22,-24.2 74.79,-36.35 139.62,-36.35 72.53,0 125.3,13.46 158.24,40.28 28.66,23.42 42.99,54.96 42.99,94.72 0,29.53 -8.3,53.82 -24.81,72.7 -16.52,18.87 -39.32,30.23 -68.51,33.99zm-161.99 -188.74c-15.9,0 -31.11,3.41 -45.61,10.14 -14.51,6.73 -25.52,16.16 -33.12,28.13 -7.6,12.06 -11.44,24.82 -11.44,38.36 0,19.66 7.86,36.44 23.59,50.33 15.73,13.89 37.05,20.88 64.04,20.88 25.96,0 46.4,-6.9 61.34,-20.62 14.94,-13.72 22.46,-31.19 22.46,-52.42 0,-20.8 -7.52,-38.54 -22.46,-53.04 -14.94,-14.51 -34.51,-21.76 -58.8,-21.76zm-34.6 326.01l3.67 44.04c-20.8,3.76 -35.83,10.92 -45.18,21.5 -9.35,10.57 -14.06,24.11 -14.06,40.71 0,14.16 3.23,26.57 9.78,37.31 6.47,10.75 15.12,19.49 26.04,26.22 10.83,6.73 25.51,12.4 43.95,17.04 18.44,4.63 37.22,6.9 56.36,6.9 2.01,0 5.15,-0.09 9.26,-0.26 -14.68,-9.18 -26.65,-21.76 -35.74,-37.66 -9.17,-15.91 -13.71,-33.21 -13.71,-51.73 0,-31.02 11.27,-57.23 33.81,-78.73 22.46,-21.4 52.16,-32.15 89.04,-32.15 38.09,0 68.67,11.18 91.92,33.64 23.15,22.37 34.77,50.42 34.77,84.23 0,24.29 -6.55,46.57 -19.74,66.84 -13.11,20.19 -31.81,35.48 -56.19,45.96 -24.29,10.49 -59.5,15.73 -105.55,15.73 -47.97,0 -86.15,-5.15 -114.55,-15.55 -28.48,-10.4 -50.07,-25.95 -64.92,-46.49 -14.85,-20.53 -22.28,-44.56 -22.28,-72.17 0,-29.36 8.12,-53.3 24.46,-71.91 16.34,-18.52 39.32,-29.71 68.86,-33.47zm165.58 188.21c26.38,0 47.35,-6.99 62.82,-20.97 15.47,-13.89 23.24,-30.84 23.24,-50.76 0,-20.62 -8.3,-38.45 -24.99,-53.48 -16.69,-15.11 -38.36,-22.63 -64.92,-22.63 -23.85,0 -43.25,7.17 -58.1,21.41 -14.95,14.33 -22.37,32.15 -22.37,53.39 0,21.32 7.42,38.79 22.37,52.51 14.85,13.72 35.56,20.53 61.95,20.53zm-208.57 416.71l-44.04 0 0 -248.5c11.1,-0.35 21.76,1.49 32.07,5.42 16.86,6.38 33.55,16.6 49.89,30.67 16.34,14.07 35.21,34.16 56.62,60.29 33.46,40.63 59.94,68.24 79.51,82.66 19.57,14.5 38.1,21.76 55.57,21.76 18.27,0 33.64,-6.56 46.23,-19.66 12.49,-13.11 18.78,-30.24 18.78,-51.29 0,-22.29 -6.64,-40.11 -19.92,-53.48 -13.19,-13.37 -31.54,-20.1 -55.05,-20.27l4.72 -47.18c35.3,3.23 62.21,15.46 80.74,36.61 18.52,21.23 27.78,49.63 27.78,85.36 0,36 -9.96,64.58 -29.97,85.55 -20.01,21.05 -44.82,31.54 -74.35,31.54 -15.03,0 -29.8,-3.06 -44.3,-9.26 -14.6,-6.12 -29.89,-16.34 -45.96,-30.59 -15.99,-14.33 -38.1,-38 -66.06,-71.03 -23.24,-27.7 -38.97,-45.53 -47.27,-53.39 -8.3,-7.86 -16.6,-14.33 -24.99,-19.48l0 184.27zm-44.04 275.69l89.65 0 0 -163.05 42.46 0 243.26 171.43 0 37.75 -243.26 0 0 50.85 -42.46 0 0 -50.85 -89.65 0 0 -46.13zm132.11 0l168.9 0 -168.9 -117.7 0 117.7zm-32.5 222.73l6.29 46.13c-26.21,5.33 -45.09,14.25 -56.62,26.92 -11.53,12.67 -17.3,28.22 -17.3,46.65 0,21.85 7.51,40.29 22.54,55.14 15.03,14.85 33.64,22.28 55.84,22.28 21.14,0 38.62,-6.9 52.42,-20.79 13.72,-13.81 20.62,-31.37 20.62,-52.78 0,-8.74 -1.74,-19.57 -5.15,-32.59l40.37 5.15c-0.35,3.06 -0.53,5.6 -0.53,7.43 0,19.75 5.16,37.4 15.38,53.21 10.22,15.73 25.95,23.59 47.18,23.59 16.87,0 30.85,-5.76 41.94,-17.21 11.1,-11.45 16.61,-26.21 16.61,-44.3 0,-18 -5.68,-32.94 -17.04,-44.91 -11.36,-11.97 -28.4,-19.66 -51.12,-23.07l8.39 -46.13c30.93,5.68 54.96,18.43 72,38.44 17.04,19.92 25.51,44.83 25.51,74.54 0,20.44 -4.37,39.31 -13.19,56.53 -8.74,17.3 -20.71,30.49 -35.83,39.58 -15.2,9.17 -31.28,13.72 -48.31,13.72 -16.17,0 -30.85,-4.37 -44.13,-13.02 -13.28,-8.74 -23.85,-21.67 -31.72,-38.71 -5.07,22.19 -15.73,39.41 -31.89,51.73 -16.08,12.23 -36.35,18.35 -60.55,18.35 -32.77,0 -60.64,-11.97 -83.45,-35.83 -22.8,-23.94 -34.16,-54.17 -34.16,-90.69 0,-32.95 9.87,-60.29 29.53,-82.05 19.66,-21.85 45.09,-34.25 76.37,-37.31z"/>
   <g>
    <path class="fil3" d="M1199.53 1204.79c4.22,-3.01 8.58,-6.02 13.1,-9.03 4.51,-3.01 9.47,-5.41 14.89,-7.22 5.42,-1.8 10.84,-3.31 16.25,-4.51 5.42,-1.21 11.14,-1.81 17.16,-1.81l9.02 -0.9 0 -42.43c0,-6.02 0.61,-12.34 1.81,-18.96 1.2,-6.62 3.01,-12.94 5.42,-18.96 3.01,-6.62 6.32,-12.64 9.93,-18.06 3.61,-5.42 7.82,-10.53 12.64,-15.35 4.81,-4.81 10.08,-9.03 15.8,-12.64 5.72,-3.61 11.58,-6.62 17.6,-9.03 6.02,-2.4 12.19,-4.21 18.51,-5.41 6.32,-1.21 12.79,-1.81 19.41,-1.81 0.6,0 1.21,0 1.81,0 0.6,0 1.2,0 1.8,0 0.61,0 1.06,0 1.36,0 0.3,0 0.75,0 1.35,0 0,0 0.15,0 0.45,0 0.3,0 0.76,0 1.36,0 3.01,0.6 5.87,1.21 8.57,1.81 2.71,0.6 5.57,1.2 8.58,1.8 2.41,0.61 5.12,1.36 8.13,2.26 3.01,0.9 5.71,1.96 8.12,3.16 5.42,2.41 10.54,5.27 15.35,8.58 4.82,3.31 9.33,7.37 13.54,12.19 4.82,4.81 9.03,9.93 12.64,15.34 3.61,5.42 6.62,11.44 9.03,18.06 3.01,6.02 5.12,12.49 6.32,19.41 1.2,6.92 1.81,13.69 1.81,20.31l0 39.73 11.73 0c5.42,0.6 10.84,1.5 16.25,2.71 5.42,1.2 10.84,2.71 16.25,4.51 4.82,2.41 9.48,5.12 14,8.13 4.51,3.01 8.88,6.32 13.09,9.93 4.21,4.21 7.82,8.58 10.83,13.09 3.01,4.51 5.72,9.48 8.13,14.9 1.2,2.4 2.11,4.96 2.71,7.67 0.6,2.71 1.2,5.27 1.8,7.67 0.61,3.01 1.06,5.72 1.36,8.13 0.3,2.41 0.45,5.12 0.45,8.13 0,5.41 -0.6,10.53 -1.81,15.34 -1.2,4.82 -2.71,9.63 -4.51,14.45 -1.81,4.81 -4.21,9.48 -7.22,13.99 -3.01,4.52 -6.32,8.88 -9.93,13.09 -4.22,4.22 -8.58,7.83 -13.1,10.84 -4.51,3.01 -9.48,5.72 -14.89,8.12 -5.42,2.41 -10.84,4.37 -16.25,5.87 -5.42,1.51 -11.14,2.26 -17.16,2.26l-12.64 -0.9 0 226.61c0,7.22 -0.6,13.99 -1.8,20.31 -1.21,6.32 -3.31,12.79 -6.32,19.41 -2.41,6.02 -5.42,11.89 -9.03,17.61 -3.61,5.71 -7.83,10.98 -12.64,15.79 -4.82,4.82 -9.93,9.03 -15.35,12.64 -5.42,3.62 -11.43,6.32 -18.05,8.13 -6.02,2.41 -12.19,4.21 -18.51,5.42 -6.32,1.2 -12.79,1.8 -19.41,1.8 -0.61,0 -1.06,0 -1.36,0 -0.3,0 -0.45,0 -0.45,0 -0.6,0 -1.05,0 -1.35,0 -0.3,0 -0.76,0 -1.36,0 -0.6,0 -1.2,0 -1.8,0 -0.61,0 -1.21,0 -1.81,0 -6.02,-0.6 -11.74,-1.65 -17.15,-3.16 -5.42,-1.5 -10.84,-2.86 -16.25,-4.06 -5.42,-2.41 -10.54,-5.42 -15.35,-9.03 -4.82,-3.61 -9.33,-7.52 -13.54,-11.74 -4.82,-4.81 -9.03,-10.08 -12.64,-15.79 -3.62,-5.72 -6.93,-11.59 -9.94,-17.61 -2.4,-6.62 -4.21,-13.09 -5.41,-19.41 -1.21,-6.32 -1.81,-13.09 -1.81,-20.31l0 -228.42 -7.22 0c-6.02,0.6 -12.04,0.3 -18.06,-0.9 -6.02,-1.21 -11.73,-3.01 -17.15,-5.42 -6.02,-2.41 -11.44,-5.27 -16.25,-8.58 -4.82,-3.31 -9.33,-7.07 -13.54,-11.28 -3.01,-3.61 -5.87,-7.68 -8.58,-12.19 -2.71,-4.51 -4.97,-9.18 -6.77,-13.99 -1.81,-4.82 -3.31,-9.79 -4.52,-14.9 -1.2,-5.12 -1.8,-10.38 -1.8,-15.8 0,-3.01 0.15,-5.72 0.45,-8.13 0.3,-2.4 0.75,-5.11 1.35,-8.12 0.61,-2.41 1.36,-4.97 2.26,-7.68 0.9,-2.7 1.96,-5.26 3.16,-7.67 2.41,-4.81 5.12,-9.48 8.13,-13.99 3.01,-4.52 6.01,-8.88 9.02,-13.09l0 -0.91zm472.18 473.09c-13.84,-0.61 -26.63,-3.16 -38.37,-7.68 -11.73,-4.51 -22.72,-11.58 -32.95,-21.22 -9.63,-9.63 -16.85,-20.31 -21.67,-32.05 -4.81,-11.73 -7.22,-24.52 -7.22,-38.37l0 -302.44c0,-13.25 2.56,-25.88 7.67,-37.92 5.12,-12.04 12.49,-22.87 22.12,-32.5 10.24,-10.24 21.22,-17.61 32.96,-22.12 11.73,-4.52 24.52,-6.78 38.37,-6.78 13.84,0.61 26.63,3.32 38.37,8.13 11.73,4.82 22.42,12.34 32.05,22.57 10.23,9.63 17.75,20.31 22.57,32.05 4.81,11.74 7.22,24.53 7.22,38.37l0 298.84c0,14.44 -2.41,27.53 -7.22,39.27 -4.82,11.74 -12.34,22.72 -22.57,32.95 -9.63,9.64 -20.47,16.71 -32.5,21.22 -12.04,4.52 -24.98,6.77 -38.83,6.77l0 0.91zm-74.93 -552.54c-4.82,-4.21 -9.03,-9.33 -12.64,-15.34 -3.61,-6.02 -6.92,-12.34 -9.93,-18.96 -2.41,-6.62 -4.36,-13.25 -5.87,-19.87 -1.5,-6.62 -2.26,-13.54 -2.26,-20.76 0,-7.22 0.76,-14.3 2.26,-21.22 1.51,-6.92 3.46,-13.69 5.87,-20.31 3.01,-6.62 6.47,-12.79 10.38,-18.51 3.91,-5.72 8.28,-10.98 13.09,-15.8 4.82,-4.21 9.63,-7.97 14.45,-11.28 4.81,-3.31 9.93,-6.17 15.35,-8.58 5.41,-3.01 10.98,-5.27 16.7,-6.77 5.72,-1.51 11.58,-2.56 17.6,-3.16 0.61,0 1.06,0 1.36,0 0.3,0 0.75,-0.3 1.35,-0.91 0,0 0.15,0 0.45,0 0.3,0 0.76,0 1.36,0 1.2,0 2.25,0 3.16,0 0.9,0 1.65,0 2.25,0 6.63,0.61 13.4,1.51 20.32,2.71 6.92,1.21 13.39,3.31 19.41,6.32 6.62,2.41 12.79,5.57 18.51,9.48 5.72,3.91 11.28,8.58 16.7,14 4.81,5.41 9.18,10.98 13.09,16.7 3.91,5.72 7.07,11.89 9.48,18.51 3.01,6.62 5.12,13.39 6.32,20.31 1.2,6.92 1.81,13.69 1.81,20.31 0,0.61 0,1.36 0,2.26 0,0.9 0,1.96 0,3.16 0,0.6 0,1.05 0,1.36 0,0.3 0,0.45 0,0.45 -0.61,0.6 -0.91,1.05 -0.91,1.35 0,0.3 0,0.75 0,1.36 -0.6,6.01 -1.65,11.88 -3.16,17.6 -1.5,5.72 -3.76,11.29 -6.77,16.7 -2.41,5.42 -5.26,10.54 -8.58,15.35 -3.31,4.82 -7.07,9.63 -11.28,14.45 -5.42,5.41 -10.98,9.93 -16.7,13.54 -5.72,3.61 -11.89,6.92 -18.51,9.93 -6.62,2.41 -13.39,4.36 -20.31,5.87 -6.93,1.5 -13.7,1.95 -20.32,1.35 -0.6,0 -1.35,0 -2.26,0 -0.9,0 -1.95,0 -3.16,0 -0.6,0 -1.05,0 -1.35,0 -0.3,0 -0.45,0 -0.45,0 -0.6,0 -1.05,-0.15 -1.36,-0.45 -0.3,-0.3 -0.75,-0.45 -1.35,-0.45 -6.02,0 -11.89,-0.75 -17.6,-2.26 -5.72,-1.5 -11.29,-3.46 -16.71,-5.87 -5.41,-3.01 -10.53,-6.32 -15.34,-9.93 -4.82,-3.61 -9.64,-7.52 -14.45,-11.73l0 -0.91zm272.66 447.81c-6.02,-7.83 -11.59,-15.8 -16.71,-23.93 -5.11,-8.12 -9.48,-16.7 -13.09,-25.73 -4.21,-8.42 -7.67,-17.15 -10.38,-26.18 -2.71,-9.03 -4.97,-18.06 -6.77,-27.09 -0.6,-1.8 -1.06,-3.61 -1.36,-5.41 -0.3,-1.81 -0.45,-3.61 -0.45,-5.42 -0.6,-1.2 -0.9,-2.71 -0.9,-4.51 0,-1.81 0,-3.61 0,-5.42 -0.6,-3.01 -0.9,-6.17 -0.9,-9.48 0,-3.31 0,-6.77 0,-10.38 0,0 0,0 0,0 0,0 0,0 0,0 0,0 0,-0.15 0,-0.45 0,-0.31 0,-0.76 0,-1.36 0,0 0,0 0,0 0,0 0,-0.3 0,-0.9 0,0 0,0 0,0 0,0 0,0 0,0 0,0 0,0 0,0 0,0 0,-0.3 0,-0.9 0,0 0,0 0,0 0,0 0,0 0,0 0,-1.81 0,-3.77 0,-5.87 0,-2.11 0,-4.37 0,-6.77 0,-1.81 0.15,-3.77 0.45,-5.87 0.3,-2.11 0.75,-4.37 1.35,-6.77 1.21,-11.44 3.46,-22.72 6.77,-33.86 3.31,-11.13 7.68,-22.42 13.09,-33.86 4.82,-11.43 10.69,-22.42 17.61,-32.95 6.92,-10.53 14.29,-20.61 22.12,-30.24 3.01,-3.01 6.02,-6.17 9.03,-9.48 3.01,-3.31 6.02,-6.47 9.03,-9.48 1.8,-1.21 3.46,-2.56 4.96,-4.07 1.51,-1.5 3.16,-3.16 4.97,-4.96 1.8,-1.21 3.61,-2.56 5.41,-4.06 1.81,-1.51 3.62,-2.86 5.42,-4.07 11.44,-8.42 23.47,-16.1 36.11,-23.02 12.64,-6.92 26.19,-12.49 40.63,-16.7 13.84,-4.82 28.74,-8.13 44.69,-9.93 15.95,-1.81 32.65,-2.71 50.11,-2.71 3.01,0 6.17,0 9.48,0 3.31,0 6.77,0 10.38,0 3.61,0 7.22,0.15 10.83,0.45 3.62,0.3 7.23,0.75 10.84,1.35 26.48,2.41 49.2,6.78 68.16,13.1 18.96,6.32 34.76,14.59 47.4,24.82 12.04,9.63 21.07,20.32 27.09,32.05 6.01,11.74 9.02,24.23 9.02,37.47 0,0.6 0,1.21 0,1.81 0,0.6 0,1.2 0,1.8 0,0.6 0,1.21 0,1.81 0,0.6 0,1.2 0,1.8 0,0.61 0,1.06 0,1.36 0,0.3 0,0.75 0,1.35 -0.6,0.6 -0.9,1.06 -0.9,1.36 0,0.3 0,0.45 0,0.45 0,0.6 0,1.2 0,1.8 0,0.61 0,1.21 0,1.81 -1.8,11.44 -5.11,21.37 -9.93,29.79 -4.82,8.43 -11.13,15.95 -18.96,22.57 -7.82,6.02 -16.4,10.69 -25.73,14 -9.33,3.31 -19.71,4.96 -31.15,4.96 0,0 0,0 0,0 0,0 0,0 0,0 -0.6,0 -0.9,0 -0.9,0 0,0 0,0 0,0 0,0 0,0 0,0 0,0 0,0 0,0 -0.6,0 -0.9,0 -0.9,0 0,0 0,0 0,0 -0.61,0 -1.06,0 -1.36,0 -0.3,0 -0.45,0 -0.45,0 0,0 0,0 0,0 0,0 0,0 0,0 -1.2,0 -2.56,0 -4.06,0 -1.51,0 -2.86,0 -4.06,0 -1.21,0 -2.41,-0.15 -3.62,-0.45 -1.2,-0.3 -2.4,-0.75 -3.61,-1.35l-4.51 -1.81 -23.47 -5.42 -11.74 -2.7 -18.96 -3.62c-2.41,0 -4.67,-0.15 -6.77,-0.45 -2.11,-0.3 -4.06,-0.45 -5.87,-0.45 -1.2,0 -2.41,0 -3.61,0 -1.21,0 -2.11,-0.3 -2.71,-0.9 -1.2,0 -2.26,0 -3.16,0 -0.9,0 -1.96,0 -3.16,0 -12.04,0.6 -22.87,2.41 -32.5,5.42 -9.63,3.01 -17.76,7.82 -24.38,14.44 -6.62,6.02 -11.58,13.09 -14.9,21.22 -3.31,8.12 -4.96,17 -4.96,26.63 0,0.6 0,1.05 0,1.36 0,0.3 0,0.75 0,1.35 0,0.6 0,1.05 0,1.35 0,0.31 0,0.76 0,1.36 0.6,6.02 1.8,11.74 3.61,17.15 1.81,5.42 3.91,10.54 6.32,15.35 3.01,4.21 6.47,8.43 10.38,12.64 3.92,4.21 8.88,7.82 14.9,10.83 3.01,1.81 6.02,3.16 9.03,4.07 3.01,0.9 6.02,1.95 9.03,3.16 3.01,0.6 6.32,1.2 9.93,1.8 3.61,0.6 7.52,0.91 11.73,0.91 2.41,0 4.67,0 6.78,0 2.1,0 4.36,-0.31 6.77,-0.91 2.4,0 4.96,-0.15 7.67,-0.45 2.71,-0.3 5.27,-0.75 7.67,-1.35l2.71 -0.91 31.6 -7.22c1.21,0.6 2.56,0.75 4.06,0.45 1.51,-0.3 2.86,-0.75 4.07,-1.35 0.6,0 1.2,0 1.8,0 0.61,0 1.51,-0.3 2.71,-0.9 0.6,0 1.36,0 2.26,0 0.9,0 1.65,0 2.26,0 0.6,0 1.2,0 1.8,0 0.6,0 1.51,-0.31 2.71,-0.91 0.6,0 1.2,0 1.81,0 0.6,0 1.2,0 1.8,0 0.6,0 1.21,0 1.81,0 0.6,0 1.5,-0.3 2.71,-0.9 0.6,0 1.35,0 2.25,0 0.91,0 1.66,0 2.26,0 0.6,0 1.2,0 1.81,0 0.6,0 1.2,0 1.8,0 0.6,0 1.05,0 1.36,0 0.3,0 0.75,0 1.35,0 0,0 0.15,0 0.45,0 0.3,0 0.75,0 1.36,0 12.03,0 23.32,2.11 33.85,6.32 10.53,4.21 20.01,10.53 28.44,18.96 8.43,7.82 14.75,16.85 18.96,27.08 4.21,10.24 6.32,21.37 6.32,33.41 0,0.6 0,1.2 0,1.8 0,0.61 0,0.91 0,0.91 0,0.6 0,1.2 0,1.8 0,0.6 0,1.21 0,1.81 0,0.6 0,1.2 0,1.8 0,0.61 0,0.91 0,0.91 -0.6,0.6 -0.9,1.2 -0.9,1.8 0,0.6 0,1.21 0,1.81 -2.41,13.84 -7.83,26.48 -16.25,37.92 -8.43,11.43 -19.87,21.67 -34.31,30.69 -15.05,9.03 -34.31,15.35 -57.78,18.96 -23.48,3.61 -51.16,5.42 -83.06,5.42 -25.28,-0.6 -48.76,-2.86 -70.42,-6.77 -21.67,-3.91 -41.83,-10.38 -60.49,-19.41 -18.66,-8.43 -35.82,-18.96 -51.46,-31.6 -15.65,-12.64 -29.5,-27.39 -41.53,-44.24l0 -0.9zm483.92 76.74c-4.82,-4.22 -9.03,-9.03 -12.64,-14.45 -3.62,-5.41 -6.93,-11.13 -9.94,-17.15 -2.4,-6.62 -4.21,-13.09 -5.41,-19.41 -1.21,-6.32 -1.81,-12.79 -1.81,-19.41l0 -519.13c0,-13.24 2.41,-25.58 7.22,-37.02 4.82,-11.43 12.04,-21.97 21.67,-31.6 9.63,-10.23 20.32,-17.75 32.05,-22.57 11.74,-4.81 24.53,-7.22 38.37,-7.22 13.85,0 26.64,2.41 38.37,7.22 11.74,4.82 22.42,12.04 32.05,21.67 10.24,9.63 17.76,20.32 22.57,32.05 4.82,11.74 7.23,24.53 7.23,38.37l0 248.28 71.32 -92.09c2.41,-2.41 4.97,-4.81 7.68,-7.22 2.7,-2.41 5.26,-4.82 7.67,-7.22 3.01,-2.41 5.87,-4.67 8.58,-6.77 2.7,-2.11 5.56,-4.07 8.57,-5.87 3.61,-1.81 7.53,-3.61 11.74,-5.42 4.21,-1.81 8.43,-3.01 12.64,-3.61 4.21,-1.2 8.58,-2.11 13.09,-2.71 4.51,-0.6 8.88,-0.9 13.09,-0.9 3.01,0 5.87,0.15 8.58,0.45 2.71,0.3 5.26,0.75 7.67,1.35 1.21,0 2.41,0.15 3.61,0.45 1.21,0.31 2.71,0.76 4.52,1.36 1.2,0 2.41,0.15 3.61,0.45 1.2,0.3 2.41,0.75 3.61,1.35 10.23,3.62 19.41,8.28 27.54,14 8.12,5.72 15.19,12.79 21.21,21.22 5.42,7.82 9.48,16.25 12.19,25.27 2.71,9.03 4.06,18.66 4.06,28.89 0,3.62 -0.15,7.23 -0.45,10.84 -0.3,3.61 -1.05,7.22 -2.25,10.83 -0.61,3.61 -1.51,7.23 -2.71,10.84 -1.21,3.61 -2.71,7.22 -4.52,10.83 -1.8,3.61 -3.76,7.07 -5.87,10.38 -2.1,3.31 -4.36,6.47 -6.77,9.48 -2.4,3.01 -4.66,6.02 -6.77,9.03 -2.1,3.01 -4.66,6.02 -7.67,9.03l-48.75 48.75 102.02 118.27c3,4.82 5.71,9.48 8.12,14 2.41,4.51 4.51,9.18 6.32,13.99 1.81,4.82 3.16,9.78 4.06,14.9 0.91,5.11 1.36,10.38 1.36,15.8 0,0.6 0,1.35 0,2.25 0,0.91 0,1.96 0,3.16 -0.6,0.61 -0.91,1.36 -0.91,2.26 0,0.9 0,1.96 0,3.16 0,1.81 -0.15,3.61 -0.45,5.42 -0.3,1.8 -0.75,3.61 -1.35,5.41 -0.6,2.41 -1.05,4.52 -1.36,6.32 -0.3,1.81 -1.05,3.62 -2.25,5.42 -0.6,0.6 -1.06,1.36 -1.36,2.26 -0.3,0.9 -0.45,1.95 -0.45,3.16 -0.6,0.6 -1.05,1.35 -1.35,2.26 -0.3,0.9 -0.75,1.95 -1.36,3.16 -3.01,6.01 -6.62,11.73 -10.83,17.15 -4.21,5.42 -9.03,10.53 -14.45,15.35 -5.41,4.21 -11.13,7.67 -17.15,10.38 -6.02,2.71 -12.34,4.97 -18.96,6.77 -2.41,0.6 -4.66,1.05 -6.77,1.36 -2.11,0.3 -4.66,0.75 -7.67,1.35 -1.21,0 -2.41,0 -3.62,0 -1.2,0 -2.4,0.3 -3.61,0.9 -1.2,0 -2.4,0 -3.61,0 -1.2,0 -2.41,0 -3.61,0 -7.82,0 -15.65,-0.9 -23.47,-2.71 -7.83,-1.8 -15.35,-4.21 -22.57,-7.22 -7.23,-3.61 -13.7,-7.97 -19.41,-13.09 -5.72,-5.12 -10.99,-10.98 -15.8,-17.6l-104.73 -153.49 0 96.61c0,7.22 -0.6,13.99 -1.81,20.31 -1.2,6.32 -3.31,12.79 -6.32,19.41 -2.41,6.02 -5.41,11.74 -9.03,17.16 -3.61,5.41 -7.82,10.53 -12.64,15.34 -4.21,4.22 -8.72,8.13 -13.54,11.74 -4.81,3.61 -9.93,6.02 -15.35,7.22 -2.4,1.21 -5.11,2.11 -8.12,2.71 -3.01,0.6 -5.72,1.21 -8.13,1.81 -3.01,0.6 -5.87,1.2 -8.57,1.8 -2.71,0.6 -5.57,1.21 -8.58,1.81 -0.6,0 -1.05,0 -1.36,0 -0.3,0 -0.45,0 -0.45,0 -0.6,0 -1.05,0 -1.35,0 -0.3,0 -0.75,0 -1.36,0 -0.6,0 -1.2,0 -1.8,0 -0.6,0 -1.2,0 -1.81,0 -6.02,0 -12.18,-0.6 -18.5,-1.81 -6.32,-1.2 -12.49,-3.01 -18.51,-5.41 -6.02,-1.81 -11.74,-4.52 -17.16,-8.13 -5.41,-3.61 -10.53,-7.82 -15.34,-12.64l0 -0.9z"/>
    <path class="fil3" d="M3351.89 1394.39c0,1.2 0,1.95 0,2.25 0,0.3 0,0.76 0,1.36 0,0.6 0,1.05 0,1.35 0,0.3 0,0.45 0,0.45 0,0.61 0,1.06 0,1.36 0,0.3 0,0.75 0,1.35 0,0.6 0,1.06 0,1.36 0,0.3 0,0.45 0,0.45 0,12.64 -1.51,23.47 -4.51,32.5 -3.01,9.03 -7.83,16.25 -14.45,21.67 -6.02,5.41 -14.45,9.48 -25.28,12.19 -10.83,2.7 -23.47,4.06 -37.92,4.06l-234.73 -0.9c0.6,1.2 1.05,2.1 1.35,2.7 0.3,0.61 0.75,0.91 1.35,0.91 0.61,0.6 1.06,1.2 1.36,1.8 0.3,0.6 0.75,1.21 1.35,1.81 1.21,0.6 2.26,1.35 3.16,2.26 0.91,0.9 1.66,1.95 2.26,3.16 0,0.6 0.3,1.05 0.9,1.35 0.6,0.3 1.21,0.75 1.81,1.35 0.6,0.61 1.05,1.06 1.35,1.36 0.3,0.3 0.76,0.75 1.36,1.35 4.81,4.22 10.23,7.83 16.25,10.84 6.02,3.01 12.64,5.71 19.86,8.12 6.62,2.41 14.29,4.06 23.02,4.97 8.73,0.9 18.21,1.35 28.44,1.35 0.6,0 1.21,0 1.81,0 0.6,0 1.2,0 1.8,0 0.6,0 1.06,0 1.36,0 0.3,0 0.75,0 1.35,0 0,0 0.15,-0.15 0.45,-0.45 0.3,-0.3 0.76,-0.45 1.36,-0.45 0.6,0 1.2,0 1.8,0 0.6,0 1.21,0 1.81,0 0.6,0 1.05,0 1.35,0 0.3,0 0.75,0 1.36,0 0,0 0.15,0 0.45,0 0.3,0 0.75,0 1.35,0 4.22,0 8.73,-0.45 13.54,-1.36 4.82,-0.9 10.24,-1.65 16.26,-2.25 5.41,-1.21 11.43,-2.41 18.05,-3.61 6.62,-1.21 13.85,-3.01 21.67,-5.42 5.42,-1.2 10.38,-2.41 14.9,-3.61 4.51,-1.21 8.57,-2.11 12.19,-2.71 3.61,-0.6 6.92,-1.05 9.93,-1.35 3.01,-0.31 5.71,-0.46 8.12,-0.46 0.6,0 1.06,0 1.36,0 0.3,0 0.75,0 1.35,0 0,0 0.15,0 0.45,0 0.3,0 0.75,0 1.36,0 10.83,0 20.61,1.81 29.34,5.42 8.73,3.61 16.7,9.03 23.92,16.25 7.23,7.22 12.64,14.9 16.25,23.02 3.62,8.13 5.42,17.01 5.42,26.64 0,0.6 0,1.05 0,1.35 0,0.3 0,0.45 0,0.45 0,0.6 0,1.06 0,1.36 0,0.3 0,0.75 0,1.35 0,0.6 0,1.05 0,1.36 0,0.3 0,0.45 0,0.45 -0.6,0.6 -0.9,1.05 -0.9,1.35 0,0.3 0,0.45 0,0.45 0,0.6 0,1.06 0,1.36 0,0.3 0,0.75 0,1.35 -0.6,0.6 -0.9,1.05 -0.9,1.36 0,0.3 0,0.75 0,1.35 0,0.6 0,1.05 0,1.35 0,0.31 0,0.46 0,0.46 -0.61,0.6 -0.91,1.05 -0.91,1.35 0,0.3 0,0.45 0,0.45 -2.41,7.83 -5.72,15.35 -9.93,22.57 -4.21,7.22 -9.63,13.54 -16.25,18.96 -6.62,6.02 -15.35,11.74 -26.18,17.16 -10.84,5.41 -23.48,10.53 -37.92,15.34 -5.42,1.81 -11.14,3.46 -17.15,4.97 -6.02,1.5 -12.34,2.86 -18.96,4.06 -6.02,1.21 -12.64,2.26 -19.87,3.16 -7.22,0.9 -14.44,1.66 -21.66,2.26 -5.42,0.6 -10.69,1.05 -15.8,1.35 -5.12,0.3 -10.09,0.76 -14.9,1.36 -2.41,0 -4.82,0 -7.22,0 -2.41,0 -4.82,0.3 -7.23,0.9 -2.4,0 -4.81,0 -7.22,0 -2.41,0 -4.81,0 -7.22,0 -45.74,-0.6 -86.52,-6.62 -122.33,-18.06 -35.82,-11.43 -66.96,-29.19 -93.45,-53.26 -26.48,-24.08 -46.34,-51.01 -59.58,-80.81 -13.25,-29.79 -19.57,-62.14 -18.96,-97.05 0,0 0,-0.15 0,-0.45 0,-0.3 0,-0.76 0,-1.36 0,0 0,-0.15 0,-0.45 0,-0.3 0,-0.75 0,-1.35 0,0 0,-0.15 0,-0.45 0,-0.3 0,-0.76 0,-1.36 0,0 0,-0.15 0,-0.45 0,-0.3 0,-0.75 0,-1.35 1.2,-33.71 8.27,-65.01 21.21,-93.9 12.94,-28.89 32.05,-55.07 57.33,-78.54 25.28,-23.48 53.72,-41.08 85.32,-52.82 31.6,-11.74 66.66,-17.61 105.18,-17.61 12.04,0.61 23.92,1.66 35.66,3.16 11.74,1.51 23.32,3.77 34.76,6.78 11.44,2.4 22.57,5.86 33.41,10.38 10.83,4.51 21.06,9.48 30.69,14.9 13.84,7.82 26.48,16.55 37.92,26.18 11.44,9.63 21.97,20.46 31.6,32.5 9.63,11.43 18.06,23.32 25.28,35.66 7.22,12.34 13.24,24.53 18.06,36.57 0.6,2.4 1.2,4.66 1.8,6.77 0.6,2.1 1.2,4.06 1.81,5.87 0.6,2.4 1.2,4.66 1.8,6.77 0.6,2.1 1.21,4.36 1.81,6.77 1.2,4.21 1.95,8.57 2.26,13.09 0.3,4.51 0.75,8.88 1.35,13.09l0 -0.9zm-315.09 -18.06l107.44 0c0,0 0,-0.3 0,-0.9 0,-0.6 0,-1.21 0,-1.81 0,-0.6 0,-1.05 0,-1.35 0,-0.3 0,-0.75 0,-1.36 -0.6,-0.6 -0.9,-1.05 -0.9,-1.35 0,-0.3 0,-0.75 0,-1.36 -1.21,-6.62 -3.31,-12.63 -6.32,-18.05 -3.01,-5.42 -6.93,-9.93 -11.74,-13.54 -4.82,-3.62 -9.93,-6.47 -15.35,-8.58 -5.42,-2.11 -11.43,-3.16 -18.06,-3.16 -0.6,0 -1.05,0 -1.35,0 -0.3,0 -0.45,0 -0.45,0 -0.6,0 -1.05,0 -1.36,0 -0.3,0 -0.75,0 -1.35,0 -0.6,0 -1.05,0 -1.35,0 -0.31,0 -0.76,0 -1.36,0 -0.6,0.6 -1.05,0.9 -1.35,0.9 -0.3,0 -0.75,0 -1.36,0 -4.81,1.21 -9.48,3.01 -13.99,5.42 -4.51,2.41 -8.58,5.42 -12.19,9.03 -3.61,3.61 -6.92,7.67 -9.93,12.19 -3.01,4.51 -5.42,10.08 -7.22,16.7 0,0.6 -0.15,1.05 -0.45,1.35 -0.31,0.3 -0.46,0.45 -0.46,0.45 -0.6,0.61 -0.9,1.06 -0.9,1.36 0,0.3 0,0.75 0,1.35 0,0.6 0,1.21 0,1.81 0,0.6 0,1.2 0,1.8l0 -0.9zm334.95 -171.54c4.22,-3.01 8.58,-6.02 13.1,-9.03 4.51,-3.01 9.47,-5.41 14.89,-7.22 5.42,-1.8 10.84,-3.31 16.25,-4.51 5.42,-1.21 11.14,-1.81 17.16,-1.81l9.02 -0.9 0 -42.43c0,-6.02 0.61,-12.34 1.81,-18.96 1.2,-6.62 3.01,-12.94 5.42,-18.96 3.01,-6.62 6.32,-12.64 9.93,-18.06 3.61,-5.42 7.82,-10.53 12.64,-15.35 4.81,-4.81 10.08,-9.03 15.8,-12.64 5.72,-3.61 11.58,-6.62 17.6,-9.03 6.02,-2.4 12.19,-4.21 18.51,-5.41 6.32,-1.21 12.79,-1.81 19.41,-1.81 0.6,0 1.21,0 1.81,0 0.6,0 1.2,0 1.8,0 0.61,0 1.06,0 1.36,0 0.3,0 0.75,0 1.35,0 0,0 0.15,0 0.45,0 0.3,0 0.76,0 1.36,0 3.01,0.6 5.87,1.21 8.57,1.81 2.71,0.6 5.57,1.2 8.58,1.8 2.41,0.61 5.12,1.36 8.13,2.26 3.01,0.9 5.71,1.96 8.12,3.16 5.42,2.41 10.54,5.27 15.35,8.58 4.82,3.31 9.33,7.37 13.54,12.19 4.82,4.81 9.03,9.93 12.64,15.34 3.61,5.42 6.62,11.44 9.03,18.06 3.01,6.02 5.12,12.49 6.32,19.41 1.2,6.92 1.81,13.69 1.81,20.31l0 39.73 11.73 0c5.42,0.6 10.84,1.5 16.25,2.71 5.42,1.2 10.84,2.71 16.25,4.51 4.82,2.41 9.48,5.12 14,8.13 4.51,3.01 8.88,6.32 13.09,9.93 4.21,4.21 7.82,8.58 10.83,13.09 3.01,4.51 5.72,9.48 8.13,14.9 1.2,2.4 2.11,4.96 2.71,7.67 0.6,2.71 1.2,5.27 1.8,7.67 0.61,3.01 1.06,5.72 1.36,8.13 0.3,2.41 0.45,5.12 0.45,8.13 0,5.41 -0.6,10.53 -1.81,15.34 -1.2,4.82 -2.71,9.63 -4.51,14.45 -1.81,4.81 -4.21,9.48 -7.22,13.99 -3.01,4.52 -6.32,8.88 -9.93,13.09 -4.22,4.22 -8.58,7.83 -13.1,10.84 -4.51,3.01 -9.48,5.72 -14.89,8.12 -5.42,2.41 -10.84,4.37 -16.25,5.87 -5.42,1.51 -11.14,2.26 -17.16,2.26l-12.64 -0.9 0 226.61c0,7.22 -0.6,13.99 -1.8,20.31 -1.21,6.32 -3.31,12.79 -6.32,19.41 -2.41,6.02 -5.42,11.89 -9.03,17.61 -3.61,5.71 -7.83,10.98 -12.64,15.79 -4.82,4.82 -9.93,9.03 -15.35,12.64 -5.42,3.62 -11.43,6.32 -18.05,8.13 -6.02,2.41 -12.19,4.21 -18.51,5.42 -6.32,1.2 -12.79,1.8 -19.41,1.8 -0.61,0 -1.06,0 -1.36,0 -0.3,0 -0.45,0 -0.45,0 -0.6,0 -1.05,0 -1.35,0 -0.3,0 -0.76,0 -1.36,0 -0.6,0 -1.2,0 -1.8,0 -0.61,0 -1.21,0 -1.81,0 -6.02,-0.6 -11.74,-1.65 -17.15,-3.16 -5.42,-1.5 -10.84,-2.86 -16.25,-4.06 -5.42,-2.41 -10.54,-5.42 -15.35,-9.03 -4.82,-3.61 -9.33,-7.52 -13.54,-11.74 -4.82,-4.81 -9.03,-10.08 -12.64,-15.79 -3.62,-5.72 -6.93,-11.59 -9.94,-17.61 -2.4,-6.62 -4.21,-13.09 -5.41,-19.41 -1.21,-6.32 -1.81,-13.09 -1.81,-20.31l0 -228.42 -7.22 0c-6.02,0.6 -12.04,0.3 -18.06,-0.9 -6.02,-1.21 -11.73,-3.01 -17.15,-5.42 -6.02,-2.41 -11.44,-5.27 -16.25,-8.58 -4.82,-3.31 -9.33,-7.07 -13.54,-11.28 -3.01,-3.61 -5.87,-7.68 -8.58,-12.19 -2.71,-4.51 -4.97,-9.18 -6.77,-13.99 -1.81,-4.82 -3.31,-9.79 -4.52,-14.9 -1.2,-5.12 -1.8,-10.38 -1.8,-15.8 0,-3.01 0.15,-5.72 0.45,-8.13 0.3,-2.4 0.75,-5.11 1.35,-8.12 0.61,-2.41 1.36,-4.97 2.26,-7.68 0.9,-2.7 1.96,-5.26 3.16,-7.67 2.41,-4.81 5.12,-9.48 8.13,-13.99 3.01,-4.52 6.01,-8.88 9.02,-13.09l0 -0.91zm408.99 437.88c-10.24,-5.42 -18.96,-11.29 -26.19,-17.61 -7.22,-6.32 -13.24,-12.79 -18.05,-19.41 -4.22,-6.62 -7.53,-13.24 -9.93,-19.86 -2.41,-6.62 -3.61,-13.24 -3.61,-19.87 0,-1.8 0,-3.61 0,-5.41 0,-1.81 0.3,-3.61 0.9,-5.42 0,-1.81 0.3,-3.61 0.9,-5.42 0.6,-1.8 1.2,-3.61 1.81,-5.41 2.4,-7.23 5.87,-14 10.38,-20.32 4.51,-6.32 10.38,-11.58 17.6,-15.8 6.63,-4.81 14.3,-8.42 23.03,-10.83 8.72,-2.41 17.9,-3.61 27.53,-3.61 3.01,0 6.32,0.15 9.93,0.45 3.62,0.3 7.23,0.75 10.84,1.35 3.61,0.61 7.37,1.51 11.28,2.71 3.92,1.21 7.98,2.41 12.19,3.61l18.06 4.52 12.64 4.51c6.62,3.01 12.64,5.42 18.05,7.22 5.42,1.81 10.24,3.31 14.45,4.52 3.61,0.6 7.22,1.35 10.83,2.26 3.62,0.9 7.23,1.65 10.84,2.25l5.41 -0.9 10.84 0c2.41,0.6 4.51,0.75 6.32,0.45 1.8,-0.3 3.31,-0.75 4.51,-1.35 1.21,-1.21 2.26,-2.26 3.16,-3.16 0.91,-0.91 1.66,-1.96 2.26,-3.16 0,0 0,-0.15 0,-0.45 0,-0.3 0.3,-0.76 0.9,-1.36 0,0 0,-0.15 0,-0.45 0,-0.3 0,-0.45 0,-0.45 0,0 0,-0.15 0,-0.45 0,-0.3 0,-0.75 0,-1.36 0,-1.2 -0.15,-2.55 -0.45,-4.06 -0.3,-1.5 -1.05,-2.86 -2.26,-4.06 -0.6,-1.21 -1.65,-2.41 -3.16,-3.61 -1.5,-1.21 -3.16,-2.41 -4.96,-3.61 -0.6,0 -1.05,0 -1.36,0 -0.3,0 -0.45,0 -0.45,0 -0.6,0 -0.9,-0.16 -0.9,-0.46 0,-0.3 0,-0.75 0,-1.35 0,0 -0.15,0 -0.45,0 -0.3,0 -0.45,-0.3 -0.45,-0.9 -0.6,0 -0.91,0 -0.91,0 0,0 0,0 0,0 0,0 -0.15,0 -0.45,0 -0.3,0 -0.45,-0.3 -0.45,-0.91 -0.6,0 -0.9,0 -0.9,0 0,0 0,0 0,0l-8.13 -3.61 -18.05 -4.51 -23.48 -7.22 -17.15 -4.52c-21.07,-4.81 -39.27,-10.38 -54.62,-16.7 -15.35,-6.32 -27.84,-13.09 -37.47,-20.31 -9.63,-6.63 -17.91,-14.45 -24.83,-23.48 -6.92,-9.03 -12.79,-19.26 -17.6,-30.69 -1.81,-4.22 -3.31,-8.43 -4.52,-12.64 -1.2,-4.22 -2.4,-8.43 -3.61,-12.64 -0.6,-4.22 -1.05,-8.43 -1.35,-12.64 -0.3,-4.22 -0.45,-8.43 -0.45,-12.64 0,-21.07 4.81,-40.63 14.44,-58.69 9.63,-18.05 24.38,-35.21 44.24,-51.46 19.26,-16.25 42.43,-28.44 69.52,-36.56 27.08,-8.13 57.78,-12.19 92.09,-12.19 0.6,0 1.05,0 1.35,0 0.3,0 0.75,0 1.36,0 0,0 0.3,0 0.9,0 0.6,0 1.2,0 1.8,0 0,0 0.15,0 0.46,0 0.3,0 0.75,0 1.35,0 0.6,0 1.05,0 1.35,0 0.3,0 0.76,0 1.36,0 7.82,0 15.35,0.3 22.57,0.9 7.22,0.6 14.44,1.51 21.67,2.71 6.62,0.6 13.09,1.66 19.41,3.16 6.32,1.51 12.49,2.86 18.51,4.06 11.43,3.01 21.66,6.32 30.69,9.93 9.03,3.62 17.16,7.53 24.38,11.74 3.61,2.41 6.92,4.67 9.93,6.77 3.01,2.11 6.02,4.07 9.03,5.87 2.41,2.41 4.66,4.67 6.77,6.77 2.11,2.11 4.06,4.37 5.87,6.77 1.8,3.01 3.61,6.02 5.41,9.03 1.81,3.01 3.01,6.02 3.62,9.03 1.2,3.01 1.95,6.17 2.25,9.48 0.3,3.31 0.45,6.47 0.45,9.48 0,7.22 -1.05,13.99 -3.16,20.31 -2.1,6.32 -5.56,12.79 -10.38,19.41 -4.21,6.02 -9.48,11.14 -15.8,15.35 -6.32,4.21 -13.39,7.22 -21.21,9.03 -1.81,0.6 -3.62,1.05 -5.42,1.35 -1.81,0.31 -3.61,0.46 -5.42,0.46 -0.6,0 -1.5,0.15 -2.71,0.45 -1.2,0.3 -2.1,0.45 -2.71,0.45 -1.2,0 -2.25,0 -3.16,0 -0.9,0 -1.95,0 -3.16,0 -2.4,0 -5.26,-0.15 -8.57,-0.45 -3.31,-0.3 -6.77,-0.76 -10.38,-1.36 -3.62,-0.6 -7.53,-1.35 -11.74,-2.25 -4.21,-0.91 -8.73,-1.96 -13.54,-3.16l-27.09 -7.23 -13.54 -3.61 -14.45 -2.71c-0.6,0.61 -1.05,0.91 -1.35,0.91 -0.3,0 -0.75,0 -1.35,0 0,0 -0.16,0 -0.46,0 -0.3,0 -0.45,-0.3 -0.45,-0.91 -0.6,0 -0.9,0 -0.9,0 0,0 0,0 0,0 -0.6,0 -1.05,0 -1.35,0 -0.31,0 -0.46,-0.3 -0.46,-0.9 -0.6,0 -0.9,0 -0.9,0 0,0 0,0 0,0 -0.6,0 -1.05,0 -1.35,0 -0.3,0 -0.76,0 -1.36,0 -0.6,0 -1.35,0 -2.25,0 -0.91,0 -1.96,-0.3 -3.16,-0.9 -0.61,0 -1.36,0 -2.26,0 -0.9,0 -1.66,0 -2.26,0 -0.6,0 -1.2,0 -1.8,0 -0.61,0 -1.21,-0.3 -1.81,-0.91 -0.6,0 -1.2,0 -1.81,0 -0.6,0 -1.2,0 -1.8,0 -0.6,0 -1.21,0 -1.81,0 -0.6,0 -1.2,0 -1.8,0 -0.6,0.61 -1.21,0.91 -1.81,0.91 -0.6,0 -1.2,0 -1.8,0 -0.61,0 -1.36,0.15 -2.26,0.45 -0.9,0.3 -1.96,0.75 -3.16,1.35l-1.81 0.91 -2.71 2.7c-1.2,1.81 -2.1,3.47 -2.7,4.97 -0.61,1.51 -0.61,2.86 0,4.06 0,0.6 0.3,1.36 0.9,2.26 0.6,0.9 1.2,1.66 1.8,2.26 0.61,1.2 1.51,2.1 2.71,2.71 1.21,0.6 2.41,1.5 3.61,2.7 0,0 0,0 0,0 0,0 0.31,0 0.91,0 0,0.61 0,0.91 0,0.91 0,0 0,0 0,0 0,0 0,0 0,0 0,0 0.3,0 0.9,0 0,0.6 0.15,0.9 0.45,0.9 0.3,0 0.45,0 0.45,0 0,0.6 0.15,1.05 0.45,1.35 0.31,0.31 0.76,0.46 1.36,0.46 0,0 0.15,0 0.45,0 0.3,0 0.75,0 1.35,0l8.13 1.8 13.54 4.52 31.6 9.93 22.57 6.32 19.86 7.22c5.42,2.41 10.69,4.66 15.8,6.77 5.12,2.11 10.09,4.66 14.9,7.67 4.82,2.41 9.78,4.97 14.9,7.68 5.11,2.71 9.78,5.57 13.99,8.58 10.23,7.22 19.11,15.19 26.63,23.92 7.53,8.73 14,18.21 19.42,28.44 4.81,9.63 8.57,19.71 11.28,30.24 2.71,10.54 4.06,20.92 4.06,31.15 0,0.6 0,1.36 0,2.26 0,0.9 0,1.95 0,3.16 0,0.6 0,1.35 0,2.26 0,0.9 0,1.95 0,3.16 -0.6,9.63 -2.55,19.11 -5.86,28.43 -3.32,9.33 -7.38,18.51 -12.19,27.54 -4.82,9.03 -10.84,17.76 -18.06,26.18 -7.22,8.43 -15.65,16.25 -25.28,23.48 -9.03,7.22 -18.96,13.69 -29.79,19.41 -10.84,5.72 -22.57,10.38 -35.21,13.99 -12.64,3.01 -26.18,5.57 -40.63,7.68 -14.45,2.1 -30.09,3.16 -46.95,3.16 -1.8,0 -3.46,0 -4.96,0 -1.51,0 -2.86,0 -4.07,0 -1.8,-0.61 -3.46,-0.91 -4.96,-0.91 -1.51,0 -3.16,0 -4.97,0 -1.8,0 -3.61,0 -5.41,0 -1.81,0 -3.31,0 -4.52,0 -1.8,-0.6 -3.46,-0.9 -4.96,-0.9 -1.51,0 -3.16,0 -4.97,0 -15.05,-1.2 -28.89,-2.71 -41.53,-4.51 -12.64,-1.81 -24.38,-4.22 -35.21,-7.23 -10.83,-3.01 -20.61,-6.17 -29.34,-9.48 -8.73,-3.31 -16.4,-7.07 -23.02,-11.28l0 -0.9z"/>
    <path class="fil3" d="M2566.8 2036.33c1.81,0.6 3.61,0.75 5.42,0.45 1.8,-0.3 3.91,-0.75 6.32,-1.36 1.8,0 3.61,-0.15 5.41,-0.45 1.81,-0.3 3.61,-0.45 5.42,-0.45 3.61,-0.6 7.22,-1.05 10.83,-1.35 3.62,-0.3 7.23,-0.45 10.84,-0.45 11.43,0 22.27,0.9 32.5,2.7 10.23,1.81 20.16,4.52 29.79,8.13 9.63,3.61 18.51,8.13 26.64,13.54 8.12,5.42 15.8,11.44 23.02,18.06l0 1.81 83.06 -44.24c1.2,0 2.26,-0.15 3.16,-0.46 0.9,-0.3 1.65,-0.75 2.26,-1.35 1.2,-0.6 2.4,-1.05 3.61,-1.35 1.2,-0.3 2.41,-0.45 3.61,-0.45 0.6,0 1.2,0 1.8,0 0.61,0 1.21,-0.31 1.81,-0.91 0,0 0.3,0 0.9,0 0.6,0 1.21,0 1.81,0 0.6,0 1.2,0 1.8,0 0.61,0 1.21,-0.3 1.81,-0.9 0,0 0.3,0 0.9,0 0.6,0 1.21,0 1.81,0 3.01,0 6.17,0.45 9.48,1.35 3.31,0.91 6.47,1.96 9.48,3.16 3.01,1.21 6.02,2.71 9.03,4.52 3.01,1.8 5.71,3.91 8.12,6.32 6.02,6.02 11.29,12.49 15.8,19.41 4.52,6.92 8.28,14.29 11.29,22.12 3.01,7.82 5.41,15.8 7.22,23.92 1.8,8.13 2.71,16.4 2.71,24.83l0 302.45c0,15.65 -2.26,29.49 -6.77,41.53 -4.52,12.04 -11.29,22.57 -20.32,31.6 -9.03,9.63 -18.81,16.55 -29.34,20.76 -10.53,4.22 -21.82,6.32 -33.86,6.32 -0.6,0 -1.05,0 -1.35,0 -0.3,0 -0.45,0 -0.45,0 -0.6,0 -1.05,0 -1.36,0 -0.3,0 -0.75,0 -1.35,0 -0.6,-0.6 -1.05,-0.9 -1.35,-0.9 -0.3,0 -0.46,0 -0.46,0 -0.6,0 -1.05,0 -1.35,0 -0.3,0 -0.75,0 -1.35,0l-82.16 -46.04 0 4.51c-6.62,7.22 -13.99,13.54 -22.12,18.96 -8.13,5.42 -16.7,9.93 -25.73,13.54 -9.03,2.41 -18.96,4.67 -29.79,6.77 -10.84,2.11 -22.27,3.16 -34.31,3.16 -4.22,0 -8.28,-0.15 -12.19,-0.45 -3.91,-0.3 -7.98,-0.75 -12.19,-1.35 -2.41,0 -4.66,-0.15 -6.77,-0.45 -2.11,-0.31 -4.06,-0.76 -5.87,-1.36 -2.41,0 -4.66,-0.15 -6.77,-0.45 -2.11,-0.3 -4.36,-0.75 -6.77,-1.35 -13.84,-1.81 -27.54,-5.42 -41.08,-10.84 -13.54,-5.42 -26.63,-12.64 -39.27,-21.67 -12.64,-9.02 -24.53,-19.26 -35.66,-30.69 -11.14,-11.44 -21.52,-24.38 -31.15,-38.82 -6.02,-10.24 -11.59,-20.62 -16.7,-31.15 -5.12,-10.53 -9.18,-21.52 -12.19,-32.96 -3.61,-12.03 -6.17,-24.07 -7.68,-36.11 -1.5,-12.04 -2.25,-24.37 -2.25,-37.01 0,-0.61 0,-1.21 0,-1.81 0,-0.6 0,-1.2 0,-1.81 0,0 0,-0.3 0,-0.9 0,-0.6 0,-1.2 0,-1.8 0,-1.21 0,-2.41 0,-3.62 0,-1.2 0,-2.4 0,-3.61 1.2,-30.69 6.77,-59.28 16.7,-85.77 9.93,-26.48 24.22,-50.86 42.88,-73.12 18.66,-22.27 38.98,-40.18 60.94,-53.72 21.97,-13.55 45.9,-22.72 71.78,-27.54l0 -0.9zm7.22 252.79c0,6.02 0.3,11.44 0.9,16.25 0.61,4.82 1.81,9.33 3.62,13.54 1.2,4.22 3.01,8.43 5.41,12.64 2.41,4.22 5.12,8.13 8.13,11.74 3.01,4.21 6.47,7.82 10.38,10.83 3.91,3.01 7.98,5.42 12.19,7.23 4.81,2.4 9.48,4.06 13.99,4.96 4.52,0.9 8.88,1.36 13.09,1.36 0,0 0.15,0 0.46,0 0.3,0 0.75,0 1.35,0 0.6,0 1.2,0 1.81,0 0.6,0 1.2,0 1.8,0 4.82,-0.61 9.78,-1.81 14.9,-3.62 5.11,-1.8 10.08,-4.21 14.89,-7.22 4.82,-3.01 9.18,-6.62 13.1,-10.83 3.91,-4.21 7.37,-9.33 10.38,-15.35 1.2,-1.81 2.26,-3.76 3.16,-5.87 0.9,-2.1 1.65,-4.36 2.26,-6.77 1.2,-1.81 1.95,-3.91 2.25,-6.32 0.3,-2.41 0.75,-4.81 1.36,-7.22 0,-0.6 0,-1.21 0,-1.81 0,-0.6 0.3,-1.5 0.9,-2.71 0,-0.6 0,-1.2 0,-1.8 0,-0.6 0,-1.21 0,-1.81 0,-0.6 0,-1.2 0,-1.8 0,-0.6 0.3,-1.51 0.9,-2.71 0,-0.6 0,-1.21 0,-1.81 0,-0.6 0,-1.2 0,-1.8 0,-0.6 0,-1.06 0,-1.36 0,-0.3 0,-0.75 0,-1.35 0,-0.6 0,-1.05 0,-1.36 0,-0.3 0,-0.75 0,-1.35 -0.6,-0.6 -0.9,-1.05 -0.9,-1.35 0,-0.3 0,-0.76 0,-1.36 0,-0.6 0,-1.05 0,-1.35 0,-0.3 0,-0.75 0,-1.36 -1.2,-7.82 -3.01,-14.89 -5.42,-21.21 -2.41,-6.32 -5.41,-12.19 -9.03,-17.61 -3.61,-4.81 -7.67,-9.18 -12.18,-13.09 -4.52,-3.91 -9.48,-7.07 -14.9,-9.48 -1.2,-0.6 -2.41,-1.05 -3.61,-1.35 -1.21,-0.3 -2.41,-0.76 -3.61,-1.36 -1.21,0 -2.26,-0.15 -3.16,-0.45 -0.91,-0.3 -1.96,-0.75 -3.16,-1.35 -0.61,0 -1.21,0 -1.81,0 -0.6,0 -1.2,-0.3 -1.8,-0.91 -0.61,0 -1.21,0 -1.81,0 -0.6,0 -1.2,0 -1.81,0 -0.6,0 -1.2,0 -1.8,0 -0.6,0 -1.21,-0.3 -1.81,-0.9 -0.6,0 -1.2,0 -1.8,0 -0.6,0 -1.21,0 -1.81,0 -7.82,0.6 -15.2,2.41 -22.12,5.42 -6.92,3.01 -13.39,7.22 -19.41,12.64 -6.02,5.41 -10.98,11.88 -14.9,19.41 -3.91,7.52 -6.77,16.4 -8.57,26.63 0,0.6 0,1.06 0,1.36 0,0.3 0,0.45 0,0.45 -0.6,0.6 -0.91,1.05 -0.91,1.35 0,0.3 0,0.75 0,1.36 0,0.6 0,1.2 0,1.8 0,0.6 0,1.21 0,1.81 0,0.6 0,1.05 0,1.35 0,0.3 0,0.45 0,0.45 -0.6,0.6 -0.9,1.06 -0.9,1.36 0,0.3 0,0.75 0,1.35 0,0.6 0,1.21 0,1.81 0,0.6 0,1.2 0,1.8l0 -0.9zm412.6 218.48c-4.82,-4.21 -9.03,-9.02 -12.64,-14.44 -3.62,-5.42 -6.93,-11.14 -9.94,-17.15 -2.4,-6.62 -4.21,-13.1 -5.41,-19.41 -1.21,-6.32 -1.81,-12.8 -1.81,-19.42l0 -302.44c0,-13.25 2.56,-25.88 7.68,-37.92 5.11,-12.04 12.49,-22.87 22.12,-32.5 10.23,-10.24 21.21,-17.61 32.95,-22.12 11.74,-4.52 24.53,-6.78 38.37,-6.78l74.03 37.02 0.9 -2.71c0,0.6 0,0.91 0,0.91 0,0 0.3,-0.31 0.91,-0.91 0,0 0.15,0 0.45,0 0.3,0 0.45,0 0.45,0 0.6,0 1.05,-0.15 1.35,-0.45 0.3,-0.3 0.76,-0.75 1.36,-1.35 3.61,-2.41 7.52,-4.67 11.73,-6.77 4.22,-2.11 8.43,-4.07 12.64,-5.87 1.81,-1.21 3.92,-2.11 6.32,-2.71 2.41,-0.6 4.82,-1.51 7.23,-2.71 2.4,-0.6 5.11,-1.35 8.12,-2.26 3.01,-0.9 6.02,-1.65 9.03,-2.25 6.02,-1.81 11.89,-3.46 17.61,-4.97 5.71,-1.5 11.58,-2.56 17.6,-3.16 6.02,-1.2 11.89,-1.96 17.61,-2.26 5.71,-0.3 11.58,-0.45 17.6,-0.45 10.23,0 20.32,0.75 30.25,2.26 9.93,1.5 19.71,3.76 29.34,6.77 9.63,3.01 19.11,6.77 28.44,11.29 9.33,4.51 18.81,9.78 28.44,15.8l9.93 5.41 8.12 5.42 8.13 -4.51 17.15 -9.03c5.42,-2.41 10.84,-4.67 16.25,-6.77 5.42,-2.11 10.24,-4.07 14.45,-5.87 4.81,-1.81 9.18,-3.61 13.09,-5.42 3.91,-1.81 7.97,-3.31 12.19,-4.51 6.02,-1.81 12.04,-3.62 18.05,-5.42 6.02,-1.81 12.04,-3.01 18.06,-3.61 6.62,-1.21 12.79,-1.96 18.51,-2.26 5.72,-0.3 11.59,-0.45 17.6,-0.45 25.28,0 48.76,4.21 70.42,12.64 21.67,8.43 41.23,20.76 58.69,37.01 17.45,16.26 30.7,34.46 39.72,54.63 9.03,20.16 13.55,41.98 13.55,65.45l0 232.93c0,14.45 -2.41,27.54 -7.23,39.27 -4.81,11.74 -12.03,22.42 -21.66,32.05 -9.63,9.64 -20.32,16.71 -32.06,21.22 -11.73,4.52 -24.52,6.77 -38.37,6.77 -13.84,0 -26.78,-2.1 -38.82,-6.32 -12.03,-4.21 -23.17,-11.13 -33.4,-20.76 -9.63,-10.23 -17.01,-21.22 -22.12,-32.96 -5.12,-11.73 -7.68,-24.52 -7.68,-38.37l0 -185.08c0,-5.41 -1.05,-10.68 -3.16,-15.8 -2.1,-5.11 -5.56,-9.78 -10.38,-13.99 -4.21,-4.81 -8.88,-8.28 -13.99,-10.38 -5.12,-2.11 -10.69,-3.16 -16.7,-3.16 0,0 0,0 0,0 0,0 0,0 0,0 -0.61,0 -0.91,0 -0.91,0 0,0 0,0 0,0 0,0 0,0 0,0 0,0 0,0 0,0 0,0 0,0 0,0 0,0 0,0 0,0 -0.6,0 -0.9,0 -0.9,0 0,0 0,0 0,0 0,0 0,0 0,0 0,0 0,0 0,0 -6.02,0 -11.44,1.05 -16.25,3.16 -4.82,2.1 -9.33,5.26 -13.54,9.48 -4.22,4.21 -7.38,8.88 -9.48,13.99 -2.11,5.12 -3.16,10.69 -3.16,16.7l0 185.08c0,7.23 -0.6,14 -1.81,20.32 -1.2,6.32 -3.31,12.79 -6.32,19.41 -2.41,6.02 -5.42,11.89 -9.03,17.6 -3.61,5.72 -7.82,10.99 -12.64,15.8 -4.81,4.82 -9.93,9.03 -15.34,12.64 -5.42,3.61 -11.14,6.02 -17.16,7.23 -3.01,1.2 -6.02,2.1 -9.03,2.7 -3.01,0.61 -6.02,1.21 -9.02,1.81 -3.62,0.6 -6.93,1.05 -9.94,1.35 -3.01,0.3 -6.01,0.46 -9.02,0.46 -6.62,0 -13.09,-0.61 -19.41,-1.81 -6.32,-1.2 -12.49,-3.01 -18.51,-5.42 -6.02,-1.8 -11.89,-4.51 -17.61,-8.12 -5.72,-3.61 -10.98,-7.83 -15.8,-12.64 -4.21,-4.82 -8.12,-9.93 -11.73,-15.35 -3.62,-5.42 -6.62,-11.14 -9.03,-17.15 -2.41,-6.62 -4.22,-13.1 -5.42,-19.41 -1.2,-6.32 -1.81,-12.8 -1.81,-19.42l0 -187.78c0,-5.42 -1.05,-10.69 -3.16,-15.8 -2.1,-5.12 -5.26,-9.78 -9.47,-14 -4.22,-4.21 -8.73,-7.37 -13.55,-9.48 -4.81,-2.1 -10.23,-3.46 -16.25,-4.06 0,0 0,0 0,0 0,0 0,0 0,0 -0.6,0 -0.9,0 -0.9,0 0,0 0,0 0,0 0,0 0,0 0,0 0,0 0,0 0,0 0,0 0,0 0,0 0,0 0,0 0,0 -0.6,0 -0.9,0 -0.9,0 0,0 0,0 0,0 0,0 0,0 0,0 0,0 0,0 0,0 -6.02,0 -11.59,1.05 -16.71,3.16 -5.11,2.11 -10.08,5.27 -14.89,9.48 -4.22,4.21 -7.53,8.88 -9.93,13.99 -2.41,5.12 -3.62,10.69 -3.62,16.71l0 186.88c0,7.22 -0.6,14 -1.8,20.32 -1.2,6.31 -3.01,12.79 -5.42,19.41 -2.41,6.01 -5.41,11.73 -9.03,17.15 -3.61,5.42 -7.82,10.53 -12.64,15.35 -4.81,4.81 -9.93,9.03 -15.34,12.64 -5.42,3.61 -11.44,6.02 -18.06,7.22 -3.01,1.2 -6.02,2.26 -9.03,3.16 -3.01,0.9 -6.02,1.66 -9.03,2.26 -3.61,0.6 -6.92,1.05 -9.93,1.35 -3.01,0.3 -6.02,0.45 -9.03,0.45 -6.02,0 -12.18,-0.6 -18.5,-1.8 -6.32,-1.21 -12.49,-3.01 -18.51,-5.42 -6.02,-1.2 -11.74,-3.61 -17.16,-7.22 -5.41,-3.61 -10.53,-7.83 -15.34,-12.64l0 -0.91zm1058.11 30.7c-37.91,-0.6 -72.67,-6.92 -104.27,-18.96 -31.6,-12.04 -60.04,-30.09 -85.32,-54.17 -25.88,-24.68 -45.29,-51.61 -58.23,-80.8 -12.94,-29.19 -19.41,-61.24 -19.41,-96.15 -0.61,-34.91 5.41,-67.26 18.05,-97.06 12.64,-29.79 31.9,-57.33 57.78,-82.61 25.28,-25.28 53.87,-44.23 85.77,-56.87 31.9,-12.64 67.11,-18.96 105.63,-18.96 17.46,0 34.31,1.35 50.56,4.06 16.25,2.71 31.9,6.77 46.95,12.19 15.65,5.41 30.24,12.19 43.79,20.31 13.54,8.13 26.33,17.31 38.37,27.54 13.84,12.04 26.18,24.98 37.01,38.82 10.84,13.84 19.87,28.59 27.09,44.24 7.22,15.65 12.79,31.6 16.7,47.85 3.91,16.25 6.17,32.5 6.77,48.75 0,0.6 0,1.05 0,1.35 0,0.31 0,0.46 0,0.46 0,0.6 0,1.05 0,1.35 0,0.3 0,0.75 0,1.35 0,0.61 0,1.06 0,1.36 0,0.3 0,0.45 0,0.45 0,0.6 0,1.05 0,1.35 0,0.31 0,0.76 0,1.36 0,21.67 -2.86,42.73 -8.57,63.2 -5.72,20.46 -14,40.62 -24.83,60.49 -10.84,19.86 -24.38,37.61 -40.63,53.26 -16.25,15.65 -34.91,29.5 -55.98,41.53 -9.63,6.02 -19.86,11.14 -30.69,15.35 -10.84,4.21 -22.27,7.22 -34.31,9.03 -11.44,3.01 -23.17,5.27 -35.21,6.77 -12.04,1.51 -24.38,2.26 -37.02,2.26l0 0.9zm-70.42 -251.89c-0.6,13.24 0.91,24.98 4.52,35.21 3.61,10.23 9.03,19.26 16.25,27.09 7.22,7.82 14.9,13.54 23.02,17.15 8.13,3.61 17,5.42 26.63,5.42 0.61,0 1.21,0 1.81,0 0.6,0 1.2,0 1.81,0 0,0 0.3,0 0.9,0 0.6,0 1.2,0 1.8,0 1.21,0 2.41,-0.15 3.62,-0.45 1.2,-0.3 2.4,-0.76 3.61,-1.36 7.82,-1.2 14.89,-3.46 21.21,-6.77 6.32,-3.31 11.59,-7.67 15.8,-13.09 4.82,-5.42 8.73,-11.74 11.74,-18.96 3.01,-7.22 5.12,-15.65 6.32,-25.28 0,-0.6 0,-1.2 0,-1.8 0,-0.61 0.3,-1.51 0.9,-2.71 0,-0.61 0,-1.36 0,-2.26 0,-0.9 0,-1.66 0,-2.26 0,-1.2 0,-2.1 0,-2.71 0,-0.6 0.3,-1.5 0.91,-2.7 0,-0.61 0,-1.36 0,-2.26 0,-0.9 0,-1.66 0,-2.26 0,-4.21 -0.31,-8.27 -0.91,-12.19 -0.6,-3.91 -1.5,-7.67 -2.71,-11.28 -0.6,-3.61 -1.65,-7.22 -3.16,-10.84 -1.5,-3.61 -3.16,-6.92 -4.96,-9.93 -3.61,-6.02 -7.68,-11.28 -12.19,-15.8 -4.51,-4.51 -9.18,-7.97 -13.99,-10.38 -4.82,-3.01 -9.93,-5.27 -15.35,-6.77 -5.42,-1.51 -11.14,-2.26 -17.16,-2.26 -6.01,0 -11.88,0.75 -17.6,2.26 -5.72,1.5 -10.99,3.76 -15.8,6.77 -4.82,2.41 -9.33,5.87 -13.54,10.38 -4.22,4.52 -8.13,9.78 -11.74,15.8 -1.81,3.01 -3.46,6.32 -4.97,9.93 -1.5,3.62 -2.85,7.23 -4.06,10.84 -0.6,3.61 -1.2,7.37 -1.8,11.28 -0.61,3.92 -0.91,8.28 -0.91,13.09l0 -0.9zm482.12 248.28c0,0 0,-0.15 0,-0.45 0,-0.3 0,-0.45 0,-0.45 -0.61,0 -0.91,0 -0.91,0 0,0 0,0 0,0 0,0 0,0 0,0 0,0 0,0 0,0 -0.6,0 -0.9,0 -0.9,0 0,0 0,0 0,0 -0.6,0 -1.05,0 -1.35,0 -0.3,0 -0.46,0 -0.46,0 0,0 0,0 0,0 0,0 0,0 0,0 -13.24,0 -25.58,-2.11 -37.01,-6.32 -11.44,-4.22 -21.97,-11.14 -31.6,-20.77 -9.63,-9.03 -16.7,-19.41 -21.22,-31.15 -4.51,-11.73 -6.77,-24.22 -6.77,-37.46l0 -303.35c0,-13.25 2.41,-25.73 7.22,-37.47 4.82,-11.74 12.04,-22.42 21.67,-32.05 10.23,-10.23 21.22,-17.76 32.96,-22.57 11.73,-4.82 24.52,-7.23 38.37,-7.23l92.99 62.3 0 -4.51 5.41 -6.32 10.84 -11.74c3.01,-3.01 6.17,-6.02 9.48,-9.03 3.31,-3.01 6.47,-5.72 9.48,-8.12 3.01,-2.41 6.17,-4.52 9.48,-6.32 3.31,-1.81 6.77,-3.62 10.38,-5.42 3.01,-1.2 6.02,-2.41 9.03,-3.61 3.01,-1.21 6.02,-2.11 9.03,-2.71 3.01,-1.2 6.17,-1.96 9.48,-2.26 3.31,-0.3 6.77,-0.45 10.38,-0.45 1.2,0 2.26,0 3.16,0 0.9,0 1.65,0 2.26,0 0.6,0 1.2,0 1.8,0 0.6,0 1.21,0 1.81,0 0.6,0.6 1.2,0.9 1.8,0.9 0.61,0 1.21,0 1.81,0 0.6,0 1.2,0 1.8,0 0.61,0 1.21,0 1.81,0 0,0.61 0.3,0.91 0.9,0.91 0.6,0 1.21,0 1.81,0 0.6,0 1.2,0.15 1.8,0.45 0.61,0.3 1.21,0.45 1.81,0.45 0,0.6 0.3,0.9 0.9,0.9 0.6,0 1.21,0 1.81,0 8.42,2.41 16.4,5.72 23.92,9.93 7.53,4.22 14.3,9.63 20.32,16.25 6.62,6.02 11.73,12.64 15.35,19.87 3.61,7.22 6.31,15.04 8.12,23.47 0.6,1.81 1.05,3.61 1.35,5.42 0.31,1.8 0.46,3.61 0.46,5.41 0,1.81 0,3.62 0,5.42 0,1.81 0,3.61 0,5.42 0,10.83 -1.96,20.76 -5.87,29.79 -3.91,9.03 -9.48,17.46 -16.7,25.28 -7.23,7.82 -16.71,14.9 -28.44,21.22 -11.74,6.32 -25.43,11.88 -41.08,16.7 -0.6,0.6 -1.36,1.05 -2.26,1.35 -0.9,0.3 -1.96,0.45 -3.16,0.45 -0.6,0.61 -1.2,1.06 -1.8,1.36 -0.61,0.3 -1.21,0.45 -1.81,0.45 -0.6,0 -1.05,0.15 -1.35,0.45 -0.31,0.3 -0.46,0.45 -0.46,0.45 -0.6,0.61 -1.05,0.91 -1.35,0.91 -0.3,0 -0.75,0 -1.35,0 -0.61,0 -1.06,0.15 -1.36,0.45 -0.3,0.3 -0.45,0.45 -0.45,0.45 -0.6,0.6 -1.05,0.9 -1.35,0.9 -0.31,0 -0.76,0 -1.36,0 -2.41,1.21 -4.96,2.26 -7.67,3.16 -2.71,0.9 -5.27,1.96 -7.68,3.16 -1.2,0.6 -2.25,1.21 -3.16,1.81 -0.9,0.6 -1.95,0.9 -3.16,0.9 -0.6,0.6 -1.35,1.2 -2.25,1.81 -0.91,0.6 -1.96,1.2 -3.16,1.8 -9.63,5.42 -17.46,10.99 -23.48,16.7 -6.02,5.72 -10.53,11.89 -13.54,18.51 -2.41,6.62 -4.36,15.2 -5.87,25.73 -1.5,10.54 -1.95,23.02 -1.35,37.47l0 86.67c0,15.05 -2.26,28.59 -6.77,40.63 -4.52,12.04 -11.89,23.17 -22.12,33.4 -9.63,9.63 -20.32,16.86 -32.05,21.67 -11.74,4.82 -24.53,7.53 -38.37,8.13l0 0.9z"/>
    <path class="fil3" d="M1430.61 2192.45c0.84,0.85 1.69,1.38 2.54,1.59 0.84,0.21 1.69,0.53 2.54,0.95 0.84,0.43 1.79,0.85 2.85,1.27 1.06,0.43 2.01,0.85 2.86,1.27l0 -97.79c0,-9.31 1.69,-18.09 5.08,-26.35 3.39,-8.25 8.47,-15.77 15.24,-22.54 7.2,-6.77 14.92,-11.85 23.18,-15.24 8.25,-3.39 17.25,-5.08 26.99,-5.08 9.73,0.42 18.73,2.33 26.98,5.71 8.26,3.39 15.77,8.47 22.55,15.24 6.77,6.78 11.85,14.4 15.24,22.86 3.38,8.47 5.08,17.57 5.08,27.31l0 360.68c0,11.01 -1.7,20.74 -5.08,29.21 -3.39,8.47 -8.26,15.87 -14.61,22.22 -6.35,6.35 -13.12,11.01 -20.32,13.97 -7.2,2.97 -15.03,4.45 -23.49,4.45 -0.43,0 -0.75,0 -0.96,0 -0.21,0 -0.53,0 -0.95,0 -0.42,0 -0.74,0 -0.95,0 -0.21,0 -0.32,0 -0.32,0 -0.42,-0.42 -0.74,-0.63 -0.95,-0.63 -0.21,0 -0.53,0 -0.95,0 -0.43,0 -0.75,0 -0.96,0 -0.21,0 -0.31,0 -0.31,0l-58.42 -34.3 0 2.54c-4.66,5.93 -9.85,10.91 -15.56,14.93 -5.72,4.02 -11.96,7.51 -18.73,10.47 -6.78,2.12 -13.87,3.92 -21.28,5.4 -7.41,1.48 -15.34,2.23 -23.81,2.23 -1.27,0 -2.54,0 -3.81,0 -1.27,0 -2.33,-0.22 -3.17,-0.64 -1.27,0 -2.54,-0.11 -3.81,-0.32 -1.27,-0.21 -2.54,-0.31 -3.81,-0.31 -1.27,0 -2.54,-0.11 -3.81,-0.32 -1.27,-0.21 -2.54,-0.32 -3.81,-0.32 -1.7,-0.42 -3.18,-0.74 -4.45,-0.95 -1.27,-0.21 -2.54,-0.32 -3.81,-0.32 -16.51,-2.12 -31.86,-6.99 -46.04,-14.61 -14.18,-7.62 -27.41,-17.78 -39.68,-30.48 -11.86,-12.7 -21.81,-26.88 -29.85,-42.54 -8.04,-15.66 -13.76,-32.81 -17.14,-51.44 -0.43,-1.27 -0.75,-2.64 -0.96,-4.12 -0.21,-1.48 -0.31,-3.07 -0.31,-4.77 -0.43,-1.27 -0.75,-2.64 -0.96,-4.12 -0.21,-1.48 -0.31,-3.07 -0.31,-4.77 0,-0.84 0,-1.58 0,-2.22 0,-0.63 0,-1.37 0,-2.22 -0.43,-0.42 -0.64,-1.06 -0.64,-1.91 0,-0.84 0,-1.69 0,-2.54 0,-1.27 0,-2.64 0,-4.12 0,-1.48 0,-3.07 0,-4.77 0,-1.69 0,-3.38 0,-5.08 0,-1.69 0,-3.38 0,-5.08 0,-1.27 0.11,-2.75 0.32,-4.44 0.21,-1.69 0.32,-3.39 0.32,-5.08 0,-1.69 0.21,-3.39 0.63,-5.08 0.42,-1.69 0.64,-3.39 0.64,-5.08 0.42,-1.27 0.84,-2.75 1.27,-4.45 0.42,-1.69 0.84,-3.38 1.27,-5.08 2.96,-12.27 6.98,-24.02 12.06,-35.24 5.08,-11.22 11.01,-21.48 17.78,-30.8 7.2,-9.73 14.92,-18.52 23.18,-26.35 8.25,-7.83 17.46,-14.5 27.62,-20 5.93,-3.39 12.07,-6.56 18.42,-9.53 6.35,-2.96 12.91,-5.29 19.68,-6.98 6.35,-2.12 12.81,-3.49 19.37,-4.13 6.56,-0.63 13.23,-0.95 20,-0.95 4.66,0 9.42,0.32 14.29,0.95 4.87,0.64 9.84,1.38 14.92,2.22 5.08,0.85 10.16,1.91 15.24,3.18 5.08,1.27 10.37,2.96 15.88,5.08l0 -0.64zm-82.55 163.83c-0.43,8.89 0.52,16.83 2.85,23.82 2.33,6.98 5.82,13.01 10.48,18.09 4.66,5.08 9.84,8.89 15.56,11.43 5.71,2.54 11.96,3.81 18.73,3.81 0,0 0,0 0,0 0,0 0.21,0 0.64,0 0,0 0,0 0,0 0,0 0,0 0,0 0,0 0.1,0 0.31,0 0.21,0 0.53,0 0.96,0 5.92,0 11.32,-1.05 16.19,-3.17 4.87,-2.12 9.42,-5.08 13.65,-8.89 4.23,-3.81 7.73,-8.68 10.48,-14.61 2.75,-5.92 4.76,-12.7 6.03,-20.32 0,-0.42 0,-0.84 0,-1.27 0,-0.42 0,-0.84 0,-1.27 0,0 0,-0.1 0,-0.31 0,-0.21 0.21,-0.53 0.64,-0.96 0,-0.42 0,-0.74 0,-0.95 0,-0.21 0,-0.53 0,-0.95 0,-0.42 0,-0.85 0,-1.27 0,-0.42 0,-0.85 0,-1.27 0,-0.42 0,-0.85 0,-1.27 0,-0.42 0,-0.85 0,-1.27 0,-0.42 0,-0.85 0,-1.27 0,-0.42 0,-0.85 0,-1.27 0,-0.42 0,-0.85 0,-1.27 0,-0.42 0,-0.85 0,-1.27 0,0 0,-0.11 0,-0.32 0,-0.21 0,-0.53 0,-0.95 -0.43,0 -0.64,-0.11 -0.64,-0.32 0,-0.21 0,-0.53 0,-0.95 0,-0.42 0,-0.85 0,-1.27 0,-0.42 0,-0.85 0,-1.27 -1.27,-5.93 -2.96,-11.32 -5.08,-16.19 -2.12,-4.87 -4.87,-9.21 -8.25,-13.02 -2.97,-3.39 -6.57,-6.24 -10.8,-8.57 -4.23,-2.33 -8.68,-4.13 -13.33,-5.4 -0.43,0 -0.85,0 -1.27,0 -0.43,0 -0.85,-0.21 -1.27,-0.64 -0.85,0 -1.49,0 -1.91,0 -0.42,0 -0.85,0 -1.27,0 -0.42,0 -0.85,0 -1.27,0 -0.42,0 -0.85,-0.21 -1.27,-0.63 -0.42,0 -0.85,0 -1.27,0 -0.42,0 -0.85,0 -1.27,0 -5.93,0 -11.43,1.06 -16.51,3.17 -5.08,2.12 -9.74,5.08 -13.97,8.89 -4.23,3.81 -7.73,8.58 -10.48,14.29 -2.75,5.72 -4.76,12.17 -6.03,19.37 0,0.42 0,0.74 0,0.95 0,0.21 0,0.32 0,0.32 -0.42,0.42 -0.63,0.74 -0.63,0.95 0,0.21 0,0.32 0,0.32 0,0.42 0,0.85 0,1.27 0,0.42 0,0.85 0,1.27 0,0.42 0,0.85 0,1.27 0,0.42 0,0.85 0,1.27 0,0.42 0,0.85 0,1.27 0,0.42 0,0.85 0,1.27l0 -0.64zm635.63 -21.59c0,0.85 0,1.38 0,1.59 0,0.21 0,0.53 0,0.95 0,0.43 0,0.75 0,0.96 0,0.21 0,0.31 0,0.31 0,0.43 0,0.75 0,0.96 0,0.21 0,0.53 0,0.95 0,0.42 0,0.74 0,0.95 0,0.21 0,0.32 0,0.32 0,8.89 -1.06,16.51 -3.17,22.86 -2.12,6.35 -5.51,11.43 -10.16,15.24 -4.24,3.81 -10.16,6.67 -17.78,8.57 -7.62,1.91 -16.51,2.86 -26.67,2.86l-165.1 -0.64c0.42,0.85 0.74,1.49 0.95,1.91 0.21,0.42 0.53,0.63 0.95,0.63 0.42,0.43 0.74,0.85 0.95,1.27 0.21,0.43 0.53,0.85 0.96,1.27 0.84,0.43 1.58,0.96 2.22,1.59 0.63,0.64 1.16,1.38 1.59,2.22 0,0.43 0.21,0.75 0.63,0.96 0.42,0.21 0.85,0.53 1.27,0.95 0.42,0.42 0.74,0.74 0.95,0.95 0.21,0.21 0.53,0.53 0.96,0.95 3.38,2.97 7.19,5.51 11.43,7.62 4.23,2.12 8.89,4.03 13.97,5.72 4.65,1.69 10.05,2.86 16.19,3.49 6.14,0.64 12.8,0.95 20,0.95 0.42,0 0.85,0 1.27,0 0.42,0 0.85,0 1.27,0 0.42,0 0.74,0 0.95,0 0.21,0 0.53,0 0.96,0 0,0 0.1,-0.1 0.31,-0.31 0.21,-0.21 0.53,-0.32 0.96,-0.32 0.42,0 0.84,0 1.27,0 0.42,0 0.84,0 1.27,0 0.42,0 0.74,0 0.95,0 0.21,0 0.53,0 0.95,0 0,0 0.11,0 0.32,0 0.21,0 0.53,0 0.95,0 2.96,0 6.14,-0.32 9.53,-0.95 3.38,-0.64 7.19,-1.17 11.43,-1.59 3.81,-0.85 8.04,-1.69 12.7,-2.54 4.65,-0.85 9.73,-2.12 15.24,-3.81 3.81,-0.85 7.3,-1.69 10.47,-2.54 3.18,-0.85 6.04,-1.48 8.58,-1.91 2.54,-0.42 4.86,-0.74 6.98,-0.95 2.12,-0.21 4.02,-0.32 5.72,-0.32 0.42,0 0.74,0 0.95,0 0.21,0 0.53,0 0.95,0 0,0 0.11,0 0.32,0 0.21,0 0.53,0 0.95,0 7.62,0 14.5,1.27 20.64,3.81 6.14,2.54 11.75,6.35 16.83,11.43 5.08,5.08 8.89,10.48 11.43,16.2 2.54,5.71 3.81,11.96 3.81,18.73 0,0.42 0,0.74 0,0.95 0,0.21 0,0.32 0,0.32 0,0.42 0,0.74 0,0.95 0,0.21 0,0.53 0,0.95 0,0.43 0,0.75 0,0.96 0,0.21 0,0.31 0,0.31 -0.43,0.43 -0.64,0.75 -0.64,0.96 0,0.21 0,0.31 0,0.31 0,0.43 0,0.75 0,0.96 0,0.21 0,0.53 0,0.95 -0.42,0.42 -0.63,0.74 -0.63,0.95 0,0.21 0,0.53 0,0.95 0,0.43 0,0.75 0,0.96 0,0.21 0,0.31 0,0.31 -0.43,0.43 -0.64,0.75 -0.64,0.96 0,0.21 0,0.31 0,0.31 -1.69,5.51 -4.02,10.8 -6.98,15.88 -2.97,5.08 -6.78,9.52 -11.43,13.33 -4.66,4.24 -10.8,8.26 -18.42,12.07 -7.62,3.81 -16.51,7.41 -26.67,10.79 -3.81,1.27 -7.83,2.44 -12.06,3.5 -4.24,1.06 -8.68,2.01 -13.34,2.85 -4.23,0.85 -8.89,1.59 -13.97,2.23 -5.08,0.63 -10.16,1.16 -15.24,1.59 -3.81,0.42 -7.51,0.74 -11.11,0.95 -3.6,0.21 -7.09,0.53 -10.48,0.95 -1.69,0 -3.39,0 -5.08,0 -1.69,0 -3.39,0.21 -5.08,0.64 -1.69,0 -3.39,0 -5.08,0 -1.69,0 -3.39,0 -5.08,0 -32.17,-0.43 -60.85,-4.66 -86.04,-12.71 -25.19,-8.04 -47.1,-20.53 -65.72,-37.46 -18.63,-16.93 -32.6,-35.88 -41.91,-56.83 -9.32,-20.96 -13.76,-43.71 -13.34,-68.27 0,0 0,-0.1 0,-0.31 0,-0.21 0,-0.53 0,-0.96 0,0 0,-0.1 0,-0.31 0,-0.21 0,-0.53 0,-0.96 0,0 0,-0.1 0,-0.31 0,-0.21 0,-0.53 0,-0.96 0,0 0,-0.1 0,-0.31 0,-0.21 0,-0.53 0,-0.96 0.85,-23.7 5.82,-45.72 14.92,-66.04 9.1,-20.32 22.55,-38.73 40.33,-55.24 17.78,-16.51 37.78,-28.89 60,-37.15 22.23,-8.25 46.89,-12.38 73.98,-12.38 8.47,0.42 16.83,1.16 25.08,2.22 8.26,1.06 16.41,2.65 24.45,4.76 8.04,1.7 15.88,4.13 23.5,7.31 7.62,3.17 14.81,6.66 21.59,10.47 9.73,5.51 18.62,11.65 26.67,18.42 8.04,6.77 15.45,14.39 22.22,22.86 6.77,8.04 12.7,16.4 17.78,25.08 5.08,8.68 9.31,17.25 12.7,25.72 0.42,1.69 0.85,3.28 1.27,4.76 0.42,1.48 0.85,2.86 1.27,4.13 0.42,1.69 0.85,3.28 1.27,4.76 0.42,1.48 0.85,3.07 1.27,4.76 0.85,2.97 1.38,6.04 1.59,9.21 0.21,3.18 0.53,6.25 0.95,9.21l0 -0.64zm-221.61 -12.7l75.56 0c0,0 0,-0.21 0,-0.63 0,-0.42 0,-0.85 0,-1.27 0,-0.42 0,-0.74 0,-0.95 0,-0.21 0,-0.53 0,-0.96 -0.42,-0.42 -0.63,-0.74 -0.63,-0.95 0,-0.21 0,-0.53 0,-0.95 -0.85,-4.66 -2.33,-8.89 -4.45,-12.7 -2.12,-3.81 -4.87,-6.99 -8.25,-9.53 -3.39,-2.54 -6.99,-4.55 -10.8,-6.03 -3.81,-1.48 -8.04,-2.22 -12.7,-2.22 -0.42,0 -0.74,0 -0.95,0 -0.21,0 -0.32,0 -0.32,0 -0.42,0 -0.74,0 -0.95,0 -0.21,0 -0.53,0 -0.95,0 -0.43,0 -0.75,0 -0.96,0 -0.21,0 -0.53,0 -0.95,0 -0.42,0.42 -0.74,0.63 -0.95,0.63 -0.21,0 -0.53,0 -0.95,0 -3.39,0.85 -6.67,2.12 -9.85,3.81 -3.17,1.7 -6.03,3.81 -8.57,6.35 -2.54,2.54 -4.87,5.4 -6.98,8.58 -2.12,3.17 -3.81,7.09 -5.08,11.74 0,0.43 -0.11,0.75 -0.32,0.96 -0.21,0.21 -0.32,0.31 -0.32,0.31 -0.42,0.43 -0.63,0.75 -0.63,0.96 0,0.21 0,0.53 0,0.95 0,0.42 0,0.85 0,1.27 0,0.42 0,0.85 0,1.27l0 -0.64zm271.78 191.77c-3.39,-2.96 -6.35,-6.35 -8.89,-10.16 -2.54,-3.81 -4.87,-7.83 -6.98,-12.06 -1.7,-4.66 -2.97,-9.21 -3.81,-13.65 -0.85,-4.45 -1.27,-9 -1.27,-13.66l0 -364.49c0,-9.31 1.79,-17.99 5.39,-26.03 3.6,-8.04 8.79,-15.45 15.56,-22.23 7.2,-7.19 14.92,-12.38 23.18,-15.55 8.25,-3.18 17.46,-4.77 27.62,-4.77 9.74,0.43 18.63,2.33 26.67,5.72 8.04,3.39 15.45,8.68 22.23,15.87 6.77,6.78 11.85,14.19 15.24,22.23 3.38,8.04 5.08,16.93 5.08,26.67l0 361.31c0,5.08 -0.43,9.85 -1.27,14.29 -0.85,4.45 -2.12,9 -3.81,13.65 -1.7,4.24 -3.81,8.37 -6.35,12.39 -2.54,4.02 -5.51,7.72 -8.89,11.11 -3.39,3.39 -6.99,6.35 -10.8,8.89 -3.81,2.54 -8.04,4.23 -12.7,5.08 -2.12,0.85 -4.34,1.59 -6.67,2.22 -2.33,0.64 -4.55,1.17 -6.66,1.59 -2.54,0.42 -4.98,0.74 -7.31,0.95 -2.33,0.21 -4.55,0.32 -6.66,0.32 -4.24,0 -8.58,-0.42 -13.02,-1.27 -4.45,-0.85 -8.79,-2.12 -13.02,-3.81 -4.23,-0.85 -8.25,-2.54 -12.06,-5.08 -3.81,-2.54 -7.41,-5.5 -10.8,-8.89l0 -0.64z"/>
   </g>
   <g>
    <path class="fil2" d="M1380.66 3092.75c16.22,0.85 31.6,3.2 46.11,7.04 14.52,3.85 28.18,10.47 40.99,19.86 12.81,8.54 23.49,18.57 32.03,30.1 8.54,11.53 14.94,24.13 19.21,37.79l74.3 226.73 73.01 -228.01c4.27,-12.81 10.68,-24.77 19.22,-35.87 8.54,-11.1 19.21,-20.92 32.02,-29.46 11.96,-9.39 24.98,-16.22 39.07,-20.49 14.09,-4.27 29.25,-6.41 45.48,-6.41 0,0 0,0 0,0 0,0 0,0 0,0 0,0 0,0 0,0 0,0 0.42,0 1.28,0 0,0 0,0 0,0 0,0 0,0 0,0 0,0 0,0 0,0 0,0 0,0 0,0 0,0 0,0 0,0 0,0 0.43,0 1.28,0 0,0 0,0 0,0 0,0 0,0 0,0 19.64,0.85 38,4.7 55.08,11.53 17.08,6.83 32.45,17.51 46.12,32.02 13.66,13.67 23.91,28.61 30.74,44.84 6.83,16.22 10.25,34.16 10.25,53.8 0,0.85 0,1.49 0,1.92 0,0.43 0,1.07 0,1.92 0,0.85 0,1.5 0,1.92 0,0.43 0,0.64 0,0.64 -0.86,0.86 -1.28,1.71 -1.28,2.56 0,0.86 0,1.29 0,1.29 0,0.85 0,1.49 0,1.92 0,0.42 0,1.06 0,1.92 -0.86,5.12 -1.71,10.03 -2.57,14.73 -0.85,4.7 -2.13,9.18 -3.84,13.45 -0.85,4.27 -2.35,8.54 -4.48,12.81 -2.14,4.27 -4.06,8.54 -5.77,12.81l-199.83 395.82c-8.54,17.93 -17.5,33.3 -26.9,46.11 -9.39,12.81 -19.64,23.06 -30.74,30.75 -11.1,8.54 -22.85,14.52 -35.23,17.93 -12.38,3.42 -25.4,5.12 -39.07,5.12 -1.71,0 -3.63,0 -5.76,0 -2.14,0 -4.06,-0.42 -5.77,-1.28 -2.56,0 -4.91,-0.21 -7.04,-0.64 -2.14,-0.42 -4.06,-0.64 -5.77,-0.64 -3.41,-0.85 -7.47,-1.49 -12.17,-1.92 -4.69,-0.43 -9.18,-1.07 -13.45,-1.92 -6.83,-1.71 -13.23,-4.27 -19.21,-7.69 -5.98,-3.41 -11.53,-6.83 -16.65,-10.24 -5.13,-4.27 -10.25,-8.97 -15.37,-14.09 -5.13,-5.13 -10.25,-11.53 -15.38,-19.22 -2.56,-2.56 -4.91,-5.34 -7.04,-8.33 -2.14,-2.98 -4.06,-6.19 -5.77,-9.6 -1.7,-3.42 -3.63,-7.05 -5.76,-10.89 -2.14,-3.84 -4.06,-7.9 -5.76,-12.17l-199.84 -398.38c-1.7,-3.42 -3.2,-7.26 -4.48,-11.53 -1.28,-4.27 -2.35,-8.54 -3.2,-12.81 -1.71,-4.27 -2.78,-8.75 -3.2,-13.45 -0.43,-4.7 -1.07,-9.61 -1.93,-14.73 0,-0.86 0,-1.5 0,-1.92 0,-0.43 0,-1.07 0,-1.92 0,-0.86 0,-1.5 0,-1.93 0,-0.42 -0.42,-1.06 -1.28,-1.92 0,-0.85 0,-1.49 0,-1.92 0,-0.43 0,-1.07 0,-1.92 0,-0.85 0,-1.71 0,-2.56 0,-0.86 0,-1.71 0,-2.56 0.86,-18.79 4.27,-36.3 10.25,-52.52 5.98,-16.23 15.8,-31.17 29.46,-44.84 12.81,-13.66 27.54,-23.91 44.2,-30.74 16.65,-6.83 34.8,-10.68 54.44,-11.53l0 -1.28zm860.81 2.56c2.56,0.86 5.12,1.07 7.68,0.64 2.56,-0.43 5.55,-1.07 8.97,-1.92 2.56,0 5.12,-0.21 7.68,-0.64 2.57,-0.43 5.13,-0.64 7.69,-0.64 5.12,-0.85 10.25,-1.5 15.37,-1.92 5.13,-0.43 10.25,-0.64 15.37,-0.64 16.23,0 31.6,1.28 46.12,3.84 14.52,2.56 28.61,6.41 42.27,11.53 13.66,5.12 26.26,11.53 37.79,19.21 11.53,7.69 22.42,16.23 32.66,25.62l0 2.57 117.85 -62.77c1.71,0 3.21,-0.22 4.49,-0.64 1.28,-0.43 2.34,-1.07 3.2,-1.92 1.71,-0.86 3.41,-1.5 5.12,-1.93 1.71,-0.42 3.42,-0.64 5.13,-0.64 0.85,0 1.7,0 2.56,0 0.85,0 1.71,-0.42 2.56,-1.28 0,0 0.43,0 1.28,0 0.86,0 1.71,0 2.56,0 0.86,0 1.71,0 2.57,0 0.85,0 1.7,-0.42 2.56,-1.28 0,0 0.42,0 1.28,0 0.85,0 1.71,0 2.56,0 4.27,0 8.75,0.64 13.45,1.92 4.7,1.28 9.18,2.78 13.45,4.49 4.27,1.7 8.54,3.84 12.81,6.4 4.27,2.56 8.11,5.55 11.53,8.97 8.54,8.54 16.01,17.72 22.42,27.54 6.4,9.82 11.74,20.28 16.01,31.38 4.27,11.1 7.68,22.42 10.25,33.95 2.56,11.53 3.84,23.27 3.84,35.23l0 429.12c0,22.2 -3.2,41.85 -9.61,58.92 -6.4,17.08 -16.01,32.03 -28.82,44.84 -12.81,13.66 -26.69,23.48 -41.63,29.46 -14.95,5.98 -30.96,8.97 -48.04,8.97 -0.85,0 -1.49,0 -1.92,0 -0.43,0 -0.64,0 -0.64,0 -0.85,0 -1.49,0 -1.92,0 -0.43,0 -1.07,0 -1.92,0 -0.86,-0.86 -1.5,-1.28 -1.92,-1.28 -0.43,0 -0.65,0 -0.65,0 -0.85,0 -1.49,0 -1.92,0 -0.42,0 -1.06,0 -1.92,0l-116.57 -65.33 0 6.4c-9.39,10.25 -19.85,19.22 -31.38,26.9 -11.53,7.69 -23.7,14.09 -36.51,19.22 -12.81,3.41 -26.9,6.62 -42.27,9.6 -15.37,2.99 -31.6,4.49 -48.68,4.49 -5.97,0 -11.74,-0.22 -17.29,-0.64 -5.55,-0.43 -11.31,-1.07 -17.29,-1.92 -3.42,0 -6.62,-0.22 -9.61,-0.64 -2.99,-0.43 -5.76,-1.07 -8.33,-1.93 -3.41,0 -6.61,-0.21 -9.6,-0.64 -2.99,-0.42 -6.19,-1.06 -9.61,-1.92 -19.64,-2.56 -39.07,-7.68 -58.28,-15.37 -19.22,-7.69 -37.79,-17.93 -55.73,-30.74 -17.93,-12.81 -34.8,-27.33 -50.6,-43.56 -15.79,-16.22 -30.53,-34.58 -44.19,-55.08 -8.54,-14.52 -16.44,-29.25 -23.7,-44.19 -7.26,-14.95 -13.02,-30.53 -17.29,-46.76 -5.12,-17.08 -8.75,-34.16 -10.89,-51.24 -2.13,-17.07 -3.2,-34.58 -3.2,-52.52 0,-0.85 0,-1.7 0,-2.56 0,-0.85 0,-1.71 0,-2.56 0,0 0,-0.43 0,-1.28 0,-0.85 0,-1.71 0,-2.56 0,-1.71 0,-3.42 0,-5.13 0,-1.7 0,-3.41 0,-5.12 1.71,-43.55 9.61,-84.12 23.7,-121.69 14.09,-37.58 34.37,-72.16 60.84,-103.76 26.48,-31.6 55.3,-57 86.47,-76.22 31.17,-19.21 65.11,-32.24 101.84,-39.07l0 -1.28zm10.24 358.67c0,8.54 0.43,16.23 1.28,23.06 0.86,6.83 2.57,13.24 5.13,19.21 1.71,5.98 4.27,11.96 7.68,17.94 3.42,5.98 7.26,11.53 11.53,16.65 4.27,5.98 9.18,11.1 14.73,15.37 5.56,4.27 11.32,7.69 17.3,10.25 6.83,3.42 13.45,5.76 19.85,7.05 6.41,1.28 12.6,1.92 18.58,1.92 0,0 0.21,0 0.64,0 0.42,0 1.06,0 1.92,0 0.85,0 1.71,0 2.56,0 0.85,0 1.71,0 2.56,0 6.83,-0.86 13.88,-2.56 21.14,-5.13 7.26,-2.56 14.3,-5.97 21.13,-10.24 6.84,-4.27 13.03,-9.4 18.58,-15.38 5.55,-5.97 10.46,-13.23 14.73,-21.77 1.71,-2.56 3.2,-5.34 4.48,-8.33 1.28,-2.99 2.35,-6.19 3.21,-9.61 1.7,-2.56 2.77,-5.55 3.2,-8.96 0.42,-3.42 1.07,-6.83 1.92,-10.25 0,-0.85 0,-1.71 0,-2.56 0,-0.86 0.43,-2.14 1.28,-3.85 0,-0.85 0,-1.7 0,-2.56 0,-0.85 0,-1.71 0,-2.56 0,-0.85 0,-1.71 0,-2.56 0,-0.86 0.43,-2.14 1.28,-3.84 0,-0.86 0,-1.71 0,-2.57 0,-0.85 0,-1.7 0,-2.56 0,-0.85 0,-1.49 0,-1.92 0,-0.43 0,-1.07 0,-1.92 0,-0.85 0,-1.5 0,-1.92 0,-0.43 0,-1.07 0,-1.92 -0.85,-0.86 -1.28,-1.5 -1.28,-1.93 0,-0.42 0,-1.06 0,-1.92 0,-0.85 0,-1.49 0,-1.92 0,-0.43 0,-1.07 0,-1.92 -1.71,-11.1 -4.27,-21.14 -7.69,-30.1 -3.41,-8.97 -7.68,-17.3 -12.81,-24.98 -5.12,-6.83 -10.88,-13.02 -17.29,-18.58 -6.4,-5.55 -13.45,-10.03 -21.13,-13.45 -1.71,-0.85 -3.42,-1.49 -5.13,-1.92 -1.71,-0.42 -3.41,-1.06 -5.12,-1.92 -1.71,0 -3.2,-0.21 -4.49,-0.64 -1.28,-0.43 -2.77,-1.07 -4.48,-1.92 -0.85,0 -1.71,0 -2.56,0 -0.85,0 -1.71,-0.43 -2.56,-1.28 -0.86,0 -1.71,0 -2.56,0 -0.86,0 -1.71,0 -2.57,0 -0.85,0 -1.7,0 -2.56,0 -0.85,0 -1.71,-0.43 -2.56,-1.28 -0.85,0 -1.71,0 -2.56,0 -0.86,0 -1.71,0 -2.56,0 -11.11,0.85 -21.57,3.41 -31.39,7.68 -9.82,4.27 -19,10.25 -27.54,17.94 -8.54,7.68 -15.58,16.86 -21.14,27.54 -5.55,10.67 -9.6,23.27 -12.16,37.79 0,0.85 0,1.49 0,1.92 0,0.42 0,0.64 0,0.64 -0.86,0.85 -1.29,1.49 -1.29,1.92 0,0.43 0,1.07 0,1.92 0,0.86 0,1.71 0,2.56 0,0.86 0,1.71 0,2.57 0,0.85 0,1.49 0,1.92 0,0.42 0,0.64 0,0.64 -0.85,0.85 -1.28,1.49 -1.28,1.92 0,0.43 0,1.07 0,1.92 0,0.85 0,1.71 0,2.56 0,0.86 0,1.71 0,2.56l0 -1.28zm585.41 310c-6.83,-5.98 -12.81,-12.81 -17.93,-20.5 -5.13,-7.68 -9.82,-15.8 -14.09,-24.34 -3.42,-9.39 -5.98,-18.57 -7.69,-27.54 -1.71,-8.96 -2.56,-18.14 -2.56,-27.54l0 -735.27c0,-18.79 3.63,-36.3 10.89,-52.52 7.26,-16.23 17.72,-31.17 31.38,-44.84 14.52,-14.52 30.1,-24.98 46.76,-31.38 16.65,-6.41 35.22,-9.61 55.72,-9.61 19.64,0.85 37.57,4.7 53.8,11.53 16.22,6.83 31.17,17.51 44.83,32.02 13.67,13.67 23.91,28.61 30.75,44.84 6.83,16.22 10.24,34.16 10.24,53.8l0 728.87c0,10.25 -0.85,19.86 -2.56,28.82 -1.71,8.97 -4.27,18.15 -7.68,27.54 -3.42,8.54 -7.69,16.87 -12.81,24.98 -5.13,8.11 -11.11,15.59 -17.94,22.42 -6.83,6.83 -14.09,12.81 -21.77,17.93 -7.69,5.13 -16.23,8.54 -25.62,10.25 -4.27,1.71 -8.76,3.2 -13.45,4.48 -4.7,1.28 -9.18,2.35 -13.45,3.21 -5.13,0.85 -10.04,1.49 -14.73,1.92 -4.7,0.42 -9.19,0.64 -13.46,0.64 -8.53,0 -17.29,-0.86 -26.26,-2.56 -8.96,-1.71 -17.72,-4.27 -26.25,-7.69 -8.54,-1.71 -16.66,-5.12 -24.34,-10.25 -7.69,-5.12 -14.95,-11.1 -21.78,-17.93l0 -1.28zm1052.96 -361.24c0,1.71 0,2.78 0,3.21 0,0.42 0,1.06 0,1.92 0,0.85 0,1.49 0,1.92 0,0.43 0,0.64 0,0.64 0,0.85 0,1.49 0,1.92 0,0.43 0,1.07 0,1.92 0,0.86 0,1.5 0,1.92 0,0.43 0,0.64 0,0.64 0,17.94 -2.14,33.31 -6.41,46.12 -4.27,12.81 -11.1,23.06 -20.49,30.74 -8.54,7.69 -20.5,13.45 -35.87,17.3 -15.37,3.84 -33.31,5.76 -53.8,5.76l-333.05 -1.28c0.85,1.71 1.49,2.99 1.92,3.84 0.42,0.86 1.06,1.28 1.92,1.28 0.85,0.86 1.49,1.71 1.92,2.57 0.43,0.85 1.07,1.7 1.92,2.56 1.71,0.85 3.2,1.92 4.48,3.2 1.29,1.28 2.35,2.78 3.21,4.48 0,0.86 0.42,1.5 1.28,1.92 0.85,0.43 1.71,1.07 2.56,1.93 0.85,0.85 1.49,1.49 1.92,1.92 0.43,0.42 1.07,1.06 1.92,1.92 6.83,5.98 14.52,11.1 23.06,15.37 8.54,4.27 17.93,8.11 28.18,11.53 9.4,3.42 20.28,5.76 32.67,7.04 12.38,1.29 25.83,1.93 40.35,1.93 0.85,0 1.7,0 2.56,0 0.85,0 1.71,0 2.56,0 0.85,0 1.5,0 1.92,0 0.43,0 1.07,0 1.92,0 0,0 0.22,-0.22 0.64,-0.64 0.43,-0.43 1.07,-0.64 1.93,-0.64 0.85,0 1.7,0 2.56,0 0.85,0 1.71,0 2.56,0 0.85,0 1.49,0 1.92,0 0.43,0 1.07,0 1.92,0 0,0 0.22,0 0.64,0 0.43,0 1.07,0 1.92,0 5.98,0 12.39,-0.65 19.22,-1.93 6.83,-1.28 14.52,-2.34 23.06,-3.2 7.68,-1.71 16.22,-3.41 25.62,-5.12 9.39,-1.71 19.64,-4.27 30.74,-7.69 7.68,-1.71 14.73,-3.41 21.14,-5.12 6.4,-1.71 12.16,-2.99 17.29,-3.85 5.12,-0.85 9.82,-1.49 14.09,-1.92 4.27,-0.42 8.11,-0.64 11.53,-0.64 0.85,0 1.49,0 1.92,0 0.43,0 1.07,0 1.92,0 0,0 0.21,0 0.64,0 0.43,0 1.07,0 1.92,0 15.37,0 29.25,2.56 41.63,7.69 12.39,5.12 23.7,12.81 33.95,23.06 10.25,10.24 17.93,21.13 23.06,32.66 5.12,11.53 7.68,24.13 7.68,37.79 0,0.85 0,1.49 0,1.92 0,0.43 0,0.64 0,0.64 0,0.86 0,1.5 0,1.92 0,0.43 0,1.07 0,1.92 0,0.86 0,1.5 0,1.93 0,0.42 0,0.64 0,0.64 -0.85,0.85 -1.28,1.49 -1.28,1.92 0,0.42 0,0.64 0,0.64 0,0.85 0,1.49 0,1.92 0,0.43 0,1.07 0,1.92 -0.85,0.86 -1.28,1.5 -1.28,1.92 0,0.43 0,1.07 0,1.92 0,0.86 0,1.5 0,1.93 0,0.42 0,0.64 0,0.64 -0.85,0.85 -1.28,1.49 -1.28,1.92 0,0.42 0,0.64 0,0.64 -3.42,11.1 -8.11,21.77 -14.09,32.02 -5.98,10.25 -13.66,19.22 -23.06,26.9 -9.39,8.54 -21.77,16.66 -37.15,24.34 -15.37,7.69 -33.3,14.95 -53.8,21.78 -7.68,2.56 -15.8,4.91 -24.34,7.04 -8.54,2.14 -17.5,4.06 -26.9,5.77 -8.54,1.71 -17.93,3.2 -28.18,4.48 -10.24,1.28 -20.49,2.35 -30.74,3.2 -7.69,0.86 -15.16,1.5 -22.42,1.92 -7.26,0.43 -14.3,1.07 -21.13,1.93 -3.42,0 -6.84,0 -10.25,0 -3.42,0 -6.83,0.42 -10.25,1.28 -3.41,0 -6.83,0 -10.25,0 -3.41,0 -6.83,0 -10.24,0 -64.91,-0.86 -122.76,-9.4 -173.58,-25.62 -50.81,-16.23 -95,-41.42 -132.58,-75.58 -37.57,-34.16 -65.75,-72.37 -84.54,-114.65 -18.79,-42.27 -27.75,-88.17 -26.9,-137.7 0,0 0,-0.21 0,-0.64 0,-0.43 0,-1.07 0,-1.92 0,0 0,-0.22 0,-0.64 0,-0.43 0,-1.07 0,-1.92 0,0 0,-0.22 0,-0.65 0,-0.42 0,-1.06 0,-1.92 0,0 0,-0.21 0,-0.64 0,-0.42 0,-1.06 0,-1.92 1.71,-47.82 11.74,-92.23 30.1,-133.22 18.36,-40.99 45.48,-78.14 81.34,-111.44 35.87,-33.31 76.22,-58.29 121.06,-74.94 44.83,-16.65 94.57,-24.98 149.23,-24.98 17.08,0.85 33.94,2.35 50.6,4.48 16.65,2.14 33.09,5.34 49.31,9.61 16.23,3.42 32.03,8.33 47.4,14.73 15.37,6.41 29.89,13.45 43.55,21.14 19.64,11.1 37.58,23.48 53.8,37.15 16.23,13.66 31.17,29.03 44.84,46.11 13.66,16.23 25.62,33.09 35.86,50.6 10.25,17.51 18.79,34.8 25.62,51.88 0.86,3.41 1.71,6.62 2.57,9.61 0.85,2.99 1.7,5.76 2.56,8.32 0.85,3.42 1.71,6.62 2.56,9.61 0.85,2.99 1.71,6.19 2.56,9.61 1.71,5.97 2.78,12.17 3.2,18.57 0.43,6.41 1.07,12.6 1.93,18.58l0 -1.29zm-447.06 -25.62l152.43 0c0,0 0,-0.42 0,-1.28 0,-0.85 0,-1.7 0,-2.56 0,-0.85 0,-1.49 0,-1.92 0,-0.43 0,-1.07 0,-1.92 -0.85,-0.86 -1.28,-1.5 -1.28,-1.92 0,-0.43 0,-1.07 0,-1.92 -1.71,-9.4 -4.7,-17.94 -8.96,-25.62 -4.27,-7.69 -9.83,-14.09 -16.66,-19.22 -6.83,-5.12 -14.09,-9.18 -21.77,-12.17 -7.69,-2.99 -16.23,-4.48 -25.62,-4.48 -0.86,0 -1.5,0 -1.92,0 -0.43,0 -0.65,0 -0.65,0 -0.85,0 -1.49,0 -1.92,0 -0.42,0 -1.06,0 -1.92,0 -0.85,0 -1.49,0 -1.92,0 -0.43,0 -1.07,0 -1.92,0 -0.86,0.85 -1.5,1.28 -1.92,1.28 -0.43,0 -1.07,0 -1.92,0 -6.84,1.71 -13.45,4.27 -19.86,7.69 -6.4,3.41 -12.17,7.68 -17.29,12.81 -5.13,5.12 -9.82,10.88 -14.09,17.29 -4.27,6.4 -7.69,14.3 -10.25,23.7 0,0.85 -0.21,1.49 -0.64,1.92 -0.43,0.43 -0.64,0.64 -0.64,0.64 -0.86,0.85 -1.28,1.49 -1.28,1.92 0,0.43 0,1.07 0,1.92 0,0.86 0,1.71 0,2.56 0,0.86 0,1.71 0,2.57l0 -1.29zm918.45 698.13c-6.83,-7.68 -12.81,-15.37 -17.93,-23.05 -5.13,-7.69 -9.4,-16.23 -12.81,-25.62 -3.42,-8.54 -5.98,-17.3 -7.69,-26.26 -1.71,-8.97 -2.56,-18.15 -2.56,-27.54l0 -739.12c0,-18.79 3.41,-36.51 10.25,-53.16 6.83,-16.66 17.08,-31.81 30.74,-45.48 13.66,-13.66 28.61,-23.91 44.83,-30.74 16.23,-6.83 33.74,-10.25 52.52,-10.25 0,0 0,0 0,0 0,0 0.43,0 1.28,0 0,0 0,0 0,0 0,0 0,0 0,0 0,0 0.22,0 0.64,0 0.43,0 1.07,0 1.93,0 0,0 0,0 0,0 0,0 0,0 0,0 0,0 0.21,0 0.64,0 0.42,0 1.06,0 1.92,0l111.44 62.77 0 -6.41c11.96,-8.54 24.55,-16.44 37.79,-23.69 13.24,-7.26 27.11,-13.46 41.63,-18.58 14.52,-4.27 29.25,-7.68 44.2,-10.25 14.94,-2.56 30.53,-3.84 46.75,-3.84 5.13,0 10.25,0.21 15.37,0.64 5.13,0.43 10.25,1.07 15.37,1.92 5.13,0.86 10.25,1.5 15.38,1.92 5.12,0.43 10.67,1.07 16.65,1.93 10.25,2.56 20.49,5.55 30.74,8.96 10.25,3.42 20.5,7.26 30.75,11.53 10.24,4.27 20.49,9.39 30.74,15.37 10.25,5.98 20.07,12.39 29.46,19.22 17.08,11.95 32.67,25.83 46.76,41.63 14.09,15.8 27.11,33.52 39.07,53.16 11.95,18.79 21.99,39.5 30.1,62.13 8.11,22.63 14.3,46.32 18.57,71.09 0,3.42 0.22,6.62 0.64,9.61 0.43,2.99 1.07,5.76 1.92,8.32 0,3.42 0.22,6.62 0.65,9.61 0.42,2.99 1.06,5.76 1.92,8.33 0,3.41 0,6.62 0,9.6 0,2.99 0,5.77 0,8.33 0,1.71 0,3.42 0,5.12 0,1.71 0.42,2.99 1.28,3.85 0,1.71 0,3.2 0,4.48 0,1.28 0,2.78 0,4.48 0,5.98 -0.22,12.17 -0.64,18.58 -0.43,6.4 -1.07,13.02 -1.92,19.85 -0.86,5.98 -1.71,12.17 -2.57,18.58 -0.85,6.4 -2.13,13.02 -3.84,19.85 -6.83,31.6 -16.65,60.85 -29.46,87.75 -12.81,26.9 -28.18,51.45 -46.12,73.65 -18.78,21.35 -39.71,40.14 -62.76,56.37 -23.06,16.22 -48.25,29.03 -75.58,38.43 -9.4,3.41 -18.79,5.97 -28.18,7.68 -9.4,1.71 -18.79,2.99 -28.18,3.84 -4.27,0.86 -8.76,1.5 -13.45,1.93 -4.7,0.42 -9.18,1.06 -13.45,1.92 -5.13,0 -10.04,0.21 -14.74,0.64 -4.69,0.43 -9.18,0.64 -13.45,0.64 -9.39,0 -18.78,-0.43 -28.18,-1.28 -9.39,-0.86 -18.78,-2.14 -28.18,-3.85 -8.54,-1.7 -17.29,-3.41 -26.26,-5.12 -8.97,-1.71 -17.72,-4.27 -26.26,-7.68l-14.09 -6.41 -12.81 -5.12 0 199.83c0,9.39 -0.85,18.57 -2.56,27.54 -1.71,8.97 -4.7,17.72 -8.97,26.26 -3.41,8.54 -7.68,16.65 -12.81,24.34 -5.12,7.68 -11.1,14.94 -17.93,21.77 -6.83,6.84 -14.09,12.81 -21.78,17.94 -7.68,5.12 -15.8,9.39 -24.34,12.81 -4.27,1.7 -8.54,3.2 -12.81,4.48 -4.27,1.28 -8.53,2.35 -12.8,3.2 -5.13,0.86 -9.83,1.5 -14.1,1.92 -4.27,0.43 -8.54,0.64 -12.81,0.64 -9.39,0 -18.57,-0.85 -27.54,-2.56 -8.96,-1.71 -17.72,-4.27 -26.26,-7.68 -8.54,-3.42 -16.65,-7.9 -24.33,-13.45 -7.69,-5.55 -14.95,-11.75 -21.78,-18.58l0 1.28zm235.7 -617.42c0,17.08 2.56,32.45 7.68,46.11 5.13,13.66 11.96,25.62 20.5,35.87 9.39,10.25 19.64,17.72 30.74,22.41 11.1,4.7 23.49,7.05 37.15,7.05 0,0 0,0 0,0 0,0 0,0 0,0 0,0 0,0 0,0 0,0 0.43,0 1.28,0 0,0 0,0 0,0 0,0 0,0 0,0 0,0 0,0 0,0 0,0 0,0 0,0 0,0 0,0 0,0 0,0 0.43,0 1.28,0 0,0 0,0 0,0 0,0 0,0 0,0 12.81,0 24.98,-2.56 36.51,-7.69 11.53,-5.12 21.99,-12.81 31.38,-23.05 9.4,-10.25 16.23,-22.21 20.5,-35.87 4.27,-13.66 6.4,-28.61 6.4,-44.83 0,-1.71 0,-3.63 0,-5.77 0,-2.13 0,-4.05 0,-5.76 0,-0.86 0,-1.71 0,-2.56 0,-0.86 0,-2.14 0,-3.85 -0.85,-0.85 -1.28,-1.71 -1.28,-2.56 0,-0.85 0,-1.71 0,-2.56 -1.7,-11.96 -4.91,-22.85 -9.6,-32.67 -4.7,-9.82 -10.47,-18.57 -17.3,-26.26 -7.68,-7.68 -15.8,-13.87 -24.34,-18.57 -8.54,-4.7 -17.5,-7.9 -26.9,-9.61 -0.85,0 -1.7,0 -2.56,0 -0.85,0 -1.71,-0.42 -2.56,-1.28 -0.85,0 -1.71,0 -2.56,0 -0.86,0 -1.71,0 -2.56,0 -0.86,0 -1.71,0 -2.57,0 -0.85,0 -1.28,0 -1.28,0 -0.85,0 -1.7,0 -2.56,0 -0.85,0 -1.71,0 -2.56,0 -13.66,0 -26.05,2.56 -37.15,7.69 -11.1,5.12 -21.35,12.81 -30.74,23.05 -9.4,10.25 -16.44,22.21 -21.14,35.87 -4.69,13.67 -6.62,29.04 -5.76,46.12l0 -1.28z"/>
    <path class="fil2" d="M5502.82 3807.53c-53.8,-0.85 -103.12,-9.82 -147.96,-26.9 -44.83,-17.08 -85.18,-42.7 -121.05,-76.86 -36.72,-35.01 -64.26,-73.23 -82.62,-114.64 -18.36,-41.42 -27.54,-86.9 -27.54,-136.43 -0.85,-49.53 7.69,-95.43 25.62,-137.7 17.93,-42.27 45.26,-81.34 81.98,-117.21 35.87,-35.87 76.43,-62.77 121.69,-80.7 45.26,-17.94 95.22,-26.9 149.88,-26.9 24.76,0 48.67,1.92 71.73,5.76 23.06,3.84 45.26,9.61 66.61,17.29 22.2,7.69 42.91,17.3 62.13,28.83 19.21,11.53 37.36,24.55 54.44,39.07 19.64,17.08 37.15,35.44 52.52,55.08 15.37,19.64 28.18,40.56 38.43,62.77 10.25,22.2 18.15,44.83 23.7,67.89 5.55,23.05 8.75,46.11 9.6,69.17 0,0.85 0,1.49 0,1.92 0,0.43 0,0.64 0,0.64 0,0.86 0,1.5 0,1.92 0,0.43 0,1.07 0,1.92 0,0.86 0,1.5 0,1.93 0,0.42 0,0.64 0,0.64 0,0.85 0,1.49 0,1.92 0,0.42 0,1.07 0,1.92 0,30.74 -4.05,60.63 -12.17,89.67 -8.11,29.03 -19.85,57.64 -35.22,85.82 -15.37,28.18 -34.59,53.38 -57.65,75.58 -23.05,22.2 -49.53,41.84 -79.42,58.92 -13.66,8.54 -28.18,15.8 -43.55,21.78 -15.37,5.98 -31.6,10.25 -48.68,12.81 -16.22,4.27 -32.87,7.47 -49.95,9.61 -17.08,2.13 -34.59,3.2 -52.52,3.2l0 1.28zm-99.92 -357.39c-0.85,18.79 1.28,35.44 6.41,49.96 5.12,14.52 12.81,27.33 23.05,38.43 10.25,11.1 21.14,19.21 32.67,24.34 11.53,5.12 24.12,7.68 37.79,7.68 0.85,0 1.7,0 2.56,0 0.85,0 1.71,0 2.56,0 0,0 0.43,0 1.28,0 0.86,0 1.71,0 2.56,0 1.71,0 3.42,-0.21 5.13,-0.64 1.71,-0.43 3.41,-1.07 5.12,-1.92 11.1,-1.71 21.14,-4.91 30.1,-9.61 8.97,-4.69 16.44,-10.89 22.42,-18.57 6.83,-7.69 12.38,-16.65 16.65,-26.9 4.27,-10.25 7.26,-22.21 8.97,-35.87 0,-0.85 0,-1.71 0,-2.56 0,-0.86 0.43,-2.14 1.28,-3.84 0,-0.86 0,-1.93 0,-3.21 0,-1.28 0,-2.35 0,-3.2 0,-1.71 0,-2.99 0,-3.84 0,-0.86 0.43,-2.14 1.28,-3.85 0,-0.85 0,-1.92 0,-3.2 0,-1.28 0,-2.35 0,-3.2 0,-5.98 -0.42,-11.74 -1.28,-17.29 -0.85,-5.55 -2.13,-10.89 -3.84,-16.02 -0.86,-5.12 -2.35,-10.24 -4.49,-15.37 -2.13,-5.12 -4.48,-9.82 -7.04,-14.09 -5.12,-8.54 -10.89,-16.01 -17.29,-22.41 -6.41,-6.41 -13.03,-11.32 -19.86,-14.74 -6.83,-4.27 -14.09,-7.47 -21.78,-9.6 -7.68,-2.14 -15.79,-3.21 -24.33,-3.21 -8.54,0 -16.87,1.07 -24.98,3.21 -8.12,2.13 -15.59,5.33 -22.42,9.6 -6.83,3.42 -13.24,8.33 -19.21,14.74 -5.98,6.4 -11.53,13.87 -16.66,22.41 -2.56,4.27 -4.91,8.97 -7.04,14.09 -2.14,5.13 -4.06,10.25 -5.77,15.37 -0.85,5.13 -1.7,10.47 -2.56,16.02 -0.85,5.55 -1.28,11.74 -1.28,18.57l0 -1.28zm684.04 352.27c0,0 0,-0.22 0,-0.64 0,-0.43 0,-0.64 0,-0.64 -0.86,0 -1.29,0 -1.29,0 0,0 0,0 0,0 0,0 0,0 0,0 0,0 0,0 0,0 -0.85,0 -1.28,0 -1.28,0 0,0 0,0 0,0 -0.85,0 -1.49,0 -1.92,0 -0.42,0 -0.64,0 -0.64,0 0,0 0,0 0,0 0,0 0,0 0,0 -18.79,0 -36.29,-2.99 -52.52,-8.97 -16.22,-5.98 -31.17,-15.8 -44.83,-29.46 -13.67,-12.81 -23.7,-27.54 -30.1,-44.2 -6.41,-16.65 -9.61,-34.37 -9.61,-53.16l0 -430.4c0,-18.79 3.41,-36.51 10.25,-53.16 6.83,-16.66 17.08,-31.81 30.74,-45.48 14.52,-14.52 30.1,-25.19 46.75,-32.02 16.66,-6.83 34.8,-10.25 54.45,-10.25l131.94 88.39 0 -6.41 7.68 -8.96 15.37 -16.66c4.27,-4.27 8.76,-8.54 13.45,-12.81 4.7,-4.27 9.18,-8.11 13.45,-11.53 4.27,-3.41 8.76,-6.4 13.45,-8.96 4.7,-2.56 9.61,-5.13 14.73,-7.69 4.27,-1.71 8.54,-3.41 12.81,-5.12 4.27,-1.71 8.54,-2.99 12.81,-3.84 4.27,-1.71 8.76,-2.78 13.45,-3.21 4.7,-0.42 9.61,-0.64 14.74,-0.64 1.7,0 3.2,0 4.48,0 1.28,0 2.35,0 3.2,0 0.86,0 1.71,0 2.56,0 0.86,0 1.71,0 2.57,0 0.85,0.86 1.7,1.28 2.56,1.28 0.85,0 1.71,0 2.56,0 0.85,0 1.71,0 2.56,0 0.86,0 1.71,0 2.56,0 0,0.86 0.43,1.28 1.28,1.28 0.86,0 1.71,0 2.57,0 0.85,0 1.7,0.22 2.56,0.64 0.85,0.43 1.71,0.65 2.56,0.65 0,0.85 0.43,1.28 1.28,1.28 0.85,0 1.71,0 2.56,0 11.96,3.41 23.27,8.11 33.95,14.09 10.67,5.97 20.28,13.66 28.82,23.05 9.39,8.54 16.65,17.94 21.78,28.19 5.12,10.24 8.96,21.35 11.53,33.3 0.85,2.56 1.49,5.12 1.92,7.69 0.42,2.56 0.64,5.12 0.64,7.68 0,2.56 0,5.13 0,7.69 0,2.56 0,5.12 0,7.68 0,15.38 -2.78,29.47 -8.33,42.28 -5.55,12.81 -13.45,24.76 -23.7,35.86 -10.24,11.11 -23.69,21.14 -40.35,30.11 -16.65,8.96 -36.08,16.86 -58.28,23.69 -0.86,0.86 -1.92,1.5 -3.2,1.93 -1.28,0.42 -2.78,0.64 -4.49,0.64 -0.85,0.85 -1.71,1.49 -2.56,1.92 -0.85,0.42 -1.71,0.64 -2.56,0.64 -0.86,0 -1.5,0.21 -1.92,0.64 -0.43,0.43 -0.64,0.64 -0.64,0.64 -0.86,0.85 -1.5,1.28 -1.92,1.28 -0.43,0 -1.07,0 -1.93,0 -0.85,0 -1.49,0.21 -1.92,0.64 -0.42,0.43 -0.64,0.64 -0.64,0.64 -0.85,0.85 -1.49,1.28 -1.92,1.28 -0.43,0 -1.07,0 -1.92,0 -3.42,1.71 -7.05,3.2 -10.89,4.49 -3.84,1.28 -7.47,2.77 -10.89,4.48 -1.71,0.85 -3.2,1.71 -4.48,2.56 -1.28,0.85 -2.78,1.28 -4.48,1.28 -0.86,0.86 -1.93,1.71 -3.21,2.56 -1.28,0.86 -2.77,1.71 -4.48,2.57 -13.66,7.68 -24.77,15.58 -33.31,23.69 -8.53,8.12 -14.94,16.87 -19.21,26.26 -3.42,9.4 -6.19,21.57 -8.33,36.51 -2.13,14.95 -2.77,32.67 -1.92,53.16l0 122.97c0,21.35 -3.2,40.57 -9.6,57.65 -6.41,17.08 -16.87,32.88 -31.39,47.39 -13.66,13.67 -28.82,23.92 -45.47,30.75 -16.66,6.83 -34.8,10.67 -54.44,11.53l0 1.28z"/>
   </g>
  </g>
 </g>
</svg>
