<?xml version="1.0" encoding="UTF-8"?>
<!DOCTYPE svg PUBLIC "-//W3C//DTD SVG 1.1//EN" "http://www.w3.org/Graphics/SVG/1.1/DTD/svg11.dtd">
<!-- Creator: CorelDRAW 2017 -->
<svg xmlns="http://www.w3.org/2000/svg" xml:space="preserve" width="8.4666mm" height="8.4666mm" version="1.1" style="shape-rendering:geometricPrecision; text-rendering:geometricPrecision; image-rendering:optimizeQuality; fill-rule:evenodd; clip-rule:evenodd"
viewBox="0 0 846.66 846.66"
 xmlns:xlink="http://www.w3.org/1999/xlink">
 <defs>
  <style type="text/css">
   <![CDATA[
    .fil0 {fill:none}
    .fil1 {fill:#373435}
   ]]>
  </style>
 </defs>
 <g id="Capa_x0020_1">
  <metadata id="CorelCorpID_0Corel-Layer"/>
  <rect class="fil0" width="846.66" height="846.66"/>
  <rect class="fil0" width="846.66" height="846.66"/>
  <path class="fil1" d="M503.23 538.78c13.07,-13.78 64.9,-79.35 79.48,-96.84 8.1,-9.74 78.24,-94.8 79.19,-97.76 -4.34,-2.78 -122.5,-24.53 -139.09,-27.81 -16.96,-3.36 -56.49,-14.66 -70.83,-7.86 -9.95,4.71 -32.94,32.76 -41.59,42.39 -3.39,3.81 -6.85,7.12 -10.16,10.82 -12.99,14.61 -22.17,19.02 -15,42.94 2.78,9.23 25.69,92.52 29.9,96.12l58.34 25.72c6.54,2.83 23.6,11.11 29.74,12.28l0.02 0zm228.45 -148c4.5,-2.99 18.2,-22.7 21.85,-28.23 5.42,-8.18 6.54,-7.22 3.78,-18.47 -1.16,-4.74 -3.36,-16.59 -5.69,-19.79 -3.55,2.06 -4.55,11.43 -5.61,15.24 -3.49,12.38 -12.91,42.52 -14.34,51.28l0.01 -0.03zm-351.53 400.05c3.6,2.57 44.45,11.64 52.94,13.63 48.6,11.27 72.36,3.92 121.29,-2.67 19.76,-2.65 40.11,-5.66 59.74,-7.99 -2.67,-4.74 -25.27,-14.42 -31.51,-17.57l-96.55 -48.55c-5.79,-2.96 -10.56,-5.37 -15.82,-7.99 -6.14,-3.04 -11.06,-7.57 -17.17,-1.85 -8.28,7.75 -15.8,16.4 -23.89,24.53 -8.28,8.31 -15.82,16.09 -24.21,24.21 -4.89,4.76 -22.01,20.37 -24.87,24.26l0.05 -0.01zm259.95 -252.05c23.31,-0.71 44.11,-18.2 53.31,-29.05 11.59,-13.68 22.6,-31.12 29.98,-52.2 7.94,-22.65 13.6,-33.28 2.75,-45.83 -6.96,-8.04 -45.09,-53.95 -49.4,-54.98 -3.36,2.12 -38.21,46.28 -45.4,55.32 -2.57,3.25 -4.66,5.79 -7.33,9.13 -2.33,2.91 -5.85,6.72 -7.73,9.6 -4.15,6.4 1.01,20.56 2.78,27.6l21.01 80.43 0.03 -0.02zm-271.09 242.63c9.02,-8.92 46.41,-54.05 57.12,-65.91l55.83 -66.89 -203.36 -23.15c-8.86,-0.98 -21.85,-3.18 -30.24,-2.99 1.85,4.31 24.87,33.76 29.71,40.11 10.16,13.36 20.19,26.64 30.29,40.01 6.22,8.26 57.81,77.73 60.64,78.82l0.01 0zm-121.26 -182.83c8.97,1.03 229.63,29.34 237.23,28.65 1.56,-4.87 2.43,-19.26 3.1,-25.37 0.9,-8.28 1.93,-16.54 3.1,-24.9 3.15,-22.44 3.1,-17.91 -23.79,-31.64 -13.2,-6.75 -24.98,-12.7 -38.18,-19.42 -12.59,-6.4 -24.66,-14.13 -41.33,-16.19 -38.55,-4.76 -65.93,14 -83.34,31.19 -10.35,10.21 -18.97,18.84 -28.92,28.63 -4.05,4 -26.99,25.85 -27.89,29.02l0.02 0.03zm288.35 -296.57c-0.77,-5.45 -9.13,-21.75 -11.67,-27.41l-37.04 -80.78c-14.58,-31.19 -9.39,-23.94 -40.4,-38.13 -51.73,-23.63 -112.21,-48.9 -164.84,-71.68 -18.2,-7.86 -36.64,-15.98 -54.8,-23.79l-55.75 -23.87c1.51,4.76 29.34,41.94 34.42,48.87 11.69,16.03 23.55,32.52 35.22,48.76 24.16,33.63 15.08,29.98 49.05,19.1 10.45,-3.36 21.09,-6.93 31.59,-10.35 11.27,-3.68 14.47,2.22 27.25,12.14l139.83 110.41c8.26,6.43 41.8,33.68 47.12,36.72l0.02 0.01zm-448.21 -74.83l415.66 70.19c-1.06,-4.52 -3.7,-5.5 -9.84,-10.35l-119.88 -94.72c-7.57,-5.93 -14.37,-11.43 -21.93,-17.36 -3.81,-2.99 -7.17,-5.64 -10.72,-8.47 -2.83,-2.25 -8.52,-7.25 -11.43,-8.65 -6.88,-3.28 -23.55,3.28 -30.9,5.5l-181.77 53.92c-5.13,1.56 -27.31,6.4 -29.18,9.87l-0.01 0.07z"/>
 </g>
</svg>
