<!-- Generated by IcoMoon.io -->
<svg version="1.1" xmlns="http://www.w3.org/2000/svg" width="32" height="32" viewBox="0 0 32 32">
<title>logo-viajemos-todxs-por-mexico-blanco-y-negro</title>
<path fill="#96989a" d="M0.964 21.062h30.071v3.211h-30.071v-3.211z"></path>
<path fill="#000" d="M8.757 11.418c-0.005-0.007-0.014-0.025-0.017-0.019l-0.097-0.093 0.203 0.019 0.040-0.192c0.031 0.039 0.013 0.006 0.039 0.074 0.006 0.015 0.021 0.079 0.029 0.108 0.125 0.019 0.104 0.003 0.203-0.010-0.041 0.086-0.038 0.013-0.113 0.112 0.127 0.035 0.069 0.011 0.095 0.049l0.031 1.18c-0.008 0.165-0.019 0.058-0.128 0.119l-0.036 0.024c-0.004 0.003-0.011 0.011-0.019 0.014-0.013-0.189-0.006-0.125-0.044-0.161-0.207 0.192 0.028 0.206 0.040 0.212l0.1 0.096c-0.142-0.060 0.012 0.017-0.096 0.005-0.025-0.002-0.003 0.039-0.074-0.048l-0.026-0.041c-0.048 0.071-0.019 0.104 0.060 0.116-0.148 0.079-0.116 0.011-0.103 0.135 0.152-0.056 0.201-0.143 0.409-0.185l0.027 0.158c0.095 0.067 0.156 0.236 0.356 0.196 0.084-0.017 0.263-0.21 0.324-0.269 0.199-0.191 0.393-0.388 0.594-0.581 0.649-0.62 0.421-0.536 0.011-0.969-0.116-0.123-0.184-0.22-0.32-0.283-0.019 0.198 0.009-0.010-0.033 0.073-0.001 0.003-0.007 0.010-0.008 0.013l-0.011 0.027c-0.001 0.003-0.002 0.012-0.003 0.016-0.014 0.058 0.017 0.067-0.090 0.127 0.13 0.13 0.119-0.084 0.126 0.195-0.089-0.043-0.116-0.034-0.108-0.15l-0.153-0.015c-0.195-0.070 0.102 0.078-0.062-0.049-0.001-0.001-0.029-0.088-0.092 0.009l-0.105 0.047c0.103 0.187 0.371 0.323 0.456 0.494-0.085 0.118-0.112 0.122-0.214 0.222l-0.698 0.7-0.011-1.577 0.123 0.005c0.010-0.001 0.025-0.007 0.030-0.001s0.021-0.003 0.026-0.009c0.049-0.053 0.014 0.017 0.056-0.095-0.203-0.076-0.21 0.036-0.276 0.019-0.143-0.036-0.031-0.007-0.088-0.076 0.086 0.025 0.044 0.038 0.111 0.011 0.039-0.016 0.048-0.061 0.045-0.095-0.131-0.044-0.101-0.015-0.156 0.084l-0.051-0.042c-0.116-0.085 0.062-0.107-0.148-0.064-0.068 0.014-0.056-0.026-0.109 0.162-0.207 0-0.279-0.131-0.325 0.223l0.28-0.020z"></path>
<path fill="#000" d="M8.969 14.473c0.105 0.021 0.151 0.098 0.264 0.111 0.044-0.347-0.048-1.236 0.025-1.478-0.144 0.031-0.334 0.373-0.386 0.557-0.079 0.281 0.012 0.594 0.097 0.81z"></path>
<path fill="#000" d="M17.912 17.371h0.848l-0.002-4.224c-0.389-0.078-0.625 0.291-0.751 0.527-0.166 0.309-0.106 0.742-0.105 1.151 0.002 0.849 0.014 1.699 0.011 2.547z"></path>
<path fill="#000" d="M16.809 17.371h0.848l0.013-3.19c0.002-0.284-0.003-0.312-0.116-0.525-0.107-0.202-0.413-0.561-0.739-0.529l-0.006 4.245z"></path>
<path fill="#000" d="M18.232 11.872c-0.691 0-0.23-0.021-0.476-0.074l-0.166-0.024c-0.307-0.082-0.322 0.013-0.51-0.068-0.007-0.003-0.015-0.006-0.022-0.009s-0.014-0.007-0.020-0.011c-0.066-0.042-0.035-0.013-0.064-0.062-0.057-0.097-0.001-0.123-0.044-0.212-0.003-0.005-0.011-0.018-0.014-0.022-0.064-0.096 0.135 0.026-0.029-0.036v1.287c0.035 0.034 0.131 0.128 0.168 0.14 0.054-0.089 0.054-0.052 0.168-0.028l0.084 0.14-0.084 0.112h1.148c0.006-0.022 0.001-0.104-0.002-0.112-0.002-0.007-0.006-0.014-0.009-0.022l-0.045-0.118c0.045 0.002 0.129 0.003 0.155 0.005 0.011 0 0.018 0.001 0.028 0.001l-0.050-0.048c0.073-0.199 0.012-0.371 0.038-0.44 0.042-0.112-0.095 0.108 0.034-0.047 0.003-0.003 0.015-0.005 0.018-0.015s0.013-0.010 0.019-0.015c0.002-0.006 0.022-0.29-0.018-0.371l-0.074-0.105c0.152-0.112 0.207 0.054 0.157-0.136l-0.032 0.026c-0.115 0.066-0.115 0.034-0.164 0.014-0.005 0.097-0.002 0.083-0.028 0.152-0.090-0.012-0.085-0.011-0.145-0.027l-0.022 0.125z"></path>
<path fill="#000" d="M18.449 9.788l0.087-0.178c0.027-0.478-0.163-0.765-0.536-0.875-0.884-0.261-1.33 1.042-0.501 1.395 0.408 0.174 0.834-0.034 0.95-0.342z"></path>
<path fill="#000" d="M22.681 8.772l0.488 0.179c0.025-0.011 0.151-0.023 0.014-0.167-0.197-0.208-0.535-0.322-0.807-0.369 0.001 0.152 0.054 0.136 0.070 0.281 0.101 0.004 0.169 0.028 0.235 0.076z"></path>
<path fill="#000" d="M20.848 10.672c-0.002 0.117-0.042 0.165-0.048 0.317l0.009 2.741c0.045 0.193 0.343 0.229 0.509 0.094 0.211-0.171-0.047-1.991 0.105-2.241l0.084-0.003c0.078 0.127 0.022 0.415 0.034 0.582 0.158 0.021 0.253-0.001 0.387-0.016l0.302-0.009c0.080 0.029 0.030-0.026 0.064 0.057-0.062 0.138-0.325 0.010-0.45 0.124l0.418 0.016c0.009 0.069 0.008 0.051 0.033 0.075 0.088 0.081-0.003 0.037 0.114 0.047 0.042-0.038 0.040-0.040 0.169-0.034l-0.017 0.976 0.203 0.084c0.132-0.018 0.586-0.182 0.717-0.258l-0.001-0.903-0.683-0.068c-0.077-0.028-0.030 0.021-0.076-0.057 0.046-0.089-0.040-0.082 0.352-0.051 0.135 0.010 0.269 0.013 0.404 0.013l0.001-0.566 0.143-0.010c0.046 0.529 0.003 1.218 0.005 1.761 0.001 0.305-0.048 0.564 0.315 0.562 0.345-0.002 0.279-0.313 0.279-0.617-0.001-0.588-0.001-1.176-0.001-1.763 0-0.584 0.058-1.236-0.698-1.102-0.198 0.21-0.324 0.535-0.452 0.791-0.153 0.307-0.124 0.405-0.3 0.68-0.078 0.122-0.007 0.129-0.099 0.154-0.23 0.063 0.013-0.21 0.141-0.568 0.060-0.168 0.487-0.93 0.497-1.077-0.317-0.011-1.367-0.040-1.625 0.014l0.564 1.179c0.073 0.159 0.164 0.261 0.217 0.413l-0.119 0.055-0.215-0.408c-0.062-0.178-0.086-0.245-0.18-0.436-0.157-0.32-0.27-0.539-0.448-0.81-0.127-0.014-0.288-0.008-0.404 0.040-0.177 0.074-0.146 0.139-0.253 0.227z"></path>
<path fill="#000" d="M21.777 9.321l0.013 0.019c-0.042 0.535 0.253 0.949 0.809 0.903 0.242-0.020 0.435-0.171 0.533-0.314 0.2-0.291 0.085-0.395 0.117-0.663-0.123-0.005-0.015-0.019-0.141 0.023-0.034 0.011-0.087 0.037-0.119 0.050-0.076 0.029-0.152 0.053-0.253 0.068-0.181 0.038-0.558 0.049-0.699-0.037-0.147-0.042-0.085-0.051-0.195-0.119-0.039 0.067-0.052 0.053-0.066 0.068z"></path>
<path fill="#000" d="M22.094 8.782l-0.077 0.017c-0.157 0.188-0.18 0.048-0.152 0.182l0.064-0.003c0.073-0.015-0.015 0.003 0.061-0.019 0.061-0.018 0.105-0.027 0.164-0.031 0.397-0.027 0.712 0.097 1.053 0.141l-0.037-0.119-0.488-0.179c-0.275-0.018-0.306-0.035-0.587 0.010z"></path>
<path fill="#000" d="M11.103 11.467c0.002 0.494 0.001 0.988 0.001 1.483 0 0.239-0.009 0.493-0.002 0.729 0.009 0.287 0.203 0.287 0.46 0.248l0.077-0.035c0.141-0.332 0.019-1.683 0.055-2.148 0.001-0.008-0.026-0.156 0.102-0.116 0.078 0.025 0.047 0.109 0.045 0.314l-0.001 1.11 1.946-0.006c0-0.239 0-0.476 0-0.712 0-0.12-0.028-0.604 0.025-0.703l0.084-0.002c0.027 0.040 0.014 0.003 0.028 0.066 0.008 0.033 0.008 0.044 0.010 0.078 0.003 0.055-0.002 0.139-0.002 0.198-0.001 0.277-0.027 1.748 0.023 1.845 0.085 0.166 0.416 0.174 0.518 0.048 0.113-0.138 0.070-2.637 0.037-2.984-0.129-0.398-0.263-0.44-0.754-0.438-0.411 0.001-0.821 0-1.231 0-1.129-0.001-1.431-0.199-1.421 1.026z"></path>
<path fill="#000" d="M12.94 17.371h0.849l-0.010-3.958-0.852 0.489z"></path>
<path fill="#000" d="M11.837 17.371h0.848l0.012-3.477-0.856-0.45z"></path>
<path fill="#000" d="M26.014 12.591c-0.132-0.076-0.592-0.577-0.647-0.649 0.060-0.124 0.238-0.26 0.355-0.375 0.152-0.15 0.178-0.267 0.497-0.251-0.109 0.566-0.187 0.088-0.204 1.275zM28.284 11.328c0.302-0.030 0.347 0.109 0.485 0.235 0.085 0.078 0.315 0.277 0.375 0.379-0.046 0.073-0.53 0.61-0.632 0.641-0.012-0.425-0.068-0.924-0.228-1.255zM27.588 11.088c0.002 0.001 0.012 0.001 0.015 0.014l0.095 0.222c-0.001 0.005-0.003 0.015-0.007 0.022-0.238 0.064 0.071-0.054-0.165-0.007-0.037 0.007-0.046 0.015-0.068 0.035-0.056 0.048 0.011-0.014-0.029 0.031l-0.030 0.039c-0.004 0.006-0.010 0.015-0.015 0.022-0.1-0.144 0.062-0.031-0.166-0.168l-0.143 0.131-0.19-0.074c0.073-0.040 0.108 0.010 0.154-0.102l-0.151 0.018c0.019-0.069 0.054-0.207 0.106-0.234 0.163-0.087-0.074 0.090 0.064-0.014 0.007-0.006 0.025-0.068 0.097-0.098 0.052 0.077 0.134 0.038 0.044 0.263 0.008-0.006 0.018-0.026 0.022-0.019l0.062-0.052c0.137-0.102 0.007 0.037 0.184-0.153 0.060 0.052 0.111 0.105 0.185 0.068l-0.064 0.058zM25.858 10.542c-0.054 0.137-1.27 1.173-1.308 1.289-0.108 0.326 0.797 0.862 0.865 1.085 0.192 0.101 0.525 0.747 0.854 0.041l1.977-0.006c0.065 0.188 0.267 0.467 0.509 0.281 0.064-0.049 0.174-0.169 0.227-0.222 0.079-0.077 0.145-0.139 0.229-0.219 0.166-0.162 0.3-0.286 0.456-0.439 0.174-0.17 0.406-0.33 0.239-0.605-0.096-0.028-0.559-0.511-0.672-0.62-0.077-0.074-0.651-0.564-0.668-0.659-0.238-0.097-1.685-0.076-2.134-0.075-0.602 0.001-0.334 0.060-0.573 0.149z"></path>
<path fill="#000" d="M27.383 17.371h0.881l-0.023-3.717c-0.089 0.005-0.289 0.117-0.392 0.149-0.155 0.048-0.303 0.076-0.478 0.088l0.013 3.48z"></path>
<path fill="#000" d="M26.233 17.371h0.893l-0.017-3.481c-0.138-0.049-0.316-0.049-0.466-0.093-0.223-0.066-0.23-0.14-0.38-0.158l-0.031 3.732z"></path>
<path fill="#000" d="M27.271 9.755c-0.151 0.062-0.267 0.171-0.389-0.023l0.172-0.107c0.149-0.073 0.11 0.010 0.214 0.006 0.229-0.009 0.006-0.078 0.302 0.050 0.093 0.041 0.020-0.015 0.088 0.022-0.056 0.212-0.274 0.12-0.387 0.052zM26.752 8.893c-0.022 0.066-0.026 0.048-0.084 0.124-0.206 0.27-0.186 0.671 0.046 0.936 0.108 0.124 0.188 0.124 0.277 0.201 0.338 0.071 0.525 0.058 0.762-0.135 0.399-0.323 0.345-1.039-0.214-1.256-0.392-0.153-0.546 0.039-0.788 0.131z"></path>
<path fill="#000" d="M7.292 17.371h0.85l0.018-3.523 0.223 0.002 0.012 3.521h0.849l-0.013-2.539c-0.158 0.013-0.384-0.136-0.484-0.232-0.309-0.298-0.344-0.666-0.179-1.071 0.098-0.242 0.244-0.325 0.274-0.413-0.013-0.123-0.045-0.056 0.103-0.135-0.080-0.012-0.108-0.045-0.060-0.116l0.026 0.041c0.071 0.086 0.049 0.045 0.074 0.048 0.108 0.012-0.046-0.065 0.096-0.005l-0.1-0.096c-0.011-0.006-0.247-0.020-0.040-0.212 0.038 0.036 0.031-0.028 0.044 0.161 0.007-0.003 0.015-0.011 0.019-0.014l0.036-0.024c0.109-0.060 0.12 0.047 0.128-0.119l-0.031-1.18c-0.026-0.038 0.033-0.014-0.095-0.049l-0.038 0.021c0.017 0.121 0.045 0.11 0.064 0.183-0.068-0.013-0.044-0.040-0.155-0.109-0.178 0.054-0.060 0.080-0.185 0.112 0.025-0.102-0.007 0.019 0.039-0.080 0.026-0.057 0.021-0.044 0.036-0.113l-0.046-0.014-0.28 0.020c0.046-0.354 0.119-0.223 0.325-0.223 0.053-0.188 0.041-0.148 0.109-0.162 0.21-0.043 0.032-0.021 0.148 0.064l0.051 0.042c0.054-0.098 0.025-0.127 0.156-0.084 0.002 0.034-0.006 0.079-0.045 0.095-0.067 0.026-0.025 0.013-0.111-0.011 0.056 0.068-0.055 0.040 0.088 0.076 0.066 0.017 0.073-0.096 0.276-0.019-0.042 0.112-0.007 0.042-0.056 0.095-0.006 0.006-0.022 0.014-0.026 0.009s-0.020 0.001-0.030 0.001c0.297 0.017 0.173 0.079 0.344 0.156l0.105-0.047c0.063-0.097 0.090-0.010 0.092-0.009 0.164 0.127-0.133-0.021 0.062 0.049l0.153 0.015c-0.007 0.116 0.019 0.107 0.108 0.15-0.007-0.279 0.004-0.065-0.126-0.195 0.107-0.060 0.077-0.069 0.090-0.127 0.001-0.004 0.002-0.013 0.003-0.016l0.011-0.027c0.001-0.003 0.007-0.010 0.008-0.013 0.042-0.083 0.014 0.125 0.033-0.073-0.027-0.069-0.103-0.121-0.169-0.18-0.068-0.061-0.096-0.093-0.167-0.168-0.478-0.501-0.501-0.432-0.939-0.432-2.132 0.003-2.412-0.301-2.411 0.979l-0.001 2.071c-0.002 0.245-0.018 0.42 0.231 0.447 0.266 0.029 0.365-0.095 0.365-0.334-0.001-0.345-0.044-1.877 0.025-1.985l0.084 0.002c0.072 0.1 0.029 5.227 0.029 5.788z"></path>
<path fill="#000" d="M8.786 9.976c0.165-0.048 0.285-0.464 0.226-0.653l-0.155-0.013c-0.053-0.001-0.088 0.004-0.139 0.007-0.196 0.011-0.698 0.027-0.84-0.018-0.006 0.007-0.010 0.019-0.014 0.025l-0.133 0.12c-0.064 0.082-0.013 0.109 0.097 0.176l-0.053 0.138c0.005 0.006 0.014 0.013 0.018 0.017 0.004 0.003 0.012 0.011 0.017 0.017l0.046 0.047c0.001 0.001 0.049 0.054 0.052 0.057 0.012 0.013 0.017 0.021 0.039 0.042 0.169 0.159 0.307-0.027 0.435-0.040 0.014 0.249 0.013 0.003 0.112 0.168 0.231-0.039 0.131-0.129 0.292-0.091z"></path>
<path fill="#000" d="M3.697 12.039c-0.086-0.048-0.137-0.151-0.152-0.241l0.065-0.986c0.148 0.009 0.099-0.040 0.132 0.092l0.037 0.509c0.034 0.415 0.037 0.291-0.082 0.625zM2.407 15.971l-0.006-1.916-0.375 0.005 0.014 1.896 0.367 0.015zM3.468 8.784c-0.171 0.102-0.378 0.137-0.494 0.49-0.045 0.137-0.054 0.287-0.015 0.423 0.048 0.16 0.141 0.24 0.174 0.346 0.125 0.052 0.174 0.133 0.338 0.179 0.744 0.205 1.279-0.704 0.724-1.255-0.191-0.19-0.397-0.217-0.727-0.182zM3.625 10.73c-0.109-0.095-0.080-0.117-0.040-0.231l0.184 0.013c0.049 0.145 0.031 0.228-0.144 0.218zM2.694 17.371h0.845l0.011-3.512 0.228-0.007 0.017 3.519h0.848c0.003-1.85 0.022-3.722-0.005-5.57-0.001-0.088-0.026-0.266 0.092-0.232 0.086 0.025 0.060 0.163 0.058 0.261l-0.001 1.4c0 0.199-0.052 0.517 0.097 0.614 0.174 0.114 0.427 0.066 0.48-0.101 0.031-0.097 0.014-1.866 0.014-2.053 0-0.423 0.077-0.959-0.203-1.188-0.232-0.19-0.936-0.102-1.299-0.104-1.586-0.011-1.913-0.205-1.914 0.872v2.099c-0.001 0.239-0.045 0.475 0.184 0.526 0.233 0.052 0.405-0.072 0.409-0.273 0.007-0.379-0.054-1.919 0.034-2.044l0.084 0.006c0.076 0.135 0.021 5.163 0.021 5.787z"></path>
<path fill="#000" d="M18.759 12.878l-0.003-1.559c0.373-0.006 0.346 0.072 0.537 0.262 0.077 0.077 0.36 0.32 0.385 0.389-0.090 0.119-0.864 0.877-0.919 0.908zM18.232 11.872l0.022-0.125c0.060 0.016 0.055 0.015 0.145 0.027 0.026-0.069 0.023-0.054 0.028-0.152 0.050 0.020 0.049 0.052 0.164-0.014l0.032-0.026c0.050 0.19-0.005 0.023-0.157 0.136l0.074 0.105c0.040 0.081 0.021 0.365 0.018 0.371-0.006 0.006-0.017 0.005-0.019 0.015s-0.014 0.011-0.018 0.015c-0.129 0.155 0.008-0.065-0.034 0.047-0.026 0.069 0.035 0.241-0.038 0.44l0.050 0.048c-0.010-0.001-0.017-0.001-0.028-0.001-0.026-0.001-0.11-0.002-0.155-0.005l0.045 0.118c0.002 0.008 0.006 0.014 0.009 0.022 0.003 0.009 0.008 0.090 0.002 0.112h-1.148l0.084-0.112-0.084-0.14c-0.113-0.024-0.114-0.061-0.168 0.028-0.038-0.012-0.133-0.106-0.168-0.14v-1.287c0.164 0.061-0.034-0.061 0.029 0.036 0.003 0.004 0.011 0.017 0.014 0.022 0.044 0.089-0.013 0.115 0.044 0.212 0.029 0.049-0.003 0.019 0.064 0.062 0.006 0.004 0.013 0.007 0.020 0.011s0.014 0.006 0.022 0.009c0.188 0.081 0.203-0.015 0.51 0.068l0.166 0.024c0.246 0.054-0.215 0.074 0.476 0.074zM19.623 10.893c-0.25-0.045-0.2-0.058-0.34-0.199-0.068-0.069-0.156-0.155-0.254-0.222-0.184-0.125-1.547-0.074-1.861-0.078-0.472-0.007-0.432-0.011-0.727 0.222-0.162-0.054-0.175-0.194-0.475-0.162-0.334 0.036-0.214 0.195-0.435 0.162-0.028-1.136 0.209-1.511-0.502-1.406-0.125 0.112-0.128 0.080-0.125 0.353 0.005 0.322-0.017 1.325 0.027 1.51 0.064 0.269 0.342 0.194 0.838 0.188 0.325-0.003 0.72-0.026 1.038-0.001l0.006 1.794c0.12 0.029 0.798 0.020 0.971 0.022 0.248 0.003 0.849 0.045 1.015-0.030 0.038 0.121 0.204 0.308 0.395 0.225l0.99-0.944c0.44-0.413 0.322-0.476 0.027-0.742-0.27-0.244-0.097-0.106-0.238-0.404-0.064-0.135-0.192-0.257-0.35-0.288z"></path>
<path fill="#000" d="M21.535 17.371h0.845c0-0.361 0.058-3.392-0.022-3.592-0.077-0.192-0.155-0.187-0.362-0.255-0.154-0.050-0.321-0.14-0.471-0.148l0.011 3.996z"></path>
<path fill="#000" d="M22.638 17.371h0.846l-0.003-3.978c-0.034-0.002-0.691 0.194-0.751 0.25-0.033 0.031-0.041 0.056-0.062 0.105-0.088 0.202-0.037 0.909-0.035 1.189 0.004 0.811 0.006 1.623 0.006 2.434z"></path>
<path fill="#000" d="M8.517 8.085c0.115 0.077 0.187 0.070 0.149 0.167-0.039 0.045-0.148 0.013-0.198-0.006-0.070-0.027-0.1-0.052-0.167-0.090l0.004-0.236c0.074 0.046 0.126 0.107 0.212 0.165zM7.815 8.253c-0.033-0.1 0.064-0.104 0.17-0.179 0.089-0.064 0.109-0.112 0.2-0.16l-0.010 0.241c-0.197 0.14-0.287 0.137-0.36 0.098zM7.547 9.312c-0.060 1.030 1.043 1.018 1.239 0.664-0.161-0.038-0.061 0.052-0.292 0.091-0.099-0.165-0.098 0.081-0.112-0.168-0.128 0.013-0.266 0.199-0.435 0.040-0.022-0.021-0.027-0.029-0.039-0.042-0.002-0.002-0.050-0.056-0.052-0.057l-0.046-0.047c-0.005-0.005-0.013-0.013-0.017-0.017-0.004-0.005-0.013-0.011-0.018-0.017l0.053-0.138c-0.11-0.067-0.161-0.094-0.097-0.176l0.133-0.12c0.004-0.006 0.007-0.018 0.014-0.025 0.141 0.045 0.644 0.029 0.84 0.018 0.051-0.003 0.086-0.007 0.139-0.007l0.155 0.013c-0.018-0.139-0.008-0.055 0.014-0.088 0.175-0.001 0.632-0.014 0.755-0.078 0.123-0.185-0.029-0.342-0.129-0.453-0.297-0.266-0.496-0.023-0.741 0.034-0.020-0.104-0.053-0.217-0.081-0.322-0.072-0.278-0.095-0.234-0.334-0.477-0.19-0.194-0.179-0.341-0.464-0.041-0.34 0.357-0.222-0.086-0.423 0.613-0.009 0.029-0.016 0.058-0.027 0.084l-0.028 0.054c-0.002 0.003-0.007 0.011-0.011 0.017-0.553-0.176-0.943 0.080-0.782 0.507 0.149 0.045 0.619 0.063 0.808 0.062l-0.022 0.077z"></path>
<path fill="#000" d="M21.55 13.249c0.149 0.038 0.282 0.106 0.431 0.153 0.279 0.089 0.204 0.056 0.459 0.003-0.021-0.206 0.029-0.866-0.030-0.95-0.117-0.010-0.026 0.034-0.114-0.047-0.025-0.024-0.024-0.006-0.033-0.075l-0.716-0.027c-0.025 0.214-0.019 0.785 0.004 0.943z"></path>
<path fill="#000" d="M23.17 8.951l0.037 0.119c-0.34-0.045-0.656-0.168-1.053-0.141-0.058 0.004-0.103 0.014-0.164 0.031-0.076 0.022 0.013 0.003-0.061 0.019l-0.064 0.003c-0.027-0.134-0.005 0.006 0.152-0.182l-0.194 0.037c0.008-0.259 0.283-0.375 0.498-0.403 0.049 0.146 0.101 0.119 0.078 0.263l-0.214 0.025c-0.119 0.051-0.049 0.023-0.092 0.061 0.281-0.045 0.312-0.028 0.587-0.010-0.066-0.048-0.134-0.072-0.235-0.076-0.016-0.145-0.069-0.129-0.070-0.281 0.272 0.047 0.61 0.161 0.807 0.369 0.137 0.144 0.011 0.156-0.014 0.167zM21.809 9.091l-0.032 0.23c0.014-0.015 0.027-0.001 0.066-0.068 0.11 0.068 0.048 0.076 0.195 0.119-0.004-0.007-0.009-0.027-0.010-0.022l-0.044-0.084c-0.081-0.123-0.054 0.015-0.057-0.115 0.151-0.063 0.443-0.090 0.616-0.076 0.124 0.010 0.174 0.034 0.282 0.056 0.061 0.012 0.085 0.010 0.14 0.034 0.031 0.013 0.035 0.018 0.053 0.030 0.007 0.005 0.027 0.022 0.033 0.026l0.034 0.029c-0.293 0.056-0.45 0.113-0.791 0.096 0.059 0.012 0.147 0.012 0.219 0.012 0.24 0 0.183-0.001 0.223 0.049 0.101-0.015 0.177-0.039 0.253-0.068 0.032-0.013 0.085-0.038 0.119-0.050 0.125-0.043 0.018-0.029 0.141-0.023l0.030-0.429c-0.231-0.226-0.766-0.575-1.194-0.365l-0.156 0.087c-0.065 0.052-0.005 0.005-0.042 0.040-0.259 0.246 0.033 0.305-0.078 0.493z"></path>
<path fill="#000" d="M22.038 9.371c0.141 0.085 0.518 0.075 0.699 0.037-0.041-0.050 0.017-0.049-0.223-0.049-0.072 0-0.16 0-0.219-0.012 0.341 0.017 0.498-0.040 0.791-0.096l-0.034-0.029c-0.006-0.005-0.026-0.021-0.033-0.026-0.018-0.012-0.022-0.017-0.053-0.030-0.054-0.024-0.079-0.022-0.14-0.034-0.109-0.022-0.158-0.046-0.282-0.056-0.173-0.014-0.466 0.013-0.616 0.076 0.003 0.131-0.024-0.007 0.057 0.115l0.044 0.084c0.002-0.005 0.006 0.015 0.010 0.022z"></path>
<path fill="#000" d="M27.652 11.030c-0.074 0.038-0.125-0.015-0.185-0.068-0.176 0.19-0.047 0.050-0.184 0.153l-0.062 0.052c-0.004-0.006-0.014 0.013-0.022 0.019 0.090-0.226 0.008-0.186-0.044-0.263-0.072 0.031-0.090 0.093-0.097 0.098-0.137 0.104 0.099-0.073-0.064 0.014-0.052 0.027-0.087 0.165-0.106 0.234l0.151-0.018c-0.046 0.112-0.081 0.062-0.154 0.102l0.19 0.074 0.143-0.131c0.227 0.136 0.065 0.023 0.166 0.168 0.005-0.007 0.011-0.016 0.015-0.022l0.030-0.039c0.040-0.045-0.027 0.017 0.029-0.031 0.022-0.019 0.032-0.027 0.068-0.035 0.236-0.047-0.073 0.071 0.165 0.007 0.004-0.006 0.006-0.017 0.007-0.022l-0.095-0.222c-0.003-0.014-0.013-0.014-0.015-0.014l0.064-0.058z"></path>
<path fill="#000" d="M22.018 8.799l0.077-0.017c0.044-0.038-0.026-0.010 0.092-0.061l0.214-0.025c0.022-0.144-0.030-0.117-0.078-0.263-0.215 0.027-0.49 0.144-0.498 0.403l0.194-0.037z"></path>
<path fill="#000" d="M8.818 14.274c-0.027-0.285-0.094-0.372 0.011-0.683 0.057-0.168 0.209-0.401 0.296-0.495-0.179 0.117-0.313 0.208-0.388 0.486-0.097 0.36-0.031 0.43 0.080 0.692z"></path>
<path fill="#000" d="M9.221 14.716l0.028-0.058c-0.048-0.020-0.109-0.034-0.163-0.063-0.017-0.009-0.052-0.033-0.068-0.045l-0.060-0.064c-0.102-0.041-0.122-0.068-0.178-0.145-0.038-0.053-0.095-0.143-0.11-0.207 0.011 0.162 0.192 0.432 0.316 0.506 0.084 0.050 0.136 0.053 0.235 0.076z"></path>
<path fill="#000" d="M12.584 8.8c-0.172 0.102-0.378 0.137-0.494 0.491-0.045 0.136-0.054 0.287-0.015 0.422 0.048 0.16 0.141 0.24 0.174 0.346 0.125 0.052 0.174 0.133 0.338 0.179 0.745 0.205 1.279-0.704 0.724-1.255-0.191-0.191-0.397-0.217-0.727-0.183z"></path>
</svg>
