<!-- Generated by IcoMoon.io -->
<svg version="1.1" xmlns="http://www.w3.org/2000/svg" width="32" height="32" viewBox="0 0 32 32">
<title>logo-the-pride-underwear</title>
<path fill="#070707" d="M10.298 19.221c0.163 0.032 0.464-0.138 0.248-0.505-0.145 0.058-0.202 0.065-0.279 0.224-0.192 0.399 0.007 0.245 0.031 0.281z"></path>
<path fill="#070707" d="M10.956 18.399c0.005 0 0.043 0.181 0.262-0.195 0.124-0.212 0.077-0.171-0.085-0.306-0.097 0.066-0.196 0.136-0.251 0.235-0.143 0.258-0.084 0.147 0.073 0.266z"></path>
<path fill="#070707" d="M19.436 16.387c0.144 0.21 0.123 0.297 0.371 0.382 0.054-0.078 0.313-0.128-0.233-0.558-0.179 0.234-0.065-0.085-0.139 0.176z"></path>
<path fill="#0d0d0e" d="M12.349 16.831c0.048-0.174-0.019-0.018 0.065-0.188l0.182-0.235c-0.114-0.153-0.070-0.096-0.209-0.226-0.113 0.169-0.209 0.261-0.275 0.524l0.237 0.124z"></path>
<path fill="#0d0d0e" d="M20.486 17.595l-0.038 0.045c0.043-0.084 0.068-0.168 0.118-0.263l-0.328-0.301-0.166 0.135 0.135 0.287c0.135 0.077 0.184 0.063 0.279 0.096z"></path>
<path fill="#0b0c0c" d="M11.742 17.59l0.214-0.3c-0.058-0.171-0.031-0.137-0.156-0.241-0.382 0.287-0.301 0.313-0.325 0.48l0.267 0.061z"></path>
<path fill="#0b0c0c" d="M20.733 17.915c-0.010 0.298 0.123 0.281 0.249 0.54l0.21-0.085c-0.026-0.257-0.073-0.239-0.242-0.471l-0.217 0.016z"></path>
<path fill="#0b0c0c" d="M21.569 19.179c0.635 0.401 0.078-0.36-0.031-0.476-0.193 0.107-0.104 0.075-0.167 0.172l0.198 0.304z"></path>
<path fill="#025798" d="M15.817 16.665l0.013 10.824c-0.664-0.019-1.271-0.049-1.899-0.222-0.193-2.058-0.775-3.757-1.864-5.396-0.071-0.107-0.133-0.19-0.204-0.301l-0.184-0.38c-0.314-0.204-0.287-0.267-0.506-0.521-0.498-0.577-1.039-0.986-1.487-1.46 0.262-0.577 1.937-2.46 2.299-3.064l3.834 0.11-0.002 0.409zM7.636 18.487l0.138 0.035c0.258 0.098 0.464 0.229 0.683 0.36 0.296 0.178 0.35 0.211 0.51 0.443 1.483 0.43 4.504 5.027 4.4 7.292l-4.071-4.149c-0.621-0.699-1.142-1.212-1.751-2.047-0.745-0.904-1.415-1.842-2.067-2.859 0.454 0.095 1.847 0.548 2.158 0.925zM5.068 15.231c0.744 0.027 2.201 0.392 3.103 0.517 1.083 0.151 2.138 0.237 3.249 0.341-0.13 0.267-1.867 2.55-2.122 2.779-0.534-0.184-1.831-1.403-4.311-1.897l0.081-1.74zM5.427 18.933c0.322 0.569 0.81 1.026 1.119 1.613l3.501 3.927c0.582 0.668 3.157 3.342 3.859 3.484 1.491 0.302 3.104 0.211 4.576-0.044-0.016-0.062-0.078-0.691-0.45-0.647-0.425 0.217-1.203 0.203-1.75 0.224l-0.001-11.204 2.792-0.102 0.911-0.059c0.255 0.216 0.35 0.336 0.515 0.662l0.231-0.197c0.242-0.217 0.017 0.052 0.1-0.1-0.123-0.331-0.151-0.155-0.128-0.415l1.954-0.193 3.036-0.474c0.298-0.287 0.040-0.411 0.646-0.44 0.385-0.018 0.526 0.119 0.995 0.149 0.012-0.277 0.109-0.624 0.081-1.085-0.245-0.105-0.058-0.044-0.353-0.033 0.006 0.31 0.062 0.396-0.074 0.601-0.521 0.428-4.196 0.795-5.214 0.912-4.839 0.555-10.796 0.34-15.645-0.558-0.769-0.142-1.048-0.084-1.039-0.498l0.036-0.416-0.061-0.376-0.277-0.001c-0.005-0.019-0.008-0.057-0.009-0.047l0.015-0.371c0.029-0.308 0.030-0.476 0.057-0.716l0.421 0.030c-0.167-0.243-0.248-0.027 0.004-0.395-1.206-0.238-0.643 1.572-0.865 3.433-0.070 0.584-0.163 1.542 0.137 2.014 0.297 0.468 0.558 0.937 0.88 1.321z"></path>
<path fill="#025798" d="M24.122 20.804c-0.146 0.589-5.216 5.688-5.544 5.85 0.063-1.926 1.515-4.59 2.823-5.944 0.299-0.309 1.131-1.214 1.51-1.287 0.18-0.288 0.446-0.41 0.814-0.646 0.829-0.531 1.901-0.975 2.861-1.248-0.17 0.393-1.782 2.662-2.255 3.106l-0.209 0.169zM5.276 12.164c-0.252 0.368-0.171 0.152-0.004 0.395l-0.421-0.030c-0.026 0.239-0.027 0.408-0.057 0.716l-0.015 0.371c0.001-0.010 0.004 0.027 0.009 0.047l0.277 0.001-0.015-0.286 0.022-0.651c0.349-0.019 1.999 0.376 2.564 0.457 3.522 0.505 4.603 0.644 8.426 0.656 3.299 0.011 5.411-0.21 8.495-0.695 0.58-0.092 1.984-0.496 2.509-0.421l-0.010 0.865-0.055 0.442 0.061-0.031c0.295-0.011 0.108-0.072 0.353 0.033 0.027 0.461-0.069 0.807-0.081 1.085-0.469-0.030-0.609-0.167-0.995-0.149-0.606 0.029-0.348 0.152-0.646 0.44l1.398-0.277 0.019 1.74-1.221 0.384c-1.61 0.531-1.961 0.944-3.162 1.613l-1.163-1.534c-0.156-0.189-0.25-0.305-0.387-0.487-0.054-0.073-0.093-0.133-0.185-0.226l-0.162-0.131c-0.082 0.152 0.142-0.117-0.1 0.1l-0.231 0.197c0.145 0.038 0.153 0.121 0.278 0.283 0.178 0.231 0.169 0.212 0.294 0.469 0.131 0.037 0.094 0.013 0.224 0.191 0.040 0.054 0.062 0.095 0.090 0.152 0.091 0.183 0.011-0.046 0.061 0.16 0.278 0.192 0.723 0.796 0.895 1.084-0.179 0.292-0.27 0.227-0.568 0.538-0.245 0.255-0.261 0.317-0.539 0.48-0.116 0.224-0.377 0.453-0.554 0.681-0.211 0.271-0.373 0.454-0.582 0.754-1.238 1.772-1.795 3.368-2.066 5.688 0.372-0.045 0.434 0.584 0.45 0.647 0.141-0.214 0.697-0.678 0.907-0.87 0.272-0.249 2.554-2.644 2.761-2.656l0.75-0.84c0.185-0.306 0.259-0.308 0.511-0.578 0.821-0.88 2.655-3.181 3.197-3.985 1.815-2.695 1.017-1.774 1.026-4.951 0.002-0.617 0.070-1.38-0.107-1.854-0.692-0.245-1.697 0.152-2.502 0.301-0.865 0.16-1.76 0.296-2.674 0.417-1.844 0.243-3.883 0.376-5.79 0.384-5.247 0.022-6.436-0.301-11.286-1.117z"></path>
<path fill="#f6cf19" d="M5.141 13.368l-0.092 0.010 0.015 0.286c2.021 0.894 8.596 1.208 10.997 1.208 1.996 0 3.901-0.070 5.826-0.297 0.955-0.112 4.515-0.6 5.108-0.987l-0.002-0.304c-0.686 0.075-1.723 0.376-2.546 0.529-4.305 0.795-9.825 0.834-14.149 0.395-0.901-0.092-1.795-0.226-2.663-0.361-0.641-0.1-1.966-0.468-2.493-0.479z"></path>
<path fill="#137a30" d="M5.064 13.664l0.061 0.376c0.644 0.32 4.093 0.832 5.092 0.911 1.982 0.156 3.753 0.261 5.843 0.292 1.932 0.029 3.936-0.095 5.757-0.29 0.87-0.093 1.721-0.238 2.623-0.391 0.478-0.081 0.869-0.151 1.253-0.234 0.423-0.090 0.953-0.267 1.307-0.297l0.055-0.442h-0.061c-0.593 0.387-4.152 0.874-5.108 0.987-1.926 0.226-3.83 0.297-5.826 0.297-2.4 0-8.976-0.314-10.997-1.208z"></path>
<path fill="#e95604" d="M5.141 13.368c0.527 0.011 1.852 0.38 2.493 0.479 0.868 0.135 1.762 0.269 2.663 0.361 4.324 0.439 9.844 0.4 14.149-0.395 0.823-0.152 1.861-0.454 2.546-0.529l-0.027-0.293c-0.559-0.031-7.004 1.851-16.659 0.858l-5.155-0.773-0.010 0.291z"></path>
<path fill="#032565" d="M5.089 14.457c0.702-0.010 1.754 0.349 2.563 0.463 3.246 0.458 4.923 0.673 8.408 0.642 2.829-0.025 5.629-0.186 8.377-0.667 0.759-0.133 1.704-0.427 2.479-0.52l0.071 0.226c0.137-0.206 0.081-0.291 0.074-0.601l-0.061 0.031c-0.354 0.030-0.884 0.207-1.307 0.297-0.384 0.082-0.775 0.152-1.253 0.234-0.902 0.152-1.754 0.297-2.623 0.391-1.821 0.196-3.824 0.319-5.757 0.29-2.090-0.031-3.861-0.136-5.843-0.292-0.999-0.079-4.448-0.59-5.092-0.911l-0.036 0.416z"></path>
<path fill="#b91509" d="M5.049 13.378l0.092-0.010 0.010-0.291 5.155 0.773c9.655 0.994 16.1-0.889 16.659-0.858l0.027 0.293 0.002 0.304h0.061l0.010-0.865c-0.526-0.076-1.929 0.329-2.509 0.421-3.084 0.485-5.196 0.706-8.495 0.695-3.823-0.013-4.904-0.151-8.426-0.656-0.565-0.081-2.215-0.476-2.564-0.457l-0.022 0.651z"></path>
<path fill="#493578" d="M5.089 14.457c-0.009 0.414 0.27 0.356 1.039 0.498 4.849 0.898 10.806 1.114 15.645 0.558 1.018-0.117 4.694-0.484 5.214-0.912l-0.071-0.226c-0.775 0.093-1.72 0.387-2.479 0.52-2.748 0.48-5.548 0.641-8.377 0.667-3.485 0.031-5.162-0.184-8.408-0.642-0.809-0.114-1.862-0.473-2.563-0.463z"></path>
<path fill="#060609" d="M24.508 9.454c-0.362-1.382 1.102-2.832 1.657-2.34 0.614 0.545-0.455 2.676-1.657 2.34zM28.299 8.35c0.216-0.602 0.728-1.491 1.625-1.23-0.153 0.658-0.786 1.139-1.625 1.23zM20.081 6.939c0.083 0.212 0.219-0.338 0.033 0.306-0.054 0.186-0.099 0.137-0.182 0.218l0.149-0.524zM16.416 7.136c0.593-0.282 0.162-0.98 1.025-1.455 0.611-0.335 1.298-0.13 1.669 0.273 0.957 1.039-0.018 2.664-1.514 2.196l-0.035-0.352c0.001-0.002 0.097-0.314 0.105-0.334 0.463-1.244 0.338-0.763 0.68-1.121 0.446-0.466 0.102-0.518 0.102-0.518-1.29-0.313-1.443 2.999-2.211 3.539-1.377 0.969-2.109-1.617-0.6-1.648 0.759-0.015 0.574 0.522 1.129 0.156-0.045-0.464-0.086-0.365-0.462-0.541-0.143-0.255-0.77-0.204-1.076-0.109-0.406 0.126-0.606 0.46-0.801 0.539-0.428 1.302-0.153 2.026 1.1 2.326 1.541-0.055 1.188-0.65 1.777-1.425 1.604 0.333 1.809-0.064 2.552-0.893-0.176 0.893-0.226 0.59 0.003 0.896 0.637-0.093 0.502-0.879 0.864-1.415 0.261 0.089 0.216 0.065 0.451 0.195-0.071 0.803-1.099 2.045-0.141 2.589 0.574 0.159 0.727 0.001 1.159-0.301 0.024 0.017 0.057 0.017 0.069 0.054l0.353 0.232c0.542 0.211 0.959-0.142 1.292-0.546 0.552 0.844 1.153 0.766 1.952 0.184 0.57 0.525 0.782 0.717 1.778-0.133 0.019 0.019 0.045 0.026 0.054 0.063 0.139 0.617 2.145 0.819 3.108-0.439 0.481-0.628 0.434-0.79 0.133-0.999-0.474 0.164-0.558 1.169-1.881 1.368-0.58 0.087-0.718 0.061-0.852-0.319l-0.12-0.296 0.355-0.029c0.892-0.074 2.593-1.189 1.865-2.087-0.324-0.433-0.928-0.344-1.392-0.085-0.48 0.267-0.603 0.487-0.869 0.906-0.173 0.272-0.266 0.321-0.391 0.499-0.3 0.43-0.393 1.599-1.167 1.348-0.162-0.775 2.369-5.593 0.843-4.308l-0.622 1.695c-0.481-0.507-0.781-0.397-1.51-0.206-0.113 0.184-0.19 0.199-0.338 0.337-0.196 0.183-0.257 0.308-0.433 0.345-0.258 0.627-0.443 0.659-0.706 1.298-0.225 0.547-0.353 0.872-0.966 0.911-0.007-0.99 0.947-2.274 0.781-2.988-0.82 0.003-0.383 0.591-1.096 1.579-0.437 0.606-0.355 1.378-1.215 1.405-0.066-0.593 0.286-1.096 0.446-1.632 0.265-0.886-0.294-0.876-0.819-1.24l-0.085-0.666c-0.479-0.36-0.572-0.219-1.057-0.040-0.54-1.483-3.522-1.348-3.504 1.039l0.216 0.152z"></path>
<path fill="#060609" d="M9.536 8.368c0.211-0.706 0.734-1.393 1.642-1.285-0.123 0.739-0.757 1.132-1.642 1.285zM2.404 5.54c0.013 0.538 0.137 0.874 0.609 0.974 0.545 0.115 0.79-0.112 0.833-0.545-0.678-0.36-0.292 0.219-0.882-0.097l0.009-0.38 1.46-0.052c-0.077 0.555-0.518 1.557-0.736 2.154-0.255 0.696-0.434 1.634-1.031 1.869-0.802 0.317-1.572-0.473-1.262-1.267 0.451-1.153 1.565-0.184 1.89-0.32 0.597-0.494-0.907-1.088-1.793-0.588l-0.578 0.462c-0.060 0.868-0.281 1.409 0.414 1.981 0.627 0.516 1.576 0.369 2.053-0.11 0.409-0.411 1.342-3.279 1.697-4.081l1.143-0.068c-0.202 1.11-1.222 3.19-1.434 4.020-0.098 0.387-0.199 0.529 0.167 0.561 0.31 0.027 0.3-0.278 0.447-0.442 0.125-0.72 0.744-2.853 1.865-2.579 1.155 0.282-0.511 1.417 0.12 3.004 0.781 0.033 1.057 0.033 1.467-0.496l0.354 0.313c0.505 0.366 1.141 0.255 1.684 0.060 0.963-0.346 1.1-0.757 1.482-1.325l-0.047-0.459c-0.939 0.125-0.151 0.522-1.298 1.136-0.271 0.145-0.6 0.267-0.962 0.274-0.526 0.010-0.648-0.082-0.653-0.556 0.936-0.384 1.362-0.277 1.926-0.96 0.557-0.675 0.552-1.684-0.699-1.502-1.678 0.244-1.701 2.846-2.895 3.019-0.074-0.853 1.72-3.587-1.303-2.928 0.070-0.177 0.311-0.88 0.387-0.986 0.295-0.408 0.627-0.187 0.737-0.809 0.176-0.995-1.367-1.373-1.394-0.389 0.646 0.335 0.293-0.293 0.861 0.136-0.058 0.601-1.010 0.381-2.402 0.364-0.977-0.012-1.914-0.219-2.236 0.612z"></path>
</svg>
