<?xml version="1.0" encoding="UTF-8"?>
<!DOCTYPE svg PUBLIC "-//W3C//DTD SVG 1.1//EN" "http://www.w3.org/Graphics/SVG/1.1/DTD/svg11.dtd">
<!-- Creator: CorelDRAW 2017 -->
<svg xmlns="http://www.w3.org/2000/svg" xml:space="preserve" width="8.4666mm" height="8.4666mm" version="1.1" style="shape-rendering:geometricPrecision; text-rendering:geometricPrecision; image-rendering:optimizeQuality; fill-rule:evenodd; clip-rule:evenodd"
viewBox="0 0 846.66 846.66"
 xmlns:xlink="http://www.w3.org/1999/xlink">
 <defs>
  <style type="text/css">
   <![CDATA[
    .fil0 {fill:none}
    .fil3 {fill:#313673}
    .fil1 {fill:#F2CE00}
    .fil2 {fill:#FEFEFE}
   ]]>
  </style>
 </defs>
 <g id="Capa_x0020_1">
  <metadata id="CorelCorpID_0Corel-Layer"/>
  <rect class="fil0" width="846.66" height="846.66"/>
  <g id="_2915790360736">
   <g>
    <path class="fil1" d="M96.99 542.92c2.21,5.83 -3.7,1.59 4.88,10.33 9.76,9.94 42.49,33.43 54.37,40.9 22.28,14 47.32,25.58 74.91,35.87 113.44,42.31 265.73,44.13 379.47,1.54 27.63,-10.34 51.85,-21.65 75.2,-35.51 15.33,-9.1 54.19,-35.05 59.1,-48.4 -9.79,-13.83 -17.04,-8.49 -34.87,-4.68 -72.78,15.52 -148.36,13.87 -222.33,7.78 -31.97,-2.63 -55.8,-4.84 -67.32,-28.13 -21.49,19.51 -10.29,23.16 -68.66,28.09 -67.27,5.68 -110.21,7.66 -177.64,-0.69 -17.57,-2.17 -65.35,-15.96 -77.11,-7.1z"/>
    <path class="fil1" d="M278.88 192.87c13.02,18.53 25.28,24.71 44.14,59.52 17.11,31.59 65.67,142.75 81.61,181.96 4.68,11.53 8.87,28.86 15.59,38.36 5.34,-20.78 50.36,-123.08 61.81,-149.14 54.44,-123.84 61.47,-102.24 79.75,-132.51 -49.29,-9.95 -88.36,-16.74 -141.69,-16.52 -34.98,0.15 -112.66,6.2 -141.21,18.33z"/>
    <path class="fil1" d="M583.33 262.64c-6.54,28.62 -20.01,45.86 -20.13,83.16 -0.11,37.95 -0.28,62.23 -3.53,99.66 16.98,-4.97 34.69,-12.56 52.56,-18.24 68.31,-21.73 119.86,-28.11 192.53,-23.51 -8,-64.17 -40.29,-98.47 -73.4,-129.94 -6.3,-5.99 -18.87,-15.03 -27.54,-21.2 -13.49,-9.58 -16.99,-13.54 -37.98,-8.88 -37.4,8.3 -37.53,19.62 -82.51,18.95z"/>
    <path class="fil1" d="M40.54 405.47c48.9,-4.21 82.34,-3.33 129.86,6.37 55.91,11.41 74.45,24.23 108.25,33.04 -0.53,-15.13 -3.27,-29.98 -3.75,-45.81 -1.6,-52.72 8.23,-78.32 -21.29,-136.8 -30.79,3.28 -50.89,-10.93 -77.72,-17.76 -19.7,-5.01 -21.74,-0.05 -34.57,8.53 -9.4,6.28 -21.12,14.93 -29.13,21.9 -36.91,32.1 -68.06,78.38 -71.65,130.53z"/>
   </g>
   <g>
    <path class="fil2" d="M579.55 541.6c58.15,0 86.87,-5.44 140.49,-15.33 25.71,-4.74 24.17,3 37.38,12.23 10.31,-11.19 24.16,-32.43 32.95,-50.51 9.09,-18.71 14.58,-45.75 15.27,-69.73 -68.35,-5.41 -90.38,-4.59 -164.74,15.41 -17.73,4.77 -35.8,10.2 -52.35,16.36 -15.56,5.8 -37.13,16.33 -51.52,20.31 10.03,-40.1 12.93,-34.39 13.16,-86.87 0.17,-40.3 -3.23,-55.03 8.88,-93.58 19.65,-62.51 16.65,-29.39 57.9,-43.92 13.14,-4.62 21.66,-9.44 37.25,-13.76 11.15,-3.09 33.19,-1.68 36.25,-14.84 -16.44,-9.35 -29.81,12.52 -52.13,5.36 -24.18,-7.77 -21.47,21.8 -44.41,15.68 7.23,-7.97 14.74,-13.58 22.18,-22.09 14.3,-16.34 11.56,-11.91 5.56,-31.83 7.89,3.7 7.04,6.65 14.89,10.08 4.41,-5.65 4.99,-8.29 8.29,-13.93l1.33 14.68 7.21 1.03c-4.81,2.64 -1.17,0.11 -3.59,2.61l-3.81 4.81c-9.3,-5.03 -12.79,-4.32 -15.41,7.58 12.33,3.39 19.15,6.4 28.79,-0.52 34.3,-24.65 4.45,-35.19 -10.29,-45.29 -24.99,-17.13 -21.75,-26.33 -84.2,43.82 -54.42,61.13 -69.7,124.38 -104.57,201.04 -9.88,21.73 -23.23,48.67 -28.69,73.17 -9.42,42.24 12.25,49.48 48.2,52.42 32.88,2.69 66.52,5.61 99.73,5.61z"/>
    <path class="fil2" d="M162.59 188.58c2.84,8.92 11.2,16.83 16.78,21.55 8.83,7.46 16.19,5.95 28.03,0.59l-1.71 -9.42c-5.61,-1.08 -8.76,0.42 -13.71,2.24 -3.2,-7.9 0.88,-2.97 -6.08,-6.82 11.14,-4.23 5.53,-2.61 9.11,-16.19l5.14 13.3c10.11,-2.49 8.71,-6.19 17.39,-8.71 -8.45,15.6 -6.22,17.46 4.19,29.02 6.42,7.13 20.02,17.57 23.13,24.93 -26.71,2.98 -18.63,-24.76 -45.09,-16.17 -13.16,4.27 -13.08,1.59 -23.72,-2.84 -7.57,-3.15 -20.39,-7.31 -27.7,-2.69 2.32,13.06 13.27,8.38 35.58,14.73 15.76,4.49 23.32,8.65 37.25,13.6 41.92,14.91 38.64,-18.64 58.4,43.53 12.02,37.82 9.11,51.92 9.07,92.02 -0.06,66.22 9.2,62.27 13.15,89.83 -62.94,-31.02 -159.69,-59.22 -239.99,-53.71 -8.69,0.6 -16.78,-0.27 -21.35,5.96 0,26.01 5.1,43.69 14.17,64.27 3.79,8.59 8.94,17.08 13.44,24.17l12 16.76c3.8,4.03 2,2.44 6.41,5.58 16.86,-17.63 35.45,-5.38 74.3,-0.05 82.06,11.26 116.77,8.43 199.33,1.89 35.65,-2.82 55.91,-10.29 47.13,-51.24 -5.63,-26.29 -45.62,-113.74 -58.64,-144.94 -34.53,-82.74 -57.97,-122.5 -124.48,-181.1 -14.02,-12.35 -21.72,-2.08 -33.75,6.2 -10.91,7.5 -21.77,12.38 -27.78,23.71z"/>
   </g>
   <path class="fil3" d="M96.99 542.92c11.76,-8.86 59.54,4.93 77.11,7.1 67.43,8.35 110.37,6.37 177.64,0.69 58.37,-4.93 47.17,-8.58 68.66,-28.09 11.52,23.29 35.35,25.5 67.32,28.13 73.97,6.09 149.55,7.74 222.33,-7.78 17.83,-3.81 25.08,-9.15 34.87,4.68 -4.91,13.35 -43.77,39.3 -59.1,48.4 -23.35,13.86 -47.57,25.17 -75.2,35.51 -113.74,42.59 -266.03,40.77 -379.47,-1.54 -27.59,-10.29 -52.63,-21.87 -74.91,-35.87 -11.88,-7.47 -44.61,-30.96 -54.37,-40.9 -8.58,-8.74 -2.67,-4.5 -4.88,-10.33zm113.47 -405.28l5.42 0c7.26,1.08 15.01,6.63 26.5,18.25 8,8.1 16.57,14.7 22.68,23.83 12.33,-2.87 22.63,-6.11 35.62,-8.68 53.74,-10.63 49.93,-8.6 99.49,-11.24 9.68,-0.52 9.36,-1.99 19.9,-2.35l82.36 6.37c85.1,12.32 62.83,21.66 83.6,2.45 18.02,-16.65 26.79,-26.04 34.96,-28.63l9.64 0c8.07,2.3 18.34,9.93 37.09,22.56 11.05,7.45 29.77,19.82 20.34,39.45 11.53,5.53 24.72,9.41 13.29,33.22 18.15,12.15 51.45,36.4 64.56,52.82 6.21,7.79 11.63,12.67 16.99,20.66 11.87,17.7 19.16,28.04 27.66,49.85 16.9,43.33 15.28,95.55 2.83,139.31 -6.31,22.2 -15.27,39.4 -25.51,56.43 -15.09,25.09 -37.02,48.23 -59.61,66.63 -71.37,58.14 -173.72,86.07 -275.8,90.46l-58.02 0c-47.69,-2.05 -93.99,-9.07 -135.59,-20.38 -39.12,-10.62 -92.86,-33.95 -122.87,-56.51 -13.77,-10.35 -18.54,-11.84 -33.16,-26.64 -21.58,-21.83 -37.78,-38.51 -53.3,-66.29 -12.97,-23.21 -25.87,-63.77 -25.87,-91.52 0,-61.95 0.24,-88.52 39.52,-142.08 14.3,-19.5 20.91,-24.47 35.25,-37.84 8.26,-7.71 29.99,-27.69 40.4,-30.47 -5.15,-22.09 -15.54,-24.88 11.07,-37.65 -1.16,-4.97 -2.22,-5.09 -2.22,-11.07 0,-14.22 17.51,-24.28 27.02,-30.57 16.89,-11.16 26.59,-19.03 35.76,-20.37zm-169.92 267.83c3.59,-52.15 34.74,-98.43 71.65,-130.53 8.01,-6.97 19.73,-15.62 29.13,-21.9 12.83,-8.58 14.87,-13.54 34.57,-8.53 26.83,6.83 46.93,21.04 77.72,17.76 29.52,58.48 19.69,84.08 21.29,136.8 0.48,15.83 3.22,30.68 3.75,45.81 -33.8,-8.81 -52.34,-21.63 -108.25,-33.04 -47.52,-9.7 -80.96,-10.58 -129.86,-6.37zm542.79 -142.83c44.98,0.67 45.11,-10.65 82.51,-18.95 20.99,-4.66 24.49,-0.7 37.98,8.88 8.67,6.17 21.24,15.21 27.54,21.2 33.11,31.47 65.4,65.77 73.4,129.94 -72.67,-4.6 -124.22,1.78 -192.53,23.51 -17.87,5.68 -35.58,13.27 -52.56,18.24 3.25,-37.43 3.42,-61.71 3.53,-99.66 0.12,-37.3 13.59,-54.54 20.13,-83.16zm-304.45 -69.77c28.55,-12.13 106.23,-18.18 141.21,-18.33 53.33,-0.22 92.4,6.57 141.69,16.52 -18.28,30.27 -25.31,8.67 -79.75,132.51 -11.45,26.06 -56.47,128.36 -61.81,149.14 -6.72,-9.5 -10.91,-26.83 -15.59,-38.36 -15.94,-39.21 -64.5,-150.37 -81.61,-181.96 -18.86,-34.81 -31.12,-40.99 -44.14,-59.52zm300.67 348.73c-33.21,0 -66.85,-2.92 -99.73,-5.61 -35.95,-2.94 -57.62,-10.18 -48.2,-52.42 5.46,-24.5 18.81,-51.44 28.69,-73.17 34.87,-76.66 50.15,-139.91 104.57,-201.04 62.45,-70.15 59.21,-60.95 84.2,-43.82 14.74,10.1 44.59,20.64 10.29,45.29 -9.64,6.92 -16.46,3.91 -28.79,0.52 2.62,-11.9 6.11,-12.61 15.41,-7.58l3.81 -4.81c2.42,-2.5 -1.22,0.03 3.59,-2.61l-7.21 -1.03 -1.33 -14.68c-3.3,5.64 -3.88,8.28 -8.29,13.93 -7.85,-3.43 -7,-6.38 -14.89,-10.08 6,19.92 8.74,15.49 -5.56,31.83 -7.44,8.51 -14.95,14.12 -22.18,22.09 22.94,6.12 20.23,-23.45 44.41,-15.68 22.32,7.16 35.69,-14.71 52.13,-5.36 -3.06,13.16 -25.1,11.75 -36.25,14.84 -15.59,4.32 -24.11,9.14 -37.25,13.76 -41.25,14.53 -38.25,-18.59 -57.9,43.92 -12.11,38.55 -8.71,53.28 -8.88,93.58 -0.23,52.48 -3.13,46.77 -13.16,86.87 14.39,-3.98 35.96,-14.51 51.52,-20.31 16.55,-6.16 34.62,-11.59 52.35,-16.36 74.36,-20 96.39,-20.82 164.74,-15.41 -0.69,23.98 -6.18,51.02 -15.27,69.73 -8.79,18.08 -22.64,39.32 -32.95,50.51 -13.21,-9.23 -11.67,-16.97 -37.38,-12.23 -53.62,9.89 -82.34,15.33 -140.49,15.33zm-416.96 -353.02c6.01,-11.33 16.87,-16.21 27.78,-23.71 12.03,-8.28 19.73,-18.55 33.75,-6.2 66.51,58.6 89.95,98.36 124.48,181.1 13.02,31.2 53.01,118.65 58.64,144.94 8.78,40.95 -11.48,48.42 -47.13,51.24 -82.56,6.54 -117.27,9.37 -199.33,-1.89 -38.85,-5.33 -57.44,-17.58 -74.3,0.05 -4.41,-3.14 -2.61,-1.55 -6.41,-5.58l-12 -16.76c-4.5,-7.09 -9.65,-15.58 -13.44,-24.17 -9.07,-20.58 -14.17,-38.26 -14.17,-64.27 4.57,-6.23 12.66,-5.36 21.35,-5.96 80.3,-5.51 177.05,22.69 239.99,53.71 -3.95,-27.56 -13.21,-23.61 -13.15,-89.83 0.04,-40.1 2.95,-54.2 -9.07,-92.02 -19.76,-62.17 -16.48,-28.62 -58.4,-43.53 -13.93,-4.95 -21.49,-9.11 -37.25,-13.6 -22.31,-6.35 -33.26,-1.67 -35.58,-14.73 7.31,-4.62 20.13,-0.46 27.7,2.69 10.64,4.43 10.56,7.11 23.72,2.84 26.46,-8.59 18.38,19.15 45.09,16.17 -3.11,-7.36 -16.71,-17.8 -23.13,-24.93 -10.41,-11.56 -12.64,-13.42 -4.19,-29.02 -8.68,2.52 -7.28,6.22 -17.39,8.71l-5.14 -13.3c-3.58,13.58 2.03,11.96 -9.11,16.19 6.96,3.85 2.88,-1.08 6.08,6.82 4.95,-1.82 8.1,-3.32 13.71,-2.24l1.71 9.42c-11.84,5.36 -19.2,6.87 -28.03,-0.59 -5.58,-4.72 -13.94,-12.63 -16.78,-21.55z"/>
  </g>
 </g>
</svg>
