<!-- Generated by IcoMoon.io -->
<svg version="1.1" xmlns="http://www.w3.org/2000/svg" width="32" height="32" viewBox="0 0 32 32">
<title>logotipo-tepozspa-circulo</title>
<path d="M14.311 0.467c9.197-0.869 16.272 5.708 17.207 13.788 1.057 9.131-5.829 16.373-13.823 17.255-9.16 1.011-16.269-5.808-17.21-13.767-1.069-9.035 5.853-16.523 13.827-17.277zM5.444 26.298c0.209 0.506 0.814 0.861 1.453 1.39 1.44 1.192 3.952 2.406 5.849 2.761-0.288-0.744-0.726-0.888-1.175-1.416-1-1.176-3.342-2.701-4.825-3.478-0.377 0.159-0.74 0.458-1.302 0.743zM2.258 21.486c0.777 2.855 1.74 1.996 5.837 4.442 1.349 0.806 3.279 2.263 4.272 3.431 0.191 0.225 0.388 0.419 0.58 0.677 0.265 0.357 0.199 0.476 0.822 0.593-0.644-2.054-3.622-4.925-4.921-6.151-1.584-1.494-1.327-1-2.408-0.906-1.495 0.129-1.26-0.146-3.563-1.337l0.422-1.189-1.041 0.439zM13.881 29.842c-0.313-1.172-1.619-3.248-2.224-4.111-0.464-0.661-0.91-1.25-1.37-1.853-0.463-0.605-1.13-1.279-1.414-1.828-1.36 0.074-1.489 0.503-2.549-0.653-1.063-1.159 0.232-1.124-1.957-1.701 0.28-0.368 0.19-0.156 0.64-0.481 0.248-0.179 0.114-0.060 0.281-0.231l-1.763 0.052c-0.404-0.413-0.935-1.074-1.137-1.715l0.97-0.34c-0.406-0.145-1.152-0.176-1.42-0.312-0.375-0.19-0.44-0.691-0.757-1.051-0.081 3.957 0.327 2.987 2.332 4.39l5.736 4.347c0.843 0.685 2.516 2.554 3.25 3.471 0.554 0.693 0.891 1.373 1.382 2.015zM14.909 29.737c-0.269-3.573-2.155-7.772-2.728-10.482-1.045-0.050-0.994 0.017-1.65-0.478 0.274 2.145-0.46 0.68 0.734 2.717 1.040 1.776 1.831 3.303 2.564 5.281l1.081 2.962zM29.119 22.236c-2.353 1.133-1.861 1.46-3.454 1.342-1.081-0.080-1.068-0.366-1.775 0.252-0.542 0.474-0.808 0.655-1.317 1.207l-1.83 1.812c-0.769 0.786-2.085 2.64-2.52 3.78 0.762-0.151 0.787-0.653 1.325-1.188 1.512-1.502 2.259-2.237 4.242-3.457 1.122-0.691 2.186-1.229 3.402-1.783 0.612-0.279 1.329-0.396 1.673-0.856 0.304-0.406 0.704-1.295 0.846-1.808l-0.951-0.503c0.017 0.632 0.27 0.625 0.358 1.203zM28.688 16.885c0.362 0.333 0.464 0.336 0.928 0.427-0.231 0.703-0.687 1.335-1.163 1.711l-1.581 0.127 0.777 0.392c-0.364 0.369-0.873 0.363-1.381 0.508-0.4 1.596-1.371 2.601-2.981 1.957-1.264 1.3-4.899 5.995-5.405 8.436 0.069-0.378 0.94-1.658 1.197-2.046 1.669-2.515 3.24-3.532 5.194-5.296 1.134-1.023 2.754-2.022 4.047-2.961 2.080-1.51 2.686-0.607 2.5-4.537-1.082 1.254 0.211 0.957-2.131 1.282zM19.243 30.447c2.658-0.555 5.617-2.125 7.328-4.15-0.679-0.385-0.642-0.293-1.199-0.748-1.349 0.421-3.082 1.887-4.159 2.749-0.773 0.619-1.471 1.204-1.969 2.149zM19.856 19.237c-0.939 2.973-2.502 7.305-2.77 10.516 0.313-0.425 0.764-2.151 1.035-2.863 0.643-1.688 1.599-3.699 2.504-5.205 1.392-2.316 0.525-0.856 0.843-2.896-0.842 0.594-0.573 0.423-1.612 0.448zM17.888 18.233c-0.377 3.559-1.392 8.432-1.27 11.96 0.225-2.211 1.557-7.014 2.325-9.339 1.052-3.181 0.206-1.214 0.216-3.24-0.049 0.021-1.223 0.588-1.272 0.618zM16.196 17.648l-0.023 12.164c0.377-1.785 0.501-4.636 0.734-6.659 0.123-1.067 0.263-2.173 0.404-3.212 0.275-2.039 0.376-1.348-0.341-2.996l-0.773 0.703zM15.808 30.695l0.041-13.080c-0.171-0.088-0.306-0.167-0.435-0.255l-0.452-0.32c-0.185 0.677-0.461 0.789-0.496 1.261-0.024 0.315 0.178 1.342 0.232 1.732 0.158 1.157 0.308 2.299 0.437 3.472 0.26 2.368 0.549 4.79 0.675 7.191zM15.372 30.192c0.078-3.753-0.891-8.228-1.263-11.988-0.463-0.211-0.9-0.38-1.253-0.629-0.056 0.763-0.342 1.278-0.35 1.579l1.413 4.587c0.547 1.984 1.185 4.415 1.453 6.452zM1.25 14.394c0.018 0.009 0.056-0.023 0.062-0.002 0.151 0.54-0.143-0.501 0.797 0.432 1.64 1.63 3.105 2.917 4.703 4.685 0.609 0.673 1.264 1.222 1.862 1.915 1.686 1.955 4.912 5.758 5.867 9.022-0.1-2.198-3.178-8.549-4.293-9.879-1.414 0.199-1.962-0.168-3.177-1.972l1.137-0.672-1.792 0.029c-0.175-0.555-0.455-0.624-0.635-1.178l1.311-0.848-1.606 0.002-1.018-1.952 0.86-0.337c-1.128-0.288-1.486-0.115-1.412-1.911 0.072-1.754 1.728-0.569 2.337 0.077 0.81 0.862 0.746 1.090 0.747 2.469 0.302-0.256 0.245-0.335 0.567-0.467 0.208 0.538 1.223 1.862 1.728 2.243l-0.274-0.984c0.173-0.015 0.438-0.018 0.606-0.052l0.566-0.222c-2.157-0.312-1.85-0.165-2.701-3.864 0.408-0.091 0.645-0.090 0.988-0.336-0.517-0.104-0.963-0.132-1.314-0.398-0.672-0.868 0.236-3.934 2.572-0.334 1.369 2.11 0.475 1.389 0.683 3.364l0.613-0.765c0.349 0.528 0.601 0.998 0.895 1.495l1.211-0.282c-0.561-0.191-1.171-0.008-1.472-0.456 0.171-0.526 0.506-0.365 1.061-0.407-0.034-0.035-0.086-0.129-0.11-0.096l-0.432-0.281c-0.081-0.036-0.546-0.15-0.65-0.178l-0.289-1.364c0.009-0.014 0.062-0.061 0.080-0.030l0.815-0.283-1.131-0.257c-0.234-1.122-0.762-3.493 0.217-4.249 0.998 0.084 1.358 1.534 1.765 2.492 0.499 1.175 1.045 1.972 1.274 3.261l0.163-0.508c0.031-0.155 0.042-0.457 0.070-0.647l0.944 0.257c-0.585-1.196-0.97-0.4-0.698-2.401l0.805 0.39c-0.468-0.993-0.954-0.72-0.582-2.251 0.225-0.925 0.358-1.746 1.33-1.777 0.74 0.893 0.859 2.884 0.998 4.328l-0.812 0.978 0.906-0.148c0.121 2.241 0.245 1.838-0.92 3.039l1.047-0.21c0.182-1.422 0.703-2.72 1.248-3.824 0.497-1.007 0.915-2.969 2.046-2.973 0.549 0.554 0.487 1.802 0.436 2.708-0.084 1.489-0.084 1.565-1.412 1.792 0.038 0.022 0.099-0.005 0.123 0.048l0.811 0.27-0.313 1.384-0.874 0.282c-0.247 0.144-0.147 0.073-0.322 0.242 0.645 0.054 0.895-0.159 1.065 0.441-0.31 0.41-0.866 0.279-1.472 0.399l1.187 0.357 0.929-1.55 0.661 0.736c-0.257-2.17-0.084-2.71 1.518-4.374 1.921-1.995 2.304 1.049 1.41 1.528-0.116 0.062-0.166 0.080-0.314 0.124-0.189 0.056-0.526 0.101-0.729 0.14 0.033 0.022 0.084 0.010 0.102 0.058l0.902 0.242c-0.859 3.901-0.596 3.429-2.718 3.919 0.033 0.006 0.092-0.010 0.115 0.044 0.096 0.219 0.842 0.204 1.065 0.225l-0.332 1.004c0.773-0.572 1.224-1.455 1.802-2.203l0.239 0.083c0.458 0.080-0.137 0.254 0.33 0.002-0.227-1.837 1.546-3.419 2.879-3.092 0.267 0.833 0.151 1.555-0.092 2.45l-1.151 0.293 0.881 0.301c-0.148 0.405-0.859 1.775-1.046 2l-1.605 0.001 0.632 0.433c0.27 0.15 0.442 0.226 0.694 0.416-0.207 0.531-0.432 0.661-0.643 1.165l-1.739-0.094 1.128 0.703c-0.236 0.393-0.947 1.214-1.224 1.492-0.665 0.668-0.912 0.725-2.048 0.487-0.433 1.093-1.7 2.913-2.306 4.259-0.594 1.322-1.539 3.425-1.759 4.924 0.451-0.451 0.955-1.74 1.287-2.323 0.468-0.821 0.885-1.435 1.412-2.22 1.154-1.719 2.613-3.308 3.994-4.826l4.546-4.561c0.374-0.336 0.601-0.52 0.925-0.896 0.391-0.452 0.592-0.377 0.952-0.632-0.877-5.477-3.904-9.678-8.879-11.896-6.231-2.777-13.829-0.42-17.579 4.529-0.462 0.609-0.923 1.309-1.363 2.134-0.862 1.616-1.395 3.295-1.667 5.372z"></path>
</svg>
