<?xml version="1.0" encoding="UTF-8"?>
<!DOCTYPE svg PUBLIC "-//W3C//DTD SVG 1.1//EN" "http://www.w3.org/Graphics/SVG/1.1/DTD/svg11.dtd">
<!-- Creator: CorelDRAW 2017 -->
<svg xmlns="http://www.w3.org/2000/svg" xml:space="preserve" width="8.4666mm" height="4.2332mm" version="1.1" style="shape-rendering:geometricPrecision; text-rendering:geometricPrecision; image-rendering:optimizeQuality; fill-rule:evenodd; clip-rule:evenodd"
viewBox="0 0 846.66 423.32"
 xmlns:xlink="http://www.w3.org/1999/xlink">
 <defs>
  <style type="text/css">
   <![CDATA[
    .fil0 {fill:none}
    .fil4 {fill:#4881EC}
    .fil3 {fill:#4959B7}
    .fil1 {fill:#767676}
    .fil2 {fill:#7EACF7}
   ]]>
  </style>
 </defs>
 <g id="Capa_x0020_1">
  <metadata id="CorelCorpID_0Corel-Layer"/>
  <rect class="fil0" y="-0" width="846.66" height="423.33"/>
  <g id="_2915795087856">
   <path class="fil1" d="M80.5 345.12c-1.3,25.72 -43.52,28.35 -50.86,0.01 -3.86,-14.9 3.82,-25.72 11.98,-30.97 14.54,-9.36 23.71,-1.85 33.67,2.73l5.97 -7.24c-21.94,-27.53 -81.12,3.19 -60.03,45.09 17.27,34.32 76.53,26.84 69.92,-20.54l-35.13 0.35 0.21 10.13 24.27 0.44z"/>
   <path class="fil1" d="M350.63 374.3c1.15,-2.08 0.45,0.25 1.2,-3.56l0.27 -20.25c0,-8.29 -0.09,-16.61 0.01,-24.89 8.35,8.35 17.21,34.76 23.32,34.85 8.22,-2.7 16.28,-28.02 23.4,-34.86 0.34,8.31 -1.62,42.43 1.39,48.91l5.83 -0.15c3.11,-5.61 1.58,-60.72 1.46,-66.33 -9.04,-0.94 -8.53,-1.12 -12.2,5.56 -3.89,7.07 -16.02,30.05 -19.88,33.02 -4.26,-4.16 -16.63,-27.28 -19.79,-33.23 -3.68,-6.93 -3.51,-6.35 -12.18,-5.26 -0.12,9.22 -1.6,57.61 1.34,66.31l5.83 -0.12z"/>
   <path class="fil1" d="M239.17 359.25c-7.91,14.21 -31.93,3.42 -23.18,-15.06 8.04,-17.01 33.08,-2.72 23.18,15.06zm11.4 -31.05c-2.89,-0.03 -3.56,-0.15 -6.4,0.38 -8.34,1.55 0.02,4.06 -7.8,0.73 -17.45,-7.42 -29.48,4.55 -32.22,15.94 -2.77,11.53 2.59,20.65 8.23,25.35 10.03,8.34 15.94,5.51 27.84,1.37 -0.15,8.68 -2.34,15.23 -10.92,16.24 -9.62,1.15 -10.36,-4.63 -15.82,-8.17l-7.26 4.01c4.32,16.28 30.52,18.47 40.09,5.08 6.96,-9.75 4.7,-47.26 4.26,-60.93z"/>
   <path class="fil1" d="M488.71 365.61l-0.27 -20.29c36.29,-9.78 39.77,28.82 0.27,20.29zm17.53 -30.46c-2.96,2.97 -13.17,1.82 -18.17,1.19l0.32 -20.29c5.92,-1.78 14.44,-1.8 19.66,0.62 9.36,4.04 8.78,17.33 -1.81,18.48zm9.44 5.13c3.78,-5.85 12.95,-11.88 4.93,-24.13 -7.28,-11.13 -24.73,-8.61 -40.69,-8.35l0.11 66.52c14.22,0.75 32.01,2.38 40.36,-5.81 10.23,-10.02 5.01,-21.37 -4.71,-28.23z"/>
   <path class="fil1" d="M132.52 357.79c-8.42,17.05 -31.68,5.82 -24.91,-12.54 6.58,-17.84 33.77,-5.42 24.91,12.54zm-36.43 0c6.5,28.95 55.91,21.63 48.24,-12.53 -6.67,-29.73 -55.96,-21.82 -48.24,12.53z"/>
   <path class="fil1" d="M285.57 349.91c-0.31,-11.64 12.11,-17.98 20.15,-9.63 -3.23,4.13 -15.24,8.21 -20.15,9.63zm2.03 8.67c8.65,-3.96 23.45,-7.78 31.34,-13.92 -5.2,-25.25 -41.59,-22.69 -44.55,2.99 -3.61,31.45 37.07,35.78 44.22,17.06l-7.35 -4.44c-7.82,4.37 -17.72,11.94 -23.66,-1.69z"/>
   <path class="fil1" d="M168.09 338.39c17.97,-9.43 27.44,19.32 11.75,26.46 -16.77,7.64 -27.7,-18.09 -11.75,-26.46zm-18.5 16.48c3.62,30.18 52.8,27.29 49.11,-7.1 -3.25,-30.28 -53.2,-27.05 -49.11,7.1z"/>
   <path class="fil1" d="M700.21 346.16c2.89,-15.5 23.13,-14.13 25.16,-0.16l-25.16 0.16zm32.44 17.46c-11.28,-7.53 -5.05,4.12 -18.84,4.34 -9.16,0.14 -13.7,-5.72 -14.62,-14.67l35.3 -0.03c3.67,-30.52 -36.3,-35.23 -43.26,-9.16 -9.28,34.7 37.08,40.85 41.42,19.52z"/>
   <path class="fil1" d="M532.87 328.62c0.14,10.3 -1.73,31.8 2.7,39.67 6.2,11 21.59,9.33 28.06,1.23 3.48,5.05 0.88,5.56 9.86,4.91l-0.04 -45.61 -8.44 0c-0.46,14.61 3.93,38.34 -11.79,39.11 -16.89,0.82 -11.06,-24.83 -11.82,-39.08l-8.53 -0.23z"/>
   <path class="fil1" d="M739.87 362.19c3.26,25.87 52.15,10.79 33.81,-8.91 -6.78,-7.28 -24.18,-4.88 -23.63,-12.93 0.41,-6.11 8.72,-6.23 14.01,-3.78 6.06,2.81 4.03,6.93 11.29,0.79 -1.44,-3.84 -1.94,-5.12 -6,-7.47 -8.46,-4.89 -23.77,-2.85 -27.86,6 -7.88,17.05 18.78,17.94 26.13,23.13 0.12,8.68 -5.25,11.43 -13.71,8.23 -9.81,-3.7 -1.15,-9.06 -14.04,-5.06z"/>
   <path class="fil1" d="M580.55 361.93c2.76,26.94 52.74,10.26 33.34,-9.23 -6.81,-6.84 -26.11,-4.44 -23.48,-13.29 1.63,-5.49 9.89,-4.95 14.57,-2.64 5.42,2.67 3.86,6.58 11.1,0.59 -5.52,-14 -30.04,-12.92 -34.26,-0.61 -7.06,20.63 27.12,14.57 26.79,25.41 -2.1,5.46 -7.65,8.3 -14.75,4.67 -6.92,-3.53 -2.36,-7.72 -13.31,-4.9z"/>
   <path class="fil1" d="M781.14 362.51c4.48,24.73 51,11.01 34.57,-8.84 -6.72,-8.12 -24.97,-4.91 -24.51,-13.32 0.3,-5.58 8.14,-6.45 13.88,-4.06 5.46,2.27 4.8,7.33 11.96,1.07 -11.3,-24.24 -50.91,-0.55 -29.28,13.61 4.72,3.09 30.26,5.36 19.32,15.36 -4.27,3.91 -11.42,1.52 -14.6,-1.27 -5.51,-4.83 -1.76,-6.16 -11.34,-2.55z"/>
   <path class="fil1" d="M413.67 329.08c3.75,10.64 8.74,21.23 13.77,32.15 8.08,17.53 -1.49,17.39 -5.25,33.05 11.81,1.2 10.73,-4.85 21.32,-29.72 3.65,-8.59 12.84,-26.78 14.86,-35.73l-8.84 0.13 -13.54 31.75 -13.9 -31.96 -8.42 0.33z"/>
   <path class="fil1" d="M673.93 343.24c1.43,1.96 1.18,-2.96 1.75,4.34l0.28 26.22 7.12 -0.11 -0.28 -31.93c-1.16,-15.84 -19.01,-19.13 -30.27,-8.08 -3.55,-5.74 1.38,-5.03 -9.09,-4.92 -0.48,8.19 -0.25,16.44 -0.27,24.65 -0.05,17.58 -2.91,22.25 4.98,21.17 5.56,-0.77 3.74,-2.53 3.55,-16.84 -0.43,-31.42 20.84,-24.49 22.23,-14.5z"/>
   <path class="fil1" d="M258.27 302.02c-0.5,12.12 -1.62,64.02 0.89,72.6l9.8 0.04 -0.02 -72.53 -10.67 -0.11z"/>
   <polygon class="fil1" points="631.7,328.54 625.52,328.78 625.19,373.6 632.2,373.71 "/>
   <path class="fil1" d="M634.34 310.13l-2.95 -2.53c-8.97,-1.15 -11.37,5.58 -7.07,9.75 5.25,5.08 10.46,0.86 10.02,-7.22z"/>
  </g>
  <g id="_2915795084880">
   <g>
    <path class="fil2" d="M289.19 265.18c-3.25,-25.72 1.55,-83.23 -1.32,-116.68 14.44,3.47 23.03,5.68 35.69,-2.15 6.26,-3.88 11.78,-9.33 14.66,-15.99l3.61 -7.45c0.58,-15.63 4.18,-36.46 6.4,-52.28 2.14,-15.23 3.5,-38.8 7.38,-52.13 -13.06,0.24 -49.04,-2.3 -57.67,2.66 -11.8,6.77 -13.61,28.06 -17.54,42.11 -4.37,15.62 -15.28,48.59 -12.55,60.1 4.38,18.45 18.23,23.35 18.95,24.88 1.58,3.37 -0.92,108.38 0.49,113.4 1.15,4.1 -0.1,1.4 1.9,3.53z"/>
    <path class="fil2" d="M418.62 120.06c5.99,14.61 13.48,32.39 38.45,31.56 23.94,-0.79 30.55,-17.75 36.18,-33.28 0.19,-15.05 -3.68,-34.44 -5.63,-50.32 -1.49,-12.09 -6.68,-39.22 -5.76,-49.44l-64.35 -0.05 1.11 101.53z"/>
    <path class="fil2" d="M507.45 234.59c2.43,-1.85 2.29,0.73 3.31,-4.97 -4.08,-3.07 -13.57,-1.4 -19.35,-1.59l-0.34 -13.18 35.37 0.39c-2.33,-2.28 2.21,-0.89 -4.03,-2.2l-13.82 0.11c-6.4,-0.01 -12.26,-0.18 -18.69,0.3 -1.14,4.91 -1.19,10.2 -0.12,15.02 5.34,2.41 13.32,0.96 19.77,1.23l-2.1 4.89z"/>
   </g>
   <g>
    <path class="fil3" d="M341.83 122.91c4.65,8.5 3.04,12.85 13.75,21.46 8.21,6.59 11.8,8.97 25.84,8.99 14.22,0.03 17.31,-3.02 25.36,-9.51 4.97,-4 5.73,-2.65 8.08,-9.3 2.15,-6.07 3.52,-6.4 3.76,-14.49l-1.11 -101.53 -61.9 -0.03c-3.88,13.33 -5.24,36.9 -7.38,52.13 -2.22,15.82 -5.82,36.65 -6.4,52.28z"/>
    <path class="fil3" d="M493.25 118.34c0.19,13.79 9.27,24.83 18.35,29.48 10.15,5.2 22.22,7.98 33.33,3.86 3.12,-1.16 2.36,-0.36 4.16,-2.83 8.05,-7.19 24.47,-17.76 19.21,-38.42 -3.93,-15.44 -8.4,-31.83 -12.5,-47.3 -12.35,-46.51 -3.55,-46.53 -73.94,-44.55 -0.92,10.22 4.27,37.35 5.76,49.44 1.95,15.88 5.82,35.27 5.63,50.32z"/>
   </g>
   <path class="fil4" d="M507.45 234.59l2.1 -4.89c-6.45,-0.27 -14.43,1.18 -19.77,-1.23 -1.07,-4.82 -1.02,-10.11 0.12,-15.02 6.43,-0.48 12.29,-0.31 18.69,-0.3l13.82 -0.11c6.24,1.31 1.7,-0.08 4.03,2.2 -1.15,11.23 1.26,32.59 -22.13,41.02 -20.5,7.4 -38.15,-2.64 -46.4,-16.02 -10.33,-16.75 -4.78,-36.69 7.85,-47.73 11.93,-10.43 37.86,-13.21 48.69,0.44 -1.83,3.68 -6.44,7.49 -9.29,10.01 -7.62,-2.19 -13.66,-9.14 -26.04,-1.72 -7.26,4.36 -12.54,12.35 -10.89,23.79 3.82,26.58 40.64,19.73 39.22,9.56zm-88.83 -114.53c-0.24,8.09 -1.61,8.42 -3.76,14.49 -2.35,6.65 -3.11,5.3 -8.08,9.3 -8.05,6.49 -11.14,9.54 -25.36,9.51 -14.04,-0.02 -17.63,-2.4 -25.84,-8.99 -10.71,-8.61 -9.1,-12.96 -13.75,-21.46l-3.61 7.45c-2.88,6.66 -8.4,12.11 -14.66,15.99 -12.66,7.83 -21.25,5.62 -35.69,2.15 2.87,33.45 -1.93,90.96 1.32,116.68 0.56,17.13 28.15,14.31 36.1,14.29l151.23 0.02c16.69,-0.01 33.82,0.41 50.46,0.04 18.65,-0.42 21.83,-12.4 21.75,-29.28 -0.08,-16.94 -0.8,-90.51 0.36,-101.4 -1.8,2.47 -1.04,1.67 -4.16,2.83 -11.11,4.12 -23.18,1.34 -33.33,-3.86 -9.08,-4.65 -18.16,-15.69 -18.35,-29.48 -5.63,15.53 -12.24,32.49 -36.18,33.28 -24.97,0.83 -32.46,-16.95 -38.45,-31.56z"/>
  </g>
 </g>
</svg>
