<?xml version="1.0" encoding="UTF-8"?>
<!DOCTYPE svg PUBLIC "-//W3C//DTD SVG 1.1//EN" "http://www.w3.org/Graphics/SVG/1.1/DTD/svg11.dtd">
<!-- Creator: CorelDRAW 2017 -->
<svg xmlns="http://www.w3.org/2000/svg" xml:space="preserve" width="19.3038mm" height="9.9058mm" version="1.1" style="shape-rendering:geometricPrecision; text-rendering:geometricPrecision; image-rendering:optimizeQuality; fill-rule:evenodd; clip-rule:evenodd"
viewBox="0 0 1930.38 990.58"
 xmlns:xlink="http://www.w3.org/1999/xlink">
 <defs>
  <style type="text/css">
   <![CDATA[
    .fil1 {fill:#EEEEF2}
    .fil0 {fill:#F0E928}
    .fil2 {fill:#17613F}
   ]]>
  </style>
 </defs>
 <g id="Capa_x0020_1">
  <metadata id="CorelCorpID_0Corel-Layer"/>
  <path class="fil0" d="M803.13 573.37c-7.94,-10.95 -25.9,-134.76 -28.28,-137.73 -6.55,-8.17 -20.99,-0.56 -27.69,1.08 -14.67,3.59 -14.73,5.26 -27.56,8.39 -16.23,3.96 -37.12,11.05 -53.97,16.54 -1.19,39.68 -3.48,229.34 -0.59,277.87 16.51,0.44 50.37,-13.53 65.92,-21.27l0.59 -149.62c-0.02,-13.5 -1.24,-14.11 5.09,-22.09 8.45,9.13 24.96,129.88 27.25,155.83 17.39,5.22 43.08,-5.92 57.21,-10.76 21.89,-7.48 17.68,-10.18 22.85,-50.9 2.34,-18.46 5.63,-44.73 9.12,-63.91 5.63,-30.94 0.36,-15.65 10.31,-44.07l5.71 -13.13c0.37,-0.66 0.9,-1.64 1.52,-2.33l0.53 156.77c12.09,0.74 60.46,-17.85 64.04,-20.67 12.67,-9.99 5.65,-61.67 5.65,-81.97l-0.55 -197.77c-8.74,-0.89 -50.68,14 -61.51,18.13 -55.45,21.16 -47.85,5.58 -51.91,34.94l-23.73 146.67zm576.04 -345.87l-0.67 273.03c15.74,0.68 28.75,-4.32 43.24,-8.66 27.41,-8.21 24.7,-2.15 24.73,-47.91l-0.17 -236.09c-22.91,-1.32 -47.27,11.83 -67.13,19.63zm-411.2 411.86c3.19,2.58 -0.11,1.85 6.1,1.74 0.36,0 8.51,-1.54 8.66,-1.58l46.48 -19.46c9.84,-11.11 3.48,-111.75 3.48,-134.55 0,-45.38 2.04,-95.78 -0.39,-140.55 -14.04,-2.14 -62.63,9.44 -66.89,22.58l-0.81 228.8c0,12.22 -3.45,35.72 3.37,43.02zm251.21 -150.68l-0.53 46.71c0.01,16.2 -0.61,17.36 16.4,17.41 11.74,0.03 21.11,-1.39 30.46,-4.03 14.53,-4.11 32.41,-13.32 45.85,-20.75 21.82,-12.06 50.4,-47.22 50.08,-84.14 -0.61,-69.23 -103.84,-73.78 -72.95,-121.21 14,-21.49 43.07,-9.83 49.83,-16.95 6.3,-11.26 9.61,-39.55 8.26,-56.07 -50.3,-15.76 -144.39,21.01 -135.21,114.12 2.73,27.75 22.67,50.35 42.85,61.88l5.8 2.86c12.99,6.83 33.3,26.75 10.59,44.99 -16.02,12.87 -26.63,12.27 -51.43,15.18zm-160.8 68.87l0.9 48.58c52.43,9.33 146.25,-41.36 142.74,-112.3 -0.9,-18.2 -9.15,-33.2 -19.65,-44.06 -18.29,-18.93 -70.71,-35.51 -54.26,-70.93 9.52,-20.52 28.76,-13.53 51.81,-15.84l8.61 -43.86c0.01,-0.2 0.43,-7.99 0.39,-8.48 -1.11,-13.85 -7.07,-12.34 -36.85,-11 -40.58,1.82 -92.19,36.6 -99.74,86.42 -8.67,57.31 18.08,75.44 48.32,98.36 7.94,6.01 15.26,10.06 16.77,20.58 2.07,14.32 -4.31,19.95 -12.48,24.85 -37.88,22.76 -46.6,-8.82 -46.56,27.68zm495.57 -202.19c-7.33,-9 -6.6,-28.74 -8.2,-41.32 -2.44,-19.28 -14.11,-126.03 -19.74,-132.61 -3.85,-3.01 -0.52,-2.66 -7.67,-2.51l-27.86 8.29c-10.35,4.09 -24.59,7.4 -32.51,12.93 -2.08,24.95 7.87,44.99 10.89,66.6 2.67,19.15 4.73,18.2 7.33,30.78 2.39,11.52 3.27,23.62 5.27,34.71 2.35,13.04 5.93,20.14 8.02,29.25l18.85 97.75c14.13,1.85 28.78,-3.97 42.6,-10.17 15.56,-6.98 28.72,-8.24 44,-14.18 17.54,-6.83 13.21,-57.52 23.4,-92.67 6.37,-21.98 31.81,-182.19 31.49,-201.97 -71.66,3.8 -63.01,24.86 -71.2,84.03 -3.6,25.93 -16.06,114.33 -24.67,131.09zm260.49 -274.33l-126.95 43.82c-15.52,4.79 -18.25,-0.82 -21.06,14.49l-0.36 267.27c12.67,-0.73 28.32,-5.83 39.6,-9.81l89.72 -29.45c20.72,-7.54 21.02,1.94 19.34,-59.85 -30.7,-1.41 -45.92,16 -75.09,14.72 -3.18,-50.1 0.29,-47.09 18.69,-53.39 7.38,-2.52 12.09,-4.49 18.29,-6.29 11.71,-3.4 28.22,-6.6 37.04,-12.53l1.26 -55.48c-27.24,0.1 -42.52,18.99 -75.68,17.1 -0.14,-7.97 -1.11,-26.66 0.15,-33.61 2.5,-13.77 8.59,-12.11 20.57,-16.11 20.32,-6.79 27.03,-15.5 54.45,-14.66l1.41 23.59c10.95,0.06 73.16,-55.88 75.7,-62.13 -8.57,-11.52 -62.32,-60.84 -75.86,-59.84l-1.22 32.16z"/>
  <path class="fil1" d="M111.39 825.64c-12.12,-4.61 -69.39,50.18 -69.3,58.85 0.08,7.81 37.3,35.86 48.46,44.99 8.59,7.03 6.64,9.69 19.95,11.55l1.47 -4.82c0.16,-0.63 0.41,-1.7 0.6,-2.46 0.49,-2.02 1.02,-5.92 1.51,-7.08 6.23,-14.83 7.02,-0.53 39.02,-10.75 18.33,-5.86 34.94,-8.65 48.14,-18.28 25.43,-18.57 51.85,-42.61 54.74,-82.34 5.34,-73.32 -99.9,-76.61 -73.76,-125.24 7.62,-14.17 22.65,-14.34 36.52,-14.42 7.18,-0.04 12.19,0.61 15.49,-2.88 5.96,-8.09 10.62,-44.04 8.65,-59.19 -43.85,-2.9 -82.03,1.75 -111.7,36.73 -9.52,11.23 -19.87,25.39 -23.62,39.23 -3.57,13.15 -4.08,47.95 0.81,59.06 0.22,0.49 0.66,1.15 0.9,1.62 0.25,0.48 0.73,1.12 1,1.6l3.2 5.25c21.77,36.92 48.45,40.14 56.4,54.5 11.82,21.33 -7.44,31.83 -23.66,36.86 -41.21,12.8 -27.19,-4.52 -34.82,-22.78zm421.59 -148.11c22.97,-19.77 46.9,-7.74 44.79,15.62 -1.67,18.45 -29.18,32.08 -44.66,31.11l-0.13 -46.73zm-1.26 -108.9c49.49,-36.19 46.93,45.28 -0.4,41.92l-0.39 -16.98 -0.19 -13.86 0.98 -11.08zm-64.04 -41.75c-3.26,31.68 -2.73,241.24 -0.95,278.17 15.69,-0.05 122.6,-31.23 148.72,-58.56 31.1,-32.53 46.26,-61.63 19.13,-105.88 -8.13,-13.26 -17.9,-14.4 -29.51,-22.11 -0.5,-13.74 20.78,-28.75 21.31,-60.86 1.82,-109.59 -104.75,-41.66 -158.7,-30.76zm-125.62 247.86c-9.52,-9.24 -1.45,-162.77 -4.69,-200.34 -19.16,-1.32 -27.57,11.22 -41.84,13.8 -18.74,3.39 -23.81,-3.35 -23.92,24.71l0.25 160.75c0.03,63.46 17.36,94.48 83.93,74.46l23.32 -10.61c14.3,-8.61 21.58,-10.32 37.64,-32.06 25.05,-33.9 22.27,-74.14 22.26,-114.91l-0.36 -150.91c-5.81,0.33 -59.75,16.42 -63.2,22.2 -8.77,14.73 4.88,187.4 -5.29,205.91 -4.23,7.69 -19.22,18.34 -28.1,7z"/>
  <path class="fil2" d="M342.06 774.74c8.88,11.34 23.87,0.69 28.1,-7 10.17,-18.51 -3.48,-191.18 5.29,-205.91 3.45,-5.78 57.39,-21.87 63.2,-22.2l0.36 150.91c0.01,40.77 2.79,81.01 -22.26,114.91 -16.06,21.74 -23.34,23.45 -37.64,32.06l-23.32 10.61c-66.57,20.02 -83.9,-11 -83.93,-74.46l-0.25 -160.75c0.11,-28.06 5.18,-21.32 23.92,-24.71 14.27,-2.58 22.68,-15.12 41.84,-13.8 3.24,37.57 -4.83,191.1 4.69,200.34zm190.92 -97.21l0.13 46.73c15.48,0.97 42.99,-12.66 44.66,-31.11 2.11,-23.36 -21.82,-35.39 -44.79,-15.62zm-1.26 -108.9l-0.98 11.08 0.19 13.86 0.39 16.98c47.33,3.36 49.89,-78.11 0.4,-41.92zm-420.33 257.01c7.63,18.26 -6.39,35.58 34.82,22.78 16.22,-5.03 35.48,-15.53 23.66,-36.86 -7.95,-14.36 -34.63,-17.58 -56.4,-54.5l-3.2 -5.25c-0.27,-0.48 -0.75,-1.12 -1,-1.6 -0.24,-0.47 -0.68,-1.13 -0.9,-1.62 -4.89,-11.11 -4.38,-45.91 -0.81,-59.06 3.75,-13.84 14.1,-28 23.62,-39.23 29.67,-34.98 67.85,-39.63 111.7,-36.73 1.97,15.15 -2.69,51.1 -8.65,59.19 -3.3,3.49 -8.31,2.84 -15.49,2.88 -13.87,0.08 -28.9,0.25 -36.52,14.42 -26.14,48.63 79.1,51.92 73.76,125.24 -2.89,39.73 -29.31,63.77 -54.74,82.34 -13.2,9.63 -29.81,12.42 -48.14,18.28 -32,10.22 -32.79,-4.08 -39.02,10.75 -0.49,1.16 -1.02,5.06 -1.51,7.08 -0.19,0.76 -0.44,1.83 -0.6,2.46l-1.47 4.82c-13.31,-1.86 -11.36,-4.52 -19.95,-11.55 -11.16,-9.13 -48.38,-37.18 -48.46,-44.99 -0.09,-8.67 57.18,-63.46 69.3,-58.85zm856.58 -186.28c-6.82,-7.3 -3.37,-30.8 -3.37,-43.02l0.81 -228.8c4.26,-13.14 52.85,-24.72 66.89,-22.58 2.43,44.77 0.39,95.17 0.39,140.55 0,22.8 6.36,123.44 -3.48,134.55l-46.48 19.46c-0.15,0.04 -8.3,1.58 -8.66,1.58 -6.21,0.11 -2.91,0.84 -6.1,-1.74zm-500.29 -112.48c53.95,-10.9 160.52,-78.83 158.7,30.76 -0.53,32.11 -21.81,47.12 -21.31,60.86 11.61,7.71 21.38,8.85 29.51,22.11 27.13,44.25 11.97,73.35 -19.13,105.88 -26.12,27.33 -133.03,58.51 -148.72,58.56 -1.78,-36.93 -2.31,-246.49 0.95,-278.17zm359.18 -100.18c4.06,-29.36 -3.54,-13.78 51.91,-34.94 10.83,-4.13 52.77,-19.02 61.51,-18.13l0.55 197.77c0,20.3 7.02,71.98 -5.65,81.97 -3.58,2.82 -51.95,21.41 -64.04,20.67l-0.53 -156.77c-0.62,0.69 -1.15,1.67 -1.52,2.33l-5.71 13.13c-9.95,28.42 -4.68,13.13 -10.31,44.07 -3.49,19.18 -6.78,45.45 -9.12,63.91 -5.17,40.72 -0.96,43.42 -22.85,50.9 -14.13,4.84 -39.82,15.98 -57.21,10.76 -2.29,-25.95 -18.8,-146.7 -27.25,-155.83 -6.33,7.98 -5.11,8.59 -5.09,22.09l-0.59 149.62c-15.55,7.74 -49.41,21.71 -65.92,21.27 -2.89,-48.53 -0.6,-238.19 0.59,-277.87 16.85,-5.49 37.74,-12.58 53.97,-16.54 12.83,-3.13 12.89,-4.8 27.56,-8.39 6.7,-1.64 21.14,-9.25 27.69,-1.08 2.38,2.97 20.34,126.78 28.28,137.73l23.73 -146.67zm552.31 -199.2c19.86,-7.8 44.22,-20.95 67.13,-19.63l0.17 236.09c-0.03,45.76 2.68,39.7 -24.73,47.91 -14.49,4.34 -27.5,9.34 -43.24,8.66l0.67 -273.03zm-320.79 330.05c-0.04,-36.5 8.68,-4.92 46.56,-27.68 8.17,-4.9 14.55,-10.53 12.48,-24.85 -1.51,-10.52 -8.83,-14.57 -16.77,-20.58 -30.24,-22.92 -56.99,-41.05 -48.32,-98.36 7.55,-49.82 59.16,-84.6 99.74,-86.42 29.78,-1.34 35.74,-2.85 36.85,11 0.04,0.49 -0.38,8.28 -0.39,8.48l-8.61 43.86c-23.05,2.31 -42.29,-4.68 -51.81,15.84 -16.45,35.42 35.97,52 54.26,70.93 10.5,10.86 18.75,25.86 19.65,44.06 3.51,70.94 -90.31,121.63 -142.74,112.3l-0.9 -48.58zm160.8 -68.87c24.8,-2.91 35.41,-2.31 51.43,-15.18 22.71,-18.24 2.4,-38.16 -10.59,-44.99l-5.8 -2.86c-20.18,-11.53 -40.12,-34.13 -42.85,-61.88 -9.18,-93.11 84.91,-129.88 135.21,-114.12 1.35,16.52 -1.96,44.81 -8.26,56.07 -6.76,7.12 -35.83,-4.54 -49.83,16.95 -30.89,47.43 72.34,51.98 72.95,121.21 0.32,36.92 -28.26,72.08 -50.08,84.14 -13.44,7.43 -31.32,16.64 -45.85,20.75 -9.35,2.64 -18.72,4.06 -30.46,4.03 -17.01,-0.05 -16.39,-1.21 -16.4,-17.41l0.53 -46.71zm334.77 -133.32c8.61,-16.76 21.07,-105.16 24.67,-131.09 8.19,-59.17 -0.46,-80.23 71.2,-84.03 0.32,19.78 -25.12,179.99 -31.49,201.97 -10.19,35.15 -5.86,85.84 -23.4,92.67 -15.28,5.94 -28.44,7.2 -44,14.18 -13.82,6.2 -28.47,12.02 -42.6,10.17l-18.85 -97.75c-2.09,-9.11 -5.67,-16.21 -8.02,-29.25 -2,-11.09 -2.88,-23.19 -5.27,-34.71 -2.6,-12.58 -4.66,-11.63 -7.33,-30.78 -3.02,-21.61 -12.97,-41.65 -10.89,-66.6 7.92,-5.53 22.16,-8.84 32.51,-12.93l27.86 -8.29c7.15,-0.15 3.82,-0.5 7.67,2.51 5.63,6.58 17.3,113.33 19.74,132.61 1.6,12.58 0.87,32.32 8.2,41.32zm261.71 -306.49c13.54,-1 67.29,48.32 75.86,59.84 -2.54,6.25 -64.75,62.19 -75.7,62.13l-1.41 -23.59c-27.42,-0.84 -34.13,7.87 -54.45,14.66 -11.98,4 -18.07,2.34 -20.57,16.11 -1.26,6.95 -0.29,25.64 -0.15,33.61 33.16,1.89 48.44,-17 75.68,-17.1l-1.26 55.48c-8.82,5.93 -25.33,9.13 -37.04,12.53 -6.2,1.8 -10.91,3.77 -18.29,6.29 -18.4,6.3 -21.87,3.29 -18.69,53.39 29.17,1.28 44.39,-16.13 75.09,-14.72 1.68,61.79 1.38,52.31 -19.34,59.85l-89.72 29.45c-11.28,3.98 -26.93,9.08 -39.6,9.81l0.36 -267.27c2.81,-15.31 5.54,-9.7 21.06,-14.49l126.95 -43.82 1.22 -32.16zm22.4 170.66c-0.09,-22.52 -3.54,-29.9 9.86,-41.09l80.53 -66.96c-2.24,-11.81 -23.19,-23.87 -31.15,-30.4 -11.64,-9.55 -20.92,-18.85 -33.9,-29.74 -20.6,-17.27 -57.43,-56.02 -72.45,-51.48l-1.26 62.06c-21.76,10.47 -42.9,16.83 -66.86,24.52l-65.45 22.56c-25.94,8.29 -44.81,12.68 -70.32,21.97 -15.9,5.8 -15.96,7.65 -20.05,23.86 -3.48,13.77 -1.5,26.65 -7.52,36.68 -8.45,-3.2 -1.57,3.39 -7.17,-6 -3.58,-6.01 -3.4,-24.7 -5.7,-36.19 -23.33,-0.92 -39.66,8.3 -56.97,14.44l-125.33 41.03c-11.49,4.69 -4.54,-0.21 -8.97,6.38 -4.62,6.88 -2.03,16.33 -5.06,9.71 -0.22,-0.46 -0.8,1.52 -1.36,2.16 -55.48,-1.81 -93.18,6.21 -129.79,43.99l-14.28 12.57c-10.36,2.57 -68.28,-16.23 -120.14,19.28 -42.93,29.38 7.38,-1.79 -65,20.67l-105.62 33.67c-47.08,15.99 -94.28,32.48 -139.06,46.88 -24.65,7.93 -46.91,14.77 -68.58,22.66 -21.58,7.86 -51.45,14.55 -66,24.46l-0.88 46.77c-15.82,-1.61 -17.03,-18.81 -46.83,-20.99 -47.36,-3.46 -114.74,24.92 -159.98,41.08 -36.78,13.14 -148.61,45.96 -174.98,57.67 -17.68,7.86 -6.68,6.7 -17.08,16.55 -3.9,1.63 -85.26,-12.24 -135.1,55.4 -15.45,20.96 -23.53,40.69 -23.36,74.57 0.26,52.26 19.69,51.98 23.1,72.73 -118.73,109.08 -122.9,77.55 -74.19,120.03 11.4,9.94 20.78,18.17 33,27.75 11.07,8.68 21.21,17.01 33.92,27.52 18.04,14.91 20.08,24.77 38.49,24.8 0.25,-61.07 -3.97,-44.47 28.87,-54.27 29.08,-8.68 54.65,-18.41 76.21,-40.42 4.33,-4.41 10.18,-11.21 14.02,-16.12l12.75 -16.9c16.23,1.49 21.27,13.53 47.09,15.09 78.97,4.76 117.09,-55.37 119.14,-56.48 5.35,5.03 1.89,1.41 6.38,11.71l1.93 4.39c13.92,0.57 41.36,-10.67 57.14,-16.04 55.42,-18.84 76.24,-18.38 124.7,-52.52 17.06,-12.02 11.05,-1.58 20.41,4.26l399.43 -132.68c20.71,-9.28 4.72,-9.27 35.54,-10.51 23.84,-0.96 57.3,-14.47 74.51,-23.66 9.5,-5.07 17.45,-11.47 27.4,-19.81 27.2,-22.78 47.93,7.76 115.98,-25.19 34.61,-16.76 35.54,-23.91 53.63,-36.37 6.32,12.62 -2.73,4.66 8.31,11.63l238.45 -78.84c21.19,-5.87 38.24,-13.88 59.57,-20.57l120.85 -38.23c20.07,-6.17 35.85,-12.59 56.11,-19.34 6.2,-16.75 3.19,-130.52 3.07,-160.7z"/>
 </g>
</svg>
