<!-- Generated by IcoMoon.io -->
<svg version="1.1" xmlns="http://www.w3.org/2000/svg" width="32" height="32" viewBox="0 0 32 32">
<title>margarita</title>
<path d="M25.179 11.025c0.581 0.494 1.083 1.354 1.328 2.388l-2.664-0.143 1.336-2.245zM10.466 12.045l-0.449-1.302 12.727 0.059-1.007 1.294-11.271-0.052zM6.010 12.082c-0.409-0.85-0.517-0.585-0.954-1.333l1.071-0.011 1.778-0.001c1.264 0 1.063 0.084 1.39 1.358l-3.285-0.014zM27.826 12.601c-0.922-0.442-1.335-1.405-1.609-2.296l2.559-0.010c-0.082 1.113-0.566 1.684-0.95 2.307zM27.386 6.961c0.938 0.507 1.177 0.939 1.456 2.304l-2.736-0.049 1.28-2.255zM21.563 9.28c0.298-1.35 0.497-1.657 1.415-2.301l1.254 2.303-2.669-0.002zM25.179 8.541c-0.448-0.57-1.136-1.433-1.215-2.367l2.457 0.078-0.802 1.883c-0.239 0.311-0.206 0.214-0.44 0.405zM12.691 20.497c0.585 0.539 0.421-0.811 0.529 0.923l-0.009 2.596c0.294 0.825 2.674 1.389 0.603 3.575l-0.883 1.4c-0.033 0.053-0.093 0.138-0.148 0.2l-2.131 0.267c-0.525 0.352-2.189 0.625-2.085 1.948l1.624 0.032h9.021c0.254-2.006-2.789-1.952-4.328-2.485-0.023-1.837 0-3.667-0.009-5.503-0.014-2.977-0.186-2.501 1.408-4.068 1.862-1.83 3.688-3.884 5.593-5.541 2.492 0.983 4.237 1.931 6.726-0.175 3.797-3.212 0.822-10.272-4.762-8.829-2.903 0.75-3.415 3.48-3.693 3.938-0.341 0.561 0.080 0.242-0.557 0.542l-9.907-0.001c-1.424-0.879-1.118-3.574-3.008-4.451-1.034-0.48-2.007-0.206-3.087 0.046-0.783 0.183-2.18 0.237-2.42 0.968 0.375 0.826-0.201 0.446 0.788 0.443 0.677-0.002 2.636-0.887 3.865-0.639 1.39 0.281 1.924 2.127 2.335 3.627l-6.549 0.013c0.421 0.862 10.407 10.887 11.082 11.172zM12.803 23.132l0.012 1.92-0.032 4.138c0.055-0.062 0.115-0.147 0.148-0.2l0.883-1.4c2.071-2.186-0.309-2.749-0.603-3.575l0.009-2.596c-0.108-1.734 0.057-0.383-0.529-0.923l0.112 2.635z"></path>
</svg>
