<?xml version="1.0" encoding="UTF-8"?>
<!DOCTYPE svg PUBLIC "-//W3C//DTD SVG 1.1//EN" "http://www.w3.org/Graphics/SVG/1.1/DTD/svg11.dtd">
<!-- Creator: CorelDRAW 2017 -->
<svg xmlns="http://www.w3.org/2000/svg" xml:space="preserve" width="30.4798mm" height="22.9446mm" version="1.1" style="shape-rendering:geometricPrecision; text-rendering:geometricPrecision; image-rendering:optimizeQuality; fill-rule:evenodd; clip-rule:evenodd"
viewBox="0 0 3047.98 2294.46"
 xmlns:xlink="http://www.w3.org/1999/xlink">
 <defs>
  <style type="text/css">
   <![CDATA[
    .fil1 {fill:#848688}
    .fil0 {fill:#373435}
   ]]>
  </style>
 </defs>
 <g id="Capa_x0020_1">
  <metadata id="CorelCorpID_0Corel-Layer"/>
  <path class="fil0" d="M1172.27 1506.42c6.02,-0.86 14.24,-1.6 20.06,-2.89 1.42,-0.32 5.31,-1.21 6.6,-1.65 8.76,-2.98 7.5,-3.5 9.81,-4.81l-15.97 1.58c4.79,-11.01 -0.12,-2.74 7.12,-12.28 5.55,-7.32 3.9,-2.85 9.71,-12.9l-20.26 1.3c7.86,14.19 -11.59,3.57 5.79,10.87 -4.72,3.69 -6.22,5.07 -11,9.27 -0.91,0.81 -3.68,3.09 -4.59,3.95 -4.46,4.21 -3.67,3.46 -7.27,7.56z"/>
  <path class="fil0" d="M1208.74 1497.07c-2.31,1.31 -1.05,1.83 -9.81,4.81 -1.29,0.44 -5.18,1.33 -6.6,1.65 -5.82,1.29 -14.04,2.03 -20.06,2.89 -65.21,15.68 -136.78,26.22 -203.1,41.52 -71.8,16.56 -561.25,120.18 -565.09,183.91 37.93,38.6 276.46,28.51 344.64,28.51 125.79,-0.01 249.73,-1.84 375.18,-3.63 106.03,-1.52 661.66,-18.55 746.27,-13.02 -2.86,109.25 -31.18,200.82 95.33,296.84 38.51,29.22 81.65,51.62 131.86,70.3 35.45,13.19 133.77,45.65 166.86,12.67 0.62,-29.57 -45.54,-62.82 -64.22,-78.37 -78.27,-65.15 -231.21,-134.64 -121.99,-245.59 63,-64.01 237.33,-112.96 196.59,-232.87 -46.75,-137.59 -425.74,-170.63 -571.22,-157.47 -101.44,9.17 -260.11,44.91 -370.21,65.32 -28.24,5.24 -102.18,23.11 -124.43,22.53z"/>
  <path class="fil0" d="M1296.69 1055.74l-52.83 136.48c-3.22,6.08 -2.6,5.04 -5.91,8.8 0.73,15.49 -25.71,99 -31.44,126.91 -10.29,50.25 -8.96,100.41 -17.17,146.84l20.26 -1.3c136.72,-29.35 180.94,-55.47 343.41,-71.71 -2.42,-41.25 -18.33,-69.72 -2.08,-112.92 9.89,-26.29 24.36,-68.19 37.59,-91.76 3.52,-10.33 2.29,-7.69 8.06,-18.99 2.11,-4.13 1.93,-4.51 4.4,-8.27 3.74,-5.67 3.17,-4.01 6.9,-7.57 0.82,-9.58 3.72,-17.35 11.13,-24.1 4.57,-16.05 2.86,-11.87 12.02,-24.65 2.07,-2.88 5.64,-7.6 7.32,-9.42 4.67,-5.09 1.79,-2.56 7.43,-6.48 3.1,-14.31 -2.3,-5.92 9.95,-14.02 9.35,9.68 7.65,5.73 9.99,18.76 12.01,7.84 14.68,12.96 19.51,24.84 2.58,2.91 6.11,6.67 8.3,10.23 7.19,11.68 3.64,4.09 5.6,13.32 10.9,6.69 6.12,2.69 13.78,12.77 3.92,5.18 5.87,8.14 11.09,15.07 27.95,43.9 201.68,242.13 270.08,231.53 12.54,-42.8 -46.85,-139.21 -63.21,-180l-10.12 -21.82 -63.91 -125.04 -8.66 -20.42c-44.49,-80.91 -29.87,-206.44 -37.51,-303.91 -8.91,-113.54 -184.22,-204.17 -387.8,80.43 -40.67,56.86 -66.43,100.67 -98.06,161.72 -7.11,13.71 -20.63,45.91 -28.12,54.68z"/>
  <path class="fil0" d="M1970.72 354.27c-105.28,23.45 -192.62,121.18 -165.81,251.35 20.5,99.6 120.82,193.84 251.31,165.66 102.05,-22.04 193.12,-121.68 166,-253.67 -20.55,-100.02 -124.84,-191.54 -251.5,-163.34z"/>
  <path class="fil0" d="M2496.99 1367.81c-102.59,21.97 -191.75,121.68 -164.94,252.06 20.78,100.99 122.32,190.74 251.02,164.88 101.37,-20.37 192.27,-120.82 166.45,-251.33 -20.25,-102.41 -123.37,-193.28 -252.53,-165.61z"/>
  <path class="fil0" d="M1451.23 376.8c-8.6,96.13 45.31,291.57 196.63,234.09 56.22,-21.35 69.97,-72.91 80.6,-141.22 13.9,-89.39 18.48,-116.71 112.8,-96.55 16.13,-10.49 33.56,-26.03 46.98,-38.89 -18.83,-186.98 -246.61,-241.84 -296.93,-89.3 -26.72,81 38.91,190.73 -9.01,246.72 -55.52,64.89 -116.38,-70.9 -131.07,-114.85z"/>
  <path class="fil1" d="M2034.52 2094.14c-46.62,-27.08 -103.77,-35.76 -154.69,-95.78 -48.2,-56.82 -49.3,-112.98 -44.16,-198.98 -47.45,-4.79 -916.81,-1.43 -979.73,-0.94l-614.32 -0.01c-37.86,0 -85.55,-7.08 -106.17,17 -42.94,50.15 42.01,132.31 64.68,155.79 155.08,160.73 372.85,124.87 602.19,124.25l985.34 -0.02c77.5,0 171.34,4.77 246.86,-1.31z"/>
  <path class="fil1" d="M2112.22 1806.25c-18.98,32.65 -43.76,49.71 -16.49,99.9 30.16,55.52 124.97,96.75 178.79,175.83 15.03,22.1 26.67,14.31 57.34,14.7 190.37,2.44 354.59,11.24 479.63,-91.33 26.38,-21.64 124.37,-112.19 111.88,-168.46 -9.72,-43.72 -53.98,-38.47 -100.89,-38.46 -48.16,0.01 -96.15,0.49 -144.3,0.92 -188.22,1.69 -377.43,3.63 -565.96,6.9z"/>
 </g>
</svg>
