<?xml version="1.0" encoding="UTF-8"?>
<!DOCTYPE svg PUBLIC "-//W3C//DTD SVG 1.1//EN" "http://www.w3.org/Graphics/SVG/1.1/DTD/svg11.dtd">
<!-- Creator: CorelDRAW 2017 -->
<svg xmlns="http://www.w3.org/2000/svg" xml:space="preserve" width="30.4798mm" height="22.9446mm" version="1.1" style="shape-rendering:geometricPrecision; text-rendering:geometricPrecision; image-rendering:optimizeQuality; fill-rule:evenodd; clip-rule:evenodd"
viewBox="0 0 3047.98 2294.46"
 xmlns:xlink="http://www.w3.org/1999/xlink">
 <defs>
  <style type="text/css">
   <![CDATA[
    .fil0 {fill:black}
    .fil1 {fill:#EDEDED}
   ]]>
  </style>
 </defs>
 <g id="Capa_x0020_1">
  <metadata id="CorelCorpID_0Corel-Layer"/>
  <g id="_2093462223280">
   <g>
    <path class="fil0" d="M2848.89 2159.03c6.37,-7.86 14.22,-16.24 22.28,-22.42 31.68,-31.31 31.06,-96.78 11.71,-130.47 -26.24,-45.71 -59.35,-60.62 -113.14,-60.75 -45.6,-0.11 -95.85,21.42 -141.12,29.09l-141.32 32.51c-3.31,-12.38 -6.2,-9.95 -13.32,-22.9 -6.07,-11.05 -7.11,-15.07 -14.17,-25.64l-87.71 -147.63c-5.45,-8.37 -7.92,-13.75 -13.05,-23.15l-14.98 -24.86c-6.27,-9.76 -8.58,-15.07 -15,-24.83l-85.43 -146.28c-16.12,-22.34 -24.89,-50.06 -48.71,-70.76 -14.1,-12.27 -30.35,-20.28 -55.16,-20.91 -63.65,-1.62 -148.3,14.98 -221.05,14.62 -58.35,-0.28 -149.02,14.82 -217.29,14.49 -73.18,-0.36 -140.32,14.96 -220.9,14.48 -49.91,-0.29 -97.97,8.48 -144.92,10.8 -47.9,2.37 -100.06,3.83 -148.21,7.52 -47.56,3.64 -93.27,10.89 -145.08,10.63 -50.3,-0.24 -98.28,8.5 -144.92,10.81 -47.87,2.36 -100.22,5.05 -148.38,7.33 -47.65,2.27 -91.69,11.02 -144.89,10.84l-216.28 15.48c-55.71,7.36 -138.19,-20.83 -127.57,107.41 3.54,42.7 -2.09,108.11 19.28,136.4 31.34,41.48 54.83,33.92 121.78,33.92l1712.94 0c29,54.77 88.76,148.8 111.07,193.07l56.5 95.57c5.1,7.92 7.85,15.16 12.81,23.39 5.46,9.04 9.07,16.2 14.44,25.39 5.52,9.43 8,15.93 17.16,22.66 12.83,9.4 27.12,14.41 42.38,16.41l35.38 0c46.42,-4.92 97.52,-25.9 141.78,-32.02 40.55,-5.61 195.57,-44.6 248.96,-55.22 17.21,-3.42 44.46,-9.6 54.13,-24.98z"/>
    <path class="fil0" d="M1491.39 1395.2c0,-30.44 42.2,-205.09 47.32,-253.16 3.41,-31.95 14.25,-47.07 14.25,-87.12 15.36,10.28 50.61,79.85 60.9,98.41 5.49,9.92 4.29,6.77 9.91,15.43 32.6,50.14 53.23,117.46 101.8,144.41 26,14.42 90.99,24.38 127.59,31.73 14.92,2.99 31.01,3.72 46.78,7.54 15.7,3.79 164.88,31.9 185.38,31.9 52.39,0 89.9,-26.99 112.44,-72.22 27.3,-54.78 6.26,-132.67 -62.8,-165.64l-155.64 -32.68c-104.29,-15.65 -64.88,0.18 -137.16,-98.18l-48.12 -67.74c-4.55,-6.07 -6.09,-8.87 -10.38,-14.97 -8.15,-11.55 -10.45,-16.46 -19.54,-27.52l-117.03 -165.38c-18.14,-25.08 -15.43,-28.13 -40.2,-53.93l-3.62 -3.64c-0.52,-0.52 -1.31,-1.25 -1.84,-1.77l-10.82 -10.91c-2.65,-2.61 -4.61,-4.29 -7.51,-6.97 -14.65,-13.52 -38.57,-27.07 -57.83,-36.31 -35.61,-17.09 -73.68,-25.52 -114.05,-26.12 -10.54,-0.15 -6.05,2.19 -20.61,1.47 -11.29,-0.55 -7,-3.03 -22.35,-3.03 -59.15,0 -110.95,18.36 -149.39,57.01 -8.45,8.52 -18.01,16.68 -25.1,25.59 -4.44,5.57 -6.8,10.36 -9.62,15.73 -29.79,56.76 -18.96,36.88 -33.84,96.48l-25.66 126.4c-2.02,12.06 -7.72,26.58 -10.9,43.4l-25.85 129.83c-8.41,28.59 -9.68,50.62 -18.8,86.17 -13.89,54.04 -28.32,154.37 -44.45,213.03 -11.24,40.91 14.87,20.37 68.42,20.9 22.35,0.22 27.95,-3.24 46.93,-3.77 20.28,-0.55 32.46,-0.36 48.18,-2.51 30.82,-4.23 71.77,0.76 104.05,-0.97 67.67,-3.67 125.95,-10.89 199.16,-10.89z"/>
    <path class="fil0" d="M97.13 2177.19c0.08,11.05 23.09,32.52 32.59,32.52l1930.25 0c59.56,0 12.83,-148.58 -4.66,-165.48 -8.42,-8.13 -26.81,-15.53 -42.42,-15.53l-1868.68 0c-23.79,0 -47,12.66 -47.08,36.09l0 112.4z"/>
    <path class="fil0" d="M2418.49 1532.76c0,72.26 7.86,115.26 47.68,176.79 23.93,36.99 82.2,80.64 125.14,95.73 128.84,45.32 271.1,-7.62 329.38,-121.65 3.58,-7 7.34,-12.64 10.05,-18.92 3.27,-7.55 6.48,-17.89 8.7,-23.88 7.06,-18.96 10.16,-34.48 11.4,-50.17l0 -72.38c0,-28.22 -21.56,-82.05 -37.22,-103.97 -16.12,-22.61 -13.73,-24.87 -37.88,-49 -35.25,-35.23 -106.55,-75.08 -153.04,-75.08 -66.12,0 -100.5,-5.41 -161.28,27.03 -75.9,40.5 -142.93,132.92 -142.93,215.5z"/>
    <path class="fil0" d="M1332.05 262.14c0,70.91 -4.48,81.91 28.22,149.17 21.51,44.24 40.05,56.37 68.68,83.39 36.87,34.82 102.23,60.66 152.98,60.66 48.58,0 82.98,-1.21 128,-24.09 39.35,-19.99 40.66,-19.99 73.12,-50l29.65 -31.9c22.56,-26.53 51.71,-97 51.71,-132.93 0,-61.36 0.65,-104 -33.83,-161.67l-12.01 -16.95c-10.07,-14.65 -15.18,-21.92 -27.46,-34.09 -47.04,-46.62 -61.47,-49.97 -108.85,-68.58 -14.91,-5.84 -33.85,-9.87 -54.07,-11.93l-63.46 0c-17.92,1.89 -34.58,5.48 -47.99,10.86l-41.13 16.79c-34.5,17.17 -11.38,5.94 -35.63,22.32 -27.62,18.67 -40.57,33.65 -59.86,59.62 -25.18,33.88 -48.07,87.95 -48.07,129.33z"/>
   </g>
   <path class="fil1" d="M2848.89 2159.03c12.77,-3.17 19.16,-9.59 22.28,-22.42 -8.06,6.18 -15.91,14.56 -22.28,22.42z"/>
  </g>
 </g>
</svg>
