<?xml version="1.0" encoding="UTF-8"?>
<!DOCTYPE svg PUBLIC "-//W3C//DTD SVG 1.1//EN" "http://www.w3.org/Graphics/SVG/1.1/DTD/svg11.dtd">
<!-- Creator: CorelDRAW 2017 -->
<svg xmlns="http://www.w3.org/2000/svg" xml:space="preserve" width="30.4798mm" height="22.9446mm" version="1.1" style="shape-rendering:geometricPrecision; text-rendering:geometricPrecision; image-rendering:optimizeQuality; fill-rule:evenodd; clip-rule:evenodd"
viewBox="0 0 3047.98 2294.46"
 xmlns:xlink="http://www.w3.org/1999/xlink">
 <defs>
  <style type="text/css">
   <![CDATA[
    .fil0 {fill:#373435}
   ]]>
  </style>
 </defs>
 <g id="Capa_x0020_1">
  <metadata id="CorelCorpID_0Corel-Layer"/>
  <g>
   <path class="fil0" d="M681.76 1995.88c2.99,15.79 -2.11,19.27 -17.54,17.39l-2.01 -6.53c3.72,-7.04 8.14,-11.65 19.55,-10.86zm481.45 11.1l5.77 4.08c6.3,-3.78 2.87,-0.85 7.38,-5.8l12.31 -1.38c0.36,0.54 0.61,1.4 0.8,1.78l5.77 9.36c20.82,-0.87 26.17,8.88 33.91,-4.89 0.19,-0.34 0.59,-0.85 0.72,-1.72 0.13,-0.87 0.37,-1.21 0.66,-1.75 12.68,1.98 1.42,1.22 10.93,4.12 27.44,8.36 17.81,9.41 27.44,12.07 3.22,-4.44 3.76,-6.38 2.99,-14.22 6.51,3.11 3.84,2.62 7.14,4.15 3.69,1.71 -5.33,0.09 7.21,2.51 3.15,-8.33 2.46,-9.45 13.24,-8.78l-2.64 12.73c7.46,-1.86 4.51,-1.82 7.82,-4.64 5.87,-5 2.59,-2.73 5.17,-5.62l9.69 1.68c5.29,1.34 8.25,0.75 15.76,-0.06 -4.84,-13.42 -8.53,-6.34 -7.76,-20.59l9.02 0.73c10.22,2.79 10.24,14.16 12.18,17.09 10.77,-5.96 0.34,-1.98 9.77,-6.06 2.55,8.38 -4.81,3.2 7.37,7.05 9.63,3.04 19.37,-4.59 29.65,-2.84l2.45 9.04c12.88,-4.16 4.27,-7.58 19.76,-8.46 26.37,2.85 22.2,-10.77 34.41,-19.6 8.2,1.52 8.44,6.37 17.37,2.8 14.75,-5.91 3.03,-6.79 14.37,-10.05 -1.98,4.63 -2.42,5.74 -4.1,9.6l-5.16 8.19c-3.91,6.9 -3.25,-2.33 -4.27,11.54 14.36,7.73 11.66,-0.27 22.27,-1.58 23.65,-2.92 8.42,-6.4 20.17,-6.17 5.24,7.62 2.65,7.32 18.14,14.05 0.51,-0.51 1.1,-1.2 1.45,-1.56 4.49,-4.72 8.07,-6.37 10.87,-12.99l9.15 7.11c2.2,-9.87 8.74,-6.21 20.39,-5.74l3.02 -7.19c2.6,-6.22 -0.73,-0.8 1.91,-4.43 13.55,0.34 7.79,9.31 20.19,2.39 10.07,-5.61 2.45,-5.98 10.86,-16.21 5.23,-0.23 12.82,2.22 26.75,-0.08l5.32 -1.38c0.29,-0.73 1.27,-0.36 1.83,-0.68 -2.66,-2.2 -1.5,-2.27 -7.21,-4.34 -7.53,-2.73 -17.02,-0.41 -25.73,-0.69 -13.76,-0.44 -19.64,-1.78 -34.48,-0.42 -14.41,20.26 -4.31,8.45 -8.34,26.33l-17.6 -0.07c4.51,-12.29 6.77,10.78 7.66,-29.77 -10.78,9.25 -15.08,16.94 -24.6,18.07l-8.67 -1.72 9.05 -8.17c3.37,-3.49 5.09,-5.8 8.3,-9.48l-29.27 -0.89c3.69,7.87 10.33,15.91 -3,20 -3.38,-5.07 -0.81,-2.89 -2.41,-6.42 -2.22,-4.91 0.29,-2.91 -3.99,-7.02l-3.46 -5.05c-7.5,0.21 -15.81,-1.01 -22.04,-0.45 -10.31,0.94 -5.32,3.32 -16.69,2.22 -14.06,-1.35 -41.41,-2.53 -53.89,0.64l-10.71 4.08c-7.32,2.19 -3.59,-3.73 -17.18,-2.83 -7.63,0.51 -9.46,4.19 -12.69,6.78l-7.15 -0.61c0.75,-0.33 5.43,9.82 1.17,-3.83l-1.62 -2.94c-9.14,-8.68 -21.16,-0.06 -31.55,-3.25 -6.19,-1.9 -9.73,-4.45 -19.78,-1.7 -6.36,1.73 -3.59,0.86 -7.3,3.57 -11.17,-2.91 -29.91,-3.39 -43.69,-1.24 -19.02,2.96 -14.88,4.23 -18,6.93 -9.6,8.35 -4.07,5.14 -19.57,4.35 -1.59,-3.31 -0.95,-2.83 -1.85,-4.76 -1.62,-3.5 -1.24,-2.88 -3.08,-5.4 -15.45,-0.44 -33.08,1.02 -49.25,0.51 -19.91,-0.6 -30.37,-2.95 -36.35,13.18 -2.7,-1.55 -8.87,-4.6 -10.41,-6.79 -6.05,-8.59 4.61,1.69 -2.46,-7.88 -24.54,7.66 -103.17,0.33 -134.54,5.04l-46.72 3.11c-6.19,-0.48 -7.41,-2.36 -15.76,-1.59 -5.26,0.48 -5.31,1.28 -8.13,2.05l-10.29 -0.37c-16.81,-4.2 -21.65,1.18 -38.09,1.1l-131.24 2.34c-29.95,3.75 -222.85,-3.31 -262.49,-5.85 -59.14,-3.78 -143.07,-5.51 -195.96,-9.95 -52.2,-4.39 -82.61,-5.07 -134.38,-5.03 -13.28,0.01 -47.3,-6.13 -57.99,-0.86 -4.87,2.41 -2.16,0.62 -4.86,4.3l-21.36 9.55c-0.61,0.41 -2.36,1.53 -2.85,2.02 -4.42,4.38 -3.32,0.31 -3.5,7.93 5.99,2.67 37.14,6.14 42.67,2.67 9.56,9.01 25.32,5.67 36.94,5.06l65.14 6.01c13.48,-0.01 18.32,-4.44 33.15,-1.44 21.15,4.27 51.26,2.11 68.94,7.09 18.54,5.23 44.5,3.72 61.88,0.17 13.28,-2.71 41.24,8.62 62.98,9.61 11.18,0.51 25.29,0.52 36.57,0.35 34.55,-0.53 25.09,2.75 31.99,2.67 13.27,-0.15 -7.74,-6.43 12.97,-1.36 12.48,3.06 52,10.63 64.66,4.7 0.16,-0.07 11.94,-17.2 33.19,4.32 11.14,-3.06 0.66,-4 15.26,-0.92 29.54,6.23 22.64,-3.02 40.54,0.81 14.85,3.19 34.58,5.43 51.5,1.44 18.04,-4.24 2.95,3.59 22.35,3.27l18.85 0.95c3.59,-9.54 7.52,-15.97 23.86,-16.71 9.61,10.26 9.1,14.79 9.23,14.39 0.11,-0.36 0.36,1.24 0.62,1.84 16.3,-2.31 14.74,-0.25 19.18,-5.95 0.86,-1.11 2.78,-4.72 3.66,-5.88 11.27,6.35 13.45,-2.36 24.04,9.07l2.36 3.33c10.37,-6.97 7.27,-4.65 22.13,-5.72 13.75,-0.99 33.36,-23.26 44.51,-4.05l2.3 7.06c13.96,0.07 9.65,-3.65 23.13,-5.25 1.95,-15.83 3.21,-18 13.81,-24.47 9.79,8.2 10.36,7.27 6.89,18.89 -3.56,11.95 -2.31,13.05 9.6,9.86 27.48,-7.39 8.6,12.37 43.88,-1.11 -5.45,-8.69 -3.53,6.55 -7.37,-12.53 -0.09,-0.42 -0.27,-1.18 -0.35,-1.59 -1.82,-8.82 -3.44,-0.31 -0.95,-7.84 12.12,5.95 -8.75,5.95 12.31,10.24 0.49,-0.69 0.74,-1.66 0.99,-2.31 0.24,-0.64 0.63,-1.52 0.91,-2.29 6.53,-18.18 0.66,-7.97 13.78,-15.6 0.47,-0.27 1.02,-0.74 1.48,-1.02 1.56,-0.94 -1.92,-3.99 15.69,-3.85l2.35 10.21c15.99,0.08 12.91,1.54 14.24,4.55 -2.85,1.59 -6.11,3.08 -7.58,3.88 -11.34,-5.42 -3,-6.58 -22.16,-10.04l-8.51 17.16c-3.47,24.06 -3.69,0.8 -2.79,15.85 10.31,1.42 5.16,-1 14.95,-1.8 9.01,-0.74 39.18,12.05 27.86,-13.61 -6.76,4.07 -9.08,6.92 -17.65,5.45 3.39,-5.36 0.56,-2.73 5.6,-5.8l22.4 -7.4c3.94,4.12 3.08,2.94 7.25,5.65 8.84,4 2.72,0.47 13.12,-1.69 6.34,-1.3 13.2,-1.15 20.51,-2.41 -2.83,13.92 -3.97,5.89 -8.27,15.67 15.6,10.97 17.12,-2.4 26.48,-9.4 10.78,4.5 0.23,2.51 9.85,6.61 10.69,-12.26 -5.98,-12.54 9.98,-13.68 9.98,-0.72 10.35,4.37 23.65,4.56zm565.73 -21.46l-3.1 2.28c3.01,8.21 3.97,7.72 8.07,12.37 -8.62,6.33 -6.16,8.95 -8.67,21.22 7.4,-2.46 4.22,-4.34 12.51,-7.54 10.62,9.92 -5.75,14.91 17.17,7.18 3.42,-12.82 1.35,-5.26 0.05,-12.22 8.94,-3.33 4.44,-2.07 17.27,-0.52 4.22,4.05 4.4,7.07 9.86,3.61 -7.06,6.17 -8.7,0.47 -13.67,9.45 4.79,12.07 4.32,3.88 18.27,6.69 -1.86,-14.66 1.5,2.44 2.76,-14.89l9.84 -2.35 4.98 -2.61c2.1,14.82 2.41,2.89 4.89,13.6 5.44,0.62 8.98,0.7 11.34,0.3l31.08 0.81c8.22,-1.49 8.24,2.56 12.58,-4.7 5.09,2.17 2.77,1.42 7.35,2.98 16.69,-2.89 2.32,4.28 18.03,2.2l3.31 -0.97c5.75,-1.36 -3.49,-2.94 6.93,-1.36 7.96,2.42 4.45,3.08 9.62,2.13 6.16,-1.13 1.2,-0.17 5.1,-2.16 13.66,-6.97 7.62,-0.97 18.61,2.12 0.72,0.19 1.33,0.32 2.08,0.48 13.45,2.94 5.4,-2.16 17.46,4.75 3.79,3.28 -4.06,3.17 9.06,3.78 7.74,0.36 1.36,0.79 5.92,-1.66 4.43,-2.37 6.42,-6.38 8.93,-11.19 5.12,-8.87 17.6,-12.39 29.25,-13.23 -1.06,-0.57 -3.71,-2.03 -6.18,-3.26l-3.13 -1.63c-9.5,-3.41 -2.15,-1.54 -12.54,2.83 -5.47,-3.05 -1.96,-1.32 -6.25,-3.98 -7.22,-4.47 -12.36,-5.82 -5.77,-13.67 -17.13,0.63 -21.49,-6.8 -40.68,-2.8 -4.94,8.89 3.57,16.59 -11.33,14.9 -1.73,-17.58 0.16,-23.88 -20.19,-20.73 -15.47,1.86 -10.96,0.74 -19.19,8.39 -9.68,-12.42 -7.51,-6.14 -22.05,-6.91 -6.17,-0.34 -9.96,-1.95 -14.99,-1.57 -18.35,1.35 -4.72,-1.06 -10.42,4.33 6.67,9.76 7.24,0.98 17.37,7.38 -6.85,4.8 -12.21,3.16 -21.62,2.24l-14.77 -19.32c-34.72,2.85 -55.93,-7.42 -115.56,-0.79l-7.89 1.04c-11.86,0.19 -17.19,-6.21 -28.3,2.01 -0.17,8.24 1.5,3.47 -5.24,7.71 -9.36,5.89 -18.68,9.01 -29.35,5.16 -1.71,21.83 -9.4,13.8 -39.72,14.88 0.54,0.66 1.18,1.44 1.65,1.99l14.1 12.89c8.84,-2.8 6.96,-13.08 22.11,-8 10.49,3.5 3.97,5.1 20.84,7.4 3.72,-7.66 7.52,-9.82 8.99,-16.69 -8.65,-6.6 2.24,-1.16 -11.19,-2.7l-3.5 -0.44c2.98,-1.91 7.93,-5.15 11.87,-6.01 14.63,-3.23 -0.25,0.43 11.84,1.13 10.69,0.62 -2.86,-2.47 10.78,-1.47 5.11,0.37 4.08,1.71 11.64,3.44 -4.21,10.09 -3.31,1.98 -5.91,13.4l7.57 0.13c0.73,0.11 5.5,0.92 5.72,0.93 11.85,0.53 1.17,0.35 4.79,-0.79 0.17,-5.14 -11.3,-4.25 -2.6,-17.34 8.35,-12.56 16.07,-6.78 21.86,-6.18l5.31 0.26c4.82,0.51 2.09,-1.28 5.05,1.29zm317.99 -1.69c-9.1,-0.21 -16.88,-0.82 -25.68,1.04 -17.72,3.76 -12.95,6.83 -13,6.94 15.62,8.27 13.57,-0.64 20.17,19.75 -9.11,0.2 -17.74,0.44 -24.01,3.16 -0.34,6.46 -0.45,8.84 5.02,10.73 10.9,3.77 10.27,-1.52 11.65,-2.68 8.15,0.9 6.65,-0.66 7.79,-0.85l6.15 -1.08c35.45,-1.82 26.02,-8.56 42.52,-9.66l1.71 6.06c0.63,2.61 -0.35,1.42 0.75,3.72l30.48 2.02c3.57,1.2 0.39,2.69 8.92,4.91l7.38 -9.42c11.85,7.19 -1.35,3.87 8.04,9.58 6.9,-0.29 2.64,0.43 7.36,-1.2l19.07 10.04 17.24 -9.57c8.46,4.78 1.45,4.81 10.55,7.22 15.19,4 10.48,-1.4 12.01,-2.1 21.82,-9.98 17.58,6.49 17.62,7.82 1.91,-3.94 0.08,-0.06 6.59,-2.44 12.77,2.78 15.55,-1.9 25.26,-4.05 16.98,-3.75 13.73,0.09 23.99,4.7 9.64,-10.18 5.94,-9.61 22.17,-11.62 1.93,5.41 -1.26,1.03 2.68,8.71 12.57,1.09 10.52,-2.22 16.85,5.46 7.02,-8.16 -1.09,-2.62 10.98,-10.9 3.06,-2.1 0.99,0.05 3.96,-2.9 12.61,7.73 -3.34,1.37 19.83,8.68 -2.49,-13.53 -2.71,-0.88 -7.11,-14.08 11.63,-5.56 5.14,2.61 16.83,-3.06l7.38 10.9c23.35,-7.67 4.17,9.28 41.57,-3.49 12.22,-4.17 -0.32,-2.77 11.78,-5.92l4.55 -2.5c0.5,-0.26 3.22,-1.35 3.93,-1.75 3.17,13.31 -4.74,2.35 6.41,11.37 9.25,7.51 -0.73,3.22 6.37,6.21l5.77 3.1c0.24,0.16 0.82,0.65 1.07,0.81 7.39,4.73 5.21,-0.03 9.65,9.8 3.61,-4.44 1.53,-1.8 7.5,-3.21 19.59,-4.64 10.43,-4.04 25.43,-9.43 31.28,-11.27 20.5,0.59 38.48,2.58 3.84,-4.33 4.54,4.02 3.1,-7.73l-10.41 1.47c-5.7,-7.36 -5.82,-5.46 -6.56,-14.54 10.64,-8.09 6.77,-0.1 18.52,7.38l-1.55 5.69c20.68,-8.98 9.48,-11.11 19.18,-4.63 6.99,4.66 -2.52,5.07 5.82,16.17 -0.55,0.44 -1.38,0.84 -1.82,1.09l-11.07 6.05c5.45,2.71 4.74,4.58 11.36,0.11 4.06,-2.76 -1.82,-3.21 10.35,-8.86 8.97,4.41 2.66,0.85 9.59,7.02l5.95 5.17c-0.71,-9.25 -12.59,-4.52 -3.64,-13.38 0.72,-0.7 0.98,-4.21 7.35,0.69l5.38 7.02c5.77,-6.22 8.91,-7 10.86,-12.63 4.25,-12.31 0.52,-8.49 -3.61,-16.74l6.89 -2.63c10.38,5.72 6.59,-0.72 18.02,-0.44 16.26,0.4 8.5,10.07 19.04,2.92 -8.25,-5.88 9.09,6.38 -4.77,-2.45 -7.45,-4.75 -3.27,-4.1 -10.08,-9.86 0.48,-0.3 1.28,-0.48 1.59,-0.57 0.32,-0.08 1.21,-0.42 1.6,-0.52l17.96 5.14c6.27,5.62 3.72,-6.57 5.45,10.85 0.74,7.51 -2.78,0.26 0.59,10.84l12.43 -1.84c0.11,-21.27 -3.74,-33.71 -25.09,-27.76l4.1 -13.37 -11.29 -3.98c-0.2,-0.01 -0.8,0 -1.01,0.02l-19.6 4.37c-9.9,-6.65 -27.18,-7.45 -46.08,-3.95 -2.96,-0.44 -10.56,-0.7 -16.09,-1.25 -4.61,-0.45 -8.61,-1.46 -15.75,-0.97 -11.25,0.79 -23.27,1.87 -34.29,1.19 -11.47,1.12 -9.22,1.24 -19.79,-0.81 -1.28,-0.25 -9.66,-1.25 -10.16,-1.18 -6.79,0.92 -2.26,-1.12 -6.57,3.1 -15.67,-1.52 -6.58,3.64 -23.92,-1.73 -16.52,-5.13 -146.57,-2.56 -168.73,-0.46 -11.08,1.06 -14.09,-1.1 -24,-1.62 -40.36,-2.14 -41.49,2.92 -54.06,3.29 -6.63,0.21 -15.93,-3.29 -24.76,-3.36 -9.9,-0.1 -14.53,2.72 -24.19,2.55l-99.9 1.73zm-1137.31 -1551.08l-1.04 -5.48c6.71,3.99 4.14,2.49 9.31,-0.96 2.88,-16.92 -1.69,-13.46 9.29,-25.64 0.27,-0.31 0.89,-0.94 1.3,-1.44l-2.56 -2.81c-0.34,-0.41 -2.02,-2.23 -2.44,-2.83 -2.17,-3.13 -2,1.95 -4.06,-9.13 4.23,-2.19 6.99,0.15 7.79,0 -1.65,-25.56 3.54,-3.14 6.55,-18.59l13.43 6.66c9.58,-9.76 10.6,-1.47 21.06,-14.12 11.26,-13.58 -3.35,-8.84 8.59,-20.76 -23.82,0.72 -24.6,26.06 -29.52,6.87 -4.11,-16.05 16.84,-7.22 24.36,-16.68l-10.88 -6.12c-16.47,-0.62 -30.2,2.53 -36.3,14.82 -2.44,2.2 -5.66,5.46 -9.57,8.09 -19.21,12.87 -15.33,10.58 -33.03,33.37 -9.57,12.33 -25.22,42.53 -24.55,59.53 -2.59,2.96 -1.63,0.6 -3.69,5.39 -1.54,3.57 -1.1,1.04 -1.83,6.11 -1.19,8.29 -0.79,8.83 2.46,13.65 -7.13,5.36 -6.87,18.11 -6.03,32.29 1.28,21.52 8.35,43.19 12.15,64.86 2.53,14.45 2.75,24.03 19.07,18.76 -1.07,5.59 -4.27,1.75 -6.89,11.26 14.09,13.65 8.35,4.68 24.76,24.46 6.73,8.12 19.56,21.6 28.18,24.55 6.09,7.03 20.77,20.66 29.38,28.6 19.47,17.92 57.47,28.94 82.95,35.12 17.5,4.24 33.33,7.25 54.35,7.72 13.42,-2.9 36.97,-0.81 44.77,-7.91 7.81,0.15 52.1,-13.87 57.54,-16.85 12.52,-6.85 17.26,-8.04 29.49,-17.37 5.05,-3.85 2.51,-1.66 7.63,-4.9 9.97,-6.32 4.78,-6.42 15.99,-20.46 6.89,-8.63 2.45,-6.71 11.65,-13.15 10.69,-7.48 3.63,-0.6 9.79,-14.79 0.24,-0.54 0.53,-1.19 0.78,-1.72l14.91 -29.12c10.83,-20.59 2.61,-12.41 8.54,-25.81 12.19,-27.43 3.9,-22.49 8.09,-54.27 1.96,-14.93 -1.91,-7.2 -1.54,-23.48 3.59,-4.94 -2.23,-32.95 -10.71,-46.37 -0.29,-0.45 -0.69,-1.05 -0.97,-1.51 -15.06,-24.16 -4,-26.55 -18.63,-47.79 -9.98,-14.5 -32.83,-46.44 -45.39,-55.77 -13.11,-9.74 -2.74,-3.13 -12.25,-14.52 -5.65,-6.77 -77.08,-58.4 -96.74,-58.06 -5.64,-12.53 -5.14,-7.89 -29.02,-18.02 -3.87,-1.63 -11.42,-4.91 -15.38,-6.53l-10.57 -4.24c-6.46,-3.06 -2.66,-1.08 -5.8,-3.2l-15.64 0c4.38,6.16 8.26,6.93 17.01,10.3 10.39,4.01 10.46,6.94 17.07,11.97l37.3 21.21c4.36,4.6 11.88,9.94 16.27,13.72l35.7 30.92c6.53,5.81 9.9,14.42 15.56,15.28 -2.49,8.33 -3.69,0.62 -12.22,-2.61 -19.03,-15.9 -9.36,-8.34 -24.49,-14.37 -9.79,-3.9 -9.46,-11.17 -28.59,-12.56 2.75,29.46 21.64,2.26 17.96,32.76 -0.35,-13.31 -7.64,-6.65 -13.09,-7.83l0.2 -7.54c-7.65,-0.47 -11.59,-1.2 -16.2,-4.04 3.91,-6.81 7.07,-2.46 11.1,-13.36 -0.62,-0.54 -1.5,-2.13 -1.85,-1.59 -0.34,0.49 -4.17,-4.63 -10.86,-6.08 -6.5,-1.4 -12.53,0 -18.95,0.61l-3 -2.7c-13.15,-9.57 -12.51,-3.85 -14.42,-3.56 -29.43,4.41 -27.62,-0.43 -53.27,12.45l-9.42 3.32c4.37,8.27 8.77,9.35 18.69,9.77 -1.87,-10.63 -3.24,-4.89 -3.06,-7.35 5.44,-1.4 5.27,-1.71 7.85,4.97 -9.06,12.64 -8.86,2.46 -16.27,11.87 -4.26,-19.65 4.08,-1.21 -15.74,-12.04 -5.03,-2.74 7.93,-4.8 -10.83,-2.81l10.01 22.78 18.73 -1.92 9.65 5.23c0.24,0.22 0.65,0.91 1.1,1.23 20.64,-3.78 0.42,-0.45 17.79,-0.46l5.6 -6.05c5.21,-4.88 -0.45,2.46 6.33,-5.81 3.43,3.19 5.15,6.27 7.77,11.2 9.34,-0.05 3.32,-0.84 13.14,-0.49 6.91,3.04 33.15,4.17 44.39,8.51l37.56 17.13 5.28 6.57c7.6,-3.01 5.51,-2.79 10.43,-7.46 6.86,11.54 -5.22,6.61 17.12,16.53 0.06,0.04 7.01,3.79 7.77,4.31l7.27 5.33c0.6,0.43 2.35,1.68 2.95,2.12 2.72,1.96 2.41,1.98 4.27,3.12 4.13,2.55 14.23,5.94 19.7,7.89 0.54,2.5 4.55,7.34 7.12,14.19 3.95,10.58 4.53,9.56 9.3,18.06 4.11,7.33 3.37,11.58 5.46,19.68 2.13,8.19 4.17,8.33 7.97,10.82l3.5 2.03c0.43,0.26 1.3,0.61 1.86,1.05 -10.92,18.93 -0.16,-3.66 -2.57,29.6 -1.2,16.63 2.48,24.44 -2.06,40.07 -6.74,23.17 -0.19,8.12 -10.99,30.93 -4.97,10.5 -10.62,18.93 -10.82,33.77 -25.33,10.77 -10.81,17.85 -25.86,33.09 -2.74,2.77 -7.14,6.13 -10.56,9.25 -17.54,16.04 -23.61,20.49 -45.64,33.32 -21.87,12.72 -70.39,20.81 -99.1,17.95 -12.08,-1.21 -20.97,-5.83 -32.53,-5.61 -7.81,-8.3 -10.05,-3.16 -23.85,-5.14 -10.19,-1.47 -14.64,-5.46 -21.62,-11.21 -13.09,-10.81 -23.25,-17.4 -33.68,-27.88 -19.21,-20.05 -20.82,-19.59 -28.23,-38.09 -8.52,-21.29 -10.93,-23.34 -7.71,-51.89l-6.54 2.92c-0.5,-7.93 0.31,-7.01 -1.83,-12.31l8.29 -3.82c-0.83,-8.98 -3.31,-14.25 -3.02,-20.3l2.74 -50.96c3.55,-20.39 0.63,-7.47 -5.68,-18.46 7.56,-2.29 3.06,-0.76 7.36,-3.06l0.25 -10.18zm910.89 1589.34c7.47,-1.29 2.83,-7.41 7.92,-16.14 5.95,-10.19 13.91,-1.38 24.24,-5.16 5.92,13.37 6.42,4 2.87,18.16l8.63 -0.75 -43.66 3.89zm-1801.39 8.75l0 17.02 0 3.22c5.59,5.53 2.74,0.63 3.44,18.93 11.38,-0.04 13.75,-5.26 18.12,-14.38 8.92,-6.81 17.57,-17.79 17.66,-31.82 -2.74,-2.02 -6.65,-1.93 -10.27,-6.86 -4.29,-5.85 0.42,-2.93 -4.24,-9.84 -4.74,4.13 -9.02,5.64 -13.78,10.38 -7.01,6.98 -3.52,9.21 -10.93,13.35zm2236.56 -190.46c18.96,5.32 24.01,8.71 45.97,3.75 25.73,-5.82 19.74,-2.04 33.43,-18.89 -3.45,-8.57 -19.86,-6.7 -30.01,-5.6 -6.87,0.74 -4.04,0.6 -8.38,1.7 -16.65,4.2 -31.02,4.97 -41.87,6.74l-3.39 -6.05c-0.24,-0.54 -0.5,-1.33 -0.68,-1.82 -0.24,-0.63 -0.83,-4.62 -0.85,-4.72 -4.85,2.32 -1.77,-3.36 -3.46,3.18 -6.58,-2.59 0.2,0.76 0.24,1.1 1.45,20.36 -1.33,6.63 9,20.61zm-1471.98 -781.21c0.36,6.26 7.11,20.96 10.27,27.29 14.94,29.87 22.13,30.71 34.83,49.03l7.14 7.62c2.83,1.81 10.65,3.87 14.08,4.22 0.41,0.54 1.1,0.64 1.33,1.58 0.97,3.95 24.62,20.45 29.97,22.95 10.43,4.87 6.33,-0.75 19.93,6.92 5.83,3.29 12.02,6.24 18.96,7.89 -1.31,-5.61 -37.12,-56.36 -44.92,-61.83l-22.28 -43.04c-4.07,-8.41 -6.58,-13.14 -11.09,-23.23l-75.62 -160.84c-10.65,-16.15 -30.38,-36.11 -47.64,-43.1l-7.05 -2.94c-10.28,-4.54 -15.17,-5.86 -27.08,-7.97 -19.63,-3.46 -43.4,-3.71 -58.73,5.96 8.28,9.18 2.73,0.01 29.43,13.58 11.97,6.09 23.41,8.01 33.82,13.19 27.7,13.78 39.97,60.53 50.24,85.01 12.71,30.31 23.32,42.85 33.95,81.66 2.1,7.73 3.54,9.85 10.46,16.05zm685.76 524.05c32.34,6.93 77.5,-23.7 99.3,-43.45 28.77,-26.06 32.06,-25.54 72.49,-38.43 7.74,-2.47 17.26,-7.27 25.11,-9.03 17.98,-3.02 49.69,-19.44 62.41,-28.77 14.28,-10.47 27.81,-39.85 33.38,-57.8 -17.02,3.63 -48.7,54.27 -83.48,51.69 -10.09,0.7 -16.1,7.69 -27.45,9.88 -33.39,6.44 -85.01,25.25 -104.48,55.04 -2.75,4.21 -4.06,8.65 -6.8,13.28 -2.54,4.29 -5.32,8.18 -7.95,14.09 -11.08,24.9 -26.96,21.29 -56.52,19.19 -6.44,-4 -16.83,-4.87 -22.21,-6.69 -5.31,-1.8 -11.92,-6.44 -17.72,-9.35 -10.87,-5.47 -46.43,-41.28 -93.1,-69.32l-192.45 -108.07c-43.34,-30.88 -65.07,-47.15 -103.83,-87.94 -27.66,-29.12 -32.49,-25.62 -60.54,-47.95 -10.54,-8.39 -20.61,-19.53 -36.28,-21.26 3.53,9.52 -0.52,0.53 4.75,8.74l72.17 80.45c7.83,11.33 15.89,21.18 25.44,31.05l42.59 38.67c4.7,3.67 11.15,8.11 17,12.51l49.25 34.51c24.87,11.48 28.46,16.28 53.35,30.35 12.96,7.32 26.16,12.35 37.47,19.11 10.54,6.3 24.48,15.32 34.25,20.06l72.53 38.07c17.04,13.57 76.62,54.88 99.4,55.87 13.49,0.59 7.68,1.12 11.92,-4.5zm-608.33 -826.07c-0.11,12.75 12.13,38.12 18.43,47.12 4.92,7.01 9.49,12.89 14.98,19.38 6.25,7.38 7.79,15.34 15.84,17.22l5.65 5.75c10.02,10.63 36.24,24.83 51.53,26.25 71.51,6.61 48.07,-2.55 65.19,-11.61 9.19,-4.87 22.78,-6.59 33.77,-10.73 14.05,-5.28 41.51,-18.49 63.54,-25.42 6.38,-2.01 10.6,-2.44 17.37,-4.55l16.8 -7.8c-17.79,-9.04 -125.81,-5.75 -146.14,-11.63 -38.97,-11.27 -66.79,-18.48 -90.39,-47.32 -6.45,-7.88 -3.42,-6.89 -11.08,-12.27 -1.72,-7.17 1.29,0.92 -2.13,-4.51l-10.74 -13.45c-7.45,-10.23 -22.33,-56.45 -29.56,-64.61 -14.37,-45.46 -40.18,-93.55 -93.64,-96.67 5.94,12.99 7.72,5.36 19.94,15.71 5.3,4.5 11.82,11.65 15.86,18.69 9.85,17.22 13.61,29.65 16.24,52.58 2.73,23.77 11,74.07 20.3,97.84 3.92,10.03 0.25,5.49 8.24,10.03zm360.53 469.34l23.55 36.79c11.78,11.97 83.27,93.32 91.3,98.37 1.48,0.92 9.63,5 9.78,5.11 8.58,6.37 0.02,-1.19 6.27,8.47 9.65,14.91 10.15,-2.24 23.84,22.6l22.99 26.34c15.31,11.67 21.24,16.6 37.72,24.12 13.09,6 35.99,10.52 54.44,8.95 -3.92,-8.42 -47.44,-32.47 -61,-44.52 -19.7,-17.54 -35.2,-37.52 -51.78,-56.41l-13.35 -13.94c-10.11,-10.72 -18.93,-24.24 -37.72,-43.37 -8.78,-8.92 -14.04,-21.14 -22.32,-31.93 -4.22,-5.5 -20.81,-25.72 -24.75,-27.17 -9.54,-28.8 -33,-18.11 -42.89,-38.15 -5.72,-11.59 -18.13,-49.92 -24.64,-55.27 0.47,-6.3 -6.34,-29.59 -9.21,-35.9 -2.01,-28.91 -13.75,-94.54 -11.16,-130.55 2.68,-37.26 11.44,-93.77 -11.44,-120.85l-1.3 10.8c1.6,31.64 -10.71,68.73 -18.45,101.07 -6.66,27.81 -14.89,94.05 -1.5,117.81 4.56,12.89 4.77,25.06 10.85,36.68 5.36,10.28 4.58,3.99 9.66,12.9 5.59,9.76 0,5.95 10.14,12.52 7.86,31.95 40.52,38.56 45,62.48 -14.21,-1.82 -12.77,-6.88 -26.85,-11.03 2.18,10.65 4.47,17.81 12.82,24.08zm585.77 485.9c31.18,23.78 6.23,11.95 31.75,32.94l13.42 11.07c8.91,7.16 14.4,19.01 24.6,19.58 21.59,1.16 17.63,9.68 32.4,9.08 6.57,7.4 -1.66,0.19 6.01,3.87 3.84,1.85 2.13,0.66 6.19,2.13 11.35,4.11 6.84,4.54 17.13,4.18 0.8,-0.02 5.2,-0.42 5.96,-0.36 9.23,0.75 7.94,4.4 26.75,4.48l22.16 2.77c20.53,6.49 65.68,9.57 91.23,10.05 18.84,0.35 47.32,8.01 64.47,7.19 15.9,-0.77 7.08,2.67 19.42,3.9 20.97,2.09 26.02,-0.5 46.64,5.74l40.12 11.37 -448.25 -127.99zm527.65 112.85c12.87,-3.61 5.73,0.77 7.96,-5.73 -8.79,-4.5 -25.42,-6.57 -34.26,-8.08 -12.32,-2.12 -19.59,-7.29 -31.69,-8.96 -7.52,-4.46 -27.48,-5.68 -39.29,-12.5 6.93,-4.74 7.21,-4.5 10.86,-13.29 9.14,-22.02 14.4,-12.78 12.73,-31.31 -1,-11.16 -1.87,-10.13 -0.77,-25.18l-14.86 -3.28c6.55,-5.5 2.7,-2.35 5.2,-6.39 7.23,-3.3 2.78,-6.51 -6.07,-18.83 -14.51,-20.22 0.17,-46.25 -40.49,-55.43 -2.18,-13.27 -1.35,-14.99 -9.25,-22.95 -4.85,-4.88 -10.95,-9.84 -20.84,-7.97l-0.75 -12.47c-26.12,-13.68 -18.8,-15.19 -35.61,-25.98 -9.25,-5.93 -3.24,-5.11 -15.34,-2.11 -6.56,-10.85 -1.03,-9.77 -17.83,-16.05 -6.59,-2.47 -22.81,-6.8 -29.45,-7.42 2.92,13.96 26.61,14.7 31.15,31.24 -13.27,-6.65 -61.7,-15.87 -80.62,-16.43 -28.5,-0.83 -62.11,6.93 -84.58,13.56 -63.52,18.75 -75.62,52.11 -87.14,61.03l-16.79 15.49c-8.39,6.23 -6.29,-1.86 -7.31,9.59l25.75 -18.75c15.05,-10.45 23.74,-15.49 40.7,-21.56 8.41,-3.01 14.76,-8.26 23.88,-11.99 9.02,-3.7 17.41,-6.64 27.36,-9.91 16.55,-5.45 77.69,-12.4 97.63,-11.18l87.32 36.61c1.58,0.9 5.92,2.94 6.79,3.43 10.49,6.01 2.23,5.03 14.1,12.33 17.49,10.75 4.07,10.38 26.28,30.81 21.06,19.37 14.4,28.52 19.37,45.42 2.24,7.6 -1.16,2.65 3.88,8.04l4.32 30.38 127.66 75.82zm-124.59 -54.18c-2.08,6.63 -0.78,5.01 2.47,9.74 8.69,-3.77 9.83,-21.64 20.6,-13.88 -8.61,10.57 -13.28,12.02 -3.26,20.79 -11.71,0.42 -52.14,-10.57 -64.68,-14.14 -51.92,-14.81 -80.13,-12.84 -139.22,-23.95l-141.27 -18.95c-40.65,-14.93 -47.65,-30.06 -71.32,-48.74l-48.72 -32.56c-3.23,-1.67 -25.39,-11.62 -27.37,-12.03 -5.81,-6.4 -9.4,-4.43 -23.77,-8.65 -11.15,-3.28 -13.09,-4.98 -27.17,-5.4 3.57,9.81 0.03,4.76 13.16,15.2 4.21,3.34 10.27,8.59 13.75,10.48 8,4.38 16.67,3.17 35.57,16.33l30.02 21.58c6.17,6.05 17.81,20.19 28.15,25.51l403.06 58.67zm51.96 1.4c-6.83,6.05 -10.95,7.92 -10.13,20.54l13.22 -0.8 -3.09 -19.74zm514.31 274.31l20.61 15.76c17.87,-10.76 17.28,-6.11 12.71,-21.49 12.51,-6.67 13.53,-10.95 2.55,-20.95 -6.17,-5.61 -14.48,-11.82 -20.41,-12.42 -5.08,-12.48 -14.12,-13.62 -23.58,-18.99 -5.21,-7.3 -6.68,-6.29 -28.78,-6.54 -10.62,-0.12 -20.91,1.98 -29.6,2.72 -20.07,1.7 -40.84,-2.94 -47.94,5.41l-2.07 4.72c13.77,-4.62 9.92,3.09 20.71,9.25 16.85,9.63 9.71,-2.19 21.98,-5.94 0.42,0.63 0.66,1.56 0.86,2.08l9.01 16.93c0.21,-0.42 1.01,0.97 1.32,1.58 -0.41,0.55 -0.93,1.27 -1.22,1.65 -8.71,11.07 -11.22,11.46 -25.84,12.2 1.47,12.73 21.88,1.85 30.64,0.59 0.8,-1.44 0.74,-3.27 1.28,-5.32 0.94,-3.6 -0.34,-1.57 1.33,-4.34 3.82,2.69 -1.32,1.22 5.2,1.97 8.63,0.99 35.65,-13.95 26.97,10.19l9.53 -0.04c3.22,3.14 3.03,2.72 6.89,5.62 5.06,3.78 2.13,2.15 7.85,5.36zm-1189.7 -415.82l10.35 -1.2c8.87,-2.26 25.94,-7.54 32.92,-10.69 0.55,-0.25 1.15,-0.61 1.7,-0.87 21.43,-10.64 20.02,-7.07 17.36,-20.18 -24.1,-11.2 -82.73,-8.02 -108.07,-1.61 -18.15,4.58 -58.99,7.67 -62.05,8.62 -7.16,2.2 -0.63,-0.15 -5.3,2.41 -0.49,0.27 -1.02,0.76 -1.5,1.03 -0.47,0.27 -0.98,0.78 -1.45,1.04 -10.21,5.59 -13.74,0.01 -28.73,4.22 -3.64,7.93 4.21,-1.24 -2.47,8.45 -14.21,-1.05 0.09,-0.08 -12.81,-4.86l-5.29 6.91c-2.04,1.69 0.44,3.58 -7.97,2.32 -8.5,-1.27 -3.03,-7.88 -16.72,-2.59 -4.04,1.57 -7.78,6.85 -13.25,8.77 -5.65,1.99 -13.73,1.27 -20.32,1.79 -14.46,1.14 -26.16,1.67 -36.14,8.56 -25.24,17.46 -10.15,16.6 -22.92,6.59 -14.03,6.47 -4.71,3.97 -21.88,6.01 -5.73,0.69 -5.88,0.61 -10,4.05l-66.55 27.06c-16.93,8.53 -36.69,13.8 -57.06,19.83 -92.68,27.43 -89.69,22.68 -178.43,34.15 -48.93,6.32 -105.36,-0.18 -156.06,-1.48 -33.97,-0.87 -202.9,-7.7 -227.21,-15.82 -9.91,-3.31 -6.97,-8.12 -16.99,-2.41 4.32,7.46 -0.8,2.49 8.46,7.18l26.03 10.4c17.08,6.59 67.7,16.09 84.63,18.28 36.39,4.72 101.19,7.5 139.84,10.07l46.78 0.68c133.38,1.64 107.67,8.81 238.97,-10.2 10.48,-1.53 33.32,-6.4 41.15,-10 19.94,-9.19 24.55,-4.27 35.92,-13.2 13.53,-10.6 7.12,-3.37 20.76,-6.3 8.34,-1.79 6.98,-6.22 15.87,-8.17 21.52,-4.74 26.46,5.44 36.88,-13.01 10.06,3.41 -2.55,0.97 9.34,4.17 19,-20.23 11.45,4.83 22.86,-18.61 8.94,2.72 5.46,5.45 18.73,3.64 1.14,-1.81 2.78,-6.73 2.92,-6.95 10.87,-16.94 46.12,-2.55 58.53,-12.85 11.29,-9.38 5.01,-9.49 7.76,-16.27 4.64,1.55 6.66,1.39 8.88,7.38l0.98 8.05c34.53,-7.98 28.82,-15.57 32,-20.32 38.23,-5.58 20.39,-12.01 39.31,-10.33 -2.73,8.95 -2.85,3.58 -4.52,12.09 7.2,-0.69 7.91,-0.99 14.91,-4.37 7.32,-3.55 -3.91,0.18 7.19,-3.24l22.31 -6.93c6.01,-1.3 11.01,-0.77 17.56,-2.34 13.77,-3.27 39.05,-1.6 57.64,-6.63 7.38,-2 0.58,1.52 5.15,-2.32zm-972.1 31.66c2.8,4.48 2.33,2.79 6.77,7.07l14.66 15.51c4.4,4.99 13.04,7.7 20.81,8.75 -0.23,-11.83 -2.37,-48.73 -5.86,-60.32l3.22 -8.63c0.11,-0.59 0.5,-8.34 0.58,-9.67 4.98,-78.2 30.49,-76.97 71.33,-117.56l44.49 -39.36c4.27,-4.55 4.42,-6.36 8.93,-10.66 3.77,-3.58 7.82,-6.4 11.81,-10.22 26.56,-25.42 15.74,-13.31 40.64,-43.18 7.7,-9.23 14.5,-12.9 20.61,-21.26 16.08,-21.93 38.07,-53.32 46.99,-78.34 6.22,-17.45 17.61,-47.34 19.43,-65.12 -12.58,7.04 -19.65,41.04 -32.29,61.9 -23.03,38 -56.23,75.09 -85.7,106.25 -7.33,7.75 -16.4,14.29 -24.52,22.24 -18.07,17.67 -87.82,69.9 -109.78,82.8l-47.8 47.69c-3.04,4.15 -27.31,58.89 -23.19,69.36 7.29,18.57 1.03,13.11 8.04,40.63l10.83 2.12zm2298.49 251l5.56 7.55c3.81,5.03 2.65,3.12 6.81,7.84 19.04,21.61 13.62,19.44 23.04,31.14 4.57,5.67 6.71,7.27 11.88,15.08 8.53,12.89 32.43,37.25 47.64,41.2l20.48 0.91 -46.86 -55.92c-9.37,-11.37 -29.91,-53.02 -42.1,-55.76 -4.12,-7.38 -2.05,-4.84 -8.96,-11.55 -3.06,-2.97 -5.49,-5.01 -9.14,-7.83 -21.76,-16.79 -36.57,-26.1 -62.17,-38.86 -25.27,-12.57 -82.61,-21.43 -112.34,-24.27 -12.87,-1.22 -17.31,-2.39 -32.04,-2.77 -6.69,-0.18 -10.46,-0.92 -14.89,-1.38 -6.83,-0.7 -9.97,-1.08 -15.15,-1.8 -21.18,-3 -36.5,-5.34 -58.51,-7.39l-115.81 -20.58c-33.95,-3.08 -66.34,-9.37 -98.53,-7.34l-86 19.95c31.4,6.16 50.24,1.71 83.58,0.3 72.79,-3.05 167.56,34.1 224.07,39.47 43.03,4.08 47.03,8.36 76.47,12.52l112.47 17.76c42.53,11.63 49.13,16.64 83.13,37.6 6.36,3.93 0.78,0.95 7.37,4.13zm-1923.23 -801.6c22.49,9.53 68.53,65.35 106.09,68.82 -0.01,-6.88 -28.98,-47.56 -33.63,-55.22 -4.87,-8.05 -12.22,-20.81 -19.21,-27.49 -17.09,-16.33 -8.32,-10.9 -17.75,-28.75 -19.95,4.31 -30.71,12.41 -35.5,42.64zm-300.29 -476.47c14.64,6.31 18.72,-5.19 24.1,-16.89 4.16,-9.05 1.06,-8.14 7.27,-14.85 6.57,-7.11 7.39,-1.45 8.29,-12.76 8.08,-4.56 1.61,-1.18 14.44,-20.7 7.7,-11.73 9.94,-8.39 18.91,-16.04l-12.45 -5.25c-13.04,-1.43 -38.12,-3.62 -45.68,8.49 -11.81,-4.25 -11.83,1.7 -18.35,6.82 -7.37,5.78 -8.3,4.21 -15.38,11.46 -6.13,6.26 -8.61,7.17 -14.1,13.03l-11.89 13.36c-11.68,9.46 -15.83,26.45 -19.9,36.13 -13.44,31.97 -4.99,-2.8 -20.26,53.3 -4.42,16.25 -7.18,7.03 -11.81,20.45l-35.71 92.34 -33.59 62.5c-5.26,14.58 -11.34,32.5 -18.17,46.15 -15.36,30.7 -29.79,70.37 -40.33,89.74 -7.29,13.4 -14.29,30.09 -21.61,42.41 -8.34,14.01 -1.87,11.28 -14.03,32.76 -16.92,29.87 -39.59,57.74 -63.51,81.72 -17.48,17.53 -5.22,9.32 -23.12,23.65l-68.1 62.3c-5.47,6.46 -4.7,3.99 -5.59,13.54 17.06,-2.97 10.93,-7.77 32.27,-23.6 6.48,-4.81 9.71,-6.68 15.29,-11.83l96.97 -92.55c18.98,-20.04 55.81,-72.33 59.49,-75.81 8.68,-8.23 8.3,-2.88 8.63,-18.66 12.44,-3.77 7.27,-0.75 13.94,-8.12 0.11,-0.11 5.55,-6.94 5.65,-7.09 17.65,-27.43 -2.21,-0.7 15.93,-20.45 5.67,-6.17 5.39,-9.5 5.89,-18.49 11.08,-7.6 3.57,0.56 12.98,-9.76 30.83,-33.8 19.98,-29.23 21.44,-42.44l11.08 -1.95c2.65,-15.43 5.43,-18.31 14.96,-31.33l5.91 -12.31c9.16,-15.96 23.93,-25.96 26.88,-48.01l2.2 -30.22c1.97,-1 8.37,-2.19 11.27,-5.84 3.94,-4.97 3.3,-10.4 3.48,-17.05l-13.07 -5.08c4.52,-3.31 1.2,-4.16 9.22,-0.63 8.96,3.94 -2.34,4.15 12.92,5.68 16.64,-38.5 -5.68,-29.49 -7.26,-29.98 1.75,-8.86 -0.64,-4.28 5.81,-6.89 4.88,-1.98 8.1,-2.19 11.23,-4.68 8.95,-7.08 1.55,-4.09 7.39,-10.34 7.42,-7.96 2.83,3.6 10.24,-7.29 4.18,-13.77 -2.55,-15.15 6.3,-27.72 7.67,-10.9 0.92,-5.82 7.89,-13.86 12.07,-13.96 1.07,-7 5.24,-35.05l0.4 -12.31zm1519 1124.58l1.56 10.94 -1.56 -10.94zm-629.16 -299.35c26.42,2.37 27.77,-3.83 37.53,-22.9 5.78,-11.28 6.21,-8.4 5.44,-24.42 -0.45,-9.36 0.51,-22.55 -3.18,-29.51 -7.72,3.64 -1.63,-1.94 -4.92,7.13 -0.87,2.4 -1.7,7.48 -3.29,11.88 -10.82,30.07 -29.25,43.14 -31.58,57.82zm91.5 -59.67c43.84,3.55 68.89,-21.5 77.86,-60.1l-1.53 -16.4c-10.45,6.63 1.31,5.33 -17.17,19.92l-29.28 27.56c-3.78,4.22 -4.08,6.47 -9.15,10.2 -8.1,5.95 -17.23,8.39 -20.73,18.82zm589.29 622.1l4.28 -12.39c11.05,-2.11 16.48,-9.39 19.14,5.62 -32.13,3.65 -2.97,8.78 -23.42,6.77zm89.21 -13.3c0.46,-5.86 0.83,-3.16 4.31,-9.83 5.4,-10.39 -3.04,-5.34 6.62,-7.58 1.9,8.22 3.18,11.99 4.9,19.14l-15.83 -1.73zm-298.62 -8.25c2.53,-6.88 -1.32,-4.15 12.47,-9.08 11.35,-4.07 6.55,-1.55 14.12,-1.51 0.61,0 1.29,0.07 1.92,0.05 11.93,-0.46 27.23,-3.59 44.92,5.72l-10.11 20.77c-10.3,1.86 -12.09,5.7 -21.17,1.29 -7.34,-3.55 -6.36,-7.77 -8.38,-14.65 -7.58,0.62 -25.44,10.66 -33.77,-2.59zm-1473.1 -1129.86c-5.24,-11.05 -2.89,-16.75 7.38,-20.28l2.45 12.66c-4.44,2.6 -3.17,1.92 -6.47,4.45 -0.23,0.17 -1.17,1.45 -3.36,3.17zm33.35 -108.26c-5.08,4.08 0.45,1.12 -6.16,3.29 -0.81,0.27 -3.3,0.51 -4.16,0.71 -5.1,1.17 -5.09,1.45 -11.9,2.81 3.65,-23.05 19.26,-13.42 22.22,-6.81zm155.04 1235.67c28.06,-16.52 6.31,-4.07 18.43,-16.75 3.95,5.87 0.81,3.78 5.76,8.51 6.72,6.41 5.85,-1.83 5.79,10.44 -8.57,2.28 -7.12,0.88 -13.41,-0.13 -10.51,-1.66 -8.86,4.68 -16.57,-2.07zm397.8 -12.31c-6.76,4.16 -20.69,4 -29.36,1.34 0.34,-12.26 5.09,-10.34 14.38,-9.95 12.57,0.52 12.45,-1.21 14.98,8.61z"/>
  </g>
 </g>
</svg>
