<?xml version="1.0" encoding="UTF-8"?>
<!DOCTYPE svg PUBLIC "-//W3C//DTD SVG 1.1//EN" "http://www.w3.org/Graphics/SVG/1.1/DTD/svg11.dtd">
<!-- Creator: CorelDRAW 2017 -->
<svg xmlns="http://www.w3.org/2000/svg" xml:space="preserve" width="30.4798mm" height="22.9446mm" version="1.1" style="shape-rendering:geometricPrecision; text-rendering:geometricPrecision; image-rendering:optimizeQuality; fill-rule:evenodd; clip-rule:evenodd"
viewBox="0 0 3047.98 2294.46"
 xmlns:xlink="http://www.w3.org/1999/xlink">
 <defs>
  <style type="text/css">
   <![CDATA[
    .fil2 {fill:#2D7137}
    .fil5 {fill:#538D47}
    .fil4 {fill:#5F6062}
    .fil3 {fill:#70AE3F}
    .fil0 {fill:#CBDCCC}
    .fil1 {fill:#FEFEFE}
   ]]>
  </style>
 </defs>
 <g id="Capa_x0020_1">
  <metadata id="CorelCorpID_0Corel-Layer"/>
  <g id="_2211034683408">
   <path class="fil0" d="M517.2 1827.16c2.94,1.47 7.52,0.62 8.84,4.37 1.27,3.59 6.99,3.2 8.69,3.71 55.78,16.9 47.31,-2.17 52.93,-5.05 -24.4,-8.29 -11.76,7.35 -38.64,-25.86 -1.59,-1.96 -2.89,-5.67 -4.35,-7.62 -1.43,-1.91 -3.25,-5.58 -4.53,-7.31 -1.27,-1.72 -4.37,-5.26 -5.42,-6.64 -1.07,-1.42 -3.86,-4.43 -6.06,-6.36 -5.27,32.32 8.62,4.66 -11.46,50.76z"/>
   <path class="fil0" d="M621.65 1839.66c1.51,11.21 32.09,61.62 13.78,4.05 -6.23,-19.59 -15.34,-15.65 -13.78,-4.05z"/>
   <path class="fil1" d="M607.83 1710.29c2.06,8.5 1.06,17.35 7.2,26.04l21.13 14.79c1.19,0.65 5.08,1.92 7.41,3.29l-26.4 36.54 32.11 31.98 47.31 -39.15 20.19 40.37c7.56,16.3 -2.29,6.25 14.79,26.48 0.39,-0.37 38.14,12.68 15.86,-43.38 -14.3,-36 -12.25,-19.29 -40.51,-20.19 10.11,-38.3 16.87,-36.66 5.53,-67.41l-25.46 48.41c-72.45,-51.42 -15.08,-17.98 -10.02,-35.14 10.73,-36.4 21,-14.44 -11.14,-44.46 -1.61,0.48 -3.83,0.74 -4.19,2.78l-17.46 18.1c-18.82,10.06 -3.71,1.5 -36.35,0.95z"/>
   <path class="fil1" d="M827.17 1907.68c84.68,26.14 119.02,-26.8 150.59,-78.24 -35.67,-2.79 -77.84,0.58 -104.74,14.11 -45.74,23.03 -20.33,20.45 -45.85,64.13z"/>
   <path class="fil1" d="M710.72 2021.05c14.9,12.84 -3.59,-15.07 23.3,26.54 1.43,2.21 4.96,13.05 6.56,16.77 29.05,-49.73 29.27,-62.04 12.02,-120.44 -9.45,26.19 -24.83,19.43 -41.88,77.13z"/>
   <path class="fil1" d="M750.35 1919.44c-14.83,-59.46 -25.05,-63.34 -88.35,-70.73 14.23,45.88 34.6,62.83 88.35,70.73z"/>
   <path class="fil1" d="M708.95 1932.33c-39.41,-34.67 -57.93,-32.41 -122.45,-30.33 10.23,11.92 13.13,22.82 43.21,32.27 32.95,10.35 47.32,4.3 79.24,-1.94z"/>
   <path class="fil1" d="M787.42 1876.83c8.87,-53.1 3.83,-90.43 -30.96,-127.17l6.65 97.26c18.31,41.67 8.5,15.12 24.31,29.91z"/>
   <path class="fil1" d="M580.67 1288.85l-13.5 -31.9 -20.93 11.54 -13.67 51.57 36.94 2.15c14.91,-16.99 11.95,-1.53 11.16,-33.36z"/>
   <path class="fil1" d="M1139.92 1319.87l46.66 -1.15 -20.86 -69.79c-21.1,27.45 -19.73,27.45 -25.8,70.94z"/>
   <path class="fil1" d="M767.2 1722.85l-61.6 -68.93c9.24,93.27 14.58,17.65 61.6,68.93z"/>
   <path class="fil2" d="M1287.05 1303.69c2.55,52.99 1.94,87.43 50.4,115.18 47.03,26.93 107.65,22.19 157.68,6.91 1.31,-2.77 3.45,-10.14 3.65,-8.45l3.78 -17.36c5.08,-76.91 -4.9,-20.11 16.59,-75.76l-98.01 0.2c21.56,38.35 55.38,13.75 29.47,86.99 -85.61,13.2 -128.56,-36.09 -120.46,-120.33 -26.53,4.96 -17.46,1.26 -43.1,12.62z"/>
   <path class="fil2" d="M614.02 1297.81l-33.35 -8.96c0.79,31.83 3.75,16.37 -11.16,33.36l-36.94 -2.15 13.67 -51.57 -13.73 4.96c-17.62,17.85 -26.62,56.3 -38.58,82.74 -25.29,55.89 -33.04,38.04 -54.77,71.67l96.41 3.25c-0.05,-0.08 -74.28,-71.5 9.75,-86.45 15.1,-2.68 38.93,-0.95 54.52,-0.78 18.7,63.89 21.1,38.43 -9.36,87.5l105.01 -1.2c-28.48,-38.37 -23.34,-10.08 -49.09,-63.77 -15.37,-32.06 -14.64,-43.7 -32.38,-68.6z"/>
   <path class="fil2" d="M953.81 1287.58l-28.86 15.5c40.8,46.43 85.9,19.55 72.8,107.12 -89.76,11.72 -53.2,-18.11 -109.53,-48.53l10.43 66c156.71,40.93 203.36,-100.01 55.16,-140.09z"/>
   <path class="fil2" d="M821.8 1317.01c-27.33,-4.57 -42.75,-17.36 -43.1,8.53 38.38,30.32 32.8,8.93 47.78,57.58 -51.5,78.83 -83.67,3.35 -110.81,-20.04 -33.04,71.99 43.45,93.64 138.15,50.84 26.09,-113.62 -18.69,-93.59 -32.02,-96.91z"/>
   <path class="fil2" d="M1569.62 1398.36c-36.18,25.28 -16.3,0.77 -40.66,33.09l193.08 -1.51 17.51 -61.77c-36.57,14.52 -25.13,12.55 -49.55,38.51l-76.52 0.74c-6.93,-12.18 -3.18,3.86 -16.46,-35.18 -3.26,-9.59 -3.5,-22.56 -4.45,-30.95 -6.2,49.03 1.96,25.11 -22.95,57.07z"/>
   <path class="fil2" d="M294.78 1307.65l-4.48 2.34 -35.29 50.25 -32.45 -60.68 -23.92 8.25c-0.01,41.17 21.17,89.21 40.08,121.12 32.18,-20.84 53.88,-79.09 56.06,-121.28z"/>
   <path class="fil2" d="M337.9 1304.94l-0.51 90.37 -36.01 30.33 112.59 5.18 -37.78 -33.93 -3.12 -66.77c-23.32,-30.2 -11.12,38.91 -20.57,-38.94 7.71,21.53 4.07,2.29 -14.6,13.76z"/>
   <path class="fil2" d="M153.89 1341.75l-22.55 -6.36c-9.55,100.31 2.6,35.92 -38.69,95.99l99.52 -0.99c-12.81,-18.34 -1.44,-4.62 -16.48,-17.63 -1.68,-1.45 -5.32,-4.3 -7.07,-5.74 -1.85,-1.54 -6.04,-4.54 -7.67,-5.84 -1.69,-1.34 -5.51,-3.76 -8.09,-5.87l1.03 -53.56z"/>
   <path class="fil3" d="M1569.62 1398.36c24.91,-31.96 16.75,-8.04 22.95,-57.07 0.95,8.39 1.19,21.36 4.45,30.95 13.28,39.04 9.53,23 16.46,35.18l-1.2 -84.02c79.42,1.74 38.61,8.72 88.39,23.26l-0.56 -71.63c-39.54,14.97 -30.7,31.47 -87.48,15.96l0.3 -67.21c87.75,-13.82 50.7,-0.09 99.76,27.09l5.14 -54.17 -156.9 23.65 13.97 64.8c1.01,37.83 -0.99,75.77 -5.28,113.21z"/>
   <path class="fil3" d="M1287.05 1303.69c25.64,-11.36 16.57,-7.66 43.1,-12.62 14.2,-49.86 7.49,-39.62 40.71,-76.29l89.1 -3.11 39.97 54.61 4.71 -65.26c-117.03,-22.68 -209.99,-7.31 -217.59,102.67z"/>
   <path class="fil3" d="M778.7 1325.54c0.35,-25.89 15.77,-13.1 43.1,-8.53 -27.56,-39.69 -25.59,-19.94 -48.95,-41.05 -25.81,-23.33 -18.61,-28.47 -9.18,-62.11 43.54,-6.13 23.86,-22.11 81.08,32.45 1.88,1.78 5.34,4.93 8.23,7.13l-4.66 -58.37c-158.84,-18.46 -161.73,89.78 -69.62,130.48z"/>
   <path class="fil3" d="M290.3 1309.99l4.48 -2.34 42.15 -50.51 0.97 47.8c18.67,-11.47 22.31,7.77 14.6,-13.76 9.45,77.85 -2.75,8.74 20.57,38.94 -2.56,-114.46 -11.56,-86.63 30.22,-126.56 1.52,-1.45 4.86,-4.23 7.07,-6.56 -59.14,0.24 -91.78,-15.45 -120.06,112.99z"/>
   <path class="fil3" d="M131.34 1335.39l22.55 6.36 4.86 -82.48 39.89 48.54 23.92 -8.25 -49.64 -104.68 -47.79 23.06c24.77,26.66 14.03,36.86 6.21,117.45z"/>
   <path class="fil3" d="M924.95 1303.08l28.86 -15.5c-27.99,-49.25 -18.88,-13.3 -17.59,-49.54l6.45 -17.97c61.68,-29.79 53.28,-9.04 77.48,29.54 10,-17.26 8.26,22.31 10.15,-24.97 0.84,-21.27 0.23,-9.91 -5.3,-28.16 -52.33,-8.55 -123.86,-12.15 -127.62,53.39 -2.95,51.58 26.89,52.79 27.57,53.21z"/>
   <path class="fil3" d="M532.51 1273.45l13.73 -4.96 20.93 -11.54 13.5 31.9 33.35 8.96c-4.54,-25.82 -2.77,-28.95 -12.74,-56.6 -13.2,-36.63 -20.03,-34.04 -31.76,-43.86 -33.66,22.77 -27.68,28.79 -37.01,76.1z"/>
   <path class="fil4" d="M1046.95 1031.71c107.96,-69.19 155.13,-262.07 197.75,-412.42 64.16,-226.33 235.8,-59.71 299.94,-321.97 74.55,-304.83 285.64,-204.61 323.3,-126.01 75,156.57 -136.15,358.9 -267.51,338.42 -39.59,-32.67 -31.79,-42.87 -57.23,-83.29 -2.39,260.54 294.31,64.34 359,-99.42 101.75,-257.61 -214.71,-347.23 -331.47,-185.62 -56.58,78.31 -47.43,201.77 -98.82,254.39 -57.28,58.66 -157.87,46.46 -223.12,130.07 -68.05,87.19 -54.78,298.42 -201.84,505.85z"/>
   <path class="fil4" d="M1172.01 1609.29c156.41,-33.36 181.23,-42.55 317.92,36.61 89.23,51.68 200.22,87.42 321.22,51.25 103.62,-30.97 173.96,-85 286.46,-115.52 206.31,-55.97 204.67,50.68 318.83,51.21 58.59,-33.91 133.89,-154.95 258.7,-101.11 98.45,42.47 90.97,155.34 37.13,241.84 175.93,-178.46 -5.81,-330.86 -150.96,-289.67 -95.63,27.14 -99.66,118.16 -200.37,95.4 -102.62,-23.19 -109.01,-80.04 -263.69,-34.54 -152.27,44.78 -272.57,164.92 -459.77,123.82 -137.13,-30.1 -329.9,-194.07 -465.47,-59.29z"/>
   <path class="fil4" d="M2920.65 1965.45c-235.99,3.5 -429.28,-141.61 -704.83,-117.15 37.18,-8.39 97.14,8.97 129.13,25.85 -165.16,42.3 -233.25,33.84 -403.44,23.5 -161.85,-9.83 -269.49,-2.41 -420.92,8.36 109.95,16.15 266.98,2.41 396.34,17.93 613.7,73.59 295.36,-116.34 685.08,10.33 74.05,24.07 280.51,117.44 346.6,47.06 41.93,-55.49 -124.65,-192 -161.14,-210.82 49.17,35.56 125.59,131.36 133.18,194.94z"/>
   <path class="fil4" d="M1837.2 1212.25c-38.04,-131.59 -167,-187.89 -222.16,-325 -55.79,-138.66 -18.4,-362.36 -159.22,-397.25 194.75,267.19 -35.09,281.62 252.87,583.75 29.85,31.31 114.24,104.76 128.51,138.5z"/>
   <path class="fil4" d="M1634.92 1144.74c-24.46,-48 -97.07,-107.16 -154.17,-183.88 -60.33,-81.07 -56.84,-149.1 -95.04,-240.22 -47.99,214.7 148.48,351.17 249.21,424.1z"/>
   <path class="fil4" d="M2825.4 1895.83l-29.93 -83.19 -7.17 57.95c-109.14,-4.81 -250.5,-142.39 -389.45,-166.69 33.79,28.04 349.97,210.7 426.55,191.93z"/>
   <path class="fil4" d="M1705.77 971.41c-11.96,-58.37 -37.34,-109.48 -51.31,-184.04 -18.39,-98.16 -18.04,-110.6 -61.16,-183.48 14.47,156.32 29.24,264.36 112.47,367.52z"/>
   <path class="fil5" d="M710.72 2021.05c17.05,-57.7 32.43,-50.94 41.88,-77.13 17.25,58.4 17.03,70.71 -12.02,120.44 -1.6,-3.72 -5.13,-14.56 -6.56,-16.77 -26.89,-41.61 -8.4,-13.7 -23.3,-26.54zm-1.77 -88.72c-31.92,6.24 -46.29,12.29 -79.24,1.94 -30.08,-9.45 -32.98,-20.35 -43.21,-32.27 64.52,-2.08 83.04,-4.34 122.45,30.33zm41.4 -12.89c-53.75,-7.9 -74.12,-24.85 -88.35,-70.73 63.3,7.39 73.52,11.27 88.35,70.73zm76.82 -11.76c25.52,-43.68 0.11,-41.1 45.85,-64.13 26.9,-13.53 69.07,-16.9 104.74,-14.11 -31.57,51.44 -65.91,104.38 -150.59,78.24zm-205.52 -68.02c-1.56,-11.6 7.55,-15.54 13.78,4.05 18.31,57.57 -12.27,7.16 -13.78,-4.05zm134.81 -90c34.79,36.74 39.83,74.07 30.96,127.17 -15.81,-14.79 -6,11.76 -24.31,-29.91l-6.65 -97.26zm-239.26 77.5c20.08,-46.1 6.19,-18.44 11.46,-50.76 2.2,1.93 4.99,4.94 6.06,6.36 1.05,1.38 4.15,4.92 5.42,6.64 1.28,1.73 3.1,5.4 4.53,7.31 1.46,1.95 2.76,5.66 4.35,7.62 26.88,33.21 14.24,17.57 38.64,25.86 -5.62,2.88 2.85,21.95 -52.93,5.05 -1.7,-0.51 -7.42,-0.12 -8.69,-3.71 -1.32,-3.75 -5.9,-2.9 -8.84,-4.37zm126.37 -72.75c-2.33,-1.37 -6.22,-2.64 -7.41,-3.29l-21.13 -14.79c-6.14,-8.69 -5.14,-17.54 -7.2,-26.04 32.64,0.55 17.53,9.11 36.35,-0.95l17.46 -18.1c0.36,-2.04 2.58,-2.3 4.19,-2.78 32.14,30.02 21.87,8.06 11.14,44.46 -5.06,17.16 -62.43,-16.28 10.02,35.14l25.46 -48.41c11.34,30.75 4.58,29.11 -5.53,67.41 28.26,0.9 26.21,-15.81 40.51,20.19 22.28,56.06 -15.47,43.01 -15.86,43.38 -17.08,-20.23 -7.23,-10.18 -14.79,-26.48l-20.19 -40.37 -47.31 39.15 -32.11 -31.98 26.4 -36.54zm123.63 -31.56c-47.02,-51.28 -52.36,24.34 -61.6,-68.93l61.6 68.93zm-250 104.31c11.2,32.1 12.47,23.56 27.76,44.94l19.77 29.39c35.99,49.1 72.68,35.46 113.22,59.76 -64.01,21.15 -86.03,50.07 -171.84,42.63 74.91,-39.95 26.53,-27.12 22.55,-35.65l-59.32 37.22 59.52 21.73c46.49,1.69 120.49,-30.73 158.13,-53.62 1.29,2.64 2.59,4.1 3.14,8.23l20.59 39.26c1.9,50.03 3.73,80 45.51,103.17l39.27 -154.48c13.01,34.35 131.83,120.85 190.3,156.08 259.35,156.23 677,141.09 859.49,-30.99 -189.18,79.35 -334.89,141.74 -587.29,99.08 -205.45,-34.75 -357.12,-153.07 -452.97,-267.77 61.16,13.23 73.52,38.72 129.25,-9.25 27.54,-23.69 63.96,-60.57 70.29,-101.58 -39.21,-21.85 -63.76,-14.71 -107.67,-5.76 27.25,-49.22 59.94,-57.96 64.44,-131.21 -110.44,42.53 69.15,13.26 -126.29,162.71l-1.95 -85.07c-19.89,29.84 -12.26,36.71 -17.56,78.01 -16.98,-57.74 -31.69,-74.72 -5.14,-128.3 -129.76,-119.73 -126.89,-65.66 -172.72,-27.44 -26.63,22.23 -74.12,11.66 -56.2,62.53 0.09,0.27 4.9,-1.24 12.59,26.83l-52.88 -11.28c-53.35,18.52 -36.64,1.37 -42.37,40.74 -8.17,56.29 13.19,26.51 18.38,30.09z"/>
   <path class="fil5" d="M1139.92 1319.87c6.07,-43.49 4.7,-43.49 25.8,-70.94l20.86 69.79 -46.66 1.15zm-100.4 113.55l102.21 -1.87c-26.14,-45.5 -41.32,-17.68 -14.33,-83.95l72.13 -1.49c22.59,74.38 10.81,54.64 -6.24,82.75l107.25 3.41c-28.46,-50.14 -40.58,-37.8 -69.73,-113.42 -29.83,-77.39 -27.26,-101.49 -64.51,-119.79 -30.37,33.77 -56.83,129.93 -81.47,176.08 -26.92,50.43 -15.71,13.55 -45.31,58.28z"/>
   <path class="fil5" d="M2162.43 1122.99c-43.67,-163.1 -263.7,-406.06 -430.75,-445.25 19,27.34 -14.01,-2.6 26.42,30.45 22.97,18.77 119.7,76.19 153.18,114.52 27.19,31.15 21.07,25.35 54.23,55.01 89.65,80.19 151.24,200.74 196.92,245.27z"/>
   <path class="fil5" d="M704.61 992.12l189.3 -175.4c41.33,-35.99 171.88,-130.46 226.88,-153.45 -149.53,10.51 -394.54,218.15 -416.18,328.85z"/>
  </g>
 </g>
</svg>
