<!-- Generated by IcoMoon.io -->
<svg version="1.1" xmlns="http://www.w3.org/2000/svg" width="32" height="32" viewBox="0 0 32 32">
<title>mastercard</title>
<path fill="#231f20" d="M7.654 26.28v-1.364c0.016-0.233-0.069-0.46-0.234-0.625s-0.392-0.253-0.625-0.239c-0.308-0.020-0.602 0.128-0.768 0.387-0.151-0.251-0.428-0.399-0.722-0.387-0.256-0.013-0.499 0.11-0.64 0.323v-0.268l-0.475-0.001v2.174h0.48v-1.196c-0.021-0.151 0.027-0.302 0.131-0.414s0.251-0.172 0.404-0.163c0.315 0 0.475 0.204 0.475 0.573v1.21h0.48v-1.205c-0.020-0.15 0.029-0.301 0.132-0.413s0.251-0.172 0.403-0.164c0.325 0 0.48 0.204 0.48 0.573v1.21l0.48-0.009zM14.752 24.106h-0.782v-0.659h-0.479v0.659h-0.434v0.432h0.443v1c0 0.505 0.196 0.805 0.758 0.805 0.21 0.001 0.416-0.058 0.594-0.168l-0.137-0.405c-0.127 0.076-0.272 0.118-0.42 0.123-0.228 0-0.315-0.145-0.315-0.364v-0.992l0.777 0.001-0.005-0.432zM18.804 24.052c-0.236-0.007-0.457 0.115-0.576 0.318v-0.264h-0.471v2.174h0.475v-1.219c0-0.359 0.155-0.559 0.457-0.559 0.101-0.001 0.203 0.017 0.297 0.054l0.146-0.455c-0.108-0.039-0.223-0.058-0.338-0.059l0.009 0.009zM12.678 24.279c-0.269-0.159-0.578-0.238-0.891-0.227-0.553 0-0.914 0.263-0.914 0.696 0 0.355 0.265 0.573 0.754 0.641l0.228 0.032c0.261 0.037 0.384 0.105 0.384 0.227 0 0.168-0.174 0.264-0.498 0.264-0.261 0.007-0.517-0.073-0.726-0.227l-0.229 0.368c0.277 0.192 0.608 0.291 0.946 0.282 0.631 0 0.996-0.296 0.996-0.709s-0.287-0.582-0.763-0.651l-0.228-0.032c-0.206-0.027-0.371-0.069-0.371-0.214 0-0.146 0.156-0.255 0.416-0.255 0.241 0.003 0.476 0.067 0.685 0.187l0.21-0.383zM25.404 24.052c-0.236-0.007-0.457 0.115-0.576 0.318v-0.264h-0.471v2.174h0.475v-1.219c0-0.359 0.156-0.559 0.457-0.559 0.101-0.001 0.203 0.017 0.297 0.054l0.146-0.455c-0.108-0.039-0.223-0.058-0.338-0.059l0.009 0.009zM19.282 25.189c-0.011 0.309 0.108 0.608 0.33 0.825s0.525 0.329 0.834 0.312c0.285 0.014 0.566-0.078 0.786-0.259l-0.229-0.382c-0.164 0.125-0.365 0.194-0.571 0.195-0.365-0.029-0.645-0.332-0.645-0.696s0.281-0.666 0.645-0.696c0.206 0.002 0.407 0.071 0.571 0.195l0.229-0.382c-0.22-0.181-0.501-0.273-0.786-0.259-0.31-0.017-0.613 0.096-0.834 0.313-0.222 0.216-0.342 0.515-0.33 0.825v0.009zM23.732 25.189v-1.082h-0.475v0.264c-0.164-0.21-0.419-0.328-0.686-0.318-0.631 0-1.142 0.509-1.142 1.137s0.511 1.137 1.142 1.137c0.267 0.009 0.522-0.109 0.686-0.318v0.263l0.475-0.001v-1.082zM21.964 25.189c0.021-0.357 0.325-0.631 0.684-0.618s0.641 0.31 0.635 0.668c-0.006 0.357-0.298 0.644-0.656 0.646-0.183 0.002-0.358-0.072-0.484-0.203s-0.191-0.311-0.179-0.492h0.001zM16.23 24.052c-0.631 0.009-1.135 0.525-1.126 1.153s0.527 1.13 1.159 1.121c0.329 0.017 0.652-0.089 0.907-0.296l-0.228-0.35c-0.18 0.144-0.404 0.224-0.635 0.227-0.326 0.028-0.616-0.208-0.653-0.532h1.622c0-0.059 0-0.118 0-0.182 0-0.682-0.425-1.137-1.037-1.137l-0.007-0.005zM16.23 24.474c0.143-0.003 0.282 0.051 0.386 0.15s0.163 0.235 0.167 0.378l-1.143-0.001c0.017-0.304 0.275-0.538 0.58-0.527h0.010zM28.134 25.193v-1.96h-0.457v1.137c-0.164-0.21-0.419-0.328-0.686-0.318-0.631 0-1.142 0.509-1.142 1.137s0.511 1.137 1.142 1.137c0.267 0.009 0.522-0.109 0.686-0.318v0.263l0.457-0.001v-1.078zM26.377 25.193c0.021-0.357 0.325-0.631 0.684-0.618s0.641 0.31 0.635 0.668c-0.006 0.357-0.298 0.644-0.656 0.646-0.183 0.002-0.358-0.072-0.484-0.203s-0.191-0.311-0.179-0.492h0.001zM10.334 25.193v-1.087h-0.475v0.264c-0.164-0.21-0.419-0.328-0.685-0.318-0.631 0-1.143 0.509-1.143 1.137s0.511 1.137 1.143 1.137c0.266 0.009 0.522-0.109 0.685-0.318v0.263l0.475-0.001v-1.078zM8.566 25.193c0.021-0.357 0.325-0.631 0.684-0.618s0.641 0.31 0.635 0.668c-0.006 0.357-0.298 0.644-0.657 0.646-0.184 0.004-0.36-0.069-0.487-0.202s-0.192-0.312-0.18-0.494h0.005z"></path>
<path fill="#ff5f00" d="M12.52 7.54h7.196v12.873h-7.196z"></path>
<path fill="#eb001b" d="M12.977 13.978c-0.003-2.512 1.156-4.887 3.141-6.437-3.372-2.638-8.214-2.253-11.124 0.883s-2.909 7.971 0 11.108c2.91 3.136 7.752 3.52 11.124 0.883-1.984-1.551-3.143-3.924-3.141-6.436v0.001z"></path>
<path fill="#f79e1b" d="M29.425 13.978c0 3.134-1.798 5.994-4.63 7.363s-6.201 1.010-8.677-0.928c1.984-1.552 3.142-3.925 3.142-6.436s-1.159-4.884-3.142-6.436c2.475-1.937 5.845-2.298 8.677-0.928s4.63 4.229 4.63 7.363v0.002z"></path>
</svg>
