<!-- Generated by IcoMoon.io -->
<svg version="1.1" xmlns="http://www.w3.org/2000/svg" width="32" height="32" viewBox="0 0 32 32">
<title>menu-puntos</title>
<path d="M16 13.312q1.063 0 1.875 0.812t0.812 1.875-0.812 1.875-1.875 0.812-1.875-0.812-0.812-1.875 0.812-1.875 1.875-0.812zM24 13.312q1.063 0 1.875 0.812t0.812 1.875-0.812 1.875-1.875 0.812-1.875-0.812-0.812-1.875 0.812-1.875 1.875-0.812zM8 13.312q1.063 0 1.875 0.812t0.812 1.875-0.812 1.875-1.875 0.812-1.875-0.812-0.812-1.875 0.812-1.875 1.875-0.812z"></path>
</svg>
