<!-- Generated by IcoMoon.io -->
<svg version="1.1" xmlns="http://www.w3.org/2000/svg" width="32" height="32" viewBox="0 0 32 32">
<title>mercado-pago</title>
<path fill="#253e8b" d="M11.959 15.011c0-2.050-2.547-3.721-5.689-3.721s-5.689 1.671-5.689 3.721c0 0.053-0.001 0.2-0.001 0.218 0 2.175 2.227 3.936 5.689 3.936 3.484 0 5.69-1.761 5.69-3.936 0-0.076 0-0.12 0-0.219z"></path>
<path fill="#00aeef" d="M11.741 15.009c0 1.933-2.449 3.5-5.47 3.5s-5.47-1.567-5.47-3.5 2.449-3.5 5.47-3.5c3.021 0 5.47 1.567 5.47 3.5z"></path>
<path fill="#fff" d="M4.454 13.905c-0.003 0.005-0.057 0.062-0.022 0.107 0.086 0.11 0.353 0.173 0.623 0.113 0.16-0.036 0.366-0.199 0.566-0.358 0.216-0.172 0.43-0.343 0.646-0.412 0.228-0.073 0.374-0.041 0.471-0.012 0.106 0.031 0.231 0.101 0.429 0.25 0.374 0.282 1.879 1.596 2.139 1.822 0.21-0.095 1.14-0.495 2.405-0.774-0.11-0.674-0.52-1.292-1.142-1.797-0.867 0.364-1.927 0.555-2.963 0.048-0.005-0.002-0.566-0.268-1.119-0.254-0.822 0.019-1.179 0.375-1.555 0.751l-0.477 0.515z"></path>
<path fill="#fff" d="M9.245 15.559c-0.018-0.016-1.77-1.549-2.166-1.847-0.23-0.172-0.358-0.217-0.492-0.234-0.070-0.009-0.166 0.004-0.234 0.022-0.185 0.050-0.426 0.212-0.641 0.382-0.222 0.177-0.431 0.343-0.625 0.387-0.248 0.056-0.551-0.010-0.689-0.103-0.056-0.038-0.095-0.081-0.114-0.125-0.051-0.118 0.043-0.213 0.059-0.229l0.484-0.523c0.056-0.056 0.113-0.112 0.171-0.167-0.156 0.020-0.3 0.060-0.441 0.099-0.175 0.049-0.343 0.096-0.514 0.096-0.071 0-0.452-0.062-0.524-0.082-0.438-0.12-0.822-0.236-1.395-0.504-0.687 0.512-1.147 1.152-1.28 1.856 0.099 0.026 0.258 0.074 0.325 0.088 1.556 0.346 2.040 0.702 2.128 0.777 0.095-0.106 0.233-0.173 0.386-0.173 0.172 0 0.327 0.086 0.421 0.22 0.089-0.070 0.212-0.13 0.371-0.13 0.072 0 0.147 0.013 0.222 0.039 0.176 0.060 0.266 0.177 0.313 0.283 0.059-0.027 0.131-0.046 0.216-0.046 0.084 0 0.171 0.019 0.259 0.057 0.287 0.123 0.331 0.405 0.305 0.617 0.020-0.002 0.041-0.003 0.062-0.003 0.34 0 0.617 0.277 0.617 0.617 0 0.105-0.027 0.204-0.074 0.291 0.092 0.052 0.328 0.17 0.536 0.143 0.165-0.021 0.228-0.077 0.251-0.109 0.015-0.022 0.032-0.047 0.017-0.066l-0.439-0.488c0 0-0.072-0.068-0.048-0.095s0.069 0.012 0.101 0.038c0.224 0.187 0.496 0.468 0.496 0.468 0.004 0.003 0.023 0.039 0.124 0.057 0.087 0.015 0.241 0.006 0.347-0.081 0.027-0.022 0.054-0.050 0.076-0.078-0.002 0.001-0.003 0.004-0.005 0.004 0.112-0.144-0.012-0.289-0.012-0.289l-0.513-0.575c0 0-0.073-0.068-0.048-0.095 0.022-0.024 0.069 0.012 0.102 0.039 0.162 0.136 0.391 0.366 0.611 0.581 0.043 0.032 0.236 0.151 0.492-0.017 0.155-0.102 0.186-0.227 0.182-0.321-0.011-0.125-0.108-0.214-0.108-0.214l-0.7-0.704c0 0-0.074-0.063-0.048-0.095 0.021-0.027 0.069 0.012 0.101 0.038 0.223 0.187 0.827 0.74 0.827 0.74 0.009 0.006 0.217 0.155 0.475-0.010 0.092-0.059 0.151-0.148 0.156-0.251 0.009-0.179-0.118-0.285-0.118-0.285z"></path>
<path fill="#fff" d="M5.85 16.451c-0.108-0.001-0.227 0.063-0.243 0.054-0.009-0.006 0.006-0.049 0.017-0.075s0.153-0.455-0.195-0.604c-0.267-0.114-0.429 0.014-0.485 0.073-0.015 0.015-0.021 0.014-0.023-0.005-0.005-0.077-0.040-0.287-0.27-0.357-0.329-0.1-0.54 0.129-0.594 0.212-0.024-0.188-0.182-0.333-0.376-0.333-0.211 0-0.382 0.171-0.382 0.382s0.171 0.381 0.382 0.381c0.102 0 0.195-0.041 0.264-0.106 0.002 0.002 0.003 0.005 0.002 0.013-0.016 0.094-0.045 0.437 0.314 0.577 0.144 0.056 0.267 0.014 0.368-0.057 0.030-0.021 0.035-0.012 0.031 0.016-0.013 0.088 0.004 0.277 0.269 0.384 0.201 0.082 0.321-0.002 0.399-0.074 0.034-0.031 0.043-0.026 0.045 0.022 0.010 0.256 0.222 0.458 0.479 0.459 0.265 0 0.481-0.214 0.481-0.48s-0.215-0.477-0.48-0.48z"></path>
<path fill="#253e8b" d="M5.85 17.377c-0.24 0-0.436-0.187-0.445-0.425 0-0.020-0.003-0.075-0.048-0.075-0.019 0-0.036 0.012-0.054 0.028-0.053 0.049-0.12 0.099-0.218 0.099-0.045 0-0.093-0.011-0.144-0.031-0.254-0.103-0.258-0.277-0.248-0.347 0.003-0.019 0.004-0.038-0.009-0.053l-0.016-0.014h-0.016c-0.013 0-0.026 0.005-0.044 0.018-0.074 0.052-0.144 0.076-0.216 0.076-0.039 0-0.080-0.008-0.12-0.024-0.334-0.13-0.308-0.446-0.292-0.54 0.002-0.020-0.003-0.034-0.015-0.044l-0.024-0.020-0.022 0.021c-0.065 0.063-0.15 0.097-0.24 0.097-0.192 0-0.348-0.156-0.348-0.347s0.156-0.347 0.348-0.347c0.173 0 0.32 0.13 0.342 0.303l0.012 0.093 0.051-0.079c0.006-0.009 0.146-0.222 0.404-0.221 0.049 0 0.1 0.008 0.151 0.024 0.206 0.063 0.241 0.249 0.246 0.327 0.004 0.045 0.036 0.047 0.042 0.047 0.018 0 0.031-0.011 0.040-0.021 0.039-0.040 0.123-0.108 0.255-0.108 0.060 0 0.125 0.014 0.191 0.043 0.327 0.14 0.179 0.555 0.177 0.56-0.028 0.069-0.029 0.1-0.003 0.117l0.013 0.006h0.010c0.015 0 0.033-0.006 0.063-0.017 0.044-0.015 0.112-0.038 0.174-0.038v0c0.246 0.003 0.446 0.203 0.446 0.446 0 0.246-0.201 0.445-0.446 0.445zM9.313 15.375c-0.54-0.471-1.787-1.555-2.125-1.809-0.193-0.145-0.325-0.222-0.44-0.256-0.052-0.016-0.124-0.034-0.216-0.034-0.086 0-0.178 0.015-0.274 0.046-0.219 0.069-0.436 0.242-0.646 0.409l-0.011 0.009c-0.196 0.156-0.398 0.317-0.552 0.351-0.067 0.015-0.136 0.023-0.204 0.023-0.172 0-0.326-0.050-0.384-0.123-0.010-0.012-0.004-0.032 0.019-0.060l0.003-0.004 0.475-0.512c0.372-0.372 0.723-0.723 1.532-0.741 0.013 0 0.027-0.001 0.040-0.001 0.503 0 1.006 0.226 1.062 0.252 0.472 0.23 0.959 0.347 1.449 0.348 0.51 0 1.037-0.126 1.59-0.381-0.062-0.052-0.126-0.102-0.192-0.152-0.486 0.211-0.95 0.317-1.396 0.317-0.457-0.001-0.913-0.11-1.356-0.326-0.023-0.011-0.579-0.273-1.157-0.273-0.015 0-0.030 0-0.045 0.001-0.679 0.016-1.062 0.257-1.319 0.468-0.25 0.006-0.466 0.066-0.658 0.12-0.172 0.047-0.319 0.089-0.464 0.089-0.060 0-0.166-0.005-0.176-0.006-0.166-0.005-1.002-0.21-1.668-0.462-0.068 0.048-0.133 0.098-0.197 0.148 0.695 0.285 1.541 0.505 1.808 0.523 0.074 0.005 0.153 0.013 0.232 0.013 0.177 0 0.353-0.049 0.524-0.097 0.1-0.028 0.212-0.059 0.329-0.082-0.031 0.031-0.062 0.062-0.094 0.093l-0.482 0.522c-0.038 0.038-0.121 0.141-0.066 0.267 0.022 0.051 0.066 0.1 0.127 0.141 0.115 0.077 0.32 0.13 0.512 0.13 0.072 0 0.141-0.007 0.204-0.021 0.202-0.045 0.414-0.214 0.639-0.393 0.179-0.142 0.433-0.323 0.628-0.376 0.054-0.015 0.121-0.024 0.175-0.024 0.016 0 0.031 0.001 0.045 0.003 0.129 0.016 0.253 0.060 0.475 0.227 0.396 0.297 2.148 1.83 2.165 1.845 0.001 0.001 0.113 0.097 0.105 0.258-0.004 0.089-0.054 0.169-0.14 0.224-0.075 0.047-0.152 0.071-0.23 0.071-0.117 0-0.198-0.055-0.203-0.059-0.006-0.005-0.607-0.556-0.828-0.741-0.035-0.029-0.069-0.055-0.104-0.055-0.018 0-0.035 0.008-0.046 0.022-0.035 0.043 0.004 0.102 0.050 0.141l0.701 0.705c0.001 0.001 0.087 0.082 0.097 0.19 0.006 0.117-0.050 0.215-0.166 0.291-0.083 0.054-0.166 0.082-0.249 0.082-0.108 0-0.183-0.049-0.2-0.061l-0.1-0.099c-0.184-0.181-0.374-0.368-0.513-0.484-0.034-0.028-0.070-0.054-0.105-0.054-0.017 0-0.032 0.006-0.044 0.019-0.016 0.018-0.027 0.049 0.013 0.102 0.016 0.021 0.035 0.039 0.035 0.039l0.512 0.575c0.004 0.005 0.105 0.125 0.012 0.245l-0.018 0.023c-0.015 0.017-0.032 0.033-0.047 0.046-0.087 0.072-0.204 0.080-0.25 0.080-0.025 0-0.049-0.003-0.069-0.006-0.051-0.009-0.084-0.023-0.101-0.043l-0.006-0.006c-0.028-0.029-0.286-0.292-0.5-0.47-0.028-0.024-0.063-0.053-0.099-0.053-0.018 0-0.034 0.007-0.046 0.021-0.042 0.046 0.021 0.115 0.048 0.141l0.437 0.481c-0.001 0.004-0.006 0.014-0.017 0.029-0.016 0.021-0.068 0.075-0.227 0.094-0.019 0.003-0.039 0.004-0.058 0.004-0.163 0-0.337-0.079-0.427-0.127 0.041-0.086 0.062-0.182 0.062-0.277 0-0.359-0.292-0.652-0.651-0.652-0.008 0-0.016 0-0.023 0 0.012-0.164-0.012-0.474-0.33-0.611-0.092-0.040-0.184-0.060-0.272-0.060-0.070 0-0.137 0.012-0.199 0.036-0.066-0.128-0.176-0.222-0.319-0.27-0.079-0.027-0.158-0.041-0.234-0.041-0.133 0-0.255 0.039-0.364 0.116-0.104-0.13-0.262-0.207-0.428-0.207-0.145 0-0.285 0.058-0.389 0.161-0.136-0.104-0.675-0.446-2.117-0.774-0.070-0.016-0.23-0.062-0.328-0.090-0.016 0.078-0.029 0.157-0.037 0.236 0 0 0.266 0.064 0.318 0.076 1.474 0.327 1.96 0.668 2.043 0.732-0.028 0.067-0.043 0.139-0.043 0.212 0 0.304 0.247 0.552 0.552 0.552 0.034 0 0.068-0.003 0.101-0.009 0.046 0.224 0.193 0.394 0.417 0.481 0.066 0.025 0.132 0.038 0.197 0.038 0.042 0 0.084-0.005 0.126-0.016 0.041 0.105 0.134 0.236 0.343 0.321 0.073 0.029 0.146 0.045 0.217 0.045 0.058 0 0.115-0.010 0.169-0.030 0.1 0.243 0.337 0.404 0.602 0.404 0.175 0 0.344-0.071 0.467-0.197 0.105 0.059 0.327 0.164 0.551 0.164 0.029 0 0.057-0.002 0.084-0.005 0.223-0.028 0.326-0.115 0.374-0.183 0.009-0.012 0.016-0.024 0.023-0.037 0.052 0.015 0.11 0.028 0.176 0.028 0.122 0 0.239-0.042 0.356-0.128 0.116-0.083 0.198-0.204 0.21-0.306 0-0.002 0.001-0.003 0.001-0.004 0.039 0.008 0.079 0.012 0.119 0.012 0.125 0 0.248-0.039 0.366-0.116 0.227-0.148 0.266-0.343 0.263-0.47 0.039 0.008 0.080 0.012 0.12 0.012 0.118 0 0.233-0.035 0.343-0.105 0.141-0.090 0.225-0.228 0.238-0.388 0.009-0.109-0.018-0.219-0.076-0.313 0.38-0.164 1.25-0.481 2.273-0.712-0.006-0.079-0.018-0.158-0.032-0.236-1.238 0.275-2.163 0.675-2.394 0.778z"></path>
<path fill="#253e8b" d="M30.836 14.116c-0.1 0.132-0.242 0.198-0.428 0.198s-0.329-0.066-0.429-0.198c-0.101-0.132-0.151-0.32-0.151-0.564s0.050-0.431 0.151-0.563c0.1-0.132 0.244-0.197 0.429-0.197s0.329 0.066 0.428 0.197 0.15 0.319 0.15 0.563c0 0.244-0.050 0.432-0.15 0.564zM31.345 12.64c-0.205-0.257-0.517-0.386-0.935-0.386s-0.73 0.129-0.935 0.386c-0.205 0.257-0.308 0.561-0.308 0.912 0 0.357 0.103 0.662 0.308 0.916s0.517 0.38 0.935 0.38 0.73-0.127 0.935-0.38c0.206-0.254 0.308-0.559 0.308-0.916 0-0.351-0.102-0.655-0.308-0.912z"></path>
<path fill="#253e8b" d="M25.773 13.815c-0.004 0.213-0.065 0.361-0.183 0.441s-0.246 0.122-0.385 0.122c-0.088 0-0.163-0.025-0.224-0.073s-0.092-0.127-0.092-0.236c0-0.122 0.050-0.212 0.151-0.271 0.060-0.034 0.157-0.063 0.293-0.087l0.145-0.027c0.072-0.014 0.129-0.028 0.171-0.044s0.083-0.036 0.124-0.062v0.237zM26.097 12.425c-0.208-0.105-0.447-0.159-0.715-0.159-0.412 0-0.703 0.108-0.873 0.322-0.107 0.138-0.166 0.313-0.18 0.526h0.616c0.015-0.094 0.045-0.169 0.091-0.224 0.064-0.075 0.172-0.112 0.324-0.112 0.136 0 0.24 0.019 0.31 0.057s0.106 0.107 0.106 0.207c0 0.082-0.046 0.142-0.138 0.181-0.051 0.022-0.136 0.041-0.255 0.056l-0.218 0.027c-0.248 0.031-0.436 0.084-0.564 0.157-0.233 0.134-0.35 0.351-0.35 0.652 0 0.231 0.072 0.41 0.217 0.536s0.329 0.179 0.551 0.189c1.393 0.062 1.377-0.734 1.39-0.9v-0.916c0-0.294-0.104-0.494-0.312-0.6z"></path>
<path fill="#253e8b" d="M22.92 12.812c0.16 0 0.276 0.049 0.352 0.148 0.052 0.073 0.084 0.155 0.097 0.246h0.687c-0.038-0.347-0.159-0.589-0.364-0.726s-0.468-0.205-0.79-0.205c-0.379 0-0.676 0.116-0.891 0.348s-0.323 0.557-0.323 0.974c0 0.37 0.097 0.671 0.292 0.903s0.499 0.348 0.911 0.348c0.413 0 0.725-0.139 0.936-0.417 0.132-0.173 0.205-0.356 0.221-0.549h-0.685c-0.014 0.128-0.054 0.232-0.12 0.312s-0.177 0.12-0.335 0.12c-0.221 0-0.372-0.101-0.453-0.304-0.044-0.108-0.066-0.251-0.066-0.429 0-0.187 0.022-0.337 0.066-0.45 0.084-0.213 0.238-0.32 0.464-0.32z"></path>
<path fill="#253e8b" d="M21.505 12.274c-1.412 0-1.328 1.25-1.328 1.25v1.269h0.64v-1.191c0-0.195 0.025-0.34 0.074-0.433 0.088-0.166 0.26-0.25 0.516-0.25 0.019 0 0.044 0.001 0.076 0.003s0.067 0.004 0.108 0.009v-0.652c-0.029-0.002-0.047-0.003-0.055-0.004s-0.018-0.001-0.030-0.001z"></path>
<path fill="#253e8b" d="M18.291 12.937c0.090-0.093 0.217-0.139 0.38-0.139 0.151 0 0.276 0.044 0.378 0.131s0.158 0.216 0.169 0.384h-1.096c0.023-0.158 0.079-0.284 0.169-0.376zM19.152 14.13c-0.027 0.038-0.056 0.071-0.088 0.097-0.090 0.075-0.213 0.097-0.358 0.097-0.137 0-0.244-0.021-0.341-0.082-0.16-0.098-0.25-0.264-0.259-0.508h1.772c0.003-0.21-0.004-0.371-0.021-0.483-0.029-0.19-0.094-0.359-0.194-0.503-0.11-0.164-0.251-0.284-0.421-0.36s-0.36-0.114-0.572-0.114c-0.357 0-0.647 0.112-0.87 0.337s-0.335 0.548-0.335 0.969c0 0.45 0.124 0.775 0.372 0.974s0.533 0.3 0.857 0.3c0.392 0 0.697-0.118 0.916-0.355 0.117-0.124 0.191-0.248 0.222-0.37h-0.679z"></path>
<path fill="#253e8b" d="M17.208 14.793h-0.585v-1.473c0-0.134-0.044-0.455-0.43-0.455-0.258 0-0.444 0.186-0.444 0.455v1.473h-0.586v-1.473c0-0.134-0.040-0.455-0.426-0.455-0.262 0-0.444 0.186-0.444 0.455v1.473h-0.585v-1.459c0-0.608 0.404-1.068 1.029-1.068 0.31 0 0.563 0.131 0.727 0.34 0.173-0.209 0.43-0.34 0.727-0.34 0.639 0 1.015 0.441 1.015 1.068v1.459z"></path>
<path fill="#253e8b" d="M28.208 14.121c-0.093 0.134-0.231 0.201-0.411 0.201s-0.314-0.068-0.403-0.202c-0.088-0.135-0.132-0.331-0.132-0.556 0-0.208 0.043-0.383 0.13-0.523s0.223-0.211 0.409-0.211c0.122 0 0.229 0.038 0.322 0.116 0.15 0.128 0.225 0.357 0.225 0.655 0 0.213-0.047 0.386-0.141 0.52zM28.976 11.504c0 0-0.645-0.069-0.645 0.45v0.686c-0.071-0.115-0.164-0.204-0.279-0.269s-0.245-0.097-0.393-0.097c-0.32 0-0.575 0.119-0.766 0.357s-0.286 0.581-0.286 0.996c0 0.36 0.097 0.655 0.291 0.886s0.575 0.33 0.913 0.33c1.18 0 1.166-1.012 1.166-1.012l0.001-2.328z"></path>
<path fill="#00aeef" d="M19.459 17.125c0-0.242-0.047-0.427-0.141-0.557s-0.229-0.196-0.405-0.196c-0.169 0-0.301 0.066-0.396 0.196-0.087 0.118-0.131 0.304-0.131 0.557 0 0.236 0.047 0.412 0.141 0.53 0.094 0.13 0.229 0.196 0.405 0.196 0.163 0 0.292-0.065 0.386-0.196s0.141-0.306 0.141-0.53v0zM18.386 18.858c0 0.086-0.031 0.161-0.095 0.223s-0.138 0.093-0.226 0.093h-0.32v-2.226c0-0.433 0.146-0.704 0.386-0.887 0.159-0.121 0.395-0.236 0.838-0.236 0.299 0 0.649 0.116 0.838 0.347 0.212 0.259 0.3 0.548 0.3 0.926 0 0.391-0.094 0.706-0.282 0.948-0.188 0.236-0.43 0.353-0.725 0.353-0.157 0-0.295-0.028-0.414-0.083-0.126-0.062-0.226-0.158-0.301-0.288v0.832z"></path>
<path fill="#00aeef" d="M23.298 17.125c0 0.427 0.124 0.663 0.37 0.71s0.428-0.012 0.545-0.172c0.056-0.068 0.095-0.175 0.12-0.32s0.027-0.29 0.004-0.432c-0.021-0.143-0.072-0.269-0.153-0.381s-0.197-0.167-0.351-0.167c-0.21 0-0.351 0.078-0.426 0.232s-0.111 0.331-0.111 0.53v0zM24.352 18.193v-0.157c-0.111 0.173-0.261 0.281-0.449 0.324s-0.375 0.028-0.559-0.047c-0.185-0.074-0.344-0.212-0.477-0.412s-0.198-0.466-0.198-0.795c0-0.383 0.088-0.694 0.263-0.932s0.458-0.347 0.847-0.357c0.382-0.010 0.605 0.076 0.823 0.241 0.238 0.181 0.379 0.458 0.379 0.891v1.309c0.001 0.417-0.29 1.189-1.202 1.124-0.565-0.041-0.879-0.273-1.054-0.798h0.675c0.049 0.086 0.124 0.153 0.227 0.199s0.204 0.059 0.305 0.037c0.102-0.022 0.194-0.082 0.278-0.181s0.131-0.248 0.143-0.446z"></path>
<path fill="#00aeef" d="M21.798 17.384c-0.004 0.213-0.065 0.36-0.182 0.441s-0.246 0.121-0.385 0.121c-0.088 0-0.163-0.024-0.224-0.073s-0.092-0.128-0.092-0.237c0-0.122 0.050-0.212 0.151-0.27 0.060-0.034 0.157-0.064 0.293-0.087l0.145-0.027c0.073-0.014 0.13-0.028 0.171-0.044s0.083-0.036 0.124-0.061v0.237zM22.121 15.993c-0.208-0.105-0.446-0.159-0.715-0.159-0.412 0-0.703 0.108-0.873 0.322-0.106 0.137-0.166 0.313-0.18 0.526h0.616c0.015-0.094 0.045-0.169 0.091-0.224 0.064-0.075 0.172-0.112 0.324-0.112 0.137 0 0.24 0.019 0.31 0.057s0.106 0.108 0.106 0.207c0 0.082-0.046 0.142-0.138 0.181-0.051 0.022-0.136 0.041-0.255 0.056l-0.218 0.027c-0.248 0.031-0.436 0.084-0.564 0.157-0.233 0.135-0.35 0.352-0.35 0.652 0 0.231 0.072 0.41 0.217 0.536s0.329 0.179 0.551 0.189c1.392 0.062 1.377-0.734 1.39-0.9v-0.916c0-0.294-0.104-0.494-0.313-0.6z"></path>
<path fill="#00aeef" d="M26.895 17.67c-0.1 0.132-0.242 0.199-0.428 0.199s-0.33-0.066-0.43-0.199c-0.101-0.132-0.151-0.32-0.151-0.564s0.050-0.431 0.151-0.563c0.1-0.132 0.243-0.197 0.43-0.197s0.329 0.065 0.428 0.197c0.1 0.132 0.149 0.319 0.149 0.563s-0.050 0.432-0.149 0.564v0zM27.404 16.195c-0.205-0.257-0.517-0.386-0.936-0.386s-0.73 0.128-0.935 0.386c-0.205 0.257-0.308 0.561-0.308 0.912 0 0.357 0.103 0.662 0.308 0.916 0.205 0.253 0.517 0.38 0.935 0.38s0.73-0.127 0.936-0.38c0.205-0.254 0.307-0.559 0.307-0.916 0-0.351-0.102-0.655-0.307-0.912z"></path>
</svg>
