<!-- Generated by IcoMoon.io -->
<svg version="1.1" xmlns="http://www.w3.org/2000/svg" width="32" height="32" viewBox="0 0 32 32">
<title>mercado-pago-letras</title>
<path fill="#253e8b" d="M29.634 13.948c-0.167 0.221-0.405 0.331-0.716 0.331s-0.55-0.11-0.718-0.331-0.251-0.536-0.251-0.943c0-0.407 0.084-0.721 0.251-0.941s0.407-0.33 0.718-0.33c0.312 0 0.55 0.111 0.716 0.33s0.25 0.534 0.25 0.941-0.084 0.722-0.25 0.943zM30.485 11.48c-0.344-0.43-0.864-0.645-1.564-0.645s-1.22 0.215-1.563 0.645c-0.344 0.431-0.515 0.939-0.515 1.525 0 0.597 0.172 1.107 0.515 1.531 0.343 0.423 0.864 0.635 1.563 0.635 0.7 0 1.22-0.212 1.564-0.635s0.515-0.935 0.515-1.531c0-0.586-0.171-1.094-0.515-1.525z"></path>
<path fill="#253e8b" d="M21.17 13.445c-0.007 0.357-0.109 0.603-0.305 0.738s-0.411 0.203-0.644 0.203c-0.147 0-0.271-0.041-0.375-0.122s-0.153-0.213-0.153-0.396c0-0.204 0.084-0.354 0.251-0.452 0.1-0.057 0.263-0.106 0.491-0.145l0.243-0.045c0.121-0.023 0.216-0.048 0.286-0.074s0.139-0.060 0.206-0.103v0.397zM21.711 11.12c-0.348-0.176-0.747-0.265-1.195-0.265-0.689 0-1.176 0.18-1.459 0.539-0.179 0.23-0.278 0.523-0.302 0.88h1.030c0.025-0.158 0.076-0.282 0.152-0.374 0.107-0.125 0.287-0.187 0.542-0.187 0.228 0 0.401 0.031 0.518 0.096 0.117 0.063 0.176 0.179 0.176 0.346 0 0.137-0.076 0.238-0.23 0.304-0.086 0.037-0.227 0.068-0.427 0.093l-0.365 0.045c-0.415 0.052-0.73 0.14-0.943 0.262-0.39 0.225-0.585 0.587-0.585 1.089 0 0.386 0.121 0.685 0.363 0.896s0.55 0.299 0.921 0.317c2.329 0.104 2.303-1.227 2.324-1.504v-1.532c0-0.491-0.174-0.826-0.522-1.004z"></path>
<path fill="#253e8b" d="M16.401 11.767c0.267 0 0.462 0.082 0.588 0.247 0.087 0.121 0.141 0.259 0.162 0.411h1.149c-0.063-0.58-0.266-0.984-0.608-1.214-0.344-0.228-0.783-0.343-1.321-0.343-0.633 0-1.13 0.194-1.489 0.582s-0.539 0.931-0.539 1.629c0 0.617 0.163 1.121 0.488 1.51s0.833 0.582 1.524 0.582c0.691 0 1.212-0.232 1.564-0.698 0.22-0.288 0.344-0.594 0.37-0.918h-1.145c-0.024 0.214-0.090 0.388-0.202 0.523-0.11 0.133-0.297 0.201-0.559 0.201-0.371 0-0.623-0.168-0.758-0.508-0.073-0.18-0.11-0.42-0.11-0.718 0-0.313 0.037-0.563 0.11-0.752 0.14-0.356 0.399-0.534 0.777-0.534z"></path>
<path fill="#253e8b" d="M14.035 10.868c-2.36 0-2.22 2.090-2.22 2.090v2.122h1.070v-1.991c0-0.326 0.041-0.568 0.123-0.724 0.147-0.278 0.434-0.418 0.862-0.418 0.032 0 0.074 0.002 0.127 0.005 0.052 0.002 0.111 0.007 0.179 0.015v-1.090c-0.048-0.003-0.078-0.005-0.092-0.006s-0.030-0.002-0.050-0.002z"></path>
<path fill="#253e8b" d="M8.661 11.977c0.151-0.155 0.363-0.232 0.635-0.232 0.251 0 0.461 0.073 0.631 0.219s0.263 0.36 0.283 0.642h-1.832c0.038-0.265 0.133-0.474 0.283-0.629zM10.1 13.971c-0.045 0.064-0.093 0.119-0.147 0.162-0.151 0.125-0.356 0.162-0.598 0.162-0.229 0-0.408-0.035-0.57-0.137-0.267-0.164-0.417-0.442-0.434-0.85h2.963c0.004-0.351-0.007-0.62-0.036-0.807-0.049-0.318-0.157-0.599-0.324-0.841-0.185-0.274-0.42-0.475-0.703-0.602s-0.602-0.19-0.956-0.19c-0.597 0-1.081 0.188-1.455 0.563s-0.561 0.916-0.561 1.621c0 0.752 0.207 1.295 0.621 1.629s0.892 0.501 1.433 0.501c0.656 0 1.165-0.198 1.53-0.594 0.196-0.208 0.32-0.414 0.372-0.617h-1.136z"></path>
<path fill="#253e8b" d="M6.851 15.079h-0.979v-2.463c0-0.225-0.074-0.76-0.719-0.76-0.43 0-0.741 0.31-0.741 0.76v2.463h-0.979v-2.463c0-0.225-0.067-0.76-0.712-0.76-0.438 0-0.742 0.31-0.742 0.76v2.463h-0.978v-2.44c0-1.017 0.674-1.786 1.72-1.786 0.519 0 0.941 0.218 1.216 0.568 0.289-0.349 0.719-0.568 1.216-0.568 1.068 0 1.698 0.738 1.698 1.786v2.44z"></path>
<path fill="#253e8b" d="M25.24 13.957c-0.156 0.224-0.386 0.336-0.687 0.336s-0.526-0.113-0.673-0.337c-0.148-0.226-0.222-0.554-0.222-0.929 0-0.348 0.072-0.64 0.218-0.875 0.145-0.235 0.373-0.353 0.684-0.353 0.204 0 0.383 0.064 0.538 0.194 0.251 0.214 0.377 0.598 0.377 1.096 0 0.355-0.078 0.645-0.235 0.869zM26.525 9.582c0 0-1.079-0.115-1.079 0.751l-0.001 1.147c-0.12-0.191-0.275-0.342-0.466-0.45s-0.41-0.163-0.657-0.163c-0.534 0-0.961 0.199-1.281 0.597s-0.479 0.972-0.479 1.666c0 0.602 0.163 1.096 0.487 1.48 0.325 0.384 0.962 0.553 1.527 0.553 1.972 0 1.949-1.691 1.949-1.691l0.001-3.891z"></path>
<path fill="#00aeef" d="M10.615 18.979c0-0.404-0.079-0.714-0.237-0.932-0.157-0.217-0.383-0.327-0.677-0.327-0.282 0-0.503 0.11-0.661 0.327-0.146 0.196-0.219 0.508-0.219 0.932 0 0.395 0.078 0.689 0.236 0.885 0.157 0.218 0.383 0.327 0.676 0.327 0.273 0 0.489-0.109 0.645-0.327 0.158-0.217 0.237-0.511 0.237-0.885v0zM8.82 21.876c0 0.144-0.053 0.269-0.159 0.372-0.104 0.104-0.23 0.156-0.377 0.156h-0.534v-3.721c0-0.724 0.243-1.176 0.645-1.483 0.265-0.202 0.66-0.396 1.401-0.396 0.5 0 1.085 0.195 1.401 0.58 0.355 0.434 0.503 0.917 0.503 1.547 0 0.653-0.158 1.18-0.472 1.585-0.314 0.394-0.719 0.59-1.212 0.59-0.262 0-0.493-0.047-0.692-0.139-0.211-0.104-0.377-0.265-0.503-0.482v1.391z"></path>
<path fill="#00aeef" d="M17.032 18.979c0 0.714 0.207 1.109 0.619 1.187s0.716-0.019 0.912-0.287c0.093-0.113 0.16-0.293 0.201-0.535s0.044-0.484 0.008-0.722c-0.035-0.239-0.121-0.451-0.255-0.637s-0.33-0.279-0.588-0.279c-0.35 0-0.587 0.13-0.711 0.388s-0.186 0.554-0.186 0.885v0zM18.795 20.764v-0.263c-0.186 0.29-0.436 0.47-0.751 0.542s-0.626 0.047-0.934-0.078c-0.31-0.124-0.576-0.354-0.797-0.69-0.222-0.337-0.332-0.779-0.332-1.327 0-0.641 0.147-1.161 0.44-1.559s0.766-0.58 1.415-0.598c0.64-0.017 1.011 0.128 1.376 0.404 0.398 0.302 0.633 0.766 0.633 1.49v2.189c0.002 0.696-0.484 1.987-2.010 1.878-0.945-0.069-1.47-0.457-1.763-1.335h1.129c0.082 0.144 0.208 0.255 0.379 0.332 0.169 0.079 0.34 0.099 0.509 0.062 0.17-0.036 0.325-0.137 0.465-0.302 0.139-0.165 0.218-0.414 0.239-0.745z"></path>
<path fill="#00aeef" d="M14.524 19.411c-0.007 0.357-0.109 0.602-0.305 0.738-0.196 0.134-0.411 0.202-0.644 0.202-0.148 0-0.273-0.041-0.375-0.121s-0.154-0.213-0.154-0.396c0-0.204 0.084-0.355 0.252-0.452 0.1-0.057 0.263-0.107 0.491-0.146l0.243-0.045c0.121-0.023 0.216-0.048 0.286-0.074s0.139-0.060 0.207-0.102v0.397zM15.065 17.086c-0.349-0.176-0.747-0.266-1.195-0.266-0.69 0-1.176 0.18-1.46 0.539-0.178 0.23-0.278 0.522-0.301 0.88h1.030c0.025-0.158 0.076-0.282 0.151-0.375 0.107-0.125 0.287-0.187 0.542-0.187 0.229 0 0.401 0.031 0.519 0.095s0.176 0.179 0.176 0.346c0 0.137-0.077 0.238-0.23 0.304-0.085 0.037-0.227 0.068-0.427 0.093l-0.365 0.045c-0.414 0.052-0.73 0.14-0.943 0.262-0.39 0.224-0.585 0.588-0.585 1.089 0 0.386 0.121 0.686 0.363 0.896s0.55 0.299 0.921 0.317c2.327 0.104 2.302-1.228 2.323-1.504v-1.532c0-0.491-0.174-0.825-0.522-1.003z"></path>
<path fill="#00aeef" d="M23.046 19.89c-0.167 0.222-0.405 0.332-0.716 0.332s-0.552-0.111-0.719-0.332c-0.168-0.22-0.252-0.534-0.252-0.942s0.084-0.72 0.252-0.941c0.167-0.22 0.407-0.329 0.719-0.329s0.549 0.109 0.716 0.329c0.167 0.22 0.25 0.534 0.25 0.941s-0.084 0.722-0.25 0.942v0zM23.897 17.423c-0.344-0.431-0.865-0.645-1.565-0.645-0.698 0-1.22 0.214-1.563 0.645-0.344 0.43-0.515 0.937-0.515 1.524 0 0.597 0.172 1.106 0.515 1.531 0.343 0.423 0.865 0.636 1.563 0.636 0.7 0 1.221-0.212 1.565-0.636 0.343-0.424 0.514-0.933 0.514-1.531 0-0.587-0.171-1.095-0.514-1.524z"></path>
</svg>
