<?xml version="1.0" encoding="UTF-8"?>
<!DOCTYPE svg PUBLIC "-//W3C//DTD SVG 1.1//EN" "http://www.w3.org/Graphics/SVG/1.1/DTD/svg11.dtd">
<!-- Creator: CorelDRAW 2017 -->
<svg xmlns="http://www.w3.org/2000/svg" xml:space="preserve" width="19.5578mm" height="24.1298mm" version="1.1" style="shape-rendering:geometricPrecision; text-rendering:geometricPrecision; image-rendering:optimizeQuality; fill-rule:evenodd; clip-rule:evenodd"
viewBox="0 0 1955.78 2412.98"
 xmlns:xlink="http://www.w3.org/1999/xlink">
 <defs>
  <style type="text/css">
   <![CDATA[
    .fil0 {fill:#292929}
   ]]>
  </style>
 </defs>
 <g id="Capa_x0020_1">
  <metadata id="CorelCorpID_0Corel-Layer"/>
  <g id="_2235815459088">
   <path class="fil0" d="M1733.5 1485.98c-10.85,25.68 -20,2.47 -43.77,40.95 41.88,-0.09 66.4,-1.85 106.57,4.93 -14.56,63.73 -151.49,111.1 -210.5,128.71 22.71,19.57 51.26,23.45 71.32,39.49 -6.85,8.44 -10.36,11.97 -26.44,14.04 -36.19,4.66 -68.22,-12.46 -99.95,-20.1l4.67 41.04c-43.81,-0.81 -65.85,-22.84 -66.21,-65.82 -12.69,-19.51 -15.48,-64.21 -15.14,-91.64l120.95 -134.76c13.48,-18.86 24,-40.35 41.81,-48.23 17.6,-44.89 35.2,-96.69 41.55,-152.68 4.84,-42.6 -0.49,-145.36 18.11,-176.3 12.64,5.65 16.41,13.27 23.81,25.41 3.62,23.92 19.91,50.28 26.71,77.5 5.89,23.6 7.2,61.39 14.11,77.59 5.52,12.93 0.33,2 5.47,7.55l40.62 -93.38c11.19,94.02 -14.7,112.02 -26.56,190.36l76.37 -12.77c-5.31,58.77 -60.78,121.35 -103.5,148.11zm-1115.62 -264.78c44.82,-11.72 93.78,-70.38 111.51,-110.8 16.61,7.71 34.42,36.12 51.68,49.77 21.27,16.84 38.61,20.23 58.65,34.76 -9.42,14.45 -79.16,71.32 -102.18,80.74 5.97,-19.49 11.7,-17 13.36,-44.16l-74.62 37.99 -7.43 -22.2 -39.04 13.86 -11.93 -39.96zm144.54 -224.16c-17.59,-7.94 -12.57,-20.25 -3.07,-33.41 5.8,9.43 6.12,21.23 3.07,33.41zm17.58 -11.48c-7.19,-10.94 -10.5,-16.18 3.84,-22.38 1.12,2.97 3.26,5.06 1.86,12.8 -3.12,17.36 -1.16,4.6 -5.7,9.58zm305.26 -294.09c0.89,-59.93 -6.56,-50.64 25.21,-84.19 8.74,9.87 14.38,17.69 23.85,27.27 10.04,10.15 19.08,16.98 28.33,24.62 -11.9,12.79 -56.98,26.82 -77.39,32.3zm-864.62 400.02c18.95,7.47 29.99,-8.71 38.77,-21.73 12.21,-18.12 15.43,-30.43 39.96,-36.74 -6.52,52.11 -15.91,81.55 -0.5,134.39 10.64,36.47 35.27,78.24 69.64,86.89l-0.58 -37.65c21.88,17.18 35.99,41.18 55.6,59.66 19.45,18.34 38.11,19.34 11.68,80.32 -19.29,-4.47 -13.67,-11.24 -41.28,-6.85 -11.85,43.11 5.09,101.31 -34.95,71.87 -8,-5.88 -11.14,-13.35 -18.63,-23.88 -6.16,-8.68 -28.93,-38.96 -35.45,-44.62 -5.52,20.33 -5,52.14 -19.1,67.42 -34.05,-30.24 -29.66,-87.68 -49.81,-116.44 -66.25,56.97 -48.66,135.04 -133.01,-9.88 -17.49,-30.06 -34.77,-67.2 -46.16,-103.32 -16.22,-51.43 -60.17,-209.16 -19.99,-252.67 3.31,-84.98 113.5,-157.2 178.18,-192.52 77.56,-42.35 159.1,-92.48 245.05,-126.64 84.96,-33.76 199.05,-64.91 299.9,-72.1 79.08,-5.63 95.03,-2.15 120.48,61.75 9.81,24.64 20.1,45.17 9.86,72.79 -10.92,29.48 -26.14,31.99 -39.94,48.86 -5.85,-52 5.23,-67.42 -23.12,-110.54 -12.93,-19.66 -40.93,-60.46 -76.88,-51.48 12.14,36.87 54.4,38.69 64.22,102.2 9.85,63.7 -4.58,90.43 -63.04,101.86 -0.16,-51.37 -28.54,-194.37 -105.64,-170.47 2.53,30.3 16.08,10.96 36.47,32.35 10.76,11.3 16.36,25.97 22.68,42.53 48.79,127.63 -16.23,123.7 -90.78,142.62 -122.96,31.21 -252.93,110.55 -344.65,191.47 -18.25,16.09 -47.36,43.59 -48.98,80.55zm1124.54 120.55c-1.51,33.75 9.4,75.09 17.25,106.4 6.9,27.5 24.54,75.99 27.27,98.98 0.85,42.42 27.95,115.81 34.72,168.13 7.19,55.67 7.16,127.43 29.84,173.3 36.18,73.19 118.15,184.19 134.4,274.33 18.59,23.94 21.52,65.79 34.44,97.02 21.04,50.88 48.41,101.12 85.78,140.37 15.85,16.66 86.33,90.33 28.89,101.27 -25.53,-35.12 -12.74,-80.72 -62.09,-81.61 4.57,37.49 29.46,41.86 33.91,91l-40.77 0.55 -9.68 -15.81c-13.28,-28.06 -25.77,-86.63 -81,-89.83 13.05,34.41 56.5,51.44 60.04,97.56 -21.28,23.18 -111.01,2.65 -137.31,-2.58 -159.75,-31.73 -110.84,-41.78 -167.4,-154.2 -28.59,-56.84 -49.87,-71.84 -63.47,-99.65 -10.95,-6.41 -5.05,-6.04 -18.41,-9.33 3.8,30.16 17.63,47.72 20.32,86.31 -34.69,-13.15 -46.88,-61.75 -74.32,-78.18 -10.68,15.18 -12.21,41.27 -22.99,56.74 -38.97,-19.28 -57.62,-82.43 -94.74,-106.51l0 60.34c-47.9,-6.83 -102.07,-95.14 -138.62,-119.07 -13.65,-8.95 -74.7,-21.55 -98.6,-31.67 -23.69,-10.04 -66.79,-39.9 -89.6,-39.56l-15.5 -0.38c12.87,30.14 61.91,33.89 81.68,60.43 -5.19,15.56 -35.32,58.88 -54.54,65.54l-9.38 -21.22c-10.66,4.76 -35.28,21.52 -38.07,26.06l4.24 -45.38c-43.49,22.61 -94.98,64.83 -81.89,138.87 12.18,68.89 54.77,96.71 28.48,180.09l-37.69 10.18 -185.18 6.77c2.36,-58.75 33.75,-47.27 34.93,-87.84 -16.74,3.98 -38.24,29.22 -47.3,42.52 -26.2,38.49 8.5,44.23 -48.8,41.15 2.9,-28.82 21.25,-56.16 40.54,-61.76l1.57 -17.19c-15,3.54 -14.44,5.77 -26.76,9.65 10.85,-22.18 26.59,-31.33 34.79,-54.54 -27.28,-33.57 -58.2,-61.14 -73.21,-116.67 -29.89,-110.64 21.31,-204.62 94.15,-276.39 29.07,-28.65 69.81,-84 98.46,-95.49 9.54,14.34 20.22,33.13 29.31,50.47 4.18,7.96 13.47,31.84 22.72,35.64 24.48,10.04 16.2,-2.92 17.84,-4.92 -7.87,-25.48 -25.17,-34.03 -26.92,-63.29 -23.47,-22.79 -78.14,-165.87 -80.62,-210.48 12.95,-12.64 9.16,-12.37 30,-20.82 9.94,-14.52 11.46,-14.55 27.62,-20.24 21.31,48.28 9.82,188.48 94.13,166.48 56.36,-14.7 108.8,-94.02 137.81,-124.07 6.87,30.34 4.55,58.4 20.4,82.93 34.78,11.33 76.14,-35.69 88.47,-49.66 17.74,-20.12 54.99,-75.18 64.9,-81.51 11.94,20.43 9.14,34.87 23.14,50.03 26.88,-5.35 44.55,-33.07 57.63,-56.53 16.34,-29.31 28.17,-67.82 37.99,-78.68l3.86 40.3 4.48 21.43c27.24,-5.35 47.51,-28.77 59.54,-45.62 10.33,-14.48 32.46,-53.92 42.84,-62.69 4.49,-8.57 7.84,-13.1 12.27,-20.76 1.16,-2.01 4.19,-7.35 4.59,-9.76 1.83,-11.12 4.27,-2.07 -1.85,-8.92 -7.43,9.44 -18.28,17.62 -26.54,26.09 -27.42,28.12 -52.71,71.18 -75.98,77.61 -6.88,-31.25 -6.58,-61.84 -11.43,-93.72 -29.68,27.44 -41.21,159.14 -97.89,174.86 -9.01,-17.84 -12.35,-39.91 -21.5,-58.01l-66.98 77.65c-77.68,97.46 -99.84,63.26 -99.4,-34.72 -32.59,2.5 -95.91,137.82 -178.07,134.71 -43.41,-43.28 -46.47,-97.57 -50.95,-169.52 -33.56,12.6 -61.26,52.01 -94,60.02 -8.96,6.38 -10.75,5.99 -23.62,8.43 -19.6,-33.4 -9.76,-161.14 -0.46,-192.76 5.74,-19.53 5.42,-9.56 13.64,-20.52 9.76,-13.01 -0.8,-6.07 5.97,-24.74 17.16,13.2 17.11,36.65 45.98,49.06 12.75,-11.33 16.94,-34.61 23.72,-52.25 8.43,-21.94 12.27,-38.28 35.31,-43.65 -1.64,33.94 -8.7,12.23 -12.87,38.23l56.2 -10.72 -8.89 31.73c39.18,-4.14 41.36,-21.05 70.56,-31 -6.28,18.99 -13.13,22.95 -16.32,47.05 46.57,-9.46 103.54,-69.66 138.97,-85.52l-4.5 40.32c38.85,-13.99 40.17,-41.4 70.28,-55.09 21.89,7.64 45.78,43.93 55.45,72.33 10.05,16.51 10.85,16.83 3.07,38.65 -11.12,31.23 -32.38,66.93 -40.12,99.13 20.24,-9.38 43.85,-53.14 57.7,-77.7 24.05,-42.65 23.98,-50.34 29.8,-105.74l7.95 27.39c25.44,-7.51 45.61,-36.57 59.51,-58.01 12.73,-19.63 29.28,-56.89 40.8,-70.26 4.14,13.63 4.94,27.01 13.5,36.98 39.22,-19.49 55.14,-94.22 46.95,-150.88 -4.29,-29.7 -12.96,-52.6 -24.44,-78.42 -8.81,-19.82 -27.87,-48.6 -32.04,-64.77 -12.47,-7.43 -9.44,-1.88 -13.15,-16.49 -26.3,-21.49 -16.02,-82.6 -15.36,-130.71 12.18,-11.66 46.21,-27.17 66.92,-34.24l105.2 -47.5c57.59,-46.16 547.95,-215.03 645.83,-208.47 17.92,18.94 29.26,54.15 25.44,88.5 -12.93,-20.19 -12.19,-35.52 -30.64,-47.48 -22.02,-14.27 -47.02,-17.11 -53.38,11.9 47.48,10.66 65.04,17.48 59.14,105.72 -3.79,56.57 -23.05,78.81 -60.77,98 2.59,-48.2 41.64,-96.09 1.35,-146.49 -24.74,-30.95 -111.23,-34.7 -120.32,9.1 25.2,8.93 46.8,-9.77 87.23,-5.87 19.15,19.87 28.74,40.52 20.66,77.6 -29.33,134.56 -31.11,59.55 -200.04,102.27 -71.73,18.14 -52.76,8.27 -95.66,107.34 -11.73,27.1 -49.72,123.05 -67.38,137.83l15.25 -118.52c-30.44,23.86 -136.22,254.84 -138.21,337.24zm-447.14 -1013.74l7.31 4.15c27.54,-41.87 86.01,-29.91 120.8,-2.83 -3.76,44.53 -20.27,37.59 -36,64.23l10.85 1.11 25.55 -3.61c9.3,-19.31 3.66,-30.33 19.16,-49.58l18.07 14.67c-2.33,30.42 -17.31,46.03 -16.56,88.1 0.56,30.56 6.49,61.82 8.42,92.49 -24.87,-3.39 -28.71,-11.83 -57.08,-12.85 -22.96,-0.81 -46.1,1.67 -68.92,1.05 -30.65,-0.63 -122.3,8.97 -136.67,27.48 71.17,-7.03 206,-14.04 264.16,16.94 40.92,21.8 109.58,110.6 112,183.25 -45.24,-12.37 -45.74,-59.57 -82.28,-76.04l0.68 50.11c-21.7,-8.79 -29.48,-28.11 -54.31,-51.6 -8.86,7.3 -3.74,3.19 -9.54,12.73l-9.98 13.76c-17,-9.85 -27.69,-22.56 -43.32,-33.89 -37.22,-27 -128.4,-53.06 -173.06,-55.28 -12.25,2.51 -5.39,-0.74 -10.94,3.6l34.62 14.39c34.76,4.47 95.14,29.46 122.99,44.56 63.23,34.28 61.57,69.85 97.79,37.55l18.74 30.87c0.21,52.13 -9.51,197.06 -0.56,237.1 6.61,23.38 26.38,43.82 38.62,64.62 34.5,58.6 87.54,184.4 33.02,234.01 -9.31,-18.2 0.69,-31.7 -14.46,-50.58l-41.35 78.46c-13.31,24.79 -31.61,59.09 -52.14,68.01 0.29,-28.99 3,-51.89 -6.59,-75.85 -21.5,20.4 -15.47,79.58 -42.59,92.83l-5.37 18.1c-32.39,-9.75 -16.84,-59.92 -109.06,-99.61 -26.76,-11.52 -47.53,-19.86 -68.29,-35.14 -15.04,-11.07 -34.27,-37.94 -39.79,-64.84 7.01,-10.85 17.94,-21.83 28.54,-26.82 10.04,-23.64 60.07,-68.11 35.91,-109.09 -24.7,-41.89 -209.32,-11.92 -214.22,59.43 -2.86,41.47 60.06,45.5 79.61,72.64l19.79 5.22c10.29,64.65 -43.37,93.25 -78.73,117.33 -66.91,45.54 -46.5,46.98 -83.03,118.84 -42.11,-16.72 -45.82,-83.48 -74.61,-99.51 -5.89,28.61 6.05,51.54 7.65,79.65 -28.67,-12.52 -45.13,-39.23 -64.46,-60.63 -17.05,-18.87 -41.9,-56.02 -58.33,-68.71l0.52 50.54c-52.7,-13.58 -40.88,-145 -26.03,-195.9 11.91,-40.84 27.69,-40.21 61.93,-60.66 24.96,-14.91 52.83,-28.84 81.05,-41.66 56.47,-25.65 112.13,-51.48 173.74,-71.36 31.19,-10.07 63.48,-15.77 95.17,-27.44 34.16,-12.57 48.92,-29.72 89.48,-31.98 19.69,-25.79 71.6,-15.91 96.8,-69.1 15.93,-33.61 2.03,-25.17 38.34,-41.96 21.5,-9.95 38.99,-16.9 21.18,-41.93 -23.99,1.26 -34.77,18.05 -57.27,25.88 -7.02,-88.88 -41.17,-94.82 -58.61,-123.07 -13.22,-5.95 -12.97,-8.26 -20.51,-12.37 -9.09,-4.96 -10.99,-2.41 -19.99,-7.38 -27.25,3.98 -63.89,1.46 -94.85,4.95 -81.63,9.2 -206.53,49.94 -246.17,48.34 15.92,-10.72 82.81,-57.11 83.99,-72.25 -24.72,10.74 -46.53,26.83 -73.95,39.69 -46.01,48.46 -191.79,134.82 -251,148.83 1.66,-20.29 3.33,-44.62 14.92,-62.24l3.86 -4.61c6.39,-64.27 54.74,-90.33 106.66,-114.31 55.01,-25.41 111.07,-34.75 164.35,-55.76 -16.86,-22.78 -188.72,38.59 -219.47,45.65 -8.08,16.52 -13.56,22.67 -34.06,28.02 -3.32,-33.71 -10.86,-68.87 -24.36,-98.13 -21.86,-47.38 -42.77,-49.72 -37.1,-78.26 31.58,-5.18 24.71,29.6 63.24,30.27 10.59,-7.2 9.41,-6.2 14.1,-21.21l-2.58 -6.85c-28.14,2.98 -36.61,1.74 -57.15,-15.32 3.97,-23.29 30.35,-42.72 45.87,-53.46 34.67,-23.98 43.98,-3.63 78.74,-1.71 0.48,-20.18 -56.08,-36.17 -87.16,-18.17 -34.77,20.15 -91.56,98.66 -119.24,133.63l-43.33 48.67c-10.71,13.16 -4.53,10.11 -18.12,12.43 -18.13,16.17 -34.67,25.47 -68.38,21.51 -1.9,-48.26 25.23,-93.52 50.52,-131.36 8.89,-13.3 17.01,-21.7 24.9,-35.44l8.58 19.92c25.23,-58.42 81.5,-174.98 129.34,-188.31 23.44,-17.08 53.92,14.37 65.35,25.27 16.06,15.34 34.01,30.87 47.44,46.89 0.9,0.55 2.03,1.36 2.63,1.77 45.11,31 39.21,69.86 75.41,50.83 1.82,-10.11 -14.79,-39.63 21.67,-47.46 14.97,17.47 8.6,25.08 16.3,45.35l2.86 5.26c35.66,-22.26 63.74,-76.68 110.84,-92.28 -2.77,29.81 -14.03,45.96 -19.79,72.79 36.86,-12.01 92.74,-73.86 125.37,-68.14l2.17 50.63c44.58,-9.35 76.51,-34.61 127.69,-40.69l-9.26 26.88c59.41,-4.7 38.94,0.01 68.48,-69.29 15.46,-36.26 69.21,-170.05 118.71,-113.35 23.44,5.16 70.02,40.21 87.01,54.3 27.39,22.72 41.86,47.5 69.25,67.69 16.18,1.94 6.25,2.91 9.75,-6.15l-3.88 -8.76c22.74,9.16 51.23,32.85 68.52,48.95 23.29,21.68 41.19,29.84 52.66,63.45 0.21,0.33 11.87,-4.98 1.64,13.95 -1.65,3.06 -7.92,5.86 -11.98,7.07 -78.41,23.5 -198.88,-94.01 -270.9,-120.43 -40.96,-15.02 -86.43,7.77 -97.93,38.52zm-356.33 1515.66c-115.53,95.94 -235.91,219.74 -209.17,389.21 14.03,88.96 42.9,85.61 71.16,130.75 -5.52,19.68 -113.16,108.21 -28.34,140.33 32.23,12.21 175.84,7.44 220.76,6.88 84.59,-1.06 120.71,-33.15 101.99,-122.54 -19.32,-92.22 -56.01,-93.66 -13.82,-178.26 4.7,4.25 1.53,1.61 5.13,6.71l10.13 13.49c14,-9.72 23.32,-20.63 38.84,-28.44l17.54 20.25c33.94,-14.76 59.45,-56.13 85.37,-85.49 17.29,2.71 63.76,16.88 81.52,22.93 45.97,15.65 124.76,143.95 172.42,128.92l6.57 -36.84c15.02,6.46 8.45,4.67 25.18,29.44 29.07,43.03 49.28,71.23 77.42,18.02 32.16,10.3 36.98,40.31 81.37,48.58l5.43 -24.27c27.49,25.02 41.06,114.85 67.45,151.22 41,56.51 268.35,76 355.34,64.39 69.89,-9.34 94.77,-56.54 52.38,-115.73 -13.15,-18.35 -34.8,-42.41 -49.72,-57.65 -68.47,-69.95 -104.65,-249.18 -165.91,-370.57 -26.48,-52.47 -70.39,-103.9 -74.33,-136.15 33.21,11.1 49.08,33.07 93.48,40.88l-7.18 -36.8c49.46,2.81 111.67,20.46 137.5,-20.33 -3.48,-12.95 -11.25,-19.52 -20.88,-25.77 -16.18,-10.49 -13.07,-5.85 -24.85,-20.2 16.92,-13.03 42.83,-15.84 63.91,-23.2 45.29,-15.8 120.39,-80.55 121.03,-129.12l-92.79 -2.42c21.28,-38.8 122.48,-65.48 114.39,-199.65l-66.54 6.86c5.65,-41.21 48.4,-171.42 -10.41,-203.45l-33.07 74.52c-5.19,-41.51 -9.83,-140.56 -82.2,-153.2 -30.05,36.88 -23.52,234.2 -55.4,302.27 -21.6,46.13 -131.72,181.62 -164.44,195.04 -20.06,-83.55 -41.46,-171.35 -60.27,-257.73 -10.78,-49.52 -12.85,-92.24 2.17,-140.71 8.58,-27.73 36.21,-88.73 51.62,-104.86 0.43,21.83 -6.04,41.67 4.12,61.15 8.69,-3.54 10.83,-7.74 16.36,-18.27 4.56,-8.7 7.49,-14.52 11.57,-22.99 7.9,-16.36 14.79,-31.24 21.67,-47.26 13.35,-31.07 26.21,-62.95 40.77,-93.37 54.24,-113.31 33.73,-120.78 129.78,-142.28 93.13,-20.84 142.53,24.11 217.38,-46.78 99.28,-94.04 87.73,-269.3 26.81,-288.77 -71.83,-22.95 -449.59,108.02 -528.9,139.1 -50.65,19.85 -141.46,67.8 -192.08,76.82 1.12,-42.61 -4.28,-80.25 -20.06,-114.89 -44.05,-96.67 -77.89,-48.56 -90.92,-176.9 -6.23,-61.34 -3.51,-59.61 7.56,-115.3 39.67,15.32 67.24,42.16 115.24,57.45 42.36,13.5 123.87,11.32 99.83,-50.18 -26.81,-68.59 -207.82,-192.54 -286.61,-230.57 -56.52,-27.28 -87.12,-25.21 -115.19,21.62 -14.59,24.32 -45.29,99.57 -58.3,114 -19.43,21.54 -87.18,41.03 -123.13,45.01l-5.7 -46.85c-49.76,-3.62 -70.74,31.4 -103.68,35.32 6.18,-20.42 12.91,-24.13 16.57,-50.31 -66.99,7.73 -103.04,65.36 -141.59,82.05 -4.19,-14.24 -12.53,-44.73 -19.46,-55.88 -27.64,12.56 -37.39,39.34 -59.97,56.32 -25.26,-7.84 -73.03,-79.09 -121.59,-101.51 -34.74,-16.03 -60.4,0.39 -80.24,17.67 -18.69,16.27 -36.71,37.09 -53.27,57.94 -38.52,48.49 -159.09,201.74 -150.65,293.34 38.15,35.85 90.5,10.93 116.39,-13.58 25.77,-24.39 70.75,-80.19 82.77,-85.69 27.86,28.49 52.29,88.62 56.58,145.69 1.8,23.86 -11.11,59.43 -17.83,80.74 -9.64,30.54 -11.28,50.72 -17.54,81.34 -3.08,15.11 1.35,11.02 -26.81,27.54 -11.11,6.52 -20.29,12.9 -30.28,19.46 -60.41,39.66 -114.66,81.95 -143.99,154.94 -39.84,99.16 -14.5,249.21 24.51,338.46 22.46,51.39 44.75,86.54 73.93,125.23 66.3,87.88 84.07,17.61 107.96,-0.81 29.45,29.63 26.08,95.55 69.88,108.75 4.04,-10.48 9.54,-20.1 12.68,-33.83 1.38,-6.01 2,-13.54 3.45,-18.82 1.54,-5.64 1.43,-4.43 3.32,-8.85l3.26 -5.56c16.43,32.78 44.76,63.84 87.05,57.72 6.82,-36.76 -3.88,-61.95 1.4,-98.31 23.09,6.33 12.2,12.85 33.5,18.81 7.39,-9.63 8.19,-17.38 16.52,-25.56 -1.57,41.75 -6.7,82.51 -8.01,124.55 -1.61,51.91 -3.44,69.33 44.34,79.98 8.4,61.23 37.9,101.12 49.82,154.81z"/>
   <path class="fil0" d="M1296.08 1196.35c5.62,-4.62 1.13,1.18 8.36,-8.73l27.14 -64.82c17.01,-49.76 68.23,-206.79 62.98,-246.66l-59.69 150.35c-14.86,41.13 -46.39,124.08 -38.79,169.86z"/>
   <path class="fil0" d="M888.04 807.25l-10.95 -0.93 0.12 11.56c10.05,7.2 8.9,8.45 16.53,18.88 6.19,8.46 12.54,14.26 18.04,20.18 3.08,-9.07 0.06,-4.17 0.48,-8.46l1.83 -10.18c11.54,6.35 17.94,11.88 27.71,19.37 7.66,5.88 17.9,13.1 24.37,18.12 -5.48,-26.24 -38.08,-61.21 -59.94,-73.33l-2.32 9.85c-0.11,0.43 -0.53,1.8 -0.63,2.15 -0.1,0.37 -0.29,1.54 -0.68,2.2l-14.56 -9.41z"/>
   <path class="fil0" d="M169.24 1282.57c-16.96,-45.98 -47.28,-112.9 -81.04,-128.37 15.25,37.73 57.67,105.13 81.04,128.37z"/>
   <path class="fil0" d="M1275.2 1107.51c14.13,-33.14 29.85,-91.78 28.28,-132.85 -24.42,16.78 -29.88,96.38 -28.28,132.85z"/>
   <path class="fil0" d="M1526.99 2077.85c15.7,-6.96 11.97,-6.82 22.04,-15.64l-2.05 44.3c16.94,-5.12 18.11,-36.13 8.34,-50.33 -18.53,-26.96 3.72,-14.26 -8.8,-60.78l-6.87 17.38c-1.79,7.76 -3.1,15.45 -4.57,22.49 -3.08,14.8 -5.82,27.59 -8.09,42.58z"/>
   <path class="fil0" d="M385.86 1155.63c-4.06,-20.89 -13.59,-35.87 -17.72,-57.04 -5.24,-26.86 1.11,-49.56 -2.51,-73.54 -26.82,34.72 -11.4,109.58 20.23,130.58z"/>
   <path class="fil0" d="M1198.64 2074.12c-6.67,-25.61 -31.82,-77.44 -56.31,-85.45 6.74,24.52 32.42,75.24 56.31,85.45z"/>
   <path class="fil0" d="M895.94 1341.26c0.02,-0.34 0.89,-18.81 0.81,-19.26 -2.68,-17.51 0.02,-6.06 -5.53,-10.9 -9.35,33.04 -21.32,53.84 -24.42,92.63 22.19,-11.15 26.56,-35.85 29.14,-62.47z"/>
   <path class="fil0" d="M285.65 651.64c19.8,-3.14 21.9,-8.33 31.12,-22.57 7.2,-11.13 16.89,-20.39 19.46,-37.8 -24.87,8.55 -44.35,31.67 -50.58,60.37z"/>
   <path class="fil0" d="M1535.28 803.99c15.99,-13.68 32.15,-48.7 35.78,-77.09 -16.06,5.3 -9.4,-0.08 -23.8,36.96 -5.2,13.38 -10.77,25 -11.98,40.13z"/>
   <path class="fil0" d="M1029.45 909.44c0.24,-24.76 -12.08,-54.93 -31.73,-72.02 3.54,21.68 14.8,62.15 31.73,72.02z"/>
   <path class="fil0" d="M385.4 2001.51c16.81,-9.64 21.86,-33.08 26.04,-54.45 -12.48,6.39 -38.67,32.67 -26.04,54.45z"/>
   <path class="fil0" d="M1501.19 838.34c16.08,-11.08 23.82,-33.11 26.44,-59.94 -16.13,12.47 -23.16,35.1 -26.44,59.94z"/>
   <path class="fil0" d="M407.71 2018.05c9.68,-11.38 15.95,-18.64 14.52,-37.43 -13.36,1.98 -19.7,18.35 -22.2,36.32l7.68 1.11z"/>
   <path class="fil0" d="M1056.03 877.86c-4.25,-22.69 -12.47,-31.11 -28.49,-37.73 4.59,19.97 15.36,31.21 28.49,37.73z"/>
   <path class="fil0" d="M363.68 586.54l-4.07 3.73 -2.19 16.75c13.86,-4.22 15.78,-6.19 19.16,-19.22l-12.9 -1.26z"/>
  </g>
 </g>
</svg>
