<!-- Generated by IcoMoon.io -->
<svg version="1.1" xmlns="http://www.w3.org/2000/svg" width="32" height="32" viewBox="0 0 32 32">
<title>mota</title>
<path d="M20.333 30.383l-8.35 0.029-1.858-9.981 12.045 0.015-1.837 9.938zM15.85 13.269c-1.424-2.157-2.288-6.279-7.107-7.413 0.98 5.976 3.456 5.727 6.016 7.711-3.347-0.781-3.767-1.504-7.828-1.196 1.267 2.318 5.152 2.398 7.471 2.292-1.277 0.83-3.711 0.664-5.016 3.156 3.117 0.189 4.64-1.436 6.446-2.442l0.019 4.1-6.643 0.115 2.035 11.623 9.783 0.042c0.491-1.939 2.161-9.898 2.071-11.654l-6.304-0.060-0.031-4.23c2.731 1.264 2.073 2.526 6.435 2.546-0.346-1.276-0.774-1.368-1.884-1.956l-2.757-1.086c-0.063-0.030-0.163-0.077-0.238-0.125 2.421 0.062 4.378 0.37 6.637-1.459l0.789-0.813c-4.166-0.541-4.534 0.396-7.88 1.171 1.309-1.149 2.715-1.503 3.965-2.941 1.074-1.235 1.695-2.91 2.051-4.757-2.101 0.432-3.256 1.556-4.364 2.745-1.748 1.876-1.465 2.713-2.459 4.132l-0.275 0.344c0.315-2.346 1.419-3.641 1.287-6.354-0.079-1.629-0.603-4.715-1.944-5.792-3.053 8.51-0.939 7.215-0.274 12.303z"></path>
</svg>
