<!-- Generated by IcoMoon.io -->
<svg version="1.1" xmlns="http://www.w3.org/2000/svg" width="32" height="32" viewBox="0 0 32 32">
<title>mundo-one</title>
<path d="M9.825 17.506l-0.001-0.234c0.096-0.051 0.151-0.078 0.283-0.132-0.079-0.231-0.098-0.252-0.11-0.529-0.004-0.097 0.006-0.222-0.002-0.316-0.026-0.288 0.017-0.159-0.092-0.284l0.039 0.661-0.39 0.117c0.003-0.265 0.055-0.769-0.139-0.948 0.056 0.621-0.044 1.362 0.411 1.665z"></path>
<path d="M20.388 16.455l-0.016-0.125c-0.355-0.371-0.333-0.545-0.389-1.204l-0.226-0.489 0.021 0.455c-0.22 0.106-0.517 0.176-0.614 0.463-0.137 0.403 0.037 0.735 0.245 0.893 0.564 0.222 0.573-0.086 0.979 0.007z"></path>
<path d="M18.304 5.929c-0.157-0.136 0.16-0.038-0.165-0.119-0.116-0.029-0.205-0.008-0.329-0.002l0.090-0.622-0.218-0.064c0.098 0.467 0.065 0.422-0.060 0.824l0.681-0.017z"></path>
<path d="M3.72 17.767c0.48 0.25 0.851 0.983 1.163 1.513 1.108 1.879 2.223 0.219 2.468 3.056 0.023 0.27 0.136 1.066 0.119 1.262-0.040 0.445-0.298 0.214-0.246 1.15-1.164-0.781-3.521-4.741-3.504-6.982zM5.493 9.435c0.242-0.613 1.487-2.033 1.899-2.345-0.12 0.705-0.5 0.914-0.865 1.267-0.407 0.394-0.448 0.666-1.034 1.078zM9.315 6.319c0.128-0.825 0.644-1.18 1.287-1.495 0.453-0.222 1.502-0.681 1.985-0.711-0.182 0.072-0.58 0.415-0.763 0.547-0.334 0.242-0.534 0.279-0.912 0.474-0.623 0.321-1.109 0.996-1.597 1.185zM9.414 15.84c0.194 0.18 0.142 0.684 0.139 0.948l0.39-0.117-0.039-0.661c0.108-0.962-0.415-1.025 1.443-2.913 0.909-0.924 1.636-1.195 3.438-1.012 0.261 0.368 0.271 0.56 0.623 0.897 1.143 1.093 1.562 0.043 2.152 0.229 0.995 0.313 2.843 0.896 3.146-0.526 0.356-1.672-1.515-1.096-1.622-1.143-0.312-0.139-0.707-1.991-1.375-0.539-0.4-0.485-0.386-1.284-1.167-1.317-0.384-0.017-0.664 0.188-0.677 0.546-0.018 0.509 0.434 0.575 0.067 0.841-0.23-0.278-0.463-1.916-2.007-1.158-0.618 0.304-1.362 1.348-2.138 0.931-0.076-0.825 0.658-0.385 1.193-0.647 0.833-0.407 0.384-0.974 0.33-1.189 0.405-0.084 0.813-0.225 1.155-0.402 0.475-0.247 0.491-0.28 0.775-0.744 0.412 0.251 0.53 0.487 1.306 0.21 0.45-0.16 0.677-0.347 0.854-0.764 1.093-0.139 1.604-0.738 0.904-1.38l-0.681 0.017c0.125-0.402 0.158-0.357 0.060-0.824-1.089-0.83-1.478 1.503-1.51 1.578-0.411-0.388-0.261-0.497-1.048-0.357 0.121-0.296 0.447-0.452 0.696-0.682 0.293-0.269 0.419-0.469 0.687-0.775 0.501-0.572 1.368-0.441 2.149-0.156-0.233 0.167-0.795 0.337-0.438 0.818 0.172 0.231 0.849 0.314 1.211 0.18 0.43-0.158 0.222-0.46 0.799-0.655 0.303-0.103 0.79-0.352 1.049-0.28 0.844 0.234 2.717 1.712 3.389 2.387 1.682 1.689 3.446 4.331 3.656 7.814-0.216 0.397-0.419 0.459-0.559 1.062-0.105 0.449-0.093 0.984-0.293 1.326-0.337-2.822-0.641-1.564-0.963-2.438-0.428-1.161-0.688-0.694-1.328-0.758-0.784-0.078-1.909-1.164-2.254-1.042-0.517 0.381-0.285 0.998 0.076 1.466 0.674 0.876 0.788 0.308 1.452 0.688-0.005 0.937-1.711 1.313-2.138 1.313-0.365-1.104-1.189-3.404-2.705-2.794-0.029 0.48 0.108 0.443 0.146 0.819l0.226 0.489 0.384 0.077c0.048 0.179-0.020 0.074 0.077 0.005 0.046-0.367-0.141-0.585-0.202-0.973 0.421 0.104 0.772 0.716 0.99 1.070 0.233 0.377 0.433 1.115 0.596 1.355 0.348 0.025 0.468 0.159 0.638 0.4l0.234-0.019c0.639 0.013 2.098-0.616 2.266-1.461 0.265-1.337-1.559-0.382-1.786-1.791 1.583 0.825 1.039 0.86 2.69 0.886 0.104 0.24 0.171 0.641 0.357 0.862 0.259 0.306 0.408 0.101 0.569 0.657 0.295 1.019-0.216 2.723 0.59 2.271 0.729-0.408 0.748-1.983 0.967-2.46 0.1 2.68-0.996 5.367-2.19 7.066-2.816 4.011-7.91 6.231-13.017 5.012-1.195-0.285-2.394-0.756-3.318-1.298-0.864-0.507-2.121-1.147-2.11-2.491 0.273-0.275 0.364-0.034 0.309-0.613-0.025-0.265-0.085-0.486-0.112-0.758-0.049-0.486-0.070-1.102-0.179-1.59-0.312-1.393-0.958-1.088-1.851-1.672-0.649-0.424-0.662-1.112-1.514-2.024-0.598-0.64-0.759-0.304-0.787-0.95-0.066-1.504 0.113-3.256 0.636-4.648 0.207-0.55 1.124-1.75 1.463-2.069 0.403-0.379 0.528-0.377 0.885-0.884 0.237-0.337 0.581-0.594 0.87-0.896 0.673-0.703 0.36-1.894 1.381-2.243-0.042 0.379-0.16 0.683 0.043 0.966 0.461 0.478 1.616-1.044 2.433-1.397 0.648-0.279 0.774-0.417 1.244-0.756 0.365-0.263 0.799-0.486 1.202-0.72 0.644-0.376 0.708-0.372 1.574-0.416 1.241-0.063 3.927 0.203 4.937 0.75 0.101 0.055 0.084 0.053 0.143 0.105-0.259 0.103-0.652 0.16-0.852 0.366-0.233 0.241-0.163 0.511-0.665 0.413 0.92-0.619 0.254-1.006-0.576-1.163-2.015-0.38-2 0.373-2.637 1.025-0.437 0.447-1.274 0.814-1.085 1.461 0.126 0.434 0.612 0.258 0.996 0.208l0.278 0.514c0.29 0.044 0.43 0.057 0.624-0.144 0.602-0.627 0.133-1.11 0.673-1.551-0.136 0.322-0.201 0.257-0.132 0.7 0.45 0.306 0.494 0.176 1.050 0.095-0.060 0.482-0.519 0.297-0.99 0.372-0.142 0.318-0.171 0.521-0.444 0.698-1.368 0.882-0.994-1.582-1.912 0.238-0.364 0.722-1.697 0.671-2.169 1.057-0.049 0.599 0.278 0.326 0.401 0.866-0.557 0.259-0.656 0.048-1.118 0.203-1.128 0.379-0.574 2.232 0.944 1.47 0.585-0.294 1.095-0.883 1.596-1.025 0.932-0.262 0.828 0.842 1.175 1.315 0.59 0.107 0.854-0.208 1.137-0.507-0.030-0.484-0.228-0.416-0.306-0.876 0.99 0.036 0.641 2.131 1.534 1.628 0.369-0.215 0.118-0.29 0.321-0.592 0.227 0.303 0.33 0.665 0.655 0.786 0.52 0.194 1.464-0.447 1.329 0.479-0.197 1.344-2.828-0.068-3.137 0.049-0.359 0.327-0.546 0.609-1.102 0.229-0.581-0.398-0.605-0.858-0.749-1.021-0.397-0.45-2.451-0.198-2.977 0.015-0.786 0.318-1.421 1.067-1.892 1.637-0.502 0.608-1.138 1.213-0.951 2.416zM14.645 3.134c-6.677 0.728-12.299 6.542-11.556 14.165 0.652 6.692 6.664 12.389 14.289 11.577 6.621-0.706 12.219-6.644 11.471-14.186-0.659-6.644-6.682-12.376-14.204-11.555z"></path>
<path d="M9.825 17.506c0.056 0.358 0.502 0.785 0.771 1.057 1.054 1.066 1.344 0.283 2.721 0.357 0.614 0.033 0.515 0.344 1.388 0.354-0.061 0.943-0.301 1.068 0.207 1.892 0.515 0.833 0.513 0.654 0.23 1.656-0.088 0.309-0.081 0.701 0.053 0.984 0.444 0.939 0.241 1.023 0.541 1.611 0.228 0.447 0.093 0.366 0.242 0.833 0.364 0.253 0.788 0.239 1.25 0.105 0.874-0.253 0.995-1.082 1.557-1.361 0.564-0.281 0.54-0.199 0.52-0.929 0.482-0.459 0.968-0.525 1.235-1.239 0.269-0.719 0.123-1.267 0.57-1.884 0.623-0.86 1.735-1.661 2.154-2.695-0.212-0.096-0.187-0.035-0.316-0.283-0.042-0.080-0.079-0.202-0.107-0.308l-0.297-0.023-0.032 0.36 0.086 0.044 0.148 0.11c-0.502 1.097-1.73 1.778-2.281 2.846-0.689 1.336 0.352 1.373-1.359 2.558-0.409 0.284-0.338 0.338-0.323 0.903-1.127 0.348-0.912 1.622-2.314 1.452-0.069-0.174-0.048-0.276-0.135-0.474-0.396-0.908-0.127-0.068-0.421-1.273-0.097-0.4-0.294-0.503-0.311-0.861-0.018-0.391 0.176-0.582 0.233-0.944 0.116-0.742-0.348-1.171-0.604-1.663-0.348-0.67 0.279-1.405-0.218-1.862-0.384-0.254-0.648 0.113-1.082-0.304-0.434-0.103-0.702-0.121-1.185-0.082-1.18 0.155-1.295 0.408-2.022-0.475l-0.149-0.259c-0.097-0.074-0.063-0.033-0.148-0.123-0.017-0.018-0.062-0.072-0.076-0.091-0.148-0.208-0.033-0.031-0.109-0.225l-0.137-0.129c-0.132 0.054-0.187 0.081-0.283 0.132l0.001 0.234z"></path>
<path d="M10.001 2.513c-4.683 1.897-8.016 6.601-8.669 11.568-0.142 1.078-0.165 2.198-0.065 3.292 0.034 0.373 0.25 3.023 0.847 2.416 0.221-0.225-0.092-1.027-0.149-1.352-0.273-1.552-0.274-3.204-0.018-4.742 0.593-3.564 2.371-6.436 4.921-8.61 0.92-0.785 1.969-1.43 3.11-1.963 0.261-0.121 0.459-0.152 0.493-0.368 0.055-0.343-0.246-0.332-0.47-0.241z"></path>
<path d="M16.009 30.77c1.948-0.004 3.705-0.384 5.321-1 0.565-0.216 3.812-1.697 3.799-2.461-0.396-0.324-0.817 0.212-1.183 0.464-1.2 0.825-2.688 1.528-4.143 1.924-3.433 0.932-7.002 0.609-10.162-0.954-0.335-0.166-1.124-0.799-1.34-0.404-0.187 0.344 0.844 0.776 1.082 0.894 1.851 0.92 4.177 1.542 6.626 1.538z"></path>
<path d="M30.586 17.423c0.585-0.939-0.202-4.903-0.649-6.212-0.301-0.878-0.664-1.701-1.097-2.438-0.221-0.377-1.144-2.105-1.542-1.857s0.568 1.225 1.083 2.162c1.198 2.178 1.828 4.534 1.802 7.070-0.006 0.586-0.283 1.428 0.403 1.276z"></path>
<path d="M24.235 4.153c0.082-0.463-0.033-0.439-0.751-0.862-1.925-1.136-4.095-1.821-6.362-2.004-0.559-0.045-2.852-0.167-3.106 0.193-0.44 0.627 1.416 0.269 2.67 0.331 1.010 0.050 1.991 0.208 2.905 0.451 1.248 0.332 2.461 0.838 3.539 1.46 0.376 0.216 0.687 0.57 1.104 0.431z"></path>
<path d="M22.081 22.389c-0.332 0.101-0.386 0.368-0.612 0.602-0.265 0.276-2.030 1.922-1.006 2.011 0.672 0.058 1.116-0.681 1.362-1.115 0.463-0.817 0.874-1.211 0.255-1.498z"></path>
<path d="M6.905 27.483l0.164-0.184c-0.049-0.341-0.659-0.759-0.933-1.047-0.393-0.412-0.882-1.031-1.147-0.757-0.266 0.276 0.396 0.812 0.758 1.145 0.26 0.239 0.751 0.85 1.157 0.843z"></path>
<path d="M11.416 5.68c-0.577 0.25-0.688 0.919 0.449 0.554 0.962-0.309 0.21-0.84-0.449-0.554z"></path>
</svg>
