<!-- Generated by IcoMoon.io -->
<svg version="1.1" xmlns="http://www.w3.org/2000/svg" width="32" height="32" viewBox="0 0 32 32">
<title>pareja-gay-love</title>
<path d="M9.293 11.226l0.841 0.983c-3.166 0.227-4.999 1.713-6.072 3.824-0.713 1.397-0.683 2.512-0.683 4.22 0 1.205 0.051 3.587 0.732 4.205l0.379 0.787c0.013 0.017 0.027 0.042 0.038 0.057l0.153 0.149c0.129 0.217 0.423 0.641 0.643 0.716 0.303 0.464 0.434 0.439 0.833 0.751 0.033 0.031 0.105 0.105 0.183 0.163 2.588 1.904 6.899 1.336 8.882-1.178l0.798-1.063 0.356 0.49c0.373 0.533 0.748 1.002 1.278 1.392 2.564 1.898 5.921 1.995 8.019 0.369 0.22-0.128 0.224-0.152 0.395-0.302 0.107-0.090 0.111-0.074 0.199-0.153 0.181-0.159 0.090-0.072 0.192-0.214 0.242-0.107 0.227-0.092 0.347-0.331 0.098-0.074 0.072-0.038 0.163-0.137 0.074-0.083 0.088-0.125 0.159-0.214 0.185-0.223 0.191-0.17 0.346-0.414 0.139-0.083 0.051 0.031 0.054-0.157 0.020-0.020 0.049-0.072 0.058-0.057l0.346-0.631c0.291-0.396 0.502-1.135 0.613-1.748 0.139-0.766 0.114-1.593 0.114-2.39 0-1.732 0.040-2.895-0.682-4.312-1.075-2.106-2.908-3.598-6.058-3.81 0.42-0.687 1.544-1.262 1.975-3.057 0.636-2.647-0.996-5.42-3.804-6.073-1.85-0.429-2.759 0.156-4.067 0.749-1.076-0.561-1.91-1.002-3.47-0.846-3.779 0.377-5.894 4.776-3.558 7.954 0.127 0.237-0.027 0.112 0.302 0.275zM5.428 23.441c-0.275-1.352-0.492-2.032-0.338-3.621l0.817-0.005 0.007-1.66c2.247-0.233 3.988 0.604 5.357-0.991 0.405-0.474 0.336-0.976 0.602-1.548 0.899 0 1.583 0.494 1.969 1.009 0.501 0.669 0.468 1.378 0.503 2.339l0.819 0.020c0.114 2.996-0.054 5.112-1.886 6.451-2.025 1.479-4.189 1.495-6.244 0.056l-0.654-0.526-0.105-0.191c-0.134-0.25-0.291-0.38-0.468-0.664-0.141-0.226-0.238-0.481-0.377-0.669zM9.947 9.217c-0.127-0.441-0.243-0.679-0.245-1.215-0.002-0.499 0.178-0.881 0.243-1.222 0.495-1.069 1.363-1.913 2.669-2.088 2.077-0.281 2.922 1.144 3.405 1.402 0.356-0.174 0.33-0.317 0.648-0.573 0.799-0.644 1.627-0.982 2.753-0.83 1.893 0.254 2.475 1.815 2.655 1.954l0.198 0.616 0.005 0.248c0.048 0.652-0.029 1.241-0.184 1.737-0.166 0.421-0.347 0.639-0.569 0.913-0.065 0.045-0.125 0.065-0.176 0.116-0.077 0.033-0.137 0.048-0.207 0.096-0.145 0.1-0.034 0.018-0.165 0.163l0.011 0.163-0.002 0.026c-0.195 0.097-0.141 0.061-0.231 0.216-0.562 0.371-3.891 4.068-4.736 4.604-1-0.741-4.341-4.416-5.054-4.892-0.072-0.199-0.059-0.136-0.171-0.223-0.187-0.184-0.054-0.066-0.187-0.096 0-0.184 0.054-0.15-0.097-0.157-0.289-0.414-0.362-0.561-0.562-0.96zM25.4 25.217c-0.174 0.030-0.155 0.063-0.331 0.214-0.109 0.093-0.163 0.123-0.257 0.265-0.25 0.094-0.644 0.25-0.863 0.486-0.48 0.051-0.961 0.293-1.574 0.342-1.567 0.127-3.12-0.463-4.107-1.521-1.486-1.591-1.499-3.347-1.397-6.027l0.83-0.007c0.036-0.991 0.005-1.733 0.533-2.395 0.407-0.51 1.061-0.958 1.929-0.955 0.228 0.502 0.226 1.922 1.86 2.405 0.959 0.282 2.958 0.012 4.103 0.132l0.006 1.658 0.811 0.014c0.137 1.381-0.087 2.162-0.224 3.364l-0.385 0.837-0.391 0.548c-0.123 0.129-0.357 0.356-0.541 0.64zM12.359 19.045c-0.623 0.277-0.614 0.745-0.558 1.575 0.041 0.604 0.51 1.099 1.22 0.787 0.825-0.36 0.661-2.952-0.662-2.363zM19.133 19.016c-0.956 0.307-0.897 2.83 0.541 2.422 0.922-0.261 0.837-2.867-0.541-2.422zM7.342 19.015c-0.967 0.307-0.891 2.833 0.543 2.424 0.918-0.262 0.83-2.862-0.543-2.424zM24.193 19.013c-0.967 0.298-0.893 2.845 0.545 2.424 0.911-0.266 0.829-2.85-0.545-2.424zM8.913 23.575c-0.421-0.009-0.492 0.441-0.27 0.722 0.666 0.848 3.504 0.695 3.083-0.671-0.843-0.224-0.857 0.676-1.942 0.38-0.378-0.104-0.572-0.425-0.872-0.431zM20.705 23.574c-0.42-0.006-0.488 0.441-0.274 0.727 0.639 0.841 3.518 0.686 3.087-0.676-0.825-0.214-0.834 0.676-1.944 0.38-0.387-0.104-0.555-0.425-0.869-0.431zM22.716 21.487h-1.607c-0.072 1.121 1.668 1.117 1.607 0zM10.925 21.489l-1.607-0.003c-0.074 1.126 1.667 1.116 1.607 0.003z"></path>
</svg>
