<!-- Generated by IcoMoon.io -->
<svg version="1.1" xmlns="http://www.w3.org/2000/svg" width="32" height="32" viewBox="0 0 32 32">
<title>pastel</title>
<path d="M17.898 3.475c0.369 0.372 0.881 1.545 1.125 2.205 0.574 1.561-0.107 1.674-0.971 2.020-0.066 1.175-0.050 0.538 0.54 1.004 0.683 0.538 0.459 1.376 0.491 2.376 0.361 0.243 5.732 1.912 6.496 2.276 0.404 0.194 0.399 0.402 0.405 0.908 0.014 1.097 0.070 9.772-0.027 10.125-0.139 0.503-1.14 0.663-1.654 0.818l-5.81 1.799c-2.59 0.819-5.178 1.561-7.745 2.398-1.254 0.408-2.55 0.798-3.817 1.186-2.271 0.695-2.069 0.665-2.054-2.285l-0.002-7.607c0.005-0.711 0.28-0.793 1.023-1.538l8.872-8.875c0.746-0.738 0.893-0.261 1.833-0.053 0.020-0.46-0.013-0.874 0.21-1.221 0.598-0.931 0.797 0.159 0.781-1.323-1.124-0.129-1.385-0.885-1.001-1.949 0.247-0.686 0.67-1.846 1.067-2.264h0.237zM17.751 4.556c-0.153 0.45-0.38 0.942-0.567 1.442-0.27 0.723-0.12 1.13 0.723 1.066 1.199-0.091 0.499-1.257 0.076-2.169l-0.232-0.339zM17.456 10.105l0.006 3.649c0.984-0.040 0.76-0.229 0.767-1.503v-2.146c0-0.357 0.069-0.802-0.388-0.802-0.433 0-0.385 0.397-0.385 0.802zM6.144 28.61l0.004 0.868 18.57-5.718-0.002-0.636-18.572 5.485zM22.252 18.75c0 0.893 0.137 2.713-0.294 3.335-0.649 0.938-2.136 0.762-2.229-0.538-0.040-0.564 0.090-1.366-0.088-1.863-0.534-0.169-5.876 1.654-6.787 1.948l-6.705 2.109 0.002 3.965 18.572-5.482-0.001-1.471c-2.279 0.372-1.985-1.258-2.006-2.757-0.385 0.041-0.463 0.332-0.463 0.754zM6.151 20.903l-0.006 1.928c0.609-0.128 1.401-0.42 2.029-0.62l10.234-3.218c3.175-1.039 1.705 2.278 2.278 2.76 1.042 0.608 0.692-2.574 0.727-3.264 0.069-1.385 1.726-1.839 2.094-0.725 0.222 0.671-0.349 2.532 0.814 2.207 0.313-0.088 0.404-0.259 0.405-0.629 0.003-1.298 0.075-2.891-0.014-4.156l-18.562 5.718zM7.878 19.021l15.939-4.906-4.722-1.664c-0.146 1.656 0.346 1.697-0.81 1.998-1.942 0.505-1.668 0.838-1.675-2.849l-1.055-0.36c-0.245 0.336-1.517 1.547-1.91 1.949-0.719 0.733-5.59 5.496-5.766 5.833z"></path>
<path d="M21.302 2.3l1.15 4.749c-0.105 0.023-0.137-0.010-0.444 0.064-0.174 0.042-0.284 0.107-0.396 0.18-0.201 0.133-0.396 0.369-0.471 0.593-0.237 0.709 0.419 1.039 1.051 0.909l0.092-0.022c0.308-0.085 0.6-0.283 0.767-0.601 0.169-0.321 0.116-0.514 0.027-0.881-0.277-1.145-0.568-2.423-0.861-3.552-0.046-0.176-0.109-0.125 0.325-0.312 0.173-0.074 0.316-0.141 0.486-0.214l1.917-0.854 0.779 3.222c-0.436-0.093-1.299 0.316-1.37 1.011-0.060 0.573 0.526 0.876 1.074 0.743 0.355-0.086 0.633-0.254 0.803-0.495 0.179-0.254 0.249-0.486 0.165-0.832l-1.279-5.286c-0.179 0.044-1.704 0.703-1.908 0.79l-1.908 0.79z"></path>
<path d="M5.471 15.167c-0.313 0.1-0.33-0.020-0.831 0.371-0.12 0.094-0.212 0.211-0.286 0.337-0.547 0.92 0.253 1.604 1.158 1.23 0.436-0.18 0.832-0.628 0.862-1.106 0.011-0.169-0.032-0.335-0.115-0.536l-1.873-4.536c0.6-0.248 1.503 0.009 2.065 0.316l0.602 0.353c-0.653-1.271-1.881-1.075-2.987-1.542-0.076-0.032-0.152-0.057-0.221-0.095-0.027-0.015-0.075-0.044-0.104-0.064-0.033-0.022-0.073-0.072-0.104-0.061l-0.001 0.001c-0.187 0.077-0.256 0.277-0.162 0.502l1.996 4.832z"></path>
<path d="M27.248 19.862l0.602 2.488c-0.673 0.006-0.855 0.614-0.56 0.84 0.267 0.204 0.756 0.027 0.9-0.298 0.098-0.222-0.154-0.994-0.223-1.279-0.115-0.474-0.18-0.868-0.29-1.321 0.203-0.032 0.489 0.050 0.632 0.135l0.522 0.355c-0.17-0.703-1.233-0.727-1.408-1.050-0.155 0.041-0.091 0.036-0.176 0.131z"></path>
<path d="M6.343 12.448l0.722 1.748c-0.491 0.081-0.554 0.545-0.314 0.676 0.218 0.119 0.556-0.066 0.624-0.32 0.046-0.173-0.225-0.708-0.308-0.909-0.137-0.332-0.23-0.613-0.361-0.931 0.145-0.046 0.363-0.019 0.477 0.027l0.421 0.2c-0.204-0.494-0.983-0.392-1.147-0.607-0.109 0.048-0.062 0.037-0.113 0.116z"></path>
<path d="M8.866 13.659c-0.168-0.010-0.358 0.19-0.275 0.389 0.098 0.238 0.627 0.017 0.482-0.337l-0.446-1.080c0.133-0.052 0.232-0.022 0.338 0.007 0.128 0.036 0.208 0.121 0.298 0.143-0.191-0.371-0.696-0.271-0.825-0.44-0.117 0.141-0.009 0.258 0.145 0.63 0.095 0.229 0.189 0.458 0.283 0.687z"></path>
</svg>
