<!-- Generated by IcoMoon.io -->
<svg version="1.1" xmlns="http://www.w3.org/2000/svg" width="32" height="32" viewBox="0 0 32 32">
<title>pets</title>
<path d="M23.125 19.812l1.063 1.063t0.531 0.563 0.5 0.593 0.469 0.593 0.407 0.625 0.312 0.688 0.188 0.719 0.063 0.751-0.031 0.781q-0.688 2.625-3.125 3.125-0.437 0.063-3.031-0.251t-4.344-0.312h-0.251q-1.751 0-4.344 0.312t-3.031 0.251q-2.437-0.5-3.125-3.125-0.188-1.251 0.437-2.563t1.156-1.875 1.907-1.937q0.625-0.688 1.656-1.937t1.656-1.937q1.125-1.375 2.312-1.751 0.251-0.125 0.437-0.125 0.375-0.063 1.063-0.063 0.751 0 1.063 0.063 0.188 0 0.437 0.125 1.188 0.375 2.312 1.751 0.563 0.688 1.625 1.937t1.688 1.937zM22.688 12.688q0-1.375 0.969-2.375t2.344-1 2.344 1 0.969 2.375-0.969 2.344-2.344 0.969-2.344-0.969-0.969-2.344zM16.688 7.312q0-1.375 0.969-2.344t2.344-0.969 2.344 0.969 0.969 2.344-0.969 2.375-2.344 1-2.344-1-0.969-2.375zM8.688 7.312q0-1.375 0.969-2.344t2.344-0.969 2.344 0.969 0.969 2.344-0.969 2.375-2.344 1-2.344-1-0.969-2.375zM2.688 12.688q0-1.375 0.969-2.375t2.344-1 2.344 1 0.969 2.375-0.969 2.344-2.344 0.969-2.344-0.969-0.969-2.344z"></path>
</svg>
