<!-- Generated by IcoMoon.io -->
<svg version="1.1" xmlns="http://www.w3.org/2000/svg" width="32" height="32" viewBox="0 0 32 32">
<title>playa</title>
<path d="M19.155 2.659c-0.284 0.222-0.582 0.232-0.915 0.556l0.875 0.495c0.69 0.446 1.374 1.294 1.656 2.144-0.85-0.438-1.196-0.835-2.378-1.143-2.87-0.747-6.003 0.668-5.94 3.955 0.9-0.271 1.411-0.919 3.422-0.715 1.001 0.101 2.446 0.599 2.928 1.181-1.611-0.306-2.496-0.438-3.942 0.34-0.943 0.507-1.785 1.371-2.228 2.5-1.078 2.747 0.665 5.752 2.726 6.298-0.353-2.206-0.183-3.133 0.944-4.627 0.747-0.99 2.304-1.833 4.238-1.717-0.145 0.427-0.492 1.006-0.706 1.428-1.14 2.25-2.36 4.954-3.097 7.362-0.371 1.213-0.462 2.123-0.727 3.367-0.713 0.061-1.31 0.058-2.024 0.164-0.641 0.095-1.282 0.296-1.876 0.361-0.593-0.755-1.264-1.459-1.854-2.482-0.353-0.612-1.207-2.332-1.33-3.106 2.031-0.372 3.163 0.368 3.331 2.371 1.899-1.162 1.021-5.314-2.659-3.976 0.483-0.729 1.602-1.043 2.731-0.774-0.070-1.201-1.643-2.009-3.143-1.295-0.465 0.222-0.58 0.457-0.988 0.641-0.775-1.487-3.493-1.312-3.683 0.298 0.718-0.127 1.18 0.024 1.777 0.191-0.263 0.215-0.497 0.171-0.824 0.247-0.648 0.151-1.26 0.538-1.689 1.038-0.885 1.030-0.406 1.965-0.111 2.663 0.278-0.22 0.396-0.797 1.141-1.268 0.481-0.304 1.093-0.543 1.782-0.538-0.704 0.344-1.058 0.53-1.43 1.163-0.967 1.644-0.124 4.162 2.844 3.904-0.261-0.464-0.487-0.457-0.764-1.008-0.731-1.451 0.175-3.159 1-3.336 0.311 0.94 0.443 2.557 0.881 4.013 0.085 0.283 0.137 0.495 0.229 0.76 0.168 0.485 0.435 0.967 0.531 1.368l-1.169 0.534-0.018 0.132c-0.725 0.293-0.919 0.486-1.468 0.885-0.443 0.322-0.964 0.631-1.263 1.039 0.113 0.169 0.074 0.253-0.086 0.405l0.554 0.333c1.553 1.484 1.182-0.222 3.049-0.707 2.295-0.595 3.197 1.293 3.67 1.34 0.535 0.053 2.081-2.469 4.616-1.012 0.547 0.314 0.81 0.781 1.204 0.988 0.609 0.156 1.082-1.266 2.594-1.348l0.407-0.033 0.636-0.005 0.092-0.018c0.089 0.102-0.123 0.075 0.27 0.14 0.363 0.115 0.721 0.304 0.955 0.482 1.264 0.965 0.589 1.333 2.407-0.23l-0.953-0.862c-0.214-0.168-0.275-0.222-0.511-0.399l-0.43-0.335-0.196-0.061-0.247-0.218c-0.167-0.068-0.174-0.074-0.337-0.169-0.312-0.18-0.1-0.147-0.42-0.188l-0.306-0.238-0.033-0.116c-0.199-0.020-1.967-0.793-2.221-0.939-1.058-2.151 0.073-10.455 1.114-12.473 1.555-0.010 3.925 2.302 3.378 5.187-0.199 1.051-0.702 1.409-0.922 2.035 2.382 0.044 4.34-1.875 4.473-4.135 0.167-2.865-2.32-4.865-3.913-4.716-0.247-0.16-0.166-0.080-0.448-0.156 0.357-0.050 0.372 0.012 0.619-0.16l-0.251-0.019c0.311-0.224 1.36-1.18 1.303-1.591-0.271-0.635-1.499-1.343-1.546-1.809l-0.266-0.003c0.188-1.338-0.731-2.862-1.349-3.449-0.92-0.875-2.061-1.294-3.715-0.933z"></path>
</svg>
