<!-- Generated by IcoMoon.io -->
<svg version="1.1" xmlns="http://www.w3.org/2000/svg" width="32" height="32" viewBox="0 0 32 32">
<title>pokemon-eevee</title>
<path d="M17.433 24.571c-0.088 0.021-0.077 0.011-0.14 0.047-0.025 0.298-0.126 0.7-0.183 0.984-0.216 1.082-0.735 3.667-1.543 4.249-0.563 0.405-1.155 0.208-0.885-0.276 0.131-0.235 0.2-0.063 0.23-0.333-0.386 0.032-0.421 0.43-0.421 0.747-0.448 0-0.732-0.017-0.949-0.266-0.1-0.115-0.16-0.291-0.084-0.435 0.107-0.201 0.208-0.068 0.285-0.28-0.263-0.122-0.564 0.308-0.42 0.608-0.304-0.071-0.451-0.212-0.357-0.636 0.12-0.541 0.652-0.462 0.731-2.307 0.049-1.134 0.467-2.888 0.467-3.596 0.2 0.287 0.121 0.561 0.608 0.561 0.152-0.288 0.23-0.657 0.589-0.953 0.136-0.112 0.312-0.175 0.486-0.215 0.013 0.156 0.061 0.399 0.108 0.546 0.064 0.201 0.072 0.29 0.265 0.342 0.090-0.188 0.124-0.475 0.247-0.734l0.127-0.2c0 0.658 0.176 1.252 0.514 1.729 0.1 0.14 0.238 0.287 0.327 0.42zM24.16 23.497c0.22-0.018 0.457-0.32 0.572-0.503 0.076-0.123 0.131-0.23 0.191-0.37 0.055-0.131 0.077-0.268 0.132-0.382 0.066-0.14 0.412-0.302 0.872-0.996l0.102-0.131 0.047 1.495c0.028 0.513-0.011 2.186 0.454 2.629 0.431 0.409 0.899 1.345 0.107 1.529 0.126-0.263-0.060-0.677-0.234-0.794-0.108 0.233 0.462 0.725-0.151 1.017-0.184 0.088-0.348 0.058-0.596 0.058 0.022-0.096 0.257-0.584-0.093-0.841-0.079 0.17 0.046 0.262 0.046 0.514 0 0.235-0.304 0.53-0.823 0.216-1.112-0.674-0.927-1.77-1.419-2.505 0.169-0.124 0.63-0.974 0.654-1.261 0.036 0.052 0.007 0 0.049 0.091l0.090 0.236zM24.3 18.639c0.311-0.083 0.999-0.648 1.227-0.876 0.334-0.336 0.714-0.781 0.829-1.273 0.789 0.528 0.888 1.215 0.888 2.196-0.137-0.101-0.207-0.335-0.321-0.381-0.244-0.098 0.041 0.198 0.041 0.381 0 0.636-0.13 1.495-0.466 1.964-0.056 0.079-0.096 0.127-0.175 0.203-0.369 0.357-0.136-0.218-0.112-0.35 0.034-0.188 0.081-0.35 0.005-0.509-0.147 0.107-0.076 0.064-0.115 0.306-0.059 0.369-0.11 0.54-0.274 0.847-0.148 0.277-0.466 0.631-0.732 0.809 0-1.109-0.054-1.719-0.44-2.643l-0.355-0.673zM7.951 24.478c0-0.514 0.041-1.157 0.093-1.635 0.057-0.52 0.165-0.969 0.388-1.341 0.227-0.38 0.513-0.606 0.893-0.836 0.111-0.067 0.206-0.108 0.31-0.157 0.16-0.076 0.185-0.073 0.239-0.182 0.048-0.096 0.134-0.529 0.174-0.667 0.14-0.476 0.264-0.846 0.44-1.289 0.396-1.001 0.927-1.864 1.68-2.617 0.14-0.14 0.254-0.332 0.456-0.385-0.542 1.023 0.276 0.195 0.514 0.14-0.090 0.188-0.241 0.668-0.271 0.896-0.045 0.334-0.022 0.192-0.196 0.411-0.234 0.295-0.841 1.303-0.72 1.526 0.1 0.184 0.196-0.048 0.3-0.124-0.034 0.145-0.131 0.371-0.181 0.519-0.428 1.268-0.239 1.888-0.239 2.844 0.334-0.028 0.413-0.703 0.794-0.981-0.075 0.896-0.908 1.359-0.981 1.635 0.163 0.038 0.157 0.093 0.327 0.093 0.956 0 0.738-0.101 1.308-0.234-0.065 0.278-0.176 0.416-0.259 0.722-0.056 0.206-0.016 0.198-0.174 0.294-0.48 0.291-1.388 0.338-2.044 0.338-0.027 0.102-0.403 0.695-0.602 1.267-0.212 0.609 0.136 0.484 0.136 1.49 0 0.442-0.17 0.654-0.608 0.654 0.080-0.119 0.451-0.625 0.093-0.888-0.11 0.23 0 0.090 0 0.327 0 0.707-0.676 0.485-0.887 0.467 0.024-0.091 0.4-0.511 0.046-0.747-0.105 0.228 0 0.022 0 0.28 0 0.363-0.459 0.584-0.85 0.103-0.152-0.187-0.135-0.251-0.131-0.569 0.006-0.497-0.046-0.838-0.046-1.356zM12.575 17.19c0.334-0.507 0.777-0.983 1.268-1.347 0.288-0.214 0.686-0.416 0.741-0.567-0.202-0.093-1.055 0.615-1.227 0.781-0.13 0.125-0.219 0.245-0.361 0.34 0.206-0.884 0.632-1.364 0.109-1.064-0.148 0.085-0.252 0.151-0.389 0.224 0.065-0.28 0.549-0.865 0.72-1.008 0.178-0.149 0.305-0.266 0.487-0.4 0.292-0.214 0.409-0.187 0.428-0.413-0.235 0-0.21-0.042-0.42-0.047 0.058-0.050 0.017-0.023 0.109-0.078l0.919-0.389c0 1.624 0.445 3.33 1.483 4.355 0.34 0.337 0.602 0.645 1.039 0.876-0.072 0.108-0.218 0.266-0.317 0.384-0.649 0.787-1.318 2.36-1.318 3.493-0.328 0.076-0.574 0.18-0.756 0.412-0.141 0.179-0.342 0.479-0.365 0.756-0.243-0.020-0.312-0.207-0.388-0.406-0.088-0.227-0.079-0.374-0.079-0.668-0.336 0.028-0.232 0.353-1.121 0.561 0.005-0.219 0.168-0.533 0.246-0.735 0.191-0.494 0.328-0.353 0.408-0.573-0.208-0.096-0.162 0.123-0.8 0.368-0.372 0.143-0.611 0.146-1.115 0.146 0.047-0.176 0.174-0.239 0.293-0.361 0.253-0.258 0.594-0.874 0.594-1.274 0-0.005-0.083-0.168-0.093-0.187-0.519 0.347-0.458 0.81-0.747 0.888 0-1.104 0.1-2.72 0.786-3.559 0.125-0.153 0.223-0.144 0.242-0.365-0.246 0.020-0.145 0.060-0.439 0.356-0.109 0.109-0.266 0.326-0.356 0.392 0.025-0.298 0.283-0.682 0.42-0.888zM1.457 11.352c0-0.21 0.036-0.257 0.073-0.441 0.333-1.622 0.663-3.725 1.267-5.272 0.088-0.224 0.25-0.497 0.294-0.687 0.251 0.067 0.361 0.326 0.525 0.502 0.774 0.838 1.797 1.363 2.835 1.79 0.181 0.075 0.184 0.087 0.229 0.286l0.289 1.72c-0.168-0.039-0.282-0.116-0.42-0.187-0.144-0.073-0.269-0.12-0.42-0.187-0.685-0.307-0.374-0.609-0.374 2.664l-1.288-0.908c-0.085-0.064-0.133-0.107-0.211-0.163-0.156-0.113-0.017-0.080-0.23-0.097l-0.333 0.882c-0.066 0.163-0.337 0.661-0.462 0.753-0.102-0.069-0.385-0.429-0.42-0.561-0.231 0.062-0.285 0.363-0.482 0.732-0.241 0.451-0.37 0.476-0.499 0.669-0.139-0.074-0.156-0.126-0.327-0.14 0-0.266-0.047-0.323-0.047-0.607v-0.747zM23.786 8.129c-0.289-0.024-0.266-0.084-0.28-0.093 0.106-0.025 0.107-0.036 0.233-0.046 0.024 0.090 0.009 0.072 0.047 0.14zM7.016 9.39c0.207 0 0.105-0.249 0.067-0.44l-0.301-1.569c0.172 0.040 0.422 0.148 0.625 0.216l1.907 0.569c0.708 0.18 0.598 0.238 1.217 0.885l0.42 0.42c0.757 0.724 1.078 1.049 2.024 1.667 0.462 0.302 1.715 1.064 2.168 1.102-0.117 0.222-0.14 0.409-0.14 0.747l-1.101 0.534c-0.2 0.082-0.51 0.159-0.42 0.331 0.066 0.128 0.407-0.024 0.633-0.024l-0.214 0.16c-0.911 0.656-0.841 0.912-1.208 1.127-0.88 0.514-1.891 2.078-2.289 3.083-0.163 0.412-0.624 1.616-0.633 2.029-0.387 0-0.585 0.047-0.981 0.047-1.129 0-2.416-0.226-3.177-0.607-0.112-0.056-0.193-0.090-0.318-0.149l-0.837-0.518c-1.080-0.801-1.828-1.962-2.295-3.217-0.164-0.442-0.307-0.903-0.408-1.414-0.070-0.355-0.246-1.267-0.253-1.569 0.108 0.073 0.184 0.149 0.327 0.187 0.288-0.193 0.336-0.288 0.533-0.588 0.106-0.161 0.312-0.535 0.354-0.72h0.093c0.054 0.203 0.279 0.509 0.514 0.514 0.042-0.156 0.698-1.036 0.747-1.635 0.155 0.041 0.735 0.497 0.915 0.627 0.141 0.102 0.92 0.763 0.919 0.354l-0.058-2.616c0.277 0.023 0.902 0.467 1.168 0.467zM15.098 13.548c0-1.579 0.21-1.117 0.42-1.215-0.117-0.16-0.409-0.223-0.62-0.314-0.698-0.301-1.18-0.556-1.818-0.985-1.976-1.326-3.284-2.837-4.532-4.811-0.178-0.282-0.551-0.986-0.551-1.318 0.341 0.163 0.93 0.292 1.314 0.415 2.32 0.742 5.384 1.586 7.288 3.082l0.665 0.596c0.107 0.131 0.072 0.142 0.263 0.158-0.020-0.239-0.035-0.064-0.094-0.281 0.296-0.069 0.682-0.561 2.448-0.963 0.874-0.198 0.609-0.283 1.476-0.485-0.247 0.369-0.337 0.283 0.281 0.188 0.317-0.049 0.562-0.048 0.933-0.048-0.068 0.058-0.005 0.006-0.083 0.057-0.214 0.141-0.163 0.097-0.197 0.223 0.471 0.11 0.304-0.001 0.7-0.001 0.197 0 0.219 0.048 0.467 0.048-0.171 0.148-0.188 0.026-0.327 0.233 0.144 0.067 0.084 0.008 0.219 0.027 0.144 0.021 0.573 0.17 0.668 0.3h-0.281v0.14l0.794 0.187-0.167 0.113c-0.089 0.070-0.052 0.029-0.113 0.12 0.071 0.034 0.807 0.093 0.934 0.093-0.121 0.165-0.246 0.137-0.374 0.327 0.104 0.050 0.534 0.093 0.712 0.104l-0.245 0.223c0.435 0.65 0.888 1.538 0.888 2.616 0 0.336 0.019 1.27-0.027 1.562-0.056 0.353-0.015 0.329 0.073 0.589 0.002 0.005 0.031 0.109 0.031 0.109 0.267 1.016 0.111 1.88-0.515 2.72-0.512 0.687-1.749 1.366-2.57 1.681-0.964 0.369-1.442 0.346-2.456 0.346-1.315 0-3.076-0.816-4.006-1.74-0.889-0.885-1.599-2.34-1.599-4.099zM24.674 8.923c0.199-0.188-0.053 0.010 0.145-0.461l0.706-1.258c0.092-0.128 0.077-0.074 0.161-0.213 0.256-0.425 0.64-0.961 0.985-1.304 0.599-0.596 2.249-2.216 2.909-2.37-0.046 0.552-0.428 1.583-0.639 2.024-0.388 0.815-0.454 0.971-0.963 1.653l-0.863 1.145c-0.337 0.379-0.602 0.614-1.007 0.955-0.535 0.451-0.274 0.295-0.92 0.295 0.081-0.223 0.155-0.063 0.234-0.281-0.193-0.129-0.426-0.187-0.747-0.187zM23.786 8.129c0.111-0.040 0.062-0.017 0.127-0.107 0.024-0.034 0.515-0.995 0.847-1.441 0.72-0.969 0.976-1.385 1.949-2.115l1.875-1.394c0.331-0.247 0.616-0.436 0.966-0.669 1.134-0.759 1.18-0.718 0.85 1.13-0.245 1.37-0.91 2.974-1.709 4.037l-0.741 0.893c-0.548 0.739-0.932 0.973-1.744 1.526-0.168 0.115-0.302 0.232-0.458 0.336-0.031-0.132-0.208-0.424-0.281-0.561 0.275-0.145 0.518-0.387 0.762-0.593l0.722-0.633c0.088-0.095 0.087-0.116 0.166-0.208 0.578-0.684 1.073-1.34 1.537-2.107 0.27-0.447 0.669-1.348 0.811-1.85 0.296-1.045 0.538-1.617-0.588-0.821-1.354 0.958-2.732 2.326-3.6 3.781-0.18 0.301-0.624 0.986-0.651 1.311-0.205-0.005-0.145-0.032-0.327-0.047-0.102-0.218 0.055 0.191-0.009-0.074-0.038-0.161-0.212-0.247-0.35-0.313l-0.155-0.080zM17.433 24.571c0.136 0.037 0.158 0.081 0.323 0.144 0.211 0.080 0.119-0.011 0.25 0.171 0.357 0.492 0.71 1.026 1.436 1.086 0.045 0.191 0.046 0.219 0.046 0.467 0.323 0.027 0.212-0.007 0.447-0.056 0.141-0.029 0.19 0.066 0.454 0.026 0.787-0.121 1.831-0.844 1.855-1.722-0.187 0.004-0.097-0.025-0.162 0.14-0.037 0.092-0.042 0.163-0.077 0.252-0.195 0.512-1.305 1.328-1.814 1.207-0.247-0.058 0.355-0.38 0.184-0.734-0.295 0.216-0.135 0.652-0.747 0.794 0-0.569-0.263-1.197-0.642-1.559-0.090-0.086-0.348-0.266-0.191 0.001 0.145 0.245 0.552 0.479 0.599 1.045-1.426-0.332-1.472-1.88-1.775-2.102-0.108 0.233 0.164 0.569 0.187 0.841-0.243-0.057-0.446-0.3-0.58-0.494-0.807-1.168-0.378-2.345-0.448-2.495-0.157 0.115-0.128 0.19-0.176 0.384l-0.478 1.157c-0.231-0.995-0.12-1.655 0.267-2.629 0.221-0.554 0.742-1.623 1.228-1.948 0.63 0.422 2.118 0.987 3.176 0.981 1.4-0.007 2.188-0.172 3.363-0.794 0.076 0.112 0.095 0.105 0.172 0.248 0.64 1.18 1.079 3.554-0.078 4.33-0.025-0.052-0.087-0.241-0.108-0.312-0.046-0.153-0.032-0.211-0.032-0.389h-0.14c0 0.459-0.107 0.684-0.253 1.008-0.058 0.13-0.156 0.291-0.233 0.42l-0.387 0.553c-0.226 0.29-0.491 0.583-0.823 0.76-0.194 0.103-0.243 0.076-0.359 0.249 0.401 0.186 1.132-0.831 1.401-1.028 0.363 0.756 0.428 1.77 1.147 2.31 0.767 0.578 0.612 0.206 1.247 0.291 0.621 0.083 0.574-0.163 0.996-0.286 0.156-0.046 0.18-0.041 0.29-0.13 0.403-0.322 0.151-0.958-0.063-1.271l-0.401-0.487c-0.299-0.459-0.317-1.667-0.318-2.251 0-0.305-0.050-0.45-0.049-0.792 0.002-0.281 0.001-0.561 0.001-0.841 0.611-0.163 0.934-1.482 0.934-2.336 0.089 0.102 0.126 0.105 0.14 0.281h0.14c0-0.722 0.032-1.098-0.156-1.665-0.127-0.382-0.457-0.899-0.825-0.998 0.132-0.563 0.163-1.318-0.054-1.908-0.106-0.29-0.067-0.412-0.042-0.71 0.052-0.614 0.025-1.541-0.064-2.081-0.11-0.669-0.302-0.856-0.401-1.28 0.176-0.118 0.306-0.223 0.487-0.354 0.9-0.651 1.030-0.651 1.766-1.55 0.147-0.18 0.255-0.279 0.396-0.445 0.132-0.156 0.233-0.31 0.361-0.48 0.243-0.321 0.418-0.671 0.625-1.010 0.126-0.208 0.174-0.328 0.276-0.565 0.090-0.211 0.172-0.364 0.253-0.588 0.066-0.183 0.139-0.387 0.206-0.589 0.206-0.619 0.584-2.191 0.48-2.82-0.085-0.515-0.764-0.007-0.982 0.124l-1.473 1.003c-0.715 0.533-1.444 1.042-2.131 1.61l-0.612 0.646c-0.622 0.797-1.173 1.527-1.661 2.449-0.357-0.171-0.877-0.093-1.262-0.093l0.374-0.187v-0.14c-0.234 0-0.468 0.001-0.702-0.001-0.295-0.002-0.417 0.047-0.653 0.047 0.133-0.198 0.3-0.098 0.374-0.28-0.179-0.085-0.413 0.042-0.607 0.094-0.209 0.054-0.412 0.099-0.621 0.172-0.216 0.076-0.345 0.184-0.555 0.239-0.63 0.167-1.255 0.298-1.841 0.542l-1.001 0.588c-0.164-0.11-0.319-0.27-0.486-0.401-0.483-0.379-0.998-0.692-1.524-0.998-1.739-1.008-4.304-1.693-6.193-2.308-0.293-0.095-0.98-0.354-1.279-0.309 0 0.484 0.128 0.628 0.296 0.966 0.16 0.321 0.281 0.514 0.46 0.801l1.019 1.504c-0.655-0.015-3.024-0.932-3.73-1.221-0.538-0.22-1.093-0.582-1.549-0.927-0.297-0.224-0.969-1.077-1.26-1.169-0.448 0.67-0.656 1.523-0.893 2.33-0.353 1.199-0.574 2.469-0.788 3.697-0.196 1.126-0.111 0.711-0.049 1.822 0.053 0.965 0.258 1.874 0.488 2.688 0.486 1.719 1.57 3.263 3.101 4.186 0.937 0.565 1.989 0.798 3.089 0.881 0.815 0.062 0.868-0.003 1.498-0.003l-0.311 0.203c-1.069 0.568-1.381 1.784-1.37 2.974 0.003 0.336-0.049 0.517-0.048 0.887 0.001 0.23 0.034 1.74 0.069 1.846 0.041 0.123 0.359 0.461 0.475 0.506 0.16 0.062 0.285 0.006 0.463 0.052 0.131 0.033 0.193 0.097 0.354 0.116l0.395 0.002c0.007 0.002 0.019 0.006 0.027 0.009l0.096 0.030c0.079 0.015-0.007 0.005 0.083 0.011 1.207 0.082 0.434-1.851 0.505-2.111 0.129-0.476 0.398-0.887 0.618-1.302 0.644 0 1.239-0.011 1.837-0.265 0.48-0.204 0.962-0.384 1.386-0.669 0 0.295-0.115 0.74-0.16 1.054l-0.316 2.114c-0.080 0.71-0.061 1.95-0.478 2.511-0.935 1.258 0.1 1.368 0.259 1.462 0.298 0.177 0.294 0.352 0.836 0.336 0.352-0.011 0.191-0.102 0.482 0.028 0.306 0.137 0.677-0.038 0.901-0.19 0.404-0.276 0.711-0.971 0.889-1.493 0.21-0.616 0.889-3.194 0.904-3.907z"></path>
<path d="M17.48 13.828c0 1.862 1.412 2.203 1.932 1.184 0.516-1.011 0.111-2.275-0.25-2.539-0.125 0.541-0.139 0.881-0.5 1.228-0.328 0.316-0.774 0.399-1.181 0.127z"></path>
<path d="M15.659 11.352c-1.256-0.293-2.903-1.15-3.866-2.067-0.489-0.465-0.641-0.556-1.119-1.123-0.455-0.54-1.262-1.617-1.415-2.275 0.18 0.096 0.328 0.125 0.541 0.207 2.015 0.778 3.43 1.344 5.205 2.596 0.306 0.215 1.41 1.040 1.494 1.355-0.121 0.028-0.234 0.082-0.327 0.14-0.172 0.106-0.185 0.137-0.211 0.242-0.047 0.187 0.127 0.029-0.139 0.245-0.113 0.092-0.138 0.154-0.21 0.261l0.187 0.046c-0.066 0.127-0.125 0.2-0.14 0.374zM9.119 5.887c0 0.227 0.364 0.842 0.469 1.026 0.159 0.277 0.722 1.071 0.967 1.322l1.169 1.167c0.398 0.372 0.437 0.363 0.832 0.663l1.441 0.848c0.429 0.178 1.331 0.58 1.756 0.58 0.041-0.177 0.092-0.274 0.159-0.448 0.157-0.407 0.011-0.101 0.386-0.501 0.111-0.118 0.214-0.129 0.262-0.273 0.047-0.139-0.087-0.119 0.173-0.18-0.091-0.34-0.475-0.556-0.712-0.782-1.452-1.384-3.984-2.492-5.841-3.221-0.369-0.145-1.061-0.487-1.061-0.2z"></path>
<path d="M24.72 12.193c0 0.693-0.245 1.422-0.934 1.261 0.118 0.506 0.479 1.382 1.128 0.941 0.099-0.067 0.155-0.147 0.219-0.248l0.115-0.211c0.154-0.29 0.181-0.811 0.084-1.142-0.046-0.157-0.090-0.143-0.117-0.31-0.030-0.186-0.062-0.376-0.192-0.548-0.006-0.008-0.015-0.018-0.021-0.026l-0.044-0.049c-0.169-0.183-0.184-0.236-0.332-0.275 0.018 0.222 0.093 0.353 0.093 0.607z"></path>
<path d="M17.48 13.828c0.407 0.273 0.853 0.19 1.181-0.127 0.361-0.348 0.375-0.687 0.5-1.228 0.361 0.265 0.766 1.528 0.25 2.539-0.519 1.018-1.932 0.678-1.932-1.184zM17.527 13.594c0-0.574 0.403-1.119 0.92-1.322 0.347-0.137 0.296-0.050 0.574 0.014 0 0.486-0.169 1.014-0.408 1.274-0.124 0.136-0.319 0.255-0.55 0.287-0.176 0.024-0.537-0.036-0.537-0.253zM17.34 13.968c0 0.433 0.098 0.848 0.264 1.137 0.369 0.643 1.13 0.728 1.594 0.44 0.073-0.046 0.012 0.005 0.076-0.064 0.731-0.79 0.68-2.329 0.010-3.131-0.627-0.75-1.594 0.088-1.822 0.852-0.056 0.187-0.123 0.55-0.123 0.765z"></path>
<path d="M23.739 12.894c0-0.57 0.25-1.203 0.701-1.308 0.224 0.424 0.16 1.194-0.064 1.524-0.138 0.203-0.637 0.388-0.637 0.064v-0.28zM23.786 13.454c0.689 0.161 0.934-0.568 0.934-1.261 0-0.254-0.075-0.385-0.093-0.607 0.147 0.039 0.162 0.092 0.332 0.275l0.044 0.049c0.006 0.007 0.015 0.018 0.021 0.026 0.131 0.172 0.163 0.363 0.192 0.548 0.026 0.167 0.071 0.153 0.117 0.31 0.097 0.331 0.070 0.852-0.084 1.142l-0.115 0.211c-0.064 0.101-0.121 0.181-0.219 0.248-0.649 0.44-1.010-0.435-1.128-0.941zM23.599 12.894c0 0.48 0.089 0.807 0.239 1.163 0.104 0.247 0.407 0.612 0.742 0.612 0.409 0 0.458-0.168 0.639-0.389l0.204-0.309c0.254-0.669-0.030-2.080-0.532-2.416-0.693-0.464-1.292 0.462-1.292 1.339z"></path>
<path d="M21.123 16.677c0.195-0.017 0.386-0.089 0.555-0.146 0.061-0.021 0.495-0.181 0.52-0.181 0.070 0 0.678 0.204 0.904 0.454 0.33 0.366-0.345 1.181-0.717 1.181h-0.187c-0.57 0-1.075-0.686-1.075-1.308zM23.208 16.695c-0.163-0.162-0.448-0.325-0.683-0.345 0.026-0.157 0.453-0.093 0.794-0.093 0 0.259-0.046 0.277-0.046 0.514l-0.065-0.076zM20.843 16.584c-0.116 0-0.108-0.212-0.374-0.234 0.022 0.266 0.232 0.367 0.514 0.373 0.007 0.335 0.188 0.707 0.345 0.916 0.44 0.588 1.391 0.82 1.881-0.231l0.117-0.257c0.043-0.116 0.168-0.77 0.085-0.943 0.204 0 0.355-0.038 0.478-0.129 0.162-0.119 0.176-0.214 0.176-0.478h-0.14c0 0.375-0.162 0.43-0.491 0.489-0.844 0.149-0.555-0.121-1.768 0.287-0.203 0.068-0.598 0.204-0.823 0.204z"></path>
<path d="M22.104 14.949c0 0.287 0.701 0.21 0.701 0.046 0-0.282-0.701-0.202-0.701-0.046z"></path>
</svg>
