<!-- Generated by IcoMoon.io -->
<svg version="1.1" xmlns="http://www.w3.org/2000/svg" width="32" height="32" viewBox="0 0 32 32">
<title>poppers-originales</title>
<path fill="#000" d="M22.854 4.068c0.032 0.019 0.132 0.009 0.17-0.004 0.044-0.012 0.017 0.015 0.034-0.028 0.1 0.034-0.048 0.002 0.040 0.027 0.024 0.008 0.042 0.005 0.070 0.005 0.018-0.069 0.149-0.036 0.227-0.036 0.747 0 1.51 0.015 2.249-0.002h1.255c0.086 0.002 0.169-0.037 0.198 0.069 0.16 0 0.365 0.005 0.495-0.008 0.108-0.010 0.041 0.001 0.074 0.019l0.083 0.014c0.053 0.006 0.042 0.016 0.102 0.022 0.166 0.014 0.495-0.046 0.589 0.007 0.068 0.038 0.19 0.019 0.249 0.023l0.016-0.001c0.023 0.004 0.021-0.016 0.025 0.033h0.048v-0.046c0.053 0.016 0.011-0.001 0.031 0.046l0.118 0.003c0.004 0.001 0.007 0.001 0.011 0.001 0.085 0.002 0.068 0.011 0.126 0.023 0.067 0.013 0.16-0.013 0.218 0.017 0.010 0.005 0.008 0.007 0.033 0.015 0.076 0.026 0.196 0.023 0.245 0.054 0.003 0.001 0.006 0.005 0.009 0.006l0.055 0.026c0.054 0.020 0.066 0.017 0.113-0.004 0.034 0.072 0.018 0.050 0.084 0.086 0.030 0.014 0.002-0.009 0.026 0.024l0.111 0.109c-0.048 0.072-0.015 0.037-0.015 0.157l0.026 0.010c0.023 0.017 0.011 0.005 0.014 0.022s-0.007 0.040-0.009 0.092c-0.007 0.16 0.014 0.337 0.017 0.488l-0.001 2.263c0 0.184-0.017 0.316-0.016 0.487 0 0.131 0.041 0.301-0.031 0.409 0.044 0.011 0.022-0.004 0.047 0.031-0.034 0.009-0.013-0.002-0.030 0.017-0.049 0.051 0.023 0.101 0.030 0.125-0.065 0.017-0.047 0.011-0.047 0.094 0.044 0.011 0.022-0.004 0.047 0.031-0.051 0.019-0.045 0.007-0.047 0.095 0.002 0.001 0.006 0.002 0.007 0.002l0.040 0.029c-0.034 0.067 0 0.136 0.001 0.22 0.001 0.068-0.022 0.257-0.069 0.308-0.056 0.061-0.090 0.14-0.144 0.196l-0.107 0.184c-0.046 0.080-0.102 0.058-0.131 0.168l-0.045 0.064c-0.010 0.010-0.024 0.026-0.030 0.036-0.056 0.080-0.017 0.072-0.011 0.081-0.076 0.102-0.105 0.039-0.047 0.126-0.070 0.006-0.077 0.045-0.123 0.178-0.033 0.101 0.017 0.026-0.046 0.111-0.002 0.002-0.005 0.005-0.007 0.008l-0.057 0.147c-0.005 0.011-0.007 0.023-0.011 0.037l-0.015 0.049c-0.033 0.133-0.081 0.173-0.081 0.287 0.001 0.029 0.004 0.006 0 0.027l-0.056 0.163c0.034 0.024 0.021 0.001 0.032 0.046-0.062 0.017-0.055 0.057-0.056 0.121-0.003 0.115 0.002 0.661 0.023 0.743 0.013 0.049 0.045 0.089 0.033 0.111 0.020 0.041 0.023 0.065 0.049 0.109l0.025 0.037c0.179 0.211-0.051-0.013 0.121 0.222 0.032 0.041 0 0.031 0.043 0.084 0.038 0.046 0.034 0.018 0.058 0.085 0.022 0.058-0.008 0.031 0.069 0.104 0.032 0.030 0.053 0.048 0.074 0.082 0.062 0.045 0.014 0.040 0.116 0.137 0.002 0.003 0.005 0.007 0.006 0.008 0.147 0.143 0.009 0.019 0.071 0.119l0.247 0.239 0.056 0.101c0.040 0.072 0.196 0.213 0.212 0.271l0.068 0.109c0.005 0.002 0.010 0.001 0.027 0.007 0 0.091-0.008 0.159-0.007 0.212 0.002 0.074 0.041 0.105 0.061 0.158 0.018 0.048 0 0.056 0.021 0.107 0.009 0.022 0.024 0.009 0.029 0.068 0.002 0.025-0.009 0.119-0.009 0.195l0.017 0.053c0.007 0.038 0.027 0.042 0.062 0.057-0.021 0.044-0.016 0.030-0.016 0.093l0.017 0.009c0.045 0.066-0.002-0.045-0.002 0.030 0 0.036-0.007-0.003 0.009 0.029 0.018 0.040 0.006 0.062 0.017 0.115l0.055 0.171c-0.003 0.021-0.029 0.006-0.009 0.093l0.002 0.069c-0.002 0.003-0.003 0.007-0.003 0.011-0.008 0.036 0.010 0.052 0.010 0.088 0 0.002 0 0.006-0.001 0.008l-0.010 0.029c-0.008 0.039-0.009 0.009-0.002 0.051 0.012 0.066 0.008-0.013 0.014 0.043 0.003 0.036 0 0.005-0.009 0.037-0.008 0.030-0.011-0.002-0.008 0.049 0.005 0.074 0.006 0.003 0.011 0.043l0.003 0.128c0.011 0.057-0.012 0.003-0.015 0.083-0.001 0.062 0.009 0.040 0.009 0.048l-0.001 0.128c0.013 0.060-0.027 0.018-0.002 0.128l0.005 0.184c-0.015 0.070 0.001 0.070 0.005 0.113 0.003 0.037-0.001 0.006-0.009 0.038-0.022 0.089 0.003 0.069 0.006 0.091 0.001 0.001 0.001 0.005 0.001 0.007 0 0.042-0.019 0.032-0.001 0.123 0.013 0.068-0.014-0.005-0.014 0.081l0.014 0.072c0 0.002-0.002 0.007-0.003 0.009l0.005 0.123c-0.002 0.038-0.032 0.002-0.011 0.103 0.013 0.061 0.005 0.026-0.003 0.077-0.006 0.042-0.006 0.011 0.002 0.051l0.003 0.065c-0.016 0.067 0.013 0.085 0 0.141-0.026 0.109 0.015 0.064 0.001 0.125-0.023 0.095-0.023 0.556-0.021 0.628l-0.012 0.277c-0.002 0.056 0.011 0.051 0.002 0.129-0.008 0.072 0.024 0.019-0.011 0.211-0.021 0.106-0.007 0.224-0.001 0.316 0.011 0.199-0.088 0.422-0.038 0.617 0.001 0.003 0.002 0.007 0.003 0.010l0.005 0.018c0.013 0.099-0.023 0.167-0.009 0.239l-0.007 0.112c-0.004 0.101 0.033 0.174 0.008 0.267-0.009 0.032-0.020 0.029-0.041 0.057 0.073 0.019 0.046 0.081 0.016 0.126l0.031 0.015c-0.069 0.104-0.045 0.004-0.042 0.206v0.277c0.001 0.094-0.026-0.010-0.038 0.113l0.001 0.236c0 0.215 0.031 0.263-0.046 0.283 0.015 0.011 0.001 0.003 0.029 0.018 0.006 0.003 0.025 0.010 0.033 0.014-0.058 0.081-0.046-0.022-0.040 0.092l-0.004 0.227c-0.003 0.062 0.005 0.078 0.003 0.117-0.003 0.093-0.003 0.149 0 0.243 0.007 0.291-0.039 0.808-0.025 1.082l-0.015 0.078c-0.016 0.054-0.027 0.062 0.033 0.078-0.002 0.002-0.009 0.005-0.010 0.007l-0.030 0.731c-0.002 0.033-0.010 0.115-0.008 0.175 0.002 0.078 0.016 0.078 0.015 0.153l-0.030 0.018 0.030 0.047c-0.044 0.011-0.022-0.004-0.047 0.030 0.082 0.009 0.029-0.018 0.047 0.032-0.038 0.010-0.021-0.006-0.030 0.032h0.030c-0.012 0.047-0.006 0.025-0.030 0.062l0.030 0.047c-0.044 0.013-0.022-0.002-0.047 0.033l0.047 0.031c-0.060 0.017-0.038 0.008-0.036 0.096l-0.011 0.287c0 0.002 0 0.006 0 0.008-0.004 0.107 0.002-0.026-0.042 0.084-0.014 0.035-0.009 0.042-0.013 0.053-0.011 0.040 0.013 0.002-0.027 0.048-0.015 0.017-0.026 0.026-0.038 0.042-0.089 0.111-0.038 0.116-0.139 0.206l-0.056 0.056c-0.001 0.002-0.006 0.005-0.007 0.007l-0.411 0.383c-0.001 0-0.004 0.003-0.005 0.003-0.097 0.084-0.032 0.001-0.151 0.115l-0.029 0.023c-0.001-0.003-0.005 0.002-0.009 0.004-0.032 0.084 0.011-0.030-0.125 0.064-0.080 0.056 0.026 0.006-0.094 0.062-0.009 0.026 0.023 0.018-0.005 0.035-0.013 0.009-0.024 0.001-0.046 0.005-0.063 0.014-0.054 0.043-0.081 0.056-0.039 0.019 0.010-0.032-0.14 0.073-0.090 0.064-0.028-0.011-0.073 0.051-0.105 0.051-0.061-0.010-0.11 0.094-0.016-0.003-0.074-0.035-0.139 0.027l-0.009 0.011c-0.018 0.023 0 0.013-0.054 0.027-0.009 0.003-0.034 0.010-0.047 0.015-0.010 0.003-0.021 0.013-0.024 0.010-0.001-0.003-0.007 0.003-0.010 0.006l-0.016 0.015c-0.034 0.013-0.175-0.011-0.156 0.078-0.052-0.004-0.036-0.008-0.074-0.009l-0.056 0.008c-0.054 0.021-0.066 0.035-0.090 0.079-0.045-0.010-0.048-0.015-0.11-0.015-0.007 0.081-0.007 0.031-0.066 0.047l-0.546 0.127c-0.007 0.030-0.004 0.026-0.015 0.046-0.046-0.010-0.048-0.015-0.118-0.015l-0.009 0.032c-0.028 0.012-0.072 0-0.141 0-0.003 0.036 0.004 0.030-0.020 0.036-0.001 0.001-0.006-0.002-0.006-0.002l-0.13-0.003c-0.001 0.003-0.001 0.007-0.002 0.008 0 0.001-0.002 0.005-0.003 0.007-0.020 0.042-0.009 0.017-0.021 0.018-0.052 0.003 0.034-0.038-0.145 0.026l-0.022 0.004c-0.006-0.001-0.097-0.014-0.176-0.005-0.142 0.018-0.105-0.001-0.133 0.035-0.038 0.018-0.153 0-0.235 0v0.048c-0.139-0.011-0.162 0-0.314 0h-2.498l-0.016-0.048-0.102-0.001c-0.002 0-0.006-0.001-0.009-0.001-0.001 0.001-0.005 0.001-0.007 0.001s-0.006 0.002-0.007 0.002c-0.088 0.005 0.031-0.039-0.31-0.032l-0.039-0.012c-0.082-0.041-0.058-0.011-0.135-0.023-0.074-0.012-0.028-0.025-0.112-0.028-0.013 0-0.033 0.002-0.040 0.002l-0.020-0.002c-0.037-0.003-0.012-0.015-0.062 0.005l-0.020 0.010c-0.034-0.064 0.011-0.041-0.063-0.049l-0.078 0.017c-0.137-0.092-0.026-0.005-0.162-0.075-0.080-0.041-0.075-0.007-0.12-0.013-0.081-0.009-0.009-0.060-0.174-0.022-0.013-0.030-0.005-0.013-0.008-0.027l-0.123-0.020c-0.157-0.011-0.082-0.046-0.215-0.016-0.012-0.030-0.004-0.013-0.009-0.027l-0.007-0.020c-0.154 0.002-0.019 0.009-0.128-0.022l-0.077-0.038c-0.003-0.003-0.013-0.013-0.017-0.015l-0.302-0.107c-0.005-0.001-0.008-0.003-0.011-0.003l-0.078-0.022c-0.001-0.001-0.005-0.004-0.007-0.005-0.045-0.023 0.035-0.017-0.050-0.018-0.012-0.001-0.023 0.005-0.051 0.011-0.012-0.029-0.003-0.014-0.007-0.027l-0.009-0.020c-0.077 0.001-0.045 0.015-0.089-0.007l-0.023-0.013c-0.002-0.002-0.006-0.003-0.007-0.004l-0.067-0.044c-0.194-0.083-0.218-0.138-0.35-0.183-0.003-0.002-0.018-0.005-0.022-0.006-0.149-0.038-0.006 0-0.164-0.090l-0.074-0.048c-0.048-0.048-0.066-0.027-0.113-0.041-0.040-0.011-0.076-0.053-0.096-0.084-0.042-0.048-0.091-0.090-0.125-0.141-0.026-0.010-0.018-0.009-0.032-0.015-0.163-0.105-0.053-0.109-0.164-0.23-0.003-0.003-0.011-0.012-0.015-0.017-0.141-0.147 0.041-0.019-0.099-0.169-0.057-0.061-0.053-0.199-0.053-0.277l-0.046-0.031c0.037-0.010 0.021 0.006 0.031-0.032-0.027-0.021-0.030-0.011-0.021-0.091 0.005-0.050 0.005-0.068 0.002-0.121-0.003-0.067-0.001-0.118-0.003-0.191l0.006-0.507c-0.003-0.057-0.013-0.054-0.015-0.127-0.003-0.114 0.034-0.537 0.017-0.692-0.007-0.074-0.013-0.042-0.047-0.094 0.092-0.025 0.035-0.015 0-0.063 0.044-0.013 0.023 0.003 0.046-0.032-0.027-0.015-0.040 0.002-0.044-0.053l0.001-0.021c0.014-0.215-0.005-0.684-0.001-0.724 0.021-0.144 0.040-0.205-0.035-0.256 0.022-0.061 0.002-0.002 0.047-0.062-0.090-0.023-0.026-0.002-0.033-0.023-0.001-0.002 0.001-0.010 0.001-0.014l-0.001-0.025c-0.036-0.213 0.029-0.324-0.045-0.377 0.023-0.062 0.003-0.002 0.048-0.063-0.082-0.009-0.029 0.018-0.048-0.032l0.016-0.297c-0.007-0.238 0.007-0.575-0.035-0.782l0.001-0.147c0-0.003 0-0.007 0-0.009 0-0.003 0-0.007 0-0.009l0.003-0.224c-0.011-0.069 0.013 0.056-0.006-0.019-0.027-0.115 0.001-0.181-0.008-0.291-0.020-0.252 0.045-0.23-0.049-0.281 0.019-0.046-0.035-0.024 0.046-0.031v-0.031c-0.081-0.023-0.032 0.003-0.030-0.039 0.014-0.204-0.002-1.892-0.011-1.919l-0.018-0.036c-0.009-0.038-0.007 0.015 0.005-0.024 0.031-0.096 0.001 0.023-0.025-0.072 0.088-0.008 0.022-0.001 0.018-0.036s0.015-0.015 0.011-0.052c-0.005-0.040-0.007 0.030-0.009-0.025 0-0.002 0-0.006 0-0.007l0.005-0.012c0.013-0.050 0.004 0.009-0.009-0.045l-0.001-1.017c0.003-0.179-0.005-0.116-0.046-0.173 0.044-0.013 0.023 0.003 0.046-0.032l-0.046-0.032 0.016-0.078c0.002-0.023 0-0.056 0-0.080-0.001-0.053-0.003-0.111-0.004-0.161-0.005-0.128 0.011-0.164-0.012-0.263h-0.064c0.021-0.055 0.032-0.003 0.018-0.124-0.008-0.063-0.016-0.088-0.018-0.158-0.003-0.255-0.013-0.801 0.032-0.991h0.032c-0.001 0.011-0.008 0.053-0.008 0.053l0.008 0.041 0.069-0.102c0.046-0.055 0.026-0.035 0.047-0.097l0.027-0.061c0.001-0.003 0.001-0.007 0.002-0.010s0.001-0.006 0.002-0.009c0.001-0.003 0.001-0.007 0.001-0.010 0.022-0.089 0.021-0.006 0.056-0.119 0.018-0.059-0.021-0.023 0.033-0.062 0.056-0.085 0.033-0.054 0.018-0.068l-0.018-0.012c0.067-0.005 0.031 0.007 0.067-0.035l0.035-0.046c0.026-0.069 0.101-0.083 0.143-0.173l0.022-0.050c0.022-0.049-0.035-0.016 0.030-0.041 0.019-0.069 0.011-0.031 0.068-0.074 0.002-0.002 0.006-0.006 0.008-0.008 0.065-0.053 0.122-0.109 0.137-0.17 0.007-0.024-0.003-0.002 0.009-0.030 0.002-0.003 0.016-0.027 0.017-0.029 0.064-0.070 0.042 0.027 0.090-0.066l0.064-0.064c0.047-0.017 0.012-0.002 0.023-0.036 0.005-0.014-0.010-0.001 0.012-0.038 0.019-0.030 0.049-0.049 0.074-0.068l0.080-0.159 0.030 0.018c0.008-0.086 0.002-0.024 0.058-0.098 0.035-0.048 0.023-0.089 0.068-0.121 0.014-0.036 0.007-0.012 0.027-0.037 0.002-0.002 0.005-0.006 0.008-0.008l0.022-0.023c0.044-0.046 0.061-0.046 0.090-0.101l0.011-0.022c0.117-0.196 0.002-0.109 0.080-0.198 0.042-0.048 0.020-0.003 0.043-0.068 0.001-0.005 0.001-0.009 0.002-0.014l0.093-0.236c0.018-0.044 0.005-0.011 0.022-0.042 0.001-0.004 0.010-0.015 0.016-0.031l0.041-0.272c-0.001-0.074-0.001-0.147-0.001-0.221-0.002-0.001-0.005-0.002-0.006-0.003l-0.041-0.013c0.018-0.039 0.017-0.026 0.013-0.097l-0.004-0.031c-0.006-0.022-0.006-0.017-0.013-0.026-0.033-0.067 0.009-0.015-0.029-0.126-0.021-0.063-0.010-0.023-0.039-0.073-0.038-0.062 0.011-0.042-0.065-0.124-0.051-0.055-0.042-0.141-0.091-0.182-0.026-0.023-0.016 0.015-0.052-0.035-0.045-0.062-0.005-0.021-0.014-0.058l-0.113-0.186c-0.014-0.025-0.019-0.027-0.035-0.050-0.091-0.067-0.044-0.152-0.172-0.22 0.010-0.022 0.017-0.023 0.013-0.060-0.006-0.037-0.017-0.024-0.029-0.056 0-0.002-0.002-0.007-0.002-0.009-0.001-0.002-0.002-0.007-0.002-0.009-0.007-0.036 0.006-0.003-0.010-0.042l-0.024-0.045c-0.008-0.026 0.007-0.029-0.037-0.096-0.002-0.001-0.005-0.005-0.005-0.006-0.020-0.029 0.001 0.006-0.014-0.019l-0.007-0.015c-0.069-0.185-0.033-0.038-0.075-0.159-0.035-0.107-0.034-0.055-0.077-0.112 0.017-0.024 0.026 0.003 0.006-0.051-0.019-0.055 0.009 0-0.037-0.044-0.070-0.050-0.012-0.005-0.020-0.050-0.018-0.1-0.105-0.136-0.093-0.278l0.011-0.053c0.001-0.004-0.001-0.027-0.001-0.031-0.005-0.033-0.014-0.022-0.007-0.070l-0.002-0.096c-0.021-0.1 0.002-1.063-0.025-1.171-0.023-0.093 0.015 0.011 0.010-0.089-0.003-0.082 0.015-0.029-0.030-0.046l0.033-0.064-0.033-0.046c0.045-0.012 0.024 0.003 0.048-0.031-0.081-0.010-0.028 0.018-0.048-0.032 0.040-0.010 0.022 0.006 0.033-0.032h-0.033c0.005-0.059 0.017-0.053 0.017-0.125l-0.016-0.597c0.001-0.179-0.099-0.149-0.001-0.157v-0.031c-0.045-0.013-0.023 0.004-0.047-0.032l0.047-0.031c-0.032-0.009-0.017 0.009-0.031-0.019l0.007-0.51c-0.016-0.186-0.014-1.086-0.001-1.222l0.014-0.052c0.037-0.097 0.144-0.209 0.219-0.269l0.111-0.068c0.001-0.001 0.005-0.003 0.007-0.003l0.057-0.020c0.085-0.025 0.023 0.003 0.088-0.040 0.082-0.054 0.171-0.064 0.255-0.074 0.135-0.016 0.044-0.040 0.127-0.038 0.222 0.003 0.089-0.012 0.201-0.026 0.013-0.002 0.033-0.001 0.047-0.001 0.156 0 0.001-0.047 0.115-0.032 0.125 0.017 0.147-0.022 0.255-0.027 0.012-0.001 0.023-0.002 0.039-0.002 0.341-0.013 0.121-0.045 0.253-0.040 0.227 0.010 0.111-0.009 0.216-0.019 0.032-0.005 0.048-0.003 0.081-0.005 0.132-0.003 0.080-0.027 0.145-0.029l0.042-0.001c0.002 0 0.007-0.001 0.009-0.001l0.085-0.017c0.060-0.021 0.482 0.013 0.616 0 0.028-0.002 0.021-0.002 0.041-0.008l0.072-0.004c0.057 0.006 0.074-0.010 0.089-0.014 0.063-0.016 0.039 0.071 0.064-0.021 0.060 0.045 0.001 0.025 0.060 0.044l0.034-0.029zM17.965 8.55c0.371-0.898 0.52-1.183 0.957-2.027l0.837-1.429c0.224-0.353 0.115-0.163 0.147-0.574 0.093 0.042 0.065 0.064 0.075 0.182 0.113-0.093 0.066-0.137 0.191-0.169-0.041 0.143-0.144 0.205-0.163 0.332l0.069 1.336c0.011 1.038-0.128 2.259-0.502 3.214-0.097 0.246-0.19 0.427-0.301 0.631-0.119 0.214 0.034 0.577 0.032 0.833-0.164 0.21-0.509 0.493-0.715 0.692l-2.469 2.412c-0.111 0.12-0.216 0.293-0.373 0.331-0.312 0.076-0.889 0.11-1.239 0.153l-7.448 0.913c-0.83 0.103-1.653 0.203-2.483 0.305-0.806 0.099-1.65 0.23-2.45 0.298-0.121-0.53-0.172-1.346-0.241-1.91-0.077-0.631-0.702-5.488-0.676-5.674 1.472-0.225 3.022-0.369 4.509-0.55l6.765-0.821c0.727-0.088 1.526-0.218 2.249-0.274 0.195-0.017 0.302 0.096 0.453 0.182l1.979 1.159c0.231 0.133 0.58 0.371 0.795 0.455zM18.036 8.618l1.078 0.615c0.020 0.128 0.029 0.26 0.046 0.394 0.007 0.061 0.013 0.113 0.019 0.175 0.023 0.188 0.042 0.162 0.068 0.195 0.142-0.471 0.344-0.603 0.561-1.628 0.151-0.703 0.283-2.417 0.15-3.26l-0.058-0.141c-0.064 0.188-1.764 2.871-1.865 3.65zM18.265 10.311c0.034-0.379-0.21-0.671-0.476-0.763-0.057 0.389 0.077 0.778 0.476 0.763zM18.251 10.388c-0.646-0.093-0.489-0.589-0.556-0.874-0.673-0.159-1.212 0.581-0.807 1.16 0.384 0.552 1.268 0.376 1.364-0.285z"></path>
<path fill="#17ff5d" d="M5.216 12.945l-0.076-0.905c-0.288-0.057-0.505-0.162-0.649-0.314-0.145-0.153-0.227-0.346-0.247-0.579-0.020-0.236 0.037-0.442 0.173-0.614 0.135-0.174 0.324-0.283 0.569-0.328l-0.018-0.212 0.315-0.027 0.018 0.212c0.233 0.008 0.423 0.071 0.57 0.189s0.249 0.283 0.304 0.496l-0.543 0.117c-0.049-0.167-0.145-0.275-0.29-0.324l0.071 0.845c0.355 0.064 0.603 0.165 0.741 0.304 0.139 0.139 0.218 0.324 0.238 0.558 0.022 0.261-0.039 0.486-0.183 0.679-0.144 0.192-0.354 0.321-0.633 0.389l0.034 0.403-0.315 0.027-0.034-0.399c-0.251-0.009-0.46-0.084-0.629-0.226s-0.286-0.351-0.353-0.629l0.558-0.114c0.033 0.113 0.084 0.208 0.155 0.286 0.070 0.079 0.145 0.133 0.226 0.164zM5.025 10.675c-0.082 0.038-0.144 0.093-0.188 0.167s-0.062 0.152-0.055 0.235c0.006 0.076 0.034 0.145 0.085 0.207s0.124 0.109 0.221 0.141l-0.064-0.75zM5.534 12.954c0.107-0.033 0.191-0.092 0.252-0.178 0.062-0.086 0.088-0.182 0.079-0.291-0.008-0.096-0.044-0.177-0.107-0.242s-0.162-0.111-0.295-0.137l0.071 0.848zM8.862 12.548l0.048 0.563-2.133 0.18c0.005-0.216 0.058-0.424 0.157-0.626s0.306-0.474 0.619-0.82c0.253-0.278 0.406-0.466 0.46-0.562 0.073-0.133 0.104-0.26 0.094-0.384-0.011-0.136-0.056-0.237-0.136-0.304-0.078-0.068-0.182-0.095-0.31-0.084s-0.224 0.057-0.294 0.141c-0.068 0.082-0.1 0.213-0.097 0.392l-0.612-0.010c0.008-0.338 0.101-0.589 0.279-0.751s0.41-0.255 0.696-0.279c0.313-0.026 0.566 0.038 0.761 0.192 0.193 0.154 0.3 0.357 0.321 0.609 0.012 0.143-0.002 0.281-0.042 0.415s-0.109 0.276-0.21 0.427c-0.065 0.101-0.187 0.247-0.365 0.44s-0.29 0.32-0.336 0.383c-0.047 0.062-0.083 0.123-0.111 0.18l1.21-0.102zM10.081 9.799c0.307-0.026 0.557 0.064 0.748 0.27 0.229 0.243 0.368 0.666 0.419 1.269 0.050 0.602-0.018 1.044-0.203 1.325-0.153 0.232-0.384 0.36-0.691 0.387-0.309 0.026-0.568-0.072-0.777-0.294s-0.34-0.639-0.391-1.249c-0.051-0.6 0.017-1.040 0.203-1.321 0.154-0.231 0.384-0.36 0.692-0.386zM10.123 10.304c-0.072 0.006-0.135 0.036-0.188 0.088s-0.090 0.139-0.111 0.263c-0.029 0.161-0.026 0.429 0.005 0.802s0.072 0.628 0.12 0.765c0.049 0.136 0.103 0.226 0.163 0.267s0.127 0.059 0.199 0.053c0.072-0.006 0.135-0.035 0.188-0.087s0.089-0.139 0.111-0.264c0.028-0.159 0.026-0.427-0.005-0.8s-0.072-0.628-0.12-0.765c-0.048-0.136-0.103-0.226-0.163-0.268-0.061-0.043-0.127-0.061-0.199-0.055zM12.547 9.591c0.307-0.026 0.557 0.064 0.748 0.27 0.229 0.243 0.368 0.666 0.419 1.27 0.051 0.602-0.017 1.044-0.203 1.325-0.153 0.232-0.384 0.36-0.691 0.386-0.31 0.026-0.568-0.072-0.777-0.294s-0.34-0.639-0.392-1.249c-0.050-0.6 0.018-1.040 0.203-1.321 0.153-0.231 0.384-0.361 0.692-0.387zM12.589 10.096c-0.072 0.006-0.135 0.035-0.188 0.087s-0.090 0.139-0.111 0.264c-0.029 0.161-0.027 0.429 0.005 0.802 0.031 0.374 0.072 0.629 0.12 0.765s0.103 0.226 0.163 0.268 0.127 0.059 0.199 0.053c0.072-0.006 0.135-0.035 0.188-0.087 0.052-0.052 0.089-0.139 0.111-0.264 0.028-0.159 0.026-0.426-0.006-0.8-0.031-0.373-0.071-0.628-0.12-0.765s-0.103-0.226-0.163-0.269c-0.060-0.042-0.127-0.060-0.199-0.054z"></path>
<path fill="#17ff5d" d="M21.783 20.612c-0.346-1.045-0.659-1.556-0.637-3.1 0.052-3.676 2.24-5.010 2.678-0.912 0.157 1.473-0.076 2.149-0.486 3.626l0.53 0.112c0.456-1.142 1.313-2.377 2.076-2.857 0.628-0.395 2.676-0.79 3.636 0.064 0.61 0.543 0.203 1.094-0.461 1.268-1.688 0.443-1.543 0.63-2.729 1.64-0.519 0.441-0.854 0.504-1.369 0.859 0.087 0.469 0.592 1.223-0.048 2.248-0.979-0.698-1.784-1.221-3.225-1.117-0.239 0.017-0.356 0.059-0.553 0.078-1.053 0.105 0.166-1.641 0.588-1.908z"></path>
<path fill="#17ff5d" d="M22.346 23.581c-1.167 0.176-0.953 1.912 0.235 1.786 0.123-0.013 0.249-0.059 0.317-0.098 0.932-0.531 0.4-1.832-0.553-1.688z"></path>
</svg>
