<?xml version="1.0" encoding="UTF-8"?>
<!DOCTYPE svg PUBLIC "-//W3C//DTD SVG 1.1//EN" "http://www.w3.org/Graphics/SVG/1.1/DTD/svg11.dtd">
<!-- Creator: CorelDRAW 2017 -->
<svg xmlns="http://www.w3.org/2000/svg" xml:space="preserve" width="18.7112mm" height="6.6038mm" version="1.1" style="shape-rendering:geometricPrecision; text-rendering:geometricPrecision; image-rendering:optimizeQuality; fill-rule:evenodd; clip-rule:evenodd"
viewBox="0 0 1871.12 660.38"
 xmlns:xlink="http://www.w3.org/1999/xlink">
 <defs>
  <style type="text/css">
   <![CDATA[
    .fil1 {fill:#066738}
    .fil0 {fill:#F5ED30}
    .fil2 {fill:#F9F8F8}
   ]]>
  </style>
 </defs>
 <g id="Capa_x0020_1">
  <metadata id="CorelCorpID_0Corel-Layer"/>
  <path class="fil0" d="M1497.53 206.31c-1.94,-119.18 18.34,-153.3 -120,-144.91 50.33,80.74 0.38,143.76 56.2,203.88 16.59,17.86 34.78,20.1 52.41,34.35l0.92 71.83 85.15 0.75 1.79 -69.4 16.56 -7.21c15.37,-5.48 32.98,-14.64 43.67,-24.85 61.46,-58.68 24.52,-94.77 42.22,-138.34 9.65,-23.75 38.3,-32.99 56.52,-9.73 -4.66,17.05 -12.15,12.86 -9.74,26.24l118.26 11.85c-1.92,-16.68 -37.07,-105.06 -44.67,-115.07 -25.26,11.9 -1.14,13.14 -48.75,-4.23 -54.92,-20.04 -120.05,-15.73 -154.2,26.52 -46.73,57.82 9,137.54 -49.09,156.8 -23.9,7.93 -37.78,-8.13 -47.25,-18.48zm-241.87 72.84c-59.52,35.98 -125,-1 -158.11,-6.54 -14.29,34.28 -37.48,46.84 -33.68,73.97 82.18,45.07 244.3,35 288.73,-36.02 21.14,-33.8 8.18,-93.38 -49.88,-123.56 -25.83,-13.43 -41.67,-15.51 -71.33,-22.89 -11.9,-2.96 -23.37,-7.56 -35.23,-11.8 -15.7,-5.6 -21.02,-6.06 -25.92,-22.41 25.64,-39.17 119.67,0.21 138.84,3.72 8.25,-9.34 33.76,-55.04 36.96,-69.53 -23.28,-11.27 -32.32,-18.72 -66.65,-23.11 -73.25,-9.38 -178.82,-9.69 -208.16,64.39 -37.76,95.3 82.44,120.04 127.42,135.3 25.94,8.8 54.08,8.78 57.01,38.48z"/>
  <path class="fil1" d="M706.5 50.96c1.86,36.77 4.52,202.87 -3.9,227.39 -12.3,35.8 -24.14,50.03 -47.76,67.91 -81.07,61.38 -186.52,14.15 -208.8,-72.69 -7.88,-30.72 -2.82,-178.26 -2.65,-222.67l95.51 0.46c1.78,44.44 0.36,91.58 0.36,136.32 -0.01,80.54 -6.52,71.21 27.26,105.62 54.55,-1.17 46.3,-53.96 46.3,-102.01 0.01,-46.01 -1.09,-93.39 0.24,-140.31l93.44 -0.02zm963.87 433.15c10.49,16.41 10.15,63.18 12.14,86.58l47.24 -3.23c-0.29,-15.24 -6.35,-89.48 -10.4,-100.17 -5.06,-13.33 -18.37,-21.05 -34.44,-20.74 -20.22,0.39 -24.87,10.21 -36.15,16.36l-5.39 -51.21 -47.43 3.36 15.3 163.54 47.37 -5.48c-0.58,-17.21 -2.73,-34.13 -4.72,-51.46 -2.65,-23.1 -9.29,-39.61 16.48,-37.55zm-745.89 124.99c-31.45,23.6 -44.7,-14.77 0.64,-22.14l-0.64 22.14zm-141.56 -31.4c-8,4.06 -3.74,3.04 -15.48,4.47 -4.63,0.57 -11.79,0.59 -16.57,0.89 3.66,-27.34 26.81,-31.19 32.05,-5.36zm593.4 -53.55c0.79,-13.2 1,-20.73 15.86,-20.86 15.04,-0.13 14.18,5.75 16.4,18.43l-32.26 2.43zm134.26 -30.66c19.35,-14.37 31.97,15.6 67.35,-6.07 -12.83,-39.65 -86.62,-28.96 -102.5,-3.02 -12.27,20.03 -3.68,44.42 12.1,52.13 17.74,8.66 43.53,2.8 60.54,12.28 -14.17,33.36 -41.43,-16.77 -77.17,10.83 15.61,41.06 91.03,34.85 112.44,6.84 11.94,-15.6 19.98,-59.74 -43.06,-62.09 -39.97,-1.49 -25.8,-0.35 -29.7,-10.9zm-319.6 0.51c0.05,-24.65 7.9,-11.04 29.89,-21.08l-3.52 -27.36c-66.46,-6.01 -69.89,16.01 -71.79,53.48l-17.16 2.46 2.67 25.64c21.41,15.29 3.82,2.33 11.27,4.88 4.31,1.47 4.62,0.94 7.45,2.32l7.5 85.69 44.96 -3.19 -6.76 -89.97 29.16 -4.18 -2.51 -28.8 -31.16 0.11zm-147.46 51.2c0.95,-0.67 2.11,-1.49 2.94,-1.89 0.81,-0.39 1.99,-1.25 2.97,-1.67l15.8 -3.72 -1.53 -29.57 -23.92 -0.89 -4.01 -37 -44.38 4.42 1.43 34.21 -16.17 7.29 2.07 28.82c3.99,1.4 7.25,1.29 8.92,1.9 37.66,13.7 -28.13,108.05 87.07,81.15l-2.19 -32.31 -24.02 -0.81 -4.98 -49.93zm203.29 66.98l43.63 -3.22c7.62,-40.03 -26.47,-80.42 26.7,-84.85l-4.45 -39.8c-20.2,-2.09 -29.04,5.86 -34.81,23.14l-2.42 -19.47 -39.57 3.03 10.92 121.17zm506.45 -47.75l45.18 -4.01 -5.32 -42.79 -43.2 3.27 3.34 43.53zm-1475.94 -378.37c78.38,11.72 76.43,-76.61 -0.7,-62.76l0.7 62.76zm1180.58 354.98c6.32,-84.19 -119.39,-85.96 -130.04,-13.46 -13.23,89.99 122.69,97.42 131.28,23.54l-41.68 2.12c-11.1,16.28 -9.64,17.57 -33.36,14.08l-5.08 -18.36 78.88 -7.92zm-702.57 69.16c20.99,-10.34 52.98,-3.49 76.66,-10.83 11.51,-82.82 -124.11,-90.82 -128.84,-7.03 -5.18,91.6 127.24,82.34 130.99,18.62l-41.7 0.98c-16.35,26.23 -34.05,21.07 -37.11,-1.74zm131.04 -46.25c8.72,-7.56 9.55,-13 18.65,-14.52 12.41,-2.08 13.29,1.82 17.19,10.21 -14.41,12.39 -83.43,9.98 -73.34,61.5 4.56,23.27 39.48,44.64 81.88,8.37l3.42 12.56 43.6 -3.64c-1.87,-21.71 -6.21,-44.7 -8.12,-67.94 -2.11,-25.56 -4.16,-39.71 -24.9,-47.4 -18.49,-6.85 -45.28,-4.39 -63.96,1.94 -19.78,6.71 -30.44,17.48 -33.97,38.72l39.55 0.2zm-150 -353.19c12.49,5.56 29.6,18.73 36.74,29.78 -21.7,3.78 -27.19,14.89 -37.15,32.37l0.41 -62.15zm-544.28 -163.81c91.42,-8.5 186.88,-11.73 221.56,63.95 17.13,37.39 2.95,88.17 -18.28,113.21 -23.27,27.45 -54.01,38.57 -103.38,41.69 -5.77,18.13 5.04,45.66 -5,74.18 -8.27,23.5 -19.92,32.37 -38.92,43.9 -51.44,31.22 -86.22,7.25 -138.12,2.54l-10.7 17.74c-9.82,-5.89 -29.59,-40.47 -37.67,-52.97 -8.59,-13.28 -30.33,-39.62 -28.92,-52.56l120.93 -9.83 -10.14 25.28c17.71,16.59 33.77,12.93 48.5,-3.61l0.14 -263.52zm1130.61 115.45c0.66,-0.64 1.62,-1.43 2.06,-1.82 0.43,-0.39 1.52,-1.32 2.04,-1.81 18.54,-17.12 22.79,-47.45 40.04,-61.16 9.49,36.64 7.92,71.15 9.06,110.54 -14.04,-8.04 -15.79,-15.81 -26.17,-25.02 -9.17,-8.15 -18.86,-13.8 -27.03,-20.73zm-67.04 116.75c-2.93,-29.7 -31.07,-29.68 -57.01,-38.48 -44.98,-15.26 -165.18,-40 -127.42,-135.3 29.34,-74.08 134.91,-73.77 208.16,-64.39 34.33,4.39 43.37,11.84 66.65,23.11 -3.2,14.49 -28.71,60.19 -36.96,69.53 -19.17,-3.51 -113.2,-42.89 -138.84,-3.72 4.9,16.35 10.22,16.81 25.92,22.41 11.86,4.24 23.33,8.84 35.23,11.8 29.66,7.38 45.5,9.46 71.33,22.89 58.06,30.18 71.02,89.76 49.88,123.56 -44.43,71.02 -206.55,81.09 -288.73,36.02 -3.8,-27.13 19.39,-39.69 33.68,-73.97 33.11,5.54 98.59,42.52 158.11,6.54zm-327.78 -4.8c-8.84,-32.45 -77.52,-34.91 -128.52,-57.63 -51.58,-22.98 -76.63,-65.38 -53.89,-115.82 39.76,-88.19 224.82,-73.92 273.15,-35.01 -4.42,13.52 -26.25,57.17 -38.31,67.88 -35.56,-9.44 -113.39,-40.83 -137.81,-3.87 12.56,45.6 140.44,23.35 180.67,101.63 61.84,120.31 -139.6,177.78 -288.01,115.13 -0.22,-20.88 13.88,-39.33 26.85,-59.34l12.36 -14.49c27.07,7.46 41.39,17.78 75.72,20.3 29.35,2.16 64.08,2.56 77.79,-18.78zm569.65 -68.04c9.47,10.35 23.35,26.41 47.25,18.48 58.09,-19.26 2.36,-98.98 49.09,-156.8 34.15,-42.25 99.28,-46.56 154.2,-26.52 47.61,17.37 23.49,16.13 48.75,4.23 7.6,10.01 42.75,98.39 44.67,115.07l-118.26 -11.85c-2.41,-13.38 5.08,-9.19 9.74,-26.24 -18.22,-23.26 -46.87,-14.02 -56.52,9.73 -17.7,43.57 19.24,79.66 -42.22,138.34 -10.69,10.21 -28.3,19.37 -43.67,24.85l-16.56 7.21 -1.79 69.4 -85.15 -0.75 -0.92 -71.83c-17.63,-14.25 -35.82,-16.49 -52.41,-34.35 -55.82,-60.12 -5.87,-123.14 -56.2,-203.88 138.34,-8.39 118.06,25.73 120,144.91zm31.93 -11.28c-12.25,-23.77 4.09,-80.4 -8.03,-111.22 -23.27,-59.22 -82.34,-51.95 -132.88,-53.01 -34.08,-0.71 -20.43,9.41 -48.43,-4.1 -30.01,-14.48 -67.29,-15.83 -103.75,-19.05 -118.95,-10.53 -226.43,52.87 -194.34,161.57 8.97,30.4 32.44,50.66 57.75,65.41 -10.76,14.3 -10.24,4.79 -20.55,15.72 -7.6,8.06 -6.46,12.05 -16.32,20.66 -3.06,-28.13 -8.23,-45.34 -21.23,-65.23 -16.98,-25.97 -24.86,-23.79 -47.22,-43.38 12.54,-12.23 18.4,-23.84 27.91,-41.01 16.83,-30.41 69.38,-85.77 -54.62,-108.36 -55.47,-10.11 -137.82,-10.4 -189.86,15.94 -19.24,9.74 -28.57,20.62 -41.55,27.69 -1.98,-45.61 -31.67,-35.96 -73.96,-35.94 -34.04,0.01 -75.9,-8.55 -78.68,29.74 -1.7,23.23 3.11,195.07 -2.51,204.09 -6.22,9.99 1.29,2.91 -9.14,4.39 -12.35,-36.08 3.2,-164.27 -3.68,-212.07 -5.1,-35.4 -48.49,-26.16 -83.02,-26.15 -28.88,0.01 -54.22,-5.57 -66.45,13.74 -3.97,6.26 -2.27,5.4 -4.14,9.87l-5.29 10.1c-28.57,-19.78 -45.98,-32.58 -90.22,-38.78 -26.38,-3.7 -106.45,-3.12 -131.66,1.99 -35.28,7.14 -25.22,53.31 -25.22,108.65 0,40.49 2.79,92.27 -0.67,131.36 -34.63,0.82 -75.37,5.74 -110.06,9.12 -89.41,8.71 -43.91,57.02 6.15,131.54 8.14,12.11 14.95,28.72 27.81,33.65 8.6,3.29 17.22,3.28 25.25,-1.06 3.45,-1.87 4.81,-4.07 7.56,-6.91l9.26 -9.21c70.18,20.17 141.5,15.17 180.1,-50.99 13.94,-23.89 10.88,-40.53 15.04,-71.38 17.45,-7.03 32.55,-7.63 49.1,-15.72 17.16,-8.38 27.69,-20.09 41.73,-25.34 2.87,67.07 56.82,124.02 107.82,142.62 73.8,26.91 154.31,-14.4 180.48,-54.84 2.89,4.54 0.19,-3.43 3.57,7.76 8.1,26.85 12.14,25.39 57.43,39.46 72.21,22.43 164.66,19.58 232.83,-13.51 15.2,-7.38 23.21,-16.29 35.12,-23.02 21.95,30.16 47.32,35.43 93.43,44.45 69.46,13.59 171.77,6.03 226.19,-38.81 31.74,-26.15 40.29,-49.03 38.56,-103.02 30.43,41.37 26.62,34.3 67.01,63 5.61,18.62 -1.93,54.02 5.69,69.96 10.02,20.96 38.97,15.29 64.08,15.29 82.56,-0.01 74.79,2.43 76.15,-79.78 69.66,-22.55 96.71,-74.75 98.94,-146.92 67.34,2.65 156,32.58 168.76,-4.36 7.45,-21.6 -46.71,-149.45 -58.05,-154.86 -19.77,-3.36 -24.08,0.72 -36.51,6.73 -39.08,-10.93 -43.76,-20.66 -93.94,-21.06 -60.45,-0.48 -118.79,35.3 -134.38,95.96 -8.02,31.18 -0.1,63.26 -2.4,84.34 -1.49,13.58 -2.48,13.46 -14.96,14.29z"/>
  <g id="_2093486157056">
   <path class="fil2" d="M927.88 274.35c-13.71,21.34 -48.44,20.94 -77.79,18.78 -34.33,-2.52 -48.65,-12.84 -75.72,-20.3l-12.36 14.49c-12.97,20.01 -27.07,38.46 -26.85,59.34 148.41,62.65 349.85,5.18 288.01,-115.13 -40.23,-78.28 -168.11,-56.03 -180.67,-101.63 24.42,-36.96 102.25,-5.57 137.81,3.87 12.06,-10.71 33.89,-54.36 38.31,-67.88 -48.33,-38.91 -233.39,-53.18 -273.15,35.01 -22.74,50.44 2.31,92.84 53.89,115.82 51,22.72 119.68,25.18 128.52,57.63z"/>
   <path class="fil2" d="M277.32 186.06l-0.7 -62.76c77.13,-13.85 79.08,74.48 0.7,62.76zm-85.23 -139.11l-0.14 263.52c-14.73,16.54 -30.79,20.2 -48.5,3.61l10.14 -25.28 -120.93 9.83c-1.41,12.94 20.33,39.28 28.92,52.56 8.08,12.5 27.85,47.08 37.67,52.97l10.7 -17.74c51.9,4.71 86.68,28.68 138.12,-2.54 19,-11.53 30.65,-20.4 38.92,-43.9 10.04,-28.52 -0.77,-56.05 5,-74.18 49.37,-3.12 80.11,-14.24 103.38,-41.69 21.23,-25.04 35.41,-75.82 18.28,-113.21 -34.68,-75.68 -130.14,-72.45 -221.56,-63.95z"/>
   <path class="fil2" d="M706.5 50.96l-93.44 0.02c-1.33,46.92 -0.23,94.3 -0.24,140.31 0,48.05 8.25,100.84 -46.3,102.01 -33.78,-34.41 -27.27,-25.08 -27.26,-105.62 0,-44.74 1.42,-91.88 -0.36,-136.32l-95.51 -0.46c-0.17,44.41 -5.23,191.95 2.65,222.67 22.28,86.84 127.73,134.07 208.8,72.69 23.62,-17.88 35.46,-32.11 47.76,-67.91 8.42,-24.52 5.76,-190.62 3.9,-227.39z"/>
  </g>
 </g>
</svg>
