<!-- Generated by IcoMoon.io -->
<svg version="1.1" xmlns="http://www.w3.org/2000/svg" width="32" height="32" viewBox="0 0 32 32">
<title>remando</title>
<path d="M28 28l-4 4-4-4v-2l-9.437-9.437q-0.437 0.063-1.251 0.063v-2.875q1.625 0.063 3.375-0.719t2.875-1.969l1.875-2.063q1-1 2.188-1h0.063q1.188 0 2.093 0.875t0.907 2.125v7.688q0 1.625-1.251 2.875l-4.751-4.751v-3.063q-1.251 1.063-3.063 1.875l8.375 8.375h2zM20 1.312q1.063 0 1.875 0.812t0.812 1.875-0.812 1.875-1.875 0.812-1.875-0.812-0.812-1.875 0.812-1.875 1.875-0.812zM11.312 19.312l3.375 3.375h-2.688l-4.688 4.625-2-2z"></path>
</svg>
