<!-- Generated by IcoMoon.io -->
<svg version="1.1" xmlns="http://www.w3.org/2000/svg" width="32" height="32" viewBox="0 0 32 32">
<title>reserva-en-lina</title>
<path d="M17.812 26.688l0.751 2.625h-11.875q-1.125 0-1.907-0.781t-0.781-1.844v-18.688q0-1.125 0.781-1.907t1.907-0.781h1.312v-2.625h2.688v2.625h10.625v-2.625h2.688v2.625h1.312q1.125 0 1.907 0.781t0.781 1.907v11.875l-2.688-0.751v-5.812h-18.625v13.375h11.125zM28.937 28.375l-4.312-4.312 3.375-1.375-9.312-2.688 2.625 9.312 1.437-3.312 4.312 4.251zM16 22.688v-6.688h-6.688v6.688h6.688z"></path>
</svg>
