<!-- Generated by IcoMoon.io -->
<svg version="1.1" xmlns="http://www.w3.org/2000/svg" width="28" height="32" viewBox="0 0 28 32">
<title>tepozspa-viaje-en-bus-cdmx</title>
<path fill="#a53692" d="M-0-0h27.99v32h-27.99z"></path>
<path fill="#693360" d="M22.993 18.021c1.218 1.644 0.555 2.336 1.694 2.084l0.061-0.345c-0.003-0.031-0.010-0.087-0.016-0.122-0.031-0.165-0.119-0.332-0.184-0.48-0.145-0.335-0.296-0.658-0.459-0.882-0.448-0.617-1.132-0.673-1.994-0.763 0.764 0.864-0.628-0.312 0.573 0.312l0.325 0.196z"></path>
<path fill="#693360" d="M6.011 25.85c0.501 0.118 5.147 0.080 5.875-0.113 0.704-0.187 0.355-0.105 0.567-0.564l-6.442 0.677z"></path>
<path fill="#693360" d="M7.142 26.83c0.879 0.015 1.748 0.018 2.627 0.006 1.039-0.013 1.754 0.232 2.236-0.597-1.033 0.106-3.917 0.18-4.716 0.505-0.046 0.019-0.098 0.057-0.147 0.086z"></path>
<path fill="#693360" d="M2.882 23.264c-0.006-1.243 0.218-1.31 1.255-1.616 2.117-0.623 4.737-1.643 6.7-2.066-0.117 0.092-0.137 0.137-0.366 0.256l-3.916 1.402c-1.87 0.688-3.299 0.917-3.673 2.023zM9.762 19.085c-0.385 0.4-0.343 0.297-0.963 0.456-1.119 0.404-2.137 0.758-3.268 1.17-0.618 0.225-1.118 0.39-1.713 0.614-0.906 0.341-0.852 0.304-1.363 0.808-0.098 0.916-0.041 1.738-0.032 2.655 0.001 0.075 0.024 2.888 0.129 1.806 0.321-2.226 0.088-1.753 2.593-2.079l3.169-0.528 0.037-2.996c0.060 0.646 0.163 2.019 0.314 2.92l3.023-0.478 0.035-2.36c0.023 0.042 0.043 0.061 0.050 0.133l0.319 2.099 3.749-0.428 0.132-3.973c-0.265 1.209 0.716 4.929 0.236 6.492 0.047 0.104 0.070 0.034 0.126 0.393 0.024 0.151 0.037 0.483 0.042 0.646 0.015 0.429 0.017 0.858 0.019 1.289l1.278-0.044-0.843-0.404-0.193-4.366c1.089 0.146 2.471 2.57 2.62 3.591 0.254-0.368 0.167-0.455 0.305-0.832 0.943 0.030 5.249 0.602 6.136-0.219-0.451-0.288-1.422-0.050-1.977-0.032-0.874 0.028-1.589 0.020-2.46-0.067 0.442 0.018 3.377-0.339 3.881-0.614 0.41-0.224 0.145 0.020 0.408-0.368l-3.89 0.196c0.391 0.065 1.247-0.23 1.818-0.335 0.56-0.103 1.501-0.133 1.898-0.604-0.598-0.29-1.896-0.016-2.705-0.025 0.587-0.192 2.193-0.185 2.517-0.805-0.307-0.524-1.458-0.196-2.101-0.243l1.863-0.323c0.001-0.703-0.525-2.004-0.936-2.422-0.199-0.003-0.035 0.072-0.301-0.044-0.022-0.010-0.068-0.036-0.090-0.049-0.831-0.479-0.468-0.886-1.324-0.994l0.258-0.421c0.011-0.034-0.011-0.261-0.005-0.309l0.073-0.124c-0.578-0.068-1.298-0.156-1.665-0.457-1.388 0.1-2.466-0.569-3.036-0.037 0.678 1.23 1.489 0.157 2.206 1.034 0.309 0.378 0.808 1.808 0.708 2.485-1.794 0.206-0.232-2.641-2.563-2.548 0.467 1.74 0.994 3.801 1.078 5.803-0.617-1.854-1.238-5.511-2.282-7.004-2.047 0.078-6.3 1.963-7.312 1.941z"></path>
<path fill="#693360" d="M13.396 24.667c0.038-0.021 0.094-0.094 0.116-0.058l0.57-0.149c0.206-0.032 0.516-0.050 0.737-0.077 0.709-0.048 0.507-0.047 0.727-0.286-0.402-0.563-1.084-0.274-2.655-0.052l-8.603 1.252c-0.706 0.185-0.154 0.019-0.43 0.159 1.993-0.049 8.179-1.088 9.538-0.788z"></path>
<path fill="#693360" d="M20.832 26.816l-0.096-0.29c0.009-0.003 0.073 0.041 0.080 0.012 0.008-0.032 0.052 0.029 0.080 0.041l0.727 0.102c-0.156-0.205 0.001-0.285-0.674-0.463-0.305-0.081-0.803-0.127-1.119-0.161l0.051 0.951 0.95-0.191z"></path>
<path fill="#693360" d="M16.731 28.661c1.452-0.096 2.347-0.102 2.693 0.618l-3.533-0.226c0.495-0.314-0.087-0.33 0.84-0.392zM10.269 29.103c0.428-0.464 0.676-0.292 1.494-0.298 0.961-0.008 0.949-0.199 1.363 0.461-0.572 0.003-2.397 0.165-2.858-0.163zM8.508 29.021c-0.21 0.199 0.038 0.316-1.061 0.322-0.447 0.002-0.903-0.003-1.351-0.009 0.324-0.613 0.106-0.492 1.007-0.514 0.759-0.018 0.793-0.083 1.405 0.201zM5.209 28.871c-0.63 0.105-0.647 0.115-0.931-0.425 0.051 0.019 0.494 0.139 0.522 0.151 0.478 0.207 0.040-0.039 0.409 0.273zM14.086 28.881c-0.537-0.202-0.604-0.313-0.79-0.775 0.565 0.351 0.798 0.608 1.435 0.082-0.164 0.608-0.043 0.451-0.644 0.693zM4.586 27.414c0.4 0.351 0.561 0.368 0.043 0.671l-0.043-0.671zM14.086 26.925c0.26 0.538 0.23 0.342-0.016 0.795-0.355-0.294-0.535-0.445 0.016-0.795zM4.586 27.414c-0.323-0.093-0.103 0.134-0.266-0.152 0.433-0.481 0.24-0.47 0.861-0.269-0.195 0.607-0.035 0.246-0.595 0.421zM13.51 26.856c0.011-0.677 0.039-0.47 0.409-0.774 0.668 0.147 0.579 0.077 0.703 0.718-0.426-0.205-0.833-0.491-1.113 0.056zM13.072 26.299c0.402-1.499 1.611-1.259 1.788 0.119-0.192-0.311-0.287-0.292-0.53-0.639-0.762 0.021-0.908 0.16-1.258 0.521zM5.118 26.090c-0.701 0.337 0.052-0.145 0.342 1.043-0.589-0.626-0.928-0.616-1.523-0.007 0.191-1.207 1.245-0.792 0.352-1.025-0.353 0.465-0.342 0.131-0.556 0.771-0.152 0.455-0.116 0.931-0.15 1.401l-0.734 0.26c-0.037 0.017-0.097 0.043-0.141 0.074 0.952 0.138 1.231 0.044 1.594 0.662l-2.644 0.202c1.548 0.46 23.823 0.455 25.508 0.037l-5.036-0.207c0.012-1.143 1.733-0.237 3.747-1.037 0.165-0.61 0.061-1.375-0.065-2.123l-0.683 0.173c0.022 0.097 0.035 0.116 0.038 0.151l0.164 0.342c0.283 0.471 0.276 0.348 0.243 0.802-1.249 1.002-7.936 0.451-9.996 0.451l-0.166-1.691c-0.216-0.791-0.429-1.065-1.191-1.339-1.972 0.023-1.47 1.373-1.962 2.29l-6.090 0.258c1.119 0.768 5.081-0.317 6.241 0.363-0.139 0.302 0.304 0.328-1.305 0.32l-5.156 0.021c-0.33-1.024 0.221-1.6-0.831-2.193z"></path>
<path fill="#693360" d="M8.173 7.164l-0.652-0.912-0.674 0.912h-0.94l1.144-1.497-1.105-1.475h0.967l0.63 0.867 0.647-0.867h0.917l-1.105 1.453 1.149 1.519h-0.978zM9.296 4.192h0.862v2.972h-0.862v-2.972zM9.727 3.778c-0.158 0-0.287-0.046-0.387-0.138s-0.149-0.206-0.149-0.342 0.050-0.25 0.149-0.342c0.099-0.092 0.229-0.138 0.387-0.138s0.287 0.044 0.387 0.133 0.149 0.199 0.149 0.332c0 0.144-0.050 0.262-0.149 0.356s-0.229 0.141-0.387 0.141zM10.684 4.192h0.862v2.972h-0.862v-2.972zM11.115 3.778c-0.158 0-0.287-0.046-0.387-0.138s-0.149-0.206-0.149-0.342 0.050-0.25 0.149-0.342c0.099-0.092 0.228-0.138 0.387-0.138s0.287 0.044 0.387 0.133c0.099 0.088 0.149 0.199 0.149 0.332 0 0.144-0.050 0.262-0.149 0.356s-0.228 0.141-0.387 0.141zM13.829 4.148c0.276 0 0.528 0.064 0.754 0.191s0.404 0.306 0.533 0.536c0.129 0.23 0.193 0.498 0.193 0.804s-0.065 0.574-0.193 0.804c-0.129 0.23-0.307 0.409-0.533 0.536s-0.478 0.191-0.754 0.191c-0.409 0-0.72-0.129-0.934-0.387v0.342h-0.823v-4.099h0.862v1.442c0.217-0.239 0.516-0.359 0.895-0.359zM13.68 6.501c0.221 0 0.402-0.075 0.544-0.224s0.213-0.349 0.213-0.599c0-0.25-0.071-0.45-0.213-0.599s-0.323-0.224-0.544-0.224c-0.221 0-0.403 0.075-0.544 0.224s-0.213 0.349-0.213 0.599c0 0.25 0.071 0.45 0.213 0.599s0.323 0.224 0.544 0.224zM17.107 6.518c0.155 0 0.292-0.023 0.412-0.069s0.231-0.119 0.334-0.218l0.459 0.497c-0.28 0.32-0.689 0.481-1.227 0.481-0.335 0-0.632-0.065-0.89-0.196s-0.457-0.312-0.597-0.544-0.21-0.495-0.21-0.79c0-0.291 0.069-0.553 0.207-0.787s0.328-0.416 0.569-0.547 0.513-0.196 0.815-0.196c0.284 0 0.542 0.060 0.774 0.18s0.417 0.293 0.555 0.519 0.207 0.494 0.207 0.804l-2.2 0.425c0.063 0.147 0.161 0.258 0.296 0.331s0.299 0.11 0.495 0.11zM16.98 4.8c-0.217 0-0.394 0.070-0.531 0.21s-0.208 0.333-0.216 0.58l1.448-0.282c-0.041-0.155-0.123-0.278-0.249-0.37s-0.276-0.138-0.453-0.138zM19.645 4.584c0.103-0.144 0.242-0.252 0.417-0.326s0.377-0.111 0.605-0.111v0.796c-0.096-0.007-0.16-0.011-0.193-0.011-0.247 0-0.44 0.069-0.58 0.207s-0.21 0.345-0.21 0.621v1.403h-0.862v-2.972h0.823v0.392z"></path>
<path fill="#693360" d="M6.503 15.702c-0.073 0.054-0.163 0.095-0.269 0.122s-0.217 0.041-0.332 0.041c-0.309 0-0.545-0.078-0.711-0.234s-0.248-0.385-0.248-0.687v-2.251h0.744v0.625h0.634v0.572h-0.634v1.044c0 0.108 0.027 0.192 0.081 0.25s0.132 0.088 0.234 0.088c0.114 0 0.216-0.032 0.305-0.095l0.196 0.524zM7.896 15.269c0.134 0 0.252-0.020 0.355-0.060s0.2-0.103 0.289-0.188l0.396 0.429c-0.242 0.277-0.595 0.415-1.059 0.415-0.289 0-0.545-0.056-0.768-0.169s-0.394-0.269-0.515-0.47c-0.121-0.2-0.181-0.428-0.181-0.682 0-0.251 0.060-0.478 0.179-0.679s0.283-0.359 0.491-0.472c0.208-0.113 0.443-0.169 0.704-0.169 0.245 0 0.467 0.052 0.668 0.155s0.36 0.253 0.479 0.448c0.119 0.195 0.179 0.427 0.179 0.694l-1.899 0.367c0.054 0.127 0.139 0.222 0.255 0.286s0.258 0.095 0.427 0.095zM7.786 13.786c-0.188 0-0.34 0.060-0.458 0.181s-0.18 0.288-0.186 0.501l1.25-0.243c-0.035-0.134-0.107-0.24-0.215-0.319s-0.238-0.119-0.391-0.119zM10.892 13.223c0.238 0 0.456 0.055 0.651 0.165s0.349 0.264 0.46 0.463c0.111 0.199 0.167 0.43 0.167 0.694s-0.056 0.495-0.167 0.694c-0.111 0.199-0.265 0.353-0.46 0.462s-0.413 0.165-0.651 0.165c-0.328 0-0.585-0.103-0.773-0.31v1.197h-0.744v-3.49h0.711v0.296c0.184-0.223 0.453-0.334 0.806-0.334zM10.764 15.254c0.191 0 0.347-0.064 0.47-0.193s0.184-0.301 0.184-0.517c0-0.216-0.061-0.389-0.184-0.517s-0.279-0.193-0.47-0.193-0.347 0.064-0.47 0.193c-0.122 0.129-0.184 0.301-0.184 0.517s0.061 0.389 0.184 0.517c0.122 0.129 0.279 0.193 0.47 0.193zM13.65 15.865c-0.27 0-0.513-0.056-0.728-0.169s-0.382-0.269-0.503-0.47-0.181-0.428-0.181-0.682c0-0.254 0.060-0.482 0.181-0.682s0.289-0.357 0.503-0.47c0.215-0.113 0.457-0.169 0.727-0.169s0.512 0.056 0.725 0.169c0.213 0.113 0.38 0.269 0.501 0.47s0.181 0.428 0.181 0.682c0 0.254-0.060 0.482-0.181 0.682s-0.288 0.357-0.501 0.47c-0.213 0.113-0.455 0.169-0.725 0.169zM13.65 15.254c0.191 0 0.347-0.064 0.47-0.193s0.184-0.301 0.184-0.517c0-0.216-0.061-0.389-0.184-0.517s-0.279-0.193-0.47-0.193-0.348 0.064-0.472 0.193c-0.124 0.129-0.186 0.301-0.186 0.517s0.062 0.389 0.186 0.517c0.124 0.129 0.281 0.193 0.472 0.193zM17.419 15.254v0.572h-2.29v-0.448l0.51-0.601h-0.348v-0.496h0.768l0.377-0.448h-1.274v-0.572h2.213v0.448l-0.487 0.577h0.363v0.496h-0.782l-0.401 0.472h1.35zM18.546 15.865c-0.213 0-0.421-0.026-0.625-0.079s-0.366-0.118-0.486-0.198l0.248-0.534c0.114 0.073 0.253 0.133 0.415 0.179s0.321 0.069 0.477 0.069c0.315 0 0.472-0.078 0.472-0.234 0-0.073-0.043-0.126-0.129-0.157s-0.218-0.059-0.396-0.081c-0.21-0.032-0.383-0.068-0.52-0.11s-0.255-0.114-0.355-0.219c-0.1-0.105-0.15-0.254-0.15-0.448 0-0.162 0.047-0.306 0.141-0.432s0.231-0.223 0.41-0.293c0.18-0.070 0.392-0.105 0.637-0.105 0.181 0 0.362 0.020 0.541 0.060s0.328 0.095 0.446 0.165l-0.248 0.529c-0.226-0.127-0.472-0.191-0.739-0.191-0.159 0-0.278 0.022-0.358 0.067s-0.119 0.102-0.119 0.172c0 0.079 0.043 0.135 0.129 0.167s0.223 0.062 0.41 0.091c0.21 0.035 0.382 0.072 0.515 0.112s0.25 0.112 0.348 0.217c0.099 0.105 0.148 0.251 0.148 0.439 0 0.159-0.048 0.3-0.143 0.424s-0.235 0.22-0.417 0.288c-0.183 0.068-0.4 0.102-0.651 0.102zM21.494 13.223c0.239 0 0.456 0.055 0.651 0.165s0.349 0.264 0.46 0.463c0.111 0.199 0.167 0.43 0.167 0.694s-0.056 0.495-0.167 0.694c-0.111 0.199-0.265 0.353-0.46 0.462s-0.413 0.165-0.651 0.165c-0.328 0-0.585-0.103-0.773-0.31v1.197h-0.744v-3.49h0.711v0.296c0.184-0.223 0.453-0.334 0.806-0.334zM21.366 15.254c0.191 0 0.348-0.064 0.47-0.193s0.184-0.301 0.184-0.517c0-0.216-0.061-0.389-0.184-0.517s-0.279-0.193-0.47-0.193-0.347 0.064-0.47 0.193c-0.122 0.129-0.184 0.301-0.184 0.517s0.061 0.389 0.184 0.517c0.122 0.129 0.279 0.193 0.47 0.193zM25.636 13.261v2.565h-0.711v-0.296c-0.184 0.223-0.452 0.334-0.801 0.334-0.242 0-0.46-0.054-0.656-0.162s-0.349-0.262-0.46-0.463c-0.111-0.2-0.167-0.432-0.167-0.696s0.056-0.496 0.167-0.696c0.111-0.2 0.265-0.354 0.46-0.462s0.414-0.162 0.656-0.162c0.328 0 0.584 0.103 0.768 0.31v-0.272h0.744zM24.252 15.254c0.188 0 0.343-0.064 0.467-0.193s0.186-0.301 0.186-0.517c0-0.216-0.062-0.389-0.186-0.517s-0.28-0.193-0.467-0.193c-0.191 0-0.348 0.064-0.472 0.193s-0.186 0.301-0.186 0.517c0 0.216 0.062 0.389 0.186 0.517s0.282 0.193 0.472 0.193z"></path>
<path fill="#693360" d="M3.985 12.054c-0.738 0.113-0.603 1.221 0.149 1.14 0.078-0.008 0.158-0.038 0.201-0.063 0.589-0.339 0.253-1.17-0.35-1.078z"></path>
<path fill="#ee4552" d="M5.331 15.122c-0.143 0.755-0.965 1.234-1.837 1.070s-1.464-0.91-1.321-1.665c0.143-0.755 0.965-1.234 1.837-1.070s1.464 0.91 1.321 1.665z"></path>
<path fill="#693360" d="M3.429 9.92c-0.219-0.667-0.416-0.994-0.403-1.979 0.033-2.347 1.416-3.198 1.693-0.582 0.1 0.94-0.048 1.372-0.307 2.315l0.335 0.071c0.289-0.729 0.83-1.517 1.313-1.824 0.397-0.252 1.692-0.505 2.299 0.040 0.386 0.346 0.129 0.698-0.291 0.81-1.068 0.283-0.976 0.402-1.726 1.047-0.328 0.282-0.54 0.322-0.866 0.548 0.055 0.3 0.375 0.781-0.030 1.435-0.619-0.445-1.128-0.779-2.040-0.713-0.151 0.011-0.225 0.038-0.35 0.050-0.666 0.067 0.105-1.048 0.371-1.218z"></path>
<path fill="#0074b3" d="M3.256 12.4c-0.051 0.268-0.309 0.444-0.577 0.393s-0.444-0.309-0.394-0.576c0.051-0.268 0.309-0.444 0.577-0.393s0.444 0.309 0.394 0.576z"></path>
<path fill="#fefefe" d="M8.478 12.871c-0.34 0-0.648-0.074-0.923-0.222s-0.491-0.353-0.649-0.615c-0.157-0.262-0.236-0.559-0.236-0.889s0.079-0.627 0.236-0.889c0.157-0.262 0.374-0.467 0.649-0.615s0.584-0.222 0.928-0.222c0.289 0 0.551 0.051 0.785 0.153s0.43 0.248 0.589 0.439l-0.496 0.458c-0.226-0.261-0.506-0.391-0.839-0.391-0.207 0-0.391 0.045-0.553 0.136s-0.289 0.217-0.379 0.379c-0.091 0.162-0.136 0.347-0.136 0.553s0.045 0.391 0.136 0.553c0.091 0.162 0.217 0.288 0.379 0.379s0.347 0.136 0.553 0.136c0.334 0 0.614-0.132 0.839-0.396l0.496 0.458c-0.159 0.194-0.356 0.342-0.591 0.443s-0.498 0.153-0.787 0.153zM10.139 9.476h1.517c0.363 0 0.683 0.069 0.961 0.207s0.494 0.333 0.649 0.584c0.154 0.251 0.231 0.544 0.231 0.877s-0.077 0.626-0.231 0.877c-0.154 0.251-0.37 0.446-0.649 0.584s-0.599 0.207-0.961 0.207h-1.517v-3.338zM11.618 12.18c0.334 0 0.6-0.093 0.799-0.279s0.298-0.438 0.298-0.756c0-0.318-0.099-0.57-0.298-0.756s-0.465-0.279-0.799-0.279h-0.706v2.069h0.706zM17.653 9.419c0.394 0 0.701 0.115 0.921 0.346s0.329 0.563 0.329 0.999v2.050h-0.773v-2.026c0-0.235-0.061-0.412-0.184-0.532s-0.284-0.179-0.484-0.179c-0.219 0-0.394 0.063-0.525 0.188s-0.196 0.315-0.196 0.57v1.979h-0.773v-2.026c0-0.235-0.057-0.412-0.172-0.532s-0.27-0.179-0.467-0.179c-0.216 0-0.39 0.063-0.52 0.188s-0.196 0.315-0.196 0.57v1.979h-0.773v-3.338h0.749v0.41c0.102-0.149 0.237-0.265 0.405-0.346s0.363-0.122 0.582-0.122c0.229 0 0.429 0.042 0.601 0.126s0.304 0.206 0.396 0.365c0.114-0.159 0.265-0.28 0.451-0.365s0.395-0.126 0.627-0.126zM21.531 12.814l-0.806-1.159-0.792 1.159h-0.887l1.235-1.697-1.173-1.64h0.878l0.768 1.082 0.754-1.082h0.835l-1.164 1.612 1.245 1.726h-0.892z"></path>
<path fill="#fefefe" d="M7.914 6.931l-0.652-0.911-0.674 0.911h-0.939l1.144-1.497-1.105-1.475h0.967l0.63 0.867 0.647-0.867h0.917l-1.105 1.453 1.15 1.519h-0.978zM9.036 3.959h0.862v2.972h-0.862v-2.972zM9.468 3.545c-0.158 0-0.287-0.046-0.387-0.138s-0.149-0.206-0.149-0.342 0.050-0.25 0.149-0.342c0.099-0.092 0.228-0.138 0.387-0.138s0.287 0.044 0.387 0.133c0.099 0.088 0.149 0.199 0.149 0.331 0 0.144-0.050 0.262-0.149 0.356s-0.228 0.141-0.387 0.141zM10.424 3.959h0.862v2.972h-0.862v-2.972zM10.855 3.545c-0.158 0-0.287-0.046-0.387-0.138s-0.149-0.206-0.149-0.342 0.050-0.25 0.149-0.342c0.099-0.092 0.229-0.138 0.387-0.138s0.287 0.044 0.387 0.133 0.149 0.199 0.149 0.331c0 0.144-0.050 0.262-0.149 0.356s-0.229 0.141-0.387 0.141zM13.57 3.915c0.276 0 0.528 0.064 0.754 0.191s0.404 0.306 0.533 0.536c0.129 0.23 0.193 0.498 0.193 0.804s-0.064 0.574-0.193 0.804c-0.129 0.23-0.307 0.409-0.533 0.536s-0.478 0.191-0.754 0.191c-0.409 0-0.72-0.129-0.934-0.387v0.342h-0.823v-4.099h0.862v1.442c0.217-0.239 0.516-0.359 0.895-0.359zM13.421 6.268c0.221 0 0.402-0.074 0.544-0.224s0.213-0.349 0.213-0.599-0.071-0.45-0.213-0.599c-0.142-0.149-0.323-0.224-0.544-0.224s-0.403 0.075-0.544 0.224c-0.142 0.149-0.213 0.349-0.213 0.599s0.071 0.45 0.213 0.599c0.142 0.149 0.323 0.224 0.544 0.224zM16.848 6.285c0.155 0 0.292-0.023 0.412-0.069s0.231-0.119 0.334-0.218l0.459 0.497c-0.28 0.32-0.689 0.481-1.227 0.481-0.335 0-0.632-0.065-0.89-0.196s-0.457-0.312-0.597-0.544c-0.14-0.232-0.21-0.495-0.21-0.79 0-0.291 0.069-0.553 0.207-0.787s0.328-0.416 0.569-0.547c0.241-0.131 0.513-0.196 0.815-0.196 0.284 0 0.542 0.060 0.774 0.18s0.417 0.293 0.555 0.519c0.138 0.227 0.207 0.494 0.207 0.804l-2.2 0.425c0.063 0.147 0.161 0.258 0.296 0.332s0.299 0.11 0.495 0.11zM16.721 4.567c-0.217 0-0.394 0.070-0.531 0.21s-0.208 0.333-0.216 0.58l1.448-0.282c-0.041-0.155-0.123-0.278-0.249-0.37s-0.276-0.138-0.453-0.138zM19.385 4.351c0.103-0.144 0.242-0.252 0.417-0.326s0.377-0.11 0.605-0.11v0.796c-0.096-0.007-0.16-0.011-0.193-0.011-0.247 0-0.44 0.069-0.58 0.207s-0.21 0.345-0.21 0.621v1.403h-0.862v-2.972h0.823v0.392z"></path>
<path fill="#fefefe" d="M6.684 15.91c-0.073 0.054-0.163 0.095-0.269 0.122s-0.217 0.041-0.332 0.041c-0.308 0-0.545-0.078-0.711-0.234s-0.248-0.385-0.248-0.687v-2.251h0.744v0.625h0.634v0.572h-0.634v1.044c0 0.108 0.027 0.191 0.081 0.25s0.132 0.088 0.234 0.088c0.114 0 0.216-0.032 0.305-0.095l0.196 0.524zM8.078 15.476c0.134 0 0.252-0.020 0.355-0.060s0.2-0.102 0.289-0.188l0.396 0.429c-0.242 0.277-0.595 0.415-1.059 0.415-0.289 0-0.545-0.056-0.768-0.169s-0.394-0.269-0.515-0.47c-0.121-0.2-0.181-0.427-0.181-0.682 0-0.251 0.060-0.478 0.179-0.679s0.283-0.359 0.491-0.472c0.208-0.113 0.443-0.169 0.704-0.169 0.245 0 0.467 0.052 0.668 0.155s0.36 0.253 0.479 0.448c0.119 0.195 0.179 0.427 0.179 0.694l-1.898 0.367c0.054 0.127 0.139 0.222 0.255 0.286s0.258 0.095 0.427 0.095zM7.968 13.993c-0.188 0-0.34 0.060-0.458 0.181s-0.18 0.288-0.186 0.501l1.25-0.243c-0.035-0.134-0.107-0.24-0.215-0.319s-0.238-0.119-0.391-0.119zM11.074 13.43c0.238 0 0.456 0.055 0.651 0.165s0.349 0.264 0.46 0.462c0.111 0.199 0.167 0.43 0.167 0.694s-0.056 0.495-0.167 0.694c-0.111 0.199-0.265 0.353-0.46 0.462s-0.413 0.165-0.651 0.165c-0.328 0-0.585-0.103-0.773-0.31v1.197h-0.744v-3.49h0.711v0.296c0.184-0.223 0.453-0.334 0.806-0.334zM10.945 15.462c0.191 0 0.347-0.064 0.47-0.193s0.184-0.301 0.184-0.517c0-0.216-0.061-0.389-0.184-0.517s-0.279-0.193-0.47-0.193-0.347 0.064-0.47 0.193c-0.122 0.129-0.184 0.301-0.184 0.517s0.061 0.389 0.184 0.517c0.122 0.129 0.279 0.193 0.47 0.193zM13.832 16.072c-0.27 0-0.513-0.056-0.727-0.169s-0.382-0.269-0.503-0.47c-0.121-0.2-0.181-0.427-0.181-0.682s0.060-0.482 0.181-0.682 0.289-0.357 0.503-0.47c0.215-0.113 0.457-0.169 0.727-0.169s0.512 0.056 0.725 0.169c0.213 0.113 0.38 0.269 0.501 0.47s0.181 0.427 0.181 0.682c0 0.254-0.060 0.482-0.181 0.682s-0.288 0.357-0.501 0.47c-0.213 0.113-0.455 0.169-0.725 0.169zM13.832 15.462c0.191 0 0.348-0.064 0.47-0.193s0.184-0.301 0.184-0.517c0-0.216-0.061-0.389-0.184-0.517s-0.279-0.193-0.47-0.193c-0.191 0-0.348 0.064-0.472 0.193s-0.186 0.301-0.186 0.517c0 0.216 0.062 0.389 0.186 0.517s0.281 0.193 0.472 0.193zM17.601 15.462v0.572h-2.29v-0.448l0.51-0.601h-0.348v-0.496h0.768l0.377-0.448h-1.274v-0.572h2.213v0.448l-0.487 0.577h0.363v0.496h-0.782l-0.401 0.472h1.35zM18.727 16.072c-0.213 0-0.421-0.026-0.625-0.079s-0.366-0.118-0.486-0.198l0.248-0.534c0.114 0.073 0.253 0.133 0.415 0.179s0.321 0.069 0.477 0.069c0.315 0 0.472-0.078 0.472-0.234 0-0.073-0.043-0.126-0.129-0.157s-0.218-0.059-0.396-0.081c-0.21-0.032-0.383-0.068-0.52-0.11s-0.255-0.114-0.355-0.219c-0.1-0.105-0.15-0.254-0.15-0.448 0-0.162 0.047-0.306 0.141-0.432s0.231-0.223 0.41-0.293c0.18-0.070 0.392-0.105 0.637-0.105 0.181 0 0.362 0.020 0.541 0.060s0.328 0.095 0.446 0.165l-0.248 0.529c-0.226-0.127-0.472-0.191-0.739-0.191-0.159 0-0.278 0.022-0.358 0.067s-0.119 0.102-0.119 0.172c0 0.079 0.043 0.135 0.129 0.167s0.223 0.062 0.41 0.091c0.21 0.035 0.382 0.072 0.515 0.112s0.25 0.112 0.348 0.217 0.148 0.251 0.148 0.439c0 0.159-0.048 0.3-0.143 0.424s-0.235 0.22-0.417 0.288c-0.183 0.068-0.4 0.103-0.651 0.103zM21.676 13.43c0.238 0 0.456 0.055 0.651 0.165s0.349 0.264 0.46 0.462c0.111 0.199 0.167 0.43 0.167 0.694s-0.056 0.495-0.167 0.694c-0.111 0.199-0.265 0.353-0.46 0.462s-0.413 0.165-0.651 0.165c-0.328 0-0.585-0.103-0.773-0.31v1.197h-0.744v-3.49h0.711v0.296c0.184-0.223 0.453-0.334 0.806-0.334zM21.547 15.462c0.191 0 0.347-0.064 0.47-0.193s0.184-0.301 0.184-0.517c0-0.216-0.061-0.389-0.184-0.517s-0.279-0.193-0.47-0.193-0.347 0.064-0.47 0.193c-0.122 0.129-0.184 0.301-0.184 0.517s0.061 0.389 0.184 0.517c0.122 0.129 0.279 0.193 0.47 0.193zM25.817 13.469v2.565h-0.711v-0.296c-0.184 0.223-0.452 0.334-0.801 0.334-0.242 0-0.46-0.054-0.656-0.162s-0.349-0.262-0.46-0.463c-0.111-0.2-0.167-0.432-0.167-0.696s0.056-0.496 0.167-0.696c0.111-0.2 0.265-0.354 0.46-0.463s0.414-0.162 0.656-0.162c0.328 0 0.584 0.103 0.768 0.31v-0.272h0.744zM24.434 15.462c0.188 0 0.343-0.064 0.467-0.193s0.186-0.301 0.186-0.517c0-0.216-0.062-0.389-0.186-0.517s-0.28-0.193-0.467-0.193c-0.191 0-0.348 0.064-0.472 0.193s-0.186 0.301-0.186 0.517c0 0.216 0.062 0.389 0.186 0.517s0.282 0.193 0.472 0.193z"></path>
<path fill="#ec268f" d="M12.259 0.911c0.161 0 0.291 0.13 0.291 0.291s-0.13 0.291-0.291 0.291c-0.161 0-0.291-0.13-0.291-0.291s0.13-0.291 0.291-0.291z"></path>
<path fill="#004dfd" d="M15.28 0.932c0.161 0 0.291 0.13 0.291 0.291s-0.13 0.291-0.291 0.291-0.291-0.13-0.291-0.291c0-0.161 0.13-0.291 0.291-0.291z"></path>
<path fill="#feed01" d="M13.806 0.911c0.161 0 0.291 0.13 0.291 0.291s-0.13 0.291-0.291 0.291-0.291-0.13-0.291-0.291c0-0.161 0.13-0.291 0.291-0.291z"></path>
<path fill="#ff8b00" d="M12.987 0.909c0.161 0 0.291 0.13 0.291 0.291s-0.13 0.291-0.291 0.291-0.291-0.13-0.291-0.291c0-0.161 0.13-0.291 0.291-0.291z"></path>
<path fill="#760789" d="M16.008 0.93c0.161 0 0.291 0.13 0.291 0.291s-0.13 0.291-0.291 0.291-0.291-0.13-0.291-0.291c0-0.161 0.13-0.291 0.291-0.291z"></path>
<path fill="#008125" d="M14.534 0.909c0.161 0 0.291 0.13 0.291 0.291s-0.13 0.291-0.291 0.291c-0.161 0-0.291-0.13-0.291-0.291s0.13-0.291 0.291-0.291z"></path>
<path fill="#fefefe" d="M16.712 7.811c0.124 0 0.236 0.028 0.336 0.084s0.179 0.135 0.236 0.237c0.057 0.102 0.085 0.218 0.085 0.349s-0.028 0.247-0.085 0.349c-0.057 0.102-0.136 0.181-0.236 0.238s-0.212 0.085-0.336 0.085c-0.11 0-0.21-0.023-0.297-0.070s-0.159-0.115-0.212-0.203v0.261h-0.171v-1.861h0.178v0.793c0.055-0.085 0.126-0.15 0.212-0.194s0.183-0.067 0.29-0.067zM16.699 8.996c0.092 0 0.176-0.021 0.251-0.064s0.134-0.103 0.177-0.182c0.043-0.079 0.064-0.168 0.064-0.268s-0.021-0.19-0.064-0.268c-0.043-0.079-0.102-0.139-0.177-0.182s-0.159-0.064-0.251-0.064c-0.094 0-0.178 0.021-0.252 0.064s-0.133 0.103-0.176 0.182c-0.043 0.079-0.064 0.168-0.064 0.268s0.021 0.19 0.064 0.268c0.043 0.079 0.101 0.139 0.176 0.182s0.159 0.064 0.252 0.064zM18.807 7.822v1.319h-0.171v-0.241c-0.047 0.080-0.111 0.143-0.193 0.187s-0.176 0.067-0.281 0.067c-0.172 0-0.308-0.048-0.408-0.144s-0.149-0.237-0.149-0.423v-0.765h0.178v0.748c0 0.139 0.034 0.244 0.103 0.316s0.166 0.108 0.294 0.108c0.139 0 0.248-0.042 0.329-0.127s0.12-0.202 0.12-0.352v-0.692h0.178zM19.544 9.154c-0.107 0-0.21-0.016-0.307-0.046s-0.174-0.070-0.23-0.117l0.080-0.14c0.055 0.044 0.125 0.079 0.208 0.107s0.171 0.041 0.261 0.041c0.12 0 0.21-0.019 0.267-0.056s0.087-0.091 0.087-0.159c0-0.048-0.016-0.086-0.048-0.114s-0.072-0.048-0.121-0.063c-0.048-0.014-0.113-0.028-0.193-0.041-0.107-0.020-0.193-0.041-0.259-0.061s-0.121-0.056-0.167-0.107c-0.046-0.050-0.069-0.12-0.069-0.208 0-0.11 0.046-0.201 0.138-0.271s0.22-0.105 0.384-0.105c0.085 0 0.171 0.011 0.256 0.034s0.156 0.052 0.211 0.089l-0.078 0.143c-0.109-0.075-0.238-0.113-0.389-0.113-0.114 0-0.2 0.020-0.257 0.060s-0.087 0.093-0.087 0.158c0 0.050 0.016 0.090 0.049 0.12s0.073 0.052 0.122 0.067c0.048 0.014 0.115 0.029 0.201 0.044 0.105 0.020 0.19 0.040 0.253 0.060s0.118 0.054 0.163 0.103c0.045 0.048 0.068 0.115 0.068 0.201 0 0.115-0.048 0.207-0.144 0.275s-0.23 0.102-0.4 0.102z"></path>
<path fill="#fefefe" d="M24.873 10.52v1.533h-0.198v-0.303c-0.062 0.103-0.144 0.182-0.246 0.236s-0.217 0.082-0.346 0.082c-0.144 0-0.274-0.033-0.391-0.099s-0.208-0.158-0.274-0.277c-0.066-0.119-0.099-0.253-0.099-0.405s0.033-0.287 0.099-0.405c0.066-0.119 0.157-0.21 0.274-0.275s0.247-0.098 0.391-0.098c0.124 0 0.237 0.026 0.337 0.077s0.182 0.127 0.246 0.226v-0.291h0.207zM24.1 11.884c0.107 0 0.204-0.025 0.29-0.074s0.154-0.12 0.204-0.211c0.050-0.091 0.074-0.195 0.074-0.312s-0.025-0.221-0.074-0.312c-0.049-0.091-0.118-0.162-0.204-0.211s-0.183-0.074-0.29-0.074c-0.109 0-0.206 0.025-0.293 0.074s-0.154 0.12-0.204 0.211c-0.049 0.091-0.074 0.195-0.074 0.312s0.025 0.22 0.074 0.312c0.050 0.091 0.118 0.162 0.204 0.211s0.184 0.074 0.293 0.074z"></path>
</svg>
