<!-- Generated by IcoMoon.io -->
<svg version="1.1" xmlns="http://www.w3.org/2000/svg" width="32" height="32" viewBox="0 0 32 32">
<title>tv</title>
<path d="M28.433 17.302c-0.143-0.281-0.052-1.106-0.052-1.477 0.052-0.204-0.058-0.128 0.13-0.126-0.13-0.178 0.069-0.081-0.208-0.114l0.002 1.79 0.127-0.073z"></path>
<path d="M3.563 17.302l0.081 0.089 0.056-1.806c-0.281 0.033-0.077-0.042-0.217 0.112 0.182 0.027 0.074-0.093 0.131 0.128 0 0.373 0.092 1.193-0.051 1.477z"></path>
<path d="M28.522 12.441c-0.196-0.157-0.046 0.071-0.131-0.169-0.002-0.005-0.019-0.206-0.019-0.221-0.002-0.107 0.014-0.271 0.020-0.383-0.086 0.094-0.078-0.118-0.095 0.228l0.007 0.602c0.432 0.093 0.053 0.025 0.218-0.056z"></path>
<path d="M3.473 12.441c0.128 0.095-0.188 0.142 0.207 0.057l0.021-0.606c-0.054-0.303-0.013-0.115-0.098-0.224 0.005 0.098 0.030 0.379 0.023 0.459-0.045 0.495 0.044 0.207-0.153 0.314z"></path>
<path d="M17.865 26.131c-0.918 0.258-3.906 0.388-3.661-0.653 0.432-1.836 1.030-1.645 3.238-1.396l0.423 2.050zM6.302 11.669l19.397 0.001v11.55l0.417 0.002-19.821-0.002 0.006-11.551zM5.587 23.899l8.061 0.18-0.438 2.044-2.874 0.207 0.029 0.671 11.269-0.013 0.022-0.68-2.807-0.206-0.53-2.022 8.13-0.148c0.27-0.505 0.088-10.285 0.112-11.744 0.035-2.161-2.582-1.368-4.598-1.368h-11.856c-1.886 0-4.762-0.757-4.68 1.282 0.064 1.599-0.259 11.175 0.16 11.797z"></path>
<path d="M28.347 20.49l1.905 0.131 0.001-0.124-0.001 5.651-1.899 0.022-0.006-5.679zM28.915 18.070c1.2-0.556 1.837 1.218 0.838 1.691-1.179 0.559-2.022-1.142-0.838-1.691zM28.433 17.302l-0.127 0.073-0.002-1.79c0.277 0.033 0.078-0.064 0.208 0.114 1.017 0.214 0.787 0.179 1.74-0.084l-0.001 1.726c-1.030-0.257-0.734-0.301-1.818-0.038zM29.033 13.139c1.208-0.361 1.689 1.444 0.584 1.807-1.218 0.399-1.808-1.441-0.584-1.807zM28.522 12.441c-0.166 0.081 0.214 0.149-0.218 0.056l-0.007-0.602c0.017-0.346 0.009-0.134 0.095-0.228l1.86 0.022-0.004 0.791c-0.608-0.197-1.095-0.405-1.725-0.040zM27.608 26.865l3.375 0.016c0.255-0.942 0.117-11.003 0.118-13.324 0.001-2.538 0.647-2.737-1.813-2.739-2.41-0.002-1.795 0.203-1.795 2.664 0.001 2.005-0.119 12.944 0.114 13.384z"></path>
<path d="M1.744 20.497l1.899 0.134 0.005-0.141v5.676c-2.333 0.017-1.911 0.42-1.905-1.886 0.003-1.26-0.006-2.523 0.001-3.783zM2.318 18.062c1.247-0.534 1.851 1.338 0.733 1.738-1.21 0.433-1.844-1.263-0.733-1.738zM3.484 15.696c0.14-0.153-0.064-0.079 0.217-0.112l-0.056 1.806-0.081-0.089c-1.196-0.269-0.728-0.179-1.82 0.039l0.004-1.727c0.973 0.271 0.707 0.29 1.736 0.082zM2.443 13.134c1.268-0.341 1.68 1.586 0.466 1.836-1.232 0.254-1.614-1.527-0.466-1.836zM3.603 11.668c0.085 0.109 0.044-0.079 0.098 0.224l-0.021 0.606c-0.395 0.085-0.079 0.038-0.207-0.057-0.611-0.353-1.125-0.168-1.728 0.040l0.001-0.807 1.857-0.005zM1.012 26.881l3.375-0.016c0.237-0.959 0.114-10.983 0.114-13.308 0-2.497 0.639-2.741-1.795-2.739-2.436 0.002-1.813 0.159-1.813 2.664 0 2.005-0.133 12.969 0.118 13.399z"></path>
</svg>
