<!-- Generated by IcoMoon.io -->
<svg version="1.1" xmlns="http://www.w3.org/2000/svg" width="32" height="32" viewBox="0 0 32 32">
<title>twister-xiiber-juego-gay</title>
<path fill="#ed3237" d="M7.289 21.385c0.057-0.104 0.259-0.301 0.384-0.356 0.050-0.018 0.17-0.115 0.443-0.225 0.85-0.343 1.44-0.081 1.755-0.081 0-0.484 0.031-0.345-0.134-0.559-0.29-0.374-0.318-0.95-0.318-1.459 0-0.192 0.007-0.671 0.060-0.783 0.084 0.061 0.101 0.139 0.157 0.234 0.239 0.405 0.555 1.081 0.537 1.571-0.012 0.332-0.112 0.408-0.242 0.603 0.061 0.116 0.121 0.22 0.18 0.331 0.183-0.042 0.341-0.223 0.652-0.372l0.364-0.148c0.149-0.050 0.243-0.076 0.4-0.113 0.331-0.16 0.964-0.044 1.337-0.017l0.053-0.345c-0.039-0.050-0.029-0.037-0.076-0.080l-0.033-0.027c-0.005-0.004-0.012-0.009-0.017-0.013s-0.011-0.009-0.017-0.013l-0.121-0.12c-0.505-0.613-0.376-1.405-0.344-2.065 0.006-0.126-0.004-0.192 0.017-0.315 0.072-0.431 0.194-1.311 0.646-1.432-0.027-0.12-0.088-0.224-0.12-0.361-0.153 0-0.096 0.003-0.204 0.037l-0.582 0.14c-0.312 0.035-0.722-0.027-0.93-0.027 0.013 0.159 0.077 0.322 0.090 0.482 0.293 0 0.405-0.041 0.62 0.283 0.3 0.452 0.029 1.989-0.139 2.306-0.043-0.032-0.026-0.017-0.063-0.057l-0.054-0.066c-0.324-0.475-0.837-1.511-0.691-2.099 0.077-0.309 0.132-0.252 0.162-0.353s-0.095-0.296-0.137-0.375c-0.419 0.222-0.459 0.262-0.955 0.401-0.582 0.163-0.84 0.103-1.458 0.108-0.131 0.001-0.207-0.090-0.207 0.515 0.314 0.073 0.529 0.328 0.614 0.621 0.252 0.87-0.144 1.575-0.162 1.788h-0.060c-0.023-0.086-0.023-0.058-0.064-0.147l-0.492-1.194c-0.105-0.265-0.211-0.691-0.023-0.956 0.139-0.196-0.017-0.215-0.084-0.503-0.131 0.011-0.524 0.361-1.188 0.53-0.16 0.041-0.254 0.005-0.483 0.018-0.261 0.015-0.026-0.012-0.192 0.056-0.133 0.054-0.229 0.008-0.383 0.041-0.145 0.031-0.191 0.078-0.373 0.078v0.422c0.354 0.007 0.708 0.348 0.908 0.597 0.106 0.132 0.199 0.312 0.29 0.462 0.088 0.143 0.186 0.337 0.255 0.498l0.316 0.799c0.035 0.113 0.053 0.188 0.087 0.304 0.231 0.796-0.081 0.805-0.261 1.074l0.212 0.421 0.066-0.060z"></path>
<path fill="#ed3237" d="M19.116 14.79c0.196 0.046 0.193 0.002 0.331-0.090-0.062-0.265-0.169-0.408-0.279-0.956-0.076-0.383-0.113-0.668-0.113-1.152-0.092 0.002-0.299 0.061-0.361 0.090 0 1.209-0.086 0.752-1.071 0.916-1.139 0.19-2.646 1.299-1.956 2.682 0.733 1.47 2.668 0.484 3.208 1.159 0.029 0.035 0.042 0.054 0.053 0.099 0.017 0.067 0.011 0.158-0.008 0.218l-0.105 0.167c-0.091 0.1-0.16 0.139-0.281 0.2-0.459 0.23-1.187 0.213-1.6-0.068-0.305-0.207-0.449-0.663-0.529-1.007-0.143 0.012-0.227 0.060-0.391 0.060 0.005 0.227 0.275 0.516 0.271 1.084-0.005 0.9 0.008 0.523-0.151 1.205 0.14 0.011 0.048 0.017 0.165 0.046 0.082 0.021 0.137 0.014 0.227 0.014 0-0.393 0.25-0.809 0.554-0.891 0.407-0.11 0.726 0.392 2.080-0.057 0.246-0.082 0.418-0.179 0.622-0.341 0.141-0.112 0.286-0.298 0.386-0.457 0.003-0.006 0.009-0.013 0.012-0.018 0.38-0.653 0.338-2.459-1.125-2.451-0.735 0.004-1.208 0.013-1.645-0.312-0.503-0.375-0.034-1.253 0.902-0.812 0.245 0.115 0.736 0.424 0.803 0.673z"></path>
<path fill="#ed3237" d="M30.678 10.998l-0.095-0.121-0.104-0.102c-0.141-0.125-0.238-0.179-0.435-0.228-0.267-0.066-0.536-0.002-0.732 0.108-0.34 0.19-0.53 0.552-0.716 0.849-0.061 0.098-0.052 0.102-0.116 0.125-0.061-0.126 0.030-0.224 0.030-0.542-0.117 0.010-0.137 0.056-0.223 0.109-0.050 0.030-0.064 0.035-0.123 0.058l-0.398 0.174c-0.36 0.152-1.045 0.263-1.454 0.262-0.635-0.002-0.726-0.178-0.615 0.192 0.131 0.435 0.255 0.101 0.592 0.282 0.074 0.040 0.049 0.027 0.11 0.071 0.216 0.156 0.331 0.37 0.455 0.598 0.542 0.999 0.813 1.894 0.814 3.043 0 0.253-0.107 0.632-0.236 0.818-0.068 0.097-0.093 0.113-0.186 0.175 0.003 0.134 0.042 0.311 0.058 0.457 0.023 0.214-0.082 0.205 0.544-0.216 0.054-0.036 0.098-0.069 0.165-0.106 0.074-0.040 0.106-0.053 0.181-0.090l0.571-0.212c0.104-0.026 0.16-0.004 0.259-0.012 0.237-0.019 0.025-0.004 0.169-0.072 0.2-0.095 0.602-0.020 0.733-0.020 0.042-0.088 0.148-0.42 0.151-0.542-0.492 0-0.655-0.136-0.951-0.585-0.196-0.299-0.326-0.821-0.397-1.169-0.077-0.383-0.132-0.962-0.096-1.436 0.007-0.088 0.036-0.255 0.058-0.333 0.020-0.073 0.021-0.062 0.046-0.135l0.186-0.416c0.046-0.082 0.097-0.176 0.191-0.201 0.046 0.096 0.071 0.253 0.12 0.362 0.082 0.183 0.121 0.12 0.121 0.391 0.003 0.001 0.010-0.007 0.011-0.003 0.026 0.090-0.023-0.028 0.074-0.012 0.061 0.010 0.17 0.123 0.366 0.226-0.035 0.087 0.002 0.013-0.12 0.090 0.459 0 0.912 0.019 1.137-0.519 0.202-0.484 0.102-0.861-0.143-1.317z"></path>
<path fill="#ed3237" d="M24.325 13.406c0-0.851 0.468-0.92 0.58-0.369 0.058 0.289 0.293 1.153 0.293 1.333 0 0.102-0.111 0.105-0.28 0.172-0.414 0.163-0.4 0.296-0.525-0.421-0.041-0.232-0.068-0.454-0.068-0.714zM22.97 14.61c0 0.458 0.078 0.862 0.195 1.22 0.088 0.268 0.29 0.731 0.458 0.957 0.22 0.295 0.319 0.421 0.538 0.606 0.025 0.021 0.030 0.026 0.049 0.042 0.505 0.438 1.259 0.616 1.908 0.291 0.356-0.178 0.663-0.519 0.838-0.878 0.128-0.264 0.257-0.503 0.136-0.699-0.066-0.105-0.115-0.239-0.207-0.306-0.085 0.178-0.137 0.558-0.339 0.835-0.113 0.155-0.268 0.372-0.438 0.465-0.255 0.139-0.456 0.074-0.653-0.141l-0.22-0.291c-0.168-0.287-0.518-1.123-0.518-1.47l0.335-0.177c0.488-0.25 1.376-0.395 1.893-0.395 0-0.85-0.675-2.074-1.457-2.427-0.532-0.239-1.089-0.174-1.567 0.156-0.113 0.078-0.172 0.153-0.266 0.246-0.425 0.419-0.685 1.256-0.685 1.965z"></path>
<path fill="#ed3237" d="M4.781 17.651l0.092-0.242c0.004-0.006 0.008-0.025 0.010-0.020l0.141-0.912 0.090-0.060c-0.006-0.001-0.148 0.082-0.144-0.299 0.004-0.33-0.072-0.149-0.162-0.69-0.016-0.098-0.053-0.287-0.056-0.396 0.306-0.147 0.531-0.101 0.684 0.159 0.132 0.226 0.195 0.498 0.249 0.79l0.036 0.234 0.175-0.015c0.227 0.021 0.237-0.023 0.347-0.188 0.081-0.121 0.186-0.214 0.255-0.317-0.021-0.091-0.062-0.167-0.079-0.255-0.015-0.080-0.005-0.057-0.005-0.127 0-0.108 0.020-0.010-0.021-0.116-0.179-0.467-0.167-1.356-0.167-1.881h-0.361c-0.010 0.118 0.057 0.048-0.186 0.205-0.32 0.207-0.421 0.269-0.793 0.442-0.708 0.33-1.853 0.592-2.664 0.588-0.27-0.001-0.568 0.007-0.791-0.022-0.068-0.009-0.369-0.029-0.389-0.029-0.113 0-0.182 0.092-0.235 0.171l0.602 2.379c0.139 0 0.573-0.067 0.688-0.155 0.051-0.039 0.076-0.069 0.075-0.159-0.004-0.401-0.097-0.231 0.011-0.808 0.056-0.3 0.206-0.503 0.55-0.503 0 0.492 0.273 1.389 0.684 1.784 0.205 0.197 0.501 0.357 0.743 0.491 0.144 0.080 0.251 0.129 0.395 0.211 0.173 0.099 0.123 0.104 0.184-0.119 0.034-0.125 0.030 0.035 0.040-0.14z"></path>
<path fill="#ed3237" d="M19.838 12.291c0.060 0.254 0.191 0.668 0.211 0.904-0.11 0.053-0.179 0.046-0.327 0.065-0.142 0.018-0.179 0.056-0.366 0.056 0.013 0.157 0.086 0.24 0.090 0.421 0.267 0 0.367-0.060 0.723-0.060 0 0.192 0.36 2.261 0.4 2.491 0.081 0.47 0.227 1.255 0.57 1.597 0.245 0.245 0.495 0.247 0.806 0.247 0.333 0 0.618-0.317 0.79-0.505l0.595-0.73-0.241-0.332c-0.062 0.022-0.381 0.367-0.66-0.032-0.021-0.030-0.034-0.057-0.051-0.1-0.183-0.455-0.345-1.762-0.456-2.253l-0.127-0.806c0.224-0.005 0.964-0.337 1.054-0.361-0.002-0.117-0.107-0.361-0.15-0.452-0.183 0.043-0.304 0.122-0.473 0.19-0.093 0.038-0.141 0.058-0.236 0.095-0.108 0.043-0.175 0.051-0.285 0.077l-0.241-2.078c-0.389 0-0.216-0.057-0.482 0.452-0.255 0.49-0.352 0.549-0.683 0.822-0.156 0.128-0.283 0.198-0.462 0.291z"></path>
<path fill="#ed3237" d="M13.365 14.279h-0.452c-0.275 0-0.376-0.090-0.663-0.090-0.050 0.217-0.030 0.253-0.030 0.512 0.329 0 0.544 0.041 0.791 0.323 0.283 0.324 0.534 1.883 0.534 2.357 0 0.395 0.001 0.728-0.155 1.079-0.101 0.227-0.276 0.352-0.477 0.486 0.074 0.141 0.149 0.332 0.271 0.422l0.384-0.338c0.577-0.476 1.439-0.705 2.197-0.526 0.070 0.017 0.076 0.032 0.159 0.052 0.079-0.118 0.12-0.223 0.12-0.421-0.1-0.027-0.114-0.056-0.2-0.131-0.229-0.201-0.327-0.352-0.472-0.612-0.224-0.4-0.448-1.166-0.472-1.665-0.021-0.409 0.026-1.522 0.001-1.808-0.018-0.211-0.061-0.053-0.061-0.3-0.216 0.050-0.081 0.17-0.616 0.438-0.194 0.097-0.632 0.225-0.859 0.225z"></path>
<path fill="#ed3237" d="M3.97 18.133c-0.325 0.485-0.193 1.515-0.267 2.172-0.017 0.153 0.015 0.318-0.016 0.466-0.052 0.243-0.187 0.495-0.44 0.554 0.011 0.133 0.322 0.843 0.452 0.843 0.354 0 0.361-0.118 0.668-0.325 0.193-0.131 0.323-0.23 0.565-0.308 0.289-0.092 0.801-0.050 1.137 0.040 0.101 0.027 0.495 0.268 0.585-0.124 0.060-0.258 0.056-0.405 0.056-0.667-0.133-0.003-0.183-0.039-0.266-0.095-0.322-0.216-0.504-0.552-0.61-0.925-0.128-0.448-0.324-0.95-0.651-1.276-0.293-0.293-0.917-0.405-1.296-0.631l-0.247-0.144c0.037 0.158 0.213 0.342 0.331 0.422z"></path>
<path fill="#f5ed24" d="M16.556 11.508c0 0.221 0.147 0.55 0.314 0.68l0.283 0.172c0.135 0.084 0.045 0.062 0.135 0.053l0.139-0.002c0.148 0.005 0.29-0.010 0.396-0.057l0.201-0.13c0.070-0.046 0.029-0.002 0.086-0.064l0.173-0.249c0.003-0.006 0.007-0.014 0.010-0.020l0.071-0.17c0.009-0.023 0.007 0.010 0.022-0.068 0.007-0.034 0.010-0.139 0.009-0.176-0.006-0.163-0.136-0.489-0.205-0.581-0.033-0.043-0.013-0.018-0.045-0.046l-0.141-0.1c-0.085-0.078-0.047 0.033-0.064-0.117-0.217 0-0.453-0.107-0.7-0.038-0.061 0.017-0.065 0.024-0.088 0.033l-0.156 0.054c-0.009 0.003-0.034 0.014-0.042 0.018-0.192 0.102-0.399 0.418-0.399 0.806z"></path>
<path fill="#00a859" d="M19.899 11.779c0.017-0.152-0.040-0.037 0.082-0.128 0.062-0.047 0.072-0.045 0.139-0.102 0.193-0.168 0.253-0.298 0.301-0.635 0.014-0.101-0.036-0.265-0.075-0.364-0.018-0.048-0.034-0.102-0.057-0.155-0.072-0.163-0.442-0.371-0.62-0.434-0.061-0.021-0.022-0.014-0.101-0.021-0.077-0.007-0.162 0.002-0.222 0.022l-0.175 0.066c-0.149 0.060-0.332 0.194-0.422 0.33-0.004 0.006-0.009 0.013-0.012 0.018-0.091 0.14-0.126 0.251-0.153 0.451-0.016 0.116 0.030 0.294 0.070 0.388 0.096 0.225 0.225 0.384 0.445 0.489 0.31 0.149 0.43 0.073 0.799 0.073z"></path>
<path fill="#00afef" d="M14.539 12.081c0 0.938 1.153 1.232 1.631 0.577 0.032-0.043 0.035-0.066 0.070-0.112 0.025-0.033 0.078-0.086 0.083-0.094 0.035-0.064 0.073-0.504-0.081-0.81-0.206-0.407-0.758-0.551-1.172-0.385-0.009 0.003-0.098 0.046-0.102 0.048-0.206 0.131-0.429 0.464-0.429 0.775z"></path>
<path fill="#ed3237" d="M12.942 11.9c-0.211 0.196-0.275 0.182-0.408 0.482-0.172 0.238-0.053 0.635 0.137 0.904 0.166 0.235 0.533 0.379 0.867 0.324 0.983-0.162 1.077-1.838-0.266-1.802-0.144 0.004-0.23 0.044-0.33 0.092z"></path>
<path fill="#ed3237" d="M12.918 19.669l-0.053 0.345c-0.373-0.027-1.006-0.144-1.337 0.017 0.113 0.054 0.235 0.031 0.375 0.013 0.132-0.017 0.132 0.033 0.314 0.014 0.121-0.012 0.022-0.024 0.167-0.009l0.589 0.013-0.055-0.392z"></path>
<path fill="#ed3237" d="M5.897 16.199l-0.175 0.015-0.036-0.234c0 0.206-0.087 0.329 0.12 0.346 0.021-0.057 0.010-0.026 0.033-0.057 0.019-0.025 0.023-0.015 0.058-0.070z"></path>
<path fill="#ed3237" d="M30.678 10.998l0.034-0.12-0.128-0.001z"></path>
<path fill="#ed3237" d="M17.76 12.502h0.030v-0.090h-0.030z"></path>
<path fill="#ed3237" d="M5.174 17.651c0.031 0.032 0.109-0.043 0.035-0.016-0.001 0.001-0.085-0.034-0.035 0.016z"></path>
<path fill="#ed3237" d="M29.504 12.834c0.031 0.031 0.109-0.044 0.035-0.017-0.001 0.001-0.086-0.034-0.035 0.017z"></path>
<path fill="#ed3237" d="M28.149 10.936c0.031 0.031 0.109-0.043 0.035-0.016-0.001 0-0.085-0.034-0.035 0.016z"></path>
<path fill="#ed3237" d="M3.367 18.374c0 0.035 0.065 0.068 0.047 0s0.076-0.001-0.014-0.009c-0.038-0.003-0.033-0.052-0.033 0.009z"></path>
<path fill="#ed3237" d="M23.602 11.93c0 0.036 0.065 0.068 0.046 0s0.077-0.001-0.014-0.009c-0.038-0.003-0.033-0.053-0.033 0.009z"></path>
<path fill="#ed3237" d="M6.168 19.127c0 0.035 0.065 0.068 0.047 0s0.076-0.001-0.014-0.009c-0.038-0.003-0.033-0.052-0.033 0.009z"></path>
<path fill="#ed3237" d="M6.529 15.062c0 0.074 0.048 0.007 0.019 0-0.001-0.001-0.019-0.086-0.019 0z"></path>
<path fill="#ed3237" d="M7.644 21.234v0.030l0.035-0.025z"></path>
<path fill="#ed3237" d="M19.116 14.79h-0.030l0.025 0.036z"></path>
<path fill="#ed3237" d="M27.908 10.936c0.003 0.003 0.009-0.013 0.009-0.009v0c-0.001 0.001-0.012 0.006-0.009 0.009z"></path>
<path fill="#ed3237" d="M10.323 15.604l0.009-0.009c-0.001 0.001-0.012 0.006-0.009 0.009z"></path>
<path fill="#ed3237" d="M6.168 16.688l0.009-0.009c-0.001 0.001-0.012 0.006-0.009 0.009z"></path>
<path fill="#ed3237" d="M10.323 15.513l0.009-0.009c-0.001 0.001-0.012 0.006-0.009 0.009z"></path>
</svg>
