<!-- Generated by IcoMoon.io -->
<svg version="1.1" xmlns="http://www.w3.org/2000/svg" width="32" height="32" viewBox="0 0 32 32">
<title>twitter-bird</title>
<path fill="#00afef" d="M15.919 7.648c-0.013 0.386-0.37 0.832-0.283 2.657 0.010 0.216 0.165 0.627 0.078 0.854-0.162 0.028-1.675-0.127-1.819-0.172-0.11-0.034-0.163-0.030-0.292-0.044-0.136-0.014-0.202-0.023-0.288-0.111-0.352 0.065-1.939-0.43-2.465-0.612l-0.566-0.186c-0.097-0.047-0.156-0.081-0.251-0.118-0.104-0.041-0.207-0.067-0.302-0.113l-0.533-0.243c-0.653-0.286-0.515-0.218-1.057-0.54-0.006-0.003-0.015-0.009-0.021-0.012l-0.688-0.369c-0.099-0.057-0.163-0.126-0.236-0.167l-0.253-0.129c-0.352-0.198-1.28-0.864-1.607-1.148-0.081-0.070-0.12-0.101-0.215-0.164-0.099-0.067-0.135-0.12-0.199-0.174-0.191-0.086-0.645-0.537-0.821-0.71-0.075-0.074-0.057-0.061-0.096-0.132l-0.935-0.982c-0.062-0.073-0.103-0.106-0.162-0.181-0.029-0.037-0.123-0.143-0.139-0.17-0.088-0.045-0.049-0.027-0.121-0.084-0.064-0.050-0.027-0.040-0.117-0.055-0.093 0.074-0.188 0.304-0.238 0.413-0.145 0.32-0.093 0.386-0.232 0.423 0.005 0.049-0.176 0.624-0.211 0.766-0.066 0.262-0.15 0.568-0.16 0.855-0.010 0.306-0.037 1.207 0.025 1.495 0.191 0.902 0.030 0.534 0.431 1.649 0.133 0.372 0.166 0.405 0.357 0.735 0.115 0.198 0.587 0.791 0.594 0.915 0.119 0.060 0.14 0.121 0.231 0.231 0.251 0.3 0.685 0.633 0.724 0.678 0.143 0.062 0.323 0.168 0.369 0.332-0.359 0.029-1.039-0.129-1.392-0.207l-0.051-0.078c-0.373 0.026-1.094-0.484-1.36-0.472-0.023 0.385 0.052 0.657 0.066 1.019 0.012 0.155 0.068 0.377 0.107 0.537 0.027 0.112 0.055 0.128 0.081 0.25 0.091 0.435 0.493 1.284 0.734 1.654l0.421 0.605c0.199 0.265 0.371 0.395 0.459 0.526 0.159 0.053 0.282 0.215 0.416 0.334l0.142 0.164 0.23 0.175c0.006 0.004 0.015 0.009 0.021 0.013l0.343 0.211c0.31 0.17 0.88 0.538 1.299 0.629 0.13 0.006 0.098 0.005 0.209 0.041 0.117 0.038 0.44 0.098 0.487 0.205-0.161 0.090-1.046 0.178-1.273 0.191-0.511 0.029-0.941-0.066-1.442-0.069 0.018 0.23 0.137 0.34 0.159 0.546 0.055 0.387 1.194 1.978 1.486 2.126 0.104 0.037 0.359 0.247 0.436 0.345l0.053 0.081c0.002 0.003 0.283 0.192 0.305 0.207l0.327 0.216c0.114 0.072 0.227 0.134 0.358 0.192 0.086 0.038 0.35 0.129 0.367 0.179 0.212 0.037 0.377 0.123 0.553 0.185 0.202 0.071 0.375 0.090 0.576 0.152 0.223 0.069 0.388 0.059 0.602 0.112 0.234 0.057 0.44 0.027 0.643 0.071-0.031 0.174-0.269 0.266-0.402 0.38-0.101 0.086-0.345 0.27-0.508 0.301-0.282 0.179-0.491 0.318-0.786 0.475l-1.814 0.832c-0.159 0.048-0.103 0.057-0.213 0.088l-1.896 0.469c-0.411 0.074-0.763 0.084-1.18 0.144-0.509 0.075-1.347 0.058-1.918 0.045-0.239-0.005-0.399-0.077-0.622-0.060 0.093 0.215 1.501 0.895 1.811 1.041 0.107 0.050 0.15 0.106 0.247 0.152 0.493 0.234 1.047 0.447 1.58 0.636l1.377 0.432c0.208 0.061 0.453 0.096 0.649 0.163 0.214 0.074 1.113 0.223 1.372 0.26 1.436 0.204 1.698 0.174 3.122 0.172 0.262-0.001 0.523-0.002 0.784-0.005 0.271-0.003 0.48-0.063 0.747-0.073l1.122-0.115c0.155-0.016 0.185-0.065 0.313-0.082 0.121-0.017 0.232-0.005 0.359-0.031l0.664-0.154c0.154-0.028 0.225-0.004 0.356-0.057l1.246-0.384c0.107-0.038 0.211-0.045 0.306-0.079l0.47-0.203c0.006-0.003 0.014-0.009 0.020-0.013l0.361-0.14c0.208-0.066 0.434-0.147 0.599-0.231l1.604-0.848c0.086-0.050 0.182-0.089 0.255-0.153l0.728-0.455c0.119-0.196 0.072-0.088 0.31-0.271l0.976-0.727c0.205-0.096 1.787-1.655 2.022-1.961l0.337-0.413c0.060-0.080 0.109-0.124 0.173-0.204l0.473-0.615c0.046-0.063 0.103-0.167 0.148-0.228 0.11-0.148 0.21-0.288 0.311-0.438l0.576-0.923c0.259-0.411 0.545-0.995 0.765-1.446 0.128-0.265 0.683-1.571 0.743-1.824 0.023-0.097 0.006-0.049 0.039-0.123 0.294-0.651 0.324-1.142 0.469-1.582 0.046-0.139 0.047-0.115 0.081-0.294 0.069-0.376 0.244-0.82 0.275-1.2 0.025-0.297 0.070-0.14 0.096-0.615 0.034-0.606 0.168-1.268 0.168-2.075 0-0.238 0.001-0.477 0-0.715-0.001-0.371-0.065-0.391 0.197-0.567 0.083-0.056 0.141-0.102 0.222-0.159l0.586-0.5c0.093-0.203 0.348-0.363 0.619-0.64 0.033-0.033 0.066-0.071 0.101-0.103l0.131-0.097c0.062-0.108 0.22-0.172 0.25-0.279 0.047-0.115 0.275-0.365 0.339-0.438 0.195-0.222 0.199-0.329 0.365-0.416 0.041-0.081 0.018-0.006 0.073-0.103 0.051-0.163 0.12-0.202 0.178-0.354-0.166 0.012-1.645 0.661-2.090 0.658-0.235-0.010-0.696 0.205-1.236 0.184 0.050-0.12 0.592-0.436 0.979-0.883 0.279-0.321 0.381-0.314 0.707-0.826l0.078-0.128c0.004-0.006 0.009-0.014 0.013-0.021 0.191-0.295 0.328-0.482 0.481-0.819 0.018-0.154 0.049-0.21 0.111-0.35 0.074-0.172 0.085-0.098 0.091-0.329-0.207 0.039-0.297 0.183-0.497 0.218-0.105 0.006-0.429 0.21-0.544 0.273-0.009 0.005-0.035 0.019-0.045 0.023l-1.038 0.428c-0.182 0.086-0.642 0.172-0.825 0.217-0.128 0.032-0.853 0.341-1.068 0.215-0.066-0.039-0.253-0.244-0.355-0.329-0.477-0.398-1.176-0.912-1.791-1.116-0.089-0.029-0.048-0.010-0.116-0.045l-0.755-0.264c-1.223-0.261-2.523-0.278-3.654 0.119l-1.177 0.522c-0.344 0.187-0.895 0.568-1.182 0.862-0.084 0.086-0.14 0.103-0.191 0.152-0.016 0.015-0.102 0.145-0.147 0.193-0.069 0.074-0.090 0.084-0.165 0.176-0.205 0.253-0.554 0.723-0.703 0.999-0.047 0.086-0.060 0.152-0.109 0.235-0.080 0.139-0.174 0.29-0.234 0.436l-0.176 0.471z"></path>
</svg>
