<!-- Generated by IcoMoon.io -->
<svg version="1.1" xmlns="http://www.w3.org/2000/svg" width="32" height="32" viewBox="0 0 32 32">
<title>verga-one</title>
<path d="M10.875 27.084c1.389 1.929 7.33 1.523 9.891 0.951 2.602-0.581 1.306-1.912 0.924-3.67-0.71-3.272-1.179-12.526-0.378-15.235 0.415-1.404 1.089-3.268-0.003-4.765-0.998-1.366-1.872-0.58-2.074-0.53-0.625 0.156 0.306 0.157-0.303-0.005-0.641-0.17 0.651-0.227-0.692-0.338-1.156 0.52-2.251 1.392-2.489 2.999-0.151 1.019 0.112 1.766 0.019 2.829-0.086 0.995-0.386 1.117-0.452 2.151-0.166 2.601-0.039 7.422 0.379 10.043-3.342-0.312-7.11 1.289-5.774 4.662 1.396-0.552 0.021-4.245 5.665-4.026-1.363 0.725-2.381 0.092-3.694 1.498-0.618 0.663-1.632 2.359-1.019 3.437z"></path>
</svg>
