<!-- Generated by IcoMoon.io -->
<svg version="1.1" xmlns="http://www.w3.org/2000/svg" width="32" height="32" viewBox="0 0 32 32">
<title>viajes-one</title>
<path d="M23.576 6.909h-3.031v-4.545c0-0.833-0.682-1.515-1.515-1.515h-6.061c-0.833 0-1.515 0.681-1.515 1.515v4.546l-3.030-0.001c-1.667 0-3.031 1.364-3.031 3.031v16.667c0 1.666 1.364 3.031 3.031 3.031 0 0.833 0.682 1.515 1.515 1.515s1.515-0.682 1.515-1.515l9.091-0.001c0 0.833 0.682 1.515 1.515 1.515s1.515-0.682 1.515-1.515c1.666 0 3.031-1.364 3.031-3.031v-16.667c0-1.667-1.364-3.031-3.031-3.031zM18.273 6.909h-4.546v-3.788h4.546v3.788zM7.999 12.547c-0.884-5.627 9.439-3.338 12.829-3.394 3.496-0.058 2.797 2.357 2.787 5.505-0.009 2.785 0.112 5.285-0.018 8.101-0.183 3.976-0.615 3.671-4.539 3.654-2.732-0.011-5.562 0.079-8.279-0.001-4.828-0.142-2.237-10.42-2.779-13.866zM15.609 12.826l6.317 0.715-0.546 1.459-5.77-2.173zM10.237 16.552l3.414-1.082 1.042 3.292-3.269 1.105-1.187-3.315zM16.265 22.402c-0.459-2.28 3.251-3.295 3.771-0.679 0.545 2.739-3.344 2.802-3.771 0.679z"></path>
</svg>
