<!-- Generated by IcoMoon.io -->
<svg version="1.1" xmlns="http://www.w3.org/2000/svg" width="32" height="32" viewBox="0 0 32 32">
<title>wifi</title>
<path d="M1.031 14.397c0-1.705 0.858-2.923 2.039-3.887 1.882-1.538 3.954-0.635 4.843-0.983 0.287-0.113 0.527-0.553 0.726-0.781 0.424-0.483 1.815-1.498 2.469-1.849 3.225-1.732 6.554-1.606 9.777-0.001 0.682 0.34 1.176 0.723 1.717 1.195 0.318 0.278 0.495 0.388 0.803 0.704 0.194 0.197 0.483 0.657 0.673 0.733 0.446 0.179 2.168-0.034 2.827 0.085 2.077 0.377 4.055 2.317 4.055 4.683 0 3.068 0.514 5.792-2.066 7.575-1.811 1.25-2.859 0.851-4.771 0.954-0.763 0.041-1.29 1.32-3.374 2.351-3.687 1.826-7.806 1.555-11.040-0.979-0.522-0.409-1.066-0.834-1.347-1.365-2.524 0-3.616 0.152-5.205-0.921-2.6-1.757-2.127-4.528-2.127-7.515zM12.413 19.337v-4.772h1.665v4.772h-1.665zM14.597 21.804c2.207 0 4.414 0 6.622 0 3.974 0 8.674 0.868 8.663-4.595-0.005-2.329 0.145-3.947-1.222-5.43-1.384-1.501-3.009-1.174-5.432-1.174-2.282 0-3.996-0.143-5.448 1.155-1.387 1.239-1.186 3.203-1.181 5.448 0.008 3.297-1.706 3.911-2.002 4.595zM5.156 19.339l1.726 0.005 0.635-3.736 0.77 3.715c2.286 0.149 1.648 0.295 2.485-3.226 0.214-0.902 0.693-2.527 0.768-3.369l-1.846-0.014c-0.16 0.867-0.32 3.032-0.609 3.616l-0.652-3.599-1.671-0.019-0.685 3.518c-0.021-0.026-0.036-0.094-0.041-0.080s-0.027-0.059-0.033-0.080l-0.514-3.319-1.897-0.035 1.563 6.622zM12.301 19.279l1.777 0.058 0.029-4.829-1.787-0.018-0.019 4.789zM12.413 19.251h1.599l0.009-4.686h-1.608v4.686zM12.707 12.483c-1.163 0.57-0.14 1.998 1.023 1.46 1.003-0.463 0.318-2.118-1.023-1.46z"></path>
<path d="M20.617 19.283c0.102-0.627-0.136-1.48 0.16-2.048l3.375-0.006v-1.446c-0.576 0-1.152 0-1.727 0l-1.311 0.005c-0.475-0.049-0.179-0.026-0.316-0.108l-0.033-1.333 3.819-0.054-0.011-1.578h-5.662v6.578l1.707-0.010z"></path>
<path d="M25.615 19.293h1.706l0.023-4.77h-1.706z"></path>
<path d="M26.002 12.439c-1.051 0.489-0.334 2.044 0.998 1.518 1.048-0.414 0.338-2.14-0.998-1.518z"></path>
</svg>
