<?xml version="1.0" encoding="UTF-8"?>
<!DOCTYPE svg PUBLIC "-//W3C//DTD SVG 1.1//EN" "http://www.w3.org/Graphics/SVG/1.1/DTD/svg11.dtd">
<!-- Creator: CorelDRAW 2017 -->
<svg xmlns="http://www.w3.org/2000/svg" xml:space="preserve" width="30.3952mm" height="50.8846mm" version="1.1" style="shape-rendering:geometricPrecision; text-rendering:geometricPrecision; image-rendering:optimizeQuality; fill-rule:evenodd; clip-rule:evenodd"
viewBox="0 0 3039.52 5088.46"
 xmlns:xlink="http://www.w3.org/1999/xlink">
 <defs>
  <style type="text/css">
   <![CDATA[
    .fil3 {fill:#251E1C}
    .fil1 {fill:#4B413D}
    .fil2 {fill:#66BDEA}
    .fil0 {fill:#736D75}
    .fil4 {fill:#E3DBD5}
   ]]>
  </style>
 </defs>
 <g id="Capa_x0020_1">
  <metadata id="CorelCorpID_0Corel-Layer"/>
  <g id="_2093311406384">
   <path class="fil0" d="M1674.6 3150.44c-143.11,0 -323.67,-41.88 -415.85,-110.64 5.74,48.81 32.74,40.94 69.03,59.89 38.07,19.88 71.78,44.54 96.24,65.28 198.26,168.06 378.73,469.09 470.39,482.93 151.33,-21.26 208.27,-144.21 247.69,-291.16 19.29,-71.89 33.02,-135.75 59.46,-203.24 43.82,-111.83 78.96,-125.64 114.9,-165.83 -47.39,16.27 -86.95,44.02 -129.84,64.29 -53.68,25.36 -90.5,37.9 -151.27,54.54 -106.85,29.26 -238,43.94 -360.75,43.94z"/>
   <path class="fil0" d="M472.88 3575.68c5.04,-2.71 -5.46,-24.29 33.42,4.26 75.29,55.28 29.18,124.89 -43.98,132.2 298.46,-3.9 53.55,301.58 -220.16,184.25 -15.69,-92.54 -10.09,-106.42 95.83,-154.82 78.86,-36.02 49.39,-4.67 49.51,-4.59 -72.76,-1.22 -198.03,9.88 -143.38,-95.38 -376.03,172.19 -127.48,452.05 289.42,282.87 163.85,-66.5 294.35,-132.76 404.96,-249.38 26.51,-27.95 42.59,-33.97 69.28,-62.38 39.48,-42.01 10.83,-126.13 7.45,-212.99l-27.19 30.58c-108.63,67.46 -393.19,129.9 -515.16,145.38z"/>
   <path class="fil1" d="M426.89 3819.75c41.33,-23.64 10.98,-67.35 88.86,-24.04 -26.52,64.69 -140.78,73.44 -212.62,58.65 14.08,-42.37 15.41,-27.32 50.52,-56.13 53.92,9.87 20.47,12.9 73.24,21.52zm1513.92 -112.19c140.83,-70.88 193.34,-104.1 245.01,-281.1 36.35,-124.49 61.16,-294 148.21,-355.15 58.3,42.62 174.37,288.53 202.63,388.01 71.73,252.48 94.49,441.35 66.35,673.65l42.56 25.51c1.23,-2.67 6.22,2.31 9.16,3.82 30.13,136.89 42.98,278.39 62.44,419.25 10.92,79 15.17,146.46 11.31,226.27 -1.86,38.5 -3.32,71.31 -13.34,106.23 -81.79,284.79 -561.6,-268.09 -563.7,-752.72 57.74,22.17 64.12,53.82 118.02,30.3 -18.9,-53.73 1.15,-24.9 -52.06,-59.69 -55.97,-36.59 -124.39,-88.75 -163.34,-143.95 -52.94,-75.03 -98.06,-177.23 -113.25,-280.43zm-1467.93 -131.88c121.97,-15.48 406.53,-77.92 515.16,-145.38l27.19 -30.58c3.38,86.86 32.03,170.98 -7.45,212.99 -26.69,28.41 -42.77,34.43 -69.28,62.38 -110.61,116.62 -241.11,182.88 -404.96,249.38 -416.9,169.18 -665.45,-110.68 -289.42,-282.87 -54.65,105.26 70.62,94.16 143.38,95.38 -0.12,-0.08 29.35,-31.43 -49.51,4.59 -105.92,48.4 -111.52,62.28 -95.83,154.82 273.71,117.33 518.62,-188.15 220.16,-184.25 73.16,-7.31 119.27,-76.92 43.98,-132.2 -38.88,-28.55 -28.38,-6.97 -33.42,-4.26zm776.74 -437.3c157.69,43.38 328.24,273.5 421.92,396.12 42.84,56.07 89.08,94.82 132.84,143.9 -35.26,224.57 -182.9,399.33 -329.13,548.25 -33.74,34.37 -50.14,27.82 -38.06,70.6 39.36,11.15 66.63,-11.02 81.36,-38.41 -13.18,124.68 -86.67,287.93 -131.51,410.22 -42.52,115.98 -112.44,310.15 -218.34,350.78 -173.78,66.66 -203.35,-210.94 -204.64,-343.96 -1.9,-195.83 46.27,-324.6 72.78,-494.11 58.33,49.12 19.73,65.5 80.9,86.43 28.95,-54.66 -54.39,-201.49 -63.71,-286.85 -14.22,-130.17 30.76,-202.71 59.47,-310.09 21.29,-79.62 -62.95,-182.8 -23.57,-315.86 32.62,-110.21 83.58,-173.09 159.69,-217.02zm424.98 12.06c122.75,0 253.9,-14.68 360.75,-43.94 60.77,-16.64 97.59,-29.18 151.27,-54.54 42.89,-20.27 82.45,-48.02 129.84,-64.29 -35.94,40.19 -71.08,54 -114.9,165.83 -26.44,67.49 -40.17,131.35 -59.46,203.24 -39.42,146.95 -96.36,269.9 -247.69,291.16 -91.66,-13.84 -272.13,-314.87 -470.39,-482.93 -24.46,-20.74 -58.17,-45.4 -96.24,-65.28 -36.29,-18.95 -63.29,-11.08 -69.03,-59.89 92.18,68.76 272.74,110.64 415.85,110.64zm-835.29 -2469.74c-202.07,-231.88 -27.67,-369.4 214.63,-512.03 258.86,-152.37 437.5,-150.68 723.69,-9.68 335.87,165.48 489.38,510.1 528.61,875.87 7.96,74.25 7.6,146.82 2.57,221.24 -4.39,64.9 -30.53,147.21 10.57,187.58 95.17,-64.77 16.85,-404.44 30.22,-518.97 31.74,-271.85 206.37,-279.91 201.66,-381.64 -99.04,6.26 -174.22,160.28 -208.35,212.7l-15.07 18.46c-1.22,-2.49 -5.61,6.03 -8.46,9.01l-137.84 -360.16c116.77,-50.47 484.46,-46.68 617.68,-23.61 168.98,29.24 212.01,128.12 180.6,307.75 -9.06,51.81 -27.31,67.29 -61.46,97.11 11.29,159.6 9.57,229.97 -28.54,384.29 -20.98,84.96 -59.19,229.07 -117.14,294.13 -16.89,-134.39 -0.18,-110.53 -42.98,-137.87 -18.05,20.61 -11.44,-2.45 -19.49,32.16l5.69 87.08c3.43,45.78 0.21,85.91 -3.92,131.33 -6.79,74.86 -21.36,150.81 -44.63,217.03 -69.98,199.11 -82.66,94.19 -184.07,329.81 -29.83,69.34 -51.18,108.42 -90.31,173.19 -166.8,276.14 -143.73,266.12 -99.71,600.41 -245.9,201.57 -754.76,230.91 -1037.14,52.02 -48.82,-30.93 -89.84,-161.42 -116.34,-219.45 -52.93,-115.93 -81.49,-121.06 -142,-196.1 -115.13,-142.76 -169.27,-198.23 -264.13,-398.97l25.25 -80.25c-121.35,-38.11 -239.96,-147.68 -301.13,-227.09 -73.78,-95.77 -139.76,-196.6 -169.83,-334.61 77.91,57.23 62.17,17.81 74.4,11.41 -14.74,-61.33 -21.42,-44.42 -68.19,-85.1 -198.32,-172.48 -260.21,-455.88 -221.74,-716.85 24.31,-164.84 -40.74,-307.74 160.01,-361.23 146.33,-38.99 354.11,-44.41 501.83,-7.07 -45.44,118.88 -73.02,125.06 -8.79,255.93 68.99,140.56 130.79,122.29 69.75,199.75 -28.79,-94.79 -135.41,-244.12 -237,-253.26 5.17,74.17 21.32,42.68 109.87,141.34 189.8,211.47 124.98,439.7 126.05,504.08 1.08,65.32 3.61,28.43 15.87,46.82 52.8,-27.16 23.49,-3.81 43.96,-70.52 97.69,23.68 171.39,109.12 217.74,172.11 140.15,190.45 60.58,210.45 133.96,246.93 66.93,-80.41 -66.1,-252.01 -107.5,-302.22 -78.03,-94.67 -112.1,-114.53 -237.96,-183.1 2.61,-135.9 -32.1,-197.83 10.92,-333.94 36.42,-115.22 124.86,-181.11 131.79,-253.19 -101.42,10.23 -97.45,111.95 -163.6,157.37zm1054.93 3070.48c2.45,6.73 12.29,45.76 15.87,57.67 12.54,41.78 21.72,67.22 39.25,106.72 38.54,86.87 63.79,107.75 114.32,165.71 41.41,47.49 34.71,157.3 49.02,241.57 77.97,459.15 507.77,901.67 634.64,662.85 73.56,-138.43 6.46,-583.21 -25.8,-768.64 -14.09,-80.91 -44.85,-154.52 -49.85,-230.4 -25.26,-383.21 -72.25,-607.41 -245.36,-884.24 -55.26,-88.36 -122.75,-328.8 -110.04,-465.72 14.45,-155.57 114.88,-276.69 179.15,-395.71 33.65,-62.3 53.44,-151.72 95.77,-197.15 110.62,-118.74 140.97,-222.92 167,-389.84 12.94,-82.97 55.94,-110.88 91.14,-187.84 53.45,-116.86 114.45,-295.37 127.16,-443.37 23.81,-277.27 89.08,-305.55 54.22,-490.79 -60.47,-321.35 -639.71,-181.29 -901.85,-161.09 -62.08,-38.53 -82.17,-86.93 -136.06,-134.26 -142.5,-125.16 -323.41,-196.39 -521.83,-229.27 -171.5,-28.42 -270.31,19.92 -400.81,88.94 -70.28,37.17 -254.66,164.63 -289.49,205.75 -201.69,-16.39 -326.27,-53.74 -544.39,0.99 -217.29,54.52 -213.53,166.01 -216.28,383.96 -2.42,192.53 -24.26,370.85 53.6,544.3 45.89,102.22 106.24,150.26 125.08,184.58 23.04,41.98 47.29,162.34 72.62,221.17 181.65,421.82 324.84,328.52 399.52,507.36 69.37,166.12 116.79,240.58 225.52,377.29 45.82,57.62 102.64,102.43 140.4,152.12 67.26,88.52 158.76,312.6 161.26,428.16 -219.46,181.41 -90.01,269.84 -520.01,370.86 -256.6,60.28 -529.04,77.49 -641.62,252.56 -83.13,129.28 -19.17,256.31 100,291.85 304.57,90.82 745.67,-158.73 918.24,-361.85 -98.42,415.9 -29.14,206.73 -41.74,418.23 -4.86,81.58 -73.83,289.8 -90.21,405.67 -39.5,279.22 23.01,761.95 312.73,563.45 116.54,-79.85 259.11,-473.1 313.33,-668.75 84.37,-304.43 9.16,-105.6 161.43,-337.62 83.92,-127.88 122.04,-282.25 154.93,-329.5l29.14 44.28z"/>
   <path class="fil1" d="M1211.62 1119.66c72.51,-1.08 71.9,-56.39 140.58,-94.52 45.73,38.39 81.57,87.01 146.55,111.83 54.04,-37.52 88.03,-88.02 133.48,-121.96 72.12,38.6 66.96,87.29 159.6,101.67 60.72,-31.37 77.45,-67.38 118.06,-103.78 75.85,27.01 98.54,97.13 188.41,88.05 -18.91,-73.73 -174.57,-145.01 -174.58,-145.01 -88.98,27.57 -84.78,57.3 -146.54,101.67l-128.62 -104.56c-102.87,31.86 -99.38,79.27 -164.47,116.21 -137.33,-104.03 -112.21,-153.91 -218.54,-43.77 -44.79,46.4 -69.87,30.65 -53.93,94.17z"/>
   <path class="fil1" d="M1240.98 540.39c32.24,50.91 87.29,59.74 182.34,104.99 6.37,3.03 24.47,11.36 29.41,14.64 39.49,26.24 17.64,13 33.41,31.35 -36.62,13.18 -67.51,30.9 -107.95,50.26 -130.25,62.38 -86.94,32.46 -99.53,77.37 52.3,27.53 105.26,-19.27 159.85,-45.24 61.7,-29.36 114.09,-42.33 127.21,-101.4 -38.04,-47.13 -157.17,-95.75 -220.89,-125.5 -123.23,-57.51 -92.59,-13.25 -103.85,-6.47z"/>
   <path class="fil1" d="M1615.98 3069.85c12.56,-20.47 11.21,-1.43 14.09,-35.44 0.87,-10.19 -3.72,-25.33 -6.19,-35.81 -73.95,-313.67 7.62,-279.45 12.77,-467.94 -43.42,7.76 -52.75,-18.31 -79.83,108.84 -21.37,100.39 -41.11,372.88 59.16,430.35z"/>
   <path class="fil1" d="M2286.22 4402.18c-41.53,-157.16 5.31,-103.67 -54.76,-120.68 -40.35,65.64 30.51,220 59.94,274.29 45.57,84.09 89.3,183.58 177.83,195.97 -5.12,-72.25 -25.29,-56.6 -66.81,-114.81 -40.82,-57.23 -98.11,-166.31 -116.2,-234.77z"/>
   <path class="fil1" d="M2239.54 2887.87c7.32,-69.13 -23.85,-399.7 -121.41,-420.92 -26.99,64.04 38.51,157.98 52.1,231.82 28.13,152.89 -9.33,193.31 31.92,257.75 35.48,-24.1 28.66,13.82 37.39,-68.65z"/>
   <path class="fil1" d="M1855.2 657.7c29.69,52.79 223.86,157.23 275.44,131.97 -10.62,-35.52 -2.57,-23.82 -31.99,-43.45l-167.38 -93.89c26.79,-18.64 52.13,-36.43 79.98,-53.27 55.66,-33.64 63.21,-13.01 72.39,-73.34 -59.13,-25.68 -201.05,87 -228.44,131.98z"/>
   <path class="fil1" d="M1925.87 2986.9c27.03,-62.77 0.06,-177.69 -7.33,-257.94 -13.97,-151.77 5.06,-199.71 -53.44,-222.98 -39.18,56.96 -2.61,188.16 4.17,263.9 15.06,168.2 -3.2,195.52 56.6,217.02z"/>
   <path class="fil1" d="M2448.3 4029.53c-12.2,-56.4 -31.23,-44.37 -82.18,-75.62 -31.42,-19.28 -79.93,-51.28 -103.87,-72.32 -36.75,-32.33 -56.45,-56.06 -88.26,-86.8 -42.29,-40.87 -33.2,-65.2 -89.72,-84.21 -40.5,93.82 257.07,341.42 364.03,318.95z"/>
   <path class="fil1" d="M1195.64 2329.35c16.3,60.3 128.28,103.29 200.94,115.41l224.88 -5.01c67.52,-15.39 36.03,-4.41 56.72,-37.09l-21.86 -14.95c-68.73,-17.26 -108.45,27.11 -250.92,4.38 -94.72,-15.11 -158.59,-93.33 -209.76,-62.74z"/>
   <path class="fil1" d="M1220.31 4853.12c66.13,-24.1 117.31,-230.08 141.14,-300.77 1.45,-4.31 20.28,-54.52 20.46,-55.68 15.27,-98.65 0.3,-42.61 -15.05,-65.67 -55.2,39.12 -101.5,243.66 -132.83,317.06 -23.94,56.11 -43.05,57.01 -13.72,105.06z"/>
   <path class="fil1" d="M1264.28 4119.24c27.5,-44.27 -29.35,-174.19 -31.85,-324.01 -0.16,-9.98 0.98,-53.13 0.2,-58.55 -7.08,-49.1 -3.18,-27.38 -26.97,-45.05 -60.7,45.29 -15.35,261.45 2.33,337.07 13.77,58.91 6.43,71.83 56.29,90.54z"/>
   <path class="fil1" d="M2002.26 2348.63c9.38,88.71 124.03,62.83 185.46,40.17 61.3,-22.6 128.92,-53.75 140.71,-113.99 -67.8,-16.59 -79.78,30.74 -149.27,60.38 -68.23,29.09 -115.58,2.64 -176.9,13.44z"/>
   <path class="fil1" d="M1029.81 1956c26.79,-39.08 21.62,48.53 18.16,-50.6 -0.12,-3.24 -13.13,-44.13 -14.88,-48.59 -36.1,-92.01 -81.06,-221.83 -159.64,-226.51 -8.44,58.31 -1.84,38.88 28.11,79.22 89.42,120.42 65.03,201.75 128.25,246.48z"/>
   <path class="fil1" d="M2407.31 1846.9c26.57,-40.18 16.64,-111.3 34.74,-172.52 19.37,-65.51 55.28,-100.95 45.74,-158.86 -92.06,-1.36 -123.94,256.73 -117.88,287.37 13.45,68.07 8.37,31.2 37.4,44.01z"/>
   <path class="fil1" d="M1865.1 2290.59c42.36,-64.08 -12.81,-308.46 -58.62,-339.08 -39.95,30.06 -28.54,-18.22 2.21,156.04 27.44,155.49 2.51,153.93 56.41,183.04z"/>
   <path class="fil1" d="M1391.94 2563.97c-15.69,-11.99 -221.21,-54.99 -239.15,-53.05 0.31,54.28 29.45,65.19 86.2,78.64 60.28,14.28 129.33,35.09 152.95,-25.59z"/>
   <path class="fil1" d="M1612.82 2702.63c13.44,37.92 -10.54,35.93 47.91,54.64 25.81,8.26 181.81,28.27 167.8,-69.22 -54.33,-1.37 -51.62,21.15 -109.69,21.13 -58.49,-0.02 -46.12,-20.14 -106.02,-6.55z"/>
   <path class="fil1" d="M1644.19 2901.23c35.12,66.61 175.09,50.85 198.81,-29.33 -45.21,-22.9 -50.32,-6.63 -54.21,-5.68l-144.6 35.01z"/>
   <path class="fil1" d="M1986.04 2827.51c19.46,52.37 53.51,47.05 113.88,34.63 56.39,-11.61 59.41,-17.02 70.81,-60.34 -45.43,-10.02 -153.22,7.12 -184.69,25.71z"/>
   <path class="fil1" d="M1967.68 2681.27c38.88,27.55 54.11,24.01 109.23,5.75 48.99,-16.23 52.47,-17.87 68.27,-64.18 -70,-10.82 -39.25,-2.87 -100.4,14.72 -71.06,20.43 -53.59,-11.11 -77.1,43.71z"/>
   <path class="fil2" d="M1644.19 2901.23l144.6 -35.01c3.89,-0.95 9,-17.22 54.21,5.68 -23.72,80.18 -163.69,95.94 -198.81,29.33zm341.85 -73.72c31.47,-18.59 139.26,-35.73 184.69,-25.71 -11.4,43.32 -14.42,48.73 -70.81,60.34 -60.37,12.42 -94.42,17.74 -113.88,-34.63zm-740.15 -87.58l163.1 0c-17.37,46.2 -72.58,55.77 -125.44,38.73 -70.79,-22.81 -19.86,-18.81 -37.66,-38.73zm366.93 -37.3c59.9,-13.59 47.53,6.53 106.02,6.55 58.07,0.02 55.36,-22.5 109.69,-21.13 14.01,97.49 -141.99,77.48 -167.8,69.22 -58.45,-18.71 -34.47,-16.72 -47.91,-54.64zm354.86 -21.36c23.51,-54.82 6.04,-23.28 77.1,-43.71 61.15,-17.59 30.4,-25.54 100.4,-14.72 -15.8,46.31 -19.28,47.95 -68.27,64.18 -55.12,18.26 -70.35,21.8 -109.23,-5.75zm-102.58 -175.29c58.5,23.27 39.47,71.21 53.44,222.98 7.39,80.25 34.36,195.17 7.33,257.94 -59.8,-21.5 -41.54,-48.82 -56.6,-217.02 -6.78,-75.74 -43.35,-206.94 -4.17,-263.9zm-249.12 563.87c-100.27,-57.47 -80.53,-329.96 -59.16,-430.35 27.08,-127.15 36.41,-101.08 79.83,-108.84 -5.15,188.49 -86.72,154.27 -12.77,467.94 2.47,10.48 7.06,25.62 6.19,35.81 -2.88,34.01 -1.53,14.97 -14.09,35.44zm-463.19 -558.93c17.94,-1.94 223.46,41.06 239.15,53.05 -23.62,60.68 -92.67,39.87 -152.95,25.59 -56.75,-13.45 -85.89,-24.36 -86.2,-78.64zm965.34 -43.97c97.56,21.22 128.73,351.79 121.41,420.92 -8.73,82.47 -1.91,44.55 -37.39,68.65 -41.25,-64.44 -3.79,-104.86 -31.92,-257.75 -13.59,-73.84 -79.09,-167.78 -52.1,-231.82zm-721.55 -22.19c-72.66,-12.12 -184.64,-55.11 -200.94,-115.41 51.17,-30.59 115.04,47.63 209.76,62.74 142.47,22.73 182.19,-21.64 250.92,-4.38l21.86 14.95c-20.69,32.68 10.8,21.7 -56.72,37.09l-224.88 5.01zm605.68 -96.13c61.32,-10.8 108.67,15.65 176.9,-13.44 69.49,-29.64 81.47,-76.97 149.27,-60.38 -11.79,60.24 -79.41,91.39 -140.71,113.99 -61.43,22.66 -176.08,48.54 -185.46,-40.17zm-195.78 -397.12c45.81,30.62 100.98,275 58.62,339.08 -53.9,-29.11 -28.97,-27.55 -56.41,-183.04 -30.75,-174.26 -42.16,-125.98 -2.21,-156.04zm-758.51 -46.11c3.46,99.13 8.63,11.52 -18.16,50.6 -63.22,-44.73 -38.83,-126.06 -128.25,-246.48 -29.95,-40.34 -36.55,-20.91 -28.11,-79.22 78.58,4.68 123.54,134.5 159.64,226.51 1.75,4.46 14.76,45.35 14.88,48.59zm1359.34 -58.5c-29.03,-12.81 -23.95,24.06 -37.4,-44.01 -6.06,-30.64 25.82,-288.73 117.88,-287.37 9.54,57.91 -26.37,93.35 -45.74,158.86 -18.1,61.22 -8.17,132.34 -34.74,172.52zm-1195.69 -727.24c-15.94,-63.52 9.14,-47.77 53.93,-94.17 106.33,-110.14 81.21,-60.26 218.54,43.77 65.09,-36.94 61.6,-84.35 164.47,-116.21l128.62 104.56c61.76,-44.37 57.56,-74.1 146.54,-101.67 0.01,0 155.67,71.28 174.58,145.01 -89.87,9.08 -112.56,-61.04 -188.41,-88.05 -40.61,36.4 -57.34,72.41 -118.06,103.78 -92.64,-14.38 -87.48,-63.07 -159.6,-101.67 -45.45,33.94 -79.44,84.44 -133.48,121.96 -64.98,-24.82 -100.82,-73.44 -146.55,-111.83 -68.68,38.13 -68.07,93.44 -140.58,94.52zm211.7 -474.28c-95.05,-45.25 -150.1,-54.08 -182.34,-104.99 11.26,-6.78 -19.38,-51.04 103.85,6.47 63.72,29.75 182.85,78.37 220.89,125.5 -13.12,59.07 -65.51,72.04 -127.21,101.4 -54.59,25.97 -107.55,72.77 -159.85,45.24 12.59,-44.91 -30.72,-14.99 99.53,-77.37 40.44,-19.36 71.33,-37.08 107.95,-50.26 -15.77,-18.35 6.08,-5.11 -33.41,-31.35 -4.94,-3.28 -23.04,-11.61 -29.41,-14.64zm431.88 12.32c27.39,-44.98 169.31,-157.66 228.44,-131.98 -9.18,60.33 -16.73,39.7 -72.39,73.34 -27.85,16.84 -53.19,34.63 -79.98,53.27l167.38 93.89c29.42,19.63 21.37,7.93 31.99,43.45 -51.58,25.26 -245.75,-79.18 -275.44,-131.97zm-1015.89 23c66.15,-45.42 62.18,-147.14 163.6,-157.37 -6.93,72.08 -95.37,137.97 -131.79,253.19 -43.02,136.11 -8.31,198.04 -10.92,333.94 125.86,68.57 159.93,88.43 237.96,183.1 41.4,50.21 174.43,221.81 107.5,302.22 -73.38,-36.48 6.19,-56.48 -133.96,-246.93 -46.35,-62.99 -120.05,-148.43 -217.74,-172.11 -20.47,66.71 8.84,43.36 -43.96,70.52 -12.26,-18.39 -14.79,18.5 -15.87,-46.82 -1.07,-64.38 63.75,-292.61 -126.05,-504.08 -88.55,-98.66 -104.7,-67.17 -109.87,-141.34 101.59,9.14 208.21,158.47 237,253.26 61.04,-77.46 -0.76,-59.19 -69.75,-199.75 -64.23,-130.87 -36.65,-137.05 8.79,-255.93 -147.72,-37.34 -355.5,-31.92 -501.83,7.07 -200.75,53.49 -135.7,196.39 -160.01,361.23 -38.47,260.97 23.42,544.37 221.74,716.85 46.77,40.68 53.45,23.77 68.19,85.1 -12.23,6.4 3.51,45.82 -74.4,-11.41 30.07,138.01 96.05,238.84 169.83,334.61 61.17,79.41 179.78,188.98 301.13,227.09l-25.25 80.25c94.86,200.74 149,256.21 264.13,398.97 60.51,75.04 89.07,80.17 142,196.1 26.5,58.03 67.52,188.52 116.34,219.45 282.38,178.89 791.24,149.55 1037.14,-52.02 -44.02,-334.29 -67.09,-324.27 99.71,-600.41 39.13,-64.77 60.48,-103.85 90.31,-173.19 101.41,-235.62 114.09,-130.7 184.07,-329.81 23.27,-66.22 37.84,-142.17 44.63,-217.03 4.13,-45.42 7.35,-85.55 3.92,-131.33l-5.69 -87.08c8.05,-34.61 1.44,-11.55 19.49,-32.16 42.8,27.34 26.09,3.48 42.98,137.87 57.95,-65.06 96.16,-209.17 117.14,-294.13 38.11,-154.32 39.83,-224.69 28.54,-384.29 34.15,-29.82 52.4,-45.3 61.46,-97.11 31.41,-179.63 -11.62,-278.51 -180.6,-307.75 -133.22,-23.07 -500.91,-26.86 -617.68,23.61l137.84 360.16c2.85,-2.98 7.24,-11.5 8.46,-9.01l15.07 -18.46c34.13,-52.42 109.31,-206.44 208.35,-212.7 4.71,101.73 -169.92,109.79 -201.66,381.64 -13.37,114.53 64.95,454.2 -30.22,518.97 -41.1,-40.37 -14.96,-122.68 -10.57,-187.58 5.03,-74.42 5.39,-146.99 -2.57,-221.24 -39.23,-365.77 -192.74,-710.39 -528.61,-875.87 -286.19,-141 -464.83,-142.69 -723.69,9.68 -242.3,142.63 -416.7,280.15 -214.63,512.03z"/>
   <path class="fil2" d="M1220.31 4853.12c-29.33,-48.05 -10.22,-48.95 13.72,-105.06 31.33,-73.4 77.63,-277.94 132.83,-317.06 15.35,23.06 30.32,-32.98 15.05,65.67 -0.18,1.16 -19.01,51.37 -20.46,55.68 -23.83,70.69 -75.01,276.67 -141.14,300.77zm43.97 -733.88c-49.86,-18.71 -42.52,-31.63 -56.29,-90.54 -17.68,-75.62 -63.03,-291.78 -2.33,-337.07 23.79,17.67 19.89,-4.05 26.97,45.05 0.78,5.42 -0.36,48.57 -0.2,58.55 2.5,149.82 59.35,279.74 31.85,324.01zm-150.78 -447.98c-28.71,107.38 -73.69,179.92 -59.47,310.09 9.32,85.36 92.66,232.19 63.71,286.85 -61.17,-20.93 -22.57,-37.31 -80.9,-86.43 -26.51,169.51 -74.68,298.28 -72.78,494.11 1.29,133.02 30.86,410.62 204.64,343.96 105.9,-40.63 175.82,-234.8 218.34,-350.78 44.84,-122.29 118.33,-285.54 131.51,-410.22 -14.73,27.39 -42,49.56 -81.36,38.41 -12.08,-42.78 4.32,-36.23 38.06,-70.6 146.23,-148.92 293.87,-323.68 329.13,-548.25 -43.76,-49.08 -90,-87.83 -132.84,-143.9 -93.68,-122.62 -264.23,-352.74 -421.92,-396.12 -76.11,43.93 -127.07,106.81 -159.69,217.02 -39.38,133.06 44.86,236.24 23.57,315.86z"/>
   <path class="fil2" d="M2231.46 4281.5c60.07,17.01 13.23,-36.48 54.76,120.68 18.09,68.46 75.38,177.54 116.2,234.77 41.52,58.21 61.69,42.56 66.81,114.81 -88.53,-12.39 -132.26,-111.88 -177.83,-195.97 -29.43,-54.29 -100.29,-208.65 -59.94,-274.29zm134.66 -327.59c50.95,31.25 69.98,19.22 82.18,75.62 -106.96,22.47 -404.53,-225.13 -364.03,-318.95 56.52,19.01 47.43,43.34 89.72,84.21 31.81,30.74 51.51,54.47 88.26,86.8 23.94,21.04 72.45,53.04 103.87,72.32zm-425.31 -246.35c15.19,103.2 60.31,205.4 113.25,280.43 38.95,55.2 107.37,107.36 163.34,143.95 53.21,34.79 33.16,5.96 52.06,59.69 -53.9,23.52 -60.28,-8.13 -118.02,-30.3 2.1,484.63 481.91,1037.51 563.7,752.72 10.02,-34.92 11.48,-67.73 13.34,-106.23 3.86,-79.81 -0.39,-147.27 -11.31,-226.27 -19.46,-140.86 -32.31,-282.36 -62.44,-419.25 -2.94,-1.51 -7.93,-6.49 -9.16,-3.82l-42.56 -25.51c28.14,-232.3 5.38,-421.17 -66.35,-673.65 -28.26,-99.48 -144.33,-345.39 -202.63,-388.01 -87.05,61.15 -111.86,230.66 -148.21,355.15 -51.67,177 -104.18,210.22 -245.01,281.1z"/>
   <path class="fil3" d="M1408.99 2739.93l-163.1 0c17.8,19.92 -33.13,15.92 37.66,38.73 52.86,17.04 108.07,7.47 125.44,-38.73z"/>
   <path class="fil4" d="M426.89 3819.75c-52.77,-8.62 -19.32,-11.65 -73.24,-21.52 -35.11,28.81 -36.44,13.76 -50.52,56.13 71.84,14.79 186.1,6.04 212.62,-58.65 -77.88,-43.31 -47.53,0.4 -88.86,24.04z"/>
  </g>
 </g>
</svg>
