<!-- Generated by IcoMoon.io -->
<svg version="1.1" xmlns="http://www.w3.org/2000/svg" width="32" height="32" viewBox="0 0 32 32">
<title>xiiber-circular-blanco-azul</title>
<path fill="#fefefe" d="M13.256 1.324h5.487c6.59 0 11.932 6.57 11.932 14.675v-0.001c0 8.105-5.342 14.675-11.932 14.675h-5.487c-6.59 0-11.932-6.57-11.932-14.675v0.001c0-8.105 5.342-14.675 11.932-14.675z"></path>
<path fill="#3d0074" d="M11.131 18.409c-1.181-2.144-2.067-3.135-2.657-6.521-1.404-8.060 2.782-11.871 5.422-3.088 0.949 3.157 0.723 4.731 0.443 8.128l1.193 0.027c0.518-2.685 1.862-5.734 3.316-7.095 1.196-1.12 5.469-2.822 7.899-1.347 1.545 0.937 0.893 2.308-0.474 2.962-3.474 1.66-3.081 2.009-5.234 4.701-0.94 1.176-1.64 1.451-2.609 2.437 0.382 0.991 1.787 2.433 0.824 4.935-2.408-1.126-4.366-1.94-7.445-1.124-0.511 0.136-0.746 0.274-1.165 0.397-2.238 0.659-0.318-3.658 0.484-4.412z"></path>
<path fill="#3d0074" d="M13.576 24.671c-2.453 0.862-1.274 4.571 1.247 3.809 0.262-0.080 0.515-0.231 0.647-0.344 1.799-1.543 0.11-4.17-1.893-3.466z"></path>
</svg>
