<?xml version="1.0" encoding="UTF-8"?>
<!DOCTYPE svg PUBLIC "-//W3C//DTD SVG 1.1//EN" "http://www.w3.org/Graphics/SVG/1.1/DTD/svg11.dtd">
<!-- Creator: CorelDRAW 2017 -->
<svg xmlns="http://www.w3.org/2000/svg" xml:space="preserve" width="26.697mm" height="15mm" version="1.1" style="shape-rendering:geometricPrecision; text-rendering:geometricPrecision; image-rendering:optimizeQuality; fill-rule:evenodd; clip-rule:evenodd"
viewBox="0 0 2669.7 1500"
 xmlns:xlink="http://www.w3.org/1999/xlink">
 <defs>
  <style type="text/css">
   <![CDATA[
    .str0 {stroke:#FEFEFE;stroke-width:7.62;stroke-miterlimit:22.9256}
    .fil0 {fill:#2B2A29}
   ]]>
  </style>
 </defs>
 <g id="Capa_x0020_1">
  <metadata id="CorelCorpID_0Corel-Layer"/>
  <g id="_2188925997872">
   <g>
    <path class="fil0" d="M927.66 879.53l-0.2 0.35 0.21 -0.35 0.05 -0.1 0.25 -0.44 0.26 -0.46c9.13,-3.99 11.02,-10.3 25.62,-12.6 11.73,-1.85 22.25,0.37 32.16,5.93 21.14,11.82 21.3,27.02 32.14,44.7l-90.49 -37.03zm501.3 282.15l0.03 0.94 0 -0.03 -0.03 -0.91zm337.54 -235.73l-0.02 -0.29 0 0.29 0.02 0zm0.23 -11.8l-0.02 -0.12 0 0.03 0.02 0.09zm-3.4 -15.44l-0.02 -0.09 -0.01 0 0.03 0.09zm-130.59 -32.76l2.8 0.67 -1.84 -0.46c-2.04,0.71 -4.27,1.16 -5.02,0.62l4.11 0.09 -0.05 -0.92zm2.8 0.67l0.82 0.22 0.08 0 -0.9 -0.22zm31.23 169.34l0.02 0.31 0 -0.29 -0.02 -0.02zm-126.92 -125.58l-0.05 -1.31 0.04 0.93 0.01 0.38zm-98.9 64.27l0.05 0.28 -0.05 -0.31 0 0.03zm-321.1 -41.59l0.29 0.14 0.01 0 -0.3 -0.14zm31.22 53.31l0.14 2.85 -0.09 -1.94 -0.05 -0.91zm0.14 2.85l0.14 2.97 -0.09 -2.05 -0.05 -0.92zm0.55 12.5l0.14 3.36 -0.09 -2.44 -0.05 -0.92zm0.14 3.36l0.14 3.44 -0.09 -2.52 -0.05 -0.92zm480.84 -139.13l0.96 0.21c-2.04,0.71 -4.27,1.16 -5.02,0.62l4.11 0.09 -0.05 -0.92zm80.98 -0.3c14.07,0.71 31.88,9.4 40.8,20.02 1.82,2.14 7.76,11.22 8.47,11.84l0.06 0.25 0.08 0.23 0.06 0.24 0.07 0.24 0.04 0.15 0.01 0 -49.59 -32.97zm-786.05 13.88l-0.01 0 0.01 0zm513.27 94.78l-0.03 0.06 0.04 0.25 0 0.03 -0.01 -0.34zm1.12 -36.86l0 -0.46 -0.04 -0.92 0 -0.45 -0.05 -0.94 0 -0.43 -0.05 -0.94 0 -0.42 -0.04 -0.94 -0.02 -0.41 -0.04 -0.93 0.24 6.84zm-0.29 -8.18l-0.01 -0.38 -0.05 -0.92 -0.02 -0.37 -0.03 -0.93 -0.01 0 -0.02 -0.34 -0.03 -0.94 -0.01 -0.32 -0.05 -0.92 -0.02 -0.31 -0.03 -0.91 -0.01 -0.01 0 -0.28 -0.05 -0.91 -0.01 -0.25 -0.05 -0.92 0 -0.02 -0.01 -0.2 0 -0.16 -0.04 -0.77 -0.01 -0.17 -0.05 -0.93 0.51 10.96zm-0.61 -13.07l-0.02 -0.06 -0.05 -0.92 0 -0.02 0 -0.01 -0.04 -0.91 0 -0.02 0.11 1.94zm-0.17 -2.85l-0.05 -0.86 -0.05 -0.81 -0.04 -0.77 0.14 2.44zm-0.27 -4.41l-0.01 -0.13 -0.02 -0.41 0.03 0.54zm-31.68 -43.15l0.01 0 -0.51 -0.48 0.14 0.02 0.16 0.02 0.13 0.01 0.16 0.02 0.14 0.01 0.14 0 0.01 0 0.14 0.02 0.15 0.01 0.14 0.02 0.06 0 0.1 0.01 0.14 0.02 0.15 0 0.14 0.01 0.15 0.02 0.14 0.02 0.31 0.01 0.14 0.02 0.14 0 0.01 0.01 0.15 0 0.14 0.02 0.16 0.01 0.15 0 0.16 0.02 0.13 0.01 0.16 0 0.15 0.02 0.16 0.01 0.04 0 0.11 0 0.14 0.02 0.15 0 0.16 0.01 -4.25 0.11zm-217.77 66.53l91.25 0.03 -91.25 -0.03zm249.67 41.99l0.08 -0.14 0.03 -0.06 0.04 -0.11 0.08 -0.18 0.02 -0.03 0.06 -0.19 0.18 -0.64 0.02 -0.1 0.06 -0.27 0.14 -0.73 0.03 -0.24 -0.74 2.69zm1.17 -6.99l0.02 0 -0.02 0zm0.25 -17.55l-0.02 -0.76 0 -0.5 -0.01 -0.25 -0.04 -2.29 0 -0.19 -0.06 -2.12 0 -0.65 -0.01 -0.12 -0.02 -0.79 -0.01 -0.48 -0.02 -0.29 -0.01 -0.77 0 -0.34 -0.02 -0.44 -0.03 -0.77 0 -0.17 -0.02 -0.62 -0.03 -0.77 0.3 12.32z"/>
   </g>
   <g>
    <path class="fil0" d="M991.98 345.94l-4.66 -0.27c-2.57,4.54 1.09,6.67 -3.08,6.78l0.5 46.36 6.44 0.25 0.37 13.35 13.01 0.33 0.32 18.29c3.23,1.94 2.46,-0.01 5.75,1.79l0.04 12.47 6.6 0.17 0.13 6.66 6.53 0.22 0.23 13.25 6.63 0.18c0.25,4.5 1.18,7.71 1.07,11.62l5.06 1.34 0.1 12.72 6.43 0.24c0.75,8.91 0.99,6.54 5.78,7.46 0.09,0.01 1.93,-0.37 4.15,1.53 15.08,3.52 15.59,16.66 23.06,26.73 7.14,9.61 16.26,17.1 19.72,29.46 2.67,2.26 3.07,4.19 4.42,7.5 2.23,5.43 0.24,3.24 5.57,4.79 1.93,7.93 0.22,5.06 4.66,12.18l1.16 -1.86c1.38,7.38 4.83,8.9 5.21,18.57 0.22,5.12 2.62,10.36 1.87,14.69 -1.1,6.27 0.49,1.84 1.77,10.42l1.41 31.16c11.74,3.64 21.69,8.12 33.4,12.19 10.86,3.76 24.93,7.33 34.77,11.43l13.09 4.03c12.45,2.28 29.32,11.02 41.55,8.81 10.6,-1.99 8.92,-3.98 15.37,-11 3.53,-3.87 9.26,-8.97 13.81,-12.28 12.43,-9.1 22.11,-11.86 35.53,-18.03 4.28,-0.53 9.55,-2.77 14.36,-3.63 5.1,-0.89 11.71,-1.85 16.83,-2.01 12.49,-0.41 22.97,0.11 35.14,1.8 2.97,0.91 6.7,2.38 9.22,1.6 19.17,-6.56 39.32,-17 58.76,-24.23 20.79,-7.72 37.37,-13.5 55.6,-26.59 37.44,-26.9 53.28,-45.67 104.79,-60 1.44,-4.78 2.56,-4.4 6.74,-5.24 2.43,-0.5 7.87,-1.73 7.81,-4.6 -2.19,-5.33 -3.39,1.75 -5.75,-3.86 0,-7.92 3.4,-7.25 5.07,-14.51 5.6,8.47 7.85,-2.6 11.05,-9.18 -5.03,-3.45 -5.54,0.98 -5.43,-7.06l6.53 -0.3 0.21 -6.5 6.67 -0.2 0.27 -18.97 13.16 -0.38 0.22 -6.5 6.48 -0.32 0.41 -19.87 6.47 -0.26 0.24 -6.54 6.45 -0.32c0.46,-26.96 -0.32,-16.52 6.11,-20.07l0.06 -11.42 6.79 -1.73 -0.03 -8.92 6.4 -0.24 0.35 -9.47 6.37 -0.26 0.25 -6.62c6.39,-0.41 5.39,3.22 6.31,-13.66l-0.56 -12.58 -6.17 -0.22 -0.47 -6.58 -9.93 -0.46c-2.08,-3.35 -0.4,-1.91 -1.81,-4.92 -2.4,4.76 2.53,4.29 -4.86,4.66 -1.46,-2.62 -0.95,-3.45 -1.07,-6.91 -3.33,-0.56 2,1.71 -1.79,1.09l-0.12 -6.58 -5.51 -0.27 -0.21 -6.53 -6.39 -0.39 -0.23 7.45 -5.8 0.16 -0.8 29.8 -6.02 0.27 -0.51 15.08 -12.99 0.4 -0.56 6.43c-10.82,1.63 -3.41,3.39 -12.91,3.34l-0.47 4.68 -5.31 0.32 -0.94 11.78 -5.85 0.1c-2.15,4.43 1.67,1.67 -2.96,3.87 -9.63,0.02 1.35,2.49 -10.51,3 -4.19,0.17 -8.71,0.11 -12.97,0.17l-0.56 18.9 -6.37 0.2 -0.34 6.59 -6.41 0.14 -0.58 5.04c-0.97,3.84 -1.03,-0.43 -0.3,2.9 0,0.08 0.68,1.2 0.91,3.77l-6.95 1.72 -0.27 6.61 -12.14 0.27 -0.33 6.61 -7.45 0.13 0 6.62 -19.18 0.24 -0.16 12.15 -13.4 1.29c-0.16,6.02 2.86,5.61 -12.65,5.8l0 6.61 -20.21 0.15 -0.37 6.61 -18.01 0.16 0 4.87 7.53 0.29 -0.23 7.08 -8.47 0.18 -0.04 6.55 -33.75 0.15 0 6.82 -184.99 -0.32 -0.03 -6.49 -32.78 -0.13 -0.16 -6.64 -11.5 -0.08 0.18 -7.32 13.09 -0.19 -0.03 -4.74 -21.03 -0.41 -0.16 -6.38 -19.18 -0.36 -0.15 -6.42 -21.02 -0.22 -0.16 -6.58 -12.3 -0.23 -0.23 -12.29 -13.41 -0.4 -0.14 -6.39 -5.7 -0.32 -0.2 -6.4 -38.83 -0.7 -0.28 -13.39 -6.5 -0.21 -0.22 -19.02 -7.63 -0.23c-0.1,-13.52 0.28,-9.21 -4.19,-11.1 -9.07,-3.87 -3.61,-1.93 -14.88,-2.59l-0.61 -8.05 -11.01 -0.63c-2.33,-0.8 -5.01,-7.35 -8.68,-0.22 -1.6,3.16 0.43,0.27 -0.4,1.7 -8.99,-0.05 -3.29,-2.43 -10.47,-2l-1.59 -12.34 -5.35 -0.43c-0.2,-6.19 -0.94,-11.49 -1.65,-17.67l-11.71 -0.4 -0.33 -19.49zm612.47 190.47l16.95 -3.74c0.69,-0.6 24.76,-10.12 28.7,-11.86 5.57,-2.99 23.85,-12.44 26.9,-16.51 7.25,-9.66 8.37,-19.73 23.52,-17.08 4.67,1.6 19.59,8.89 22.05,12.31 5.23,0.26 11.48,3.96 19.22,4.24 9.36,0.36 12.34,-0.03 21.14,3.47 11.24,4.49 20.42,12.51 23.24,24.66l-0.08 2.51c2.6,4.06 -0.83,4.07 2.14,8.49 2.35,3.5 0.89,-0.89 2.38,3.24 0.35,0.99 0.2,2.16 0.84,4.14 3.1,1 4.39,0.47 5.64,3.91 1,2.76 0.54,28.27 0.51,28.43 -1.34,3.23 -0.48,0.12 -2.8,3.81 -2.69,4.23 0.66,2.16 -3.22,3.83l-1.23 -5.64c-4.7,4.19 -1.15,3.74 -6.51,7.2 -5.54,3.56 -5.23,2.22 -9.48,4.07 -11.22,4.92 -37.3,2.9 -50.08,3.97 -11.72,0.97 -16.91,0.47 -20.17,5.77 -13.75,-0.19 -26.96,10.41 -42.56,10.73 -7.81,0.16 -13.76,4.83 -21.12,6.03 -6.72,1.13 -4.74,1.93 -8.72,4.7 -2.6,1.82 -5.41,1.52 -7.75,4.78 7.92,0.14 1.5,-0.38 11.06,-3.37 5.97,-1.88 6.38,-1.25 12.7,-1.19 -2.01,3.95 -22.47,8.64 -26.92,10.98 -5.8,3.02 2.52,-0.04 -7.7,4.8 -6.64,3.13 0.13,2.72 -8.44,3.98 -6.5,0.93 -7.2,2.77 -8.72,4.1 -15.55,13.6 -6.4,4.39 -15.35,9.72 -0.18,0.11 -0.38,0.28 -0.57,0.38l-3.13 1.71c-0.17,0.12 -0.43,0.28 -0.61,0.4 -19.66,14.03 -8.13,0.79 -25.75,11.88 -1.61,1.04 -0.46,0.23 -1.64,1.34 -0.21,0.18 -0.69,0.83 -0.89,1.02l-2.67 2.14c-3.61,3.31 -0.34,2.32 -3.66,4.98 -1.2,0.97 -5.59,2.29 -8.19,4.43 -5.19,4.29 -3.89,0.94 -8.35,4.21 -3.56,2.62 -2.31,4.48 -3.99,8.57 -4.69,0.45 -5.99,-0.87 -9.08,2.75l-0.11 4.68 -5.17 1.05c0.46,2.9 2.2,5.52 5.27,7.02l-3.43 0.83 0.62 2.3 4.02 1.42 3.48 -3.19c1.35,-0.98 -0.21,-0.43 1.99,-1.04 0.82,-0.23 2.97,-0.24 3.93,-0.29 1.67,4.22 -1.58,1.07 3.83,3.37 -2.06,2.12 -3.27,3.73 -3.59,7.18 5.38,0.04 2.07,-0.83 6.32,-2.45 0.76,1.45 2.39,0.49 -0.43,2.45l4.71 -0.36c1.45,4.15 1.02,2.45 -0.18,6.46l3.72 3.02 -3.72 2.81c3.21,1.55 2.69,-1.33 5.41,1.19 3.47,3.22 -0.28,2.22 2.37,6.44 3.25,5.23 2.21,-2.84 6.51,9.81 0.89,2.62 0.61,2.08 2.97,3.8 7.28,5.33 -4.71,-1.07 10.66,15.67l-1.75 4.14c3.7,2.54 5.6,2.94 9.62,6.07 3.15,2.44 5.47,5.23 8.46,8 5.21,4.81 10.22,11.48 14.91,16.96l0.99 -3.8c4.21,3.5 1.22,1.33 4.25,2.83 4.82,2.4 8.23,9.11 11.39,13.37 5.72,7.74 2.51,3.74 4.94,11.6 1.53,5.01 4.95,3.6 5.55,11.66l7.85 0.55c1.16,3.99 1.31,6.51 3.42,9.48 2.67,3.77 3.91,3.48 6.03,6.94 -0.55,0.4 -1.52,0.86 -2.6,1.26l-1.56 0.01 0.96 0.22c-2.03,0.71 -4.28,1.16 -5.03,0.62l4.12 0.08 3.64 -0.01 -2.73 -0.69c-2.03,0.71 -4.28,1.16 -5.03,0.62l4.12 0.08c26.21,5.64 31.63,22.5 32.62,40.72l0.02 0.23 0.03 0.93 0.01 0.24c0.21,5.85 0.05,11.79 0.04,17.51l1.15 91.23 0 0.88c-1.38,-1.84 -0.66,-2.89 -1.06,-6l-16.26 -0.45 -0.22 -6.42 -4.65 -0.31c-0.42,-6.87 -1.8,-5.82 -8.68,-5.88 0,-12.14 -0.58,-9.88 -1.04,-18.06 -1.43,-25.95 -2.09,-12.86 -6.08,-32.64 -3.13,-15.51 -6.87,-5.22 -9.1,-11.13 -1.09,-2.86 0.18,-11.25 -2.28,-17.17 -1.29,-3.14 -2.04,-3.06 -2.45,-6.33l-1.54 -8.07c-2.21,-10.95 -6.17,-8.87 -10.57,-18.42 -5.59,-12.16 -10.89,-3.68 -15.18,-7.97 -2.55,-3.18 0.62,-4.34 -3.02,-9.54 -1.1,-1.56 -2.04,-2.22 -3.03,-3.69 -12.64,-18.72 1.53,-5.19 -12.45,-20.42 -4.39,-4.78 -7.33,-9.88 -11.86,-14.22 -4.89,-4.66 -8.96,-9.16 -13.33,-13.71l-11.21 -7.82c-2.43,-1.28 -0.03,0.78 -3.72,-1.38 -2.1,-1.22 -5.7,-4.09 -7.91,-5.64 -4.74,-3.34 -3.63,-2.46 -4.98,-6.87 -1.76,-5.83 -3.71,-4.18 -4.6,-6.57 -1.68,-4.49 2.87,-1.13 -4.24,-6.52 -6.62,-5.04 -1.13,-9.59 -13.53,-11.76 4.79,-3.91 -2.94,-7.42 -4.48,-8.88 -2.92,-2.74 0.01,-1.19 -3.18,-3.71l3.75 -2.46c-1.11,-0.7 -6.46,-3.45 -7.84,-3.91 -5.07,3.83 -10.63,5.18 -13.48,-0.33 -3.47,1.92 -6.79,2.75 -10.75,2.88 -3.67,0.35 -6.62,0.98 -9.98,-0.7 3.63,-1.55 1.7,1.07 8.47,-2.49l15.18 -7.25 -9.66 -0.3c2.63,-1.01 6.13,-2.64 8.65,-3.5 8.97,-3.14 4.85,-1.83 8.48,-5 4.93,-4.32 1.85,1.03 9.98,-3.57 1.92,-1.09 7.64,-3.67 9.6,-4.13 0.46,-2.34 -0.28,1.43 -0.46,-2.18l11.29 -5.5 4.02 1.42 3.48 -3.19c1.35,-0.98 -0.21,-0.43 1.99,-1.04 0.82,-0.23 2.97,-0.24 3.93,-0.29 1.67,4.22 -1.58,1.07 3.83,3.37 -2.06,2.12 -3.27,3.73 -3.59,7.18 5.38,0.04 2.07,-0.83 6.32,-2.45 0.76,1.45 2.39,0.49 -0.43,2.45l4.71 -0.36c1.45,4.15 1.02,2.45 -0.18,6.46l3.72 3.02 -3.72 2.81c3.21,1.55 2.69,-1.33 5.41,1.19 3.47,3.22 -0.28,2.22 2.37,6.44 3.25,5.23 2.21,-2.84 6.51,9.81 0.89,2.62 0.61,2.08 2.97,3.8 7.28,5.33 -4.71,-1.07 10.66,15.67l-1.75 4.14c3.7,2.54 5.6,2.94 9.62,6.07 3.15,2.44 5.47,5.23 8.46,8 5.21,4.81 10.22,11.48 14.91,16.96l0.99 -3.8c4.21,3.5 1.22,1.33 4.25,2.83 4.82,2.4 8.23,9.11 11.39,13.37 5.72,7.74 2.51,3.74 4.94,11.6 1.53,5.01 4.95,3.6 5.55,11.66l7.85 0.55c1.16,3.99 1.31,6.51 3.42,9.48 2.67,3.77 3.91,3.48 6.03,6.94 -0.55,0.4 -1.52,0.86 -2.6,1.26l79.42 -0.27c14.07,0.7 31.89,9.38 40.8,20 1.81,2.16 7.75,11.24 8.46,11.86l0.32 1.1c2.24,1.6 1.2,4.46 1.6,-10.82l6.35 -0.3 0.3 -11.27c2.52,-5.91 3.67,1.34 5.73,-3.86l0.22 -10.56 7.15 -0.55 0.14 -6.52 5.63 -0.32 0.1 -6.57 6.49 -0.44 0.67 -45.63 12.03 -0.62 1.4 -50.65c4.16,-2.7 2.15,0.24 5.66,-1.84l0.87 -20.25 5.74 -0.64 0.05 -122.9c-3.34,-1.95 -1.39,0.99 -5.79,-1.82l-1.5 -79.35c-0.01,-6.26 1.4,-4.68 -4.05,-4.96 0.1,2.46 -0.03,4.66 -1.84,6.54l-0.81 -13.39 -5.17 1 -0.67 -20.2 -12.75 -0.49 -0.27 -6.75 -6.33 -0.2c-0.64,-23.23 0.77,-18.61 -5.96,-19.36l-0.33 -7.4 -6.3 -0.27 -0.4 -12.35 -6.33 -0.21 -0.56 -19.97 -6.3 -0.18 -0.34 -5.74 -6.37 -0.16 -0.37 -6.59 -12.88 -0.52 -0.26 -6.55 -6.4 -0.29 -0.19 -6.55 -5.67 -0.27 -0.19 -6.45 -6.61 -0.3 -0.34 -18.9 -14.22 -0.24 -0.57 -13.55c-0.92,16.88 0.08,13.25 -6.31,13.66l-0.25 6.62 -6.37 0.26 -0.35 9.47 -6.4 0.24 0.03 8.92 -6.79 1.73 -0.06 11.42c-6.43,3.55 -5.65,-6.89 -6.11,20.07l-6.45 0.32 -0.24 6.54 -6.47 0.26 -0.41 19.87 -6.48 0.32 -0.22 6.5 -13.16 0.38 -0.27 18.97 -6.67 0.2 -0.21 6.5 -6.53 0.3c-0.11,8.04 0.4,3.61 5.43,7.06 -3.2,6.58 -5.45,17.65 -11.05,9.18 -1.67,7.26 -5.07,6.59 -5.07,14.51 2.36,5.61 3.56,-1.47 5.75,3.86 0.06,2.87 -5.38,4.1 -7.81,4.6 -4.18,0.84 -5.3,0.46 -6.74,5.24zm-612.47 -190.47l0.33 19.49 11.71 0.4c0.71,6.18 1.45,11.48 1.65,17.67l5.35 0.43 1.59 12.34c7.18,-0.43 1.48,1.95 10.47,2 0.83,-1.43 -1.2,1.46 0.4,-1.7 3.67,-7.13 6.35,-0.58 8.68,0.22l11.01 0.63 0.61 8.05c11.27,0.66 5.81,-1.28 14.88,2.59 4.47,1.89 4.09,-2.42 4.19,11.1l7.63 0.23 0.22 19.02 6.5 0.21 0.28 13.39 38.83 0.7 0.2 6.4 5.7 0.32 0.14 6.39 13.41 0.4 0.23 12.29 12.3 0.23 0.16 6.58 21.02 0.22 0.15 6.42 19.18 0.36 0.16 6.38 21.03 0.41 0.03 4.74 -13.09 0.19 -0.18 7.32 11.5 0.08 0.16 6.64 32.78 0.13 0.03 6.49 184.99 0.32 0 -6.82 33.75 -0.15 0.04 -6.55 8.47 -0.18 0.23 -7.08 -7.53 -0.29 0 -4.87 18.01 -0.16 0.37 -6.61 20.21 -0.15 0 -6.61c15.51,-0.19 12.49,0.22 12.65,-5.8l13.4 -1.29 0.16 -12.15 19.18 -0.24 0 -6.62 7.45 -0.13 0.33 -6.61 12.14 -0.27 0.27 -6.61 6.95 -1.72c-0.23,-2.57 -0.91,-3.69 -0.91,-3.77 -0.73,-3.33 -0.67,0.94 0.3,-2.9l0.58 -5.04 6.41 -0.14 0.34 -6.59 6.37 -0.2 0.56 -18.9c4.26,-0.06 8.78,0 12.97,-0.17 11.86,-0.51 0.88,-2.98 10.51,-3 4.63,-2.2 0.81,0.56 2.96,-3.87l5.85 -0.1 0.94 -11.78 5.31 -0.32 0.47 -4.68c9.5,0.05 2.09,-1.71 12.91,-3.34l0.56 -6.43 12.99 -0.4 0.51 -15.08 6.02 -0.27 0.8 -29.8 5.8 -0.16 0.23 -7.45 -0.3 -19.1 -5.97 0.52c-2.04,-3.25 -1.26,-2.4 -1.34,-6.66l-12.24 -0.58 -0.27 -6.35 -7.48 -0.4 -0.31 -6.23 -6.56 -0.46 -0.22 -5.27 -6.4 -0.72 -0.44 -5.97 -11.94 -0.36 0.43 6.01 6.53 0.34 0.22 6.49 5.64 0.25 0.06 5.68 6.54 0.24 0.12 6.62 6.5 0.22 -0.07 6.89 0.05 50.54c-8.62,0.23 -6.53,0.34 -6.9,4.94l-6.26 0.26 -0.41 9.66c-2.25,1.27 -2.49,0.71 -5.54,0.98 -0.41,3.72 -0.43,4.89 -2.05,7.47 -10.3,0 1.4,-2.68 -10.58,-2.65l-1.21 8.56 -6.1 1.36 -1.02 5.73c-4.11,1.13 -3.12,-0.45 -6.81,1.95 -3.31,2.16 -0.53,2.2 -5.99,2.47 -5.67,0.27 -12.05,-0.27 -17.65,0.03 -5.2,5.33 -0.07,3.6 -9.15,6.15 -22.11,6.18 -19.73,4.39 -43.83,4.46l-318.73 0.07c-21.19,0 -42.65,-0.45 -63.79,-0.2l-18.97 -4c-4.44,-2.22 0.03,-2.22 -3.66,-4.87 -3.13,-2.24 -25.55,-1.72 -30.93,-1.93l-0.5 -10.06 -6.5 -0.23 -0.49 -7.3c-6.64,-0.4 -4.39,-1.11 -8.62,-2 -2.69,-0.58 -8.05,-0.38 -11.03,-0.54l-0.4 -8.47c-0.42,-0.27 -5.96,-1.82 -6.06,-1.83l-6.16 0.68 -1.34 -12.31 -5.55 -0.5 -0.21 -21.78c3.38,-2 2.44,0.09 5.82,-1.78l-0.12 -12.57 6.42 -0.47 0.13 -12.53 6.71 0.14 0.36 -20.27 6.37 -0.16 0.24 -5.73 5.55 -0.14 0.34 -5.68 -11.48 0.27 -0.53 6.5 -6.33 0.26 -0.4 5.62 -6.34 0.2 -0.49 6.38 -5.45 0.31 -0.47 6.41 -6.37 0.24 -0.39 6.5 -6.32 0.27 -0.53 6.4 -6.25 0.34 -0.4 12.07 -12.1 0.65 -1.09 27.93c-2.09,-4.02 -0.12,-2.41 -5.78,-2.74zm159.17 503.44c-1.12,2 -2.87,3.79 -3.88,5.06 -1.31,1.63 -2.37,3.48 -3.52,5.11 -4.24,0.38 -2.41,-1.58 -5.88,1 -2.98,2.24 0.76,2.73 -5.01,2.62 4.29,0.05 7.61,1.09 10.33,3.39 -2.77,4.93 -7.04,9.36 -10.96,12.49 -7.22,5.78 -19.68,32.71 -22.21,34.8 -4.6,3.82 -2.34,0 -4.11,6.45 -7.49,2.17 -6.28,3.08 -8.86,10.38 -1.66,4.7 2.52,-2.49 -2,13.4 -0.38,1.3 -1.93,6.26 -2.47,7.24 -1.88,3.33 -7.65,5.01 -7.24,21.63 -3.2,1.98 -1.58,0.95 -5.66,1.29 -0.32,5.34 -0.96,8.94 -2.2,14.01 -1.79,7.44 -4.09,4.23 -4.63,11.6l-1.42 30.59 -0.08 -0.31 -32.84 -69.52c2.54,-2.99 2.22,-4.9 1.6,-8.48 6.63,-5.74 5.46,-9.58 5.56,-17.96 7.23,-4.59 2.89,-6.78 8.66,-14.27 4.94,-6.43 2.7,-8.52 11.32,-21.52 2.55,-3.86 4.47,-9.27 5.56,-13.86 2.18,-9.27 3.56,-3.92 6.62,-11.7l16.27 -21.38c3.78,-4.71 0.71,-1.92 3.92,-3.98 5.67,-3.65 -1.26,-0.77 3.83,-3.74 5.42,0.58 5.04,2.71 11.39,2.02 5.23,1.67 2.15,-2.01 12.96,2.75l1.88 -2.85c17.79,1.3 9.31,1.28 23.07,3.74 -1.12,2 -2.87,3.79 -3.88,5.06 -1.31,1.63 -2.37,3.48 -3.52,5.11 -4.24,0.38 -2.41,-1.58 -5.88,1 -2.98,2.24 0.76,2.73 -5.01,2.62 4.29,0.05 7.61,1.09 10.33,3.39 -2.77,4.93 -7.04,9.36 -10.96,12.49 -7.22,5.78 -19.68,32.71 -22.21,34.8 -4.6,3.82 -2.34,0 -4.11,6.45 -7.49,2.17 -6.28,3.08 -8.86,10.38 -1.66,4.7 2.52,-2.49 -2,13.4 -0.38,1.3 -1.93,6.26 -2.47,7.24 -1.88,3.33 -7.65,5.01 -7.24,21.63 -3.2,1.98 -1.58,0.95 -5.66,1.29 -0.32,5.34 -0.96,8.94 -2.2,14.01 -1.79,7.44 -4.09,4.23 -4.63,11.6l-1.42 30.59c2.12,7.11 42.66,93.02 45.24,95.82 0.03,0.21 0.13,0.56 0.28,1.03 9.5,4.6 27.24,13.1 36.75,15.4l0.09 -0.27 -0.13 -0.65c1.54,-3.37 0.34,-81 -1.62,-133.25l-0.09 -2.52 -0.05 -0.92 -0.09 -2.44 -0.04 -0.92 -0.09 -2.36 -0.05 -0.92 -0.14 -3.18 -0.09 -2.15 -0.04 -0.92 -0.11 -2.05 -0.04 -0.92 -0.1 -1.94 -0.04 -0.92 -0.1 -1.8 -0.05 -0.93c-0.53,-9.31 -1.07,-16.18 -1.62,-19.25 -4.2,-23.8 -23.63,-26.98 -30.92,-31.17l1.77 0c-0.66,-0.31 -1.26,-0.61 -1.79,-0.92l72.92 0.03c2.5,-4.16 2.14,-1.81 6.42,-9.1 3.91,-6.68 3.87,1.76 9.54,-5.88 5.24,-7.04 4.96,-0.74 9.66,-5.8 4.29,-4.65 8.96,-10.88 14.78,-15.18 6.66,-4.96 3,-3.64 5.79,-8.66 0.89,-1.59 6.62,-5.72 8.35,-7.11 6.66,-5.34 2.57,-2.96 6.34,-8.08 6.43,-0.14 5.52,0.8 10.92,-2.66 5.34,-3.42 4.32,-1.7 10.21,-2.3 5.84,-0.63 10.17,-5.37 19.35,-5.81 15.42,-0.72 7.34,-0.66 22.6,-3.55 17.81,-3.39 54.76,-4.92 71.16,-1.35 5.1,1.13 4.81,1.91 9.32,0.75 3.69,-0.95 5.66,0.09 9.58,1.62 6.24,2.41 14.21,2.51 18.47,6.18 -5.52,0.47 -7.95,0.35 -10.23,0.3 28.91,1.71 69.08,-4.15 94.48,2.8 24.88,6.81 30.98,21.68 31.76,40.2l0.03 0.38 0.03 0.92 0.01 0.39c0.3,9.02 -0.59,18.89 -1.18,29.12 -1.51,26.35 -10.66,134.69 -9.31,179.14l0.05 1.49 0.01 0.13c0.29,6.94 0.88,12.05 1.86,14.67l-0.06 0.64 0.09 0.27c13.71,-2.86 58.08,-28.36 71.31,-36.58 10.99,-6.83 21.6,-14.21 32.17,-21.93 9.85,-7.2 21.5,-18.19 30.92,-24.23l0.16 -0.47 -0.19 -0.46c1.34,-3.82 1.33,-8.73 1.18,-13.39l0 -0.03 0 -0.29 0 -0.02 -0.04 -0.93 0 -0.01 -0.01 -0.3 0 -0.01 -0.01 -0.3 0 -0.31 -0.01 -0.01 0 -0.29 -0.01 -0.01 0 -0.29 -0.01 -0.02 0 -0.28 -0.05 -2.03 -6.15 -0.13 -0.41 6.4c-6.06,0.77 -28.81,1.01 -34.22,-0.66 -1.56,-3.94 -0.5,-1.94 -0.83,-5.69l-3.95 -0.91c-1.86,-5.22 0.63,-2.9 -1.91,-5.92 -2.76,-3.27 -0.99,1.87 -2.99,-5.15 -2.25,-7.82 -4.16,-33.08 -3.3,-40.36l-3.96 -2.3c-1.3,-8.4 -2.28,-10.15 -2.17,-16.4 -5.85,-5.87 -4.32,-3.86 -7.7,-11.5 -1.74,-3.91 -4.96,-7.57 -5.5,-11.97 -4.17,2.9 -5.35,1.56 -7.23,-2.27 -2.34,-4.82 -2.86,-3.35 -4.65,-6.92 -1.31,-2.59 -6.66,-14.64 -7.13,-16.93 -2.62,0.66 -0.31,1.22 -4.38,0.86 -2.76,-5.04 -5.09,-10.48 -8.04,-15.56 -5.52,-9.51 -8.13,-8.68 -11.08,-12.02 -4.79,-5.4 -3.77,-7.87 -10.84,-12.24 -4.29,-2.65 -8.83,-7.78 -6.03,-12.96 -1.14,-0.59 -8.85,-9.34 -10.47,-11.21l-41.79 -31.52c-3.22,-2.69 -1.47,-3.23 -5.41,-5.05 -3.13,-1.42 -4.19,-1.53 -7.12,-3.72 -5.24,-3.94 -0.99,-2.74 -3.71,-5.17 -4.72,-4.23 -20.62,-14 -26.57,-16.08 2.48,-1.96 -0.24,-1.29 4.7,-1.39 -4.34,-2.85 0.05,0.44 -1.61,-2.91 -7.57,0 -3.75,3.64 -9.65,-0.32 -4.39,-2.92 -4.28,-0.49 -11.05,-0.9 -19.03,-1.77 -13.17,2.13 -20.74,2.85 -7,0.68 -4.2,-1.41 -9.45,2.95 -2.58,2.13 -5.6,3.57 -9,3.76 -0.35,2.83 3.72,1.79 -9.71,5.56 -6.23,1.75 -6.84,5.5 -13.56,5.73 -0.4,2.6 -0.13,-1.09 0.11,1.16 0.4,3.85 1.3,-2.83 0.06,0.77 -5.35,1.29 -4.11,2.75 -10.61,2.93 -7.33,0.2 -4.46,0.02 -10.33,2.31l-41.47 10.69c-4.18,0.92 -19.31,2.38 -21.33,3.46l13.86 0.38c-10.25,4.35 -12.85,1.3 -17.56,3.04 -4.01,1.47 -0.72,2.17 -7.2,3.35l-3.21 0.71c-8.23,2.55 -4.93,-0.05 -9.69,2.91 -11.58,7.27 -15.43,3.43 -22.9,6.07 -8.06,2.85 -13.71,2.53 -20.91,5.16 -0.23,0.09 -0.47,0.19 -0.69,0.27 -0.24,0.08 -0.49,0.16 -0.73,0.24 -7.81,2.71 -11.24,2.22 -20.12,2.31 -15.14,0.13 -8.02,1.3 -13.6,2.72 -3.19,0.83 -18.39,0.35 -21.64,-2.7zm257.9 16.41c-2.17,0.17 -5.1,0.56 -9.78,1.37l4.29 0.05 5.01 -0.99 1.02 0.09 -0.54 -0.52zm-481.37 13.74c-2.45,0.4 -0.59,1.07 -1.51,-1.4l-0.18 -22.14 -5.99 -2c2.45,-4.67 3.06,-7.16 4.92,-11.9 2.58,-0.34 3.44,2.05 1.94,0.98l19.52 -39.18 -4.85 -3.79c1.02,-2.11 1.92,-3.48 3.16,-5.21 3.65,0.28 3.46,0.57 6.67,2.36 -0.05,-3.9 2.6,-1.39 7.04,-3.31 1.82,-0.78 1.21,-1.4 3.29,-1.99 3.11,1.83 10.09,5.34 14.14,5.57 30.76,1.69 29.19,-3.77 37.32,-5.24 6.87,-1.23 8.96,1.33 12.85,-0.32 1.66,-0.69 2.67,-4.34 10.7,-0.99 5.67,2.38 10.77,3.27 15.35,9.23 1.53,1.99 -1.55,-0.45 1.54,1.9 2,1.5 0.04,0.33 1.93,0.71l5.22 0.49c7.67,1.25 2.1,5.05 10.82,5.61 -0.66,-4.36 -3.46,-6.63 -6.58,-9.14 -5.06,-4.09 -1.81,-4.3 -3.53,-10 -2.1,2.96 -0.87,1.44 -3.56,1.71 -2.39,-5.65 -7.8,-7.09 -14.14,-10.92 -4.28,-2.6 -2.68,-3.54 -8.53,-2.78 -16.44,2.16 -41.71,5.8 -55.72,3.78 -4.27,-0.63 -13.2,-5.38 -18.12,-7.25 -3.08,-1.17 -6.78,-4.53 -7.21,-4.65 -1.58,-0.47 -0.61,0.66 -3.99,-0.65 -3.64,-1.42 -9.16,-5.37 -10.41,-8.72 -2.26,-6.08 0.29,-1.98 -5.2,-5.9 -2.6,-1.87 -4.17,-4.6 -6.07,-6.61 -3.09,-3.26 -4.48,-2.01 -4.42,-7.68 -8.83,-2.46 -1.17,-0.6 -5.66,-5.36 -2.96,-3.13 -3.23,-2.44 -6.06,-6.73l-9.69 -15.81c0.45,-7.86 -1.07,-22.97 0.95,-29.63 1.57,-5.16 6.21,-16.95 11.15,-18.85 0.71,-4.83 0.88,-7.34 2.54,-12.12 1.26,-3.59 3.68,-7.39 4.06,-10.96 -4.48,-4.99 -1.87,-7.32 -9.55,-13.06 -3.9,-2.94 0.4,2.44 -3.24,-1.95 -1.85,-4.51 -0.05,-6.24 -2.38,-11.32 -1.72,-3.7 -2.78,-6.44 -3.46,-10.35 -2.05,-11.38 -5.45,-23.31 -1.01,-35.38 3.39,-9.21 -1.77,-0.33 -1.27,-8.03 0.41,-6.7 10.46,-9.38 11.15,-14.51 -0.06,-11.2 -4.48,-13.45 3.79,-24.61 13.66,-14.35 29.35,13.76 36.71,22.11 10.41,11.83 20.35,23.66 28.92,36.8 8.93,13.72 27.57,21.78 31.29,34.4 4.57,15.39 19.68,25.79 34.39,31.04 -0.28,-7.65 -0.15,-6.01 -2.39,-12.24l-3.93 -10.49c-0.89,-1.89 -1.3,-0.13 -3.44,-4.28 -0.66,-1.3 -0.89,-2.57 -1.04,-2.89 -2.79,-6.02 -4.59,-2.06 -5.89,-10.89 -0.87,-5.69 -2.42,-5.36 -3.51,-10.85 -1.72,-8.7 -1.51,-2.52 -3.11,-11.3 -0.93,-5.07 -0.77,-0.31 -1.65,-5.98 -0.89,-5.89 0.88,-15.54 0.62,-19.55 0.23,-0.06 0.61,-0.06 0.73,-0.08 3.99,-0.22 1.27,0.79 2.07,0.13 0.3,-4.1 1.82,-6.83 3.5,-9.62l0.75 -1.16c3.25,-5.74 0.03,-2.26 4.15,-5.9 2.82,-2.52 1.75,-0.41 2.44,-3.73 -0.68,-7.79 -4.42,-11.54 -2.92,-20.71 0.92,-5.65 3.48,-14.06 10.01,-14.22 2.44,-2.45 6.62,-1.76 10.28,-1.34 -2.22,-1.9 -4.06,-1.52 -4.15,-1.53 -4.79,-0.92 -5.03,1.45 -5.78,-7.46l-6.43 -0.24 -0.1 -12.72 -5.06 -1.34c0.11,-3.91 -0.82,-7.12 -1.07,-11.62l-6.63 -0.18 -0.23 -13.25 -6.53 -0.22 -0.13 -6.66 -6.6 -0.17 -0.04 -12.47c-3.29,-1.8 -2.52,0.15 -5.75,-1.79l-0.32 -18.29 -13.01 -0.33 -0.37 -13.35 -6.44 -0.25 -0.5 -46.36 0.48 -5.65 -4.87 0.01c-0.42,1.22 -0.06,1.9 -0.42,3.02l-1.17 2.53c-0.08,-0.16 -0.3,0.6 -0.93,0.87l-0.3 -6.48 -4.22 -0.02 -0.79 13.01c-3.45,-4.03 0.47,-2.2 -2.96,-3.86l-3.83 4.31c-2.28,-3.36 -1.45,-2.22 -1.56,-6.99l-5.62 0.21 0.11 5.27c-2.91,1.63 -0.72,1.13 -5.08,1.19l-0.27 6.67 -6.46 0.17 -0.16 12.22c-2.78,1.49 -2.22,0.86 -5.96,1.03l-0.27 6.57 -6.38 0.24 -0.4 12.31 -6.47 0.13 -0.2 6.68 -6.45 0.26 -0.22 6.61 -5.53 0.14 -0.27 6.67 -6.37 0.11 -0.51 19.08 -6.35 0.19 -0.39 12.42 -6.35 0.24 -0.29 6.69 -6.4 0.11 -0.29 7.68 -6.29 0.16 -0.67 25.6 -12.69 0.62 -0.57 38.09c-3.48,2.1 -2.57,0 -5.72,1.77l-0.32 18.52 -6.24 0.23c-0.23,9.68 -0.52,17.57 -1.26,26.83 -7.87,0.58 -5.33,-4.44 -5.91,38.88l-6.32 0.17 0.28 117.62 6.35 0.38c0.37,32.09 -1.3,26.45 5.65,27.07 0.82,8.81 1.36,15.98 1.23,25.72l5.53 0.36 1.14 13.38c3.94,0.11 2.94,-0.56 5.57,1.17l0.45 24.79 6.36 0.29 0.38 19.96 11.97 0.53 1.34 25.8 6.46 0.28 0.41 13.18 6.33 0.33 0.34 12.3 6.34 0.35 0.23 6.47c3.4,0.21 2.61,-0.21 4.87,0.85 -2.57,5.79 -8.75,22.31 -11.67,24.61l-0.1 0.64c-12.36,-23.17 -24.23,-42.37 -34.6,-67.61 -7.02,-17.04 -23.93,-60.54 -25.14,-77.12l-2.19 -7.06c-3.95,-24.17 -8.41,-44.64 -10.57,-69.5 -6.3,-71.87 2.87,-140.5 25.56,-208.84 12.35,-37.16 30.97,-74.5 51.91,-107.52 11.87,-18.73 54.61,-77 71.45,-87.48 3.89,1.2 -0.3,0.76 2.61,5.24l5.91 0.13 -0.08 5.98 5.89 0.19c1.15,12.87 -1.45,5.91 -4.56,12.15 -2.2,4.41 -1.53,9.87 -2.03,15.2l-4.87 0.01c-0.42,1.22 -0.06,1.9 -0.42,3.02l-1.17 2.53c-0.08,-0.16 -0.3,0.6 -0.93,0.87l-0.3 -6.48 -4.22 -0.02 -0.79 13.01c-3.45,-4.03 0.47,-2.2 -2.96,-3.86l-3.83 4.31c-2.28,-3.36 -1.45,-2.22 -1.56,-6.99l-5.62 0.21 0.11 5.27c-2.91,1.63 -0.72,1.13 -5.08,1.19l-0.27 6.67 -6.46 0.17 -0.16 12.22c-2.78,1.49 -2.22,0.86 -5.96,1.03l-0.27 6.57 -6.38 0.24 -0.4 12.31 -6.47 0.13 -0.2 6.68 -6.45 0.26 -0.22 6.61 -5.53 0.14 -0.27 6.67 -6.37 0.11 -0.51 19.08 -6.35 0.19 -0.39 12.42 -6.35 0.24 -0.29 6.69 -6.4 0.11 -0.29 7.68 -6.29 0.16 -0.67 25.6 -12.69 0.62 -0.57 38.09c-3.48,2.1 -2.57,0 -5.72,1.77l-0.32 18.52 -6.24 0.23c-0.23,9.68 -0.52,17.57 -1.26,26.83 -7.87,0.58 -5.33,-4.44 -5.91,38.88l-6.32 0.17 0.28 117.62 6.35 0.38c0.37,32.09 -1.3,26.45 5.65,27.07 0.82,8.81 1.36,15.98 1.23,25.72l5.53 0.36 1.14 13.38c3.94,0.11 2.94,-0.56 5.57,1.17l0.45 24.79 6.36 0.29 0.38 19.96 11.97 0.53 1.34 25.8 6.46 0.28 0.41 13.18 6.33 0.33 0.34 12.3 6.34 0.35 0.23 6.47c3.4,0.21 2.61,-0.21 4.87,0.85l0.34 -0.74c3.46,-12.13 9.71,-18.34 15.01,-27.52zm341.08 -659.11c1.04,-4.71 -1.69,-3.65 2.44,-6.1l127.83 0.26c2.33,3.43 0.48,2.28 1.93,5.54l38.15 0.99 1.44 5.38 44.52 1.9 0.81 5.63 6.53 0.44 0.99 17.92 6.07 0.75c1.64,4.6 0.46,2.86 0.72,6.9l25.55 0.86 0.08 6.37 6.69 0.35 0.09 6.4 5.72 0.32 0.11 6.48 6.58 0.33 0.06 5.66 7.58 0.33 -0.44 32.74c-14.22,0.16 -2.63,2.54 -9.42,3.97l-23.74 0.32c0.41,4.87 1.6,0.16 6.69,3.29l-0.22 5.27 -361.78 0.02 -1.6 -4.73 -39.38 -0.51 9.62 -2.81c4.3,-0.42 6.36,2.48 10.31,0.02 -3.05,-1.68 -9.23,-0.66 -13.35,-0.99l-0.32 -10.35c-8.18,-0.06 -6.27,-0.32 -6.65,-4.78 -3.74,-0.21 -2.97,0.52 -5.57,-1.14l-0.21 -6.05c2.84,-1.63 2.07,-0.91 5.87,-1.13l0.13 -6.69 6.5 -0.18 0.16 -6.7 6.43 -0.14 0.32 -12.39 6.45 -0.24 0.24 -6.53 5.69 -0.14 0.23 -6.5 14.07 -0.41 0.23 -6.66 12.07 -0.21c-4.8,2.06 -5.36,-0.56 -5.83,-4.25 2.7,-3.42 1.3,-2.05 6.31,-2.39l0.53 -6.19 12.7 -0.24 0.83 -6.47 31.45 -0.62c1.3,-3.21 -0.62,-1.74 1.86,-5.84l30.88 -1.02c1.18,-3.47 -0.85,-1.57 1.91,-5.85l13.14 -0.19zm-198.17 73.1l-0.12 33.04 6.36 0.25 0.47 11.32c0.74,0.06 3.58,0.16 3.76,0.21 5.5,1.29 -0.01,2.81 8.36,3.17l0.33 6.36 4.92 0.33c5.41,2.13 -3.35,3.74 6.71,3.74 3.54,-1.39 2.54,-0.78 2.57,-6.18 11.44,0.24 -0.48,3.05 12.05,2.99l0.41 8.03 25.26 0.65c1.36,2.94 -0.49,1.58 2.07,5.33l401.04 0.2 0.82 -10.43c2.61,0.06 7.34,0.26 9.83,-0.03 6.4,-0.71 0.46,-1.17 9.89,-2.36l0.56 -4.49c8.24,0.05 3.31,1.58 8.72,2.52 0.98,0.18 3.14,0.05 4.2,0.05l0.75 -23.58 5.08 0.15c0.17,-0.25 0.31,-1.07 0.4,-0.9l0.76 -1.63c3.13,-4.67 0.13,0.83 5.99,-3.08l0.05 -17.93c-3.12,-2.06 -0.96,-1.49 -5.82,-1.41l0.1 -6.53 -6.69 -0.5 -0.25 -17.94 6.04 -0.31 0.04 -4.97c-2.68,-2.03 -3.22,-0.79 -5.17,-2.41 -3.24,-2.63 -0.48,-2.47 -2.9,-4.81 -2.41,-2.31 -2.32,0.32 -5,-2.9 -1.63,-1.99 -0.36,-2.51 -2.29,-5.16 -3.27,-0.17 -6.23,0.98 -8.7,-0.19 -3.21,-1.52 -0.91,-2.28 -2.87,-4.82 -2.33,-3 -2.62,-0.1 -5.51,-3.41 -1.93,-2.2 -0.08,-2.16 -2.38,-4.7 -17.05,-0.77 -15.83,2.04 -18.51,-4.18 -2.32,-5.42 -12.79,-2.78 -18.14,-3.26 -2.23,-2.6 -0.83,-2.58 -2.6,-4.64 -1.85,-2.13 -2.55,-1.26 -4.6,-3.53 -2.02,-2.26 -0.76,-3.18 -3.41,-3.82 -3.18,-0.76 -4.14,1.01 -7.94,-0.04 -6.81,-1.89 0.98,-6.5 -8.18,-6.39 -5.14,0.05 -9.6,-0.21 -14.72,-0.38 -5.97,-0.23 -10.41,1.96 -12.84,-3.24 -2.5,-5.34 -3.33,-2.89 -10.4,-3.09 -9.93,-0.26 -19.94,-0.74 -29.88,-1 -6.23,-0.17 -9.6,2.08 -12.61,-2.7 -3.07,-4.93 -5.54,-2.74 -11.67,-2.76 -9.44,-0.04 -19.11,-1.01 -28.88,-0.97 -19.95,0.06 -39.93,-0.16 -59.89,0.02 -10.35,0.09 -20.75,0.47 -31.07,0.25 -10.77,-0.24 -3.46,3.69 -8.68,5.91 -2.77,1.18 -40.35,-0.94 -43.14,1.85 -4.91,4.91 6.56,5.46 -24.33,5.84 -11.71,0.18 -5.77,-1.34 -10.04,4.63 -3.69,5.2 -7.84,-1.47 -12.07,2.82 -4.78,4.86 1.42,5.01 -10.69,4.92 -6.92,-0.03 -8.19,-1.9 -10.54,3.55 -3.4,7.85 -7.52,-0.34 -11.68,4.1 -3.5,3.7 2.6,5.76 -8.54,5.84 -5.48,0.05 -10.37,-1.63 -12.23,2.92 -2.83,6.97 -4.07,3.61 -11.13,3.88 -2.1,2.84 -0.38,3.29 -2.82,5.47 -3.19,2.8 -3.07,-0.47 -5.25,3.44 -1.78,3.18 0.72,4.05 -4.21,4.93 -2.34,0.43 -5.02,-0.37 -7.91,-0.2 -2.6,3.87 0.38,2.91 -4.05,6.28 -5.57,4.25 -1.57,2.63 -4.78,5.77 -3.32,3.28 -1.56,-0.84 -5.85,4.78 -3.47,4.54 -2.69,1.25 -6.4,4.11l-0.16 11.22zm0 0l-7.95 0.32 -0.26 6.35 -12.54 0.12 -6.71 -0.14 -0.13 12.53 -6.42 0.47 0.12 12.57c-3.38,1.87 -2.44,-0.22 -5.82,1.78l0.21 21.78 5.55 0.5 1.34 12.31 6.16 -0.68c0.1,0.01 5.64,1.56 6.06,1.83l0.4 8.47c2.98,0.16 8.34,-0.04 11.03,0.54 4.23,0.89 1.98,1.6 8.62,2l0.49 7.3 6.5 0.23 0.5 10.06c5.38,0.21 27.8,-0.31 30.93,1.93 3.69,2.65 -0.78,2.65 3.66,4.87l18.97 4c21.14,-0.25 42.6,0.2 63.79,0.2l318.73 -0.07c24.1,-0.07 21.72,1.72 43.83,-4.46 9.08,-2.55 3.95,-0.82 9.15,-6.15 5.6,-0.3 11.98,0.24 17.65,-0.03 5.46,-0.27 2.68,-0.31 5.99,-2.47 3.69,-2.4 2.7,-0.82 6.81,-1.95l1.02 -5.73 6.1 -1.36 1.21 -8.56c11.98,-0.03 0.28,2.65 10.58,2.65 1.62,-2.58 1.64,-3.75 2.05,-7.47 3.05,-0.27 3.29,0.29 5.54,-0.98l0.41 -9.66 6.26 -0.26c0.37,-4.6 -1.72,-4.71 6.9,-4.94l-0.05 -50.54 -18.95 -0.61 -0.29 -6.39 -6.48 -0.36 -0.33 -6.34 -6.5 -0.37 -0.32 -5.4 -6.52 -0.39 -0.15 -6.34 -12.52 -0.12 -6.04 0.31 0.25 17.94 6.69 0.5 -0.1 6.53c4.86,-0.08 2.7,-0.65 5.82,1.41l-0.05 17.93c-5.86,3.91 -2.86,-1.59 -5.99,3.08l-0.76 1.63c-0.09,-0.17 -0.23,0.65 -0.4,0.9l-5.08 -0.15 -0.75 23.58c-1.06,0 -3.22,0.13 -4.2,-0.05 -5.41,-0.94 -0.48,-2.47 -8.72,-2.52l-0.56 4.49c-9.43,1.19 -3.49,1.65 -9.89,2.36 -2.49,0.29 -7.22,0.09 -9.83,0.03l-0.82 10.43 -401.04 -0.2c-2.56,-3.75 -0.71,-2.39 -2.07,-5.33l-25.26 -0.65 -0.41 -8.03c-12.53,0.06 -0.61,-2.75 -12.05,-2.99 -0.03,5.4 0.97,4.79 -2.57,6.18 -10.06,0 -1.3,-1.61 -6.71,-3.74l-4.92 -0.33 -0.33 -6.36c-8.37,-0.36 -2.86,-1.88 -8.36,-3.17 -0.18,-0.05 -3.02,-0.15 -3.76,-0.21l-0.47 -11.32 -6.36 -0.25 0.12 -33.04zm211.07 -65.61c1.79,1.52 -0.09,0.3 2.36,1.24 6.4,2.46 8.73,-0.85 10.19,2.81 -1,2.29 -1.35,1.41 -5.31,1.41l-47.4 0.97 -0.11 6.1 -19.37 0.62 0.08 5.38 -13.48 1.1 -0.37 12.9 -25.42 0.83 -0.41 8.62 6.54 0.16 -0.11 16.52c-0.87,0.05 -2.73,0.03 -3.44,0.16 -2.31,0.44 -1.72,0.13 -3.33,1.28 0.24,0.19 0.58,0.37 0.82,0.46l5.86 1.08 0.32 11.02 0.2 6.93 -13.1 0.19c2.82,0.82 9.4,0.27 13.65,0.87 5.79,0.84 6.89,2.22 12.44,3.03l29.53 1.32c14.47,0 232.53,2.25 252.5,-3.4 11.11,-3.14 6.72,-0.48 14.61,-1.67l0.23 -7.14 -13.21 -0.23 0.56 -12.89 4.69 -0.69c0.21,-0.1 0.43,-0.29 0.64,-0.41l1.1 -0.93c2.76,-1.8 1.1,-1.05 6.43,-1.5l-0.1 -9.64 -6.65 -0.22 0.03 -6.38c-3.48,-0.29 -4.29,0.29 -6.77,-1.08 2.26,-5.65 4.41,1.5 6.51,-3.86 -1.24,-2.72 -5.03,-1.73 -12.35,-1.93 -4.17,-0.1 -9.94,0.35 -13.47,-1.01 5.6,-2.7 6.45,2.81 6.96,-4.76 -2.86,-1.9 -2.74,-1.05 -6.93,-1.27l-0.17 -6.29 -20.08 -0.66 -0.02 -6.11 -32.48 -0.86 -0.23 -6c-4.48,-0.36 -14.56,0.32 -18.14,-0.8 -4.72,-1.45 1.78,-2.53 -14.51,-2.53l-99.29 -2.74zm0 0l99.29 2.74c16.29,0 9.79,1.08 14.51,2.53 3.58,1.12 13.66,0.44 18.14,0.8l0.23 6 32.48 0.86 0.02 6.11 20.08 0.66 0.17 6.29c4.19,0.22 4.07,-0.63 6.93,1.27 -0.51,7.57 -1.36,2.06 -6.96,4.76 3.53,1.36 9.3,0.91 13.47,1.01 7.32,0.2 11.11,-0.79 12.35,1.93 -2.1,5.36 -4.25,-1.79 -6.51,3.86 2.48,1.37 3.29,0.79 6.77,1.08l-0.03 6.38 6.65 0.22 0.1 9.64c-5.33,0.45 -3.67,-0.3 -6.43,1.5l-1.1 0.93c-0.21,0.12 -0.43,0.31 -0.64,0.41l-4.69 0.69 -0.56 12.89 13.21 0.23 -0.23 7.14c-7.89,1.19 -3.5,-1.47 -14.61,1.67 -19.97,5.65 -238.03,3.4 -252.5,3.4l-29.53 -1.32c-5.55,-0.81 -6.65,-2.19 -12.44,-3.03 -4.25,-0.6 -10.83,-0.05 -13.65,-0.87l13.1 -0.19 -0.2 -6.93 -0.32 -11.02 -5.86 -1.08c-0.24,-0.09 -0.58,-0.27 -0.82,-0.46 1.61,-1.15 1.02,-0.84 3.33,-1.28 0.71,-0.13 2.57,-0.11 3.44,-0.16l0.11 -16.52 -6.54 -0.16 0.41 -8.62 25.42 -0.83 0.37 -12.9 13.48 -1.1 -0.08 -5.38 19.37 -0.62 0.11 -6.1 47.4 -0.97c3.96,0 4.31,0.88 5.31,-1.41 -1.46,-3.66 -3.79,-0.35 -10.19,-2.81 -2.45,-0.94 -0.57,0.28 -2.36,-1.24zm-12.9 -7.49l-13.14 0.19c-2.76,4.28 -0.73,2.38 -1.91,5.85l-30.88 1.02c-2.48,4.1 -0.56,2.63 -1.86,5.84l-31.45 0.62 -0.83 6.47 -12.7 0.24 -0.53 6.19c-5.01,0.34 -3.61,-1.03 -6.31,2.39 0.47,3.69 1.03,6.31 5.83,4.25l-12.07 0.21 -0.23 6.66 -14.07 0.41 -0.23 6.5 -5.69 0.14 -0.24 6.53 -6.45 0.24 -0.32 12.39 -6.43 0.14 -0.16 6.7 -6.5 0.18 -0.13 6.69c-3.8,0.22 -3.03,-0.5 -5.87,1.13l0.21 6.05c2.6,1.66 1.83,0.93 5.57,1.14 0.38,4.46 -1.53,4.72 6.65,4.78l0.32 10.35c4.12,0.33 10.3,-0.69 13.35,0.99 -3.95,2.46 -6.01,-0.44 -10.31,-0.02l-9.62 2.81 39.38 0.51 1.6 4.73 361.78 -0.02 0.22 -5.27c-5.09,-3.13 -6.28,1.58 -6.69,-3.29l23.74 -0.32c6.79,-1.43 -4.8,-3.81 9.42,-3.97l0.44 -32.74 -7.58 -0.33 -0.06 -5.66 -6.58 -0.33 -0.11 -6.48 -5.72 -0.32 -0.09 -6.4 -6.69 -0.35 -0.08 -6.37 -25.55 -0.86c-0.26,-4.04 0.92,-2.3 -0.72,-6.9l-6.07 -0.75 -0.99 -17.92 -6.53 -0.44 -0.81 -5.63 -44.52 -1.9 -1.44 -5.38 -38.15 -0.99c-1.45,-3.26 0.4,-2.11 -1.93,-5.54l-127.83 -0.26c-4.13,2.45 -1.4,1.39 -2.44,6.1zm395.71 80.2l0.3 19.1 6.39 0.39 0.21 6.53 5.51 0.27 0.12 6.58c3.79,0.62 -1.54,-1.65 1.79,-1.09 0.12,3.46 -0.39,4.29 1.07,6.91 7.39,-0.37 2.46,0.1 4.86,-4.66 1.41,3.01 -0.27,1.57 1.81,4.92l9.93 0.46 0.47 6.58 6.17 0.22 0.56 12.58 0.57 13.55 14.22 0.24 0.34 18.9 6.61 0.3 0.19 6.45 5.67 0.27 0.19 6.55 6.4 0.29 0.26 6.55 12.88 0.52 0.37 6.59 6.37 0.16 0.34 5.74 6.3 0.18 0.56 19.97 6.33 0.21 0.4 12.35 6.3 0.27 0.33 7.4c6.73,0.75 5.32,-3.87 5.96,19.36l6.33 0.2 0.27 6.75 12.75 0.49 0.67 20.2 5.17 -1 0.81 13.39c1.81,-1.88 1.94,-4.08 1.84,-6.54 5.45,0.28 4.04,-1.3 4.05,4.96l1.5 79.35c4.4,2.81 2.45,-0.13 5.79,1.82l-0.05 122.9 -5.74 0.64 -0.87 20.25c-3.51,2.08 -1.5,-0.86 -5.66,1.84l-1.4 50.65 -12.03 0.62 -0.67 45.63 -6.49 0.44 -0.1 6.57 -5.63 0.32 -0.14 6.52 -7.15 0.55 -0.22 10.56c-2.06,5.2 -3.21,-2.05 -5.73,3.86l-0.3 11.27 -6.35 0.3c-0.4,15.28 0.64,12.42 -1.6,10.82 1.39,4.73 3.03,9.3 3.38,14.36l0.04 1.06 0 0.02 0.01 0.1 0 0.18c0.15,3.24 -0.35,7.52 -0.25,11.3l0 0.01 0 0.31 0.01 0c0.14,2.22 0.53,4.2 1.45,5.6l-0.16 0.58 0.21 0.34c29.86,-54.5 49.18,-93.67 62.36,-156.07 25.92,-122.51 7.91,-249.32 -54.28,-358.53 -12.81,-22.51 -27.62,-45.07 -43.93,-65.19 -10.19,-12.58 -40.72,-49.22 -52.95,-56.52l-2.16 0.43 0.88 10.91 5.67 0.77 -0.21 4.38 -5.76 -0.18 0.01 -5.32c-2.88,-1.63 -0.79,-1.02 -4.9,-1.26 -0.23,-4.55 0.67,-2.84 -1.47,-5.76l-6.78 0.48zm-381.95 631.73c2.44,-2.47 1.67,1.14 6.18,-6.02 14.77,0.21 5.87,-4.48 19.31,-5.93 4.92,-0.53 5.15,-1.65 9.26,-3.22l31.34 -6.35c26.9,0.07 3.89,-5.55 43.22,3.4 6.02,1.36 12.55,4.85 17.78,7.3 2.8,1.3 5.35,3.72 7.92,4.64 14.5,5.19 13.33,12.95 22.98,14.09l0.43 34.05 -0.03 0.07 0.04 0.24 0.01 0.69 0.07 -0.14 -0.08 -0.55 0.01 0.69c0.2,1.17 0.34,2.42 0.44,3.73l0.01 0.32 0.02 0.32c0.45,11.58 -2.47,27.48 -2.05,38.26l-0.22 0.94 -1.41 0.14 -0.42 -0.87c-2.11,-11.32 -15.49,-28 -23.49,-36.14 -10.53,-10.74 -20.59,-17.76 -33.66,-25.29 -26.82,-15.41 -63.09,-23.47 -93.91,-24.37l-3.75 0zm159.55 5.09l-0.01 -0.45 -0.04 -0.93 -0.01 -0.45 -0.03 -0.93 -0.01 -0.44 -0.04 -0.92 -0.01 -0.43 -0.04 -0.93 -0.02 -0.43 -0.04 -0.92 -0.01 -0.4 -0.04 -0.93 -0.02 -0.39 -0.04 -0.93 -0.01 -0.36 -0.04 -0.93 -0.02 -0.34 -0.04 -0.93 -0.01 -0.33 -0.05 -0.92 -0.01 -0.31 -0.04 -0.92 -0.02 -0.27 -0.04 -0.92 -0.02 -0.25 -0.04 -0.93 -0.01 -0.21 -0.04 -0.93 -0.02 -0.17 -0.04 -0.93 -0.01 -0.15 -0.05 -0.93 -0.01 -0.1 -0.04 -0.93 -0.01 -0.06 -0.04 -0.93 -0.01 -0.03 -0.05 -0.91 0 -0.01 -0.05 -0.85 0 -0.06 -0.29 -4.53c-1.33,-19.15 -10.03,-35.72 -29.74,-40.3l-7.4 -1.31 -4.29 -0.05c4.68,-0.81 7.61,-1.2 9.78,-1.37l-0.51 -0.48c1.54,0.15 3.13,0.29 4.75,0.37l28.78 71.76zm-28.53 -71.75c2.28,0.05 4.71,0.17 10.23,-0.3 -4.26,-3.67 -12.23,-3.77 -18.47,-6.18 -3.92,-1.53 -5.89,-2.57 -9.58,-1.62 -4.51,1.16 -4.22,0.38 -9.32,-0.75 -16.4,-3.57 -53.35,-2.04 -71.16,1.35 -15.26,2.89 -7.18,2.83 -22.6,3.55 -9.18,0.44 -13.51,5.18 -19.35,5.81 -5.89,0.6 -4.87,-1.12 -10.21,2.3 -5.4,3.46 -4.49,2.52 -10.92,2.66 -3.77,5.12 0.32,2.74 -6.34,8.08 -1.73,1.39 -7.46,5.52 -8.35,7.11 -2.79,5.02 0.87,3.7 -5.79,8.66 -5.82,4.3 -10.49,10.53 -14.78,15.18 -4.7,5.06 -4.42,-1.24 -9.66,5.8 -5.67,7.64 -5.63,-0.8 -9.54,5.88 -4.28,7.29 -3.92,4.94 -6.42,9.1l91.24 0.03c2.44,-2.47 1.67,1.14 6.18,-6.02 14.77,0.21 5.87,-4.48 19.31,-5.93 4.92,-0.53 5.15,-1.65 9.26,-3.22l31.34 -6.35c26.9,0.07 3.89,-5.55 43.22,3.4 6.02,1.36 12.55,4.85 17.78,7.3 2.8,1.3 5.35,3.72 7.92,4.64 14.5,5.19 13.33,12.95 22.98,14.09l0.43 34.05c1.72,-2.86 1.65,-20.35 1.13,-36.87l-28.53 -71.75zm44.15 -110.49c-2.68,4.26 -2.35,0.51 -6.26,5.72l-5.57 5.82c-6.1,6.48 -9.83,2.79 -15.83,8.27 -3.12,2.84 -6.08,4.66 -8.46,7.74 6.77,0.41 6.66,-2.02 11.05,0.9 5.9,3.96 2.08,0.32 9.65,0.32 1.66,3.35 -2.73,0.06 1.61,2.91 -4.94,0.1 -2.22,-0.57 -4.7,1.39 5.95,2.08 21.85,11.85 26.57,16.08 2.72,2.43 -1.53,1.23 3.71,5.17 2.93,2.19 3.99,2.3 7.12,3.72 3.94,1.82 2.19,2.36 5.41,5.05l41.79 31.52c1.62,1.87 9.33,10.62 10.47,11.21 -2.8,5.18 1.74,10.31 6.03,12.96 7.07,4.37 6.05,6.84 10.84,12.24 2.95,3.34 5.56,2.51 11.08,12.02 2.95,5.08 5.28,10.52 8.04,15.56 4.07,0.36 1.76,-0.2 4.38,-0.86 0.47,2.29 5.82,14.34 7.13,16.93 1.79,3.57 2.31,2.1 4.65,6.92 1.88,3.83 3.06,5.17 7.23,2.27 0.54,4.4 3.76,8.06 5.5,11.97 3.38,7.64 1.85,5.63 7.7,11.5 -0.11,6.25 0.87,8 2.17,16.4l3.96 2.3c-0.86,7.28 1.05,32.54 3.3,40.36 2,7.02 0.23,1.88 2.99,5.15 2.54,3.02 0.05,0.7 1.91,5.92l3.95 0.91c0.33,3.75 -0.73,1.75 0.83,5.69 5.41,1.67 28.16,1.43 34.22,0.66l0.41 -6.4 6.15 0.13 0 -0.93 -0.06 -14.12c-1.38,-1.84 -0.66,-2.89 -1.06,-6l-16.26 -0.45 -0.22 -6.42 -4.65 -0.31c-0.42,-6.87 -1.8,-5.82 -8.68,-5.88 0,-12.14 -0.58,-9.88 -1.04,-18.06 -1.43,-25.95 -2.09,-12.86 -6.08,-32.64 -3.13,-15.51 -6.87,-5.22 -9.1,-11.13 -1.09,-2.86 0.18,-11.25 -2.28,-17.17 -1.29,-3.14 -2.04,-3.06 -2.45,-6.33l-1.54 -8.07c-2.21,-10.95 -6.17,-8.87 -10.57,-18.42 -5.59,-12.16 -10.89,-3.68 -15.18,-7.97 -2.55,-3.18 0.62,-4.34 -3.02,-9.54 -1.1,-1.56 -2.04,-2.22 -3.03,-3.69 -12.64,-18.72 1.53,-5.19 -12.45,-20.42 -4.39,-4.78 -7.33,-9.88 -11.86,-14.22 -4.89,-4.66 -8.96,-9.16 -13.33,-13.71l-11.21 -7.82c-2.43,-1.28 -0.03,0.78 -3.72,-1.38 -2.1,-1.22 -5.7,-4.09 -7.91,-5.64 -4.74,-3.34 -3.63,-2.46 -4.98,-6.87 -1.76,-5.83 -3.71,-4.18 -4.6,-6.57 -1.68,-4.49 2.87,-1.13 -4.24,-6.52 -6.62,-5.04 -1.13,-9.59 -13.53,-11.76 4.79,-3.91 -2.94,-7.42 -4.48,-8.88 -2.92,-2.74 0.01,-1.19 -3.18,-3.71l3.75 -2.46c-1.11,-0.7 -6.46,-3.45 -7.84,-3.91 -5.07,3.83 -10.63,5.18 -13.48,-0.33 -3.47,1.92 -6.79,2.75 -10.75,2.88zm-439.2 162.09l7.4 -4.34c-0.23,-17.48 7.18,-19.29 7.6,-19.78 0.83,-0.93 2.2,-5.24 2.73,-6.71 2.23,-6.22 8.34,-14.89 9.83,-19.11 0.4,-1.05 0.64,-2.28 1.42,-3.51l9.82 -14.32c1.44,-2.12 2.43,-3.95 3.71,-5.93l6.74 -9.81c0.14,-0.16 0.34,-0.39 0.45,-0.54 3.88,-5.17 -0.85,0.2 1.17,-6.3 3.75,-12.1 7.64,-6.6 10.15,-6.05 2.89,-2.44 4.71,-2.3 2.33,-6.2l-1.71 -3.74c-3.43,-2.77 -3.05,-1.94 -8.57,-2.04 -8.72,-0.56 -3.15,-4.36 -10.82,-5.61l-5.22 -0.49c-1.89,-0.38 0.07,0.79 -1.93,-0.71 -3.09,-2.35 -0.01,0.09 -1.54,-1.9 -4.58,-5.96 -9.68,-6.85 -15.35,-9.23 -8.03,-3.35 -9.04,0.3 -10.7,0.99 -3.89,1.65 -5.98,-0.91 -12.85,0.32 -8.13,1.47 -6.56,6.93 -37.32,5.24 -4.05,-0.23 -11.03,-3.74 -14.14,-5.57 -2.08,0.59 -1.47,1.21 -3.29,1.99 -4.44,1.92 -7.09,-0.59 -7.04,3.31 -3.21,-1.79 -3.02,-2.08 -6.67,-2.36 -1.24,1.73 -2.14,3.1 -3.16,5.21l4.85 3.79 -19.52 39.18c1.5,1.07 0.64,-1.32 -1.94,-0.98 -1.86,4.74 -2.47,7.23 -4.92,11.9l5.99 2 0.18 22.14c0.92,2.47 -0.94,1.8 1.51,1.4l0.55 -1c9.13,-3.98 11.03,-10.31 25.62,-12.6 11.73,-1.84 22.25,0.38 32.17,5.92 21.13,11.83 21.29,27.03 32.13,44.7l0.34 0.74zm156.46 -709.24l-25.89 0.34 -0.39 6.1 -5.81 0.3 -0.34 6.12 -12.29 0.19c-2.26,3.68 -0.05,2.58 -1.75,5.82 -9.04,-0.15 -16.31,0.87 -24.9,1.52l-0.29 5.49 -5.86 0 -0.29 6.96 -6.78 0.44 -0.22 6.09 -11.86 0.67 -0.64 5.41c-4.9,0.68 -9.05,1.07 -13.98,1.66l-0.96 13.17 -0.34 5.68 -5.55 0.14 -0.24 5.73 -6.37 0.16 -0.36 20.27 12.54 -0.12 0.26 -6.35 7.95 -0.32 0.16 -11.22c3.71,-2.86 2.93,0.43 6.4,-4.11 4.29,-5.62 2.53,-1.5 5.85,-4.78 3.21,-3.14 -0.79,-1.52 4.78,-5.77 4.43,-3.37 1.45,-2.41 4.05,-6.28 2.89,-0.17 5.57,0.63 7.91,0.2 4.93,-0.88 2.43,-1.75 4.21,-4.93 2.18,-3.91 2.06,-0.64 5.25,-3.44 2.44,-2.18 0.72,-2.63 2.82,-5.47 7.06,-0.27 8.3,3.09 11.13,-3.88 1.86,-4.55 6.75,-2.87 12.23,-2.92 11.14,-0.08 5.04,-2.14 8.54,-5.84 4.16,-4.44 8.28,3.75 11.68,-4.1 2.35,-5.45 3.62,-3.58 10.54,-3.55 12.11,0.09 5.91,-0.06 10.69,-4.92 4.23,-4.29 8.38,2.38 12.07,-2.82 4.27,-5.97 -1.67,-4.45 10.04,-4.63 30.89,-0.38 19.42,-0.93 24.33,-5.84 2.79,-2.79 40.37,-0.67 43.14,-1.85 5.22,-2.22 -2.09,-6.15 8.68,-5.91 10.32,0.22 20.72,-0.16 31.07,-0.25 19.96,-0.18 39.94,0.04 59.89,-0.02 9.77,-0.04 19.44,0.93 28.88,0.97 6.13,0.02 8.6,-2.17 11.67,2.76 3.01,4.78 6.38,2.53 12.61,2.7 9.94,0.26 19.95,0.74 29.88,1 7.07,0.2 7.9,-2.25 10.4,3.09 2.43,5.2 6.87,3.01 12.84,3.24 5.12,0.17 9.58,0.43 14.72,0.38 9.16,-0.11 1.37,4.5 8.18,6.39 3.8,1.05 4.76,-0.72 7.94,0.04 2.65,0.64 1.39,1.56 3.41,3.82 2.05,2.27 2.75,1.4 4.6,3.53 1.77,2.06 0.37,2.04 2.6,4.64 5.35,0.48 15.82,-2.16 18.14,3.26 2.68,6.22 1.46,3.41 18.51,4.18 2.3,2.54 0.45,2.5 2.38,4.7 2.89,3.31 3.18,0.41 5.51,3.41 1.96,2.54 -0.34,3.3 2.87,4.82 2.47,1.17 5.43,0.02 8.7,0.19 1.93,2.65 0.66,3.17 2.29,5.16 2.68,3.22 2.59,0.59 5,2.9 2.42,2.34 -0.34,2.18 2.9,4.81 1.95,1.62 2.49,0.38 5.17,2.41l-0.04 4.97 12.52 0.12 0.15 6.34 6.52 0.39 0.32 5.4 6.5 0.37 0.33 6.34 6.48 0.36 0.29 6.39 18.95 0.61 0.07 -6.89 -6.5 -0.22 -0.12 -6.62 -6.54 -0.24 -0.06 -5.68 -5.64 -0.25 -0.22 -6.49 -6.53 -0.34 -0.43 -6.01 -0.56 -6.5 -12.48 -0.74 -0.8 -6.92 -6.11 -0.62 -1.2 -5.46 -10.62 -0.37c-2.02,-3.29 -0.88,-2.51 -1.54,-6.12l-6.1 -0.67 -1.08 -6.09 -17.33 -0.73 -1.83 -6.33 -11.72 -0.32 -1.94 -5.58 -18.21 -0.78 -1.8 -6.06 -10.96 -0.14c-2.6,-3.86 -0.35,-2.96 -2.17,-6.1l-18.19 -0.51 -2.05 -5.42 -29.79 -1.6 -1.98 -5.27 -38.57 -1.32 -1.96 -5.37c-51.35,-1.77 -104.77,-0.52 -156.1,0.11l-1.76 5.9 -31.12 0.68 -1.82 5.22 -24.22 1.1 -1.97 5.51 -20.37 0.41zm139.9 555.48c-2.54,1.59 -43.34,12.84 -47.66,12.92 -7.14,5.71 -63.93,13.77 -76.93,15.94l-13.38 1.79c1.08,-1.45 0.27,1.58 -0.92,2.78 -2.64,2.63 -2.11,1.69 -5.85,1.9 -3.75,0.23 -8.34,0.36 -11.81,-0.16 0.89,-0.23 -0.48,-1.46 1.79,0.43l0.63 0.8c0.04,0.08 0.16,0.37 0.18,0.46l-0.32 2.83c-0.06,0.21 -0.22,0.6 -0.27,0.76l-0.65 1.76c-2.56,-0.26 -2.37,-0.12 -4.72,-0.75 -2.43,-0.62 -3.16,-2.22 -1.54,-0.42 0.68,-0.62 1.55,-0.22 4.26,0.62 0.1,0.03 1.36,-0.36 4.29,1.7 -3.2,3.21 -5.23,1.08 -9.85,1.83 -8.77,1.46 1.86,4.34 -12.87,4.71 0.33,-3.75 3.23,0.99 3.3,1.42l-4.25 -0.09 3.94 2.16c5.22,2.02 6.6,0.33 9.66,2.43 -3.34,2.05 -2.04,0.13 -4.74,1.97 12.74,-1.58 26.11,3.04 40.32,-0.29l-0.3 -1.51c10.13,-0.1 19.35,0.65 29.25,0.48 8.04,-0.15 16.53,-4.87 25.09,-5.83 3.79,-0.42 15.46,-5.8 20.16,-7.57 4.61,-1.73 12.38,-2.58 18.15,-5.06 3.76,-1.61 1.22,-0.74 4.27,-3.36 4.17,-0.33 9.13,0.33 13,-0.69 3.63,-0.97 5.92,-3.77 9.14,-4.26l33.75 -6.93c8.27,-2.49 3.86,-3.14 8.12,-5.27 1.92,-0.96 2.49,-0.34 5.16,-1.65 2.63,-1.29 1.26,-1.56 4.4,-2.31 5.26,-1.29 5.02,1.59 8.44,-3.1l5.69 -0.14c2.36,-3.81 3.05,-6.62 8.84,-7.63 8.88,-1.5 5.08,-1.33 12.26,-4.25 3.5,-1.42 2.97,-0.14 5.61,-2.06 2.17,-1.56 0.49,-1.8 5.18,-3.6 2.38,-0.92 8.19,-2.13 11.32,-5.66 -3.2,-0.07 -2.22,0.36 -4.39,-0.91 1.02,-2.98 5.38,-5 8.04,-6.27l8.02 -3.61c1.24,-0.43 0.8,-0.25 2.27,-0.67 1.96,-0.54 3.17,0.17 4.64,-2.33 1.07,-1.79 -1.93,-0.11 1.39,-2.16 4.2,-2.55 5.37,-2.28 8.3,-6.2 2.48,0.02 6.45,0.17 8.81,-0.05 6.21,-0.59 1.08,0.26 5.89,-2.78 4.09,-2.57 2.72,-0.6 10.9,-6.46 2.16,-1.52 9.62,-4.23 14.51,-7.75 4.14,-2.95 5.53,-3.49 6.1,-5.98 -11.46,-2.74 -2.87,1.32 -11.23,-0.14 -3.39,-0.6 -1.92,0.48 -5.32,1.5 -3.43,1.04 -7.53,0 -11.11,0.58 -2.79,0.44 -5.08,2.04 -8.67,2.51 0.1,-3.41 -0.59,-2.41 3.56,-3.94 -2.81,-2.15 -2.14,-6.18 -4.36,-7.15 -19.14,4.1 -48.89,27.73 -64.13,37.3 -18.7,11.74 -52.47,24.72 -73.36,27.41zm137.49 -64.71c2.22,0.97 1.55,5 4.36,7.15 -4.15,1.53 -3.46,0.53 -3.56,3.94 3.59,-0.47 5.88,-2.07 8.67,-2.51 3.58,-0.58 7.68,0.46 11.11,-0.58 3.4,-1.02 1.93,-2.1 5.32,-1.5 8.36,1.46 -0.23,-2.6 11.23,0.14 1.14,-3.19 1.89,-3.03 5.61,-3.14 2.28,-3.83 3.21,-2.46 5.86,-6.06 3.38,-4.56 -0.84,-2.38 4.8,-4.93 5.86,-2.65 20.48,-19.37 24.89,-21.59l26.41 -18.82c3.86,-3.36 0.69,-2.97 6.05,-5.53 4.11,-1.99 10.81,-4.5 13.57,-8.15 2.76,-3.65 2.35,-1.64 6.93,-3.27 5.49,-1.93 9.92,-5.16 15.54,-6.53 -3.09,-0.4 -2.05,-0.15 -2.96,-1.76 3.69,-3.61 2.39,-0.71 5.65,-2.54 5.22,-2.98 1.85,-4.26 11.44,-6.74l18.17 -8.91c4.15,-2.39 8.92,-2.9 12.06,-5.26 2.88,-2.17 -0.11,-1.69 4.11,-3.48 13.31,-5.7 16.82,-1.69 21.34,-5.93 5.18,-4.84 19.91,-7.77 27.22,-8.63l32.08 -4.72c5.9,-0.03 27.86,-1.01 32.04,-3.56 3.91,-2.38 6.86,-6.75 3.94,-10.91l-7.37 -8.07c-0.16,-0.13 -0.39,-0.3 -0.56,-0.4 -9.98,-6.43 -24.62,-7.82 -27.17,-9.88l19.33 -0.07c-9.16,-1.65 -41.71,0.71 -50.92,3.21 -11.87,3.21 -27.37,11.94 -39.57,16.72 -40.02,15.59 -38.28,14.22 -74.61,38.32 -12.21,8.1 -23.12,13.33 -35.55,20.45 -17.56,10.04 -20.56,21.3 -27.06,28.91 -3.5,4.09 -25.57,16.98 -32.9,23.17 -8.61,7.29 -31.79,17.55 -35.5,21.46zm296.11 -152.24l-19.33 0.07c2.55,2.06 17.19,3.45 27.17,9.88 0.17,0.1 0.4,0.27 0.56,0.4l7.37 8.07c2.92,4.16 -0.03,8.53 -3.94,10.91 -4.18,2.55 -26.14,3.53 -32.04,3.56l-32.08 4.72c-7.31,0.86 -22.04,3.79 -27.22,8.63 -4.52,4.24 -8.03,0.23 -21.34,5.93 -4.22,1.79 -1.23,1.31 -4.11,3.48 -3.14,2.36 -7.91,2.87 -12.06,5.26l-18.17 8.91c-9.59,2.48 -6.22,3.76 -11.44,6.74 -3.26,1.83 -1.96,-1.07 -5.65,2.54 0.91,1.61 -0.13,1.36 2.96,1.76 -5.62,1.37 -10.05,4.6 -15.54,6.53 -4.58,1.63 -4.17,-0.38 -6.93,3.27 -2.76,3.65 -9.46,6.16 -13.57,8.15 -5.36,2.56 -2.19,2.17 -6.05,5.53l-26.41 18.82c-4.41,2.22 -19.03,18.94 -24.89,21.59 -5.64,2.55 -1.42,0.37 -4.8,4.93 -2.65,3.6 -3.58,2.23 -5.86,6.06 13.54,-0.14 7.46,-4.84 16.95,-5.78 -0.93,2.74 -0.93,1.99 -3.41,4.53 -3.52,3.61 -3.03,1.93 -4.02,3.75l7.46 -0.12c3.09,-3.62 4.39,-2.3 9.08,-2.75 1.68,-4.09 0.43,-5.95 3.99,-8.57 4.46,-3.27 3.16,0.08 8.35,-4.21 2.6,-2.14 6.99,-3.46 8.19,-4.43 3.32,-2.66 0.05,-1.67 3.66,-4.98l2.67 -2.14c0.2,-0.19 0.68,-0.84 0.89,-1.02 1.18,-1.11 0.03,-0.3 1.64,-1.34 17.62,-11.09 6.09,2.15 25.75,-11.88 0.18,-0.12 0.44,-0.28 0.61,-0.4l3.13 -1.71c0.19,-0.1 0.39,-0.27 0.57,-0.38 8.95,-5.33 -0.2,3.88 15.35,-9.72 1.52,-1.33 2.22,-3.17 8.72,-4.1 8.57,-1.26 1.8,-0.85 8.44,-3.98 10.22,-4.84 1.9,-1.78 7.7,-4.8 4.45,-2.34 24.91,-7.03 26.92,-10.98 -6.32,-0.06 -6.73,-0.69 -12.7,1.19 -9.56,2.99 -3.14,3.51 -11.06,3.37 2.34,-3.26 5.15,-2.96 7.75,-4.78 3.98,-2.77 2,-3.57 8.72,-4.7 7.36,-1.2 13.31,-5.87 21.12,-6.03 15.6,-0.32 28.81,-10.92 42.56,-10.73 3.26,-5.3 8.45,-4.8 20.17,-5.77 12.78,-1.07 38.86,0.95 50.08,-3.97 4.25,-1.85 3.94,-0.51 9.48,-4.07 5.36,-3.46 1.81,-3.01 6.51,-7.2l1.23 5.64c3.88,-1.67 0.53,0.4 3.22,-3.83 2.32,-3.69 1.46,-0.58 2.8,-3.81 0.03,-0.16 0.49,-25.67 -0.51,-28.43 -1.25,-3.44 -2.54,-2.91 -5.64,-3.91 -0.64,-1.98 -0.49,-3.15 -0.84,-4.14 -1.49,-4.13 -0.03,0.26 -2.38,-3.24 -2.97,-4.42 0.46,-4.43 -2.14,-8.49 -0.11,4.63 1.3,12.01 -2.36,14.94 -3.47,2.15 -29.33,-1.96 -35.28,-2.77zm-606.96 278.87l-25.5 0.34c0.09,0.06 2.37,1.82 -2.55,4.02 5.34,-0.22 5.44,-1.12 8.44,2.94 -4.86,4.1 -4.53,0.27 -8.42,3.29 3.72,1.45 5.99,4.81 5.82,7.83l-6.04 1.87c5.23,1.67 2.15,-2.01 12.96,2.75l1.88 -2.85c17.79,1.3 9.31,1.28 23.07,3.74 3.25,3.05 18.45,3.53 21.64,2.7 5.58,-1.42 -1.54,-2.59 13.6,-2.72 8.88,-0.09 12.31,0.4 20.12,-2.31 0.24,-0.08 0.49,-0.16 0.73,-0.24 0.22,-0.08 0.46,-0.18 0.69,-0.27 7.2,-2.63 12.85,-2.31 20.91,-5.16 7.47,-2.64 11.32,1.2 22.9,-6.07 4.76,-2.96 1.46,-0.36 9.69,-2.91l3.21 -0.71c6.48,-1.18 3.19,-1.88 7.2,-3.35 4.71,-1.74 7.31,1.31 17.56,-3.04l-13.86 -0.38c2.02,-1.08 17.15,-2.54 21.33,-3.46l41.47 -10.69c5.87,-2.29 3,-2.11 10.33,-2.31 6.5,-0.18 5.26,-1.64 10.61,-2.93 1.24,-3.6 0.34,3.08 -0.06,-0.77 -0.24,-2.25 -0.51,1.44 -0.11,-1.16 6.72,-0.23 7.33,-3.98 13.56,-5.73 13.43,-3.77 9.36,-2.73 9.71,-5.56 3.4,-0.19 6.42,-1.63 9,-3.76 5.25,-4.36 2.45,-2.27 9.45,-2.95 7.57,-0.72 1.71,-4.62 20.74,-2.85 2.38,-3.08 5.34,-4.9 8.46,-7.74 6,-5.48 9.73,-1.79 15.83,-8.27l5.57 -5.82c3.91,-5.21 3.58,-1.46 6.26,-5.72 -3.67,0.35 -6.62,0.98 -9.98,-0.7 3.63,-1.55 1.7,1.07 8.47,-2.49l15.18 -7.25 -9.66 -0.3 -12.5 -0.67c-7.22,2.04 -3.87,2.84 -7.46,4.26 -3,1.18 -1.78,-0.21 -4.95,1.87 -11.38,7.47 -4.46,0.74 -12.73,7.52 -1.6,1.3 -2.73,2.53 -3.56,3.19 -0.42,0.35 -18.46,10.8 -22.24,11.78 -6.3,1.66 -12.35,8.63 -19.49,7.95 1.47,-1.95 1.23,0.45 1.41,1.45 -2.92,2.36 -10.31,4.69 -14,5.41l-13.03 5.06c-4.89,1.66 -11.28,1.46 -14.87,3.34l-27.11 9c-9.54,2.15 -20.59,5.8 -29.66,7.13 -5.87,0.85 -5.93,2.99 -10.39,4.73 -5.73,2.2 -10.02,2.79 -16.23,2.7 -8.75,-0.11 -6.98,2.68 -13.6,4.34 -3.67,0.9 -5.53,-0.05 -8.42,1.04 -2.93,1.12 -1.66,1.5 -6.41,2.46 -4.77,0.95 -18.98,1.56 -23.03,3.65 -2.88,1.5 -1.31,2.22 -5.56,2.98 -18.47,3.25 -34.16,-1.46 -48.84,-3.25 2.66,-1.16 3.25,0.43 3.9,-2.72 -4.81,-0.21 -7.72,-0.13 -11.44,-2.23zm23.64 -637.32c-2.08,1.9 -43.41,18.2 -50.93,21.87 -16.68,8.16 -31.47,16.67 -47.51,25.9 -13.6,7.83 -30.49,20.04 -42.64,29.76l-40.48 33.87 -6.59 8.38c3.89,1.2 -0.3,0.76 2.61,5.24l5.91 0.13 5.77 -0.03 0.29 -5.66 6.26 -0.44 0.89 -12.71 11.92 -0.76 0.85 -12.53 6.3 -0.33 0.43 -5.58 12.24 -0.96 0.81 -6.1 12.03 -0.75 0.22 -6.24 6.58 -0.4 0.43 -6.27 6.37 -0.4 0.54 -6.13 12.98 -0.77 0.4 -6.04 13.07 -0.8 0.54 -5.67 13.01 -0.78 5.86 0 0.29 -5.49c8.59,-0.65 15.86,-1.67 24.9,-1.52 1.7,-3.24 -0.51,-2.14 1.75,-5.82l12.29 -0.19 0.34 -6.12 5.81 -0.3 0.39 -6.1 25.89 -0.34 0.35 -6.1c3.51,-1.67 3.3,-1 6.96,-1.31 0.59,-3.52 -0.47,-2.53 1.23,-5.18l31.27 -1.09 0.65 -5.39 19.14 -0.8 0.67 -5.51c29.87,0.55 61.86,-1.45 92.2,-1.45 12.49,0 88.12,1.34 93.06,0.27l-0.42 -6.08c-32.56,-2.59 -71.11,-1.13 -104.24,-1.12 -15.11,0 -96.34,2.64 -102.93,1.25 -11.53,-0.75 -38.47,12.74 -47.76,12.59zm9.82 19.92l20.37 -0.41 1.97 -5.51 24.22 -1.1 1.82 -5.22 31.12 -0.68 1.76 -5.9c51.33,-0.63 104.75,-1.88 156.1,-0.11l1.96 5.37 38.57 1.32 1.98 5.27 29.79 1.6 2.05 5.42 18.19 0.51c1.82,3.14 -0.43,2.24 2.17,6.1l10.96 0.14 1.8 6.06 18.21 0.78 1.94 5.58 11.72 0.32 1.83 6.33 17.33 0.73 1.08 6.09 6.1 0.67c0.66,3.61 -0.48,2.83 1.54,6.12l10.62 0.37 1.2 5.46 6.11 0.62 0.8 6.92 12.48 0.74 0.56 6.5 11.94 0.36 0.44 5.97 6.4 0.72 0.22 5.27 6.56 0.46 0.31 6.23 7.48 0.4 0.27 6.35 12.24 0.58c0.08,4.26 -0.7,3.41 1.34,6.66l5.97 -0.52 -0.35 -13.09 -6.27 -0.4 -0.42 -5.53 -11.9 -1.7 -0.34 -5.25 -7.31 -0.58 -0.46 -6.11 -6.46 -0.48 -0.42 -6.15 -5.94 -0.72 -1.04 -6.01 -18.12 -1.37 -0.4 -5.89 -6.62 -0.53 -0.44 -5.9 -5.82 -0.41 -0.44 -5.93 -12.97 -0.86 -0.53 -5.96 -12.27 -0.71 -1.07 -5.31 -19.44 -1.31 -0.52 -5.6 -12.41 -0.75 -0.5 -5.66 -6.86 -0.33 -0.59 -6.11 -24.44 -0.61c-2.56,-3.7 -0.22,-2.53 -1.77,-5.34l-37.69 -2.03c-1.73,-3.01 0.35,-2.29 -1.8,-5.19l-38.38 -1.36 0 -5.95c-4.94,1.07 -80.57,-0.27 -93.06,-0.27 -30.34,0 -62.33,2 -92.2,1.45l-0.67 5.51 -19.14 0.8 -0.65 5.39 -31.27 1.09c-1.7,2.65 -0.64,1.66 -1.23,5.18 -3.66,0.31 -3.45,-0.36 -6.96,1.31l-0.35 6.1zm-79.49 583.61l20.11 4.26c2.93,-4.22 -0.64,1.55 0.28,-2.71 4.85,0.03 19.26,1.19 22.11,-1.98 -1.25,-2.99 0.48,-0.51 -3.73,-2.84 -3.88,-2.14 -1.21,-3.04 2.51,-3.67 -6.68,-4.97 -29.28,-2.38 -49.73,-17.74 -13.44,-10.07 -22.11,-23.29 -34.54,-33.05 -9.57,-7.53 -14.85,-7.23 -26.42,-7.51 -16.33,-0.4 -11.67,-1.61 -21.79,10.12 -5.83,6.78 -16.52,8.91 -22.08,0.96 -3.86,-5.52 -2.71,-4.77 -8.3,-8.96 -5.56,-4.19 -5.01,-3.94 -11.54,-2.07l-0.2 -0.07c-5.9,5.08 -10.29,1.63 -10.64,-5.6 -0.65,-14.11 4.09,-11.21 -12.92,-27.55 -5.75,-5.51 -5.59,-5.74 -13.91,-6.25 3.56,2.58 0.3,1.24 4.81,2.07 -0.29,4.75 -0.64,18.56 0.35,22.7 0.62,2.61 9.58,13.47 12.22,15.7 7.78,6.6 3.08,5.49 7.3,8.97 2.38,1.99 2.68,0.52 5.65,4.12 4.25,5.11 0.4,1.88 6.66,4.14 0.24,5.27 1.97,5.63 7.13,6.32 -2.71,2.34 -1.71,1.26 -1.16,4.13 3.75,0.49 6.79,-0.05 10.39,1.17 6.28,2.12 11.07,6.56 27.53,1.88 10.52,-2.98 28.46,-4.4 39.5,-1.26 7.72,2.22 3.35,-0.46 6.81,2.66 4.54,4.04 2.57,0.21 7.77,2.99 3.32,1.78 1.28,1.9 6.38,4.3 3.68,1.75 3.36,2.96 6.06,4.52 4.4,2.55 3.72,-0.55 6.75,4.56 3.21,5.46 14.8,10.16 16.64,15.69zm-56.95 168.95c2.54,-2.99 2.22,-4.9 1.6,-8.48 6.63,-5.74 5.46,-9.58 5.56,-17.96 7.23,-4.59 2.89,-6.78 8.66,-14.27 4.94,-6.43 2.7,-8.52 11.32,-21.52 2.55,-3.86 4.47,-9.27 5.56,-13.86 2.18,-9.27 3.56,-3.92 6.62,-11.7l16.27 -21.38c3.78,-4.71 0.71,-1.92 3.92,-3.98 5.67,-3.65 -1.26,-0.77 3.83,-3.74 5.42,0.58 5.04,2.71 11.39,2.02l6.04 -1.87c0.17,-3.02 -2.1,-6.38 -5.82,-7.83 3.89,-3.02 3.56,0.81 8.42,-3.29 -3,-4.06 -3.1,-3.16 -8.44,-2.94 -4.39,0.08 -7.82,0.93 -11.11,3.56 -2.66,-1.24 -2.07,-2.16 -6.16,-3.35 -5.94,-1.74 -11.6,-3.94 -16.66,-9.13 -2.51,-0.55 -6.4,-6.05 -10.15,6.05 -2.02,6.5 2.71,1.13 -1.17,6.3 -0.11,0.15 -0.31,0.38 -0.45,0.54l-6.74 9.81c-1.28,1.98 -2.27,3.81 -3.71,5.93l-9.82 14.32c-0.78,1.23 -1.02,2.46 -1.42,3.51 -1.49,4.22 -7.6,12.89 -9.83,19.11 -0.53,1.47 -1.9,5.78 -2.73,6.71 -0.42,0.49 -7.83,2.3 -7.6,19.78l-7.4 4.34 19.72 42.68 0.3 0.64zm376.48 -209.98c-3.13,3.53 -8.94,4.74 -11.32,5.66 -4.69,1.8 -3.01,2.04 -5.18,3.6 -2.64,1.92 -2.11,0.64 -5.61,2.06 -7.18,2.92 -3.38,2.75 -12.26,4.25 -5.79,1.01 -6.48,3.82 -8.84,7.63l-5.69 0.14c-3.42,4.69 -3.18,1.81 -8.44,3.1 -3.14,0.75 -1.77,1.02 -4.4,2.31 -2.67,1.31 -3.24,0.69 -5.16,1.65 -4.26,2.13 0.15,2.78 -8.12,5.27l-33.75 6.93c-3.22,0.49 -5.51,3.29 -9.14,4.26 -3.87,1.02 -8.83,0.36 -13,0.69 -3.05,2.62 -0.51,1.75 -4.27,3.36 -5.77,2.48 -13.54,3.33 -18.15,5.06 -4.7,1.77 -16.37,7.15 -20.16,7.57 -8.56,0.96 -17.05,5.68 -25.09,5.83 -9.9,0.17 -19.12,-0.58 -29.25,-0.48l0.3 1.51c-14.21,3.33 -27.58,-1.29 -40.32,0.29 -3.37,1.98 -9.1,1.42 -3.02,2.79l-2.63 1.34c3.72,2.1 6.63,2.02 11.44,2.23 -0.65,3.15 -1.24,1.56 -3.9,2.72 14.68,1.79 30.37,6.5 48.84,3.25 4.25,-0.76 2.68,-1.48 5.56,-2.98 4.05,-2.09 18.26,-2.7 23.03,-3.65 4.75,-0.96 3.48,-1.34 6.41,-2.46 2.89,-1.09 4.75,-0.14 8.42,-1.04 6.62,-1.66 4.85,-4.45 13.6,-4.34 6.21,0.09 10.5,-0.5 16.23,-2.7 4.46,-1.74 4.52,-3.88 10.39,-4.73 9.07,-1.33 20.12,-4.98 29.66,-7.13l27.11 -9c3.59,-1.88 9.98,-1.68 14.87,-3.34l13.03 -5.06c3.69,-0.72 11.08,-3.05 14,-5.41 -0.18,-1 0.06,-3.4 -1.41,-1.45 7.14,0.68 13.19,-6.29 19.49,-7.95 3.78,-0.98 21.82,-11.43 22.24,-11.78 0.83,-0.66 1.96,-1.89 3.56,-3.19 8.27,-6.78 1.35,-0.05 12.73,-7.52 3.17,-2.08 1.95,-0.69 4.95,-1.87 3.59,-1.42 0.24,-2.22 7.46,-4.26 0.17,-0.08 1.82,-0.8 1.89,-0.85 1.25,-0.73 0.84,-0.53 1.67,-1.21 0.19,-0.17 0.78,-0.76 0.99,-0.93 0.14,-0.11 0.38,-0.36 0.5,-0.46 0.27,-0.24 1.48,-1.17 1.59,-1.25 -1.82,-0.01 -5.01,-0.22 -6.69,0.02 -5.86,0.81 -0.35,0.67 -5.09,1.61 -5.16,1.04 -6.11,-1.38 -10.86,1.72 -5.55,3.63 -1.59,0.85 -9.41,4.03 -5.51,2.23 -7.81,-1.16 -8.8,4.16zm-343.43 58.28c5.52,0.1 5.14,-0.73 8.57,2.04 6.91,-1.38 0.42,-3.54 8.76,-6.17l2.57 4c4.11,-0.36 6.43,0.39 8.97,-1.46 -3.13,-1.88 -11.97,-8.26 -15.03,-8.78 -0.4,-5.54 0.91,-3.26 -2.05,-5.77 -2.13,-1.83 -3.82,-0.84 -3.55,-3.49 -3.04,-0.51 -6.01,-1.3 -8.77,-1.84 -4.99,-0.98 -2.93,-2.15 -5.41,-4.88 -2.65,-2.94 -9.72,-5.78 -12.87,-8.34 -4.99,-4.06 -7.02,-6.06 -14.19,-6.84 -25.5,-2.81 -37.97,7.76 -58.75,2.71 -4.24,-1.05 -15.99,-4.88 -18.74,-7.56 -3.41,-3.3 -4.51,-2.42 -5.65,-5.77 -0.97,-2.97 0.22,-0.58 0.12,-1.83 -4.05,-1.24 -6.65,-5.59 -9.72,-9.03l-7.85 -10.46c-0.12,-0.13 -0.32,-0.33 -0.46,-0.46 -0.18,-0.21 -0.84,-0.68 -1.06,-0.89 -4.23,-3.77 -10.8,-13.03 -13.92,-15.08 -0.38,-0.25 -1.93,-0.65 -3.3,-1.54 -2.28,-9.77 -0.3,-26.27 -0.96,-36.96 -0.9,-6.32 -3.15,-7.74 -3.5,-16.79 -4.94,1.9 -9.58,13.69 -11.15,18.85 -2.02,6.66 -0.5,21.77 -0.95,29.63l9.69 15.81c2.83,4.29 3.1,3.6 6.06,6.73 4.49,4.76 -3.17,2.9 5.66,5.36 -0.06,5.67 1.33,4.42 4.42,7.68 1.9,2.01 3.47,4.74 6.07,6.61 5.49,3.92 2.94,-0.18 5.2,5.9 1.25,3.35 6.77,7.3 10.41,8.72 3.38,1.31 2.41,0.18 3.99,0.65 0.43,0.12 4.13,3.48 7.21,4.65 4.92,1.87 13.85,6.62 18.12,7.25 14.01,2.02 39.28,-1.62 55.72,-3.78 5.85,-0.76 4.25,0.18 8.53,2.78 6.34,3.83 11.75,5.27 14.14,10.92 2.69,-0.27 1.46,1.25 3.56,-1.71 1.72,5.7 -1.53,5.91 3.53,10 3.12,2.51 5.92,4.78 6.58,9.14zm141.33 -633.37c6.59,1.39 87.82,-1.25 102.93,-1.25 33.13,-0.01 71.68,-1.47 104.24,1.12l0.42 6.08c11.34,-3.64 45.81,3.74 58.81,0.57 -3.12,-2.42 -8.7,-3.34 -12.6,-4.44 -19.53,-5.51 -51.8,-11.58 -71.76,-13.8 -6.44,-0.7 -28.16,-1.41 -32.01,-3.3l-58.17 0c-2.58,1.13 -40.57,4.43 -48.07,5.59 -7.79,1.21 -39.58,5.41 -43.79,9.43zm-133.09 613.74c0.57,-0.56 0.6,-2.04 3.39,-0.94 2.97,1.14 -1.65,-0.41 3.02,2.76 3.86,2.59 5.33,0.69 9.25,0.56 -1.84,-5.53 -13.43,-10.23 -16.64,-15.69 -3.03,-5.11 -2.35,-2.01 -6.75,-4.56 -2.7,-1.56 -2.38,-2.77 -6.06,-4.52 -5.1,-2.4 -3.06,-2.52 -6.38,-4.3 -5.2,-2.78 -3.23,1.05 -7.77,-2.99 -3.46,-3.12 0.91,-0.44 -6.81,-2.66 -11.04,-3.14 -28.98,-1.72 -39.5,1.26 -16.46,4.68 -21.25,0.24 -27.53,-1.88 -3.6,-1.22 -6.64,-0.68 -10.39,-1.17 -0.55,-2.87 -1.55,-1.79 1.16,-4.13 -5.16,-0.69 -6.89,-1.05 -7.13,-6.32 -6.26,-2.26 -2.41,0.97 -6.66,-4.14 -2.97,-3.6 -3.27,-2.13 -5.65,-4.12 -4.22,-3.48 0.48,-2.37 -7.3,-8.97 -2.64,-2.23 -11.6,-13.09 -12.22,-15.7 -0.99,-4.14 -0.64,-17.95 -0.35,-22.7 -4.51,-0.83 -1.25,0.51 -4.81,-2.07l-6.4 -6.49c0.66,10.69 -1.32,27.19 0.96,36.96 1.37,0.89 2.92,1.29 3.3,1.54 3.12,2.05 9.69,11.31 13.92,15.08 0.22,0.21 0.88,0.68 1.06,0.89 0.14,0.13 0.34,0.33 0.46,0.46l7.85 10.46c3.07,3.44 5.67,7.79 9.72,9.03 0.1,1.25 -1.09,-1.14 -0.12,1.83 1.14,3.35 2.24,2.47 5.65,5.77 2.75,2.68 14.5,6.51 18.74,7.56 20.78,5.05 33.25,-5.52 58.75,-2.71 7.17,0.78 9.2,2.78 14.19,6.84 3.15,2.56 10.22,5.4 12.87,8.34 2.48,2.73 0.42,3.9 5.41,4.88 2.76,0.54 5.73,1.33 8.77,1.84zm226.49 386.19c10.34,-0.57 21.2,0.87 31.75,0.5 22.01,-0.73 37.86,-1.34 59.87,-4.05 8.97,-1.11 19.61,-3.53 28.15,-4.04l1.52 -0.74c-0.43,-0.11 -0.94,-0.17 -1.57,-0.19l3.09 -1.48 -0.07 -1.9 -0.01 -0.03 -0.03 -0.91 0 -0.04 -0.03 -0.91 0 -0.03c-0.6,-18.62 2.44,-36.84 2.77,-54.98l-1.06 -3.2c-12.66,31.4 -51.78,53.88 -84.24,63.2 -6.33,1.81 -12.93,3.47 -19.46,4.78 -5.84,1.17 -15.75,2.14 -20.68,4.02zm358.18 -874.85l6.78 -0.48c2.14,2.92 1.24,1.21 1.47,5.76 4.11,0.24 2.02,-0.37 4.9,1.26l-0.01 5.32 5.76 0.18 0.21 -4.38 -5.67 -0.77 -0.88 -10.91 2.16 -0.43 -1.69 -3.16c-2.56,-1.06 -29.49,-24.59 -35.34,-29.04 -4.7,-3.59 -36.17,-25 -36.94,-26.15 -3.31,-1.07 -4.38,-1.67 -6.66,-4.23 -4.02,-0.79 -21.63,-11.9 -27.17,-14.78 -19.83,-10.29 -37.78,-18.4 -58.68,-26.26 -6.16,-2.31 -27.31,-7.98 -30.42,-11.24l-3 0.75c-13,3.17 -47.47,-4.21 -58.81,-0.57l0 5.95 38.38 1.36c2.15,2.9 0.07,2.18 1.8,5.19l37.69 2.03c1.55,2.81 -0.79,1.64 1.77,5.34l24.44 0.61 0.59 6.11 6.86 0.33 0.5 5.66 12.41 0.75 0.52 5.6 19.44 1.31 1.07 5.31 12.27 0.71 0.53 5.96 12.97 0.86 0.44 5.93 5.82 0.41 0.44 5.9 6.62 0.53 0.4 5.89 18.12 1.37 1.04 6.01 5.94 0.72 0.42 6.15 6.46 0.48 0.46 6.11 7.31 0.58 0.34 5.25 11.9 1.7 0.42 5.53 6.27 0.4 0.35 13.09zm-279.31 350.94l0.28 5.57c-2.9,0.75 -23.95,-3.97 -38.71,-3.59 -9.6,0.26 -31.49,4.88 -38.03,3.51 1.9,-3.33 1.1,-1.14 4.08,-4.09 -11.22,1.55 -43.22,24.42 -44.16,34.42 3.95,-2.4 6.68,-6.01 10.51,-9.13 19.14,-15.45 46.82,-23.63 71.47,-23.63 18.58,0 24.71,3.8 32.4,4.44 1.08,0.11 100.53,-39.93 106.66,-43.61 33.57,-20.18 54.5,-44.36 92.49,-60.14 31.61,-13.13 45,-8.26 83.19,-30.75 7.68,-4.51 18.42,-8.08 21.75,-16.81l-18.87 9.86c-25.95,14.51 -35.04,13.33 -62.29,21.71 -32.14,9.87 -45.03,20.37 -70.69,40.48 -37.47,29.39 -29.17,23 -70.8,40.08 -25.68,10.54 -53.36,22.39 -79.28,31.68zm-399.66 -338.28l-0.08 5.98 5.89 0.19c1.15,12.87 -1.45,5.91 -4.56,12.15 -2.2,4.41 -1.53,9.87 -2.03,15.2l-0.48 5.65c4.17,-0.11 0.51,-2.24 3.08,-6.78l4.66 0.27c5.66,0.33 3.69,-1.28 5.78,2.74l1.09 -27.93 12.1 -0.65 0.4 -12.07 6.25 -0.34 0.53 -6.4 6.32 -0.27 0.39 -6.5 6.37 -0.24 0.47 -6.41 5.45 -0.31 0.49 -6.38 6.34 -0.2 0.4 -5.62 6.33 -0.26 0.53 -6.5 11.48 -0.27 0.96 -13.17c4.93,-0.59 9.08,-0.98 13.98,-1.66l0.64 -5.41 11.86 -0.67 0.22 -6.09 6.78 -0.44 0.29 -6.96 -13.01 0.78 -0.54 5.67 -13.07 0.8 -0.4 6.04 -12.98 0.77 -0.54 6.13 -6.37 0.4 -0.43 6.27 -6.58 0.4 -0.22 6.24 -12.03 0.75 -0.81 6.1 -12.24 0.96 -0.43 5.58 -6.3 0.33 -0.85 12.53 -11.92 0.76 -0.89 12.71 -6.26 0.44 -0.29 5.66 -5.77 0.03zm509.58 389.04c-3.72,0.11 -4.47,-0.05 -5.61,3.14 -0.57,2.49 -1.96,3.03 -6.1,5.98 -4.89,3.52 -12.35,6.23 -14.51,7.75 -8.18,5.86 -6.81,3.89 -10.9,6.46 -4.81,3.04 0.32,2.19 -5.89,2.78 -2.36,0.22 -6.33,0.07 -8.81,0.05 -2.93,3.92 -4.1,3.65 -8.3,6.2 -3.32,2.05 -0.32,0.37 -1.39,2.16 -1.47,2.5 -2.68,1.79 -4.64,2.33 -1.47,0.42 -1.03,0.24 -2.27,0.67l-8.02 3.61c-2.66,1.27 -7.02,3.29 -8.04,6.27 2.17,1.27 1.19,0.84 4.39,0.91 0.99,-5.32 3.29,-1.93 8.8,-4.16 7.82,-3.18 3.86,-0.4 9.41,-4.03 4.75,-3.1 5.7,-0.68 10.86,-1.72 4.74,-0.94 -0.77,-0.8 5.09,-1.61 1.68,-0.24 4.87,-0.03 6.69,-0.02 -0.11,0.08 -1.32,1.01 -1.59,1.25 -0.12,0.1 -0.36,0.35 -0.5,0.46 -0.21,0.17 -0.8,0.76 -0.99,0.93 -0.83,0.68 -0.42,0.48 -1.67,1.21 -0.07,0.05 -1.72,0.77 -1.89,0.85l12.5 0.67c2.63,-1.01 6.13,-2.64 8.65,-3.5 8.97,-3.14 4.85,-1.83 8.48,-5 4.93,-4.32 1.85,1.03 9.98,-3.57 1.92,-1.09 7.64,-3.67 9.6,-4.13 0.46,-2.34 -0.28,1.43 -0.46,-2.18l11.29 -5.5 -0.62 -2.3 3.43 -0.83c-3.07,-1.5 -4.81,-4.12 -5.27,-7.02l5.17 -1.05 0.11 -4.68 -7.46 0.12c0.99,-1.82 0.5,-0.14 4.02,-3.75 2.48,-2.54 2.48,-1.79 3.41,-4.53 -9.49,0.94 -3.41,5.64 -16.95,5.78zm25.14 -58.2l-0.74 1.16c-14.24,13.04 -26.62,27.42 -43.34,37.58 -16.86,10.26 -35.67,17.59 -52.9,27.28 -8.49,4.79 -15.96,11.22 -24.34,16.3 -16.2,9.77 -36.57,20.04 -54.33,26.66 -8.01,2.98 -27.77,8.2 -29.72,10.43 20.89,-2.69 54.66,-15.67 73.36,-27.41 15.24,-9.57 44.99,-33.2 64.13,-37.3 3.71,-3.91 26.89,-14.17 35.5,-21.46 7.33,-6.19 29.4,-19.08 32.9,-23.17 6.5,-7.61 9.5,-18.87 27.06,-28.91 12.43,-7.12 23.34,-12.35 35.55,-20.45 36.33,-24.1 34.59,-22.73 74.61,-38.32 12.2,-4.78 27.7,-13.51 39.57,-16.72 9.21,-2.5 41.76,-4.86 50.92,-3.21 5.95,0.81 31.81,4.92 35.28,2.77 3.66,-2.93 2.25,-10.31 2.36,-14.94l0.08 -2.51c-0.03,5.04 0.59,10.12 -1.17,14.77 -5.31,2.07 -33.04,-2.69 -41.27,-2.95 -13.96,-0.42 -30.48,-0.92 -43.99,2.56 -46.36,11.96 -112.42,50.88 -153.73,78.16 -10.74,7.1 -23.38,18.23 -25.79,19.68zm-424.76 147.54c-3.92,0.13 -5.39,2.03 -9.25,-0.56 -4.67,-3.17 -0.05,-1.62 -3.02,-2.76 -2.79,-1.1 -2.82,0.38 -3.39,0.94 -0.27,2.65 1.42,1.66 3.55,3.49 2.96,2.51 1.65,0.23 2.05,5.77 3.06,0.52 11.9,6.9 15.03,8.78 5.59,0 3.12,-1.07 8.78,1.1 4.04,1.56 5.24,1.58 9.54,2.11 5.5,0.68 4.81,1.63 8.47,3.13 2.8,1.14 7.52,0.62 11.06,1.1l4.25 0.09c-0.07,-0.43 -2.97,-5.17 -3.3,-1.42 14.73,-0.37 4.1,-3.25 12.87,-4.71 4.62,-0.75 6.65,1.38 9.85,-1.83 -2.93,-2.06 -4.19,-1.67 -4.29,-1.7 -2.71,-0.84 -3.58,-1.24 -4.26,-0.62 -1.62,-1.8 -0.89,-0.2 1.54,0.42 2.35,0.63 2.16,0.49 4.72,0.75l0.65 -1.76c0.05,-0.16 0.21,-0.55 0.27,-0.76l0.32 -2.83c-0.02,-0.09 -0.14,-0.38 -0.18,-0.46l-0.63 -0.8c-2.27,-1.89 -0.9,-0.66 -1.79,-0.43 3.47,0.52 8.06,0.39 11.81,0.16 3.74,-0.21 3.21,0.73 5.85,-1.9 1.19,-1.2 2,-4.23 0.92,-2.78l13.38 -1.79c-10.82,0.96 -18.11,-0.06 -28.37,-2.6 -5.94,-1.48 -19.73,-5.06 -25.15,-5.07 -3.72,0.63 -6.39,1.53 -2.51,3.67 4.21,2.33 2.48,-0.15 3.73,2.84 -2.85,3.17 -17.26,2.01 -22.11,1.98 -0.92,4.26 2.65,-1.51 -0.28,2.71l-20.11 -4.26zm26.77 -137.34l-1.41 -31.16c-1.28,-8.58 -2.87,-4.15 -1.77,-10.42 0.75,-4.33 -1.65,-9.57 -1.87,-14.69 -0.38,-9.67 -3.83,-11.19 -5.21,-18.57l-1.16 1.86c-4.44,-7.12 -2.73,-4.25 -4.66,-12.18 -5.33,-1.55 -3.34,0.64 -5.57,-4.79 -1.35,-3.31 -1.75,-5.24 -4.42,-7.5 1.03,13.26 1.5,17.59 4.58,30.22 2.27,9.23 5.12,19 2.9,28.47 -1.83,7.81 -15.85,33.27 18.59,38.76zm-75.52 -8.54c3.46,1.79 6.82,2.68 10.88,2.53 0.56,-4.05 0.69,-8.26 -0.14,-12.02 -2,-9.22 -3.18,-0.22 -4.8,-8.57 -1.38,-7.26 0.73,-3.88 -3.12,-10.63l-4.95 -8.57c-0.9,-1.74 -1.21,-2.94 -1.87,-3.93 -1.72,-2.54 -5.6,-3.75 -6.03,-14.23 -0.23,-5.24 -0.57,-22.04 -1.9,-25.96 -1.43,-2.38 -7.81,-7.93 0.29,-9.36 2.78,-2.81 5.08,-1.19 9.48,-1.32 -0.69,-3.33 -6.38,-15.09 -8.54,-16.77 -0.69,3.32 0.38,1.21 -2.44,3.73 -4.12,3.64 -0.9,0.16 -4.15,5.9l-0.75 1.16c-1.68,2.79 -3.2,5.52 -3.5,9.62 -0.8,0.66 1.92,-0.35 -2.07,-0.13 -0.12,0.02 -0.5,0.02 -0.73,0.08 0.26,4.01 -1.51,13.66 -0.62,19.55 0.88,5.67 0.72,0.91 1.65,5.98 1.6,8.78 1.39,2.6 3.11,11.3 1.09,5.49 2.64,5.16 3.51,10.85 1.3,8.83 3.1,4.87 5.89,10.89 0.15,0.32 0.38,1.59 1.04,2.89 2.14,4.15 2.55,2.39 3.44,4.28l3.93 10.49c2.24,6.23 2.11,4.59 2.39,12.24zm-117.71 -16.83c6.16,-3.78 10.77,-13.41 18.82,-13.98 1.92,-2.52 6.43,-4.23 9.49,-5.65 0.07,-7.31 -6.08,-14.84 -13.02,-17.24 -4.85,-1.69 -6.9,-0.69 -11.3,-4.24 -3.31,-2.64 -3.93,-4.38 -8.34,-6.28l-7.41 -1.44 -6.49 -1.45c2.41,6.69 -1.23,18.63 4.61,29.67l3.32 5.32c1.6,3.02 9.81,11.18 10.32,15.29zm-7.63 11.69c2.68,-2.05 6.91,-8.34 7.63,-11.69 -0.51,-4.11 -8.72,-12.27 -10.32,-15.29l-3.32 -5.32c-5.84,-11.04 -2.2,-22.98 -4.61,-29.67 -1.87,-4.55 -0.43,-8.95 4.79,-9.53 3.75,-2.26 5.94,0.45 11.5,-0.61 0.08,-3.75 -5.07,-8.09 -7.37,-10.9 -2.9,-3.49 -4.98,-8.83 -8.06,-11.59 -0.69,5.13 -10.74,7.81 -11.15,14.51 -0.5,7.7 4.66,-1.18 1.27,8.03 -4.44,12.07 -1.04,24 1.01,35.38 0.68,3.91 1.74,6.65 3.46,10.35 2.33,5.08 0.53,6.81 2.38,11.32 3.64,4.39 -0.66,-0.99 3.24,1.95 7.68,5.74 5.07,8.07 9.55,13.06zm78.39 96.92c-6.39,8.33 -14.11,-1.44 -18.14,-6.14 -4,-4.69 -15.32,-14.4 -19.28,-4.95 6.53,-1.87 5.98,-2.12 11.54,2.07 5.59,4.19 4.44,3.44 8.3,8.96 5.56,7.95 16.25,5.82 22.08,-0.96 10.12,-11.73 5.46,-10.52 21.79,-10.12 11.57,0.28 16.85,-0.02 26.42,7.51 12.43,9.76 21.1,22.98 34.54,33.05 20.45,15.36 43.05,12.77 49.73,17.74 5.42,0.01 19.21,3.59 25.15,5.07 10.26,2.54 17.55,3.56 28.37,2.6 13,-2.17 69.79,-10.23 76.93,-15.94 -6.01,-0.4 -29.54,5.92 -37.73,7.36 -36.35,6.38 -85.19,5.76 -118.24,-10.08 -26.13,-12.51 -31.04,-20.57 -51.68,-38.23 -9.7,-8.3 -17.85,-14.24 -31.51,-14.46 -22.62,-0.34 -18.79,12.8 -28.27,16.52zm57.83 -89.25c2.94,-2.04 2.88,-7.34 4.01,-11.76 1.53,-5.94 0.49,-7.85 -0.71,-13.55 -2.27,-10.91 -1,-16.91 2.71,-27.01 4.89,-13.34 -1.46,-11.96 -10.61,-17.07 -10.03,-5.58 -1.29,-8.28 -18.21,-14.52 1.33,3.92 1.67,20.72 1.9,25.96 0.43,10.48 4.31,11.69 6.03,14.23 0.66,0.99 0.97,2.19 1.87,3.93l4.95 8.57c3.85,6.75 1.74,3.37 3.12,10.63 1.62,8.35 2.8,-0.65 4.8,8.57 0.83,3.76 0.7,7.97 0.14,12.02zm22.54 162.64l1.71 3.74c2.38,3.9 0.56,3.76 -2.33,6.2 5.06,5.19 10.72,7.39 16.66,9.13 4.09,1.19 3.5,2.11 6.16,3.35 3.29,-2.63 6.72,-3.48 11.11,-3.56 4.92,-2.2 2.64,-3.96 2.55,-4.02l25.5 -0.34 2.63 -1.34c-6.08,-1.37 -0.35,-0.81 3.02,-2.79 2.7,-1.84 1.4,0.08 4.74,-1.97 -3.06,-2.1 -4.44,-0.41 -9.66,-2.43l-3.94 -2.16c-3.54,-0.48 -8.26,0.04 -11.06,-1.1 -3.66,-1.5 -2.97,-2.45 -8.47,-3.13 -4.3,-0.53 -5.5,-0.55 -9.54,-2.11 -5.66,-2.17 -3.19,-1.1 -8.78,-1.1 -2.54,1.85 -4.86,1.1 -8.97,1.46l-2.57 -4c-8.34,2.63 -1.85,4.79 -8.76,6.17zm12.1 -169.13c0.02,9.59 11.06,16.75 20.78,19.81 5.09,1.59 6.75,1.13 9.87,4.51l5.62 0.88c6.29,0.35 43.18,13.59 54.41,16.63l40.17 11.95c2.09,0.62 4.85,1.39 6.99,1.82 3.7,0.72 6.12,1.02 8.76,-0.81 -1.28,-3.92 -0.26,-0.97 -3.22,-4.17 -5.35,-0.59 -28.8,-7.87 -32.12,-10.47l-13.09 -4.03c-4.87,-0.14 -76.03,-23.21 -84.16,-26.85l1.57 3.52c-8.23,0.58 -13.6,-7.36 -12.76,-15.56 2.47,0.45 -0.41,-1.85 4.04,1.41l-0.4 -1.13 -4.88 -8.21c-3,4.34 -1.5,5.49 -1.58,10.7zm-160.71 -111.69l25.81 31.41c24.44,30.51 8.97,19.84 41.49,46.38 14.91,12.16 2.71,19.58 25.28,33.74 2.89,1.83 6.2,3.8 9.43,5.21 4.55,2 7.77,4.05 12.33,3.46 -1.15,-3.74 -0.19,-1.12 -2.18,-4.14 -13.01,-4.85 -26.11,-13.63 -31.29,-26.78 -4.06,-10.27 -2.77,-10.28 -11.82,-17.1 -24.47,-18.34 -57.94,-75.23 -68.87,-78.65l-3.49 0.91 3.31 5.56zm116.79 126.84c4.4,0.89 7.49,1.51 10.59,-1.93l-1.99 -3.48c-4.91,-0.58 -8.8,-3.55 -13.23,-5.37 1.99,3.02 1.03,0.4 2.18,4.14 -4.56,0.59 -7.78,-1.46 -12.33,-3.46 -3.23,-1.41 -6.54,-3.38 -9.43,-5.21 -22.57,-14.16 -10.37,-21.58 -25.28,-33.74 -32.52,-26.54 -17.05,-15.87 -41.49,-46.38l-25.81 -31.41c-2.8,-1.82 -7.43,-3.82 -8.81,-6.83l4.45 -1.01c-2.29,-2.03 -2.61,-1.54 -5.94,-0.89 -0.91,6.72 1.28,6.51 6.12,9.14 3.79,2.08 5.17,5.5 7.67,8.93 4.6,6.26 9.74,12.05 14.98,17.81 10.88,11.94 18.74,26.69 28.73,37.9 4.79,5.37 12.21,9.91 17.87,14.96 8.36,7.51 6.47,12.4 11.87,20.86 5.38,8.44 30.15,26.72 39.85,25.97zm14.91 -136.99c0.42,7.06 15.76,25.47 20.81,31.71 9.05,4.62 6.27,20.13 7.78,28.98 1.01,5.92 5.03,23.89 8.64,27.19 1.89,-3.46 0.93,-4.72 0.51,-8.67 0.9,-8.18 -4.93,-19.99 -5.5,-29.17 -1.97,-33.34 -11.62,-23.7 -22.83,-46.43 -2.9,-5.86 -8.46,-18.7 -15.81,-18.78l-3.78 0.58c1.76,2.79 4.33,4.42 5.43,6 3.79,5.42 4.18,5.07 4.75,8.59zm246.53 129.49c1.42,2.38 3.29,-1.12 0.53,2.91 -7.47,1.09 -24.6,10.3 -31.26,15.12 -10.97,7.97 -14.6,13.13 -21.72,24.42 -4.86,-4.07 -9.44,3.98 -12.26,-1.14 -12.23,2.21 -29.1,-6.53 -41.55,-8.81 3.32,2.6 26.77,9.88 32.12,10.47 4.97,0.89 8.44,1.22 13.58,1.04 6.72,-0.23 7.1,-1.54 11.38,3.62 2.99,-0.88 1.57,-0.29 3.58,-2.17 0.03,-0.02 1.51,-1.97 1.67,-2.17 1.79,-2.51 2.61,-3.15 2.8,-5.38 0.94,-10 32.94,-32.87 44.16,-34.42 9.64,-2.12 15.9,-5.39 27.2,-6.77 4.76,-0.59 11.59,-0.75 16.42,-0.64 5.04,0.1 12.33,1.2 16.64,0.77l3.04 -0.69c-12.17,-1.69 -22.65,-2.21 -35.14,-1.8 -5.12,0.16 -11.73,1.12 -16.83,2.01 -4.81,0.86 -10.08,3.1 -14.36,3.63zm473.32 -121.08l0.7 4.26c-8.44,0.08 -2.05,-4.8 -16.5,-16.04 -1.09,-0.85 -1.84,-1.2 -2.76,-1.96 -2.93,-2.4 -1.46,-0.36 -2.96,-3.67 3.95,-0.65 1.2,-0.79 5.66,0.22 -7.18,-6.72 -20.3,-4.98 -29.62,-5.49l0.34 2.5c-8.86,1.95 -15,-1.53 -22.78,-5.31 -4.71,-2.3 -15.12,-7.46 -18.34,-11.16l0.62 -3.34c-10.67,4.09 8.88,12.98 13.64,15.67 30.39,17.21 32.81,4.7 51.6,14.05 8.22,4.1 13.31,10.51 13.38,19.98 0.76,0.46 1.76,0.63 1.79,0.64 5.93,3.57 -0.96,4.48 5.97,6.56 1.52,-4.66 2.38,-13.16 -0.74,-16.91zm-522.5 168.71c-4.28,-5.16 -4.66,-3.85 -11.38,-3.62 -5.14,0.18 -8.61,-0.15 -13.58,-1.04 2.96,3.2 1.94,0.25 3.22,4.17 -2.64,1.83 -5.06,1.53 -8.76,0.81 -2.14,-0.43 -4.9,-1.2 -6.99,-1.82l-40.17 -11.95c-11.23,-3.04 -48.12,-16.28 -54.41,-16.63l3.74 2.66c1.3,0.68 2.64,1.16 4.08,1.72 2.63,1.02 5.18,1.85 7.74,2.74 5.35,1.87 10.65,3.58 15.85,5.36 11.6,3.95 21.73,6.9 33.04,10.41 11.4,3.54 22.58,6.6 33.67,9.82 12.86,3.72 22.25,3.1 33.95,-2.63zm-137.69 -30.96c-3.12,-3.38 -4.78,-2.92 -9.87,-4.51 -9.72,-3.06 -20.76,-10.22 -20.78,-19.81 -2.48,-2.49 -3.23,-4.53 -1.95,-10.52 2.7,-12.5 8.62,-11.77 2.91,-34.96 -1.55,-6.24 -3.58,-15.28 -4.31,-21.66 -2.67,-23.38 -0.53,-7.54 -4.85,-22.99 -5.05,-6.24 -20.39,-24.65 -20.81,-31.71 -3.59,-2.31 -3.17,-4.27 -6.78,-7.34 -3.01,-2.54 -4.74,-2.83 -8.09,-5.65l0.25 -4.32c-7.96,1.56 -7.49,2.99 -4.74,10.07 21.14,-0.68 10.48,7.8 29.55,29.28 16.59,18.71 10.14,23.53 15.98,45.78 1.84,7.05 5.2,17.84 3.47,24.82 -2.39,9.68 -6.51,14.8 -4.72,25.68 2.8,16.99 18.53,26.6 34.74,27.84zm73.9 115.59c20.28,1.27 65.85,-8.08 87.05,-15.42 5.13,-1.79 20.74,-6.24 23.92,-11.14 -11.39,0.77 -41.66,10.98 -54.93,14.39 -8.37,2.16 -53.9,10.76 -56.04,12.17zm407.67 -245.32c-51.51,14.33 -67.35,33.1 -104.79,60 -18.23,13.09 -34.81,18.87 -55.6,26.59 -19.44,7.23 -39.59,17.67 -58.76,24.23 2.48,1.15 56.31,-20.46 63.04,-22.82 17.36,-6.09 43.45,-19.66 58.18,-30.7 16.98,-12.74 33.34,-26.45 51.75,-37.14 22.38,-12.96 41.79,-15.59 65.1,-23.75l-1.97 -0.15 -16.95 3.74zm-642.31 189.99l0.2 0.07c3.96,-9.45 15.28,0.26 19.28,4.95 4.03,4.7 11.75,14.47 18.14,6.14 -12.74,2.47 -11.27,-4.12 -19.2,-10.95 -12.93,-11.19 -11.24,-4.08 -23.24,-2.22l2.6 -3.41c-8.84,-6.32 4.6,-10.3 -9.84,-24.7 -14.1,-14.04 -5.65,-7.93 -20.92,-14.01 -8.29,-3.29 -9.8,-17.69 -8.46,-25.59 1.82,-10.79 6.94,-15.99 10.18,-25.01 -12.07,8.37 -19.55,40.99 -4.82,51.93 2.59,1.94 11.77,2.74 21.55,14.19 11.89,13.96 2.81,17.01 8.03,28.39l6.5 0.22zm350.64 -73.44c-2.98,2.95 -2.18,0.76 -4.08,4.09 6.54,1.37 28.43,-3.25 38.03,-3.51 14.76,-0.38 35.81,4.34 38.71,3.59l-0.28 -5.57 -0.67 0.08 -0.99 3.95c-5.84,-1.21 -10.75,-2.77 -16.73,-3.9 -3.03,-0.57 -5.62,-1.6 -8.56,-1.86 -1.48,-0.14 -3.47,0.01 -4.72,-0.15 -5.2,-0.65 -1.31,0.74 -4.23,-1.41 5.38,-3.59 17,-0.81 23.78,-0.61l0 -1.34c-4.31,0.43 -11.6,-0.67 -16.64,-0.77 -4.83,-0.11 -11.66,0.05 -16.42,0.64 -11.3,1.38 -17.56,4.65 -27.2,6.77zm-364.96 -37.99c-8.05,0.57 -12.66,10.2 -18.82,13.98 -0.72,3.35 -4.95,9.64 -7.63,11.69 -0.38,3.57 -2.8,7.37 -4.06,10.96 -1.66,4.78 -1.83,7.29 -2.54,12.12 0.35,9.05 2.6,10.47 3.5,16.79l6.4 6.49c8.32,0.51 8.16,0.74 13.91,6.25 17.01,16.34 12.27,13.44 12.92,27.55 0.35,7.23 4.74,10.68 10.64,5.6l-6.5 -0.22c-5.22,-11.38 3.86,-14.43 -8.03,-28.39 -9.78,-11.45 -18.96,-12.25 -21.55,-14.19 -14.73,-10.94 -7.25,-43.56 4.82,-51.93 2.66,-5.01 15.4,-14.17 21.3,-17.24l-4.36 0.54zm86.96 -50.57c16.92,6.24 8.18,8.94 18.21,14.52 9.15,5.11 15.5,3.73 10.61,17.07 -3.71,10.1 -4.98,16.1 -2.71,27.01 1.2,5.7 2.24,7.61 0.71,13.55 -1.13,4.42 -1.07,9.72 -4.01,11.76 2.25,1.31 0.27,1.19 3.01,0.63 4.46,-6.96 4.75,-19.73 3.49,-27.82 -2.68,-17.24 -0.27,-13.35 3.29,-27.28 3.88,-15.14 -6.42,-12.1 -13.95,-18.33 -4.5,-3.74 -3.07,-7.56 -7.03,-9.21 -2.23,-0.96 -3.76,-0.59 -6.07,-1.93l-2.13 -1.8c-1.81,-2.22 -1.02,0.35 -1.46,-2.98 -2.33,-0.15 -1.57,0.29 -3.36,-1.49l3 -1.97c1.23,-1.66 -1.53,-1.19 1.55,-1.34l-2.86 0.25c-8.1,1.43 -1.72,6.98 -0.29,9.36zm57.45 77.42c0.08,-5.21 -1.42,-6.36 1.58,-10.7l4.88 8.21c-1.61,-9.66 -3.44,-10.68 0.6,-20.32 2.44,-5.86 5.91,-14.42 1.67,-19.82 0.42,3.95 1.38,5.21 -0.51,8.67 -3.61,-3.3 -7.63,-21.27 -8.64,-27.19 -1.51,-8.85 1.27,-24.36 -7.78,-28.98 4.32,15.45 2.18,-0.39 4.85,22.99 0.73,6.38 2.76,15.42 4.31,21.66 5.71,23.19 -0.21,22.46 -2.91,34.96 -1.28,5.99 -0.53,8.03 1.95,10.52zm-56.22 -104.87c2.16,1.68 7.85,13.44 8.54,16.77 -4.4,0.13 -6.7,-1.49 -9.48,1.32l2.86 -0.25c-3.08,0.15 -0.32,-0.32 -1.55,1.34l6.8 -0.49 5.82 -0.11c1.68,-10.39 -14.73,-24.21 -11.09,-43.22 1.31,-6.86 2.86,-8.57 8.81,-10.33l-3.62 0.04c-6.53,0.16 -9.09,8.57 -10.01,14.22 -1.5,9.17 2.24,12.92 2.92,20.71zm209.03 153.83c2.82,5.12 7.4,-2.93 12.26,1.14 7.12,-11.29 10.75,-16.45 21.72,-24.42 6.66,-4.82 23.79,-14.03 31.26,-15.12 2.76,-4.03 0.89,-0.53 -0.53,-2.91 -13.42,6.17 -23.1,8.93 -35.53,18.03 -4.55,3.31 -10.28,8.41 -13.81,12.28 -6.45,7.02 -4.77,9.01 -15.37,11zm492.55 -185.07c-4.41,-0.8 -12.76,-2.91 -15.02,-6.18 -6.24,-0.64 -15.3,-9.47 -25.14,-11.13l-0.62 3.34c3.22,3.7 13.63,8.86 18.34,11.16 7.78,3.78 13.92,7.26 22.78,5.31l-0.34 -2.5zm-218.11 139.57l0.74 -1.16c3.41,-5.82 6.94,-13.76 12.13,-17.75 4.9,-3.79 15.08,-8.92 17.8,-14.07 -16.94,4.52 -44.86,34.48 -30.67,32.98zm-134.99 6.36c-0.4,-3.23 -1.01,-2.52 -5.01,-3.39 -2.65,-0.56 -3.87,-0.83 -6.44,-0.59 -6.78,-0.2 -18.4,-2.98 -23.78,0.61 2.92,2.15 -0.97,0.76 4.23,1.41 1.25,0.16 3.24,0.01 4.72,0.15 2.94,0.26 5.53,1.29 8.56,1.86 5.98,1.13 10.89,2.69 16.73,3.9l0.99 -3.95zm-472.88 -105.6c3.08,2.76 5.16,8.1 8.06,11.59 2.3,2.81 7.45,7.15 7.37,10.9 1.45,2.8 -0.32,2.14 2.62,1.64 1.08,-8.9 -9.65,-14.53 -12.65,-22.21 -2.44,-6.19 -5.97,-13.7 -2.47,-21.11 2.48,-5.26 3,-3.38 0.86,-5.42 -8.27,11.16 -3.85,13.41 -3.79,24.61zm871.46 -17.65c-0.6,-7.01 -9.43,-15.01 -15.86,-17.19 -4.46,-1.01 -1.71,-0.87 -5.66,-0.22 1.5,3.31 0.03,1.27 2.96,3.67 0.92,0.76 1.67,1.11 2.76,1.96 14.45,11.24 8.06,16.12 16.5,16.04l-0.7 -4.26zm-825.76 80.93c-3.06,1.42 -7.57,3.13 -9.49,5.65l4.36 -0.54c18.65,-4.29 5.1,-21.47 -2.02,-25.36 -4.79,-2.61 -7.85,-1.57 -11.8,-3.71 -5.29,-2.9 -2.93,-4.96 -10.42,-5.03 3.21,2.17 5.88,4.57 8.84,6.61 3.98,2.79 6.7,1.85 11.15,4.07 6.93,3.42 12.59,10.52 10.87,18.86 -1.98,1.51 -0.18,0.53 -1.49,-0.55zm692.79 -88.51c1.53,2.44 10.95,-3.87 13.64,-5.57 19.91,-12.49 8.46,-5.14 17.94,-13.98 2.08,-1.94 3.76,-2.72 5.71,-4.89 3.69,-4.17 7.12,-9.8 13.13,-9.15 -15.15,-2.65 -16.27,7.42 -23.52,17.08 -3.05,4.07 -21.33,13.52 -26.9,16.51zm-692.79 88.51c1.31,1.08 -0.49,2.06 1.49,0.55 1.72,-8.34 -3.94,-15.44 -10.87,-18.86 -4.45,-2.22 -7.17,-1.28 -11.15,-4.07 -2.96,-2.04 -5.63,-4.44 -8.84,-6.61l-3.29 1.23c4.41,1.9 5.03,3.64 8.34,6.28 4.4,3.55 6.45,2.55 11.3,4.24 6.94,2.4 13.09,9.93 13.02,17.24zm148.93 41.77c-0.13,-0.4 -5.66,-7.71 -7.15,-10.63 -4.45,-3.26 -1.57,-0.96 -4.04,-1.41 -0.84,8.2 4.53,16.14 12.76,15.56l-1.57 -3.52zm-163.75 -20.75c3.63,-1.47 7,-3.96 10.51,-5.86 3.87,-2.1 7.5,-3.22 9.36,-6.45 -9.52,-1.07 -17.38,2.86 -19.87,12.31zm-31.74 -51.67l6.49 1.45c0.31,-3.86 -0.47,1.71 3.07,-3.28l-2.26 -4.38 0.76 -0.41c-0.49,-2.72 -0.87,-2.14 -3.27,-2.91 -5.22,0.58 -6.66,4.98 -4.79,9.53zm152.47 -58.69c-0.57,-3.52 -0.96,-3.17 -4.75,-8.59 -1.1,-1.58 -3.67,-3.21 -5.43,-6l3.78 -0.58c-3.28,-2.8 -4.11,-1.56 -8.22,-2.14l-0.25 4.32c3.35,2.82 5.08,3.11 8.09,5.65 3.61,3.07 3.19,5.03 6.78,7.34zm-14.91 136.99c4.46,5.42 13.07,0.78 18.81,-1.55 -2.22,-2.46 1.02,-0.29 -2.87,-2.33 -0.18,-0.1 -2.11,-0.67 -2.11,-0.7 -1.87,-0.5 -3.13,-0.71 -5.23,-0.83l1.99 3.48c-3.1,3.44 -6.19,2.82 -10.59,1.93zm-116.79 -126.84l-3.31 -5.56 3.49 -0.91 -4.54 -1.37 -4.45 1.01c1.38,3.01 6.01,5.01 8.81,6.83zm104.86 26l0.36 3.46 7.65 -1.21 -1.21 -2.74 -6.8 0.49zm-34.99 173.27c0.78,-3.99 -0.19,-1.05 -1.39,-2.74 -2.41,1.51 -1.66,-0.58 -2.34,2.68 -0.85,4.1 0.34,1.44 1.04,2.78 2.66,-1.44 2,0.87 2.69,-2.72zm-64.29 256.2l1.39 -0.61c-1.67,-2.77 -5.38,-8.85 -7.96,-8.8l6.57 9.41zm339 187.48c-2.91,-2.5 -9.4,-2.36 -13.61,-2.47 3.14,1.93 9.48,2 13.61,2.47zm134.86 -304.56l-2.39 -2.3 -5.01 0.99 7.4 1.31zm-374.22 -308.93l-0.36 -3.46 -3 1.97c1.79,1.78 1.03,1.34 3.36,1.49zm393.93 543.88l1.06 3.2 0.02 -0.74c0.69,-1.41 1.03,-1.88 1.15,-2.29l-0.41 -2.21 -1.82 2.04zm-490.64 -115.1l-0.02 -0.88 -0.02 -0.05c-0.04,-0.79 -0.01,-1.35 0.01,-1.74 -0.13,-0.23 -0.51,-0.28 -1.51,-0.71l-1.39 0.61 2.93 2.77zm-99.21 -200.06l-2.19 -7.06c0.37,3.39 0.26,4.73 2.19,7.06zm598.34 230.57l-1.41 0.14 0.93 1.95 0.48 -2.09zm-520.35 -446.83l-0.76 0.41c-0.69,2.35 -0.98,0.71 0.52,1.92 1.04,-1.87 0.83,-0.24 0.24,-2.33z"/>
   </g>
   <path class="fil0 str0" d="M928.23 878.52c-5.4,9.74 -11.97,15.96 -15.56,28.53 -2.32,4.96 -8.95,22.94 -12,25.34 -0.81,10.72 -68.18,153.22 -71.8,168.29 3.71,-3.13 38.56,-66.06 43.73,-75.54 6.99,-12.8 14.38,-25.61 21.62,-38.29 8.32,-14.6 21.02,-23.69 36.27,-11.59 2.57,-0.04 6.29,6.03 7.96,8.81 2.22,0.96 1.39,0.04 1.53,3.38l43.44 91.78c3.44,7.08 12.14,23.89 13.94,30.76 -13.33,10.88 -65.69,24.38 -83.93,27.58 -33.81,5.94 -69.54,7.09 -103.8,7.09 -13.27,30.3 -31.65,59.23 -51.87,85.32 -22.33,28.8 -43.5,47.62 -79.93,56.2 -36.63,8.65 -76.72,1.21 -100.94,-29.34 -22.19,-27.99 -31.11,-69.23 -31.54,-104.28 -0.67,-53.01 28.69,-167.04 83.59,-189.53 43.5,-17.82 61.87,28.64 65.9,62.64 5.31,44.91 -2.53,80.4 -8.88,123.88 24.1,-3.36 54.69,-21.14 70.87,-39.29 23.06,-25.87 22.6,-53.12 10.56,-84.49 -33.46,-87.11 -193.48,-141.99 -281.15,-25.78 -39.86,52.85 -48.4,109.61 -41.45,174.19 -5.44,-7.11 -13.36,-26.87 -17.71,-36.03l-84.49 -181.14c-8.42,-18.31 -23.66,-55.75 -35.14,-70.12 -17.6,-22.07 -55.01,-24.02 -73.38,-1.92 -10.65,12.8 -26.7,54.83 -34.02,72.2 -10.39,24.68 -21.24,49.7 -32.09,74.18 -10.09,22.75 -23.74,50.99 -31.63,74.02 4.15,-4.47 53.14,-92.54 60.22,-105.33 6.03,-10.9 14.16,-26.85 28.79,-26.66 14.99,0.18 22.08,16.59 27.49,28.02l35.1 75c4.44,10.08 14.49,28.03 16.99,37.46 -13.23,10.89 -65.75,24.39 -83.87,27.53 -35.29,6.12 -68.35,6.4 -103.92,7.22 -3.32,10.18 -15.7,31.22 -21.67,41.08 -44.81,74.02 -89.56,86.36 -95.44,93.45 38.27,0.72 139.33,-39.08 174.48,-58.81 31.08,-17.44 126.11,-86.99 138.75,-93.22 7.68,12.16 16.11,33.41 22.48,47.18 7.33,15.85 14.67,31.69 22.01,47.54 6.94,14.96 12.61,33.41 26.92,42.62 15.3,9.84 44.53,6.68 62.84,6.68 48.97,0 36.15,-4.35 54.44,15.13 10.05,10.7 26.74,22.8 39.59,29.95 68.68,38.28 148.1,16.8 200.5,-40.27 7.12,-7.76 7.86,-13.09 19.05,-15.77 9,-2.15 17.91,-5.11 26.65,-8.14 78.65,-27.27 111.18,-55.9 177.06,-101.04 12.52,-8.58 27.98,-20.74 40.96,-27.64 3.81,5.3 39,83.03 45.02,96.02 7.11,15.35 12.86,33.8 28.16,42.38 16.89,9.48 45.21,4.23 64.8,5.68 -1.67,20.55 -8.93,62.22 -33.38,66.04 10.27,1.63 154.79,1.45 160.94,1.03 -23.33,-11.19 -22.64,-53.16 -24.61,-76.02 -2.72,-31.48 -3.61,-63.46 -6.52,-95.02l1.92 -0.37c-3.7,-3.99 -2.94,-22.5 -3.21,-29.08 -0.43,-10.63 -1.04,-21.23 -1.31,-31.88 -3.02,-33.45 -2.63,-86.77 10.72,-117.74 6.74,-15.65 18.25,-27.79 35.94,-29.69 12.9,-1.38 40.16,5.93 47.36,16.91 31.16,23.25 27.26,93.51 12.42,125.5 -3.69,9.82 -18.21,37.34 -26.12,42.42 -3.21,7.65 -28.26,26.6 -37.39,28.51l-5.28 3.62c7.71,1.31 22.13,-1.11 31.04,-1.11 4.94,-1.88 14.85,-2.85 20.68,-4.03 6.53,-1.31 13.13,-2.96 19.46,-4.78 32.46,-9.31 71.57,-31.78 84.25,-63.18l1.81 -2.05c0.66,3.93 0.87,2.21 -0.7,5.42 -0.28,19.61 -3.83,39.34 -2.62,59.53l-3.11 1.49c4.65,0.15 3.29,2.65 3.76,7.74 0.81,8.54 3.43,19.38 6.52,27.28 23.37,59.82 96.24,77.16 151.99,66.59 37.32,-7.08 46.84,-21.58 61.47,-27.25 0.19,18.63 -5.32,22.51 -20.13,29.92l146.99 -0.03c-6.15,-15.18 -6.55,-21.23 -7.49,-37.64 -0.83,-14.39 -2.72,-27.36 -4.16,-41.56 -2.92,-28.79 -4.14,-57.89 -3.94,-86.84 0.12,-17.61 4.57,-168.72 6.92,-173.6 -2.7,-4.09 -0.91,-13.03 -1.28,-18.58 -0.35,-5.46 -2.25,-10.33 -3.7,-15.47 -0.69,-0.61 -6.64,-9.7 -8.44,-11.84 -8.92,-10.63 -26.75,-19.31 -40.82,-20.01l-80.97 0.28c35.71,7.67 32.8,36.15 32.77,60.54l1.15 91.23 0.06 15.01c-0.03,6.02 0.94,13.91 -1.04,19.46 3.4,6.58 -2.43,81.29 -3.76,93.91 -2.93,27.94 -9.75,48.04 -34.34,64.17 -20.73,13.59 -54.29,19.49 -73.73,0.69 -15.46,-14.96 -24.7,-55.64 -22.58,-76.02 -6.97,-18.72 5.57,-165.12 7.36,-196.36 1.82,-31.58 6.67,-59.88 -30.61,-70.08 -26.89,-7.37 -70.36,-0.36 -99.48,-3.18l2.38 2.29c19.72,4.58 28.4,21.14 29.74,40.3 0.68,9.72 3.43,61.75 0.25,66.48 2.01,11.54 -2.01,31 -1.53,43.55l-0.71 3.04 -1.34 -2.82c-2.11,-11.32 -15.5,-28 -23.49,-36.14 -10.52,-10.73 -20.58,-17.77 -33.65,-25.28 -26.83,-15.42 -63.09,-23.47 -93.92,-24.38l-167.92 -0.06c7.28,4.18 26.72,7.38 30.91,31.17 3.27,18.48 6.59,173.5 4.4,178.3 1.87,8.2 -0.79,49.59 -1.97,60.01 -2.88,-3.17 -34.36,-70.81 -35.02,-75.51 -2.63,-2.84 -44.53,-91.72 -45.31,-96.13l-33.15 -70.15 -20.05 -43.43c-10.85,-17.67 -11.02,-32.87 -32.15,-44.69 -9.91,-5.54 -20.42,-7.77 -32.17,-5.93 -14.57,2.29 -16.48,8.61 -25.61,12.59zm313.85 288.57l20.37 2.6c4.22,0.12 10.7,-0.03 13.61,2.46l4.43 -0.11c9.13,-1.91 34.18,-20.86 37.39,-28.51l-33.93 -0.2c-2.64,-5.49 0.42,-4.6 -8.43,-5.95 -4.52,-0.69 -7.42,-0.81 -12.37,-0.85 -0.02,-4.14 0.44,-8.91 -0.91,-12.63 -4.27,-1.37 -10.94,-0.94 -15.95,-0.81 -12.21,-12.41 -3.32,-10.27 -8.73,-16.96 0.27,10.65 0.88,21.25 1.31,31.88 0.27,6.58 -0.49,25.09 3.21,29.08zm1270.03 -210.31c42.75,-5.38 59.74,32.99 62.98,68.63 5.97,65.66 -29.59,280.09 -105.14,289.55 -43.3,5.42 -60.33,-32.67 -63.77,-68.82 -3.6,-37.75 3.53,-81.93 11.24,-119.06 9.87,-47.47 35.96,-162.91 94.69,-170.3zm-195.72 225.02c10.17,40.28 23.78,71.12 52.24,101.96 25.9,28.04 62.08,48.12 99.99,53.44 83.68,11.74 155.41,-43.23 185.35,-118.55 30.95,-77.91 15.92,-171.62 -42.79,-232.5 -59.78,-61.98 -150.77,-71.94 -219.96,-18.65 -49.15,37.86 -73.05,92.11 -78.73,152.31 -3.28,34.88 11.03,40.92 -13.98,60.25 -16.71,12.91 -26.38,21.93 -46.52,30.68 -21.22,9.23 -42.23,12.84 -65.33,9.87 -43.47,-5.59 -67,-34.15 -79.64,-74.12 -14.08,-44.5 -12,-89.04 0.22,-133.61 9.32,-34.01 26.35,-76.73 51.35,-102.2 14.46,-14.72 34.72,-24.66 55.24,-16 17.55,7.41 26.1,29.14 30.05,46.38 10.14,44.3 1.72,96.24 -6.32,140.46 30.03,-4.43 67.12,-27.25 82.31,-54.02 17.46,-30.78 1.66,-75.25 -18.94,-101 -43.89,-54.85 -131.13,-76.48 -195.29,-48.49 -111.78,48.76 -146.24,212.38 -72.38,319.05 13.58,19.61 19.19,21.72 31.27,35.59 -10.12,10.61 -41.72,32.86 -54.77,40.1 -22.28,12.36 -44.62,18.78 -69.52,24.13 -22.89,4.91 -31.8,13.16 -40.38,-47.5 -10.67,-75.35 -8.72,-190.63 6.25,-262.79 6.87,-33.11 5.85,-52.24 -33.98,-53.51l-93.91 0.6c16.58,4.65 26.89,14.61 29.41,32.2 2.37,16.46 1.32,42.6 1.67,60.09 0.83,40.78 0.47,81.85 -0.52,122.62 -0.61,24.94 -4.19,147.97 -18.76,167.14 -15.04,19.78 -39.38,22.61 -37.68,22.8 4.93,0.58 247.2,0.97 263.65,-0.49 16.58,-1.48 24,-5.72 31.75,-20.53 11.95,-22.84 19.03,-51.22 31.24,-73.83 23.57,12.65 34.62,21 62.7,25.57 25.71,4.19 53.21,1.71 77.8,-6.9 68.25,-23.89 87.58,-72.17 96.91,-80.55z"/>
  </g>
 </g>
</svg>
