<?xml version="1.0" encoding="UTF-8"?>
<!DOCTYPE svg PUBLIC "-//W3C//DTD SVG 1.1//EN" "http://www.w3.org/Graphics/SVG/1.1/DTD/svg11.dtd">
<!-- Creator: CorelDRAW 2017 -->
<svg xmlns="http://www.w3.org/2000/svg" xml:space="preserve" width="19.026mm" height="15mm" version="1.1" style="shape-rendering:geometricPrecision; text-rendering:geometricPrecision; image-rendering:optimizeQuality; fill-rule:evenodd; clip-rule:evenodd"
viewBox="0 0 1902.6 1500"
 xmlns:xlink="http://www.w3.org/1999/xlink">
 <defs>
  <style type="text/css">
   <![CDATA[
    .fil0 {fill:#2B2A29}
   ]]>
  </style>
 </defs>
 <g id="Capa_x0020_1">
  <metadata id="CorelCorpID_0Corel-Layer"/>
  <g id="_2190422349376">
   <path class="fil0" d="M298.81 1205.59c9.5,7.63 4.49,-6.55 9.77,12.06 7.36,-3.62 11.16,-7.9 17.93,-9.94 12.71,-3.84 20.03,-2.1 29.8,0.45 7.22,50.23 -8.68,5.28 13.11,63.61 2.66,7.11 2.94,13.74 5.58,19.82l5.17 -1.57c7.12,-4.31 8.11,-9.46 13.16,-17.51 16.98,-27 5.65,-2.81 15.04,-28.17l9.65 -12.25c13.5,-2.31 -2.82,-8.39 7.52,2.35l30.32 -56.74c29.85,69.52 -147.88,268.82 -160.37,293.2 63.97,-12.49 132.88,-172.4 190.6,-171.51l12.31 20.96c9.02,-23.53 40.8,-55.36 33.04,-88.64 -19.86,-4 -29.66,3.96 -45.19,9.46 9.31,-19.94 26.75,-40.94 39.93,-69.44 11.15,-24.08 21.3,-51.56 27.36,-79.91 13.3,-62.31 3.65,-149.96 -80.47,-121.95 -50.85,16.93 -98.34,58.07 -131.84,85.83 -20.48,16.97 -90.69,87.87 -102.83,110.84 31.49,-9.22 76.25,-63.09 111.05,-65.91 -0.53,23.98 -38.02,95.18 -50.64,104.96zm-57.03 -510.91l141.58 84.03c0.29,0.22 1.07,0.93 1.54,1.45l16.19 4.57 59.34 -18.31 -28.77 -16.39 63.93 -16.86 22.29 -103.49c4.06,-11.59 5.51,-58.27 4.31,-74.43 -2.03,-27.64 -8.24,-24.71 -10.77,-29.49 -5.8,-11 -2.5,-19.28 -7.54,-28.75l3.87 24.19c-13.83,11.33 -12.45,-2.32 -13.88,34.36l-130.76 1.89c-5.79,0.35 -1.05,0.31 -7.73,0.2l-21.5 -1.99 15.18 29.09c-11.76,-3.7 -54.23,-40.24 -67.43,-50.14 -15.43,-11.57 -51.25,-44.76 -75.76,-38.21 -13.44,64.37 28.79,88.86 72.32,125.89 12.21,10.4 24.64,24.72 34.33,31.2 -22.55,-10.15 -94.77,-48.47 -119.61,-51.56 7.16,24.18 33.76,75.43 48.87,92.75zm78.02 -300.49c-19.48,-20.99 -57.79,-68.95 -96.01,-66.44 -0.91,26.2 101.03,207.84 110.09,227.91l21.5 1.99c6.68,0.11 1.94,0.15 7.73,-0.2l130.76 -1.89c1.43,-36.68 0.05,-23.03 13.88,-34.36l-3.87 -24.19c5.04,9.47 1.74,17.75 7.54,28.75 2.53,4.78 8.74,1.85 10.77,29.49 1.2,16.16 -0.25,62.84 -4.31,74.43 15.19,-65.24 -6.94,-190.51 -30.35,-242.6l-13.84 1.23c-3.79,-21.17 -4.65,20.6 -13.21,-25.67 -2.68,-14.47 -4.44,-22.71 -8.74,-36.49 -3.21,10.78 -2.6,28.96 -0.64,40.29 2.34,13.55 8.28,24.38 0.64,36.66 -15.66,-3.82 -11.02,-2.07 -12.45,-22.29l-12.72 8.81c-0.34,-0.71 -1.5,1.23 -2.25,1.84 -9.59,-14.67 0.1,-6.06 -10.08,-11.17 -3.79,9.11 1.3,5.05 -7.95,8.35 10.16,6.62 12.04,4.49 7.42,17.93 -17.15,-4.25 -0.28,1.24 -11.83,-7.08l-6.58 -4.96c-35.96,-25.54 -15.17,-22.98 -43.21,-5.37l-3.3 1.88c-20.32,12.92 -6.27,16.75 -11.54,27.31 -20.67,-15.96 -16.85,-12.28 -17.45,-24.16zm0 0c0.6,11.88 -3.22,8.2 17.45,24.16 5.27,-10.56 -8.78,-14.39 11.54,-27.31l3.3 -1.88c28.04,-17.61 7.25,-20.17 43.21,5.37l6.58 4.96c11.55,8.32 -5.32,2.83 11.83,7.08 4.62,-13.44 2.74,-11.31 -7.42,-17.93 9.25,-3.3 4.16,0.76 7.95,-8.35 10.18,5.11 0.49,-3.5 10.08,11.17 0.75,-0.61 1.91,-2.55 2.25,-1.84l12.72 -8.81c1.43,20.22 -3.21,18.47 12.45,22.29 7.64,-12.28 1.7,-23.11 -0.64,-36.66 -1.96,-11.33 -2.57,-29.51 0.64,-40.29 4.3,13.78 6.06,22.02 8.74,36.49 8.56,46.27 9.42,4.5 13.21,25.67l13.84 -1.23c-3.79,-21.94 -17.38,-58.37 -24.3,-78.62 -15.59,-45.58 -31.92,-131.54 -31.92,-180.34 0,-59.45 8.81,-81.14 8.76,-99.01 -24.72,26.8 -47.15,110.98 -49.44,156.06 -1.72,33.93 -1.5,70.45 2.23,100.53 3.7,29.92 12.55,66.55 13.25,91 -29.92,-9.95 -116.47,-130.78 -139.24,-182.58 -7.51,-17.1 -7.19,-22.71 -18.43,-32.83 -2.72,105.07 75,217.18 80.02,240.1l-8.66 -7.2zm-140.42 319.82c11.4,8.26 35.17,14.4 44.32,28.01 -72.68,3.85 -123.74,2.03 -189.94,-20.47 -24.2,-8.22 -20.52,-2.44 -21.53,-1.91 34.31,21.33 84.85,38.14 132.39,44.43l-48.77 35.72 152.68 38.73c8.69,-7.86 -2.01,-2.82 12.47,-5.94 2.82,-0.61 15.17,-0.45 19,-0.56 4.07,-10.18 -1.76,-4.1 6.64,-13.94l6.35 -5.55c3.63,-2.92 0.86,2.13 7.07,-5.1l-23.2 -42.98c-4.2,-9.32 -4.9,-7.78 -6.49,-21.16 -2.34,-11.34 -2.07,-7.65 -9.84,-19.19 -4.81,-7.14 -7.41,-14.73 -14.52,-19.92l-63.37 -35.01c-0.86,11.35 4.41,14.94 13.17,20.9 14.96,10.18 7.72,6.44 17.84,6.68 -5.42,2.06 -11.86,3.11 -18.07,5.93l-16.2 11.33zm184.44 126.76l-1.94 4.49c24.94,8.65 11.93,7.42 34.25,21.52 58.76,37.17 86.33,17.46 124.72,5.84 3.76,-13.6 5.36,-11.11 13.68,-19.4 -18.31,-10.6 -22.14,0.67 -39.81,-18.8 -8.05,-3.42 -74.41,-37.53 -77.46,-41.59 -11.58,-3.73 -7.37,-0.6 -16.17,-8.1l-16.19 -4.57c-6.32,22.79 -14.93,-2.35 -20.62,24.81l40.3 3.46c-12,4.16 -8.1,-0.94 -11.71,12.94l-34.01 0c3.46,7.8 3.72,9.21 4.96,19.4zm-115.29 -2.25l45.48 10.2c-30.19,17.75 -96.38,14.26 -118.85,38.85 12.94,67 187.57,-33.75 187.64,-33.8l-0.92 -8.51 1.94 -4.49c-25.88,-8.79 -52.88,-50.28 -71.2,-72.69l-22.25 -24.79c1.59,13.38 2.29,11.84 6.49,21.16l23.2 42.98c-6.21,7.23 -3.44,2.18 -7.07,5.1l-6.35 5.55c-8.4,9.84 -2.57,3.76 -6.64,13.94 -3.83,0.11 -16.18,-0.05 -19,0.56 -14.48,3.12 -3.78,-1.92 -12.47,5.94zm177.01 395.92c-10.34,-10.74 5.98,-4.66 -7.52,-2.35l-9.65 12.25c-9.39,25.36 1.94,1.17 -15.04,28.17 -5.05,8.05 -6.04,13.2 -13.16,17.51l-5.17 1.57c-2.64,-6.08 -2.92,-12.71 -5.58,-19.82 -21.79,-58.33 -5.89,-13.38 -13.11,-63.61 -9.77,-2.55 -17.09,-4.29 -29.8,-0.45 -6.77,2.04 -10.57,6.32 -17.93,9.94 -5.28,-18.61 -0.27,-4.43 -9.77,-12.06 -8.24,21.24 -29.08,40.73 -33.82,58.82 11.81,-9.28 23.2,-19.78 37.1,-30.29 81.18,-61.38 31.2,50.76 18.53,83.54 -19.11,49.44 -20.5,55.64 -8.65,103.52 15.82,-7.32 11.84,-7.1 20.63,-23.25 24.87,-45.75 76.38,-121.76 92.94,-163.49zm-62.74 -380.67l10.98 0.78 -14.66 9.29c13.34,0.54 26.67,2.28 33.99,11.06 13.51,16.16 3.29,11.91 -8.66,15.42 16.12,2.75 11.46,2.59 10.49,23.95 -37.01,1.26 -43.3,1.5 -71.12,13.67l8.59 -0.02c30.24,2.32 45.22,-10.15 75.97,5.87 -1.82,18.93 -4.94,27.49 -15.56,39.95 -9.04,10.61 -22.51,19.61 -29.35,28.17 32.09,-8.18 151.91,-72.32 157.38,-129.29 -38.39,11.62 -65.96,31.33 -124.72,-5.84 -22.32,-14.1 -9.31,-12.87 -34.25,-21.52l0.92 8.51zm132.79 -120.6l-9.5 60.1c-17.19,1.72 -61.48,-6.22 -68.83,-0.44 3.05,4.06 69.41,38.17 77.46,41.59l-7.36 -38.33c39.31,-0.76 26.73,-0.99 55.98,8.52l12.78 -11.37c14.32,-8.79 15.57,-1.99 25.7,-16.31 8.9,-12.58 13.12,-37.61 3.72,-53.39 -8.61,-14.43 -29.79,-19.1 -48.26,-13.99 -0.85,0.23 -40.87,23.01 -41.69,23.62zm-316.21 -19.16l16.2 -11.33c6.21,-2.82 12.65,-3.87 18.07,-5.93 -10.12,-0.24 -2.88,3.5 -17.84,-6.68 -8.76,-5.96 -14.03,-9.55 -13.17,-20.9 -19.73,-17.75 -93.61,-56.63 -143.29,-101.98 -8.71,-7.95 -32.38,-35.37 -39.36,-40.24 15.14,19.68 18.32,52.59 70.66,108.19 17.52,18.61 77.05,69.18 108.73,78.87zm66.63 -9.83c7.11,5.19 9.71,12.78 14.52,19.92 7.77,11.54 7.5,7.85 9.84,19.19l22.25 24.79c18.32,22.41 45.32,63.9 71.2,72.69 -1.24,-10.19 -1.5,-11.6 -4.96,-19.4l34.01 0c3.61,-13.88 -0.29,-8.78 11.71,-12.94l-40.3 -3.46c5.69,-27.16 14.3,-2.02 20.62,-24.81 -0.47,-0.52 -1.25,-1.23 -1.54,-1.45l-141.58 -84.03 4.23 9.5zm86.4 223.74l-8.59 0.02c27.82,-12.17 34.11,-12.41 71.12,-13.67 0.97,-21.36 5.63,-21.2 -10.49,-23.95 11.95,-3.51 22.17,0.74 8.66,-15.42 -7.32,-8.78 -20.65,-10.52 -33.99,-11.06 -17.65,4.49 -50.88,30.52 -65.66,41.06 -8.36,5.96 -59.66,37.07 -62.44,46.11 19.69,1.33 84.9,-7.97 101.39,-23.09zm459.91 -336.65c10.25,13.49 0.31,4.81 12.6,9.28 20.18,-3.16 43.66,-15.83 67.16,-8.07 24.1,18.53 11.01,44.92 -7.65,55.24 -27.72,15.3 -41.54,-0.69 -64.65,-2.5 -10.88,2.47 -8.89,4.81 -6.93,-6.01l-1.58 7.93c33.84,37.14 99.4,13.84 129.85,-14.65 1.09,-8.43 -2.98,-38.79 -3.7,-54.82 -6.23,6.05 -8.07,10.03 -15.35,15.7 -5.08,-5.65 -18.69,-27.17 -24.4,-35.59 -29.53,2.46 -69.16,22.09 -85.35,33.49zm-14.94 52.8c-21.6,9.93 -50.44,32.3 -64.55,46.64 -8.19,8.33 -45.72,48.61 -47.39,63.34l-3.67 18.94 14.51 11.78c-10.28,8.42 -5.65,-2.1 -5.76,13.79 24.67,-27.09 37.45,-47.69 56.82,-78.21 10.3,-16.24 18.11,-27.72 28.28,-40.28 11.3,-13.94 17.78,-29.3 35.65,-32.93l1.58 -7.93 -5.88 -3.31 -9.59 8.17zm-535.54 720.76c29.33,-11.71 147.02,-112.15 41.29,-106.61 -17.31,48.98 -10,54.27 -52.54,83.49l10.02 20.39c0.2,-0.56 0.67,1.91 1.23,2.73zm242.79 49.38c-14.31,-8.97 -25.99,-6.82 -25.64,-30.23 0.22,-14.87 6.9,-37.25 9.48,-53.02 -79.2,16.12 -42.26,129.47 16.16,83.25zm185.89 -615.65c0.11,-15.89 -4.52,-5.37 5.76,-13.79l-14.51 -11.78 3.67 -18.94c-17.03,10.56 -27.74,28.51 -41.47,38.6 -16.98,12.5 -37.57,15.67 -55,26.22 3.62,2.94 -0.23,2.33 10.25,5.93 30.14,10.4 67.87,-0.5 91.3,-26.24zm-269.43 -13.83c8.8,7.5 4.59,4.37 16.17,8.1 7.35,-5.78 51.64,2.16 68.83,0.44l9.5 -60.1 -63.93 16.86 28.77 16.39 -59.34 18.31zm376.29 -140.66l9.59 -8.17 5.88 3.31c-1.96,10.82 -3.95,8.48 6.93,6.01 -1.86,-12.95 7.1,-17.28 12.44,-18.24l-24.28 7.16c-0.61,-26.89 1.23,-15.66 16.98,-33.59 -12.29,-4.47 -2.35,4.21 -12.6,-9.28 -35.16,18.66 -18.89,34.35 -14.94,52.8z"/>
   <path class="fil0" d="M946.59 1168.12c5.69,1.58 14.85,2.35 20.73,1.55 0.79,-44.48 0.75,-85.47 45.67,-86.47 46.08,-1.04 42.64,42.33 44.08,83.01l12.92 1.19c1.75,4.04 1.65,5.89 3.4,10.08 3.39,8.1 1.83,4.71 4.71,8.9 0.35,-26.98 -5.01,-60.24 7.76,-80.77 10.89,-17.51 39.18,-28.5 62.5,-14.06 31.07,19.24 17.34,141.53 10.57,157.22l36.38 0.32c-22.59,-54.81 28.45,-179.05 -68.08,-178.75 -28.74,0.09 -38.23,15.03 -53.42,27.63 -13.82,-14.51 -23.39,-27.48 -50.08,-29.47 -26.25,-1.96 -44.19,10.03 -54.29,25.63l-6.68 -23.75 -29.38 1.14c18.53,9.98 14.03,15.86 13.63,41.11 -0.31,18.55 -0.8,36.97 -0.42,55.49z"/>
   <path class="fil0" d="M632.35 1079.9c132.48,-18.59 132.24,152.09 37.11,156.88 -34.98,1.76 -40.72,4.23 -40.77,-28.34 -0.04,-28.67 -2.66,-105.34 3.66,-128.54zm-32.89 -9.62c14.37,16.93 8.81,147.81 9.06,178.12 41.55,1.23 80.02,6.67 110.53,-13.31 24.11,-15.78 42.33,-43.96 42.09,-80.36 -0.63,-95.32 -78.26,-89.49 -161.68,-84.45z"/>
   <path class="fil0" d="M793.04 1137.64c-3.43,-68.8 112.92,-83.6 109.12,-0.52l-109.12 0.52zm130.82 59.73c-10.61,3.59 -7.93,6.8 -15.85,16.64 -31.77,39.51 -116.39,36.68 -116.94,-60.96l131.79 -0.42c19.9,-107.5 -144.64,-118.49 -154.39,-5.51 -9,104.4 83.35,116.9 125.84,95.31 23.77,-12.08 27.41,-13.66 29.55,-45.06z"/>
   <path class="fil0" d="M1743.61 1181.42c-34.39,-114.23 109.74,-140.67 134.16,-40.85 25.8,105.48 -104.01,140.98 -134.16,40.85zm-24.19 -7.63c4.37,48.51 49.23,88.2 106.29,78.2 46,-8.07 84.97,-52.69 75.45,-107.74 -20.12,-116.43 -193.18,-97.48 -181.74,29.54z"/>
   <path class="fil0" d="M943.16 863.44c7.82,18.4 23.09,154.56 -49.76,163.37 -81.45,9.86 -50.24,-158.13 -47.79,-162.92l-29.09 -0.1c19.44,42.27 -14.33,124.94 16.51,161.44 12.29,14.56 39.45,25.89 67.6,17.95 23.49,-6.63 33.81,-24.56 46.55,-37.7 0.36,43.48 -6.78,36.74 35.47,37.7 -10.51,-14.97 -9.09,2.13 -15.7,-18.23 -0.29,-37.49 -7.96,-136.18 4.71,-161.57l-28.5 0.06z"/>
   <path class="fil0" d="M1227.67 938.81c-47.74,-3.19 -78.51,48.99 -47.19,86.22 39.42,46.85 101.74,-6.87 106.03,-8.42 -2.73,14.09 4.38,2.18 -8.34,14.41l-34.29 28.28c15.75,7.49 12.36,-17.46 78.74,-15.52 -17.24,-15.9 -15.86,-31.49 -15.68,-60.8 0.14,-24.48 -0.43,-48.89 -1.21,-73.1 -1.06,21.53 -5.44,19.52 -6.72,43.02l-12.22 -1.06c1.04,41.28 5.44,45.17 -22.74,64.79 -60.84,42.38 -97.37,-36.23 -54.23,-61.7 20.75,-12.25 50.17,-8.87 74.4,-8.7 8.26,0.22 2.28,2.16 6.52,-1.43l-2.21 -35.9c5.21,9.79 2.86,17.14 0.33,28.72l-61.19 1.19z"/>
   <path class="fil0" d="M1227.45 1137.49c-6.48,-74.72 112.62,-72.53 109.65,-13.02 -0.78,15.74 -9.45,13.69 -26.34,13.52 -27.76,-0.28 -55.57,-0.13 -83.31,-0.5zm-18.08 57.76l-2.97 -16.05c12.56,6.85 10.16,15.85 10.5,7.75 0.94,-0.85 3.85,-2.45 4.49,-2.82l6.15 -3.54 -1.95 -27.01c28.72,-1.21 111.77,8.38 129.84,-3.41 11.5,-11.78 -1.41,-100.32 -93.46,-78.46 -63.4,15.05 -71.58,105.38 -52.6,123.54z"/>
   <path class="fil0" d="M1452.43 1177.59l-5.66 -10.84c-26.51,6.95 1.25,-2.59 -12.27,-1.54 -8.11,0.62 7.64,-14.96 -5.33,1.95 1.43,12.91 12.57,27.41 18.95,40.38 3.31,6.73 7.24,13.24 10.56,20.21 5.32,11.18 0.77,0.99 4.38,11.07 0.39,1.08 1.61,4.78 1.88,5.58l85.86 5.04c-6.03,-9.51 4.41,-1.37 -12.13,-8.68 -0.97,-30.9 -0.95,-62.7 -1.1,-93.68 -0.23,-44.01 -4.65,-52.55 7.95,-78.47l-38.69 0.68c15.31,6.54 11.56,14.33 11.29,35.7 -0.45,35.62 1.41,110.17 -2.46,137.32 -40.73,7.16 -42.38,-53.9 -63.23,-64.72z"/>
   <path class="fil0" d="M1348.74 1029.47l6.94 -116.41c-1.03,1.65 -6.32,-3.55 -0.47,15.82 2.38,7.89 1.71,5.6 4.82,9.97 13.44,-18.01 3.99,-18.19 3.83,-18.47l8.47 105.96c-4.56,-18.69 -4.03,-133.73 0.42,-152.51 63.48,-5.85 107.81,17.8 103.74,83.96 5.71,6.44 2.37,0.34 6.14,9.9 1.6,4.07 1.95,8.28 2.57,12.6 -1.01,-17.19 0.35,7.34 5.94,-15.69 12.78,9.1 2.76,-3.58 7.44,10.66 14.22,-39.79 -4.72,-84.11 -31.41,-99.43 -27.56,-15.81 -88.44,-13.73 -126.25,-11.23 13.91,18.36 8.54,45.6 8.57,80.21 0.01,27.92 1.33,57.14 -0.75,84.66z"/>
   <path class="fil0" d="M1429.17 1167.16c12.97,-16.91 -2.78,-1.33 5.33,-1.95 13.52,-1.05 -14.24,8.49 12.27,1.54l5.66 10.84c-12.74,-39.99 -22.81,-17.91 4.75,-63.43 31.49,-52.02 29.32,-36.72 34.91,-45.8l-32.35 -0.03c2.19,20.86 -18.31,48.28 -25.32,65.22 -10.81,-6.21 -1.54,1.58 -10.05,-8.46 -11.53,-13.58 -26.21,-42.6 -20.65,-56.67l-41.99 0.68c5.73,8.08 7.93,-0.65 19.93,18.25 12.32,19.4 39.43,59.27 32.36,75.28 -4,9.06 -22.79,34.41 -30.19,46.79 -15.97,26.73 -9.63,20.62 -34.12,39.48l40.85 0.56c3.47,-10.31 -6.04,0.07 3.2,-22.76 5.15,-12.75 27.05,-55.51 35.41,-59.54z"/>
   <path class="fil0" d="M1024.87 1021.15l-8.29 -64.45c-10.29,-9.19 -8.31,-13.15 -11.12,-16.88l-3.78 90.25c-4.26,7.6 -2.2,4.07 -5.33,9.19 -0.45,0.73 -2.26,3.22 -3,4.25 41.6,-2.13 92.87,7.55 122.28,-14.94 27.79,-21.24 40.88,-49.9 39.04,-95.99l-12.17 11.95c-18.06,-9.54 4.3,-10.2 -14.44,-12.25 12.14,28.59 -9.97,109.17 -84.52,99.59 -15.95,-2.05 -12.51,-0.71 -18.67,-10.72z"/>
   <path class="fil0" d="M1001.68 1030.07l3.78 -90.25c2.81,3.73 0.83,7.69 11.12,16.88l8.29 64.45c-3.81,-15.92 -2.92,-128.33 1.05,-146.94 54.26,-7.4 92.76,11.59 102.14,58.07 18.74,2.05 -3.62,2.71 14.44,12.25l12.17 -11.95c-11.68,-79.84 -84.67,-71.76 -161.22,-67.92 15.11,16.08 9.19,54.73 9.16,80.15 -0.03,26.17 1.7,60.27 -0.93,85.26z"/>
   <path class="fil0" d="M1348.74 1029.47c-4.73,8.92 -1.96,5.09 -8.34,13.88 33.8,-1.62 79.58,4.95 107.24,-6.89 23.48,-10.04 44.85,-33.24 50.94,-61.2 -4.68,-14.24 5.34,-1.56 -7.44,-10.66 -5.59,23.03 -6.95,-1.5 -5.94,15.69 -0.62,-4.32 -0.97,-8.53 -2.57,-12.6 -3.77,-9.56 -0.43,-3.46 -6.14,-9.9 -4.68,48.6 -45.75,95.14 -104.16,68.55l-8.47 -105.96c0.16,0.28 9.61,0.46 -3.83,18.47 -3.11,-4.37 -2.44,-2.08 -4.82,-9.97 -5.85,-19.37 -0.56,-14.17 0.47,-15.82l-6.94 116.41z"/>
   <path class="fil0" d="M763.98 871.43l-0.23 138.49c0.21,23.44 3.17,22.86 -10.1,32.88l44.52 0.56 -13.75 -9.73c-1.45,-30.51 -0.84,-62.03 -0.93,-92.63 -0.05,-15.34 -0.29,-30.74 -0.32,-46.05 -0.06,-24.72 -2.6,-19.48 10.89,-32.16l-39.54 -0.05c4.35,7.46 0.47,1.78 9.46,8.69z"/>
   <path class="fil0" d="M1562.33 1175.79l3.29 -10.01c0.39,0.51 1.27,0.81 1.52,1.74 0.77,2.84 -0.3,4.25 7.68,1.26l4.57 -3.48c-2.37,-93.27 89.37,-114.67 128.44,-60.98l5.49 6.8c0.3,-0.64 1.33,1.49 3.25,2.12l-2.28 -30.82c-36.11,-17.89 -79.67,-23.04 -113.81,-3.99 -56.15,31.35 -40.35,96.32 -39.6,94.21 0.19,-0.51 0.9,2.14 1.45,3.15z"/>
   <path class="fil0" d="M601.19 962.57l-9.8 19.25c-1.3,-10.6 -3.14,-13.53 -4.6,-22.45 -0.66,-4.01 -1.16,-11.21 -1.79,-14.31l-2.87 -8.88c-0.15,-1.41 -0.78,-1.75 -1.34,-2.51 -8.41,117.61 98.84,130.06 160.47,87.01l-1.49 -24.76c-18.66,52.15 -122.69,47.41 -138.58,-33.35z"/>
   <path class="fil0" d="M580.79 933.67c0.56,0.76 1.19,1.1 1.34,2.51l2.87 8.88c0.63,3.1 1.13,10.3 1.79,14.31 1.46,8.92 3.3,11.85 4.6,22.45l9.8 -19.25c-5.31,-43.24 13.96,-74.04 41.55,-86.3 16.95,-7.53 39.33,-7.52 58.24,-0.76 25.54,9.12 22.61,23.37 36.54,32.23l-0.43 -30.43c-67.2,-31.85 -143.84,-17.19 -156.3,56.36z"/>
   <path class="fil0" d="M1562.33 1175.79c-1.57,43.66 58.12,105.15 157.64,52.33l-0.89 -24.06c-43.7,59.94 -131.89,28.6 -139.69,-38.76l-4.57 3.48c-7.98,2.99 -6.91,1.58 -7.68,-1.26 -0.25,-0.93 -1.13,-1.23 -1.52,-1.74l-3.29 10.01z"/>
   <path class="fil0" d="M1209.37 1195.25c2.98,41.2 66.71,76.79 127.24,43.03 19.36,-10.8 20.31,-11.74 20.23,-41.3 -21.79,16.88 -23.88,44.94 -72.13,39.96 -33.66,-3.47 -51.98,-25.53 -57.17,-56.35l-6.15 3.54c-0.64,0.37 -3.55,1.97 -4.49,2.82 -0.34,8.1 2.06,-0.9 -10.5,-7.75l2.97 16.05z"/>
   <path class="fil0" d="M1227.67 938.81l61.19 -1.19c2.53,-11.58 4.88,-18.93 -0.33,-28.72l2.21 35.9c-4.24,3.59 1.74,1.65 -6.52,1.43l2.57 5.61 12.22 1.06c1.28,-23.5 5.66,-21.49 6.72,-43.02 -7.67,-29.18 -20.65,-42.47 -48.59,-46.29 -28.46,-3.89 -55.41,3.42 -75.04,16.34l-0.24 29.71c8.36,-5.32 10.5,-38.17 59.75,-35.93 32.54,1.49 44.41,26.33 43.44,60.48 -15.19,-0.03 -45.35,-5.03 -57.38,4.62z"/>
   <path class="fil0" d="M967.32 1169.67c-5.88,0.8 -15.04,0.03 -20.73,-1.55 1.13,25.98 3.29,56.92 -5.06,80.23l31.67 -0.34c-7.34,-17.57 -6.64,-53.87 -5.88,-78.34z"/>
   <path class="fil0" d="M1078.1 1186.38c-2.88,-4.19 -1.32,-0.8 -4.71,-8.9 -1.75,-4.19 -1.65,-6.04 -3.4,-10.08l-12.92 -1.19c0.66,26.99 2.64,58.31 -4.97,81.91l33.84 -0.67c-11.18,-14.85 -8.43,-38.43 -7.84,-61.07z"/>
  </g>
 </g>
</svg>
