<?xml version="1.0" encoding="UTF-8"?>
<!DOCTYPE svg PUBLIC "-//W3C//DTD SVG 1.1//EN" "http://www.w3.org/Graphics/SVG/1.1/DTD/svg11.dtd">
<!-- Creator: CorelDRAW 2017 -->
<svg xmlns="http://www.w3.org/2000/svg" xml:space="preserve" width="3.0478mm" height="3.0478mm" version="1.1" style="shape-rendering:geometricPrecision; text-rendering:geometricPrecision; image-rendering:optimizeQuality; fill-rule:evenodd; clip-rule:evenodd"
viewBox="0 0 304.78 304.78"
 xmlns:xlink="http://www.w3.org/1999/xlink">
 <defs>
  <style type="text/css">
   <![CDATA[
    .str0 {stroke:#373435;stroke-width:20;stroke-miterlimit:22.9256}
    .fil1 {fill:none}
    .fil0 {fill:#373435}
   ]]>
  </style>
 </defs>
 <g id="Capa_x0020_1">
  <metadata id="CorelCorpID_0Corel-Layer"/>
  <g id="_2081152159152">
   <path class="fil0" d="M147.75 36.82l9.78 -0.23 -0.09 31.56c-3.72,-0.4 -7.05,-0.45 -9.82,0.03l0.13 -31.36z"/>
   <path class="fil0" d="M117.5 187.29c31.17,29.21 70.27,6.11 73.23,-1.55l-18.27 0.08c-3.28,0.16 -5.46,0.04 -8.93,0.2 -10.82,0.47 -26.71,-0.05 -37.03,0.47 -3.34,0.17 -7.74,-0.26 -9,0.8z"/>
   <path class="fil0" d="M153.7 236.23c-6.29,-0.93 -4.7,5.42 -4.79,15.79 -0.11,12.39 -1.82,17.07 4.73,16 2.21,-3.33 1.3,-10.98 1.34,-15.95 0.05,-5.34 0.94,-13.01 -1.28,-15.84z"/>
   <path class="fil0" d="M196.1 243.55c0.87,1.56 7.34,16.66 10.72,9.66 1.21,-2.5 -5.81,-13.11 -7.34,-15.84 -5.69,-10.14 -5.99,-13.11 -10.97,-10.39 -0.62,3.59 1.58,6.22 3.19,8.92 1.52,2.55 3.01,5.13 4.4,7.65z"/>
   <path class="fil0" d="M245.55 213.31c-0.47,-2.26 -12.18,-8.24 -14.6,-9.72 -2.16,-1.32 -9.53,-6.57 -11.95,-5.76 -1.22,0.41 -2.32,1.73 -1.98,3.64 0.31,1.75 11.53,7.65 14.58,9.46 2.21,1.31 15.69,10.76 13.95,2.38z"/>
   <path class="fil0" d="M115.4 230.48c2.17,-4 -1.64,-7.15 -4.56,-4.16l-13.31 22.44c-2.36,4.52 2.12,6.68 4.55,4.02l9.09 -15.13c1.49,-2.35 3,-4.92 4.23,-7.17z"/>
   <path class="fil0" d="M85.91 196.61c-2.8,-0.12 -25.93,12.9 -26.59,14.61 -0.72,1.88 0.15,3.58 1.78,4 2.23,0.55 13.21,-6.34 15.8,-7.76 10.54,-5.82 13.46,-6.44 9.01,-10.85z"/>
   <path class="fil0" d="M124.86 108.75c13.79,-1.72 11.7,-2.69 27.99,-2.9 10.48,-0.13 17.91,1.21 27.81,2.1 -0.1,-12.06 -0.24,-18.16 -6.49,-26.09 -3.92,-4.97 -12.06,-10.11 -21.79,-9.99 -9.84,0.12 -17.22,5.01 -21.62,10.51 -5.74,7.17 -6.17,14.77 -5.9,26.37z"/>
   <path class="fil0" d="M127.02 111.95c-0.89,2.55 -4.12,2.42 -11.02,8.1 -7.05,5.8 -13.13,12.68 -18.35,20.41 -6.99,10.36 -17.09,32.56 -17.92,42.53 4.97,0.89 13.22,-0.24 18.82,-0.06 3.16,0.1 6.19,-0.22 9.37,-0.11l111.86 -1.94c2.92,0.11 5.87,-0.07 8.68,-0.3 -7.33,-25.41 -20.02,-51.87 -49.7,-68.69 -0.17,-0.2 -0.3,-0.5 -0.39,-0.86 -19.06,-2.1 -32.35,-2.07 -51.35,0.92z"/>
  </g>
  <ellipse class="fil1 str0" cx="152.39" cy="152.39" rx="135.46" ry="135.47"/>
 </g>
</svg>
