<?xml version="1.0" encoding="UTF-8"?>
<!DOCTYPE svg PUBLIC "-//W3C//DTD SVG 1.1//EN" "http://www.w3.org/Graphics/SVG/1.1/DTD/svg11.dtd">
<!-- Creator: CorelDRAW 2017 -->
<svg xmlns="http://www.w3.org/2000/svg" xml:space="preserve" width="3.0478mm" height="3.0478mm" version="1.1" style="shape-rendering:geometricPrecision; text-rendering:geometricPrecision; image-rendering:optimizeQuality; fill-rule:evenodd; clip-rule:evenodd"
viewBox="0 0 304.78 304.78"
 xmlns:xlink="http://www.w3.org/1999/xlink">
 <defs>
  <style type="text/css">
   <![CDATA[
    .str0 {stroke:#373435;stroke-width:20;stroke-miterlimit:22.9256}
    .fil0 {fill:none}
    .fil1 {fill:#373435}
   ]]>
  </style>
 </defs>
 <g id="Capa_x0020_1">
  <metadata id="CorelCorpID_0Corel-Layer"/>
  <g id="_2081006945856">
   <ellipse class="fil0 str0" cx="152.39" cy="152.39" rx="135.46" ry="135.47"/>
   <path class="fil1" d="M52.21 154.84c7.18,-2.41 11.27,9.49 3.13,11.8 -7.2,2.04 -11.66,-8.94 -3.13,-11.8zm-10.08 0.5c-0.6,0.58 -0.16,-0.14 -0.7,0.99 -0.14,0.28 -0.36,1.07 -0.38,1.17 -0.3,1.2 -0.36,2.02 -0.42,3.24 -0.03,8.36 6.9,14.57 17.03,12.75l17.13 16.99c5.63,5.77 11.33,11.09 16.94,16.89l16.92 16.92c2.16,2.09 35.94,32 36.52,33.38 -8.64,0.01 -21.25,-1.28 -27.53,2.78 -5.89,3.81 -11.2,11.81 -11.48,18.55l112.81 0c0.02,-4.67 -3.8,-11.67 -6.98,-14.76 -8.67,-8.44 -13.81,-6.57 -28.97,-6.57 -3.94,0 -26.56,0.52 -28.16,-0.36 -0.36,-0.21 -3.14,-3.03 -3.66,-3.58l-80.47 -76.91c-2.2,-2.26 -5.1,-4.58 -6.87,-7.06 1.22,-2.69 3.03,-3.93 3.19,-8.45 0.16,-4.41 -1.32,-6.09 -2.77,-8.87 5.7,-6.25 11.73,-11.73 17.37,-17.5l35 -35.07c3.64,-3.58 9.88,-10.09 14.34,-14.46 -1.55,-1.9 -2.86,-3.72 -3.89,-5.56 -0.54,0.52 -1.1,1.04 -1.64,1.58l-13.63 13.62c-3.16,3.03 -5.47,5.76 -8.84,8.88 -3.2,2.96 -5.36,5.44 -8.88,8.83l-35.65 35.54c-5.91,-1.08 -5.52,-1.08 -10.87,0.79 -0.61,0.33 -0.58,0.18 -1.34,0.81 -1.05,0.89 -0.47,0.35 -0.97,1.19 -0.61,0.3 -0.44,0.14 -1.11,0.74 -0.5,0.45 -0.63,0.64 -0.97,1.06 -0.79,1.01 -0.94,1.16 -1.07,2.45zm96.12 -68.6c0.7,1.76 -1.07,3.18 -2.11,9.36 -1.06,6.31 -1.12,12.75 -0.33,19.24 1.06,8.69 5.91,25.08 10.06,30.74 3.04,-1.81 6.89,-6.2 9.94,-8.68 1.72,-1.4 3.17,-2.96 4.9,-4.36l58.32 -52.44c1.6,-1.29 3.08,-2.74 4.46,-4.16 -15.56,-10.07 -34.44,-18.24 -57.88,-13.51 -0.18,-0.03 -0.38,-0.13 -0.6,-0.28 -11.06,7.65 -18.08,13.78 -26.76,24.09z"/>
   <path class="fil1" d="M167.84 131c29.93,1.14 40,-29.06 38.05,-34.48l-9.63 8.44c-1.67,1.59 -2.87,2.53 -4.64,4.21 -5.51,5.22 -14.16,12.25 -19.38,17.27 -1.69,1.62 -4.22,3.42 -4.4,4.56z"/>
   <path class="fil1" d="M211.76 136.22c-3.75,2.4 0.01,5.03 4.73,10.56 5.64,6.61 6.88,9.87 9.86,6.3 -0.37,-2.78 -4.36,-6.41 -6.62,-9.06 -2.44,-2.85 -5.49,-7.32 -7.97,-7.8z"/>
   <path class="fil1" d="M237.58 120.61c1.17,0.43 11.54,5.44 10.11,0.19 -0.51,-1.89 -9.1,-4.27 -11.17,-5.02 -7.67,-2.75 -9.19,-4.18 -10.58,-0.45 1.33,2.18 3.7,2.56 5.79,3.25 1.97,0.65 3.95,1.34 5.85,2.03z"/>
   <path class="fil1" d="M249.85 81.87c-1.28,-0.98 -10.23,1.24 -12.2,1.57 -1.74,0.3 -8.06,0.91 -8.96,2.45 -0.46,0.77 -0.44,1.97 0.62,2.83 0.97,0.79 9.62,-1.25 12.06,-1.69 1.78,-0.32 13.25,-1.52 8.48,-5.16z"/>
   <path class="fil1" d="M188.85 150.79c-0.69,-3.12 -4.16,-3.04 -4.33,-0.11l3.27 17.99c0.83,3.48 4.2,2.56 4.26,0.04l-2.14 -12.19c-0.29,-1.93 -0.67,-3.98 -1.06,-5.73z"/>
   <path class="fil1" d="M157.67 146.41c-1.53,1.23 -7.79,18.74 -7.35,19.95 0.48,1.33 1.72,1.83 2.78,1.3 1.43,-0.73 4.08,-9.42 4.79,-11.37 2.91,-7.92 4.17,-9.6 -0.22,-9.88z"/>
   <path class="fil1" d="M135.64 86.04c6.51,-7.25 4.95,-6.8 13.48,-14.4 5.49,-4.88 10.04,-7.59 15.68,-11.67 -5.59,-6.34 -8.47,-9.5 -15.42,-10.83 -4.36,-0.83 -11.03,0.19 -16.13,4.73 -5.15,4.59 -6.8,10.57 -6.61,15.5 0.26,6.44 3.53,10.66 9,16.67z"/>
   <path class="fil1" d="M138.25 86.74c0.7,1.76 -1.07,3.18 -2.11,9.36 -1.06,6.31 -1.12,12.75 -0.33,19.24 1.06,8.69 5.91,25.08 10.06,30.74 3.04,-1.81 6.89,-6.2 9.94,-8.68 1.72,-1.4 3.17,-2.96 4.9,-4.36l58.32 -52.44c1.6,-1.29 3.08,-2.74 4.46,-4.16 -15.56,-10.07 -34.44,-18.24 -57.88,-13.51 -0.18,-0.03 -0.38,-0.13 -0.6,-0.28 -11.06,7.65 -18.08,13.78 -26.76,24.09z"/>
  </g>
 </g>
</svg>
