<?xml version="1.0" encoding="UTF-8"?>
<!DOCTYPE svg PUBLIC "-//W3C//DTD SVG 1.1//EN" "http://www.w3.org/Graphics/SVG/1.1/DTD/svg11.dtd">
<!-- Creator: CorelDRAW 2017 -->
<svg xmlns="http://www.w3.org/2000/svg" xml:space="preserve" width="3.0478mm" height="3.0478mm" version="1.1" style="shape-rendering:geometricPrecision; text-rendering:geometricPrecision; image-rendering:optimizeQuality; fill-rule:evenodd; clip-rule:evenodd"
viewBox="0 0 304.78 304.78"
 xmlns:xlink="http://www.w3.org/1999/xlink">
 <defs>
  <style type="text/css">
   <![CDATA[
    .str0 {stroke:#373435;stroke-width:20;stroke-miterlimit:22.9256}
    .fil1 {fill:none}
    .fil0 {fill:#373435}
   ]]>
  </style>
 </defs>
 <g id="Capa_x0020_1">
  <metadata id="CorelCorpID_0Corel-Layer"/>
  <g id="_2081152098256">
   <g>
    <path class="fil0" d="M218.2 220.16c2.21,7.82 5.77,10.37 13.06,7.13 7.14,-3.16 8.35,-7.9 3.32,-14.57l-16.38 7.44z"/>
    <path class="fil0" d="M186.03 107.69c-27.8,-26.05 -62.67,-5.45 -65.31,1.38l16.29 -0.07c2.93,-0.14 4.87,-0.04 7.97,-0.17 9.65,-0.42 23.82,0.04 33.02,-0.43 2.98,-0.15 6.91,0.24 8.03,-0.71z"/>
    <path class="fil0" d="M148.19 66.04c5.61,0.82 4.19,-4.84 4.27,-14.09 0.09,-11.05 1.62,-15.22 -4.21,-14.27 -1.98,2.98 -1.17,9.8 -1.2,14.22 -0.04,4.77 -0.84,11.61 1.14,14.14z"/>
    <path class="fil0" d="M110.37 59.51c-0.77,-1.39 -6.55,-14.86 -9.56,-8.62 -1.08,2.23 5.18,11.69 6.55,14.13 5.07,9.04 5.34,11.69 9.78,9.26 0.55,-3.2 -1.41,-5.54 -2.84,-7.95 -1.35,-2.27 -2.69,-4.58 -3.93,-6.82z"/>
    <path class="fil0" d="M66.27 86.47c0.42,2.02 10.86,7.35 13.03,8.68 1.92,1.17 8.49,5.85 10.65,5.13 1.09,-0.36 2.07,-1.54 1.77,-3.24 -0.28,-1.57 -10.29,-6.83 -13.01,-8.44 -1.97,-1.17 -13.99,-9.59 -12.44,-2.13z"/>
    <path class="fil0" d="M182.35 71.16c-1.93,3.57 1.46,6.38 4.07,3.71l11.87 -20.01c2.1,-4.04 -1.9,-5.96 -4.06,-3.59l-8.11 13.49c-1.33,2.1 -2.68,4.39 -3.77,6.4z"/>
    <path class="fil0" d="M208.65 101.37c2.5,0.1 23.13,-11.51 23.71,-13.03 0.64,-1.68 -0.13,-3.2 -1.59,-3.56 -1.98,-0.5 -11.77,5.64 -14.09,6.92 -9.4,5.18 -12,5.74 -8.03,9.67z"/>
    <path class="fil0" d="M179.47 177.74c-12.3,1.53 -10.44,2.4 -24.97,2.59 -9.34,0.11 -15.97,-1.08 -24.8,-1.87 0.09,10.75 0.22,16.19 5.79,23.26 3.49,4.44 10.75,9.02 19.43,8.92 8.78,-0.11 15.36,-4.48 19.28,-9.38 5.13,-6.4 5.51,-13.18 5.27,-23.52z"/>
    <path class="fil0" d="M177.54 174.89c0.8,-2.27 3.67,-2.16 9.83,-7.23 6.29,-5.17 11.71,-11.31 16.37,-18.2 6.23,-9.24 15.24,-29.04 15.98,-37.93 -4.44,-0.8 -11.8,0.21 -16.79,0.05 -2.82,-0.09 -5.52,0.2 -8.35,0.1l-99.77 1.73c-2.6,-0.1 -5.24,0.06 -7.74,0.27 6.53,22.66 17.86,46.26 44.33,61.26 0.15,0.18 0.26,0.45 0.34,0.77 17.01,1.87 28.86,1.84 45.8,-0.82z"/>
    <path class="fil0" d="M159.06 287.49l-8.72 0.74 0.03 -73.73c3.32,1.28 6.3,1.42 8.77,-0.11l-0.08 73.1z"/>
    <polygon class="fil0" points="199.16,150.92 194.54,152.98 195.27,154.87 225.55,221.7 230.29,219.7 "/>
   </g>
   <ellipse class="fil1 str0" cx="152.39" cy="152.01" rx="135.46" ry="135.47"/>
  </g>
 </g>
</svg>
