<?xml version="1.0" encoding="UTF-8"?>
<!DOCTYPE svg PUBLIC "-//W3C//DTD SVG 1.1//EN" "http://www.w3.org/Graphics/SVG/1.1/DTD/svg11.dtd">
<!-- Creator: CorelDRAW 2017 -->
<svg xmlns="http://www.w3.org/2000/svg" xml:space="preserve" width="3.0478mm" height="3.0478mm" version="1.1" style="shape-rendering:geometricPrecision; text-rendering:geometricPrecision; image-rendering:optimizeQuality; fill-rule:evenodd; clip-rule:evenodd"
viewBox="0 0 304.78 304.78"
 xmlns:xlink="http://www.w3.org/1999/xlink">
 <defs>
  <style type="text/css">
   <![CDATA[
    .fil0 {fill:none}
    .fil1 {fill:#373435}
   ]]>
  </style>
 </defs>
 <g id="Capa_x0020_1">
  <metadata id="CorelCorpID_0Corel-Layer"/>
  <rect class="fil0" x="-0" y="-0" width="304.79" height="304.79"/>
  <g id="_2081006960384">
   <path class="fil1" d="M23.81 151.09c9.88,-3.31 15.49,13.04 4.31,16.21 -9.89,2.8 -16.01,-12.28 -4.31,-16.21zm-13.84 0.68c-0.82,0.81 -0.21,-0.19 -0.96,1.37 -0.19,0.38 -0.49,1.47 -0.52,1.6 -0.41,1.65 -0.49,2.78 -0.57,4.46 -0.05,11.48 9.48,20.01 23.38,17.51l23.54 23.33c7.73,7.93 15.56,15.23 23.27,23.2l23.23 23.24c2.97,2.88 22.14,21.55 22.92,23.45 -11.86,0.01 -29.18,-1.76 -37.8,3.82 -8.09,5.23 -15.39,16.22 -15.77,25.48l154.95 0c0.03,-6.41 -5.22,-16.03 -9.59,-20.28 -11.91,-11.59 -18.96,-9.02 -39.79,-9.02 -5.41,0 -36.49,0.72 -38.68,-0.5 -0.5,-0.28 -4.31,-4.16 -5.03,-4.91l-83.3 -83.23c-3.01,-3.11 -7,-6.3 -9.43,-9.71 1.68,-3.69 4.17,-5.39 4.39,-11.6 0.21,-6.07 -1.81,-8.37 -3.81,-12.19 7.82,-8.58 16.11,-16.1 23.86,-24.03l48.08 -48.17c4.99,-4.93 13.56,-13.86 19.68,-19.86 -2.12,-2.61 -3.91,-5.11 -5.33,-7.65 -0.75,0.72 -1.52,1.43 -2.26,2.18l-18.72 18.7c-4.35,4.17 -7.51,7.91 -12.14,12.2 -4.4,4.08 -7.36,7.48 -12.2,12.13l-48.96 48.82c-8.12,-1.48 -7.59,-1.49 -14.93,1.09 -0.85,0.44 -0.8,0.24 -1.85,1.11 -1.44,1.21 -0.65,0.48 -1.33,1.63 -0.84,0.41 -0.61,0.2 -1.53,1.02 -0.69,0.61 -0.86,0.87 -1.32,1.45 -1.09,1.39 -1.3,1.6 -1.48,3.36zm132.03 -94.22c0.96,2.42 -1.46,4.37 -2.9,12.86 -1.46,8.66 -1.54,17.51 -0.45,26.42 1.45,11.94 8.12,34.46 13.82,42.23 4.17,-2.49 9.46,-8.52 13.65,-11.92 2.36,-1.92 4.35,-4.07 6.73,-5.99l80.11 -72.04c2.2,-1.76 4.23,-3.75 6.12,-5.7 -21.37,-13.84 -47.3,-25.07 -79.5,-18.56 -0.25,-0.04 -0.53,-0.18 -0.82,-0.38 -15.19,10.5 -24.83,18.92 -36.76,33.08z"/>
   <path class="fil1" d="M182.65 118.34c41.1,1.57 54.94,-39.91 52.26,-47.35l-13.23 11.59c-2.29,2.19 -3.94,3.48 -6.37,5.78 -7.57,7.18 -19.45,16.83 -26.62,23.72 -2.33,2.23 -5.8,4.7 -6.04,6.26z"/>
   <path class="fil1" d="M187.59 268.11c1.32,-8.68 -1.05,-12.76 -9.66,-12.83 -8.43,-0.07 -11.73,4.05 -9.76,12.85l19.42 -0.02z"/>
   <path class="fil1" d="M242.98 125.52c-5.15,3.29 0,6.91 6.49,14.51 7.74,9.07 9.45,13.55 13.54,8.65 -0.5,-3.83 -5.99,-8.81 -9.09,-12.45 -3.35,-3.91 -7.54,-10.05 -10.94,-10.71z"/>
   <path class="fil1" d="M278.43 104.07c1.62,0.59 15.86,7.48 13.9,0.26 -0.71,-2.59 -12.5,-5.86 -15.34,-6.89 -10.54,-3.78 -12.63,-5.74 -14.54,-0.62 1.82,3 5.08,3.52 7.95,4.47 2.71,0.89 5.43,1.83 8.03,2.78z"/>
   <path class="fil1" d="M295.3 50.87c-1.77,-1.35 -14.06,1.7 -16.76,2.15 -2.4,0.41 -11.07,1.24 -12.32,3.36 -0.63,1.06 -0.6,2.71 0.85,3.89 1.33,1.08 13.22,-1.71 16.58,-2.33 2.44,-0.44 18.2,-2.08 11.65,-7.07z"/>
   <path class="fil1" d="M211.5 145.52c-0.94,-4.28 -5.7,-4.16 -5.94,-0.14l4.49 24.71c1.14,4.78 5.76,3.51 5.85,0.05l-2.94 -16.74c-0.4,-2.65 -0.93,-5.47 -1.46,-7.88z"/>
   <path class="fil1" d="M168.68 139.51c-2.11,1.69 -10.71,25.75 -10.1,27.41 0.66,1.82 2.37,2.51 3.81,1.78 1.97,-1 5.61,-12.94 6.59,-15.62 3.99,-10.88 5.72,-13.18 -0.3,-13.57z"/>
   <path class="fil1" d="M138.41 56.59c8.94,-9.95 6.81,-9.34 18.52,-19.77 7.54,-6.72 13.79,-10.43 21.54,-16.04 -7.68,-8.71 -11.63,-13.05 -21.18,-14.87 -5.99,-1.14 -15.15,0.26 -22.15,6.49 -7.08,6.3 -9.35,14.52 -9.09,21.29 0.36,8.85 4.85,14.64 12.36,22.9z"/>
   <path class="fil1" d="M142 57.55c0.96,2.42 -1.46,4.37 -2.9,12.86 -1.46,8.66 -1.54,17.51 -0.45,26.42 1.45,11.94 8.12,34.46 13.82,42.23 4.17,-2.49 9.46,-8.52 13.65,-11.92 2.36,-1.92 4.35,-4.07 6.73,-5.99l80.11 -72.04c2.2,-1.76 4.23,-3.75 6.12,-5.7 -21.37,-13.84 -47.3,-25.07 -79.5,-18.56 -0.25,-0.04 -0.53,-0.18 -0.82,-0.38 -15.19,10.5 -24.83,18.92 -36.76,33.08z"/>
  </g>
 </g>
</svg>
