<?xml version="1.0" encoding="UTF-8"?>
<!DOCTYPE svg PUBLIC "-//W3C//DTD SVG 1.1//EN" "http://www.w3.org/Graphics/SVG/1.1/DTD/svg11.dtd">
<!-- Creator: CorelDRAW 2017 -->
<svg xmlns="http://www.w3.org/2000/svg" xml:space="preserve" width="3.0478mm" height="3.0478mm" version="1.1" style="shape-rendering:geometricPrecision; text-rendering:geometricPrecision; image-rendering:optimizeQuality; fill-rule:evenodd; clip-rule:evenodd"
viewBox="0 0 304.78 304.78"
 xmlns:xlink="http://www.w3.org/1999/xlink">
 <defs>
  <style type="text/css">
   <![CDATA[
    .fil0 {fill:none}
    .fil1 {fill:#373435}
   ]]>
  </style>
 </defs>
 <g id="Capa_x0020_1">
  <metadata id="CorelCorpID_0Corel-Layer"/>
  <rect class="fil0" x="-0" y="-0" width="304.79" height="304.79"/>
  <g id="_2081005187712">
   <path class="fil1" d="M95.21 278c-7.67,4.96 -14.59,15.37 -14.94,24.15l146.82 0c0.02,-6.08 -4.95,-15.19 -9.09,-19.22 -11.29,-10.98 -17.97,-8.55 -37.7,-8.55 -15.21,0 -75.01,-2.9 -85.09,3.62z"/>
   <path class="fil1" d="M224.84 210.97c2.26,8.01 5.9,10.61 13.36,7.3 7.31,-3.24 8.55,-8.08 3.4,-14.91l-16.76 7.61z"/>
   <path class="fil1" d="M182.7 74.39c-28.43,-26.66 -64.11,-5.58 -66.81,1.41l16.67 -0.07c2.99,-0.15 4.98,-0.04 8.15,-0.18 9.87,-0.43 24.37,0.05 33.78,-0.44 3.05,-0.15 7.07,0.24 8.21,-0.72z"/>
   <path class="fil1" d="M144 31.77c5.73,0.85 4.28,-4.94 4.36,-14.41 0.1,-11.3 1.66,-15.57 -4.31,-14.6 -2.02,3.05 -1.19,10.03 -1.23,14.55 -0.04,4.88 -0.85,11.88 1.18,14.46z"/>
   <path class="fil1" d="M105.3 25.09c-0.79,-1.42 -6.69,-15.2 -9.77,-8.81 -1.11,2.28 5.3,11.96 6.69,14.45 5.19,9.25 5.47,11.96 10.01,9.48 0.56,-3.27 -1.44,-5.67 -2.91,-8.14 -1.38,-2.32 -2.75,-4.68 -4.02,-6.98z"/>
   <path class="fil1" d="M60.19 52.68c0.43,2.06 11.11,7.52 13.32,8.87 1.97,1.2 8.7,5.99 10.9,5.25 1.12,-0.37 2.12,-1.57 1.81,-3.31 -0.28,-1.6 -10.52,-6.98 -13.3,-8.63 -2.02,-1.2 -14.32,-9.82 -12.73,-2.18z"/>
   <path class="fil1" d="M178.94 37.02c-1.98,3.65 1.5,6.52 4.16,3.79l12.14 -20.47c2.16,-4.13 -1.94,-6.09 -4.15,-3.67l-8.29 13.8c-1.36,2.15 -2.74,4.49 -3.86,6.55z"/>
   <path class="fil1" d="M205.85 67.92c2.55,0.11 23.65,-11.77 24.25,-13.33 0.66,-1.72 -0.14,-3.27 -1.63,-3.65 -2.02,-0.5 -12.04,5.78 -14.41,7.08 -9.61,5.31 -12.28,5.88 -8.21,9.9z"/>
   <path class="fil1" d="M175.99 146.05c-12.58,1.57 -10.68,2.45 -25.54,2.64 -9.56,0.12 -16.34,-1.1 -25.37,-1.91 0.09,11 0.22,16.56 5.92,23.8 3.57,4.54 11,9.23 19.88,9.12 8.98,-0.11 15.71,-4.58 19.72,-9.59 5.25,-6.55 5.63,-13.48 5.39,-24.06z"/>
   <path class="fil1" d="M174.02 143.13c0.81,-2.32 3.76,-2.21 10.06,-7.4 6.43,-5.29 11.98,-11.56 16.74,-18.62 6.37,-9.44 15.59,-29.7 16.35,-38.8 -4.54,-0.81 -12.07,0.22 -17.17,0.05 -2.89,-0.09 -5.65,0.21 -8.55,0.11l-102.06 1.77c-2.67,-0.1 -5.36,0.06 -7.93,0.27 6.69,23.18 18.28,47.33 45.36,62.67 0.15,0.19 0.26,0.46 0.35,0.79 17.39,1.92 29.52,1.88 46.85,-0.84z"/>
   <path class="fil1" d="M155.07 285.83l-8.92 0.76 0.08 -102.94c3.39,1.31 6.43,1.45 8.96,-0.12l-0.12 102.3z"/>
   <polygon class="fil1" points="196.13,118.6 191.41,120.72 192.15,122.65 227.86,201.43 233.48,213.89 238.34,211.84 "/>
  </g>
 </g>
</svg>
