<?xml version="1.0" encoding="UTF-8"?>
<!DOCTYPE svg PUBLIC "-//W3C//DTD SVG 1.1//EN" "http://www.w3.org/Graphics/SVG/1.1/DTD/svg11.dtd">
<!-- Creator: CorelDRAW 2017 -->
<svg xmlns="http://www.w3.org/2000/svg" xml:space="preserve" width="6.3498mm" height="3.0478mm" version="1.1" style="shape-rendering:geometricPrecision; text-rendering:geometricPrecision; image-rendering:optimizeQuality; fill-rule:evenodd; clip-rule:evenodd"
viewBox="0 0 634.98 304.78"
 xmlns:xlink="http://www.w3.org/1999/xlink">
 <defs>
  <style type="text/css">
   <![CDATA[
    .fil1 {fill:none}
    .fil0 {fill:#373435}
   ]]>
  </style>
 </defs>
 <g id="Capa_x0020_1">
  <metadata id="CorelCorpID_0Corel-Layer"/>
  <g id="_2081003178208">
   <path class="fil0" d="M341.33 12.45l8.92 -0.75 -0.08 102.94c-3.39,-1.32 -6.43,-1.46 -8.96,0.11l0.12 -102.3z"/>
   <path class="fil0" d="M313.73 223.43c28.44,26.65 64.11,5.57 66.81,-1.42l-16.66 0.08c-3,0.14 -4.99,0.03 -8.15,0.17 -9.88,0.44 -24.37,-0.04 -33.79,0.44 -3.04,0.15 -7.06,-0.24 -8.21,0.73z"/>
   <path class="fil0" d="M352.44 266.04c-5.73,-0.84 -4.29,4.95 -4.37,14.41 -0.09,11.3 -1.66,15.57 4.31,14.6 2.02,-3.05 1.19,-10.02 1.23,-14.55 0.04,-4.88 0.85,-11.87 -1.17,-14.46z"/>
   <path class="fil0" d="M391.13 272.72c0.79,1.42 6.7,15.2 9.78,8.82 1.1,-2.29 -5.3,-11.96 -6.7,-14.46 -5.19,-9.25 -5.47,-11.96 -10.01,-9.48 -0.56,3.28 1.45,5.67 2.91,8.14 1.39,2.32 2.75,4.69 4.02,6.98z"/>
   <path class="fil0" d="M436.25 245.13c-0.43,-2.06 -11.12,-7.51 -13.33,-8.87 -1.97,-1.2 -8.69,-5.99 -10.9,-5.25 -1.11,0.37 -2.12,1.57 -1.81,3.32 0.28,1.59 10.52,6.98 13.31,8.63 2.01,1.2 14.31,9.81 12.73,2.17z"/>
   <path class="fil0" d="M317.49 260.8c1.98,-3.65 -1.49,-6.53 -4.16,-3.8l-12.14 20.47c-2.15,4.13 1.94,6.1 4.15,3.68l8.3 -13.81c1.36,-2.14 2.74,-4.49 3.85,-6.54z"/>
   <path class="fil0" d="M290.59 229.9c-2.56,-0.11 -23.66,11.76 -24.26,13.33 -0.65,1.71 0.14,3.26 1.63,3.64 2.03,0.51 12.05,-5.78 14.41,-7.08 9.62,-5.31 12.28,-5.88 8.22,-9.89z"/>
   <path class="fil0" d="M320.45 151.77c12.58,-1.57 10.67,-2.46 25.53,-2.65 9.56,-0.12 16.35,1.11 25.37,1.91 -0.08,-11 -0.21,-16.56 -5.91,-23.79 -3.58,-4.55 -11,-9.23 -19.89,-9.12 -8.98,0.11 -15.7,4.57 -19.72,9.58 -5.24,6.55 -5.63,13.49 -5.38,24.07z"/>
   <path class="fil0" d="M322.42 154.68c-0.82,2.33 -3.76,2.22 -10.06,7.4 -6.43,5.29 -11.98,11.57 -16.74,18.62 -6.38,9.45 -15.6,29.7 -16.35,38.8 4.53,0.81 12.07,-0.22 17.17,-0.05 2.89,0.09 5.65,-0.21 8.54,-0.1l102.07 -1.78c2.66,0.11 5.36,-0.05 7.92,-0.27 -6.69,-23.18 -18.27,-47.32 -45.35,-62.67 -0.16,-0.18 -0.27,-0.45 -0.35,-0.78 -17.4,-1.92 -29.52,-1.89 -46.85,0.83z"/>
   <path class="fil0" d="M468.55 278c-7.67,4.96 -14.59,15.37 -14.94,24.15l146.82 0c0.02,-6.08 -4.95,-15.19 -9.09,-19.22 -11.29,-10.98 -17.97,-8.55 -37.7,-8.55 -15.21,0 -75.01,-2.9 -85.09,3.62z"/>
   <path class="fil0" d="M598.18 210.97c2.26,8.01 5.9,10.61 13.36,7.3 7.31,-3.24 8.55,-8.08 3.4,-14.91l-16.76 7.61z"/>
   <path class="fil0" d="M556.04 74.39c-28.43,-26.66 -64.11,-5.58 -66.81,1.41l16.67 -0.07c2.99,-0.15 4.98,-0.04 8.15,-0.18 9.87,-0.43 24.37,0.05 33.78,-0.44 3.05,-0.15 7.07,0.24 8.21,-0.72z"/>
   <path class="fil0" d="M517.34 31.77c5.73,0.85 4.28,-4.94 4.36,-14.41 0.1,-11.3 1.66,-15.57 -4.31,-14.6 -2.02,3.05 -1.19,10.03 -1.23,14.55 -0.04,4.88 -0.85,11.88 1.18,14.46z"/>
   <path class="fil0" d="M478.64 25.09c-0.79,-1.42 -6.69,-15.2 -9.77,-8.81 -1.11,2.28 5.3,11.96 6.69,14.45 5.19,9.25 5.47,11.96 10.01,9.48 0.56,-3.27 -1.44,-5.67 -2.91,-8.14 -1.38,-2.32 -2.75,-4.68 -4.02,-6.98z"/>
   <path class="fil0" d="M433.53 52.68c0.43,2.06 11.11,7.52 13.32,8.87 1.97,1.2 8.7,5.99 10.9,5.25 1.12,-0.37 2.12,-1.57 1.81,-3.31 -0.28,-1.6 -10.52,-6.98 -13.3,-8.63 -2.02,-1.2 -14.32,-9.82 -12.73,-2.18z"/>
   <path class="fil0" d="M552.28 37.02c-1.98,3.65 1.5,6.52 4.16,3.79l12.14 -20.47c2.16,-4.13 -1.94,-6.09 -4.15,-3.67l-8.29 13.8c-1.36,2.15 -2.74,4.49 -3.86,6.55z"/>
   <path class="fil0" d="M579.19 67.92c2.55,0.11 23.65,-11.77 24.25,-13.33 0.66,-1.72 -0.14,-3.27 -1.63,-3.65 -2.02,-0.5 -12.04,5.78 -14.41,7.08 -9.61,5.31 -12.28,5.88 -8.21,9.9z"/>
   <path class="fil0" d="M549.33 146.05c-12.58,1.57 -10.68,2.45 -25.54,2.64 -9.56,0.12 -16.34,-1.1 -25.37,-1.91 0.09,11 0.22,16.56 5.92,23.8 3.57,4.54 11,9.23 19.88,9.12 8.98,-0.11 15.71,-4.58 19.72,-9.59 5.25,-6.55 5.63,-13.48 5.39,-24.06z"/>
   <path class="fil0" d="M547.36 143.13c0.81,-2.32 3.76,-2.21 10.06,-7.4 6.43,-5.29 11.98,-11.56 16.74,-18.62 6.37,-9.44 15.59,-29.7 16.35,-38.8 -4.54,-0.81 -12.07,0.22 -17.17,0.05 -2.89,-0.09 -5.65,0.21 -8.55,0.11l-102.06 1.77c-2.67,-0.1 -5.36,0.06 -7.93,0.27 6.69,23.18 18.28,47.33 45.36,62.67 0.15,0.19 0.26,0.46 0.35,0.79 17.39,1.92 29.52,1.88 46.85,-0.84z"/>
   <path class="fil0" d="M528.41 285.83l-8.92 0.76 0.08 -102.94c3.39,1.31 6.43,1.45 8.96,-0.12l-0.12 102.3z"/>
   <polygon class="fil0" points="569.47,118.6 564.75,120.72 565.49,122.65 601.2,201.43 606.82,213.89 611.68,211.84 "/>
   <path class="fil0" d="M31.99 159.19c9.35,-3.14 14.67,12.35 4.08,15.36 -9.37,2.66 -15.17,-11.64 -4.08,-15.36zm-13.12 0.65c-0.78,0.76 -0.2,-0.18 -0.91,1.29 -0.17,0.37 -0.46,1.4 -0.49,1.52 -0.39,1.57 -0.46,2.63 -0.54,4.22 -0.05,10.88 8.98,18.97 22.15,16.59l22.31 22.12c7.32,7.51 14.74,14.43 22.05,21.98l22.01 22.02c2.81,2.72 20.97,20.42 21.72,22.21 -11.24,0.02 -27.65,-1.66 -35.82,3.63 -7.67,4.96 -14.59,15.37 -14.95,24.14l146.83 0c0.02,-6.08 -4.95,-15.19 -9.09,-19.21 -11.29,-10.98 -17.97,-8.56 -37.7,-8.56 -5.13,0 -34.58,0.69 -36.65,-0.47 -0.48,-0.26 -4.09,-3.94 -4.77,-4.65l-78.93 -78.86c-2.85,-2.95 -6.63,-5.98 -8.94,-9.2 1.6,-3.5 3.95,-5.11 4.16,-11 0.21,-5.74 -1.71,-7.92 -3.61,-11.54 7.42,-8.13 15.27,-15.26 22.61,-22.78l45.56 -45.63c4.73,-4.67 12.85,-13.14 18.65,-18.82 -2.01,-2.48 -3.71,-4.85 -5.05,-7.25 -0.72,0.68 -1.44,1.35 -2.14,2.06l-17.74 17.73c-4.12,3.94 -7.12,7.49 -11.5,11.55 -4.17,3.86 -6.98,7.09 -11.57,11.49l-46.39 46.27c-7.69,-1.41 -7.19,-1.42 -14.15,1.02 -0.79,0.42 -0.75,0.23 -1.74,1.06 -1.37,1.15 -0.62,0.45 -1.27,1.54 -0.79,0.39 -0.57,0.19 -1.44,0.97 -0.66,0.58 -0.82,0.83 -1.26,1.38 -1.03,1.31 -1.23,1.51 -1.4,3.18zm125.11 -89.28c0.91,2.29 -1.39,4.14 -2.75,12.18 -1.39,8.21 -1.46,16.59 -0.43,25.04 1.38,11.31 7.7,32.65 13.09,40.02 3.96,-2.36 8.97,-8.08 12.93,-11.3 2.25,-1.82 4.13,-3.86 6.39,-5.68l75.9 -68.25c2.08,-1.67 4.01,-3.56 5.81,-5.41 -20.25,-13.12 -44.83,-23.75 -75.34,-17.58 -0.24,-0.04 -0.5,-0.17 -0.78,-0.37 -14.39,9.96 -23.52,17.93 -34.82,31.35z"/>
   <path class="fil0" d="M182.49 128.16c38.94,1.49 52.06,-37.82 49.52,-44.87l-12.54 10.99c-2.16,2.07 -3.73,3.29 -6.03,5.47 -7.18,6.8 -18.44,15.95 -25.23,22.48 -2.2,2.12 -5.49,4.45 -5.72,5.93z"/>
   <path class="fil0" d="M187.18 270.07c1.24,-8.22 -1,-12.09 -9.16,-12.16 -7.99,-0.06 -11.12,3.84 -9.25,12.18l18.41 -0.02z"/>
   <path class="fil0" d="M239.65 134.96c-4.88,3.13 0.01,6.55 6.16,13.75 7.33,8.59 8.95,12.84 12.82,8.2 -0.47,-3.63 -5.67,-8.35 -8.61,-11.8 -3.17,-3.71 -7.14,-9.52 -10.37,-10.15z"/>
   <path class="fil0" d="M273.25 114.64c1.53,0.56 15.02,7.09 13.16,0.25 -0.66,-2.45 -11.84,-5.56 -14.53,-6.53 -9.98,-3.58 -11.97,-5.44 -13.77,-0.59 1.72,2.84 4.8,3.33 7.53,4.23 2.57,0.85 5.15,1.74 7.61,2.64z"/>
   <path class="fil0" d="M289.23 64.23c-1.68,-1.28 -13.32,1.61 -15.88,2.04 -2.27,0.38 -10.49,1.18 -11.67,3.18 -0.6,1.01 -0.57,2.57 0.8,3.69 1.27,1.02 12.53,-1.63 15.71,-2.21 2.31,-0.41 17.24,-1.97 11.04,-6.7z"/>
   <path class="fil0" d="M209.83 153.92c-0.9,-4.06 -5.41,-3.95 -5.63,-0.14l4.25 23.41c1.08,4.54 5.46,3.34 5.55,0.06l-2.79 -15.86c-0.38,-2.52 -0.88,-5.19 -1.38,-7.47z"/>
   <path class="fil0" d="M169.25 148.22c-2,1.6 -10.14,24.4 -9.57,25.97 0.63,1.73 2.25,2.38 3.62,1.68 1.86,-0.94 5.31,-12.26 6.24,-14.79 3.78,-10.31 5.42,-12.49 -0.29,-12.86z"/>
   <path class="fil0" d="M140.58 69.65c8.47,-9.43 6.45,-8.85 17.54,-18.74 7.15,-6.35 13.07,-9.88 20.41,-15.19 -7.27,-8.25 -11.02,-12.36 -20.06,-14.09 -5.68,-1.08 -14.36,0.25 -21,6.15 -6.71,5.97 -8.86,13.76 -8.6,20.18 0.33,8.38 4.58,13.87 11.71,21.69z"/>
   <path class="fil0" d="M143.98 70.56c0.91,2.29 -1.39,4.14 -2.75,12.18 -1.39,8.21 -1.46,16.59 -0.43,25.04 1.38,11.31 7.7,32.65 13.09,40.02 3.96,-2.36 8.97,-8.08 12.93,-11.3 2.25,-1.82 4.13,-3.86 6.39,-5.68l75.9 -68.25c2.08,-1.67 4.01,-3.56 5.81,-5.41 -20.25,-13.12 -44.83,-23.75 -75.34,-17.58 -0.24,-0.04 -0.5,-0.17 -0.78,-0.37 -14.39,9.96 -23.52,17.93 -34.82,31.35z"/>
  </g>
  <rect class="fil1" x="-44.44" y="130.95" width="203.18" height="203.18"/>
 </g>
</svg>
