<?xml version="1.0" encoding="UTF-8"?>
<!DOCTYPE svg PUBLIC "-//W3C//DTD SVG 1.1//EN" "http://www.w3.org/Graphics/SVG/1.1/DTD/svg11.dtd">
<!-- Creator: CorelDRAW 2017 -->
<svg xmlns="http://www.w3.org/2000/svg" xml:space="preserve" width="27.8552mm" height="6.8578mm" version="1.1" style="shape-rendering:geometricPrecision; text-rendering:geometricPrecision; image-rendering:optimizeQuality; fill-rule:evenodd; clip-rule:evenodd"
viewBox="0 0 2785.52 685.78"
 xmlns:xlink="http://www.w3.org/1999/xlink">
 <defs>
  <style type="text/css">
   <![CDATA[
    .fil0 {fill:#373435;fill-rule:nonzero}
   ]]>
  </style>
 </defs>
 <g id="Capa_x0020_1">
  <metadata id="CorelCorpID_0Corel-Layer"/>
  <g id="_2069653257840">
   <path class="fil0" d="M-0.85 558.85c0,-43.65 24.21,-77.13 72.5,-100.11 -27.31,-12.5 -41.04,-33.01 -41.04,-61.55 0,-27.46 14.51,-51.06 43.66,-70.96 -37.18,-28.38 -55.69,-67.26 -55.69,-116.62l0 -25.92c0,-44.42 15.89,-80.83 47.67,-109.21 31.78,-28.39 73.27,-42.58 124.49,-42.58 43.19,0 78.98,10.49 107.36,31.47 17.9,-41.34 37.95,-62.01 60.16,-62.01 11.73,0 21.29,3.55 28.7,10.64 7.4,7.1 11.1,14.66 11.1,22.68 0,9.87 -5.24,17.58 -15.73,23.14 -19.75,8.64 -35.17,20.98 -46.28,37.02 19.74,24.68 29.62,54.3 29.62,88.85l0 25.92c0,44.43 -16.35,81.14 -49.06,110.14 -32.7,29 -74.66,43.5 -125.87,43.5 -24.07,0 -45.36,-3.7 -63.87,-11.11 -11.72,8.03 -17.58,16.82 -17.58,26.07 0,12.5 9.72,21.6 29.15,27.15 19.44,5.56 42.89,10.03 70.34,13.12 27.46,3.08 54.92,7.56 82.38,13.57 27.46,5.86 50.91,18.51 70.34,37.8 19.44,19.43 29.16,45.04 29.16,76.82 0,45.5 -18.36,79.9 -55.07,103.04 -36.72,23.14 -83.15,34.71 -139.3,34.71 -56.15,0 -103.05,-11.41 -140.69,-34.09 -37.63,-22.83 -56.45,-53.37 -56.45,-91.48zm91.63 -10.33c0,22.37 9.71,40.41 29.15,53.83 19.44,13.43 44.58,20.06 75.43,20.06 30.24,0 54.61,-6.48 73.12,-19.59 18.51,-13.11 27.77,-31.01 27.77,-53.38 0,-14.34 -4.32,-26.37 -12.96,-36.09 -8.64,-9.57 -21.44,-16.82 -38.41,-21.45 -16.97,-4.62 -31.47,-7.86 -43.5,-9.41 -12.03,-1.54 -28.23,-2.93 -48.59,-4.16 -41.34,15.58 -62.01,39.03 -62.01,70.19zm22.21 -339.84c0,27.15 7.1,49.37 21.29,66.64 14.19,17.28 33.63,25.92 58.31,25.92 24.06,0 43.19,-8.49 57.38,-25.45 14.19,-16.97 21.29,-39.03 21.29,-66.18l0 -25.92c0,-25.91 -7.1,-47.35 -21.29,-64.32 -14.19,-16.97 -33.63,-25.46 -58.31,-25.46 -24.06,0 -43.19,8.49 -57.38,25.46 -14.19,16.97 -21.29,38.41 -21.29,64.32l0 24.99zm277.21 90.71l0 -87.93c0,-48.75 18.82,-90.86 56.45,-126.34 37.64,-35.48 83,-53.22 136.06,-53.22 50.6,0 93.95,16.04 130.04,48.13 36.1,32.09 54.15,72.66 54.15,121.56 0,18.82 -2.16,34.09 -6.48,45.81 -4.32,11.57 -11.11,19.75 -20.36,24.53 -9.26,4.63 -17.9,7.71 -25.92,8.95 -8.02,1.23 -18.51,1.85 -31.47,1.85l-195.29 0 0 21.44c0,31.16 11.11,55.84 33.32,74.2 22.21,18.36 51.21,27.46 87,27.46 25.3,0 49.21,-5.86 71.73,-17.74 22.53,-11.73 36.25,-17.74 41.19,-17.74 10.49,0 19.44,4.93 26.84,14.96 7.41,9.87 11.11,19.44 11.11,28.69 0,15.27 -14.81,30.7 -44.43,46.28 -29.62,15.58 -66.02,23.29 -109.21,23.29 -62.94,0 -114.47,-16.96 -154.57,-50.9 -40.11,-33.94 -60.16,-78.37 -60.16,-133.28zm97.18 -78.67l153.64 0c13.58,0 22.68,-1.86 27.31,-5.4 4.62,-3.71 6.94,-10.96 6.94,-21.91 0,-24.37 -8.95,-44.89 -26.84,-62.01 -17.9,-16.97 -40.11,-25.45 -66.64,-25.45 -25.92,0 -48.13,8.02 -66.64,24.06 -18.51,16.2 -27.77,36.71 -27.77,61.55l0 29.16zm300.35 80.52l0 -231.39c0,-8.64 4.94,-16.2 14.81,-22.68 9.88,-6.48 21.29,-9.72 34.25,-9.72 12.96,0 24.22,3.24 33.78,9.72 9.57,6.48 14.35,14.04 14.35,22.52l0 230.93c0,24.53 9.41,46.74 28.23,66.49 18.82,19.59 40.88,29.46 66.17,29.46 25.92,0 48.13,-9.72 66.64,-29.15 18.52,-19.29 27.77,-41.65 27.77,-66.8l0 -231.85c0,-8.48 4.78,-15.89 14.35,-22.06 9.56,-6.17 21.13,-9.26 34.71,-9.26 13.57,0 24.83,3.09 33.78,9.26 8.95,6.17 13.42,13.58 13.42,22.21l0 232.32c0,48.75 -18.82,91.32 -56.46,127.73 -37.64,36.4 -82.37,54.6 -134.21,54.6 -51.83,0 -96.72,-18.2 -134.66,-54.6 -37.95,-36.41 -56.93,-78.98 -56.93,-127.73zm398.46 108.29c0,-9.26 3.24,-18.82 9.87,-28.69 6.48,-9.88 14.35,-14.81 23.76,-14.81 5.55,0 13.26,3.55 23.29,10.8 9.87,7.25 23.29,14.5 40.11,21.75 16.81,7.25 37.02,10.95 60.62,10.95 52.91,0 79.29,-16.81 79.29,-50.29 0,-18.05 -7.71,-32.09 -23.14,-42.42 -15.42,-10.18 -34.09,-18.2 -55.99,-24.22 -21.91,-5.86 -43.66,-12.49 -65.25,-19.9 -21.6,-7.56 -40.11,-20.21 -55.54,-38.26 -15.42,-18.04 -23.14,-41.34 -23.14,-69.88 0,-36.25 12.96,-67.41 38.88,-93.48 25.91,-26.07 65.71,-39.18 119.39,-39.18 35.17,0 67.11,5.4 95.8,16.2 28.69,10.8 43.04,23.6 43.04,38.41 0,8.64 -3.55,18.66 -10.65,30.08 -7.09,11.42 -15.89,17.12 -26.38,17.12 -3.7,0 -16.35,-4.63 -37.94,-13.88 -21.6,-9.26 -42.27,-13.88 -62.02,-13.88 -24.68,0 -43.34,5.55 -55.99,16.81 -12.65,11.11 -18.98,23.6 -18.98,37.18 0,14.96 7.72,26.68 23.14,35.48 15.43,8.64 34.25,15.73 56.46,21.28 22.22,5.71 44.12,12.5 65.56,20.52 21.6,8.02 39.96,22.06 55.07,41.96 15.28,19.9 22.83,45.35 22.83,76.36 0,39.95 -14.19,71.27 -42.57,93.94 -28.39,22.68 -68.49,34.09 -120.32,34.09 -43.81,0 -81.3,-7.71 -112.46,-23.13 -31.16,-15.43 -46.74,-32.4 -46.74,-50.91z"/>
   <path class="fil0" d="M1674.33 320.63l0 0c23.27,0 42.86,7.93 58.78,23.85 15.95,15.91 23.93,35.51 23.93,58.78l0 20.71c0,14.38 -3.43,27.78 -10.33,40.18 -6.91,12.4 -16.5,22.4 -28.77,29.97 12.11,6.32 21.66,15.17 28.64,26.62 6.99,11.41 10.46,23.93 10.46,37.49l0 0c0,20.42 -6.94,37.62 -20.87,51.55 -13.93,13.93 -31.13,20.87 -51.55,20.87l-20.59 0c-20.25,0 -37.41,-6.9 -51.42,-20.71 -14.01,-13.8 -21,-30.83 -21,-51.09l0 -0.62c0,-5.83 1.99,-10.7 6,-14.63 4.01,-3.97 8.88,-5.95 14.71,-5.95l0 0c5.83,0 10.71,1.98 14.72,5.95 4.01,3.93 5.99,8.8 5.99,14.63l0 0 0 10.46c0,11.66 3.97,21.45 11.95,29.43 7.94,7.98 17.73,11.95 29.35,11.95l0 0c11.61,0 21.41,-3.97 29.35,-11.95 7.97,-7.98 11.94,-17.77 11.94,-29.43l0 -20.79c0,-11.7 -3.97,-21.54 -11.86,-29.43 -7.94,-7.9 -17.73,-11.83 -29.43,-11.83l-0.13 0 0 0 0.13 0c-23.4,0 -43.08,-7.93 -58.91,-23.81 -15.87,-15.83 -23.81,-35.5 -23.81,-58.9l0 -20.71c0,-23.32 7.94,-42.95 23.85,-58.78 15.92,-15.88 35.55,-23.81 58.87,-23.81zm0 20.58c-11.7,0 -21.5,3.97 -29.43,11.95 -7.9,7.94 -11.87,17.77 -11.87,29.51l0 62.05c0,11.74 3.97,21.54 11.87,29.47 7.93,7.9 17.73,11.87 29.43,11.87l0 0c11.61,0 21.41,-3.97 29.35,-11.95 7.97,-7.94 11.94,-17.73 11.94,-29.39l0 -62.05c0,-11.65 -3.97,-21.45 -11.94,-29.47 -7.94,-7.98 -17.74,-11.99 -29.35,-11.99zm181.65 -20.58l0 0c23.27,0 42.86,7.93 58.78,23.85 15.95,15.91 23.93,35.47 23.93,58.74l0 20.71c0,23.31 -7.93,42.95 -23.85,58.86 -15.91,15.92 -35.55,23.85 -58.86,23.85l0 0c-23.4,0 -43.08,-7.93 -58.91,-23.81 -15.87,-15.83 -23.81,-35.5 -23.81,-58.9l0 -20.71c0,-23.32 7.94,-42.95 23.85,-58.78 15.92,-15.88 35.55,-23.81 58.87,-23.81zm0 20.58c-11.7,0 -21.5,3.97 -29.43,11.95 -7.9,7.94 -11.87,17.77 -11.87,29.51l0 62.05c0,11.74 3.97,21.54 11.87,29.47 7.93,7.9 17.73,11.87 29.43,11.87l0 0c11.61,0 21.41,-3.97 29.35,-11.95 7.97,-7.94 11.94,-17.73 11.94,-29.39l0 -62.05c0,-11.65 -3.97,-21.45 -11.94,-29.47 -7.94,-7.98 -17.74,-11.99 -29.35,-11.99zm141.3 103.51c0,11.74 3.97,21.54 11.87,29.47 7.93,7.9 17.73,11.87 29.43,11.87l0 0c11.61,0 21.41,-3.97 29.35,-11.95 7.97,-7.94 11.94,-17.73 11.94,-29.39l0 -103.51c0,-5.78 1.99,-10.7 6,-14.63 4.01,-3.97 8.88,-5.95 14.71,-5.95l0 0c5.83,0 10.71,1.98 14.72,5.99 4.01,4.01 5.99,8.89 5.99,14.64l0 82.79 0 0 0 0 0 0c0,23.32 -7.93,42.91 -23.85,58.78 -15.91,15.88 -35.55,23.81 -58.86,23.81l0 0c-23.11,0 -42.66,-7.93 -58.66,-23.81 -16.04,-15.83 -24.06,-35.3 -24.06,-58.28l0 -83.34c0,-5.82 1.99,-10.7 6,-14.63 4.01,-3.97 8.88,-5.95 14.71,-5.95l0 0c5.83,0 10.71,1.98 14.72,5.99 4.01,4.01 5.99,8.89 5.99,14.59l0 103.51zm304.91 -41.63l0.13 0.13c0,0.04 0.04,0.08 0.12,0.08 0,5.75 -2.02,10.67 -6.07,14.68 -4.01,4.05 -8.89,6.07 -14.64,6.07 -5.83,0 -10.7,-1.98 -14.71,-5.99 -4.01,-4.01 -6,-8.89 -6,-14.72l-0.12 0 0.12 -20.58c0,-11.62 -3.97,-21.46 -11.94,-29.43 -7.94,-7.98 -17.74,-11.99 -29.35,-11.99l0 0c-11.7,0 -21.5,3.97 -29.43,11.9 -7.9,7.98 -11.87,17.78 -11.87,29.48l0 103.21c0,5.75 -2.02,10.63 -6.03,14.68 -4.05,4.01 -8.93,6.03 -14.68,6.03 -5.83,0 -10.7,-1.98 -14.71,-5.99 -4.01,-4.01 -6,-8.89 -6,-14.72l0 -82.71c0,-23.32 7.94,-42.95 23.85,-58.78 15.92,-15.88 35.55,-23.81 58.87,-23.81l0 0c22.94,0 42.41,7.98 58.49,23.89 16.08,15.92 24.1,35.34 24.1,58.33l-0.13 0.12 0 0.12zm52.27 82.84c0,5.75 -2.03,10.63 -6.04,14.68 -4.05,4.01 -8.93,6.03 -14.67,6.03l0 0c-5.75,0 -10.63,-2.02 -14.68,-6.03 -4.01,-4.05 -6.03,-8.93 -6.03,-14.68l0 -83.21c0,-23.15 7.98,-42.62 23.97,-58.41 16,-15.79 35.55,-23.68 58.74,-23.68l0 0c24.56,0 45.22,9.42 62.01,28.23 16.45,-18.81 37.12,-28.23 62,-28.23l0 0c23.32,0 42.95,7.93 58.87,23.85 15.91,15.87 23.85,35.51 23.85,58.86l0 0 0 0 0 0 0 82.63c0,5.71 -2.03,10.59 -6.04,14.64 -4.05,4.01 -8.93,6.03 -14.67,6.03l0 0c-5.75,0 -10.63,-2.02 -14.68,-6.03 -4.01,-4.05 -6.03,-8.93 -6.03,-14.68l0 -103.3c0,-11.7 -3.97,-21.53 -11.87,-29.47 -7.93,-7.98 -17.73,-11.95 -29.43,-11.95l0 0c-11.7,0 -21.49,3.97 -29.43,11.95 -7.9,7.94 -11.86,17.77 -11.86,29.47l0 103.3c0,11.21 -5.54,17.98 -16.58,20.22 -1.61,0.33 -3.02,0.49 -4.13,0.49l0 0c-5.75,0 -10.63,-2.02 -14.68,-6.03 -4.01,-4.05 -6.03,-8.93 -6.03,-14.68l0 -103.3c0,-11.7 -3.97,-21.53 -11.87,-29.47 -7.93,-7.98 -17.73,-11.95 -29.43,-11.95l0 0c-11.7,0 -21.49,3.97 -29.43,11.95 -7.9,7.94 -11.86,17.77 -11.86,29.47l0 103.3zm390.48 -82.71l0 -20.55c0,-11.61 -3.97,-21.41 -11.94,-29.39 -7.94,-7.97 -17.74,-11.94 -29.35,-11.94l0 0c-11.7,0 -21.5,3.97 -29.43,11.9 -7.9,7.94 -11.87,17.74 -11.87,29.43l0 20.55 82.59 0zm-1.32 51.83l-0.17 0 0 0 0.17 0c1.45,-6.86 4.63,-10.29 9.55,-10.29l16.82 0c4.3,0 6.66,0.04 7.03,0.13 2.6,0.57 3.89,2.15 3.89,4.71 1.11,0 0.57,1.78 -1.7,5.33 -10.5,16.33 -20.87,28.52 -31.13,36.5 -12.98,10.13 -27.82,15.21 -44.43,15.21l0 0c-23.4,0 -43.08,-7.93 -58.91,-23.85 -15.87,-15.87 -23.81,-35.55 -23.81,-58.99l0 -20.58c0,-23.32 7.94,-42.95 23.85,-58.78 15.92,-15.88 35.55,-23.81 58.87,-23.81l0 0c22.94,0 42.41,7.98 58.49,23.93 16.08,15.96 24.1,35.43 24.1,58.41l-0.13 0.12 0 0.13 0.13 0c0,0.08 0.04,0.12 0.12,0.12 0,5.75 -1.94,10.59 -5.87,14.55 -3.92,3.93 -8.8,5.91 -14.59,5.91l0 0 -103.55 0 0 20.8c0,11.74 3.97,21.62 11.87,29.55 7.93,7.94 17.73,11.91 29.43,11.91l0 0c9.5,0 17.98,-2.85 25.3,-8.6 7.35,-5.75 12.23,-13.19 14.67,-22.41z"/>
   <polygon class="fil0" points="2705.95,326.97 2733.04,268.97 2782.15,268.97 2736.85,326.97 "/>
  </g>
 </g>
</svg>
