<?xml version="1.0" encoding="UTF-8"?>
<!DOCTYPE svg PUBLIC "-//W3C//DTD SVG 1.1//EN" "http://www.w3.org/Graphics/SVG/1.1/DTD/svg11.dtd">
<!-- Creator: CorelDRAW 2017 -->
<svg xmlns="http://www.w3.org/2000/svg" xml:space="preserve" width="74.916mm" height="15mm" version="1.1" style="shape-rendering:geometricPrecision; text-rendering:geometricPrecision; image-rendering:optimizeQuality; fill-rule:evenodd; clip-rule:evenodd"
viewBox="0 0 7491.6 1500"
 xmlns:xlink="http://www.w3.org/1999/xlink">
 <defs>
  <style type="text/css">
   <![CDATA[
    .fil0 {fill:#F58634}
    .fil2 {fill:#727376;fill-rule:nonzero}
    .fil1 {fill:#F58634;fill-rule:nonzero}
   ]]>
  </style>
 </defs>
 <g id="Capa_x0020_1">
  <metadata id="CorelCorpID_0Corel-Layer"/>
  <g id="_2188926025424">
   <g>
    <path class="fil0" d="M643.13 409.47l-54.65 -399.98c16.79,-1.33 33.62,-1.99 50.45,-1.99 8.93,0 17.86,0.18 26.78,0.56l-22.58 401.41z"/>
    <polygon class="fil0" points="11.14,765.12 406.04,690.45 406.04,690.46 "/>
    <polygon class="fil0" points="844.01,527.6 1191.78,326.12 844.02,527.61 "/>
    <polygon class="fil0" points="1260.09,496.8 869.37,590.92 869.37,590.91 "/>
    <path class="fil0" d="M875.01 667.21l0.02 0 0.18 -2.31 -0.2 2.31zm0.79 -13.28l0.01 -0.22 -0.01 0 0 0.22zm-6.56 48.56l0 0 -0.25 1.05 0.25 -1.05zm-6.28 21.39l-0.23 0.68 -0.01 0 0.24 -0.68zm10.43 -112.18l0.01 0 -0.11 -0.66 0.1 0.66zm-3.93 -20.47l-0.08 -0.32 -0.01 0 0.09 0.32zm-6.36 -21.86l0.01 0 -0.05 -0.15 0.04 0.15zm-20.99 199.1l0.01 0 0.23 -0.38 -0.24 0.38zm13.25 -25.35l0.18 -0.41 -0.01 0 -0.17 0.41zm-127.14 122.87l-0.28 0.13 0 -0.01 0.28 -0.12zm-101.48 17.11c-1.97,-0.1 -3.94,-0.21 -5.89,-0.37l5.89 0.37zm-6.04 -0.39l-0.74 -0.05 0 -0.02 0.74 0.07zm-33.43 -4.96l-1.2 -0.27 1.2 0.26 0 0.01zm-185.14 -240.88l0.09 -2.03 -0.07 2.03 -0.02 0zm1.13 -15.54l0.32 -2.85 0.01 0 -0.33 2.85zm6.33 -34.85l1.08 -4.01 -1.07 4.01 -0.01 0zm5.08 -16.85c0.46,-1.41 0.96,-2.82 1.48,-4.21l0.01 0 -1.49 4.21zm14.32 -33.25l0.48 -0.91 -0.47 0.92 -0.01 -0.01z"/>
    <path class="fil0" d="M620.22 410.16l-31.74 -400.67c16.79,-1.33 33.62,-1.99 50.46,-1.99 8.92,0 17.85,0.17 26.77,0.55l-16.84 401.6 -0.15 -0.01 -0.15 0 -0.16 -0.01 -0.16 -0.01 -0.15 0 -0.15 -0.01 -0.16 -0.01 -0.16 0 -0.15 -0.01 -0.15 -0.01 -0.16 0 -0.15 -0.01 -0.16 0 -0.15 -0.01 -0.16 0 -0.15 0 -0.16 -0.01 -0.16 0 -0.14 -0.01 -0.16 0 -0.16 -0.01 -0.93 -0.03 -0.15 0 -0.16 0 -0.15 -0.01 -0.16 0 -0.15 -0.01 -0.16 0 -0.16 0 -0.15 -0.01 -0.15 0 -0.16 0 -3.59 -0.04 -0.15 0 -0.15 0 -0.16 0 -0.16 0 -0.3 0 -0.29 0 -4.41 0.05 -0.3 0.01 -0.29 0 -0.29 0.01 -0.23 0 -0.07 0.01 -0.3 0.01 -0.28 0.01 -0.3 0.01 -0.3 0.01 -0.28 0.01 -0.3 0 -0.29 0.01 -0.29 0.01 -1.17 0.05 -0.3 0.01 -0.58 0.03 -0.29 0.01 -0.29 0.01 -0.29 0.01 -0.3 0.02 -0.29 0.01 -0.88 0.05 -0.28 0.02 -0.29 0.02 -0.3 0.01 -0.28 0.02 -2.33 0.15 -0.29 0.02 -0.29 0.02 -0.29 0.02 -0.29 0.02 -0.28 0.02 -0.3 0.02 -0.58 0.04z"/>
    <path class="fil0" d="M569.22 419.86l-118.2 -384.1c22.6,-6.96 45.56,-12.65 68.8,-17.06l74.93 394.86c-8.69,1.64 -17.2,3.74 -25.53,6.3z"/>
    <path class="fil0" d="M515.73 443.93l-208.91 -343.32c29.87,-18.19 61.21,-33.9 93.67,-46.94l149.98 372.83c-12.11,4.89 -23.72,10.71 -34.74,17.43z"/>
    <path class="fil0" d="M474.35 475.92l-279.17 -289.18c18.52,-17.88 38.1,-34.62 58.65,-50.14l242.26 320.72c-7.62,5.76 -14.88,11.98 -21.74,18.6z"/>
    <path class="fil0" d="M440.03 517.54l-337.3 -218.55c16.04,-24.76 33.78,-48.38 53.1,-70.7l303.91 263.03c-7.15,8.26 -13.74,17.02 -19.71,26.22z"/>
    <path class="fil0" d="M416.16 565.42l-377.7 -137.31c9.77,-26.85 21.32,-53.01 34.58,-78.31l355.96 186.58c-4.9,9.33 -9.2,19.02 -12.84,29.04z"/>
    <path class="fil0" d="M403.59 618.48l-399.13 -47.36c3.45,-29.09 8.9,-57.91 16.31,-86.25l388.83 101.61c-2.71,10.41 -4.73,21.09 -6.01,32z"/>
    <path class="fil0" d="M402.98 668.43l-400.2 37.33c-1.85,-19.73 -2.77,-39.53 -2.77,-59.34 0,-8.59 0.17,-17.17 0.53,-25.76l401.61 16.21c-0.12,3.17 -0.2,6.34 -0.2,9.55 0,7.42 0.36,14.76 1.03,22.01z"/>
    <path class="fil0" d="M416.85 729.26l-376.55 140.46c-12.67,-33.98 -22.43,-68.97 -29.16,-104.6l394.9 -74.67c2.52,13.36 6.15,26.34 10.81,38.81z"/>
    <path class="fil0" d="M438.82 773.42l-339.34 215.36c-15.2,-23.95 -28.79,-48.9 -40.68,-74.66l364.91 -168.38c4.43,9.59 9.49,18.83 15.11,27.68z"/>
    <path class="fil0" d="M480.01 822.21l-269.56 298.15c-28.71,-25.94 -54.99,-54.44 -78.53,-85.15l318.96 -244.58c8.74,11.38 18.49,21.97 29.13,31.58z"/>
    <path class="fil0" d="M517.25 849.81l-206.36 344.88c-24.1,-14.42 -47.23,-30.42 -69.24,-47.88l249.93 -314.78c8.15,6.47 16.71,12.4 25.67,17.78z"/>
    <path class="fil0" d="M562.23 870.71l-130.05 380.25c-23.65,-8.08 -46.79,-17.54 -69.32,-28.33l173.65 -362.44c8.31,4 16.91,7.51 25.72,10.52z"/>
    <path class="fil0" d="M619.97 882.64l-32.18 400.65c-29.64,-2.38 -59.1,-6.83 -88.14,-13.32l87.62 -392.23c10.65,2.38 21.57,4.02 32.7,4.9z"/>
    <path class="fil0" d="M677.08 880.34l64.66 396.67c-24.46,3.99 -49.14,6.56 -73.91,7.69l-18.18 -401.55c9.29,-0.41 18.45,-1.36 27.43,-2.81z"/>
    <path class="fil0" d="M811.53 808.8l292.75 275.43c-14.86,15.79 -30.51,30.82 -46.9,45.02l-263.23 -303.75c6.07,-5.27 11.87,-10.85 17.38,-16.7z"/>
    <path class="fil0" d="M727.94 866.11l150.89 372.48c-24.33,9.87 -49.26,18.22 -74.64,25.01l-103.95 -388.22c9.48,-2.53 18.73,-5.63 27.7,-9.27z"/>
    <path class="fil0" d="M770.8 843.36l223.6 333.98c-21.55,14.41 -43.95,27.52 -67.09,39.23l-181.39 -358.65c8.6,-4.36 16.92,-9.21 24.88,-14.56z"/>
    <path class="fil0" d="M670.17 411.48l52.98 -398.42c31.53,4.21 62.7,10.74 93.25,19.57l-111.62 386.07c-11.21,-3.23 -22.77,-5.66 -34.61,-7.22z"/>
    <path class="fil0" d="M725.28 425.65l146.36 -374.27c19.27,7.53 38.16,16 56.61,25.37l-181.98 358.33c-6.82,-3.46 -13.81,-6.62 -20.99,-9.43z"/>
    <path class="fil0" d="M766.87 446.91l216.94 -338.34c26.91,17.26 52.48,36.5 76.51,57.58l-265.09 302.14c-8.88,-7.8 -18.37,-14.96 -28.36,-21.38z"/>
    <path class="fil0" d="M809.92 482.34l290 -278.31c21.75,22.65 41.8,46.89 59.98,72.48l-327.72 232.7c-6.76,-9.51 -14.21,-18.48 -22.26,-26.87z"/>
    <path class="fil0" d="M844.01 527.6l347.77 -201.48c16.19,27.94 30.22,57.06 42.01,87.1l-374.15 146.68c-4.4,-11.21 -9.64,-22 -15.63,-32.3z"/>
    <path class="fil0" d="M862.72 724.55l379.43 132.48c-5.79,16.56 -12.24,32.89 -19.38,48.92l-367.24 -163.25c2.63,-5.92 5.04,-11.98 7.19,-18.15z"/>
    <path class="fil0" d="M842.11 768.47l344.52 206.97c-12.85,21.39 -26.95,42.01 -42.21,61.75l-317.99 -245.83c5.65,-7.3 10.9,-14.94 15.68,-22.89z"/>
    <path class="fil0" d="M863.1 569.37l380.06 -130.65c6.56,19.08 12.21,38.46 16.93,58.08l-390.72 94.12c-1.76,-7.32 -3.85,-14.51 -6.27,-21.55z"/>
    <path class="fil0" d="M873.39 611.7l397.58 -58.87c4.58,30.99 6.89,62.26 6.89,93.59 0,6.55 -0.11,13.12 -0.31,19.67l-401.75 -12.38c0.08,-2.43 0.13,-4.84 0.13,-7.29 0,-11.8 -0.88,-23.39 -2.54,-34.72z"/>
    <path class="fil0" d="M875.01 667.21l400.38 35.26c-2.82,32.04 -8.06,63.82 -15.67,95.07l-390.48 -95.05c2.78,-11.46 4.72,-23.24 5.77,-35.28z"/>
   </g>
   <g>
    <path class="fil1" d="M1630.68 955.07c-28.98,0 -56.09,-4.94 -81.36,-14.98 -25.39,-10.05 -46.26,-20.61 -62.88,-32.02l0 -105.25 3.86 0c6.25,6.31 13.56,13.46 21.94,21.12 8.37,7.84 19.54,15.84 33.49,24.18 12.37,7.5 25.93,13.97 40.81,19.76 14.9,5.62 30.32,8.51 46.27,8.51 11.56,0 23.93,-1.7 37.09,-5.28 13.16,-3.4 23,-7.83 29.52,-13.28 9.04,-7.66 15.55,-15.84 19.54,-24.52 3.98,-8.69 5.98,-21.8 5.98,-39.17 0,-22.31 -4.66,-39.17 -13.96,-50.58 -9.31,-11.24 -25.93,-20.78 -49.59,-28.44 -9.3,-3.06 -21.54,-6.47 -36.69,-10.22 -15.02,-3.91 -28.98,-8.17 -41.74,-12.77 -33.1,-12.26 -57.3,-31.33 -72.32,-57.05 -15.02,-25.71 -22.6,-56.88 -22.6,-93.49 0,-50.07 14.76,-90.94 44.4,-122.62 29.65,-31.5 68.87,-47.34 117.92,-47.34 24.19,0 48.53,3.92 72.85,11.58 24.46,7.66 44.93,17.2 61.55,28.95l0 100.48 -3.85 0c-18.61,-19.25 -39.36,-34.4 -62.22,-45.64 -22.86,-11.07 -45.99,-16.69 -69.27,-16.69 -23.92,0 -44.26,6.47 -60.74,19.58 -16.62,12.94 -24.87,32.53 -24.87,58.92 0,23.34 4.92,40.71 14.63,52.29 9.71,11.41 25.26,20.77 46.66,28.27 10.9,3.57 23,7.15 36.42,10.55 13.3,3.58 27.39,7.67 42.28,12.27 32.17,10.38 56.36,27.41 72.59,51.26 16.22,24.01 24.32,56.53 24.32,97.75 0,23.84 -3.72,46.66 -11.03,67.95 -7.45,21.45 -18.21,39.85 -32.57,55.17 -15.56,16.52 -33.1,29.12 -52.64,37.81 -19.55,8.68 -44.14,12.94 -73.79,12.94zm596.24 -290.53c0,93.84 -17.68,166.04 -52.91,217.13 -35.36,50.92 -82.29,76.47 -140.91,76.47 -60.49,0 -108.09,-26.4 -142.65,-79.02 -34.7,-52.62 -51.98,-124.15 -51.98,-214.58 0,-92.98 17.81,-165.19 53.57,-216.62 35.63,-51.6 82.7,-77.31 141.06,-77.31 58.62,0 105.55,25.71 140.91,76.97 35.23,51.43 52.91,123.64 52.91,216.96zm-75.78 0c0,-71.69 -10.23,-125 -30.71,-159.91 -20.46,-34.91 -49.58,-52.28 -87.33,-52.28 -38.03,0 -67.4,17.37 -88.01,52.28 -20.61,34.91 -30.84,88.22 -30.84,159.91 0,69.48 10.23,122.11 30.84,158.04 20.61,35.93 49.98,53.81 88.01,53.81 37.48,0 66.6,-17.54 87.2,-52.79 20.61,-35.25 30.84,-88.21 30.84,-159.06zm379.68 -408.37l-3.86 0c-6.51,-3.07 -15.81,-6.13 -28.05,-9.03 -12.1,-2.89 -22.99,-4.26 -32.56,-4.26 -30.85,0 -52.78,9.03 -65.81,26.91 -13.16,17.88 -19.67,50.24 -19.67,97.07l0 19.07 120.44 0 0 78.68 -118.05 0 0 478.2 -73.38 0 0 -478.2 -49.46 0 0 -78.68 49.46 0 0 -18.56c0,-67.44 12.62,-118.7 37.75,-153.61 25.13,-35.08 61.15,-52.62 108.08,-52.62 13.56,0 26.72,0.85 39.75,2.73 12.89,1.87 24.73,3.91 35.36,6.3l0 86zm156.87 697.88c-40.02,0 -71.26,-14.48 -93.59,-43.6 -22.34,-28.95 -33.5,-74.93 -33.5,-137.6l0 -308.24 -49.45 0 0 -78.68 49.45 0 0 -160.42 73.38 0 0 160.42 134.81 0 0 78.68 -134.81 0 0 264.65c0,28.27 0.4,50.06 1.2,65.22 0.8,15.33 3.72,29.63 8.91,42.92 4.39,11.58 11.56,20.43 21.4,26.22 9.97,5.79 23.27,8.69 40.14,8.69 11.97,0 23.54,-2.39 34.7,-6.99 11.17,-4.59 19.28,-8.34 24.2,-11.41l4.26 0 0 84.13c-13.83,5.11 -27.79,9.03 -41.88,11.75 -14.23,2.9 -27.26,4.26 -39.22,4.26zm662.17 -568.12l-110.07 556.88 -67.67 0 -106.22 -429.32 -105.41 429.32 -67.27 0 -111.27 -556.88 75.77 0 77.11 431.2 103.02 -431.2 60.36 0 105.82 431.2 72.59 -431.2 73.24 0zm300.18 419.45l0 -153.78c-17.28,2.04 -39.22,4.77 -65.68,8.17 -26.58,3.41 -47.98,8.35 -64.2,14.65 -19.41,7.66 -35.5,19.24 -48.13,34.91 -12.63,15.67 -19.01,37.64 -19.01,65.74 0,31.67 7.05,55.68 21.01,71.86 13.96,16.18 34.29,24.35 61.15,24.35 23.14,0 43.87,-6.3 62.48,-19.07 18.62,-12.6 36.17,-28.27 52.38,-46.83zm0 77.83c-5.98,5.79 -13.96,13.62 -23.93,23.84 -9.97,10.04 -19.54,18.22 -28.85,24.18 -13.03,8.68 -25.52,15.33 -37.62,19.92 -11.96,4.6 -28.85,6.99 -50.65,6.99 -17.94,0 -34.83,-4.26 -50.92,-12.95 -16.08,-8.68 -30.17,-20.77 -42.4,-36.44 -11.57,-15.33 -20.87,-34.23 -27.92,-56.71 -7.04,-22.31 -10.5,-45.98 -10.5,-71.01 0,-38.66 6.38,-71.36 19.01,-98.61 12.76,-27.07 32.84,-48.53 60.22,-64.54 24.33,-14.3 53.18,-24.18 86.28,-29.63 33.24,-5.45 69,-9.54 107.28,-12.26l0 -18.22c0,-22.14 -2.65,-40.02 -7.85,-53.65 -5.18,-13.62 -12.35,-24.18 -21.66,-31.5 -9.44,-7.84 -20.74,-12.95 -34.3,-15.5 -13.43,-2.56 -27.38,-3.75 -41.61,-3.75 -16.88,0 -36.69,3.24 -59.56,9.88 -22.73,6.64 -45.6,16.35 -68.46,28.95l-4.25 0 0 -95.2c13.55,-4.93 32.83,-10.38 58.09,-16.34 25.26,-5.97 50.12,-9.03 74.85,-9.03 29.9,0 55.03,3.06 75.64,9.03 20.47,5.96 38.95,16.68 55.3,32.35 15.82,15.33 27.65,35.25 35.49,59.44 7.85,24.35 11.71,53.98 11.71,88.89l0 381.47 -73.39 0 0 -59.6zm406.67 -396.12l-3.86 0c-5.45,-1.87 -11.3,-2.89 -17.28,-3.4 -6.12,-0.52 -13.43,-0.69 -22.07,-0.69 -19.68,0 -39.22,5.45 -58.76,16.35 -19.41,11.07 -37.76,27.25 -55.17,48.88l0 394.58 -73.38 0 0 -556.88 73.38 0 0 82.77c26.72,-30.31 49.98,-51.6 69.79,-64.03 19.81,-12.43 39.09,-18.74 57.83,-18.74 7.45,0 13.16,0.17 16.89,0.69 3.72,0.51 7.98,1.36 12.63,2.38l0 98.09zm242.07 467.98c-69.39,0 -123.36,-25.03 -161.78,-74.93 -38.43,-49.9 -57.57,-120.91 -57.57,-212.87 0,-90.6 18.61,-162.64 55.84,-216.28 37.09,-53.65 85.75,-80.38 145.83,-80.38 27.12,0 51.05,4.94 71.79,14.98 20.87,9.88 39.08,25.55 54.64,46.84 15.68,21.28 27.65,47.17 35.89,77.99 8.38,30.66 12.5,68.29 12.5,112.74l0 50.92 -302.3 0c0,64.54 12.76,113.93 38.28,147.99 25.52,34.23 60.89,51.26 105.95,51.26 16.09,0 32.04,-2.39 47.47,-6.98 15.55,-4.6 29.5,-10.73 42,-18.06 13.3,-7.66 24.6,-14.98 33.64,-22.13 9.17,-7.16 16.74,-13.97 22.73,-20.27l4.25 0 0 102.35c-8.64,4.26 -19.28,9.71 -32.03,16.18 -12.77,6.47 -24.2,11.58 -34.3,15.15 -14.36,4.94 -27.25,8.86 -38.82,11.58 -11.57,2.56 -26.33,3.92 -44.01,3.92zm86.15 -352.52c-0.54,-25.2 -2.93,-47 -7.05,-65.22 -4.12,-18.22 -10.23,-33.72 -17.94,-46.32 -8.65,-13.8 -19.68,-24.52 -33.1,-31.85 -13.43,-7.32 -30.05,-10.9 -49.99,-10.9 -19.54,0 -36.16,3.75 -49.85,11.24 -13.7,7.5 -26.19,18.23 -37.36,32.53 -11.04,14.65 -19.28,30.82 -25.13,48.54 -5.71,17.71 -9.3,38.48 -10.89,61.98l231.31 0z"/>
    <path class="fil2" d="M4644.43 942.81l-93.32 0 0 -142.03 93.32 0 0 142.03zm299.38 12.26c-29.91,0 -57.3,-5.96 -82.3,-17.71 -24.85,-11.75 -46.39,-29.63 -64.33,-53.64 -17.95,-23.85 -31.78,-53.99 -41.75,-90.43 -9.84,-36.45 -14.76,-79.19 -14.76,-128.41 0,-48.87 5.19,-91.11 15.42,-126.7 10.24,-35.59 23.93,-65.39 41.09,-89.75 17.15,-24.18 38.54,-42.91 64.2,-56.02 25.53,-13.12 53.05,-19.76 82.43,-19.76 23.93,0 47.06,4.26 69.26,12.94 22.2,8.69 42.01,18.74 59.42,29.98l0 105.24 -4.25 0c-5.19,-5.62 -11.97,-12.09 -20.21,-19.41 -8.11,-7.16 -18.08,-14.65 -29.78,-22.31 -10.1,-6.47 -22.07,-12.26 -35.89,-17.2 -13.83,-4.94 -27.12,-7.5 -39.89,-7.5 -37.88,0 -68.46,18.4 -91.45,55.01 -23,36.61 -34.57,88.39 -34.57,155.48 0,65.57 11.17,116.83 33.37,153.44 22.19,36.62 53.17,55.01 92.65,55.01 23.94,0 46.8,-6.3 68.34,-18.9 21.66,-12.44 40.68,-28.79 57.43,-48.54l4.25 0 0 105.24c-7.31,4.43 -16.35,9.54 -27.25,15.67 -10.9,6.3 -20.87,10.73 -29.64,13.8 -12.5,4.59 -23.67,8.17 -33.51,10.72 -9.97,2.56 -22.73,3.75 -38.28,3.75zm553.43 -290.53c0,93.84 -17.68,166.04 -52.91,217.13 -35.37,50.92 -82.29,76.47 -140.92,76.47 -60.49,0 -108.08,-26.4 -142.64,-79.02 -34.7,-52.62 -51.98,-124.15 -51.98,-214.58 0,-92.98 17.81,-165.19 53.57,-216.62 35.63,-51.6 82.69,-77.31 141.05,-77.31 58.63,0 105.55,25.71 140.92,76.97 35.23,51.43 52.91,123.64 52.91,216.96zm-75.78 0c0,-71.69 -10.23,-125 -30.71,-159.91 -20.47,-34.91 -49.58,-52.28 -87.34,-52.28 -38.02,0 -67.4,17.37 -88,52.28 -20.61,34.91 -30.85,88.22 -30.85,159.91 0,69.48 10.24,122.11 30.85,158.04 20.6,35.93 49.98,53.81 88,53.81 37.49,0 66.61,-17.54 87.21,-52.79 20.61,-35.25 30.84,-88.21 30.84,-159.06zm645.29 278.27l0 -322.2c0,-25.55 -0.79,-49.22 -2.39,-71.02 -1.46,-21.8 -4.79,-38.83 -9.71,-51.26 -5.18,-13.28 -12.63,-22.99 -22.2,-29.29 -9.57,-6.3 -22.6,-9.54 -38.95,-9.54 -15.15,0 -31.24,5.96 -48.53,17.88 -17.27,11.76 -35.22,28.96 -53.7,51.43 0.26,5.62 0.67,12.27 1.07,20.1 0.4,7.83 0.53,17.03 0.53,27.76l0 366.14 -73.39 0 0 -322.2c0,-25.55 -0.8,-49.22 -2.39,-71.02 -1.47,-21.8 -4.78,-38.83 -9.7,-51.26 -5.19,-13.28 -12.63,-22.99 -22.2,-29.29 -9.58,-6.3 -22.6,-9.54 -38.96,-9.54 -15.95,0 -32.56,6.3 -49.98,19.08 -17.42,12.77 -34.3,28.95 -50.65,48.7l0 415.53 -73.38 0 0 -556.88 73.38 0 0 61.99c19.28,-24.52 38.29,-43.59 57.16,-57.05 18.88,-13.45 39.62,-20.26 62.22,-20.26 25.66,0 48.52,7.49 68.46,22.48 19.81,14.98 34.96,39.51 45.34,73.74 22.2,-31.51 43.73,-55.52 64.74,-71.7 21.13,-16.35 44,-24.52 68.73,-24.52 18.74,0 35.76,3.74 51.04,11.24 15.29,7.49 28.72,19.41 40.15,36.1 11.7,17.03 20.74,37.98 27.12,63.35 6.39,25.21 9.57,56.88 9.57,95.2l0 366.31 -73.38 0zm290.21 0l-93.32 0 0 -142.03 93.32 0 0 142.03zm621.09 0l0 -322.2c0,-25.55 -0.79,-49.22 -2.39,-71.02 -1.46,-21.8 -4.79,-38.83 -9.71,-51.26 -5.18,-13.28 -12.63,-22.99 -22.2,-29.29 -9.57,-6.3 -22.6,-9.54 -38.95,-9.54 -15.15,0 -31.24,5.96 -48.53,17.88 -17.27,11.76 -35.22,28.96 -53.7,51.43 0.26,5.62 0.67,12.27 1.07,20.1 0.39,7.83 0.53,17.03 0.53,27.76l0 366.14 -73.39 0 0 -322.2c0,-25.55 -0.8,-49.22 -2.39,-71.02 -1.47,-21.8 -4.78,-38.83 -9.7,-51.26 -5.19,-13.28 -12.63,-22.99 -22.2,-29.29 -9.58,-6.3 -22.6,-9.54 -38.96,-9.54 -15.95,0 -32.56,6.3 -49.98,19.08 -17.42,12.77 -34.3,28.95 -50.65,48.7l0 415.53 -73.38 0 0 -556.88 73.38 0 0 61.99c19.28,-24.52 38.29,-43.59 57.16,-57.05 18.88,-13.45 39.62,-20.26 62.22,-20.26 25.66,0 48.52,7.49 68.46,22.48 19.81,14.98 34.96,39.51 45.34,73.74 22.2,-31.51 43.73,-55.52 64.73,-71.7 21.14,-16.35 44.01,-24.52 68.74,-24.52 18.74,0 35.76,3.74 51.04,11.24 15.29,7.49 28.72,19.41 40.15,36.1 11.7,17.03 20.74,37.98 27.12,63.35 6.39,25.21 9.57,56.88 9.57,95.2l0 366.31 -73.38 0zm513.55 0l-90 0 -105.29 -209.47 -108.48 209.47 -83.09 0 150.49 -276.05 -148.9 -280.83 90 0 105.03 207.09 107.15 -207.09 83.09 0 -149.7 274.53 149.7 282.35z"/>
   </g>
   <g>
    <path class="fil1" d="M4809.84 1147.91l0 142.9c0,20.75 9.05,31.08 27.14,31.08 13.57,0 28.52,-9.74 44.65,-29.31l8.36 16.42c-8.46,15.54 -20.36,28.33 -35.8,38.26 -16.13,10.42 -32.75,15.54 -49.76,15.54 -44.45,0 -66.58,-24.39 -66.58,-73.17l0 -141.72 -31.37 0 0 -15.24c17.21,-7.37 34.52,-19.96 51.83,-37.96 17.3,-17.9 28.71,-35.6 34.32,-53.11l17.21 0 0 73.76 77.2 0 -8.85 32.55 -68.35 0zm348.63 164.54l8.95 14.35c-8.26,9.05 -18.49,16.92 -30.59,23.61 -13.67,7.76 -25.86,11.6 -36.58,11.6 -23.01,0 -36.88,-12.1 -41.5,-36.29 -14.36,13.57 -25.28,22.52 -32.55,26.75 -11.51,6.89 -24.88,10.33 -40.03,10.33 -20.16,0 -36.39,-5.21 -48.68,-15.84 -13.08,-11.11 -19.57,-26.55 -19.57,-46.31 0,-19.28 6,-34.92 18.09,-47.02 9.25,-9.24 27.74,-18.19 55.47,-26.94 27.73,-8.75 49.76,-19.67 66.09,-32.65l0 -21.93c0,-11.12 -3.44,-20.46 -10.33,-28.13 -6.88,-7.57 -15.83,-11.31 -26.85,-11.31 -20.84,0 -31.37,11.21 -31.37,33.64 0,3.73 0.3,7.67 0.89,11.9l-66.29 22.71c-1.67,-7.47 -2.55,-14.35 -2.55,-20.45 0,-14.07 4.92,-25.97 14.85,-35.9 9.83,-9.83 25.08,-18.39 45.63,-25.47 19.37,-6.69 36.68,-10.13 51.83,-10.13 32.25,0 58.9,10.23 79.85,30.59 10.92,10.71 16.43,24.58 16.43,41.5l0 111.52c0,18 4.32,27.05 12.98,27.05 4.23,0 9.44,-2.37 15.83,-7.18zm-100.9 -7.48l0 -84.48c-5.31,5.02 -13.08,10.03 -23.31,15.05 -15.54,7.67 -23.8,11.8 -24.78,12.29 -13.77,8.17 -20.75,21.84 -20.75,41.21 0,10.62 2.26,19.67 6.69,27.14 5.11,9.05 12.68,13.57 22.71,13.57 9.25,0 22.42,-8.26 39.44,-24.78zm297.39 32.26l0 18.98 -163.94 0 0 -18.98 4.03 0c13.08,0 22.03,-3.74 27.05,-11.31 4.03,-5.9 6.1,-15.93 6.1,-29.9l0 -96.28c0,-12.09 -0.99,-20.26 -2.95,-24.48 -2.66,-6.1 -8.76,-11.12 -18.39,-14.95l-15.84 -6.39 0 -14.95 96.77 -36.59 12.39 0 1.18 66.29c7.48,-14.66 12.59,-24.1 15.25,-28.52 7.28,-12.89 13.57,-21.34 18.78,-25.28 5.11,-3.93 10.92,-5.9 17.21,-5.9 4.82,0 8.75,0.59 11.9,1.77l46.62 17.01c-7.48,25.87 -16.92,46.82 -28.23,62.75 -25.57,-9.93 -41.5,-14.95 -47.79,-14.95 -10.62,0 -22.23,8.85 -34.92,26.55l0 95.59c0,14.66 2.96,24.89 8.86,30.69 5.8,5.9 16.03,8.85 30.68,8.85l15.24 0zm374.3 -225.9l0 60.78 -59.1 -13.57c7.86,10.62 11.8,23.21 11.8,37.76 0,28.81 -14.26,50.65 -42.88,65.4 -23.11,12.1 -50.26,17.7 -81.63,16.72 -32.65,10.52 -48.97,19.77 -48.97,27.63 0,13.08 24.39,19.67 73.26,19.67l51.83 0c25.77,0 46.91,5.8 63.63,17.51 17.31,12.29 25.96,29.21 25.96,50.74 0,38.75 -27.04,67.37 -81.23,85.86 -25.37,8.46 -53.69,12.68 -84.97,12.68 -47.89,0 -82.9,-9.73 -105.23,-29.11 -10.52,-9.24 -15.83,-19.17 -15.83,-29.99 0,-14.75 7.67,-25.67 23.01,-32.55 10.03,-4.63 16.43,-7.77 19.38,-9.54 7.67,-4.33 12.88,-8.95 15.53,-13.77 -33.83,-11.7 -50.74,-30.29 -50.74,-55.66 0,-13.97 10.42,-25.57 31.17,-34.82 7.08,-3.05 23.41,-8.36 48.98,-15.83 -28.62,-1.18 -50.85,-13.97 -66.58,-38.35 -7.08,-10.92 -10.62,-22.13 -10.62,-33.74 0,-35.5 19.86,-61.76 59.6,-78.58 18.48,-7.76 38.74,-11.6 60.77,-11.6 31.87,0 58.42,7.87 79.56,23.7l83.3 -21.34zm-108.08 276.84l-47.3 0c-19.97,0 -37.37,-1.57 -52.42,-4.92 -15.34,10.82 -23.01,21.84 -23.01,33.15 0,19.27 14.75,33.83 44.35,43.86 13.47,4.62 27.73,6.88 42.98,6.88 33.33,0 57.82,-8.16 73.46,-24.49 7.28,-7.67 10.92,-16.03 10.92,-25.07 0,-19.57 -16.33,-29.41 -48.98,-29.41zm-102.57 -197.67c0,43.27 16.32,64.91 48.97,64.91 27.44,0 41.21,-17.31 41.21,-51.93 0,-29.7 -7.08,-50.06 -21.34,-61.07 -7.08,-5.31 -15.54,-8.07 -25.38,-8.07 -29.01,0 -43.46,18.79 -43.46,56.16zm464.18 86.15l13.57 11.01c-15.24,21.54 -33.33,39.05 -54.48,52.71 -23.6,14.95 -47.5,22.43 -71.69,22.43 -44.06,0 -75.53,-19.48 -94.51,-58.42 -9.05,-18.49 -13.57,-39.34 -13.57,-62.55 0,-53.4 20.36,-92.14 61.07,-116.14 19.18,-11.11 40.91,-16.72 65.1,-16.72 30.98,0 55.77,9.44 74.35,28.23 13.28,13.27 21.74,29.6 25.37,49.07 1.48,8.95 2.66,14.55 3.45,16.62 2.26,6.2 5.8,10.52 10.32,12.98l0 17.02 -163.64 0c2.36,21.53 9.54,40.51 21.63,57.03 14.07,19.48 31.08,29.11 51.04,29.11 20.95,0 44.95,-14.06 71.99,-42.38zm-146.33 -66.78l83.78 0c-0.68,-48.78 -14.75,-73.17 -41.99,-73.17 -17.9,0 -30.68,12.1 -38.35,36.29 -2.66,8.66 -4.03,17.51 -4.03,26.46 0,3.44 0.19,6.98 0.59,10.42zm301.03 -61.96l0 142.9c0,20.75 9.05,31.08 27.14,31.08 13.57,0 28.52,-9.74 44.65,-29.31l8.36 16.42c-8.46,15.54 -20.36,28.33 -35.8,38.26 -16.13,10.42 -32.75,15.54 -49.76,15.54 -44.45,0 -66.58,-24.39 -66.58,-73.17l0 -141.72 -31.37 0 0 -15.24c17.21,-7.37 34.52,-19.96 51.82,-37.96 17.31,-17.9 28.72,-35.6 34.33,-53.11l17.21 0 0 73.76 77.2 0 -8.85 32.55 -68.35 0z"/>
    <path class="fil1" d="M6352.96 1360.24l-81.53 -189.9c-10.32,-24 -25.76,-36 -46.12,-36l0 -18.98 141.22 0 0 18.98c-10.23,0.59 -17.01,3.64 -20.45,9.25 -3.45,5.8 -3.35,13.08 0.29,21.93l47.21 112.9 47.3 -107.49c-9.05,-24.39 -21.44,-36.59 -37.17,-36.59l0 -18.98 133.94 0 0 18.98c-17.31,0 -25.86,6.1 -25.86,18.2 0,4.82 1.28,10.52 4.03,17.31l44.65 108.57 41.5 -101.1c5.31,-13.28 5.51,-23.7 0.49,-31.18 -4.92,-7.27 -15.05,-11.21 -30.19,-11.8l0 -18.98 108.57 0 0 18.98c-18,1.77 -30.88,8.86 -38.55,21.34 -4.23,6.5 -9.05,16.13 -14.46,28.82l-74.35 175.74 -32.55 0 -65.99 -153.81 -70.8 153.81 -31.18 0zm593.9 -47.79l8.95 14.35c-8.26,9.05 -18.49,16.92 -30.58,23.61 -13.67,7.76 -25.87,11.6 -36.59,11.6 -23.01,0 -36.88,-12.1 -41.5,-36.29 -14.36,13.57 -25.27,22.52 -32.55,26.75 -11.51,6.89 -24.88,10.33 -40.03,10.33 -20.16,0 -36.38,-5.21 -48.68,-15.84 -13.08,-11.11 -19.57,-26.55 -19.57,-46.31 0,-19.28 6,-34.92 18.1,-47.02 9.24,-9.24 27.73,-18.19 55.47,-26.94 27.73,-8.75 49.76,-19.67 66.08,-32.65l0 -21.93c0,-11.12 -3.44,-20.46 -10.32,-28.13 -6.89,-7.57 -15.84,-11.31 -26.85,-11.31 -20.85,0 -31.37,11.21 -31.37,33.64 0,3.73 0.29,7.67 0.88,11.9l-66.28 22.71c-1.67,-7.47 -2.56,-14.35 -2.56,-20.45 0,-14.07 4.92,-25.97 14.85,-35.9 9.83,-9.83 25.08,-18.39 45.63,-25.47 19.38,-6.69 36.68,-10.13 51.83,-10.13 32.26,0 58.91,10.23 79.85,30.59 10.92,10.71 16.43,24.58 16.43,41.5l0 111.52c0,18 4.33,27.05 12.98,27.05 4.23,0 9.44,-2.37 15.83,-7.18zm-100.9 -7.48l0 -84.48c-5.31,5.02 -13.08,10.03 -23.31,15.05 -15.53,7.67 -23.79,11.8 -24.78,12.29 -13.77,8.17 -20.75,21.84 -20.75,41.21 0,10.62 2.26,19.67 6.69,27.14 5.11,9.05 12.69,13.57 22.72,13.57 9.24,0 22.42,-8.26 39.43,-24.78zm297.39 32.26l0 18.98 -163.93 0 0 -18.98 4.03 0c13.08,0 22.03,-3.74 27.04,-11.31 4.03,-5.9 6.1,-15.93 6.1,-29.9l0 -96.28c0,-12.09 -0.98,-20.26 -2.95,-24.48 -2.66,-6.1 -8.75,-11.12 -18.39,-14.95l-15.83 -6.39 0 -14.95 96.77 -36.59 12.39 0 1.18 66.29c7.47,-14.66 12.58,-24.1 15.24,-28.52 7.28,-12.89 13.57,-21.34 18.78,-25.28 5.12,-3.93 10.92,-5.9 17.22,-5.9 4.81,0 8.75,0.59 11.89,1.77l46.62 17.01c-7.48,25.87 -16.92,46.82 -28.22,62.75 -25.58,-9.93 -41.51,-14.95 -47.8,-14.95 -10.62,0 -22.23,8.85 -34.91,26.55l0 95.59c0,14.66 2.95,24.89 8.85,30.69 5.8,5.9 16.03,8.85 30.68,8.85l15.24 0zm302.22 -60.58l13.57 11.01c-15.24,21.54 -33.34,39.05 -54.48,52.71 -23.61,14.95 -47.5,22.43 -71.7,22.43 -44.05,0 -75.53,-19.48 -94.51,-58.42 -9.04,-18.49 -13.57,-39.34 -13.57,-62.55 0,-53.4 20.36,-92.14 61.07,-116.14 19.18,-11.11 40.92,-16.72 65.11,-16.72 30.98,0 55.76,9.44 74.35,28.23 13.27,13.27 21.73,29.6 25.37,49.07 1.47,8.95 2.66,14.55 3.44,16.62 2.26,6.2 5.8,10.52 10.33,12.98l0 17.02 -163.65 0c2.36,21.53 9.54,40.51 21.64,57.03 14.06,19.48 31.07,29.11 51.04,29.11 20.95,0 44.94,-14.06 71.99,-42.38zm-146.34 -66.78l83.79 0c-0.69,-48.78 -14.75,-73.17 -41.99,-73.17 -17.9,0 -30.69,12.1 -38.36,36.29 -2.65,8.66 -4.03,17.51 -4.03,26.46 0,3.44 0.2,6.98 0.59,10.42z"/>
    <path class="fil1" d="M4809.84 1147.91l0 142.9c0,20.75 9.05,31.08 27.14,31.08 13.57,0 28.52,-9.74 44.65,-29.31l8.36 16.42c-8.46,15.54 -20.36,28.33 -35.8,38.26 -16.13,10.42 -32.75,15.54 -49.76,15.54 -44.45,0 -66.58,-24.39 -66.58,-73.17l0 -141.72 -31.37 0 0 -15.24c17.21,-7.37 34.52,-19.96 51.83,-37.96 17.3,-17.9 28.71,-35.6 34.32,-53.11l17.21 0 0 73.76 77.2 0 -8.85 32.55 -68.35 0zm348.63 164.54l8.95 14.35c-8.26,9.05 -18.49,16.92 -30.59,23.61 -13.67,7.76 -25.86,11.6 -36.58,11.6 -23.01,0 -36.88,-12.1 -41.5,-36.29 -14.36,13.57 -25.28,22.52 -32.55,26.75 -11.51,6.89 -24.88,10.33 -40.03,10.33 -20.16,0 -36.39,-5.21 -48.68,-15.84 -13.08,-11.11 -19.57,-26.55 -19.57,-46.31 0,-19.28 6,-34.92 18.09,-47.02 9.25,-9.24 27.74,-18.19 55.47,-26.94 27.73,-8.75 49.76,-19.67 66.09,-32.65l0 -21.93c0,-11.12 -3.44,-20.46 -10.33,-28.13 -6.88,-7.57 -15.83,-11.31 -26.85,-11.31 -20.84,0 -31.37,11.21 -31.37,33.64 0,3.73 0.3,7.67 0.89,11.9l-66.29 22.71c-1.67,-7.47 -2.55,-14.35 -2.55,-20.45 0,-14.07 4.92,-25.97 14.85,-35.9 9.83,-9.83 25.08,-18.39 45.63,-25.47 19.37,-6.69 36.68,-10.13 51.83,-10.13 32.25,0 58.9,10.23 79.85,30.59 10.92,10.71 16.43,24.58 16.43,41.5l0 111.52c0,18 4.32,27.05 12.98,27.05 4.23,0 9.44,-2.37 15.83,-7.18zm-100.9 -7.48l0 -84.48c-5.31,5.02 -13.08,10.03 -23.31,15.05 -15.54,7.67 -23.8,11.8 -24.78,12.29 -13.77,8.17 -20.75,21.84 -20.75,41.21 0,10.62 2.26,19.67 6.69,27.14 5.11,9.05 12.68,13.57 22.71,13.57 9.25,0 22.42,-8.26 39.44,-24.78zm297.39 32.26l0 18.98 -163.94 0 0 -18.98 4.03 0c13.08,0 22.03,-3.74 27.05,-11.31 4.03,-5.9 6.1,-15.93 6.1,-29.9l0 -96.28c0,-12.09 -0.99,-20.26 -2.95,-24.48 -2.66,-6.1 -8.76,-11.12 -18.39,-14.95l-15.84 -6.39 0 -14.95 96.77 -36.59 12.39 0 1.18 66.29c7.48,-14.66 12.59,-24.1 15.25,-28.52 7.28,-12.89 13.57,-21.34 18.78,-25.28 5.11,-3.93 10.92,-5.9 17.21,-5.9 4.82,0 8.75,0.59 11.9,1.77l46.62 17.01c-7.48,25.87 -16.92,46.82 -28.23,62.75 -25.57,-9.93 -41.5,-14.95 -47.79,-14.95 -10.62,0 -22.23,8.85 -34.92,26.55l0 95.59c0,14.66 2.96,24.89 8.86,30.69 5.8,5.9 16.03,8.85 30.68,8.85l15.24 0zm374.3 -225.9l0 60.78 -59.1 -13.57c7.86,10.62 11.8,23.21 11.8,37.76 0,28.81 -14.26,50.65 -42.88,65.4 -23.11,12.1 -50.26,17.7 -81.63,16.72 -32.65,10.52 -48.97,19.77 -48.97,27.63 0,13.08 24.39,19.67 73.26,19.67l51.83 0c25.77,0 46.91,5.8 63.63,17.51 17.31,12.29 25.96,29.21 25.96,50.74 0,38.75 -27.04,67.37 -81.23,85.86 -25.37,8.46 -53.69,12.68 -84.97,12.68 -47.89,0 -82.9,-9.73 -105.23,-29.11 -10.52,-9.24 -15.83,-19.17 -15.83,-29.99 0,-14.75 7.67,-25.67 23.01,-32.55 10.03,-4.63 16.43,-7.77 19.38,-9.54 7.67,-4.33 12.88,-8.95 15.53,-13.77 -33.83,-11.7 -50.74,-30.29 -50.74,-55.66 0,-13.97 10.42,-25.57 31.17,-34.82 7.08,-3.05 23.41,-8.36 48.98,-15.83 -28.62,-1.18 -50.85,-13.97 -66.58,-38.35 -7.08,-10.92 -10.62,-22.13 -10.62,-33.74 0,-35.5 19.86,-61.76 59.6,-78.58 18.48,-7.76 38.74,-11.6 60.77,-11.6 31.87,0 58.42,7.87 79.56,23.7l83.3 -21.34zm-108.08 276.84l-47.3 0c-19.97,0 -37.37,-1.57 -52.42,-4.92 -15.34,10.82 -23.01,21.84 -23.01,33.15 0,19.27 14.75,33.83 44.35,43.86 13.47,4.62 27.73,6.88 42.98,6.88 33.33,0 57.82,-8.16 73.46,-24.49 7.28,-7.67 10.92,-16.03 10.92,-25.07 0,-19.57 -16.33,-29.41 -48.98,-29.41zm-102.57 -197.67c0,43.27 16.32,64.91 48.97,64.91 27.44,0 41.21,-17.31 41.21,-51.93 0,-29.7 -7.08,-50.06 -21.34,-61.07 -7.08,-5.31 -15.54,-8.07 -25.38,-8.07 -29.01,0 -43.46,18.79 -43.46,56.16zm464.18 86.15l13.57 11.01c-15.24,21.54 -33.33,39.05 -54.48,52.71 -23.6,14.95 -47.5,22.43 -71.69,22.43 -44.06,0 -75.53,-19.48 -94.51,-58.42 -9.05,-18.49 -13.57,-39.34 -13.57,-62.55 0,-53.4 20.36,-92.14 61.07,-116.14 19.18,-11.11 40.91,-16.72 65.1,-16.72 30.98,0 55.77,9.44 74.35,28.23 13.28,13.27 21.74,29.6 25.37,49.07 1.48,8.95 2.66,14.55 3.45,16.62 2.26,6.2 5.8,10.52 10.32,12.98l0 17.02 -163.64 0c2.36,21.53 9.54,40.51 21.63,57.03 14.07,19.48 31.08,29.11 51.04,29.11 20.95,0 44.95,-14.06 71.99,-42.38zm-146.33 -66.78l83.78 0c-0.68,-48.78 -14.75,-73.17 -41.99,-73.17 -17.9,0 -30.68,12.1 -38.35,36.29 -2.66,8.66 -4.03,17.51 -4.03,26.46 0,3.44 0.19,6.98 0.59,10.42zm301.03 -61.96l0 142.9c0,20.75 9.05,31.08 27.14,31.08 13.57,0 28.52,-9.74 44.65,-29.31l8.36 16.42c-8.46,15.54 -20.36,28.33 -35.8,38.26 -16.13,10.42 -32.75,15.54 -49.76,15.54 -44.45,0 -66.58,-24.39 -66.58,-73.17l0 -141.72 -31.37 0 0 -15.24c17.21,-7.37 34.52,-19.96 51.82,-37.96 17.31,-17.9 28.72,-35.6 34.33,-53.11l17.21 0 0 73.76 77.2 0 -8.85 32.55 -68.35 0z"/>
    <path class="fil1" d="M6352.96 1360.24l-81.53 -189.9c-10.32,-24 -25.76,-36 -46.12,-36l0 -18.98 141.22 0 0 18.98c-10.23,0.59 -17.01,3.64 -20.45,9.25 -3.45,5.8 -3.35,13.08 0.29,21.93l47.21 112.9 47.3 -107.49c-9.05,-24.39 -21.44,-36.59 -37.17,-36.59l0 -18.98 133.94 0 0 18.98c-17.31,0 -25.86,6.1 -25.86,18.2 0,4.82 1.28,10.52 4.03,17.31l44.65 108.57 41.5 -101.1c5.31,-13.28 5.51,-23.7 0.49,-31.18 -4.92,-7.27 -15.05,-11.21 -30.19,-11.8l0 -18.98 108.57 0 0 18.98c-18,1.77 -30.88,8.86 -38.55,21.34 -4.23,6.5 -9.05,16.13 -14.46,28.82l-74.35 175.74 -32.55 0 -65.99 -153.81 -70.8 153.81 -31.18 0zm593.9 -47.79l8.95 14.35c-8.26,9.05 -18.49,16.92 -30.58,23.61 -13.67,7.76 -25.87,11.6 -36.59,11.6 -23.01,0 -36.88,-12.1 -41.5,-36.29 -14.36,13.57 -25.27,22.52 -32.55,26.75 -11.51,6.89 -24.88,10.33 -40.03,10.33 -20.16,0 -36.38,-5.21 -48.68,-15.84 -13.08,-11.11 -19.57,-26.55 -19.57,-46.31 0,-19.28 6,-34.92 18.1,-47.02 9.24,-9.24 27.73,-18.19 55.47,-26.94 27.73,-8.75 49.76,-19.67 66.08,-32.65l0 -21.93c0,-11.12 -3.44,-20.46 -10.32,-28.13 -6.89,-7.57 -15.84,-11.31 -26.85,-11.31 -20.85,0 -31.37,11.21 -31.37,33.64 0,3.73 0.29,7.67 0.88,11.9l-66.28 22.71c-1.67,-7.47 -2.56,-14.35 -2.56,-20.45 0,-14.07 4.92,-25.97 14.85,-35.9 9.83,-9.83 25.08,-18.39 45.63,-25.47 19.38,-6.69 36.68,-10.13 51.83,-10.13 32.26,0 58.91,10.23 79.85,30.59 10.92,10.71 16.43,24.58 16.43,41.5l0 111.52c0,18 4.33,27.05 12.98,27.05 4.23,0 9.44,-2.37 15.83,-7.18zm-100.9 -7.48l0 -84.48c-5.31,5.02 -13.08,10.03 -23.31,15.05 -15.53,7.67 -23.79,11.8 -24.78,12.29 -13.77,8.17 -20.75,21.84 -20.75,41.21 0,10.62 2.26,19.67 6.69,27.14 5.11,9.05 12.69,13.57 22.72,13.57 9.24,0 22.42,-8.26 39.43,-24.78zm297.39 32.26l0 18.98 -163.93 0 0 -18.98 4.03 0c13.08,0 22.03,-3.74 27.04,-11.31 4.03,-5.9 6.1,-15.93 6.1,-29.9l0 -96.28c0,-12.09 -0.98,-20.26 -2.95,-24.48 -2.66,-6.1 -8.75,-11.12 -18.39,-14.95l-15.83 -6.39 0 -14.95 96.77 -36.59 12.39 0 1.18 66.29c7.47,-14.66 12.58,-24.1 15.24,-28.52 7.28,-12.89 13.57,-21.34 18.78,-25.28 5.12,-3.93 10.92,-5.9 17.22,-5.9 4.81,0 8.75,0.59 11.89,1.77l46.62 17.01c-7.48,25.87 -16.92,46.82 -28.22,62.75 -25.58,-9.93 -41.51,-14.95 -47.8,-14.95 -10.62,0 -22.23,8.85 -34.91,26.55l0 95.59c0,14.66 2.95,24.89 8.85,30.69 5.8,5.9 16.03,8.85 30.68,8.85l15.24 0zm302.22 -60.58l13.57 11.01c-15.24,21.54 -33.34,39.05 -54.48,52.71 -23.61,14.95 -47.5,22.43 -71.7,22.43 -44.05,0 -75.53,-19.48 -94.51,-58.42 -9.04,-18.49 -13.57,-39.34 -13.57,-62.55 0,-53.4 20.36,-92.14 61.07,-116.14 19.18,-11.11 40.92,-16.72 65.11,-16.72 30.98,0 55.76,9.44 74.35,28.23 13.27,13.27 21.73,29.6 25.37,49.07 1.47,8.95 2.66,14.55 3.44,16.62 2.26,6.2 5.8,10.52 10.33,12.98l0 17.02 -163.65 0c2.36,21.53 9.54,40.51 21.64,57.03 14.06,19.48 31.07,29.11 51.04,29.11 20.95,0 44.94,-14.06 71.99,-42.38zm-146.34 -66.78l83.79 0c-0.69,-48.78 -14.75,-73.17 -41.99,-73.17 -17.9,0 -30.69,12.1 -38.36,36.29 -2.65,8.66 -4.03,17.51 -4.03,26.46 0,3.44 0.2,6.98 0.59,10.42z"/>
   </g>
  </g>
 </g>
</svg>
