<svg xmlns="http://www.w3.org/2000/svg" width="152" height="44.159" viewBox="0 0 4021.66 1168.38" shape-rendering="geometricPrecision" text-rendering="geometricPrecision" image-rendering="optimizeQuality" fill-rule="evenodd" clip-rule="evenodd"><path d="M308.22 969.5c-112.12 49-43.94 219.12 71.78 174.53 12.04-4.71 23.43-12.71 29.2-18.33 79.02-78.76-9.36-196.19-100.98-156v-.2zM171.6 684.02C108.64 587.44 63.64 544.06 24.15 387.09c-93.99-373.5 89.19-567.01 243.73-163.95 55.58 144.92 50.46 219.63 49.15 380.09l56.13-2.93c14.98-127.76 67.37-275.62 131-344.71 52.24-56.79 246.81-151.6 366.17-90.81 75.82 38.73 49.96 105.29-11.9 140.77-157.37 90-137.68 105.13-229.3 238.91-40.03 58.52-71.92 73.96-114.09 123.61 21.41 45.15 92.43 107.97 55.83 228.74-116.92-44.44-211.73-75.82-353.41-26.77-23.58 8.15-34.01 15.54-53.3 22.62-102.7 38.72-27.74-170.63 7.39-208.8l.05.16z" fill="#003871"/><path d="M994.04 1078.38L893.61 938.01l-103.82 140.37H645.13l176.1-230.46L651.15 620.8h148.97l96.98 133.52 99.52-133.52h141.12L967.66 844.58l176.91 233.95H994.04v-.15zm172.75-457.58h132.72v457.63l-132.72-.05V620.74v.06zm66.41-63.78c-24.39 0-44.19-7.09-59.47-21.31-15.29-14.23-23.03-31.74-23.03-52.75 0-21 7.64-38.57 23.03-52.74 15.28-14.07 35.08-21.31 59.47-21.31 24.4 0 44.19 6.83 59.58 20.35 15.29 13.67 22.88 30.67 22.88 51.02 0 22.12-7.64 40.44-22.88 54.77-15.24 14.32-35.23 21.71-59.58 21.71v.26zm147.35 63.78h132.72v457.63l-132.72-.05V620.74v.06zm66.26-63.78c-24.4 0-44.19-7.09-59.58-21.31-15.39-14.23-22.88-31.74-22.88-52.75 0-21 7.65-38.57 22.88-52.74 15.39-14.07 35.23-21.31 59.58-21.31s44.19 6.83 59.47 20.35c15.39 13.67 23.04 30.67 23.04 51.02 0 22.12-7.65 40.44-23.04 54.77-15.38 14.32-35.07 21.71-59.47 21.71v.26zm417.74 56.94c42.57 0 81.3 9.77 116.12 29.31 34.83 19.54 62.26 47.12 82.1 82.51 19.84 35.48 29.71 76.73 29.71 123.76 0 47.02-9.92 88.37-29.71 123.76-19.84 35.48-47.27 62.96-82.1 82.5-34.82 19.54-73.55 29.31-116.12 29.31-62.96 0-110.9-19.84-143.7-59.58v52.75H1594v-631.2h132.72v222.06c33.46-36.85 79.42-55.33 137.83-55.33v.15zm-22.93 362.37c34.02 0 62.01-11.54 83.73-34.42 21.71-22.88 32.8-53.7 32.8-92.27 0-38.42-10.84-69.4-32.8-92.28-21.97-22.88-49.81-34.42-83.73-34.42-34.01 0-62 11.54-83.82 34.42-21.81 22.88-32.8 53.71-32.8 92.28s10.99 69.39 32.8 92.27c21.82 22.88 49.81 34.42 83.82 34.42zm527.54 2.58c23.84 0 45-3.49 63.47-10.58 18.48-7.08 35.64-18.32 51.43-33.61l70.56 76.59c-43.12 49.3-105.94 74.05-188.85 74.05-51.58 0-97.24-10.02-137.02-30.27-39.79-20.24-70.31-48.08-91.87-83.82-21.57-35.63-32.3-76.18-32.3-121.58 0-44.75 10.58-85.19 31.89-121.18 21.31-35.99 50.47-64.13 87.57-84.23 37.25-20.25 79.01-30.27 125.48-30.27 43.68 0 83.32 9.27 119.05 27.74 35.74 18.48 64.13 45 85.6 79.98 21.31 34.97 31.89 76.18 31.89 123.76l-338.58 65.5c9.66 22.62 24.9 39.78 45.55 51.02 20.65 11.23 46.06 17.01 76.08 17.01l.05-.11zm-19.54-264.52c-33.46 0-60.69 10.73-81.54 32.29-20.86 21.56-31.99 51.43-33.21 89.34l222.87-43.38c-6.28-23.84-19.03-42.87-38.32-56.89-19.28-14.02-42.57-21.31-69.75-21.31l-.05-.05zm410.2-33.21c15.95-22.12 37.26-38.82 64.14-50.21 26.88-11.39 58-17.01 93.23-17.01v122.55c-14.73-1.22-24.65-1.72-29.71-1.72-38.01 0-67.77 10.73-89.34 31.88-21.56 21.16-32.29 53.15-32.29 95.77v216.04l-132.72-.1V620.74l126.85.06v60.38h-.16z" fill="#17082f"/><path d="M2938.1 1114.97c14.58 0 26.27 11.8 26.27 26.27 0 14.48-11.79 26.38-26.27 26.38-14.58 0-26.37-11.8-26.37-26.38 0-14.57 11.79-26.27 26.37-26.27z" fill="#e8443b"/><path d="M3211.43 1116.69c14.48 0 26.27 11.8 26.27 26.38 0 14.57-11.79 26.27-26.27 26.27-14.57 0-26.37-11.8-26.37-26.27 0-14.48 11.8-26.38 26.37-26.38z" fill="#004dfd"/><path d="M3078.06 1114.97c14.47 0 26.27 11.8 26.27 26.27 0 14.48-11.8 26.38-26.27 26.38-14.58 0-26.37-11.8-26.37-26.38 0-14.57 11.79-26.27 26.37-26.27z" fill="#feed01"/><path d="M3004 1114.72c14.48 0 26.27 11.79 26.27 26.37 0 14.58-11.79 26.27-26.27 26.27-14.57 0-26.37-11.79-26.37-26.27 0-14.47 11.8-26.37 26.37-26.37z" fill="#ff8b00"/><path d="M3277.34 1116.59c14.58 0 26.37 11.8 26.37 26.37 0 14.58-11.79 26.28-26.37 26.28-14.48 0-26.27-11.8-26.27-26.28 0-14.47 11.79-26.37 26.27-26.37z" fill="#760789"/><path d="M3143.91 1114.72c14.48 0 26.27 11.79 26.27 26.37 0 14.58-11.79 26.27-26.27 26.27-14.58 0-26.37-11.79-26.37-26.27 0-14.47 11.79-26.37 26.37-26.37z" fill="#008125"/><path d="M1205.92 398.33c-105.79 37.26-55.02 197.26 53.71 164.46 11.38-3.49 22.22-9.92 27.83-14.88 77.7-66.57 4.81-180-81.69-149.58h.15z" fill="#3e4095"/><path d="M1416.03 398.33c-105.79 37.26-55.02 197.16 53.71 164.31 11.39-3.5 22.22-9.92 27.84-14.89 77.7-66.56 4.81-179.99-81.7-149.57l.15.15z" fill="#3f2e64"/><path d="M3011.09 1071.19c-5.87 5.36-13.01 9.26-21.56 12.05-8.56 2.78-17.42 4.15-26.78 4.15-21.71 0-38.32-5.87-49.96-17.57-11.64-11.69-17.56-28.24-17.56-49.7V803.98h31.23v50.47l69.75.05v26.27l-69.75-.05v137.83c0 13.66 3.34 24.09 10.02 31.33 6.68 7.24 16.6 10.73 29.31 10.73 14.07 0 25.46-4 34.27-11.89l10.98 22.37.05.1zm66.16-171.44c7.39-15.54 18.22-27.18 32.7-35.08 14.47-7.9 32.39-11.79 53.7-11.79v30.27l-7.49-.41c-24.4 0-43.38 7.49-57.05 22.37-13.66 14.89-20.6 35.89-20.6 62.67v117.58h-31.28V854.6h29.87v45.15h.15zm330.63-45.15v230.76h-29.86v-45.65c-9.37 15.53-21.72 27.33-37.11 35.48-15.38 8.15-32.7 12.3-51.98 12.3-21.72 0-41.25-4.96-58.82-14.88-17.56-9.92-31.18-23.84-41.25-41.66-9.92-17.82-14.98-38.17-14.98-60.94 0-22.78 4.96-43.13 14.98-60.95 9.92-17.82 23.69-31.58 41.25-41.4 17.57-9.82 37.26-14.73 58.82-14.73 18.73 0 35.63 3.89 50.62 11.64 14.98 7.74 27.43 19.03 37.1 34.01v-43.93l31.23.1v-.15zm-116.22 205.2c16.1 0 30.68-3.59 43.69-11.24 13-7.64 23.28-18.07 30.67-31.73 7.49-13.67 11.24-29.31 11.24-46.88 0-17.56-3.6-33.2-11.24-46.87-7.49-13.66-17.67-24.39-30.67-31.89-13.01-7.49-27.59-11.13-43.69-11.13-16.45 0-31.08 3.59-44.03 11.13-12.96 7.55-23.29 18.07-30.68 31.89-7.39 13.82-11.24 29.31-11.24 46.87 0 17.57 3.75 33.21 11.24 46.88 7.49 13.66 17.67 24.39 30.68 31.73 13 7.49 27.73 11.24 44.03 11.24zm376.7-205.2l-102.71 230.76h-31.99L3431.47 854.6h32.39l86.41 196.44 87.31-196.44h30.78zm115.71 205.2c14.32 0 27.59-2.53 39.63-7.64 12.05-5.12 22.53-12.71 30.93-22.53l17.56 20.25c-10.17 12.3-22.88 21.71-38.16 28.14-15.29 6.43-31.99 9.67-50.47 9.67-23.69 0-44.74-4.96-63.07-15.13-18.32-10.18-32.8-24-42.97-41.92-10.18-17.91-15.39-38.01-15.39-60.53 0-22.53 4.96-42.72 14.58-60.54 9.62-17.82 23.44-31.74 40.7-41.81 17.15-9.92 36.85-14.88 58.81-14.88 20.5 0 38.98 4.7 55.43 14.07 16.45 9.36 29.71 22.37 39.53 38.97 9.82 16.61 14.98 35.64 15.54 56.9l-189.51 36.85c5.87 18.73 16.45 33.35 31.89 44.03 15.44 10.68 33.76 15.95 55.02 15.95l-.05.15zm-7.9-180.3c-16.09 0-30.52 3.6-43.12 11.24-12.61 7.64-22.63 17.82-29.87 31.18-7.24 13.26-10.73 28.55-10.73 45.81 0 4.4.15 7.64.41 9.67l162.73-31.59c-3.49-19.29-12.45-35.08-26.78-47.53-14.32-12.45-31.88-18.63-52.64-18.63v-.15zm218.87 207.89c-20.75 0-36.85-5.87-48.08-17.57-11.24-11.69-16.86-27.84-16.86-48.74V759.64h31.18v258.76c0 13.66 3.24 24.09 9.67 31.33 6.43 7.24 16.09 10.73 28.95 10.73 8.15 0 15.14-1.32 21.01-4l2.28 25.97c-9.12 3.24-18.33 4.7-28.15 4.7v.26z" fill="#606062"/></svg>