<?xml version="1.0" encoding="UTF-8"?>
<!DOCTYPE svg PUBLIC "-//W3C//DTD SVG 1.1//EN" "http://www.w3.org/Graphics/SVG/1.1/DTD/svg11.dtd">
<!-- Creator: CorelDRAW 2017 -->
<svg xmlns="http://www.w3.org/2000/svg" xml:space="preserve" width="10.7526mm" height="10.4138mm" version="1.1" style="shape-rendering:geometricPrecision; text-rendering:geometricPrecision; image-rendering:optimizeQuality; fill-rule:evenodd; clip-rule:evenodd"
viewBox="0 0 1075.26 1041.38"
 xmlns:xlink="http://www.w3.org/1999/xlink">
 <defs>
  <style type="text/css">
   <![CDATA[
    .fil2 {fill:#1F1A17}
    .fil0 {fill:#878582}
    .fil1 {fill:#A8A6A5}
    .fil3 {fill:#DA251D}
    .fil4 {fill:white}
   ]]>
  </style>
 </defs>
 <g id="Capa_x0020_1">
  <metadata id="CorelCorpID_0Corel-Layer"/>
  <g id="_2093316066992">
   <g>
    <path class="fil0" d="M525.23 751.59l-10.07 -2.43 -0.03 -256.5 20.73 1.21c-4.85,-2.97 -15.24,-3.3 -22.21,-2.14l-0.64 258.54 12.22 1.32z"/>
    <path class="fil0" d="M958.01 989.74l-0.6 -84.27 71.74 0.58c-9.45,-3.71 -60.19,-4.11 -73.77,-1.7l-0.16 83.26c2.29,4.71 0.11,3.58 2.79,2.13z"/>
    <path class="fil0" d="M713.04 391.88c5.7,3.3 9.71,3.12 17.56,2.98l-0.51 -39.03c-1.21,-4.84 0.09,-1.64 -2.38,-4.39l1.21 42 -15.88 -1.56z"/>
   </g>
   <g>
    <path class="fil1" d="M4.63 725.38c-0.26,-38.83 1.9,-281.29 -3.19,-296.68l-0.08 279.53c-0.02,1.33 -0.2,7.86 -0.1,8.67 1.55,13.47 -1.33,4.3 3.37,8.48z"/>
    <path class="fil1" d="M1074.02 867.48l0 -0.17 0 -14.96c-0.07,-1.04 -0.14,-1.93 -0.2,-2.16 -1.53,-5.79 0.96,-0.84 -2.68,-4.44l2.88 21.73z"/>
   </g>
   <g>
    <path class="fil2" d="M958.01 989.74c-2.68,1.45 -0.5,2.58 -2.79,-2.13l0.16 -83.26c13.58,-2.41 64.32,-2.01 73.77,1.7l25.71 -0.42 -96.85 84.11zm116.01 -122.26l0 30.58c-0.05,0.45 -0.1,0.87 -0.16,1.27l-29.94 62.49c-13.5,27.02 -26.75,55.06 -40.83,81.68l-752.32 0c-83.49,0 -162.32,-2.15 -247.2,-2.15l1.06 -315.97c-0.26,-38.83 1.9,-281.29 -3.19,-296.68l0 -406.2c26.58,-6.19 62.94,-28.58 88.43,-24.01l423.75 72.84c17.84,2.94 504.14,88.74 523.86,88.74l8.51 172.04c0.13,11.09 1.73,11.83 2.25,21.4 0.37,6.91 -0.18,14.6 -0.1,21.59l2.15 42.99c0.13,11.09 1.73,11.83 2.24,21.4 0.38,6.9 -0.18,14.6 -0.09,21.59 0.13,11.09 1.73,11.83 2.24,21.4 0.38,6.9 -0.17,14.6 -0.09,21.59 0.13,11.09 1.73,11.83 2.24,21.4 0.38,6.96 -0.28,14.57 -0.08,21.57 0.31,10.62 1.98,10.74 2.29,21.36 0.21,7.06 -0.35,14.57 -0.14,21.63 0.32,10.61 1.98,10.74 2.29,21.36 0.21,7.06 -0.35,14.56 -0.14,21.63 0.31,10.62 1.98,10.74 2.29,21.36 0.21,7.06 -0.35,14.56 -0.14,21.63 0.31,10.61 1.98,10.74 2.29,21.35 0.21,7.07 -0.35,14.57 -0.14,21.64 0.31,10.61 1.98,10.74 2.29,21.35 0.21,7.07 -0.35,14.57 -0.14,21.64 0.7,23.56 6.55,61.7 3.64,83.76l2.88 21.73zm-988.23 -46.21l-1.76 -815.5 944.91 161.79c0.16,1.17 0.44,1.4 0.52,2.28l3.13 37.45c0.73,14.45 1.49,29.19 2.2,43.44l21.23 421.43c1.41,27.8 2.8,55.49 4.19,83.22 1.23,24.29 5.61,64.5 3.75,87.01l4.06 57.07 -118.68 0 -0.79 98.31c-16.15,4.45 -381.7,1.4 -431.24,1.4 -34.17,0 -408.76,2.16 -431.67,-0.7l0.15 -177.2z"/>
    <path class="fil2" d="M525.23 751.59l64.93 2.42 0.07 -139.87c7.77,7.47 18.19,25.31 24.73,35.07l73.8 109.42 75.94 4.47 -0.03 -258.57 -76.29 -3.85 -0.05 141.57c-1.16,-2.18 -42.85,-62.71 -48.67,-71.44l-49.54 -75.05 -54.26 -1.89 -20.73 -1.21 0.03 256.5 10.07 2.43z"/>
    <path class="fil2" d="M256.92 732.28l0 -111.51 92.33 5.38 0.27 -55.38 -91.51 -5.42c-2.43,-14.05 -1.5,-33.34 -0.6,-47.9l108.06 6.4 0.01 -59.02 -182.76 -10.76c-0.05,59.46 -0.05,118.1 -0.05,176.73 0,28.59 -1.34,60.28 -0.25,88.42 0.39,9.91 -0.12,9.22 10.07,9.96l64.43 3.1z"/>
    <path class="fil2" d="M229.96 349.26c11.47,-1.33 35.68,0.48 45.58,5.19 10.65,5.07 17.6,23.64 7.03,35.12 -7.3,7.93 -33.91,6.94 -46.59,3.88 -9.53,-2.3 -5.8,-22.08 -6.02,-44.19zm-0.82 -84.72c23.73,1.55 49.67,-0.88 49.9,24.51 0.25,27.03 -26.78,19.56 -49.52,17.03l-0.38 -41.54zm-57.29 170.2c28.52,5.31 129.34,14.29 150.8,1.51 27.36,-16.3 31.32,-65.67 9.87,-89.22 -9.4,-10.33 -13.21,-9.58 -25.02,-17.89 15.09,-8.78 29.44,-15.2 28.73,-46.52 -0.52,-22.65 -12.99,-41.12 -27.01,-49.83 -15.23,-9.46 -116.08,-18.95 -139.55,-16.97l2.18 218.92z"/>
    <path class="fil2" d="M768.89 487.17l59.07 4.12 -1.04 -109.81 76.1 112.86c7.58,6.05 47.59,5.65 60.38,6.26l-1.97 -202.23 -59.05 -4.93 0.87 108.77c-6.47,-4.35 -9.59,-11 -14.38,-18.33l-37.74 -56.77c-3.52,-5.34 -22.42,-35.35 -25.05,-37.22 -6.05,-4.3 -48.97,-5.39 -59.2,-5.46l2.01 202.74z"/>
    <path class="fil2" d="M549.81 246.22l-58.14 -4.65c0.26,33.86 0.63,67.53 0.97,101.2 0.31,30.51 5.61,74.96 -35.12,68.4 -49.87,-8.03 -20.39,-106.75 -31.32,-175.04l-57.06 -4.69c-2.53,27.17 -1.46,128.49 2.97,153.07 8.63,47.91 32.9,70.47 81.45,77.48 56.13,8.1 87.74,-12.65 95.98,-61.29 5.21,-30.81 1.96,-119.53 0.27,-154.48z"/>
    <path class="fil2" d="M713.04 391.88l15.88 1.56 -1.21 -42 -83.15 -6.92 -0.68 -33.06 91.19 7.51 -0.16 -44.59 -146.06 -12.12c0.18,30.03 -1.88,194.33 3.48,207.85l147.4 13.15 -0.64 -47.38 -93.74 -7.81 -0.71 -40.18 68.4 3.99z"/>
    <path class="fil2" d="M390.11 742.06l67.23 3.83c4.79,-0.62 6.8,2.51 6.8,-7.62 0,-36.83 1.51,-237.3 -0.96,-256.97l-73.1 -4.1 0.03 264.86z"/>
    <path class="fil2" d="M382.87 90.98c-34.25,9.93 -9.34,53.24 24.33,43.01 28.18,-8.56 7.32,-52.18 -24.33,-43.01z"/>
    <path class="fil2" d="M705.63 145.95c-31,7.92 -12.24,51.25 21.96,44.05 32.07,-6.74 11.27,-52.55 -21.96,-44.05z"/>
   </g>
   <g>
    <path class="fil3" d="M1063.96 842.39l-978.17 -21.12 -0.15 177.2c22.91,2.86 397.5,0.7 431.67,0.7 49.54,0 415.09,3.05 431.24,-1.4l0.79 -98.31 118.68 0 -4.06 -57.07z"/>
    <path class="fil3" d="M898.33 763.77c25.37,1.93 22.86,1.35 29.02,-8.8 35.12,-57.77 53.04,-100.96 21.65,-166.83 -24.94,-52.31 -26.51,-47.68 -50.54,-46.99 8.32,29.88 32.7,61.13 32.78,111.15 0.08,46.95 -20.44,75.52 -32.91,111.47z"/>
    <path class="fil3" d="M823.69 682.15c-49.05,13.01 -20.56,63.4 25.38,50.3 43.39,-12.36 20.02,-62.33 -25.38,-50.3z"/>
    <path class="fil3" d="M821.12 565.98c-46.56,15.24 -14.44,62.75 28.85,49.3 43.27,-13.45 17.37,-64.44 -28.85,-49.3z"/>
   </g>
   <g>
    <path class="fil4" d="M390.08 477.2l73.1 4.1c2.47,19.67 0.96,220.14 0.96,256.97 0,10.13 -2.01,7 -6.8,7.62l-67.23 -3.83 -0.03 -264.86zm433.61 204.95c45.4,-12.03 68.77,37.94 25.38,50.3 -45.94,13.1 -74.43,-37.29 -25.38,-50.3zm-298.46 69.44l-12.22 -1.32 0.64 -258.54c6.97,-1.16 17.36,-0.83 22.21,2.14l54.26 1.89 49.54 75.05c5.82,8.73 47.51,69.26 48.67,71.44l0.05 -141.57 76.29 3.85 0.03 258.57 -75.94 -4.47 -73.8 -109.42c-6.54,-9.76 -16.96,-27.6 -24.73,-35.07l-0.07 139.87 -64.93 -2.42zm295.89 -185.61c46.22,-15.14 72.12,35.85 28.85,49.3 -43.29,13.45 -75.41,-34.06 -28.85,-49.3zm77.21 197.79c12.47,-35.95 32.99,-64.52 32.91,-111.47 -0.08,-50.02 -24.46,-81.27 -32.78,-111.15 24.03,-0.69 25.6,-5.32 50.54,46.99 31.39,65.87 13.47,109.06 -21.65,166.83 -6.16,10.15 -3.65,10.73 -29.02,8.8zm-705.84 -34.59c-10.19,-0.74 -9.68,-0.05 -10.07,-9.96 -1.09,-28.14 0.25,-59.83 0.25,-88.42 0,-58.63 0,-117.27 0.05,-176.73l182.76 10.76 -0.01 59.02 -108.06 -6.4c-0.9,14.56 -1.83,33.85 0.6,47.9l91.51 5.42 -0.27 55.38 -92.33 -5.38 0 111.51 -64.43 -3.1zm574.39 -444.75c10.23,0.07 53.15,1.16 59.2,5.46 2.63,1.87 21.53,31.88 25.05,37.22l37.74 56.77c4.79,7.33 7.91,13.98 14.38,18.33l-0.87 -108.77 59.05 4.93 1.97 202.23c-12.79,-0.61 -52.8,-0.21 -60.38,-6.26l-76.1 -112.86 1.04 109.81 -59.07 -4.12 -2.01 -202.74zm-217.07 -38.21c1.69,34.95 4.94,123.67 -0.27,154.48 -8.24,48.64 -39.85,69.39 -95.98,61.29 -48.55,-7.01 -72.82,-29.57 -81.45,-77.48 -4.43,-24.58 -5.5,-125.9 -2.97,-153.07l57.06 4.69c10.93,68.29 -18.55,167.01 31.32,175.04 40.73,6.56 35.43,-37.89 35.12,-68.4 -0.34,-33.67 -0.71,-67.34 -0.97,-101.2l58.14 4.65zm177.9 105.22c2.47,2.75 1.17,-0.45 2.38,4.39l0.51 39.03c-7.85,0.14 -11.86,0.32 -17.56,-2.98l-68.4 -3.99 0.71 40.18 93.74 7.81 0.64 47.38 -147.4 -13.15c-5.36,-13.52 -3.3,-177.82 -3.48,-207.85l146.06 12.12 0.16 44.59 -91.19 -7.51 0.68 33.06 83.15 6.92zm-558.04 -135.62c23.47,-1.98 124.32,7.51 139.55,16.97 14.02,8.71 26.49,27.18 27.01,49.83 0.71,31.32 -13.64,37.74 -28.73,46.52 11.81,8.31 15.62,7.56 25.02,17.89 21.45,23.55 17.49,72.92 -9.87,89.22 -21.46,12.78 -122.28,3.8 -150.8,-1.51l-2.18 -218.92zm535.96 -69.87c33.23,-8.5 54.03,37.31 21.96,44.05 -34.2,7.2 -52.96,-36.13 -21.96,-44.05zm-322.76 -54.97c31.65,-9.17 52.51,34.45 24.33,43.01 -33.67,10.23 -58.58,-33.08 -24.33,-43.01zm-297.08 730.29l978.17 21.12c1.86,-22.51 -2.52,-62.72 -3.75,-87.01 -1.39,-27.73 -2.78,-55.42 -4.19,-83.22l-21.23 -421.43c-0.71,-14.25 -1.47,-28.99 -2.2,-43.44l-3.13 -37.45c-0.08,-0.88 -0.36,-1.11 -0.52,-2.28l-944.91 -161.79 1.76 815.5z"/>
    <polygon class="fil4" points="958.01,989.74 1054.86,905.63 1029.15,906.05 957.41,905.47 "/>
    <path class="fil4" d="M229.96 349.26c0.22,22.11 -3.51,41.89 6.02,44.19 12.68,3.06 39.29,4.05 46.59,-3.88 10.57,-11.48 3.62,-30.05 -7.03,-35.12 -9.9,-4.71 -34.11,-6.52 -45.58,-5.19z"/>
    <path class="fil4" d="M229.52 306.08c22.74,2.53 49.77,10 49.52,-17.03 -0.23,-25.39 -26.17,-22.96 -49.9,-24.51l0.38 41.54z"/>
   </g>
  </g>
 </g>
</svg>
