<?xml version="1.0" encoding="UTF-8"?>
<!DOCTYPE svg PUBLIC "-//W3C//DTD SVG 1.1//EN" "http://www.w3.org/Graphics/SVG/1.1/DTD/svg11.dtd">
<!-- Creator: CorelDRAW 2017 -->
<svg xmlns="http://www.w3.org/2000/svg" xml:space="preserve" width="9.7366mm" height="8.8898mm" version="1.1" style="shape-rendering:geometricPrecision; text-rendering:geometricPrecision; image-rendering:optimizeQuality; fill-rule:evenodd; clip-rule:evenodd"
viewBox="0 0 973.66 888.98"
 xmlns:xlink="http://www.w3.org/1999/xlink">
 <defs>
  <style type="text/css">
   <![CDATA[
    .fil0 {fill:#373435}
   ]]>
  </style>
 </defs>
 <g id="Capa_x0020_1">
  <metadata id="CorelCorpID_0Corel-Layer"/>
  <g id="_2189109235024">
   <path class="fil0" d="M276.56 467.95c1.87,5.11 -2.59,16.49 -3.76,23.49 -4.86,-1.51 -3.07,0.94 -4.49,-3.7l-0.79 13.26c0.46,7.99 3.7,9.04 4.8,14.01 -5.11,5.46 1.33,0.38 -10.02,2.4 4.19,9.83 5.5,13.84 2.14,25.12 9.12,-1.19 6.45,3.9 6.07,-7.18l4.46 6.69c4.44,-3.29 4.62,-2.68 4.63,-7.65 -5.03,3.72 -2.08,1.26 -6.2,3.5l-0.89 -17.26c4.06,2.3 3.64,2.51 7.69,6.24l3.92 -4.01c-2.33,-2.19 -1.5,-1.84 -3.41,-4.08 -2.15,-2.51 -1.05,-2.04 -3.42,-3.77 0.17,-0.09 0.51,-0.3 0.55,-0.13l6.42 -5.07 -2.25 -11.13 14.84 -7.25c-7.67,-0.75 -3.15,0.44 -4.62,-2.76 -3.97,1.66 -6.36,2.76 -11.89,2.22 4.43,-16.7 4.33,-12.72 5.79,-32.05l1.96 -2.28 -2.36 -0.73c-18.63,9.64 -22.62,17.11 -27.82,21.2 -5.83,4.59 -4.94,0.8 -7.62,7.8 7.67,-1.94 7.28,-2.64 11.44,-8 2.76,2.33 3.22,-3.14 2.04,3.2l1.41 5.8 3.37 -4.24c1.36,-9.84 1.31,-10.63 8.01,-13.64zm141.25 -80.32c3.93,5.84 4.85,3.62 1.3,4.5l2.32 3.18c0.39,-0.31 0.91,-0.82 1.12,-1l2.87 -2.4c1.84,-0.85 0.58,-0.38 2.7,-0.19 5.05,0.44 3.67,2.7 8.3,-0.99l-15 -9.14c-5.88,4.46 -0.43,-0.22 -3.61,6.04zm-71.41 144.78c-4.81,-0.16 -3.93,-1.52 -3.93,2.7 8.35,3 1.25,-1.38 3.52,3.33l6.75 -0.75 -2.98 10.9c1.69,-1.97 4.8,-6.31 6.93,-8.81l6.29 -8.13 -16.58 0.76zm-247.41 -379.75c-2.38,-8.49 -5.28,-7.95 -10.93,-14.85 -3.76,-4.59 -2.49,-6.65 -8.71,-9.73 -0.52,-0.26 -5.51,-1.8 -6.65,-2.28l7.53 20.63c4.13,-6.61 -0.99,-4.86 3.04,-12.25 2.36,7.08 8.01,15.83 15.72,18.48zm131.24 308.64c-5.04,-0.07 -13.54,0 -15.36,2.59 -2.99,4.26 0.91,-2.66 -0.21,2.21l-1.46 1.81c3.7,5.03 2.4,2.56 9.7,5.81 -6.34,3.12 -14.53,3.64 -18,9.44 6.36,4.57 21.99,0.75 29.49,-1.08 13.2,-3.23 18.92,-5.17 21.42,-13.16 -9.15,2.37 -17.07,5.27 -26.26,8.35 2.66,-0.93 3.91,-0.86 5.98,-2.63 5,-4.32 1.13,0.95 4.84,-6.65l-19.75 1.82 9.61 -8.51zm221.52 -61.58l0.54 4.72c8.85,0.87 5.11,2.92 15.06,2.21 -7.14,19.11 -15.41,24.84 -31.1,35.53 -9.66,6.58 -9.52,7.45 -10.9,13.26 -13.12,1.56 -17.25,0.52 -31.24,-14.65 -8.84,-9.58 -14.5,-21.1 -13.89,-37.37 5.03,8.23 9.12,16.19 14.29,23.19 0.09,-0.18 1.4,-3.04 1.37,-3.41l-0.49 -1.94c-1.81,-4.86 -7.52,-8.54 -5.99,-15.78 2.53,-11.93 4.71,3.81 2.33,-8.37 -0.8,-4.07 -3.29,-1.99 -0.97,-6.69 3.97,-8.03 -0.88,-4.23 5.79,-1.03l2.99 0.09c1.25,-6.18 6.22,7.82 0.02,-8.01l7.6 1.11c0.21,-4.9 -1.05,-4.03 3.85,-6.94 2.54,-15.22 18.85,-27.05 33.51,-30.48 -3.85,7.25 -9.63,9.58 -13.03,24.38 2.65,-3.28 6.93,-8.01 10.14,-11.55 14.49,-15.97 27.33,-4.73 30.58,15.65 6.14,-3.02 5.05,5.33 4.76,-7.29 -2.96,-8.33 -5.33,-13.75 -8.53,-20.06 -8.35,-1.08 -3.04,-1.68 -8.44,2.04l-1.51 -16.1 -3.22 11.4c-7.91,0.91 -26.54,-5.4 -50.6,19.1 6.7,-1.16 0.04,2.7 6.98,-2.4 -1.66,5.97 -6.47,15.53 -10.12,19.46 -5.6,-0.02 -8.28,-1.22 -11.85,-4.55l-1.5 13.64 -7.53 -10.19c-5.01,19.6 -6.72,22 -4.24,48.72 0.12,0.06 0.36,-0.3 0.39,-0.16 0.02,0.14 0.39,-0.13 0.42,-0.13l6.36 3.86c5.78,5.66 6.18,6.08 7.26,13.26 -10.49,-3.77 -3.78,-4.58 -13.17,-6.98 5.1,8.43 3.14,8.26 3.95,10.81l4.25 1.52 1.38 -0.61 0.03 5.78c-5.03,4.11 -10.56,8.31 -16.67,11.44l2.07 -0.42c-2.22,8.99 0.13,9.68 -1.72,14.02 -3.88,9.16 1.4,-0.25 -2.61,3.18 -0.89,0.77 -1.98,1.29 -3,1.97 -0.56,0.38 -1.26,0.77 -1.75,1.08 -0.5,0.32 -1.29,0.64 -1.84,1.11 2.73,3.24 0.85,2.47 5.08,4.79 7.95,2.67 13.01,1.53 17.19,8.31 3.25,2.01 2.47,1.38 7.06,2.56 1.61,0.41 3.66,0.39 5.21,0.77l5.71 0.47c-0.94,-9.91 1.58,-12.27 9.47,-15.13 2.96,3.34 3.32,4.68 7.96,9.37 0.36,-0.48 0.85,-1.82 1.01,-1.48 0.15,0.32 0.76,-1.08 0.97,-1.43l3.99 -12.21c9.05,-2.61 -2.24,2.93 3.94,-2.09 0.1,-0.09 2.78,-3.3 3.16,-3.72 2.9,15.89 -10.15,20.8 -15.71,31.72l-1.63 4.21c-1.56,4.38 -2.81,5.57 -4.91,10.3 -2.21,4.97 -0.96,7.03 -4.76,8.1 2.89,5.17 4.96,3.23 10.79,6.57 -1.49,-6.33 -0.89,-7.68 1.55,-12.89 2.89,-6.16 2.73,-5.94 7.57,-8.83 8.49,4.53 11.56,14.37 10.27,28.28l3.19 -1.94 0.56 -7.94c2.21,-1.85 0.8,-0.33 0.57,-2.01 -4.81,-21.26 -12.19,-12.1 -10.61,-27.62 1.73,2.88 3.59,10.34 15.83,8.08 10.99,-2.03 -6.89,6.31 6.06,-2.35 -8.78,-12.35 -4.03,6.48 -8.23,-5.31 -2.01,-5.65 1.21,-16.55 2.24,-23.52l-1.61 -1.77c1.81,-5.27 -1.62,-2.59 11.06,-9.22 -2.56,-8.85 1,-1.21 -1.47,-3.14 -3.92,-1.56 -5.1,-1.59 -9.74,-3.1 -5.52,2.8 -4.16,3.68 -8.32,3.12l-1.19 -5.55 -11.67 -2.39c8.23,-4.64 0.63,0.24 3,-4.71 10.15,2.61 10.8,-1.46 16.1,-8.33 -2.48,6.44 -4.15,5.9 -7.19,13.31 4.19,-1.58 11.42,-5.33 14.54,-7.61 6.65,-4.86 5.3,-7.43 11.05,-11.63 -9.49,12.09 -8.2,9.67 -16.52,12.1 3.74,-21.29 6.05,-7.31 9.96,-25.86 6.63,-1.13 -3.73,-0.88 4.93,0.52l8.47 -5.38c5.1,-10.87 -0.54,-12.73 5.4,-13.12 0.08,-0.01 0.56,0.15 0.81,0.05l3.97 -15.83c-9.4,4.92 -3.02,3.65 -13.64,3.88l-1.08 -5.3c-1.57,-2.17 4.42,-0.16 -3.86,-2.54 -9.46,5.49 -4.02,-0.54 -6.54,10.02zm-199.5 -207.3c6.72,3.99 11.17,15.06 14.97,24.01l-3.76 8.91 -8.97 -0.71c-2.74,-9.58 -7.05,-22.5 -4.99,-28.69 1.21,-3.64 0.89,-1.68 2.75,-3.52zm-30.79 39.25l0.14 18.93c15.94,-10.81 -4.75,-10.84 17.87,-12.32 -7.25,11.75 -12.11,10.17 -7.14,25.88 -2.17,-2.31 -1.37,1.32 -0.36,-4.19 0.35,-1.93 1.95,-5.81 2.67,-7.76 5.04,-1.41 -1.8,-3.56 2.27,0.36 3.31,3.21 1.48,0.87 -0.36,1.63 5.69,-16.01 8.25,-14.5 11.22,-34.34 1.75,1.19 5,1.64 6.13,6.72 0.8,3.6 -3.6,13.67 -4.96,18.07 -1.95,6.33 0.87,6.91 -2.65,3.59 4.73,-2.81 4.53,-7.06 5.97,-11.95 13.96,9.38 1.2,12.02 9.77,18.8 12.51,-10.13 -13.76,-14.01 -3.81,-26.71 6.5,6.78 6.55,15.63 10.64,21.1 1.87,-12.77 2.47,-6.47 -0.61,-18.45 -2.12,-8.22 0.49,-11.71 4.55,-15.52 2.66,12.35 -0.12,8.9 7.3,14.79 0,-7.2 -1.71,-13.77 -1.78,-18.01 -0.16,-9.22 2.45,-3.72 3.98,-13.76 1.6,4.26 1.21,3.1 2.96,7.88l0.23 20.5 8.5 1.73c0.06,-0.98 -0.03,-3.26 0.1,-3.72 1.12,-4.02 1.43,-5.41 5.15,-7.18 4.36,-2.08 3.53,-0.47 10.72,-1.36 0.24,20.47 -1.06,15.28 2.45,21.94 0.24,0.44 0.66,1.17 0.86,1.54 0.22,0.39 0.66,1.06 0.91,1.63 1.54,3.28 -0.77,6.7 -6.37,14.62 -3.54,4.98 -1.57,1.88 -6.43,5.34 -4.32,3.07 -7.67,9.78 -29.35,24.7 -10.99,7.57 -6.57,3.39 -1.88,5.78 1.96,-3.5 10.2,-7.32 14.19,-9.52 15.74,-8.67 21.83,-20.74 26.52,-25.32 6.13,-6 9.09,-6.51 10.12,-15.88 5.55,-6.17 -2.49,-6.29 6.89,-10.91 -0.06,-11.09 2.35,-15.35 -7.89,-12.83 3.75,-8.47 7.82,-8.44 12.3,-14.83 0.27,-0.39 0.57,-0.89 0.83,-1.29 7.79,-12.47 12.72,-42.76 16.94,-55.03 1.36,-3.97 4.6,-8.44 6.99,-12.98 5.4,-10.26 7.68,-17.02 13.14,-26.2l18.2 -27.66c0.36,-0.46 1.39,-1.76 1.75,-2.22l13.24 -16.51c9.93,-12.73 16.95,-37.77 29.27,-47.63l2.35 -13.75 -17.96 21.79c-3.13,4.86 -4.67,6.45 -6.63,11.98 -2.2,6.23 -2.08,7.8 -5.03,12.15l-23.17 30.4c-32.32,36.76 -32.42,66.86 -41.79,83.61 -1.52,2.72 -0.16,0.23 -2.63,3.23 -7.82,9.47 -5.84,13.06 -11.89,18.42 -1.78,-5.14 -4.34,-13.94 -5.07,-8.39 0.99,-8.3 0.18,-12.02 -2.17,-18.69 -5.37,5.68 -2.57,9.6 -6.68,20.69l4.73 3.06c3.99,3.38 3.23,6.67 3.22,11.21 0,0 -1.05,-11.01 -15.31,-4.56 -6.35,2.87 -6.78,7.65 -9.77,13.25l1.9 -24.9c0.17,-0.14 0.85,-0.7 1.08,-1.04l5.93 -14.8c-6.19,-0.02 -6.35,-3.56 -11.17,4.86 -1.87,3.26 -1.98,7.97 -2.77,11.68 -1.25,5.84 -4.24,14.07 -7.7,19.17 -3.97,4.54 -3.38,3.52 -5.75,8.22l-16.16 -38.08c-5.88,6.04 -8.34,-8.59 -3.22,9.25 2.06,7.14 3.55,-5.06 9.94,16.17 4.1,13.62 9.15,3.8 2.43,25.79 -3.18,-4.17 -1.56,-3.54 -3.5,-9 -5.19,-14.62 -6.5,-3.98 -8.68,-28.19 -0.44,0.59 -0.65,1.41 -0.89,2.02 -0.23,0.6 -0.55,1.26 -0.82,1.98 -6.33,16.91 -2.25,5.5 -7.16,13.84 -12.14,20.58 1.88,6.14 -15,18.63 5.23,5.17 -7.19,7.65 7.54,2.38 3.2,-1.15 3.98,-4.75 4.03,-4.83 1.48,5.31 2.05,5.22 -0.45,5.67 -0.06,0.01 -0.58,0.01 -0.63,0.01 -6.05,0.58 -6.08,13.66 -5.85,21.28 -0.38,-0.51 -0.64,-1.21 -0.95,-1.66 -0.31,-0.46 -0.63,-1.09 -1.03,-1.64l-5.76 -6.42c-0.38,-1.2 -1.17,-1.11 -1.83,-1.57 0.24,11.43 -0.76,6.83 -2.41,14.64 0.14,-1.4 2.04,-8.08 2.04,-8.08 0.25,-8.37 3.96,-1.59 -3.21,-7.59l-3.33 6.36zm-11 48.13c4.39,-6.83 -0.01,-8.51 6.76,-18.72l-7.15 3.54c-3.31,-16.37 -14.56,-10.13 -13.19,-22.56 0.05,-0.42 0.85,-2.76 1.19,-3.33 -6,-1.64 -3.01,-0.74 -8.29,-3.88 -14.18,-8.43 -10.36,-6.09 -14.31,-16.99 -3.29,-9.05 -17.47,-9.66 -12.88,-15.42 0.16,-0.2 1.74,-1.19 1.92,-1.33 0.08,-0.06 0.6,-0.25 0.66,-0.6 0.07,-0.36 0.59,-0.36 0.66,-0.66 -3.02,-4.58 -4.62,-5.53 -8.84,-9.68 -15.31,-15.04 -8.73,-15.94 -14.68,-29.08l-1.61 -2.61c1.32,-16.32 -9.99,-35.77 -7.63,-56.78 4.66,2.86 11.53,20.47 13.5,27.07 6.17,2.53 4.29,-7.97 3.02,-1.02 14.01,9.15 15.19,38.9 22.83,59.2 2.11,5.61 2.66,8.85 5.15,14.27 4.29,9.31 4.3,6.15 8.63,11.71 8.8,11.29 2.8,16.58 21,19.79 -4.33,-7.06 -3.29,-3.49 -8.08,-7.65 -2.51,-2.19 -3.82,-5.65 -3.88,-5.97 -0.46,-2.33 6.07,2.95 -3.17,-5.97 -3.07,-2.96 -3.81,-2.54 -6.23,-5.93 -0.53,-0.74 -8.51,-14.3 -9.67,-16.43 -3.18,-5.81 -4.63,-12.5 -5.49,-19.98 3.14,3.31 5.66,3.75 6.81,6.5 -0.06,-10.62 -24.95,-43.44 -25.18,-93.63 7.88,-1.7 12.88,4.34 16.58,12.75 3.38,7.69 7.98,20.55 7.82,25.68 -0.69,22.72 -2.23,25.41 11.86,52.46 6.2,-6.28 12.02,12.52 -1.37,-17.75 -4.28,-9.67 -4.01,-9.11 -9.34,-18.08l8.7 -12.02c4.99,17.31 13.17,17.9 13.24,18l10.29 25.91c1.17,4.66 2.4,11.8 3.55,15.87 3.39,12.01 7.41,4.67 4.98,11.98 2.84,8.18 -2.72,2.87 4.31,6.82l3.95 -10.81c-2.22,-3.87 -3.65,-7.82 -5.22,-12.72 -5.25,-16.34 -8.56,-16.76 -3.53,-27.81l2.59 -11.22c-7.35,-2.59 -13.08,-14.97 -14.65,-27.29 2.47,2.33 6.2,4.2 7.12,6.03 -0.35,-12.35 -8.41,-3.16 -9.12,-60.37 -0.52,0.41 -2.21,1.72 -2.64,2.01l-9.26 4.43 1.07 37.56c0.84,-3.04 -9.93,-26.25 -14.82,-33.55 -9.34,-13.94 -8.25,-24.42 -25.68,-28.44 2.08,6.45 0.1,11.99 0.65,19.49 0.99,13.68 2.12,7.71 -1.08,21.07 -4.92,9.15 -0.91,26.25 -0.1,37.67 -5.73,-10.06 -8.79,-18.83 -14.2,-25.1 -7.68,2.02 -4.14,-2.49 -7.14,4.68 -0.39,7.36 -0.67,10.32 0.52,17.62l0.98 10.1c-0.98,5.27 0.55,1.44 -1.95,4.92 -3.55,-6.17 -0.09,-2.39 -7.24,-6.27 3.55,13.72 -0.2,2.54 4.89,8.21 1.88,2.09 2.49,0.39 5.74,6.26 4.02,7.25 2.12,10.67 6.89,16.73 -0.48,8.93 0.18,9.38 3.17,17.02l14.13 29.52c5.59,9.97 5.76,2.85 11.06,10.85 7.42,11.19 -4.13,5.64 18.06,25.82l21.34 22.46c-5.47,2.76 -5.89,3.61 -9.79,7.08 -3.5,-1 -16.53,-6.8 -20.42,-8.97 -2.48,-1.38 -14.74,-12.69 -16.79,-14.76l-11.55 -18.03c-4.08,-7.43 -6.44,-13.17 -10.35,-20.94 4.53,5.91 0.74,1.84 8.38,5.04 -1.25,-5.59 -7.89,-12.56 -10.81,-17.19 -1.96,-3.1 -3.51,-5.69 -4.72,-10.53 -3.08,-12.29 -2.17,-9.04 -7.54,-13.27 0,29.82 1.79,12.35 9.91,35.69 8.55,24.56 14.34,36.47 33.3,50.49 14.41,10.65 6.83,7.46 28.6,15.19 -2.68,27.74 2.15,26.15 2.16,26.16l4.46 3.53c-3.23,-17.69 0.69,-11.41 7.16,-23.84zm-155.47 4.09c-2.77,-6.44 -3.76,-8.2 -4.99,-18.2l11.86 8.27c-1.2,-5.12 -2.16,-6.74 -3.81,-10.61 -1.95,-4.57 -3.27,-2.05 -1.51,-8.47 4.17,6.17 3.53,9.45 12.85,6.41l2.78 -1.12c-4.55,-7.41 -7.99,-8.88 -11.38,-17.42 5.31,6.81 -0.71,4.12 8.3,5.02 -1.98,-11.24 -14.42,-18.43 -7.92,-28.04 7.32,0.44 1.4,-1.52 6.82,3.78l10.16 13.09c8.12,16.82 7.99,4.07 15.14,18.97 2.53,5.29 2.84,8.73 4.68,13.67 3.07,8.23 8.41,9.09 10.31,15.19 4,12.81 -5.34,0.41 14.37,23.68 5.53,6.54 3.85,7.69 13.95,11.51 -8.41,-11.34 -21.65,-11.53 -26.93,-29.3l15.65 5.76c-9.1,-10.29 -18.57,-9.97 -22.88,-27.59 21.54,9.55 17.24,19.22 40.34,31.49l-5.66 -12.39c-2.21,-2.32 -3.19,-2.53 -4.41,-3.56l-5.52 -5.7c13.04,3.89 10.92,11.13 20.46,15.02 14.88,6.07 4.96,2.1 8.82,-0.44 -12.97,-0.88 -12.25,-6.09 -23.22,-9.81 0.53,-0.35 1.26,-0.65 1.73,-0.81 13.07,-4.47 8.54,1.45 14.75,-2.21 -22.93,-8.41 -29.94,-5.2 -39.18,-17.38 -1.77,7.45 1.68,3.89 -2.53,4.22 -9.56,-9.07 -5.58,-12.78 -14.17,-19.62 -3.66,-2.92 -2.53,-0.04 -5.84,-5.51 -2.06,-3.39 -3.38,-7.28 -4.48,-9.34 -11.37,-21.41 -9.83,-9.52 -16.67,-21.91 -0.21,-0.39 -0.4,-0.96 -0.61,-1.35l-7.37 -8.75c0.3,-16.01 8.19,7.46 1.82,-12.99 -0.22,-0.69 -2.9,-4.51 -3.36,-4.69l-6.11 1.75c3.55,21.24 0.8,21.52 13.99,28.51 -23.24,2.63 -8.94,18.43 -6.11,37.2 -0.32,0.14 -0.93,-0.27 -1.04,0.12 -1.15,4.29 -1.04,-3.72 -4.96,4.21 -1.16,2.35 0.19,1.78 -2.22,5.59l-4.11 4.01c1.02,7.8 0.31,16.11 8.21,19.74 0.08,13.87 10.69,10.82 12.98,21.66 -7.8,-4.54 -2.22,-0.32 -7.03,-5.3l-38.14 -33.51 -21.34 -9.46c-6.12,14.7 7.48,34.13 11.89,46.88 6.77,19.58 18.8,22.62 24.24,37.49 -13.45,0.52 -13.92,-16.2 -38.12,-25.72 0.74,14.99 3.45,7.44 13.5,18.35 13.22,14.34 18.38,4.93 34.74,32.79l13.47 20.51c2.88,0.63 5.57,-0.82 12.46,0.9 0.56,0.15 4.67,1.52 5.88,1.42 0.59,-0.05 1.22,-0.2 1.77,-0.31l3.76 -1.78c0.44,-0.94 1.39,-0.72 1.99,-1.23 -17.93,-5.66 -41.18,-19.99 -44.49,-37.79 0.52,0.3 1.14,0.74 1.5,0.99l7.71 5.59c14.86,11.28 16.27,9.02 19.64,19.87l4.06 -9.33 24.54 13.51c3.3,1.44 5.34,1.9 8.38,3.06l36.78 18.25c6.5,14.5 7.95,3.5 10.85,15.39 2.64,10.78 -2.46,9.81 6.67,24.02 2.87,-4.4 -0.17,-7.04 -1.3,-13.62 -1.47,-8.48 0.33,-7.52 0.23,-15.23 -0.11,-8.83 -2.35,-10.2 1.54,-18.95 2.61,-5.89 4.64,-4.92 6.13,-9.14 -1.27,3.23 -7.39,6.8 -8.97,13.35 -2.1,8.72 2.38,13.36 -1.61,19.53l-6.27 -8.68c-6.1,-13.65 -2.67,-18.49 -4.08,-27.54 -0.98,-6.36 -0.09,-2.29 -1.59,-5.45 -16.03,-2.63 -27.58,-8.96 -39.99,-11.06 20.1,20.17 23.12,9.2 39.22,16.34l-3.21 14.64c-12.14,-3.58 -17.83,-7.82 -28.39,-14.49 -13.43,-8.48 -26.45,-13.05 -41.78,-18.25 -34.37,-11.66 -5.88,-1.37 -25.35,-13.79 -7.88,-5.04 -7.47,-2.35 -9.88,-12.59 16.07,2.39 47.29,25.37 59.98,27.13l-61.18 -33.5c-5.31,-3.96 -8.81,-6.55 -12.94,-12.72 -3.72,-5.55 -5.88,-9.62 -8.17,-16.13 -7.12,-20.24 -10.24,-10.57 -11.73,-35.84 1.27,2.82 4.56,3.11 4.88,3.34l5.4 6.49c1.51,-3.89 0.37,-2.91 0.82,-4.28 1.99,-5.96 -3.48,2.4 1.79,-3.51 2.81,1.26 9.44,2.3 11.76,9.03 2.14,6.18 -3.87,-0.5 1.04,5.45l12.43 12.56c0.3,0.17 4.4,3.3 5.98,4.5 6.24,4.74 8.46,4.61 14.79,9.24 11.63,8.49 8.17,13.87 17.58,17.75l10.85 3.14c5.4,4.53 0.64,9.01 12.1,16.35 5.5,3.53 12.58,6.82 20.64,9.89 -2.54,-2.76 0.22,0 -3.5,-3.22 -0.45,-0.39 -1.83,-1.51 -2.29,-1.9l-14.8 -11.16c-11.22,-5.79 -9.06,-7.76 -15.12,-18.47l-4.69 -7.46c-4.75,-4.86 -3.36,0.37 -6.78,-6.8 -0.26,-0.55 -0.72,-2.45 -0.96,-3.05 -2.44,-6.04 -14.9,-16.06 -16.97,-17.25l-3.3 -0.9zm-13.29 166.57c2.56,2.18 9.5,7.27 9.57,12.76 0,0.23 -0.16,0.81 -0.18,1.04 0,0.02 -4.97,5.6 7.03,16.07 4.79,4.18 8.42,3.68 12.36,8.8 -9.37,2.39 -7.75,-0.3 -11.28,5.97 3.45,8.97 -1.96,-0.31 6.95,6.69l8.95 9.17c11.64,-2.32 11.35,-5.46 23.96,-4.9 11.11,0.5 12.14,0.31 20.2,-0.98 14.91,-2.38 25.78,-6.92 34.75,-17.87 6.29,-0.69 5.08,-6.08 14.42,10.56 0.16,0.28 0.48,0.89 0.75,1.31 -9.66,15.81 -31.57,32.33 -50.22,33.92 -10.07,0.86 -19.82,4.45 -22.53,-4.05 23.71,-1.93 51.35,-4.15 65.24,-27.59 -5.14,2.12 0.18,1.54 -5.63,2.28 -0.24,0.03 -0.85,0.03 -1.09,0.03l-4.83 -0.32c-7.63,2.45 -4.44,10.69 -29.11,13.41 -4.23,0.47 -7.99,0.04 -8.76,0.14 -14.36,1.78 -5.7,-0.73 -11.26,6.02l17.91 -1.93c-8.56,0.02 -19.9,0.55 -26.71,5.09 -0.07,4.83 1.28,5.77 3.2,8.84 21.65,13.42 45.36,-2.48 63.13,-16.01 6.23,-4.75 9.83,-8.99 12.49,-18.2l5.71 5.23c0.38,0.31 1.04,0.77 1.37,1.02 0.33,0.26 0.96,0.65 1.4,1.02 -15.05,9.35 0.18,8.61 -28.87,28.62 -4.94,3.4 -2.07,0.49 -5.85,4.86l0.12 1.19c8.65,-3.71 7.7,-3.2 13.49,-8.19 4.33,-3.74 6.81,-5.16 10.25,-9.48 15.71,-19.73 1.55,-14.44 18.49,-21.41 -14.47,3.75 -2.81,-9.36 -21.86,-14.68 -4.43,-1.24 -5.07,5.27 -5.81,-9.11 5.65,3.44 5.14,3.54 10.2,6.46 15.44,8.92 9.87,17.06 28.51,11.95 -9.62,-3.36 -11.59,1.46 -19.25,-5.39l-2.13 -4.01c-0.1,-0.27 -0.3,-0.93 -0.4,-1.21 -0.1,-0.26 -0.2,-0.87 -0.3,-1.11 -3.31,-8.53 -3.32,1.55 -11.76,-17.94l23.99 8.45c-7.69,-4.35 -12.31,-5.35 -19.9,-11.6 -7.29,-5.99 -13.26,-10.51 -15.67,-21.93 12.29,5.43 9.43,8.36 13.38,5.04 -2.79,-0.03 -2.07,0.53 -4.75,-1.71 -10.88,-8.52 -9.14,-16.59 -14.05,-21.93 -3.77,-4.09 -19.84,-6.13 -24.46,-9.71l-20.18 -6.95c14.32,-1.48 6.83,-1.8 6.37,-3.33 -6.62,-1.39 -6.96,1.02 -13.58,-0.77 -10.6,-2.87 2.44,-1.43 -10.41,-5.33l-0.95 2.81c-1.52,9.85 -0.39,-5.38 -0.15,2.3l0.63 1.65c0.02,-0.2 0.44,0.4 0.37,1.01l-14.1 -3.31c-1.94,14.25 10.38,16.08 14.9,23.38 2.43,3.92 3.22,8.45 4.39,11.81 -9.97,-1.31 -18.64,-2.85 -26.01,-8.04 -14.11,-9.95 -23.05,-9.46 -26.67,-18.41l-2 -4.36c-4.13,-5.17 -12.41,-5.67 -17.47,-25.07 10.79,2.42 2.61,0.56 9.35,3.51l7.94 3.53c-3.46,-10.89 -8.54,-20.18 -19.89,-17.91 0,0.01 0.96,4.64 2.12,5.97 8.65,-2.03 -10.14,-6.26 3.02,20.44 4.44,9.01 10.26,17.29 16.64,21.38 -2.51,2.72 -6.34,2.74 -9.84,7.96 6.66,19.17 9.7,12.89 14.36,23.05zm108.75 33.47c-19.58,9.05 0.96,11.43 -35.26,17.07 -7.58,1.18 -2.38,3.45 -14.21,3.04l-4.32 -2.16c-4,-1.7 1.87,-1.01 -4.75,-1.45 -0.94,-0.06 -9.32,1.24 -10.84,1.41l-15.32 -5.8c14.9,-4.82 -11.8,1.95 3.42,-1.1 1.29,-0.26 6.32,-0.42 7.84,-0.44 15.99,-0.16 33.91,2.25 43.94,-7.4 -19.84,3.61 -18.83,6.95 -40.49,0.41 -13.16,-3.98 -7.99,-4.76 -14.12,-9.7l-3.99 -2.39c-4.36,-2.57 1.84,1.7 -3.81,-2.16 -2.93,-2 -3.72,-3.88 -6.51,-4.97 9.37,-1.01 10.18,4.57 20.01,8.31 7.24,2.75 16.55,2.18 25.3,4.21 12.03,2.8 8.38,5.67 24.09,2.93 10.66,-1.87 15.86,-0.75 24.51,-6.03l-21.09 2.38 0.87 -5.84c-21.22,12.98 -65.12,-4.63 -71.46,-16.67 -2.75,-5.22 4.79,2.17 -4.28,-8.84 -5.63,-6.83 -16.33,-13.62 -16.68,-21.34 8.37,-1.5 27.2,14.41 35.15,19.24 -0.32,-0.61 -0.84,-2.11 -1.06,-1.76l-7.96 -11.29c15.22,2.14 24.28,4.59 37.56,10.04 5.09,3.9 7.48,1.06 22.74,8.82 12.24,6.23 17.11,1.8 30.1,0.28 -0.58,17.09 2.2,9.12 7.1,16.83 7.87,12.37 -2.2,3.03 -6.48,14.37zm-45.89 -43.69c-4.47,-0.94 -8.49,-1.62 -10.94,-4.65l-0.61 -1.56c-0.21,-0.64 1.17,-2.4 -3.3,-7 -7.48,-7.71 -15.02,-9.7 -17.85,-22.11 23.36,5.77 5.18,8.13 33.03,10.87 4.88,0.48 7.53,2.08 12.41,3.58 9.42,1.58 15.46,0.14 26.09,3.18 3.51,1 5.65,2.76 5.24,10.64 -0.51,9.91 -2.28,2.07 -0.36,17.08l-23.41 0.75c-2.16,-3.87 -2.01,2.53 1.15,-2.13 6.49,-9.59 -1.28,6.3 1.99,-2.92l-23.44 -5.73zm114.88 -364.06c6.74,4.83 8.54,9.2 14.94,16.27 -2.34,17.42 -3.23,1.83 -2.74,26.45 0.04,2.29 1.04,4.16 -1.29,8.29 -2.16,-1.08 -6.71,0.63 -7.91,-15.13 3.18,7.76 0.18,3.65 6.02,6.95 -0.22,-12.23 -2.13,-10.31 -5.77,-18.52 -3.24,-7.31 -3.31,-15.87 -3.25,-24.31zm144.28 -54.59c-0.07,0.3 -27.82,45.09 -32.23,53.26 -1.05,-6.56 1.45,-16.38 1.89,-24.12 0.68,-12.12 -1.22,-17.91 -2.27,-28.72 -8.56,2.55 -3.09,-2.6 -9.92,6.95 -1.63,2.27 -13.61,22.99 -13.22,27.64 -2.38,-5.73 -0.4,-17.86 -8.33,-44.37l-9.09 -0.75c-3.94,9.4 -10.03,33.88 -10.43,43.62 0.67,-0.4 1.34,-0.97 1.87,-1.38l8.56 -6.58c-1.21,-9.68 0.96,-25.26 3.5,-33.62 2.64,2.06 0.94,-1.02 3.18,4.3 1.22,2.89 0.9,3.35 1.32,6.17 0.62,4.23 1.13,8.5 1.85,12.88 4.6,27.79 -5.64,46.25 -7.38,68.89 -11.29,-21.18 -8.09,-20.67 -8.93,-35.87 -0.24,-4.37 0.29,-2.68 -1.4,-6.9 -2.05,-5.16 -0.42,-2 -3.41,-5.36l-0.4 17.6c-0.38,-5.87 0.07,-1.86 -3.67,-8.85 -6.54,-12.21 -6.14,-17.36 -17.04,-20.79l5.53 11.76c4.67,5.84 3.79,1.8 7.63,10.26 4.45,9.82 20.14,48.4 19.04,56.4l-2.74 7.75c-2.22,6.47 0.27,3.76 -2.92,8.78 -2.88,-7.85 -10.95,-30.04 -13.85,-35.18l1.67 -1.13c0.14,-0.08 0.72,-0.35 0.86,-0.42l-14.3 -37.56c-2.39,-3.49 -0.93,-1.62 -3.96,-3.97 -1.08,18.36 5.43,6.92 4.63,18.13 -0.05,0.01 -0.63,2.03 -7.34,-1.17l-2.38 -1.55c-4.03,-3.27 -4.6,-8.04 -6.48,-13.19 -3.14,-8.63 -4.53,-22.77 -7.24,-27.75 -2.23,14.77 -0.13,31.67 2.38,45.75 2.24,12.56 2.46,7.23 7.63,16.08l2.79 9.39c0.42,3.17 0.63,7.4 0.83,11.07 -2.1,-6.12 -6.26,-10.76 -9.96,-17.78 -8.19,-15.5 -10.35,-18.86 -20.03,-29.41 -5.26,-5.73 -2.1,-6.24 -5.65,-14.12 -5.62,-12.46 -0.64,-5.38 -9.82,-8.59 1.41,9.66 1.43,12.7 6.91,19.29 12.56,15.1 3.18,34.91 9.52,51.74 4.04,10.75 6.07,9.48 8.3,22.53 0.08,0.15 2.51,10.64 3.32,13.24 2.33,7.55 4.82,9.87 7.06,15.77 2.57,-3.51 5.78,5.53 1.2,-8.99 -1.3,-4.11 -8.61,-12.94 -9.73,-30.91 0.34,0.5 0.59,0.75 0.79,1.64 0.2,0.89 0.58,1.22 0.87,1.6l9.56 7.65c-1.81,-11.18 -10.02,-28.52 -5.97,-37.35 5.52,3.57 4.76,8.97 7.08,15.83 3.25,9.61 6.81,11.8 9.59,16.17 3.64,5.72 9.55,27.21 17.74,34.94 -2.93,-16.04 -11.86,-30.53 -13.35,-44.44 -1.78,-16.46 5.4,-5.29 -1.41,-20.23 -4.22,-9.27 -6.51,-17.78 -0.36,-25.58 8.99,12.4 6.06,6.33 13.76,25.61 3.81,9.54 6.91,21.36 8.08,33.07 7.23,4.58 -2.59,-3.41 6.03,2.08 0.23,9.98 0.44,15.58 6.43,21.66 -0.03,-9.07 -2.31,-22.83 0.08,-31.45 1.38,-4.94 -0.13,-1.57 2.06,-5.04 0.4,0.36 0.9,0.46 1.05,1.21l3.35 5.4c1.27,2.66 1.7,4.89 3.05,7.56 -0.71,-20.77 -9.17,-29.94 4.3,-66.09l3.13 9.52c2.97,-16.37 -2.71,-17.93 10.3,-43.12 2.89,-5.58 5.94,-7.37 9.32,-11.05 -1.27,20.52 -4.95,16.54 2.35,21.71 -4.1,15.53 -1.58,22.2 -8.02,43.25 -4.29,14.03 -2.41,10.21 1.02,12.24l1.08 1.2c5.81,-6.71 3.5,-17.26 6.38,-24.97l35.63 -60.6c8,15.98 -8.07,33.88 -9.65,36.66 -1.76,3.07 -3.26,7.1 -5.14,10.61 -10.82,20.29 -16.25,21.76 -13.56,50.55 4.95,-24.01 2.3,-29.61 15.13,-48.93l14.58 -19.48c1.93,-2.21 2.27,-2.18 3.89,-4.09l9.13 -14.84 1.94 10.44c2.32,-4.32 3.96,-7.63 6.59,-11.91 16.64,-27.09 12.25,-12.58 23.58,-26.31 -13.9,1.46 -21.38,15.65 -30.1,23.87l-9.89 9.17 -0.69 -20.3 -7.08 1.92zm-178.29 493.33c5.92,6.53 7.81,5.17 14.78,6.93 5.11,1.29 10.02,3.99 17.14,2.18 11.26,-2.85 23.96,-11.33 25.34,-21.93 -4.33,0.88 -5.86,1.93 -8.39,2.94l-2.38 0.98c-8.79,3.38 -8.63,6.49 -14.42,7.49 -1.76,0.3 -17.51,1.15 -17.78,1.15 -7.69,0.17 1.07,0.35 -5.49,-1.75l-11.64 -1.87 2.84 3.88zm-28.7 -453.83c-1.02,-11.64 0.81,-12.09 3.26,-15.58 1.04,3.51 17.1,42.18 20.01,45.68 6.42,7.73 20.08,33.67 18.26,43.7 -5.72,-12.46 -3.47,-10.29 -13.7,-20.05 -8.72,-8.32 -6.5,-7.61 -11.22,-20.16 -6.35,-16.88 -8.87,-9.16 -13.72,-20.7 -1.1,-2.63 -2.59,-9.49 -2.89,-12.89zm247.25 400.18l-6.36 9.16 -11.28 -5.95 6.81 -6.93c3.83,1.06 10.49,3.71 10.83,3.72zm-9.23 15.92l-3.06 11.6c-9.57,2.91 -6.4,3.76 -16.89,-0.71 2.4,-10.96 1.75,-17.59 12.79,-17.74 0.2,0.44 0.35,0.72 0.37,1.41l0.56 7.42c-2.39,0.6 -10.05,-7.36 -4.08,6.52 14.04,-3 4.33,-6.72 10.31,-8.5zm-3.06 11.6c5.38,-1.35 0.96,1.43 5.04,-2.67 3.35,-3.36 2.66,-3.64 4.32,-6.52l3.89 3.4c-12.01,15.83 -4.26,14.83 -25.08,13.27 0.6,-0.49 1.46,-2.05 1.95,-1.44l5.88 -2.36c6.49,-2.96 2.67,6.66 4,-3.68zm11.56 -16.02c5.69,-3.91 1.85,-0.53 6.24,-6.11l5.97 1.45c-0.53,5.03 -0.44,11.02 -4.35,12.03 -6.27,1.6 -8.67,-1.67 -7.86,-7.37zm18.17 -1.91l6.49 -0.39c-1.56,11.49 -2.57,2.48 -2.5,12.69 -1.49,0.51 -10.32,7.61 -7.43,-5.36 0.6,-2.69 2.17,-4.79 3.44,-6.94zm-250.33 -150.49c-6.51,6.47 -4.21,13.09 -3.59,22.67 -6.27,-6.72 -6.25,-11.47 -7.65,-21.18 -3.82,6.92 -8.9,11.42 -6.5,23.54l5.62 -12.34c1.96,7.15 1.56,9.47 7.41,12.97 -3.54,7.1 -7.12,10.28 -5.46,19.23 1.4,7.5 0.06,1.55 1.76,4.14 8.91,-15.73 -3.1,-4.08 11.57,-17.65 0.16,-4.5 0.31,-11.27 1.61,-15.53 3.53,-11.59 1.66,6.48 4.13,-4.04 0.09,-0.41 0.72,-0.14 0.14,-0.53l5.29 -19.72c-4.57,-5.44 5.72,-3.59 -5.77,-4.73 -1.5,10.92 -3.57,18.2 -8.54,27.2 0.87,-5.52 4.76,-14.9 -0.02,-14.03zm-113.91 -176.28c-5.52,3.36 -5.3,-4.15 -2.29,6.51 2.89,10.25 18.79,14 18.79,14.01 -0.3,20 -2.71,35.88 9.09,54.05l4.68 6.41c3.28,-11.6 -17.41,-23.5 -11.57,-51.16l12.14 15.43c-3.5,-12.58 -12.69,-18.96 -8.16,-32.73 5.52,5.65 6.94,8.6 12.24,14.85 11.34,13.36 21.64,40.19 28.41,55.03 12.35,27.09 16.25,12.53 25.71,26.34 6.58,9.6 6.14,26.7 24.09,32.72 -14.89,-7.7 -9.61,-13.12 -14.83,-21.95 -1.24,-2.08 -2.63,-3.48 -3.93,-6.25 -1.91,-4.04 -3.03,-9.45 -4.01,-13.99 -2.89,17.02 -21.91,-22.54 -24.45,-28.97 -7.49,-7.67 -14.98,-33.25 -35.33,-52.56 -18.42,-17.46 -9.79,3.35 -14.16,-8.6 -0.04,-0.12 -2.74,-2.35 -6.42,-18.33 -0.66,-2.88 -1.61,-6.65 -1.22,-10.03 0.6,-5.29 0.31,-3.58 2.9,-6.96l-6.18 -0.43c-0.32,15.93 2.44,24.2 6.01,38.96 -5.47,-7.61 -7.2,-7.09 -11.51,-12.35zm362.33 303.31l1.79 -3.74c0.5,-0.31 1.23,-0.7 1.8,-1.06 5.21,-3.22 -0.25,3.19 4.93,-3.24l-14.61 -3.24c4.87,4.23 2.37,10.86 6.09,11.28zm-25.94 -176.88c-0.35,0.56 -1.33,2.11 -1.19,2.52l3.16 5.02c24.19,-13.38 48.36,-6.11 57.97,12.02 -4.91,-2.73 -6.36,-4.88 -11.72,-7.55 7.39,6.36 9.54,7.94 13.89,20.19 -8.38,-2.96 -16.05,-7.75 -27.73,-5.23 19.51,-0.63 29.24,3.99 30.44,22.99l3.61 -3.41c0.29,-0.34 0.7,-0.85 1.01,-1.22l9.82 -14.04 6.55 0.12 -1.41 -3.63c-1.8,0.83 -6.79,2.8 -8.66,3.78 -5.64,2.95 -3.92,1.05 -5.41,5.89 -5.29,-6.57 -4.04,-12.04 -4.83,-18.62 -0.2,-1.67 -1.74,-9.83 -4.48,-12.14l0.67 -2.4c-11.35,-4.03 -14.46,-8.52 -29.79,-8.75 -12.02,-0.17 -21.24,3.82 -31.9,4.46z"/>
   <g>
    <path class="fil0" d="M720 585.63c4.78,12.79 0.16,16.8 0,30.42l-8.78 -9.46 -0.16 -24.37c2.86,3.12 2.96,0.89 3.22,8.26 0.3,8.67 -3.3,8.98 1.73,15.03 6.41,-12.7 2.55,-11.57 -0.56,-22.81l4.49 -0.59 0.06 3.52zm-343 113.51c3.01,3.13 -2.5,3.27 7.08,6.82 -2.33,-5.86 -0.59,-3.87 -7.08,-6.82zm480.46 86.89l-2.4 -0.58c-0.4,-0.42 -1.08,-1.55 -1.3,-1.16 -1.19,2.06 -9.23,-10.37 -10.38,-12.32 -5.92,-10.02 -2.59,-2.6 -13.3,-10.25 5.54,-6.75 8.98,-16.2 13.31,-23.25l8.42 2.92 -6.38 23.06 13.73 3.14c10.36,-11.59 4.7,-13.14 10.1,-24.06 13.36,-0.31 19.92,2.05 27.24,-4.38l-28.51 0.23 1.17 -4.41 3.74 3.51c5.27,-1.95 2.55,0.16 4.1,-4.8 7.15,2.27 2.29,0.3 8.19,4.52l12.81 -0.86c-2.64,-6.54 -3.66,-6.85 -7.33,-10.43 3.6,-4.42 0.09,-0.89 4.31,-2.38l4.99 1.04c-2.55,13.15 -1.06,9.48 3.93,13.15l-0.09 -16.63c9.38,-4.66 16.36,-13.77 29.11,-14.78 12.92,-1.03 23.61,7.87 26.73,16.75l-7.16 7.59c-2.69,3.06 -0.54,-0.07 -2.8,4.13 -4.93,5.48 -9.51,6.89 -13.7,14.21 -10.18,2.8 -4.8,4.58 -28.42,10.06 -9,2.09 -7.45,3.04 -9.16,5.55 -6.2,3.82 -7.01,5.71 -11.03,11.69l-2.44 2.04c-0.31,0.27 -0.82,0.7 -1.16,1l-7.82 6.45c-6.79,3.46 -11.12,1.77 -18.5,-0.75zm-6.48 0.34c1.98,5.32 0.88,3.8 4.18,6.63 9.6,17.36 19.43,12.03 28.77,9.57l13.85 -6.11c5.59,-6.86 -3.74,-3.26 10.51,-7.16l3.34 -14.35c9.33,0.14 16.54,0.28 24.33,-4.26 11.18,-6.52 12.77,-1.37 16.9,-10.74l8.06 -0.68 -0.95 -8.63c6.48,0.4 6.83,-0.84 10.1,-5.67 9.36,-13.83 1.33,-22.12 -9.85,-28.45 -5.69,-3.21 -10.89,-9.25 -18.37,-11.34 -20.9,-5.83 -30.06,14.9 -42.28,13.96 -13.05,1.8 -17.74,0.14 -31.35,0.91 -8.55,0.14 -11.83,-1.12 -19,-1.7 -8.74,-0.71 -0.79,2.57 -12.5,-3.73l-27.55 -10.65c-1.71,-3.36 5.62,-1 -12.83,-6.44 -29.78,-8.78 -21.46,-1.19 -47.83,-22.09l-30.52 -21.82c-4.92,3.51 -7.39,0.31 1.75,8.79 14.04,13.03 49.02,31.49 67.47,39.75 3.78,14.58 -9.51,37.48 -15.21,42.22 -7.66,0.57 -14.24,-2.58 -24.15,-2.01 -2.22,2.85 -3.03,-1.29 -0.09,4.26 12.11,-2.16 34.51,6.88 45.76,9.68 28.72,7.16 1.45,5.15 40.36,9.3l15.96 19.8c0.16,-0.33 0.72,0.7 1.14,0.96zm-178.77 -32.03l0.03 -1.33 1.54 -3.22 -1.28 -8.91 0.12 -0.55c-0.6,-4.91 -1.02,-10.9 -2.78,-15.48 -1.08,-2.82 -2.5,-5.18 -3.53,-6.72 -3.27,-4.91 -1.48,-2.27 -4.2,-4.83l-1.3 -0.74 -5.97 2.64 -1.92 4.81 -2.17 2.49c-0.3,0.3 -1.89,1.58 -2.23,2.01 -2.71,3.5 -1.63,-0.18 -2.02,5.12l9.78 0.94 -0.31 -1.56c4.45,-3.23 1.35,1.54 6.3,-8.91l4.01 7.62c1.3,5.32 1.21,4.06 0.08,9.26 -1.08,5.66 0.27,1.8 -2.73,6.8l-1.22 1.23 -1.36 10.38 11.14 -1.05 0.02 0zm-6.39 -4.08l-0.29 -4.52 3.87 -3.46 2.67 8.8 -6.25 -0.82zm-314.86 -172.03l0.21 4.3c6.46,-1.27 4.43,-0.56 8.31,-3.64l0.46 -8.66 -5.79 0.53c2.36,7.36 1.94,0.54 0.62,8.23l-5.32 -3.97c-4.96,-3.31 -3.02,-2.67 -10.75,-3.33 4.36,-9.01 7.44,-8.4 3.05,-18.37 -2.7,-6.14 -3.8,-8.29 -10.21,-10.45 -0.47,-0.8 -3.19,-4.85 -4.01,-5.7 -0.38,-0.4 -2.13,-0.82 -2.36,-1.68 -0.17,-0.61 -0.83,-0.46 -1.26,-0.64 8.26,-2.15 3.52,1.46 7.75,-3.91 -3.66,-2.66 -13.91,-8.79 -19.59,-9.23 -15.5,-1.21 11.57,-0.77 -3.9,0.24l-4.16 1.03c-1.29,7.62 0.68,9.84 7.42,11.81l8.49 1.42 -9.22 9.58 -5.1 -10.84 -0.69 -4.85c-5.17,2.27 -3.44,1.21 -6.85,1.84 -5.32,5.31 1.26,13.2 3.44,20.56l-19.4 9.95c-5.09,-4.52 -7.03,-6.05 -7.34,-14.52 -25.38,7.33 3.15,-13.13 -16.4,-1.77l-4.07 2.82c-1.24,0.76 -1.76,0.73 -3.94,1.99l13.84 0.31c5.07,12.6 7.78,9.79 9.9,17.49 -13.29,9.7 -14.09,3.3 -21,7.05 -7.23,-12.77 -5.3,-13.24 -3.52,-27.64l-13.24 2.66c0.29,-0.79 0.72,-1.49 1.08,-2.26 10.8,-23.06 2.71,-14.9 -0.06,-17.63l-3.03 28.95 5.33 -4.28c0.24,12.81 2.06,12.79 3.4,21.96l-13.26 3.37 0.61 -8.43 0.47 24.81c1.21,-7.71 11.47,-10.49 18.43,-10.42l-1.02 0.93 3.57 24.63c2.95,-1.43 2.75,-1.78 6.37,-1.77 3.15,3.74 1.37,0.01 3.49,6.09 0.98,2.8 0.2,1.42 -0.02,5.58l3.33 -1.85 0.34 4.32c0.11,4.34 -0.47,2.71 0.58,5.27 5.55,13.59 22.78,-3.61 22.79,-3.62 -0.37,-13.52 -0.1,-5.26 -3.21,-11.29 -1.28,-2.5 -0.69,-0.58 0.2,-3.3l5.01 -5.82 2.71 6.12c2.93,-6.53 -3.06,-1.18 3.19,-12.42 10.82,1.2 4.17,-5.75 8.69,5.41 -4.34,-12.55 2.6,-8.86 3.45,-9.66 0.46,8.48 2.96,12.24 4.97,17.91 -13.81,-3.9 -6.2,-0.05 -8.78,2.83 14.86,8.12 11.64,-9.87 13.82,-14.58 3.5,2.59 2.39,2.73 7.11,6.36 4.46,-0.73 5.9,-0.63 10.2,-2.45 13.81,-5.83 6.63,-13.3 7.18,-18.69 0.66,-6.43 4.11,-7.22 7.69,-8.68zm328.5 191.73l-1.27 12.07 7.54 -0.69 0.1 -0.01 -0.14 -0.59 -0.02 -0.08 -0.1 -0.46 -0.03 -0.16 -0.08 -0.34 -0.05 -0.22 -0.05 -0.24 -0.06 -0.26 -0.03 -0.16 -0.07 -0.29 -0.01 -0.08 -0.07 -0.32 -0.01 -0.02 -0.06 -0.31 0 -0.02 -0.05 -0.24 -0.01 -0.06 -0.03 -0.18 -0.01 -0.07 -0.03 -0.13 -0.01 -0.09 -0.01 -0.07 -0.01 -0.1 -0.01 -0.04 -0.01 -0.09 0 -0.02 0 -0.07 0 -0.06 0.01 -0.02 0.01 0 0.02 0.02 0.02 0.02 0.01 0.02 0.02 0.05 0.01 0.02 0.03 0.07 0 0.01 0.04 0.11 0.01 0 0.04 0.12 0.01 0.02 0.03 0.11 0.02 0.05 0.03 0.1 0.03 0.08 0.03 0.09 0.03 0.11 0.02 0.06 0.05 0.15 0.01 0.04 0.06 0.19 0 0.01 0.06 0.2 0.01 0.02 0.05 0.19 0.02 0.06 0.04 0.16 0.03 0.09 0.03 0.13 0.04 0.13 0.02 0.1 0.05 0.16 0.01 0.07 0.06 0.2 0 0.03 0.06 0.23 0.01 0 0.05 0.22 0.01 0.04 0.05 0.19 0.02 0.07 0.03 0.15 0.03 0.11 0.02 0.11 0.03 0.13 0.02 0.08 0.03 0.14c4.26,-3.88 2.56,-1.9 3.9,-7.52 2.42,3.15 0.84,2.28 2.43,3.74 4.5,4.15 -0.94,1.18 6.42,3.7l-1.57 8.85c-3.38,4.24 -3.84,-5.98 -2.88,5.2l-3.95 0.15c-2.57,-5.24 -4.94,-6.25 -4.72,-13.57l-0.09 -0.21 -0.03 -0.07 -0.04 -0.08 -0.03 -0.07 0 -0.01 -0.03 -0.08 -0.04 -0.09 -0.04 -0.08 -0.03 -0.09 -0.01 -0.01 -0.03 -0.09 -0.04 -0.09 -0.04 -0.1 -0.04 -0.1 -0.01 -0.03 -0.03 -0.08 -0.05 -0.11 -0.04 -0.11 -0.05 -0.11 -0.02 -0.05 -0.02 -0.07 -0.05 -0.12 -0.05 -0.12 -0.05 -0.13 -0.02 -0.07 -0.03 -0.06 -0.05 -0.13 -0.05 -0.14 -0.05 -0.14 -0.04 -0.09 -0.02 -0.05 -0.05 -0.14 -0.06 -0.15 -0.06 -0.16 -0.05 -0.13 0 -0.02 -0.06 -0.16 -0.06 -0.16 -0.07 -0.17 -0.06 -0.17c-3.45,-9.36 2,-6.16 -2.72,-13.7l-2.05 6.15zm-13.15 -213.15l6.62 10.85 3.68 3.12c0.29,0.57 0.71,0.77 0.87,1.69 1.18,6.82 14.07,19.29 14.51,19.81l6.94 -1.56 -2.65 18.87c1.89,4.12 -2.94,2.42 3.8,3.51 6.38,-3.87 3.27,-3.01 7.42,-9.06 1.65,11.18 1.73,11.16 13.45,13.03l-0.83 -0.89 7.35 -6.84c4.09,-2.92 8.08,1.96 9.26,-18.59l-1.52 -12.7c-1.08,-3.14 -1.85,-4.12 -2.55,-5.29l-3.62 -4.13c-3.79,-2.61 -3.14,-2.72 -6.58,-6.28 -4,-4.15 -4.18,-3.93 -8.7,-7.28 -8.07,-6 -7.24,-9.86 -16.8,-13.72 -1.11,-4.36 0.75,0.12 -2.26,-5.04 -2.43,-4.19 -0.24,0.66 -2.59,-3.75 -7.67,1.15 -3.04,-0.6 -7.79,4.63 -0.15,0.15 -2.15,3.64 -3.09,4.87 -2.78,3.66 -4.55,5.11 -10.07,7.5l-4.97 1.84 0.12 5.41zm-270.56 40.31c0.93,6.8 -2,2.66 2.12,5.91 1.78,-2.42 -3.43,-2.27 4.85,-1.69l0.79 -14.78 -5.23 -1.14c0.38,7.01 0.89,7.1 -2.53,11.7zm492.25 187.07c6.46,-4.59 6.79,-10.13 13.01,-12.97 11.78,-4.91 -0.7,-2.31 19.64,-7.64 3.12,-0.82 5.4,-1.76 8.56,-3.29l7.57 -4.94c0.27,-0.24 0.75,-0.77 1.11,-1.16 8.55,-6.7 12.36,-6.39 16.19,-16.42 6.44,-4.1 3.08,-3.06 8.71,-9.72 0.24,-0.28 0.8,-0.82 1,-1.04 0.2,-0.23 0.69,-0.7 1.01,-1.06 3.14,3.8 1.1,2.43 6.56,5.16 -0.35,0.5 -0.94,0.59 -1.1,1.47 -0.16,0.85 -0.82,1.1 -1.02,1.46 -3.47,6.33 -1.55,2.8 -2.69,9.93 -7.31,4.17 -0.4,1.58 -9.57,2.3 -2.82,7.37 -3.99,7.17 -4.12,13.68 -6.28,1.91 -3.3,2.3 -10.22,4.11 -4.41,1.15 -2.35,-1.45 -8.23,3.3 -10.59,8.55 -8.54,1.35 -19.51,2.91 -9.49,1.35 -7.37,8.84 -11.62,13.74 -3.59,4.14 -3.51,1.09 -6.9,4.87l-4.12 8.16 -17.29 3.6c-7.2,0.33 -9.57,-2.9 -13.26,-5.35l22.49 -6.39c4.38,-2.95 1.7,-0.25 3.8,-4.71zm-638.99 -157.2l-4.26 0.04c-1.6,-9.85 0.09,-2.43 -3.01,-5.33l-0.83 8.78c2.42,2.38 4.58,4.46 6.58,6.31l-0.09 1.13 0.28 -6.87c-1.63,-1.73 -0.65,-0.45 -1.98,-1.81 7.22,1.8 10.93,4.3 13.08,-5.21 -0.16,-5.1 1.37,-4.84 -2.92,-3.1l-0.22 5.9 -6.63 0.16zm445.11 -41.02c-2.08,4.05 2.81,4.77 -3.61,2.61 -2.58,-7.22 -2.9,-8.6 -5.97,-15.04l-0.16 -0.24c6.13,1.26 3.35,-0.01 6.9,4.69l2.84 7.98zm-364.26 10.68l-8.65 -7.19c2.44,-6.03 1.2,-3.44 6.67,-6.99 1.11,1.23 0.89,0.52 2.73,3.7 1.19,2.06 0.63,1.89 1.42,3.8l3.79 -7.27c4.44,11.56 11.17,15.06 -4.49,18.9l-1.47 -4.95zm347.39 254.96c-0.47,0.4 -0.95,0.69 -1.12,1.47 -0.18,0.84 -1.87,2.08 -2.46,2.38l5.14 2.39 7.45 -0.16 20.23 -5.99c-13.88,-3.38 -14.52,-2.76 -29.24,-0.09zm-20.21 -45.05l9.27 -1.37c0.9,-8.63 0.87,-7.97 7.28,-13.05l-0.29 -3.93c-8.97,5.82 -7.39,13.94 -21.59,16.7 4,22.08 21.14,15.75 28.54,9.89 7.47,-0.33 7.33,-0.76 12.41,-6.22 5.03,13.67 26.5,20.73 37.27,19 1.58,-6.51 0.41,-1.78 0.1,-6.82 7.21,-5.04 2.92,-4.49 10.04,-5.36 6.38,-0.79 27.13,2.81 34.63,7.18 9.92,5.8 17.86,20.44 12.66,36.52 -6.69,4.28 -28.51,4.71 -41.59,4.38 -20.02,-0.51 -25.05,-8.14 -39.28,-11.78l-49.45 -45.14zm29.22 51.13c24.3,-2.11 31.81,9.7 53.2,12.41 13.89,1.77 47.82,-1.92 50.38,-6.69 0.21,2 1,10.44 0.23,12.4 -1.8,4.64 -1.7,0.96 -8.43,1.77l-0.46 5.88c-12.75,-0.54 -6.14,-0.76 -15.42,-4.3 -6.53,2.86 -6.18,5.23 -15.89,5.8 -5.23,0.31 -13.86,-0.59 -14.94,-4.92 -0.16,-0.64 -0.63,-0.76 -1.01,-1.06 -20.82,2.35 -15.35,-5.28 -29.86,-14.31 -11.1,0.85 -9.62,5.62 -19.27,5.27 -7.39,-0.26 -1.22,-2.84 -10.92,0.66 -4.88,1.75 3.62,2.85 -9.61,2.44 -8.91,-3.56 0.02,-1.28 -7.5,-5.8 -8.88,-5.34 -13.48,-0.5 -15.59,-20.49 8.51,7.65 24.06,15.35 37.64,11.1l7.45 -0.16zm-9.01 -6.08c-27.12,1.17 -26.57,-2.51 -36,-22.87 1.21,-8.62 -1.97,-6.98 -2.94,-8.28 -1.39,13.4 -6.07,33.79 1.92,42.99 3.21,3.68 2.95,3.06 7.46,4.79 6.51,2.5 27.38,14.18 29.61,4.71 0.12,-0.53 0.57,-0.61 0.89,-0.88 4.2,5.57 0.25,1.56 5.97,5.27 15.3,-3.84 9,-2.9 17.91,-9 5.59,2.21 12.29,11.5 21.06,13.95 10.65,2.97 3.23,-2.91 11.65,2.23 6.21,3.79 -2.83,-0.45 3.56,2.47 3.01,1.38 21.97,6.85 27.42,-3.94 2.68,2.83 2.8,4.4 7.92,4.36 5.4,-0.03 7.49,-3.94 7.5,-3.95 1.37,-0.11 17.48,5.35 13.7,-22 -6.29,-45.48 -18.85,-44.14 -48.82,-47.98 -7.69,-0.99 -7.33,-2.49 -11.82,-7.39 -4.57,-0.96 -7.23,-1.93 -9.71,-5 -7.44,-9.2 -15.38,-14.34 -25.59,-20.17 -1.65,-5.48 -2.43,-9.38 -6.82,-12.97 -4.88,-4 -3.27,0.77 -6.82,-7.01 -4.58,-10.02 -1.93,-17.15 -12.8,-20.06l4.75 110.73zm-3.47 -101.82c3.78,2.2 2.5,-1.09 5.71,6.55 1.07,2.55 1.41,4.83 2.02,7.47l-7.73 -14.02zm5.68 20.17c-3.85,2.85 -2.93,2.43 -7.71,3.78l-4.64 -9.42 5.1 -9.98 -11.16 1.05 18.41 14.57zm-17.05 -24.95c-5.41,2.74 -4.41,1.56 -8.11,5.86 -2.02,-8.2 1.45,1.52 -0.48,-8.16 -1.18,-5.94 -4.85,-6.66 2.46,-12.14l6.13 14.44zm-9.49 -25c-5.57,-0.06 -2.32,1.61 -5.37,-1.26 -1.08,-6.12 1.28,-6.2 6.11,-12.82 1.38,5.63 1.77,3.74 1.18,9.27l-1.92 4.81zm7.89 -7.45c-0.11,-0.75 -1.09,-5.72 -1.21,-6.82 -0.05,-0.43 -0.05,-1.19 -0.08,-1.54l0.08 -2.97c0.88,0.53 -0.93,-1.48 2.68,2.82 1.05,1.25 1.37,1.9 2.53,3.21 8.82,9.99 20.34,23.48 31.36,29.15 5.59,2.87 12.68,4.66 15.86,6.67 9.6,-2.38 2.66,3.38 7.95,-4.32 -19.05,-2.72 -41.32,-19.26 -50.39,-33.79 -5.92,-9.49 -5.68,-7.08 -1.61,-16.51 -3.94,3.52 -6.33,8.01 -11.69,11.04 -7.62,-2.6 -8.11,-4.98 -12.23,-7.2 -0.04,-4.66 -15.76,-37.53 -17.92,-55.84l16.8 -6.36 -9.8 -0.84c-2.9,0.44 -5.66,1.41 -9.15,1.76 -26.33,-49.54 -10.51,-62.4 -26.1,-82.49l24.72 2.39c11.7,-2.2 3.34,0.03 7.8,-3.67l-40.97 -0.67c4.63,6.24 8.82,6.49 10.87,14.43 1.64,6.31 0.54,14.24 2.97,23.11l40.78 108.18c-0.82,12.58 3.74,10.78 4.91,16.15 -1.07,7.27 -24.73,21.92 -46.42,22.9 -32.97,-51.19 -50.58,-28.59 -54.85,-109.94l-9.17 46.91c2.9,4.49 -1.76,8.22 4.98,-1.27 1.02,-1.42 2.38,-5.02 3.3,-6.75 -1.38,2.34 -0.77,3.48 2.08,9.11 7.68,15.22 9.24,15.73 19.71,28.85 15.55,19.51 22.87,21.08 24.68,37.44 -4.36,3.89 -6.68,4.87 -11.28,9.66 -19.42,20.19 -39.5,29.77 -63.19,45.92 -11.95,8.14 -14.71,8.71 -29.92,13.44 9.62,-13.21 18.38,-31.27 25.35,-47.97 4.05,-9.7 6.82,-17.85 10.07,-27.88 2.2,-6.78 7.15,-17.18 5.26,-24.62l-1.7 -3.21c-0.72,14.73 -41.09,108.35 -57.95,125.28 -24.79,24.88 -67.97,18.28 -99.05,12.07 -10.71,-2.14 -32.95,-12.87 -35.37,-24.66 -4.27,-20.79 2.86,-37.52 9.85,-52.04 8.88,-18.46 13.31,-19.83 34.92,-25.98 -3.33,9.48 -5.8,8.08 -8.2,15.71 9.67,-7.69 4.33,2.37 10.69,-6.29l8.52 -11.13c-6.62,-9.03 1.06,-0.95 -7.11,-4.94l-11.78 -4.13 8.24 7.24c-31.88,3.18 -48.2,45.88 -47.35,79.49 -1.7,0.65 -5,0.58 -7.98,3.97 5.21,3.62 3.32,2.94 6.28,6.15 3.5,3.79 -0.4,0.25 4.14,4.04 1.01,0.85 2.17,1.67 3.46,2.6 6.23,4.49 9.59,5.96 17.34,8.29 39.92,12.04 45.74,16.73 88.2,5.92 18.06,-4.59 21.27,-10.49 30.55,-20.91 13.33,-14.97 48.16,-27.51 65.78,-37.45l57.75 -46.02c3.97,5.73 7.12,13.22 11.35,19.9 3.18,5.05 4.69,5.05 7.37,8.6 6.77,8.98 -1.91,9.06 17.24,26.97 9.25,8.66 1.22,12.78 6.79,23.33 4.58,-13.21 -0.31,-13.07 -1.54,-24.78 19.29,-1.88 17.42,0.67 32.21,-7.79l1.08 3.73 -12.49 -75.65zm6.02 92.82c2.08,4.14 3.01,4.68 4.35,8.27 -7.3,3.92 -1.43,2.18 -9.84,4.24 -3.43,-5.81 -3.48,-4.08 -4.3,-11.33l9.79 -1.18zm8.58 3.24l-3.04 -7.66 8.45 -5.77c0.05,0.06 5.27,7.48 5.34,7.62 -2.39,5.53 -3.06,5.17 -10.75,5.81zm-395.55 -198.77c-0.92,4.26 -1.7,6.04 -1.08,10.6l2.28 8.1c0.03,0.17 0.02,0.7 -0.02,1.05l-8.87 1.87c-2.31,-2.97 -1.41,0.52 -0.61,-3.32l3 -3.95 0.02 -12.05 5.28 -2.3zm114.33 0.24c0.14,0.08 7.96,-5.53 4.4,8.22 -1.17,4.55 -2.91,3.69 -7.02,4.8 -4.66,-7.28 -3.46,-5.29 0.21,-10.75 -6.84,5.12 0.63,3.16 -6.31,3.63 -13.47,0.91 -3.81,1.7 -6.73,-3.7 -5.5,5.29 -4.25,6.9 -9.64,10.97 -2.39,11.15 -5.51,26.07 -2.45,37.38 0.36,1.36 1.11,3.75 1.62,4.76 2.94,5.79 1.71,2.9 4.1,5.18l-1.06 1.36c2.48,8.57 7.25,15.47 12.19,20.41 5.54,5.55 10.84,6.83 19.03,11.58l-0.2 6.45 12.68 -20.61c1.81,-6.53 27.81,-41.73 32.62,-45.36l15.47 -18.23c12.06,-13.64 27.15,-36.13 41.69,-52.28 -7.91,3.85 -21.38,22.53 -29.88,30.48l-14.71 17.15c-4.3,5.54 -11.1,11.17 -13.58,18.08 -12.94,0.43 -20.64,2.18 -33.75,-0.52 -2.6,3.85 -4.64,7.69 -8.66,10.53 -0.68,4.91 3.62,2.36 -2.38,4.77l-6.05 1.36c-0.3,-0.5 -0.99,-0.47 -1.51,-0.64 -2.66,-6.95 -2.37,-10.07 0.32,-18.17l1.1 -4.21 4.58 -2.09c-0.19,-3.27 -0.88,-6.36 -0.46,-9.84 0.79,-6.48 2.1,-5.56 3.06,-6.9 -2.02,-4.21 -2.91,-4.37 -3.96,-9.36l-4.72 5.55zm-21.3 14.79c1.73,-1.16 2.4,-2.05 4,-3.2 2.83,-2.02 0.64,-1.26 4.17,-2.34 2.98,5.32 5.6,9.53 4.07,17.57 -4.35,5.18 -5.81,4.23 -14.42,4.91l2.18 -16.94zm-1.02 41.93l-0.62 -20.22 15.44 -2.61 3.55 17.2 -18.37 5.63zm509.87 56.43c3.37,3.21 3.95,0.74 1.46,6.43 -4.65,-2.87 -6.96,-0.22 -1.46,-6.43zm-8.27 7.47c-9.92,-2.83 -5.33,-0.84 -5.97,-6.63 7.47,1.41 4.55,-0.61 5.97,6.63zm-10.95 -6.65l1.62 6.9c1.45,10.49 -2.11,23.58 -4.69,33.74l-8.78 -1.91c-1.28,-5.09 2.32,-8.24 2.99,-16.75 0.51,-6.54 -0.63,-16.75 -1.9,-23.51l10.76 1.53zm-196.26 81.62l0.57 -0.3 -0.57 0.3zm49.75 -7.47c1.18,1.48 3.11,-2.66 1.81,3.5 -1.09,5.11 -0.07,1.8 -3.8,4.56 -0.45,-0.83 -3.15,2.89 -1.66,-4.36 1.09,-5.31 -0.73,-1.87 3.65,-3.7zm-13.28 0.39c-4.96,-11.95 0.17,-8.28 1.33,-9.74 6.08,4.98 4.38,6.54 -1.33,9.74zm19.16 15.58l-0.29 -6.57c7.71,1.09 4.52,-0.82 8.35,3.39l2.03 5.1 -2.63 1.15c-6.96,-0.92 -0.4,1.66 -7.46,-3.07zm-21.89 -233.39l6.73 1.91c0.6,7.26 0.67,9.96 -1.54,17.09 -0.18,0.58 -2.65,7.04 -2.73,7.17 -2.41,3.73 2.63,4.64 -4.43,2.8 -0.15,-13.92 5.01,-12.38 1.97,-28.97zm-318.89 100.86c11.98,3.76 8.88,8.87 28.64,7.65l-3.55 11.85c-9.31,-5.94 -26.33,-9.38 -25.09,-19.5zm266.09 104.13c-9.49,4.85 -14.81,5.13 -22.64,-9.27l18.84 1.02 3.8 8.25zm1.94 -7.97c3.17,-7.78 1.69,-2.72 9.19,-7.74 4.42,-2.96 1.61,1.88 3.69,-3.91 1.33,-3.69 -0.47,-1.72 -0.69,-2.91l3.88 3.77c-5.14,8.16 0.82,4.99 -1.37,14.83 -13.85,5.24 -13.29,-1.52 -14.7,-4.04zm-22.71 -10.88c13.62,-5.38 15.8,2.75 29.48,-8.08 -2.3,4.85 0.99,0.48 -4.2,4.38l-11.69 7.87c-3.87,2.24 -2.55,1.71 -7.61,3.05 -2.8,-2.28 -4.01,-4.29 -5.98,-7.22zm7.31 -16.99c3.45,-2.76 6.75,-4.3 10.99,-6.46l5.16 10.95c-5.26,2.89 -6.65,3.85 -13.12,2.68l-3.03 -7.17zm-15.24 13.35c-2.97,-4.13 -6.55,-8.94 -9.23,-13.42l18.61 1.05 4.48 9.84 -13.86 2.53zm-15.57 -26.43c24.99,-1.41 19.83,-0.32 39.43,-11.44l0.64 7.42c-4.68,3.32 -12.58,9.22 -18.9,12.6 -11.54,6.17 -16.82,-0.53 -21.17,-8.58zm-322.74 -132.09c-6.7,2.93 -8.56,4.15 -16,4.27 -5.66,-6.55 -7.97,-12.78 -6.32,-22.36l19.9 -4.47c0.78,9.88 -0.44,16.75 6.33,22.38 -1.58,-0.96 1.05,-1.84 -3.91,0.18zm16.59 -6.03c-10.96,-1.19 -11.43,-10.37 -9.68,-25.94 6.76,-2.92 7.21,-5.12 14.71,-8.9 6.79,6.35 0.29,13.49 12.06,17.35l3.25 3.44c-5.51,6.38 -13.21,11.01 -20.34,14.05zm24.44 -19.45l-3.95 -5.86c-2.61,-4.03 -0.51,0.39 -2.35,-3.88 -1.9,-4.39 -0.83,-5.46 -2.11,-10.24 2.86,-5.65 11.43,-11.64 17.97,-13.07 3.59,3.95 3.95,2.2 5.86,7.52 1.46,4.07 1.5,7.97 0.16,11.94 -0.91,2.71 -8.47,12.21 -10.53,14.97 -6.08,-0.84 -1.94,1.56 -5.05,-1.38zm498.52 172.88c9.89,-9.12 9.5,-21.88 9.04,-36.26l9.93 3.9c3.9,15.48 -5.73,31.07 -13.83,42.06l-13.67 -2.94 8.53 -6.76zm-12.43 -0.24c5.73,-9.58 6.55,-8.17 8.72,-21.3l8.92 2.32c-4.03,11.87 -5.3,24.46 -17.64,18.98zm43.34 -24.89c-0.76,6.94 0.93,3.68 -3.28,5.73 -3.61,-4.9 -4.25,-5.42 -5.71,-11.86l4.88 5.94c5.59,4.12 1.93,0.8 4.11,0.19zm-55.04 -8.94l5.48 7.95c-10.97,27.09 -16.54,22.1 -25.84,21.39 5.51,-10.08 9.17,-5.8 13.07,-12.84 2.25,-4.05 5.46,-12.85 7.29,-16.5zm31.06 4.17c-3.76,3.93 -1.74,1.89 -5.73,3.49l-2.84 -10.15 8.57 6.66zm-17.5 -18.3l1.45 2.89c12.12,20.47 3.96,26.7 -9.56,46.31 -4.1,0.24 -3.68,0.85 -8.4,-0.43 -6.93,-1.89 -3.14,-1.29 -5.29,-2.92 20.66,-12.05 19.8,-36.96 15.73,-42.71 3.67,-2.98 -3.77,-2.66 6.07,-3.14zm-13.56 14.13l1.48 -16.6 3.12 0.66c-1.97,10.5 0.26,7.8 2.9,13.75l-7.5 2.19zm-458.37 -136.87c-3.9,-6.03 -2.24,-2.02 -1,-8.48 7.41,-0.35 3.47,-0.62 9.7,2.04 -1.18,2.83 0.59,2.96 -4.05,6.13 -8.89,6.07 -1.69,1.27 -4.65,0.31z"/>
   </g>
   <path class="fil0" d="M393.76 578.72c-0.07,-10.22 -1.72,-10.07 7.77,-10.58 1.33,9.53 0.36,11.3 -7.77,10.58zm51.53 -96.52c7.13,-2.44 8.53,-5.56 12.44,-12.25l9.49 5.25c-5.78,5.01 -1.41,-1.17 -4.82,7.97l-7.55 26.06c6.64,-2.68 8.17,-3.96 10.53,-10.87 4.13,-12.13 -1.02,-8.09 5.81,-13.88 0.56,0.92 2.41,1.75 0.74,7.23 -2.54,8.34 -5.26,2.86 -7.78,12.55 -0.54,2.07 -0.44,4.4 -0.6,6.77l-3.03 1.4c-0.44,0.18 -1.06,0.44 -1.54,0.62l-6.2 1.96c-2.23,11.48 -3.05,16.75 -12.78,17.91 0.23,1.68 1.64,0.16 -0.57,2.01l-0.56 7.94 -3.19 1.94 -4.29 1.61 -15.1 -8.17c-5.83,-3.34 -7.9,-1.4 -10.79,-6.57 -7.26,-0.97 -15.26,-3.04 -18.45,-8.21 -11.92,-2.96 -8.73,-0.6 -19.12,1.86 -4.47,3.2 -2.81,2.42 -4.95,6.32 8.11,0.75 4.68,0.52 13.17,-1.24 -0.84,24.03 -19.76,-3.04 -6.94,27.86 -8.13,-6.29 -0.28,-2.26 -8.68,-4.16 -2.4,-0.55 -5.33,-0.19 -8,-0.08 3.68,1.37 6.33,1.22 0.82,8.16 -6.86,8.63 -0.99,-1.43 -5.38,0.6 4.28,11.29 2.8,8.42 6.18,7.97l5.79 -0.53c-3.44,-4.66 -3.92,-3.25 -0.59,-8.87 6.59,3.68 2.69,3.9 11.12,2.7 2.14,-6.72 3.09,-8.59 -0.84,-15.2 5.77,-4.98 1.64,3.86 12.07,-11.14 0.25,-0.37 0.63,-1.03 1.03,-1.47 -1.09,29.33 -6.62,54.78 -25.12,66.36l2.38 1.87c5.65,6.01 2.12,3.65 5.44,10.16 0.81,-26.82 2.41,-0.05 14.43,-39.75 4.8,-15.86 -0.11,-38.86 7.73,-45.47 9.48,4.95 6.02,7.11 5.36,19.46 -3.5,64.97 -5.16,40.51 -14.21,63.41 2.92,5.4 -6.74,4.61 6.73,3.7 6.94,-0.47 -0.53,1.49 6.31,-3.63l2.41 -2.27 4.72 -5.55c1.05,4.99 1.94,5.15 3.96,9.36 3.23,14.52 4.81,22.17 1.34,35.72 4.02,-2.84 6.06,-6.68 8.66,-10.53 -5.42,-2.61 -4.14,-12.63 -4.86,-18.57 -1.21,-9.83 -4.83,-12.25 -5.29,-19.18 -8.28,-0.58 -3.07,-0.73 -4.85,1.69 -4.12,-3.25 -1.19,0.89 -2.12,-5.91 -0.55,0.48 -1.66,0.16 -1.91,1.05 -1.85,6.51 0.01,-1.88 -3.15,2.1l1.07 -12.87 6.52 -1.98 5.23 1.14c0.21,-11.38 3.69,-5.91 1.16,-21.82 -1.33,-8.41 0.98,0.79 1.48,-7.92 0.42,-7.11 -3.27,-8.59 -4.4,-11.95 4.1,-4.09 1.81,-0.16 3.31,-6.7 15.65,5.58 28.54,13.76 46.26,14.19 19.24,0.46 36.9,-9.3 49.84,-10.67l37.1 1.44c14.21,-15.55 39.56,-7.32 51.18,3.45l40.97 0.67 0.29 0.64c7.06,-18.81 8.72,-11.74 5.95,-36.85 -5.21,-0.24 -47.27,-16.74 -57.89,-20.07 -31.42,-9.85 -41.4,-3.76 -72.19,-4.83 -9.26,-3.27 -4.6,-4.9 -12.68,-9.76 -6.91,-4.16 -11.38,-2.66 -18.73,-3.79 -8.33,-2.76 -13.03,-7.8 -21.89,-4.52 2.47,1.93 -1.09,-5.71 1.47,3.14 -12.68,6.63 -9.25,3.95 -11.06,9.22l1.61 1.77zm2.33 56.03c5.41,-5.6 8.74,-9.23 10.49,-19.24 4.82,-2.3 6.24,-1.45 12.77,-0.9 -3.2,-13.5 0.28,-22.3 14.99,-21.13 -3.7,4.7 4.67,2.5 -6.71,2.97l2.12 4.12c0.31,0.67 0.59,1.25 0.88,1.91 1.44,3.31 0.65,-0.18 1.66,5.13 -8.64,2.11 -8.91,5.37 -9.36,13.84 -0.32,5.93 0.1,12.73 0.02,18.62 -12.52,7.39 -23.3,5.55 -26.86,-5.32zm39.48 -44.38c-5.09,-0.83 -2.06,3.77 -7.13,-2.73 3.63,-8.37 4.72,-5.08 1.63,-15.43l7.87 3.49c-1.42,3.4 -1.84,2.4 -2.73,8.21 -1.16,7.59 -0.07,3.81 0.36,6.46zm7.23 -7.16c0.26,0.27 0.62,0.76 1.12,1.61 0.16,0.26 1.97,1.71 2.46,2.16 -0.21,6.12 -2.98,12.73 -3.96,21.66 -5.39,5.51 0,4.88 -7.08,11.01l-5.42 -4.14c0.63,-4.28 0.4,-1.8 1.59,-4.04 6.64,-12.49 1.63,-4.29 4.05,-13.63 1.06,-4.07 5,-10.15 7.24,-14.63zm-30.43 -178.72l0.77 -21.79c6.86,4.17 1.42,0.95 6.22,6.1 3.01,3.23 3.31,2.71 7.08,6.02l1.41 3.63c28.02,22.34 30.1,81.23 3.52,117.12 1.51,-9.13 22.8,-55.5 -1.56,-85.64 2.72,10.07 5.1,9.72 5.5,22.32 2.66,12.51 1.08,42.2 -2.96,51.06l-5.08 24.59c-3.37,10.23 -8.65,14.74 -11.58,25.88 12.85,-3.76 4.83,1.17 16.85,-15.91 3.38,-22.09 10.94,-22.45 16.84,-39.67 9.18,-26.82 4.28,-75.8 -13.14,-98.12 -8.24,-10.55 -18.3,-24.01 -33.18,-26.35 2.74,2.31 4.28,10.47 4.48,12.14 0.79,6.58 -0.46,12.05 4.83,18.62zm32.21 222.88l-0.8 5.16 -8.3 5.04c-13.06,8.12 -6.55,-12.55 -5,-17.45 8.54,4.81 -0.9,6.51 14.1,7.25zm-99 21.06c3.35,-0.18 6.85,-1.43 3.19,5.74 -0.19,0.37 -0.54,0.88 -0.76,1.27l-1.63 2.65c-2.51,4.05 0.27,-0.04 -3,4.18l2.2 -13.84zm-1.91 -18.07c11.5,3.38 4.73,1.04 6.05,4.91l-4.54 1.92 -1.51 -6.83z"/>
   <path class="fil0" d="M144.89 542.65l-0.12 -1.19c-7.19,0.75 -11.29,4.7 -25.88,5.93l0.53 -2.66c-0.06,-0.34 -0.29,-1.25 -0.53,-1.84 -8.23,0 -10.67,-0.52 -16.46,-2.27 2.4,8.12 5.19,7.88 14.08,10.84 10.64,3.53 11.48,2.35 22.66,2.28 -2.79,1.32 -4.27,2.71 -5.82,9.05 7.52,4.48 6.7,3.31 15.4,1.77 0.19,0.33 0.23,0.59 0.27,1.1 0.03,0.52 0.22,0.93 0.27,1.11 1.56,5.27 2.23,8.12 10.5,7.52 8.03,-0.59 12.02,-4.54 20.89,-5.04 -5.63,3.98 -16.81,11.16 -20.13,17.43 4.18,10.6 27.48,13.27 37.97,15.26 0.42,-5.97 0.99,5.72 -0.16,-5.08 -0.05,-0.46 -0.79,-3.1 -0.97,-3.74l-10.83 2.55c0.59,-0.32 1.09,0.21 1.71,-1.53l0.29 -5.23c-12.87,2.59 -13.29,5.31 -26.12,-0.27 2.63,-3.47 7.77,-6.04 12.79,-9.41 8.57,-5.75 25.04,-15.45 31.13,-24.47 -6.6,4.63 -15.48,8.49 -25.56,9.71 1.97,-7.29 -0.13,-2.92 3.89,-7.46 15.36,-17.34 35.39,-0.52 47.27,-30.37 -6.74,6.38 -4.17,9.08 -9.71,10.8 -0.18,0.05 -0.76,0.04 -0.93,0.07 -9.42,1.5 -20.98,13.33 -32.24,11.02 -4.75,-0.97 -4.34,-5.17 -4.57,-1.14l2.36 6.43c0.13,-0.35 0.6,1.22 0.77,1.88 -12.32,6.11 -23.15,16.13 -34.08,13.91 9,-11.19 14.6,-10.48 22.49,-19.23 6.8,-7.55 13.24,-17.15 17.32,-28.66 -11.23,6.58 -12.79,19.02 -20.48,29.51 -5.22,7.13 -25.4,11.23 -36.22,12.26 5.47,-7.25 14.36,-8.8 19.33,-12.82 7.44,-6.02 1.52,1.22 6.67,-7.78 -25.21,2.88 -19.84,9.4 -17.78,-0.24z"/>
   <path class="fil0" d="M319.73 514.1c8.78,-3.27 14.9,3.08 15.64,9.06 -5.67,2.03 -12.51,-0.68 -15.64,-9.06zm-73.69 1.85c1.54,-5.53 2.77,-7.95 5.87,-13.08l6.55 -7.95 4.21 6.76c-7.14,-5.82 -1.4,-4.68 -2.42,7.88l-14.21 6.39zm80.53 -86.79c1.21,-2.64 2.34,-5.91 3.01,-9.69 0.23,-1.27 0.86,-5.46 1.13,-6.2 1.57,-4.3 1.21,-2.52 3.14,-5.01 1.9,2.67 3.51,-4.17 2.63,8.88 0,0.05 -1.54,4.91 -1.67,5.43 1.52,-7.33 2.91,-5.91 6.23,-8.49l-2.11 13.11 -12.36 1.97zm40.85 -40.75c-10.99,-6.58 -16.22,-29.82 1.86,-30.21 -3.69,5.51 -3.34,-1.28 -2.99,6.52 0.05,1.05 1.37,0.36 1.27,5.91 -0.17,9.81 -2.86,5.72 -0.14,17.78zm-127.11 63.41l5.71 1.48c-12.08,0.01 -11.8,-0.35 -16.8,3.81 13.29,1.83 14.7,1.92 27.78,-0.93 23.99,-5.22 10.73,-6.51 19.13,-8.91l4.3 3.81c0.3,0.26 0.75,0.67 1.04,0.93l4.26 3.82 2.36 0.73c9.78,-2.82 2.81,-3.96 11.96,-8.76 -3.74,21.82 -2.38,16 -1.06,37.48l-6.76 3.39c1.47,3.2 -3.05,2.01 4.62,2.76l7.8 -0.61c8.04,12.72 2.96,27.1 -11.02,30.1l-9.37 -11.11 -6.42 5.07c-0.04,-0.17 -0.38,0.04 -0.55,0.13 2.37,1.73 1.27,1.26 3.42,3.77 1.91,2.24 1.08,1.89 3.41,4.08l-3.92 4.01 1.9 4.01 -2.5 3.51c-0.01,4.97 -0.19,4.36 -4.63,7.65l-4.46 -6.69c0.38,11.08 3.05,5.99 -6.07,7.18l-16.43 2.09c2.91,-17.96 -9.34,-20.57 14.29,-27.21 11.35,-2.02 4.91,3.06 10.02,-2.4 -1.1,-4.97 -4.34,-6.02 -4.8,-14.01l0.79 -13.26 0.24 -6.15 -3.37 4.24 -1.41 -5.8c-10.94,12.53 -13.92,26.36 -19.25,35.05 -17.66,28.79 -13.86,40.9 -21.63,50.32 -2.36,2.86 -5.65,5.3 -9.47,4.47 0.36,-5.15 1.51,-7.22 5.84,-10.21 -5.51,0.78 -7.13,3.53 -10.04,7.12l5.21 10.85c7.45,-2.8 9.44,-0.27 11.2,-7.73 -0.22,7.73 -0.5,7.46 -6.25,9.91 -4.55,1.95 -8.76,2.51 -12.16,1.71 1.78,4.31 -0.62,0.4 3.72,2.84l3.87 1.75c0.19,-0.4 0.97,0.27 1.35,0.57 -6.05,2.03 -8.23,6.06 -13.67,9.83 -0.15,-0.28 -0.15,-0.82 -0.16,-0.93 -1.03,-11.09 2.4,0.62 0.21,-3.91l-5.15 1.45c0.18,0.64 0.92,3.28 0.97,3.74 1.15,10.8 0.58,-0.89 0.16,5.08 3.58,-1.31 9.02,-4.13 10.32,-3.26 4.39,2.91 -6.5,0.37 3.6,6.8l12.17 -20.98c-0.09,10.09 -0.92,11.32 -6.2,16.15 4.32,3.07 4.45,-0.7 7.79,-0.03l0.75 7.95 -12.75 3.45c-2.92,39.59 12.5,4.89 26.32,42.25 15.97,43.15 10.23,46.12 36.93,97.74 3.74,7.23 7.89,14.69 12.67,21.48l14.41 21.26c4.67,-2.85 8.68,4.6 -4.4,-16.79 -19.57,-32 -54.34,-100.87 -59.05,-136.65 8.54,-1.56 2.99,-0.9 6.32,-3.39l0.09 -1.13c-6.17,3.3 -14.73,3.2 -19.67,-3.79 -2.62,-3.71 -0.8,-4.32 -4.96,-9.05 -4.09,-4.65 -2.91,0.97 -6.66,-7.4 4.23,-1.04 16.24,-1.87 22.11,-2.5l3.43 7.65c3.1,2.9 1.41,-4.52 3.01,5.33l4.26 -0.04c-4.74,-4.62 -4.45,-1.67 -1.14,-11.29l6.61 -0.61c-1.7,1.32 -1.64,-1.43 -2.55,7.15l3.93 -1.31c4.29,-1.74 2.76,-2 2.92,3.1l2.91 -1.66c0.22,-4.16 1,-2.78 0.02,-5.58 -2.12,-6.08 -0.34,-2.35 -3.49,-6.09 -3.62,-0.01 -3.42,0.34 -6.37,1.77l-16.06 0.26 -4.92 -15.4 -0.47 -24.81c0.62,-6.24 0.04,-8.42 3.92,-12.62l3.03 -28.95c2.77,2.73 10.86,-5.43 0.06,17.63 -0.36,0.77 -0.79,1.47 -1.08,2.26l13.24 -2.66 8.79 -2.02c19.55,-11.36 -8.98,9.1 16.4,1.77 4.65,-5.08 5.54,-3.26 9.17,-7.29 3.64,-4.03 2.77,-6.58 6.13,-10.7l8 2c3.41,-0.63 1.68,0.43 6.85,-1.84l0.69 4.85 5.83 -0.16c-6.74,-1.97 -8.71,-4.19 -7.42,-11.81l4.16 -1.03c15.47,-1.01 -11.6,-1.45 3.9,-0.24 5.68,0.44 15.93,6.57 19.59,9.23 -4.23,5.37 0.51,1.76 -7.75,3.91 0.43,0.18 1.09,0.03 1.26,0.64 0.23,0.86 1.98,1.28 2.36,1.68 0.82,0.85 3.54,4.9 4.01,5.7 -1.81,-13.33 -1.45,-3.86 2.31,-7.69 6.48,0.54 3.98,0.94 7.33,2.01 5.73,1.82 -2.55,3.73 4.81,1.25 -2.27,-4.71 4.83,-0.33 -3.52,-3.33 0,-4.22 -0.88,-2.86 3.93,-2.7 -3.37,-3.33 -4.47,-2.46 -4.99,-7.18 4.01,-1.84 6.63,0.29 10.36,1.63l-13.82 -12.01c-8.17,-5.18 -8.27,-4.54 -11.22,-13.65 -2.92,-3.19 -4.73,-6.62 -7.76,-11.14 -6.46,-5.43 -13.66,-12.44 -13.13,-21.75l-2.51 5.67c-1.03,-7.96 -3.09,-14.11 2.05,-19.73l2.39 3.09c0.33,-0.64 1.42,1.32 2.19,1.91 0,-6.58 -1.62,-11.25 1.99,-13.93 0.99,-4.82 1.51,-4.91 2.04,-9.88l15.29 -3.49 18.06 1.88 7.86 0.63c-5.03,6.02 -2.52,1.29 0.04,5.21l2.91 3.17 1.88 1.12c0.77,-0.94 2.47,-2.99 2.66,-3.13l7.46 -3.01c0.13,-0.42 0.77,-0.19 1.04,-0.46 -0.95,-0.93 -2.79,-2.47 -4.1,-4.4 -1.36,-1.98 -1.25,-1.5 -2.77,-5.54 6.18,-5.13 2.39,-26.34 1.63,-34.4 5.2,7.76 0.95,2.45 2.62,8.52 1.03,3.72 0.34,1.83 1.7,5.61l1.82 3.54c-0.09,-8.63 1.17,-20.47 2.08,-28.94 0.96,-8.89 1.24,-5.11 0.32,-14.16 -0.64,-6.25 -2.42,-9.15 1.07,-12.93l-0.46 -2.19 -2.61 3.12c-3.28,-1.64 -4.81,-1.54 -8.14,-2.5 -17.2,14.1 0.79,75.3 -20.25,74.33 3.63,-9.51 5.03,-18.24 4.75,-29.3l-2.27 7.93c-1.54,-20.75 -6.98,-49.49 -3.06,-69.3 -2.91,-16.31 -3.24,-1.24 -4.31,8.81 -2.37,22.35 2.28,19.83 -0.69,44.09l-5.2 17.27c-24.87,-27.3 -9.84,-65.61 0.14,-74.92l-8.71 52.59c0.82,8.63 -3.11,0.17 3.12,6.97 -0.31,-7.99 1.48,-29.92 3.09,-39.74 1.78,-10.87 7.53,-22.3 8.55,-33.57 -9.34,7.87 -20.38,36.61 -22.1,53.36 -1.92,18.7 5.98,15.81 -1.19,32.7 -13.07,30.8 1.72,10.76 -3.83,25.09l-18.34 15.42c-10.12,-0.49 -17.04,1.78 -26.18,-3.27 -8.3,-4.6 -7.15,-6.36 -9.65,-14.52 -6.74,6.72 -5.36,9.58 0.37,17.78 -10.48,-1.43 -9.71,-3.97 -22.27,-8.75 -4.97,4.36 -3.86,9.1 -5.06,6.23 -0.13,-0.33 -0.57,0.85 -0.91,1.23 -17.81,-8.61 -13.83,-11.44 -23.01,-30.85 -6.75,-14.27 -4.74,-26.93 -1.26,-43.36 2.82,-13.24 10.02,-25.82 16.21,-35.69 12.43,-19.84 17.11,-18.41 24.62,-26.97 -7.38,1.29 -25.21,22.38 -30.24,29.55 -20.88,29.79 -25.79,78.09 6.5,106.34 5.56,4.86 13.3,5.93 17.14,9.28z"/>
  </g>
 </g>
</svg>
