<?xml version="1.0" encoding="UTF-8"?>
<!DOCTYPE svg PUBLIC "-//W3C//DTD SVG 1.1//EN" "http://www.w3.org/Graphics/SVG/1.1/DTD/svg11.dtd">
<!-- Creator: CorelDRAW 2017 -->
<svg xmlns="http://www.w3.org/2000/svg" xml:space="preserve" width="26.697mm" height="15mm" version="1.1" style="shape-rendering:geometricPrecision; text-rendering:geometricPrecision; image-rendering:optimizeQuality; fill-rule:evenodd; clip-rule:evenodd"
viewBox="0 0 2669.7 1500"
 xmlns:xlink="http://www.w3.org/1999/xlink">
 <defs>
  <style type="text/css">
   <![CDATA[
    .fil0 {fill:#2B2A29}
   ]]>
  </style>
     <clipPath id="id0">
      <path d="M26.47 23.26l826.89 0 0 1453.48 -826.89 0 0 -1453.48z"/>
     </clipPath>
     <clipPath id="id1">
      <path d="M1499.58 520.6l328.88 0 0 312.12 -328.88 0 0 -312.12z"/>
     </clipPath>
     <clipPath id="id2">
      <path d="M1938.68 819.85l328.46 0 0 314.8 -328.46 0 0 -314.8z"/>
     </clipPath>
     <clipPath id="id3">
      <path d="M1953.94 519.61l318.46 0 0 285.53 -318.46 0 0 -285.53z"/>
     </clipPath>
     <clipPath id="id4">
      <path d="M1270.86 526.73l233.57 0 0 271.41 -233.57 0 0 -271.41z"/>
     </clipPath>
     <clipPath id="id5">
      <path d="M775.82 524.33l245.07 0 0 271.99 -245.07 0 0 -271.99z"/>
     </clipPath>
     <clipPath id="id6">
      <path d="M992.25 826.61l273.56 0 0 274.44 -273.56 0 0 -274.44z"/>
     </clipPath>
     <clipPath id="id7">
      <path d="M1683.49 826.77l273.38 0 0 274.12 -273.38 0 0 -274.12z"/>
     </clipPath>
     <clipPath id="id8">
      <path d="M2369.35 826.77l273.89 0 0 274.03 -273.89 0 0 -274.03z"/>
     </clipPath>
     <clipPath id="id9">
      <path d="M1007.12 527.51l254.91 0 0 274.08 -254.91 0 0 -274.08z"/>
     </clipPath>
     <clipPath id="id10">
      <path d="M777.73 827.6l267.21 0 0 274.21 -267.21 0 0 -274.21z"/>
     </clipPath>
     <clipPath id="id11">
      <path d="M2170.6 824.07l264.06 0 0 274.69 -264.06 0 0 -274.69z"/>
     </clipPath>
     <clipPath id="id12">
      <path d="M1730.55 526.09l262.64 0 0 271.72 -262.64 0 0 -271.72z"/>
     </clipPath>
     <clipPath id="id13">
      <path d="M1477.04 830.58l233.91 0 0 268.57 -233.91 0 0 -268.57z"/>
     </clipPath>
     <clipPath id="id14">
      <path d="M1254.96 830.62l234.04 0 0 268.36 -234.04 0 0 -268.36z"/>
     </clipPath>
 </defs>
 <g id="Capa_x0020_1">
  <metadata id="CorelCorpID_0Corel-Layer"/>
  <g id="_2188925256144">
   <g>
    <g style="clip-path:url(#id0)">
     <image x="26.47" y="23.26" width="826.89" height="1453.48" xlink:href="puerto-vallarta_Images\puerto-vallarta_ImgID1.png"/>
    </g>
   </g>
   <path class="fil0" d="M472.15 488.14l26.08 65.71 16.18 35.23c15.22,18.91 32.13,54.71 7.96,72.39 -7.47,17.06 -18.92,16.84 -33.28,30.2 145.48,-38.23 -12.81,-158.55 19.34,-198.51 25.06,-0.81 83.88,116.52 84.77,144.25 2.64,81.3 -87.78,82.68 -122.26,120.04 -36.61,39.67 -22.72,119.75 -169.27,183.61 -20.38,8.9 -67.53,31.33 -86.37,16.98 -10.65,-47.12 91.94,-67.62 123.63,-106.11 30.61,-37.22 12.11,-59.24 24.97,-90.32 8.11,-19.64 48.26,-32.41 69.08,-52.72l-62.07 18.15 -14.12 10.97c-54.22,44.35 14.51,69.22 -31.17,110.45 -22.01,19.87 -66.82,30.71 -96.7,48 -30.74,17.8 -55.22,40.31 -76.37,68.31 -27.44,36.29 -30.94,62.56 -50.86,93.28l-2.48 -13.19c-11.89,73.27 2.47,201.27 63.68,250.73l7.96 -2.73 -0.52 -23.46c1.17,-59.42 -13.93,-81.07 13.13,-143.47 13.75,-31.66 44.55,-79.09 77.61,-91.55 54.68,-61.8 143.33,-74.47 205.41,-117.4 59.28,-41.01 -16.66,-74.87 33.97,-110.88 50.01,-35.54 223.36,-69.77 62.33,-293.75 -50.03,-69.6 -79.76,-165.43 20.48,-206.56l6.09 -10c-38.56,-15.1 -100.47,10.88 -120.96,48.86 -27,50.01 -8.41,95.18 3.76,143.49zm-221.66 724l-16.42 2.18c-9.93,31.12 -10.68,65.73 -7.64,98.61 3.67,39.68 29.34,29.63 29.29,67.32 119.06,76.25 277.99,-15.38 278.88,-154.36 0.4,-61.64 -34.07,-136.96 -102.19,-145.14 -86.21,-10.35 -134.49,83.6 -90.7,113.72 10.99,-15.88 14.83,-81.88 73.66,-47.36 34.53,20.29 29.04,66.03 9.54,94.9 -49.35,73.08 -135.79,35.63 -174.42,-29.87zm119.33 -965.3l11.43 10.74 5.56 -12.26c11.49,23.44 4.93,31.53 24.65,51.69 57.99,59.25 43.94,-1.57 35.9,90.16 -2.11,24.04 4.78,36.31 8.9,58.57l15.89 42.4c-12.17,-48.31 -30.76,-93.48 -3.76,-143.49 20.49,-37.98 82.4,-63.96 120.96,-48.86l-6.09 10c35.57,-2.71 78.7,4.58 106.26,28.56 -0.84,-22.72 -6.5,-9.61 -19,-31.64 4.65,-15.58 8.12,-17.59 20.51,-27.23 -11.4,-8.43 -23.76,-24.39 -7.68,-33.39 -13.98,-26.01 -25.09,-51.26 -37.17,-78.06 -25.13,-55.81 -29.92,-30.36 -76.24,-35.05 -23.73,-21.1 -18.87,-40.85 -58.57,-36.08 -26.72,14.69 -21.88,34.16 -46.25,50.88l-57.7 3.11c-19.07,18.78 -30.03,73.62 -37.6,99.95zm-88.57 355.4l-4.84 15.7c-0.74,52.49 -91.15,198.07 -129.46,234.77 -26.76,53.39 -43.55,132.54 -47.74,192.15l2.48 13.19c19.92,-30.72 23.42,-56.99 50.86,-93.28 21.15,-28 45.63,-50.51 76.37,-68.31 29.88,-17.29 74.69,-28.13 96.7,-48 45.68,-41.23 -23.05,-66.1 31.17,-110.45l-7.17 -137.38c-12.13,-12.42 -43.44,-88.85 -49.15,-109.33l-4.71 -18.45 -25.37 -25.17c5.14,44.18 36.95,113.87 10.86,154.56zm207.84 89.43c-16.42,0.12 -42.23,7.95 -56.11,17.22 -20.82,20.31 -60.97,33.08 -69.08,52.72 -12.86,31.08 5.64,53.1 -24.97,90.32 -31.69,38.49 -134.28,58.99 -123.63,106.11 18.84,14.35 65.99,-8.08 86.37,-16.98 146.55,-63.86 132.66,-143.94 169.27,-183.61 34.48,-37.36 124.9,-38.74 122.26,-120.04 -0.89,-27.73 -59.71,-145.06 -84.77,-144.25 -32.15,39.96 126.14,160.28 -19.34,198.51zm-253.77 -338.99l-24.4 22.2c-8.98,15.67 -22.66,28.65 -39.77,35.01 -30.4,44.55 -52.35,36.22 -54.01,106.76 -0.93,39.97 11.95,100.72 29,136.91l8.33 -45.74c-1.19,-19.92 -1.42,-27.11 9.07,-44.18 3.68,-34.89 60.75,-126.13 92.76,-127.18 1.53,-25.05 89.6,-98.02 6.99,-119.82l-11.78 1.79c-9.42,20.91 2.28,17.27 -16.19,34.25zm134.5 -105.84c-19.07,15.25 -39.55,10.71 -52.01,34.09 -12.04,22.57 -6.25,56.94 4.46,78.61l3.84 -8.7c15.7,27.83 -1.98,13.27 21.23,23.99 21.05,9.75 12.59,16.6 30.37,27.36 24.52,14.82 53.04,30.07 78.55,43.55 -4.12,-22.26 -11.01,-34.53 -8.9,-58.57 8.04,-91.73 22.09,-30.91 -35.9,-90.16 -19.72,-20.16 -13.16,-28.25 -24.65,-51.69l-5.56 12.26 -11.43 -10.74zm-58.9 197.84l-15.16 28.17 4.71 18.45c18.66,13.89 23.25,32.91 34.12,53.56 24.58,1.48 44.68,11 72.77,15.67 25.92,4.34 45.78,10.5 64.33,29.41l18.89 -16.23 23.83 15.37 -16.18 -35.23 -38.16 -48.54c-32.55,10.07 -44.49,-12.95 -75.07,-23.58 -61.18,-21.3 -33.68,-11.38 -57.37,-41.53l-16.71 4.48zm-47.62 14.18c-2.03,26.37 -33.81,74.9 -50.99,97.55 -12.6,16.61 -36.2,78.44 -55.14,80.51l-2.7 -29.1 -8.33 45.74 18.45 50.81c5.35,-10.06 -2.67,0.55 6.25,4.07l12.41 1.05c4.96,-9.68 4.85,-14.36 8,-21.38 6.47,-14.41 3.81,-3.87 14.89,-17.31l51.6 -78c10.73,-18.89 3.82,-32.95 23.4,-37.34l0.11 46.78c26.09,-40.69 -5.72,-110.38 -10.86,-154.56l-14.09 -11.22 7 22.4zm107.61 268.18l62.07 -18.15c13.88,-9.27 39.69,-17.1 56.11,-17.22 14.36,-13.36 25.81,-13.14 33.28,-30.2l-1.49 -25.28c-29.36,-9.05 -58.83,-9.06 -84.61,-16.1 -24.16,-6.59 -47.39,-23.13 -73.46,-11.09 -3.51,12.17 2.6,45.4 2.7,62.12 0.05,14.74 -6.34,46.79 5.4,55.92zm-48.64 -367.5c-5.59,31.8 -1.87,49.2 -11.35,85.14l16.71 -4.48c23.69,30.15 -3.81,20.23 57.37,41.53 30.58,10.63 42.52,33.65 75.07,23.58l38.16 48.54 -26.08 -65.71 -15.89 -42.4c-25.51,-13.48 -54.03,-28.73 -78.55,-43.55 -17.78,-10.76 -9.32,-17.61 -30.37,-27.36 -23.21,-10.72 -5.53,3.84 -21.23,-23.99l-3.84 8.7zm27.35 241.09l7.17 137.38 14.12 -10.97c-11.74,-9.13 -5.35,-41.18 -5.4,-55.92 -0.1,-16.72 -6.21,-49.95 -2.7,-62.12 26.07,-12.04 49.3,4.5 73.46,11.09 25.78,7.04 55.25,7.05 84.61,16.1l1.49 25.28c24.17,-17.68 7.26,-53.48 -7.96,-72.39l-23.83 -15.37 -18.89 16.23c-18.55,-18.91 -38.41,-25.07 -64.33,-29.41 -28.09,-4.67 -48.19,-14.19 -72.77,-15.67l15.03 55.77zm-186.48 166.96l-16.19 85.12c38.31,-36.7 128.72,-182.28 129.46,-234.77l0.67 -23.96 -84.75 135.11c-10.94,17.92 -0.46,6.14 -15.16,18.48 -6.18,5.18 -5.53,9.47 -14.03,20.02zm7.19 501.81l17.07 29.42c-5.23,-42.85 -13.3,-54.74 3.9,-96.41 8.89,-21.55 15.99,-51.14 39.05,-61.64l4.2 3.2c-2.46,-47.9 7.41,-68.26 26.52,-109.59 -33.06,12.46 -63.86,59.89 -77.61,91.55 -27.06,62.4 -11.96,84.05 -13.13,143.47zm519.19 -935.05c29.96,11.74 55.02,16 76.29,-13.06l-15.16 -6.83 6.38 -24.04 27.44 4.36c-26.84,-36.95 -52.4,15.42 -101.12,-52.69 -16.08,9 -3.72,24.96 7.68,33.39 -12.39,9.64 -15.86,11.65 -20.51,27.23 12.5,22.03 18.16,8.92 19,31.64zm-472.41 1021.41c10.7,13.16 22.7,18.85 38.61,24.49 0.05,-37.69 -25.62,-27.64 -29.29,-67.32 -3.04,-32.88 -2.29,-67.49 7.64,-98.61l16.42 -2.18 -14.12 -43.06c-25.35,19.57 -33.05,62.59 -31.87,95.27 3.04,85.79 7.68,38.29 12.61,91.41zm-52.52 -651.39l-1.45 63.22c8.5,-10.55 7.85,-14.84 14.03,-20.02 14.7,-12.34 4.22,-0.56 15.16,-18.48l84.75 -135.11 -0.67 23.96 4.84 -15.7 -0.11 -46.78c-19.58,4.39 -12.67,18.45 -23.4,37.34l-51.6 78c-11.08,13.44 -8.42,2.9 -14.89,17.31 -3.15,7.02 -3.04,11.7 -8,21.38l-12.41 -1.05c-8.92,-3.52 -0.9,-14.13 -6.25,-4.07zm-1.05 -140.73l-0.73 23.8c17.54,-2.76 13.72,-11.31 24.36,-27.33 7.33,-11.06 16.7,-20.12 24.85,-32.41 17.67,-26.56 22.47,-56.83 51.28,-68.84l-7 -22.4c-32.01,1.05 -89.08,92.29 -92.76,127.18zm23.86 735.18l15.22 41.94 14.49 15c-4.93,-53.12 -9.57,-5.62 -12.61,-91.41 -1.18,-32.68 6.52,-75.7 31.87,-95.27l-1.82 -25.11 -4.2 -3.2c-23.06,10.5 -30.16,40.09 -39.05,61.64 -17.2,41.67 -9.13,53.56 -3.9,96.41zm-23.86 -735.18c-10.49,17.07 -10.26,24.26 -9.07,44.18l2.7 29.1c18.94,-2.07 42.54,-63.9 55.14,-80.51 17.18,-22.65 48.96,-71.18 50.99,-97.55 -28.81,12.01 -33.61,42.28 -51.28,68.84 -8.15,12.29 -17.52,21.35 -24.85,32.41 -10.64,16.02 -6.82,24.57 -24.36,27.33l0.73 -23.8zm-10 -171.09c17.77,-19.33 0.82,-37.25 35.94,-64.88l1.03 -11.77 0.75 -19.25 -13.69 0.45c-47.04,14.27 -45.17,59.55 -24.03,95.45zm24.03 -95.45l13.69 -0.45 -0.75 19.25 20.09 -28.82c22.69,19.85 31.73,35.91 24.72,65.6 18.47,-16.98 6.77,-13.34 16.19,-34.25l11.78 -1.79 -52.65 -52.46 -33.07 32.92zm-24.03 95.45l18.9 13.6 -2.76 -16.7 30.84 -18.99c-7.49,-20.93 -10.84,-19.39 -11.04,-42.79 -35.12,27.63 -18.17,45.55 -35.94,64.88zm196.08 208.08l-15.03 -55.77c-10.87,-20.65 -15.46,-39.67 -34.12,-53.56 5.71,20.48 37.02,96.91 49.15,109.33zm-186.73 694.96c7.81,18.53 23.23,33.94 39.73,45.17l-15.22 -41.94 -17.07 -29.42 0.52 23.46 -7.96 2.73zm9.55 -889.44l-1.29 3.74c17.11,-6.36 30.79,-19.34 39.77,-35.01l-10.4 -4.42 -30.84 18.99 2.76 16.7zm593.37 -84.86c14.49,-5.79 18.1,-10.61 18.66,-26.51l-27.44 -4.36 -6.38 24.04 15.16 6.83z"/>
   <g>
    <g style="clip-path:url(#id1)">
     <image x="1499.58" y="520.6" width="328.88" height="312.12" xlink:href="puerto-vallarta_Images\puerto-vallarta_ImgID2.png"/>
    </g>
   </g>
   <path class="fil0" d="M1565.84 582.54c20.79,-5.93 74.09,-4.29 97.34,-2.41 34.51,2.79 47.1,23.03 31.36,54.48 -19.75,16.65 -104.23,16.9 -130.53,8.99l1.83 -61.06zm-37.03 -32.03c-2.01,35.44 -9.03,203.67 7.31,223.23 47.59,10.83 16.93,-58.94 32.39,-90.88 17.25,-7.5 63.1,-9.1 76.59,6.57 25.23,29.32 37.91,85.05 84.82,108.14 18.41,9.07 60.45,16.73 72.52,-4.47 -27.16,-16 -40.94,2.74 -72.74,-38.82 -86.77,-113.39 -15.52,-58.91 3.18,-120.13 7.86,-25.74 1.02,-57.63 -22.62,-72.8 -28.9,-18.54 -146.4,-16.38 -181.45,-10.84z"/>
   <g>
    <g style="clip-path:url(#id2)">
     <image x="1938.68" y="819.85" width="328.46" height="314.8" xlink:href="puerto-vallarta_Images\puerto-vallarta_ImgID3.png"/>
    </g>
   </g>
   <path class="fil0" d="M2007.97 945.5c-7.47,-16.74 -5.42,-45.76 -2.14,-63.13 30.59,-6.11 132.6,-14.49 134.68,30.25 2.31,49.47 -100.79,39.84 -132.54,32.88zm118.85 36.01c14.26,-19.07 39.59,-14.61 47.25,-51.08 25.64,-122.09 -200.96,-75.71 -200.96,-75.71 -11.02,24.39 -11.61,199.37 2.54,220.84l21.36 -1.9c17.7,-25.81 -2.72,-59.17 13.3,-88.53 19.9,-9.4 63.57,-11.06 77.91,8.92 10.76,14.97 24.11,40.23 34.58,57.01 46.35,74.27 107.95,61.44 118.11,43.62 -18.14,-14.86 -42.58,1.14 -72.67,-40.69 -11.28,-15.69 -40.81,-55.15 -41.42,-72.48z"/>
   <g>
    <g style="clip-path:url(#id3)">
     <image x="1953.94" y="519.61" width="318.46" height="285.53" xlink:href="puerto-vallarta_Images\puerto-vallarta_ImgID4.png"/>
    </g>
   </g>
   <path class="fil0" d="M2209.59 685.6c-24.88,98.45 -221.5,78.38 -191.95,-46.23 23.25,-98.04 223.85,-80.03 191.95,46.23zm-138.61 -135.36c-161.07,42.29 -101.55,270.4 87.09,225.21 154,-36.88 102.76,-275.05 -87.09,-225.21z"/>
   <g>
    <g style="clip-path:url(#id4)">
     <image x="1270.86" y="526.73" width="233.57" height="271.41" xlink:href="puerto-vallarta_Images\puerto-vallarta_ImgID5.png"/>
    </g>
   </g>
   <path class="fil0" d="M1328.45 584.28c37.15,-8.81 129.87,5.91 154.47,-12.93l-1.76 -16.59c-15.48,-10.98 -163.84,-10.97 -183.43,-2.5 -9.92,19.07 -9.75,199.58 -0.17,219.37 19.08,9.44 166.58,9.45 187.4,-0.39l-2.31 -21.24c-34.13,-16.85 -112.46,7.13 -148.04,-11.02 -9.5,-17.67 -9.69,-40.57 -0.02,-58.19 30.19,-14.84 72.85,5.93 100.05,-13.15 2.84,-52.62 -73.45,-5.19 -100,-30.39 -9.94,-18.01 -6.33,-32.26 -6.19,-52.97z"/>
   <g>
    <g style="clip-path:url(#id5)">
     <image x="775.82" y="524.33" width="245.07" height="271.99" xlink:href="puerto-vallarta_Images\puerto-vallarta_ImgID6.png"/>
    </g>
   </g>
   <path class="fil0" d="M836.82 582.5c26.23,-7.27 126.96,-15.38 127.18,30.75 0.23,46.39 -102.01,38.08 -129.35,30.47l2.17 -61.22zm-35.03 191.66l28.88 1.74 4.64 -95.4c52.03,-10.13 181.81,21.79 163.39,-81.58 -14.11,-79.13 -191.14,-48.94 -197.2,-46.53 -6.78,20.06 -7.33,201.27 0.29,221.77z"/>
   <g>
    <g style="clip-path:url(#id6)">
     <image x="992.25" y="826.61" width="273.56" height="274.44" xlink:href="puerto-vallarta_Images\puerto-vallarta_ImgID7.png"/>
    </g>
   </g>
   <path class="fil0" d="M1092.02 982.15c-0.79,-14.77 23.83,-67.88 35.52,-78.02 10.79,9.24 35.83,63.92 35.6,78.03 -19.76,6.21 -51.46,6.17 -71.12,-0.01zm-76.67 91.15c44.19,20.12 35.58,-36.42 58.21,-51.44 13.83,-9.17 87.87,-6.05 105.01,-1.59 26.58,22.86 17.09,72.36 64.33,54 2.51,-20.59 -37.75,-93.8 -48.33,-117.63 -10.53,-23.69 -39.95,-107.55 -66.83,-107.23 -26.36,0.32 -54.2,84.79 -65.44,108.66 -10.36,22.03 -51.22,97.05 -46.95,115.23z"/>
   <g>
    <g style="clip-path:url(#id7)">
     <image x="1683.49" y="826.77" width="273.38" height="274.12" xlink:href="puerto-vallarta_Images\puerto-vallarta_ImgID8.png"/>
    </g>
   </g>
   <path class="fil0" d="M1782.96 982.54c-0.16,-12.24 26.91,-70.31 35.96,-80.49 9.76,7.85 36.64,67.93 37.44,82.79l-73.4 -2.3zm-76.65 91.18c45.96,19.36 36.5,-34.57 57.8,-50.74 13.9,-10.55 90.82,-7.46 108.4,-2.01 22.69,24.4 18.55,72.14 61.56,52.52 1.3,-6.81 -81.58,-226.74 -115.95,-223.91 -27.18,2.25 -113.67,214.41 -111.81,224.14z"/>
   <g>
    <g style="clip-path:url(#id8)">
     <image x="2369.35" y="826.77" width="273.89" height="274.03" xlink:href="puerto-vallarta_Images\puerto-vallarta_ImgID9.png"/>
    </g>
   </g>
   <path class="fil0" d="M2471.51 982.22c-1.02,-18.67 22.22,-63.26 33.13,-79.92 10.81,6.43 37.94,67 37.98,80.08 -20.34,5.9 -51.15,5.89 -71.11,-0.16zm-79.32 91.71c46.99,19 38.4,-34.4 57.5,-50.14 13.9,-11.45 90.17,-8.25 108.82,-3.76 23.8,22.46 17.29,73.53 61.56,53.26 4.48,-18.66 -37.92,-95.78 -48.32,-118.74 -21.24,-46.87 -39.15,-108.74 -68.28,-104.78 -25.09,3.41 -112.56,213.56 -111.28,224.16z"/>
   <g>
    <g style="clip-path:url(#id9)">
     <image x="1007.12" y="527.51" width="254.91" height="274.08" xlink:href="puerto-vallarta_Images\puerto-vallarta_ImgID10.png"/>
    </g>
   </g>
   <path class="fil0" d="M1050.07 548.76c-29.86,8.34 -20.26,40.5 -20.2,69.29 0.06,28.21 -1.27,59.15 0.58,87.02 4.02,60.63 42.27,74.03 97.58,75.2 47.39,1.01 101.09,-6.1 109.46,-61.82 3.94,-26.22 6.19,-147.47 -4.25,-168.6l-22.44 2.33c-11.96,22.76 -5.05,103.24 -5.46,133.52 -0.8,57.26 -21.89,63.9 -77.39,61.82 -62.22,-2.34 -62.03,-21.13 -62.05,-76.36 0,-31.58 14.22,-105.46 -15.83,-122.4z"/>
   <g>
    <g style="clip-path:url(#id10)">
     <image x="777.73" y="827.6" width="267.21" height="274.21" xlink:href="puerto-vallarta_Images\puerto-vallarta_ImgID11.png"/>
    </g>
   </g>
   <path class="fil0" d="M799.99 852.96c12.66,26.85 33.3,83.09 47.92,117.32 65.68,153.85 67.64,137.54 129.33,-0.95 9.61,-21.58 49.11,-98.54 45.15,-115.92 -55.27,-22.95 -70.62,130.09 -108.18,169.43 -13.36,-8.24 -37.65,-77.85 -46.26,-96.77 -16.8,-36.94 -21.85,-89.54 -67.96,-73.11z"/>
   <g>
    <g style="clip-path:url(#id11)">
     <image x="2170.6" y="824.07" width="264.06" height="274.69" xlink:href="puerto-vallarta_Images\puerto-vallarta_ImgID12.png"/>
    </g>
   </g>
   <path class="fil0" d="M2412.66 873.56l-0.84 -18.36c-19.46,-12.09 -199.05,-12.28 -219.22,0.06l3.33 21.16c26.31,9.85 58.15,-0.04 85.83,6.53 12.97,43.76 -7.32,147.11 6.21,193.8l29.35 -2.37c13.72,-43.7 -6.47,-147.08 6.16,-191.5 27.48,-6.47 65.24,6.67 89.18,-9.32z"/>
   <g>
    <g style="clip-path:url(#id12)">
     <image x="1730.55" y="526.09" width="262.64" height="271.72" xlink:href="puerto-vallarta_Images\puerto-vallarta_ImgID13.png"/>
    </g>
   </g>
   <path class="fil0" d="M1752.42 576.04l90.13 5.03c10.21,48.35 -7.84,156.23 6.07,193.05l28.75 1.81c13.43,-44.96 -6.41,-148.43 6.16,-193.2l86.41 -3.99 1.38 -29.02 -216.92 -1.77 -1.98 28.09z"/>
   <g>
    <g style="clip-path:url(#id13)">
     <image x="1477.04" y="830.58" width="233.91" height="268.57" xlink:href="puerto-vallarta_Images\puerto-vallarta_ImgID14.png"/>
    </g>
   </g>
   <path class="fil0" d="M1502.07 852.34c-7.39,24.93 -7.28,198.22 -0.17,221.69 20.09,7.41 167.01,7.44 189.56,0.41l-1.96 -24.61c-40.41,-13.13 -110.39,5.48 -152.33,-6.32 -11.46,-46.17 7.48,-151.04 -6.18,-193.43l-28.92 2.26z"/>
   <g>
    <g style="clip-path:url(#id14)">
     <image x="1254.96" y="830.62" width="234.04" height="268.36" xlink:href="puerto-vallarta_Images\puerto-vallarta_ImgID15.png"/>
    </g>
   </g>
   <path class="fil0" d="M1279.97 852.3c-7.43,24.47 -7.23,198.67 -0.03,221.82 19.15,7.02 168.08,7.17 189.56,0.39l-1.87 -24.82c-38.51,-12.57 -111.68,5.41 -152.53,-6.12 -11.6,-45.82 7.81,-150.64 -6.04,-193.44l-29.09 2.17z"/>
  </g>
 </g>
</svg>
