<?xml version="1.0" encoding="UTF-8"?>
<!DOCTYPE svg PUBLIC "-//W3C//DTD SVG 1.1//EN" "http://www.w3.org/Graphics/SVG/1.1/DTD/svg11.dtd">
<!-- Creator: Luis Angel Maciel -->
<svg xmlns="http://www.w3.org/2000/svg" xml:space="preserve" width="8.9746mm" height="10.4986mm" version="1.1" style="shape-rendering:geometricPrecision; text-rendering:geometricPrecision; image-rendering:optimizeQuality; fill-rule:evenodd; clip-rule:evenodd"
viewBox="0 0 897.46 1049.86"
 xmlns:xlink="http://www.w3.org/1999/xlink">
 <defs>
  <style type="text/css">
   <![CDATA[
    .fil0 {fill:#373435}
   ]]>
  </style>
 </defs>
 <g id="Capa_x0020_1">
  <metadata id="LuisAngelMaciel_CorelDraw"/>
  <path class="fil0" d="M505.26 291.36c-6.71,-30.72 -8.61,-27.78 3.47,-59.4 41.54,-5.64 52.41,-13.99 63.65,22.81l-28.98 97.89 -32.41 -42.54c0.7,-0.83 1.61,-1.72 2.82,-3.53 -1.85,-3.51 -5.18,-8.86 -8.55,-15.23zm-255.79 572c32.14,-13.2 -63.72,-102.7 -87.09,-100.27 -62.69,-49.12 -108.95,-226.44 -34.96,-283.03 4.95,-22.09 -2.55,-4.99 10.12,-22.74 1.3,-1.83 14.3,-15.77 16.5,-17.76 13.09,-11.83 21.84,-14.37 40.07,-23.73 78.93,-59.48 275.63,-65.68 371.16,-38.8 35.77,10.07 71.14,28.41 107.87,30.09l-40.51 -22.6c32.31,-27.4 59.29,-32.76 78.29,-71.01 3.27,-1.5 6.02,-3.35 8.56,-5.6l1.48 0.18c89.68,8.6 148.48,90.09 157.44,178.59 36.63,147.54 -84.11,379.77 -185.95,482.29 -83.92,84.47 -138.15,84.92 -248.78,40 -56.31,-22.85 -165.96,-94.38 -194.2,-145.61zm372.4 -68.59c13.52,-90.6 -81,-89.32 -67.6,-0.8 25.61,13.67 43.37,15.9 67.6,0.8zm-32.81 173.55c38.8,-39.7 -18.2,-92.4 -54.41,-53.18 -34.26,37.12 21.84,86.51 54.41,53.18zm-160.8 -31.93c63.73,-20.13 42.95,-89.57 27.39,-113.29 -22.15,-33.8 -67.53,-64.71 -110.97,-53.93 -80.21,19.93 -13.33,197.84 83.58,167.22zm220.58 -800.88l-1.98 3.97 -2 3.98c-5.19,3.82 -10.36,15.54 -13.96,21.81l-41.64 65.72c-18.15,-4.23 -55.62,-35.25 -90.84,-5.46 -19.08,16.12 -15.71,45.64 -4.52,67.19 5.9,11.37 9.98,8.55 4.02,19.83 -8.97,-0.2 -7.89,-1.99 -17.87,-1.99l2.28 -11.87c-4.51,-2.89 -17.72,-15.41 -19.19,-20.81 -2.09,-7.66 9.44,-57.8 14.18,-67.53 4.92,-10.11 10.54,-16.75 16.93,-24.83 13.46,-17.04 8.27,-9.07 20.05,-19.69l23.02 -18.71c13.75,-10.24 36.91,-22.98 52.61,-30.84 23.63,-11.84 63.08,-27.96 90.65,-32.52 57.35,-9.48 37.58,-4.86 92.7,-32.47 14.34,-7.18 32.69,-13.56 39.94,-21.66 1.35,-1.51 4.09,-5.46 4.27,-5.66 5.23,-5.71 -1.82,-3.01 8.08,-3.85 6.31,13.18 0.68,59.7 -1.42,72.2 -3.65,21.8 -8.87,44.04 -16.47,61.07 -8.45,18.91 -15.91,34.33 -25.85,51.68l-65.71 91.34c-11.87,15.91 -18.8,3.02 -32.87,26.75 -9.27,15.62 -39.11,35.21 -57.02,40.34 -32.65,9.36 -37.12,3.37 -60.8,-9.17 0,-60.3 22.25,-86.87 41.69,-127.34l23.05 -26.64c25.6,-33.47 32.56,-32.45 64.64,-56.59 6.46,-4.86 23.9,-16.8 27.5,-22.18l1.98 0 -1.65 -2.33 -0.33 2.33c-57.64,0 -55.74,31.81 -91.34,55.7 2.77,-11.95 10.57,-19.5 13.89,-33.82l2 -3.98 1.98 -3.97 1.98 0 -1.65 -2.32 -0.33 2.32zm-484.43 257.63l-0.82 -0.28c-11.34,-3.76 -19.61,-4.51 -30.67,-11.06 -12.79,-7.56 -21.77,-16.23 -34.13,-25.48l-47.66 -33.82c0,-8.74 -0.3,-14.89 -1.25,-19.47 -19.34,-7.92 -37.76,-21.78 -49.17,-39.57 43.61,-25.92 171.93,-36.3 228.98,-42.37 93.42,-9.95 136.7,8.1 214.26,50.15l14.11 -29.96c2.23,-9.85 4.56,-18.47 5.65,-22.68 4.94,-19.04 26.11,-47.12 42.16,-59.23 12.14,-9.14 16.3,-14.29 33.74,-25.87 40.37,-26.82 92.13,-49.89 140.81,-59.85 16,-3.28 24.56,-4.44 30.06,-5.14 34.94,-15.48 58.68,-24.96 94.23,-51.77 29.31,-22.11 4.33,-18.65 33.32,-15.18 30.81,115.79 -35.83,210.66 -103.28,293.73 375.73,177.03 0.79,740.61 -152.38,754.68 -142.14,13.06 -301.22,-122.42 -391.48,-220.81 -104.19,-113.57 -178.4,-326.71 -14.06,-419.55l-12.42 -16.47zm31.69 -4.99c-48.13,0 -73.84,-27.62 -105.26,-49.74 -5.85,-4.11 -23.22,-18.14 -29.77,-19.89 0,-12.24 -0.05,-23.36 -7.3,-30.49 -5.58,-5.5 -16.25,-11.35 -24.47,-13.27 3.54,-6.71 0.53,-4.48 8.52,-7.37 17.95,-6.47 29.04,-4.55 45.96,-7.68 42.12,-7.77 73.7,-16.23 118.14,-20.9 54.95,-5.75 105.95,-13.99 158.98,10.1 5.02,2.28 7.83,3.79 13.66,6.19 5.91,2.44 8.41,4.8 14.12,7.75l82.14 45.03c15.09,7.43 10.49,11.11 21.94,19.79 19.7,14.94 8.27,3.57 21.05,22.68l-109.29 -8.03c-27.29,0.26 -86.66,8.03 -111.12,8.03 -43.5,0 -58.43,-3.49 -96.46,-18.75l-55.72 -19.78c-6.46,-1.92 -14.55,-4.73 -20.58,-5.23 3.94,5.91 5.16,6.28 11.08,10.76 23.35,17.65 27.21,29.75 71.06,44.21 9.64,3.18 28.61,7.81 38.98,8.68l-20.67 11.12c-6.89,2.65 -17.17,6.79 -24.99,6.79z"/>
 </g>
</svg>
