<?xml version="1.0" encoding="UTF-8"?>
<!DOCTYPE svg PUBLIC "-//W3C//DTD SVG 1.1//EN" "http://www.w3.org/Graphics/SVG/1.1/DTD/svg11.dtd">
<!-- Creator: Luis Angel Maciel -->
<svg xmlns="http://www.w3.org/2000/svg" xml:space="preserve" width="8.9746mm" height="10.4986mm" version="1.1" style="shape-rendering:geometricPrecision; text-rendering:geometricPrecision; image-rendering:optimizeQuality; fill-rule:evenodd; clip-rule:evenodd"
viewBox="0 0 897.46 1049.86"
 xmlns:xlink="http://www.w3.org/1999/xlink">
 <defs>
  <style type="text/css">
   <![CDATA[
    .fil0 {fill:#FEFEFE}
   ]]>
  </style>
 </defs>
 <g id="Capa_x0020_1">
 <metadata id="LuisAngelMaciel_CorelDraw"/>
  <path class="fil0" d="M646.65 118.12l-1.99 4.13 -2.12 4.1c-5.41,3.9 -10.71,16.02 -14.43,22.52l-43.02 67.86c-18.73,-4.4 -57.45,-36.45 -93.8,-5.71 -19.69,16.71 -16.19,47.13 -4.7,69.47 6.12,11.7 10.33,8.78 4.2,20.53 -9.29,-0.33 -8.19,-2.13 -18.51,-2.13l2.43 -12.31c-4.73,-2.9 -18.33,-15.92 -19.83,-21.44 -2.2,-7.87 9.68,-59.72 14.62,-69.74 5.08,-10.39 10.89,-17.29 17.5,-25.62 13.91,-17.6 8.51,-9.4 20.71,-20.31l23.73 -19.41c14.22,-10.52 38.14,-23.73 54.35,-31.85 24.42,-12.19 65.16,-28.83 93.67,-33.53 59.17,-9.81 38.74,-5.09 95.7,-33.51 14.81,-7.51 33.72,-14.01 41.22,-22.42 1.41,-1.62 4.2,-5.61 4.42,-5.81 5.41,-5.91 -1.82,-3.1 8.41,-3.99 6.51,13.59 0.69,61.64 -1.49,74.56 -3.8,22.51 -9.14,45.43 -17.04,63.05 -8.7,19.52 -16.41,35.43 -26.73,53.34l-67.84 94.37c-12.24,16.42 -19.42,3.13 -33.94,27.65 -9.59,16.1 -40.42,36.33 -58.84,41.62 -33.74,9.71 -38.34,3.49 -62.85,-9.42 0,-62.34 23,-89.78 43.13,-131.49l23.71 -27.53c26.52,-34.63 33.65,-33.55 66.78,-58.45 6.68,-5.03 24.7,-17.42 28.4,-22.92l2.12 0 -1.73 -2.4 -0.39 2.4c-59.54,0 -57.54,32.83 -94.26,57.54 2.77,-12.4 10.89,-20.23 14.3,-34.92l2.12 -4.1 1.99 -4.13 2 0 -1.7 -2.39 -0.3 2.39zm-148.35 160.96c-6.89,-31.74 -8.9,-28.74 3.62,-61.36 42.93,-5.81 54.14,-14.4 65.77,23.55l-29.96 101.07 -33.42 -43.83 2.9 -3.71 -8.91 -15.72zm-319.27 99.98c-49.64,0 -76.25,-28.52 -108.69,-51.46 -5.99,-4.2 -24.02,-18.69 -30.73,-20.5 0,-12.61 -0.09,-24.12 -7.51,-31.51 -5.81,-5.61 -16.81,-11.73 -25.32,-13.72 3.72,-6.89 0.5,-4.6 8.81,-7.62 18.53,-6.61 30.04,-4.59 47.45,-7.9 43.53,-8.02 76.17,-16.71 122,-21.53 56.75,-5.98 109.49,-14.49 164.24,10.43 5.24,2.3 8.1,3.9 14.12,6.41 6.1,2.48 8.7,4.89 14.53,8l84.86 46.42c15.62,7.71 10.8,11.53 22.61,20.53 20.43,15.42 8.6,3.6 21.81,23.42l-112.89 -8.3c-28.21,0.2 -89.48,8.3 -114.8,8.3 -44.96,0 -60.34,-3.7 -99.57,-19.42l-57.56 -20.4c-6.7,-2.03 -15.02,-4.91 -21.24,-5.41 4.02,6.1 5.33,6.47 11.42,11.11 24.13,18.19 28.12,30.71 73.37,45.61 10.02,3.33 29.55,8.13 40.23,9.03l-21.3 11.51c-7.12,2.69 -17.73,7 -25.84,7zm55.14 490.73c33.23,-13.62 -65.83,-106.08 -89.98,-103.5 -64.75,-50.74 -112.5,-233.9 -35.99,-292.34 5.09,-22.81 -2.72,-5.21 10.37,-23.52 1.32,-1.9 14.72,-16.22 17,-18.3 13.55,-12.24 22.66,-14.83 41.46,-24.56 81.46,-61.44 284.66,-67.86 383.32,-40.02 36.98,10.42 73.47,29.34 111.43,31.04l-41.84 -23.32c33.32,-28.25 61.26,-33.82 80.85,-73.27 3.42,-1.51 6.12,-3.62 8.81,-5.92l1.51 0.21c92.68,8.89 153.32,93.07 162.64,184.45 37.84,152.45 -86.88,392.25 -192.06,498.14 -86.7,87.27 -142.63,87.67 -256.92,41.36 -58.15,-23.65 -171.46,-97.49 -200.6,-150.45zm184.69 75.48c65.76,-20.83 44.34,-92.5 28.3,-117.01 -22.93,-34.93 -69.74,-66.86 -114.68,-55.74 -82.79,20.59 -13.73,204.34 86.38,172.75zm166.04 32.93c40.12,-40.93 -18.83,-95.4 -56.15,-54.86 -35.43,38.34 22.52,89.27 56.15,54.86zm33.93 -179.15c13.91,-93.61 -83.68,-92.29 -69.88,-0.93 26.44,14.12 44.85,16.45 69.88,0.93z"/>
 </g>
</svg>
