<?xml version="1.0" encoding="UTF-8"?>
<!DOCTYPE svg PUBLIC "-//W3C//DTD SVG 1.1//EN" "http://www.w3.org/Graphics/SVG/1.1/DTD/svg11.dtd">
<!-- Creator: CorelDRAW 2017 -->
<svg xmlns="http://www.w3.org/2000/svg" xml:space="preserve" width="15.6632mm" height="13.3772mm" version="1.1" style="shape-rendering:geometricPrecision; text-rendering:geometricPrecision; image-rendering:optimizeQuality; fill-rule:evenodd; clip-rule:evenodd"
viewBox="0 0 1566.32 1337.72"
 xmlns:xlink="http://www.w3.org/1999/xlink">
 <defs>
  <style type="text/css">
   <![CDATA[
    .str1 {stroke:#BDBFC1;stroke-width:19.09;stroke-linecap:round;stroke-linejoin:round;stroke-miterlimit:22.9256}
    .str0 {stroke:#BDBFC1;stroke-width:19.09;stroke-linecap:round;stroke-linejoin:round;stroke-miterlimit:22.9256}
    .fil2 {fill:none}
    .fil6 {fill:#FEFEFE}
    .fil3 {fill:#BDBFC1}
    .fil7 {fill:#1D131B}
    .fil1 {fill:#1D141C}
    .fil0 {fill:#BCBEC0}
    .fil5 {fill:url(#id0)}
    .fil4 {fill:url(#id1)}
   ]]>
  </style>
  <linearGradient id="id0" gradientUnits="userSpaceOnUse" x1="517.03" y1="300.47" x2="498.12" y2="229.27">
   <stop offset="0" style="stop-opacity:1; stop-color:#4B5174"/>
   <stop offset="0.121569" style="stop-opacity:1; stop-color:#436395"/>
   <stop offset="1" style="stop-opacity:1; stop-color:#3B76B7"/>
  </linearGradient>
  <linearGradient id="id1" gradientUnits="userSpaceOnUse" xlink:href="#id0" x1="317.52" y1="391.5" x2="305.16" y2="332.05">
  </linearGradient>
 </defs>
 <g id="Capa_x0020_1">
  <metadata id="CorelCorpID_0Corel-Layer"/>
  <g id="_1876113843424">
   <path class="fil0" d="M220.28 846.88c0,4.11 4.35,10.03 6.81,13.32 13.65,18.26 75.95,53.06 101.94,53.06 1.28,0 5.81,-4.53 8.05,-6.04 0,-24.33 -19.12,-33.58 -39.86,-46.68 -31.13,-19.68 -41.33,-23.71 -72.91,-23.71 -1.35,2.53 -4.03,6.65 -4.03,10.05z"/>
   <path class="fil1" d="M631.11 641.71c-13.12,-3.06 -21.68,-4.77 -24.16,-14.08l-6.05 0c-0.64,7.71 -3.38,14.42 -4.03,22.13 -15.45,0 -21.87,-8.85 -30.2,-16.1 -6.8,3.6 -19.74,11.37 -28.2,12.07 0,-12.75 0.08,-25.52 0.08,-38.28 -0.01,-12.96 -4.11,-23.35 -4.11,-52.24 0,-14.1 4.03,-19.23 4.03,-32.18 0,-7.69 0.62,-0.73 -2.01,-6.03 -18.95,6.85 -6.04,79.15 -6.04,96.55 0,14.61 -2.02,22.31 -2.02,38.21 15.87,3.7 16.28,2.78 34.97,-7.31 0.27,-0.15 0.88,-0.44 1.29,-0.73 9.75,6.53 16.58,16.09 30.2,16.09 12.27,0 7.93,-16.09 14.1,-16.09 10.03,0 9.23,6.04 30.21,6.04 0,-18.91 -3.49,-27.75 -6.63,-43.68 -3.26,-16.51 -1.63,-28.8 -7.19,-45.11 -23.9,-70.11 -49,-86.25 -35.33,-61.5 3.36,6.09 6.32,11.88 8.85,17.55 4.88,11 12.3,26.09 15.7,36.62 4.59,14.18 7.35,25.87 9.69,42.62 1.3,9.25 0.59,16.47 2.34,23.81 1.87,7.89 4.32,12.95 4.51,21.64z"/>
   <path class="fil1" d="M333.64 906.02c3.47,-20.13 -27.26,-36.54 -42.67,-45.25 -7.7,-4.36 -57.28,-32.28 -65.25,-18.53 -10.8,18.61 79.24,73.32 107.92,63.78z"/>
   <path class="fil1" d="M248.48 1167.9c7.54,-0.29 6.87,-0.26 9.39,-5.22l14.85 -11.97c9.34,-7.22 33.66,-27.4 30.71,-40.86 -16.92,-8.24 -51.36,16.17 -61.61,24.03 -18.48,14.16 -40.2,27.63 -37.34,48.53 18.89,0.19 29.32,-7.96 44,-14.51z"/>
   <path class="fil0" d="M326.83 901.77c-5.75,-20.13 -62.34,-53.98 -95.06,-55.29 6.74,20.99 69.59,53.98 95.06,55.29z"/>
   <path class="fil0" d="M210.99 1175.45c15.98,-3.03 38.07,-17.03 49.63,-24.78 12.77,-8.57 31.59,-21.52 36.21,-36.39 -16,1.85 -37.81,15.7 -48.94,23.67 -13.38,9.58 -31.48,22.05 -36.9,37.5z"/>
   <path class="fil0" d="M248.48 1167.9c-14.68,6.55 -25.11,14.7 -44,14.51 -2.86,-20.9 18.86,-34.37 37.34,-48.53 10.25,-7.86 44.69,-32.27 61.61,-24.03 2.95,13.46 -21.37,33.64 -30.71,40.86l-14.85 11.97c9.43,-1.89 24.69,-14.88 31.39,-21.63 7.86,-7.91 23.13,-19.02 15.61,-34.69 -11.54,-11.52 -55.8,17.82 -65.65,24.96 -13.02,9.46 -28.01,20.97 -35.84,34.61 -4.61,8.02 -3.18,10.5 -1.22,18.88 14.82,3.45 22.95,-2.62 35.58,-8.7 9.1,-4.37 7.39,-2.4 10.74,-8.21z"/>
   <g>
    <path class="fil2 str0" d="M327.53 902.26c-3.66,-14.73 -26.94,-27.14 -40.04,-35.51 -15.79,-10.08 -36.04,-21.09 -56.76,-20.24 6.42,17.78 69.01,54.47 96.8,55.75z"/>
    <path id="1" class="fil3" d="M327.53 902.26c-3.66,-14.73 -26.94,-27.14 -40.04,-35.51 -15.79,-10.08 -36.04,-21.09 -56.76,-20.24 6.42,17.78 69.01,54.47 96.8,55.75z"/>
   </g>
   <g>
    <path class="fil2 str1" d="M210.22 1176.35c21.32,-5.26 83.59,-42.04 87.16,-62.57 -21.84,0.85 -85.63,46.21 -87.16,62.57z"/>
    <path id="1" class="fil3" d="M210.22 1176.35c21.32,-5.26 83.59,-42.04 87.16,-62.57 -21.84,0.85 -85.63,46.21 -87.16,62.57z"/>
   </g>
   <path class="fil4" d="M329.82 367.68c-11.93,-31.87 -34.73,-47.47 -64.5,-52.75 -10.89,35.28 -7.37,65.52 2.76,93.41l8.46 0 60.86 -7.8c2.99,-12.26 0.85,-23.3 -7.58,-32.86z"/>
   <path class="fil5" d="M464.84 207.31c-15.07,48.79 -9.96,81.7 25.98,114.78l42.21 -49.35c7.61,-31.11 -39.1,-60.28 -68.19,-65.43z"/>
   <ellipse class="fil6" transform="matrix(0.69868 -0.259393 0.219891 0.592279 485.319 237.624)" rx="24.32" ry="45.73"/>
   <ellipse class="fil6" transform="matrix(0.644668 -0.373954 0.317005 0.546492 294.676 343.108)" rx="24.32" ry="45.73"/>
   <path class="fil7" d="M327.53 902.26c-27.79,-1.28 -90.38,-37.97 -96.8,-55.75 20.72,-0.85 40.98,10.16 56.76,20.24 13.1,8.37 36.38,20.78 40.04,35.51zm-244.63 312.72c-3.52,8.78 -24.5,34.26 -30.46,38.25 -3.9,6.33 -1.12,4.84 -8.31,9.03 -3.6,2.11 -7.51,5.25 -13.6,5.76l-3.75 -12.74c-16.05,-29.33 21.83,-58.73 47.05,-79.4 36.76,-30.13 140.92,-85.69 189.02,-108.42 9.72,-4.59 33.86,-14.64 38.16,-21.41 -14.15,-7.72 -28.97,23.52 -60.62,11.75 -19.76,-7.33 -35.92,-14.83 -43.61,-37.3 -15.47,-45.16 16.96,-91.33 44.61,-112.02 16.25,-12.16 20.59,-8.48 54.55,9.66 16.88,9.02 37,18.46 53.46,27.59 25.98,14.4 61.05,41.39 87.95,34.52 13.39,-3.42 12.99,-15.11 12.05,-31.05 7,3.16 28.52,5.26 34.15,9.4 -19.49,8.12 -70.06,37.27 -85.65,51.68 -14.75,13.63 -28.08,-1.07 -35.71,11.11 0.46,0.37 1.19,0.17 1.53,0.88 1.37,2.92 11.02,1.48 14.84,0.87 6.35,-1.03 9.84,-1.09 16.47,-0.84 9.98,0.37 20.4,2.96 26.33,7.86 15.77,13 -4.97,36.03 -14.97,44.97 -22.72,20.34 -96.39,63.02 -128.41,82.82 -7.85,4.86 -13.58,8.36 -21.72,13.43l-87.63 59.29 -10.7 9.78c-18.37,25.88 -28.48,52.3 -66.48,60.55 -15.7,5.77 -15.38,1.49 -31.45,0.15 0.77,-9.18 2.45,-6.6 6.25,-10.71l4.61 -3.43c8.42,-7.1 24.55,-32.41 31.68,-35.82 3.73,-10.56 8.96,-11.39 11.85,-23.17 -8.36,1.97 -28.78,35.46 -37.69,44.45 -7.78,7.86 -4.3,3.14 -10.29,6.67 -5.36,3.16 -11.04,9.56 -12.61,15.42 -6.4,-4.28 -14.93,-11.82 -16.96,-20.46 5.08,-5.34 5.95,-2.23 11.26,-5.8 5.87,-3.95 11.53,-11.94 17.7,-19.13l28.54 -37.8c0.15,-0.7 0.69,-0.77 1.09,-1.12l0 -3.31c-8.4,0.69 -7.89,2.32 -12.53,8.04zm-65.22 22.47l-0.79 -0.09 -0.01 3.78 0.15 0.47 -0.15 1.66 0.64 0c2.71,9.39 3.8,16.34 7.65,25.78 7.69,18.8 21.67,36.23 41.36,40.47l18.92 0c2.06,-0.41 4.17,-0.95 6.32,-1.64 29.23,-9.32 58.87,-43.22 73.9,-68.82 24.88,-19.33 139.91,-90.51 155.4,-99.65 18.93,-11.16 64.85,-38.97 80.58,-51.34 11.76,-9.23 25.79,-21.31 30.03,-35.47 9.22,-30.78 -19.68,-33.41 -27.51,-36.49 2.87,-8.3 27.95,-21.96 35.13,-26.01 13.48,-7.6 45.74,-26.03 59.74,-31.67 5.53,-2.23 29.87,-1.59 51.88,-8.23 8.15,-2.47 15.89,-5.82 23.66,-6.67 6.15,4.98 35.19,43.25 44.22,52.93 57.81,61.97 110.3,108.3 185.75,152.79 74.25,43.78 171.58,77.14 261.41,73.19 106.48,-4.67 203.71,-57.58 248.64,-135.7 10.07,-17.51 16.15,-32.34 22.74,-51.15 40.7,-116.11 -8.45,-251.29 -91.94,-334.32 -8.42,-8.38 -16.72,-17.6 -24.15,-23.66l-124.3 -92.29c-5.41,-3.78 -9.84,-6.98 -14.24,-10.58 -9.34,-7.7 -15.36,-12.81 -25.23,-22.18 -15.26,-14.48 -31.05,-31.06 -43.11,-51.85 -28.94,-49.83 -12.35,-105.34 27.27,-133.8 9.01,-6.48 22.16,-11.43 34.23,-15.07 33.62,-10.14 92.23,-1.16 124.01,12.86 26.14,11.52 37.07,23.5 52.93,43.47 15.72,19.84 26.47,32.9 43.93,51.18 7.48,7.83 18,16.98 26.14,23.34 7.95,6.21 17.94,12.35 28.26,19.55 29.01,20.26 179.84,101.97 195.5,85.11 3.43,-3.69 3.08,-8.9 2.2,-14.93 -7.7,-52.09 -56.95,-100.17 -94.22,-131.66 -76.21,-64.39 -161.8,-108.48 -259,-132.13 -21.43,-5.21 -60.19,-9.67 -80.5,-8.57 -9.1,0.49 -14.91,2.17 -26.28,2.84 -21,1.23 -49.59,11.56 -67.71,22.04 -25.55,14.77 -45.31,35.52 -58.04,61.91 -31.58,65.47 -10.05,125.32 39.44,174.86 82.73,82.76 191.88,121.68 254.68,226.01 13.16,21.88 30.88,60.96 36.07,84.04l4.66 26.03c1.09,7.58 0.29,1.04 1.98,6.36l2.45 18.55c2.98,57.42 -1.77,99.42 -34.97,147.1 -33.97,48.76 -84.46,79.18 -141.72,97.82 -5.6,1.83 -16.76,5.31 -22.92,5.97l-26.37 4.1c-8.24,0.74 -20.92,-0.19 -29.87,-0.02 -24.57,0.49 -14.8,-1.65 -42.14,-4.29 -8.09,-0.77 -3.79,-1.18 -11.9,-2.96 -56.32,-12.32 -99.62,-28.17 -150.82,-58.68 -25.78,-15.37 -50.75,-32.74 -70.51,-49.24 -41.19,-34.37 -88.75,-79.75 -114.64,-126.55 -24.58,-44.46 -15.3,-38.25 -0.89,-57.09 44.11,-57.69 63.51,-134.98 59.68,-209.7 -4.4,-85.88 -63.7,-181.21 -118.74,-240.24l-41.27 -41.55c-0.81,-0.78 -2.62,-2.52 -3.56,-3.46 -19.25,-18.84 -18,-9.85 -1.3,-36.44 14.65,-23.32 21.72,-38.97 32.34,-66.55 18.03,-46.82 14.54,-60.51 -11.07,-96.54 -10.9,-15.33 -20.54,-25.89 -31.18,-35.82 -27.18,-25.33 -19.23,-6.56 -30.59,-34.46 -10.3,-25.24 -17.39,-43.35 -31.1,-67.36 -3.73,-6.53 -10.91,-13.55 -13.09,-18.53l-17.69 0c-2.88,5.52 -13.34,12.1 -17.87,15.73 -5.88,4.71 -11.17,10.32 -18.07,17.29l-24.35 28.58c-2.88,4.35 -3.9,6.58 -6.89,10.5 -55,6.56 -87.07,14.87 -135.26,47.93 -8.29,5.68 -18.06,13.55 -25.7,20.11 -21.38,18.38 -2.71,8.75 -32.18,14.26 -5.08,0.94 -1.74,1.06 -7.79,2.3 -11.15,2.28 -8.79,-0.47 -28.95,5.87 -10.06,3.16 -26.64,7.58 -35.12,12.46 -8.65,26.13 26.42,95.48 37.21,114.26 6.41,11.16 10.13,10.5 9.95,25.81 -0.25,22.48 12.95,76.92 23.25,94.5 26.09,44.54 141.78,55.65 180.09,46.28 24.49,-5.98 46.91,2.28 71.88,3.13 3.89,4.19 12.56,17.5 13.31,23.64 1.15,9.6 -6.38,21.47 -11.51,27.35 -28.44,32.57 -89.68,17.78 -145.87,65.5 -18.73,15.91 13.42,18.03 15.14,18.92 1.38,8.46 -1.93,11.29 0.8,21.85 12.86,0.81 19.84,-4.31 30.26,-6.66 11.25,25.95 12.04,20.75 29.93,0.21 8.99,-0.59 14.29,6.63 44.03,6.52 8.16,-0.03 16.53,0.18 24.66,0 11.04,-0.26 15.85,-3.01 24.99,-3.45 -0.9,8.94 -6.47,23.1 -10.92,29.31 -10.79,0.95 -63.69,-18.91 -106.8,29.35 -30.39,34.04 -29.61,63.66 -28.21,116.28l-62.99 -35.06c-39.37,-20.28 -140.85,-68.92 -185.82,-60.88l-32.04 17.53c-4.06,4.7 -13.67,25.98 -12.99,35 2.78,36.97 55.86,50.95 85.21,62.76l103.93 43.79c6.67,3 28.55,11.96 33.23,15.77 -1.39,3.67 -3.99,4.52 -8.81,7.99 -50.21,36.14 -78.13,119.23 -15.65,154.39 9.14,5.14 18.36,5.98 25.94,9.84 -9.18,5.65 -21.88,12.13 -31.72,16.72 -28.32,13.24 -72.78,39.2 -98.33,54.93 -21.15,13.03 -45.07,27.6 -60.41,41.84 -13.4,12.42 -35.29,34.35 -39.93,56.79zm305.24 -920.31c0.39,-11.98 -19.31,-21.58 -28.77,-25.09 -0.05,10 6.88,10.11 12.83,14.41 5.63,4.1 7.62,9.73 15.94,10.68zm137.91 -40.65c-0.22,-2.18 -1.24,-10.63 -0.67,-12.65 1.85,-6.58 -1.58,-4.97 5.2,-3.72 -6.06,-54.06 13.04,-44.27 4.37,-48.77 8.24,-11.33 9.04,-18.29 27.35,-16.06 23.78,2.89 73.87,40.55 40.52,70.06 -0.33,-0.17 -0.87,-0.79 -1.02,-0.5l-4.73 -3.13c-1.25,7.24 3.4,6.08 -4.8,2.71 2.83,4.25 3.79,3.77 4.97,9.5 -16.65,13.17 -5.15,6.02 -20.02,22.78 -2.52,2.33 -3.08,3 -5.36,5.2 -20.86,20.02 -24.15,26.84 -15.82,20.18 13.79,-11.02 54.48,-51.19 63.11,-71.74 9.23,-21.98 -20.91,-47.79 -37.15,-55.21 -31.56,-14.41 -54.78,-2.26 -58.08,35.86 -3.28,31.42 -2.05,39.73 0.89,42.07l1.24 3.42zm-131.01 91.19c0.22,0.53 0.56,1.13 0.77,1.57 0.21,0.45 0.51,1.04 0.76,1.59l6.05 29.7c-5.72,-7.24 -67.55,7.04 -76.49,5.38l-29.75 -4.35c-10.96,-33.01 -6.5,-85.74 28.61,-84.79 31.73,1.98 45.3,16.84 48.9,18.42 -26.44,-32.23 -91.02,-46.87 -89.29,36.44 0.74,35.39 5.84,40.77 43.48,41.84 13.48,0.4 38.41,-2.03 50.81,-5.61l16.24 -0.43c8.86,-3.51 13.38,-4.69 8.45,-25 -4.15,-17.1 -4.43,-13.35 -8.54,-14.76zm255.93 122.26c17.28,33.37 37.74,71.92 39.27,110.56 0.74,18.61 5.49,27.41 7.88,42.5 -4.75,-0.27 -20.37,-4.96 -24.91,-10.44 -5.09,-6.14 3.37,-2.49 -5.23,-5.59 -3.1,5.56 -2.1,14.85 -7.04,24.41 -17.33,-0.62 -17.73,-11.1 -29.94,-16.34 -9.76,3.27 -16.72,10.57 -28.79,11.83 -0.01,-12.1 1.29,-23.9 1.12,-35.79 -0.36,-23.89 -7.43,-29.38 -4.04,-65.15 0.83,-8.73 6.3,-21.13 1.78,-28.54 -5.25,2.66 -1.37,-2.53 -5,6.26 -9.21,22.29 1.66,84.33 0.94,96.13 -0.59,10.01 -5.98,21.77 -1.23,31.51 14.13,8.05 21.44,-5.9 35.22,-7.51 8.54,5.68 21.55,19.5 33.46,13.71 5.77,-3.77 3.28,-8.7 8.81,-16.22 11.08,3.94 16.63,8.11 30.35,7.23 1.74,-10.17 -6.2,-35.31 -7.17,-46.34 -1.75,-19.97 -1.32,-26.37 -7.88,-44.71 -5.35,-14.95 -22.84,-65.43 -37.6,-67.51zm-534.17 247.55l1.35 2.48c0.16,0.34 0.43,0.86 0.6,1.24 10.95,23.82 39.99,44.45 53.13,39.6 -4.25,-7.39 -13.98,-7.73 -29.22,-19.53 -9.71,-7.52 -18.68,-13.07 -17.01,-28.68 11.23,-29.08 144.63,30.77 163.95,40.54 23.71,11.98 48.89,23.31 71.13,37.85l49.46 33.38c7.93,6.43 6.97,9.36 17.24,10.19 -1.96,-8.76 -5.3,-9.6 -15.48,-17.35 -2.93,-2.24 -16.59,-11.88 -17.86,-13.86 -5.59,-8.63 -7.13,-45.18 -5.11,-56.74 5.5,-31.45 20.08,-62.87 46.76,-79.52 54.38,-33.94 113.9,-1.99 153.74,39.42 6.63,6.88 10.34,13.3 16.67,14.78 -1.1,-13.02 -22.21,-30.76 -33.89,-39.82 -14.87,-11.52 -27.89,-19.43 -46.48,-26.98l14.65 -44.85c2.19,-6.39 4.82,-16.31 5.62,-24.02 1.18,-11.49 3.51,-21.87 -3.1,-24.8 -2.97,5.72 -1.87,13.64 -2.8,21.19 -0.77,6.13 -2.69,9.69 -3.84,17.27 -2.64,17.33 -8.45,15.02 -25.11,18.39 -8.4,1.7 -32.81,1.77 -42.12,1.03 -20.56,-1.61 -24.22,-4.93 -30.03,-13.16 -9.27,4.38 -12.78,17.9 -21.13,21.86 -7.98,-8.58 -4.43,-14.01 -10.56,-23.91 -5.09,1.44 -1.56,0.52 -5.19,5.71 -5.22,7.46 -11.59,5.32 -21.94,9.26 0.93,-13.22 9.52,-24.77 6.59,-34.8 -4.82,2.8 -0.32,-0.4 -3.22,2.91l-6.18 8.43c-6.21,-0.07 -9.75,0.2 -14.31,-2.15 1.86,-10.71 27.68,-22.71 36.34,-27.05 27.86,-13.96 69.47,-15.17 96.17,-30.92 15.97,-9.43 20.28,-21.56 27.77,-34.96 1.89,5.9 5.89,11.37 8.53,17.74 9.78,23.52 0.34,12.88 10.7,16.82 -0.56,-24.3 -24.4,-51.53 -29.67,-67.01 13.06,-3.84 23.49,-5.45 36.3,-12.71 26.52,-15.03 42.34,-47.15 44.61,-76.75 0.58,-7.56 -1.22,-14.72 1.92,-21.12 7.22,1.07 9.09,6.37 19.87,15.34 36.9,30.7 82.92,87.73 106.61,127.62 17.46,29.42 31.37,58.12 41.08,93l6.35 26.95c2.63,10.05 2.1,20.57 4.05,29.47 4.79,21.84 -0.17,41.13 -1.74,61.57 -4.94,64.62 -40.73,137.87 -90.6,178.88 -31.67,26.03 -58.28,31.87 -95.15,39.08 -17.43,3.4 -42.64,1.13 -59.58,-3.12 -12.36,-3.1 -13.9,-2.79 -18.89,-14.05 -3.18,-7.17 -7.41,-17.3 -14.13,-20.63 -1.57,2.96 -2.08,4.16 -0.47,8.58l9.42 16.99c3.8,8.56 6.74,18.08 5.18,30.24 -12.91,18.94 -40.72,0.84 -55.85,-7.87 -15.93,-9.18 -33.85,-20.01 -50.53,-28.46 -33.63,-17.08 -71.8,-35.62 -107.23,-51.71 -37.14,-16.89 -72.13,-31.54 -110.69,-47.38 -17.99,-7.39 -39.88,-14.7 -56.29,-22.92 -15.79,-7.9 -34.66,-21.61 -29.77,-46 1.12,0.49 7.15,10.18 9,12.31 4.3,4.93 6.66,5.89 12.97,10.13 9,6.05 21.04,14.34 32.72,13.06 -1.17,-3.87 -0.55,-4.32 -8.37,-7.87 -53.87,-24.43 -44.62,-50.83 -26.94,-52.61zm582.88 167.38c0.32,0.39 0.6,1 0.77,1.31l3.41 7.47c16.02,37.89 45.85,75.94 74.3,104.98 33.42,34.12 64.52,59.63 104.48,85.77 37.44,24.49 135.07,72.14 186.91,74.81 11.41,0.58 8.67,2.88 19.2,3.48 30.9,1.75 63.09,1.63 88.17,-6.05 4.75,-1.45 5.13,-0.79 10.26,-1.93 21.63,-4.75 41.84,-14.52 61.32,-23.88 27.66,-13.31 59.7,-40.48 78.93,-63.49 3.85,-4.6 7.51,-9.28 10.79,-13.88 14.98,-21.1 30.19,-55.32 34.24,-83.79 7,-49.36 3.34,-43.93 -0.21,-88.09 -0.43,-5.35 -0.67,-6.04 -2,-10.38 -8.16,-26.82 -5.48,-27.11 -20.09,-62.08 -19.84,-47.45 -41.85,-81.43 -76.88,-113.62 -52.85,-48.55 -127.51,-95.03 -187.75,-146.92 -49.48,-42.63 -81.01,-97.35 -57.42,-164.51 16.82,-47.88 50.84,-74.7 100.32,-89.66 26.82,-8.1 60.28,-7.11 90.83,-5.88 23.92,0.98 55.84,10.51 78.3,16.63 44.7,12.18 96.79,38.45 131.05,59.22 52.43,31.78 119.94,81.13 153.91,130.9 10.02,14.68 28.03,49.89 26.37,66.28 -15.87,4.76 -59.06,-16.08 -72.23,-22.33 -58.51,-27.77 -134.25,-65.47 -175.89,-110.83l-22.89 -26.33c-12.16,-15.48 -30.94,-40.11 -45.3,-49.9 -27.13,-18.49 -76.59,-31.95 -110.38,-31.96 -11.95,0 -31.92,1.25 -42.81,4.64 -70.63,22.05 -98.07,90.51 -70.55,148.72 10.08,21.34 23.49,38.79 40.55,54.7 18.81,17.53 29.72,28.55 50.98,44.35 18.78,13.95 36.3,26.44 56.22,40.44 10.73,7.54 16.86,13.05 27.37,20.34 44.73,30.98 88.36,74.67 115.73,121.48 54.24,92.8 71.25,205 18.96,300.42 -35.52,64.81 -92.43,103.9 -161.31,125.37 -26.05,8.13 -53.84,12.51 -80.93,14.13 -103.11,6.2 -211.93,-34.41 -292.67,-89.24 -20.03,-13.6 -40.03,-26.46 -56.23,-40.65 -47.71,-41.75 -48.27,-37.75 -97.3,-92.77 -6.56,-7.37 -39.8,-44.52 -42.3,-51.75 3.1,-4.35 20.88,-13.1 26.11,-16.62 8.63,-5.79 20.29,-16.95 25.66,-18.9zm-173.46 -870.96c13.52,5.38 40.14,78.81 45.64,89.39 -3.14,4.92 -1.91,-0.01 -7.03,5.28 23.7,11.79 40.1,26.49 55.18,44.42 23.88,28.4 39.41,51.2 27.14,87.46 -8.61,25.42 -4.99,22.37 -20.57,54.16 -5.94,12.13 -11.34,21.06 -17.96,31.26 -20.76,32.07 -11.21,16.47 -22.7,23.96 -1.29,24.72 2.08,40.93 -7.87,61.8 -39.51,82.86 -132.34,34.73 -142.01,35.36 0.19,9.69 0.27,4.42 6.76,9.69 -16.33,0.75 -29.76,3.42 -46,3.29 -15.34,-0.12 -28.76,-1.63 -43.97,-3.33 -23.65,-2.64 -57.63,-12.08 -74.56,-21.87 -21.49,-12.42 -30.06,-35.28 -35.27,-61.12 -2.84,-14.08 -6.01,-27.62 -7.94,-41.65 -1.31,-9.51 0.68,-39.39 -2.04,-44.73 -6.14,1.21 -3.72,4.48 -8.8,6.54 -12.79,-20.08 -38.99,-76.9 -38.29,-104.52 13.91,-9.68 54.43,-20.48 76.92,-18.94 -2.13,6.88 -6.23,8.23 -8.53,15.51 9.46,0.27 6.37,-1.21 12.23,-8.61 19.85,-25.11 50,-45.96 77.68,-61.24 67.26,-37.14 98.59,-22.74 132.74,-27.66 0.47,-11.3 -8.87,-7.12 -20.83,-7.85 2.58,-14.81 57.54,-71.59 70.08,-66.6zm-30.46 228.83c2.8,-7.76 1.38,-12.3 1.61,-21.45 0.36,-14.62 3.72,-16.02 -1.97,-23.45 -10.35,5.11 -8.06,25.72 -7.36,35.93 0.58,8.32 0.91,7.83 7.72,8.97zm-220.41 913.68c1.52,-16.37 65.32,-61.72 87.16,-62.57 -3.58,20.52 -65.84,57.3 -87.16,62.57zm-6.18 6.05c29.82,4.04 107.44,-53.95 100.05,-73.46 -20.44,-8.31 -68.87,28.4 -84.59,43.23 -13.96,13.19 -16.77,16.78 -15.46,30.23zm36.68 -314.87c16.93,13.46 78.71,51.18 91.84,38.22 13.28,-13.08 -34.4,-41.22 -42.38,-45.68 -13.78,-7.72 -46.08,-25.88 -64.25,-20.23 -4.5,13.4 6.75,21.3 14.79,27.69z"/>
  </g>
 </g>
</svg>
