<?xml version="1.0" encoding="UTF-8"?>
<!DOCTYPE svg PUBLIC "-//W3C//DTD SVG 1.1//EN" "http://www.w3.org/Graphics/SVG/1.1/DTD/svg11.dtd">
<svg xmlns="http://www.w3.org/2000/svg" xml:space="preserve" width="61.5526mm" height="53.0012mm" version="1.1" style="shape-rendering:geometricPrecision; text-rendering:geometricPrecision; image-rendering:optimizeQuality; fill-rule:evenodd; clip-rule:evenodd"
viewBox="0 0 6155.26 5300.12"
 xmlns:xlink="http://www.w3.org/1999/xlink">
 <defs>
  <style type="text/css">
   <![CDATA[
    .fil1 {fill:#FEFEFE}
    .fil2 {fill:#1D131B}
    .fil3 {fill:url(#id0)}
    .fil0 {fill:url(#id1)}
   ]]>
  </style>
  <linearGradient id="id0" gradientUnits="userSpaceOnUse" x1="3900.28" y1="1280.95" x2="3849.05" y2="2079.05">
   <stop offset="0" style="stop-opacity:1; stop-color:#3B76B7"/>
   <stop offset="0.141176" style="stop-opacity:1; stop-color:#3D71AE"/>
   <stop offset="0.4" style="stop-opacity:1; stop-color:#41679C"/>
   <stop offset="0.788235" style="stop-opacity:1; stop-color:#485982"/>
   <stop offset="1" style="stop-opacity:1; stop-color:#4B5174"/>
  </linearGradient>
  <linearGradient id="id1" gradientUnits="userSpaceOnUse" xlink:href="#id0" x1="2205.79" y1="1555.4" x2="2160.32" y2="2286.29">
  </linearGradient>
 </defs>
 <g id="Capa_x0020_1">
  <metadata id="luisangelmaciel"/>
  <g id="mew-pokemon">
   <path class="fil0" d="M2215.4 1548.18c122.77,66.8 187.1,201.9 193.71,374.08 61.65,88.69 70.77,238.62 75.07,361.03 -174.09,27.36 -379.76,4.38 -535.97,-78.19 -18.49,-170.2 -71.59,-706.85 267.19,-656.92z"/>
   <ellipse class="fil1" transform="matrix(6.07042 -1.57118 1.33191 5.14596 2232.76 1820.14)" rx="24.32" ry="45.73"/>
   <path class="fil2" d="M1986.76 2213.23c-99.73,-16.17 -240.03,-85.39 -324.2,-66.07 161.93,49.24 675.1,300.7 821.63,136.15 27.69,-80.97 6.13,-102.47 5.92,-183.16l-28.6 3.54c16.1,186.47 8.09,200.99 -181.16,173.1 -86.42,-12.73 -214.74,-31.53 -293.59,-63.56z"/>
   <path class="fil3" d="M3938.02 1286.26c127.92,69.59 249.96,503.95 255.35,657.89 -214.78,76.24 -507.15,243.6 -580.92,62.18 -18.48,-170.2 114.39,-852.05 325.57,-720.07z"/>
   <ellipse class="fil1" transform="matrix(6.21603 0.824301 -0.698769 5.26941 3879.54 1533.43)" rx="24.32" ry="45.73"/>
   <path class="fil2" d="M3725.38 260.93c108.63,-66.15 550.11,-245.51 701.1,-166.71 161.52,131.65 -6.81,648.45 -12.61,811.76 -3.2,89.41 114.75,244.86 156.79,333.99 324.63,688.21 99.26,907.66 -369.75,1270.63 -86.49,66.92 -214.21,134.69 -279.88,202.14 -4.82,-1.54 -10.01,-13.42 -11.67,-9.73 -30.89,68.14 -18.08,-15.89 -21.28,-18 -34.25,-22.61 18.04,-82.64 -81.27,83.79 -108.3,181.38 -298.28,287.5 -509.34,349.47 -350.08,102.71 -618.13,-134.32 -832.35,-254.87l54.93 89.54c-309.96,-26.59 -826.63,-216.25 -1038.83,-378.18 -531.67,-405.77 -149.24,-1018.55 -149.24,-1018.75 -37.9,-106 -155.89,-247.26 -220.82,-364.64 -72.39,-130.8 -158.61,-288.07 -164.85,-442.09 232.86,-65.59 500.34,-221.76 786.67,-219.25 -37.58,65.02 -95.99,100.48 -139.36,178.51 192.53,-152.77 601.43,-433.54 907.78,-493.25 200.28,-38.99 462.57,-32.5 670.46,-7.01 152.16,18.65 493.57,110.33 585.95,107.09 -47.55,-16.17 -25.66,-39.16 -32.43,-54.44zm-112.93 1745.4l14.56 -59.34c1.74,-21.73 -2.96,-43.49 0.2,-74.26l95.05 -298.57 75.31 -204.08c2.59,-4.78 6.04,-10.82 8.02,-14.1l57.4 -81.44c208.87,-218.79 465.81,330.92 493.77,516.23l-192.77 120.22 -120.71 68.42c-79.73,39.93 -335.41,164.49 -380.16,39.24l-23.63 28.78c109.64,210.41 509.95,-64.69 585.7,-127.92 94.97,-79.29 159.87,-102.39 126.43,-238.7 -25.86,-105.27 -60.12,-214.87 -107.62,-301.65 -119.09,-217.66 -331.24,-349.11 -475.62,-66.07 -84.39,165.46 -154.14,487.41 -155.93,693.24zm-1416.06 -469.33c21.48,12.36 16.01,8.1 35.87,25.49 2.52,2.19 8.07,15.73 9.93,12.24 1.95,-3.61 6.24,8.88 9.45,13.26 21.88,54.96 52.37,86.45 78.43,148.02 44.26,59.59 104.74,265.54 124.96,335.25l1.18 -50.79c-1.99,-103.23 -116.13,-576.66 -403.83,-615.33 -331.89,-44.58 -428.56,301.69 -417.21,607.47 21.81,-29.67 13.09,-7.09 28.9,-59.62 3.73,-12.28 8.02,-49.13 10.17,-62.87 54.44,-349.31 286.29,-553.11 522.15,-353.12zm1198.85 296.01c57.15,-69.39 42.35,-283 35.54,-387.38 -42.92,75.27 -90.67,300.92 -35.54,387.38zm-929.1 -293.14c59.99,130.2 112.15,293.46 201.61,401.32 49.53,-95.01 -147.46,-353.2 -201.61,-401.32zm261.44 3214.76l-25.13 21.32c-83.34,56.75 -27.77,-1.82 -82.08,52.74 -41.39,41.63 -26.67,58 -83.22,110.94 -155.08,-62.34 -31.78,-88.57 -240.68,-67.53 -17.31,-233.03 18.4,-270.36 -55.61,-502.98 -38.15,-120.01 -78.48,-344.61 -129.99,-440.35 -22.62,335.33 160.34,605.2 148.1,972.51 95.7,-4.94 110.42,-35.42 183.78,11.39 49.73,31.78 46.37,64.73 113.05,88.32 29.46,-35.83 85.08,-112.76 109.84,-127.63 52.33,-31.38 78.23,-12.49 134.17,-27.12l45.35 -18.44c3.85,-1.75 10.26,-4.79 14.55,-8.31 -144.46,-233.84 -115.8,-117.59 -101.04,-447.61 7.57,-170.6 2.79,-387.62 -84.03,-498.27 61.53,521.58 -89.38,718.4 52.94,881.02zm618.21 166.15l-98.3 -33.89 -92.09 98.21 -52.57 -129.78 -119.77 -35.83c65.7,-129.06 115.07,-166.63 122.49,-353.65 6.16,-155.41 1.82,-318.92 -4.18,-474.36l-35.42 103.68c-30.44,205.83 -10.74,409.3 -71.38,585.62 -20.96,60.96 -67.98,141.34 -73.69,183.41 284.46,31.34 113.57,2.07 213.2,176.49l127.76 -86.66c60.32,37.85 82.77,62.74 102.02,138.46l28.3 138.54c21.48,61.93 3.52,18.93 20.83,45.52 8.88,-153.01 -19.41,-262.17 12.69,-407.56 29.47,-133.68 80.7,-201.7 107.61,-307.97 46.74,-184.87 48.16,-560.82 -39.11,-708.48 20.87,842.76 -70.57,597.5 -148.39,1068.25zm-3111.08 -0.33c26.06,-411.93 -432.45,-2364.49 -30.93,-2750.98 248.8,-239.42 758.46,487.09 856.47,639.25 165.09,256.25 571.88,598.63 1040.08,546.06 -62.63,177.21 -284.46,306.84 -412.51,410.2 -325.64,262.9 -766.84,700.33 -945.43,1088.68 -30.4,66.19 -84.88,245.79 -113.41,295.12 -62.67,-159.18 -196.1,-1078.55 -228.25,-1303.59 -47.46,-332.53 -176.44,-1142.22 -39.07,-1403.37 202.18,-6.53 484.61,698.38 1080.57,993.5 138.02,68.34 332.86,124.03 493.53,72.52l54.6 -24c-286.69,19.17 -372.98,15.28 -608,-139.68 -182.96,-120.66 -285.67,-231.2 -410.35,-372.7 -133.03,-151.02 -218.56,-277.49 -346.32,-435.12 -114.83,-141.62 -339.7,-346.07 -390.98,32.83 -51.23,378.42 61.89,1046.36 132.02,1418.13 38.63,204.86 226.5,1199.13 267.72,1313.72 29.06,-49.21 64.53,-264.68 106.8,-354.79 50.18,-106.96 121.56,-217.33 184.91,-301.44 249.16,-330.91 629.16,-704.51 949.29,-953.06 167.08,-129.66 343.84,-318.99 349.35,-629.6l-90.55 270.2c-492.68,39.96 -850.14,-328.6 -1025.24,-592.39 -136.68,-205.91 -606.21,-840.62 -901.38,-640.79 -376.83,255.11 -146,1976.03 -44.87,2500.57 20.88,108.18 58.62,225.36 71.95,320.73zm632.84 -4214.42c-26.42,366.58 399.38,787.84 387.18,877.3 -11.6,85.48 -134.17,236.42 -66.6,558.91 39.4,187.95 124.11,343.55 226.82,442.62 215.36,207.77 564.75,333.99 947.71,377.77 144.25,16.49 144.82,-16.62 250.29,65.62 56.66,44.22 139.64,91.12 223.42,112.88 243.8,63.36 386.84,11.84 613.02,14.68l9.48 220.9c28.17,-38.75 20.92,-37.45 34.34,-114.75 7.21,-41.63 15.44,-90.35 21.68,-135.46 77.58,-51.88 115.93,-57.76 188.36,-124.68 158.36,-146.36 532.24,-226.46 744.92,-148.76 175.54,64.17 231.16,195.5 337.27,297.11 120.99,115.81 208.99,215.92 322.16,330.47 222.73,225.44 1078.62,1004.57 1013.77,1562.91 -40.86,351.75 -1125.89,-112.27 -1524.12,-827.52 -202.06,-362.89 -213.82,-559.72 -270.4,-1017.5 -70.57,-570.99 -515.22,-38.87 -741.72,24.93 152.49,25.78 375.71,-263.63 593.57,-227.8 202.59,102.67 -101.82,876.97 631.26,1640.25 173.32,180.46 397.51,338.17 679.82,458.23 283.94,120.75 752.38,276.72 651.86,-224.19 -115.77,-577.03 -897.85,-1361.59 -1330.42,-1782.93 -56.58,-55.16 -86.94,-107.49 -138.54,-159.82 -299.99,-304.16 -694.9,-75.68 -865.95,-28.45 97.81,-259.82 222.57,-165.99 617.64,-481.58 745.97,-596 -10.7,-1258.83 73.65,-1584.72 227.07,-877.62 -19.29,-1031.4 -754.97,-604.96 -227.43,131.86 -419.52,-364.27 -1606.36,68.87 -226.46,82.65 -289.21,176.2 -358.32,202.42 -40.25,15.28 -490.65,-8.02 -910.82,207.25z"/>
  </g>
 </g>
</svg>
