<?xml version="1.0" encoding="UTF-8"?>
<!DOCTYPE svg PUBLIC "-//W3C//DTD SVG 1.1//EN" "http://www.w3.org/Graphics/SVG/1.1/DTD/svg11.dtd">
<!-- Creator: CorelDRAW 2017 -->
<svg xmlns="http://www.w3.org/2000/svg" xml:space="preserve" width="45.8892mm" height="33.6972mm" version="1.1" style="shape-rendering:geometricPrecision; text-rendering:geometricPrecision; image-rendering:optimizeQuality; fill-rule:evenodd; clip-rule:evenodd"
viewBox="0 0 4588.92 3369.72"
 xmlns:xlink="http://www.w3.org/1999/xlink">
 <defs>
  <style type="text/css">
   <![CDATA[
    .str0 {stroke:#58595B;stroke-width:40.15;stroke-miterlimit:10}
    .fil0 {fill:none;fill-rule:nonzero}
   ]]>
  </style>
 </defs>
 <g id="Capa_x0020_1">
  <metadata id="CorelCorpID_0Corel-Layer"/>
  <path class="fil0 str0" d="M2364.41 1433.02l-167.88 0 0 -167.89 167.88 0 0 167.89zm335.74 0l-167.89 0 0 -167.89 167.89 0 0 167.89zm335.78 0l-167.88 0 0 -167.89 167.88 0 0 167.89zm335.79 0l-167.9 0 0 -167.89 167.9 0 0 167.89zm-2014.61 335.79l-167.89 0 0 -167.89 167.89 0 0 167.89zm335.74 0l-167.9 0 0 -167.89 167.9 0 0 167.89zm335.78 0l-167.89 0 0 -167.89 167.89 0 0 167.89zm1343.09 0l-167.9 0 0 -167.89 167.9 0 0 167.89zm-2014.61 335.73l-167.89 0 0 -167.89 167.89 0 0 167.89zm335.74 0l-167.9 0 0 -167.89 167.9 0 0 167.89zm335.78 0l-167.89 0 0 -167.89 167.89 0 0 167.89zm335.78 0l-167.88 0 0 -167.89 167.88 0 0 167.89zm335.74 0l-167.89 0 0 -167.89 167.89 0 0 167.89zm335.78 0l-167.88 0 0 -167.89 167.88 0 0 167.89zm335.79 0l-167.9 0 0 -167.89 167.9 0 0 167.89zm-2014.61 335.78l-167.89 0 0 -167.88 167.89 0 0 167.88zm335.74 0l-167.9 0 0 -167.88 167.9 0 0 167.88zm1007.3 0l-167.89 0 0 -167.88 167.89 0 0 167.88zm335.78 0l-167.88 0 0 -167.88 167.88 0 0 167.88zm335.79 0l-167.9 0 0 -167.88 167.9 0 0 167.88zm-2014.61 335.79l-167.89 0 0 -167.9 167.89 0 0 167.9zm335.74 0l-167.9 0 0 -167.9 167.9 0 0 167.9zm335.78 0l-167.89 0 0 -167.9 167.89 0 0 167.9zm167.9 -1007.3l167.88 -167.89m-167.88 0l167.88 167.89m167.85 0l167.89 -167.89m-167.89 0l167.89 167.89m-839.41 671.51l167.89 -167.88m-167.89 0l167.89 167.88m167.9 0l167.88 -167.88m-167.88 0l167.88 167.88m503.64 -671.51l167.88 -167.89m-167.88 0l167.88 167.89m-1119.24 -419.72l56 0m-391.74 0l55.95 0m-391.73 0l55.94 0m951.36 1343.04l55.95 0m279.83 0l55.96 0m279.78 0l55.99 0m279.79 0l55.96 0m-2070.56 -1762.73l0 0c-46.36,0 -83.92,-37.61 -83.92,-83.98l0 -335.73c0,-46.37 37.56,-83.97 83.92,-83.97 46.35,0 83.97,37.6 83.97,83.97l0 335.73c0,46.37 -37.62,83.98 -83.97,83.98zm419.7 0l0 0c-46.35,0 -83.92,-37.61 -83.92,-83.98l0 -335.73c0,-46.37 37.57,-83.97 83.92,-83.97 46.36,0 83.98,37.6 83.98,83.97l0 335.73c0,46.37 -37.62,83.98 -83.98,83.98zm419.71 0l0 0c-46.37,0 -83.92,-37.61 -83.92,-83.98l0 -335.73c0,-46.37 37.55,-83.97 83.92,-83.97 46.36,0 83.96,37.6 83.96,83.97l0 335.73c0,46.37 -37.6,83.98 -83.96,83.98zm419.71 0l0 0c-46.37,0 -83.92,-37.61 -83.92,-83.98l0 -335.73c0,-46.37 37.55,-83.97 83.92,-83.97 46.35,0 83.96,37.6 83.96,83.97l0 335.73c0,46.37 -37.61,83.98 -83.96,83.98zm419.7 0l0 0c-46.37,0 -83.93,-37.61 -83.93,-83.98l0 -335.73c0,-46.37 37.56,-83.97 83.93,-83.97 46.36,0 83.97,37.6 83.97,83.97l0 335.73c0,46.37 -37.61,83.98 -83.97,83.98zm419.71 0l0 0c-46.37,0 -83.93,-37.61 -83.93,-83.98l0 -335.73c0,-46.37 37.56,-83.97 83.93,-83.97 46.36,0 83.96,37.6 83.96,83.97l0 335.73c0,46.37 -37.6,83.98 -83.96,83.98zm-2350.35 167.89l2602.21 0 0 1846.71 -2602.21 0 0 -1846.71zm419.71 -419.71l83.92 0m335.79 0l83.92 0m335.78 0l83.92 0m335.79 0l83.96 0m335.75 0l83.96 0m335.73 0l83.98 0 0 419.71 -2602.21 0 0 -419.71 83.92 0"/>
 </g>
</svg>
