<?xml version="1.0" encoding="UTF-8"?>
<!DOCTYPE svg PUBLIC "-//W3C//DTD SVG 1.1//EN" "http://www.w3.org/Graphics/SVG/1.1/DTD/svg11.dtd">
<!-- Creator: CorelDRAW 2017 -->
<svg xmlns="http://www.w3.org/2000/svg" xml:space="preserve" width="45.8892mm" height="33.6972mm" version="1.1" style="shape-rendering:geometricPrecision; text-rendering:geometricPrecision; image-rendering:optimizeQuality; fill-rule:evenodd; clip-rule:evenodd"
viewBox="0 0 4588.92 3369.72"
 xmlns:xlink="http://www.w3.org/1999/xlink">
 <defs>
  <style type="text/css">
   <![CDATA[
    .str0 {stroke:#58595B;stroke-width:52.92;stroke-miterlimit:10}
    .fil0 {fill:none;fill-rule:nonzero}
   ]]>
  </style>
 </defs>
 <g id="Capa_x0020_1">
  <metadata id="CorelCorpID_0Corel-Layer"/>
  <path class="fil0 str0" d="M3323.83 1008l-42.27 -84.61 -338.45 0 0 84.61 0 423.05 676.83 0 0 -423.05 -296.11 0zm-239.71 197.44l56.38 0m112.84 0l56.39 0m112.82 0l56.4 0m-2368.98 0l56.39 0m112.84 0l56.38 0m112.83 0l56.4 0m-155.11 -197.44l-42.34 -84.61 -338.39 0 0 84.61 0 423.05 676.83 0 0 -423.05 -296.1 0zm1734.42 1212.7l56.38 0m112.84 0l56.39 0m112.82 0l56.4 0m-155.12 -197.43l-42.27 -84.61 -338.45 0 0 84.61 0 423.04 676.83 0 0 -423.04 -296.11 0zm-2213.86 197.43l56.39 0m112.84 0l56.38 0m112.83 0l56.4 0m-155.11 -197.43l-42.34 -84.61 -338.39 0 0 84.61 0 423.04 676.83 0 0 -423.04 -296.1 0zm747.37 761.43l56.39 0m112.78 0l56.44 0m112.77 0l56.44 0m-155.15 -197.39l-42.28 -84.6 -338.43 0 0 84.6 0 423.06 676.87 0 0 -423.06 -296.16 0zm-239.67 -1945.92l56.39 0m112.78 0l56.44 0m112.77 0l56.44 0m-155.15 -197.43l-42.28 -84.62 -338.43 0 0 84.62 0 423.04 676.87 0 0 -423.04 -296.16 0zm465.38 1240.87c0,280.38 -227.28,507.66 -507.66,507.66 -280.38,0 -507.66,-227.28 -507.66,-507.66 0,-280.33 227.28,-507.61 507.66,-507.61 280.38,0 507.66,227.28 507.66,507.61zm-283.52 -141c-12,-22.62 -26.61,-42.53 -42.93,-60.02l58.12 -109.69 -112.05 -70.51 -58.06 109.6c-44.59,-13.48 -92.38,-13.77 -138.34,0.14l-58.17 -109.74 -112.03 70.51 58.16 109.78c-34.08,36.38 -57.73,81.61 -69.32,130.43l-116.13 0 0 141.05 116.27 0c5.71,24.09 14.21,47.84 26.21,70.5 11.99,22.62 26.59,42.52 42.91,59.98l-58.1 109.73 112.03 70.5 58.07 -109.59c44.58,13.48 92.37,13.77 138.35,-0.19l58.15 109.78 112.05 -70.5 -58.16 -109.79c34.06,-36.37 57.71,-81.65 69.32,-130.42l116.11 0 0 -141.05 -116.26 0c-5.7,-24.14 -14.21,-47.84 -26.2,-70.5zm-126.45 70.5c31.12,53.98 12.63,122.96 -41.3,154.08 -53.93,31.17 -122.9,12.68 -154.08,-41.25 -31.12,-53.98 -12.64,-122.96 41.29,-154.08 53.94,-31.17 122.92,-12.68 154.09,41.25zm550.96 -493.5l-253.83 253.77m-761.43 648.67l-282.05 281.99m1015.26 -281.99l282.05 281.99m-1043.48 -930.66l-253.83 -253.77m648.66 -253.83l0 310.22m0 1015.27l0 310.22"/>
 </g>
</svg>
