<?xml version="1.0" encoding="UTF-8"?>
<!DOCTYPE svg PUBLIC "-//W3C//DTD SVG 1.1//EN" "http://www.w3.org/Graphics/SVG/1.1/DTD/svg11.dtd">
<!-- Creator: CorelDRAW 2017 -->
<svg xmlns="http://www.w3.org/2000/svg" xml:space="preserve" width="45.8892mm" height="33.6972mm" version="1.1" style="shape-rendering:geometricPrecision; text-rendering:geometricPrecision; image-rendering:optimizeQuality; fill-rule:evenodd; clip-rule:evenodd"
viewBox="0 0 4588.92 3369.72"
 xmlns:xlink="http://www.w3.org/1999/xlink">
 <defs>
  <style type="text/css">
   <![CDATA[
    .str0 {stroke:black;stroke-width:152.05;stroke-miterlimit:10}
    .fil0 {fill:none;fill-rule:nonzero}
   ]]>
  </style>
 </defs>
 <g id="Capa_x0020_1">
  <metadata id="CorelCorpID_0Corel-Layer"/>
  <path class="fil0 str0" d="M2631.45 518.31l311.08 0 0 2799.72 -2281.25 0 0 -2799.72 311.08 0m1192.49 -259.23c0,-143.18 -162.49,-259.23 -362.93,-259.23 -200.44,0 -362.92,116.05 -362.92,259.23l-466.64 0 0 414.78 1659.1 0 0 -414.78 -466.61 0zm-414.78 0l103.7 0m-822.5 862.52l152.01 329.95 255.72 -537.33m-103.7 589.18l103.7 0m103.68 0l103.7 0m103.69 0l103.7 0m103.68 0l103.7 0m103.7 0l103.68 0m103.7 0l103.68 0m103.7 0l103.71 0m-1652.05 395.9l152.01 329.95 255.72 -537.33m-103.7 589.2l103.7 0m103.68 0l103.7 0m103.69 0l103.7 0m103.68 0l103.7 0m103.7 0l103.68 0m103.7 0l103.68 0m103.7 0l103.71 0m-1652.05 414.75l152.01 329.96 255.72 -537.35m-103.7 589.18l103.7 0m103.68 0l103.7 0m103.69 0l103.7 0m103.68 0l103.7 0m103.7 0l103.68 0m103.7 0l103.68 0m103.7 0l103.71 0m933.23 -278.09l-414.77 0 0 -2157.71c0,-39.61 32.11,-71.7 71.7,-71.7l271.37 0c39.59,0 71.7,32.09 71.7,71.7l0 2157.71zm0 -2125.71c0,-85.9 69.63,-155.55 155.55,-155.55 85.9,0 155.53,69.65 155.53,155.55 0,85.89 -69.63,155.54 -155.53,155.54m0 -51.85l0 1088.78m-155.55 1036.93l-207.39 362.94 -207.38 -362.94 0 -103.69 414.77 0 0 103.69zm-207.39 362.94l0 103.68m-207.38 -2022.01l414.77 0m-414.77 725.84l414.77 0m-207.39 103.69l0 518.47"/>
 </g>
</svg>
