<?xml version="1.0" encoding="UTF-8"?>
<!DOCTYPE svg PUBLIC "-//W3C//DTD SVG 1.1//EN" "http://www.w3.org/Graphics/SVG/1.1/DTD/svg11.dtd">
<!-- Creator: CorelDRAW 2017 -->
<svg xmlns="http://www.w3.org/2000/svg" xml:space="preserve" width="45.8892mm" height="33.6972mm" version="1.1" style="shape-rendering:geometricPrecision; text-rendering:geometricPrecision; image-rendering:optimizeQuality; fill-rule:evenodd; clip-rule:evenodd"
viewBox="0 0 4588.92 3369.72"
 xmlns:xlink="http://www.w3.org/1999/xlink">
 <defs>
  <style type="text/css">
   <![CDATA[
    .fil0 {fill:#ED1D24;fill-rule:nonzero}
   ]]>
  </style>
 </defs>
 <g id="Capa_x0020_1">
  <metadata id="CorelCorpID_0Corel-Layer"/>
  <path class="fil0" d="M2358.57 1979.87c17.3,0 34.65,-7.15 46.82,-19.39 12.23,-12.18 19.4,-29.48 19.4,-46.83 0,-17.3 -7.17,-34.6 -19.4,-45.78 -24.4,-25.47 -69.2,-25.47 -92.62,-1.05 -13.27,12.23 -20.37,29.53 -20.37,46.83 0,17.35 7.1,34.65 19.34,46.83 13.22,12.24 29.53,19.39 46.83,19.39zm1920.17 1062.45l-307.49 -190.9c-30.91,-19.2 -71.83,-9.65 -91.13,21.32 -19.28,31.03 -9.73,71.83 21.33,91.13l307.49 190.9c10.84,6.77 22.92,9.95 34.85,9.95 22.12,0 43.75,-11.1 56.27,-31.28 19.3,-31.02 9.75,-71.82 -21.32,-91.12zm-1877.67 -290.93l-381.81 497.79c-22.26,28.97 -16.8,70.54 12.24,92.77 11.98,9.25 26.15,13.67 40.21,13.67 19.89,0 39.52,-8.9 52.55,-25.9l381.81 -497.81c22.28,-28.97 16.8,-70.52 -12.23,-92.75 -28.94,-22.27 -70.49,-16.8 -92.77,12.23zm2109.68 -890.59l-458.16 92.18c-35.8,7.2 -59.01,42.1 -51.8,77.95 6.3,31.42 33.95,53.09 64.82,53.09 4.32,0 8.7,-0.39 13.13,-1.29l458.16 -92.18c35.8,-7.2 59.02,-42.1 51.8,-77.94 -7.15,-35.8 -41.85,-59.21 -77.95,-51.81zm-3597.53 -1292.82c12.68,19.53 33.9,30.12 55.58,30.12 12.37,0 24.87,-3.42 35.99,-10.63 30.63,-19.94 39.38,-60.89 19.5,-91.57l-293.12 -451.66c-19.9,-30.68 -60.95,-39.28 -91.57,-19.5 -30.63,19.95 -39.38,60.92 -19.5,91.58l293.12 451.66zm-303.75 656.38c29.97,0 57.12,-20.53 64.32,-50.96 8.45,-35.59 -13.57,-71.24 -49.1,-79.64l-544.34 -128.85c-35.5,-8.52 -71.2,13.61 -79.65,49.1 -8.44,35.6 13.58,71.25 49.13,79.65l544.33 128.87c5.11,1.23 10.28,1.83 15.31,1.83zm2424.17 108.08c8.8,0 17.8,-1.8 26.4,-5.58l264.66 -115.36 -94.99 139.59c-20.52,30.22 -12.73,71.37 17.5,91.97 11.38,7.75 24.35,11.42 37.19,11.42 21.18,0 41.96,-10.14 54.78,-28.92l223.92 -329.07c0.5,-0.75 0.52,-1.63 1,-2.37 1.38,-2.22 2.38,-4.55 3.49,-6.94 1.48,-3.13 2.48,-6.26 3.44,-9.59 0.69,-2.36 1.83,-4.54 2.25,-6.93 0.1,-0.52 0.42,-0.93 0.5,-1.46 0.28,-1.79 -0.36,-3.41 -0.25,-5.2 0.29,-3.7 0.2,-7.26 -0.17,-11.04 -0.26,-2.7 -0.14,-5.32 -0.73,-7.95 -0.56,-2.55 -1.68,-4.74 -2.54,-7.17 -0.57,-1.67 -0.37,-3.4 -1.08,-5.02 -0.7,-1.63 -2.1,-2.67 -2.93,-4.19 -1.21,-2.3 -2.08,-4.63 -3.56,-6.81 -1.52,-2.16 -3.48,-3.83 -5.24,-5.8 -2.53,-2.87 -5.09,-5.43 -8.04,-7.77 -1.39,-1.12 -2.14,-2.72 -3.64,-3.73 -0.45,-0.32 -0.99,-0.32 -1.46,-0.62 -1.96,-1.26 -4.25,-1.87 -6.34,-2.94 -3.69,-1.88 -7.35,-3.31 -11.33,-4.47 -2.29,-0.65 -4.42,-1.75 -6.75,-2.14 -0.52,-0.09 -0.9,-0.44 -1.42,-0.51l-393.49 -59.92c-35.79,-5.35 -69.84,19.35 -75.37,55.5 -5.5,36.07 19.35,69.85 55.49,75.35l166.9 25.42 -264.69 115.38c-33.5,14.57 -48.82,53.59 -34.2,87.09 10.83,24.91 35.15,39.78 60.7,39.78zm-900.25 1322.85c2.14,1.23 4.14,2.29 6.38,3.24 8.42,3.63 17.12,6.11 25.95,6.11l0.05 -0.02c0.02,0 0.03,0.02 0.03,0.02 8.87,0 17.57,-2.48 25.97,-6.11 2.25,-0.95 4.25,-2.01 6.39,-3.24 2.18,-1.23 4.56,-1.87 6.64,-3.38 376.32,-274.59 657.74,-539.76 840.28,-789.63 96.33,81.21 203.46,165.6 324.04,253.57 2.06,1.51 4.44,2.14 6.62,3.37 2.15,1.21 4.14,2.28 6.4,3.25 8.41,3.62 17.11,6.1 25.95,6.1l0.05 -0.02c0.02,0 0.02,0.02 0.02,0.02 8.87,0 17.57,-2.48 25.97,-6.1 2.26,-0.97 4.26,-2.04 6.4,-3.25 2.18,-1.23 4.56,-1.86 6.64,-3.37 1123,-819.26 1140.45,-1345.33 1050.96,-1586 -84.03,-225.79 -324.6,-362.96 -598.12,-339.79 -179.93,14.77 -382.74,108.09 -491.87,313.94 -109.14,-205.85 -311.94,-299.17 -491.88,-313.94 -273.72,-23.17 -514.14,114.03 -598.11,339.79 -30.13,81.03 -47.91,194.58 -15.67,340.63 -56.13,47.36 -101.77,104.58 -136.57,169.85 -109.11,-206.03 -312,-299.42 -492,-314.21 -274.04,-22.62 -514.11,114.1 -598.12,339.8 -59.82,160.87 -71.31,449.45 262.66,867.67l-240.3 104.75 -436.4 -174.11c-33.85,-13.63 -72.47,2.94 -85.95,36.95 -13.57,33.95 2.98,72.42 36.95,85.95l314.78 125.58 -75.06 32.73 -436.44 -174.12c-33.87,-13.57 -72.49,2.93 -85.97,36.93 -13.56,33.95 2.99,72.44 36.95,85.95l314.84 125.61 -75.1 32.74 -436.41 -174.1c-33.95,-13.62 -72.48,2.93 -85.95,36.94 -13.58,33.96 2.97,72.43 36.92,85.95l314.8 125.58 -127.62 55.64c-33.5,14.56 -48.81,53.58 -34.2,87.1 10.84,24.91 35.15,39.76 60.7,39.76 8.8,0 17.79,-1.78 26.39,-5.56l131.01 -57.1 -124.18 321.03c-13.18,34.05 3.77,72.39 37.87,85.62 7.86,3.02 15.91,4.47 23.87,4.47 26.55,0 51.55,-16.12 61.73,-42.37l171.44 -443.18 74.96 -32.67 -124.2 321.05c-13.17,34.05 3.8,72.38 37.9,85.6 7.85,3.03 15.9,4.48 23.85,4.48 26.55,0 51.57,-16.11 61.75,-42.36l171.43 -443.19 74.94 -32.67 -124.13 321c-13.17,34.11 3.78,72.39 37.88,85.61 7.87,3.03 15.92,4.48 23.87,4.48 26.55,0 51.55,-16.1 61.75,-42.37l171.37 -443.14 273.11 -119.06c162.6,181.97 388.4,386.11 699.15,612.82 2.08,1.51 4.46,2.15 6.64,3.38zm308.85 -2079.26c72.83,-195.87 284.92,-268.6 463.19,-254.09 177.97,14.62 386.42,124.24 437.74,387.98 0.02,0.17 0.15,0.28 0.18,0.47 4.18,20.62 18.68,37.31 38.23,46.12 4.39,1.97 8.53,4.51 13.3,5.49 0.24,0.05 0.41,0.22 0.62,0.27 4.38,0.8 8.45,-0.12 12.71,-0.13 4.21,0.01 8.27,0.93 12.56,0.13 0.23,-0.05 0.38,-0.22 0.61,-0.27 20.02,-4.02 36.15,-17.61 45.19,-36.09 2.47,-5.04 5.24,-9.95 6.35,-15.54 0.05,-0.17 0.16,-0.28 0.2,-0.45 51.3,-263.74 259.75,-373.36 437.72,-387.98 177.79,-14.51 390.31,58.22 463.19,254.09 60.85,163.42 85.5,625.08 -965.89,1403.89 -1051.4,-778.81 -1026.75,-1240.47 -965.9,-1403.89zm-886.74 1407.3l401.42 -174.97c33.51,-14.58 48.83,-53.6 34.21,-87.11 -14.63,-33.55 -53.7,-49.02 -87.1,-34.2l-440.03 191.82c-330.64,-400.75 -305.97,-654.36 -264.13,-766.77 72.84,-195.93 284.82,-268.65 463.19,-254.08 177.97,14.6 386.44,124.23 437.74,387.97 0.03,0.16 0.15,0.3 0.18,0.46 1.46,7.19 4.61,13.74 8.25,19.98 5.07,8.65 11.43,16.32 19.58,21.83 0.5,0.33 1.21,0.4 1.73,0.73 6.77,4.29 14.19,7.55 22.17,9.16 0.17,0.04 0.29,0.15 0.44,0.19 4.27,0.79 8.5,1.18 12.67,1.18 2.45,0 4.64,-0.95 7.04,-1.22 1.88,-0.21 3.64,0.4 5.54,0.04 1.56,-0.32 2.73,-1.35 4.26,-1.77 5.04,-1.35 9.63,-3.39 14.17,-5.85 2.73,-1.48 5.49,-2.68 7.95,-4.49 4.28,-3.16 7.77,-7.07 11.19,-11.2 1.74,-2.08 3.8,-3.74 5.24,-6 3.25,-5.03 5.29,-10.82 7.11,-16.75 0.61,-2 1.83,-3.73 2.24,-5.81 0.04,-0.18 0.16,-0.3 0.19,-0.48 18.21,-93.71 57.26,-172.25 115.13,-235.38 81.3,204.67 257.36,459.5 598.86,764.67 -167.68,232.46 -429.11,481.09 -779.15,740.58 -267.14,-197.89 -464.92,-375.3 -610.09,-532.53zm1905.93 336.88c-88.26,7.24 -163.77,47.43 -215.17,109.81 -51.38,-62.38 -126.89,-102.57 -215.17,-109.81 -138.15,-10.98 -259.74,58.87 -302.84,174.6 -43.36,116.53 -38.78,368.44 478.99,746.16 2.08,1.52 4.45,2.15 6.64,3.38 2.14,1.23 4.14,2.29 6.4,3.26 8.4,3.62 17.1,6.09 25.94,6.09 0,0 0.03,-0.02 0.04,-0.02l0.05 0.02c8.85,0 17.55,-2.47 25.95,-6.09 2.27,-0.97 4.25,-2.03 6.39,-3.26 2.18,-1.23 4.56,-1.86 6.64,-3.38 517.78,-377.72 522.36,-629.63 479.01,-746.16 -43.07,-115.73 -164.52,-185.58 -302.87,-174.6zm-215.17 784.46c-345.76,-262.01 -431.8,-462.08 -393.99,-563.68 25.47,-68.5 105.05,-93.9 168,-88.88 31.77,2.63 137.36,20.62 161.02,142.43 0.03,0.18 0.15,0.29 0.2,0.48 1.54,7.65 4.77,14.72 8.8,21.27 0.48,0.78 0.58,1.8 1.08,2.55 7.37,10.96 18.68,18.6 31.5,23.6 3.38,1.32 6.41,3.38 9.99,4.13 0.29,0.05 0.5,0.26 0.78,0.31 4.36,0.8 8.43,-0.13 12.67,-0.15 4.23,0.02 8.29,0.95 12.58,0.15 0.3,-0.05 0.5,-0.26 0.78,-0.31 6.34,-1.3 11.97,-4.28 17.58,-7.27 1.92,-1.04 4.28,-1.35 6.06,-2.56 9.33,-6.26 16.08,-15.47 21.22,-25.84 2.56,-5.14 5.36,-10.18 6.53,-15.9 0.03,-0.17 0.15,-0.3 0.18,-0.46 23.67,-121.81 129.27,-139.8 161.02,-142.43 62.95,-5.02 142.54,20.38 168,88.88 37.8,101.6 -48.21,301.67 -394,563.68zm723.05 -2130.77c17.3,0 33.61,-7.11 46.83,-19.35 12.24,-12.22 19.34,-28.48 19.34,-46.83 0,-17.3 -7.1,-33.6 -19.34,-46.82 -25.45,-24.4 -69.25,-24.4 -93.65,0 -12.23,12.22 -19.4,29.52 -19.4,46.82 0,17.31 7.17,34.61 19.4,46.83 12.18,12.24 29.52,19.35 46.82,19.35zm-2194.14 -520.26c17.3,0 33.6,-7.11 46.83,-19.35 12.22,-12.22 19.34,-28.52 19.34,-46.83 0,-17.3 -7.12,-34.6 -20.34,-46.82 -24.46,-24.47 -67.21,-24.47 -93.65,0 -12.23,13.22 -18.35,29.52 -18.35,46.82 0,18.31 6.12,34.61 19.35,46.83 12.22,12.24 29.52,19.35 46.82,19.35z"/>
 </g>
</svg>
