<?xml version="1.0" encoding="UTF-8"?>
<!DOCTYPE svg PUBLIC "-//W3C//DTD SVG 1.1//EN" "http://www.w3.org/Graphics/SVG/1.1/DTD/svg11.dtd">
<!-- Creator: CorelDRAW 2017 -->
<svg xmlns="http://www.w3.org/2000/svg" xml:space="preserve" width="45.8892mm" height="33.6972mm" version="1.1" style="shape-rendering:geometricPrecision; text-rendering:geometricPrecision; image-rendering:optimizeQuality; fill-rule:evenodd; clip-rule:evenodd"
viewBox="0 0 4588.92 3369.72"
 xmlns:xlink="http://www.w3.org/1999/xlink">
 <defs>
  <style type="text/css">
   <![CDATA[
    .str0 {stroke:#58595B;stroke-width:52.92;stroke-miterlimit:10}
    .fil0 {fill:none;fill-rule:nonzero}
   ]]>
  </style>
 </defs>
 <g id="Capa_x0020_1">
  <metadata id="CorelCorpID_0Corel-Layer"/>
  <path class="fil0 str0" d="M2704.69 632.14l-820.48 0c-38.49,0 -69.66,-31.27 -69.66,-69.86l0 -221.14c0,-38.59 31.17,-69.86 69.66,-69.86l820.48 0c38.51,0 69.72,31.27 69.72,69.86l0 221.14c0,38.59 -31.21,69.86 -69.72,69.86zm-680.21 210.52l0 -210.52 539.96 0 0 210.52m-539.96 -481.17l0 180.43m179.98 -180.43l0 180.43m179.98 -180.43l0 180.43m180 -180.43l0 180.43m-1107.2 379.58l-271.58 272.23 -181.02 -181.46 271.53 -272.23 181.07 181.46zm-226.31 226.9l135.74 136.08m45.28 -317.6l135.79 136.14m1583.99 -181.52l271.53 272.23 181.02 -181.46 -271.53 -272.23 -181.02 181.46zm226.3 226.9l-135.8 136.08m-45.27 -317.6l-135.74 136.14m393.11 852.69c0,631.1 -510.37,1142.74 -1139.84,1142.74 -629.55,0 -1139.86,-511.64 -1139.86,-1142.74 0,-631.11 510.31,-1142.75 1139.86,-1142.75 629.47,0 1139.84,511.64 1139.84,1142.75zm-234.27 8.6c0,498.26 -402.89,902.14 -899.87,902.14 -496.99,0 -899.89,-403.88 -899.89,-902.14 0,-498.21 402.9,-902.15 899.89,-902.15 496.98,0 899.87,403.94 899.87,902.15zm-905.57 -881.11l0 150.35m0 1473.52l0 150.38m-435.06 -1648.53l68.69 119.26m732.67 1272.25l81.42 141.39m-1201.26 -1213.64l118.99 68.83m1269.04 734.55l139.18 80.58m-1643.57 -456.84l149.99 0m1439.8 0l179.98 0m-1653.41 445.13l118.99 -68.87m199.49 388.13l68.69 -119.26m366.37 -1396.92c429.92,0 749.88,320.74 749.88,751.79m-253.83 96.72c0,0 -445.23,61.15 -519.95,47.93 -74.69,-13.23 -124.58,-84.66 -111.41,-159.53 13.19,-74.93 84.41,-124.94 159.15,-111.75 74.73,13.22 472.21,223.35 472.21,223.35z"/>
 </g>
</svg>
