<?xml version="1.0" encoding="UTF-8"?>
<!DOCTYPE svg PUBLIC "-//W3C//DTD SVG 1.1//EN" "http://www.w3.org/Graphics/SVG/1.1/DTD/svg11.dtd">
<!-- Creator: CorelDRAW 2017 -->
<svg xmlns="http://www.w3.org/2000/svg" xml:space="preserve" width="57.6578mm" height="45.8892mm" version="1.1" style="shape-rendering:geometricPrecision; text-rendering:geometricPrecision; image-rendering:optimizeQuality; fill-rule:evenodd; clip-rule:evenodd"
viewBox="0 0 5765.78 4588.92"
 xmlns:xlink="http://www.w3.org/1999/xlink">
 <defs>
  <style type="text/css">
   <![CDATA[
    .str5 {stroke:#1F3B94;stroke-width:68.51;stroke-miterlimit:10}
    .str4 {stroke:#58595B;stroke-width:68.51;stroke-miterlimit:10}
    .str0 {stroke:#1F3B94;stroke-width:80.82;stroke-linecap:round;stroke-linejoin:round;stroke-miterlimit:4}
    .str2 {stroke:#788ABF;stroke-width:80.82;stroke-linecap:round;stroke-linejoin:round;stroke-miterlimit:4}
    .str3 {stroke:#1F3B94;stroke-width:68.51;stroke-linecap:round;stroke-linejoin:round;stroke-miterlimit:4}
    .str1 {stroke:#1F3B94;stroke-width:80.82;stroke-linecap:round;stroke-linejoin:round;stroke-miterlimit:4;stroke-dasharray:84.660000 84.660000}
    .fil2 {fill:none;fill-rule:nonzero}
    .fil5 {fill:#1F3B94;fill-rule:nonzero}
    .fil4 {fill:#788ABF;fill-rule:nonzero}
    .fil3 {fill:#A6B0D4;fill-rule:nonzero}
    .fil0 {fill:#D1D9E8;fill-rule:nonzero}
    .fil1 {fill:white;fill-rule:nonzero}
   ]]>
  </style>
 </defs>
 <g id="Capa_x0020_1">
  <metadata id="CorelCorpID_0Corel-Layer"/>
  <g id="_2097102802256">
   <path class="fil0" d="M4924.69 4132.49c0,-252.48 -920.77,-457.15 -2056.6,-457.15 -1135.83,0 -2056.6,204.67 -2056.6,457.15 0,252.48 920.77,457.15 2056.6,457.15 1135.83,0 2056.6,-204.67 2056.6,-457.15z"/>
   <path class="fil1" d="M3900.96 2304.43l-2065.75 0c-60.58,0 -109.67,49.1 -109.67,109.69l0 1261.38 2285.11 0 0 -1261.38c0,-60.59 -49.11,-109.69 -109.69,-109.69z"/>
   <path class="fil2 str0" d="M3900.96 2304.43l-2065.75 0c-60.58,0 -109.67,49.1 -109.67,109.69l0 1261.38 2285.11 0 0 -1261.38c0,-60.59 -49.11,-109.69 -109.69,-109.69z"/>
   <polygon class="fil3 str0" points="3864.4,2450.67 1871.78,2450.67 1871.78,3529.24 3864.4,3529.24 "/>
   <polygon class="fil1" points="4239.19,4132.34 4010.61,3675.34 1725.5,3675.65 1497.04,4132.7 "/>
   <polygon class="fil2 str0" points="4239.19,4132.34 4010.61,3675.34 1725.5,3675.65 1497.04,4132.7 "/>
   <path class="fil3" d="M4125.08 4246.78l-2513.98 0c-63.01,0 -114.08,-51.07 -114.08,-114.08l0 -0.19 2742.14 0 0 0.19c0,63.01 -51.08,114.08 -114.08,114.08z"/>
   <path class="fil2 str0" d="M4125.08 4246.78l-2513.98 0c-63.01,0 -114.08,-51.07 -114.08,-114.08l0 -0.19 2742.14 0 0 0.19c0,63.01 -51.08,114.08 -114.08,114.08z"/>
   <line class="fil2 str0" x1="1773.52" y1="4018.27" x2="1810.08" y2= "4018.27" />
   <line class="fil2 str1" x1="1919.53" y1="4018.27" x2="3871.36" y2= "4018.27" />
   <path class="fil2 str0" d="M3926.1 4018.27l36.56 0m-2132.03 -114.27l36.57 0"/>
   <line class="fil2 str1" x1="1980.52" y1="3904.01" x2="3812.32" y2= "3904.01" />
   <path class="fil2 str0" d="M3868.97 3904.01l36.56 0m-2017.76 -114.26l36.56 0"/>
   <line class="fil2 str1" x1="2031.18" y1="3789.75" x2="3758.43" y2= "3789.75" />
   <line class="fil2 str0" x1="3811.84" y1="3789.75" x2="3848.4" y2= "3789.75" />
   <polygon class="fil1" points="3663.31,1847.5 2072.87,1847.5 2072.87,3492.69 3663.31,3492.69 "/>
   <polygon class="fil1 str0" points="3553.62,1847.5 2182.55,1847.5 2182.55,3529.26 3553.62,3529.26 "/>
   <polygon class="fil4" points="3325.11,1847.5 2868.09,1847.5 2982.34,1733.23 3210.85,1733.23 "/>
   <polygon class="fil2 str0" points="3325.11,1847.5 2868.09,1847.5 2982.34,1733.23 3210.85,1733.23 "/>
   <polygon class="fil3" points="3096.6,1847.5 2982.34,1733.23 2296.81,1733.23 2182.54,1847.5 2182.54,1961.76 3553.62,1961.76 3553.62,1847.5 "/>
   <polygon class="fil2 str0" points="3096.6,1847.5 2982.34,1733.23 2296.81,1733.23 2182.54,1847.5 2182.54,1961.76 3553.62,1961.76 3553.62,1847.5 "/>
   <line class="fil2 str0" x1="2868.09" y1="2372.96" x2="3325.11" y2= "2372.96" />
   <path class="fil2 str2" d="M3325.11 3150.12l-457.02 0m228.51 155.43l-228.51 0m457.02 0l-118.82 0m-109.69 -621.73l-228.51 0m457.02 0l-118.82 0m-109.69 310.86l228.51 0m-457.02 0l118.82 0m338.2 -155.43l-457.02 0"/>
   <path class="fil2 str0" d="M2868.09 2372.96l457.02 0m-457.02 -155.43l228.51 0m-457.02 201.16c0,-63.11 -51.15,-114.27 -114.27,-114.27 -63.09,0 -114.24,51.16 -114.24,114.27m171.38 -212.44c0,-31.54 -25.58,-57.13 -57.14,-57.13 -31.53,0 -57.12,25.59 -57.12,57.13 0,31.56 25.59,57.14 57.12,57.14 31.56,0 57.14,-25.58 57.14,-57.14z"/>
   <path class="fil1" d="M3593.64 3367.39c-46.8,0 -91.1,-22.64 -118.51,-60.55l-37.76 -52.13c-22.31,13.27 -47.87,20.39 -74.5,20.39 -63.07,0 -118.88,-40.2 -138.84,-99.97l-131.32 -394.01c-12.99,-38.86 -6.44,-81.94 17.52,-115.19 24.03,-33.33 62.83,-53.27 103.8,-53.27 13.74,0 27.36,2.22 40.47,6.58l394.02 131.36c48.46,16.17 84.36,55.44 96.09,105.12 8.86,37.59 2.71,76.08 -16.46,108.2l52.2 37.83c34.8,25.23 56.66,64.19 60.02,106.96 3.38,42.75 -12.1,84.62 -42.42,114.89l-100.9 100.94c-27.68,27.65 -64.38,42.85 -103.41,42.85z"/>
   <path class="fil1" d="M3613.83 2854.64l-393.94 -131.31c-14.29,-4.77 -27.88,8.83 -23.12,23.12l131.31 393.94c8.6,25.79 41.32,33.51 60.54,14.29l64.81 -64.81 110.58 152.71c13.19,18.21 39.56,20.31 55.48,4.41l100.94 -100.94c15.9,-15.92 13.8,-42.27 -4.41,-55.48l-152.71 -110.57 64.81 -64.82c19.21,-19.22 11.49,-51.95 -14.29,-60.54z"/>
   <path class="fil2 str0" d="M3613.83 2854.64l-393.94 -131.31c-14.29,-4.77 -27.88,8.83 -23.12,23.12l131.31 393.94c8.6,25.79 41.32,33.51 60.54,14.29l64.81 -64.81 110.58 152.71c13.19,18.21 39.56,20.31 55.48,4.41l100.94 -100.94c15.9,-15.92 13.8,-42.27 -4.41,-55.48l-152.71 -110.57 64.81 -64.82c19.21,-19.22 11.49,-51.95 -14.29,-60.54z"/>
   <path class="fil4" d="M552.62 1341.55l-62.9 36.31 110.39 191.2c19.26,33.34 61.89,44.77 95.23,25.52l65.43 -37.76 -208.15 -215.27z"/>
   <path class="fil2 str3" d="M552.62 1341.55l-62.9 36.31 110.39 191.2c19.26,33.34 61.89,44.77 95.23,25.52l65.43 -37.76 -208.15 -215.27z"/>
   <path class="fil4" d="M503.3 712.17l-461.18 437.59c-106.35,100.89 -4.96,276.48 135.57,234.83l609.56 -180.6 -283.95 -491.82z"/>
   <path class="fil2 str3" d="M503.3 712.17l-461.18 437.59c-106.35,100.89 -4.96,276.48 135.57,234.83l609.56 -180.6 -283.95 -491.82z"/>
   <path class="fil4" d="M608.84 978.26c-20.05,-34.73 -8.14,-79.14 26.59,-99.2 34.73,-20.05 79.15,-8.15 99.2,26.58 20.05,34.73 8.16,79.15 -26.58,99.21 -34.73,20.06 -79.14,8.15 -99.21,-26.59z"/>
   <path class="fil2 str3" d="M608.84 978.26c-20.05,-34.73 -8.14,-79.14 26.59,-99.2 34.73,-20.05 79.15,-8.15 99.2,26.58 20.05,34.73 8.16,79.15 -26.58,99.21 -34.73,20.06 -79.14,8.15 -99.21,-26.59z"/>
   <polygon class="fil1" points="503.3,712.17 394.94,814.99 644.04,1246.42 787.25,1203.99 "/>
   <polygon class="fil2 str4" points="503.3,712.17 394.94,814.99 644.04,1246.42 787.25,1203.99 "/>
   <polygon class="fil2 str3" points="503.3,712.17 69.86,1123.43 214.37,1373.73 787.25,1203.99 "/>
   <path class="fil4" d="M5213.17 1341.55l62.9 36.31 -110.39 191.2c-19.26,33.34 -61.9,44.77 -95.24,25.52l-65.42 -37.76 208.15 -215.27z"/>
   <path class="fil2 str3" d="M5213.17 1341.55l62.9 36.31 -110.39 191.2c-19.26,33.34 -61.9,44.77 -95.24,25.52l-65.42 -37.76 208.15 -215.27z"/>
   <path class="fil4" d="M5262.49 712.17l461.18 437.59c106.35,100.89 4.96,276.48 -135.57,234.83l-609.56 -180.6 283.95 -491.82z"/>
   <path class="fil2 str3" d="M5262.49 712.17l461.18 437.59c106.35,100.89 4.96,276.48 -135.57,234.83l-609.56 -180.6 283.95 -491.82z"/>
   <path class="fil4" d="M5156.94 978.26c20.07,-34.73 8.15,-79.14 -26.58,-99.2 -34.73,-20.05 -79.14,-8.15 -99.21,26.58 -20.04,34.73 -8.15,79.15 26.58,99.21 34.73,20.06 79.15,8.15 99.21,-26.59z"/>
   <path class="fil2 str3" d="M5156.94 978.26c20.07,-34.73 8.15,-79.14 -26.58,-99.2 -34.73,-20.05 -79.14,-8.15 -99.21,26.58 -20.04,34.73 -8.15,79.15 26.58,99.21 34.73,20.06 79.15,8.15 99.21,-26.59z"/>
   <polygon class="fil1" points="5262.49,712.17 5370.85,814.99 5121.75,1246.42 4978.54,1203.99 "/>
   <polygon class="fil2 str4" points="5262.49,712.17 5370.85,814.99 5121.75,1246.42 4978.54,1203.99 "/>
   <polygon class="fil2 str3" points="5262.49,712.17 5695.93,1123.43 5551.42,1373.73 4978.54,1203.99 "/>
   <path class="fil2 str5" d="M555.25 324.54c0,25.67 -20.81,46.48 -46.48,46.48 -25.66,0 -46.47,-20.81 -46.47,-46.48 0,-25.67 20.81,-46.48 46.47,-46.48 25.67,0 46.48,20.81 46.48,46.48z"/>
   <path class="fil2 str5" d="M5210.54 324.54c0,25.67 20.81,46.48 46.48,46.48 25.67,0 46.47,-20.81 46.47,-46.48 0,-25.67 -20.8,-46.48 -46.47,-46.48 -25.67,0 -46.48,20.81 -46.48,46.48z"/>
   <path class="fil5" d="M291.87 439.04c0,17.12 -13.88,30.99 -30.99,30.99 -17.1,0 -31,-13.87 -31,-30.99 0,-17.11 13.9,-30.99 31,-30.99 17.11,0 30.99,13.88 30.99,30.99z"/>
   <path class="fil2 str4" d="M291.87 439.04c0,17.12 -13.88,30.99 -30.99,30.99 -17.1,0 -31,-13.87 -31,-30.99 0,-17.11 13.9,-30.99 31,-30.99 17.11,0 30.99,13.88 30.99,30.99z"/>
   <path class="fil5" d="M5473.92 439.04c0,17.12 13.88,30.99 30.99,30.99 17.11,0 30.99,-13.87 30.99,-30.99 0,-17.11 -13.88,-30.99 -30.99,-30.99 -17.11,0 -30.99,13.88 -30.99,30.99z"/>
   <path class="fil2 str4" d="M5473.92 439.04c0,17.12 13.88,30.99 30.99,30.99 17.11,0 30.99,-13.87 30.99,-30.99 0,-17.11 -13.88,-30.99 -30.99,-30.99 -17.11,0 -30.99,13.88 -30.99,30.99z"/>
   <path class="fil5" d="M1149.13 1404.32c0,17.11 -13.87,30.99 -30.99,30.99 -17.1,0 -30.99,-13.88 -30.99,-30.99 0,-17.12 13.89,-31 30.99,-31 17.12,0 30.99,13.88 30.99,31z"/>
   <path class="fil2 str4" d="M1149.13 1404.32c0,17.11 -13.87,30.99 -30.99,30.99 -17.1,0 -30.99,-13.88 -30.99,-30.99 0,-17.12 13.89,-31 30.99,-31 17.12,0 30.99,13.88 30.99,31z"/>
   <path class="fil5" d="M4616.66 1404.32c0,17.11 13.87,30.99 30.99,30.99 17.1,0 30.98,-13.88 30.98,-30.99 0,-17.12 -13.88,-31 -30.98,-31 -17.12,0 -30.99,13.88 -30.99,31z"/>
   <path class="fil2 str4" d="M4616.66 1404.32c0,17.11 13.87,30.99 30.99,30.99 17.1,0 30.98,-13.88 30.98,-30.99 0,-17.12 -13.88,-31 -30.98,-31 -17.12,0 -30.99,13.88 -30.99,31z"/>
   <path class="fil5" d="M1118.15 2137.2c0,17.12 -13.88,30.99 -30.99,30.99 -17.11,0 -31,-13.87 -31,-30.99 0,-17.11 13.89,-30.98 31,-30.98 17.11,0 30.99,13.87 30.99,30.98z"/>
   <path class="fil2 str4" d="M1118.15 2137.2c0,17.12 -13.88,30.99 -30.99,30.99 -17.11,0 -31,-13.87 -31,-30.99 0,-17.11 13.89,-30.98 31,-30.98 17.11,0 30.99,13.87 30.99,30.98z"/>
   <path class="fil5" d="M4647.65 2137.2c0,17.12 13.87,30.99 30.98,30.99 17.1,0 30.99,-13.87 30.99,-30.99 0,-17.11 -13.89,-30.98 -30.99,-30.98 -17.11,0 -30.98,13.87 -30.98,30.98z"/>
   <path class="fil2 str4" d="M4647.65 2137.2c0,17.12 13.87,30.99 30.98,30.99 17.1,0 30.99,-13.87 30.99,-30.99 0,-17.11 -13.89,-30.98 -30.99,-30.98 -17.11,0 -30.98,13.87 -30.98,30.98z"/>
   <path class="fil5" d="M1760.7 1046.99c0,17.12 -13.88,30.99 -30.99,30.99 -17.12,0 -30.99,-13.87 -30.99,-30.99 0,-17.11 13.87,-30.98 30.99,-30.98 17.11,0 30.99,13.87 30.99,30.98z"/>
   <path class="fil2 str4" d="M1760.7 1046.99c0,17.12 -13.88,30.99 -30.99,30.99 -17.12,0 -30.99,-13.87 -30.99,-30.99 0,-17.11 13.87,-30.98 30.99,-30.98 17.11,0 30.99,13.87 30.99,30.98z"/>
   <path class="fil5" d="M2509.52 1485.79c0,62.09 -50.35,112.46 -112.46,112.46 -62.12,0 -112.45,-50.37 -112.45,-112.46 0,-62.12 50.33,-112.47 112.45,-112.47 62.11,0 112.46,50.35 112.46,112.47z"/>
   <path class="fil2 str4" d="M2509.52 1485.79c0,62.09 -50.35,112.46 -112.46,112.46 -62.12,0 -112.45,-50.37 -112.45,-112.46 0,-62.12 50.33,-112.47 112.45,-112.47 62.11,0 112.46,50.35 112.46,112.47z"/>
   <path class="fil5" d="M3510.15 1485.79c0,62.09 -50.35,112.46 -112.46,112.46 -62.12,0 -112.46,-50.37 -112.46,-112.46 0,-62.12 50.34,-112.47 112.46,-112.47 62.11,0 112.46,50.35 112.46,112.47z"/>
   <path class="fil2 str4" d="M3510.15 1485.79c0,62.09 -50.35,112.46 -112.46,112.46 -62.12,0 -112.46,-50.37 -112.46,-112.46 0,-62.12 50.34,-112.47 112.46,-112.47 62.11,0 112.46,50.35 112.46,112.47z"/>
   <path class="fil5" d="M4005.09 1046.99c0,17.12 13.87,30.99 30.99,30.99 17.11,0 30.99,-13.87 30.99,-30.99 0,-17.11 -13.88,-30.98 -30.99,-30.98 -17.12,0 -30.99,13.87 -30.99,30.98z"/>
   <path class="fil2 str4" d="M4005.09 1046.99c0,17.12 13.87,30.99 30.99,30.99 17.11,0 30.99,-13.87 30.99,-30.99 0,-17.11 -13.88,-30.98 -30.99,-30.98 -17.12,0 -30.99,13.87 -30.99,30.98z"/>
   <path class="fil1" d="M1721.97 1326.85c213.92,0 387.33,173.41 387.33,387.33 0,79.42 -23.99,153.2 -64.99,214.64l34 141.7 -141.69 -34.01c-61.45,41.01 -135.24,64.99 -214.65,64.99 -213.92,0 -387.34,-173.41 -387.34,-387.32 0,-213.92 173.42,-387.33 387.34,-387.33z"/>
   <path class="fil2 str3" d="M1721.97 1326.85c213.92,0 387.33,173.41 387.33,387.33 0,79.42 -23.99,153.2 -64.99,214.64l34 141.7 -141.69 -34.01c-61.45,41.01 -135.24,64.99 -214.65,64.99 -213.92,0 -387.34,-173.41 -387.34,-387.32 0,-213.92 173.42,-387.33 387.34,-387.33z"/>
   <path class="fil1" d="M4043.82 1326.85c-213.92,0 -387.33,173.41 -387.33,387.33 0,79.42 23.98,153.2 64.99,214.64l-34.01 141.7 141.7 -34.01c61.45,41.01 135.24,64.99 214.65,64.99 213.92,0 387.34,-173.41 387.34,-387.32 0,-213.92 -173.42,-387.33 -387.34,-387.33z"/>
   <path class="fil2 str3" d="M4043.82 1326.85c-213.92,0 -387.33,173.41 -387.33,387.33 0,79.42 23.98,153.2 64.99,214.64l-34.01 141.7 141.7 -34.01c61.45,41.01 135.24,64.99 214.65,64.99 213.92,0 387.34,-173.41 387.34,-387.32 0,-213.92 -173.42,-387.33 -387.34,-387.33z"/>
   <path class="fil5" d="M1605.77 1714.18c0,21.39 -17.35,38.73 -38.73,38.73 -21.4,0 -38.74,-17.34 -38.74,-38.73 0,-21.39 17.34,-38.73 38.74,-38.73 21.38,0 38.73,17.34 38.73,38.73z"/>
   <path class="fil2 str4" d="M1605.77 1714.18c0,21.39 -17.35,38.73 -38.73,38.73 -21.4,0 -38.74,-17.34 -38.74,-38.73 0,-21.39 17.34,-38.73 38.74,-38.73 21.38,0 38.73,17.34 38.73,38.73z"/>
   <path class="fil5" d="M4160.02 1714.18c0,21.39 17.35,38.73 38.73,38.73 21.4,0 38.74,-17.34 38.74,-38.73 0,-21.39 -17.34,-38.73 -38.74,-38.73 -21.38,0 -38.73,17.34 -38.73,38.73z"/>
   <path class="fil2 str4" d="M4160.02 1714.18c0,21.39 17.35,38.73 38.73,38.73 21.4,0 38.74,-17.34 38.74,-38.73 0,-21.39 -17.34,-38.73 -38.74,-38.73 -21.38,0 -38.73,17.34 -38.73,38.73z"/>
   <path class="fil5" d="M1760.7 1714.18c0,21.39 -17.35,38.73 -38.72,38.73 -21.41,0 -38.75,-17.34 -38.75,-38.73 0,-21.39 17.34,-38.73 38.75,-38.73 21.37,0 38.72,17.34 38.72,38.73z"/>
   <path class="fil2 str4" d="M1760.7 1714.18c0,21.39 -17.35,38.73 -38.72,38.73 -21.41,0 -38.75,-17.34 -38.75,-38.73 0,-21.39 17.34,-38.73 38.75,-38.73 21.37,0 38.72,17.34 38.72,38.73z"/>
   <path class="fil5" d="M4005.09 1714.18c0,21.39 17.35,38.73 38.73,38.73 21.4,0 38.74,-17.34 38.74,-38.73 0,-21.39 -17.34,-38.73 -38.74,-38.73 -21.38,0 -38.73,17.34 -38.73,38.73z"/>
   <path class="fil2 str4" d="M4005.09 1714.18c0,21.39 17.35,38.73 38.73,38.73 21.4,0 38.74,-17.34 38.74,-38.73 0,-21.39 -17.34,-38.73 -38.74,-38.73 -21.38,0 -38.73,17.34 -38.73,38.73z"/>
   <path class="fil5" d="M1915.63 1714.18c0,21.39 -17.35,38.73 -38.72,38.73 -21.41,0 -38.74,-17.34 -38.74,-38.73 0,-21.39 17.33,-38.73 38.74,-38.73 21.37,0 38.72,17.34 38.72,38.73z"/>
   <path class="fil2 str4" d="M1915.63 1714.18c0,21.39 -17.35,38.73 -38.72,38.73 -21.41,0 -38.74,-17.34 -38.74,-38.73 0,-21.39 17.33,-38.73 38.74,-38.73 21.37,0 38.72,17.34 38.72,38.73z"/>
   <path class="fil5" d="M3850.16 1714.18c0,21.39 17.35,38.73 38.72,38.73 21.41,0 38.75,-17.34 38.75,-38.73 0,-21.39 -17.34,-38.73 -38.75,-38.73 -21.37,0 -38.72,17.34 -38.72,38.73z"/>
   <path class="fil2 str4" d="M3850.16 1714.18c0,21.39 17.35,38.73 38.72,38.73 21.41,0 38.75,-17.34 38.75,-38.73 0,-21.39 -17.34,-38.73 -38.75,-38.73 -21.37,0 -38.72,17.34 -38.72,38.73z"/>
   <path class="fil2 str3" d="M1258.94 1043.68l-87.65 -87.65m0 87.65l87.65 -87.65"/>
   <path class="fil2 str3" d="M4506.85 1043.68l87.65 -87.65m0 87.65l-87.65 -87.65"/>
   <path class="fil2 str3" d="M882.57 1928.71l-68.47 -68.47m0 68.47l68.47 -68.47"/>
   <path class="fil2 str3" d="M5016.01 1928.71l68.47 -68.47m0 68.47l-68.47 -68.47"/>
   <polygon class="fil4" points="1692.72,342.02 1505.65,291.9 1397.39,695.95 1584.44,746.07 "/>
   <polygon class="fil2 str3" points="1692.72,342.02 1505.65,291.9 1397.39,695.95 1584.44,746.07 "/>
   <path class="fil1" d="M996.29 187.49l235.05 62.98c-9.7,-67.07 -10.18,-109.02 6.35,-170.72 9.97,-37.21 56.21,-89.19 93.41,-79.23 37.19,9.96 37.36,10.23 27.38,47.44 -22.39,83.56 28.59,206.77 89.37,260.53l41.76 43.27 -76.19 284.33 -165.7 19.76 -276.84 -74.19c-32.94,-8.81 -58.06,-43.86 -55.88,-77.88l17.45 -270.49c2.18,-34.02 30.92,-54.63 63.84,-45.8z"/>
   <path class="fil2 str3" d="M996.29 187.49l235.05 62.98c-9.7,-67.07 -10.18,-109.02 6.35,-170.72 9.97,-37.21 56.21,-89.19 93.41,-79.23 37.19,9.96 37.36,10.23 27.38,47.44 -22.39,83.56 28.59,206.77 89.37,260.53l41.76 43.27 -76.19 284.33 -165.7 19.76 -276.84 -74.19c-32.94,-8.81 -58.06,-43.86 -55.88,-77.88l17.45 -270.49c2.18,-34.02 30.92,-54.63 63.84,-45.8z"/>
   <line class="fil2 str3" x1="996.29" y1="187.49" x2="1273.16" y2= "261.68" />
   <polygon class="fil4" points="4073.07,342.02 4260.15,291.9 4368.4,695.95 4181.35,746.07 "/>
   <polygon class="fil2 str3" points="4073.07,342.02 4260.15,291.9 4368.4,695.95 4181.35,746.07 "/>
   <path class="fil1" d="M4769.5 187.49l-235.05 62.98c9.7,-67.07 10.18,-109.02 -6.36,-170.72 -9.96,-37.21 -56.2,-89.19 -93.4,-79.23 -37.19,9.96 -37.36,10.23 -27.38,47.44 22.39,83.56 -28.59,206.77 -89.37,260.53l-41.76 43.27 76.19 284.33 165.69 19.76 276.85 -74.19c32.94,-8.81 58.06,-43.86 55.88,-77.88l-17.45 -270.49c-2.18,-34.02 -30.92,-54.63 -63.84,-45.8z"/>
   <path class="fil2 str3" d="M4769.5 187.49l-235.05 62.98c9.7,-67.07 10.18,-109.02 -6.36,-170.72 -9.96,-37.21 -56.2,-89.19 -93.4,-79.23 -37.19,9.96 -37.36,10.23 -27.38,47.44 22.39,83.56 -28.59,206.77 -89.37,260.53l-41.76 43.27 76.19 284.33 165.69 19.76 276.85 -74.19c32.94,-8.81 58.06,-43.86 55.88,-77.88l-17.45 -270.49c-2.18,-34.02 -30.92,-54.63 -63.84,-45.8z"/>
   <line class="fil2 str3" x1="4769.5" y1="187.49" x2="4492.63" y2= "261.68" />
  </g>
 </g>
</svg>
