<?xml version="1.0" encoding="UTF-8"?>
<!DOCTYPE svg PUBLIC "-//W3C//DTD SVG 1.1//EN" "http://www.w3.org/Graphics/SVG/1.1/DTD/svg11.dtd">
<!-- Creator: CorelDRAW 2017 -->
<svg xmlns="http://www.w3.org/2000/svg" xml:space="preserve" width="45.8892mm" height="33.6972mm" version="1.1" style="shape-rendering:geometricPrecision; text-rendering:geometricPrecision; image-rendering:optimizeQuality; fill-rule:evenodd; clip-rule:evenodd"
viewBox="0 0 4588.92 3369.72"
 xmlns:xlink="http://www.w3.org/1999/xlink">
 <defs>
  <style type="text/css">
   <![CDATA[
    .str0 {stroke:#58595B;stroke-width:40.82;stroke-miterlimit:10}
    .fil0 {fill:none;fill-rule:nonzero}
   ]]>
  </style>
 </defs>
 <g id="Capa_x0020_1">
  <metadata id="CorelCorpID_0Corel-Layer"/>
  <path class="fil0 str0" d="M3327.94 2447.05c172.16,-221.53 274.91,-499.65 274.91,-801.91 0,-722.65 -585.77,-1308.42 -1308.38,-1308.42 -722.59,0 -1308.42,585.77 -1308.42,1308.42 0,302.26 102.81,580.38 274.97,801.91m1692.74 -211.01c140.75,-156.93 227.03,-363.56 227.03,-590.9 0,-489.51 -396.79,-886.35 -886.32,-886.35 -489.51,0 -886.35,396.84 -886.35,886.35 0,227.34 86.33,433.97 227.03,590.9m1085.96 -596.75l881.74 0m-199.1 -170.63l0 341.28m-426.64 -255.99l0 170.7m-1109.27 -85.36l-881.79 0m199.12 -170.63l0 341.28m426.68 -255.99l0 170.7m682.62 -1365.31l0 824.86m-85.34 -227.54l170.64 0m-255.93 -426.63l341.28 0m-483.51 1023.92l72.86 28.47 79.99 -113.76 320 0 79.99 113.76 72.9 -28.47m-14.2 -29.8l0 -40.94c0,-118 -86.59,-213.67 -193.36,-213.67l-210.67 0c-106.73,0 -193.31,95.67 -193.31,213.67l0 40.94c-47.15,0 -42.67,57.04 -42.67,127.33 0,70.31 -4.48,127.34 42.67,127.34 2.02,0 3.93,-0.69 5.91,-0.88 27.42,194.14 148.07,340.4 292.75,340.4 144.7,0 265.29,-146.26 292.73,-340.4 2,0.19 3.93,0.88 5.95,0.88 47.09,0 42.61,-57.03 42.61,-127.34 0,-70.29 4.48,-127.33 -42.61,-127.33zm412.42 1281.34l0 227.52m-1422.18 -227.52l0 227.52m511.98 -1023.96l0 231.61 -473.69 106.09c-70.34,0 -137.81,27.97 -187.56,77.73 -120.1,120.05 -192.08,438.72 -192.08,608.53m2104.82 0c0,-169.81 -71.98,-488.48 -192.08,-608.53 -49.71,-49.76 -117.2,-77.73 -187.51,-77.73l-473.68 -106.09 0 -231.61m-156.43 483.57l-85.36 0 -85.34 -170.69 255.99 0 -85.29 170.69zm-184.9 511.98l100.82 -511.98 82.74 0 100.88 511.98m-14.89 -679.03l42.43 169.75 212.19 -212.19 -169.77 -42.47 -84.85 84.91zm-254.67 0l-42.42 169.75 -212.19 -212.19 169.77 -42.47 84.84 84.91z"/>
 </g>
</svg>
