<?xml version="1.0" encoding="UTF-8"?>
<!DOCTYPE svg PUBLIC "-//W3C//DTD SVG 1.1//EN" "http://www.w3.org/Graphics/SVG/1.1/DTD/svg11.dtd">
<!-- Creator: CorelDRAW 2017 -->
<svg xmlns="http://www.w3.org/2000/svg" xml:space="preserve" width="3.4712mm" height="3.4712mm" version="1.1" style="shape-rendering:geometricPrecision; text-rendering:geometricPrecision; image-rendering:optimizeQuality; fill-rule:evenodd; clip-rule:evenodd"
viewBox="0 0 347.12 347.12"
 xmlns:xlink="http://www.w3.org/1999/xlink">
 <defs>
  <style type="text/css">
   <![CDATA[
    .fil3 {fill:none}
    .fil1 {fill:#0D507A}
    .fil0 {fill:#2873A6}
    .fil2 {fill:#EE4552}
   ]]>
  </style>
    <clipPath id="id0">
     <path d="M149.97 312.26c4.97,4.21 11.97,6.16 20.32,3.64 2.88,-0.87 5.65,-2.53 7.09,-3.77 16.26,-13.94 6.53,-35.95 -9.69,-38.93 9.65,7.84 12.75,23.59 0.09,34.45 -1.44,1.24 -4.21,2.9 -7.09,3.77 -3.89,1.18 -7.49,1.38 -10.72,0.84zm-10.49 -245.47c7.12,8.81 14.25,23.24 20.57,44.26 8.89,29.57 8.38,46.47 6.12,74l-10.78 -0.24c3.07,-37.24 5.55,-54.49 -4.85,-89.09 -3.49,-11.6 -7.22,-21.18 -11.06,-28.93zm161.66 41.24c16.65,10.27 9.49,25.2 -5.41,32.33 -38.08,18.19 -33.77,22.02 -57.37,51.53 -10.3,12.89 -17.97,15.91 -28.6,26.71 4.2,10.87 19.6,26.68 9.04,54.1 -26.39,-12.35 -47.86,-21.27 -81.6,-12.32 -5.6,1.48 -8.18,3.01 -12.76,4.35 -11.1,3.27 -12.87,-4.62 -10.66,-15.02l1.15 -0.31c4.58,-1.34 7.16,-2.87 12.76,-4.35 33.74,-8.95 55.21,-0.03 81.6,12.32 10.56,-27.42 -4.84,-43.23 -9.03,-54.1 10.62,-10.8 18.29,-13.82 28.59,-26.71 23.6,-29.51 19.29,-33.34 57.37,-51.53 8.29,-3.97 14.19,-10.35 14.92,-17z"/>
    </clipPath>
 </defs>
 <g id="Capa_x0020_1">
  <metadata id="CorelCorpID_0Corel-Layer"/>
  <g id="_2312404368448">
   <path class="fil0" d="M173.55 0.78l0.02 0c95.03,0 172.77,77.74 172.77,172.77l0 0.02c0,95.03 -77.74,172.77 -172.77,172.77l-0.02 0c-95.03,0 -172.77,-77.74 -172.77,-172.77l0 -0.02c0,-95.03 77.74,-172.77 172.77,-172.77zm-53.31 200.26c-12.95,-23.5 -22.67,-34.36 -29.13,-71.47 -15.39,-88.34 30.49,-130.11 59.43,-33.85 10.4,34.6 7.92,51.85 4.85,89.09l13.09 0.29c5.67,-29.42 20.41,-62.85 36.35,-77.77 13.11,-12.27 59.94,-30.93 86.58,-14.76 16.94,10.27 9.78,25.3 -5.19,32.46 -38.08,18.19 -33.77,22.02 -57.37,51.53 -10.3,12.89 -17.97,15.91 -28.59,26.71 4.19,10.87 19.59,26.68 9.03,54.1 -26.39,-12.35 -47.86,-21.27 -81.6,-12.32 -5.6,1.48 -8.18,3.01 -12.76,4.35 -24.53,7.23 -3.49,-40.09 5.31,-48.36zm26.79 68.63c-26.89,9.45 -13.97,50.1 13.66,41.75 2.88,-0.87 5.65,-2.53 7.09,-3.77 19.72,-16.91 1.2,-45.7 -20.75,-37.98z"/>
   <path class="fil1" d="M149.97 312.26c4.97,4.21 11.97,6.16 20.32,3.64 2.88,-0.87 5.65,-2.53 7.09,-3.77 16.26,-13.94 6.53,-35.95 -9.69,-38.93 9.65,7.84 12.75,23.59 0.09,34.45 -1.44,1.24 -4.21,2.9 -7.09,3.77 -3.89,1.18 -7.49,1.38 -10.72,0.84zm-10.49 -245.47c7.12,8.81 14.25,23.24 20.57,44.26 8.89,29.57 8.38,46.47 6.12,74l-10.78 -0.24c3.07,-37.24 5.55,-54.49 -4.85,-89.09 -3.49,-11.6 -7.22,-21.18 -11.06,-28.93zm161.66 41.24c16.65,10.27 9.49,25.2 -5.41,32.33 -38.08,18.19 -33.77,22.02 -57.37,51.53 -10.3,12.89 -17.97,15.91 -28.6,26.71 4.2,10.87 19.6,26.68 9.04,54.1 -26.39,-12.35 -47.86,-21.27 -81.6,-12.32 -5.6,1.48 -8.18,3.01 -12.76,4.35 -11.1,3.27 -12.87,-4.62 -10.66,-15.02l1.15 -0.31c4.58,-1.34 7.16,-2.87 12.76,-4.35 33.74,-8.95 55.21,-0.03 81.6,12.32 10.56,-27.42 -4.84,-43.23 -9.03,-54.1 10.62,-10.8 18.29,-13.82 28.59,-26.71 23.6,-29.51 19.29,-33.34 57.37,-51.53 8.29,-3.97 14.19,-10.35 14.92,-17z"/>
   <g style="clip-path:url(#id0)">
    <g>
     <ellipse class="fil2" cx="167.5" cy="379.82" rx="61.38" ry="53.17"/>
    </g>
   </g>
   <path class="fil3" d="M149.97 312.26c4.97,4.21 11.97,6.16 20.32,3.64 2.88,-0.87 5.65,-2.53 7.09,-3.77 16.26,-13.94 6.53,-35.95 -9.69,-38.93 9.65,7.84 12.75,23.59 0.09,34.45 -1.44,1.24 -4.21,2.9 -7.09,3.77 -3.89,1.18 -7.49,1.38 -10.72,0.84zm-10.49 -245.47c7.12,8.81 14.25,23.24 20.57,44.26 8.89,29.57 8.38,46.47 6.12,74l-10.78 -0.24c3.07,-37.24 5.55,-54.49 -4.85,-89.09 -3.49,-11.6 -7.22,-21.18 -11.06,-28.93zm161.66 41.24c16.65,10.27 9.49,25.2 -5.41,32.33 -38.08,18.19 -33.77,22.02 -57.37,51.53 -10.3,12.89 -17.97,15.91 -28.6,26.71 4.2,10.87 19.6,26.68 9.04,54.1 -26.39,-12.35 -47.86,-21.27 -81.6,-12.32 -5.6,1.48 -8.18,3.01 -12.76,4.35 -11.1,3.27 -12.87,-4.62 -10.66,-15.02l1.15 -0.31c4.58,-1.34 7.16,-2.87 12.76,-4.35 33.74,-8.95 55.21,-0.03 81.6,12.32 10.56,-27.42 -4.84,-43.23 -9.03,-54.1 10.62,-10.8 18.29,-13.82 28.59,-26.71 23.6,-29.51 19.29,-33.34 57.37,-51.53 8.29,-3.97 14.19,-10.35 14.92,-17z"/>
  </g>
 </g>
</svg>
